<svg xmlns="http://www.w3.org/2000/svg" viewBox="0 0 456 320"><path fill="#1BA598" id="RSPd1" d="M218 20h1l2-1c0-7.026-15.436-12-23-12-1.824 0-12-.781-12 1l1 5c6.853 0 31-3.337 31 7ZM236 18l2 2c0-10.434 25.379-7 31-7h1l1-5c-11.998 0-22.02-3.48-31.5 6-1.266 1.266-3.5 1.765-3.5 4Z"/><path fill="#1BA696" id="RSPagl1" d="m187 13-14 3-1-5c0-2.058 12.197-3 14-3l1 5ZM270 13c4.416 0 9.086 3 14 3l1-5c-2.776 0-10.389-3-14-3l-1 5Z"/><path fill="#09848B" id="VISam1" d="M173 16c-8.118 0-16.042 4-24 4 0-2.226.097-4-2-4 0-2.144 4.262-.38 5.5-1 5.454-2.727 13.024-4 19.5-4l1 5ZM309 16l-2 4c-7.628 0-15.228-4-23-4l1-5c6.476 0 14.046 1.273 19.5 4 1.147.574 4.5-1.064 4.5 1Z"/><path fill="#1BA697" id="RSPd2/3" d="M187 21c4.948 0 13.828-4.836 19.5-2l7.5 4c1.429 0 4-1.288 4-3 0-10.337-24.147-7-31-7v8ZM242 24h1c0-9.07 22.781-3 26-3v-8c-5.621 0-31-3.434-31 7l4 4Z"/><path fill="#1AA496" id="RSPagl2/3" d="M174 24v1c4.881 0 7.985-4 13-4v-8l-14 3c0 2.707 1 5.903 1 8ZM282 25h1v-1c0-2.707 1-5.903 1-8-4.914 0-9.584-3-14-3h-1v8c4.949 0 8.313 4 13 4Z"/><path fill="#019FAC" id="VISa1" d="M119 31h1c0-2.162 6.067-2.284 7.5-3 5.86-2.93 14.669-7 21.5-7v-1c0-2.226.097-4-2-4-6.714 0-15.706 4.103-21.5 7-1.479.74-8.5.967-8.5 3 2.461 0 2 3.378 2 5Z"/><path fill="#0B848A" id="VISam2/3" d="M174 24c-7.557 0-13.518 5-21 5 0-1.273-2.28-8-4-8v-1c7.958 0 15.882-4 24-4 0 2.707 1 5.903 1 8ZM283 24c7.181 0 12.765 5 20 5l4-8v-1c-7.628 0-15.228-4-23-4 0 2.097-1 5.293-1 8Z"/><path fill="#019FAC" id="VISa1" d="M336 31h1l2-5c0-1.9-6.118-2.31-7.5-3-5.974-2.987-15.6-7-22.5-7l-2 4v1c7.173 0 16.357 3.928 22.5 7 1.265.632 6.5 1.277 6.5 3Z"/><path fill="#1BA597" id="RSPv1" d="M229 64h3V30.5c1.194-2.389 6-8.04 6-10.5l-2-2-7.5 11-7.5-10-2 1c0 3.033 4.566 9.633 6 12.5V64h2c0-5.32 2-5.498 2 0Z"/><path fill="#1AA596" id="RSPd5" d="M206 33h1c0-1.662 5.179-9 7-9v-1l-7.5-4c-5.672-2.836-14.552 2-19.5 2v11c1.491 0 19-7.139 19 1ZM251 33c0-9.661 17.22 0 19 0 0-4.25-1-7.226-1-12-3.219 0-26-6.07-26 3l7 9h1Z"/><path fill="#1AA597" id="RSPv2/3" d="M221 64h4V32.5c-1.434-2.867-6-9.467-6-12.5h-1c0 1.712-2.571 3-4 3v1c2.67 0 3.158 6.817 4 8.5 2.457 4.914 3 25.382 3 31.5ZM232 64h4l1-29.5c1.008-2.016 5-8.563 5-10.5l-4-4c0 2.46-4.806 8.111-6 10.5V64Z"/><path fill="#009EAB" id="VISa2/3" d="m120 31 3 8c6.529 0 20.351-9 30-9v-1c0-1.273-2.28-8-4-8-6.831 0-15.64 4.07-21.5 7-1.433.716-7.5.838-7.5 3Z"/><path fill="#1CA697" id="RSPagl5" d="m187 33-11 4-2-11v-1c4.881 0 7.985-4 13-4v12ZM280 37h1l1-12c-4.687 0-8.051-4-13-4 0 4.774 1 7.75 1 12l10 4Z"/><path fill="#009EAB" id="VISa2/3" d="m336 31-3 8c-6.857 0-21.924-10-30-10l4-8c7.173 0 16.357 3.928 22.5 7 1.265.632 6.5 1.277 6.5 3Z"/><path fill="#09858A" id="VISam4" d="M154 32h1l19-6v-2c-7.557 0-13.518 5-21 5v1l1 2Z"/><path fill="#1BA498" id="RSPv5" d="M212 59c2.649 0 5.752 5 9 5 0-6.118-.543-26.586-3-31.5-.842-1.683-1.33-8.5-4-8.5-1.821 0-7 7.338-7 9 0 9.103 5 20.07 5 26ZM244 59c0 1.884-6.4 5-8 5l1-29.5c1.008-2.016 5-8.563 5-10.5h1l7 9c0 8.39-5 16.996-5 25l-1 1Z"/><path fill="#09858A" id="VISam4" d="m303 29-1 3-15.5-5-3.5-2v-1c7.181 0 12.765 5 20 5Z"/><path fill="#0A848B" id="VISam5" d="M298 41h1l3-9-15.5-5-3.5-2h-1l-1 12c0 2.06 14.545 4 17 4Z"/><path fill="#029FAB" id="VISrl1" d="m97 36 2 4c6.624 0 13.037-9 20-9 0-1.622.461-5-2-5-4.991 0-10.207 4.854-14.5 7L97 36Z"/><path fill="#0A848B" id="VISam5" d="M176 37c-5.717 0-11.391 4-18 4 0-2.86-3-5.58-3-9l19-6 2 11Z"/><path fill="#029FAB" id="VISrl1" d="m360 37-3 3c-4.951 0-13.561-9-20-9l2-5c2.541 0 21 9.314 21 11Z"/><path fill="#1AA697" id="RSPd6a" d="M198 43h1c0-.86 5.863-10 7-10 0-8.139-17.509-1-19-1v11h2c0-4.129 8.025 0 9 0ZM259 43c0-4.595 8.715 0 10 0l1-10c-1.78 0-19-9.661-19 0 0 .86 5.863 10 7 10h1Z"/><path fill="#019EAC" id="VISa4" d="M331 44h1l1-5c-6.857 0-21.924-10-30-10l-1 3c5.694 0 18.236 6.368 23.5 9l5.5 3ZM123 39l2 4c8.473 0 20.018-11 29-11l-1-2c-9.649 0-23.471 9-30 9Z"/><path fill="#029EAC" id="VISrl2/3" d="M105 47h1l17-8-3-8h-1c-6.963 0-13.376 9-20 9v1c2.061 0 6 4.294 6 6ZM357 41c-1.532 0-6 3.897-6 6l-18-8 3-8h1c6.439 0 15.049 9 20 9v1Z"/><path fill="#019EAB" id="VISa5" d="M128 51h1c6.39 0 20.594-10 29-10 0-2.86-3-5.58-3-9h-1c-8.982 0-20.527 11-29 11v1l3 7ZM331 44c0 3.047-3 4.462-3 7-3.762 0-16.662-6.081-20.5-8-1.468-.734-8.5.099-8.5-2l3-9c5.694 0 18.236 6.368 23.5 9l5.5 3Z"/><path fill="#1CA597" id="RSPagl6a" d="M187 43c-3.541 0-6.145 3-10 3 0-3.222-1-6.277-1-9l11-4v10Z"/><path fill="#1AA498" id="RSPv6a" d="m209 56 3 3c0-5.93-5-16.897-5-26h-1c-1.137 0-7 9.14-7 10 0 4.432 10 7.393 10 13ZM247 56l-2 2c0-8.004 5-16.61 5-25h1c0 .86 5.863 10 7 10v1l-1 1-2 2c-1.577 0-2 1.762-2 3l-1 1-1 1-1 1-1 1-1 1-1 1Z"/><path fill="#1CA597" id="RSPagl6a" d="M269 43c3.541 0 6.145 3 10 3l1-9-10-4-1 10Z"/><path fill="#188060" id="SSp-bfd1" d="m66 59 3 2c4.997 0 21.604-20 30-20v-1l-2-4c-3.088 0-21.507 14.007-24.5 17L66 59Z"/><path fill="#0A828B" id="VISam6a" d="m177 46-17 1-2-6c6.609 0 12.283-4 18-4 0 2.723 1 5.778 1 9ZM279 46l17 1c1.353 0 2-4.644 2-6-2.455 0-17-1.94-17-4h-1l-1 9Z"/><path fill="#188060" id="SSp-bfd1" d="M390 59c-1.481 0-.785 2-3 2-4.212 0-21.57-20-30-20v-1l3-3c3.7 0 23.588 14.675 25 17.5l5 4.5Z"/><path fill="#019EAA" id="VISrl4" d="M109 52h2c0-2.6 11.509-8 14-8v-1l-2-4-17 8c0 3.15 3 1.505 3 5ZM351 47c0 2.741-4 2.268-4 5-5.004 0-9.497-8-15-8l1-5 18 8Z"/><path fill="#187F63" id="SSp-bfd2/3" d="M75 69h1c0-2.294 19.361-16.93 21.5-18l7.5-4c0-1.706-3.939-6-6-6-8.396 0-25.003 20-30 20v1c1.59 0 6 5.662 6 7Z"/><path fill="#009DAC" id="VISa6a" d="M129 51c0 2.833 2 4.84 2 7 5.34 0 18.657-10 29-10v-1l-2-6c-8.406 0-22.61 10-29 10Z"/><path fill="#1BA698" id="RSPd6b" d="M198 43v1c-2.389 0-5.987-1-9-1 0-4.129 8.025 0 9 0ZM269 43v1c-2.69 0-6.675-1-10-1 0-4.595 8.715 0 10 0Z"/><path fill="#009DAC" id="VISa6a" d="m328 52-3 6-4.5-3c-6.718-3.36-16.56-7-24.5-7v-1c1.353 0 2-4.644 2-6h1c0 2.099 7.032 1.266 8.5 2 3.838 1.919 16.738 8 20.5 8v1Z"/><path fill="#187F63" id="SSp-bfd2/3" d="m387 62-6 7-5.5-6c-5.601-2.8-19.15-16-24.5-16 0-2.103 4.468-6 6-6 8.43 0 25.788 20 30 20v1Z"/><path fill="#1AA598" id="RSPagl6b" d="M177 46v1c4.366 0 7.381-3 11-3v-1h-1c-3.541 0-6.145 3-10 3Z"/><path fill="#1BA698" id="RSPd6b" d="m189 43-1 1v-1h1Z"/><path fill="#CACCC7" id="cing" d="M212 59c2.649 0 5.752 5 9 5 0 2.229-4.562-.531-5.5-1-2.294-1.147-5.671-.835-8-2l-8-6-7-5c-6.709-3.354-19.448 0-27.5 0h-9c0-1.643 3.765-1 5-1 5.752 0 9.904-2 16-2 4.366 0 7.381-3 11-3l1-1c3.013 0 6.611 1 9 1l11 12 3 3Z"/><path fill="#1AA497" id="RSPv6b" d="m198 44 11 12c0-5.607-10-8.568-10-13h-1v1Z"/><path fill="#1BA698" id="RSPd6b" d="M258 44h1v-1h-1v1Z"/><path fill="#CACCC7" id="cing" d="M244 59c0 1.884-6.4 5-8 5 0 2.421 4.967-1 6-1 7.01 0 11.615-7.057 17.5-10 11.115-5.558 19.468-3 32.5-3h9c0-1.643-3.765-1-5-1-6.222 0-10.56-2-17-2-2.004 0-10-1.393-10-3-2.69 0-6.675-1-10-1v1l-2 1c0 1.747-.253 2-2 2 0 1.238-.423 3-2 3l-1 1-1 1-1 1-1 1-1 1-1 1-2 2-1 1Z"/><path fill="#1AA598" id="RSPagl6b" d="M279 46v1c-2.004 0-10-1.393-10-3v-1c3.541 0 6.145 3 10 3Z"/><path fill="#019DAB" id="VISrl5" d="M116 58h1c0-2.524 11-3.57 11-7l-3-7c-2.491 0-14 5.4-14 8l5 6Z"/><path fill="#1AA497" id="RSPv6b" d="m259 44-2 1 1-1h1Z"/><path fill="#019DAB" id="VISrl5" d="M347 53c-.529 0-7 1.973-7 5l-12-6v-1c0-2.538 3-3.953 3-7h1c5.503 0 9.996 8 15 8v1Z"/><path fill="#1AA497" id="RSPv6b" d="m257 45-2 2c1.747 0 2-.253 2-2Z"/><path fill="#08838A" id="VISam6b" d="m160 48 1 1c5.752 0 9.904-2 16-2v-1l-17 1v1ZM296 48v1c-6.222 0-10.56-2-17-2v-1l17 1v1Z"/><path fill="#197C64" id="SSp-bfd4" d="m76 69 5 6c1.242 0 19.457-15.979 23.5-18l4.5-5c0-3.495-3-1.85-3-5h-1l-7.5 4C95.361 52.07 76 66.706 76 69Z"/><path fill="#1AA497" id="RSPv6b" d="M255 47c-1.577 0-2 1.762-2 3 1.577 0 2-1.762 2-3Z"/><path fill="#197C64" id="SSp-bfd4" d="M375 75h1l5-5v-1l-5.5-6c-5.601-2.8-19.15-16-24.5-16 0 2.741-4 2.268-4 5v1c6.729 0 23.447 22 28 22Z"/><path fill="#029FAC" id="VISa6b" d="M131 58v1c7.229 0 16.439-9 25-9 0-1.643 3.765-1 5-1l-1-1c-10.343 0-23.66 10-29 10ZM325 58v1c-8.026 0-15.394-9-24-9 0-1.643-3.765-1-5-1v-1c7.94 0 17.782 3.64 24.5 7l4.5 3Z"/><path fill="#C7CACC" id="ccs" d="M89 113c-4.819 0-3.661 17-7 17 0-22.695 20.302-52.401 41.5-63l26-13c1.401-.7 7.5-1.04 7.5-3 1.49 0 8 .735 8-1 8.052 0 20.791-3.354 27.5 0l7 5 8 6c2.329 1.165 5.706.853 8 2 .938.469 5.5 3.229 5.5 1h15c0 2.421 4.967-1 6-1 7.01 0 11.615-7.057 17.5-10 11.115-5.558 19.468-3 32.5-3 0 .689 7.178 2 8 2 8.719 0 20.808 9.154 28.5 13C351 76.25 374 101.909 374 129c-.893 0-4.503-17-7-17 0-5.541-8.537-12.574-11-17.5-9.284-18.567-42.638-39.5-63-39.5h-7c-2.707 0-5.903 1-8 1 0-1.22-3.492-1.504-4.5-1-5.089 2.544-9.092 6.092-13.5 10.5-6.806 6.806-21.919 10.5-31.5 10.5-12.596 0-22.501-5.75-33-11-4.449-2.224-7.735-6.868-12-9-.747-.374-4.5-2.422-4.5 0l-8-1h-7c-2.203 0-11-.896-11 2-1.745 0-6-.698-6 2-1.622 0-5-.46-5 2-1.465 0-4-.109-4 2-1.572 0-7 2.052-7 4-1.238 0-3 .423-3 2-1.238 0-3 .423-3 2-1.238 0-3 .423-3 2l-1 1c-1.429 0-4 1.288-4 3-2.473 0-6 3.527-6 6-2.473 0-6 3.527-6 6-2.289 0-6 6.178-6 8-1.577 0-2 1.762-2 3-1.409 0-7 9.556-7 11l-1 1v1Z"/><path fill="#CBC9C7" id="or" d="m72 152 1 1c0-5.006 3.867-10.234 6-14.5.57-1.139 1.675-6.5 3-6.5v-2c0-22.695 20.302-52.401 41.5-63l26-13c1.401-.7 7.5-1.04 7.5-3v-1h-1c-8.561 0-17.771 9-25 9 0 2.109-2.535 2-4 2l-4 3c0 1.222-6.549 5-8 5 0 2.158-5.64 6-8 6 0 1.747-.253 2-2 2 0 1.747-.253 2-2 2 0 1.747-.253 2-2 2 0 1.747-.253 2-2 2 0 1.63-4.37 6-6 6 0 1.747-.253 2-2 2 0 6.005-10 10.337-10 16 0 4.19-8 14.337-8 21v1c4.274 0-2 13.943-2 18l1 5Z"/><path fill="#C9C9CA" id="scwm" d="M165 50c0 1.735-6.51 1-8 1v-1h8Z"/><path fill="#1AA497" id="RSPv6b" d="m253 50-1 1 1-1Z"/><path fill="#C9C9CA" id="scwm" d="m299 50 1 2c-.822 0-8-1.311-8-2h7Z"/><path fill="#CBC9C7" id="or" d="m385 152-1 1c-1.149 0-1.508-4.516-2-5.5l-6-13-2-3.5v-2c0-27.091-23-52.75-45.5-64-7.692-3.846-19.781-13-28.5-13l-1-2h2c8.606 0 15.974 9 24 9 0 1.54 6.3 4 8 4 0 .214 20.478 16.978 23.5 20l7.5 7 12 17c0 6.86 7 12.577 7 20v2c-3.966 0 2 12.375 2 16v7Z"/><path fill="#029EAB" id="VISrl6a" d="M121 63h2l4-2c0-2.109 2.535-2 4-2v-1c0-2.16-2-4.167-2-7h-1c0 3.43-11 4.476-11 7l4 5Z"/><path fill="#1AA497" id="RSPv6b" d="m252 51-1 1 1-1Z"/><path fill="#1A7D62" id="SSp-bfd5" d="M81 76c0 1.098 4.251 5 6 5 2.835 0 2.575-3.038 4.5-4L109 63.5l7-5.5-5-6h-2l-4.5 5c-4.043 2.021-22.258 18-23.5 18v1Z"/><path fill="#1AA497" id="RSPv6b" d="m251 52-1 1 1-1Z"/><path fill="#029EAB" id="VISrl6a" d="M333 63h2c.092 0 4.027-4 5-4v-1l-12-6-3 6c1.6 0 8 3.116 8 5Z"/><path fill="#1A7D62" id="SSp-bfd5" d="M369 82h1c0-2.696 5-3.847 5-7-4.553 0-21.271-22-28-22-.529 0-7 1.973-7 5v1c4.035 0 19.524 13.024 23 16.5l6 6.5Z"/><path fill="#1AA497" id="RSPv6b" d="m250 53-1 1 1-1ZM249 54l-1 1 1-1Z"/><path fill="#C7C8CC" id="alv" d="M164 55c-2.203 0-11-.896-11 2 1.488 0 11-.925 11-2Z"/><path fill="#7ECF4B" id="CA1" d="m97 100-3 7 8.5-4c6.566-3.283 16.715-5 24.5-5 0-4.835 11.565-9.532 14.5-11 17.681-8.84 25.236-8.882 43 0L200 99c1.048 0 3-.473 3 1 3.522 0 14 .452 14-5l2-10h-1l-2-2h-2l-1-1h-1l-1-1h-2l-2-2h-1c-4.289 0-15.897-13.397-20-17.5l-6-4.5h-1c-1.257 0-8-.94-8-2h-7c0 1.075-9.512 2-11 2 0 1.353-4.643 2-6 2 0 1.638-3.576 2-5 2l-4 2c0 1.948-5.428 4-7 4 0 1.577-1.762 2-3 2 0 1.577-1.762 2-3 2 0 1.577-1.762 2-3 2l-1 1c0 1.712-2.571 3-4 3l-6 6-6 6c0 1.626-4.11 8-6 8 0 1.238-.423 3-2 3Z"/><path fill="#C7C8CC" id="alv" d="M179 56v1c-1.257 0-8-.94-8-2l8 1Z"/><path fill="#C9CCC9" id="dhc" d="M240 83h3l1-1h1l1-1h1l1-1h1l1-1h1l1-1 1-1 2-1 1-1 1-1 6-6 1-1 1-1 1-1 1-1 1-1 1-1 2-1 1-1 1-1h1l1-1 1-1h2v-1c0-1.22-3.492-1.504-4.5-1-5.089 2.544-9.092 6.092-13.5 10.5-6.806 6.806-21.919 10.5-31.5 10.5-12.596 0-22.501-5.75-33-11-4.449-2.224-7.735-6.868-12-9-.747-.374-4.5-2.422-4.5 0v1h1c8.07 0 12.252 12.876 18.5 16l7.5 6h1l2 2h2l1 1h1l1 1h10l4.5-2 3.5 2h8Z"/><path fill="#1AA497" id="RSPv6b" d="m248 55-1 1 1-1Z"/><path fill="#C7C8CC" id="alv" d="M278 56v1c.981 0 8-1.184 8-2-2.707 0-5.903 1-8 1Z"/><path fill="#7ECF4B" id="CA1" d="M256 99h1l1-1 15.5-12c19.125-9.563 27.128-5.936 45 3 2.833 1.416 10.5 5.224 10.5 9 7.947 0 18.792 1.646 25.5 5 2.139 1.07 5.078 4 7.5 4 0-5.952-6.504-9.508-9-14.5-7.163-14.325-26.507-25.004-39.5-31.5l-15-5c-1.238-.62-5.5 1.144-5.5-1h-7c0 .816-7.019 2-8 2h-2l-1 1-1 1h-1l-1 1-1 1-2 1-1 1-1 1-1 1-1 1-1 1-1 1c0 2.473-3.527 6-6 6l-1 1-1 1-2 1-1 1-1 1h-1l-1 1h-1l-1 1h-1l-1 1h-1l-1 1h-3l-1 1-2 2c0 3.156 2 5.48 2 9 .546 0 5.088 4.294 6.5 5h7.5l3-1Z"/><path fill="#C7C8CC" id="alv" d="M351 143c4.91 0 9 10.077 9 15 1.233 0 2.379-7.258 3-8.5l5-7c1.006-2.012 2.152-22.696 1-25-1.042-2.084-2-2.908-2-5.5 0-5.541-8.537-12.574-11-17.5-9.284-18.567-42.638-39.5-63-39.5 0 2.144 4.262.38 5.5 1l15 5c12.993 6.496 32.337 17.175 39.5 31.5 2.496 4.992 9 8.548 9 14.5l3 5c0 4.299 2 8.849 2 14 0 47.869-35.387-15-52-15l8 5 1 1h1c.81 0 15 13.906 15 15l1 1v1c1.626 0 10 7.125 10 9ZM153 57c-1.745 0-6-.698-6 2 1.357 0 6-.647 6-2ZM180 57c8.07 0 12.252 12.876 18.5 16l7.5 6c-4.289 0-15.897-13.397-20-17.5l-6-4.5ZM276 57l-1 1 1-1Z"/><path fill="#198060" id="SSp-bfd6a" d="M91 89h2c0-2.473 3.527-6 6-6 0-1.747.253-2 2-2 0-1.747.253-2 2-2 0-1.747.253-2 2-2l2-2c0-2.289 6.178-6 8-6l6-6-4-5h-1l-7 5.5L91.5 77c-1.925.962-1.665 4-4.5 4v2c2.177 0 4 4.336 4 6Z"/><path fill="#1AA498" id="RSPv6a" d="m245 58-1 1 1-1Z"/><path fill="#C7C8CC" id="alv" d="m275 58-1 1 1-1Z"/><path fill="#009DAA" id="VISrl6b" d="M325 59c0 1.54 6.3 4 8 4 0-1.884-6.4-5-8-5v1Z"/><path fill="#1A7E62" id="SSs1" d="M52 73c0 1.54 1.342 3 3 3l14-14v-1l-3-2-14 14Z"/><path fill="#009DAA" id="VISrl6b" d="M131 59c-1.465 0-4-.109-4 2 1.465 0 4 .109 4-2Z"/><path fill="#C7C8CC" id="alv" d="M147 59c-1.622 0-5-.46-5 2 1.424 0 5-.362 5-2ZM273 59l-1 1 1-1Z"/><path fill="#198060" id="SSp-bfd6a" d="M364 89h1l4-7-6-6.5c-3.476-3.476-18.965-16.5-23-16.5-.973 0-4.908 4-5 4l6 4.5c3.021 3.02 23 17.864 23 21.5Z"/><path fill="#1A7E62" id="SSs1" d="M401 77h1c0-3.816 2-1.08 2-4l-14-14c-1.481 0-.785 2-3 2v1c1.291 0 14 13.791 14 15Z"/><path fill="#C7C8CC" id="alv" d="m272 60-1 1 1-1Z"/><path fill="#009DAA" id="VISrl6b" d="M123 63v1l4-3-4 2Z"/><path fill="#C7C8CC" id="alv" d="M142 61c-1.465 0-4-.109-4 2l4-2ZM271 61l-2 1 2-1Z"/><path fill="#1B8063" id="SSs2/3" d="M55 78c1.48 0 7 5.766 7 7 1.829 0 10.073-11.645 11-13.5l2-2.5c0-1.338-4.41-7-6-7L55 76v2Z"/><path fill="#C7C8CC" id="alv" d="m269 62-1 1 1-1Z"/><path fill="#1B8063" id="SSs2/3" d="M393 85h2c0-3.414 6-4.207 6-8 0-1.209-12.709-15-14-15l-6 7v1c3.155 0 12 12.397 12 15Z"/><path fill="#1A7E61" id="SSp-bfd6b" d="M123 64c0 1.222-6.549 5-8 5l6-6h2v1Z"/><path fill="#C7C8CC" id="alv" d="M138 63c-1.572 0-7 2.052-7 4 1.572 0 7-2.052 7-4ZM268 63l-1 1 1-1Z"/><path fill="#1A7E61" id="SSp-bfd6b" d="M364 89v1l-7.5-7c-3.022-3.022-23.5-19.786-23.5-20h2l6 4.5c3.021 3.02 23 17.864 23 21.5Z"/><path fill="#C7C8CC" id="alv" d="m267 64-1 1 1-1ZM266 65l-1 1 1-1ZM265 66l-1 1 1-1ZM131 67c-1.238 0-3 .423-3 2 1.238 0 3-.423 3-2ZM264 67l-1 1 1-1ZM263 68l-6 6c2.473 0 6-3.527 6-6Z"/><path fill="#187C63" id="SSs4" d="M66 90h1c0-3.548 10.317-14 14-14v-1l-5-6h-1l-2 2.5C72.073 73.355 63.829 85 62 85v1l4 4Z"/><path fill="#1A7E61" id="SSp-bfd6b" d="M115 69c-1.822 0-8 3.711-8 6 2.36 0 8-3.842 8-6Z"/><path fill="#C7C8CC" id="alv" d="M128 69c-1.238 0-3 .423-3 2 1.238 0 3-.423 3-2Z"/><path fill="#187C63" id="SSs4" d="M390 90h1l2-5c0-2.603-8.845-15-12-15l-5 5c0 2.915 14 10.826 14 15Z"/><path fill="#C7C8CC" id="alv" d="M125 71c-1.238 0-3 .423-3 2 1.238 0 3-.423 3-2Z"/><path fill="#039399" id="AUDd1" d="m38 93 5 3 8.5-14 3.5-4v-2c-1.658 0-3-1.46-3-3-1.16 0-14 18.028-14 20Z"/><path fill="#C7C8CC" id="alv" d="m122 73-1 1 1-1Z"/><path fill="#039399" id="AUDd1" d="M413 96h1c1.947 0 2.636-3 5-3 0-2.075-13.869-20-15-20 0 2.92-2 .184-2 4 0 6.616 11 12.112 11 19Z"/><path fill="#C7C8CC" id="alv" d="M121 74c-1.429 0-4 1.288-4 3 1.429 0 4-1.288 4-3ZM257 74l-1 1 1-1Z"/><path fill="#1A7E61" id="SSp-bfd6b" d="m107 75-2 2c1.747 0 2-.253 2-2Z"/><path fill="#C7C8CC" id="alv" d="m256 75-1 1 1-1Z"/><path fill="#1C8063" id="SSs5" d="M382 99h1c0-2.015 5.793-9 7-9 0-4.174-14-12.085-14-15h-1c0 3.153-5 4.304-5 7 0 5.372 12 10.694 12 17ZM74 99h1c0-3.196 9.143-16 12-16v-2c-1.749 0-6-3.902-6-5-3.683 0-14 10.452-14 14 0 3.788 7 5.475 7 9Z"/><path fill="#C7C8CC" id="alv" d="m255 76-2 1 2-1Z"/><path fill="#1A7E61" id="SSp-bfd6b" d="M105 77c-1.747 0-2 .253-2 2 1.747 0 2-.253 2-2Z"/><path fill="#C7C8CC" id="alv" d="M117 77c-2.473 0-6 3.527-6 6l6-6ZM253 77l-1 1 1-1Z"/><path fill="#029397" id="AUDd2/3" d="M413 96c0 1.072-6.177 6-7 6-1.018 0-11-15.376-11-17 0-3.414 6-4.207 6-8h1c0 6.616 11 12.112 11 19ZM43 97c3.076 0 4.924 5 8 5l11-16v-1c0-1.234-5.52-7-7-7l-3.5 4L43 96v1Z"/><path fill="#C7C8CC" id="alv" d="m252 78-1 1 1-1Z"/><path fill="#1A7E61" id="SSp-bfd6b" d="M103 79c-1.747 0-2 .253-2 2 1.747 0 2-.253 2-2Z"/><path fill="#C7C8CC" id="alv" d="m207 79 2 2-2-2ZM250 79l-1 1 1-1Z"/><path fill="#7BD04A" id="DG-mo" d="M148 109c1.048 0 3-.473 3 1 11.069 0 21.073-2 32.5-2h15c3.414-1.707 3.5-3.228 3.5-7l-2-2-15.5-12c-17.764-8.882-25.319-8.84-43 0-2.935 1.468-14.5 6.165-14.5 11v2l8 2c0-4.52 7.01-5.255 10.5-7 12.866-6.433 23.406-8.797 37-2l9 5c.706.706 2.802 3.099 1 4-6.491 3.245-15.949-5.525-23-2-2.356 1.178-16.255 5-18.5 5 0 1.186-1 1.186-1 0l-2 4Z"/><path fill="#C7C8CC" id="alv" d="m248 80-1 1 1-1Z"/><path fill="#7BD04A" id="DG-mo" d="m308 109-2 1c-5.303 0-48.126-1.813-50.5-3-2.313-1.157-.5-3.719-.5-5l1-3h1l1-1 15.5-12c19.125-9.563 27.128-5.936 45 3 2.833 1.416 10.5 5.224 10.5 9v2c0 1.175-5.704 2-7 2 0-4.169-9.459-6.48-12.5-8-12.056-6.028-20.667-7.167-33-1-3.719 1.86-11.216 1.931-13.5 6.5-1.697 3.395 4.306 2.5 6 2.5 4.601 0 12.516-4.492 17.5-2 4.171 2.086 9.812.906 14 3 1.055.527 5.5 3.835 5.5 2l2 4Z"/><path fill="#1A7E61" id="SSp-bfd6b" d="M101 81c-1.747 0-2 .253-2 2 1.747 0 2-.253 2-2Z"/><path fill="#C7C8CC" id="alv" d="m211 81 1 1-1-1ZM246 81l-1 1 1-1ZM213 82l1 1-1-1ZM244 82l-1 1 1-1Z"/><path fill="#197D63" id="SSs6a" d="m382 99-5 7-12-17 4-7h1c0 5.372 12 10.694 12 17ZM79 106h1c0-1.326 9.909-15 11-15v-2c0-1.664-1.823-6-4-6-2.857 0-12 12.804-12 16 0 2.919 4 4.243 4 7Z"/><path fill="#1A7E61" id="SSp-bfd6b" d="M99 83c-2.473 0-6 3.527-6 6 1.63 0 6-4.37 6-6Z"/><path fill="#C7C8CC" id="alv" d="M111 83c-2.473 0-6 3.527-6 6l6-6ZM218 83v2l-2-2h2Z"/><path fill="#7DCD4B" id="HPF" d="M218 85h1l1-2h-2v2Z"/><path fill="#7ECD4A" id="FC" d="M217 95h1l1-1c0-1.238.423-3 2-3l1-1v-1l1-1v-1l1-4h-4l-1 2-2 10ZM235 91l4 4c0-3.52-2-5.844-2-9l-1-3h-4l1 4v1l2 2v1Z"/><path fill="#7DCD4B" id="HPF" d="m239 84-2 2-1-3h3v1Z"/><path fill="#C7C8CC" id="alv" d="m240 83-1 1v-1h1Z"/><path fill="#A8A9AA" id="V3" d="M222 91c5.041 0 4.426 4 6.5 4l3-5 3.5 1v-1l-2-2v-1l-3.5-3c-2.804-1.402-4.348 3-6.5 3v1l-1 1v2Z"/><path fill="#039398" id="AUDd4" d="M402 105h1l3-2v-1c-1.018 0-11-15.376-11-17h-2l-2 5c0 3.125 11 10.738 11 15ZM54 105h1c0-5.403 11-11.858 11-15l-4-4-11 16v1c0 1.577 1.762 2 3 2Z"/><path fill="#65A83D" id="DG-sg" d="M153 102c0 1.481-2 .785-2 3 2.245 0 16.144-3.822 18.5-5 7.051-3.525 16.509 5.245 23 2 1.802-.901-.294-3.294-1-4l-9-5c-13.594-6.797-24.134-4.433-37 2-3.49 1.745-10.5 2.48-10.5 7l8-2c0-1.998 5.174-2.337 6.5-3 7.478-3.74 16.736-6.132 25-2l3.5.5c.983 1.965-2.589 1.5-3.5 1.5l-13 1-8.5 4ZM322 102c0-4.169-9.459-6.48-12.5-8-12.056-6.028-20.667-7.167-33-1-3.719 1.86-11.216 1.931-13.5 6.5-1.697 3.395 4.306 2.5 6 2.5 4.601 0 12.516-4.492 17.5-2 4.171 2.086 9.812.906 14 3 1.055.527 5.5 3.835 5.5 2l-2-3-9.5-4c-3.339-1.67-8.503-1-12.5-1l-4-.5c0-1.927 5.5-2 6.5-2.5 7.132-3.566 17.033.017 23 3l6.5 3 8 2Z"/><path fill="#1A8061" id="SSs6b" d="M93 89c0 1.747-.253 2-2 2v-2h2Z"/><path fill="#C7C8CC" id="alv" d="M105 89c-2.289 0-6 6.178-6 8 1.89 0 6-6.374 6-8Z"/><path fill="#1A8061" id="SSs6b" d="M376 107h1v-1l-12-17h-1v1l12 17Z"/><path fill="#029398" id="AUDd5" d="M55 105c0 2.211 8.3 10 10 10l9-16c0-3.525-7-5.212-7-9h-1c0 3.142-11 9.597-11 15Z"/><path fill="#A9AAA8" id="chpl" d="M219 95v5.5c2.304 4.608 16.941 2.118 19-2l-1-3.5v-1l-2-2v-1l-3.5-1-3 5c-2.074 0-1.459-4-6.5-4h-1c0 1.238-.423 3-2 3v1Z"/><path fill="#029398" id="AUDd5" d="M402 105c0 1.419-10.921 11-11 11 0-6.386-8-10.806-8-17 0-2.015 5.793-9 7-9h1c0 3.125 11 10.738 11 15Z"/><path fill="#1A8061" id="SSs6b" d="m80 106 1 1c0-5.663 10-9.995 10-16-1.091 0-11 13.674-11 15Z"/><path fill="#A8A9AA" id="V3" d="m235 92 2 2-2-2Z"/><path fill="#029297" id="AUDp1" d="M28 131h1c0-9.807 4.914-18.328 9-26.5.772-1.544 2.732-7.5 5-7.5v-1l-5-3c-2.441 0-4.173 6.845-5 8.5-4.304 8.609-9 18.208-9 28.5l4 1Z"/><path fill="#7ECE4A" id="DG-po" d="m143 100 10 2 8.5-4 13-1c.911 0 4.483.465 3.5-1.5l-3.5-.5c-8.264-4.132-17.522-1.74-25 2-1.326.663-6.5 1.002-6.5 3ZM314 100l-10 2-9.5-4c-3.339-1.67-8.503-1-12.5-1l-4-.5c0-1.927 5.5-2 6.5-2.5 7.132-3.566 17.033.017 23 3l6.5 3Z"/><path fill="#029297" id="AUDp1" d="m433 130-5 1c0-11.223-14-30.71-14-35 1.947 0 2.636-3 5-3l6 10.5c3.386 6.772 8 18.72 8 26.5Z"/><path fill="#A8A9AA" id="V3" d="m219 102 6.5 3c4.102 2.051 8.112-3 11.5-3 3.772 0 2.796-7 0-7l1 3.5c-2.059 4.118-16.696 6.608-19 2V95h-1c0 1.416-2.896 7 1 7Z"/><path fill="#019298" id="AUDp2/3" d="m428 131-9 1c0-4.643-9.288-29-13-29v-1c.823 0 7-4.928 7-6h1c0 4.29 14 23.777 14 35ZM29 131l8 1c0-4.425 9.966-29 14-29v-1c-3.076 0-4.924-5-8-5-2.268 0-4.228 5.956-5 7.5-4.086 8.172-9 16.693-9 26.5Z"/><path fill="#C7C8CC" id="alv" d="M99 97c-1.577 0-2 1.762-2 3 1.577 0 2-1.762 2-3Z"/><path fill="#7DCF4B" id="CA2" d="m94 107-1 4c5.903 0 22.17-11 34-11v-2c-7.785 0-17.934 1.717-24.5 5l-8.5 4Z"/><path fill="#7DCD4B" id="HPF" d="m258 98-1 1 1-1Z"/><path fill="#7DCF4B" id="CA2" d="m362 107 3 5c-3.239 0-6.686-3.593-9.5-5-7.275-3.638-17.895-7-26.5-7v-2c7.947 0 18.792 1.646 25.5 5 2.139 1.07 5.078 4 7.5 4Z"/><path fill="#019399" id="AUDd6a" d="M65 116c2.133 0 4.797 10 6 10 2.334 0 1.34-4.181 2-5.5l6-14.5c0-2.757-4-4.081-4-7h-1l-9 16v1Z"/><path fill="#7DCD4B" id="HPF" d="m203 100-1 1-2-2c1.048 0 3-.473 3 1ZM253 100l2 2 1-3-3 1Z"/><path fill="#019399" id="AUDd6a" d="M391 117c-2.565 0-4.194 10-6 10 0-4.976-3.852-11.203-6-15.5-.559-1.119-.155-4.5-2-4.5v-1l5-7h1c0 6.194 8 10.614 8 17v1Z"/><path fill="#C7C8CC" id="alv" d="m105 143-8 8.5c-.574 1.147 1.064 4.5-1 4.5-1.55 0-2.364-6.228-3-7.5l-4-4c-4.762-9.524 0-21.998 0-31.5v-1l1-1c0-1.444 5.591-11 7-11l-3 7-1 4-1 1c-1.993 0-1.35 5.2-2 6.5-2.888 5.775-1.776 23.362 4.5 26.5 3.314 1.657 8.459-4.729 11-6 10.034-5.017 20.33-26 31.5-26v1l-1 1h-1l-1 1-1 1h-1l-1 1-1 1h-1l-1 1-1 1-1 1-1 1-2 2c-1.694 0-8 7.539-8 9l-1 1-9 8Z"/><path fill="#7ECF49" id="CA3" d="m139 112-2 1c-11.17 0-21.466 20.983-31.5 26-2.541 1.271-7.686 7.657-11 6-6.276-3.138-7.388-20.725-4.5-26.5.65-1.3.007-6.5 2-6.5l1-1c5.903 0 22.17-11 34-11l8 2 8-2 10 2c0 1.481-2 .785-2 3h-1l-2 4v1h-5l-1 1h-1l-2 1ZM315 111c16.613 0 52 62.869 52 15 0-5.151-2-9.701-2-14-3.239 0-6.686-3.593-9.5-5-7.275-3.638-17.895-7-26.5-7 0 1.175-5.704 2-7 2l-8-2-10 2 2 3 2 4v1h5l1 1h1Z"/><path fill="#C8CCC7" id="hbc" d="M239 111h6l-1-2-3.5-4 2.5 1c0-2.96-6-2.124-6-4-3.388 0-7.398 5.051-11.5 3l-6.5-3-4 3-2 1c2.488 0 1.919 2 0 2l-1 1-1 2h28Z"/><path fill="#039397" id="AUDp4" d="M42 133h1c0-8.002 2.7-14.899 6-21.5 1.169-2.338 5-3.723 5-6.5-1.238 0-3-.423-3-2-4.034 0-14 24.575-14 29l5 1ZM419 132l-5 1c0-9.933-11-25.08-11-28l3-2c3.712 0 13 24.357 13 29Z"/><path fill="#039199" id="AUDp5" d="M58 134h1c0-6.383 6-12.119 6-18v-1c-1.7 0-10-7.789-10-10h-1c0 2.777-3.831 4.162-5 6.5-3.3 6.601-6 13.498-6 21.5l15 1Z"/><path fill="#65A83D" id="DG-sg" d="M150 105h1c0 1.186-1 1.186-1 0Z"/><path fill="#FF8D9F" id="MH" d="m243 106-2.5-1 3.5 4-1-3Z"/><path fill="#039199" id="AUDp5" d="m414 133-16 1-5-13.5c-.579-1.158.341-3.5-2-3.5v-1c.079 0 11-9.581 11-11h1c0 2.92 11 18.067 11 28Z"/><path fill="#019398" id="AUDd6b" d="M72 128h1c0-6.663 8-16.81 8-21l-1-1h-1l-6 14.5c-.66 1.319.334 5.5-2 5.5v2h1Z"/><path fill="#FF8D9F" id="MH" d="M213 106c2.488 0 1.919 2 0 2v-2Z"/><path fill="#019398" id="AUDd6b" d="M384 129h1v-2c0-4.976-3.852-11.203-6-15.5-.559-1.119-.155-4.5-2-4.5h-1c0 6.86 7 12.577 7 20l1 2Z"/><path fill="#FF8D9F" id="MH" d="m213 108-1 1 1-1Z"/><path fill="#7DCD4B" id="HPF" d="M148 110h3c0-1.473-1.952-1-3-1v1ZM306 110h2v-1l-2 1Z"/><path fill="#C7C8CC" id="alv" d="m143 110-1 1 1-1Z"/><path fill="#FE8EFF" id="APN" d="m183 111 2 4 4.5 4c9.914 4.957 5.5-7.514 5.5-9-1.824 0-12-.781-12 1Z"/><path fill="#FF64FF" id="MB" d="M200 132h2c2.424 0 2.76-2 4-2 0-2.906 5.05-5.775 7.5-7 1.046-.523 3.5.951 3.5-1 0-3.428-6-6.206-6-10-5.163 0-10.237-2-16-2 0 1.486 4.414 13.957-5.5 9l-4.5-4c0 4.12 1.289 8.078 3 11.5l7 4.5h2c1.048 0 3-.473 3 1Z"/><path fill="#FF8D9F" id="MH" d="m222 121-5 1c0-3.428-6-6.206-6-10v-1h6l2 2c0 2.087 3 4.393 3 7v1Z"/><path fill="#A8A9AA" id="V3" d="m227 136 2 1 4-15 1-1 1-2c0-3.047 3-4.462 3-7v-1h-20l1 2c0 2.087 3 4.393 3 7l1 1c0 5.27 4 9.496 4 15Z"/><path fill="#FF8D9F" id="MH" d="M235 121c0 2.277 3.299 1 4 1 0-3.484 6-5.736 6-10v-1h-6l-1 1c0 2.538-3 3.953-3 7v2Z"/><path fill="#FF64FF" id="MB" d="M255 132h2c0-1.473 1.952-1 3-1h2l7-5.5c1.456-2.912 2-5.946 2-9.5-2.759 0-11 7.678-11-1.5l1-4.5c-5.763 0-10.837 2-16 2 0 4.264-6 6.516-6 10 0 1.838 11 2.358 11 7 1.353 0 2.158 3 5 3Z"/><path fill="#FE8EFF" id="APN" d="M271 115v1c-2.759 0-11 7.678-11-1.5l1-4.5c1.824 0 12-.781 12 1l-1 3-1 1Z"/><path fill="#C7C8CC" id="alv" d="m313 110 1 1-1-1Z"/><path fill="#A8AAAA" id="VL" d="m90 111-1 1 1-1Z"/><path fill="#7DCF4B" id="CA2" d="m93 111-1 1 1-1Z"/><path fill="#C7C8CC" id="alv" d="M139 112h2v-1l-2 1Z"/><path fill="#FE8083" id="LGd-sh" d="m123 125-2 6 3.5 3c3.877-1.938 6.197-15 12.5-15l2-1 1-1h1l1-1h1l1-1h3c0-1.24 2-1.576 2-4l-8 1-2 1-2 1-1 1h-1l-1 1-1 1h-1l-1 1-1 1h-1l-1 1-1 1-1 1-1 1c0 1.747-.253 2-2 2Z"/><path fill="#FE7F84" id="LGd-co" d="m120 135 11 12 15.5-14 2.5-5c0-5.421 1-11.091 1-17h-1c0 2.424-2 2.76-2 4 6.291 0-5.612 20.277-11 9.5l1-5.5c-6.303 0-8.623 13.062-12.5 15l-3.5-3-1 4Z"/><path fill="#FE909D" id="LP" d="M169 131c-5.201 0-9.109 5-19 5 0-2.097-1-5.293-1-8 0-5.421 1-11.091 1-17h29c0 4.902 14.804 19 3 19-4.077 0-8.431 1-13 1Z"/><path fill="#FF6F80" id="TH" d="M195 131c0 .621-4.484 1.984-5.5 3l-2.5 5-5-9c11.804 0-3-14.098-3-19h4l2 4c0 4.12 1.289 8.078 3 11.5l7 4.5ZM262 131c0 1.183 3.57 1.535 4.5 2 1.524.762 2.5 5.275 2.5 7l6-10c-12.714 0 2-12.704 2-19h-4l-1 3-1 1v1c0 3.554-.544 6.588-2 9.5l-7 5.5Z"/><path fill="#FE909D" id="LP" d="M287 131c4.097 0 8.012 3.256 11.5 5 2.568 1.284 6.486-1 8.5-1 2.681 0 0-7.019 0-8 0-1.916-2.336-14 0-14v-2h-30c0 6.296-14.714 19-2 19 3.531 0 7.893 1 12 1Z"/><path fill="#FE8083" id="LGd-sh" d="M325 117c0 3.497 10 7.984 10 15l-2.5 2c-4.574-2.287-9.305-17-15.5-17h-1l-3-2h-3l-3-2v-2c6.368 0 10.494 5 16 5l1 1h1Z"/><path fill="#C7C8CC" id="alv" d="M137 113h2v-1l-2 1Z"/><path fill="#A8AAAA" id="VL" d="M323 222h1c15.973 0 31-9.892 31-27 0-7.304 9-17.28 9-23l-2-3.5c0-5.302 5.708-11.416 8-16 .492-.984.851-5.5 2-5.5l2-16v-2c-.893 0-4.503-17-7-17 0 2.592.958 3.416 2 5.5 1.152 2.304.006 22.988-1 25l-5 7c-.621 1.242-1.767 8.5-3 8.5l-1 7c.029 0 .981 12.539 0 14.5-3.437 6.874-8.145 26.323-14.5 29.5-1.859.929-4.429-1.641-3.5-3.5 2.789-5.578 8-14.065 8-20.5h-1l-1 1c0 1.875-6.11 14-8 14l-1 2-1 1v1l-1 1-1 2v1l-1 1-1 1c0 2.242-7.978 9-10 9v3ZM133 221v1c-15.926 0-32-9.898-32-27 0-7.716-9-18.88-9-23 1.278 0 2.715-4.07 2-5.5-1.01-2.019-8.435-16.5-9-16.5l-3-18v-2c3.339 0 2.181-17 7-17 0 9.502-4.762 21.976 0 31.5l4 4c.636 1.272 1.45 7.5 3 7.5l1 9c0 12.645 2.805 24.111 8 34.5.613 1.226 7.765 13.469 10 9 2.334-4.668-9-20.107-9-25.5l3 3c0 4.807 6.86 11.22 9 15.5.592 1.185 1.012 4.5 3 4.5v1l1 1c0 6.19 11 7.38 11 13Z"/><path fill="#FE7F84" id="LGd-co" d="M336 134c0 1.859-9.048 13-11 13-.57 0-15.567-14.635-16-15.5-.559-1.119-.155-4.5-2-4.5 0-1.916-2.336-14 0-14l3 2c-6.07 0 1.48 15.51 8.5 12 6.338-3.169-1.5-7.002-1.5-10 6.195 0 10.926 14.713 15.5 17l2.5-2 1 2Z"/><path fill="#FF64FF" id="MB" d="m272 114-1 1 1-1Z"/><path fill="#FE7F84" id="LGd-co" d="m144 115-1 1 1-1Z"/><path fill="#FD8082" id="LGd-ip" d="m139 118-2 1-1 5.5c5.388 10.777 17.291-9.5 11-9.5h-3l-1 1h-1l-1 1h-1l-1 1ZM316 117h1c0 2.998 7.838 6.831 1.5 10-7.02 3.51-14.57-12-8.5-12h3c0 1.577 1.762 2 3 2Z"/><path fill="#FE7F84" id="LGd-co" d="m313 115 3 2c-1.238 0-3-.423-3-2Z"/><path fill="#019396" id="AUDp6a" d="M59 134c0 2.243 7.858 0 10 0l2-6v-2c-1.203 0-3.867-10-6-10 0 5.881-6 11.617-6 18Z"/><path fill="#FE7F84" id="LGd-co" d="m142 116-1 1 1-1Z"/><path fill="#CAC7CB" id="fiber tracts" d="m323 116 1 1-1-1ZM132 117l-1 1 1-1Z"/><path fill="#FE7F84" id="LGd-co" d="m140 117-1 1 1-1Z"/><path fill="#CAC7CB" id="fiber tracts" d="m288 246-3 1-3-6-1-5v-1c2.217 0 5.505-5.005 7.5-7 5.473-5.473 19.5-17.177 19.5-25l4-6 1-1 13-9c5.187 0 8-6.73 8-11 1.482 0 1.576-5 5-5 3.868 0 5.864-21.773 4-25.5l-5-7.5-2-4-1-2c0-7.016-10-11.503-10-15 .81 0 15 13.906 15 15l1 1v1c0 2.939 6 10.593 6 17v7c-1.714 0-1 5.594-1 7 0 5.421-1 11.091-1 17-2.281 0-1.385 11-4 11 0-5.806 2-10.668 2-17 0-1.004.63-6.065-1.5-5-2.545 1.272-8.426 25.351-10.5 29.5-1.869 3.739-14.367 18.5-8 18.5v3l-1 1-1 1h-1l-1 1-9 6-1 1-1 1-6 4-1 1-1 1h-3c-3.611 0-7.891 5.805-11.5 4-2.565-1.282.36-8.36 1.5-9.5 6.036-6.036 17.84-8.679 22-17 2.448-4.896 12.05-33.225 21.5-28.5 4.447 2.224-3.769 14.038-4.5 15.5-4.822 9.644-15.634 20.268-19 27l-10 8.5-3 4c-1.238 0-3 .423-3 2l-3 1Z"/><path fill="#019396" id="AUDp6a" d="M398 134v1c-3.325 0-7.31-1-10-1l-1-1c0-1.041-.986-5-2-5v-1c1.806 0 3.435-10 6-10 2.341 0 1.421 2.342 2 3.5l5 13.5Z"/><path fill="#CAC7CB" id="fiber tracts" d="m131 118-1 1 1-1Z"/><path fill="#FE7F84" id="LGd-co" d="m139 118-2 1 2-1Z"/><path fill="#CAC7CB" id="fiber tracts" d="m129 119-1 1 1-1ZM128 120l-1 1 1-1ZM127 121l-1 1 1-1Z"/><path fill="#FE90FE" id="PRC" d="m216 141 4 3c3.385 0 4.183-5 7-5v-3c0-5.504-4-9.73-4-15h-1l-5 1c0 1.951-2.454.477-3.5 1-2.45 1.225-7.5 4.094-7.5 7l2 5 5 4 1 1 2 1ZM241 141l-5 2c-3.516 0-4.57-5-7-5v-1l4-15 1-1h1c0 2.277 3.299 1 4 1 0 1.838 11 2.358 11 7l-1 6h-1l-1 1-1 1-4 3-1 1Z"/><path fill="#CAC7CB" id="fiber tracts" d="m126 122-1 1 1-1ZM125 123l-2 2c1.747 0 2-.253 2-2Z"/><path fill="#CAC7CB" id="fiber tracts" fill-rule="evenodd" d="M125 188c0 15.208 16.488 33.988 27.5 45 3.749 3.749 8.608 5.804 13 8 .903.452 4.253 3.994 5.5 1.5 1.747-3.494.676-9.412-3.5-11.5-4.94-2.47-18.012-9.524-20.5-14.5-4.991-9.983-7.342-28.5-22-28.5m-11-17c0 19.402 1.547 20.594 10 37.5l8.5 9.5 3.5 1.5c1.544-3.088-4.801-8.601-6-11l-8-17c-1.773-3.546-1.243-8.486-3-12-.866-1.733-2.392-8.5-5-8.5m55 76h2l3-5 1-1v-6l-7-7.5c-6.458-6.458-19-15.361-19-24.5l-6-7-12-9c-4.226 0-8-4.964-8-9-1.529 0-.855-7-5-7-6.556 0-7.135-33 1-33l1-3 1-4 2-6c-1.694 0-8 7.539-8 9l-1 1-4 10.5c-2.691 5.381 1 16.143 1 21.5l1 12c0 10.129 9 22.485 9 27v1l1 1c0 6.19 11 7.38 11 13l4 4 9 6 2 2h1l2 2 3 2 3 2c2.313 0 5 1.452 5 4 1.465 0 4-.109 4 2h1l2 2Z"/><path fill="#FF6F80" id="TH" d="M327 152v1l-6-2c-.582 0-9.01-15-14-15v-1c2.681 0 0-7.019 0-8 1.845 0 1.441 3.381 2 4.5.433.865 15.43 15.5 16 15.5l2 5Z"/><path fill="#C9C9CA" id="scwm" d="M383 129h1l-1-2v2Z"/><path fill="#039198" id="AUDp6b" d="M69 134h1c1.014 0 2-3.959 2-5v-1h-1l-2 6Z"/><path fill="#C9C9CA" id="scwm" d="M72 129h1v-1h-1v1Z"/><path fill="#FF6F80" id="TH" d="M136 152c-2.402 0-4.31 1-7 1v-2l2-4 15.5-14 2.5-5c0 2.707 1 5.903 1 8v1l-2.5-1c-4 2-11.5 12.016-11.5 16Z"/><path fill="#039198" id="AUDp6b" d="M386 133h1c0-1.041-.986-5-2-5v1c0 1.145-.579 4 1 4Z"/><path fill="#CCC8CA" id="ar" d="M67 174v1c2.46 0 2-3.378 2-5 0-6.216 1-12.292 1-18 0-1.235-.643-5 1-5 0-4.057 6.274-18 2-18h-1c0 1.041-.986 5-2 5 0 6.341-4 12.376-4 19l1 21Z"/><path fill="#FF6F80" id="TH" d="m255 132-6 3 1-6c1.353 0 2.158 3 5 3Z"/><path fill="#CCC8CA" id="ar" d="M389 174v1c-2.064 0-.426-3.353-1-4.5-2.361-4.723-1-12.934-1-18.5 0-.759-1.318-7-2-7 0-3.625-5.966-16-2-16h2c0 1.145-.579 4 1 4 0 6.483 4 12.964 4 20l-1 21Z"/><path fill="#019099" id="AUDv1" d="M22 151h5l1-20-4-1c-1.666 0-1 4.222-1 5.5 0 4.674-1 10.241-1 15.5Z"/><path fill="#FD8F9C" id="Eth" d="M187 139c0 5.67-2 10.808-2 16l-4-5.5c-2.083-4.167-12-14.49-12-18.5 4.569 0 8.923-1 13-1l5 9Z"/><path fill="#FF6F80" id="TH" d="m202 132 6 3-2-5c-1.24 0-1.576 2-4 2Z"/><path fill="#FD8F9C" id="Eth" d="m269 140 2 16 4-5.5c2.32-2.32 12-16.953 12-19.5-4.107 0-8.469-1-12-1l-6 10Z"/><path fill="#019099" id="AUDv1" d="M429 151h5l-1-21-5 1c0 6.296 1 13.164 1 20Z"/><path fill="#029198" id="AUDv2/3" d="M27 151h8c0-6.848 2-12.776 2-19l-8-1h-1l-1 20Z"/><path fill="#FF8E9C" id="PO" d="M187 176c-2.483 0-4.026 2-6 2l-6-4-1-1h-1c0-4.3-8.6-7.7-11-12.5-1.824-3.647-12-20.798-12-23.5v-1c9.891 0 13.799-5 19-5 0 4.01 9.917 14.333 12 18.5l4 5.5v17.5l2 3.5Z"/><path fill="#FC909E" id="PF" fill-rule="evenodd" d="M209 147c0 2.087-3 4.393-3 7 0 2.884 4.241 12.13 8.5 10 3.861-1.931 2.039-17-5.5-17m7 29h1l1-1c0-9.301 1-21.382 1-30l-3-4-2-1-1-1-5-4-6-3h-2c-1.048 0-3 .473-3-1h-2c0 .621-4.484 1.984-5.5 3l-2.5 5c0 5.67-2 10.808-2 16v17.5l2 3.5c4.916 0 13.363 4.568 18.5 2 2.359-1.179 7.918-2 10.5-2Z"/><path fill="#FF6F80" id="TH" d="M197 131c1.048 0 3-.473 3 1-1.048 0-3 .473-3-1ZM260 131c-1.048 0-3-.473-3 1 1.048 0 3 .473 3-1Z"/><path fill="#FC909E" id="PF" fill-rule="evenodd" d="m244 147-3 3.5c-.731 1.462-.218 3.436-1 5-.826 1.653.405 3.81 1 5l1.5 4.5 1-2h3c5.578-2.789 5.167-16-2.5-16m-4 29c5.239 0 15.168 4.666 20.5 2 2.031-1.016 6.247-2 8.5-2l2-1.5c2.535-5.071 0-13.021 0-18.5l-2-16c0-1.725-.976-6.238-2.5-7-.93-.465-4.5-.817-4.5-2h-2c0 1.473-1.952 1-3 1h-2l-6 3h-1l-1 1-1 1-4 3-1 1-3 4v29l2 2Z"/><path fill="#FF8E9C" id="PO" d="M269 176c2.518 0 4.286 2 6 2l8-5c0-2.867 7.077-6.655 8-8.5 2.326-4.653 16-23.605 16-28.5v-1c-2.014 0-5.932 2.284-8.5 1-3.488-1.744-7.403-5-11.5-5 0 2.547-9.68 17.18-12 19.5l-4 5.5c0 5.479 2.535 13.429 0 18.5l-2 1.5Z"/><path fill="#98D5F9" id="CP" d="m368 197-1 1c-4.937 0-11.436-3-12-3 0-7.304 9-17.28 9-23 5.023 0 8-20.308 8-25l2-16 2 3.5 6 13c.492.984.851 5.5 2 5.5 0 6.354 1 13.139 1 19l-1 4-1 1c0 2.108-12.453 20-15 20Z"/><path fill="#029198" id="AUDv2/3" d="M421 151h8c0-6.836-1-13.704-1-20l-9 1 2 5.5V151Z"/><path fill="#029197" id="AUDv4" d="M35 151h5c0-5.669 2-12.129 2-18l-5-1c0 6.224-2 12.152-2 19Z"/><path fill="#98D5F9" id="CP" d="M101 195c-.564 0-7.063 3-12 3 0-1.895-16-15.751-16-22l-2-3c0-7.067 2-13.852 2-20 0-5.006 3.867-10.234 6-14.5.57-1.139 1.675-6.5 3-6.5l3 18c0 5.088-.097 10.307 2 14.5l5 7.5c0 4.12 9 15.284 9 23Z"/><path fill="#029197" id="AUDv4" d="M416 151h5v-13.5l-2-5.5-5 1c0 5.807 2 11.794 2 18Z"/><path fill="#019098" id="AUDv5" d="M40 151c4.425 0 9.961 1 15 1 0-6.379 3-11.77 3-18l-15-1h-1c0 5.871-2 12.331-2 18Z"/><path fill="#019198" id="AUDv6b" d="M390 153h1c0-7.105-3-12.548-3-19l-1-1h-1c0 6.483 4 12.964 4 20Z"/><path fill="#019098" id="AUDv5" d="M416 151c-4.27 0-10.067 1-15 1 0-6.246-3-11.491-3-17v-1l16-1c0 5.807 2 11.794 2 18Z"/><path fill="#019397" id="AUDv6a" d="M55 152c2.69 0 6.675 1 10 1 0-6.921 4-12.878 4-19-2.142 0-10 2.243-10 0h-1c0 6.23-3 11.621-3 18Z"/><path fill="#019198" id="AUDv6b" d="M65 153h1c0-6.624 4-12.659 4-19h-1c0 6.122-4 12.079-4 19Z"/><path fill="#FF909E" id="IGL" d="m325 147 2 5c4.591 0 7.166-14 11-14l-2-4c0 1.859-9.048 13-11 13Z"/><path fill="#019397" id="AUDv6a" d="M391 153h10v-1c0-6.246-3-11.491-3-17-3.325 0-7.31-1-10-1 0 6.452 3 11.895 3 19Z"/><path fill="#FF909E" id="IGL" d="m131 147-2 4c-1.942 0-10-10.529-10-13l1-3 11 12Z"/><path fill="#FF6F80" id="TH" d="m248 135-1 1 1-1Z"/><path fill="#FF7E83" id="VPM" d="m159 179 4 1c3.766 0 6.033-7 10-7 0-4.3-8.6-7.7-11-12.5-1.824-3.647-12-20.798-12-23.5l-2.5-1c-4 2-11.5 12.016-11.5 16v5c0 7.268 23 16.767 23 22Z"/><path fill="#FF6F80" id="TH" d="m247 136-1 1 1-1Z"/><path fill="#FF7E83" id="VPM" d="m297 179-4 1c-3.521 0-5.691-7-10-7 0-2.867 7.077-6.655 8-8.5 2.326-4.653 16-23.605 16-28.5 4.99 0 13.418 15 14 15 0 2.124-1 4.436-1 6 0 7.386-23 17.284-23 22Z"/><path fill="#FF8E9F" id="LGv" d="M125 169c-1.296 0-7 .825-7 2-6.556 0-7.135-33 1-33 0 2.471 8.058 13 10 13v13.5l-4 4.5Z"/><path fill="#FE7F83" id="SPA" d="M231 195h2c0-4.77 7-8.713 7-13v-3c-.672 0-2-4.329-2-5v-29l-2-2c-3.516 0-4.57-5-7-5l-2 1c-2.817 0-3.615 5-7 5l-1 1c0 8.618-1 20.699-1 30l-1 1v1l-1 6c3.072 0 7 9.666 7 12h2c1.764 0 2.313-2.593 3.5-2 1.445.723.091 2 2.5 2Z"/><path fill="#FF8E9F" id="LGv" d="M332 169c1.296 0 7 .825 7 2 3.868 0 5.864-21.773 4-25.5l-5-7.5c-3.834 0-6.409 14-11 14v1c0 4.388-.446 16 5 16Z"/><path fill="#FF6F80" id="TH" d="m213 139 1 1-1-1ZM242 140l-1 1 1-1ZM220 144l-1 1-3-4 4 3ZM236 143l2 2 3-4-5 2Z"/><path fill="#CBC8CB" id="fi" d="m106 183 3 3c4.295 0 .133-7 3-7l-1-12c-2.064 0-.426-3.353-1-4.5-1.631-3.262-.437-19.5-5-19.5l-8 8.5c-.574 1.147 1.064 4.5-1 4.5l1 9 8 16 1 1v1ZM348 185h1l1-2 1-1 8-17 1-7c0-4.923-4.09-15-9-15l-4 8v7c0 1.406.714 7-1 7 0 5.421-1 11.091-1 17 0 1.465-.109 4 2 4l1-1Z"/><path fill="#C7CACC" id="ccs" d="M385 152h2c0-.759-1.318-7-2-7v7ZM70 152h2l-1-5c-1.643 0-1 3.765-1 5Z"/><path fill="#C7CAC9" id="fr" d="M209 147c0 2.087-3 4.393-3 7 0 2.884 4.241 12.13 8.5 10 3.861-1.931 2.039-17-5.5-17ZM244 147l-3 3.5c-.731 1.462-.218 3.436-1 5-.826 1.653.405 3.81 1 5l1.5 4.5 1-2h3c5.578-2.789 5.167-16-2.5-16Z"/><path fill="#CBC9C7" id="or" d="M372 147c-1.149 0-1.508 4.516-2 5.5-2.292 4.584-8 10.698-8 16l2 3.5c5.023 0 8-20.308 8-25ZM85 150c.565 0 7.99 14.481 9 16.5.715 1.43-.722 5.5-2 5.5l-5-7.5c-2.097-4.193-2-9.412-2-14.5Z"/><path fill="#15B0B3" id="TEa1" d="m31 175-5 1c-3.62 0-4-20.73-4-25h5c0 6.05 2 11.328 2 17 0 1.357.647 6 2 6v1Z"/><path fill="#16AFB3" id="TEa2/3" d="m39 173-8 1c-1.353 0-2-4.643-2-6 0-5.672-2-10.95-2-17h8c0 7.587 4 14.614 4 22Z"/><path fill="#15B0B2" id="TEa4" d="M39 173h2l-1-22h-5c0 7.587 4 14.614 4 22Z"/><path fill="#15AFB3" id="TEa5" d="M41 173h13c0-7.052 1-14.555 1-21-5.039 0-10.575-1-15-1l1 22Z"/><path fill="#CCC8CA" id="ar" d="m135 170-4.5-1-2.5 4c-2.715 0-3-1.657-3-4l4-4.5V153c2.69 0 4.598-1 7-1v5c-6.031 0-1 12.154-1 13ZM332 169c0 2.061-.902 4-3 4-2.437 0-2.375-4-6-4 0-2.754 1.399-12-3-12 0-1.564 1-3.876 1-6l6 2c0 4.388-.446 16 5 16Z"/><path fill="#15AFB3" id="TEa5" d="M402 173h13c0-6.9 1-14.536 1-22-4.27 0-10.067 1-15 1v1c1.614 0 1 3.31 1 4.5V173Z"/><path fill="#15B0B2" id="TEa4" d="M415 173h2c0-7.116 4-14.049 4-22h-5c0 7.464-1 15.1-1 22Z"/><path fill="#16AFB3" id="TEa2/3" d="m417 173 9 1c0-7.199 3-14.76 3-23h-8c0 7.951-4 14.884-4 22Z"/><path fill="#15B0B3" id="TEa1" d="m426 175 5 1 2-4.5 1-20.5h-5c0 8.24-3 15.801-3 23v1Z"/><path fill="#15AFB2" id="TEa6a" d="M54 173c3.312 0 8.038 1 12 1 0-6.761-1-13.753-1-21-3.325 0-7.31-1-10-1 0 6.445-1 13.948-1 21Z"/><path fill="#C8CBCC" id="ec" d="M71 175c-2.618 0-1.65 3-4 3v-3c2.46 0 2-3.378 2-5 0-6.216 1-12.292 1-18h2l1 1c0 6.148-2 12.933-2 20v2ZM389 175v3l-3-3c0-1.048.473-3-1-3 0-5.861-1-12.646-1-19l1-1h2c0 5.566-1.361 13.777 1 18.5.574 1.147-1.064 4.5 1 4.5Z"/><path fill="#16B0B2" id="TEa6b" d="M66 174h1l-1-21h-1c0 7.247 1 14.239 1 21ZM389 174h1c0-6.319 1-14.033 1-21h-1l-1 21Z"/><path fill="#15AFB2" id="TEa6a" d="M402 173c-3.312 0-8.038 1-12 1 0-6.319 1-14.033 1-21h10c1.614 0 1 3.31 1 4.5V173Z"/><path fill="#FD8084" id="VPL" d="M153 180c0-2.515 5.014 0 6 0v-1c0-5.233-23-14.732-23-22-6.031 0-1 12.154-1 13 0 2.891 11.602 9 14 9l4 1ZM303 180h3c4.83 0 13.985-11 17-11 0-2.754 1.399-12-3-12 0 7.386-23 17.284-23 22v1c1.357 0 6-2.112 6 0Z"/><path fill="#A9AAA8" id="chpl" d="M106 182v1c0 5.393 11.334 20.832 9 25.5-2.235 4.469-9.387-7.774-10-9-5.195-10.389-8-21.855-8-34.5l8 16 1 1ZM350 183l-1 2c0 6.435-5.211 14.922-8 20.5-.929 1.859 1.641 4.429 3.5 3.5 6.355-3.177 11.063-22.626 14.5-29.5.981-1.961.029-14.5 0-14.5l-8 17-1 1Z"/><path fill="#FF6F80" id="TH" d="M127 177c-2.254 0-4-6.158-4 1-1.529 0-.855-7-5-7 0-1.175 5.704-2 7-2 0 2.343.285 4 3 4l-1 4Z"/><path fill="#F0483B" id="ZI" d="M169 211h2c2.772 0 8.961.731 11.5 2 1.258.629 4.277-.946 3.5-2.5l-7-8.5-10-12c-1.408 0-5-1.197-5-3h-1l-1-1-1-1h-1c-1.238 0-3-.423-3-2h-1c-1.122 0-7-2.632-7-4-2.398 0-14-6.109-14-9l-4.5-1-2.5 4-1 4 4 10 12 9c3.773 0 14.306 7.806 17 10.5l5 2.5 3 1 1 1ZM285 211h2l1-1h1l1-1h2c0-.994 5.757-4 7-4l4-2c0-1.772 7.346-6 9-6l1-1 13-9c0-3.686 3-6.177 3-10v-4c-2.437 0-2.375-4-6-4-3.015 0-12.17 11-17 11l-4 2-1 1h-2l-1 1-1 1h-1l-1 1h-1l-1 1h-1l-1 1-4 3-9 10-1 1-7 9.5c0 3.175 13.335-.5 15-.5Z"/><path fill="#FF6F80" id="TH" d="M334 176c0-5.084-4.365 1-5 1v-4c2.098 0 3-1.939 3-4 1.296 0 7 .825 7 2-3.424 0-3.518 5-5 5Z"/><path fill="#CACCCB" id="opt" d="M114 171c0 19.402 1.547 20.594 10 37.5l8.5 9.5 3.5 1.5c1.544-3.088-4.801-8.601-6-11l-8-17c-1.773-3.546-1.243-8.486-3-12-.866-1.733-2.392-8.5-5-8.5ZM335 205l-12 14c-6.367 0 6.131-14.761 8-18.5 2.074-4.149 7.955-28.228 10.5-29.5 2.13-1.065 1.5 3.996 1.5 5 0 6.332-2 11.194-2 17-1.638 0-2 3.576-2 5-1.948 0-4 5.428-4 7Z"/><path fill="#97D6F9" id="STR" d="m384 176 2 1v-2c0-1.048.473-3-1-3l-1 4Z"/><path fill="#0D9F91" id="ECT2/3" d="m35 191 11 2-5-20h-2l-8 1v1l4 7.5v8.5Z"/><path fill="#0D9E90" id="ECT5" d="M59 197h1c0-8.55-6-15.085-6-24H41l5 20h1c1.666 0 12 2.458 12 4Z"/><path fill="#0E9F91" id="ECT6a" d="M62 197h1c0-2.226 1.774-4 4-4v-12c-1.714 0-1-5.594-1-7-3.962 0-8.688-1-12-1 0 8.915 6 15.45 6 24h2Z"/><path fill="#97D6F9" id="STR" d="M71 176h2l-2-3v3Z"/><path fill="#FF7F82" id="VPLpc" d="M179 187h7l-5-9-6-4-1-1h-1c-3.967 0-6.234 7-10 7l2 3h1l1 1h1l1 1h2c.986 0 6 1.087 6 2h2Z"/><path fill="#FF7E83" id="VPM" d="m174 173 1 1-1-1Z"/><path fill="#FF7F82" id="VPLpc" d="M278 187h1c0-1.579 2.855-1 4-1 0-1.473 1.952-1 3-1h1l2-1 1-1h2l1-1v-2c-3.521 0-5.691-7-10-7l-8 5-4 9h7Z"/><path fill="#0E9F91" id="ECT6a" d="M395 197h2c0-9.187 5-14.588 5-24-3.312 0-8.038 1-12 1 0 2.241.804 17-1 17v2c2.881 0 4 1.292 4 4h2Z"/><path fill="#0D9E90" id="ECT5" d="M410 193c-4.566 0-8.954 4-13 4 0-9.187 5-14.588 5-24h13c0 6.835-5 13.543-5 20Z"/><path fill="#0D9F91" id="ECT2/3" d="m422 191-12 2c0-6.457 5-13.165 5-20h2l9 1v1c-3.633 0-4 12.662-4 16Z"/><path fill="#0E9F90" id="ECT6b" d="M67 178v3c-1.714 0-1-5.594-1-7h1v4Z"/><path fill="#FD8F9E" id="SubG" d="M123 178c0 4.036 3.774 9 8 9l-4-10c-2.254 0-4-6.158-4 1Z"/><path fill="#FF6F80" id="TH" d="M240 176v3c-.672 0-2-4.329-2-5l2 2Z"/><path fill="#FD8F9E" id="SubG" d="M329 177c0 3.823-3 6.314-3 10 5.187 0 8-6.73 8-11 0-5.084-4.365 1-5 1Z"/><path fill="#0E9F90" id="ECT6b" d="M389 178v13c1.804 0 1-14.759 1-17h-1v4Z"/><path fill="#0D9F90" id="ECT1" d="M34 191h1v-8.5l-4-7.5-5 1 2 3.5-1 11.5h7Z"/><path fill="#C8C9CB" id="amc" d="m79 226-3 1c0-8.861-1.31-19.121-5-26.5l-3-6.5c0-1.235.643-5-1-5v-11c2.35 0 1.382-3 4-3v1c0 5.758-3.846 12.808-1 18.5 3.316 6.632 9 24.043 9 31.5Z"/><path fill="#FF6F80" id="TH" d="m218 175-1 1 1-1Z"/><path fill="#C8C9CB" id="amc" d="M388 194c0 1.678-3.654 13-5 13 0-5.192 1.786-12.072 4-16.5l-1-13.5v-2l3 3v15l-1 1Z"/><path fill="#0D9F90" id="ECT1" d="M422 191h7l-1-10.5 3-4.5-5-1c-3.633 0-4 12.662-4 16Z"/><path fill="#90EB8D" id="LA" d="m79 232 1 3c1.15 0 1.508-4.516 2-5.5 2.132-4.265 8.276-8.5 13-8.5 0-4.088 8.481-4 10-4 0-6.126-16-15.301-16-19 0-1.895-16-15.751-16-22h-2c0 5.758-3.846 12.808-1 18.5 3.316 6.632 9 24.043 9 31.5v6Z"/><path fill="#FE8082" id="VPMpc" d="M186 187c7.325 0 14.127 2 22 2l8-6 1-6-1-1c-2.582 0-8.141.821-10.5 2-5.137 2.568-13.584-2-18.5-2-2.483 0-4.026 2-6 2l5 9Z"/><path fill="#FF6F80" id="TH" d="M217 176v1l-1-1h1Z"/><path fill="#FE8082" id="VPMpc" d="M271 187c-7.792 0-14.749 2-23 2-3.063 0-6.195-7-8-7v-6c5.239 0 15.168 4.666 20.5 2 2.031-1.016 6.247-2 8.5-2 2.518 0 4.286 2 6 2l-4 9Z"/><path fill="#97D6F9" id="STR" d="m384 176-1 1 1-1Z"/><path fill="#90EB8D" id="LA" d="M377 232c0 1.145.579 4-1 4 0-6.47-8.253-16-15-16 0-1.567-7.487-4-9-4 0-5.016 15-14.511 15-18l1-1c2.547 0 15-17.892 15-20l1-1 2 1 1 13.5c-2.214 4.428-4 11.308-4 16.5-1.59 0-1.443 4.386-2 5.5-2.137 4.275-3 9.342-3 14.5l-1 5Z"/><path fill="#FF6F80" id="TH" d="m153 180 3 3c-1.122 0-7-2.632-7-4l4 1Z"/><path fill="#CACCC8" id="ml" d="M171 189h2c3.978 0 6 .991 6-2h-2c-1.623 0-6-.005-6-2h-2l-1-1h-1l-1-1h-1l-6-3c-.986 0-6-2.515-6 0l3 3h1l3 2h1l4 2h1c1.041 0 5 .986 5 2Z"/><path fill="#FF6F80" id="TH" d="m163 180 2 3-6-3v-1l4 1ZM297 180l-4 2v-2l4-1v1Z"/><path fill="#CACCC8" id="ml" d="M283 189h2c0-1.473 1.952-1 3-1 0-1.473 1.952-1 3-1h1l1-1h1l1-1h2l1-1 1-1h2l1-1 1-2c0-2.112-4.643 0-6 0l-4 2-1 1h-2l-1 1-2 1h-1c0 1.473-1.952 1-3 1 0 1.579-2.855 1-4 1h-1c0 2.867 1.162 2 5 2Z"/><path fill="#FF6F80" id="TH" d="m306 180-4 2 1-2h3Z"/><path fill="#A8AAAA" id="VL" d="m105 181 1 1-1-1Z"/><path fill="#FF7F84" id="SPFm" d="M235 199h5l4-1 1-1h1l1-1 1-7c-3.063 0-6.195-7-8-7 0 4.287-7 8.23-7 13l1 2 1 2Z"/><path fill="#FF6F80" id="TH" d="m293 182-1 1 1-1ZM302 182l-1 1 1-1Z"/><path fill="#A8AAAA" id="VL" d="m351 182-1 1 1-1Z"/><path fill="#FF6F80" id="TH" d="m157 183 3 2c-1.238 0-3-.423-3-2ZM166 183l1 1-1-1Z"/><path fill="#FF7F84" id="SPFm" d="M217 199h4l1-1 1-1v-2c0-2.334-3.928-12-7-12l-8 6c0 3.303 4 6.527 4 9l5 1Z"/><path fill="#FF6F80" id="TH" d="m290 183-1 1 1-1ZM299 183l-1 1 1-1Z"/><path fill="#A8AAAA" id="VL" d="m350 183-1 2 1-2Z"/><path fill="#FF6F80" id="TH" d="m168 184 1 1-1-1ZM289 184l-2 1 2-1ZM298 184l-1 1 1-1ZM164 187h1l-4-2 1 1 1 1h1ZM171 185c.986 0 6 1.087 6 2-1.623 0-6-.005-6-2ZM286 185c-1.048 0-3-.473-3 1 1.048 0 3 .473 3-1ZM294 186h1v-1l-1 1Z"/><path fill="#E64438" id="HY" d="m296 185-1 1v-1h1ZM162 186l1 1-1-1Z"/><path fill="#FF6F80" id="TH" d="M283 186c-1.145 0-4-.579-4 1 1.145 0 4 .579 4-1ZM292 187h1v-1l-1 1Z"/><path fill="#E64438" id="HY" d="m294 186-1 1v-1h1ZM169 189v1c-1.408 0-5-1.197-5-3h2l3 2Z"/><path fill="#FF6F80" id="TH" d="M169 189h2c0-1.014-3.959-2-5-2l3 2ZM182 190c0-1.725 6.052-1 7.5-1 9.827 0 19.391 9 22.5 9 0-2.473-4-5.697-4-9-7.873 0-14.675-2-22-2h-7c0 2.991-2.022 2-6 2 0 1.751 7.426 1 9 1ZM275 190c-6.48 0-14.227-2.137-20.5 1l-7.5 5 1-7c8.251 0 15.208-2 23-2h7c0 2.867 1.162 2 5 2 0 1.735-6.51 1-8 1ZM288 188h3v-1c-1.048 0-3-.473-3 1Z"/><path fill="#E64438" id="HY" d="m292 187-1 1v-1h1Z"/><path fill="#CCC" d="M125 188c0 15.208 16.488 33.988 27.5 45 3.749 3.749 8.608 5.804 13 8 .903.452 4.253 3.994 5.5 1.5 1.747-3.494.676-9.412-3.5-11.5-4.94-2.47-18.012-9.524-20.5-14.5-4.991-9.983-7.342-28.5-22-28.5Z"/><path fill="#FF6F80" id="TH" d="M285 189h2l1-1c-1.048 0-3-.473-3 1Z"/><path fill="#E64438" id="HY" d="M287 189v2l4-3h-3l-1 1Z"/><path fill="#CCC" d="m297 239 10-8.5c3.366-6.732 14.178-17.356 19-27 .731-1.462 8.947-13.276 4.5-15.5-9.45-4.725-19.052 23.604-21.5 28.5-4.16 8.321-15.964 10.964-22 17-1.14 1.14-4.065 8.218-1.5 9.5 3.609 1.805 7.889-4 11.5-4Z"/><path fill="#0E9F90" id="ECT6b" d="m67 193 1 1c0-1.235.643-5-1-5v4Z"/><path fill="#F24739" id="FF" d="m185 201-1.5 2-4.5-1-10-12v-1h4c0 1.751 7.426 1 9 1l2 1.5 1 9.5Z"/><path fill="#FF64FF" id="MB" d="M209 213c-3.145 0-4.833 3-7 3-8.696 0-11.184-15-17-15l-1-9.5-2-1.5c0-1.725 6.052-1 7.5-1 9.827 0 19.391 9 22.5 9l-1 4v1l-1 1v1l-1 1v7ZM248 213c1.999 0 6 .067 6 3 8.402 0 12.726-16 18-16v-6.5l3-3.5c-6.48 0-14.227-2.137-20.5 1l-7.5 5-1 1h-1v5c1.577 0 2 1.762 2 3v7l1 1Z"/><path fill="#F24739" id="FF" d="m278 201-1 1c-2.313 0-5 2.273-5-2v-6.5l3-3.5c1.49 0 8 .735 8-1h4v2l-9 10Z"/><path fill="#0E9584" id="PERI1" d="m36 201-6 2c-1.693 0-3-9.925-3-12h7l2 10Z"/><path fill="#0E9583" id="PERI2/3" d="M36 201h6l7-1v-1c0-1.974-2-3.517-2-6h-1l-11-2h-1l2 10ZM415 201h6l1-10-12 2-3 6v1l8 1Z"/><path fill="#0E9584" id="PERI1" d="m421 202 6 1c0-3.956 2-7.497 2-12h-7l-1 10v1Z"/><path fill="#0F9684" id="PERI5" d="M58 198c-2.723 0-5.778 1-9 1 0-1.974-2-3.517-2-6 1.666 0 12 2.458 12 4l-1 1Z"/><path fill="#A0EE9C" id="EPd" d="m76 230-4 3-5-8 3 1.5-3-6c-1.912-3.825-4-18.922-4-23.5 0-2.226 1.774-4 4-4l1 1 3 6.5c3.69 7.379 5 17.639 5 26.5v3Z"/><path fill="#FF64FF" id="MB" d="M225 196c0 1.853 6 3.315 6 0v-1c-2.409 0-1.055-1.277-2.5-2-1.187-.593-1.736 2-3.5 2v1Z"/><path fill="#CAC7CB" id="fiber tracts" d="M341 193c-1.638 0-2 3.576-2 5 1.638 0 2-3.576 2-5Z"/><path fill="#0E9F90" id="ECT6b" d="m389 193-1 1 1-1Z"/><path fill="#A0EE9C" id="EPd" d="m381 230 3 3 4-6c-2.624 0 1.456-7.411 2-8.5l3-21.5c0-2.708-1.119-4-4-4l-1 1c0 1.678-3.654 13-5 13 0 6.882-3 12.783-3 20l1 3Z"/><path fill="#0F9684" id="PERI5" d="m399 198 8 1 3-6c-4.566 0-8.954 4-13 4l2 1Z"/><path fill="#97D6F9" id="STR" d="m119 235 4 2-4-4.5c-.754-1.508 1.939-5.28 3.5-4.5l5.5 4c0-4.436-1.97-9 5-9v-1c-15.926 0-32-9.898-32-27-.564 0-7.063 3-12 3 0 3.699 16 12.874 16 19 3.821 0 7 5.822 7 9l4 6 1 2 1 1h1Z"/><path fill="#FF6F80" id="TH" d="M223 196h2v-1h-2v1ZM231 196l3 1-1-2h-2v1Z"/><path fill="#97D6F9" id="STR" d="M336 235h2l1-1 2-3 1-1 1-1 1-2v-1l1-1c0-2.955 2.617-8 6-8l1-1c0-5.016 15-14.511 15-18-4.937 0-11.436-3-12-3 0 17.108-15.027 27-31 27v1c5.404 0 5 3.183 5 8l2.5-2c6.428-3.214 4.5 2.739 4.5 6Z"/><path fill="#E64438" id="HY" d="M163 209h2l-5-2.5c-2.694-2.694-13.227-10.5-17-10.5l6 7c0-2.213 12.303 6 14 6Z"/><path fill="#E64438" id="HY" fill-rule="evenodd" d="M228 201c0 1.02-3.121 12 .5 12 .56 0 1.405-12-.5-12m-7-2c4.795 0 4.362 21 7.5 21l1.5-5.5c1.282-2.564 1.207-15.5 5-15.5l-1-2-3-1c0 3.315-6 1.853-6 0h-2v1l-1 1-1 1Z"/><path fill="#FF6F80" id="TH" d="m247 196-1 1 1-1Z"/><path fill="#E64438" id="HY" d="m313 196-1 1 1-1Z"/><path fill="#32B824" id="ENTl6a" d="M62 201c-1.714 0-1 5.594-1 7-.96 0-3-8.65-3-10l1-1h3v4Z"/><path fill="#C9C8CA" id="ee" d="M67 224v1l3 1.5-3-6c-1.912-3.825-4-18.922-4-23.5h-1v4c0 6.634 3 12.26 3 18l1 4 1 1Z"/><path fill="#FF6F80" id="TH" d="m223 197-1 1 1-1ZM244 198h1v-1l-1 1Z"/><path fill="#E64438" id="HY" d="M303 203h5l4-6c-1.654 0-9 4.228-9 6Z"/><path fill="#97D6F9" id="STR" d="m368 197-1 1 1-1Z"/><path fill="#C9C8CA" id="ee" d="m389 226-1 1c-2.624 0 1.456-7.411 2-8.5l3-21.5h2v7c-1.076 0-2 9.512-2 11v2l-1 1-1 4-1 1v1l-1 1v1Z"/><path fill="#32B824" id="ENTl6a" d="M395 204v5c.635 0 4-9.949 4-11l-2-1h-2v7Z"/><path fill="#31B824" id="ENTl5" d="m63 216-8 2c0-.772-3.481-13.462-4-14.5l-2-3.5v-1c3.222 0 6.277-1 9-1 0 1.35 2.04 10 3 10l2 8Z"/><path fill="#E64438" id="HY" d="m217 199-6 3 1-4 5 1ZM240 199c0 1.014 3.959 2 5 2v-3h-1l-4 1Z"/><path fill="#CAC7CB" id="fiber tracts" d="M335 205h1l1-1v-1l1-1 1-2v-2c-1.948 0-4 5.428-4 7Z"/><path fill="#31B824" id="ENTl5" d="m393 216 8 2c0-3.205 6-13.476 6-18v-1l-8-1c0 1.051-3.365 11-4 11 0 1.623-.005 6-2 6v1Z"/><path fill="#FD4B3C" id="PH" d="m214 249 3.5 3 4.5-1 6.5-13 4.5 10.5c2.043 4.085 9 4.986 9-.5 0-3.672 4.763-11 9-11l1-2-1-3-5-6-1-2v-1l-1-1c0-1.774-.273-7 2-7l1-3v-7l-2-3v-1c-1.041 0-5-.986-5-2h-5c-3.793 0-3.718 12.936-5 15.5l-1.5 5.5c-3.138 0-2.705-21-7.5-21h-4l-6 3v1l-1 1v1l-1 1v6l2 3v1l1 1v6l-1 1-1 2c0 1.252-3.172 5-4 5l-2 4 1 2c6.119 0 9 8.28 9 12Z"/><path fill="#32B725" id="ENTl3" d="m55 218-8 2c0-6.625-5-12.099-5-19l7-1 2 3.5c.519 1.038 4 13.728 4 14.5Z"/><path fill="#E64438" id="HY" d="M253 224c2.395 0 5.263-3.619 8.5-2l3.5 2 3.5-5c3.545-1.773 7.224-3 11.5-3 0-2.047 5-2.168 5-5-1.665 0-15 3.675-15 .5l7-9.5c-2.313 0-5 2.273-5-2-5.274 0-9.598 16-18 16l1 4.5c-.809 1.619-2 1.471-2 3.5Z"/><path fill="#32B725" id="ENTl3" d="m401 218 8 2 6-19-8-1c0 4.524-6 14.795-6 18Z"/><path fill="#32B722" id="ENTl1" d="m42 222-3 3c-1.845 0-1.44-3.381-2-4.5-2.491-4.982-7-11.68-7-17.5l6-2c0 7.313 6 17.721 6 21Z"/><path fill="#32B825" id="ENTl2" d="M47 220c0 1.014-3.959 2-5 2 0-3.279-6-13.687-6-21h6c0 6.901 5 12.375 5 19Z"/><path fill="#A0EE9C" id="EPd" d="m63 216 2 3c0-5.74-3-11.366-3-18-1.714 0-1 5.594-1 7l2 8Z"/><path fill="#E64438" id="HY" d="M210 226c0 1.252-3.172 5-4 5 0-4.429-4.724-11.888-10.5-9l-4.5 3c0-6.751-8.242-9-14-9l-6-5c2.772 0 8.961.731 11.5 2 1.258.629 4.277-.946 3.5-2.5l-7-8.5 4.5 1 1.5-2c5.816 0 8.304 15 17 15 0 2.554.255 9 4 9 0 1.579 2.855 1 4 1Z"/><path fill="#A8A9AA" id="V3" d="M228 201c0 1.02-3.121 12 .5 12 .56 0 1.405-12-.5-12Z"/><path fill="#E64438" id="HY" d="m278 201-1 1 1-1Z"/><path fill="#32B825" id="ENTl2" d="m409 220 6 2 4-10.5c.74-1.479.079-9.5 2-9.5v-1h-6l-6 19Z"/><path fill="#F1473B" id="STN" d="M175 235h1c0-7.971-5-14.121-5-15v-1l-2-2-1-2-1-1-2-2c0-1.481-2-.785-2-3-1.697 0-14-8.213-14-6 0 9.139 12.542 18.042 19 24.5l7 7.5Z"/><path fill="#E64438" id="HY" d="M245 202c1.577 0 2 1.762 2 3l-2-3Z"/><path fill="#32B722" id="ENTl1" d="m415 222 3 3 9-22-6-1c-1.921 0-1.26 8.021-2 9.5l-4 10.5Z"/><path fill="#E64438" id="HY" d="m211 203-1 1 1-1ZM303 203l-4 2c1.465 0 4 .109 4-2Z"/><path fill="#F1473B" id="STN" d="M284 221c0 2.477-2.011 2.522-3 4.5-1.639 3.278 0 6.564 0 9.5 2.217 0 5.505-5.005 7.5-7 5.473-5.473 19.5-17.177 19.5-25h-5c0 2.109-2.535 2-4 2l-6 5-1 1-1 1-1 1-1 2-1 1-1 1v1l-1 1-1 1-1 1Z"/><path fill="#A0EE9C" id="EPd" d="M395 209c0 1.623-.005 6-2 6 0-1.488.924-11 2-11v5Z"/><path fill="#E64438" id="HY" d="m210 205-1 1 1-1ZM292 209l1 1 6-5c-1.243 0-7 3.006-7 4Z"/><path fill="#CAC7CB" id="fiber tracts" d="M333 210c0 2.242-7.978 9-10 9l12-14v3l-1 1-1 1Z"/><path fill="#C8C9CB" id="amc" d="M378 227h2c0-7.217 3-13.118 3-20-1.59 0-1.443 4.386-2 5.5-2.137 4.275-3 9.342-3 14.5Z"/><path fill="#CCCACB" id="nst" d="M171 219v1c5.077 0 6 4.064 6-4l-6-5h-2l-1-1-3-1h-2c0 2.215 2 1.519 2 3l2 2 1 1 1 2 2 2Z"/><path fill="#E64438" id="HY" d="m290 209-1 1 1-1Z"/><path fill="#CCCACB" id="nst" d="m285 220-1 1c-6.164 0-4 .917-4-5 0-2.047 5-2.168 5-5h2l1-1h1l1-1h2l1 1-1 1-1 1-1 1-1 2-1 1-1 1v1l-1 1-1 1Z"/><path fill="#E64438" id="HY" d="m168 210 1 1-1-1ZM288 210l-1 1 1-1ZM292 211l-1 1 1-1ZM165 212l2 2-2-2ZM209 213l2 2-2-3v1ZM248 213l-2 2 1-3 1 1Z"/><path fill="#C7C9CC" id="mtt" d="M211 224c-1.235 0-5-.643-5 1-3.745 0-4-6.446-4-9 2.167 0 3.855-3 7-3l2 2v1l1 1v6l-1 1ZM251 225h1l1-1c0-2.029 1.191-1.881 2-3.5l-1-4.5c0-2.933-4.001-3-6-3l-2 2c-2.273 0-2 5.226-2 7l1 1v1c1.321 0 6-.684 6 1Z"/><path fill="#E64438" id="HY" d="m290 213-1 2 1-2ZM168 215l1 2-1-2ZM289 215l-1 1 1-1Z"/><path fill="#6ACAB9" id="PIR" d="M83 269c0 3.829-4.28 11.06-6 14.5l-3 3.5c-4.01 0-8.541-10.041-11-12.5-9.489-9.489-12.37-23.74-18-35L39 225l3-3c1.041 0 5-.986 5-2l8-2 8-2 2 3 1 4 1 1v1l5 8c0 9.744 10 26.688 10 31l1 5Z"/><path fill="#9DE79B" id="BLAa" d="M111 229c0 2.837-6.969 5-9 5-2.602 0-7-10.833-7-13 0-4.088 8.481-4 10-4 3.821 0 7 5.822 7 9l-1 3Z"/><path fill="#F1483A" id="PSTN" d="m176 235 1 4c6.73 0 14-7.425 14-14 0-6.751-8.242-9-14-9 0 8.064-.923 4-6 4 0 .879 5 7.029 5 15Z"/><path fill="#E64438" id="HY" d="m211 216 1 1-1-1Z"/><path fill="#F1483A" id="PSTN" d="m281 236-2 3c-7.019 0-14-8.319-14-15l3.5-5c3.545-1.773 7.224-3 11.5-3 0 5.917-2.164 5 4 5 0 2.477-2.011 2.522-3 4.5-1.639 3.278 0 6.564 0 9.5v1Z"/><path fill="#E64438" id="HY" d="m288 216-1 1 1-1Z"/><path fill="#90EB8D" id="LA" d="m352 216-1 1 1-1Z"/><path fill="#9DE79B" id="BLAa" d="M345 229c2.795 0 5.331 5 9 5 3.923 0 7-10.919 7-14 0-1.567-7.487-4-9-4l-1 1c-3.383 0-6 5.045-6 8l-1 1v1l1 2Z"/><path fill="#6ACAB9" id="PIR" d="M373 269c0 1.78 8.706 18 10 18 2.837 0 8.889-10.277 10-12.5l8-11c4.531-9.063 7.509-19.017 12-28l5-10.5-3-3-6-2-8-2-8-2v1l-1 1-1 4-1 1v1l-1 1v1l-1 1-4 6c0 11.26-10 26.893-10 32l-1 4Z"/><path fill="#F1483A" id="PSTN" d="m169 217 2 2-2-2Z"/><path fill="#A0EE9C" id="EPd" d="m393 217-1 1 1-1Z"/><path fill="#F1483A" id="PSTN" d="m287 218-1 1 1-1ZM286 219l-1 1 1-1ZM285 220l-1 1 1-1Z"/><path fill="#9DE69C" id="BLAp" d="M365 250h5l1-1c0-1.295 5-7.357 5-13 0-6.47-8.253-16-15-16 0 3.081-3.077 14-7 14 0 4.971 9 10.638 9 15l2 1ZM87 250h4l2-1c0-4.888 9-9.693 9-15-2.602 0-7-10.833-7-13-4.724 0-10.868 4.235-13 8.5-.492.984-.85 5.5-2 5.5 0 4.607 5 11.572 5 14l2 1Z"/><path fill="#F2483A" id="LHA" d="M173 253c2.445 0 9.458 4.021 13.5 2l4.5-2c0-3.301 1.771-4 5-4l3-2 3-8 1-1c0-1.048-.473-3 1-3l2-4c0-4.429-4.724-11.888-10.5-9l-4.5 3c0 6.575-7.27 14-14 14l-2 2-1 1-3 5c0 2.483 2 4.026 2 6Z"/><path fill="#C8CBCA" id="pm" d="m244 222 1 1-1-1Z"/><path fill="#F2483A" id="LHA" d="m266 253 3.5 2c3.641 1.82 10.246-1 13.5-1 0-2.16 2-4.167 2-7l-3-6c-1.238 0-3-.423-3-2-7.019 0-14-8.319-14-15l-3.5-2c-3.237-1.619-6.105 2-8.5 2l-1 1c0 2.139-1 4.033-1 7l1 3 2 4c1.732 0 3 5.353 3 7l3 3c2.519 0 6 1.083 6 4Z"/><path fill="#99D2BD" id="OLF" d="m391 222-1 1 1-1ZM66 223l1 1-1-1Z"/><path fill="#80BFE1" id="MEA" d="M163 257c-1.562 0-4.286 6-7 6 0-7.631-5.962-16.731-12.5-20-2.2-1.1-14.5-1.977-14.5-5v-3l-1-3c0-4.436-1.97-9 5-9l4 2 9 6 2 2h1l2 2 3 2 3 3c0 5.163 6 11.048 6 17Z"/><path fill="#C8CBCA" id="pm" d="m212 223-1 1 1-1Z"/><path fill="#80BFE1" id="MEA" d="M294 256c0 3.26 3.787 7 7 7 0-7.626 4.294-16.397 11.5-20l10-2c1.362-.681 4.844-4 5.5-4v-2l1-4c0-4.817.404-8-5-8h-2l-1 1h-1l-1 1-9 6-1 1-1 1-6 4-1 1-1 1-1 1c0 4.014-5 10.295-5 16Z"/><path fill="#C8CBCA" id="pm" d="M206 225c0 1.579 2.855 1 4 1l1-2c-1.235 0-5-.643-5 1ZM251 225l-5 1-1-2c1.321 0 6-.684 6 1Z"/><path fill="#E64438" id="HY" d="m253 224-1 1 1-1Z"/><path fill="#A0EE9C" id="EPd" d="m390 224-1 1 1-1Z"/><path fill="#E64438" id="HY" d="m246 226 5 6c0-2.967 1-4.861 1-7h-1l-5 1Z"/><path fill="#8AD987" id="CTXsp" d="m345 225-1 1 1-1ZM76 230l3 2v-6l-3 1v3ZM111 229c2.364 0 3.053 3 5 3l-4-6-1 3Z"/><path fill="#A0EE9C" id="EPd" d="m389 226-1 1 1-1Z"/><path fill="#8AD987" id="CTXsp" d="M343 229h2l-1-2-1 2ZM381 230l-4 2 1-5h2l1 3Z"/><path fill="#C8CBC7" id="st" d="M123 237h1c2.25 0 3.376-2 5-2l-1-3-5.5-4c-1.561-.78-4.254 2.992-3.5 4.5l4 4.5ZM333 237h1l1-1 1-1c0-3.261 1.928-9.214-4.5-6l-2.5 2-1 4c1.624 0 2.75 2 5 2Z"/><path fill="#84E981" id="BMAp" d="m99 265 4 1c1.578 0 20-21.362 20-23l-4-8h-1l-1-1-1-2c-1.947 0-2.636-3-5-3 0 2.837-6.969 5-9 5 0 5.307-9 10.112-9 15v2c2.13 0 6 11.823 6 14Z"/><path fill="#8AD987" id="CTXsp" d="m343 229-1 1 1-1Z"/><path fill="#84E981" id="BMAp" d="m357 265-3 1c-2.557 0-20-20.019-20-23 0-3.482 4-5.416 4-8l1-1 2-3 1-1 1-1h2c2.795 0 5.331 5 9 5 0 4.971 9 10.638 9 15v2c0 4.336-6 9.204-6 14Z"/><path fill="#A0ED9D" id="EPv" d="M83 264h1c0-2.088.318-13 2-13l-1-2c0-2.428-5-9.393-5-14l-1-3-3-2-4 3c0 9.744 10 26.688 10 31h1Z"/><path fill="#8AD987" id="CTXsp" d="m342 230-1 1 1-1Z"/><path fill="#A0ED9D" id="EPv" d="M373 265h1c0-5.107 10-20.74 10-32l-3-3-4 2c0 1.145.579 4-1 4 0 5.643-5 11.705-5 13v2c0 3.823 1 8.586 1 13l1 1Z"/><path fill="#8AD987" id="CTXsp" d="m117 234 1 1-1-1ZM339 234l-1 1 1-1ZM128 238l-5 5-4-8 4 2h1c0 1.579 2.855 1 4 1Z"/><path fill="#97D6F9" id="STR" d="M128 238h1v-3c-1.624 0-2.75 2-5 2 0 1.579 2.855 1 4 1Z"/><path fill="#E64438" id="HY" d="m177 239-2 2v-6h1l1 4ZM205 237l-2 1c0-1.048-.473-3 1-3l1 2ZM251 237c2.215 0 1.519 2 3 2l-2-4-1 2Z"/><path fill="#97D6F9" id="STR" d="M333 237c0 1.579-2.855 1-4 1l-1-1v-2c1.624 0 2.75 2 5 2ZM336 235l-1 1 1-1Z"/><path fill="#8AD987" id="CTXsp" d="M329 238c0 1.758 3.168 5 5 5 0-3.482 4-5.416 4-8h-2l-1 1-1 1h-1c0 1.579-2.855 1-4 1Z"/><path fill="#E64438" id="HY" d="M279 239c0 1.577 1.762 2 3 2l-1-5-2 3Z"/><path fill="#97D6F9" id="STR" d="m335 236-1 1 1-1Z"/><path fill="#FC4C3E" id="PMd" d="M199 247c0 6.496 12.749 2 15 2 0-3.72-2.881-12-9-12l-2 1-1 1-3 8ZM257 246c0 8.969-11.472 2-15 2 0-3.672 4.763-11 9-11 2.215 0 1.519 2 3 2 1.732 0 3 5.353 3 7Z"/><path fill="#97EC93" id="PA" d="M343 267h11v-1c-2.557 0-20-20.019-20-23-1.832 0-5-3.242-5-5l-1-1c-.656 0-4.138 3.319-5.5 4l-10 2c-7.206 3.603-11.5 12.374-11.5 20l1 1 5.5-5c10.332-10.332 21.103-.948 31 4l4.5 4ZM103 267h11l5.5-5 16-8c8.259-4.13 13.324 9 19.5 9h1c0-7.631-5.962-16.731-12.5-20-2.2-1.1-14.5-1.977-14.5-5h-1l-5 5c0 1.638-18.422 23-20 23v1Z"/><path fill="#E64438" id="HY" d="m203 238-1 1 1-1ZM267 260l6.5-4c4.195-2.098 5.568 4 7.5 4 0-2.72 2-3.553 2-6-3.254 0-9.859 2.82-13.5 1l-3.5-2c0 1.855-6 5.453-6-4l-3-3c0 8.969-11.472 2-15 2 0 5.486-6.957 4.585-9 .5l-4.5-10.5-6.5 13h4c0-7.501 4-6.213 4 1l1.5-2c2.508-1.254 7.5 5.634 7.5 8l4.5-4c3.062-1.531 23.5 3.894 23.5 6Z"/><path fill="#C7C8CC" id="alv" d="M157 240c1.947 0 2.636 3 5 3 0-2.548-2.687-4-5-4v1ZM299 240c-1.947 0-2.636 3-5 3l3-4h2v1Z"/><path fill="#7DCD4B" id="HPF" d="m300 239-1 1v-1h1ZM167 253c0 2.226-1.774 4-4 4 0-5.952-6-11.837-6-17 1.947 0 2.636 3 5 3 1.465 0 4-.109 4 2h-3l-1 2c0 4.632 1.625 6 5 6ZM287 250c0 4.191 4.577 6 7 6 0-5.705 5-11.986 5-16-1.947 0-2.636 3-5 3-1.238 0-3 .423-3 2h2c.896 0 3.026 2 1 2 0 1.099-1.27 8.115-3.5 7l-3.5-4Z"/><path fill="#E64438" id="HY" d="m175 241-1 1 1-1Z"/><path fill="#65A83D" id="DG-sg" d="m163 245-1 2 1-2Z"/><path fill="#7BD04A" id="DG-mo" d="m168 252-1 1c-3.375 0-5-1.368-5-6l1-2h4l2 2v4l-1 1Z"/><path fill="#7DCD4B" id="HPF" d="m167 245 2 2-2-2Z"/><path fill="#A8A9AA" id="V3" d="M226 268c.273 0 3 16.806 3 6v-3l1-3v-16c0-7.213-4-8.501-4-1v17Z"/><path fill="#7BD04A" id="DG-mo" d="M294 247c0 1.099-1.27 8.115-3.5 7l-3.5-4 1-4 3-1h2l1 2Z"/><path fill="#65A83D" id="DG-sg" d="M293 245c.896 0 3.026 2 1 2l-1-2Z"/><path fill="#E64438" id="HY" d="M176 259c0-8.121 11.935 1 13 1l3.5-3c1.308-.654 19.738-3.631 21-3l3.5 3 5-6-4.5 1-3.5-3c-2.251 0-15 4.496-15-2l-3 2 1 4.5c-1.21 2.421-6 2.347-6-.5l-4.5 2c-4.042 2.021-11.055-2-13.5-2l3 6Z"/><path fill="#8AD987" id="CTXsp" d="m87 250-1 1-1-2 2 1ZM91 250l2 1v-2l-2 1Z"/><path fill="#C7C8CA" id="fx" d="M196 249c-3.229 0-5 .699-5 4 0 2.847 4.79 2.921 6 .5l-1-4.5ZM260 249c2.519 0 6 1.083 6 4 0 1.855-6 5.453-6-4Z"/><path fill="#8AD987" id="CTXsp" d="m365 250-2 1v-2l2 1ZM370 250l1 1v-2l-1 1Z"/><path fill="#9CE79C" id="BLAv" d="m96 273-3 1c-3.435 0-5.25-5-8-5l-1-4v-1c0-2.088.318-13 2-13l1-1h4l2 1c2.13 0 6 11.823 6 14v5l-1 1-1 1-1 1Z"/><path fill="#FC4C3D" id="TMd" d="M226 268c-2.723 0-5.778 1-9 1v-12l5-6h4v17ZM230 268c2.723 0 5.778 1 9 1v-11c0-2.366-4.992-9.254-7.5-8l-1.5 2v16Z"/><path fill="#9CE79C" id="BLAv" d="m361 273 2 1c2.053 0 8-2.129 8-5l1-4v-1c0-4.414-1-9.177-1-13l-1-1h-5l-2 1c0 4.336-6 9.204-6 14v4l2 2 2 2Z"/><path fill="#7DCD4B" id="HPF" d="m169 251-1 1 1-1ZM168 252l-1 1 1-1Z"/><path fill="#60E6B5" id="COApm" d="M114 267c0 9.02 6 16.29 6 22l35-26c-6.176 0-11.241-13.13-19.5-9l-16 8-5.5 5Z"/><path fill="#FF4B3B" id="PMv" d="m203 275 2.5 2 6.5-1 5-7v-12l-3.5-3c-1.262-.631-19.692 2.346-21 3l-3.5 3c0 3.629 14 13.143 14 15ZM244 275l2.5 2 6.5-1c0-5.534 14-9.533 14-16 0-2.106-20.438-7.531-23.5-6l-4.5 4v11l5 6Z"/><path fill="#60E6B5" id="COApm" d="M343 267c0 8.168-6 14.501-6 22-6.733 0-28.609-25-35-25l5.5-5c10.332-10.332 21.103-.948 31 4l4.5 4Z"/><path fill="#FF4C3E" id="TMv" d="M203 275c0 3.41-.234 5-4 5-7.497 0-23-14.057-23-21 0-8.121 11.935 1 13 1 0 3.629 14 13.143 14 15ZM253 276c0 2.708 1.119 4 4 4 5.964 0 24-13.471 24-20-1.932 0-3.305-6.098-7.5-4l-6.5 4c0 6.467-14 10.466-14 16Z"/><path fill="#99D2BD" id="OLF" d="M83 269h2l-1-4-1-1h-1l1 5Z"/><path fill="#8AD987" id="CTXsp" d="M84 264v1l-1-1h1ZM372 265h1l-1-1v1ZM99 269h1l1-1 2-1v-1l-4-1v4ZM356 268h1v-3l-3 1v1l2 1Z"/><path fill="#99D2BD" id="OLF" d="M371 269h2l1-4h-2l-1 4Z"/><path fill="#5FE6B7" id="COApl" d="M91 295v1c12.986 0 12.192 2.154 24.5-4 1.185-.592 4.5-1.012 4.5-3 0-5.71-6-12.98-6-22h-11l-2 1-1 1h-1v1l-1 1-1 1-1 1-1 3c0 6.851-4 12.977-4 19ZM365 295v1c-15.438 0-11.075 2.212-25.5-5l-2.5-2c0-7.499 6-13.832 6-22h11l2 1 1 1 2 2 2 2c0 1.048-.473 3 1 3 0 6.963 3 12.831 3 19Z"/><path fill="#97EC93" id="PA" d="m101 268-1 1 1-1Z"/><path fill="#FF5447" id="PVp" d="M234 286h2c2.665 0 13 .494 13-3l-5-8-5-6c-3.222 0-6.277-1-9-1l-1 3v3c0 10.806-2.727-6-3-6-2.723 0-5.778 1-9 1l-5 7-5 7c0 3.441 11.206 3 14 3h6c0-1.399 2-1.399 2 0h5Z"/><path fill="#97EC93" id="PA" d="M357 268v1l-1-1h1Z"/><path fill="#59D9AA" id="PAA" d="M88 295h3c0-6.023 4-12.149 4-19l-2-2c-3.435 0-5.25-5-8-5h-2c0 3.829-4.28 11.06-6 14.5l-3 3.5c0 4.353 10.753 8 14 8Z"/><path fill="#8AD987" id="CTXsp" d="m357 269 2 2-2-2Z"/><path fill="#59D9AA" id="PAA" d="M365 295h4c2.944 0 14-4.428 14-8-1.294 0-10-16.22-10-18h-2c0 2.871-5.947 5-8 5l-1 2c0 6.963 3 12.831 3 19Z"/><path fill="#8AD987" id="CTXsp" d="m99 270-1 1 1-1Z"/><path fill="#99D2BD" id="OLF" d="m97 272-1 1 1-1ZM93 274l2 2 1-3-3 1ZM363 274l-1 2c-1.473 0-1-1.952-1-3l2 1Z"/><path fill="#E64438" id="HY" d="M199 280c0 .616 6.93 3 8 3l5-7-6.5 1-2.5-2c0 3.41-.234 5-4 5ZM257 280c0 1.069-6.717 3-8 3l-5-8 2.5 2 6.5-1c0 2.708 1.119 4 4 4ZM223 286l-2 1v-1h2Z"/><path fill="#F1473A" id="ME" d="M221 287c0 2.991-2.696 3.108-1 6.5 2.332 4.664 14.859 3.283 17-1 .978-1.956-1-4.077-1-5.5l-2-1h-11l-2 1Z"/><path fill="#E64438" id="HY" d="M236 286v1l-2-1h2Z"/><path fill="#99D2BD" id="OLF" d="M91 295v1c-1.048 0-3 .473-3-1h3ZM369 295c0 1.579-2.855 1-4 1v-1h4Z"/></svg>