<svg xmlns="http://www.w3.org/2000/svg" viewBox="0 0 456 320"><path fill="#098589" id="VISp1" d="M93 75h1l8.5-8c3.473-1.736 6.291-6.646 9-8l16-8c1.734-.867 4.161-.08 6-1 2.745-1.372 13.5-2.16 13.5 3 1.692 0 11-5.24 11-8 0-6.146-18.919-4-23-4-7.884 0-31.785 15.285-38 21.5-2.395 2.395-10 7.944-10 10.5l6 2ZM369 72c0 1.662-4.357 3-6 3-1.623 0-17.714-16.107-21.5-18-4.343-2.172-23.922-10.539-29-8l-3.5 4c-4.095 0-7.346-7-12-7 0-5.111 20.436-7.032 24.5-5 10.981 5.49 33.796 12.092 39.5 23.5l8 7.5Z"/><path fill="#1BA696" id="RSPagl1" d="M150 67c-6.168 0-9.634 12-16 12l5-5.5c3.217-6.434 8-10.637 8-18.5v-2c1.692 0 11-5.24 11-8 10.237 0-4.451 20-6 20l-1 1-1 1ZM304 65c7.118 0 11.332 14 18 14 0-4.492-13-14.225-13-25v-1c-4.095 0-7.346-7-12-7-8.154 0 6.687 19 7 19Z"/><path fill="#FF7AFD" id="SCzo" d="M224 59h3c0-13.143-18.573-14.464-27.5-10-1.362.68-4.844 4-5.5 4v7l3-1c0-12.35 27-13.862 27 0ZM259 59l4 1v-7h-1l-1-1c0-2.535-6.822-3.16-8.5-4-8.992-4.496-22.5.689-22.5 11h3c0-13.588 26-12.932 26 0Z"/><path fill="#0A828C" id="VISp2/3" d="M107 77h1l10.5-8c2.856-1.428 4.553 2 6.5 2 4.983 0 15.185-16 22-16v-2c0-5.16-10.755-4.372-13.5-3-1.839.92-4.266.133-6 1l-16 8c-2.709 1.354-5.527 6.264-9 8L94 75c1.91 0 8.441 2 13 2Z"/><path fill="#FF78FF" id="SCsg" d="m197 59 18.5-2c1.802.901 6.594 2 8.5 2 0-13.862-27-12.35-27 0ZM233 59c2.627 0 8.921-3.29 11.5-2 3.787 1.893 10.049 2 14.5 2 0-12.932-26-13.588-26 0Z"/><path fill="#0A828C" id="VISp2/3" d="M348 77h2c3.595 0 8.858-1 13-1v-1c-1.623 0-17.714-16.107-21.5-18-4.343-2.172-23.922-10.539-29-8l-3.5 4v1c6.024 0 18.747 18 23 18 0-8.538 16 2.856 16 5Z"/><path fill="#FF64FF" id="MB" d="m261 52 1 1-1-1ZM140 131c1.543 0 2.231-4.634 5.5-3 5.69 2.845 14.851 4 21.5 4 6.34 0 12.066-9.783 16.5-12l3.5 2c0-6.132 6-10.818 6-17-1.684 0-1-4.679-1-6-1.412 0-4.039-9.423-3-11.5 1.229-2.458 4-1.773 4-4.5 0-6.27 2-11.142 2-17v-4l-1-2v-7l-13.5 4c-1.319.66-5.5-.334-5.5 2h1c4.324 0 10.232-3.035 13 2.5l-1 8.5c0 8.09.515 22.47-3 29.5-1.144 2.287-1.754 18.5-5 18.5 0 5.709-13.067 13.717-18.5 11l-1.5-2c-2.203 0-4.569 3.465-7.5 2-18.341-9.171-5.5-26.909-5.5-40-1.761 0-3.325 6.15-4 7.5-3.791 7.581 1.071 19.859-2 26l-2 3.5c0 1.235-.643 5 1 5ZM290 132c3.98 0 23.065-4.717 24.5-4 1.969.985 1.5 3.188 1.5 5 .682 0 2-6.241 2-7-4.131 0-.571-18.642-2-21.5l-3-11c-2.191-4.382-8-9.409-8-14.5l-2-1c0 3.655 4.417 7.335 6 10.5 5.409 10.818 9.247 33.626-4.5 40.5-3.117 1.558-5.401-2-7.5-2l-2.5 2c-6.47 3.235-18.5-6.686-18.5-12-3.145 0-3.811-17.122-5-19.5-2.529-5.059-3-22.786-3-29 0-2.85-1.513-7.993 1.5-9.5 4.501-2.25 5.659 0 10.5 0l3 1-4.5-3c-3.047-1.523-12.248-4-15.5-4v7l-1 3-1 3c0 5.22 2 10.958 2 17l4 4.5c1.124 2.249-.975 11.5-3 11.5 0 1.406.714 7-1 7l7 15c7.334 0 12.261 11 20 11Z"/><path fill="#1AA496" id="RSPagl2/3" d="M334 79h5l-7-7c-4.253 0-16.976-18-23-18 0 10.775 13 20.508 13 25l2 1 10-1ZM134 79l-1 1-11-1h-4l6-6 1-1v-1c4.983 0 15.185-16 22-16 0 7.863-4.783 12.066-8 18.5l-5 5.5Z"/><path fill="#FD7AFF" id="SCop" d="M226 63h1v-4h-3c-1.906 0-6.698-1.099-8.5-2L197 59l-3 1 1 2c5.847 0 16.394-5.053 22.5-2 1.849.924 6.592 3 8.5 3ZM230 63l8.5-3c6.952-3.476 17.499 3 23.5 3l1-3-4-1c-4.451 0-10.713-.107-14.5-2-2.579-1.29-8.873 2-11.5 2h-3v4Z"/><path fill="#FE79FF" id="ICd" d="M289 83c-2.231 0-3.035 12.57-4 14.5-2.707 5.415-9 13.32-9 19.5-3.145 0-3.811-17.122-5-19.5-2.529-5.059-3-22.786-3-29 0-2.85-1.513-7.993 1.5-9.5 4.501-2.25 5.659 0 10.5 0 0 3.881 9 15.3 9 24ZM167 83c3.101 0 2.068 8.637 3 10.5 3.494 6.987 10 16.333 10 24.5 3.246 0 3.856-16.213 5-18.5 3.515-7.03 3-21.41 3-29.5l1-8.5c-2.768-5.535-8.676-2.5-13-2.5 0 8.228-9 15.006-9 24Z"/><path fill="#FF64FF" id="MB" d="m175 59-2 1 2-1Z"/><path fill="#FE79FE" id="ICe" d="M147 89c0 13.091-12.841 30.829 5.5 40 2.931 1.465 5.297-2 7.5-2 0-9.689-2.436-24.627 2-33.5 1.414-2.828.666-10.5 5-10.5 0-8.994 9-15.772 9-24h-1l-2 1c-2.06 0-18 13.953-18 16l-1 1-1 1v1l-1 1-1 2-2 4c0 1.238-.423 3-2 3ZM289 83c4.455 0 3.648 5.796 5 8.5 3.802 7.604 3 25.764 3 35.5 2.099 0 4.383 3.558 7.5 2 13.747-6.874 9.909-29.682 4.5-40.5-1.583-3.165-6-6.845-6-10.5l-1-1-1-1v-1l-4-4c0-2.317-10.005-10-12-10l-1-1h-1l-3-1c0 3.881 9 15.3 9 24Z"/><path fill="#FF90FF" id="SCig" d="m226 65-31 1v-4c5.847 0 16.394-5.053 22.5-2 1.849.924 6.592 3 8.5 3v2ZM230 64c9.979 0 20.573 2 31 2l1-3c-6.001 0-16.548-6.476-23.5-3l-8.5 3v1Z"/><path fill="#FF64FF" id="MB" d="m284 60 1 1-1-1ZM230 64c0 7.99-4 9.77-4 1v-2h1c0 6.45 1.835 1 3 1Z"/><path fill="#FF90FE" id="SCiw" d="m193 83 16.5-8c7.159-3.58 16.194.903 22-2l2.5 1c5.906 0 12.582.541 17.5 3 3.642 1.821 7.209 6 11.5 6 0-6.042-2-11.78-2-17-10.427 0-21.021-2-31-2 0 7.99-4 9.77-4 1l-31 1c0 5.858-2 10.73-2 17Z"/><path fill="#1BA598" id="RSPd1" d="m152 65-1 1 1-1ZM327 86c0 2.912 1.8 5.1 3 7.5.428.856-1 4.688-1 5.5l-6-7.5c-3.656-7.312-10.31-13.62-14-21l-5-5.5c7.118 0 11.332 14 18 14l2 1 1 2 2 2v2ZM151 66l-1 1 1-1ZM129 86c0 4.313-2 8-2 13l6-6.5c2.145-4.29 17-23.58 17-25.5-6.168 0-9.634 12-16 12l-1 1-1 1-1 1-1 3-1 1Z"/><path fill="#0B848B" id="VISp4" d="M108 77c0 1.16 8.505 2 10 2l6-6 1-1v-1c-1.947 0-3.644-3.428-6.5-2L108 77ZM348 77c0 1.274-7.483 2-9 2l-7-7c0-8.538 16 2.856 16 5Z"/><path fill="#FF64FF" id="MB" d="m297 71 4 4-4-4Z"/><path fill="#0A828C" id="VISp2/3" d="m125 72-1 1 1-1Z"/><path fill="#0A838A" id="VISpl1" d="M382 95h1l3-5-4-4.5L369 72c0 1.662-4.357 3-6 3v1c2.066 0 19 17.412 19 19ZM73 95h1l19-20-6-2c-3.1 0-12.04 10.581-14 14.5L70 91c1.748 0 3 2.283 3 4Z"/><path fill="#FF8FFF" id="SCdg" d="M192 99c0-6.766 5.971-8.735 10.5-11l7-5c14.537-7.269 29.547-2.726 43 4 5.313 2.657 11.5 5.058 11.5 12 2.025 0 4.124-9.251 3-11.5l-4-4.5c-4.291 0-7.858-4.179-11.5-6-4.918-2.459-11.594-3-17.5-3l-2.5-1c-5.806 2.903-14.841-1.58-22 2L193 83c0 2.727-2.771 2.042-4 4.5-1.039 2.077 1.588 11.5 3 11.5Z"/><path fill="#09848C" id="VISpl2/3" d="M88 97h1c0-6.294 21.322-17.856 25-10.5 2.067 4.134-5 7.33-5 9.5 4.389 0 8.757 3 11 3 0-2.548 5.8-13 9-13l1-1 1-3 1-1 1-1-11-1c0 3.768-16.491 1.518-17 .5l2-2.5c-4.559 0-11.09-2-13-2h-1L74 95c0 .698 2.714 7 3 7 3.648 0 7.681-5 11-5Z"/><path fill="#FF64FF" id="MB" d="m155 76-1 1 1-1ZM301 76l1 1-1-1Z"/><path fill="#09848C" id="VISpl2/3" d="m369 98 11 4 2-7c0-1.588-16.934-19-19-19-4.142 0-9.405 1-13 1l1 2.5c-.692 1.384-17 2.746-17-.5l-10 1 1 2 2 2v2c3.525 0 9.11 13 10 13 1.863 0 5.792-3 10-3 0-4.432-6.763-4.974-4-10.5 3.008-6.017 25 6.327 25 11.5l1 1Z"/><path fill="#0B858A" id="VISpl4" d="M118 79h4c0 3.768-16.491 1.518-17 .5l2-2.5h1c0 1.16 8.505 2 10 2Z"/><path fill="#FF64FF" id="MB" d="m154 77-1 1 1-1Z"/><path fill="#0B858A" id="VISpl4" d="M334 79h5c1.517 0 9-.726 9-2h2l1 2.5c-.692 1.384-17 2.746-17-.5Z"/><path fill="#C9C8C8" id="bic" d="M147 89c-1.761 0-3.325 6.15-4 7.5-3.791 7.581 1.071 19.859-2 26l-2 3.5c-2.627 0-2-9.736-2-12 0-9.165 3.203-16.905 7-24.5 1.132-2.264 7-10.309 7-9.5v2c-2.109 0-2 2.534-2 4-1.577 0-2 1.762-2 3Z"/><path fill="#FF64FF" id="MB" d="m153 79-1 1 1-1Z"/><path fill="#FF8FFE" id="SCdw" d="m193 105 12.5-14c11.508-5.754 26.037-10.481 39-4l8 6c3.256 1.628 10.5 9.068 10.5 13 1.714 0 1-5.594 1-7 0-6.942-6.187-9.343-11.5-12-13.453-6.726-28.463-11.269-43-4l-7 5c-4.529 2.265-10.5 4.234-10.5 11 0 1.321-.684 6 1 6Z"/><path fill="#C9C8C8" id="bic" d="M305 79c2.941 0 6.01 8.52 7 10.5 7.259 14.519 6 20.357 6 36.5-4.131 0-.571-18.642-2-21.5l-3-11c-2.191-4.382-8-9.409-8-14.5Z"/><path fill="#FF64FF" id="MB" d="m152 80-1 2v-2h1Z"/><path fill="#1BA697" id="RSPd2/3" d="m132 81-1 1 1-1Z"/><path fill="#FF64FF" id="MB" d="M151 82c-2.109 0-2 2.534-2 4l2-4Z"/><path fill="#1BA697" id="RSPd2/3" d="m325 82 2 2-2-2Z"/><path fill="#FE7AFE" id="ICc" d="M180 118c0 5.709-13.067 13.717-18.5 11l-1.5-2c0-9.689-2.436-24.627 2-33.5 1.414-2.828.666-10.5 5-10.5 3.101 0 2.068 8.637 3 10.5 3.494 6.987 10 16.333 10 24.5ZM276 117c0 5.314 12.03 15.235 18.5 12l2.5-2c0-9.736.802-27.896-3-35.5-1.352-2.704-.545-8.5-5-8.5-2.231 0-3.035 12.57-4 14.5-2.707 5.415-9 13.32-9 19.5Z"/><path fill="#0B838C" id="VISpl5" d="m109 96-20 1c0-6.294 21.322-17.856 25-10.5 2.067 4.134-5 7.33-5 9.5Z"/><path fill="#FC8FFF" id="PAG" fill-rule="evenodd" d="M264 141c0 6.133 6.133 0 0 0m-73 0-1 1.5c-1.861 3.722 6.775-1.5 1-1.5m51 19c-3.136 0-6.122 3-10 3l-1-16 1-9c0-2.332 14.027-12.446 10-20.5-1.76-3.52-9.672-14.586-13.5-16.5-1.643-.821-2.567 4.284-4 5-6.042 3.021-13.324 12.852-9.5 20.5 1.396 2.793 10 9.768 10 12.5 0 2.409 1 5.181 1 7 0 4.425-1 9.961-1 15l-1.5 2c-2.36 1.18-8.5-2.172-8.5-4l-1-4c0-3.839 3.829-6.843 2-10.5-3.574-7.148-14 4.113-14 8.5-1.048 0-3-.473-3 1-3.326 0-12-7.467-12-11l-2-4.5c-2.449-4.898 2-12.018 2-16.5 0-6.132 6-10.818 6-17l12.5-14c11.508-5.754 26.037-10.481 39-4l8 6c3.256 1.628 10.5 9.068 10.5 13l7 15v22c-4.514 0-5.777 11-12 11l-3-1c-1.612 0-4.674-8.587-7.5-10-3.1-1.55-9.941.618-7.5 5.5l3 7.5c-1.579 0-1 2.855-1 4Z"/><path fill="#0B838C" id="VISpl5" d="m347 96 21 1c0-5.173-21.992-17.517-25-11.5-2.763 5.526 4 6.068 4 10.5Z"/><path fill="#0A838A" id="VISpl1" d="m130 85-1 1 1-1ZM127 99c0 1.747-.253 2-2 2-1.622 0-5 .461-5-2 0-2.548 5.8-13 9-13 0 4.313-2 8-2 13Z"/><path fill="#FF64FF" id="MB" d="M149 86c-1.577 0-2 1.762-2 3 1.577 0 2-1.762 2-3Z"/><path fill="#0A838A" id="VISpl1" d="M337 99c0 1.995-4.377 2-6 2l-2-2c0-.813 1.428-4.644 1-5.5-1.2-2.4-3-4.588-3-7.5 3.525 0 9.11 13 10 13Z"/><path fill="#09818C" id="VISpor1" d="M394 113c0 2.767 4.975 4 7 4 0-4.032-11.094-27-15-27l-3 5c0 3.792 11 11.335 11 18ZM62 114c0 1.662-4.357 3-6 3 0-5.156 9.205-26 14-26 1.748 0 3 2.283 3 4 0 6.071-10 9.944-10 17v1l-1 1Z"/><path fill="#0A8389" id="VISpor2/3" d="M63 112h1l10-8.5 3-1.5c-.286 0-3-6.302-3-7h-1c0 6.071-10 9.944-10 17ZM393 113h1c0-6.665-11-14.208-11-18h-1l-2 7c0 .375 13 8.703 13 11Z"/><path fill="#72D568" id="PAR" d="M105 108c1.186 0 2 4.29 2 5.5 0 4.875 2 10.338 2 15.5 2.17 0 10.539-19.577 12-22.5l4-5.5c-1.622 0-5 .461-5-2-2.243 0-6.611-3-11-3l-20 1h-1c0 1.557 17 4.978 17 11ZM351 109c-1.186 0-2 4.29-2 5.5l-1 16.5c-1.456 0-10.524-20.548-12-23.5l-5-6.5c1.623 0 6-.005 6-2 1.863 0 5.792-3 10-3l21 1 1 1c-5.132 0-18 5.14-18 11Z"/><path fill="#30B824" id="ENTm2" fill-rule="evenodd" d="m81 105-8 8.5c-5.075 10.15-13.316 45.592.5 52.5 3.294 1.647 6.524-6.548 7.5-8.5v-5c3.925-7.849 2.1-18.2 6-26v-5c1.198-2.397 3.576-8.848 2-12-1.906-3.812-3.763-4.5-8-4.5m-18 8v1l-4 13.5v5c-5.824 11.648-3.376 29.249 2 40 2.155 4.309 4.831 10.165 9.5 12.5 7.761 3.881 12.239-5.977 14.5-10.5 7.013-14.026 3.98-32.958 11-47 1.47-2.938 9-17.264 9-19.5 0-6.022-17-9.443-17-11-3.319 0-7.352 5-11 5l-3 1.5-10 8.5-1 1ZM370 105l-3 5.5 3 16.5c0 4.847 3 10.687 3 15 0 9.729 6.818 34.864 16 16.5 6.18-12.36-2.569-38.137-8-49-1.877-3.754-7.3-4.5-11-4.5m-19 4c2.561 0 6.848 14.196 8 16.5 6.888 13.775 5.146 31.291 12 45 2.07 4.14 1.119 10.809 6.5 13.5 15.571 7.785 27.924-29.651 22.5-40.5-.858-1.715-7-28.919-7-30.5 0-2.297-13-10.625-13-11l-11-4c-5.132 0-18 5.14-18 11Z"/><path fill="#A9A9A8" id="AQ" d="M232 138c-2.538 0-3.953 1-7 1 0-2.732-8.604-9.707-10-12.5-3.824-7.648 3.458-17.479 9.5-20.5 1.433-.716 2.357-5.821 4-5 3.828 1.914 11.74 12.98 13.5 16.5 4.027 8.054-10 18.168-10 20.5Z"/><path fill="#31B723" id="ENTm3" d="m81 105-8 8.5c-5.075 10.15-13.316 45.592.5 52.5 3.294 1.647 6.524-6.548 7.5-8.5v-5c3.925-7.849 2.1-18.2 6-26v-5c1.198-2.397 3.576-8.848 2-12-1.906-3.812-3.763-4.5-8-4.5ZM370 105l-3 5.5 3 16.5c0 4.847 3 10.687 3 15 0 9.729 6.818 34.864 16 16.5 6.18-12.36-2.569-38.137-8-49-1.877-3.754-7.3-4.5-11-4.5Z"/><path fill="#31B625" id="ENTm1" d="m109 129-1 2-7 16.5c-6.848 13.696-6.647 42.074-21.5 49.5-10.857 5.429-25.165-19.831-28.5-26.5-8.249-16.498 4-36.602 4-52.5l1-1c1.643 0 6-1.338 6-3h1l-4 13.5v5c-5.824 11.648-3.376 29.249 2 40 2.155 4.309 4.831 10.165 9.5 12.5 7.761 3.881 12.239-5.977 14.5-10.5 7.013-14.026 3.98-32.958 11-47 1.47-2.938 9-17.264 9-19.5 1.186 0 2 4.29 2 5.5 0 4.875 2 10.338 2 15.5ZM401 117c0 4.377 2.078 11.655 4 15.5 2.708 5.415 2.796 33.407 0 39-2.276 4.552-5.784 8.568-8 13-1.53 3.06-4.609 7.054-7.5 8.5-26.993 13.497-22.826-20.152-30.5-35.5L348 131l1-16.5c0-1.21.814-5.5 2-5.5 2.561 0 6.848 14.196 8 16.5 6.888 13.775 5.146 31.291 12 45 2.07 4.14 1.119 10.809 6.5 13.5 15.571 7.785 27.924-29.651 22.5-40.5-.858-1.715-7-28.919-7-30.5h1c0 2.767 4.975 4 7 4ZM64 112l-1 1v-1h1Z"/><path fill="#0A8389" id="VISpor2/3" d="M62 114h1v-1l-1 1Z"/><path fill="#09818C" id="VISpor1" d="m56 117-1 1 1-1Z"/><path fill="#FC90FF" id="CUN" d="m187 143-3.5 4c-1.145.573-20.763 2.618-22 2l-2.5-2c0-3.999-5.349-4.803-3-9.5l11-5.5c6.34 0 12.066-9.783 16.5-12l3.5 2c0 4.482-4.449 11.602-2 16.5l2 4.5ZM270 143c0 4.056 21.342 7.579 24.5 6l2.5-2c1.501 0 4.991-6.518 4-8.5-1.642-3.285-11-3.453-11-6.5-7.739 0-12.666-11-20-11v22Z"/><path fill="#C9C9CB" id="ll" d="M156 157c-1.199 0-6 7.844-6 9-3.14 0-3-8.018-3-11 0-7.709-6-12.824-6-21l-1-1v-2c1.543 0 2.231-4.634 5.5-3 5.69 2.845 14.851 4 21.5 4l-11 5.5c-2.349 4.697 3 5.501 3 9.5l-2 7v1l-1 1v1ZM300 156c1.673 0 6 8.485 6 10 4.576 0 3-7.668 3-11l1-1v-1c0-6.78 5-10.673 5-18l1-1v-1c0-1.812.469-4.015-1.5-5-1.435-.717-20.52 4-24.5 4 0 3.047 9.358 3.215 11 6.5.991 1.982-2.499 8.5-4 8.5l3 8v1Z"/><path fill="#72D568" id="PAR" d="m109 129-1 2 1-2Z"/><path fill="#FF64FF" id="MB" d="m140 133 1 1-1-1ZM316 134l-1 1 1-1ZM226 146c2.413 0 3.51 1 5 1l1-9c-2.538 0-3.953 1-7 1 0 2.409 1 5.181 1 7Z"/><path fill="#FDFB8F" id="SIM" d="m129 147-11 18c-14.961 0 11-42.441 11-18ZM327 147c1.08 0 11 16.048 11 18 16.037 0-11-42.215-11-18Z"/><path fill="#C8C9C8" id="IVn" d="m191 141-1 1.5c-1.861 3.722 6.775-1.5 1-1.5ZM264 141c0 6.133 6.133 0 0 0Z"/><path fill="#FEC395" id="LDT" d="M202 153c0 11.859 9.862 2 12 2 0-3.839 3.829-6.843 2-10.5-3.574-7.148-14 4.113-14 8.5ZM255 153c-1.612 0-4.674-8.587-7.5-10-3.1-1.55-9.941.618-7.5 5.5l3 7.5c2.96 0 12 6.554 12-3Z"/><path fill="#FF64FF" id="MB" d="M191 160h1c0-5.934.539-4 5-4l2 1v-3c-3.326 0-12-7.467-12-11l-3.5 4c-1.145.573-20.763 2.618-22 2l-2.5-2-2 7 8-3h2c0-1.566 5-1.566 5 0h1c2.538 0 6 2.152 6 5 2.116 0 6-1.399 6 3 1.084 0 6-6.719 6 1ZM271 159l-2.5-3c-2.531 0-2.014 4-3.5 4v-1c0-5.426-1.216-3-5-3l-1 1h-1v-3c6.223 0 7.486-11 12-11 0 4.056 21.342 7.579 24.5 6l2.5-2 3 8-9-4h-2c0-1.535-4-1.535-4 0h-2c-1.668 0-6 3.099-6 5-5.173 0-4.803 3-6 3Z"/><path fill="#FDA6FF" id="DR" d="M225 161c0 3.62.316 21.908 2.5 23 4.126 2.063 4.5-18.365 4.5-21l-1-16c-1.49 0-2.587-1-5-1 0 4.425-1 9.961-1 15Z"/><path fill="#FCFB90" id="CUL4, 5" d="m118 165 1 9.5 4 3.5c3.92 0 9.378 5.061 13.5 3 3.604-1.802 11.989-20.522 9.5-25.5l-3-5.5-1-1-1-1h-1c-1.145 0-4 .579-4-1h-7l-11 18Z"/><path fill="#F0F080" id="CB" d="M136 147c1.145 0 4-.579 4 1-1.145 0-4 .579-4-1ZM320 147c-1.145 0-4-.579-4 1 1.145 0 4 .579 4-1Z"/><path fill="#FCFB90" id="CUL4, 5" d="m334 177-1 1c-3.55 0-8.737 4.881-12.5 3-9.192-4.596-9.5-18.349-9.5-28l2-2v-1l1-1 2-1c1.145 0 4 .579 4-1h7c1.08 0 11 16.048 11 18 0 2.941.386 12-4 12Z"/><path fill="#F0F080" id="CB" d="m141 148 1 1-1-1ZM314 149l-1 1 1-1ZM142 183l-3 2c-5.404 0-10.123-4-16-4v-3c3.92 0 9.378 5.061 13.5 3 3.604-1.802 11.989-20.522 9.5-25.5l-3-5.5 4 5c0 2.982-.14 11 3 11l1 2v1c-3.948 0-9 10.359-9 14Z"/><path fill="#FF9B88" id="P" d="M167 151h5c0-1.566-5-1.566-5 0ZM285 151h4c0-1.535-4-1.535-4 0ZM156 157c0 3.79-3 5.91-3 10l6-9.5 6-6.5-8 3v1l-1 1v1Z"/><path fill="#FFAD6D" id="PB" d="M155 190h1l21-3c0-3.11 3-6.535 3-10l-1-4h-2l-3 1-1 1-9.5 4c-.745-.373 5.24-6 6.5-6l1-1c0-2.121 3.623-10 6-10v-2c0-4.341-4-8.657-4-9h-8l-6 6.5-6 9.5-2 4-1 2-1 1v1l-1 2-1 1-2 5v1c1.448 0 10 4.583 10 6Z"/><path fill="#FF9B88" id="P" d="m179 156-2 4c0-4.341-4-8.657-4-9 2.538 0 6 2.152 6 5ZM277 156c0 1.238.423 3 2 3 0-3.715 4-5.378 4-8-1.668 0-6 3.099-6 5Z"/><path fill="#FFAD6D" id="PB" d="m279 187 22 3c3.448 0 6.349-6 10-6v-2l-1-3-1-1v-1l-1-1v-1l-1-1c-1.959 0-6.064-10.629-7-12.5l-9-10.5h-8c0 2.622-4 4.285-4 8v2c1.656 0 7 9.233 7 11 0 .116 11.044 9.772 5.5 7l-1.5-1-1-1-3-1-1-1-6-2h-2v2l-1 1v1l3 10Z"/><path fill="#FF9B88" id="P" d="m305 169 2 5c-1.959 0-6.064-10.629-7-12.5l-9-10.5 9 4v1c0 1.799 3.248 11 5 11v2Z"/><path fill="#F0F080" id="CB" d="M313 151c-1.747 0-2 .253-2 2l2-2Z"/><path fill="#FF9B88" id="P" d="m215 159-8 4c-4.27 0-4.772-6-8-6v-3c0-1.473 1.952-1 3-1 0 11.859 9.862 2 12 2l1 4ZM242 160l7 3c3.882 0 5.862-6 9-6v-3l-3-1c0 9.554-9.04 3-12 3-1.579 0-1 2.855-1 4Z"/><path fill="#F0F080" id="CB" d="M334 182c-7.024 0-11.556 3-17 3l-3-3c0-4.037-4.521-13-9-13v-2l1-1c4.576 0 3-7.668 3-11l1-1v-1h1c0 9.651.308 23.404 9.5 28 3.763 1.881 8.95-3 12.5-3l1 4Z"/><path fill="#FF64FF" id="MB" d="m157 155-1 1 1-1Z"/><path fill="#FFA5FD" id="PPN" d="M177 162v6c3.6 0 8-5.637 8-9 0-4.399-3.884-3-6-3l-2 4v2Z"/><path fill="#CBC9CB" id="scp" d="m174 174-1 1-9.5 4c-.745-.373 5.24-6 6.5-6l1-1 6-4c3.6 0 8-5.637 8-9 1.084 0 6-6.719 6 1 0 5.524 2.096 0 1 0 0-5.934.539-4 5-4 0 3.467 8.007 5.487 6 9.5-2.549 5.098-13-3.91-13 .5-1.764 0-11 3.789-11 6l-2 1-3 1ZM289 177l1 1 1.5 1c5.544 2.772-5.5-6.884-5.5-7l-7-4c-3.093 0-8-6.131-8-9l-2.5-3c-2.531 0-2.014 4-3.5 4 0 6.359-2.322-1 0-1 0-5.426-1.216-3-5-3l-1 1c0 2.502-7.454 5.593-6 8.5 1.974 3.949 13-2.001 13 .5 2.137 0 12 3.903 12 6l1 1 6 2 1 1 3 1Z"/><path fill="#FFA5FD" id="PPN" d="M279 161v7c-3.093 0-8-6.131-8-9 1.197 0 .827-3 6-3 0 1.238.423 3 2 3v2Z"/><path fill="#FF8FFD" id="MRN" fill-rule="evenodd" d="m214 173-2 5.5c3.772 7.545 13.509-5.5 2-5.5m5 15h2l1-4-2-7c0-9.457-13-13.305-13-14-4.27 0-4.772-6-8-6l-2-1c0 3.467 8.007 5.487 6 9.5-2.549 5.098-13-3.91-13 .5 6.731 0 9.534 15-3 15 0 5.424 26.592 7 32 7Z"/><path fill="#FF8FFD" id="MRN" d="m260 156-1 1 1-1Z"/><path fill="#FF64FF" id="MB" d="m306 166-1 1c-1.752 0-5-9.201-5-11 1.673 0 6 8.485 6 10ZM153 167l-2 1-1-2c0-1.156 4.801-9 6-9 0 3.79-3 5.91-3 10Z"/><path fill="#FF8FFD" id="MRN" d="M235 188h3c5.89 0 31-1.459 31-7-11.591 0-9.347-15-3-15 0-2.501-11.026 3.449-13-.5-1.454-2.907 6-5.998 6-8.5h-1c-3.138 0-5.118 6-9 6 0 3.221-12 3.974-12 10 16.637 0 0 17.329 0 1l-1 2c0 1.775-.069 8-2 8l1 4Z"/><path fill="#FF64FF" id="MB" d="M232 188h3l-1-4c-.402 0-5.193-8 2-8l1-2v-1c0-6.026 12-6.779 12-10l-7-3c-3.136 0-6.122 3-10 3 0 2.635-.374 23.063-4.5 21-2.184-1.092-2.5-19.38-2.5-23l-1.5 2c-2.36 1.18-8.5-2.172-8.5-4l-8 4c0 .695 13 4.543 13 14l2.5-2c2.113 1.057 2.177 9-.5 9l-1 4h6l1 1 4-1Z"/><path fill="#FF8FFD" id="MRN" d="M265 159c-2.322 0 0 7.359 0 1v-1ZM191 160h1c1.096 0-1 5.524-1 0Z"/><path fill="#FF9B88" id="P" d="m279 168 7 4c0-1.767-5.344-11-7-11v7ZM177 168l-6 4c0-2.121 3.623-10 6-10v6Z"/><path fill="#FFA5FD" id="PPN" d="M180 177c1.536 0 3.454 4 7 4 12.534 0 9.731-15 3-15-1.764 0-11 3.789-11 6v1l1 4ZM276 177c-1.536 0-3.454 4-7 4-11.591 0-9.347-15-3-15 2.137 0 12 3.903 12 6l-1 1v2l-1 1v1Z"/><path fill="#FF9B88" id="P" d="M151 169v2l2-4-2 1v1Z"/><path fill="#CBC7CC" id="sctv" d="M142 183h3l2-5 1-1 1-2v-1l1-1 1-2v-2c-3.948 0-9 10.359-9 14ZM311 182c.716 0 3 2.373 3 0 0-4.037-4.521-13-9-13l2 5 1 1v1l1 1v1l1 1 1 3Z"/><path fill="#FF9B88" id="P" d="m151 171-1 2 1-2ZM171 172l-1 1 1-1ZM177 173h2v-1l-2 1ZM277 173h2l-1-1-1 1ZM150 173l-1 1 1-1Z"/><path fill="#FC90FE" id="VTN" d="m214 173-2 5.5c3.772 7.545 13.509-5.5 2-5.5ZM237 173c16.637 0 0 17.329 0 1v-1Z"/><path fill="#FF9B88" id="P" d="m174 174-1 1 1-1Z"/><path fill="#CBC9CC" id="arb" d="m307 174 1 1-1-1ZM149 175l-1 2 1-2Z"/><path fill="#CBCBCC" id="mlf" d="m220 177 2.5-2c2.113 1.057 2.177 9-.5 9l-2-7ZM236 176c-7.193 0-2.402 8-2 8 1.931 0 2-6.225 2-8Z"/><path fill="#FF9B88" id="P" d="m277 175-1 1 1-1ZM285 175l1 1-1-1Z"/><path fill="#CBC9CC" id="arb" d="m308 176 1 1-1-1Z"/><path fill="#FF9B88" id="P" d="m148 177-1 1 1-1ZM215 199l2 4v-12.5l2-2.5c-5.408 0-32-1.576-32-7-3.546 0-5.464-4-7-4 0 3.465-3 6.89-3 10 0 2.391 6 1.559 6 6l2.5-3 6-2c2.894-1.447 23.5 7.455 23.5 11ZM241 200l-1 1c0-4.669-2-9.322-2-13 5.89 0 31-1.459 31-7 3.546 0 5.464-4 7-4l3 10-5 3.5c-.604 1.208-.265 7.5 1 7.5l-2 1v-1c0-19.134-31-4.262-31 1l-1 1ZM289 177l1 1-1-1Z"/><path fill="#F0F080" id="CB" d="m334 177-1 1 1-1Z"/><path fill="#FF9B88" id="P" d="m309 178 1 1-1-1Z"/><path fill="#FEF991" id="FL" d="M113 221c-1.238 0-3 .423-3 2-11.063 0-8.604-32.292-5-39.5.763-1.527 7.983-5.759 10.5-4.5l3.5 3c0 6.68 2.215 12.93 5 18.5l-2 9.5-4 5-1 1-1 1-1 2-1 1-1 1ZM341 218l6 5c9.247 0 4.191-10.883 7-16.5 1.958-3.915.1-17.799-2-22-1.217-2.435-5.369-4.434-7.5-5.5-2.939-1.47-4.216 2-5.5 2l-1 1c0 5.628-2.615 11.729-5 16.5-1.796 3.593 2 11.124 2 11.5l5 7 1 1Z"/><path fill="#CCCCCA" id="mcp" d="m139 191-12 16c-2.143 0-2-4.797-2-6.5 0-7.33-3-11.372-3-18.5l1-1c5.877 0 10.596 4 16 4v6ZM317 185c0 9.508 12 16.433 12 22 2.867 0 2-5.149 2-7 0-6.932 4-8.839 4-18h-1c-7.024 0-11.556 3-17 3Z"/><path fill="#F0F080" id="CB" d="m339 181-1 1 1-1ZM125 212l2 2v-7c-2.143 0-2-4.797-2-6.5 0-7.33-3-11.372-3-18.5h-3c0 6.68 2.215 12.93 5 18.5l-2 9.5c1.238 0 3 .423 3 2Z"/><path fill="#FF9B88" id="P" d="M329 216c-3.559 0-9.353 12-10 12 0-5.754 8.682-14.137 6-19.5-1.758-3.517-8-8.729-8-11.5 0-4.255-.247-13-6-13v-2c.716 0 3 2.373 3 0l3 3c0 9.508 12 16.433 12 22v9Z"/><path fill="#F0F080" id="CB" d="m331 213-2 2v-8c2.867 0 2-5.149 2-7 0-6.932 4-8.839 4-18h3c0 5.628-2.615 11.729-5 16.5-1.796 3.593 2 11.124 2 11.5-2.343 0-4 .285-4 3Z"/><path fill="#FF9B88" id="P" d="M139 185v6c1.985 0 2.696-7 6-7v-1h-3l-3 2Z"/><path fill="#FEAD6E" id="KF" d="m151 198-3 1c0-4.955-6.322-2-8-2-1.684 0-1-4.679-1-6 1.985 0 2.696-7 6-7 1.448 0 10 4.583 10 6v1c0 2.364-3 3.053-3 5l-1 1v1ZM317 197l-6.5-1-2.5 3-3-2c0-2.367-4-4.032-4-7 3.448 0 6.349-6 10-6 5.753 0 6 8.745 6 13Z"/><path fill="#FEBA86" id="SUT" d="M153 203h1l5.5-5c3.904-1.952 5.969 1 9.5 1 0-8.898 9.954-1 13-1l1-1v-4c0-4.441-6-3.609-6-6l-21 3-1 1c0 2.364-3 3.053-3 5l-1 1v1l1 5h1ZM303 203h1c0-1.564 1-3.876 1-6 0-2.367-4-4.032-4-7l-22-3-5 3.5c-.604 1.208-.265 7.5 1 7.5 1.362 0 13-8.468 13 1 4.346 0 5.837-2.832 11.5 0l2.5 4h1Z"/><path fill="#FFC295" id="PRNr" d="M183 198c5.328 0 16.991-3.755 22.5-1 2.719 1.359 6.26 2 9.5 2 0-3.545-20.606-12.447-23.5-11l-6 2-2.5 3v5Z"/><path fill="#FFC393" id="CS" d="M219 215c3.784 0 8 7.953 8 0-3.648 0-7.591-16.318-6-19.5.611-1.222 3-6.481 3-7.5h-5l-2 2.5V203c0 4.549 2 8.157 2 12Z"/><path fill="#FFC294" id="RPO" d="M227 215c2.427 0 .139-9.778 1-11.5.278-.557 1 9.312 1 11.5 5.698 0 8.448-17.603 6-22.5-.535-1.07-3-4.098-3-4.5l-4 1-1-1h-3c0 1.019-2.389 6.278-3 7.5-1.591 3.182 2.352 19.5 6 19.5Z"/><path fill="#FF9B88" id="P" d="m227 188 1 1-1-1Z"/><path fill="#FFC393" id="CS" d="M238 214c-2.864 0-9 9.877-9 1 5.698 0 8.448-17.603 6-22.5-.535-1.07-3-4.098-3-4.5h6c0 3.678 2 8.331 2 13l-2 13Z"/><path fill="#FFC295" id="PRNr" d="M273 198c-5.328 0-16.991-3.755-22.5-1-2.614 1.307-5.334 2-8.5 2 0-5.262 31-20.134 31-1Z"/><path fill="#FF9B88" id="P" d="m156 190-1 1v-1h1ZM128 216c6.888 0 9 16.736 9 22 0 1.775.069 8 2 8 0-6.544 1.017-16.465-2-22.5-1.889-3.777-7.621-10.757-5-16 1.15-2.301 8-8.278 8-10.5-1.684 0-1-4.679-1-6l-12 16v8l1 1Z"/><path fill="#FEB886" id="P5" d="M173 226c0 6.04.697 5-5 5l3-9.5c3.175-6.351-2-16.948-2-22.5 0-8.898 9.954-1 13-1l1 1v22h-4c0-1.156-2.555-1.472-3.5-1-2.571 1.286-2.5 3.583-2.5 6ZM283 226c0 6.57-.191 5 6 5l-4-11.5c-3.325-6.649 3-15.272 3-20.5 0-9.468-11.638-1-13-1l-2 1-1 15.5c.805 1.61 2 5.802 2 7.5h3c0-4.944 6-1.102 6 4Z"/><path fill="#FFAE6F" id="PSV" d="M148 254h1c6.69 0 11.377-7.746 8-14.5-3.931-7.861-9-31.241-9-40.5 0-4.955-6.322-2-8-2 0 2.222-6.85 8.199-8 10.5-2.621 5.243 3.111 12.223 5 16 3.017 6.035 2 15.956 2 22.5v1l3 3c1.947 0 2.636 3 5 3l1 1Z"/><path fill="#FF9B88" id="P" d="m152 196-1 1 1-1Z"/><path fill="#FFAE6F" id="PSV" d="m312 252-5 2c-5.892 0-11.234-7.032-8-13.5 5.042-10.084 9-29.546 9-41.5l2.5-3 6.5 1c0 2.771 6.242 7.983 8 11.5 2.682 5.363-6 13.746-6 19.5-1.804 0-1 14.759-1 17l-1 2-1 1-1 1-1 1-1 1-1 1Z"/><path fill="#FEB986" id="V" d="M165 231h3l3-9.5c3.175-6.351-2-16.948-2-22.5-3.531 0-5.596-2.952-9.5-1l-5.5 5v1l-1 7 1 2c5.048 0 3.001 18 11 18Z"/><path fill="#FF9B88" id="P" d="M183 198v1l-1-1 1-1v1Z"/><path fill="#FDBA86" id="PRNc" fill-rule="evenodd" d="M181 247c0 2.378-.029 3.559-1 5.5-.597 1.194 1.229 4.5 2.5 4.5 2.625 0 2.315-10-1.5-10m14 23h2c0-1.281-1.813-3.843.5-5 5.304-2.652 16.392 0 21.5 0l1-1 2-1 1-1c0-2.947 3.986-7.527 2-11.5l-4-4c-3.691-7.382-4-16.585-4-25.5l-2.5 1c-1.23-.615-4.94-12.03-3-13l6.5 6h1c0-3.843-2-7.451-2-12l-2-4c-3.24 0-6.781-.641-9.5-2-5.509-2.755-17.172 1-22.5 1v23c0 4.735-3.901 12.303-6 16.5-3.026 6.051-1 15.375-1 21.5l4 4 1 1c1.893 0 14 4.856 14 6ZM273 247l-1 4v3c0 8.607 9.202-7 1-7m-12 22h1c5.107 0 8.046-5 13-5h1l1-1 3-3 1-1c0-7.191 1-16.499-2-22.5l-5-14.5c0-1.698-1.195-5.89-2-7.5l1-15.5v-1c-5.328 0-16.991-3.755-22.5-1-2.614 1.307-5.334 2-8.5 2l-1 1-1 1-2 13 1 1c0-2.61 5.293-7.914 7-4.5l-4.5 12.5-2.5-2c0 5.878-.918 30-8 30v7l4 5 2 1 1 1c3.882 0 23-2.89 23 4Z"/><path fill="#FEB986" id="V" d="m289 231 2 1c9.16 0 4.655-19 12-19v-9l-1-1-2.5-4c-5.663-2.832-7.154 0-11.5 0 0 5.228-6.325 13.851-3 20.5l4 11.5Z"/><path fill="#FF9B88" id="P" d="M294 281c0-3.177-4.483 3.491-5.5 4-4.633 2.316-10.397 2-16 2-1.278 0-5.5.665-5.5-1 6.063 0 24 1.907 24-7 0-1.759 4-7.222 4-13 2.101 0-.122 7.311 2.5 6 6.888-3.444-.819-12.138-2.5-15.5l-.5-4.5c-3.493-1.746-2.356 1-4.5 1 0-2.113-.141-2.782-1-4.5v-6c-2.391-4.783-2.167 16.5-8 16.5 0-7.191 1-16.499-2-22.5l-5-14.5h3c0 5.037 3.015 4 6 4 0 6.57-.191 5 6 5l2 1c0 23.189 12-11.05 12-19v-3c3.153 0 4.512-7 1-7 0-1.564 1-3.876 1-6l3 2c0 11.954-3.958 31.416-9 41.5-3.234 6.468 2.108 13.5 8 13.5 0 2.394-9.077 2.346-7 6.5 1.537 3.074 21-.542 21-4.5l1-1 1-1 1-1 2.5-2 3.5 5c0 5.633-10.521 6.011-14.5 8L304 275l1-3.5h-4l-7 9.5ZM165 285l6 3c-14.879 0-20.649-19.075-30.5-24-2.844-1.422-14.5-3.058-14.5-8 2.273 0 2.311-5 3.5-5l5.5 5 3.5 3c2.394 1.197 21.547 6.594 17.5-1.5l-7-3.5c6.69 0 11.377-7.746 8-14.5-3.931-7.861-9-31.241-9-40.5l3-1 1 5c-1.657 0-1.894 8 1 8l1 2c0 9.292 11 40.645 11 18h3c5.697 0 5 1.04 5-5 4.6 0 6 .039 6-5h4c0 4.735-3.901 12.303-6 16.5-3.026 6.051-1 15.375-1 21.5-7.789 0-4.839-16.17-6.5-17-3.98-1.99-1.353 11-3.5 11 0-2.567-2.841-2.818-4-.5l-1 6c-1.691 3.382-10.941 12.5 0 12.5 0 1.846 2.551 8 5 8 0 8.819 17.317 7 24 7 0 1.665-4.222 1-5.5 1-5.72 0-12.258.371-17-2-1.97-.985-4.5-8.411-4.5-4-3.721 0-6.041-12.23-10.5-10-2.609 1.305 9.15 14 12.5 14Z"/><path fill="#FFC295" id="PRNr" d="m242 199-1 1 1-1Z"/><path fill="#FEB984" id="I5" d="m154 204-1 7c-2.894 0-2.657-8-1-8h1l1 1Z"/><path fill="#FF9B88" id="P" d="M154 203v1l-1-1h1ZM226 262l-1 1-2-1c0-2.947 3.986-7.527 2-11.5l-4-4c-3.691-7.382-4-16.585-4-25.5l1-6h1c3.784 0 8 7.953 8 0 2.427 0 .139-9.778 1-11.5.278-.557 1 9.312 1 11.5 0 8.877 6.136-1 9-1l1 1v6c0 5.878-.918 30-8 30 0-2.119-2.386-10.727-5-5.5V262ZM303 203v1l-1-1h1Z"/><path fill="#FEB984" id="I5" d="M303 204v6c3.153 0 4.512-7 1-7h-1v1Z"/><path fill="#C8C8CC" id="tspc" d="m218 215-6.5-6c-1.94.97 1.77 12.385 3 13l2.5-1 1-6ZM239 215v6l2.5 2 4.5-12.5c-1.707-3.414-7 1.89-7 4.5Z"/><path fill="#FEA4D2" id="VCO" d="m117 245-1 2-3-3.5c-5.475-10.949-3-5.357-3-17.5l1-1v-1l1-1 1-1v-1l1-1 1-1 1-2 1-1 1-1 4-5c1.238 0 3 .423 3 2 0 9.413-6 18.62-6 28 0 1.624-2 2.75-2 5ZM339 245l2 1 2-2.5 4-4c1.82-3.641-1-10.246-1-13.5l-1-1v-1l-4-5v-1l-1-1-5-7c-2.343 0-4 .285-4 3l4 12.5 1 11 2 3.5 1 5Z"/><path fill="#FF9BCD" id="MY" d="M126 256c2.273 0 2.311-5 3.5-5l5.5 5-4-6.5c-3.01-6.021-2.812-16.624-6-23-.847-1.695.85-9.5 2-9.5v-3l-2-2c0 9.413-6 18.62-6 28 4.899 0 8.588 7.456 3.5 10-3.177 1.588-3.426-5-5.5-5l-1 2 10 9Z"/><path fill="#FDB986" id="PC5" d="M154 213c5.048 0 3.001 18 11 18 0 22.645-11-8.708-11-18ZM303 213c-7.345 0-2.84 19-12 19 0 23.189 12-11.05 12-19Z"/><path fill="#FF9BCD" id="MY" d="m324 253 2.5-2 3.5 5c2.026 0 11-8.172 11-10l-2-1c0 2.938-6.005 7.491-8 3.5-1.812-3.624 3.999-8.5 7-8.5l-2-3.5-1-11-4-12.5-2 2v1c0 2.995 4.094 8.312 2 12.5l-7 24.5ZM118 215l-1 1 1-1Z"/><path fill="#F0F080" id="CB" d="m128 216-1 1v-2l1 1Z"/><path fill="#C8CACA" id="sptV" d="m149 254 7 3.5c4.047 8.094-15.106 2.697-17.5 1.5l-3.5-3-4-6.5c-3.01-6.021-2.812-16.624-6-23-.847-1.695.85-9.5 2-9.5l1-1c6.888 0 9 16.736 9 22 0 1.775.069 8 2 8v1l3 3c1.947 0 2.636 3 5 3l1 1h1ZM322 255l-1 1c0 3.958-19.463 7.574-21 4.5-2.077-4.154 7-4.106 7-6.5l5-2 1-1 1-1 1-1 1-1 1-1 1-2c1.804 0 1-14.759 1-17 .647 0 6.441-12 10-12 0 2.995 4.094 8.312 2 12.5l-7 24.5-1 1-1 1Z"/><path fill="#FF9BCD" id="MY" d="m116 217-1 2 1-2ZM340 217l1 1-1-1Z"/><path fill="#F0F080" id="CB" d="M345 225h1l1-2-6-5v1c1.533 0 4 3.753 4 5v1Z"/><path fill="#FF9BCD" id="MY" d="m115 219-1 1 1-1ZM341 219c1.533 0 4 3.753 4 5l-4-5ZM114 220l-1 1 1-1Z"/><path fill="#FDBA85" id="Acs5" d="M179 221c0 5.039-1.4 5-6 5 0-2.417-.071-4.714 2.5-6 .945-.472 3.5-.156 3.5 1ZM277 222c0 5.037 3.015 4 6 4 0-5.102-6-8.944-6-4Z"/><path fill="#F0F080" id="CB" d="M110 225h1v-1l1-1 1-1v-1c-1.238 0-3 .423-3 2v2Z"/><path fill="#FF9BCD" id="MY" d="m113 222-1 1 1-1ZM112 223l-1 1 1-1ZM111 225l-1 1v-1h1ZM346 225v1l-1-1h1Z"/><path fill="#FF9B88" id="P" d="M319 228c-1.804 0-1 14.759-1 17 1.804 0 1-14.759 1-17Z"/><path fill="#C9CACB" id="vVIIIn" d="M119 240c4.899 0 8.588 7.456 3.5 10-3.177 1.588-3.426-5-5.5-5 0-2.25 2-3.376 2-5ZM338 240c-3.001 0-8.812 4.876-7 8.5 1.995 3.991 8-.562 8-3.5l-1-5Z"/><path fill="#FEAE6E" id="SOCl" d="m180 276-4.5 4-9.5-1c-2.449 0-5-6.154-5-8 0-8.549 5-12.543 5-18 2.147 0-.48-12.99 3.5-11 1.661.83-1.289 17 6.5 17l4 4 1 1-1 12ZM276 275l5.5 5 9.5-1c0-1.759 4-7.222 4-13 0-4.254-4-7.157-4-11l-1-1v-1c0-2.113-.141-2.782-1-4.5v-6c-2.391-4.783-2.167 16.5-8 16.5l-1 1-3 3-1 1-1 1 1 10Z"/><path fill="#FFC5E2" id="RM" d="M226 270c1.046 0 1.122 1 4 1v-7c0-1.048-.473-3 1-3v-10c0-2.119-2.386-10.727-5-5.5V270Z"/><path fill="#FF9B88" id="P" d="m318 245-1 2 1-2ZM139 247l3 3-3-3Z"/><path fill="#C9C9CB" id="ll" d="M181 247c0 2.378-.029 3.559-1 5.5-.597 1.194 1.229 4.5 2.5 4.5 2.625 0 2.315-10-1.5-10ZM273 247l-1 4v3c0 8.607 9.202-7 1-7Z"/><path fill="#FF9B88" id="P" d="m317 247-1 1 1-1ZM316 248l-1 1 1-1ZM315 249l-1 1 1-1ZM314 250l-1 1 1-1Z"/><path fill="#C8C8CB" id="rust" d="M166 253c0 5.457-5 9.451-5 18-10.941 0-1.691-9.118 0-12.5l1-6c1.159-2.318 4-2.067 4 .5ZM291 255c0 3.843 4 6.746 4 11 2.101 0-.122 7.311 2.5 6 6.888-3.444-.819-12.138-2.5-15.5l-.5-4.5c-3.493-1.746-2.356 1-4.5 1v1l1 1Z"/><path fill="#FF9B88" id="P" d="m313 251-1 1 1-1ZM147 253l1 1-1-1Z"/><path fill="#FF9BCD" id="MY" d="m324 253-1 1 1-1Z"/><path fill="#FF9B88" id="P" d="m290 254 1 1-1-1Z"/><path fill="#FF9BCD" id="MY" d="m323 254-1 1 1-1ZM322 255l-1 1 1-1Z"/><path fill="#FF9B88" id="P" d="M231 263h4l-4-5v5ZM281 259l-1 1 1-1Z"/><path fill="#FF9BCD" id="MY" d="m231 263-1 1c0-1.048-.473-3 1-3v2Z"/><path fill="#FF9B88" id="P" d="m223 262-1 1 1-1Z"/><path fill="#CACCC8" id="ml" d="M219 265c0 3.03-3.722 7.056-2 10.5 1.002 2.005 9-1.162 9-5.5v-7h-1l-2-1-1 1-2 1-1 1Z"/><path fill="#FF9BCD" id="MY" d="M225 263h1v-1l-1 1Z"/><path fill="#CACCC8" id="ml" d="M237 265c0 1.949 4.065 7.37 3 9.5-1.571 3.141-10 .101-10-3.5v-7l1-1h4l2 1v1Z"/><path fill="#FF9B88" id="P" d="m180 263 1 1-1-1ZM277 263l-1 1 1-1Z"/><path fill="#FFAD6E" id="SOCm" d="m195 279-1 1c-1.423 0-3.544 1.978-5.5 1l-8.5-5 1-12c1.893 0 14 4.856 14 6l1 3v2l-1 2v2Z"/><path fill="#CCC7CB" id="tb" d="M235 287h2l-4-4.5c0-5.206 10.521-3.5 14-3.5v-2l-4-5.5c.741-1.482 12.62-.5 15-.5h1l1-1 1-1c0-6.89-19.118-4-23-4h-1c0 1.949 4.065 7.37 3 9.5-1.571 3.141-10 .101-10-3.5-2.878 0-2.954-1-4-1 0 4.338-7.998 7.505-9 5.5-1.722-3.444 2-7.47 2-10.5-5.108 0-16.196-2.652-21.5 0-2.313 1.157-.5 3.719-.5 5v1h1c2.245 0 17.247-1.995 15 2.5l-4 3.5v2c2.47 0 16.903-1.306 14 4.5l-4 3.5h2l7.5-3 6.5 3Z"/><path fill="#FF9B88" id="P" d="m220 264-1 1 1-1ZM237 265h1l-1-1v1Z"/><path fill="#FFAD6E" id="SOCm" d="m261 278 1 2c3.311 0 14 .911 14-5l-1-10v-1c-4.954 0-7.893 5-13 5l-1 1v8Z"/><path fill="#FF9B88" id="P" d="m276 264-1 1v-1h1Z"/><path fill="#FDBA86" id="PRNc" d="M260 270h1v-1l-1 1Z"/><path fill="#FF9B88" id="P" d="m262 269-1 1v-1h1ZM197 272l-1 1-1-3h2v2Z"/><path fill="#FEA3D2" id="NTB" d="M196 277c0 9.495 10.735 0 13 0l4-3.5c2.247-4.495-12.755-2.5-15-2.5l-1 1-1 1v4ZM261 278v1c-1.947 0-3.644 3.428-6.5 2l-7.5-4-4-5.5c.741-1.482 12.62-.5 15-.5l1 1 2 3v3Z"/><path fill="#FF9B88" id="P" d="m259 272 2 3v-5h-1l-1 1v1Z"/><path fill="#CBC7CC" id="sctv" d="M163 281c-3.721 0-6.041-12.23-10.5-10-2.609 1.305 9.15 14 12.5 14l-2-4Z"/><path fill="#FF9BCD" id="MY" d="m198 271-1 1v-1h1ZM259 271v1l-1-1h1Z"/><path fill="#CBC7CC" id="sctv" d="M293 285h1l1-1 1-1 1-1 1-1 1-1 1-1 1-1 1-1 1-1 1-1 1-3.5h-4l-7 9.5-3 4 1 1 1-1Z"/><path fill="#FF9B88" id="P" d="M195 277h1v-2l-1 2Z"/><path fill="#FEAD6F" id="POR" d="m262 285 5 1c6.063 0 24 1.907 24-7l-9.5 1-5.5-5c0 5.911-10.689 5-14 5l-1 1v3l1 1Z"/><path fill="#FF9B88" id="P" d="m304 275-1 1 1-1Z"/><path fill="#FEAD6F" id="POR" d="M190 286h2l1-1h1l1-1v-4h-1c-1.423 0-3.544 1.978-5.5 1l-8.5-5-4.5 4-9.5-1c0 8.819 17.317 7 24 7Z"/><path fill="#FF9B88" id="P" d="m303 276-1 1 1-1Z"/><path fill="#FF9BCD" id="MY" d="M195 284v1c2.522 0 4.909-2 8-2l2-1 4-3v-2c-2.265 0-13 9.495-13 0h-1v7ZM261 284v1c-3.269 0-6.321-3-10-3l-4-3v-2l7.5 4c2.856 1.428 4.553-2 6.5-2v5Z"/><path fill="#FF9B88" id="P" d="m302 277-1 1 1-1ZM262 280l-1 1v-3l1 2ZM301 278l-1 1 1-1Z"/><path fill="#CCC7CB" id="tb" d="M192 288h2l2-1h8c0-1.674-1-2.326-1-4-3.091 0-5.478 2-8 2h-2l-1 1h-2c0 1.665-4.222 1-5.5 1-5.72 0-12.258.371-17-2-1.97-.985-4.5-8.411-4.5-4l2 4 6 3h21Z"/><path fill="#FF9B88" id="P" d="M194 280h1v-1l-1 1Z"/><path fill="#C7C9C9" id="py" d="M205 287h14l4-3.5c2.903-5.806-11.53-4.5-14-4.5l-4 3-2 1c0 1.674 1 2.326 1 4h1ZM252 287h1c0-3.578-2-3.993-2-5l-4-3c-3.479 0-14-1.706-14 3.5l4 4.5h15Z"/><path fill="#FF9B88" id="P" d="m300 279-1 1 1-1Z"/><path fill="#CCC7CB" id="tb" d="M265 288h20l6-3 3-4c0-3.177-4.483 3.491-5.5 4-4.633 2.316-10.397 2-16 2-1.278 0-5.5.665-5.5-1l-5-1h-1c-3.269 0-6.321-3-10-3 0 1.007 2 1.422 2 5h8l2 1h2Z"/><path fill="#FF9B88" id="P" d="m299 280-1 1 1-1ZM298 281l-1 1 1-1Z"/><path fill="#CCC7CB" id="tb" d="m205 282-2 1 2-1Z"/><path fill="#FF9B88" id="P" d="m297 282-1 1 1-1ZM296 283l-1 1 1-1ZM194 285h1v-1l-1 1ZM261 285h1l-1-1v1ZM295 284l-1 1 1-1ZM193 285l-1 1 1-1ZM292 286c0 1.663-5.407 2-7 2l6-3 1 1ZM293 285l-1 1 1-1ZM194 288h2v-1l-2 1Z"/><path fill="#FF9BCD" id="MY" d="M201 287c0 1.643-3.765 1-5 1v-1h5ZM219 287h2c0 3.536-16 1.652-16 0h14ZM237 287h15c0 2.234-11.702 1.899-13.5 1-1.046-.523-3.5.951-3.5-1h2ZM261 287v1c-1.321 0-6 .684-6-1h6Z"/><path fill="#FF9B88" id="P" d="M261 288h2l-2-1v1ZM172 288h20c0 1.579-2.855 1-4 1-2.158 0-16 .801-16-1ZM265 288h20c0 1.579-2.855 1-4 1-2.158 0-16 .801-16-1Z"/></svg>