<svg xmlns="http://www.w3.org/2000/svg" viewBox="0 0 456 320"><path fill="#FCFB90" id="CUL4, 5" fill-rule="evenodd" d="M205 50c0 2.51 7.794 3.147 9.5 4 5.697 2.848 21.303 2.848 27 0 1.215-.607 9.5-1.758 9.5-3.5l-4-.5c-3.393 0-8.541 2-12 2-10.005 0-19.674-2-30-2m79 75c9.959 0 8.001-20.498 5-26.5-.612-1.224-4.189-12.5-3.5-12.5l1.5 4.5c1.9 3.8 4 6.888 4 11.5 0 11.292 2.489 35 18 35 0-2.407-.906-7.311-2-9.5v-19c-4.381-8.762-3.608-20.216-8-29-3.715-7.43-13-16.842-13-25.5l-6-6.5c-3.893-3.893-8.859-6.18-13.5-8.5-14.903-7.451-62.445-6.277-77 1-3.971 1.985-18.5 9.16-18.5 14 0 6.176-10.913 20.327-14 26.5-6.788 13.577-9 39.832-9 56.5 3.811 0 5.189-2.845 7.5-4 12.125-6.062 5.231-22.962 10.5-33.5.854-1.708 1.843-12.5 4.5-12.5l.5 2.5c-1.648 3.297-2.364 6.728-4 10-2.695 5.389-4.061 25.5 5 25.5 0-6.573 4.162-14.823 7-20.5 2.085-4.171 4.579-13.04 9.5-15.5 5.882-2.941 11.161-7.08 17-10 9.376-4.688 35.667-4.667 45 0 5.452 2.726 10.482 6.24 16 9 7.633 3.817 9.447 14.395 12.5 20.5 2.265 4.53 5 11.227 5 16.5Z"/><path fill="#FDFB8F" id="SIM" d="M127 123c4.339 0 4.708-11.916 6-14.5 3.639-7.278 4.376-15.752 8-23l2-13c1.07-2.14 9.175-13.663 11.5-12.5l-4.5 5.5c-2.703 2.703-3.429 5.859-5 9-1.811 3.621-.178 9.356-2 13-5.167 10.333-17.578 49.5 5 49.5 0-16.668 2.212-42.923 9-56.5 3.087-6.173 14-20.324 14-26.5-.353 0-5.747-6.123-7.5-7-4.862-2.431-16.253 2.126-20 4-6.903 3.451-13.013 8.507-20 12-1.981.99-1.956 7-4.5 7l4 7.5v33l4 12.5ZM330 125c-2.928 0-5.824-15.148-7-17.5-4.381-8.763-8.134-38.817-15.5-42.5l-6-6c-1.908 0 5.377 6.254 5.5 6.5 2.112 4.224 2.947 8.894 5 13l3 14c4.875 9.75 14.213 44.5-6 44.5 0-2.407-.906-7.311-2-9.5v-19c-4.381-8.762-3.608-20.216-8-29-3.715-7.43-13-16.842-13-25.5 0-9.66 17.619-7.44 22.5-5 8.169 4.084 16.508 10.254 24 14 2.655 1.328 1.904 7 4.5 7l-4 9.5c-2.068 4.137 1 12.232 1 16 0 10.931-4 19.445-4 29.5Z"/><path fill="#CBC9CC" id="arb" d="M205 50c0 2.51 7.794 3.147 9.5 4 5.697 2.848 21.303 2.848 27 0 1.215-.607 9.5-1.758 9.5-3.5l-4-.5c-3.393 0-8.541 2-12 2-10.005 0-19.674-2-30-2Z"/><path fill="#CBC9CC" id="arb" fill-rule="evenodd" d="M227 158c0 7.975 4.275 0 0 0m12-13c0 2.978-10 .449-10 4.5 0 1.936 5.481.99 6.5 1.5 2.676 1.338 6.159 4.921 10 3 1.547-.774 2.732-8.134 1-9H239m-30 0c0 11.864 3.791 10.355 12.5 6l6.5-1.5c0-2.751-15.864-4.5-19-4.5m14-13c0 2.234-3.734 2.031-3 3.5 2.834 5.668 10.54 8.919 14 2l2-1c2.677-5.354-10.005-4.5-13-4.5m-6 33h23c5.286 0 11.59-1 16-1 1.321 0 6 .684 6-1-1.965 0-8.473-1.554-7-4.5l3-3c0-.849-9.504-4.498-5.5-6.5 4.092-2.046 9.215-4.392 14-2l2.5 2c0-4.002 5.059-3 8-3 0-7.571 11.326-5.087 15.5-3 6.453 3.227 13.547 4.773 20 8 4.869 2.435 5.418-6.291 10-4 8.151 4.076 2.5 3.79 2.5 8 10.699 0 11 9.055 11 18l3.5-6c6.104-3.052 7.926-6 15.5-6 5.536 0 10.509 4 17 4l1-1.5-5.5-.5c-1.954-.977-14.5-7.224-14.5-8-8.881 0-14.84-13.82-11-21.5 2.12-4.239 8.294-7.588 10-11l1-5c.242-.485 3.262-6.5 1.5-6.5l-2.5 5.5c-2.145 4.291-4.276 11.888-9.5 14.5-3.074 1.537-12.5-.912-12.5-6-2.928 0-5.824-15.148-7-17.5-4.381-8.763-8.134-38.817-15.5-42.5l-6-6c-1.908 0 5.377 6.254 5.5 6.5 2.112 4.224 2.947 8.894 5 13l3 14c4.875 9.75 14.213 44.5-6 44.5-15.511 0-18-23.708-18-35 0-4.612-2.1-7.7-4-11.5l-1.5-4.5c-.689 0 2.888 11.276 3.5 12.5 3.001 6.002 4.959 26.5-5 26.5l-10.5-2c-6.017 3.008-11.603 6.802-18 10-3.524 1.762-1.653-3.327-3-4-3.348-1.674-8.541.73-12-1-2.019-1.01-34.526-.237-37 1l-1 4c-3.228 1.614-16.817-8.409-20-10-1.34-.67-8.091 2-10.5 2-9.061 0-7.695-20.111-5-25.5 1.636-3.272 2.352-6.703 4-10l-.5-2.5c-2.657 0-3.646 10.792-4.5 12.5-5.269 10.538 1.625 27.438-10.5 33.5-2.311 1.155-3.689 4-7.5 4-22.578 0-10.167-39.167-5-49.5 1.822-3.644.189-9.379 2-13 1.571-3.141 2.297-6.297 5-9l4.5-5.5c-2.325-1.163-10.43 10.36-11.5 12.5l-2 13c-3.624 7.248-4.361 15.722-8 23-1.292 2.584-1.661 14.5-6 14.5 0 5.522-8.793 10.353-13.5 8-1.796-.898-8.5-9.123-8.5-12 0-1.375-2.644-10.213-4-7.5-2.44 4.879 12.189 19.378 14 23 2.891 5.782-2.38 11.759-4 15-.928 1.857-4.003 5.5-7 5.5l-15.5 8h-5l.5 2c6.578 0 10.876-3 17-3 0-2.968 10.475.487 11.5 1 1.774.887 6.628 10 7.5 10 0-9.015 1.537-18 12-18 0-3.124-4.195-5.153 1.5-8 4.582-2.291 5.131 6.435 10 4l24-9c3.595-1.797 12.5-1.867 12.5 4 3.567 0 7-1.253 7 3 3.151 0 6.715-4.892 10.5-3 1.197.599 8.766 2.967 7.5 5.5l-6 4c-.67 1.34 3.365 2.271 2 5l-7 3.5c8.038 0 14.742 1 23 1Z"/><path fill="#FCFC90" id="ANcr1" fill-rule="evenodd" d="M102 94c0 5.72-7.844 7.656-3 12.5l1.5 2.5.5-9c0-.785 4.007-6 1-6m-34 51c1.951 0 .477-2.454 1-3.5.973-1.946 6.618-3.941 9.5-2.5l7 8c4.86 2.43 12.982 8 18.5 8 2.997 0 6.072-3.643 7-5.5 1.62-3.241 6.891-9.218 4-15-1.811-3.622-16.44-18.121-14-23 1.356-2.713 4 6.125 4 7.5 0 2.877 6.704 11.102 8.5 12 4.707 2.353 13.5-2.478 13.5-8l-4-12.5v-33l-4-7.5c-2.585 0-8.357-.571-11.5 1-15.35 7.675-36.448 34.395-44.5 50.5-4.278 8.556 5 16.773 5 23.5ZM353 94l2 5c0 2.113.141 2.782 1 4.5l-1 6 4-4c.975-1.951-4.21-11.5-6-11.5m35 51c0-4.426-6.034-8.233-10.5-6-4.758 2.379-7.807 9.403-13 12-1.703.851-11.5 1.941-11.5 4-8.881 0-14.84-13.82-11-21.5 2.12-4.239 8.294-7.588 10-11l1-5c.242-.485 3.262-6.5 1.5-6.5l-2.5 5.5c-2.145 4.291-4.276 11.888-9.5 14.5-3.074 1.537-12.5-.912-12.5-6 0-10.055 4-18.569 4-29.5 0-3.768-3.068-11.863-1-16l4-9.5c12.925 0 26.678 7.856 33 20.5 3.729 7.458 16.734 16.469 22 27 3.863 7.727 1.447 15.107-2 22-.492.984-.851 5.5-2 5.5Z"/><path fill="#FFFC8E" id="CENT3" d="M172 125c2.409 0 9.16-2.67 10.5-2 3.183 1.591 16.772 11.614 20 10l1-4c2.474-1.237 34.981-2.01 37-1 3.459 1.73 8.652-.674 12 1 1.347.673-.524 5.762 3 4 6.397-3.198 11.983-6.992 18-10l10.5 2c0-5.273-2.735-11.97-5-16.5-3.053-6.105-4.867-16.683-12.5-20.5-5.518-2.76-10.548-6.274-16-9-9.333-4.667-35.624-4.688-45 0-5.839 2.92-11.118 7.059-17 10-4.921 2.46-7.415 11.329-9.5 15.5-2.838 5.677-7 13.927-7 20.5Z"/><path fill="#CBC9CC" id="arb" d="M102 94c0 5.72-7.844 7.656-3 12.5l1.5 2.5.5-9c0-.785 4.007-6 1-6ZM353 94l2 5c0 2.113.141 2.782 1 4.5l-1 6 4-4c.975-1.951-4.21-11.5-6-11.5Z"/><path fill="#FFFC8E" id="CENT3" d="M223 132c0 2.234-3.734 2.031-3 3.5 2.834 5.668 10.54 8.919 14 2l2-1c2.677-5.354-10.005-4.5-13-4.5Z"/><path fill="#FCFA91" id="ANcr2" d="m84 165-5 2c-5.595 0-11-17.411-11-22 1.951 0 .477-2.454 1-3.5.973-1.946 6.618-3.941 9.5-2.5l7 8c4.86 2.43 12.982 8 18.5 8l-15.5 8h-5l.5 2ZM372 165c2.72 0 3.553 2 6 2 5.045 0 10-17.301 10-22 0-4.426-6.034-8.233-10.5-6-4.758 2.379-7.807 9.403-13 12-1.703.851-11.5 1.941-11.5 4 0 .776 12.546 7.023 14.5 8l5.5.5-1 1.5Z"/><path fill="#FFFDBC" id="IP" d="M132 155c2.584 0 9 7.499 9 9 3.12 0 6.418 5.041 10.5 3l14-12c2.576-1.288 6.301-.65 9-2 1.836-.918 5.5-5.158 5.5-7 0-5.867-8.905-5.797-12.5-4l-24 9c-4.869 2.435-5.418-6.291-10-4-5.695 2.847-1.5 4.876-1.5 8ZM316 164l-1 1c-3.03 0-7.056 3.722-10.5 2l-8-8-6-4c-4.694-2.347-13.5-.507-13.5-9 0-7.571 11.326-5.087 15.5-3 6.453 3.227 13.547 4.773 20 8 4.869 2.435 5.418-6.291 10-4 8.151 4.076 2.5 3.79 2.5 8-2.937 0-9 5.909-9 9Z"/><path fill="#CBC8CA" id="cbc" d="M209 145c0 11.864 3.791 10.355 12.5 6l6.5-1.5c0-2.751-15.864-4.5-19-4.5ZM239 145c0 2.978-10 .449-10 4.5 0 1.936 5.481.99 6.5 1.5 2.676 1.338 6.159 4.921 10 3 1.547-.774 2.732-8.134 1-9H239Z"/><path fill="#F0F080" id="CB" d="m140 179-3 1v-1c0-4.791 4-9.119 4-15 3.12 0 6.418 5.041 10.5 3l14-12c2.576-1.288 6.301-.65 9-2 1.836-.918 5.5-5.158 5.5-7 3.567 0 7-1.253 7 3 0 3.433-4 5.381-4 10l-5-1c0-6.793-9.044-2.413-11 1.5l1 4.5c-1.235 0-5-.643-5 1h-2l-1 1h-1l-1 1-1 1-2 1-1 1-7 5-2 1-1 1-4 2Z"/><path fill="#FFFCBC" id="FN" d="M193 164h1l7-3.5c1.365-2.729-2.67-3.66-2-5l6-4c1.266-2.533-6.303-4.901-7.5-5.5-3.785-1.892-7.349 3-10.5 3 0 3.433-4 5.381-4 10 3.435 0 5.249 5 8 5h2ZM264 164l1 1 3.5-4 5.5-3c0-4.026-5-5.943-5-9l-2.5-2c-4.785-2.392-9.908-.046-14 2-4.004 2.002 5.5 5.651 5.5 6.5l-3 3c-1.473 2.946 5.035 4.5 7 4.5l2 1Z"/><path fill="#F0F080" id="CB" d="M318 179h1c0-4.915-4-8.31-4-14-3.03 0-7.056 3.722-10.5 2l-8-8-6-4c-4.694-2.347-13.5-.507-13.5-9-2.941 0-8-1.002-8 3 0 3.057 5 4.974 5 9l5 1c0-9.923 10-2.6 10 5 1.235 0 5-.643 5 1h1c1.238 0 3 .423 3 2h1l10 8h1l7 4h1Z"/><path fill="#FEB1D8" id="ICB" d="M168 164h2l2-1c1.562 0 5-2.189 5-4l1-1c0-6.793-9.044-2.413-11 1.5l1 4.5ZM286 164h3c0-7.6-10-14.923-10-5 1.302 0 2.641 4 5 4l2 1Z"/><path fill="#FFFDBB" id="DN" d="m128 184-1 1c-7.817 0-5.298-4-7-4v-8c0-9.015 1.537-18 12-18 2.584 0 9 7.499 9 9 0 5.881-4 10.209-4 15l-3 2c-1.048 0-3-.473-3 1l-1 1-2 1ZM329 185h1c3.333 0 6-.091 6-4v-8c0-8.945-.301-18-11-18-2.937 0-9 5.909-9 9l-1 1c0 5.69 4 9.085 4 14 1.572 0 7 2.052 7 4l2 1 1 1Z"/><path fill="#F0F080" id="CB" d="m178 158-1 1 1-1Z"/><path fill="#FEFDBC" id="VeCB" d="M181 173h2l1-1 2-1 1-1 2-1 1-1 1-1v-3c-2.751 0-4.565-5-8-5l-5-1-1 1c0 1.811-3.438 4-5 4v2c4.052 0 6.166 8 9 8Z"/><path fill="#FEFA91" id="LING" d="M227 158c0 7.975 4.275 0 0 0Z"/><path fill="#FEFDBC" id="VeCB" d="M273 173h3l2-2 1-2 2-2h1l1-1 1-1v-2c-2.359 0-3.698-4-5-4l-5-1-5.5 3-3.5 4v2l2 2h1l2 2h1l2 2Z"/><path fill="#FFF990" id="COPY" d="m120 181-2 3c-1.765 0-.541-1.581-1-2.5-1.376-2.752-12.982-12.5-16-12.5v-7c0-2.968 10.475.487 11.5 1 1.774.887 6.628 10 7.5 10v8ZM336 181l3 4c0-5.52 11.413-16 17-16l-1-8c-7.574 0-9.396 2.948-15.5 6l-3.5 6v8Z"/><path fill="#FFFB8E" id="PRM" d="M356 169c2.061 0 10-.157 10 5 3.357 0 12-2.707 12-7-2.447 0-3.28-2-6-2-6.491 0-11.464-4-17-4l1 8ZM101 169c-2.013 0-4.25-1.125-6.5 0l-4.5 5c-3.239 0-11-2.76-11-7l5-2c6.578 0 10.876-3 17-3v7Z"/><path fill="#F0F080" id="CB" d="M171 165h1v-2l-2 1v1h1Z"/><path fill="#AAA9A7" id="V4" d="M266 174h5l1-1-1-2h-1l-2-2h-1l-2-2v-2l-1-1-2-1c0 1.684-4.679 1-6 1-4.41 0-10.714 1-16 1 0 4.248-23 4.637-23 0-8.258 0-14.962-1-23-1h-1l-2 2v1l-1 1-1 1-2 1-1 1-2 1v1c1.819 0 4.591 1 7 1 0-1.71-4.078-.344-3-2.5 3.104-6.208 29.152-5.174 34.5-2.5l5.5 3 6.5-3c7.571-3.785 23.828-2.586 31 1l3.5 1.5c1.078 2.156-3 .79-3 2.5Z"/><path fill="#F0F080" id="CB" d="M285 165h1v-1l-2-1v2h1Z"/><path fill="#FF9BCD" id="MY" d="M163 165h7v-1h-2c-1.235 0-5-.643-5 1Z"/><path fill="#F0F080" id="CB" d="m193 164-2 2v-2h2ZM264 164l1 1-1-1Z"/><path fill="#FF9BCD" id="MY" d="M286 165h8c0-1.643-3.765-1-5-1h-3v1Z"/><path fill="#F0F080" id="CB" d="m316 164-1 1 1-1Z"/><path fill="#FF9BCD" id="MY" d="m161 165-1 1 1-1Z"/><path fill="#FDB3D6" id="SUV" d="M170 183h1l2-1 3-4 1-1 1-1 1-2c0-4.417-8-6.969-8-9h-10l-1 1h-1l-1 1-1 1-2 1-1 1-1 6 1 7c2.608 0 6.723 3.889 10.5 2l5.5-2Z"/><path fill="#FF9BCD" id="MY" d="m181 173-2 1c0-4.417-8-6.969-8-9h1c4.052 0 6.166 8 9 8Z"/><path fill="#FEFA91" id="LING" d="M217 165h23c0 4.248-23 4.637-23 0Z"/><path fill="#FF9BCD" id="MY" d="m285 165-2 1 1-1h1Z"/><path fill="#FDB3D6" id="SUV" d="M286 183c3.661 0 9.166 4.167 13.5 2l2.5-2c0-.969 1.147-7 2-7 0-3.984-5-6.027-5-9h-1l-3-2h-10l-2 1-1 1h-1c0 1.747-.253 2-2 2l-1 2v4l1 2 1 1 4 4 1 1h1Z"/><path fill="#FF9BCD" id="MY" d="M295 165c1.238 0 3 .423 3 2l-3-2ZM159 166l-1 1 1-1ZM283 166l-1 1 1-1ZM158 167l-1 1 1-1Z"/><path fill="#F0F080" id="CB" d="m191 167-1 1 1-1Z"/><path fill="#A9AAA8" id="chpl" d="m235 194-1 1c-2.259 0-5.151 3.675-8.5 2-12.958-6.479-11.427-23-33.5-23h-1c0-1.71-4.078-.344-3-2.5 3.104-6.208 29.152-5.174 34.5-2.5l5.5 3 6.5-3c7.571-3.785 23.828-2.586 31 1l3.5 1.5c1.078 2.156-3 .79-3 2.5h-1c-1.406 0-7-.714-7 1-2.248 0-9 1.089-9 4l-1 1-1 1c-2.473 0-6 3.527-6 6-1.911 0-5 3.805-5 6l-1 1Z"/><path fill="#F0F080" id="CB" d="m265 167 2 2-2-2Z"/><path fill="#FF9BCD" id="MY" d="m281 167-2 2c1.747 0 2-.253 2-2ZM309 175l-5 1c0-3.984-5-6.027-5-9l10 8Z"/><path fill="#FFFC8D" id="PFL" fill-rule="evenodd" d="M102 205c0 2.087-8.909 4-11 4-8.64 0-17.48 8.541-13 17.5 1.165 2.33 7.056-8.278 9.5-9.5 1.401-.7 28.31-12 14.5-12m4-1c0 1.93 1.93 0 0 0m1-2c0 1.93 1.93 0 0 0m6 18-5 5c-6.432 0-5.194 9.888-7 13.5-4.886 9.773-6.284 20.892-17.5 26.5-5.388 2.694-11.546.227-16-2-16.593-8.297-16.5-28.006-16.5-45v-16.5c3.046-6.093 15.138-23.181 24.5-18.5l16 8 3.5-.5-5-16.5 4.5-5c2.25-1.125 4.487 0 6.5 0 3.018 0 14.624 9.748 16 12.5.459.919-.765 2.5 1 2.5 0 4.154-6.832 4.163-8 6.5-.519 1.038-2.267 10.466-2 11 .939 1.878 6.817-6.158 7.5-6.5.778-.389 3.5-1.961 3.5 0 0 3.982-2 6.704-2 11l-1 1-1 11-2 2Z"/><path fill="#FF9BCD" id="MY" d="m157 168-2 1 2-1Z"/><path fill="#F0F080" id="CB" d="m190 168-1 1 1-1Z"/><path fill="#FFFC8D" id="PFL" d="m343 220 6 5c4.29 0 4.861 8.222 6 10.5 5.243 10.486 5.329 23.415 17.5 29.5 2.993 1.496 10.199 1.4 13 0 18.905-9.453 19.5-26.823 19.5-48 0-4.687 2.415-12.671 0-17.5-2.801-5.602-15.647-20.426-23.5-16.5-4.913 2.457-9.99 4.495-15 7-.75.375-3.77 1.959-4.5.5-2.316-4.633 4-11.856 4-16.5 0-5.157-7.939-5-10-5-5.587 0-17 10.48-17 16 0 4.123 7.053 3.605 8 5.5 2.253 4.505-1.617 11.441 4.5 14.5 8.769 4.385 35.322 3.856 26.5 21.5-.908 1.817-5.59-7.545-7.5-8.5l-17-8-3.5-5.5c-2.381-2.381-12-14.194-12-7.5 0 7.028 4 13.834 4 21l1 2Z"/><path fill="#FF9BCD" id="MY" d="m155 169-1 1 1-1Z"/><path fill="#F0F080" id="CB" d="m268 169 2 2-2-2Z"/><path fill="#FF9BCD" id="MY" d="m279 169-1 2 1-2ZM147 175c2.124 0 4.436 1 6 1l1-6-7 5Z"/><path fill="#F0F080" id="CB" d="m187 170-1 1 1-1ZM272 173h1l-2-2 1 2Z"/><path fill="#FF9BCD" id="MY" d="m276 173 2 2v-4l-2 2Z"/><path fill="#F0F080" id="CB" d="M183 173h1v-1l-1 1Z"/><path fill="#FFB0D7" id="MV" d="M205 211c-2.029 0-1.881 1.191-3.5 2l-20.5-1-6-1v-1c0-2.935 4.688-6.876 6-9.5 2.359-4.719 0-8.467 0-12.5l-2-2-2-1.5V177l1-1 1-2 2-1h3c1.819 0 4.591 1 7 1h1c0 1.344 7.273 1.387 8.5 2 4.117 2.059 17.5 10.5 17.5 16-1.818 0-9 11.022-9 13l-2 3-1 1-1 2Z"/><path fill="#F0F080" id="CB" d="m272 173-1 1 1-1Z"/><path fill="#FFB0D7" id="MV" d="m282 211-6 1-20.5 1-7.5-7c0-3.624-9-11.824-9-14l2-5 6-6 1-1 1-1c1.335 0 9-3.145 9-4 1.406 0 7 .714 7-1h6l1-1h4l2 2 1 2 1 2c0 4.564-4 5.729-4 9-1.765 0-.541 1.581-1 2.5-2.681 5.362 1.679 11.358 4 16l3 3.5v1Z"/><path fill="#AAA9A7" id="V4" d="M218 192c3.566 0 8.148 12.176 10.5 11l3-4c1.359-1.359 2.5-2.042 2.5-4-2.259 0-5.151 3.675-8.5 2-12.958-6.479-11.427-23-33.5-23 0 1.344 7.273 1.387 8.5 2 4.117 2.059 17.5 10.5 17.5 16ZM265 174c-1.406 0-7-.714-7 1 1.406 0 7 .714 7-1Z"/><path fill="#FF9BCD" id="MY" d="m147 175-2 1 2-1Z"/><path fill="#FDB2D7" id="y" d="M154 183c0 1.577-1.762 2-3 2-4.327 0-7-3.949-7-8l1-1 2-1c2.124 0 4.436 1 6 1l1 7Z"/><path fill="#AAA9A7" id="V4" d="M258 175c-2.248 0-9 1.089-9 4 1.335 0 9-3.145 9-4Z"/><path fill="#FDB2D7" id="y" d="M302 183c1.481 0 .785 2 3 2 3.724 0 5.63-5 8-5 0-2.364-3-3.053-3-5h-1l-5 1c-.853 0-2 6.031-2 7Z"/><path fill="#FF9BCD" id="MY" d="m317 179-4 1c0-2.364-3-3.053-3-5l7 4ZM145 176l-1 1 1-1ZM178 176l-1 1 1-1ZM150 197v-7.5c-1.497-2.994-10.339.679-11 2l-4 7.5c0-4.913 12.244-20 5-20l4-2c0 4.051 2.673 8 7 8 0 2.502 1 5.498 1 8l-2 4ZM176 178h1v-1l-1 1ZM280 178v1l-1-2 1 1Z"/><path fill="#FEB3D7" id="LAV" d="M180 188c0 7.222-23.573 5-28 5 0-2.502-1-5.498-1-8 1.238 0 3-.423 3-2 2.608 0 6.723 3.889 10.5 2l5.5-2c0 4.813 8.765 0 3 0v-1l3-4h1v6.5l2 1.5 1 2ZM306 191l-1 2c-4.892 0-29 2.246-29-5 0-3.271 4-4.436 4-9v-1l4 4v1c-7.556 0 2 4.564 2 0 3.661 0 9.166 4.167 13.5 2l2.5-2c1.481 0 .785 2 3 2l1 5v1Z"/><path fill="#CBC9CC" id="arb" d="M137 180c0 1.473-1.952 1-3 1l3-2v1Z"/><path fill="#FEA5D1" id="DCO" d="m119 229 2 1c3.165 0 7.011-25 12-25 0-1.357.647-6 2-6 0-4.913 12.244-20 5-20l-3 1c0 1.473-1.952 1-3 1l-1 1-2 1-10 11.5c-3.461 6.922-4 16.172-4 24.5v2c1.434 0 2 6.448 2 8Z"/><path fill="#AAA9A7" id="V4" d="m249 179-1 1 1-1Z"/><path fill="#FEA5D1" id="DCO" d="m337 229-2 2c0-2.22-8.858-25-11-25 0-9.371-11-18.611-11-26l4-1h1l1 1 4 2 4.5 3 7.5 8.5c4.04 8.079 4 17.704 4 27.5v2c-.913 0-2 5.014-2 6Z"/><path fill="#FF9BCD" id="MY" d="M319 179v1l-1-1h1Z"/><path fill="#CBC9CC" id="arb" d="m323 182 3 1c0-1.948-5.428-4-7-4v1l4 2Z"/><path fill="#AAA9A7" id="V4" d="m248 180-1 1 1-1Z"/><path fill="#FF9BCD" id="MY" d="m324 206-1 3c-1.512 0-1.297-9.094-2-10.5-5.13-10.26-5.311-8.5-15-8.5l-1-5c3.724 0 5.63-5 8-5 0 7.389 11 16.629 11 26Z"/><path fill="#CBC9CC" id="arb" d="m127 185-8 10c0-1.961-2.722-.389-3.5 0-.683.342-6.561 8.378-7.5 6.5-.267-.534 1.481-9.962 2-11 1.168-2.337 8-2.346 8-6.5l2-3c1.702 0-.817 4 7 4ZM131 182h2l1-1c-1.048 0-3-.473-3 1Z"/><path fill="#AAA9A7" id="V4" d="M247 181c-2.473 0-6 3.527-6 6l6-6Z"/><path fill="#CBC9CC" id="arb" d="M339 185c0 4.123 7.053 3.605 8 5.5 2.253 4.505-1.617 11.441 4.5 14.5 8.769 4.385 35.322 3.856 26.5 21.5-.908 1.817-5.59-7.545-7.5-8.5l-17-8-3.5-5.5c-2.381-2.381-12-14.194-12-7.5l-8-12c3.333 0 6-.091 6-4l3 4ZM130 183h1v-1l-1 1Z"/><path fill="#A9AAA7" id="V4r" d="m133 182-2 1v-1h2Z"/><path fill="#FF9BCD" id="MY" d="M171 183h2v-1l-2 1ZM284 183h1l-1-1v1Z"/><path fill="#A9AAA7" id="V4r" d="M342 218c-2.93 0-1.084 3-3 3 0-9.796.04-19.421-4-27.5l-7.5-8.5-4.5-3 3 1 2 1 1 1h1l8 12c0 7.028 4 13.834 4 21ZM115 218l2 1c0-8.328.539-17.578 4-24.5l10-11.5h-1l-2 1-1 1-8 10c0 3.982-2 6.704-2 11l-1 1-1 11Z"/><path fill="#CCCBC8" id="das" d="M171 183h2c5.765 0-3 4.813-3 0h1ZM285 183h1c0 4.564-9.556 0-2 0h1Z"/><path fill="#CBC9CC" id="arb" d="m128 184-1 1 1-1ZM328 184l1 1-1-1Z"/><path fill="#FF9BCD" id="MY" d="M180 188h1l-2-2 1 2Z"/><path fill="#AAA9A7" id="V4" d="m239 192-3 1c0-2.195 3.089-6 5-6l-2 5Z"/><path fill="#FEB1D9" id="SPIV" d="m174 211-8 1c-2.516 0-12 .018-12-3 0-2.293-.997-2-3-2 0-2.69-1-6.675-1-10l2-4c4.427 0 28 2.222 28-5h1c0 4.033 2.359 7.781 0 12.5-1.312 2.624-6 6.565-6 9.5l-1 1ZM283 211l8 1c4.797 0 10.336-3 12-3 0-1.747.253-2 2-2 2.617 0 1-8.958 1-11v-1l-1-2c-4.892 0-29 2.246-29-5-1.765 0-.541 1.581-1 2.5-2.681 5.362 1.679 11.358 4 16l3 3.5 1 1Z"/><path fill="#C9C9C8" id="icp" d="M132 253c0 7.729 11 20.538 11 21-3.964 0-9.302-5.105-11-8.5-2.158-4.317-8.814-17.372-6-23 2.469-4.939 5-10.662 5-16.5l1-8 1-1v-5c2.018 0 2-10.777 2-13l4-7.5c.661-1.321 9.503-4.994 11-2v7.5c-1.765 0-4.058 7.617-5 9.5-3.657 7.313-8.385 13.771-12 21-1.323 2.645-.643 6.286-2 9-1.044 2.088-2.144 16.5 1 16.5ZM317 273h1l1-1c0-1.712 2.571-3 4-3 0-2.735 3.796-6.092 5-8.5 2.213-4.425.769-10.539 3-15l-3-6-2-12.5-1-7-1-1v-3c-1.473 0-1-1.952-1-3v-4c-1.512 0-1.297-9.094-2-10.5-5.13-10.26-5.311-8.5-15-8.5v6l5 9.5c3.635 7.27 8.398 13.796 12 21 1.942 3.884 1.048 9.096 3 13 1.303 2.606.465 13.5-2 13.5 0 8.408-9 18.884-9 20h2Z"/><path fill="#FF9BCD" id="MY" d="m305 193 1 2v-4l-1 2Z"/><path fill="#FFB3D7" id="PRP" d="M234 207h12l2-1c0-3.624-9-11.824-9-14l-3 1-1 1-1 1c0 1.958-1.141 2.641-2.5 4l-3 4c-2.352 1.176-6.934-11-10.5-11-1.818 0-9 11.022-9 13l1 2h15c0-3.897 7.372 0 9 0Z"/><path fill="#AAA9A7" id="V4" d="m236 193-1 1 1-1ZM235 194l-1 1 1-1Z"/><path fill="#FF9BCD" id="MY" d="M313 231c0-4.917-10.751-15.999-9-19.5 2.272-4.544 10.204 5.407 11 7 5.467 10.934 9 22.466 9 34.5 2.465 0 3.303-10.894 2-13.5-1.952-3.904-1.058-9.116-3-13-3.602-7.204-8.365-13.73-12-21l-5-9.5c0 2.042 1.617 11-1 11 0 1.747-.253 2-2 2-1.664 0-7.203 3-12 3 0 1.481 2 .785 2 3 4.93 0 12.025 2.55 14 6.5.764 1.528 4.342 9.5 6 9.5ZM143 232c0-5.399 10.995-16.51 9-20.5-1.976-3.952-9.143 4.287-10 6-5.448 10.896-10 22.341-10 35.5-3.144 0-2.044-14.412-1-16.5 1.357-2.714.677-6.355 2-9 3.615-7.229 8.343-13.687 12-21 .942-1.883 3.235-9.5 5-9.5 0 3.325 1 7.31 1 10 0 2.293.997 2 3 2 0 3.018 9.484 3 12 3 0 1.916-3 .07-3 3-5.451 0-12.24 2.981-15 8.5-.756 1.512-3.037 8.5-5 8.5ZM133 205v7c2.018 0 2-10.777 2-13-1.353 0-2 4.643-2 6Z"/><path fill="#CBC9CC" id="arb" d="M107 202c0 1.93 1.93 0 0 0ZM106 204c0 1.93 1.93 0 0 0ZM102 205c0 2.087-8.909 4-11 4-8.64 0-17.48 8.541-13 17.5 1.165 2.33 7.056-8.278 9.5-9.5 1.401-.7 28.31-12 14.5-12Z"/><path fill="#FEA4D2" id="VCO" d="M131 226c-2.772 0-2.251 13.624-7.5 11l-2-3-.5-4c3.165 0 7.011-25 12-25v12l-1 1-1 8Z"/><path fill="#FF9BCD" id="MY" d="m210 207-3 1 2-3 1 2ZM227 228l2 1v-17.5c0-1.175.042-5.729 2.5-4.5 2.081 1.041-.5 10.665-.5 14h3v-14c-1.628 0-9-3.897-9 0 3.559 0 2 17.261 2 21Z"/><path fill="#F0F080" id="CB" d="m117 206-1 1 1-1Z"/><path fill="#FF9BCD" id="MY" d="M267 214h8l1-2-20.5 1-7.5-7-2 1c4.17 0 6 5.707 6 9l3.5-2H267Z"/><path fill="#FEA4D2" id="VCO" d="M326 227c1.617 0 2.224 8.862 4.5 10 3.563 1.782 4.5-3.919 4.5-6 0-2.22-8.858-25-11-25l-1 3v4c1.473 0 1 1.952 1 3v3l1 1 1 7Z"/><path fill="#FFB0D9" id="x" d="M151 207c2.003 0 3-.293 3 2-2.003 0-3 .293-3-2Z"/><path fill="#FCB3D8" id="PGRNd" d="M206 221h17c0-1.462-.337-12 0-12v-2h-13l-3 1-1 1-1 2-1 4 1 6h1Z"/><path fill="#FF9BCD" id="MY" d="m224 207-1 1v-1h1Z"/><path fill="#CBCBCC" id="mlf" d="M225 221c0 .759 1.318 7 2 7 0-3.739 1.559-21-2-21h-1l-1 1v1c2.983 0 2 9.707 2 12ZM231 221c0 1.775-.069 8-2 8v-17.5c0-1.175.042-5.729 2.5-4.5 2.081 1.041-.5 10.665-.5 14Z"/><path fill="#FCB3D8" id="PGRNd" d="M234 221h17l1-2v-3c0-3.293-1.83-9-6-9h-12v14Z"/><path fill="#FFB0D9" id="x" d="M305 207c-1.747 0-2 .253-2 2 1.747 0 2-.253 2-2Z"/><path fill="#FF9BCD" id="MY" d="m207 208-1 1 1-1ZM206 209l-1 2 1-2ZM223 221h2c0-2.293.983-12-2-12-.337 0 0 10.538 0 12ZM174 211h1v-1l-1 1ZM282 211h1l-1-1v1Z"/><path fill="#C8CACA" id="sptV" d="M143 263c0 2.048 16.436 12 3.5 12l-3.5-1c0-.462-11-13.271-11-21 0-13.159 4.552-24.604 10-35.5.857-1.713 8.024-9.952 10-6 1.995 3.99-9 15.101-9 20.5v1l-1 2c-1.473 0-1 1.952-1 3v1c-2.533 0-3.66 18 0 18l1 4 1 1v1Z"/><path fill="#FDA5D1" id="NTS" d="m175 218-6 1-2-1-4-3c0-2.93 3-1.084 3-3l8-1h1l6 1v2l-6 4Z"/><path fill="#FF9BCD" id="MY" d="M189 214c5.039 0 10.575 1 15 1l1-4c-2.029 0-1.881 1.191-3.5 2l-20.5-1v2h8Z"/><path fill="#FDA5D1" id="NTS" d="m282 218 6 1 5-4c0-2.215-2-1.519-2-3l-8-1h-1l-6 1-1 2 7 4Z"/><path fill="#C8CACA" id="sptV" d="M314 273h1c0-1.116 9-11.592 9-20 0-12.034-3.533-23.566-9-34.5-.796-1.593-8.728-11.544-11-7-1.751 3.501 9 14.583 9 19.5v1c1.638 0 2 3.576 2 5v1c3.872 0 4.284 19 1 19l-1 1c0 1.048.473 3-1 3l-1 2-2 2c0 2.549-12.746 10-1 10l3-1 1-1Z"/><path fill="#FF9BCD" id="MY" d="M323 213c1.473 0 1 1.952 1 3-1.473 0-1-1.952-1-3Z"/><path fill="#FCB3D9" id="PARN" d="m161 267-1 1c-2.926 0-7-.373-7-4 0-2.121 3.158-22.815 4-24.5 3.499-6.998 12-7.136 12-16.5 3.313 0 6-1.457 6-5l6-4h8c0 9.535-11.571 29.641-16 38.5l-6 10.5h-1l-1 1-4 3Z"/><path fill="#FFB2D8" id="IRN" d="M186 267h6l1-1c0-5.001 5.372-20.245 8-25.5l2-14 2-4.5v-1l-1-6c-4.425 0-9.961-1-15-1 0 9.535-11.571 29.641-16 38.5l-6 10.5h11.5l4.5 2 3 2ZM264 267h7l2-2c4.783 0 10.26-2 16-2 0-3.451-4.484-7.468-6-10.5-3.392-6.783-16-32.149-16-38.5h-11.5l-3.5 2v6c0 5.925 5.459 29.418 8 34.5 1.393 2.786 4 6.221 4 9.5v1Z"/><path fill="#FCB3D9" id="PARN" d="M304 264c0 5.186-5.533 3-8 3-1.554 0-4.235-4-7-4 0-3.451-4.484-7.468-6-10.5-3.392-6.783-16-32.149-16-38.5h8l7 4c0 3.383 1.617 5 5 5 0 9.219 8.156 8.813 11 14.5 2.974 5.948.769 14.538 3 19l3 7.5Z"/><path fill="#FFA4D0" id="SPVO" d="M143 263c2.029 0 1.881 1.191 3.5 2l6.5-1c0-2.121 3.158-22.815 4-24.5 3.499-6.998 12-7.136 12-16.5l-1-3-1-2-4-3c-5.451 0-12.24 2.981-15 8.5-.756 1.512-3.037 8.5-5 8.5v1l-1 2c0 1.048.473 3-1 3v19l1 4 1 1v1ZM304 264c1.819 0 4.591 1 7 1 0-1.747.253-2 2-2l1-2c1.473 0 1-1.952 1-3l1-1c0-6.628-1-12.818-1-19v-1c-1.014 0-2-3.959-2-5v-1c-1.658 0-5.236-7.972-6-9.5-1.975-3.95-9.07-6.5-14-6.5l-5 4c0 1.004 2.31 4-1 4 0 9.219 8.156 8.813 11 14.5 2.974 5.948.769 14.538 3 19l3 7.5Z"/><path fill="#FF9BCD" id="MY" d="m133 217-1 1 1-1Z"/><path fill="#A9AAA8" id="chpl" d="M117 221c0 1.76 2.108 7.804-1.5 6l-2.5-3v-4l2-2 2 1v2Z"/><path fill="#FF9BCD" id="MY" d="m169 219-1 1-1-2 2 1Z"/><path fill="#FFB2D9" id="ISN" d="m168 220 1 3c3.313 0 6-1.457 6-5l-6 1-1 1ZM288 219c0 1.004 2.31 4-1 4-3.383 0-5-1.617-5-5l6 1Z"/><path fill="#A9AAA8" id="chpl" d="M343 222c0 4.476-4 7.013-4 1v-2c1.916 0 .07-3 3-3l1 2v2Z"/><path fill="#FF9BCD" id="MY" d="m251 221 1 1v-3l-1 2ZM324 219l1 1-1-1Z"/><path fill="#F0F080" id="CB" d="M108 225h4l1-1v-4l-5 5ZM344 225h5l-6-5v2c1.473 0 1 1.952 1 3Z"/><path fill="#A9AAA7" id="V4r" d="M119 229v1c-3.839 0-5.866-5-7-5l1-1 2.5 3c3.608 1.804 1.5-4.24 1.5-6 1.434 0 2 6.448 2 8Z"/><path fill="#FF9BCD" id="MY" d="m206 221-1 1v-1h1Z"/><path fill="#FEB0D8" id="GRN" d="M263 267c-4.309 0-10 .709-10 6l-8.5-9c-2.278-1.139-7.884-3.558-11-2l-2.5 2h-1l-1-10 3.5 3c6.727-3.363-3.5-29.109-3.5-11.5v5.5h-2v-5c0-2.821-.548-11.403-4-4.5V252l.5 5 3.5-2c0 3.013-1 6.611-1 9h-1c0-3.365-9.833-1.833-11.5-1-3.135 1.568-7.742 11-10.5 11 0-6.333-4.035-7-10-7v-1c0-5.001 5.372-20.245 8-25.5l2-14 2-4.5 1-1h19c0 .759 1.318 7 2 7l2 1c1.931 0 2-6.225 2-8h20l1 1c0 5.925 5.459 29.418 8 34.5 1.393 2.786 4 6.221 4 9.5l-1 1Z"/><path fill="#A9AAA7" id="V4r" d="M337 229v1c1.818 0 7-.863 7-5 0-1.048.473-3-1-3 0 4.476-4 7.013-4 1-.913 0-2 5.014-2 6Z"/><path fill="#FF9BCD" id="MY" fill-rule="evenodd" d="M235 288c0 1.298-3.563 3.373-2 6.5 2.807 5.614 16.236 2.529 18-1 2.418-4.836-13.249-5.5-16-5.5m-18-1c0 .485-12 2.407-12 6.5l4.5 1.5c15.444 7.722 18.892-8 7.5-8m24-2c0 1.99 10 3.524 10 2.5 0-.605-8.724-2.5-10-2.5m-30 0-5 2.5c0 1.587 15.633-2.5 5-2.5m20-8c0 9.885 5.327 0 0 0m-8 0c0 9.852 4.284 0 0 0m64 8c0 2.366-13.569 5-4 5 0 2.162-7.926 2.213-9.5 3-7.608 3.804-32.303 7.848-40 4l-4.5-3.5-.5-2.5c-1.745 0-9.333 11.834-17 8-6.411-3.206-19.864-1.432-25-4l-22-8c-4.345-2.173-7.615-5.808-12-8-6.956-3.478-19.152-4.805-23.5-13.5l-6-13-1-12c-1.522-3.044-3-6.892-3-10.5v-1l2 1 .5 4 2 3c5.249 2.624 4.728-11 7.5-11 0 5.838-2.531 11.561-5 16.5-2.814 5.628 3.842 18.683 6 23 1.698 3.395 7.036 8.5 11 8.5l3.5 1c12.936 0-3.5-9.952-3.5-12 2.029 0 1.881 1.191 3.5 2l6.5-1c0 3.627 4.074 4 7 4v7l-3.5-6c-6.066 0 .5 8.275.5 9l-2.5-1c-2.509 1.254 6.09 5.545 7 6 3.007 1.504 11.324 8.838 15 7 1.022-.511-6.5-3.302-6.5-5 2.59 0 6 2.192 6-1l6.5 4c4.531 2.266 7.787-3 10.5-3 0 11.179 18.508-3 4-3l6-8c0 2.379-3.292 4.917-2 7.5 3.471 6.941 17.622-3.561 21.5-5.5l3.5-7v15c-2.303 0 .158 7.671 3.5 6 1.485-.743 2.627-6 .5-6 0-3.962 1-8.688 1-12l7.5 7c5.483 2.741 9.963 4 15.5 4 0 6.638 8.1 8.3 10 4.5 1.699-3.398-7.135-5.5-9-5.5 0-3.638-2-5.929-2-9l4 6.5 9.5 7.5c5.788 2.894 8.51-2 13.5-2 0 1.203 5.226 0 7 0Z"/><path fill="#FF9BCD" id="MY" d="M337 230c0 7.222-6.729 39-14 39 0-2.735 3.796-6.092 5-8.5 2.213-4.425.769-10.539 3-15l-3-6-2-12.5c1.617 0 2.224 8.862 4.5 10 3.563 1.782 4.5-3.919 4.5-6l2-2v1ZM313 232c1.638 0 2 3.576 2 5-1.014 0-2-3.959-2-5ZM143 233l-1 2 1-2ZM142 235c-1.473 0-1 1.952-1 3 1.473 0 1-1.952 1-3ZM315 238c3.872 0 4.284 19 1 19 0-6.628-1-12.818-1-19ZM141 239c-2.533 0-3.66 18 0 18v-18Z"/><path fill="#C8C8CC" id="tspc" d="M227 251v4l-3.5 2-.5-5v-10.5c3.452-6.903 4 1.679 4 4.5v5ZM229 251v3l3.5 3c6.727-3.363-3.5-29.109-3.5-11.5v5.5Z"/><path fill="#FFC5E2" id="RM" d="M226 284h4c0-3.962 1-8.688 1-12v-5c-1.473 0-1-1.952-1-3l-1-10v-3h-2v4c0 3.013-1 6.611-1 9v20Z"/><path fill="#FF9BCD" id="MY" d="m316 257-1 1 1-1ZM142 261l1 1-1-1ZM314 261l-1 2 1-2Z"/><path fill="#FDB2D9" id="MARN" d="m226 269-3.5 7c-3.878 1.939-18.029 12.441-21.5 5.5-1.292-2.583 2-5.121 2-7.5 2.758 0 7.365-9.432 10.5-11 1.667-.833 11.5-2.365 11.5 1 0 1.048-.473 3 1 3v2ZM255 282l-1 1c-5.537 0-10.017-1.259-15.5-4l-7.5-7v-8l2.5-2c3.116-1.558 8.722.861 11 2l8.5 9c0 3.071 2 5.362 2 9Z"/><path fill="#FF9BCD" id="MY" d="m166 263-1 1 1-1Z"/><path fill="#FFB3D6" id="VII" d="m166 279 5 1c0-3.389 12-2.997 12-13v-2l-4.5-2H166l-1 1-4 3-1 1v7c1.53 0 3.216 4 6 4ZM289 280h1l1-1 6-5-1-7c-1.554 0-4.235-4-7-4-5.74 0-11.217 2-16 2v2c0 8.821 12 10.231 12 13h4Z"/><path fill="#FF9BCD" id="MY" d="M313 263c-1.747 0-2 .253-2 2l2-2ZM226 264v3c-1.473 0-1-1.952-1-3h1ZM231 264v3c-1.473 0-1-1.952-1-3h1ZM301 277c3.569 0-4 5.52-4 6 3.209 0 13.707-5.207 16-7.5l4-2.5h-3l-1 1-3 1c-11.746 0 1-7.451 1-10-2.409 0-5.181-1-7-1 0 5.186-5.533 3-8 3l1 7 2.5-4c4.452-2.226 1.5 6.106 1.5 7ZM183 267h3l-3-2v2ZM271 267h2v-2l-2 2ZM192 267h1v-1l-1 1ZM263 267h1v-1l-1 1ZM161 267l-1 1 1-1Z"/><path fill="#FCB2D9" id="PGRNl" d="m194 284-1 1c-2.713 0-5.969 5.266-10.5 3l-6.5-4h-1l-4-4c0-3.389 12-2.997 12-13h10c5.965 0 10 .667 10 7l-6 8-1 1h-1l-1 1ZM281 284l-1 1c-4.99 0-7.712 4.894-13.5 2l-9.5-7.5-4-6.5c0-5.291 5.691-6 10-6h10c0 8.821 12 10.231 12 13 0 1.481-2 .785-2 3h-1l-1 1Z"/><path fill="#C8C8CB" id="rust" d="M169 285h1c2.59 0 6 2.192 6-1h-1c-1.25 0-9-3.673-9-5-2.784 0-4.47-4-6-4l-3.5-6c-6.066 0 .5 8.275.5 9l6 4 2 1h1l3 2Z"/><path fill="#FF9BCD" id="MY" d="M323 269c-1.429 0-4 1.288-4 3 1.429 0 4-1.288 4-3Z"/><path fill="#C8C8CB" id="rust" d="M280 285c0 1.203 5.226 0 7 0l2-1h1l1-1h1l1-1c1.422 0 6-2.033 6-4l1-1h1c0-.894 2.952-9.226-1.5-7l-2.5 4-6 5-1 1h-1l-6 3h-1l-1 1-1 1Z"/><path fill="#FF9BCD" id="MY" d="m319 272-1 1 1-1Z"/><path fill="#C9C9C8" id="icp" d="m314 273-1 1 1-1Z"/><path fill="#CBC7CC" id="sctv" d="M169 285h1c0 1.698 7.522 4.489 6.5 5-3.676 1.838-11.993-5.496-15-7-.91-.455-9.509-4.746-7-6l2.5 1 6 4 2 1h1c0 1.577 1.762 2 3 2Z"/><path fill="#CACCC8" id="ml" d="M223 277c0 9.852 4.284 0 0 0ZM231 277c0 9.885 5.327 0 0 0Z"/><path fill="#FF9BCD" id="MY" d="m300 277-1 1 1-1Z"/><path fill="#CBC7CC" id="sctv" d="m285 289-2 1c-9.569 0 4-2.634 4-5l2-1h1l1-1h1l1-1c1.422 0 6-2.033 6-4l1-1h1c3.569 0-4 5.52-4 6l-8 4-4 2Z"/><path fill="#FF9BCD" id="MY" d="m171 280 4 4c-1.25 0-9-3.673-9-5l5 1ZM291 279l-1 1 1-1ZM289 280l-6 3c0-2.215 2-1.519 2-3h4ZM163 282l2 1-2-1ZM197 282l-1 1 1-1Z"/><path fill="#FCB2D8" id="PPY" d="m194 284-1 1c0 11.179 18.508-3 4-3l-1 1h-1l-1 1ZM255 282c1.865 0 10.699 2.102 9 5.5-1.9 3.8-10 2.138-10-4.5l1-1Z"/><path fill="#FF9BCD" id="MY" d="m293 282-1 1 1-1ZM166 283l3 2c-1.238 0-3-.423-3-2ZM195 283l-1 1 1-1ZM282 283l-1 1 1-1ZM291 283l-1 1 1-1ZM297 283l-8 4c1.937 0 8-1.553 8-4ZM194 284l-1 1 1-1Z"/><path fill="#FFC6E2" id="RPA" d="M226 284h4c2.127 0 .985 5.257-.5 6-3.342 1.671-5.803-6-3.5-6Z"/><path fill="#FF9BCD" id="MY" d="m281 284-1 1 1-1ZM289 284l-2 1 2-1Z"/><path fill="#FFB3D8" id="IO" d="m211 285-5 2.5c0 1.587 15.633-2.5 5-2.5ZM241 285c0 1.99 10 3.524 10 2.5 0-.605-8.724-2.5-10-2.5Z"/><path fill="#C7C9C9" id="py" d="M217 287c0 .485-12 2.407-12 6.5l4.5 1.5c15.444 7.722 18.892-8 7.5-8Z"/><path fill="#FF9BCD" id="MY" d="m289 287-4 2c1.465 0 4 .109 4-2Z"/><path fill="#C7C9C9" id="py" d="M235 288c0 1.298-3.563 3.373-2 6.5 2.807 5.614 16.236 2.529 18-1 2.418-4.836-13.249-5.5-16-5.5Z"/><path fill="#FF9BCD" id="MY" d="m285 289-2 1 2-1Z"/></svg>