<svg xmlns="http://www.w3.org/2000/svg" viewBox="0 0 456 320"><path fill="#1BA696" id="RSPagl1" d="M189 13c-6.068 0-10.047 2-16 2v-5c4.425 0 9.961-1 15-1l1 4Z"/><path fill="#1BA598" id="RSPd1" d="m219 22-2 1c-1.43 0-6.433-5.967-8.5-7-5.757-2.878-12.509-3-19.5-3l-1-4c9.361 0 31 1.533 31 13ZM238 21l2 2c0-8.301 22.002-10 28-10V9c-7.917 0-30 .765-30 12Z"/><path fill="#1BA696" id="RSPagl1" d="M268 13c5.67 0 9.33 2 15 2 0-1.145-.579-4 1-4 0-3.215-13.361-2-16-2v4Z"/><path fill="#0A8589" id="VISpm1" d="M173 16c-6.865 0-13.63 3-20 3l-1-4c4.024 0 15.976-5 21-5v6ZM283 16c6.775 0 13.762 3 20 3l1-4-3.5-2c-2.331-1.165-13.375-2-16.5-2-1.579 0-1 2.855-1 4v1Z"/><path fill="#1AA496" id="RSPagl2/3" d="M173 22v1l15-4c0-2.124 1-4.436 1-6-6.068 0-10.047 2-16 2v7Z"/><path fill="#1BA697" id="RSPd2/3" d="M212 27h1l4-3v-1c-1.43 0-6.433-5.967-8.5-7-5.757-2.878-12.509-3-19.5-3 0 1.564-1 3.876-1 6 6.001 0 24 .788 24 8ZM240 24l4 2c.377 0 10.111-6.305 11.5-7H268v-6c-5.998 0-28 1.699-28 10v1Z"/><path fill="#1AA496" id="RSPagl2/3" d="M283 22v1l-14-4h-1v-6c5.67 0 9.33 2 15 2v7Z"/><path fill="#098589" id="VISp1" d="M87 49h1c0-2.436 14.22-8.86 16.5-10 9.803-4.902 38.547-20 48.5-20l-1-4c-14.431 0-38.681 13.59-51.5 20C98.456 36.022 85 43.22 85 45l2 4ZM371 45c0 2.215-2 1.519-2 3-2.805 0-12.334-7.417-15.5-9-10.415-5.207-39.663-20-50.5-20l1-4c14.072 0 38.956 13.728 51.5 20 2.523 1.261 15.5 6.654 15.5 10Z"/><path fill="#08858B" id="VISpm2/3" d="m173 22-17 6-3-9c6.37 0 13.135-3 20-3v6ZM283 22c6.105 0 11.256 6 17 6l3-9c-6.238 0-13.225-3-20-3v6Z"/><path fill="#0A828C" id="VISp2/3" d="m88 49 4 6c4.528 0 10.49-5.995 14.5-8 10.097-5.049 21.975-6.988 32-12 4.595-2.298 12.287-7 17.5-7l-3-9c-9.953 0-38.697 15.098-48.5 20-2.28 1.14-16.5 7.564-16.5 10Z"/><path fill="#1CA697" id="RSPagl5" d="M185 30c-4.391 0-8.074 5-12 5 0-1.106 2.143-11 0-11v-1l15-4c0 3.014-3 7.346-3 10v1Z"/><path fill="#1AA596" id="RSPd5" d="M185 29c3.796 0 14-3.507 14 4 5.276 0 8.531-6 13-6 0-7.212-17.999-8-24-8 0 3.014-3 7.346-3 10ZM271 29c-3.796 0-14-3.507-14 4-4.901 0-8.466-6-13-6v-1c.377 0 10.111-6.305 11.5-7H269c0 3.721 2 6.881 2 10Z"/><path fill="#1CA697" id="RSPagl5" d="M272 30c3.648 0 7.682 5 11 5V23l-14-4c0 3.721 2 6.881 2 10l1 1Z"/><path fill="#0A828C" id="VISp2/3" d="M364 55h1c0-.853 2.992-6 4-6v-1c-2.805 0-12.334-7.417-15.5-9-10.415-5.207-39.663-20-50.5-20l-3 9c5.765 0 42.701 15.6 49.5 19l14.5 8Z"/><path fill="#1BA597" id="RSPv1" d="m282 71-3 1c-3.034 0-4.95-3.725-7.5-5-11.898-5.949-28.087-6.674-34.5-19.5-1.669-3.338-7.278-26.5 1-26.5l2 2v1c-1.59 0-1.443 4.386-2 5.5-2.019 4.038 1.114 17.307 5.5 19.5l13 8c4.776 2.388 13.147 3.147 17 7 1.797 1.797 8.5 3.96 8.5 7Z"/><path fill="#09828B" id="VISpm4" d="m156 28 1 3c5.761 0 10.429-7 16-7v-2l-17 6Z"/><path fill="#1BA597" id="RSPv1" d="m175 71 2 2c2.014 0 8.367-5.933 10.5-7 10.251-5.126 25.85-6.2 31.5-17.5 1.809-3.618 8.037-26.5 0-26.5l-2 1v1l2 4.5c4.33 8.66-7.775 23.138-14.5 26.5-5.332 2.666-29.5 10.373-29.5 16Z"/><path fill="#09828B" id="VISpm4" d="M300 28c0 1.048.473 3-1 3l-16-7v-2c6.105 0 11.256 6 17 6Z"/><path fill="#088489" id="VISpm5" d="m173 35-12 5c-1.335 0-4-6.912-4-8v-1c5.761 0 10.429-7 16-7 2.143 0 0 9.894 0 11Z"/><path fill="#1AA597" id="RSPv2/3" d="M171 68c0 1.712 2.571 3 4 3 0-5.627 24.168-13.334 29.5-16 6.725-3.362 18.83-17.84 14.5-26.5l-2-4.5-4 3c0 2.618 2.514 7.472 1 10.5-7.405 14.81-19.074 14.787-32.5 21.5-2.117 1.059-9.927 9-10.5 9ZM285 68l-3 3c0-3.04-6.703-5.203-8.5-7-3.853-3.853-12.224-4.612-17-7l-13-8c-4.386-2.193-7.519-15.462-5.5-19.5.557-1.114.41-5.5 2-5.5l4 2v1c-1.043 0-2 5.353-2 6.5 0 4.164 3.278 12.389 7.5 14.5l28 13 7.5 7Z"/><path fill="#088489" id="VISpm5" d="M295 41h1l3-9v-1l-16-7v11c1.938 0 12 4.212 12 6Z"/><path fill="#1BA498" id="RSPv5" d="m168 65 3 3c.573 0 8.383-7.941 10.5-9 13.426-6.713 25.095-6.69 32.5-21.5 1.514-3.028-1-7.882-1-10.5h-1c-4.469 0-7.724 6-13 6v1c0 9.29-16.896 15.698-23.5 19-3.013 1.506-5.609 12-7.5 12ZM288 65l-3 3-7.5-7-28-13c-4.222-2.111-7.5-10.336-7.5-14.5 0-1.147.957-6.5 2-6.5 4.534 0 8.099 6 13 6v1c0 13.124 31 15.415 31 31Z"/><path fill="#0B848B" id="VISp4" d="m92 56 3 4 13.5-7c9.511-4.756 20.525-7.262 30-12 4.129-2.064 14.324-9 18.5-9v-1l-1-3c-5.213 0-12.905 4.702-17.5 7-10.025 5.012-21.903 6.951-32 12-4.01 2.005-9.972 8-14.5 8v1Z"/><path fill="#1AA697" id="RSPd6a" d="M179 40v1c7.362 0 13.228-7 20-7v-1c0-7.507-10.204-4-14-4v1c0 4.105-6 5.722-6 10ZM278 40l-1 1c-7.003 0-13.262-7-20-7v-1c0-7.507 10.204-4 14-4l1 1c0 3.722 6 6.862 6 10Z"/><path fill="#0B848B" id="VISp4" d="M361 61h1l2-6-14.5-8c-6.799-3.4-43.735-19-49.5-19 0 1.048.473 3-1 3v1c4.448 0 10.562 5.03 14.5 7 10.314 5.157 21.544 8.772 32 14 2.657 1.328 15.5 3.949 15.5 8Z"/><path fill="#1CA597" id="RSPagl6a" d="M173 41h1c0-1.58 2.855-1 4-1h1c0-4.278 6-5.895 6-10-4.391 0-8.074 5-12 5v6ZM279 40l4 1v-6c-3.318 0-7.352-5-11-5 0 3.722 6 6.862 6 10h1Z"/><path fill="#088389" id="VISp5" d="m95 61 5 8 13.5-8c9.251-4.626 19.806-7.403 29-12 5.359-2.68 12.234-8 18.5-8v-1c-1.335 0-4-6.912-4-8-4.176 0-14.371 6.936-18.5 9-9.475 4.738-20.489 7.244-30 12L95 60v1ZM361 61c0 1.014-3.903 7-5 7-4.184 0-9.812-5.156-13.5-7-10.618-5.309-22.437-8.718-33-14-4.012-2.006-8.788-6-13.5-6l3-9c4.448 0 10.562 5.03 14.5 7 10.314 5.157 21.544 8.772 32 14 2.657 1.328 15.5 3.949 15.5 8Z"/><path fill="#1AA498" id="RSPv6a" d="m167 63 1 2c1.891 0 4.487-10.494 7.5-12 6.604-3.302 23.5-9.71 23.5-19-6.772 0-12.638 7-20 7v1c0 1.465.109 4-2 4-1.356 0-10 14.035-10 17ZM290 62l-2 3c0-15.585-31-17.876-31-31 6.738 0 12.997 7 20 7v1c0 2.003-.293 3 2 3 0 5.916 11 10.588 11 17Z"/><path fill="#09858B" id="VISpm6a" d="m167 45-4 1c0-1.624-2-2.75-2-5v-1l12-5v6c-1.664 0-6 1.822-6 4ZM295 41c0 2.25-2 3.376-2 5l-10-5v-6c1.938 0 12 4.212 12 6Z"/><path fill="#1AA598" id="RSPagl6b" d="m178 41-4 1v-1c0-1.58 2.855-1 4-1v1Z"/><path fill="#1BA698" id="RSPd6b" d="M178 42h1v-2h-1v2ZM277 42h1l1-1v-1h-1l-1 1v1Z"/><path fill="#1AA598" id="RSPagl6b" d="M283 41v1l-4-1v-1l4 1Z"/><path fill="#08858C" id="VISp6a" d="m107 73-4 1-3-5 13.5-8c9.251-4.626 19.806-7.403 29-12 5.359-2.68 12.234-8 18.5-8 0 2.25 2 3.376 2 5v1l-16 8c-7.952 0-24.154 9.327-31.5 13-1.655.827-8.5 2.559-8.5 5Z"/><path fill="#088589" id="VISpm6b" d="m174 42-7 3c0-2.178 4.336-4 6-4h1v1Z"/><path fill="#CACCC7" id="cing" d="M166 63h1c0-2.965 8.644-17 10-17l1-4v-1l-4 1-7 3c0 1.577-1.762 2-3 2l-1 2 1 1c6.08 0 2.353 5.793 1 8.5l1 4.5ZM293 50c-5.851 0-3.563 4.373-2 7.5.504 1.008.22 4.5-1 4.5 0-6.412-11-11.084-11-17l-1-3 1-1 4 1 10 5 1 2-1 1Z"/><path fill="#088589" id="VISpm6b" d="M293 46v1l-10-5v-1l10 5Z"/><path fill="#08858C" id="VISp6a" d="M356 69c0 1.076-1.523 5-3 5-4.268 0-8.801-5.15-12.5-7-11.182-5.591-23.821-8.41-35-14L293 47v-1c0-1.624 2-2.75 2-5h1c4.712 0 9.488 3.994 13.5 6 10.563 5.282 22.382 8.691 33 14 3.688 1.844 9.316 7 13.5 7v1Z"/><path fill="#1AA497" id="RSPv6b" d="M179 42c0 1.465.109 4-2 4l1-4h1ZM278 42l1 3c-2.293 0-2-.997-2-3h1Z"/><path fill="#09848A" id="VISl1" d="m65 63 2 3c.95 0 12.836-11.668 15.5-13l4.5-4-2-4c-1.962 0-20 16.675-20 18Z"/><path fill="#088589" id="VISpm6b" d="M163 47h1c1.238 0 3-.423 3-2l-4 1v1Z"/><path fill="#09848A" id="VISl1" d="m392 63-3 3-5-4.5c-2.529-2.529-10.802-12.5-15-12.5v-1c0-1.481 2-.785 2-3 2.067 0 21 16.808 21 18Z"/><path fill="#08858A" id="VISp6b" d="M147 55h4c0-2.132 9.957-6 12-6l1-2h-1l-16 8ZM353 75v1l-10.5-6c-6.779-3.39-29.901-15-36.5-15 0-2.132-9.957-6-12-6l-1-2 12.5 6c11.179 5.59 23.818 8.409 35 14 3.699 1.85 8.232 7 12.5 7v1Z"/><path fill="#0A8489" id="VISl2/3" d="M72 72h1c0-1.77 17.227-16 19-16v-1l-4-6h-1l-4.5 4C79.836 54.332 67.95 66 67 66v1c1.26 0 5 3.346 5 5Z"/><path fill="#C9C9CA" id="scwm" d="M151 55v1c1.744 0 13-4.788 13-6l-1-1c-2.043 0-12 3.868-12 6ZM306 55l-1 1c-1.843 0-12-4.171-12-6l1-1c2.043 0 12 3.868 12 6Z"/><path fill="#0A8489" id="VISl2/3" d="m389 67-5 4-19-16c0-.853 2.992-6 4-6 4.198 0 12.471 9.971 15 12.5l5 4.5v1Z"/><path fill="#C8C9CA" id="fp" d="M58 143h2l1-2v-2l1-2 1-2v-2l1-1v-1l1-1v-1l1-2 1-1v-1l1-1v-1l1-1v-1l1-1 1-1v-1l1-1 1-2 1-1 1-1v-1l1-1 1-1c0-1.238.423-3 2-3l1-1 1-1v-1l1-1 1-1 1-1 1-1 1-1 1-1 1-1 1-1 1-1h1c0-1.747.253-2 2-2l1-1 1-1c0-1.577 1.762-2 3-2l1-1 2-1 1-1 1-1h1l1-1 1-1 2-1 1-1h1l1-1 2-1 2-1 2-1 2-1 2-1h1c0-2.109 2.535-2 4-2l4-2c0-3.443 10.289-4.894 12.5-6 11.328-5.664 20.5-11.188 20.5 6 3.119 0 3-5.815 3-8l-1-4.5c1.353-2.707 5.08-8.5-1-8.5 0 1.212-11.256 6-13 6 0 3.48-7.529 4.014-9.5 5-10.137 5.069-20.852 8.926-31 14-6.062 3.031-25.279 16.058-28.5 22.5L73 109c0 5.017-5.815 11.131-8 15.5-.588 1.175-4 7.415-4 5.5l-1 1c2.264 0-2 10.34-2 12ZM397 143h1c0-9.776-6.918-17.337-11-25.5-9.135-18.27-25.993-35.246-44.5-44.5-8.788-4.394-18.176-7.588-27-12-1.938-.969-10.5-1.908-10.5-5-1.843 0-12-4.171-12-6-5.851 0-3.563 4.373-2 7.5.504 1.008.22 4.5-1 4.5 0 1.446.962 8 3 8 0-17.31 11.219-9.64 20.5-5 2.388 1.194 12.5 1.952 12.5 6 4.305 0 9.754 4.127 13.5 6l3.5 2h1c2.468 0 11 6.011 11 8h1l2 2h1c1.634 0 4 2.635 4 4h1c2.178 0 21 22.32 21 24v1c1.428 0 4 4.822 4 6v1l1 1v1l1 1v1l2 3v2l1 1v1l1 2v1l2 4Z"/><path fill="#08858A" id="VISp6b" d="M147 55c-7.952 0-24.154 9.327-31.5 13-1.655.827-8.5 2.559-8.5 5 3.443 0 26.859-11.68 31.5-14 1.535-.767 8.5-1.845 8.5-4Z"/><path fill="#CBC9C7" id="or" d="M73 105c2.091 0 0 2.863 0 4l9-11.5c3.221-6.442 22.438-19.469 28.5-22.5 10.148-5.074 20.863-8.931 31-14 1.971-.986 9.5-1.52 9.5-5v-1h-4c0 2.155-6.965 3.233-8.5 4-4.641 2.32-28.057 14-31.5 14 0 2.293-.997 2-3 2 0 1.772-7.346 6-9 6 0 1.747-.253 2-2 2 0 1.198-4.298 6-6 6l-6 6-8 10ZM398 143c0 1.792 3 12.878 3 8 0-4.569-1-8.923-1-13l-1-1-1-1v-1l-1-1v-2l-1-1v-1l-1-1v-2l-1-1-1-3-1-1-2-4-1-1v-1l-2-2c0-3.54-4-5.131-4-9l-7-10-7-7-16-12-10.5-6c-6.779-3.39-29.901-15-36.5-15l-1 1c0 3.092 8.562 4.031 10.5 5 8.824 4.412 18.212 7.606 27 12 18.507 9.254 35.365 26.23 44.5 44.5 4.082 8.163 11 15.724 11 25.5Z"/><path fill="#08828B" id="VISl4" d="m384 72-3 3c-3.439 0-13.585-14-19-14l2-6h1l19 16v1ZM75 75h1c1.963 0 13.743-14 19-14v-1l-3-4c-1.773 0-19 14.23-19 16l2 3Z"/><path fill="#FF7AFD" id="SCzo" d="M288 87h1v-3l-1-1-6-6c-2.48 0-8.964-6.732-11.5-8-9.378-4.689-19.71-7.355-29-12-4.411-2.206-10.919 5.339-12.5 8.5l-.5 3.5-2.5-5.5c-3.423-6.846-10.099-7.2-15.5-4.5-4.326 2.163-29.5 10.136-29.5 14 13.092 0 45-32.529 45 4l2.5 2 1.5-2c0-30.62 29.553-10.973 43.5-4 4.4 2.2 14.5 7.934 14.5 14Z"/><path fill="#C9CCC9" id="dhc" d="m159 73-2 1-10-1c0-3.254-14.276-2-17-2 0-3.443 10.289-4.894 12.5-6 11.328-5.664 20.5-11.188 20.5 6l-1 1-3 1ZM309 73l-10 1-1-1h-2l-2-2-1-1c0-17.31 11.219-9.64 20.5-5 2.388 1.194 12.5 1.952 12.5 6-1.991 0-14-.793-14 1h-1l-2 1Z"/><path fill="#FF78FF" id="SCsg" d="M169 84v2c5.469 0 11.796-4.648 16.5-7l28-10c5.688-2.844 9.686 8 12.5 8 0-36.529-31.908-4-45-4 0 1.89-6.374 6-8 6 0 1.747-.253 2-2 2 0 1.238-.423 3-2 3ZM230 77c3.759 0 6.691-10.905 12.5-8l33 12 12.5 6c0-6.066-10.1-11.8-14.5-14-13.947-6.973-43.5-26.62-43.5 4Z"/><path fill="#0B858B" id="VISl5" d="M82 83h1c0-1.764 14.825-14 17-14l-5-8c-5.257 0-17.037 14-19 14l6 8ZM381 76l-7 6c-4.218 0-12.394-13-18-13v-1c1.097 0 5-5.986 5-7h1c5.415 0 15.561 14 19 14v1Z"/><path fill="#47C83C" id="POST" d="M307 97h3c0-.688-9.657-5.814-11-8.5-4.516-9.031 0-7.969 0-14.5l-1-1h-2l-2-2-1-1c-2.038 0-3-6.554-3-8l-2 3-3 3-3 3-3 1 3 5 6 6 1 1v1c1.789 0 7.506 6.511 8 7.5l6 3.5 4 1Z"/><path fill="#0C858C" id="VISli1" d="M60 75h1c0-1.528 4.54-8 6-8v-1l-2-3c-1.26 0-5 3.346-5 5 2.206 0-.742 2-2 2l-1 1 3 4Z"/><path fill="#47C83C" id="POST" d="M149 97h3l1-1c4.067 0 6.643-7 10-7l1-1 1-1 2-2 1-1 1-1c0-1.747.253-2 2-2l1-2 1-1 1-1 1-1 1-1 1-1v-1l-2-2c-1.429 0-4-1.288-4-3l-3-3-1-2h-1c0 2.185.119 8-3 8l-1 1-3 1-1 2c0 7.026 3.332 5.836-1 14.5-1.392 2.784-11 6.297-11 7.5h3Z"/><path fill="#0C858C" id="VISli1" d="M396 75h1l2-4-1-2c0 2.068-3 .554-3-.5l1-1.5-4-4-3 3v1c1.782 0 7 6.482 7 8Z"/><path fill="#0A858A" id="VISli2/3" d="M65 80h1l6-8c0-1.654-3.74-5-5-5-1.46 0-6 6.472-6 8l4 5ZM396 75l-5 4-7-7v-1l5-4c1.782 0 7 6.482 7 8Z"/><path fill="#0B838B" id="VISal1" d="m396 67 2 2c0 2.068-3 .554-3-.5l1-1.5ZM60 68c2.206 0-.742 2-2 2l2-2Z"/><path fill="#08848C" id="VISl6a" d="M93 83c-2.773 0-3.67 4-6 4-1.365 0-4-2.366-4-4 0-1.764 14.825-14 17-14l3 5v1c-1.626 0-8 4.11-8 6-1.747 0-2 .253-2 2Z"/><path fill="#FD7AFF" id="SCop" d="m166 92 15.5-7c6.329-3.165 14.711-2.856 21-6 1.826-.913 8.914-4.043 11-3 3.49 1.745 7.137 5.568 10 7 2.729 1.365 3.66-2.67 5-2 1.283.641 2.095 2.953 4 2 5.888-2.944 9.444-9.778 17-6l30 10 10.5 5-1-5h-1l-12.5-6-33-12c-5.809-2.905-8.741 8-12.5 8l-1.5 2-2.5-2c-2.814 0-6.812-10.844-12.5-8l-28 10c-4.704 2.352-11.031 7-16.5 7l-1 1h-1l-1 5Z"/><path fill="#08848C" id="VISl6a" d="m374 83-4 4c-4.374 0-11.392-12-17-12v-1c1.477 0 3-3.924 3-5 5.606 0 13.782 13 18 13v1Z"/><path fill="#15B0B3" id="TEa1" d="m50 79 2 3.5c0 .538-2.043 1.5 0 1.5l8-9-3-4-7 8Z"/><path fill="#C7C8CC" id="alv" d="M131 73c0-2.859 14.532 0 16 0 0-3.254-14.276-2-17-2l-4 2h5Z"/><path fill="#7DCD4B" id="HPF" d="m163 71-1 1 1-1ZM294 71l2 2-2-2Z"/><path fill="#C7C8CC" id="alv" d="m336 76 7 3-3.5-2c-3.746-1.873-9.195-6-13.5-6-1.991 0-14-.793-14 1 1.908 0 13-.787 13 1 4.275 0 7.621 3 11 3Z"/><path fill="#15B0B3" id="TEa1" d="M406 79c0 2.735-1 1.913-1 5-2.385 0-8-7.659-8-9l2-4c1.876 0 7 5.652 7 8Z"/><path fill="#08828C" id="VISli4" d="M67 83h1l7-8-2-3h-1l-6 8 1 3Z"/><path fill="#4FC244" id="SUB" d="M136 97h10c0-1.203 9.608-4.716 11-7.5 4.332-8.664 1-7.474 1-14.5l-1-1-10-1c-1.468 0-16-2.859-16 0 1.684 0 1 4.68 1 6 0 3.898 1.3 10.1 3 13.5.574 1.147-1.064 4.5 1 4.5Z"/><path fill="#C7C8CC" id="alv" d="m311 72-2 1 2-1Z"/><path fill="#4FC244" id="SUB" d="M310 97h11c0-7.734 4-15.94 4-24 0-1.787-11.092-1-13-1h-1l-2 1-10 1c0 6.531-4.516 5.469 0 14.5 1.343 2.686 11 7.812 11 8.5Z"/><path fill="#08828C" id="VISli4" d="M388 83h1l2-2v-2l-7-7-3 3v1c2.571 0 7 4.429 7 7Z"/><path fill="#08858A" id="VISp6b" d="M103 75h1c2.003 0 3 .293 3-2l-4 1v1Z"/><path fill="#C7C8CC" id="alv" d="M126 73c-1.465 0-4-.109-4 2l4-2Z"/><path fill="#57B947" id="ProS" d="m136 97-11 5c0-9.124-5-17.509-5-26l1-1h1l4-2h5c1.684 0 1 4.68 1 6 0 3.898 1.3 10.1 3 13.5.574 1.147-1.064 4.5 1 4.5Z"/><path fill="#7DCD4B" id="HPF" d="m157 74 1 1 1-2-2 1Z"/><path fill="#FF7AFD" id="SCzo" d="M173 78v1c1.626 0 8-4.11 8-6l-4 1-1 1-1 1-1 1-1 1Z"/><path fill="#7DCD4B" id="HPF" d="m298 73 1 1-1-1Z"/><path fill="#57B947" id="ProS" d="m321 97 10 5 5-26c-3.379 0-6.725-3-11-3 0 8.06-4 16.266-4 24Z"/><path fill="#16AFB3" id="TEa2/3" d="M56 91h1l8-11-4-5h-1l-8 9v1l4 6Z"/><path fill="#0A848A" id="VISli5" d="M75 90h1c0-1.511 5.013-7 6-7l-6-8h-1l-7 8 7 7Z"/><path fill="#09858C" id="VISl6b" d="M104 75c0 1.772-7.346 6-9 6 0-1.89 6.374-6 8-6h1Z"/><path fill="#C7C8CC" id="alv" d="M119 76h1l1-1-2 1Z"/><path fill="#09858C" id="VISl6b" d="M369 88h1v-1c-4.374 0-11.392-12-17-12v1l16 12Z"/><path fill="#16AFB3" id="TEa2/3" d="M400 91h1c0-1.417 2.383-6 4-6v-1c-2.385 0-8-7.659-8-9h-1l-5 4v2c3.88 0 6.173 10 9 10Z"/><path fill="#C7C8CC" id="alv" d="m119 76-2 1 2-1Z"/><path fill="#7ECF4B" id="CA1" d="M114 241h1c5.706 0 15.651-12 17-12 0-3.023-11.744-11.988-13-14.5l-18-19-10-17c-2.01-4.019-1.971-8.943-4-13-5.036-10.073 6.22-31.44 10-39l12-13 16-11.5c0-9.124-5-17.509-5-26h-1l-2 1-2 1-2 1-2 1-1 1h-1l-1 1-2 1-1 1-1 1h-1l-1 1-1 1-2 1-1 1c0 1.577-1.762 2-3 2l-1 1-1 1-2 2h-1l-1 1-1 1-1 1-1 1-1 1-1 1-1 1-1 1-1 1v1l-1 1-1 1c0 1.238-.423 3-2 3l-1 1-1 1v1l-1 1-1 1-1 2-1 1v1l-1 1-1 1v1l-1 1v1l-1 1v1l-1 1-1 2v1l-1 1v1l-1 1v2l-1 2-1 2v2l-1 2v1c0 1.048.473 3-1 3v3c0 9.932-2.496 22.508 2 31.5 1.687 3.374 10 19.927 10 22.5v1c1.76 0 3.394 4.288 4 5.5 2.314 4.628 6.604 8.604 10.5 12.5 4.255 4.256 8.116 7.558 13 10l4.5 4h1l3 2h1c1.238 0 3 .423 3 2h3Z"/><path fill="#FF90FF" id="SCig" d="M161 134c0-2.592.958-3.416 2-5.5 1.957-3.914 1.996-8.993 4-13 6.308-12.617 24.381-20.44 36.5-26.5 1.734-.867 4.161-.08 6-1 1.219-.61 19.901 4.95 20 5 1.995.998 12.789-7.106 17-5 1.839.92 4.266.133 6 1 17.757 8.878 42.5 21.434 42.5 45l7.5-1 2.5-5v-12l-1-2v-1l-1-2v-2l-1-1v-1l-1-1v-1l-1-1-2-4c-1.577 0-2-1.762-2-3l-1-1-5-4-10.5-5-30-10c-7.556-3.778-11.112 3.056-17 6-1.905.953-2.717-1.359-4-2-1.34-.67-2.271 3.365-5 2-2.863-1.432-6.51-5.255-10-7-2.086-1.043-9.174 2.087-11 3-6.289 3.144-14.671 2.835-21 6L166 92l-3 2-1 1-1 1v1l-1 1-1 1v1l-1 1-1 1v1l-1 1v1l-1 1v1l-1 2-1 1v2l-1 2v2l-1 2v4l1 5c0 5.639 3.924 7 9 7Z"/><path fill="#7ECF4B" id="CA1" d="M344 241h1l2-1 2-1 2-1 2-1 2-1 1-1h1l1-1 1-1h1l1-1 1-1h1c0-1.747.253-2 2-2 0-1.577 1.762-2 3-2l1-1 1-1 1-1 1-1 1-1 1-1c0-1.429 1.288-4 3-4l1-1 1-1 1-2 1-1c0-1.238.423-3 2-3l1-2 1-2 1-2 1-1v-1c0-1.238.423-3 2-3 0-1.465-.109-4 2-4v-1l2-4c0-2.009 2.384-12 4-12v-32c-1.353 0-2-4.643-2-6v-1l-1-2v-1l-1-1v-2c-1.577 0-2-1.762-2-3v-1l-1-1v-1l-1-1v-1c-1.428 0-4-4.822-4-6v-1c-.171 0-13.749-16.249-16-18.5l-5-5.5h-1l-4-4h-1l-2-2h-1c-1.433 0-11-6.677-11-8h-1l-7-3-5 26 14 9.5 12 12c6.485 12.97 12 20.519 12 36.5v7.5l-4 12-9 15-13 14c-2.691 5.382-18 15.048-18 20.5 0 3.429 11.869 12 16 12h3Z"/><path fill="#0A848A" id="VISli5" d="m388 83-7 7-7-7v-1l7-6c2.571 0 7 4.429 7 7Z"/><path fill="#C7C8CC" id="alv" d="m117 77-2 1 2-1ZM115 78l-2 1 2-1Z"/><path fill="#039299" id="AUDpo1" d="m36 99 4 3 12-17v-1c-2.043 0 0-.962 0-1.5L50 79l-4 4.5L36 99Z"/><path fill="#C7C8CC" id="alv" d="m113 79-2 1 2-1Z"/><path fill="#FF7AFD" id="SCzo" d="M173 79c0 1.747-.253 2-2 2l1-2h1Z"/><path fill="#C7C8CC" id="alv" d="M344 79c2.468 0 11 6.011 11 8-1.433 0-11-6.677-11-8Z"/><path fill="#039299" id="AUDpo1" d="M416 103h1c0-1.429 1.288-4 3-4 0-1.736-12.676-20-14-20 0 2.735-1 1.913-1 5v1c0 6.095 11 11.37 11 18Z"/><path fill="#15B0B2" id="TEa4" d="M57 91c0 2.215 2 1.519 2 3 2.095 0 8-8.642 8-11l-1-3h-1l-8 11Z"/><path fill="#C7C8CC" id="alv" d="m111 80-1 1 1-1Z"/><path fill="#09858C" id="VISl6b" d="M95 81c-1.747 0-2 .253-2 2 1.747 0 2-.253 2-2Z"/><path fill="#C7C8CC" id="alv" d="m109 81-1 1 1-1Z"/><path fill="#FF7AFD" id="SCzo" d="M169 83v1c1.577 0 2-1.762 2-3-1.747 0-2 .253-2 2Z"/><path fill="#15B0B2" id="TEa4" d="M397 95h1l2-4c-2.827 0-5.12-10-9-10l-2 2c0 4.367 8 7.62 8 12Z"/><path fill="#C7C8CC" id="alv" d="m108 82-2 1 2-1Z"/><path fill="#15AFB3" id="TEa5" d="M65 103h1l9-13-7-7h-1c0 2.358-5.905 11-8 11v1c0 3.793 6 4.586 6 8Z"/><path fill="#088488" id="VISli6a" d="M79 95h1c0-2.204 4.744-7 7-7v-1c-1.365 0-4-2.366-4-4h-1c-.987 0-6 5.489-6 7 1.077 0 3 3.762 3 5Z"/><path fill="#09858C" id="VISl6b" d="M87 88v1c1.702 0 6-4.802 6-6-2.773 0-3.67 4-6 4v1Z"/><path fill="#C7C8CC" id="alv" d="m106 83-1 1 1-1Z"/><path fill="#088488" id="VISli6a" d="M381 91c-1.114 0-4 2.034-4 3l-7-6v-1l4-4 7 7v1Z"/><path fill="#15AFB3" id="TEa5" d="M390 103h1c0-3.186 6-5.044 6-8 0-4.38-8-7.633-8-12h-1l-7 7v1c2.105 0 9 10.086 9 12Z"/><path fill="#C7C8CC" id="alv" d="m105 84-1 1 1-1Z"/><path fill="#FF7AFD" id="SCzo" d="M167 87h1l1-1v-2h-1l-1 1v2Z"/><path fill="#029199" id="AUDpo2/3" d="M44 109h1c0-5.924 11-13.644 11-18l-4-6-12 17v1c1.028 0 4 4.666 4 6Z"/><path fill="#C7C8CC" id="alv" d="m103 85-1 1 1-1Z"/><path fill="#029199" id="AUDpo2/3" d="M412 109h1c0-1.643 1.338-6 3-6 0-6.63-11-11.905-11-18-1.617 0-4 4.583-4 6 0 6.473 11 11.71 11 18Z"/><path fill="#C7C8CC" id="alv" d="m102 86-1 1 1-1Z"/><path fill="#FF78FF" id="SCsg" d="m169 86-1 1 1-1Z"/><path fill="#C7C8CC" id="alv" d="m101 87-2 1 2-1Z"/><path fill="#7DCD4B" id="HPF" d="m165 87-1 1 1-1Z"/><path fill="#FF64FF" id="MB" d="M163 93v1l3-2 1-5-4 6ZM293 93l2 3-5-4-1-5c1.617 0 4 4.583 4 6Z"/><path fill="#C7C8CC" id="alv" d="m356 87 2 2-2-2Z"/><path fill="#08818B" id="VISli6b" d="M80 95h1l6-6v-1c-2.256 0-7 4.796-7 7Z"/><path fill="#C7C8CC" id="alv" d="m99 88-1 1 1-1Z"/><path fill="#7DCD4B" id="HPF" d="m164 88-1 1 1-1Z"/><path fill="#FF90FE" id="SCiw" d="M161 134c0-2.592.958-3.416 2-5.5 1.957-3.914 1.996-8.993 4-13 6.308-12.617 24.381-20.44 36.5-26.5 1.734-.867 4.161-.08 6-1 1.219-.61 19.901 4.95 20 5 1.995.998 12.789-7.106 17-5 1.839.92 4.266.133 6 1 17.757 8.878 42.5 21.434 42.5 45-8.517 0-16.307 4.097-24.5 0-3.752-1.876-6.314-13-9.5-13 0-8.251-5.95-20.725-12.5-24-5.07-2.535-11.369-2-17.5-2h-17.5c-9.767 4.883-18.5 14.49-18.5 26-.298 0-7.237 12.368-10.5 14-7.048 3.524-16.243-1-23.5-1Z"/><path fill="#08818B" id="VISli6b" d="M376 95h1v-1l-7-6h-1l7 7Z"/><path fill="#C7C8CC" id="alv" d="M98 89c-1.238 0-3 .423-3 2 1.238 0 3-.423 3-2ZM359 89c1.634 0 4 2.635 4 4l-4-4Z"/><path fill="#15AFB2" id="TEa6a" d="M69 108h1l1-1c0-4.787 8-7.96 8-12 0-1.238-1.923-5-3-5h-1l-9 13c0 2.297 3 1.849 3 5Z"/><path fill="#039298" id="AUDpo4" d="m45 109 2 2c2.387 0 11.29-16 12-16v-1c0-1.481-2-.785-2-3h-1c0 4.356-11 12.076-11 18Z"/><path fill="#C7C8CC" id="alv" d="m95 91-1 1 1-1Z"/><path fill="#15AFB2" id="TEa6a" d="m390 103-3 4-10-12v-1c0-.966 2.886-3 4-3 2.105 0 9 10.086 9 12Z"/><path fill="#039298" id="AUDpo4" d="M412 109c-1.481 0-.785 2-3 2l-3-3.5-8-12.5 2-4h1c0 6.473 11 11.71 11 18Z"/><path fill="#C7C8CC" id="alv" d="m94 92-1 1 1-1ZM93 93c-1.747 0-2 .253-2 2l2-2Z"/><path fill="#C7CBCB" id="bsc" d="M161 95h1l1-1v-1l-2 2ZM311 122c0 1.353 5.567 2 0 2l-5-2c0-1.145.579-4-1-4v-2l-1-2v-1l-1-2v-2l-1-1v-1l-1-1v-1l-1-1-2-4-2-3-1-1-2-3 2 1 1 1 1 1 2 2v1l2 2v1l1 1v1l1 1v1l1 1v1l1 1v2l1 2v1l1 1v2c0 1.247 2.467 5 4 5Z"/><path fill="#C7C8CC" id="alv" d="M364 93c2.178 0 21 22.32 21 24-.171 0-13.749-16.249-16-18.5l-5-5.5Z"/><path fill="#CAC7CB" id="fiber tracts" d="m295 94 1 1-1-1Z"/><path fill="#019197" id="AUDpo5" d="M48 113c3.242 0 5.319 4 9 4 .352 0 8-12.115 8-14 0-3.414-6-4.207-6-8-.71 0-9.613 16-12 16v1l1 1Z"/><path fill="#16B0B2" id="TEa6b" d="m73 105-2 2c0-4.787 8-7.96 8-12h2l-8 10Z"/><path fill="#C7C8CC" id="alv" d="m90 95-1 1 1-1Z"/><path fill="#CAC7CB" id="fiber tracts" d="m160 95-1 1 1-1Z"/><path fill="#C7CBCB" id="bsc" d="M157 101h1l1-1v-1l1-1 1-1v-2h-1l-1 1-1 2-1 1v2Z"/><path fill="#FF64FF" id="MB" d="m162 95-1 1v-1h1Z"/><path fill="#FF8FFF" id="SCdg" d="M201 123c0-29.251 55-28.887 55 0 1.041 0 5-.986 5-2 0-8.251-5.95-20.725-12.5-24-5.07-2.535-11.369-2-17.5-2h-17.5c-9.767 4.883-18.5 14.49-18.5 26 0 .913 5.014 2 6 2Z"/><path fill="#16B0B2" id="TEa6b" d="m387 108-1 1-3-4-7-10h1l10 12v1Z"/><path fill="#019197" id="AUDpo5" d="M409 113c-3.894 0-5.807 4-10 4 0-4.675-8-9.108-8-14 0-3.186 6-5.044 6-8h1l8 12.5 3 3.5v2Z"/><path fill="#C7C8CC" id="alv" d="m89 96-1 1 1-1Z"/><path fill="#7DCD4B" id="HPF" d="m153 96-1 1 1-1Z"/><path fill="#CAC7CB" id="fiber tracts" d="m297 96 2 2-2-2Z"/><path fill="#7DCD4B" id="HPF" d="m307 97-2 1-2-2 4 1Z"/><path fill="#C7C8CC" id="alv" d="m88 97-1 1 1-1Z"/><path fill="#7BD04A" id="DG-mo" d="m136 233 1 1c10.805 0 11-2.284 11-12h-1c0 8.805-10.728 7.043-14 .5-5.169-10.338-16.5-18-22-29l-6-6c-3.22-6.44-6.823-12.647-10-19v-6c-2.531-5.063-.29-13.421 2-18l2-7c7.439-14.878 26.545-27.522 40.5-34.5 6.508-3.254 4.803 4.895 3.5 7.5-3.184 6.368-17.229 13.459-22 23-3.947 7.893-6.326 21.347-2 30 2.427 4.854 9 11.957 9 17.5l2 2h2l-1-8v-1c-1.527 0-5-10.263-5-12v-1l-1-1-1-8 1-10 1-1v-1l1-1v-1c0-1.238.423-3 2-3 0-1.747.253-2 2-2 0-1.429 1.288-4 3-4l1-1 1-1 1-1 9-8.5 5-7.5v-1c0-1.424.362-5 2-5l-1-5-3-2h-13l-11 5-16 11.5-12 13c-3.78 7.56-15.036 28.927-10 39 2.029 4.057 1.99 8.981 4 13l10 17 18 19c1.256 2.512 13 11.477 13 14.5l4 4Z"/><path fill="#7DCD4B" id="HPF" d="M152 97v2l-3-2h3Z"/><path fill="#FF64FF" id="MB" d="m161 97-1 1 1-1ZM296 97l2 3c-1.577 0-2-1.762-2-3Z"/><path fill="#7BD04A" id="DG-mo" d="m321 233-4 2c-4.005 0-12.592-6.317-10-11.5l2-2.5h1c0 5.779 7.459 11.582 11 4.5 10.276-20.552 29.816-34.631 40-55l1-12c0-26.415-24.126-44.813-45.5-55.5-5.59-2.795-4.794 4.912-3.5 7.5 3.194 6.388 17.086 13.172 22 23 4.492 8.983 6.781 21.439 2 31-2.547 5.094-8 10.455-8 16.5l-1 1-1 1-1 1h-1v-9l1-2c1.579 0 1-2.855 1-4 1.638 0 2-3.576 2-5l1-2 1-1 1-10v-7l-1-1v-2c0-1.238-.423-3-2-3v-1c0-7.105-17.093-14.687-20-20.5l-4-7.5v-1c0-2.592-.958-3.416-2-5.5l2-4.5 2-1h14l10 5 14 9.5 12 12c6.485 12.97 12 20.519 12 36.5v7.5l-4 12-9 15-13 14c-2.691 5.382-18 15.048-18 20.5-1.366 0-4 2.366-4 4Z"/><path fill="#C7C8CC" id="alv" d="m87 98-1 1 1-1Z"/><path fill="#CAC7CB" id="fiber tracts" d="m158 98-1 1 1-1Z"/><path fill="#FF64FF" id="MB" d="m160 98-1 1 1-1Z"/><path fill="#029297" id="AUDp1" d="M31 110c0 1.579 2.855 1 4 1 2.804 0 2.916-8 5-8v-1l-4-3-5 11Z"/><path fill="#C7C8CC" id="alv" d="m86 99-1 1 1-1Z"/><path fill="#CAC7CB" id="fiber tracts" d="m299 99 2 2-2-2Z"/><path fill="#029297" id="AUDp1" d="m426 110-5 1-4-8c0-1.429 1.288-4 3-4l6 11Z"/><path fill="#C7C8CC" id="alv" d="m85 100-1 1 1-1Z"/><path fill="#CAC7CB" id="fiber tracts" d="M156 101h1v-1l-1 1Z"/><path fill="#FF64FF" id="MB" d="m159 100-1 1 1-1Z"/><path fill="#C7C8CC" id="alv" d="m84 101-1 1 1-1Z"/><path fill="#CAC7CB" id="fiber tracts" d="m156 101-1 1 1-1Z"/><path fill="#C7CBCB" id="bsc" d="M151 122c-2.569 0-4.765 3-6 3l-2-1.5 2-1.5 2-1 1-2 1-2v-1l1-1v-1l1-1v-3l1-1v-1l1-1v-2l1-1 1-1v-1l1-1h1v2l-1 1v1l-1 1v1l-1 2-1 1v2l-1 2v2l-1 2v4Z"/><path fill="#FF64FF" id="MB" d="m158 101-1 1v-1h1Z"/><path fill="#FF8FFE" id="SCdw" d="M201 124c2.23 0 5.822-8.144 7-10.5 3.504-7.008 22.192-12.154 29.5-8.5 4.65 2.325 10.054 5.608 12.5 10.5.827 1.655 2.559 8.5 5 8.5l1-1c0-28.887-55-29.251-55 0v1Z"/><path fill="#C7C8CC" id="alv" d="m83 102-1 1 1-1Z"/><path fill="#CAC7CB" id="fiber tracts" d="m301 102 1 1-1-1Z"/><path fill="#019298" id="AUDp2/3" d="M41 113h1l2-4c0-1.334-2.972-6-4-6-2.084 0-2.196 8-5 8v1c1.045 0 6-1.245 6 1Z"/><path fill="#029399" id="AUDpo6a" d="m57 118 5 2 7-12c0-3.151-3-2.703-3-5h-1c0 1.885-7.648 14-8 14v1Z"/><path fill="#C7C8CC" id="alv" d="m82 103-1 1 1-1Z"/><path fill="#65A83D" id="DG-sg" d="M147 221v1c0 8.805-10.728 7.043-14 .5-5.169-10.338-16.5-18-22-29l-6-6c-3.22-6.44-6.823-12.647-10-19v-6c-2.531-5.063-.29-13.421 2-18l2-7c7.439-14.878 26.545-27.522 40.5-34.5 6.508-3.254 4.803 4.895 3.5 7.5-3.184 6.368-17.229 13.459-22 23-3.947 7.893-6.326 21.347-2 30 2.427 4.854 9 11.957 9 17.5-2.862 0-6.077-6.654-7-8.5-8.392-16.783-6-15.289-6-33.5 1.292 0 3.36-7.22 4-8.5 1.117-2.234 16.692-20.096 13.5-18.5-14.554 7.277-26.166 18.832-33.5 33.5-1.826 3.652-2 9.636-2 14 0 1.19-.615 4.5 1 4.5 0 13.685 14.846 30.346 24.5 40 1.816 1.816 5.596 11 8.5 11 0 5.202 13 15.438 13 5h3v1Z"/><path fill="#CAC7CB" id="fiber tracts" d="m155 103-1 1 1-1Z"/><path fill="#FF64FF" id="MB" d="m157 103-1 1 1-1Z"/><path fill="#65A83D" id="DG-sg" d="M310 220h2c0 9.163 12 2.975 12-3l1-1 14-17.5c8.105-16.211 20-20.401 20-41.5 0-13.311-9.525-30.013-21.5-36l-11-8-4.5-.5 5 5c2.892 5.783 14 12.996 14 21.5 0 2.128 1.054 5.608 2 7.5 3.535 7.069-5.333 21.667-8 27-.829 1.658-3.415 7.5-6 7.5 0-6.045 5.453-11.406 8-16.5 4.781-9.561 2.492-22.017-2-31-4.914-9.828-18.806-16.612-22-23-1.294-2.588-2.09-10.295 3.5-7.5 21.374 10.687 45.5 29.085 45.5 55.5l-1 12c-10.184 20.369-29.724 34.448-40 55-3.541 7.082-11 1.279-11-4.5v-1Z"/><path fill="#029399" id="AUDpo6a" d="M394 121h1l4-3v-1c0-4.675-8-9.108-8-14h-1l-3 4v1c0 4.19 7 8.142 7 13Z"/><path fill="#019298" id="AUDp2/3" d="M414 113h1c0-1.684 4.679-1 6-1v-1l-4-8h-1c-1.662 0-3 4.357-3 6l1 4Z"/><path fill="#CAC7CB" id="fiber tracts" d="m154 104-1 1v-1h1Z"/><path fill="#FF64FF" id="MB" d="m300 104 1 1-1-1Z"/><path fill="#CAC7CB" id="fiber tracts" d="m302 104 1 1-1-1Z"/><path fill="#CCC8CA" id="ar" d="M65 119h1l1-1v-1l1-1c0-1.294 3.609-7 5-7 0-1.137 2.091-4 0-4l-2 2v1c0 3.684-6 6.86-6 11Z"/><path fill="#C7C8CC" id="alv" d="m81 105-1 1 1-1Z"/><path fill="#FF64FF" id="MB" d="m156 105-1 1 1-1Z"/><path fill="#FC8FFF" id="PAG" d="M215 145c0-2.268 5.85-2.825 7.5-2l3.5 5 1-21c0-4.206 2-.49 2 2l2 16c2.029 0 1.881-1.191 3.5-2l7.5 1h1c0-5.377 6.382-13 12-13v-7c-2.441 0-4.173-6.845-5-8.5-2.446-4.892-7.85-8.175-12.5-10.5-7.308-3.654-25.996 1.492-29.5 8.5-1.178 2.356-4.77 10.5-7 10.5v7h1l1 1c6.584 0 10.889 13 12 13Z"/><path fill="#CCC8CA" id="ar" d="M394 126h1c0-2.25-2-3.376-2-5v-1l-1-1-6-10-3-4c0 3.869 4 5.46 4 9l2 2v1l1 1 2 4 1 1 1 3Z"/><path fill="#C7C8CC" id="alv" d="m80 106-1 1 1-1Z"/><path fill="#FF64FF" id="MB" d="m301 106 1 1-1-1Z"/><path fill="#CAC7CB" id="fiber tracts" d="m303 106 1 1-1-1Z"/><path fill="#16B0B2" id="TEa6b" d="M70 108h1v-1l-1 1Z"/><path fill="#C7C8CC" id="alv" d="M79 107c-1.577 0-2 1.762-2 3 1.577 0 2-1.762 2-3Z"/><path fill="#CAC7CB" id="fiber tracts" d="m153 107-1 1 1-1Z"/><path fill="#FF64FF" id="MB" d="m155 107-1 2 1-2Z"/><path fill="#029298" id="AUDpo6b" d="M63 121h1l1-2c0-4.14 6-7.316 6-11h-2l-7 12v1h1Z"/><path fill="#FF64FF" id="MB" d="m302 108 1 1-1-1Z"/><path fill="#CAC7CB" id="fiber tracts" d="M305 108v1l-1-1h1Z"/><path fill="#029298" id="AUDpo6b" d="M393 121h1c0-4.858-7-8.81-7-13l-1 1 6 10 1 1v1Z"/><path fill="#039397" id="AUDp4" d="M46 113h1v-2l-2-2h-1l-2 4h4Z"/><path fill="#CBC9C7" id="or" d="M61 128v2c0 1.915 3.412-4.325 4-5.5 2.185-4.369 8-10.483 8-15.5-1.391 0-5 5.706-5 7l-1 1v1l-1 1-1 1v1l-1 1v1l-1 1-1 3-1 1Z"/><path fill="#CAC7CB" id="fiber tracts" d="m152 109-1 1v-1h1Z"/><path fill="#FF64FF" id="MB" d="m154 109-1 1 1-1Z"/><path fill="#039397" id="AUDp4" d="M410 113h4l-1-4h-1c-1.481 0-.785 2-3 2v1l1 1Z"/><path fill="#019099" id="AUDv1" d="M28 135h1c0-8.354 6-17.658 6-23v-1c-1.145 0-4 .579-4-1-2.432 0-7 20.852-7 25h4Z"/><path fill="#C7C8CC" id="alv" d="m77 110-1 1 1-1Z"/><path fill="#019099" id="AUDv1" d="M428 135h4c0-9.332-6-18.576-6-25l-5 1v1c0 6.169 7 15.226 7 23Z"/><path fill="#029198" id="AUDv2/3" d="M29 135h5c0-7.685 7-15.858 7-22 0-2.245-4.955-1-6-1 0 5.342-6 14.646-6 23Z"/><path fill="#C7C8CC" id="alv" d="m76 111-1 1 1-1Z"/><path fill="#FF64FF" id="MB" d="m303 111 1 2-1-2Z"/><path fill="#CAC7CB" id="fiber tracts" d="m305 111 1 2-1-2Z"/><path fill="#039199" id="AUDp5" d="M47 113h1l-1-1v1Z"/><path fill="#7ECE4A" id="DG-po" d="M115 139c1.292 0 3.36-7.22 4-8.5 1.117-2.234 16.692-20.096 13.5-18.5-14.554 7.277-26.166 18.832-33.5 33.5-1.826 3.652-2 9.636-2 14 0 1.19-.615 4.5 1 4.5 0-10.186 2.834-17.167 7-25.5 2.049-4.099 10-5.396 10 .5Z"/><path fill="#FF64FF" id="MB" d="m153 112-1 2 1-2Z"/><path fill="#7ECE4A" id="DG-po" d="M341 139c2.102 0 1.99-6.255 6.5-4 5.401 2.7 7.258 11.016 9.5 15.5.567 1.134.546 6.5 2 6.5 0-13.311-9.525-30.013-21.5-36l-11-8-4.5-.5 5 5c2.892 5.783 14 12.996 14 21.5Z"/><path fill="#039199" id="AUDp5" d="M410 113v1l-1-1v-1l1 1Z"/><path fill="#029198" id="AUDv2/3" d="M422 135h6c0-7.774-7-16.831-7-23-1.321 0-6-.684-6 1 0 4.128 7 13.761 7 22Z"/><path fill="#029197" id="AUDv4" d="M34 135h4c0-8.111 8-16.063 8-22h-5c0 6.142-7 14.315-7 22Z"/><path fill="#019098" id="AUDv5" d="M49 137h1c0-6.456 7-15.781 7-19v-1c-3.681 0-5.758-4-9-4h-2c0 5.937-8 13.889-8 22 4.143 0 6.519 2 11 2Z"/><path fill="#C7C8CC" id="alv" d="m75 113-1 1 1-1Z"/><path fill="#CAC7CB" id="fiber tracts" d="m151 113-1 1 1-1Z"/><path fill="#019098" id="AUDv5" d="M419 136c-3.353 0-7.506 1-12 1 0-2.331-6.454-19-8-19v-1c4.193 0 6.106-4 10-4l1 1c1.872 0 9 18.173 9 21v1Z"/><path fill="#029197" id="AUDv4" d="M419 135h3c0-8.239-7-17.872-7-22h-5v1c1.872 0 9 18.173 9 21Z"/><path fill="#C7C8CC" id="alv" d="m74 114-1 1 1-1Z"/><path fill="#FF64FF" id="MB" d="m304 114 1 2-1-2Z"/><path fill="#CAC7CB" id="fiber tracts" d="m306 114 1 1-1-1Z"/><path fill="#C8C9CA" id="fp" d="m387 114 2 2-2-2Z"/><path fill="#C7C8CC" id="alv" d="m73 115-1 2 1-2Z"/><path fill="#CAC7CB" id="fiber tracts" d="m150 115-1 1 1-1Z"/><path fill="#C8C9CA" id="fp" d="m68 116-1 1 1-1Z"/><path fill="#FF64FF" id="MB" d="m152 116-1 2 1-2Z"/><path fill="#C7C8CC" id="alv" d="m72 117-1 1 1-1Z"/><path fill="#CAC7CB" id="fiber tracts" d="m149 117-1 2 1-2ZM307 117l4 5c-1.533 0-4-3.753-4-5Z"/><path fill="#C8C9CA" id="fp" d="m389 117 1 1-1-1Z"/><path fill="#019397" id="AUDv6a" d="m50 137 5 1 2-3c0-1.623.005-6 2-6 0-1.424.362-5 2-5 0-1.048-.473-3 1-3v-1l-5-2c0 3.219-7 12.544-7 19Z"/><path fill="#C8C9CA" id="fp" d="m67 118-1 1 1-1Z"/><path fill="#FF64FF" id="MB" d="m306 122-1 1v-5c1.579 0 1 2.855 1 4Z"/><path fill="#C7C8CC" id="alv" d="M385 118c1.428 0 4 4.822 4 6-1.428 0-4-4.822-4-6Z"/><path fill="#019397" id="AUDv6a" d="m407 137-6 1c0-6.172-6-11.271-6-17l4-3c1.546 0 8 16.669 8 19Z"/><path fill="#CCC8CA" id="ar" d="M64 121h1v-2l-1 2Z"/><path fill="#C8C9CA" id="fp" d="m66 119-1 1v-1h1Z"/><path fill="#C7C8CC" id="alv" d="m71 119-1 1 1-1Z"/><path fill="#CAC7CB" id="fiber tracts" d="m148 119-1 2 1-2Z"/><path fill="#CBC9C7" id="or" d="m392 119 1 1-1-1Z"/><path fill="#C7C8CC" id="alv" d="m70 120-1 1 1-1Z"/><path fill="#019198" id="AUDv6b" d="m63 123-2 1c0-1.048-.473-3 1-3h1v2Z"/><path fill="#CCC8CA" id="ar" d="M63 123h1v-2h-1v2Z"/><path fill="#C8C9CA" id="fp" d="m65 121-1 1v-1h1Z"/><path fill="#CAC7CB" id="fiber tracts" d="m147 121-2 1 2-1Z"/><path fill="#FF64FF" id="MB" d="m151 135 2 6c5.385 0 14.796 7.352 21.5 4 8.19-4.095 16.843-14 26.5-14v-8c-.986 0-6-1.087-6-2-.298 0-7.237 12.368-10.5 14-7.048 3.524-16.243-1-23.5-1-5.076 0-9-1.361-9-7l-2 2c0 1.564 1 3.876 1 6ZM305 135c0 1.357-.647 6-2 6-6.383 0-13.818 7.341-20.5 4-8.307-4.153-17.741-14-27.5-14v-7l1-1c1.041 0 5-.986 5-2 3.186 0 5.748 11.124 9.5 13 8.193 4.097 15.983 0 24.5 0l7.5-1 2.5-5 2 1c-1.995 0-2 4.377-2 6Z"/><path fill="#019198" id="AUDv6b" d="M400 138h1c0-6.172-6-11.271-6-17h-2c0 1.624 2 2.75 2 5v1c2.053 0 4 7.351 4 9v1l1 1Z"/><path fill="#C7C8CC" id="alv" d="m69 122-1 1 1-1Z"/><path fill="#FF8EFF" id="DT" d="m152 127-2 2c-1.247 0-5-2.467-5-4 1.235 0 3.431-3 6-3l1 5ZM305 128l2 1c1.634 0 4-2.634 4-4v-1l-5-2-1 1v5Z"/><path fill="#C8C9CA" id="fp" d="m392 122 1 1-1-1Z"/><path fill="#CCC8CA" id="ar" d="M61 127h1l1-3v-1l-2 1v3Z"/><path fill="#C8C9CA" id="fp" d="m64 123-1 1v-1h1Z"/><path fill="#019198" id="AUDv6b" d="m61 127-2 2c0-1.424.362-5 2-5v3Z"/><path fill="#C7C8CC" id="alv" d="m68 124-1 1 1-1Z"/><path fill="#FF6F80" id="TH" d="M149 135h2c0-2.124-1-4.436-1-6-1.247 0-5-2.467-5-4l-8 1v1c4.926 0 12 2.474 12 8Z"/><path fill="#A9A9A8" id="AQ" d="m227 127 2 2c0-2.49-2-6.206-2-2Z"/><path fill="#FF6F80" id="TH" d="M305 135h3c0-5.203 5.248-8 11-8 0-2.488-6.101-2-8-2 0 1.366-2.366 4-4 4-1.995 0-2 4.377-2 6Z"/><path fill="#C7C8CC" id="alv" d="m389 125 1 1-1-1ZM67 126l-1 1 1-1Z"/><path fill="#C8C9CA" id="fp" d="M395 126v1l-1-1h1Z"/><path fill="#CCC8CA" id="ar" d="M59 132h1v-1l1-1v-3l-2 2v3Z"/><path fill="#C8C9CA" id="fp" d="m62 127-1 1v-1h1Z"/><path fill="#C7C8CC" id="alv" d="m66 127-1 2 1-2Z"/><path fill="#FF8E9D" id="SGN" d="M137 145h4c2.789 0 3.42-4 6-4 0-1.623.005-6 2-6 0-5.526-7.074-8-12-8h-1l-1 1-1 1v2l3 14Z"/><path fill="#FF64FF" id="MB" d="m226 155 5 1v-11l-2-16-2-2-1 21v7Z"/><path fill="#FF8E9D" id="SGN" d="M316 145h3c0-3.889 4-10.069 4-14l-4-4c-5.752 0-11 2.797-11 8l1 5 7 5Z"/><path fill="#C7C8CC" id="alv" d="m390 127 1 1-1-1Z"/><path fill="#CCC8CA" id="ar" d="M398 136h1c0-1.649-1.947-9-4-9v2l1 1v1l1 1v2l1 1v1Z"/><path fill="#019198" id="AUDv6b" d="M57 135h1c0-1.048-.473-3 1-3v-3c-1.995 0-2 4.377-2 6Z"/><path fill="#C7C8CC" id="alv" d="m391 129 2 3c-1.577 0-2-1.762-2-3Z"/><path fill="#C8C9CA" id="fp" d="m395 129 1 1-1-1Z"/><path fill="#C7C8CC" id="alv" d="m65 130-1 1 1-1Z"/><path fill="#CBC9C7" id="or" d="M58 143c0 1.943-.477 10-3 10l1-15h1l1-1v-1l1-1v-2l1-1v-1c2.264 0-2 10.34-2 12Z"/><path fill="#FE7F82" id="MGd" d="m135 148-4.5-1c-1.412.706-5.954 5-6.5 5l1-10 1-1v-1l1-1v-1c1.577 0 2-1.762 2-3l2-2 3-2 3 14c0 1.238-.423 3-2 3Z"/><path fill="#FF8FFD" id="MRN" d="M187 193h3c1.238 0 3-.423 3-2 0-1.349-19.865-8.77-14-20.5 10.015-20.031 38-13.034 38 9.5 3.306 0 5-14.585 5-17-2.293 0-2-.997-2-3v-1l-1-1c-4.456 0-7.257 1.987-10-3.5-1.266-2.531-1.786-11.5 2.5-11.5l3.5 4v-2c-1.111 0-5.416-13-12-13l-1-1h-1c-9.657 0-18.31 9.905-26.5 14-6.704 3.352-16.115-4-21.5-4l2 15c0 3.804-2 5.587-2 9 0 10.643 4.222 17.361 13.5 22 1.965.982 14.5 2.816 14.5 5 2.124 0 4.436 1 6 1Z"/><path fill="#FF64FF" id="MB" d="m202 131 1 1-1-1Z"/><path fill="#FF8FFD" id="MRN" d="M267 193h2l6-1c0-1.59 4.386-1.443 5.5-2 3.47-1.735 9.56-5 13.5-5 0-1.577 1.762-2 3-2 0-1.737 7-11.688 7-18 0-2.522-2-4.909-2-8l1-16c-6.383 0-13.818 7.341-20.5 4-8.307-4.153-17.741-14-27.5-14-5.618 0-12 7.623-12 13 16.016 0-5 23.92-5 12h-1v2c0 1.622.461 5-2 5 0 2.818.42 18 5 18 0-20.911 26.839-31.821 37-11.5 2.998 5.997-.801 14.65-6.5 17.5l-7.5 4 4 2Z"/><path fill="#FE7F82" id="MGd" d="m321 148 5.5-1 5.5 4v-7l-1-1v-2l-2-3v-1l-6-6c0 3.931-4 10.111-4 14 0 2.215 2 1.519 2 3Z"/><path fill="#C8C9CA" id="fp" d="m396 131 1 1-1-1Z"/><path fill="#CCC8CA" id="ar" d="M58 135h1v-3c-1.473 0-1 1.952-1 3Z"/><path fill="#C8C9CA" id="fp" d="m60 132-1 1v-1h1Z"/><path fill="#C7C8CC" id="alv" d="m64 132-1 1 1-1ZM393 134l1 1-1-1Z"/><path fill="#C8C9CA" id="fp" d="m397 134 1 1-1-1Z"/><path fill="#15B0B3" id="TEa1" d="M24 157h5v-1c0-6.228-1-14.097-1-21h-4v22Z"/><path fill="#16AFB3" id="TEa2/3" d="M35 155c-1.564 0-3.876 1-6 1 0-6.228-1-14.097-1-21h6c0 6.937 1 13.531 1 20Z"/><path fill="#15B0B2" id="TEa4" d="M35 155h3c0-1.698-1.195-5.89-2-7.5-1.322-2.644 2-9.729 2-12.5h-4c0 6.937 1 13.531 1 20Z"/><path fill="#15AFB3" id="TEa5" d="M38 155h9v-1l2-17c-4.481 0-6.857-2-11-2 0 2.771-3.322 9.856-2 12.5.805 1.61 2 5.802 2 7.5Z"/><path fill="#019198" id="AUDv6b" d="M56 138h1v-3l-2 3h1Z"/><path fill="#CCC8CA" id="ar" d="M57 137h1v-2h-1v2Z"/><path fill="#C8C9CA" id="fp" d="m59 135-1 1v-1h1Z"/><path fill="#C7C8CC" id="alv" d="m63 135-1 2 1-2Z"/><path fill="#7ECF49" id="CA3" d="M144 219v1c-5.643 0-11.705-5-13-5-2.904 0-6.684-9.184-8.5-11-9.654-9.654-24.5-26.315-24.5-40 0-10.186 2.834-17.167 7-25.5 2.049-4.099 10-5.396 10 .5 0 18.211-2.392 16.717 6 33.5.923 1.846 4.138 8.5 7 8.5l2 2v1l5 9v2c0 8.655 9 15.181 9 24Z"/><path fill="#FF8D9D" id="POL" d="m153 141 2 15c-8.483 0-8-6.868-8-15 0-1.623.005-6 2-6h2l2 6ZM303 141l-1 16c8.675 0 7-10.913 7-17l-1-5h-3c0 1.357-.647 6-2 6Z"/><path fill="#7ECF49" id="CA3" d="m324 217-6.5 3c-1.956.978-4.077-1-5.5-1l1-5 1-2 1-2 1-2 1-2v-1l1-2 1-2c1.014 0 2-3.959 2-5v-1c1.473 0 1-1.952 1-3 1.473 0 1-1.952 1-3l2-4 1-1 1-1 1-1 1-1c2.585 0 5.171-5.842 6-7.5 2.667-5.333 11.535-19.931 8-27-.946-1.892-2-5.372-2-7.5 2.102 0 1.99-6.255 6.5-4 5.401 2.7 7.258 11.016 9.5 15.5.567 1.134.546 6.5 2 6.5 0 21.099-11.895 25.289-20 41.5L325 216l-1 1Z"/><path fill="#15AFB3" id="TEa5" d="M409 155h10v-19c-3.353 0-7.506 1-12 1 0 5.858 2 10.73 2 17v1Z"/><path fill="#15B0B2" id="TEa4" d="M419 155h2c0-3.108.737-4.973 2-7.5 1.695-3.391-1-9.589-1-12.5h-3v20Z"/><path fill="#16AFB3" id="TEa2/3" d="m421 155 7 2v-22h-6c0 2.911 2.695 9.109 1 12.5-1.263 2.527-2 4.392-2 7.5Z"/><path fill="#15B0B3" id="TEa1" d="M428 157h4v-22h-4v22Z"/><path fill="#C7C8CC" id="alv" d="m394 136 1 2-1-2Z"/><path fill="#C8C9CA" id="fp" d="M399 136v1l-1-1h1Z"/><path fill="#15AFB2" id="TEa6a" d="m47 154 6 1 2-17-5-1h-1l-2 17Z"/><path fill="#C8C9CA" id="fp" d="m58 137-1 1v-1h1Z"/><path fill="#C7C8CC" id="alv" d="m62 137-1 2 1-2Z"/><path fill="#CCC8CA" id="ar" d="m399 137 1 1-1-1Z"/><path fill="#15AFB2" id="TEa6a" d="m409 154-6 1v-1l-2-16 6-1c0 5.858 2 10.73 2 17Z"/><path fill="#16B0B2" id="TEa6b" d="m55 154-2 1 2-17h1l-1 15v1ZM402 154h1l-2-16h-1c0 4.077 1 8.431 1 13 1.473 0 1 1.952 1 3Z"/><path fill="#C7C8CC" id="alv" d="M397 143v2c-1.353 0-2-4.643-2-6l2 4Z"/><path fill="#FF6F80" id="TH" d="m304 165 3 5c0-5.844 1.258-13 7-13 0-3.47 2-8.403 2-12l-7-5c0 6.087 1.675 17-7 17 0 3.091 2 5.478 2 8Z"/><path fill="#C7C8CC" id="alv" d="m61 141-1 2 1-2Z"/><path fill="#FF6F80" id="TH" d="m153 165-3 4c0-3.512-2.443-13-7-13 0-4.296-2-7.018-2-11 2.789 0 3.42-4 6-4 0 8.132-.483 15 8 15 0 3.804-2 5.587-2 9Z"/><path fill="#C8CBCC" id="ec" d="M113 242v1l-10-4-2-1-1-1-3-2-1-1-2-1-5-4-7-6-2-2-9-12.5c-4.651-9.302-14-19.495-14-30.5 0-1.257-.94-8-2-8v-17c2.523 0 3-8.057 3-10h2v1c-1.473 0-1 1.952-1 3v3c-1.612 0-2 12.325-2 14.5 0 11.153 4.337 21.674 9 31 .827 1.655 2.559 8.5 5 8.5v1c0 3.945 5.306 7.111 7 10.5 2.266 4.531 18.88 21.5 25 21.5h1c0 1.577 1.762 2 3 2h1c0 1.577 1.762 2 3 2h2v1Z"/><path fill="#FF90FD" id="INC" d="M219 156v2c-4.456 0-7.257 1.987-10-3.5-1.266-2.531-1.786-11.5 2.5-11.5l3.5 4 1 3 1 1v1l1 1v1l1 1v1Z"/><path fill="#FD8FFD" id="ND" d="M220 157h3l3-5v-4l-3.5-5c-1.65-.825-7.5-.268-7.5 2v2l1 3 1 1v1l1 1v1l1 1v1l1 1ZM234 157h3v-1l1-2 1-1 1-2v-1l1-1v-1l1-1v-3l-7.5-1c-1.619.809-1.471 2-3.5 2v9l3 3Z"/><path fill="#FF90FD" id="INC" d="M238 154v2c0 11.92 21.016-12 5-12l-1 2v1l-1 1v1l-1 1v1l-1 2-1 1Z"/><path fill="#C8CBCC" id="ec" d="M385 205v2c4.129 0 14-24.328 14-29l1-1c0-1.145-.579-4 1-4v-3c0-5.479 1-11.075 1-16 0-1.048.473-3-1-3 0 4.878-3-6.208-3-8h-1v5c2.064 0 .426 3.353 1 4.5 2.152 4.305 2.152 16.695 0 21-.523 1.046.951 3.5-1 3.5 0 2.186-1.733 12-4 12 0 1.465.109 4-2 4v1l-2 4c0 1.238-.423 3-2 3v1l-1 1-1 2Z"/><path fill="#C7C8CC" id="alv" d="M60 144c-1.473 0-1 1.952-1 3 1.473 0 1-1.952 1-3Z"/><path fill="#FF8FFD" id="MRN" d="m243 144-1 2v-2h1Z"/><path fill="#FD7F83" id="MGm" d="M143 156c0 4.739-6.089 8-9 8l3-5.5c1.889-3.777-2-7.892-2-10.5 1.577 0 2-1.762 2-3h4c0 3.982 2 6.704 2 11ZM314 157c0 3.715 4.669 7 8 7 0-1.598-2.177-6.853-3-8.5-1.465-2.931 2-5.297 2-7.5 0-1.481-2-.785-2-3h-3c0 3.597-2 8.53-2 12Z"/><path fill="#FE7E83" id="MGv" d="M130 164h4l3-5.5c1.889-3.777-2-7.892-2-10.5l-4.5-1c-1.412.706-5.954 5-6.5 5l1 8 1 1 1 1 1 1 2 1Z"/><path fill="#FF8FFD" id="MRN" d="m242 147-1 1 1-1Z"/><path fill="#FE7E83" id="MGv" d="M327 164h1l1-1 1-1 1-1 1-10-5.5-4-5.5 1c0 2.203-3.465 4.569-2 7.5.823 1.647 3 6.902 3 8.5h5Z"/><path fill="#C7C8CC" id="alv" d="M397 148c2.064 0 .426 3.353 1 4.5 2.152 4.305 2.152 16.695 0 21-.523 1.046.951 3.5-1 3.5v-29Z"/><path fill="#FF8FFD" id="MRN" d="m241 149-1 1 1-1Z"/><path fill="#C7C8CC" id="alv" d="M59 150c-1.612 0-2 12.325-2 14.5 0 11.153 4.337 21.674 9 31 .827 1.655 2.559 8.5 5 8.5 0-2.573-8.313-19.126-10-22.5-4.496-8.992-2-21.568-2-31.5Z"/><path fill="#FF8FFD" id="MRN" d="m216 150 1 1-1-1Z"/><path fill="#CBCBCC" id="mlf" d="m240 151-1 2 1-2ZM217 152l1 1-1-1Z"/><path fill="#FC8FFF" id="PAG" d="m223 158 2 1c0-1.048-.473-3 1-3v-4l-3 5v1Z"/><path fill="#CBCBCC" id="mlf" d="m239 153-1 1 1-1Z"/><path fill="#0E9F91" id="ECT6a" d="M51 170h4v-2c-.964 0-2-11.483-2-13l-6-1v1c0 5.64 3 9.742 3 15h1Z"/><path fill="#0E9F90" id="ECT6b" d="M53 155c0 1.517 1.036 13 2 13v-14l-2 1Z"/><path fill="#CBCBCC" id="mlf" d="m218 154 1 1-1-1Z"/><path fill="#FC8FFF" id="PAG" d="M231 159h1l1-1 1-1-3-3v5Z"/><path fill="#CBCBCC" id="mlf" d="M237 156h1v-2l-1 2Z"/><path fill="#0E9F90" id="ECT6b" d="M401 170h1l1-15v-1h-1c0 4.925-1 10.521-1 16Z"/><path fill="#0E9F91" id="ECT6a" d="M402 170h4c0-4.812 3-9.327 3-15v-1l-6 1-1 15Z"/><path fill="#0D9F91" id="ECT2/3" d="M34 169h9l-5-14h-3c-1.564 0-3.876 1-6 1v1c0 5.021 4 7.383 4 12h1Z"/><path fill="#0D9E90" id="ECT5" d="m43 169 7 1c0-5.258-3-9.36-3-15h-9l5 14Z"/><path fill="#FE8FFC" id="EW" d="M231 156v3c0 1.791-2.667 10.165-5 5.5V155l5 1Z"/><path fill="#0D9E90" id="ECT5" d="M413 169h1c0-5.062 5-9.347 5-14h-10c0 5.673-3 10.188-3 15l7-1Z"/><path fill="#0D9F91" id="ECT2/3" d="M422 169h1c0-4.329 5-7.604 5-12l-7-2h-2c0 4.653-5 8.938-5 14h8Z"/><path fill="#FE8D9E" id="PIL" d="m149 171-2 1c-1.804 0-5.136 2.182-7.5 1-1.586-.793-7.094-5-8.5-5l-2-2v-1l1-1h4c2.911 0 9-3.261 9-8 4.557 0 7 9.488 7 13l-1 2Z"/><path fill="#CBCBCC" id="mlf" d="m219 158 1 1v-2l-1-1v2Z"/><path fill="#FF64FF" id="MB" d="M249 190v5c-3.024 0-5.923-6-12-6l-1-2c0-4.527-2-7.754-2-12 0-2.836-4-8.594-4-7h-4c0-2.026-2 .104-2 1-1.473 0-1 1.952-1 3-1.486 0-1.486 3 0 3 0 1.351-4.306 11-2 11l-2 4c0-3.92-10.012 4-11 4l-1-4 2-1 1-1c1.247 0 5-2.467 5-4l1-1v-1l1-1v-1c3.306 0 5-14.585 5-17l-2-3v-3h3v1c-3.867 0 2 7.637 2 1 0-1.048-.473-3 1-3v8.5c2.333 4.665 5-3.709 5-5.5h1c0 7.793 4.37-1 1-1l1-1h3v1c-1.014 0-2 3.959-2 5 0 2.818.42 18 5 18v1l1 1 1 2 1 1 3 2 1 1h2v1Z"/><path fill="#FE8D9E" id="PIL" d="m307 171 2 1c1.804 0 5.136 2.182 7.5 1 1.586-.793 7.094-5 8.5-5l2-1v-3h-5c-3.331 0-8-3.285-8-7-5.742 0-7 7.156-7 13v1Z"/><path fill="#0D9F90" id="ECT1" d="M33 169c0 1.577-1.762 2-3 2 0-2.844-6-7.554-6-14h5c0 5.021 4 7.383 4 12ZM423 169l3 2c4.138 0 6-10.653 6-14h-4c0 4.396-5 7.671-5 12Z"/><path fill="#FE90FD" id="RN" d="M207 190c-4.121 0-9.275 1-14 1 0-1.349-19.865-8.77-14-20.5 10.015-20.031 38-13.034 38 9.5v1l-1 1v1l-1 1c0 1.533-3.753 4-5 4l-1 1-2 1Z"/><path fill="#FC8EFF" id="MA3" d="m223 158 2 1c0 6.637-5.867-1-2-1ZM233 158c3.37 0-1 8.793-1 1l1-1Z"/><path fill="#CBCBCC" id="mlf" d="M237 158c-1.014 0-2 3.959-2 5 2.461 0 2-3.378 2-5Z"/><path fill="#FE90FD" id="RN" d="M250 190c3.629 0 8.716 1 13 1l7.5-4c5.699-2.85 9.498-11.503 6.5-17.5-10.161-20.321-37-9.411-37 11.5v1l1 1 1 2 1 1 3 2 1 1h2l1 1Z"/><path fill="#CBCBCC" id="mlf" d="m220 160 2 3c-2.293 0-2-.997-2-3Z"/><path fill="#FF6F80" id="TH" d="M126 162h1l-1-1v1ZM130 164l-1 1-1-2 2 1ZM328 164h1v-1l-1 1ZM328 164l-1 1v-1h1Z"/><path fill="#FF64FF" id="MB" d="m179 203 3 1 2-2c-3.316 0-3-7.53-3-10 0-2.184-12.535-4.018-14.5-5-9.278-4.639-13.5-11.357-13.5-22l-3 4-1 2c0 1.048.473 3-1 3 0 5.757-9.286 2-12 2 0 1.996 2 4.985 2 8 2.703 0 5.79-7.855 11.5-5 6.188 3.094 29.5 15.188 29.5 24ZM297 183c3.352 0 7.607-2.553 10.5-4 4.662-2.331 8.191 4 10.5 4 0-1.564 1-3.876 1-6-2.129 0-10 1.163-10-2l-2-4v-1l-3-5c0 6.312-7 16.263-7 18Z"/><path fill="#FF6F80" id="TH" d="M131 168v1l-2-2v-1l2 2Z"/><path fill="#FF64FF" id="MB" d="M131 169v2l-2-4 2 2Z"/><path fill="#CACAC7" id="dtd" d="M224 169h1l1-1c0-2.026-2 .104-2 1ZM231 169l3 6c0-2.836-4-8.594-4-7l1 1Z"/><path fill="#FF6F80" id="TH" d="M325 170h1v-1l1-1v-1l-2 1v2Z"/><path fill="#FD7F84" id="PP" d="M134 176h2c2.714 0 12 3.757 12-2l-1-2c-1.804 0-5.136 2.182-7.5 1-1.586-.793-7.094-5-8.5-5v4l3 4Z"/><path fill="#FEA6FF" id="RL" d="M229 184h2l2-1-2-14-1-1h-4l-1 1-1 11-1 1v3h5c0-1.186 1-1.186 1 0Z"/><path fill="#FD7F84" id="PP" d="m323 176-4 1c-2.129 0-10 1.163-10-2v-3c1.804 0 5.136 2.182 7.5 1 1.586-.793 7.094-5 8.5-5v5l-2 3Z"/><path fill="#FF64FF" id="MB" d="M326 169h1v-1l-1 1Z"/><path fill="#0E9584" id="PERI1" d="M32 182h1l3-4.5c1.675-3.349-2-6.241-2-8.5h-1c0 1.577-1.762 2-3 2 0 1.549 1 3.551 1 4.5 0 2.935-5 3.27-5 6.5h6Z"/><path fill="#0E9583" id="PERI2/3" d="m40 181-7 1 3-4.5c1.675-3.349-2-6.241-2-8.5h9l3 10-6 2Z"/><path fill="#0F9684" id="PERI5" d="M46 179h1l5-1-1-8h-1l-7-1 3 10Z"/><path fill="#FF6F80" id="TH" d="m150 169-1 2 1-2Z"/><path fill="#CACAC7" id="dtd" d="M224 169c-1.473 0-1 1.952-1 3 1.473 0 1-1.952 1-3Z"/><path fill="#C8C8C8" id="mtg" d="m222 185-1 1c-2.306 0 2-9.649 2-11v-3c1.473 0 1-1.952 1-3h1l-1 11-1 1v3l-1 1ZM235 186l1 1c0-4.527-2-7.754-2-12l-3-6 2 14 2 3Z"/><path fill="#0F9684" id="PERI5" d="M404 178c1.564 0 3.876 1 6 1 0-3.372 3-6.053 3-10l-7 1-2 8Z"/><path fill="#0E9583" id="PERI2/3" d="m417 181 6 1-3-6.5c-1.278-2.555 2-4.516 2-6.5h-9c0 3.947-3 6.628-3 10l7 2Z"/><path fill="#0E9584" id="PERI1" d="M424 182h7c0-2.991-5-4.471-5-11l-3-2h-1c0 1.984-3.278 3.945-2 6.5l3 6.5h1Z"/><path fill="#0E9684" id="PERI6a" d="M52 178h4c0-2.097-1-5.293-1-8h-4l1 8Z"/><path fill="#0E9683" id="PERI6b" d="M56 178h1c0-1.257-.94-8-2-8 0 2.707 1 5.903 1 8Z"/><path fill="#FF64FF" id="MB" d="M325 173h1v-3h-1v3Z"/><path fill="#0E9683" id="PERI6b" d="M402 170c0 1.048.473 3-1 3v-3h1Z"/><path fill="#0E9684" id="PERI6a" d="M401 177c0 1.473 1.952 1 3 1l2-8h-4c0 1.048.473 3-1 3v4Z"/><path fill="#FF6F80" id="TH" d="m147 172 1 2c1.473 0 1-1.952 1-3l-2 1ZM309 172v3l-2-4 2 1Z"/><path fill="#FF64FF" id="MB" d="m134 176-1 1-2-2v-3l3 4Z"/><path fill="#CACAC7" id="dtd" d="M223 172c-1.486 0-1.486 3 0 3v-3Z"/><path fill="#FF64FF" id="MB" d="m325 176-1 1-1-1 2-3v3Z"/><path fill="#0E9683" id="PERI6b" d="M400 177h1v-4c-1.579 0-1 2.855-1 4Z"/><path fill="#CCCAC7" id="cpd" d="M195 222c0 1.608 6 .926 6 5 0 7.719-25.893 6.303-30.5 4-8.576-4.288-14.961-8.961-22.5-16.5l-8-8.5v-1l-1-1v-2l-1-1-1-4-1-1v-1l-1-2v-2l-1-2v-4l-1-1v-7l1-1h2c0 1.996 2 4.985 2 8 0 19.166 13.744 37 35 37h2c6.469 0 13.063 1 20 1ZM262 222c0 1.463-7 1.494-7 4 0 9.007 25.605 7.448 30.5 5l15-8 8-8 6.5-7 1-1v-1l1-1 1-2v-2l1-1 1-4 1-1v-3l1-1v-2l1-2v-1l1-9-1-1-4 1c0 2.124-1 4.436-1 6l1 9.5-5 12c-4.751 9.502-20.736 16.5-30 16.5h-2l-20 1Z"/><path fill="#C7C8CC" id="alv" d="M397 177c-1.616 0-4 9.991-4 12 2.267 0 4-9.814 4-12Z"/><path fill="#0E9683" id="PERI6b" d="m400 177-1 1 1-1Z"/><path fill="#32B824" id="ENTl6a" d="m377 222 3 1c0-5.559 10.529-11.559 13-16.5 4.317-8.633 11-17.375 11-28.5-1.048 0-3 .473-3-1h-1l-1 1c0 4.672-9.871 29-14 29l-1 2-1 2c0 1.822-3.711 8-6 8v3Z"/><path fill="#31B824" id="ENTl5" d="M67 227h5l2-1 2-3c0-5.374-8.674-9.848-11-14.5-4.828-9.656-13-18.956-13-30.5l-5 1c0 17.72 4.884 22.268 12 36.5.972 1.945 5.644 11.5 8 11.5Z"/><path fill="#32B824" id="ENTl6a" d="M79 222c0 1.473-1.952 1-3 1 0-5.374-8.674-9.848-11-14.5-4.828-9.656-13-18.956-13-30.5h5c0 11.005 9.349 21.198 14 30.5l9 12.5-1 1Z"/><path fill="#31B824" id="ENTl5" d="M384 227h5c2.63 0 6.748-7.996 8-10.5 6.56-13.12 13-21.387 13-37.5-2.124 0-4.436-1-6-1 0 11.125-6.683 19.867-11 28.5-2.471 4.941-13 10.941-13 16.5l2 3 2 1Z"/><path fill="#32B725" id="ENTl3" d="M67 227c0 1.3-8.63 3-10 3 0-4.147-5.9-9.301-8-13.5l-10-27 1-8.5 6-2h1c0 17.72 4.884 22.268 12 36.5.972 1.945 5.644 11.5 8 11.5Z"/><path fill="#FF8DFD" id="SNr" d="M179 210c-2.192 0-6 8.77-6 11-21.256 0-35-17.834-35-37 2.703 0 5.79-7.855 11.5-5 6.188 3.094 29.5 15.188 29.5 24-3.955 0 0 4.652 0 7ZM277 210c2.152 0 7 8.996 7 11 9.264 0 25.249-6.998 30-16.5l5-12-1-9.5c-2.309 0-5.838-6.331-10.5-4-2.893 1.447-7.148 4-10.5 4 0 1.577-1.762 2-3 2 0 1.418-17 13.75-17 18 4.891 0 0 5.233 0 7Z"/><path fill="#32B725" id="ENTl3" d="M389 227c0 .889 8.743 3 10 3 0-4.249 6.143-8.785 8-12.5 5.472-10.944 10-23.26 10-36.5l-7-2c0 16.113-6.44 24.38-13 37.5-1.252 2.504-5.37 10.5-8 10.5Z"/><path fill="#FF64FF" id="MB" d="m224 180-1 1 1-1Z"/><path fill="#32B825" id="ENTl2" d="m57 230-10 3-6-14.5c-4.09-8.181-5.85-17.701-10-26l1-10.5h1l7-1-1 8.5 10 27c2.1 4.199 8 9.353 8 13.5Z"/><path fill="#FF8FFD" id="MRN" d="m217 181-1 1 1-1Z"/><path fill="#32B825" id="ENTl2" d="m399 230 10 3c0-1.566 5.002-11.503 6-13.5 4.09-8.18 5.84-17.68 10-26 1.616-3.232-1-8.676-1-11.5h-1l-6-1c0 13.24-4.528 25.556-10 36.5-1.857 3.715-8 8.251-8 12.5Z"/><path fill="#32B722" id="ENTl1" d="M43 233h4l-6-14.5c-4.09-8.181-5.85-17.701-10-26l1-10.5h-6c0 10.487 6.597 29.695 11 38.5 1.412 2.825 6 9.524 6 12.5Z"/><path fill="#FF8FFD" id="MRN" d="m240 182 1 1-1-1Z"/><path fill="#7DCD4B" id="HPF" d="m328 182-1 1 1-1Z"/><path fill="#32B722" id="ENTl1" d="M409 233h4c3.268 0 4.851-12.202 6-14.5 5.327-10.654 12-23.843 12-36.5h-7c0 2.824 2.616 8.268 1 11.5-4.16 8.32-5.91 17.82-10 26-.998 1.997-6 11.934-6 13.5Z"/><path fill="#7DCD4B" id="HPF" d="m130 184 2 1v-2h-2v1Z"/><path fill="#FF8FFD" id="MRN" d="m216 183-1 1 1-1Z"/><path fill="#FF64FF" id="MB" d="M228 184c0 1.186 1 1.186 1 0s-1-1.186-1 0ZM231 184l4 2-2-3-2 1ZM297 183c-1.238 0-3 .423-3 2 1.238 0 3-.423 3-2Z"/><path fill="#7DCD4B" id="HPF" d="m327 183-1 1 1-1Z"/><path fill="#C7C8CC" id="alv" d="M135 191v2l-5-9 2 1 2 3v1l1 2Z"/><path fill="#FF64FF" id="MB" d="m133 184 1 1-1-1ZM225 184c0 1.473-1.952 1-3 1l1-1h2Z"/><path fill="#CACBC9" id="vtd" d="M221 195h14c2.641 0 2-1.823 2-4v-2l-1-2-1-1-4-2h-2c0 1.186-1 1.186-1 0h-3c0 1.473-1.952 1-3 1l-1 1-2 4v2c0 1.238.423 3 2 3Z"/><path fill="#7DCD4B" id="HPF" d="m326 184-1 1v-1h1Z"/><path fill="#FF64FF" id="MB" d="m222 185-1 1 1-1Z"/><path fill="#FF8FFD" id="MRN" d="m242 185 1 1-1-1Z"/><path fill="#FF64FF" id="MB" d="M277 203c-2.215 0-1.519 2-3 2l-1-3c0-2.962 2-5.441 2-10 0-1.59 4.386-1.443 5.5-2 3.47-1.735 9.56-5 13.5-5 0 1.418-17 13.75-17 18Z"/><path fill="#C7C8CC" id="alv" d="M323 187v2l2-4-2 1v1Z"/><path fill="#FF8FFD" id="MRN" d="m210 188-1 1 1-1ZM246 188l1 1-1-1Z"/><path fill="#C8C8CB" id="rust" d="M208 194c0 5.037-3.976 8 3 8 2.969 0 5.753-3.006 7-5.5.574-1.147-1.064-4.5 1-4.5v-2c0-3.92-10.012 4-11 4ZM249 195c0 4.725 1.133 7-4 7-3.279 0-5.637-3.774-7-6.5-.574-1.147 1.064-4.5-1-4.5v-2c6.077 0 8.976 6 12 6Z"/><path fill="#FF8FFD" id="MRN" d="M249 190h1l-1-1v1Z"/><path fill="#C7C8CC" id="alv" d="M322 191v1c1.473 0 1-1.952 1-3h-1v2ZM393 189l-2 4c2.109 0 2-2.535 2-4Z"/><path fill="#FE8DFF" id="VTA" d="M211 202c0 9.096-5.549 3-14 3-2.683 0-8-7.825-8-10l1-2c1.238 0 3-.423 3-2 4.725 0 9.879-1 14-1l1 4c0 5.037-3.976 8 3 8ZM245 202c0 8.816 7.776 3 14 3 2.506 0 8-6.877 8-10v-2l-4-2c-4.284 0-9.371-1-13-1h-1v5c0 4.725 1.133 7-4 7Z"/><path fill="#FF64FF" id="MB" d="M255 226c-3.138 0-5.662 2-8 2v-9c0-7.481-10-13.574-10-16 3.4 0-2-7.316-2-8 2.641 0 2-1.823 2-4 2.064 0 .426 3.353 1 4.5 1.363 2.726 3.721 6.5 7 6.5 0 8.816 7.776 3 14 3 0 2.796-6.845 2.173-8.5 3-4.465 2.232-1.5 5.949-1.5 9 0 1.429 1.288 4 3 4 0 2.202 3 2.202 3 0h1l1-2h4l1 3c0 1.463-7 1.494-7 4Z"/><path fill="#CACCC8" id="ml" d="M205 220c-1.186 0-1.186 1 0 1 0 1.979-5 1.202-5-1 0-1.658-1.461-3-3-3l-12-12c0-1.048.473-3-1-3-3.316 0-3-7.53-3-10 2.124 0 4.436 1 6 1l2 2c0 2.175 5.317 10 8 10 0 2.327 8.783 3.142 10.5 4 1.913.957 1.113 8-.5 8l-1 2-1 1Z"/><path fill="#FF64FF" id="MB" d="m201 227 4.5-1 7.5 5-4-4.5c-1.264-2.529 0-4.891 0-7.5 0-7.543 10-12.607 10-16 0-3.015 2-6.004 2-8-1.577 0-2-1.762-2-3-2.064 0-.426 3.353-1 4.5-1.247 2.494-4.031 5.5-7 5.5 0 9.096-5.549 3-14 3 0 2.327 8.783 3.142 10.5 4 1.913.957 1.113 8-.5 8l-1 2-1 1v1c0 1.979-5 1.202-5-1l-4-1-1 3c0 1.608 6 .926 6 5Z"/><path fill="#CACCC8" id="ml" d="M255 221c0-1.186 1-1.186 1 0l1-2c0-2.293.997-2 3-2 0-5.116 11-7.21 11-13l2-2c0-2.962 2-5.441 2-10l-6 1c0 1.747-.253 2-2 2 0 3.123-5.494 10-8 10 0 2.796-6.845 2.173-8.5 3-4.465 2.232-1.5 5.949-1.5 9 1.712 0 3 2.571 3 4 0 2.202 3 2.202 3 0Z"/><path fill="#C7C8CC" id="alv" d="M322 192c0 1.048.473 3-1 3v-3h1Z"/><path fill="#FF64FF" id="MB" d="m190 193-1 2-2-2h3ZM269 193c0 1.747-.253 2-2 2v-2h2Z"/><path fill="#FFA6FF" id="IF" d="m237 203-3 1-4-2c-1.145 0-4-.579-4 1l-4 2c0-1.577-1.762-2-3-2 0-3.015 2-6.004 2-8h14c0 .684 5.4 8 2 8Z"/><path fill="#C7C8CC" id="alv" d="M391 194c-2.109 0-2 2.535-2 4l2-4ZM144 219h1v-1c0-4.638-5-7.92-5-12v-1l-1-1v-2l-1-1-1-4-1-1v-1h-1c0 8.655 9 15.181 9 24ZM319 200v1c1.014 0 2-3.959 2-5h-1l-1 4ZM389 198c-1.577 0-2 1.762-2 3 1.577 0 2-1.762 2-3ZM319 201l-1 2v-2h1Z"/><path fill="#C7CCCC" id="IIIn" d="m185 205-1 1-2-2 2-2c1.473 0 1 1.952 1 3Z"/><path fill="#FFA4FE" id="IPR" d="M221 219h14l1-9c-2.604 0-6-5.93-6-8-1.145 0-4-.579-4 1 0 3.153-5 4.304-5 7v9Z"/><path fill="#FEA4FF" id="IPDM" d="m237 208-1 2c-2.604 0-6-5.93-6-8l4 2 3 4Z"/><path fill="#C7CCCC" id="IIIn" d="m274 205-2 2c0-1.048.473-3-1-3l2-2 1 3Z"/><path fill="#C7C8CC" id="alv" d="m387 202-1 1 1-1Z"/><path fill="#FFA6FD" id="SNc" d="M186 210c0 2.224 2.386 2.272 3 3.5 5.292 10.583-7.792-1.5-8-1.5l-2-2c0-2.348-3.955-7 0-7l3 1 2 2 2 4Z"/><path fill="#FF8EFE" id="PN" d="M209 219h1l1-1v-1l1-1 1-1 1-1c0-1.232 3.74-6 5-6l3-3c0-1.577-1.762-2-3-2 0 3.393-10 8.457-10 16Z"/><path fill="#FEA4FF" id="IPDM" d="M219 208c0 1.747.253 2 2 2 0-2.696 5-3.847 5-7l-4 2-3 3Z"/><path fill="#FF8EFE" id="PN" d="m245 217 2 2c0-7.481-10-13.574-10-16l-3 1 3 4c1.988 0 6 5.237 6 7l1 1 1 1Z"/><path fill="#FFA6FD" id="SNc" d="m268 213-1 1c0 9.403 8-.346 8-2l2-2c0-1.767 4.891-7 0-7-2.215 0-1.519 2-3 2l-2 2-3 5-1 1Z"/><path fill="#C7C8CC" id="alv" d="m318 203-1 2 1-2ZM386 203l-1 2 1-2Z"/><path fill="#FF64FF" id="MB" d="M260 217h2c1.947 0 2.636-3 5-3l1-1 1-1 3-5c0-1.048.473-3-1-3 0 5.79-11 7.884-11 13Z"/><path fill="#C7C8CC" id="alv" d="M71 205c1.76 0 3.394 4.288 4 5.5 2.314 4.628 6.604 8.604 10.5 12.5 4.255 4.256 8.116 7.558 13 10l4.5 4c-6.12 0-22.734-16.969-25-21.5-1.694-3.389-7-6.555-7-10.5Z"/><path fill="#FF64FF" id="MB" d="M194 217h3l-12-12-1 1 2 4 8 7Z"/><path fill="#C7C8CC" id="alv" d="M384 207h1v-2l-1 2ZM316 207v1l1-2h-1v1ZM383 209h1v-2l-1 2Z"/><path fill="#C8CBCC" id="ec" d="m385 207-1 2v-2h1Z"/><path fill="#FDA6FE" id="IPDL" d="M216 220h5v-10c-1.747 0-2-.253-2-2-1.26 0-5 4.768-5 6l2 6ZM235 219c1.564 0 3.876 1 6 1 0-1.424.362-5 2-5 0-1.763-4.012-7-6-7l-1 2-1 9Z"/><path fill="#C7C8CC" id="alv" d="m316 208-1 2v-2h1ZM383 211l-2 1c0-1.238.423-3 2-3v2Z"/><path fill="#C8CBCC" id="ec" d="m384 209-1 2v-2h1Z"/><path fill="#C7CCCC" id="IIIn" d="M173 221h2c0-1.654 4.228-9 6-9l-2-2c-2.192 0-6 8.77-6 11Z"/><path fill="#FF8DFD" id="SNr" d="M175 221c6.469 0 13.063 1 20 1l1-3-2-2-8-7c0 2.224 2.386 2.272 3 3.5 5.292 10.583-7.792-1.5-8-1.5-1.772 0-6 7.346-6 9Z"/><path fill="#C7CCCC" id="IIIn" d="M282 221h2c0-2.004-4.848-11-7-11l-2 2 7 9Z"/><path fill="#C7C8CC" id="alv" d="m315 210-1 2 1-2Z"/><path fill="#C8CBCC" id="ec" d="M377 217v2c2.289 0 6-6.178 6-8l-2 1-1 1-1 2-1 1-1 1Z"/><path fill="#FF8DFD" id="SNr" d="m269 212-1 1 1-1ZM282 221l-20 1-1-3 1-2c1.947 0 2.636-3 5-3 0 9.403 8-.346 8-2l7 9Z"/><path fill="#C7C8CC" id="alv" d="m314 212-1 2 1-2ZM381 212l-1 1 1-1Z"/><path fill="#FF8DFD" id="SNr" d="m268 213-1 1 1-1Z"/><path fill="#C7C8CC" id="alv" d="m380 213-1 2 1-2Z"/><path fill="#FEA5FF" id="IPL" d="m218 234 3 1v-2c-4.526 0-5-9.866-5-13l-2-6-1 1-1 1-1 1v1l-1 1h-1c0 2.609-1.264 4.971 0 7.5l4 4.5h1l2 2h1l1 1Z"/><path fill="#C7C8CC" id="alv" d="M311 219h1l1-5c-1.638 0-2 3.576-2 5Z"/><path fill="#7ECE4A" id="DG-po" d="M131 215c1.295 0 7.357 5 13 5 0 10.438-13 .202-13-5Z"/><path fill="#FFA6FE" id="IPN" d="m213 215-1 1 1-1Z"/><path fill="#FEA5FF" id="IPL" d="M235 235h2l1-1 2-1 1-1 2-1c0-1.577 1.762-2 3-2l1-1v-9l-2-2-1-1-1-1c-1.638 0-2 3.576-2 5 0 2.551-2.02 13-5 13l-1 2Z"/><path fill="#C7C8CC" id="alv" d="m379 215-1 1 1-1Z"/><path fill="#FFA6FE" id="IPN" d="m212 216-1 1 1-1ZM244 216l1 1-1-1Z"/><path fill="#7ECE4A" id="DG-po" d="m325 216-1 1 1-1Z"/><path fill="#C7C8CC" id="alv" d="m378 216-1 1 1-1Z"/><path fill="#CCCAC8" id="mp" d="m196 219 4 1c0-1.658-1.461-3-3-3h-3l2 2ZM207 217l-1 2 1-2ZM249 217c1.712 0 3 2.571 3 4-1.712 0-3-2.571-3-4ZM257 219h4l1-2h-2c-2.003 0-3-.293-3 2Z"/><path fill="#7ECE4A" id="DG-po" d="M312 219v1c0 9.163 12 2.975 12-3l-6.5 3c-1.956.978-4.077-1-5.5-1Z"/><path fill="#C7C8CC" id="alv" d="M374 221h1l2-2v-2c-1.712 0-3 2.571-3 4Z"/><path fill="#7DCD4B" id="HPF" d="M145 220h2l-2-2v2Z"/><path fill="#FFA6FE" id="IPN" d="m211 218-1 1 1-1Z"/><path fill="#7ECE4A" id="DG-po" d="M144 220h1v-1h-1v1Z"/><path fill="#CCCAC8" id="mp" d="m206 219-1 1 1-1Z"/><path fill="#FFA5FE" id="IPC" d="M221 235h14l1-2-1-14h-14v16Z"/><path fill="#FEA6FD" id="IPI" d="M241 220c0 2.551-2.02 13-5 13l-1-14c1.564 0 3.876 1 6 1Z"/><path fill="#7DCD4B" id="HPF" d="M310 220h2v-1h-1l-1 1Z"/><path fill="#C8CBCC" id="ec" d="M375 221h2v-2l-2 2Z"/><path fill="#CCCAC8" id="mp" d="M205 220c-1.186 0-1.186 1 0 1v-1Z"/><path fill="#FEA6FD" id="IPI" d="M221 220v13c-4.526 0-5-9.866-5-13h5Z"/><path fill="#CCCAC8" id="mp" d="M255 221h1c0-1.186-1-1.186-1 0Z"/><path fill="#7DCD4B" id="HPF" d="M309 221h1v-1l-1 1Z"/><path fill="#8AD987" id="CTXsp" d="m79 222 3 1-2-2-1 1Z"/><path fill="#7DCD4B" id="HPF" d="M147 222h1l-1-1v1Z"/><path fill="#C7C8CC" id="alv" d="m374 221-1 1 1-1Z"/><path fill="#C8CBCC" id="ec" d="m375 222-2 1v-1l1-1h1v1Z"/><path fill="#8AD987" id="CTXsp" d="M375 222h2v-1h-2v1Z"/><path fill="#A0ED9D" id="EPv" d="m89 229-1 2c-5.008 0-13.048-4-14-4v-1l2-3c1.048 0 3 .473 3-1l3 1 7 6Z"/><path fill="#C7C8CC" id="alv" d="M372 223h1v-1l-1 1Z"/><path fill="#A0ED9D" id="EPv" d="m367 229 1 2c2.759 0 14-.766 14-4v-1l-2-3-3-1h-2l-2 1c0 1.747-.253 2-2 2l-1 1-1 1-1 1-1 1Z"/><path fill="#C7C8CC" id="alv" d="m372 223-1 1 1-1Z"/><path fill="#C8CBCC" id="ec" d="M371 224v1c1.747 0 2-.253 2-2h-1l-1 1Z"/><path fill="#C7C8CC" id="alv" d="M370 225h1v-1l-1 1ZM369 226h1v-1l-1 1Z"/><path fill="#C8CBCC" id="ec" d="m371 225-1 1v-1h1Z"/><path fill="#99D2BD" id="OLF" d="M72 227h2v-1l-2 1Z"/><path fill="#C7C8CC" id="alv" d="M368 227h1v-1l-1 1Z"/><path fill="#C8CBCC" id="ec" d="m370 226-1 1v-1h1Z"/><path fill="#99D2BD" id="OLF" d="M382 227h2l-2-1v1Z"/><path fill="#A8ECD2" id="TR" d="M97 250c-3.03 0-12 12.08-12 15-13.969 0-22.79-8.29-31-16.5-3.852-3.853-11-10.153-11-15.5h4l10-3c1.37 0 10-1.7 10-3h7c.952 0 8.992 4 14 4l6 2 2 1 1 1 3 2 1 1 1 2c0 4.088-3 6.293-3 9l-2 1Z"/><path fill="#C7C8CC" id="alv" d="M366 229h1l1-1v-1c-1.238 0-3 .423-3 2h1Z"/><path fill="#C8CBCC" id="ec" d="m369 227-1 1v-1h1Z"/><path fill="#A8ECD2" id="TR" d="M359 250c4.861 0 12 10.953 12 15 11.886 0 26.668-6.837 32-17.5 2.675-5.351 10-8.069 10-14.5h-4l-10-3c-1.257 0-10-2.111-10-3h-7c0 3.234-11.241 4-14 4l-4 1-1 1h-1l-1 1-1 1h-1l-1 1-1 1h-1l-1 1v2c0 5.418 4 9.145 4 10Z"/><path fill="#FF64FF" id="MB" d="m247 228-1 1 1-1Z"/><path fill="#C8CBCC" id="ec" d="m368 228-1 1 1-1Z"/><path fill="#8AD987" id="CTXsp" d="m88 231 6 2-5-4-1 2Z"/><path fill="#33B931" id="HATA" d="m115 243 15 7 7-15-1-2-4-4c-1.349 0-11.294 12-17 12v2Z"/><path fill="#FF64FF" id="MB" d="M246 229c-1.238 0-3 .423-3 2 1.238 0 3-.423 3-2Z"/><path fill="#33B931" id="HATA" d="M342 243c-5.577 0-10.125 6-16 6-1.613 0-6-11.96-6-14l1-2c0-1.634 2.634-4 4-4 0 3.429 11.869 12 16 12l1 1v1Z"/><path fill="#C7C8CC" id="alv" d="M363 231h1l1-1v-1c-1.747 0-2 .253-2 2Z"/><path fill="#C8CBCC" id="ec" d="m366 229-1 1v-1h1Z"/><path fill="#8AD987" id="CTXsp" d="m368 231-4 1v-1l1-1 1-1h1l1 2Z"/><path fill="#C8CBCC" id="ec" d="m365 230-1 1 1-1Z"/><path fill="#FF64FF" id="MB" d="m214 231 2 2-2-2ZM243 231l-2 1 2-1Z"/><path fill="#C7C8CC" id="alv" d="m362 231-1 1 1-1Z"/><path fill="#C8CBCC" id="ec" d="M362 233h1l1-1v-1h-2l-1 1v1h1Z"/><path fill="#FF64FF" id="MB" d="m241 232-1 1 1-1Z"/><path fill="#C7C8CC" id="alv" d="M360 233h1v-1l-1 1Z"/><path fill="#8AD987" id="CTXsp" d="m364 232-1 1 1-1Z"/><path fill="#7DCD4B" id="HPF" d="M137 234v1l-1-2 1 1Z"/><path fill="#FF64FF" id="MB" d="m217 233 1 1-1-1Z"/><path fill="#7DCD4B" id="HPF" d="M317 235h3l1-2-4 2Z"/><path fill="#C7C8CC" id="alv" d="m359 233-1 1 1-1Z"/><path fill="#C8CBCC" id="ec" d="M359 235h1l1-1v-1h-2l-1 1v1h1Z"/><path fill="#8AD987" id="CTXsp" d="m362 233-1 1v-1h1ZM96 234l1 1-1-1Z"/><path fill="#FF64FF" id="MB" d="m238 234-1 1 1-1Z"/><path fill="#C7C8CC" id="alv" d="M357 235h1v-1l-1 1Z"/><path fill="#8AD987" id="CTXsp" d="m361 234-1 1 1-1Z"/><path fill="#C7C8CC" id="alv" d="m356 235-1 1 1-1Z"/><path fill="#C8CBCC" id="ec" d="M356 237h1l1-1v-1h-2l-1 1v1h1Z"/><path fill="#8AD987" id="CTXsp" d="m359 235-1 1v-1h1Z"/><path fill="#FF9B88" id="P" d="M195 239c-10.032 0-13.995 15.752-9.5 18 9.457 4.729 23.646-1.677 33 3l7.5-1.5c.728-1.457.225-6.55 0-7v-4c-4.243-8.485-10.21-7.855-17.5-11.5-1.78-.89-12.5 1.707-12.5 3h11c5.109 0 12.867 3.766 10 9.5l-.5 2.5c-5.425 2.712-25.383 5.734-29.5-2.5-2.443-4.886 8-7.352 8-9.5ZM260 239h-10.5c-5.302 0-17.349 8.325-8 13 4.157 2.079 24.486 3.529 27.5-2.5 3.407-6.814-8-7.928-8-10.5 6.881 0 14.769 8.963 11 16.5-2.659 5.317-25.194 3.5-31.5 3.5-1.798 0-8.257 1.986-9.5-.5-7.487-14.974 8.746-18.623 16.5-22.5 1.78-.89 12.5 1.707 12.5 3Z"/><path fill="#C7C8CC" id="alv" d="M353 237h2v-1l-2 1Z"/><path fill="#8AD987" id="CTXsp" d="m358 236-1 1 1-1ZM100 237l1 1-1-1Z"/><path fill="#C7C8CC" id="alv" d="m104 237 3 2c-1.238 0-3-.423-3-2ZM351 238h2v-1l-2 1Z"/><path fill="#C8CBCC" id="ec" d="M353 238h2v-1h-2v1Z"/><path fill="#8AD987" id="CTXsp" d="m356 237-1 1v-1h1Z"/><path fill="#C7C8CC" id="alv" d="M349 239h2v-1l-2 1Z"/><path fill="#C8CBCC" id="ec" d="M351 239h2v-1h-2v1Z"/><path fill="#97EC93" id="PA" d="M107 251c8.633 0 16.258 7 19 7l4-8-15-7h-2l-10-4-1 1c0 4.088-3 6.293-3 9 3.091 0 5.478 2 8 2Z"/><path fill="#C7C8CC" id="alv" d="M108 239c1.238 0 3 .423 3 2-1.238 0-3-.423-3-2Z"/><path fill="#FFB885" id="PG" d="M195 239h12c5.109 0 12.867 3.766 10 9.5l-.5 2.5c-5.425 2.712-25.383 5.734-29.5-2.5-2.443-4.886 8-7.352 8-9.5ZM260 239h1c0 2.572 11.407 3.686 8 10.5-3.014 6.029-23.343 4.579-27.5 2.5-9.349-4.675 2.698-13 8-13H260Z"/><path fill="#C7C8CC" id="alv" d="M347 240h2v-1l-2 1Z"/><path fill="#C8CBCC" id="ec" d="m351 239-2 1v-1h2Z"/><path fill="#97EC93" id="PA" d="M350 251c-8.189 0-17.683 7-19 7-2.065 0-5-7.264-5-9 5.875 0 10.423-6 16-6l2-1c1.048 0 3 .473 3-1l2-1 2-1h2l2 1c0 5.418 4 9.145 4 10-1.258 0-9-2.336-9 1Z"/><path fill="#C7C8CC" id="alv" d="M345 241h2v-1l-2 1Z"/><path fill="#C8CBCC" id="ec" d="m349 240-2 1v-1h2Z"/><path fill="#C7C8CC" id="alv" d="M113 242h1v-1h-1v1Z"/><path fill="#7DCD4B" id="HPF" d="M114 243h1v-2h-1v2ZM342 241v1l-1-1h1Z"/><path fill="#C7C8CC" id="alv" d="M342 242h2v-1h-2v1Z"/><path fill="#C8CBCC" id="ec" d="M347 241c0 1.473-1.952 1-3 1v-1h3Z"/><path fill="#F0F080" id="CB" d="M276 248c0 5.567 2.112 0 0 0Z"/><path fill="#97EC93" id="PA" d="m99 249-2 1 2-1Z"/><path fill="#5FE6B7" id="COApl" d="m85 265 10 7c0-7.037 4.125-10.75 7-16.5l5-4.5c-2.522 0-4.909-2-8-2l-2 1c-3.03 0-12 12.08-12 15Z"/><path fill="#F0F080" id="CB" d="M179 249c0 3.479 4.365 0 0 0Z"/><path fill="#5FE6B7" id="COApl" d="M371 265c0 1.6-8.389 7-10 7 0-9.34-11-19.169-11-21 0-3.336 7.742-1 9-1 4.861 0 12 10.953 12 15Z"/><path fill="#60E6B5" id="COApm" d="M126 258c0 6.15-14.96 14.73-19.5 17-2.376 1.188-11.5-.663-11.5-3 0-7.037 4.125-10.75 7-16.5l5-4.5c8.633 0 16.258 7 19 7ZM331 258c0 8.259 14.056 14.278 19.5 17 2.263 1.131 10.5-.874 10.5-3 0-9.34-11-19.169-11-21-8.189 0-17.683 7-19 7Z"/></svg>