<svg xmlns="http://www.w3.org/2000/svg" viewBox="0 0 456 320"><path fill="#1BA696" id="RSPagl1" d="m190 14-16 2-1-5 17-1v4Z"/><path fill="#1BA598" id="RSPd1" d="m218 25-3 1c0-10.059-17.585-12-25-12v-4c9.165 0 28 2.743 28 15ZM238 25l3 1c0-9.417 19.152-12 26-12v-4c-8.972 0-29 3.52-29 15Z"/><path fill="#1BA696" id="RSPagl1" d="m267 14 16 2v-5l-16-1v4Z"/><path fill="#0A8589" id="VISpm1" d="M156 19h1c5.057 0 11.627-3 17-3l-1-5c-.965 0-13.733 1.617-14.5 2l-2.5 2v4ZM299 19h1l1-4c-3.481 0-13.519-4-18-4v5c5.081 0 11.198 3 16 3Z"/><path fill="#1AA496" id="RSPagl2/3" d="M189 20c-5.64 0-9.742 3-15 3v-7l16-2-1 6Z"/><path fill="#1BA697" id="RSPd2/3" d="M210 29h1l4-2v-1c0-10.059-17.585-12-25-12l-1 6c5.193 0 21-.58 21 9ZM246 29h1c0-8.138 13.77-10 20-10v-5c-6.848 0-26 2.583-26 12l5 3Z"/><path fill="#1AA496" id="RSPagl2/3" d="M267 20c5.599 0 9.903 3 15 3 0-2.41 1-5.181 1-7l-16-2v6Z"/><path fill="#098589" id="VISp1" d="M86 51h1c0-3.346 12.977-8.739 15.5-10 13.275-6.638 38.766-22 53.5-22v-4c-17.944 0-40.09 13.295-55.5 21C98.436 37.032 84 45.475 84 47l2 4ZM370 51h1l1-4c0-2.563-11.882-8.69-14.5-10-14.896-7.448-39.418-22-56.5-22l-1 4c13.942 0 42.686 15.593 55.5 22L370 51Z"/><path fill="#08858B" id="VISpm2/3" d="M174 23c-5.716 0-9.605 4-15 4 0-2.885-2-4.697-2-8 5.057 0 11.627-3 17-3v7ZM282 23c5.794 0 9.7 4 15 4 0-2.522 2-4.909 2-8-4.802 0-10.919-3-16-3 0 1.819-1 4.59-1 7Z"/><path fill="#0A828C" id="VISp2/3" d="M87 51c0 1.417 2.383 6 4 6 5.298 0 11.87-6.685 16.5-9 9.609-4.804 41.894-20 51.5-20v-1c0-2.885-2-4.697-2-8h-1c-14.734 0-40.225 15.362-53.5 22C99.977 42.261 87 47.654 87 51Z"/><path fill="#1AA596" id="RSPd5" d="M185 30c5.697 0 11-3.707 11 5 4.796 0 9.664-6 14-6 0-9.58-15.807-9-21-9 0 3.54-4 7.2-4 10ZM271 30c-5.012 0-11-3.43-11 5-1.796 0-13-4.584-13-6 0-8.138 13.77-10 20-10v1l4 10Z"/><path fill="#0A828C" id="VISp2/3" d="M365 58h1l4-7-14.5-10c-12.814-6.407-41.558-22-55.5-22h-1c0 3.091-2 5.478-2 8 4.209 0 15.426 5.963 19.5 8 2.329 1.165 5.706.853 8 2 8.34 4.17 16.653 7.826 25 12 2.076 1.038 15.5 7.224 15.5 9Z"/><path fill="#1CA697" id="RSPagl5" d="M184 31c-4.101 0-7.386 4-11 4l1-11v-1c5.258 0 9.36-3 15-3 0 3.54-4 7.2-4 10l-1 1ZM271 30l13 5c0-3.673-2-8.305-2-11v-1c-5.097 0-9.401-3-15-3l4 10Z"/><path fill="#09828B" id="VISpm4" d="m159 28 1 2 14-6v-1c-5.716 0-9.605 4-15 4v1ZM297 27c0 1.048.473 3-1 3l-14-6v-1c5.794 0 9.7 4 15 4Z"/><path fill="#088489" id="VISpm5" d="M172 36c-3.647 0-5.609 3-9 3l-3-8v-1l14-6-1 11-1 1ZM284 35l9 4c1.069 0 3-6.717 3-8v-1l-14-6c0 2.695 2 7.327 2 11Z"/><path fill="#1BA597" id="RSPv1" d="m177 69-4 2-3-4 9.5-7c10.93-5.465 22.756-11.878 33-17 2.561-1.28 3.5-8.697 3.5-11.5 0-1.19.614-4.5-1-4.5v-1l3-1c2.488 0 2 6.1 2 8 0 4.799-3.523 15.511-8.5 18-4.028 2.014-28.5 9-28.5 14-1.664 0-6 1.823-6 4ZM286 68l-2 3-8.5-6c-7.777-3.888-15.306-8.153-23-12-2.86-1.43-8.711-.922-10.5-4.5-2.923-5.846-5-10.328-5-17.5 0-1.32-.684-6 1-6l3 1c0 21.093 7.001 20.25 24.5 29 3.097 1.549 20.5 8.614 20.5 13Z"/><path fill="#1AA597" id="RSPv2/3" d="m290 65-4 3c0-4.386-17.403-11.451-20.5-13-17.499-8.75-24.5-7.907-24.5-29l5 3-1 6.5c5.91 11.82 24.511 16.005 35.5 21.5 3.468 1.734 5.361 8 9.5 8ZM167 65c0 1.577 1.762 2 3 2l9.5-7c10.93-5.465 22.756-11.878 33-17 2.561-1.28 3.5-8.697 3.5-11.5 0-1.19.614-4.5-1-4.5l-4 2c0 17.465-19.341 19.92-31.5 26L167 65Z"/><path fill="#0B848B" id="VISp4" d="M362 63h1l2-5c0-1.776-13.424-7.962-15.5-9-8.347-4.174-16.66-7.83-25-12-2.294-1.147-5.671-.835-8-2-4.074-2.037-15.291-8-19.5-8 0 1.048.473 3-1 3v1c5.701 0 11.611 5.555 16.5 8 11.656 5.828 24.311 10.156 36 16l13.5 8ZM93 63h2c0-3.107 12.166-6.833 14.5-8 11.229-5.615 22.85-10.425 34-16 4.576-2.288 11.282-8 16.5-8v-1l-1-2c-9.606 0-41.891 15.196-51.5 20-4.63 2.315-11.202 9-16.5 9v1c0 2.009 2 2.991 2 5Z"/><path fill="#1AA697" id="RSPd6a" d="M172 44h1c6.013 0 14.93-9 22-9h1c0-8.707-5.303-5-11-5l-1 1c0 5.67-12 8.638-12 13Z"/><path fill="#1BA498" id="RSPv5" d="M164 62c0 1.658 1.461 3 3 3l12.5-10c12.159-6.08 31.5-8.535 31.5-26h-1c-4.336 0-9.204 6-14 6h-1c0 8.37-31 16.28-31 27ZM293 61l-3 4c-4.139 0-6.032-6.266-9.5-8-10.989-5.495-29.59-9.68-35.5-21.5l1-6.5h1c0 1.416 11.204 6 13 6h1c0 5.054 20.055 13.555 24 17.5l8 8.5Z"/><path fill="#1AA697" id="RSPd6a" d="M283 44h1c0-4.715-13-8.296-13-14-5.012 0-11-3.43-11 5h1c5.714 0 18.443 9 22 9Z"/><path fill="#1CA597" id="RSPagl6a" d="m185 30-1 1 1-1ZM285 44h2l-3-9-13-5c0 5.704 13 9.285 13 14h1Z"/><path fill="#088389" id="VISp5" d="M99 71h1l13.5-8c11.17-5.585 22.873-10.436 34-16 4.283-2.141 10.611-7 15.5-7v-1l-3-8c-5.218 0-11.924 5.712-16.5 8-11.15 5.575-22.771 10.385-34 16-2.334 1.167-14.5 4.893-14.5 8l4 8Z"/><path fill="#1CA597" id="RSPagl6a" d="M171 44h1c0-4.362 12-7.33 12-13-4.101 0-7.386 4-11 4l-1 1-3 8h2Z"/><path fill="#088389" id="VISp5" d="m362 63-5 8-13.5-8c-11.379-5.69-23.628-10.314-35-16-4.682-2.34-10.003-7-15.5-7v-1c1.069 0 3-6.717 3-8 5.701 0 11.611 5.555 16.5 8 11.656 5.828 24.311 10.156 36 16l13.5 8Z"/><path fill="#1AA498" id="RSPv6a" d="m163 61 1 1c0-10.72 31-18.63 31-27-7.07 0-15.987 9-22 9v1l-1 1c0 5.704-9 9.164-9 15ZM284 46c0 5.567 9 8.905 9 15l-8-8.5c-3.945-3.945-24-12.446-24-17.5 5.714 0 18.443 9 22 9v1l1 1Z"/><path fill="#09858B" id="VISpm6a" d="M291 45h1l1-5v-1l-9-4 3 9 4 1ZM165 45h3l1-1 3-8c-3.647 0-5.609 3-9 3v1l2 5Z"/><path fill="#08858C" id="VISp6a" d="M102 77h1l8-4c0-2.657 9.714-6 12-6l5.5-3c5.145-2.573 13.66-9 19.5-9 0-2.168 9.098-6 11-6l6-3v-1l-2-5c-4.889 0-11.217 4.859-15.5 7-11.127 5.564-22.83 10.415-34 16L100 71l2 6ZM357 71l-3 6-13.5-8c-11.106-5.553-22.758-10.38-34-16-2.228-1.114-14.5-5.272-14.5-8l1-5c5.497 0 10.818 4.66 15.5 7 11.372 5.686 23.621 10.31 35 16l13.5 8Z"/><path fill="#088589" id="VISpm6b" d="M168 45h1v-1l-1 1Z"/><path fill="#1AA598" id="RSPagl6b" d="M169 45h2v-1h-2v1Z"/><path fill="#1BA698" id="RSPd6b" d="m173 45-1 1-1-1v-1h2v1ZM283 45h2v-1h-2v1Z"/><path fill="#1AA598" id="RSPagl6b" d="M285 45h2v-1h-2v1Z"/><path fill="#088589" id="VISpm6b" d="M291 45v2l-4-2v-1l4 1ZM165 46v1l3-2h-3v1Z"/><path fill="#CACCC7" id="cing" d="M162 61h1c0-5.836 9-9.296 9-15l-1-1h-3l-3 2-4 2 2 2-1 10Z"/><path fill="#1AA497" id="RSPv6b" d="m173 45-1 1 1-1ZM285 45l-1 1-1-1h2Z"/><path fill="#CACCC7" id="cing" d="M293 61h1c0-1.737-2.105-10 0-10l1-2-4-2-4-2h-2l-1 1c0 5.567 9 8.905 9 15Z"/><path fill="#08858A" id="VISp6b" d="M353 78h1v-1l-13.5-8c-11.106-5.553-22.758-10.38-34-16-2.228-1.114-14.5-5.272-14.5-8h-1v2l4 2c2.738 0 9.077 3.655 10 5.5l3 1.5 38 18 1 1 6 3ZM159 49h2l4-2v-1l-6 3Z"/><path fill="#09848A" id="VISl1" d="m65 65 2 3c2.495 0 15.04-17 19-17l-2-4-6.5 5C74.074 55.426 65 60.876 65 65ZM392 65l-3 3c0-3.55-18-14.43-18-17l1-4c1.127 0 20 16.052 20 18Z"/><path fill="#08858A" id="VISp6b" d="M159 49c-1.902 0-11 3.832-11 6 2.166 0 11-3.416 11-6Z"/><path fill="#C9C9CA" id="scwm" d="M148 56c1.048 0 3-.473 3 1l12-6-2-2h-2c0 2.584-8.834 6-11 6v1ZM305 56h3l-3-1.5c-.923-1.845-7.262-5.5-10-5.5l-1 2 11 5Z"/><path fill="#0A8489" id="VISl2/3" d="M67 69c2.618 0 3.094 4 5 4 6.793 0 11.973-15 19-15v-1c-1.617 0-4-4.583-4-6h-1c-3.96 0-16.505 17-19 17v1Z"/><path fill="#C8C9CA" id="fp" d="M69 121h1l1-1v-1l1-1 1-1v-1l1-1 1-1v-1l2-2 1-1 1-1c0-1.238.423-3 2-3l1-1 1-1 1-1 1-1 1-1 1-1 1-1 1-1 1-1h1c0-1.747.253-2 2-2l1-1 1-1c0-1.577 1.762-2 3-2l1-1 2-1 1-1 1-1 2-1 2-1c0-1.577 1.762-2 3-2l2-1 1-1h1l2-1 2-1c0-1.473 1.952-1 3-1l4-2c0-3.883 7.341-4.92 9.5-6 7.647-3.824 22.5-18.109 22.5 0 1.987 0 5-7.37 5-9l1-10-12 6c0 1.742-20.542 10.521-23.5 12-13.903 6.951-40.575 19.65-48.5 35.5-2.62 5.241-10 10.366-10 16.5ZM396 142h1c0-10.185-7.766-17.031-12-25.5-9.839-19.678-27.757-33.129-46.5-42.5l-26-13c-1.69-.845-7.5-2.175-7.5-5l-11-5c-2.105 0 0 8.263 0 10 2.549 0 1.891 10 6 10l-1-7.5c4.06-8.12 16.562 3.531 20.5 5.5 2.983 1.492 11.5 2.673 11.5 7 1.874 0 11 2.89 11 5h1c1.238 0 3 .423 3 2h1c2.057 0 8 4.26 8 6h1l2 2h1c1.634 0 4 2.635 4 4h1c1.935 0 8 6.222 8 8l1 1c2.619 0 9 8.858 9 11l1 1c1.428 0 4 4.822 4 6v1l2 2 1 3 1 1v1l2 4v1l2 4v2l1 1Z"/><path fill="#0A8489" id="VISl2/3" d="m389 69-5 4-18-15 4-7h1c0 2.57 18 13.45 18 17v1Z"/><path fill="#FF7AFD" id="SCzo" d="M291 85h1l-1-2-1-3-1-1-3-4c-2.936 0-7.555-7.028-9.5-8-10.813-5.407-22.317-9.658-33-15-4.481-2.24-12.876 5.252-14.5 8.5l-.5 4.5c-1.575 0-1.071-4.643-1.5-5.5-1.397-2.794-10.249-9.625-14.5-7.5-3.57 1.785-27.465 13-29.5 13 0 1.617-4.583 4-6 4 0 1.712-2.571 3-4 3l-1 1-1 1-3 4-1 1-1 2-1 1v3h1c0-6.878 10.32-13.41 15.5-16 16.027-8.013 45.5-29.906 45.5 6 0 2.373 2.284 0 3 0 0-34.916 26.793-15.353 43.5-7 4.84 2.42 17.5 10.383 17.5 17Z"/><path fill="#08858A" id="VISp6b" d="M148 56c-6.875 0-16.541 11-25 11l5.5-3c5.145-2.573 13.66-9 19.5-9v1Z"/><path fill="#FF78FF" id="SCsg" d="M227 75c-3.143 0-6.638-13.93-14.5-10-11.683 5.842-25.301 8.15-37 14-2.695 1.347-6.469 6-9.5 6 0-6.878 10.32-13.41 15.5-16 16.027-8.013 45.5-29.906 45.5 6ZM230 75c1.826 0 6.478-14.011 14.5-10 11.425 5.713 24.563 8.281 36 14 3.165 1.583 6.845 6 10.5 6 0-6.617-12.66-14.58-17.5-17-16.707-8.353-43.5-27.916-43.5 7Z"/><path fill="#CBC9C7" id="or" d="M62 128v1c0 4.812 4.51-8 7-8 0-6.134 7.38-11.259 10-16.5 7.925-15.85 34.597-28.549 48.5-35.5 2.958-1.479 23.5-10.258 23.5-12 0-1.473-1.952-1-3-1-6.875 0-16.541 11-25 11 0 2.132-9.957 6-12 6l-8 6h-2c0 2.158-5.64 6-8 6 0 1.532-3.897 6-6 6l-8 8c0 2.956-6 4.815-6 8 2.373 0 0 2.284 0 3l-1 1-1 1-2 4-1 1-1 2-1 1v1l-1 1v1l-1 1-1 1v2l-1 1ZM401 150v2c-2.645 0-4-7.562-4-10 0-10.185-7.766-17.031-12-25.5-9.839-19.678-27.757-33.129-46.5-42.5l-26-13c-1.69-.845-7.5-2.175-7.5-5h3l38 18 1 1 6 3 16 12 8 9 6 8c-1.797 0 4 7.346 4 9l2 2v1l2 2v1l1 1v1l1 1v1l1 1v1l1 1v2l1 1v1l1 1v2l1 1v1l1 1c0 3.695 2 6.865 2 11Z"/><path fill="#08828B" id="VISl4" d="M75 77h1c0-2.782 17-13.337 17-14 0-2.009-2-2.991-2-5-7.027 0-12.207 15-19 15v1l3 3ZM381 77h1c0-1.238.423-3 2-3v-1l-18-15h-1l-2 5 9.5 6c1.845.922 5.633 8 8.5 8Z"/><path fill="#C9CCC9" id="dhc" d="m150 77-2 1-10-1c0-2.391-11.099-1-13-1 0-3.883 7.341-4.92 9.5-6 7.647-3.824 22.5-18.109 22.5 0l-1 1-1 1-5 5Z"/><path fill="#47C83C" id="POST" d="M135 103h8l2-1 10-7 2-2 1-1 1-1c0-1.747.253-2 2-2 0-1.238.423-3 2-3l1-1v-1l1-1v-1l1-1 1-2 1-1 3-4 1-1 1-1v-1l-3-4c-1.238 0-3-.423-3-2-1.539 0-3-1.342-3-3l-1-1h-1c0 1.63-3.013 9-5 9l-1 1-1 1-5 5-1 2c0 7.475-2.513 11.526-6 18.5-1.079 2.158-8 5.064-8 5.5ZM313 103h8c0-1.183-3.57-1.535-4.5-2l-5.5-6.5c-2.544-5.087-4-9.233-4-15.5v-2h-1l-2-2-1-1-1-1-1-1-1-1c-4.109 0-3.451-10-6-10h-1l-3 4-4 3-2 3 2 4 3 4 1 1 1 3 9.5 11c1.69 1.69 10.5 6.701 10.5 8l2 1Z"/><path fill="#C9CCC9" id="dhc" d="m319 77-10 1-2-1h-1l-2-2-1-1-1-1-1-1-1-1-1-7.5c4.06-8.12 16.562 3.531 20.5 5.5 2.983 1.492 11.5 2.673 11.5 7-1.815 0-12-1.128-12 1Z"/><path fill="#0B858B" id="VISl5" d="M76 77c0 1.6 4.13 7 6 7l13-9.5 4-3.5-4-8h-2c0 .663-17 11.218-17 14ZM374 85h1c0-3.517 6-4.95 6-8-2.867 0-6.655-7.078-8.5-8l-9.5-6h-1l-5 8c1.435 0 17 13.275 17 14Z"/><path fill="#0C858C" id="VISli1" d="M59 77h1l7-8v-1l-2-3c-1.167 0-9 7.086-9 9l3 3Z"/><path fill="#FD7AFF" id="SCop" d="m164 89 16.5-8 27-9c9.492-4.746 12.395 8 18 8l2-2 4 2c4.466-2.233 7.712-6.856 12-9 2.331-1.165 10.891 2.946 13 4 6.041 3.02 13.897 2.949 20 6 4.286 2.143 10.639 8 15.5 8v-4h-1c-3.655 0-7.335-4.417-10.5-6-11.437-5.719-24.575-8.287-36-14-8.022-4.011-12.674 10-14.5 10-.716 0-3 2.373-3 0-3.143 0-6.638-13.93-14.5-10-11.683 5.842-25.301 8.15-37 14-2.695 1.347-6.469 6-9.5 6h-1l-1 4Z"/><path fill="#0C858C" id="VISli1" d="M396 77h1l3-3c0-1.716-6.848-9-8-9l-3 3v1c1.782 0 7 6.482 7 8Z"/><path fill="#08858A" id="VISp6b" d="M123 67c-2.286 0-12 3.343-12 6 2.043 0 12-3.868 12-6Z"/><path fill="#0A858A" id="VISli2/3" d="m60 77 5 5 7-8v-1c-1.906 0-2.382-4-5-4l-7 8ZM396 77l-5 5-7-8v-1l5-4c1.782 0 7 6.482 7 8Z"/><path fill="#C8C9CA" id="fp" d="m157 70-1 1 1-1Z"/><path fill="#08848C" id="VISl6a" d="M86 90h1c0-1.901 4.332-5 6-5 0-2.289 6.178-6 8-6l1-2-2-6h-1l-4 3.5L82 84v1c1.533 0 4 3.753 4 5Z"/><path fill="#7DCD4B" id="HPF" d="m156 71-1 1 1-1Z"/><path fill="#FF90FF" id="SCig" d="M157 131v-11.5c8.704-17.408 27.874-26.187 44.5-34.5 1.734-.867 4.161-.08 6-1 5.754-2.877 17.35 7.825 19 7 5.834-2.917 1.399 1.3 6-1 4.203-2.102 11.099-8.95 17-6 17.936 8.968 39.303 14.106 49.5 34.5V131c2.112 0 3.332 1.084 5.5 0l2.5-3 1-4 1-1c0-10.67-3.656-16.811-8-25.5l-7-7.5-2-1c-4.861 0-11.214-5.857-15.5-8-6.103-3.051-13.959-2.98-20-6-2.109-1.054-10.669-5.165-13-4-4.288 2.144-7.534 6.767-12 9l-4-2-2 2c-5.605 0-8.508-12.746-18-8l-27 9-16.5 8-1 1-1 1h-1l-2 2-1 1-1 1c0 1.238-.423 3-2 3 0 1.238-.423 3-2 3l-4 8-1 15c1.473 0 1 1.952 1 3 .391 0 1.939 4 8 4Z"/><path fill="#7DCD4B" id="HPF" d="m300 71 1 1-1-1Z"/><path fill="#08848C" id="VISl6a" d="m374 85-4 4c-5.747 0-9.858-11-16-11v-1l3-6c1.435 0 17 13.275 17 14Z"/><path fill="#08858A" id="VISp6b" d="M103 77v2l8-6-8 4Z"/><path fill="#7DCD4B" id="HPF" d="m302 73 1 1-1-1Z"/><path fill="#15B0B3" id="TEa1" d="M43 91c0 1.811 1.808 4 3 4l2.5-4C51.398 88.102 59 81.082 59 77l-3-3-3 3.5L43 91Z"/><path fill="#08828C" id="VISli4" d="M67 85h1l7-8-3-3-7 8v1l2 2Z"/><path fill="#C9C9CA" id="scwm" d="m346 74 1 1-1-1Z"/><path fill="#08828C" id="VISli4" d="m391 83-2 2-7-8c0-1.238.423-3 2-3l7 8v1Z"/><path fill="#15B0B3" id="TEa1" d="m413 91-2 4-3.5-4c-2.397-2.397-10.5-11.454-10.5-14l3-3c1.461 0 13 15.407 13 17Z"/><path fill="#C7C8CC" id="alv" d="M138 77c-5.909 0-11.579 1-17 1l4-2c1.901 0 13-1.391 13 1Z"/><path fill="#7DCD4B" id="HPF" d="m304 75 2 2-2-2Z"/><path fill="#C7C8CC" id="alv" d="m335 79 7 2c0-2.11-9.126-5-11-5-1.815 0-12-1.128-12 1 2.633 0 16-.974 16 2Z"/><path fill="#16AFB3" id="TEa2/3" d="M47 105h1c0-3.663 10.925-14.35 13-18.5l4-3.5v-1l-5-5h-1c0 4.082-7.602 11.102-10.5 14L46 95v1l-1 1c0 2.874 2 3.624 2 8Z"/><path fill="#0A848A" id="VISli5" d="m82 85-7 7-7-7 7-8h1c0 1.6 4.13 7 6 7v1Z"/><path fill="#09858C" id="VISl6b" d="M101 79h2v-2h-1l-1 2Z"/><path fill="#4FC244" id="SUB" d="m130 104-3 1c0-8.439-6-17.44-6-26v-1c5.421 0 11.091-1 17-1l10 1 1 1c0 7.475-2.513 11.526-6 18.5-1.079 2.158-8 5.064-8 5.5h-4l-1 1Z"/><path fill="#7DCD4B" id="HPF" d="m148 78 1 1 1-2-2 1ZM309 78l-2 1v-2l2 1Z"/><path fill="#4FC244" id="SUB" d="M321 103c3.138 0 5.662 2 8 2 0-6.997 6-17.6 6-26 0-2.974-13.367-2-16-2l-10 1-2 1c0 6.267 1.456 10.413 4 15.5l5.5 6.5c.93.465 4.5.817 4.5 2Z"/><path fill="#0A848A" id="VISli5" d="M381 93h1c0-2.123 4.878-7 7-7v-1l-7-8h-1c0 3.05-6 4.483-6 8 0 3.186 6 5.044 6 8Z"/><path fill="#16AFB3" id="TEa2/3" d="M408 105h1c0-2.103.734-7 3-7l-1-3-3.5-4c-2.397-2.397-10.5-11.454-10.5-14h-1l-5 5v1c1.734 0 17 20.227 17 22Z"/><path fill="#C7C8CC" id="alv" d="M118 79h3v-1c-1.048 0-3-.473-3 1Z"/><path fill="#09858C" id="VISl6b" d="M369 90h1v-1c-5.747 0-9.858-11-16-11h-1l16 12ZM101 79c-1.822 0-8 3.711-8 6 2.36 0 8-3.842 8-6Z"/><path fill="#C7C8CC" id="alv" d="m118 79-2 1 2-1Z"/><path fill="#57B947" id="ProS" d="m127 105-10 5c0-9.425-6-17.518-6-27l1-1 1-1h1l2-1 2-1h3c0 8.56 6 17.561 6 26ZM329 105l10 5c0-9.087 6-17.31 6-27l-2-2h-1l-7-2c0 8.4-6 19.003-6 26Z"/><path fill="#C7C8CC" id="alv" d="m116 80-2 1 2-1ZM113 81l-1 1 1-1ZM345 83h1c0-1.577-1.762-2-3-2l2 2ZM110 83h1l1-1-2 1Z"/><path fill="#15B0B2" id="TEa4" d="M48 105c2.314 0-.837 1.331.5 2 .919.459 2.5-.765 2.5 1 2.225 0 2.373-3.873 3.5-5C57.585 99.915 67 89.233 67 85l-2-2-4 3.5c-2.075 4.15-13 14.837-13 18.5Z"/><path fill="#C7C8CC" id="alv" d="M110 83c-1.238 0-3 .423-3 2 1.238 0 3-.423 3-2Z"/><path fill="#7ECF4B" id="CA1" d="M107 239h1c4.434 0 17.349-13 21-13l-16.5-18c-12.092-12.092-16.009-21.517-23.5-36.5v-7c-5.223-10.446 6.65-30.299 11-39 1.633-3.265 17-15.209 17-15.5 0-9.425-6-17.518-6-27h-1c0 1.577-1.762 2-3 2l-2 1-2 1-1 1-1 1-2 1-1 1c0 1.577-1.762 2-3 2l-1 1-1 1-2 2h-1l-1 1-1 1-1 1-1 1-1 1-1 1-1 1-1 1-1 1c0 1.238-.423 3-2 3l-1 1-1 1c0 1.747-.253 2-2 2v1l-1 1-1 1v1l-1 1-1 1v1l-1 1-1 2-1 2-1 1v1l-1 1v1l-1 1v1l-1 2-1 2v2l-1 1v1l-1 2v2l-1 2v1c0 1.048.473 3-1 3v21c2.064 0 .426 3.353 1 4.5 1.677 3.354 1.361 7.722 3 11 4.121 8.243 7.86 16.721 12 25 3.481 6.963 14.294 18.897 21.5 22.5 1.582.791 8.5 3.942 8.5 6h2ZM350 239h1l2-1 1-1h1l1-1 1-1 2-1 1-1c0-1.577 1.762-2 3-2 0-1.747.253-2 2-2l1-1 1-1 2-2 2-2 2-2 2-2c0-1.747.253-2 2-2 0-1.238.423-3 2-3l1-1 1-2 1-1 1-2c0-1.238.423-3 2-3v-1c0-1.238.423-3 2-3l1-2 1-2c0-1.761 2.307-10 4-10 0-1.623.005-6 2-6 0-1.775.069-8 2-8v-26c-1.473 0-1-1.952-1-3v-1l-1-2v-2l-2-4v-1l-2-4v-1l-1-1-1-3-2-2v-1c-1.428 0-4-4.822-4-6l-1-1-9-11-1-1-8-8h-1c-1.634 0-4-2.635-4-4h-1l-2-2h-1l-8-6h-2c0 9.69-6 17.913-6 27 2.487 0 13.357 11.214 14 12.5 2.811 5.622 8.648 12.296 12 19 6.856 13.712 2.125 32.751-4 45l-10 14c-3.189 6.379-23 20.998-23 25.5 0 1.988 3.315 2.408 4.5 3 4.583 2.292 10.263 10 15.5 10h2Z"/><path fill="#C7C8CC" id="alv" d="M347 83c2.057 0 8 4.26 8 6l-8-6Z"/><path fill="#15B0B2" id="TEa4" d="M406 110h1c0-3.087 1-2.265 1-5 0-1.773-15.266-22-17-22l-2 2v1c0 1.822 17 19.645 17 24Z"/><path fill="#FF64FF" id="MB" d="m164 89-1 1-1-1 1-3 1-1v-1h1v1l-1 4Z"/><path fill="#FF90FE" id="SCiw" d="M157 131v-11.5c8.704-17.408 27.874-26.187 44.5-34.5 1.734-.867 4.161-.08 6-1 5.754-2.877 17.35 7.825 19 7 5.834-2.917 1.399 1.3 6-1 4.203-2.102 11.099-8.95 17-6 17.936 8.968 39.303 14.106 49.5 34.5V131c-5.442 0-15.753 5.873-21.5 3-1.882-.941-5.735-7-6.5-7 0-13.531-14.658-30.079-26.5-36-3.65-1.825-9.686 2-13.5 2-4.098 0-17.421-3.04-19.5-2-6.827 3.413-14.668 10.837-18.5 18.5-2.665 5.329-8 11.246-8 17.5 0 12.997-21.968 4-28 4Z"/><path fill="#15AFB3" id="TEa5" d="M38 151h11v-1c0-21.125 7.612-26.724 16-43.5 1.045-2.09 7.902-13.5 10-13.5v-1l-7-7h-1c0 4.233-9.415 14.915-12.5 18-1.127 1.127-1.275 5-3.5 5l-1 1v1c1.186 0 1.186 1 0 1v9c0 6.415-5.37 8-9 8l-1 1c0 6.698-2 14.316-2 22Z"/><path fill="#088488" id="VISli6a" d="m75 93 4 4 7-7c0-1.247-2.467-5-4-5l-7 7v1Z"/><path fill="#09858C" id="VISl6b" d="M87 90v1c2.103 0 6-4.468 6-6-1.668 0-6 3.099-6 5Z"/><path fill="#C7C8CC" id="alv" d="m107 85-2 1 2-1Z"/><path fill="#FF64FF" id="MB" d="M294 89v1l-2-1v-4l2 4Z"/><path fill="#088488" id="VISli6a" d="M377 97h1c.966 0 3-2.886 3-4 0-2.956-6-4.814-6-8h-1l-4 4v1l7 7Z"/><path fill="#C7C8CC" id="alv" d="m105 86-2 1 2-1Z"/><path fill="#15AFB3" id="TEa5" d="M418 151h1c0-7.997-2-14.58-2-22h-1c-5.017 0-9-4.294-9-9l-2-4.5 2-3c0-.62-3.578-2.5-1-2.5 0-4.355-17-22.178-17-24-2.122 0-7 4.877-7 7l11 14.5c7.11 14.22 15 26.255 15 43.5h10Z"/><path fill="#C7C8CC" id="alv" d="m103 87-1 1 1-1ZM102 88l-1 1 1-1ZM101 89l-2 1 2-1Z"/><path fill="#C7CBCB" id="bsc" d="M161 91h1l1-1-1-1h-1v2ZM309 124h2v-5c-1.473 0-1-1.952-1-3v-3l-1-1v-2l-1-2v-1l-1-1v-1l-1-1v-1l-1-1-1-2-2-2-1-2-2-2-5-5v1l7 7.5c4.344 8.689 8 14.83 8 25.5v1Z"/><path fill="#C7C8CC" id="alv" d="m356 89 2 2-2-2Z"/><path fill="#08818B" id="VISli6b" d="M79 98v1l8-8v-1h-1l-7 7v1Z"/><path fill="#C7C8CC" id="alv" d="m99 90-1 1 1-1Z"/><path fill="#FF64FF" id="MB" d="m163 90-1 1 1-1Z"/><path fill="#08818B" id="VISli6b" d="M377 97v2l-8-9h1l7 7Z"/><path fill="#039299" id="AUDpo1" d="m33 109 4 2 8-14 1-1v-1c-1.192 0-3-2.189-3-4-.81 0-10 15.867-10 18Z"/><path fill="#C7C8CC" id="alv" d="M98 91c-1.238 0-3 .423-3 2 1.238 0 3-.423 3-2Z"/><path fill="#C7CBCB" id="bsc" d="M159 92v1l2-2h-2v1Z"/><path fill="#FF8FFF" id="SCdg" d="M185 127c0-6.254 5.335-12.171 8-17.5 3.832-7.663 11.673-15.087 18.5-18.5 2.079-1.04 15.402 2 19.5 2 3.814 0 9.85-3.825 13.5-2 11.842 5.921 26.5 22.469 26.5 36-4.656 0-7.78-2-12-2 0-1.423 1.978-3.544 1-5.5-3.439-6.878-8.77-16.635-16.5-20.5l-13-1c-19.205 0-33.5 7.036-33.5 27-4.22 0-7.344 2-12 2Z"/><path fill="#C7C8CC" id="alv" d="M359 91c1.634 0 4 2.635 4 4-1.634 0-4-2.635-4-4Z"/><path fill="#039299" id="AUDpo1" d="M419 111h1l3-3c0-1.948-8.748-17-10-17l-2 4 1 3c1.172 0 7 11.089 7 13Z"/><path fill="#CAC7CB" id="fiber tracts" d="M158 93h1v-1h-1v1Z"/><path fill="#15AFB2" id="TEa6a" d="M49 150h5c0-9.773 3.905-19.311 8-27.5.772-1.544 2.732-7.5 5-7.5 0-2.413 9.762-17 12-17v-1l-4-4c-2.098 0-8.955 11.41-10 13.5-8.388 16.776-16 22.375-16 43.5Z"/><path fill="#C7C8CC" id="alv" d="m95 93-1 1 1-1Z"/><path fill="#CAC7CB" id="fiber tracts" d="M157 94h1v-1h-1v1Z"/><path fill="#C7CBCB" id="bsc" d="m159 93-1 1v-1h1Z"/><path fill="#15AFB2" id="TEa6a" d="M402 150c2.486 0 3.725 1 6 1 0-17.245-7.89-29.28-15-43.5L382 93h-1c0 1.114-2.034 4-3 4 0 2.966 11.099 14.697 13 18.5 5.465 10.929 11 21.275 11 34.5Z"/><path fill="#C7C8CC" id="alv" d="m94 94-1 1 1-1Z"/><path fill="#C7CBCB" id="bsc" d="m158 94-1 1v-1h1Z"/><path fill="#CAC7CB" id="fiber tracts" d="m299 94 2 2-2-2Z"/><path fill="#C7C8CC" id="alv" d="M93 95c-1.747 0-2 .253-2 2l2-2Z"/><path fill="#CAC7CB" id="fiber tracts" d="m156 95-1 1v-1h1Z"/><path fill="#C7CBCB" id="bsc" d="M155 97v1c1.577 0 2-1.762 2-3h-1l-1 1v1Z"/><path fill="#C7C8CC" id="alv" d="M364 95c1.935 0 8 6.222 8 8l-8-8Z"/><path fill="#029199" id="AUDpo2/3" d="M41 115h1l5-10c0-4.376-2-5.126-2-8l-8 14v1c2.06 0 4 .902 4 3Z"/><path fill="#C7C8CC" id="alv" d="m90 97-1 1 1-1Z"/><path fill="#CAC7CB" id="fiber tracts" d="M154 98h1v-1l-1 1Z"/><path fill="#16B0B2" id="TEa6b" d="M401 150h1c0-13.225-5.535-23.571-11-34.5-1.901-3.803-13-15.534-13-18.5h-1v2l6 8 1 1 1 1c0 5.09 14 19.925 14 29v1c0 3.695 2 6.865 2 11ZM71 111l-4 4c0-2.413 9.762-17 12-17v1c0 2.956-6 4.815-6 8l-2 4Z"/><path fill="#C7C8CC" id="alv" d="m89 98-1 1 1-1Z"/><path fill="#CAC7CB" id="fiber tracts" d="m154 98-1 1 1-1Z"/><path fill="#C7CBCB" id="bsc" d="M153 100v1c1.577 0 2-1.762 2-3h-1l-1 1v1Z"/><path fill="#FF8FFE" id="SCdw" d="M198 125c0-4.799 4.961-8.423 7-12.5 6.961-13.923 27.375-14.563 39.5-8.5l10.5 12.5c.695 1.39 2.272 8.5 4 8.5 0-1.423 1.978-3.544 1-5.5-3.439-6.878-8.77-16.635-16.5-20.5l-13-1c-19.205 0-33.5 7.036-33.5 27h1Z"/><path fill="#CAC7CB" id="fiber tracts" d="m302 98 2 2-2-2Z"/><path fill="#029199" id="AUDpo2/3" d="M414 115h1l4-4c0-1.911-5.828-13-7-13-2.266 0-3 4.897-3 7l5 10Z"/><path fill="#C7C8CC" id="alv" d="m88 99-1 1 1-1ZM87 100l-1 1 1-1Z"/><path fill="#CAC7CB" id="fiber tracts" d="M152 101h1v-1l-1 1Z"/><path fill="#C7C8CC" id="alv" d="m86 101-1 1 1-1Z"/><path fill="#CAC7CB" id="fiber tracts" d="m152 101-1 1 1-1Z"/><path fill="#C7CBCB" id="bsc" d="M149 107v2l4-8h-1l-1 1v1l-1 1-1 3Z"/><path fill="#FC8FFF" id="PAG" fill-rule="evenodd" d="M235 145c0 8.517 6.779 0 0 0m-16 0-2 2.5c0 4.504 9.652-2.5 2-2.5m14 14h1l3-4 2-4 2-2 1-1c0-6.312 9.445-17 16-17l1-6c-1.728 0-3.305-7.11-4-8.5L244.5 104c-12.125-6.063-32.539-5.423-39.5 8.5-2.039 4.077-7 7.701-7 12.5 0 2.124 1 4.436 1 6 6.353 0 16 12.2 16 18 3.733 0 4.309 7.404 7.5 9 2.589 1.294 1.929-6 3.5-6v-2c0-8.017 1-16.609 1-24 0-3.723 2-2.838 2 0 0 7.963 2 16.271 2 25v4l2 4Z"/><path fill="#C7C8CC" id="alv" d="m85 102-1 1 1-1Z"/><path fill="#7DCD4B" id="HPF" d="m143 103 2 2v-3l-2 1Z"/><path fill="#CAC7CB" id="fiber tracts" d="m305 102 1 1-1-1Z"/><path fill="#7DCD4B" id="HPF" d="m313 103-2 3v-4l2 1Z"/><path fill="#C7C8CC" id="alv" d="m84 103-1 1 1-1Z"/><path fill="#47C83C" id="POST" d="m131 103-1 1 1-1Z"/><path fill="#7BD04A" id="DG-mo" fill-rule="evenodd" d="M132 229h1c5.034 0 16.483-4.535 12-13.5l-2-3.5-2-2v-1l-1-2v-1l-1-1-8-31v-1c-1.67 0-6-13.037-6-15v-3c-1.684 0-1-4.679-1-6v-2c0-1.048-.473-3 1-3v-2c0-1.465-.109-4 2-4v-1c0-1.238.423-3 2-3l1-1 1-1c0-5.042 8.125-7.75 10-11.5 2.923-5.847 4-8.293 4-15.5l-2-2h-12l-1 1-3 1-10 5c0 .291-15.367 12.235-17 15.5-4.35 8.701-16.223 28.554-11 39v7c7.491 14.983 11.408 24.408 23.5 36.5l16.5 18 3 3m1-34 5 13c5.884 0 5.365 19.432-3.5 15-4.529-2.264-9.105-8.71-11.5-13.5-2.481-4.961-11.102-9.203-14-15-3.487-6.974-8.56-13.12-12-20-12.97-25.941 17.485-55.992 36.5-65.5 4.731-2.366 4.816 2.868 3.5 5.5l-14 14-6 13v7c0 20.646 16 34.463 16 46.5Z"/><path fill="#CAC7CB" id="fiber tracts" d="m151 103-1 1 1-1Z"/><path fill="#7BD04A" id="DG-mo" d="M325 229c-1.048 0-3-.473-3 1-3.025 0-5.317-1.817-7.5-4-8.966-8.966.5-9.4.5-16h1c0 1.779-3.728 18.114 6.5 13 4.48-2.24 12.47-13.44 14.5-17.5 3.7-7.401 15.747-16.495 20-25 14.898-29.796-9.509-59.005-34.5-71.5-4.319-2.159-4.639 3.222-3.5 5.5l12 11c2.415 4.829 5.61 9.219 8 14 8.816 17.631-15 41.762-15 55.5 0 4.205-5 7.863-5 13l-2 1v-2c0-10.862 8-21.302 8-32v-1c1.638 0 2-3.576 2-5 1.569 0 3-6.6 3-8l1-2v-2l1-2v-10c0-1.048.473-3-1-3v-1c0-9.322-15.831-18.163-20-26.5V106l2-3h8c3.138 0 5.662 2 8 2l10 5c2.487 0 13.357 11.214 14 12.5 2.811 5.622 8.648 12.296 12 19 6.856 13.712 2.125 32.751-4 45l-10 14c-3.189 6.379-23 20.998-23 25.5l-3 3Z"/><path fill="#C7C8CC" id="alv" d="m83 104-1 1 1-1Z"/><path fill="#CAC7CB" id="fiber tracts" d="m306 104 1 1-1-1Z"/><path fill="#C7C8CC" id="alv" d="M373 104c2.619 0 9 8.858 9 11l-9-11Z"/><path fill="#039298" id="AUDpo4" d="M45 117h1c0-1.664 1.822-6 4-6v-2c-2.029 0-.058-1 1-1 0-1.765-1.581-.541-2.5-1-1.337-.669 1.814-2-.5-2h-1l-5 10 3 2Z"/><path fill="#C7C8CC" id="alv" d="m82 105-1 1 1-1Z"/><path fill="#039298" id="AUDpo4" d="M414 115c-2.215 0-1.519 2-3 2l-4-7c0-3.087 1-2.265 1-5h1l5 10Z"/><path fill="#C7C8CC" id="alv" d="M81 106c-1.577 0-2 1.762-2 3 1.577 0 2-1.762 2-3Z"/><path fill="#CAC7CB" id="fiber tracts" d="m307 106 1 1-1-1Z"/><path fill="#CCC8CA" id="ar" d="M71 111h1l1-1c0-.716 2.373-3 0-3l-2 4Z"/><path fill="#CAC7CB" id="fiber tracts" d="M148 109h1v-2l-1 2Z"/><path fill="#CCC8CA" id="ar" d="M398 138h1c0-9.075-14-23.91-14-29l-1-1-1-1c-1.797 0 4 7.346 4 9l2 2v1l2 2v1l1 1v1l1 1v1l1 1v1l1 1v2l1 1v1l1 1v2l1 1v1Z"/><path fill="#15B0B2" id="TEa4" d="M51 108c-1.058 0-3.029 1-1 1l1-1Z"/><path fill="#CAC7CB" id="fiber tracts" d="m308 108 1 2-1-2Z"/><path fill="#CBC9C7" id="or" d="m384 108 1 1-1-1Z"/><path fill="#019099" id="AUDv1" d="M426 129h5c0-2.766-6.4-21-8-21l-3 3c0 5.792 6 11.97 6 18ZM25 129h6c0-2.686 3.96-17 6-17v-1l-4-2-2.5 4-5.5 16Z"/><path fill="#C7C8CC" id="alv" d="m79 109-1 1 1-1Z"/><path fill="#65A83D" id="DG-sg" d="M133 195c0-12.037-16-25.854-16-46.5v-7l6-13 14-14c1.316-2.632 1.231-7.866-3.5-5.5-19.015 9.508-49.47 39.559-36.5 65.5 3.44 6.88 8.513 13.026 12 20 2.898 5.797 11.519 10.039 14 15 2.395 4.79 6.971 11.236 11.5 13.5 8.865 4.432 9.384-15 3.5-15 0 2.937.154 12.827-5.5 10-4.387-2.193-9.391-10.283-11.5-14.5l-6-6c-6.654-13.308-17-19.281-17-36v-7c5.773-11.545 5.738-16.738 16.5-27.5 2.662-2.662 7.188-4.875 8.5-7.5h3l-9 12c-.773 1.547-2.992 13.5-4 13.5 0 15.794 5.543 25.586 12 38.5.981 1.963 5.527 11.5 8 11.5Z"/><path fill="#CAC7CB" id="fiber tracts" d="m148 109-1 2 1-2Z"/><path fill="#C7CBCB" id="bsc" d="M146 124h2l1-15h-1l-1 2v2l-1 2v9Z"/><path fill="#65A83D" id="DG-sg" d="m317 209-1 1c0 1.779-3.728 18.114 6.5 13 4.48-2.24 12.47-13.44 14.5-17.5 3.7-7.401 15.747-16.495 20-25 14.898-29.796-9.509-59.005-34.5-71.5-4.319-2.159-4.639 3.222-3.5 5.5l12 11c2.415 4.829 5.61 9.219 8 14 8.816 17.631-15 41.762-15 55.5 2.207 0 7.012-10.525 8-12.5 6.351-12.702 11-21.92 11-37.5 0-7.475-4.879-13.259-8-19.5-.733-1.465-4.975-4.05-4-6 .555-1.11 11.308 6.616 12 8l10 12c3.528 7.057 9.235 21.531 5 30-3.5 7.001-7.442 13.884-11 21-3.251 6.501-9.976 9.953-13 16-5.059 10.118-15 17.864-15 1.5l-2 1Z"/><path fill="#019197" id="AUDpo5" d="M50 110c1.186 0 1.186 1 0 1v-1Z"/><path fill="#C8C9CA" id="fp" d="m73 110-1 1 1-1Z"/><path fill="#C7C8CC" id="alv" d="m78 110-1 1 1-1Z"/><path fill="#019197" id="AUDpo5" d="m411 118-4 2-2-4.5 2-3c0-.62-3.578-2.5-1-2.5h1l4 7v1ZM46 117c0 1.712 2.571 3 4 3v-9c-2.178 0-4 4.336-4 6Z"/><path fill="#CCC8CA" id="ar" d="M67 117h1l1-1 2-4v-1l-4 4v2Z"/><path fill="#C8C9CA" id="fp" d="m72 111-1 1v-1h1Z"/><path fill="#C7C8CC" id="alv" d="m77 111-2 2c1.747 0 2-.253 2-2Z"/><path fill="#029198" id="AUDv2/3" d="M421 129h5c0-6.03-6-12.208-6-18h-1l-4 4c0 4.81 5 8.833 5 14h1ZM31 129h5c0-4.944 5-9.043 5-14 0-2.098-1.94-3-4-3-2.04 0-6 14.314-6 17Z"/><path fill="#CAC7CB" id="fiber tracts" d="m309 112 1 1-1-1ZM147 113l-1 2 1-2Z"/><path fill="#C7C8CC" id="alv" d="m75 114-1 1 1-1Z"/><path fill="#029197" id="AUDv4" d="M36 129h4l1-1c0-4.349 4-6.918 4-11l-3-2h-1c0 4.957-5 9.056-5 14Z"/><path fill="#16B0B2" id="TEa6b" d="M54 150h1v-1l2-10 1-2c0-1.048-.473-3 1-3 0-1.424.362-5 2-5 0-1.465-.109-4 2-4 0-1.465-.109-4 2-4l1-2 1-2v-2c-2.268 0-4.228 5.956-5 7.5-4.095 8.189-8 17.727-8 27.5Z"/><path fill="#C7C8CC" id="alv" d="m74 115-1 1 1-1Z"/><path fill="#029197" id="AUDv4" d="M417 129c0-1.514 1.762 0 3 0 0-5.167-5-9.19-5-14h-1c-2.215 0-1.519 2-3 2v1c1.802 0 5 9.131 5 11h1Z"/><path fill="#C8C9CA" id="fp" d="m69 116-1 1 1-1Z"/><path fill="#CAC7CB" id="fiber tracts" d="M310 116c1.473 0 1 1.952 1 3-1.473 0-1-1.952-1-3Z"/><path fill="#C7C8CC" id="alv" d="M383 116c1.428 0 4 4.822 4 6-1.428 0-4-4.822-4-6Z"/><path fill="#C8C9CA" id="fp" d="m387 116 2 2-2-2Z"/><path fill="#019098" id="AUDv5" d="M50 120c0 6.415-5.37 8-9 8 0-4.349 4-6.918 4-11h1c0 1.712 2.571 3 4 3Z"/><path fill="#CCC8CA" id="ar" d="M66 119h1v-2l-1 2Z"/><path fill="#C8C9CA" id="fp" d="m68 117-1 2v-2h1Z"/><path fill="#C7C8CC" id="alv" d="m73 117-1 1 1-1ZM72 118l-1 1 1-1Z"/><path fill="#019098" id="AUDv5" d="M407 120c0 4.706 3.983 9 9 9 0-1.869-3.198-11-5-11l-4 2Z"/><path fill="#CCC8CA" id="ar" d="M65 121h1v-2l-1 2Z"/><path fill="#C8C9CA" id="fp" d="m67 119-1 1v-1h1Z"/><path fill="#7ECE4A" id="DG-po" d="M113 145c1.008 0 3.227-11.953 4-13.5l9-12h-3c-1.312 2.625-5.838 4.838-8.5 7.5-10.762 10.762-10.727 15.955-16.5 27.5v7c0 16.719 10.346 22.692 17 36l6 6c2.109 4.217 7.113 12.307 11.5 14.5 5.654 2.827 5.5-7.063 5.5-10-18.174 0-28.689-25.878-35-38.5-2.537-5.075.81-24.155 5.5-26.5 2.116-1.058 2.898 2 4.5 2ZM343 145c1.791 0 2.959-3.27 5.5-2 4.154 2.077 7.908 18.683 5.5 23.5-6.571 13.143-15.335 41.5-35 41.5 0 16.364 9.941 8.618 15-1.5 3.024-6.047 9.749-9.499 13-16 3.558-7.116 7.5-13.999 11-21 4.235-8.469-1.472-22.943-5-30l-10-12c-.692-1.384-11.445-9.11-12-8-.975 1.95 3.267 4.535 4 6 3.121 6.241 8 12.025 8 19.5Z"/><path fill="#C8C9CA" id="fp" d="m389 119 2 2-2-2Z"/><path fill="#C7C8CC" id="alv" d="m71 120-1 1 1-1Z"/><path fill="#CAC7CB" id="fiber tracts" d="M146 120c-1.186 0-1.186 1 0 1v-1Z"/><path fill="#CCC8CA" id="ar" d="m64 124-1 1c0-1.465-.109-4 2-4v2l-1 1Z"/><path fill="#C8C9CA" id="fp" d="m66 121-1 1v-1h1ZM59 142h2v-1l1-2v-1l1-1v-2l1-2 1-2v-1l1-1v-1l1-1v-1l1-1 1-2v-2c-2.49 0-7 12.812-7 8h-1v2c2.373 0 0 3.336 0 1l-1 1c2.643 0-1 7.561-1 9Z"/><path fill="#C7C8CC" id="alv" d="m70 121-1 2v-2h1Z"/><path fill="#C8C9CA" id="fp" d="m391 122 1 1-1-1ZM65 123l-1 1 1-1Z"/><path fill="#C7C8CC" id="alv" d="m69 123-1 2 1-2Z"/><path fill="#FF64FF" id="MB" d="m146 124-2 1 2-2v1Z"/><path fill="#A9A9A8" id="AQ" d="M227 126h2c0-2.838-2-3.723-2 0Z"/><path fill="#FF64FF" id="MB" d="M308 124h1v-1l-1 1ZM311 124l1 1-1-2v1Z"/><path fill="#C7C8CC" id="alv" d="m387 123 2 2-2-2Z"/><path fill="#FF8EFF" id="DT" d="M143 127c0 2.624 6 3.235 6 0 0-1.048.473-3-1-3h-2l-2 1-1 1v1ZM313 126c0 3.899-6 3.826-6 2l1-4h3l1 1 1 1Z"/><path fill="#C8C9CA" id="fp" d="m392 124 1 1-1-1Z"/><path fill="#CCC8CA" id="ar" d="M61 129h1v-1l1-1v-2c-2.109 0-2 2.535-2 4Z"/><path fill="#C7C8CC" id="alv" d="m68 125-1 1 1-1Z"/><path fill="#FF64FF" id="MB" d="m144 125-1 1 1-1ZM147 137l2 2c0-8.64 11.811-1.344 14.5 0h8.5c3.206 0 17.915-7.208 21.5-9 1.956-.978 4.077 1 5.5 1 0-1.564-1-3.876-1-6h-1c-4.22 0-7.344 2-12 2 0 12.997-21.968 4-28 4-6.061 0-7.609-4-8-4 0 3.235-6 2.624-6 0l-2 3 2 3 4 4ZM309 137l-1 1c-2.623 0-4.563-4.969-8.5-3-3.564 1.782-10.007 6.497-15 4-8.73-4.365-17.072-8-26.5-8l1-6c4.22 0 7.344 2 12 2 .765 0 4.618 6.059 6.5 7 5.747 2.873 16.058-3 21.5-3 2.112 0 3.332 1.084 5.5 0l2.5-3c0 1.826 6 1.899 6-2l2 4-1 2-1 1-4 4ZM226 150l5 1c0-8.729-2-17.037-2-25h-2c0 7.391-1 15.983-1 24Z"/><path fill="#C8C9CA" id="fp" d="m393 126 1 1-1-1ZM63 127l-1 1 1-1Z"/><path fill="#C7C8CC" id="alv" d="m67 127-1 1 1-1Z"/><path fill="#019098" id="AUDv5" d="m41 128-1 1 1-1Z"/><path fill="#FF8E9D" id="SGN" d="M135 146h4l4-5v-8l-2-3c0-2.55-8-2.39-8 2 3.118 0 2 11.531 2 14ZM318 146h3c0-1.726-.739-10.022 0-11.5.809-1.619 2-1.471 2-3.5 0-4.804-6.4-1-8-1l-1 2-1 1v7l5 6Z"/><path fill="#C7C8CC" id="alv" d="m390 128 1 1-1-1Z"/><path fill="#C8C9CA" id="fp" d="m394 128 1 1-1-1Z"/><path fill="#15B0B2" id="TEa4" d="M419 151h1c0-6.557 1-14.767 1-22h-1c-1.238 0-3-1.514-3 0 0 7.42 2 14.003 2 22Z"/><path fill="#15B0B3" id="TEa1" d="m29 152-4 1v-24h6l-2 6.5V152Z"/><path fill="#16AFB3" id="TEa2/3" d="M36 151c-1.819 0-4.59 1-7 1v-16.5l2-6.5h5v22Z"/><path fill="#15B0B2" id="TEa4" d="M36 151h2c0-7.684 2-15.302 2-22h-4v22Z"/><path fill="#CCC8CA" id="ar" d="M59 134h1v-1l1-1v-3c-1.638 0-2 3.576-2 5Z"/><path fill="#C7C8CC" id="alv" d="m66 129-1 1 1-1Z"/><path fill="#16AFB3" id="TEa2/3" d="m420 151 7 1c0-7.619-1-16.035-1-23h-5c0 7.233-1 15.443-1 22Z"/><path fill="#15B0B3" id="TEa1" d="m427 152 4 1c1.665 0 1-4.222 1-5.5l-1-18.5h-5c0 6.965 1 15.381 1 23Z"/><path fill="#FF8FFD" id="MRN" d="M194 189h4c0-1.728-7.11-3.305-8.5-4-6.849-3.425-12.491-11.517-8.5-19.5 7.815-15.63 37-3.777 37 11.5h1c0-1.465-.109-4 2-4l1-2 1-2v-3l-1-5-3-4v-1l-1-1v-1l-1-1v-1l-1-1-1-2c0-5.8-9.647-18-16-18-1.423 0-3.544-1.978-5.5-1-3.585 1.792-18.294 9-21.5 9h-8.5c-2.689-1.344-14.5-8.64-14.5 0l1 13-1 1v4c1.951 0 .477 2.454 1 3.5l3 11c2.039 4.078 4.839 5.839 8 9l4 2.5c1.745 0 6-.698 6 2 2.675 0 5.922 3 9 3 2.454 0 7.523-2.489 10.5-1l3.5 2ZM259 189h3c1.793 0 14-5.157 14-1l9-2c0-3.626 3.26-3 6-3 9.157 0 16-19.902 16-27v-3c0-4.829 1-9.911 1-15-2.623 0-4.563-4.969-8.5-3-3.564 1.782-10.007 6.497-15 4-8.73-4.365-17.072-8-26.5-8-6.555 0-16 10.688-16 17l-1 1v2l-2 2v1l-1 1-1 2v1l-1 1-2 3-1 3v4c2.109 0 2 2.535 2 4 1.577 0 2 1.762 2 3l1 1v1h1c0-17.665 27.432-29.637 38-8.5 5.036 10.071-18 18.117-18 19.5Z"/><path fill="#C7C8CC" id="alv" d="m391 130 2 4-2-4Z"/><path fill="#CBC9C7" id="or" d="M61 131c2.373 0 0 3.336 0 1v-1Z"/><path fill="#C7C8CC" id="alv" d="m65 131-1 2 1-2Z"/><path fill="#FE7F82" id="MGd" d="m323 148 4.5-1 4.5 3v-5c-1.473 0-1-1.952-1-3v-1c-2.52 0-3.609-10-8-10 0 2.029-1.191 1.881-2 3.5-.739 1.478 0 9.774 0 11.5l2 2Z"/><path fill="#C8C9CA" id="fp" d="m395 131 1 1-1-1Z"/><path fill="#FE7F82" id="MGd" d="M124 149h1l3.5-2 4.5 1 2-2c0-2.469 1.118-14-2-14h-2l-1 1-1 1c0 1.238-.423 3-2 3v1l-2 4v2c0 1.048.473 3-1 3v2Z"/><path fill="#FF6F80" id="TH" d="m314 132-1 1 1-1Z"/><path fill="#CBC9C7" id="or" d="M59 142c0 1.152-.895 10-2.5 10l-1.5-3 2-10 1-1 1-1v-2l1-1v-1c2.643 0-1 7.561-1 9Z"/><path fill="#C7C8CC" id="alv" d="m64 133-1 2 1-2Z"/><path fill="#FF6F80" id="TH" d="M147 137c-2.54 0-2.543 3-4 3v-7l4 4ZM309 137l4 2v-6l-4 4Z"/><path fill="#C8C9CA" id="fp" d="m396 133 1 1-1-1Z"/><path fill="#CCC8CA" id="ar" d="M58 137h1v-3c-1.473 0-1 1.952-1 3Z"/><path fill="#C8C9CA" id="fp" d="m60 134-1 1v-1h1Z"/><path fill="#C7C8CC" id="alv" d="m393 135 2 4-2-4Z"/><path fill="#C8C9CA" id="fp" d="m397 136 1 1-1-1Z"/><path fill="#CCC8CA" id="ar" d="m58 138-1 1 1-2v1Z"/><path fill="#C8C9CA" id="fp" d="m59 137-1 1v-1h1Z"/><path fill="#C7C8CC" id="alv" d="m63 137-1 1 1-1Z"/><path fill="#FF8D9D" id="POL" d="m150 152-1 1c-6.633 0-6-6.978-6-12v-1c1.457 0 1.46-3 4-3l2 2 1 13ZM313 140c0 5.973 1.763 13-6 13 0-4.829 1-9.911 1-15l1-1 4 2v1Z"/><path fill="#C8C9CA" id="fp" d="M399 138v1l-1-1h1Z"/><path fill="#C7C8CC" id="alv" d="m62 139-1 2 1-2Z"/><path fill="#FF6F80" id="TH" d="m315 171-1 1c0-2.418-3.778-11.056-5-13.5l-2-2.5v-3c7.763 0 6-7.027 6-13l5 6c-1.714 0-1 5.594-1 7-10.427 0-2 15.427-2 18ZM141 171l2 1c0-1.822 4.555-15 6-15v-4c-6.633 0-6-6.978-6-12l-4 5v8c11.338 0 2 14.024 2 17Z"/><path fill="#C7C8CC" id="alv" d="M396 142v1l-1-2 1 1Z"/><path fill="#C8CBCC" id="ec" d="m93 232 4 3-18-17.5c-7.835-15.669-20-28.582-20-47.5v-1c-1.644 0-1.644-14 0-14v-6c0-1.048-.473-3 1-3v-1l1-2v-1h-2c0 1.152-.895 10-2.5 10l-1.5-3v16c1.483 0 2 8.263 2 10 0 13.477 10.355 24.211 16 35.5 1.795 3.59 9 8.486 9 12.5l2 2h1l2 2 2 2 2 2h1l1 1ZM385 205v2c1.757 0 4.284-6.069 5-7.5 3.913-7.826 9-15.088 9-24.5 0-.981 1.184-8 2-8v-15c-2.645 0-4-7.562-4-10h-1v2c1.473 0 1 1.952 1 3v5c1.614 0 1 3.31 1 4.5 0 2.2.803 16.5-1 16.5 0 1.775-.069 8-2 8 0 1.623-.005 6-2 6 0 2.161-1.729 10-4 10l-1 2-1 2c0 1.238-.423 3-2 3v1Z"/><path fill="#C7C8CC" id="alv" d="m61 143-1 2 1-2Z"/><path fill="#7ECF49" id="CA3" d="m133 195 5 13c-18.174 0-28.689-25.878-35-38.5-2.537-5.075.81-24.155 5.5-26.5 2.116-1.058 2.898 2 4.5 2 0 15.794 5.543 25.586 12 38.5.981 1.963 5.527 11.5 8 11.5ZM324 195c0 4.205-5 7.863-5 13 19.665 0 28.429-28.357 35-41.5 2.408-4.817-1.346-21.423-5.5-23.5-2.541-1.27-3.709 2-5.5 2 0 15.58-4.649 24.798-11 37.5-.988 1.975-5.793 12.5-8 12.5Z"/><path fill="#C7C8CC" id="alv" d="M396 144c1.473 0 1 1.952 1 3-1.473 0-1-1.952-1-3Z"/><path fill="#FD8FFD" id="ND" d="m219 145-2 2.5c0 4.504 9.652-2.5 2-2.5ZM235 145c0 8.517 6.779 0 0 0Z"/><path fill="#C7C8CC" id="alv" d="M60 146c-1.473 0-1 1.952-1 3 1.473 0 1-1.952 1-3Z"/><path fill="#FD7F83" id="MGm" d="M139 154c0 2.885-2.753 8-6 8 0-2.721.836-6.171 2-8.5 1.27-2.541-2-3.709-2-5.5l2-2h4v8ZM317 153c0 2.495 2.698 9 6 9v-14l-2-2h-3c-1.714 0-1 5.594-1 7Z"/><path fill="#FE7E83" id="MGv" d="M130 163h3v-1c0-2.721.836-6.171 2-8.5 1.27-2.541-2-3.709-2-5.5l-4.5-1-3.5 2v9l4 5h1ZM324 163h3l3-2 1-2v-2l1-2v-5l-4.5-3-4.5 1v14l1 1Z"/><path fill="#FF64FF" id="MB" d="m242 148-1 1 1-1ZM223 166h1l1-1c0-3.802 6-4.302 6 0h2l1-3c-3.382 0-1-1.342-1-3l-2-4c0 7.404-5 5.105-5-3-1.571 0-.911 7.294-3.5 6-3.191-1.596-3.767-9-7.5-9l1 2 1 1v1l1 1v1l1 1v1c2.194 0 6.632 6.066 4.5 5l-1.5-1 1 5ZM239 151h2v-2l-2 2Z"/><path fill="#0D9E90" id="ECT5" d="M43 165h7l-1-14H38l5 14Z"/><path fill="#0E9F91" id="ECT6a" d="M51 165h4v-5c-1.763 0-1-8.343-1-10h-5v1l1 14h1Z"/><path fill="#0E9F90" id="ECT6b" d="M55 150v10c-1.763 0-1-8.343-1-10h1Z"/><path fill="#FE8FFC" id="EW" d="M226 152c0 8.105 5 10.404 5 3v-4l-5-1v2Z"/><path fill="#0E9F90" id="ECT6b" d="M401 165h1v-15h-1v15Z"/><path fill="#0E9F91" id="ECT6a" d="M402 165h4c0-4.577 2-8.982 2-14-2.275 0-3.514-1-6-1v15Z"/><path fill="#0D9E90" id="ECT5" d="M413 165h1l4-14h-10c0 5.018-2 9.423-2 14h7Z"/><path fill="#0D9F91" id="ECT2/3" d="M34 165h9l-5-14h-2c-1.819 0-4.59 1-7 1 0 2.191 3.014 13 5 13Z"/><path fill="#CBCBCC" id="mlf" d="m216 151 1 1-1-1Z"/><path fill="#FF64FF" id="MB" d="M237 155h1l1-1v-3l-2 4Z"/><path fill="#CBCBCC" id="mlf" d="m241 151-2 2v-2h2Z"/><path fill="#0D9F91" id="ECT2/3" d="M414 165h8c2.813 0 5-10.322 5-13l-7-1h-2l-4 14Z"/><path fill="#0D9F90" id="ECT1" d="M31 167h4l-1-2c-1.986 0-5-10.809-5-13l-4 1c0 3.976 1.84 14 6 14Z"/><path fill="#FF6F80" id="TH" d="m150 152-1 1 1-1Z"/><path fill="#C7C8CC" id="alv" d="M397 152c1.614 0 1 3.31 1 4.5 0 2.2.803 16.5-1 16.5v-21Z"/><path fill="#0D9F90" id="ECT1" d="M422 166c0 1.473 1.952 1 3 1 5.998 0 6-10.134 6-14l-4-1c0 2.678-2.187 13-5 13v1Z"/><path fill="#FE8D9E" id="PIL" d="M137 171h4c0-2.976 9.338-17-2-17 0 2.885-2.753 8-6 8v1c0 3.715 4 5.378 4 8Z"/><path fill="#CBCBCC" id="mlf" d="m217 153 1 1-1-1Z"/><path fill="#FE8D9E" id="PIL" d="M315 171h4l2-2 1-1 1-1 1-4-1-1c-3.302 0-6-6.505-6-9-10.427 0-2 15.427-2 18Z"/><path fill="#CBCBCC" id="mlf" d="m239 154-1 1 1-1Z"/><path fill="#C7C8CC" id="alv" d="M59 155c-1.644 0-1.644 14 0 14v-14Z"/><path fill="#CBCBCC" id="mlf" d="m218 155 1 1-1-1Z"/><path fill="#FF64FF" id="MB" d="M234 159h2l1-1v-3l-3 4Z"/><path fill="#CBCBCC" id="mlf" d="m238 155-1 2v-2h1Z"/><path fill="#FF64FF" id="MB" d="m291 183 1 2c4.078 0 10.794-6.147 14.5-8 5.567-2.784 7.902 5 10.5 5 0-2.906 6-13.424 6-6l2-1v-1c0-1.424.362-5 2-5v-5l-4 3-1 1-1 1c0 1.238-.423 3-2 3 0 2.695-5 2.695-5 0 0-2.418-3.778-11.056-5-13.5l-2-2.5c0 7.098-6.843 27-16 27ZM165 183l-1 2-14.5-8c-6.382-3.191-7.924 6-10.5 6 0-4.937-5-13.834-5-5l-3-4v-1c0-3.395-2-6.106-2-10h1c0 1.518 5.218 8 7 8 0 3.354 6 3.591 6 1 0-1.822 4.555-15 6-15 1.951 0 .477 2.454 1 3.5l3 11c2.039 4.078 4.839 5.839 8 9l4 2.5Z"/><path fill="#CBCBCC" id="mlf" d="M219 157c2.194 0 6.632 6.066 4.5 5l-1.5-1-3-4Z"/><path fill="#FE90FD" id="RN" d="M198 189h6l1-1h1l1-1h1c0-1.577 1.762-2 3-2l2-1 1-1h1v-1l1-1 1-1v-1l1-2c0-15.277-29.185-27.13-37-11.5-3.991 7.983 1.651 16.075 8.5 19.5 1.39.695 8.5 2.272 8.5 4Z"/><path fill="#CBCBCC" id="mlf" d="m237 158-1 1 1-1Z"/><path fill="#FE90FD" id="RN" d="M253 189h6c0-1.383 23.036-9.429 18-19.5-10.568-21.137-38-9.165-38 8.5v2l9 7h2l3 2Z"/><path fill="#CBCBCC" id="mlf" d="m236 159-2 3c-3.382 0-1-1.342-1-3h3Z"/><path fill="#FEA6FF" id="RL" d="M232 179h1l-2-14c0-4.302-6-3.802-6 0v1l-1 10 1 2h2c0-1.399 2-1.399 2 0h2l1 1Z"/><path fill="#FF6F80" id="TH" d="M133 163c0 3.715 4 5.378 4 8-1.782 0-7-6.482-7-8h3ZM327 164l-4 3 1-4h3v1Z"/><path fill="#0E9583" id="PERI2/3" d="m41 177-7 1c0-1.089 6.367-11 1-11l-1-2h9c0 1.606 2.08 10 4 10 0 .913-5.014 2-6 2Z"/><path fill="#0F9684" id="PERI5" d="M48 175h4l-1-10h-8c0 1.606 2.08 10 4 10h1Z"/><path fill="#0E9684" id="PERI6a" d="m56 174-4 1-1-10h4c0 3.013 1 6.611 1 9Z"/><path fill="#0E9683" id="PERI6b" d="m56 174 1 1c0-1.737-.517-10-2-10 0 3.013 1 6.611 1 9Z"/><path fill="#CACAC7" id="dtd" d="M224 166h1v-1l-1 1Z"/><path fill="#C8C8C8" id="mtg" d="M235 183h2l-3-10-1-4v-2l-1-2h-1l2 14 1 1v1l1 1v1Z"/><path fill="#CACAC7" id="dtd" d="M233 165v2l-1-2h1Z"/><path fill="#0E9683" id="PERI6b" d="m402 165-1 1v-1h1Z"/><path fill="#0E9684" id="PERI6a" d="m401 174 3 1 2-10h-4l-1 1v8Z"/><path fill="#0F9684" id="PERI5" d="M409 176h1c0-3.751 3-6.819 3-11h-7l-2 10c1.235 0 5-.643 5 1Z"/><path fill="#0E9583" id="PERI2/3" d="M415 177c2.409 0 5.181 1 7 1 0-1.124-5.077-12 0-12v-1h-9c0 4.181-3 7.249-3 11l5 1Z"/><path fill="#CACAC7" id="dtd" d="M224 166c0 1.048.473 3-1 3v-3h1Z"/><path fill="#C8C8C8" id="mtg" d="m222 181-2 2 2-10c1.579 0 1-2.855 1-4 1.473 0 1-1.952 1-3h1l-1 10c-1.473 0-1 1.952-1 3l-1 2Z"/><path fill="#0E9584" id="PERI1" d="m423 178 7 1c0-1.01-5-4.675-5-12-1.048 0-3 .473-3-1-5.077 0 0 10.876 0 12h1ZM33 178h1c0-1.089 6.367-11 1-11h-4c0 7.189-4 9.249-4 12l6-1Z"/><path fill="#FF6F80" id="TH" d="m323 167-1 1 1-1Z"/><path fill="#0E9683" id="PERI6b" d="m401 174-2 1c0-.981 1.184-8 2-8v7Z"/><path fill="#FF6F80" id="TH" d="m322 168-1 1 1-1Z"/><path fill="#CACAC7" id="dtd" d="M222 171v2c1.579 0 1-2.855 1-4l-1 2ZM234 173h1c0-1.465.109-4-2-4l1 4Z"/><path fill="#FF6F80" id="TH" d="M319 171v1c1.577 0 2-1.762 2-3l-2 2Z"/><path fill="#C7C8CC" id="alv" d="m98 235 7 4c0-2.058-6.918-5.209-8.5-6-7.206-3.603-18.019-15.537-21.5-22.5-4.14-8.279-7.879-16.757-12-25-1.639-3.278-1.323-7.646-3-11-.574-1.147 1.064-4.5-1-4.5 0 18.918 12.165 31.831 20 47.5L97 235h1Z"/><path fill="#FD7F84" id="PP" d="m141 171 2 1c0 2.591-6 2.354-6-1h4Z"/><path fill="#FF64FF" id="MB" d="M221 173h1v-2l-1 2Z"/><path fill="#FD7F84" id="PP" d="M314 172c0 2.695 5 2.695 5 0v-1h-4l-1 1Z"/><path fill="#C8C8CC" id="tspc" d="M215 183c0 3.17 5 2.516 5 0l2-10h-1c-2.109 0-2 2.535-2 4l-1 1v1l-1 1v1l-1 1-1 1ZM240 182c0 5.325-3 3.032-3 1l-3-10h1c1.577 0 2 1.762 2 3l1 1v1l1 1v1l1 2Z"/><path fill="#C7C8CC" id="alv" d="M397 173c-1.931 0-2 6.225-2 8 1.931 0 2-6.225 2-8Z"/><path fill="#32B824" id="ENTl6a" d="m82 224-4 1c0-5.381-9.434-11.368-12-16.5-5.47-10.941-14-20.355-14-33.5l4-1 1 1c0 13.477 10.355 24.211 16 35.5 1.795 3.59 9 8.486 9 12.5v1Z"/><path fill="#CCCAC7" id="cpd" d="m198 229 1 2c0 7.061-22.233-.366-25.5-2l-7.5-6-2-2h-1l-2-2h-1c0-1.577-1.762-2-3-2h-1l-1-1c-5.538 0-17-19.256-17-24l-1-1v-3l-1-1v-1l-1-1v-4l-1-2v-1c0-8.834 5 .063 5 5 0 22.738 23.375 37 44 37 0 .718 8.654 3 10 3 0 1.668 3.099 6 5 6ZM259 229l-2 2c0 2.403 7.676 3 9.5 3 4.755 0 24.5-6.568 24.5-12l1-1h1l1-1 1-1h1l1-1h1l1-1c8.437 0 21-23.024 21-30l1-1v-3l1-2v-2l1-1v-2c0-7.424-6 3.094-6 6 0 23.25-21.303 38-43 38 0 .274-9.071 3-10 3l-5 6Z"/><path fill="#32B824" id="ENTl6a" d="M378 225h1c0-6.724 10.094-12.688 13-18.5 5.061-10.121 12-19.302 12-31.5l-3-1-2 1c0 9.412-5.087 16.674-9 24.5-.716 1.431-3.243 7.5-5 7.5 0 1.238-.423 3-2 3 0 1.238-.423 3-2 3 0 1.238-.423 3-2 3l-1 1-1 1c0 1.238-.423 3-2 3l-1 2 1 1c0 1.473 1.952 1 3 1Z"/><path fill="#32B725" id="ENTl3" d="M69 229c-3.303 0-5.115 2-8 2l-11-15.5-10-25 1-13.5c.986 0 6-1.087 6-2h1c0 11.679-.202 20.095 5 30.5 2.576 5.152 16 19.846 16 23.5Z"/><path fill="#31B824" id="ENTl5" d="m74 228-5 1c0-3.654-13.424-18.348-16-23.5-5.202-10.405-5-18.821-5-30.5h4c0 13.145 8.53 22.559 14 33.5 2.566 5.132 12 11.119 12 16.5l-4 3ZM382 227l5 2 14-19.5c5.625-11.25 8-19.683 8-33.5 0-1.643-3.765-1-5-1 0 12.198-6.939 21.379-12 31.5-2.906 5.812-13 11.776-13 18.5 0 1.577 1.762 2 3 2Z"/><path fill="#FF64FF" id="MB" d="m225 178-2 1c0-1.048-.473-3 1-3l1 2ZM237 176l1 1-1-1Z"/><path fill="#32B725" id="ENTl3" d="M387 229c3.519 0 5.843 2 9 2 0-5.1 8.722-11.945 11-16.5 4.109-8.219 5.891-17.781 10-26l-2-11.5-5-1h-1c0 13.817-2.375 22.25-8 33.5L387 229Z"/><path fill="#32B825" id="ENTl2" d="M61 231c-3.157 0-5.48 2-9 2-6.748 0-6.878-9.256-9-13.5-4.81-9.62-7.187-20.374-12-30-.875-1.75 2-8.619 2-11.5h1l7-1-1 13.5 10 25L61 231Z"/><path fill="#FF8DFD" id="SNr" d="M189 219c0 1.684-4.679 1-6 1-20.625 0-44-14.262-44-37 2.576 0 4.118-9.191 10.5-6l14.5 8c0 4.088 5.197 8 9 8 0 2.83 4 4.54 4 7-2.658 0-1.187.873-2 2.5-4.07 8.14 8 11.185 8 6.5l2 1c0 3.54 4 5.131 4 9Z"/><path fill="#FF8FFD" id="MRN" d="M217 179h1v-2l-1 2Z"/><path fill="#FF64FF" id="MB" d="m219 177-1 1v-1h1ZM227 178h2c0-1.399-2-1.399-2 0Z"/><path fill="#FF8DFD" id="SNr" d="M267 219c1.819 0 4.591 1 7 1 21.697 0 43-14.75 43-38-2.598 0-4.933-7.784-10.5-5-3.706 1.853-10.422 8-14.5 8 0 3.718-4.223 8-8 8l-4 7c3.94 0 2.689 11-3 11-1.145 0-4 .579-4-1h-1c0 3.29-5 5.518-5 9Z"/><path fill="#32B825" id="ENTl2" d="M396 231c2.755 0 5.553 2 9 2 5.092 0 6.14-8.779 8-12.5 4.699-9.398 7.282-19.563 12-29 1.985-3.969-2-9.708-2-13.5h-1c-1.819 0-4.591-1-7-1l2 11.5c-4.109 8.219-5.891 17.781-10 26-2.278 4.555-11 11.4-11 16.5Z"/><path fill="#32B722" id="ENTl1" d="M52 233c0 1.714-5.594 1-7 1l-8-15.5c-5.391-10.782-10-26.388-10-39.5l6-1c0 2.881-2.875 9.75-2 11.5 4.813 9.626 7.19 20.38 12 30 2.122 4.244 2.252 13.5 9 13.5Z"/><path fill="#CACBC9" id="vtd" d="M235 182v1c0 8.125-13 9.621-13-2l1-2 2-1h6l1 1h1l1 1v1l1 1Z"/><path fill="#FF64FF" id="MB" d="m231 178 1 1-1-1ZM239 178v1l-1-1h1ZM323 178l-1 1 1-1Z"/><path fill="#32B722" id="ENTl1" d="M405 233c0 1.684 4.679 1 6 1 3.461 0 5.812-12.124 7-14.5 6.102-12.204 12-25.816 12-40.5l-7-1c0 3.792 3.985 9.531 2 13.5-4.718 9.437-7.301 19.602-12 29-1.86 3.721-2.908 12.5-8 12.5Z"/><path fill="#FF64FF" id="MB" d="m134 179 1 2-1-2ZM218 179l-1 1v-1h1ZM223 179l-1 2 1-2ZM233 179l1 1-1-1Z"/><path fill="#FF8FFD" id="MRN" d="M216 181h1v-1l-1 1ZM240 182l8 5-9-7 1 2ZM215 182h1v-1l-1 1Z"/><path fill="#FF64FF" id="MB" d="m217 181-1 1v-1h1Z"/><path fill="#FF64FF" id="MB" fill-rule="evenodd" d="m241 189-1 2.5c1.263 2.526 10.984 13.258 14.5 11.5 2.14-1.07 1.22-4.059.5-5.5-3.178-6.355-6.01-8.5-14-8.5m-31 0-6.5 3c-1.056 1.056-4.715 9.643-2 11 1.819.909 24.926-14 8.5-14m33 25c2.488 0 2 6.101 2 8 2.006 0 .55-10.025 2.5-11 3.152-1.576 9.991 2.004 14 0l8-6 2.5 5h1v-1l1-1c0-1.505 4.197-8 6-8l4-7c-3.237 0 1-6.302 1-7l-9 2c0 5.483-.514 11-7 11 0 8.155-18.324-8-8-8l1-2h-9c-1.238 0-3-.423-3-2h-2l-8-5c0 5.325-3 3.032-3 1h-2c0 8.125-13 9.621-13-2l-2 2c0 2.516-5 3.17-5 0h-1l-1 1-2 1c0 1.577-1.762 2-3 2h-1l-1 1h-1l-1 1h-10l1 1c11.784 0-8 17.909-8 9-5.386 0-7-6.02-7-11-3.078 0-6.325-3-9-3 0 2.338 2 4.862 2 8 0 2.83 4 4.54 4 7 0 1.604 5 4.282 5 7l1 1v1l2 1c0-1.111-.455-5 1.5-5l9 6c3.268 1.634 9.247-1 12-1 3.272 0 1.395 10 3.5 10 0-1.647 1.268-7 3-7l1-2c0-2.945 4-5.478 4-7 0-4.498-1.272-11.614 3.5-14l6 1c1.825-.913 6.098-2.305 7.5.5 2.262 4.524 1 7.968 1 12.5 2.218 0 4 5.144 4 7l2 3Z"/><path fill="#FF64FF" id="MB" d="m234 181 1 1-1-1ZM322 181l-1 2 1-2Z"/><path fill="#C7C8CC" id="alv" d="M395 181c-1.995 0-2 4.377-2 6 1.995 0 2-4.377 2-6Z"/><path fill="#FF64FF" id="MB" d="m216 182-1 1v-1h1Z"/><path fill="#FFA6FD" id="SNc" d="M171 185c0 2.338 2 4.862 2 8-3.803 0-9-3.912-9-8l1-2c1.745 0 6-.698 6 2Z"/><path fill="#FF8FFD" id="MRN" d="m214 183-1 1 1-1Z"/><path fill="#FFA6FD" id="SNc" d="M285 186c0 .698-4.237 7-1 7 3.777 0 8-4.282 8-8l-1-2c-2.74 0-6-.626-6 3Z"/><path fill="#FF8FFD" id="MRN" d="m213 184-2 1 2-1Z"/><path fill="#FF64FF" id="MB" d="m135 185 1 1-1-1Z"/><path fill="#FF8FFD" id="MRN" d="M211 185c-1.238 0-3 .423-3 2 1.238 0 3-.423 3-2Z"/><path fill="#FD8FFF" id="RR" d="M261 191c0 2.55 5.402 8 8 8 6.486 0 7-5.517 7-11 0-4.157-12.207 1-14 1l-1 2Z"/><path fill="#FF64FF" id="MB" d="m321 186-1 1 1-1ZM136 187l1 1-1-1Z"/><path fill="#FD8FFF" id="RR" d="M195 190c0 3.208-4.536 9-8 9-5.386 0-7-6.02-7-11 2.454 0 7.523-2.489 10.5-1l3.5 2 1 1Z"/><path fill="#FF8FFD" id="MRN" d="m207 187-1 1 1-1ZM250 187l3 2c-1.238 0-3-.423-3-2Z"/><path fill="#C7C8CC" id="alv" d="M393 187c-1.693 0-4 8.239-4 10 2.271 0 4-7.839 4-10Z"/><path fill="#FF8FFD" id="MRN" d="m205 188-1 1 1-1Z"/><path fill="#C8C8CB" id="rust" d="m210 189-6.5 3c-1.056 1.056-4.715 9.643-2 11 1.819.909 24.926-14 8.5-14ZM241 189l-1 2.5c1.263 2.526 10.984 13.258 14.5 11.5 2.14-1.07 1.22-4.059.5-5.5-3.178-6.355-6.01-8.5-14-8.5Z"/><path fill="#FE8DFF" id="VTA" d="M195 190c11.784 0-8 17.909-8 9 3.464 0 8-5.792 8-9Z"/><path fill="#FFA6FF" id="IF" d="m237 204-2 1-6-3c0-1.399-2-1.399-2 0l-5 2h-3c0-4.498-1.272-11.614 3.5-14l6 1c1.825-.913 6.098-2.305 7.5.5 2.262 4.524 1 7.968 1 12.5Z"/><path fill="#FF64FF" id="MB" d="m137 191 1 1-1-1Z"/><path fill="#FE8DFF" id="VTA" d="M261 191c-10.324 0 8 16.155 8 8-2.598 0-8-5.45-8-8Z"/><path fill="#C7C8CC" id="alv" d="m389 197-1 2 1-2ZM388 199l-1 2 1-2Z"/><path fill="#FFA6FD" id="SNc" d="M183 208v1c0 4.685-12.07 1.64-8-6.5.813-1.627-.658-2.5 2-2.5 0 1.604 5 4.282 5 7l1 1ZM273 209v1c0 1.579 2.855 1 4 1 5.689 0 6.94-11 3-11-1.803 0-6 6.495-6 8l-1 1Z"/><path fill="#FEA6FE" id="IPA" d="M223 215h11l1-5c-2.604 0-6-5.93-6-8 0-1.399-2-1.399-2 0 0 3.14-2.256 8-6 8 0 1.041.986 5 2 5Z"/><path fill="#C7C8CC" id="alv" d="M387 201c-1.577 0-2 1.762-2 3 1.577 0 2-1.762 2-3Z"/><path fill="#FEA4FF" id="IPDM" d="m219 208 2 2c3.744 0 6-4.86 6-8l-5 2-3 4ZM237 208c0 1.747-.253 2-2 2-2.604 0-6-5.93-6-8l6 3 2 3Z"/><path fill="#FF8EFE" id="PN" d="m219 208-4 3c0-2.945 4-5.478 4-7h3l-3 4ZM237 208l4 3c0-1.856-1.782-7-4-7l-2 1 2 3Z"/><path fill="#7DCD4B" id="HPF" d="m139 205 1 1-1-1Z"/><path fill="#CACCC8" id="ml" d="M210 233h1l1-1-1-5v-7c-2.105 0-.228-10-3.5-10-2.753 0-8.732 2.634-12 1l-9-6c-1.955 0-1.5 3.889-1.5 5 0 3.54 4 5.131 4 9l4 4c0 1.668 3.099 6 5 6l3 2c1.357 0 6 .647 6 2h3ZM247 233h2c0-1.353 4.643-2 6-2l4-2 5-6c0-1.429 1.288-4 3-4 0-3.482 5-5.71 5-9l-2.5-5-8 6c-4.009 2.004-10.848-1.576-14 0-1.95.975-.494 11-2.5 11v10l1 1h1Z"/><path fill="#C7C8CC" id="alv" d="m385 207-2 1c0-1.238.423-3 2-3v2Z"/><path fill="#7DCD4B" id="HPF" d="m140 207 1 2-1-2Z"/><path fill="#FF8DFD" id="SNr" d="m182 207 1 1-1-1Z"/><path fill="#7DCD4B" id="HPF" d="M315 210h1l1-1v-2c-1.577 0-2 1.762-2 3Z"/><path fill="#C8CBCC" id="ec" d="M383 208v2c1.577 0 2-1.762 2-3l-2 1Z"/><path fill="#FDA6FE" id="IPDL" d="M218 217h4l1-2c-1.014 0-2-3.959-2-5l-2-2-4 3-1 2 4 4ZM234 217h5l4-3-2-3-4-3c0 1.747-.253 2-2 2l-1 5v2Z"/><path fill="#FF8DFD" id="SNr" d="m274 208-1 1 1-1Z"/><path fill="#C7C8CC" id="alv" d="M382 210h1v-2l-1 2Z"/><path fill="#7BD04A" id="DG-mo" d="m317 209-1 1 1-1Z"/><path fill="#7DCD4B" id="HPF" d="m141 210 2 2-2-2Z"/><path fill="#C7C8CC" id="alv" d="m382 210-1 1 1-1Z"/><path fill="#C8CBCC" id="ec" d="M381 211v2c1.577 0 2-1.762 2-3h-1l-1 1Z"/><path fill="#C7C8CC" id="alv" d="M380 213h1v-2l-1 2Z"/><path fill="#FEA5FF" id="IPL" d="M222 233h1v-1c-4.193 0-5-11.841-5-15l-4-4c-1.732 0-3 5.353-3 7v7l2.5 3c.93.465 4.5.817 4.5 2l4 1Z"/><path fill="#C7C8CC" id="alv" d="m380 213-1 1 1-1Z"/><path fill="#C8CBCC" id="ec" d="M379 214v2c1.577 0 2-1.762 2-3h-1l-1 1Z"/><path fill="#FEA5FF" id="IPL" d="M235 233h2l2-1 6-4v-6c0-1.899.488-8-2-8l-4 3c0 4.625-5 14.617-5 16h1Z"/><path fill="#C7C8CC" id="alv" d="M377 217h1l1-1v-2c-1.577 0-2 1.762-2 3Z"/><path fill="#FFA5FE" id="IPC" d="M224 234h9v-1c0-6.286 1-10.458 1-16v-2h-11l-1 2 1 15v1l1 1Z"/><path fill="#FF64FF" id="MB" d="m155 216 1 1-1-1Z"/><path fill="#C8CBCC" id="ec" d="m379 216-1 1 1-1Z"/><path fill="#FF64FF" id="MB" d="M157 217c1.238 0 3 .423 3 2l-3-2Z"/><path fill="#FEA6FD" id="IPI" d="m222 217 1 15c-4.193 0-5-11.841-5-15h4ZM233 233h1c0-1.383 5-11.375 5-16h-5c0 5.542-1 9.714-1 16Z"/><path fill="#FF64FF" id="MB" d="m299 217-1 1 1-1Z"/><path fill="#C7C8CC" id="alv" d="m377 218-2 1c0-1.747.253-2 2-2v1Z"/><path fill="#C8CBCC" id="ec" d="m378 217-1 1v-1h1Z"/><path fill="#FF64FF" id="MB" d="m297 218-1 1 1-1Z"/><path fill="#C8CBCC" id="ec" d="M375 219v2c1.577 0 2-1.762 2-3l-2 1Z"/><path fill="#FF64FF" id="MB" d="m161 219 2 2-2-2ZM183 220c0 .718 8.654 3 10 3l-4-4c0 1.684-4.679 1-6 1ZM274 220c0 .274-9.071 3-10 3 0-1.429 1.288-4 3-4 1.819 0 4.591 1 7 1ZM295 219l-1 1 1-1Z"/><path fill="#C7C8CC" id="alv" d="M373 221h2v-2l-2 2Z"/><path fill="#FF64FF" id="MB" d="m294 220-1 1 1-1ZM164 221l2 2-2-2ZM292 221l-1 1 1-1Z"/><path fill="#C7C8CC" id="alv" d="M371 223h2v-2l-2 2Z"/><path fill="#C8CBCC" id="ec" d="M373 223h1l1-2h-2v2Z"/><path fill="#8AD987" id="CTXsp" d="m82 224 2 1-2-2v1Z"/><path fill="#C7C8CC" id="alv" d="M369 225h2v-2l-2 2Z"/><path fill="#C8CBCC" id="ec" d="M371 225h1l1-1v-1h-2v2Z"/><path fill="#8AD987" id="CTXsp" d="M373 224h2l-1-1h-1v1Z"/><path fill="#A0ED9D" id="EPv" d="m89 229-1 1-9-1-1-4 4-1 2 1h1l2 2 2 2Z"/><path fill="#8AD987" id="CTXsp" d="m373 224-1 1 1-1Z"/><path fill="#A0ED9D" id="EPv" d="m377 229-8 1-1-1 1-2 2-2h1l1-1h2c0 1.473 1.952 1 3 1l-1 4Z"/><path fill="#99D2BD" id="OLF" d="m74 228 5 1-1-4-4 3Z"/><path fill="#8AD987" id="CTXsp" d="m85 225 2 2-2-2Z"/><path fill="#C7C8CC" id="alv" d="M367 227h2v-2l-2 2Z"/><path fill="#C8CBCC" id="ec" d="m371 225-2 2v-2h2Z"/><path fill="#99D2BD" id="OLF" d="M382 227c0 1.014-3.959 2-5 2l1-4h1c0 1.577 1.762 2 3 2Z"/><path fill="#33B931" id="HATA" d="m109 242 17 9c1.59 0 1.443-4.386 2-5.5 1.842-3.684 5-10.321 5-14.5l-1-2-3-3c-3.651 0-16.566 13-21 13v2l1 1ZM348 242l-18 9c0-6.532-6-12.918-6-20l1-2 3-3c0 1.988 3.315 2.408 4.5 3 4.583 2.292 10.263 10 15.5 10v3Z"/><path fill="#FF64FF" id="MB" d="M212 232h6c0-1.183-3.57-1.535-4.5-2l-2.5-3 1 5Z"/><path fill="#C7C8CC" id="alv" d="m367 227-1 1 1-1Z"/><path fill="#C8CBCC" id="ec" d="M366 229h2l1-2h-2l-1 1v1Z"/><path fill="#A8ECD2" id="TR" d="M358 252c2.128 0 11 8.707 11 10 10.121 0 42-18.37 42-28-1.321 0-6 .684-6-1-3.447 0-6.245-2-9-2-3.157 0-5.481-2-9-2l-5-2c0 1.014-3.959 2-5 2l-8 1h-3l-1 1h-1l-1 1-1 1h-1l-1 1-1 1-2 1-1 1h-1v1l-1 1v1c0 5.329 4 11.153 4 12ZM98 252c-2.24 0-10 8.192-10 10-9.213 0-31.166-10.833-35-18.5-1.559-3.117-8-5.903-8-9.5 1.406 0 7 .714 7-1 3.52 0 5.843-2 9-2 2.885 0 4.697-2 8-2l5-1 5 1 9 1 3 1h1l1 1 4 3h1l5 4v1c0 4.515-4 7.701-4 11l-1 1Z"/><path fill="#FF64FF" id="MB" d="M239 232h6v-4l-6 4Z"/><path fill="#C7C8CC" id="alv" d="M365 229h1v-1l-1 1Z"/><path fill="#8AD987" id="CTXsp" d="m88 230 3 1-2-2-1 1Z"/><path fill="#7DCD4B" id="HPF" d="M133 229v2l-1-2h1Z"/><path fill="#FF64FF" id="MB" d="M199 231h2l-3-2 1 2ZM255 231h2l2-2-4 2Z"/><path fill="#7DCD4B" id="HPF" d="m322 230 2 1 1-2c-1.048 0-3-.473-3 1Z"/><path fill="#C7C8CC" id="alv" d="M363 231h1l1-1v-1c-1.747 0-2 .253-2 2Z"/><path fill="#C8CBCC" id="ec" d="M365 230h1v-1h-1v1Z"/><path fill="#8AD987" id="CTXsp" d="M366 230h3l-1-1h-2v1Z"/><path fill="#C8CBCC" id="ec" d="M364 231h1v-1l-1 1Z"/><path fill="#8AD987" id="CTXsp" d="m366 230-1 1v-1h1ZM92 231l1 1-1-1Z"/><path fill="#C7C8CC" id="alv" d="M361 233h1l1-1v-1c-1.238 0-3 .423-3 2h1Z"/><path fill="#C8CBCC" id="ec" d="m364 231-1 1v-1h1Z"/><path fill="#FF9B88" id="P" d="M185 269c3.599 0 7.312 2 10.5 2l6-2c6.031-3.015 18.473.763 26-3l4 2c2.812 1.406 7.078-.461 10 1 4.605 2.303 24.571 0 29.5 0 0-2.4 6.772-9.045 8-11.5 2.492-4.984 0-11.569 0-16.5 0-2.535-5.958-2.229-7.5-3-5.187-2.594-16.678-5-22.5-5h-2c0 1.869 7.329 3 9 3 5.625 0 25.718 4.064 21 13.5-2.309 4.617-.632 12.566-6.5 15.5h-31l-6.5-6.5c-.829-1.658-3.071-14.858-2-17l4-7.5h-2l-4 4.5-.5 2.5-2-4-4.5-4-4-1h-6v1c16.373 0 15.706 16.088 10 27.5-2.846 5.693-32.06 6.22-37.5 3.5-4.173-2.086-7.469-20.766-3-23 5.804-2.902 13.23-2.115 19-5 1.134-.567 6.5-.546 6.5-2-3.593 0-18.977 1.739-21.5 3l-7.5 3-1 1c0 7.543-1.489 13.521 2 20.5 1.474 2.948 6 3.97 6 7.5Z"/><path fill="#FF9B88" id="P" d="M237 233h8v-1h-6l-2 1Z"/><path fill="#C8CBCC" id="ec" d="m363 232-1 1 1-1Z"/><path fill="#FF9B88" id="P" d="M210 233c0 1.473-1.952 1-3 1v-1h3Z"/><path fill="#FFB885" id="PG" d="M212 233c16.373 0 15.706 16.088 10 27.5-2.846 5.693-32.06 6.22-37.5 3.5-4.173-2.086-7.469-20.766-3-23 5.804-2.902 13.23-2.115 19-5 1.134-.567 6.5-.546 6.5-2 1.048 0 3 .473 3-1h2Z"/><path fill="#FFA6FE" id="IPN" d="m223 233 1 1-1-1Z"/><path fill="#FF9B88" id="P" d="m237 233-2 1v-1h2Z"/><path fill="#FFB885" id="PG" d="M247 233c0 1.869 7.329 3 9 3 5.625 0 25.718 4.064 21 13.5-2.309 4.617-.632 12.566-6.5 15.5h-31l-6.5-6.5c-.829-1.658-3.071-14.858-2-17l4-7.5 2-1h10Z"/><path fill="#C7C8CC" id="alv" d="M359 234h1v-1l-1 1Z"/><path fill="#C8CBCC" id="ec" d="m361 233-1 1v-1h1Z"/><path fill="#C7C8CC" id="alv" d="M357 235h2v-1l-2 1Z"/><path fill="#C8CBCC" id="ec" d="m360 234-1 1v-1h1ZM105 240h1v-1h-1l-7-4 5 4 1 1h1Z"/><path fill="#C7C8CC" id="alv" d="M356 236h1v-1l-1 1Z"/><path fill="#C8CBCC" id="ec" d="m359 235-2 1v-1h2Z"/><path fill="#C7C8CC" id="alv" d="M355 237h1v-1l-1 1Z"/><path fill="#C8CBCC" id="ec" d="m357 236-1 1v-1h1Z"/><path fill="#C7C8CC" id="alv" d="M353 238h1v-1l-1 1Z"/><path fill="#C8CBCC" id="ec" d="M354 238h1v-1h-1v1Z"/><path fill="#F0F080" id="CB" d="M164 239h5c0-1.566-5-1.566-5 0ZM287 239h5c0-1.566-5-1.566-5 0Z"/><path fill="#C7C8CC" id="alv" d="M352 239h1v-1l-2 1h1Z"/><path fill="#C8CBCC" id="ec" d="M353 239h1v-1h-1v1Z"/><path fill="#C7C8CC" id="alv" d="M106 240h1v-1h-1v1Z"/><path fill="#7DCD4B" id="HPF" d="m107 240 1 1v-2h-1v1Z"/><path fill="#F0F080" id="CB" d="m164 239-1 1 1-1Z"/><path fill="#CCCCCA" id="mcp" d="M168 261c0 6.893 11.914 8 17 8 0-3.53-4.526-4.552-6-7.5-3.489-6.979-2-12.957-2-20.5h-2l-2-1h-1l-1-1h-7l-1 1v8c2.623 0 4 7.828 4 10v1l1 2Z"/><path fill="#F0F080" id="CB" d="m171 239 1 1-1-1ZM286 239l-1 1 1-1Z"/><path fill="#CCCCCA" id="mcp" d="M289 259c0 8.623-11.534 10-18 10 0-2.4 6.772-9.045 8-11.5 2.492-4.984 0-11.569 0-16.5h2c1.048 0 3 .473 3-1h1l1-1h6l1 1 1 3v2l-1 2v2c-2.109 0-2 2.535-2 4-1.353 0-2 4.643-2 6Z"/><path fill="#7DCD4B" id="HPF" d="M348 241h1v-2h-1v2Z"/><path fill="#C7C8CC" id="alv" d="M349 240h1v-1h-1v1Z"/><path fill="#C8CBCC" id="ec" d="M351 240h1v-1h-2v1h1Z"/><path fill="#97EC93" id="PA" d="M104 252c6.82 0 14.396 6 17 6 2.425 0 5-5.116 5-7l-17-9-4-2h-2c0 4.515-4 7.701-4 11l5 1Z"/><path fill="#F0F080" id="CB" d="m173 240 2 1-2-1Z"/><path fill="#CCCCCA" id="mcp" d="m178 240-1 1 1-1Z"/><path fill="#F0F080" id="CB" d="M284 240c-1.048 0-3-.473-3 1 1.048 0 3 .473 3-1ZM293 240c1.348 0 3.216 3 1 3l-1-3Z"/><path fill="#C8CBCC" id="ec" d="M349 241h1v-1h-1v1Z"/><path fill="#97EC93" id="PA" d="M353 252c-7.66 0-14.801 6-18 6-1.391 0-5-5.706-5-7l18-9 1-1h1l1-1h3c0 5.329 4 11.153 4 12-.671 0-5-2.662-5 0Z"/><path fill="#F0F080" id="CB" d="M163 241c-1.535 0-1.535 4 0 4v-4ZM294 245l-1 2 1-2ZM163 248c2.623 0 4 7.828 4 10-.801 0-4-8.763-4-10ZM293 249c-2.109 0-2 2.535-2 4l2-4Z"/><path fill="#97EC93" id="PA" d="m99 251-1 1 1-1Z"/><path fill="#5FE6B7" id="COApl" d="m88 262 5 4c0-4.672 3.188-7.688 6.5-11l4.5-3-5-1-1 1c-2.24 0-10 8.192-10 10ZM369 262l-6 4c0-6.522-10-13.343-10-14 0-2.662 4.329 0 5 0 2.128 0 11 8.707 11 10Z"/><path fill="#60E6B5" id="COApm" d="M121 258c0 7.086-28 19.459-28 8 0-4.672 3.188-7.688 6.5-11l4.5-3c6.82 0 14.396 6 17 6ZM335 258c0 6.071 28 19.716 28 8 0-6.522-10-13.343-10-14-7.66 0-14.801 6-18 6Z"/><path fill="#F0F080" id="CB" d="M291 253c-1.353 0-2 4.643-2 6 1.995 0 2-4.377 2-6ZM167 259l1 2-1-2Z"/></svg>