<svg xmlns="http://www.w3.org/2000/svg" viewBox="0 0 456 320"><path fill="#FEFA90" id="DEC" d="M229 102h11c0-1.804 14.759-1 17-1 9.15 0 16.752-4 25-4l1-1 1-1 3-4 1-1 1-5c0-3.844-17.483-12.492-20.5-14-17.42-8.71-27.329-7-47.5-7-6.517 0-15.188-2.156-21.5 1-3.78 1.89-7.155 4.078-11 6-2.909 1.454-21.5 10.823-21.5 14l2 6 4 5 7.5 3c2.963 1.481 13.657 2 17.5 2h14c1.145 0 4-.579 4 1h13Z"/><path fill="#FCFC90" id="ANcr1" d="m292 87-4 3 1-5c3.495 0 3-1.378 3 2Z"/><path fill="#FCFA91" id="ANcr2" d="M178 111c-5.467 0-11.759 5.629-16.5 8-15.838 7.919-31.071 18.035-47 26-5.445 2.723-12.183 9-18.5 9-18.226 0 1.78-34.061 5-40.5 8.461-16.922 27.672-21.586 41.5-28.5 6.138-3.069 16.063 2 21.5 2l5 4 4 5c0 2.556 5 10.839 5 15Z"/><path fill="#FCFC90" id="ANcr1" d="m164 87 5 4-2-6c-4.522 0-2.618 2-3 2Z"/><path fill="#FCFA91" id="ANcr2" d="M278 111c5.776 0 12.517 5.508 17.5 8 14.556 7.278 28.383 16.691 43 24 6.836 3.418 14.492 11 22.5 11 5.337 0 9.754-6.991 7-12.5-2.46-4.92-4.509-10.017-7-15v-4l-8-12c-7.145-14.29-26.531-19.016-39.5-25.5-6.138-3.069-16.063 2-21.5 2l-4 3-1 1-3 4-1 1-1 1-4 14Z"/><path fill="#FCFC90" id="ANcr1" d="m288 90-1 1 1-1Z"/><path fill="#FDFB90" id="FOTU" d="m284 95-1 1 1-1ZM178 111l1 1 27.5-5 9.5-5c0-1.579-2.855-1-4-1h-14c-3.843 0-14.537-.519-17.5-2l-7.5-3c0 2.556 5 10.839 5 15ZM283 96l-1 1 1-1ZM278 111v2c-.624 0-27.757-5.629-28.5-6l-9.5-5c0-1.804 14.759-1 17-1 9.15 0 16.752-4 25-4l-4 14Z"/><path fill="#CBC9CC" id="arb" d="M180 115c0-4.111 15.943-1.721 18.5-3 4.51-2.255 12.177-1 17.5-1 9.871 0 33.83-3.335 42.5 1 2.491 1.245 18.5-.841 18.5 3 3.975 0 10.595 8.095 13.5 11l28 27 8 9c1.668 0-1.288-6.076-1.5-6.5L312.5 143c-7.984-7.984-15.341-13.341-23-21-2.921-2.921-7.396-9-11.5-9-.624 0-27.757-5.629-28.5-6l-9.5-5h-11c0 1.399-2 1.399-2 0h-11l-9.5 5-27.5 5-8 5.5c-1.247 2.494-31.676 30.588-33.5 31.5-.91.455-9.934 10.533-7 12 2.709 1.354 7.338-9.169 9-10 10.597-5.298 18.18-22.09 30-28 4.512-2.256 5.669-8 10.5-8Z"/><path fill="#FDFB90" id="FOTU" d="M227 102h2c0 1.399-2 1.399-2 0ZM182 131l15.5-6c1.393-.697 31.01-3.495 32-3 7.278 3.639 21.567-.717 29 3 1.824.912 15.563 7 16.5 7 0-6.109 2-11.557 2-17 0-3.841-16.009-1.755-18.5-3-8.67-4.335-32.629-1-42.5-1-5.323 0-12.99-1.255-17.5 1-2.557 1.279-18.5-1.111-18.5 3l2 16Z"/><path fill="#FFFB8E" id="PRM" d="m134 188-6 7c-2.579 0-5.997 3.752-9.5 2-14.701-7.351-19.03-20.561-25.5-33.5-2.014-4.028 3-6.698 3-9.5 6.317 0 13.055-6.277 18.5-9 15.929-7.965 31.162-18.081 47-26 4.741-2.371 11.033-8 16.5-8l1 1-8 5.5c-1.247 2.494-31.676 30.588-33.5 31.5-.91.455-9.934 10.533-7 12 2.709 1.354 7.338-9.169 9-10 10.597-5.298 18.18-22.09 30-28 4.512-2.256 5.669-8 10.5-8l2 16v1c-3.644 0-10.348 8.848-13.5 12-7.176 7.176-19.358 20.217-23.5 28.5-2.437 4.873-11 9.887-11 15.5ZM329 195l1 1c1.804 0 5.136 2.182 7.5 1 18.453-9.227 18.624-20.748 26.5-36.5l-3-6.5c-8.008 0-15.664-7.582-22.5-11-14.617-7.309-28.444-16.722-43-24-4.983-2.492-11.724-8-17.5-8v2c4.104 0 8.579 6.079 11.5 9 7.659 7.659 15.016 13.016 23 21l12.5 12.5c.212.424 3.168 6.5 1.5 6.5l-8-9-28-27c-2.905-2.905-9.525-11-13.5-11 0 5.443-2 10.891-2 17v1c4.129 0 10.982 8.482 14 11.5l24 30c2.284 4.568 10 9.217 10 14.5 1.726 0 5 4.558 5 6h1Z"/><path fill="#FBFC91" id="PYR" d="M273 144c-3.392 0-9.378-5.439-12.5-7-4.979-2.49-38.818-7.091-45-4-6.52 3.26-15.415 1.708-22 5-2.133 1.067-8.486 7-10.5 7l-1-13v-1l15.5-6c1.393-.697 31.01-3.495 32-3 7.278 3.639 21.567-.717 29 3 1.824.912 15.563 7 16.5 7v1c-2.815 0 .815 11-2 11Z"/><path fill="#FFF990" id="COPY" fill-rule="evenodd" d="M154 180c0 1.93 1.93 0 0 0m-17 19h4l2-1h1c0-1.473 1.952-1 3-1l1-1h1l1-1c4.725 0 15.363-12 18-12l1-1 2-1 1-5c0-4.633 7-7.376 7-10l4-6v-11c-1.757 0-4.284 6.069-5 7.5l-15 17-7.5 6.5 27.5-35-1-13c-3.644 0-10.348 8.848-13.5 12-7.176 7.176-19.358 20.217-23.5 28.5-2.437 4.873-11 9.887-11 15.5 0 4.056 3 8.627 3 11Z"/><path fill="#CBC9CC" id="arb" d="M183 149c0-6.306 14.058-8.279 17.5-10 10.758-5.379 44.27-5.365 55 0 4.058 2.029 17.5 3.434 17.5 10 2.707 0 3.567 5.067 5 6.5l16 19c1.293 1.293 6.723 7.389 8.5 6.5l-7.5-7.5-16-22-6-7.5c-3.392 0-9.378-5.439-12.5-7-4.979-2.49-38.818-7.091-45-4-6.52 3.26-15.415 1.708-22 5-2.133 1.067-8.486 7-10.5 7l-27.5 35 7.5-6.5 15-17c.716-1.431 3.243-7.5 5-7.5Z"/><path fill="#FFF990" id="COPY" d="M315 199h4c0-2.771 4-6.929 4-10 0-5.283-7.716-9.932-10-14.5l-24-30c-3.018-3.018-9.871-11.5-14-11.5-2.815 0 .815 11-2 11l6 7.5 16 22 7.5 7.5c-1.777.889-7.207-5.207-8.5-6.5l-16-19c-1.433-1.433-2.293-6.5-5-6.5v10c0 2.785 4 3.54 4 7 0 2.184 7 4.984 7 9l2 6 1 1c3.254 0 15.904 14 21 14l1 1h1l2 1h1l2 1Z"/><path fill="#FBFC91" id="PYR" d="M273 159c-1.113 0-11.943-6.721-14.5-8-7.637-3.819-27.344-2-37-2h-12c-6.128 3.064-13.754 2.877-20 6l-6.5 5v-11c0-6.306 14.058-8.279 17.5-10 10.758-5.379 44.27-5.365 55 0 4.058 2.029 17.5 3.434 17.5 10v10Z"/><path fill="#FFFA8F" id="UVU" d="M179 166h98c0-3.46-4-4.215-4-7-1.113 0-11.943-6.721-14.5-8-7.637-3.819-27.344-2-37-2h-12c-6.128 3.064-13.754 2.877-20 6l-6.5 5-4 6Z"/><path fill="#CBC9CC" id="arb" d="m284 175-8.5-4-32-1c-1.338-.669-17.056-2.472-18-2-8.914 4.457-38.91-.045-45 3-1.692.846-6.899 5-8.5 5 0-4.633 7-7.376 7-10h98c0 2.184 7 4.984 7 9Z"/><path fill="#FFFA8F" id="UVU" d="M229 194h6c13.072 0 24.73-1.615 35.5-7l8-1c1.157-.579 5.491-3 6.5-3l1-2-2-6-8.5-4-32-1c-1.338-.669-17.056-2.472-18-2-8.914 4.457-38.91-.045-45 3-1.692.846-6.899 5-8.5 5l-1 5v1c0 4.882 11.82 3.66 14.5 5 11.007 5.504 23.141 7 36.5 7h7Z"/><path fill="#CBC9CC" id="arb" d="M154 180c0 1.93 1.93 0 0 0Z"/><path fill="#F0F080" id="CB" d="M169 182h2v-1l-2 1ZM287 182l-2 1 1-2 1 1ZM169 182l-1 1 1-1Z"/><path fill="#FF9BCD" id="MY" d="m174 187-2 1 2-1Z"/><path fill="#FFA2D2" id="ECU" d="M189 192c0 5.255-5.318 9-10 9-2.437 0-10.726-3.952-12-6.5-1.27-2.541 2-3.709 2-5.5h1l1-1h1l2-1 10 2 1 1h1l1 1h2v1ZM267 192c0 4.786 5.514 9 10 9 1.824 0 11.07-3.639 12-5.5 1.081-2.161-1-4.894-1-6.5h-1l-1-1h-2l-2-1-6 1-1 1h-2l-1 1h-1l-1 1h-2l-1 1Z"/><path fill="#FF9BCD" id="MY" d="m282 187 2 1-2-1Z"/><path fill="#F0F080" id="CB" d="M128 195c3.941 0 4.503 4 9 4 0-2.373-3-6.944-3-11l-6 7Z"/><path fill="#FF9BCD" id="MY" d="m171 188-1 1 1-1ZM276 188l-1 1 1-1ZM286 188l1 1-1-1ZM178 216c7.2 0 12.474 5 19 5 0-1.402-2-1.901-2-7-2.892 0-17-7.734-17-10.5l1-2.5c-2.437 0-10.726-3.952-12-6.5-1.27-2.541 2-3.709 2-5.5-7.273 0-30 18.783-30 26l4.5-5c4.061-4.061 8.179-8.59 13-11 2.133-1.067 14.5-3.085 14.5 1.5 0 1.523-10 .717-10 2.5v3l4-2c0-1.91 10-1.506 10 1 4.65 0 3 9.115 3 11ZM184 189l1 1-1-1ZM273 189l-1 1 1-1ZM278 216c-7.123 0-12.435 5-19 5 0-1.251 3-2.723 3-7 3.095 0 14.923-7.346 16-9.5l-1-3.5c1.824 0 11.07-3.639 12-5.5 1.081-2.161-1-4.894-1-6.5 4.904 0 9.279 5.889 13.5 8 12.376 6.188 26.5 27.273 26.5 41v14.5c-1.008 2.016-7.883 15.5-9 15.5l4-9.5c4.305-8.611 4.3-25.4 0-34-4.979-9.959-13.65-20.575-23.5-25.5-2.201-1.1-14.5-3.021-14.5 1.5 0 1.523 10 .717 10 2.5 0 2.25 2 3.376 2 5-2.33 0-3.227-4-6-4 0-1.583-9-2.034-9 1-4.467 0-4 8.084-4 11Z"/><path fill="#F0F080" id="CB" d="M328 195c-4.008 0-4.152 4-9 4 0-2.771 4-6.929 4-10 1.726 0 5 4.558 5 6Z"/><path fill="#FF9BCD" id="MY" d="m186 190 1 1-1-1ZM271 190l-1 1 1-1ZM189 192h3c0-1.473-1.952-1-3-1v1ZM265 192h2l1-1c-1.048 0-3-.473-3 1Z"/><path fill="#FDA5D0" id="CU" d="M202 205c-3.012 0-2.814 9-7 9-2.892 0-17-7.734-17-10.5l1-2.5c4.682 0 10-3.745 10-9h4l2 1h3l1 1h1l1 1h2l2 2v2l-2 4-1 1v1Z"/><path fill="#FF9BCD" id="MY" d="m193 192 2 1-2-1ZM264 192c-1.048 0-3-.473-3 1 1.048 0 3 .473 3-1Z"/><path fill="#FDA5D0" id="CU" d="M255 205c0 2.254 4.65 9 7 9 3.095 0 14.923-7.346 16-9.5l-1-3.5c-4.486 0-10-4.214-10-9h-3c0 1.473-1.952 1-3 1h-2l-2 1-2 1h-1l-2 2.5 1 5.5 2 2Z"/><path fill="#FF9BCD" id="MY" d="m198 193 1 1-1-1ZM259 193l-2 1 2-1ZM200 194l1 1-1-1ZM222 195h5v-1h-5v1ZM229 195h6v-1h-6v1ZM257 194l-2 1 2-1Z"/><path fill="#F0F080" id="CB" d="m150 195-1 1 1-1Z"/><path fill="#FF9BCD" id="MY" d="m205 199-2 4c1.261 0 10-5.249 10-6 0-.701-9.035-2-10-2l2 2c2.564 0 2.564 2 0 2ZM219 195l-1 1 1-1Z"/><path fill="#FFA5D0" id="AP" d="M217 197c0 2.616 6.326 8.153 8 11.5l3.5 2.5 5-7 6.5-7-1-1h-1l-1-1h-18l-1 1h-1v1Z"/><path fill="#FF9BCD" id="MY" d="m237 195 1 1-1-1Z"/><path fill="#FF9BCD" id="MY" fill-rule="evenodd" d="M250 197c0 3.746 2.091 0 0 0m-6 0c0 .834 7.978 6 9 6l-1-5.5 2-2.5c-1.06 0-10 1.223-10 2Z"/><path fill="#F0F080" id="CB" d="m329 195 1 1-1-1ZM148 196l-1 1 1-1Z"/><path fill="#FF9BCD" id="MY" d="M215 197h2v-1l-2 1ZM240 197h2c0-1.473-1.952-1-3-1l1 1Z"/><path fill="#F0F080" id="CB" d="m308 196 1 1-1-1ZM147 197c-1.048 0-3-.473-3 1 1.048 0 3 .473 3-1Z"/><path fill="#C8CACA" id="sptV" d="M149 276h2c0-2.085-8-5.579-8-9l-3-3-1-1-1-2v-1l-1-1v-2c-3.026 0-2-15.865-2-18 0-1.321-.684-6 1-6 0-1.048-.473-3 1-3v-2l1-2 1-1v-1l1-1 1-2 1-1v-1l1-1 1-1 1-2 1-1 1-1v-1c-4.023 0 8.147-8.824 10.5-10l3.5 1c0-1.783 10-.977 10-2.5 0-4.585-12.367-2.567-14.5-1.5-4.821 2.41-8.939 6.939-13 11l-4.5 5-1 1-1 1-1 2-5 13.5c-4.864 9.727 5.765 43.5 18 43.5Z"/><path fill="#FEA3D0" id="GR" d="M205 197c2.564 0 2.564 2 0 2v-2Z"/><path fill="#FDA5D1" id="NTS" fill-rule="evenodd" d="m251 206-1 2c0 7.393 6.7-2 1-2m-47 0-1 2c0 8.043 7.436-2 1-2m-7 15h1c3.145 0 4.833-3 7-3 0-11.994 19-10.061 19 1 1.674 0 2.326 1 4 1 0-1.186 1-1.186 1 0 1.674 0 2.326-1 4-1 0-12.112 19-11.956 19-1 0 3.348 4.824 3 7 3 0-1.251 3-2.723 3-7-2.35 0-7-6.746-7-9l-2-2c-1.022 0-9-5.166-9-6h-4l-6.5 7-5 7-3.5-2.5c-1.674-3.347-8-8.884-8-11.5h-4c0 .751-8.739 6-10 6v1l-1 1c-3.012 0-2.814 9-7 9 0 5.099 2 5.598 2 7Z"/><path fill="#FEA3D0" id="GR" d="M250 197c0 3.746 2.091 0 0 0Z"/><path fill="#C8CACA" id="sptV" d="m305 276 3 1c0-.483 5.903-4 7-4 0-1.562 2.189-5 4-5l4-9.5c4.305-8.611 4.3-25.4 0-34-4.979-9.959-13.65-20.575-23.5-25.5-2.201-1.1-14.5-3.021-14.5 1.5 0 1.523 10 .717 10 2.5l4.5-1c2.007 1.003 14.815 10 9.5 10v1h1l3 4v1l2 2v1l2 2v1c1.577 0 2 1.762 2 3v1c1.473 0 1 1.952 1 3v2c1.473 0 1 1.952 1 3v2c1.612 0 3.368 10 0 10v1c0 1.145.579 4-1 4v2c0 1.048.473 3-1 3v2l-1 1v1l-1 1v1l-1 1-1 1-1 1-1 1-1 1h-1c0 4.037-6 5.07-6 7Z"/><path fill="#F0F080" id="CB" d="m310 197 2 1-2-1ZM143 198l-2 1 2-1ZM313 198l2 1-2-1Z"/><path fill="#FDA3D1" id="Pa5" d="M148 211h1c3.082 0 12-.592 12-5v-3l-3.5-1c-2.353 1.176-14.523 10-10.5 10l1-1ZM307 211l2 1c5.315 0-7.493-8.997-9.5-10l-4.5 1c0 2.25 2 3.376 2 5 0 2.869 7.658 3 10 3Z"/><path fill="#FDA5D2" id="SPVI" d="m165 204 10 1c0-2.506-10-2.91-10-1Z"/><path fill="#FFB2D6" id="PAS" d="M202 204h1v-1l-1 1ZM253 203l2 2-2-2Z"/><path fill="#FDA5D2" id="SPVI" d="m291 204-9 1c0-3.034 9-2.583 9-1Z"/><path fill="#FDA4D0" id="SPVC" d="M143 267c2.649 0 5.752 5 9 5 4.522 0 8.251-6.002 10-9.5l2-14 7-22 7-10.5c0-1.885 1.65-11-3-11l-10-1-4 2c0 4.408-8.918 5-12 5l-1 1-1 1-1 1-1 1-1 2-1 1-1 1v1l-1 1-1 2-1 1v1l-1 1-1 2v2c0 1.048.473 3-1 3 0 8.186 1 16.344 1 24v2l1 1v1l1 2 1 1 3 3Z"/><path fill="#FF9BCD" id="MY" d="m203 204-1 1v-1h1Z"/><path fill="#FDA4D0" id="SPVC" d="M311 269h1l1-1 1-1 1-1 1-1 1-1v-1l1-1v-1l1-1v-5l1-1v-23c-1.473 0-1-1.952-1-3v-1l-2-3v-1l-2-2v-1l-2-2v-1c-1.712 0-3-2.571-3-4h-1l-2-2c-2.342 0-10-.131-10-3-2.33 0-3.227-4-6-4l-9 1c-4.467 0-4 8.084-4 11 2.025 0 6.096 9.692 7 11.5 3.035 6.07 4.002 13.004 7 19 2.565 5.13.395 12.791 3 18 1.509 3.019 5.598 7.5 9 7.5 2.18 0 5.188-3 7-3Z"/><path fill="#C8CAC7" id="ts" d="m204 206-1 2c0 8.043 7.436-2 1-2ZM251 206l-1 2c0 7.393 6.7-2 1-2Z"/><path fill="#FDB1D8" id="DMX" d="M217 220h1c2.124 0 4.436-1 6-1 0-11.061-19-12.994-19-1 0 2.836 12-.836 12 2ZM233 219c0 1.684 4.679 1 6 1 0-.715 11.801-2 13-2 0-10.956-19-11.112-19 1Z"/><path fill="#C8CACA" id="sptV" d="M147 212h1v-1l-1 1Z"/><path fill="#FF9BCD" id="MY" d="m149 211-1 1v-1h1ZM309 212v1l-2-2 2 1ZM148 212l-1 1v-1h1ZM147 213l-1 1 1-1ZM310 213l3 4c-1.712 0-3-2.571-3-4ZM146 214l-1 1 1-1ZM139 215l-1 1 1-1ZM145 215l-1 2 1-2ZM138 216l-1 1 1-1Z"/><path fill="#FDB1D7" id="MDRNd" d="M152 272c0 8.027 11.958 5 16 5l7-11.5c4.881-9.762 13.082-18.164 18-28 1.764-3.528 8-6.369 8-10.5 0-2.813-3-3.921-3-6h-1c-6.526 0-11.8-5-19-5l-7 10.5-7 22-2 14c-1.749 3.498-5.478 9.5-10 9.5ZM289 278h8c0-1.671 7-1.309 7-6-3.402 0-7.491-4.481-9-7.5-2.605-5.209-.435-12.87-3-18-2.998-5.996-3.965-12.93-7-19-.904-1.808-4.975-11.5-7-11.5-7.123 0-12.435 5-19 5 0 1.539-4 2.187-4 5 0 5.285 7.744 8.989 10 13.5 5.043 10.086 12.991 18.981 18 29l6 9.5Z"/><path fill="#FF9BCD" id="MY" d="m137 217-1 2 1-2ZM143 218l-1 1 1-1ZM211 233h1c0-7.8-7.266-13 5-13 0-2.836-12 .836-12-2-2.167 0-3.855 3-7 3 0 2.079 3 3.187 3 6l2.5-2c2.136-1.068 7.5 6.235 7.5 8ZM245 235h1c0-6.637 3.946-9 9-9 0-2.813 4-3.461 4-5-2.176 0-7 .348-7-3-1.199 0-13 1.285-13 2 15.001 0 5 5.681 5 13l1 2ZM313 218l2 2-2-2ZM161 289c-2.111 0 2.548 3.524 3.5 4l7.5 4c-10.71 0-31.595-20.689-37-31.5l-7-16c-2.398-4.796 4.28-30.5 8-30.5l-5 13.5c-4.864 9.727 5.765 43.5 18 43.5 0 2.928 4.255 11 9 11l3 2ZM228 220c0 1.186 1 1.186 1 0 1.674 0 2.326-1 4-1 0 1.684 4.679 1 6 1 0 .858-7.114 1.728-8 3.5-1.493 2.986-2 5.327-2 9l-.5 5.5-1.5-11.5-4.5-5.5c-1.147-.574-4.5 1.064-4.5-1 2.124 0 4.436-1 6-1 1.674 0 2.326 1 4 1Z"/><path fill="#A7AAA9" id="c" d="M228 220c0 1.186 1 1.186 1 0s-1-1.186-1 0Z"/><path fill="#FF9BCD" id="MY" d="m142 220-1 1 1-1Z"/><path fill="#FEB1D7" id="XII" d="M218 239h20c2.344 0 6-3.726 6-6 0-7.319 10.001-13-5-13 0 .858-7.114 1.728-8 3.5-1.493 2.986-2 5.327-2 9l-.5 5.5-1.5-11.5-4.5-5.5c-1.147-.574-4.5 1.064-4.5-1h-1c-12.266 0-5 5.2-5 13 2.145 0 2.793 6 6 6Z"/><path fill="#FF9BCD" id="MY" d="m141 221-1 2 1-2ZM315 221l2 2-2-2ZM140 223l-1 1 1-1ZM317 224c1.577 0 2 1.762 2 3l-2-3ZM139 225l-1 1 1-1Z"/><path fill="#FFB2D8" id="IRN" fill-rule="evenodd" d="M176 269c0 9.901 9.494 0 0 0m5 8c-4.942 0-8.889 2-13 2v-2l7-11.5c4.881-9.762 13.082-18.164 18-28 1.764-3.528 8-6.369 8-10.5l2.5-2c2.136-1.068 7.5 6.235 7.5 8v2c-4.65 0-8.958 4.417-11 8.5-4.583 9.166-19 23.367-19 33.5ZM277 269c0 9.901 9.494 0 0 0m12 9v1c-4.522 0-8.711-2-14-2 0-12.206-12.856-21.212-18-31.5-1.889-3.778-5.918-10.5-11-10.5 0-6.637 3.946-9 9-9 0 5.285 7.744 8.989 10 13.5 5.043 10.086 12.991 18.981 18 29l6 9.5Z"/><path fill="#FF9BCD" id="MY" d="m138 226-1 2 1-2ZM319 228c1.473 0 1 1.952 1 3-1.473 0-1-1.952-1-3ZM137 230c-1.473 0-1 1.952-1 3 1.473 0 1-1.952 1-3ZM136 233c-1.684 0-1 4.679-1 6 0 2.135-1.026 18 2 18 0-7.656-1-15.814-1-24Z"/><path fill="#FFB1D9" id="NR" d="m218 239-1 1-6-5v-2h1c2.145 0 2.793 6 6 6ZM238 239l1 1c1.668 0 6-3.099 6-5l-1-2c0 2.274-3.656 6-6 6Z"/><path fill="#FF9BCD" id="MY" d="M320 236h1c0-1.048.473-3-1-3v3Z"/><path fill="#FFB1D6" id="MDRNv" d="M181 277c3.224 0 8 .939 8 5 14.352 0 26.865-25.229 32-35.5 1.441-2.882-4-5.012-4-6.5l-6-5c-4.65 0-8.958 4.417-11 8.5-4.583 9.166-19 23.367-19 33.5ZM275 277c-3.153 0-8 1.101-8 5-3.925 0-6.028-3.764-8.5-5-11.444-5.722-16.903-17.307-22.5-28.5-1.969-3.937 3-5.877 3-8.5 1.668 0 6-3.099 6-5h1c5.082 0 9.111 6.722 11 10.5 5.144 10.288 18 19.294 18 31.5Z"/><path fill="#FDA5D2" id="SPVI" d="M320 249h1v-13h-1v13Z"/><path fill="#FF9BCD" id="MY" d="M321 238c1.612 0 3.368 10 0 10v-10Z"/><path fill="#FF9BCD" id="MY" fill-rule="evenodd" d="M240 285c0 2.676-7.169 3.162-5 7.5 1.324 2.648 14.983 6.034 16 4 1.328-2.656-8.698-11.5-11-11.5m-25 0-10 10.5c0 2.049 4.337 1.5 5.5 1.5 5.84 0 14.683-3.317 8.5-9.5l-4-2.5m31-2c0 6.707 12.729 15.041 15 10.5 1.128-2.257-12.46-10.5-15-10.5m-39 0c0 5.3-14.148 6.205-12 10.5 2.82 5.64 24.539-10.5 12-10.5m22 11c0 1.169 10.09 2.295 11.5 3 12.359 6.18 30.832 0 43.5 0 0-2.54 3-2.543 3-4-6.915 0-12.396 5.708-17-3.5-1.316-2.633-3-4.265-3-7.5-3.925 0-6.028-3.764-8.5-5-11.444-5.722-16.903-17.307-22.5-28.5-1.969-3.937 3-5.877 3-8.5l-1-1h-20l-1 1c0 1.488 5.441 3.618 4 6.5-5.135 10.271-17.648 35.5-32 35.5 0 4.591-2.149 5.798-4 9.5-4.419 8.838-12.611-.5-18-.5 0 2.947 6 2.713 6 6 12.582 0 31.177 6.162 43.5 0 1.378-.689 10.5-1.781 10.5-3 0-2.389-1-5.987-1-9-1.353 0-9.534-5.431-9-6.5l3-3.5c-7.595 0 3.488-14 7-14 0-13.863 2-10.24 2 1 4.062 0 15.048 13 8 13 0 2.409 1.277 1.055 2 2.5 1.341 2.683-6.997 7.5-9 7.5 0 1.606 2.081 4.339 1 6.5l-2 2.5Z"/><path fill="#FF9BCD" id="MY" d="M321 249c0 1.145.579 4-1 4v-4h1Z"/><path fill="#FEC6E2" id="RO" d="M227 265h2v-3c0-11.24-2-14.863-2-1v4Z"/><path fill="#FDA5D2" id="SPVI" d="M319 255h1v-1l-1 1Z"/><path fill="#FF9BCD" id="MY" d="M320 255c0 1.048.473 3-1 3v-3h1ZM137 259l1 1-1-1ZM319 260l-1 1 1-1ZM138 261l1 2-1-2Z"/><path fill="#C8C8CC" id="tspc" d="M227 265c-3.863 0-3.314 10-7 10-7.595 0 3.488-14 7-14v4ZM236 275h1c7.048 0-3.938-13-8-13v2l1 1 5 9 1 1Z"/><path fill="#FF9BCD" id="MY" d="m318 262-1 1 1-1Z"/><path fill="#FDA5D2" id="SPVI" d="m139 263 1 1-1-1Z"/><path fill="#FF9BCD" id="MY" d="M229 265h1l-1-1v1ZM317 264l-1 1 1-1Z"/><path fill="#FFB3D8" id="IO" d="M227 279c0 2.124-1 4.436-1 6-1.353 0-9.534-5.431-9-6.5l3-3.5c3.686 0 3.137-10 7-10v14Z"/><path fill="#FF9BCD" id="MY" d="m229 277-2 2v-14h2v12Z"/><path fill="#FFB3D8" id="IO" d="m229 277 1 8c2.003 0 10.341-4.817 9-7.5-.723-1.445-2-.091-2-2.5h-1l-1-1-5-9h-1v12Z"/><path fill="#FF9BCD" id="MY" d="m315 266-1 1 1-1ZM166 279h2v-2c-4.042 0-16 3.027-16-5-3.248 0-6.351-5-9-5 0 3.421 8 6.915 8 9l4 3c0-4.761 4.815 2 5 2 0-2.641 1.823-2 4-2h2ZM313 268l-1 1 1-1ZM319 268c-1.811 0-4 3.438-4 5 1.811 0 4-3.438 4-5ZM176 269c0 9.901 9.494 0 0 0ZM277 269c0 9.901 9.494 0 0 0ZM297 278h5l3-2c0-1.93 6-2.963 6-7-1.812 0-4.82 3-7 3 0 4.691-7 4.329-7 6ZM308 277c0 3.331-5 4.796-5 8 1.263 0 12-9.844 12-12-1.097 0-7 3.517-7 4ZM235 274l1 1-1-1Z"/><path fill="#C9CACA" id="sctd" d="M155 279c0 2.547 3 5.453 3 8-4.745 0-9-8.072-9-11h2l4 3ZM303 285l-5 2c0-3.79 4-5.836 4-9l3-2 3 1c0 3.331-5 4.796-5 8Z"/><path fill="#FCB3D7" id="LRNm" d="M166 291h1c5.389 0 13.581 9.338 18 .5 1.851-3.702 4-4.909 4-9.5 0-4.061-4.776-5-8-5-4.942 0-8.889 2-13 2h-2c0 1.399-2 1.399-2 0-2.177 0-4-.641-4 2l3 7 3 3Z"/><path fill="#FFC6E2" id="RPA" d="M227 294h2l2-2.5c1.081-2.161-1-4.894-1-6.5l-1-8-2 2c0 2.124-1 4.436-1 6 0 3.013 1 6.611 1 9Z"/><path fill="#FCB3D7" id="LRNm" d="m288 292-1 1c-6.915 0-12.396 5.708-17-3.5-1.316-2.633-3-4.265-3-7.5 0-3.899 4.847-5 8-5 5.289 0 9.478 2 14 2h1c0 1.486 3 1.486 3 0h4c0 4.116-4 6.343-4 10-1.238 0-3 .423-3 2h-1l-1 1Z"/><path fill="#C8C8CB" id="rust" d="M161 289h2v-1l-3-7c-.185 0-5-6.761-5-2 0 2.547 3 5.453 3 8l3 2Z"/><path fill="#FF9BCD" id="MY" d="M293 279h4v-1h-8v1h4Z"/><path fill="#C8C8CB" id="rust" d="M293 289h3l2-2c0-3.79 4-5.836 4-9h-5v1c0 4.116-4 6.343-4 10ZM164 279h2c0 1.399-2 1.399-2 0ZM290 279h3c0 1.486-3 1.486-3 0Z"/><path fill="#FFB3D8" id="IO" d="M207 283c0 5.3-14.148 6.205-12 10.5 2.82 5.64 24.539-10.5 12-10.5ZM246 283c0 6.707 12.729 15.041 15 10.5 1.128-2.257-12.46-10.5-15-10.5Z"/><path fill="#C7C9C9" id="py" d="m215 285-10 10.5c0 2.049 4.337 1.5 5.5 1.5 5.84 0 14.683-3.317 8.5-9.5l-4-2.5ZM240 285c0 2.676-7.169 3.162-5 7.5 1.324 2.648 14.983 6.034 16 4 1.328-2.656-8.698-11.5-11-11.5Z"/><path fill="#FF9BCD" id="MY" d="M296 289c0 4.088-9 4.47-9 7 4.739 0 16-4.89 16-11l-5 2-2 2ZM163 289l3 2-3-3v1Z"/><path fill="#CBC7CC" id="sctv" d="M172 297h1c0-3.287-6-3.053-6-6h-1l-3-2h-2c-2.111 0 2.548 3.524 3.5 4l7.5 4Z"/><path fill="#FF9BCD" id="MY" d="M293 289c-1.238 0-3 .423-3 2 1.238 0 3-.423 3-2Z"/><path fill="#CBC7CC" id="sctv" d="M284 297h1l2-1c0-2.53 9-2.912 9-7h-3c0 1.577-1.762 2-3 2h-1l-1 1-1 1c0 1.457-3 1.46-3 4Z"/><path fill="#FF9BCD" id="MY" d="m289 291-1 1 1-1ZM288 292l-1 1 1-1ZM287 296l-2 1 2-1Z"/></svg>