<svg xmlns="http://www.w3.org/2000/svg" viewBox="0 0 456 320"><path fill="#FF64FF" id="MB" d="M193 47c-1.321 0-6-.684-6 1 1.321 0 6 .684 6-1Z"/><path fill="#FE79FF" id="ICd" d="M183 53c1.343 0 2.647 2.205 2 3.5-3.366 6.733-2.659 15.319-6 22-4.043 8.086 11 28.675 11 32.5l7-11.5c4.188-8.375 7.857-16.714 12-25 1.422-2.844.592-7.185 2-10 1.039-2.079 3.3-8.4 2-11-1.879-3.759-7.443-3.971-10.5-5.5-1.046-.523-3.5.952-3.5-1h-6c0 1.684-4.679 1-6 1l-2 1-2 4Z"/><path fill="#FF64FF" id="MB" d="m269 120 4 1c0-3.19-6-5.985-6-10-2.356 0-7.028-9.555-8-11.5-2.568-5.137-5.411-9.821-8-15-2.556-5.113-2.446-11.893-5-17-.894-1.788-3.831-11.338-3-13 2.4-4.8 6.982-3.74 10.5-5.5l3.5-2c-9.048 0-16.787 4.643-23.5 8l-5 10c-1.816 0-1.117-2.734-1.5-3.5l-6.5-8.5c-6.49-3.245-13.669-6-21.5-6 0 1.952 2.454.477 3.5 1 3.057 1.529 8.621 1.741 10.5 5.5 1.3 2.6-.961 8.921-2 11-1.408 2.815-.578 7.156-2 10-4.143 8.286-7.812 16.625-12 25l-7 11.5c0 3.37-6 6.121-6 9h3c1.098 0 10.734-17.969 12-20.5 2.82-5.64 16.842-23.67 22.5-26.5 3.007-1.503 5.166 2 7 2 1.671 0 3.236-3.382 6-2l13 13c3.777 3.777 7.19 9.88 9.5 14.5 2.071 4.141 12 15.614 12 19.5Z"/><path fill="#FE79FF" id="ICd" d="M273 53c-1.263 0-1.57 5.36-1 6.5 2.233 4.467 5 12.37 5 17.5 0 5.99.491 13.518-2 18.5-2.087 4.175-8 10.814-8 15.5-2.356 0-7.028-9.555-8-11.5-2.568-5.137-5.411-9.821-8-15-2.556-5.113-2.446-11.893-5-17-.894-1.788-3.831-11.338-3-13 2.4-4.8 6.982-3.74 10.5-5.5l3.5-2h6c0 .98 7.758 2 9 2l1 4Z"/><path fill="#FF64FF" id="MB" d="m272 49 4 1c0-2.315-10.657-3-13-3 0 .98 7.758 2 9 2ZM184 49h1l2-1c-1.048 0-3-.473-3 1ZM183 49c-1.048 0-3-.473-3 1 1.048 0 3 .473 3-1Z"/><path fill="#FE79FE" id="ICe" d="M151 75c0 5.023-3.786 13.072-6 17.5v9.5c0 13.666 3.869 24 20 24l-4-4.5c-2.975-5.951-2.969-28.061 0-34l12-24L183 53l2-4h-2c0 1.473-1.952 1-3 1-2.018 0-17 8.69-17 11l-1 1-1 1-1 1-1 1-1 1-1 1-1 1-1 2-1 1-1 1v1l-1 1-1 1ZM304 73l5 11.5c2.127 4.254-.077 10.845 2 15 6.49 12.981-5.895 26.5-20 26.5l4-3.5c3.21-6.42 3.216-29.568 0-36-4.396-8.792-9.56-17.12-14-26l-8-7.5-1-4 4 1h1l1 1c5.321 0 13.929 10 16 10l1 1 1 1 1 1 1 2 4 5 2 2Z"/><path fill="#FF64FF" id="MB" d="m277 50 1 1-1-1Z"/><path fill="#FE7AFE" id="ICc" d="M165 126h8l2-1h1l2-1 1-1 2-1 2-1 1-1c0-2.879 6-5.63 6-9 0-3.825-15.043-24.414-11-32.5 3.341-6.681 2.634-15.267 6-22 .647-1.295-.657-3.5-2-3.5l-10 10.5-12 24c-2.969 5.939-2.975 28.049 0 34l4 4.5ZM281 125l10 1 4-3.5c3.21-6.42 3.216-29.568 0-36-4.396-8.792-9.56-17.12-14-26l-8-7.5c-1.263 0-1.57 5.36-1 6.5 2.233 4.467 5 12.37 5 17.5 0 5.99.491 13.518-2 18.5-2.087 4.175-8 10.814-8 15.5 0 4.015 6 6.81 6 10h1l2 2h1l3 2h1Z"/><path fill="#098589" id="VISp1" d="M99 73c8.027 0 11.806 6 20 6l15-14c0-14.196-35 2.43-35 8ZM357 73c-5.763 0-12.061 6-20 6l-14-14c0-13.729 23.277.389 26.5 2 1.658.829 7.5 3.415 7.5 6Z"/><path fill="#FF64FF" id="MB" d="m163 61-1 1 1-1ZM294 61l1 1-1-1ZM162 62l-1 1 1-1ZM161 63l-1 1 1-1ZM296 63l1 1-1-1ZM160 64l-1 1 1-1Z"/><path fill="#1BA696" id="RSPagl1" d="m119 79 4 1c2.169 0 11-11.978 11-15l-15 14Z"/><path fill="#FF64FF" id="MB" d="m159 65-1 1 1-1Z"/><path fill="#1BA696" id="RSPagl1" d="m337 79-4 1c-3.023 0-10-11.337-10-15l14 14Z"/><path fill="#FF64FF" id="MB" d="m158 66-1 1 1-1ZM298 66c1.811 0 4 3.438 4 5l-4-5ZM157 67l-1 1 1-1ZM155 70l-1 1 1-1ZM154 71l-1 1 1-1Z"/><path fill="#0A838A" id="VISpl1" fill-rule="evenodd" d="M102 74c0 1.93 1.93 0 0 0m6 23H86.5c-2.46 1.23-10.01 4-12.5 4 0-4.162 14.306-17.806 18.5-22l6.5-6c8.027 0 11.806 6 20 6l4 1c0 4.856-10.254 9.007-12 12.5l-3 4.5Z"/><path fill="#C9C8C8" id="bic" d="M151 75c-3.836 0-8.123 24.746-10 28.5-.822 1.644 1.39 10.5-1 10.5 0-10.041-1.568-19.365 3-28.5 1.268-2.536 8-12.097 8-11.5v1Z"/><path fill="#FF64FF" id="MB" d="m153 73-1 1 1-1Z"/><path fill="#FC8FFF" id="PAG" fill-rule="evenodd" d="M263 143c0 6.072 4.238 0 0 0m-72 0c0 5.456 4.529 0 0 0m41 10v3c1.604 0 4.282-5 7-5 0-15.567 15.309 1 17 1h6l7-8v-1l2-4-2-19c0-3.886-9.929-15.359-12-19.5-2.31-4.62-5.723-10.723-9.5-14.5l-13-13c-2.764-1.382-4.329 2-6 2-1.834 0-3.993-3.503-7-2-5.658 2.83-19.68 20.86-22.5 26.5-1.266 2.531-10.902 20.5-12 20.5l-1 17 1 5v1l7 9 5 1 2-1c0-4.658 16-12.45 16-1 3.23 0 5.26 5 8 5v-3c0-2.409-1-5.181-1-7-3.244 0-7.671-6.171-10-8.5-2.184-2.184-4.445-3.889-6-7-3.754-7.507 8.03-25.265 12.5-27.5l8-7 12.5 12.5c2.451 4.902 11.305 14.389 8 21-2.772 5.543-7.632 8.632-12 13l-5 4.5v6Z"/><path fill="#FF64FF" id="MB" d="m309 131-4 2c0-9.909-13.065-3.282-18.5-6-1.319-.659-5.5.334-5.5-2l10 1c14.105 0 26.49-13.519 20-26.5-2.077-4.155.127-10.746-2-15L304 73h1c0 .445 8.109 20.718 9 22.5l1 14c0 1.19-.614 4.5 1 4.5 0 6.517-7 13.449-7 17Z"/><path fill="#C9C8C8" id="bic" d="M305 73c3.196 0 5.039 7.578 6 9.5 6.268 12.537 5 17.744 5 31.5-1.614 0-1-3.31-1-4.5l-1-14c-.891-1.782-9-22.055-9-22.5Z"/><path fill="#0A838A" id="VISpl1" d="M349 97h21.5c2.46 1.23 10.011 4 12.5 4l-7-8.5c-4.429-4.43-15.2-19.5-19-19.5-5.763 0-12.061 6-20 6l-4 1 16 17Z"/><path fill="#098589" id="VISp1" d="M102 74c0 1.93 1.93 0 0 0Z"/><path fill="#FF64FF" id="MB" d="m152 74-1 1v-1h1ZM147 131l4 2c0-8.178 9.804-5 15-5 1.593 0 7-.337 7-2h-8c-16.131 0-20-10.334-20-24v-9.5c2.214-4.428 6-12.477 6-17.5-3.836 0-8.123 24.746-10 28.5-.822 1.644 1.39 10.5-1 10.5 0 6.06 7 11.501 7 17Z"/><path fill="#A9A9A8" id="AQ" d="M224 146c2.892 0 4.781 1 8 1l5-4.5c4.368-4.368 9.228-7.457 12-13 3.305-6.611-5.549-16.098-8-21L228.5 96l-8 7c-4.47 2.235-16.254 19.993-12.5 27.5 1.555 3.111 3.816 4.816 6 7 2.329 2.329 6.756 8.5 10 8.5Z"/><path fill="#72D568" id="PAR" d="M69 108c5.07 0 21.77-3.365 26.5-1l5.5 2 7-12H86.5c-2.46 1.23-10.01 4-12.5 4l-1 1-1 1-1 1v1l-1 1-1 2ZM387 108c-5.07 0-21.77-3.365-26.5-1l-4.5 2c-1.923 0-7-9.936-7-12h21.5c2.46 1.23 10.011 4 12.5 4l3 5 1 1v1Z"/><path fill="#09818C" id="VISpor1" d="m73 102-1 1 1-1ZM72 103l-1 1 1-1ZM71 105l-1 1 1-1ZM386 106l1 1-1-1Z"/><path fill="#31B625" id="ENTm1" fill-rule="evenodd" d="m77 118-2 1.5-5 10c-2.353 4.707-.996 20.248 6.5 16.5 4.94-2.47 9.63-28 .5-28m-8-10c5.07 0 21.77-3.365 26.5-1l5.5 2c0 2.492-8.368 19.235-10 22.5-4.578 9.156-3.25 22.25-11 30-1.796 1.796-3.808 8.846-8.5 6.5l-3-3-7.5-7.5c-4.477-8.955-1.08-31.838 3-40l5-9.5ZM377 118l-2 1.5-1 9c0 2.539.878 6.756 2 9l1 5c2.737 5.475 7.719 4.561 10 0 3.339-6.678-2.711-24.5-10-24.5m10-10c3.581 0 4.819 12.138 6 14.5 4.273 8.546 7.996 30.004 0 38-2.382 2.382-7.542 9.479-11.5 7.5-4.171-2.085-8.298-11.095-10.5-15.5-3.186-6.372-2.777-14.554-6-21-2.34-4.681-9-17.643-9-22.5l4.5-2c4.73-2.365 21.43 1 26.5 1Z"/><path fill="#FDFB8F" id="SIM" d="M139 129c-4.456 0-6.724 9.947-8 12.5-3.24 6.479-13.176 30.5-21 30.5-2.595 0-12.847-14.807-11-18.5 5.499-10.998 10.471-22.942 16-34l6-6c3.254-6.507 17-5.868 17 2.5l1 1v12ZM317 129c4 0 6.546 8.593 8 11.5 3.668 7.335 13.315 31.5 22 31.5 0-.96 8.896-11.292 10-13.5 2.649-5.299-5.817-20.634-8-25-3.24-6.48-12.691-21.096-19.5-24.5-5.459-2.73-11.5 4.441-11.5 9l-1 1v10Z"/><path fill="#F0F080" id="CB" d="m138 116 1 1-1-1Z"/><path fill="#30B824" id="ENTm2" d="m77 118-2 1.5-5 10c-2.353 4.707-.996 20.248 6.5 16.5 4.94-2.47 9.63-28 .5-28Z"/><path fill="#F0F080" id="CB" d="m318 118-1 1 1-1Z"/><path fill="#30B824" id="ENTm2" d="m377 118-2 1.5-1 9c0 2.539.878 6.756 2 9l1 5c2.737 5.475 7.719 4.561 10 0 3.339-6.678-2.711-24.5-10-24.5Z"/><path fill="#FF64FF" id="MB" d="m184 120-1 1 1-1Z"/><path fill="#FC90FF" id="CUN" d="M173 144h3l1-1h5l1-1h1l1-1c0-1.145-.579-4 1-4l1-17h-3l-1 1-2 1-2 1-1 1-2 1h-1l-2 1c0 1.663-5.407 2-7 2-5.196 0-15-3.178-15 5 0 3.724 6 7.103 6 9 4.288 0 7.898 3 13 3l2-1h1ZM286 145h1c4.296 0 7.018-2 11-2l1-1c0-2.073 6-4.975 6-9 0-9.909-13.065-3.282-18.5-6-1.319-.659-5.5.334-5.5-2h-1c-1.238 0-3-.423-3-2h-1l-2-2h-1l-4-1 2 19 1 2 3 2h4l2 1h4l1 1Z"/><path fill="#FF64FF" id="MB" d="m183 121-2 1 2-1ZM274 121l2 2-2-2ZM179 123l-1 1 1-1ZM277 123l3 2c-1.238 0-3-.423-3-2ZM178 124l-2 1 2-1ZM175 125l-2 1 2-1Z"/><path fill="#FCFB90" id="CUL4, 5" fill-rule="evenodd" d="M131 165c0 3.746 2.091 0 0 0m1 12c2.749 0 5.105 4 9 4 2.646 0 6-9.108 6-11l1-1 1-2c0-7.03 8.032-17.436 4-25.5l-4-8c-.781-1.562-5-.937-5-3.5h-3l-1-1h-1c-4.456 0-6.724 9.947-8 12.5-3.24 6.479-13.176 30.5-21 30.5l2 1c5.165 0 6.696 3.902 14.5 0l4-6c2.088 0-1.356 5.212-1.5 5.5l3 4.5Z"/><path fill="#F0F080" id="CB" d="m140 129 1 1-1-1ZM317 129l-1 1 1-1Z"/><path fill="#FCFB90" id="CUL4, 5" d="M323 178c0 1.732-5.353 3-7 3-3.935 0-7-8.89-7-12 0-7.226-10.347-16.805-6-25.5 1.476-2.952 2.571-6.143 4-9l4-3.5 1-1h4l1-1c4 0 6.546 8.593 8 11.5 3.668 7.335 13.315 31.5 22 31.5v1h-2c-5.507 0-8.562 2.969-14.5 0l-6-8c-1.568 0 2.227 5.954 2.5 6.5 1.356 2.712-2 3.183-2 4.5l-1 1-1 1Z"/><path fill="#F0F080" id="CB" d="m150 166-1 1c0-7.03 8.032-17.436 4-25.5l-4-8c-.781-1.562-5-.937-5-3.5l3 1 4 2c0 3.724 6 7.103 6 9l6 9h-2c-2.962 0-7 6.336-7 9l-1 1v1l-1 1-1 1v1l-1 1ZM312 130l-1 1 1-1ZM307 168l2 1c0-7.226-10.347-16.805-6-25.5 1.476-2.952 2.571-6.143 4-9l4-3.5h-2l-4 2c0 4.025-6 6.927-6 9l-1 1-4 8h1c2.237 0 11 11.682 11 14v1l1 1v1Z"/><path fill="#FF64FF" id="MB" d="m185 141 2 1-1-5c-1.579 0-1 2.855-1 4ZM269 143h1l1-1 1-1-1-2-2 4Z"/><path fill="#FF9B88" id="P" d="M187 142v1l-3-1 1-1 2 1ZM271 142l4 1-3-2-1 1Z"/><path fill="#FF64FF" id="MB" d="M163 151h1l1-1 1-1 1-1 1-1 2-1v-1c-5.102 0-8.712-3-13-3l6 9Z"/><path fill="#FF9B88" id="P" d="m183 142-1 1 1-1Z"/><path fill="#FFAD6D" id="PB" d="m175 185-18 2c0-3.826-5.889-9-10-9v-1c0-1.64 4-4.993 4-8 1.577 0 2-1.762 2-3 1.811 0 4-3.438 4-5l1-1 1-1c0-2.46 4-4.17 4-7l1-1 1-1 1-1 1-1 1-1 2-1 1-1h1l1-1h3l1-1h5l1-1h1l3 1v2c0 2.409-1 5.181-1 7l-3 8-1 1h-1l-1 1-2 1-2 1-1 1c-5.668 0-11.562 9.531-16.5 12-1.03.515-2.564 3.218-1 4 1.95.975 4.535-3.267 6-4 5.712-2.856 15.045-12 21.5-12 3.521 0 3.14 12.221 2 14.5l-12 5.5ZM281 185l18 2c0-3.995 7.272-9 11-9v-1l-3-1.5c-1.019-2.039-.942-4.885-2-7l-6-7.5v-1l-1-1-2-2-1-1-2-4-2-2-1-1-1-1-1-1-2-2h-1l-2-1h-2l-2-1h-4l-4-1-1 1-1 1v5c1.473 0 1 1.952 1 3 0 2.18 3 5.188 3 7l5 4h1l2 2c6.026 0 12.266 9.383 17.5 12l1 4c-2.348 1.174-5.248-3.124-7-4-5.911-2.955-14.738-12-21.5-12 0 4.792-4.751 7.998-2 13.5 1.514 3.028 12 4.852 12 6.5Z"/><path fill="#FF64FF" id="MB" d="m299 142-1 1 1-1Z"/><path fill="#FF9B88" id="P" d="m177 143-1 1 1-1Z"/><path fill="#FF64FF" id="MB" d="m188 155 2 2c0-4.205 1.196-4 4-4v-1l-7-9v2c1.714 0 1 5.594 1 7v3Z"/><path fill="#C8C9C8" id="IVn" d="M191 143c0 5.456 4.529 0 0 0ZM263 143c0 6.072 4.238 0 0 0Z"/><path fill="#FF9B88" id="P" d="m270 143-1 1v-1h1ZM279 143l2 1-2-1Z"/><path fill="#FF64FF" id="MB" d="M293 151h1l4-8c-3.982 0-6.704 2-11 2l1 2 1 1 1 1 1 1 2 1ZM171 145h1v-1l-2 1h1Z"/><path fill="#FF9B88" id="P" d="m173 144-1 1v-1h1Z"/><path fill="#FF64FF" id="MB" d="M266 156h2v-2l1-2v-8l-7 8 1 1c2.747 0 3 .253 3 3Z"/><path fill="#FF9B88" id="P" d="M285 144v1l-2-1h2Z"/><path fill="#FF64FF" id="MB" d="M285 145h1l-1-1v1Z"/><path fill="#FF9B88" id="P" d="m171 145-1 1v-1h1ZM186 152h2c0-1.406.714-7-1-7 0 2.409-1 5.181-1 7Z"/><path fill="#FEC395" id="LDT" d="M212 165c-1.64 0-3.571 11-12 11-11.624 0-1-15.885-1-23l2-1c0-4.658 16-12.45 16-1l-2 7-1 1v1l-1 1v2l-1 1v1ZM244 164c.476 0 4.492 12 12 12 13.921 0 0-17.476 0-24-1.691 0-17-16.567-17-1 .496 0 4 8.025 4 9v2l1 1v1Z"/><path fill="#FF9B88" id="P" d="m287 145 1 2-2-2h1Z"/><path fill="#FF64FF" id="MB" d="m227 155 2 1c1.916 0 .07-3 3-3v-6c-3.219 0-5.108-1-8-1 0 1.819 1 4.591 1 7l2 2Z"/><path fill="#FF9B88" id="P" d="m168 147-1 1 1-1ZM167 148l-1 1 1-1ZM289 148l1 1-1-1ZM166 149l-1 1 1-1ZM269 152h1c0-1.048.473-3-1-3v3ZM165 150l-1 1 1-1ZM293 151v1l-2-2 2 1Z"/><path fill="#CBC9CC" id="arb" d="M161 151c-2.962 0-7 6.336-7 9 2.185 0 7-7.198 7-9Z"/><path fill="#CBC7CC" id="sctv" d="M151 169c-1.803 0-3 5.263-3 1v-1l1-2 1-1 1-1v-1l1-1 1-1v-1l1-1c2.185 0 7-7.198 7-9h2v1c0 2.83-4 4.54-4 7l-1 1-1 1c-1.811 0-4 3.438-4 5-1.577 0-2 1.762-2 3Z"/><path fill="#FF9B88" id="P" d="m164 151-1 1v-1h1Z"/><path fill="#FFBA84" id="PCG" d="M227 160v2l-6.5-6-5.5 2 2-7c3.23 0 5.26 5 8 5l2 4ZM231 159c2.348 0 4.296-4.602 7.5-3l4.5 4c0-.975-3.504-9-4-9-2.718 0-5.396 5-7 5l-1 3Z"/><path fill="#CBC7CC" id="sctv" d="M307 167v1l2 4.5c-.71 1.42-1.752-2.505-2-3-1.156-2.311-5.789-8.5-8-8.5v-1l-1-1-2-2-1-1-2-4v-1h2l8 11.5 3 2.5v1l1 1Z"/><path fill="#CBC9CC" id="arb" d="M295 151c2.237 0 11 11.682 11 14l-3-2.5-8-11.5Z"/><path fill="#CBC9CB" id="scp" d="M175 165c-5.668 0-11.562 9.531-16.5 12-1.03.515-2.564 3.218-1 4 1.95.975 4.535-3.267 6-4 5.712-2.856 15.045-12 21.5-12l3-2.5V152h-2l-3 8-1 1h-1l-1 1-2 1-2 1-1 1ZM194 153c-2.804 0-4-.205-4 4 0 2.318 3.148 11.204 6 5.5 1.69-3.379-2-6.661-2-9.5Z"/><path fill="#FF9B88" id="P" fill-rule="evenodd" d="m235 193 .5 10c1.512 0 3.278-10-.5-10m-9 70-3 1c0-3.535 4.307-9.886 2-14.5-1.989-3.978-4-7.69-4-12.5v-4c0-11.642 1.092-24.315-4-34.5-2.07-4.14-28.779-13.441-32-7v6.5l-2-1c0-2.515 1.312-3.876 0-6.5-1.133-2.265-8-4.563-8-5.5l12-5.5c1.14-2.279 1.521-14.5-2-14.5l3-2.5V155l2 2c0 2.318 3.148 11.204 6 5.5 1.69-3.379-2-6.661-2-9.5v-1l5 1c0 7.115-10.624 23 1 23l3 1.5c.993 1.985 14.401 10.549 16.5 9.5l5.5-4c0 4.208 6 3.691 6-1l5.5 5c3.873 1.937 12.638-6.819 15-8l4.5-3c13.921 0 0-17.476 0-24h6l1 1c0 2.874-4.831 5.839-3 9.5 2.497 4.994 6.107-2.213 7-4l-1-2.5h2v6.5l3 2.5c0 4.792-4.751 7.998-2 13.5 1.514 3.028 12 4.852 12 6.5 0 1.154-5.943 2.386-7 4.5-1.141 2.283-1 4.726-1 7.5l-1 1c0-16.258-29.136-6.229-33 1.5-4.83 9.659-3 19.828-3 31.5v3c-2.308 0-.257 7.013-1 8.5l-4 8.5-3.5-3c-3.091 1.545-1.5 11.867-1.5 15m-4-67 1.5-3c3.132-1.566 4.003 3 5 3 .716 0 1.306-4.847 5-3 2.154 1.077.665 21.168-3 23-2.734 1.367-.657-15-2-15l-.5 3.5c0 1.685 1.001 11.5-1.5 11.5-4.337 0-4.5-10.313-4.5-13-6.895 0 0-15.199 0-7Z"/><path fill="#FF9B88" id="P" d="m201 152-2 1 2-1ZM269 152l-1 2 1-2Z"/><path fill="#CBC9CB" id="scp" d="M271 165c6.762 0 15.589 9.045 21.5 12 1.752.876 4.652 5.174 7 4l-1-4c-5.234-2.617-11.474-12-17.5-12l-2-2h-1c-1.85 0-5-2.23-5-4 0-1.812-3-4.82-3-7h-1l-1 2v8.5l3 2.5Z"/><path fill="#FF9B88" id="P" d="m225 156 2 4v-5l-2-2v3ZM230 159h1l1-3v-3c-2.93 0-1.084 3-3 3l1 3Z"/><path fill="#CBC9CB" id="scp" d="M263 153c2.747 0 3 .253 3 3l1 2.5c-.893 1.787-4.503 8.994-7 4-1.831-3.661 3-6.626 3-9.5Z"/><path fill="#FDA6FF" id="DR" d="M228 162h1c0-1.048-.473-3 1-3l-1-3-2-1v7h1Z"/><path fill="#FEB985" id="DTN" d="M227 167v2c-.603 0-15 11.267-15-4v-1l1-1v-2l1-1v-1l1-1 5.5-2 6.5 6v5ZM244 164c0 7.018-4.577 11.461-11.5 8l-3.5-5v-4l1-1v-1l1-2c2.348 0 4.296-4.602 7.5-3l4.5 4v2l1 1v1Z"/><path fill="#CBC9CC" id="arb" d="m295 156 1 1-1-1Z"/><path fill="#FFBA84" id="PCG" d="m215 158-1 1 1-1Z"/><path fill="#CBC9CC" id="arb" d="m159 159-1 1 1-1Z"/><path fill="#FF9B88" id="P" d="M229 162h1v-3c-1.473 0-1 1.952-1 3Z"/><path fill="#FFBA84" id="PCG" d="m231 159-1 2v-2h1Z"/><path fill="#FF9B88" id="P" d="m273 159 5 4c-1.85 0-5-2.23-5-4Z"/><path fill="#CBC9CC" id="arb" d="m298 159 1 1-1-1ZM154 160l-1 1 1-1ZM158 160l-1 1 1-1Z"/><path fill="#FF9B88" id="P" d="m183 160-1 1 1-1Z"/><path fill="#FFBA84" id="PCG" d="m214 160-1 1 1-1Z"/><path fill="#CBC9CC" id="arb" d="M157 161c-1.811 0-4 3.438-4 5 1.811 0 4-3.438 4-5Z"/><path fill="#FF9B88" id="P" d="m181 161-1 1 1-1Z"/><path fill="#CBC9CC" id="arb" d="M314 182h2v-1c-3.935 0-7-8.89-7-12l-2-1 2 4.5c-.71 1.42-1.752-2.505-2-3-1.156-2.311-5.789-8.5-8-8.5l6 7.5c1.058 2.115.981 4.961 2 7l3 1.5 1 2 3 3ZM153 162l-1 1 1-1Z"/><path fill="#FF9B88" id="P" d="m180 162-2 1 2-1ZM227 167h2v-4l-1-1h-1v5Z"/><path fill="#FF64FF" id="MB" d="M229 162v1l-1-1h1Z"/><path fill="#FFBA84" id="PCG" d="m230 162-1 1v-1h1ZM243 162l1 1-1-1Z"/><path fill="#CBC9CC" id="arb" d="m152 163-1 1 1-1Z"/><path fill="#FFBA84" id="PCG" d="m213 163-1 1 1-1Z"/><path fill="#FF9B88" id="P" d="m279 163 2 2-2-2ZM176 164l-1 1 1-1Z"/><path fill="#FFBA84" id="PCG" d="m256 176-4.5 3c-2.362 1.181-11.127 9.937-15 8l-5.5-5c0-4.906-2-9.387-2-15l3.5 5c6.923 3.461 11.5-.982 11.5-8 .476 0 4.492 12 12 12Z"/><path fill="#CBC9CC" id="arb" d="M131 165c0 3.746 2.091 0 0 0ZM151 165l-1 1 1-1Z"/><path fill="#FFBA84" id="PCG" d="m200 176 3 1.5c.993 1.985 14.401 10.549 16.5 9.5l5.5-4c0-4.457 2-9.961 2-14-.603 0-15 11.267-15-4-1.64 0-3.571 11-12 11Z"/><path fill="#CBC9CC" id="arb" d="M337 189c0 7.783 8.812 11.844 4.5 14-.755.378-3.882-2-5.5-2 0-1.015-3-6.294-3-12l4-5.5c4.194-8.388-6.104-5.5-10-5.5 0-1.747-.253-2-2-2 0-1.317 3.356-1.788 2-4.5-.273-.546-4.068-6.5-2.5-6.5l6 8c5.938 2.969 8.993 0 14.5 0v2l-8 14ZM153 166c-1.577 0-2 1.762-2 3 1.577 0 2-1.762 2-3ZM306 166l1 1-1-1ZM120 190c0 7.202-5.345 6.191-7 9.5l3.5 3.5c1.959-.979 1.231-2 4.5-2 0-2.516 2-7.435 2-12l-4-6.5c-3.834-7.669 7.651-4.5 10-4.5 0-3.382 1.342-1 3-1l-3-4.5c.144-.288 3.588-5.5 1.5-5.5l-4 6c-7.804 3.902-9.335 0-14.5 0l-1 1 9 16Z"/><path fill="#F0F080" id="CB" d="m149 167-1 2 1-2Z"/><path fill="#FDA6FF" id="DR" d="M231 182c0 4.691-6 5.208-6 1 0-4.457 2-9.961 2-14v-2h2c0 5.613 2 10.094 2 15Z"/><path fill="#F0F080" id="CB" d="M147 170h1v-1l-1 1Z"/><path fill="#CBC9CC" id="arb" d="M141 182h1l3-3 1-1 1-1c0-1.64 4-4.993 4-8-1.803 0-3 5.263-3 1h-1c0 1.892-3.354 11-6 11v1Z"/><path fill="#FFFC8D" id="PFL" d="M100 183c3.32 0 7.866-1.817 11.5 0 2.948 1.474 5.566 7 8.5 7l-9-16c-6.5 0-11 .585-11 9ZM356 183c-3.245 0-6.951-1.774-10.5 0-2.683 1.341-5.362 6-8.5 6l8-14 2-2c6.671 0 9 3.696 9 10Z"/><path fill="#F0F080" id="CB" d="M139 182h2v-1c-3.895 0-6.251-4-9-4-1.658 0-3-2.382-3 1 0 1.861 7.876 4 10 4ZM316 182l1 1 10-5c0-1.747-.253-2-2-2l-1 1-1 1c0 1.732-5.353 3-7 3v1Z"/><path fill="#CCCCCA" id="mcp" d="M123 189c3.932 0 1.292 9 5 9l11-11 1-2 1-1v-1l-2-1c-2.124 0-10-2.139-10-4-2.349 0-13.834-3.169-10 4.5l4 6.5Z"/><path fill="#FF9B88" id="P" d="M146 178h1v-1l-1 1ZM310 178l1 1-1-2v1Z"/><path fill="#CBC9CC" id="arb" d="m324 177-1 1 1-1Z"/><path fill="#CCCCCA" id="mcp" d="M333 189c-3.093 0-.995 9-5 9 0-2.074-9.778-11-11-11v-1c0-.716-2.373-3 0-3l10-5c3.896 0 14.194-2.888 10 5.5l-4 5.5Z"/><path fill="#FF9B88" id="P" d="m146 178-1 1 1-1Z"/><path fill="#FEAD6E" id="KF" d="M139 193c2.426 0 5.267-4.616 8.5-3l2.5 3 5-1 2-5c0-3.826-5.889-9-10-9h-1l-1 1-3 3-1 1v1l-1 1-1 2v6ZM307 193c0-6.763 7.993 0 10 0 2.515 0 0-5.014 0-6v-1l-3-4-3-3-1-1c-3.728 0-11 5.005-11 9l1 2 1 1v1c1.714 0 3.482 2 6 2Z"/><path fill="#FEF991" id="FL" d="m107 227-2 1c-8.458 0-12.923-15.345-16-21.5-1.695-3.391 2.641-11.283 4-14 1.192-2.384 4.058-9.5 7-9.5 3.32 0 7.866-1.817 11.5 0 2.948 1.474 5.566 7 8.5 7 0 7.202-5.345 6.191-7 9.5l3.5 3.5c1.959-.979 1.231-2 4.5-2l1 1-1 1v2l-1 1v1l-1 1v1l-1 1-1 3-1 1-3 6-1 1-3 4h-1l-1 2Z"/><path fill="#FF9B88" id="P" d="m142 182-1 1-2-1h3ZM317 183c-2.373 0 0 2.284 0 3l-3-4h2l1 1Z"/><path fill="#FEF991" id="FL" d="m348 225 3 3c7.325 0 19.49-21.52 16-28.5l-3-5c-1.275-2.55-3.333-11.5-8-11.5-3.245 0-6.951-1.774-10.5 0-2.683 1.341-5.362 6-8.5 6 0 7.783 8.812 11.844 4.5 14-.755.378-3.882-2-5.5-2l-1 2v1l1 2 1 1v1l1 1v1l1 1 2 5 2 2 1 2 1 1v1l1 1 2 2Z"/><path fill="#FF9B88" id="P" d="m141 184-1 1 1-1ZM140 185l-1 2 1-2Z"/><path fill="#FEBA86" id="SUT" d="M174 197h9c0-2.515 1.312-3.876 0-6.5-1.133-2.265-8-4.563-8-5.5l-18 2-2 5c0 2.731-3.103 8 2 8 0-6.846 14.876-3 17-3ZM300 200h1l1-1-1-8v-1l-1-1-1-2-18-2c0 1.154-5.943 2.386-7 4.5-1.141 2.283-1 4.726-1 7.5h10c2.412 0 5.526-3.487 8.5-2 1.692.846 6.899 5 8.5 5Z"/><path fill="#FF9B88" id="P" d="M129 213c0-1.981 5.366 4.233 6 5.5 2.942 5.884 3 11.324 3 18.5 1.714 0 1-5.594 1-7 0-8.869-4.399-12.299-8-19.5-4.549-9.097 8-14.845 8-17.5v-6l-11 11-1 4v9l2 2ZM327 213c0-1.729-2.634 2-4 2 0-5.268 5.022-8.456 2-14.5-1.106-2.213-8-5.894-8-7.5 2.515 0 0-5.014 0-6 1.222 0 11 8.926 11 11l1 5v8l-2 2Z"/><path fill="#F0F080" id="CB" d="M122 202h1l1-1 3 1 1-4c-3.708 0-1.068-9-5-9 0 4.565-2 9.484-2 12l1 1Z"/><path fill="#FDBA86" id="PRNc" d="M199 274h2l1-1c0-1.776 12.211-3 14-3l1-1h1l1-1 1-1h1v-1l1-1 1-1c0-3.535 4.307-9.886 2-14.5-1.989-3.978-4-7.69-4-12.5-4.353 0-8-12.634-8-17 0-.918-2.526-4.987-.5-6 2.216-1.108 3.829 2.159 4.5 3.5 1.096 2.192 1.142 15.5 4 15.5 0-11.642 1.092-24.315-4-34.5-2.07-4.14-28.779-13.441-32-7V220c0 7.507-.785 19.071-4 25.5v20l2 2.5c4.388 0 8.322 5 12 5l4 1ZM255 274h2l4-1c3.926 0 7.609-5 12-5h1l1-1v-1c0-5.006 2.357-18.786 0-23.5-2.857-5.714-4-16.935-4-23.5 0-6.903 1-14.772 1-21 0-16.258-29.136-6.229-33 1.5-4.83 9.659-3 19.828-3 31.5 2.199 0 2.686-19.407 7.5-17 4.087 2.043-7.5 29.033-7.5 20-2.308 0-.257 7.013-1 8.5l-4 8.5v8c1.014 0 2 3.959 2 5l1 1 1 1 1 1 1 1 1 1 2 1c3.031 0 15 .896 15 4Z"/><path fill="#FF9B88" id="P" d="m300 189 1 1-1-1Z"/><path fill="#F0F080" id="CB" d="m333 202 2 1 1-2c0-1.015-3-6.294-3-12-3.093 0-.995 9-5 9l1 5c.701 0 4-3.889 4-1Z"/><path fill="#FFAE6F" id="PSV" d="M147 257h2c16.153 0 3-27.364 3-36l-1-21c0-1.819-1-4.591-1-7l-2.5-3c-3.233-1.616-6.074 3-8.5 3 0 2.655-12.549 8.403-8 17.5 3.601 7.201 8 10.631 8 19.5 0 1.406.714 7-1 7v1c0 1.145.579 4-1 4v3l2 4v1l5 5 2 1 1 1ZM313 255l-5 2c-16.884 0-4-26.523-4-36 0-4.121 1-9.275 1-14 .818 0 2-12.593 2-14 0-6.763 7.993 0 10 0 0 1.606 6.894 5.287 8 7.5 3.022 6.044-2 9.232-2 14.5-2.774 0-4 5.798-4 8-1.65 0-1.65 17 0 17v6l-1 2-1 2-1 1-1 1v1l-1 1-1 1Z"/><path fill="#FF9B88" id="P" d="M302 199c4.144 0 3 4.987 3 8 .818 0 2-12.593 2-14-2.518 0-4.286-2-6-2l1 8ZM157 200l-1 1c-1.582 0-2.312-1-5-1 0-1.819-1-4.591-1-7l5-1c0 2.731-3.103 8 2 8Z"/><path fill="#CBCBCC" id="mlf" d="M222 200v3c-6.895 0 0-15.199 0-7v4Z"/><path fill="#FFC294" id="RPO" d="M222 200v3c0 2.687.163 13 4.5 13 2.501 0 1.5-9.815 1.5-11.5l.5-3.5c1.343 0-.734 16.367 2 15 3.665-1.832 5.154-21.923 3-23-3.694-1.847-4.284 3-5 3-.997 0-1.868-4.566-5-3l-1.5 3v3c1.186 0 1.186 1 0 1Z"/><path fill="#CBCBCC" id="mlf" d="m235 193 .5 10c1.512 0 3.278-10-.5-10Z"/><path fill="#FEB986" id="V" d="M169 228c0 4.461-5.097 1-6 1 0-1.976-2.876-4-5-4l-2-3v-21l1-1c0-6.846 14.876-3 17-3 0 4.593 3.507 11.486 1 16.5-2.072 4.144-6 9.663-6 14.5ZM287 228l3.5 3 2.5-2c0-1.533 3.753-4 5-4l3-4c0-6.937-1-13.531-1-20v-1c-1.601 0-6.808-4.154-8.5-5-2.974-1.487-6.088 2-8.5 2l-1 1c0 3.476-2.923 10.654-1 14.5 2.406 4.812 6 9.729 6 15.5Z"/><path fill="#FEB886" id="P5" d="M178 223c-3.112 0-1.071 5-9 5 0-4.837 3.928-10.356 6-14.5 2.507-5.014-1-11.907-1-16.5h9l2 1v22l-3 1c-1.465 0-4-.109-4 2ZM279 224c3.126 0 2.784 4 8 4 0-5.771-3.594-10.688-6-15.5-1.923-3.846 1-11.024 1-14.5v-1h-9l-1 1c0 6.228-1 14.097-1 21l3 2c1.766 0 5 .607 5 3Z"/><path fill="#FF9B88" id="P" d="m283 197-1 1v-1h1Z"/><path fill="#FEB984" id="I5" d="M152 221c1.374 0 4 2.374 4 1v-21c-1.582 0-2.312-1-5-1l1 21Z"/><path fill="#FF9B88" id="P" d="M222 199c1.186 0 1.186 1 0 1v-1Z"/><path fill="#FEB984" id="I5" d="M301 221c0 4.402 2.034 0 3 0 0-4.121 1-9.275 1-14 0-3.013 1.144-8-3-8l-1 1-1 1c0 6.469 1 13.063 1 20Z"/><path fill="#FF9B88" id="P" d="m301 200-1 1v-1h1Z"/><path fill="#FF9BCD" id="MY" d="m124 201-1 1 1-1Z"/><path fill="#FEA4D2" id="VCO" d="M115 255h4l1-2c0-10.498-.37-22.76 4-31.5.755-1.51 1.348-10.5 3-10.5v-9l-3-1-1 1-1 1-1 1v1l-1 1v1l-1 1v1l-1 1-1 3-1 1-3 6-1 1-3 4-1 1-1 1v4l-1 1 2 8 1 1c0 1.729 4.498 14 6 14ZM346 245c0 3.473-4 6.699-4 10-1.535 0-3.999 1.503-5-.5-1.433-2.866-.388-22.777-4-30-1.052-2.103-.941-13.5-4-13.5v-8c.701 0 4-3.889 4-1l2 2 1 2 1 1v1l1 1v1l1 1 2 5 2 2 1 2 1 1v1l1 1 2 2v1l1 1 1 3-1 9-1 1-1 4-1 1Z"/><path fill="#F0F080" id="CB" d="M121 203h1v-1l-1 1Z"/><path fill="#FF9BCD" id="MY" d="m123 202-1 1v-1h1ZM335 203v1l-2-2 2 1ZM122 203l-1 1v-1h1ZM121 205l-1 1 1-1ZM336 206l1 1-1-1ZM120 207l-1 1 1-1Z"/><path fill="#F0F080" id="CB" d="m337 208 1 1-1-1Z"/><path fill="#FF9BCD" id="MY" d="m119 209-1 1 1-1ZM338 210l1 1-1-1ZM143 264c0 .682-6.241 2-7 2-5.319 0-4.628.564-9.5 3-5.533 2.766-11.5-10.399-11.5-14h4l3.5 6c7.751 7.751 6.59-7.205 1-10-2.377-1.189-2.116 2-3.5 2 0-10.498-.37-22.76 4-31.5.755-1.51 1.348-10.5 3-10.5l2 2-1 16c0 2.551-7.99 3.52-6 7.5.564 1.128 7 7.896 7 4.5 1.564 0 1.321 8.141 2 9.5 2.222 4.444 5.231 13.5 12 13.5Z"/><path fill="#FF9BCD" id="MY" fill-rule="evenodd" d="M332 251c0 2.207-2.897 3.293-4 5.5l1 3.5-1 3.5c2.885 5.77 15.136-12.5 4-12.5m-18 13c0 .853 6.031 2 7 2 4.988 0 3.779.639 8.5 3 5.012 2.506 12.5-10.681 12.5-14-1.535 0-3.999 1.503-5-.5-1.433-2.866-.388-22.777-4-30-1.052-2.103-.941-13.5-4-13.5l-2 2c0 4.848 2 10.965 2 16 0 3.286 3.679 1.858 5 4.5 2.535 5.07-5.555 8.5-7 8.5 0 6.382-4.632 22-13 22Z"/><path fill="#C8CACA" id="sptV" d="m149 257 5 3.5c0 6.551-8.174 3.5-11 3.5-6.769 0-9.778-9.056-12-13.5-.679-1.359-.436-9.5-2-9.5 0-.691 2.483-14 .5-14l-1.5 2 1-16c0-1.981 5.366 4.233 6 5.5 2.942 5.884 3 11.324 3 18.5v1c-1.579 0-1 2.855-1 4v3l2 4v1l5 5 2 1 1 1h2ZM308 257l-6 3.5c0 6.356 9.189 3.5 12 3.5 8.368 0 13-15.618 13-22 0-3.065-1.44-13 2-13 0-5.035-2-11.152-2-16 0-1.729-2.634 2-4 2l-4 8v23l-1 2-1 2-1 1-1 1v1l-1 1-1 1-5 2Z"/><path fill="#FF9BCD" id="MY" d="m117 213-1 1 1-1Z"/><path fill="#C8C8CC" id="tspc" d="M221 233c-2.858 0-2.904-13.308-4-15.5-.671-1.341-2.284-4.608-4.5-3.5-2.026 1.013.5 5.082.5 6 0 4.366 3.647 17 8 17v-4ZM236 231c2.199 0 2.686-19.407 7.5-17 4.087 2.043-7.5 29.033-7.5 20v-3Z"/><path fill="#FF9B88" id="P" d="M323 215c-2.774 0-4 5.798-4 8l4-8Z"/><path fill="#FF9BCD" id="MY" d="m341 216 2 2-2-2Z"/><path fill="#FF9B88" id="P" fill-rule="evenodd" d="M292 245c0 1.423-1.978 3.544-1 5.5.591 1.183 6.86 9.28 8 7 1.64-3.28-3.668-12.5-7-12.5m9 28c5.013 0 4-.735 4 4l7.5-6 8.5-5c-.969 0-7-1.147-7-2-2.811 0-12 2.856-12-3.5l6-3.5c-16.884 0-4-26.523-4-36-.966 0-3 4.402-3 0l-3 4c0 2.96-2.399 4-5 4l-2.5 2-3.5-3c-5.216 0-4.874-4-8-4l-2.5 3c-5.363 2.682-2.5-4.709-2.5-6l-3-2c0 6.565 1.143 17.786 4 23.5 2.357 4.714 0 18.494 0 23.5 4.84 0 7.494-6 12.5-6 1.892 0 5.5.32 5.5 3l2.5-3c5.15 0 5.5 9.801 5.5 13Z"/><path fill="#FF9BCD" id="MY" d="m113 220-1 1 1-1Z"/><path fill="#FF9B88" id="P" fill-rule="evenodd" d="M163 245c0 3.566-6.823 6.854-5 10.5l-.5 2.5c3.97 1.985 11.972-13 5.5-13m30 42v1c-9.266 0-23.605.948-31.5-3l-15-12-10.5-7c.759 0 7-1.318 7-2 2.826 0 11 3.051 11-3.5l-5-3.5c16.153 0 3-27.364 3-36 1.374 0 4 2.374 4 1l2 3c0 2.681 2.595 4 5 4 .903 0 6 3.461 6-1 7.929 0 5.888-5 9-5 0 2.765 4.186 6.127 6 2.5 1.058-2.116-2-2.898-2-4.5l3-1c0 7.507-.785 19.071-4 25.5v20l2 2.5-1 1c0-3.831-12.448-11.026-16.5-9l-2.5 2c0-6.398-10.104 4.292-8 8.5 1.449 2.899 2.36 4.93 5.5 6.5.685.342 3.5 2.363 3.5 0l4 3c-2.605 0 2 2.524 2 3-4.151 0-7-5.601-7-2-3.652 0-5.223-6.361-8.5-8-1.023-.512-4.5-.933-4.5 1.5 0 2.345 12.63 9.565 14.5 10.5.945.472 3.5.156 3.5-1 .706 0 6 2.726 6 0l2 1c-2.271 0 3.521 1 5 1l12 1Z"/><path fill="#F0F080" id="CB" d="m344 220 1 1-1-1Z"/><path fill="#FDBA85" id="Acs5" d="M182 221c-1.465 0-4-.109-4 2 0 2.765 4.186 6.127 6 2.5 1.058-2.116-2-2.898-2-4.5ZM274 221c1.766 0 5 .607 5 3l-2.5 3c-5.363 2.682-2.5-4.709-2.5-6Z"/><path fill="#FF9BCD" id="MY" d="m345 222 1 1-1-1Z"/><path fill="#FF9B88" id="P" d="M319 223c-1.65 0-1.65 17 0 17v-17Z"/><path fill="#F0F080" id="CB" d="m108 226-1 1 1-2v1Z"/><path fill="#FF9BCD" id="MY" d="m109 225-1 1v-1h1Z"/><path fill="#FDB986" id="PC5" d="M158 225c2.124 0 5 2.024 5 4-2.405 0-5-1.319-5-4ZM298 225c-1.247 0-5 2.467-5 4 2.601 0 5-1.04 5-4Z"/><path fill="#F0F080" id="CB" d="m351 228-1 2-1-3-1-1v-1l3 3Z"/><path fill="#FF9BCD" id="MY" d="m348 226 1 1-1-1Z"/><path fill="#F0F080" id="CB" d="m105 228 2 2v-3l-2 1Z"/><path fill="#C9CACB" id="vVIIIn" d="m128 229 1.5-2c1.983 0-.5 13.309-.5 14 0 3.396-6.436-3.372-7-4.5-1.99-3.98 6-4.949 6-7.5ZM329 229c-3.44 0-2 9.935-2 13 1.445 0 9.535-3.43 7-8.5-1.321-2.642-5-1.214-5-4.5Z"/><path fill="#FF9BCD" id="MY" d="m107 231-1 1 1-1Z"/><path fill="#FF9B88" id="P" d="M138 238c-1.579 0-1 2.855-1 4 1.579 0 1-2.855 1-4Z"/><path fill="#FF9BCD" id="MY" d="m349 239-1 1 1-1ZM108 240l1 1-1-1ZM347 244l-1 1 1-1Z"/><path fill="#FF9B88" id="P" d="m137 245 2 4-2-4Z"/><path fill="#CCCCC7" id="VIIn" d="M163 245c0 3.566-6.823 6.854-5 10.5l-.5 2.5c3.97 1.985 11.972-13 5.5-13ZM292 245c0 1.423-1.978 3.544-1 5.5.591 1.183 6.86 9.28 8 7 1.64-3.28-3.668-12.5-7-12.5Z"/><path fill="#FF9B88" id="P" d="m319 246-1 2 1-2Z"/><path fill="#FFC5E2" id="RM" d="M226 271c1.54 0 .764 3 4 3v-11l1-4v-8l-3.5-3c-3.091 1.545-1.5 11.867-1.5 15v8Z"/><path fill="#FF9B88" id="P" d="m318 248-1 2 1-2ZM139 250l5 5-5-5ZM317 250l-1 1 1-1Z"/><path fill="#C9CACB" id="vVIIIn" d="M120 253c1.384 0 1.123-3.189 3.5-2 5.59 2.795 6.751 17.751-1 10l-3.5-6 1-2Z"/><path fill="#FF9B88" id="P" d="m316 251-1 1 1-1Z"/><path fill="#C9CACB" id="vVIIIn" d="M332 251c0 2.207-2.897 3.293-4 5.5l1 3.5-1 3.5c2.885 5.77 15.136-12.5 4-12.5Z"/><path fill="#FF9BCD" id="MY" d="m120 253-1 2 1-2Z"/><path fill="#FF9B88" id="P" d="m315 253-1 1 1-1ZM314 254l-1 1 1-1ZM146 256l1 1-1-1Z"/><path fill="#C8C8CB" id="rust" d="M163 262c0 5.147 1 9.79 1 15 0 2.363-2.815.342-3.5 0-3.14-1.57-4.051-3.601-5.5-6.5-2.104-4.208 8-14.898 8-8.5Z"/><path fill="#FF9B88" id="P" d="m230 263 3 1c0-1.041-.986-5-2-5l-1 4Z"/><path fill="#FEAE6E" id="SOCl" d="m181 277-3.5 3H168l-4-3c0-5.21-1-9.853-1-15l2.5-2c4.052-2.026 16.5 5.169 16.5 9l-1 8ZM292 277l-4 3h-8.5l-4.5-3-1-8v-1l1-1v-1c4.84 0 7.494-6 12.5-6 1.892 0 5.5.32 5.5 3 0 1.804 2.182 5.136 1 7.5l-2 6.5Z"/><path fill="#C8C8CB" id="rust" d="M299 275c-.338 0-7 5.929-7 2l2-6.5c1.182-2.364-1-5.696-1-7.5l2.5-3c5.15 0 5.5 9.801 5.5 13l-2 2Z"/><path fill="#FF9BCD" id="MY" d="m221 267 5 1v-5l-3 1-1 1-1 1v1ZM237 270h3l-2-1-1-1-1-1-1-1-1-1-1-1-3-1v6c1.317 0 1.788-3.356 4.5-2l1 2 1.5 1Z"/><path fill="#FEB0D8" id="GRN" d="m223 264-1 1 1-1ZM233 264l1 1-1-1ZM222 265l-1 1 1-1ZM235 266l1 1-1-1Z"/><path fill="#FF9B88" id="P" d="m220 267-1 1 1-1Z"/><path fill="#FF9BCD" id="MY" d="M219 269h1l1-2h-1l-1 1v1Z"/><path fill="#CACCC8" id="ml" d="m219 270-2 5.5c2.149 4.298 9 1.619 9-4.5v-3l-5-1-1 2-1 1ZM237 270l2 5.5c-1.456 2.911-9 1.481-9-1.5v-5c1.317 0 1.788-3.356 4.5-2l1 2 1.5 1Z"/><path fill="#FF9B88" id="P" d="m275 267-1 1 1-1Z"/><path fill="#FFAD6E" id="SOCm" d="M193 281h2l1-4-1-4c-3.678 0-7.612-5-12-5l-1 1-1 8c4.098 0 6.986 4 12 4Z"/><path fill="#FF9B88" id="P" d="M218 269h1v-1l-1 1ZM237 268l1 1-1-1Z"/><path fill="#FFAD6E" id="SOCm" d="m261 280 2 1c5.245 0 9.121-4 12-4l-1-8-1-1c-4.391 0-8.074 5-12 5l-1 3v1l1 2v1Z"/><path fill="#FF9B88" id="P" d="M274 268v1l-1-1h1ZM216 270h1v-1l-1 1Z"/><path fill="#FF9BCD" id="MY" d="M217 270h2v-1h-2v1Z"/><path fill="#CCC7CB" id="tb" d="m220 269-1 1v-1h1ZM235 288h1l-5-6.5c0-4.979 12.207-1.5 14-1.5l2-2-2-1.5c-2.669-5.339 7.473-2.5 10-2.5 0-3.104-11.969-4-15-4h-3l2 5.5c-1.456 2.911-9 1.481-9-1.5-3.236 0-2.46-3-4-3 0 6.119-6.851 8.798-9 4.5l2-5.5h-3c-1.789 0-14 1.224-14 3v1c1.649 0 10-2.291 10 .5l-2 3.5 1 2c2.77 0 12.101-3.297 14 .5 1.182 2.363-3 4.392-3 6.5 2.47 0 4.552-2 6.5-2l6.5 3Z"/><path fill="#CBC7CC" id="sctv" d="M163 281c-3.652 0-5.223-6.361-8.5-8-1.023-.512-4.5-.933-4.5 1.5 0 2.345 12.63 9.565 14.5 10.5.945.472 3.5.156 3.5-1l-5-3ZM288 285h4l4-2h1l1-1 1-1h1l1-1 1-1 1-1 2-1c0-4.735 1.013-4-4-4 0 1.747-.253 2-2 2 0 1.668-3.099 6-5 6-1.624 0-2.75 2-5 2l-1 2Z"/><path fill="#FF9B88" id="P" d="M196 277h1v-1l1-1 1-1-4-1 1 4ZM201 274h1v-1l-1 1Z"/><path fill="#FEA3D2" id="NTB" d="M197 277c0 9.984 8.581 1 13 1l2-3.5c0-2.791-8.351-.5-10-.5h-3l-1 1-1 1v1ZM260 278v1c0 6.82-11.454-1-13-1l-2-1.5c-2.669-5.339 7.473-2.5 10-2.5h2l2 2 1 2Z"/><path fill="#FF9B88" id="P" d="M259 276h1l1-3-4 1 2 2ZM301 273l-2 2c1.747 0 2-.253 2-2Z"/><path fill="#FF9BCD" id="MY" d="m198 275-1 1 1-1Z"/><path fill="#FF9B88" id="P" d="M287 283h2c0-1.307 5-5.769 5-2 1.901 0 5-4.332 5-6-.338 0-7 5.929-7 2l-4 3c2.276 0-1 2.078-1 3Z"/><path fill="#FF9BCD" id="MY" d="M260 277v1l-1-2h1v1Z"/><path fill="#FEAD6F" id="POR" d="M192 285h1v-4c-5.014 0-7.902-4-12-4l-3.5 3H168c-2.605 0 2 2.524 2 3h1l2 1h1l2 1h16Z"/><path fill="#FF9BCD" id="MY" d="M207 282c-4.268 0-8.136 3-12 3v-4l1-4h1c0 9.984 8.581 1 13 1l1 2-4 2Z"/><path fill="#FF9B88" id="P" d="M260 279h1l-1-2v2Z"/><path fill="#FEAD6F" id="POR" d="M271 285h9l2-1h1l2-1h2c0-.922 3.276-3 1-3h-8.5l-4.5-3c-2.879 0-6.755 4-12 4v4h8Z"/><path fill="#FF9B88" id="P" d="m305 277-2 1 2-1Z"/><path fill="#FF9BCD" id="MY" d="M249 282c4.553 0 8.75 3 13 3l-1-5v-1h-1c0 6.82-11.454-1-13-1l-2 2 4 2Z"/><path fill="#FF9B88" id="P" d="m303 278-1 1 1-1Z"/><path fill="#CCC7CB" id="tb" d="M173 284h1c0 2.726-5.294 0-6 0l-5-3c0-3.601 2.849 2 7 2h1l2 1Z"/><path fill="#C7C9C9" id="py" d="M212 289h6c0-1.473 1.952-1 3-1l1-1c0-2.108 4.182-4.137 3-6.5-1.899-3.797-11.23-.5-14-.5l-4 2c0 1.007-2 1.422-2 5 1.296 0 7 .825 7 2ZM239 289h6c0-1.663 5.407-2 7-2 0-4.21-3-4.227-3-5l-4-2c-1.793 0-14-3.479-14 1.5l5 6.5c1.048 0 3-.473 3 1Z"/><path fill="#CCC7CB" id="tb" d="M294 281c-1.624 0-2.75 2-5 2 0-1.307 5-5.769 5-2Z"/><path fill="#FF9B88" id="P" d="m302 279-1 1 1-1ZM262 285h1v-4l-2-1 1 5ZM301 280l-1 1 1-1ZM193 285h2v-4h-2v4ZM299 281l-1 1 1-1Z"/><path fill="#CCC7CB" id="tb" d="M193 287h12c0-3.578 2-3.993 2-5-4.268 0-8.136 3-12 3h-3c0 1.587-6 1.587-6 0h-10c-2.271 0 3.521 1 5 1l12 1ZM252 287h11l8-.5c0-1.591-6 .858-6-1.5h-3c-4.25 0-8.447-3-13-3 0 .773 3 .79 3 5Z"/><path fill="#FF9B88" id="P" d="m298 282-1 1 1-1ZM171 283l2 1-2-1ZM285 283l-2 1 2-1Z"/><path fill="#CCC7CB" id="tb" d="M282 284h1l2-1h4l-1 2c-1.321 0-6 .684-6-1Z"/><path fill="#FF9B88" id="P" d="m296 283-4 2c1.465 0 4 .109 4-2ZM263 287v1l22-1c1.774 0 7 .273 7-2h-4c-1.321 0-6 .684-6-1l-2 1c2.459 0-9 2.848-9 0h-6c0 2.358 6-.091 6 1.5l-8 .5ZM186 285h6c0 1.587-6 1.587-6 0Z"/><path fill="#CCC7CB" id="tb" d="M271 285h9c2.459 0-9 2.848-9 0Z"/><path fill="#FF9BCD" id="MY" d="m193 288 19 1c0-1.175-5.704-2-7-2h-12v1Z"/><path fill="#CCC7CB" id="tb" d="m222 287-1 1 1-1Z"/><path fill="#FF9BCD" id="MY" d="m263 288-18 1c0-1.663 5.407-2 7-2h11v1ZM221 288c-1.048 0-3-.473-3 1 1.048 0 3 .473 3-1ZM236 288c1.048 0 3-.473 3 1-1.145 0-4 .579-4-1h1Z"/></svg>