<svg xmlns="http://www.w3.org/2000/svg" viewBox="0 0 456 320"><path fill="#FCFB90" id="CUL4, 5" d="M160 130c26.645 0 16.182-25.863 24-41.5 4.647-9.293 16.672-11.086 23.5-14.5h8c.779-.39 20.124-2.438 21-2 10.68 5.34 28.339 2.178 35.5 16.5 4.55 9.1 2.485 24.969 6 32l9.5 8.5h5l4.5 2c0-9.792-.988-33.477-5-41.5L283 72c-8.587 0-8-17.407-8-23 0-6.796-11.548-8.024-15.5-10-12.156-6.078-31.797 2.101-40-2-4.894-2.447-17.351-1.325-22 1l-14 7-2.5 4c0 4.848 2.271 22-7 22l-1 2c0 2.066-8.484 17.469-10 20.5-2.5 5-3 29.529-3 36.5Z"/><path fill="#FDFB8F" id="SIM" d="M139 105c2.441 0 4.173-6.845 5-8.5 2.632-5.263 4.384-10.768 7-16l2-13c.742-1.483 7.104-7.198 8.5-6.5.429.214-5.745 9.99-6.5 11.5v4c-4.905 9.81-6.117 21.233-11 31-2.719 5.439 1.57 19.035 6.5 21.5.874.437 9.5 4.104 9.5 1 0-6.971.5-31.5 3-36.5 1.516-3.031 10-18.434 10-20.5l1-2c0-6 1-12.475 1-19-2.091 0-8.363-3.932-10.5-5-1.61-.805-8.48 2.24-10 3-7.605 3.803-23.5 7.702-23.5 19 1.504 0 4 5.699 4 7l2 23.5 2 5.5ZM318 107l-4-7.5c-3.448-6.897-5.605-14.21-9-21l-1-9-8.5-8.5c-1.954.977 1.112 2.725 1.5 3.5 1.819 3.638 3.212 7.424 5 11l4 14c6.037 12.074 12.82 41.5-9 41.5 0-9.792-.988-33.477-5-41.5L283 72c0-2.654-.888-5.275-2-7.5-1.695-3.39 1-9.589 1-12.5 0-1.282 9.185-6.157 11.5-5 8.011 4.006 32.5 9.363 32.5 22-2.776 0-4.136 5.771-5 7.5-.479.958-3 28.109-3 30.5Z"/><path fill="#FEFA90" id="DEC" d="M175 52c0 6.525-1 13-1 19 9.271 0 7-17.152 7-22l-6 3ZM282 52c0 2.911-2.695 9.11-1 12.5 1.112 2.225 2 4.846 2 7.5-8.587 0-8-17.407-8-23 2.232 0 4.029 3 7 3Z"/><path fill="#CBC9CC" id="arb" fill-rule="evenodd" d="m209 143 .5 8c2.249 1.125 12.783-2.892 15-4 4.083-2.042 20.178 4.911 22 4v-8c-3.5-1.75-8.7 2-12.5 2h-10.5c-5.447 0-8.862-2-14.5-2m-84 57v1c-3.736 0 2-9.199 2-10 2.814 0 4.93-13.359 6-15.5 6.36-12.719-7.78-18.5-18-18.5-6.55 0-12.046 3.273-17.5 6l-6 6c-.944 0 6.747-12 3.5-12 0-3.805-10.19-4.845-12.5-6l-3.5-3.5 2.5-.5c3.74 1.87 7.399 3.199 11 5 4.897 2.448 24.863-3.932 29-6 1.544-.772 7.5-2.732 7.5-5 8.339 0 6.176-17.148 4-21.5l-9-11 2 2 3.5 1.5c2.763 1.381 9.5-4.036 9.5-7 2.441 0 4.173-6.845 5-8.5 2.632-5.263 4.384-10.768 7-16l2-13c.742-1.483 7.104-7.198 8.5-6.5.429.214-5.745 9.99-6.5 11.5v4c-4.905 9.81-6.117 21.233-11 31-2.719 5.439 1.57 19.035 6.5 21.5.874.437 9.5 4.104 9.5 1 26.645 0 16.182-25.863 24-41.5 4.647-9.293 16.672-11.086 23.5-14.5h8c.779-.39 20.124-2.438 21-2 10.68 5.34 28.339 2.178 35.5 16.5 4.55 9.1 2.485 24.969 6 32l9.5 8.5h5l4.5 2c21.82 0 15.037-29.426 9-41.5l-4-14c-1.788-3.576-3.181-7.362-5-11-.388-.775-3.454-2.523-1.5-3.5l8.5 8.5 1 9c3.395 6.79 5.552 14.103 9 21l4 7.5c0 1.838 6.67 5.915 8.5 5l4.5-1.5-8 10c-2.286 4.572-2.861 20.5 5 20.5 0 4.966 30.602 13.449 35.5 11 1.532-.766 13.416-4.668 13.5-4.5 2.127 4.254-16 5.205-16 9.5 0 5.1 5 8.243 5 12.5l-5.5-5.5c-6.49-3.245-11.617-7-19.5-7-6.882 0-12.534 4-16 4 0-25.875-9.009-8.254-24.5-16h-5c-2.556-1.278-11.094-8.453-14-7-3.207 1.604-.5 4.164-.5 6l-6 1v-5.5c-2.668-5.336-22.402 1.803-25 7-5.02 10.04 16 11.969 16 14.5-8.734 0-16.628-9-25-9 0-3.741-16.966-2-19.5-2-1.147 0-6.5.957-6.5 2-5.04 0-8.556 5-14 5 0-4.883 9.41-2.679 4-13.5-1.27-2.541-19.546-6.977-22.5-5.5-2.315 1.157-1.5 4.849-1.5 7l-5-1c0-2.312 2.252-4.124-1.5-6-4.213-2.107-6.625 4.813-9 6-4.124 2.062-10.026 1.513-15 4-6.367 3.184-14.51-7.48-19.5 2.5-3.342 6.684 4.129 11.258 6 15 2.486 4.972 0 7.255 0 12l2 3.5c-4.831 0-13 13.105-13 17l-1 2m102-57h3c7.765 0 13.083-4.791 19.5-8 19.272-9.636 28.06-24.38 17.5-45.5-3.978-7.957-16.976-8.238-23.5-11.5-3.609-1.805-7.513 1.743-13-1-3.057-1.528-6.516 2-9.5 2-15.183 0-28.392 3.284-36 18.5v7.5c0 4.511.129 9.758 2 13.5 5.336 10.672 28.337 24.5 40 24.5Z"/><path fill="#FCFC90" id="ANcr1" fill-rule="evenodd" d="M119 98c0 1.689 4.476 9.549 5 8.5.308-.617-4.067-8.5-5-8.5m-1-10-3 3.5c-1.052 2.105 1.368 2.934 2.5 3.5l1 2c.59 0 1.354-9-.5-9m1-3c0 3.746 2.091 0 0 0m-42 28c4.925 0 14.56-.38 17 4.5 2.27 4.54 3.174 14.837 8.5 17.5 6.842 3.421 18.573 6 26.5 6 8.339 0 6.176-17.148 4-21.5l-9-11 2 2 3.5 1.5c2.763 1.381 9.5-4.036 9.5-7l-2-5.5-2-23.5c0-1.301-2.496-7-4-7-3.948 0-8.405-2.047-12.5 0C107.633 74.434 77 99.616 77 113ZM331 109c0 1.93 1.93 0 0 0m1-2c0 3.746 2.091 0 0 0m2-4-1 1.5c-2.614 5.228 4.965-1.5 1-1.5m1-2c0 3.746 2.091 0 0 0m1-2c0 3.746 2.091 0 0 0m1-12 1 7c0 .088-2.236 4-.5 4 3.47 0 4.963-11-.5-11m42 26c-6.075 0-14.841.182-18 6.5-2.541 5.082-1.98 13.24-8.5 16.5-5.695 2.848-18.065 5-24.5 5-7.861 0-7.286-15.928-5-20.5l8-10-4.5 1.5c-1.83.915-8.5-3.162-8.5-5 0-2.391 2.521-29.542 3-30.5.864-1.729 2.224-7.5 5-7.5 2.014 0 5.932-2.284 8.5-1 9.184 4.592 26.567 14.633 31.5 24.5 4.253 8.505 13 9.998 13 20.5Z"/><path fill="#FEFA90" id="DEC" d="m174 71-1 2 1-2Z"/><path fill="#FCFB90" id="CUL4, 5" d="M227 143c-11.663 0-34.664-13.828-40-24.5-1.871-3.742-2-8.989-2-13.5v-7.5c7.608-15.216 20.817-18.5 36-18.5 2.984 0 6.443-3.528 9.5-2 5.487 2.743 9.391-.805 13 1 6.524 3.262 19.522 3.543 23.5 11.5 10.56 21.12 1.772 35.864-17.5 45.5-6.417 3.209-11.735 8-19.5 8 0-9.176-3-11.083-3 0Z"/><path fill="#CBC9CC" id="arb" d="M119 85c0 3.746 2.091 0 0 0ZM337 87l1 7c0 .088-2.236 4-.5 4 3.47 0 4.963-11-.5-11ZM118 88l-3 3.5c-1.052 2.105 1.368 2.934 2.5 3.5l1 2c.59 0 1.354-9-.5-9ZM119 98c0 1.689 4.476 9.549 5 8.5.308-.617-4.067-8.5-5-8.5ZM336 99c0 3.746 2.091 0 0 0ZM335 101c0 3.746 2.091 0 0 0ZM334 103l-1 1.5c-2.614 5.228 4.965-1.5 1-1.5Z"/><path fill="#CBC9CC" id="arb" d="M332 107c0 3.746 2.091 0 0 0ZM331 109c0 1.93 1.93 0 0 0Z"/><path fill="#FCFA91" id="ANcr2" d="M95 157c-4.97 0-17.571 10-19 10-.402 0-3.43-2.465-4.5-3-14.168-7.084-7.983-30.534-2.5-41.5.952-1.904 5.993-9.5 8-9.5 4.925 0 14.56-.38 17 4.5 2.27 4.54 3.174 14.837 8.5 17.5 6.842 3.421 18.573 6 26.5 6 0 2.268-5.956 4.228-7.5 5-4.137 2.068-24.103 8.448-29 6-3.601-1.801-7.26-3.13-11-5l-2.5.5 3.5 3.5c2.31 1.155 12.5 2.195 12.5 6ZM361 157c6.787 0 15.482 10 20 10 0-.378 8.573-5.645 10-8.5 5.8-11.601.98-27.04-4-37l-8-8.5c-6.075 0-14.841.182-18 6.5-2.541 5.082-1.98 13.24-8.5 16.5-5.695 2.848-18.065 5-24.5 5 0 4.966 30.602 13.449 35.5 11 1.532-.766 13.416-4.668 13.5-4.5 2.127 4.254-16 5.205-16 9.5Z"/><path fill="#FFFC8E" id="CENT3" d="M227 143h3c0-9.176-3-11.083-3 0Z"/><path fill="#FFFDBC" id="IP" d="M139 181h2l1-1 4-1 1-1 4-2 1-1 9-4 1-1 3-2.5c3.875-7.75-3.605-8.5 10-8.5 0-3.942 2-6.745 2-10-2.641 0-2-1.823-2-4l1-1c0-2.312 2.252-4.124-1.5-6-4.213-2.107-6.625 4.813-9 6-4.124 2.062-10.026 1.513-15 4-6.367 3.184-14.51-7.48-19.5 2.5-3.342 6.684 4.129 11.258 6 15 2.486 4.972 0 7.255 0 12l2 3.5Z"/><path fill="#FFFCBC" id="FN" d="M189 161h1c0-1.638 3.576-2 5-2h1c0-1.638 3.576-2 5-2 0-4.883 9.41-2.679 4-13.5-1.27-2.541-19.546-6.977-22.5-5.5-2.315 1.157-1.5 4.849-1.5 7 0 2.231 2.386 6.728 1 9.5-3.368 6.736.278 6.5 6 6.5h1ZM267 161h1c6.47 0 9.677-.146 6-7.5l1-8.5v-5.5c-2.668-5.336-22.402 1.803-25 7-5.02 10.04 16 11.969 16 14.5h1Z"/><path fill="#FFFDBC" id="IP" d="M316 181h1l1-1c1.156 0 1.472-2.555 1-3.5-2.157-4.314.324-15.5 6-15.5 0-25.875-9.009-8.254-24.5-16h-5c-2.556-1.278-11.094-8.453-14-7-3.207 1.604-.5 4.164-.5 6 0 2.124-1 4.436-1 6 0 2.389 1 5.987 1 9 14.055 0 7.201.902 11 8.5l4 3.5 12 6 1 1 3 1 1 1h2l1 1Z"/><path fill="#CBC8CA" id="cbc" d="m209 143 .5 8c2.249 1.125 12.783-2.892 15-4 4.083-2.042 20.178 4.911 22 4v-8c-3.5-1.75-8.7 2-12.5 2h-10.5c-5.447 0-8.862-2-14.5-2Z"/><path fill="#CBC9CC" id="arb" d="m176 144-1 1 1-1Z"/><path fill="#F0F080" id="CB" d="m175 168-13 2 3-2.5c3.875-7.75-3.605-8.5 10-8.5 7.118 0 3.774-10 2-10-2.641 0-2-1.823-2-4l1-1 5 1c0 2.231 2.386 6.728 1 9.5-3.368 6.736.278 6.5 6 6.5v1l-13 6ZM281 168c5.262 0 10.206 3 15 3l-4-3.5c-3.799-7.598 3.055-8.5-11-8.5-5.673 0-5.081-9-1-9 0-1.564 1-3.876 1-6l-6 1-1 8.5c3.677 7.354.47 7.5-6 7.5v1l13 6Z"/><path fill="#FEB1D8" id="ICB" d="M177 149c1.774 0 5.118 10-2 10 0-3.942 2-6.745 2-10Z"/><path fill="#FEFA91" id="LING" d="M215 152h26c0-3.741-16.966-2-19.5-2-1.147 0-6.5.957-6.5 2Z"/><path fill="#FEB1D8" id="ICB" d="M280 150c-4.081 0-4.673 9 1 9 0-3.013-1-6.611-1-9Z"/><path fill="#FDFC8F" id="NOD" d="M237 183h2c0-1.758 7.103-2.301 8.5-3 7.088-3.544 13.921-5 22.5-5h2l1-1h2c0-3.93 6 3.784 6-6l-13-6-1-1h-1c-8.734 0-16.628-9-25-9h-26c-5.04 0-8.556 5-14 5 0 1.638-3.576 2-5 2h-1c0 1.638-3.576 2-5 2l-1 1h-1l-13 6c0 4.49 3.785 6 8 6l2 1h1c8.639 0 16.34 1.42 23.5 5 1.242.621 7.5 1.639 7.5 3h20Z"/><path fill="#FFFB8E" id="PRM" d="M110 174c-4.693 0-7 18.29-7 21-2.126 0-8.815 2.342-11.5 1-10.84-5.42-15.5-18.463-15.5-29 1.429 0 14.03-10 19-10 3.247 0-4.444 12-3.5 12l6-6c5.454-2.727 10.95-6 17.5-6l-5 17Z"/><path fill="#FFF990" id="COPY" d="M110 174c2.585 0 17 14.723 17 17 2.814 0 4.93-13.359 6-15.5 6.36-12.719-7.78-18.5-18-18.5l-5 17Z"/><path fill="#CBC9CC" id="arb" d="M201 157c-1.424 0-5 .362-5 2 1.424 0 5-.362 5-2Z"/><path fill="#FFF990" id="COPY" d="M347 174c-5.958 0-15.235 16-18 16-2.203 0-2.344-4.189-3-5.5-2.489-4.978-5.886-13.228-3-19l2-4.5c3.466 0 9.118-4 16-4 0 5.339 6 11.767 6 17Z"/><path fill="#FFFB8E" id="PRM" d="M347 174c0 2.656 7 13.127 7 21 2.023 0 8.535 2.482 11.5 1 9.302-4.651 15.5-18.637 15.5-29-4.518 0-13.213-10-20-10 0 5.1 5 8.243 5 12.5l-5.5-5.5c-6.49-3.245-11.617-7-19.5-7 0 5.339 6 11.767 6 17Z"/><path fill="#CBC9CC" id="arb" d="M195 159c-1.424 0-5 .362-5 2 1.424 0 5-.362 5-2ZM188 162h1v-1h-1v1Z"/><path fill="#F0F080" id="CB" d="m190 161-1 1v-1h1Z"/><path fill="#CBC9CC" id="arb" d="M268 161v1l-1-1h1ZM331 200l1 1c2.841 0-3-9.859-3-11-2.203 0-2.344-4.189-3-5.5-2.489-4.978-5.886-13.228-3-19l2-4.5c-5.676 0-8.157 11.186-6 15.5.472.945.156 3.5-1 3.5v1c0 .147 12 11.498 12 17l1 1v1Z"/><path fill="#A9AAA7" id="V4r" fill-rule="evenodd" d="m123 215-4 4.5c-.897 1.794.338 4.676 1 6 .736 1.473-.385 4.557 1.5 5.5 1.538.769 3.871-1.242 4.5-2.5 2.755-5.51 5.849-13.5-3-13.5m-1 27h2c0-5.023 4-9.607 4-14l1-1v-2l1-1v-1l1-1v-1l2-10c-1.867 0-3.227 1.137-5.5 0-4.68-2.34 4.626-23.813 9-26 4.016-2.008 13.565-6.717 19-4l2.5 2c.759 0 7-1.318 7-2-14.539 0-10.129-5.186-.5-10l18.5 4v-1c-4.215 0-8-1.51-8-6l-13 2-1 1-9 4-1 1-4 2-1 1-4 1-1 1h-2c-4.831 0-13 13.105-13 17l-1 2v1c0 2.591-4.209 14-7 14l-1 3 2 16.5c1.035 2.069 3 5.13 3 7.5ZM329 215c0 .979-1 2.61-1 6 0 2.706 3.453 12.023 7.5 10 2.95-1.475 3.704-16-6.5-16m6 26-2 1-4-13-1-1-1-3-4-14c1.867 0 3.227 1.137 5.5 0 6.082-3.041-5.245-24.623-10-27l-8-3c-1.899-.949-11.5-.511-11.5 2-.969 0-7-1.147-7-2 15.244 0 7.872-5.814-.5-10-.785-.393-13.293 3-16.5 3 0-3.93 6 3.784 6-6 5.262 0 10.206 3 15 3l12 6 1 1 3 1 1 1h2l1 1h2c0 .147 12 11.498 12 17l1 1v2c0 2.635 4.332 14 8 14 0 1.048-.473 3 1 3 0 7.759-5 15.596-5 23Z"/><path fill="#F0F080" id="CB" d="m162 170-1 1 1-1Z"/><path fill="#A9AAA8" id="chpl" d="M165 181h3c0-1.579 2.855-1 4-1h1c0-2.342 7.951-2 10-2 3.393 0 3-1.197 3-3h-3l-18.5-4c-9.629 4.814-14.039 10 .5 10ZM289 181h3c15.244 0 7.872-5.814-.5-10-.785-.393-13.293 3-16.5 3l-2 1h-3c0 1.477-.095 3 3 3 2.072 0 11-.076 11 2h1c1.145 0 4-.579 4 1Z"/><path fill="#FFFC8D" id="PFL" d="m113 214 5 1c2.791 0 7-11.409 7-14-3.736 0 2-9.199 2-10 0-2.277-14.415-17-17-17-4.693 0-7 18.29-7 21 0 7.415 10 12.092 10 19Z"/><path fill="#AAA9A7" id="V4" d="M183 175h2l-2-1v1ZM272 175h1v-1l-1 1Z"/><path fill="#A9AAA7" id="V4r" d="m275 174-2 1v-1h2Z"/><path fill="#FFFC8D" id="PFL" d="M339 215h3l1-1c0-4.688 11-13.142 11-19 0-7.873-7-18.344-7-21-5.958 0-15.235 16-18 16 0 1.141 5.841 11 3 11h-1c0 2.635 4.332 14 8 14Z"/><path fill="#F0F080" id="CB" d="m152 175-1 1 1-1Z"/><path fill="#AAA9A7" id="V4" d="m218 194 3 2c0-3.42-11.494-13-4-13 0-1.361-6.258-2.379-7.5-3-7.16-3.58-14.861-5-23.5-5 0 1.803.393 3-3 3v1h4l2 1c10.193 0 20.202-3.096 26 8.5l3 5.5ZM239 183c4.74 0 2 2.015 2 5l6.5-7c6.55-3.275 13.603-1 20.5-1l1-1h4v-1c-3.095 0-3-1.523-3-3-8.579 0-15.412 1.456-22.5 5-1.397.699-8.5 1.242-8.5 3Z"/><path fill="#F0F080" id="CB" d="m308 177 1 1-1-1ZM147 178l-1 1 1-1Z"/><path fill="#A9AAA7" id="V4r" d="M176 180h2c0-1.473 1.952-1 3-1h2v-1c-2.049 0-10-.342-10 2h3ZM281 180h3c0-2.076-8.928-2-11-2v1h2c1.145 0 4-.579 4 1h2Z"/><path fill="#FF9BCD" id="MY" d="M181 179c-1.048 0-3-.473-3 1 1.048 0 3 .473 3-1Z"/><path fill="#FEB1D9" id="SPIV" d="M184 206c-5.509 0-10.643 3-17 3-2.554 0-3.688-3-5-3 0-4.917 2.312-9-5-9v-8l15-8c1.145 0 4 .579 4-1h2c1.048 0 3 .473 3-1h6l1 1-1 16.5-3 9.5Z"/><path fill="#FF9BCD" id="MY" d="M188 180h1l-2-1 1 1Z"/><path fill="#FFB0D7" id="MV" d="m210 209-2.5 3-5.5-1-4.5-3c-2.694-1.347-10.573-2-13.5-2l3-9.5 1-16.5h1c10.193 0 20.202-3.096 26 8.5l3 5.5-3 3.5v3l-5 8.5ZM246 209l3.5 3 5.5-1c0-2.766 14.276-5 17-5v-1c0-6.404-4-15.536-4-25-6.897 0-13.95-2.275-20.5 1l-6.5 7c0 1.238-.423 3-2 3v3l7 15Z"/><path fill="#FF9BCD" id="MY" d="m269 179-1 1 1-1Z"/><path fill="#FEB1D9" id="SPIV" d="M294 206c0 1.803-3.592 3-5 3-2.972 0-16-1.641-16-3l-1-1c0-6.404-4-15.536-4-25l1-1h6c0 1.579 2.855 1 4 1h2c0 1.758 7.103 2.301 8.5 3 8.596 4.298 9.5 5.327 9.5 14-6.96 0-5 5.097-5 9Z"/><path fill="#FF9BCD" id="MY" d="M275 179c1.145 0 4-.579 4 1-1.145 0-4 .579-4-1Z"/><path fill="#F0F080" id="CB" d="m142 180-1 1 1-1Z"/><path fill="#A9AAA7" id="V4r" d="M168 181h4v-1c-1.145 0-4-.579-4 1Z"/><path fill="#FF9BCD" id="MY" d="M176 180c0 1.579-2.855 1-4 1v-1h4ZM315 215c0-5.423-7.726-7.952-10-12.5-7.146-14.293 6.853-7.293 10-1 2.051 4.101 6.744 15.744 9.5 18.5l2.5 5-4-14-4-4.5c-5.145-10.289-20-13.073-20-23.5-.969 0-7-1.147-7-2h-3c-1.145 0-4 .579-4-1h-4c0 1.758 7.103 2.301 8.5 3 8.596 4.298 9.5 5.327 9.5 14 0 .974 4.219 2.937 5 4.5 1.634 3.269-3 3.957-3 5.5 6.009 0 10.945 8 14 8Z"/><path fill="#A9AAA7" id="V4r" d="M285 180c1.145 0 4-.579 4 1-1.145 0-4 .579-4-1Z"/><path fill="#F0F080" id="CB" d="m315 180 1 1-1-1ZM317 181h1v-1l-1 1Z"/><path fill="#FEA5D1" id="DCO" d="m138 206-5 5c-1.867 0-3.227 1.137-5.5 0-4.68-2.34 4.626-23.813 9-26 4.016-2.008 13.565-6.717 19-4l2.5 2-1 6-8 6h-1l-1 1c-1.429 0-4 1.288-4 3-1.577 0-2 1.762-2 3l-1 1-1 2-1 1Z"/><path fill="#FF9BCD" id="MY" d="m158 183-1 6 15-8h-7c0 .682-6.241 2-7 2Z"/><path fill="#FEA5D1" id="DCO" d="M299 183c0 10.427 14.855 13.211 20 23.5l4 4.5c1.867 0 3.227 1.137 5.5 0 6.082-3.041-5.245-24.623-10-27l-8-3c-1.899-.949-11.5-.511-11.5 2Z"/><path fill="#A9AAA8" id="chpl" d="m233 200-1 1-5.5 1-5.5-5v-1c0-3.42-11.494-13-4-13h2c0 1.652 18 1.652 18 0h2c4.74 0 2 2.015 2 5-1.577 0-2 1.762-2 3-1.617 0-4 4.583-4 6l-2 2v1Z"/><path fill="#AAA9A7" id="V4" d="M219 183h18c0 1.652-18 1.652-18 0ZM241 188c-1.577 0-2 1.762-2 3 1.577 0 2-1.762 2-3Z"/><path fill="#FF9BCD" id="MY" d="m157 197-4 3c0-6.041 2.287-5-4-5l8-6v8Z"/><path fill="#AAA9A7" id="V4" d="m239 194-4 3c0-1.417 2.383-6 4-6v3Z"/><path fill="#C9C9C8" id="icp" d="M134 273c0-4.602 6.729 0 9 0l-4-3.5-8-10c-3.869-7.737 1.647-28.294 5-35 .83-1.659 2.926-9.5 5-9.5 0-4.767 6.344-6.188 8-9.5.606-1.212 2.24-5.5 4-5.5 0-6.041 2.287-5-4-5h-1l-1 1c0 1.712-2.571 3-4 3 0 1.238-.423 3-2 3l-1 1-1 2-1 1c0 1.987-5.29 15-7 15v1l-1 1v1l-1 1v2l-1 1c0 4.393-4 8.977-4 14 0 1.819-1 4.591-1 7v7c1.014 0 2 3.959 2 5v1l1 1v1l1 1v1c1.59 0 6 5.662 6 7h1Z"/><path fill="#FFB3D7" id="PRP" d="M233 211h12l1-2-7-15-4 3c0 1.747-.253 2-2 2v1l-1 1c0 8.075-11-.335-11-4v-1l-3-2-3 3.5v3l-5 8.5 2 2h11c2.194 0 4.269-2 5.5-2 1.125 0 2.557 2 4.5 2Z"/><path fill="#C9C9C8" id="icp" d="M323 272h1l1-1 1-1 1-1 1-2 1-1 1-1v-1l1-1v-1l1-2 1-2v-16l-4-13-1-1-1-3-2.5-5c-2.756-2.756-7.449-14.399-9.5-18.5-3.147-6.293-17.146-13.293-10 1 2.274 4.548 10 7.077 10 12.5 4.044 0 4.862 9.223 6 11.5 3.791 7.583 8.503 24.993 4 34L313 273c3.284 0 6.448-1 10-1Z"/><path fill="#FF9BCD" id="MY" d="m148 195-1 1 1-1ZM147 196c-1.429 0-4 1.288-4 3 1.429 0 4-1.288 4-3Z"/><path fill="#FFFC8D" id="PFL" d="M71 197c0 .73-6.026 3.551-7 5.5-2.843 5.685-3 10.55-3 17.5l1 18.5c0 15.003 12.423 22.038 25.5 15.5 5.083-2.542 6.358-11.217 8.5-15.5v-7c1.455-2.911 1-6.504 1-10 0-15.88-10.285-24.5-26-24.5Z"/><path fill="#FFB0D9" id="x" d="M153 200c0 9.471 2.513 6 9 6 0-4.917 2.312-9-5-9l-4 3Z"/><path fill="#AAA9A7" id="V4" d="m221 197 5.5 5 5.5-1c0 8.075-11-.335-11-4ZM235 197l-2 2c1.747 0 2-.253 2-2Z"/><path fill="#FFB0D9" id="x" d="M294 206c1.819 0 4.591 1 7 1 0-1.543 4.634-2.231 3-5.5-.781-1.563-5-3.526-5-4.5-6.96 0-5 5.097-5 9Z"/><path fill="#FFFC8D" id="PFL" d="M377 197c0 2.621-6.858 3.179-8.5 4-5.978 2.989-7.163 9.827-9.5 14.5-4.908 9.816 7.085 50.208 24.5 41.5l9.5-9.5c1.788-3.576 4.11-35.78 2-40-1.428-2.855-4.111-7.805-7.5-9.5-2.873-1.437-7.041-1-10.5-1Z"/><path fill="#F0F080" id="CB" d="m126 198-1 2 1-2Z"/><path fill="#FFFC8D" id="PFL" d="m330 198 1 1-1-1Z"/><path fill="#FF9BCD" id="MY" d="M143 199c-1.577 0-2 1.762-2 3 1.577 0 2-1.762 2-3ZM152 277h5c0-3.234 4-.959 4-4-1.747 0-2-.253-2-2-3.303 0-8 1.786-8-4-11.637 0-14-8.311-14-18.5v-7c6.048-12.097 9.642-26.5 27-26.5 0-3.067 3-4.726 3-6-2.554 0-3.688-3-5-3-6.487 0-9 3.471-9-6-1.76 0-3.394 4.288-4 5.5-1.656 3.312-8 4.733-8 9.5 3.355 0 8.987-10.256 13.5-8 4.351 2.176-8.595 13.595-10.5 15.5-5.538 5.538-5.714 14.429-9 21-3.881 7.762 3.237 20.369 9.5 23.5 1.242.621 8.152 5.197 7.5 6.5-1.019 2.039-4.082.5-6 .5v1c2.447 0 3.28 2 6 2Z"/><path fill="#AAA9A7" id="V4" d="m233 200-1 1 1-1Z"/><path fill="#F0F080" id="CB" d="M331 201h1l-1-1v1Z"/><path fill="#FF9BCD" id="MY" d="m141 202-1 1 1-1ZM140 203l-1 2 1-2ZM139 205l-1 1 1-1ZM272 206h1l-1-1v1ZM133 211l-2 10c1.71 0 7-13.013 7-15l-5 5Z"/><path fill="#FDA5D1" id="NTS" d="M191 217c-6.391 0-11.075 4-17 4-2.773 0-3.67-4-6-4h-1l-1-1-2-1c0-3.067 3-4.726 3-6 6.357 0 11.491-3 17-3 2.927 0 10.806.653 13.5 2l4.5 3c0 2.215-2 1.519-2 3-3.617 0-5.829 3-9 3ZM286 219c-1.24 0-1.576 2-4 2-5.761 0-10.717-4-17-4-2.626 0-5.457-3-9-3l-1-3c0-2.766 14.276-5 17-5h1c0 1.359 13.028 3 16 3 0 1.197 3 .827 3 6l-4 2-1 1-1 1Z"/><path fill="#FF9BCD" id="MY" d="M292 215c19.341 0 21.247 15.994 28 29.5l-1 14.5c1.951 0 .477-2.454 1-3.5 1.824-3.648 1.832-13.335 0-17l-9-18c-2.808-5.616-10-5.742-10-13.5-2.409 0-5.181-1-7-1 0 1.803-3.592 3-5 3 0 1.197 3 .827 3 6Z"/><path fill="#C8CACA" id="sptV" d="m144 273 2 1c1.918 0 4.981 1.539 6-.5.652-1.303-6.258-5.879-7.5-6.5-6.263-3.131-13.381-15.738-9.5-23.5 3.286-6.571 3.462-15.462 9-21 1.905-1.905 14.851-13.324 10.5-15.5-4.513-2.256-10.145 8-13.5 8-2.074 0-4.17 7.841-5 9.5-3.353 6.706-8.869 27.263-5 35l8 10 4 3.5h1ZM313 273l-2 1c-1.549 0-3.551 1-4.5 1-6.686 0 5.5-7.233 5.5-8 1.238 0 3-.423 3-2 1.712 0 3-2.571 3-4l1-2c1.951 0 .477-2.454 1-3.5 1.824-3.648 1.832-13.335 0-17l-9-18c-2.808-5.616-10-5.742-10-13.5 6.009 0 10.945 8 14 8 4.044 0 4.862 9.223 6 11.5 3.791 7.583 8.503 24.993 4 34L313 273Z"/><path fill="#FF9BCD" id="MY" d="M200 214c3.138 0 5.662 2 8 2 0-2.043 1.681-5 4-5l-2-2-2.5 3-5.5-1c0 2.215-2 1.519-2 3ZM228 235c0 2.212 1 2.212 1 0l.5-23c3.557-1.778 1.5 9.419 1.5 11l4-2-2-10c-1.943 0-3.375-2-4.5-2-1.231 0-3.306 2-5.5 2 0 4.287-1 6.359-1 10l3 1c0-1.926-1.509-11.504 1.5-10l1.5 23ZM256 214c-2.833 0-4.84 2-7 2-1.947 0-.719-5-4-5l1-2 3.5 3 5.5-1 1 3Z"/><path fill="#FCB3D8" id="PGRNd" d="M210 221h12c0-3.641 1-5.713 1-10h-11c-2.319 0-4 2.957-4 5l1 5h1ZM248 221l-1 1c-3.312 0-8.038-1-12-1l-2-10h12c3.281 0 2.053 5 4 5l-1 5Z"/><path fill="#CBCBCC" id="mlf" d="M225 222c0 2.363.116 13 3 13l-1.5-23c-3.009-1.504-1.5 8.074-1.5 10ZM231 223c0 2.264.627 12-2 12l.5-23c3.557-1.778 1.5 9.419 1.5 11Z"/><path fill="#F0F080" id="CB" d="m118 215-1 3c-1.366 0-4-2.366-4-4l5 1Z"/><path fill="#FFB2D8" id="IRN" d="M176 264c2.014 0 5.932-2.284 8.5-1 2.031 1.016 6.247 2 8.5 2 0-7.874 16-31.649 16-43v-1l-1-5c-2.338 0-4.862-2-8-2-3.617 0-5.829 3-9 3 0 9.935-19 32.732-19 41 2.393 0 3 3.234 3 5l1 1ZM281 264c-2.231 0-6.728-2.386-9.5-1-2.031 1.016-6.247 2-8.5 2 0-10.766-15-28.71-15-42v-2l1-5c2.16 0 4.167-2 7-2 3.543 0 6.374 3 9 3 0 8.388 20 34.551 20 41-2.307 0-4 2.879-4 5v1Z"/><path fill="#F0F080" id="CB" d="m343 214-1 1 1-1Z"/><path fill="#A9AAA8" id="chpl" d="m123 215-4 4.5c-.897 1.794.338 4.676 1 6 .736 1.473-.385 4.557 1.5 5.5 1.538.769 3.871-1.242 4.5-2.5 2.755-5.51 5.849-13.5-3-13.5Z"/><path fill="#FDA5D2" id="SPVI" d="M171 223c0 11.392-9.001 8.502-12 14.5-4.49 8.979-2.322 21.644-4 25l-4 4.5c-11.637 0-14-8.311-14-18.5v-7c6.048-12.097 9.642-26.5 27-26.5l2 1 1 1h1c0 2.079 3 3.187 3 6ZM306 267h6c0-1.577 1.762-2 3-2 0-1.429 1.288-4 3-4l1-2 1-14.5c-6.753-13.506-8.659-29.5-28-29.5l-4 2-1 1-1 1v4c0 11.156 9.477 10.454 14 19.5 2.092 4.184-1.002 24.5 6 24.5Z"/><path fill="#A9AAA8" id="chpl" d="M329 215c0 .979-1 2.61-1 6 0 2.706 3.453 12.023 7.5 10 2.95-1.475 3.704-16-6.5-16Z"/><path fill="#F0F080" id="CB" d="M342 215c0 1.238-.423 3-2 3-1.473 0-1-1.952-1-3h3Z"/><path fill="#FF9BCD" id="MY" d="m166 216 1 1-1-1ZM174 221l-3 2c0-2.813-3-3.921-3-6 2.33 0 3.227 4 6 4Z"/><path fill="#FCB3D9" id="PARN" d="M165 267c-1.178 0-6 2.572-6 4-3.303 0-8 1.786-8-4l4-4.5c1.678-3.356-.49-16.021 4-25 2.999-5.998 12-3.108 12-14.5l3-2c5.925 0 10.609-4 17-4 0 9.935-19 32.732-19 41l-1 1-3 5-1 1-1 1-1 1ZM306 267c0 5.367-6.263 4-9 4 0-1.579-6.722-6-8-6 0-2.83-4-4.54-4-7 0-6.449-20-32.612-20-41 6.283 0 11.239 4 17 4l4 2c0 11.156 9.477 10.454 14 19.5 2.092 4.184-1.002 24.5 6 24.5Z"/><path fill="#FF9BCD" id="MY" d="m288 217-1 1 1-1ZM287 218l-1 1 1-1ZM282 221l4 2v-4c-1.24 0-1.576 2-4 2ZM210 221l-1 1v-1h1Z"/><path fill="#FEB0D8" id="GRN" d="M255 278c.671 0 5 2.662 5 0 0-4.97-8.739-7.381.5-12l2.5-1c0-10.766-15-28.71-15-42l-1-1c-3.312 0-8.038-1-12-1l-4 2c0 2.264.627 12-2 12 0 2.212-1 2.212-1 0-2.884 0-3-10.637-3-13l-3-1h-12l-1 1c0 11.351-16 35.126-16 43 14.021 0 3 10.986 3 13h6c0-9.344 10.376-17 19-17 0-2.956 6-16.745 6-9l2-2c3.937 0 6 6.223 6 11 8.075 0 20 6.347 20 17Z"/><path fill="#FF9BCD" id="MY" d="m247 222 1 1v-2l-1 1ZM131 222l-1 1 1-1ZM130 224l-1 1 1-1ZM129 227l-1 1 1-1ZM328 228l1 1-1-1ZM333 242v13c.927 0 2-12.451 2-14l-2 1ZM124 242c0 1.819-1 4.591-1 7-1.714 0-1-5.594-1-7h2Z"/><path fill="#C8C8CC" id="tspc" d="M226 267c-1.624 0-2.75 2-5 2v-8c0-2.956 6-16.745 6-9v13l-1 2ZM230 266c1.353 0 2.158 3 5 3v-8c0-4.777-2.063-11-6-11 0 5.356 1 11.266 1 16Z"/><path fill="#FEC6E2" id="RO" d="M229 273v1l-2-1v-1l-1-5 1-2v-13l2-2c0 5.356 1 11.266 1 16v6l-1 1Z"/><path fill="#FF9BCD" id="MY" d="M123 256c1.014 0 2 3.959 2 5-1.638 0-2-3.576-2-5Z"/><path fill="#FFB2D8" id="IRN" d="m172 258-1 1 1-1Z"/><path fill="#FEB3D6" id="AMBd" d="M175 264c0 3.472-5.853 1-7 1v-1l3-5 1-1c2.393 0 3 3.234 3 5v1ZM282 265h7c0-2.83-4-4.54-4-7-2.307 0-4 2.879-4 5l1 2Z"/><path fill="#FF9BCD" id="MY" d="m333 258-1 2 1-2ZM319 259l-1 2 1-2Z"/><path fill="#FDB2D9" id="MARN" d="M221 269c0 8.598-13.646 9-19 9 0-9.344 10.376-17 19-17v8ZM235 269c0 4.822 8.656 8.078 12.5 10 2.364 1.182 5.696-1 7.5-1 0-10.653-11.925-17-20-17v8Z"/><path fill="#FF9BCD" id="MY" d="m332 260-1 2 1-2ZM318 261c-1.712 0-3 2.571-3 4 1.712 0 3-2.571 3-4ZM125 262l1 1-1-1ZM175 264h1l-1-1v1Z"/><path fill="#FCB2D9" id="PGRNl" d="M196 278c0 3.654-11.721 12.89-15.5 11l-6.5-4-3-2.5-6.5-9.5H161c-1.747 0-2-.253-2-2 0-1.428 4.822-4 6-4l1-1 1-1h1c1.147 0 7 2.472 7-1h1c2.014 0 5.932-2.284 8.5-1 2.031 1.016 6.247 2 8.5 2 14.021 0 3 10.986 3 13ZM260 278l11.5 11c4.293 2.146 7.321-4 10.5-4 6.716 0 6.298-12 13-12 1.747 0 2-.253 2-2 0-1.579-6.722-6-8-6h-7l-1-1c-2.231 0-6.728-2.386-9.5-1-2.031 1.016-6.247 2-8.5 2l-2.5 1c-9.239 4.619-.5 7.03-.5 12Z"/><path fill="#FF9BCD" id="MY" d="m281 264 1 1-1-2v1ZM331 263l-1 1 1-1ZM126 264l1 1-1-1ZM167 265h1v-1l-1 1ZM227 265l-1 2 1-2ZM315 265c-1.238 0-3 .423-3 2 1.238 0 3-.423 3-2ZM330 265l-1 1 1-1ZM127 266c1.59 0 6 5.662 6 7-1.59 0-6-5.662-6-7ZM166 266l-1 1 1-1ZM279 293c0 2.334-4.181 1.341-5.5 2-6.408 3.204-17.024 5-24.5 5l1-4.5-5-6.5 5.5 3-4-5c3.645-1.822 7.073 10 9 10 3.061 0 2.605-4.302 4-5 .159-.079 5.5 2.294 5.5.5l-5.5-3.5c-6.589-3.294-12.224-12-20-12l-2 4c-2.417 0-2.737-9-7.5-9v-6c1.353 0 2.158 3 5 3 0 4.822 8.656 8.078 12.5 10 2.364 1.182 5.696-1 7.5-1 .671 0 5 2.662 5 0l11.5 11c4.293 2.146 7.321-4 10.5-4 0 4.442 4.826 0 7 0 0 4.266-10 3.428-10 8Z"/><path fill="#FF9BCD" id="MY" fill-rule="evenodd" d="M206 291c0 1.93 1.93 0 0 0m3 0c0 1.009-2.421 5.343-3 6.5l2 2.5c-14.466 0-29.36-4.93-41.5-11-1.845-.922-12.5-4.086-12.5-6l2-1 2 1c0 2.453 2.947 1.447 4 2.5 2.645 2.645 11.793 7.5 15.5 7.5 1.663 0-.556-2.778-1-3l-4.5-1.5-4.5-2.5c-2.502-1.251-4.49-4-7.5-4v-2c3.368 0 14 11.118 14 5l6.5 4c3.779 1.89 15.5-7.346 15.5-11h6c5.354 0 19-.402 19-9 2.25 0 3.376-2 5-2l1 5c-2.959 0-4.69 1.88-6 4.5l-1.5 3.5-2-3c-7.301 0-12.435 7.217-18 10l-8.5 5.5c0 2.224 4.276-1.5 6.5-1.5l-.5 3.5 4.5 2.5c.878 0 3.153-7.077 5-8 1.687-.843-.113 2 2.5 2Z"/><path fill="#FF9BCD" id="MY" d="M299 277h6l6-3c-1.549 0-3.551 1-4.5 1-6.686 0 5.5-7.233 5.5-8h-6c0 5.367-6.263 4-9 4 0 1.747-.253 2-2 2 0 3.041 4 .766 4 4ZM328 267l-1 2 1-2ZM327 269l-1 1 1-1ZM326 270l-1 1 1-1Z"/><path fill="#C9CACA" id="sctd" d="M153 283h1l2-1c-3.419 0-4-3.274-4-5-2.72 0-3.553-2-6-2l-2-2h-1c-2.271 0-9-4.602-9 0l1 1 1 1h1l2 1 1 1h2l2 2h1c1.49 0 8 2.206 8 4ZM302 283h1l2-1 2-1c0-1.638 3.576-2 5-2l1-1h1l1-1h1l1-1h1l1-1h2l1-1 1-1v-1c-3.552 0-6.716 1-10 1l-2 1-6 3c0 2.405-1.319 5-4 5l1 1Z"/><path fill="#FF9BCD" id="MY" d="m325 271-1 1 1-1Z"/><path fill="#FFB3D8" id="IO" fill-rule="evenodd" d="M208 288c0 1.93 1.93 0 0 0m7-1c0 1.93 1.93 0 0 0m-6 0c0 1.93 1.93 0 0 0m2-1c0 1.93 1.93 0 0 0m10-3c0 2.091 3.746 0 0 0m-10 7-2 1c-2.613 0-.813-2.843-2.5-2-1.847.923-4.122 8-5 8l-4.5-2.5.5-3.5c-2.224 0-6.5 3.724-6.5 1.5l8.5-5.5c5.565-2.783 10.699-10 18-10l2 3 1.5-3.5c1.31-2.62 3.041-4.5 6-4.5v6l-1 1c-1.505 0-4.546 4 0 4l1 2-1 1-5.5 4c-2.205 1.102-7.5-3-7.5-1h-1l-1 1Z"/><path fill="#FF9BCD" id="MY" d="m230 272-1 1 1-1Z"/><path fill="#FFB3D8" id="IO" d="M243 289h2l5.5 3-4-5c3.645-1.822 7.073 10 9 10 3.061 0 2.605-4.302 4-5 .159-.079 5.5 2.294 5.5.5l-5.5-3.5c-6.589-3.294-12.224-12-20-12l-2 4c-2.417 0-2.737-9-7.5-9l-1 1v1l1 4 1 2c.156 0 9.174 3-1 3v3c1.887 0 6.043 4 11 4 0-4.989 2-2.904 2-1Z"/><path fill="#FF9BCD" id="MY" d="m324 272-1 1v-1h1Z"/><path fill="#C9C9C8" id="icp" d="M146 274v1l-2-2 2 1Z"/><path fill="#C8C8CB" id="rust" d="M160 280c3.368 0 14 11.118 14 5l-3-2.5-6.5-9.5H161c0 3.041-4 .766-4 4l3 3Z"/><path fill="#FF9BCD" id="MY" d="m227 277 3 1-1-4-2-1v4Z"/><path fill="#C8C8CB" id="rust" d="M289 285h1l1-1c0-1.533 3.753-4 5-4l3-3c0-3.234-4-.959-4-4-6.702 0-6.284 12-13 12 0 4.442 4.826 0 7 0Z"/><path fill="#C9C9C8" id="icp" d="m313 273-2 1 2-1Z"/><path fill="#FF9BCD" id="MY" d="m323 273-1 1 1-1ZM135 274l1 1-1-1ZM322 274l-1 1 1-1ZM139 276v1l-2-2 2 1Z"/><path fill="#C9C9C8" id="icp" d="M318 276h1v-1l-1 1Z"/><path fill="#FF9BCD" id="MY" d="m320 275-1 1v-1h1Z"/><path fill="#C9C9C8" id="icp" d="M139 277h1l-1-1v1Z"/><path fill="#FEB0D9" id="LRNp" d="m160 282-2 1-2-1c-3.419 0-4-3.274-4-5h5l3 3v2ZM300 282h1c2.681 0 4-2.595 4-5h-6l-3 3v2l3 1 1-1Z"/><path fill="#C9C9C8" id="icp" d="M316 277h1v-1l-1 1Z"/><path fill="#FF9BCD" id="MY" d="m319 276-2 1v-1h2ZM142 277l1 2-3-2h2Z"/><path fill="#C9C9C8" id="icp" d="M143 279h1l-2-2 1 2Z"/><path fill="#FFC6E2" id="RPA" d="M226 286c0 4.12 4 4.12 4 0v-1c-1.399 0-1.399-2 0-2l1-3-1-2-3-1v1l-1 1v4l1 2-1 1Z"/><path fill="#C9C9C8" id="icp" d="M314 278h1v-1l-1 1Z"/><path fill="#FF9BCD" id="MY" d="m316 277-1 1v-1h1ZM227 278l-1 1 1-1Z"/><path fill="#C9C9C8" id="icp" d="M312 279h1v-1l-1 1Z"/><path fill="#FF9BCD" id="MY" d="m315 278-2 1v-1h2ZM145 279c1.49 0 8 2.206 8 4l-8-4ZM226 279c-1.505 0-4.546 4 0 4v-4ZM312 279c-1.424 0-5 .362-5 2 1.424 0 5-.362 5-2ZM231 280c.156 0 9.174 3-1 3l1-3ZM296 282l-5 2c0-1.533 3.753-4 5-4v2ZM307 281l-2 1 2-1Z"/><path fill="#CBC7CC" id="sctv" d="M160 282c3.01 0 4.998 2.749 7.5 4l4.5 2.5 4.5 1.5c.444.222 2.663 3 1 3-3.707 0-12.855-4.855-15.5-7.5-1.053-1.053-4-.047-4-2.5l2-1ZM279 293h1c0-1.638 3.576-2 5-2l2-1 2-1 4-2 6-4-3-1-5 2-1 1h-1c0 4.266-10 3.428-10 8ZM300 282l-1 1 1-1Z"/><path fill="#FF9BCD" id="MY" d="M302 283c0 2.216-7.15 4-9 4l6-4 1-1h1l1 1ZM305 282l-2 1 2-1ZM221 283c0 2.091 3.746 0 0 0ZM230 283c-1.399 0-1.399 2 0 2v-2ZM291 284l-1 1 1-1ZM227 285l-1 1 1-1ZM211 286c0 1.93 1.93 0 0 0ZM219 299c3.658 0 9.028-7 9.5-7l1 3 8.5 4c0-1.918-5.287-2.927-4-5.5l7-3.5c-4.957 0-9.113-4-11-4 0 4.12-4 4.12-4 0l-5.5 4c-2.205 1.102-7.5-3-7.5-1 1.058 0 10.305 4.891 10 5.5l-4 4.5ZM209 287c0 1.93 1.93 0 0 0Z"/><path fill="#FF9BCD" id="MY" d="M215 287c0 1.93 1.93 0 0 0ZM243 289l-2 1c0-4.989 2-2.904 2-1ZM293 287l-4 2c1.465 0 4 .109 4-2ZM208 288c0 1.93 1.93 0 0 0ZM212 289l-1 1 1-1Z"/><path fill="#C7C9C9" id="py" d="M213 300h1c0-1.473 1.952-1 3-1h2l4-4.5c.305-.609-8.942-5.5-10-5.5h-1l-1 1-2 1c0 1.009-2.421 5.343-3 6.5l2 2.5h5ZM248 300h1l1-4.5-5-6.5h-2l-2 1-7 3.5c-1.287 2.573 4 3.582 4 5.5h2l8 1Z"/><path fill="#FF9BCD" id="MY" d="m289 289-2 1 2-1ZM211 290l-2 1 2-1ZM287 290l-2 1 2-1Z"/><path fill="#FFB3D8" id="IO" d="M206 291c0 1.93 1.93 0 0 0Z"/><path fill="#FF9BCD" id="MY" d="M285 291c-1.424 0-5 .362-5 2 1.424 0 5-.362 5-2ZM217 299c-1.048 0-3-.473-3 1 1.048 0 3 .473 3-1ZM240 299l8 1c0 2.362-8 .399-8-1ZM209 300h4c0 1.535-4 1.535-4 0Z"/></svg>