<svg xmlns="http://www.w3.org/2000/svg" viewBox="0 0 456 320"><path fill="#1BA696" id="RSPagl1" d="m188 14-14 3c0-1.564-1-3.876-1-6 5.473 0 8.789-2 14-2l1 5Z"/><path fill="#1BA598" id="RSPd1" d="M218 21h1l2-1c0-12.497-25.488-11-34-11l1 5c5.584 0 30-3.81 30 7ZM237 21h1l4.5-5 7-3c4.915-2.457 14.792 1 19.5 1V9c-11.675 0-21.589-1.91-30 6.5-1.035 1.035-3 1.428-3 3.5l1 2Z"/><path fill="#1BA696" id="RSPagl1" d="M269 15c5.28 0 8.97 2 14 2v-6c-5.366 0-8.763-2-14-2v6Z"/><path fill="#09848B" id="VISam1" d="M164 18h1c2.723 0 5.778-1 9-1 0-1.564-1-3.876-1-6-2.73 0-6.298 2-10 2l1 5ZM283 17l9 1 1-5c-3.77 0-7.021-2-10-2v6Z"/><path fill="#019FAC" id="VISa1" d="m116 27 2 6c2.422 0 5.361-2.93 7.5-4 6.919-3.46 30.738-11 38.5-11l-1-5c-4.491 0-33.36 7.93-37.5 10-3.036 1.518-5.877 4-9.5 4Z"/><path fill="#1BA697" id="RSPd2/3" d="M214 25h1l3-4c0-10.81-24.416-7-30-7v8c4.289 0 12.049-4.226 16.5-2 1.635.817 8.963 5 9.5 5ZM242 25h1c0-8.03 22.404-3 26-3v-8c-4.708 0-14.585-3.457-19.5-1l-7 3-4.5 5 4 4Z"/><path fill="#019FAC" id="VISa1" d="M338 33h1c0-1.424.362-5 2-5 0-2.378-11.54-4.02-13.5-5-7.871-3.936-25.538-10-34.5-10l-1 5c10.31 0 27.56 6.53 36.5 11 1.568.784 9.5 1.924 9.5 4Z"/><path fill="#1AA496" id="RSPagl2/3" d="m175 25 1 1 12-4v-8l-14 3 1 8ZM281 25v1l-12-4v-7c5.28 0 8.97 2 14 2 0 2.522-2 4.909-2 8Z"/><path fill="#0B848A" id="VISam2/3" d="m175 25-6 1c-1.778 0-4-6.332-4-8 2.723 0 5.778-1 9-1l1 8ZM281 25l6 1c1.522 0 5-6.857 5-8l-9-1c0 2.522-2 4.909-2 8Z"/><path fill="#009EAB" id="VISa2/3" d="m118 33 4 8c3.817 0 6.352-2.426 9.5-4 5.915-2.958 30.835-10 37.5-10v-1c-1.778 0-4-6.332-4-8h-1c-7.762 0-31.581 7.54-38.5 11-2.139 1.07-5.078 4-7.5 4ZM334 41h1l3-8c0-2.076-7.932-3.216-9.5-4-8.94-4.47-26.19-11-36.5-11 0 1.143-3.478 8-5 8v1c6.056 0 32.202 7.351 37.5 10l9.5 4Z"/><path fill="#1BA597" id="RSPv1" d="M230 64h2V31.5l5-10.5-1-2c-.414 0-6.733 7.965-7 8.5l-.5 2.5-7.5-10-2 1c0 3.033 4.566 9.633 6 12.5l-1 8c0 7.456 1 15.697 1 22.5h2c0-5.86 3-4.761 3 0Z"/><path fill="#1AA596" id="RSPd5" d="M207 33c-3.089 0-7.477-4.012-11.5-2l-7.5 3V22c4.289 0 12.049-4.226 16.5-2 1.635.817 8.963 5 9.5 5 0 1.826-5.631 8-7 8ZM249 35h1c0-9.277 15.969-1 19-1V22c-3.596 0-26-5.03-26 3 0 3.374 6 6.035 6 10Z"/><path fill="#1AA597" id="RSPv2/3" d="M221 63c0 1.58 2.855 1 4 1 0-6.803-1-15.044-1-22.5l1-8c-1.434-2.867-6-9.467-6-12.5h-1l-3 4 4 12.5v14c1.369 2.738 2 8.42 2 11.5ZM236 63c0 1.58-2.855 1-4 1V31.5l5-10.5h1l4 4c0 1.962-2.986 8.471-4 10.5L236 63Z"/><path fill="#1CA697" id="RSPagl5" d="M188 35c-4.196 0-7.152 4-11 4l-1-12v-1l12-4v13ZM269 35c3.541 0 6.145 3 10 3 .628 0 2-9.236 2-11v-1l-12-4v13Z"/><path fill="#09858A" id="VISam4" d="m175 27-6 2v-3l6-1 1 1-1 1Z"/><path fill="#1BA498" id="RSPv5" d="M217 63h4c0-3.08-.631-8.762-2-11.5v-14L215 25h-1c0 1.826-5.631 8-7 8v2c0 6.04 1.393 16.287 4 21.5l2 2.5 4 4ZM236 63h3l5-4 1-2c0-7.425 4-13.766 4-22 0-3.965-6-6.626-6-10h-1c0 1.962-2.986 8.471-4 10.5L236 63Z"/><path fill="#09858A" id="VISam4" d="M287 29h1l-1-2v-1l-6-1v2c2.72 0 3.553 2 6 2Z"/><path fill="#1AA496" id="RSPagl2/3" d="M175 27h1v-1l-1 1Z"/><path fill="#029FAB" id="VISrl1" d="m118 33-5 1c-1.916 0-.07-3-3-3 0-1.008 5.147-4 6-4l2 6Z"/><path fill="#019EAC" id="VISa4" d="M124 47h1c0-2.156 7.863-4.181 9.5-5 5.263-2.632 29.721-13 34.5-13v-2c-6.665 0-31.585 7.042-37.5 10-3.148 1.574-5.683 4-9.5 4l2 6Z"/><path fill="#0A848B" id="VISam5" d="M175 39h2l-1-12h-1l-6 2 5 10h1ZM282 39h1c0-4.116 4-6.343 4-10-2.447 0-3.28-2-6-2 0 1.764-1.372 11-2 11v1h3Z"/><path fill="#019EAC" id="VISa4" d="M331 47h1c0-1.974 2-3.517 2-6l-9.5-4c-5.298-2.649-31.444-10-37.5-10l1 2c4.555 0 28.393 10.446 33.5 13 1.871.935 9.5 2.07 9.5 5Z"/><path fill="#029FAB" id="VISrl1" d="m339 33 4 1 3-4-5-2c-1.638 0-2 3.576-2 5Z"/><path fill="#019EAB" id="VISa5" d="m127 52 2 2 10.5-5c5.052-2.526 29.188-10 34.5-10l-5-10c-4.779 0-29.237 10.368-34.5 13-1.637.819-9.5 2.844-9.5 5l2 5ZM327 55h1l3-5v-3c0-2.93-7.629-4.065-9.5-5-5.107-2.554-28.945-13-33.5-13h-1c0 3.657-4 5.884-4 10 5.67 0 28.961 8.23 34.5 11l9.5 5Z"/><path fill="#188060" id="SSp-bfd1" d="M390 67h1l2-4-10.5-10c-6.591-3.296-28.488-23-36.5-23l-3 4v1c6.351 0 35.243 17.985 38 23.5l9 8.5ZM65 67h1l10-9.5c6.286-6.286 28.92-22.5 37-22.5v-1c-1.916 0-.07-3-3-3-7.858 0-31.395 16.895-37.5 23L63 64c0 1.481 2 .785 2 3Z"/><path fill="#1AA697" id="RSPd6a" d="M189 45h11c0-1.546 5.451-10 7-10v-2c-3.089 0-7.477-4.012-11.5-2l-7.5 3v1l1 10ZM257 45h10l2-10v-1c-3.031 0-19-8.277-19 1 1.601 0 6 8.205 6 10h1Z"/><path fill="#029EAC" id="VISrl2/3" d="m122 41-3 1-6-7v-1l5-1 4 8ZM335 41l3 1 5-7v-1l-4-1h-1l-3 8Z"/><path fill="#187F63" id="SSp-bfd2/3" d="m66 67 7 7 10.5-11c9.155-4.578 24.244-20 35.5-20v-1l-6-7c-8.08 0-30.714 16.214-37 22.5L66 67Z"/><path fill="#1CA597" id="RSPagl6a" d="M178 46v1c4.078 0 7.622-2 11-2l-1-10c-4.196 0-7.152 4-11 4v6l1 1Z"/><path fill="#1AA498" id="RSPv6a" d="m209 56 4 3-2-2.5c-2.607-5.213-4-15.46-4-21.5-1.549 0-7 8.454-7 10v1c2.172 0 9 7.508 9 10ZM247 56l-2 1c0-7.425 4-13.766 4-22h1c1.601 0 6 8.205 6 10l-1 2c-1.811 0-4 3.438-4 5l-1 1-1 1-1 1-1 1Z"/><path fill="#1CA597" id="RSPagl6a" d="M267 45c3.843 0 7.451 2 12 2v-9c-3.855 0-6.459-3-10-3l-2 10Z"/><path fill="#187F63" id="SSp-bfd2/3" d="M383 75h1l6-8-9-8.5c-2.757-5.515-31.649-23.5-38-23.5l-5 7v1c7.996 0 29.782 15.282 36 21.5 2.366 2.366 9 6.514 9 10.5Z"/><path fill="#009DAC" id="VISa6a" d="M134 61h1c0-2.683 8.649-5.074 10.5-6 9.181-4.59 21.599-8 32.5-8v-1l-1-1v-1c-1.638 0-2-3.576-2-5h-1c-5.312 0-29.448 7.474-34.5 10L129 54v1c0 1.061 2.571 5 4 5l1 1Z"/><path fill="#0A828B" id="VISam6a" d="M177 39v5c-1.638 0-2-3.576-2-5h2ZM282 39c0 1.408-1.197 5-3 5v-5h3Z"/><path fill="#009DAC" id="VISa6a" d="M323 61h1l3-6-9.5-5c-5.539-2.77-28.83-11-34.5-11h-1c0 1.408-1.197 5-3 5v3c10.524 0 22.604 3.552 31.5 8 1.914.957 11.5 3.492 11.5 6h1Z"/><path fill="#019EAA" id="VISrl4" d="M123 47h1l-2-6-3 1v1l4 4ZM333 48h1l4-5v-1l-3-1h-1c0 2.483-2 4.026-2 6l1 1Z"/><path fill="#197C64" id="SSp-bfd4" d="m73 75 5 6c4.568 0 7.58-8.04 11.5-10 5.293-2.647 28.036-23 33.5-23v-1l-4-4c-11.256 0-26.345 15.422-35.5 20L73 74v1ZM383 75c0 1.334-2.972 6-4 6-3.526 0-4.6-4.55-7.5-6-8.447-4.223-18.285-15.642-27-20L334 48l4-5c7.996 0 29.782 15.282 36 21.5 2.366 2.366 9 6.514 9 10.5Z"/><path fill="#1BA698" id="RSPd6b" d="M199 46h1v-1h-11v2l3.5-2c2.161-1.08 4.894 1 6.5 1ZM257 46l7.5-1 2.5 2v-2h-10v1Z"/><path fill="#0A828B" id="VISam6a" d="m177 45 1 1-1-1Z"/><path fill="#1AA598" id="RSPagl6b" d="m189 47-11 2v-2c4.078 0 7.622-2 11-2v2Z"/><path fill="#CACCC7" id="cing" d="m213 59 4 4c-10.022 0-17.192-7.846-25.5-12-5.898-2.949-23.64 2-30.5 2h-4c0-2.538 17.232-4 21-4l11-2 3.5-2c2.161-1.08 4.894 1 6.5 1l10 10 4 3Z"/><path fill="#1AA497" id="RSPv6b" d="m257 46-2 1 1-2h1v1Z"/><path fill="#CACCC7" id="cing" d="m244 59-5 4c10.323 0 17.95-7.725 26.5-12 5.723-2.862 23.684 2 30.5 2h3c0-2.597-16.41-4-20-4l-12-2-2.5-2-7.5 1-2 1c0 1.562-2.189 5-4 5l-1 1-1 1-1 1-1 1-2 1-1 2Z"/><path fill="#1AA598" id="RSPagl6b" d="M279 47v2l-12-2v-2c3.843 0 7.451 2 12 2Z"/><path fill="#1AA497" id="RSPv6b" d="M200 46c2.172 0 9 7.508 9 10l-10-10h1Z"/><path fill="#019DAB" id="VISrl5" d="m123 48 4 4-2-5h-2v1Z"/><path fill="#029FAC" id="VISa6b" d="M141 59c-2.447 0-3.28 2-6 2 0-2.683 8.649-5.074 10.5-6 9.181-4.59 21.599-8 32.5-8v2c-3.768 0-21 1.462-21 4-2.502 0-16 4.557-16 6Z"/><path fill="#1AA497" id="RSPv6b" d="M255 47c-1.811 0-4 3.438-4 5 1.811 0 4-3.438 4-5Z"/><path fill="#029FAC" id="VISa6b" d="M321 61h1c0-2.508-9.586-5.043-11.5-6-8.896-4.448-20.976-8-31.5-8v2c3.59 0 20 1.403 20 4 6.149 0 13.641 6 17 6l5 2Z"/><path fill="#019DAB" id="VISrl5" d="M333 48c0 1.747-.253 2-2 2v-3h1l1 1Z"/><path fill="#1A7D62" id="SSp-bfd5" d="M78 82c0 1.884 4.443 7 6 7l9.5-10c8.583-4.291 26.798-24 35.5-24v-1l-2-2-4-4c-5.464 0-28.207 20.353-33.5 23-3.92 1.96-6.932 10-11.5 10v1ZM379 82c-1.46 0-6 6.472-6 8l-11.5-12c-4.654-4.654-28.151-23-33.5-23l3-5c1.747 0 2-.253 2-2h1l10.5 7c8.715 4.358 18.553 15.777 27 20 2.9 1.45 3.974 6 7.5 6v1Z"/><path fill="#C7CACC" id="ccs" d="M353 102c5.588 0 7.857 15 10 15 0-18.433-17.75-38.125-33.5-46-3.939-1.97-10.185-10-14.5-10-1.566 0-11.503-5.002-13.5-6-1.114-.557-5.5-.41-5.5-2-6.816 0-24.777-4.862-30.5-2-8.55 4.275-16.177 12-26.5 12h-3c0 1.58-2.855 1-4 1h-7c-1.145 0-4 .58-4-1h-4c-10.022 0-17.192-7.846-25.5-12-5.898-2.949-23.64 2-30.5 2 0 1.59-4.386 1.443-5.5 2L141 61l-4.5 4c-5.496 2.748-10.403 7.201-16 10-11.146 5.573-27.5 28.389-27.5 43 1.44 0 5.45-16 10-16 0-2.257 6.012-11 8-11 0-3.162 6.541-11 10-11 0-3.115 20.307-17 24-17 0-3.263 10.359-3.93 12.5-5 6.966-3.483 20.7-4.65 28-1l5.5 3c5.731 0 9.131 6.815 13.5 9 6.914 3.457 15.876 8 24 8l5-2c3.365-1.682 8.54-.27 12-2l9-6c1.165-.582 10.5-9.304 10.5-6h1c0-1.577 1.762-2 3-2 0-1.638 3.576-2 5-2 0-2.064 3.353-.426 4.5-1 3.967-1.983 19.184.092 23 2 13.659 6.83 35.152 14.805 43.5 31.5 1.868 3.735 8 8.222 8 12.5Z"/><path fill="#1AA497" id="RSPv6b" d="m251 52-1 1 1-1Z"/><path fill="#C9C9CA" id="scwm" d="M141 59v2l14.5-6c1.114-.557 5.5-.41 5.5-2h-4c-2.502 0-16 4.557-16 6Z"/><path fill="#1AA497" id="RSPv6b" d="m250 53-1 1 1-1Z"/><path fill="#C9C9CA" id="scwm" d="m316 59-1 2c-1.566 0-11.503-5.002-13.5-6-1.114-.557-5.5-.41-5.5-2h3c6.149 0 13.641 6 17 6Z"/><path fill="#1AA497" id="RSPv6b" d="m249 54-1 1 1-1Z"/><path fill="#198060" id="SSp-bfd6a" d="M90 99h1c0-2.447 23.374-26 26-26 0-1.812 5.824-6 8-6 0-2.177 4.336-4 6-4l2-2v-1c-1.429 0-4-3.939-4-5-8.702 0-26.917 19.709-35.5 24L84 89v2l6 8Z"/><path fill="#C7C8CC" id="alv" d="M145 63c7.971 0 26.992-10.754 36.5-6l9 4 10 9 8.5 7-18-17-5.5-3c-7.3-3.65-21.034-2.483-28 1-2.141 1.07-12.5 1.737-12.5 5Z"/><path fill="#1AA497" id="RSPv6b" d="m248 55-1 1 1-1Z"/><path fill="#C7C8CC" id="alv" d="M331 120c2.607 0 4.913 3 7 3 4.356 0 8.929 1.785 12.5 0l3.5-4c0-5.675-1-11.954-1-17 0-4.278-6.132-8.765-8-12.5-8.348-16.695-29.841-24.67-43.5-31.5-3.816-1.908-19.033-3.983-23-2-1.147.574-4.5-1.064-4.5 1 15.477 0 27.815 1.658 40.5 8 5.907 2.954 10.039 9.02 16 12 3.383 1.692 14.5 10.915 14.5 15l4 5c0 4.196 6.54 10.42 4 15.5-7.781 15.562-19.073 6.214-30.5.5-5.364-2.682-14.136-3-20.5-3v1h2c1.235 0 5-.643 5 1 2.409 0 5.181 1 7 1 4.607 0 8.09 5 12 5l3 2Z"/><path fill="#198060" id="SSp-bfd6a" d="M373 91c-1.634 0-7 5.962-7 8l-7.5-9c-6.758-3.379-26.997-29-34.5-29l3-6h1c5.349 0 28.846 18.346 33.5 23L373 90v1Z"/><path fill="#7ECF4B" id="CA1" d="M212 101h1l1-1 3-3c0-3.012 4-6.818 4-12l-5-4h-1l-2-2h-1l-2-2h-1l-8.5-7-10-9-9-4c-9.508-4.754-28.529 6-36.5 6 0 2.12-4.263 2.763-5.5 4-1.19 1.19-17.816 13-18.5 13l-10 11v1c9.643 0 20.001 1 29 1l3.5-4c5.151-2.576 22.568-12.216 29-9l26 13 12.5 8h1Z"/><path fill="#1AA498" id="RSPv6a" d="m245 57-1 2 1-2Z"/><path fill="#C7C8CC" id="alv" d="M274 57c-1.424 0-5 .362-5 2 1.424 0 5-.362 5-2Z"/><path fill="#7ECF4B" id="CA1" d="M244 101h1c3.507 0 8.708-6.104 12.5-8 17.622-8.81 25.993-18.004 46-8 2.419 1.21 12.5 3.981 12.5 8 9.092 0 19.294-1 29-1 0-4.085-11.117-13.308-14.5-15-5.961-2.98-10.093-9.046-16-12-12.685-6.342-25.023-8-40.5-8 0 1.638-3.576 2-5 2 0 1.577-1.762 2-3 2 0 1.577-1.762 2-3 2l-1 1-1 1-1 1-1 1-2 2-2 2c0 1.577-1.762 2-3 2l-1 1-1 1h-1l-1 1-1 1-2 1-1 1h-1l-1 1-1 1h-1l-1 1-1 1h-1l-1 2-1 1c0 4.254 4 7.157 4 11l5 4Z"/><path fill="#CBC9C7" id="or" d="M80 128c0 1.424.362 5 2 5 .775 0 7.537-14 11-14v-1c0-14.611 16.354-37.427 27.5-43 5.597-2.799 10.504-7.252 16-10l4.5-4v-2c-2.447 0-3.28 2-6 2l-2 2h-2c0 1.617-4.583 4-6 4 0 2.289-6.178 6-8 6 0 2.128-3.24 3.74-5 5.5L95.5 95l-4.5 5c0 4.206-6 6.794-6 11l-1 1v1l-1 1v1c0 4.623-3 8.054-3 13Z"/><path fill="#C7C8CC" id="alv" d="M269 59c-1.238 0-3 .423-3 2 1.238 0 3-.423 3-2Z"/><path fill="#CBC9C7" id="or" d="m377 129-2 4c-2.653 0-7.388-14-12-14v-2c0-18.433-17.75-38.125-33.5-46-3.939-1.97-10.185-10-14.5-10l1-2 5 2 2 1 20.5 15 21.5 23c0 4.524 7 7.536 7 12l1 1v1c0 4.702 3 7.848 3 13l1 1v1Z"/><path fill="#188063" id="SSp-tr6a" d="M133 61h1l-1-1v1Z"/><path fill="#C9CCC9" id="dhc" d="M237 83h1l1-1 1-1h1l1-1 1-1h1l1-1 2-1 1-1 1-1h1l1-1 1-1c0-1.577 1.762-2 3-2 0-1.747.253-2 2-2 0-1.747.253-2 2-2l1-1 1-1 1-1 1-1 2-2c0-3.304-9.335 5.418-10.5 6l-9 6c-3.46 1.73-8.635.318-12 2l-5 2c-8.124 0-17.086-4.543-24-8-4.369-2.185-7.769-9-13.5-9l18 17h1l2 2h1l2 2h1c1.974 0 3.517 2 6 2h4c1.145 0 4-.58 4 1l5-1h2Z"/><path fill="#1A7E61" id="SSp-bfd6b" d="M131 63h2v-2l-2 2Z"/><path fill="#1A8063" id="SSp-tr6b" d="m135 61-2 2v-2h2Z"/><path fill="#C7C8CC" id="alv" d="M266 61c0 1.577-1.762 2-3 2l2-2h1Z"/><path fill="#1A8063" id="SSp-tr6b" d="M323 61v1l-2-1h2Z"/><path fill="#1A7E61" id="SSp-bfd6b" d="M365 100h1v-1l-7.5-9c-6.758-3.379-26.997-29-34.5-29h-1v1l20.5 15 21.5 23ZM131 63c-1.664 0-6 1.823-6 4 1.417 0 6-2.383 6-4Z"/><path fill="#C7C8CC" id="alv" d="M145 63c-3.693 0-24 13.885-24 17 .684 0 17.31-11.81 18.5-13 1.237-1.237 5.5-1.88 5.5-4ZM263 63l-1 1 1-1Z"/><path fill="#1A7E62" id="SSs1" d="m411 85-4 3c0-5.79-16-17.281-16-21l2-4 3.5 4c2.43 1.215 14.5 15.137 14.5 18ZM45 85l4 3c2.225 0 2.373-3.873 3.5-5C54.522 80.978 65 67.5 65 67c0-2.215-2-1.519-2-3-1.67 0-18 19.496-18 21Z"/><path fill="#C7C8CC" id="alv" d="m262 64-1 1 1-1ZM261 65l-1 1 1-1ZM260 66l-1 1 1-1Z"/><path fill="#1B8063" id="SSs2/3" d="M49 89c2.892 0 4.852 8 8 8l12-17.5 4-4.5v-1l-7-7h-1c0 .5-10.478 13.978-12.5 16-1.127 1.127-1.275 5-3.5 5v1Z"/><path fill="#1A7E61" id="SSp-bfd6b" d="M125 67c-2.176 0-8 4.188-8 6 1.822 0 8-3.711 8-6Z"/><path fill="#C7C8CC" id="alv" d="M259 67c-1.747 0-2 .253-2 2l2-2Z"/><path fill="#1B8063" id="SSs2/3" d="M407 89c-1.01 0-4.75 8-8 8 0-2.413-9.333-14.833-11.5-17l-3.5-5 6-8h1c0 3.719 16 15.21 16 21v1Z"/><path fill="#C7C8CC" id="alv" d="M257 69c-1.747 0-2 .253-2 2l2-2ZM255 71c-1.238 0-3 .423-3 2 1.238 0 3-.423 3-2Z"/><path fill="#1A7E61" id="SSp-bfd6b" d="M91 99v1l4.5-5L112 78.5c1.76-1.76 5-3.372 5-5.5-2.626 0-26 23.553-26 26Z"/><path fill="#C7C8CC" id="alv" d="m252 73-1 1 1-1ZM251 74l-1 1 1-1Z"/><path fill="#187C63" id="SSs4" d="M57 97c2.35 0 1.383 3 4 3 3.745 0 12.123-18 17-18v-1l-5-6-4 4.5L57 97Z"/><path fill="#C7C8CC" id="alv" d="m249 75-1 1 1-1Z"/><path fill="#187C63" id="SSs4" d="M395 101h1l3-3v-1c0-2.413-9.333-14.833-11.5-17l-3.5-5h-1c0 1.334-2.972 6-4 6v1c0 1.715 16 14.754 16 19Z"/><path fill="#C7C8CC" id="alv" d="m248 76-1 1 1-1ZM210 77l2 2-2-2ZM247 77l-2 1 2-1ZM245 78l-1 1 1-1ZM213 79l2 2-2-2ZM243 79l-1 1 1-1ZM121 80c-3.459 0-10 7.838-10 11l10-11Z"/><path fill="#7BD04A" id="DG-mo" d="M195 115h10c0-1.577 1.762-2 3-2l1-1 1-1 1-2 1-6-1-2-12.5-8-26-13c-6.432-3.216-23.849 6.424-29 9l-3.5 4v3c0 2.638 5.848 3 8 3 0-3.943 9.23-4.865 11.5-6 15.204-7.602 19.626-.687 33 6l14 4c2.249 1.125-.7 5.35-2 6-2.778 1.389-8.145 1.428-11 0-4.496-2.248-10.709-5-16-5-7.082 0-12.148 3-18.5 3l-2 2v1l2 1h12c1.048 0 3-.473 3 1h5l2 1h4c1.048 0 3-.473 3 1h3l1 1h3Z"/><path fill="#C7C8CC" id="alv" d="m242 80-1 1 1-1Z"/><path fill="#7BD04A" id="DG-mo" d="M262 115h3l1-1h2c0-1.473 1.952-1 3-1h4l2-1h6c0-1.473 1.952-1 3-1h11l2-1v-1l-2-2c-6.693 0-13.193-5.654-20.5-2-.89.445-19.547 5-21 5-2.01 0-8.097-2.306-6.5-5.5 1.835-3.671 7.611-2.055 10.5-3.5 9.578-4.789 20.807-15.597 32-10 2.954 1.477 17.5 3.262 17.5 8 2.317 0 8-.71 8-4l-1-2c0-4.019-10.081-6.79-12.5-8-20.007-10.004-28.378-.81-46 8-3.792 1.896-8.993 8-12.5 8v1c0 11.359 5.787 13 17 13Z"/><path fill="#C7C8CC" id="alv" d="m222 83-1 2-5-4c1.974 0 3.517 2 6 2ZM240 81l-1 1 1-1Z"/><path fill="#1C8063" id="SSs5" d="M69 112h1c0-6.098 13-16.025 13-21l1-1v-1c-1.557 0-6-5.116-6-7-4.877 0-13.255 18-17 18v2l8 10Z"/><path fill="#C7C8CC" id="alv" d="m239 82-1 1 1-1Z"/><path fill="#1C8063" id="SSs5" d="M395 101c0 1.418-5.327 10-8 10-2.477 0-11.13-20-14-20v-1c0-1.528 4.54-8 6-8 0 1.715 16 14.754 16 19Z"/><path fill="#7ECD4A" id="FC" d="M223 93c-2.871 0-2.556 4-6 4 0-3.012 4-6.818 4-12l1-2h4c0 2.011-1 3.989-1 6v1c-1.577 0-2 1.762-2 3ZM235 86c0 4.254 4 7.157 4 11-4.124 0-9.13-13-9-13l5-1v3Z"/><path fill="#C7C8CC" id="alv" d="M235 85h1l1-2h-2v2Z"/><path fill="#039399" id="AUDd1" d="M34 117h1c0-6.994 14-23.243 14-28v-1l-4-3c-1.255 0-14 23.507-14 27 0 .759 2.44 5 3 5Z"/><path fill="#7DCD4B" id="HPF" d="m236 85-1 1v-1h1Z"/><path fill="#039399" id="AUDd1" d="M421 117h1l4-5c0-5.245-8.478-16.455-11-21.5-.606-1.212-2.24-5.5-4-5.5l-4 3v1c1.761 0 3.325 6.15 4 7.5 3.188 6.376 10 12.969 10 20.5Z"/><path fill="#A8A9AA" id="V3" d="M223 94c3.83 0 2.243 3.871 4.5 5 2.074 1.037 3.158-5 5.5-5 0-8.588-6.64-5-8-5v1c0 1.238-.423 3-2 3v1Z"/><path fill="#029397" id="AUDd2/3" d="M35 117c3.489 0 5.32 2 9 2 1.816 0 2.392-4.284 3-5.5 2.508-5.015 10-10.697 10-16.5-3.148 0-5.108-8-8-8 0 4.757-14 21.006-14 28Z"/><path fill="#65A83D" id="DG-sg" d="M168 101c-1.559 0-9 4.297-9 6 6.352 0 11.418-3 18.5-3 5.291 0 11.504 2.752 16 5 2.855 1.428 8.222 1.389 11 0 1.3-.65 4.249-4.875 2-6l-14-4c-13.374-6.687-17.796-13.602-33-6-2.27 1.135-11.5 2.057-11.5 6h5c0-1.96 6.099-2.3 7.5-3 8.738-4.369 16.301-.85 24 3 .445.223 10.416 3.792 8 5-2.154 1.077-11.135-3-14.5-3h-10ZM289 101c1.696 0 8 3.804 8 6-6.693 0-13.193-5.654-20.5-2-.89.445-19.547 5-21 5-2.01 0-8.097-2.306-6.5-5.5 1.835-3.671 7.611-2.055 10.5-3.5 9.578-4.789 20.807-15.597 32-10 2.954 1.477 17.5 3.262 17.5 8h-6c0-1.722-5.235-2.368-6.5-3-8.762-4.381-19.193-.904-27 3-.896.448-7.294 4.353-6 5l6-2 9.5-1h10Z"/><path fill="#029397" id="AUDd2/3" d="M412 120h1c0-1.291 6.457-3 8-3 0-7.531-6.812-14.124-10-20.5-.675-1.35-2.239-7.5-4-7.5-1.01 0-4.75 8-8 8v1c1.969 0 2.274 3.774 3.5 5 1.423 1.423 9.5 15.016 9.5 17Z"/><path fill="#1A7D62" id="SSp-bfd5" d="M83 91h1v-1l-1 1Z"/><path fill="#197D63" id="SSs6a" d="M70 112c0 1.883 5.371 9 7 9l3-4.5c1.46-2.921 10-15.503 10-17.5l-6-8h-1c0 4.975-13 14.902-13 21Z"/><path fill="#C7C8CC" id="alv" d="M125 120c-2.607 0-4.913 3-7 3l-9.5 1c-1.38-.69-4.489-4-5.5-4v-18c0-2.257 6.012-11 8-11v1c0 1.947-3 2.636-3 5-5.16 0-5.511 20.495 1.5 24 7.274 3.637 20.394-8 27.5-8l-8 5-2 1h-1l-1 1Z"/><path fill="#197D63" id="SSs6a" d="M387 112c-3.137 0-3.77 9-8 9-1.845 0-1.441-3.381-2-4.5L366 100v-1c0-2.038 5.366-8 7-8 2.87 0 11.523 20 14 20v1Z"/><path fill="#7DCF4B" id="CA2" d="M140 96c-6.005 0-19.379-4.06-25.5-1l-6.5 2c0-2.364 3-3.053 3-5 9.643 0 20.001 1 29 1v3ZM317 95h24.5c1.61.805 5.802 2 7.5 2l-4-5c-9.706 0-19.908 1-29 1l1 2Z"/><path fill="#7ECE4A" id="DG-po" d="M153 99c2.556 0 15-1.382 15 2h10c3.365 0 12.346 4.077 14.5 3 2.416-1.208-7.555-4.777-8-5-7.699-3.85-15.262-7.369-24-3-1.401.7-7.5 1.04-7.5 3Z"/><path fill="#A9AAA8" id="chpl" d="m219 103 7.5 8c5.138 2.569 7.324-7 10.5-7v-5l-1-1-1-2-1-1-1-1c-2.342 0-3.426 6.037-5.5 5-2.257-1.129-.67-5-4.5-5l-2 3-1 1-1 5Z"/><path fill="#7ECE4A" id="DG-po" d="M303 99c-3.15 0-14-1.464-14 2h-10l-9.5 1-6 2c-1.294-.647 5.104-4.552 6-5 7.807-3.904 18.238-7.381 27-3 1.265.632 6.5 1.278 6.5 3Z"/><path fill="#7ECF49" id="CA3" d="M147 111c-2.049 0-10-.342-10 2-7.106 0-20.226 11.637-27.5 8-7.011-3.505-6.66-24-1.5-24l6.5-2c6.121-3.06 19.495 1 25.5 1 0 2.638 5.848 3 8 3h5c2.556 0 15-1.382 15 2-1.559 0-9 4.297-9 6l-2 2-1 1h-2c-1.406 0-7-.714-7 1Z"/><path fill="#A8A9AA" id="V3" d="m234 95 1 1-1-1Z"/><path fill="#7ECF49" id="CA3" d="M300 110h2c6.364 0 15.136.318 20.5 3 11.427 5.714 22.719 15.062 30.5-.5 2.54-5.08-4-11.304-4-15.5-1.698 0-5.89-1.195-7.5-2H317c0 3.29-5.683 4-8 4h-6c-3.15 0-14-1.464-14 2 1.696 0 8 3.804 8 6l2 2 1 1Z"/><path fill="#039398" id="AUDd4" d="m44 120 5 1c0-1.508 10.449-19 12-19v-2c-2.617 0-1.65-3-4-3 0 5.803-7.492 11.485-10 16.5-.608 1.216-1.184 5.5-3 5.5v1Z"/><path fill="#A8A9AA" id="V3" d="m221 97-1 1 1-1ZM236 98l1 1-1-1Z"/><path fill="#039398" id="AUDd4" d="m412 120-5 1c0-5.808-11-15.281-11-20l3-3c1.969 0 2.274 3.774 3.5 5 1.423 1.423 9.5 15.016 9.5 17Z"/><path fill="#1A8061" id="SSs6b" d="M77 124h1c0-1.25 3.673-9 5-9v-1l1-1v-1l1-1c0-4.206 6-6.794 6-11v-1h-1c0 1.997-8.54 14.579-10 17.5l-3 4.5v3Z"/><path fill="#7DCD4B" id="HPF" d="m214 100-1 1 1-1Z"/><path fill="#1A8061" id="SSs6b" d="M378 123h1v-2c-1.845 0-1.441-3.381-2-4.5L366 100h-1c0 4.524 7 7.536 7 12l1 1v1c3.037 0 3.203 9 5 9Z"/><path fill="#7DCD4B" id="HPF" d="M212 101v2l-1-2h1ZM245 101v1l-1-1h1Z"/><path fill="#029398" id="AUDd5" d="M407 122c-4.915 0-9.71 5-14 5l-6-15v-1c2.673 0 8-8.582 8-10h1c0 4.719 11 14.192 11 20v1ZM49 122c4.915 0 9.013 5 14 5l6-15-8-10c-1.551 0-12 17.492-12 19v1Z"/><path fill="#A8AAAA" id="VL" d="m99 140 5 3c0-3.842-3-7.264-3-12 0-1.145-.579-4 1-4l1-7v-18c-4.55 0-8.56 16-10 16v1c7.478 0 2 8.847 2 12 .733 0 3 6.022 3 7l1 1v1ZM357 141l-4 1c0-2.327 6.429-15 1-15v-8c0-5.675-1-11.954-1-17 5.588 0 7.857 15 10 15v2c-6.504 0-2 8.614-2 12l-2 6-1 1v1l-1 1v1Z"/><path fill="#A8A9AA" id="V3" d="M225 130c0 6.272 5.91 0 7 0 0-7.373-2.687-10.126 1-17.5.742-1.485 1.234-5.5 4-5.5v-3c-3.176 0-5.362 9.569-10.5 7l-7.5-8v3l6 7.5c2.904 5.807 0 10.487 0 16.5Z"/><path fill="#FF8D9F" id="MH" d="M209 113c0 1.238.423 3 2 3 0-3.242 4-5.319 4-9 0-4.722-2.383 2-4 2l-1 2-1 1v1ZM224 130h1c0-6.013 2.904-10.693 0-16.5l-6-7.5c-.839 0-2-1.93-2 0 0 2.275-2.279 11-5 11 0 4.055 8 8.379 8 11l4 2ZM232 130h1l3-2c1.545 0 9-9.671 9-11-4.246 0-5-8.637-5-11 0-2.999-2.736 1-3 1-2.766 0-3.258 4.015-4 5.5-3.687 7.374-1 10.127-1 17.5Z"/><path fill="#FF8D9F" id="MH" d="m248 114-3 2c0-3.396-4-6.052-4-10 0-1.034 7 5.498 7 8Z"/><path fill="#C8CCC7" id="hbc" d="m211 116 1 1c2.721 0 5-8.725 5-11l-2 1c0 3.681-4 5.758-4 9ZM245 116v1c-4.246 0-5-8.637-5-11h1c0 3.948 4 6.604 4 10Z"/><path fill="#7DCD4B" id="HPF" d="M156 110h1v-1l-1 1ZM299 110h1l-1-1v1Z"/><path fill="#C7C8CC" id="alv" d="M152 111h2v-1c-1.406 0-7-.714-7 1h5Z"/><path fill="#C9C9CA" id="scwm" d="m85 111-1 1 1-1Z"/><path fill="#C7C8CC" id="alv" d="M137 113h4c0-1.684 4.679-1 6-1v-1c-2.049 0-10-.342-10 2Z"/><path fill="#FE909D" id="LP" d="M176 132c4.726 0 7.159 7 13 7l3-4.5c1.91-3.82 3.145-8.29 5-12l3-4.5-5-3h-3l-1-1h-3c-1.048 0-3 .473-3-1h-4l-2-1h-5c-1.048 0-3 .473-3-1h-19l-1 1c0 3.412 1.163 13-3 13 0 2.802-2.997 11 1 11 0-4.875 23.036-4 27-4ZM310 135l-2 1c-3.414 0-11.31-3.405-14.5-5-3.391-1.695-9.589 1-12.5 1l-1 1h-1c-3.82 0-6.327 6-11 6-1.458 0-11-18.519-11-21l5-3h3l1-1h2c1.048 0 3 .473 3-1h4l2-1h6c1.048 0 3 .473 3-1h18l2 1v10.5l2 2.5c0 .981 1.184 8 2 8v2Z"/><path fill="#029297" id="AUDp1" d="m33 119-5 2c0-1.378 1.769-9 3-9 0 .759 2.44 5 3 5v1l-1 1Z"/><path fill="#019399" id="AUDd6a" d="M73 131h1c0-1.345 1.57-7 3-7v-3c-1.629 0-7-7.117-7-9h-1l-6 15 10 4Z"/><path fill="#FE7F84" id="LGd-co" d="m144 129-12 7c-3.598 0-5.782-7-9-7 0-1.145-.579-4 1-4 0 6.377 10.193-8 13-8 0 7.407 19.171-4 7.5-4l-3.5 1v-1c0-1.684 4.679-1 6-1h4c0 3.412 1.163 13-3 13l-4 4ZM333 130l-8 6c-4.392 0-8.377-7-13-7l-4-4-2-2.5V112h3c2.409 0 5.181 1 7 1v1l-3.5-1c-12.698 0 6.5 11.217 6.5 4 5.368 0 7.143 7.822 11.5 10l2.5-2v5Z"/><path fill="#C9C9CA" id="scwm" d="m372 112 1 1-1-1Z"/><path fill="#019399" id="AUDd6a" d="m393 127-10 4-4-8v-2c4.23 0 4.863-9 8-9l6 15Z"/><path fill="#029297" id="AUDp1" d="m423 119 6 2-3-9-4 5 1 2Z"/><path fill="#C9C9CA" id="scwm" d="m84 113-1 1 1-1Z"/><path fill="#FE8083" id="LGd-sh" d="m125 121-1 4c0 6.377 10.193-8 13-8l1-1 3-2v-1h-4l-8 5-2 1c0 1.747-.253 2-2 2Z"/><path fill="#FD8082" id="LGd-ip" d="m138 116-1 1c0 7.407 19.171-4 7.5-4l-3.5 1-3 2Z"/><path fill="#FF8F9D" id="LH" d="M201 136c1.429 0 4 3.939 4 5l14-7 1-1v-5c0-2.621-8-6.945-8-11l-1-1c-1.577 0-2-1.762-2-3h-1c0 1.577-1.762 2-3 2l-2 2-4 7.5c-1.749 3.497 2 8.3 2 11.5Z"/><path fill="#FD8082" id="LGd-ip" d="m316 114-3.5-1c-12.698 0 6.5 11.217 6.5 4l-3-3Z"/><path fill="#FE8083" id="LGd-sh" d="m328 118 5 7-2.5 2c-4.357-2.178-6.132-10-11.5-10l-3-3v-1c4.607 0 8.09 5 12 5Z"/><path fill="#FF8F9D" id="LH" d="m255 136-4 5c-4.341 0-8.24-6-13-6l-2-3v-4c1.545 0 9-9.671 9-11v-1l3-2 6 3 3 6.5c2.01 4.021-2 9.168-2 12.5Z"/><path fill="#C9C9CA" id="scwm" d="m379 133 4 2-1-3c-.774 0-4-7.773-4-9-1.797 0-1.963-9-5-9 0 4.702 3 7.848 3 13l1 1v1l2 4ZM75 133h2l3-5c0-4.946 3-8.377 3-13-1.327 0-5 7.75-5 9l-3 8v1Z"/><path fill="#FE7F84" id="LGd-co" d="m138 116-1 1 1-1Z"/><path fill="#029198" id="AUDv2/3" d="M29 150h8c0-7.307.893-18.286 4-24.5.895-1.79 3-3.403 3-5.5v-1c-3.68 0-5.511-2-9-2h-1v1l-1 1c0 4.377-2.078 11.655-4 15.5V150Z"/><path fill="#FD8F9D" id="CL" d="M189 161c2.622 0 4.285 4 8 4 0-4.324-3.067-29 4-29 0-3.2-3.749-8.003-2-11.5l4-7.5-3 1-3 4.5c-1.855 3.71-3.09 8.18-5 12l-3 4.5c0 5.046-1 11.325-1 17v2l1 1v2ZM267 162c-2.404 0-4.649 3-8 3 0-4.458 5.188-29-4-29 0-3.332 4.01-8.479 2-12.5l-3-6.5 3 1c0 2.481 9.542 21 11 21v21l-1 1v1Z"/><path fill="#029198" id="AUDv2/3" d="M419 150h9l-1-17.5-4-13.5-1-2h-1c-1.543 0-8 1.709-8 3 0 3.771 2.388 8.277 4 11.5 2.405 4.81 2 12.741 2 18.5Z"/><path fill="#019099" id="AUDv1" d="m34 118-1 1 1-1Z"/><path fill="#CAC7CB" id="fiber tracts" d="m129 118-2 1 2-1ZM341 160l2 2-2-4.5V155c0-7.397 7.13 2 9 2 1.951 0 .477-2.454 1-3.5l6-12.5-4 1v1c0 1.49-2.206 8-4 8 0 4.059-7 .366-7-2-2.393 0-3-3.234-3-5l-1-1v-1c-1.643 0-1-3.765-1-5v-8c-.344 0-6-8.965-6-9l-3-2 5 7v5l2 4.5V150c1.315 0 6 8.583 6 10Z"/><path fill="#019099" id="AUDv1" d="M23 150h6v-15.5c1.922-3.845 4-11.123 4-15.5l-5 2c-1.78 0-1.348 6.197-2 7.5-2.75 5.5-3 15.042-3 21.5Z"/><path fill="#98D5F9" id="CP" d="M86 197h1c1.956 0 4.943 1 7.5 1 19.758 0 2.5-17.385 2.5-25v-3l-1-1c0-10.525-9.615-18.27-4-29.5.768-1.537.692-8.5 3-8.5 0-3.153 5.478-12-2-12-3.463 0-10.225 14-11 14l-7 14.5c-.65 1.3-.007 6.5-2 6.5l-1 22 1 2c0 5.617 12 16.419 12 18l1 1Z"/><path fill="#CAC7CB" id="fiber tracts" d="M125 120v1c1.747 0 2-.253 2-2h-1l-1 1Z"/><path fill="#CBC8CB" id="fi" d="M342 149c2.16 0 4.167 2 7 2l2-8c0-4.76 3-10.89 3-16v-8l-3.5 4c-3.571 1.785-8.144 0-12.5 0l-1 6v8c1.643 0 1 3.765 1 5v1l1 1c0 1.766.607 5 3 5Z"/><path fill="#98D5F9" id="CP" d="M353 189c0 11.667 9.058 8 17 8 3.796 0 13-15.752 13-19l1-1c0-7.694-1-15.926-1-23 0-7.217-8-14.078-8-21-2.653 0-7.388-14-12-14-6.504 0-2 8.614-2 12 2.729 0 2.215 5.929 3 7.5 5.849 11.699-3 18.068-3 29.5l-1 1v1l-1 1v3l-1 1c0 1.708-3.917 13-5 13v1Z"/><path fill="#019099" id="AUDv1" d="M428 150h5c0-10.288-4-20.288-4-29l-6-2 4 13.5 1 17.5Z"/><path fill="#029197" id="AUDv4" d="m37 150 6 1c0-5.299-.082-15.337 2-19.5l4-9.5v-1l-5-1c0 2.097-2.105 3.71-3 5.5-3.107 6.214-4 17.193-4 24.5Z"/><path fill="#CBC8CB" id="fi" d="m117 145-2 4c-4.534 0-5.558 4.384-8-.5l-2-5.5c0-4.587-2-7.552-2-12.5 0-1.098.534-3.5-1-3.5l1-7c1.011 0 4.12 3.31 5.5 4l9.5-1c0 2.097 1 5.293 1 8v9c-1.473 0-1 1.952-1 3v1l-1 1Z"/><path fill="#029197" id="AUDv4" d="m419 150-5 1c0-4.363-1.221-16.942-3-20.5l-4-8.5v-1l5-1h1c0 3.771 2.388 8.277 4 11.5 2.405 4.81 2 12.741 2 18.5Z"/><path fill="#CAC7CB" id="fiber tracts" d="m115 161-1 1 2-9.5c-1.358-2.717-9 3.113-9 5.5-1.183 0-1.535-3.57-2-4.5L99 140l5 3c0 10.628 11 11.602 11 6l2-4 1-1v-1c1.473 0 1-1.952 1-3v-9c2.137 0 2.226-10 6-10l-1 4c-1.579 0-1 2.855-1 4 0 5.574-2 10.673-2 17v5c-1.504 0-4 5.699-4 7l-1 1v1l-1 1Z"/><path fill="#019098" id="AUDv5" d="M43 151h14c0-8.374 6-16.038 6-24-4.987 0-9.085-5-14-5l-4 9.5c-2.082 4.163-2 14.201-2 19.5ZM399 151h15c0-4.363-1.221-16.942-3-20.5l-4-8.5c-4.915 0-9.71 5-14 5 0 7.812 6 15.244 6 24Z"/><path fill="#019398" id="AUDd6b" d="m383 131-1 1c-.774 0-4-7.773-4-9h1l4 8ZM74 131l1 1 3-8h-1c-1.43 0-3 5.655-3 7Z"/><path fill="#FF6F80" id="TH" d="M146 137h3v-1c-3.997 0-1-8.198-1-11l-4 4c2.991 0 2 6.051 2 8ZM312 129l-2 4c-.816 0-2-7.019-2-8l4 4Z"/><path fill="#019397" id="AUDv6a" d="m57 151 10 1c0-.671 1.328-5 2-5 0-2.186 1.733-12 4-12v-4l-10-4c0 7.962-6 15.626-6 24Z"/><path fill="#A9AAA8" id="chpl" d="M104 143h1c0-4.587-2-7.552-2-12.5 0-1.098.534-3.5-1-3.5-1.579 0-1 2.855-1 4 0 4.736 3 8.158 3 12ZM351 143h2v-1c0-2.327 6.429-15 1-15 0 5.11-3 11.24-3 16Z"/><path fill="#C7CACC" id="ccs" d="m376 127 1 1-1-1Z"/><path fill="#019397" id="AUDv6a" d="m399 151-10 1c0-7.519-6-13.918-6-21l10-4c0 7.812 6 15.244 6 24Z"/><path fill="#C7CACC" id="ccs" d="M72 154h1c1.993 0 1.35-5.2 2-6.5l7-14.5c-1.638 0-2-3.576-2-5l-3 5c0 6.483-5 13.393-5 21Z"/><path fill="#FF6F80" id="TH" d="M224 130c-2.424 0-2.76 2-4 2v-4l4 2ZM233 130l3 1v-3l-3 2Z"/><path fill="#FF8E9F" id="LGv" d="m121 146 2 1c0-2.473 3.527-6 6-6 0-2.364 3-3.053 3-5-3.598 0-5.782-7-9-7 0 5.574-2 10.673-2 17Z"/><path fill="#CBC9C7" id="or" d="m133 150-2 1c0-2.817 3.486-10-2-10 0-2.364 3-3.053 3-5l12-7c2.991 0 2 6.051 2 8l-6 5-1 1-2 2-1 1-1 1-1 1-1 2ZM321 147l6 7c0-3.569-7.287-13 1-13l-3-5c-4.392 0-8.377-7-13-7l-2 4v2l1 2 10 10Z"/><path fill="#C7CACC" id="ccs" d="M383 154h2c0-7.171-6-13.652-6-21l-2-4-2 4c0 6.922 8 13.783 8 21Z"/><path fill="#FE8F9E" id="PVT" d="M220 153h16c.781 0 9-5.427 9-6-4.408 0-8-8.211-8-12-1.473 0-1-1.952-1-3v-1l-3-1h-1c-1.09 0-7 6.272-7 0h-1c-2.424 0-2.76 2-4 2v2c0 3.883-4.115 13-9 13 0 .344 8.965 6 9 6Z"/><path fill="#FF8E9F" id="LGv" d="m335 146-1 1c-2.145 0-2.793-6-6-6l-3-5 8-6 2 4.5V146Z"/><path fill="#019198" id="AUDv6b" d="M73 135h1l1-2v-1l-1-1h-1v4Z"/><path fill="#CBC9C7" id="or" d="m97 171 6 3c0-9.303 6-5.415 6-9 0-2.583-2-3.934-2-7-1.183 0-1.535-3.57-2-4.5L99 140v-1l-1-1c0-.978-2.267-7-3-7-2.308 0-2.232 6.963-3 8.5-5.615 11.23 4 18.975 4 29.5l1 1v1Z"/><path fill="#FF8E9C" id="PO" d="M186 186h1c0-5.284 10.726-2 13-2l-4-3.5c-2.792-5.585-7-12.907-7-19.5v-2l-1-1v-2l-12-24c-3.964 0-27-.875-27 4v1l4.5 6c3.505 1.752 21.406 29.312 23.5 33.5 1.636 3.273 9 4.202 9 9.5ZM269 186h1c0-5.341 9.014-7.527 11-11.5 3.559-7.119 10.114-15.228 14-23l5-5c1.227-2.455 5.276-9.5 8-9.5v-1c-3.414 0-11.31-3.405-14.5-5-3.391-1.695-9.589 1-12.5 1l-1 1h-1c0 5.275-5.672 12.844-8 17.5l-3 6.5v3l-1 1v1c0 6.213-3.406 12.312-6 17.5l-5 4.5c2.274 0 13-3.284 13 2Z"/><path fill="#CBC9C7" id="or" d="m359 172-5 2c0-6.711-7-7.587-7-9 0-2.196 3-5.252 3-8 1.951 0 .477-2.454 1-3.5l6-12.5v-1l1-1v-1l1-1 2-6c2.729 0 2.215 5.929 3 7.5 5.849 11.699-3 18.068-3 29.5l-1 1v1l-1 1v1Z"/><path fill="#019198" id="AUDv6b" d="M388 152h1c0-7.519-6-13.918-6-21l-1 1 1 3c0 3.771 2.388 8.277 4 11.5.619 1.238-1.144 5.5 1 5.5Z"/><path fill="#FD8F9C" id="Eth" d="M189 139c0 5.046-1 11.325-1 17l-12-24c4.726 0 7.159 7 13 7Z"/><path fill="#FF6F80" id="TH" d="M237 135h1l-2-3c0 1.048-.473 3 1 3Z"/><path fill="#FD8F9C" id="Eth" d="m281 132-1 1 1-1Z"/><path fill="#C9C9CA" id="scwm" d="m75 133-1 2 1-2Z"/><path fill="#CCC8CA" id="ar" d="M68 176h1c1.428 0 2-3.205 2-4.5 0-5.751 1-12.418 1-17.5 0-7.607 5-14.517 5-21h-2l-1 2-1 1c0 1.674-2.758 11-4 11v5c0 7.289-1 16.054-1 24Z"/><path fill="#FF6F80" id="TH" d="M219 134h1v-1l-1 1Z"/><path fill="#FD8F9C" id="Eth" d="M268 139v18l3-6.5c2.328-4.656 8-12.225 8-17.5-3.82 0-6.327 6-11 6Z"/><path fill="#CCC8CA" id="ar" d="m388 176-1 1c0-7.298-2-15.336-2-23 0-7.171-6-13.652-6-21l4 2c0 3.771 2.388 8.277 4 11.5.619 1.238-1.144 5.5 1 5.5v24Z"/><path fill="#C7CAC9" id="fr" d="M205 141c0 4.472 1.528 6 6 6 4.885 0 9-9.117 9-13h-1l-14 7Z"/><path fill="#019198" id="AUDv6b" d="M73 136c0 1.674-2.758 11-4 11 0-2.186 1.733-12 4-12v1Z"/><path fill="#C9C9CA" id="scwm" d="m74 135-1 1v-1h1Z"/><path fill="#C7CAC9" id="fr" d="M251 141c0 3.821-.722 6-6 6-4.408 0-8-8.211-8-12h1c4.76 0 8.659 6 13 6Z"/><path fill="#FF6F80" id="TH" d="M308 137h3l-1-2-2 1v1Z"/><path fill="#FD909D" id="MD" d="m219 181-5 2c-8.477 0-17-9.664-17-18 0-4.324-3.067-29 4-29 1.429 0 4 3.939 4 5 0 4.472 1.528 6 6 6 0 .344 8.965 6 9 6 0 3.942 5.582 9.337 3 14.5-1.864 3.728-4 9.114-4 13.5ZM238 181l4 2c9.606 0 17-8.85 17-18 0-4.458 5.188-29-4-29l-4 5c0 3.821-.722 6-6 6 0 .573-8.219 6-9 6 0 3.777-5.168 9.165-3 13.5l5 14.5Z"/><path fill="#FF7E83" id="VPM" d="m181 193-1 1-8.5 1c-1.689-.845-6.846-4-8.5-4l-8-7.5c-2.349-2.349-23-25.024-23-26.5l-1-1 2-6 1-2 1-1 1-1 1-1 2-2 1-1 6-5h3l4.5 6c3.505 1.752 21.406 29.312 23.5 33.5 1.636 3.273 9 4.202 9 9.5l-5 7ZM293 192l-8.5 3-7.5-1-7-8c0-5.341 9.014-7.527 11-11.5 3.559-7.119 10.114-15.228 14-23l5-5c1.227-2.455 5.276-9.5 8-9.5h3l10 10c0 2.864 4 5.35 4 9v1c0 4.091-6.359 5.218-8 8.5l-18 21-6 5.5Z"/><path fill="#CAC7CB" id="fiber tracts" d="m359 137-1 1 1-1ZM98 138l1 1-1-1ZM358 139l-1 1 1-1Z"/><path fill="#FD8F9F" id="RT" d="M135 185v1c-4.605 0-7.922-7-12-7 0-3.678-6.271-3.042-8-6.5-1.912-3.825 4-11.442 4-15.5 0-1.974 2-3.517 2-6l1-2 1-2c0-2.473 3.527-6 6-6 5.486 0 2 7.183 2 10v1l-1 1-2 7c-2.236 0-.849 10 1 10 0 2.593 2.629 9 5 9l1 1v5ZM321 183v3c4.842 0 7.773-7 12-7 0-3.24 6.823-3.146 8-5.5 2.649-5.299-4-11.783-4-16.5l-2-7v-1l-1-2c-2.145 0-2.793-6-6-6-8.287 0-1 9.431-1 13l1 5c1.628 0 1.628 10 0 10v1l-1 2c0 2.003.293 3-2 3 0 2.364-3 3.053-3 5l-1 3Z"/><path fill="#FF6F80" id="TH" d="m140 142-1 1 1-1Z"/><path fill="#C7CACA" id="em" d="m137 145-1 1 1-1Z"/><path fill="#FF6F80" id="TH" d="M121 149h1l1-2-2-1v3Z"/><path fill="#C7CACA" id="em" d="m136 146-1 1 1-1Z"/><path fill="#FF6F80" id="TH" d="m334 147 1 2v-3l-1 1Z"/><path fill="#019198" id="AUDv6b" d="M67 152h2v-5c-.672 0-2 4.329-2 5Z"/><path fill="#C7CACA" id="em" d="m135 147-1 1 1-1ZM327 170h1v-11l-1-5-6-7c0 2.864 4 5.35 4 9l1 1v1l1 1v11Z"/><path fill="#CBC9C7" id="or" d="m122 149-1 2v-2h1Z"/><path fill="#15B0B3" id="TEa1" d="m31 177-6 1c0-9.509-2-17.962-2-28h6c0 9.388 2 18.448 2 27Z"/><path fill="#16AFB3" id="TEa2/3" d="M40 176c-2.389 0-5.987 1-9 1 0-8.552-2-17.612-2-27h8c0 9.549 3 17.314 3 26Z"/><path fill="#15B0B2" id="TEa4" d="M40 176h3v-25l-6-1c0 9.549 3 17.314 3 26Z"/><path fill="#C7CACA" id="em" d="M128 160c0 1.406-.714 7 1 7 0-3.222 1-6.277 1-9l1-1v-1l2-6-2 1v1l-1 1-2 7Z"/><path fill="#CBC9C7" id="or" d="m337 157 4 3c0-1.417-4.685-10-6-10l2 7Z"/><path fill="#15B0B2" id="TEa4" d="M414 176h2c0-3.144 1.603-8.706 3-11.5V150l-5 1v25Z"/><path fill="#16AFB3" id="TEa2/3" d="M425 177h1l2-27h-9v14.5c-1.397 2.794-3 8.356-3 11.5 2.389 0 5.987 1 9 1Z"/><path fill="#15B0B3" id="TEa1" d="m426 177 5 1c0-9.253 2-18.024 2-28h-5l-2 27Z"/><path fill="#15AFB3" id="TEa5" d="M43 176c4.077 0 8.431 1 13 1 0-8.739 1-17.859 1-26H43v25Z"/><path fill="#15AFB2" id="TEa6a" d="M67 176c-3.642 0-8.002 1-11 1 0-8.739 1-17.859 1-26l10 1v24Z"/><path fill="#CBC9C7" id="or" d="m119 157-2 1c0-1.301 2.496-7 4-7 0 2.483-2 4.026-2 6Z"/><path fill="#15AFB2" id="TEa6a" d="M400 177h1c0-9.093-2-18.893-2-26l-10 1v24c1.741 0 11-.773 11 1Z"/><path fill="#15AFB3" id="TEa5" d="m414 176-13 1c0-9.093-2-18.893-2-26h15v25Z"/><path fill="#16B0B2" id="TEa6b" d="M67 176h1c0-7.946 1-16.711 1-24h-2v24Z"/><path fill="#C8CBC7" id="st" d="M114 162c-1.353 0-2.158 3-5 3 0-2.583-2-3.934-2-7 0-2.387 7.642-8.217 9-5.5l-2 9.5Z"/><path fill="#CBC9C7" id="or" d="m131 152-1 1 1-1Z"/><path fill="#FE909F" id="IMD" d="M219 181c3.658 0 9.898-4.301 14.5-2l4.5 2-5-14.5c-2.168-4.335 3-9.723 3-13.5h-16c0 3.942 5.582 9.337 3 14.5-1.864 3.728-4 9.114-4 13.5Z"/><path fill="#C8CBC7" id="st" d="M343 162c0 2.098 1.939 3 4 3 0-2.196 3-5.252 3-8-1.87 0-9-9.397-9-2v2.5l2 4.5Z"/><path fill="#16B0B2" id="TEa6b" d="M388 176h1v-24h-1v24Z"/><path fill="#C8CBCC" id="ec" d="m71 180-2 1v-5c1.428 0 2-3.205 2-4.5 0-5.751 1-12.418 1-17.5h1l-1 22v2l-1 2ZM385 180l2 1v-4c0-7.298-2-15.336-2-23h-2c0 7.074 1 15.306 1 23l1 2v1Z"/><path fill="#FF6F80" id="TH" d="M131 157h1l-1-1v1ZM325 157h1l-1-1v1Z"/><path fill="#CCC8CA" id="ar" d="m111 179 7.5-2 4.5 2c0-3.678-6.271-3.042-8-6.5-1.912-3.825 4-11.442 4-15.5l-2 1-1 1v1l-1 1-1 1c-1.353 0-2.158 3-5 3 0 3.585-6-.303-6 9v3l2 2c2.064 0 .426-3.353 1-4.5h6l-1 4.5Z"/><path fill="#FF6F80" id="TH" d="m131 157-1 1 1-1Z"/><path fill="#FD8084" id="VPL" d="M163 191c0 4.723-3.614 2-6 2-6.725 0-14.503-10-19-10l-1-2-6-6.5c-.559-1.119-.155-4.5-2-4.5v-3c0-3.222 1-6.277 1-9l1-1h1c0 1.476 20.651 24.151 23 26.5l8 7.5ZM293 192c0 2.962 4.707 1 6 1 6.979 0 15.174-10 19-10l2-2 1-1c0-1.562 2.189-5 4-5l2-4v-12l-1-1v-1h-1c0 4.091-6.359 5.218-8 8.5l-18 21-6 5.5Z"/><path fill="#CCC8CA" id="ar" d="M345 179c0-6.837 6-6.837 6 0l2-2 1-3c0-6.711-7-7.587-7-9-2.061 0-4-.902-4-3l-2-2-4-3c0 4.717 6.649 11.201 4 16.5-1.177 2.354-8 2.26-8 5.5l5.5-2 6.5 2Z"/><path fill="#CBC9C7" id="or" d="m117 158-1 1 1-1Z"/><path fill="#FE8D9F" id="PCN" d="m188 158 1 1-1-1Z"/><path fill="#FF6F80" id="TH" d="m326 158 1 1-1-1Z"/><path fill="#CCC8CA" id="ar" d="M328 159c1.628 0 1.628 10 0 10v-10Z"/><path fill="#CBC9C7" id="or" d="m116 160-1 1 1-1Z"/><path fill="#CCC8CA" id="ar" d="M129 167v3c-1.849 0-3.236-10-1-10 0 1.406-.714 7 1 7Z"/><path fill="#FE8D9F" id="PCN" d="m268 160-1 1 1-1ZM200 184c4.721 0 8.593 3 14 3v-4c-8.477 0-17-9.664-17-18-3.715 0-5.378-4-8-4 0 6.593 4.208 13.915 7 19.5l4 3.5ZM256 184c-4.553 0-8.704 3-14 3v-4c9.606 0 17-8.85 17-18 3.351 0 5.596-3 8-3 0 6.213-3.406 12.312-6 17.5l-5 4.5Z"/><path fill="#CCC" d="m361 168-1 1 1-1ZM96 169l1 1-1-1Z"/><path fill="#C7CACA" id="em" d="M135 181h2l-6-6.5c-.559-1.119-.155-4.5-2-4.5 0 2.593 2.629 9 5 9l1 1v1Z"/><path fill="#CCC8CA" id="ar" d="M327 171v1l1-2h-1v1Z"/><path fill="#CCC" d="m360 170-1 1 1-1ZM101 176l2 1v-3l-6-3v2l4 3Z"/><path fill="#C7CACA" id="em" d="M327 172c0 2.003.293 3-2 3l2-4v1Z"/><path fill="#CCC" d="M353 177h2l1-1 2-1 1-1v-2l-5 2-1 3Z"/><path fill="#97D6F9" id="STR" d="M106 207c-2.728 0-5.572 5-7 5 0-5.153-12-9.402-12-15 1.956 0 4.943 1 7.5 1 19.758 0 2.5-17.385 2.5-25l4 3c0 1.803 2.611 14 4 14 0 6.519 10 11.199 10 17l-2-1c0-3.237-6.302 1-7 1Z"/><path fill="#C8CBC7" id="st" d="M119 208c0 .716 2.373 3 0 3-2.226 0-4-1.774-4-4 0-5.801-10-10.481-10-17v-11c2.064 0 .426-3.353 1-4.5h6l-1 4.5c0 10.46 8 19.034 8 29ZM337 208v3c2.813 0 3.461-4 5-4l1-1c0-5.924 8-9.035 8-15l1-1v-1l-1-10c0-6.837-6-6.837-6 0 0 10.232-8 21.212-8 29Z"/><path fill="#97D6F9" id="STR" d="m359 174-1 1 1-1Z"/><path fill="#C7CACA" id="em" d="M321 180h1c0-1.947 3-2.636 3-5-1.811 0-4 3.438-4 5Z"/><path fill="#97D6F9" id="STR" d="m355 177-2 11c1.083 0 5-11.292 5-13l-2 1-1 1Z"/><path fill="#0D9F91" id="ECT2/3" d="M35 194h11c0-6.026-3-11.375-3-18h-3c-2.389 0-5.987 1-9 1 0 5.53 4 10.75 4 17Z"/><path fill="#0D9E90" id="ECT5" d="M47 195c4.869 0 9.648 1 14 1 0-6.548-5-12.142-5-19-4.569 0-8.923-1-13-1 0 6.625 3 11.974 3 18l1 1Z"/><path fill="#0E9F91" id="ECT6a" d="M61 196h8v-1c-1.58 0-1-2.855-1-4 0-5.172-1-10.365-1-15-3.642 0-8.002 1-11 1 0 6.858 5 12.452 5 19Z"/><path fill="#0E9F90" id="ECT6b" d="M69 181v14c-1.58 0-1-2.855-1-4 0-5.172-1-10.365-1-15h2v5Z"/><path fill="#97D6F9" id="STR" d="M72 178h1l-1-2v2Z"/><path fill="#CAC7CB" id="fiber tracts" d="M105 179v11c-1.389 0-4-12.197-4-14l2 1 2 2ZM356 176l-1 1 1-1Z"/><path fill="#0E9F90" id="ECT6b" d="M387 196h1c0-6.469 1-13.063 1-20h-1l-1 1v19Z"/><path fill="#0E9F91" id="ECT6a" d="M388 196h7l1-1c0-6.376 4-11.093 4-18 0-1.773-9.259-1-11-1 0 6.937-1 13.531-1 20Z"/><path fill="#0D9E90" id="ECT5" d="M396 195h13l1-1c0-5.557 4-12.015 4-18l-13 1h-1c0 6.907-4 11.624-4 18Z"/><path fill="#0D9F91" id="ECT2/3" d="M421 194h1c0-6.376 3-11.364 3-17-3.013 0-6.611-1-9-1h-2c0 5.985-4 12.443-4 18h11Z"/><path fill="#0D9F90" id="ECT1" d="M28 194h7c0-6.25-4-11.47-4-17l-6 1c0 2.801 3 4.85 3 8.5 0 1.115-2.541 7.5 0 7.5Z"/><path fill="#CAC7CB" id="fiber tracts" fill-rule="evenodd" d="M120 181c0 1.804-2.182 5.136-1 7.5 5.551 11.102 16.405 19.81 22 31l8 9c2.244 4.488 15.414 17.171 19 10 2.203-4.407-2.841-11.17-7.5-13.5-14.984-7.492-22.942-44-40.5-44m40 66h5c1.885 0 3.156-6 7-6v-10c-4.561 0-5.37-6.435-8.5-8-6.738-3.369-17.5-13.532-17.5-22-1.283 0-4-5.666-4-7l-6-7-1-1c-4.605 0-7.922-7-12-7l-4.5-2-7.5 2c0 10.46 8 19.034 8 29l4 2c0-3.648-6-8.39-6-12.5 0-3.692 4.39.39 5 1 3.258 3.258 4.858 6.858 8.5 10.5 4.306 4.306 22.5 24.189 22.5 29 0 1.517 5.623 9 7 9ZM333 181l-14 12.5c-3.341 6.681-8.282 14.565-12 22l-14 12c-2.141 2.141-8.816 9.842-3.5 12.5 5.648 2.824 10.948-4.948 15-9 8.701-8.701 23.64-24.779 28.5-34.5 1.942-3.883 8.77-15.5 0-15.5m-36 66c-2.124 0-4.436 1-6 1 0-2.864-2.928-7-6-7l-1-1v-8l1-1c2.718 0 6.009-5.509 8-7.5 4.819-4.819 18-14.802 18-22.5 0-2.087 3-4.393 3-7l1-1 6-7c4.842 0 7.773-7 12-7l5.5-2 6.5 2c0 10.232-8 21.212-8 29l-2 1 4-12.5c-.866-1.732-5.682 2.365-6 3L320.5 216 306 232.5c-.623.623-5.408 5.5-2 5.5l-7 9Z"/><path fill="#CAC7CB" id="fiber tracts" d="M352 189h1v-1l2-11h-2l-2 2 1 10Z"/><path fill="#97D6F9" id="STR" d="m383 178 2 1-1-2-1 1Z"/><path fill="#0D9F90" id="ECT1" d="M422 194h7l-1-10.5c.936-1.873 3-3.23 3-5.5l-5-1h-1c0 5.636-3 10.624-3 17Z"/><path fill="#90EB8D" id="LA" d="M79 237c0 1.698 1.768 8 4 8 0-6.477 2.694-24 9-24 0-4.202 6.279-4 9-4l-2-5c0-5.153-12-9.402-12-15h-1l-1-1c0-1.581-12-12.383-12-18h-1l-1 2c0 20.687 8 36.497 8 57ZM377 238c0 1.647-1.268 7-3 7 0-5.007-3.354-24-10-24 0-4.063-4.852-4-8-4v-1l1-4 2.5-3c1.628-.814 10.5-9.564 10.5-12 3.796 0 13-15.752 13-19l2 1v1c0 8.862-2 17.304-2 25-2.729 0-1.254 5.007-2 6.5-3.307 6.614-3 16.645-3 24.5l-1 2Z"/><path fill="#FF6F80" id="TH" d="m134 179 1 1-1-1Z"/><path fill="#FD8E9E" id="CM" d="M221 189h14l7-2v-4l-4-2-4.5-2c-4.602-2.301-10.842 2-14.5 2l-5 2v4l7 2Z"/><path fill="#C8C9CB" id="amc" d="m78 235 1 2c0-20.503-8-36.313-8-57l-2 1v15l1 2 3 6.5c3.396 6.792 4 18.489 4 26.5l1 4Z"/><path fill="#C7CACA" id="em" d="m321 180-1 1 1-1Z"/><path fill="#FF6F80" id="TH" d="M318 183h3l1-3h-1l-1 1-2 2Z"/><path fill="#C8C9CB" id="amc" d="m386 199-3 6c0-7.696 2-16.138 2-25l2 1v16l-1 2Z"/><path fill="#CCC" d="M120 181c0 1.804-2.182 5.136-1 7.5 5.551 11.102 16.405 19.81 22 31l8 9c2.244 4.488 15.414 17.171 19 10 2.203-4.407-2.841-11.17-7.5-13.5-14.984-7.492-22.942-44-40.5-44Z"/><path fill="#FF6F80" id="TH" d="m138 183-3 1v-3h2l1 2Z"/><path fill="#CCC" d="m333 181-14 12.5c-3.341 6.681-8.282 14.565-12 22l-14 12c-2.141 2.141-8.816 9.842-3.5 12.5 5.648 2.824 10.948-4.948 15-9 8.701-8.701 23.64-24.779 28.5-34.5 1.942-3.883 8.77-15.5 0-15.5Z"/><path fill="#F0483B" id="ZI" d="M194 212c0 11.825-17.3 3-23 3-3.848 0-6.592-6-11-6l-2-2-2-1c0-2.699-11.731-12-14-12l-6-7-1-2v-1l3-1c4.497 0 12.275 10 19 10l3.5 2c3.987 1.994 8.929 8 13.5 8 6.765 0 13.041 9 20 9Z"/><path fill="#FE8082" id="VPMpc" d="M189 193c4.046 0 10.225-2.137 14.5 0l7.5 4c8.971 0 10 6.559 10-8l-7-2c-5.407 0-9.279-3-14-3-2.274 0-13-3.284-13 2l2 7ZM268 193c-4.087 0-23-1.032-23 5-9.842 0-10 1.191-10-9l7-2c5.296 0 9.447-3 14-3 2.274 0 13-3.284 13 2l-1 7Z"/><path fill="#F0483B" id="ZI" d="M263 212c0 12.027 15.79 3 22 3 4.391 0 7.132-6 12-6v-1l2-1 1-1 1-1 1-1 1-1h1l1-1 1-1 8-7 1-1 6-7v-3h-3c-3.826 0-12.021 10-19 10 0 2.721-11.589 8-14 8 0 1.577-1.762 2-3 2l-19 9Z"/><path fill="#FF6F80" id="TH" d="m135 186 1 1-1-2v1Z"/><path fill="#FF7F82" id="VPLpc" d="M180 194v1c3.071 0 5.362-2 9-2l-2-7h-1l-5 7-1 1ZM277 194l1 2c-3.136 0-6.122-3-10-3l1-7h1l7 8Z"/><path fill="#FF6F80" id="TH" d="m211 209 15.5 1 2-2c1.125 0 2.557 2 4.5 2l11.5-1 3.5 2-4-4.5c-1.284-2.568 1-6.486 1-8.5-9.842 0-10 1.191-10-9h-14c0 14.559-1.029 8-10 8 0 2.63 3.513 5.475 2 8.5-.809 1.619-2 1.471-2 3.5Z"/><path fill="#97D6F9" id="STR" d="M350 207c1.704 0 7 2.715 7 5l2.5-3c1.628-.814 10.5-9.564 10.5-12-7.942 0-17 3.667-17-8h-1v1l-1 1c0 5.965-8 9.076-8 15 3.051 0 5.183 1 7 1Z"/><path fill="#CAC7CB" id="fiber tracts" d="m352 190-1 1 1-1Z"/><path fill="#FF6F80" id="TH" d="M180 195c-1.202 0-8.834 3.833-8 5.5l2 2.5c-4.571 0-9.513-6.006-13.5-8l-3.5-2c2.386 0 6 2.723 6-2 1.654 0 6.811 3.155 8.5 4l8.5-1v1Z"/><path fill="#FF7E84" id="VM" d="M194 212c1.819 0 4.591 1 7 1 0-3.341 5.699-2 7-2l2-1 1-1c0-2.029 1.191-1.881 2-3.5 1.513-3.025-2-5.87-2-8.5l-7.5-4c-4.275-2.137-10.454 0-14.5 0-3.638 0-5.929 2-9 2-1.202 0-8.834 3.833-8 5.5l2 2.5c6.765 0 13.041 9 20 9ZM263 212l-8 1c0-2.867-5.149-2-7-2l-4-4.5c-1.284-2.568 1-6.486 1-8.5 0-6.032 18.913-5 23-5 3.878 0 6.864 3 10 3 1.884 0 7 2.575 7 5-1.238 0-3 .423-3 2l-19 9Z"/><path fill="#FF6F80" id="TH" d="M278 196c1.884 0 7 2.575 7 5 2.411 0 14-5.279 14-8-1.293 0-6 1.962-6-1l-8.5 3-7.5-1 1 2ZM181 193l-1 1 1-1Z"/><path fill="#E64438" id="HY" d="m315 193-1 1 1-1Z"/><path fill="#0E9584" id="PERI1" d="m38 207-5 1c0-4.576-5-8.844-5-14h7c0 4.126 3 8.346 3 12v1Z"/><path fill="#0E9583" id="PERI2/3" d="m44 205-6 1c0-3.654-3-7.874-3-12h11l1 1 3 8c0 1.353-4.644 2-6 2Z"/><path fill="#E64438" id="HY" d="M146 201c0-3.423 9.081 5 10 5 0-2.699-11.731-12-14-12 0 1.334 2.717 7 4 7ZM306 201h5c0-2.087 3-4.393 3-7l-8 7Z"/><path fill="#0E9583" id="PERI2/3" d="M418 206h1c0-4.22 2-7.344 2-12h-11l-1 1c0 3.219-3 5.108-3 8 0 1.175 5.704 2 7 2l5 1Z"/><path fill="#0E9584" id="PERI1" d="m419 206 4 2c1.442 0 6-12.174 6-14h-8c0 4.656-2 7.78-2 12Z"/><path fill="#0F9684" id="PERI5" d="M50 203h1l9-2 2-1-1-4c-4.352 0-9.131-1-14-1l3 8Z"/><path fill="#0D9E90" id="ECT5" d="m396 195-1 1 1-1Z"/><path fill="#0F9684" id="PERI5" d="M405 203h1c0-2.892 3-4.781 3-8h-13l-1 1-1 4 3 1 8 2Z"/><path fill="#0E9684" id="PERI6a" d="M62 200h1l2-1c1.24 0 1.576-2 4-2v-1h-8l1 4Z"/><path fill="#219666" id="AIp6b" d="m69 197 1 1-1-2v1Z"/><path fill="#97D6F9" id="STR" d="m85 196 1 1-1-1Z"/><path fill="#CACCCB" id="opt" d="M126 215c4.96 0 20.725 23 27 23 0-4.811-18.194-24.694-22.5-29-3.642-3.642-5.242-7.242-8.5-10.5-.61-.61-5-4.692-5-1 0 4.11 6 8.852 6 12.5l1 3 1 1 1 1ZM330 215c-3.401 0-21.184 23-26 23-3.408 0 1.377-4.877 2-5.5l14.5-16.5 12.5-16.5c.318-.635 5.134-4.732 6-3l-4 12.5-1 1-1 1v1l-1 1-1 1-1 1Z"/><path fill="#0E9684" id="PERI6a" d="M393 200h1l1-4h-8v1c1.465 0 4-.109 4 2l2 1Z"/><path fill="#A0EE9C" id="EPd" d="M72 234h1l1-1h2l1-2c0-8.011-.604-19.708-4-26.5l-3-6.5-1-1c-2.424 0-2.76 2-4 2 0 6.772-.992 14.516 2 20.5.451.903 4.405 8.5 3.5 8.5-2.825 0-2.693-8-5.5-8l7 14Z"/><path fill="#219666" id="AIp6b" d="m387 197-1 2 1-2Z"/><path fill="#A0EE9C" id="EPd" fill-rule="evenodd" d="M385 227c0 1.93 1.93 0 0 0m0 6-1 1-2-1h-1l-1-4c0-8.839 3-15.818 3-24l3-6 1-2c1.465 0 4-.109 4 2 0 5.72 1.42 14.659-1 19.5l-4 8 3-1.5-4 8Z"/><path fill="#C9C8CA" id="ee" d="M65 219v1c2.807 0 2.675 8 5.5 8 .905 0-3.049-7.597-3.5-8.5-2.992-5.984-2-13.728-2-20.5l-2 1v13l1 2v1c1.473 0 1 1.952 1 3ZM390 223l-1 2-3 1.5 4-8c2.42-4.841 1-13.78 1-19.5l2 1v15l-1 1v2l-1 2v1l-1 2Z"/><path fill="#32B824" id="ENTl6a" d="M62 211h1v-11h-1l-2 1 2 10Z"/><path fill="#F1473B" id="STN" d="M171 223c0 2.097 1 5.293 1 8-4.561 0-5.37-6.435-8.5-8-6.738-3.369-17.5-13.532-17.5-22 0-3.423 9.081 5 10 5l2 1 2 2c0 5.111 11 8.087 11 14ZM284 230l1 1c2.718 0 6.009-5.509 8-7.5 4.819-4.819 18-14.802 18-22.5h-5l-1 1-1 1h-1l-1 1-1 1-1 1-1 1-2 1v1c0 3.526-12 10.004-12 15l-1 1v5Z"/><path fill="#32B824" id="ENTl6a" d="M393 211h1l3-10-3-1h-1v11Z"/><path fill="#31B824" id="ENTl5" d="m62 211-7 3c0-3.173-4-7.333-4-11l9-2 2 10Z"/><path fill="#FF6F80" id="TH" d="M285 201c-1.238 0-3 .423-3 2 1.238 0 3-.423 3-2Z"/><path fill="#E64438" id="HY" d="m306 201-1 1 1-1Z"/><path fill="#31B824" id="ENTl5" d="m394 211 8 3c0-3.751 3-6.819 3-11l-8-2-3 10Z"/><path fill="#E64438" id="HY" d="m305 202-1 1 1-1Z"/><path fill="#32B725" id="ENTl3" d="m55 214-8 2-3-11c1.356 0 6-.647 6-2h1c0 3.667 4 7.827 4 11Z"/><path fill="#E64438" id="HY" d="m303 203-1 1 1-1Z"/><path fill="#32B725" id="ENTl3" d="m402 214 7 2 4-11c-1.296 0-7-.825-7-2h-1c0 4.181-3 7.249-3 11Z"/><path fill="#E64438" id="HY" d="m302 204-1 1 1-1Z"/><path fill="#32B825" id="ENTl2" d="M47 216c0 .672-4.33 2-5 2l-4-11v-1l6-1 3 11Z"/><path fill="#80BEE1" id="CEAl" d="M106 207c0 4.342.845 14 8 14 3.828 0-1-14.213-1-15 0-3.237-6.302 1-7 1Z"/><path fill="#E64438" id="HY" d="m301 205-1 1 1-1Z"/><path fill="#80BEE1" id="CEAl" d="M350 207c0 5.247-.034 14-8 14v-14l1-1c3.051 0 5.183 1 7 1Z"/><path fill="#C8C9CB" id="amc" d="m379 234-1 2c0-7.855-.307-17.886 3-24.5.746-1.493-.729-6.5 2-6.5 0 8.182-3 15.161-3 24-1.643 0-1 3.765-1 5Z"/><path fill="#32B825" id="ENTl2" d="m409 216 5 2c0-3.698 4-7.573 4-12l-5-1-4 11Z"/><path fill="#7FC0E0" id="CEAm" d="m125 233-4 2c0-2.266-6.631-8-8-8l-2-2c2.098 0 3-1.939 3-4 3.828 0-1-14.213-1-15l2 1c0 2.226 1.774 4 4 4 0 1.238.423 3 2 3v2l1 1v2l1 1v4l1 1v2l1 2v4Z"/><path fill="#E64438" id="HY" d="m300 206-1 1 1-1Z"/><path fill="#7FC0E0" id="CEAm" d="m343 206-1 1 1-1Z"/><path fill="#32B722" id="ENTl1" d="m414 218 4 2 5-12-4-2h-1c0 4.427-4 8.302-4 12ZM42 218l-3 2-6-12 5-1 4 11Z"/><path fill="#80BFE0" id="CEAc" d="M110 225h1c2.098 0 3-1.939 3-4-7.155 0-8-9.658-8-14-2.728 0-5.572 5-7 5l2 5c1.935 0 6 4.065 6 6l3 2Z"/><path fill="#E64438" id="HY" d="m158 207 2 2-2-2ZM299 207l-2 1 2-1Z"/><path fill="#7FC0E0" id="CEAm" d="m336 234-1 1c-3.626 0-3-3.26-3-6v-2l1-1v-4l1-1 1-6 2-4c2.813 0 3.461-4 5-4v14l3 4-1 2c-1.763 0-7 4.012-7 6l-1 1Z"/><path fill="#80BFE0" id="CEAc" d="M345 225h2l2-2 1-1 1-1 4-4 1-1 1-4c0-2.285-5.296-5-7-5 0 5.247-.034 14-8 14l3 4Z"/><path fill="#97D6F9" id="STR" d="M124 213c-1.621 0-3-4.257-3 1-1.577 0-2-1.762-2-3 2.373 0 0-2.284 0-3l4 2 1 3Z"/><path fill="#E64438" id="HY" d="M227 226c0-3.15 2-3.446 2 0l2-1c0-9.267.781-8.641 7.5-12 1.047-.523 2.505-1.748 4-1l4.5 2 1-3-3.5-2-11.5 1c-1.943 0-3.375-2-4.5-2l-2 2-15.5-1-1 1-2 1 2 4c0-3.948 9.334-3.083 11.5-2 4.565 2.283 3.5 8.696 3.5 13h2Z"/><path fill="#97D6F9" id="STR" d="m337 211-2 4c0-1.145.579-4-1-4v-1l1-1 2-1v3Z"/><path fill="#CCCACB" id="nst" d="M175 219c0 1.082.667 7.084-1.5 6l-2.5-2c0-5.913-11-8.889-11-14 4.408 0 7.152 6 11 6l4 4Z"/><path fill="#FF6F80" id="TH" d="m211 209-1 1 1-1Z"/><path fill="#CCCACB" id="nst" d="m285 224-1 1c-3.236 0-3-2.435-3-5l1-1c.966 0 3-2.886 3-4 4.391 0 7.132-6 12-6 0 3.526-12 10.004-12 15Z"/><path fill="#CAC7CB" id="fiber tracts" d="m335 209-1 1 1-1Z"/><path fill="#C7C9CC" id="mtt" d="M210 215c0 4.819-2.534 6-7 6 0-2.885-2-4.697-2-8 0-3.341 5.699-2 7-2l2 4Z"/><path fill="#CAC7CB" id="fiber tracts" d="M333 211h1v-1l-1 1Z"/><path fill="#6ACAB9" id="PIR" d="m86 275-2 3.5c-1.24 1.241-7 10.901-7 12.5-4.255 0-10.047-11.595-12-15.5-3.525-7.05-8.511-13.022-12-20-3.31-6.618-4.704-14.408-8-21-1.989-3.978-6-9.922-6-14.5l3-2c.67 0 5-1.328 5-2l8-2 7-3h1v2l1 2v1c0 1.048-.473 3 1 3v1l7 14 1 1c0 7.133 4.97 14.442 8 20.5.695 1.39 2.272 8.5 4 8.5v3l1 1v7Z"/><path fill="#80BFE1" id="MEA" d="M131 268c0 4.628 6 8.878 6 13 6.894 0 22.07-16.641 25-22.5 1.749-3.497-2-8.3-2-11.5-1.377 0-7-7.483-7-9-6.275 0-22.04-23-27-23l-1-1-1-1c-1.621 0-3-4.257-3 1v2l1 1v2l1 1v4l1 1v2l1 2v4c2.238 0 2 9.802 2 12v2l1 6c0 4.553 3 9.718 3 15Z"/><path fill="#C7C9CC" id="mtt" d="M247 214c0 4.786.844 7 6 7 0-2.338 2-4.862 2-8 0-2.867-5.149-2-7-2l-1 3Z"/><path fill="#97D6F9" id="STR" d="m334 211-1 1v-1h1Z"/><path fill="#80BFE1" id="MEA" d="m326 267-6 14c-4.64 0-22.916-15.332-25-19.5-1.967-3.934 2-12.498 2-14.5l7-9c4.816 0 22.599-23 26-23l1-1 1-1 1-1 1-1c1.579 0 1 2.855 1 4l-1 6-1 1v4l-1 1v2c-2.144 0-.381 4.262-1 5.5-1.874 3.749-2 6.916-2 11.5v7c-3.121 0-3 11.316-3 14Z"/><path fill="#8AD987" id="CTXsp" d="m394 211-1 2v-2h1Z"/><path fill="#6ACAB9" id="PIR" d="M371 275c0 3.038 6.429 16 9 16 1.917 0 10.004-12.508 11-14.5 3.52-7.04 8.522-13.044 12-20 3.309-6.618 4.704-14.408 8-21l7-15.5-4-2-5-2-7-2-8-3-1 2v2l-1 1v2l-1 2v1l-1 2-1 2-4 8-1 1-1 1c0 9.475-11 23.549-11 29l-1 1v3l-1 2v1l1 4Z"/><path fill="#E64438" id="HY" d="M181 223c0-6.883 18-4.47 18 3l4-5c0-2.885-2-4.697-2-8-2.409 0-5.181-1-7-1 0 11.825-17.3 3-23 3l4 4 6 4Z"/><path fill="#FD4B3C" id="PH" d="M211 247h1l1-1 8-3 3-3c0-4.725 1-9.879 1-14 0-4.304 1.065-10.717-3.5-13-2.166-1.083-11.5-1.948-11.5 2 0 4.819-2.534 6-7 6l-4 5c0 7.628-4 14.08-4 21l3.5 2c3.845 0 8.047-2 12.5-2ZM246 247h15c0-7.725-4-13.836-4-22l-4-4c-5.156 0-6-2.214-6-7l-4.5-2c-1.495-.748-2.953.477-4 1-6.719 3.359-7.5 2.733-7.5 12 0 4.121 1 9.275 1 14l4 4 8 3 1 1h1Z"/><path fill="#E64438" id="HY" d="M275 223c0-6.614-11.43-3.535-14.5-2l-3.5 4-4-4c0-2.338 2-4.862 2-8l8-1c0 12.027 15.79 3 22 3 0 1.114-2.034 4-3 4l-1 1-6 3Z"/><path fill="#97D6F9" id="STR" d="m333 212-1 1 1-1Z"/><path fill="#8AD987" id="CTXsp" d="m63 213 1 2-1-2Z"/><path fill="#97D6F9" id="STR" d="m332 213-1 1 1-1ZM125 214l1 1-1-1ZM331 214l-1 1 1-1Z"/><path fill="#A0EE9C" id="EPd" d="m393 215-1 1 1-1ZM64 216c1.473 0 1 1.952 1 3-1.473 0-1-1.952-1-3Z"/><path fill="#97D6F9" id="STR" d="m121 216 1 1-1-1Z"/><path fill="#C8CBCC" id="ec" d="M355 217h1v-1l-1 1Z"/><path fill="#9DE79B" id="BLAa" d="M113 236c-3.479 0-6.863 5-11 5-1.816 0-2.392-4.284-3-5.5-2.158-4.315-7-9.434-7-14.5 0-4.202 6.279-4 9-4 0 1.198 4.298 6 6 6l3 2 2 4v1l1 1v5Z"/><path fill="#C8CBCC" id="ec" d="M101 217c1.935 0 6 4.065 6 6-1.702 0-6-4.802-6-6ZM355 218c0 1.712-2.571 3-4 3l4-4v1Z"/><path fill="#90EB8D" id="LA" d="m356 217-1 1v-1h1Z"/><path fill="#9DE79B" id="BLAa" d="M344 236c2.955 0 6.349 5 10 5 1.579 0 10-17.364 10-20 0-4.063-4.852-4-8-4l-1 1c0 1.712-2.571 3-4 3l-1 1-1 1-2 2-2 4-1 1v1l-1 1v3l1 1Z"/><path fill="#A0EE9C" id="EPd" d="m392 218-1 2 1-2Z"/><path fill="#97D6F9" id="STR" d="m122 219 1 1-1-1Z"/><path fill="#F1483A" id="PSTN" d="M172 240h1c12.106 0 8-11.718 8-17l-6-4c0 1.082.667 7.084-1.5 6l-2.5-2c0 2.097 1 5.293 1 8v9Z"/><path fill="#F2483A" id="LHA" d="M171 258h3l10-2 3-1c0-3.591 3.117-4 6-4 2.109 0 2-2.535 2-4 0-6.92 4-13.372 4-21 0-7.47-18-9.883-18-3 0 5.282 4.106 17-8 17l-1 1c-3.844 0-5.115 6-7 6 0 2.04 3.508 11 6 11ZM282 258h3c3.296 0 6-7.663 6-10 0-2.864-2.928-7-6-7l-1-1c-10.755 0-9-10.174-9-17 0-6.614-11.43-3.535-14.5-2l-3.5 4c0 8.164 4 14.275 4 22l2 4c2.829 0 7 .549 7 4l2 1 10 2Z"/><path fill="#F1483A" id="PSTN" d="m282 219-1 1 1-1ZM284 232v8c-10.755 0-9-10.174-9-17l6-3c0 2.565-.236 5 3 5v7Z"/><path fill="#9DE69C" id="BLAp" d="m87 251 2 1 5-2 3-2 5-7c-1.816 0-2.392-4.284-3-5.5-2.158-4.315-7-9.434-7-14.5-6.306 0-9 17.523-9 24 0 1.417 2.383 6 4 6Z"/><path fill="#97D6F9" id="STR" d="m334 221-1 1 1-1Z"/><path fill="#C8CBCC" id="ec" d="m351 221-1 1 1-1Z"/><path fill="#9DE69C" id="BLAp" d="m369 251-1 1-6-2c0-1.577-1.762-2-3-2l-5-7c1.579 0 10-17.364 10-20 6.646 0 10 18.993 10 24l-1 1c0 1.247-2.467 5-4 5Z"/><path fill="#A0EE9C" id="EPd" d="m391 221-1 2 1-2Z"/><path fill="#C8CBCC" id="ec" d="m350 222-1 1 1-1Z"/><path fill="#A8A9AA" id="V3" d="M225 289c0 1.587 6 1.587 6 0 0-6.271-2-12.905-2-20v-43c0-3.446-2-3.15-2 0v58.5l-2 4.5Z"/><path fill="#A0EE9C" id="EPd" d="m390 223-1 2 1-2Z"/><path fill="#97D6F9" id="STR" d="m123 224 1 1-1-1Z"/><path fill="#F1483A" id="PSTN" d="m285 224-1 1 1-1Z"/><path fill="#97D6F9" id="STR" d="m113 227-1 2-2-4h1l2 2Z"/><path fill="#FD5D50" id="PVi" d="M229 269h3v-30c0-4.725-1-9.879-1-14l-2 1v43Z"/><path fill="#97D6F9" id="STR" d="M344 229h1l2-4h-2l-1 2v2Z"/><path fill="#FD5D50" id="PVi" d="M224 269h3v-43h-2c0 4.121-1 9.275-1 14v29Z"/><path fill="#97D6F9" id="STR" d="m333 226-1 1 1-1Z"/><path fill="#80BEE2" id="IA" d="M121 241h1c0-2.011-1-3.989-1-6 0-2.266-6.631-8-8-8l-1 2v1l1 1v3c1.577 0 2 1.762 2 3 1.431 0 3.1 4 6 4Z"/><path fill="#97D6F9" id="STR" d="m124 227 1 2-1-2Z"/><path fill="#80BEE2" id="IA" d="M335 241h1c1.562 0 5-2.189 5-4l1-1 1-1v-3l1-1v-4c-1.763 0-7 4.012-7 6l-1 1-1 1c0 .986-2.515 6 0 6Z"/><path fill="#C9C8CA" id="ee" d="M385 227c0 1.93 1.93 0 0 0Z"/><path fill="#97D6F9" id="STR" d="M329 246h1l1-1 1-1 1-1 2-1v-1c-2.515 0 0-5.014 0-6-3.626 0-3-3.26-3-6-2.144 0-.381 4.262-1 5.5-1.874 3.749-2 6.916-2 11.5Z"/><path fill="#8AD987" id="CTXsp" d="m345 229-1 1v-1h1ZM381 233l-2 1c0-1.235-.643-5 1-5l1 4ZM112 230l1 1-1-1Z"/><path fill="#E64438" id="HY" d="m285 231-1 1v-2l1 1Z"/><path fill="#8AD987" id="CTXsp" d="m76 233 2 2-1-4-1 2ZM344 231l-1 1 1-1ZM74 233l-1 1 1-1Z"/><path fill="#A0ED9D" id="EPv" d="M85 264h1l1-11v-2c-1.617 0-4-4.583-4-6-2.232 0-4-6.302-4-8l-1-2-2-2h-2l-1 1v1c0 7.133 4.97 14.442 8 20.5.695 1.39 2.272 8.5 4 8.5Z"/><path fill="#97D6F9" id="STR" d="M122 241c0 1.811 3.438 4 5 4 0-2.198.238-12-2-12l-4 2c0 2.011 1 3.989 1 6ZM337 233l-1 1 1-1Z"/><path fill="#A0ED9D" id="EPv" d="M371 264h1c0-5.451 11-19.525 11-29l-1-2h-1l-2 1-1 2-1 2c0 1.647-1.268 7-3 7l-1 1c0 1.247-2.467 5-4 5v2l2 11Z"/><path fill="#8AD987" id="CTXsp" d="m384 234-1 1-1-2 2 1ZM385 233l-1 1 1-1ZM73 234v1l-1-1h1ZM113 236l2 1c0-1.238-.423-3-2-3v2Z"/><path fill="#97D6F9" id="STR" d="m336 234-1 1 1-1Z"/><path fill="#8AD987" id="CTXsp" d="M342 236h2l-1-1-1 1Z"/><path fill="#84E981" id="BMAp" d="m107 265 3 1c4.463 0 16.244-13 18-13l-1-6c-1.702 0-6-4.802-6-6-2.9 0-4.569-4-6-4l-2-1c-3.479 0-6.863 5-11 5l-5 7v2c0 2.883 10 10.553 10 15Z"/><path fill="#8AD987" id="CTXsp" d="m342 236-1 1 1-1Z"/><path fill="#84E981" id="BMAp" d="M346 266h3c0-1.982 8.909-15 10-15v-3l-5-7c-3.651 0-7.045-5-10-5h-2l-1 1c0 1.811-3.438 4-5 4l-1 1-2 1-1 1-1 1-1 1-1 1v6c0 1.91 14.874 13 17 13Z"/><path fill="#C8C9CB" id="amc" d="m378 236-1 2 1-2Z"/><path fill="#E64438" id="HY" d="m236 243-4 1v-5l4 4ZM173 240l-1 1v-1h1ZM221 243h3v-3l-3 3ZM284 240l1 1-1-1Z"/><path fill="#8AD987" id="CTXsp" d="M127 245v2c-1.702 0-6-4.802-6-6h1c0 1.811 3.438 4 5 4ZM336 241l-1 1v-1h1ZM335 242l-2 1 2-1Z"/><path fill="#FE5445" id="DMH" d="M211 247h1l1-1 8-3h3v26c-5.847 0-19-2.916-19-10.5 0-3.519 6-11.38 6-11.5ZM232 269h1c5.164 0 22.301-4.898 18-13.5-.793-1.586-5-7.094-5-8.5h-1l-1-1-8-3-4 1v25Z"/><path fill="#8AD987" id="CTXsp" d="m333 243-1 1 1-1ZM332 244l-1 1 1-1ZM331 245l-1 1 1-1Z"/><path fill="#90EB8D" id="LA" d="m374 245-1 1 1-1Z"/><path fill="#E64438" id="HY" d="m213 246-1 1 1-1ZM244 246l1 1-1-1Z"/><path fill="#8AD987" id="CTXsp" d="m330 246-1 1v-1h1Z"/><path fill="#E64438" id="HY" d="m207 288 2 1c0-9.638 15-16.684 15-20-5.847 0-19-2.916-19-10.5 0-3.519 6-11.38 6-11.5-4.453 0-8.655 2-12.5 2l-3.5-2c0 1.465.109 4-2 4l2 3.5c-1.656 3.313-8 5.23-8 .5l-3 1c0 .701 7.846 5.193 9 7.5 1.052 2.103 3.407 13.5 6 13.5 0-13.845 26.785-12.285 11 3.5-1.791 1.791-3.451 2.5-6 2.5 0 2.297 3 1.849 3 5ZM249 288l-2 1c0-11.812-14-16.191-14-20 5.164 0 22.301-4.898 18-13.5-.793-1.586-5-7.094-5-8.5h15l2 4c0 4.371-1.418 7 5 7l-3 3.5c-1.058 2.117-7.191 16.5-8 16.5 0-5.471-1.094-6.797-5.5-9-15.066-7.533-11.823 14 1.5 14 0 1.539-4 2.187-4 5Z"/><path fill="#8AD987" id="CTXsp" d="M94 250h3v-2l-3 2ZM362 250l-3 1v-3c1.238 0 3 .423 3 2Z"/><path fill="#9CE79C" id="BLAv" d="M95 278h3l1-1 6-4 1-1 2-4-1-3c0-4.447-10-12.117-10-15h-3l-5 2-2 1-1 11v6l2 4c2.117 0 4.428 4 7 4ZM358 277l3 1 6-3 1-1 2-3v-1l1-2v-4l-2-11-1-1-6-2-3 1c-1.091 0-10 13.018-10 15v3l2 4c2.785 0 3.54 4 7 4Z"/><path fill="#8AD987" id="CTXsp" d="m89 252-2 1v-2l2 1Z"/><path fill="#C7C8CA" id="fx" d="M193 251c-2.883 0-6 .409-6 4 0 4.73 6.344 2.813 8-.5l-2-3.5ZM269 257l-1 1c-6.418 0-5-2.629-5-7 2.829 0 7 .549 7 4l-1 2Z"/><path fill="#8AD987" id="CTXsp" d="m368 252 1 1v-2l-1 1Z"/><path fill="#97EC93" id="PA" d="M106 272h9l3.5-3 6-2c2.161-1.081 4.894 1 6.5 1 0-5.282-3-10.447-3-15-1.756 0-13.537 13-18 13l-2 2-2 4ZM341 272l6.5-1 3.5 2-2-4-3-3c-2.126 0-17-11.09-17-13-3.121 0-3 11.316-3 14 3.227 0 15 .898 15 5Z"/><path fill="#E64438" id="HY" d="M272 256c0 1.473-1.952 1-3 1l1-2 2 1Z"/><path fill="#F24839" id="TU" d="M204 283c0 2.297 3 1.849 3 5-15.355 0-19.82-6.139-26-18.5-.815-1.63-7-4.864-7-7.5v-4l10-2c0 .701 7.846 5.193 9 7.5 1.052 2.103 3.407 13.5 6 13.5v2l4 4h1ZM253 283c0 1.539-4 2.187-4 5 15.686 0 19.662-4.824 26-17.5 1.627-3.253 8-5.791 8-9.5l-1-3-10-2c0 1.473-1.952 1-3 1l-1 1-3 3.5c-1.058 2.117-7.191 16.5-8 16.5 0 1.429-1.288 4-3 4l-1 1Z"/><path fill="#E64438" id="HY" d="m269 257-1 1 1-1ZM174 258v4l-3-4h3ZM285 258c0 1.238-.423 3-2 3l-1-3h3Z"/><path fill="#8AD987" id="CTXsp" d="M85 267h1v-3h-1v3ZM372 264l-1 1v-1h1ZM110 266l-2 2-1-3 3 1ZM349 266v3l-3-3h3Z"/><path fill="#99D2BD" id="OLF" d="M86 267v1l-1-1h1Z"/><path fill="#60E6B5" id="COApm" d="m137 281-4 2.5c-1.013 2.026-9.148 8.5-12 8.5 0-7.08-6-12.432-6-20l3.5-3 6-2c2.161-1.081 4.894 1 6.5 1 0 4.628 6 8.878 6 13Z"/><path fill="#FF4A3D" id="VMH" d="M203 283h1c2.549 0 4.209-.709 6-2.5 15.785-15.785-11-17.345-11-3.5v2l4 4ZM254 282l-1 1c-13.323 0-16.566-21.533-1.5-14 4.406 2.203 5.5 3.529 5.5 9 0 1.429-1.288 4-3 4Z"/><path fill="#60E6B5" id="COApm" d="m320 281 3.5 3 11.5 8c0-6.009 6-12.266 6-20 0-4.102-11.773-5-15-5l-6 14Z"/><path fill="#99D2BD" id="OLF" d="m371 268-1 2 1-2Z"/><path fill="#FF5B4F" id="ARH" d="m217 290-1 1-7-2c0-9.638 15-16.684 15-20h3v15.5l-2 4.5h-1l-1-1c-1.091 0-6-.922-6 2ZM239 290l1 1 7-2c0-11.812-14-16.191-14-20h-4c0 7.095 2 13.729 2 20 1.593 0 8-4.675 8 1Z"/><path fill="#99D2BD" id="OLF" d="m88 274-2 1v-5l2 4Z"/><path fill="#5FE6B7" id="COApl" d="M95 299v1c5.205 0 26-2.388 26-8 0-7.08-6-12.432-6-20h-9l-1 1-6 4-1 1-1 2c0 2.891 1.13 19-2 19ZM361 299v1c-5.203 0-26-2.603-26-8 0-6.009 6-12.266 6-20l6.5-1 3.5 2c2.785 0 3.54 4 7 4l1 4c0 6.365 2 12.504 2 18Z"/><path fill="#99D2BD" id="OLF" d="m368 274 3 1-1-4-2 3Z"/><path fill="#97EC93" id="PA" d="m106 272-1 1 1-1Z"/><path fill="#59D9AA" id="PAA" d="M94 299h1c3.13 0 2-16.109 2-19l-2-2c-2.572 0-4.883-4-7-4l-2 1-2 3.5c-1.24 1.241-7 10.901-7 12.5 0 5.156 12.584 8 17 8Z"/><path fill="#99D2BD" id="OLF" d="m368 274-1 1 1-1Z"/><path fill="#59D9AA" id="PAA" d="M361 299h2c3.284 0 17-4.378 17-8-2.571 0-9-12.962-9-16l-3-1-1 1-6 3-2 3c0 6.365 2 12.504 2 18Z"/><path fill="#99D2BD" id="OLF" d="m99 277-1 1 1-1ZM361 278l-2 3-1-4 3 1ZM98 278l-1 2-2-2h3Z"/><path fill="#E64438" id="HY" d="m199 279 4 4-4-4ZM254 282l-1 1 1-1Z"/><path fill="#F1473A" id="ME" d="M217 291c0 8.204 22 8.656 22 0v-1c0-5.675-6.407-1-8-1 0 1.587-6 1.587-6 0h-1l-1-1c-1.091 0-6-.922-6 2v1Z"/><path fill="#E64438" id="HY" d="m223 288 1 1-1-1ZM216 291h1v-1l-1 1ZM239 291h1l-1-1v1Z"/><path fill="#99D2BD" id="OLF" d="M95 299v1l-1-1h1ZM363 299l-2 1v-1h2Z"/></svg>