<svg xmlns="http://www.w3.org/2000/svg" viewBox="0 0 456 320"><path fill="#FCFB90" id="CUL4, 5" d="M230 65h2l1-1 1-1 1-2c0-1.238.423-3 2-3 0-1.238.423-3 2-3l1-1 1-1v-1l1-1 1-1 1-1 1-1 2-1c0-8.323-38-7.848-38 0 1.429 0 4 1.288 4 3 3.569 0 6.899 8.298 8 10.5l4 4.5c0 1.93 1.161 0 2 0 0-2.373 2.284 0 3 0Z"/><path fill="#FE79FE" id="ICe" fill-rule="evenodd" d="m185 69-4 7.5c-1.83 3.66 2.195 10.653 6.5 8.5 6.217-3.108 5.557-16-2.5-16m-22-9c0 11.185-4.645 28.428 8.5 35 3.066 1.533 6.559 6.22 11 4 2.68-1.34 14.535-8 16.5-8l-5-4.5c-.558-1.116-3.244-21.511-3-22 1.564-3.128 16-14.684 16-15.5l-4-4c-7.394 0-16.334-1.083-22.5 2-2.212 1.106-9.411 6-11.5 6l-1 1-1 1-1 1-1 1-1 1-1 2Z"/><path fill="#FF64FF" id="MB" d="M281 106h1l3-1h1l1-1 1-1 1-1v-1l1-1 1-3 1-1v-1l1-1v-2l1-1v-1l1-1v-2l1-1 1-1v-1l1-2c0-1.234-.643-5 1-5v-4c-1.684 0-1-4.68-1-6v-1l-6-8 3 6.5c3.503 7.006-2.373 20.746-5 26-5.671 11.343-16.426 8.537-24.5 4.5-1.403-.702-8.5-3.383-8.5-5-2.777 0-4.162-3.831-6.5-5-7.741-3.87-18.264-13.972-13.5-23.5l4-5c1.418-2.837 5.524-7.5 9-7.5l3-4-6 2-2 1-1 1-1 1-1 1-1 1v1l-1 1-1 1c0 1.238-.423 3-2 3 0 1.238-.423 3-2 3l-1 2-1 1-1 1h-2c0 2.197-3 2.868-3 0-.839 0-2 1.93-2 0-1.168 0-12-14.057-12-15 0-1.712-2.571-3-4-3-1.974 0-3.517-2-6-2l4 4c4.364 0 15.908 15.684 14 19.5-1.648 3.296-8 9.726-8 12.5h2l1-1 1-1 1-1 1-1c0-1.577 1.762-2 3-2l1-1 1-1 1-1h6l1 1h1l6 5 1 1 6 6 1 1 1 1 1 1 1 1h1l4 4h1l2 2h1l2 2h1l2 2h1l4 2h2l2 2h2l1 1h1l1 1h2l1 1Z"/><path fill="#FE79FE" id="ICe" fill-rule="evenodd" d="m268 69-3 6.5v6c6.862 13.725 17.877-12.5 3-12.5m24-11 3 6.5c3.503 7.006-2.373 20.746-5 26-5.671 11.343-16.426 8.537-24.5 4.5-1.403-.702-8.5-3.383-8.5-5 1.51 0 5.272-2.044 6-3.5v-11c1.246-2.491 3.673-8.653 2-12-1.622-3.243-15-11.838-15-14.5l3-4c7.657 0 17.106-1.197 23.5 2l7 3 3.5 3 2 2h1l1 1 1 2Z"/><path fill="#F0F080" id="CB" d="m245 48-1 1 1-1Z"/><path fill="#FE79FF" id="ICd" d="M213 81c-5.239 0-10.352 10-14 10l-5-4.5c-.558-1.116-3.244-21.511-3-22 1.564-3.128 16-14.684 16-15.5 4.364 0 15.908 15.684 14 19.5-1.648 3.296-8 9.726-8 12.5Z"/><path fill="#F0F080" id="CB" d="m244 49-1 1 1-1Z"/><path fill="#FE79FF" id="ICd" d="M250 49c-3.476 0-7.582 4.663-9 7.5l-4 5c-4.764 9.528 5.759 19.63 13.5 23.5 2.338 1.169 3.723 5 6.5 5 1.51 0 5.272-2.044 6-3.5v-11c1.246-2.491 3.673-8.653 2-12-1.622-3.243-15-11.838-15-14.5Z"/><path fill="#F0F080" id="CB" d="M213 50c3.569 0 6.899 8.298 8 10.5l4 4.5c-1.168 0-12-14.057-12-15ZM243 50l-1 1 1-1ZM242 51l-1 1 1-1Z"/><path fill="#FF64FF" id="MB" d="m169 53-1 1 1-1Z"/><path fill="#F0F080" id="CB" d="m241 53-1 1 1-1Z"/><path fill="#FF64FF" id="MB" d="m287 53 2 2-2-2ZM168 54l-1 1 1-1Z"/><path fill="#F0F080" id="CB" d="m240 54-1 1 1-1Z"/><path fill="#FF64FF" id="MB" d="m167 55-1 1 1-1Z"/><path fill="#F0F080" id="CB" d="M239 55c-1.577 0-2 1.762-2 3 1.577 0 2-1.762 2-3Z"/><path fill="#FF64FF" id="MB" d="m290 55 1 1-1-1ZM166 56l-1 1 1-1Z"/><path fill="#FDFB8F" id="SIM" d="M133 150c-3.124 0-8.377.746-10-2.5-3.218-6.436 2.911-32.821 6-39 .724-1.447 2.483-16.5-.5-16.5l-2.5 10.5c-3.659 7.319-7 27.369-7 36 0 2.323-1.564 12.5-4 12.5-5.721 0-8.61-15.72-10-18.5-7.15-14.299-5-29.506-5-46.5l3-4.5c7.108-14.216 25.838-17.67 39.5-24.5 5.886-2.943 15.5 4.521 15.5 10v1c-1.788 0-1 11.092-1 13-2.421 0-4.959 12.419-6 14.5-4.571 9.143-9.47 17.94-14 27-2.786 5.573.758 14.484-2 20-.946 1.892-2 5.372-2 7.5Z"/><path fill="#FF64FF" id="MB" d="m165 57-1 1 1-1Z"/><path fill="#FDFB8F" id="SIM" d="M324 150c3.583 0 8.118.264 10-3.5 2.632-5.265-4.632-35.265-7-40-1.55-3.101-1.504-9.992 0-13l.5-2.5.5 2.5c1.949 3.898 1.114 9.228 3 13 4.071 8.142 1.973 18.947 6 27v7l4 11.5c4.999 0 8.567-14.633 10-17.5 7.509-15.019 5-31.138 5-48.5 0-13.258-32.071-24.285-41.5-29-5.653-2.827-16.5 5.806-16.5 9v1c1.684 0 1 4.68 1 6v8c1.788 0 5.907 13.314 7 15.5 4.216 8.432 8.813 16.627 13 25 2.672 5.344-.619 13.763 2 19l3 9.5Z"/><path fill="#FF64FF" id="MB" d="m164 58-1 2 1-2Z"/><path fill="#F0F080" id="CB" d="M237 58c-1.577 0-2 1.762-2 3 1.577 0 2-1.762 2-3Z"/><path fill="#FF64FF" id="MB" d="M177 105h1l2-1 1-1h2l1-1 4-1 1-1h1l1-1h1l1-1 2-1 2-1 1-1h1l1-1 1-1 1-1 1-1h1l1-1 1-1 1-1 1-1 1-1 1-1 1-1 1-1 1-1v-1c-5.239 0-10.352 10-14 10-1.965 0-13.82 6.66-16.5 8-4.441 2.22-7.934-2.467-11-4-13.145-6.572-8.5-23.815-8.5-35-3.018 0-2.618 7-5 7v1c0 5.039 1 10.575 1 15v1c1.577 0 2 1.762 2 3v1c1.577 0 2 1.762 2 3v2l2 4v1l2 2v1c2.92 0 4.233 5 8 5l2-1Z"/><path fill="#F0F080" id="CB" d="m235 61-1 2 1-2ZM234 63l-1 1 1-1ZM233 64l-1 1 1-1ZM298 67c1.684 0 1 4.68 1 6-1.684 0-1-4.68-1-6ZM157 81l2 2c0-4.425-1-9.961-1-15-1.788 0-1 11.092-1 13Z"/><path fill="#FE7AFE" id="ICc" d="m185 69-4 7.5c-1.83 3.66 2.195 10.653 6.5 8.5 6.217-3.108 5.557-16-2.5-16ZM268 69l-3 6.5v6c6.862 13.725 17.877-12.5 3-12.5Z"/><path fill="#F0F080" id="CB" d="m225 72-1 1 1-1Z"/><path fill="#FFFC8E" id="CENT3" d="M178 149h1c0-1.353 4.643-2 6-2 0-5.49-7.123-8.254-3-16.5 1.366-2.733 13.555-8.028 16.5-9.5 21.07-10.535 37.953-10.524 59 0l16.5 8.5c4.531 9.061-3 13.893-3 17.5 9.226 0 15.964 6.768 25.5 2l2.5-4.5c1.702-1.702 5-.082 5-3.5-5.694 0-19-27.822-19-34-1.048 0-3 .473-3-1h-1l-1-1h-2l-1-1h-1l-1-1h-2l-2-2h-2l-4-2h-1l-2-2h-1l-2-2h-1l-2-2h-1l-4-4h-1l-1-1-1-1-1-1-1-1-6-6-1-1c-2.195 0-6-3.089-6-5h-1l-1-1h-6l-1 1-1 1-1 1c0 1.577-1.762 2-3 2l-1 1-1 1-1 1-1 1h-1l-1 1-1 1-1 1-1 1-1 1-1 1-1 1-1 1-1 1-1 1h-1l-1 1-1 1-1 1-1 1h-1l-1 1-2 1-2 1-1 1h-1l-1 1h-1l-1 1-4 1-1 1h-2l-1 1-2 1h-1l-2 1c0 1.473-1.952 1-3 1 0 10.216-8.706 17.913-13 26.5l-7 7.5c0 3.327 3.911 2.205 5.5 3l2 5c6.944 3.472 11.83 0 18.5 0Z"/><path fill="#F0F080" id="CB" d="m231 72 1 1-1-1ZM224 73l-1 1 1-1ZM233 73l6 5c-2.195 0-6-3.089-6-5ZM223 74l-1 1 1-1ZM222 75c-1.238 0-3 .423-3 2 1.238 0 3-.423 3-2ZM219 77l-1 1 1-1ZM299 81l-1 1c0-1.234-.643-5 1-5v4ZM218 78l-1 1 1-1ZM240 79l6 6-6-6ZM216 80l-1 1 1-1Z"/><path fill="#FCFB90" id="CUL4, 5" d="m152 141 1-13.5-.5-4.5c-2.411 0-.758 10.016-1.5 11.5-4.021 8.042-7.147 15.5-18 15.5 0-2.128 1.054-5.608 2-7.5 2.758-5.516-.786-14.427 2-20 4.53-9.06 9.429-17.857 14-27 1.041-2.081 3.579-14.5 6-14.5l2 2v1l2 3v1l2 3v2l2 4v1l2 2v1l5 6c0 10.216-8.706 17.913-13 26.5l-7 7.5Z"/><path fill="#F0F080" id="CB" d="m214 81-1 1v-1h1Z"/><path fill="#FCFB90" id="CUL4, 5" d="M304 141c1.991 0-.136-13.773-1-15.5l.5-2.5c2.604 0 1.676 11.852 2.5 13.5 3.808 7.615 8.295 13.5 18 13.5l-3-9.5c-2.619-5.237.672-13.656-2-19-4.187-8.373-8.784-16.568-13-25-1.093-2.186-5.212-15.5-7-15.5l-1 1-1 2v1l-1 1-1 1v2l-1 1v1l-1 1v2l-1 1v1l-1 1-1 3-1 1v1l-1 1-1 1-1 1h-1v2c0 6.178 13.306 34 19 34Z"/><path fill="#F0F080" id="CB" d="m298 82-1 2 1-2ZM212 83l-1 1 1-1ZM159 84c1.577 0 2 1.762 2 3l-2-3ZM210 85l-1 1 1-1ZM297 85l-1 1 1-1Z"/><path fill="#FCFC90" id="ANcr1" d="M95 162c0 1.643-3.766 1-5 1 0-2.825-5.863-3.181-7.5-4-5.859-2.929-11.207-5.914-14.5-12.5-5.703-11.405-2.224-24.552 3-35l8-10C82.559 94.383 92.155 86 100 86c0 16.994-2.15 32.201 5 46.5 1.39 2.78 4.279 18.5 10 18.5 0 2.603-2.564 5.032-4.5 6-5.508 2.754-13.41 2.795-19 0l-2-2-.5 2.5 6 4.5Z"/><path fill="#F0F080" id="CB" d="m209 86-1 1 1-1ZM247 86l1 1-1-1ZM296 86l-1 1 1-1Z"/><path fill="#FCFC90" id="ANcr1" d="M362 162c0 1.643 3.765 1 5 1 0-4.174 9.544-4.522 12.5-6 3.558-1.779 7.904-8.308 9.5-11.5 9.629-19.258-14.175-59.5-33-59.5 0 17.362 2.509 33.481-5 48.5-1.433 2.867-5.001 17.5-10 17.5l3 3.5c9.411 9.411 16.669-.5 23.5-.5.665 0-3.139 7-5.5 7Z"/><path fill="#F0F080" id="CB" d="m208 87-1 1 1-1ZM161 88c1.577 0 2 1.762 2 3l-2-3ZM207 88l-1 1 1-1ZM249 88l1 1-1-1ZM251 89l4 4-4-4ZM295 89l-1 1 1-1ZM205 90l-1 1 1-1ZM203 91l-1 1 1-1ZM294 91l-1 1 1-1Z"/><path fill="#CBC9CC" id="arb" fill-rule="evenodd" d="M327 163c0 2.687-2.144 6.356.5 9 2.751 2.751-.02 6.46 1.5 9.5 2.357 4.713 6.508.984 8-2 1.063-2.126-3.18-5.36-4-7-1.12-2.241.165-5.669-1-8-.985-1.969-3.188-1.5-5-1.5m9 35h1c0-3.134-3-5.948-3-10 0-6.033 8.914-5.793 12.5-4l36 18c4.709 2.355 6.508 10.516 8.5 14.5.51 1.019-.436 6.5 1.5 6.5l1.5-6c0-5.594-2.66-10.82-5-15.5-3.209-6.417-35.122-24.5-41-24.5-5.516 0 .855-12 5-12l9-3c2.361 0 6.165-7 5.5-7-6.831 0-14.089 9.911-23.5.5l-3-3.5-4-11.5v-7c-4.027-8.053-1.929-18.858-6-27-1.886-3.772-1.051-9.102-3-13l-.5-2.5-.5 2.5c-1.504 3.008-1.55 9.899 0 13 2.368 4.735 9.632 34.735 7 40-1.882 3.764-6.417 3.5-10 3.5-9.705 0-14.192-5.885-18-13.5-.824-1.648.104-13.5-2.5-13.5l-.5 2.5c.864 1.727 2.991 15.5 1 15.5 0 3.418-3.298 1.798-5 3.5l-2.5 4.5c-9.536 4.768-16.274-2-25.5-2l-3 2h9.5c1.992.996 12.705 6 8.5 6l9.5 6 9.5 10 2 1c0-.571 3.949-2 4.5-2 2.372 0 .814 5 2 5l1-6c2.258-1.129 2.003 1.501 3 2l5 1c.828.414 3.5 14.029 3.5 16l1 2h3l2 2 4 6ZM125 163c0 5.568-2.672 8.845-5 13.5-2.315 4.631 3.035 8.233 6.5 6.5 3.126-1.563.273-7.045 1.5-9.5 2.593-5.186 5.371-10.5-3-10.5m1 28-5 5 2-8c0-5.826-9.873-5.814-13.5-4l-34 17c-5.27 2.635-7.384 9.267-9.5 13.5-.295.59-1.495 11.009-3 8v-6c0-17.605 18.248-28.374 32.5-35.5 2.226-1.113 12.5-.257 12.5-4 6.002 0-.645-12-5-12l-8-3-6-4.5.5-2.5 2 2c5.59 2.795 13.492 2.754 19 0 1.936-.968 4.5-3.397 4.5-6 2.436 0 4-10.177 4-12.5 0-8.631 3.341-28.681 7-36l2.5-10.5c2.983 0 1.224 15.053.5 16.5-3.089 6.179-9.218 32.564-6 39 1.623 3.246 6.876 2.5 10 2.5 10.853 0 13.979-7.458 18-15.5.742-1.484-.911-11.5 1.5-11.5l.5 4.5-1 13.5c0 3.327 3.911 2.205 5.5 3l2 5c6.944 3.472 11.83 0 18.5 0 0 1.982-14.78 6-7 6l-11.5 7-8.5 9-2 2c0-1.76-2.862-3-4.5-3l-1 4-1-5c-1.905-.953-2.717 1.358-4 2-5.724 2.862-8.5 8.586-8.5 16v3h-3l-1 1Z"/><path fill="#F0F080" id="CB" d="m202 92-1 1 1-1ZM163 93l2 4-2-4ZM201 93l-1 1 1-1ZM256 93l2 2-2-2ZM200 94l-1 1 1-1ZM293 94l-1 1 1-1ZM198 95l-1 1 1-1ZM259 95l2 2-2-2ZM197 96l-2 1 2-1ZM292 96l-1 1 1-1ZM195 97l-2 1 2-1ZM262 97l2 2-2-2ZM165 98l2 2-2-2ZM193 98l-1 1 1-1ZM191 99l-1 1 1-1ZM265 99l4 2-4-2ZM189 100l-1 1 1-1ZM290 100l-1 1 1-1ZM175 106c0 1.473-1.952 1-3 1l-5-6c2.92 0 4.233 5 8 5ZM271 101l2 2-2-2ZM184 102l-1 1 1-1ZM289 102l-1 1 1-1ZM181 103l-1 1 1-1ZM275 103l1 1-1-1ZM180 104l-2 1 2-1ZM277 104l1 1-1-1ZM287 104l-1 1 1-1ZM177 105l-2 1 2-1ZM280 105l1 1-1-1ZM282 106c0 1.473 1.952 1 3 1v-2l-3 1Z"/><path fill="#FDFA91" id="CENT2" fill-rule="evenodd" d="M193 134c0 2.029-6.271-.042-5 2.5 1.971 3.942 11.199.85 14.5 2.5 9.893 4.946 35.978 6.011 46 1 2.479-1.239 20.5-.907 20.5-4.5l-7.5-1.5c-6.031 3.015-13.913 1.956-20 5h-8c-10.084 5.042-28.875-5-40.5-5m20 30h30c5.798 0 10.356-5 16-5 0-1.747.253-2 2-2l1-2 3-3c0-1.238.423-3 2-3h1l3-2c0-3.607 7.531-8.439 3-17.5l-16.5-8.5c-21.047-10.524-37.93-10.535-59 0-2.945 1.472-15.134 6.767-16.5 9.5-4.123 8.246 3 11.01 3 16.5 2.952 0 9 4.696 9 8l4 4c5.094 0 9.633 5 15 5Z"/><path fill="#CBC9CC" id="arb" d="M193 134c0 2.029-6.271-.042-5 2.5 1.971 3.942 11.199.85 14.5 2.5 9.893 4.946 35.978 6.011 46 1 2.479-1.239 20.5-.907 20.5-4.5l-7.5-1.5c-6.031 3.015-13.913 1.956-20 5h-8c-10.084 5.042-28.875-5-40.5-5ZM193 156h1v-1c0-3.304-6.048-8-9-8-1.357 0-6 .647-6 2h9.5c.498.249 3.903 4 2 4l-2.5-2 1 2 1 1 3 2Z"/><path fill="#CBC7CC" id="sctv" d="m172 154-1 1c-7.78 0 7-4.018 7-6h10.5c.498.249 3.903 4 2 4l-2.5-2c-2.161 0-11-.497-11 2l-5 1Z"/><path fill="#CBC9CC" id="arb" fill-rule="evenodd" d="M266 151c0 1.93 1.93 0 0 0m-4 5h1l4-2 1-1v-2l-1-2c-1.577 0-2 1.762-2 3l-3 3v1Z"/><path fill="#CBC7CC" id="sctv" d="M285 155h1c4.205 0-6.508-5.004-8.5-6H267l1 2c2.203 0 11-.896 11 2h1l4 1 1 1Z"/><path fill="#F0F080" id="CB" d="M188 153h1l-1-2c-2.161 0-11-.497-11 2h11Z"/><path fill="#CBC7CC" id="sctv" d="M266 151c0 1.93 1.93 0 0 0Z"/><path fill="#F0F080" id="CB" d="M269 153h10c0-2.896-8.797-2-11-2v2h1Z"/><path fill="#CBC9C8" id="uf" d="M159 167h1l1-1 2-1 2-1 2-1h1l2-2c6.082 0 11.415-7 18-7v-1h-11c0 1.014-3.959 2-5 2h-1l-11.5 7-8.5 9c0 3.208 6.981-4 8-4ZM286 161c4.753 0 16.903 12 18.5 12l.5-2-9.5-10-9.5-6h-2l-4-2h-11v1c6.07 0 11.363 7 17 7Z"/><path fill="#F0F080" id="CB" d="M172 154v1c1.041 0 5-.986 5-2l-5 1Z"/><path fill="#FF9B88" id="P" d="M188 154h2l-1-1h-1v1ZM267 154h2v-1h-1l-1 1Z"/><path fill="#F0F080" id="CB" d="M284 154v1l-4-2 4 1Z"/><path fill="#CBC9CC" id="arb" d="M171 155h1v-1l-1 1Z"/><path fill="#FFAD6D" id="PB" d="M179 173h4l2-1 1-1 6-6c5.196 0 1-7.619 1-9l-3-2h-2c-6.585 0-11.918 7-18 7v1c3.804 0 14.676-5.412 15.5-5 8.662 4.331-8.086 10-11.5 10l-1 1v2l1 1c.671 0 5 1.328 5 2ZM273 173h4c0-.672 4.329-2 5-2l1-1-1-3c-2.772 0-18.919-6.291-11.5-10 1.484-.742 11.752 5 15.5 5v-1c-5.637 0-10.93-7-17-7h-2l-4 2-1 1c0 3.015 2 6.004 2 8l7 7 2 1Z"/><path fill="#CBC9CC" id="arb" d="M284 155h1l-1-1v1Z"/><path fill="#F0F080" id="CB" d="M197 159h1l-4-4v1l3 3ZM261 157h1v-2l-1 2Z"/><path fill="#FF9B88" id="P" d="m189 175 9 4c0-5.233-6.852-13 4-13 0-2.696-5-3.847-5-7l-3-3h-1c0 1.381 4.196 9-1 9 0 3.878-3 6.864-3 10ZM263 156l-1 1v-1h1Z"/><path fill="#CBC9CB" id="scp" d="M157 173h4l3-1 2-1h1c0-2.109 2.535-2 4-2l2-1 1-1c3.414 0 20.162-5.669 11.5-10-.824-.412-11.696 5-15.5 5l-2 1h-1l-2 1-2 1-2 1-1 1h-1c0 2.447-2 3.28-2 6Z"/><path fill="#F0F080" id="CB" d="M259 159h1l1-2c-1.747 0-2 .253-2 2Z"/><path fill="#FF9B88" id="P" d="m267 175-8 3c0-5.616 6.025-12-5-12 0-3.082 6-3.405 6-7l1-2h1c0 3.015 2 6.004 2 8 0 3.855 3 6.459 3 10Z"/><path fill="#CBC9CB" id="scp" d="M295 173h4c0-7.365-13-10.102-13-11-3.748 0-14.016-5.742-15.5-5-7.419 3.709 8.728 10 11.5 10l3 2c1.424 0 5 .362 5 2h1l1 1 3 1Z"/><path fill="#AAA9A7" id="V4" d="M228 184h1c0-11.021 15.718-18 25-18 0-3.082 6-3.405 6-7h-1c-5.644 0-10.202 5-16 5 0 1.7-5.137 1-6.5 1h-18c-1.278 0-5.5.665-5.5-1-5.367 0-9.906-5-15-5h-1c0 3.153 5 4.304 5 7 4.903 0 15.959 3.459 19.5 7 1.457 1.457 6.383 11 6.5 11Z"/><path fill="#F0F080" id="CB" d="m170 162-2 1 2-2v1ZM299 173c3.138 0 5.662 2 8 2v-3l-2-1-.5 2c-1.597 0-13.747-12-18.5-12v1c0 .898 13 3.635 13 11Z"/><path fill="#FFFC8D" id="PFL" d="M123 188c-5.776 0-5.864 3.682-10.5 6-5.629 2.814-29.382 15.265-31.5 19.5-2.329 4.658 3.421 25.5 9 25.5 0 14.816-16.966 24.267-29.5 18-10.141-5.071-22.541-33.417-16.5-45.5l1-10 6-10c3.878-7.756 16.014-10.757 23.5-14.5 6.712-3.356 3.23-14 15.5-14 1.234 0 5 .643 5-1l8 3c0 4.77 5 7.724 5 12 0 3.743-10.274 2.887-12.5 4-14.252 7.126-32.5 17.895-32.5 35.5v6c1.505 3.009 2.705-7.41 3-8 2.116-4.233 4.23-10.865 9.5-13.5l34-17c3.627-1.814 13.5-1.826 13.5 4ZM334 188c6.098 0 6.472 4.486 11.5 7 6.345 3.173 27.718 13.935 30.5 19.5 4.392 8.784-10 23.563-10 25.5 2.064 0 .426 3.353 1 4.5l6 9 3.5 1.5c7.996 3.998 10.021 6.99 20 2 13.885-6.942 16.5-27.139 16.5-41.5v-8l-6-14c-4.865-9.729-17.24-12.37-25.5-16.5-5.632-2.816-3.38-14-14.5-14-1.235 0-5 .643-5-1l-9 3c0 4.72-5 8.193-5 12 5.878 0 37.791 18.083 41 24.5 2.34 4.68 5 9.906 5 15.5l-1.5 6c-1.936 0-.99-5.481-1.5-6.5-1.992-3.984-3.791-12.145-8.5-14.5l-36-18c-3.586-1.793-12.5-2.033-12.5 4Z"/><path fill="#FFFDBB" id="DN" d="M125 163c0 5.568-2.672 8.845-5 13.5-2.315 4.631 3.035 8.233 6.5 6.5 3.126-1.563.273-7.045 1.5-9.5 2.593-5.186 5.371-10.5-3-10.5Z"/><path fill="#F0F080" id="CB" d="m167 163-2 1 2-1Z"/><path fill="#FFFDBB" id="DN" d="M327 163c0 2.687-2.144 6.356.5 9 2.751 2.751-.02 6.46 1.5 9.5 2.357 4.713 6.508.984 8-2 1.063-2.126-3.18-5.36-4-7-1.12-2.241.165-5.669-1-8-.985-1.969-3.188-1.5-5-1.5Z"/><path fill="#F0F080" id="CB" d="m165 164-2 1 2-1Z"/><path fill="#FEFA91" id="LING" d="M213 164h30c0 1.7-5.137 1-6.5 1h-18c-1.278 0-5.5.665-5.5-1Z"/><path fill="#FFF990" id="COPY" d="M103 165c4.355 0 11.002 12 5 12 0-4.276-5-7.23-5-12Z"/><path fill="#F0F080" id="CB" d="m163 165-2 1 2-1Z"/><path fill="#FDC395" id="LC" d="m185 173 4 2c0-3.136 3-6.122 3-10l-6 6-1 1v1Z"/><path fill="#FFBA84" id="PCG" fill-rule="evenodd" d="M213 193c0 19.335 20.891 0 0 0m3-13c0 1.676-4.954 3.592-3 7.5 4.687 9.373 19.017-7.5 3-7.5m6 25h1l3-4v-2l1-1v-3c0-2.998 1-7.358 1-11-.117 0-5.043-9.543-6.5-11-3.541-3.541-14.597-7-19.5-7-10.852 0-4 7.767-4 13 2.027 0 8 10.913 8 13l1 2v1l3.5 7c1.121 1.121 6.5 2.366 6.5 3h5ZM238 193c0 2.422-6.027 3.447-4 7.5 2.741 5.482 17.347-7.5 8-7.5h-4m-2-13c0 2.021-4.303 3.894-3 6.5 5.46 10.92 19.172-6.5 3-6.5m2 25h1c0-1.643 3.765-1 5-1h1l4-8c0-1.048-.473-3 1-3v-1l1-1c0-4.652 8-10.48 8-13 0-5.616 6.025-12-5-12-9.282 0-25 6.979-25 18v11l1 4 3 6h5Z"/><path fill="#FDC395" id="LC" d="m271 174-4 1c0-3.541-3-6.145-3-10l7 7v2Z"/><path fill="#FFF990" id="COPY" d="M353 165c-4.145 0-10.516 12-5 12 0-3.807 5-7.28 5-12Z"/><path fill="#F0F080" id="CB" d="m161 166-1 1 1-1ZM157 173c-3.303 0-5.115 2-8 2v-2l2-2c0 3.208 6.981-4 8-4 0 2.447-2 3.28-2 6Z"/><path fill="#FF9B88" id="P" d="m174 167-1 1 1-1ZM283 170h2v-1l-3-2 1 3ZM172 170h1v-2l-2 1 1 1Z"/><path fill="#C9C9C8" id="icp" fill-rule="evenodd" d="M139 185c0 3.746 2.091 0 0 0m-7 8v2c2.114 0-.251 10.375 4.5 8 2.922-1.461 5.394-13 8.5-13l1-2v-1l1-1v-1l1-1v-1l1-8v-2c0-1.76-2.862-3-4.5-3l-1 4-1-5c-1.905-.953-2.717 1.358-4 2-5.724 2.862-8.5 8.586-8.5 16 1.579 0 1 2.855 1 4v1l1 1m9-12c-.602 0-2.513 6.527 0 1.5l1-1.5v-2c0-1.186-1-1.186-1 0v2Z"/><path fill="#FF9BCD" id="MY" d="m172 170-5 1c0-2.109 2.535-2 4-2l1 1ZM285 170l5 1c0-1.638-3.576-2-5-2v1Z"/><path fill="#C9C9C8" id="icp" fill-rule="evenodd" d="M315 181c0 9.329 4.112 0 0 0m10 10v2c-1.975 0-1.261 11.619-4.5 10-3.265-1.633-10.751-18-11.5-18v-1c0-2.84-2-5.676-2-9v-3c0-.571 3.949-2 4.5-2 2.372 0 .814 5 2 5l1-6c2.258-1.129 2.003 1.501 3 2l5 1c.828.414 3.5 14.029 3.5 16-1.473 0-1 1.952-1 3Z"/><path fill="#FDB3D6" id="SUV" d="m165 184-5 1c-1.622 0-5 .461-5-2 0-2.868-1.585-4.33 0-7.5.833-1.667 6-.841 6-2.5l3-1 2-1h1l5-1h1l1 1 1 2-1 2-9 9ZM292 184l4 1c1.999 0 6-.067 6-3l1-1c0-7.938-8-6.524-8-8l-3-1-1-1h-1l-5-1h-2l-1 1v4c4.242 0 5.413 9 10 9Z"/><path fill="#FF9BCD" id="MY" d="m166 171-2 1 2-1Z"/><path fill="#FF9B88" id="P" d="M176 173h3c0-.672-4.329-2-5-2l1 2h1ZM186 171l-1 1 1-1ZM280 173h2v-2c-.671 0-5 1.328-5 2h3Z"/><path fill="#FF9BCD" id="MY" d="m291 171 1 1-1-1Z"/><path fill="#FF9B88" id="P" d="M183 173h2v-1l-2 1ZM273 173l-2 1v-2l2 1Z"/><path fill="#FF9BCD" id="MY" d="M148 183c1.602 0 2.384-3.058 4.5-2l2.5 2c0-2.868-1.585-4.33 0-7.5.833-1.667 6-.841 6-2.5h-4c-3.303 0-5.115 2-8 2l-1 8ZM176 173l-2 2 1-2h1Z"/><path fill="#FFB0D7" id="MV" d="M172 208h6c4.257 0 9.934.783 13.5-1l7.5-5 5-2 3-2v-4l-1-2c0-2.087-5.973-13-8-13l-9-4-4-2h-9l-2 2-9 9-2 3c0 5.394-6 10.232-6 16 0 7.187 9.791 5 15 5ZM278 208h6c4.192 0 16 1.814 16-4l-6-17-2-3c-4.587 0-5.758-9-10-9l-2-2h-7l-2 1-4 1-8 3c0 2.52-8 8.348-8 13l-1 1v1c0 1.048.473 3-1 3l1 3 2 1 4 1 8.5 6c3.566 1.783 9.243 1 13.5 1Z"/><path fill="#FF9BCD" id="MY" d="M282 173v2l-2-2h2ZM303 181c2.813 0 3.921 3 6 3 0-2.84-2-5.676-2-9-2.338 0-4.862-2-8-2h-4c0 1.476 8 .062 8 8Z"/><path fill="#CBC9CC" id="arb" d="M141 179h1c0-1.186-1-1.186-1 0Z"/><path fill="#F0F080" id="CB" d="M141 181h1v-2h-1v2Z"/><path fill="#FFB984" id="PDTg" d="M216 180c0 1.676-4.954 3.592-3 7.5 4.687 9.373 19.017-7.5 3-7.5ZM236 180c0 2.021-4.303 3.894-3 6.5 5.46 10.92 19.172-6.5 3-6.5Z"/><path fill="#FF9BCD" id="MY" d="M141 181h1l-1 1.5c-2.513 5.027-.602-1.5 0-1.5Z"/><path fill="#FEB3D7" id="LAV" d="M151 201c1.732 0 1.808 2 6 2 0-5.768 6-10.606 6-16l-3-2c-1.622 0-5 .461-5-2l-2.5-2c-2.116-1.058-2.898 2-4.5 2v1l-1 1v1l-1 1v1l-1 2c0 3.013 1 6.611 1 9 2.25 0 3.376 2 5 2Z"/><path fill="#FF9BCD" id="MY" d="m303 181-1 1 1-1Z"/><path fill="#FEB3D7" id="LAV" d="m304 203-4 1-6-17 2-2c1.999 0 6-.067 6-3l1-1c2.813 0 3.921 3 6 3v1l3 7.5c1.428 2.856-2 4.553-2 6.5-1.766 0-5 .607-5 3l-1 1Z"/><path fill="#FF9BCD" id="MY" d="M315 181c0 9.329 4.112 0 0 0ZM148 184l-1 1 1-1ZM160 185l3 2 2-3-5 1Z"/><path fill="#FF9B88" id="P" d="M227 195h2v-11h-1c0 3.642-1 8.002-1 11Z"/><path fill="#FF9BCD" id="MY" d="m296 185-2 2-2-3 4 1ZM139 185c0 3.746 2.091 0 0 0ZM325 203c-2.789 0-2 7.892-2 10-5.287 0-5.397-14-13-14 0-1.947 3.428-3.644 2-6.5l-3-7.5c.749 0 8.235 16.367 11.5 18 3.239 1.619 2.525-10 4.5-10v10ZM147 186l-1 1 1-1Z"/><path fill="#F0F080" id="CB" d="m130 190 1 1c0-1.145.579-4-1-4v3Z"/><path fill="#FEF991" id="FL" d="m104 233-5.5 6c-3.377 1.688-5.409 0-8.5 0-5.579 0-11.329-20.842-9-25.5 2.118-4.235 25.871-16.686 31.5-19.5 4.636-2.318 4.724-6 10.5-6l-2 8-2 2v1l-5 6c-2.073 0-7 6.148-7 8-2.639 0-7.758 8-4 8v2l1 1v9Z"/><path fill="#FF9BCD" id="MY" d="m146 188-1 2 1-2Z"/><path fill="#F0F080" id="CB" d="m327 190-2 1c0-1.048-.473-3 1-3l1 2Z"/><path fill="#FEF991" id="FL" d="M353 233c0 6.351 8.418 7 13 7 0-1.937 14.392-16.716 10-25.5-2.782-5.565-24.155-16.327-30.5-19.5-5.028-2.514-5.402-7-11.5-7 0 4.052 3 6.866 3 10l5 6 1 1v1c.894 0 18.814 16 10 16l-1 9 1 2Z"/><path fill="#F0F080" id="CB" d="m127 190-1 1 1-1Z"/><path fill="#FEA5D1" id="DCO" d="M132 203c-6.006 0-12.331 20-17 20-1.684 0-1-4.679-1-6 0-7.06 5-12.835 5-18l1-1 1-2 5-5 1-1h3l1 1v1l1 1v10Z"/><path fill="#FF9BCD" id="MY" d="M132 203c0 2.916 1 6.474 1 11 4.662 0 5.809-15 13-15 0-2.389-1-5.987-1-9-3.106 0-5.578 11.539-8.5 13-4.751 2.375-2.386-8-4.5-8v8Z"/><path fill="#FEA5D1" id="DCO" d="m325 203 6 5.5c1.698 3.395 6.416 14.5 11 14.5 0-5.017 1.115-12.27-1-16.5-1.169-2.338-5-5.905-5-8.5l-4-6-2-2h-3l-2 1v12Z"/><path fill="#F0F080" id="CB" d="m330 190 2 2-2-2Z"/><path fill="#FF9B88" id="P" d="m251 191-1 1 1-1Z"/><path fill="#FF9BCD" id="MY" d="m131 192 1 1-1-1Z"/><path fill="#FF9B88" id="P" d="m206 192 1 2-1-2Z"/><path fill="#FFB986" id="SG" d="M213 193c0 19.335 20.891 0 0 0ZM238 193c0 2.422-6.027 3.447-4 7.5 2.741 5.482 17.347-7.5 8-7.5h-4Z"/><path fill="#FF9B88" id="P" d="M250 193c-1.473 0-1 1.952-1 3 1.473 0 1-1.952 1-3ZM212 205h5c0-.634-5.379-1.879-6.5-3l-3.5-7v6l2 2 1 1h1l1 1Z"/><path fill="#AAA9A7" id="V4" d="m230 203-3 1-1-3v-2l1-1v-3h2l1 4v4Z"/><path fill="#CBC9CC" id="arb" d="M119 198h1l1-2-2 2Z"/><path fill="#FF9B88" id="P" d="M245 204h1l2-1 1-1v-1l1-2-1-3-4 8Z"/><path fill="#A9AAA7" id="V4r" d="m120 198-1 1v-1h1Z"/><path fill="#FF9BCD" id="MY" d="m204 200 3 1v-3l-3 2Z"/><path fill="#FF9B88" id="P" d="m227 198-1 1 1-1Z"/><path fill="#A9AAA7" id="V4r" d="m342 223 2 2c0-1.442-2.881-16 0-16l-1-3v-1l-1-1-5-6h-1c0 2.595 3.831 6.162 5 8.5 2.115 4.23 1 11.483 1 16.5ZM115 223l-2 2v-16l1-4 5-6c0 5.165-5 10.94-5 18 0 1.321-.684 6 1 6Z"/><path fill="#C9CACB" id="vVIIIn" d="m130 237 3 3c0-8.24 3.712-29 14-29 10.047 0 4-6.996 4-10-1.624 0-2.75-2-5-2-7.191 0-8.338 15-13 15v3l-1 2-1 11c0 1.235.643 5-1 5v2Z"/><path fill="#FF9B88" id="P" d="M230 203c0 1.577 1.762 2 3 2l-3-6v4Z"/><path fill="#FF9BCD" id="MY" d="m252 200-3 1 1-2 2 1Z"/><path fill="#C9CACB" id="vVIIIn" d="M324 239h2v-10l-1-1v-8l-1-1v-2l-1-2v-2c-5.287 0-5.397-14-13-14-1.766 0-5 .607-5 3l-1 1c0 4.089-.051 8 5 8 9.745 0 9.747 11.993 13 18.5.645 1.29.67 9.5 2 9.5Z"/><path fill="#C9CCC7" id="gVIIn" d="M211 205c0 2.275-3.756 4-6 4-4.322 0-6-3.043-6-7l5-2 3 1 2 2 1 1h1v1ZM245 205c0 1.948 5.428 4 7 4 6.388 0 4-4.509 4-8l-4-1-3 1v1l-1 1-2 1-1 1Z"/><path fill="#FF9BCD" id="MY" d="m165 212-2.5-2c-3.116-1.558-8.722.861-11 2-2.957 1.478-5.236 11-6.5 11 0-4.646 2-7.501 2-12 10.047 0 4-6.996 4-10 1.732 0 1.808 2 6 2 0 7.187 9.791 5 15 5 0 2.024-7-.042-7 4Z"/><path fill="#FF9B88" id="P" d="m227 204-4 1 3-4 1 3Z"/><path fill="#FF9BCD" id="MY" d="M247 215c3.702 0 7.27 2 10 2 0-2.684 9.647-3 12-3 0-4.905 9-4.355 9-6-4.257 0-9.934.783-13.5-1l-8.5-6c0 3.491 2.388 8-4 8 0 3.694-5 4.108-5 6ZM209 215c-4.713 0-9.865 3-10 3 0-4.553-8.436-4-12-4 0-5.162-9-4.196-9-6 4.257 0 9.934.783 13.5-1l7.5-5c0 3.957 1.678 7 6 7 0 3.625 4 3.563 4 6ZM249 202l-1 1 1-1ZM305 202l-1 1 1-1Z"/><path fill="#FEA4D2" id="VCO" d="M120 254v1c.974 0 2.937 4.219 4.5 5 7.405 3.702 5.5-19.11 5.5-23v-2c0-1.235-.643-5 1-5l1-11 1-2v-3c0-4.526-1-8.084-1-11-6.006 0-12.331 20-17 20l-2 2-1 1c0 .671-1.328 5-2 5v2l1 1 2 5 1 1c0 4.371 5 7.954 5 13l1 1Z"/><path fill="#FF9BCD" id="MY" d="m209 203 1 1-1-1ZM227 216h3v-7.5c.759-1.517 6-2.63 6 0 0 .809-4 3.599-4 6.5l1.5-2h6.5l-2-7c-1.048 0-3 .473-3-1h-2c-1.238 0-3-.423-3-2l-3 1-4 1h-1c0 1.473-1.952 1-3 1l-3 7c3.301 0 7.523 2 9 2 0-2.132-4.294-6.913-4-7.5 1.125-2.249 5.35.7 6 2v6.5ZM291 213c1.081 0 5.149-5.676 12.5-2 2.595 1.297 6.309 10 7.5 10 0-3.894-2-6.605-2-10-5.051 0-5-3.911-5-8l-4 1c0 5.814-11.808 4-16 4 0 1.818 7 .303 7 5Z"/><path fill="#FEA4D2" id="VCO" d="m337 254-1 2c-1.785 0-2.779 5.86-6.5 4-4.324-2.162-3.5-16.611-3.5-21v-10l-1-1v-8l-1-1v-2l-1-2v-2c0-2.108-.789-10 2-10l6 5.5c1.698 3.395 6.416 14.5 11 14.5l2 2 2 6v3l-1 1c0 4.374-8 12.034-8 19Z"/><path fill="#FF9BCD" id="MY" d="M211 205h1l-1-1v1Z"/><path fill="#FF9B88" id="P" d="M239 205h5v-1c-1.235 0-5-.643-5 1Z"/><path fill="#FF9BCD" id="MY" d="M244 205h1l1-1h-2v1Z"/><path fill="#CBC9CC" id="arb" d="m342 204 1 1-1-1ZM107 213h1l1-1 1-1 1-1 2-1 1-4c-2.073 0-7 6.148-7 8Z"/><path fill="#FDB1D9" id="VI" d="M216 213c-2.16 0-4.167 2-7 2 0-2.437-4-2.375-4-6 2.244 0 6-1.725 6-4h7l1 1-3 7Z"/><path fill="#FF9B88" id="P" d="M222 205c0 1.473-1.952 1-3 1l-1-1h4ZM238 205v1c-1.048 0-3 .473-3-1h3Z"/><path fill="#FDB1D9" id="VI" d="m240 213 7 2c0-1.892 5-2.306 5-6-1.572 0-7-2.052-7-4h-7v1l2 7Z"/><path fill="#CBC9CC" id="arb" d="M353 219v3c8.814 0-9.106-16-10-16l1 3 5 5 1 1 2 3 1 1Z"/><path fill="#CBCBCC" id="mlf" d="M225 215c0 2.581 2 4.471 2 1v-6.5c-.65-1.3-4.875-4.249-6-2-.294.587 4 5.368 4 7.5ZM232 215c-1.175 0-2 7.359-2 1v-7.5c.759-1.517 6-2.63 6 0 0 .809-4 3.599-4 6.5Z"/><path fill="#FCB3D9" id="PARN" d="M156 262h1c0-3.59 4.929-6 8-6l8-7.5c3.098-6.195 14-28.5 14-34.5 0-5.162-9-4.196-9-6h-6c0 2.024-7-.042-7 4 0 14.044-3.371 16.242-9 27.5-2.225 4.45 1.183 11.635-1 16-1.042 2.084-2 2.908-2 5.5l1 1h2ZM300 262h3v-1c0-1.547-2.452-21.403-3-22.5-5.183-10.366-9-12.485-9-25.5 0-4.697-7-3.182-7-5h-6c0 1.645-9 1.095-9 6 0 2.761 11.975 29.451 14 33.5l9 8.5c4.55 0 5.634 6 8 6Z"/><path fill="#A9AAA8" id="chpl" d="m104 230 1.5 2 4.5-1c.672 0 2-4.329 2-5l1-1v-16l-2 1-1 1-1 1-1 1h-1l-2 4-1 1v3l-1 1v1l1 1v6ZM346 231h6l1-9v-3l-1-1-2-3-1-1-5-5c-2.881 0 0 14.558 0 16l2 6Z"/><path fill="#A9AAA7" id="V4r" d="m111 210-1 1 1-1Z"/><path fill="#FFA4D0" id="SPVO" d="M143 230c0 9.192-9.247 26.627 3.5 33 2.856 1.428 4.553-2 6.5-2 0-2.592.958-3.416 2-5.5 2.183-4.365-1.225-11.55 1-16 5.629-11.258 9-13.456 9-27.5l-2.5-2c-3.116-1.558-8.722.861-11 2-2.957 1.478-5.236 11-6.5 11v1c0 1.623-.005 6-2 6ZM303 261c2.268 0 3.921 3.29 6.5 2 1.619-.809 1.471-2 3.5-2 0-1.238.423-3 2-3v-1l1-1 1-11.5c-2.944-5.888-6-15.653-6-22.5v-1c-1.191 0-4.905-8.703-7.5-10-7.351-3.676-11.419 2-12.5 2 0 13.015 3.817 15.134 9 25.5.548 1.097 3 20.953 3 22.5Z"/><path fill="#C8CACA" id="sptV" d="M151 266c0 1.406.714 7-1 7l-4.5 1c-9.448-4.724-13.5-13.509-13.5-24l-1-4.5 2-5.5c0-8.24 3.712-29 14-29 0 4.499-2 7.354-2 12v1c-1.353 0-2 4.643-2 6-2.059 0-3.149 9.797-4 11.5-3.864 7.728 2.507 24.5 12 24.5ZM314 273l-7 1c0-2.278-1-4.847-1-7l7-6c1.577 0 2-1.762 2-3v-1l1-1c3.281 0 1.112-6.723 2-8.5 2.422-4.844-2.707-14.414-5-19-.65-1.3-.007-6.5-2-6.5v-1c0-3.894-2-6.605-2-10 9.745 0 9.747 11.993 13 18.5.645 1.29.67 9.5 2 9.5 0 7.566 2.558 16.385-1 23.5l-9 10.5Z"/><path fill="#A9AAA7" id="V4r" d="m109 212-1 1 1-1Z"/><path fill="#CBC9CC" id="arb" d="M103 221h1v-3l1-1 2-4c-2.639 0-7.758 8-4 8Z"/><path fill="#FEB0D8" id="GRN" fill-rule="evenodd" d="M233 226c0 2.08-6.785 20.358-1.5 23 3.889 1.944 2.168-15.835 3.5-18.5.715-1.43-.291-4.5-2-4.5m-11 0v15c0 24.602 10.292-15 0-15m-20 46h1c0-7.606 17.921-11 22-11h1c0-14.047 5-10.036 5 1l2.5-2c1.925-.963 8.361 2.18 10 3l10.5 9 1.5-2c2.161-1.081 4.894 1 6.5 1l3-6c0-4.487-2.073-10.646-4-14.5-1.007-2.015-4-29.433-4-33.5-2.73 0-6.298-2-10-2l-7-2h-6.5l-1.5 2c-1.175 0-2 7.359-2 1h-3c0 3.471-2 1.581-2-1-1.477 0-5.699-2-9-2-2.16 0-4.167 2-7 2-4.713 0-9.865 3-10 3 0 16.947-7 34.308-7 48 0 1.974 2 3.517 2 6 .835 0 8-5.097 8 0Z"/><path fill="#FFB2D8" id="IRN" d="M165 256c6.577 0 13.987 1.244 19.5 4l7.5 6c0-13.692 7-31.053 7-48 0-4.553-8.436-4-12-4 0 6-10.902 28.305-14 34.5l-8 7.5ZM292 256c-5.554 0-13.769.635-18.5 3-2.937 1.469-5.783 6-8.5 6 0-4.487-2.073-10.646-4-14.5-1.007-2.015-4-29.433-4-33.5 0-2.684 9.647-3 12-3 0 2.761 11.975 29.451 14 33.5l9 8.5Z"/><path fill="#A9AAA7" id="V4r" d="m349 214 1 1-1-1Z"/><path fill="#FF9BCD" id="MY" d="m323 215 1 2-1-2Z"/><path fill="#A9AAA7" id="V4r" d="m105 217-1 1 1-1Z"/><path fill="#FF9BCD" id="MY" d="m133 217-1 2 1-2Z"/><path fill="#A9AAA7" id="V4r" d="m352 218 1 1-1-1Z"/><path fill="#FF9BCD" id="MY" d="m324 219 1 1-1-1Z"/><path fill="#A9AAA7" id="V4r" d="m104 221-1 1v-1h1Z"/><path fill="#FF9BCD" id="MY" d="M311 222c1.993 0 1.35 5.2 2 6.5 2.293 4.586 7.422 14.156 5 19-.888 1.777 1.281 8.5-2 8.5l1-11.5c-2.944-5.888-6-15.653-6-22.5Z"/><path fill="#A9AAA7" id="V4r" d="m103 223 1 1-1-1Z"/><path fill="#FF9BCD" id="MY" d="M145 224c-1.353 0-2 4.643-2 6 1.995 0 2-4.377 2-6Z"/><path fill="#A9AAA7" id="V4r" d="m113 225-1 1 1-1Z"/><path fill="#C8C8CC" id="tspc" d="M222 226v15c0 24.602 10.292-15 0-15ZM233 226c0 2.08-6.785 20.358-1.5 23 3.889 1.944 2.168-15.835 3.5-18.5.715-1.43-.291-4.5-2-4.5Z"/><path fill="#FF9BCD" id="MY" d="m325 228 1 1-1-1Z"/><path fill="#A9AAA7" id="V4r" d="M104 233h6v-2l-4.5 1-1.5-2v3Z"/><path fill="#FF9BCD" id="MY" d="M131 230c-1.643 0-1 3.765-1 5 1.643 0 1-3.765 1-5ZM154 262l-3 4c-9.493 0-15.864-16.772-12-24.5.851-1.703 1.941-11.5 4-11.5 0 9.192-9.247 26.627 3.5 33 2.856 1.428 4.553-2 6.5-2l1 1Z"/><path fill="#A9AAA7" id="V4r" d="M347 233h6l-1-2h-6v1l1 1Z"/><path fill="#FF9BCD" id="MY" d="m347 233-1 1v-2l1 1ZM110 233l1 1-1-1ZM346 234l-1 1 1-1ZM151 276c0 2.25 2 3.376 2 5l-7.5-6c-6.324-3.162-11.595-8.798-18-12-1.755-.877-5.389-.279-6.5-2.5l-1-5.5c.974 0 2.937 4.219 4.5 5 7.405 3.702 5.5-19.11 5.5-23l3 3-2 5.5 1 4.5c0 10.491 4.052 19.276 13.5 24l4.5-1 1 3ZM113 239l1 1-1-1ZM336 256c0 2.465-.984 5.742-3.5 7-2.039 1.019-4.885.942-7 2-3.736 1.868-7.121 8-11.5 8l9-10.5c3.558-7.115 1-15.934 1-23.5h2c0 4.389-.824 18.838 3.5 21 3.721 1.86 4.715-4 6.5-4Z"/><path fill="#FFC5E2" id="RM" d="M227 279h3v-4c0-1.657-.763-10 1-10v-3c0-11.036-5-15.047-5-1v17l1 1Z"/><path fill="#FF9BCD" id="MY" d="m119 253 1 1-1-1ZM337 254l-1 2 1-2Z"/><path fill="#FFB3D6" id="VII" d="M172 286c7.105 0 12.548 1 19 1l3-7v-8c0-2.483-2-4.026-2-6l-7.5-6c-5.513-2.756-12.923-4-19.5-4-3.071 0-8 2.41-8 6l-1 1-1 1-1 4-1 1c0 4.657.654 9.577 5.5 12 1.475.737 7.5 1.705 7.5 4h1l2 1h3ZM285 286h3l1-1h1l3.5-2c3.422-1.711 7.71-3.919 9.5-7.5 2.518-5.036-3-9.775-3-13.5-2.366 0-3.45-6-8-6-5.554 0-13.769.635-18.5 3-2.937 1.469-5.783 6-8.5 6l-3 6v9l3 6c2.132 0 4.958 3.271 7.5 2 3.863-1.931 7.796-2 12.5-2Z"/><path fill="#FF9BCD" id="MY" d="m316 256-1 1 1-1ZM315 258c-1.577 0-2 1.762-2 3 1.577 0 2-1.762 2-3Z"/><path fill="#FDB2D9" id="MARN" d="M201 277c0 1.465-.109 4 2 4 7.749 0 12.342-6 18-6 0-2.727 2.771-2.042 4-4.5V261c-4.079 0-22 3.394-22 11l-1 1v1l-1 1v2ZM255 277c0 1.145.579 4-1 4-9.36 0-23-5.452-23-16v-3l2.5-2c1.925-.963 8.361 2.18 10 3l10.5 9v1l1 1v3Z"/><path fill="#FF9BCD" id="MY" d="M221 275h5v-14h-1v9.5c-1.229 2.458-4 1.773-4 4.5ZM303 262c0 1.238 1.923 5 3 5l7-6c-2.029 0-1.881 1.191-3.5 2-2.579 1.29-4.232-2-6.5-2v1Z"/><path fill="#C8C8CB" id="rust" d="M151 276c2.304 0 8.373 9 15 9 0-2.295-6.025-3.263-7.5-4-4.846-2.423-5.5-7.343-5.5-12l1-1 1-4 1-1v-1h-2l-3 4c0 1.406.714 7-1 7l1 3Z"/><path fill="#FF9BCD" id="MY" d="m157 262-1 1v-1h1Z"/><path fill="#C8C8CB" id="rust" d="M290 285h5l8-7 1-1 3-3c0-2.278-1-4.847-1-7-1.077 0-3-3.762-3-5h-3c0 3.725 5.518 8.464 3 13.5-1.79 3.581-6.078 5.789-9.5 7.5l-3.5 2Z"/><path fill="#FF9BCD" id="MY" d="m156 263-1 1 1-1ZM287 288c0 2.308-7.013.257-8.5 1-8.309 4.154-21.679 5-31.5 5 0-1.883 6.178-.143 4-4.5-1.602-3.204-8.622-5.061-11.5-6.5-1.046-.523-3.5.951-3.5-1 0-6.528.758-7-6-7 0-1.657-.763-10 1-10 0 10.548 13.64 16 23 16 0 6.069 11 9.519 11 5 2.132 0 4.958 3.271 7.5 2 3.863-1.931 7.796-2 12.5-2 0 2.159-4 .061-4 1.5l6 .5ZM154 268l-1 1 1-1Z"/><path fill="#FCB2D9" id="PGRNl" d="m194 278 1 1 5-2 1-1v-1l1-1v-2c0-5.097-7.165 0-8 0v6ZM261 279h1v-8c-1.606 0-4.339-2.081-6.5-1l-1.5 2v1l1 1v1l2 2 4 2Z"/><path fill="#FF9BCD" id="MY" d="m203 272-1 1v-1h1ZM254 273l1 1-1-1ZM304 277c2.729 0 1 .423 1 2 1.44 0 9-4.558 9-6l-7 1-3 3ZM202 274l-1 1 1-1Z"/><path fill="#CACCC8" id="ml" d="M221 282h4c0-1.532 1-.95 1-3v-4h-5c0 1.791-3.27 2.959-2 5.5l2 1.5ZM232 282h4c0-6.528.758-7-6-7v4l1 3h1Z"/><path fill="#FF9BCD" id="MY" d="M166 287c0 3.347 9.491.996 11.5 2 9.428 4.714 22.62 1.31 32 6 1.208.604 7.5.265 7.5-1h-5.5c-1.822 0-8.108-1.284-6.5-4.5 1.697-3.394 9.442-4.971 12.5-6.5 1.046-.523 3.5.951 3.5-1l-2-1.5c-1.27-2.541 2-3.709 2-5.5-5.658 0-10.251 6-18 6 0 7.194-8.242 6-12 6-6.452 0-11.895-1-19-1l3 1.5c0 1.343-8.012-.5-9-.5ZM255 277h2l-2-2v2Z"/><path fill="#CBC7CC" id="sctv" d="M164 287h2c.988 0 9 1.843 9 .5l-3-1.5h-3l-2-1h-1c-6.627 0-12.696-9-15-9 0 2.25 2 3.376 2 5h1l2 2h1l2 2h2l1 1h1l1 1Z"/><path fill="#FF9BCD" id="MY" d="M200 277h1v-1l-1 1Z"/><path fill="#FCB2D8" id="PPY" d="M203 281c0 7.194-8.242 6-12 6l3-7 1-1 5-2h1c0 1.465-.109 4 2 4ZM254 281c0 6.069 11 9.519 11 5l-3-6-1-1-4-2h-2c0 1.145.579 4-1 4Z"/><path fill="#FF9BCD" id="MY" d="m304 277-1 1 1-1Z"/><path fill="#CBC7CC" id="sctv" d="M296 285h1l1-1h1l1-1 2-1 1-1h1l1-1v-1c0-1.577 1.729-2-1-2l-1 1-8 7h1Z"/><path fill="#FF9BCD" id="MY" d="m195 279-1 1v-2l1 1ZM226 279h1l-1-1v1Z"/><path fill="#FFC6E2" id="RPA" d="M226 286c.666 0 4 2.56 4 0l1-3v-1l-1-3h-4c0 2.05-1 1.468-1 3l1 4Z"/><path fill="#FF9BCD" id="MY" d="M262 279v1l-1-1h1ZM305 280l-1 1 1-1ZM154 281l2 2-2-2ZM303 281l-1 1 1-1Z"/><path fill="#C7C9C9" id="py" d="M221 293c-1.145 0-4-.579-4 1h-5.5c-1.822 0-8.108-1.284-6.5-4.5 1.697-3.394 9.442-4.971 12.5-6.5 1.046-.523 3.5.951 3.5-1h4l1 4-5 7Z"/><path fill="#FF9BCD" id="MY" d="m232 282-1 1v-1h1Z"/><path fill="#C7C9C9" id="py" d="m230 286 5.5 7 11.5 1c0-1.883 6.178-.143 4-4.5-1.602-3.204-8.622-5.061-11.5-6.5-1.046-.523-3.5.951-3.5-1h-4l-1 1-1 3Z"/><path fill="#FF9BCD" id="MY" d="m157 283 2 2-2-2ZM300 283l-1 1 1-1ZM298 284l-1 1 1-1ZM161 285l1 1-1-1ZM167 285l2 1-2-1ZM289 285l-1 1 1-1Z"/><path fill="#CBC7CC" id="sctv" d="M290 287h2l2-1h1v-1h-6l-1 1h-3c0 2.159-4 .061-4 1.5l6 .5c0-1.473 1.952-1 3-1Z"/><path fill="#FF9BCD" id="MY" d="m296 285-1 1v-1h1ZM163 286l1 1-1-1ZM221 293c9.975 0 1.606-5.947 13.5 0 1.155.577 12.5 4.094 12.5 1l-11.5-1-5.5-7c0 2.56-3.334 0-4 0l-5 7ZM294 286l-2 1 2-1ZM290 287c-1.048 0-3-.473-3 1 1.048 0 3 .473 3-1ZM221 293c-1.145 0-4-.579-4 1 1.145 0 4 .579 4-1Z"/></svg>