<svg xmlns="http://www.w3.org/2000/svg" viewBox="0 0 456 320"><path fill="#FCFB90" id="CUL4, 5" d="M153 133c4.348 0 4.021-2.261 7.5-4 12.535-6.267 6.397-19.294 10.5-27.5 2.415-4.83 3.598-10.196 6-15 6.148-12.295 17.135-17.818 28.5-23.5 2.469-1.234 8.401-.2 14-3 1.794-.897 4.676.338 6 1 2.934 1.467 7.964-2.018 16 2h10c3.498 1.749 5.915 2.458 9 4 14.338 7.17 18.261 21.022 24.5 33.5v4c5.385 10.77-.779 13.221 10 24 2.307 2.307 4.695 4.5 8 4.5 0-12.261-.992-35.484-6-45.5-4.773-9.545-14-23.514-14-34.5-1.76 0-3.394-4.288-4-5.5-2.154-4.307-8.877-6.688-12.5-8.5-13.557-6.778-34.311-4-50.5-4-11.19 0-21.285 1.392-30.5 6-3.66 1.83-11.529 12-12.5 12 0 12.575-8.719 24.937-14 35.5-3.704 7.408-6 35.009-6 44.5Z"/><path fill="#FDFB8F" id="SIM" d="M132 117c3.181 0 4.924-10.349 6-12.5l9-26 1-9L158.5 59v2c-3.742 1.871-7.314 8.127-9.5 12.5l-2 15c-3.03 6.06-3.994 12.988-7 19-4.438 8.876 1.918 16.836 5 23 .578 1.155 8 4.754 8 2.5 0-9.491 2.296-37.092 6-44.5 5.281-10.563 14-22.925 14-35.5 0-7.15-12.148-6-16.5-6-6.856 0-30.5 13.975-30.5 22l3 6.5c.284.567 3 38.737 3 41.5ZM324 116c-3.583 0-3.963-8.426-5-10.5-4.57-9.14-5.453-19.905-10-29v-6c-1.07-2.14-8.022-13.239-11.5-11.5l3.5 4.5 6 9 2 14c5.727 11.454 17.055 46.5-6 46.5 0-12.261-.992-35.484-6-45.5-4.773-9.545-14-23.514-14-34.5l5.5-6c4.043-2.021 14.851.425 18 2 5.776 2.888 12.697 5.697 17.5 10.5l6 6c.523 1.046-.951 3.5 1 3.5 0 1.654-3.155 6.81-4 8.5v25c-1.773 3.547-3 9.375-3 13.5Z"/><path fill="#CBC9CC" id="arb" fill-rule="evenodd" d="M209 143c0 2.256-.55 8.975 1.5 10 1.733.867 3.744-1.372 5-2 3.608-1.804 8.117-2 12.5-2 4.511 0 9.758.129 13.5 2 1.283.642 2.095 2.953 4 2 1.609-.804 2.748-9.126 1-10-2.457-1.228-9.125 2-12.5 2h-10.5c-5.556 0-9.379-2-14.5-2m51 19 3 1c0-1.519-12.737-4.975-15-9.5-3.486-6.973 11.438-14.531 17.5-11.5 1.38.69 4.489 4 5.5 4 0-1.684 4.679-1 6-1 0-2.939-.687-6.407 2.5-8 1.608-.804 23.15 8.575 26 10 6.266 3.133 12.822-3.089 17-1 4.737 2.368 4.5 7.518 4.5 12 0 3.506 5 3.428 5 6 3.472 0 11.48-5 18-5 5.712 0 10.669 3.585 15.5 6 2.077 1.039.806-5 3.5-5l6-3.5c0-.51-8.716 2.392-10.5 1.5-3.298-1.649-24.5-7.859-24.5-10-4.531 0-12.335-13.831-10-18.5 2.713-5.427 9.407-5.813 12-11 2.434-4.868 2.572-11.143 5-16l4-5-6.5-9.5c-1.925-.962.811 7.122 1.5 8.5 1.834 3.668-1.596 12.192-3 15-3.488 6.977-8.366 11.067-15.5 7.5l-3.5-3c-3.583 0-3.963-8.426-5-10.5-4.57-9.14-5.453-19.905-10-29v-6c-1.07-2.14-8.022-13.239-11.5-11.5l3.5 4.5 6 9 2 14c5.727 11.454 17.055 46.5-6 46.5-3.305 0-5.693-2.193-8-4.5-10.779-10.779-4.615-13.23-10-24v-4c-6.239-12.478-10.162-26.33-24.5-33.5-3.085-1.542-5.502-2.251-9-4h-10c-8.036-4.018-13.066-.533-16-2-1.324-.662-4.206-1.897-6-1-5.599 2.8-11.531 1.766-14 3-11.365 5.682-22.352 11.205-28.5 23.5-2.402 4.804-3.585 10.17-6 15-4.103 8.206 2.035 21.233-10.5 27.5-3.479 1.739-3.152 4-7.5 4 0 2.254-7.422-1.345-8-2.5-3.082-6.164-9.438-14.124-5-23 3.006-6.012 3.97-12.94 7-19l2-15c2.186-4.373 5.758-10.629 9.5-12.5v-2L148 69.5l-1 9-9 26c-1.076 2.151-2.819 12.5-6 12.5-.656 0-4.138 3.319-5.5 4-7.942 3.971-13.491-11.482-15.5-15.5v-12c.144-.288 3.588-5.5 1.5-5.5l-6.5 9.5 3 6c2.589 5.178 3.431 10.862 6 16 1.836 3.672 9.201 5.402 12 11 2.434 4.867-6.147 16.5-10 16.5 0 3.679-21.44 8.97-25.5 11-1.828.914-9.5-1.91-9.5-1.5l5 3.5c3.176 0 .76 6.87 4.5 5 4.911-2.456 9.661-6 15.5-6 6.531 0 12.825 4 18 4 0-1.872 5-1.926 5-5-1.614 0-1-3.31-1-4.5 0-3.064 2.874-6.187 5.5-7.5 4.187-2.094 9.12 4.44 14 2 4.014-2.007 28.39-13.72 30.5-9.5v6.5c1.406 0 7-.714 7 1l4.5-4c8.085-4.042 20.666 5.169 16.5 13.5-1.344 2.689-10 3.464-10 5.5 3.447 0 6.245-2 9-2 6.064 0 17.746-11.877 25.5-8 2.7 1.35 16.486 8 18.5 8l10 3m-3-28c7.075 0 12.327-7.827 17-12.5 2.278-2.278 6.446-1.892 8-5 7.428-14.856-10.729-40.115-21.5-45.5-4.248-2.124-9.865-1.932-14-4-5.744-2.872-10.718 1.14-15-1l-4-2c-5.173 2.586-11.429-.285-14 1-7.044 3.522-14.85 5.425-22 9-9.237 4.618-22.91 30.68-17.5 41.5 2.218 4.436 9.155 4.309 11 8 1.785 3.57 10.833 11.5 15 11.5 2.592 0 3.416.958 5.5 2l7 1c9.898 4.949 21.138 4.931 31 0 1.74-.87 13.5-2.431 13.5-4Z"/><path fill="#FCFB90" id="CUL4, 5" d="M257 134c7.075 0 12.327-7.827 17-12.5 2.278-2.278 6.446-1.892 8-5 7.428-14.856-10.729-40.115-21.5-45.5-4.248-2.124-9.865-1.932-14-4-5.744-2.872-10.718 1.14-15-1l-4-2c-5.173 2.586-11.429-.285-14 1-7.044 3.522-14.85 5.425-22 9-9.237 4.618-22.91 30.68-17.5 41.5 2.218 4.436 9.155 4.309 11 8 1.785 3.57 10.833 11.5 15 11.5 0-8.842-12.704-19.092-7-30.5 2.411-4.822 6.651-9.076 11.5-11.5 5.381-2.69 13.026-2 19.5-2 13.29 0 31.553-2.394 39 12.5 5.928 11.856-6 21.419-6 30.5Z"/><path fill="#FCFC90" id="ANcr1" d="M69 125c5.883 0 11.638-.431 16.5 2 3.96 1.98 5.812 9.124 7.5 12.5 2.747 5.494 18.401 7.5 24 7.5 3.853 0 12.434-11.633 10-16.5-2.799-5.598-10.164-7.328-12-11-2.569-5.138-3.411-10.822-6-16l-3-6 6.5-9.5c2.088 0-1.356 5.212-1.5 5.5v12c2.009 4.018 7.558 19.471 15.5 15.5 1.362-.681 4.844-4 5.5-4 0-2.763-2.716-40.933-3-41.5l-3-6.5c-9.859 0-23.278 1.056-29 12.5L89.5 91C76.84 97.33 69 111.805 69 125ZM387 125c-5.883 0-11.638-.431-16.5 2-4.551 2.275-5.159 12.58-14 17-3.878 1.939-9.079 1.039-13 3-1.046.523-3.5-.951-3.5 1-4.531 0-12.335-13.831-10-18.5 2.713-5.427 9.407-5.813 12-11 2.434-4.868 2.572-11.143 5-16l4-5-6.5-9.5c-1.925-.962.811 7.122 1.5 8.5 1.834 3.668-1.596 12.192-3 15-3.488 6.977-8.366 11.067-15.5 7.5l-3.5-3c0-4.125 1.227-9.953 3-13.5v-25c.845-1.69 4-6.846 4-8.5 3.858 0 7.625-1.937 11.5 0 14.368 7.184 38.05 32.6 44.5 45.5 1.801 3.602 0 7.083 0 10.5Z"/><path fill="#FFFC8E" id="CENT3" d="M257 134c0 1.569-11.76 3.13-13.5 4-9.862 4.931-21.102 4.949-31 0l-7-1c-2.084-1.042-2.908-2-5.5-2 0-8.842-12.704-19.092-7-30.5 2.411-4.822 6.651-9.076 11.5-11.5 5.381-2.69 13.026-2 19.5-2 13.29 0 31.553-2.394 39 12.5 5.928 11.856-6 21.419-6 30.5Z"/><path fill="#FCFA91" id="ANcr2" d="m87 160-11 7-5-4.5-7-14c-4.197-8.393 5-15.823 5-23.5 5.883 0 11.638-.431 16.5 2 3.96 1.98 5.812 9.124 7.5 12.5 2.747 5.494 18.401 7.5 24 7.5 0 3.679-21.44 8.97-25.5 11-1.828.914-9.5-1.91-9.5-1.5l5 3.5ZM369 160l11 7 7-7.5c2.429-4.858 9.329-14.343 6-21l-6-13.5c-5.883 0-11.638-.431-16.5 2-4.551 2.275-5.159 12.58-14 17-3.878 1.939-9.079 1.039-13 3-1.046.523-3.5-.951-3.5 1 0 2.141 21.202 8.351 24.5 10 1.784.892 10.5-2.01 10.5-1.5l-6 3.5Z"/><path fill="#FFFDBC" id="IP" d="M135 179h2l10-3c0-1.222 6.549-5 8-5h1l1-1 5-2v-1c0-4.451 1.097-12 7-12l2-1 1-1 2-1 1-1 4-6v-6.5c-2.11-4.22-26.486 7.493-30.5 9.5-4.88 2.44-9.813-4.094-14-2-2.626 1.313-5.5 4.436-5.5 7.5 0 1.19-.614 4.5 1 4.5 6.231 0 8 12.092 8 16.5l-3 4.5ZM319 179l3 1-3-4.5c-1.97-3.94 2.508-17.5 8-17.5 0-4.482.237-9.632-4.5-12-4.178-2.089-10.734 4.133-17 1-2.85-1.425-24.392-10.804-26-10-3.187 1.593-2.5 5.061-2.5 8 0 3.785 7 4.985 7 8h1c6.708 0 9 8.393 9 14l2 2 3 1 1 1h1c1.722 0 9 3.319 9 5h1l1 1 7 2Z"/><path fill="#FFFCBC" id="FN" d="M192 163h1l2-1 2-1c0-2.036 8.656-2.811 10-5.5 4.166-8.331-8.415-17.542-16.5-13.5l-4.5 4-4 7.5c-.492.984-.851 5.5-2 5.5v1c3.482 0 5.416 4 8 4l4-1ZM265 163l3 1 8-4c0-5.261-5-9.271-5-14-1.011 0-4.12-3.31-5.5-4-6.062-3.031-20.986 4.527-17.5 11.5 2.263 4.525 15 7.981 15 9.5h2Z"/><path fill="#CBC8CA" id="cbc" d="M209 143c0 2.256-.55 8.975 1.5 10 1.733.867 3.744-1.372 5-2 3.608-1.804 8.117-2 12.5-2 4.511 0 9.758.129 13.5 2 1.283.642 2.095 2.953 4 2 1.609-.804 2.748-9.126 1-10-2.457-1.228-9.125 2-12.5 2h-10.5c-5.556 0-9.379-2-14.5-2Z"/><path fill="#F0F080" id="CB" d="M175 151c6.746 0 5 .959 5 8 1.149 0 1.508-4.516 2-5.5l4-7.5c0-1.714-5.594-1-7-1l-4 6ZM276 160l2 1-2-6.5c0-1.175.042-5.729 2.5-4.5l5.5 3c0-3.015-7-4.215-7-8-1.321 0-6-.684-6 1 0 4.729 5 8.739 5 14Z"/><path fill="#FEB1D8" id="ICB" d="M171 165h1l1-1 6-4 1-1c0-7.041 1.746-8-5-8l-1 1-2 1-1 1-2 1c0 1.875-6.275 10 2 10ZM278 161l6 3 2.5 1c8.449-4.225-1.5-7.875-1.5-12h-1l-5.5-3c-2.458-1.229-2.5 3.325-2.5 4.5l2 6.5Z"/><path fill="#F0F080" id="CB" d="m175 151-1 1 1-1Z"/><path fill="#FEFA91" id="LING" d="M206 159c6.064 0 17.746-11.877 25.5-8 2.7 1.35 16.486 8 18.5 8 0 2.308-6.963 2.232-8.5 3-8.662 4.331-20.608 3.196-29-1-1.3-.65-6.5-.007-6.5-2Z"/><path fill="#F0F080" id="CB" d="m172 153-1 1 1-1ZM288 167h6c0-5.607-2.292-14-9-14 0 4.125 9.949 7.775 1.5 12l-2.5-1c0 1.712 2.571 3 4 3ZM171 154l-2 1 2-1ZM162 167h7l2-2c-8.275 0-2-8.125-2-10-5.903 0-7 7.549-7 12Z"/><path fill="#FFFDBB" id="DN" d="M135 179v1l-8-1-2-16c0-1.872 5-1.926 5-5 6.231 0 8 12.092 8 16.5l-3 4.5ZM329 179l-7 1-3-4.5c-1.97-3.94 2.508-17.5 8-17.5 0 3.506 5 3.428 5 6-.498 0-3 13.487-3 15Z"/><path fill="#FFFB8E" id="PRM" d="M104 171c0 1.796-7 7.547-7 14-2.086 0-8.97 1.265-11.5 0-5.228-2.614-9.5-12.95-9.5-18l11-7c3.176 0 .76 6.87 4.5 5 4.911-2.456 9.661-6 15.5-6l-3 12Z"/><path fill="#FFF990" id="COPY" d="m127 179-4 7c-2.736 0-12.649-15-19-15l3-12c6.531 0 12.825 4 18 4l2 16Z"/><path fill="#F0F080" id="CB" d="M179 160h1v-1l-1 1Z"/><path fill="#FDFC8F" id="NOD" d="M241 177h1l2-1h2l1-1c1.8 0 13-3.852 13-5 0-2.143-3.283-4.934-3-5.5 1.1-2.201 3 2.164 3-2.5l-10-3c0 2.308-6.963 2.232-8.5 3-8.662 4.331-20.608 3.196-29-1-1.3-.65-6.5-.007-6.5-2-2.755 0-5.553 2-9 2l-1 1c0 4.36 4 1.022 4 2.5 0 1.767-4 2.197-4 5.5 0 1.951 2.454.477 3.5 1 3.53 1.765 8.401 5 12.5 5l2 1h1c4.657 0 11.984 4.258 16.5 2 2.963-1.481 5.891-2 9.5-2Z"/><path fill="#FFF990" id="COPY" d="M329 179c1.368 0 4 5.878 4 7 2.411 0 12.003-14 20-14 0-4.062-3-8.575-3-13-6.52 0-14.528 5-18 5-.498 0-3 13.487-3 15Z"/><path fill="#FFFB8E" id="PRM" d="M353 172c4.977 0 6 9.582 6 13 12.348 0 21-2.487 21-18l-11-7c-2.694 0-1.423 6.039-3.5 5-4.831-2.415-9.788-6-15.5-6 0 4.425 3 8.938 3 13Z"/><path fill="#FEFDBC" id="VeCB" d="M177 173h1l1-1 1-1h2l1-1 2-1h1c0-2.319 2-.749 2-5-2.584 0-4.518-4-8-4h-1l-6 4-1 1h-1l-2 2 3 3v1l1 1v1l2 1 2-1ZM283 173l-1 1-3-1-2-1-1-1h-1l-1-1h-1l-2-1h-1c0-1.624-2-2.75-2-5l8-4 2 1 6 3c0 1.712 2.571 3 4 3v1h-1l-1 1-1 1-1 1-1 2Z"/><path fill="#CBC9CC" id="arb" d="M195 162h1l1-1-2 1ZM195 162l-2 1 2-1Z"/><path fill="#AAA9A7" id="V4" d="m189 169 4.5-1 2.5 2c0-3.303 4-3.733 4-5.5 0-1.478-4 1.86-4-2.5h-1l-2 1h-1l-3 6ZM268 169l-5.5-1-2.5 2c0-2.143-3.283-4.934-3-5.5 1.1-2.201 3 2.164 3-2.5l3 1h2c0 3.067 3 4.726 3 6Z"/><path fill="#F0F080" id="CB" d="M187 169h2l3-6-4 1c0 4.251-2 2.681-2 5h1ZM268 169h2c0-1.624-2-2.75-2-5l-3-1c0 3.067 3 4.726 3 6ZM173 164l-1 1 1-1Z"/><path fill="#FF9BCD" id="MY" d="M162 168c3.702 0 7.27 2 10 2l-3-3h-7v1ZM288 168c2.707 0 5.903 1 8 1l-2-2h-6v1Z"/><path fill="#FDB3D6" id="SUV" d="m155 177 2 4c7.678 0 16 .549 16-8v-1l-1-1v-1c-2.73 0-6.298-2-10-2l-5 2-1 1-1 1v5Z"/><path fill="#A9AAA8" id="chpl" d="m232 199-1 1c-12.092 0-12.61-16.055-22.5-21-7.552-3.776-16.37-3-25.5-3-2.061 0-4-.902-4-3 1.238 0 3-.423 3-2h1l1-1h1l2-1h2l4.5-1 2.5 2c0 1.951 2.454.477 3.5 1 3.53 1.765 8.401 5 12.5 5l2 1h1c0 4.215 26 4.482 26 0h1l2-1h2l1-1c1.8 0 13-3.852 13-5l2.5-2 5.5 1h2l1 1h1l1 1h2c0 2.425 3.918 5-2 5h-14c-1.145 0-4-.579-4 1-1.622 0-5-.461-5 2h-1l-1 1-1 1c-2.226 0-4 1.774-4 4-1.747 0-2 .253-2 2-1.617 0-4 4.583-4 6-1.747 0-2 .253-2 2l-2 2v1l-1 1Z"/><path fill="#FF9BCD" id="MY" d="m287 168-1 1 1-1Z"/><path fill="#FDB3D6" id="SUV" d="M302 177c-1.712 0-3 2.571-3 4-6.687 0-16 .234-16-8l1-2 1-1 1-1 1-1h1c2.707 0 5.903 1 8 1l3 1 1 1h1v2l1 1v3Z"/><path fill="#F0F080" id="CB" d="M184 170h1v-1l-2 1h1Z"/><path fill="#AAA9A7" id="V4" d="m187 169-2 1v-1h2ZM271 169v1l-1-1h1Z"/><path fill="#F0F080" id="CB" d="M272 170h1l-2-1v1h1ZM157 170l-1 1 1-1ZM182 171h1v-1l-1 1Z"/><path fill="#AAA9A7" id="V4" d="m184 170-1 1v-1h1ZM273 170v1l-1-1h1Z"/><path fill="#A9AAA7" id="V4r" d="M273 171h1v-1h-1v1Z"/><path fill="#F0F080" id="CB" d="M274 171h1l-1-1v1Z"/><path fill="#FF9BCD" id="MY" d="m285 170-1 1 1-1ZM299 170l1 1-1-1Z"/><path fill="#FFFC8D" id="PFL" d="m117 218-6 1c-1.533 0-4-3.753-4-5l-2-14.5c-2.147-4.294-8-9.07-8-14.5 0-6.453 7-12.204 7-14 6.351 0 16.264 15 19 15 0 .878-12.725 16-2 16v1c-1.175 0-2 5.704-2 7l-1 1-1 7Z"/><path fill="#F0F080" id="CB" d="M150 177h3l2-3v-3c-1.451 0-8 3.778-8 5l2 1h1Z"/><path fill="#FF9BCD" id="MY" d="m156 171-1 1v-1h1ZM172 171l1 1-1-1Z"/><path fill="#F0F080" id="CB" d="m180 171-1 1 1-1Z"/><path fill="#A9AAA7" id="V4r" d="M179 172v1c1.238 0 3-.423 3-2h-2l-1 1ZM273 177h1l5-1v-3l-2-1-1-1h-1c0 2.425 3.918 5-2 5v1Z"/><path fill="#F0F080" id="CB" d="m276 171 1 1-1-1Z"/><path fill="#FF9BCD" id="MY" d="m284 171-1 2 1-2Z"/><path fill="#F0F080" id="CB" d="m303 177 5 1c0-2.109-1.162-2 2-2 0-1.681-7.278-5-9-5v2l1 1v1l1 2Z"/><path fill="#FFFC8D" id="PFL" d="m339 218 6 1c2.193 0 4.018-3.535 5-5.5l1-12c2.308-4.615 8-11.193 8-16.5 0-3.418-1.023-13-6-13-7.997 0-17.589 14-20 14 0 5.645 8.567 6.366 5 13.5l-2 2.5 2 10 1 1v5Z"/><path fill="#F0F080" id="CB" d="M178 173h1v-1l-1 1Z"/><path fill="#FF9BCD" id="MY" d="M157 184c1.257 0 8-2.461 8 0l10.5-5c1.303-.652 7.5-.219 7.5-2-1.623 0-6-.005-6-2l-2-1-2-1c0 8.549-8.322 8-16 8v3Z"/><path fill="#F0F080" id="CB" d="m175 174 2 1v-2l-2 1Z"/><path fill="#A9AAA7" id="V4r" d="M183 176v1c-1.623 0-6-.005-6-2v-2h2c0 2.098 1.939 3 4 3Z"/><path fill="#F0F080" id="CB" d="m282 174-3 2v-3l3 1Z"/><path fill="#FF9BCD" id="MY" d="M292 184c0-2.461 6.743 0 8 0l-1-3c-6.687 0-16 .234-16-8l-1 1-3 2-5 1c0 1.951 2.454.477 3.5 1l14.5 6ZM301 173l1 1-1-1ZM153 177h2v-3l-2 3Z"/><path fill="#AAA9A7" id="V4" d="m247 175-1 1 1-1Z"/><path fill="#FF9BCD" id="MY" d="M302 177h1l-1-2v2Z"/><path fill="#A9AAA7" id="V4r" d="M121 202v1c1.094 0 4.254-10.008 5-11.5 3.65-7.299 13.948-13.5 22-13.5l1-1-2-1-10 3-2 1-8 7.5c-2.262 4.524-6 9.081-6 14.5Z"/><path fill="#AAA9A7" id="V4" d="M218 193c1.815 0 13 16.376 13 7-12.092 0-12.61-16.055-22.5-21-7.552-3.776-16.37-3-25.5-3v1h5c10.105 0 21.043-.414 26 9.5l4 6.5ZM212 176l2 1-2-1ZM244 176l-2 1 2-1ZM270 177h3v-1h-14c-1.145 0-4-.579-4 1h15Z"/><path fill="#A9AAA7" id="V4r" fill-rule="evenodd" d="M337 219c0 3.224-2.666 4.832-4 7.5-.484.969.065 4.5 1.5 4.5 3.233 0 8.706-12 2.5-12m-6 20c.264 0 3 3.999 3 1l8-18-3-4v-5l-1-1-2-10c0-4.991-5.524-14.024-9-17.5l-8-5.5-7-2-1-1h-1c-3.162 0-2-.109-2 2 18.509 0 21.803 16.107 28 28.5 1.751 3.501-.301 16.5-5 16.5v16Z"/><path fill="#F0F080" id="CB" d="m311 176 1 1-1-1ZM148 178h1v-1l-1 1Z"/><path fill="#FF9BCD" id="MY" d="m150 177-1 1v-1h1Z"/><path fill="#FEA5D1" id="DCO" d="m126 222-1 1c-6.567 0-4-16.306-4-20 1.094 0 4.254-10.008 5-11.5 3.65-7.299 13.948-13.5 22-13.5h1l1-1h5l2 4v3c-1.294 0-7 3.609-7 5 0 3.313-9 3.012-9 8-1.577 0-2 1.762-2 3l-4 5-1 1c-3.622 0-8 13.367-8 16Z"/><path fill="#FEB1D9" id="SPIV" d="m180 209-17 2-2-3c0-1.563-5.158-7-7-7 0-.706-1.325-6-2-6v-1l1-5 2-1 2-1h1l1-1h1l1-1h3l1-1 10.5-5c1.303-.652 7.5-.219 7.5-2h3l2 2c0 4.488-1.187 15.874-3 19.5l-4 9.5-1 1Z"/><path fill="#FF9BCD" id="MY" d="M188 177v2l-2-2h2Z"/><path fill="#FFB0D7" id="MV" d="M201 213h2l4-2c0-1.429 1.288-4 3-4 0-2.097 6.012-14 8-14l-4-6.5c-4.957-9.914-15.895-9.5-26-9.5v2c0 4.488-1.187 15.874-3 19.5l-4 9.5 1 1c4.854 0 8.932 2 13 2 .706 0 6 1.325 6 2Z"/><path fill="#AAA9A7" id="V4" d="M215 177c4.657 0 11.984 4.258 16.5 2 2.963-1.481 5.891-2 9.5-2 0 4.482-26 4.215-26 0ZM255 177c-1.622 0-5-.461-5 2 1.041 0 5-.986 5-2Z"/><path fill="#FFB0D7" id="MV" d="M253 213h3c0-.672 4.329-2 5-2 4.299 0 8.849-2 14-2v-1c0-3.771-2.388-8.277-4-11.5-2.491-4.982-2-12.51-2-18.5l-1-1h-13c0 1.014-3.959 2-5 2h-1l-1 1-1 1-4 4-2 2-2 5c0 5.875 8 10.251 8 16l2 2v1l4 2Z"/><path fill="#FF9BCD" id="MY" d="m270 177-1 1-1-1h2Z"/><path fill="#FEB1D9" id="SPIV" d="m296 209-3 2-17-2-1-1c0-3.771-2.388-8.277-4-11.5-2.491-4.982-2-12.51-2-18.5l1-1h4c0 1.951 2.454.477 3.5 1l14.5 6c0 1.473 1.952 1 3 1l1 1h1l1 1h2l1 1h1c0 2.043 2 3.957 2 6v3c-1.579 0-1 2.855-1 4-3.034 0-7 5.156-7 8Z"/><path fill="#FEA5D1" id="DCO" d="m330 222 1 1c4.699 0 6.751-12.999 5-16.5-6.197-12.393-9.491-28.5-28-28.5l-5-1h-1c-1.712 0-3 2.571-3 4l1 3c0 1.371 6 2.059 6 5 5.309 0 15.416 16 16 16 4.017 0 8 13.968 8 17Z"/><path fill="#CBC9CC" id="arb" d="M123 186c0 .878-12.725 16-2 16 0-5.419 3.738-9.976 6-14.5l8-7.5-8-1-4 7ZM137 179l-2 1v-1h2Z"/><path fill="#AAA9A7" id="V4" d="m249 179-1 1 1-1Z"/><path fill="#CBC9CC" id="arb" d="M333 186c0 5.645 8.567 6.366 5 13.5l-2 2.5c0-4.991-5.524-14.024-9-17.5l-8-5.5 3 1 7-1c1.368 0 4 5.878 4 7Z"/><path fill="#AAA9A7" id="V4" d="m248 180-1 1 1-1ZM247 181c-2.226 0-4 1.774-4 4l4-4Z"/><path fill="#CCCBC8" id="das" d="M150 189h3l2-1 2-1h1l1-1h1l1-1h3l1-1c0-2.461-6.743 0-8 0-1.294 0-7 3.609-7 5ZM302 188l4 1c0-2.941-6-3.629-6-5-1.257 0-8-2.461-8 0 0 1.473 1.952 1 3 1l1 1h1l1 1h2l1 1h1Z"/><path fill="#FF9BCD" id="MY" d="m165 184-1 1 1-1ZM161 185l-1 1 1-1Z"/><path fill="#AAA9A7" id="V4" d="M243 185c-1.747 0-2 .253-2 2l2-2Z"/><path fill="#FF9BCD" id="MY" d="m295 185 1 1-1-1ZM159 186l-1 1 1-1ZM297 186l1 1-1-1ZM157 187l-2 1 2-1Z"/><path fill="#AAA9A7" id="V4" d="m239 192-2 1c0-1.417 2.383-6 4-6l-2 5Z"/><path fill="#FF9BCD" id="MY" d="m300 187 1 1-1-1ZM155 188l-2 1 2-1ZM322 205l3 12c-2.076 0-3.216-7.932-4-9.5-4.225-8.449-7.765-13.5-17-13.5 0-2.043-2-3.957-2-6l4 1c5.309 0 15.416 16 16 16Z"/><path fill="#FFFC8D" id="PFL" d="M71 189c0 1.484-8.77 3.04-10 5.5-3.165 6.33-6 9.593-6 18l2 24c0 15.497 4.696 19.598 16.5 25.5 1.584.792 5.944 2.028 8 1l9-5 1.5-3.5c2.678-5.356 4.402-10.804 7-16v-7c2.149-4.297 6.805-16.389 4-22-5.35-10.701-19.841-20.5-32-20.5Z"/><path fill="#FF9BCD" id="MY" d="M152 194c-6.238 0-7.718 3-11 3 0-4.988 9-4.687 9-8h3l-1 5Z"/><path fill="#FFFC8D" id="PFL" d="M380 189c0 1.259-9.067 3.283-10.5 4L353 209.5c-3.261 6.522 4 15.275 4 21 0 6.414 1.356 11.712 4 17 6.178 12.357 11.822 19.839 26.5 12.5 2.638-1.319 6.862-3.225 8.5-6.5 2.659-5.319.855-14.709 3-19 1.864-3.727-.808-9.384 1-13 7.449-14.897-4.873-32.5-20-32.5Z"/><path fill="#FFB3D7" id="PRP" d="M223 209c0-2.123 10-2.123 10 0 3.962 0 8.688-1 12-1h2c0-5.749-8-10.125-8-16l-2 1-2 2c0 1.747-.253 2-2 2v1l-1 1-1 1c0 9.376-11.185-7-13-7-1.988 0-8 11.903-8 14l1 1c3.531 0 7.893 1 12 1Z"/><path fill="#C9C9C8" id="icp" d="M141 271c-1.321 0-6-.684-6 1l-3.5-3c-8.74-8.74-6.5-17.746-6.5-29v-5l1-1v-2c2.277 0 5-10.8 5-13v-1c2.109 0 2-2.535 2-4v-1c1.447 0 6-11.165 6-13 1.577 0 2-1.762 2-3 3.282 0 4.762-3 11-3v1l-2 8-1 2c-6.789 0-16 24.153-16 31-1.643 0-1 3.765-1 5 0 6.557-2.066 13.368 1 19.5l8 10.5Z"/><path fill="#AAA9A7" id="V4" d="M237 193c-1.747 0-2 .253-2 2l2-2Z"/><path fill="#C9C9C8" id="icp" d="M323 271h1l1-1v-1l2-2c0-1.238.423-3 2-3l1-2 1-1v-2l1-2 1-2v-5c-.766 0-2-9.884-2-11v-6c-2.324 0-6-12.734-6-15v-1c-2.076 0-3.216-7.932-4-9.5-4.225-8.449-7.765-13.5-17-13.5v3c1.369 0 3.041 7.771 5.5 9 8.077 4.038 15.5 28.787 15.5 38 0 7.122-.081 12.662-3 18.5l-6 8.5c1.235 0 5-.643 5 1l2-1Z"/><path fill="#FF9BCD" id="MY" d="m154 201-4 2 2-8c.675 0 2 5.294 2 6Z"/><path fill="#AAA9A7" id="V4" d="m235 195-2 2c1.747 0 2-.253 2-2Z"/><path fill="#FF9BCD" id="MY" d="M141 197c-1.577 0-2 1.762-2 3 1.577 0 2-1.762 2-3ZM304 209c8.339 0 15.059 17.619 18 23.5.757 1.515 1.58 11.5 3 11.5 0-9.213-7.423-33.962-15.5-38-2.459-1.229-4.131-9-5.5-9-1.579 0-1 2.855-1 4 7.603 0 1 7.673 1 8Z"/><path fill="#AAA9A7" id="V4" d="m233 198-1 1 1-1ZM232 199l-1 1 1-1Z"/><path fill="#FF9BCD" id="MY" d="m134 206-1 7c1.447 0 6-11.165 6-13l-4 5-1 1Z"/><path fill="#FFB0D9" id="x" d="M152 209h1c2.707 0 5.903-1 8-1 0-1.563-5.158-7-7-7l-4 2-1 2c0 2.54 3 2.543 3 4ZM296 209h8c0-.327 6.603-8-1-8-3.034 0-7 5.156-7 8Z"/><path fill="#A9AAA7" id="V4r" d="M122 240h3v-5l1-1v-2c0-3.222-1-6.277-1-9-6.567 0-4-16.306-4-20-1.175 0-2 5.704-2 7l-1 1-1 7v1c3.198 0 8.621 10.44 5.5 12-4.039 2.02-5.5-9.869-5.5-12l-2 3c0 6.019 7 12.039 7 18Z"/><path fill="#FF9BCD" id="MY" d="m150 203-1 2 1-2Z"/><path fill="#FEA4D2" id="VCO" d="m135 205-1 1 1-1Z"/><path fill="#FF9BCD" id="MY" d="M152 209c-6.079 0-12.427 11.354-15 16.5-.819 1.638-2.027 10.5-4 10.5 0-6.847 9.211-31 16-31 0 2.54 3 2.543 3 4Z"/><path fill="#FEA4D2" id="VCO" d="M325 218c.294 0 5 8.167 5 4 0-3.032-3.983-17-8-17l3 12v1ZM131 219c-.066 0-5 7.389-5 3 0-2.633 4.378-16 8-16l-1 7v1l-2 4v1Z"/><path fill="#FF9BCD" id="MY" d="m211 208-4 3c0-1.429 1.288-4 3-4l1 1ZM227 232c0 1.919 2 2.488 2 0l.5-23c3.543-1.771 1.5 11.238 1.5 13l4-1-2-2.5c-.747-1.495 0-8.038 0-9.5 0-2.123-10-2.123-10 0 0 3.962-1 8.688-1 12h3v-5.5c0-.402.151-9.698 2-6v17c0 1.686.721 5.5 0 5.5ZM163 215c-7.036 0-12.755 8-16 8 0-3.953 6-5.455 6-14 2.707 0 5.903-1 8-1l2 3v4ZM180 209h2l-1-1-1 1Z"/><path fill="#FCB3D8" id="PGRNd" d="M222 221c-4.607 0-10.052 1-14 1l-1-1c0-1.564-1-3.876-1-6l1-4 4-3c3.531 0 7.893 1 12 1 0 3.962-1 8.688-1 12ZM250 221l-1 1c-4.121 0-9.275-1-14-1l-2-2.5c-.747-1.495 0-8.038 0-9.5 3.962 0 8.688-1 12-1l4 2v1l1 4v6Z"/><path fill="#FF9BCD" id="MY" d="m247 208 2 2-4-2h2ZM275 209h1l-1-1v1Z"/><path fill="#C8CACA" id="sptV" d="M141 271c2.675 0 5.922 3 9 3 2.292 0 1.871-3.314.5-4-2.064-1.032-9.5-4.726-9.5-8v-1c-1.577 0-2-1.762-2-3v-2c-1.014 0-2-3.959-2-5 0-2.442 1.442-16 4-16l1-2c0-1.048-.473-3 1-3v-1l1-2 1-1c0-1.238.423-3 2-3 0-3.953 6-5.455 6-14h-1c-6.079 0-12.427 11.354-15 16.5-.819 1.638-2.027 10.5-4 10.5 0 1.235.643 5-1 5 0 6.557-2.066 13.368 1 19.5l8 10.5Z"/><path fill="#FDA5D1" id="NTS" d="M171 221h2l1-1c5.161 0 10.418-5 16-5l4-1 1-1v-2c-4.068 0-8.146-2-13-2h-2l-17 2v4c1.463 0 7 3.486 7 5l1 1Z"/><path fill="#CBCBCC" id="mlf" d="M225 221c0 3.776 2 7.581 2 11 .721 0 0-3.814 0-5.5v-17c-1.849-3.698-2 5.598-2 6v5.5ZM231 222c0 2.049.342 10-2 10l.5-23c3.543-1.771 1.5 11.238 1.5 13Z"/><path fill="#FDA5D1" id="NTS" d="M285 221h1c0-2.747 6.16-6 8-6l-1-4-17-2h-1c-5.151 0-9.701 2-14 2v2l3 1 1 1h1c6.664 0 12.767 6 19 6Z"/><path fill="#FF9BCD" id="MY" d="M294 215c7.766 0 17.203 13 19 13 0-4.878-7.854-10.208-10-14.5l1-4.5h-8l-3 2 1 4Z"/><path fill="#C8CACA" id="sptV" d="m316 271-9 3c-6.533 0 6-8.588 6-9l2-2 1-3 1-1v-1c1.951 0 .477-2.454 1-3.5 1.605-3.21.6-19.5-3-19.5v-1c0-1.041-.986-5-2-5v-1c0-4.878-7.854-10.208-10-14.5l1-4.5c8.339 0 15.059 17.619 18 23.5.757 1.515 1.58 11.5 3 11.5 0 7.122-.081 12.662-3 18.5l-6 8.5Z"/><path fill="#F0F080" id="CB" d="m119 210-1 1 1-1Z"/><path fill="#FF9BCD" id="MY" d="M195 213h6c0-.675-5.294-2-6-2v2ZM203 213l3 2 1-4-4 2ZM253 213l-3 2-1-4 4 2ZM256 213h5v-2c-.671 0-5 1.328-5 2Z"/><path fill="#F0F080" id="CB" d="m338 212 1 1-1-1Z"/><path fill="#FF9BCD" id="MY" d="m195 213-1 1 1-1Z"/><path fill="#FFB2D8" id="IRN" d="M175 263c6.978 0 11.118 3 18 3 0-3.817 2.426-6.352 4-9.5 2.584-5.169 10-28.928 10-34.5v-1c0-1.564-1-3.876-1-6l-3-2h-8l-1 1-4 1c0 10.859-19 35.583-19 43 2.96 0 4 2.399 4 5ZM263 265l1 1c6.408 0 10.337-3 17-3 0-3.684 3.099-4 5-4 0-7.035-20-34.455-20-44h-1l-1-1-3-1h-8l-3 2v8c0 12.73 13 33.07 13 42Z"/><path fill="#FF9BCD" id="MY" d="m133 214-2 4c2.109 0 2-2.535 2-4ZM264 214l1 1-1-1Z"/><path fill="#FFA4D0" id="SPVO" d="M141 262c1.518 0 4.599 4 10 4 0-.656 3.319-4.138 4-5.5 2.765-5.531-.844-14.313 2-20 4.336-8.671 13-6.266 13-18.5v-2c0-1.514-5.537-5-7-5-7.036 0-12.755 8-16 8 0 1.238-.423 3-2 3l-1 1-1 2v1c0 1.048.473 3-1 3l-1 2c0 7.081-2 13.309-2 21v2l2 3v1Z"/><path fill="#FCB3D9" id="PARN" d="M151 266c.447 0 3.935 4 8 4 0-3.996 8-2.483 8-6l1-1 3-5c0-7.417 19-32.141 19-43-5.582 0-10.839 5-16 5l-1 1h-2l-1 1c0 12.234-8.664 9.829-13 18.5-2.844 5.687.765 14.469-2 20-.681 1.362-4 4.844-4 5.5ZM305 266c0 3.752-5.469 4-8 4 0-1.643-5.211-5-7-5l-1-1-3-5c0-7.035-20-34.455-20-44 6.664 0 12.767 6 19 6l1 1c0 12.187 9.063 9.626 13 17.5 2.718 5.435-.635 13.73 2 19 .74 1.479 4 6.906 4 7.5Z"/><path fill="#FFA4D0" id="SPVO" d="M313 265c-3.079 0-4.921 1-8 1 0-.594-3.26-6.021-4-7.5-2.635-5.27.718-13.565-2-19-3.937-7.874-13-5.313-13-17.5v-1c0-2.747 6.16-6 8-6 7.766 0 17.203 13 19 13v1c0 1.424.362 5 2 5v1c0 6.416 2 14.606 2 23v1l-1 1-1 3c-1.747 0-2 .253-2 2Z"/><path fill="#F0F080" id="CB" d="m117 219-2 3c-1.114 0-4-2.034-4-3l6-1v1Z"/><path fill="#FF9BCD" id="MY" d="M331 223v10c-2.324 0-6-12.734-6-15 .294 0 5 8.167 5 4l1 1Z"/><path fill="#F0F080" id="CB" d="m345 219-3 3-3-4 6 1Z"/><path fill="#A9AAA8" id="chpl" d="M117 219c0 2.131 1.461 14.02 5.5 12 3.121-1.56-2.302-12-5.5-12Z"/><path fill="#FF9BCD" id="MY" d="M125 223c0 2.723 1 5.778 1 9 2.277 0 5-10.8 5-13-.066 0-5 7.389-5 3l-1 1Z"/><path fill="#A9AAA8" id="chpl" d="M337 219c0 3.224-2.666 4.832-4 7.5-.484.969.065 4.5 1.5 4.5 3.233 0 8.706-12 2.5-12Z"/><path fill="#FF9BCD" id="MY" d="m171 221-1 1v-2l1 1ZM174 220l-1 1 1-1ZM207 222h1l-1-1v1Z"/><path fill="#FEB0D8" id="GRN" d="m257 276-2 1c0-6.778-13.246-16-20-16 0-5.534-6-25.914-6-10h-2c0-15.677-6 5.198-6 10-6.848 0-11.149 4.649-16 9.5l-4 6.5-1-1c0-5.103 5.599-10-7-10 0-3.817 2.426-6.352 4-9.5 2.584-5.169 10-28.928 10-34.5h1c3.948 0 9.393-1 14-1h3c0 3.776 2 7.581 2 11 0 1.919 2 2.488 2 0 2.342 0 2-7.951 2-10l4-1c4.725 0 9.879 1 14 1l1 1c0 12.73 13 33.07 13 42v1c-13.929 0-6 6.535-6 10Z"/><path fill="#FF9BCD" id="MY" d="m249 222 1 1v-2l-1 1ZM286 221v1l-1-1h1ZM147 223c-1.577 0-2 1.762-2 3 1.577 0 2-1.762 2-3ZM145 226l-1 1 1-1ZM144 227l-1 2 1-2ZM313 229c1.014 0 2 3.959 2 5-1.638 0-2-3.576-2-5ZM143 230c-1.473 0-1 1.952-1 3 1.473 0 1-1.952 1-3ZM142 233l-1 2 1-2ZM126 234l-1 1 1-1ZM141 235c-2.558 0-4 13.558-4 16 0 1.041.986 5 2 5 0-7.691 2-13.919 2-21ZM315 235c3.6 0 4.605 16.29 3 19.5-.523 1.046.951 3.5-1 3.5 0-8.394-2-16.584-2-23ZM133 236c-1.643 0-1 3.765-1 5 1.643 0 1-3.765 1-5ZM334 240c2.265 0-1 8.63-1 10-.766 0-2-9.884-2-11 .264 0 3 3.999 3 1ZM135 272l1 2c-9.731 0-14-26.864-14-34h3c0 11.254-2.24 20.26 6.5 29l3.5 3Z"/><path fill="#C8C8CC" id="tspc" d="m226 263-2 2c-2.098 0-3-1.939-3-4 0-4.802 6-25.677 6-10v10l-1 2ZM232 264l1 1c2.109 0 2-2.535 2-4 0-5.534-6-25.914-6-10v9l1 1v1l2 2Z"/><path fill="#FEC6E2" id="RO" d="M227 277h2l1-1v-1l-1-14v-10h-2v12l-1 12 1 2Z"/><path fill="#FF9BCD" id="MY" d="m333 255-1 2 1-2ZM332 257l-1 2 1-2ZM139 258l2 3c-1.577 0-2-1.762-2-3Z"/><path fill="#FEB3D6" id="AMBd" d="M168 264c0 2.726 5.294 0 6 0l1-1c0-2.601-1.04-5-4-5l-3 5v1ZM282 264h7l-3-5c-1.901 0-5 .316-5 4l1 1Z"/><path fill="#FF9BCD" id="MY" d="m317 259-1 1 1-1Z"/><path fill="#FEB0D8" id="GRN" d="M229 261h1l-1-1v1Z"/><path fill="#FDB2D9" id="MARN" d="m224 265 1 4.5c-2.757 5.515-24 20.501-24 7.5l4-6.5c4.851-4.851 9.152-9.5 16-9.5 0 2.061.902 4 3 4Z"/><path fill="#FEB0D8" id="GRN" d="M226 263h1v-2l-1 2Z"/><path fill="#FF9BCD" id="MY" d="M283 291c0 2.308-6.963 2.232-8.5 3-6.048 3.024-16.997 5-24 5-1.37 0-10.5 2.569-10.5 0 10.809 0 11.243-10-1-10 0-1.579 2.855-1 4-1 4.405 0 7.069 3 11.5 3l5.5-.5-4-3-15.5-7.5-3 3c-4.202-2.101-2.514-8-7.5-8l-1-14h1v1c0 2.003-.293 3 2 3 0 9.687 5.399 10.45 12.5 14 1.469.734 6.349 4.826 8 4 2.571-1.286 2.5-3.583 2.5-6l2-1c0 2.667 14.532 13.984 16.5 13l7.5-4v3l-4 3.5 6-.5Z"/><path fill="#FDB2D9" id="MARN" d="M232 265h1c2.109 0 2-2.535 2-4 6.754 0 20 9.222 20 16 0 2.417.071 4.714-2.5 6-1.651.826-6.531-3.266-8-4-7.101-3.55-12.5-4.313-12.5-14Z"/><path fill="#FF9BCD" id="MY" d="m331 261-1 1 1-1ZM211 289c0 1.604-9.204 10 5 10 0 1.643-3.765 1-5 1-.842 0-13.835-1.667-14.5-2-6.92-3.46-16.074-2.537-23-6l-21-11c-2.004-1.002-13.5-3.706-13.5-6 3.94 0 10.03 3.265 13.5 5l3.5-.5c0-2.762-6-3.47-6-5.5 2.292 0 1.871-3.314.5-4-2.064-1.032-9.5-4.726-9.5-8 1.518 0 4.599 4 10 4 .447 0 3.935 4 8 4l1 3c-3.626 0-3 3.26-3 6 0 2.649 13.113 11 16 11 1.11 0 5.216 3.068 6 1.5 1.003-2.006-9-4.687-9-6.5.814 0 6 2.623 6 1.5l-3-3.5c3.228 0 7.684 7.908 11.5 6 3.606-1.803 8.063-5.063 11-8l4.5-5 1 1c0 13.001 21.243-1.985 24-7.5l-1-4.5c1.747 0 2-.253 2-2h1l-1 12c-4.567 0-3.559 8-7.5 8l-2-3c-2.418-1.209-9.856 4.928-12 6-1.117.558-8.334 2.832-7.5 4.5 1.491 2.981 11.903-1.5 14-1.5Z"/><path fill="#FEB0D8" id="GRN" d="M232 264v1c-2.293 0-2-.997-2-3l2 2Z"/><path fill="#FF9BCD" id="MY" d="m330 262-1 2 1-2ZM167 264h1v-1l-1 1ZM175 263l-1 1 1-1Z"/><path fill="#FCB2D9" id="PGRNl" d="m200 276-4.5 5c-2.937 2.937-7.394 6.197-11 8-3.816 1.908-8.272-6-11.5-6-4.905 0-6.982-10-13-10l-1-3c0-3.996 8-2.483 8-6h1c0 2.726 5.294 0 6 0l1-1c6.978 0 11.118 3 18 3 12.599 0 7 4.897 7 10Z"/><path fill="#FEB0D8" id="GRN" d="m226 263-2 2c1.747 0 2-.253 2-2Z"/><path fill="#FCB2D9" id="PGRNl" d="m282 284-1 1-7.5 4c-1.968.984-16.5-10.333-16.5-13 0-3.465-7.929-10 6-10h1c6.408 0 10.337-3 17-3l1 1h7l1 1c1.789 0 7 3.357 7 5l-1 3c-5.281 0-5.899 8-10 8l-1 1-1 1-2 1Z"/><path fill="#FF9BCD" id="MY" d="m281 263 1 1-1-1ZM315 263c-1.747 0-2 .253-2 2l2-2ZM232 265h1l-1-1v1ZM289 264l1 1-1-1ZM329 264c-1.577 0-2 1.762-2 3 1.577 0 2-1.762 2-3ZM263 266h1l-1-1v1ZM307 279l-5.5 3c-4.389 2.195-9.339 7-14.5 7 0-3.517 12-3.722 12-10 0-3.425 1.021-6-3-6l1-3c2.531 0 8-.248 8-4 3.079 0 4.921-1 8-1 0 .412-12.533 9-6 9l-6 3.5c-.805 1.609.891 3.305 2.5 2.5l3.5-1ZM327 267l-2 2c1.747 0 2-.253 2-2ZM325 270l-1 1 1-1Z"/><path fill="#C9CACA" id="sctd" d="M138 275h1c3.94 0 10.03 3.265 13.5 5l3.5-.5c0-2.762-6-3.47-6-5.5-3.078 0-6.325-3-9-3-1.321 0-6-.684-6 1l1 2h1l1 1ZM313 277c-1.357 0-6 .647-6 2l-3.5 1c-1.609.805-3.305-.891-2.5-2.5l6-3.5 9-3c1.235 0 5-.643 5 1v1l-1 1h-1l-1 1h-2l-1 1-2 1Z"/><path fill="#FF9BCD" id="MY" d="M321 272v1c1.747 0 2-.253 2-2l-2 1Z"/><path fill="#C8C8CB" id="rust" d="M169 285h1c.814 0 6 2.623 6 1.5l-3-3.5c-4.905 0-6.982-10-13-10-3.626 0-3 3.26-3 6h2l2 1 2 1 4 2 1 1 1 1ZM281 288h1c0-2.293.997-2 3-2l1-1h1l1-1h1l1-1c0-1.577 1.762-2 3-2l3-1 1-1h2c0-3.425 1.021-6-3-6-5.281 0-5.899 8-10 8l-1 1-1 1-2 1-1 1v3Z"/><path fill="#FF9BCD" id="MY" d="m321 273-1 1 1-1ZM137 274l1 1-1-1Z"/><path fill="#FFB3D8" id="IO" d="m231 281 4 4.5-3 2c0 2.243 5.698 1.5 7 1.5 0-1.579 2.855-1 4-1 4.405 0 7.069 3 11.5 3l5.5-.5-4-3-15.5-7.5-3 3c-4.202-2.101-2.514-8-7.5-8v4l1 1v1Z"/><path fill="#C9C9C8" id="icp" d="M318 275h1v-1l-1 1Z"/><path fill="#FF9BCD" id="MY" d="m320 274-1 1v-1h1Z"/><path fill="#FFB3D8" id="IO" d="M225 281c-4.533 0-.932 7.716-1.5 8-2.054 1.027-12.5-2.78-12.5 0-2.097 0-12.509 4.481-14 1.5-.834-1.668 6.383-3.942 7.5-4.5 2.144-1.072 9.582-7.209 12-6l2 3c3.941 0 2.933-8 7.5-8l1 2v1l-1 1v1l-1 1Z"/><path fill="#C9C9C8" id="icp" d="M315 276h1v-1l-1 1Z"/><path fill="#FF9BCD" id="MY" d="m317 275-1 1v-1h1ZM229 277l1 1v-2l-1 1ZM316 276c0 1.473-1.952 1-3 1l2-1h1Z"/><path fill="#FFC6E2" id="RPA" d="M225 281c0 11.331 6 11.757 6 0v-1l-1-1v-1l-1-1h-2v1l-1 1v1l-1 1Z"/><path fill="#FF9BCD" id="MY" d="M313 277c-1.357 0-6 .647-6 2 1.623 0 6-.005 6-2ZM227 278l-1 1 1-1Z"/><path fill="#CBC7CC" id="sctv" d="M169 285h1c0 1.813 10.003 4.494 9 6.5-.784 1.568-4.89-1.5-6-1.5-2.887 0-16-8.351-16-11h2l2 1 2 1c0 2.109 2.535 2 4 2l1 1 1 1Z"/><path fill="#FF9BCD" id="MY" d="m159 279 2 1-2-1ZM230 279l1 1-1-1ZM297 279l-1 1 1-1Z"/><path fill="#CBC7CC" id="sctv" d="M287 289c-1.465 0-4-.109-4 2l-6 .5 4-3.5h1l3-2 1-1h1l1-1h1l1-1c1.238 0 3-.423 3-2l3-1 1-1h2c0 6.278-12 6.483-12 10Z"/><path fill="#FF9BCD" id="MY" d="m226 280-1 1 1-1ZM163 281l4 2c-1.465 0-4 .109-4-2ZM219 299c3.658 0 9.028-7 9.5-7l2.5 3.5c1.917 1.917 4.21 3.5 7 3.5 0-1.729-6.666-3.169-5-6.5 1.184-2.369 6-.459 6-3.5-1.302 0-7 .743-7-1.5l3-2-4-4.5c0 11.757-6 11.331-6 0-4.533 0-.932 7.716-1.5 8-2.054 1.027-12.5-2.78-12.5 0 3.144 0 14.714 1.072 12 6.5l-4 3.5ZM286 281l-1 1 1-1ZM293 281c-1.238 0-3 .423-3 2 1.238 0 3-.423 3-2ZM285 282l-1 1 1-1ZM290 283l-1 1 1-1ZM168 284l1 1-1-1ZM282 284l-1 1 1-1ZM288 284l-1 1 1-1ZM286 285l-1 1 1-1ZM285 286c-2.003 0-3-.293-3 2l3-2Z"/><path fill="#C7C9C9" id="py" d="M216 299h3l4-3.5c2.714-5.428-8.856-6.5-12-6.5 0 1.604-9.204 10 5 10ZM238 299h2c10.809 0 11.243-10-1-10 0 3.041-4.816 1.131-6 3.5-1.666 3.331 5 4.771 5 6.5Z"/><path fill="#FF9BCD" id="MY" d="M287 289c-1.465 0-4-.109-4 2l4-2Z"/></svg>