<svg xmlns="http://www.w3.org/2000/svg" viewBox="0 0 456 320"><path fill="#098589" id="VISp1" d="M96 75h1c0-2.797 7.584-7.042 9.5-8l6-6 17-7c1.17-.585 12.5 1.16 12.5 3h1l3.5-2c2.613-1.307 4.355-6 8.5-6 0-3.47-17.061-6.72-20.5-5-6.649 3.324-14.28 4.64-21 8-4.836 2.418-8.112 7.556-13 10L89 73l7 2ZM359 75h2c2.483 0 4.026-2 6-2 0-3.373-4.773-4.047-6-6.5-3.547-7.095-21.388-15.944-28.5-19.5-3.284-1.642-7.667-1.334-11-3-3.398-1.699-20.5 1.92-20.5 5 5.853 0 7.593 8 13 8 0-1.872 12.09-3.705 13.5-3 6.078 3.04 31.5 14.215 31.5 21Z"/><path fill="#FF7AFD" id="SCzo" d="M221 58h4c0-9.37-14.815-12.843-22.5-9l-3.5 2v7h6c0-10.058 16-7.72 16 0ZM252 58l5 1v-8c0-1.993-5.2-1.35-6.5-2-6.766-3.383-19.5.35-19.5 9h4c0-7.922 17-9.746 17 0Z"/><path fill="#1BA696" id="RSPagl1" d="m129 80 4 1 7-4 1-1 1-1 1-1 1-1 1-1 12-17.5c1.032-2.065.151-5.5-2-5.5-4.145 0-5.887 4.693-8.5 6l-3.5 2c0 8.857-14 18.969-14 23ZM327 80l-4 1-10-7c0-.654-11.719-15.938-13-18.5-.657-1.315-2.386-6.5 1-6.5 5.853 0 7.593 8 13 8 0 9.717 13 16.738 13 23Z"/><path fill="#FF64FF" id="MB" d="m141 130 3.5-3 3 2c2.165 1.082 13.5.744 13.5 4 9.404 0 15.19-9.345 22.5-13l3.5 1c0-5.289 10-18.617 10-22-1.918 0-1-6.627-1-7-2.141 0-2.793-4.913-2-6.5 1.315-2.63 10-3.704 10-7.5l1-1c0-5.28 2-8.97 2-14l-2-2c-3.425 0-6 1.02-6-3v-7c-5.179 0-13.934 1.717-18.5 4-1.119.56-4.5.155-4.5 2h1c4.053 0 10.682-4.409 15.5-2 5.736 2.868.5 10.637.5 14.5 0 4.634-2.256 27.511-4 31l-6 14.5v1l-1 1c0 6.515-10.967 9.733-15.5 12-2.555 1.278-4.516-2-6.5-2-1.804 0-5.136 2.182-7.5 1-17.559-8.779-5.5-27.252-5.5-40-5.893 0-6 22.269-6 27.5 0 1.995 1.042 8.5-2 8.5l2 6Z"/><path fill="#FF78FF" id="SCsg" d="M205 58h16c0-7.72-16-10.058-16 0ZM235 58h17c0-9.746-17-7.922-17 0Z"/><path fill="#FF64FF" id="MB" d="M315 130c0-4.802-12.065-.217-14.5 1-1.319.659-5.5-.334-5.5 2-9.535 0-16.664-12-25-12l-10-22c1.714 0 1-5.594 1-7 0-1.606 2.081-4.338 1-6.5-1.669-3.338-10-4.079-10-8.5l-3-14 2-3c1.84 0 6 3.14 6-1v-8c3.19 0 23 3.5 23 6h-1c-5.374 0-10.625-3.937-16.5-1-1.447.724-2.25 4-1.5 5.5 3.989 7.978 1.389 19.778 5 27v7l6 16c.465.93.817 4.5 2 4.5 0 7.418 10.7 10.6 15.5 13 2.555 1.278 4.516-2 6.5-2 2.014 0 5.932 2.284 8.5 1 12.722-6.361 9.61-30.28 4.5-40.5-1.352-2.703-6-7.555-6-10.5l2 1c0 4.516 5.995 10.49 8 14.5 1.822 3.644 1.186 8.372 3 12v15c0 1.19-.614 4.5 1 4.5 0 1.357-.647 6-2 6Z"/><path fill="#0A828C" id="VISp2/3" d="M97 75c6.818 0 13.348 4 21 4l5.5-6c2.07-2.07 18.31-16 18.5-16 0-1.84-11.33-3.585-12.5-3l-17 7-6 6c-1.916.958-9.5 5.203-9.5 8ZM359 75c0 2.26-5.803 0-6.5 0v2c-1.45.725-12.609 2-14.5 2 0-3.36-17.324-16.412-20.5-18l-3.5-4c0-1.872 12.09-3.705 13.5-3 6.078 3.04 31.5 14.215 31.5 21Z"/><path fill="#FE79FF" id="ICd" d="M170 74c0 11.106 4.313 23.126 9 32.5.767 1.535 1.845 8.5 4 8.5l6-14.5c1.744-3.489 4-26.366 4-31 0-3.863 5.236-11.632-.5-14.5-4.818-2.409-11.447 2-15.5 2 0 5.923-7 10.884-7 17ZM286 74c0 2.499-1.044 16.588-2 18.5-2.613 5.226-10 17.991-10 23.5-1.183 0-1.535-3.57-2-4.5l-6-16v-7c-3.611-7.222-1.011-19.022-5-27-.75-1.5.053-4.776 1.5-5.5 5.875-2.937 11.126 1 16.5 1 0 5.813 7 10.614 7 17Z"/><path fill="#1AA496" id="RSPagl2/3" d="M118 79c4.546 0 7.6 1 11 1 0-4.031 14-14.143 14-23h-1c-.19 0-16.43 13.93-18.5 16l-5.5 6Z"/><path fill="#FE79FE" id="ICe" d="M147 88c0 12.748-12.059 31.221 5.5 40 2.364 1.182 5.696-1 7.5-1 0-13.037-2.858-27.783 3-39.5 1.343-2.686 2.124-13.5 7-13.5 0-6.116 7-11.077 7-17h-1c-3.017 0-19 11.661-19 15l-1 1-2 3-1 1c0 1.238-.423 3-2 3 0 1.466.109 4-2 4l-2 4Z"/><path fill="#FD7AFF" id="SCop" d="M225 63h1l-1-5h-26c0 4.02 2.575 3 6 3 0-1.614 3.31-1 4.5-1 2.971 0 15.5-.886 15.5 3ZM251 60c-7.089 0-14.55 2-20 2v-4h21l5 1c0 4.14-4.16 1-6 1Z"/><path fill="#FE79FE" id="ICe" d="M303 77c0 2.945 4.648 7.797 6 10.5 5.11 10.22 8.222 34.139-4.5 40.5-2.568 1.284-6.486-1-8.5-1 0-2.582.821-8.141 2-10.5 1.103-2.206-3.694-28.387-5-31-1.48-2.96-2.547-11.5-7-11.5 0-6.386-7-11.187-7-17h3l1 1c2.713 0 18 13.208 18 16l2 2v1Z"/><path fill="#FF64FF" id="MB" d="m282 57 1 1-1-1Z"/><path fill="#1AA496" id="RSPagl2/3" d="M327 80h1c2.978 0 6.49-1 10-1 0-3.36-17.324-16.412-20.5-18l-3.5-4c0 9.717 13 16.738 13 23Z"/><path fill="#FF90FF" id="SCig" d="M219 63h6c0-3.886-12.529-3-15.5-3-1.19 0-4.5-.614-4.5 1l2 2h12ZM237 63h12l2-3c-7.089 0-14.55 2-20 2v1h6Z"/><path fill="#FF90FE" id="SCiw" d="M223 73c-6.738 0-11.935 4-18 4 0-5.28 2-8.97 2-14h12l3 2.5 1 7.5Z"/><path fill="#FF64FF" id="MB" d="M223 73c1.772 0 5.385 2.057 5.5 2 1.959-.98 1.231-2 4.5-2 0-3.54 4-7.2 4-10h-6c-2.307 0-1.624 4-2.5 4l-2.5-4h-7l3 2.5 1 7.5Z"/><path fill="#FF90FE" id="SCiw" d="M233 73c6.959 0 12.666 4 19 4l-3-14h-12c0 2.8-4 6.46-4 10Z"/><path fill="#1BA598" id="RSPd1" d="m145 72-1 1 1-1Z"/><path fill="#FF64FF" id="MB" d="m157 72-1 1 1-1Z"/><path fill="#0A838A" id="VISpl1" d="m71 92 3 5c3.758 0 16.845-21 22-21v-1l-7-2c-1.328 0-18 17.975-18 19Z"/><path fill="#FF8FFF" id="SCdg" d="m196 92 10.5-9c5.4-2.7 24.761-8.62 32-5 4.966 2.483 10.113 4.556 15 7l7.5 7c0-1.606 2.081-4.338 1-6.5-1.669-3.338-10-4.079-10-8.5-6.334 0-12.041-4-19-4-3.269 0-2.541 1.02-4.5 2-.115.057-3.728-2-5.5-2-6.738 0-11.935 4-18 4l-1 1c0 3.796-8.685 4.87-10 7.5-.793 1.587-.141 6.5 2 6.5Z"/><path fill="#0A838A" id="VISpl1" d="m386 93-4 3c-2.371 0-3.43-2.93-5-4.5-3.718-3.718-16-12.876-16-16.5 2.483 0 4.026-2 6-2 3.061 0 14.095 12.691 16 16.5l3 3.5Z"/><path fill="#1BA598" id="RSPd1" d="m143 74-1 1 1-1Z"/><path fill="#FE7AFE" id="ICc" d="M182 117c0 6.515-10.967 9.733-15.5 12-2.555 1.278-4.516-2-6.5-2 0-13.037-2.858-27.783 3-39.5 1.343-2.686 2.124-13.5 7-13.5 0 11.106 4.313 23.126 9 32.5.767 1.535 1.845 8.5 4 8.5v1l-1 1ZM274 116c0 7.418 10.7 10.6 15.5 13 2.555 1.278 4.516-2 6.5-2 0-2.582.821-8.141 2-10.5 1.103-2.206-3.694-28.387-5-31-1.48-2.96-2.547-11.5-7-11.5 0 2.499-1.044 16.588-2 18.5-2.613 5.226-10 17.991-10 23.5Z"/><path fill="#FF64FF" id="MB" d="m301 74 2 2-2-2Z"/><path fill="#1BA598" id="RSPd1" d="M323 81c0 1.815 6 10.17 6 13-1.342 0-9.173-12.673-11.5-15l-4.5-5 10 7Z"/><path fill="#0A828C" id="VISp2/3" d="m97 75-1 1v-1h1Z"/><path fill="#09848C" id="VISpl2/3" d="M81 101c-2.483 0-4.026 2-6 2 0-1.235.643-5-1-5v-1c3.758 0 16.845-21 22-21l1-1c6.818 0 13.348 4 21 4 4.546 0 7.6 1 11 1l-15 17c-3.851 0-33-1.83-33 4Z"/><path fill="#1BA598" id="RSPd1" d="m142 75-1 1 1-1Z"/><path fill="#09848C" id="VISpl2/3" d="m376 101 5 2c0-2.01 1-3.512 1-6v-1c-2.371 0-3.43-2.93-5-4.5-3.718-3.718-16-12.876-16-16.5h-2c0 2.26-5.803 0-6.5 0v2c-1.45.725-12.609 2-14.5 2-3.51 0-7.022 1-10 1 0 4.157 14 12.269 14 17 3.715 0 27.619-1.263 29 1.5l5 2.5Z"/><path fill="#1BA598" id="RSPd1" d="m141 76-1 1 1-1Z"/><path fill="#FF64FF" id="MB" d="m154 76-1 1 1-1Z"/><path fill="#1BA598" id="RSPd1" d="M133 81c0 3.112-4 6.68-4 11 3.596 0 3.117-4.734 4-6.5 1.975-3.95 7-3.471 7-8.5l-7 4Z"/><path fill="#FF64FF" id="MB" d="M151 78v2c1.577 0 2-1.762 2-3l-2 1Z"/><path fill="#FF90FE" id="SCiw" d="m205 77-1 1 1-1Z"/><path fill="#C9C8C8" id="bic" d="m151 80-2 1c0-1.238.423-3 2-3v2Z"/><path fill="#FF8FFE" id="SCdw" d="m197 99 8.5-8 10-6c2.36-1.18 5.558-.779 8-2 8.583-4.291 23.678 6.839 30 10 3.059 1.53 3.004 6 6.5 6 1.714 0 1-5.594 1-7l-7.5-7c-4.887-2.444-10.034-4.517-15-7-7.239-3.62-26.6 2.3-32 5L196 92c0 .373-.918 7 1 7Z"/><path fill="#C9C8C8" id="bic" d="M305 78c3.614 0 5.636 7.772 7 10.5 3.018 6.035 11.027 23.945 7 32l-2 3.5c-1.614 0-1-3.31-1-4.5v-15c-1.814-3.628-1.178-8.356-3-12-2.005-4.01-8-9.984-8-14.5Z"/><path fill="#0A838A" id="VISpl1" d="M114 97c3.313 0 4.49 4 7 4l6-6 1-1v-1l1-1c0-4.32 4-7.888 4-11l-4-1-15 17Z"/><path fill="#FF64FF" id="MB" d="M149 81v3c2.109 0 2-2.534 2-4l-2 1Z"/><path fill="#0A838A" id="VISpl1" d="M342 97c-1.984 0-6 1.444-6 4l-7-7c0-2.83-6-11.185-6-13l4-1h1c0 4.157 14 12.269 14 17Z"/><path fill="#C9C8C8" id="bic" d="M147 88c-5.893 0-6 22.269-6 27.5 0 1.995 1.042 8.5-2 8.5l-2-6.5c-2.809-5.618 3.769-21.539 6-26 .986-1.971 2.928-10.5 6-10.5v3c-2.109 0-2 2.534-2 4Z"/><path fill="#FC8FFF" id="PAG" fill-rule="evenodd" d="M264 141c0 6.133 6.133 0 0 0m-74 0-1 2.5c0 2.137 6.755-2.5 1-2.5m51 18c-2.702 0-6.58 5-9 5l-1-15 1-9 4-3.5c3.26-3.26 5.125-6.25 7-10 3.856-7.712-4.471-18.486-10.5-21.5l-4-5c-1.849 0-14.287 15.075-15.5 17.5-4.789 9.579 11 19.414 11 22.5l2 9c0 4.594-1 10.741-1 16l-3.5-4c-.627-.314-6.272-2-6.5-2v-3c0-2.592.958-3.416 2-5.5 1.886-3.772-1.786-10.857-6.5-8.5l-7.5 6.5-3 4.5-1 1h-1c-5.237 0-7.966-11-12-11v-3l-1-1c0-6.655 2-11.943 2-18 0-5.289 10-18.617 10-22l8.5-8 10-6c2.36-1.18 5.558-.779 8-2 8.583-4.291 23.678 6.839 30 10 3.059 1.53 3.004 6 6.5 6l10 22 1 20c-4.154 0-6.034 13-12 13l-2-1-11.5-11c-3.776-1.888-8.244 4.013-6.5 7.5l3 7.5-1 2Z"/><path fill="#FF64FF" id="MB" d="M149 84c-2.109 0-2 2.534-2 4l2-4Z"/><path fill="#09818C" id="VISpor1" d="M66 109c0 2.906-5.334 7-8 7 0-3.753 9.289-24 13-24l3 5v1c-2.706 0-8 8.816-8 11Z"/><path fill="#1BA598" id="RSPd1" d="m129 92-1 1 1-1Z"/><path fill="#09818C" id="VISpor1" d="M391 110c0 2.6 5.651 7 8 7 0-3.434-9.564-24-13-24l-4 3v1c1.84 0 9 10.46 9 13Z"/><path fill="#1BA598" id="RSPd1" d="m128 94-1 1 1-1Z"/><path fill="#72D568" id="PAR" d="M101 106c4.986 0 7 13.979 7 18l3.5-5 9.5-18c-2.51 0-3.687-4-7-4-3.851 0-33-1.83-33 4 3.887 0 20 1.128 20 5ZM355 106c-4.757 0-6 15.137-6 19-1.434 0-13-21.558-13-24 0-2.556 4.016-4 6-4 3.715 0 27.619-1.263 29 1.5l5 2.5c-4.037 0-21 1.165-21 5Z"/><path fill="#0A8389" id="VISpor2/3" d="m389 109 2 1c0-2.54-7.16-13-9-13 0 2.488-1 3.99-1 6l8 6ZM66 109h1l8-6c0-1.235.643-5-1-5-2.706 0-8 8.816-8 11Z"/><path fill="#A9A9A8" id="AQ" d="M224 140h8l4-3.5c3.26-3.26 5.125-6.25 7-10 3.856-7.712-4.471-18.486-10.5-21.5l-4-5c-1.849 0-14.287 15.075-15.5 17.5-4.789 9.579 11 19.414 11 22.5Z"/><path fill="#30B824" id="ENTm2" fill-rule="evenodd" d="m80 114-5 5.5c-2.39 4.778-8.406 25.047-1.5 28.5 8.845 4.422 13.405-34 6.5-34m21-8c0 1.87-6.703 16.906-8 19.5-5.304 10.609-2.564 28.129-8 39-2.9 5.801-5.344 17.078-14.5 12.5-2.67-1.335-4.398-5.296-5.5-7.5-1.922-3.845-4.11-7.22-6-11-1.89-3.781.44-22.878 2-26v-5c1.95-3.901 6-14.246 6-18.5l8-6c1.974 0 3.517-2 6-2 3.887 0 20 1.128 20 5ZM374 114c0 4.121-1 9.275-1 14 0 2.721.836 6.171 2 8.5 1.152 2.305.796 5.593 2 8 1.186 2.373 6.489 5.023 8 2 3.765-7.531-2.327-32.5-11-32.5m-19-8 8 17.5c4.601 9.202 3.663 31.325 9 42 1.997 3.993 4.863 16.319 12.5 12.5 13.518-6.759 16.504-35.492 10.5-47.5l-1-8c-1.852-3.704-5-9.183-5-13.5l-8-6-5-2c-4.037 0-21 1.165-21 5Z"/><path fill="#31B625" id="ENTm1" d="M58 116c0 1.746-6.054 28.608-7 30.5-4.695 9.389 8.388 31.777 12 39 3.214 6.428 18.292 8.416 22 1 4.285-8.57 5.707-18.414 10-27 2.349-4.697 1.612-11.223 4-16l9-19.5c0-4.021-2.014-18-7-18 0 1.87-6.703 16.906-8 19.5-5.304 10.609-2.564 28.129-8 39-2.9 5.801-5.344 17.078-14.5 12.5-2.67-1.335-4.398-5.296-5.5-7.5-1.922-3.845-4.11-7.22-6-11-1.89-3.781.44-22.878 2-26v-5c1.95-3.901 6-14.246 6-18.5h-1c0 2.906-5.334 7-8 7ZM399 117c0 8.875 10.642 34.217 6 43.5-1.229 2.458-.794 5.587-2 8-2.737 5.474-6.307 10.614-9 16-2.547 5.095-17.573 10.853-21 4-3.922-7.843-6.109-16.217-10-24l-4-17c-2.296-4.592-10-17.918-10-22.5 0-3.863 1.243-19 6-19l8 17.5c4.601 9.202 3.663 31.325 9 42 1.997 3.993 4.863 16.319 12.5 12.5 13.518-6.759 16.504-35.492 10.5-47.5l-1-8c-1.852-3.704-5-9.183-5-13.5l2 1c0 2.6 5.651 7 8 7Z"/><path fill="#31B723" id="ENTm3" d="m80 114-5 5.5c-2.39 4.778-8.406 25.047-1.5 28.5 8.845 4.422 13.405-34 6.5-34ZM374 114c0 4.121-1 9.275-1 14 0 2.721.836 6.171 2 8.5 1.152 2.305.796 5.593 2 8 1.186 2.373 6.489 5.023 8 2 3.765-7.531-2.327-32.5-11-32.5Z"/><path fill="#FE79FF" id="ICd" d="m183 116-1 1 1-1Z"/><path fill="#FC90FF" id="CUN" d="M186 143c-.145 0-7.203 3.352-8.5 4-5 2.5-13.59 0-18.5 0l-6-6.5c-2.675-5.35 4.286-7.5 8-7.5 9.404 0 15.19-9.345 22.5-13l3.5 1c0 6.057-2 11.345-2 18l1 1v3ZM271 141l.5 4c2.117 1.058 20.812 4.094 23 3l3.5-2 5-5.5c2.637-5.273-3.313-7.5-8-7.5-9.535 0-16.664-12-25-12l1 20Z"/><path fill="#C9C9CB" id="ll" d="M159 147c0 4.972-8 9.546-8 14-4.102 0-.906-9.311-2-11.5l-2-3.5c0-3.436-6-10.756-6-16l3.5-3 3 2c2.165 1.082 13.5.744 13.5 4-3.714 0-10.675 2.15-8 7.5l6 6.5ZM308 148c0 3.991-2 9.158-2 13-1.807 0-8-12.398-8-15l5-5.5c2.637-5.273-3.313-7.5-8-7.5 0-2.334 4.181-1.341 5.5-2 2.435-1.217 14.5-5.802 14.5-1 0 6.54-6 13.425-6 17l-1 1Z"/><path fill="#FDFB8F" id="SIM" d="M133 141c-3.14 0-12.619 26-18 26-7.054 0-4-7.513-4-11.5 0-11.688 22-40.813 22-14.5ZM324 141l3.5 6 9.5 16.5 4 4.5c6.146 0 5-8.306 5-12.5 0-9.683-22-41.549-22-14.5Z"/><path fill="#FF64FF" id="MB" d="m185 139 1 1-1-1ZM226 149l2.5-2 2.5 2 1-9h-8l2 9Z"/><path fill="#FCFB90" id="CUL4, 5" d="M115 167c0 2.338 2 4.862 2 8 2.759 0 18.036 8.732 21.5 7 4.433-2.217 12.552-26.397 9.5-32.5l-3-4.5h-1l-2-2h-1c-1.406 0-7 .714-7-1l-1-1c-3.14 0-12.619 26-18 26Z"/><path fill="#C8C9C8" id="IVn" d="m190 141-1 2.5c0 2.137 6.755-2.5 1-2.5ZM264 141c0 6.133 6.133 0 0 0Z"/><path fill="#FF64FF" id="MB" d="m302 162 1 1c1.238 0 3-.423 3-2-1.807 0-8-12.398-8-15l-3.5 2c-2.188 1.094-20.883-1.942-23-3l-.5-4c-4.154 0-6.034 13-12 13v2c2.477 0 2.522-2.011 4.5-3 3.411-1.706 1.5 5.793 1.5 8l1 2c0-1.427 1.535-8.982 3.5-8l2.5 5c0-1.49-.735-8 1-8v-1c0-2.109 2.535-2 4-2h1c0-1.613 8-1.613 8 0h3l2 1h1c4.153 0 9 7.36 9 11v1h1Z"/><path fill="#FCFB90" id="CUL4, 5" d="m339 176-1 1c-3.969 0-17.256 6.122-19.5 5-9.166-4.583-9.5-24.405-9.5-34v-1l3-2 1-1 1-1h1c1.406 0 7 .714 7-1l2-1 3.5 6 9.5 16.5 4 4.5-2 8Z"/><path fill="#F0F080" id="CB" d="M134 142c1.406 0 7-.714 7 1-1.406 0-7 .714-7-1Z"/><path fill="#FEC395" id="LDT" d="M199 154c0 3.464.504 4.502 3.5 6 12.897 6.449 7.146-4 12.5-4 0-2.592.958-3.416 2-5.5 1.886-3.772-1.786-10.857-6.5-8.5l-7.5 6.5-3 4.5-1 1ZM257 153l-11.5-11c-3.776-1.888-8.244 4.013-6.5 7.5l3 7.5 6.5 6c4.643 2.321 8.5-6.753 8.5-10Z"/><path fill="#F0F080" id="CB" d="M322 142c-1.406 0-7-.714-7 1 1.406 0 7 .714 7-1ZM142 143l2 2-2-2Z"/><path fill="#FF64FF" id="MB" d="M153 163h1l1-1c0-3.449 2.732-9 6-9l1-1 1-1h1l1-1 2-1h3c0-1.613 8-1.613 8 0h1c2.601 0 5 1.04 5 4v8c1.69 0 1.398-7.051 3.5-6 2.3 1.15 2.349 7 3.5 7h1c0-1.496-2.763-11.132 1.5-9 1.509.755 1.85 4 4.5 4v-3c-5.237 0-7.966-11-12-11-.145 0-7.203 3.352-8.5 4-5 2.5-13.59 0-18.5 0 0 4.972-8 9.546-8 14 0 1.747.253 2 2 2Z"/><path fill="#F0F080" id="CB" d="m314 143-1 1 1-1ZM313 144l-1 1 1-1ZM126 211h1v-7c-2.59 0-2-3.814-2-5.5 0-5.682-6.994-11.012-4-17 .855-1.709 15.253 2.5 18 2.5l3-2 1-3 1-1 1-3 1-1c0-1.713 4.88-9 7-9v-2c-1.747 0-2-.253-2-2-4.102 0-.906-9.311-2-11.5l-2-3.5-2-1 3 4.5c3.052 6.103-5.067 30.283-9.5 32.5-3.464 1.732-18.741-7-21.5-7l1 3v4l1 2c0 8.821 4 14.671 4 24 2.041 0 3 .959 3 3Z"/><path fill="#FDA6FF" id="DR" d="M232 164c-1.643 0-1 3.765-1 5 0 5.661.067 23.633-6 11.5l1-7c-1.295-2.589-1-5.372-1-8.5 0-5.259 1-11.406 1-16l2.5-2 2.5 2 1 15Z"/><path fill="#FF64FF" id="MB" d="M308 148h1v-1l-1 1Z"/><path fill="#FF9B88" id="P" d="M170 149h8c0-1.613-8-1.613-8 0ZM278 149h8c0-1.613-8-1.613-8 0Z"/><path fill="#F0F080" id="CB" d="M330 210h1c0-2.293.997-2 3-2 0-2.231-2.386-6.728-1-9.5 2.561-5.122 5-9.294 5-15.5 0-1.048-.473-3 1-3l1-1-2-2c-3.969 0-17.256 6.122-19.5 5-9.166-4.583-9.5-24.405-9.5-34h-1c0 3.991-2 9.158-2 13 0 1.577-1.762 2-3 2l2 3 1 1 3 5 2 2 1 3 1 1 1 4 3 2 17.5-3c5.39 2.695-2.376 12.251-3.5 14.5-1.279 2.558 2.237 8.5-2 8.5l1 6Z"/><path fill="#FF9B88" id="P" d="m167 149-2 1 2-1Z"/><path fill="#FFAD6D" id="PB" d="m176 187-20 2c0-1.901-8.41-7-10-7l-1-1v-1l1-1v-1l1-1c2.314 0 3-4.262 3-6l1-1c1.577 0 2-1.762 2-3l1-2 1-2v-1c1.442 0 6-7.56 6-9l1-1 1-1h1l1-1 2-1h12l5 4v2l-2.5 4c-2.6 2.6-10.5 7.75-10.5 11l-10 8.5c-1.246 2.492 3.005.748 3.5.5 3.275-1.638 7.801-7 11.5-7l1-1h2c11.973 0-3 14.33-3 16Z"/><path fill="#FF9B88" id="P" d="M179 149c2.601 0 5 1.04 5 4l-5-4ZM277 149c-1.465 0-4-.109-4 2l4-2Z"/><path fill="#FFAD6D" id="PB" d="m281 187 19 2c2.683 0 6.746-7 11-7v-3l-1-1-1-1-6-10-1-3-1-2v-1l-9-11h-1l-2-1h-12l-4 2v1c0 10.338 14 13.433 14 20l8 5.5c2.955 5.911-16.027-6.5-17-6.5-14.426 0 3 15.046 3 16Z"/><path fill="#FF9B88" id="P" d="m289 149 2 1-2-1ZM165 150l-1 1 1-1ZM292 150c4.153 0 9 7.36 9 11l-9-11ZM163 151l-1 1 1-1ZM162 152l-1 1 1-1ZM272 160c0 2.198 13.291 12 15 12 0-6.567-14-9.662-14-20-1.735 0-1 6.51-1 8ZM161 153c-3.268 0-6 5.551-6 9 1.442 0 6-7.56 6-9Z"/><path fill="#CBC9CB" id="scp" d="M192 162c0 4.086 9 6.987 9 0v-1l-3-3v-1c-2.65 0-2.991-3.245-4.5-4-4.263-2.132-1.5 7.504-1.5 9Z"/><path fill="#FF9B88" id="P" d="m200 153-1 1 1-1ZM255 162c-2.079 0-3.187 3-6 3-4.151 0-8-1.19-8-6l1-2 6.5 6c4.643 2.321 8.5-6.753 8.5-10l2 1v3l-1 1-1 2-1 1-1 1Z"/><path fill="#CBC9CB" id="scp" d="M278 171c.973 0 19.955 12.411 17 6.5l-8-5.5c-1.709 0-15-9.802-15-12l-2.5-5c-1.965-.982-3.5 6.573-3.5 8 0 3.403-4.322-2-1-2 0-2.207 1.911-9.706-1.5-8-1.978.989-2.023 3-4.5 3v1l-1 1-1 2-1 1-1 1c0 5.093 10.646 4 15 4l2 1 6 4Z"/><path fill="#FF9B88" id="P" d="M201 162c2.079 0 3.187 3 6 3 4.841 0 8-.912 8-6v-3c-5.354 0 .397 10.449-12.5 4-2.996-1.498-3.5-2.536-3.5-6h-1v4l3 3v1ZM184 161c0 3.308-10.495 9-13 9 0-3.25 7.9-8.4 10.5-11l2.5-4v6Z"/><path fill="#CBC9CB" id="scp" d="M177 171h2l5-4h1l1-1c2.742 0 5-1.196 5-4-1.151 0-1.2-5.85-3.5-7-2.102-1.051-1.81 6-3.5 6 0 3.308-10.495 9-13 9l-10 8.5c-1.246 2.492 3.005.748 3.5.5 3.275-1.638 7.801-7 11.5-7l1-1Z"/><path fill="#FF8FFD" id="MRN" d="m259 157-1 1 1-1ZM198 158l3 3-3-3Z"/><path fill="#FF64FF" id="MB" d="M229 188c0-2.614 6.031 0 7 0v-2c-3.768 0-4.976-7 0-7l1-1 1-5c0-5.074 11-4.455 11-8-4.151 0-8-1.19-8-6-2.702 0-6.58 5-9 5-1.643 0-1 3.765-1 5 0 5.661.067 23.633-6 11.5l1-7c-1.295-2.589-1-5.372-1-8.5l-3.5-4c-.627-.314-6.272-2-6.5-2 0 5.088-3.159 6-8 6 0 3.037 11 3.266 11 8 1.473 0 1 1.952 1 3 1.579 0 1 2.855 1 4l1.5-2c3.602 0 1.5 6.924 1.5 9 1.145 0 4-.579 4 1h2Z"/><path fill="#FF8FFD" id="MRN" d="m257 160-1 1 1-1ZM256 161l-1 1 1-1ZM265 161c-3.322 0 1 5.403 1 2l-1-2Z"/><path fill="#CBC7CC" id="sctv" d="M154 163h1v-1l-1 1Z"/><path fill="#FF8FFD" id="MRN" d="m221 187-1 1c-5.684 0-31-1.05-31-8 4.781 0 3.356-9.572.5-11-2.116-1.058-2.898 2-4.5 2v-4l1-1c2.742 0 5-1.196 5-4h1c0 4.086 9 6.987 9 0 2.079 0 3.187 3 6 3 0 3.037 11 3.266 11 8-11.99 0 1 14.565 1 3 1.579 0 1 2.855 1 4l1 7ZM236 186v2c5.765 0 32-1.179 32-8-11.088 0 3-17.578 3-8 1.473 0 1-1.952 1-3l-2-3c-4.354 0-15 1.093-15-4-2.079 0-3.187 3-6 3 0 3.545-11 2.926-11 8 6.601 0 5.728 8 3.5 8l-4.5-3-1 1v7Z"/><path fill="#FF9B88" id="P" d="M302 162v2l-1-2h1Z"/><path fill="#CBC7CC" id="sctv" d="M311 181c.922 0 3 3.276 3 1l-1-4-1-1-1-3-2-2-3-5-1-1-2-3-1-1v2l1 3c3.031 0 6 7.622 6 10l1 1 1 1v2ZM153 165h1v-2h-1v2Z"/><path fill="#FF9B88" id="P" d="m155 163-1 2v-2h1Z"/><path fill="#CBC7CC" id="sctv" d="m145 181-3 1 1-3 1-1 1-3 1-1c0-1.713 4.88-9 7-9v2c-1.577 0-2 1.762-2 3l-1 1-3 6-1 1v1l-1 1v1Z"/><path fill="#CBC9CC" id="arb" d="m154 165-1 2v-2h1Z"/><path fill="#FF64FF" id="MB" d="m186 166-1 1 1-1ZM272 167v2l-2-3 2 1Z"/><path fill="#CBC9CC" id="arb" d="m305 166 1 1-1-1ZM153 167c-1.577 0-2 1.762-2 3 1.577 0 2-1.762 2-3Z"/><path fill="#FF9B88" id="P" d="m182 197 2 2c0-1.321-.684-6 1-6 0-8.284 21-1.789 21 0h1c1.238 0 3 .423 3 2 2.968 0 4.633 4 7 4 0-4.412-.305-10 5-10l5-1c0-1.579-2.855-1-4-1h-1l-2 1c-5.684 0-31-1.05-31-8-4.433 0-4-5.665-4-9v-2l-1-2-5 4c11.973 0-3 14.33-3 16 2.465 0 5.742.984 7 3.5.57 1.14.263 6.5-1 6.5Z"/><path fill="#FF64FF" id="MB" d="M185 167v2l-1-2h1Z"/><path fill="#FF9B88" id="P" d="M246 195c-2.83 0-4.54 4-7 4 0-5.185 1.132-10-5-10l-5-1c0-2.614 6.031 0 7 0 5.765 0 32-1.179 32-8 4.002 0 3-5.059 3-8 1.473 0 1-1.952 1-3v-2l6 4c-14.426 0 3 15.046 3 16-3.855 0-8 1.833-8 6h-1c0-7.975-22-2.166-22 0h-1l-1 1h-1l-1 1Z"/><path fill="#CBC9CC" id="arb" d="M303 167c3.031 0 6 7.622 6 10l-6-10Z"/><path fill="#FFA5FD" id="PPN" d="M185 171c1.602 0 2.384-3.058 4.5-2 2.856 1.428 4.281 11-.5 11-4.433 0-4-5.665-4-9ZM271 172c0 2.941 1.002 8-3 8-11.088 0 3-17.578 3-8Z"/><path fill="#CBC9CC" id="arb" d="m151 170-1 1 1-1ZM150 171l-3 6c2.314 0 3-4.262 3-6Z"/><path fill="#FF9B88" id="P" d="m177 171-1 1 1-1Z"/><path fill="#CBC9CC" id="arb" d="m309 172 2 2-2-2Z"/><path fill="#FC90FE" id="VTN" d="M218 173c1.473 0 1 1.952 1 3 0 11.565-12.99-3-1-3ZM238 173c6.601 0 5.728 8 3.5 8l-4.5-3 1-5Z"/><path fill="#CBC9CC" id="arb" d="m146 174-1 1 1-1Z"/><path fill="#F0F080" id="CB" d="m339 176-1 1 1-1Z"/><path fill="#FF9B88" id="P" d="m147 177-1 1 1-1Z"/><path fill="#CBC9CC" id="arb" d="m312 177 1 1-1-1Z"/><path fill="#FFFC8D" id="PFL" d="M111 179h4c0-1.535-4-1.535-4 0Z"/><path fill="#CBC9CC" id="arb" d="m117 179 1 2v-3l-1 1ZM144 178l-1 1 1-1Z"/><path fill="#CBCBCC" id="mlf" d="M222 187h1c0-2.076 2.102-9-1.5-9l-1.5 2 1 7h1Z"/><path fill="#FF9B88" id="P" d="m310 178 1 1-1-1Z"/><path fill="#FFFC8D" id="PFL" d="M341 179h4c0-1.535-4-1.535-4 0Z"/><path fill="#FEF991" id="FL" d="M110 223h1v-1l1-1h1c0-2.055 6.247-9.374 7.5-10l2.5-3c0-9.329-4-15.179-4-24l-1-2v-1l-1-2h-6c0 2.729-5.007 1.254-6.5 2-1.03.515-4.995 9.49-5.5 10.5-2.94 5.882 1.33 33.5 8 33.5l3-2Z"/><path fill="#FF9B88" id="P" d="m146 179-1 1 1-1Z"/><path fill="#CBCBCC" id="mlf" d="M236 179c-4.976 0-3.768 7 0 7v-7Z"/><path fill="#FEF991" id="FL" d="m345 222 4 3c6.519 0 5.043-6.586 7-10.5 4.561-9.122 1.682-35.5-11-35.5h-5l-1 1c0 1.048.473 3-1 3 0 6.206-2.439 10.378-5 15.5-1.386 2.772 1 7.269 1 9.5l1 1 6 9 1 1 2 2 1 1Z"/><path fill="#CBC9CC" id="arb" d="M339 180c-1.473 0-1 1.952-1 3 1.473 0 1-1.952 1-3Z"/><path fill="#CCCCCA" id="mcp" d="M139 190c-4.829 0-6.382 14-12 14-2.59 0-2-3.814-2-5.5 0-5.682-6.994-11.012-4-17 .855-1.709 15.253 2.5 18 2.5l1 3c-1.473 0-1 1.952-1 3Z"/><path fill="#FF9B88" id="P" d="m139 184 1 3c1.465 0 3.316-5 6-5l-1-1-3 1-3 2ZM329 215c-4.898 0-8.659 12-10 12 0-6.862 9.715-14.069 6-21.5-1.263-2.526-8-7.327-8-9.5 0-2.482-.169-14-6-14v-1c.922 0 3 3.276 3 1l3 2c0 3.543 9.129 20 12 20l1 6-1 5Z"/><path fill="#CCCCCA" id="mcp" d="m317 184 17.5-3c5.39 2.695-2.376 12.251-3.5 14.5-1.279 2.558 2.237 8.5-2 8.5-2.871 0-12-16.457-12-20Z"/><path fill="#CBC9CC" id="arb" d="m118 182 1 2-1-2Z"/><path fill="#FEAD6E" id="KF" d="m152 196-4 1c0-5.716-7.182-1-9-1v-6c1.473 0 1-1.952 1-3 1.465 0 3.316-5 6-5 1.59 0 10 5.099 10 7 0 3.313-4 4.49-4 7ZM317 196l-5.5-2-3.5 3c-2.424 0-2.76-2-4-2-2.177 0-4-4.336-4-6 2.683 0 6.746-7 11-7 5.831 0 6 11.518 6 14Z"/><path fill="#FF9B88" id="P" d="M140 187c-1.473 0-1 1.952-1 3 1.473 0 1-1.952 1-3Z"/><path fill="#FEBA86" id="SUT" d="m153 202 1 1 5.5-6c2.772-1.386 7.269 1 9.5 1 0-6.712 11.358-1 13-1 1.263 0 1.57-5.36 1-6.5-1.258-2.516-4.535-3.5-7-3.5l-20 2c0 3.313-4 4.49-4 7 0 2.124 1 4.436 1 6Z"/><path fill="#FF64FF" id="MB" d="m222 187-2 1 1-1h1Z"/><path fill="#FEBA86" id="SUT" d="m304 202-2 1c0-7.9-11.01-5-15-5 0-6.882-10.63-1-13-1l-1-2v-2c0-4.167 4.145-6 8-6l19 2c0 1.664 1.823 6 4 6v7Z"/><path fill="#FFC294" id="RPO" d="M227 215c2.497 0 .062-11.624 1-13.5.08-.161 1 10.848 1 13.5 9.01 0 5-20.906 5-26l-5-1c0 1.186-1 1.186-1 0h-1l-5 1c0 5.546-1.89 26 5 26Z"/><path fill="#FF9B88" id="P" d="M228 188h1c0 1.186-1 1.186-1 0Z"/><path fill="#FFC295" id="PRNr" d="M185 193h21c0-1.789-21-8.284-21 0Z"/><path fill="#FFC393" id="CS" d="M219 214c2.883 0 8 7.491 8 1-6.89 0-5-20.454-5-26-5.305 0-5 5.588-5 10 0 5.721 2 9.761 2 15ZM229 215c0 5.763 5.45 0 8 0 0-5.348 2-9.965 2-16 0-5.185 1.132-10-5-10 0 5.094 4.01 26-5 26Z"/><path fill="#FFC295" id="PRNr" d="M250 193h22c0-7.975-22-2.166-22 0Z"/><path fill="#FF9B88" id="P" d="m128 215 9 10c0-6.205-9.517-12.465-6-19.5l8-9.5v-6c-4.829 0-6.382 14-12 14v7l1 4Z"/><path fill="#FDBA86" id="PRNc" fill-rule="evenodd" d="M211 210c0 5.116 1.865 10.231 4 14.5.383.766-.316 3.5 1.5 3.5l.5-6c0-4.843.647-12-6-12m-15 61h1l-1-3.5c2.534-5.068 18.894-2.5 24-2.5l1-1 2-1c0-3.261 4.119-8.263 2-12.5l-4-5c-4.687-9.375-2-21.232-2-31.5 0-5.239-2-9.279-2-15-2.367 0-4.032-4-7-4l-3-2h-22c-1.684 0-1 4.679-1 6v22l-7 22.5c-2.275 4.549 0 13.227 0 17.5l4 4h1l14 6Z"/><path fill="#FDBA86" id="PRNc" d="M259 271h2c0-.552 11.8-6 13-6h1l5-4c0-8.647.622-20.256-3-27.5-1.811-3.622-4-8.231-4-12.5v-28h-24l-1 1h-1l-1 1c-2.83 0-4.54 4-7 4 0 6.035-2 10.652-2 16 0 .986 1.087 6 2 6v-5c0-2.349 5.014-8.472 7-4.5l-5.5 16.5c-1.591 0 .858-6-1.5-6 0 4.872-2.68 29-8 29v8l5 6c3.677 0 22.812-.876 24 1.5l-1 4.5Z"/><path fill="#FFC295" id="PRNr" d="M207 193c1.238 0 3 .423 3 2l-3-2ZM249 193l-1 1 1-1Z"/><path fill="#FFAE6F" id="PSV" d="M148 255h2c6.228 0 9.944-9.611 7-15.5-4.281-8.562-9-32.402-9-42.5 0-5.716-7.182-1-9-1l-8 9.5c-3.517 7.035 6 13.295 6 19.5v1c1.014 0 2 3.959 2 5l-1 12.5 2 5.5 1 1 1 1 1 1 1 1 3 1 1 1Z"/><path fill="#FFC295" id="PRNr" d="m247 194-1 1 1-1Z"/><path fill="#FFAE6F" id="PSV" d="M306 255h2l1-1 3-1 1-1 1-1 1-1 1-1 1-1 1-2v-14.5c0-1.19-.614-4.5 1-4.5 0-6.862 9.715-14.069 6-21.5-1.263-2.526-8-7.327-8-9.5l-5.5-2-3.5 3c0 12.479-3.739 32.978-9 43.5-2.64 5.28 1.13 14.5 7 14.5Z"/><path fill="#FEB886" id="P5" d="m173 227-.5 4c-.945.472-3.5.156-3.5-1 0-5.085 1.826-12.152 4-16.5 2.742-5.483-4-11.196-4-15.5 0-6.712 11.358-1 13-1l2 2v22h-3c0-5.027-8-1.683-8 6Z"/><path fill="#FF9B88" id="P" d="m274 197-1 1v-3l1 2Z"/><path fill="#FEB886" id="P5" d="M283 227c0 3.22 5 5.688 5 3 0-3.6-2.417-9.333-4-12.5-3.183-6.366 3-14.452 3-19.5 0-6.882-10.63-1-13-1l-1 1v23h2l1-1c5.665 0 7-.175 7 7Z"/><path fill="#FF9B88" id="P" fill-rule="evenodd" d="M282 286c0 2.105 9.211 0 0 0m9 0c0 2.342-7.951 2-10 2 0-2.882-15 .882-15-2 6.125 0 25 1.923 25-7l4-5c13.71 0-4-27.322-4-18-3.178 0-1.272-14.114-3.5-13-.925.463.375 18-7.5 18 0-8.647.622-20.256-3-27.5-1.811-3.622-4-8.231-4-12.5h2c0 5.088 3.159 6 8 6 0 3.22 5 5.688 5 3l3 1c0 17.411 11-7.368 11-15l1-2c2.387 0 4.209-12 1-12v-7c1.24 0 1.576 2 4 2 0 12.479-3.739 32.978-9 43.5-2.64 5.28 1.13 14.5 7 14.5l-6 4.5c-.947 1.893 7.424 1.962 8.5 2.5 4.587 2.294 8.252-4 11.5-4l1-1h1c1.874 0 5 1.499 5 5-4.5 0-9.834 1.334-13 4.5l-9 8.5c0-11.759-8.629 6-11 6l-1 1c0-2.029-1-.058-1 1l-1 1c-4.202 0-5.117 1 0 1v1Z"/><path fill="#FF9B88" id="P" d="M190 286c0 2.882-15-.882-15 2-2.516 0-12 .018-12-3h2c.338 0 9 3.779 9 1.5l-6.5-1.5c-1.407-.703-4.5-5.978-4.5-4-2.675 0-4.883-5.266-6-7.5-.785-1.571-8.073-4.146-6 0l11 11.5-20.5-19c-1.566-1.566-12.5-4.055-12.5-5 2.898 0 1.109-5 3.5-5l3.5 2c4.261 0 7.047 6.227 11.5 4 1.098-.549 9.624-.252 8.5-2.5l-6-4.5c6.228 0 9.944-9.611 7-15.5-4.281-8.562-9-32.402-9-42.5l4-1c0 2.124 1 4.436 1 6-3.268 0-3.424 11 1 11l1 3c0 6.303.959 11.418 4 17.5 3.57 7.14 7 1.779 7-2.5l3-1c0 1.156 2.555 1.472 3.5 1l.5-4c5.051 0 8-.24 8-6h3l-7 22.5c-2.275 4.549 0 13.227 0 17.5-3.072 0-6.566-5.632-8-8.5l-.5-9.5c-3.687 0 .447 12-2.5 12 0-6.728-9.238 6.975-10 8.5-2.182 4.364 5 12.741 5 9.5l5 6c0 8.819 17.317 7 24 7Z"/><path fill="#FEB986" id="V" d="m169 230-3 1-1-1-1-1c-5.977 0-4-13-9-13l-1-3v-10l5.5-6c2.772-1.386 7.269 1 9.5 1 0 4.304 6.742 10.017 4 15.5-2.174 4.348-4 11.415-4 16.5ZM288 230l3 1 5-4.5c1.359-2.718 2.305-10.5 6-10.5l1-2c0-3.249-1-7.194-1-11 0-7.9-11.01-5-15-5 0 5.048-6.183 13.134-3 19.5 1.583 3.167 4 8.9 4 12.5Z"/><path fill="#FF9B88" id="P" d="M225 263h1v-16.5c2.357-4.713 5 2.375 5 4.5 5.32 0 8-24.128 8-29v-1c-.913 0-2-5.014-2-6-2.55 0-8 5.763-8 0 0-2.652-.92-13.661-1-13.5-.938 1.876 1.497 13.5-1 13.5 0 6.491-5.117-1-8-1 0 10.268-2.687 22.125 2 31.5l4 5c2.119 4.237-2 9.239-2 12.5h2Z"/><path fill="#FEB984" id="I5" d="M154 203v10c-4.424 0-4.268-11-1-11l1 1ZM302 203c0 3.806 1 7.751 1 11 2.387 0 4.209-12 1-12l-2 1Z"/><path fill="#FEA4D2" id="VCO" d="M118 244c0 .986-1.087 6-2 6-3.013 0-7-9.222-7-12l-1-1 1-11 1-1 1-2 1-1 1-1c0-2.055 6.247-9.374 7.5-10l2.5-3c2.041 0 3 .959 3 3 0 9.046-7 18.749-7 28l-1 5ZM338 244c.675 0 2 5.294 2 6 7.753 0 8-17.443 8-22l-1-1v-2l-2-2v-1l-1-1-2-2-1-1-6-9-1-1c-2.003 0-3-.293-3 2 0 9.167 7 22.26 7 30v4Z"/><path fill="#FF9BCD" id="MY" d="m334 208 1 1-1-1Z"/><path fill="#C8C8CC" id="tspc" d="M211 210c0 5.116 1.865 10.231 4 14.5.383.766-.316 3.5 1.5 3.5l.5-6c0-4.843.647-12-6-12ZM239 221v1c2.358 0-.091 6 1.5 6l5.5-16.5c-1.986-3.972-7 2.151-7 4.5v5Z"/><path fill="#FF9BCD" id="MY" d="M322 257c1.874 0 5 1.499 5 5 3.008 0 13-8.736 13-12 0-.706-1.325-6-2-6 0 10.632-15.301.901-3.5-5l3.5 1c0-7.74-7-20.833-7-30h-1l-1 5c0 7.622 2.635 18.23-1 25.5l-6 16.5ZM136 258l-3.5-2c-2.391 0-.602 5-3.5 5-2.591 0-13-9.657-13-11 .913 0 2-5.014 2-6 2.013 0 1.343 7.578 6.5 5 6.021-3.01-1.995-10-5.5-10 0-9.251 7-18.954 7-28h1l1 4c-2.076 0-2 8.928-2 11 0 3.317 3.662 21.823 5 24.5l5 7.5Z"/><path fill="#C8CACA" id="sptV" d="m150 255 6 4.5c1.124 2.248-7.402 1.951-8.5 2.5-4.453 2.227-7.239-4-11.5-4l-5-7.5c-1.338-2.677-5-21.183-5-24.5 0-2.072-.076-11 2-11l9 10v1c0 3.838-.698 23 3 23l1 1 1 1 1 1 1 1 3 1 1 1h2ZM321 257h1l6-16.5c3.635-7.27 1-17.878 1-25.5-4.898 0-8.659 12-10 12v14.5c0 1.19.614 4.5-1 4.5l-1 2-1 1-1 1-1 1-1 1-1 1-3 1-1 1h-2l-6 4.5c-.947 1.893 7.424 1.962 8.5 2.5 4.587 2.294 8.252-4 11.5-4l1-1Z"/><path fill="#FDB986" id="PC5" d="m165 230 1 1c0 4.279-3.43 9.64-7 2.5-3.041-6.082-4-11.197-4-17.5 5 0 3.023 13 9 13l1 1ZM302 216c-3.695 0-4.641 7.782-6 10.5l-5 4.5c0 17.411 11-7.368 11-15Z"/><path fill="#FF9BCD" id="MY" d="m341 218 1 1-1-1Z"/><path fill="#FDBA85" id="Acs5" d="M181 221c0 5.76-2.949 6-8 6 0-7.683 8-11.027 8-6ZM275 221c0 5.088 3.159 6 8 6 0-7.175-1.335-7-7-7l-1 1Z"/><path fill="#FF9B88" id="P" d="m276 220-1 1 1-1Z"/><path fill="#F0F080" id="CB" d="M111 222h1v-1l-1 1Z"/><path fill="#FF9BCD" id="MY" d="m113 221-1 1v-1h1ZM344 221l1 1-1-1ZM112 222l-1 1v-1h1Z"/><path fill="#F0F080" id="CB" d="M347 227h1l1-2-4-3v1l2 2v2ZM109 225h1v-2l-3 2h2Z"/><path fill="#FF9BCD" id="MY" d="m111 223-1 2v-2h1ZM345 223l2 2-2-2ZM110 225l-1 1v-1h1Z"/><path fill="#FF9B88" id="P" d="M137 226c1.014 0 2 3.959 2 5l-1 12.5 2 5.5c-3.698 0-3-19.162-3-23ZM319 227c-1.614 0-1 3.31-1 4.5V246c1.614 0 1-3.31 1-4.5V227Z"/><path fill="#FF9BCD" id="MY" d="M348 227v1l-1-1h1Z"/><path fill="#FF9B88" id="P" d="m164 229 1 1-1-1Z"/><path fill="#FF9BCD" id="MY" d="m108 237 1 1-1-1Z"/><path fill="#C9CACB" id="vVIIIn" d="M119 239c3.505 0 11.521 6.99 5.5 10-5.157 2.578-4.487-5-6.5-5l1-5ZM338 240l-3.5-1c-11.801 5.901 3.5 15.632 3.5 5v-4Z"/><path fill="#FEAE6E" id="SOCl" d="M180 276c0 6.659-10.578 3-14 3l-5-6v-8.5l4-7.5 1-1v-1c2.947 0-1.187-12 2.5-12l.5 9.5c1.434 2.868 4.928 8.5 8 8.5l4 4v1c0 3.325-1 7.31-1 10ZM276 276l4.5 4 10.5-1 4-5v-7c0-4.599-4-7.105-4-11-3.178 0-1.272-14.114-3.5-13-.925.463.375 18-7.5 18l-5 4v1l1 10Z"/><path fill="#FFC5E2" id="RM" d="M226 271c1.046 0 1.122 1 4 1v-10l1-3v-8c0-2.125-2.643-9.213-5-4.5V271Z"/><path fill="#FF9B88" id="P" d="m318 246-1 2 1-2ZM317 248l-1 1 1-1ZM316 249l-1 1 1-1ZM141 250l1 1-1-1ZM315 250l-1 1 1-1ZM314 251l-1 1 1-1ZM143 252l1 1-1-1ZM313 252l-1 1 1-1Z"/><path fill="#C8C8CB" id="rust" d="m165 257-4 7.5v8.5c0 3.241-7.182-5.136-5-9.5.762-1.525 10-15.228 10-8.5v1l-1 1ZM295 270v4c13.71 0-4-27.322-4-18 0 3.895 4 6.401 4 11 1.486 0 1.486 3 0 3Z"/><path fill="#FF9B88" id="P" d="m147 254 1 1-1-1ZM309 254l-1 1 1-1ZM166 256l-1 1 1-1Z"/><path fill="#FF9BCD" id="MY" d="m321 257-1 1 1-1Z"/><path fill="#FF9B88" id="P" d="m231 263 5 2-5-6-1 3 1 1Z"/><path fill="#FF9BCD" id="MY" d="m231 263-1 2v-3l1 1Z"/><path fill="#FF9B88" id="P" d="m223 263-2 1 2-1Z"/><path fill="#CACCC8" id="ml" d="M220 265c0 2.991-4.865 6.769-3 10.5 1.567 3.134 9-1.59 9-4.5v-7l-1-1h-2l-2 1-1 1Z"/><path fill="#FF9BCD" id="MY" d="M226 263v1l-1-1h1Z"/><path fill="#CACCC8" id="ml" d="M236 265c0 2.164 5.341 6.818 4 9.5-1.74 3.48-10 .615-10-2.5v-7l1-2 5 2Z"/><path fill="#FF9B88" id="P" d="m221 264-1 1 1-1ZM182 265l-1 1v-1h1Z"/><path fill="#FFAD6E" id="SOCm" d="m195 280-1 1c-6.443 0-12.251-5-14-5 0-2.69 1-6.675 1-10l1-1 14 6v5l-1 2v2Z"/><path fill="#CCC7CB" id="tb" d="M235 287h1l-3-3.5c-2.903-5.806 11.53-4.5 14-4.5v-2c-2.203 0-5.609-4.445-2.5-6 2.414-1.207 6.214 1.107 8 2l5.5-1 1-1 1-4.5c-1.188-2.376-20.323-1.5-24-1.5 0 2.164 5.341 6.818 4 9.5-1.74 3.48-10 .615-10-2.5-2.878 0-2.954-1-4-1 0 2.91-7.433 7.634-9 4.5-1.865-3.731 3-7.509 3-10.5-5.106 0-21.466-2.568-24 2.5l1 3.5 1 1 5.5 1c1.49-.745 12.571-4.642 9.5 1.5l-4 3.5v2c3.598 0 11.418-3.664 14 1.5 1.41 2.82-2 3.31-2 5.5 3.012 0 6.365-4.068 10.5-2 1.619.809 1.471 2 3.5 2Z"/><path fill="#FFAD6E" id="SOCm" d="m261 279 2 2c3.026 0 13-1.334 13-5l-1-10-1-1c-1.2 0-13 5.448-13 6l-1 3v1l1 2v2Z"/><path fill="#FF9B88" id="P" d="M275 265v1l-1-1h1ZM295 267c1.486 0 1.486 3 0 3v-3Z"/><path fill="#CBC7CC" id="sctv" d="M163 285h2l-2-4c-2.675 0-4.883-5.266-6-7.5-.785-1.571-8.073-4.146-6 0l11 11.5h1Z"/><path fill="#FF9B88" id="P" d="m198 272-2 3v-4h1l1 1Z"/><path fill="#FEA3D2" id="NTB" d="M196 278c0 7.506 10.892 0 13 0l4-3.5c3.071-6.142-8.01-2.245-9.5-1.5l-5.5-1-2 3v3ZM261 277v1c-1.676 0-3.592 4.954-7.5 3l-6.5-4c-2.203 0-5.609-4.445-2.5-6 2.414-1.207 6.214 1.107 8 2l5.5-1 1 1 1 1v1l1 2Z"/><path fill="#FF9B88" id="P" d="m259 273 1 1 1-3h-2l-1 1 1 1Z"/><path fill="#CBC7CC" id="sctv" d="M291 286h1l1-1h1l1-1 1-1 1-1 2-1c0-1.747.253-2 2-2 0-1.747.253-2 2-2 0-1.747.253-2 2-2 0-11.759-8.629 6-11 6l-1 1-1 1-1 1v2Z"/><path fill="#FF9BCD" id="MY" d="m258 272 1 1-1-1Z"/><path fill="#FF9B88" id="P" d="m260 275 1 2-1-2ZM305 275c-1.747 0-2 .253-2 2l2-2Z"/><path fill="#FEAD6F" id="POR" d="M190 286h2l1-1h1l1-1v-3h-1c-6.443 0-12.251-5-14-5 0 6.659-10.578 3-14 3 0 8.819 17.317 7 24 7Z"/><path fill="#FF9B88" id="P" d="M195 278h1v-2l-1 2Z"/><path fill="#FEAD6F" id="POR" d="M264 286h2c6.125 0 25 1.923 25-7l-10.5 1-4.5-4c0 3.666-9.974 5-13 5h-2v3l1 1h1l1 1Z"/><path fill="#FF9BCD" id="MY" d="M261 284v1l-10-3-4-3v-2l6.5 4c3.908 1.954 5.824-3 7.5-3v6Z"/><path fill="#FF9B88" id="P" d="M303 277c-1.747 0-2 .253-2 2l2-2Z"/><path fill="#FF9BCD" id="MY" d="M195 284v1l10-3 4-2v-2c-2.108 0-13 7.506-13 0h-1v6Z"/><path fill="#C7C9C9" id="py" d="M205 287h16c0-2.19 3.41-2.68 2-5.5-2.582-5.164-10.402-1.5-14-1.5l-4 2c0 1.49-1 2.587-1 5h1ZM236 287h16c0-3.598-1-4.708-1-5l-4-3c-2.47 0-16.903-1.306-14 4.5l3 3.5Z"/><path fill="#FF9B88" id="P" d="M261 281h2l-2-2v2ZM301 279c-1.747 0-2 .253-2 2l2-2Z"/><path fill="#CCC7CB" id="tb" d="m163 281 2 4c.338 0 9 3.779 9 1.5l-6.5-1.5c-1.407-.703-4.5-5.978-4.5-4Z"/><path fill="#FF9B88" id="P" d="M194 281h1v-1l-1 1Z"/><path fill="#CCC7CB" id="tb" d="m293 282-1 1c0-1.058 1-3.029 1-1Z"/><path fill="#FF9B88" id="P" d="m299 281-2 1 2-1Z"/><path fill="#CCC7CB" id="tb" d="M175 288h18l2-1h9c0-2.413 1-3.51 1-5l-10 3h-2l-1 1h-2c0 2.882-15-.882-15 2ZM263 288h18c0-2.882-15 .882-15-2h-2l-1-1h-2l-10-3c0 .292 1 1.402 1 5h9l2 1ZM292 283l-1 1 1-1Z"/><path fill="#FF9B88" id="P" d="m296 283-1 1 1-1ZM194 285h1v-1l-1 1ZM261 285h1l-1-1v1Z"/><path fill="#CCC7CB" id="tb" d="M291 284c-4.202 0-5.117 1 0 1v-1Z"/><path fill="#FF9B88" id="P" d="m295 284-1 1 1-1ZM193 285l-1 1 1-1ZM263 285l1 1-1-1ZM293 285l-1 1 1-1Z"/><path fill="#CCC7CB" id="tb" d="M282 286c0 2.105 9.211 0 0 0Z"/><path fill="#FF9B88" id="P" d="M193 288h2v-1l-2 1Z"/><path fill="#FF9BCD" id="MY" d="m196 287-1 1v-1h1ZM205 287h16c0 3.601-16 2.2-16 0ZM236 287h16c0 2.064-3.353.426-4.5 1-1.794.897-12.5 2.479-12.5-1h1Z"/><path fill="#FF9B88" id="P" d="m261 287 2 1-2-1Z"/></svg>