<svg xmlns="http://www.w3.org/2000/svg" viewBox="0 0 456 320"><path fill="#FEFA90" id="DEC" d="M173 95c.77 0 15.12 4.31 16.5 5 4.747 2.374 39.869 1 48 1h21c4.32-2.16 10.767.117 15-2l9.5-4 5-6c0-8.427-12.12-13.81-18.5-17-5.29-2.645-10.799-4.4-16-7-2.334-1.167-21.905-.048-24 1-1.342.671-9.066-1-11.5-1-9.7 0-18.514.007-26.5 4l-18 11c-2.437 1.219-4.838 9-5.5 9l5 6Z"/><path fill="#FCFA91" id="ANcr2" d="M178 111c-6.191 0-12.251 5.375-17.5 8-14.528 7.264-28.394 16.697-43 24-6.438 3.219-12.886 10-20.5 10-5.814 0-11.196-6.109-8-12.5 5.18-10.359 10.838-20.677 16-31 5.859-11.718 21.922-17.711 31.5-22.5l7-1c2.21-1.105 10.321-2.34 13-1l11.5 4 5 6c0 2.522 5 12.166 5 16ZM279 111c6.088 0 11.359 5.429 16.5 8 15.838 7.919 31.076 18.038 47 26 4.982 2.491 10.68 8 16.5 8 7.195 0 11.171-7.159 8-13.5l-14-28-5-6c-4.488-8.976-37.474-25.513-47.5-20.5L288 89l-5 6c0 4.459-4 10.632-4 16Z"/><path fill="#FDFB90" id="FOTU" d="M179 112c15.893 0 30.916-7 48.5-7h15c3.257 1.628 32.063 8 35.5 8l1-2c0-5.368 4-11.541 4-16l-9.5 4c-4.233 2.117-10.68-.16-15 2h-21c-8.131 0-43.253 1.374-48-1-1.38-.69-15.73-5-16.5-5 0 2.522 5 12.166 5 16l1 1Z"/><path fill="#CBC9CC" id="arb" d="M179 115c0-3.361 15.193-1.846 17.5-3 5.478-2.739 19.392-2 25.5-2l7.5-1c2.174 1.087 7.657 2 10 2 5.931 0 14.958-1.521 20 1 2.666 1.333 17.5-1.19 17.5 3 4.139 0 6.032 6.266 9.5 8 11.818 5.909 16.418 20.209 28 26 1.764.882 7.653 12.174 10 11 2.686-1.343-5.093-10.547-6-11-10.269-5.135-18.57-21.785-31-28-3.116-1.558-4.554-8-9.5-8-3.437 0-32.243-6.372-35.5-8h-15c-17.584 0-32.607 7-48.5 7l-10 8.5c-9.696 9.696-19.813 17.813-29.5 27.5-3.216 3.216-5.684 5.867-7.5 9.5-.07.139-2.292 3.5-.5 3.5l13.5-15.5 24.5-22.5c2.498-2.498 6.745-8 9.5-8Z"/><path fill="#FDFB90" id="FOTU" d="M274 132h1c0-6.219 2-11.387 2-17 0-4.19-14.834-1.667-17.5-3-5.042-2.521-14.069-1-20-1-2.343 0-7.826-.913-10-2l-7.5 1c-6.108 0-20.022-.739-25.5 2-2.307 1.154-17.5-.361-17.5 3 0 4.63 3 10.98 3 16l15.5-6c7.467-3.734 48.489-3.756 56 0 2.795 1.398 20.5 2.671 20.5 7Z"/><path fill="#FFFB8E" id="PRM" d="m129 194-1 1c-2.421 0-6.678 2.411-9.5 1-11.669-5.835-17.855-16.21-23.5-27.5-2.428-4.857 2-11.553 2-15.5 7.614 0 14.062-6.781 20.5-10 14.606-7.303 28.472-16.736 43-24 5.249-2.625 11.309-8 17.5-8l1 1-10 8.5c-9.696 9.696-19.813 17.813-29.5 27.5-3.216 3.216-5.684 5.867-7.5 9.5-.07.139-2.292 3.5-.5 3.5l13.5-15.5 24.5-22.5c2.498-2.498 6.745-8 9.5-8 0 4.63 3 10.98 3 16v1c-3.536 0-9.941 8.441-13 11.5-7.85 7.85-20.966 21.932-26 32-1.974 3.948-8 6.832-8 11.5l-1 1-5 6ZM322 187l7 8c2.014 0 5.932 2.284 8.5 1 11.839-5.92 17.684-14.869 23.5-26.5 2.531-5.061-2-12.476-2-16.5-5.82 0-11.518-5.509-16.5-8-15.924-7.962-31.162-18.081-47-26-5.141-2.571-10.412-8-16.5-8l-1 2c4.946 0 6.384 6.442 9.5 8 12.43 6.215 20.731 22.865 31 28 .907.453 8.686 9.657 6 11-2.347 1.174-8.236-10.118-10-11-11.582-5.791-16.182-20.091-28-26-3.468-1.734-5.361-8-9.5-8 0 5.613-2 10.781-2 17l8.5 7 15.5 17.5c2.15 4.3 16.232 22.866 19.5 24.5l3.5 6Z"/><path fill="#FBFC91" id="PYR" d="m183 145 8.5-6c7.271-3.636 16.814-2.407 24-6 6.082-3.041 40.121 1.56 45 4l8 4 4.5 4c0-3.823 1-8.586 1-13 0-4.329-17.705-5.602-20.5-7-7.511-3.756-48.533-3.734-56 0l-15.5 6v1l1 13Z"/><path fill="#FFF990" id="COPY" fill-rule="evenodd" d="M154 180c0 1.93 1.93 0 0 0m-12 18h2l1-1h2l1-1h1l1-1c1.63 0 19-11.735 19-13l2-1c0-1.145-.579-4 1-4l1-2c0-2.07 3.396-8 6-8l5-8c0-2.978-1-6.49-1-10-1.757 0-4.284 6.069-5 7.5l-15 17-7.5 6.5 27.5-35-1-13c-3.536 0-9.941 8.441-13 11.5-7.85 7.85-20.966 21.932-26 32-1.974 3.948-8 6.832-8 11.5l-1 1c0 6.616.998 10 8 10Z"/><path fill="#FFF990" id="COPY" d="M313 198h2c6.752 0 7-4.974 7-11l-3.5-6c-3.268-1.634-17.35-20.2-19.5-24.5L283.5 139l-8.5-7h-1c0 4.414-1 9.177-1 13l28.5 36c-4.188 0-19.464-21.464-23-25l-5.5-7v11c0 2.46 4 4.17 4 7 2.962 0 7 6.336 7 9l2 5 2 2c2.836 0 14.876 13 20 13l1 1h2l2 1Z"/><path fill="#CBC9CC" id="arb" d="M183 149c0-5.477 15.479-8.489 18.5-10 10.58-5.29 42.452-5.274 53 0 3.155 1.578 18.5 4 18.5 10l5.5 7c3.536 3.536 18.812 25 23 25L273 145l-4.5-4-8-4c-4.879-2.44-38.918-7.041-45-4-7.186 3.593-16.729 2.364-24 6l-8.5 6-27.5 35 7.5-6.5 15-17c.716-1.431 3.243-7.5 5-7.5Z"/><path fill="#FBFC91" id="PYR" d="m184 159 9.5-6c5.05-2.525 41.798-7.101 48-4 6.177 3.088 14.791.895 21 4l10.5 7v-11c0-6-15.345-8.422-18.5-10-10.548-5.274-42.42-5.29-53 0-3.021 1.511-18.5 4.523-18.5 10 0 3.51 1 7.022 1 10Z"/><path fill="#FFFA8F" id="UVU" d="M179 167c14.001 0 30.864-1 44.5-1l17-1c9.202 4.601 26.855 2 36.5 2 0-2.83-4-4.54-4-7l-10.5-7c-6.209-3.105-14.823-.912-21-4-6.202-3.101-42.95 1.475-48 4l-9.5 6-5 8Z"/><path fill="#CBC9CC" id="arb" d="m173 175 10.5-4h30c2.979-1.489 15.616-3.692 19-2 9.46 4.73 32.791-1.604 40 2 1.31.655 10.835 5 11.5 5 0-2.664-4.038-9-7-9-9.645 0-27.298 2.601-36.5-2l-17 1c-13.636 0-30.499 1-44.5 1-2.604 0-6 5.93-6 8Z"/><path fill="#FFFA8F" id="UVU" d="M231 194h2c13.145 0 26.701-1.1 38.5-7 2.701-1.351 13.5.2 13.5-5l1-1-2-5c-.665 0-10.19-4.345-11.5-5-7.209-3.604-30.54 2.73-40-2-3.384-1.692-16.021.511-19 2h-30l-10.5 4-1 2c-1.579 0-1 2.855-1 4v1c0 5.007 10.851 3.676 13.5 5 12.112 6.056 25.961 7 39.5 7h7Z"/><path fill="#CBC9CC" id="arb" d="m173 175-1 2 1-2ZM154 180c0 1.93 1.93 0 0 0Z"/><path fill="#F0F080" id="CB" d="M169 182h2v-1l-2 1ZM285 182l3 1-2-2-1 1ZM135 187l-1 1 1-1ZM329 195l-2.5-1-6 5c-1.073.536-5.5.251-5.5-1 6.752 0 7-4.974 7-11l7 8ZM129 194l3 1.5c.596 1.191 10 6.207 10 2.5-7.002 0-8-3.384-8-10l-5 6Z"/><path fill="#FFA2D2" id="ECU" d="M189 192c0 4.128-3.224 9-9 9-2.758 0-11.561-3.621-13-6.5l2-5.5h14l1 1h1l1 1h3v1Z"/><path fill="#FF9BCD" id="MY" d="m277 188-1 1 1-1Z"/><path fill="#FFA2D2" id="ECU" d="M267 192c0 5.595 4.733 9 10 9 2.437 0 10.726-3.952 12-6.5 1.27-2.541-2-3.709-2-5.5h-1l-1-1h-8l-1 1h-3l-1 1h-1l-1 1h-2l-1 1Z"/><path fill="#FF9BCD" id="MY" d="m285 188 1 1-1-1ZM211 233h1c0-9.374-7.838-12 7-12 0-2.5-11.582-2-14-2-2.982 0-10 7.93-10-4-4.066 0-14.053-6.605-16-10.5l1-3.5c-2.758 0-11.561-3.621-13-6.5l2-5.5c-6.395 0-30 19.768-30 26l5-5.5c4.408-4.408 8.411-7.955 13.5-10.5 9.228-4.614 20.53 3 3.5 3v5l5.5-4c8.618-4.309 12.5 7.043 12.5 13 4.6 0 23 5.631 23 11 3.266 0 9 .158 9 6ZM183 189l1 1-1-1ZM273 189l-1 1 1-1ZM278 216c-6.934 0-12.293 5-19 5 0-1.714 2-3.482 2-6 2.819 0 17-8.557 17-11.5l-1-2.5c2.437 0 10.726-3.952 12-6.5 1.27-2.541-2-3.709-2-5.5 6.889 0 32 20.819 32 28-.225 0-16.048-16.274-19.5-18-8.723-4.362-22.48 3-4.5 3v4l-4.5-3c-6.77-3.385-11.512 4.525-13.5 8.5l1 4.5ZM185 190l1 1-1-1ZM271 190l-1 1 1-1ZM189 192h2l-2-1v1ZM265 192h2l1-1c-1.048 0-3-.473-3 1Z"/><path fill="#FDA5D0" id="CU" d="M204 203c0 1.697-6.918 12-9 12-4.066 0-14.053-6.605-16-10.5l1-3.5c5.776 0 9-4.872 9-9h4l2 1h3l1 1h1l1 1h2l2 2v5l-1 1Z"/><path fill="#FF9BCD" id="MY" d="m193 192 2 1-2-1ZM264 192c-1.048 0-3-.473-3 1 1.048 0 3 .473 3-1Z"/><path fill="#FDA5D0" id="CU" d="M252 203c3.637 0 4.711 12 9 12 2.819 0 17-8.557 17-11.5l-1-2.5c-5.267 0-10-3.405-10-9h-3c0 1.473-1.952 1-3 1h-2l-2 1-2 1h-2l-1 2v6Z"/><path fill="#FF9BCD" id="MY" d="m198 193 1 1-1-1ZM259 193l-2 1 2-1Z"/><path fill="#F0F080" id="CB" d="m129 194-1 1 1-1Z"/><path fill="#FF9BCD" id="MY" d="m200 194 1 1-1-1ZM224 195h2v-1h-2v1ZM231 195h2v-1h-2v1ZM257 194l-2 1 2-1Z"/><path fill="#F0F080" id="CB" d="m150 195-1 1 1-1Z"/><path fill="#FF9BCD" id="MY" d="M205 196v1l-2-2 2 1ZM221 195l-2 1 2-1Z"/><path fill="#FFA5D0" id="AP" d="m240 197-6 6.5-4.5 7.5c-1.647.823-3.033-1.033-4-2-1.117-1.117-8.5-10.361-8.5-11v-1l1-1h1l2-1h15l4 2Z"/><path fill="#FF9BCD" id="MY" d="m236 195 4 2-4-2ZM251 196l1 1 1-2-2 1Z"/><path fill="#F0F080" id="CB" d="m148 196-1 1 1-1Z"/><path fill="#FEA3D0" id="GR" d="M208 200h1c0-2.424-2-2.76-2-4h-2v4l2 1 1-1Z"/><path fill="#FF9BCD" id="MY" d="m215 197-6 3c0-2.424-2-2.76-2-4l8 1ZM218 196l-1 1 1-1ZM242 197l7 4-2-2.5 3-2.5-8 1Z"/><path fill="#FEA3D0" id="GR" d="M249 201h1l2-2v-2l-1-1h-1l-3 2.5 2 2.5Z"/><path fill="#F0F080" id="CB" d="m308 196 1 1-1-1ZM145 197l-1 1 1-1Z"/><path fill="#C8CACA" id="sptV" d="m151 276-2 1-7.5-5c-3.671-3.671-5.308-9.117-7.5-13.5-7.17-14.34 1-25.811 1-37.5 1.577 0 2-1.762 2-3l1-1 1-2 5-5.5c4.408-4.408 8.411-7.955 13.5-10.5 9.228-4.614 20.53 3 3.5 3-4.752 0-13 5.756-13 9v1l-1 1-1 1-1 1-1 2-2 3-1 1v1l-1 1-1 2v1l-1 1v1c-1.473 0-1 1.952-1 3v3c-1.643 0-1 3.765-1 5 0 1.613-2.541 13 1 13v5l1 1v2l1 1 1 3 11 12Z"/><path fill="#FDA5D1" id="NTS" fill-rule="evenodd" d="m250 207-1 3.5c1.825 3.649 7.711-3.5 1-3.5m-46 0c0 9.037 6.429 0 0 0m55 14-2 1-6-4c0-11.01-18-10.122-18 1-1.24 0-1.576 2-4 2 0-1.186-1-1.186-1 0l-4-1c0-12.646-19-12.255-19-1-2.982 0-10 7.93-10-4 2.082 0 9-10.303 9-12l1-1 2-1 1-1h1l6-3h1l1 1c0 .639 7.383 9.883 8.5 11 .967.967 2.353 2.823 4 2l4.5-7.5 6-6.5h2l7 4h1l2 2c3.637 0 4.711 12 9 12 0 2.518-2 4.286-2 6Z"/><path fill="#FF9BCD" id="MY" d="M217 197v1l-1-1h1Z"/><path fill="#C8CACA" id="sptV" d="m305 276 3 1 8-6 1-1c0-1.238.423-3 2-3l2-4c0-7.744 8.349-20.801 4-29.5-.802-1.604-6-14.655-6-15.5v-1c-.225 0-16.048-16.274-19.5-18-8.723-4.362-22.48 3-4.5 3 3.646 0 14 4.944 14 9 0 2.58 4 3.211 4 6v1l2 2v1l1 1v1l1 1v1l2 4v2c1.684 0 1 4.679 1 6v3c1.613 0 1.613 8 0 8v3c0 1.235.643 5-1 5v3l-1 1v1l-1 1c0 2.773-4 3.67-4 6l-1 1-1 1-6 6Z"/><path fill="#F0F080" id="CB" d="m311 197 2 1-2-1Z"/><path fill="#FF9BCD" id="MY" d="m250 201 2 2v-4l-2 2ZM207 201l-2 1v-2l2 1ZM208 200l-1 1 1-1Z"/><path fill="#FDA3D1" id="Pa5" d="M148 211h1c5.195 0 9.477-4 12-4v-5c-4.752 0-13 5.756-13 9Z"/><path fill="#FF9BCD" id="MY" d="m205 202-1 1 1-1Z"/><path fill="#FDA3D1" id="Pa5" d="M307 211h2c0-4.056-10.354-9-14-9v4c0 4.152 9.098 5 12 5Z"/><path fill="#FDA4D0" id="SPVC" d="M140 264c4.21 0 7.766 9 13 9l4-2.5 6-9 1-11c3.506-7.013 3.475-15.949 7-23l8-11.5c0-5.957-3.882-17.309-12.5-13l-5.5 4c-2.523 0-6.805 4-12 4l-1 1-1 1-1 1-1 1-1 2-2 3-1 1v1l-1 1-1 2v1l-1 1v1c0 1.048.473 3-1 3v26l1 1v2l1 1 1 3ZM311 270l-8 3-4-2.5-5-8c-2.135-4.27.1-10.801-2-15l-7-21c-1.641-3.283-7-6.698-7-10.5l-1-4.5c1.988-3.975 6.73-11.885 13.5-8.5l4.5 3c0 4.152 9.098 5 12 5l6 6v1l2 2v1l1 1v1l1 1v1l2 4v2c0 1.321-.684 6 1 6v14c-1.643 0-1 3.765-1 5v3l-1 1v1l-1 1c0 2.773-4 3.67-4 6l-1 1-1 1Z"/><path fill="#C8CAC7" id="ts" d="M204 207c0 9.037 6.429 0 0 0ZM250 207l-1 3.5c1.825 3.649 7.711-3.5 1-3.5Z"/><path fill="#FDB1D8" id="DMX" d="M219 221h2l3-1c0-12.646-19-12.255-19-1 2.418 0 14-.5 14 2ZM235 221h2c0-3.262 14-.658 14-3 0-11.01-18-10.122-18 1l2 2Z"/><path fill="#FF9BCD" id="MY" d="m149 211-1 1v-1h1ZM309 211c0 2.58 4 3.211 4 6l-6-6h2ZM148 212l-1 1 1-1ZM147 213l-1 1 1-1ZM146 214l-1 1 1-1ZM139 215l-1 2 1-2ZM145 215l-1 2 1-2Z"/><path fill="#FDB1D7" id="MDRNd" d="M158 278h9l1-1c1.926 0 6.12-9.74 7-11.5 5.126-10.252 14.953-18.906 20-29l7-9.5c0-5.369-18.4-11-23-11l-8 11.5c-3.525 7.051-3.494 15.987-7 23l-1 11-6 9-4 2.5c0 3.424 5 3.518 5 5ZM290 278h9c0-1.539 4-2.187 4-5l-4-2.5-5-8c-2.135-4.27.1-10.801-2-15l-7-21c-1.641-3.283-7-6.698-7-10.5-6.934 0-12.293 5-19 5l-2 1c0 1.624-2 2.75-2 5 0 4.381 6.152 6.803 8 10.5 4.918 9.836 13.119 18.238 18 28l7 11.5 2 1Z"/><path fill="#FF9BCD" id="MY" d="m138 217-1 1 1-1ZM137 218c-1.577 0-2 1.762-2 3 1.577 0 2-1.762 2-3ZM244 233h1l5.5-7 4.5 1c0-2.25 2-3.376 2-5l-6-4c0 2.342-14-.262-14 3 16.542 0 7 2.87 7 12ZM313 218l2 2-2-2ZM319 218c2.947 0 4.111 6.722 5 8.5 4.403 8.806 5.515 19.97 1 29-.728 1.456-1.87 7.5-4 7.5 0-7.744 8.349-20.801 4-29.5-.802-1.604-6-14.655-6-15.5ZM228 221h1c2.424 0 2.76-2 4-2l2 2-6 6.5-.5 10.5-.5-8.5-3.5-6.5-3.5-2 3-1 4 1ZM142 220l-1 1 1-1Z"/><path fill="#A7AAA9" id="c" d="M228 221h1c0-1.186-1-1.186-1 0Z"/><path fill="#FF9BCD" id="MY" d="M161 289c0 4.107 11 5.777 11 8-16.214 0-36.293-31.085-43-44.5-2.567-5.134 2.471-31.5 6-31.5 0 11.689-8.17 23.16-1 37.5 2.192 4.383 3.829 9.829 7.5 13.5l7.5 5c0 3.559 6.514 10 10 10l2 2Z"/><path fill="#FEB1D7" id="XII" d="M239 239h2l3-6c0-9.13 9.542-12-7-12h-2l-6 6.5-.5 10.5-.5-8.5-3.5-6.5-3.5-2h-2c-14.838 0-7 2.626-7 12 2.097 0 2.205 6 6 6 3.78 0 11.502 3.999 15.5 2l5.5-2Z"/><path fill="#FF9BCD" id="MY" d="m259 221-2 1 2-1ZM315 221l1 1-1-1ZM141 222l-1 1 1-1ZM140 223l-1 2 1-2ZM316 223l1 1-1-1ZM317 225l2 4-2-4ZM139 226l-1 1 1-1Z"/><path fill="#FFB2D8" id="IRN" fill-rule="evenodd" d="m177 269-1 2.5c2.085 4.17 6.752-2.5 1-2.5m4 8c-4.511 0-8.351 2-12 2l-1-2c1.926 0 6.12-9.74 7-11.5 5.126-10.252 14.953-18.906 20-29l7-9.5c3.266 0 9 .158 9 6v2c-3.689 0-8.266 4.032-10 7.5-4.75 9.5-20 23.976-20 34.5ZM277 269l-1 2.5c2.256 4.513 8.071-2.5 1-2.5m11 8c0 1.577 1.729 2-1 2-2.516 0-7.435-2-12-2 0-7.535-13.429-27.929-19-33.5-2.998-2.998-5.292-8.5-10-8.5h-1v-2l5.5-7 4.5 1c0 4.381 6.152 6.803 8 10.5 4.918 9.836 13.119 18.238 18 28l7 11.5Z"/><path fill="#FF9BCD" id="MY" d="M138 228c-1.473 0-1 1.952-1 3 1.473 0 1-1.952 1-3ZM319 231c1.684 0 1 4.679 1 6-1.684 0-1-4.679-1-6Z"/><path fill="#FFB1D9" id="NR" d="m218 239-1 1c-1.442 0-6-3.274-6-5v-2h1c2.097 0 2.205 6 6 6ZM245 236l-4 3 3-6h1v3Z"/><path fill="#FF9BCD" id="MY" d="M137 234c-1.643 0-1 3.765-1 5 0 1.613-2.541 13 1 13v-18Z"/><path fill="#FFB1D6" id="MDRNv" d="M181 277c3.023 0 8 1.526 8 5 14.193 0 26.733-23.965 32-34.5 1.794-3.587-4-5.705-4-7.5-1.442 0-6-3.274-6-5-3.689 0-8.266 4.032-10 7.5-4.75 9.5-20 23.976-20 34.5Z"/><path fill="#FF9BCD" id="MY" d="m246 235-1 1v-1h1Z"/><path fill="#FFB1D6" id="MDRNv" d="M275 277c-2.277 0-8 1.922-8 5-10.408 0-32-26.497-32-36.5l4-5.5 2-1 4-3 1-1c4.708 0 7.002 5.502 10 8.5 5.571 5.571 19 25.965 19 33.5Z"/><path fill="#FF9BCD" id="MY" fill-rule="evenodd" d="M239 285c0 2.917-6.098 4.304-4 8.5 1.035 2.071 9.352 3.5 11.5 3.5 1.054 0 4.5.338 4.5-1.5 0-1.505-10.303-10.5-12-10.5m-24 0-10 10.5c0 1.626 4.468 2.016 5.5 1.5 3.366-1.683 18.726-4.637 8-10-1.619-.809-1.471-2-3.5-2m31-2c0 8.319 13.278 13.944 15 10.5 1.128-2.257-12.46-10.5-15-10.5m-38 0c0 4.548-15.147 6.206-13 10.5 3.013 6.027 23.074-10.5 13-10.5m21 11c0 1.549 9.964 2.232 11.5 3 12.308 6.154 30.934 0 43.5 0 0-3.165 4-2.508 4-5-6.024 0-11.939 8.622-17-1.5-1.609-3.218-4-4.537-4-8.5-10.408 0-32-26.497-32-36.5l4-5.5v-1l-5.5 2c-3.998 1.999-11.72-2-15.5-2l-1 1c0 1.795 5.794 3.913 4 7.5-5.267 10.535-17.807 34.5-32 34.5 0 6.038-6.523 16.988-14.5 13l-11.5-7v1c0 2.83 10 4.018 10 8 12.35 0 30.387 6.057 42.5 0 1.536-.768 11.5-1.451 11.5-3 0-2.998-1-7.358-1-11-5.127 0-7-3.343-7-7-7.063 0 4.802-14 8-14v-10.5c1.161-2.322 3 8.275 3 9.5.976 0 15.591 15 7 15l2 2.5c0 2.165-7.475 4.5-9 4.5l1 7.5-2 3.5Z"/><path fill="#FFB1D9" id="NR" d="m241 239-2 1v-1h2Z"/><path fill="#FF9BCD" id="MY" d="M320 240c1.613 0 1.613 8 0 8v-8Z"/><path fill="#FEC6E2" id="RO" d="M229 265v1l-2-1v-13.5c1.161-2.322 3 8.275 3 9.5v3l-1 1Z"/><path fill="#FF9BCD" id="MY" d="M320 251c-1.643 0-1 3.765-1 5 1.643 0 1-3.765 1-5ZM137 257l1 1-1-1ZM319 259l-1 1 1-1ZM138 260l1 1-1-1Z"/><path fill="#C8C8CC" id="tspc" d="M227 265c-3.545 0-2.926 11-8 11-7.063 0 4.802-14 8-14v3ZM230 265c0 3.655 7 8.595 7 11 8.591 0-6.024-15-7-15v4Z"/><path fill="#FF9BCD" id="MY" d="m318 261-1 1 1-1ZM321 263l-2 4c2.109 0 2-2.535 2-4ZM155 278h3c0-1.482-5-1.576-5-5-5.234 0-8.79-9-13-9l11 12 4 2ZM229 265h1v-1l-1 1Z"/><path fill="#FFB3D8" id="IO" d="m227 282-1 1c-5.127 0-7-3.343-7-7 5.074 0 4.455-11 8-11v17Z"/><path fill="#FF9BCD" id="MY" d="m229 278-2 1v-14l2 1v12Z"/><path fill="#FFB3D8" id="IO" d="m229 278 1 5c1.525 0 9-2.335 9-4.5l-2-2.5c0-2.405-7-7.345-7-11h-1v13Z"/><path fill="#FF9BCD" id="MY" d="M319 267c-1.577 0-2 1.762-2 3 1.577 0 2-1.762 2-3ZM313 268l-1 1 1-1ZM177 269l-1 2.5c2.085 4.17 6.752-2.5 1-2.5ZM277 269l-1 2.5c2.256 4.513 8.071-2.5 1-2.5ZM299 278l2 1 4-3 6-6-8 3c0 2.813-4 3.461-4 5ZM317 270l-1 1 1-1ZM308 277c0 2.74-5 4.77-5 8 2.576 0 13-11.645 13-14l-8 6Z"/><path fill="#C9CACA" id="sctd" d="M155 278c0 3.54 4 5.131 4 9-3.486 0-10-6.441-10-10l2-1 4 2ZM303 285c-2.447 0-3.28 2-6 2l4-8 4-3 3 1c0 2.74-5 4.77-5 8Z"/><path fill="#FF9BCD" id="MY" d="m169 279-2 1v-2l1-1 1 2Z"/><path fill="#FCB3D7" id="LRNm" d="M189 282c0 6.038-6.523 16.988-14.5 13l-11.5-7c0-2.203-3.465-4.569-2-7.5 1.065-2.13 6 2.588 6-.5l2-1c3.649 0 7.489-2 12-2 3.023 0 8 1.526 8 5ZM289 291h1c0-1.577 1.762-2 3-2l3-7.5c-1.378-2.757-6 .959-6-1.5-1.048 0-3 .473-3-1-2.516 0-7.435-2-12-2-2.277 0-8 1.922-8 5 0 3.963 2.391 5.282 4 8.5 5.061 10.122 10.976 1.5 17 1.5l1-1Z"/><path fill="#FF9BCD" id="MY" d="M287 279c0 1.473 1.952 1 3 1v-2l-2-1c0 1.577 1.729 2-1 2Z"/><path fill="#C8C8CB" id="rust" d="M161 289h2v-1c0-2.203-3.465-4.569-2-7.5 1.065-2.13 6 2.588 6-.5v-2h-12c0 3.54 4 5.131 4 9l2 2Z"/><path fill="#FFC6E2" id="RPA" d="M227 294h2l2-3.5-1-7.5-1-5-2 1v3l-1 1c0 3.642 1 8.002 1 11Z"/><path fill="#C8C8CB" id="rust" d="M293 289h2l2-2 4-8-2-1h-9v2c0 2.459 4.622-1.257 6 1.5l-3 7.5Z"/><path fill="#FF9BCD" id="MY" d="m227 282-1 1 1-1Z"/><path fill="#FFB3D8" id="IO" d="M208 283c0 4.548-15.147 6.206-13 10.5 3.013 6.027 23.074-10.5 13-10.5ZM246 283c0 8.319 13.278 13.944 15 10.5 1.128-2.257-12.46-10.5-15-10.5Z"/><path fill="#C7C9C9" id="py" d="m215 285-10 10.5c0 1.626 4.468 2.016 5.5 1.5 3.366-1.683 18.726-4.637 8-10-1.619-.809-1.471-2-3.5-2ZM239 285c0 2.917-6.098 4.304-4 8.5 1.035 2.071 9.352 3.5 11.5 3.5 1.054 0 4.5.338 4.5-1.5 0-1.505-10.303-10.5-12-10.5Z"/><path fill="#FF9BCD" id="MY" d="M295 289c2.062 0-1.561 3.53-2.5 4l-5.5 3c5.184 0 16-5.556 16-11-2.447 0-3.28 2-6 2l-2 2Z"/><path fill="#CBC7CC" id="sctv" d="M172 297h1c0-3.982-10-5.17-10-8h-2c0 4.107 11 5.777 11 8Z"/><path fill="#FF9BCD" id="MY" d="M293 289c-1.238 0-3 .423-3 2 1.238 0 3-.423 3-2Z"/><path fill="#CBC7CC" id="sctv" d="M284 297h1l2-1 5.5-3c.939-.47 4.562-4 2.5-4h-2c0 1.577-1.762 2-3 2h-1l-1 1c0 2.492-4 1.835-4 5Z"/><path fill="#FF9BCD" id="MY" d="m289 291-1 1 1-1ZM287 296l-2 1 2-1Z"/></svg>