<svg xmlns="http://www.w3.org/2000/svg" viewBox="0 0 456 320"><path fill="#FEFA90" id="DEC" d="M172 90c0-7.207 10.265-9.382 15.5-12 .652-.326 7.5-1.533 7.5-.5l-7.5 3.5c-4.518 2.259-13.003 12.494-9.5 19.5 3.682 7.364 1.737 17.618 11.5 22.5 3.278 1.639 7.873.437 11 2 15.846 7.923 32.757 10.122 49 2 3.687-1.843 9.381-.191 13-2 13.328-6.664 20.277-23.947 13.5-37.5-2.64-5.28-12.338-8.92-17.5-11.5-10.73-5.365-32.384-4-45.5-4l-13 4c-.524 0-5 1.962-5 .5 0-4.633 22.524-4.512 24.5-5.5 10.814-5.407 37.027 2.514 46 7 6.698 3.349 18.5 1.963 18.5 13 .672 0 2-4.33 2-5l1-1v-1c0-5.5 2-9.257 2-15 0-3.256-19.497-10.499-22.5-12-16.548-8.274-60.413-8.293-77 0-2.888 1.444-22.5 9.287-22.5 12l3 16v1l1 1c0 1.048-.473 3 1 3Z"/><path fill="#FDFB8F" id="SIM" d="M162 72c0 1.88 6.371 13 8 13l-3-16c-1.408 0-5 1.197-5 3ZM295 72c0 1.307-6.895 12-8 12 0-5.5 2-9.257 2-15 1.643 0 6 1.338 6 3Z"/><path fill="#CBC9CC" id="arb" fill-rule="evenodd" d="m295 174 3 5c4.411 0 8.585 8 12.5 8L299 175.5l-15-22-10-10.5c-2.795 0-16.59-7.91-11-13.5l3-2.5 9-3c10.943 0 21.461 3.981 31.5 9 1.642.821 3.733 3.866 6 5 5.159 2.58 9.449 12.724 14 15 4.562 2.281 15.649 25.201 19.5 17.5 1.327-2.655-6.276-8.276-8-10-4.111-4.111-25-25.668-25-27.5-1.425 0-3.169-3.165-1.5-4h21c3.529 1.765 8.591.296 12 2l7.5 3.5-7-7c-.407-.813-1.013-5.5-2.5-5.5l-11 5h-22c-2.465-1.232-4.502-2.751-7-4-2.185-1.092-11.5-2.423-11.5-6-8.205 0-7-20.76-7-26 0-11.037-11.802-9.651-18.5-13-8.973-4.486-35.186-12.407-46-7-1.976.988-24.5.867-24.5 5.5 0 1.462 4.476-.5 5-.5l13-4c13.116 0 34.77-1.365 45.5 4 5.162 2.58 14.86 6.22 17.5 11.5 6.777 13.553-.172 30.836-13.5 37.5-3.619 1.809-9.313.157-13 2-16.243 8.122-33.154 5.923-49-2-3.127-1.563-7.722-.361-11-2-9.763-4.882-7.818-15.136-11.5-22.5-3.503-7.006 4.982-17.241 9.5-19.5l7.5-3.5c0-1.033-6.848.174-7.5.5-5.235 2.618-15.5 4.793-15.5 12 0 4.706 2.283 27-6 27 0 3.164-10.378 4.939-12.5 6l-6 4h-22l-12-5-.5 2.5c-1.354 2.707-4.995 4.99-6 7-.827 1.653 6.945-.5 9-.5 4.167 0 29-6.143 29 1l-1 1-9 9.5-25 27 4.5 3.5 2.5-5.5 15-16c15.469-15.469 26.758-27.5 49-27.5 1.942 0 10 1.937 10 4 13.699 0-4.544 15-8 15l-9 8.5-16 23-8.5 9.5c1.161.581 7.259-5 9.5-5 0-1.408 1.197-5 3-5 0-5.898 14.944-10.722 19.5-13 10.621-5.311 30.999-1 37-4l10-3 11 3c7.728 0 23.88-1.06 30 2 3.815 1.907 25.5 9.206 25.5 15m-112-23c0 3.115 11.355 4.573 14.5 3 8.09-4.045 35.981-1 46.5-1 4.837 0 11.416-1.042 15.5 1 3.061 1.53 13.5.328 13.5-3 0-8.14-11.609-8.555-16.5-11-7.846-3.923-48.194-3.903-56 0-4.6 2.3-17.5 2.394-17.5 11Z"/><path fill="#FCFC90" id="ANcr1" d="M172 90c0 4.706 2.283 27-6 27l-13.5-12c-11.721-5.86-19.239-16-33.5-16 0-3.437 2.973-4.447 4-6.5 6.774-13.547 26.38-10.5 39-10.5 0 1.88 6.371 13 8 13v1l1 1c0 1.048-.473 3 1 3ZM284 91c0 5.24-1.205 26 7 26 0-2.415 9.516-9.008 11.5-10 3.473-1.736 6.291-6.646 9-8 8.321-4.16 15.424-10 25.5-10 0-3.651-2.529-4.558-4-7.5-6.01-12.02-26.572-9.5-38-9.5 0 1.307-6.895 12-8 12v1l-1 1c0 .67-1.328 5-2 5Z"/><path fill="#FDFB8F" id="SIM" d="m287 85-1 1 1-1ZM170 86l1 1-1-1Z"/><path fill="#FCFA91" id="ANcr2" fill-rule="evenodd" d="M104 134c0 1.93 1.93 0 0 0m1-1c0 2.091 3.746 0 0 0m39 0c-10.247 0-46.307 27-58 27l-4.5 1c-8.056-4.028-8.126-17.248-4.5-24.5 2.687-5.375 3.374-11.748 6-17 6.249-12.497 20.585-30.5 36-30.5 14.261 0 21.779 10.14 33.5 16l13.5 12c0 3.164-10.378 4.939-12.5 6l-6 4h-22l-12-5-.5 2.5c-1.354 2.707-4.995 4.99-6 7-.827 1.653 6.945-.5 9-.5 4.167 0 29-6.143 29 1l-1 1Z"/><path fill="#FCFA91" id="ANcr2" d="M313 133c5.354 0 10.885 5.692 15.5 8 6.508 3.254 36.309 19 41.5 19l5.5 1c9.017-4.508 6.89-18.721 3.5-25.5-2.709-5.419-3.366-11.731-6-17-6.369-12.737-20.199-29.5-36-29.5-10.076 0-17.179 5.84-25.5 10-2.709 1.354-5.527 6.264-9 8-1.984.992-11.5 7.585-11.5 10 0 3.577 9.315 4.908 11.5 6 2.498 1.249 4.535 2.768 7 4h22l11-5c1.487 0 2.093 4.687 2.5 5.5l7 7-7.5-3.5c-3.409-1.704-8.471-.235-12-2h-21c-1.669.835.075 4 1.5 4Z"/><path fill="#FFFB8E" id="PRM" d="m128 194-7.5 7-5.5 3c-14.192 0-26.753-24.007-32-34.5-1.993-3.986 3-6.541 3-9.5 11.693 0 47.753-27 58-27l-9 9.5-25 27 4.5 3.5 2.5-5.5 15-16c15.469-15.469 26.758-27.5 49-27.5l1 7c-15.982 0-38.591 32.681-45 45.5-2.782 5.564-9 10.941-9 17.5ZM329 194c0 3.829 12 7.792 12 10 13.298 0 26.775-22.05 32-32.5 2.334-4.668-3-9.351-3-11.5-5.191 0-34.992-15.746-41.5-19-4.615-2.308-10.146-8-15.5-8 0 1.832 20.889 23.389 25 27.5 1.724 1.724 9.327 7.345 8 10-3.851 7.701-14.938-15.219-19.5-17.5-4.551-2.276-8.841-12.42-14-15-2.267-1.134-4.358-4.179-6-5-10.039-5.019-20.557-9-31.5-9v7c15.357 0 38.913 34.325 45 46.5 1.926 3.852 9 12.125 9 16.5Z"/><path fill="#FDFB90" id="FOTU" d="M191 128c-3.42 0-6.14 3-9 3l-1-7c1.942 0 10 1.937 10 4ZM266 127c0 1.289 7.597 4 9 4v-7l-9 3Z"/><path fill="#FBFC91" id="PYR" d="M275 131c0 3.531-1 7.893-1 12-2.795 0-16.59-7.91-11-13.5l3-2.5c0 1.289 7.597 4 9 4ZM182 131l1 12c3.456 0 21.699-15 8-15-3.42 0-6.14 3-9 3Z"/><path fill="#FFF990" id="COPY" fill-rule="evenodd" d="M145 186c0 1.93 1.93 0 0 0m1-1c0 1.93 1.93 0 0 0m1-1c0 2.091 3.746 0 0 0m-5 16-1 1h-8.5c-2.114-1.057-3.346-7-4.5-7 0-6.559 6.218-11.936 9-17.5 6.409-12.819 29.018-45.5 45-45.5l1 12-9 8.5-16 23-8.5 9.5c1.161.581 7.259-5 9.5-5v2l-1 2-1 1c0 4.086-12 12.836-12 14l-1 1h-1l-1 1Z"/><path fill="#FFF990" id="COPY" d="m310 197 2 1c3.35 0 7.616 5.442 12.5 3 1.981-.991 1.956-7 4.5-7 0-4.375-7.074-12.648-9-16.5-6.087-12.175-29.643-46.5-45-46.5 0 3.531-1 7.893-1 12l10 10.5 15 22 11.5 11.5c-3.915 0-8.089-8-12.5-8l-1 2 2 2c0 5.403 10 9.676 10 13l1 1Z"/><path fill="#FFFB8E" id="PRM" d="m145 132-1 1 1-1Z"/><path fill="#CBC9CC" id="arb" d="M105 133c0 2.091 3.746 0 0 0ZM104 134c0 1.93 1.93 0 0 0Z"/><path fill="#FBFC91" id="PYR" d="M183 151c2.068 0 4.255-2.877 6.5-4l14-4H218c11.382 0 34.436-2.532 43.5 2l11.5 6c0-8.14-11.609-8.555-16.5-11-7.846-3.923-48.194-3.903-56 0-4.6 2.3-17.5 2.394-17.5 11Z"/><path fill="#FFFA8F" id="UVU" d="M183 151c2.068 0 4.255-2.877 6.5-4l14-4H218c11.382 0 34.436-2.532 43.5 2l11.5 6c0 3.328-10.439 4.53-13.5 3-4.084-2.042-10.663-1-15.5-1-10.519 0-38.41-3.045-46.5 1-3.145 1.573-14.5.115-14.5-3Z"/><path fill="#FFFA8F" id="UVU" d="m162 174 8 2c11.072 0 22.033-4.234 32.5 1h11c2.26 1.13 26.517 2.242 29 1 2.318-1.159 28.895-5.052 31-4 2.207 1.103 13.814 3.093 16 2l5.5-2c0-5.794-21.685-13.093-25.5-15-6.12-3.06-22.272-2-30-2l-11-3-10 3c-6.001 3-26.379-1.311-37 4-4.556 2.278-19.5 7.102-19.5 13Z"/><path fill="#FDFC8F" id="NOD" d="m161 182 11.5-1c8.628 4.314 39.183 10 50 10h20c12.571-6.285 29.418-3.709 42-10l11.5 1 1-1 1-2-3-5-5.5 2c-2.186 1.093-13.793-.897-16-2-2.105-1.052-28.682 2.841-31 4-2.483 1.242-26.74.13-29-1h-11c-10.467-5.234-21.428-1-32.5-1l-8-2c-1.803 0-3 3.592-3 5v2l2 1Z"/><path fill="#F0F080" id="CB" d="m161 182-3 1 1-2 2 1ZM296 182c0 1.473 1.952 1 3 1l-2-2-1 1ZM158 183l-1 1 1-1Z"/><path fill="#CBC9CC" id="arb" d="M147 184c0 2.091 3.746 0 0 0ZM146 185c0 1.93 1.93 0 0 0ZM145 186c0 1.93 1.93 0 0 0Z"/><path fill="#FF9BCD" id="MY" d="m166 187-1 1 1-1Z"/><path fill="#FFA2D2" id="ECU" d="M180 193c0 2.116-2.575 6-5 6-3.534 0-18.17-.16-15-6.5l2-3.5h1l1-1h1l1-1h5c0 2.258 9 1.809 9 6Z"/><path fill="#FF9BCD" id="MY" d="M180 193h4c0-3.163 7.871-2 10-2 0-1.353-4.643-2-6-2-5.613 0-10.781-2-17-2 0 2.258 9 1.809 9 6ZM272 193h4c0-4.302 9-3.877 9-6-6.219 0-11.387 2-17 2-.986 0-6 1.087-6 2 2.129 0 10-1.163 10 2Z"/><path fill="#FFA2D2" id="ECU" d="M282 199h10l2-1 2-2.5c1.428-2.856-2-4.553-2-6.5l-2-1-1-1h-6c0 2.123-9 1.698-9 6 0 2.344 3.726 6 6 6Z"/><path fill="#FF9BCD" id="MY" d="m291 187 1 1-1-1ZM164 188l-1 1 1-1ZM134 217l-5 4c0-7.449 25.649-32 33-32l-2 3.5c-3.17 6.34 11.466 6.5 15 6.5 0 4.747 1.751 7 8 7l2 1c0 .71-6 3.286-6 8l-8.5-11c-3.81-1.905-5.731-1-9.5-1 0-2.342 4.949-1.602 4-3.5-1.323-2.646-13-1.966-13 1.5-6.415 0-18 8.988-18 16ZM322 217c0 2.453 2.947 1.447 4 2.5l3 4.5c0-8.832-26.45-35-35-35 0 1.947 3.428 3.644 2 6.5l-2 2.5c2.355 0 10-.229 10 3 4.497 0 13.241 4.982 15 8.5.453.905 5.76 7.5 3 7.5Z"/><path fill="#FEB1D9" id="SPIV" d="M191 199h1l2-1 1-1h2l2-2.5-4-3.5h-1c-2.129 0-10-1.163-10 2 2.917 0 4 3.481 4 6h3Z"/><path fill="#FF9BCD" id="MY" d="M197 197c1.408 0 5-2.356 5 1 1.35 0 10-2.04 10-3 0-1.966-14.792-4-17-4l4 3.5-2 2.5ZM260 197c-2.361 0-5-2.342-5 1-1.47 0-11-2.146-11-3 0-1.905 14.878-4 17-4l-3 2.5 2 3.5Z"/><path fill="#FEB1D9" id="SPIV" d="m263 198 5 1c0-1.664 1.823-6 4-6 0-3.163-7.871-2-10-2h-1l-3 2.5 2 3.5h1l1 1h1Z"/><path fill="#FDA5D0" id="CU" d="m185 203-2 3c-6.249 0-8-2.253-8-7 2.425 0 5-3.884 5-6h4c2.917 0 4 3.481 4 6l-1 2-1 1-1 1ZM270 202l3 4c5.076 0 9-1.361 9-7-2.274 0-6-3.656-6-6h-4c-2.177 0-4 4.336-4 6l2 3Z"/><path fill="#F0F080" id="CB" d="M141 201c0 5.561-21.048 3-26 3l5.5-3 7.5-7c1.154 0 2.386 5.943 4.5 7h8.5ZM312 198c0 9.28 22.847 6 29 6 0-2.208-12-6.171-12-10-2.544 0-2.519 6.009-4.5 7-4.884 2.442-9.15-3-12.5-3Z"/><path fill="#FDA5D1" id="NTS" d="M199 220h1l1-1c0-1.947 3-2.636 3-5 0-9.231 16-15.267 16-3 2.581 0 7 5.394 7-1-1.931 0-8-11.162-8-13h-1l-1-1h-1l-1-1h-3c0 .96-8.65 3-10 3l-1 1c-5.809 0-9.968 8-16 8 0 .71-6 3.286-6 8l1 4 4 1h15Z"/><path fill="#FF9BCD" id="MY" d="m215 195 1 1-1-1ZM242 195l-2 1 2-1Z"/><path fill="#FDA5D1" id="NTS" d="M272 220h4l1-5c0-4-5-6.16-5-8-2.371 0-17-8.155-17-9-1.47 0-11-2.146-11-3h-2l-2 1h-1l-1 1-1 1c0 1.763-5.701 12-8 12 0 6.394 4.419 1 7 1 0-10.722 16-8.675 16 4 0 1.726 4.558 5 6 5h14Z"/><path fill="#FFB2D6" id="PAS" d="m183 206 2 1c6.032 0 10.191-8 16-8l1-1c0-3.356-3.592-1-5-1h-2l-1 1-2 1h-1c0 2.109-2.535 2-4 2l-1 1-1 1-2 3Z"/><path fill="#FF9BCD" id="MY" d="m217 196 1 1-1-1ZM239 196l-1 1 1-1Z"/><path fill="#FFB2D6" id="PAS" d="m273 206-1 1c-2.371 0-17-8.155-17-9 0-3.342 2.639-1 5-1h1l1 1h1l7 4 3 4Z"/><path fill="#F0F080" id="CB" d="m309 196 1 1-1-1Z"/><path fill="#FF9BCD" id="MY" d="m195 197-1 1 1-1Z"/><path fill="#AAA9A7" id="V4" d="M227 210h2c2.299 0 8-10.237 8-12v-1h-6l2 1.5-8.5.5.5-2h-6c0 1.838 6.069 13 8 13Z"/><path fill="#A9AAA8" id="chpl" d="M225 197h6l2 1.5-8.5.5.5-2Z"/><path fill="#FF9BCD" id="MY" d="m238 197-1 1v-1h1ZM261 197l1 1-1-1Z"/><path fill="#F0F080" id="CB" d="m145 198-1 1 1-1Z"/><path fill="#C8CACA" id="sptV" d="M159 203h2c0-2.342 4.949-1.602 4-3.5-1.323-2.646-13-1.966-13 1.5 2.426 0 6-1.024 6 2h1Z"/><path fill="#FF9BCD" id="MY" d="m194 198-2 1 2-1ZM202 198l-1 1 1-1ZM268 199l2 3-7-4 5 1ZM294 198l-2 1 2-1Z"/><path fill="#C8CACA" id="sptV" d="M303 207h1c0-4.062-11.093-6 0-6 0-3.229-7.645-3-10-3l-2 1c0 4.01 4 1.578 4 4h1l1 1 4 2 1 1Z"/><path fill="#F0F080" id="CB" d="m143 199-1 1 1-1Z"/><path fill="#FF9BCD" id="MY" d="M191 199c0 2.109-2.535 2-4 2l1-2h3ZM272 207c0 1.84 5 4 5 8 3.783 0 6.245-9.872 10.5-12 2.948-1.474 5.517 0 8.5 0 0-2.422-4 .01-4-4h-10c0 5.639-3.924 7-9 7l-1 1Z"/><path fill="#F0F080" id="CB" d="m142 200-1 1 1-1Z"/><path fill="#FDA3D1" id="Pa5" d="M147 211c-4.84 0-8.282 6-13 6 0-7.012 11.585-16 18-16 2.426 0 6-1.024 6 2-1.238 0-3 .423-3 2l-1 1-1 1h-1l-1 1h-1l-1 1-1 1-1 1Z"/><path fill="#FF9BCD" id="MY" d="m187 201-1 1 1-1Z"/><path fill="#FDA3D1" id="Pa5" d="M308 209c2.823 0 9.016 8 14 8 2.76 0-2.547-6.595-3-7.5-1.759-3.518-10.503-8.5-15-8.5-11.093 0 0 1.938 0 6h1l2 2h1Z"/><path fill="#FDA5D2" id="SPVI" d="M142 269h7c7.93 0 6.97-21.439 10-27.5 3.292-6.584 21-12.223 21-18.5v-4l-1-4-8.5-11c-3.81-1.905-5.731-1-9.5-1h-2l-1 1-1 1h-2l-1 1-1 1h-1l-1 1-1 1h-1l-1 1-1 1c0 2.192-9.058 10-11 10l-1 1-1 1-1 1-2 4-1 1v1l-1 1-1 11v7l1 1v3l1 1v1l1 1v2l1 1v1l1 1v1l2 3 2 2 2 2h3Z"/><path fill="#FF9BCD" id="MY" d="m186 202-1 1 1-1Z"/><path fill="#FDA5D2" id="SPVI" d="M315 269h2l1-1 4-4 1-1v-1l1-1v-1l1-1v-2l1-1v-1l1-1v-2l1-1v-2l1-1-1-14-1-1v-3l-1-1v-1l-1-1v-1l-2-2-1-1-1-1-11-10-3-3h-1l-2-2h-1l-1-1-4-2-1-1h-1c-2.983 0-5.552-1.474-8.5 0-4.255 2.128-6.717 12-10.5 12l-1 5v2c0 9.109 17.415 11.33 21 18.5 3.177 6.355 2.462 28.5 11 28.5h7Z"/><path fill="#C8CACA" id="sptV" d="M155 205h2l1-1v-1c-1.238 0-3 .423-3 2Z"/><path fill="#FF9BCD" id="MY" d="m159 203-1 1v-1h1Z"/><path fill="#FDB1D8" id="DMX" d="M204 214h8c0-1.579 2.855-1 4-1h3l1-2c0-12.267-16-6.231-16 3ZM245 214l7 1c0-12.675-16-14.722-16-4l1 2h3c1.145 0 4-.579 4 1h1Z"/><path fill="#FF9BCD" id="MY" d="m297 203 1 1-1-1ZM158 204l-1 1 1-1Z"/><path fill="#C8CACA" id="sptV" d="m155 205-1 1 1-1Z"/><path fill="#FF9BCD" id="MY" d="m154 206-1 1 1-1ZM302 206l1 1-1-1ZM152 207l-1 1 1-1ZM305 207l1 2-2-2h1Z"/><path fill="#C8CACA" id="sptV" d="M306 209h1l-2-2 1 2ZM149 209h1v-1l-1 1Z"/><path fill="#FF9BCD" id="MY" d="m151 208-1 1v-1h1Z"/><path fill="#C8CACA" id="sptV" d="m149 209-1 1 1-1Z"/><path fill="#FF9BCD" id="MY" d="m308 209 2 3-3-3h1Z"/><path fill="#C8CACA" id="sptV" d="M311 275c1.569 0 5-4.729 5 0l7-5 1-1 1-1 1-1 1-2 1-2 1-2 1-2 1-2v-1l1-8c0-1.048-.473-3 1-3v-5c-1.473 0-1-1.952-1-3 0-3.894-2-6.605-2-10v-1l-1-1v-1l-3-4.5c-1.053-1.053-4-.047-4-2.5-4.984 0-11.177-8-14-8l2 3 11 10 1 1 1 1 2 2v1l1 1v1l1 1v3l1 1 1 14-1 1v2l-1 1v2l-1 1v1l-1 1v2l-1 1v1l-1 1v1l-1 1-4 4-1 1h-2c0 1.032-4 2.758-4 6ZM148 210l-1 1 1-1Z"/><path fill="#FF9BCD" id="MY" fill-rule="evenodd" d="m238 288-2 2.5c-2.016 4.032 7.623 6.561 9.5 7.5 1.269.634 9.5.426 9.5-1.5 0-3.77-12.428-8.5-17-8.5m-12-51c0 1.96-1.347 10 .5 10 .578 0 1.375-10-.5-10m3-1v7.5c0 10.307 5.115-7.5 0-7.5m0 57c0 3.194 7.07 2.785 9.5 4 6.939 3.469 27.597 4.702 35 1 1.893-.947 11.5.883 11.5-2-10.243 0 7-4.15 7-7h-3c-10.534 0-13.147 12.206-22-5.5-.87-1.74-6-4.66-6-7.5-12.109 0-19.581-14.661-24-23.5-1.423-2.846-5.162-15.5 0-15.5l-2-4c0-2.455-5.142.216-6-1.5-2.864-5.727 1.827-18.5 8-18.5l-1-2c-2.581 0-7 5.394-7-1h-2c0 6.394-4.419 1-7 1l-1 2c5.892 0 11.792 11.916 9 17.5-1.156 2.311-7 .596-7 2.5l-2 4c5.708 0 2.253 9.994 1 12.5-4.507 9.015-10.564 26.5-24 26.5-2.348 0-8.758 14.129-12.5 16-6.312 3.156-9.948-3-15.5-3h-4c0 2.074 7.841 4.17 9.5 5 2.252 1.126.831 2.915-1 2l-3.5-1c0 3.121 11.316 3 14 3 11.993 0 24.229 4.635 35.5-1 1.662-.831 9.5-1.515 9.5-4-4.843 0-2-6.173-2-8-2.485 0-17 .734-17 4-3.138 0-5.817 4.659-8.5 6-1.102.551-6.123-1.254-5.5-2.5 1.743-3.486 25-14.458 25-19.5-7.636 0 1.61-9.72 3-12.5v-4c.85-1.7 2.422-1.5 4-1.5 2.279 0-.03-5 1.5-5l.5 6c5.454 0 5.347 5.194 8 10.5.515 1.031 5.072 5.214 2.5 6.5l-4.5-1c0 6.054 23.607 15.715 26 20.5.623 1.246-4.398 3.051-5.5 2.5l-9-8c-3.898-1.949-10.178.911-14-1l-3.5-3c0 1.079 5.147 10 0 10m-20-4-7 8.5c3.106 6.213 30.92-9.5 12.5-9.5l-5.5 1Z"/><path fill="#C8CACA" id="sptV" d="M145 274c-1.408 0-5-2.356-5 1-4.52 0-7.41-10-11-10v-1c0-1.238-.423-3-2-3v-1c0-5.217-3-9.978-3-16v-8l1-2v-5l1-2 1-1v-1l1-2 1-2 5-4c4.718 0 8.16-6 13-6 0 2.192-9.058 10-11 10l-1 1-1 1-1 1-2 4-1 1v1l-1 1-1 11c-1.566 0-1.566 5 0 5v2l1 1v3l1 1v1l1 1v2l1 1v1l1 1v1c0 1.238.423 3 2 3l2 2 2 2h3c0 1.353 3 2.158 3 5Z"/><path fill="#FF9BCD" id="MY" d="M216 213c-1.145 0-4-.579-4 1 1.145 0 4 .579 4-1Z"/><path fill="#FEB1D7" id="XII" d="M211 228c2.77 0 6.444 5 10 5 0-1.904 5.844-.189 7-2.5 2.792-5.584-3.108-17.5-9-17.5h-3c0 1.579-2.855 1-4 1l-3 2.5c-1.973 3.945 2 8.292 2 11.5Z"/><path fill="#FEB1D7" id="XII" d="M245 229c-2.675 0-6.305 4-10 4 0-2.455-5.142.216-6-1.5-2.864-5.727 1.827-18.5 8-18.5h3c0 1.579 2.855 1 4 1h1c0 .86 3.798 6.905 2 10.5l-2 4.5Z"/><path fill="#FF9BCD" id="MY" d="M240 213c1.145 0 4-.579 4 1-1.145 0-4 .579-4-1ZM211 228v1c-3.997 0-4.831-10-10-10 0-1.947 3-2.636 3-5h8l-3 2.5c-1.973 3.945 2 8.292 2 11.5ZM245 229h1c0-1.833 6.625-10 8.5-10l3.5 2v-1c-1.442 0-6-3.274-6-5l-7-1c0 .86 3.798 6.905 2 10.5l-2 4.5ZM184 220l-4 3v-4l4 1Z"/><path fill="#FCB3D9" id="PARN" d="M164 271c-2.157 0-9 .46-9 3-3.512 0-6-1.258-6-5 7.93 0 6.97-21.439 10-27.5 3.292-6.584 21-12.223 21-18.5l4-3h15v1l-1 1-7 9.5c-4.612 9.224-11.369 17.738-16 27L164 271Z"/><path fill="#FF9BCD" id="MY" d="m201 219-1 1 1-1Z"/><path fill="#FFB2D8" id="IRN" fill-rule="evenodd" d="m190 267-13.5 10c-5.113 2.557-8.284-6-12.5-6l11-12.5c4.631-9.262 11.388-17.776 16-27l7-9.5 1-1 1-1 1-1c5.169 0 6.003 10 10 10 0 2.124 1 4.436 1 6l-1 2-5 6.5c-3.943 3.943-6.623 10.245-9 15l-7 8.5m-12-2c3.579 0 4.254 6 1 6 0 2.694-13.294 2.794-5.5-5l3.5-1h1ZM267 267l12.5 10c5.672 2.836 8.128-6 12.5-6 0-4.334-7.716-7.932-9-10.5l-18-29c-1.933-3.867-7-6.323-7-10.5l-3.5-2c-1.875 0-8.5 8.167-8.5 10l-1 5v2c0 2.896 13.85 20.201 16 24.5l6 6.5m13-2c6.123 0 6.111 5.695 1.5 8-3.858 1.929-8.904-7-4.5-7l2-1h1Z"/><path fill="#FCB3D9" id="PARN" d="M292 271c4.208 0 8.137 3 10 3 2.666 0 6-2.104 6-5-8.538 0-7.823-22.145-11-28.5-3.585-7.17-21-9.391-21-18.5l-4-2h-14v1c0 4.177 5.067 6.633 7 10.5l18 29c1.284 2.568 9 6.166 9 10.5Z"/><path fill="#FF9BCD" id="MY" d="m200 220-1 1v-1h1ZM276 220v2l-4-2h4ZM129 221l-1 2 1-2ZM136 221l-1 1 1-1ZM199 221l-1 1 1-1ZM321 222l1 1-1-1ZM128 223l-1 2 1-2ZM134 223l-1 1 1-1ZM323 224l2 2-2-2ZM329 225l1 1-1-1ZM127 226l-1 1 1-1ZM126 227l-1 2 1-2ZM325 227l1 1-1-1ZM332 237h1c0-2.155-.525-10-3-10 0 3.395 2 6.106 2 10ZM131 228l-1 1 1-1Z"/><path fill="#FFB1D9" id="NR" d="m214 236 5 1 2-4c-3.556 0-7.23-5-10-5v1c0 2.124 1 4.436 1 6l2 1ZM243 236l-6 1-2-4c3.695 0 7.325-4 10-4h1l-1 5-2 2Z"/><path fill="#FF9BCD" id="MY" d="m326 229 1 1-1-1ZM130 230l-1 1 1-1ZM124 234h1v-3c-1.473 0-1 1.952-1 3ZM327 233l1 1-1-1Z"/><path fill="#C9C9C8" id="icp" d="M124 235v1l1-2h-1v1Z"/><path fill="#FF9BCD" id="MY" d="M243 236h2v-2l-2 2ZM123 241h1v-6c-1.684 0-1 4.679-1 6ZM214 236l-3 1 1-2 2 1Z"/><path fill="#FFB1D6" id="MDRNv" d="M190 267c7.163 0 6 3.535 6 9 13.436 0 19.493-17.485 24-26.5 1.253-2.506 4.708-12.5-1-12.5l-5-1-3 1-5 6.5c-3.943 3.943-6.623 10.245-9 15l-7 8.5Z"/><path fill="#CBCBCC" id="mlf" d="M229 236v7.5c0 10.307 5.115-7.5 0-7.5Z"/><path fill="#FFB1D6" id="MDRNv" d="M267 267c-7.838 0-6 3.591-6 9-12.109 0-19.581-14.661-24-23.5-1.423-2.846-5.162-15.5 0-15.5l6-1h2c0 2.896 13.85 20.201 16 24.5l6 6.5Z"/><path fill="#CBCBCC" id="mlf" d="M226 237c0 1.96-1.347 10 .5 10 .578 0 1.375-10-.5-10Z"/><path fill="#C9C9C8" id="icp" d="M333 237v3c-1.473 0-1-1.952-1-3h1ZM123 244h1v-3h-1v3Z"/><path fill="#FF9BCD" id="MY" d="M128 242c-1.566 0-1.566 5 0 5v-5ZM124 244c0 6.022 3 10.783 3 16-2.539 0-4-13.054-4-16h1Z"/><path fill="#C9C9C8" id="icp" d="M332 248h1v-3c-1.473 0-1 1.952-1 3Z"/><path fill="#FF9BCD" id="MY" d="m329 248-1 1 1-1ZM333 248c0 1.775-.069 8-2 8l1-8h1ZM128 249l1 1-1-1Z"/><path fill="#FEC6E2" id="RO" d="M228 265h1v-9l-.5-6c-1.53 0 .779 5-1.5 5v8l1 2Z"/><path fill="#FF9BCD" id="MY" d="m328 251-1 1 1-1ZM129 253l1 1-1-1ZM327 254l-1 1 1-1ZM130 255l1 1-1-1Z"/><path fill="#C8C8CC" id="tspc" d="M227 263c-4.504 0-3.798 10-7 10-7.636 0 1.61-9.72 3-12.5v-4c.85-1.7 2.422-1.5 4-1.5v8ZM230 263c1.681 0 5 7.278 5 9l4.5 1c2.572-1.286-1.985-5.469-2.5-6.5-2.653-5.306-2.546-10.5-8-10.5v6l1 1Z"/><path fill="#FF9BCD" id="MY" d="m326 256-1 1 1-1ZM331 257l-1 2 1-2ZM131 258l1 1-1-1ZM325 259l-1 1 1-1ZM330 259l-1 2 1-2ZM132 260l1 1-1-1ZM127 261c1.577 0 2 1.762 2 3-1.577 0-2-1.762-2-3ZM324 261l-1 1 1-1ZM329 261l-1 2 1-2ZM133 262l2 3c-1.577 0-2-1.762-2-3ZM229 263h1l-1-1v1Z"/><path fill="#FFB3D8" id="IO" d="M226 285c-2.485 0-17 .734-17 4-3.138 0-5.817 4.659-8.5 6-1.102.551-6.123-1.254-5.5-2.5 1.743-3.486 25-14.458 25-19.5 3.202 0 2.496-10 7-10l1 2v12l-1 6-1 2ZM229 277v6l3.5 3c3.822 1.911 10.102-.949 14 1l9 8c1.102.551 6.123-1.254 5.5-2.5-2.393-4.785-26-14.446-26-20.5 0-1.722-3.319-9-5-9h-1v14Z"/><path fill="#FF9BCD" id="MY" d="m323 263-1 1 1-1ZM328 263l-1 2 1-2ZM159 287c0 4.817 9 4.872 9 8-8.328 0-24.842-14.342-30-19.5-2.286-2.286-9-7.372-9-10.5 3.59 0 6.48 10 11 10l11.5 11c6.526 3.263 1.823-4.177-.5-6.5l-6-5.5c0-2.842-3-3.647-3-5h7c0 3.742 2.488 5 6 5 0 5.905 3 7.634 3 9-4.316 0 1 2.189 1 4ZM177 265l-3.5 1c-7.794 7.794 5.5 7.694 5.5 5-1.846 0-6.66-.181-5-3.5l3-2.5Z"/><path fill="#FEB3D8" id="AMBv" d="M178 265c0 .831 1 2.865 1 6-1.846 0-6.66-.181-5-3.5l3-2.5h1Z"/><path fill="#FF9BCD" id="MY" d="M178 265c3.579 0 4.254 6 1 6 0-3.135-1-5.169-1-6ZM228 277h1v-12h-1v12ZM279 265l-2 1 2-1Z"/><path fill="#FEB3D8" id="AMBv" d="m280 265 3 4.5c-2.475 4.95-6-.454-6-3.5l2-1h1Z"/><path fill="#FF9BCD" id="MY" d="M280 265c6.123 0 6.111 5.695 1.5 8-3.858 1.929-8.904-7-4.5-7 0 3.046 3.525 8.45 6 3.5l-3-4.5ZM327 265l-1 2 1-2ZM137 267l2 2-2-2Z"/><path fill="#FCB3D7" id="LRNm" d="M160 284c1.738 0 8 3.015 8 5 5.552 0 9.188 6.156 15.5 3 3.742-1.871 10.152-16 12.5-16 0-5.465 1.163-9-6-9l-13.5 10c-5.113 2.557-8.284-6-12.5-6-2.157 0-9 .46-9 3 0 5.905 3 7.634 3 9h1l1 1ZM296 284c-2.421 0-7 2.642-7 5-10.534 0-13.147 12.206-22-5.5-.87-1.74-6-4.66-6-7.5 0-5.409-1.838-9 6-9l12.5 10c5.672 2.836 8.128-6 12.5-6 4.208 0 8.137 3 10 3 0 4.831-4 7.867-4 9h-1l-1 1Z"/><path fill="#FF9BCD" id="MY" d="m326 267-1 1 1-1ZM318 268l-1 1 1-1ZM325 268l-1 1 1-1ZM298 283c1.048 0 3-.473 3 1 2.922 0 5.886-9 10-9 0-3.242 4-4.968 4-6h-7c0 2.896-3.334 5-6 5 0 4.831-4 7.867-4 9ZM324 269l-1 1 1-1ZM316 275c0 2.734-5 2.909-5 6 2.772 0 12-8.239 12-11l-7 5Z"/><path fill="#C9CACA" id="sctd" d="M145 274c-1.408 0-5-2.356-5 1l11.5 11c6.526 3.263 1.823-4.177-.5-6.5l-6-5.5ZM303 287h1l1-1 1-1c0-1.811 3.438-4 5-4 0-3.091 5-3.266 5-6 0-4.729-3.431 0-5 0-4.114 0-7.078 9-10 9 0 2.003-.293 3 2 3Z"/><path fill="#FFC6E2" id="RPA" d="M228 293h1c5.147 0 0-8.921 0-10v-6h-1l-1 6-1 2c0 1.827-2.843 8 2 8Z"/><path fill="#FF9BCD" id="MY" d="M311 281c-1.562 0-5 2.189-5 4 1.562 0 5-2.189 5-4Z"/><path fill="#C8C8CB" id="rust" d="M164 289h4c0-1.985-6.262-5-8-5l-1-1h-1c-4.316 0 1 2.189 1 4l5 2Z"/><path fill="#FF9BCD" id="MY" d="m159 283 1 1-1-1ZM227 283l-1 2 1-2ZM297 283l-1 1 1-1Z"/><path fill="#C8C8CB" id="rust" d="M289 289h3c2.25 0 3.376-2 5-2 1.457 0 1.46-3 4-3 0-1.473-1.952-1-3-1h-1l-1 1c-2.421 0-7 2.642-7 5Z"/><path fill="#FF9BCD" id="MY" d="M303 287c0 3.197-12.268 8-15 8 0-2.245 9-2.735 9-8 1.457 0 1.46-3 4-3 0 2.003-.293 3 2 3ZM306 285l-1 1 1-1ZM305 286l-1 1 1-1Z"/><path fill="#CBC7CC" id="sctv" d="M168 295h1l3.5 1c1.831.915 3.252-.874 1-2-1.659-.83-9.5-2.926-9.5-5l-5-2c0 4.817 9 4.872 9 8ZM288 295c-1.048 0-3-.473-3 1-10.243 0 7-4.15 7-7 2.25 0 3.376-2 5-2 0 5.265-9 5.755-9 8Z"/><path fill="#C7C9C9" id="py" d="m209 289-7 8.5c3.106 6.213 30.92-9.5 12.5-9.5l-5.5 1ZM238 288l-2 2.5c-2.016 4.032 7.623 6.561 9.5 7.5 1.269.634 9.5.426 9.5-1.5 0-3.77-12.428-8.5-17-8.5Z"/><path fill="#FF9BCD" id="MY" d="M288 295c-1.048 0-3-.473-3 1 1.048 0 3 .473 3-1Z"/></svg>