<svg xmlns="http://www.w3.org/2000/svg" viewBox="0 0 456 320"><path fill="#1BA696" id="RSPagl1" d="m190 15-16 1-1-4c0-1.804 14.759-1 17-1v4Z"/><path fill="#1BA598" id="RSPd1" d="M214 28h1l2-2c0-12.295-16.471-15-27-15v4c8.632 0 24 1.6 24 13ZM239 26l3 2c0-11.096 15.492-13 24-13v-4c-9.204 0-27 2.982-27 15Z"/><path fill="#1BA696" id="RSPagl1" d="m266 15 16 1 1-4c0-1.804-14.759-1-17-1v4Z"/><path fill="#0A8589" id="VISpm1" d="M158 19h1c4.55 0 9.615-2 15-2v-1l-1-4c-3.596 0-13.917 3-16 3l1 4ZM298 19h1v-4c0-1.907-14.051-3-16-3l-1 4v1c5.711 0 11.057 2 16 2Z"/><path fill="#098589" id="VISp1" d="M86 52h1c0-2.226 13.318-9.91 15.5-11 14.691-7.346 38.725-22 55.5-22l-1-4c-16.335 0-43.088 14.794-57.5 22C97.222 38.14 83 46.636 83 49c1.54 0 3 1.342 3 3Z"/><path fill="#1AA496" id="RSPagl2/3" d="M174 23v1c4.682 0 9.74-4 15-4h1v-5l-16 1v7Z"/><path fill="#1BA697" id="RSPd2/3" d="m214 28-5 2c0-7.888-12.741-10-19-10v-5c8.632 0 24 1.6 24 13ZM242 28l5 1 5.5-6c4.688-2.344 8.756-3 14.5-3l-1-5c-8.508 0-24 1.904-24 13Z"/><path fill="#1AA496" id="RSPagl2/3" d="m267 20 15 3v-7l-16-1 1 5Z"/><path fill="#098589" id="VISp1" d="m373 49-3 2c-4.488 0-11.047-7.773-15.5-10-13.062-6.531-41.187-22-55.5-22v-4c18.319 0 41.725 14.112 57.5 22 3.528 1.764 16.5 7.493 16.5 12Z"/><path fill="#08858B" id="VISpm2/3" d="M174 23c-4.803 0-8.547 4-13 4 0-2.338-2-4.862-2-8 4.55 0 9.615-2 15-2v6ZM282 23l14 4 2-8c-4.943 0-10.289-2-16-2v6Z"/><path fill="#0A828C" id="VISp2/3" d="M90 59h1c0-1.33 13.492-7.996 15.5-9 9.736-4.868 45.405-23 54.5-23 0-2.338-2-4.862-2-8h-1c-16.775 0-40.809 14.654-55.5 22-2.182 1.09-15.5 8.774-15.5 11 0 3.264 3 4.067 3 7ZM370 52l-4 7-16.5-10c-8.52-4.26-17.384-7.692-26-12-2.329-1.165-5.706-.853-8-2-4.241-2.12-15.045-8-19.5-8l2-8h1c14.313 0 42.438 15.469 55.5 22 4.453 2.227 11.012 10 15.5 10v1Z"/><path fill="#1CA697" id="RSPagl5" d="M184 31h1l1-1c0-3.372 3-6.053 3-10-5.26 0-10.318 4-15 4v1l-2 10 12-4Z"/><path fill="#1AA596" id="RSPd5" d="m209 31-14 4c0-6.15-3.906-5-9-5 0-3.372 3-6.053 3-10h1c6.259 0 19 2.112 19 10v1ZM271 30c-6.283 0-9-1.53-9 5-5.652 0-10.252-5-15-5v-1l5.5-6c4.688-2.344 8.756-3 14.5-3 0 3.804 4 6.885 4 10Z"/><path fill="#1CA697" id="RSPagl5" d="m272 31 12 4c0-3.186-2-7.891-2-11v-1l-15-3c0 3.804 4 6.885 4 10l1 1Z"/><path fill="#09828B" id="VISpm4" d="M161 30h1c0-1.977 9.992-5 12-5v-2c-4.803 0-8.547 4-13 4v3ZM296 27l-1 2c-4.607 0-8.838-5-13-5v-1l14 4Z"/><path fill="#088489" id="VISpm5" d="m285 36 8 3c0-3.68 2-5.511 2-9v-1c-4.607 0-8.838-5-13-5 0 3.109 2 7.814 2 11l1 1ZM171 36l-7 3-2-9c0-1.977 9.992-5 12-5l-2 10-1 1Z"/><path fill="#1BA597" id="RSPv1" d="m169 67 2 3c2.909 0 4.795-5 8-5 0-5.812 27.134-13.817 31.5-16 5.375-2.687 7.5-10.811 7.5-16 0-1.176 1.658-7-1-7l-2 2c0 17.33-15.411 18.955-27.5 25l-5 4c-3.223 1.612-13.5 5.72-13.5 10ZM288 67c-1.481 0-.785 2-3 2-4.984 0-10.142-7.821-14.5-10-21.496-10.748-31.5-5.36-31.5-33l3 2c0 3.46-.437 7.627 1 10.5 3.249 6.498 23.111 14.306 29.5 17.5 2.703 1.351 15.5 8.519 15.5 11Z"/><path fill="#0B848B" id="VISp4" d="M91 59c0 2.364 3 3.053 3 5l13.5-8c12.925-6.463 26.015-12.508 39-19 1.771-.885 14.5-6.28 14.5-7v-3c-9.095 0-44.764 18.132-54.5 23-2.008 1.004-15.5 7.67-15.5 9ZM366 59c0 1.947-3 2.636-3 5-4.729 0-11.267-6.884-15.5-9-12.735-6.367-26.235-11.617-39-18L295 30v-1l1-2c4.455 0 15.259 5.88 19.5 8 2.294 1.147 5.671.835 8 2 8.616 4.308 17.48 7.74 26 12L366 59Z"/><path fill="#1AA597" id="RSPv2/3" d="m165 65 4 2c0-4.28 10.277-8.388 13.5-10l5-4c12.089-6.045 27.5-7.67 27.5-25h-1l-5 2v6.5c-2.34 4.68-26.981 16.74-32.5 19.5-2.037 1.019-11.5 6.467-11.5 9ZM291 65l-3 2c0-2.481-12.797-9.649-15.5-11-6.389-3.194-26.251-11.002-29.5-17.5-1.437-2.873-1-7.04-1-10.5l5 1v1c0 12.562 12.314 14.407 21.5 19l9 6c2.477 1.239 13.5 6.36 13.5 10Z"/><path fill="#088389" id="VISp5" d="m94 64 5 8c3.221 0 12.127-7.314 15.5-9 11.497-5.749 23.465-11.233 35-17l14.5-7-2-9h-1c0 .72-12.729 6.115-14.5 7-12.985 6.492-26.075 12.537-39 19L94 64Z"/><path fill="#1AA596" id="RSPd5" d="m186 30-1 1 1-1Z"/><path fill="#1AA697" id="RSPd6a" d="M169 46h1c4.092 0 15.633-10 23-10l2-1c0-6.15-3.906-5-9-5l-1 1h-1c0 7.14-15 8.704-15 15Z"/><path fill="#1BA498" id="RSPv5" d="m295 61-4 4c0-3.64-11.023-8.761-13.5-10l-9-6c-9.186-4.593-21.5-6.438-21.5-19 4.748 0 9.348 5 15 5l6.5 6 18 12 8.5 8Z"/><path fill="#1AA697" id="RSPd6a" d="M286 46h2c0-3.677-16-9.926-16-15l-1-1c-6.283 0-9-1.53-9 5 6.37 0 20.48 11 24 11Z"/><path fill="#088389" id="VISp5" d="M363 65c-3.321 0-3.289 7-6 7l-13.5-8c-11.538-5.769-23.472-11.236-35-17-4.577-2.289-10.156-7-15.5-7v-1c0-3.68 2-5.511 2-9l13.5 7c12.765 6.383 26.265 11.633 39 18 4.233 2.116 10.771 9 15.5 9v1Z"/><path fill="#1CA597" id="RSPagl6a" d="M168 46h1c0-6.296 15-7.86 15-15l-12 4-1 1c0 3.974-4 6.315-4 10h1Z"/><path fill="#1BA498" id="RSPv5" d="m162 61 3 4c0-2.533 9.463-7.981 11.5-9 5.519-2.76 30.16-14.82 32.5-19.5V31l-14 4-2 1c0 2.709-21.092 14.592-24 17.5l-7 7.5Z"/><path fill="#1CA597" id="RSPagl6a" d="M288 46h1c0-3.974-4-6.315-4-10l-1-1-12-4c0 5.074 16 11.323 16 15Z"/><path fill="#1CA697" id="RSPagl5" d="m172 35-1 1 1-1Z"/><path fill="#1AA498" id="RSPv6a" d="M295 59v2l-8.5-8-18-12-6.5-6c6.37 0 20.48 11 24 11l1 1c0 2.247 5.855 12 8 12Z"/><path fill="#09858B" id="VISpm6a" d="M165 46h2c0-3.685 4-6.026 4-10l-7 3 1 7Z"/><path fill="#1AA498" id="RSPv6a" d="M161 61h1l7-7.5c2.908-2.908 24-14.791 24-17.5-7.367 0-18.908 10-23 10l-1 1c0 2.302-4.487 11-7 11l-1 3Z"/><path fill="#09858B" id="VISpm6a" d="M290 46h2c0-1.32-.684-6 1-6v-1l-8-3c0 3.685 4 6.026 4 10h1Z"/><path fill="#08858C" id="VISp6a" d="M102 79h1c0-2.656 6.544-4.043 8-5.5L141 59c0-2.109 2.535-2 4-2 0-1.263 17.402-11 20-11l-1-7-14.5 7c-11.535 5.767-23.503 11.251-35 17-3.373 1.686-12.279 9-15.5 9v1l3 6ZM357 73l-3 5c-4.268 0-8.801-5.15-12.5-7-11.518-5.759-23.43-11.215-35-17-4.293-2.147-9.55-8-14.5-8 0-1.32-.684-6 1-6 5.344 0 10.923 4.711 15.5 7 11.528 5.764 23.462 11.231 35 17l13.5 8v1Z"/><path fill="#08858A" id="VISp6b" d="m149 56-4 1c0-1.263 17.402-11 20-11v1l-4 2c-1.529 0-12 6.047-12 7Z"/><path fill="#088589" id="VISpm6b" d="M165 47h2v-1h-2v1Z"/><path fill="#1AA598" id="RSPagl6b" d="M167 47h1v-1h-1v1Z"/><path fill="#1BA698" id="RSPd6b" d="M168 47h1l1-1h-2v1ZM287 47h1v-1h-2l1 1Z"/><path fill="#1AA598" id="RSPagl6b" d="M288 47h2v-1h-2v1Z"/><path fill="#088589" id="VISpm6b" d="M290 47h2v-1h-2v1Z"/><path fill="#08858A" id="VISp6b" d="M353 79h1v-1c-4.268 0-8.801-5.15-12.5-7-11.518-5.759-23.43-11.215-35-17-4.293-2.147-9.55-8-14.5-8v1l3 2c1.911 0 13 5.828 13 7 7.659 0 37.078 23 45 23Z"/><path fill="#CACCC7" id="cing" d="M162 51c2.322 0 0 5.704 0 7 2.513 0 7-8.698 7-11h-4l-4 2 1 2ZM295 51c-2.461 0 0 6.743 0 8-2.145 0-8-9.753-8-12h5l3 2v2Z"/><path fill="#09848A" id="VISl1" d="M67 69h1c0-1.739 17.188-17 18-17 0-1.658-1.46-3-3-3-2.376 0-18 14.326-18 17l2 3Z"/><path fill="#C9C9CA" id="scwm" d="m149 56 2 1c3.364 0 7.226-6 11-6l-1-2c-1.529 0-12 6.047-12 7ZM308 56l-2 1-11-6v-2c1.911 0 13 5.828 13 7Z"/><path fill="#09848A" id="VISl1" d="m392 66-3 3-4-4.5c-2.524-2.524-13.025-12.5-15-12.5v-1l3-2c1.865 0 19 15.104 19 17Z"/><path fill="#FF7AFD" id="SCzo" d="m291 83 2 1-2-4v-1l-2-2v-1l-2-2-1-1-7.5-7c-10.965-5.483-22.125-10.562-33-16-4.627-2.313-13.522 3.544-15.5 7.5l-1.5 5.5-1.5-4.5c-1.811-3.621-10.516-10.992-15.5-8.5-3.987 1.993-30.322 15-32.5 15 0 1.782-6.482 7-8 7l-1 1-1 1-1 2v1l11.5-10c16.951-8.476 46.5-29.969 46.5 6 .666 0 4 2.56 4 0 0-36.085 28.92-14.29 45.5-6 5.106 2.553 15.5 9.608 15.5 16Z"/><path fill="#C8C9CA" id="fp" d="M67 125h1l1-2 1-1 1-1v-1l1-1 1-1v-1l1-1 1-1 1-2 1-1 1-1 1-1v-1l2-2 1-1 1-1 1-1 1-1 1-1 1-1 2-2 2-1 1-1 1-1 1-1c0-1.577 1.762-2 3-2l1-1 1-1 2-1 1-1c0-1.577 1.762-2 3-2l2-1 2-1 2-1 1-1h1l2-1 2-1c0-2.273 5.226-2 7-2l-1-1.5c0-2.235 6.256-3.878 7.5-4.5 4.032-2.016 17.692-13.154 22-11 3.1 1.55.5 6.688.5 9 4.45 0 4.116-10 8-10l1-3c0-1.296 2.322-7 0-7-3.774 0-7.636 6-11 6 0 2.683-7.664 5.082-9.5 6-10.427 5.213-20.616 10.808-31 16-5.226 2.613-23.322 14.145-25.5 18.5-.992 1.984-7.585 11.5-10 11.5l-8 16ZM394 137h1c0-6.368-5.331-11.163-8-16.5-10.713-21.426-29.239-35.87-50.5-46.5l-24-12c-1.433-1.433-6.5-2.293-6.5-5l-11-6c-2.461 0 0 6.743 0 8v2c4.193 0 3.457 9 8 9v-7.5c.889-1.779 4.625.063 5.5.5 5.804 2.902 11.085 7.043 17 10 3.275 1.638 7.5 1.261 7.5 6 2.822 0 14 2.634 14 6h1c2.606 0 11 5.678 11 8h1c1.93 0 19 16.978 19 18v1c2.81 0 10 11.706 10 14v1l2 3v1l2 4v2h1Z"/><path fill="#0A8489" id="VISl2/3" d="M72 75h1c0-2.781 9.225-10.363 12.5-12l4.5-4c0-2.933-3-3.736-3-7h-1c-.812 0-18 15.261-18 17 0 2.773 4 3.67 4 6ZM389 70l-5 4-18-15 4-7c1.975 0 12.476 9.976 15 12.5l4 4.5v1Z"/><path fill="#FF78FF" id="SCsg" d="m167 78-2 5c5.155 0 11.014-5.757 15.5-8 10.406-5.203 22.662-6.831 33-12 6.994-3.497 8.908 10 12.5 10 0-35.969-29.549-14.476-46.5-6L168 77l-1 1ZM230 73c4.187 0 5.998-13.75 13.5-10 10.093 5.046 21.84 6.92 32 12 4.234 2.117 10.689 8 15.5 8 0-6.392-10.394-13.447-15.5-16-16.58-8.29-45.5-30.085-45.5 6Z"/><path fill="#CBC9C7" id="or" d="m74 107 1 2c2.415 0 9.008-9.516 10-11.5 2.178-4.355 20.274-15.887 25.5-18.5 10.384-5.192 20.573-10.787 31-16 1.836-.918 9.5-3.317 9.5-6l-2-1-4 1-4 2c0 2.646-6.42 3.92-8 5.5-1.654 1.654-27.979 14.5-30 14.5 0 2.64-9.805 8.653-12.5 10L87 92l-7 7-6 8ZM400 148v3c0 1.867-.974 2.552-2 .5-.995-1.99-.515-14.5-3-14.5 0-6.368-5.331-11.163-8-16.5-10.713-21.426-29.239-35.87-50.5-46.5l-24-12c-1.433-1.433-6.5-2.293-6.5-5l2-1c7.659 0 37.078 23 45 23l3.5 3c2.149 2.149 9.475 9 12.5 9 0 2.09 5.91 8 8 8 0 3.331 5 4.796 5 8 0 4.283 6 7.064 6 11l1 1v1l2 2v1l1 1v1l1 1v1l1 1v1l1 2v1l1 1v1l1 1c0 1.465-.109 4 2 4l1 9Z"/><path fill="#08858A" id="VISp6b" d="M145 57c-1.465 0-4-.109-4 2l4-2Z"/><path fill="#08828B" id="VISl4" d="M75 78h1c0-1.433 16.364-14 18-14 0-1.947-3-2.636-3-5h-1l-4.5 4C82.225 64.637 73 72.219 73 75l2 3Z"/><path fill="#08858A" id="VISp6b" d="m141 59-30 14.5c-1.456 1.457-8 2.844-8 5.5 2.021 0 28.346-12.846 30-14.5 1.58-1.58 8-2.854 8-5.5Z"/><path fill="#08828B" id="VISl4" d="m384 75-3 3c0-1.227-15.941-13-18-13v-1c0-2.364 3-3.053 3-5l18 15v1Z"/><path fill="#47C83C" id="POST" d="m143 105-2 1c-1.564 0-3.876-1-6-1 0-.089 10-16.038 10-23l2-3 1-1 1-1 2-3 1-1 1-1v-1c4.45 0 4.116-10 8-10h1l3 4 4 2 2 3v2l-1 1-1 1-1 2-1 1-1 1-2 4-1 2c-1.617 0-4 4.583-4 6l-1 1-1 1-1 1-1 1v1h-1l-1 1v1l-1 1-1 1c-3.414 0-4.207 6-8 6ZM321 105l-6 1-2-1-12-11-1-1-1-1v-1c0-1.313-6.968-11-8-11v-1l-2-2v-1l-2-2-1-1-1-4c2.215 0 1.519-2 3-2l3-2 4-4c4.193 0 3.457 9 8 9v1l1 1 2 3 1 1 3 3 2 3c0 8.928 9 22.221 9 23Z"/><path fill="#C9CCC9" id="dhc" d="m135 80 8 1 4-2 1-1 1-1 2-3 1-1 1-1v-1c0-2.312 2.6-7.45-.5-9-4.308-2.154-17.968 8.984-22 11-1.244.622-7.5 2.265-7.5 4.5l1 1.5c.986 0 6-2.515 6 0h1c1.145 0 4-.58 4 1ZM321 80l-7 1-4-2-3-3-1-1-2-3-1-1v-8.5c.889-1.779 4.625.063 5.5.5 5.804 2.902 11.085 7.043 17 10 3.275 1.638 7.5 1.261 7.5 6-.969 0-7-2.614-7 0h-1c-1.145 0-4-.58-4 1Z"/><path fill="#FD7AFF" id="SCop" d="M163 88c5.349 0 12.759-6.63 17.5-9l29-10c6.463-3.231 11.445 7.723 16 10l2-2 4 2 11-10c2.755-1.378 9.759 1.88 12 3 8.046 4.023 17.909 4.955 26 9 3.699 1.85 8.232 7 12.5 7v-4l-2-1c-4.811 0-11.266-5.883-15.5-8-10.16-5.08-21.907-6.954-32-12-7.502-3.75-9.313 10-13.5 10 0 2.56-3.334 0-4 0-3.592 0-5.506-13.497-12.5-10-10.338 5.169-22.594 6.797-33 12-4.486 2.243-10.345 8-15.5 8l-1 1h-1v4Z"/><path fill="#0B858B" id="VISl5" d="m76 78 6 7c5.961 0 10.448-12 17-12v-1l-5-8c-1.636 0-18 12.567-18 14ZM374 86h1c0-2.27 4.119-7 6-7v-1c0-1.227-15.941-13-18-13-3.321 0-3.289 7-6 7v1c1.964 0 17 10.997 17 13Z"/><path fill="#0C858C" id="VISli1" d="M59 79h1l7-10-2-3-9 9c.966 0 3 2.886 3 4ZM400 75l-3 3-8-8v-1l3-3 8 9Z"/><path fill="#0A858A" id="VISli2/3" d="M60 79c1.907 0 2.382 4 5 4l7-8c0-2.33-4-3.227-4-6h-1l-7 10Z"/><path fill="#FF90FF" id="SCig" d="m157 129-1-11.5c10.044-20.088 33.315-27.408 51.5-36.5 4.555-2.278 14.889 8 21 8 6.699 0 14.315-11.343 21-8 19.401 9.7 40.872 17.244 51.5 38.5l-1 9.5c0 2.082 5.561.47 6.5 0l1.5-3 1-2v-11c0-4.35-11.467-24-15-24l-1-1c-4.268 0-8.801-5.15-12.5-7-8.091-4.045-17.954-4.977-26-9-2.241-1.12-9.245-4.378-12-3l-11 10-4-2-2 2c-4.555-2.277-9.537-13.231-16-10l-29 10c-4.741 2.37-12.151 9-17.5 9l-1 1h-1c0 1.747-.253 2-2 2l-1 2-1 1-1 1-1 1c0 1.238-.423 3-2 3 0 1.238-.423 3-2 3 0 1.238-.423 3-2 3l-2 10v8l1 2 1 2c0 3.862 6.653 2 8 2Z"/><path fill="#0A858A" id="VISli2/3" d="M391 84h1l5-5v-1l-8-8-5 4v1c1.157 0 7 7.065 7 9Z"/><path fill="#7DCD4B" id="HPF" d="m303 71 1 1-1-1ZM153 72l-1 1 1-1Z"/><path fill="#08848C" id="VISl6a" d="M86 91h1c0-1.06 13.932-12 15-12l-3-6c-6.552 0-11.039 12-17 12v1l4 5Z"/><path fill="#7DCD4B" id="HPF" d="m152 73-1 1 1-1Z"/><path fill="#08848C" id="VISl6a" d="M369 91h2c0-2.364 3-3.053 3-5 0-2.003-15.036-13-17-13l-3 5v1c2.848 0 15 9.539 15 12Z"/><path fill="#15B0B3" id="TEa1" d="M38 101c2.227 0-1.057 6 1 6 1.644 0 3.379-4.257 4-5.5 1.811-3.622 16-20.814 16-22.5 0-1.114-2.034-4-3-4 0 2.785-18 19.693-18 26Z"/><path fill="#08828C" id="VISli4" d="m65 84 2 2 8-8-2-3h-1l-7 8v1Z"/><path fill="#7DCD4B" id="HPF" d="m306 75 1 1-1-1Z"/><path fill="#08828C" id="VISli4" d="m391 84-2 2c-3.317 0-3.716-7-8-7v-1l3-3c1.157 0 7 7.065 7 9Z"/><path fill="#15B0B3" id="TEa1" d="M419 101c-3.744 0 1.673 7-2 7 0-5.55-11.674-17.848-14-22.5-.718-1.436-6-4.07-6-6.5v-1l3-3 5 5.5c2.475 2.475 14 17.857 14 20.5Z"/><path fill="#7DCD4B" id="HPF" d="m149 77-1 1 1-1Z"/><path fill="#FF7AFD" id="SCzo" d="m168 77-1 1v-1h1Z"/><path fill="#0A848A" id="VISli5" d="M74 95h1c0-1.662 5.18-9 7-9v-1l-6-7h-1l-8 8v1c2.223 0 7 6.745 7 8Z"/><path fill="#C7C8CC" id="alv" d="m130 79-13 2c0-2.273 5.226-2 7-2 .986 0 6-2.515 6 0Z"/><path fill="#7DCD4B" id="HPF" d="m148 78-1 1 1-1Z"/><path fill="#FF7AFD" id="SCzo" d="m165 83-1 1v-2l2-4h1l-2 5Z"/><path fill="#C7C8CC" id="alv" d="m339 82 8 3c0-3.366-11.178-6-14-6-.969 0-7-2.614-7 0 1.663 0 13 1.64 13 3Z"/><path fill="#16AFB3" id="TEa2/3" d="m37 149-8 1c0-10.821 4-20.227 4-29 2.294 0 2-.997 2-3v-2l1-1v-1l1-1v-1l1-1 1-2v-2c1.644 0 3.379-4.257 4-5.5 1.811-3.622 16-20.814 16-22.5h1c1.907 0 2.382 4 5 4v1c-1.153 0-11.795 14.09-13 16.5l-9 13c-2.74 5.479-4.29 11.578-7 17-2.323 4.646 1 14.174 1 18.5Z"/><path fill="#09858C" id="VISl6b" d="M87 91v1l3.5-3c2.695-1.347 12.5-7.36 12.5-10h-1c-1.068 0-15 10.94-15 12Z"/><path fill="#4FC244" id="SUB" d="M135 105c-4.168 0-7.42 3-11 3 0-7.395-7-17.81-7-26v-1l13-2h1c0 1.58 2.855 1 4 1l8 1 2 1c0 6.962-10 22.911-10 23Z"/><path fill="#C7C8CC" id="alv" d="M131 79c1.145 0 4-.58 4 1-1.145 0-4 .58-4-1Z"/><path fill="#7DCD4B" id="HPF" d="m143 81 2 1 2-3-4 2ZM314 81l-2 1-2-3 4 2Z"/><path fill="#C7C8CC" id="alv" d="M325 79c-1.145 0-4-.58-4 1 1.145 0 4 .58 4-1Z"/><path fill="#4FC244" id="SUB" d="M321 105c4.569 0 7.814 3 12 3 0-8.669 6-16.921 6-26 0-1.36-11.337-3-13-3h-1c0 1.58-2.855 1-4 1l-7 1-2 1c0 8.928 9 22.221 9 23Z"/><path fill="#09858C" id="VISl6b" d="M354 79c2.848 0 15 9.539 15 12-3.025 0-10.351-6.851-12.5-9l-3.5-3h1Z"/><path fill="#0A848A" id="VISli5" d="m389 87-7 7-7-8c0-2.27 4.119-7 6-7 4.284 0 4.683 7 8 7v1Z"/><path fill="#16AFB3" id="TEa2/3" d="m420 149 7 1v-14.5l-4-14.5c-2.109 0-2-2.535-2-4v-1l-1-2-1-1v-2l-2-2v-1c0-5.55-11.674-17.848-14-22.5-.718-1.436-6-4.07-6-6.5l-5 5 17 22.5c4.391 8.782 7.875 17.749 12 26 2.148 4.296-1 12.46-1 16.5Z"/><path fill="#C7C8CC" id="alv" d="M115 82h2v-1l-2 1Z"/><path fill="#FF90FE" id="SCiw" d="m157 129-1-11.5c10.044-20.088 33.315-27.408 51.5-36.5 4.555-2.278 14.889 8 21 8 6.699 0 14.315-11.343 21-8 19.401 9.7 40.872 17.244 51.5 38.5l-1 9.5c-2.818 0-15.22 5.64-18.5 4-1.992-.996-4.66-8-5.5-8 0-6.419-8.663-11.827-11-16.5-3.342-6.684-17.173-23.163-26.5-18.5-2.837 1.418-7.169 2-10.5 2-2.937 0-7.913-.706-10.5-2-9.9-4.95-23.16 11.82-26.5 18.5-3.075 6.149-10 9.801-10 16.5-1.731 0-4.066 6.783-6.5 8l-3.5-1c-2.684 0-14 .121-14-3Z"/><path fill="#C7C8CC" id="alv" d="m115 82-2 1 2-1Z"/><path fill="#57B947" id="ProS" d="m124 108-10 5c0-6.781-8-17.23-8-26l1-1 2-1 2-1 1-1h1l2-1h2c0 8.19 7 18.605 7 26ZM333 108l10 6c0-9.153 8-17.08 8-26l-3-3h-1l-8-3c0 9.079-6 17.331-6 26Z"/><path fill="#C7C8CC" id="alv" d="m112 83-1 1 1-1Z"/><path fill="#15B0B2" id="TEa4" d="M37 149h2c0-20.744 4.575-24.649 13-41.5L67 87v-1l-2-2c-1.153 0-11.795 14.09-13 16.5l-9 13c-2.74 5.479-4.29 11.578-7 17-2.323 4.646 1 14.174 1 18.5Z"/><path fill="#C7C8CC" id="alv" d="m111 84-2 1 2-1Z"/><path fill="#15B0B2" id="TEa4" d="M418 149h2c0-4.04 3.148-12.204 1-16.5-4.125-8.251-7.609-17.218-12-26L392 84h-1l-2 2v1l10 13.5c10.325 20.65 19 21.539 19 48.5Z"/><path fill="#C7C8CC" id="alv" d="m109 85-2 1 2-1Z"/><path fill="#FF64FF" id="MB" d="M294 88v1l-1-1v-3c1.473 0 1 1.952 1 3Z"/><path fill="#C7C8CC" id="alv" d="m351 88 8 5c0-2.322-8.394-8-11-8l3 3Z"/><path fill="#088488" id="VISli6a" d="M78 99h1l7-8-4-5c-1.82 0-7 7.338-7 9l3 4Z"/><path fill="#C7C8CC" id="alv" d="M105 87h1l1-1-2 1Z"/><path fill="#FF64FF" id="MB" d="m163 88-1 1v-1l1-2v2Z"/><path fill="#088488" id="VISli6a" d="M377 99h1l4-4v-1l-7-8h-1c0 1.947-3 2.636-3 5 0 3.701 6 4.299 6 8Z"/><path fill="#15AFB3" id="TEa5" d="M49 148c-3.51 0-7.022 1-10 1 0-20.744 4.575-24.649 13-41.5L67 87c2.223 0 7 6.745 7 8-2.076 0-8.008 10.517-9 12.5-6.895 13.789-16 23.758-16 40.5Z"/><path fill="#C7C8CC" id="alv" d="M105 87c-1.238 0-3 .423-3 2 1.238 0 3-.423 3-2Z"/><path fill="#7ECF4B" id="CA1" d="M117 213c-4.353 0-16.031 8.766-20.5 11l-5.5 3c-8.96 0-23.767-34.034-28-42.5-.938-1.877-3-12.801-3-15 0-1.278.666-5.5-1-5.5v-11c1.643 0 1-3.765 1-5 1.473 0 1-1.952 1-3v-2c1.473 0 1-1.952 1-3l1-2v-2l1-2 1-1v-2l1-2 1-1v-1l1-2 1-2 1-1 1-1v-1l1-1 1-1v-1l1-1 1-1 1-2 1-1 1-1 1-1v-1c1.747 0 2-.253 2-2l1-1 1-1 1-1 1-1 1-1 1-1c1.747 0 2-.253 2-2l2-1 1-1 1-1 1-1c1.238 0 3-.423 3-2l1-1 1-1 2-1 1-1c1.238 0 3-.423 3-2h1c0 8.77 8 19.219 8 26l-11 10.5c-7.296 14.593-14 19.607-14 38v7l4 13c2.998 5.996 7.232 10.465 10 16l14 15.5Z"/><path fill="#15AFB3" id="TEa5" d="M407 148c3.806 0 7.751 1 11 1 0-26.961-8.675-27.85-19-48.5L389 87l-7 7v1c2.093 0 7.804 9.109 9 11.5 7.462 14.923 16 23.016 16 41.5Z"/><path fill="#C7CBCB" id="bsc" d="M161 89h1v-1l-1 1ZM309 124h1l1-2v-10l-1-2v-1l-1-1v-1l-2-4v-1l-2-2-1-2-1-1-2-3-1-1-1-1-1-1-1-1-1-1-2-1v1c3.533 0 15 19.65 15 24 1.622 0 1.622 9 0 9v2Z"/><path fill="#7ECF4B" id="CA1" d="M366 227h1l1-1 1-1 1-1 1-1 1-1 1-1 1-1 1-1 1-2 1-1c0-1.238.423-3 2-3l1-1 1-1 1-2 1-2c0-1.238.423-3 2-3l2-4c0-1.465-.109-4 2-4 0-1.424.362-5 2-5 0-1.424.362-5 2-5 0-1.775.069-8 2-8 0-1.759.326-9 2-9v-19c-1.473 0-1-1.952-1-3v-1c-1.473 0-1-1.952-1-3v-2l-2-4v-2l-2-4v-1c-1.577 0-2-1.762-2-3v-1c-2.035 0-6.129-8.758-7-10.5l-3-3.5v-1c-3.957 0-11.115-11.808-15.5-14l-3.5-4h-1l-8-5c0 8.92-8 16.847-8 26l12 11.5c6.589 13.178 12 21.296 12 37.5v7.5l-6 16-10 14-12 12.5c6.644 0 21.391 14 27 14Z"/><path fill="#C7C8CC" id="alv" d="m102 89-1 1 1-1Z"/><path fill="#C7CBCB" id="bsc" d="M159 90v1c1.747 0 2-.253 2-2l-2 1Z"/><path fill="#CAC7CB" id="fiber tracts" d="m296 89 1 1-1-1Z"/><path fill="#C7C8CC" id="alv" d="m101 90-2 1 2-1Z"/><path fill="#FF8FFF" id="SCdg" d="M261 125c2.117 0 15 4.396 15 0 0-6.419-8.663-11.827-11-16.5-3.342-6.684-17.173-23.163-26.5-18.5-2.837 1.418-7.169 2-10.5 2-2.937 0-7.913-.706-10.5-2-9.9-4.95-23.16 11.82-26.5 18.5-3.075 6.149-10 9.801-10 16.5 0 4.685 12.019 0 14 0l-1-4.5c3.016-6.032 10.629-19.064 15.5-21.5 4.726-2.363 10.781-2 16.5-2 5.467 0 13.88-1.31 18.5 1 8.095 4.048 13.903 14.305 17.5 21.5l-1 5.5Z"/><path fill="#08818B" id="VISli6b" d="M79 99h1l7-7v-1h-1l-7 8Z"/><path fill="#C7C8CC" id="alv" d="m99 91-1 1 1-1Z"/><path fill="#C7CBCB" id="bsc" d="M158 92v1l1-2h-1v1Z"/><path fill="#CAC7CB" id="fiber tracts" d="M299 91v1l-1-1h1Z"/><path fill="#08818B" id="VISli6b" d="M371 91c0 3.701 6 4.299 6 8-2.09 0-8-5.91-8-8h2Z"/><path fill="#C7C8CC" id="alv" d="m98 92-1 1 1-1Z"/><path fill="#CAC7CB" id="fiber tracts" d="M157 93h1v-1h-1v1Z"/><path fill="#C7C8CC" id="alv" d="M97 93c-1.238 0-3 .423-3 2 1.238 0 3-.423 3-2Z"/><path fill="#CAC7CB" id="fiber tracts" d="M156 94h1v-1h-1v1Z"/><path fill="#C7CBCB" id="bsc" d="m158 93-1 1v-1h1Z"/><path fill="#CAC7CB" id="fiber tracts" d="m300 93 1 1-1-1Z"/><path fill="#C7C8CC" id="alv" d="M360 93c1.93 0 19 16.978 19 18-3.957 0-11.115-11.808-15.5-14l-3.5-4Z"/><path fill="#CAC7CB" id="fiber tracts" d="M155 95h1v-1h-1v1Z"/><path fill="#C7CBCB" id="bsc" d="m157 94-1 1v-1h1Z"/><path fill="#15AFB2" id="TEa6a" d="M49 148h6c0-4.119 4.754-25 8-25 0-3.463 6.587-16 10-16 0-3.205 5-5.091 5-8l-3-4h-1c-2.076 0-8.008 10.517-9 12.5-6.895 13.789-16 23.758-16 40.5Z"/><path fill="#C7C8CC" id="alv" d="m94 95-1 1 1-1Z"/><path fill="#CAC7CB" id="fiber tracts" d="M154 96h1v-1h-1v1Z"/><path fill="#C7CBCB" id="bsc" d="m156 95-1 1v-1h1Z"/><path fill="#15AFB2" id="TEa6a" d="M402 148h5c0-18.484-8.538-26.577-16-41.5-1.196-2.391-6.907-11.5-9-11.5l-4 4 10 12.5c5.95 11.899 13 22.059 13 36.5h1Z"/><path fill="#C7C8CC" id="alv" d="m93 96-1 1 1-1Z"/><path fill="#CAC7CB" id="fiber tracts" d="m154 96-1 1v-1h1Z"/><path fill="#C7CBCB" id="bsc" d="M153 98v1c1.577 0 2-1.762 2-3h-1l-1 1v1Z"/><path fill="#C7C8CC" id="alv" d="m92 97-1 1 1-1Z"/><path fill="#FF8FFE" id="SCdw" d="M260 125h1l1-5.5c-3.597-7.195-9.405-17.452-17.5-21.5-4.62-2.31-13.033-1-18.5-1-5.719 0-11.774-.363-16.5 2-4.871 2.436-12.484 15.468-15.5 21.5l1 4.5h1c1.006 0 2.452-6.404 3-7.5 1.958-3.917 7.116-12.308 11.5-14.5 15.496-7.748 35.921-5.658 44.5 11.5 1.662 3.323 5 6.581 5 10.5Z"/><path fill="#CAC7CB" id="fiber tracts" d="m303 97 1 1-1-1Z"/><path fill="#C7C8CC" id="alv" d="m91 98-2 1 2-1Z"/><path fill="#CAC7CB" id="fiber tracts" d="M152 99h1v-1h-1v1Z"/><path fill="#16B0B2" id="TEa6b" d="M73 107h1l6-8h-2c0 2.909-5 4.795-5 8Z"/><path fill="#C7C8CC" id="alv" d="m89 99-2 2c1.747 0 2-.253 2-2Z"/><path fill="#CAC7CB" id="fiber tracts" d="m152 99-1 1v-1h1Z"/><path fill="#C7CBCB" id="bsc" d="M151 101v1c1.577 0 2-1.762 2-3h-1l-1 1v1Z"/><path fill="#FC8FFF" id="PAG" d="m231 153 1 2c1.353 0 2.158-3 5-3l4-2 1-1c0-5.636 9.846-18 16-18l1-1 1-5c0-3.919-3.338-7.177-5-10.5-8.579-17.158-29.004-19.248-44.5-11.5-4.384 2.192-9.542 10.583-11.5 14.5-.548 1.096-1.994 7.5-3 7.5l2 5c0 1.816 4.284 2.392 5.5 3 4.115 2.057 9.5 9.952 9.5 14 1.702 0 6 4.802 6 6 1.867 0 5-2.258 5 2 2.496 0-.496-5 2-5v-2c0-7.694 1-15.926 1-23 0-2.564 2-2.564 2 0 0 7.668 2 15.606 2 24v4Z"/><path fill="#16B0B2" id="TEa6b" d="M400 148h1c0-14.441-7.05-24.601-13-36.5L378 99h-1c0 3.331 5 4.796 5 8l2 2 1 1 3 5 1 1v1l1 1 2 4 1 1c0 4.082 4 6.651 4 11v1l2 4 1 9Z"/><path fill="#CAC7CB" id="fiber tracts" d="m305 100 2 2-2-2Z"/><path fill="#039299" id="AUDpo1" d="m37 113-1 1-4-2c0-1.902 3.832-11 6-11 2.227 0-1.057 6 1 6v2l-1 2-1 1v1Z"/><path fill="#C7C8CC" id="alv" d="m87 101-1 1 1-1Z"/><path fill="#CAC7CB" id="fiber tracts" d="M150 102h1v-1l-1 1Z"/><path fill="#039299" id="AUDpo1" d="M420 114h1l3-3-5-10c-3.744 0 1.673 7-2 7v1l2 2v2l1 1Z"/><path fill="#C7C8CC" id="alv" d="m86 102-1 1 1-1Z"/><path fill="#CAC7CB" id="fiber tracts" d="m150 102-1 1 1-1Z"/><path fill="#C7CBCB" id="bsc" d="M149 104v1c1.577 0 2-1.762 2-3h-1l-1 1v1Z"/><path fill="#C7C8CC" id="alv" d="m85 103-1 1 1-1Z"/><path fill="#CAC7CB" id="fiber tracts" d="m307 103 2 4-2-4Z"/><path fill="#C7C8CC" id="alv" d="m84 104-1 1 1-1Z"/><path fill="#CAC7CB" id="fiber tracts" d="M148 105h1v-1l-1 1Z"/><path fill="#C7C8CC" id="alv" d="m83 105-1 1 1-1Z"/><path fill="#7BD04A" id="DG-mo" fill-rule="evenodd" d="m128 113-6.5 5-17.5 17.5c-9.553 19.107-10.793 31.413-1 51 3.069 6.139 10.895 9.79 14 16 2.02 4.039 11.187 17.5 16.5 17.5 7.353 0 5.557-12.386 3.5-16.5-5.464-10.927-10.503-22.006-16-33-1.86-3.72-2.096-8.193-4-12-3.614-7.229 2.327-23.655 5-29 1.813-3.625 13.919-12.162 12-16l-6-.5m2 113 2 1c7.339 0 14.516-8.469 11-15.5-4.468-8.935-5.585-19.169-10-28l-2-10c-2.261-4.523-6-11.267-6-16.5v-2c-1.638 0-1.638-12 0-12 0-1.623.005-6 2-6l1-2 1-1c0-5.787 14-13.032 14-26l-2-2c-1.564 0-3.876-1-6-1-4.168 0-7.42 3-11 3l-10 5-11 10.5c-7.296 14.593-14 19.607-14 38v7l4 13c2.998 5.996 7.232 10.465 10 16l14 15.5 10 11 3 2Z"/><path fill="#7DCD4B" id="HPF" d="m141 106 2 2v-3l-2 1Z"/><path fill="#C7CBCB" id="bsc" d="M146 124h1v-4c-1.566 0-1.566-5 0-5l2-10h-1v1l-1 1v2l-1 1v2l-1 2v8l1 2Z"/><path fill="#7DCD4B" id="HPF" d="m315 106-1 1-1-2 2 1Z"/><path fill="#7BD04A" id="DG-mo" fill-rule="evenodd" d="M322 113c0 6.661 8.242 8.984 11 14.5 5.73 11.459 10.496 25.008 4 38-6.382 12.763-11.61 26.219-18 39-1.645 3.29-2.354 15.5 3.5 15.5 4.192 0 18.317-17.134 20.5-21.5l8-9 8-15c9.817-19.634-15.557-61.5-37-61.5m3 114h1l1-1 3-3 9-10 12-12.5 10-14 6-16V163c0-16.204-5.411-24.322-12-37.5L343 114l-10-6c-4.186 0-7.431-3-12-3l-6 1-1 1c0 12.189 1.905 8.31 7 18.5 2.064 4.128 8 5.759 8 10.5v1c3.229 0 3 7.645 3 10v6c0 1.145.579 4-1 4v1c0 5.359-3.678 12.855-6 17.5-1.422 2.844-.592 7.185-2 10-4.285 8.569-5.679 18.358-10 27-3.805 7.609 5.985 14.5 12 14.5Z"/><path fill="#C7C8CC" id="alv" d="m82 106-1 1 1-1Z"/><path fill="#CAC7CB" id="fiber tracts" d="m148 106-1 1 1-1Z"/><path fill="#16B0B2" id="TEa6b" d="m65 122-2 1c0-3.463 6.587-16 10-16l-4 8-1 1-1 1v1l-1 1-1 3Z"/><path fill="#CCC8CA" id="ar" d="M69 115h1l1-1 1-2 1-1 2-2-1-2h-1l-4 8Z"/><path fill="#C7C8CC" id="alv" d="m81 107-2 2c1.747 0 2-.253 2-2Z"/><path fill="#CCC8CA" id="ar" d="M396 134h1c0-4.349-4-6.918-4-11l-1-1-2-4-1-1v-1l-1-1-3-5-1-1-2-2c0 4.283 6 7.064 6 11l1 1v1l2 2v1l1 1v1l1 1v1l1 1v1l1 2v1l1 1v1Z"/><path fill="#CAC7CB" id="fiber tracts" d="m309 108 1 1-1-1Z"/><path fill="#029199" id="AUDpo2/3" d="m39 109-1 2 1-2Z"/><path fill="#CBC9C7" id="or" d="M59 150c-1.916 0-.07 3-3 3v-5c0-1.242 1.02-9 2-9 1.473 0 1-1.952 1-3l1-1v-1l1-1v-1l1-2v-1l1-1v-1l1-1v-1l1-1v-1l1-1c0-.716 2.373-3 0-3l1-1c0 1.186 1 1.186 1 0l1-1v-1l1-1 1-1 1-2 1-1 2-2-8 16c-2.382 0-6 10.006-6 12 0 3.695-2 6.865-2 11v2Z"/><path fill="#CAC7CB" id="fiber tracts" d="m147 109-1 1 1-1Z"/><path fill="#CBC9C7" id="or" d="m384 109 1 1-1-1Z"/><path fill="#029199" id="AUDpo2/3" d="m417 109 2 2-2-2Z"/><path fill="#C7C8CC" id="alv" d="m79 110-1 1 1-1Z"/><path fill="#CAC7CB" id="fiber tracts" d="m310 110 1 2-1-2Z"/><path fill="#029199" id="AUDpo2/3" d="m38 111-1 1 1-1Z"/><path fill="#C8C9CA" id="fp" d="m73 111-1 1 1-1Z"/><path fill="#C7C8CC" id="alv" d="m78 111-1 1 1-1Z"/><path fill="#019099" id="AUDv1" d="m423 121 6 3c0-1.924-3.555-13-5-13l-3 3v3h1c1.186 0 1.186 1 0 1l1 3ZM33 121l-6 3c0-1.529 3.998-12 5-12l4 2v1l-1 1v2l-2 3Z"/><path fill="#C7C8CC" id="alv" d="m77 112-1 1 1-1Z"/><path fill="#CAC7CB" id="fiber tracts" d="m146 112-1 2 1-2Z"/><path fill="#C7C8CC" id="alv" d="M379 112c2.81 0 10 11.706 10 14-2.035 0-6.129-8.758-7-10.5l-3-3.5Z"/><path fill="#029199" id="AUDpo2/3" d="m37 113-1 1 1-1Z"/><path fill="#C7C8CC" id="alv" d="m76 113-1 2 1-2Z"/><path fill="#65A83D" id="DG-sg" fill-rule="evenodd" d="m119 124-6 5.5-8 10-6 14c-5.95 11.901 12.371 44.935 21.5 49.5 2.786 1.393 6.937 14.532 12 12 4.364-2.182 2.038-11.423.5-14.5-6.14-12.279-11.914-24.827-18-37-3.242-6.485-3.242-21.515 0-28 1.177-2.353 7.889-11.5 4-11.5m9-11-6.5 5-17.5 17.5c-9.553 19.107-10.793 31.413-1 51 3.069 6.139 10.895 9.79 14 16 2.02 4.039 11.187 17.5 16.5 17.5 7.353 0 5.557-12.386 3.5-16.5-5.464-10.927-10.503-22.006-16-33-1.86-3.72-2.096-8.193-4-12-3.614-7.229 2.327-23.655 5-29 1.813-3.625 13.919-12.162 12-16l-6-.5Z"/><path fill="#FF64FF" id="MB" d="M309 113c1.622 0 1.622 9 0 9v-9Z"/><path fill="#65A83D" id="DG-sg" fill-rule="evenodd" d="m335 124 7 13.5c4.107 8.215.512 25.976-3 33-2.809 5.618-16 27.393-16 32 0 2.572-3.161 10.669.5 12.5 5.868 2.934 10.353-12.177 14-14 2.885-1.443 5.955-6.411 7.5-9.5 1.005-2.01 4.646-4.293 6-7 4.22-8.439 6-15.14 6-25.5v-7.5c-2.409-4.818-5.55-9.1-8-14-2.273-4.546-9.27-13.5-14-13.5m-13-11c0 6.661 8.242 8.984 11 14.5 5.73 11.459 10.496 25.008 4 38-6.382 12.763-11.61 26.219-18 39-1.645 3.29-2.354 15.5 3.5 15.5 4.192 0 18.317-17.134 20.5-21.5l8-9 8-15c9.817-19.634-15.557-61.5-37-61.5Z"/><path fill="#029199" id="AUDpo2/3" d="m419 113 1 1-1-1Z"/><path fill="#C8C9CA" id="fp" d="m71 114-1 1 1-1Z"/><path fill="#029198" id="AUDv2/3" d="M421 114v2l-1-2h1ZM36 115l-1 1 1-1Z"/><path fill="#CCC8CA" id="ar" d="M68 117h1v-2l-1 1v1Z"/><path fill="#C8C9CA" id="fp" d="m70 115-1 1v-1h1Z"/><path fill="#C7C8CC" id="alv" d="m75 115-1 1 1-1Z"/><path fill="#FF64FF" id="MB" d="M147 115c-1.566 0-1.566 5 0 5v-5Z"/><path fill="#CBC9C7" id="or" d="m388 115 1 1-1-1ZM67 117h1v-1l-1 1Z"/><path fill="#C7C8CC" id="alv" d="m74 116-1 1 1-1Z"/><path fill="#CCC8CA" id="ar" d="M67 118c0 1.186 1 1.186 1 0v-1h-1v1Z"/><path fill="#C8C9CA" id="fp" d="m69 117-1 1v-1h1Z"/><path fill="#CBC9C7" id="or" d="m389 117 1 1-1-1Z"/><path fill="#029198" id="AUDv2/3" d="m422 118 1 3c-2.109 0-2-2.535-2-4h1v1Z"/><path fill="#15B0B3" id="TEa1" d="M422 117c1.186 0 1.186 1 0 1v-1Z"/><path fill="#029198" id="AUDv2/3" d="m35 118-2 3c2.294 0 2-.997 2-3Z"/><path fill="#C7C8CC" id="alv" d="m73 118-1 1 1-1Z"/><path fill="#C8C9CA" id="fp" d="m388 118 1 1-1-1Z"/><path fill="#CCC8CA" id="ar" d="M65 122h1c0-.716 2.373-3 0-3l-1 3Z"/><path fill="#C7C8CC" id="alv" d="m72 119-1 1 1-1Z"/><path fill="#C8C9CA" id="fp" d="m389 120 2 2-2-2Z"/><path fill="#15B0B3" id="TEa1" d="M25 151h4v-1c0-10.821 4-20.227 4-29l-6 3c0 2.654-.888 5.275-2 7.5V151Z"/><path fill="#C7C8CC" id="alv" d="m71 121-1 1 1-1Z"/><path fill="#15B0B3" id="TEa1" d="M427 151h4v-21.5l-2-5.5-6-3 4 14.5V151Z"/><path fill="#CCC8CA" id="ar" d="M63 126h1v-1l1-1v-2l-2 1v3Z"/><path fill="#C8C9CA" id="fp" d="m66 122-1 1v-1h1Z"/><path fill="#C7C8CC" id="alv" d="m70 122-1 1 1-1Z"/><path fill="#FF64FF" id="MB" d="M143 125h2l1-1-1-2-2 3ZM311 125h2c0-1.238-.423-3-2-3l-1 2 1 1Z"/><path fill="#CBC9C7" id="or" d="m392 122 1 1-1-1Z"/><path fill="#16B0B2" id="TEa6b" d="M55 148h1c0-1.242 1.02-9 2-9 0-1.048-.473-3 1-3v-1l1-2c0-1.048-.473-3 1-3l1-2 1-2v-3c-3.246 0-8 20.881-8 25Z"/><path fill="#FF64FF" id="MB" d="m147 124 1 1-1-2v1Z"/><path fill="#A9A9A8" id="AQ" d="M227 125h2c0-2.564-2-2.564-2 0Z"/><path fill="#C8C9CA" id="fp" d="m391 123 1 1-1-1ZM65 124l-1 1 1-1Z"/><path fill="#7ECE4A" id="DG-po" d="m119 124-6 5.5-8 10-6 14c-5.95 11.901 12.371 44.935 21.5 49.5 2.786 1.393 6.937 14.532 12 12 4.364-2.182 2.038-11.423.5-14.5-6.14-12.279-11.914-24.827-18-37-3.242-6.485-3.242-21.515 0-28 1.177-2.353 7.889-11.5 4-11.5Z"/><path fill="#FF8EFF" id="DT" d="M146 128h1l2-1-1-2-1-1h-1l-1 1v2l1 1ZM309 128h2v-3l-1-1h-1l-1 2 1 2Z"/><path fill="#7ECE4A" id="DG-po" d="m335 124 7 13.5c4.107 8.215.512 25.976-3 33-2.809 5.618-16 27.393-16 32 0 2.572-3.161 10.669.5 12.5 5.868 2.934 10.353-12.177 14-14 2.885-1.443 5.955-6.411 7.5-9.5 1.005-2.01 4.646-4.293 6-7 4.22-8.439 6-15.14 6-25.5v-7.5c-2.409-4.818-5.55-9.1-8-14-2.273-4.546-9.27-13.5-14-13.5Z"/><path fill="#C8C9CA" id="fp" d="M61 137h2v-1l1-2 1-1v-2l1-2 1-1v-3c-2.382 0-6 10.006-6 12Z"/><path fill="#C7C8CC" id="alv" d="m68 125-1 2v-2h1Z"/><path fill="#C9C8C8" id="bic" d="M139 135h1l2-2 1-1v-1l1-2 1-1v-3h-2c-2.311 0-5 5.721-5 8l1 2Z"/><path fill="#FF64FF" id="MB" d="M141 184c-1.521 0-1.034-8.767-3.5-10-2.818-1.409-3.309 3.881-2.5 5.5l2 5.5c-1.736 0-8-19.179-8-23h1c0 1.579 2.855 1 4 1 0 2.832 7 7.79 7 3l1-1v-1l1-2v-6c0-3.526-2-8.954-2-10 2.178 0 6.977-11.454 8-13.5 1.058-2.116-2-2.898-2-4.5l2-1c0 3.862 6.653 2 8 2 0 3.121 11.316 3 14 3l3.5 1c2.434-1.217 4.769-8 6.5-8 0 4.685 12.019 0 14 0h1l2 5c-1.804 0-5.136-2.182-7.5-1-8.666 4.333-23.33 8.835-33 4-3.017-1.508-8.124.748-9.5 3.5-5.139 10.278 6.63 45.5 19 45.5l-4 3c0-1.688-22-19.059-22-1ZM226 148l5 1c0-8.394-2-16.332-2-24h-2c0 7.074-1 15.306-1 23ZM293 184c2.274 0 13.572-7.536 16.5-9 4.464-2.232 5.224 9 6.5 9 0-6.932 5-17.3 5-3 2.132 0 6-15.705 6-19h-1c0 1.473-1.952 1-3 1l-1 1c0 3.488-7 6.238-7 1l-1-1v-2c-3.762 0 1-15.042 1-16l-2-1.5-2-7-4-6 2-3.5-1-2-1.5 3c-.939.47-6.5 2.082-6.5 0-2.818 0-15.22 5.64-18.5 4-1.992-.996-4.66-8-5.5-8 0 4.396-12.883 0-15 0h-1l-1 5c8.687 0 16.438.969 24.5 5 7.56 3.78 15.847-4.576 23-1 6.579 3.289.881 26.737-1.5 31.5-2.461 4.922-4.669 8.669-9 13l-6 3.5 3 2Z"/><path fill="#C9C8C8" id="bic" d="m318 133-1 1-4-3v-1l-2-2v-3h2c2.757 0 5 5.394 5 8Z"/><path fill="#C8C9CA" id="fp" d="m392 125 1 1-1-1Z"/><path fill="#CCC8CA" id="ar" d="M62 128h1v-2l-1 2Z"/><path fill="#C8C9CA" id="fp" d="m64 126-1 1v-1h1Z"/><path fill="#FF64FF" id="MB" d="M145 128h1l-1-1v1Z"/><path fill="#C7C8CC" id="alv" d="m389 127 2 3c-1.577 0-2-1.762-2-3Z"/><path fill="#C8C9CA" id="fp" d="m393 127 1 1-1-1Z"/><path fill="#CCC8CA" id="ar" d="M61 130h1v-2l-1 2Z"/><path fill="#C8C9CA" id="fp" d="m63 128-1 1v-1h1Z"/><path fill="#C7C8CC" id="alv" d="m67 128-1 1 1-1Z"/><path fill="#FE7AFD" id="NB" d="m139 144 2 2c2.178 0 6.977-11.454 8-13.5 1.058-2.116-2-2.898-2-4.5h-2l-1 1-1 2v1l-1 1c0 1.041-.986 5-2 5v3l-1 1v2ZM317 143c0 2.003.293 3-2 3l-2-1.5-2-7-4-6 2-3.5h2l2 2v1l3 6c0 1.048-.473 3 1 3v3Z"/><path fill="#FF64FF" id="MB" d="m311 128 2 2-2-2Z"/><path fill="#C7C8CC" id="alv" d="m66 129-1 2 1-2Z"/><path fill="#FF64FF" id="MB" d="m144 129-1 2 1-2Z"/><path fill="#FF8FFD" id="MRN" d="M195 188h5c0-.906-25.346-8.808-19-21.5 8.047-16.095 36-6.718 36 10.5 2.007 0 1.121-4 4-4v-1l1-1 1-2v-8l-4-4v-1c-1.577 0-2-1.762-2-3v-1l-1-1-3-4c0-4.048-5.385-11.943-9.5-14-1.216-.608-5.5-1.184-5.5-3-1.804 0-5.136-2.182-7.5-1-8.666 4.333-23.33 8.835-33 4-3.017-1.508-8.124.748-9.5 3.5-5.139 10.278 6.63 45.5 19 45.5 2.25 0 3.376 2 5 2l6 1c0-3.634 11.698-.901 13.5 0l3.5 3ZM256 188h5l4.5-3c2.36-1.18 5.558-.779 8-2 2.541-1.27 3.709 2 5.5 2l6-1c0-1.638 3.576-2 5-2l6-3.5c4.331-4.331 6.539-8.078 9-13 2.381-4.763 8.079-28.211 1.5-31.5-7.153-3.576-15.44 4.78-23 1-8.062-4.031-15.813-5-24.5-5l-1 1c-6.154 0-16 12.364-16 18l-1 1v1l-1 1-1 1v1l-1 1v1l-1 1c0 1.747-.253 2-2 2v1l-1 1-1 1v6l1 1v1l1 2 1 1 3 3c0-5.054 3.065-8.783 7.5-11l6-6c9.137-4.568 20.046 2.592 23.5 9.5 3.456 6.912-8.17 14.335-12.5 16.5-1.272.636-7.5 1.45-7.5 3Z"/><path fill="#C8C9CA" id="fp" d="m394 129 1 2-1-2Z"/><path fill="#CCC8CA" id="ar" d="M60 133h1v-3c-1.473 0-1 1.952-1 3Z"/><path fill="#C8C9CA" id="fp" d="m62 130-1 2v-2h1Z"/><path fill="#FF64FF" id="MB" d="m259 130-1 1 1-1Z"/><path fill="#FE7F82" id="MGd" d="m133 148-4.5-1-3.5 2v-6c1.353 0 2-4.643 2-6l1-2 1-1 6-3v15l-2 2Z"/><path fill="#FF8E9D" id="SGN" d="M135 146h2l2-2v-2l1-1v-5l-1-1-1-2-3-2v15Z"/><path fill="#FF64FF" id="MB" d="m317 136-1 1-3-6 4 3v2Z"/><path fill="#FE7F82" id="MGd" d="m324 148 4.5-1 3.5 3v-3c-.274 0-3-9.071-3-10v-1c-.168 0-8-7.626-8-4v14l3 2Z"/><path fill="#C7C8CC" id="alv" d="m391 131 2 4-2-4Z"/><path fill="#FF64FF" id="MB" d="m143 132-1 1 1-1Z"/><path fill="#FF8E9D" id="SGN" d="M319 146h2v-14l-3 1-1 1v9c1.577 0 2 1.762 2 3Z"/><path fill="#C8C9CA" id="fp" d="m395 132 1 1-1-1Z"/><path fill="#CCC8CA" id="ar" d="M59 135h1v-2l-1 2Z"/><path fill="#C8C9CA" id="fp" d="m61 133-1 1v-1h1Z"/><path fill="#C7C8CC" id="alv" d="m65 133-1 1 1-1Z"/><path fill="#FF64FF" id="MB" d="M140 136v2c1.014 0 2-3.959 2-5l-2 2v1Z"/><path fill="#C7C8CC" id="alv" d="m64 134-1 2 1-2Z"/><path fill="#C8C9CA" id="fp" d="M397 134v1l-1-1h1ZM60 135l-1 1v-1h1Z"/><path fill="#FF6F80" id="TH" d="M140 135v1l-1-1h1Z"/><path fill="#CCC8CA" id="ar" d="m397 135 2 4c-2.109 0-2-2.535-2-4ZM59 136c-1.473 0-1 1.952-1 3 1.473 0 1-1.952 1-3Z"/><path fill="#FF6F80" id="TH" d="M316 137c0 1.048-.473 3 1 3v-4l-1 1Z"/><path fill="#C8CBCC" id="ec" d="M59 148h1c0-1.048-.473-3 1-3v-2c0-1.048-.473-3 1-3l1-2v-1h-2c0 3.695-2 6.865-2 11Z"/><path fill="#C7C8CC" id="alv" d="m394 137 1 4-2-4h1Z"/><path fill="#C8CBCC" id="ec" d="M387 200v3c3.8 0 12-25.543 12-30 0-1.495.84-10 2-10v-3c0-1.574.751-9-1-9 0 1.867-.974 2.552-2 .5-.995-1.99-.515-14.5-3-14.5h-1l1 4v2c1.473 0 1 1.952 1 3v1c1.473 0 1 1.952 1 3v6c1.628 0 1.628 10 0 10v3c0 1.923.156 9-2 9 0 1.775-.069 8-2 8 0 1.424-.362 5-2 5 0 1.424-.362 5-2 5 0 1.465.109 4-2 4Z"/><path fill="#C7C8CC" id="alv" d="m63 138-1 2 1-2ZM62 140c-1.473 0-1 1.952-1 3 1.473 0 1-1.952 1-3Z"/><path fill="#FF6F80" id="TH" d="m140 141-1 1 1-1ZM319 154c-5.264 0-5 2.261-5 8-3.762 0 1-15.042 1-16 2.293 0 2-.997 2-3 1.577 0 2 1.762 2 3v8Z"/><path fill="#C7C8CC" id="alv" d="M395 143c1.473 0 1 1.952 1 3-1.473 0-1-1.952-1-3Z"/><path fill="#FF6F80" id="TH" d="M138 153c3.151 0 2.703 3 5 3 0-3.526-2-8.954-2-10l-2-2-2 2c0 1.819 1 4.591 1 7Z"/><path fill="#C7C8CC" id="alv" d="M61 145c-1.473 0-1 1.952-1 3 1.473 0 1-1.952 1-3Z"/><path fill="#FD7F83" id="MGm" d="M133 160h1c0-2.079 3-3.187 3-6l1-1c0-2.409-1-5.181-1-7h-2l-2 2v12ZM323 161h1v-13l-3-2h-2v8c0 2.83 4 4.54 4 7Z"/><path fill="#FE7E83" id="MGv" d="M129 162h1c1.238 0 3-.423 3-2v-12l-4.5-1-3.5 2v8l4 5Z"/><path fill="#FF64FF" id="MB" d="M232 165h1v-3c-3.667 0-.178-3 2-3v-1c-2.041 0-3-.959-3-3l-1-2c0 7.784-5 4.969-5-3-2.496 0 .496 5-2 5 0 5.594-5 1.242-5-2 0-1.198-4.298-6-6-6l3 4 1 1v1l2 3v1c1.824 0 9.271 4 4 4v4h2c0-5.94 6-8.203 6-1l1 1Z"/><path fill="#FE7E83" id="MGv" d="M326 162h1l4-4v-1c0-1.145-.579-4 1-4v-3l-3.5-3-4.5 1v13l2 1Z"/><path fill="#C7C8CC" id="alv" d="M396 147c1.473 0 1 1.952 1 3-1.473 0-1-1.952-1-3Z"/><path fill="#0D9E90" id="ECT5" d="M43 163h8c0-4.55-2-9.615-2-15-3.51 0-7.022 1-10 1 0 5.411 4 9.298 4 14Z"/><path fill="#0E9F91" id="ECT6a" d="M51 163h4v-15h-6c0 5.385 2 10.45 2 15Z"/><path fill="#0E9F90" id="ECT6b" d="M55 163h1v-15h-1v15Z"/><path fill="#C7C8CC" id="alv" d="M59 150v3c1.643 0 1-3.765 1-5h-1v2Z"/><path fill="#FE8FFC" id="EW" d="M226 150c0 7.969 5 10.784 5 3v-4l-5-1v2Z"/><path fill="#0E9F90" id="ECT6b" d="M400 151c1.751 0 1 7.426 1 9 1.781 0 1-10.176 1-12h-2v3Z"/><path fill="#0E9F91" id="ECT6a" d="M401 163h5c0-4.635 1-9.828 1-15h-5c0 1.824.781 12-1 12v3Z"/><path fill="#0D9E90" id="ECT5" d="M413 163h1l4-14c-3.249 0-7.194-1-11-1 0 5.172-1 10.365-1 15h7Z"/><path fill="#0D9F91" id="ECT2/3" d="M35 163h8c0-4.702-4-8.589-4-14h-2l-8 1v1c2.206 0 1.854 12 6 12Z"/><path fill="#FF64FF" id="MB" d="m242 149-1 1 1-1Z"/><path fill="#0D9F91" id="ECT2/3" d="M414 163h8c1.896 0 5-10.103 5-12v-1l-7-1h-2l-4 14Z"/><path fill="#C8CBCC" id="ec" d="M57 173c0 10.886 7.412 20.324 12 29.5.85 1.7 3.47 8.5 6 8.5l-6-9.5c-5.562-11.123-10-24.124-10-37.5v-14c-1.916 0-.07 3-3 3v10l1 10Z"/><path fill="#FF64FF" id="MB" d="M236 157h1l1-1v-1l1-1v-1l1-1 1-1v-1l-4 2-1 5Z"/><path fill="#0D9F90" id="ECT1" d="m35 164-4 1c-3.731 0-6-11.082-6-14h4c2.206 0 1.854 12 6 12v1Z"/><path fill="#CBCBCC" id="mlf" d="m216 151 1 1-1-1ZM241 151l-1 1 1-1Z"/><path fill="#0D9F90" id="ECT1" d="m422 164 3 1c5.416 0 6-10.347 6-14h-4c0 1.897-3.104 12-5 12v1Z"/><path fill="#FE90FF" id="III" d="M219 153c1.867 0 5-2.258 5 2 0 5.594-5 1.242-5-2ZM236 157l-1 1c-2.041 0-3-.959-3-3 1.353 0 2.158-3 5-3l-1 5Z"/><path fill="#CBCBCC" id="mlf" d="m240 152-1 1 1-1Z"/><path fill="#FF6F80" id="TH" d="m138 153-1 1 1-1Z"/><path fill="#FE8D9E" id="PIL" d="m142 165-1 1c0 4.79-7-.168-7-3v-3c0-2.079 3-3.187 3-6l1-1c3.151 0 2.703 3 5 3v6l-1 2v1Z"/><path fill="#CBCBCC" id="mlf" d="m217 153 2 3c-1.577 0-2-1.762-2-3Z"/><path fill="#FE8D9E" id="PIL" d="M322 164c0 3.488-7 6.238-7 1l-1-1v-2c0-5.739-.264-8 5-8 0 2.83 4 4.54 4 7v2l-1 1Z"/><path fill="#CBCBCC" id="mlf" d="m239 154-1 1 1-1ZM238 156l-1 1 1-1Z"/><path fill="#C7C8CC" id="alv" d="M397 156c1.628 0 1.628 10 0 10v-10Z"/><path fill="#CBCBCC" id="mlf" d="M219 157c1.824 0 9.271 4 4 4l-4-4Z"/><path fill="#FF64FF" id="MB" d="m236 157-1 1 1-1Z"/><path fill="#CBCBCC" id="mlf" d="M235 158v1c1.747 0 2-.253 2-2h-1l-1 1Z"/><path fill="#FE90FD" id="RN" d="M200 188h2l2-1h1l1-1h1l1-1h1c0-1.577 1.762-2 3-2 0-1.577 1.762-2 3-2l1-2 1-1v-1c0-17.218-27.953-26.595-36-10.5-6.346 12.692 19 20.594 19 21.5ZM254 188h2c0-1.55 6.228-2.364 7.5-3 4.33-2.165 15.956-9.588 12.5-16.5-3.454-6.908-14.363-14.068-23.5-9.5l-6 6c-4.435 2.217-7.5 5.946-7.5 11v1l4.5 5c1.185.592 4.5 1.012 4.5 3h1l2 2h2l1 1Z"/><path fill="#FEA6FF" id="RL" d="M224 175h9l-2-10v-1c0-7.203-6-4.94-6 1l-1 10Z"/><path fill="#CBCBCC" id="mlf" d="m234 161-1 1c-3.667 0-.178-3 2-3v1l-1 1Z"/><path fill="#FF6F80" id="TH" d="M130 162c0 1.579 2.855 1 4 1v-3h-1c0 1.577-1.762 2-3 2Z"/><path fill="#FF64FF" id="MB" d="m235 160-1 1 1-1ZM234 161l-1 1 1-1Z"/><path fill="#FF6F80" id="TH" d="M326 162c0 1.473-1.952 1-3 1v-2h1l2 1ZM143 162l-1 2 1-2Z"/><path fill="#0E9583" id="PERI2/3" d="m42 175-7 1c0-2.029 1.19-1.881 2-3.5 1.675-3.349-2-6.241-2-8.5v-1h8l3 11-4 1Z"/><path fill="#0F9684" id="PERI5" d="M46 174h2l4-1-1-10h-8l3 11Z"/><path fill="#0E9684" id="PERI6a" d="M53 173h3l-1-10h-4l1 10h1Z"/><path fill="#0E9683" id="PERI6b" d="M56 173h1l-1-10h-1l1 10Z"/><path fill="#FF6F80" id="TH" d="m323 163-1 1 1-1Z"/><path fill="#0E9683" id="PERI6b" d="M399 173h1c0-2.978 1-6.49 1-10-1.16 0-2 8.505-2 10Z"/><path fill="#0E9684" id="PERI6a" d="M400 173h4l2-10h-5c0 3.51-1 7.022-1 10Z"/><path fill="#0F9684" id="PERI5" d="M409 174h1c0-3.751 3-6.819 3-11h-7l-2 10 5 1Z"/><path fill="#0E9583" id="PERI2/3" d="m415 175 7 1c0-1.457-6.835-12 0-12v-1h-9c0 4.181-3 7.249-3 11l5 1Z"/><path fill="#0E9584" id="PERI1" d="M34 176h1c0-2.029 1.19-1.881 2-3.5 1.675-3.349-2-6.241-2-8.5l-4 1c0 1.423 1.978 3.544 1 5.5l-5 6.5 7-1Z"/><path fill="#C7C8CC" id="alv" d="M90 229h1v-2c-8.96 0-23.767-34.034-28-42.5-.938-1.877-3-12.801-3-15 0-1.278.666-5.5-1-5.5 0 13.376 4.438 26.377 10 37.5l6 9.5v1c1.59 0 6 5.662 6 7v1l9 9Z"/><path fill="#CACAC7" id="dtd" d="M231 165h1l-1-1v1Z"/><path fill="#FF6F80" id="TH" d="m314 164 1 1-1-1Z"/><path fill="#0E9584" id="PERI1" d="m422 176 7 1c0-1.384-4.238-5.976-5-7.5l1-4.5-3-1c-6.835 0 0 10.543 0 12Z"/><path fill="#FF6F80" id="TH" d="m142 165-1 1 1-1Z"/><path fill="#CACAC7" id="dtd" d="m224 165-1 2v-2h1Z"/><path fill="#C8C8C8" id="mtg" d="m224 175-4 6c-.819 0 1-6.032 1-8l1-1v-1l1-2v-2l1-2h1l-1 10ZM233 175c0 1.572 2.052 7 4 7l-2-9v-1l-1-2v-1l-1-1v-3h-2l2 10Z"/><path fill="#CACAC7" id="dtd" d="m233 168 1 1-1-1ZM223 169l-1 2 1-2Z"/><path fill="#C7C8CC" id="alv" d="M397 169c-1.674 0-2 7.241-2 9 2.156 0 2-7.077 2-9Z"/><path fill="#CACAC7" id="dtd" d="m234 170 1 2-1-2Z"/><path fill="#FF64FF" id="MB" d="M221 172h1v-1l-1 1Z"/><path fill="#C8C8CC" id="tspc" d="m222 172-1 1v-1h1Z"/><path fill="#FF64FF" id="MB" d="M235 173h1l-1-1v1Z"/><path fill="#31B824" id="ENTl5" d="M71 229h4c0-1.638 3.576-2 5-2 0-5.277-8.569-9.638-11-14.5-6.814-13.629-16-22.877-16-39.5h-1l-4 1c0 15.882 1.461 22.422 8 35.5 1.498 2.995 15 18.271 15 19.5Z"/><path fill="#32B824" id="ENTl6a" d="M80 227h5l1-1-5-6v-1c-1.557 0-6-5.116-6-7v-1c-2.53 0-5.15-6.8-6-8.5-4.588-9.176-12-18.614-12-29.5h-4c0 16.623 9.186 25.871 16 39.5 2.431 4.862 11 9.223 11 14.5Z"/><path fill="#C8C8CC" id="tspc" d="m213 183-1 1c0 4.621 8 .538 8-3-.819 0 1-6.032 1-8-2.879 0-1.993 4-4 4v1l-1 1-1 2-2 2ZM243 183h1c0 7.032-7 .478-7-1l-2-9h1l3 3v1l2 4 2 2Z"/><path fill="#32B824" id="ENTl6a" d="M372 227h5c0-6.679 9.99-12.48 13-18.5 5.853-11.705 14-21.369 14-35.5h-5c0 4.457-8.2 30-12 30 0 1.238-.423 3-2 3 0 1.238-.423 3-2 3l-1 2-1 1c0 1.238-.423 3-2 3 0 1.747-.253 2-2 2l-1 2-1 1-1 1-1 1-1 1-1 1-1 1v1l2 1Z"/><path fill="#31B824" id="ENTl5" d="M382 229h3c3.148 0 8.853-10.207 10-12.5l8-11c4.969-9.937 6-19.359 6-31.5l-5-1c0 14.131-8.147 23.795-14 35.5-3.01 6.02-13 11.821-13 18.5 1.041 0 5 .986 5 2Z"/><path fill="#32B725" id="ENTl3" d="M71 229c0 1.446-6.754 3-8 3 0-1.759-11.44-14.38-13-17.5-4.115-8.231-5.893-17.787-10-26l2-13.5 4-1h2c0 15.882 1.461 22.422 8 35.5 1.498 2.995 15 18.271 15 19.5Z"/><path fill="#CCCAC7" id="cpd" d="M185 235h6c0-3.163 7.871-2 10-2v-1c-2.971 0-10-4.544-10-8l-11-5c-3.908 0-8.174-2.337-11.5-4l-13-4c-7.987-3.993-14.5-18.307-14.5-27-1.521 0-1.034-8.767-3.5-10-2.818-1.409-3.309 3.881-2.5 5.5l2 5.5v1c1.014 0 2 3.959 2 5v2l1 1v1l1 1v1l2 3v1l1 1 1 2 2 2 1 1 1 1 1 1 8 6h1c1.39 0 9 5.408 9 7l5 6 1 1 11 6Z"/><path fill="#FF64FF" id="MB" fill-rule="evenodd" d="M203 190c0 1.951-2.454.477-3.5 1-1.768.884-5.445 6.61-4.5 8.5 3.792 7.585 11.381-2.762 13-6l5-3-10-.5m43-1-2 2.5 3.5 1.5c5.054 2.527 5.023 11.989 13 8 2.509-1.254-.974-6.448-1.5-7.5-1.36-2.72-9.625-4.5-13-4.5m4 30c-4.09 0-4.427 8-7 8v-12l-5-7-1-1-2-3c3.217 0 3.217-13 0-13l1-4.5c-1.122-2.244-1.761-6.131-4.5-7.5l-3 2c-1.722.861-1.453-3.273-4-2-4.092 2.046-3.5 9.13-3.5 12-3.137 0-3.137 13 0 13l-2 4c-1.514 0-5 5.537-5 7-1.773 0-1 9.259-1 11-1.985 0-2.696-7-6-7 0-3.721 2.295-13.602-2.5-16-4.77-2.385-12.5 6.889-12.5 11-.492 0-9.325-7.151-6-.5l1 1.5-6-7c0-2.83-4-4.54-4-7l-4-7-1-10 6 1c0 8.862.557 14 9 14l2-1 1-1 1-1 1-1 1-1c0-1.714 2-3.482 2-6h7l2-1h1l1-1h1l1-1h1l3-1c0 4.621 8 .538 8-3l4-6h9c0 1.572 2.052 7 4 7 0 1.478 7 8.032 7 1l4 2h1l2 2h2l1 1h7c0 3.715 4 5.378 4 8l4 3c8.201 0 10-5.269 10-14l6-1c0 2.979-2 6.23-2 10l-3 6c0 2.849-5 5.459-5 9-3.354 0-2.568 6-5 6 0-7.3-.567-2-5-2 0-4.881-11.758-13.985-15-7.5-2.177 4.354 0 9.326 0 13.5Z"/><path fill="#CCCAC7" id="cpd" d="M266 235h5c2.216 0 14-6.301 14-9l1-1 1-1 1-1 1-1 1-1 1-1 1-1c0-1.577 1.762-2 3-2l2-1 1-1h1l1-1 1-1h1l1-1 1-1 1-1 1-1h1l1-1 1-1 1-2 1-1 1-1 1-1v-1l1-1 1-3 1-1v-1l1-1v-2l1-2c0-1.048-.473-3 1-3 0-1.623.005-6 2-6 0-14.3-5-3.932-5 3 0 11.336-9.688 24.094-19.5 29l-9 2c-3.521 1.761-7.298 4-11.5 4 0 1.289-7.597 4-9 4l-2 3.5-9 5.5v1h8.5l1.5 2Z"/><path fill="#32B725" id="ENTl3" d="M385 229c0 1.446 6.754 3 8 3 0-.974 12.565-15.63 14-18.5 3.632-7.265 5.347-15.693 9-23l-1-15.5-5-1h-1c0 12.141-1.031 21.563-6 31.5l-8 11c-1.147 2.293-6.852 12.5-10 12.5Z"/><path fill="#32B825" id="ENTl2" d="m63 232-9 2c-6.865 0-8.986-11.472-11-15.5-4.48-8.958-6.53-19.06-11-28-1.814-3.629 2-10.931 2-14.5h1l7-1-2 13.5c4.107 8.213 5.885 17.769 10 26 1.56 3.12 13 15.741 13 17.5Z"/><path fill="#FF8DFD" id="SNr" d="M187 218c-1.819 0-4.591 1-7 1-3.908 0-8.174-2.337-11.5-4l-13-4c-7.987-3.993-14.5-18.307-14.5-27 0-18.059 22-.688 22 1 0 4.168 6.091 9 10 9l4 7c-3.423 0-2.405.31-4 3.5-5.188 10.377 8 7.4 8 3.5l6 7v3ZM270 218c1.564 0 3.876 1 6 1 4.202 0 7.979-2.239 11.5-4l9-2c9.812-4.906 19.5-17.664 19.5-29-1.276 0-2.036-11.232-6.5-9-2.928 1.464-14.226 9-16.5 9 0 5.488-4.808 10-10 10l-3 6c3.083 0 2.071 1.642 3 3.5 6.309 12.618-8 6.689-8 5.5-3.354 0-2.568 6-5 6v3Z"/><path fill="#32B825" id="ENTl2" d="m393 232 10 3 5-4.5 5-9c4.571-9.142 6.38-19.759 11-29 2.518-5.035-2-12.435-2-16.5l-7-1 1 15.5c-3.653 7.307-5.368 15.735-9 23-1.435 2.87-14 17.526-14 18.5Z"/><path fill="#32B722" id="ENTl1" d="M54 234c0 1.714-5.594 1-7 1-4.051 0-6.672-12.843-8-15.5-6.645-13.29-12-26.357-12-42.5l7-1c0 3.569-3.814 10.871-2 14.5 4.47 8.94 6.52 19.042 11 28 2.014 4.028 4.135 15.5 11 15.5ZM403 235h6c3.588 0 6.796-11.092 8-13.5 6.972-13.943 12-28.823 12-44.5l-7-1c0 4.065 4.518 11.465 2 16.5-4.62 9.241-6.429 19.858-11 29l-5 9-5 4.5Z"/><path fill="#FF8FFD" id="MRN" d="m244 183 4 2c0-1.988-3.315-2.408-4.5-3l-4.5-5 2 4 2 2h1ZM217 178l-1 1 1-1Z"/><path fill="#C7C8CC" id="alv" d="M395 178c-1.931 0-2 6.225-2 8 1.931 0 2-6.225 2-8Z"/><path fill="#FF8FFD" id="MRN" d="m216 179-1 2 1-2Z"/><path fill="#FFA4FF" id="CLI" d="M229 191h6l1-4.5c-1.122-2.244-1.761-6.131-4.5-7.5l-3 2c-1.722.861-1.453-3.273-4-2-4.092 2.046-3.5 9.13-3.5 12h6c0-3.15 2-3.446 2 0Z"/><path fill="#FF8FFD" id="MRN" d="M212 183h1l2-2c-1.238 0-3 .423-3 2Z"/><path fill="#FF64FF" id="MB" d="m241 181 2 2-2-2ZM321 181c-1.995 0-2 4.377-2 6 1.995 0 2-4.377 2-6Z"/><path fill="#FFA6FD" id="SNc" d="M163 185c0 4.168 6.091 9 10 9l-1-10c-1.624 0-2.75-2-5-2l-4 3ZM293 184c0 5.488-4.808 10-10 10 0-3.77 2-7.021 2-10 0-1.638 3.576-2 5-2l3 2Z"/><path fill="#FD8FFF" id="RR" d="m189 198-2 1c-8.443 0-9-5.138-9-14 0-3.634 11.698-.901 13.5 0l3.5 3c0 2.518-2 4.286-2 6l-1 1-1 1-1 1-1 1Z"/><path fill="#FF8FFD" id="MRN" d="m212 184-3 1c0-1.577 1.762-2 3-2v1Z"/><path fill="#FF64FF" id="MB" d="m213 183-1 1v-1h1Z"/><path fill="#FD8FFF" id="RR" d="m265 196 4 3c8.201 0 10-5.269 10-14-1.791 0-2.959-3.27-5.5-2-2.442 1.221-5.64.82-8 2l-4.5 3c0 3.715 4 5.378 4 8Z"/><path fill="#FF8FFD" id="MRN" d="m208 185-1 1 1-1ZM249 185l2 2-2-2Z"/><path fill="#FF64FF" id="MB" d="M137 186c1.014 0 2 3.959 2 5-1.638 0-2-3.576-2-5Z"/><path fill="#FF8FFD" id="MRN" d="m206 186-1 1 1-1Z"/><path fill="#C7C8CC" id="alv" d="M393 186c-1.638 0-2 3.576-2 5 1.638 0 2-3.576 2-5Z"/><path fill="#FF8FFD" id="MRN" d="m204 187-2 1 2-1ZM253 187l1 1-1-1Z"/><path fill="#FF64FF" id="MB" d="M319 187c-1.473 0-1 1.952-1 3 1.473 0 1-1.952 1-3ZM227 191h2c0-3.446-2-3.15-2 0Z"/><path fill="#C8C8CB" id="rust" d="m246 189-2 2.5 3.5 1.5c5.054 2.527 5.023 11.989 13 8 2.509-1.254-.974-6.448-1.5-7.5-1.36-2.72-9.625-4.5-13-4.5ZM203 190c0 1.951-2.454.477-3.5 1-1.768.884-5.445 6.61-4.5 8.5 3.792 7.585 11.381-2.762 13-6l5-3-10-.5Z"/><path fill="#FF64FF" id="MB" d="m318 190-1 2 1-2Z"/><path fill="#FFA6FF" id="IF" d="m230 202 5 2c3.217 0 3.217-13 0-13h-14c-3.137 0-3.137 13 0 13l6-3c1.048 0 3-.473 3 1Z"/><path fill="#C7C8CC" id="alv" d="M391 191c-1.638 0-2 3.576-2 5 1.638 0 2-3.576 2-5Z"/><path fill="#FF64FF" id="MB" d="m139 193 1 1-1-1Z"/><path fill="#FE8DFF" id="VTA" d="m193 194-1 1 1-1Z"/><path fill="#FF64FF" id="MB" d="m317 194-1 1 1-1ZM140 195l1 1-1-1Z"/><path fill="#FE8DFF" id="VTA" d="m192 195-1 1 1-1ZM191 196l-1 1 1-1ZM265 196l4 3-4-3Z"/><path fill="#FF64FF" id="MB" d="m316 196-1 1 1-1Z"/><path fill="#C7C8CC" id="alv" d="M389 196c-2.109 0-2 2.535-2 4 2.109 0 2-2.535 2-4Z"/><path fill="#FF64FF" id="MB" d="m141 197 2 3c-1.577 0-2-1.762-2-3Z"/><path fill="#FE8DFF" id="VTA" d="m190 197-1 1 1-1ZM189 198l-2 1 2-1Z"/><path fill="#FFA6FD" id="SNc" d="M177 201c-3.423 0-2.405.31-4 3.5-5.188 10.377 8 7.4 8 3.5 0-2.83-4-4.54-4-7ZM280 200c3.083 0 2.071 1.642 3 3.5 6.309 12.618-8 6.689-8 5.5 0-3.541 5-6.151 5-9Z"/><path fill="#FF64FF" id="MB" d="m314 200-1 1 1-1Z"/><path fill="#C7C8CC" id="alv" d="m387 203-2 1 2-4v3Z"/><path fill="#FF64FF" id="MB" d="m143 201 1 1-1-1Z"/><path fill="#FEA4FF" id="IPDM" d="m219 208 2 2c3.528 0 6-6.283 6-9l-6 3-2 4Z"/><path fill="#FEA6FE" id="IPA" d="M223 215c1.136 0 10 2.068 10 0l2-5c0-1.766-5-4.248-5-8 0-1.473-1.952-1-3-1 0 2.717-2.472 9-6 9l2 5Z"/><path fill="#FEA4FF" id="IPDM" d="m237 208-2 2c0-1.766-5-4.248-5-8l5 2 2 3v1Z"/><path fill="#FF64FF" id="MB" d="m313 202-1 1 1-1Z"/><path fill="#FFC295" id="PRNr" d="M192 214c1.855 0 10.083 5 15 5 0-3.721 2.295-13.602-2.5-16-4.77-2.385-12.5 6.889-12.5 11ZM264 214c-2.683 0-9.37 5-14 5 0-4.174-2.177-9.146 0-13.5 3.242-6.485 15 2.619 15 7.5l-1 1Z"/><path fill="#FF64FF" id="MB" d="m312 203-1 1 1-1Z"/><path fill="#C8CBCC" id="ec" d="M385 204v2c1.577 0 2-1.762 2-3l-2 1Z"/><path fill="#FF64FF" id="MB" d="m145 204 2 2-2-2Z"/><path fill="#C7C8CC" id="alv" d="m385 206-2 1c0-1.238.423-3 2-3v2Z"/><path fill="#FF64FF" id="MB" d="m310 205-1 2 1-2Z"/><path fill="#C8CBCC" id="ec" d="M383 207v2c1.577 0 2-1.762 2-3l-2 1Z"/><path fill="#FF64FF" id="MB" d="m148 207 1 1-1-1Z"/><path fill="#FF8EFE" id="PN" d="M237 208h1l-1-1v1Z"/><path fill="#FF64FF" id="MB" d="m309 207-1 1 1-1Z"/><path fill="#C7C8CC" id="alv" d="M382 209h1v-2l-1 2Z"/><path fill="#FDA6FE" id="IPDL" d="m223 216-5 1-4-2c0-1.463 3.486-7 5-7l2 2 2 5v1ZM234 217h4l5-2-5-7h-1l-2 2-2 5 1 2Z"/><path fill="#FF64FF" id="MB" d="m308 208-1 1 1-1ZM150 209l8 6c-1.696 0-8-3.804-8-6ZM306 209l-1 1 1-1Z"/><path fill="#C7C8CC" id="alv" d="M381 211h1v-2l-1 2Z"/><path fill="#C8CBCC" id="ec" d="m383 209-1 2v-2h1Z"/><path fill="#CACCC8" id="ml" d="M205 234c1.048 0 3-.473 3 1 1.647 0 7-1.268 7-3l-1-3-1-2v-1c-1.985 0-2.696-7-6-7-4.917 0-13.145-5-15-5-.492 0-9.325-7.151-6-.5l1 1.5v3c0 2.773 4 3.67 4 6 0 3.456 7.029 8 10 8l1 1c1.048 0 3-.473 3 1ZM251 234l-3 1c-2.971 0-4.768-3-7-3l1-3 1-2c2.573 0 2.91-8 7-8 4.63 0 11.317-5 14-5l1-1c4.433 0 5-5.3 5 2v3c-1.077 0-3 3.762-3 5l-2 3.5-9 5.5-2 1c-1.048 0-3-.473-3 1Z"/><path fill="#FF64FF" id="MB" d="m304 211-1 1 1-1Z"/><path fill="#C7C8CC" id="alv" d="M380 212h1v-1l-1 1Z"/><path fill="#C8CBCC" id="ec" d="m382 211-1 1v-1h1ZM75 212c1.59 0 6 5.662 6 7-1.557 0-6-5.116-6-7Z"/><path fill="#FF64FF" id="MB" d="m303 212-1 1 1-1Z"/><path fill="#C7C8CC" id="alv" d="m380 212-1 1 1-1Z"/><path fill="#C8CBCC" id="ec" d="M379 213v2c1.577 0 2-1.762 2-3h-1l-1 1Z"/><path fill="#57B947" id="ProS" d="M103 237h1c8.628 0 14.655-13 23-13l-10-11c-4.353 0-16.031 8.766-20.5 11l-5.5 3v2h1l4 4h1l5 4h1Z"/><path fill="#FF64FF" id="MB" d="m265 213-1 1 1-1ZM301 213l-1 1 1-1Z"/><path fill="#57B947" id="ProS" d="M354 237h1l1-1 1-1 2-1 1-1c0-1.577 1.762-2 3-2 0-1.747.253-2 2-2l1-1v-1c-5.609 0-20.356-14-27-14l-9 10c0 1.76 4.288 3.394 5.5 4 5.353 2.677 10.189 10 16.5 10h2Z"/><path fill="#C7C8CC" id="alv" d="m379 215-2 1c0-1.238.423-3 2-3v2Z"/><path fill="#FF64FF" id="MB" d="m300 214-1 1 1-1ZM159 215c1.39 0 9 5.408 9 7-1.576 0-9-5.242-9-7Z"/><path fill="#FEA5FF" id="IPL" d="M221 232h1v-1c0-4.412-4-9.083-4-14l-4-2c-1.773 0-1 9.259-1 11v1c1.747 0 2 .253 2 2l6 3Z"/><path fill="#FFA5FE" id="IPC" d="M227 233h3l3-1v-1l1-14-1-2c0 2.068-8.864 0-10 0v16l1 1h1l1 1h1Z"/><path fill="#FEA5FF" id="IPL" d="M234 232h1l6-3 2-2v-12l-5 2c0 5.081-4 10.656-4 14v1Z"/><path fill="#FF64FF" id="MB" d="m298 215-1 1 1-1Z"/><path fill="#C8CBCC" id="ec" d="M377 216v1c1.747 0 2-.253 2-2l-2 1Z"/><path fill="#FEA6FD" id="IPI" d="M222 231h1v-15l-5 1c0 4.917 4 9.588 4 14Z"/><path fill="#FF64FF" id="MB" d="m297 216-2 1 2-1Z"/><path fill="#C7C8CC" id="alv" d="M376 217h1v-1l-1 1Z"/><path fill="#FEA6FD" id="IPI" d="M233 231h1c0-3.344 4-8.919 4-14h-4l-1 14Z"/><path fill="#FF64FF" id="MB" d="M295 217c-1.238 0-3 .423-3 2 1.238 0 3-.423 3-2Z"/><path fill="#C7C8CC" id="alv" d="M375 219h1v-2l-1 2Z"/><path fill="#C8CBCC" id="ec" d="m377 217-1 2v-2h1Z"/><path fill="#FF64FF" id="MB" d="m180 219 11 5c0-2.33-4-3.227-4-6-1.819 0-4.591 1-7 1ZM276 219c0 1.289-7.597 4-9 4 0-1.238 1.923-5 3-5 1.564 0 3.876 1 6 1ZM292 219l-1 1 1-1Z"/><path fill="#C7C8CC" id="alv" d="M374 220h1v-1l-1 1Z"/><path fill="#C8CBCC" id="ec" d="m376 219-1 1v-1h1ZM89 229h1l-9-9 5 6 3 3Z"/><path fill="#FF64FF" id="MB" d="m291 220-1 1 1-1Z"/><path fill="#C7C8CC" id="alv" d="M373 221h1v-1l-1 1Z"/><path fill="#C8CBCC" id="ec" d="m375 220-1 1v-1h1Z"/><path fill="#FF64FF" id="MB" d="m290 221-1 1 1-1Z"/><path fill="#C7C8CC" id="alv" d="M372 222h1v-1l-1 1Z"/><path fill="#C8CBCC" id="ec" d="m374 221-1 1v-1h1Z"/><path fill="#FF64FF" id="MB" d="m289 222-1 1 1-1Z"/><path fill="#C7C8CC" id="alv" d="M371 223h1v-1l-1 1Z"/><path fill="#C8CBCC" id="ec" d="m373 222-1 1v-1h1Z"/><path fill="#33B931" id="HATA" d="M351 241c-4.763 0-11.984 10-19 10-1.149 0-1.508-4.516-2-5.5l-5-16.5 1-2 1-1 3-3c0 1.76 4.288 3.394 5.5 4 5.353 2.677 10.189 10 16.5 10l1 2-1 1-1 1Z"/><path fill="#C7C8CC" id="alv" d="M370 224h1v-1l-1 1Z"/><path fill="#C8CBCC" id="ec" d="m372 223-1 1v-1h1Z"/><path fill="#33B931" id="HATA" d="M107 242c5.761 0 10.373 9 17 9 1.845 0 1.441-3.381 2-4.5 2.454-4.907 5-12.776 5-18.5l-1-2-3-2c-8.345 0-14.372 13-23 13v2l1 1v1h1l1 1Z"/><path fill="#FF64FF" id="MB" d="m287 224-1 1 1-1Z"/><path fill="#C7C8CC" id="alv" d="M369 225h1v-1l-1 1Z"/><path fill="#C8CBCC" id="ec" d="m371 224-1 1v-1h1Z"/><path fill="#FF64FF" id="MB" d="m286 225-1 1 1-1Z"/><path fill="#C7C8CC" id="alv" d="M368 226h1v-1l-1 1Z"/><path fill="#C8CBCC" id="ec" d="M369 226h1v-1h-1v1Z"/><path fill="#8AD987" id="CTXsp" d="M85 229h4l-3-3-1 1v2Z"/><path fill="#7DCD4B" id="HPF" d="m132 227-1 1-1-2 2 1ZM327 226l-1 1 1-1Z"/><path fill="#C7C8CC" id="alv" d="M367 227h1v-1l-1 1Z"/><path fill="#C8CBCC" id="ec" d="m369 226-1 1v-1h1Z"/><path fill="#8AD987" id="CTXsp" d="M367 229h4l1-2-2-1h-1l-1 1-1 1v1Z"/><path fill="#99D2BD" id="OLF" d="M75 229h10v-2h-5c-1.424 0-5 .362-5 2Z"/><path fill="#FF64FF" id="MB" d="M214 229h1c0-1.747-.253-2-2-2l1 2ZM241 229h1l1-2-2 2Z"/><path fill="#7DCD4B" id="HPF" d="m326 227-1 2v-2h1Z"/><path fill="#C7C8CC" id="alv" d="M366 228h1v-1h-1v1Z"/><path fill="#C8CBCC" id="ec" d="m368 227-1 1v-1h1Z"/><path fill="#99D2BD" id="OLF" d="M371 229h11c0-1.014-3.959-2-5-2h-5l-1 2Z"/><path fill="#FF64FF" id="MB" d="m173 228 1 1-1-1Z"/><path fill="#C7C8CC" id="alv" d="M365 229h1v-1l-1 1Z"/><path fill="#C8CBCC" id="ec" d="M366 229h1v-1h-1v1Z"/><path fill="#A8ECD2" id="TR" d="m92 259-2 2c-6.663 0-32.082-11.664-35-17.5-1.36-2.719-8-4.678-8-8.5 1.406 0 7 .714 7-1l9-2c1.246 0 8-1.554 8-3h19l1 1 7 5 2 1 1 1 2 3c0 5.778-4 11.241-4 13-1.238 0-3 .423-3 2h-1l-2 2-1 2Z"/><path fill="#8AD987" id="CTXsp" d="M91 229v1l-1-1h1Z"/><path fill="#C8CBCC" id="ec" d="m97 233 1 2-7-5v-1h1l4 4h1Z"/><path fill="#C7C8CC" id="alv" d="m92 229 4 4-4-4Z"/><path fill="#FF9B88" id="P" d="M215 232h6l-6-3h-1l1 3ZM235 232h6l1-3h-1l-6 3Z"/><path fill="#C7C8CC" id="alv" d="M363 231h1l1-1v-1c-1.747 0-2 .253-2 2Z"/><path fill="#C8CBCC" id="ec" d="m366 229-1 1v-1h1Z"/><path fill="#A8ECD2" id="TR" d="m365 260 1 1c7.398 0 29.064-10.564 34.5-16 2.406-2.406 8.5-6.602 8.5-10h-6l-10-3c-1.246 0-8-1.554-8-3h-19l-1 1-1 1h-1l-2 2-1 1-1 1h-1l-1 1-1 1h-1l-1 1v1l-1 1c0 5.382 4 8.719 4 13h1c2.54 0 7 3.891 7 6v1Z"/><path fill="#C8CBCC" id="ec" d="m365 230-1 1 1-1Z"/><path fill="#FFA6FE" id="IPN" d="M222 232h2l-1-1h-1v1ZM233 232h1v-1h-1v1Z"/><path fill="#C7C8CC" id="alv" d="M360 233h1l2-2c-1.238 0-3 .423-3 2Z"/><path fill="#FF64FF" id="MB" d="M201 233h1l-1-1v1Z"/><path fill="#FFB885" id="PG" d="M208 235c0 3.608-15.315 4-19 4h-10.5c-5.869 2.934 2.922 23.343 4.5 26.5 2.733 5.467 32.474 4.013 37.5 1.5l4.5-10.5c2.527-5.054 1.342-17.316-1-22l-2-2.5h-7c0 1.732-5.353 3-7 3Z"/><path fill="#FF9B88" id="P" d="M289 261h1c0 9.194-15.51 8.505-20.5 11-2.996 1.498-35.367.816-39-1l-2-2-3 2c-3.921 1.96-28.868 2-33.5 2-5.425 0-27-5.614-27-13l2 1c3.976 0 10.594 11.453 15.5 9 2.417-1.209-4.773-9.046-5.5-10.5-3.236-6.472-2-13.742-2-20.5 1.32 0 10-3.135 10-4h6v2c-1.747 0-2 .253-2 2h-10.5c-5.869 2.934 2.922 23.343 4.5 26.5 2.733 5.467 32.474 4.013 37.5 1.5l4.5-10.5c2.527-5.054 1.342-17.316-1-22l-2-2.5h3l1 1h1c0 3.55 3 2.932 3 0l3-1h2l-2 1.5c-1.855 3.709-4.327 17.345-2 22 1.62 3.24 2.76 10.63 6.5 12.5 6.195 3.098 34.233 2.033 37.5-4.5 1.398-2.796 7.049-22.225 2.5-24.5H267c0-1.747-.253-2-2-2l1-2h5c0 .245 9.023 4 10 4l2 3.5c.498.996-3.3 16.6-4 18-.664 1.329-7.388 8.556-5.5 9.5 5.422 2.711 11.395-9 15.5-9Z"/><path fill="#FFB885" id="PG" d="M248 235c0 3.359 15.3 4 19 4h10.5c4.549 2.275-1.102 21.704-2.5 24.5-3.267 6.533-31.305 7.598-37.5 4.5-3.74-1.87-4.88-9.26-6.5-12.5-2.327-4.655.145-18.291 2-22l2-1.5h6c2.232 0 4.029 3 7 3Z"/><path fill="#FF64FF" id="MB" d="M254 233h2v-1l-2 1Z"/><path fill="#C7C8CC" id="alv" d="M101 237h1l-5-4 1 2 2 1 1 1Z"/><path fill="#F0F080" id="CB" d="m162 233-1 1 1-1Z"/><path fill="#CCCCCA" id="mcp" d="M175 239c0 6.758-1.236 14.028 2 20.5.727 1.454 7.917 9.291 5.5 10.5-4.906 2.453-11.524-9-15.5-9 0-6.557-8-15.011-8-25v-1l2-1 1-1c4.213 0 6.494 4 10 4l1 1 2 1Z"/><path fill="#C8C7CC" id="cst" d="M202 235c0 4.345-8.761 2-11 2v-2c0-3.163 7.871-2 10-2v1l1 1ZM266 235l-1 2c-2.69 0-10 2.69-10-2v-1l1-1h8.5l1.5 2Z"/><path fill="#CCCCCA" id="mcp" d="m290 260-1 1c-4.105 0-10.078 11.711-15.5 9-1.888-.944 4.836-8.171 5.5-9.5.7-1.4 4.498-17.004 4-18l-2-3.5 2-1 1-1h1l1-1c2.876 0 5.183-3 9-3 0 2.608 3.889 6.723 2 10.5-2.148 4.297-6 10.524-6 15.5l-1 1Z"/><path fill="#F0F080" id="CB" d="M295 233c9.657 0-1.957 26-4 26 0-4.976 3.852-11.203 6-15.5 1.889-3.777-2-7.892-2-10.5Z"/><path fill="#C7C8CC" id="alv" d="M359 234h1v-1l-1 1Z"/><path fill="#C8CBCC" id="ec" d="m361 233-1 1v-1h1Z"/><path fill="#F0F080" id="CB" d="m161 234-2 1 2-1Z"/><path fill="#FF9B88" id="P" d="M205 234c0 1.473-1.952 1-3 1l-1-1h4Z"/><path fill="#FEBA85" id="TRN" d="M191 237c-1.747 0-2 .253-2 2 3.685 0 19-.392 19-4 0-1.473-1.952-1-3-1 0 1.473-1.952 1-3 1 0 4.345-8.761 2-11 2ZM265 237c1.747 0 2 .253 2 2-3.7 0-19-.641-19-4l3-1h1c0 1.473 1.952 1 3 1 0 4.69 7.31 2 10 2Z"/><path fill="#FF9B88" id="P" d="M255 234v1c-1.048 0-3 .473-3-1h3Z"/><path fill="#C7C8CC" id="alv" d="M358 235h1v-1l-2 1h1Z"/><path fill="#C8CBCC" id="ec" d="m360 234-1 1v-1h1Z"/><path fill="#C7C8CC" id="alv" d="M356 236h1v-1l-1 1Z"/><path fill="#C8CBCC" id="ec" d="m358 235-1 1v-1h1ZM100 236l1 1-1-1Z"/><path fill="#F0F080" id="CB" d="m165 260 2 1c0-6.557-8-15.011-8-25-2.993 0-1 5.021-1 6.5 0 6.23 7 11.685 7 17.5ZM286 236l-1 1 1-1Z"/><path fill="#C7C8CC" id="alv" d="M355 237h1v-1l-1 1Z"/><path fill="#C8CBCC" id="ec" d="m357 236-1 1v-1h1Z"/><path fill="#7DCD4B" id="HPF" d="M103 237v1l-1-1h1Z"/><path fill="#C7C8CC" id="alv" d="M103 238h1v-1h-1v1Z"/><path fill="#F0F080" id="CB" d="m172 237 1 1-1-1ZM284 237l-1 1 1-1Z"/><path fill="#7DCD4B" id="HPF" d="M353 239h1v-1l-1-1h-1l1 2Z"/><path fill="#C7C8CC" id="alv" d="M354 237v1l-1-1h1Z"/><path fill="#C8CBCC" id="ec" d="m355 237-1 1v-1h1ZM104 238v1l-1-1h1Z"/><path fill="#7DCD4B" id="HPF" d="m104 239 1 1-1-1ZM352 240h1v-1l-1 1Z"/><path fill="#97EC93" id="PA" d="M99 253h9.5l6 2 3.5 3c2.587 0 6-4.479 6-7-6.627 0-11.239-9-17-9l-1-1h-1l-2-1c0 5.778-4 11.241-4 13Z"/><path fill="#7DCD4B" id="HPF" d="m352 240-1 1 1-1Z"/><path fill="#97EC93" id="PA" d="M357 253h-9.5l-9.5 5c-1.871 0-6-5.4-6-7 7.016 0 14.237-10 19-10l1-1h1c0 5.382 4 8.719 4 13Z"/><path fill="#7DCD4B" id="HPF" d="m106 241 1 1-1-1Z"/><path fill="#5FE6B7" id="COApl" d="M99 253c-1.238 0-3 .423-3 2 1.238 0 3-.423 3-2Z"/><path fill="#60E6B5" id="COApm" d="M92 259v4c.69 0 5.914 4.207 7.5 5 3.07 1.535 18.5-8.063 18.5-10l-3.5-3-6-2H99c0 1.577-1.762 2-3 2h-1c0 1.747-.253 2-2 2l-1 2ZM365 262l-1 1-2.5 2-4 3c-3.731 1.866-19.5-8.538-19.5-10l9.5-5H358l7 6v3Z"/><path fill="#5FE6B7" id="COApl" d="M358 253c2.54 0 7 3.891 7 6l-7-6ZM95 255l-2 2c1.747 0 2-.253 2-2ZM93 257l-1 2 1-2ZM90 261l2 2v-4l-2 2Z"/><path fill="#F0F080" id="CB" d="M290 260h1v-1l-1 1ZM289 261h1v-1l-1 1Z"/><path fill="#FF9B88" id="P" d="m291 260-1 1v-1h1Z"/><path fill="#5FE6B7" id="COApl" d="m366 261-1 1v-2l1 1ZM365 262l-1 1 1-1Z"/></svg>