<svg xmlns="http://www.w3.org/2000/svg" viewBox="0 0 456 320"><path fill="#1BA696" id="RSPagl1" d="m189 13-16 2v-4c0-3.215 13.361-2 16-2v4Z"/><path fill="#1BA598" id="RSPd1" d="m219 22-2 1-8.5-7c-5.637-2.819-12.679-3-19.5-3V9c8.511 0 30 1.823 30 13ZM239 24h1c0-9.086 21.045-11 28-11V9c-10.738 0-23.779.059-29 10.5l-2 2.5 2 2Z"/><path fill="#1BA696" id="RSPagl1" d="M268 13c5.501 0 9.38 2 15 2l1-4-3.5-2H268v4Z"/><path fill="#0A8589" id="VISpm1" d="M173 16c-6.339 0-13.113 3-19 3l-1-4c0-1.638 3.576-2 5-2 5.621 0 9.129-2 15-2v5ZM283 16c6.865 0 13.63 3 20 3l1-4-3.5-2c-2.331-1.165-13.375-2-16.5-2l-1 4v1Z"/><path fill="#1AA496" id="RSPagl2/3" d="M174 22v1l14-4c0-2.488 1-3.99 1-6l-16 2v1c0 2.124 1 4.436 1 6Z"/><path fill="#1BA697" id="RSPd2/3" d="M212 27h1l4-3v-1l-8.5-7c-5.637-2.819-12.679-3-19.5-3 0 2.01-1 3.512-1 6 5.364 0 24 .89 24 8ZM244 27h1c0-7.316 17.172-8 23-8v-6c-6.955 0-28 1.914-28 11l4 3Z"/><path fill="#1AA496" id="RSPagl2/3" d="M283 22v1l-14-4h-1v-6c5.501 0 9.38 2 15 2v7Z"/><path fill="#098589" id="VISp1" d="M87 49h1c0-3.432 12.007-7.754 14.5-9 11.717-5.858 38.897-21 51.5-21l-1-4c-10.962 0-36.569 11.034-46.5 16-3.243 1.621-19.818 14-21.5 14l2 4ZM369 49h1l1-4c0-3.346-12.977-8.739-15.5-10-12.449-6.224-37.58-20-51.5-20l-1 4c8.864 0 41.425 15.463 50.5 20L369 49Z"/><path fill="#08858B" id="VISpm2/3" d="M174 22c-6.296 0-10.581 5-17 5-1.802 0-3-6.346-3-8 5.887 0 12.661-3 19-3 0 2.124 1 4.436 1 6ZM283 22l17 6 3-9c-6.37 0-13.135-3-20-3v6Z"/><path fill="#0A828C" id="VISp2/3" d="m88 49 3 7 16.5-9c7.542-3.771 42.65-19 49.5-19v-1c-1.802 0-3-6.346-3-8-12.603 0-39.783 15.142-51.5 21-2.493 1.246-14.5 5.568-14.5 9Z"/><path fill="#1CA697" id="RSPagl5" d="M185 30c-4.391 0-8.074 5-12 5l1-12 14-4c0 3.448-3 7.274-3 10v1Z"/><path fill="#1AA596" id="RSPd5" d="M185 29c4.912 0 14-3.451 14 5 3.396 0 6.376-3.938 8.5-5 1.119-.56 4.5-.155 4.5-2 0-7.11-18.636-8-24-8 0 3.448-3 7.274-3 10ZM271 29c-3.725 0-14-3.334-14 4-2.46 0-12-4.589-12-6 0-7.316 17.172-8 23-8h1c0 3.942 2 6.745 2 10Z"/><path fill="#1CA697" id="RSPagl5" d="M272 30c3.648 0 7.682 5 11 5V23l-14-4c0 3.942 2 6.745 2 10l1 1Z"/><path fill="#0A828C" id="VISp2/3" d="m369 49-4 7c-2.709 0-12.399-7.45-15.5-9-6.548-3.274-44.096-19-49.5-19l3-9c8.864 0 41.425 15.463 50.5 20L369 49Z"/><path fill="#09828B" id="VISpm4" d="M157 31h1l16-8v-1c-6.296 0-10.581 5-17 5v4Z"/><path fill="#1BA597" id="RSPv1" d="m174 71 3 1c4.654 0 8.5-7 14-7 0-3.108 23.205-7.91 26-13.5 1.491-2.983 7.509-20.982 6-24l-4-5.5-2 1v1c0 2.613.93 4.36 2 6.5.826 1.653-.405 3.81-1 5l-1 6c-2.987 5.974-8.632 10.566-14.5 13.5-4.781 2.39-28.5 10.099-28.5 16ZM283 70l-3 2c-2.709 0-12.399-7.45-15.5-9-6.977-3.488-21.273-4.046-25.5-12.5-2.82-5.64-3.154-12.309-6-18-2.146-4.293 4-7.32 4-10.5l2 2-1 12.5 4 10c3.391 6.782 21.289 11.395 27.5 14.5l13.5 9Z"/><path fill="#09828B" id="VISpm4" d="m300 28-1 3-16-7v-2l17 6Z"/><path fill="#088489" id="VISpm5" d="m173 35-12 5c0-2.675-3-5.922-3-9l16-8-1 12Z"/><path fill="#1AA597" id="RSPv2/3" d="m170 67 4 4c0-5.901 23.719-13.61 28.5-16 5.868-2.934 11.513-7.526 14.5-13.5l1-6c.595-1.19 1.826-3.347 1-5-1.07-2.14-2-3.887-2-6.5l-4 3 1 9.5c-7.287 14.574-18.227 14.863-31.5 21.5-3.317 1.658-9.471 9-12.5 9ZM286 67l-3 3-13.5-9c-6.211-3.105-24.109-7.718-27.5-14.5l-4-10 1-12.5h1l4 3c0 2.681-2.592 8.316-1 11.5 6.444 12.889 22.16 14.83 33.5 20.5 3.277 1.638 6.272 8 9.5 8Z"/><path fill="#088489" id="VISpm5" d="m283 35 12 5 2-1.5c.65-1.3.007-6.5 2-6.5v-1l-16-7v11Z"/><path fill="#1BA498" id="RSPv5" d="m167 64 3 3c3.029 0 9.183-7.342 12.5-9 13.273-6.637 24.213-6.926 31.5-21.5l-1-9.5h-1c0 1.845-3.381 1.44-4.5 2-2.124 1.062-5.104 5-8.5 5 0 10.745-19.413 13.913-25 19.5-1.866 1.866-4.552 10.5-7 10.5ZM289 64l-3 3c-3.228 0-6.223-6.362-9.5-8-11.34-5.67-27.056-7.611-33.5-20.5-1.592-3.184 1-8.819 1-11.5h1c0 1.411 9.54 6 12 6v1c0 7.005 17.889 15.195 23.5 18 3.763 1.882 5.007 6.515 6.5 9.5l2 2.5Z"/><path fill="#0B848B" id="VISp4" d="M91 57c1.365 0 4 2.366 4 4l9.5-6c12.613-6.306 26.344-10.672 39-17 2.13-1.065 13.5-4.358 13.5-7v-3c-6.85 0-41.958 15.229-49.5 19L91 56v1Z"/><path fill="#1AA697" id="RSPd6a" d="M178 41h1c6.971 0 13.408-7 20-7 0-8.451-9.088-5-14-5v1l-7 10v1ZM277 41h2v-1c-2.775 0-7-7.832-7-10l-1-1c-3.725 0-14-3.334-14 4v1c6.56 0 13.215 7 20 7Z"/><path fill="#0B848B" id="VISp4" d="m365 56-4 4c-3.994 0-9.914-5.207-13.5-7-10.853-5.426-23.187-8.594-34-14L299 32v-1l1-3c5.404 0 42.952 15.726 49.5 19 3.101 1.55 12.791 9 15.5 9Z"/><path fill="#1CA597" id="RSPagl6a" d="M173 41h2c0-1.473 1.952-1 3-1l7-10c-4.391 0-8.074 5-12 5v6ZM279 40l4 1v-6c-3.318 0-7.352-5-11-5 0 2.168 4.225 10 7 10Z"/><path fill="#088389" id="VISp5" d="M99 69h1l13.5-8c9.219-4.61 19.782-7.391 29-12 5.231-2.616 12.431-8 18.5-8v-1c0-2.675-3-5.922-3-9h-1c0 2.642-11.37 5.935-13.5 7-12.656 6.328-26.387 10.694-39 17L95 61l4 8ZM361 61l-4 8c-4.473 0-10.547-6.024-14.5-8-7.006-3.503-41.781-20-47.5-20v-1l2-1.5c.65-1.3.007-6.5 2-6.5l14.5 7c10.813 5.406 23.147 8.574 34 14 3.586 1.793 9.506 7 13.5 7v1Z"/><path fill="#1AA498" id="RSPv6a" d="m166 63 1 1c2.448 0 5.134-8.634 7-10.5 5.587-5.587 25-8.755 25-19.5-6.592 0-13.029 7-20 7v1c0 2.003.293 3-2 3l-1 1c0 6.044-10 10.121-10 17ZM290 62l-1 2-2-2.5c-1.493-2.985-2.737-7.618-6.5-9.5-5.611-2.805-23.5-10.995-23.5-18 6.56 0 13.215 7 20 7v1l3 4c.979 0 10 13.632 10 16Z"/><path fill="#09858B" id="VISpm6a" d="M163 46h1c3.055 0 5.429-5 9-5v-6l-12 5v1l2 5ZM295 41l-2 5-10-5v-6l12 5v1Z"/><path fill="#1AA598" id="RSPagl6b" d="M177 41h1v-1c-1.048 0-3-.473-3 1h2ZM283 41v1l-4-1v-1l4 1Z"/><path fill="#08858C" id="VISp6a" d="m111 71-8 4-3-6 13.5-8c9.219-4.61 19.782-7.391 29-12 5.231-2.616 12.431-8 18.5-8l2 5-16 9c-1.465 0-4-.109-4 2-1.761 0-10 2.307-10 4-2.254 0-14 3.816-14 6-1.465 0-4-.109-4 2-1.465 0-4-.109-4 2Z"/><path fill="#088589" id="VISpm6b" d="M164 46v1c1.272 0 9-4.405 9-5v-1c-3.571 0-5.945 5-9 5Z"/><path fill="#1AA598" id="RSPagl6b" d="m175 41-2 1v-1h2Z"/><path fill="#CACCC7" id="cing" d="M165 63h1c0-6.879 10-10.956 10-17l1-1v-4h-2l-2 1c0 .595-7.728 5-9 5l-1 2 1 1c5.207 0 1 9.234 1 13Z"/><path fill="#1BA698" id="RSPd6b" d="M177 42h2v-1h-2v1ZM277 42h2v-1h-2v1Z"/><path fill="#CACCC7" id="cing" d="M290 62h1c0-3.077-3.664-12 2-12l1-1-1-2-10-5-4-1v1l1 4c.979 0 10 13.632 10 16Z"/><path fill="#088589" id="VISpm6b" d="M293 46v1l-10-5v-1l10 5Z"/><path fill="#08858C" id="VISp6a" d="M353 75h1c0-1.408 1.197-5 3-5v-1c-4.473 0-10.547-6.024-14.5-8-7.006-3.503-41.781-20-47.5-20l-2 5v1l14.5 7c10.634 5.317 22.275 8.637 33 14 1.961.98 12.5 4.8 12.5 7Z"/><path fill="#1AA497" id="RSPv6b" d="M179 42c0 2.003.293 3-2 3v-3h2ZM279 42l1 4-3-4h2Z"/><path fill="#09848A" id="VISl1" d="m64 64 3 2 20-17-2-4c-1.032 0-21 17.233-21 19Z"/><path fill="#1AA497" id="RSPv6b" d="m177 45-1 1 1-1Z"/><path fill="#09848A" id="VISl1" d="m392 63-3 3-19-17 1-4c5.003 0 18.774 18 21 18Z"/><path fill="#08858A" id="VISp6b" d="M147 55h4c0-2.132 9.957-6 12-6l1-2v-1h-1l-16 9ZM353 75v1c-3.676 0-7.339-4.42-10.5-6-5.106-2.553-32.443-15-36.5-15 0-2.132-9.957-6-12-6l-1-2 14.5 7c10.634 5.317 22.275 8.637 33 14 1.961.98 12.5 4.8 12.5 7Z"/><path fill="#0A8489" id="VISl2/3" d="M72 72h1c0-1.351 15.916-15 18-15v-1l-3-7h-1L67 66v1c1.26 0 5 3.346 5 5Z"/><path fill="#C9C9CA" id="scwm" d="M151 55v1c1.744 0 13-4.788 13-6l-1-1c-2.043 0-12 3.868-12 6ZM306 55l-1 1c-1.497 0-12-4.576-12-6l1-1c2.043 0 12 3.868 12 6Z"/><path fill="#0A8489" id="VISl2/3" d="m389 67-5 4c-7.325 0-11.77-15-19-15l4-7h1l19 17v1Z"/><path fill="#C8C9CA" id="fp" d="M58 143h2l1-2v-2l1-2 1-2v-2l1-1 1-2v-1l1-2 1-1v-1l1-1 1-2 1-2 1-1v-1l1-1 1-1v-1l1-1 1-1 1-2 1-1c0-1.238.423-3 2-3l1-1 1-1c0-1.747.253-2 2-2v-1l1-1 1-1 1-1 1-1 1-1 1-1 2-1 1-1 1-1 2-2h1l1-1 1-1h1c0-1.747.253-2 2-2 0-1.577 1.762-2 3-2l1-1 2-1c0-1.577 1.762-2 3-2l2-1 1-1h1c0-1.577 1.762-2 3-2h1c0-2.109 2.535-2 4-2h1c0-1.89 4.598-3 6-3 0-4.088 7.365-3.932 9.5-5 8.8-4.4 24.5-14.443 24.5 3 2.867 0 2-5.149 2-7 0-3.766 4.207-13-1-13 0 1.212-11.256 6-13 6 0 3.602-6.94 3.72-9.5 5-11.213 5.606-22.772 10.386-34 16-10.028 5.014-17.464 13.464-26 22L73 109c0 5.218-5.75 11.001-8 15.5-.424.847-4 7.86-4 5.5l-1 1c2.264 0-2 10.34-2 12ZM397 143h1c0-8.365-5.514-14.527-9-21.5-10.207-20.413-26.645-38.073-47.5-48.5-8.803-4.402-18.188-7.594-27-12-1.971-.986-9.5-1.52-9.5-5-1.497 0-12-4.576-12-6-5.664 0-2 8.923-2 12 0 3.284-.019 9 4 9 0-1.804-2.182-5.135-1-7.5 4.384-8.768 15.446-.527 21.5 2.5 2.979 1.49 11.5 1.463 11.5 6 1.345 0 7 1.57 7 3h1c1.572 0 7 2.052 7 4h1c1.238 0 3 .423 3 2h1l2 2h1l2 2h1l12 9 1 1c3.201 0 23 26.355 23 29v1l2 3v1l2 4v1l1 1v1l1 2v1l2 4Z"/><path fill="#08858A" id="VISp6b" d="M147 55c-1.465 0-4-.109-4 2 1.465 0 4 .109 4-2Z"/><path fill="#CBC9C7" id="or" d="M73 106c1.514 0 0 1.762 0 3l8.5-10c8.536-8.536 15.972-16.986 26-22 11.228-5.614 22.787-10.394 34-16 2.56-1.28 9.5-1.398 9.5-5v-1h-4c0 2.109-2.535 2-4 2l-1 1-1 1c-2.885 0-4.697 2-8 2 0 2.488-11.63 6-14 6 0 2.109-2.535 2-4 2 0 2.109-2.535 2-4 2 0 1.984-5.704 5-8 5l-2 1c0 1.812-5.824 6-8 6 0 1.198-4.298 6-6 6l-6 6c0 1.634-2.635 4-4 4 0 2.83-4 4.54-4 7ZM398 143c0 1.541.85 10 3 10 0-5.172-1-10.365-1-15l-1-1-1-2-1-1v-2l-1-1v-1l-1-1v-2l-1-1-1-3-2-2-1-3-1-1v-1l-2-2c0-3.588-4-4.43-4-8 0-4.863-7-6.089-7-11l-7-7c-4.078 0-9.117-7.308-12.5-9l-3.5-3c-3.676 0-7.339-4.42-10.5-6-5.106-2.553-32.443-15-36.5-15l-1 1c0 3.48 7.529 4.014 9.5 5 8.812 4.406 18.197 7.598 27 12 20.855 10.427 37.293 28.087 47.5 48.5 3.486 6.973 9 13.135 9 21.5Z"/><path fill="#08828B" id="VISl4" d="m384 72-3 3c-3.625 0-13.984-14-20-14v-1l4-4c7.23 0 11.675 15 19 15v1ZM73 72l2 3c3.87 0 13.7-14 20-14 0-1.634-2.635-4-4-4-2.084 0-18 13.649-18 15Z"/><path fill="#08858A" id="VISp6b" d="M141 59c-2.885 0-4.697 2-8 2 0-1.693 8.239-4 10-4l-1 1-1 1Z"/><path fill="#FF7AFD" id="SCzo" d="M289 87h1l-1-3c0-1.518-5.218-8-7-8l-8.5-6c-9.263-4.631-18.78-8.39-28-13-4.987-2.493-13.297 2.094-15.5 6.5l-1.5 5.5-1.5-4.5-7.5-7.5c-7.631-3.815-21.089 8-28.5 8 0 2.162-11.844 8-14 8v2c3.655 0 7.335-4.417 10.5-6 15.183-7.592 38.5-20.47 38.5 8h4c0-32.508 29.623-11.438 44.5-4 4.184 2.092 14.5 8.37 14.5 14Z"/><path fill="#C9C9CA" id="scwm" d="m142 58-1 1 1-1Z"/><path fill="#C9CCC9" id="dhc" d="M157 74c-1.048 0-3-.473-3 1l-6-1-1-1h-2c0-3.975-13.885-1-16-1 0-4.088 7.365-3.932 9.5-5 8.8-4.4 24.5-14.443 24.5 3l-1 1-1 1-1 1h-2l-1 1Z"/><path fill="#FF78FF" id="SCsg" d="M167 86v1l16.5-8c8.504-4.252 18.437-5.719 27-10 8.437-4.218 13.907 8 15.5 8 0-28.47-23.317-15.592-38.5-8-3.165 1.583-6.845 6-10.5 6 0 1.159-6.162 8-8 8 0 1.238-.423 3-2 3ZM230 77c3.113 0 7.092-12.204 15.5-8l27 10 16.5 8c0-5.63-10.316-11.908-14.5-14-14.877-7.438-44.5-28.508-44.5 4Z"/><path fill="#C9CCC9" id="dhc" d="m308 74-6 1-4-2h-1l-1-1-1-1c0-1.804-2.182-5.135-1-7.5 4.384-8.768 15.446-.527 21.5 2.5 2.979 1.49 11.5 1.463 11.5 6-1.953 0-15-3.224-15 1h-3l-1 1Z"/><path fill="#0B858B" id="VISl5" d="M82 83h1c0-3.89 16-11.663 16-14l-4-8c-6.3 0-16.13 14-20 14v1l7 7Z"/><path fill="#08858A" id="VISp6b" d="M133 61c-2.254 0-14 3.816-14 6 2.37 0 14-3.512 14-6Z"/><path fill="#0B858B" id="VISl5" d="M374 83h1c0-1.17 3.976-7 6-7v-1c-3.625 0-13.984-14-20-14l-4 8v1c1.839 0 17 11.8 17 13Z"/><path fill="#47C83C" id="POST" d="M313 97c0 1.684-4.679 1-6 1l-2-1c-5.728 0-13.248-13-16-13 0-1.518-5.218-8-7-8l-2-4 3-2 3-3 3-3 1-2h1c0 3.284-.019 9 4 9l1 1 1 1h1l2 2c0 2.203-3.465 4.569-2 7.5 2.981 5.963 7.11 14.5 15 14.5ZM151 97h1l1-1c5.994 0 6.868-9 12-9l1-1 1-1 1-2 1-1 2-3 1-1 1-1 1-1 1-1 2-2v-1l-3-1-4-4-3-3-1-1h-1c0 1.851.867 7-2 7l-1 1-1 1-1 1h-2l-1 1v1l2 5.5c-3.45 6.9-6.906 16.5-16 16.5 0 1.684 4.679 1 6 1l2-1Z"/><path fill="#0C858C" id="VISli1" d="M396 75h1l3-3c0-1.784-7.229-9-8-9l-3 3v1l7 8ZM60 75h1c0-1.512 4.962-8 6-8v-1l-3-2-7 7c0 1.114 2.034 4 3 4Z"/><path fill="#0A858A" id="VISli2/3" d="m61 75 4 5 7-8c0-1.654-3.74-5-5-5-1.038 0-6 6.488-6 8Z"/><path fill="#08858A" id="VISp6b" d="M119 67c-1.465 0-4-.109-4 2 1.465 0 4 .109 4-2Z"/><path fill="#0A858A" id="VISli2/3" d="m396 75-5 5-7-8v-1l5-4 7 8Z"/><path fill="#08848C" id="VISl6a" d="M86 88h1c0-1.901 4.332-5 6-5 0-2.289 6.178-6 8-6l2-2-3-6h-1c0 2.337-16 10.11-16 14 0 2.518 3 2.334 3 5Z"/><path fill="#08858A" id="VISp6b" d="M115 69c-1.465 0-4-.109-4 2 1.465 0 4 .109 4-2Z"/><path fill="#FD7AFF" id="SCop" d="M165 92c4.448 0 10.562-5.03 14.5-7 7.417-3.708 16.533-4.267 24-8h4c8.39-4.195 10.524 2.762 17 6l3-2c2.104-1.052 2.67 2 4 2 1.789 0 7.267-6.133 9-7 3.358-1.68 10.442.72 13 2 8.575 4.288 19.346 4.673 28 9 2.576 1.288 6.629 5 9.5 5l-1-5h-1l-16.5-8-27-10c-8.408-4.204-12.387 8-15.5 8h-4c-1.593 0-7.063-12.218-15.5-8-8.563 4.281-18.496 5.748-27 10L167 87h-1l-1 5Z"/><path fill="#C8C9CA" id="fp" d="m163 70-1 1 1-1Z"/><path fill="#08848C" id="VISl6a" d="m374 83-4 4c-3.743 0-9.124-7.312-12.5-9l-3.5-3c0-1.408 1.197-5 3-5 1.839 0 17 11.8 17 13Z"/><path fill="#15B0B3" id="TEa1" d="M49 81c0 2.424 2 2.76 2 4 1.875 0 9-8.374 9-10-.966 0-3-2.886-3-4-1.393 0-8 8.38-8 10Z"/><path fill="#08858A" id="VISp6b" d="M103 75v1c2.296 0 8-3.016 8-5l-8 4Z"/><path fill="#C7C8CC" id="alv" d="M130 73h15c0-3.975-13.885-1-16-1-1.402 0-6 1.11-6 3l7-2Z"/><path fill="#7DCD4B" id="HPF" d="m162 71-1 1 1-1Z"/><path fill="#C7C8CC" id="alv" d="m326 73 8 2c0-1.43-5.655-3-7-3-1.953 0-15-3.224-15 1h14Z"/><path fill="#08828C" id="VISli4" d="M67 83h1l7-7v-1l-2-3h-1l-7 8v1l2 2Z"/><path fill="#4FC244" id="SUB" d="m143 97-9 2c0-8.847-4-17.008-4-26h17l1 1 6 1h3l2 5.5c-3.45 6.9-6.906 16.5-16 16.5Z"/><path fill="#7DCD4B" id="HPF" d="m161 72-1 1 1-1ZM296 72l1 1-1-1Z"/><path fill="#4FC244" id="SUB" d="m313 97 9 1c0-8.109 4-16.134 4-25h-17l-1 1-6 1h-2c0 2.203-3.465 4.569-2 7.5 2.981 5.963 7.11 14.5 15 14.5Z"/><path fill="#08828C" id="VISli4" d="M388 83h1l2-2v-1l-7-8-3 3v1c2.336 0 7 4.664 7 7Z"/><path fill="#15B0B3" id="TEa1" d="M405 87h1c0-1.424.362-5 2-5 0-1.75-5.933-10-8-10l-3 3c0 4.672 8 7.328 8 12Z"/><path fill="#57B947" id="ProS" d="M134 99c-3.559 0-5.504 3-9 3-.787 0-2-4.678-2-5.5 0-6.707-4-13.261-4-19.5l3-2h1l7-2c0 8.992 4 17.153 4 26Z"/><path fill="#C7C8CC" id="alv" d="m147 73 1 1-1-1Z"/><path fill="#7DCD4B" id="HPF" d="m158 73-1 1 1-1ZM300 75h2l-4-2 2 2Z"/><path fill="#C7C8CC" id="alv" d="m309 73-1 1 1-1Z"/><path fill="#57B947" id="ProS" d="m322 98 10 5 5-26-2-2h-1l-8-2c0 8.866-4 16.891-4 25Z"/><path fill="#7DCD4B" id="HPF" d="M154 75h3v-1c-1.048 0-3-.473-3 1Z"/><path fill="#16AFB3" id="TEa2/3" d="m51 87 4 5 10-11v-1l-4-5h-1c0 1.626-7.125 10-9 10v2Z"/><path fill="#09858C" id="VISl6b" d="m103 76-2 1 2-2v1Z"/><path fill="#C7C8CC" id="alv" d="M118 77h1l3-2c-1.465 0-4-.109-4 2Z"/><path fill="#FF7AFD" id="SCzo" d="M169 82v1c1.838 0 8-6.841 8-8h-2l-1 1-1 1-1 1-1 1-2 3Z"/><path fill="#C7C8CC" id="alv" d="m337 77 5 2c0-1.948-5.428-4-7-4l2 2Z"/><path fill="#09858C" id="VISl6b" d="M369 88h1v-1c-3.743 0-9.124-7.312-12.5-9l-3.5-3h-1v1l3.5 3c3.383 1.692 8.422 9 12.5 9Z"/><path fill="#16AFB3" id="TEa2/3" d="m405 87-4 5-10-11v-1l5-5h1c0 4.672 8 7.328 8 12Z"/><path fill="#0A848A" id="VISli5" d="m82 83-7 7-7-7 7-7 7 7Z"/><path fill="#FF90FF" id="SCig" d="M161 133c0-21.292 20.729-33.614 37.5-42l13-4c1.058-.53 16.283 6 19 6 4.171 0 9.278-6 14-6 7.009 0 13.077 5.038 19 8 14.71 7.355 32.5 19.031 32.5 38 4.097 0 9 .255 9-5v-15l-1-1v-2l-1-1-1-3-1-1v-1c-1.577 0-2-1.762-2-3l-1-2-1-1-2-3-4-3c-2.871 0-6.924-3.712-9.5-5-8.654-4.327-19.425-4.712-28-9-2.558-1.28-9.642-3.68-13-2-1.733.867-7.211 7-9 7-1.33 0-1.896-3.052-4-2l-3 2c-6.476-3.238-8.61-10.195-17-6h-4c-7.467 3.733-16.583 4.292-24 8-3.938 1.97-10.052 7-14.5 7l-2 1v1l-1 1-1 1-1 1-1 1v1l-1 1-1 1v1l-1 1-1 2v1l-1 1-1 2v1l-1 1-1 6v11l3.5 5h6.5Z"/><path fill="#0A848A" id="VISli5" d="m388 83-7 7c-1.114 0-6-5.686-6-7 0-1.17 3.976-7 6-7 2.336 0 7 4.664 7 7Z"/><path fill="#09858C" id="VISl6b" d="M101 77c-1.822 0-8 3.711-8 6 2.176 0 8-4.188 8-6Z"/><path fill="#C7C8CC" id="alv" d="M117 77c-1.238 0-3 .423-3 2 1.238 0 3-.423 3-2Z"/><path fill="#7ECF4B" id="CA1" d="M113 241h1c2.554 0 17-9.293 17-12 0-5.331-9.676-9.852-12-14.5l-18-19-10-17-4-14c-5.697-11.393 12.412-45.456 20.5-49.5l17.5-13c-.787 0-2-4.678-2-5.5 0-6.707-4-13.261-4-19.5h-2c0 1.577-1.762 2-3 2h-1l-1 1-2 1c0 1.577-1.762 2-3 2l-2 1-1 1c0 1.577-1.762 2-3 2l-2 2h-1l-1 1-1 1h-1c0 1.747-.253 2-2 2l-1 1-1 1-2 1-1 1-1 1-1 1-1 1-1 1-1 1v1l-2 2-1 1-1 1c0 1.238-.423 3-2 3l-1 1-1 2-1 1-1 1v1l-1 1-1 1v1l-1 1-1 2-1 2-1 1v1l-1 1-1 2v1l-1 2-1 1v2l-1 2-1 2v2c0 1.048.473 3-1 3 0 1.048.473 3-1 3v3c0 5.267-2.06 20.378 0 24.5l6 18 11 20L91.5 229c1.504.752 7.5 3.885 7.5 6h1l11 6h2ZM344 241h1l2-1 2-1h1l1-1 2-1h1l1-1 1-1h1l1-1 1-1h1l1-1 1-1h1l1-1 1-1c0-1.577 1.762-2 3-2l1-1 1-1 1-1 1-1 1-1 1-1c0-1.429 1.288-4 3-4 0-1.747.253-2 2-2l1-2 1-1c0-1.238.423-3 2-3l1-2 1-2 1-2 1-2c0-1.238.423-3 2-3v-1c0-1.238.423-3 2-3v-1l2-4c0-2.029 2.051-12 4-12v-32c-1.353 0-2-4.643-2-6v-1l-1-2v-1l-1-1v-1l-2-4v-1c-1.577 0-2-1.762-2-3v-1c-1.76 0-3.394-4.288-4-5.5-2.958-5.916-8.094-12.094-13-17l-6-6.5-1-1c-1.952 0-12-6.864-12-9h-1l-2-2h-1l-2-2h-1l-3-2h-1l-5-2-5 26c5.341 0 11.588 10.044 15.5 12l7.5 7.5c1.005 2.01 4.646 4.293 6 7 8.987 17.973 11.4 35.199 2 54-4.437 8.874-14.496 15.991-18 23-3.009 6.018-20 17.201-20 22.5 2.018 0 12.047 12 18 12h1Z"/><path fill="#C7C8CC" id="alv" d="m113 79-1 1 1-1ZM343 79c1.238 0 3 .423 3 2l-3-2ZM112 80l-2 1 2-1Z"/><path fill="#039299" id="AUDpo1" d="m36 101 3 3c1.458 0 9.605-17 12-17v-2c0-1.24-2-1.576-2-4-1.456 0-13 17.684-13 20Z"/><path fill="#15B0B2" id="TEa4" d="m55 93 3 3c1.923 0 9-10.897 9-13l-2-2-10 11v1Z"/><path fill="#C7C8CC" id="alv" d="M110 81c-1.238 0-3 .423-3 2 1.238 0 3-.423 3-2ZM347 81l2 2-2-2Z"/><path fill="#15B0B2" id="TEa4" d="M398 97h1l2-4v-1l-10-11-2 2c0 5.259 9 8.741 9 14Z"/><path fill="#039299" id="AUDpo1" d="m420 100-3 4-11-17c0-1.424.362-5 2-5 1.461 0 12 16.02 12 18Z"/><path fill="#15AFB3" id="TEa5" d="m58 97 7 7 10-13v-1l-7-7h-1c0 2.103-7.077 13-9 13v1Z"/><path fill="#088488" id="VISli6a" d="M79 95h1l6-7c0-2.666-3-2.482-3-5h-1l-7 7v1c1.797 0 4 2.203 4 4Z"/><path fill="#09858C" id="VISl6b" d="M87 88v1c1.702 0 6-4.802 6-6-1.668 0-6 3.099-6 5Z"/><path fill="#C7C8CC" id="alv" d="m107 83-2 1 2-1Z"/><path fill="#FF7AFD" id="SCzo" d="M167 85v1c1.577 0 2-1.762 2-3h-1l-1 2Z"/><path fill="#C7C8CC" id="alv" d="m350 83 2 2-2-2Z"/><path fill="#088488" id="VISli6a" d="m381 91-4 3-7-6v-1l4-4h1c0 1.314 4.886 7 6 7v1Z"/><path fill="#15AFB3" id="TEa5" d="M391 105h1c0-1.829 4.808-8 6-8 0-5.259-9-8.741-9-14h-1l-7 7v1c2.333 0 10 11.711 10 14Z"/><path fill="#C7C8CC" id="alv" d="m105 84-1 1 1-1ZM104 85c-1.238 0-3 .423-3 2 1.238 0 3-.423 3-2ZM353 85l12 9c-1.952 0-12-6.864-12-9Z"/><path fill="#FF7AFD" id="SCzo" d="M166 87h1v-1h-1v1Z"/><path fill="#029199" id="AUDpo2/3" d="m39 106 4 4c1.988 0 2.408-3.315 3-4.5L55 93v-1l-4-5c-2.395 0-10.542 17-12 17v2Z"/><path fill="#C7C8CC" id="alv" d="M101 87c-1.747 0-2 .253-2 2l2-2Z"/><path fill="#FF64FF" id="MB" d="m165 92-2 1c0-2.447 2-3.28 2-6h1l-1 5Z"/><path fill="#FF90FE" id="SCiw" d="M161 133c0-21.292 20.729-33.614 37.5-42l13-4c1.058-.53 16.283 6 19 6 4.171 0 9.278-6 14-6 7.009 0 13.077 5.038 19 8 14.71 7.355 32.5 19.031 32.5 38-9.902 0-22.579 8.341-29-4.5-1.334-2.668-4-4.276-4-7.5 0-3.856-2.384-7.268-4-10.5-8.219-16.439-15.365-15.5-33-15.5h-14.5c-8.656 4.328-17.5 15.42-17.5 26l-3 5.5c-2.083 4.167-4.333 6.417-8.5 8.5-7.238 3.619-14.664-2-21.5-2Z"/><path fill="#FF64FF" id="MB" d="m294 93 1 2-4-3-1-5 4 6Z"/><path fill="#029199" id="AUDpo2/3" d="M413 110h1c0-2.666 3-2.482 3-5v-1l-11-17h-1l-4 5v1l3 3.5 9 13.5Z"/><path fill="#08818B" id="VISli6b" d="M80 95h1l6-6v-1h-1l-6 7ZM376 95h1v-1l-7-6h-1l7 7Z"/><path fill="#C7C8CC" id="alv" d="m98 89-1 1 1-1ZM97 90l-1 1 1-1Z"/><path fill="#15AFB2" id="TEa6a" d="M65 105c0 1.634 2.635 4 4 4 0-2.138 6.282-10 8-10l2-4c0-1.797-2.203-4-4-4l-10 13v1Z"/><path fill="#C7C8CC" id="alv" d="m95 91-2 2c1.747 0 2-.253 2-2Z"/><path fill="#15AFB2" id="TEa6a" d="M387 109h1l3-4c0-2.289-7.667-14-10-14l-4 3v1c0 4.765 10 8.627 10 14Z"/><path fill="#039298" id="AUDpo4" d="m43 111 4 1 11-15v-1l-3-3-9 12.5c-.592 1.185-1.012 4.5-3 4.5v1Z"/><path fill="#C7C8CC" id="alv" d="m93 93-1 1 1-1Z"/><path fill="#C7CBCB" id="bsc" d="M159 97h1l1-1 1-1 1-1v-1c-1.429 0-4 1.288-4 3v1ZM306 123l5 1c3.746 0 0-.8 0-2l-2-2v-1l-1-1v-1l-1-2v-2l-1-1v-1l-1-2v-2l-1-1-2-4-3-4-1-2-2-2-2-1 1 2 2 3 1 1 1 2 2 3v1l1 1 1 3 1 1v2l1 1v3c1.714 0 1 5.594 1 7Z"/><path fill="#039298" id="AUDpo4" d="M409 113h1c0-1.577 1.762-2 3-2v-1l-9-13.5-3-3.5-2 4c0 5.557 10 10.172 10 16Z"/><path fill="#C7C8CC" id="alv" d="m92 94-1 1 1-1Z"/><path fill="#FF64FF" id="MB" d="m163 94-1 1 1-1Z"/><path fill="#CAC7CB" id="fiber tracts" d="m296 94 2 2-2-2Z"/><path fill="#16B0B2" id="TEa6b" d="M81 95c0 1.634-2.635 4-4 4l2-4h2Z"/><path fill="#C7C8CC" id="alv" d="m91 95-2 1 2-1Z"/><path fill="#FF8FFF" id="SCdg" d="M201 123c-2.082 0-.47-5.561 0-6.5 1.753-3.506 6.576-10.538 10.5-12.5 17.094-8.547 44.5-1.724 44.5 20 2.621 0 5.773-3 7-3 0-3.856-2.384-7.268-4-10.5-8.219-16.439-15.365-15.5-33-15.5h-14.5c-8.656 4.328-17.5 15.42-17.5 26 0 1.969 5.584 3 7 3v-1Z"/><path fill="#C7C8CC" id="alv" d="M366 95c3.201 0 23 26.355 23 29-1.76 0-3.394-4.288-4-5.5-2.958-5.916-8.094-12.094-13-17l-6-6.5Z"/><path fill="#16B0B2" id="TEa6b" d="M387 109v1l-4-4c0-4.863-7-6.089-7-11h1c0 4.765 10 8.627 10 14Z"/><path fill="#7DCD4B" id="HPF" d="m153 96-1 1 1-1Z"/><path fill="#CAC7CB" id="fiber tracts" d="M158 97h1v-1l-1 1Z"/><path fill="#FF64FF" id="MB" d="m161 96-1 1 1-1Z"/><path fill="#019197" id="AUDpo5" d="M47 112c3.233 0 6.414 6 10 6l8-13v-1l-7-7-11 15Z"/><path fill="#C7C8CC" id="alv" d="m88 97-1 1 1-1Z"/><path fill="#7BD04A" id="DG-mo" d="m135 233 2 1c3.897 0 14.482-4.535 12-9.5l-2-4.5h-1c0 13.873-12.449 5.602-16-1.5-4.945-9.89-16.014-17.028-21-27l-6-6-8-16c-1.55-3.101-1.383-12.234 0-15v-7c1.474-2.949 2.557-6.114 4-9 7.628-15.256 25.815-27.157 40.5-34.5 4.735-2.367 4.645 4.21 3.5 6.5l-5.5 4.5c-7.662 3.831-15.217 15.933-18.5 22.5-5.921 11.842-.002 25.997 5 36 1.578 3.156 5 5.742 5 9.5l2 2c1.473 0 1-1.952 1-3l-1-7v-1c-.548 0-6-12.59-6-14l-1-9v-5l1-1v-4l1-1 1-2c0-1.238.423-3 2-3 0-1.747.253-2 2-2 0-1.429 1.288-4 3-4l1-1 1-1 7.5-7 5.5-7 1-2 1-2V99l-2-1c-1.321 0-6 .684-6-1l-9 2c-3.559 0-5.504 3-9 3l-17.5 13c-8.088 4.044-26.197 38.107-20.5 49.5l4 14 10 17 18 19c2.324 4.648 12 9.169 12 14.5 1.797 0 4 2.203 4 4Z"/><path fill="#7DCD4B" id="HPF" d="m149 98 2 1v-2l-2 1Z"/><path fill="#CAC7CB" id="fiber tracts" d="m158 97-1 1 1-1Z"/><path fill="#C7CBCB" id="bsc" d="M157 100h1l1-1v-2h-1l-1 1v2Z"/><path fill="#FF64FF" id="MB" d="m160 97-1 1v-1h1Z"/><path fill="#7DCD4B" id="HPF" d="m307 98-2 2v-3l2 1Z"/><path fill="#7BD04A" id="DG-mo" d="M320 233h1l4-4c0-5.299 16.991-16.482 20-22.5 3.504-7.009 13.563-14.126 18-23 9.4-18.801 6.987-36.027-2-54-1.354-2.707-4.995-4.99-6-7l-7.5-7.5c-3.912-1.956-10.159-12-15.5-12l-10-5-9-1c0 1.684-4.679 1-6 1l-2 2v7l1 2v1l1 2v1l4.5 6c2.892 1.446 15.5 10.281 15.5 15v1c2.275 0 4 3.756 4 6v2l1 1v7l-1 10-1 1-1 2c0 1.424-.362 5-2 5 0 1.623-.005 6-2 6l-1 10h2l1-1 1-1c0-4.812 3.038-6.575 5-10.5 5.337-10.673 9.962-24.076 4-36-5.01-10.02-19.926-19.852-22-24-1.032-2.063-4.414-11.957 2.5-8.5 21.233 10.617 44.5 28.856 44.5 55l-1 11.5c-3.072 6.144-6.902 11.803-10 18-4.975 9.95-19.863 19.727-26 32-3.729 7.458-15 10.536-15-.5-3.265 0-1.776 7.948-1 9.5 2.618 5.236 7.307 3.5 11 3.5Z"/><path fill="#019197" id="AUDpo5" d="M399 118h1l9-5c0-5.828-10-10.443-10-16h-1c-1.192 0-6 6.171-6 8 0 4.46 7 8.438 7 13Z"/><path fill="#C7C8CC" id="alv" d="m87 98-1 1 1-1Z"/><path fill="#FF64FF" id="MB" d="m297 98 1 1-1-1Z"/><path fill="#CAC7CB" id="fiber tracts" d="m299 98 3 4-3-4Z"/><path fill="#16B0B2" id="TEa6b" d="M69 110v1l4-5c0-2.46 4-4.17 4-7-1.718 0-8 7.862-8 10v1Z"/><path fill="#C7C8CC" id="alv" d="m86 99-1 1 1-1Z"/><path fill="#CAC7CB" id="fiber tracts" d="M156 100h1v-1l-1 1Z"/><path fill="#FF64FF" id="MB" d="m159 99-1 1 1-1Z"/><path fill="#CAC7CB" id="fiber tracts" d="m156 100-1 1 1-1Z"/><path fill="#C7CBCB" id="bsc" d="M155 103h1l1-1v-2h-1l-1 1v2Z"/><path fill="#FF64FF" id="MB" d="m158 100-1 1v-1h1Z"/><path fill="#029297" id="AUDp1" d="M420 110h5c0-2.108-2.78-10-5-10l-3 4v1l3 5ZM36 110h1l2-4v-2l-3-3c-2.065 0-5 7.264-5 9h5Z"/><path fill="#C7C8CC" id="alv" d="m84 101-1 1 1-1Z"/><path fill="#FF8FFE" id="SCdw" d="M256 124v1c-1.703 0-4.271-7.041-5-8.5-3.326-6.653-9.802-9.651-15.5-12.5-7.793-3.896-25.403 3.305-28.5 9.5-1.183 2.366-3.404 9.5-6 9.5-2.082 0-.47-5.561 0-6.5 1.753-3.506 6.576-10.538 10.5-12.5 17.094-8.547 44.5-1.724 44.5 20Z"/><path fill="#FF64FF" id="MB" d="m299 101 2 3c-1.577 0-2-1.762-2-3Z"/><path fill="#CAC7CB" id="fiber tracts" d="M154 103h1v-1l-1 1Z"/><path fill="#FF64FF" id="MB" d="m157 102-1 1 1-1Z"/><path fill="#C7C8CC" id="alv" d="M83 103c-1.747 0-2 .253-2 2l2-2Z"/><path fill="#CAC7CB" id="fiber tracts" d="m154 103-1 1 1-1Z"/><path fill="#C7CBCB" id="bsc" d="M153 107h1l1-1v-3h-1l-1 1v3Z"/><path fill="#FF64FF" id="MB" d="m156 103-1 2v-2h1Z"/><path fill="#65A83D" id="DG-sg" d="m144 219 2 1c0 13.873-12.449 5.602-16-1.5-4.945-9.89-16.014-17.028-21-27l-6-6-8-16c-1.55-3.101-1.383-12.234 0-15v-7c1.474-2.949 2.557-6.114 4-9 7.628-15.256 25.815-27.157 40.5-34.5 4.735-2.367 4.645 4.21 3.5 6.5l-5.5 4.5c-7.662 3.831-15.217 15.933-18.5 22.5-5.921 11.842-.002 25.997 5 36 1.578 3.156 5 5.742 5 9.5-3.284 0-6.496-6.491-8-9.5-2.082-4.164-10.497-20.007-8-25 1.359-2.719 2-6.26 2-9.5 0-5.686 6.997-13.497 11-17.5 1.168-1.168 7.361-8.069 6.5-8.5-2.672-1.336-7.835 4.917-10 6-13.088 6.544-18.257 18.014-24.5 30.5-.708 1.416-2.222 14.5 0 14.5v1l1 2v3l1 1v1l1 1v2l1 1 1 3 1 1 1 2 1 1v1l2 2 1 2 2 2 18 23c0 4.841 14 17.648 14 6h1Z"/><path fill="#FC8FFF" id="PAG" d="M242 145h1v-1c0-3.788 4.225-9.362 7.5-11 .93-.465 4.5-.817 4.5-2 0-1.564 1-3.876 1-6-1.703 0-4.271-7.041-5-8.5-3.326-6.653-9.802-9.651-15.5-12.5-7.793-3.896-25.403 3.305-28.5 9.5-1.183 2.366-3.404 9.5-6 9.5v8c5.57 0 13 8.692 13 14 2.259 0 5.151-3.675 8.5-2 2.04 1.02 2.424 6 3.5 6 0-7.558 1-14.944 1-22 0-4.206 2-.49 2 2l2 16c.932 0 11-5.098 11 0Z"/><path fill="#65A83D" id="DG-sg" d="M312 219h1c0 11.357 14-.414 14-6l1-1 1-1 18-23 1-1 1-1v-1l1-1 1-1v-1l1-1 1-1v-2l1-1 1-1v-2l1-1 1-2v-2l1-2v-1c1.579 0 1-2.855 1-4 0-4.257.783-9.934-1-13.5-7.432-14.863-17.397-27.949-32.5-35.5l-1.5 1.5 11 12 6 11c.523 1.046-.951 3.5 1 3.5 0 17.12.647 17.206-7 32.5-1.077 2.155-3.754 9.5-7 9.5 0-4.812 3.038-6.575 5-10.5 5.337-10.673 9.962-24.076 4-36-5.01-10.02-19.926-19.852-22-24-1.032-2.063-4.414-11.957 2.5-8.5 21.233 10.617 44.5 28.856 44.5 55l-1 11.5c-3.072 6.144-6.902 11.803-10 18-4.975 9.95-19.863 19.727-26 32-3.729 7.458-15 10.536-15-.5l1-1h1Z"/><path fill="#029399" id="AUDpo6a" d="M61 121h1l3-4c0-1.856 1.782-7 4-7v-1c-1.365 0-4-2.366-4-4l-8 13v1l4 2Z"/><path fill="#C7C8CC" id="alv" d="m81 105-1 1 1-1Z"/><path fill="#CAC7CB" id="fiber tracts" d="M152 107h1v-2l-1 2Z"/><path fill="#FF64FF" id="MB" d="m301 105 1 1-1-1Z"/><path fill="#029399" id="AUDpo6a" d="m399 118-4 3-7-12 3-4h1c0 4.46 7 8.438 7 13Z"/><path fill="#019298" id="AUDp2/3" d="M420 110v1c-1.321 0-6 .684-6-1 0-2.666 3-2.482 3-5l3 5ZM43 110v1c-2.124 0-4.436-1-6-1l2-4 4 4Z"/><path fill="#CCC8CA" id="ar" d="M67 116h1c0-1.294 3.609-7 5-7 0-1.238 1.514-3 0-3l-4 5-2 5Z"/><path fill="#C7C8CC" id="alv" d="m80 106-1 1 1-1Z"/><path fill="#FF64FF" id="MB" d="m155 106-1 1 1-1Z"/><path fill="#CAC7CB" id="fiber tracts" d="M305 106v1l-1-1h1Z"/><path fill="#CCC8CA" id="ar" d="m391 121 2 1-6-12-4-4c0 3.57 4 4.412 4 8l2 2v1l1 1 1 3Z"/><path fill="#C7C8CC" id="alv" d="M79 107c-1.577 0-2 1.762-2 3 1.577 0 2-1.762 2-3Z"/><path fill="#CAC7CB" id="fiber tracts" d="m152 107-1 2v-2h1Z"/><path fill="#C7CBCB" id="bsc" d="M151 123c-2.124 0-4.436 1-6 1-3.436 0-.557-2 1-2l1-1v-1l1-1v-1l1-1v-2l1-2v-1l1-1v-2l1-2h1v3l-1 1-1 6c-1.566 0-1.566 5 0 5v1Z"/><path fill="#FF64FF" id="MB" d="m154 107-1 2v-2h1Z"/><path fill="#CBC9C7" id="or" d="M61 129v1c0 2.36 3.576-4.653 4-5.5 2.25-4.499 8-10.282 8-15.5-1.391 0-5 5.706-5 7l-1 1v1l-1 1-1 1v2l-1 1-1 1v1l-1 1v1l-1 2Z"/><path fill="#FF64FF" id="MB" d="m303 109 1 1-1-1Z"/><path fill="#CAC7CB" id="fiber tracts" d="M306 110v1l-1-2h1v1Z"/><path fill="#029298" id="AUDpo6b" d="M393 122h2v-1l-7-12h-1v1l6 12Z"/><path fill="#019099" id="AUDv1" d="M428 134h4c0-3.976-4.335-24-7-24h-5v1c2.389 0 7 19.375 7 23h1ZM24 134h5c0-6.132 2.405-13.31 5-18.5.465-.93.817-4.5 2-4.5v-1h-5c0 4.361-7 16.113-7 24Z"/><path fill="#019298" id="AUDp2/3" d="m37 110-1 1v-1h1Z"/><path fill="#029198" id="AUDv2/3" d="m29 134 5 1c0-7.79 9-20.772 9-24-2.124 0-4.436-1-6-1l-1 1c-1.183 0-1.535 3.57-2 4.5-2.595 5.19-5 12.368-5 18.5Z"/><path fill="#029298" id="AUDpo6b" d="m67 116-2 1c0-1.856 1.782-7 4-7v1l-2 5Z"/><path fill="#C7C8CC" id="alv" d="m77 110-1 1 1-1Z"/><path fill="#FF64FF" id="MB" d="m153 110-1 1 1-1Z"/><path fill="#029198" id="AUDv2/3" d="m427 134-5 1c0-3.806-6.612-24-9-24v-1h1c0 1.684 4.679 1 6 1 2.389 0 7 19.375 7 23Z"/><path fill="#029197" id="AUDv4" d="M34 135h4c0-8.11 9-18.312 9-23l-4-1c0 3.228-9 16.21-9 24Z"/><path fill="#C7C8CC" id="alv" d="m76 111-1 2 1-2Z"/><path fill="#CAC7CB" id="fiber tracts" d="m151 111-1 1v-1h1Z"/><path fill="#029197" id="AUDv4" d="M419 135h3c0-3.806-6.612-24-9-24-1.238 0-3 .423-3 2 0 3.762 9 15.979 9 22Z"/><path fill="#019098" id="AUDv5" d="m38 135 12 1c0-2.491 5.29-17 7-17v-1c-3.586 0-6.767-6-10-6 0 4.688-9 14.89-9 23Z"/><path fill="#FF64FF" id="MB" d="m304 112 1 1-1-1Z"/><path fill="#CAC7CB" id="fiber tracts" d="M307 112v1l-1-1h1Z"/><path fill="#C7C8CC" id="alv" d="m75 113-1 1 1-1Z"/><path fill="#7ECE4A" id="DG-po" d="m115 139-4.5-4c-9.196 4.598-12.5 19.378-12.5 29-2.222 0-.708-13.084 0-14.5 6.243-12.486 11.412-23.956 24.5-30.5 2.165-1.083 7.328-7.336 10-6 .861.431-5.332 7.332-6.5 8.5-4.003 4.003-11 11.814-11 17.5Z"/><path fill="#CAC7CB" id="fiber tracts" d="m150 113-1 2v-2h1Z"/><path fill="#7ECE4A" id="DG-po" d="M342 141c-1.951 0-.477-2.454-1-3.5l-6-11-11-12 1.5-1.5c15.103 7.551 25.068 20.637 32.5 35.5 1.783 3.566 1 9.243 1 13.5 0 1.145.579 4-1 4 0-9.191-1.233-16.967-5-24.5-2.961-5.921-11-9.026-11-.5Z"/><path fill="#019098" id="AUDv5" d="m419 135-12 1c0-5.851-7-12.364-7-18l9-5h1c0 3.762 9 15.979 9 22Z"/><path fill="#C7C8CC" id="alv" d="m74 114-1 1 1-1Z"/><path fill="#C8C9CA" id="fp" d="m387 114 2 2-2-2Z"/><path fill="#CAC7CB" id="fiber tracts" d="m307 115 1 2-1-2Z"/><path fill="#CCC8CA" id="ar" d="M65 119h1l1-1v-2l-2 1v2Z"/><path fill="#C8C9CA" id="fp" d="m68 116-1 1v-1h1Z"/><path fill="#C7C8CC" id="alv" d="m73 116-1 1 1-1Z"/><path fill="#FF64FF" id="MB" d="M305 123h1c0-1.406.714-7-1-7v7Z"/><path fill="#029298" id="AUDpo6b" d="m62 121 1 1 2-3v-2l-3 4Z"/><path fill="#C7C8CC" id="alv" d="m72 117-1 1 1-1Z"/><path fill="#CAC7CB" id="fiber tracts" d="m149 117-1 1 1-1Z"/><path fill="#FF64FF" id="MB" d="M151 117c-1.566 0-1.566 5 0 5v-5Z"/><path fill="#C8C9CA" id="fp" d="m389 117 1 1-1-1ZM67 118l-1 1 1-1Z"/><path fill="#CAC7CB" id="fiber tracts" d="m308 118 1 1-1-1Z"/><path fill="#019397" id="AUDv6a" d="M407 136c-1.564 0-3.876 1-6 1 0-5.018-6-10.413-6-15v-1l4-3h1c0 5.636 7 12.149 7 18ZM55 137h1l1-2c0-1.623.005-6 2-6l2-8-4-2c-1.71 0-7 14.509-7 17l5 1Z"/><path fill="#CCC8CA" id="ar" d="M63 123h1l1-1v-3l-2 3v1Z"/><path fill="#C8C9CA" id="fp" d="m66 119-1 1v-1h1Z"/><path fill="#C7C8CC" id="alv" d="m71 119-1 1 1-1Z"/><path fill="#CAC7CB" id="fiber tracts" d="m148 119-1 1 1-1Z"/><path fill="#C7C8CC" id="alv" d="m70 120-1 2 1-2Z"/><path fill="#CAC7CB" id="fiber tracts" d="m309 120 2 2-2-2Z"/><path fill="#019198" id="AUDv6b" d="m61 127-2 2 2-8h1l1 1v1l-1 2-1 2Z"/><path fill="#CAC7CB" id="fiber tracts" d="m147 121-1 1 1-1Z"/><path fill="#FF64FF" id="MB" d="M151 135c0 1.357.647 6 2 6 0-5.966 14.171 6.164 18.5 4 8.425-4.213 19.668-14 29.5-14v-7c-1.416 0-7-1.031-7-3l-3 5.5c-2.083 4.167-4.333 6.417-8.5 8.5-7.238 3.619-14.664-2-21.5-2h-6.5l-3.5-5-2 1c0 1.974 2 3.517 2 6ZM305 136l-1 5c-1.384 0-1.123-3.189-3.5-2-3.532 1.766-10.167 8.416-15 6-8.631-4.315-20.43-14-30.5-14 0-1.564 1-3.876 1-6v-1c2.621 0 5.773-3 7-3 0 3.224 2.666 4.832 4 7.5 6.421 12.841 19.098 4.5 29 4.5 4.097 0 9 .255 9-5l2 1-2 7Z"/><path fill="#C8C9CA" id="fp" d="M393 122v1l-2-2 2 1ZM65 122l-1 1 1-1Z"/><path fill="#C7C8CC" id="alv" d="m69 122-1 2 1-2Z"/><path fill="#019198" id="AUDv6b" d="m401 137-1 1-1-1c0-1.954-1.586-10-4-10v-1c0-1.238-.423-3-2-3v-1h2c0 4.587 6 9.982 6 15Z"/><path fill="#CCC8CA" id="ar" d="M62 125h1v-2l-1 2Z"/><path fill="#C8C9CA" id="fp" d="m64 123-1 1v-1h1Z"/><path fill="#FF8EFF" id="DT" d="m151 128-2 1c-2.226 0-4-1.774-4-4v-1c1.564 0 3.876-1 6-1v5ZM305 128l2 1c2.881 0 4-1.292 4-4v-1l-5-1h-1v5Z"/><path fill="#CCC8CA" id="ar" d="M394 126h1c0-1.238-.423-3-2-3l1 3Z"/><path fill="#C7C8CC" id="alv" d="m68 124-1 1 1-1Z"/><path fill="#CCC8CA" id="ar" d="M61 127h1v-2l-1 2Z"/><path fill="#C8C9CA" id="fp" d="m63 125-1 1v-1h1Z"/><path fill="#FF6F80" id="TH" d="M148 135h3c0-2.483-2-4.026-2-6-2.226 0-4-1.774-4-4-1.774 0-7-.273-7 2 4.72 0 10 2.612 10 8Z"/><path fill="#A9A9A8" id="AQ" d="m227 127 2 2c0-2.49-2-6.206-2-2Z"/><path fill="#FF6F80" id="TH" d="m308 135-3 1 2-7c2.881 0 4-1.292 4-4 1.899 0 8-.488 8 2-5.02 0-11 2.44-11 8Z"/><path fill="#C7C8CC" id="alv" d="m389 125 2 3c-1.577 0-2-1.762-2-3ZM67 126l-1 1 1-1Z"/><path fill="#C8C9CA" id="fp" d="M395 126v1l-1-1h1Z"/><path fill="#CCC8CA" id="ar" d="M59 132h1v-1l1-1v-3l-2 2v3Z"/><path fill="#C8C9CA" id="fp" d="m62 127-1 2v-2h1Z"/><path fill="#C7C8CC" id="alv" d="m66 127-1 2 1-2Z"/><path fill="#FF8E9D" id="SGN" d="M137 145h4l5-4 1-1 1-5c0-5.388-5.28-8-10-8h-2l-1 1-1 1v2c0 4.378 3 10.063 3 14Z"/><path fill="#FF64FF" id="MB" d="M226 155h5v-10l-2-16-2-2c0 7.056-1 14.442-1 22v6Z"/><path fill="#FF8E9D" id="SGN" d="M316 145h3c3.636 0 .997-8.494 2-10.5.809-1.619 2-1.471 2-3.5l-4-4c-5.02 0-11 2.44-11 8 1.353 0 2 4.643 2 6l6 4Z"/><path fill="#CCC8CA" id="ar" d="m398 135 1 2c0-1.954-1.586-10-4-10v2l1 1v1l1 1v2l1 1Z"/><path fill="#019198" id="AUDv6b" d="M57 135h1c0-1.048-.473-3 1-3v-3c-1.995 0-2 4.377-2 6Z"/><path fill="#C7C8CC" id="alv" d="m391 129 2 4-2-4Z"/><path fill="#C8C9CA" id="fp" d="m395 129 1 1-1-1Z"/><path fill="#C7C8CC" id="alv" d="m65 130-1 2 1-2Z"/><path fill="#CBC9C7" id="or" d="M58 143c0 1.943-.477 10-3 10 0-5.345 2-10.613 2-15l1-1v-1l1-1v-2l1-1v-1c2.264 0-2 10.34-2 12Z"/><path fill="#FE7F82" id="MGd" d="m135 148-4.5-1c-1.308.654-5.314 4-6.5 4v-5l1-1v-4l1-1 1-2c1.577 0 2-1.762 2-3l2-2 3-2c0 4.378 3 10.063 3 14 0 2.215-2 1.519-2 3Z"/><path fill="#FF8FFD" id="MRN" d="M187 193h2c2.447 0 3.28-2 6-2 0-1.722-5.235-2.368-6.5-3-4.984-2.492-13.283-9.933-9.5-17.5 10.962-21.924 38-11.776 38 9.5 3.625 0 2.917-11 6-11l-1-6c-1.577 0-2-1.762-2-3v-1l-1-2c-2.647 0-3.096 2.702-6.5 1-4.192-2.096-7.114-12.443-2-15l3.5 2c0-5.308-7.43-14-13-14-9.832 0-21.075 9.787-29.5 14-4.329 2.164-18.5-9.966-18.5-4l1 13c0 3.721-2 6.881-2 10 0 10.708 6.264 18.382 15.5 23 1.965.982 14.5 2.816 14.5 5h3l1 1h1ZM267 193h3l2-1h3c0-1.569 13.406-4.953 15.5-6 9.477-4.738 13.5-12.112 13.5-23 0-2.097-1-5.293-1-8 0-4.725 1-9.879 1-14-1.384 0-1.123-3.189-3.5-2-3.532 1.766-10.167 8.416-15 6-8.631-4.315-20.43-14-30.5-14 0 1.183-3.57 1.535-4.5 2-3.275 1.638-7.5 7.212-7.5 11l3.5-1c8.81 4.405-8.5 24.017-8.5 13h-1v2c0 1.048.473 3-1 3l-1 2c0 2.824.895 19 5 19 0-20.756 25.332-35.836 37-12.5 4.152 8.304-4.49 16.495-10.5 19.5-1.114.557-5.5.41-5.5 2 2.483 0 4.026 2 6 2Z"/><path fill="#FE7F82" id="MGd" d="m321 148 5.5-1c1.362.681 4.844 4 5.5 4v-7l-1-1v-2l-4-6v-1l-4-3c0 2.029-1.191 1.881-2 3.5-1.003 2.006 1.636 10.5-2 10.5l2 3Z"/><path fill="#C8C9CA" id="fp" d="m396 131 1 1-1-1Z"/><path fill="#CCC8CA" id="ar" d="M58 135h1v-3c-1.473 0-1 1.952-1 3Z"/><path fill="#C8C9CA" id="fp" d="m60 132-1 1v-1h1Z"/><path fill="#C7C8CC" id="alv" d="m64 132-1 1 1-1Z"/><path fill="#15B0B3" id="TEa1" d="m29 156-5 1v-23h5v22Z"/><path fill="#16AFB3" id="TEa2/3" d="m36 155-7 1v-22l5 1c0 7.004 2 14.669 2 20Z"/><path fill="#C7C8CC" id="alv" d="m393 134 1 1-1-1Z"/><path fill="#C8C9CA" id="fp" d="m397 134 1 1-1-1Z"/><path fill="#16AFB3" id="TEa2/3" d="m420 155 8 1v-22h-1l-5 1c0 2.618 2.514 7.472 1 10.5l-3 9.5Z"/><path fill="#15B0B3" id="TEa1" d="m428 156 4 1v-23h-4v22Z"/><path fill="#15B0B2" id="TEa4" d="m37 154-1 1c0-5.331-2-12.996-2-20h4c0 5.678-1 12.682-1 19Z"/><path fill="#15AFB3" id="TEa5" d="M38 154h9c0-5.709 3-12.538 3-18l-12-1c0 5.678-1 12.682-1 19h1Z"/><path fill="#019198" id="AUDv6b" d="M56 137h1v-2l-1 2Z"/><path fill="#CCC8CA" id="ar" d="M57 137h1v-2h-1v2Z"/><path fill="#C8C9CA" id="fp" d="m59 135-1 1v-1h1Z"/><path fill="#C7C8CC" id="alv" d="m63 135-1 2 1-2Z"/><path fill="#7ECF49" id="CA3" d="M143 219h1v-2c-1.149 0-1.508-4.516-2-5.5-2.548-5.096-7-11.522-7-17.5v-1l-4-7v-1l-2-2c-3.284 0-6.496-6.491-8-9.5-2.082-4.164-10.497-20.007-8-25 1.359-2.719 2-6.26 2-9.5l-4.5-4c-9.196 4.598-12.5 19.378-12.5 29v1l1 2v3l1 1v1l1 1v2l1 1 1 3 1 1 1 2 1 1v1l2 2 1 2 2 2 18 23c3.309 0 7.746 6 14 6Z"/><path fill="#FF8D9D" id="POL" d="m153 141 1 13-4.5 1c-3.167-1.584-3.5-11.094-3.5-14l1-1 1-5h3c0 1.357.647 6 2 6ZM310 141c0 6.881 1.176 14-7 14 0-4.725 1-9.879 1-14l1-5 3-1c1.353 0 2 4.643 2 6Z"/><path fill="#7ECF49" id="CA3" d="M313 215v4c6.126 0 12.677-6 14-6l1-1 1-1 18-23 1-1 1-1v-1l1-1 1-1v-1l1-1 1-1v-2l1-1 1-1v-2l1-1 1-2v-2l1-2v-1c0-9.191-1.233-16.967-5-24.5-2.961-5.921-11-9.026-11-.5 0 17.12.647 17.206-7 32.5-1.077 2.155-3.754 9.5-7 9.5l-1 1-1 1-1 1-1 1-1 2c0 1.048.473 3-1 3l-1 2v1c0 1.424-.362 5-2 5v1l-1 2-1 2v1l-2 4c0 1.465.109 4-2 4v1Z"/><path fill="#15AFB3" id="TEa5" d="M409 154h10v-19l-12 1c0 6.339 2 11.363 2 18Z"/><path fill="#15B0B2" id="TEa4" d="M419 155h1l3-9.5c1.514-3.028-1-7.882-1-10.5h-3v20Z"/><path fill="#15AFB2" id="TEa6a" d="M47 154h6l2-17-5-1c0 5.462-3 12.291-3 18Z"/><path fill="#C7C8CC" id="alv" d="m394 136 1 2-1-2Z"/><path fill="#15AFB2" id="TEa6a" d="M403 154h6c0-6.637-2-11.661-2-18-1.564 0-3.876 1-6 1l2 17Z"/><path fill="#16B0B2" id="TEa6b" d="M53 154h2v-1c0-5.345 2-10.613 2-15v-1h-2l-2 17Z"/><path fill="#C8C9CA" id="fp" d="m58 137-1 1v-1h1Z"/><path fill="#C7C8CC" id="alv" d="m62 137-1 2 1-2Z"/><path fill="#16B0B2" id="TEa6b" d="m401 153 2 1-2-17-1 1c0 4.635 1 9.828 1 15Z"/><path fill="#C7C8CC" id="alv" d="M397 143v2c-1.353 0-2-4.643-2-6l2 4Z"/><path fill="#FF6F80" id="TH" d="m147 140-1 1 1-1Z"/><path fill="#C7C8CC" id="alv" d="M60 143v1c1.473 0 1-1.952 1-3l-1 2Z"/><path fill="#FF6F80" id="TH" d="m152 164-3 5c0-4.65-1.428-13-7-13l-1-11 5-4c0 2.906.333 12.416 3.5 14l4.5-1c0 3.721-2 6.881-2 10ZM310 172l-1 1-5-10c0-2.097-1-5.293-1-8 8.176 0 7-7.119 7-14l6 4-2 11c-4.459 0-7.941 9.618-6 13.5l2 2.5Z"/><path fill="#C8CBCC" id="ec" d="M112 241v1c-3.647 0-5.609-3-9-3l-2-1-8-6-4-3-7-6-2-2-9-12.5c-4.895-9.79-14-19.849-14-31.5 0-.981-1.184-8-2-8v-16c2.523 0 3-8.057 3-10h2v1c-1.473 0-1 1.952-1 3v3c-2.207 0-.338 5.176-1 6.5-1.38 2.759-1.37 15.261 0 18l3 11c5.958 11.916 13.74 33.62 25.5 39.5 3 1.5 8.235 10 12.5 10h1c0 2.168 9.098 6 11 6h1Z"/><path fill="#FF90FD" id="INC" d="M219 156v1c-2.647 0-3.096 2.702-6.5 1-4.192-2.096-7.114-12.443-2-15l3.5 2v1l1 1v2l2 2v1l1 3 1 1Z"/><path fill="#FD8FFD" id="ND" d="M220 157h1l3.5-3 1.5-3v-2c-1.076 0-1.46-4.98-3.5-6-3.349-1.675-6.241 2-8.5 2v1l1 1v2l2 2v1l2 3v1l1 1ZM235 157h2v-1l1-1v-1l1-1 1-2 1-3 1-1v-2c0-5.098-10.068 0-11 0v8l4 4Z"/><path fill="#FF90FD" id="INC" d="M238 155v1c0 11.017 17.31-8.595 8.5-13l-3.5 1v1l-1 1v1l-1 1-1 3-1 2-1 1v1Z"/><path fill="#C8CBCC" id="ec" d="M385 205v2c4.02 0 14-24.469 14-29l1-1c0-1.235-.643-5 1-5v-19c-2.15 0-3-8.459-3-10h-1v5c2.064 0 .426 3.353 1 4.5 2.152 4.305 2.152 16.695 0 21-.523 1.046.951 3.5-1 3.5 0 2.186-1.733 12-4 12 0 1.465.109 4-2 4v1c0 1.238-.423 3-2 3v1c0 1.238-.423 3-2 3l-1 2-1 2Z"/><path fill="#C7C8CC" id="alv" d="M60 144c-1.473 0-1 1.952-1 3 1.473 0 1-1.952 1-3Z"/><path fill="#FD7F83" id="MGm" d="M142 156c0 4.214-3.98 8-8 8 0-1.598 2.177-6.853 3-8.5 1.465-2.931-2-5.297-2-7.5 0-1.481 2-.785 2-3h4l1 11Z"/><path fill="#FF8FFD" id="MRN" d="m243 145-1 1v-1h1Z"/><path fill="#FD7F83" id="MGm" d="M314 156c0 4.093 5.128 8 9 8 0-.208-2.477-4.454-3-5.5-1.514-3.028 1-7.882 1-10.5l-2-3h-3l-2 11Z"/><path fill="#FF8FFD" id="MRN" d="m214 146 1 1-1-1Z"/><path fill="#FE7E83" id="MGv" d="M130 164h4c0-1.598 2.177-6.853 3-8.5 1.465-2.931-2-5.297-2-7.5l-4.5-1c-1.308.654-5.314 4-6.5 4l1 9 3 3 2 1Z"/><path fill="#FF8FFD" id="MRN" d="m242 147-1 1 1-1Z"/><path fill="#FE7E83" id="MGv" d="M327 164h1l1-1 1-1 1-1 1-10c-.656 0-4.138-3.319-5.5-4l-5.5 1c0 2.618-2.514 7.472-1 10.5.523 1.046 3 5.292 3 5.5h4Z"/><path fill="#C7C8CC" id="alv" d="M397 148c2.064 0 .426 3.353 1 4.5 2.152 4.305 2.152 16.695 0 21-.523 1.046.951 3.5-1 3.5v-29Z"/><path fill="#FF8FFD" id="MRN" d="m215 149 2 2-2-2Z"/><path fill="#C7C8CC" id="alv" d="M59 150c-2.207 0-.338 5.176-1 6.5-1.38 2.759-1.37 15.261 0 18l3 11c5.958 11.916 13.74 33.62 25.5 39.5 3 1.5 8.235 10 12.5 10 0-2.115-5.996-5.248-7.5-6L76 212.5l-11-20-6-18c-2.06-4.122 0-19.233 0-24.5Z"/><path fill="#FC8FFF" id="PAG" d="M226 155c-2.159 0-.061 4-1.5 4-1.045 0-1.861-2-3.5-2l3.5-3 1.5-3v4Z"/><path fill="#CBCBCC" id="mlf" d="m240 151-1 2 1-2ZM218 155h1l-2-3 1 3Z"/><path fill="#FC8FFF" id="PAG" d="M231 158h2l2-1-4-4v5Z"/><path fill="#CBCBCC" id="mlf" d="m239 153-1 1 1-1Z"/><path fill="#0E9F90" id="ECT6b" d="M401 169h1l1-15-2-1v16Z"/><path fill="#0D9F91" id="ECT2/3" d="M34 169h1l8-1c0-4.673-5-8.873-5-14h-1l-1 1-7 1c0 5.397 5 8.528 5 13Z"/><path fill="#0D9E90" id="ECT5" d="m43 168 7 1-3-15h-9c0 5.127 5 9.327 5 14Z"/><path fill="#0E9F91" id="ECT6a" d="M51 169h4v-3c-.856 0-2-10.692-2-12h-6l3 15h1Z"/><path fill="#0E9F90" id="ECT6b" d="M55 154v12c-.856 0-2-10.692-2-12h2Z"/><path fill="#FE8FFC" id="EW" d="M231 155v3c0 2.17-2.268 10.964-5 5.5V155h5Z"/><path fill="#0E9F91" id="ECT6a" d="M402 169h4c0-4.812 3-9.327 3-15h-6l-1 15Z"/><path fill="#0D9E90" id="ECT5" d="M413 168h1c0-1.708 3.917-13 5-13v-1h-10c0 5.673-3 10.188-3 15l7-1Z"/><path fill="#FF8FFD" id="MRN" d="M219 155v1l-1-1h1Z"/><path fill="#FF64FF" id="MB" fill-rule="evenodd" d="M222 158c0 5.677 4.136 0 0 0m29 32-1 4c-4.381 0-7.813-5-13-5l-2-3c2.77 0-1-9.53-1-11 0-1.145.579-4-1-4v-1c0-1.238-.423-3-2-3h-5c-1.747 0-2 .253-2 2h-1l-1-6c0-1.238-.423-3-2-3v-3h1c1.639 0 2.455 2 3.5 2 1.439 0-.659-4 1.5-4v8.5c2.732 5.464 5-3.33 5-5.5h2l2-1h2v1c-1.473 0-1 1.952-1 3l-1 2c0 2.824.895 19 5 19l2 3 2 2h1l1 1h1l1 1h1l1 1h1m-18-32c0 5.95 2.235 0 0 0Z"/><path fill="#CBCBCC" id="mlf" d="M237 156h1v-1l-1 1Z"/><path fill="#0D9F91" id="ECT2/3" d="M422 169h1l5-13-8-1h-1c-1.083 0-5 11.292-5 13l8 1Z"/><path fill="#0D9F90" id="ECT1" d="M34 169c0 1.579-2.855 1-4 1l-5-5.5-1-7.5 5-1c0 5.397 5 8.528 5 13Z"/><path fill="#FE8D9E" id="PIL" d="m149 169-3 3-5.5 1-9.5-5-2-2v-1l1-1h4c4.02 0 8-3.786 8-8 5.572 0 7 8.35 7 13Z"/><path fill="#CBCBCC" id="mlf" d="M220 157v2l-1-2v-1l1 1Z"/><path fill="#FE8D9E" id="PIL" d="m325 168-5.5 4c-3.299 1.65-6.194 0-9.5 0l-2-2.5c-1.941-3.882 1.541-13.5 6-13.5 0 4.093 5.128 8 9 8h4v2l-1 1-1 1Z"/><path fill="#0D9F90" id="ECT1" d="M423 169c0 1.473 1.952 1 3 1 3.779 0 6-9.973 6-13l-4-1-5 13Z"/><path fill="#FE90FD" id="RN" d="M195 191h10l1-1 1-1h2l1-1 1-1c1.562 0 5-2.189 5-4l1-1v-2c0-21.276-27.038-31.424-38-9.5-3.783 7.567 4.516 15.008 9.5 17.5 1.265.632 6.5 1.278 6.5 3ZM251 190c2.69 0 6.675 1 10 1 0-1.59 4.386-1.443 5.5-2 6.01-3.005 14.652-11.196 10.5-19.5-11.668-23.336-37-8.256-37 12.5l2 3 2 2h1l1 1h1l1 1h1l1 1h1Z"/><path fill="#FC8EFF" id="MA3" d="M222 158c0 5.677 4.136 0 0 0ZM233 158c0 5.95 2.235 0 0 0Z"/><path fill="#CBCBCC" id="mlf" d="M237 158c-1.473 0-1 1.952-1 3 1.473 0 1-1.952 1-3ZM220 160c1.577 0 2 1.762 2 3-1.577 0-2-1.762-2-3ZM236 161l-1 2 1-2Z"/><path fill="#FF6F80" id="TH" d="m130 164-1 1-1-2 2 1Z"/><path fill="#FF64FF" id="MB" d="m277 202-2 1-2-1c0-2.993 2-5.355 2-10 0-1.569 13.406-4.953 15.5-6 9.477-4.738 13.5-12.112 13.5-23l5 10c0 6.016 7.158 3 10 3l-1 7c-2.686 0-6.97-6.765-12.5-4-4.583 2.291-26.5 14.951-26.5 21l-1 1-1 1Z"/><path fill="#FF6F80" id="TH" d="M328 164h1v-1l-1 1Z"/><path fill="#FF64FF" id="MB" d="m183 202-1 2-3-2-5-5.5c-4.53-9.061-15.147-13.323-23.5-17.5-6.238-3.119-11.201 5-12.5 5 0-2.707-1-5.903-1-8 1.88 0 10 3.35 10-2 1.638 0 2-3.576 2-5l3-5c0 10.708 6.264 18.382 15.5 23 1.965.982 14.5 2.816 14.5 5 0 1.606-2.081 4.339-1 6.5.809 1.619 2 1.471 2 3.5Z"/><path fill="#FF6F80" id="TH" d="m328 164-1 1v-1h1Z"/><path fill="#7ECE4A" id="DG-po" d="m98 165 1 2-1-2Z"/><path fill="#FF6F80" id="TH" d="m129 167 2 1-2-2v1ZM326 167h1v-1l-1 1Z"/><path fill="#FF64FF" id="MB" d="M133 176h2c0-1.312-3-2.446-3-5l-1-1v-2l-2-1 2 7v1l2 1Z"/><path fill="#CACAC7" id="dtd" d="M224 169h1l1-2c-1.747 0-2 .253-2 2Z"/><path fill="#FEA6FF" id="RL" d="M229 183h2l2-1-2-13v-2h-5l-1 2-2 14h6Z"/><path fill="#CACAC7" id="dtd" d="m231 169 2 1c0-1.238-.423-3-2-3v2Z"/><path fill="#FF6F80" id="TH" d="M325 169h1v-2l-1 1v1Z"/><path fill="#FF64FF" id="MB" d="M326 169h1v-2h-1v2Z"/><path fill="#7ECE4A" id="DG-po" d="m358 167-1 2 1-2Z"/><path fill="#0E9583" id="PERI2/3" d="M40 180c-1.564 0-3.876 1-6 1l2-4.5-1-7.5 8-1 3 11-6 1Z"/><path fill="#0F9684" id="PERI5" d="M46 179h1l5-1-1-9h-1l-7-1 3 11Z"/><path fill="#FD7F84" id="PP" d="M135 176h2c1.88 0 10 3.35 10-2l-1-2-5.5 1-9.5-5v2l1 1c0 2.554 3 3.688 3 5ZM319 176h3l3-4v-4l-5.5 4c-3.299 1.65-6.194 0-9.5 0l-1 1c0 6.016 7.158 3 10 3Z"/><path fill="#0F9684" id="PERI5" d="m404 178 6 1c0-3.58 3-6.832 3-11l-7 1-2 9Z"/><path fill="#0E9583" id="PERI2/3" d="M416 180c1.819 0 4.591 1 7 1l-3-5.5c-1.278-2.555 2-4.516 2-6.5l-8-1h-1c0 4.168-3 7.42-3 11l6 1Z"/><path fill="#0E9584" id="PERI1" d="M33 181h1l2-4.5-1-7.5h-1c0 1.579-2.855 1-4 1l1 4.5c-1.206 2.411-5 4.652-5 7.5 2.41 0 5.181-1 7-1Z"/><path fill="#0E9684" id="PERI6a" d="m55 177-3 1-1-9h4v8Z"/><path fill="#0E9683" id="PERI6b" d="M55 177h2c0-.981-1.184-8-2-8v8Z"/><path fill="#FF6F80" id="TH" d="m146 172 1 2c1.638 0 2-3.576 2-5l-3 3Z"/><path fill="#FF64FF" id="MB" d="M205 191c1.747 0 2 .253 2 2 1.378 0 12-6.267 12-3l2-4c-2.764 0 2-9.747 2-11-1.486 0-1.486-3 0-3v-3c-3.083 0-2.375 11-6 11v2l-1 1c0 1.811-3.438 4-5 4l-1 1-1 1h-2l-1 1-1 1Z"/><path fill="#CACAC7" id="dtd" d="m224 169-1 2v-2h1Z"/><path fill="#C8C8C8" id="mtg" d="m222 185-1 1c-2.764 0 2-9.747 2-11v-4l1-2h1l-2 14-1 2ZM235 185v1c2.77 0-1-9.53-1-11-1.579 0-1-2.855-1-4v-1l-2-1 2 13 2 3Z"/><path fill="#FF64FF" id="MB" d="M326 169c0 1.048.473 3-1 3v-3h1Z"/><path fill="#0E9683" id="PERI6b" d="M402 169c0 1.048.473 3-1 3v-3h1Z"/><path fill="#0E9684" id="PERI6a" d="m401 177 3 1 2-9h-4c0 1.048.473 3-1 3v5Z"/><path fill="#0E9584" id="PERI1" d="M424 182h7c0-2.778-5-5.5-5-12-1.048 0-3 .473-3-1h-1c0 1.984-3.278 3.945-2 6.5l3 5.5 1 1Z"/><path fill="#7ECE4A" id="DG-po" d="m99 170 1 1-1-1Z"/><path fill="#FF6F80" id="TH" d="m131 170 1 1-1-1Z"/><path fill="#CACAC7" id="dtd" d="M233 171c1.579 0 1 2.855 1 4-1.579 0-1-2.855-1-4Z"/><path fill="#7ECE4A" id="DG-po" d="m357 171-1 2 1-2ZM100 172l1 1-1-1Z"/><path fill="#CACAC7" id="dtd" d="M223 172c-1.486 0-1.486 3 0 3v-3Z"/><path fill="#FF64FF" id="MB" d="m322 176 1 1 2-2v-3l-3 4Z"/><path fill="#0E9683" id="PERI6b" d="M400 177h1v-5c-1.643 0-1 3.765-1 5Z"/><path fill="#7ECE4A" id="DG-po" d="m356 173-1 1 1-1ZM101 175l1 1-1-1Z"/><path fill="#CCCAC7" id="cpd" d="m201 227-1 1c-1.601 0-6.808 4.154-8.5 5-7.536 3.768-26.228-5.114-32-8-4.225-2.113-19.701-21-20.5-21v-2l-1-1-1-4-1-2v-1l-1-1v-2c0-1.257-.941-8-2-8v-7h4c0 2.097 1 5.293 1 8 0 19.057 14.363 36 34 36l2 1 19 1c2.606 0 8 2.243 8 5ZM263 222c-2.053 0-8 2.129-8 5 1.638 0 7.679 5.09 9.5 6 7.729 3.865 22.273-3.136 28-6 6.409-3.204 11.472-8.472 17-14l5.5-6 1-1 1-1v-2l1-1v-1l1-1 1-5 1-1v-2l1-2v-1l1-12-1-1h-3l-1 7 1 7.5-4 12c-5.231 10.462-20.094 17.5-31 17.5h-1c0 1.643-3.765 1-5 1l-15 1Z"/><path fill="#7ECE4A" id="DG-po" d="m355 176-1 1 1-1Z"/><path fill="#32B824" id="ENTl6a" d="m79 222-2 1-8-10.5-4-4c-4.782-9.564-13-19.098-13-30.5l3-1h2c0 11.651 9.105 21.71 14 31.5l9 12.5-1 1Z"/><path fill="#7ECE4A" id="DG-po" d="m354 177-1 1 1-1Z"/><path fill="#C7C8CC" id="alv" d="M397 177c-1.949 0-4 9.971-4 12 2.267 0 4-9.814 4-12Z"/><path fill="#0E9683" id="PERI6b" d="m400 177-1 1 1-1Z"/><path fill="#32B824" id="ENTl6a" d="M377 223h3c0-4.174 7.179-7.857 9-11.5 5.298-10.597 15-19.831 15-33.5l-3-1h-1l-1 1c0 4.531-9.98 29-14 29l-1 2-1 2c0 1.429-1.288 4-3 4 0 1.429-1.288 4-3 4v4Z"/><path fill="#31B824" id="ENTl5" d="M73 227c-2.124 0-4.436 1-6 1l-12-17.5c-5.222-10.445-8-18.684-8-31.5l5-1c0 11.402 8.218 20.936 13 30.5l4 4 8 10.5-3 3-1 1ZM383 227h6c2.292 0 6.141-7.783 7-9.5 6.766-13.531 14-21.906 14-38.5l-6-1c0 13.669-9.702 22.903-15 33.5-1.821 3.643-9 7.326-9 11.5l2 3 1 1Z"/><path fill="#32B725" id="ENTl3" d="m67 228-9 2-9-13.5c-4.223-8.446-5.756-18.511-10-27l1-9.5 6-1h1c0 12.816 2.778 21.055 8 31.5L67 228Z"/><path fill="#7ECE4A" id="DG-po" d="m103 179 1 1-1-1Z"/><path fill="#FF8DFD" id="SNr" d="M179 209c-2.108 0-7 9.057-7 11-19.637 0-34-16.943-34-36 1.299 0 6.262-8.119 12.5-5 8.353 4.177 18.97 8.439 23.5 17.5l5 5.5-2.5-2c-2.681 0 2.5 8.925 2.5 9ZM278 209c.891 0 6 9.374 6 11 10.906 0 25.769-7.038 31-17.5l4-12-1-7.5c-2.686 0-6.97-6.765-12.5-4-4.583 2.291-26.5 14.951-26.5 21 4.776 0-1 6.681-1 9Z"/><path fill="#32B725" id="ENTl3" d="M389 227c0 1.139 7.742 3 9 3 0-1.236 8.56-12.619 10-15.5 6.49-12.979 8-20.104 8-34.5l-6-1c0 16.594-7.234 24.969-14 38.5-.859 1.717-4.708 9.5-7 9.5Z"/><path fill="#32B825" id="ENTl2" d="m58 230-11 3c0-3.908-13.446-36.392-16-41.5-1.84-3.679 2-7.473 2-10.5h1c2.124 0 4.436-1 6-1l-1 9.5c4.244 8.489 5.777 18.554 10 27l9 13.5Z"/><path fill="#7ECE4A" id="DG-po" d="m353 180-1 1 1-1Z"/><path fill="#32B825" id="ENTl2" d="m398 230 11 3c0-2.361 3.832-9.163 5-11.5 4.442-8.883 6.498-18.995 11-28 1.616-3.232-1-8.676-1-11.5l-1-1c-2.409 0-5.181-1-7-1 0 14.396-1.51 21.521-8 34.5-1.44 2.881-10 14.264-10 15.5Z"/><path fill="#32B722" id="ENTl1" d="m47 233-4 1-6-13.5c-4.228-8.457-11-28.471-11-38.5 2.41 0 5.181-1 7-1 0 3.027-3.84 6.821-2 10.5 2.554 5.108 16 37.592 16 41.5Z"/><path fill="#7ECE4A" id="DG-po" d="m352 181-1 1 1-1ZM105 182l1 1-1-1Z"/><path fill="#7DCD4B" id="HPF" d="M131 186h2v-4h-1c0 1.048.473 3-1 3v1Z"/><path fill="#FF8FFD" id="MRN" d="m217 182-1 1 1-1Z"/><path fill="#FF64FF" id="MB" d="m231 183 4 2-2-3-2 1Z"/><path fill="#32B722" id="ENTl1" d="M409 233h4c2.761 0 4.025-9.55 5-11.5 5.597-11.194 13-26.289 13-39.5h-7c0 2.824 2.616 8.268 1 11.5-4.502 9.005-6.558 19.117-11 28-1.168 2.337-5 9.139-5 11.5Z"/><path fill="#FF64FF" id="MB" d="m225 183-3 2 1-2h2Z"/><path fill="#CACBC9" id="vtd" d="m229 194 5 1c0-1.54 3-.764 3-4v-2l-2-3v-1l-4-2h-2c0 1.186-1 1.186-1 0h-3l-3 2-1 1-2 4v2l3 3 6-1c0-1.186 1-1.186 1 0Z"/><path fill="#FF64FF" id="MB" d="M228 183h1c0 1.186-1 1.186-1 0Z"/><path fill="#7ECE4A" id="DG-po" d="m351 183-1 1 1-1ZM106 184l2 2-2-2Z"/><path fill="#7DCD4B" id="HPF" d="m327 184-1 1 1-1Z"/><path fill="#7ECE4A" id="DG-po" d="m350 184-1 1 1-1Z"/><path fill="#FF8FFD" id="MRN" d="m242 185 2 2-2-2Z"/><path fill="#7DCD4B" id="HPF" d="M324 186h1v-1h-1v1Z"/><path fill="#C7C8CC" id="alv" d="m326 185-1 1v-1h1ZM135 191v2l-4-7h2c0 1.041.986 5 2 5ZM325 186l-1 1v-1h1Z"/><path fill="#7ECE4A" id="DG-po" d="m349 186-1 1 1-1Z"/><path fill="#FF8FFD" id="MRN" d="m211 187-1 1 1-1ZM245 187l1 1-1-1Z"/><path fill="#C7C8CC" id="alv" d="m324 187-1 2 1-2Z"/><path fill="#7ECE4A" id="DG-po" d="m348 187-1 1 1-1ZM109 188l2 2-2-2Z"/><path fill="#FF8FFD" id="MRN" d="m210 188-1 1 1-1ZM247 188l1 1-1-1ZM207 189l-1 1 1-1Z"/><path fill="#C8C8CB" id="rust" d="M207 193c0 4.239-5.645 10 3 10l5-2.5 4-8.5v-2c0-3.267-10.622 3-12 3ZM250 194c0 4.52 4.189 9-4 9l-5-3.5-4-8.5v-2c5.187 0 8.619 5 13 5Z"/><path fill="#FF8FFD" id="MRN" d="m249 189 1 1-1-1Z"/><path fill="#C7C8CC" id="alv" d="M322 190v2c1.473 0 1-1.952 1-3h-1v1ZM393 189l-2 4c2.109 0 2-2.535 2-4Z"/><path fill="#FE8DFF" id="VTA" d="M246 203c0 4.027 10.895 2 15 2 2.775 0 7-7.832 7-10l-1-2c-1.974 0-3.517-2-6-2-3.325 0-7.31-1-10-1l-1 4c0 4.52 4.189 9-4 9ZM210 203c2.117 0 .487 2.507-.5 3-1.259.63-10.947-1-13.5-1-2.738 0-8-7.481-8-10l1-2c2.447 0 3.28-2 6-2h10c1.747 0 2 .253 2 2 0 4.239-5.645 10 3 10Z"/><path fill="#FF64FF" id="MB" d="M255 227c-3.015 0-5.883 2-9 2l2-4.5-1-5.5c0-7.543-10-12.607-10-16 2.228 0 .333-8-3-8 0-1.54 3-.764 3-4l4 8.5 5 3.5c0 4.027 10.895 2 15 2 0 3.013-11.37 2.24-13 5.5-1.537 3.075 2.147 15.677 6.5 13.5 2.732-1.366 16.566-19 17.5-19h1l-2 5-1 1-1 1-1 1-7 6.5 2 2.5c-2.053 0-8 2.129-8 5Z"/><path fill="#CACCC8" id="ml" d="M185 205c0 3.842 10.801 11.101 13 15.5.918 1.837 4.276 4.612 6.5 3.5 2.644-1.322 3.326-7.153 4.5-9.5 4.236-8.472-13-5.213-13-9.5-2.738 0-8-7.481-8-10l-1-2h-1l-1-1h-3c0 1.606-2.081 4.339-1 6.5.809 1.619 2 1.471 2 3.5 1.577 0 2 1.762 2 3Z"/><path fill="#FF64FF" id="MB" d="m185 192 1 1-1-1ZM201 227c8.377 0 10.887 6 15 6l-6-4.5c-1.372-2.745-1-6.19-1-9.5 0-6.352 10-13.223 10-16 0-2.928-.661-8 3-8l-3-3-4 8.5-5 2.5c2.117 0 .487 2.507-.5 3-1.259.63-10.947-1-13.5-1 0 4.287 17.236 1.028 13 9.5-1.174 2.347-1.856 8.178-4.5 9.5-2.224 1.112-5.582-1.663-6.5-3.5-2.199-4.399-13-11.658-13-15.5l-2 1 3 4 9 8.5c1.189 2.377-2 2.116-2 3.5 2.606 0 8 2.243 8 5ZM272 192l-2 1 2-1Z"/><path fill="#CACCC8" id="ml" d="M261 205c0 3.013-11.37 2.24-13 5.5-1.537 3.075 2.147 15.677 6.5 13.5 2.732-1.366 16.566-19 17.5-19 0-1.048-.473-3 1-3 0-2.993 2-5.355 2-10h-3l-2 1-2 2c0 2.168-4.225 10-7 10Z"/><path fill="#C7C8CC" id="alv" d="m322 192-1 2v-2h1Z"/><path fill="#FF64FF" id="MB" d="m189 193-1 2-1-2h2ZM228 194h1c0-1.186-1-1.186-1 0ZM270 193l-2 2-1-2h3Z"/><path fill="#C7C8CC" id="alv" d="M144 217h1l-6-13v-2l-1-1-1-4-1-2v-1h-1c0 5.978 4.452 12.404 7 17.5.492.984.851 5.5 2 5.5Z"/><path fill="#FFA6FF" id="IF" d="m237 203-3 1-4-2h-3l-1 1c-2.424 0-2.76 2-4 2 0-1.577-1.762-2-3-2 0-2.928-.661-8 3-8l6-1h1l5 1c3.333 0 5.228 8 3 8Z"/><path fill="#C7C8CC" id="alv" d="M391 194c-1.577 0-2 1.762-2 3 1.577 0 2-1.762 2-3ZM321 195c0 1.424-.362 5-2 5l1-5h1ZM389 198c-1.577 0-2 1.762-2 3 1.577 0 2-1.762 2-3Z"/><path fill="#FFA6FD" id="SNc" d="m186 210 4 6.5c0 5.264-9.751-5.5-10-5.5l-1-2c0-.075-5.181-9-2.5-9l2.5 2 3 2 1 2 3 4ZM269 212l-1 1-1 2.5c-1.57 3.139 2.284 2.108 3.5 1.5l5.5-6 2-2c0-2.319 5.776-9 1-9l-1 1-1 1-2 1c0 1.747-.253 2-2 2l-2 5-1 1-1 1Z"/><path fill="#FF8DFD" id="SNr" d="m278 201-1 1 1-1Z"/><path fill="#C7C8CC" id="alv" d="M318 202v1l1-2h-1v1ZM387 201l-1 2 1-2Z"/><path fill="#C7CCCC" id="IIIn" d="m185 205-2 1-1-2 1-2c1.577 0 2 1.762 2 3Z"/><path fill="#FEA4FF" id="IPDM" d="m227 202-1 1 1-1Z"/><path fill="#FFA4FE" id="IPR" d="M221 219h14v-9c0-2.751-5-4.565-5-8h-3l-1 1c0 3.712-5 4.753-5 7v9Z"/><path fill="#FEA4FF" id="IPDM" d="M237 208c0 1.747-.253 2-2 2 0-2.751-5-4.565-5-8l4 2 3 4Z"/><path fill="#C7CCCC" id="IIIn" d="M272 205h1c1.747 0 2-.253 2-2l-2-1c-1.473 0-1 1.952-1 3Z"/><path fill="#FF8EFE" id="PN" d="m211 217-2 2c0-6.352 10-13.223 10-16 1.238 0 3 .423 3 2l-3 3-5 5-1 2-1 1-1 1Z"/><path fill="#FEA4FF" id="IPDM" d="m219 208 2 2c0-2.247 5-3.288 5-7-2.424 0-2.76 2-4 2l-3 3Z"/><path fill="#FF8EFE" id="PN" d="m246 218 1 1c0-7.543-10-12.607-10-16l-3 1 3 4 6 6 3 4Z"/><path fill="#C7C8CC" id="alv" d="m318 203-1 2v-2h1ZM386 203l-1 2 1-2ZM384 207h1v-2l-1 2ZM315 207v3l2-4h-1l-1 1ZM383 209h1v-2l-1 2Z"/><path fill="#C8CBCC" id="ec" d="m385 207-1 2v-2h1Z"/><path fill="#FDA6FE" id="IPDL" d="M216 219h5v-9l-2-2-5 5 2 6ZM235 219h6c0-1.424.362-5 2-5l-6-6c0 1.747-.253 2-2 2v9Z"/><path fill="#C7CCCC" id="IIIn" d="m172 220 2 1c0-4.333 6-5.69 6-10l-1-2c-2.108 0-7 9.057-7 11ZM283 220h1c0-1.626-5.109-11-6-11l-2 2c0 1.576 5.242 9 7 9Z"/><path fill="#C7C8CC" id="alv" d="m383 211-2 1c0-1.238.423-3 2-3v2Z"/><path fill="#C8CBCC" id="ec" d="m384 209-1 2v-2h1Z"/><path fill="#FF8DFD" id="SNr" d="m174 221 19 1c0-1.384 3.189-1.123 2-3.5l-9-8.5 4 6.5c0 5.264-9.751-5.5-10-5.5 0 4.31-6 5.667-6 10ZM271 210l-1 1 1-1Z"/><path fill="#C7C8CC" id="alv" d="m315 210-2 4c2.109 0 2-2.535 2-4Z"/><path fill="#FF8DFD" id="SNr" d="m270 211-1 1 1-1ZM283 220c0 1.643-3.765 1-5 1l-15 1-2-2.5 7-6.5-1 2.5c-1.57 3.139 2.284 2.108 3.5 1.5l5.5-6c0 1.576 5.242 9 7 9Z"/><path fill="#7ECE4A" id="DG-po" d="m329 211-1 1 1-1Z"/><path fill="#C8CBCC" id="ec" d="M380 213v2c1.712 0 3-2.571 3-4l-2 1-1 1Z"/><path fill="#FF8DFD" id="SNr" d="m269 212-1 1 1-1Z"/><path fill="#7ECE4A" id="DG-po" d="m328 212-1 1 1-1Z"/><path fill="#C7C8CC" id="alv" d="m381 212-1 1 1-1Z"/><path fill="#7ECE4A" id="DG-po" d="M129 213c3.309 0 7.746 6 14 6 0 11.648-14-1.159-14-6Z"/><path fill="#FEA5FF" id="IPL" d="m218 234 3 1v-2c-4.363 0-5-10.831-5-14l-2-6-1 2-1 1-1 1-2 2c0 3.31-.372 6.755 1 9.5l6 4.5h1l1 1Z"/><path fill="#7ECE4A" id="DG-po" d="M327 213c-1.323 0-7.874 6-14 6 0 11.357 14-.414 14-6Z"/><path fill="#C7C8CC" id="alv" d="M379 215h1v-2l-1 2Z"/><path fill="#FEA5FF" id="IPL" d="M235 235h2l1-1 3-1 1-1 1-1 2-1 1-1 2-4.5-1-5.5-1-1-3-4c-1.638 0-2 3.576-2 5 0 2.441-1.671 13-5 13l-1 3Z"/><path fill="#FFA6FE" id="IPN" d="m243 214 3 4-3-4ZM213 215l-1 1 1-1Z"/><path fill="#C7C8CC" id="alv" d="M312 219h1v-4l-1 2v2ZM379 215c-1.747 0-2 .253-2 2l2-2Z"/><path fill="#C8CBCC" id="ec" d="M377 217v2c1.712 0 3-2.571 3-4h-1l-2 2Z"/><path fill="#FFA6FE" id="IPN" d="m212 216-1 1 1-1Z"/><path fill="#7DCD4B" id="HPF" d="M146 220h1l-2-3h-1v2l2 1ZM311 219h1v-2l-1 2Z"/><path fill="#C7C8CC" id="alv" d="M374 221h1l2-2v-2c-1.712 0-3 2.571-3 4Z"/><path fill="#FFA5FE" id="IPC" d="M221 235h14l1-3-1-13h-14v16Z"/><path fill="#FEA6FD" id="IPI" d="M221 219v14c-4.363 0-5-10.831-5-14h5ZM241 219c0 2.441-1.671 13-5 13l-1-13h6Z"/><path fill="#7BD04A" id="DG-mo" d="m311 219-1 1 1-1Z"/><path fill="#C8CBCC" id="ec" d="M375 221h2v-2l-2 2Z"/><path fill="#8AD987" id="CTXsp" d="m79 222 3 1-2-2-1 1Z"/><path fill="#C7C8CC" id="alv" d="m374 221-1 1 1-1Z"/><path fill="#C8CBCC" id="ec" d="M373 223h2v-2h-1l-1 1v1Z"/><path fill="#8AD987" id="CTXsp" d="M375 223h2v-2h-2v2Z"/><path fill="#A0ED9D" id="EPv" d="m89 229-1 2c-5.08 0-10.656-4-14-4v-1l3-3 2-1 3 1 7 6Z"/><path fill="#C7C8CC" id="alv" d="M372 223h1v-1l-1 1ZM372 223l-1 1 1-1Z"/><path fill="#C8CBCC" id="ec" d="M371 224v1c1.747 0 2-.253 2-2h-1l-1 1Z"/><path fill="#A0ED9D" id="EPv" d="m367 230 1 1c2.517 0 14-1.276 14-4v-1l-2-3h-7c0 1.747-.253 2-2 2l-1 1-1 1-1 1-1 1v1Z"/><path fill="#C7C8CC" id="alv" d="M370 225h1v-1l-1 1ZM369 226h1v-1l-1 1Z"/><path fill="#C8CBCC" id="ec" d="m371 225-1 1v-1h1Z"/><path fill="#99D2BD" id="OLF" d="M73 227h1v-1l-1 1Z"/><path fill="#C7C8CC" id="alv" d="M368 227h1v-1l-1 1Z"/><path fill="#C8CBCC" id="ec" d="m370 226-1 1v-1h1Z"/><path fill="#99D2BD" id="OLF" d="M382 227h1l-1-1v1Z"/><path fill="#A8ECD2" id="TR" d="M98 250c-4.185 0-13 11.333-13 15l-4.5-2h-7c-7.025-3.513-16.501-8.503-20.5-16.5-1.663-3.325-10-9.629-10-12.5l4-1 11-3 9-2c1.564 0 3.876-1 6-1h1c3.344 0 8.92 4 14 4l5 1 8 6 1 2c0 4.679-4 8.117-4 10Z"/><path fill="#FF64FF" id="MB" d="m201 227-1 1 1-1Z"/><path fill="#C7C8CC" id="alv" d="M365 229h2l1-1v-1c-1.238 0-3 .423-3 2Z"/><path fill="#C8CBCC" id="ec" d="m369 227-1 1v-1h1Z"/><path fill="#A8ECD2" id="TR" d="M360 251c3.92 0 11 10.472 11 14l4.5-2h7c8.158-4.079 18.014-9.528 22.5-18.5 1.814-3.628 8-6.195 8-11.5h-4l-11-3c-1.258 0-9-1.861-9-3h-7c0 2.724-11.483 4-14 4l-4 1-1 1h-1l-1 1-1 1h-1l-1 1-1 1h-1l-1 1-1 2c0 5.638 6 9.589 6 11Z"/><path fill="#C8CBCC" id="ec" d="m368 228-1 1 1-1Z"/><path fill="#8AD987" id="CTXsp" d="m88 231 5 1-4-3-1 2Z"/><path fill="#33B931" id="HATA" d="M114 243c5.388 0 10.058 6 16 6 1.526 0 6-12.815 6-15l-1-1c0-1.797-2.203-4-4-4 0 2.707-14.446 12-17 12v2Z"/><path fill="#FF64FF" id="MB" d="m246 229-1 1 1-1Z"/><path fill="#33B931" id="HATA" d="M343 243c-3.675 0-8.318 3.409-11.5 5-.93.465-4.5.817-4.5 2-1.009 0-6-12.612-6-15v-2l4-4c2.018 0 12.047 12 18 12v2Z"/><path fill="#C7C8CC" id="alv" d="M364 230h1v-1l-1 1Z"/><path fill="#C8CBCC" id="ec" d="M365 230h2v-1h-2v1Z"/><path fill="#FF64FF" id="MB" d="m245 230-2 1 2-1Z"/><path fill="#C7C8CC" id="alv" d="M363 231h1v-1l-1 1Z"/><path fill="#C8CBCC" id="ec" d="m365 230-1 1v-1h1Z"/><path fill="#8AD987" id="CTXsp" d="m368 231-4 1v-1l1-1h2l1 1Z"/><path fill="#FF64FF" id="MB" d="m243 231-1 1 1-1Z"/><path fill="#C7C8CC" id="alv" d="m362 231-1 1 1-1Z"/><path fill="#C8CBCC" id="ec" d="M362 233h1l1-1v-1h-2l-1 1v1h1Z"/><path fill="#FF64FF" id="MB" d="m242 232-1 1 1-1Z"/><path fill="#C7C8CC" id="alv" d="M360 233h1v-1l-1 1Z"/><path fill="#8AD987" id="CTXsp" d="m364 232-1 1 1-1Z"/><path fill="#7DCD4B" id="HPF" d="M136 234h1l-2-1 1 1Z"/><path fill="#FF64FF" id="MB" d="m217 233 1 1-1-1Z"/><path fill="#7DCD4B" id="HPF" d="M321 233v2l-1-2h1Z"/><path fill="#C7C8CC" id="alv" d="m359 233-1 1 1-1Z"/><path fill="#C8CBCC" id="ec" d="M359 235h1l1-1v-1h-2l-1 1v1h1Z"/><path fill="#8AD987" id="CTXsp" d="m362 233-1 1v-1h1Z"/><path fill="#FF64FF" id="MB" d="m238 234-1 1 1-1Z"/><path fill="#C7C8CC" id="alv" d="M357 235h1v-1l-1 1Z"/><path fill="#8AD987" id="CTXsp" d="m361 234-1 1 1-1Z"/><path fill="#C7C8CC" id="alv" d="m100 235 11 6c-1.902 0-11-3.832-11-6Z"/><path fill="#FF9B88" id="P" d="m183 245-1 7.5c.706 1.412 5 5.954 5 6.5 0 2.577 6.545 2 8.5 2 4.261 0 30.494.512 31.5-1.5 6.584-13.168-11.987-29.256-23.5-23.5-1.631.816-10.5.887-10.5 3l13.5-2c9.149 0 21.611 11.695 9 18h-24l-5.5-5.5c-3.195-6.39 7-7.796 7-10.5-2.221 0-9 2.004-9 5l-1 1Z"/><path fill="#FF9B88" id="P" fill-rule="evenodd" d="M248 237c0 2.144-4.262.381-5.5 1-2.39 1.195-8.191 6.119-6.5 9.5 1.122 2.244 1.761 6.131 4.5 7.5 2.375 1.188 23.879.061 26-1 5.183-2.591 5.389-10.305 0-13-2.115-1.058-4.961-.981-7-2-3.581-1.791-7.133-2-11.5-2m25 7 1 9.5-4 5.5c0 2.423-8.394 2-10.5 2-8.106 0-22.058 2.471-29-1l-1.5-6.5v-5c6.143-12.287 18.87-16.815 31.5-10.5 2.425 1.212 12.5 1.905 12.5 6Z"/><path fill="#C7C8CC" id="alv" d="m356 235-1 1 1-1Z"/><path fill="#C8CBCC" id="ec" d="M356 237h1l1-1v-1h-2l-1 1v1h1Z"/><path fill="#8AD987" id="CTXsp" d="m359 235-1 1v-1h1Z"/><path fill="#C7C8CC" id="alv" d="M354 237h1v-1l-1 1Z"/><path fill="#8AD987" id="CTXsp" d="m358 236-1 1 1-1Z"/><path fill="#FFB885" id="PG" d="M193 239c0 2.704-10.195 4.11-7 10.5l5.5 5.5h24c12.611-6.305.149-18-9-18l-13.5 2ZM248 237c0 2.144-4.262.381-5.5 1-2.39 1.195-8.191 6.119-6.5 9.5 1.122 2.244 1.761 6.131 4.5 7.5 2.375 1.188 23.879.061 26-1 5.183-2.591 5.389-10.305 0-13-2.115-1.058-4.961-.981-7-2-3.581-1.791-7.133-2-11.5-2Z"/><path fill="#C7C8CC" id="alv" d="m353 237-2 1 2-1Z"/><path fill="#C8CBCC" id="ec" d="M351 239h2l2-1v-1h-2l-2 1v1Z"/><path fill="#8AD987" id="CTXsp" d="m356 237-1 1v-1h1Z"/><path fill="#C7C8CC" id="alv" d="M350 239h1v-1l-1 1Z"/><path fill="#97EC93" id="PA" d="M106 251c8.189 0 17.683 7 19 7 2.065 0 5-7.264 5-9-5.942 0-10.612-6-16-6h-1l-1-1c-3.647 0-5.609-3-9-3l-1 1c0 4.679-4 8.117-4 10 2.707 0 5.903 1 8 1Z"/><path fill="#C7C8CC" id="alv" d="m349 239-2 1 2-1Z"/><path fill="#C8CBCC" id="ec" d="M347 240v1c1.465 0 4 .109 4-2h-2l-2 1Z"/><path fill="#97EC93" id="PA" d="M350 251h10c0-1.411-6-5.362-6-11l-1-1h-2c0 2.109-2.535 2-4 2l-2 1-2 1c-3.675 0-8.318 3.409-11.5 5-.93.465-4.5.817-4.5 2 0 3.44 4 5.253 4 8 2.98 0 9.897-7 19-7Z"/><path fill="#C7C8CC" id="alv" d="M345 241h2v-1l-2 1ZM112 242h1v-1h-1v1Z"/><path fill="#7DCD4B" id="HPF" d="M113 243h1v-2h-1v2Z"/><path fill="#C7C8CC" id="alv" d="M343 242h1v-1h-1v1Z"/><path fill="#C8CBCC" id="ec" d="M344 242h1l2-1h-3v1Z"/><path fill="#F0F080" id="CB" d="M180 245h1c0-1.186-1-1.186-1 0Z"/><path fill="#CCCCCA" id="mcp" d="m184 244-1 1 1-1ZM285 247c0 13.149-2.635 12-15 12l4-5.5-1-9.5 2 1c3.569 0 6.522 2 10 2Z"/><path fill="#F0F080" id="CB" d="M275 245c3.569 0 6.522 2 10 2 0-2.971-10-2.498-10-2ZM179 245c-1.321 0-6-.684-6 1 1.402 0 6 2.684 6-1Z"/><path fill="#CCCCCA" id="mcp" d="M173 246c-3.892 0-2.284 11.608.5 13l4-1c2.679 0 6.239 1 9.5 1 0-.546-4.294-5.088-5-6.5l1-7.5h-4c0 3.684-4.598 1-6 1Z"/><path fill="#5FE6B7" id="COApl" d="M85 265c3.95 0 5.894 6 10 6 0-8.361 11-18.577 11-20-2.097 0-5.293-1-8-1-4.185 0-13 11.333-13 15ZM371 265l-9 6c0-7.794-12-19.25-12-20h10c3.92 0 11 10.472 11 14Z"/><path fill="#60E6B5" id="COApm" d="M125 258c0 7.907-13.279 13.389-18.5 16-2.365 1.183-11.5.019-11.5-3 0-8.361 11-18.577 11-20 8.189 0 17.683 7 19 7ZM362 271l-1 1c0 1.792-9.515 2.993-11.5 2-4.66-2.33-18.5-10.031-18.5-16 2.98 0 9.897-7 19-7 0 .75 12 12.206 12 20Z"/><path fill="#5FE6B7" id="COApl" d="m362 271-1 1 1-1Z"/></svg>