<svg xmlns="http://www.w3.org/2000/svg" viewBox="0 0 456 320"><path fill="#FCFB90" id="CUL4, 5" fill-rule="evenodd" d="M176 82c0 5.512.634 0 0 0m1-2c0 1.93 1.93 0 0 0m1-1c0 1.93 1.93 0 0 0m22-27c0 3.555 2.87 1.185 6.5 3l3 3c3.108 1.554 33.876 1.562 37 0l4-3 6.5-1.5c1.047-2.094-3.53-1.5-4.5-1.5l-15 1c-12.443 0-24.564-1-37.5-1m76 71c14.736 0 14.01-18.48 9-28.5L277.5 78c1.777 0 6.688 11.876 7.5 13.5 5.466 10.932 4.194 43.5 21 43.5 0-17.059-1.956-41.412-9-55.5-4.102-8.203-12-16.706-12-26.5-4.178 0-4.198-6.85-8.5-9-7.413-3.706-15.688-5.344-23-9H237c-15.407 0-34.622-2.439-47.5 4-4.357 2.178-9.366 4.366-13 8-1.307 1.307-1.74 6-4.5 6 0 9.068-9.1 19.7-13 27.5-5.984 11.969-9 39.77-9 54.5 4.399 0 7.068-1.635 9-5.5 1.431-2.863 5.245-6.49 7-10 2.444-4.887-.112-14.775 3-21 .721-1.441 4.038-13.5 5.5-13.5l.5 2.5-5 12c-4.433 8.865-2.247 23.5 10 23.5 0-11.959 4.051-20.603 9-30.5 3.798-7.595 16.252-8.376 22.5-11.5h9c4.366-2.183 11.537-2.232 16 0 4.428 2.214 11.48-.26 16 2 16.937 8.469 23.5 20.651 23.5 40Z"/><path fill="#FDFB8F" id="SIM" d="M129 121c3.371 0 4.866-11.233 6-13.5 3.65-7.299 4.35-15.7 8-23l2-13c.801-1.602 9.572-13.464 11.5-12.5 1.528.764-3.334 4.168-3.5 4.5-1.335 2.67-4.359 5.719-6 9-1.94 3.88-.039 10.077-2 14-5.142 10.284-17.105 48.5 5 48.5 0-14.73 3.016-42.531 9-54.5 3.9-7.8 13-18.432 13-27.5l-5.5-6C156.195 41.848 122 60.86 122 70c1.569 0 4.181 8.861 5 10.5l-1 12v16c1.513 3.027 3 9.085 3 12.5ZM328 122c-2.859 0-4.981-9.462-6-11.5l-9-28-2-12c-.881-1.763-9.505-12.498-11.5-11.5l5.5 6.5c3.456 3.456 3.054 7.108 5 11l1 9c5.133 10.265 17.706 49.5-5 49.5 0-17.059-1.956-41.412-9-55.5-4.102-8.203-12-16.706-12-26.5 0-11.406 23.218-4.141 27.5-2L329 61.5l4 4c.523 1.046-.951 3.5 1 3.5l-4 9.5c-1.523 3.046-.29 13.42 1 16 3.764 7.527-3 19.931-3 27.5Z"/><path fill="#CBC9CC" id="arb" d="M200 52c0 3.555 2.87 1.185 6.5 3l3 3c3.108 1.554 33.876 1.562 37 0l4-3 6.5-1.5c1.047-2.094-3.53-1.5-4.5-1.5l-15 1c-12.443 0-24.564-1-37.5-1Z"/><path fill="#CBC9CC" id="arb" fill-rule="evenodd" d="M209 144v5.5c0 12.904 14.666-.417 20.5 2.5 2.856 1.428 12.496 4.752 16 3 1.664-.832 2.765-10.118 1-11-6.469-3.235-15.195 6.403-22 3-4.54-2.27-10.047-3-15.5-3m-88 25h1c0-3.31-.372-6.755 1-9.5 1.328-2.655 7-1.904 7-4.5 0-4.101-.29-6.605 4.5-9 3.105-1.552 7.751 5.624 13 3 6.468-3.234 32.5-18.059 32.5-3l5.5-1 1.5 2c2.558 0 4.36-2.93 6.5-4 4.179-2.089 12.322 4.144 14.5 8.5l-3 6c-1.646 3.291-11 4.007-11 6.5l6-1h1c0-1.924 10.824-1.162 12.5-2 11.561-5.78 31.599 2 43.5 2l6 1c0-1.845-3.381-1.441-4.5-2-2.926-1.463-7.727-3.953-9.5-7.5-3.282-6.565 11.083-13.208 14.5-11.5l6.5 5c0-4.449 3.282-2 7-2 0-2.151-.815-5.843 1.5-7 5.004-2.502 25.413 7.707 30 10 5.24 2.62 10.424-4.788 14-3 3.585 1.792 4.5 4.844 4.5 9 0 1.28 8 4.115 8 14l4.5-5c5.621-2.811 8.563-3 14.5-3 4.559 0 8.694 2.097 12.5 4 1.807.904 4.28-2 6.5-2l.5-2h-7c-2.325-1.163-18.5-8.076-18.5-9-5.514 0-14.686-13.128-12-18.5 2.83-5.659 9.145-6.291 12-12 2.484-4.968 2.483-10.966 5-16 1.973-3.946-.31-15.5-4.5-15.5l2.5 7.5c1.919 3.837-.19 10.38-2 14-2.675 5.35-5.549 12.525-11.5 15.5-2.009 1.004-9.5-3.634-9.5-5-2.859 0-4.981-9.462-6-11.5l-9-28-2-12c-.881-1.763-9.505-12.498-11.5-11.5l5.5 6.5c3.456 3.456 3.054 7.108 5 11l1 9c5.133 10.265 17.706 49.5-5 49.5-16.806 0-15.534-32.568-21-43.5-.812-1.624-5.723-13.5-7.5-13.5l7.5 16.5c5.01 10.02 5.736 28.5-9 28.5-4.253 0-5.964 5.232-9.5 7-3.632 1.816-7.323 3.161-11 5l-20 1c-2.033 1.016-7.348 3.326-10 2-10.163-5.082-23.758-1.879-34-7-4.058-2.029-6.607-8-11.5-8-12.247 0-14.433-14.635-10-23.5l5-12-.5-2.5c-1.462 0-4.779 12.059-5.5 13.5-3.112 6.225-.556 16.113-3 21-1.755 3.51-5.569 7.137-7 10-1.932 3.865-4.601 5.5-9 5.5-22.105 0-10.142-38.216-5-48.5 1.961-3.923.06-10.12 2-14 1.641-3.281 4.665-6.33 6-9 .166-.332 5.028-3.736 3.5-4.5-1.928-.964-10.699 10.898-11.5 12.5l-2 13c-3.65 7.3-4.35 15.701-8 23-1.134 2.267-2.629 13.5-6 13.5l-4.5 4c-7.585 3.792-12.102-2.703-15.5-9.5-2.239-4.479-4-10.113-4-15.5 0-1.061 2.713-8 1.5-8l-1.5 2.5c-3.862 7.724-4.624 6.751 0 16l4 12 11 9c3.085 6.17-4.831 20.5-11 20.5 0 1.229-16.888 7.694-19.5 9h-6l.5 2c2.269 0 3.92 3.29 6.5 2 4.164-2.082 7.402-4 12.5-4 4.194 0 18 .506 18 8Z"/><path fill="#FCFC90" id="ANcr1" fill-rule="evenodd" d="M107 91c0 1.93 1.93 0 0 0m-40 43c2.824 0 8.268-2.616 11.5-1 7.557 3.778 10.537 11.269 18 15 1.686.843 12.5 2.487 12.5 4 6.169 0 14.085-14.33 11-20.5l-11-9-4-12c-4.624-9.249-3.862-8.276 0-16l1.5-2.5c1.213 0-1.5 6.939-1.5 8 0 5.387 1.761 11.021 4 15.5 3.398 6.797 7.915 13.292 15.5 9.5l4.5-4c0-3.415-1.487-9.473-3-12.5v-16l1-12c-.819-1.639-3.431-10.5-5-10.5-2.421 0-6.678-2.411-9.5-1-16.36 8.18-39.316 34.132-47.5 50.5-2.862 5.725 2 10.115 2 14.5Z"/><path fill="#FCFC90" id="ANcr1" d="M389 134c-5.753 0-9.929-1.786-15.5 1-4.639 2.32-5.806 9.403-11 12-1.915.957-14.5 3.054-14.5 5-5.514 0-14.686-13.128-12-18.5 2.83-5.659 9.145-6.291 12-12 2.484-4.968 2.483-10.966 5-16 1.973-3.946-.31-15.5-4.5-15.5l2.5 7.5c1.919 3.837-.19 10.38-2 14-2.675 5.35-5.549 12.525-11.5 15.5-2.009 1.004-9.5-3.634-9.5-5 0-7.569 6.764-19.973 3-27.5-1.29-2.58-2.523-12.954-1-16l4-9.5c2.954 0 9.123-.689 12.5 1 14.204 7.102 37.387 34.275 44.5 48.5 3.337 6.674-2 10.788-2 15.5Z"/><path fill="#CBC9CC" id="arb" d="M178 79c0 1.93 1.93 0 0 0Z"/><path fill="#FFFC8E" id="CENT3" d="M180 123c4.893 0 7.442 5.971 11.5 8 10.242 5.121 23.837 1.918 34 7 2.652 1.326 7.967-.984 10-2l20-1c3.677-1.839 7.368-3.184 11-5 3.536-1.768 5.247-7 9.5-7 0-19.349-6.563-31.531-23.5-40-4.52-2.26-11.572.214-16-2-4.463-2.232-11.634-2.183-16 0h-9c-6.248 3.124-18.702 3.905-22.5 11.5-4.949 9.897-9 18.541-9 30.5Z"/><path fill="#CBC9CC" id="arb" d="M177 80c0 1.93 1.93 0 0 0ZM176 82c0 5.512.634 0 0 0ZM107 91c0 1.93 1.93 0 0 0Z"/><path fill="#FCFA91" id="ANcr2" d="m84 163-7 4-4-4.5c-1.758-3.517-4.9-7.801-7-12-2.774-5.549 1-10.73 1-16.5 2.824 0 8.268-2.616 11.5-1 7.557 3.778 10.537 11.269 18 15 1.686.843 12.5 2.487 12.5 4 0 1.229-16.888 7.694-19.5 9h-6l.5 2ZM373 163l6 4 6-7.5c2.287-4.574 9.17-12.659 6-19-1.07-2.14-2-3.887-2-6.5-5.753 0-9.929-1.786-15.5 1-4.639 2.32-5.806 9.403-11 12-1.915.957-14.5 3.054-14.5 5 0 .924 16.175 7.837 18.5 9h7l-.5 2Z"/><path fill="#FFFDBC" id="IP" d="M130 155c3.06 0 9 5.507 9 8 5.516 0 7.89 7.305 14.5 4 7.7-3.85 9.759-14 20.5-14l4-3.5 2-3.5c0-15.059-26.032-.234-32.5 3-5.249 2.624-9.895-4.552-13-3-4.79 2.395-4.5 4.899-4.5 9ZM318 162l-1 1c-1.724 0-6.575 5.963-8.5 5-2.458-1.229-5.587-.794-8-2-2.617-1.309-5.087-8.543-10-11-4.319-2.159-13.5-2.092-13.5-9 0-2.151-.815-5.843 1.5-7 5.004-2.502 25.413 7.707 30 10 5.24 2.62 10.424-4.788 14-3 3.585 1.792 4.5 4.844 4.5 9-2.943 0-9 3.568-9 7Z"/><path fill="#FFFCBC" id="FN" d="M192 164h2c0-2.493 9.354-3.209 11-6.5l3-6c-2.178-4.356-10.321-10.589-14.5-8.5-2.14 1.07-3.942 4-6.5 4l-6 12c4.307 0 6.632 6 10 6l1-1ZM264 164l2 1c0-2.82 6.897-6 9-6 0-4.717-5-7.108-5-11l-6.5-5c-3.417-1.708-17.782 4.935-14.5 11.5 1.773 3.547 6.574 6.037 9.5 7.5 1.119.559 4.5.155 4.5 2h1Z"/><path fill="#CBC8CA" id="cbc" d="M209 144v5.5c0 12.904 14.666-.417 20.5 2.5 2.856 1.428 12.496 4.752 16 3 1.664-.832 2.765-10.118 1-11-6.469-3.235-15.195 6.403-22 3-4.54-2.27-10.047-3-15.5-3Z"/><path fill="#F0F080" id="CB" d="M179 159h2l6-12-1.5-2-5.5 1-2 3.5-4 3.5c5.306 0 5 .926 5 6ZM317 179h1c0-5.139-1-10.395-1-16-1.724 0-6.575 5.963-8.5 5-2.458-1.229-5.587-.794-8-2-2.617-1.309-5.087-8.543-10-11-4.319-2.159-13.5-2.092-13.5-9-3.718 0-7-2.449-7 2 0 3.892 5 6.283 5 11h3l-1-4.5c2.518-5.035 11.53 2.061 13 5 .978 1.956-1 4.077-1 5.5h4l4 2h1l2 2 1 1 5 5 3 1 1 1h1l1 1 3 1c0-1.399 2-1.399 2 0ZM141 179h2l1-1h1l1-1c1.624 0 2.75-2 5-2 0-1.747.253-2 2-2l1-2 1-1 1-1 1-1 1-1h1l2-1 2-1h4l-1-4.5c1.196-2.392 8-5.738 8-7.5-10.741 0-12.8 10.15-20.5 14-6.61 3.305-8.984-4-14.5-4 0 5.356-1 11.266-1 16h1c0-1.399 2-1.399 2 0Z"/><path fill="#FEB1D8" id="ICB" d="M168 165h3l8-6c0-5.074.306-6-5-6 0 1.762-6.804 5.108-8 7.5l1 4.5h1ZM288 165h1c0-1.423 1.978-3.544 1-5.5-1.47-2.939-10.482-10.035-13-5l1 4.5c1.465 0 3.316 5 6 5l2 1h2Z"/><path fill="#FFFDBB" id="DN" d="M129 183h1l1-1 1-1h2l1-1 3-1c0-4.734 1-10.644 1-16 0-2.493-5.94-8-9-8 0 2.596-5.672 1.845-7 4.5-1.372 2.745-1 6.19-1 9.5v1l1 11c1.714 0 3.482 2 6 2ZM326 183h1c2.711 0 4.969-2 6-2 0-4.371 2-8.019 2-12 0-9.885-8-12.72-8-14-2.943 0-9 3.568-9 7l-1 1c0 5.605 1 10.861 1 16h2l1 1h1l1 1h1l2 2Z"/><path fill="#FEFDBC" id="VeCB" d="M181 173h1l1-1 1-1h1l1-1h1l1-1h1l1-1 1-1v-2c-3.368 0-5.693-6-10-6h-2l-8 6 1 2h1c1.811 0 4 3.438 4 5v1h4Z"/><path fill="#FEFA91" id="LING" d="M243 171h1c0-1.639 2-2.455 2-3.5l-3-1c-.604-1.209 3.561-3.03 4.5-3.5 2.043-1.022 9.5 1.583 9.5 0-11.901 0-31.939-7.78-43.5-2-1.676.838-12.5.076-12.5 2 3.416 0 10.278-.943 12 2.5.776 1.552-4.502 2.999.5 5.5 11.235 5.617 18.79 0 29.5 0Z"/><path fill="#FEFDBC" id="VeCB" d="M278 173h1l1-2 1-2 2-2h1l1-1-1-2c-2.684 0-4.535-5-6-5h-3c-2.103 0-9 3.18-9 6 0 3.506 5 3.428 5 6l2 1h1l4 1Z"/><path fill="#FFF990" id="COPY" d="m123 181-3 4c-1.947 0-10.985-15-19-15l2-9c4.194 0 18 .506 18 8l1 1 1 11ZM333 181l3 4c3.672 0 10.324-15 19-15l-1-9c-5.937 0-8.879.189-14.5 3l-4.5 5c0 3.981-2 7.629-2 12Z"/><path fill="#FFFB8E" id="PRM" d="m101 170-5 3.5-3 5.5c-6.957 0-16-3.873-16-12l7-4c2.269 0 3.92 3.29 6.5 2 4.164-2.082 7.402-4 12.5-4l-2 9ZM355 170l5.5 3c.233.117 2.5 5.858 2.5 6 7.055 0 16-3.748 16-12l-6-4c-2.22 0-4.693 2.904-6.5 2-3.806-1.903-7.941-4-12.5-4l1 9Z"/><path fill="#F0F080" id="CB" d="m318 162-1 1 1-1Z"/><path fill="#AAA9A7" id="V4" d="M191 168c3.875 0 9.238-5.131 13.5-3 7.996 3.998 18.52 15.24 31 9 1.433-.716 7.5-.838 7.5-3-10.71 0-18.265 5.617-29.5 0-5.002-2.501.276-3.948-.5-5.5-1.722-3.443-8.584-2.5-12-2.5 0 1.186-1 1.186-1 0l-6 1h-2l-1 1v3Z"/><path fill="#FEFA91" id="LING" d="M200 163h1c0 1.186-1 1.186-1 0Z"/><path fill="#AAA9A7" id="V4" d="M266 169c-4.06 0-9.571-6.464-14.5-4-1.938.969-5.801 6-7.5 6 0-1.639 2-2.455 2-3.5l-3-1c-.604-1.209 3.561-3.03 4.5-3.5 2.043-1.022 9.5 1.583 9.5 0l6 1h1l2 5Z"/><path fill="#F0F080" id="CB" d="m192 164-1 1 1-1ZM266 169l5 2c0-2.572-5-2.494-5-6l-2-1 2 5ZM285 166h1v-1l-2-1 1 2Z"/><path fill="#FF9BCD" id="MY" d="m163 165-2 1 2-1Z"/><path fill="#FDB3D6" id="SUV" d="M155 182c2.69 0 6.675 1 10 1l4-2h1l5-3c0-1.624 2-2.75 2-5v-1l-4-5h-1l-4-2h-5l-2 1-2 1h-1l-1 1-1 1-1 1-1 1-1 2v3l1 4 1 2Z"/><path fill="#FF9BCD" id="MY" d="m171 165 1 2-4-2h3Z"/><path fill="#A9AAA8" id="chpl" d="M233 197c-1.747 0-2 .253-2 2-10.871 0-14.823-18-21-18h-1c0-8.64-24-2.639-24-10h1l1-1h1l1-1h1l1-1c3.875 0 9.238-5.131 13.5-3 7.996 3.998 18.52 15.24 31 9 1.433-.716 7.5-.838 7.5-3h1c1.699 0 5.562-5.031 7.5-6 4.929-2.464 10.44 4 14.5 4l5 2c0 4.763-2.304 4-8 4-1.321 0-6-.684-6 1-1.145 0-4-.579-4 1l-2 1-2 1-1 1-1 1c-2.473 0-6 3.527-6 6-1.782 0-8 8.283-8 10Z"/><path fill="#FF9BCD" id="MY" d="m288 165-2 1v-1h2Z"/><path fill="#FDB3D6" id="SUV" d="M301 182c-2.69 0-6.675 1-10 1l-4-2h-1c-1.947 0-2.636-3-5-3 0-1.624-2-2.75-2-5l1-2 1-2c1.747 0 2-.253 2-2h1l1-1h1l2-1h5l4 2h1l2 2 1 1c0 1.714 2 3.482 2 6l-1 5-1 1Z"/><path fill="#FF9BCD" id="MY" d="m293 165 4 2-4-2ZM161 166l-2 1 2-1ZM285 166l-1 1 1-1ZM158 167l-1 1 1-1ZM173 167c1.811 0 4 3.438 4 5l-4-5Z"/><path fill="#F0F080" id="CB" d="M190 168h1v-1l-1 1Z"/><path fill="#FF9BCD" id="MY" d="m283 167-2 2c1.747 0 2-.253 2-2ZM298 167l2 2-2-2ZM157 168l-1 1 1-1Z"/><path fill="#F0F080" id="CB" d="M189 169h1v-1l-1 1Z"/><path fill="#AAA9A7" id="V4" d="m191 168-1 1v-1h1Z"/><path fill="#F0F080" id="CB" d="M122 169v1l-1-1h1Z"/><path fill="#FF9BCD" id="MY" d="m156 169-1 1 1-1Z"/><path fill="#F0F080" id="CB" d="M187 170h1v-1l-1 1Z"/><path fill="#AAA9A7" id="V4" d="m189 169-1 1v-1h1Z"/><path fill="#FF9BCD" id="MY" d="m281 169-1 2 1-2Z"/><path fill="#FFFC8D" id="PFL" fill-rule="evenodd" d="M93 214c0 .552-8.392 2.446-9.5 3-1.678.839-3.361 8.819-1 10 1.97.985 3.856-1.856 5-3 1.899-1.899 16.04-10 5.5-10m21 7h1v-2c0-2.341 1.823-10.147 3-12.5.523-1.046-.951-3.5 1-3.5v-3c-3.838 0-8.327-3.846-6-8.5 1.009-2.018 7-2.323 7-6.5-1.947 0-10.985-15-19-15l-5 3.5-3 5.5c0 4.94 8.734 11.032 6 16.5-.807 1.613-4.688-.094-5.5-.5l-8-6-9-3c-9.352-4.676-20.485 9.47-23.5 15.5-1.95 3.9 0 10.331 0 14.5 0 12.773-.971 37.265 10.5 43 4.659 2.329 11.421 9.289 18 6 14.37-7.185 12.269-14.037 18.5-26.5 2.432-4.864.819-16.5 9-16.5l5-1Z"/><path fill="#FF9BCD" id="MY" d="m155 170-1 1 1-1Z"/><path fill="#F0F080" id="CB" d="M185 171h1v-1l-1 1Z"/><path fill="#AAA9A7" id="V4" d="m187 170-1 1v-1h1Z"/><path fill="#FF9BCD" id="MY" d="m306 175-3 1c0-2.518-2-4.286-2-6l5 5Z"/><path fill="#FFFC8D" id="PFL" fill-rule="evenodd" d="m361 214-2 2.5c1.625 3.25 8.244 6.872 11.5 8.5l3 3c3.13 0 .985-8.531.5-9.5-1.616-3.232-9.783-4.5-13-4.5m-19 7 5 1c7.674 0 6.512 9.525 9 14.5 7.053 14.106 3.181 20.341 19.5 28.5 6.489 3.244 19.609-4.719 22.5-10.5 5.433-10.867 8.508-46.983 3-58-5.421-10.841-19.344-12.578-29.5-7.5-2.57 1.285-12.091 10.317-14.5 5.5l6-15.5c0-.142-2.267-5.883-2.5-6l-5.5-3c-8.676 0-15.328 15-19 15 0 3.724 8 5.311 8 7.5 0 4.415-6 7.973-6 8.5l1 10 1 1 1 7 1 2Z"/><path fill="#FF9BCD" id="MY" d="m154 171-1 2 1-2Z"/><path fill="#F0F080" id="CB" d="m184 171-1 1 1-1Z"/><path fill="#AAA9A7" id="V4" d="M183 175c2.742 0 13.792-.354 16.5 1l9.5 5c0-8.64-24-2.639-24-10h-1l-1 1v3ZM273 175c-4.734 0-10.644 1-16 1 0-1.684 4.679-1 6-1 5.696 0 8 .763 8-4l2 1v3Z"/><path fill="#FF9BCD" id="MY" d="m280 171-1 2 1-2Z"/><path fill="#F0F080" id="CB" d="M182 173h1v-1l-1 1Z"/><path fill="#A9AAA7" id="V4r" d="M273 175h1l1-1-1-2h-1v3Z"/><path fill="#F0F080" id="CB" d="M278 173c0 1.473-1.952 1-3 1l-1-2 4 1Z"/><path fill="#FF9BCD" id="MY" d="m151 175 2 1v-3c-1.747 0-2 .253-2 2ZM175 178l2 1c0-2.681 2.595-4 5-4l-1-1-2-1h-2c0 2.25-2 3.376-2 5Z"/><path fill="#F0F080" id="CB" d="M181 173v1l-2-1h2Z"/><path fill="#A9AAA7" id="V4r" d="M182 175h1v-2h-2v1l1 1Z"/><path fill="#FF9BCD" id="MY" d="M279 181h1c0-1.048-.473-3 1-3 0-1.624-2-2.75-2-5h-1c0 1.473-1.952 1-3 1l-1 1c4.419 0 5 1.677 5 6Z"/><path fill="#FDB2D7" id="y" d="m154 182-1 1-6-1-2-4 1-1c1.624 0 2.75-2 5-2l2 1 1 4v2Z"/><path fill="#FFB0D7" id="MV" d="M194 213h7l5-2 1-2 1-1 1-1c0-4.671 9-12.04 9-15l-8-11h-1l-9.5-5c-2.708-1.354-13.758-1-16.5-1h-1c-2.405 0-5 1.319-5 4v2c17.912 0 2 20.657 2 28v1c3.459 0 8.607 2 12 2 1.048 0 3-.473 3 1ZM256 213h6c0-1.579 2.855-1 4-1l1-1 11-1v-1c0-6.246-16.008-28 1-28 0-4.323-.581-6-5-6h-1c-4.734 0-10.644 1-16 1 0 1.579-2.855 1-4 1l-2 1-2 1-1 1-1 1-6 6-2 5c0 4.74 8 8.965 8 14 2.809 0 4.616 7 9 7Z"/><path fill="#FDB2D7" id="y" d="M303 183h1l5-1 2-4v-1h-1l-1-1-3-1-3 1-1 5 1 2Z"/><path fill="#AAA9A7" id="V4" d="M257 176c-1.145 0-4-.579-4 1 1.145 0 4 .579 4-1Z"/><path fill="#FF9BCD" id="MY" d="m309 176 1 1-1-1ZM146 177l-1 1 1-1Z"/><path fill="#AAA9A7" id="V4" d="m253 177-2 1 2-1Z"/><path fill="#FF9BCD" id="MY" d="M311 178h1l-1-1v1Z"/><path fill="#A9AAA7" id="V4r" d="M139 179h2c0-1.399-2-1.399-2 0Z"/><path fill="#FF9BCD" id="MY" d="m144 178-1 1 1-1Z"/><path fill="#FEA5D1" id="DCO" d="M123 229h1c0-4.384 5.804-25 10-25l1-1 2-4c0-7.51 10-11.142 10-17l-2-4h-1l-1 1h-4l-4 2c0 1.028-4.666 4-6 4 0 1.747-.253 2-2 2l-8 16c0 5.853-2.536 13.429 0 18.5l4 7.5Z"/><path fill="#FEB3D7" id="LAV" d="M173 184v1l4-4v-2l-2-1-5 3v1l3 2Z"/><path fill="#AAA9A7" id="V4" d="m251 178-2 1 2-1Z"/><path fill="#FEB3D7" id="LAV" d="m284 184 1 1c1.623 0 6-.005 6-2 3.325 0 7.31-1 10-1l2 1h1c0 1.791 3.27 2.959 2 5.5l-2 2.5c-7.505 0-24 .453-24-10 0-1.048-.473-3 1-3 2.364 0 3.053 3 5 3v1l-2 2Z"/><path fill="#FEA5D1" id="DCO" d="M322 203c3.516 0 7.613 14.725 9 17.5.822 1.644-1.038 7.5 2 7.5 5.053 0 5.93-22.64 4-26.5l-6-12-6-6c-.991-1.981-7-1.956-7-4.5h-3l-3-1h-1l-2 4c0 5.618 13 12.974 13 21Z"/><path fill="#A9AAA7" id="V4r" d="M315 179h2c0-1.399-2-1.399-2 0ZM135 180v1l4-2h-1l-3 1Z"/><path fill="#AAA9A7" id="V4" d="m249 179-1 1 1-1Z"/><path fill="#A9AAA7" id="V4r" d="M339 229c0 3.115-.885 4-4 4l-2-4v-1c5.053 0 5.93-22.64 4-26.5l-6-12-6-6c-.991-1.981-7-1.956-7-4.5h2l1 1h1l1 1h1l2 2h1l7 8.5c.611 1.222 3.281 9.5 4 9.5l1 10 1 1 1 7c-3.112 0-6.279 10-2 10Z"/><path fill="#CBC9CC" id="arb" d="m320 179 1 1-1-1ZM134 181h1v-1l-1 1Z"/><path fill="#FF9BCD" id="MY" d="M154 182h1l-1-2v2Z"/><path fill="#AAA9A7" id="V4" d="m248 180-1 1 1-1Z"/><path fill="#CBC9CC" id="arb" d="m322 180 1 1-1-1ZM127 187c-2.967 0-8 9.89-8 13-3.838 0-8.327-3.846-6-8.5 1.009-2.018 7-2.323 7-6.5l3-4c1.714 0 3.482 2 6 2v2c-1.747 0-2 .253-2 2ZM132 181l-1 1 1-1Z"/><path fill="#A9AAA7" id="V4r" d="M129 183h1l1-1 1-1h3c0 1.028-4.666 4-6 4v-2Z"/><path fill="#CCCBC8" id="das" d="m173 184-1 1c-1.593 0-7-.337-7-2l4-2 1 1 3 2Z"/><path fill="#FF9BCD" id="MY" d="M170 181v1l-1-1h1Z"/><path fill="#FEB1D9" id="SPIV" d="m177 210-14 2c0-2.173-5 .232-5-3 0-2.263-3.888-5-6-5 0-1.564-1-3.876-1-6v-1c.675 0 2-5.294 2-6 5.283 0 20 1.549 20-6l4-4c17.912 0 2 20.657 2 28l-2 1Z"/><path fill="#AAA9A7" id="V4" d="M218 192c1.939 0 13 18.992 13 7-10.871 0-14.823-18-21-18l8 11ZM247 181c-2.473 0-6 3.527-6 6l6-6Z"/><path fill="#FEB1D9" id="SPIV" d="m299 210-6 2-14-2-1-1c0-6.246-16.008-28 1-28h1c0 10.453 16.495 10 24 10l1 2v11c-4.629 0-6 2.977-6 6Z"/><path fill="#FF9BCD" id="MY" d="m287 181-1 1v-1h1Z"/><path fill="#CCCBC8" id="das" d="m284 184 1 1c1.623 0 6-.005 6-2l-4-2-1 1-2 2Z"/><path fill="#FF9BCD" id="MY" d="m301 182 2 1-1-2-1 1Z"/><path fill="#CBC9CC" id="arb" d="m324 181 2 2-2-2ZM336 185c0 3.724 8 5.311 8 7.5 0 4.415-6 7.973-6 8.5-.719 0-3.389-8.278-4-9.5l-7-8.5c2.711 0 4.969-2 6-2l3 4ZM131 182l-1 1 1-1Z"/><path fill="#FF9BCD" id="MY" d="M151 197c0-16.974-13.383 2-14 2 0-7.51 10-11.142 10-17l6 1c0 1.177-5.757 8 0 8 0 .706-1.325 6-2 6ZM154 182l-1 1 1-1Z"/><path fill="#FEB3D7" id="LAV" d="M173 185c0 7.549-14.717 6-20 6-5.757 0 0-6.823 0-8l1-1h1c2.69 0 6.675 1 10 1 0 1.663 5.407 2 7 2h1Z"/><path fill="#FF9BCD" id="MY" d="m322 203 1 8-2-3.5c-1.822-3.645-2.116-8.232-4-12-1.129-2.259-12-7.646-12-2.5l-1-2 2-2.5c1.27-2.541-2-3.709-2-5.5l5-1c0 5.618 13 12.974 13 21ZM172 185h1v-1l-1 1ZM284 184l1 1-1-1Z"/><path fill="#A9AAA7" id="V4r" d="M129 185c-1.747 0-2 .253-2 2 1.747 0 2-.253 2-2ZM119 200v3l8-16c-2.967 0-8 9.89-8 13Z"/><path fill="#AAA9A7" id="V4" d="m239 192-6 5c0-1.717 6.218-10 8-10l-2 5Z"/><path fill="#C9C9C8" id="icp" d="M140 271c-1.048 0-3-.473-3 1l-2-1h-1c0-.292-8.108-13.716-9-15.5-4.489-8.979 4-20.561 4-28.5 1.473 0 1-1.952 1-3l1-1v-4l1-1v-1l1-2v-2c1.579 0 1-2.855 1-4 1.312 0 3-8.235 3-10 .617 0 14-18.974 14-2v1l-5 7.5c-9.33 9.33-9.569 22.137-15 33-.82 1.64-.173 13.5 1 13.5 0 7.228 8 16.412 8 19ZM319 272h2l1-1 1-1 1-1 1-1 1-1 5-10.5c4.211-8.422-4-23.164-4-30.5v-1l-1-2v-1l-1-1v-3l-1-1v-1c-1.473 0-1-1.952-1-3v-2l-2-3.5c-1.822-3.645-2.116-8.232-4-12-1.129-2.259-12-7.646-12-2.5v4c2.236 0 2.978 7.239 4.5 8 8.725 4.363 11.399 24.299 15.5 32.5.736 1.472 1.86 13.5 0 13.5 0 6.618-9 18.404-9 20 1.048 0 3-.473 3 1Z"/><path fill="#FFB3D7" id="PRP" d="M222 208c0-2.207 13-1.858 13 0l12-1v-1c0-5.035-8-9.26-8-14l-6 5-2 2c0 11.992-11.061-7-13-7 0 2.96-9 10.329-9 15h1l12 1Z"/><path fill="#AAA9A7" id="V4" d="M233 197c-1.747 0-2 .253-2 2l2-2Z"/><path fill="#FF9BCD" id="MY" d="M313 230c0-4.026-10.927-16.645-10-18.5 2.501-5.001 11.112 5.223 12 7 4.784 9.568 10 21.088 10 32.5 1.86 0 .736-12.028 0-13.5-4.101-8.201-6.775-28.137-15.5-32.5-1.522-.761-2.264-8-4.5-8v7c2.311 0 4.124 3.688 1.5 5l-7.5 1-6 2 1 3c7.196 0 9.873 5.686 14.5 8 1.981.991 1.956 7 4.5 7ZM147 224c0-3.87 8.05-8.401 6-12.5-2.231-4.463-10.092 4.183-11 6-5.397 10.794-10 21.421-10 34.5-1.173 0-1.82-11.86-1-13.5 5.431-10.863 5.67-23.67 15-33l5-7.5c0 2.124 1 4.436 1 6-1.929 0-5.001 3.749-2.5 5 3.228 1.614 5.597 0 8.5 0 0 3.232 5 .827 5 3v3c-6.949 0-13.089 9-16 9ZM134 204v5c1.312 0 3-8.235 3-10l-2 4-1 1Z"/><path fill="#A9AAA7" id="V4r" d="M123 229c0 1.465.109 4-2 4-3.016 0-7-5.764-7-9v-3h1l.5 4 3 4c2.438 0 .031-10-3.5-10 0-2.341 1.823-10.147 3-12.5.523-1.046-.951-3.5 1-3.5 0 5.853-2.536 13.429 0 18.5l4 7.5Z"/><path fill="#FEA4D2" id="VCO" d="m135 203-1 1 1-1ZM333 228v1l-2.5 2-3.5-5v-1l-1-2v-1l-1-1v-3l-1-1v-1c0-1.048.473-3-1-3v-2l-1-8c3.516 0 7.613 14.725 9 17.5.822 1.644-1.038 7.5 2 7.5ZM129 227l-2.5 4-2.5-2c0-4.384 5.804-25 10-25v5c-1.579 0-1 2.855-1 4v2l-1 2v1l-1 1v4l-1 1c-1.473 0-1 1.952-1 3Z"/><path fill="#FFB0D9" id="x" d="M152 204c2.112 0 6 2.737 6 5-2.903 0-5.272 1.614-8.5 0-2.501-1.251.571-5 2.5-5ZM305 204c2.311 0 4.124 3.688 1.5 5l-7.5 1c0-3.023 1.371-6 6-6Z"/><path fill="#FF9BCD" id="MY" d="m227 230 2 1 .5-23c1.689-.845 2.5 1.931 2.5 3l-1 11 3-1c0-3.04-2.176-13 1-13 0-1.858-13-2.207-13 0 1.788 0 1 11.092 1 13h2c0-2.732-1.572-14.536 1.5-13l.5 22ZM256 213c0 .672-4.329 2-5 2 0-3.137-4-5.591-4-8v-1c2.809 0 4.616 7 9 7ZM210 207l-2 1 1-1h1Z"/><path fill="#FCB3D8" id="PGRNd" d="M207 221h16c0-1.908.788-13-1-13l-12-1-2 1-1 1-1 2-1 4v5l2 1ZM249 221h2v-6c0-3.137-4-5.591-4-8l-12 1c-3.176 0-1 9.96-1 13h15Z"/><path fill="#FF9BCD" id="MY" d="m208 208-1 1 1-1Z"/><path fill="#CBCBCC" id="mlf" d="M225 221c0 1.013 1.208 9 2 9l-.5-22c-3.072-1.536-1.5 10.268-1.5 13ZM231 222c0 1.759-.326 9-2 9l.5-23c1.689-.845 2.5 1.931 2.5 3l-1 11Z"/><path fill="#FF9BCD" id="MY" d="M134 209c-1.579 0-1 2.855-1 4 1.579 0 1-2.855 1-4ZM177 210h2v-1l-2 1ZM207 209l-1 2 1-2ZM278 210h1l-1-1v1Z"/><path fill="#FDA5D1" id="NTS" d="m174 219-1 1-4-1-6-4v-3l14-2h2c3.459 0 8.607 2 12 2l-1 2c-5.787 0-11.032 5-16 5ZM287 219l-3 1c-5.292 0-10.927-6-17-6l-1-2 1-1 11-1h1l14 2 1 3c-3.091 0-4.435 4-7 4Z"/><path fill="#C8CACA" id="sptV" d="m140 271 11 2c0-5.889-9-6.071-9-11l-1-3c-3.45 0-2-15.193-2-18l2-4 1-2c0-1.048-.473-3 1-3v-1l1-2 1-2c0-1.238.423-3 2-3 0-3.87 8.05-8.401 6-12.5-2.231-4.463-10.092 4.183-11 6-5.397 10.794-10 21.421-10 34.5 0 7.228 8 16.412 8 19Z"/><path fill="#FF9BCD" id="MY" d="m201 213 4 2 1-4-5 2ZM267 211l-1 1 1-1Z"/><path fill="#C8CACA" id="sptV" d="m316 271-10 2c-2.297 0 .419-4.459 1.5-5 1.185-.592 4.5-1.012 4.5-3l1-1 1-2 1-1 1-3c1.473 0 1-1.952 1-3 1.614 0 1-3.31 1-4.5 0-2.73.345-13.5-3-13.5v-1l-1-2v-1l-1-2v-1c0-4.026-10.927-16.645-10-18.5 2.501-5.001 11.112 5.223 12 7 4.784 9.568 10 21.088 10 32.5 0 6.618-9 18.404-9 20Z"/><path fill="#F0F080" id="CB" d="m339 211 1 1-1-1Z"/><path fill="#FF9BCD" id="MY" d="m194 213-4 1 1-2c1.048 0 3-.473 3 1ZM262 213l5 1-1-2c-1.145 0-4-.579-4 1Z"/><path fill="#FFB2D8" id="IRN" d="M177 264c4.608 0 6.756 1.128 10.5 3l5.5-1c0-3.644 1.541-4.582 3-7.5 2.993-5.985 9-28.556 9-35.5v-8l-4-2h-7l-4 1c0 10.527-21 39.671-21 47 2.043 0 5-2.506 5 2l3 1ZM263 265l1 1c5.788 0 8.832-2 15-2l4-1c0-4.504 1.4-2 4-2 0-8.975-20-34.791-20-47l-5-1h-6c0 .672-4.329 2-5 2v7c0 6.261 6.257 30.013 9 35.5 1.523 3.046 3 3.745 3 7.5Z"/><path fill="#FF9BCD" id="MY" d="M323 213c1.473 0 1 1.952 1 3-1.473 0-1-1.952-1-3Z"/><path fill="#CBC9CC" id="arb" d="M93 214c0 .552-8.392 2.446-9.5 3-1.678.839-3.361 8.819-1 10 1.97.985 3.856-1.856 5-3 1.899-1.899 16.04-10 5.5-10Z"/><path fill="#FCB3D9" id="PARN" d="M166 265c-1.417 0-6 2.383-6 4-2.531 0-8-.248-8-4l3-5.5c2.409-4.819-.15-14.7 3-21 3.346-6.691 12-7.607 12-16.5l3-2 1-1c4.968 0 10.213-5 16-5 0 10.527-21 39.671-21 47v1l-2 2-1 1ZM304 265c0 3.627-4.074 4-7 4 0-2.218-5.144-4-7-4l-3-4c0-8.975-20-34.791-20-47 6.073 0 11.708 6 17 6l3 2c0 10.179 8.294 10.088 12 17.5 2.578 5.156-.499 13.003 2 18l3 7.5Z"/><path fill="#CBC9CC" id="arb" d="m361 214-2 2.5c1.625 3.25 8.244 6.872 11.5 8.5l3 3c3.13 0 .985-8.531.5-9.5-1.616-3.232-9.783-4.5-13-4.5Z"/><path fill="#FF9BCD" id="MY" d="m133 215-1 2 1-2Z"/><path fill="#FFA4D0" id="SPVO" d="m142 262 5.5 4 4.5-1 3-5.5c2.409-4.819-.15-14.7 3-21 3.346-6.691 12-7.607 12-16.5l-1-3-6-4c-6.949 0-13.089 9-16 9 0 1.238-.423 3-2 3l-1 2-1 2v1c0 1.048.473 3-1 3l-1 2v22l1 3ZM304 265h8l1-1 1-2 1-1 1-3c0-1.048-.473-3 1-3 0-6.637-2-11.661-2-18v-1l-1-2v-1l-1-2v-1c-2.544 0-2.519-6.009-4.5-7-4.627-2.314-7.304-8-14.5-8-3.091 0-4.435 4-7 4v3c0 10.179 8.294 10.088 12 17.5 2.578 5.156-.499 13.003 2 18l3 7.5Z"/><path fill="#FF9BCD" id="MY" d="m324 217 1 1-1-1ZM132 218l-1 1 1-1Z"/><path fill="#A9AAA8" id="chpl" d="M115 219c3.531 0 5.938 10 3.5 10l-3-4-.5-4v-2Z"/><path fill="#FF9BCD" id="MY" d="m173 220-3 2-1-3 4 1ZM174 219l-1 1 1-1ZM284 220l3 2v-3l-3 1Z"/><path fill="#A9AAA8" id="chpl" d="m342 223-3 6c-4.279 0-1.112-10 2-10l1 2v2Z"/><path fill="#FF9BCD" id="MY" d="m207 221-2 2v-3l2 1Z"/><path fill="#F0F080" id="CB" d="M109 222c0 1.014 3.959 2 5 2v-3l-5 1Z"/><path fill="#FEB0D8" id="GRN" d="M254 275h1c0-2.611-2.42-2.66-1-5.5 1.155-2.311 9-1.957 9-3.5v-1c0-3.755-1.477-4.454-3-7.5-2.743-5.487-9-29.239-9-35.5l-2-1h-15l-3 1c0 1.759-.326 9-2 9l-2-1c-.792 0-2-7.987-2-9h-18l-2 2c0 6.944-6.007 29.515-9 35.5-1.459 2.918-3 3.856-3 7.5 0 1.164 6.37 1.435 7.5 2 3.965 1.982 1.5 4.271 1.5 7h1c0-5.578 11.659-12.08 15.5-14 3.155-1.578 4.241 3 6.5 3l2-1v-6l-3.5 4c-2.049 0-1.5-4.337-1.5-5.5 0-4.943 5-22.918 5-9v4.5h2c0-2.385.252-14.995 4-7.5 2.199 4.397 1 12.287 1 17.5 5.997 0 10.233 2.733 14.5 7l5.5 7Z"/><path fill="#FF9BCD" id="MY" d="M251 221v1l-2-1h2ZM325 221l1 1-1-1Z"/><path fill="#F0F080" id="CB" d="m342 223 1 1 4-2-5-1v2Z"/><path fill="#FF9BCD" id="MY" d="m131 223-1 1 1-1ZM326 223l1 2-1-2Z"/><path fill="#A9AAA7" id="V4r" d="M343 224c0 1.247-2.467 5-4 5l3-6 1 1Z"/><path fill="#FF9BCD" id="MY" d="M130 224c-1.473 0-1 1.952-1 3 1.473 0 1-1.952 1-3ZM147 224c-1.577 0-2 1.762-2 3 1.577 0 2-1.762 2-3ZM335 233c0 5.705-2.797 34-9 34l5-10.5c4.211-8.422-4-23.164-4-30.5l3.5 5 2.5-2 2 4ZM121 233c0 9.825 1.857 21.215 6 29.5.923 1.846 4.138 8.5 7 8.5 0-.292-8.108-13.716-9-15.5-4.489-8.979 4-20.561 4-28.5l-2.5 4-2.5-2h-1c0 1.465.109 4-2 4ZM145 227l-1 2 1-2ZM144 229l-1 2 1-2ZM313 231l1 2-1-2ZM143 232c-1.473 0-1 1.952-1 3 1.473 0 1-1.952 1-3ZM314 234l1 2-1-2ZM142 235l-1 2 1-2ZM141 237l-2 4c0 2.807-1.45 18 2 18v-22ZM315 237c3.345 0 3 10.77 3 13.5 0 1.19.614 4.5-1 4.5 0-6.637-2-11.661-2-18Z"/><path fill="#C8C8CC" id="tspc" d="M227 251v6l-3.5 4c-2.049 0-1.5-4.337-1.5-5.5 0-4.943 5-22.918 5-9v4.5ZM229 257c2.492 0 1.835 4 5 4 0-5.213 1.199-13.103-1-17.5-3.748-7.495-4 5.115-4 7.5v6Z"/><path fill="#FEC6E2" id="RO" d="M227 279h3c0-6.216-1-12.292-1-18v-10h-2v12c0 1.638-2.739 16 0 16Z"/><path fill="#FF9BCD" id="MY" d="M317 255c-1.473 0-1 1.952-1 3 1.473 0 1-1.952 1-3Z"/><path fill="#FEB0D8" id="GRN" d="m234 261-3 4-2-4v-4c2.492 0 1.835 4 5 4Z"/><path fill="#FEB3D6" id="AMBd" d="M169 262c0 3.669 3.924 1 5 1 0-4.506-2.957-2-5-2v1ZM287 261c-2.6 0-4-2.504-4 2 0 2.263 4 .985 4-2Z"/><path fill="#FDB2D9" id="MARN" d="M225 264c-2.259 0-3.345-4.578-6.5-3-3.841 1.92-15.5 8.422-15.5 14 0 3.274-2.894 3.711-1 7.5 1.377 2.755 8.317-.908 9.5-1.5 9.547-4.774 13.5-4.463 13.5-17Z"/><path fill="#FF9BCD" id="MY" fill-rule="evenodd" d="M233 282c0 3.643 20.261 9.119 22.5 8 1.834-.917-4.399-3.7-5-4l-7-3-6 1-4.5-2m-12 0c0 3.27-6.316-.092-8.5 1-1.498.749-12.008 5.485-11.5 6.5 1.554 3.108 29.359-7.5 20-7.5m19 17c0-1.958-9.645-2.21-7-7.5 2.326-4.652 14.815-4.371 17 0 1.838 3.676-7 5.1-7 7.5 7.286 0 23.415-1.957 29.5-5 1.389-.694 8.5-1.384 8.5-3-6.012 0 5-4.485 5-6-1.489 0-7 3.418-7 1-2.839 0-6.121 3.69-9.5 2-3.164-1.582-14.5-10.174-14.5-13h-1l1 6.5c-1.904 3.809-7.462.519-9.5-.5-8.086-4.043-14.5-5.198-14.5-16l-2-4c0 5.708 1 11.784 1 18 0 2.421 2.411 6.678 1 9.5-1.779 3.558-5.038-.076-6-2-1.558-3.117 2-5.401 2-7.5-2.739 0 0-14.362 0-16l-2 1c0 12.537-3.953 12.226-13.5 17-1.183.592-8.123 4.255-9.5 1.5-1.894-3.789 1-4.226 1-7.5h-1l-12.5 12c-6.678 3.339-8.248-2-12.5-2 0 4.495-11.307-4-14-4 0 2.224 8.726 5.113 10.5 6 .919.459 4.802 3.099 3 4-1.473.736-27.285-14-19.5-14 0-6.673.435-3 4-3l-1-5c-2.531 0-8-.248-8-4l-4.5 1-5.5-4c0 4.929 9 5.111 9 11 0 2.432 3 2.2 3 4.5 0 1.792-3.361-.43-3.5-.5-1.038-.519-10.509-3-11.5-3l3.5 2c4.536 2.268 9.429 3.715 14 6 6.494 3.247 12.572 6.786 19 10 3.05 1.525 6.875 1.438 10 3 5.005 2.503 13.063-.469 18 2 3.186 1.593 5.586 2 9.5 2l-7-6.5c0-3.836 15.252-5.496 17-2 2.954 5.908-7 6.868-7 8.5 5.004 0 6.468-1.984 10.5-4l2-4 2 4c3.798 1.899 4.763 4 9.5 4Z"/><path fill="#FDB2D9" id="MARN" d="M231 265c0 10.802 6.414 11.957 14.5 16 2.038 1.019 7.596 4.309 9.5.5l-1-6.5-5.5-7c-4.267-4.267-8.503-7-14.5-7l-3 4Z"/><path fill="#FF9BCD" id="MY" d="M279 264c0 1.725 10.548 1 11 1l-3-4c0 2.985-4 4.263-4 2l-4 1ZM315 261l-1 1 1-1ZM167 264c.965 0 10 2.835 10 0l-3-1c-1.076 0-5 2.669-5-1l-2 2ZM167 264l-1 1 1-1Z"/><path fill="#FCB2D9" id="PGRNl" d="M176 285h1c4.252 0 5.822 5.339 12.5 2l12.5-12c0-2.729 2.465-5.018-1.5-7-1.13-.565-7.5-.836-7.5-2l-5.5 1c-3.744-1.872-5.892-3-10.5-3 0 2.835-9.035 0-10 0l-1 1c-1.417 0-6 2.383-6 4l1 5 7 5 2 2h1l2 2h1l2 2ZM280 285l-1 1c-2.839 0-6.121 3.69-9.5 2-3.164-1.582-14.5-10.174-14.5-13 0-2.611-2.42-2.66-1-5.5 1.155-2.311 9-1.957 9-3.5h1c5.788 0 8.832-2 15-2 0 1.725 10.548 1 11 1 1.856 0 7 1.782 7 4l-1 5-8 5-1 1-1 1-2 1-1 1-3 2Z"/><path fill="#FF9BCD" id="MY" d="m313 264-1 1 1-1ZM263 266h1l-1-1v1ZM299 277c5.994 0-2 5.002-2 6 1.49 0 11.7-4.1 13.5-5l2.5-2c-1.571 0-12.176 3.852-10-.5l3-2.5c-2.297 0 .419-4.459 1.5-5 1.185-.592 4.5-1.012 4.5-3h-8c0 3.627-4.074 4-7 4l-1 5 2.5-2 .5 5ZM326 267l-1 1 1-1ZM325 268l-1 1 1-1ZM324 269l-1 1 1-1ZM323 270l-1 1 1-1ZM137 272l1 2-3-3 2 1Z"/><path fill="#C9CACA" id="sctd" d="M138 274h1c.991 0 10.462 2.481 11.5 3 .139.07 3.5 2.292 3.5.5 0-2.3-3-2.068-3-4.5l-11-2c-1.048 0-3-.473-3 1l1 2ZM315 275h1l1-1h1l1-1v-1c0-1.473-1.952-1-3-1l-10 2-3 2.5c-2.176 4.352 8.429.5 10 .5l2-1Z"/><path fill="#FF9BCD" id="MY" d="m322 271-1 1 1-1Z"/><path fill="#C8C8CB" id="rust" d="M176 285h1c0 4.495-11.307-4-14-4-1.417 0-6-2.383-6-4 0-6.673.435-3 4-3l7 5 2 2h1l2 2h1l2 2ZM286 285h1c0-1.577 1.762-2 3-2 0-1.577 1.762-2 3-2 2.244 0 6-1.725 6-4l-.5-5-2.5 2-8 5-1 1-1 1-2 1-1 1-3 2-1 1c0 2.418 5.511-1 7-1Z"/><path fill="#FF9BCD" id="MY" d="m321 272-2 1v-1h2ZM319 273l-1 1 1-1ZM317 274l-1 1 1-1ZM315 275l-2 1 2-1Z"/><path fill="#CBC7CC" id="sctv" d="M157 277c-7.785 0 18.027 14.736 19.5 14 1.802-.901-2.081-3.541-3-4-1.774-.887-10.5-3.776-10.5-6-1.417 0-6-2.383-6-4ZM285 289l-4 2c-6.012 0 5-4.485 5-6h1c1.238 0 3-.423 3-2 1.238 0 3-.423 3-2 2.244 0 6-1.725 6-4 5.994 0-2 5.002-2 6l-12 6Z"/><path fill="#FF9BCD" id="MY" d="m168 279 2 2-2-2Z"/><path fill="#FFC6E2" id="RPA" d="M227 279h3c0 2.421 2.411 6.678 1 9.5-1.779 3.558-5.038-.076-6-2-1.558-3.117 2-5.401 2-7.5Z"/><path fill="#FF9BCD" id="MY" d="m288 279-1 1 1-1ZM287 280l-1 1 1-1ZM171 281l2 2-2-2ZM293 281c-1.238 0-3 .423-3 2 1.238 0 3-.423 3-2Z"/><path fill="#FFB3D8" id="IO" d="M221 282c0 3.27-6.316-.092-8.5 1-1.498.749-12.008 5.485-11.5 6.5 1.554 3.108 29.359-7.5 20-7.5ZM233 282c0 3.643 20.261 9.119 22.5 8 1.834-.917-4.399-3.7-5-4l-7-3-6 1-4.5-2Z"/><path fill="#FF9BCD" id="MY" d="m284 282-1 1 1-1ZM174 283l2 2-2-2ZM290 283c-1.238 0-3 .423-3 2 1.238 0 3-.423 3-2ZM297 283l-12 6c2.551 0 12-2.901 12-6ZM280 285l-1 1 1-1Z"/><path fill="#C7C9C9" id="py" d="M213 299h3c0-1.632 9.954-2.592 7-8.5-1.748-3.496-17-1.836-17 2l7 6.5ZM240 299h3c0-2.4 8.838-3.824 7-7.5-2.185-4.371-14.674-4.652-17 0-2.645 5.29 7 5.542 7 7.5Z"/><path fill="#FF9BCD" id="MY" d="m285 289-4 2c1.465 0 4 .109 4-2Z"/></svg>