<svg xmlns="http://www.w3.org/2000/svg" viewBox="0 0 456 320"><path fill="#FEFA90" id="DEC" fill-rule="evenodd" d="M221 85c0 1.92-8.021 1.26-9.5 2-4.952 2.476-16.85 7.8-12.5 16.5 7.834 15.668 27.882 20.809 42.5 13.5 6.183-3.091 20.66-11.18 15.5-21.5-3.529-7.058-10.58-6.54-16.5-9.5L221 85m-14-21c0 1.93 1.93 0 0 0m25-1c0 4.284 9.852 0 0 0m-13 0c0 3.13 6 2.122 6 1.5 0-2.126-4.789-1.5-6-1.5m67 40c0 31.928-61.058 40.221-83.5 29l-8-1c-10.703-5.351-23.5-12.888-23.5-27l-1-2v-1c0-5.172 1-10.365 1-15 0-7.923 20.374-14.937 26.5-18 1.062-.53 9.5-1.204 9.5-2.5l-4.5-.5-11 4-9 2c-1.246.623-9.818 9-11.5 9 0-6.14-2-12.133-2-19 1.349 0 14.313-6.906 16.5-8 14.393-7.196 32.094-6 49.5-6h17.5c2.953 1.477 34.453 14 35.5 14 0 3.273-.485 11.47-2 14.5-.523 1.046.951 3.5-1 3.5-4.242 0-9.727-7.113-13.5-9l-10-2c-1.016-.508-13.5-4.96-13.5-3.5l10.5 3.5c6.044 3.022 27.5 9.984 27.5 19v16Z"/><path fill="#FDFB8F" id="SIM" d="M171 80c0 1.207-6.985 7-9 7 0-6.746-9-13.847-9-18 0-3.665 12.563-8 16-8 0 6.867 2 12.86 2 19ZM285 79c0 2.158 7.062 8 9 8 0-6.404 9-13.175 9-18 0-3.889-11.666-8-15-8 0 3.273-.485 11.47-2 14.5-.523 1.046.951 3.5-1 3.5Z"/><path fill="#CBC9CC" id="arb" d="M219 63c0 3.13 6 2.122 6 1.5 0-2.126-4.789-1.5-6-1.5ZM232 63c0 4.284 9.852 0 0 0ZM207 64c0 1.93 1.93 0 0 0Z"/><path fill="#CBC9CC" id="arb" fill-rule="evenodd" d="m253 140-3 3.5c0 11.02 20.808 5.654 12.5 1.5l-5-2-4.5-3m-51 0c0 1.591-13.529 7.486-8.5 10 8.48 4.24 17.569-10 8.5-10m-27-8c0 4.529 5.456 0 0 0m-24 52-1 1-4 .5 9-11 14-23 8-9c1.532-3.063-.427-10.5-5-10.5-4.596 0-13.762-3.369-18.5-1-9.523 4.761-18.216 13.216-26 21l-16 17c-1.395 1.395-3.514 6.243-6 5-3.876-1.938 1.293-6.293 3-8 5.311-5.311 11.513-15.757 18-19 .765-.383 4.218-6 1.5-6 0-2.167-19.532-6.984-23.5-5-.852.426-8.5 3.734-8.5 2.5 0-.228 7.369-9.435 7.5-9.5l3 2c4.62 2.31 10.337 1.669 15 4 7.225 3.612 17.01-1.005 23-4 2.063-1.032 10.5-3.684 10.5-7 10.127 0 7.89-27.72 5-33.5l2-3.5c2.015 0 9-5.793 9-7 1.682 0 10.254-8.377 11.5-9l9-2 11-4 4.5.5c0 1.296-8.438 1.97-9.5 2.5-6.126 3.063-26.5 10.077-26.5 18-3.492 0-2.325 15-1 15v1l1 2c0 14.112 12.797 21.649 23.5 27l8 1c22.442 11.221 83.5 2.928 83.5-29 1.941 0 2.287-16 0-16 0-9.016-21.456-15.978-27.5-19L248 64.5c0-1.46 12.484 2.992 13.5 3.5l10 2c3.773 1.887 9.258 9 13.5 9 0 2.158 7.062 8 9 8l2 3.5c-2.741 5.481-4.721 33.5 5 33.5 0 3.436 8.843 5.672 11.5 7 8.77 4.385 16.54 6.73 26 2h6l8-4 2.5 4.5 5 5c0 .643-7.523-2.011-8.5-2.5-4.772-2.386-14.379 1.19-18 3-1.114.557-5.5.41-5.5 2 0 7.97 12.183 16.683 18 22.5 1.482 1.482 7.11 6.781 6 9-1.55 3.1-4.977.046-6-2-1.765-3.531-11.872-15.686-15.5-17.5-9.273-4.637-17.685-16.842-28-22-4.531-2.265-13.118 1-17.5 1l-4 2c-5.395 0 0-3.807 0 0 0 2.203-3.465 4.569-2 7.5 5.747 11.495 16.991 21.982 23 34l7 9 3 2c0 .691-4.787-1.5-6-1.5l-4-4c0-3.526-6.937-13-11-13 0-2.115-5.996-5.248-7.5-6-3.921-1.961-7.53-4.765-12-7h-11c-9.358-4.679-34.792-8.604-44-4h-6c-4.081 2.041-12.927 4-17.5 4h-8.5c-3.054 1.527-19.5 11.085-19.5 13-4.47 0-10 9.277-10 13-1.429 0-4 1.288-4 3Z"/><path fill="#FCFC90" id="ANcr1" d="M110 91c16.943 0 21.478 19.489 30.5 24 1.973.986 14.5 7.385 14.5 9 10.127 0 7.89-27.72 5-33.5l2-3.5c0-6.746-9-13.847-9-18h-13.5c-7.99 3.995-29.5 9.457-29.5 22ZM346 91c-16.742 0-19.895 19.197-31.5 25-2.193 1.097-13.5 5.216-13.5 8-9.721 0-7.741-28.019-5-33.5l-2-3.5c0-6.404 9-13.175 9-18h13.5c9.431 4.715 29.5 9.48 29.5 22Z"/><path fill="#FCFB90" id="CUL4, 5" d="M221 85c0 1.92-8.021 1.26-9.5 2-4.952 2.476-16.85 7.8-12.5 16.5 7.834 15.668 27.882 20.809 42.5 13.5 6.183-3.091 20.66-11.18 15.5-21.5-3.529-7.058-10.58-6.54-16.5-9.5L221 85Z"/><path fill="#FDFB8F" id="SIM" d="M171 86c-3.492 0-2.325 15-1 15 0-5.172 1-10.365 1-15ZM286 87c2.287 0 1.941 16 0 16V87Z"/><path fill="#FCFA91" id="ANcr2" d="m128 141-9.5 5c-2.339 2.339-33.343 16-36.5 16l-4.5 1c-7.18-3.59-9.124-18.252-5.5-25.5l5-16C82.695 110.111 95.323 91 110 91c16.943 0 21.478 19.489 30.5 24 1.973.986 14.5 7.385 14.5 9 0 3.316-8.437 5.968-10.5 7-5.99 2.995-15.775 7.612-23 4-4.663-2.331-10.38-1.69-15-4l-3-2c-.131.065-7.5 9.272-7.5 9.5 0 1.234 7.648-2.074 8.5-2.5 3.968-1.984 23.5 2.833 23.5 5ZM328 141c5.62 0 38.741 21 46 21l5.5 1c5.881-2.941 8.578-17.344 5.5-23.5l-4-14c-6.38-12.759-17.77-34.5-35-34.5-16.742 0-19.895 19.197-31.5 25-2.193 1.097-13.5 5.216-13.5 8 0 3.436 8.843 5.672 11.5 7 8.77 4.385 16.54 6.73 26 2h6l8-4 2.5 4.5 5 5c0 .643-7.523-2.011-8.5-2.5-4.772-2.386-14.379 1.19-18 3-1.114.557-5.5.41-5.5 2Z"/><path fill="#FDFB8F" id="SIM" d="m170 102 1 2-1-2Z"/><path fill="#FFFB8E" id="PRM" d="M125 196c-.213 0-11.066 6.283-12.5 7l-1.5 2c-17.018 0-25.775-24.049-32-36.5l3-6.5c3.157 0 34.161-13.661 36.5-16l9.5-5c2.718 0-.735 5.617-1.5 6-6.487 3.243-12.689 13.689-18 19-1.707 1.707-6.876 6.062-3 8 2.486 1.243 4.605-3.605 6-5l16-17c7.784-7.784 16.477-16.239 26-21 4.738-2.369 13.904 1 18.5 1l-5.5 3-14 11c-8.676 8.676-26.5 35.953-26.5 47-1.473 0-1 1.952-1 3ZM331 195l8.5 7c1.265.632 6.5 1.278 6.5 3 15.24 0 25.538-23.575 31-34.5 1.789-3.577-3-5.755-3-8.5-7.259 0-40.38-21-46-21 0 7.97 12.183 16.683 18 22.5 1.482 1.482 7.11 6.781 6 9-1.55 3.1-4.977.046-6-2-1.765-3.531-11.872-15.686-15.5-17.5-9.273-4.637-17.685-16.842-28-22-4.531-2.265-13.118 1-17.5 1l5.5 3 17 14c5.728 2.864 22.5 36.952 22.5 43 1.473 0 1 1.952 1 3Z"/><path fill="#FFF990" id="COPY" fill-rule="evenodd" d="M145 186c0 1.93 1.93 0 0 0m-19 7c2.473 0 4 7.937 4 10 7.996 0 20-9.531 20-18l-4 .5 9-11 14-23 8-9c1.532-3.063-.427-10.5-5-10.5l-5.5 3-14 11c-8.676 8.676-26.5 35.953-26.5 47Z"/><path fill="#FFFCBC" id="FN" d="M175 132c0 4.529 5.456 0 0 0ZM281 134c0-3.807-5.395 0 0 0Z"/><path fill="#FFF990" id="COPY" d="M330 192c0 3.378-4 7.085-4 11-7.548 0-20-9.532-20-18 1.213 0 6 2.191 6 1.5l-3-2-7-9c-6.009-12.018-17.253-22.505-23-34-1.465-2.931 2-5.297 2-7.5l4-2 5.5 3 17 14c5.728 2.864 22.5 36.952 22.5 43Z"/><path fill="#FFFCBC" id="FN" d="M202 140c0 1.591-13.529 7.486-8.5 10 8.48 4.24 17.569-10 8.5-10ZM253 140l-3 3.5c0 11.02 20.808 5.654 12.5 1.5l-5-2-4.5-3Z"/><path fill="#FFFA8F" id="UVU" d="M165 168c6.292 0 13.372-.936 19.5-4l16 1H243l29.5-1c5.72 2.86 12.778 4 18.5 4 0-2.115-5.996-5.248-7.5-6-3.921-1.961-7.53-4.765-12-7h-11c-9.358-4.679-34.792-8.604-44-4h-6c-4.081 2.041-12.927 4-17.5 4h-8.5c-3.054 1.527-19.5 11.085-19.5 13Z"/><path fill="#FDFC8F" id="NOD" d="M248 191h1l2-1 2-1h2c0-1.473 1.952-1 3-1 0-1.579 2.855-1 4-1h1c0-1.16 8.505-2 10-2 3.49 0 20.941-.72 23.5-2 2.084-1.042 2.908-2 5.5-2 0-3.526-6.937-13-11-13-5.722 0-12.78-1.14-18.5-4l-29.5 1h-42.5l-16-1c-6.128 3.064-13.208 4-19.5 4-4.47 0-10 9.277-10 13l4.5 2c2.559 1.28 20.01 2 23.5 2 1.737 0 10 .516 10 2h2c1.593 0 7 .337 7 2h1c3.771 0 8.277 2.388 11.5 4h28c2.084-1.042 2.908-2 5.5-2Z"/><path fill="#A9AAA7" id="V4r" fill-rule="evenodd" d="M127 220h3c0-5.022 7-8.143 7-13 2.755 0 20.991-16 23-16 2.384 0 4.881-3 8-3 0-1.735 6.51-1 8-1h7v-2c-3.49 0-20.941-.72-23.5-2l-4.5-2c-1.429 0-4 1.288-4 3l-1 1c0 8.469-12.004 18-20 18h-3v5l-1 1 1 11m10-13c0-5.184-11.745 2.01-10 5.5 3.093 6.187 7.647-5.5 10-5.5ZM319 205c0 2.562 6.184 10.658 9.5 9v-5c-2.898-1.449-5.093-4-9.5-4m11 3c0 4.451-1 7.939-1 12-3.436 0-6.652-7.805-8-10.5-3-5.999-12.296-9.898-17.5-12.5l-8.5-7-6-2c0-1.751-7.426-1-9-1h-7v-2c3.49 0 20.941-.72 23.5-2 2.084-1.042 2.908-2 5.5-2l4 4c0 8.468 12.452 18 20 18h3l1 5Z"/><path fill="#FFF990" id="COPY" d="m151 184-1 1 1-1Z"/><path fill="#AAA9A7" id="V4" d="M183 187h10c0-1.484-8.263-2-10-2v2ZM263 187h10v-2c-1.495 0-10 .84-10 2Z"/><path fill="#CBC9CC" id="arb" d="M145 186c0 1.93 1.93 0 0 0Z"/><path fill="#FF9BCD" id="MY" d="m168 188 7 1 1-2c-1.49 0-8-.735-8 1Z"/><path fill="#FEB1D9" id="SPIV" d="M189 203c-1.974 0-3.517 2-6 2-5.948 0-8-1.743-8-8v-8l1-2h18l1 2-5 12-1 2Z"/><path fill="#FF9BCD" id="MY" d="M195 189h4l-4-2h-1l1 2Z"/><path fill="#AAA9A7" id="V4" d="M199 189h3c0-1.663-5.407-2-7-2l4 2ZM258 188h3l1-1c-1.145 0-4-.579-4 1Z"/><path fill="#FEB1D9" id="SPIV" d="m267 203 7 2c6.199 0 7-2.159 7-8v-8l-1-2h-18l-1 1v1c0 4.365 5 8.197 5 13l1 1Z"/><path fill="#FF9BCD" id="MY" d="m289 188-8 1-1-2c1.574 0 9-.751 9 1Z"/><path fill="#FFA2D2" id="ECU" d="m160 191-1 4.5c2.378 4.757 8.723 5.888 13.5 3.5l2.5-2v-8l-7-1c-3.119 0-5.616 3-8 3Z"/><path fill="#AAA9A7" id="V4" d="M255 189h3v-1c-1.048 0-3-.473-3 1Z"/><path fill="#FF9BCD" id="MY" d="M258 189h3v-1h-3v1Z"/><path fill="#FFA2D2" id="ECU" d="M295 190c0 1.947 3.428 3.644 2 6.5-3.944 7.889-11.482.5-16 .5v-8l8-1 6 2Z"/><path fill="#FFB0D7" id="MV" d="m190 201 1 1c6.77 0 13.642-4 19-4l1-1v-4h-1l-1-1h-1l-1-1h-2l-1-1-1-1h-8l-5 12Z"/><path fill="#AAA9A7" id="V4" d="M225 208c1.564 0 3.876 1 6 1l2-4-7.5 1-3.5-3.5c-9.263-9.263 2.51-7.5 10-7.5 2.151 0 5.843-.815 7 1.5.771 1.543-4 4.406-4 6.5 2.829 0 2.995-5 6-5l1-1 3-3 1-1h1l1-1v-1c-2.592 0-3.416.958-5.5 2h-28c-3.223-1.612-7.729-4-11.5-4l1 1 1 1h2l1 1h1l1 1h1l4 4 10 11ZM252 190h1v-1l-2 1h1Z"/><path fill="#FF9BCD" id="MY" d="m254 189-1 1v-1h1Z"/><path fill="#FFB0D7" id="MV" d="M247 198c5.22 0 12.123 4 19 4 0-4.803-5-8.635-5-13h-7l-1 1h-1l-1 1h-2l-1 1-1 1h-1l-1 1c0 2.424 2 2.76 2 4Z"/><path fill="#FF9BCD" id="MY" d="m204 190 1 1-1-1Z"/><path fill="#AAA9A7" id="V4" d="M249 191h2v-1l-2 1Z"/><path fill="#FF9BCD" id="MY" d="M332 234h1c0-5.916-4-10.168-4-14-3.436 0-6.652-7.805-8-10.5-3-5.999-12.296-9.898-17.5-12.5l-8.5-7c0 1.947 3.428 3.644 2 6.5-3.944 7.889-11.482.5-16 .5 0 5.841-.801 8-7 8 0 2.349 7 4.696 7 9 1.394 0 6.256-8.878 8.5-10 5.645-2.822 8.517 3 13.5 3 0-2.466-8.946-4.608-8-6.5 2.752-5.504 17 1.321 17 5.5 1.871 0 6 5.4 6 7 3.246 0 4.04 6 7 6l2 2 2 5 1 1v1l1 1v2l1 1v2ZM137 215c-2.817 0-3.615 5-7 5 0-5.022 7-8.143 7-13 2.755 0 20.991-16 23-16l-1 4.5c2.378 4.757 8.723 5.888 13.5 3.5l2.5-2c0 6.257 2.052 8 8 8 0 1.866-8 4.25-8 8l-6.5-8c-5.026-2.513-6.62 0-11.5 0 0-3.105 5-1.454 5-4.5 0-1.064-4.049-1.5-5-1.5-3.149 0-12 1.503-12 6 0 2.465-6 3.564-6 7l-1 1v1l-1 1ZM248 192l-1 1 1-1Z"/><path fill="#FFFC8D" id="PFL" d="M326 203h3l2-1.5V195c0-1.048.473-3-1-3 0 3.378-4 7.085-4 11ZM127 203h3c0-2.063-1.527-10-4-10-1.473 0-1 1.952-1 3 0 2.765 2 5.165 2 7Z"/><path fill="#FF9BCD" id="MY" d="M211 197h4l-4-4v4ZM246 193l-1 1 1-1ZM242 197l5 1c0-1.24-2-1.576-2-4l-3 3Z"/><path fill="#A9AAA8" id="chpl" d="M235 203c-1.747 0-2 .253-2 2l-7.5 1-3.5-3.5c-9.263-9.263 2.51-7.5 10-7.5 2.151 0 5.843-.815 7 1.5.771 1.543-4 4.406-4 6.5Z"/><path fill="#F0F080" id="CB" d="M346 205c-5.651 0-11.373 3-16 3l-1-5 2-1.5V195l8.5 7c1.265.632 6.5 1.278 6.5 3ZM127 208l-1 1c-4.941 0-9.783-4-15-4l1.5-2c1.434-.717 12.287-7 12.5-7 0 2.765 2 5.165 2 7v5Z"/><path fill="#FF9BCD" id="MY" d="m211 197-1 1 1-1Z"/><path fill="#FDA5D1" id="NTS" d="m197 220-9.5-1-6.5 2-2-1c0-2.46-4-4.17-4-7 0-3.75 8-6.134 8-8 2.483 0 4.026-2 6-2l2-1c6.77 0 13.642-4 19-4l1-1h4l10 11c0 4.891-5.233 0-7 0 0-9.053-11.692-4.116-14 .5-.504 1.008-.22 4.5 1 4.5 0 2.359-4 3.698-4 5l-2 1-2 1Z"/><path fill="#FF9BCD" id="MY" d="m242 197-1 1 1-1Z"/><path fill="#FDA5D1" id="NTS" d="M274 221h2l2-1 3-6c0-4.304-7-6.651-7-9l-7-2-1-1c-6.877 0-13.78-4-19-4l-5-1-1 1c-3.005 0-3.171 5-6 5 0 1.747-.253 2-2 2l-2 4c0 3.056 7.078-1 8-1 0-7.649 13-7.489 13 5 0 2.364 3 3.053 3 5l2 1 2 1h14l1 1Z"/><path fill="#C8CACA" id="sptV" d="M149 209h1l2-1 1-1h1l1-1 1-1h1c0-3.105 5-1.454 5-4.5 0-1.064-4.049-1.5-5-1.5-3.149 0-12 1.503-12 6 1.021 0 9.354-3.208 8-.5-1.229 2.458-4 1.773-4 4.5ZM319 273c-3.679 0-6.067 3-9 3-6.144 0 5-6.573 5-7h2l1-1 4-3 1-2 1-1v-1l1-1v-1l1-2v-1l1-1v-2l1-1v-1l1-2-1-15-1-1v-3l-2-2v-1l-1-1-1-2-1-1-5-4-3-3-3-3-4-4h-1l-2-2h-1c0-2.466-8.946-4.608-8-6.5 2.752-5.504 17 1.321 17 5.5-1.601 0-7.666-5.167-9-2.5-.831 1.661 10.095 9.095 12 11 .58.58 3.375 2.25 4 1l-1-2.5c3.246 0 4.04 6 7 6l2 2 2 5 1 1v1l1 1v2l1 1v2l1 1v18l-1 2v2l-1 2v1l-1 1v1l-1 2-1 1-1 2-2 2-2 2-4 2Z"/><path fill="#FF9BCD" id="MY" d="m191 202-2 1 1-2 1 1ZM266 202l1 1-1-1Z"/><path fill="#FDA3D1" id="Pa5" d="m138 214-1 1c0 2.567 5.757-2 7-2l1-1 1-1c0-1.577 1.762-2 3-2 0-2.727 2.771-2.042 4-4.5 1.354-2.708-6.979.5-8 .5 0 2.465-6 3.564-6 7l-1 1v1Z"/><path fill="#FDA5D2" id="SPVI" d="M142 269h6c10.949 0 7.481-20.462 11-27.5 3.894-7.787 20-9.787 20-19.5v-2c0-2.46-4-4.17-4-7l-6.5-8c-5.026-2.513-6.62 0-11.5 0h-1l-1 1-1 1h-1l-1 1-2 1-1 1-1 1h-1l-1 1-1 1-1 1-1 1-6 6-1 1-1 1-1 1-1 1-1 1-2 4-1 1-1 11v9l1 1v2l1 1v1l1 1v2l1 1v1l1 1v1l2 2 3 3 1 1h3Z"/><path fill="#FDB1D8" id="DMX" d="M218 208c0 3.216-10.449 5-13 5-1.22 0-1.504-3.492-1-4.5 2.308-4.616 14-9.553 14-.5Z"/><path fill="#AAA9A7" id="V4" d="M235 203c-1.747 0-2 .253-2 2 1.747 0 2-.253 2-2Z"/><path fill="#FDB1D8" id="DMX" d="M239 208c0 3.375 10.278 5 13 5 0-12.489-13-12.649-13-5Z"/><path fill="#FDA5D2" id="SPVI" d="M315 269h2l1-1 4-3 1-2 1-1v-1l1-1v-1l1-2v-1l1-1v-2l1-1v-1l1-2-1-15-1-1v-3l-2-2v-1l-1-1-1-2-1-1-5-4-3-3-3-3-4-4h-1l-2-2h-1c-4.983 0-7.855-5.822-13.5-3-2.244 1.122-7.106 10-8.5 10l-3 6v3c0 8.656 15.578 11.657 19 18.5 3.098 6.196 1.333 27.5 11 27.5h7Z"/><path fill="#FDA3D1" id="Pa5" d="M312 206c1.871 0 6 5.4 6 7l1 2.5c-.625 1.25-3.42-.42-4-1-1.905-1.905-12.831-9.339-12-11 1.334-2.667 7.399 2.5 9 2.5Z"/><path fill="#A9AAA8" id="chpl" d="M137 207c0-5.184-11.745 2.01-10 5.5 3.093 6.187 7.647-5.5 10-5.5Z"/><path fill="#FF9BCD" id="MY" d="m156 205-1 1 1-1Z"/><path fill="#A9AAA8" id="chpl" d="M319 205c0 2.562 6.184 10.658 9.5 9v-5c-2.898-1.449-5.093-4-9.5-4Z"/><path fill="#FF9BCD" id="MY" d="m155 206-1 1 1-1ZM153 207l-1 1 1-1ZM304 207l2 2-2-2ZM226 231c0-1.067 1.433 2 2.5 2l1-3 1.5 1 4-1v-3c-15.215 0 2.965-27.571 12-9.5 1.489 2.978-2 5.043-2 7.5 3.521 0 5.691-7 10-7 0-1.947-3-2.636-3-5-2.722 0-13-1.625-13-5-.922 0-8 4.056-8 1-2.124 0-4.436-1-6-1 0 4.891-5.233 0-7 0 0 3.216-10.449 5-13 5 0 2.359-4 3.698-4 5 4.264 0 6.516 6 10 6l-2-5.5c10.162-20.323 27.028 8.5 12 8.5v3l5 1Z"/><path fill="#C8CACA" id="sptV" d="M147 211h1l1-1v-1c-1.238 0-3 .423-3 2h1Z"/><path fill="#FF9BCD" id="MY" d="m150 209-1 1v-1h1ZM307 209l4 4-4-4ZM149 210l-1 1 1-1Z"/><path fill="#C8CACA" id="sptV" d="M145 212h1v-1l-1 1Z"/><path fill="#FF9BCD" id="MY" d="m147 211-1 1v-1h1Z"/><path fill="#C8CACA" id="sptV" d="m139 212-1 1 1-1ZM144 213h1v-1l-1 1Z"/><path fill="#FF9BCD" id="MY" d="m146 212-1 1v-1h1Z"/><path fill="#FEB1D7" id="XII" d="M211 225c3.004 0 6.124 2 10 2 15.028 0-1.838-28.823-12-8.5l2 5.5v1Z"/><path fill="#FEB1D7" id="XII" d="M245 225c-3.004 0-6.124 2-10 2-15.215 0 2.965-27.571 12-9.5 1.489 2.978-2 5.043-2 7.5Z"/><path fill="#C8CACA" id="sptV" d="M137 273c4.299 0 6.885 4 10 4 0-2.192 1.029-2.443 0-4.5l-5-3.5h-3l-1-1-3-3-2-2v-1l-1-1v-1l-1-1v-2l-1-1v-1l-1-1v-2l-1-1v-2c-1.602 0-1.602-7 0-7l1-11 1-1 2-4 1-1 1-1 1-1 1-1 1-1 6-6 1-1v-1c-1.243 0-7 4.567-7 2-2.817 0-3.615 5-7 5l-1 3-1 1-1 3-1 1v1l-1 1v2l-1 2v1l-1 2v14l1 2v2l1 1 2 7v1l2 2v1c2.956 0 4.815 6 8 6Z"/><path fill="#FF9BCD" id="MY" d="m145 213-1 1v-1h1Z"/><path fill="#C8CACA" id="sptV" d="m138 214-1 1 1-1Z"/><path fill="#FF9BCD" id="MY" d="m144 214-1 1 1-1ZM314 216l3 3-3-3Z"/><path fill="#FFB2D8" id="IRN" d="M183 267h1c.983 0 6.888-5 11-5 0-5.294 11.27-19.04 14-24.5l4-6.5-2-6v-1c-3.484 0-5.736-6-10-6l-2 1-1 1-7 9.5-16 27-6 7.5 1 1h8c1.238 0 3 .423 3 2h2ZM273 267h3c0-1.577 1.762-2 3-2h8c0-3.274-4.605-5.711-6-8.5-4.964-9.927-12.025-19.051-17-29-1.385-2.77-5-4.155-5-7.5l-2-1-2-1c-4.309 0-6.479 7-10 7l-1 5v1l13.5 24c1.491 1.491 2.011 7 4.5 7 4.044 0 7.66 5 11 5Z"/><path fill="#FCB3D9" id="PARN" d="M164 269h2c0-1.429 1.288-4 3-4v-1l6-7.5 16-27 7-9.5h-1l-9.5-1-6.5 2-2 1c0 9.713-16.106 11.713-20 19.5-3.519 7.038-.051 27.5-11 27.5 0 3.543 2.687 5 6 5 0-2.226 8.489-5 10-5Z"/><path fill="#FF9BCD" id="MY" d="M197 220h1l1-1-2 1ZM257 219l2 1-2-1Z"/><path fill="#FCB3D9" id="PARN" d="M308 269c0 2.868-2.132 5-5 5-1.403 0-8.183-5-11-5h-1c0-1.634-2.634-4-4-4 0-3.274-4.605-5.711-6-8.5-4.964-9.927-12.025-19.051-17-29-1.385-2.77-5-4.155-5-7.5h14l1 1h2l2 2c0 8.656 15.578 11.657 19 18.5 3.098 6.196 1.333 27.5 11 27.5Z"/><path fill="#C9C9C8" id="icp" d="m325 219 2 2-2-2Z"/><path fill="#FF9BCD" id="MY" d="M123 235h1v-1l1-2v-2l1-1v-1l1-1 1-3 1-1 1-3h-3c0 4.741-4 9.322-4 15ZM181 221l-2 1v-2l2 1ZM273 220l1 1-1-1ZM276 221l2 2v-3l-2 1ZM137 221l-1 1 1-1ZM136 222l-1 1 1-1Z"/><path fill="#C9C9C8" id="icp" d="m129 223-1 1 1-1Z"/><path fill="#FF9BCD" id="MY" d="m135 223-1 1 1-1ZM322 223l1 1-1-1ZM134 224l-1 1 1-1ZM133 225l-1 1 1-1Z"/><path fill="#FFB1D9" id="NR" d="M221 230c0 1.735-6.51 1-8 1l-2-6c3.004 0 6.124 2 10 2v3ZM244 230l-1 1c-2.707 0-5.903-1-8-1v-3c3.876 0 6.996-2 10-2l-1 5Z"/><path fill="#FF9BCD" id="MY" d="m324 226 1 1-1-1Z"/><path fill="#C9C9C8" id="icp" d="m329 226 1 1-1-1ZM127 227l-1 1 1-1Z"/><path fill="#FF9BCD" id="MY" d="m325 228 2 2-2-2Z"/><path fill="#C9C9C8" id="icp" d="m330 228 1 1-1-1ZM126 229l-1 1 1-1Z"/><path fill="#FF9BCD" id="MY" d="m130 230-1 1 1-1Z"/><path fill="#FEB0D8" id="GRN" d="M217 269c-3.031 0-9.982 6.241-13.5 8-1.956.978-4.077-1-5.5-1 0-2.395 3.619-5.263 2-8.5l-5-5.5c0-5.294 11.27-19.04 14-24.5l4-6.5c1.49 0 8 .735 8-1l5 1c0 1.955-3.318 16 1 16 .839 0 2 1.93 2 0 3.501 0 2-12.68 2-16l4-1c2.097 0 5.293 1 8 1h1l13.5 24c1.491 1.491 2.011 7 4.5 7 0 1.765-1.581.541-2.5 1-2.13 1.065-2.637 3.774-3.5 5.5-1.314 2.628 3 5.452 3 7.5-6.624 0-9.282-.891-15.5-4l-6.5-6c0-4.064-4.203-11-8-11 0-5.671-2-4.907-2 0-6.953 0-5.01 12-9 12l-1 2Z"/><path fill="#CBCBCC" id="mlf" d="M227 247c0-1.661.018-12 1.5-12l.5 12c3.501 0 2-12.68 2-16l-1.5-1-1 3c-1.067 0-2.5-3.067-2.5-2 0 1.955-3.318 16 1 16Z"/><path fill="#FF9BCD" id="MY" d="M243 231h1v-1l-1 1Z"/><path fill="#C9C9C8" id="icp" d="m331 231 1 1-1-1ZM125 232l-1 2 1-2Z"/><path fill="#FF9BCD" id="MY" d="m327 233 1 1-1-1Z"/><path fill="#C9C9C8" id="icp" d="M333 234v1l-1-1h1ZM124 235l-1 2v-2h1Z"/><path fill="#FF9BCD" id="MY" d="M227 247c.839 0 2 1.93 2 0l-.5-12c-1.482 0-1.5 10.339-1.5 12ZM333 241h1c0-1.321.684-6-1-6v6ZM123 239c-1.638 0-1.638 12 0 12v-12Z"/><path fill="#C9C9C8" id="icp" d="M333 248h1v-7h-1v7Z"/><path fill="#FF9BCD" id="MY" d="M128 242c-1.602 0-1.602 7 0 7v-7ZM334 248c0 1.235.643 5-1 5v-5h1ZM329 249l-1 2 1-2Z"/><path fill="#FEC6E2" id="RO" d="M227 263c0 6.307 1.905 0 3 0l-1-8c0-5.671-2-4.907-2 0v8Z"/><path fill="#C9C9C8" id="icp" d="M123 253h1l-1-2v2Z"/><path fill="#FF9BCD" id="MY" d="m128 251 1 1-1-1ZM328 252l-1 1 1-1ZM125 256l2 7c-2.063 0-4-8.058-4-10h1v2l1 1Z"/><path fill="#C9C9C8" id="icp" d="M332 255h1v-2l-1 2Z"/><path fill="#FF9BCD" id="MY" d="m129 254 1 1-1-1Z"/><path fill="#C9C9C8" id="icp" d="m124 255 1 1-1-1Z"/><path fill="#C8C8CC" id="tspc" d="M217 269c0 3.65-2.045 4 2 4l6-8 2-2v-8c-6.953 0-5.01 12-9 12l-1 2ZM237 266c0 .395 6.016 8 1.5 8l-1.5-1c0-1.278-4.421-8-6-8l-1-2-1-8c3.797 0 8 6.936 8 11Z"/><path fill="#FF9BCD" id="MY" d="m327 255-1 1 1-1ZM333 255l-1 2v-2h1ZM130 256l1 1-1-1ZM326 257l-1 2 1-2ZM332 257l-1 2 1-2ZM131 259l1 1-1-1ZM325 260l-1 1 1-1Z"/><path fill="#C9C9C8" id="icp" d="M330 261h1v-1l-1 1Z"/><path fill="#FF9BCD" id="MY" d="m132 261 1 1-1-1ZM331 261l-1 1v-1h1Z"/><path fill="#FCB3D7" id="LRNm" d="m198 276-11.5 11c-4.736 2.368-7.329-1-11.5-1l-2-5.5c2.124-4.248 10-6.948 10-12.5l1-1c.983 0 6.888-5 11-5l5 5.5c1.619 3.237-2 6.105-2 8.5ZM259 276l12.5 12c3.503 1.752 6.921-2 9.5-2 0-1.984 3.278-3.945 2-6.5-2.206-4.412-10-5.652-10-12.5-3.34 0-6.956-5-11-5 0 1.765-1.581.541-2.5 1-2.13 1.065-2.637 3.774-3.5 5.5-1.314 2.628 3 5.452 3 7.5Z"/><path fill="#FF9BCD" id="MY" d="m324 262-1 1 1-1ZM330 262l-1 2 1-2ZM133 263l2 2-2-2ZM228 277h1c0-2.293-.983-12 2-12l-1-2c-1.095 0-3 6.307-3 0l-2 2c2.327 0 3 10.211 3 12ZM323 263l-1 2 1-2ZM127 264l2 2-2-2ZM169 265h1l-1-1v1ZM329 264l-1 1 1-1Z"/><path fill="#FCB2D9" id="PGRNl" d="M170 286c.671 0 5 2.662 5 0l-2-5.5c2.124-4.248 10-6.948 10-12.5v-1h-2l-2 1v1l-1 1-1 1h-3c-2.933 0-3-4.001-3-6h-2c-1.712 0-3 2.571-3 4v1l2 3.5-1 5.5v1l3 6Z"/><path fill="#FF9BCD" id="MY" d="M173 265c0 2.486 1 3.725 1 6-2.933 0-3-4.001-3-6h2Z"/><path fill="#FEB3D8" id="AMBv" d="M174 271h3l1-1 1-1v-1l-1-3h-5c0 2.486 1 3.725 1 6Z"/><path fill="#FF9BCD" id="MY" d="m181 267-2 1-1-3c1.238 0 3 .423 3 2Z"/><path fill="#FFB3D8" id="IO" fill-rule="evenodd" d="M198 290c0 1.93 1.93 0 0 0m6-2c0 1.93 1.93 0 0 0m2-2c0 1.93 1.93 0 0 0m1-1c0 1.93 1.93 0 0 0m1-1c0 1.93 1.93 0 0 0m1-1c0 1.93 1.93 0 0 0m3 6c-1.622 0-5-.461-5 2-3.25 0-4.019 3.76-6.5 5-2.917 1.459-3.275-3.862-5-3-.992.496-9.5 4.975-9.5 1.5 0-2.46 10.784-5.642 12.5-6.5l13-9c2.386 1.193-2.577 3.212-1 4 2.357 1.178 8.5-8.259 8.5-10l6-8c2.327 0 3 10.211 3 12l-1 1c0 1.235.643 5-1 5l-7.5 4c-1.3.65-6.5.007-6.5 2ZM257 290c0 2.091 3.746 0 0 0m-28-13c0 2.833 2 4.84 2 7 2.219 0 16.031 4.765 18.5 6 2.687 1.343 5.141 7.929 9 6l1-3c1.504-.752 9.374 4.753 10.5 2.5l-4.5-4.5c-5.046-2.523-10.669-3.669-15-8-1.067-1.067-4.378-4.811-6-4-1.459.729 8.333 10 8 10-2.215 0-15.5-13.516-15.5-16 0-1.278-4.421-8-6-8-2.983 0-2 9.707-2 12Z"/><path fill="#FF9BCD" id="MY" d="m276 267 2 2 1-4c-1.238 0-3 .423-3 2Z"/><path fill="#FEB3D8" id="AMBv" d="M279 271h3c0-1.03 1-2.671 1-6h-4l-1 4v1l1 1Z"/><path fill="#FF9BCD" id="MY" d="M286 265c0 2.167-1.367 6-4 6 0-1.03 1-2.671 1-6h3Z"/><path fill="#FCB2D9" id="PGRNl" d="M287 285c-1.03 0-2.671 1-6 1 0-1.984 3.278-3.945 2-6.5-2.206-4.412-10-5.652-10-12.5h3l2 2v1l1 1h3c2.633 0 4-3.833 4-6h1c1.366 0 4 2.366 4 4v1l-2 1.5v8.5l-2 5Z"/><path fill="#FF9BCD" id="MY" d="m328 265-1 2 1-2Z"/><path fill="#FF9BCD" id="MY" fill-rule="evenodd" d="m239 289-3 3.5c1.658 3.317 16.316 9.369 18 6 2.615-5.229-11.484-9.5-15-9.5m52 0-9 5.5 5.5-.5 3.5-1c0 2.399-8.764 3.132-10.5 4-3.288 1.644-30.521 5.739-34 4l-16-6-2-3-2 3c-5.296 2.648-11.717 3.358-17 6-3.822 1.911-15.827-.414-19-2-3.822-1.911-10.102.949-14-1-4.441-2.22-9.624-2.812-14-5-5.672-2.836-10.296-7.148-16-10-2.621-1.311-17.5-13.326-17.5-16 2.956 0 4.815 6 8 6 0 3.765 9.807 8.307 12.5 11l5 3c3.636-1.818-5.881-10-7.5-10 0-2.192 1.029-2.443 0-4.5l-5-3.5h6c0 3.543 2.687 5 6 5 0 2.518 2 4.286 2 6-3.619 0 2 5.477 2 6 0 5.038 7.457 5.478 10.5 7 .915.458 4.807 2.886 5.5 1.5 1.06-2.12-12-4.52-12-7.5 3.129 0 8 5.133 8-1 .671 0 5 2.662 5 0 4.171 0 6.764 3.368 11.5 1l11.5-11c1.423 0 3.544 1.978 5.5 1 3.518-1.759 10.469-8 13.5-8 0 3.65-2.045 4 2 4 0 1.741-6.143 11.178-8.5 10-1.577-.788 3.386-2.807 1-4l-13 9c-1.716.858-12.5 4.04-12.5 6.5 0 3.475 8.508-1.004 9.5-1.5 1.725-.862 2.083 4.459 5 3 2.481-1.24 3.25-5 6.5-5l-5 6.5c0 2.243 5.698 1.5 7 1.5 8.267 0 16.044-10 3-10 0-1.993 5.2-1.35 6.5-2l7.5-4-1 6.5c.649 1.297 5.165 2.67 6 1V284c2.219 0 16.031 4.765 18.5 6 2.687 1.343 5.141 7.929 9 6l1-3c1.504-.752 9.374 4.753 10.5 2.5l-4.5-4.5c-5.046-2.523-10.669-3.669-15-8-1.067-1.067-4.378-4.811-6-4-1.459.729 8.333 10 8 10-2.215 0-15.5-13.516-15.5-16l1.5 1c4.516 0-1.5-7.605-1.5-8l6.5 6c6.218 3.109 8.876 4 15.5 4l12.5 12c3.503 1.752 6.921-2 9.5-2 3.329 0 4.97-1 6-1 0 4.116-1.244 4 4 4Z"/><path fill="#FF9BCD" id="MY" d="m184 267-1 1v-1h1ZM218 267l-1 2 1-2ZM327 267l-2 2c1.747 0 2-.253 2-2ZM138 268l1 1-1-1ZM318 268l-1 1 1-1Z"/><path fill="#FCB3D7" id="LRNm" d="m159 281 2 1 5-2 1-1 1-5.5-2-3.5-2-1c-1.511 0-10 2.774-10 5 0 2.518 2 4.286 2 6h1l1 1h1Z"/><path fill="#FF9BCD" id="MY" d="M166 269v1l-2-1h2ZM179 269l-1 1 1-1ZM292 269l-1 1v-1h1Z"/><path fill="#FCB3D7" id="LRNm" d="M295 282h1l1-1 3-1c0-2.079 3-3.187 3-6-1.403 0-8.183-5-11-5l-1 1-2 1.5v7.5l1 1 5 2Z"/><path fill="#FF9BCD" id="MY" d="M300 280c1.579 0 1 2.855 1 4l9-8c-6.144 0 5-6.573 5-7h-7c0 2.868-2.132 5-5 5 0 2.813-3 3.921-3 6ZM325 269l-2 2c1.747 0 2-.253 2-2ZM178 270l-1 1 1-1ZM278 270l1 1-1-1ZM319 273v2c2.226 0 4-1.774 4-4l-4 2Z"/><path fill="#C9CACA" id="sctd" d="M137 273c4.299 0 6.885 4 10 4 1.619 0 11.136 8.182 7.5 10l-5-3c-2.693-2.693-12.5-7.235-12.5-11ZM305 286l-2 1c-1.577 0-2-1.762-2-3l9-8c2.933 0 5.321-3 9-3v2l-2 2c-1.562 0-5 2.189-5 4l-1 1-2 1c-1.429 0-4 1.288-4 3Z"/><path fill="#FF9BCD" id="MY" d="m319 275-2 2c1.747 0 2-.253 2-2ZM228 277l-1 1 1-1Z"/><path fill="#FFC6E2" id="RPA" d="m226 283-1 6.5c.649 1.297 5.165 2.67 6 1V284c0-2.16-2-4.167-2-7h-1l-1 1c0 1.235.643 5-1 5Z"/><path fill="#FF9BCD" id="MY" d="M317 277c-1.562 0-5 2.189-5 4 1.562 0 5-2.189 5-4ZM166 280h1v-1l-1 1ZM289 280h1l-1-1v1Z"/><path fill="#FEB0D9" id="LRNp" d="m158 286 3 1 2-2.5-2-2.5-2-1h-1l-1-1h-1c-3.619 0 2 5.477 2 6Z"/><path fill="#FF9BCD" id="MY" d="m157 280 1 1-1-1Z"/><path fill="#C8C8CB" id="rust" d="M161 287h1c3.129 0 8 5.133 8-1l-3-6h-1l-5 2 2 2.5-2 2.5ZM293 288l-2 1c-5.244 0-4 .116-4-4l2-5h1l5 2v5l-2 1Z"/><path fill="#FEB0D9" id="LRNp" d="m299 286-4 1v-5h1l1-1 3-1c1.579 0 1 2.855 1 4l-2 2Z"/><path fill="#FF9BCD" id="MY" d="m159 281 2 1-2-1ZM297 281l-1 1 1-1ZM312 281l-1 1 1-1ZM311 282l-2 1 2-1ZM209 283c0 1.93 1.93 0 0 0ZM309 283c-1.429 0-4 1.288-4 3 2.061 0 4-.902 4-3ZM208 284c0 1.93 1.93 0 0 0ZM303 287c0 2.329-9.767 6-12 6 0-2.573 8-2.91 8-7l2-2c0 1.238.423 3 2 3ZM207 285c0 1.93 1.93 0 0 0Z"/><path fill="#CBC7CC" id="sctv" d="M161 287h1c0 2.98 13.06 5.38 12 7.5-.693 1.386-4.585-1.042-5.5-1.5-3.043-1.522-10.5-1.962-10.5-7l3 1Z"/><path fill="#FF9BCD" id="MY" d="M206 286c0 1.93 1.93 0 0 0Z"/><path fill="#CBC7CC" id="sctv" d="m291 289-9 5.5 5.5-.5 3.5-1c0-2.573 8-2.91 8-7l-4 1-2 1-2 1Z"/><path fill="#FF9BCD" id="MY" d="m305 286-2 1 2-1ZM295 287l-2 1 2-1ZM204 288c0 1.93 1.93 0 0 0ZM293 288l-2 1 2-1ZM212 289c-1.622 0-5-.461-5 2 1.041 0 5-.986 5-2Z"/><path fill="#C7C9C9" id="py" d="M212 289c13.044 0 5.267 10-3 10-1.302 0-7 .743-7-1.5l5-6.5c1.041 0 5-.986 5-2ZM239 289l-3 3.5c1.658 3.317 16.316 9.369 18 6 2.615-5.229-11.484-9.5-15-9.5Z"/><path fill="#FF9BCD" id="MY" d="M198 290c0 1.93 1.93 0 0 0ZM257 290c0 2.091 3.746 0 0 0Z"/></svg>