<svg xmlns="http://www.w3.org/2000/svg" viewBox="0 0 456 320"><path fill="#1BA696" id="RSPagl1" d="M172 16h1c0-.907 11.291-3 13-3V7c-5.446 0-9.184 2-15 2l1 7Z"/><path fill="#1BA598" id="RSPd1" d="M217 19h1l2-3c0-2.704-4.904-4.202-6.5-5-10.491-5.246-14.434-4-27.5-4v6l5.5-2c4.8-2.4 25.5 2.835 25.5 8ZM236 17l3 1 2.5-3 8-3c6.559-3.28 14.553 1 20.5 1 0-1.564 1-3.876 1-6-7.504 0-35-.954-35 10Z"/><path fill="#1BA696" id="RSPagl1" d="M270 13c5.237 0 8.634 2 14 2l1-6c-5.433 0-9.088-2-14-2 0 2.124-1 4.436-1 6Z"/><path fill="#09848B" id="VISam1" d="M136 24h1c0-1.454 5.366-1.433 6.5-2 7.821-3.91 19.25-6 28.5-6l-1-7-3.5 2c-4.143 2.072-10.857-.072-15 2-4.752 2.376-13.088 6-18.5 6l2 5ZM321 19c0 2.413-1 3.51-1 5l-10.5-4c-4.725-2.363-19.697-4-25.5-4v-1l1-6c.696 0 25.706 5.603 26.5 6 2.375 1.187 6.904 4 9.5 4Z"/><path fill="#1BA697" id="RSPd2/3" d="M213 23h1l3-4c0-5.165-20.7-10.4-25.5-8l-5.5 2v7c3.762 0 27-4.958 27 3ZM270 20c-4.289 0-12.049-4.226-16.5-2-1.839.92-4.266.133-6 1l-4.5 3-4-3v-1l2.5-3 8-3c6.559-3.28 14.553 1 20.5 1v7Z"/><path fill="#1AA496" id="RSPagl2/3" d="m173 23 1 2c3.908 0 7.837-5 12-5v-7c-1.709 0-13 2.093-13 3v7ZM283 23v2l-13-5v-7c5.237 0 8.634 2 14 2v1l-1 7Z"/><path fill="#0B848A" id="VISam2/3" d="M137 24c0 3.42 3 6.14 3 9l3.5-2c2.502-1.251 27.073-8 29.5-8v-7h-1c-9.25 0-20.679 2.09-28.5 6-1.134.567-6.5.546-6.5 2Z"/><path fill="#1BA597" id="RSPv1" d="M230 69c.716 0 3 2.373 3 0-1.781 0-1-10.175-1-12 0-9.517-2.012-22.476 2-30.5.772-1.544 2.732-7.5 5-7.5v-1l-3-1-7.5 12-8.5-13-2 3c1.838 0 4.235 7.97 5 9.5 5.556 11.112 1 29.45 1 41.5l3-1c0-6.862 3-5.773 3 0Z"/><path fill="#0B848A" id="VISam2/3" d="M316 33h1c0-4.06 3-5.124 3-9l-10.5-4c-4.725-2.363-19.697-4-25.5-4l-1 7c6.088 0 21.009 5.255 26.5 8 1.3.65 6.5.007 6.5 2Z"/><path fill="#1AA596" id="RSPd5" d="M205 31c-3.629 0-9.847-4.326-14.5-2l-4.5 3V20c3.762 0 27-4.958 27 3 0 1.838-6.842 8-8 8ZM251 31c3.629 0 9.847-4.326 14.5-2l5.5 3-1-12c-4.289 0-12.049-4.226-16.5-2-1.839.92-4.266.133-6 1l-4.5 3v1l8 8Z"/><path fill="#019FAC" id="VISa1" d="M125 28h1c0-1.165 8.453-4 10-4l-2-5-9 3v6Z"/><path fill="#1AA597" id="RSPv2/3" d="M219 68c0 .672 4.329 2 5 2 0-12.05 4.556-30.388-1-41.5-.765-1.53-3.162-9.5-5-9.5h-1l-3 4 5 8.5 1 25.5c0 1.741.773 11-1 11ZM237 68c0 1.58-2.855 1-4 1-1.781 0-1-10.175-1-12 0-9.517-2.012-22.476 2-30.5.772-1.544 2.732-7.5 5-7.5l4 3v1c-3.35 0-4.046 6.591-5 8.5-3.725 7.45-1 28.265-1 36.5Z"/><path fill="#019FAC" id="VISa1" d="M320 24c3.686 0 6.177 3 10 3 0-2.608 1-.507 1-5 0-1.312-8.235-3-10-3 0 2.413-1 3.51-1 5Z"/><path fill="#1CA697" id="RSPagl5" d="m186 32-11 5c0-4.228-2-8.235-2-12h1c3.908 0 7.837-5 12-5v12ZM271 33c3.8 0 6.579 4 10 4l2-12-13-5 1 12v1Z"/><path fill="#098589" id="VISp1" d="M120 30h1l4-2v-6l-7 3 2 5ZM331 28l5 1 3-4-8-3c0 4.493-1 2.392-1 5l1 1Z"/><path fill="#09858A" id="VISam4" d="m140 33 1 2c7.034 0 26.499-10 32-10h1l-1-2c-2.427 0-26.998 6.749-29.5 8l-3.5 2Z"/><path fill="#1BA498" id="RSPv5" d="M218 68h1c1.773 0 1-9.259 1-11l-1-25.5-5-8.5h-1c0 1.838-6.842 8-8 8v1c3.636 0 .997 8.493 2 10.5 1.761 3.521.273 8.546 2 12l4 10.5c0 1.077 3.762 3 5 3ZM237 68h2l4-2v-1l1-1 1-1c0-4.717 1.939-12.377 4-16.5v-11l2-3.5v-1l-8-8c-3.35 0-4.046 6.591-5 8.5-3.725 7.45-1 28.265-1 36.5Z"/><path fill="#09858A" id="VISam4" d="m316 33-1 2c-9.876 0-22.663-10-32-10v-2c6.088 0 21.009 5.255 26.5 8 1.3.65 6.5.007 6.5 2Z"/><path fill="#009EAB" id="VISa2/3" d="M140 33c-4.811 0-8.818 4-13 4 0-3.219-1-5.683-1-9 0-1.165 8.453-4 10-4h1c0 3.42 3 6.14 3 9ZM317 33l12 3c2.751 0-.387-3.726 0-4.5l2-3.5-1-1c-3.823 0-6.314-3-10-3 0 3.876-3 4.94-3 9Z"/><path fill="#029FAB" id="VISrl1" d="M86 47h2c0-2.268 5.956-4.228 7.5-5 6.081-3.04 17.91-12 24.5-12l-2-5c-7.843 0-19.438 10.469-26.5 14L84 44l2 3Z"/><path fill="#0A848B" id="VISam5" d="M175 37c-6.832 0-22.913 7-30 7l-4-8v-1c7.034 0 26.499-10 32-10 0 3.765 2 7.772 2 12ZM281 37c6.768 0 23.285 7 30 7l4-8v-1c-9.876 0-22.663-10-32-10l-2 12Z"/><path fill="#029FAB" id="VISrl1" d="M369 47h1l2-3-5-3.5c-1.32-2.64-24.376-15.5-28-15.5l-3 4v1c4.235 0 22.904 9.404 26 12.5l7 4.5Z"/><path fill="#0A828C" id="VISp2/3" d="M126 37h1c0-3.219-1-5.683-1-9h-1l-4 2c0 3.32 3 4.832 3 5 1.186 0 1.186 1 0 1l1 1h1ZM331 37c0-1.186 1-1.186 1 0 1.93 0 0-1.161 0-2 0-1.186 1-1.186 1 0 3.201 0 1-2.696 1-3.5l2-1.5v-1l-5-1-2 3.5c-.387.774 2.751 4.5 0 4.5v1h2Z"/><path fill="#1AA697" id="RSPd6a" d="M187 41h10c1.694 0 8-7.539 8-9v-1c-3.629 0-9.847-4.326-14.5-2l-4.5 3c0 3.013 1 6.611 1 9ZM269 41h1l1-8v-1l-5.5-3c-4.653-2.326-10.871 2-14.5 2v1l8 9h2c0-2.46 6.743 0 8 0Z"/><path fill="#029EAC" id="VISrl2/3" d="M88 47c0 1.748 3.902 6 5 6 4.867 0 23.773-15 32-15v-1l-1-1v-1c0-.168-3-1.68-3-5h-1c-6.59 0-18.419 8.96-24.5 12-1.544.772-7.5 2.732-7.5 5ZM369 47c0 1.635-4.365 6-6 6-4.376 0-23.519-15-31-15v-1c1.93 0 0-1.161 0-2h1c3.201 0 1-2.696 1-3.5l2-1.5c4.235 0 22.904 9.404 26 12.5l7 4.5Z"/><path fill="#1CA597" id="RSPagl6a" d="M177 45h2l8-4c0-2.389-1-5.987-1-9l-11 5 2 8Z"/><path fill="#1AA498" id="RSPv6a" d="M212 65h1l-4-10.5c-1.727-3.454-.239-8.479-2-12-1.003-2.007 1.636-10.5-2-10.5 0 1.461-6.306 9-8 9v1c.783 0 11 14.819 11 17 0 2.33 4 3.227 4 6ZM248 59l-3 4c0-4.717 1.939-12.377 4-16.5v-11l2-3.5 8 9v2c-1.617 0-4 4.583-4 6-1.577 0-2 1.762-2 3-2.425 0-5 5.116-5 7Z"/><path fill="#019EAC" id="VISa4" fill-rule="evenodd" d="M127 38c0 1.93 1.93 0 0 0m-2 0c0 1.238.423 3 2 3 5.074 0 9.162-5 14-5v-1l-1-2c-4.811 0-8.818 4-13 4h-1l-1 1Z"/><path fill="#1CA597" id="RSPagl6a" d="M270 41c0 1.29 7.597 4 9 4 0-2.522 2-4.909 2-8-3.421 0-6.2-4-10-4l-1 8Z"/><path fill="#019EAC" id="VISa4" d="m331 39-1 2c-5.693 0-9.518-5-15-5v-1l1-2h1l12 3v1l2 2Z"/><path fill="#009EAB" id="VISa2/3" d="M332 35h1c0-1.186-1-1.186-1 0ZM124 35c1.186 0 1.186 1 0 1v-1Z"/><path fill="#019EAB" id="VISa5" d="M145 44c-5.665 0-10.173 5-16 5l-2-7v-1c5.074 0 9.162-5 14-5l4 8ZM311 44c5.602 0 10.339 5 16 5 0-.698 2.714-7 3-7v-1c-5.693 0-9.518-5-15-5l-4 8Z"/><path fill="#009EAB" id="VISa2/3" d="M331 37h1c0-1.186-1-1.186-1 0Z"/><path fill="#0B848B" id="VISp4" d="m126 37-1 1v-1h1Z"/><path fill="#0A828B" id="VISam6a" d="M177 45c-9.521 0-19.57 4-29 4-.559 0-3-4.241-3-5 7.087 0 23.168-7 30-7l2 8ZM279 45c2.632 0 23.907 2.204 25.5 3l4.5 2c0-2.72 2-3.553 2-6-6.715 0-23.232-7-30-7 0 3.091-2 5.478-2 8Z"/><path fill="#0B848B" id="VISp4" d="m332 38-1 1-2-2h3v1Z"/><path fill="#019EAA" id="VISrl4" d="M93 54c2.364 0 3.053 3 5 3 4.129 0 20.169-15 29-15v-1c-1.577 0-2-1.762-2-3-8.227 0-27.133 15-32 15v1Z"/><path fill="#0B848B" id="VISp4" d="M127 38c0 1.93 1.93 0 0 0Z"/><path fill="#019EAA" id="VISrl4" d="M363 54c-2.364 0-3.053 3-5 3-3.872 0-19.949-15-28-15v-1l1-2 1-1c7.481 0 26.624 15 31 15v1Z"/><path fill="#1BA698" id="RSPd6b" d="M187 43c2.132 0 4.958-3.271 7.5-2l2.5 2v-2h-10v2ZM269 41v1l-8-1c0-2.46 6.743 0 8 0Z"/><path fill="#1AA598" id="RSPagl6b" d="M187 43c-2.885 0-4.697 2-8 2l8-4v2Z"/><path fill="#CACCC7" id="cing" d="M208 59c0 2.33 4 3.227 4 6-8.793 0-15.029-13.264-22.5-17-3.699-1.85-20.733 2-27.5 2h-10c0-1.7 5.137-1 6.5-1 6.403 0 11.541-2 18.5-2l2-2c3.303 0 5.115-2 8-2 2.132 0 4.958-3.271 7.5-2l2.5 2c0 2.978 5.883 10.383 8 12.5l3 3.5Z"/><path fill="#1BA698" id="RSPd6b" d="M259 42h1l1-1h-2v1Z"/><path fill="#CACCC7" id="cing" d="M244 64v1c8.818 0 17.86-14.18 25.5-18 2.171-1.085 4.463 1.232 6 2l19.5 1h9c0-1.684-4.679-1-6-1-5.33 0-8.853-2-14.5-2-1.19 0-4.5.614-4.5-1-1.731 0-10-2.476-10-4l-8-1-1 1-1 1c0 1.664-1.823 6-4 6 0 1.238-.423 3-2 3 0 1.621-2.996 7-5 7l-3 4-1 1Z"/><path fill="#1AA598" id="RSPagl6b" d="M279 45v1c-1.731 0-10-2.476-10-4v-1h1c0 1.29 7.597 4 9 4Z"/><path fill="#019DAB" id="VISrl5" d="M98 58c2.961 0 4.266 5 7 5 6.34 0 17.246-13 24-13v-1l-2-7c-8.831 0-24.871 15-29 15v1Z"/><path fill="#1AA497" id="RSPv6b" d="M197 43c0 2.978 5.883 10.383 8 12.5l3 3.5c0-2.181-10.217-17-11-17v1ZM260 42l-1 1v-1h1Z"/><path fill="#019DAB" id="VISrl5" d="M358 58c-2.696 0-3.847 5-7 5-6.368 0-16.688-13-24-13v-1c0-.698 2.714-7 3-7 8.051 0 24.128 15 28 15v1Z"/><path fill="#1AA497" id="RSPv6b" d="M259 43c-1.617 0-4 4.583-4 6 2.177 0 4-4.336 4-6Z"/><path fill="#188060" id="SSp-bfd1" d="M69 61h1c0-3.835 16-10.786 16-14l-2-3c-1.145 0-17 12.872-17 14l2 3Z"/><path fill="#009DAC" id="VISa6a" d="M148 50c-5.864 0-10.817 6-16 6l-3-6v-1c5.827 0 10.335-5 16-5 0 .759 2.441 5 3 5v1ZM327 50l-3 5c-5.424 0-9.583-5-15-5 0-2.72 2-3.553 2-6 5.602 0 10.339 5 16 5v1Z"/><path fill="#188060" id="SSp-bfd1" d="M387 61h1c0-1.238.423-3 2-3 0-.63-16.442-14-18-14l-2 3 12.5 10 4.5 4Z"/><path fill="#08838A" id="VISam6b" d="m152 50-4 1v-2c9.43 0 19.479-4 29-4v2c-6.959 0-12.097 2-18.5 2-1.363 0-6.5-.7-6.5 1Z"/><path fill="#1AA598" id="RSPagl6b" d="m179 45-2 2v-2h2Z"/><path fill="#08838A" id="VISam6b" d="M309 50v1l-5-1c0-1.684-4.679-1-6-1-5.33 0-8.853-2-14.5-2-1.19 0-4.5.614-4.5-1v-1c2.632 0 23.907 2.204 25.5 3l4.5 2Z"/><path fill="#187F63" id="SSp-bfd2/3" d="M70 61c0 1.442 3.274 6 5 6 5.472 0 10.783-13 18-13v-1c-1.098 0-5-4.252-5-6h-2c0 3.214-16 10.165-16 14Z"/><path fill="#C8C9CA" id="fp" d="m85 111-6 8c0-25.294 36.816-50.158 56.5-60 4.461-2.23 15.742-8 20.5-8 1.321 0 6 .684 6-1 6.767 0 23.801-3.85 27.5-2 7.471 3.736 13.707 17 22.5 17h1c0 1.077 3.762 3 5 3 0 3.527 5 6.188 5 9l-3 2c0-2.729-5.929-2.215-7.5-3l-19-10-14-11c-1.14-.57-6.5-.264-6.5 1-5.495 0-13.012-2.744-18.5 0-1.046.523-3.5-.952-3.5 1-1.145 0-4-.58-4 1l-2 1h-1c-1.465 0-4-.109-4 2h-1l-2 1-2 1-2 1-1 1h-1c-1.238 0-3 .423-3 2-1.408 0-5 1.197-5 3l-1 1h-1c-1.747 0-2 .253-2 2l-2 1c-1.429 0-4 1.288-4 3-1.747 0-2 .253-2 2-1.562 0-5 2.189-5 4l-1 1-1 1c-1.712 0-3 2.571-3 4-1.747 0-2 .253-2 2l-2 2c-1.577 0-2 1.762-2 3-1.577 0-2 1.762-2 3-1.577 0-2 1.762-2 3l-3 4-1 1-1 2-1 2ZM369 107c2.936 0 8.464 16 10 16 0-21.356-29.076-49.788-47.5-59-7.888-3.944-16.179-7.09-24-11-1.493-.746-6.5.729-6.5-2-1.321 0-6 .684-6-1l-19.5-1c-1.537-.768-3.829-3.085-6-2-7.64 3.82-16.682 18-25.5 18l-1 1-4 2c0 1.278-4.421 8-6 8v1l5 3c0-.847-2.103-2.198-.5-3 2.837-1.418 7.107-.553 10-2 5.942-2.971 11.125-7.062 17-10 4.783-2.392 8.282-7.641 13-10 1.073-.536 5.5-.25 5.5 1 5.495 0 13.012-2.744 18.5 0 1.046.523 3.5-.952 3.5 1h1c2.172 0 10 1.377 10 4h1c1.572 0 7 2.052 7 4h1c1.238 0 3 .423 3 2h1c5.297 0 25.214 17.928 28 23.5.987 1.973 6 4.283 6 7.5v1c1.77 0 4 3.15 4 5l2 2v1Z"/><path fill="#187F63" id="SSp-bfd2/3" d="M387 61c0 2.103-4.468 6-6 6-3.613 0-11.94-13-18-13v-1c1.635 0 6-4.365 6-6h1l12.5 10 4.5 4Z"/><path fill="#1AA497" id="RSPv6b" d="M255 49c-1.577 0-2 1.762-2 3 1.577 0 2-1.762 2-3Z"/><path fill="#029EAB" id="VISrl6a" d="M110 69h1c0-2.575 9.088-8 12-8 0-2.109 2.535-2 4-2 0-2.109 2.535-2 4-2l1-1-3-6c-6.754 0-17.66 13-24 13v1c0 2.548 5 2.154 5 5Z"/><path fill="#029FAC" id="VISa6b" d="M132 56v1l16-6v-1c-5.864 0-10.817 6-16 6Z"/><path fill="#CBC9C7" id="or" d="M69 172h2c8.85 0 2-10.766 2-16.5 0-1.532-.743-8.5 1-8.5v-5c0-1.048-.473-3 1-3 0-5.599 2-9.98 2-15l1-2c0-1.048-.473-3 1-3 0-25.294 36.816-50.158 56.5-60 4.461-2.23 15.742-8 20.5-8v-1h-4l-4 1-16 6h-1c0 2.109-2.535 2-4 2 0 2.109-2.535 2-4 2 0 1.721-9.558 8-12 8 0 1.577-1.762 2-3 2 0 1.811-3.438 4-5 4 0 1.747-.253 2-2 2 0 1.159-6.162 8-8 8L83 97c0 1.697-6.588 14-8 14v2l-4 10c1.58 0 1 2.855 1 4l-1 2v1c0 1.424-.362 5-2 5l-2 16c0 3.642-1 8.002-1 11 0 2.554-1.11 10 3 10Z"/><path fill="#C9C9CA" id="scwm" d="M162 50c0 1.684-4.679 1-6 1v-1h6ZM301 50v1c-1.321 0-6 .684-6-1h6Z"/><path fill="#CBC9C7" id="or" d="M386 172h1c5.139 0 3-7.482 3-10l-1-11c0-7.89-4-14.926-4-22v-2l-1-1 1-2c0-4.262-3-6.92-3-11l-2-3.5c-1.241-1.241-7-10.901-7-12.5 0-4.209-9-7.423-9-12l-19-16c-6.282 0-13.687-12-21-12l-15-6-5-1h-3v1c0 2.729 5.007 1.254 6.5 2 7.821 3.91 16.112 7.056 24 11 18.424 9.212 47.5 37.644 47.5 59 0 5.751 3 11.739 3 18v1l1 2v6c0 4.695.973 11.554-1 15.5l-2 5c1.081 2.162 4.005 1.5 6 1.5Z"/><path fill="#029FAC" id="VISa6b" d="M324 56v1l-15-6v-1c5.417 0 9.576 5 15 5v1Z"/><path fill="#029EAB" id="VISrl6a" d="m351 64-5 4c-5.562 0-15.129-12-22-12v-1l3-5c7.312 0 17.632 13 24 13v1Z"/><path fill="#1AA497" id="RSPv6b" d="M253 52c-2.425 0-5 5.116-5 7 2.004 0 5-5.379 5-7Z"/><path fill="#197C64" id="SSp-bfd4" d="M79 73h2c0-3.794 17-12.24 17-15v-1c-1.947 0-2.636-3-5-3-7.217 0-12.528 13-18 13v1l4 5ZM376 73h1c0-1.634 2.634-4 4-4v-2c-3.613 0-11.94-13-18-13-2.364 0-3.053 3-5 3v1l18 15Z"/><path fill="#C7C8CC" id="alv" d="m198 78 2 1c0-1.76-4.288-3.394-5.5-4l-16-16-5.5-3c-5.495 0-13.012-2.744-18.5 0-1.046.523-3.5-.952-3.5 1 9.102 0 17.203-2.149 25.5 2 5.607 2.804 15.9 19 21.5 19Z"/><path fill="#C9CCC9" id="dhc" d="M212 81h2l2-1h2l1-1h1c0-2.729-5.929-2.215-7.5-3l-19-10-14-11c-1.14-.57-6.5-.264-6.5 1l5.5 3 16 16c1.212.606 5.5 2.24 5.5 4h1l4 2h7ZM246 81h5l2-1h1l1-1h1l2-1 1-1h1l1-1c0-1.317 14.465-15 16-15 0-2.294.997-2 3-2l3-3c0-1.25-4.427-1.536-5.5-1-4.718 2.359-8.217 7.608-13 10-5.875 2.938-11.058 7.029-17 10-2.893 1.447-7.163.582-10 2-1.603.802.5 2.153.5 3h3l1 1h4Z"/><path fill="#C7C8CC" id="alv" d="M305 57c-4.172 0-12.178-3.161-16.5-1l-8.5 3 3-3c5.495 0 13.012-2.744 18.5 0 1.046.523 3.5-.952 3.5 1Z"/><path fill="#009DAA" id="VISrl6b" d="M131 57h1v-1l-1 1Z"/><path fill="#7ECF4B" id="CA1" d="M83 119v2c4.154 0 6.978-5.239 10.5-7 6.325-3.162 19.531-11 26.5-11 0-5.665 8.431-9.966 12.5-12 13.332-6.666 26.315-14.843 42-7 3.093 1.546 14.5 6.384 14.5 10l6 3h4c0-6.318-1-13.322-1-19-5.6 0-15.893-16.196-21.5-19-8.297-4.149-16.398-2-25.5-2 0 1.58-2.855 1-4 1l-2 1h-1l-4 2h-1l-2 1-2 1-2 1-1 1h-1c0 1.577-1.762 2-3 2 0 1.803-3.592 3-5 3l-1 1h-1l-2 2-2 1c0 1.712-2.571 3-4 3l-2 2c0 1.811-3.438 4-5 4l-1 1-1 1c0 1.429-1.288 4-3 4l-2 2c0 1.747-.253 2-2 2 0 1.238-.423 3-2 3 0 1.238-.423 3-2 3 0 1.238-.423 3-2 3l-6 12.5c-.56 1.119-.155 4.5-2 4.5ZM336 103c8.197 0 21.217 8.359 28.5 12l9.5 7c0-5.762-11-19.356-11-23v-1l-16.5-18-13.5-9.5-4-3.5h-1l-3-2h-1l-7-4h-1c-1.32 0-10-3.135-10-4h-1c-4.172 0-12.178-3.161-16.5-1l-8.5 3c0 1.577-1.762 2-3 2 0 1.317-14.465 15-16 15l-1 1h-1l-1 1v1c0 5.708-1 11.784-1 18h5l4-2 1-1c0-3.138 11.185-7.843 13.5-9 17.937-8.968 28.367-1.816 44 6 3.871 1.936 11.5 6.856 11.5 12Z"/><path fill="#009DAA" id="VISrl6b" d="M345 69h1v-1c-5.562 0-15.129-12-22-12v1c7.313 0 14.718 12 21 12ZM131 57c-1.465 0-4-.109-4 2 1.465 0 4 .109 4-2Z"/><path fill="#C7C8CC" id="alv" d="M151 57c-1.145 0-4-.58-4 1 1.145 0 4 .58 4-1ZM306 57c2.172 0 10 1.377 10 4-1.32 0-10-3.135-10-4Z"/><path fill="#1A7E62" id="SSs1" d="m56 68 3 3 10-10-2-3c-2.06 0-11 7.71-11 10Z"/><path fill="#1A7D62" id="SSp-bfd5" d="M81 73c0 1.935 4.065 6 6 6 3.49 0 12.984-15 18-15v-1c-2.734 0-4.039-5-7-5 0 2.76-17 11.206-17 15Z"/><path fill="#C7C8CC" id="alv" d="m147 58-2 1 2-1Z"/><path fill="#1A7D62" id="SSp-bfd5" d="m376 73-6 6c-3.47 0-13.643-15-19-15v-1c3.153 0 4.304-5 7-5l18 15Z"/><path fill="#1A7E62" id="SSs1" d="M397 71h1l3-3c0-1.317-9.098-10-11-10-1.577 0-2 1.762-2 3l9 10Z"/><path fill="#009DAA" id="VISrl6b" d="M127 59c-1.465 0-4-.109-4 2 1.465 0 4 .109 4-2Z"/><path fill="#C7C8CC" id="alv" d="M144 59c-1.465 0-4-.109-4 2l4-2ZM280 59c-2.003 0-3-.294-3 2 1.238 0 3-.423 3-2Z"/><path fill="#1B8063" id="SSs2/3" d="M59 72c4.224 0 3.22 6 7 6l9-10v-1c-1.726 0-5-4.558-5-6h-1L59 71v1Z"/><path fill="#009DAA" id="VISrl6b" d="M123 61c-2.912 0-12 5.425-12 8 2.442 0 12-6.279 12-8Z"/><path fill="#C7C8CC" id="alv" d="m139 61-2 1 2-1ZM277 61c-1.535 0-16 13.683-16 15 1.535 0 16-13.683 16-15ZM317 61c1.572 0 7 2.052 7 4l-7-4Z"/><path fill="#1B8063" id="SSs2/3" d="M390 79h1l6-8-9-10h-1c0 2.103-4.468 6-6 6v2c2.266 0 9 6.835 9 10Z"/><path fill="#C7C8CC" id="alv" d="m137 62-2 1 2-1ZM135 63l-2 1 2-1Z"/><path fill="#1AA498" id="RSPv6a" d="m245 63-1 1 1-1Z"/><path fill="#198060" id="SSp-bfd6a" d="M87 80c0 .828 3.749 4 5 4 3.398 0 5.13-7 9-7 0-1.747.253-2 2-2 0-1.811 3.438-4 5-4l2-2c0-2.846-5-2.452-5-5-5.016 0-14.51 15-18 15v1Z"/><path fill="#C7C8CC" id="alv" d="m133 64-1 1 1-1Z"/><path fill="#1AA498" id="RSPv6a" d="M243 65h1v-1l-1 1Z"/><path fill="#198060" id="SSp-bfd6a" d="m370 80-5 4c-3.935 0-13.899-15-19-15v-1l5-4c5.357 0 15.53 15 19 15v1Z"/><path fill="#C7C8CC" id="alv" d="M131 65c-1.238 0-3 .423-3 2 1.238 0 3-.423 3-2Z"/><path fill="#CACCC7" id="cing" d="m244 65-1 1v-1h1Z"/><path fill="#C7C8CC" id="alv" d="M325 65c1.238 0 3 .423 3 2l-3-2ZM128 67c-1.408 0-5 1.197-5 3 1.408 0 5-1.197 5-3ZM329 67c5.297 0 25.214 17.928 28 23.5.987 1.973 6 4.283 6 7.5l-16.5-18-13.5-9.5-4-3.5Z"/><path fill="#039399" id="AUDd1" d="M44 91h1c0-1.192 12.84-19 14-19v-1l-3-3c-1.245 0-15 16.983-15 19l3 4Z"/><path fill="#187C63" id="SSs4" d="M69 83h1c0-4.39 9-5.626 9-10l-4-5-9 10v1c.966 0 3 2.886 3 4Z"/><path fill="#C7CACC" id="ccs" d="m233 76-4.5-3-5.5 4c0-2.812-5-5.473-5-9h1c0 .672 4.329 2 5 2l3-1h3c.716 0 3 2.373 3 0 1.145 0 4 .58 4-1h2c0 1.278-4.421 8-6 8Z"/><path fill="#039399" id="AUDd1" d="M411 91h1l4-4c0-5.271-15-14.464-15-19l-3 3c0 4.837 13 14.124 13 20Z"/><path fill="#1A7E61" id="SSp-bfd6b" d="M111 69c0 1.577-1.762 2-3 2l2-2h1ZM364 85h1v-1c-3.935 0-13.899-15-19-15h-1l19 16Z"/><path fill="#187C63" id="SSs4" d="m390 79-3 3-10-9c0-1.634 2.634-4 4-4 2.266 0 9 6.835 9 10Z"/><path fill="#C7C8CC" id="alv" d="m123 70-1 1 1-1Z"/><path fill="#1A7E61" id="SSp-bfd6b" d="M108 71c-1.562 0-5 2.189-5 4 1.562 0 5-2.189 5-4Z"/><path fill="#C7C8CC" id="alv" d="M121 71c-1.747 0-2 .253-2 2l2-2Z"/><path fill="#029397" id="AUDd2/3" d="M411 91c0 1.391-5.706 5-7 5l-13-17 6-8h1c0 4.837 13 14.124 13 20ZM52 96h1l4-5.5c1.222-2.443 6.744-11.5 9-11.5v-1c-3.78 0-2.776-6-7-6-1.16 0-14 17.808-14 19l7 5Z"/><path fill="#1C8063" id="SSs5" d="M77 91h1c0-2.075 6.657-11 9-11v-1c-1.935 0-6-4.065-6-6h-2c0 4.374-9 5.61-9 10 1.455 0 7 6.64 7 8Z"/><path fill="#C7C8CC" id="alv" d="m119 73-2 1 2-1Z"/><path fill="#1C8063" id="SSs5" d="M387 83c-4.264 0-4.82 7-8 7l-9-10v-1l6-6h1l10 9v1Z"/><path fill="#C7C8CC" id="alv" d="M117 74c-1.429 0-4 1.288-4 3 1.429 0 4-1.288 4-3Z"/><path fill="#1A7E61" id="SSp-bfd6b" d="M103 75c-1.747 0-2 .253-2 2 1.747 0 2-.253 2-2Z"/><path fill="#C7C8CC" id="alv" d="m261 76-1 1 1-1Z"/><path fill="#1A7E61" id="SSp-bfd6b" d="M92 85h1c1.838 0 8-6.841 8-8-3.87 0-5.602 7-9 7v1Z"/><path fill="#C7C8CC" id="alv" d="M113 77c-1.747 0-2 .253-2 2l2-2Z"/><path fill="#7DCD4B" id="HPF" d="M222 81c-1.048 0-3-.473-3 1l-3-1v-1h2l1-1h1l3-2c0 1.145.579 4-1 4ZM241 81l-3 1-4-1-1-4 5 3h3v1Z"/><path fill="#C7C8CC" id="alv" d="m259 77-1 1 1-1Z"/><path fill="#57B947" id="ProS" d="M199 97c0 1.58 2.855 1 4 1V81l-2-2h-1l-2-1c0 5.678 1 12.682 1 19Z"/><path fill="#C7C8CC" id="alv" d="M256 79h2v-1l-2 1Z"/><path fill="#039398" id="AUDd4" d="M55 99h1c0-5.03 13-12.367 13-16 0-1.114-2.034-4-3-4-2.256 0-7.778 9.057-9 11.5L53 96l2 3Z"/><path fill="#C7C8CC" id="alv" d="M111 79c-1.562 0-5 2.189-5 4 1.562 0 5-2.189 5-4ZM203 81h2l-4-2 2 2Z"/><path fill="#C8C9CA" id="fp" d="m219 79-1 1 1-1Z"/><path fill="#C7C8CC" id="alv" d="m255 79-1 1 1-1Z"/><path fill="#57B947" id="ProS" d="M257 97c0 1.58-2.855 1-4 1V80h1l1-1h3c0 5.708-1 11.784-1 18Z"/><path fill="#039398" id="AUDd4" d="M404 96c-1.481 0-.785 2-3 2l-14-15v-1l3-3h1l13 17Z"/><path fill="#197D63" id="SSs6a" d="m78 91 4 5 10-11v-1c-1.251 0-5-3.172-5-4-2.343 0-9 8.925-9 11Z"/><path fill="#C8C9CA" id="fp" d="M214 81h2v-1l-2 1Z"/><path fill="#A8A9AA" id="V3" d="m236 87 1 2c-1.791 0-2.959-3.27-5.5-2l-3 4c-2.127 0-4.067-4-7.5-4v-2c2.965 0 4.11-7.695 9.5-5l5.5 6v1Z"/><path fill="#C8C9CA" id="fp" d="M241 81h1l-1-1v1Z"/><path fill="#C7C8CC" id="alv" d="M251 81h2v-1l-2 1Z"/><path fill="#197D63" id="SSs6a" d="M374 97h1c0-2.124 2.024-5 4-5v-2l-9-10-5 4v1c0 4.097 9 7.28 9 12Z"/><path fill="#7BD04A" id="DG-mo" d="M145 111h1c0-2.144 4.262-.381 5.5-1 4.951-2.476 13.783-5 19.5-5h1c0-2.064 3.353-.426 4.5-1 2.628-1.314 14.5-1.783 14.5-6l-2-4c0-3.616-11.407-8.454-14.5-10-15.685-7.843-28.668.334-42 7-4.069 2.034-12.5 6.335-12.5 12v2l6 1c0-4.284 5.756-5.628 8.5-7 10.72-5.36 18.341-10 31.5-10 4.514 0 10.671 1.086 14.5 3 1.03.515 2.564 3.218 1 4-6.668 3.334-16.229.615-23 4-4.078 2.039-10.87 7-15.5 7v4h2Z"/><path fill="#4FC244" id="SUB" d="m219 89-4.5 6c-3.641 1.82-7.053 3-11.5 3V81h7c0 1.4 2 1.4 2 0h4l3 1v5c-1.186 0-1.186 1 0 1v1Z"/><path fill="#C7C8CC" id="alv" d="M210 81h2c0 1.4-2 1.4-2 0Z"/><path fill="#7ECD4A" id="FC" d="M219 87h1l1-1v-1l1-4c-1.048 0-3-.473-3 1v5ZM236 87h1c2.458 0 1-.94 1-5l-4-1 2 5v1Z"/><path fill="#4FC244" id="SUB" d="M237 87c0 7.423 9.778 11 16 11V81h-7c0 1.4-2 1.4-2 0h-3l-3 1c0 4.06 1.458 5-1 5Z"/><path fill="#C7C8CC" id="alv" d="M244 81h2c0 1.4-2 1.4-2 0Z"/><path fill="#7BD04A" id="DG-mo" d="M312 111h1l1-2-1-2-15.5-7c-6.527-3.264-15.583-.791-22-4-5.248-2.624 8.761-6.38 10-7 9.458-4.73 27.043 5.521 34 9 3.054 1.527 10.5 3.223 10.5 8l6-1v-2c0-5.144-7.629-10.064-11.5-12-15.633-7.816-26.063-14.968-44-6-2.315 1.157-13.5 5.862-13.5 9l-1 1-1 3c0 3.728 11.98 4.74 14.5 6 1.147.574 4.5-1.064 4.5 1h1c5.717 0 14.549 2.524 19.5 5 1.238.619 5.5-1.144 5.5 1h2Z"/><path fill="#029398" id="AUDd5" d="M56 99c3.7 0 8.1 8 11 8l10-16c0-1.36-5.545-8-7-8h-1c0 3.633-13 10.97-13 16Z"/><path fill="#C7C8CC" id="alv" d="m106 83-1 1 1-1Z"/><path fill="#029398" id="AUDd5" d="M401 99c-4.254 0-8.33 8-12 8 0-2.223-7.668-15-10-15v-2c3.18 0 3.736-7 8-7l14 15v1Z"/><path fill="#C7C8CC" id="alv" d="m105 84-1 1 1-1Z"/><path fill="#1A8061" id="SSs6b" d="M82 97h1l10-12h-1L82 96v1Z"/><path fill="#C7C8CC" id="alv" d="M104 85c-1.712 0-3 2.571-3 4 1.712 0 3-2.571 3-4Z"/><path fill="#1A8061" id="SSs6b" d="M373 97h1c0-4.72-9-7.903-9-12h-1c0 4.577 9 7.791 9 12Z"/><path fill="#029297" id="AUDp1" d="m23 131 5 1c0-9.777 4.859-21.218 9-29.5 1.884-3.768 7-7.044 7-11.5l-3-4c-2.53 0-5.15 6.8-6 8.5-5.448 10.896-12 22.474-12 35.5Z"/><path fill="#7ECD4A" id="FC" d="M219 87c-1.186 0-1.186 1 0 1v-1Z"/><path fill="#A8A9AA" id="V3" d="m221 87-1 2v-2h1Z"/><path fill="#A9AAA8" id="chpl" d="M222 97h13l2-1v-7c-1.791 0-2.959-3.27-5.5-2l-3 4c-2.127 0-4.067-4-7.5-4l-1 2-1 1v5l2 2h1Z"/><path fill="#029297" id="AUDp1" d="M428 132h1l4-1c0-12.772-5.68-23.86-11-34.5-.813-1.626-4.09-9.5-6-9.5l-4 4 8 12.5c4.104 8.208 8 18.694 8 28.5Z"/><path fill="#C7C8CC" id="alv" d="M101 89c-1.747 0-2 .253-2 2l2-2Z"/><path fill="#65A83D" id="DG-sg" d="M126 106c0-4.284 5.756-5.628 8.5-7 10.72-5.36 18.341-10 31.5-10 4.514 0 10.671 1.086 14.5 3 1.03.515 2.564 3.218 1 4-6.668 3.334-16.229.615-23 4-4.078 2.039-10.87 7-15.5 7l2-4c2.175 0 5.969-3.734 8.5-5l9-2c1.052-.526 7.5-.892 7.5-2.5l-9-.5c-4.077 0-24 6.325-24 9l-11 4Z"/><path fill="#A8A9AA" id="V3" d="m220 89-1 1v-1h1Z"/><path fill="#65A83D" id="DG-sg" d="M330 106c0-4.777-7.446-6.473-10.5-8-6.957-3.479-24.542-13.73-34-9-1.239.62-15.248 4.376-10 7 6.417 3.209 15.473.736 22 4l15.5 7-2-4-10.5-6c-3.682-1.841-9.362-.18-13-2-3.325-1.662 11.157-3.422 14-2l12 6c1.139.57 6.5 1.675 6.5 3 3.223 0 6.355 4 10 4Z"/><path fill="#019298" id="AUDp2/3" d="m28 132 7 1c0-8.043 5.536-18.573 9-25.5 1.767-3.534 8-7.454 8-11.5l-7-5h-1c0 4.456-5.116 7.732-7 11.5-4.141 8.282-9 19.723-9 29.5Z"/><path fill="#019399" id="AUDd6a" d="M74 111h1c0-2.456 4.458-14 7-14v-1l-4-5h-1l-10 16c2.46 0 4.17 4 7 4Z"/><path fill="#C7C8CC" id="alv" d="m99 91-2 2c1.747 0 2-.253 2-2Z"/><path fill="#019298" id="AUDp2/3" d="m428 132-7 1c0-8.02-4.583-17.665-8-24.5L404 96c1.294 0 7-3.609 7-5h1l8 12.5c4.104 8.208 8 18.694 8 28.5Z"/><path fill="#019399" id="AUDd6a" d="m389 108-6 3-8-14c0-2.124 2.024-5 4-5 2.332 0 10 12.777 10 15v1Z"/><path fill="#C7C8CC" id="alv" d="M97 93c-1.577 0-2 1.762-2 3 1.577 0 2-1.762 2-3Z"/><path fill="#7ECE4A" id="DG-po" d="m137 102 8 1c2.175 0 5.969-3.734 8.5-5l9-2c1.052-.526 7.5-.892 7.5-2.5l-9-.5c-4.077 0-24 6.325-24 9ZM320 102c-3.222 0-6.277 1-9 1l-10.5-6c-3.682-1.841-9.362-.18-13-2-3.325-1.662 11.157-3.422 14-2l12 6c1.139.57 6.5 1.675 6.5 3Z"/><path fill="#7DCD4B" id="HPF" d="m195 97-4 1-2-4 6 3ZM267 94l-1 1 1-1Z"/><path fill="#A8A9AA" id="V3" d="m219 95 2 2-2-2Z"/><path fill="#7DCD4B" id="HPF" d="m262 97 3 1 1-3-4 2Z"/><path fill="#039397" id="AUDp4" d="m35 133 5 1c0-7.289 3.87-17.242 7-23.5 1.776-3.552 8-7.405 8-11.5l-2-3h-1c0 4.046-6.233 7.966-8 11.5-3.464 6.927-9 17.457-9 25.5Z"/><path fill="#C7C8CC" id="alv" d="M95 96c-1.577 0-2 1.762-2 3 1.577 0 2-1.762 2-3Z"/><path fill="#A8A9AA" id="V3" d="m237 96-2 1 2-1Z"/><path fill="#039397" id="AUDp4" d="m421 133-5 1c0-8.066-3.586-17.672-7-24.5L401 99v-1c2.215 0 1.519-2 3-2l9 12.5c3.417 6.835 8 16.48 8 24.5Z"/><path fill="#019398" id="AUDd6b" d="M83 97c0 1.697-6.588 14-8 14 0-2.456 4.458-14 7-14h1Z"/><path fill="#A8A9AA" id="V3" d="M222 97h13c0 1.641-13 1.641-13 0Z"/><path fill="#019398" id="AUDd6b" d="m383 112-1 1-2-3.5c-1.241-1.241-7-10.901-7-12.5h2l8 14v1Z"/><path fill="#039199" id="AUDp5" d="m40 134 16 3c0-9.293 11-22.727 11-30-2.9 0-7.3-8-11-8h-1c0 4.095-6.224 7.948-8 11.5-3.13 6.258-7 16.211-7 23.5Z"/><path fill="#C7C8CC" id="alv" d="M93 99c-1.577 0-2 1.762-2 3 1.577 0 2-1.762 2-3ZM311 234h2l3-4c0-5.85 11.431-8.966 15.5-11 3.886-1.943 5.092-8.546 8-10 6.415-3.208 9.295-10.647 16-14l9-6c6.197-6.197 10.714-11.927 14.5-19.5 2.163-4.325.785-10.569 3-15 .574-1.147-1.064-4.5 1-4.5v-5l-1-1v-3c-1.869 0-3-7.329-3-9 0-7.156-10-18.386-10-25v-1l-2-2c0-1.85-2.23-5-4-5 0 3.644 11 17.238 11 23 0 3.269 3 6.321 3 10v1l1 1c0 2.816.775 7.049 2 9.5 3.474 6.947-5.364 29.364-10 34-4.305 4.305-12.726 8.453-15 13-.395.791-4.283 2.434-5 1-3.491-6.983 6.296-16.408 3-23-2.816-5.631-1.214-13.428-4-19-4.588-9.176-10.324-19.324-18-27-2.892-2.892-9.042-10.5-13-10.5v1l2 2 2 1 1 1c3.121 0 14 15.224 14 18 3.863 0 11 19.99 11 24 1.173 0 1.82 11.86 1 13.5-1.975 3.95-1.058 9.117-3 13l-8 14c-.958 1.916-5.203 9.5-8 9.5l-1 1-1 1-1 1-1 1-1 1-1 1-1 1-2 1c0 2.307-3.428 5-6 5l-1 1-1 1-1 1-4 4c2.029 0 1.881-1.191 3.5-2 5.042-2.521-.5 6.412-.5 7Z"/><path fill="#039199" id="AUDp5" d="M400 137h1l15-3c0-8.066-3.586-17.672-7-24.5L401 99c-4.254 0-8.33 8-12 8v1c2.621 0 3.179 6.858 4 8.5 3.024 6.049 7 13.32 7 20.5Z"/><path fill="#FF64FF" id="MB" fill-rule="evenodd" d="M245 161c0 1.225-4.225 7.951-5 9.5-1.711 3.422 2.362 10.569 6.5 8.5 4.697-2.348 5.348-18-1.5-18m-36 0c0 2.646-2 4.285-2 7.5v5.5c0 2.938 5.847 7.807 8 3.5 2.509-5.017.891-16.5-6-16.5m45 63c1.791 0 2.959-3.27 5.5-2l3.5 3c8.009 0 2-12.795 2-15 0-.538-3.845-8.81-2-12.5l6-8.5c-6.06 0 2-5.983 2-6-1.874 0-10-1.261-10-3h-1l-1-1h-2c-7.113 0-1-9.405-1-13 0-13.356-4.582-23 13-23 0-2.364 3-3.053 3-5-12.269 0-14-13.298-14-23 0-2.448.36-13 4-13 0-1.535-4-1.535-4 0 1.54 0-9 13.904-9 2-2.932 0-10 4.625-10 8 6.146 0 7.48 6.98 11.5 11 .66.66 2.314 5.343 1 6-4.215 2.108-6.72-6-10.5-6 0 4.468 11.335 5.83 8 12.5l-10 7.5c0 8.846 1.173 20.154-3 28.5l-2.5 7.5-.5-5.5c-3.847-7.695 0-20.802 0-29.5l-4-1c0 6.533-2 6.377-2 0l-4 1 1 26c0 1.39.829 8-1.5 8l-2.5-8.5c-3.866-7.731-3-17.17-3-26.5l-10-8.5c-1.27-2.541 2-3.709 2-5.5l-5-.5c-1.262-2.525 7.847-15.174 10.5-16.5 2.116-1.058 2.898 2 4.5 2 0-4.092-8.453-10-12-10 0 7.376-9 4.402-9-2 0-1.535-4-1.535-4 0 5.319 0 4 10.518 4 14.5 0 8.339-1.353 17.427-9.5 21.5l-4.5-1 4 6c14.825 0 13 8.5 13 22 0 4.106 4.642 14-2 14h-2l-1 1h-1l-2 1h-1c0 1.353-4.643 2-6 2 0 .499 6.793 6 1 6 0 .995 5.097 5.694 6 7.5.784 1.567.194 12.5-1 12.5l-1 1c0 3.5-5.724 15 3 15 0-3.849 8-3.773 8-1 2.085 0 12-2.278 12-5 0-1.257 2.461-8 0-8 0 8.997-9.924-3-1-3 0-4.526-3.52-7.459-1-12.5 1.352-2.703 11-9.806 11-3.5l4 2c0-1.81-1.043-13 1.5-13l.5 14c1.457 0 1.46-3 4-3 0-6.738 10.651 1.801 12 4.5 1.986 3.973-2 8.553-2 11.5 8.152 0 0 11.703 0 2-1.763 0-1 8.343-1 10 .936 0 12 3.966 12 4Z"/><path fill="#A8A9AA" id="V3" d="M225 116h7c3.055 0 8.469-8.563 7-11.5l-5.5-3.5-3 2c-3.15 1.575-5.833-2-8-2l-2 2c-5.282 2.641-1.436 13 4.5 13Z"/><path fill="#C7C8CC" id="alv" d="M85 111c0 2.885-2 4.697-2 8 1.845 0 1.44-3.381 2-4.5l6-12.5-3 4-1 1-1 2-1 2Z"/><path fill="#7ECF49" id="CA3" d="M131 118c-5.688 0-12.04 12.58-14 16.5-2.981 5.962-7.081 11.162-10 17-2.039 4.079-.929 9.859-3 14-3.293 6.585 5.272 20.456 3 25-1.896 3.792-20.237-10.474-22-14-3.17-6.339-12.793-27.415-8-37 1.112-2.225 2-4.846 2-7.5l4.5-5c5.647-2.824 10.677-10.339 18-14 4.236-2.118 8.731-3.865 13-6 1.114-.557 5.5-.41 5.5-2l6 1 11-4 8 1-2 4v2l-2 2h-1l-1 1-1 1h-1l-1 1-1 1c-1.238 0-3 .423-3 2l-1 1Z"/><path fill="#FF64FF" id="MB" d="m190 102-1 1 1-1Z"/><path fill="#FE8EFF" id="APN" d="M177 129c0 1.852 4.927 8 7 8l4.5 1c8.147-4.073 9.5-13.161 9.5-21.5 0-3.982 1.319-14.5-4-14.5h-4l-1 1-10 2c0 1.008-5.147 4-6 4l-1 1-1 1v4c2.451 0 6 11.153 6 14Z"/><path fill="#FE90FC" id="OP" d="M198 102c1.923 0 9-.156 9 2 0 7.376-9 4.402-9-2ZM258 102c1.54 0-9 13.904-9 2 2.526 0 5.577-2 9-2Z"/><path fill="#FE8EFF" id="APN" d="M280 129c0 3.421-8 6.915-8 9-12.269 0-14-13.298-14-23 0-2.448.36-13 4-13 5.64 0 9.742 3 15 3 0 .994 5.757 4 7 4l1 1v5l-6 10.5c-.472.945-.156 3.5 1 3.5Z"/><path fill="#7ECF49" id="CA3" d="m377 133 1 1c0 2.816.775 7.049 2 9.5 3.474 6.947-5.364 29.364-10 34-4.305 4.305-12.726 8.453-15 13-.395.791-4.283 2.434-5 1-3.491-6.983 6.296-16.408 3-23-2.816-5.631-1.214-13.428-4-19-4.588-9.176-10.324-19.324-18-27-2.892-2.892-9.042-10.5-13-10.5h-1l-1-1-2-2-1-2-2-4c2.723 0 5.778-1 9-1 3.223 0 6.355 4 10 4l6-1c7.711 0 23.251 12.375 30.5 16l10.5 11v1Z"/><path fill="#7DCF4B" id="CA2" d="M79 130v2l4.5-5c5.647-2.824 10.677-10.339 18-14 4.236-2.118 8.731-3.865 13-6 1.114-.557 5.5-.41 5.5-2v-2c-6.969 0-20.175 7.838-26.5 11-3.522 1.761-6.346 7-10.5 7v1l-1 1c0 1.176-2.114 7-3 7ZM374 122c0 3.269 3 6.321 3 10l-10.5-11c-7.249-3.625-22.789-16-30.5-16v-2c8.197 0 21.217 8.359 28.5 12l9.5 7Z"/><path fill="#C7CACC" id="ccs" d="m367 104 2 2-2-2Z"/><path fill="#CAC7CB" id="fiber tracts" d="m173 105-2 1v-1h2Z"/><path fill="#C7CBCB" id="bsc" d="m171 110-15 1v-1h2l1-1h3l1-1h2l1-1h3l1-1h1l2-1h6c0 1.008-5.147 4-6 4h-1l-1 1ZM299 110l2 1-15-1-1-1h-1c-1.243 0-7-3.006-7-4h6l2 1h1l1 1h4l1 1h1l2 1h3l1 1Z"/><path fill="#CAC7CB" id="fiber tracts" d="M285 105v1l-2-1h2Z"/><path fill="#C7CACC" id="ccs" d="m88 106-1 1 1-1Z"/><path fill="#CAC7CB" id="fiber tracts" d="m170 106-1 1 1-1ZM286 106l1 1-1-1Z"/><path fill="#019396" id="AUDp6a" d="m56 137 9 2c0-7.033 6-13.325 6-20 0-.888 2.573-7 3-7v-1c-2.83 0-4.54-4-7-4 0 7.273-11 20.707-11 30Z"/><path fill="#C7CACC" id="ccs" d="m87 107-1 2 1-2Z"/><path fill="#CAC7CB" id="fiber tracts" d="m166 107-1 1 1-1ZM291 107l1 1-1-1Z"/><path fill="#C7CACC" id="ccs" d="M379 123c0 5.751 3 11.739 3 18-1.869 0-3-7.329-3-9 0-7.156-10-18.386-10-25 2.936 0 8.464 16 10 16Z"/><path fill="#CAC7CB" id="fiber tracts" d="m163 108-1 1 1-1ZM293 108l2 1-2-1Z"/><path fill="#019396" id="AUDp6a" d="m400 137-8 2-9-27v-1l6-3c2.621 0 3.179 6.858 4 8.5 3.024 6.049 7 13.32 7 20.5Z"/><path fill="#C7CACC" id="ccs" d="m86 109-1 2 1-2Z"/><path fill="#7DCD4B" id="HPF" d="M141 111h2v-2l-2 2Z"/><path fill="#CAC7CB" id="fiber tracts" d="m159 109-1 1 1-1Z"/><path fill="#FF64FF" id="MB" d="M171 110h1v-1l-1 1Z"/><path fill="#FF6F80" id="TH" d="m173 109-1 1v-1h1ZM285 109v1l-1-1h1Z"/><path fill="#FF64FF" id="MB" d="M285 110h1l-1-1v1Z"/><path fill="#CAC7CB" id="fiber tracts" d="m298 109 1 1-1-1Z"/><path fill="#7DCD4B" id="HPF" d="M313 111h3l-2-2-1 2Z"/><path fill="#CAC7CB" id="fiber tracts" d="M155 111h1v-1l-1 1Z"/><path fill="#FE909D" id="LP" d="m153 140-4 2c-4.943 0-4-1.273-4-5 0-2.777 1.715-8.931 3-11.5l-1-9.5-1-3h1c1.235 0 5 .643 5-1h2l1-1h1l15-1v5c-1.614 0-1 3.31-1 4.5 0 3.117.115 10.5 4 10.5l-2 2c-1.464 0-11 3.827-11 5l-4 2h-2l-2 1Z"/><path fill="#FF6F80" id="TH" d="m172 110-1 1v-1h1Z"/><path fill="#FE909D" id="LP" d="M301 139c1.176 0 7 2.114 7 3 5.055 0 3-2.096 3-5 0-5.392-2-10.42-2-16.5 0-1.278-.665-5.5 1-5.5v-2h-1c-1.145 0-4 .579-4-1-1.048 0-3 .473-3-1h-1l-15-1h-1v5c4.466 0 .9 15-2 15l1 2c1.464 0 11 3.827 11 5 1.424 0 5 .362 5 2h1Z"/><path fill="#019398" id="AUDd6b" d="m74 112 1 1v-2h-1v1Z"/><path fill="#C7CACC" id="ccs" d="M79 130c-2.548 0-1.083 9-4 9 0-5.599 2-9.98 2-15l1-2c1.473 0 1-1.952 1-3l6-8c0 2.885-2 4.697-2 8-2.088 0-4 8.909-4 11Z"/><path fill="#7DCD4B" id="HPF" d="M139 112h1v-1l-1 1Z"/><path fill="#CAC7CB" id="fiber tracts" d="m145 111-2 1v-1h2Z"/><path fill="#C7CBCB" id="bsc" d="M146 113h1c0-1.643 3.765-1 5-1h2v-1h-9l-2 1h-1v1h4Z"/><path fill="#CAC7CB" id="fiber tracts" d="m155 111-1 1v-1h1Z"/><path fill="#C7CBCB" id="bsc" d="M310 113h5v-1h-2l-1-1h-10c0 1.473 1.952 1 3 1 1.145 0 4-.579 4 1h1Z"/><path fill="#CAC7CB" id="fiber tracts" d="M313 111v1l-1-1h1Z"/><path fill="#039198" id="AUDp6b" d="M65 139h1l1-1c0-5.591 4-9.8 4-15l4-10-1-1c-.427 0-3 6.112-3 7 0 6.675-6 12.967-6 20Z"/><path fill="#C7C8CC" id="alv" d="M138 113h1v-1l-1 1Z"/><path fill="#CAC7CB" id="fiber tracts" d="m142 113-1 1-1-1v-1h2v1ZM152 112c-1.235 0-5-.643-5 1 1.235 0 5 .643 5-1Z"/><path fill="#FF8DFE" id="NPC" d="M211 127c-1.747 0-2 .253-2 2l-5-.5c-1.262-2.525 7.847-15.174 10.5-16.5 2.116-1.058 2.898 2 4.5 2v1l1 3-1 1-1 1-1 1-1 1-1 1-1 1-1 1c-1.747 0-2 .253-2 2Z"/><path fill="#FF64FF" id="MB" d="m239 112-1 1 1-1Z"/><path fill="#FF8DFE" id="NPC" d="M241 122v1c3.78 0 6.285 8.108 10.5 6 1.314-.657-.34-5.34-1-6-4.02-4.02-5.354-11-11.5-11l-1 1-1 1v5l3 2 1 1Z"/><path fill="#CAC7CB" id="fiber tracts" d="M305 112c1.145 0 4-.579 4 1-1.145 0-4 .579-4-1ZM316 113v1l-1-1v-1l1 1Z"/><path fill="#7DCD4B" id="HPF" d="M317 113h1v-1h-1v1Z"/><path fill="#039198" id="AUDp6b" d="M391 139h1l-9-27-1 1c0 4.08 3 6.738 3 11 3.561 0 2.715 15 6 15Z"/><path fill="#C7C8CC" id="alv" d="M136 114h1v-1l-1 1Z"/><path fill="#CAC7CB" id="fiber tracts" d="M137 114h2v-1h-2v1Z"/><path fill="#C7CBCB" id="bsc" d="M139 114h2l-1-1h-1v1Z"/><path fill="#FE8083" id="LGd-sh" d="M121 136v2l2.5 2c2.836-1.418 10.574-24 23.5-24l-1-3h-4l-1 1h-2l-2 1c0 1.712-2.571 3-4 3l-3 3-1 1-2 3-1 1-1 1-2 2v2l-1 1-1 2v2Z"/><path fill="#FF64FF" id="MB" d="m238 113-1 1 1-1Z"/><path fill="#FE8083" id="LGd-sh" d="M335 137v2c-4.836 0-6.94-9.44-11-13.5L310 115v-2h5l1 1 8 5 3 3 1 1 1 1 1 1 1 1v1l2 2v1l2 3v4Z"/><path fill="#C7CBCB" id="bsc" d="M335 135c.839 0 2 1.93 2 0 0-2.776-10.879-18-14-18l-1-1-2-1-3-2h-1v1l8 5 3 3 1 1 1 1 1 1 1 1v1l2 2v1c1.577 0 2 1.762 2 3v2Z"/><path fill="#CAC7CB" id="fiber tracts" d="m318 113 2 2-3-2h1Z"/><path fill="#C7C8CC" id="alv" d="M135 115h1v-1l-1 1Z"/><path fill="#CAC7CB" id="fiber tracts" d="M136 115h1v-1h-1v1Z"/><path fill="#C7CBCB" id="bsc" d="m139 114-2 1v-1h2Z"/><path fill="#C7C8CC" id="alv" d="M132 117h1l2-2c-1.238 0-3 .423-3 2Z"/><path fill="#C7CBCB" id="bsc" d="M133 117v1c1.429 0 4-1.288 4-3h-2l-2 2Z"/><path fill="#FF8D9D" id="POL" d="m177 129-3 1c-3.885 0-4-7.383-4-10.5 0-1.19-.614-4.5 1-4.5 2.451 0 6 11.153 6 14Z"/><path fill="#FF64FF" id="MB" d="m222 117-2 1-1-3 3 2ZM234 117l3 2v-4l-3 2Z"/><path fill="#FF8D9D" id="POL" d="m280 129 3 1c2.9 0 6.466-15 2-15l-6 10.5c-.472.945-.156 3.5 1 3.5Z"/><path fill="#FE7F84" id="LGd-co" fill-rule="evenodd" d="M312 120v7c0 27.23 24.001-7 0-7m23 19c0 2.869-7.994 12-11 12l-13-14c0-5.392-2-10.42-2-16.5 0-1.278-.665-5.5 1-5.5l14 10.5c4.06 4.06 6.164 13.5 11 13.5ZM142 120c0 2.722-15.967 4.533-5.5 15l3 3 3.5-3.5c1.633-3.266 4.443-14.5-1-14.5m-22 19c4.428 0 7.142 12 12 12l13-14c0-2.777 1.715-8.931 3-11.5l-1-9.5c-12.926 0-20.664 22.582-23.5 24l-2.5-2-1 1Z"/><path fill="#CCCACA" id="pc" d="M241 122v1c-2.46 0-4.17-4-7-4-1.042 0-11-2.848-11 0l-4 1v-1l1-1 2-1c1.048 0 3 .473 3-1h7l2 1 3 2 3 2 1 1Z"/><path fill="#CAC7CB" id="fiber tracts" d="m322 116 1 1-1-1Z"/><path fill="#C7C8CC" id="alv" d="M131 118h1v-1l-1 1Z"/><path fill="#CAC7CB" id="fiber tracts" d="M132 118h1v-1h-1v1Z"/><path fill="#C7C8CC" id="alv" d="m147 235-5-6.5c-.706-1.411 1.598-1.951 2.5-1.5l13.5 9-13-11c-4.582 0-8.508-8.004-12.5-10-11.634-5.817-18.4-22.301-23.5-32.5-.703-1.406-2-13.668-2-15.5 0-1.235-.643-5 1-5 0-2.134.937-12 3-12v-1c0-2.217 5.569-14 8-14 0-1.238.423-3 2-3 0-1.238.423-3 2-3 0-1.238.423-3 2-3 0-1.562 2.189-5 4-5l2-3c-5.688 0-12.04 12.58-14 16.5-2.981 5.962-7.081 11.162-10 17-2.039 4.079-.929 9.859-3 14-3.293 6.585 5.272 20.456 3 25-1.896 3.792-20.237-10.474-22-14-3.17-6.339-12.793-27.415-8-37 1.112-2.225 2-4.846 2-7.5v-2c-2.548 0-1.083 9-4 9v3l-1 1v4c0 9.931 2.8 22.101 7 30.5l8 8 4.5 5.5c8.096 4.048 23.4 16.3 27.5 24.5 3.548 7.096 19 5.911 19 14.5l3 4 4 1Z"/><path fill="#C7CBCB" id="bsc" d="M129 121h1l3-3h-2l-2 3Z"/><path fill="#FF64FF" id="MB" d="m220 118-1 1 1-1Z"/><path fill="#FF78FE" id="SCO" d="M225 123c1.764 0 2.313-2.593 3.5-2l2.5 2c2.098 0 3-1.939 3-4-1.042 0-11-2.848-11 0 0 1.465-.109 4 2 4Z"/><path fill="#C8C9CA" id="fp" d="M79 119c-1.473 0-1 1.952-1 3 1.473 0 1-1.952 1-3Z"/><path fill="#C7C8CC" id="alv" d="M82 123c0 1.176-2.114 7-3 7 0-2.091 1.912-11 4-11v3l-1 1Z"/><path fill="#FF64FF" id="MB" d="M218 120h1v-1l-1 1Z"/><path fill="#FE90FE" id="PRC" d="m227 143-4 1c0-2.962-4.707-1-6-1l-10-8.5c-1.27-2.541 2-3.709 2-5.5l2-2 2-2 1-1 1-1h1l1-1 1-1 1-1 4-1c0 1.465-.109 4 2 4 0 5.45 2 12.911 2 20ZM234 143h5l10-7.5c3.335-6.67-8-8.032-8-12.5-2.46 0-4.17-4-7-4 0 2.061-.902 4-3 4 0 6.499-2 12.821-2 20l4 1 1-1Z"/><path fill="#CAC7CB" id="fiber tracts" d="m324 119 3 3-3-3Z"/><path fill="#FD8082" id="LGd-ip" d="M142 120c0 2.722-15.967 4.533-5.5 15l3 3 3.5-3.5c1.633-3.266 4.443-14.5-1-14.5Z"/><path fill="#FF64FF" id="MB" d="M217 121h1v-1l-1 1Z"/><path fill="#CCCACA" id="pc" d="m219 120-1 1v-1h1Z"/><path fill="#FD8082" id="LGd-ip" d="M312 120v7c0 27.23 24.001-7 0-7Z"/><path fill="#C7CBCB" id="bsc" d="M125 126h1l1-1 2-3v-1c-1.811 0-4 3.438-4 5Z"/><path fill="#CAC7CB" id="fiber tracts" d="m130 121-1 1v-1h1Z"/><path fill="#FF64FF" id="MB" d="M216 122h1v-1l-1 1Z"/><path fill="#CCCACA" id="pc" d="m218 121-1 1v-1h1Z"/><path fill="#A8A9AA" id="V3" d="M227 143c0 6.377 2 6.533 2 0 0-7.179 2-13.501 2-20l-2.5-2c-1.187-.593-1.736 2-3.5 2 0 5.45 2 12.911 2 20Z"/><path fill="#FF64FF" id="MB" d="m240 121 1 1-1-1Z"/><path fill="#C8C9CA" id="fp" d="m78 122-1 2 1-2Z"/><path fill="#7ECF4B" id="CA1" d="m83 122-1 1 1-1Z"/><path fill="#FF64FF" id="MB" d="M215 123h1v-1l-1 1Z"/><path fill="#CCCACA" id="pc" d="m217 122-1 1v-1h1Z"/><path fill="#CCC8CA" id="ar" d="m69 135-2 3c0-5.591 4-9.8 4-15 1.58 0 1 2.855 1 4l-1 2v1c-1.638 0-2 3.576-2 5Z"/><path fill="#FF64FF" id="MB" d="m215 123-1 1 1-1Z"/><path fill="#CAC7CB" id="fiber tracts" d="m328 123 1 1-1-1Z"/><path fill="#FF64FF" id="MB" d="m214 124-1 1 1-1Z"/><path fill="#CCC8CA" id="ar" d="M391 139v4c-3.357 0-2.359-14-6-14v-2l-1-1 1-2c3.561 0 2.715 15 6 15Z"/><path fill="#CAC7CB" id="fiber tracts" d="m127 125-1 1 1-1Z"/><path fill="#FF64FF" id="MB" d="M213 125c-1.747 0-2 .253-2 2l2-2Z"/><path fill="#CAC7CB" id="fiber tracts" d="m330 125 1 1-1-1Z"/><path fill="#C7CBCB" id="bsc" d="m125 127-2 2c0-1.238.423-3 2-3v1Z"/><path fill="#CAC7CB" id="fiber tracts" d="m126 126-1 1v-1h1Z"/><path fill="#C8C9CA" id="fp" d="m384 126 1 1-1-1ZM72 127l-1 2 1-2Z"/><path fill="#FF64FF" id="MB" d="M211 127c-1.747 0-2 .253-2 2l2-2Z"/><path fill="#CAC7CB" id="fiber tracts" d="m331 127 2 2-2-2Z"/><path fill="#C7CBCB" id="bsc" d="M121 132h1l1-1v-2c-1.577 0-2 1.762-2 3Z"/><path fill="#FF6F80" id="TH" d="M188 143c-3.885 0-2.744 8-5 8 0-7.139-11-11.315-11-19l2-2 3-1c0 1.852 4.927 8 7 8l4 6ZM269 143c3.004 0 1.483 6 4 6 3.208 0 11-13.953 11-17l-1-2-3-1c0 3.421-8 6.915-8 9 0 1.947-3 2.636-3 5Z"/><path fill="#C8C9CA" id="fp" d="m392 150-3 1c0-7.89-4-14.926-4-22 3.641 0 2.643 14 6 14v1c0 1.048-.473 3 1 3v3ZM71 130c-1.638 0-2 3.576-2 5 1.638 0 2-3.576 2-5Z"/><path fill="#CAC7CB" id="fiber tracts" d="M333 130c1.577 0 2 1.762 2 3l-2-3Z"/><path fill="#019099" id="AUDv1" d="M21 151h6c0-6.417 1-13.174 1-19l-5-1c0 6.427-2 12.946-2 20Z"/><path fill="#CAC7CB" id="fiber tracts" d="m123 131-1 1 1-1Z"/><path fill="#019099" id="AUDv1" d="M429 151h6c0-4.949-1-10.122-1-14.5 0-1.278.665-5.5-1-5.5l-4 1v19Z"/><path fill="#029198" id="AUDv2/3" d="M27 151h8v-18l-7-1c0 5.826-1 12.583-1 19Z"/><path fill="#C7CBCB" id="bsc" d="m119 135 2 1v-4c-1.577 0-2 1.762-2 3Z"/><path fill="#CAC7CB" id="fiber tracts" d="m122 132-1 2v-2h1Z"/><path fill="#FD8F9C" id="Eth" d="m184 158-2 3-3-3.5-15-16.5-1-1v-1l-2-2c0-1.173 9.536-5 11-5 0 7.685 11 11.861 11 19l1 7ZM273 162h1c0-2.043 13.238-15.738 15.5-18l4.5-5 1-2c0-1.173-9.536-5-11-5 0 3.047-7.792 17-11 17v13Z"/><path fill="#029198" id="AUDv2/3" d="M422 151h7v-19h-1l-7 1 1 18Z"/><path fill="#029197" id="AUDv4" d="M35 151h3l2-17-5-1v18Z"/><path fill="#7DCF4B" id="CA2" d="m377 133 1 1-1-1Z"/><path fill="#029197" id="AUDv4" d="M418 151h4l-1-18-5 1c0 5.368 2 11.041 2 17Z"/><path fill="#019098" id="AUDv5" d="m38 151 15 1 3-15-16-3-2 17ZM418 151l-15 1-2-15 15-3c0 5.368 2 11.041 2 17Z"/><path fill="#C8C9CA" id="fp" d="m65 150 2 1 2-16-2 3c0 1.623-.005 6-2 6v1c0 1.145.58 4-1 4v1h1Z"/><path fill="#CAC7CB" id="fiber tracts" d="M119 143c-4.043 0-5.395 6-8 6 0-2.217 5.569-14 8-14l2 1v2l-1 1-1 4ZM321 217l-3 1c0-8.227 11-14.296 11-23l1-8c0-2.973 5-5.016 5-9 8.734 0 17.661-35 3-35l-2-4-1-2v-2c.839 0 2 1.93 2 0 3.863 0 11 19.99 11 24 0 13.635-5.351 25.201-11 36.5-.939 1.879-3.37 10.5-6 10.5 0-6.864 6.962-17.425 10-23.5.467-.934 3.616-8.5.5-8.5-2.415 0-3.867 6.235-4.5 7.5-1.794 3.588-10.875 25.5-7 25.5v2l-1 1-1 1-1 1-1 1-1 1-1 1-1 1-2 1Z"/><path fill="#019397" id="AUDv6a" d="m53 152 9 1c0-3.832 3-11.07 3-14l-9-2-3 15Z"/><path fill="#FF6F80" id="TH" d="M132 151v3c3.784 0 7.635-7.067 11.5-9 .804-.402 5.5-2.3 5.5 0h3l-1-2-2-1c-4.943 0-4-1.273-4-5l-13 14Z"/><path fill="#FF7E82" id="PoT" d="M157 139h6l-2-2-4 2ZM294 139h6c0-1.638-3.576-2-5-2l-1 2Z"/><path fill="#FF6F80" id="TH" d="m324 151 1 4-13.5-11c-1.008-.504-4.5-.22-4.5 1l-3 1 1-3 3-1c5.055 0 3-2.096 3-5l13 14Z"/><path fill="#FE7F84" id="LGd-co" d="M335 139h1l-1-2v2Z"/><path fill="#019397" id="AUDv6a" d="m403 152-9 1c0-5.128-2-9.451-2-14l8-2h1l2 15Z"/><path fill="#CCC8CA" id="ar" d="m66 139-1 5c1.995 0 2-4.377 2-6l-1 1Z"/><path fill="#FF8E9C" id="PO" d="m173 172 8 1c2.215 0 1.519-2 3-2v-5c-.672 0-2-4.329-2-5l-3-3.5-15-16.5-1-1v-1h-8l-2 1-2 3 1 2v1l1 1c0 3.823 3 6.314 3 10l1 1v1l5 5 3 3 2 1 4 3 1 1h1ZM275 173h6c0-1.473 1.952-1 3-1l1-1 4-2 2-2 1-1 1-1h1l1-2 4-4 1-1 4-12 1-3c0-2.879-4-1.993-4-4h-7l-4.5 5c-2.262 2.262-15.5 15.957-15.5 18l-1 1v7c0 1.238.423 3 2 3Z"/><path fill="#019198" id="AUDv6b" d="M62 153h2v-4c0-1.145-.58-4 1-4v-1l1-5h-1c0 2.93-3 10.168-3 14Z"/><path fill="#C7CACC" id="ccs" d="M74 142h1v-3c-1.473 0-1 1.952-1 3Z"/><path fill="#FF909E" id="IGL" d="m132 154-1 5c-2.857 0-12-12.804-12-16l1-4c4.428 0 7.142 12 12 12v3Z"/><path fill="#FF7E82" id="PoT" d="m155 139-2 1 2-1ZM308 142l-3 1c0-2.879-4-1.993-4-4 1.176 0 7 2.114 7 3Z"/><path fill="#FF909E" id="IGL" d="M325 155v5c.923 0 13-16.166 13-17l-2-4h-1c0 2.869-7.994 12-11 12l1 4Z"/><path fill="#019198" id="AUDv6b" d="M393 153h1c0-5.128-2-9.451-2-14h-1v5c1.473 0 1 1.952 1 3v1l1 2v3Z"/><path fill="#FF7E82" id="PoT" d="m149 142 2 1 2-3-4 2ZM163 140l1 1-1-1Z"/><path fill="#FC909E" id="PF" d="M184 166v5c1.57 0 5.853 3.823 9.5 2 2.042-1.021 6.743-8 7.5-8 0-13.5 1.825-22-13-22-3.885 0-2.744 8-5 8l1 7v8Z"/><path fill="#FC8FFF" id="PAG" d="M217 143c1.293 0 6-1.962 6 1l1 26c0 1.39.829 8-1.5 8l-2.5-8.5c-3.866-7.731-3-17.17-3-26.5ZM239 143c0 8.846 1.173 20.154-3 28.5l-2.5 7.5-.5-5.5c-3.847-7.695 0-20.802 0-29.5l1-1h5Z"/><path fill="#FC909E" id="PF" d="M256 166c.77 0 5.668 6.084 7.5 7 4.353 2.177 8.745-3 9.5-3v-21c-2.517 0-.996-6-4-6-17.582 0-13 9.644-13 23Z"/><path fill="#C7CACC" id="ccs" d="M382 144h1l-1-2v2Z"/><path fill="#FF8E9F" id="LGv" d="M126 177c-2.25 0-3.376 2-5 2l-8-10.5c-3.179-6.359-2-11.585-2-18.5v-1c2.605 0 3.957-6 8-6 0 3.196 9.143 16 12 16l1 4c-1.702 0-6 12.145-6 14Z"/><path fill="#FF64FF" id="MB" d="m234 143-1 1 1-1Z"/><path fill="#FF8E9F" id="LGv" d="m330 177 5 1c8.734 0 17.661-35 3-35 0 .834-12.077 17-13 17l-1 3c2.899 0 6 11.776 6 14Z"/><path fill="#CCC8CA" id="ar" d="m132 163 4 3c2.47 0 12-3.359 12-6l-4-4.5c-1.229-2.459.564-10.5 5-10.5 0-2.3-4.696-.402-5.5 0-3.865 1.933-7.716 9-11.5 9l-1 5 1 4ZM324 163l-3 3c-4.965 0-10.609-6-13-6 0-4.153 10.507-3.993 2-12.5l-3-2.5c0-1.22 3.492-1.504 4.5-1l13.5 11v5l-1 3Z"/><path fill="#C9C9CA" id="scwm" d="M391 144c1.473 0 1 1.952 1 3-1.473 0-1-1.952-1-3ZM65 145c-1.58 0-1 2.855-1 4 1.58 0 1-2.855 1-4Z"/><path fill="#FF7E83" id="VPM" d="m166 168-3 2-7-5-8-5-4-4.5c-1.229-2.459.564-10.5 5-10.5h3v1l1 1c0 3.823 3 6.314 3 10l1 1v1c0 1.749 3.902 6 5 6l3 2 1 1ZM291 169l2 1c3.204 0 4.669-5 8-5 0-.693 6.242-5 7-5 0-4.153 10.507-3.993 2-12.5l-3-2.5-3 1-4 12-1 1c0 2.405-1.319 5-4 5l-1 1h-1l-1 1-1 1v2Z"/><path fill="#FF6F80" id="TH" d="m152 146 1 1-1-1Z"/><path fill="#A8AAAA" id="VL" fill-rule="evenodd" d="m94 199-1 5.5c4.805 9.61 15.607 14.607 23.5 22.5 3.412 3.412 6.662 4 11.5 4 1.193 0 6.318.136 5-2.5-2.164-4.328-8.197-1.848-11.5-3.5L109 213.5 94 199m46 31-4 2c-5.267 0-13.052 1.224-17.5-1l-9.5-8c0-1.51-10.318-7-12-7l-1-1-1-1c0-2.607-17.236-26-20-26l-4-6.5V172c8.85 0 2-10.766 2-16.5 0-1.532-.743-8.5 1-8.5 0 9.931 2.8 22.101 7 30.5l8 8 4.5 5.5c8.096 4.048 23.4 16.3 27.5 24.5 3.548 7.096 19 5.911 19 14.5Z"/><path fill="#C9C9CA" id="scwm" d="M392 150h1l-1-2v2Z"/><path fill="#C8CBCC" id="ec" d="m65 150-1 1v-1h1Z"/><path fill="#CCC8CA" id="ar" d="m64 159 2 3c0-2.998 1-7.358 1-11l-2-1-1 1v8Z"/><path fill="#CAC7CB" id="fiber tracts" fill-rule="evenodd" d="M114 174c0 7.078 4.522 15.544 8 22.5.536 1.072 5.183 12.633 6 11l-3-9c-2.179-4.358-4.339-24.5-11-24.5m14 21c0 9.469 11 15.336 11 24-4.174 0-9.856-8.356-12.5-11-7.617-7.617-18.5-35.039-18.5-46 0-2.134.937-12 3-12 0 6.915-1.179 12.141 2 18.5l8 10.5c0 3.126 6 6.346 6 8 0 1.49-.735 8 1 8Z"/><path fill="#A8AAAA" id="VL" fill-rule="evenodd" d="M361 199c0 2.234-23.062 24.281-26.5 26-1.663.831-11.5.551-11.5 3.5 0 2.965 9.645 3.427 11.5 2.5 4.186-2.093 21.966-17.966 26-22 1.765-1.765 4.991-10 .5-10m-23 32h1l5-4 1-1 1-1 1-1c0-2.589 8.969-7 11-7l1-1 1-1c2.323 0 15.729-27 21-27 0-.656 3.319-4.138 4-5.5l1-10.5c-1.995 0-4.919.662-6-1.5l2-5c1.973-3.946 1-10.805 1-15.5-2.064 0-.426 3.353-1 4.5-2.215 4.431-.837 10.675-3 15-3.786 7.573-8.303 13.303-14.5 19.5l-9 6c-6.705 3.353-9.585 10.792-16 14-2.908 1.454-4.114 8.057-8 10-4.069 2.034-15.5 5.15-15.5 11l4 2c5.996 0 12.639-1 18-1Z"/><path fill="#CCC8CA" id="ar" d="m389 151 1 11c3.274 0 2-9.698 2-12l-3 1Z"/><path fill="#C8CBCC" id="ec" d="m387 187 2 1c2.496 0-.496-5 2-5 0-4.107 1-8.469 1-12 0-1.145-.579-4 1-4v-17h-1c0 2.302 1.274 12-2 12 0 2.518 2.139 10-3 10v15Z"/><path fill="#15B0B3" id="TEa1" d="m29 173-5 1c0-7.365-3-15.152-3-23h6c0 7.458 2 14.456 2 21v1Z"/><path fill="#16AFB3" id="TEa2/3" d="m39 171-10 1c0-6.544-2-13.542-2-21h8c0 7.412 4 13.718 4 20Z"/><path fill="#15B0B2" id="TEa4" d="M39 171h1l-2-20h-3c0 7.412 4 13.718 4 20Z"/><path fill="#15AFB3" id="TEa5" d="M41 171h12v-19l-15-1 2 20h1ZM404 171h12l1-1 1-19-15 1c0 6 1 12.475 1 19Z"/><path fill="#15B0B2" id="TEa4" d="M422 151c0 2.799-2.828 19-5 19l1-19h4Z"/><path fill="#16AFB3" id="TEa2/3" d="m417 171 10 1 2-4.5V151h-7c0 2.799-2.828 19-5 19v1Z"/><path fill="#15B0B3" id="TEa1" d="m427 172 5 2c0-7.237 3-15.114 3-23h-6v16.5l-2 4.5Z"/><path fill="#15AFB2" id="TEa6a" d="M53 171h10l-1-18-9-1v19ZM393 171h11c0-6.525-1-13-1-19l-9 1c0 1.991.793 14-1 14v4Z"/><path fill="#16B0B2" id="TEa6b" d="M63 171h1v-18h-2l1 18ZM394 153c0 1.991.793 14-1 14v-14h1Z"/><path fill="#FF6F80" id="TH" d="m156 157 1 1-1-1ZM182 161c0 .671 1.328 5 2 5v-8l-2 3ZM300 158l-1 1 1-1Z"/><path fill="#C8CBCC" id="ec" d="m70 187-3 2-2-13.5c0-1.19.615-4.5-1-4.5v-12l2 3c0 2.554-1.11 10 3 10 0 4.933 1 10.73 1 15Z"/><path fill="#FF6F80" id="TH" d="M162 164v1c-1.098 0-5-4.251-5-6l5 5ZM295 163v1c2.681 0 4-2.595 4-5l-4 4ZM149 175h1c0-1.473 1.952-1 3-1 0-1.806-8.662-2.825-10-5.5-.473-.945 11.12-3.5 13-3.5l-8-5c0 2.641-9.53 6-12 6 0 2.415 10.89 9 13 9ZM306 175h1c2.419 0 14-6.719 14-9-4.965 0-10.609-6-13-6-.758 0-7 4.307-7 5 1.787 0 12.445 2.611 12 3.5-1.229 2.459-9 4.131-9 5.5l2 1Z"/><path fill="#C7CAC9" id="fr" d="M209 161c0 2.646-2 4.285-2 7.5v5.5c0 2.938 5.847 7.807 8 3.5 2.509-5.017.891-16.5-6-16.5ZM245 161c0 1.225-4.225 7.951-5 9.5-1.711 3.422 2.362 10.569 6.5 8.5 4.697-2.348 5.348-18-1.5-18Z"/><path fill="#FF6F80" id="TH" d="m274 162-1 1v-1h1Z"/><path fill="#F0483B" id="ZI" d="m146 197 7.5 6c5.56 2.78 11.569 4.285 17 7 2.084 1.042 8.5-.554 8.5-3 0-6.748-6.682-13.182-11.5-18l-6.5-6c-1.806 0-12-6.359-12-8-2.11 0-13-6.585-13-9l-4-3c-1.702 0-6 12.145-6 14 0 2.955 5 6.349 5 10l15 10Z"/><path fill="#FD7F83" id="MGm" d="m295 164-1 1 1-2v1Z"/><path fill="#F0483B" id="ZI" d="M306 201c-1.518 0-13.089 6.794-15.5 8-6.475 3.238-11.722-2-13.5-2 0-5.944 6.704-13.204 11-17.5l7-5.5 6-5c1.238 0 3-.423 3-2 1.238 0 3-.423 3-2 2.419 0 14-6.719 14-9l3-3c2.899 0 6 11.776 6 14 0 3.34-5 6.956-5 11-2.013 0-13 6.259-13 8l-1 1-1 1-2 1-1 1-1 1Z"/><path fill="#FD7F83" id="MGm" d="m162 165 3 2-3-3v1ZM158 175h5v-5l-7-5c-1.88 0-13.473 2.555-13 3.5 1.338 2.675 10 3.694 10 5.5h1l1 1h3Z"/><path fill="#FF6F80" id="TH" d="M181 175c6.494 0 18-4.852 18 4 6.642 0 2-9.894 2-14-.757 0-5.458 6.979-7.5 8-3.647 1.823-7.93-2-9.5-2-1.481 0-.785 2-3 2v2Z"/><path fill="#FD7F83" id="MGm" d="m293 165-1 1 1-1ZM298 175h4l1-1h1c0-1.369 7.771-3.041 9-5.5.445-.889-10.213-3.5-12-3.5-3.331 0-4.796 5-8 5v5h5Z"/><path fill="#FF6F80" id="TH" d="M276 175c-5.711 0-19-4.819-19 4-7.113 0-1-9.405-1-13 .77 0 5.668 6.084 7.5 7 4.353 2.177 8.745-3 9.5-3 0 1.238.423 3 2 3l1 2Z"/><path fill="#FD7F83" id="MGm" d="m292 166-1 1 1-1Z"/><path fill="#FF7E82" id="PoT" d="M166 168h1l-2-1 1 1ZM289 169h2v-2l-2 2Z"/><path fill="#16B0B2" id="TEa6b" d="M392 171h1v-4c-1.579 0-1 2.855-1 4Z"/><path fill="#FF7F82" id="VPLpc" d="M180 175c0 1.429-1.288 4-3 4-5.618 0-9.392-4-14-4v-5l3-2h1l4 3 1 1h1c0 1.429 5.655 3 7 3ZM276 176c0 1.712 2.571 3 4 3 5.217 0 8.617-4 13-4v-5l-2-1h-2l-4 2-1 1c0 1.473-1.952 1-3 1l-5 3Z"/><path fill="#15B0B2" id="TEa4" d="M416 171h1v-1l-1 1Z"/><path fill="#0D9F91" id="ECT2/3" d="m34 189 12 3c0-7.225-5-13.507-5-21h-2l-10 1v1l2 2.5c4.591 9.182 3 3.84 3 13.5Z"/><path fill="#0D9E90" id="ECT5" d="M57 195h2c0-8.394-6-14.585-6-24H41c0 7.493 5 13.775 5 21h1l10 3Z"/><path fill="#0E9F91" id="ECT6a" d="M59 195h2c1.624 0 2.75-2 5-2 0-7.59-3-14.729-3-22H53c0 9.415 6 15.606 6 24Z"/><path fill="#0E9F90" id="ECT6b" d="M66 193h2l-1-4-2-13.5c0-1.19.615-4.5-1-4.5h-1c0 7.271 3 14.41 3 22Z"/><path fill="#FF7E82" id="PoT" d="m171 171 1 1-1-1ZM285 171l-1 1 1-1Z"/><path fill="#0E9F90" id="ECT6b" d="M393 171c0 2.083-.142 12-2 12 0-4.107 1-8.469 1-12h1Z"/><path fill="#0E9F91" id="ECT6a" d="M395 195h3c0-8.891 6-14.865 6-24h-11c0 2.083-.142 12-2 12 0 3.51-1 7.022-1 10 2.25 0 3.376 2 5 2Z"/><path fill="#0D9E90" id="ECT5" d="M398 195h1l11-3 1-1c0-7.125 5-13.235 5-20h-12c0 9.135-6 15.109-6 24Z"/><path fill="#0D9F91" id="ECT2/3" d="M422 189c-3.419 0-7.224 2-11 2 0-7.125 5-13.235 5-20h1l10 1-5 7.5v9.5Z"/><path fill="#FF7E82" id="PoT" d="M180 175h1v-2l-8-1c0 1.429 5.655 3 7 3ZM284 172c-1.048 0-3-.473-3 1 1.048 0 3 .473 3-1Z"/><path fill="#0D9F90" id="ECT1" d="m429 187-7 2v-9.5l5-7.5 5 2-4 5.5c-1.182 2.364 1 5.696 1 7.5ZM28 187l6 2c0-9.66 1.591-4.318-3-13.5l-2-2.5-5 1 4 4.5v8.5Z"/><path fill="#FF7E82" id="PoT" d="M276 175v1l5-3h-6l1 2Z"/><path fill="#CACCCB" id="opt" d="M114 174c0 7.078 4.522 15.544 8 22.5.536 1.072 5.183 12.633 6 11l-3-9c-2.179-4.358-4.339-24.5-11-24.5Z"/><path fill="#CACCC8" id="ml" d="M186 183c0 .499 6.793 6 1 6-9.407 0-21.47-8-25-8l-12-6c0-1.473 1.952-1 3-1h1l1 1h3c0 1.993 5.2 1.35 6.5 2 6.948 3.474 13.072 6 21.5 6Z"/><path fill="#FF6F80" id="TH" d="m154 174 1 1-1-1Z"/><path fill="#FE8084" id="SPFp" d="M192 181h1l2-1h1l1-1h2c0-8.852-11.506-4-18-4h-1c0 1.429-1.288 4-3 4 0 3.484 11.765 2 15 2ZM260 180h1c2.231 0 19 3.525 19-1-1.429 0-4-1.288-4-3v-1c-5.711 0-19-4.819-19 4h2l1 1Z"/><path fill="#FF6F80" id="TH" d="m303 174-1 1 1-1Z"/><path fill="#CACCC8" id="ml" d="M271 183c0 .017-8.06 6-2 6 10.622 0 19.281-8 26-8 1.974 0 3.517-2 6-2 0-1.577 1.762-2 3-2l2-2-2-1h-1l-1 1h-4c0 1.59-4.386 1.443-5.5 2-6.682 3.341-13.427 6-21.5 6Z"/><path fill="#CACCCB" id="opt" d="m331 206-1 1c-3.875 0 5.206-21.912 7-25.5.633-1.265 2.085-7.5 4.5-7.5 3.116 0-.033 7.566-.5 8.5-3.038 6.075-10 16.636-10 23.5Z"/><path fill="#E64438" id="HY" d="m162 181-1 2c-1.806 0-12-6.359-12-8h1l12 6Z"/><path fill="#FF6F80" id="TH" d="M192 181c0 1.353-4.643 2-6 2-8.428 0-14.552-2.526-21.5-6-1.3-.65-6.5-.007-6.5-2h5c4.608 0 8.382 4 14 4 0 3.484 11.765 2 15 2ZM261 180c0 1.739 8.126 3 10 3 8.073 0 14.818-2.659 21.5-6 1.114-.557 5.5-.41 5.5-2h-5c-4.383 0-7.783 4-13 4 0 4.525-16.769 1-19 1Z"/><path fill="#E64438" id="HY" d="M307 175c0 1.577-1.762 2-3 2l2-2h1Z"/><path fill="#FD8F9E" id="SubG" d="M127 187h4c0-3.651-5-7.045-5-10-2.25 0-3.376 2-5 2 0 3.126 6 6.346 6 8Z"/><path fill="#E64438" id="HY" d="M304 177c-1.238 0-3 .423-3 2 1.238 0 3-.423 3-2Z"/><path fill="#FD8F9E" id="SubG" d="m330 187-5 1c0-4.044 5-7.66 5-11l5 1c0 3.984-5 6.027-5 9Z"/><path fill="#FF6F80" id="TH" d="m197 179-1 1 1-1ZM259 179l1 1-1-1Z"/><path fill="#E64438" id="HY" d="M295 181v3l6-5c-2.483 0-4.026 2-6 2Z"/><path fill="#FF6F80" id="TH" d="m195 180-2 1 2-1Z"/><path fill="#F24739" id="FF" d="m192 209-1 1c-5.179 0-9.577-3-12-3 0-6.748-6.682-13.182-11.5-18l-6.5-6 1-2c3.53 0 15.593 8 25 8 0 .995 5.097 5.694 6 7.5.784 1.567.194 12.5-1 12.5Z"/><path fill="#A8A9AA" id="V3" d="M227 194c0 3.594 2 5.649 2 1l-.5-14c-2.543 0-1.5 11.19-1.5 13Z"/><path fill="#F24739" id="FF" d="M277 207c-.564 0-7.063 3-12 3 0-.538-3.845-8.81-2-12.5l6-8.5c10.622 0 19.281-8 26-8v3l-7 5.5c-4.296 4.296-11 11.556-11 17.5Z"/><path fill="#0E9F90" id="ECT6b" d="M389 193h1c0-2.978 1-6.49 1-10-2.496 0 .496 5-2 5v5Z"/><path fill="#0E9584" id="PERI1" d="M34 198c-1.564 0-3.876 1-6 1 0-1.12-2.857-12 0-12l6 2v9Z"/><path fill="#C8C9CB" id="amc" d="M78 221h1c0-11.842-8-20.488-8-32l-1-2-3 2 1 4c0 4.986 10 18.428 10 28Z"/><path fill="#FF64FF" id="MB" d="m173 243 4 1c0-2.25 2-3.376 2-5 0-14.387-12.381-21.881-22-31.5L146 197l-15-10h-4c0 1.49-.735 8 1 8 0-8.668 11.094-1.311 13 2.5 2.763 5.526-1.8 9.2 4.5 15.5l15 14c5.845 2.923 12.544 4.589 15.5 10.5 1.284 2.569-3 3.509-3 5.5ZM283 243l-3 1-3-5c0-12.579 10.115-19.615 18.5-28l10.5-10 1-1 1-1 2-1 1-1 1-1c0-1.741 10.987-8 13-8l5-1-1 8c-4.207 0-.248-6.626-9.5-2-5.76 2.88-3.638 11.777-6.5 17.5-3.063 6.126-12.653 14.576-18.5 17.5-3.79 1.895-11.205 2.91-13.5 7.5-1.558 3.117 2 5.401 2 7.5Z"/><path fill="#C8C9CB" id="amc" d="m388 194-7 14.5c-.557 1.114-.41 5.5-2 5.5 0-8.886 6-15.047 6-24l1-1 1-2 2 1v5l-1 1Z"/><path fill="#0E9584" id="PERI1" d="m422 198 6 1c2.867 0 1-10.42 1-12l-7 2v9Z"/><path fill="#90EB8D" id="LA" d="m79 228 1 1c.372 0 3.828-5.164 5.5-6 4.715-2.357 9.782-2 15.5-2h1l-5-5-1-1-1-1c0-2.607-17.236-26-20-26l-4 1c0 11.512 8 20.158 8 32v7ZM377 229l-1 1c0-9.652-14.068-9-21-9h-1l3-2 1-1 1-1v-1l1-1c2.323 0 15.729-27 21-27 1.145 0 4-.579 4 1v1c0 8.953-6 15.114-6 24-1.735 0-1 6.51-1 8-1.714 0-1 5.594-1 7Z"/><path fill="#0E9583" id="PERI2/3" d="M34 198h7l7-1-1-5h-1l-12-3v9Z"/><path fill="#FD4B3C" id="PH" d="M227 229c0-1.919 2-2.488 2 0 2.016 0 12-1.874 12-4l1-5c0-1.657-.763-10 1-10v-2c0-2.947 3.986-7.527 2-11.5-1.349-2.699-12-11.238-12-4.5l-4.5 12c-1.005 0-5.5-10.926-5.5-12 0-6.306-9.648.797-11 3.5-2.52 5.041 1 7.974 1 12.5l1 3c2.461 0 0 6.743 0 8 1.684 0 1 4.679 1 6 2.673 0 8.026 4 12 4Z"/><path fill="#8AD987" id="CTXsp" d="m386 189-1 1v-1h1Z"/><path fill="#0E9583" id="PERI2/3" d="M415 198h7v-9c-3.419 0-7.224 2-11 2l-1 1-2 5 7 1Z"/><path fill="#CCCAC7" id="cpd" d="m170 242 3 1c0-1.991 4.284-2.931 3-5.5-2.956-5.911-9.655-7.577-15.5-10.5l-15-14c-6.3-6.3-1.737-9.974-4.5-15.5-1.906-3.811-13-11.168-13-2.5 0 9.469 11 15.336 11 24l6 6 13 11 4 2 1 1h1l3 2h1l1 1h1ZM283 243h2l1-1h1l1-1h1l2-1 1-1h1l2-1 1-1h1l1-1 1-1h1l1-1 1-1h1l1-1 1-1 2-1 1-1 4-4 1-1 1-1 1-1v-1l1-1 1-1 1-1c0-8.227 11-14.296 11-23-4.207 0-.248-6.626-9.5-2-5.76 2.88-3.638 11.777-6.5 17.5-3.063 6.126-12.653 14.576-18.5 17.5-3.79 1.895-11.205 2.91-13.5 7.5-1.558 3.117 2 5.401 2 7.5Z"/><path fill="#0D9F91" id="ECT2/3" d="m411 191-1 1 1-1Z"/><path fill="#0F9684" id="PERI5" d="M48 197h1l8-1v-1l-10-3 1 5Z"/><path fill="#E64438" id="HY" d="M227 194c0 3.594 2 5.649 2 1 1.457 0 1.46-3 4-3l-4.5 12c-1.005 0-5.5-10.926-5.5-12l4 2Z"/><path fill="#0F9684" id="PERI5" d="M407 197h1l2-5-11 3v1l8 1Z"/><path fill="#A0EE9C" id="EPd" d="m76 228-4 3-4-7-1-2 2 .5c.953-1.905-1.359-2.717-2-4l-4-11c-1.373-2.746 2.405-10.5-2-10.5v-2c1.624 0 2.75-2 5-2h2c0 4.986 10 18.428 10 28l-2 7Z"/><path fill="#0E9F90" id="ECT6b" d="m389 193-1 1 1-1Z"/><path fill="#A0EE9C" id="EPd" d="m380 228 4 3c.81 0 5-6.749 5-8-2.989 0 4-14.187 4-19 0-1.296.825-7 2-7v-2c-1.624 0-2.75-2-5-2h-1l-1 1-7 14.5c-.557 1.114-.41 5.5-2 5.5v8c0 2.124 1 4.436 1 6Z"/><path fill="#32B824" id="ENTl6a" d="M61 197c0 5.796 2 11.046 2 16-1.845 0-1.44-3.381-2-4.5L57 196v-1h4v2ZM395 197v12c2.12 0 4-10.856 4-13v-1h-4v2Z"/><path fill="#31B824" id="ENTl5" d="m65 220-9 1c0-6.205-7-15.8-7-24l8-1 4 12.5c.56 1.119.155 4.5 2 4.5l1 4 1 1v2Z"/><path fill="#E64438" id="HY" d="m312 196-1 1 1-1Z"/><path fill="#31B824" id="ENTl5" d="m392 220 8 1c0-4.066 7-15.467 7-24l-8-1c0 2.144-1.88 13-4 13 0 1.048.473 3-1 3l-1 3-1 2v3Z"/><path fill="#32B725" id="ENTl3" d="m56 221-8 2-7-25 7-1h1c0 8.2 7 17.795 7 24Z"/><path fill="#C9C8CA" id="ee" d="M65 219c1.577 0 2 1.762 2 3l2 .5c.953-1.905-1.359-2.717-2-4l-4-11c-1.373-2.746 2.405-10.5-2-10.5 0 5.796 2 11.046 2 16l1 4 1 1v1Z"/><path fill="#E64438" id="HY" fill-rule="evenodd" d="M170 213c0 9.127 13.296 0 3.5 0H170m14 23-5 3c0-14.387-12.381-21.881-22-31.5L146 197l7.5 6c5.56 2.78 11.569 4.285 17 7 2.084 1.042 8.5-.554 8.5-3 2.423 0 6.821 3 12 3 0 3.5-5.724 15 3 15l-1 4-2 2c0-4.739-6.177-14-11.5-14l-4.5 4.5 5 7c1.258 2.516-.028 7.5 4 7.5Z"/><path fill="#E64438" id="HY" d="m311 197-1 1 1-1Z"/><path fill="#C9C8CA" id="ee" d="m391 219-2 4c-2.989 0 4-14.187 4-19 0-1.296.825-7 2-7v12c-1.473 0-1 1.952-1 3l-1 3-1 2v1l-1 1Z"/><path fill="#32B725" id="ENTl3" d="m400 221 8 2c0-8.044 7-16.306 7-25l-7-1h-1c0 8.533-7 19.934-7 24Z"/><path fill="#32B722" id="ENTl1" d="m42 225-3 1-3-5.5c-2.108-2.108-8-18.268-8-21.5 2.124 0 4.436-1 6-1 0 9.576 8 18.241 8 27Z"/><path fill="#32B825" id="ENTl2" d="m48 223-6 2c0-8.759-8-17.424-8-27h7l7 25ZM408 223l7 2c0-9.247 7-16.965 7-27h-7c0 8.694-7 16.956-7 25Z"/><path fill="#32B722" id="ENTl1" d="m415 225 2 2 3-5.5c2.76-2.76 8-18.174 8-22.5l-6-1c0 10.035-7 17.753-7 27Z"/><path fill="#A9AAA8" id="chpl" d="m94 199-1 5.5c4.805 9.61 15.607 14.607 23.5 22.5 3.412 3.412 6.662 4 11.5 4 1.193 0 6.318.136 5-2.5-2.164-4.328-8.197-1.848-11.5-3.5L109 213.5 94 199Z"/><path fill="#E64438" id="HY" d="m308 199-1 1 1-1Z"/><path fill="#A9AAA8" id="chpl" d="M361 199c0 2.234-23.062 24.281-26.5 26-1.663.831-11.5.551-11.5 3.5 0 2.965 9.645 3.427 11.5 2.5 4.186-2.093 21.966-17.966 26-22 1.765-1.765 4.991-10 .5-10Z"/><path fill="#E64438" id="HY" d="m307 200-1 1 1-1Z"/><path fill="#E64438" id="HY" fill-rule="evenodd" d="m280 213-1 3.5c1.203 2.405 8-.914 8-3l-7-.5m-7 23 4 3c0-12.579 10.115-19.615 18.5-28l10.5-10c-1.518 0-13.089 6.794-15.5 8-6.475 3.238-11.722-2-13.5-2-.564 0-7.063 3-12 3 0 2.205 6.009 15-2 15v4l7 6-5-6.5 3.5-5.5 4.5-4c2.511 0 6.058-3.385 8 .5 1.558 3.116-4.748 9.496-6 12v4l-2 .5Z"/><path fill="#CAC7CB" id="fiber tracts" d="m331 206-1 1 1-1Z"/><path fill="#C8C8C8" id="mtg" d="M213 208c-8.924 0 1 11.997 1 3l-1-3ZM243 208c8.152 0 0 11.703 0 2v-2Z"/><path fill="#E64438" id="HY" d="m192 209-1 1 1-1Z"/><path fill="#32B824" id="ENTl6a" d="M395 209c-1.473 0-1 1.952-1 3 1.473 0 1-1.952 1-3Z"/><path fill="#CCCACB" id="nst" d="M170 213c0 9.127 13.296 0 3.5 0H170ZM280 213l-1 3.5c1.203 2.405 8-.914 8-3l-7-.5Z"/><path fill="#C8C9CB" id="amc" d="M378 222h1v-8c-1.735 0-1 6.51-1 8Z"/><path fill="#32B824" id="ENTl6a" d="m393 215-1 2 1-2ZM64 217l1 1-1-1Z"/><path fill="#F1483A" id="PSTN" d="M185 235h1l1-1 1-1 1-1 1-1h1c0-4.739-6.177-14-11.5-14l-4.5 4.5 5 7c1.258 2.516-.028 7.5 4 7.5l1-1ZM272 236h1l2-.5v-4c1.252-2.504 7.558-8.884 6-12-1.942-3.885-5.489-.5-8-.5l-4.5 4-3.5 5.5 5 6.5h1l1 1Z"/><path fill="#8AD987" id="CTXsp" d="m359 217-1 1v-1h1Z"/><path fill="#CAC7CB" id="fiber tracts" d="m318 218-1 1 1-1Z"/><path fill="#8AD987" id="CTXsp" d="m358 218-1 1 1-1Z"/><path fill="#32B824" id="ENTl6a" d="M391 219h1v-1l-1 1Z"/><path fill="#99D2BD" id="OLF" d="m67 222 1 2-3-4v-1c1.577 0 2 1.762 2 3Z"/><path fill="#E64438" id="HY" d="M203 227h4c0-3.215 6-6.028 6-2h2c0-1.321.684-6-1-6 0 2.722-9.915 5-12 5l1 3Z"/><path fill="#CAC7CB" id="fiber tracts" d="m317 219-1 1 1-1Z"/><path fill="#99D2BD" id="OLF" d="m392 220-3 3 2-4h1v1Z"/><path fill="#6ACAB9" id="PIR" d="M80 264c0 7.394-8 15.673-8 20-2.736 0-9.913-10.325-11-12.5-5.551-11.102-22-33.24-22-45.5l3-1 6-2 8-2 9-1 3 4 4 7c0 6.123 1.333 17.166 4 22.5l4 9.5v1Z"/><path fill="#E64438" id="HY" d="M250 227h3l1-3c0-.034-11.064-4-12-4l-1 5h2c0-4.181 7-1.35 7 2Z"/><path fill="#CAC7CB" id="fiber tracts" d="m316 220-1 1 1-1Z"/><path fill="#6ACAB9" id="PIR" d="M376 264c0 2.804 6.344 19 9 19l10.5-11c5.41-5.41 21.5-37.839 21.5-45l-2-2-7-2-8-2-8-1-3 3c0 1.251-4.19 8-5 8 0 4.561-1.156 17.812-3 21.5-1.616 3.232-4 6.644-4 10.5l-1 1Z"/><path fill="#8AD987" id="CTXsp" d="M76 228h3v-7h-1l-2 7Z"/><path fill="#9DE69C" id="BLAp" d="m86 249 5 1 4-4.5c1.234-2.468 7.05-16.5 10-16.5v-1c-3.627 0-4-4.074-4-7-5.718 0-10.785-.357-15.5 2-1.672.836-5.128 6-5.5 6 0 4.113.742 20 6 20Z"/><path fill="#9DE79B" id="BLAa" d="M106 223c0 3.598-1 4.708-1 5-3.627 0-4-4.074-4-7h2l1 1 2 1Z"/><path fill="#8AD987" id="CTXsp" d="m103 221 1 1-1-1Z"/><path fill="#9DE79B" id="BLAa" d="m349 225 2 2c3.752 0 4-1.593 4-6h-1l-2 1-1 1-1 1-1 1Z"/><path fill="#9DE69C" id="BLAp" d="m365 249 5 1 5-6.5c2.173-4.346 1-9.327 1-13.5 0-9.652-14.068-9-21-9 0 4.407-.248 6-4 6l1 2c3.383 0 9.371 20 13 20Z"/><path fill="#CBCCCB" id="mfb" d="m193 229 5.5-1 3.5 2 1-3-1-3c0-2.773-8-2.849-8 1l-1 4ZM263 229l-5.5-1-3.5 2-1-3 1-3c1.791 0 2.959-3.27 5.5-2l3.5 3v4Z"/><path fill="#8AD987" id="CTXsp" d="m352 222-1 1 1-1ZM380 228l-3 1c0-1.406-.714-7 1-7h1c0 2.124 1 4.436 1 6ZM105 229h7l-6-6c0 3.598-1 4.708-1 5v1Z"/><path fill="#CAC7CB" id="fiber tracts" d="m138 233-8 2c0-2.064-3.353-.426-4.5-1l-10.5-3h-1l-1-1v-1l-4-6 9.5 8c4.448 2.224 12.233 1 17.5 1l2 1Z"/><path fill="#C8CBCA" id="pm" d="m213 225 2 5.5c-3.464 6.928-8 1.639-8-3.5 0-3.215 6-6.028 6-2ZM243 225l-1 5.5c2.814 5.629 8 1.854 8-3.5 0-3.35-7-6.181-7-2Z"/><path fill="#8AD987" id="CTXsp" d="m351 223-1 1 1-1Z"/><path fill="#CAC7CB" id="fiber tracts" d="M346 225h1v-1l-1 1Z"/><path fill="#8AD987" id="CTXsp" d="m350 224-1 1 1-1Z"/><path fill="#FF493D" id="SUM" d="M227 243c.839 0 2-1.93 2 0 1.031 0 3.289-2 6-2l7-2 1-1h1c0-1.473 1.952-1 3-1 0-3.007 5.215 1 6 1 0-3.219 1-5.108 1-8l-1-3h-3c0 5.354-5.186 9.129-8 3.5l1-5.5h-2c0 2.126-9.984 4-12 4h-2c-3.974 0-9.327-4-12-4h-2l2 5.5c-3.464 6.928-8 1.639-8-3.5h-4l-1 3c0 2.16 2 4.167 2 7 1.357 0 6-2.112 6 0 1.424 0 5 .362 5 2l7 3c0-1.979 5-1.202 5 1Z"/><path fill="#8AD987" id="CTXsp" d="M345 228c2.409 0 5.181 1 7 1l-1-2-2-2h-2c0 1.747-.253 2-2 2v1Z"/><path fill="#CAC7CB" id="fiber tracts" d="M344 227h1v-1l-1 1Z"/><path fill="#7ECF49" id="CA3" d="m162 246-3 4c-4.817 0-7.318-15-12-15l-5-6.5c-.706-1.411 1.598-1.951 2.5-1.5l13.5 9 4 2 1 1h1l1 2v2l-1 1-1 1-1 1Z"/><path fill="#E64438" id="HY" d="M227 229h2c0-2.488-2-1.919-2 0Z"/><path fill="#7ECF49" id="CA3" d="m293 245 4 4 2.5 1c2.138-1.069 5.442-15 10.5-15l1-1c0-.588 5.542-9.521.5-7-1.619.809-1.471 2-3.5 2l-1 1-2 1-1 1-1 1h-1l-1 1-1 1h-1l-1 1-1 1h-1l-1 1-2 1h-1l-1 1v3c1.747 0 2 .253 2 2Z"/><path fill="#CAC7CB" id="fiber tracts" d="M341 231h1l1-1 1-1v-2l-5 4h2Z"/><path fill="#A0ED9D" id="EPv" d="M80 263h1c1.365 0 4-2.366 4-4l2-4.5c.978-1.956-1-4.077-1-5.5-5.258 0-6-15.887-6-20l-1-1h-3l-4 3c0 6.123 1.333 17.166 4 22.5l4 9.5Z"/><path fill="#84E981" id="BMAp" d="m93 265 4 1 7-5 15-22-2-4-2-4h-1l-1-1v-1h-8c-2.95 0-8.766 14.032-10 16.5l-4 4.5c0 3.357-1.75 8.001 0 11.5l2 3.5Z"/><path fill="#F2483A" id="LHA" d="M177 250c1.974 0 3.517 2 6 2 0-.473 8.784-4 10-4l3-2 1-1c1.59 0 6-5.662 6-7l1-1c0-2.833-2-4.84-2-7l-3.5-2-5.5 1-2 2h-1l-1 1-1 1-1 1-1 1h-1l-1 1-5 3c0 1.624-2 2.75-2 5v6ZM279 250c-1.974 0-3.517 2-6 2 0-.762-8.55-4-10-4l-3-2-7-8c0-3.219 1-5.108 1-8l3.5-2 5.5 1 7 6h1l1 1h1l4 3 3 5c0 2.124-1 4.436-1 6Z"/><path fill="#84E981" id="BMAp" d="m363 265-3 1-6-4c0-3.643-16-16.464-16-23v-2l1-1 2-4 1-1 1-1 1-1 1-1c2.409 0 5.181 1 7 1 3.383 0 9.371 20 13 20v14l-2 2Z"/><path fill="#A0ED9D" id="EPv" d="M375 263h2c0-3.856 2.384-7.268 4-10.5 1.844-3.688 3-16.939 3-21.5l-4-3-3 1-1 1c0 4.173 1.173 9.154-1 13.5l-5 6.5c0 3.77 2 7.021 2 10l3 3Z"/><path fill="#C7C8CC" id="alv" d="m308 229-1 1 1-1Z"/><path fill="#8AD987" id="CTXsp" d="m344 229-1 1 1-1ZM113 230l1 1-1-1Z"/><path fill="#C7C8CC" id="alv" d="m307 230-2 1 2-1Z"/><path fill="#8AD987" id="CTXsp" d="m343 230-1 1 1-1Z"/><path fill="#C8CBC7" id="st" d="M130 235c-2.338 0-4.862 2-8 2-2.25 0-3.376-2-5-2l-2-4 10.5 3c1.147.574 4.5-1.064 4.5 1Z"/><path fill="#E64438" id="HY" d="m190 231-1 1 1-1Z"/><path fill="#C7C8CC" id="alv" d="m305 231-1 1 1-1Z"/><path fill="#CAC7CB" id="fiber tracts" d="M318 233c3.68 0 5.511 2 9 2 0-2.964 11-.217 11-4-5.361 0-12.004 1-18 1l-2 1Z"/><path fill="#C8CBC7" id="st" d="M335 237h3l1-1 2-4v-1h-3c0 3.783-11 1.036-11 4 0 1.931 6.225 2 8 2Z"/><path fill="#8AD987" id="CTXsp" d="m342 231-1 1v-1h1Z"/><path fill="#C7C8CC" id="alv" d="m304 232-1 1 1-1Z"/><path fill="#97EC93" id="PA" d="M113 262c2.299 0 14.221-13.64 23.5-9 3.023 1.512 5.931 2.931 8.5 5.5l4 3.5 6-4c0-9.628-12-19.621-12-24l-5-1-8 2c-2.338 0-4.862 2-8 2l-3 2-15 22c1.574 0 9-.751 9 1Z"/><path fill="#E64438" id="HY" d="m188 233-1 1 1-1Z"/><path fill="#C7C8CC" id="alv" d="m302 233-1 1 1-1Z"/><path fill="#97EC93" id="PA" d="M343 261c3.642 0 8.002 1 11 1 0-3.643-16-16.464-16-23l-3-2c-1.775 0-8-.069-8-2-3.489 0-5.32-2-9-2l-5 1c0 5.956-12 14.703-12 23 0 1.391 5.706 5 7 5l5.5-5c7.022-3.511 13.134-5.933 21-2l8.5 6Z"/><path fill="#7DCD4B" id="HPF" d="M160 256c0 .672-4.329 2-5 2 0-9.628-12-19.621-12-24l4 1c4.682 0 7.183 15 12 15 0 2.124 1 4.436 1 6Z"/><path fill="#E64438" id="HY" d="m187 234-1 1 1-1Z"/><path fill="#C7C8CC" id="alv" d="m301 234-1 1 1-1ZM311 234l-1 1 1-1Z"/><path fill="#7DCD4B" id="HPF" d="M296 256c0 1.643 3.765 1 5 1 0-8.297 12-17.044 12-23h-2l-1 1c-5.058 0-8.362 13.931-10.5 15l-2.5-1v1c0 2.124-1 4.436-1 6Z"/><path fill="#8AD987" id="CTXsp" d="m122 237-3 2-2-4c1.624 0 2.75 2 5 2Z"/><path fill="#E64438" id="HY" d="m185 235-1 1 1-1ZM271 235l1 1-1-1Z"/><path fill="#C7C8CC" id="alv" d="m299 235-1 1 1-1Z"/><path fill="#FC4B3E" id="Mml" d="M196 246c0 3.229.699 5 4 5l9-11 1-1v-2c0-2.112-4.643 0-6 0l-1 1c0 1.338-4.41 7-6 7l-1 1ZM260 246c0 2.896.696 5-4 5 0-5.183-9-7.9-9-12v-2c0-3.007 5.215 1 6 1l7 8Z"/><path fill="#C7C8CC" id="alv" d="m298 236-1 1 1-1Z"/><path fill="#8AD987" id="CTXsp" d="m339 236-1 1 1-1Z"/><path fill="#FF493D" id="SUM" d="m204 237-1 1 1-1Z"/><path fill="#FE4A3C" id="Mmm" d="M210 239h5c0-1.638-3.576-2-5-2v2ZM244 238l3 1v-2c-1.048 0-3-.473-3 1Z"/><path fill="#C7C8CC" id="alv" d="m296 237-1 1 1-1Z"/><path fill="#8AD987" id="CTXsp" d="M338 237v2l-3-2h3Z"/><path fill="#C7C8CC" id="alv" d="m162 238 1 1-1-1Z"/><path fill="#FC4C3E" id="PMd" d="M216 259h1c3.454 0 4.112-5 8-5v-8l-3-4-7-3h-5l-1 1-9 11c0 2.967 1 4.861 1 7l7.5-1c1.892.946 5.372 2 7.5 2Z"/><path fill="#FE4A3C" id="Mmm" d="m243 238-1 1 1-1Z"/><path fill="#FC4C3E" id="PMd" d="M240 259h1l6.5-2 7.5 1 2-2.5-1-4.5c0-5.183-9-7.9-9-12l-3-1h-1l-1 1-7 2-4 5-1 5.5 2 2.5c3.204 0 4.669 5 8 5Z"/><path fill="#C7C8CC" id="alv" d="m295 238-2 1 2-1ZM166 241h1l-3-2 1 2h1Z"/><path fill="#FE4A3C" id="Mmm" d="m210 239-1 1 1-1Z"/><path fill="#C7C8CC" id="alv" d="m292 239-1 1 1-1ZM289 241h2v-1l-2 1Z"/><path fill="#7ECE4A" id="DG-po" d="m166 242-1 1v-2h1v1Z"/><path fill="#7DCD4B" id="HPF" d="m167 241-1 1v-1h1Z"/><path fill="#65A83D" id="DG-sg" d="m162 246-3 4c3.774 0 9-3.956 9-8v-1h-1l-1 1-1 1-1 1-1 1-1 1Z"/><path fill="#7DCD4B" id="HPF" d="M168 242h1l-1-1v1Z"/><path fill="#FD4B3E" id="Mmme" d="M227 243c0 1.238-.423 3-2 3l-3-4c0-1.979 5-1.202 5 1ZM229 243c0 1.238.423 3 2 3l4-5c-2.711 0-4.969 2-6 2Z"/><path fill="#7BD04A" id="DG-mo" d="M288 242h1v-1h-1v1Z"/><path fill="#7DCD4B" id="HPF" d="M289 242h2v-1h-2v1Z"/><path fill="#7BD04A" id="DG-mo" d="M160 256h4l2-1 2-1 1-1 2-2.5c4.279-8.558-1-2.754-1-8.5h-2c0 4.044-5.226 8-9 8 0 2.124 1 4.436 1 6Z"/><path fill="#E64438" id="HY" d="m231 258-3.5-2-2.5 3v-13c1.577 0 2-1.762 2-3 .839 0 2-1.93 2 0 0 1.238.423 3 2 3l-1 5.5 2 2.5c-1.579 0-1 2.855-1 4Z"/><path fill="#7BD04A" id="DG-mo" d="M293 256h3c0-1.564 1-3.876 1-6-3.003 0-9-4.747-9-8h-2l-1 1-2 3.5c0 2.545 5.244 8.5 8 8.5l2 1Z"/><path fill="#65A83D" id="DG-sg" d="M297 249v1c-3.003 0-9-4.747-9-8h3v1l2 2 4 4Z"/><path fill="#7ECE4A" id="DG-po" d="m165 243-1 1 1-1ZM291 243c1.747 0 2 .253 2 2l-2-2ZM164 244l-1 1 1-1ZM163 245l-1 1 1-1Z"/><path fill="#E64438" id="HY" d="m197 245-1 1 1-1ZM184 261c0-5.479 7.96 1 9 1l3.5-3c1.147-.574 4.5 1.064 4.5-1 0-2.139-1-4.033-1-7-3.301 0-4-1.771-4-5l-3 2c2.186 0 .387 3.726 0 4.5-2.358 4.716-10 6.406-10-.5-2.483 0-4.026-2-6-2 0 2.253 5.244 11 7 11ZM272 261c0-5.956-8.219 2-9 2 0-4.771-8-2.976-8-5l2-2.5-1-4.5c4.696 0 4-2.104 4-5l3 2c0 6.003 10 13.967 10 4 2.483 0 4.026-2 6-2 0 2.209-4.239 11-7 11Z"/><path fill="#FF4B3D" id="LM" d="M193 248c2.186 0 .387 3.726 0 4.5-2.358 4.716-10 6.406-10-.5 0-.473 8.784-4 10-4ZM263 248c1.45 0 10 3.238 10 4 0 9.967-10 2.003-10-4Z"/><path fill="#8AD987" id="CTXsp" d="M85 259c4.896 0 4.733 6 8 6l-2-3.5c-1.75-3.499 0-8.143 0-11.5l-5-1c0 1.423 1.978 3.544 1 5.5l-2 4.5ZM372 260c-6.493 0-5.855 3-7 3v-14l5 1c0 3.77 2 7.021 2 10Z"/><path fill="#60E6B5" id="COApm" d="m149 262-6.5 6c-3.17 3.17-20.85 18-23.5 18l-6-13.5V262c2.299 0 14.221-13.64 23.5-9 3.023 1.512 5.931 2.931 8.5 5.5l4 3.5Z"/><path fill="#7DCD4B" id="HPF" d="m169 253-1 1 1-1Z"/><path fill="#60E6B5" id="COApm" d="m308 262 6.5 6c6.172 3.086 15.304 17 22.5 17 5.727 0 6-20.502 6-24l-8.5-6c-7.866-3.933-13.978-1.511-21 2l-5.5 5Z"/><path fill="#FC4C3D" id="TMd" d="M225 264c-2.097 0-5.293 1-8 1v-6c3.454 0 4.112-5 8-5v5c0 1.424 1.762 5 0 5ZM231 264l8 1 1-5v-1c-3.331 0-4.796-5-8-5-1.579 0-1 2.855-1 4v6Z"/><path fill="#7DCD4B" id="HPF" d="m166 255-2 1 2-1ZM291 255l2 1-2-1Z"/><path fill="#A8A9AA" id="V3" d="m225 264 2 3.5c.684 1.367 2 9.203 2 2.5l2-6v-6l-3.5-2-2.5 3c0 1.424 1.762 5 0 5Z"/><path fill="#FF4B3B" id="PMv" d="M203 273c2.607 0 4.913 1 7 1l7-9v-5l-1-1c-2.128 0-5.608-1.054-7.5-2l-7.5 1c0 2.064-3.353.426-4.5 1l-3.5 3 2 5 7 6h1ZM254 273l-8 1c0-1.429-6.137-9-7-9l1-5 1-1 6.5-2 7.5 1c0 2.024 8 .229 8 5l-1 2-4 6-4 2Z"/><path fill="#59D9AA" id="PAA" d="m90 290-4 1c-3.337 0-14-2.575-14-7 0-4.327 8-12.606 8-20l1-1c1.365 0 4-2.366 4-4 4.896 0 4.733 6 8 6l1 5-4 20Z"/><path fill="#FF4C3E" id="TMv" d="M193 267h2l-2-5c-1.04 0-9-6.479-9-1 0 2.962 6.717 6 9 6Z"/><path fill="#E64438" id="HY" d="M217 259v1l-1-1h1ZM241 259l-1 1v-1h1Z"/><path fill="#FF4C3E" id="TMv" d="M262 265c0 1.747.253 2 2 2 2.421 0 8-3.446 8-6 0-5.956-8.219 2-9 2l-1 2Z"/><path fill="#59D9AA" id="PAA" d="m366 289 4 3c3.572 0 15-5.105 15-9-2.656 0-9-16.196-9-19l-1-1-3-3c-6.493 0-5.855 3-7 3 0 1.238-.423 3-2 3 0 1.048.473 3-1 3 0 6.938 4 12.821 4 20Z"/><path fill="#5FE6B7" id="COApl" d="M90 290v2c11.947 0 12.927 2.787 24.5-3l4.5-3-6-13.5V262c0-1.751-7.426-1-9-1l-7 5-3 4-4 20ZM366 289v3c-14.494 0-11.53 2.985-25.5-4l-3.5-3c5.727 0 6-20.502 6-24 3.642 0 8.002 1 11 1l6 4 2 3c0 6.938 4 12.821 4 20Z"/><path fill="#99D2BD" id="OLF" d="m81 263-1 1v-1h1Z"/><path fill="#8AD987" id="CTXsp" d="M363 265v1c1.577 0 2-1.762 2-3l-2 2Z"/><path fill="#99D2BD" id="OLF" d="m377 263-1 1-1-1h2Z"/><path fill="#FF5447" id="PVp" d="m210 277 3.5 2c4.977 2.488 12.799-1.1 17 1 3.752 1.876 12.139-3 15.5-3l1-1-1-2c0-1.429-6.137-9-7-9l-8-1-2 6c0 6.703-1.316-1.133-2-2.5l-2-3.5c-2.097 0-5.293 1-8 1l-7 9v3Z"/><path fill="#99D2BD" id="OLF" d="m97 266-3 4-1-5 4 1Z"/><path fill="#E64438" id="HY" d="M264 267c0 1.617-4.583 4-6 4l4-6c0 1.747.253 2 2 2Z"/><path fill="#99D2BD" id="OLF" d="M363 266c0 1.048.473 3-1 3l-2-3 3-1v1Z"/><path fill="#E64438" id="HY" d="m195 267 7 6c-2.103 0-9-3.18-9-6h2ZM258 271l-4 2c1.465 0 4 .109 4-2ZM210 274v3l-7-4c2.607 0 4.913 1 7 1ZM246 274l1 2c1.345 0 7-1.571 7-3l-8 1ZM247 276l-1 1 1-1Z"/><path fill="#99D2BD" id="OLF" d="M366 292h4l-4-3v3ZM86 291c0 1.579 2.855 1 4 1v-2l-4 1Z"/></svg>