<svg xmlns="http://www.w3.org/2000/svg" viewBox="0 0 456 320"><path fill="#FF64FF" id="MB" d="M187 46h3c1.048 0 3 .473 3-1-1.321 0-6-.684-6 1Z"/><path fill="#FE79FF" id="ICd" d="m201 103-3 2c0-1.023-17.061-17.378-12-27.5 1.848-3.695 4-16.157 4-20.5 0-1.406.714-7-1-7l1-4c1.048 0 3 .473 3-1h8c0 1.663 5.407 2 7 2h1c0 1.473 1.952 1 3 1h1l2 1 2 1c0 10.454.725 19.05-4 28.5-2.018 4.036-9 16.588-9 20.5-1.712 0-3 2.571-3 4Z"/><path fill="#FF64FF" id="MB" d="M201 45c1.296 0 7 .825 7 2-1.593 0-7-.337-7-2ZM255 45l-2 1 2-1Z"/><path fill="#FE79FF" id="ICd" d="m267 50-1 6.5c1.735 3.47 6.061 26.878 4 31-1.788 3.576-3.181 7.362-5 11l-7 6.5c-3.852 0-7.707-11.914-9-14.5-7.508-15.015-10-23.427-10-40.5l1-1h2l1-1h1c1.048 0 3 .473 3-1h2c1.048 0 3 .473 3-1h1l2-1h8c0 1.58 2.855 1 4 1v4Z"/><path fill="#FF64FF" id="MB" d="M267 46h2c0-1.684-4.679-1-6-1 0 1.58 2.855 1 4 1ZM184 46l-1 1 1-1Z"/><path fill="#FE79FE" id="ICe" d="M149 79c0 3.712-1.392 9.284-3 12.5-3.675 7.35 3.869 27.184 10.5 30.5 3.218 1.609 6.696 1 9.5 1l-3-4.5c-.72-1.44-3.576-21.848-3-23 2.447-4.893 2.539-11.077 5-16 2.817-5.634 7.152-10.304 10-16 2.232-4.464 9.563-13.5 14-13.5l1-4h-6l-1 1c-7.259 0-19.261 12-21 12l-1 1-2 3-1 1-1 1-1 1-1 2-1 1-1 2c0 1.238-.423 3-2 3 0 1.424-.362 5-2 5Z"/><path fill="#FF64FF" id="MB" d="M252 46c-1.048 0-3-.473-3 1 1.048 0 3 .473 3-1Z"/><path fill="#FE79FE" id="ICe" d="M303 71c0 1.198 5.103 11.706 6 13.5 5.291 10.583.199 33.151-10.5 38.5-2.377 1.188-6.787 0-8.5 0l5-9.5v-9l1-11c-5.471-10.943-7.045-23.045-16.5-32.5-2.821-2.821-6.999-11-12.5-11v-4h5l1 1c6.897 0 11.774 5.137 17.5 8l5.5 6 1 1 1 1 1 1v1l4 5v1Z"/><path fill="#FF64FF" id="MB" d="m272 46 1 1-1-1ZM209 47c1.048 0 3-.473 3 1-1.048 0-3 .473-3-1ZM247 47c-1.048 0-3-.473-3 1 1.048 0 3 .473 3-1ZM213 48l2 1-2-1ZM243 48l-1 1 1-1ZM240 49l-1 1 1-1Z"/><path fill="#FE7AFE" id="ICc" d="M177 123h2l1-1 6-3 7-7 1-1 1-1 1-1 1-1 1-1v-2c0-1.023-17.061-17.378-12-27.5 1.848-3.695 4-16.157 4-20.5 0-1.406.714-7-1-7-4.437 0-11.768 9.036-14 13.5-2.848 5.696-7.183 10.366-10 16-2.461 4.923-2.553 11.107-5 16-.576 1.152 2.28 21.56 3 23l3 4.5 8 1c0-1.473 1.952-1 3-1Z"/><path fill="#FF64FF" id="MB" d="M268 119h3c0-1.035-13-10.775-13-14-3.852 0-7.707-11.914-9-14.5-7.508-15.015-10-23.427-10-40.5-3.707 0-8.473 6.446-10 9.5l-.5 3.5-1.5-4.5c-1.629-3.259-6.15-8.5-10-8.5 0 10.454.725 19.05-4 28.5-2.018 4.036-9 16.588-9 20.5 4.227 0 4.82-9.14 6-11.5 2.45-4.9 5.575-13.537 11.5-16.5 2.232-1.116 5.397 1 7 1 1.388 0 3.972-2.014 6-1 9.04 4.52 10.591 16.681 14.5 24.5 2.22 4.44 8.14 8.28 10 12l9 11.5Z"/><path fill="#FE7AFE" id="ICc" d="M279 123h11l5-9.5v-9l1-11c-5.471-10.943-7.045-23.045-16.5-32.5-2.821-2.821-6.999-11-12.5-11l-1 6.5c1.735 3.47 6.061 26.878 4 31-1.788 3.576-3.181 7.362-5 11l-7 6.5c0 3.225 13 12.965 13 14l2 1 1 1h1l1 1h1l1 1h1Z"/><path fill="#FF64FF" id="MB" d="m162 59-1 1 1-1ZM296 61l1 1-1-1ZM159 63l-1 1 1-1ZM298 63l1 1-1-1ZM158 64l-1 1 1-1ZM157 65l-1 1 1-1ZM299 65c1.533 0 4 3.753 4 5l-4-5ZM155 68l-1 1 1-1ZM154 69l-1 2 1-2ZM151 72v2c1.577 0 2-1.762 2-3l-2 1Z"/><path fill="#FC8FFF" id="PAG" fill-rule="evenodd" d="M257 152h5l1-3v-1l2-1c0-1.048-.473-3 1-3l1-1c0-1.238.423-3 2-3v-5l1-9.5-2-6.5-9-11.5c-1.86-3.72-7.78-7.56-10-12-3.909-7.819-5.46-19.98-14.5-24.5-2.028-1.014-4.612 1-6 1-1.603 0-4.768-2.116-7-1-5.925 2.963-9.05 11.6-11.5 16.5-1.18 2.36-1.773 11.5-6 11.5 0 1.429-1.288 4-3 4 0 1.429-1.288 4-3 4l-1 1-1 1-1 1-1 1-1 1c0 2.83-4 4.54-4 7l-2 2.5V136l1 4 1 2 1 1v1l1 1v1l2 1c0-4.137 6.113 1 0 1v1c1.473 0 1 1.952 1 3h5l4.5-4c1.102-.551 6.5-1.574 6.5 0h3c4.032 0 9.88 4 12 4v-1l-4-4c-1.48 0-10-4.971-10-6-4.153 0-2.527-1.513-5.5-3-2.77-1.385-12.939.379-8.5-8.5l4.5-5.5c1.046-.523 3.5.951 3.5-1 0-6.381 16.85-30 23.5-30l4 4c7.982 3.991 18.5 16.825 18.5 26 5.124 0 10.811 7.879 8 13.5-1.446 2.892-6.25.375-8.5 1.5-2.973 1.487-1.347 3-5.5 3 0 1.375-7.649 6-9 6l-1 2 9-1h3c0-1.442 10 .532 10 4m6-4c0-6.072-4.238 0 0 0Z"/><path fill="#FF64FF" id="MB" d="M308 125c-3.47 0-5.278 3-8 3 0-3.065-12.749-3-15.5-3-1.21 0-5.5-.814-5.5-2h11c1.713 0 6.123 1.188 8.5 0 10.699-5.349 15.791-27.917 10.5-38.5-.897-1.794-6-12.302-6-13.5l2 1c0 .257 7.249 18.998 8 20.5.898 1.796-1.658 7.5 2 7.5l-1 5v4c-1.643 0-1 3.765-1 5 0 4.153-4 6.085-4 9l-1 1v1Z"/><path fill="#C9C8C8" id="bic" d="M149 79c-1.411 0-4.853 14.207-6 16.5-.574 1.147 1.064 4.5-1 4.5 0-4.613 3.086-28 9-28v2c-2.461 0-2 3.378-2 5ZM305 72c5.403 0 10 22.509 10 28-3.658 0-1.102-5.704-2-7.5-.751-1.502-8-20.243-8-20.5Z"/><path fill="#FF64FF" id="MB" d="M151 74c-2.461 0-2 3.378-2 5 1.638 0 2-3.576 2-5ZM174 124c0 2.741-11.185 1-12.5 1l-5.5 3-8-4-5-9v-8l-1-1v-6c2.064 0 .426-3.353 1-4.5 1.147-2.293 4.589-16.5 6-16.5 0 3.712-1.392 9.284-3 12.5-3.675 7.35 3.869 27.184 10.5 30.5 3.218 1.609 6.696 1 9.5 1l8 1Z"/><path fill="#A9A9A8" id="AQ" d="m205 123 4.5-4c5.269-2.634 12.235 2.118 16 4 3.039 1.52 9.027-2.514 12-4 5.843-2.921 10.957 4 13.5 4 0-9.175-10.518-22.009-18.5-26l-4-4c-6.65 0-23.5 23.619-23.5 30Z"/><path fill="#FDFB8F" id="SIM" fill-rule="evenodd" d="M109 160c0 3.746 2.091 0 0 0m1-3c0 3.746 2.091 0 0 0m1-4c0 5.567 2.112 0 0 0m1-2c0 3.746 2.091 0 0 0m1-3c0 3.746 2.091 0 0 0m-7 23h5c0-.48 9.724-7.947 11-10.5l11-27 8-10.5 1-2v-4l1-1v-9l-1-1v-2l-10.5-8c-3.415-1.707-8.447 3.724-11 5-5.284 2.642-18.253 22.007-21.5 28.5-3.67 7.34-5.84 23.32-2 31l4 4c.724 1.448 2.768 6.5 5 6.5ZM343 150c0 2.067 3.825 10.849 4 10.5.591-1.181-2.796-10.5-4-10.5m-1-3c0 1.93 1.93 0 0 0m3 24 2.5-2c1.045 0 1.861 2 3.5 2l4.5-6c8.586-8.586 6.356-26.788 1.5-36.5-3.388-6.776-16.444-24.972-21.5-27.5-2.453-1.226-6.67-6.665-10-5-3.085 1.543-5.821 2.821-8.5 5.5l-3 3.5v9l1 9c2.009 0 6.145 7.789 7 9.5 4.795 9.589 8.245 19.49 13 29l10 9.5Z"/><path fill="#FF64FF" id="MB" d="M204 99c-1.712 0-3 2.571-3 4 1.712 0 3-2.571 3-4ZM198 105v2c1.712 0 3-2.571 3-4l-3 2Z"/><path fill="#F0F080" id="CB" d="m142 106 1 1-1-1Z"/><path fill="#FF64FF" id="MB" d="m198 107-1 1 1-1ZM197 108l-1 1 1-1ZM196 109l-1 1 1-1Z"/><path fill="#F0F080" id="CB" d="M313 114h1v-5c-1.643 0-1 3.765-1 5Z"/><path fill="#FF64FF" id="MB" d="m195 110-1 1 1-1ZM194 111l-1 1 1-1ZM186 119h3c0-2.46 4-4.17 4-7l-7 7Z"/><path fill="#31B625" id="ENTm1" d="M77 113c0 2.705-17.646 24.927-5.5 31 .784.392 5.03-1.562 5.5-2.5 3.047-6.094 11.786-28.5 0-28.5ZM375 113c0 4.018-2.103 8.293 0 12.5 1.879 3.758 1.091 9.182 3 13 2.844 5.688 7.876 7.249 11 1 3.145-6.29-6.516-26.5-14-26.5Z"/><path fill="#F0F080" id="CB" d="m143 116-1 1 1-1Z"/><path fill="#FC90FF" id="CUN" d="M170 143h1c0-1.579 2.855-1 4-1h2l2-1h2l2-1 2-1c0-1.238.423-3 2-3v-14.5l2-2.5h-3l-6 3-1 1h-2c0 1.473-1.952 1-3 1 0 2.741-11.185 1-12.5 1l-5.5 3c0 8.045 5.64 15 14 15Z"/><path fill="#FDFA91" id="CENT2" d="M211 141c2.382 0 14.748-4.376 15.5-4 1.962.981 15.227 4 18.5 4 4.153 0 2.527-1.513 5.5-3 2.25-1.125 7.054 1.392 8.5-1.5 2.811-5.621-2.876-13.5-8-13.5-2.543 0-7.657-6.921-13.5-4-2.973 1.486-8.961 5.52-12 4-3.765-1.882-10.731-6.634-16-4l-4.5 4c0 1.951-2.454.477-3.5 1l-4.5 5.5c-4.439 8.879 5.73 7.115 8.5 8.5 2.973 1.487 1.347 3 5.5 3Z"/><path fill="#FC90FF" id="CUN" d="M285 143h1c9.212 0 14-7.375 14-15 0-3.065-12.749-3-15.5-3-1.21 0-5.5-.814-5.5-2h-1l-1-1h-1l-1-1h-1l-1-1-2-1h-3l2 6.5-1 9.5 3 4 1 1h2l1 1h2l3 1c1.145 0 4-.579 4 1Z"/><path fill="#FF64FF" id="MB" d="m273 120 1 1-1-1Z"/><path fill="#F0F080" id="CB" d="M141 123h1v-2l-1 2Z"/><path fill="#FF64FF" id="MB" d="m275 121 1 1-1-1ZM180 122l-1 1 1-1ZM277 122l1 1-1-1Z"/><path fill="#FCFB90" id="CUL4, 5" fill-rule="evenodd" d="m136 156-1 2.5c-2.811 5.623 5.522-2.5 1-2.5m1-3c0 3.746 2.091 0 0 0m-26 18c6.013 0 10.756 1.872 16.5-1l7-9c.979 0-2.423 8.654-1.5 10.5 3.421 6.842 5.678 6.5 12 6.5 0-6.305 9-11.288 9-17l1-1v-3c0-6.679 3.049-15.402 0-21.5l-6-10-3-2.5h-5l-8 10.5-11 27c-1.276 2.553-11 10.02-11 10.5Z"/><path fill="#F0F080" id="CB" d="M157 157h1l1-2c0-2.664 5.336-8 8-8 0-2.618 3-1.651 3-4-8.36 0-14-6.955-14-15l-8-4-2-1 3 2.5 6 10c3.049 6.098 0 14.821 0 21.5h2Z"/><path fill="#FF64FF" id="MB" d="M177 123c-1.048 0-3-.473-3 1 1.048 0 3 .473 3-1Z"/><path fill="#F0F080" id="CB" d="m311 123-2 1v-1h2Z"/><path fill="#FCFB90" id="CUL4, 5" d="M302 161c0 2.521 11.605 19.948 15.5 18 4.305-2.153 7.517-9.466 5.5-13.5-.411-.821-5.24-10.5-3.5-10.5l6 12c8.941 4.47 8.892 4 19.5 4l-10-9.5c-4.755-9.51-8.205-19.411-13-29-.855-1.711-4.991-9.5-7-9.5h-4l-2 1-1 1c0 .55-7.024 12.549-8 14.5-1.418 2.837.804 11.608 2 14 .472.945.156 3.5-1 3.5l1 4Z"/><path fill="#F0F080" id="CB" d="m309 124-1 1v-1h1ZM301 157l-1 1-5.5-8-8.5-7c9.212 0 14-7.375 14-15 2.722 0 4.53-3 8-3 0 .55-7.024 12.549-8 14.5-1.418 2.837.804 11.608 2 14 .472.945.156 3.5-1 3.5Z"/><path fill="#FF64FF" id="MB" d="M269 139h3l-3-4v4ZM187 140h1l-1-4c-1.577 0-2 1.762-2 3h1l1 1Z"/><path fill="#A9A9A8" id="AQ" d="M221 147h15c1.351 0 9-4.625 9-6-3.273 0-16.538-3.019-18.5-4-.752-.376-13.118 4-15.5 4 0 1.029 8.52 6 10 6Z"/><path fill="#FF9B88" id="P" d="m185 139-2 1 2-1Z"/><path fill="#FFAD6D" id="PB" d="M153 180h1l9-8.5c4.518-4.518 11.499-7.5 17.5-10.5l7.5-9c0-1.274 3-2.933 3-6v-1l-1-1v-1l-1-1-1-2h-1l-1-1h-1l-2 1-2 1h-1l-1 1h-1l-1 1h-2l-1 1-1 1-3 3-1 1-2 3-1 1-1 1-1 1-1 1-1 1-1 1-1 1c0 3.677-11 11.773-11 18l4 3Z"/><path fill="#FF9B88" id="P" d="m186 139 1 1-1-1ZM269 140h4l-1-1h-3v1ZM183 140l-2 1 2-1Z"/><path fill="#FFAD6D" id="PB" d="M302 180h1c2.364 0 3.053-3 5-3 0-6.005-13-15.767-13-19l-1-1-1-1-1-1-1-1-3-4-5-5-2-2h-2l-2-2h-2l-1-1h-5c-1.577 0-2 1.762-2 3l-1 1c0 1.048.473 3-1 3 0 2.364 3 3.053 3 5 4.611 0 3.654 7.077 7.5 9 6.275 3.138 12.578 5.578 18 11l8.5 8Z"/><path fill="#FF9B88" id="P" d="M275 140v1l-1-1h1Z"/><path fill="#FF64FF" id="MB" d="M275 141h1l-1-1v1ZM178 142h1v-1l-2 1h1Z"/><path fill="#FF9B88" id="P" d="m180 141-1 1v-1h1ZM278 141l1 2-2-2h1Z"/><path fill="#FF64FF" id="MB" d="M279 143h2v-1l-3-1 1 2Z"/><path fill="#F0F080" id="CB" d="M173 144h1l1-1v-1c-1.145 0-4-.579-4 1l2 1Z"/><path fill="#FF64FF" id="MB" d="M175 143h2v-1h-2v1Z"/><path fill="#FF9B88" id="P" d="m178 142-1 1v-1h1ZM189 142l1 1-1-1Z"/><path fill="#F0F080" id="CB" d="m285 143-2 1-2-1v-1c1.145 0 4-.579 4 1Z"/><path fill="#CBC9CC" id="arb" d="M167 147c1.048 0 3-.473 3 1l3-3v-1l-2-1h-1c0 2.349-3 1.382-3 4Z"/><path fill="#FF9B88" id="P" d="m267 143-1 1 1-1ZM283 144v1l-2-2 2 1Z"/><path fill="#CBC9CC" id="arb" d="m335 201 4 3c2.75 0 6.442 4.529 9.5 3 3.047-1.523-4.48-4.74-5-5-3.898-1.949-8.5-6.902-8.5-12l1-1c0-4.973 15-12.751 15-17v-1c-1.639 0-2.455-2-3.5-2l-2.5 2c-10.608 0-10.559.47-19.5-4l-6-12c-1.74 0 3.089 9.679 3.5 10.5 2.017 4.034-1.195 11.347-5.5 13.5-3.895 1.948-15.5-15.479-15.5-18l-2-3-5.5-8-8.5-7h-1l-2 1v1l5 5-2-3.5 3.5 1.5c3.22 3.22 5.541 4.582 7.5 8.5l3.5 5.5c-1.861 0-2.957-4-5.5-4 0 3.233 13 12.995 13 19 3.153 0 4.304 5 7 5l2-1 2-1 1-1c2.848 0 5.089-3.794 7.5-5 1.653-.826 3.81.405 5 1h4c6.082 3.041-5.5 11.492-5.5 14 0 3.526 2 8.954 2 10h1l1 1v1Z"/><path fill="#FF9B88" id="P" d="m174 144-1 1v-1h1ZM190 144l1 1-1-1ZM266 144c-1.473 0-1 1.952-1 3 1.473 0 1-1.952 1-3Z"/><path fill="#C8C9C8" id="IVn" d="M193 147v1c6.113 0 0-5.137 0-1ZM263 148c0-6.072-4.238 0 0 0Z"/><path fill="#FF9B88" id="P" d="m188 152 3 1 2-4v-2l-2-1c0 3.067-3 4.726-3 6Z"/><path fill="#AAA9A7" id="V4" d="M229 152h2l1-1c0-1.577 1.762-2 3-2l1-2h-15l4 4 3 1h1Z"/><path fill="#CBC7CC" id="sctv" d="m294 157 1 1c2.543 0 3.639 4 5.5 4l-3.5-5.5c-1.959-3.918-4.28-5.28-7.5-8.5l-3.5-1.5 2 3.5 3 4 1 1 1 1 1 1Z"/><path fill="#CBC9CC" id="arb" d="M167 147c-2.664 0-8 5.336-8 8l8-8Z"/><path fill="#CBC7CC" id="sctv" d="m161 158-1 1c-1.747 0-2-.253-2-2l1-2 8-8c1.048 0 3-.473 3 1l-1 1-2 3-1 1-1 1-1 1-1 1-1 1-1 1Z"/><path fill="#FFBA84" id="PCG" d="M199 152v2c3.79 0 6.935-6 11-6 0-1.574-5.398-.551-6.5 0l-4.5 4ZM257 152l1 3c-3.463 0-6.82-7-11-7 0-1.442 10 .532 10 4Z"/><path fill="#FF9B88" id="P" d="m268 152-3 1c0-1.465.109-4-2-4v-1l2-1c0 2.364 3 3.053 3 5Z"/><path fill="#CBC9CC" id="arb" d="M342 147c0 1.93 1.93 0 0 0ZM113 148c0 3.746 2.091 0 0 0ZM170 148l-1 1 1-1Z"/><path fill="#FEC395" id="LDT" d="M193 171v3c2.72 0 5.79 4.855 9.5 3 2.029-1.015 7.42-8 8.5-8v-2c0-1.048-.473-3 1-3v-1l1-2c0-3.108.737-4.973 2-7.5l-2-5.5h-3c-4.065 0-7.21 6-11 6v1l-1 1v1l-1 1c0 3.68-2 5.511-2 9l-1 1v2l-1 1Z"/><path fill="#FFBA84" id="PCG" d="M228 165h1v-4c-.496 0-4-8.025-4-9-2.12 0-7.968-4-12-4l2 5.5c-1.263 2.527-2 4.392-2 7.5l4.5-5c5.168-2.584 10.5 5.148 10.5 9ZM229 161c2.835 0 4.422-7.539 9.5-5 2.398 1.199 5.711 9 6.5 9 0-3.385-1.581-6.663-3-9.5-1.65-3.301 2-6.145 2-7.5l-9 1c0 1.577-1.762 2-3 2l-1 1c0 2.846-2 5.382-2 9Z"/><path fill="#FEC395" id="LDT" d="M263 169v6c-4.34 0-6.701 3.4-11.5 1-2.398-1.199-5.711-9-6.5-9v-2c0-3.385-1.581-6.663-3-9.5-1.65-3.301 2-6.145 2-7.5h3c4.18 0 7.537 7 11 7v1l1 1c0 3.68 2 5.511 2 9l1 1v1l1 1Z"/><path fill="#FF79FE" id="MEV" d="M191 153c0 3.162-.109 2 2 2 0-1.048-.473-3 1-3 0-1.048.473-3-1-3l-2 4Z"/><path fill="#FC8FFF" id="PAG" d="M235 149c-1.238 0-3 .423-3 2 1.238 0 3-.423 3-2Z"/><path fill="#FF79FE" id="MEV" d="M265 153c0 1.013-1 4.408-1 2l-2-3 1-3c2.109 0 2 2.535 2 4Z"/><path fill="#CBC9CC" id="arb" d="M343 150c0 2.067 3.825 10.849 4 10.5.591-1.181-2.796-10.5-4-10.5ZM112 151c0 3.746 2.091 0 0 0Z"/><path fill="#FF9B88" id="P" d="M231 152c0 2.846-2 5.382-2 9-.496 0-4-8.025-4-9v-1l3 1c0 1.186 1 1.186 1 0h2ZM232 151l-1 1 1-1Z"/><path fill="#CBC9CC" id="arb" d="m167 152-1 1 1-1Z"/><path fill="#CBC9CB" id="scp" d="M155 181h2c8.738 0 20.37-18 28-18h3l1-1c0-4.799 3.154-2 4-2v-5c-2.109 0-2 1.162-2-2l-3-1-7.5 9c-6.001 3-12.982 5.982-17.5 10.5l-9 8.5v1h1Z"/><path fill="#FF9B88" id="P" d="M222 205c3.189 0-1.952-8.226 4.5-5 2.162 1.081 1.069 11 2 11l.5-10.5c2.218-4.435 5 2.085 5 4.5 2.144 0 .381-4.262 1-5.5.835-1.669 4 .075 4 1.5l6.5-5c9.794-4.897 25.5-10.595 25.5 6 2.028 0 2.014-5 6-5 0-1.284-3.47-2.561-2-5.5 2.708-5.416 10.791-4.5 16-4.5 0-2.791-16.757-5.628-19.5-7-4.034-2.017.5-13.777.5-17l-5-1v1c6.839 0-2 12.797-2 4v-3l-1-2c-1.602 0-1.602-7 0-7l-2-3h-5l1 3v1l1 1c0 3.68 2 5.511 2 9l1 1v1l1 1v6c0 2.729-12.51 16-15 16l-5.5 4c-2.014 1.007-9.589 4.206-12 3l-2-2c-6.136 0-1.907 4.047-12-1-1.637-.819-7.5-1.175-7.5-4-3.432 0-16-12.74-16-17v-3l1-1v-2l1-1c0-3.489 2-5.32 2-9l1-1v-1l1-1v-3h-5c-1.473 0-1 1.952-1 3v6l-1 2c0 1.145.579 4-1 4 0 2.381-2.526 4.447-4 1.5l1-5.5h-3c0 4.585 3.637 15.432-1.5 18-2.455 1.227-18.5 3.155-18.5 6 7.125 0 12.938-.624 16 5.5l1 2-3 2.5c4.067 0 6 3.242 6 7 .952 0 1.016-11.258 4.5-13 4.258-2.129 21.274 5.137 25 7l4.5 6c0-9.246 3-5.276 3 1Z"/><path fill="#FF64FF" id="MB" d="M228 152h1c0 1.186-1 1.186-1 0Z"/><path fill="#CBC9CB" id="scp" d="M299 181h3v-1l-8.5-8c-5.422-5.422-11.725-7.862-18-11-3.846-1.923-2.889-9-7.5-9l-3 1c0 1.013-1 4.408-1 2-1.602 0-1.602 7 0 7 0-3.866 3-3.493 3 0l5 1c6.095 0 19.16 18 27 18Z"/><path fill="#CBC9CC" id="arb" d="M111 153c0 5.567 2.112 0 0 0ZM137 153c0 3.746 2.091 0 0 0ZM165 154l-1 1 1-1ZM291 154l1 1-1-1ZM159 155l-1 2 1-2ZM164 155l-1 1 1-1Z"/><path fill="#FFBA84" id="PCG" d="m199 155-1 1 1-1Z"/><path fill="#CBC9CC" id="arb" d="m136 156-1 2.5c-2.811 5.623 5.522-2.5 1-2.5ZM163 156l-1 1 1-1Z"/><path fill="#FEB985" id="DTN" d="M228 167c0 11.764-17 12.244-17 2v-2c1.473 0 1-1.952 1-3v-1l1-2 4.5-5c5.168-2.584 10.5 5.148 10.5 9v2ZM229 167c0 12.388 16 12.065 16 0v-2c-.789 0-4.102-7.801-6.5-9-5.078-2.539-6.665 5-9.5 5v6Z"/><path fill="#FFBA84" id="PCG" d="m258 156 1 1-1-1Z"/><path fill="#CBC9CC" id="arb" d="m293 156 1 1-1-1ZM110 157c0 3.746 2.091 0 0 0Z"/><path fill="#FFFC8E" id="CENT3" d="M155 159h1l1-1v-1h-2v2Z"/><path fill="#CBC9CC" id="arb" d="m149 177-4 1c0-6.305 9-11.288 9-17l1-1h1v-1h1v-2h1c0 1.747.253 2 2 2 0 3.677-11 11.773-11 18ZM162 157l-1 1 1-1Z"/><path fill="#FFBA84" id="PCG" d="m198 157-1 1 1-1Z"/><path fill="#FFFC8E" id="CENT3" d="m300 158 2 3-1-4-1 1Z"/><path fill="#F0F080" id="CB" d="M156 159h1v-1l-1 1Z"/><path fill="#CBC9CC" id="arb" d="m161 158-1 1 1-1Z"/><path fill="#FF79FE" id="MEV" d="M192 163c0 1.145.579 4-1 4 0-2.177.641-4-2-4v-1c0-4.799 3.154-2 4-2v1l-1 2Z"/><path fill="#F0F080" id="CB" d="M155 160h1v-1h-1v1Z"/><path fill="#FF79FE" id="MEV" d="m267 163-2 1-1-2c0-3.866 3-3.493 3 0v1Z"/><path fill="#CBC9CC" id="arb" d="M109 160c0 3.746 2.091 0 0 0Z"/><path fill="#FFFC8E" id="CENT3" d="m155 160-1 1 1-1Z"/><path fill="#CBC9CC" id="arb" d="m121 201-4 4-8.5 2c-1.132-.566.344-3.672 1-4 5.32-2.66 11.5-5.752 11.5-13 0-6.823-15-11.561-15-18v-1h5c6.013 0 10.756 1.872 16.5-1l7-9c.979 0-2.423 8.654-1.5 10.5 3.421 6.842 5.678 6.5 12 6.5 0 1.429-1.288 4-3 4h-1l-1-1-4-2-6.5-5c-1.653-.826-3.81.405-5 1h-4c-6.523 3.261 4.5 11.031 4.5 14l1 5.5-3 4.5-1 1-1 1Z"/><path fill="#CBC9CB" id="scp" d="m193 161-1 2 1-2Z"/><path fill="#FFBA84" id="PCG" d="m213 161-1 2 1-2Z"/><path fill="#FF9B88" id="P" d="M188 163h1v-1l-1 1Z"/><path fill="#FFAD6D" id="PB" d="m165 187-4 1-4-1v-6c8.738 0 20.37-18 28-18 0 4.585 3.637 15.432-1.5 18-2.455 1.227-18.5 3.155-18.5 6ZM189 163c2.641 0 2 1.823 2 4 0 2.381-2.526 4.447-4 1.5l1-5.5h1ZM267 163c6.839 0-2 12.797-2 4v-3l2-1ZM294 188h1c2.554 0 3.688-3 5-3v-2l-1-2c-7.84 0-20.905-18-27-18 0 3.223-4.534 14.983-.5 17 2.743 1.372 19.5 4.209 19.5 7h2l1 1Z"/><path fill="#FFBA84" id="PCG" d="M212 164c-1.473 0-1 1.952-1 3 1.473 0 1-1.952 1-3Z"/><path fill="#FF9B88" id="P" d="M228 167h1v-2h-1v2Z"/><path fill="#FFBA84" id="PCG" d="m261 166 1 1-1-1ZM195 167l-1 1 1-1ZM209 191c0-4.182 9.646-1.573 12.5-3 4.01-2.005 1.05-13 7-13 6.148 0 1.964 10.482 5 12 2.295 1.148 14.5.718 14.5 4 2.49 0 15-13.271 15-16-4.34 0-6.701 3.4-11.5 1-2.398-1.199-5.711-9-6.5-9 0 12.065-16 12.388-16 0h-1c0 11.764-17 12.244-17 2-1.08 0-6.471 6.985-8.5 8-3.71 1.855-6.78-3-9.5-3 0 4.26 12.568 17 16 17ZM262 168l1 1-1-1ZM194 170l-1 1 1-1Z"/><path fill="#FFFC8D" id="PFL" d="M95 187c3.457 0 8.643-3.928 12.5-2 3.529 1.764 9.458 5 13.5 5 0-6.823-15-11.561-15-18-8.508 0-23.212 15-11 15ZM362 187c-3.644 0-9.569-3.966-13.5-2-4.134 2.067-7.393 4-12.5 4 0-4.973 15-12.751 15-17 8.581 0 22.126 15 11 15Z"/><path fill="#CCCCCA" id="mcp" d="M125 189c3.036 0 1.095 5 5 5l9-9 1-1 1-1v-1l-1-1c-1.465 0-4 .109-4-2l-6.5-5c-1.653-.826-3.81.405-5 1h-4c-6.523 3.261 4.5 11.031 4.5 14ZM331 189l-4 5-12-11v-1l2-1 2-1 1-1c2.848 0 5.089-3.794 7.5-5 1.653-.826 3.81.405 5 1h4c6.082 3.041-5.5 11.492-5.5 14Z"/><path fill="#FEC294" id="NI" d="M209 191c0 2.825 5.863 3.181 7.5 4 10.093 5.047 5.864 1 12 1l2 2c2.411 1.206 9.986-1.993 12-3l5.5-4c0-3.282-12.205-2.852-14.5-4-3.036-1.518 1.148-12-5-12-5.95 0-2.99 10.995-7 13-2.854 1.427-12.5-1.182-12.5 3Z"/><path fill="#FEAD6E" id="KF" d="M139 192c2.566 0 12-5.228 12 1 3.795 0 3.903-6 6-6v-2l-2-4h-1l-1-1-4-3-4 1c0 1.429-1.288 4-3 4l-1 1-1 1-1 1c0 1.296-2.322 7 0 7ZM317 192c-1.757 0-12-5.449-12 1-3.784 0-5-4.992-5-8v-2l2-2 1-1c2.364 0 3.053-3 5-3 3.153 0 4.304 5 7 5v1c0 1.156 7.302 9 2 9Z"/><path fill="#F0F080" id="CB" d="m136 179 4 2c-1.465 0-4 .109-4-2ZM320 179l-1 1 1-1Z"/><path fill="#FF9B88" id="P" d="M154 180v1l-1-1h1ZM303 180l-1 1v-1h1Z"/><path fill="#F0F080" id="CB" d="m319 180-2 1 2-1Z"/><path fill="#FF9B88" id="P" d="M157 181v4l-2-4h2ZM302 181l-2 2-1-2h3ZM142 182l-1 1v-1h1ZM141 183l-1 1 1-1ZM325 213l-4 2c0-4.681 6.849-9.801 4-15.5l-8-7.5c5.302 0-2-7.844-2-9l12 11v5l1 10-3 4ZM140 184l-1 1 1-1Z"/><path fill="#FEF991" id="FL" d="m107 227-4 3c-4.643 0-8.226-4.951-10-8.5-1.64-3.281-6.828-6.655-9-11-3.876-7.752 11-20.887 11-23.5 3.457 0 8.643-3.928 12.5-2 3.529 1.764 9.458 5 13.5 5 0 7.248-6.18 10.34-11.5 13-.656.328-2.132 3.434-1 4l8.5-2 1 2-1 1v2l-1 1-1 2v1l-1 1-2 5-1 1-3 5-1 1Z"/><path fill="#FF9B88" id="P" d="M132 213c4.182 0 4.407 10 7 10 0-6.274-5.336-13.172-8-18.5-2.988-5.976 8-8.739 8-12.5-2.322 0 0-5.704 0-7l-9 9-1 4v9c0 1.999.067 6 3 6ZM300 199c2.25 0 3.376 2 5 2v-8c-3.784 0-5-4.992-5-8-1.312 0-2.446 3-5 3l4 3.5 1 7.5Z"/><path fill="#FEF991" id="FL" d="m349 227 4 3c3.68 0 7.444-3.388 9-6.5 1.782-3.565 13.676-11.648 11-17l-4-10c-1.643-3.286-7-5.355-7-9.5-3.644 0-9.569-3.966-13.5-2-4.134 2.067-7.393 4-12.5 4l-1 1c0 5.098 4.602 10.051 8.5 12 .52.26 8.047 3.477 5 5-3.058 1.529-6.75-3-9.5-3v6l1 1 1 1v1l1 1v1l1 1c0 1.048-.473 3 1 3l1 1v1l1 1 1 2 2 2v1Z"/><path fill="#FF9B88" id="P" d="M158 201c-1.74 0-6-4.86-6 2-1.763 0-1-8.343-1-10 3.795 0 3.903-6 6-6l4 1c0 2.568-10.385 11-3 11v2Z"/><path fill="#FEBA86" id="SUT" d="M175 197h4l3-2.5-1-2c-3.062-6.124-8.875-5.5-16-5.5l-4 1c0 2.568-10.385 11-3 11l5.5-3 10.5 1h1ZM298 199h2l-1-7.5-4-3.5h-1l-1-1h-2c-5.209 0-13.292-.916-16 4.5-1.47 2.939 2 4.216 2 5.5h5l10.5-1c1.046.523 5.292 3 5.5 3Z"/><path fill="#FF9B88" id="P" d="m293 187 1 1-1-1Z"/><path fill="#F0F080" id="CB" d="m129 198-6 1 3-4.5-1-5.5c3.036 0 1.095 5 5 5l-1 4ZM327 199h6c0-1.046-2-6.474-2-10l-4 5v5Z"/><path fill="#FFFC8D" id="PFL" d="m336 189-1 1 1-1Z"/><path fill="#FFAE6F" id="PSV" d="M142 255c2.46 0 4.17 4 7 4 4.935 0 7-3.414 7-8l-1-17c-2.896 0-2-8.797-2-11l-1-20c-1.763 0-1-8.343-1-10 0-6.228-9.434-1-12-1 0 3.761-10.988 6.524-8 12.5 2.664 5.328 8 12.226 8 18.5v2c1.602 0 1.602 7 0 7v3c0 1.048.473 3-1 3v3l-1 1v3l1 2 1 4 2 2v1l1 1ZM312 257l-5 2c-6.764 0-6.066-8-7-8l1-16c2.983 0 2-9.707 2-12 0-7.504 2-14.186 2-22v-8c0-6.449 10.243-1 12-1l8 7.5c2.849 5.699-4 10.819-4 15.5-2.109 0-2 2.535-2 4-1.995 0-2 4.377-2 6v7c0 1.145-.579 4 1 4v3l1 1v7l-1 2-1 2-2 3-1 1-1 1-1 1Z"/><path fill="#FDBA86" id="PRNc" d="M201 274h1c0-1.473 1.952-1 3-1h2l1-1 1-1c0-4.262 15-12.985 15-20l-2-10c-5.057 0-6.109-15.717-8-19.5-.44-.88-2.216-5.642-.5-6.5 6.146-3.073 4.808 10 7.5 10v-15.5l-2-4.5v-1l-4.5-6c-3.726-1.863-20.742-9.129-25-7-3.484 1.742-3.548 13-4.5 13v13c0 12.639-1 24.8-1 37v8c0 3.773 5 8.066 5 9l6 3h6ZM255 274h7l4-2 1-1c0-.562 5-4.361 5-9 0-1.819 1-4.591 1-7-1.758 0-1-7.884-1-9.5l-1-29.5v-14c0-16.595-15.706-10.897-25.5-6l-6.5 5-1 2v1l-1 1v1l-2 5.5V227c2.718 0 .984-15.258 7.5-12 2.024 1.012-3.088 17.676-4.5 20.5-.736 1.473.385 4.557-1.5 5.5l-2.5-1-2 11 2.5 5c2.429 2.429 12.5 14.043 12.5 15 1.238 0 3 .423 3 2h1c1.048 0 3-.473 3 1h1Z"/><path fill="#FEB986" id="V" d="M159 221c1.946 0 5.036 5.232 7.5 4l4.5-4 4-7.5c2.36-4.72 0-10.791 0-15.5l-1-1-10.5-1-5.5 3v2l-1 14.5 2 5.5ZM285 221l5.5 4 6.5-3c0-2.592.958-3.416 2-5.5 1.733-3.465 0-13.767 0-16.5l-1-1c-.208 0-4.454-2.477-5.5-3l-10.5 1-1 1c0 4.602-2.102 10.296 0 14.5l4 8.5Z"/><path fill="#FF9B88" id="P" d="M175 197v1l-1-1h1Z"/><path fill="#FEB886" id="P5" d="m185 217-6.5 6c-1.65.825-7.5.268-7.5-2l4-7.5c2.36-4.72 0-10.791 0-15.5v-1h4c4.067 0 6 3.242 6 7v13ZM271 216l3.5 5c1.927.964 10.5 4.526 10.5 0l-4-8.5c-2.102-4.204 0-9.898 0-14.5v-1h-4c-3.986 0-3.972 5-6 5v14Z"/><path fill="#FF9B88" id="P" d="m282 197-1 1v-1h1Z"/><path fill="#FEA4D2" id="VCO" d="m114 256 3.5 3 4.5-2c0-1.321-.684-6 1-6 0-10.434-1.847-24.806 3-34.5.69-1.38 1.55-9.5 3-9.5v-9l-6 1-1 1-1 1v2l-1 1-1 1-1 2v1l-1 1v1l-1 1-1 2v1l-1 1-2 5-1 1-3 5-1 1c0 1.145.579 4-1 4 0 3.303 2 5.115 2 8l1 1v2l1 1v1l1 1c0 3.157 2 5.481 2 9l1 1v1ZM343 255l-4.5 4-4.5-3v-5c0-9.849 1.167-24.167-3-32.5-.69-1.38-1.55-9.5-3-9.5l-1-10h6l2 2v1l2 3v1l2 2v2l1 1 1 1v2l1 1 1 1c0 1.048-.473 3 1 3l1 1v1l1 1 1 2 2 2v1l1 4c0 3.324-2 6.16-2 9l-1 1c0 4.769-4 8.687-4 14Z"/><path fill="#F0F080" id="CB" d="m123 199-1 1 1-1Z"/><path fill="#FEB984" id="I5" d="M159 221c0 4.079-3.756 2-6 2l-1-20c0-6.86 4.26-2 6-2l-1 14.5 2 5.5Z"/><path fill="#CBCBCC" id="mlf" d="M222 205v3c0 2.482-2.215-3-3-3v-1c0-9.246 3-5.276 3 1Z"/><path fill="#FFC294" id="RPO" d="m222 208 3.5 7 3-3 1 3c2.448 1.224 4.5-5.83 4.5-7v-3c0-2.415-2.782-8.935-5-4.5l-.5 10.5c-.931 0 .162-9.919-2-11-6.452-3.226-1.311 5-4.5 5v3Z"/><path fill="#CBCBCC" id="mlf" d="m237 206-3 2v-3c2.144 0 .381-4.262 1-5.5.835-1.669 4 .075 4 1.5l-1 2v1l-1 1v1Z"/><path fill="#FF9B88" id="P" d="m300 199-1 1-1-1h2Z"/><path fill="#FEB984" id="I5" d="M297 222c0 2.962 4.707 1 6 1 0-7.504 2-14.186 2-22-1.624 0-2.75-2-5-2l-1 1c0 2.733 1.733 13.035 0 16.5-1.042 2.084-2 2.908-2 5.5Z"/><path fill="#FF9BCD" id="MY" d="M335 200v1l-2-2h1l1 1Z"/><path fill="#F0F080" id="CB" d="m334 199 1 1-1-1ZM122 200l-1 1 1-1ZM119 205l-1 2-1-2 4-4v2l-1 1-1 1Z"/><path fill="#FF9B88" id="P" d="m239 201-1 2 1-2Z"/><path fill="#F0F080" id="CB" d="m337 206 2 1v-3l-4-3v1c1.577 0 2 1.762 2 3v1Z"/><path fill="#FF9BCD" id="MY" d="M335 202c1.577 0 2 1.762 2 3l-2-3ZM121 203l-1 1 1-1ZM120 204l-1 1 1-1Z"/><path fill="#FF9B88" id="P" d="m238 204-1 1 1-1ZM225 258h1v-7.5c1.719-3.439 5 .14 5 2.5l1-2 2-11 1-13v-15.5l2-5.5-3 2c0 1.17-2.052 8.224-4.5 7l-1-3-3 3-3.5-7c0 2.482-2.215-3-3-3l2 4.5V229l1 2v10l2 10c1.714 0 1 5.594 1 7Z"/><path fill="#FF9BCD" id="MY" d="M339 207v1l-2-2 2 1Z"/><path fill="#F0F080" id="CB" d="M117 208h1v-1l-1 1Z"/><path fill="#FF9BCD" id="MY" fill-rule="evenodd" d="m200 277-1 2.5c1.026 2.051 11.248-2.5 1-2.5m-21 11c8.121 0 23.444-1.528 30.5 2 1.35.675 9.5.247 9.5-1-3.872 0-8.24-1-11.5-1-.907 0-4.165-1.169-3.5-2.5 2.996-5.993 16.879-5.5 22-5.5v-3h-7.5c-2.298-1.149 2.149-7.574 3-8l4.5 1v-12h-1c0 9.452-7.238 13-16 13l-1 1-1 1h-2c0 1.473-1.952 1-3 1h-1c0 1.951-2.454.477-3.5 1l-2.5 4v1l-1 1c0 2.226-1.774 4-4 4 0 2.279 5-.03 5 1.5 0 1.315-9-.217-9-1.5h-3c-2.198 0-12 .238-12-2h-2c0 1.168-4.366.567-5.5 0l-10.5-5.5c-1.586-1.586-3.762-6.631.5-4.5l2.5 2-2-4.5c0-1.25 4.5-10 6-7 1.595 3.19.126 13.5 5 13.5v-1l-1-1v-1l-1-1v-6c0-2.47-.316-10 3-10 0-5.172 3.844-15 10-15 0-1.713-4.88-9-7-9l-4 8c1.639 0 2.455-2 3.5-2l.5 5c0 2.611-9 13.949-9 6l-3 1c0 2.342-.131 10-3 10 0 10.141-12.224 4.138-16.5 2-5.429-2.714-7.5-15.66-7.5-22-9.146 0-4.103-27 2-27v-1c-2.933 0-3-4.001-3-6-1.45 0-2.31 8.12-3 9.5-4.847 9.694-3 24.066-3 34.5 1.602 0 2.384-3.058 4.5-2 1.676.838 2.884 14.058 1 15-5.014 2.507-3.393-7-6.5-7l-4.5 2-3.5-3c0 6.457 4.662 28.419 15.5 23l4-4 7-2 9.5 4 2 2 2 1 1 1h1l1 1 3 1 2 2h3l1 1h1l2 1h8l2 1Z"/><path fill="#FF9BCD" id="MY" d="m118 208-1 1v-1h1ZM299 281h1c3.669 0 12.011-6.256 15.5-8 3.325-1.662 9.405 4.703 12 6 10.56 5.28 15.5-17.731 15.5-24l-4.5 4-4.5-3-2 4.5-1.5 3.5c-4.361 2.18-4.772-13.614-2-15l5.5 2c0-9.849 1.167-24.167-3-32.5-.69-1.38-1.55-9.5-3-9.5l-3 4v1c1.602 0 8.757 15.986 7 19.5-.857 1.713-2.41 2.819-3 4-.608 1.216-1.184 5.5-3 5.5 0 5.94-1.514 17.007-7.5 20-4.239 2.119-15.5 8.253-15.5-2-3.008 0-4-7.116-4-10l-3-1c0 7.714-11.39-5.719-9-10.5 1.522-3.044 7.661 7.5 8 7.5 0-2.291-5.514-13-8-13-2.158 0-6 5.64-6 8 5.238 0 10 10.909 10 15 0 1.046 2 6.474 2 10v2c1.399 0 1.399 2 0 2v4c3.72 0 1.932-9.365 3-11.5.715-1.43 4.499.997 5 2 1.51 3.02 0 5.694 0 8.5l2.5-1c2.465-1.233 1.95 2.6 1.5 3.5l-6 4.5Z"/><path fill="#F0F080" id="CB" d="m117 210-1 1 1-1Z"/><path fill="#FF9BCD" id="MY" d="m339 210 1 1-1-1Z"/><path fill="#F0F080" id="CB" d="m116 211-1 2 1-2ZM340 211l1 1-1-1Z"/><path fill="#C8CACA" id="sptV" d="M149 259c0 1.638 3.576 2 5 2 0 10.141-12.224 4.138-16.5 2-5.429-2.714-7.5-15.66-7.5-22 1.7 0 1-5.137 1-6.5 0-7.551 1-13.654 1-20.5v-1c4.182 0 4.407 10 7 10v12c-1.473 0-1 1.952-1 3v3l-1 1v3l1 2 1 4 2 2v1l1 1c2.46 0 4.17 4 7 4ZM307 259l-4 2c0 10.253 11.261 4.119 15.5 2 5.986-2.993 7.5-14.06 7.5-20 0-9.328-1-19.995-1-29v-1l-4 2-2 4c0 1.357-.647 6-2 6v7c1.579 0 1 2.855 1 4v3l1 1v7l-1 2-1 2-2 3-1 1-1 1-1 1-5 2Z"/><path fill="#F0F080" id="CB" d="M341 214h1l-1-1v1ZM115 214l-1 1 1-1Z"/><path fill="#C9CACB" id="vVIIIn" d="M132 214c-6.103 0-11.146 27-2 27 1.7 0 1-5.137 1-6.5 0-7.551 1-13.654 1-20.5ZM325 214c1.602 0 8.757 15.986 7 19.5-.857 1.713-2.41 2.819-3 4-.608 1.216-1.184 5.5-3 5.5 0-9.328-1-19.995-1-29Z"/><path fill="#FF9BCD" id="MY" d="M342 214v1l-1-1h1Z"/><path fill="#C8C8CC" id="tspc" d="M222 231v10c-5.057 0-6.109-15.717-8-19.5-.44-.88-2.216-5.642-.5-6.5 6.146-3.073 4.808 10 7.5 10v4l1 2ZM235 227c2.718 0 .984-15.258 7.5-12 2.024 1.012-3.088 17.676-4.5 20.5-.736 1.473.385 4.557-1.5 5.5l-2.5-1 1-13Z"/><path fill="#FF9B88" id="P" d="M321 215c-2.109 0-2 2.535-2 4l2-4Z"/><path fill="#F0F080" id="CB" d="m342 215 1 1-1-1Z"/><path fill="#FF9B88" id="P" d="M281 242c-8.869 0-8 4.088-8 13-1.758 0-1-7.884-1-9.5l-1-29.5 3.5 5c1.927.964 10.5 4.526 10.5 0l5.5 4 6.5-3c0 2.962 4.707 1 6 1 0 2.293.983 12-2 12 0-13.217-14-13.005-14-1-2.158 0-6 5.64-6 8ZM176 242c3.674 0 4.763-.973 7 3.5.743 1.487-1.308 8.5 1 8.5 0-12.2 1-24.361 1-37l-6.5 6c-1.65.825-7.5.268-7.5-2l-4.5 4c-2.464 1.232-5.554-4-7.5-4 0 4.079-3.756 2-6 2 0 2.203-.896 11 2 11 0-11.139 14-12.221 14-1 2.12 0 7 7.287 7 9ZM319 219c-1.995 0-2 4.377-2 6 1.353 0 2-4.643 2-6Z"/><path fill="#FF9BCD" id="MY" d="m344 219 1 1-1-1ZM112 220l-1 1 1-1ZM345 221l1 1-1-1ZM347 224l2 2-2-2Z"/><path fill="#FF9B88" id="P" d="M139 225c1.602 0 1.602 7 0 7v-7Z"/><path fill="#FCB3D9" id="PARN" d="M156 251h1l3-1 1-1v-1l1-2 1-2v-1l2-2 4-8c0-11.221-14-10.139-14 1l1 17ZM299 251h1l1-16c0-13.217-14-13.005-14-1 2.486 0 8 10.709 8 13v1l1 1v1l3 1Z"/><path fill="#F0F080" id="CB" d="m108 226-1 1 1-1ZM103 230l3 1c1.579 0 1-2.855 1-4l-4 3ZM353 230l-3 1-1-4 4 3Z"/><path fill="#FDBA86" id="PRNc" d="m221 229 1 2-1-2Z"/><path fill="#FF9B88" id="P" d="M317 232c1.579 0 1 2.855 1 4-1.579 0-1-2.855-1-4ZM139 235c-1.473 0-1 1.952-1 3 1.473 0 1-1.952 1-3Z"/><path fill="#FF9BCD" id="MY" d="m108 239 1 1-1-1Z"/><path fill="#CCCCC7" id="VIIn" d="m161 249-1 1c0 7.949 9-3.389 9-6l-.5-5c-1.045 0-1.861 2-3.5 2 0 1.747-.253 2-2 2v1l-1 2-1 2v1ZM296 249v1c0 7.714-11.39-5.719-9-10.5 1.522-3.044 7.661 7.5 8 7.5v1l1 1Z"/><path fill="#FF9B88" id="P" d="m318 239 1 1-1-1Z"/><path fill="#FF9BCD" id="MY" d="m348 240-1 1 1-1Z"/><path fill="#FF9B88" id="P" d="m138 241-1 1 1-1Z"/><path fill="#FF9BCD" id="MY" d="m165 241-2 2c1.747 0 2-.253 2-2Z"/><path fill="#FFB2D8" id="IRN" d="m184 262-1 1c-2.658 0-12.133-6-17-6 0-5.172 3.844-15 10-15 3.674 0 4.763-.973 7 3.5.743 1.487-1.308 8.5 1 8.5v8ZM272 262l1 1c4.582 0 11.663-6 18-6 0-4.091-4.762-15-10-15-8.869 0-8 4.088-8 13 0 2.409-1 5.181-1 7Z"/><path fill="#FF9BCD" id="MY" d="m109 242 1 1-1-1ZM110 244l1 1-1-1ZM163 244l-1 2 1-2Z"/><path fill="#FF9B88" id="P" d="m137 245 1 2-1-2Z"/><path fill="#FF9BCD" id="MY" d="m162 246-1 2 1-2Z"/><path fill="#FF9B88" id="P" d="m319 247-1 2 1-2Z"/><path fill="#FF9BCD" id="MY" d="m295 248 1 1-1-1Z"/><path fill="#C9CACB" id="vVIIIn" d="M123 251c1.602 0 2.384-3.058 4.5-2 1.676.838 2.884 14.058 1 15-5.014 2.507-3.393-7-6.5-7 0-1.321-.684-6 1-6Z"/><path fill="#FF9BCD" id="MY" d="m161 249-1 1 1-1Z"/><path fill="#FFC5E2" id="RM" d="M227 275h2l1-1v-3c0-1.49-.735-8 1-8v-10c0-2.36-3.281-5.939-5-2.5V271c1.579 0 1 2.855 1 4Z"/><path fill="#FF9B88" id="P" d="m318 249-1 2 1-2Z"/><path fill="#C9CACB" id="vVIIIn" d="m334 251-5.5-2c-2.772 1.386-2.361 17.18 2 15l1.5-3.5 2-4.5v-5Z"/><path fill="#FF9B88" id="P" d="m139 251 2 2-2-2ZM149 259c0 1.638 3.576 2 5 2 2.869 0 3-7.658 3-10h-1c0 4.586-2.065 8-7 8Z"/><path fill="#FEB0D8" id="GRN" d="M225 258c0 9.452-7.238 13-16 13 0-4.262 15-12.985 15-20 1.714 0 1 5.594 1 7ZM231 263c0 4.931 11.437 8 16 8 0-.957-10.071-12.571-12.5-15l-2.5-5-1 2v10Z"/><path fill="#FF9B88" id="P" d="m307 259-4 2c-3.008 0-4-7.116-4-10h1c.934 0 .236 8 7 8Z"/><path fill="#FF9BCD" id="MY" d="m113 254 1 1-1-1Z"/><path fill="#FF9B88" id="P" d="m141 254 1 1-1-1ZM315 254l-1 1 1-1ZM313 256l-1 1 1-1Z"/><path fill="#FFB3D6" id="VII" d="M164 267c2.579 0 5.997-3.752 9.5-2l7.5 3c2.868 0 2-2.688 2-5-2.658 0-12.133-6-17-6-3.316 0-3 7.53-3 10h1ZM292 267h1c0-3.526-2-8.954-2-10-6.337 0-13.418 6-18 6 0 2.565-.236 5 3 5l6.5-3c3.503-1.752 6.921 2 9.5 2Z"/><path fill="#FF9B88" id="P" d="m189 271-4.5-1-2.5 3-1-5c2.868 0 2-2.688 2-5l1-1c0 3.773 5 8.066 5 9ZM267 271l4.5-1 2.5 2 2-4c-3.236 0-3-2.435-3-5l-1-1c0 4.639-5 8.438-5 9Z"/><path fill="#C8C8CB" id="rust" d="M165 280h1l-1-3c-4.874 0-3.405-10.31-5-13.5-1.5-3-6 5.75-6 7l2 4.5c1.53 0 3.216 4 6 4l1 1h2Z"/><path fill="#FF9BCD" id="MY" fill-rule="evenodd" d="M261 286c0 1.747 6 1.149 6 .5l-6-.5m-9-9c0 7.337 10.99 0 0 0m25 11-30 1 6-3.5c0-3.701-19.74-6.5-22-6.5l-1-3c1.804 0 5.136 2.182 7.5 1 2.555-1.277-1.519-7.26-3-8-2.712-1.356-3.183 2-4.5 2 0-1.49-.735-8 1-8 0 4.931 11.437 8 16 8l3 2h1c0 1.473 1.952 1 3 1h1c0 1.951 2.454.477 3.5 1l2.5 3v1c0 3.173 2.957 6 6 6 0 1.486 3 1.486 3 0h3c2.004 0 10.674-1 6-1v-1h2c0 1.535 4 1.535 4 0h3c0 1.186 1 1.186 1 0l10-2v1l-1 1h-1l-1 1h-1l-1 1h-2l-1 1h-2l-2 1h-8l-2 1Z"/><path fill="#C8C8CB" id="rust" d="M293 280h1l1-1c1.562 0 5-2.189 5-4l1-1c0-2.806 1.51-5.48 0-8.5-.501-1.003-4.285-3.43-5-2-1.068 2.135.72 11.5-3 11.5l-1 2-1 1v2h2Z"/><path fill="#FEAE6E" id="SOCl" d="M165 277c1.863 0 5.792 3 10 3 3.546 0 5.464-4 7-4v-3l-1-5-7.5-3c-3.503-1.752-6.921 2-9.5 2l-1 2v4l1 1v1l1 1v1ZM291 277c-1.863 0-5.792 3-10 3-2.653 0-6-.879-6-4l-1-4 2-4 6.5-3c3.503-1.752 6.921 2 9.5 2l1 1v6l-1 1-1 2Z"/><path fill="#FF9B88" id="P" d="m164 267-1 2v-2h1ZM293 267v1l-1-1h1Z"/><path fill="#CACCC8" id="ml" d="M226 276v1h-7.5c-2.298-1.149 2.149-7.574 3-8l4.5 1v6ZM230 275v1c1.804 0 5.136 2.182 7.5 1 2.555-1.277-1.519-7.26-3-8-2.712-1.356-3.183 2-4.5 2v4Z"/><path fill="#FF9B88" id="P" d="M293 269c1.399 0 1.399 2 0 2v-2Z"/><path fill="#FFAD6E" id="SOCm" d="M191 281h3l1-1v-6l-6-3-4.5-1-2.5 3v3c0 1.681 7.278 5 9 5ZM261 279l4 2c4.015 0 6.644-5 10-5l-1-4-2.5-2-4.5 1-1 1-4 2-1 4v1Z"/><path fill="#FF9B88" id="P" d="m209 271-1 1 1-1Z"/><path fill="#FF9BCD" id="MY" d="m227 275-1 1v-5c1.579 0 1 2.855 1 4Z"/><path fill="#FF9B88" id="P" d="M247 271c1.238 0 3 .423 3 2l-3-2ZM267 271l-1 1 1-1ZM208 272l-1 1 1-1Z"/><path fill="#CBC7CC" id="sctv" d="m168 282 1 1c0 1.168-4.366.567-5.5 0l-10.5-5.5c-1.586-1.586-3.762-6.631.5-4.5l2.5 2c1.53 0 3.216 4 6 4l1 1 2 1h1l1 1h1Z"/><path fill="#FF9B88" id="P" d="m163 273 1 1-1-1ZM205 273c-1.048 0-3-.473-3 1 1.048 0 3 .473 3-1ZM251 273c1.048 0 3-.473 3 1-1.048 0-3 .473-3-1Z"/><path fill="#CBC7CC" id="sctv" d="M289 282v1l10-2 6-4.5c.45-.9.965-4.733-1.5-3.5l-2.5 1-1 1c0 1.811-3.438 4-5 4l-1 1h-1l-1 1h-1l-2 1Z"/><path fill="#FF9B88" id="P" d="M201 274c0 1.951-2.454.477-3.5 1l-2.5 4v-5h6Z"/><path fill="#FF9BCD" id="MY" d="M229 275h1v-1l-1 1Z"/><path fill="#FF9B88" id="P" d="m262 274-1 4-2.5-3c-1.046-.523-3.5.951-3.5-1h7ZM292 275h1v-1l-1 1Z"/><path fill="#FF9BCD" id="MY" d="m301 274-1 1 1-1Z"/><path fill="#FF9B88" id="P" d="m164 275 1 1-1-1Z"/><path fill="#FFC6E2" id="RPA" d="M226 282h4l1-3-1-3v-1h-3l-1 1v6Z"/><path fill="#FF9B88" id="P" d="M291 277h1v-2l-1 2Z"/><path fill="#FF9BCD" id="MY" d="m293 275-1 2v-2h1Z"/><path fill="#FEAD6F" id="POR" d="M182 284h1c4.554 0 8 1.11 8-3-1.722 0-9-3.319-9-5-1.536 0-3.454 4-7 4 0 4.145 7 1.82 7 4ZM273 284h2c0-1.579 2.855-1 4-1h1l1-3c-2.653 0-6-.879-6-4-3.356 0-5.985 5-10 5 0 4.434 4.309 3 8 3Z"/><path fill="#FF9B88" id="P" d="m150 277 2 2-2-2ZM177 284h5c0-2.18-7 .145-7-4-4.208 0-8.137-3-10-3l1 3v1l1 1h1l2 1h5l2 1Z"/><path fill="#FEA3D2" id="NTB" d="m200 277-1 2.5c1.026 2.051 11.248-2.5 1-2.5ZM252 277c0 7.337 10.99 0 0 0Z"/><path fill="#FF9B88" id="P" d="M285 283h1c0-1.473 1.952-1 3-1l2-1v-4c-1.863 0-5.792 3-10 3l-1 3h5Z"/><path fill="#FF9BCD" id="MY" d="m292 277-1 1v-1h1Z"/><path fill="#C7C9C9" id="py" d="M237 289h10l6-3.5c0-3.701-19.74-6.5-22-6.5l-1 3 6 7h1Z"/><path fill="#FF9BCD" id="MY" d="m162 279 1 1-1-1Z"/><path fill="#C7C9C9" id="py" d="M219 289h2l5-7v-2c-5.121 0-19.004-.493-22 5.5-.665 1.331 2.593 2.5 3.5 2.5 3.26 0 7.628 1 11.5 1Z"/><path fill="#FF9B88" id="P" d="M270 285h3v-1c-3.691 0-8 1.434-8-3l-4-2c0 3.173 2.957 6 6 6h3Z"/><path fill="#FF9BCD" id="MY" d="m295 279-1 1 1-1Z"/><path fill="#FF9B88" id="P" d="m154 280 1 1-1-1Z"/><path fill="#CCC7CB" id="tb" d="M165 280v1l-2-1h2Z"/><path fill="#FF9BCD" id="MY" d="M165 281h1v-1h-1v1Z"/><path fill="#FF9B88" id="P" d="m195 280-1 1 1-1Z"/><path fill="#FF9BCD" id="MY" d="M291 281h1v-1h-1v1Z"/><path fill="#CCC7CB" id="tb" d="m293 280-1 1v-1h1Z"/><path fill="#FF9B88" id="P" d="m156 281 1 1-1-1Z"/><path fill="#CCC7CB" id="tb" d="m166 281 1 1-1-1Z"/><path fill="#FF9B88" id="P" d="M186 285h4c2.226 0 4-1.774 4-4h-3c0 4.11-3.446 3-8 3v1h3Z"/><path fill="#CCC7CB" id="tb" d="m291 281-2 1 2-1Z"/><path fill="#FF9B88" id="P" d="m300 281-1 1v-1h1Z"/><path fill="#CCC7CB" id="tb" d="M169 283h1l-2-1 1 1Z"/><path fill="#FF9BCD" id="MY" d="m221 289 6.5-3 8.5 3-6-7h-4l-5 7Z"/><path fill="#CCC7CB" id="tb" d="M288 283h1v-1c-1.048 0-3-.473-3 1h2Z"/><path fill="#FF9B88" id="P" d="m299 282-1 1 1-1ZM160 283l2 2-2-2Z"/><path fill="#CCC7CB" id="tb" d="M183 284v1c-2.198 0-12 .238-12-2h4l2 1h6Z"/><path fill="#FF9BCD" id="MY" d="m175 283 2 1-2-1Z"/><path fill="#FF9B88" id="P" d="M275 284h4v-1c-1.145 0-4-.579-4 1Z"/><path fill="#CCC7CB" id="tb" d="M281 283h4c0 1.535-4 1.535-4 0Z"/><path fill="#CBC7CC" id="sctv" d="M288 283h1c0 1.186-1 1.186-1 0Z"/><path fill="#FF9B88" id="P" d="m297 283-1 1 1-1Z"/><path fill="#CCC7CB" id="tb" d="M279 284c4.674 0-3.996 1-6 1v-1h6Z"/><path fill="#FF9B88" id="P" d="m295 284-1 1 1-1ZM165 285l1 1-1-1Z"/><path fill="#CCC7CB" id="tb" d="M186 285h4c0 2.279 5-.03 5 1.5 0 1.315-9-.217-9-1.5ZM267 285h3c0 1.486-3 1.486-3 0Z"/><path fill="#FF9B88" id="P" d="m292 285-1 1 1-1ZM167 286l2 1-2-1Z"/><path fill="#CCC7CB" id="tb" d="M261 286c0 1.747 6 1.149 6 .5l-6-.5Z"/><path fill="#FF9B88" id="P" d="m289 286-2 1 2-1ZM177 287l2 1-2-1ZM279 287l-2 1 2-1Z"/><path fill="#FF9BCD" id="MY" d="M237 289h10c0 1.628-10 1.628-10 0Z"/></svg>