<svg xmlns="http://www.w3.org/2000/svg" viewBox="0 0 456 320"><path fill="#098589" id="VISp1" d="M86 68h1c0-4.774 14.417-10.334 16-13.5 1.887-3.773 12.297-8.399 16.5-10.5 8.502-4.251 16.597-8.798 25-13 3.837-1.919 9.102-1.051 13-3 4.577-2.288 11.359 2 15.5 2l2-4c0-1.744-6.968-1-8.5-1-9.204 0-17.426.213-25 4-6.592 3.296-14.382 4.69-21 8l-23 14L84 63l2 5ZM369 67h1l3-3c0-1.583-12.963-11.731-15.5-13-10.528-5.264-19.606-12.803-30-18l-21-7c-4.666-2.333-12.985-1-18.5-1-1.321 0-6-.684-6 1l1 5h1c0-3.192 17.777-3.361 20.5-2 16.995 8.498 37.037 13.037 51.5 27.5 2.239 2.24 13 6.583 13 10.5Z"/><path fill="#1BA696" id="RSPagl1" d="M188 36c-2.586 0-5.986 5-9 5 0-3.946-.738-10-6-10v-1l2-4c3.723 0 13 5.53 13 10ZM269 36l8 5c0-3.506 1.659-10 6-10l-1-5c-4.889 0-13 4.747-13 10Z"/><path fill="#0A828C" id="VISp2/3" d="m87 68 4 6c3.984 0 18.116-14.308 23.5-17 6.675-3.338 12.283-8.641 19-12l19-8c3.846-1.923 11.024 1 14.5 1 1.59 0 6-5.662 6-7v-1c-4.141 0-10.923-4.288-15.5-2-3.898 1.949-9.163 1.081-13 3-8.403 4.202-16.498 8.749-25 13-4.203 2.101-14.613 6.727-16.5 10.5-1.583 3.166-16 8.726-16 13.5ZM369 67c0 3.313-4 4.49-4 7l-24.5-18c-12.133-6.067-24.008-13.004-36-19-4.091-2.045-11.676 1-15.5 1-1.92 0-5-5.188-5-7 0-3.192 17.777-3.361 20.5-2 16.995 8.498 37.037 13.037 51.5 27.5 2.239 2.24 13 6.583 13 10.5Z"/><path fill="#1AA496" id="RSPagl2/3" d="M164 42c0 1.457 3 1.46 3 4 4.256 0 7.441-5 12-5 0-3.946-.738-10-6-10 0 1.338-4.41 7-6 7l-3 4ZM293 43c-2.424 0-2.76 2-4 2-4.704 0-7.296-4-12-4 0-3.506 1.659-10 6-10h1c0 1.813 3.08 7 5 7l4 4v1Z"/><path fill="#1BA598" id="RSPd1" d="m154 75 1 2 6.5-8c4.257-2.128 26.5-27.035 26.5-33-2.586 0-5.986 5-9 5 0 9.532-13.923 17.346-18 25.5l-7 8.5ZM302 75l-1 1c-2.055 0-18.252-20.752-21-23.5l-11-12c-.387-.774-2.186-4.5 0-4.5l8 5c0 8.855 25 27.755 25 34Z"/><path fill="#0B848B" id="VISp4" d="m91 75 3 4 20.5-16c16.196-8.098 27.777-21 48.5-21h1l3-4c-3.476 0-10.654-2.923-14.5-1l-19 8c-6.717 3.359-12.325 8.662-19 12-5.384 2.692-19.516 17-23.5 17v1ZM362 79h1l2-4v-1l-24.5-18c-12.133-6.067-24.008-13.004-36-19-4.091-2.045-11.676 1-15.5 1l4 4c20.61 0 40.608 12.108 55 26.5L362 79Z"/><path fill="#1BA697" id="RSPd2/3" d="M149 75h5l7-8.5c4.077-8.154 18-15.968 18-25.5-4.559 0-7.744 5-12 5v1c0 9.825-7.965 14.43-12 22.5l-6 5.5Z"/><path fill="#FF7AFD" id="SCzo" d="M288 73h2c0-4.45-5.133-6.766-7-10.5-6.471-12.942-29.916-26.292-43.5-19.5-3.909 1.955-8.642 5.785-10.5 9.5l-.5 4.5c-1.575 0-1.071-4.643-1.5-5.5-1.537-3.075-7.308-6.904-10.5-8.5-3.746-1.873-25.5-1.635-25.5 4 3.155 0 5.876-1.688 8.5-3 2.613-1.307 8.713-1.143 11 0l7 1c7.291 3.645 8.5 10.71 8.5 19l1 2h2l1-1c0-31.527 31.131-23.369 46.5-8 4.074 4.074 11.5 10.304 11.5 16Z"/><path fill="#1BA697" id="RSPd2/3" d="M302 75h5l-8-8.5c-3.219-6.437-10-11.688-10-20.5v-1c-4.704 0-7.296-4-12-4 0 8.855 25 27.755 25 34Z"/><path fill="#088389" id="VISp5" d="M100 86h1l10.5-9 6-6c8.856-4.428 16.346-15 27.5-15h1c0-2.311 17-11.755 17-14-20.723 0-32.304 12.902-48.5 21L94 79c0 1.624 2 2.75 2 5l4 2Z"/><path fill="#1CA697" id="RSPagl5" d="M146 56c1.658 0 3 1.46 3 3 3.648 0 12.152-12 18-12v-1c0-2.54-3-2.543-3-4h-1c0 2.245-17 11.689-17 14Z"/><path fill="#088389" id="VISp5" d="m360 84-4 2c-4.19 0-7.333-7.916-11.5-10-11.411-5.705-19.835-20-33.5-20l-4.5-3c-3.474-1.737-8.584-10-13.5-10v-1c20.61 0 40.608 12.108 55 26.5L362 79l-2 5Z"/><path fill="#FF78FF" id="SCsg" d="M226 64c-4.456 0-8.877-14.311-15.5-11-7.323 3.662-18.401 5.7-27 10L168 73c0-4.865 7-7.508 7-12l2-2 2-2 2-2 2-2c1.747 0 2-.253 2-2 1.238 0 3-.423 3-2 1.238 0 3-.423 3-2 3.155 0 5.876-1.688 8.5-3 2.613-1.307 8.713-1.143 11 0l7 1c7.291 3.645 8.5 10.71 8.5 19ZM230 65c2.459 0 9.559-14.97 15.5-12 4.53 2.265 10.465 1.733 15 4l16 8 11.5 8c0-5.696-7.426-11.926-11.5-16-15.369-15.369-46.5-23.527-46.5 8Z"/><path fill="#1CA697" id="RSPagl5" d="m311 56-4 3c-3.286 0-12.86-13-18-13v-1c1.24 0 1.576-2 4-2 4.916 0 10.026 8.263 13.5 10l4.5 3Z"/><path fill="#1AA596" id="RSPd5" d="M307 75h6c0-4.71-6-8.65-6-16-3.286 0-12.86-13-18-13 0 8.812 6.781 14.063 10 20.5l8 8.5ZM143 75h6l6-5.5c4.035-8.07 12-12.675 12-22.5-5.848 0-14.352 12-18 12v1c0 7.011-6 10.462-6 15Z"/><path fill="#FF7AFD" id="SCzo" d="M191 47c-1.238 0-3 .423-3 2 1.238 0 3-.423 3-2ZM188 49c-1.238 0-3 .423-3 2 1.238 0 3-.423 3-2ZM185 51c-1.747 0-2 .253-2 2 1.747 0 2-.253 2-2ZM183 53c-1.747 0-2 .253-2 2l2-2Z"/><path fill="#FD7AFF" id="SCop" d="M167 76v1l8.5-6c8.563-4.282 17.525-7.763 26-12 11.315-5.657 17.397 8 25.5 8v-1l-1-2c-4.456 0-8.877-14.311-15.5-11-7.323 3.662-18.401 5.7-27 10L168 73h-1v3ZM290 73v4c-3.704 0-9.129-6.315-12.5-8-7.503-3.751-15.6-6.3-23-10-11.428-5.714-16.988 8-25.5 8v-1l1-1c2.459 0 9.559-14.97 15.5-12 4.53 2.265 10.465 1.733 15 4l16 8 11.5 8h2Z"/><path fill="#FF7AFD" id="SCzo" d="M181 55c-1.747 0-2 .253-2 2l2-2Z"/><path fill="#08858C" id="VISp6a" d="M120 84c-4.225 0-9.841 1.17-13.5 3-1.073.536-5.5.25-5.5-1l10.5-9 6-6c8.856-4.428 16.346-15 27.5-15 0 4.833-25 23.557-25 28Z"/><path fill="#1CA597" id="RSPagl6a" d="M129 83c-3.222 0-6.277 1-9 1 0-4.443 25-23.167 25-28h1c1.658 0 3 1.46 3 3v1c-4.773 0-14 13.234-14 18l-1 1-1 1-4 3ZM328 83c3.222 0 6.277 1 9 1 0-.549-17.811-18.122-20-22.5l-6-5.5-4 3c3.977 0 15 15.731 15 20l1 1 1 1 4 2Z"/><path fill="#08858C" id="VISp6a" d="M356 86v1c-2.77 0-19-2.904-19-3 0-.549-17.811-18.122-20-22.5l-6-5.5c13.665 0 22.089 14.295 33.5 20 4.167 2.084 7.31 10 11.5 10Z"/><path fill="#FF7AFD" id="SCzo" d="M179 57c-1.747 0-2 .253-2 2l2-2Z"/><path fill="#FF90FF" id="SCig" d="m163 88 6.5-5c9.072-4.536 17.936-9.468 27-14 11.799-5.9 19.371.186 29 5 4.438 2.22 12.325-5.163 16-7 9.035-4.517 22.398 4.7 29 8 2.83 1.415 22.5 10.602 22.5 13 6.521 0-3-10.447-3-11-3.704 0-9.129-6.315-12.5-8-7.503-3.751-15.6-6.3-23-10-11.428-5.714-16.988 8-25.5 8h-2c-8.103 0-14.185-13.657-25.5-8-8.475 4.237-17.437 7.718-26 12l-8.5 6h-1l-1 1-1 1-1 1v8Z"/><path fill="#FF7AFD" id="SCzo" d="M177 59c-1.747 0-2 .253-2 2l2-2Z"/><path fill="#1AA697" id="RSPd6a" d="M313 75c3.205 0 6.241 4 9 4 0-4.269-11.023-20-15-20 0 7.35 6 11.29 6 16ZM143 75l-8 3c0-4.766 9.227-18 14-18 0 7.011-6 10.462-6 15Z"/><path fill="#FF7AFD" id="SCzo" d="M167 73h1c0-4.865 7-7.508 7-12-3.365 0-8 8.665-8 12Z"/><path fill="#09848A" id="VISl1" d="m71 83-1 1-1-1-2-2 5-5.5L84 63l2 5-15 15ZM386 83h2l1-2c0-3.605-8.973-10.473-12-13.5l-4-3.5-3 3 15 16h1Z"/><path fill="#FF90FE" id="SCiw" d="M173 98c0-1.37 19.882-11.691 22.5-13 6.263-3.132 10.378-8 18-8 3.824 0 12.793 5.603 16 4 6.772-3.386 15.617-5.692 23-2 4.919 2.46 28.435 19 31.5 19l9-10c0-2.398-19.67-11.585-22.5-13-6.602-3.3-19.965-12.517-29-8-3.675 1.837-11.562 9.22-16 7-9.629-4.814-17.201-10.9-29-5-9.064 4.532-17.928 9.464-27 14l-6.5 5c0 .712 9.255 10 10 10Z"/><path fill="#0A8489" id="VISl2/3" d="M377 85h3c.671 0 5-1.328 5-2l-15-16h-1c0 3.313-4 4.49-4 7v1c1.942 0 11 7.808 11 10h1ZM79 85h1l3-2.5c.573-1.145 5.694-7.5 8-7.5v-1l-4-6h-1L71 83l5 2h3Z"/><path fill="#08828B" id="VISl4" d="M85 85h2c0-1.557 5.116-6 7-6l-3-4c-2.306 0-7.427 6.355-8 7.5L80 85h5Z"/><path fill="#33B932" id="APr" d="M113 99c4.495 0 13.848 29 17 29 0-4.395 12.361-31.223 15-36.5L155 77l-1-2h-11l-8 3-1 1-1 1-4 3c0 2.98-17 9.535-17 10l1 1v5ZM344 98l-5 5.5-12 25.5c-2.334 0-1.341-4.181-2-5.5-3.355-6.71-4.675-14.35-8-21-1.769-3.537-16-25.502-16-26.5l1-1h11c3.205 0 6.241 4 9 4l1 1 1 1 4 2c0 4.08 17 9.384 17 10l-1 2v3Z"/><path fill="#08828B" id="VISl4" d="M371 85h5c0-2.192-9.058-10-11-10l-2 4c1.315 0 7 4.886 7 6h1Z"/><path fill="#FF64FF" id="MB" d="M166 77h1v-1l-1 1ZM166 77l-1 1 1-1Z"/><path fill="#FF8FFF" id="SCdg" d="m188 111 4-8.5c8.781-17.563 22.056-15.5 40-15.5 4.751 0 11.63-2.435 16.5 0l5 4c6.304 3.152 14.5 13.127 14.5 20 10.071 0 16 .163 16-13-3.065 0-26.581-16.54-31.5-19-7.383-3.692-16.228-1.386-23 2-3.207 1.603-12.176-4-16-4-7.622 0-11.737 4.868-18 8-2.618 1.309-22.5 11.63-22.5 13 0 13.707 4.565 13 15 13Z"/><path fill="#FF64FF" id="MB" fill-rule="evenodd" d="m316 141-1 2.5c0 10.962 5.927-2.5 1-2.5m-11-2c0 1.984-3.278 3.945-2 6.5 5.064 10.128 20.168-6.5 2-6.5m-17-26c0 3.746 2.091 0 0 0m14 48c2.522 0 5.187-7.657 10.5-5 1.563.781 3.526 5 4.5 5l.5-11 2.5 3v-25c-8.181 0-1.29-12-5-12 0 5.131-.172 12.336-5.5 15-9.37 4.685-21.105-5.291-16.5-14.5 1.272-2.544-.326-6.347 1-9 .636-1.271 4.343-15.079 7.5-13.5 5.09 2.545 9.311 11.121 11.5 15.5.557 1.114.41 5.5 2 5.5 0-12.22-14-18.87-14-30-4.174 0-6.657-8-11-8 0 .553 9.521 11 3 11l-9 10c0 13.163-5.929 13-16 13l-3 4 1 10 4.5-4c5.674-2.837 13.138-.431 18 2 4.963 2.482 16.427 24 4.5 24 0 3.067-3 4.726-3 6 4.469 0 4.604 6 6 6 0-15.61 6-9.234 6 2Z"/><path fill="#1AA697" id="RSPd6a" d="m135 78-1 1 1-1Z"/><path fill="#FF64FF" id="MB" d="m165 78-1 1 1-1Z"/><path fill="#0B858B" id="VISl5" d="M96 84c-1.489 0-9 2.337-9 1 0-1.557 5.116-6 7-6 0 1.624 2 2.75 2 5Z"/><path fill="#1AA697" id="RSPd6a" d="m134 79-1 1 1-1Z"/><path fill="#FF64FF" id="MB" d="m164 79-1 1 1-1Z"/><path fill="#0B858B" id="VISl5" d="m360 84 10 1c0-1.114-5.685-6-7-6h-1l-2 5Z"/><path fill="#FF64FF" id="MB" fill-rule="evenodd" d="M167 113c0 3.746 2.091 0 0 0m23 12c0-7.269-17.141-4.679-20.5-3l-6.5 6c0-12.814 2.015-16.469-4-28.5-.727-1.453-1.707-6.896-4.5-5.5l-9.5 12c0-8.328 10-12.01 10-21 2.689 0 4.894-5 8-5v8c0 .712 9.255 10 10 10 0 13.707 4.565 13 15 13l3 4c0 1.657.763 10-1 10Z"/><path fill="#1AA697" id="RSPd6a" d="m323 80 1 1-1-1Z"/><path fill="#0C858C" id="VISli1" d="m69 83-4 1 2-3 2 2ZM388 83c.716 0 3 2.373 3 0l-2-2-1 2Z"/><path fill="#09818C" id="VISpor1" d="M47 133c-2.364 0-3.053 3-5 3 0-13.642.034-19.567 6-31.5l7-9C56.091 93.318 61.97 84 65 84l4-1 1 1c0 2.453-11.63 12.76-13 15.5-5.403 10.806-10 18.239-10 31.5v2Z"/><path fill="#0A8389" id="VISpor2/3" d="M57 125c-3.524 0-5.962 6-10 6 0-13.261 4.597-20.694 10-31.5 1.37-2.74 13-13.047 13-15.5l1-1 5 2 1 2c0 2.114-11.619 11-6 11 0 4.479-14 19.262-14 27Z"/><path fill="#08838C" id="VISpl6a" d="m87 106-2 1-1-2c0-3.954 16-17.761 16-19h1c0 1.25 4.427 1.536 5.5 1 3.659-1.83 9.275-3 13.5-3 2.723 0 5.778-1 9-1 0 2.98-17 9.535-17 10h-4c-2.512 0-13 2.97-13 6l-2 2-1 1-1 1c-1.429 0-4 1.288-4 3ZM371 106h2v-1c-3.731 0-10.055-18-17-18-2.77 0-19-2.904-19-3-2.723 0-5.778-1-9-1 0 4.08 17 9.384 17 10h4c3.083 0 16 5.063 16 9l5 4h1Z"/><path fill="#0A8389" id="VISpor2/3" d="M400 125c3.144 0 5.45 6 9 6 0-17.201-5.128-20.757-12-34.5L386 83h-1c0 .672-4.329 2-5 2l-1 2v1c4.825 0 7 8.91 7 11 0 4.703 13 17.333 13 26h1Z"/><path fill="#09818C" id="VISpor1" d="m409 132 5 4c0-21.407.296-16.908-9-35.5-1.287-2.573-3.157-6.329-5.5-7.5L391 83c0 2.373-2.284 0-3 0h-2l11 13.5c6.872 13.743 12 17.299 12 34.5v1Z"/><path fill="#0B838C" id="VISpl5" d="M83 105h1c0-3.954 16-17.761 16-19l-4-2c-1.489 0-9 2.337-9 1h-2c0 1.726-4.558 5-6 5v1c3.492 0 4 12.102 4 14ZM377 91c0 2.789-4 8.349-4 14-3.731 0-10.055-18-17-18v-1l4-2 10 1h1l6 5v1Z"/><path fill="#09848C" id="VISpl2/3" d="M77 87h1l1-2h-3l1 2Z"/><path fill="#0B858A" id="VISpl4" d="m78 87 1 3c1.442 0 6-3.274 6-5h-6l-1 2Z"/><path fill="#C9C8C8" id="bic" d="M141 121c0 .36-4 12.725-4 6 0-12.969 4.695-20.891 10-31.5 1.087-2.173 4.386-10.5 8-10.5 0 8.99-10 12.672-10 21-2.109 0-2 2.535-2 4v1l-1 2c-1.714 0-1 5.594-1 7v1ZM315 116c3.71 0-3.181 12 5 12 0-13.225-5.551-22.601-11-33.5-1.258-2.516-4.562-9.5-8-9.5 0 11.13 14 17.78 14 30v1Z"/><path fill="#0B858A" id="VISpl4" d="m379 88-2 2-6-5h6l2 2v1Z"/><path fill="#09848C" id="VISpl2/3" d="m380 85-1 2-2-2h3Z"/><path fill="#FF8FFE" id="SCdw" d="M191 115c0-10.483 10.687-21.594 19.5-26 4.852-2.426 10.977 0 16 0l15-1c10.816 5.408 23.5 12.158 23.5 27l3-4c0-6.873-8.196-16.848-14.5-20l-5-4c-4.87-2.435-11.749 0-16.5 0-17.944 0-31.219-2.063-40 15.5l-4 8.5 3 4Z"/><path fill="#0A828A" id="VISpor4" d="m79 91-8 7c-5.619 0 6-8.886 6-11h1l1 3v1Z"/><path fill="#FC8FFF" id="PAG" d="M244 154c0-3.17-8.784 2-10 2 0-4.538 1.425-25-3-25v-6c0-2.617 6.468-6.564 5-9.5-.43-.86-7.452-9.5-7.5-9.5l-8.5 10.5 6 9.5v5c-6.261 0-3 21.983-3 26-.845 0-10-6.771-10-3-3.758 0-6.344-3.422-9.5-5-14.857-7.428-13.5-7.45-13.5-24 1.763 0 1-8.343 1-10 0-10.483 10.687-21.594 19.5-26 4.852-2.426 10.977 0 16 0l15-1c10.816 5.408 23.5 12.158 23.5 27l1 10c0 5.895 3.165 16.667-3.5 20-2.115 1.058-4.961.981-7 2-3.562 1.781-7.385 7-11.5 7Z"/><path fill="#0A828A" id="VISpor4" d="M377 91c3.714 0 6.256 8 9 8 0-2.09-2.175-11-7-11l-2 2v1Z"/><path fill="#0B838A" id="VISpor5" d="m64 123-7 2c0-7.738 14-22.521 14-27l8-7c3.492 0 4 12.102 4 14l-2 4-2 2-2 3-1 1c-3.699 0-7.58 8-12 8ZM393 123l6 2c0-8.667-13-21.297-13-26-2.744 0-5.286-8-9-8 0 2.789-4 8.349-4 14v1c1.26 0 5 4.768 5 6l1 2c2.195 0 9.609 9 14 9Z"/><path fill="#08848A" id="VISpl6b" d="M108 93c-2.512 0-13 2.97-13 6 1.675 0 13-4.802 13-6Z"/><path fill="#C8CBCC" id="ec" d="M92 103h3l1-1 2-1c0-2.717 12.654-7 15-7l-1-1h-4c0 1.198-11.325 6-13 6 0 1.747-.253 2-2 2l-1 1v1ZM364 102v1c-1.048 0-3 .473-3-1 0-1.701-14.198-7-17-7l1-2h4c0 1.726 9.8 5.15 11.5 6l3.5 3Z"/><path fill="#08848A" id="VISpl6b" d="M364 102h1c0-3.937-12.917-9-16-9 0 1.726 9.8 5.15 11.5 6l3.5 3Z"/><path fill="#7DCD4B" id="HPF" d="m110 102 2 2 1-5v-5c-2.346 0-15 4.283-15 7 1.93 0 12-2.51 12 1Z"/><path fill="#FE79FE" id="ICe" d="M141 121c1.951 0 .477 2.454 1 3.5 1.429 2.858 2.382 4.941 5.5 6.5 5.543 2.771 11.403-3 15.5-3 0-12.814 2.015-16.469-4-28.5-.727-1.453-1.707-6.896-4.5-5.5l-9.5 12-2 4v1l-1 2c0 1.406.714 7-1 7v1ZM315 115c-1.59 0-1.443-4.386-2-5.5-2.189-4.379-6.41-12.955-11.5-15.5-3.157-1.579-6.864 12.229-7.5 13.5-1.326 2.653.272 6.456-1 9-4.605 9.209 7.13 19.185 16.5 14.5 5.328-2.664 5.5-9.869 5.5-15v-1Z"/><path fill="#7DCD4B" id="HPF" d="m347 102-2 1c-1.643 0-1-3.766-1-5v-3c2.802 0 17 5.299 17 7-1.813 0-14-4.704-14 0Z"/><path fill="#72D568" id="PAR" d="m349 184-4 7c-2.184 0-3.024-12.547-4-14.5-2.868-5.736-14-41.855-14-47.5l12-25.5 5-5.5c0 1.234-.643 5 1 5l-2 14c0 17.812 8 34.508 8 53l-2 14Z"/><path fill="#08848A" id="VISpl6b" d="m95 99-2 2c1.747 0 2-.253 2-2Z"/><path fill="#72D568" id="PAR" d="M108 185c1.802 0 3 6.346 3 8 1.484 0 3.011-13.522 4-15.5 4.248-8.496 4.782-18.565 9-27l1-8 5-14.5c-3.152 0-12.505-29-17-29l-1 5 1 13c0 17.279-7 32.239-7 50 0 6.445 2 12.28 2 18Z"/><path fill="#32B623" id="ENTm6" d="M71 179v1c2.647 0 6.175 3.662 9.5 2 5.797-2.899 4.237-10.974 6.5-15.5 5.968-11.935 3.006-28.012 9-40 2.093-4.185 6.292-24.5 14-24.5 0-3.51-10.07-1-12-1l-2 1-1 1h-3l-1 1-4 3c0 10.816-3.421 24.343-8 33.5l-2 14-2 5.5c0 4.786-.961 11.423-3 15.5-.523 1.046.951 3.5-1 3.5ZM385 179v1c-3.956 0-6.031 3.235-10.5 1-5.159-2.58-3.363-13.226-5.5-17.5-6.57-13.141-3.42-30.841-10-44-2.007-4.015-3.042-8.042-6.5-11.5l-5.5-6c0-4.704 12.187 0 14 0 0 1.473 1.952 1 3 1l5 4c0 9.673 3.85 23.199 8 31.5 3.047 6.094 1.015 18.03 4 24 1.948 3.896 4 12.133 4 16.5Z"/><path fill="#08848A" id="VISpl6b" d="m93 101-1 1 1-1Z"/><path fill="#7DCD4B" id="HPF" d="m98 101-2 1 2-1Z"/><path fill="#08848A" id="VISpl6b" d="M91 103h1v-1l-1 1Z"/><path fill="#7DCD4B" id="HPF" d="m96 102-1 1 1-1Z"/><path fill="#30B724" id="ENTm5" d="M68 194v1c5.521 0 11.413 9.544 18.5 6 10.402-5.201 9.064-37.627 14.5-48.5 3.634-7.268 3.963-18.926 8-27 .767-1.535 1.845-8.5 4-8.5l-1-13-2-2c-7.708 0-11.907 20.315-14 24.5-5.994 11.988-3.032 28.065-9 40-2.263 4.526-.703 12.601-6.5 15.5-3.325 1.662-6.853-2-9.5-2 0 5.15-3 9.337-3 14ZM385 180l3 15c-5.02 0-10.695 9.402-17.5 6-11.414-5.707-9.707-37.915-15.5-49.5l-1-8c-3.056-6.111-3.951-12.902-7-19-.737-1.475-1.705-7.5-4-7.5l2-14 2-1 5.5 6c3.458 3.458 4.493 7.485 6.5 11.5 6.58 13.159 3.43 30.859 10 44 2.137 4.274.341 14.92 5.5 17.5 4.469 2.235 6.544-1 10.5-1Z"/><path fill="#7DCD4B" id="HPF" d="m370 106-1 1-5-4v-1h1l5 4ZM87 106v1l4-3v-1c-1.429 0-4 1.288-4 3Z"/><path fill="#C8CBCC" id="ec" d="m92 103-1 1v-1h1Z"/><path fill="#0C858B" id="VISpor6a" d="m85 107-4 2 2-4h1l1 2Z"/><path fill="#32B824" id="ENTl6a" d="M76 115c0 3.496-3.512 6.524-5 9.5-3.077 6.153-.909 14.818-4 21-.872 1.743-.517 22.966 0 24 .94 1.88 4 7.624 4 9.5 1.951 0 .477-2.454 1-3.5 2.039-4.077 3-10.714 3-15.5l2-5.5 2-14c4.579-9.157 8-22.684 8-33.5v-1l-2 1-4 2c0 1.747-.253 2-2 2l-2 3-1 1Z"/><path fill="#FF64FF" id="MB" d="M145 106c-2.109 0-2 2.535-2 4l2-4Z"/><path fill="#A9A9A8" id="AQ" d="M231 125c-1.852 0-3.309 1-5 1l-6-9.5 8.5-10.5c.048 0 7.07 8.64 7.5 9.5 1.468 2.936-5 6.883-5 9.5Z"/><path fill="#32B824" id="ENTl6a" d="m379 114 6 9.5c2.972 5.943 7.207 37.586 4 44-.983 1.967-.984 11.5-4 11.5 0-4.367-2.052-12.604-4-16.5-2.985-5.97-.953-17.906-4-24-4.15-8.301-8-21.827-8-31.5l1-1h1l7 6 1 2Z"/><path fill="#0C858B" id="VISpor6a" d="M373 106c1.26 0 5 4.768 5 6l-7-6h2ZM81 109l-2 2c1.747 0 2-.253 2-2Z"/><path fill="#FF64FF" id="MB" d="m143 111-1 2 1-2ZM142 113c-1.714 0-1 5.594-1 7 1.714 0 1-5.594 1-7Z"/><path fill="#FE79FF" id="ICd" d="M167 113c0 3.746 2.091 0 0 0ZM288 113c0 3.746 2.091 0 0 0Z"/><path fill="#31B824" id="ENTl5" d="m77 114-1 1 1-1ZM388 195h1l6-6.5c2.037-4.074 1.97-8.939 4-13 1.584-3.168.351-14.298-1-17-.863-1.725-5-32.657-5-35.5-4.391 0-11.805-9-14-9l6 9.5c2.972 5.943 7.207 37.586 4 44-.983 1.967-.984 11.5-4 11.5v1l3 15ZM71 180c0 5.15-3 9.337-3 14-7.443 0-6.964-11.429-9-15.5-2.24-4.479-.134-40.732 2-45l3-10.5c4.42 0 8.301-8 12-8 0 3.496-3.512 6.524-5 9.5-3.077 6.153-.909 14.818-4 21-.872 1.743-.517 22.966 0 24 .94 1.88 4 7.624 4 9.5v1Z"/><path fill="#31B723" id="ENTm3" d="m68 195-2 11c5.487 0 23.49 11.522 28 2.5 2.713-5.427 9-24.633 9-30.5 0-1.612 1.778-11 3-11 0-17.761 7-32.721 7-50-2.155 0-3.233 6.965-4 8.5-4.037 8.074-4.366 19.732-8 27-5.436 10.873-4.098 43.299-14.5 48.5-7.087 3.544-12.979-6-18.5-6ZM389 195c0 4.078 2 7.622 2 11-8.078 0-23.63 13.239-30 .5-4.46-8.919-3.56-20.119-8-29-.736-1.471.357-7.5-2-7.5 0-18.492-8-35.188-8-53 2.295 0 3.263 6.025 4 7.5 3.049 6.098 3.944 12.889 7 19l1 8c5.793 11.585 4.086 43.793 15.5 49.5 6.805 3.402 12.48-6 17.5-6h1Z"/><path fill="#FF8FFD" id="MRN" d="M208 188h4c0-1.473 1.952-1 3-1v-4c-5.186 0 3-10.538 3-2l1-1 2-8-2.5 3c-.934 0 .05-6 2.5-6v-3c-.427 0-3-6.112-3-7h-1c0 8.104-14.023-4-4-4v-1c-3.758 0-6.344-3.422-9.5-5-14.857-7.428-13.5-7.45-13.5-24 0-7.269-17.141-4.679-20.5-3l-6.5 6c0 .088-11.289 19 0 19l3.5-4c4.967-2.484 10.091-4.545 15-7 3.46-1.73 7.703 7.095 6.5 9.5l-8 5.5 1 1c5.293 0 12 6.397 12 12 5.512 0 14.768.634 19.5 3 1.297.649 2.67 5.165 1 6-3.853 1.927-8.999 1-12.5 1 0 5.941.45 6.025-5.5 9-1.777.888-8.5-1.281-8.5 2h11.5l4.5 2h2l3 1Z"/><path fill="#FF8FFD" id="MRN" fill-rule="evenodd" d="M236 169c0 1.128.101 6 1.5 6 1.354 0 .075-6-1.5-6m8 19h5l2-1h2l5.5-2 14.5 1v-1c-4.293 0-16.808-2.116-19-6.5-1.058-2.116 2-2.898 2-4.5-3.996 0-9.306 1.097-13.5-1-1.67-.835-.297-5.351 1-6l19.5-3c0-4.874 7.094-12 12-12l2-1-8-4.5c-1.321-2.643 1.042-7.084 2-9 2.194-4.388 22 5.823 22 9.5 11.927 0 .463-21.518-4.5-24-4.862-2.431-12.326-4.837-18-2l-4.5 4c0 5.895 3.165 16.667-3.5 20-2.115 1.058-4.961.981-7 2-3.562 1.781-7.385 7-11.5 7v1c2.281 0 4.001 4.75 1.5 6-2.161 1.081-4.894-1-6.5-1h-1l-3 7c0 2.33.661 12 3 12 7.489 0 6.064 4 3 4l1 4 2 1Z"/><path fill="#FF64FF" id="MB" fill-rule="evenodd" d="m139 141-1 3c0 10.269 8.322-3 1-3m6-2c0 1.947-3.428 3.644-2 6.5 5.193 10.387 19.612-6.5 2-6.5m-5 20c1.78 0 4.539-4.98 8.5-3l5.5 5 1-9.5c2.797-5.594 6 .29 6 3.5 1.714 0 3.482-2 6-2 0-1.548-4-2.767-4-6-11.289 0 0-18.912 0-19-4.097 0-9.957 5.771-15.5 3-3.118-1.559-4.071-3.642-5.5-6.5-.523-1.046.951-3.5-1-3.5 0 .36-4 12.725-4 6-1.7 0-1 5.137-1 6.5V154l2.5-4c2.393 0 1.5 7.525 1.5 9Z"/><path fill="#32B725" id="ENTl3" d="M65 206h1l2-11v-1c-7.443 0-6.964-11.429-9-15.5-2.24-4.479-.134-40.732 2-45l3-10.5-7 2c0 11.346-10.743 46.015-6 55.5 2.611 5.222 4.375 10.751 7 16l7 9.5ZM389 195c0 4.078 2 7.622 2 11 1.656 0 9.004-13.507 10-15.5 10.648-21.296-1-42.815-1-65.5h-1l-6-2c0 2.843 4.137 33.775 5 35.5 1.351 2.702 2.584 13.832 1 17-2.03 4.061-1.963 8.926-4 13l-6 6.5Z"/><path fill="#32B825" id="ENTl2" d="m65 206-1 7c-7.542 0-12.514-12.527-15-17.5-2.984-5.968-5.069-12.138-8-18-4.067-8.134 6-33.768 6-44.5v-2c4.038 0 6.476-6 10-6 0 11.346-10.743 46.015-6 55.5 2.611 5.222 4.375 10.751 7 16l7 9.5Z"/><path fill="#FF64FF" id="MB" d="M226 131h5v-6c-1.852 0-3.309 1-5 1v5Z"/><path fill="#32B825" id="ENTl2" d="M392 213h1c7.842 0 13.599-15.698 16-20.5 13.59-27.18 0-34.419 0-60.5v-1c-3.55 0-5.856-6-9-6 0 22.685 11.648 44.204 1 65.5-.996 1.993-8.344 15.5-10 15.5l1 7Z"/><path fill="#FDA6FF" id="DR" d="m225 164 2.5 3 3.5-2v-2l1-1v-1l1-1 1-4c0-4.538 1.425-25-3-25h-5c-6.261 0-3 21.983-3 26l2 6v1Z"/><path fill="#32B722" id="ENTl1" d="M393 213c0 1.622-.461 5 2 5 6.839 0 13.544-11.588 16-16.5 2.615-5.231 12.992-29.017 10-35-.991-1.981-7-28.222-7-30.5l-5-4c0 26.081 13.59 33.32 0 60.5-2.401 4.802-8.158 20.5-16 20.5ZM64 214l-2 4c-5.96 0-12.644-8.788-15-13.5-3.792-7.584-15.88-33.242-11-43 2.732-5.464 6-19.062 6-25.5 1.947 0 2.636-3 5-3 0 10.732-10.067 36.366-6 44.5 2.931 5.862 5.016 12.032 8 18 2.486 4.973 7.458 17.5 15 17.5v1Z"/><path fill="#FC90FF" id="CUN" d="M167 153h2l2-1h6c0-1.473 1.952-1 3-1l8-5.5c1.203-2.405-3.04-11.23-6.5-9.5-4.909 2.455-10.033 4.516-15 7l-3.5 4c0 3.233 4 4.452 4 6ZM288 153h2c0-1.274 3-2.933 3-6 0-3.677-19.806-13.888-22-9.5-.958 1.916-3.321 6.357-2 9l8 4.5 2 1h7l2 1Z"/><path fill="#FF7AFE" id="SAG" d="M145 139c0 1.947-3.428 3.644-2 6.5 5.193 10.387 19.612-6.5 2-6.5ZM305 139c0 1.984-3.278 3.945-2 6.5 5.064 10.128 20.168-6.5 2-6.5Z"/><path fill="#FF79FD" id="PBG" d="m139 141-1 3c0 10.269 8.322-3 1-3ZM316 141l-1 2.5c0 10.962 5.927-2.5 1-2.5Z"/><path fill="#C9C9CB" id="ll" d="M159 183c0 3.865-.427 6.355-2 9.5-.882 1.764-4 2.163-4-.5 0-11.129 1-20.957 1-31l1-9.5c2.797-5.594 6 .29 6 3.5 0 8.86-2 15.301-2 24v4ZM297 183c0 2.003 1.829 12.836 5.5 11l1.5-3c0-5.723-.491-15.482-3-20.5l1-9.5c0-11.234-6-17.61-6-2 0 6.219 2 11.387 2 17 0 1.048.473 3-1 3v4ZM136 195l6 5-2-6c0-3.406-5.12-8.261-3-12.5 3.17-6.341 3-14.883 3-22.5 0-1.475.893-9-1.5-9l-2.5 4c0 2.816-.775 7.049-2 9.5-2.432 4.864 1 22.243 1 27.5l1 4ZM315 196v3c3.086 0 2.914-4 6-4l1-4c0-3.236 1.339-23.822 1-24.5-1.641-3.281-3-9.78-3-13.5l-2.5-3-.5 11c0 5.506 3.307 25.885 2 28.5l-2 3.5-1 1v1l-1 1Z"/><path fill="#FF64FF" id="MB" d="M177 152h4l-1-1c-1.048 0-3-.473-3 1ZM275 152h4l-2-1-2 1ZM171 152l-2 1 2-1Z"/><path fill="#FFA5FD" id="PPN" d="M183 185h4c0-3.281 6.723-1.112 8.5-2 5.95-2.975 5.5-3.059 5.5-9-15.765 0-8-.37-8-10 0-5.603-6.707-12-12-12h-10l-2 1h-2c-2.518 0-4.286 2-6 2 0 8.86-2 15.301-2 24l3 4 7.5 4c3.47 1.735 9.298-1 12.5-1l1-1ZM273 185l2 1c3.036 0 9.064 2.718 12.5 1 1.79-.895 3.403-3 5.5-3l1-1h1l2-4c0-1.048-.473-3 1-3 0-5.613-2-10.781-2-17-1.396 0-1.531-6-6-6h-2l-2-1h-11c-4.906 0-12 7.126-12 12l2 2.5c4.589 9.178-4.597 7.5-9 7.5 0 1.602-3.058 2.384-2 4.5 2.192 4.384 14.707 6.5 19 6.5Z"/><path fill="#FF64FF" id="MB" d="m286 152 2 1-2-1ZM218 159c3.546 0 5.464 4 7 4l-2-6c-.845 0-10-6.771-10-3v1h1l1 1c0 1.481 2 .785 2 3h1ZM238 160h1c0-2.362 2.638-5 5-5v-1c0-3.17-8.784 2-10 2l-1 4c.671 0 5-2.662 5 0Z"/><path fill="#FE8DFE" id="Pa4" d="M215 156c0 1.481 2 .785 2 3 0 8.104-14.023-4-4-4h1l1 1Z"/><path fill="#FF8FFD" id="MRN" d="m214 155 1 1-1-1Z"/><path fill="#FE8DFE" id="Pa4" d="M244 155c2.281 0 4.001 4.75 1.5 6-2.161 1.081-4.894-1-6.5-1 0-2.362 2.638-5 5-5Z"/><path fill="#FFAC6F" id="NLL" d="m153 192-3.5 5c-4.232 2.116-6.72-3-9.5-3 0-3.406-5.12-8.261-3-12.5 3.17-6.341 3-14.883 3-22.5 1.78 0 4.539-4.98 8.5-3l5.5 5c0 10.043-1 19.871-1 31ZM316 195l-1 1c-4.318 0-11 2.73-11-5 0-5.723-.491-15.482-3-20.5l1-9.5c2.522 0 5.187-7.657 10.5-5 1.563.781 3.526 5 4.5 5 0 5.506 3.307 25.885 2 28.5l-2 3.5-1 1v1Z"/><path fill="#CBCBCC" id="mlf" d="M225 164c0 2.978-2.995 2-4 2-.427 0-3-6.112-3-7 3.546 0 5.464 4 7 4v1ZM231 165l4 2 3-7c0-2.662-4.329 0-5 0l-1 1v1l-1 1v2Z"/><path fill="#FF64FF" id="MB" d="m233 160-1 1 1-1ZM232 162l-1 1 1-1Z"/><path fill="#CBC9CB" id="scp" d="M193 164c5.512 0 14.768.634 19.5 3 1.297.649 2.67 5.165 1 6-3.853 1.927-8.999 1-12.5 1-15.765 0-8-.37-8-10Z"/><path fill="#FF64FF" id="MB" fill-rule="evenodd" d="m227 170-1 4c0 13.417 10.41-4 1-4m-4 19c2.194 0 4.269 2 5.5 2 .288 0 2.439-2 4.5-2 0-3.298 1.631-8 5-8v-2c-2.339 0-3-9.67-3-12l-4-2-3.5 2-2.5-3c0 2.978-2.995 2-4 2v6l-2 8c2.911 0 4 6.752 4 9Z"/><path fill="#CBC9CB" id="scp" d="m263 164-19.5 3c-1.297.649-2.67 5.165-1 6 4.194 2.097 9.504 1 13.5 1 4.403 0 13.589 1.678 9-7.5l-2-2.5Z"/><path fill="#30B824" id="ENTm2" d="M64 213v1c7.124 0 19.775 12.362 30.5 7 6.776-3.388 10.5-18.935 10.5-25.5 0-1.48 1.909-10.5 3-10.5 0-5.72-2-11.555-2-18-1.222 0-3 9.388-3 11 0 5.867-6.287 25.073-9 30.5-4.51 9.022-22.513-2.5-28-2.5h-1l-1 7Z"/><path fill="#C8C8C8" id="mtg" d="M221 169c-2.45 0-3.434 6-2.5 6l2.5-3v-3ZM236 169c0 1.128.101 6 1.5 6 1.354 0 .075-6-1.5-6Z"/><path fill="#CCC7CC" id="dscp" d="m227 170-1 4c0 13.417 10.41-4 1-4Z"/><path fill="#30B824" id="ENTm2" d="m391 206 1 7c0 2.825-5.863 3.181-7.5 4-6.046 3.023-15.77 7.615-23 4-6.08-3.04-12.5-30.173-12.5-37l2-14c2.357 0 1.264 6.029 2 7.5 4.44 8.881 3.54 20.081 8 29 6.37 12.739 21.922-.5 30-.5Z"/><path fill="#FF64FF" id="MB" d="M298 176c-1.473 0-1 1.952-1 3 1.473 0 1-1.952 1-3Z"/><path fill="#FC90FE" id="VTN" d="M218 181c0 2.293-.997 2-3 2-5.186 0 3-10.538 3-2ZM238 181c0 1.577 1.762 2 3 2 3.064 0 4.489-4-3-4v2Z"/><path fill="#FF64FF" id="MB" d="M159 183h3l-3-4v4ZM295 183h2v-4l-2 4Z"/><path fill="#FD90FE" id="AT" d="M215 187c0 2.706 8 6.216 8 2 0-2.248-1.089-9-4-9l-1 1c0 2.293-.997 2-3 2v4ZM242 187l-4.5 4c-2.116 1.058-2.898-2-4.5-2 0-3.298 1.631-8 5-8 0 1.577 1.762 2 3 2l1 4Z"/><path fill="#FF9B88" id="P" fill-rule="evenodd" d="m148 198-2 2.5 1 3c4.285 8.57 6.305-5.5 1-5.5m20 47c-1.925 0-.787 7-3 7 0-6.055 2.909-14.682 0-20.5-5.879-11.759-6 7.445-6 9.5-3.943 0-2.113 4-4 4 0-5.564.29-9.919-2-14.5-1.26-2.519-3.327-20.5-7.5-20.5-3.453 0-4.594 8.689-5.5 10.5-4.583 9.167.324 28.5 13 28.5 0 2.846-9.323-1.147-10-2.5-1.568-3.136-5.282-15.5-9-15.5l-1-1v-1c0-6.738 7.081-14.662 10-20.5 1.284-2.568-1-6.486-1-8.5l-2-6c2.78 0 5.268 5.116 9.5 3l3.5-5c0 2.663 3.118 2.264 4 .5 1.573-3.145 2-5.635 2-9.5h3l7.5 4c3.47 1.735 9.298-1 12.5-1h2c0 1.517-8.028 3.264-9.5 4-1.826.913-7.611 7-8.5 7 0-9.187-17.33 4.585-10.5 8h6c1.987 0 4.052-1 5.5-1l2 5c-1.991 0-2.931-4.284-5.5-3-8.125 4.063-1.544 23 5.5 23l2 2-3 4.5v9.5Z"/><path fill="#FF64FF" id="MB" d="m294 183-1 1 1-1Z"/><path fill="#FF9B88" id="P" fill-rule="evenodd" d="m307 198-2 3.5c-.653 1.307.506 5.497 2.5 4.5 3.395-1.697 4.225-8-.5-8m-19 47c4.146 0 .233 8 4 8 0-4.857-3.545-15.409-1-20.5 5.264-10.528 7 4.842 7 8.5 2.215 0 1.519 2 3 2a56.935 56.935 0 0 1 6-25.5c.587-1.175 1.344-7.5 3.5-7.5 4.068 0 6.987 12.475 8.5 15.5l-2 11.5 6-7c0-8.142-6.552-16.605-10-23.5-1.558-3.117 2-5.401 2-7.5v-3c-4.318 0-11 2.73-11-5l-1.5 3c-3.671 1.836-5.5-8.997-5.5-11h-3l-1 1c-2.097 0-3.71 2.105-5.5 3-3.436 1.718-9.464-1-12.5-1h-2c0 1.517 8.028 3.264 9.5 4l7.5 7c0-9.791 16.781 5.36 11.5 8h-7c-2.389 0-3.834-2-5.5-2l-1 6c2.648 0 1.978-4.261 6.5-2 3.801 1.9 1.807 21-7.5 21 0 1.238-.423 3-2 3 0 .427 3.345 5.19 4 6.5l-1 7.5Z"/><path fill="#31B625" id="ENTm1" d="M393 213c0 1.622-.461 5 2 5l-7.5 4c-4.43 2.215-20.411 8.795-26 6-8.735-4.367-16.5-27.7-16.5-37l4-7c0 6.827 6.42 33.96 12.5 37 7.23 3.615 16.954-.977 23-4 1.637-.819 7.5-1.175 7.5-4h1ZM64 214l-2 4c0 1.615 5.22 3.36 6.5 4 4.345 2.173 20.511 8.745 26 6 8.849-4.425 16.5-25.034 16.5-35 0-1.654-1.198-8-3-8-1.091 0-3 9.02-3 10.5 0 6.565-3.724 22.112-10.5 25.5-10.725 5.362-23.376-7-30.5-7Z"/><path fill="#FF64FF" id="MB" d="M182 186h1v-1l-1 1Z"/><path fill="#FF8FFD" id="MRN" d="M183 186h1c1.048 0 3 .473 3-1h-4v1Z"/><path fill="#FFC295" id="PRNr" d="M207 247c-9.59 0-20.076 1-29 1 0-4.407-1.431-17-7-17l-2-2v-20l-2-5-1-7c.889 0 6.674-6.087 8.5-7 1.472-.736 9.5-2.483 9.5-4 1.048 0 3 .473 3-1h11.5l4.5 2 2 2c0 3.623 3.34 17.18 5 20.5.706 1.411.386 5.5 3 5.5l3 8.5c1.602 3.204-3 5.152-3 7.5-8.974 0-6 11.468-6 16ZM249 247c9.92 0 20.748 1 30 1 0-4.362 1.156-17 6-17 1.577 0 2-1.762 2-3 0-6.318 1-13.322 1-19l1-6c0-1.564 1-3.876 1-6l-7.5-7c-1.472-.736-9.5-2.483-9.5-4l-14.5-1-5.5 2-1 2c0 2.85-6.824 26-9 26 0 1.424-.362 5-2 5v1c0 3.526 2 8.954 2 10 10.422 0 6 12.342 6 16Z"/><path fill="#FF64FF" id="MB" d="M273 186h2l-2-1v1Z"/><path fill="#FF9B88" id="P" d="M205 187v2l-2-2h2Z"/><path fill="#C8C8CC" id="tspc" d="m215 213-2 2c-2.614 0-2.294-4.089-3-5.5-1.66-3.32-5-16.877-5-20.5v-2l3 1c0 2.063 3.035 14 5 14l2 11Z"/><path fill="#FFC393" id="CS" d="M241 220v1c-.214 0-2.467 13.016-10.5 9l-2-12c-2.786 0-.934 10.967-3 12-8.844 4.422-10.5-11.932-10.5-17l-2-11c0-4.121-1-9.275-1-14 0-1.473 1.952-1 3-1 0 2.706 8 6.216 8 2 2.194 0 4.269 2 5.5 2 .288 0 2.439-2 4.5-2 1.602 0 2.384 3.058 4.5 2l4.5-4 2 1v13c0 3.956-2 7.497-2 12-1.714 0-1 5.594-1 7Z"/><path fill="#C8C8CC" id="tspc" d="m242 213 1 2c2.176 0 9-23.15 9-26l-1-2-2 1c0 1.338-4.256 13-5 13 0 3.956-2 7.497-2 12Z"/><path fill="#FF9B88" id="P" d="m253 187-1 2-1-2h2ZM212 188c0 4.725 1 9.879 1 14-1.965 0-5-11.937-5-14h4ZM249 188c0 1.338-4.256 13-5 13v-13h5Z"/><path fill="#F0F080" id="CB" d="M136 195c-2.997 0-6.742 4-9 4 0-5.686 2.356-8 8-8l1 4ZM321 195c0 .144 7.359 3 8 3 0-4.729-2.271-7-7-7l-1 4Z"/><path fill="#FF9B88" id="P" d="m317 193-1 1 1-1Z"/><path fill="#FEBA86" id="SUT" d="m166 197 1 7c-1.448 0-3.513 1-5.5 1h-6c-6.83-3.415 10.5-17.187 10.5-8ZM290 197c0 2.124-1 4.436-1 6 1.666 0 3.111 2 5.5 2h7c5.281-2.64-11.5-17.791-11.5-8Z"/><path fill="#CCCCCA" id="mcp" d="M128 226c1.947 0 2.636 3 5 3 0-6.738 7.081-14.662 10-20.5 1.284-2.568-1-6.486-1-8.5l-6-5c-2.997 0-6.742 4-9 4v2l-1 1v3c0 7.375 2 14.579 2 21Z"/><path fill="#FF9B88" id="P" d="m316 195-1 1 1-1Z"/><path fill="#CCCCCA" id="mcp" d="M329 226c-2.773 0-3.67 4-6 4 0-8.142-6.552-16.605-10-23.5-1.558-3.117 2-5.401 2-7.5 3.086 0 2.914-4 6-4 0 .144 7.359 3 8 3v1l1 2v2l1 1v7l-2 15Z"/><path fill="#CBC7CC" id="sctv" d="m148 198-2 2.5 1 3c4.285 8.57 6.305-5.5 1-5.5ZM307 198l-2 3.5c-.653 1.307.506 5.497 2.5 4.5 3.395-1.697 4.225-8-.5-8Z"/><path fill="#F0F080" id="CB" d="m329 199 1 2-1-2ZM127 201l-1 1 1-1ZM330 203l1 1-1-1ZM123 227h1l4-1c0-6.421-2-13.625-2-21-1.643 0-1 3.765-1 5 0 6.332-2 11.194-2 17Z"/><path fill="#FEB886" id="P5" d="M169 209c-1.991 0-2.931-4.284-5.5-3-8.125 4.063-1.544 23 5.5 23v-20ZM288 209c2.648 0 1.978-4.261 6.5-2 3.801 1.9 1.807 21-7.5 21 0-6.318 1-13.322 1-19Z"/><path fill="#FFAE6F" id="PSV" d="m155 246-2 3c-12.676 0-17.583-19.333-13-28.5.906-1.811 2.047-10.5 5.5-10.5 4.173 0 6.24 17.981 7.5 20.5 2.29 4.581 2 8.936 2 14.5v1ZM311 247c-1.238 0-3 .423-3 2-3.667 0-6.811-3-7-3v-3a56.935 56.935 0 0 1 6-25.5c.587-1.175 1.344-7.5 3.5-7.5 4.068 0 6.987 12.475 8.5 15.5l-2 11.5-1 2c-1.473 0-1 1.952-1 3-1.577 0-2 1.762-2 3-1.747 0-2 .253-2 2Z"/><path fill="#F0F080" id="CB" d="M333 226v2l-4-2 2-15c1.03 0 2 13.251 2 15Z"/><path fill="#FF9B88" id="P" d="m226 251-2.5-2c-3.29 1.645-1.235 8-6.5 8 0-.608 5.514-7 2-7l6-3.5c1.076-2.152.982-4.035 0-6-3.639-7.278 3.769-9.5-12-9.5 0-2.348 4.602-4.296 3-7.5l-3-8.5 2-2c0 5.068 1.656 21.422 10.5 17 2.066-1.033.214-12 3-12l2 12c8.033 4.016 10.286-9 10.5-9 0 3.526 2 8.954 2 10-7.578 0-12 .504-12 9v5.5l6 4.5c0 4.024 2 4.467 2 7-5.596 0-2.367-8-8-8l-2.5-3c-1.902-.951-2.5 3.784-2.5 5ZM243 215c0 1.424-.362 5-2 5 0-1.406-.714-7 1-7l1 2Z"/><path fill="#CACACB" id="sV" d="M134 231c3.718 0 7.432 12.364 9 15.5.677 1.353 10 5.346 10 2.5 4.039 0 2.95 6.775.5 8-3.724 1.862-11.376.812-15-1-14.738-7.369-14.5-14.678-14.5-29l4-1c1.947 0 2.636 3 5 3v1l1 1ZM311 247c0 1.577-1.762 2-3 2 0 2.281-10.278-1.055-8 3.5 5.931 11.862 26.153 1.695 31-8 2.473-4.946 2-10.513 2-16.5l-4-2c-2.773 0-3.67 4-6 4l-6 7-1 2c0 1.048.473 3-1 3 0 1.238-.423 3-2 3 0 1.747-.253 2-2 2Z"/><path fill="#FF9B88" id="P" d="M299 261c5.131 0 0 10.643 0 12 3.954 0 6.313-6.906 10.5-9 8.128-4.064 20.221-8.942 24.5-17.5 1.857-3.714 1.86-13.279 0-17-.523-1.046.951-3.5-1-3.5v2c0 5.987.473 11.554-2 16.5-4.847 9.695-25.069 19.862-31 8-2.278-4.555 8-1.219 8-3.5-3.667 0-6.811-3-7-3 0 2.681-2.078 1-3 1l1 14ZM165 279c1.432 0 9 6.261 9 8-7.284 0-16.409-16.455-23.5-20-4.785-2.392-24.729-12.958-27.5-18.5-3.366-6.732 0-15.064 0-21.5h1c0 14.322-.238 21.631 14.5 29 3.624 1.812 11.276 2.862 15 1 2.45-1.225 3.539-8-.5-8l2-3 2.5 2 1.5-2c0 5.239-2 9.279-2 15l-2 4.5c-1.657 3.313 6.33 13.5 10 13.5Z"/><path fill="#C8C8CB" id="rust" d="M157 261h1c3.041 0 2.477-2 5-2v-1c0-1.048-.473-3 1-3l1-2v-1c0-6.055 2.909-14.682 0-20.5-5.879-11.759-6 7.445-6 9.5v5c0 5.239-2 9.279-2 15ZM292 254c1.443 0 .768 7 7 7l-1-14v-6c0-3.658-1.736-19.028-7-8.5-2.545 5.091 1 15.643 1 20.5v1Z"/><path fill="#CCCCCA" id="mcp" d="m133 230 1 1-1-1Z"/><path fill="#C9C9CB" id="ll" d="M172 257h2c0-1.577 1.762-2 3-2l2-1.5-1-5.5c0-4.407-1.431-17-7-17l-3 4.5V246l1 1v6l3 4Z"/><path fill="#FEBA85" id="TRN" d="M207 247c3.293 0 6.435 3 12 3l6-3.5c1.076-2.152.982-4.035 0-6-3.639-7.278 3.769-9.5-12-9.5-8.974 0-6 11.468-6 16ZM249 247c-1.646 0-6.85 3-12 3l-6-4.5V240c0-8.496 4.422-9 12-9 10.422 0 6 12.342 6 16Z"/><path fill="#C9C9CB" id="ll" d="M283 257h1l2-2 1-2 1-8 1-7.5c-.655-1.31-4-6.073-4-6.5-4.844 0-6 12.638-6 17l-2 4.5 2 2.5 4 2Z"/><path fill="#FF9B88" id="P" d="m317 237-1 2 1-2ZM316 239c-1.473 0-1 1.952-1 3 1.473 0 1-1.952 1-3Z"/><path fill="#FDB986" id="PC5" d="m155 246 2.5 2 1.5-2v-5c-3.943 0-2.113 4-4 4v1ZM301 246c0 2.681-2.078 1-3 1v-6c2.215 0 1.519 2 3 2v3Z"/><path fill="#FF9B88" id="P" d="M315 242c-1.577 0-2 1.762-2 3 1.577 0 2-1.762 2-3Z"/><path fill="#FEAE6E" id="SOCl" d="M171 259c0 2.722 5.84 18-2 18l-6-8.5V258c1.473 0 1-1.952 1-3l1-2v-1c2.213 0 1.075-7 3-7v1l1 1v6c0 1.974 2 3.517 2 6ZM285 258c0 3.33-5.419 19 2 19 0-.995 5.097-5.694 6-7.5 2.045-4.091-1-11.676-1-15.5v-1c-3.767 0 .146-8-4-8l-1 8-1 2-1 3Z"/><path fill="#FF9B88" id="P" d="M313 245c-1.747 0-2 .253-2 2 1.747 0 2-.253 2-2ZM168 246l1 1-1-1Z"/><path fill="#FFC5E2" id="RM" d="M226 258h5v-9l-2.5-3c-1.902-.951-2.5 3.784-2.5 5v7Z"/><path fill="#FDBA86" id="PRNc" d="M193 261h17l5-3 1-1h1c0-.608 5.514-7 2-7-5.565 0-8.707-3-12-3-9.59 0-20.076 1-29 1l1 5.5-2 1.5v1c5.858 0 10.523 4 13 4l3 1ZM263 261h2l1-1c4.107 0 7.73-4 13-4v-1l-2-2.5 2-4.5c-9.252 0-20.08-1-30-1-1.646 0-6.85 3-12 3 0 4.024 2 4.467 2 7h1l7 4h16Z"/><path fill="#FF9B88" id="P" d="M311 247c-1.238 0-3 .423-3 2 1.238 0 3-.423 3-2Z"/><path fill="#CACCC8" id="ml" d="M226 258c0 11.544-11 13.504-11 2v-2l1-1h1c5.265 0 3.21-6.355 6.5-8l2.5 2v7ZM231 258c0 11.794 10 13.389 10 2l-1-3h-1c-5.596 0-2.367-8-8-8v9Z"/><path fill="#FF9B88" id="P" d="m165 253-1 2 1-2ZM172 257l-1 2c0-2.483-2-4.026-2-6l3 4ZM287 253l-1 2 1-2Z"/><path fill="#FF9B88" id="P" fill-rule="evenodd" d="M285 283c0 1.93 1.93 0 0 0m1-1c0 1.93 1.93 0 0 0m1-1c0 1.93 1.93 0 0 0m1-1c0 1.93 1.93 0 0 0m1-1c0 1.93 1.93 0 0 0m1-1c0 1.93 1.93 0 0 0m-5 7c0 1.577-1.762 2-3 2 0-1.577 1.729-2-1-2 0-2.766 6-3.652 6-8 0-.995 5.097-5.694 6-7.5 2.045-4.091-1-11.676-1-15.5 1.443 0 .768 7 7 7l-2 2.5c-2.157 4.315-2.766 9.532-5 14l1 1.5c0 1.89-6.374 6-8 6Z"/><path fill="#FF9B88" id="P" d="M164 255c-1.473 0-1 1.952-1 3 1.473 0 1-1.952 1-3ZM174 257h2l1-1v-1c-1.238 0-3 .423-3 2ZM283 257l-3 1-1-2v-1l4 2ZM284 257l1 1 1-3-2 2Z"/><path fill="#FFAD6E" id="SOCm" d="m193 270-2 4c-6.853 0-15-10.856-15-17l1-1c5.858 0 10.523 4 13 4l2 3c0 2.409 1 5.181 1 7ZM264 272l2 2c5.918 0 14-10.622 14-16l-1-2c-5.27 0-8.893 4-13 4l-1 1c0 1.145.579 4-1 4v7Z"/><path fill="#FEAD6F" id="POR" d="M191 274c0 4.637 5.53.439 2 7.5-3.401 6.802-24 4.56-24-4.5 7.84 0 2-15.278 2-18l1-2h4c0 6.144 8.147 17 15 17Z"/><path fill="#FF9B88" id="P" d="m216 257-1 1 1-1ZM243 261h4l-7-4 1 3 2 1Z"/><path fill="#FEAD6F" id="POR" d="M287 277c0 4.348-6 5.234-6 8-6.396 0-15.629 1.242-19-5.5-1.545-3.09 4-3.915 4-5.5 5.918 0 14-10.622 14-16l3-1h1l1 1c0 3.33-5.419 19 2 19Z"/><path fill="#FF9B88" id="P" d="M210 261h3l2-1v-2l-5 3Z"/><path fill="#FF9BCD" id="MY" d="M257 283h2c0-3.519 2-5.843 2-9-2.176 0-17.381-7.261-18-8.5V261l-2-1c0 11.389-10 9.794-10-2h-5c0 11.544-11 13.504-11 2l-2 1 1 3.5c-1.501 3.003-15.527 9.5-19 9.5 0 2.755 2 5.553 2 9h3c0-7.016 12.653-17.193 17-8.5l-2 5.5c3.894 0 8.36-12.57 17.5-8 3.51 1.755 6.312 9 10.5 9 0-2.348-4.602-4.296-3-7.5 3.923-7.845 17 3.805 17 9.5Z"/><path fill="#FF9B88" id="P" d="M165 278c3.3 0 10.319 7.409 13.5 9 5.184 2.592 13.723-4 18.5-4 0-3.447-2-6.245-2-9-2.109 0-2-2.535-2-4l-2 4c0 4.637 5.53.439 2 7.5-3.401 6.802-24 4.56-24-4.5l-6-8.5V259c-2.523 0-1.959 2-5 2 0 2.193 5.893 17 7 17ZM193 261l-1 2-2-3 3 1ZM266 260l-1 1 1-1Z"/><path fill="#CBC7CC" id="sctv" d="M165 278v1c-3.67 0-11.657-10.187-10-13.5l2-4.5h1c0 2.193 5.893 17 7 17Z"/><path fill="#FEA3D2" id="NTB" d="M193 270c0 1.465-.109 4 2 4 3.473 0 17.499-6.497 19-9.5l-1-3.5h-20l-1 2c0 2.409 1 5.181 1 7ZM264 272c-1.481 0-.785 2-3 2-2.176 0-17.381-7.261-18-8.5V261h20l1 4v7Z"/><path fill="#FF9B88" id="P" d="M265 261c0 1.145.579 4-1 4l-1-4h2Z"/><path fill="#CBC7CC" id="sctv" d="M293 279h1l1-1 1-1 1-1v-1l2-2c0-1.357 5.131-12 0-12l-2 2.5c-2.157 4.315-2.766 9.532-5 14l1 1.5Z"/><path fill="#C7C9C9" id="py" d="M214 281c-2.029 0-1.881 1.191-3.5 2H200c0-7.016 12.653-17.193 17-8.5l-2 5.5-1 1ZM243 281l3.5 2H257c0-5.695-13.077-17.345-17-9.5-1.602 3.204 3 5.152 3 7.5Z"/><path fill="#CCC7CB" id="tb" d="M279 288h1l2-1c0-1.577 1.729-2-1-2 0 1.353-4.643 2-6 2-5.093 0-11.148-4-16-4h-12.5l-3.5-2c-4.188 0-6.99-7.245-10.5-9-9.14-4.57-13.606 8-17.5 8l-1 1c-2.029 0-1.881 1.191-3.5 2H197c-4.777 0-13.316 6.592-18.5 4-3.181-1.591-10.2-9-13.5-9v1c1.432 0 9 6.261 9 8h1l2 1h19l1-1c5.421 0 11.091-1 17-1l7-1 1-1 6.5-3 8.5 4 1 1h4l18 1 1 1h18Z"/><path fill="#FF9B88" id="P" d="M259 283c4.852 0 10.907 4 16 4 1.357 0 6-.647 6-2-6.396 0-15.629 1.242-19-5.5-1.545-3.09 4-3.915 4-5.5l-2-2c-1.481 0-.785 2-3 2 0 3.157-2 5.481-2 9ZM299 273l-2 2c1.747 0 2-.253 2-2ZM297 276l-1 1 1-1Z"/><path fill="#CCC7CB" id="tb" d="M290 278c0 1.93 1.93 0 0 0Z"/><path fill="#FF9B88" id="P" d="m295 278-1 1 1-1Z"/><path fill="#CCC7CB" id="tb" d="M289 279c0 1.93 1.93 0 0 0Z"/><path fill="#FF9BCD" id="MY" d="m215 280-1 1 1-1Z"/><path fill="#CCC7CB" id="tb" d="M288 280c0 1.93 1.93 0 0 0ZM287 281c0 1.93 1.93 0 0 0ZM286 282c0 1.93 1.93 0 0 0ZM285 283c0 1.93 1.93 0 0 0Z"/><path fill="#FF9BCD" id="MY" d="m222 284-1 1 1-1ZM237 285l1 1-1-1ZM197 287v1l13-1c1.145 0 4 .579 4-1-5.909 0-11.579 1-17 1ZM260 287v1l-14-1c-1.145 0-4 .579-4-1l18 1Z"/><path fill="#FF9B88" id="P" d="m175 287 2 1-2-1ZM196 288h1v-1l-1 1ZM260 288h1l-1-1v1ZM282 287l-2 1 2-1ZM178 288h16c0 1.649-16 1.649-16 0ZM262 288h17c0 1.65-17 1.65-17 0Z"/></svg>