<svg xmlns="http://www.w3.org/2000/svg" viewBox="0 0 456 320"><path fill="#1BA696" id="RSPagl1" d="M178 19h12.5l4.5-2-1-4c-5.781 0-9.994 2-16 2v4Z"/><path fill="#1BA598" id="RSPd1" d="m227 31-4 2c0-3.239-2.681-3.862-4-6.5-4.611-9.221-14.512-9.5-24-9.5l-1-4c10.557 0 15.927 1.714 24.5 6l3.5 5.5c1.851 1.851 5 4.427 5 6.5ZM229 31l4 2c0-11.548 17.96-16 28-16h1v-4c-12.687 0-23.026 1.551-29 13.5l-4 4.5Z"/><path fill="#1BA696" id="RSPagl1" d="M262 17c0 2.155 13.194 2 16 2v-4c-6.006 0-10.219-2-16-2v4Z"/><path fill="#187C64" id="SSp-tr1" d="M127 33h2c0-2.707 7.748-3.124 9.5-4 9.626-4.813 22.448-5.224 30-9 1.566-.783 9.5 1.35 9.5-1v-4c-10.121 0-33.498 3.999-41.5 8-2.118 1.059-11.778 6-13.5 6l4 4ZM328 33h2c0-3.222 3-.778 3-4 0-2.452-10.532-4.016-12.5-5-11.261-5.63-28.927-9-42.5-9v5c14.385 0 27.586 3.043 39.5 9 1.765.883 10.5 1.45 10.5 4Z"/><path fill="#1AA496" id="RSPagl2/3" d="M180 30h1c4.996 0 8.797-4 14-4v-9l-4.5 2H179l1 11Z"/><path fill="#1BA697" id="RSPd2/3" d="m223 33-6 3c0-10.451-14.631-10-22-10v-9c9.488 0 19.389.279 24 9.5 1.319 2.638 4 3.261 4 6.5ZM233 33l6 3c0-10.165 14.696-10 22-10v-9c-10.04 0-28 4.452-28 16Z"/><path fill="#1AA496" id="RSPagl2/3" d="M276 29v2c-4.775 0-9.519-5-15-5v-9h1c0 2.155 13.194 2 16 2v1c-.695 0-2 8.108-2 9Z"/><path fill="#188061" id="SSp-tr2/3" d="M138 41h1c3.195 0 7.694-2.597 10.5-4 5.224-2.612 24.207-7 30.5-7l-1-11h-1c0 2.35-7.934.217-9.5 1-7.552 3.776-20.374 4.187-30 9-1.752.876-9.5 1.293-9.5 4l2 4c2.565 0 3.909 4 7 4ZM317 41h1c3.091 0 4.435-4 7-4l3-4c0-2.55-8.735-3.117-10.5-4-11.914-5.957-25.115-9-39.5-9-.695 0-2 8.108-2 9l3.5 2c4.162 2.08 10.761-.12 15 2 4.026 2.013 18.505 8 22.5 8Z"/><path fill="#1CA697" id="RSPagl5" d="M195 39c-4.04 0-7.639 5-12 5-1.682 0-2-10.911-2-13v-1c4.996 0 8.797-4 14-4v13Z"/><path fill="#1AA596" id="RSPd5" d="M195 39c5.824 0 12-1.469 12 6 4.18 0 5.37-8 10-8v-1c0-10.451-14.631-10-22-10v13ZM262 39c-5.793 0-13-1.502-13 6-3.735 0-6.491-8-10-8v-1c0-10.165 14.696-10 22-10l1 13Z"/><path fill="#1CA697" id="RSPagl5" d="m262 39 12 6c0-4.504 2-9.733 2-14-4.775 0-9.519-5-15-5l1 13Z"/><path fill="#1B8062" id="SSp-un1" d="M119 37h1l7-4-4-4-5 2 1 6Z"/><path fill="#1B7E62" id="SSp-tr4" d="M311 45h2c1.634 0 4-2.635 4-4-3.995 0-18.474-5.987-22.5-8-4.239-2.12-10.838.08-15-2l-3.5-2v2c4.813 0 29.112 14 35 14Z"/><path fill="#1B8062" id="SSp-un1" d="M330 33c0 1.43 5.655 3 7 3l2-5c-2.447 0-3.28-2-6-2 0 3.222-3 .778-3 4Z"/><path fill="#1B7E62" id="SSp-tr4" d="M144 45h1l36-14v-1h-1c-6.293 0-25.276 4.388-30.5 7-2.806 1.403-7.305 4-10.5 4 0 1.644 3.441 4 5 4Z"/><path fill="#188060" id="SSp-bfd1" d="m53 83 4 2c0-4.214 9.865-12.365 13-15.5 9.41-9.41 36.891-32.5 49-32.5l-1-6c-3.904 0-9.055 4.278-12.5 6C93.907 42.797 70.511 55.477 64 68.5c-2.442 4.884-11 8.779-11 14.5Z"/><path fill="#197F60" id="SSp-tr5" d="M159 53h1c0-1.993 5.2-1.35 6.5-2 4.197-2.099 11.765-6 16.5-6v-1c-1.682 0-2-10.911-2-13l-36 14 3 2 11 6Z"/><path fill="#1BA597" id="RSPv1" d="M229 76h3c0-14.597 1-29.249 1-43l-4-2c0 1.93-1.161 0-2 0l-4 2c0 13.931 1 29.415 1 43 1.048 0 3 .473 3-1 0-3.795 2-2.577 2 1Z"/><path fill="#197F60" id="SSp-tr5" d="M309 47c-4.331 0-7.452 5-12 5-7.318 0-17.42-7-23-7 0-4.504 2-9.733 2-14 4.813 0 29.112 14 35 14l-2 2Z"/><path fill="#188060" id="SSp-bfd1" d="M399 85h1l3-3c0-6.243-11.263-12.027-14-17.5-4.807-9.615-27.633-22.566-37.5-27.5L339 31l-2 5v1c12.235 0 47.655 26.81 52 35.5 2.201 4.403 10 8.175 10 12.5Z"/><path fill="#1C7F63" id="SSp-un2/3" d="M133 44c-3.372 0-6.053 3-10 3 0-2.662-3-6.379-3-10l7-4h2l2 4 2 6v1Z"/><path fill="#1AA597" id="RSPv2/3" d="M221 76h3c0-13.585-1-29.069-1-43l-6 3v1c0 3.399 1.089 28.678 2 30.5 1.164 2.329 2 5.778 2 8.5ZM232 76h4c0-12.967 3-25.404 3-39v-1l-6-3c0 13.751-1 28.403-1 43Z"/><path fill="#1C7F63" id="SSp-un2/3" d="M323 44c3.686 0 6.177 3 10 3 .567 0 4-8.99 4-10v-1c-1.345 0-7-1.57-7-3h-2l-3 4-2 6v1Z"/><path fill="#187F63" id="SSp-bfd2/3" d="M64 94h1c0-4.645 6.013-8.526 8-12.5C78.64 70.219 111.083 48 123 48v-1c0-2.662-3-6.379-3-10h-1c-12.109 0-39.59 23.09-49 32.5-3.135 3.135-13 11.286-13 15.5v1c0 2.634 7 4.253 7 8Z"/><path fill="#197F61" id="SSp-ul2/3" d="M138 41c0 1.638-3.576 2-5 2l-2-6c2.565 0 3.909 4 7 4Z"/><path fill="#1BA498" id="RSPv5" d="m215 73 6 3c0-2.722-.836-6.171-2-8.5-.911-1.822-2-27.101-2-30.5-4.63 0-5.82 8-10 8v2c0 8.3 6 16.34 6 24l2 2ZM242 73l-6 3c0-12.967 3-25.404 3-39 3.509 0 6.265 8 10 8v1c0 8.752-5 16.596-5 24l-1 1-1 2Z"/><path fill="#197F61" id="SSp-ul2/3" d="M318 41c0 1.638 3.576 2 5 2l2-6c-2.565 0-3.909 4-7 4Z"/><path fill="#187F63" id="SSp-bfd2/3" d="M399 85c0 1.539-5.497 8-7 8l-11.5-16-10-10c-10.062-5.03-26.348-19-37.5-19v-1c.567 0 4-8.99 4-10 12.235 0 47.655 26.81 52 35.5 2.201 4.403 10 8.175 10 12.5Z"/><path fill="#1CA597" id="RSPagl6a" d="M185 57h1l8-3c0-5.565 1-10.955 1-15-4.04 0-7.639 5-12 5v1c0 4.527 2 7.754 2 12Z"/><path fill="#1AA697" id="RSPd6a" d="M200 56h1c0-1.654 4.228-9 6-9v-2c0-7.469-6.176-6-12-6 0 4.045-1 9.435-1 15h1c0-1.538 5 .96 5 2ZM256 56h1c0-3.037 4.091-2 5-2V39c-5.793 0-13-1.502-13 6v1l7 10Z"/><path fill="#1CA597" id="RSPagl6a" d="m262 54 9 3 3-12-12-6v15Z"/><path fill="#1A7F63" id="SSp-ul4" d="M144 45c0 2.066-6.92 4-9 4-.672 0-2-4.33-2-5v-1c1.424 0 5-.362 5-2h1c0 1.644 3.441 4 5 4ZM313 45c0 1.197 7.528 5 9 5l1-6v-1c-1.424 0-5-.362-5-2h-1c0 1.365-2.366 4-4 4Z"/><path fill="#197E61" id="SSp-un4" d="m135 50-9 4-3-6v-1c3.947 0 6.628-3 10-3 0 .67 1.328 5 2 5v1ZM322 50l9 5 2-7v-1c-3.823 0-6.314-3-10-3l-1 6Z"/><path fill="#187E62" id="SSp-ul5" d="m149 56-12 5c0-4.242-2-6.596-2-11v-1c2.08 0 9-1.934 9-4h1l3 2 1 9Z"/><path fill="#188063" id="SSp-tr6a" d="M173 60h1c3.771 0 7.478-3 11-3 0-4.246-2-7.473-2-12-4.735 0-12.303 3.901-16.5 6-1.3.65-6.5.007-6.5 2 2.029 0 13 4.766 13 7ZM271 57l12 3c0-2.61 9.572-5 10.5-5 1.045 0 1.861-2 3.5-2v-1c-7.318 0-17.42-7-23-7l-3 12Z"/><path fill="#187E62" id="SSp-ul5" d="m307 56 12 4 3-10c-1.472 0-9-3.803-9-5h-2l-2 2-2 8v1Z"/><path fill="#1AA498" id="RSPv6a" d="m248 67-4 3c0-7.404 5-15.248 5-24l7 10c0 3.398-7 5.13-7 9l-1 2Z"/><path fill="#197C63" id="SSp-ll5" d="M159 53c-3.947 0-6.628 3-10 3l-1-9 11 6Z"/><path fill="#1AA498" id="RSPv6a" d="m209 67 4 4c0-7.66-6-15.7-6-24-1.772 0-6 7.346-6 9 0 4.174 8 6.657 8 11Z"/><path fill="#197C63" id="SSp-ll5" d="m297 53 10 2 2-8c-4.331 0-7.452 5-12 5v1Z"/><path fill="#197C64" id="SSp-bfd4" d="M70 99h1c0-4.016 8.611-10.111 11.5-13 9.344-9.344 19.516-17.258 31-23l12.5-8v-1l-3-6c-11.917 0-44.36 22.219-50 33.5-1.987 3.974-8 7.855-8 12.5l5 5ZM386 99h1c0-1.26 3.346-5 5-5v-1l-11.5-16-10-10c-10.062-5.03-26.348-19-37.5-19l-2 7 10.5 7c8.697 4.349 30.125 17.75 34.5 26.5 1.868 3.737 10 6.085 10 10.5Z"/><path fill="#197D62" id="SSp-un5" d="m137 61-8 3-3-9v-1l9-4c0 4.404 2 6.758 2 11ZM319 61l8 3c.496 0 4-8.025 4-9l-9-5-3 10v1Z"/><path fill="#1A7F64" id="SSp-ll6a" d="M173 60c0 2.064-3.353.426-4.5 1-4.776 2.388-11.969 6-17.5 6 0-3.291-2-7.508-2-11 3.372 0 6.053-3 10-3h1c2.029 0 13 4.766 13 7Z"/><path fill="#1BA698" id="RSPd6b" d="M200 56v1c-1.624 0-2.75-2-5-2v-1c0-1.538 5 .96 5 2ZM262 55l-5 1c0-3.037 4.091-2 5-2v1Z"/><path fill="#1A7F64" id="SSp-ll6a" d="M283 60c7.677 0 14.954 7 23 7l1-11v-1l-10-2c-1.639 0-2.455 2-3.5 2-.928 0-10.5 2.39-10.5 5Z"/><path fill="#1AA598" id="RSPagl6b" d="M186 57v1l9-3v-1h-1l-8 3ZM271 57v1c-3.283 0-6.01-3-9-3v-1l9 3Z"/><path fill="#1A7D62" id="SSp-bfd5" d="M71 99c0 3.442 8 6.167 8 8l14-17.5 9.5-6.5c5.833-2.917 19.219-18 26.5-18v-1l-3-9-12.5 8c-11.484 5.742-21.656 13.656-31 23C79.611 88.889 71 94.984 71 99Z"/><path fill="#CACCC7" id="cing" d="m213 71 2 2c-7.781 0-15.903-7.701-22.5-11-5.375-2.688-19.607 4-25.5 4l-1 1h-3l-1-1c0-2.788 12-2.556 12-5 4.597 0 8.146-3 12-3l9-3c2.25 0 3.376 2 5 2 0 1.626 7.125 10 9 10l4 4ZM243 71l-1 2c5.378 0 17.185-8.343 22.5-11 5.1-2.55 18.904 4 24.5 4l2 1h2l2-1c0-2.343-13-2.563-13-5-2.042 0-11-1.352-11-3-3.283 0-6.01-3-9-3l-5 1c0 1.938-5.842 9-8 9l-1 2-4 3-1 1Z"/><path fill="#1A7D62" id="SSp-bfd5" d="M386 99c0 1.067-7.174 8-9 8 0-4.582-8.004-8.508-10-12.5-4.469-8.938-20.954-18.727-30.5-23.5-3.077-1.538-5.884-6-9.5-6v-1c.496 0 4-8.025 4-9l10.5 7c8.697 4.349 30.125 17.75 34.5 26.5 1.868 3.737 10 6.085 10 10.5Z"/><path fill="#197D61" id="SSp-ul6a" d="M139 73h1l11-5v-1c0-3.291-2-7.508-2-11l-12 5c0 4.11 2 7.296 2 12Z"/><path fill="#1AA497" id="RSPv6b" d="M200 57c0 1.626 7.125 10 9 10 0-4.343-8-6.826-8-11h-1v1ZM257 56c0 1.938-5.842 9-8 9 0-3.87 7-5.602 7-9h1Z"/><path fill="#197D61" id="SSp-ul6a" d="m306 68 11 5 2-12v-1l-12-4-1 11v1Z"/><path fill="#1A8063" id="SSp-tr6b" d="M174 60v1c4.597 0 8.146-3 12-3v-1h-1c-3.522 0-7.229 3-11 3ZM283 60l-1 1c-2.042 0-11-1.352-11-3v-1l12 3Z"/><path fill="#197F62" id="SSp-ll6b" d="M151 68v1c3.522 0 7.229-3 11-3 0-2.788 12-2.556 12-5v-1h-1c0 2.064-3.353.426-4.5 1-4.776 2.388-11.969 6-17.5 6v1ZM306 68l-1 1-10-3c0-2.343-13-2.563-13-5l1-1c7.677 0 14.954 7 23 7v1Z"/><path fill="#1A7F61" id="SSp-un6a" d="M133 77h2l4-4c0-4.704-2-7.89-2-12l-8 3v1c1.713 0 4 10.639 4 12ZM317 74l6 3c0-3.795 4-8.393 4-12v-1l-8-3-2 12v1Z"/><path fill="#C9C7C9" id="ccb" d="M381 167h4v-2l-1-2v-1c-1.473 0-1-1.952-1-3v-1c-2.278 0-4.957-12.413-6-14.5-4.07-8.139-17.721-33.111-26.5-37.5-9.958-4.979-22.327-21.164-34-27-5.77-2.885-11.284-6.142-17-9-1.265-.632-6.5-1.278-6.5-3h-2l-2-1c-5.596 0-19.4-6.55-24.5-4-5.315 2.657-17.122 11-22.5 11l-6 3h-7l-2-1c0 1.473-1.952 1-3 1h-3l-6-3c-7.781 0-15.903-7.701-22.5-11-5.375-2.688-19.607 4-25.5 4l-1 1h-3c0 1.845-3.381 1.44-4.5 2-5.758 2.88-11.245 6.123-17 9l-28 21c-8.381 4.191-26.693 28.886-30.5 36.5-1.032 2.064-3.184 12.5-6 12.5 0 2.091-1.912 11-4 11v1c0 1.048.473 3-1 3v4h3c.672 0 2-4.329 2-5 0-5.682 2.613-11.725 5-16.5 6.005-12.01 26.463-42.5 41-42.5 0-3.611 12.624-15 16-15 0-2.823 7.304-9 10-9 0-3.53 8.725-5.613 11.5-7 8.096-4.048 23.306-9.347 32-5 4.354 2.177 16.518 15 21.5 15 3.125 0 12.25 3.125 14.5 2 3.787-1.893 10.049-2 14.5-2l3-1c0-2.804 8.529-7.014 10.5-8 4.131-2.066 9.158-8 15-8 11.652 0 24.131 7.066 34 12 2.078 1.04 11.5 7.267 11.5 10 1.755 0 16 13.605 16 16 8.634 0 15.165 7.665 21 13.5 10.687 10.687 27 34.812 27 50.5Z"/><path fill="#198060" id="SSp-bfd6a" d="M90 117h1c0-1.984 1.444-6 4-6 0-1.747.253-2 2-2l2-2c0-1.747.253-2 2-2 0-1.263 20.746-20 22-20 0-1.617 4.583-4 6-4 0-1.712 2.571-3 4-3v-1c0-1.361-2.287-12-4-12-7.281 0-20.667 15.083-26.5 18L93 89.5 79 107v1c3.814 0 6.963 9 11 9Z"/><path fill="#C7C8CC" id="alv" d="M221 88c.716 0 3 2.373 3 0-1.934 0-10-3.418-10-6-4.982 0-17.146-12.823-21.5-15-8.694-4.347-23.904.952-32 5-2.775 1.387-11.5 3.47-11.5 7l3-1c0-1.655 12.616-5.058 14.5-6 16.42-8.21 23.746-2.127 38 5 4.908 2.454 10.913 11 16.5 11Z"/><path fill="#1AA497" id="RSPv6b" d="m249 65-1 2 1-2Z"/><path fill="#C7C8CC" id="alv" d="M318 99c-3.715 0-10.803 8-19 8 0-1.59 4.386-1.443 5.5-2 3.305-1.653 9.587-4.673 11.5-8.5 1.912-3.824-2.648-15.5-8-15.5l-4-3c0-2.467-9.651-4.076-11.5-5-10.741-5.37-22.159-6.42-33-1-4.279 2.14-8.53 9-13.5 9 0-2.804 8.529-7.014 10.5-8 4.131-2.066 9.158-8 15-8 11.652 0 24.131 7.066 34 12 2.078 1.04 11.5 7.267 11.5 10l2 4.5-1 7.5Z"/><path fill="#198060" id="SSp-bfd6a" d="M366 117h1c0-1.703 8.593-9 10-9v-1c0-4.582-8.004-8.508-10-12.5-4.469-8.938-20.954-18.727-30.5-23.5-3.077-1.538-5.884-6-9.5-6 0 3.607-4 8.205-4 12l7.5 6c9.434 4.717 19.379 15.379 27.5 23.5 2.445 2.445 8 7.143 8 10.5Z"/><path fill="#C9C9CA" id="scwm" d="M89 121c0 4.994-12 18.98-12 27 2.816 0 4.968-10.436 6-12.5 3.807-7.614 22.119-32.309 30.5-36.5l28-21c5.755-2.877 11.242-6.12 17-9 1.119-.56 4.5-.155 4.5-2l-1-1c-3.771 0-7.478 3-11 3l-11 6-5 2-2 2-4 2c0 2.275-3.756 4-6 4 0 1.03-19.986 20-22 20 0 1.747-.253 2-2 2 0 1.747-.253 2-2 2l-2 2c0 1.417-2.383 6-4 6 0 1.465.109 4-2 4ZM167 66l-1 1 1-1ZM289 66l2 1-2-1ZM365 117c0 4.417 4.18 5.86 6 9.5 3.512 7.025 12 23.872 12 31.5-2.278 0-4.957-12.413-6-14.5-4.07-8.139-17.721-33.111-26.5-37.5-9.958-4.979-22.327-21.164-34-27-5.77-2.885-11.284-6.142-17-9-1.265-.632-6.5-1.278-6.5-3l2-1 10 3c3.774 0 7.636 6 11 6l7 4 6.5 5c10.791 5.395 18.917 19.958 29 25l6.5 8Z"/><path fill="#1C8064" id="SSp-ul6b" d="M140 73v2l11-6v-1l-11 5Z"/><path fill="#7ECF4B" id="CA1" d="M189 91c10.605 0 19.635 4 31 4 0-2.278 1-4.847 1-7-5.587 0-11.592-8.546-16.5-11-14.254-7.127-21.58-13.21-38-5-1.884.942-14.5 4.345-14.5 6 6.185 0 20.829 6.165 26.5 9 1.765.883 10.5 1.45 10.5 4ZM267 91c-10.102 0-19.017 4-30 4 0-1.714-2-3.482-2-6l1-2h1c1.238 0 3-.423 3-2 1.238 0 3-.423 3-2 1.238 0 3-.423 3-2 4.97 0 9.221-6.86 13.5-9 10.841-5.42 22.259-4.37 33 1 1.849.924 11.5 2.533 11.5 5-9.089 0-18.227 9-27 9-1.761 0-10 2.307-10 4Z"/><path fill="#1C8064" id="SSp-ul6b" d="m317 74-1 1c-3.364 0-7.226-6-11-6l1-1 11 5v1Z"/><path fill="#1AA498" id="RSPv6a" d="m244 70-1 1 1-1Z"/><path fill="#1A7D63" id="SSp-un6b" d="m140 75-5 2 4-4h1v2ZM323 77v2l-7-4 1-1 6 3ZM133 78v1l2-2h-2v1Z"/><path fill="#1A7E61" id="SSp-bfd6b" d="M365 117h1c0-3.357-5.555-8.055-8-10.5-8.121-8.121-18.066-18.783-27.5-23.5l-7.5-6v2l6.5 5c10.791 5.395 18.917 19.958 29 25l6.5 8ZM133 79l-4 2c0-1.712 2.571-3 4-3v1Z"/><path fill="#7DCF4B" id="CA2" d="M182 91h7c0-2.55-8.735-3.117-10.5-4-5.671-2.835-20.315-9-26.5-9l-3 1v2c11.277 0 22.979 10 33 10ZM267 91h8c7.538 0 22.391-10 33-10l-4-3c-9.089 0-18.227 9-27 9-1.761 0-10 2.307-10 4Z"/><path fill="#C7C8CC" id="alv" d="M182 113h2c0-2.098-7.512-3-9-3-9.737 0-20.3-3.9-28.5-8-8.966-4.483-7.438-21 2.5-21v-2c-2.696 0-10 6.177-10 9v11l5.5 4c3.168 1.584 18.5 4.917 18.5 8 6.144 0 13.04 2 19 2Z"/><path fill="#1A7E61" id="SSp-bfd6b" d="M129 81c-1.417 0-6 2.383-6 4 2.244 0 6-1.725 6-4Z"/><path fill="#7ECF49" id="CA3" d="M186 113c0-2.721 10.692 0 12 0 0-2.167 3-3.855 3-7-2.063 0-14-3.035-14-5-2.029 0-1.881-1.19-3.5-2-1.094-.547-4.5-1.257-4.5-3.5l3-4.5c-10.021 0-21.723-10-33-10-9.938 0-11.466 16.517-2.5 21 8.2 4.1 18.763 8 28.5 8 1.488 0 9 .902 9 3h2Z"/><path fill="#C7C8CC" id="alv" d="M243 82v1c1.238 0 3-.423 3-2l-3 1Z"/><path fill="#7ECF49" id="CA3" d="M272 113h1c0-3.226 3.962-1.231 5.5-2 4.824-2.412 15.031-4 20.5-4 0-1.59 4.386-1.443 5.5-2 3.305-1.653 9.587-4.673 11.5-8.5 1.912-3.824-2.648-15.5-8-15.5-10.609 0-25.462 10-33 10 0 3.73 4.41 10-6 10 0 2.251-11.693 5-14 5 0 3.313 4 4.49 4 7 3.249 0 7.194-1 11-1l2 1Z"/><path fill="#C9CCC9" id="dhc" d="M225 88h7l4-1h1c0-1.577 1.762-2 3-2 0-1.577 1.762-2 3-2v-1c-4.451 0-10.713.107-14.5 2-2.25 1.125-11.375-2-14.5-2 0 2.582 8.066 6 10 6h1Z"/><path fill="#1A7E62" id="SSs1" d="m429 157-6 1c0-15.492-3.507-33.515-10-46.5-1.637-3.275-13-24.953-13-26.5l3-3c2.436 0 8.86 14.22 10 16.5 8.865 17.73 16 37.255 16 58.5ZM28 157l5 1c0-19.441 6.86-39.219 15-55.5 1.352-2.703 5.12-16.5 9-16.5v-1l-4-2c-3.572 0-8.696 12.891-10 15.5-9.018 18.037-15 36.718-15 58.5Z"/><path fill="#C7C8CC" id="alv" d="M243 83c-1.238 0-3 .423-3 2 1.238 0 3-.423 3-2Z"/><path fill="#1A7E61" id="SSp-bfd6b" d="M123 85c-1.254 0-22 18.737-22 20 2.014 0 22-18.97 22-20Z"/><path fill="#C7C8CC" id="alv" d="M240 85c-1.238 0-3 .423-3 2 1.238 0 3-.423 3-2Z"/><path fill="#1B8063" id="SSs2/3" d="m423 158-8 1c0-13.782-8.111-35.722-14-47.5L392 94v-1c1.503 0 7-6.461 7-8h1c0 1.547 11.363 23.225 13 26.5 6.493 12.985 10 31.008 10 46.5ZM33 158l8 1c0-14.454 9.753-38.007 16-50.5L64 94c0-3.747-7-5.366-7-8-3.88 0-7.648 13.797-9 16.5-8.14 16.281-15 36.059-15 55.5Z"/><path fill="#C7C8CC" id="alv" d="M232 89h3l1-2-4 1v1Z"/><path fill="#A8AAAA" id="VL" d="M319 104c-.982 0-2.601 3.298-2 4.5l8 12c.465.93.817 4.5 2 4.5 0-5.075-.642-22 6-22 0-2.395-14.245-16-16-16l2 4.5-1 7.5 1 4c1.578 0 2.732-7.384 5.5-6l2.5 3.5c-1.422 2.844-.773 21.454-6 11l-1-3c-.859-1.718-1-2.387-1-4.5ZM135 113l-5 10c0-5.037-.858-20-7-20 0-3.611 12.624-15 16-15v11l-2 2c-2.348 0-2.244-5.628-5.5-4-2.861 1.43.165 11.171-1.5 14.5l1.5 3.5 3.5-2Z"/><path fill="#7DCD4B" id="HPF" d="M220 95h6c4.455 0-1-4.854-1-7h-1c0 2.373-2.284 0-3 0 0 2.153-1 4.722-1 7ZM230 95h7c0-1.714-2-3.482-2-6h-3c-3.325 0-4.103 6-2 6Z"/><path fill="#7BD04A" id="DG-mo" d="M199 124h3l5-1 10-8 1-1 1-1c0-1.238.423-3 2-3v-1l1-1 1-1v-2l1-1 1-2v-1l1-2v-4h-6c-11.365 0-20.395-4-31-4h-7l-3 4.5c0 2.243 3.406 2.953 4.5 3.5 1.619.81 1.471 2 3.5 2 0-1.237 14.164 2 16.5 2 4.612 0 15.511-6.744 17-6 1.657.829-1.679 6.679-2.5 7.5-4.866 4.866-8.623 10.061-15.5 13.5-4.22 2.11-12.069-5-16.5-5h-2l1 3c0 1.756 8.747 7 11 7h2l1 1ZM254 124h3l1-1h3l1-1 3-1 1-1 6-4 1-1v-1l-1-1-2-1c0 2.729-5.929 2.215-7.5 3-10.123 5.061-18.415-.331-23.5-10.5-.73-1.461-4.894-5.212-4-7 1.314-2.627 12.211 5.5 15 5.5 5.085 0 9.123-2 13.5-2 1.686 0 5.5-.721 5.5 0 10.41 0 6-6.27 6-10h-8c-10.102 0-19.017 4-30 4h-7l1 5v1l2 3v2l1 1 1 1v1l6.5 8 7.5 6h3l1 1h1Z"/><path fill="#187C63" id="SSs4" d="m41 159 5 1c1.78 0 1.348-6.197 2-7.5 3.136-6.273 1.865-14.73 5-21 3.918-7.835 7.046-16.092 11-24l6-8.5-5-5h-1l-7 14.5c-6.247 12.493-16 36.046-16 50.5ZM415 159l-5 1c0-9.107-8.917-36.335-13-44.5-2.24-4.481-10-11.5-10-16.5 0-1.26 3.346-5 5-5l9 17.5c5.889 11.778 14 33.718 14 47.5Z"/><path fill="#A9AAA8" id="chpl" d="M137 103c0 3.942-2 6.745-2 10l-3.5 2-1.5-3.5c1.665-3.329-1.361-13.07 1.5-14.5 3.256-1.628 3.152 4 5.5 4v2Z"/><path fill="#65A83D" id="DG-sg" d="M186 113c0-2.721 10.692 0 12 0 3.073 0 13-3.074 13-7.5l-10 .5c-2.063 0-14-3.035-14-5 0-1.237 14.164 2 16.5 2 4.612 0 15.511-6.744 17-6 1.657.829-1.679 6.679-2.5 7.5-4.866 4.866-8.623 10.061-15.5 13.5-4.22 2.11-12.069-5-16.5-5Z"/><path fill="#A8A9AA" id="V3" d="M224 105c2.612 0 2.205 4 4.5 4 .748 0 2.104-4 4.5-4v-1c-1.577 0-2-1.762-2-3v-1c-1.007 0-1.422-2-5-2v1l-1 2v1l-1 2v1Z"/><path fill="#65A83D" id="DG-sg" d="M270 112c-3.806 0-7.751 1-11 1-4.225 0-7.078-.578-10-3.5-.717-.717-4.474-3.513-2.5-4.5l8.5 1c2.307 0 14-2.749 14-5 0-.721-3.814 0-5.5 0-4.377 0-8.415 2-13.5 2-2.789 0-13.686-8.127-15-5.5-.894 1.788 3.27 5.539 4 7 5.085 10.169 13.377 15.561 23.5 10.5 1.571-.785 7.5-.271 7.5-3Z"/><path fill="#A9AAA8" id="chpl" d="M319 103c1.578 0 2.732-7.384 5.5-6l2.5 3.5c-1.422 2.844-.773 21.454-6 11l-1-3c-.859-1.718-1-2.387-1-4.5v-1Z"/><path fill="#1C8063" id="SSs5" d="M59 163h1c0-11.999 3.928-27.356 9-37.5 1.275-2.55 10-16.032 10-17.5v-1c0-1.833-8-4.558-8-8h-1l-6 8.5c-3.954 7.908-7.082 16.165-11 24-3.135 6.27-1.864 14.727-5 21-.652 1.303-.22 7.5-2 7.5v1l13 2Z"/><path fill="#CBC8CB" id="fi" d="M131 130c0 2.54 6.843 3 9 3 0-.175 12.129-16 15-16l8-6c0-3.083-15.332-6.416-18.5-8l-5.5-4-2 2v2c3.619 0 2.065 10-2 10l-5 10v3l1 4ZM326 130c-2.561 0-5.324 3-9 3 0-.291-14.402-16.951-16.5-18-1.475-.737-7.5-1.705-7.5-4 0-3.416 6-1.698 6-4 8.197 0 15.285-8 19-8l1 4v1c-.982 0-2.601 3.298-2 4.5l8 12c.465.93.817 4.5 2 4.5v2c-1.473 0-1 1.952-1 3Z"/><path fill="#1C8063" id="SSs5" d="m410 161-13 2c0-15.347-7.514-31.528-14-44.5-.986-1.971-2.928-10.5-6-10.5v-1c1.826 0 9-6.933 9-8h1c0 5 7.76 12.019 10 16.5 4.083 8.165 13 35.393 13 44.5v1Z"/><path fill="#98D5F9" id="CP" d="m85 207 7 2c4.076 0 17.303 1.893 20-3.5.063-.126-2-13.879-2-16.5 0-3.975-1.219-28 4-28 0-3.345-1.655-3.81-3-6.5-2.087-4.174 2.096-22.798 5.5-24.5l4.5 1 7-1 2-4v-3c0-5.037-.858-20-7-20-14.537 0-34.995 30.49-41 42.5-2.387 4.775-5 10.818-5 16.5 0 .671-1.328 5-2 5 0 4.604.432 20.364 2 23.5l6 14.5 2 2Z"/><path fill="#A8AAAA" id="VL" d="M137 103c3.619 0 2.065 10-2 10 0-3.255 2-6.058 2-10Z"/><path fill="#98D5F9" id="CP" d="m364 209-1 1c-2.584 0-17.096-1.692-18-3.5-2.134-4.267 2-13.428 2-18.5v-15.5l-4-11.5c0-5.968 6.227-26.136-3.5-31l-3.5 1c-3.015 0-6.004-2-8-2l-1-2v-2c0-5.075-.642-22 6-22 8.634 0 15.165 7.665 21 13.5 10.687 10.687 27 34.812 27 50.5 0 7.519 1.151 18.198-2 24.5l-6 14.5-2 1-7 2Z"/><path fill="#1A7E61" id="SSp-bfd6b" d="M101 105c-1.747 0-2 .253-2 2 1.747 0 2-.253 2-2Z"/><path fill="#7ECE4A" id="DG-po" d="m201 106 10-.5c0 4.426-9.927 7.5-13 7.5 0-2.167 3-3.855 3-7Z"/><path fill="#A8A9AA" id="V3" d="m224 105-1 1v-1h1Z"/><path fill="#A9AAA8" id="chpl" d="M225 127h6l2-8 1-1v-1l1-2v-5l-2-4v-1c-2.396 0-3.752 4-4.5 4-2.295 0-1.888-4-4.5-4l-1 1v1l-1 2-1 2v3l1 2v1l1 1c0 3.071 2 5.362 2 9Z"/><path fill="#7ECE4A" id="DG-po" d="m255 106-8.5-1c-1.974.987 1.783 3.783 2.5 4.5 2.922 2.922 5.775 3.5 10 3.5 0-2.51-4-3.687-4-7Z"/><path fill="#A8A9AA" id="V3" d="M235 109v1l-2-4 1 1 1 1v1Z"/><path fill="#1A7E61" id="SSp-bfd6b" d="m99 107-2 2c1.747 0 2-.253 2-2Z"/><path fill="#A8A9AA" id="V3" d="M222 108v1l1-2-1 1Z"/><path fill="#C7C8CC" id="alv" d="M273 113h1c5.854 0 13.039-2 19-2 0-3.416 6-1.698 6-4-5.469 0-15.676 1.588-20.5 4-1.538.769-5.5-1.226-5.5 2Z"/><path fill="#197D63" id="SSs6a" d="m60 163 10 2c0-10.835 7.358-24.215 12-33.5 1.133-2.267 3.093-10.5 7-10.5l1-4c-4.037 0-7.186-9-11-9 0 1.468-8.725 14.95-10 17.5-5.072 10.144-9 25.501-9 37.5ZM397 163l-11 2c0-11.369-7.142-25.785-12-35.5-2.056-4.113-7-7.549-7-12.5 0-1.703 8.593-9 10-9 3.072 0 5.014 8.529 6 10.5 6.486 12.972 14 29.153 14 44.5Z"/><path fill="#1A7E61" id="SSp-bfd6b" d="M97 109c-1.747 0-2 .253-2 2l2-2Z"/><path fill="#A8A9AA" id="V3" d="M221 110v1l1-2h-1v1Z"/><path fill="#1A7E61" id="SSp-bfd6b" d="M95 111c-2.556 0-4 4.016-4 6 1.617 0 4-4.583 4-6Z"/><path fill="#A8A9AA" id="V3" d="m236 113-1 1v-3l1 2Z"/><path fill="#FF909D" id="LD" d="M183 149h1l1-1v-1l1-1 1-1v-1l1-1 1-2v-1l1-1v-1l1-1v-1l1-1 1-1v-1l1-1v-1l1-1c0-2.486 1-3.725 1-6v-1c-2.253 0-11-5.244-11-7h-1c-2.463 0-14.108-5.696-19.5-3l-9.5 4-7 9-1 1c0 2.567 2 3.913 2 5l4 3 1 1c1.813 0 7 2.31 7 4 5.786 0 13.265 9 22 9Z"/><path fill="#7DCD4B" id="HPF" d="M184 116h1l-1-3h-2l2 3Z"/><path fill="#FF8D9F" id="MH" d="M220 134h1l3-1c0-2.124 1-4.436 1-6 0-3.638-2-5.929-2-9l-1-1v-1l-1-2-2-1-1 1-1 1c0 3.39-5 5.621-5 9 3.337 0 4.244 10 8 10ZM235 134h2l7-10c0-2.372-4.944-11-8-11l-1 1v1l-1 2v1l-1 1-2 8c1.684 0 1 4.679 1 6l3 1Z"/><path fill="#7DCD4B" id="HPF" d="m274 113-1 1-1-1h2Z"/><path fill="#FF909D" id="LD" d="m270 146 3 3c8.885 0 14.55-8 21-8l1-1c0-1.429 5.478-4 7-4l2-1 4-3 1-5-4-5.5c-2.771-5.541-20.408-12.046-27.5-8.5l-4.5 2-1 1-6 4-1 1-3 1-1 1-1 1 2 7 1 1v1l1 1 2 4 1 1v1l2 3v1l1 1v1Z"/><path fill="#A8A9AA" id="V3" d="m221 114 1 2-1-2ZM235 115l-1 2 1-2Z"/><path fill="#1A8061" id="SSs6b" d="M91 117c0 1.465.109 4-2 4l1-4h1Z"/><path fill="#A8A9AA" id="V3" d="m222 117 1 1-1-1Z"/><path fill="#1A8061" id="SSs6b" d="M385 165h1c0-11.369-7.142-25.785-12-35.5-2.056-4.113-7-7.549-7-12.5h-2c0 4.417 4.18 5.86 6 9.5 3.512 7.025 12 23.872 12 31.5v1c1.473 0 1 1.952 1 3v1l1 2Z"/><path fill="#A8A9AA" id="V3" d="m234 118-1 1 1-1Z"/><path fill="#1A8061" id="SSs6b" d="M71 165h1v-2c0-1.048-.473-3 1-3v-1c0-1.896 2.08-11 4-11 0-8.02 12-22.006 12-27-3.907 0-5.867 8.233-7 10.5-4.642 9.285-12 22.665-12 33.5h1Z"/><path fill="#FF6F80" id="TH" d="M196 124h2v-1h-2v1Z"/><path fill="#CCC9C8" id="sm" d="M199 126c0 3.238 3 5.3 3 8l9-10c0-1.579-2.855-1-4-1l-5 1c0 1.577-1.762 2-3 2ZM257 126c0 3.354-2 5.291-2 8l-9-10c0-1.473 1.952-1 3-1h3l1 1h1l3 2Z"/><path fill="#FF6F80" id="TH" d="M258 124h2l1-1h-3v1Z"/><path fill="#FD8F9D" id="CL" d="M187 161h8c0-4.862-2.407-26 7-26v-1c0-2.7-3-4.762-3-8v-2h-3c0 2.275-1 3.514-1 6l-1 1v1l-1 1v1l-1 1-1 1v1l-1 1v1l-1 1v1l-1 2-1 1v1l-1 1-1 1v1l-1 1-1 1v4c0 2.83 4 4.54 4 7Z"/><path fill="#FF6F80" id="TH" d="M202 124c0 1.577-1.762 2-3 2v-2h3Z"/><path fill="#FF8F9D" id="LH" d="M218 137h1l1-3c-3.756 0-4.663-10-8-10h-1l-9 10v1c0 7.386 13.581 2 16 2ZM237 137h1c3.253 0 7.725 3.888 11.5 2l5.5-4v-1l-9-10h-2l-7 10v3Z"/><path fill="#FF6F80" id="TH" d="m258 124-1 2-3-2h4Z"/><path fill="#FD8F9D" id="CL" d="M261 161h8c1.617 0 4-4.583 4-6v-5l-3-4v-1l-1-1v-1c-1.577 0-2-1.762-2-3v-1l-1-1-2-4-1-1v-1l-1-1-2-7h-2l-1 2c0 3.354-2 5.291-2 8v1l3 2.5 4 8c2.026 4.052-1 11.799-1 15.5Z"/><path fill="#FF6F80" id="TH" d="m148 126-1 1 1-1ZM149 132l-5 1 3-6c0 2.567 2 3.913 2 5Z"/><path fill="#A8A9AA" id="V3" d="m224 133 5.5 2 2.5-2c0-1.321.684-6-1-6h-6c0 1.564-1 3.876-1 6Z"/><path fill="#FF6F80" id="TH" d="m308 132 5 1c0-1.178-2.572-6-4-6l-1 5Z"/><path fill="#97D6F9" id="STR" d="m336 131-1 4c-3.602 0-5.209-5-7-5v-1c1.996 0 4.985 2 8 2Z"/><path fill="#CCC" d="M167 211c-5.213 0-4-2.734-4 3l-7.5-7c-8.289-4.144-15.657-9.829-24-14l-6.5-9c0-5.13-4.263-23-11-23 0-3.345-1.655-3.81-3-6.5-2.087-4.174 2.096-22.798 5.5-24.5l4.5 1v3c0 3.717 4.426 7.463 7.5 9 1.114.557 5.5.41 5.5 2l-3.5 3c-11.225 5.613-3.073 17.354.5 24.5 3.664 7.328 12.864 20.682 20.5 24.5 2.391 1.196 11.5 6.907 11.5 9l2 1 1 2 1 1v1Z"/><path fill="#97D6F9" id="STR" d="M121 134h5l1-1 1-3-7 1v3Z"/><path fill="#CAC7CB" id="fiber tracts" d="M142 135c0 3.064-4.381 10-8 10 0-1.59-4.386-1.443-5.5-2-3.074-1.537-7.5-5.283-7.5-9h5c0 13.82 17.13 4.315 6.5-1H127l1-3h3c0 2.54 6.843 3 9 3l2 2Z"/><path fill="#FE909D" id="LP" d="m195 130-1 1 1-1Z"/><path fill="#CAC7CB" id="fiber tracts" fill-rule="evenodd" d="M323 133c0 1.465-4.394 1.711-3 4.5 5.038 10.076 20.74-4.5 3-4.5m12 2c0 2.236-4.349 6.924-6.5 8-1.3.65-6.5.007-6.5 2-2.733 0-8-7.957-8-11l3-1c3.676 0 6.439-3 9-3h2c1.791 0 3.398 5 7 5Z"/><path fill="#CCC" d="M290 211c1.832 0 5-4.382 5 1l8.5-7c7.059-3.53 14.586-8.793 21-12l6.5-8v-1l1-1c0-5.384 3.623-22 11-22 0-5.968 6.227-26.136-3.5-31l-3.5 1-1 4c0 2.236-4.349 6.924-6.5 8-1.3.65-6.5.007-6.5 2 7.104 0 11.871 11.757 9 17.5-5.657 11.315-15.334 28.417-27.5 34.5-1.945.973-6.564 8-9.5 8l-1 1-2 2-1 2v1Z"/><path fill="#FE909D" id="LP" d="m262 131 1 1-1-1Z"/><path fill="#FD8F9F" id="RT" d="M163 206c1.145 0 4-.579 4 1l1-2-3-4-4-2c-6.995 0-21.141-23.782-24-29.5-.613-1.226-2.181-11.5 0-11.5 0-2.554.255-9 4-9l2-2c0-1.803 3.592-3 5-3 3.474 0 5-4.977 5-8v-1l-4-3-5 1-2 2c0 3.064-4.381 10-8 10l-3.5 3c-11.225 5.613-3.073 17.354.5 24.5 3.664 7.328 12.864 20.682 20.5 24.5 2.391 1.196 11.5 6.907 11.5 9Z"/><path fill="#FE909D" id="LP" d="m194 132-1 1 1-1Z"/><path fill="#FD8F9F" id="RT" d="M290 206h3l1-1c2.936 0 7.555-7.027 9.5-8 12.166-6.083 21.843-23.185 27.5-34.5 2.871-5.743-1.896-17.5-9-17.5-2.733 0-8-7.957-8-11l-1-1-5-1-4 3v2c0 2.294.793 7 4 7 4.745 0 11 6.409 11 11v1c2.057 0 2.849 11 0 11 0 1.623-.005 6-2 6 0 1.465.109 4-2 4l-1 2-1 2c0 1.562-2.189 5-4 5l-1 1c0 2.362-2.638 5-5 5l-1 1-1 1c0 1.712-2.571 3-4 3l-1 1-1 1c-2.364 0-3.053 3-5 3l-1 1-1 2c0 2.729.423 1 2 1Z"/><path fill="#CAC7CB" id="fiber tracts" d="m127 133-1 1 1-1Z"/><path fill="#C8CBC7" id="st" d="M127 133h5.5c10.63 5.315-6.5 14.82-6.5 1l1-1Z"/><path fill="#FE8F9E" id="PVT" d="M224 146h9c0-3.867 5-5.965 5-9h-1l-2-3-3-1-2.5 2-5.5-2-3 1c0 1.238-.423 3-2 3h-1c0 2.38 6 5.433 6 9Z"/><path fill="#FE909D" id="LP" d="m263 133 1 1-1-1Z"/><path fill="#C8CBC7" id="st" d="M323 133c0 1.465-4.394 1.711-3 4.5 5.038 10.076 20.74-4.5 3-4.5Z"/><path fill="#FE909D" id="LP" d="m193 134-1 1 1-1Z"/><path fill="#C7CAC9" id="fr" d="M221 134c0 1.238-.423 3-2 3l1-3h1ZM237 134v3l-2-3h2Z"/><path fill="#FF6F80" id="TH" d="M153 136h1l-1-1v1Z"/><path fill="#FE909D" id="LP" d="m192 135-1 1 1-1Z"/><path fill="#FD909D" id="MD" d="M221 171c-1.334 0-6 2.972-6 4-6.789 0-10.708-5.604-15.5-8l-4.5-6c0-4.862-2.407-26 7-26 0 7.386 13.581 2 16 2 0 2.38 6 5.433 6 9v18.5c-.579 1.157-3 5.491-3 6.5ZM235 171c2.83 0 4.54 4 7 4 4.849 0 19-8.044 19-14 0-3.701 3.026-11.448 1-15.5l-4-8-3-2.5-5.5 4c-3.775 1.888-8.247-2-11.5-2 0 3.035-5 5.133-5 9 0 4.088-3.218 13.065-1 17.5l3 7.5Z"/><path fill="#FF6F80" id="TH" d="m302 136 2 1v-2l-2 1Z"/><path fill="#FD8084" id="VPL" d="M166 189c0 3.744-4.86 6-8 6-2.676 0-7.954-6.408-9-8.5l-4-4c-4.124-8.247-8-14.425-8-24.5.167 0 4-8.072 4-9 1.747 0 2-.253 2-2 1.408 0 5-1.197 5-3 3.474 0 5-4.977 5-8h1c1.813 0 7 2.31 7 4l2 2.5-6 8.5c-27.225 0 .234 38 9 38ZM301 194l-3 1c-2.885 0-8-2.753-8-6 7.952 0 37.806-38 9-38 0-1.904-5-5.57-5-10l1-1c0-1.429 5.478-4 7-4l2 1c0 2.294.793 7 4 7l6 4.5 5 6.5v12c-1.353 0-2 4.643-2 6l-2 4-1 2-1 2c-1.811 0-4 3.438-4 5l-1 1-5 5-1 1-1 1Z"/><path fill="#FE909D" id="LP" d="m191 137-1 1 1-1ZM266 138l1 1-1-1ZM190 139l-1 1 1-1Z"/><path fill="#FF8E9C" id="PO" d="M183 154c-6.67 0-10 10.974-10 17-1.92 0-10.15-20-16-20l6-8.5-2-2.5c5.786 0 13.265 9 22 9v5Z"/><path fill="#FE909D" id="LP" d="m267 140 2 3c-1.577 0-2-1.762-2-3Z"/><path fill="#FF8E9C" id="PO" d="m295 140-1 1 1-1Z"/><path fill="#FE909D" id="LP" d="m189 141-1 2 1-2Z"/><path fill="#FF8E9C" id="PO" d="m273 155 3.5-1c5.074 2.537 6.5 12.793 6.5 18 1.319 0 10.853-21 16-21 0-1.904-5-5.57-5-10-6.45 0-12.115 8-21 8v6Z"/><path fill="#FE909D" id="LP" d="m188 143-1 1 1-1Z"/><path fill="#C7CACA" id="em" d="M148 144c-1.408 0-5 1.197-5 3 1.408 0 5-1.197 5-3Z"/><path fill="#FE909D" id="LP" d="m269 144 1 1-1-1Z"/><path fill="#C7CACA" id="em" d="M308 144c4.745 0 11 6.409 11 11l-5-6.5-6-4.5Z"/><path fill="#FE909D" id="LP" d="m187 145-1 1 1-1ZM186 146l-1 1 1-1Z"/><path fill="#FE909F" id="IMD" d="M221 171h14l-3-7.5c-2.218-4.435 1-13.412 1-17.5h-9v18.5c-.579 1.157-3 5.491-3 6.5Z"/><path fill="#FE909D" id="LP" d="M273 149v1l-3-4 3 3Z"/><path fill="#C7CACA" id="em" d="m143 147-2 2c1.747 0 2-.253 2-2Z"/><path fill="#C9C9CA" id="scwm" d="M77 148c-1.92 0-4 9.104-4 11 2.088 0 4-8.909 4-11Z"/><path fill="#FE909D" id="LP" d="m185 148-1 1 1-1Z"/><path fill="#C7CACA" id="em" d="M141 149c-3.745 0-4 6.446-4 9 .167 0 4-8.072 4-9Z"/><path fill="#FE909D" id="LP" d="m184 149-1 1v-1h1Z"/><path fill="#FF7E83" id="VPM" d="M173 171c0 4.865 2.139 18-7 18-8.766 0-36.225-38-9-38 5.85 0 14.08 20 16 20ZM283 172c0 5.277-.669 17 7 17 7.952 0 37.806-38 9-38-5.147 0-14.681 21-16 21Z"/><path fill="#FD7E84" id="VAL" d="m165 201 5 2c0-4.187 2.033-4.533 4.5-7 9.026-9.026 16.087-7 27.5-7 0-1.357.647-6 2-6v-2c0-2.373-17-13.509-17-20 0-2.46-4-4.17-4-7-6.67 0-10 10.974-10 17 0 4.865 2.139 18-7 18 0 3.744-4.86 6-8 6 0 2.349 3 1.382 3 4l4 2ZM287 203h2l1-1c1.947 0 2.636-3 5-3l1-1 1-1 1-2c-2.885 0-8-2.753-8-6-7.669 0-7-11.723-7-17 0-5.207-1.426-15.463-6.5-18l-3.5 1c0 1.417-2.383 6-4 6 0 7.201-17 18.421-17 20v2l3 6c16.14 0 9.436-2.532 24.5 5 3.055 1.528 7.5 5.264 7.5 9Z"/><path fill="#C7CACA" id="em" d="M319 156c2.057 0 2.849 11 0 11v-11Z"/><path fill="#12AD83" id="VISC1" d="M36 194c-1.564 0-3.876 1-6 1-2.099 0-1.266-7.032-2-8.5-3.886-7.772 0-21.443 0-29.5l5 1-2 20.5 5 15.5ZM421 195h6c0-4.201 1.118-12.736 3-16.5l-1-21.5-6 1c0 6.028 5.08 16.34 2 22.5-1.688 3.376-4 9.669-4 13.5v1Z"/><path fill="#12AC83" id="VISC2/3" d="m47 192-11 2-5-15.5 2-20.5 8 1c0 7.995-1.346 17.807 2 24.5.77 1.542.465 7.5 3 7.5l1 1Z"/><path fill="#C7CACA" id="em" d="M158 195c0 2.349 3 1.382 3 4-6.995 0-21.141-23.782-24-29.5-.613-1.226-2.181-11.5 0-11.5 0 10.075 3.876 16.253 8 24.5l4 4c1.046 2.092 6.324 8.5 9 8.5Z"/><path fill="#12AC83" id="VISC2/3" d="M410 192c2.884 0 7.036 2 11 2 0-3.831 2.312-10.124 4-13.5 3.08-6.16-2-16.472-2-22.5l-8 1c0 5.319.483 31-4 31l-1 1v1Z"/><path fill="#11AC82" id="VISC4" d="M46 161c0 4.755-4.536 13.428-2 18.5 1.27 2.539 2 8.728 2 11.5-2.535 0-2.23-5.958-3-7.5-3.346-6.693-2-16.505-2-24.5l5 1v1Z"/><path fill="#C9C9CA" id="scwm" d="M383 159c1.473 0 1 1.952 1 3-1.473 0-1-1.952-1-3Z"/><path fill="#11AC82" id="VISC4" d="M410 161c2.144 0 .381 4.262 1 5.5 3.689 7.378 0 15.399 0 23.5 4.483 0 4-25.681 4-31l-5 1v1Z"/><path fill="#C9C9CA" id="scwm" d="M73 160c-1.473 0-1 1.952-1 3 1.473 0 1-1.952 1-3Z"/><path fill="#12AD82" id="VISC5" d="M61 191c-5.707 0-9.156 1-14 1l-1-1c0-2.772-.73-8.961-2-11.5-2.536-5.072 2-13.745 2-18.5l13 2v21.5l2 6.5Z"/><path fill="#8598CC" id="GPe" d="M127 200c0 6.811-4.813 3-9 3l-7-10.5c-.523-1.046.951-3.5-1-3.5 0-3.975-1.219-28 4-28 6.737 0 11 17.87 11 23v4l1 1 1 11Z"/><path fill="#FE8D9F" id="PCN" d="M210 183h1l4-8c-6.789 0-10.708-5.604-15.5-8l-4.5-6h-8c0 6.491 17 17.627 17 20l2 1h1c1.048 0 3-.473 3 1ZM245 183h1c0-1.473 1.952-1 3-1h2l1-1c0-1.579 17-12.799 17-20h-8c0 5.956-14.151 14-19 14 0 3.239 3 4.575 3 8Z"/><path fill="#8598CC" id="GPe" d="m338 203-1 1c-3.013 0-8 1.144-8-3l2-16v-1l1-1c0-5.384 3.623-22 11-22l4 11.5V188c-.557 0-6.352 15-9 15Z"/><path fill="#12AD82" id="VISC5" d="M409 192h1v-1l1-1c0-8.101 3.689-16.122 0-23.5-.619-1.238 1.144-5.5-1-5.5l-13 2 1 16.5c-1.114 2.227-3 9.265-3 11.5 5.628 0 9.361 1 14 1Z"/><path fill="#11AC83" id="VISC6a" d="M61 191h1l12-2c0-3.6-2.417-9.333-4-12.5V165l-10-2h-1v21.5l2 6.5Z"/><path fill="#C9C9CA" id="scwm" d="m384 163 1 2-1-2Z"/><path fill="#11AC83" id="VISC6a" d="m382 189 13 2c0-2.235 1.886-9.273 3-11.5l-1-16.5-11 2v12.5l-4 11.5Z"/><path fill="#11AD82" id="VISC6b" d="M74 189h1c0-7.378-4-13.647-4-22v-2h-1v11.5c1.583 3.167 4 8.9 4 12.5Z"/><path fill="#C9C9CA" id="scwm" d="M71 167h1v-2h-1v2Z"/><path fill="#11AD82" id="VISC6b" d="M381 189h1l4-11.5V165h-1v2c0 8.742-4 15.851-4 22Z"/><path fill="#C8CBCC" id="ec" d="M83 209h1l-1-4-6-14.5c-1.568-3.136-2-18.896-2-23.5h-4c0 8.353 4 14.622 4 22 1.951 0 .477 2.454 1 3.5 1.667 3.334 5 8.703 5 12.5v1l1 1 1 2Z"/><path fill="#C7CACA" id="em" d="M319 167c-1.353 0-2 4.643-2 6 1.995 0 2-4.377 2-6Z"/><path fill="#C8CBCC" id="ec" d="M372 209h1l2-2v-1l1-2 1-2c0-1.424.362-5 2-5 0-1.623.005-6 2-6v-2c0-6.149 4-13.258 4-22h-4c0 7.519 1.151 18.198-2 24.5l-6 14.5-1 2v1Z"/><path fill="#FD8E9E" id="CM" d="M239 185h2l1-1h1l2-1c0-3.425-3-4.761-3-8-2.46 0-4.17-4-7-4h-14c-1.334 0-6 2.972-6 4l-4 8 2 1h2l1 1h1c4.919 0 11.413-1 17-1 1.235 0 5-.643 5 1Z"/><path fill="#C7CACA" id="em" d="m317 173-2 4c2.109 0 2-2.535 2-4ZM315 177l-1 2 1-2ZM314 179l-1 2 1-2Z"/><path fill="#FF6F80" id="TH" d="m206 182-2 1v-2l2 1ZM251 182l1 1v-2l-1 1Z"/><path fill="#C7CACA" id="em" d="M313 181c-1.811 0-4 3.438-4 5 1.811 0 4-3.438 4-5Z"/><path fill="#FD8E9F" id="SMT" d="m201 207 3 6c6.302 0 12.018-7 15-7l1-1 3-8c0-4.889-6-11.441-6-12h-1l-1-1h-2l-2-1h-1c-1.048 0-3 .473-3-1h-1l-2 1c-1.353 0-2 4.643-2 6 0 2.601-5.548 17-1 17l3-5.5c4.795-9.589 9.17 6.165 2.5 9.5-3.269 1.634-3.957-3-5.5-3Z"/><path fill="#FF6F80" id="TH" d="M207 182c1.048 0 3-.473 3 1-1.048 0-3 .473-3-1ZM249 182c-1.048 0-3-.473-3 1 1.048 0 3 .473 3-1Z"/><path fill="#FD8E9F" id="SMT" d="m253 210-1 3c-6.183 0-11.777-7-15-7l-4-10c0-1.511 1.279-6.057 2-7.5l4-3.5h2l1-1h1l2-1h1c1.048 0 3 .473 3-1h2l1 1 3 6c0 2.921 3.888 18 0 18 0-2.316.192-3.308-1.5-5l-5-5-2.5 3.5c0 4.626 1.74 9.5 7 9.5Z"/><path fill="#FF6F80" id="TH" d="m211 183 2 1-2-1ZM245 183l-2 1 2-1Z"/><path fill="#8499CC" id="GPi" d="m332 183-1 1 1-1ZM163 214v1c0 21.904-23.818 4.864-29-5.5-.734-1.469-5.837-9.5-7-9.5l-1-11-1-1v-4l6.5 9c8.343 4.171 15.711 9.856 24 14l7.5 7Z"/><path fill="#FF6F80" id="TH" d="m215 184 1 1-1-1Z"/><path fill="#FF8E9E" id="RH" d="m233 196-7.5-1-2.5 2c0-4.889-6-11.441-6-12 4.919 0 11.413-1 17-1 1.235 0 5-.643 5 1l-4 3.5c-.721 1.443-2 5.989-2 7.5Z"/><path fill="#FF6F80" id="TH" d="m242 184-1 1 1-1Z"/><path fill="#8499CC" id="GPi" d="m293 215-1 1c0 10.423 11.469 10.516 18.5 7 5.162-2.581 16.871-22 18.5-22l2-16-6.5 8c-6.414 3.207-13.941 8.47-21 12l-8.5 7-1 1v1l-1 1Z"/><path fill="#C7CACA" id="em" d="m309 186-1 1 1-1ZM308 187l-5 5c2.362 0 5-2.638 5-5Z"/><path fill="#8599CC" id="PAL" d="m125 188 1 1-1-1Z"/><path fill="#FF7E84" id="VM" d="m204 213-1 3c-5.843 0-24.429-11-31-11l-2-2c0-4.187 2.033-4.533 4.5-7 9.026-9.026 16.087-7 27.5-7 0 2.601-5.548 17-1 17v1l3 6ZM252 213l1 3c5.891 0 22.187-10 29-10l1-1h2l2-2c0-3.736-4.445-7.472-7.5-9-15.064-7.532-8.36-5-24.5-5 0 2.921 3.888 18 0 18l-1 2-1 1-1 3Z"/><path fill="#97D6F9" id="STR" d="m361 214-4 2c0-1.867-9.318-5-11-5-1.714 0-3.482-2-6-2 0-1.684-4.679-1-6-1l3-4 1-1c2.648 0 8.443-15 9-15 0 5.072-4.134 14.233-2 18.5.904 1.808 15.416 3.5 18 3.5l-2 4Z"/><path fill="#209766" id="AIp6a" d="M71 211h1c0-3.673 6.392-5 9-5v-1c-1.776 0-6-13.522-6-16h-1l-12 2c0 6.488 8 13.122 8 20h1Z"/><path fill="#219666" id="AIp6b" d="M75 189c1.951 0 .477 2.454 1 3.5 1.667 3.334 5 8.703 5 12.5-1.776 0-6-13.522-6-16Z"/><path fill="#97D6F9" id="STR" d="m95 214 4 2c3.505 0 7.789-5 12-5 0-1.638 3.576-2 5-2 0-2.798 7.178 0 8 0l-6-6-7-10.5c-.523-1.046.951-3.5-1-3.5 0 2.621 2.063 16.374 2 16.5-2.697 5.393-15.924 3.5-20 3.5 0 1.947 3 2.636 3 5Z"/><path fill="#219666" id="AIp6b" d="m382 189-1 2v-2h1Z"/><path fill="#209766" id="AIp6a" d="M385 211h2c0-7.273 8-15.106 8-20l-13-2-1 2c0 1.623-.005 6-2 6 0 1.424-.362 5-2 5l-1 2v2c1.937 0 8 1.553 8 4l1 1Z"/><path fill="#11AC82" id="VISC4" d="m411 190-1 1 1-1Z"/><path fill="#219864" id="AIp5" d="m69 212-6 1-6.5-5c-3.836-3.836-9.5-10.718-9.5-16 4.844 0 8.293-1 14-1h1c0 6.488 8 13.122 8 20l-1 1Z"/><path fill="#219666" id="AIp6b" d="M381 191c-1.995 0-2 4.377-2 6 1.995 0 2-4.377 2-6Z"/><path fill="#219864" id="AIp5" d="m388 212 5 1 7.5-5c3.939-1.969 8.5-12.013 8.5-16-4.639 0-8.372-1-14-1 0 4.894-8 12.727-8 20l1 1Z"/><path fill="#209865" id="AIp2/3" d="M63 213c-4.263 0-8.466 4-13 4-2.634 0-14-19.36-14-23l11-2c0 5.282 5.664 12.164 9.5 16l6.5 5Z"/><path fill="#C7CACA" id="em" d="m303 192-1 1 1-1Z"/><path fill="#209865" id="AIp2/3" d="M393 213c4.991 0 8.709 4 14 4l8-10.5 6-11.5v-1c-3.964 0-8.116-2-11-2h-1c0 3.987-4.561 14.031-8.5 16l-7.5 5Z"/><path fill="#C7CACA" id="em" d="m302 193-1 1 1-1Z"/><path fill="#219765" id="AIp1" d="M50 217c0 1.638-3.576 2-5 2-3.207 0-15-20.561-15-24 2.124 0 4.436-1 6-1 0 3.64 11.366 23 14 23Z"/><path fill="#C7CACA" id="em" d="m298 195-1 2c1.429 0 4-1.288 4-3l-3 1Z"/><path fill="#FD909F" id="RE" d="M225 222c0-3.546-2.143-18.678 2.5-21l3.5 3.5c2.333 4.665 0 13.078 0 17.5l8-1 1-1c0-5.054-3-8.844-3-14l-4-10-7.5-1-2.5 2-3 8-1 1-2 13c0 2.775 5.412 3 8 3Z"/><path fill="#219765" id="AIp1" d="m407 217 4 3c2.112 0 16-22.189 16-25h-6l-6 11.5-8 10.5Z"/><path fill="#C7C9CC" id="mtt" d="M201 206v1c1.543 0 2.231 4.634 5.5 3 6.67-3.335 2.295-19.089-2.5-9.5l-3 5.5ZM254 209l-1 1c-5.26 0-7-4.874-7-9.5l2.5-3.5 5 5c1.692 1.692 1.5 2.684 1.5 5l-1 2Z"/><path fill="#C7CACA" id="em" d="m297 197-1 1 1-1Z"/><path fill="#219666" id="AIp6b" d="M379 197c-1.638 0-2 3.576-2 5 1.638 0 2-3.576 2-5Z"/><path fill="#C7CACA" id="em" d="m296 198-1 1 1-1Z"/><path fill="#8599CC" id="PAL" d="M150 239c3.702 0 7.27 2 10 2 0-2.412-3.487-5.526-2-8.5 2.731-5.462 13 2.125 13-8.5-4.193 0-3.457-9-8-9 0 21.904-23.818 4.864-29-5.5-.734-1.469-5.837-9.5-7-9.5 0 6.811-4.813 3-9 3l6 6 2 1-2-4.5h5c3.327 6.655 9.267 12.267 14.5 17.5 2.136 2.136 13.852 8.796 12.5 11.5-3.463 6.926-8.559-4.5-13-4.5l4 5 3 4Z"/><path fill="#FF6F80" id="TH" d="M168 205h4l-2-2-5-2 3 4Z"/><path fill="#FC8F9F" id="Xi" d="M225 222h6c0-4.422 2.333-12.835 0-17.5l-3.5-3.5c-4.643 2.322-2.5 17.454-2.5 21Z"/><path fill="#8599CC" id="PAL" d="m306 239-9 1 2-6.5c-2.95-5.901-14 .562-14-9.5 4.572 0 3.287-8 7-8 0 10.423 11.469 10.516 18.5 7 5.162-2.581 16.871-22 18.5-22 0 4.144 4.987 3 8 3l-3 4-1 1h-2c0-.833 2.301-3.1.5-4-1.875-.937-4.69.879-5.5 2.5-3.964 7.928-15.376 13.751-19 21-1.103 2.206-7 1.503-7 5 0 8.134 8.972-1.5 11-1.5v1l-2 3-1 1-2 2Z"/><path fill="#FF6F80" id="TH" d="m290 202-1 1 1-1Z"/><path fill="#219666" id="AIp6b" d="m377 202-1 2 1-2Z"/><path fill="#FF6F80" id="TH" d="M285 205h3l1-2h-2l-2 2Z"/><path fill="#8599CC" id="PAL" d="m338 203-1 1 1-1Z"/><path fill="#219666" id="AIp6b" d="M375 206h1v-2l-1 2Z"/><path fill="#97D6F9" id="STR" d="M84 209h1v-2l-2-2 1 4Z"/><path fill="#A2B1D7" id="SI" d="m141 229 2 1c4.441 0 9.537 11.426 13 4.5 1.352-2.704-10.364-9.364-12.5-11.5-5.233-5.233-11.173-10.845-14.5-17.5h-5l2 4.5c0 3.885 15 13.164 15 19Z"/><path fill="#F0483B" id="ZI" d="M207 223h1c0-1.674 1-2.326 1-4l-6-3c-5.843 0-24.429-11-31-11h-4l-1 2h-2l1 2 1 1v1l3 3 2 2 6 2 1 1h1l9 3 8 1h10Z"/><path fill="#FD909C" id="PR" d="m220 205-1 1 1-1Z"/><path fill="#FF6F80" id="TH" d="m283 205-1 1 1-1Z"/><path fill="#F0483B" id="ZI" d="m267 222-7 1c-4.577 0-13 1.756-13-4l6-3c5.891 0 22.187-10 29-10l1-1h5c0 2.729.423 1 2 1l1 2-1 2-1 1-1 2-2 2-2 1h-1l-1 1-3 1-1 1h-1l-10 3Z"/><path fill="#8599CC" id="PAL" d="m294 205-1 1 1-1Z"/><path fill="#A2B1D7" id="SI" d="m312 231-1 1c-2.028 0-11 9.634-11 1.5 0-3.497 5.897-2.794 7-5 3.624-7.249 15.036-13.072 19-21 .81-1.621 3.625-3.437 5.5-2.5 1.801.9-.5 3.167-.5 4v1l-1 1-3.5 4c-2.111 1.056-11.5 10.462-11.5 14l-3 2Z"/><path fill="#A0EE9C" id="EPd" d="M75 228c.637 0 10 10.924 10 2 0-7.448-2-13.949-2-21l-1-2-1-1c-2.608 0-9 1.327-9 5l-1 1 6 12.5.5 3.5-4.5-6v3l2 2v1Z"/><path fill="#219666" id="AIp6b" d="m81 206 1 1-1-1Z"/><path fill="#8599CC" id="PAL" d="M165 207h2c0-1.579-2.855-1-4-1l2 1Z"/><path fill="#FD909C" id="PR" d="m212 220 4 1 1-2 2-13c-2.982 0-8.698 7-15 7l-1 3 6 3 3 1ZM241 221h3c0-1.577 1.762-2 3-2l6-3-1-3c-6.183 0-11.777-7-15-7 0 5.156 3 8.946 3 14l1 1Z"/><path fill="#8599CC" id="PAL" d="m293 206-2 2-1-2h3Z"/><path fill="#97D6F9" id="STR" d="m371 207 1 1 1-2-2 1Z"/><path fill="#209766" id="AIp6a" d="m376 206-1 1v-1h1Z"/><path fill="#A0EE9C" id="EPd" d="M371 231c1.284 0 2.561 3.47 5.5 2l2.5-2 1-1 1-1v-2c-4.522 0 4-11.051 4-16l-1-1c0-2.447-6.063-4-8-4l-1 1-2 2-1 17-1 1v4Z"/><path fill="#90EB8D" id="LA" d="M98 218c-4.373 0-4.779-.861-8.5 1-1.553.777-.665 7-2.5 7l-2-17v-2l7 2c0 1.947 3 2.636 3 5l3 4ZM360 217c4.925 0 9 2.755 9 8 1.579 0 1-2.855 1-4 0-3.459 2-8.607 2-12v-1l-1-1-7 2-1 1-2 4-1 3Z"/><path fill="#7FC0E0" id="CEAm" d="M126 249h1c2.74 0 6 .626 6-3-4.426 0-4.414-14.328-1-7.5l1 3 1 2.5c1.643 0 1-3.765 1-5 0-2.762 2.771-8 6-8v-2c0-5.836-15-15.115-15-19l-2-1c-.822 0-8-2.798-8 0 9.338 0 3 18.544 3 22l-5 8c0 3.437 6 5.579 6 8h1l2 1h1l2 1Z"/><path fill="#97D6F9" id="STR" d="m334 208-1 1 1-1Z"/><path fill="#7FC0E0" id="CEAm" d="M329 249h2l1-1h1l2-1h1c0-3.015 7-4.215 7-8-1.884 0-5-6.4-5-8-4.434 0-3.771-22 2-22 0-1.684-4.679-1-6-1l-1 1h-2v1l-1 1-3.5 4c-2.111 1.056-11.5 10.462-11.5 14l1 2c5.249 0 6 9.987 6 14h1v-4c0-5.202 6.783-7.066 2 2.5-.579 1.158.341 3.5-2 3.5v1c1.564 0 3.876 1 6 1Z"/><path fill="#C8C9CB" id="amc" d="M87 234c0 2.835 4.518 16 8 16 0-2.08-8-16.036-8-24l-2-17h-2c0 7.051 2 13.552 2 21l2 4Z"/><path fill="#80BEE1" id="CEAl" d="M111 211c0 5.491-.882 20 8 20 0-3.456 6.338-22-3-22-1.424 0-5 .362-5 2Z"/><path fill="#CCCACB" id="nst" d="M171 220v4c-4.193 0-3.457-9-8-9v-1c0-5.734-1.213-3 4-3l3 6v2l1 1Z"/><path fill="#8599CC" id="PAL" d="m166 209 1 1-1-1Z"/><path fill="#FD8E9F" id="SMT" d="m254 209-1 1 1-1Z"/><path fill="#CCCACB" id="nst" d="m286 219-1 5c4.572 0 3.287-8 7-8l1-1 1-1v-1l1-1c0-5.382-3.168-1-5-1h-1l-1 2c0 .986-1.087 6-2 6Z"/><path fill="#80BEE1" id="CEAl" d="M346 211c0 4.979-.543 20-8 20-4.434 0-3.771-22 2-22 2.518 0 4.286 2 6 2Z"/><path fill="#97D6F9" id="STR" d="m364 209-1 1 1-1Z"/><path fill="#C8C9CB" id="amc" d="m370 234-3 6c0-5.296 2-9.35 2-15 1.579 0 1-2.855 1-4 0-3.459 2-8.607 2-12h1l-1 17-1 1v4c-1.473 0-1 1.952-1 3Z"/><path fill="#8599CC" id="PAL" d="M289 211h1v-1l-1 1Z"/><path fill="#97D6F9" id="STR" d="m331 210-1 1 1-1Z"/><path fill="#8AD987" id="CTXsp" d="m384 210 1 1-1-1Z"/><path fill="#C9C8CA" id="ee" d="M73 221v1l4.5 6-.5-3.5-6-12.5v-1h-1l-1 1 2 6 1 1 1 2Z"/><path fill="#8AD987" id="CTXsp" d="m72 211-1 1v-1h1Z"/><path fill="#80BFE0" id="CEAc" d="m111 237 3 2 5-8c-8.882 0-8-14.509-8-20-4.211 0-8.495 5-12 5 0 2.765 9 10.516 9 16l3 5Z"/><path fill="#8599CC" id="PAL" d="m171 216-1 1-3-6 3 3 1 2ZM289 211l-1 2 1-2Z"/><path fill="#80BFE0" id="CEAc" d="M344 238h1l3-5 1-2c0-1.465-.109-4 2-4 0-1.465-.109-4 2-4 0-1.238.423-3 2-3l2-4c0-1.867-9.318-5-11-5 0 4.979-.543 20-8 20 0 1.6 3.116 8 5 8l1-1Z"/><path fill="#C9C8CA" id="ee" d="M383 223c-2.109 0-2 2.535-2 4-4.522 0 4-11.051 4-16h2l1 1c-.886 0-3 5.824-3 7l-1 1-1 2v1Z"/><path fill="#6ACAB9" id="PIR" d="M99 275c0 4.954-12 16.673-12 21-2.59 0-12.818-15.136-14-17.5-5.498-10.996-12.528-21.056-18-32-1.947-3.894-2.034-9.068-4-13L45 219c1.424 0 5-.362 5-2 4.534 0 8.737-4 13-4l6-1 2 6 1 2v1l1 2v2l2 2v1l6 9c0 8.826 18 25.759 18 37v1Z"/><path fill="#CCC" d="m295 212-1 1 1-1Z"/><path fill="#6ACAB9" id="PIR" d="M357 275c1.353 0 9.406 20 13 20 3.909 0 11.315-12.131 13-15.5 4.139-8.279 9.856-15.711 14-24 3.311-6.622 4.709-14.418 8-21l6-14.5-4-3c-5.291 0-9.009-4-14-4l-5-1c-.886 0-3 5.824-3 7l-1 2v1l-1 2v1l-1 2-1 1v1l-1 1-1 1c0 1.417-2.383 6-4 6 0 11.582-18 24.671-18 37v1Z"/><path fill="#8599CC" id="PAL" d="m285 216 1 3c.913 0 2-5.014 2-6l-2 2-1 1Z"/><path fill="#C8CBCC" id="ec" d="M98 218c5.243 0 6.475 14 10 14 0-5.484-9-13.235-9-16l-4-2 3 4Z"/><path fill="#E64438" id="HY" d="M171 216h1l-2-2 1 2Z"/><path fill="#CCC" d="m294 214-1 1 1-1Z"/><path fill="#C8CBCC" id="ec" d="m360 217-5 3 2-4 4-2-1 3Z"/><path fill="#E64438" id="HY" d="M284 216h1l1-1-2 1Z"/><path fill="#8599CC" id="PAL" d="m293 215-1 1 1-1Z"/><path fill="#F2483A" id="LHA" d="M176 261c1.624 0 2.75 2 5 2l2-3 1-1h1v-1c-4.548 0-4.069-22 7-22l-1-5-1-2-1-1v-1c-1.675 0-9-6.062-9-8h-1l-1-1-6-2h-1l-1 1v2l1 1v4c0 10.625-10.269 3.038-13 8.5-1.487 2.974 2 6.088 2 8.5l3 5.5c.963 1.926 11.405 14.5 13 14.5Z"/><path fill="#E64438" id="HY" d="m283 216-1 1 1-1Z"/><path fill="#F2483A" id="LHA" d="M275 262h5l1-1c0-7.184 16-13.392 16-21l2-6.5c-2.95-5.901-14 .562-14-9.5l1-5-1-3h-2l-1 1-3 1-1 1h-1c0 1.46-6.472 6-8 6l-1 2c-1.077 0-3 3.762-3 5l-1 1v3c6.25 0 10 6.932 10 13 0 1.759-.326 9-2 9v1l3 3Z"/><path fill="#9DE79B" id="BLAa" d="m100 255 3 1 4-2c0-2.922 6-6.471 6-10l-2-7-3-5c-3.525 0-4.757-14-10-14-4.373 0-4.779-.861-8.5 1-1.553.777-.665 7-2.5 7 0 7.964 8 21.92 8 24v1c1.634 0 4 2.634 4 4h1ZM353 256h2l2-1 1-1 1-1 2-2 1-2 1-1v-1l1-1 1-1c0-1.424.362-5 2-5 0-5.296 2-9.35 2-15 0-5.245-4.075-8-9-8l-5 3c0 1.238-.423 3-2 3l-2 4-2 4-1 2-3 5-1 4c0 5.598 6 10.957 6 12l3 2Z"/><path fill="#8AD987" id="CTXsp" d="M72 219v1l-1-2 1 1Z"/><path fill="#E64438" id="HY" d="m178 218 1 1-1-1ZM279 218l-1 1 1-1Z"/><path fill="#A0EE9C" id="EPd" d="M72 221h1l-1-2v2Z"/><path fill="#8599CC" id="PAL" d="m170 219 1 1-1-1Z"/><path fill="#E64438" id="HY" d="M189 222v5c-1.675 0-9-6.062-9-8l9 3ZM212 220c0 1.712-2.571 3-4 3 0-1.674 1-2.326 1-4l3 1Z"/><path fill="#FF6F80" id="TH" d="M226 225h4c3.559 0 5.504-3 9-3v-1l-8 1h-6c-2.588 0-8-.225-8-3l-1 2 1 1c3.283 0 6.01 3 9 3Z"/><path fill="#E64438" id="HY" d="M244 221c1.004 0 16 8.494 16 2-4.577 0-13 1.756-13-4-1.238 0-3 .423-3 2ZM267 222c0 1.481 2 .785 2 3 1.528 0 8-4.54 8-6l-10 3Z"/><path fill="#8AD987" id="CTXsp" d="M384 220v1l1-2-1 1Z"/><path fill="#FF4C3D" id="PVHd" d="M264 233c-3.09 0-8.005-4.247-10.5-3-3.121 1.56-17.165 5-20.5 5 0-1.748-2.283-3-4-3v-1c0-1.186-1-1.186-1 0l-1 1c-1.658 0-3 1.461-3 3-3.789 0-17.045-3.273-20.5-5-2.593-1.297-6.1 2.05-8 3-2.116 1.058-2.898-2-4.5-2l-1-2-1-1v-6l8 1c0 2.826 10 2.826 10 0h1c1.429 0 4-1.288 4-3l4 1 1 1c3.283 0 6.01 3 9 3 0 2.515 4 2.515 4 0 3.559 0 5.504-3 9-3l2-1h3c1.004 0 16 8.494 16 2l7-1c0 1.481 2 .785 2 3l-1 2c-1.077 0-3 3.762-3 5l-1 1Z"/><path fill="#FF6F80" id="TH" d="M239 221h2l-1-1-1 1Z"/><path fill="#C8CBCC" id="ec" d="M355 220c-1.577 0-2 1.762-2 3 1.577 0 2-1.762 2-3Z"/><path fill="#A0EE9C" id="EPd" d="M383 222h1v-2l-1 2Z"/><path fill="#8AD987" id="CTXsp" d="M73 222v1l-1-2h1v1Z"/><path fill="#E64438" id="HY" d="m216 221 1 1-1-1ZM241 221l-2 1v-1h2Z"/><path fill="#8AD987" id="CTXsp" d="M383 223v1l1-2h-1v1Z"/><path fill="#E64438" id="HY" d="M197 223h10c0 2.826-10 2.826-10 0Z"/><path fill="#C8CBCC" id="ec" d="M353 223c-2.109 0-2 2.535-2 4l2-4Z"/><path fill="#A0EE9C" id="EPd" d="M381 227h1l1-2v-2c-2.109 0-2 2.535-2 4Z"/><path fill="#E64438" id="HY" d="M226 225h4c0 2.515-4 2.515-4 0Z"/><path fill="#8AD987" id="CTXsp" d="m73 225 2 2-2-2Z"/><path fill="#E64438" id="HY" d="m269 225-1 2 1-2Z"/><path fill="#8AD987" id="CTXsp" d="m383 225-1 2 1-2ZM372 226l-1 1 1-1Z"/><path fill="#C8CBCC" id="ec" d="M351 227c-2.109 0-2 2.535-2 4l2-4Z"/><path fill="#8AD987" id="CTXsp" d="m382 227-1 1v-1h1ZM87 234c-2.813 0-3.921 3-6 3l-6-9c.637 0 10 10.924 10 2l2 4Z"/><path fill="#E64438" id="HY" d="m189 228 1 1-1-1Z"/><path fill="#97D6F9" id="STR" d="M141 231c2.773 0 3.67 4 6 4l-4-5-2-1v2ZM316 231l-4 1v-1l3-2 1 2Z"/><path fill="#8AD987" id="CTXsp" d="m381 229-1 1 1-1Z"/><path fill="#E64438" id="HY" fill-rule="evenodd" d="m217 281-8 6v-3.5l-9.5-6.5-8.5-13.5c-.928-1.856-4.066-4.5-6-4.5v-1l3-3c3.165 0 2.508-4 5-4 3.797 0 4.037-3 7-3 0 .571 3.949 2 4.5 2 4.891 0 11.27-6.959 8.5-12.5-2.635-5.269-16-5.291-16-.5l-5-1-1-5c1.602 0 2.384 3.058 4.5 2 1.9-.95 5.407-4.297 8-3 3.455 1.727 16.711 5 20.5 5v39c0 2.421-4.519 7-7 7m0 0c0-.279 10.259-14.983 6-23.5-8.134-16.269-37.581 12.46-17.5 22.5 3.188 1.594 7.681 1 11.5 1Z"/><path fill="#E64438" id="HY" d="M228 231h1c0-1.186-1-1.186-1 0Z"/><path fill="#E64438" id="HY" fill-rule="evenodd" d="M253 279c0 3.267-6 3.104-6 8-2.673 0-15-11.332-15-13 0-13.28 1-26.181 1-39 3.335 0 17.379-3.44 20.5-5 2.495-1.247 7.41 3 10.5 3v3l-5 1c0-4.317-21.942-7.385-14 8.5 1.752 3.503 2.663 2.082 5.5 3.5 2.204 1.102 3.622 0 6.5 0 1.045 0 6 3.836 6 1 2.572 0 2.494 5 6 5 0 1.539 1.342 3 3 3v1c-9.285 0-9.677 20-19 20m0 0c0-4.084 6.997-8.506 4-14.5-1.465-2.93-3.605-6.052-6.5-7.5-3.384-1.692-8.176-6.412-13-4-8.413 4.206-5.174 24.413 2 28 4.42 2.21 9.93-2 13.5-2Z"/><path fill="#8AD987" id="CTXsp" d="m380 230-1 1 1-1Z"/><path fill="#80BFE1" id="MEA" d="M142 288h2c2.822 0 14.639-9.778 16-12.5V264l-6-19-4-6-3-4c-2.33 0-3.227-4-6-4-3.229 0-6 5.238-6 8 0 1.235.643 5-1 5v2l-1 9c0 4.575 1 9.693 1 14l1 4c0 2.575 3.995 15 7 15Z"/><path fill="#A8A9AA" id="V3" d="M229 273c0 5.409-2 7.377-2 1v-42l1-1h1v42Z"/><path fill="#8599CC" id="PAL" d="M311 232h1v-1l-1 1Z"/><path fill="#80BFE1" id="MEA" d="M313 288h1c3.599 0 7.434-15 8-15v-4c0-4.725 1-9.879 1-14v-9l-1-1c0-4.013-.751-14-6-14l-4 1-1 1-2 3-1 1-2 2c0 1.522-2.571 7-4 7l-5 17-1 1v10.5c2.408 4.817 11.593 13.5 17 13.5Z"/><path fill="#C8CBCC" id="ec" d="m349 231-1 2 1-2Z"/><path fill="#8AD987" id="CTXsp" d="M370 234c2.554 0 3.688 3 5 3 1.617 0 4-4.583 4-6l-2.5 2c-2.939 1.47-4.216-2-5.5-2-1.473 0-1 1.952-1 3Z"/><path fill="#FD5D50" id="PVi" d="M224 274h3v-42c-1.658 0-3 1.461-3 3v39ZM229 273l3 1c0-13.28 1-26.181 1-39 0-1.748-2.283-3-4-3v41Z"/><path fill="#E64438" id="HY" d="m265 232-1 1 1-1Z"/><path fill="#97D6F9" id="STR" d="m312 232-1 1v-1h1Z"/><path fill="#FF4B3E" id="AHN" d="M197 237c5.765 0 3 8.754 3 11 0 .571 3.949 2 4.5 2 4.891 0 11.27-6.959 8.5-12.5-2.635-5.269-16-5.291-16-.5ZM259 237l-4 5.5 2 6.5c-2.878 0-4.296 1.102-6.5 0-2.837-1.418-3.748.003-5.5-3.5-7.942-15.885 14-12.817 14-8.5Z"/><path fill="#A0ED9D" id="EPv" d="m108 275-3 1-5-1-1-1c0-11.241-18-28.174-18-37 2.079 0 3.187-3 6-3 0 2.835 4.518 16 8 16v1l4 4 7 9c0 4.078 2 7.622 2 11ZM356 275l-5 1-2-1c0-4.246 2-7.473 2-12 1.577 0 2-1.762 2-3l1-1 1-1 2-2v-1l1-1 1-1c1.747 0 2-.253 2-2l1-2 1-1v-1l1-1 1-1c1.638 0 2-3.576 2-5l3-6c2.554 0 3.688 3 5 3 0 11.582-18 24.671-18 37l-1 1Z"/><path fill="#C7CAC8" id="stc" d="M133 246h1v-2l-1-2.5-1-3c-3.414-6.828-3.426 7.5 1 7.5Z"/><path fill="#F2463A" id="PeF" d="m188 255-3 3c-4.548 0-4.069-22 7-22l5 1c5.765 0 3 8.754 3 11-2.963 0-3.203 3-7 3v-3c0-8.414-11.29 7-5 7ZM269 255c0 1.539 1.342 3 3 3 1.674 0 2-7.241 2-9 0-6.068-3.75-13-10-13l-5 1-4 5.5 2 6.5c1.045 0 6 3.836 6 1 0-6.493 5.42-2.66 7 .5l-1 4.5Z"/><path fill="#97D6F9" id="STR" d="m309 236-1 1 1-1Z"/><path fill="#C7CAC8" id="stc" d="M323 246v1c2.341 0 1.421-2.342 2-3.5 4.783-9.566-2-7.702-2-2.5v5Z"/><path fill="#97D6F9" id="STR" d="M115 247h5c0-2.421-6-4.563-6-8l-3-2 2 7c1.577 0 2 1.762 2 3Z"/><path fill="#7FC0E0" id="CEAm" d="m344 238-1 1 1-1Z"/><path fill="#97D6F9" id="STR" d="M336 247h5l3-5 1-4h-1l-1 1c0 3.785-7 4.985-7 8Z"/><path fill="#CAC7CB" id="fiber tracts" fill-rule="evenodd" d="M175 263c0 1.869 5.031 11.438 6 9.5l-6-9.5m5 4c0 3.677 5.837 15.169 9.5 17l7.5 5c-4.718 0-22.326-14.153-24-17.5l-8-4.5c2.227 0 6.582 3.336 8 .5 1.015-2.03-12.105-23.303-14.5-24.5-2.165-1.083-4.5-1.333-4.5 2l-4-6c3.702 0 7.27 2 10 2l3 5.5c.963 1.926 11.405 14.5 13 14.5l4 6Z"/><path fill="#CAC7CB" id="fiber tracts" d="m275 272-5 8.5-6 6.5c2.858 0 16.33-11.83 19-14.5l6-4.5-3.5 1c-3.036 0-.92-6.66-.5-7.5 1.289-2.577 17-28.668 17-15.5 1.429 0 4-5.478 4-7l-9 1c0 7.608-16 13.816-16 21l-1 1-1 3c5.941 0-4 8.274-4 7Z"/><path fill="#C8C9CB" id="amc" d="M367 240c-1.638 0-2 3.576-2 5 1.638 0 2-3.576 2-5Z"/><path fill="#CACCCB" id="opt" d="M163 267h2c2.227 0 6.582 3.336 8 .5 1.015-2.03-12.105-23.303-14.5-24.5-2.165-1.083-4.5-1.333-4.5 2l6 19 1 1 2 2ZM289 268h1l2-1h1l1-1 2-1v-1l1-1 5-17c0-13.168-15.711 12.923-17 15.5-.42.84-2.536 7.5.5 7.5l3.5-1Z"/><path fill="#8AD987" id="CTXsp" d="M341 247c0 3.821 5.662 7 9 7 0-1.043-6-6.402-6-12l-3 5ZM115 247c0 3.719-4.649 7-8 7 0-2.922 6-6.471 6-10 1.577 0 2 1.762 2 3Z"/><path fill="#97D6F9" id="STR" d="M323 245v1l-1-1h1Z"/><path fill="#C8C9CB" id="amc" d="m365 245-1 1 1-1Z"/><path fill="#97D6F9" id="STR" d="M132 255h1l1-9h-1c0 3.626-3.26 3-6 3 0 1.692 5 2.921 5 6Z"/><path fill="#C7C8CA" id="fx" d="M193 251c-2.492 0-1.835 4-5 4-6.29 0 5-15.414 5-7v3ZM263 250c2.572 0 2.494 5 6 5l1-4.5c-1.58-3.16-7-6.993-7-.5Z"/><path fill="#C8C9CB" id="amc" d="m364 246-1 1 1-1Z"/><path fill="#80BEE2" id="IA" d="m107 259-1 1c-2.343 0-4-.285-4-3l1-1 4-2c3.351 0 8-3.281 8-7h6l2 1h1l2 1h1c0 1.692 5 2.921 5 6l-1.5 2h-7l-2 1c-2.14-1.07-9.489-4.255-12-3l-2.5 4Z"/><path fill="#97D6F9" id="STR" d="m121 247 2 1-2-1ZM335 247l-2 1 2-1Z"/><path fill="#80BEE2" id="IA" d="M350 260h3l1-1 1-1v-1l-2-1-3-2c-3.338 0-9-3.179-9-7h-6l-2 1h-1l-1 1h-2c0 2.437-4 2.375-4 6 0 2.991 6.051 2 8 2 4.409 0 11.89-3 12.5-3l4.5 6Z"/><path fill="#97D6F9" id="STR" d="m124 248 2 1-2-1ZM323 255h2c0-3.625 4-3.563 4-6-2.124 0-4.436-1-6-1v7ZM332 248l-1 1 1-1Z"/><path fill="#C8C9CB" id="amc" d="m363 248-1 1 1-1ZM362 249l-1 2 1-2ZM95 251c1.634 0 4 2.634 4 4l-4-4ZM361 251l-2 2c1.747 0 2-.253 2-2Z"/><path fill="#FF4A3D" id="VMH" d="M217 281c0-.279 10.259-14.983 6-23.5-8.134-16.269-37.581 12.46-17.5 22.5 3.188 1.594 7.681 1 11.5 1ZM253 279c0-4.084 6.997-8.506 4-14.5-1.465-2.93-3.605-6.052-6.5-7.5-3.384-1.692-8.176-6.412-13-4-8.413 4.206-5.174 24.413 2 28 4.42 2.21 9.93-2 13.5-2Z"/><path fill="#C8C9CB" id="amc" d="m359 253-1 1 1-1Z"/><path fill="#84EA80" id="BMAa" d="m347 278-4 1c-6.599 0-11.319-7-18-7l-3-3c0-4.725 1-9.879 1-14h2c0 2.991 6.051 2 8 2 4.409 0 11.89-3 12.5-3l4.5 6 1 3c0 4.527-2 7.754-2 12l-1 2-1 1Z"/><path fill="#C8C9CB" id="amc" d="m358 254-1 1 1-1Z"/><path fill="#8AD987" id="CTXsp" d="M106 260v4l-7-9h1l2 2c0 2.715 1.657 3 4 3Z"/><path fill="#C8C9CB" id="amc" d="m103 256-1 1-2-2 3 1Z"/><path fill="#84EA80" id="BMAa" d="m110 278 4 1c6.37 0 11.809-8 18-8l2-2c0-4.307-1-9.425-1-14h-1l-1.5 2h-7l-2 1c-2.14-1.07-9.489-4.255-12-3l-2.5 4-1 1v4c0 4.078 2 7.622 2 11l2 3Z"/><path fill="#C8C9CB" id="amc" d="M355 256h2v-1l-2 1ZM355 256v1l-2-1h2Z"/><path fill="#8AD987" id="CTXsp" d="M355 257v1l2-2h-2v1ZM107 259l-1 1 1-1Z"/><path fill="#E64438" id="HY" d="m184 259-1 1 1-1Z"/><path fill="#F24839" id="TU" d="m197 289 10 1 2-2v-4.5l-9.5-6.5-8.5-13.5c-.928-1.856-4.066-4.5-6-4.5h-1l-1 1-2 3-1 4c0 3.677 5.837 15.169 9.5 17l7.5 5ZM260 289l-11 1-2-2v-1c0-4.896 6-4.733 6-8 9.323 0 9.715-20 19-20l3 3c0 1.564 1 3.876 1 6v2l-1 1v1l-5 8.5-6 6.5-2 1h-1l-1 1Z"/><path fill="#8AD987" id="CTXsp" d="m354 259-1 1 1-1ZM353 260c0 1.238-.423 3-2 3l-1-3h3Z"/><path fill="#E64438" id="HY" d="m181 263-1 4-4-6c1.624 0 2.75 2 5 2ZM281 261l-1 1 1-1ZM279 265l-3 3c0-2.124-1-4.436-1-6h5l-1 3Z"/><path fill="#CCCAC9" id="sup" d="M175 263c0 1.869 5.031 11.438 6 9.5l-6-9.5ZM275 271v1c0 1.274 9.941-7 4-7 0 1.408-1.197 5-3 5l-1 1Z"/><path fill="#CAC7CB" id="fiber tracts" d="m161 265 2 2-2-2ZM276 268v2c1.803 0 3-3.592 3-5l-3 3ZM294 266l-1 1 1-1ZM292 267l-2 1 2-1Z"/><path fill="#99D2BD" id="OLF" d="m132 271 3 2-1-4-2 2ZM325 272l-3 1v-4l3 3Z"/><path fill="#CAC7CB" id="fiber tracts" d="m276 270-1 1 1-1Z"/><path fill="#60E5B7" id="COAa" d="M115 299h3c3.594 0 24-7.611 24-10v-1c-3.005 0-7-12.425-7-15l-3-2c-6.191 0-11.63 8-18 8l-2 3c0 6.121 3 11.571 3 17ZM342 298l-4 1c-7.209 0-21.783-10-24-10v-1c3.599 0 7.434-15 8-15l3-1c6.681 0 11.401 7 18 7l1 3c0 4.8-2 10.8-2 16Z"/><path fill="#FF5B4F" id="ARH" d="M230 291h1c5.479 0 11.075-1 16-1v-3c-2.673 0-15-11.332-15-13l-3-1c0 5.409-2 7.377-2 1h-3c0 2.421-4.519 7-7 7l-8 6v1l1 2c4.425 0 9.961 1 15 1h5Z"/><path fill="#99D2BD" id="OLF" d="M99 275h1l-1-1v1ZM356 275h1v-1l-1 1Z"/><path fill="#59D9AA" id="PAA" d="M111 301h2l2-2c0-5.429-3-10.879-3-17 0-2.741-4-2.75-4-5-1.048 0-3 .473-3-1l-5-1h-1c0 4.954-12 16.673-12 21 0 4.594 18.531 6 23 6l1-1Z"/><path fill="#8AD987" id="CTXsp" d="m108 277 2 1-2-3-3 1c0 1.473 1.952 1 3 1ZM348 277h1l2-1-2-1-1 2Z"/><path fill="#59D9AA" id="PAA" d="m345 301 2 1c4.622 0 23-1.762 23-7-3.594 0-11.647-20-13-20h-1l-5 1-2 1-2 1-3 4c0 4.8-2 10.8-2 16l1 3h2Z"/><path fill="#99D2BD" id="OLF" d="m114 279-2 3c0-2.741-4-2.75-4-5l2 1 4 1ZM349 277l-2 1 1-1h1ZM343 279l1 3 3-4-4 1Z"/><path fill="#CAC7CB" id="fiber tracts" d="m264 287-2 1 2-1Z"/><path fill="#99D2BD" id="OLF" d="m144 288-2 1v-1h2Z"/><path fill="#E64438" id="HY" d="M207 290h3l-1-2-2 2ZM247 290h2l-2-2v2Z"/><path fill="#CAC7CB" id="fiber tracts" d="m261 288-1 1 1-1Z"/><path fill="#99D2BD" id="OLF" d="M314 288v1l-1-1h1Z"/><path fill="#E64438" id="HY" d="M226 291v1l-1-1h1Z"/><path fill="#F1473A" id="ME" d="M226 292h4v-1h-4v1Z"/><path fill="#E64438" id="HY" d="m231 291-1 1v-1h1Z"/><path fill="#99D2BD" id="OLF" d="M338 299c0 1.014 3.959 2 5 2l-1-3-4 1ZM118 299c0 1.638-3.576 2-5 2l2-2h3ZM111 301l-1 1 1-1ZM345 301l2 1-2-1Z"/></svg>