<svg xmlns="http://www.w3.org/2000/svg" viewBox="0 0 456 320"><path fill="#1BA696" id="RSPagl1" d="m188 15-13 2-2-4c0-1.242 12.613-4 14-4l1 6Z"/><path fill="#1BA598" id="RSPd1" d="m221 20-2 2-2-1.5c-6.174-12.347-20.514-5.5-29-5.5l-1-6c8.292 0 34-.45 34 11ZM237 22h1c0-2.224 2.386-2.272 3-3.5 2.109-4.218 16.766-8.367 22.5-5.5l4.5 2c0-1.564 1-3.876 1-6-8.701 0-34-.71-34 12l2 1Z"/><path fill="#1BA696" id="RSPagl1" d="m268 15 14 2c0-1.145-.579-4 1-4 0-1.242-12.613-4-14-4 0 2.124-1 4.436-1 6Z"/><path fill="#019FAC" id="VISa1" d="M118 33h1c0-1.177 8.152-3.326 9.5-4 9.446-4.723 20.637-5.318 30-10 1.538-.77 11.5-.285 11.5-2l-1-4c-11.346 0-29.853 5.177-39.5 10-1.648.824-13.5 4.042-13.5 5l2 5Z"/><path fill="#09848B" id="VISam1" d="M171 17h4l-2-4h-4l1 4h1Z"/><path fill="#1BA697" id="RSPd2/3" d="M219 23c-1.429 0-4 1.288-4 3-1.601 0-6.808-4.154-8.5-5-4.531-2.265-13.118 1-17.5 1l-1-7c8.486 0 22.826-6.847 29 5.5l2 1.5v1ZM241 27h1c0-8.756 19.944-5 25-5 1.714 0 1-5.594 1-7l-4.5-2c-5.734-2.867-20.391 1.282-22.5 5.5-.614 1.228-3 1.276-3 3.5 0 1.947 3 2.636 3 5Z"/><path fill="#09848B" id="VISam1" d="M282 17h5v-4h-4c-1.579 0-1 2.855-1 4Z"/><path fill="#019FAC" id="VISa1" d="M338 33h1c0-1.465-.109-4 2-4 0-3.487-12.152-4.826-14.5-6-9.825-4.913-27.921-10-39.5-10v5c10.349 0 28.753 4.626 37.5 9 3.475 1.738 9.603 6 13.5 6Z"/><path fill="#1AA496" id="RSPagl2/3" d="M175 26v1c4.769 0 8.687-4 14-4v-1l-1-7-13 2v9ZM281 26v1c-4.453 0-8.197-4-13-4l-1-1c1.714 0 1-5.594 1-7l14 2c0 2.359-1 5.323-1 9Z"/><path fill="#009EAB" id="VISa2/3" d="m120 39 2 3 11.5-5c6.569-3.285 31.679-10 39.5-10v-1c0-3.403-2-4.63-2-9h-1c0 1.715-9.962 1.23-11.5 2-9.363 4.682-20.554 5.277-30 10-1.348.674-9.5 2.823-9.5 4l1 6Z"/><path fill="#0B848A" id="VISam2/3" d="M173 26h2v-9h-4c0 4.37 2 5.597 2 9ZM281 26h2l4-8v-1h-5c0 2.359-1 5.323-1 9Z"/><path fill="#009EAB" id="VISa2/3" d="M334 42h1l1-3 1-1v-1l1-4c-3.897 0-10.025-4.262-13.5-6-8.747-4.374-27.151-9-37.5-9l-4 8c7.38 0 35.758 8.63 42.5 12l8.5 4Z"/><path fill="#1BA597" id="RSPv1" d="M230 65h2V31.5l5-9.5-2-1-6.5 9-7.5-10-2 2v1c2.825 0 3.181 5.863 4 7.5 3.424 6.847 2 25.754 2 34.5h2c0-5.86 3-4.761 3 0Z"/><path fill="#1AA596" id="RSPd5" d="M189 34c2.794 0 18-7.186 18 1l8-8v-1c-1.601 0-6.808-4.154-8.5-5-4.531-2.265-13.118 1-17.5 1v12ZM249 35c2.143 0 4.83-6.335 9.5-4l9.5 4V23l-1-1c-5.056 0-25-3.756-25 5l7 8Z"/><path fill="#1AA597" id="RSPv2/3" d="M232 65h4l2-28.5 3-9.5c0-2.364-3-3.053-3-5h-1l-5 9.5V65Z"/><path fill="#1CA697" id="RSPagl5" d="M189 35c-4.264 0-7.497 4-12 4l-1-8-1-4c4.769 0 8.687-4 14-4v12Z"/><path fill="#1AA597" id="RSPv2/3" d="M221 65h4c0-8.746 1.424-27.653-2-34.5-.819-1.637-1.175-7.5-4-7.5-1.429 0-4 1.288-4 3v1c0 .618 3.456 10.412 4 11.5v15c1.483 2.966 2 8.06 2 11.5Z"/><path fill="#1CA697" id="RSPagl5" d="M268 35c3.614 0 6.899 4 11 4l2-10v-2c-4.453 0-8.197-4-13-4v12Z"/><path fill="#09858A" id="VISam4" d="M174 27h1v-1h-2v1h1ZM281 27h1l1-1h-2v1Z"/><path fill="#019EAC" id="VISa4" d="m334 42-3 5-16.5-8L282 28v-1l1-1c7.38 0 35.758 8.63 42.5 12l8.5 4ZM122 42l3 5 16.5-8c3.618-1.81 29.446-11 32.5-11v-1h-1c-7.821 0-32.931 6.715-39.5 10L122 42Z"/><path fill="#0A848B" id="VISam5" d="m174 28 2 3-1-4h-1v1Z"/><path fill="#1BA498" id="RSPv5" d="M219 65h2c0-3.44-.517-8.534-2-11.5v-15c-.544-1.088-4-10.882-4-11.5l-8 8v1c0 7.545 6 19.157 6 24l6 5ZM236 65h1l6-5 1-1c0-7.578 5-14.457 5-23v-1l-7-8h-1l-3 9.5-2 28.5Z"/><path fill="#0A848B" id="VISam5" d="m282 28-1 1v-2h1v1Z"/><path fill="#029FAB" id="VISrl1" d="m118 33-2 1-2-5 2-1 2 5Z"/><path fill="#019EAB" id="VISa5" d="M133 53h2l7.5-4c4.786-2.393 29.537-10 34.5-10l-1-8-2-3c-3.054 0-28.882 9.19-32.5 11L125 47v1l4 5c0-1.115 2.535 0 4 0ZM328 53c-.701 0-4-1.277-4 1l-2-1c-2.422 0-5.361-2.93-7.5-4-4.687-2.344-30.576-10-35.5-10l2-10 1-1 32.5 11 16.5 8v1c0 1.054-3 2.931-3 5Z"/><path fill="#188060" id="SSp-bfd1" d="M64 69h1l11-10.5c6.79-6.79 30.464-24.5 40-24.5l-2-5c-6.764 0-35.125 19.625-41 25.5L62 65l2 4Z"/><path fill="#029FAB" id="VISrl1" d="M340 34h1l2-5h-2c-2.109 0-2 2.535-2 4l1 1Z"/><path fill="#188060" id="SSp-bfd1" d="m395 66-3 3c-1.04 0-20.279-19.39-25.5-22l-20-11c-.984-.492-5.5-.85-5.5-2l2-5 9.5 5c8.259 4.13 26.815 13.13 30.5 20.5L395 66Z"/><path fill="#1AA697" id="RSPd6a" d="M189 46h11c0-1.02 6.11-10 7-10v-1c0-8.186-15.206-1-18-1v12ZM257 46c0-2.765 8.94 0 10 0l1-11-9.5-4c-4.67-2.335-7.357 4-9.5 4v1c1.901 0 7 8.41 7 10h1Z"/><path fill="#029EAC" id="VISrl2/3" d="m116 34 4 5-1-6h-1l-2 1ZM340 34c0 1.658-1.461 3-3 3l1-4h1l1 1Z"/><path fill="#187F63" id="SSp-bfd2/3" d="M65 69c0 3.414 6 4.207 6 8l3.5-4L86 61.5c4.008-4.008 30.93-19.5 36-19.5l-2-3-4-5c-9.536 0-33.21 17.71-40 24.5L65 69ZM392 70l-7 7c0-2.867-7.077-6.655-8-8.5-3.005-6.01-34.718-26.5-42-26.5l1-3 1-1v-1c1.539 0 3-1.342 3-3h1c0 1.15 4.516 1.508 5.5 2l20 11c5.221 2.61 24.46 22 25.5 22v1Z"/><path fill="#1CA597" id="RSPagl6a" d="M188 47c-3.222 0-6.277 1-9 1l-2-9c4.503 0 7.736-4 12-4v11l-1 1ZM277 48h1l1-9c-4.101 0-7.386-4-11-4l-1 11 10 2Z"/><path fill="#1AA498" id="RSPv6a" d="m209 57 4 3c0-4.843-6-16.455-6-24-.89 0-7 8.98-7 10 2.359 0 9 9.026 9 11ZM247 57l-3 2c0-7.578 5-14.457 5-23 1.901 0 7 8.41 7 10v1c-2.219 0-9 7.468-9 10Z"/><path fill="#029EAC" id="VISrl2/3" d="m337 38-1 1 1-1Z"/><path fill="#009DAC" id="VISa6a" d="M145 56h2c0-1.55 6.228-2.364 7.5-3 6.9-3.45 16.251-5 24.5-5l-2-9c-4.963 0-29.714 7.607-34.5 10l-7.5 4c0 2.83 10 1.477 10 3ZM309 56h2c0-3.258 11 .8 11-3-2.422 0-5.361-2.93-7.5-4-4.687-2.344-30.576-10-35.5-10l-1 9c7.815 0 16.931 1.716 23.5 5 1.433.716 7.5.838 7.5 3Z"/><path fill="#197C64" id="SSp-bfd4" d="m71 78 5 6c2.237 0 11.78-10.28 14-12.5 7.018-7.018 18.307-13.904 27.5-18.5l7.5-5v-1l-3-5c-5.07 0-31.992 15.492-36 19.5L74.5 73 71 77v1ZM385 78l-5 6c-3.608 0-7.395-7.948-9.5-9-7.664-3.832-32.621-27-39.5-27v-1l3-5h1c7.282 0 38.995 20.49 42 26.5.923 1.845 8 5.633 8 8.5v1Z"/><path fill="#1BA698" id="RSPd6b" d="M189 47h11v-1h-11v1ZM257 47h10v-1c-1.06 0-10-2.765-10 0v1Z"/><path fill="#1AA598" id="RSPagl6b" d="M188 47h1v-1l-1 1Z"/><path fill="#CACCC7" id="cing" d="m213 60 6 5c-9.494 0-16.579-8.04-24.5-12-8.8-4.4-23.061 1-32.5 1h-5c0-.913 5.014-2 6-2 5.343 0 10.144-3 16-3 2.008 0 9 .656 9-2h12l9 10 4 3Z"/><path fill="#1AA497" id="RSPv6b" d="m200 47 9 10c0-1.974-6.641-11-9-11v1ZM256 47h1v-1h-1v1Z"/><path fill="#CACCC7" id="cing" d="m243 60-6 5c9.762 0 16.981-8.24 24.5-12 8.783-4.391 23.128 1 32.5 1h6c0-2.064-3.353-.426-4.5-1-5.324-2.662-12.145-4-18.5-4-3.77 0-7.021-2-10-2h-11c0 1.815-6.928 10-9 10l-3 2-1 1Z"/><path fill="#1AA598" id="RSPagl6b" d="M277 48v1c-3.77 0-7.021-2-10-2v-1l10 2ZM179 48v1c2.008 0 9 .656 9-2-3.222 0-6.277 1-9 1Z"/><path fill="#1AA497" id="RSPv6b" d="M256 47c-2.219 0-9 7.468-9 10 2.072 0 9-8.185 9-10Z"/><path fill="#1A7D62" id="SSp-bfd5" d="M76 85c1.167 0 7 5.234 7 7l21.5-21 18-12c1.426-.713 6.5-1.764 6.5-4v-2l-4-5-7.5 5c-9.193 4.596-20.482 11.482-27.5 18.5C87.78 73.72 78.237 84 76 84v1Z"/><path fill="#029FAC" id="VISa6b" d="m147 56 1 1c2.86 0 5.58-3 9-3 0-.913 5.014-2 6-2 5.343 0 10.144-3 16-3v-1c-8.249 0-17.6 1.55-24.5 5-1.272.636-7.5 1.45-7.5 3ZM309 56l-1 1c-2.384 0-4.881-3-8-3 0-2.064-3.353-.426-4.5-1-5.324-2.662-12.145-4-18.5-4v-1h1c7.815 0 16.931 1.716 23.5 5 1.433.716 7.5.838 7.5 3Z"/><path fill="#1A7D62" id="SSp-bfd5" d="m380 85-7 7-10-10.5c-2.263-4.526-30.712-25.5-36-25.5v-1l1-2c0-2.069 3-3.946 3-5 6.879 0 31.836 23.168 39.5 27 2.105 1.052 5.892 9 9.5 9v1Z"/><path fill="#197F60" id="SSp-tr5" d="M129 55h1c1.238 0 3-.423 3-2-1.465 0-4-1.115-4 0v2Z"/><path fill="#C7CACC" id="ccs" d="M360 116h1c0-12.186-16.783-35.642-27.5-41-2.048-1.024-17.5-10.971-17.5-12-1.665 0-14.224-5.862-16.5-7-.984-.492-5.5-.85-5.5-2-9.372 0-23.717-5.391-32.5-1-7.519 3.76-14.738 12-24.5 12h-18c-9.494 0-16.579-8.04-24.5-12-8.8-4.4-23.061 1-32.5 1 0 1.183-3.57 1.535-4.5 2L141 62c0 2.476-13.885 9.385-16 11.5-12.834 12.834-30 24.569-30 43.5l2-1c0-3.17 5.859-16 10-16l1-2 1-1c0-2.36 3.842-8 6-8 0-4.099 13.151-16 17-16 0-3.792 9.206-6.853 11.5-8 6.038-3.02 29.466-12.767 37-9l9 3 5.5 4c5.664 0 13.077 8.289 18.5 11l12 2c1.047.523 2.505 1.748 4 1 5.871-2.935 13.017-3.008 19-6 3.828-1.914 8.076-8 12.5-8h2l1-1 1-1 2-1 2-1c0-2.273 5.226-2 7-2 0-1.684 4.679-1 6-1 5.191 0 14.032.766 18.5 3 11.952 5.976 33.28 15.06 39.5 27.5 2.211 4.423 9 8.314 9 13.5 3.999 0 11 13.09 11 16Z"/><path fill="#197F60" id="SSp-tr5" d="m324 54 3 1 1-2c-.701 0-4-1.277-4 1Z"/><path fill="#188063" id="SSp-tr6a" d="m145 57-12 5-3-7c1.238 0 3-.423 3-2h2c0 2.83 10 1.477 10 3v1ZM327 56c0 1.208-4 3.947-4 6l-12-6c0-3.258 11 .8 11-3l2 1 3 1v1Z"/><path fill="#C9C9CA" id="scwm" d="M141 61v1l16.5-6c.93-.465 4.5-.817 4.5-2h-5c-3.42 0-6.14 3-9 3h-3c0 2.879-4 1.993-4 4ZM316 61v2c-1.665 0-14.224-5.862-16.5-7-.984-.492-5.5-.85-5.5-2h6c3.119 0 5.616 3 8 3 3.44 0 5.253 4 8 4Z"/><path fill="#198060" id="SSp-bfd6a" d="m95 97-4 4c-3.841 0-4.792-8-8-8v-1l21.5-21 18-12c1.426-.713 6.5-1.764 6.5-4h1l3 7v1c-1.417 0-6 2.383-6 4-3.646 0-26 20.379-26 24-1.853 0-6 3.534-6 6Z"/><path fill="#1A8063" id="SSp-tr6b" d="M145 57h3l-1-1h-2v1Z"/><path fill="#C7C8CC" id="alv" d="M132 73c3.616 0 6.423-4.462 9.5-6 5.696-2.848 31.365-13.318 38-10 4.509 2.255 9.384 3.692 14 6L207 75c0-4.644-12-7.397-12-12l-5.5-4-9-3c-7.534-3.767-30.962 5.98-37 9-2.294 1.147-11.5 4.208-11.5 8ZM325 116l10 3c6.525 0 15 .561 15-8 0-3.642-1-8.002-1-11 0-5.186-6.789-9.077-9-13.5-6.22-12.44-27.548-21.524-39.5-27.5-4.468-2.234-13.309-3-18.5-3-1.321 0-6-.684-6 1 16.151 0 29.168 5.334 42.5 12 3.447 1.724 6.295 6.648 9 8 3.275 1.638 13.5 8.799 13.5 13 1.577 0 2 1.762 2 3 5.493 0 9.059 19.221-.5 24-5.353 2.676-27.632-6-36.5-6v1c1.49 0 8-.735 8 1h1c1.623 0 6 .005 6 2l4 1Z"/><path fill="#1A8063" id="SSp-tr6b" d="M322 63h1v-1l-12-6h-2l-1 1c3.44 0 5.253 4 8 4l6 2Z"/><path fill="#198060" id="SSp-bfd6a" d="M365 102h1c0-3.24 7-6.367 7-9v-1l-10-10.5c-2.263-4.526-30.712-25.5-36-25.5 0 1.208-4 3.947-4 6v1c8.106 0 26.821 21.32 33 27.5 2.859 2.859 9 7.523 9 11.5Z"/><path fill="#1A8063" id="SSp-tr6b" d="M133 63h1l7-2c0-2.007 4-1.121 4-4l-12 5v1Z"/><path fill="#7ECF4B" id="CA1" d="M213 100h2l3-3c0-4.049 3-7.132 3-12l-4-4h-1l-2-2h-1l-2-2h-1l-2-2h-1l-13.5-12c-4.616-2.308-9.491-3.745-14-6-6.635-3.318-32.304 7.152-38 10-3.077 1.538-5.884 6-9.5 6l-16 16c0 1.7 5.137 1 6.5 1l22.5 1c5.848 0 20.741-15.38 31.5-10l36.5 19Z"/><path fill="#C7C8CC" id="alv" d="M276 57c-1.774 0-7-.273-7 2 1.296 0 7-.825 7-2Z"/><path fill="#7ECF4B" id="CA1" d="M242 100h2c3.367 0 30.098-16.299 35.5-19 10.513-5.257 27.21 10 31.5 10 9.74 0 19.764-1 30-1 0-4.201-10.225-11.362-13.5-13-2.705-1.352-5.553-6.276-9-8-13.332-6.666-26.349-12-42.5-12 0 1.175-5.704 2-7 2l-2 1-2 1-1 1-1 1h-1l-1 1-1 1-1 1-1 1-1 1-1 1-1 1-1 1c0 1.577-1.762 2-3 2l-1 1-1 1h-1l-1 1-1 1h-1l-1 1-1 1h-1l-1 1-1 1-1 1-2 1c0 1.747-.253 2-2 2 0 5.014 4 7.902 4 12l3 3Z"/><path fill="#1AA498" id="RSPv6a" d="m244 59-1 1 1-1Z"/><path fill="#C7C8CC" id="alv" d="m269 59-2 1 2-1ZM267 60l-2 1 2-1Z"/><path fill="#CBC9C7" id="or" d="m83 125 1 5 7.5-10 3.5-3c0-18.931 17.166-30.666 30-43.5 2.115-2.115 16-9.024 16-11.5v-1l-7 2c0 2.218-5.144 4-7 4 0 .604-17.555 16.055-19.5 18-1.874 1.874-4.347 6-6.5 6 0 2.466-4.147 6-6 6 0 2.522-1.432 6-4 6l-2 5-1 1-1 2c0 4.769-4 8.687-4 14Z"/><path fill="#C7C8CC" id="alv" d="m265 61-1 1 1-1Z"/><path fill="#CBC9C7" id="or" d="M374 125c0 1.041-.986 5-2 5l-5-7.5-6-6.5c0-12.186-16.783-35.642-27.5-41-2.048-1.024-17.5-10.971-17.5-12v-2l6 2c0 2.236 5.074 3.287 6.5 4l15 12 21.5 24 3 6c0 4.979 6 10.435 6 16Z"/><path fill="#C7C8CC" id="alv" d="m264 62-1 1 1-1Z"/><path fill="#1A7E61" id="SSp-bfd6b" d="M134 63c0 2.218-5.144 4-7 4 0-1.617 4.583-4 6-4h1Z"/><path fill="#C9CCC9" id="dhc" d="M229 84h6l2-1 2-1 1-1 1-1 1-1h1l1-1 1-1h1l1-1 1-1h1l1-1 1-1c0-1.577 1.762-2 3-2l1-1 1-1 1-1 1-1 1-1 1-1 1-1v-1c-4.424 0-8.672 6.086-12.5 8-5.983 2.992-13.129 3.065-19 6-1.495.748-2.953-.477-4-1l-12-2c-5.423-2.711-12.836-11-18.5-11 0 4.603 12 7.356 12 12h1l2 2h1l2 2h1l2 2h1l5 3h5c0-1.4 2-1.4 2 0Z"/><path fill="#C7C8CC" id="alv" d="m262 63-1 1v-1h1Z"/><path fill="#1A7E61" id="SSp-bfd6b" d="M365 102v1l-21.5-24-15-12c-1.426-.713-6.5-1.764-6.5-4h1c8.106 0 26.821 21.32 33 27.5 2.859 2.859 9 7.523 9 11.5Z"/><path fill="#1A7E62" id="SSs1" d="M43 89c2.54 0 2.543 3 4 3 2.225 0 2.373-3.873 3.5-5L64 69l-2-4-4.5 5C54.752 72.749 43 86.157 43 89Z"/><path fill="#C7C8CC" id="alv" d="m260 65-1 1 1-1ZM259 66l-1 1 1-1Z"/><path fill="#1A7E62" id="SSs1" d="m413 89-4 4c0-2.138-14.479-23-17-23v-1l3-3c1.523 0 18 20.13 18 23Z"/><path fill="#1A7E61" id="SSp-bfd6b" d="M127 67c-3.646 0-26 20.379-26 24 2.153 0 4.626-4.126 6.5-6 1.945-1.945 19.5-17.396 19.5-18Z"/><path fill="#C7C8CC" id="alv" d="m258 67-1 1 1-1ZM257 68l-1 1 1-1Z"/><path fill="#1B8063" id="SSs2/3" d="M55 102h1c0-5.365 7.645-15.145 11.5-19 1.127-1.127 1.275-5 3.5-5v-1c0-3.793-6-4.586-6-8h-1L50.5 87c-1.127 1.127-1.275 5-3.5 5v1c1.522 0 8 7.09 8 9Z"/><path fill="#C7C8CC" id="alv" d="m256 69-1 1 1-1ZM255 70l-1 1 1-1Z"/><path fill="#1B8063" id="SSs2/3" d="M409 93c-4.828 0-3.869 8-8 8-1.333 0-12.837-23-16-23v-1l7-7c2.521 0 17 20.862 17 23Z"/><path fill="#C7C8CC" id="alv" d="M254 71c-1.238 0-3 .423-3 2 1.238 0 3-.423 3-2ZM115 89h1l16-16c-3.849 0-17 11.901-17 16ZM251 73l-1 1 1-1ZM250 74l-1 1 1-1ZM208 75l2 2-2-2ZM248 75l-1 1 1-1ZM247 76l-1 1 1-1ZM211 77l2 2-2-2ZM245 77l-1 1 1-1Z"/><path fill="#187C63" id="SSs4" d="M56 102c0 1.539 1.342 3 3 3 2.137 0 13.038-20 17-20v-1l-5-6c-2.225 0-2.373 3.873-3.5 5C63.645 86.855 56 96.635 56 102Z"/><path fill="#C7C8CC" id="alv" d="m244 78-1 1 1-1Z"/><path fill="#187C63" id="SSs4" d="M401 103c-1.238 0-3 .423-3 2-4.08 0-12.672-20-18-20v-1l5-6c3.163 0 14.667 23 16 23v2Z"/><path fill="#C7C8CC" id="alv" d="m214 79 2 2-2-2ZM242 79l-1 1 1-1ZM241 80l-1 1 1-1Z"/><path fill="#7BD04A" id="DG-mo" d="M204 116h1l1-1h1l2-1 2-3 1-1 1-1 1-7-1-2-36.5-19c-10.759-5.38-25.652 10-31.5 10l-1 3c0 3.352 5.126 5 8 5 0-4.138 7.697-4.598 10.5-6 13.556-6.778 23.279 2.14 35 8l10 1c6.179 3.089-1.196 7.598-4 9-4.05 2.025-15.731-2.365-19-4-7.799-3.9-13.579 0-21.5 0l-2 2 1 2 19 2c1.048 0 3-.473 3 1h2l1 1h4l1 1h12Z"/><path fill="#C7C8CC" id="alv" d="m222 84-1 1-4-4 5 3ZM240 81l-1 1 1-1Z"/><path fill="#7BD04A" id="DG-mo" d="M263 116c-1.145 0-4-.579-4 1l-7-1-3-1c0-2.512-7-6.383-7-12l2-3c3.367 0 30.098-16.299 35.5-19 10.513-5.257 27.21 10 31.5 10l1 4c0 2.528-4.652 4-7 4 0-3.61-8.756-4.628-11.5-6-12.231-6.115-19.273.636-30 6-4.844 2.422-11.221 1.611-16 4-3.637 1.819 3.731 7.365 5 8 4.353 2.176 15.56-2.28 19-4 7.813-3.907 13.739 0 21.5 0l2 2v2l-14 1-1 1h-5l-2 1h-3l-1 1-6 1Z"/><path fill="#C7C8CC" id="alv" d="m239 82-2 1 2-1ZM235 84v1c1.747 0 2-.253 2-2l-2 1Z"/><path fill="#7ECD4A" id="FC" d="M225 91c-3.246 0-4.04 6-7 6 0-4.049 3-7.132 3-12l1-1h5l-2 7ZM235 85c0 5.014 4 7.902 4 12-4.287 0-10-9.37-10-13h6v1Z"/><path fill="#1C8063" id="SSs5" fill-rule="evenodd" d="M60 107c0 1.93 1.93 0 0 0m-1-1c0 1.764 7.828 11 9 11 0-2.289 14.046-24 15-24v-1c0-1.766-5.833-7-7-7-3.962 0-14.863 20-17 20v1Z"/><path fill="#1C8063" id="SSs5" d="M388 117h1c0-1.644 6.239-9 7.5-9l1.5-2v-1c-4.08 0-12.672-20-18-20l-7 7v1c1.536 0 15 21.148 15 24Z"/><path fill="#A8A9AA" id="V3" d="M223 95c3.736 0 2.992 6 5.5 6 1.405 0-.523-5 5.5-5l-5.5-8-3.5 3-2 4Z"/><path fill="#039399" id="AUDd1" d="M35 117h1c0-8.791 11-15.753 11-24v-1c-1.457 0-1.46-3-4-3 0 3.972-13 19.627-13 26l5 2Z"/><path fill="#C7C8CC" id="alv" d="M109 97v1l4-5 2-4c-2.158 0-6 5.64-6 8Z"/><path fill="#7DCF4B" id="CA2" d="M113 93c10.419 0 21.171 1 31 1l1-3-22.5-1c-1.363 0-6.5.7-6.5-1h-1l-2 4Z"/><path fill="#039399" id="AUDd1" d="m426 115-5 2-12-24 4-4c1.74 0 13 22.905 13 26Z"/><path fill="#65A83D" id="DG-sg" d="M171 102c-1.846 0-8 2.551-8 5 7.921 0 13.701-3.9 21.5 0 3.269 1.635 14.95 6.025 19 4 2.804-1.402 10.179-5.911 4-9l-10-1c-11.721-5.86-21.444-14.778-35-8-2.803 1.402-10.5 1.862-10.5 6h4c0-1.615 7.111-2.306 8.5-3 9.578-4.79 18.694 1.847 27 6l5.5 2.5c1.126 2.253-12.1-.8-13.5-1.5-4.532-2.266-7.951-1-12.5-1ZM285 102c2.053 0 8 2.129 8 5-7.761 0-13.687-3.907-21.5 0-3.44 1.72-14.647 6.176-19 4-1.269-.635-8.637-6.181-5-8 4.779-2.389 11.156-1.578 16-4 10.727-5.364 17.769-12.115 30-6 2.744 1.372 11.5 2.39 11.5 6h-5c0-1.758-7.103-2.301-8.5-3-10.092-5.046-19.303 2.651-28 7l-4.5 1.5c-1.585 3.17 12.365-.933 13.5-1.5 4.283-2.141 8.362-1 12.5-1Z"/><path fill="#7DCF4B" id="CA2" d="M343 93h-24.5l-6.5 2-1-4c9.74 0 19.764-1 30-1 1.577 0 2 1.762 2 3Z"/><path fill="#1A7E61" id="SSp-bfd6b" d="M101 91c-1.853 0-6 3.534-6 6 1.853 0 6-3.534 6-6Z"/><path fill="#029397" id="AUDd2/3" d="m36 117 9 4c0-6.786 10-12.189 10-19 0-1.91-6.478-9-8-9 0 8.247-11 15.209-11 24Z"/><path fill="#197D63" id="SSs6a" d="m65 151 3 2c0-14.169 9.99-28.481 16-40.5.941-1.883 4.205-9.5 7-9.5v-2c-3.841 0-4.792-8-8-8-.954 0-15 21.711-15 24v1l4 7.5-1 4.5c0 4.096-1.609 8.717-4 13.5l-3 1 2 1c.149.298-1 5.127-1 5.5Z"/><path fill="#7ECF49" id="CA3" d="M151 111h1c0-1.684 4.679-1 6-1h2l1-1 2-2c0-2.449 6.154-5 8-5 0-5.033-10.623-3-15-3h-4c-2.874 0-8-1.648-8-5-9.829 0-20.581-1-31-1l-4 5-1 12.5c6.616 13.231 18.765 2.5 29 2.5 0-2.5 11.582-2 14-2ZM305 111h1c8.868 0 31.147 8.676 36.5 6 9.559-4.779 5.993-24 .5-24h-24.5l-6.5 2c0 2.528-4.652 4-7 4h-5c-3.7 0-15-1.881-15 3 2.053 0 8 2.129 8 5l2 2 2 1h1c1.406 0 7-.714 7 1Z"/><path fill="#197D63" id="SSs6a" d="M388 153h1l3-2-2-3.5h2c0-.651-2.198-1.651-.5-2.5l1.5-.5c0-1.186-5 .372-5-2l2-1c0-.935-5-6.407-5-11.5 0-1.511-1-2.998-1-4.5 0-2.416 4-4.77 4-8.5 0-2.852-13.464-24-15-24 0 2.633-7 5.76-7 9l9 13.5c5.343 10.687 13 24.89 13 37.5Z"/><path fill="#029397" id="AUDd2/3" d="M411 121h1c0-.855 7.665-4 9-4l-12-24c-4.828 0-3.869 8-8 8v2c.692 0 10 15.56 10 18Z"/><path fill="#7ECE4A" id="DG-po" d="M156 99c4.377 0 15-2.033 15 3 4.549 0 7.968-1.266 12.5 1 1.4.7 14.626 3.753 13.5 1.5l-5.5-2.5c-8.306-4.153-17.422-10.79-27-6-1.389.694-8.5 1.385-8.5 3ZM300 99c-3.7 0-15-1.881-15 3-4.138 0-8.217-1.141-12.5 1-1.135.567-15.085 4.67-13.5 1.5l4.5-1.5c8.697-4.349 17.908-12.046 28-7 1.397.699 8.5 1.242 8.5 3Z"/><path fill="#A8A9AA" id="V3" d="m223 95-1 1 1-1Z"/><path fill="#A9AAA8" id="chpl" d="M235 107c-1.577 0-2 1.762-2 3-2.259 0-3.345 4.578-6.5 3l-6.5-8v-6l1-1v-1l1-1 1-1c3.736 0 2.992 6 5.5 6 1.405 0-.523-5 5.5-5l1 1 1 1v1l1 1v3l-2 4Z"/><path fill="#A8A9AA" id="V3" d="m222 96-1 1 1-1Z"/><path fill="#1A7E61" id="SSp-bfd6b" d="M91 101v2c2.568 0 4-3.478 4-6l-4 4Z"/><path fill="#A8AAAA" id="VL" d="M108 98h1v-1l-1 1Z"/><path fill="#A8A9AA" id="V3" d="m235 97 1 1-1-1Z"/><path fill="#C7C8CC" id="alv" d="M130 117c-3.68 0-5.511 2-9 2-6.536 0-14 .454-14-8v-11l1-2h1l-1 12.5c6.616 13.231 18.765 2.5 29 2.5l-2 2h-2l-1 1h-1l-1 1Z"/><path fill="#A8A9AA" id="V3" d="m221 98-1 1 1-1ZM236 99l1 1-1-1Z"/><path fill="#A8AAAA" id="VL" d="m101 131 3 2c0-2.595-3.005-13 2-13 0-1.671-2.576-9 1-9v-11c-4.141 0-10 12.83-10 16 7.86 0 2 9.456 2 12l1 1 1 1v1Z"/><path fill="#7DCD4B" id="HPF" d="m215 100-1 2-1-2h2ZM244 100l-2 3v-3h2Z"/><path fill="#A8AAAA" id="VL" d="M353 133h1l1-1 2-4c0-2.999-6.242-12 3-12 0-2.91-7.001-16-11-16 0 2.998 1 7.358 1 11 2.819 0 0 8.108 0 9 5.614 0 2 10.138 2 13h1Z"/><path fill="#039398" id="AUDd4" d="m45 121 5 1 6-12.5 3-3.5v-1c-1.658 0-3-1.461-3-3h-1c0 6.811-10 12.214-10 19Z"/><path fill="#1A8061" id="SSs6b" d="M387 153h1c0-12.61-7.657-26.813-13-37.5l-9-13.5h-1v1l3 6c2.178 0 15 25.877 15 29 0 5.008 4 9.495 4 15ZM68 153h1l4-14 1-1v-1l1-1v-1c0-2.874 10.08-24 12-24l1-2 1-1 2-5c-2.795 0-6.059 7.617-7 9.5-6.01 12.019-16 26.331-16 40.5Z"/><path fill="#FF8D9F" id="MH" d="M223 130h2c0-3.461 4.034-8.432 2-12.5-.695-1.389-7-11.123-7-11.5-2.189 0-3-5.395-3 1 0 2.317-1.924 11-5 11l8 10 3 2Z"/><path fill="#A8A9AA" id="V3" d="M237 105c0 1.747-.253 2-2 2l2-4v2Z"/><path fill="#039398" id="AUDd4" d="m411 121-4 1c-2.331 0-5.981-11.463-7-13.5l-2-2.5v-1c0-1.577 1.762-2 3-2 .692 0 10 15.56 10 18Z"/><path fill="#FF8D9F" id="MH" d="M232 130h1l3-2c2.067 0 8-8.249 8-10-2.078 0-4-7.211-4-9-3.331 0 1.876-4-3-4 0 1.747-.253 2-2 2 0 1.238-.423 3-2 3 0 2.029-1.191 1.881-2 3.5-1.022 2.045-2.319 16.5 1 16.5Z"/><path fill="#A8A9AA" id="V3" d="M225 130c0 3.366 7 3.14 7 0-3.319 0-2.022-14.455-1-16.5.809-1.619 2-1.471 2-3.5-2.259 0-3.345 4.578-6.5 3l-6.5-8v1c0 .377 6.305 10.111 7 11.5 2.034 4.068-2 9.039-2 12.5Z"/><path fill="#029398" id="AUDd5" d="m50 123 14 4c0-1.227 3.226-9 4-9v-1c-1.172 0-9-9.236-9-11l-3 3.5-6 12.5v1ZM407 123c-5.291 0-9.009 4-14 4-1.693 0-4-8.239-4-10 0-1.644 6.239-9 7.5-9l1.5-2 2 2.5c1.019 2.037 4.669 13.5 7 13.5v1Z"/><path fill="#029398" id="AUDd5" d="M60 107c0 1.93 1.93 0 0 0Z"/><path fill="#C8CCC7" id="hbc" d="M212 117v1c3.076 0 5-8.683 5-11l-2 2-3 8Z"/><path fill="#A8A9AA" id="V3" d="M235 107c-1.577 0-2 1.762-2 3 1.577 0 2-1.762 2-3Z"/><path fill="#C9C9CA" id="scwm" d="m89 108-1 1 1-1Z"/><path fill="#C8CCC7" id="hbc" d="m245 116-1 2c-2.078 0-4-7.211-4-9 0-1.93 1.161 0 2 0 0 1.647 1.268 7 3 7Z"/><path fill="#C9C9CA" id="scwm" d="m88 109-1 2 1-2Z"/><path fill="#7DCD4B" id="HPF" d="M161 111h1l-1-2-1 1 1 1Z"/><path fill="#FF8D9F" id="MH" d="m209 115 3 2 3-8h-2l-1 1-1 1-2 3v1ZM247 114c0 1.747-.253 2-2 2-1.732 0-3-5.353-3-7l5 5Z"/><path fill="#7DCD4B" id="HPF" d="M295 110h2l-2-1v1Z"/><path fill="#C9C9CA" id="scwm" d="m379 134 4 4c0-3.123-12.822-29-15-29 0 4.979 6 10.435 6 16l5 9Z"/><path fill="#C7C8CC" id="alv" d="M155 111h3v-1c-1.321 0-6-.684-6 1h3ZM301 111h4c0-1.714-5.594-1-7-1v1h3Z"/><path fill="#C9C9CA" id="scwm" d="M75 135h3l5-10c0-5.313 4-9.231 4-14-1.92 0-12 21.126-12 24Z"/><path fill="#CBC8CB" id="fi" d="m120 142-1 1c-3.66 0-5.287 4.107-9.5 2-1.722-.861-.667-8-2.5-8 0-5.587-1-12.081-1-17 0-1.671-2.576-9 1-9 0 8.454 7.464 8 14 8 0 2.69 1 6.675 1 10v10l-1 2-1 1Z"/><path fill="#C7C8CC" id="alv" d="M141 113h1c0-1.735 6.51-1 8-1h1v-1c-2.418 0-14-.5-14 2h4Z"/><path fill="#FE909D" id="LP" d="M146 137h1l9.5-4c3.717-1.858 10.069-1 14.5-1 1.968 0 8 .361 8 3 2.156 0 5.037 5 10 5l10-21-6-3h-1l-1-1h-4l-1-1h-2c-1.048 0-3 .473-3-1l-19-2h-7c0 1.579-2.855 1-4 1h-1v8.5l-3 4.5c0 1.145.579 4-1 4v8ZM309 137h2l-1-7-1-5c0-.944-3-9.99-3-13-1.235 0-5 .643-5-1h-6l-14 1-1 1h-5l-2 1h-3l-1 1-6 1c0 1.579-2.855 1-4 1l-2 2c0 5.633 11 15.877 11 21 3.47 0 5.278-3 8-3l1-1c0-3.527 6.059-4 8.5-4l15 1 8.5 4Z"/><path fill="#CBC8CB" id="fi" d="M349 137c0 11.062-12 9.7-12 5l-2-2.5c-.619-1.238 1.144-5.5-1-5.5v-6c0-3.222 1-6.277 1-9 6.525 0 15 .561 15-8 2.819 0 0 8.108 0 9l-1 17Z"/><path fill="#FE7F84" id="LGd-co" d="M133 132h1l1-1 9-4 3-2 3-4.5V112c-1.49 0-8-.735-8 1 12.318 0-2.886 6.728-4 4.5-1.394-2.789 3-3.035 3-4.5h-4l-2 2c2.688 0-2.101 2.601-2.5 3-1.849 1.849-2.342 5-5.5 5-1.643 0-1 3.765-1 5v1c1.489 0 7 1.835 7 3ZM322 131l1 1 7-3 1-2c0-1.424-.362-5-2-5 0 2.35-9.441-7-8-7 0-1.995-4.377-2-6-2l4 3.5c0 4.274-16.873-3.5-5-3.5 0-1.735-6.51-1-8-1 0 3.01 3 12.056 3 13l3 2 10 4Z"/><path fill="#FD8082" id="LGd-ip" d="M141 113h1c12.318 0-2.886 6.728-4 4.5-1.394-2.789 3-3.035 3-4.5ZM314 113h1l4 3.5c0 4.274-16.873-3.5-5-3.5Z"/><path fill="#FF8F9D" id="LH" d="m255 136-4 4c-5.099 0-10.214-7-15-7v-5c2.067 0 8-8.249 8-10l1-2c1.747 0 2-.253 2-2l2 1 3 1 3 3c0 2.72 4.855 5.79 3 9.5l-3 7.5Z"/><path fill="#019099" id="AUDv1" d="M23 149h6c0-4.81.138-16.776 2-20.5l4-11.5-5-2c0 8.812-7 23.409-7 34Z"/><path fill="#FE8083" id="LGd-sh" d="M130 117c0 2.079-3 3.187-3 6 3.158 0 3.651-3.151 5.5-5 .399-.399 5.188-3 2.5-3h-2l-1 1h-1l-1 1Z"/><path fill="#FF8F9D" id="LH" d="m201 136 4 4c3.745 0 13.142-7 15-7l1-2-1-3-8-10v-1l-3-2h-3l-1 1h-1l-3 3-3 6.5 3 10.5Z"/><path fill="#FE8083" id="LGd-sh" d="M325 116c0 2.116 4 2.572 4 6 0 2.35-9.441-7-8-7l4 1Z"/><path fill="#019099" id="AUDv1" d="M427 149h6c0-6.831-1.023-19.546-4-25.5l-3-8.5-5 2 3 6.5c3.387 6.774 3 17.397 3 25.5Z"/><path fill="#98D5F9" id="CP" d="M104 189c0 10.441-10.948 8-18 8-3.991 0-12.073-16-13-16 0-1.145.58-4-1-4 0-7.741 2-14.986 2-22l1-4v-2c1.845 0 1.44-3.381 2-4.5l7-14.5 7.5-10 3.5-3 2-1c7.86 0 2 9.456 2 12l-1 1-2.5 4c-.745.745-4.19 15.121-3.5 16.5.946 1.892 2 5.372 2 7.5l1 1v4c0 2.16 2 4.167 2 7l1 1v3c0 2.675 1.086 10 5 10v4l1 1v1ZM353 188c0 12.346 7.135 9 17 9 2.501 0 13-13.862 13-16l1-2c0-8.186-1-16.344-1-24l-2-4v-3l-9-18-5-7.5-6-6.5h-1c-9.242 0-3 9.001-3 12l1 1c1.816 0 2.392 4.284 3 5.5 4.937 9.873 1 14.135 1 23.5l-1 1v3l-2 8v3c0 1.647-1.268 7-3 7l-1 1-1 2-1 2v3Z"/><path fill="#029198" id="AUDv2/3" d="M29 149h9c0-5.945.485-14.469 3-19.5l4-8.5-9-4h-1l-4 11.5c-1.862 3.724-2 15.69-2 20.5Z"/><path fill="#019399" id="AUDd6a" d="m393 128-8 2c0-1.511-1-2.998-1-4.5 0-2.416 4-4.77 4-8.5h1c0 1.761 2.307 10 4 10v1Z"/><path fill="#029198" id="AUDv2/3" d="M419 149h8c0-8.103.387-18.726-3-25.5l-3-6.5c-1.335 0-9 3.145-9 4 0 6.148 7 19.028 7 28Z"/><path fill="#019399" id="AUDd6a" d="m64 128 7 2 1-4.5-4-7.5c-.774 0-4 7.773-4 9v1Z"/><path fill="#FD8F9D" id="CL" d="M190 165c2.583 0 3.934 2 7 2 0-10.939-5.053-14.393 1-26.5.666-1.333.407-4.5 3-4.5l-3-10.5 3-6.5h-2l-10 21c0 4.594-1 10.741-1 16 0 3.447 2 6.245 2 9ZM266 165c-1.974 0-3.517 2-6 2 0-5.58 3.598-31-5-31l3-7.5c1.855-3.71-3-6.78-3-9.5h2c0 5.633 11 15.877 11 21v17l-1 7-1 1Z"/><path fill="#A9AAA8" id="chpl" d="M104 133c2.266 0-.454 4 3 4 0-5.587-1-12.081-1-17-5.005 0-2 10.405-2 13ZM352 133c0 2.061-.902 4-3 4l1-17c5.614 0 2 10.138 2 13Z"/><path fill="#029197" id="AUDv4" d="M38 149h5c0-6.439 2.252-15.004 5-20.5.492-.984.85-5.5 2-5.5v-1l-5-1-4 8.5c-2.515 5.031-3 13.555-3 19.5ZM419 149c-2.011 0-3.989 1-6 1 0-10.032-6-18.624-6-27v-1l4-1h1c0 6.148 7 19.028 7 28Z"/><path fill="#019098" id="AUDv5" d="M57 151h1c0-5.605 1.626-12.751 4-17.5.492-.984.85-5.5 2-5.5v-1l-14-4c-1.15 0-1.508 4.516-2 5.5-2.748 5.496-5 14.061-5 20.5v1c3.589 0 9.91 1 14 1ZM413 150c-3.999 0-10.266 1-14 1 0-7.749-6-15.47-6-23v-1c4.991 0 8.709-4 14-4 0 8.376 6 16.968 6 27Z"/><path fill="#C7CACC" id="ccs" d="M78 135c0 5.37-3 8.514-3 14 1.845 0 1.44-3.381 2-4.5l7-14.5-1-5-5 10Z"/><path fill="#FF6F80" id="TH" d="m144 127 2 2c1.579 0 1-2.855 1-4l-3 2ZM312 127l-2 3-1-5 3 2Z"/><path fill="#C7CACC" id="ccs" d="M379 134c0 4.702 2 8.589 2 14l-9-18c1.014 0 2-3.959 2-5l5 9Z"/><path fill="#CAC7CB" id="fiber tracts" d="m122 138 1 1c.889 0 3-8.743 3-10v-1c-2.878 0-2.954 1-4 1v9Z"/><path fill="#CBC9C7" id="or" d="m134 148-1 1c0-4.948 3.867-11-4-11l4-5 1-1 1-1 9-4 2 2v8l-1 1-10 9-1 1ZM322 148l3 3c0-5.499-9.816-12 3-12l-5-7-1-1-10-4-2 3 1 7v1c0 2.753 11 5.64 11 10Z"/><path fill="#CAC7CB" id="fiber tracts" d="M347 151c0-2.267-8.475-6.549-10-3.5-1.058 2.116 2 2.898 2 4.5-2.741 0-2.75-4-5-4l-1-4v-3c0-2.075-1.307-12-3-12l1-2 3 1v6c0 2.32-.666 8 3 8 0 4.7 12 6.062 12-5 2.098 0 3-1.939 3-4h1c0 3.947.591 2 3 2 0 2.951-5.249 16-9 16Z"/><path fill="#019397" id="AUDv6a" d="M58 151h7c0-.373 1.149-5.202 1-5.5l-2-1 3-1c2.391-4.783 4-9.404 4-13.5l-7-2c-1.15 0-1.508 4.516-2 5.5-2.374 4.749-4 11.895-4 17.5Z"/><path fill="#97D6F9" id="STR" d="M101 131c0 .004 3.746 5 1.5 5l-2.5-2c-.672 0-2-4.329-2-5l1-1 1 1 1 1v1Z"/><path fill="#FF6F80" id="TH" d="m223 130-2 1-1-3 3 2ZM233 130l3 3v-5l-3 2Z"/><path fill="#97D6F9" id="STR" d="m357 134-1 1c-2.409 0-3 1.947-3-2h1l1-1 2-4 1 1-1 5Z"/><path fill="#019397" id="AUDv6a" fill-rule="evenodd" d="M392 149c0 1.93 1.93 0 0 0m-5-15c0 1.93 1.93 0 0 0m5 17h7c0-7.749-6-15.47-6-23l-8 2c0 5.093 5 10.565 5 11.5l-2 1c0 2.372 5 .814 5 2l-1.5.5c-1.698.849.5 1.849.5 2.5h-2l2 3.5Z"/><path fill="#CBC9C7" id="or" d="m95 160 1 2c2.516 0 12.992.254 15.5-1 2.55-1.275 4.466-5 7.5-5 0-2.087 3-4.393 3-7l-3 2-1 1c0 2.001-9 1.32-9-1-1.95 0-9-14.554-9-17-.672 0-2-4.329-2-5l-2.5 4c-.745.745-4.19 15.121-3.5 16.5.946 1.892 2 5.372 2 7.5l1 1v2Z"/><path fill="#CAC7CB" id="fiber tracts" d="m100 129 1 1-1-1Z"/><path fill="#FF8E9F" id="LGv" d="M124 142h1l4-4 4-5v-1c0-1.165-5.511-3-7-3 0 1.257-2.111 10-3 10l1 3ZM333 141l-2 1-3-3-5-7 7-3c1.693 0 3 9.925 3 12Z"/><path fill="#CBC9C7" id="or" d="m361 161-1 1c-2.183 0-12.267.117-14.5-1l-8.5-6c-1.267 0-3-5.853-3-7 2.25 0 2.259 4 5 4 0 1.657 8 1.894 8-1 3.751 0 9-13.049 9-16l1-1 1-5c1.816 0 2.392 4.284 3 5.5 4.937 9.873 1 14.135 1 23.5l-1 1v2Z"/><path fill="#FE8F9E" id="PVT" d="M222 151h13l11-7c-4.813 0-10-6.513-10-11l-3-3h-1c0 3.14-7 3.366-7 0h-2l-2 1v2c0 3.822-5.825 11-10 11 0 1.654 8.871 7 11 7Z"/><path fill="#CAC7CB" id="fiber tracts" d="M109 151c0-4.186 10-6.794 10 0l3-2 2-6v-1l-1-3h-1l-1 2-1 1-1 1c-3.66 0-5.287 4.107-9.5 2-1.722-.861-.667-8-2.5-8-3.454 0-.734-4-3-4l-3-2c0 .004 3.746 5 1.5 5l-2.5-2c0 2.446 7.05 17 9 17Z"/><path fill="#FF6F80" id="TH" d="m135 131-1 1 1-1ZM220 133h1v-2l-1 2ZM322 131l1 1-1-1ZM134 132l-1 1v-1h1Z"/><path fill="#FF8E9C" id="PO" d="M188 187h4c2.723 0 5.778-1 9-1l-6-6.5-5-14.5c0-2.755-2-5.553-2-9-1.183 0-1.535-3.57-2-4.5-2.156-4.311-7-11.632-7-16.5 0-2.639-6.032-3-8-3-4.431 0-10.783-.858-14.5 1l-9.5 4v1c5.002 0 7.07 5.57 10 8.5 9.294 9.294 12.323 26.411 24.5 32.5l6.5 8ZM265 187h4c0-5.839 8.085-6.67 10-10.5 3.159-6.318 14.469-24.469 20-30 2.927-2.927 6.151-8.5 10-8.5v-1l-8.5-4-15-1c-2.441 0-8.5.473-8.5 4l-1 1c0 5.15-3.803 11.105-6 15.5-.465.93-.817 4.5-2 4.5l-1 7-1 1c0 4.131-2.225 9.951-4 13.5l-7 7.5c3.51 0 7.022 1 10 1Z"/><path fill="#CAC7CB" id="fiber tracts" d="m355 132-1 1 1-1Z"/><path fill="#C7CAC9" id="fr" d="M205 140c0 3.752 1.593 4 6 4 4.175 0 10-7.178 10-11h-1c-1.858 0-11.255 7-15 7ZM251 140c0 3.451-.134 4-5 4-4.813 0-10-6.513-10-11 4.786 0 9.901 7 15 7Z"/><path fill="#CCC8CA" id="ar" d="M69 176h1c1.743 0 1-6.968 1-8.5 0-4.545 2-8.62 2-12.5 0-2.177-.64-4 2-4v-2c0-5.486 3-8.63 3-14h-3v1l-1 1v1l-1 1-4 14v23Z"/><path fill="#CAC7CB" id="fiber tracts" d="m357 134-1 1 1-1Z"/><path fill="#CCC8CA" id="ar" d="M388 157c0 6.417-1 13.174-1 19-2.303 0-2-2.951-2-4.5 0-5.634-1-11.428-1-16.5 0-1.717-1.252-4-3-4v-3c0-5.411-2-9.298-2-14l4 4c0 5.008 4 9.495 4 15 0 1.145-.579 4 1 4Z"/><path fill="#197D63" id="SSs6a" d="M387 134c0 1.93 1.93 0 0 0Z"/><path fill="#FD8F9C" id="Eth" d="M189 140c0 4.594-1 10.741-1 16-1.183 0-1.535-3.57-2-4.5-2.156-4.311-7-11.632-7-16.5 2.156 0 5.037 5 10 5Z"/><path fill="#C9C9CA" id="scwm" d="m75 136-1 1 1-1Z"/><path fill="#FD909D" id="MD" d="m219 180-5 3c-7.769 0-17-7.95-17-16 0-10.939-5.053-14.393 1-26.5.666-1.333.407-4.5 3-4.5l4 4c0 3.752 1.593 4 6 4 0 1.654 8.871 7 11 7 0 4.122 4.364 10.773 2 15.5-.597 1.195-5 13.104-5 13.5ZM237 179c0 1.008 5.147 4 6 4 4.414 0 11.722-3.944 14-8.5.453-.906 2.584-7.5 3-7.5 0-5.58 3.598-31-5-31l-4 4c0 3.451-.134 4-5 4l-11 7c0 3.217-4.931 8.638-3 12.5.503 1.006 5 15.291 5 15.5Z"/><path fill="#FD8F9C" id="Eth" d="m277 136-1 1 1-1Z"/><path fill="#FF6F80" id="TH" d="M145 138h2v-1h-1l-1 1Z"/><path fill="#FD8F9C" id="Eth" d="M268 140v17c1.183 0 1.535-3.57 2-4.5 2.197-4.395 6-10.35 6-15.5-2.722 0-4.53 3-8 3Z"/><path fill="#FF6F80" id="TH" d="M309 138h2v-1h-2v1Z"/><path fill="#C9C9CA" id="scwm" d="m74 138-1 1 1-1Z"/><path fill="#FD8F9F" id="RT" d="M137 183v4c-4.897 0-6.064-6-10-6l-3-2-1-1-2-1-1-1h-1l-5-2.5c-3.262-6.524 5-12.27 5-17.5 0-2.087 3-4.393 3-7l2-6 1-1 4-4c7.867 0 4 6.052 4 11l-1 1-1 1-4 9.5c-3.06 6.12 3.769 14.537 6 19 .433.865 2.479 3.5 4 3.5Z"/><path fill="#FF7E83" id="VPM" d="m181 194-2 1-11.5 1-4.5-2-8-7.5c-4.224-8.449-12.696-20.098-19.5-23.5l-4.5-6 2-7v-1l1-1 1-1 10-9h2c5.002 0 7.07 5.57 10 8.5 9.294 9.294 12.323 26.411 24.5 32.5l6.5 8-1 4-2 1-1 1h-1l-2 1ZM273 193l7.5 3c4.29 2.145 9.953-2 13.5-2l6-5.5c3.112-6.223 25-29.567 25-32.5 0-3.238-3-5.3-3-8 0-4.36-11-7.247-11-10h-2c-3.849 0-7.073 5.573-10 8.5-5.531 5.531-16.841 23.682-20 30-1.915 3.83-10 4.661-10 10.5 0 3.454 3 3.835 3 6h1Z"/><path fill="#FD8F9F" id="RT" d="M325 185c-2.447 0-3.28 2-6 2l1-4c1.712 0 3-2.571 3-4 4.173 0 8.266-15.967 6-20.5l-4-7.5c0-5.499-9.816-12 3-12l3 3 2 2 1 4c0 1.147 1.733 7 3 7l6 13.5c2.796 5.591-6 5.902-6 7.5h-1l-1 1h-1l-1 1-2 2-1 1-1 1c-1.429 0-4 1.288-4 3Z"/><path fill="#FF6F80" id="TH" d="m331 142 2 2v-3l-2 1ZM125 142l-1 1v-1h1Z"/><path fill="#C8CBC7" id="st" d="m119 151-1 1c0 2.001-9 1.32-9-1 0-4.186 10-6.794 10 0Z"/><path fill="#C7CACA" id="em" d="m135 147-1 1 1-1Z"/><path fill="#C8CBC7" id="st" d="M347 151c0 2.894-8 2.657-8 1 0-1.602-3.058-2.384-2-4.5 1.525-3.049 10 1.233 10 3.5Z"/><path fill="#C7CACA" id="em" d="M325 156c1.995 0 2 4.377 2 6 0 7.876-4 14.026-4 17 4.173 0 8.266-15.967 6-20.5l-4-7.5-3-3c0 2.7 3 4.762 3 8Z"/><path fill="#15B0B3" id="TEa1" d="m31 178-6 1c0-10.512-2-19.365-2-30h6c0 9.781 2 19.635 2 29Z"/><path fill="#16AFB3" id="TEa2/3" d="M41 177c-3.51 0-7.022 1-10 1 0-9.365-2-19.219-2-29h9c0 2.681-2.592 8.316-1 11.5 1.84 3.68 4 12.46 4 16.5Z"/><path fill="#15B0B2" id="TEa4" d="M41 177h2v-28h-5c0 2.681-2.592 8.316-1 11.5 1.84 3.68 4 12.46 4 16.5Z"/><path fill="#15AFB3" id="TEa5" d="M43 177h14v-26c-4.09 0-10.411-1-14-1v27Z"/><path fill="#CBC9C7" id="or" d="M132 150h1v-1l-1 1Z"/><path fill="#197D63" id="SSs6a" d="M392 149c0 1.93 1.93 0 0 0Z"/><path fill="#15AFB3" id="TEa5" d="M413 177h1c0-9.06-1-18.543-1-27-3.999 0-10.266 1-14 1 0 9.097 1 17.141 1 26h13Z"/><path fill="#15B0B2" id="TEa4" d="M414 177h2c0-3.899 1.3-10.1 3-13.5V149c-2.011 0-3.989 1-6 1 0 8.457 1 17.94 1 27Z"/><path fill="#16AFB3" id="TEa2/3" d="M425 178h1l1-29h-8v14.5c-1.7 3.4-3 9.601-3 13.5 3.222 0 6.277 1 9 1Z"/><path fill="#15B0B3" id="TEa1" d="m426 178 5 1c0-10.407 2-19.282 2-30h-6l-1 29Z"/><path fill="#CBC9C7" id="or" d="m132 150-1 1 1-1Z"/><path fill="#C7CACA" id="em" d="M131 157c-1.882 0-3.029 10.442-2 12.5 1.264 2.527 8 13.019 8 13.5-1.521 0-3.567-2.635-4-3.5-2.231-4.463-9.06-12.88-6-19l4-9.5 1-1h1l-2 7Z"/><path fill="#15AFB2" id="TEa6a" d="m68 176-11 1v-26h8l3 2v23Z"/><path fill="#C7CACC" id="ccs" d="M73 155h1l1-4c-2.64 0-2 1.823-2 4Z"/><path fill="#CAC7CB" id="fiber tracts" d="m119 151-1 1 1-1Z"/><path fill="#FE909F" id="IMD" d="M237 179c-3.26 0-7.463-3.519-10.5-2l-7.5 3c0-.396 4.403-12.305 5-13.5 2.364-4.727-2-11.378-2-15.5h13c0 3.217-4.931 8.638-3 12.5.503 1.006 5 15.291 5 15.5Z"/><path fill="#C7CACC" id="ccs" d="M383 155h1c0-1.717-1.252-4-3-4l2 4Z"/><path fill="#15AFB2" id="TEa6a" d="m389 176 11 1c0-8.859-1-16.903-1-26h-7l-3 2v23Z"/><path fill="#11AD82" id="VISC6b" d="M68 155h1v-2h-1v2ZM388 154v3c-1.579 0-1-2.855-1-4h1v1Z"/><path fill="#11AC83" id="VISC6a" d="M388 154h1v-1h-1v1Z"/><path fill="#16B0B2" id="TEa6b" d="M388 176h1v-22h-1v3c0 6.417-1 13.174-1 19h1ZM68 176h1v-17c-1.186 0-1.186-1 0-1v-3h-1v21Z"/><path fill="#C8CBCC" id="ec" d="m72 184-2 1v-9c1.743 0 1-6.968 1-8.5 0-4.545 2-8.62 2-12.5h1c0 7.014-2 14.259-2 22v7Z"/><path fill="#CCC8CA" id="ar" d="m354 179-2 1c-5.882 0-9.118-4-15-4 0-1.598 8.796-1.909 6-7.5l-6-13.5 8.5 6c2.233 1.117 12.317 1 14.5 1h1l-2 8-2 3-2 5-1 1Z"/><path fill="#C8CBCC" id="ec" d="m384 184 2 1c1.751 0 1-7.426 1-9-2.303 0-2-2.951-2-4.5 0-5.634-1-11.428-1-16.5h-1c0 7.656 1 15.814 1 24v5Z"/><path fill="#CCC8CA" id="ar" d="m102 179 2 1c5.762 0 9.445-4 15-4l-5-2.5c-3.262-6.524 5-12.27 5-17.5-3.034 0-4.95 3.725-7.5 5-2.508 1.254-12.984 1-15.5 1h-1c0 2.16 2 4.167 2 7l1 1v1l1 2 3 6Z"/><path fill="#FD8084" id="VPL" d="M294 194c0 1.643 3.765 1 5 1 5.791 0 10.868-8 16-8l1-1 3-3 4-4c0-2.974 4-9.124 4-17 0-1.623-.005-6-2-6 0 2.933-21.888 26.277-25 32.5l-6 5.5Z"/><path fill="#CCC" d="m94 157 1 1-1-1Z"/><path fill="#FD8084" id="VPL" d="M163 194c0 1.643-3.765 1-5 1-6.44 0-13.585-9-18-9l-3-3c0-.481-6.736-10.973-8-13.5-1.029-2.058.118-12.5 2-12.5l4.5 6c6.804 3.402 15.276 15.051 19.5 23.5l8 7.5Z"/><path fill="#11AD82" id="VISC6b" d="M69 158c-1.186 0-1.186 1 0 1v-1Z"/><path fill="#CCC" d="m362 158-1 1 1-1ZM95 162h1l-1-2v2ZM360 162h1v-1l-1 1Z"/><path fill="#FE8D9F" id="PCN" d="m267 164-1 1 1-1ZM201 186c4.186 0 7.431 3 12 3l1-6c-7.769 0-17-7.95-17-16-3.066 0-4.417-2-7-2l5 14.5 6 6.5ZM255 186c-3.787 0-7.613 3-12 3v-6c4.414 0 11.722-3.944 14-8.5.453-.906 2.584-7.5 3-7.5 2.483 0 4.026-2 6-2 0 4.131-2.225 9.951-4 13.5l-7 7.5Z"/><path fill="#CCC" d="m97 169 1 1-1-1ZM357 173h2v-3l-2 3ZM98 173h1l-1-2v2Z"/><path fill="#97D6F9" id="STR" d="m102 179 1 4c-3.914 0-5-7.325-5-10h1l3 6ZM355 178l1 2c1.732 0 3-5.353 3-7h-2l-2 5Z"/><path fill="#0E9F91" id="ECT6a" d="m68 189-7 4c-2.44 0-4-12.931-4-16l11-1c0 2.998 1 7.358 1 11v1l-1 1Z"/><path fill="#0E9F90" id="ECT6b" d="M69 187h1v-11h-2c0 2.998 1 7.358 1 11Z"/><path fill="#CCC" d="M106 181c5.582 0 10.206 7.706 14 11.5l15 20c3.453 6.906 14.894 13.788 18 20 2.163 4.326 11.486 11.027 15 4 2.846-5.693-8.114-13.114-11.5-16.5-8.872-8.872-14.071-17.643-19.5-28.5-1.471-2.943-10-6.657-10-10.5l-3-2-1-1-2-1-1-1h-1c-5.555 0-9.238 4-15 4l2 1Z"/><path fill="#CAC7CB" id="fiber tracts" d="m120 176 1 1-1-1ZM336 176l-1 1 1-1Z"/><path fill="#CCC" d="M348 183c-5.732 0-9.486 7.986-13 11.5-11.394 11.394-19.736 25.736-30.5 36.5l-10 9c-2.72 1.36-7.625-4.25-6.5-6.5 4.326-8.652 16.231-13.462 20-21 2.868-5.737 6.127-11.255 9-17 1.742-3.484 8-7.254 8-10.5 1.429 0 4-1.288 4-3l1-1 1-1 2-2 1-1h1l1-1h1c5.882 0 9.118 4 15 4l-2 1-1 1-1 1Z"/><path fill="#0E9F90" id="ECT6b" d="M386 186h1c1.763 0 1-8.343 1-10h-1c0 1.574.751 9-1 9v1Z"/><path fill="#0E9F91" id="ECT6a" d="M389 189c2.46 0 4.17 4 7 4 0-5.198 4-10.171 4-16l-11-1h-1c0 1.657.763 10-1 10v2l2 1Z"/><path fill="#0D9F91" id="ECT2/3" d="M35 194c3.962 0 8.688 1 12 1 0-4.363-4-11.511-4-18h-2c-3.51 0-7.022 1-10 1 0 5.296 4 10.387 4 16Z"/><path fill="#0D9E90" id="ECT5" d="M47 195h12l2-1v-1c-2.44 0-4-12.931-4-16H43c0 6.489 4 13.637 4 18Z"/><path fill="#97D6F9" id="STR" d="m73 181-1 1v-5c1.58 0 1 2.855 1 4Z"/><path fill="#FD8E9E" id="CM" d="M221 191c2.279 0 5.418-2 7.5-2l6.5 2 8-2v-6c-.853 0-6-2.992-6-4-3.26 0-7.463-3.519-10.5-2l-7.5 3-5 3-1 6 8 2Z"/><path fill="#CAC7CB" id="fiber tracts" d="m334 177-1 1 1-1Z"/><path fill="#0D9E90" id="ECT5" d="M397 195h12l1-1c0-5.347 3-10.706 3-17h-13c0 5.829-4 10.802-4 16v1l1 1Z"/><path fill="#0D9F91" id="ECT2/3" d="M421 194h1c0-5.88 3-10.531 3-16-2.723 0-5.778-1-9-1h-3c0 6.294-3 11.653-3 17h11Z"/><path fill="#0D9F90" id="ECT1" d="M28 195h7v-1c0-5.613-4-10.704-4-16l-6 1 3 4.5c.964 1.927 0 9.576 0 11.5Z"/><path fill="#CAC7CB" id="fiber tracts" d="m123 178 1 1-1-1Z"/><path fill="#97D6F9" id="STR" d="m355 181-1 2v-4l1-1v3Z"/><path fill="#8598CC" id="GPe" d="m356 180-1 1v-3l1 2Z"/><path fill="#0D9F90" id="ECT1" d="M422 194c0 1.684 4.679 1 6 1 2.448 0 .484-6.532 0-7.5-1.6-3.2 3-5.712 3-8.5l-5-1h-1c0 5.469-3 10.12-3 16Z"/><path fill="#8599CC" id="PAL" d="M120 201h1c0-9.151-15-16.957-15-20l-2-1-2-1 1 4v2c.489 0 9 2.739 9 4l1 1 2 2v2l1 1 1 4c1.481 0 .785 2 3 2Z"/><path fill="#C7CACA" id="em" d="M319 183h1c1.712 0 3-2.571 3-4l-4 4Z"/><path fill="#8599CC" id="PAL" d="m354 183-1 2-2.5 2-5.5-.5 3-3.5 1-1 1-1 2-1 2-1v4Z"/><path fill="#97D6F9" id="STR" d="M383 181h1v-2l-1 2Z"/><path fill="#CAC7CB" id="fiber tracts" d="m331 180-1 1 1-1Z"/><path fill="#90EB8D" id="LA" d="M81 242c0 1.562 2.189 5 4 5 0-4.329-1.349-26 6-26 0-4.876 5.553-4 9-4l-1-4-13-16c-3.991 0-12.073-16-13-16l-1 1v2c0 18.39 7 32.191 7 51v2l1 2v2l1 1Z"/><path fill="#CAC7CB" id="fiber tracts" d="M163 248c0 2.041-.959 3-3 3l-4-7c1.22 0 1.504-3.492 1-4.5l-10-11c-1.222-2.444-22.821-27.5-26-27.5 0-9.151-15-16.957-15-20 5.582 0 10.206 7.706 14 11.5l15 20c3.453 6.906 14.894 13.788 18 20 2.163 4.326 11.486 11.027 15 4 2.846-5.693-8.114-13.114-11.5-16.5-8.872-8.872-14.071-17.643-19.5-28.5-1.471-2.943-10-6.657-10-10.5 3.936 0 5.103 6 10 6h1l5 7c0 1.934.811 7 3 7 0 6.229 18.423 27 25 27l1 1v10c-4.208 0-9 4.834-9 9ZM350 181l-1 1 1-1Z"/><path fill="#90EB8D" id="LA" d="m375 243-3 4c0-4.316.341-26-7-26 0-4.534-4.71-4-8-4v-3c2.453 0 1.447-2.947 2.5-4 2.665-2.665 10.5-9.114 10.5-13 2.501 0 13-13.862 13-16h1v3c0 17.86-7 33.876-7 53v2l-1 2v1l-1 1Z"/><path fill="#CAC7CB" id="fiber tracts" d="M329 182c-1.429 0-4 1.288-4 3 1.429 0 4-1.288 4-3ZM349 182l-1 1 1-1Z"/><path fill="#FF6F80" id="TH" d="M137 187h1l2-1-3-3v4ZM319 187l-1 1c0-1.747-.253-2-2-2l3-3h1l-1 4Z"/><path fill="#CAC7CB" id="fiber tracts" d="m297 251-1 1-3-3c0-5.05-3.765-10-9-10 0-3.325 1-7.31 1-10l1-1c6.136 0 25-21.843 25-28 1.969 0 3-5.584 3-7l1-1 3-4 1-1c2.72 0 3.553-2 6-2 0 3.246-6.258 7.016-8 10.5-2.873 5.745-6.132 11.263-9 17-3.769 7.538-15.674 12.348-20 21-1.125 2.25 3.78 7.86 6.5 6.5l10-9c10.764-10.764 19.106-25.106 30.5-36.5 3.514-3.514 7.268-11.5 13-11.5l-3 3.5 5.5.5 2.5-2v3l-2 1c-1.564 0-3.876-1-6-1 0-2.999-3.999 1-1 1l-1 1c0-4.507-8 7.343-8 11-3.82 0-6.026 6.763-8.5 8-3.294 1.647-25.127 27.755-27.5 32.5l1 2.5-3 7Z"/><path fill="#97D6F9" id="STR" d="m354 183-1 2 1-2Z"/><path fill="#C8C9CB" id="amc" d="M78 230c0 1.235-.643 5 1 5 0-18.809-7-32.61-7-51l-2 1v4c0 4.364 2 8.259 2 12 0 6.826 6 19.57 6 29ZM378 235l-1 2c0-19.124 7-35.14 7-53l2 1v4l-1 11-4 10.5c-2.568 5.135-2 14.41-2 20.5l-1 4Z"/><path fill="#CAC7CB" id="fiber tracts" d="m112 189-4.5-1-2.5 3-1-2v-1l-1-1v-2c.489 0 9 2.739 9 4Z"/><path fill="#F0483B" id="ZI" d="M180 219h10c3.591 0 4-3.117 4-6-7.822 0-14.647-10-22-10-1.582 0-14-6.861-14-8-6.44 0-13.585-9-18-9l-2 1 5 7c1.008 0 16 13.806 16 15 4.226 0 7.381 6 11 6l10 4Z"/><path fill="#FE8082" id="VPMpc" d="M221 191c0 8.688-.58 6-8 6 0-3.989-17.927-7-22-7l1-3c2.723 0 5.778-1 9-1 4.186 0 7.431 3 12 3l8 2ZM235 191c0 8.808.95 6 8 6l5.5-4c4.985-2.492 11.476-3 17.5-3l-1-3c-2.978 0-6.49-1-10-1-3.787 0-7.613 3-12 3l-8 2Z"/><path fill="#FF6F80" id="TH" d="m316 186-1 1 1-1Z"/><path fill="#F0483B" id="ZI" d="M266 219h11l7-2 1-1c4.307 0 7.259-7 12-7l1-1 1-1 1-1 1-1h1l1-1 1-1 1-1 9-9 1-1 3-4c0-1.747-.253-2-2-2l-1 1c-5.132 0-10.209 8-16 8l-13 7c-6.455 0-15.781 11-24 11 0 2.883.409 6 4 6Z"/><path fill="#11AD82" id="VISC6b" d="M386 189h1v-3h-1v3ZM69 189h1v-2h-1v2Z"/><path fill="#97D6F9" id="STR" d="m103 187 1 1-1-1Z"/><path fill="#FF6F80" id="TH" d="m191 190-4 1 1-4h4l-1 3ZM266 190l6 3c0-2.165-3-2.546-3-6h-4l1 3Z"/><path fill="#8599CC" id="PAL" d="m345 188-1 1c-2.999 0 1-3.999 1-1Z"/><path fill="#11AC83" id="VISC6a" d="M68 189h1v-1l-1 1Z"/><path fill="#C8CBC7" id="st" d="m120 208-1 2-5-5c0-4.884-9-8.791-9-14l2.5-3 4.5 1 1 1 2 2v2l1 1 1 4 3 9Z"/><path fill="#CAC7CB" id="fiber tracts" d="m345 188-1 1 1-1Z"/><path fill="#C8CBC7" id="st" d="M337 208v2c3.005 0 3.171-5 6-5 0-5.886 8-9.132 8-16-1.564 0-3.876-1-6-1l-1 1-1 1v1l-1 1-1 1v2l-1 1v1l-1 1v2c0 2.885-2 4.697-2 8Z"/><path fill="#97D6F9" id="STR" d="M351 207c3.786 0 6 3.533 6 7 2.453 0 1.447-2.947 2.5-4 2.665-2.665 10.5-9.114 10.5-13-9.865 0-17 3.346-17-9l-2 1c0 6.868-8 10.114-8 16 1.321 0 6-.684 6 1l1 1h1Z"/><path fill="#11AC83" id="VISC6a" d="M387 189h2l-2-1v1Z"/><path fill="#209766" id="AIp6a" d="M64 200h2l1-1h3c0-2.978-1-6.49-1-10h-1l-7 4v1l2 6h1Z"/><path fill="#219666" id="AIp6b" d="m70 199 2 2c0-3.741-2-7.636-2-12h-1c0 3.51 1 7.022 1 10Z"/><path fill="#97D6F9" id="STR" d="M106 207c-2.734 0-7 2.939-7 6l-13-16c7.052 0 18 2.441 18-8l1 2c0 5.209 9 9.116 9 14-3.015 0-6.004 2-8 2Z"/><path fill="#FF6F80" id="TH" fill-rule="evenodd" d="m230 197-1 4.5c0 13.727 12.463-4.5 1-4.5m-5 0-3 2.5v3.5c0 12.651 12.147-6 3-6m-16 15c5.519 0 21.004 3.248 23.5 2 4.388-2.194 9.175-2 14.5-2v-1l-5-5.5 1-8.5c-7.05 0-8 2.808-8-6l-6.5-2c-2.082 0-5.221 2-7.5 2 0 8.688-.58 6-8 6 0 2.203 3.465 4.569 2 7.5-.815 1.63-6 6.066-6 6.5v1Z"/><path fill="#8599CC" id="PAL" d="M335 201h1l3-1v-2l1-1v-1l1-1v-2l1-1 1-1v-1c0-4.507-8 7.343-8 11Z"/><path fill="#219666" id="AIp6b" d="m387 199-2 1 1-11h1v10Z"/><path fill="#209766" id="AIp6a" d="m390 199 3 1 3-6v-1c-2.83 0-4.54-4-7-4h-2v10h3Z"/><path fill="#CAC7CB" id="fiber tracts" d="m113 190 2 2-2-2Z"/><path fill="#FF7E84" id="VM" d="m194 213 7 1c0-6.668 4.867-3 8-3 0-.434 5.185-4.87 6-6.5 1.465-2.931-2-5.297-2-7.5 0-3.989-17.927-7-22-7l-4 1-2 1-1 1h-1l-2 1-2 1-9 5.5 2 2.5c7.353 0 14.178 10 22 10ZM262 213l-6 1c0-6.719-6.396-3-9-3l-5-5.5 1-8.5 5.5-4c4.985-2.492 11.476-3 17.5-3l6 3h1c0 3.657 13 3.989 13 9-6.455 0-15.781 11-24 11Z"/><path fill="#FF6F80" id="TH" d="m187 191-2 1 2-1Z"/><path fill="#CAC7CB" id="fiber tracts" d="m343 191-1 1 1-1Z"/><path fill="#FF6F80" id="TH" d="m185 192-1 1 1-1Z"/><path fill="#E64438" id="HY" d="m315 192-1 1 1-1Z"/><path fill="#CAC7CB" id="fiber tracts" d="m342 192-1 1 1-1Z"/><path fill="#FF6F80" id="TH" d="m183 193-2 1 2-1ZM299 195l-13 7c0-5.011-13-5.343-13-9l7.5 3c4.29 2.145 9.953-2 13.5-2 0 1.643 3.765 1 5 1Z"/><path fill="#E64438" id="HY" d="m311 200-6 2 9-9c0 1.416-1.031 7-3 7Z"/><path fill="#0E9583" id="PERI2/3" d="m45 206-6 1c0-3.389-4-8.022-4-12v-1c3.962 0 8.688 1 12 1l4 9-6 2Z"/><path fill="#219864" id="AIp5" d="m60 202-7 1c0-2.125 6-4.626 6-8l2-1 2 6-3 2Z"/><path fill="#CAC7CB" id="fiber tracts" d="m115 194 1 1-1-1Z"/><path fill="#E64438" id="HY" d="M146 201c0-3.917 12.131 8 13 8 0-1.194-14.992-15-16-15 0 1.934.811 7 3 7Z"/><path fill="#FF6F80" id="TH" d="m179 195-9 5.5 2 2.5c-1.582 0-14-6.861-14-8 1.235 0 5 .643 5-1l4.5 2 11.5-1ZM181 194l-2 1 2-1Z"/><path fill="#219864" id="AIp5" d="m396 202 7 1-6-8-1-1-3 6v1c1.048 0 3-.473 3 1Z"/><path fill="#0E9583" id="PERI2/3" d="m412 206 5 1c2.6 0 4-10.548 4-13h-11l-1 1c0 3.647-3 5.609-3 9 0 .913 5.014 2 6 2Z"/><path fill="#0E9584" id="PERI1" d="m417 208 5 1c2.368 0 6-11.578 6-14-1.321 0-6 .684-6-1h-1c0 2.452-1.4 13-4 13v1ZM39 208l-5 1c-1.613 0-6-11.96-6-14h7c0 3.978 4 8.611 4 12v1Z"/><path fill="#0F9684" id="PERI5" d="m53 203-2 1-4-9h12c0 3.374-6 5.875-6 8Z"/><path fill="#CAC7CB" id="fiber tracts" d="m341 195-1 1 1-1Z"/><path fill="#0F9684" id="PERI5" d="M405 204h1c0-3.391 3-5.353 3-9h-12l6 8 2 1Z"/><path fill="#FD909F" id="RE" d="m225 197-3 2.5v3.5c0 12.651 12.147-6 3-6ZM230 197l-1 4.5c0 13.727 12.463-4.5 1-4.5Z"/><path fill="#CAC7CB" id="fiber tracts" d="m340 197-1 1 1-1Z"/><path fill="#A0EE9C" id="EPd" d="m78 230-2.5 3-4.5-1-4-8 3.5 4c1.412 0-3.121-7.743-3.5-8.5-2.42-4.841-1-13.78-1-19.5l1-1h3l2 2c0 6.826 6 19.57 6 29Z"/><path fill="#CAC7CB" id="fiber tracts" d="m120 208 4 3c0-3.277-4-5.999-4-10-2.215 0-1.519-2-3-2l3 9Z"/><path fill="#A0EE9C" id="EPd" fill-rule="evenodd" d="M385 227c0 1.93 1.93 0 0 0m0 5-1 1c-2.567 0-3.913-2-5-2 0-6.09-.568-15.365 2-20.5l4-10.5 2-1h3v1l1 1c0 5.921.779 13.941-2 19.5l-3 6 2-.5-3 6Z"/><path fill="#C9C8CA" id="ee" d="m389 225-1 1-2 .5 3-6c2.779-5.559 2-13.579 2-19.5l-1-1v-1l3 1v11c0 3.68-2 5.511-2 9l-1 1v1l-1 1v2Z"/><path fill="#32B824" id="ENTl6a" d="m64 209-2 1c0-1.257-.94-8-2-8l3-2h1v9Z"/><path fill="#C9C8CA" id="ee" d="M67 222v2l3.5 4c1.412 0-3.121-7.743-3.5-8.5-2.42-4.841-1-13.78-1-19.5h-2v14l2 7 1 1Z"/><path fill="#F1473B" id="STN" d="m172 227-1 1c-6.577 0-25-20.771-25-27 0-3.917 12.131 8 13 8 0 3.76 12 9.849 12 16l1 2ZM285 228h1c6.136 0 25-21.843 25-28l-6 2-1 1-1 1-1 1h-1l-1 1-1 1-1 1-1 1c0 5.285-12 8.674-12 16v3Z"/><path fill="#CAC7CB" id="fiber tracts" d="m337 208-3 1c0-2.885 2-4.697 2-8l3-1c0 2.885-2 4.697-2 8Z"/><path fill="#CACCCB" id="opt" d="m125 213 31 31c1.22 0 1.504-3.492 1-4.5l-10-11c-1.222-2.444-22.821-27.5-26-27.5h-1c0 4.001 4 6.723 4 10l1 2ZM330 215l-5.5 6-24.5 23-1-2.5c2.373-4.745 24.206-30.853 27.5-32.5 2.474-1.237 4.68-8 8.5-8h1c0 3.303-2 5.115-2 8l-1 1v1l-1 1-1 1v1l-1 1Z"/><path fill="#32B824" id="ENTl6a" d="M393 210h1l2-8c0-1.473-1.952-1-3-1v9Z"/><path fill="#31B824" id="ENTl5" d="M62 210c-1.974 0-3.517 2-6 2-2.021 0-5-5.938-5-8l2-1 7-1c1.06 0 2 6.743 2 8Z"/><path fill="#E64438" id="HY" d="m305 202-1 1 1-1Z"/><path fill="#31B824" id="ENTl5" d="M394 210c2.16 0 4.167 2 7 2 2.232 0 4-6.302 4-8l-2-1-7-1-2 8Z"/><path fill="#32B725" id="ENTl3" d="M56 212c0 .42-8.013 3-9 3 0-3.489-2-5.32-2-9l6-2c0 2.062 2.979 8 5 8Z"/><path fill="#E64438" id="HY" d="m303 204-1 1 1-1Z"/><path fill="#32B725" id="ENTl3" d="M401 212c0 .504 7.078 3 8 3l3-9c-.986 0-6-1.087-6-2h-1c0 1.698-1.768 8-4 8Z"/><path fill="#80BEE1" id="CEAl" d="M106 207c0 4.692 1.032 16 9 16 0-2.824 2.616-8.268 1-11.5l-2-6.5c-3.015 0-6.004 2-8 2Z"/><path fill="#7FC0E0" id="CEAm" d="M126 235c-1.481 0-.785 2-3 2-3.741 0-5.783-8-10-8l-1-2c1.712 0 3-2.571 3-4 0-2.824 2.616-8.268 1-11.5l-2-6.5 5 5 2 1c0 8.394 5 15.724 5 24Z"/><path fill="#E64438" id="HY" d="m301 205-1 1 1-1Z"/><path fill="#7FC0E0" id="CEAm" d="M333 237h1l1-1c0-1.304 5.885-7 8-7l2-2c-1.77 0-4-3.15-4-5 0-3.75-1.957-9.586 0-13.5l2-3.5c-2.829 0-2.995 5-6 5l-2 2c0 7.947-4 14.053-4 22 0 1.238.423 3 2 3Z"/><path fill="#80BEE1" id="CEAl" d="M351 207c0 7.613-3.177 15-10 15 0-3.75-1.957-9.586 0-13.5l2-3.5c1.321 0 6-.684 6 1l1 1h1Z"/><path fill="#32B825" id="ENTl2" d="m47 215-5 2-3-9v-1l6-1c0 3.68 2 5.511 2 9Z"/><path fill="#E64438" id="HY" d="m300 206-1 1 1-1Z"/><path fill="#80BFE0" id="CEAc" d="m349 206 1 1-1-1Z"/><path fill="#32B825" id="ENTl2" d="m409 215 5 2c0-3.083 3-5.545 3-9v-1l-5-1-3 9Z"/><path fill="#80BFE0" id="CEAc" d="m109 226 3 1c1.712 0 3-2.571 3-4-7.968 0-9-11.308-9-16-2.734 0-7 2.939-7 6l1 4c1.935 0 8 6.222 8 8l1 1Z"/><path fill="#E64438" id="HY" d="m299 207-1 1 1-1Z"/><path fill="#80BFE0" id="CEAc" d="M345 227h1l3-3 1-1 1-1 1-1 4-4h1v-3c0-3.467-2.214-7-6-7 0 7.613-3.177 15-10 15 0 1.85 2.23 5 4 5Z"/><path fill="#32B722" id="ENTl1" d="M42 217c-1.048 0-3-.473-3 1-1.587 0-5-7.512-5-9l5-1 3 9Z"/><path fill="#97D6F9" id="STR" d="m124 211 1 2-4-2-2-1 1-2 4 3Z"/><path fill="#E64438" id="HY" d="m298 208-1 1 1-1Z"/><path fill="#97D6F9" id="STR" d="m333 211 2 1 2-2v-2l-3 1-1 1v1Z"/><path fill="#32B722" id="ENTl1" d="m414 217 4 1 4-9-5-1c0 3.455-3 5.917-3 9Z"/><path fill="#8AD987" id="CTXsp" d="m62 210 2 4v-5l-2 1Z"/><path fill="#CCCACB" id="nst" d="M174 220c0 2.904 2.055 5-3 5 0-6.151-12-12.24-12-16 4.226 0 7.381 6 11 6l4 5Z"/><path fill="#C7C9CC" id="mtt" d="M209 217c0 1.712-2.571 3-4 3-3.121 0-4-3.347-4-6 0-6.668 4.867-3 8-3v6ZM247 216c0 2.96 2.399 4 5 4 3.487 0 2.227-6 4-6 0-6.719-6.396-3-9-3v5Z"/><path fill="#CCCACB" id="nst" d="M282 220c0 2.971-1.355 5 3 5 0-7.326 12-10.715 12-16-4.741 0-7.693 7-12 7l-1 1-2 3Z"/><path fill="#CAC7CB" id="fiber tracts" d="m334 209-1 1 1-1Z"/><path fill="#6ACAB9" id="PIR" d="M87 275c0 2.042-8.504 17-10 17 0-.639-10.667-12.834-12-15.5-4.542-9.083-9.466-17.931-14-27l-6-17c-1.989-3.978-6-9.922-6-14.5 0-1.473 1.952-1 3-1l5-2c.987 0 9-2.58 9-3 2.483 0 4.026-2 6-2l2 4 2 7 1 1v2l4 8 3 5c0 9.636 12 20.517 12 29l1 1v8Z"/><path fill="#8AD987" id="CTXsp" d="m394 210-1 1v-1h1Z"/><path fill="#6ACAB9" id="PIR" d="m369 275 7 13.5 3 3.5c2.717 0 10.822-14.143 12-16.5l8-12c4.777-9.555 7.244-20.489 12-30l7-15.5-4-1-5-2c-.922 0-8-2.496-8-3-2.833 0-4.84-2-7-2l-1 1c0 3.68-2 5.511-2 9l-1 1v1l-1 1v2l-1 1-3 6-1 1-1 3c0 7.932-13 23.972-13 30v1l-1 1v7Z"/><path fill="#80BFE1" id="MEA" d="M129 270c0 4.764 7 8.592 7 13 3.371 0 6.579-4.539 9.5-6 13.2-6.6 14.5-11.712 14.5-26l-4-7-31-31-4-2c0 8.394 5 15.724 5 24 0 1.819 1 4.591 1 7v3c0 .716 2.373 3 0 3v6c1.788 0 1 11.092 1 13 1.473 0 1 1.952 1 3Z"/><path fill="#97D6F9" id="STR" d="M332 212v1l1-2-1 1Z"/><path fill="#80BFE1" id="MEA" d="m327 271-6 12c-5.398 0-22.304-14.107-25-19.5V252l1-1 3-7 24.5-23 5.5-6 1-1v-1h1l1-2 2 1c0 7.947-4 14.053-4 22-1.674 0-2 7.241-2 9v11c0 4.077-1 8.431-1 13l-1 4Z"/><path fill="#E64438" id="HY" d="M231 223c-2.486 0-3.725 1-6 1 0-5.653-7.069-12.215-13.5-9l-2.5 2v-5c5.519 0 21.004 3.248 23.5 2 4.388-2.194 9.175-2 14.5-2v4c-5.374 0-16-2.5-16 7Z"/><path fill="#CAC7CB" id="fiber tracts" d="M331 213h1v-1l-1 1Z"/><path fill="#E64438" id="HY" d="M211 263c-6.424 0-14 5.116-14 12-1.155 0-4.672-18-14-18l4-2c0 4.222 5.176 4.148 7 .5l-1-4.5c0-6.707 7.721-18.058 4-25.5l-7-6.5c3.591 0 4-3.117 4-6l7 1c0 2.653.879 6 4 6l-5 3.5c-.707 1.414-3.693 16.404-1.5 17.5h8.5c0 2.585-5.356 8.788-4 11.5l2.5 7.5 5.5 3ZM246 263c7.089 0 13 5.852 13 13 2.399 0 3.132-8.764 4-10.5l6-7.5c-9.325 0-5-2.316-5-7-1.995 0-2-4.377-2-6 0-4.28-5.111-13.277-3-17.5.976-1.953 7-7.278 7-8.5-3.591 0-4-3.117-4-6l-6 1c-1.773 0-.513 6-4 6l5 4.5c1.245 2.491 3.953 14.774.5 16.5H249c0 3.897 6.601 8.297 4 13.5l-3.5 6.5-3.5 2Z"/><path fill="#97D6F9" id="STR" d="m331 214-1 1 1-1Z"/><path fill="#E64438" id="HY" d="m174 220 4 3c0-2.424 2-2.76 2-4l-10-4 4 5Z"/><path fill="#FD4B3C" id="PH" d="M221 238c-5.163 0-9.517 3-14 3h-8.5c-2.193-1.096.793-16.086 1.5-17.5l5-3.5c1.429 0 4-1.288 4-3l2.5-2c6.431-3.215 13.5 3.347 13.5 9l-1 12-3 2ZM235 238c5.295 0 10.211 3 14 3h8.5c3.453-1.726.745-14.009-.5-16.5l-5-4.5c-2.601 0-5-1.04-5-4-5.374 0-16-2.5-16 7l1 12 3 3Z"/><path fill="#E64438" id="HY" d="m285 216-1 1 1-1Z"/><path fill="#9DE79B" id="BLAa" d="M112 238c-3.63 0-5.841 5-10 5-1.816 0-2.392-4.284-3-5.5-2.446-4.893-8-10.761-8-16.5 0-4.876 5.553-4 9-4l8 8 1 1 3 5 1 1v3l-1 3Z"/><path fill="#C8CBCC" id="ec" d="M100 217c1.935 0 8 6.222 8 8l-8-8Z"/><path fill="#E64438" id="HY" d="m282 220-3 2-2-3 7-2-2 3Z"/><path fill="#C8CBCC" id="ec" d="M356 218c0 1.712-2.571 3-4 3l4-4v1Z"/><path fill="#90EB8D" id="LA" d="m357 217-1 1v-1h1Z"/><path fill="#9DE79B" id="BLAa" d="m344 238 10 5c1.889 0 11-18.83 11-22 0-4.534-4.71-4-8-4l-1 1c0 1.712-2.571 3-4 3l-1 1-1 1-1 1-3 3-1 3-1 1v2l-1 1v2l1 2Z"/><path fill="#F2483A" id="LHA" d="M171 259h2c2.73 0 6.298-2 10-2l4-2c0-3.591 3.117-4 6-4 0-6.707 7.721-18.058 4-25.5l-7-6.5h-10c0 1.24-2 1.576-2 4 0 4.565 5.473 16-6 16-4.208 0-9 4.834-9 9 2.635 0 3.349 11 8 11ZM283 259h2c4.391 0 5.48-10 8-10 0-5.05-3.765-10-9-10-11.602 0-5-12.612-5-17l-2-3h-11c0 1.222-6.024 6.547-7 8.5-2.111 4.223 3 13.22 3 17.5 0 1.623.005 6 2 6 2.653 0 6 .879 6 4l3 1 1 1c3.301 0 7.523 2 9 2Z"/><path fill="#F1483A" id="PSTN" d="M172 229v10c11.473 0 6-11.435 6-16l-4-3c0 2.904 2.055 5-3 5l1 2v2ZM285 229c0 2.69-1 6.675-1 10-11.602 0-5-12.612-5-17l3-2c0 2.971-1.355 5 3 5v4Z"/><path fill="#A0EE9C" id="EPd" d="m391 220-1 1 1-1ZM66 221l1 1-1-1Z"/><path fill="#9DE69C" id="BLAp" d="m87 251 3 1 6-2 3-2c0-1.947 3-2.636 3-5-1.816 0-2.392-4.284-3-5.5-2.446-4.893-8-10.761-8-16.5-7.349 0-6 21.671-6 26l2 4Z"/><path fill="#C8CBCC" id="ec" d="m352 221-1 1 1-1Z"/><path fill="#9DE69C" id="BLAp" d="M367 252h2l2-4 1-1c0-4.316.341-26-7-26 0 3.17-9.111 22-11 22l4 5 3 2 6 2Z"/><path fill="#C8CBCC" id="ec" d="m351 222-1 1 1-1Z"/><path fill="#A0EE9C" id="EPd" d="m390 222-1 1 1-1Z"/><path fill="#FD5D50" id="PVi" d="m229 269 3 1v-35l-1-12c-2.486 0-3.725 1-6 1l-1 12v33l3 1c0-13.209 1-27.477 1-40 0-4.283 1-4.283 1 0v39Z"/><path fill="#C8CBCC" id="ec" d="m350 223-1 1 1-1Z"/><path fill="#A0EE9C" id="EPd" d="m389 225-1 1 1-1Z"/><path fill="#97D6F9" id="STR" d="M112 231h1v-2l-1-2-3-1 3 5Z"/><path fill="#E64438" id="HY" d="M228 230h1c0-4.283-1-4.283-1 0ZM171 228l1 1v-2l-1 1Z"/><path fill="#97D6F9" id="STR" d="M344 230h1l1-3h-1l-2 2 1 1Z"/><path fill="#C9C8CA" id="ee" d="M385 227c0 1.93 1.93 0 0 0Z"/><path fill="#E64438" id="HY" d="m286 228-1 1v-1h1Z"/><path fill="#80BEE2" id="IA" d="M126 245h1v-3l-4-5c-3.741 0-5.783-8-10-8v6l2 3c0 2.004 5.378 5 7 5l1 1 1 1h2ZM329 245h2c4.253 0 7.55-7 11-7l1-2v-2l1-1v-3l-1-1c-2.115 0-8 5.696-8 7l-1 1h-1c0 1.334-2.972 6-4 6v2Z"/><path fill="#8AD987" id="CTXsp" d="M79 236c-1.076 0-5-2.669-5 1l-3-5 4.5 1 2.5-3c0 1.235-.643 5 1 5v1Z"/><path fill="#A8A9AA" id="V3" d="M225 291h7v-2l-2-3.5-1-16.5v-39h-1c0 12.523-1 26.791-1 40v13.5l-2 5.5v2Z"/><path fill="#8AD987" id="CTXsp" d="m345 230-1 1v-1h1ZM113 231v1l-1-1h1ZM378 235l5 1 1-3c-2.567 0-3.913-2-5-2l-1 4ZM385 232l-1 1 1-1ZM344 233l-1 1 1-1Z"/><path fill="#97D6F9" id="STR" d="M333 237c0 1.334-2.972 6-4 6 0-1.759.326-9 2-9 0 1.238.423 3 2 3Z"/><path fill="#A0ED9D" id="EPv" d="M87 266h1c0-3.962 1-8.688 1-12l-2-3-2-4c-1.811 0-4-3.438-4-5l-1-1v-2l-1-2v-1c-1.076 0-5-2.669-5 1 0 9.636 12 20.517 12 29h1Z"/><path fill="#8AD987" id="CTXsp" d="M112 238h3l-2-3-1 3Z"/><path fill="#97D6F9" id="STR" d="m123 237 4 5c0-2.409-1-5.181-1-7-1.481 0-.785 2-3 2Z"/><path fill="#E64438" id="HY" d="m235 238-3 1v-4l3 3Z"/><path fill="#A0ED9D" id="EPv" d="M369 266h1c0-6.028 13-22.068 13-30l-5-1-1 2v2l-1 2v1l-1 1-3 4-1 1-2 4-1 2 1 12Z"/><path fill="#E64438" id="HY" d="m221 238 3 1v-3l-3 2Z"/><path fill="#97D6F9" id="STR" d="m335 236-1 1 1-1Z"/><path fill="#8AD987" id="CTXsp" d="M342 238h2l-1-2-1 2Z"/><path fill="#C8C9CB" id="amc" d="m79 237 1 2-1-2Z"/><path fill="#84E981" id="BMAp" d="M109 265h4c0-2.591 8.929-8 11-8l3-3v-7l-2-2h-1l-1-1-1-1c-1.622 0-7-2.996-7-5h-3c-3.63 0-5.841 5-10 5 0 2.364-3 3.053-3 5v3c0 2.844 10 9.616 10 14Z"/><path fill="#FE5445" id="DMH" d="M218 265h6v-26l-3-1c-5.163 0-9.517 3-14 3 0 2.585-5.356 8.788-4 11.5l2.5 7.5 5.5 3c2.833 0 4.84 2 7 2ZM232 265h6c2.338 0 4.862-2 8-2l3.5-2 3.5-6.5c2.601-5.203-4-9.603-4-13.5-3.789 0-8.705-3-14-3l-3 1v26Z"/><path fill="#84E981" id="BMAp" d="m343 264 4 1c0-1.438 10.197-14 11-14v-3l-4-5-10-5h-2c-3.45 0-6.747 7-11 7l-2 2v7l3 3c1.822 0 11 5.301 11 7Z"/><path fill="#C8C9CB" id="amc" d="m377 239-1 2 1-2ZM80 241l1 1-1-1ZM376 242l-1 1 1-1Z"/><path fill="#97D6F9" id="STR" d="m122 243 1 1-1-1Z"/><path fill="#8AD987" id="CTXsp" d="m123 244 1 1-1-1ZM126 245l1 2-2-2h1Z"/><path fill="#97D6F9" id="STR" d="M127 247v1c2.373 0 0-2.284 0-3h-1l1 2ZM331 245l-2 2v-2h2Z"/><path fill="#90EB8D" id="LA" d="m372 247-1 1 1-1Z"/><path fill="#8AD987" id="CTXsp" d="m96 250 3 1v-3l-3 2ZM361 250l-3 1v-3l3 2Z"/><path fill="#9CE79C" id="BLAv" d="M97 279h2c3.428 0 6.206-6 10-6v-8c0-4.384-10-11.156-10-14l-3-1-6 2-1 2c0 3.312-1 8.038-1 12v3l2 6c1.522 0 4.055 4 7 4ZM356 278l3 1 8-4 1-5 1-1v-3l-1-12-1-2-6-2-3 1c-.803 0-11 12.562-11 14v8c3.482 0 5.71 5 9 5Z"/><path fill="#8AD987" id="CTXsp" d="m90 252-1 2-2-3 3 1Z"/><path fill="#C7C8CA" id="fx" d="M193 251c-2.883 0-6 .409-6 4 0 4.222 5.176 4.148 7 .5l-1-4.5ZM270 255l-1 3c-9.325 0-5-2.316-5-7 2.653 0 6 .879 6 4Z"/><path fill="#8AD987" id="CTXsp" d="m369 252-1 2-1-2h2ZM128 267l-1 1c0-4.008 1.786-11-3-11l3-3c1.788 0 1 11.092 1 13ZM329 269h2c0-2.156-5.913-12 1-12l-3-3c0 4.077-1 8.431-1 13l1 2Z"/><path fill="#E64438" id="HY" d="m273 257-4 1 1-3 3 1v1Z"/><path fill="#CBCCCB" id="mfb" d="M273 257h1l-1-1v1Z"/><path fill="#84EA80" id="BMAa" d="m124 270-6 1c-6.171 0-5-1.458-5-6 0-2.591 8.929-8 11-8 4.786 0 3 6.992 3 11l-1 1h-1l-1 1Z"/><path fill="#F24839" id="TU" d="m208 288-1 1c-16.704 0-19.293-4.087-26-17.5l-8-10.5v-2c2.73 0 6.298-2 10-2 9.328 0 12.845 18 14 18 0 3.975 2.686 8 7 8l4 4v1ZM251 284c0 1.087-2 2.433-2 5 17.372 0 19.986-4.472 27-18.5 1.592-3.183 8-6.886 8-10.5l-1-1c-1.477 0-5.699-2-9-2h-1l-4 1-6 7.5c-.868 1.736-1.601 10.5-4 10.5 0 2.959-2.746 7-6 7l-2 1Z"/><path fill="#84EA80" id="BMAa" d="m333 270 6 1c6.616 0 4-2.873 4-7 0-1.699-9.178-7-11-7-6.913 0-1 9.844-1 12h1l1 1Z"/><path fill="#E64438" id="HY" d="M173 259v2l-2-2h2ZM285 259l-1 1-1-1h2Z"/><path fill="#FF4A3D" id="VMH" d="M211 282c-2.607 0-4.913 1-7 1-4.314 0-7-4.025-7-8 0-6.884 7.576-12 14-12 2.833 0 4.84 2 7 2 0 1.804 2.182 5.136 1 7.5l-2 3.5-1 1-1 1-1 1-1 1-1 1-1 1ZM253 283l-2 1c-4.746 0-11.911-7.322-14-11.5l1-7.5c2.338 0 4.862-2 8-2 7.089 0 13 5.852 13 13 0 2.959-2.746 7-6 7Z"/><path fill="#8AD987" id="CTXsp" d="M341 273h6v-8l-4-1c0 4.127 2.616 7-4 7v1l2 1ZM109 273h7l1-1 1-1c-6.171 0-5-1.458-5-6h-4v8Z"/><path fill="#E64438" id="HY" d="M224 269c0 2.571-4.429 7-7 7l2-3.5c1.182-2.364-1-5.696-1-7.5h6v4ZM248 289h1c0-2.567 2-3.913 2-5-4.746 0-11.911-7.322-14-11.5l1-7.5h-6v5c2.961 0 16 15.812 16 19Z"/><path fill="#99D2BD" id="OLF" d="M87 266v1l-1-1h1Z"/><path fill="#8AD987" id="CTXsp" d="M87 269h1v-3h-1v3ZM369 267h1v-1h-1v1Z"/><path fill="#99D2BD" id="OLF" d="m127 269 2 1c0-1.048.473-3-1-3l-1 1v1ZM329 269l-2 2 1-4 1 2ZM370 267l-1 1v-1h1Z"/><path fill="#8AD987" id="CTXsp" d="M126 269h1v-1l-1 1Z"/><path fill="#99D2BD" id="OLF" d="M87 275h3l-2-6h-1v6ZM125 269l-1 1 1-1Z"/><path fill="#60E6B5" id="COApm" d="m136 283-13 9c-2.913 0-7-15.467-7-19l1-1 1-1 6-1 1-1h2l2 1c0 4.764 7 8.592 7 13Z"/><path fill="#FF5B4F" id="ARH" d="M223 290c-2.07 0-6-2.984-6 1-3.423 0-6.474-2-9-2v-2l3-5 1-1 1-1 1-1 1-1 1-1 1-1c2.571 0 7-4.429 7-7l3 1v13.5l-2 5.5-2 1ZM233 290c2.07 0 6-2.984 6 1 3.423 0 6.474-2 9-2 0-3.188-13.039-19-16-19l-3-1 1 16.5 2 3.5 1 1Z"/><path fill="#60E6B5" id="COApm" d="M321 283c0 1.711 11.205 9 13 9 1.62 0 6-15.924 6-19l-1-1v-1l-6-1-1-1h-3l-2 2-6 12Z"/><path fill="#8AD987" id="CTXsp" d="m332 269 1 1-1-1ZM368 270h1v-1l-1 1Z"/><path fill="#99D2BD" id="OLF" d="M367 275h2v-5h-1l-1 5ZM117 272l-1 1 1-1ZM340 273h1l-2-1 1 1Z"/><path fill="#5FE6B7" id="COApl" d="m97 300 1 1c4.469 0 25-5.531 25-9-2.913 0-7-15.467-7-19h-7c-3.794 0-6.572 6-10 6v4c0 5.986-2 12.428-2 17ZM359 300v1c-4.574 0-25-4.757-25-9 1.62 0 6-15.924 6-19h7c3.482 0 5.71 5 9 5l2 3c0 6.244 1 13.428 1 19Z"/><path fill="#59D9AA" id="PAA" d="M95 300h2c0-4.572 2-11.014 2-17l-2-4c-2.945 0-5.478-4-7-4h-3c0 2.042-8.504 17-10 17 0 3.138 14.852 8 18 8ZM359 300h2c3.313 0 18-4.109 18-8l-3-3.5-7-13.5h-2l-8 4-1 2c0 6.244 1 13.428 1 19Z"/><path fill="#E64438" id="HY" d="m217 276-1 1 1-1ZM216 277l-1 1 1-1ZM215 278l-1 1 1-1Z"/><path fill="#99D2BD" id="OLF" d="m359 279-1 2-2-3 3 1ZM99 279v4l-2-4h2Z"/><path fill="#E64438" id="HY" d="m214 279-1 1 1-1ZM213 280l-1 1 1-1ZM212 281l-1 1 1-1ZM204 283l4 4 3-5c-2.607 0-4.913 1-7 1ZM253 283l-2 1 2-1ZM207 289h1v-1l-1 1Z"/><path fill="#F1473A" id="ME" d="M225 291h7l1-1c2.07 0 6-2.984 6 1 0 8.808-22 8.565-22 0 0-3.984 3.93-1 6-1l2 1Z"/><path fill="#E64438" id="HY" d="m223 290 2 1v-2l-2 1ZM233 290l-1 1v-2l1 1Z"/><path fill="#99D2BD" id="OLF" d="m97 300 1 1c-1.048 0-3 .473-3-1h2ZM361 300l-2 1v-1h2Z"/></svg>