<svg xmlns="http://www.w3.org/2000/svg" viewBox="0 0 456 320"><path fill="#1BA696" id="RSPagl1" d="M192 17c-5.675 0-11.954 1-17 1v-4c5.046 0 11.325-1 17-1v4Z"/><path fill="#1BA598" id="RSPd1" d="m214 32-5 1c0-10.077-7.148-16-17-16v-4c10.635 0 22 7.566 22 19ZM243 32l4 1c0-10.338 7.773-16 18-16v-4c-6.97 0-18.775 5.05-22 11.5V32Z"/><path fill="#1BA696" id="RSPagl1" d="M281 18h1v-4c-5.22 0-11.211-1-17-1v4c5.259 0 11.406 1 16 1Z"/><path fill="#0A8589" id="VISpm1" d="m175 18-12 1-1-4 13-1v4ZM282 18l12 1 1-4-13-1v4Z"/><path fill="#098589" id="VISp1" d="M85 55h1c0-1.654 14.41-10.955 16.5-12 18.264-9.132 38.778-24 60.5-24l-1-4c-18.166 0-44.695 15.097-60.5 23C99.078 39.211 83 48.68 83 51l2 4ZM373 51l-2 4c-1.583 0-13.211-10.355-16.5-12-16.713-8.357-41.134-24-60.5-24l1-4c18.247 0 45.581 16.04 61.5 24 2.21 1.105 16.5 9.826 16.5 12Z"/><path fill="#1AA496" id="RSPagl2/3" d="M190 23h1c0-2.124 1-4.436 1-6-5.675 0-11.954 1-17 1v7c4.703 0 9.513-2 15-2Z"/><path fill="#1BA697" id="RSPd2/3" d="m209 33-7 2c0-7.36-3.29-12-11-12 0-2.124 1-4.436 1-6 9.852 0 17 5.923 17 16ZM248 34l7 2c0-7.777 1.283-13 11-13 0-1.564-1-3.876-1-6-10.227 0-18 5.662-18 16l1 1Z"/><path fill="#1AA496" id="RSPagl2/3" d="M282 25v1c-2.421 0-9.012-3-15-3h-1c0-1.564-1-3.876-1-6 5.259 0 11.406 1 16 1l1 7Z"/><path fill="#08858B" id="VISpm2/3" d="M174 25h1v-7l-12 1 2 8c3.071 0 5.362-2 9-2ZM282 25c4.058 0 6.292 2 10 2l2-8-12-1h-1l1 7Z"/><path fill="#0A828C" id="VISp2/3" d="M86 55c0 3.912 4 3.755 4 7l15.5-10c11.97-5.985 47.535-25 59.5-25l-2-8c-21.722 0-42.236 14.868-60.5 24C100.41 44.045 86 53.346 86 55ZM366 62h1c0-3.46 4-4.215 4-7-1.583 0-13.211-10.355-16.5-12-16.713-8.357-41.134-24-60.5-24l-2 8c13.668 0 44.49 18.495 57.5 25 1.884.942 16.5 9.375 16.5 10Z"/><path fill="#1CA697" id="RSPagl5" d="M179 35h2c3.76 0 9-8.496 9-12-5.487 0-10.297 2-15 2l-1 1c0 4.343-4 7.227-4 11 2.526 0 5.577-2 9-2Z"/><path fill="#1AA596" id="RSPd5" d="M201 36c-7.26 0-13.289 5-20 5v-6c3.76 0 9-8.496 9-12h1c7.71 0 11 4.64 11 12l-1 1ZM256 36c6.813 0 15.966 6 20 6 0-2.139-1-4.033-1-7 0-1-8-7.044-8-12h-1c-9.717 0-11 5.223-11 13h1Z"/><path fill="#1CA697" id="RSPagl5" d="m277 35 9 1c0-3.049-4-6.615-4-10-2.421 0-9.012-3-15-3 0 4.956 8 11 8 12h2Z"/><path fill="#09828B" id="VISpm4" d="M165 27v2l9-3v-1c-3.638 0-5.929 2-9 2Z"/><path fill="#1AA496" id="RSPagl2/3" d="m175 25-1 1v-1h1Z"/><path fill="#09828B" id="VISpm4" d="m292 27-1 2-9-3v-1c4.058 0 6.292 2 10 2Z"/><path fill="#088489" id="VISpm5" d="M169 37h1c0-3.773 4-6.657 4-11l-9 3 1 9 3-1ZM287 37l4 1v-9l-9-3c0 3.385 4 6.951 4 10l1 1Z"/><path fill="#0B848B" id="VISp4" d="M93 67h1l12.5-8c14.108-7.054 27.878-14.94 42-22l16.5-8v-2c-11.965 0-47.53 19.015-59.5 25L90 62c0 1.947 3 2.636 3 5ZM366 62l-3 5c-5.164 0-11.9-7.7-16.5-10-13.005-6.503-25.98-13.49-39-20L291 29l1-2c13.668 0 44.49 18.495 57.5 25 1.884.942 16.5 9.375 16.5 10Z"/><path fill="#088389" id="VISp5" d="M94 67c0 1.54 3.437 8 5 8 5.308 0 11.809-7.654 16.5-10 10.403-5.202 40.941-26 50.5-26v-1l-1-9-16.5 8c-14.122 7.06-27.892 14.946-42 22L94 67ZM357 76h1c0-1.347 3.438-8 5-8v-1c-5.164 0-11.9-7.7-16.5-10-13.005-6.503-25.98-13.49-39-20L291 29v10c4.428 0 8.715 4.108 12.5 6 12.837 6.419 25.078 14.539 38 21 1.84.92 15.5 9.058 15.5 10Z"/><path fill="#1BA597" id="RSPv1" d="m165 67 1 2c4.732 0 7.476-7.988 11.5-10 2.898-1.449 5.775-4.887 8-6 9.114-4.557 28.5-7.567 28.5-21l-5 1c0 3.337-3.647 6.573-6.5 8l-23 12-7 6c-2.414 1.207-7.5 4.851-7.5 8ZM292 67l-2 2-9.5-9c-8.317-4.159-15.766-9.883-24-14-3.084-1.542-9.622-1.743-11.5-5.5-1.409-2.817-2-5.03-2-8.5l4 1 1 1c0 7.42 17.142 12.32 22.5 15l11 8L292 67Z"/><path fill="#1AA597" id="RSPv2/3" d="M162 65c0 1.577 1.762 2 3 2 0-3.149 5.086-6.793 7.5-8l7-6 23-12c2.853-1.427 6.5-4.663 6.5-8l-7 2-1 1c0 2.602-7.67 6.085-9.5 7-6.776 3.388-21.088 10.676-24.5 17.5l-5 4.5ZM294 65l-2 2-10.5-10-11-8c-5.358-2.68-22.5-7.58-22.5-15l7 2h1c0 .786 26.045 19.273 29.5 21l8.5 8Z"/><path fill="#1CA597" id="RSPagl6a" d="m165 42-2 4c2.631 0 10.629-6.129 12.5-8l3.5-3c-3.423 0-6.474 2-9 2h-1c0 1.061-2.571 5-4 5Z"/><path fill="#1AA697" id="RSPd6a" d="m161 50 1 2c5.776 0 10.58-9 17-9 0-2.68-1.681-1 1-1l1-1v-6h-2l-3.5 3c-1.871 1.871-9.869 8-12.5 8 0 1.238-.423 3-2 3v1ZM296 50l-2 2c-3.463 0-11.305-9-17-9l-1-1c0-2.139-1-4.033-1-7h2c0 2.217 19 10.222 19 15Z"/><path fill="#1CA597" id="RSPagl6a" d="M296 50h1c0-3.345-6-5.413-6-9-1.366 0-4-2.366-4-4l-1-1-9-1c0 2.217 19 10.222 19 15Z"/><path fill="#1BA498" id="RSPv5" d="m158 61 4 4 5-4.5c3.412-6.824 17.724-14.112 24.5-17.5 1.83-.915 9.5-4.398 9.5-7-7.26 0-13.289 5-20 5l-1 1-1 1-3.5 4L158 61ZM299 61c0 1.811-3.438 4-5 4l-8.5-8c-3.455-1.727-29.5-20.214-29.5-21 6.813 0 15.966 6 20 6l1 1 5 4.5c2.914 2.914 12.225 13.5 17 13.5Z"/><path fill="#09858B" id="VISpm6a" d="m166 39-1 3c1.429 0 4-3.939 4-5l-3 1v1ZM291 39v2c-1.366 0-4-2.366-4-4l4 1v1Z"/><path fill="#08858C" id="VISp6a" d="M102 83h1l4-2c0-.877 14.384-10 16-10 0-2.268 8.031-6 10-6 0-2.268 8.031-6 10-6 0-2.268 8.031-6 10-6 0-2.109 2.535-2 4-2l2-1h1l1-1c0-1.238.423-3 2-3l2-4 1-3c-9.559 0-40.097 20.798-50.5 26-4.691 2.346-11.192 10-16.5 10v1l3 7ZM353 83h1l3-7c0-.942-13.66-9.08-15.5-10-12.922-6.461-25.163-14.581-38-21-3.785-1.892-8.072-6-12.5-6v2c0 3.587 6 5.655 6 9 9.312 0 33.768 20.134 43.5 25 2.113 1.056 12.5 5.302 12.5 8Z"/><path fill="#1AA498" id="RSPv6a" d="M180 42c-2.681 0-1-1.68-1 1l1-1ZM156 61h2l17.5-14 3.5-4c-6.42 0-11.224 9-17 9l-1 1c0 3.435-5 5.25-5 8ZM300 60l-1 1c-4.775 0-14.086-10.586-17-13.5l-5-4.5c5.695 0 13.537 9 17 9l1 1c0 2.863 5 4.921 5 7Z"/><path fill="#FF7AFD" id="SCzo" d="m293 81 2 1v-3l-2-3-1-1-6.5-8c-7.923-3.961-14.187-11.094-22-15-4.536-2.268-16.032-9.984-22-7-3.465 1.733-10.587 6.675-12.5 10.5l-.5 4.5-3.5-7.5-10.5-7.5c-5.747-2.874-24.864 9.432-30 12-2.234 1.117-7.5 3.325-7.5 6 3.06 0 5.886-3.693 8.5-5 11.127-5.564 21.494-13.253 34-7 3.54 1.77 6.5 4.833 6.5 9 0 3.642 1 8.002 1 11 1.048 0 3 .473 3-1 0-33.554 22.845-20.327 41.5-11 6.896 3.448 21.5 12.909 21.5 22Z"/><path fill="#1CA597" id="RSPagl6a" d="M163 46c-1.577 0-2 1.762-2 3 1.577 0 2-1.762 2-3Z"/><path fill="#FF78FF" id="SCsg" d="m164 77-1 4c4.399 0 11.822-7.661 16.5-10 9.086-4.543 18.913-7.457 28-12 12.111-6.056 16.212 12 19.5 12 0-2.998-1-7.358-1-11 0-4.167-2.96-7.23-6.5-9-12.506-6.253-22.873 1.436-34 7-2.614 1.307-5.44 5-8.5 5l-12 12-1 2ZM230 70c2.538 0 7.917-16.791 19.5-11 10.137 5.069 20.852 8.926 31 14l12.5 8c0-9.091-14.604-18.552-21.5-22-18.655-9.327-41.5-22.554-41.5 11Z"/><path fill="#1CA597" id="RSPagl6a" d="M160 50h1v-1l-1 1Z"/><path fill="#08858A" id="VISp6b" d="M157 51h2v-1l-2 1Z"/><path fill="#1AA598" id="RSPagl6b" d="M159 51h1v-1h-1v1Z"/><path fill="#1BA698" id="RSPd6b" d="m162 52-1 1-1-2v-1h1l1 2ZM294 52h1l1-1v-1l-2 2Z"/><path fill="#1AA598" id="RSPagl6b" d="M296 51h1v-1h-1v1Z"/><path fill="#08858A" id="VISp6b" d="M353 83v1c-5.953 0-35.976-26-43-26 0-1.75-11.047-7-13-7v-1c9.312 0 33.768 20.134 43.5 25 2.113 1.056 12.5 5.302 12.5 8Z"/><path fill="#09848A" id="VISl1" d="m65 69 2 3 18-17-2-4c-1.159 0-18 15.868-18 18Z"/><path fill="#08858A" id="VISp6b" d="M157 51c-1.465 0-4-.109-4 2 1.465 0 4 .109 4-2Z"/><path fill="#C9C9CA" id="scwm" d="M149 57v2l12-6-1-2h-3c0 2.109-2.535 2-4 2l-4 4ZM307 58c0-1.514 1.762 0 3 0 0-1.75-11.047-7-13-7h-1l-1 1v1l12 5Z"/><path fill="#09848A" id="VISl1" d="M391 69c0 1.747-.253 2-2 2-3.796 0-13.915-16-18-16l2-4c3.296 0 18 14.704 18 18Z"/><path fill="#1AA497" id="RSPv6b" d="M295 52v1l-1-1h1Z"/><path fill="#08858A" id="VISp6b" d="m147 58-4 1c0-2.268 8.031-6 10-6l-4 4h-1l-1 1Z"/><path fill="#C8C9CA" id="fp" d="M72 119h1l2-1 1-1 1-1v-1l2-2 1-1 1-1c0-1.747.253-2 2-2 0-1.747.253-2 2-2 0-1.747.253-2 2-2l1-1 1-1 2-2 2-1 1-1c0-1.577 1.762-2 3-2 0-1.577 1.762-2 3-2 0-2.375 14.118-8 17-8 0-6.456 14.837-15.168 20.5-18 1.734-.867 8.5-5.877 8.5-1h1c0-1.072 7.403-7 9-7 0-2.75 5-4.565 5-8l-12 6c-4.643 0-12.555 9.527-17.5 12-11.404 5.702-21.536 14.268-33 20l-10 8L73 116l-1 3ZM383 119h1c0-4.853-8.956-12.456-12.5-16-12.978-12.978-29.425-24.213-45-32-2.338-1.17-19.5-11.314-19.5-13l-12-5c0 2.863 5 4.921 5 7 1.784 0 9 7.23 9 8h2c0-4.456 6.651.076 8.5 1 6.179 3.09 19.5 12.11 19.5 18 10.985 0 24.756 11.256 32.5 19l11.5 13Z"/><path fill="#0A8489" id="VISl2/3" d="M67 73c2.58 0 3.211 4 6 4l17-15c0-3.245-4-3.088-4-7h-1L67 72v1ZM389 73c-2.618 0-3.093 4-5 4l-17-15c0-3.46 4-4.215 4-7 4.085 0 14.204 16 18 16v2Z"/><path fill="#C9C9CA" id="scwm" d="m148 57-1 1 1-1Z"/><path fill="#CBC9C7" id="or" d="M73 113v3l15.5-17 10-8c11.464-5.732 21.596-14.298 33-20 4.945-2.473 12.857-12 17.5-12v-2h-1l-1 1-4 1c0 2.268-8.031 6-10 6 0 2.268-8.031 6-10 6 0 2.559-12.883 10-16 10 0 1.712-2.571 3-4 3L88 96l-8 8-7 9ZM397 141l1 12c-1.993 0-1.35-5.2-2-6.5-1.811-3.621-8.196-27.5-12-27.5 0-4.853-8.956-12.456-12.5-16-12.978-12.978-29.425-24.213-45-32-2.338-1.17-19.5-11.314-19.5-13 0-1.514 1.762 0 3 0 7.024 0 37.047 26 43 26l16 12 8 8c0 3.345 6 5.413 6 9 0 1.838 6.069 13 8 13v1l2 2v2l1 1v1l1 1v3l1 1 1 3Z"/><path fill="#08858A" id="VISp6b" d="M143 59c-1.969 0-10 3.732-10 6 1.969 0 10-3.732 10-6Z"/><path fill="#FD7AFF" id="SCop" d="m161 86 14.5-9 24-10c4.047-2.024 12.655-3.173 17-1l9 10 2-3c1.631-.815 1.804 3.598 5 2l9-10c3.347-1.673 9.509.754 12 2 2.844 1.422 7.185.592 10 2 6.946 3.473 14.069 6.534 21 10l10.5 7v-4l-2-1-12.5-8c-10.148-5.074-20.863-8.931-31-14-11.583-5.791-16.962 11-19.5 11 0 1.473-1.952 1-3 1-3.288 0-7.389-18.056-19.5-12-9.087 4.543-18.914 7.457-28 12-4.678 2.339-12.101 10-16.5 10l-2 1v4Z"/><path fill="#47C83C" id="POST" d="M315 109h16c0-2.183-3.405-3.31-4-4.5L324 91l-1-2h-1l-1-1-3-4-1-1v-1l-1-1-1-3-1-1v-1l-1-1v-2l-4-5c0-.77-7.216-8-9-8l-1 1c0 1.811-3.438 4-5 4l-2 2-2 2 2 6 1 1c1.577 0 2 1.762 2 3v1l4 7v1l1 1 1 1v1h1l1 1 1 2 1 2 2 2v1l1 1 1 1v1c1.577 0 2 1.762 2 3v1l4 3ZM126 109h15l6-6v-1l1-1 1-2 1-1 1-1 1-2 1-1v-1l1-1 1-1v-1l1-1h1v-1l1-1 1-2 2-4c0-1.048-.473-3 1-3l1-1 1-2 1-1v-1l1-4-1-2c-1.238 0-3-.423-3-2l-4-4h-2c-1.597 0-9 5.928-9 7l-1 1-1 1v1l-1 2-1 1v2l-1 1v1l-1 1c0 1.45-3.778 8-5 8l-1 1-1 1-2 2-1 10.5c-1.275 2.55-5 4.466-5 7.5Z"/><path fill="#08828B" id="VISl4" d="M75 81h1c0-2.748 17-12.291 17-14 0-2.364-3-3.053-3-5L73 77v1c0 1.481 2 .785 2 3ZM380 81h1l3-3v-1l-17-15h-1l-3 5v1c1.234 0 17 11.082 17 13Z"/><path fill="#FF7AFD" id="SCzo" d="M165 74v1l12-12c-4.9 0-7.581 10-12 10v1Z"/><path fill="#08858A" id="VISp6b" d="M133 65c-1.969 0-10 3.732-10 6 1.969 0 10-3.732 10-6Z"/><path fill="#FF90FF" id="SCig" d="m308 121-1 1c-1.402 0-6-1.11-6-3 0-20.044-21.966-28.733-36.5-36-3.734-1.867-14.186-9.407-19-7-6.591 3.296-11.948 11-20 11l-11-10c-1.187-.594-2.716-.358-4-1-5.489-2.745-14.845 4.923-19 7-14.412 7.206-36.5 16.326-36.5 36 0 4.239-6.338 2.824-8-.5l-1-7.5v-2l1-2v-3c1.803 0 3-3.592 3-5l1-2 2-2v-1c1.747 0 2-.253 2-2l1-1 1-1v-1c1.747 0 2-.253 2-2l2-1 14.5-9 24-10c4.047-2.024 12.655-3.173 17-1l9 10 2-3c1.631-.815 1.804 3.598 5 2l9-10c3.347-1.673 9.509.754 12 2 2.844 1.422 7.185.592 10 2 6.946 3.473 14.069 6.534 21 10l10.5 7c3.005 0 3.171 5 6 5v1c0 1.253 6.852 11 8 11v3c0 2.618 2.514 7.472 1 10.5l-2 4.5Z"/><path fill="#C9CCC9" id="dhc" d="M125 90h6l3-1 1-1 1-1c1.222 0 5-6.55 5-8l1-1v-1l1-1v-2l1-1 1-2v-1l1-1v-1c0-4.877-6.766.133-8.5 1-5.663 2.832-20.5 11.544-20.5 18 2.678 0 8-.042 8 3ZM325 90h6c0-2.638 5.848-3 8-3 0-5.89-13.321-14.91-19.5-18-1.849-.924-8.5-5.456-8.5-1l2 5v2l1 1v1l1 1 1 3 1 1v1l1 1 3 4 1 1h1l2 1Z"/><path fill="#0B858B" id="VISl5" d="M82 89h1c0-1.759 14.453-13 16-13v-1c-1.563 0-5-6.46-5-8h-1c0 1.709-17 11.252-17 14l6 8Z"/><path fill="#7DCD4B" id="HPF" d="m147 68-1 1v-1h1ZM311 68l2 5-4-5h2Z"/><path fill="#0B858B" id="VISl5" d="M373 89h1c1.142 0 6-7.066 6-8 0-1.918-15.766-13-17-13-1.562 0-5 6.653-5 8 1.659 0 15 11.707 15 13Z"/><path fill="#0C858C" id="VISli1" d="m56 79 3 3 8-9v-1l-2-3-9 10Z"/><path fill="#7DCD4B" id="HPF" d="m146 69-1 1 1-1Z"/><path fill="#0C858C" id="VISli1" d="M400 79c-1.916 0-.07 3-3 3l-8-9v-2c1.747 0 2-.253 2-2 2.072 0 9 8.185 9 10Z"/><path fill="#08858A" id="VISp6b" d="M123 71c-1.616 0-16 9.123-16 10 3.117 0 16-7.441 16-10Z"/><path fill="#7DCD4B" id="HPF" d="m145 71-1 2 1-2Z"/><path fill="#0A858A" id="VISli2/3" d="M59 83c2.813 0 3.461 4 5 4l9-9v-1c-2.789 0-3.42-4-6-4l-8 9v1Z"/><path fill="#7DCD4B" id="HPF" d="m144 73-1 1 1-1Z"/><path fill="#0A858A" id="VISli2/3" d="m397 83-5 4-8-9v-1c1.907 0 2.382-4 5-4l8 9v1Z"/><path fill="#FF7AFD" id="SCzo" d="m165 75-1 2v-2h1Z"/><path fill="#7DCD4B" id="HPF" d="m313 75 1 1-1-1Z"/><path fill="#08848C" id="VISl6a" d="m83 89 4 5c2.463 0 9.733-6.233 11.5-8l3.5-3-3-7c-1.547 0-16 11.241-16 13Z"/><path fill="#7DCD4B" id="HPF" d="m143 76-1 1 1-1Z"/><path fill="#FF90FE" id="SCiw" d="m169 121 20-18.5c1.568-3.136 19.875-20.312 25.5-17.5 2.644 1.322 11.824 5.588 15 4 6.028-3.014 14.816-5.092 21-2 7.139 3.57 12.731 10.731 18.5 16.5 2.983 2.983 18 15.123 18 18.5 2.014 0 5.932 2.284 8.5 1l5.5-4c0-20.044-21.966-28.733-36.5-36-3.734-1.867-14.186-9.407-19-7-6.591 3.296-11.948 11-20 11l-11-10c-1.187-.594-2.716-.358-4-1-5.489-2.745-14.845 4.923-19 7-14.412 7.206-36.5 16.326-36.5 36 .715 0 14 8.714 14 2Z"/><path fill="#08848C" id="VISl6a" d="M369 95h1l3-6c0-1.293-13.341-13-15-13h-1l-3 7 12.5 9 2.5 3Z"/><path fill="#FF7AFD" id="SCzo" d="m163 81-2 1v-1c1.473 0 1-1.952 1-3l1-1h1l-1 4Z"/><path fill="#7DCD4B" id="HPF" d="m314 77 1 1-1-1Z"/><path fill="#08828C" id="VISli4" d="m64 88 3 2 8-9c0-2.215-2-1.519-2-3l-9 9v1Z"/><path fill="#7DCD4B" id="HPF" d="m142 78-1 1 1-1Z"/><path fill="#08828C" id="VISli4" d="M392 88c-1.481 0-.785 2-3 2l-8-9 3-3 8 9v1Z"/><path fill="#15B0B3" id="TEa1" d="m31 144-4 1c0-17.463 4.863-29.226 12-43.5l6-8L56 79l3 3v1c-2.232 0-8.022 9.544-9 11.5-8.548 17.097-19 28.642-19 49.5ZM425 144c1.145 0 4-.579 4 1 1.579 0 1-2.855 1-4l-1-12.5c-3.846-7.691-6.117-16.233-10-24-2.495-4.99-7.869-9.739-10-14-1.046-2.092-6.247-11.5-9-11.5-1.916 0-.07 3-3 3v1c3.148 0 8.853 10.207 10 12.5l6 8c6.607 13.214 12 24.37 12 40.5Z"/><path fill="#0A848A" id="VISli5" d="M74 98h1l7-9-6-8h-1l-8 9v1c1.661 0 5 3.007 5 5l2 2Z"/><path fill="#08858A" id="VISp6b" d="M103 83v1c1.429 0 4-1.288 4-3l-4 2Z"/><path fill="#7DCD4B" id="HPF" d="m316 81 1 1-1-1Z"/><path fill="#0A848A" id="VISli5" d="m384 97-2 1-8-9c1.142 0 6-7.066 6-8h1l8 9v1c-1.366 0-4 2.366-4 4l-1 1v1Z"/><path fill="#16AFB3" id="TEa2/3" d="M38 143c-2.41 0-5.181 1-7 1 0-20.858 10.452-32.403 19-49.5.978-1.956 6.768-11.5 9-11.5 2.813 0 3.461 4 5 4v1l-13 16.5c-6.61 13.219-13 22.287-13 38.5Z"/><path fill="#09858C" id="VISl6b" d="m87 95 1 1 15-12v-1h-1l-3.5 3c-1.767 1.767-9.037 8-11.5 8v1Z"/><path fill="#7DCD4B" id="HPF" d="m317 83 1 1-1-1Z"/><path fill="#09858C" id="VISl6b" d="M369 95v1l-16-12v-1h1l12.5 9 2.5 3Z"/><path fill="#16AFB3" id="TEa2/3" d="M418 142c0 .682 6.241 2 7 2 0-16.13-5.393-27.286-12-40.5l-6-8c-1.147-2.293-6.852-12.5-10-12.5l-5 4v1c2.519 0 8.969 10.437 10 12.5 8.002 16.004 16 21.413 16 41.5Z"/><path fill="#C7CBCB" id="bsc" d="M301 90v1c-2.829 0-2.995-5-6-5v-2l2 2 2 2 1 1 1 1ZM161 86l-2 1v-2h2v1Z"/><path fill="#FF8FFF" id="SCdg" d="M264 121c0 9.468 20.293 1 23 1 0-3.377-15.017-15.517-18-18.5-5.769-5.769-11.361-12.93-18.5-16.5-6.184-3.092-14.972-1.014-21 2-3.176 1.588-12.356-2.678-15-4-5.625-2.812-23.932 14.364-25.5 17.5L169 121c.402 0 3.43 2.465 4.5 3 3.033 1.517 19.5 3.119 19.5-3 0-10.775 8.163-21.831 18.5-27h20c4.892 0 11.88-1.06 16 1 8.607 4.303 16.5 16.433 16.5 26Z"/><path fill="#CAC7CB" id="fiber tracts" d="M299 87v1l-2-2 2 1Z"/><path fill="#C7C8CC" id="alv" d="M100 95h2c0-5.528 19.455-5 23-5 0-3.042-5.322-3-8-3-2.882 0-17 5.625-17 8Z"/><path fill="#7DCD4B" id="HPF" d="m136 87-1 1 1-1Z"/><path fill="#CAC7CB" id="fiber tracts" d="m158 87-1 1 1-1Z"/><path fill="#C7CBCB" id="bsc" d="M157 88v1c1.747 0 2-.253 2-2h-1l-1 1Z"/><path fill="#C7C8CC" id="alv" d="M383 119v1c-2.813 0-19.809-25-28-25l-6.5-4c-5.697-2.849-11.582-1-17.5-1 0-2.638 5.848-3 8-3 10.985 0 24.756 11.256 32.5 19l11.5 13Z"/><path fill="#15B0B2" id="TEa4" d="M40 142h1c0-17.383 10.873-26.246 18-40.5.94-1.881 5.692-10.5 8-10.5v-1l-3-2-13 16.5c-6.61 13.219-13 22.287-13 38.5l2-1Z"/><path fill="#7DCD4B" id="HPF" d="m135 88-1 1 1-1ZM321 88l1 1-1-1Z"/><path fill="#15B0B2" id="TEa4" d="M416 142h2c0-20.087-7.998-25.496-16-41.5-1.031-2.063-7.481-12.5-10-12.5-1.481 0-.785 2-3 2v1c2.799 0 7.678 8.855 9 11.5 6.773 13.545 18 22.819 18 39.5Z"/><path fill="#088488" id="VISli6a" d="M75 98c0 1.797 2.203 4 4 4l8-7v-1l-4-5h-1l-7 9Z"/><path fill="#4FC244" id="SUB" d="m116 119-4 2-10-26c0-5.528 19.455-5 23-5h6l1 1-1 10.5c-1.275 2.55-5 4.466-5 7.5l-7 8-2 1-1 1Z"/><path fill="#7DCD4B" id="HPF" d="m131 90 1 1 2-2-3 1Z"/><path fill="#CAC7CB" id="fiber tracts" d="M156 90h1v-1h-1v1ZM300 89l1 1-1-1Z"/><path fill="#7DCD4B" id="HPF" d="m325 90-1 1-1-2 2 1Z"/><path fill="#4FC244" id="SUB" d="m341 119 3 2 11-26-6.5-4c-5.697-2.849-11.582-1-17.5-1h-6l-1 1 3 13.5c.595 1.19 4 2.317 4 4.5l8 9h1l1 1Z"/><path fill="#088488" id="VISli6a" d="M382 99c-1.947 0-2.636 3-5 3l-7-7 3-6h1l8 9v1Z"/><path fill="#CAC7CB" id="fiber tracts" d="M155 91h1v-1h-1v1Z"/><path fill="#C7CBCB" id="bsc" d="m157 90-1 1v-1h1Z"/><path fill="#15AFB3" id="TEa5" d="M52 141c-4.128 0-6.258 1-11 1 0-17.383 10.873-26.246 18-40.5.94-1.881 5.692-10.5 8-10.5 1.661 0 5 3.007 5 5v5l-1 2c-2.795 0-6.059 7.617-7 9.5-4.551 9.102-12 17.618-12 28.5Z"/><path fill="#CAC7CB" id="fiber tracts" d="M154 92h1v-1l-1 1Z"/><path fill="#C7CBCB" id="bsc" d="m156 91-1 1v-1h1Z"/><path fill="#CAC7CB" id="fiber tracts" d="m303 92 1 2-3-2v-1h1l1 1Z"/><path fill="#15AFB3" id="TEa5" d="M405 141c3.8 0 6.407 1 11 1 0-16.681-11.227-25.955-18-39.5-1.322-2.645-6.201-11.5-9-11.5-1.366 0-4 2.366-4 4l-1 1v1c1.222 0 1.868 5 1 5v1c4.413 0 15.705 24.911 18 29.5.734 1.468-.099 8.5 2 8.5Z"/><path fill="#CAC7CB" id="fiber tracts" d="m154 92-1 1 1-1Z"/><path fill="#C7CBCB" id="bsc" d="M153 93v1c1.747 0 2-.253 2-2h-1l-1 1ZM309 102v1c-1.148 0-8-9.747-8-11l3 2 1 2 2 2v1l1 1 1 1v1Z"/><path fill="#CAC7CB" id="fiber tracts" d="M152 95h1v-1l-1 1Z"/><path fill="#FF8FFE" id="SCdw" d="M262 121h2c0-9.567-7.893-21.697-16.5-26-4.12-2.06-11.108-1-16-1h-20c-10.337 5.169-18.5 16.225-18.5 27h2c0-5.676 3.674-7.848 6-12.5 1.969-3.938 6.339-9.42 10.5-11.5 8.225-4.112 28.721-1.64 36 2 4.924 2.462 10.337 11.173 12.5 15.5.567 1.134.546 6.5 2 6.5Z"/><path fill="#08818B" id="VISli6b" d="m79 103 1 1 8-8-1-1-8 7v1Z"/><path fill="#C7C8CC" id="alv" d="M100 95c-1.238 0-3 .423-3 2 1.238 0 3-.423 3-2Z"/><path fill="#57B947" id="ProS" d="M121 214c-5.081 0-17.047 16-23 16-5.34 0-16.253-18-19-18v-1l-6-8v-1l-2-3v-1c0-1.238-.423-3-2-3v-1l-2-4v-1c0-1.815-2.573-13-4-13v-33c1.473 0 1-1.952 1-3l1-2v-1l1-2c1.473 0 1-1.952 1-3l1-2 1-2 1-2 1-1v-1c1.577 0 2-1.762 2-3 1.577 0 2-1.762 2-3l1-1 1-1v-1c1.747 0 2-.253 2-2l1-1 1-1 2-2 2-2 2-2 1-1 1-1c1.747 0 2-.253 2-2l2-1 1-1c1.238 0 3-.423 3-2 1.238 0 3-.423 3-2h2l10 26-9 8.5c-2.487 4.975-14.819 27.362-12 33 2.81 5.619 1.172 13.345 4 19l11 17 15 15.5Z"/><path fill="#C7CBCB" id="bsc" d="m153 95-2 2 1-2h1Z"/><path fill="#57B947" id="ProS" d="m361 229-2 1c-6.427 0-11.978-9.239-17.5-12-1.212-.606-5.5-2.24-5.5-4l16-17.5 7-10c9.178-18.356 6.717-32.567-2-50-1.431-2.862-10.187-15.5-13-15.5l11-26c8.191 0 25.187 25 28 25v1l2 2v1l4 7v1l2 3v2l2 4v3c0 1.257.941 8 2 8v11c-1.287 0-2 12.084-2 14v1c-1.473 0-1 1.952-1 3-1.473 0-1 1.952-1 3v1c-1.638 0-2 3.576-2 5v1l-1 2-1 2-1 2-1 2v1l-1 1-1 2-1 2-1 1v1l-1 1-1 1-1 2-1 1c-1.577 0-2 1.762-2 3l-2 2-2 2-2 2-2 2-2 2-2 2-2 2Z"/><path fill="#08818B" id="VISli6b" d="M377 103v1l-8-8v-1h1l7 7v1Z"/><path fill="#0B838A" id="VISpor5" d="m385 95-1 1 1-1ZM74 98l-2 3v-5l2 2Z"/><path fill="#FC8FFF" id="PAG" fill-rule="evenodd" d="M238 140c0 7.362 7.897 0 0 0m-23 0c0 6.311 7.12 0 0 0m24 9h3l1-1c2.962 0 8.721-12.61 13.5-15l4.5-5 1-7c-1.454 0-1.433-5.366-2-6.5-2.163-4.327-7.576-13.038-12.5-15.5-7.279-3.64-27.775-6.112-36-2-4.161 2.08-8.531 7.562-10.5 11.5-2.326 4.652-6 6.824-6 12.5v7l10 9.5c1.699 1.699 4.92 9.5 7 9.5l5 3c1.714 0 3.482-2 6-2 2.215 0 1.519-2 3-2v-1c0-7.373 1-15.242 1-22l-1-1.5c0-4.363 6.802 1.5 3 1.5 0 7.13 2 14.181 2 22v2l2 2h6Z"/><path fill="#CAC7CB" id="fiber tracts" d="m305 96 2 2-2-2Z"/><path fill="#C7C8CC" id="alv" d="M97 97c-1.238 0-3 .423-3 2 1.238 0 3-.423 3-2Z"/><path fill="#C7CBCB" id="bsc" d="M150 98v1l1-2-1 1Z"/><path fill="#0B838A" id="VISpor5" d="m382 99 3 3c.868 0 .222-5-1-5l-2 1v1Z"/><path fill="#0C858B" id="VISpor6a" d="m79 103-8 9v-9l1-2 2-3h1c0 1.797 2.203 4 4 4v1Z"/><path fill="#CAC7CB" id="fiber tracts" d="M149 99h1v-1l-1 1Z"/><path fill="#C7C8CC" id="alv" d="m94 99-1 1 1-1Z"/><path fill="#C7CBCB" id="bsc" d="M147 103v1c1.803 0 3-3.592 3-5h-1l-1 2-1 1v1Z"/><path fill="#CAC7CB" id="fiber tracts" d="m307 99 1 1-1-1Z"/><path fill="#0C858B" id="VISpor6a" d="M385 103c0 2.008.842 9 0 9l-8-9v-1c2.364 0 3.053-3 5-3l3 3v1Z"/><path fill="#C7C8CC" id="alv" d="m93 100-2 1 2-1ZM91 101l-2 2c1.747 0 2-.253 2-2Z"/><path fill="#15AFB2" id="TEa6a" d="M58 141v1c-2.342 0-3.658-1-6-1 0-10.882 7.449-19.398 12-28.5.941-1.883 4.205-9.5 7-9.5v9l-1 1c0 6.007-12 18.997-12 28Z"/><path fill="#0C848C" id="VISpor6b" d="m73 113-2 2v-3l8-9 1 1-7 9Z"/><path fill="#C7C8CC" id="alv" d="m89 103-1 1 1-1Z"/><path fill="#0C848C" id="VISpor6b" d="M386 114v2l-3-3c0-3.587-6-5.655-6-9v-1l8 9 1 2Z"/><path fill="#15AFB2" id="TEa6a" d="M405 141v1c-2.461 0-4.227-1-7-1 0-3.815-9.735-27-12-27l-1-2c.842 0 0-6.992 0-9 4.413 0 15.705 24.911 18 29.5.734 1.468-.099 8.5 2 8.5Z"/><path fill="#C7C8CC" id="alv" d="m88 104-1 1 1-1Z"/><path fill="#C7CBCB" id="bsc" d="M311 106v2l-2-2v-2l2 1v1Z"/><path fill="#C7C8CC" id="alv" d="M87 105c-1.747 0-2 .253-2 2l2-2Z"/><path fill="#C7CBCB" id="bsc" d="M146 107h1v-2l-1 2Z"/><path fill="#FF64FF" id="MB" d="M308 121h3c0-1.238.423-3 2-3l-1-1c-1.735 0-1-6.51-1-8v-1l-2-2c0 2.618 2.514 7.472 1 10.5l-2 4.5Z"/><path fill="#C7C8CC" id="alv" d="M85 107c-1.747 0-2 .253-2 2l2-2Z"/><path fill="#C7CBCB" id="bsc" d="M146 111c-1.373 0-.242 7.015-1 5.5l-1-1.5c0-1.775.069-8 2-8v4Z"/><path fill="#FF64FF" id="MB" d="m147 107-1 2v-2h1Z"/><path fill="#C7C8CC" id="alv" d="M83 109c-1.747 0-2 .253-2 2l2-2Z"/><path fill="#59B847" id="PRE" d="m135 118-6 3c-2.985 0-6.151-4-10-4l7-8h15c0 2.58-4 3.211-4 6l-1 1-1 2Z"/><path fill="#C7CBCB" id="bsc" d="M311 109c2.747 0 1 6.457 1 8-1.735 0-1-6.51-1-8Z"/><path fill="#59B847" id="PRE" d="m339 118-4.5-1-7.5 4c-2.773 0-3.67-4-6-4l-6-8h16l8 9Z"/><path fill="#C7C8CC" id="alv" d="m81 111-1 1 1-1Z"/><path fill="#FF64FF" id="MB" d="M151 127c13.496 0 30.003 1 44 1v-7h-2c0 6.119-16.467 4.517-19.5 3-1.07-.535-4.098-3-4.5-3 0 6.714-13.285-2-14-2 0 4.239-6.338 2.824-8-.5l-1-7.5c-1.373 0-.242 7.015-1 5.5l-1-1.5v3c1.577 0 2 1.762 2 3 3.742 0 5 2.488 5 6Z"/><path fill="#0C858B" id="VISpor6a" d="M70 113h1v-1l-1 1Z"/><path fill="#C7C8CC" id="alv" d="m80 112-1 1 1-1Z"/><path fill="#16B0B2" id="TEa6b" d="M58 141h1l1-2 1-1v-3l1-1v-1l1-1v-2l1-1 1-2 1-2 1-2 4-8v-2h-1c0 6.007-12 18.997-12 28Z"/><path fill="#CCC8CA" id="ar" d="M67 123h2c0-1.465-.109-4 2-4 0-1.238.423-3 2-3v-3l-2 2-4 8Z"/><path fill="#C7C8CC" id="alv" d="m79 113-2 2c1.747 0 2-.253 2-2Z"/><path fill="#CCC8CA" id="ar" d="m386 116 5 10c-1.931 0-8-11.162-8-13l3 3Z"/><path fill="#16B0B2" id="TEa6b" d="M397 141h1c0-3.815-9.735-27-12-27v2l5 10v1l2 2v2l1 1v1l1 1v3l1 1 1 3Z"/><path fill="#7DCD4B" id="HPF" d="m137 115-1 1 1-1Z"/><path fill="#CBC9C7" id="or" d="M71 119h1l1-3c-1.577 0-2 1.762-2 3Z"/><path fill="#C7C8CC" id="alv" d="m77 116-1 1 1-1ZM76 117l-1 1 1-1Z"/><path fill="#59B847" id="PRE" d="m119 117-2 1 2-1Z"/><path fill="#7BD04A" id="DG-mo" fill-rule="evenodd" d="M108 146c0 .982-3.372 6.244-4 7.5-4.898 9.796 5.349 30.698 9 38 1.608 3.215 11.331 22.338 16 13 3.409-6.817-9.044-28.088-12-34-1.702-3.405-.322-8.644-2-12-1.995-3.99-1.227-12.5-7-12.5m19 72h1l1-1c4.542 0 10.536-14.427 8-19.5-7.365-14.729-14-33.976-14-51.5 0-1.145-.579-4 1-4v-2l1-1c0-4.624 4-7.761 4-12v-6c-2.985 0-6.151-4-10-4l-2 1-1 1-4 2-9 8.5c-2.487 4.975-14.819 27.362-12 33 2.81 5.619 1.172 13.345 4 19l11 17 15 15.5 1 1 1 1v1l4 1Z"/><path fill="#7DCD4B" id="HPF" d="M327 121v5c-1.199 0-6-7.844-6-9 2.33 0 3.227 4 6 4Z"/><path fill="#7BD04A" id="DG-mo" fill-rule="evenodd" d="m346 146-3 5.5c-2.629 5.258-1.28 15.559-4 21l-10 19c-1.6 3.199-4.361 13.069.5 15.5 4.05 2.025 10.196-7.892 11.5-10.5 5.733-11.465 12-22.635 12-36.5 0-4.456-.9-14-7-14m-13 71-4 1c-4.386 0-12.264-13.972-10-18.5 8.505-17.01 14-37.001 14-57.5l-1-2v-2l-1-1-4-11v-5l7.5-4 4.5 1h1l1 1 3 2c2.813 0 11.569 12.638 13 15.5 8.717 17.433 11.178 31.644 2 50l-7 10-16 17.5-3 3Z"/><path fill="#C7C8CC" id="alv" d="M73 119v2c1.577 0 2-1.762 2-3l-2 1Z"/><path fill="#59B847" id="PRE" d="m117 118-1 1 1-1Z"/><path fill="#7DCD4B" id="HPF" d="M129 121v6l6-9-6 3Z"/><path fill="#C9C8C8" id="bic" d="M134 143c0 1.211-.626 6 1.5 6l2.5-4c0-3.6 4.723-24 8-24 0-1.238-.423-3-2-3-5.787 0-10 19.686-10 25ZM322 141c0 1.257.662 9.081-1.5 8l-2.5-5-3-16.5-4-6.5c0-1.238.423-3 2-3 4.508 0 9 18.195 9 23Z"/><path fill="#59B847" id="PRE" d="m340 118 1 1-1-1Z"/><path fill="#CBC9C7" id="or" d="M71 119c-2.109 0-2 2.535-2 4l2-4Z"/><path fill="#C8CBCC" id="ec" d="m63 145-2 2c0-9.146 8-16.971 8-24l2-4h2v2c-1.577 0-2 1.762-2 3v1l-1 1-1 2-1 2-1 2c-1.473 0-1 1.952-1 3l-1 2v1l-1 2c-1.473 0-1 1.952-1 3v2Z"/><path fill="#FF64FF" id="MB" d="M306 127c-13.885 0-30.64 1-45 1l1-7h2c0 9.468 20.293 1 23 1 2.014 0 5.932 2.284 8.5 1l5.5-4c0 1.89 4.598 3 6 3l-1 5Z"/><path fill="#C8CBCC" id="ec" d="M385 200v1c2.268 0 4.228-5.956 5-7.5 4.121-8.242 7-17.604 7-27.5 0-.965 1.299-10 2-10l-1-3c-1.993 0-1.35-5.2-2-6.5-1.811-3.621-8.196-27.5-12-27.5h-1v2l2 2v1c1.948 0 4 5.428 4 7v1c1.577 0 2 1.762 2 3v2l2 4v3c2.488 0 2 6.101 2 8v1c1.613 0 1.613 8 0 8v2c0 2.418.5 14-2 14v1c0 1.048.473 3-1 3 0 1.048.473 3-1 3v1c0 1.424-.362 5-2 5v1l-1 2-1 2-1 2-1 2v1Z"/><path fill="#A9A9A8" id="AQ" d="M227 123h2c3.802 0-3-5.863-3-1.5l1 1.5Z"/><path fill="#C7C8CC" id="alv" d="M73 121c-1.577 0-2 1.762-2 3 1.577 0 2-1.762 2-3Z"/><path fill="#FE7AFD" id="NB" d="M147 137c-1.454 0-1.433 5.366-2 6.5-.899 1.799-7 6.072-7 1.5 0-3.6 4.723-24 8-24 3.742 0 5 2.488 5 6l-1 1c0 3.496-3 5.441-3 9ZM310 139c.974 0 2.202 6.851 4.5 8 2.711 1.355 3.5-.961 3.5-3l-3-16.5-4-6.5h-3l-1 1-1 5c0 3.496 3 5.441 3 9l1 2v1Z"/><path fill="#C7C8CC" id="alv" d="m383 121 2 2-2-2Z"/><path fill="#CCC8CA" id="ar" d="m67 123-1 2 1-2Z"/><path fill="#CBC9C7" id="or" d="M61 148c-2.266 0 .454 4-3 4l1-11 1-2 1-1v-3l1-1v-1l1-1v-2l1-1 1-2 1-2 1-2h2c0 7.029-8 14.854-8 24v1Z"/><path fill="#FF64FF" id="MB" d="M226 145h5c0-7.819-2-14.87-2-22h-2c0 6.758-1 14.627-1 22Z"/><path fill="#C7C8CC" id="alv" d="M385 124c1.948 0 4 5.428 4 7l-4-7Z"/><path fill="#CCC8CA" id="ar" d="m66 125-1 2 1-2Z"/><path fill="#C7C8CC" id="alv" d="m71 125-1 1 1-1ZM70 126l-1 2 1-2Z"/><path fill="#FF8FFD" id="MRN" d="m209 179-5.5 4c-3.109 1.555-7.768 1-11.5 1 0-8.923-22-14.9-22-6-10.491 0-23-31.485-23-41 0-3.559 3-5.504 3-9l1-1c13.496 0 30.003 1 44 1l10 9.5c1.699 1.699 4.92 9.5 7 9.5l4 5c0 3.126 6 6.346 6 8v5c-4.298 0-6.007 8-9 8 0-3.766-1.485-3.47-3-6.5-5.903-11.806-30.132-9.264-21 9 1.788 3.577 5.352 5.5 9.5 5.5 5.21 0 8.363-5 12.5-5l-1 2-1 1Z"/><path fill="#FF8FFD" id="MRN" fill-rule="evenodd" d="M256 159c0 1.183-3.57 1.535-4.5 2l-8.5 9.5c-1.937 3.875 4.527 5.527 6 7 10.917 10.917 32.717-7.391 14.5-16.5-2.527-1.263-4.392-2-7.5-2m30 19c0-9.508-21-2.928-21 6-3.997 0-9.161.67-12.5-1-2.489-1.245-3.775-5-6.5-5 0-1.528-9.441-13-11-13v-6l2-2c1.577 0 2-1.762 2-3l2-2 1-3 1-1c2.962 0 8.721-12.61 13.5-15l4.5-5c14.36 0 31.115-1 45-1 0 3.496 3 5.441 3 9l1 2v1c0 8.234-14.598 39-24 39Z"/><path fill="#CCC8CA" id="ar" d="m65 127-1 2 1-2Z"/><path fill="#FF64FF" id="MB" d="m151 127-1 1 1-1Z"/><path fill="#CCC8CA" id="ar" d="m391 127 2 2-2-2Z"/><path fill="#C7C8CC" id="alv" d="m69 128-1 2 1-2Z"/><path fill="#CCC8CA" id="ar" d="m64 129-1 1 1-1Z"/><path fill="#C7C8CC" id="alv" d="m68 130-1 2 1-2Z"/><path fill="#CCC8CA" id="ar" d="m393 131 1 1-1-1ZM63 132l-1 1 1-1Z"/><path fill="#C7C8CC" id="alv" d="M67 132c-1.473 0-1 1.952-1 3 1.473 0 1-1.952 1-3ZM389 132c1.577 0 2 1.762 2 3l-2-3Z"/><path fill="#CCC8CA" id="ar" d="m394 133 1 1-1-1ZM62 134l-1 1 1-1Z"/><path fill="#C7C8CC" id="alv" d="m66 135-1 2 1-2Z"/><path fill="#FF64FF" id="MB" d="m309 136 1 2-1-2Z"/><path fill="#FF64FF" id="MB" fill-rule="evenodd" d="M153 186c0 2.796-1.54 6.42 0 9.5 5.412 10.825 24.051 6.102 18-6-1.818-3.636-7.675-1.088-10.5-2.5-2.375-1.187-4.619-1-7.5-1m2 28 4.5-1 7.5 7.5 3 4.5c2.144 0 .381-4.262 1-5.5 1.637-3.274 5.118-6.5 9-6.5l1-5c-2.262 0-1.105 1.198-3.5 0-13.403-6.702 3.5-13.977 3.5-18-5.62 0-11-6.765-11-12-10.491 0-23-31.485-23-41-1.454 0-1.433 5.366-2 6.5-.899 1.799-7 6.072-7 1.5l-2.5 4c-2.126 0-1.5-4.789-1.5-6-2.144 0-.381 4.262-1 5.5-1.551 3.101-2.887 8.227-1 12 4.57 9.14 6.386 19.772 11 29 4.394 8.789 12 13.693 12 24.5Z"/><path fill="#7DCD4B" id="HPF" d="m331 137 1 1-1-1Z"/><path fill="#C7C8CC" id="alv" d="m391 137 2 4-2-4Z"/><path fill="#CCC8CA" id="ar" d="m395 137 1 1-1-1ZM61 138l-1 1 1-1Z"/><path fill="#C7C8CC" id="alv" d="m65 138-1 2 1-2Z"/><path fill="#7DCD4B" id="HPF" d="m125 139-1 1 1-1Z"/><path fill="#FF64FF" id="MB" fill-rule="evenodd" d="M297 186c0 1.215-8.208 1.354-9.5 2-3.627 1.814-3.288 11.356 0 13 11.822 5.911 25.635-15 9.5-15m6 29c-3.256 0-3.483-3.009-7.5-1l-9.5 11c0-5.382-2.661-12-9-12l-2-5c7.361 0 11.046-4.407 7-12.5-1.144-2.288-6-1.99-6-5.5 5.291 0 10-6.825 10-12 9.402 0 24-30.766 24-39 .974 0 2.202 6.851 4.5 8 2.711 1.355 3.5-.961 3.5-3l2.5 5c2.162 1.081 1.5-6.743 1.5-8 1.643 0 1 3.765 1 5 0 3.461 4.034 8.432 2 12.5-3.728 7.457-4.269 16.538-8 24-4.516 9.032-11.466 16.933-16 26-1.428 2.856 2 4.553 2 6.5Z"/><path fill="#C7C8CC" id="alv" d="M64 140c-1.473 0-1 1.952-1 3 1.473 0 1-1.952 1-3Z"/><path fill="#FD90FC" id="Su3" d="M215 140c0 6.311 7.12 0 0 0ZM238 140c0 7.362 7.897 0 0 0Z"/><path fill="#7DCD4B" id="HPF" d="m332 140 1 2-1-2Z"/><path fill="#0D9E90" id="ECT5" d="m43 156 8 1c0-5.479 1-11.075 1-16-4.128 0-6.258 1-11 1h-1c0 4.716 3 9.473 3 14Z"/><path fill="#0E9F91" id="ECT6a" d="M57 156c-1.564 0-3.876 1-6 1 0-5.479 1-11.075 1-16 2.342 0 3.658 1 6 1 0 3.948-1 9.393-1 14Z"/><path fill="#0E9F90" id="ECT6b" d="M57 156h1v-4l1-11h-1v1c0 3.948-1 9.393-1 14ZM399 156h1c0-5.296-2-10.279-2-15h-1l1 12 1 3Z"/><path fill="#0E9F91" id="ECT6a" d="m400 156 5 1v-15c-2.461 0-4.227-1-7-1 0 4.721 2 9.704 2 15Z"/><path fill="#0D9E90" id="ECT5" d="m413 156-8 1v-16c3.8 0 6.407 1 11 1 0 5.222-3 9.64-3 14Z"/><path fill="#0D9F91" id="ECT2/3" d="M35 157h1c0-2.333 5.511-1 7-1 0-4.527-3-9.284-3-14l-2 1c-2.41 0-5.181 1-7 1 0 5.217 4 8.617 4 13Z"/><path fill="#7DCD4B" id="HPF" d="M124 142c-1.579 0-1 2.855-1 4 1.579 0 1-2.855 1-4Z"/><path fill="#0D9F91" id="ECT2/3" d="M420 157h1c0-3.048 4-7.615 4-13-.759 0-7-1.318-7-2h-2c0 5.222-3 9.64-3 14 1.489 0 7-1.333 7 1Z"/><path fill="#0D9F90" id="ECT1" d="m35 157-3 2c-4.867 0-5-10.66-5-14l4-1c0 5.217 4 8.617 4 13Z"/><path fill="#C7C8CC" id="alv" d="M393 144c2.488 0 2 6.101 2 8-1.059 0-2-6.743-2-8Z"/><path fill="#0D9F90" id="ECT1" d="m421 157 3 2c5.759 0 5-10.366 5-14 0-1.579-2.855-1-4-1 0 5.385-4 9.952-4 13Z"/><path fill="#C7C8CC" id="alv" d="M61 148c0 6.538-1.786 16.927 1 22.5.574 1.147-1.064 4.5 1 4.5v-30l-2 2v1Z"/><path fill="#FE8FFC" id="EW" d="M231 151v2c-5.777 0-5-1.658-5-7v-1h5v6Z"/><path fill="#65A83D" id="DG-sg" d="M108 146c0 .982-3.372 6.244-4 7.5-4.898 9.796 5.349 30.698 9 38 1.608 3.215 11.331 22.338 16 13 3.409-6.817-9.044-28.088-12-34-1.702-3.405-.322-8.644-2-12-1.995-3.99-1.227-12.5-7-12.5Z"/><path fill="#FF64FF" id="MB" d="M229 166h2l1-3c-3.888 0 1-4.043 1-5-2.461 0-2-3.378-2-5-5.777 0-5-1.658-5-7-1.481 0-.785 2-3 2l3 6c7.274 0 3 7.49 3 12Z"/><path fill="#65A83D" id="DG-sg" d="m346 146-3 5.5c-2.629 5.258-1.28 15.559-4 21l-10 19c-1.6 3.199-4.361 13.069.5 15.5 4.05 2.025 10.196-7.892 11.5-10.5 5.733-11.465 12-22.635 12-36.5 0-4.456-.9-14-7-14Z"/><path fill="#FF64FF" id="MB" d="m216 152 5 5-4-7-5-3 4 5ZM233 149l-2 2v-4l2 2Z"/><path fill="#C8CBCC" id="ec" d="M79 211v1c-3.221 0-6-7.5-7-9.5-5.963-11.926-13-22.109-13-36.5l-1-10v-4c3.454 0 .734-4 3-4 0 6.538-1.786 16.927 1 22.5.574 1.147-1.064 4.5 1 4.5v1c0 2.144 1.88 13 4 13v1l2 4v1c0 1.238.423 3 2 3v1c0 1.238.423 3 2 3v1c0 1.505 4.197 8 6 8Z"/><path fill="#FE90FF" id="III" d="M223 158h1l2-3v-1l-3-6c-2.518 0-4.286 2-6 2l4 7h1l1 1ZM235 157l-2 1c-2.461 0-2-3.378-2-5v-2l2-2h6v4l-1 1-1 1v1l-2 1Z"/><path fill="#FF64FF" id="MB" d="m243 148-1 1 1-1Z"/><path fill="#FE7E83" id="MGv" d="M128 149c0 1.93 1.93 0 0 0Z"/><path fill="#FF64FF" id="MB" d="M239 152h2l1-3h-3v3Z"/><path fill="#FE7E83" id="MGv" d="M327 149c0 1.93 1.93 0 0 0Z"/><path fill="#CBCBCC" id="mlf" d="M226 160v2c-2.424 0-2.76-2-4-2 0-1.654-6-4.874-6-8l5 5h1l1 1h1l2 2ZM239 153v1l2-2h-2v1Z"/><path fill="#FF64FF" id="MB" d="M238 154h1v-1l-1 1Z"/><path fill="#C7C8CC" id="alv" d="M395 153c1.613 0 1.613 8 0 8v-8Z"/><path fill="#FEA6FF" id="RL" d="M226 162c0 2.061.902 4 3 4 0-4.51 4.274-12-3-12v8Z"/><path fill="#FF64FF" id="MB" d="m238 154-1 1 1-1Z"/><path fill="#CBCBCC" id="mlf" d="M237 156v1c1.577 0 2-1.762 2-3h-1l-1 1v1Z"/><path fill="#0E9583" id="PERI2/3" d="M38 167h6c1.048 0 3 .473 3-1-.567 0-4-8.99-4-10-1.489 0-7-1.333-7 1 0 2.979 2 6.23 2 10Z"/><path fill="#FF64FF" id="MB" d="m224 158 2 2v-5l-2 3Z"/><path fill="#0E9583" id="PERI2/3" d="M413 167h6c0-3.552 1-6.716 1-10 0-2.333-5.511-1-7-1l-3 11h3Z"/><path fill="#0F9684" id="PERI5" d="M50 166h2c0-3.013-1-6.611-1-9l-8-1c0 1.01 3.433 10 4 10h3Z"/><path fill="#0E9684" id="PERI6a" d="M54 166h3v-10c-1.564 0-3.876 1-6 1 0 2.389 1 5.987 1 9h2Z"/><path fill="#0E9683" id="PERI6b" d="M57 166h2l-1-10h-1v10Z"/><path fill="#FF64FF" id="MB" d="M235 157h2v-1l-2 1Z"/><path fill="#0E9683" id="PERI6b" d="M397 166h2l1-10h-1c-.701 0-2 9.035-2 10Z"/><path fill="#0E9684" id="PERI6a" d="M402 166h2l1-9-5-1-1 10h3Z"/><path fill="#0F9684" id="PERI5" d="m407 166 3 1 3-11-8 1-1 9h3Z"/><path fill="#0E9584" id="PERI1" d="M32 168h5l1-1c0-3.77-2-7.021-2-10h-1l-3 2v9Z"/><path fill="#FF64FF" id="MB" d="m222 157 1 1-1-1ZM235 157l-2 1 2-1Z"/><path fill="#CBCBCC" id="mlf" d="m235 159-3 4c-3.888 0 1-4.043 1-5l2-1h2l-2 2Z"/><path fill="#0E9584" id="PERI1" d="m419 167 5 1v-9l-3-2h-1c0 3.284-1 6.448-1 10Z"/><path fill="#FE90FD" id="RN" d="m212 175-1 1c-4.137 0-7.29 5-12.5 5-4.148 0-7.712-1.923-9.5-5.5-9.132-18.264 15.097-20.806 21-9 1.515 3.03 3 2.734 3 6.5v1l-1 1Z"/><path fill="#FF64FF" id="MB" d="M234 165h1v-6l-3 4 2 2Z"/><path fill="#FE90FD" id="RN" d="M256 159c0 1.183-3.57 1.535-4.5 2l-8.5 9.5c-1.937 3.875 4.527 5.527 6 7 10.917 10.917 32.717-7.391 14.5-16.5-2.527-1.263-4.392-2-7.5-2Z"/><path fill="#FF64FF" id="MB" d="M227 171h2v-5c-2.098 0-3-1.939-3-4-2.424 0-2.76-2-4-2v5c1.621 0 3-4.257 3 1 3.559 0 2 2.876 2 5Z"/><path fill="#C8C8C8" id="mtg" d="M219 179v1c-1.747 0-2-.253-2-2 0-4.844 5-8.051 5-13 1.621 0 3-4.257 3 1l-2 4v1l-1 2-1 1v1l-1 1v1l-1 2ZM239 178c0 2.729-.423 1-2 1v-2l-1-1-1-3-2-2c0-1.424-.362-5-2-5l1-3 2 2c0 4.582 5 8.087 5 13Z"/><path fill="#C7C8CC" id="alv" d="M395 163c-1.287 0-2 12.084-2 14 2.5 0 2-11.582 2-14Z"/><path fill="#C8C8CC" id="tspc" d="M217 178c-2.727 0-3.485 9.492-6.5 11-2.043 1.022-4.339-3.821-3.5-5.5l2-4.5 1-1 1-2 1-1 1-1v-1c2.993 0 4.702-8 9-8 0 4.949-5 8.156-5 13ZM239 178c3.723 0 3.624 9.562 6.5 11 3.267 1.633 4.5-4.5 3.5-6.5l-3-4.5c0-1.528-9.441-13-11-13h-1c0 4.582 5 8.087 5 13Z"/><path fill="#32B725" id="ENTl3" d="m76 230-6 4c0-2.704-4.904-4.202-6.5-5-3.047-1.524-8.51-9.521-10.5-13.5-2.802-5.603-14.235-28.53-11-35 1.459-2.917 2-10.317 2-13.5 1.048 0 3 .473 3-1h3c0 12.092-2.453 24.593 3 35.5 2.553 5.105 7.405 8.811 10 14 1.088 2.176 10.86 13.5 13 13.5v1Z"/><path fill="#31B824" id="ENTl5" d="M82 226c-2.079 0-3.187 3-6 3-2.14 0-11.912-11.324-13-13.5-2.595-5.189-7.447-8.895-10-14-5.453-10.907-3-23.408-3-35.5h4c0 14.728 4.91 26.318 11 38.5 1.372 2.744 4.99 4.981 6 7 1.349 2.697 8.684 13.5 11 13.5v1Z"/><path fill="#32B824" id="ENTl6a" d="m87 223-5 2c-2.316 0-9.651-10.803-11-13.5-1.01-2.019-4.628-4.256-6-7-6.09-12.182-11-23.772-11-38.5h5c0 14.391 7.037 24.574 13 36.5 1 2 3.779 9.5 7 9.5v1l1 1 3 4 1 1 3 3v1Z"/><path fill="#CACAC7" id="dtd" d="M224 171h3c0-2.124 1.559-5-2-5l-2 4 1 1ZM229 171h4c0-1.424-.362-5-2-5h-2v5Z"/><path fill="#32B824" id="ENTl6a" d="M374 226h1c0-3.845 11.673-13.845 14-18.5 7.654-15.307 13-22.637 13-41.5h-5c0 9.896-2.879 19.258-7 27.5-.772 1.544-2.732 7.5-5 7.5l-1 2-1 1v1l-1 1-1 1v1l-1 1-1 1v1l-1 1-1 1-2 2-1 2-1 1-1 1-1 1-1 1-1 1v1c1.408 0 5 1.197 5 3Z"/><path fill="#31B824" id="ENTl5" d="M380 230h1l17-19.5c9.123-18.245 9-23.553 9-44.5h-5c0 18.863-5.346 26.193-13 41.5-2.327 4.655-14 14.655-14 18.5l5 4Z"/><path fill="#32B725" id="ENTl3" d="m381 230 5 4c0-2.704 4.904-4.202 6.5-5 5.295-2.648 10.184-11.868 12.5-16.5 4.277-8.554 5.765-18.53 10-27 .337-.673-2-15.477-2-18.5h-3l-3-1c0 20.947.123 26.255-9 44.5L381 230Z"/><path fill="#32B825" id="ENTl2" d="M65 239h1l4-4v-1c0-2.704-4.904-4.202-6.5-5-3.047-1.524-8.51-9.521-10.5-13.5-2.802-5.603-14.235-28.53-11-35 1.459-2.917 2-10.317 2-13.5h-6l-1 1c0 .852-3.363 12.227-4 13.5-.896 1.791 1.184 8.368 2 10 4.611 9.223 5.365 20.73 10 30 2.297 4.593 7.524 11.012 12.5 13.5 1.456.728 7.5 1.87 7.5 4ZM386 235l5 3c20.039 0 25.606-36.712 32-49.5 3.631-7.261-4-15.767-4-21.5h-6c0 3.023 2.337 17.827 2 18.5-4.235 8.47-5.723 18.446-10 27-2.316 4.632-7.205 13.852-12.5 16.5-1.596.798-6.5 2.296-6.5 5v1Z"/><path fill="#32B722" id="ENTl1" d="m391 239 5 3c3.689 0 7.098-5.799 9.5-7 11.831-5.915 16.562-35.624 22.5-47.5 1.698-3.396-.156-19.5-4-19.5l-5-1c0 5.733 7.631 14.239 4 21.5-6.394 12.788-11.961 49.5-32 49.5v1ZM65 239l-5 3c-4.11 0-12.257-9.014-14-12.5-4.206-8.412-7.855-16.71-12-25-2.913-5.825-3.097-13.194-6-19-3.115-6.23 4-13.901 4-17.5h5c0 .852-3.363 12.227-4 13.5-.896 1.791 1.184 8.368 2 10 4.611 9.223 5.365 20.73 10 30 2.297 4.593 7.524 11.012 12.5 13.5 1.456.728 7.5 1.87 7.5 4Z"/><path fill="#FF64FF" id="MB" d="M223 171h1l-1-1v1ZM223 171l-1 2 1-2Z"/><path fill="#FFA4FF" id="CLI" d="M237 179c0 7.164-.585 13.958-8.5 10-1.555-.777-3.482 3.259-6 2-3.451-1.726-3.5-7.543-3.5-11v-1l1-2v-1l1-1v-1l1-1 1-2h10l2 2 1 3 1 1v2Z"/><path fill="#FF64FF" id="MB" d="m233 171 2 2-2-2Z"/><path fill="#FD8FFF" id="RR" d="m188 187-7 3c-5.62 0-11-6.765-11-12 0-8.9 22-2.923 22 6l-3 2-1 1Z"/><path fill="#FF64FF" id="MB" d="m222 173-1 1 1-1Z"/><path fill="#FD8FFF" id="RR" d="m269 187 7 3c5.291 0 10-6.825 10-12 0-9.508-21-2.928-21 6l4 3Z"/><path fill="#FF8FFD" id="MRN" d="m213 174-1 1 1-1ZM212 175l-1 1 1-1Z"/><path fill="#FF64FF" id="MB" d="m221 175-1 1 1-1Z"/><path fill="#C7C8CC" id="alv" d="M63 176c1.427 0 4 11.185 4 13-2.12 0-4-10.856-4-13Z"/><path fill="#FF64FF" id="MB" d="m236 176 1 1-1-1ZM220 177l-1 2 1-2ZM210 178l-1 1 1-1ZM236 208h11c0-4.227.182-16.841 4.5-19 2.555-1.278 4.516 2 6.5 2 0-8.731 4.51-4 11-4l-4-3c-3.997 0-9.161.67-12.5-1-2.489-1.245-3.775-5-6.5-5l3 4.5c1 2-.233 8.133-3.5 6.5-2.876-1.438-2.777-11-6.5-11 0 2.729-.423 1-2 1 0 7.164-.585 13.958-8.5 10-1.555-.777-3.482 3.259-6 2-3.451-1.726-3.5-7.543-3.5-11-1.747 0-2-.253-2-2-2.727 0-3.485 9.492-6.5 11-2.043 1.022-4.339-3.821-3.5-5.5l2-4.5-5.5 4c-3.109 1.555-7.768 1-11.5 1l-3 2c7.238 0 10-1.666 10 5 2.752 0 5.362-4.776 8 .5l2 12c0 1.19-.614 4.5 1 4.5 3.642 0 8.002 1 11 1v-8l1-1v-1c-1.37 0-1.586-4.457-.5-5 3.092-1.546 12.468-2.564 14.5 1.5l-1 3.5v7l1 2Z"/><path fill="#C7C8CC" id="alv" d="M393 178c-1.473 0-1 1.952-1 3 1.473 0 1-1.952 1-3ZM392 181c-1.473 0-1 1.952-1 3 1.473 0 1-1.952 1-3ZM391 185c-1.638 0-2 3.576-2 5 1.638 0 2-3.576 2-5Z"/><path fill="#FF8DFD" id="SNr" d="M153 186c0 2.796-1.54 6.42 0 9.5 5.412 10.825 24.051 6.102 18-6-1.818-3.636-7.675-1.088-10.5-2.5-2.375-1.187-4.619-1-7.5-1Z"/><path fill="#FF64FF" id="MB" d="m189 186-1 1 1-1Z"/><path fill="#C8C8CB" id="rust" d="M183 205c0 1.238-.423 3-2 3-2.262 0-1.105 1.198-3.5 0-13.403-6.702 3.5-13.977 3.5-18l7-3 1-1c7.238 0 10-1.666 10 5h-1l-1 1c-2.079 0-3.187 3-6 3-5.605 0-8 4.855-8 10ZM273 204c0 1.465-.109 4 2 4 7.361 0 11.046-4.407 7-12.5-1.144-2.288-6-1.99-6-5.5l-7-3c-6.49 0-11-4.731-11 4 2.584 0 4.518 4 8 4 5.245 0 7 4.376 7 9Z"/><path fill="#FF8DFD" id="SNr" d="M297 186c0 1.215-8.208 1.354-9.5 2-3.627 1.814-3.288 11.356 0 13 11.822 5.911 25.635-15 9.5-15Z"/><path fill="#FFC295" id="PRNr" d="M199 231h1c0-1.064 10.498-1.495 12-4.5 2.464-4.928-2-13.644-2-18.5-1.614 0-1-3.31-1-4.5l-2-12c-2.638-5.276-5.248-.5-8-.5h-1l-1 1c-2.079 0-3.187 3-6 3l-4 2.5-4 7.5c0 1.238-.423 3-2 3l-1 5c0 4.529 3.267 15.883 7.5 18H199ZM256 231h12.5c4.024-2.012 8.5-13.962 8.5-18l-2-5c-2.109 0-2-2.535-2-4-1.845 0-1.441-3.381-2-4.5l-5-4.5c-3.482 0-5.416-4-8-4-1.984 0-3.945-3.278-6.5-2-4.318 2.159-4.5 14.773-4.5 19 0 5.921-5.036 13.429-2 19.5 1.312 2.623 11 1.966 11 3.5Z"/><path fill="#C7C8CC" id="alv" d="m67 190 2 4-2-4Z"/><path fill="#FF64FF" id="MB" d="m198 191-1 1 1-1Z"/><path fill="#C7C8CC" id="alv" d="m389 191-1 2 1-2Z"/><path fill="#FFA6FF" id="IF" d="M234 199h1l1-3.5c-2.032-4.064-11.408-3.046-14.5-1.5-1.086.543-.87 5 .5 5l4-1c0-1.566 5-1.566 5 0l3 1Z"/><path fill="#C7C8CC" id="alv" d="m388 193-1 2 1-2ZM69 195c1.577 0 2 1.762 2 3-1.577 0-2-1.762-2-3Z"/><path fill="#FF64FF" id="MB" d="M191 195c-5.605 0-8 4.855-8 10l4-7.5 4-2.5ZM266 195c5.245 0 7 4.376 7 9-1.845 0-1.441-3.381-2-4.5l-5-4.5Z"/><path fill="#C7C8CC" id="alv" d="m387 195-1 2 1-2Z"/><path fill="#FF64FF" id="MB" d="M230 198h1c0-1.566-5-1.566-5 0h4Z"/><path fill="#C7C8CC" id="alv" d="m386 197-1 2 1-2Z"/><path fill="#FEA4FF" id="IPDM" d="m221 204 1 1c3.207 0 4-4.706 4-7l-4 1v1l-1 1v3Z"/><path fill="#FEA6FE" id="IPA" d="M235 205v1c0 1.506-4.055 3.722-5.5 3l-1-2c-1.75 0-6.5 3.859-6.5-2 3.207 0 4-4.706 4-7h4c0 2.592 1.88 7 5 7Z"/><path fill="#FEA4FF" id="IPDM" d="M235 200v5c-3.12 0-5-4.408-5-7h1l3 1 1 1Z"/><path fill="#C7C8CC" id="alv" d="m71 199 2 3c-1.577 0-2-1.762-2-3Z"/><path fill="#FFA6FE" id="IPN" d="M235 199v1l-1-1h1ZM222 200l-1 1 1-1Z"/><path fill="#C7C8CC" id="alv" d="M384 201h1v-1l-1 1ZM383 203h1v-2l-1 2Z"/><path fill="#C8CBCC" id="ec" d="m385 201-1 2v-2h1Z"/><path fill="#C7C8CC" id="alv" d="m73 203 6 8c-1.803 0-6-6.495-6-8ZM382 205h1v-2l-1 2Z"/><path fill="#C8CBCC" id="ec" d="m384 203-1 1v-1h1Z"/><path fill="#FFA6FE" id="IPN" d="m224 225-1-4.5c1.368-2.735 8.864-3.273 10-1 .978 1.956-1 4.077-1 5.5 2.601 0 5-1.04 5-4v-10c-1.473 0-1-1.952-1-3l-1-2c0 1.506-4.055 3.722-5.5 3l-1-2c-1.75 0-6.5 3.859-6.5-2l-1-1v5l-1 1v1c0 1.406.714 7-1 7v2c1.595 0 .749 5 5 5Z"/><path fill="#C7C8CC" id="alv" d="M381 206h1v-1l-1 1Z"/><path fill="#C8CBCC" id="ec" d="m383 205-1 1v-1h1ZM382 206l-1 1v-1h1Z"/><path fill="#C7C8CC" id="alv" d="M380 208h1v-1l-1 1Z"/><path fill="#FF9B88" id="P" d="M175 273c0 2.521 17.215 7 20.5 7 12.439 0 33.742-5.629 43-1 5.219 2.609 13.668-1.666 19 1 3.224 1.612 19.5-3.604 19.5-5l-6-.5 5-6c3.838-3.838 12-11.172 12-16.5-5.498 0-8.489-13.522-6-18.5l4-8.5c0-5.382-2.661-12-9-12 0 4.038-4.476 15.988-8.5 18H257c0 1.781 6.197 1.348 7.5 2l10.5 5 4.5-1c3.407 1.703.947 22.606-.5 25.5-5.747 11.494-18.796 12.5-30.5 12.5-4.555 0-11.033 1.433-13.5-3.5-5.944-11.889-4-16.625-4-29.5v-9.5c2.857-5.715 19.806-1.5 25-1.5 0-1.534-9.688-.877-11-3.5-3.036-6.071 2-13.579 2-19.5h-11c0 1.048-.473 3 1 3 0-1.184 4.277.054 5 1.5 1.102 2.205-3.179 8.5-5 8.5 0 2.96-2.399 4-5 4h-8c-4.251 0-3.405-5-5-5 0 2.985-6.74-7.38-3.5-9 4.523-2.261 3.5 4.614 3.5 7 1.714 0 1-5.594 1-7-1.186 0-1.186-1 0-1l1-1c-2.998 0-7.358-1-11-1 0 4.856 4.464 13.572 2 18.5-1.502 3.005-12 3.436-12 4.5 3.797 0 23.705-2.09 25 .5l1 9.5c0 8.966 2.291 29.105-7.5 34h-8c-12.568 0-27.359-.217-33.5-12.5-1.297-2.594-1.904-24.298.5-25.5 2.116-1.058 2.898 2 4.5 2 0-3.972 10.989-5.744 13.5-7 1.046-.523 3.5.951 3.5-1h-11.5c-4.233-2.117-7.5-13.471-7.5-18-3.882 0-7.363 3.226-9 6.5-.619 1.238 1.144 5.5-1 5.5 0 5.86 9.196 10.107 3 22.5-1.24 2.481.202 4.5-4 4.5 0 5.675 7.573 13.073 11.5 17 1.552 1.552 7.224 4.388 4 6-3.325 1.662-6.853-2-9.5-2Z"/><path fill="#C7C8CC" id="alv" d="M379 209h1v-1l-1 1Z"/><path fill="#C8CBCC" id="ec" d="m381 208-1 1v-1h1Z"/><path fill="#C7C8CC" id="alv" d="M378 211h1v-2l-1 2Z"/><path fill="#C8CBCC" id="ec" d="m380 209-1 1v-1h1Z"/><path fill="#FFC393" id="CS" d="M220 210c-1.186 0-1.186 1 0 1v-1ZM237 211v10c1.821 0 6.102-6.295 5-8.5-.723-1.446-5-2.684-5-1.5ZM219 218v2c0 2.985-6.74-7.38-3.5-9 4.523-2.261 3.5 4.614 3.5 7Z"/><path fill="#C7C8CC" id="alv" d="M377 212h1v-1l-1 1Z"/><path fill="#C8CBCC" id="ec" d="m379 211-1 1v-1h1Z"/><path fill="#C7C8CC" id="alv" d="M98 230v1c-2.773 0-3.67-4-6-4l-1-1-1-1-1-1-1-1-1-1-3-3-1-1-3-4-1-1v-1c2.747 0 13.66 18 19 18ZM377 213l-2 2c0-1.238.423-3 2-3v1Z"/><path fill="#C8CBCC" id="ec" d="m378 212-1 1v-1h1ZM79 213l1 1-1-1Z"/><path fill="#C9C9CB" id="ll" fill-rule="evenodd" d="M157 220c0 4.037 8.19 24.155 12.5 22 5.718-2.859-5.024-22-12.5-22m13 5c0 5.86 9.196 10.107 3 22.5-1.24 2.481.202 4.5-4 4.5-2.767 0-3.198-5.698-4.5-7-1.502-1.502-13.5-24.221-13.5-26 0-1.429 1.288-4 3-4l1-1 4.5-1 7.5 7.5 3 4.5ZM295 220c0 2.11-15.272 18.114-7.5 22l4.5-3.5c2.255-4.511 13.491-18.5 3-18.5m-9 5-4 8.5c-2.489 4.978.502 18.5 6 18.5 0-2.101 12.29-22.081 14-25.5l4-7.5-3-4c-3.256 0-3.483-3.009-7.5-1l-9.5 11Z"/><path fill="#33B931" id="HATA" d="m117 245 2 1c2.518 0 6-19.093 6-23 0-2.483-2-4.026-2-6v-1l-1-1-1-1c-5.081 0-17.047 16-23 16v1l1 1 6 6 4 2 4 3c1.465 0 4-.109 4 2Z"/><path fill="#FF64FF" id="MB" d="m155 214-1 1 1-1Z"/><path fill="#33B931" id="HATA" d="m339 245-2 1c0-5.3-6-14.777-6-24l2-5 3-3c0 1.76 4.288 3.394 5.5 4 5.522 2.761 11.073 12 17.5 12v1l-1 1-1 1-6 5-3 2-4 2-5 3Z"/><path fill="#7DCD4B" id="HPF" d="m122 215 1 1-1-1Z"/><path fill="#C7C8CC" id="alv" d="M373 217h1l1-2-2 2Z"/><path fill="#7DCD4B" id="HPF" d="M127 218c0 1.041-.986 5-2 5 0-2.483-2-4.026-2-6l4 1ZM129 217l-1 1 1-1ZM329 218l2 4 2-5-4 1Z"/><path fill="#C7C8CC" id="alv" d="M371 219h1l1-1v-1l-2 2Z"/><path fill="#7DCD4B" id="HPF" d="m374 217-1 1v-1h1Z"/><path fill="#C8CBCC" id="ec" d="m83 218 1 1-1-1Z"/><path fill="#FFA5FE" id="IPC" d="M224 225h8c0-1.423 1.978-3.544 1-5.5-1.136-2.273-8.632-1.735-10 1l1 4.5Z"/><path fill="#F0F080" id="CB" d="m150 251-2 3c0-2.375-3.855-9.21-5-11.5l-6-4.5c13.122 0 .795-15.09 2-17.5.272-.545 7.592-1.5 10-1.5 0 1.833-3.893 5.286-5 7.5-.57 1.14-.263 6.5 1 6.5v4c0 2.722 1.859 13 5 13v1Z"/><path fill="#CCCCCA" id="mcp" d="M173 273h2c2.647 0 6.175 3.662 9.5 2 3.224-1.612-2.448-4.448-4-6-3.927-3.927-11.5-11.325-11.5-17-2.767 0-3.198-5.698-4.5-7-1.502-1.502-13.5-24.221-13.5-26h-2c0 1.833-3.893 5.286-5 7.5-.57 1.14-.263 6.5 1 6.5 0-2.911 5.47 2.441 6 3.5v9c.869 1.737 6.009 4.982 5 7-1.376 2.752-2.426.5-4 .5 0 5.773 15 10.82 15 16h1l2 2h1l2 2ZM280 274c-1.048 0-3-.473-3 1l-6-.5 5-6c3.838-3.838 12-11.172 12-16.5 0-2.101 12.29-22.081 14-25.5l4-7.5h1l5 6.5c1.988 3.976-2.283 23.5-5 23.5 0-6.237 1.483-7.465 4-12.5l-.5-4.5-5.5 4.5v10l-5 6 3 1.5-4 6-1 1-1 1-1 1-1 1-1 1h-1l-2 2-1 1-1 1-2 1-1 1-2 1-1 1h-1l-2 1Z"/><path fill="#F0F080" id="CB" d="m306 252 2 2c2.045 0 4.174-8.848 5-10.5l6-5.5c-11.399 0-.73-14.959-2-17.5-.46-.919-7.417-1.5-10-1.5l5 6.5c1.988 3.976-2.283 23.5-5 23.5v1l-1 1v1Z"/><path fill="#C7C8CC" id="alv" d="M369 221h1l1-1v-1l-2 2Z"/><path fill="#C8CBCC" id="ec" d="m372 219-1 1v-1h1Z"/><path fill="#FFAC6F" id="NLL" d="M157 220c0 4.037 8.19 24.155 12.5 22 5.718-2.859-5.024-22-12.5-22ZM295 220c0 2.11-15.272 18.114-7.5 22l4.5-3.5c2.255-4.511 13.491-18.5 3-18.5Z"/><path fill="#C7C8CC" id="alv" d="M368 223h1v-2l-2 2h1Z"/><path fill="#7DCD4B" id="HPF" d="m370 221-1 1v-1h1ZM87 223h1l-1-1v1Z"/><path fill="#32B623" id="ENTm6" d="m99 232 6 6c-5.094 0-23-6.622-23-12v-1l5-2h1l1 1 1 1 1 1 1 1c2.33 0 3.227 4 6 4l1 1Z"/><path fill="#C7C8CC" id="alv" d="M365 225h1l1-1v-1l-2 2Z"/><path fill="#7DCD4B" id="HPF" d="m368 223-1 1v-1h1Z"/><path fill="#32B623" id="ENTm6" d="m357 233-6 5c5.249 0 23-5.576 23-12 0-1.803-3.592-3-5-3h-1l-1 1-1 1-1 1-2 1c0 1.747-.253 2-2 2l-2 2-1 1-1 1Z"/><path fill="#7DCD4B" id="HPF" d="m89 224 1 1-1-1Z"/><path fill="#C7C8CC" id="alv" d="m365 226-2 1 2-2v1Z"/><path fill="#7DCD4B" id="HPF" d="m366 225-1 1v-1h1Z"/><path fill="#30B724" id="ENTm5" d="m105 238 4 2c0 2.812-11.871 4.314-14.5 3-4.011-2.006-8.604-3.604-12-7l-6.5-6v-1c2.813 0 3.921-3 6-3 0 5.378 17.906 12 23 12Z"/><path fill="#7DCD4B" id="HPF" d="m91 226 1 1-1-1Z"/><path fill="#30B724" id="ENTm5" d="m351 238-3 2c0 3.171 7.1 3 9.5 3 4.751 0 22.5-8.059 22.5-13l-5-4h-1c0 6.424-17.751 12-23 12Z"/><path fill="#C7C8CC" id="alv" d="m363 227-2 2c1.747 0 2-.253 2-2ZM359 230v1l2-2-2 1Z"/><path fill="#31B723" id="ENTm3" d="m109 240 4 3c-5.871 0-13.96 7.77-21.5 4-3.963-1.981-18.34-12-21.5-12v-1l6-4 6.5 6c3.396 3.396 7.989 4.994 12 7 2.629 1.314 14.5-.188 14.5-3Z"/><path fill="#FEBA85" id="TRN" fill-rule="evenodd" d="M196 241c0 2.339-4.93 2.64-3 6.5 2.413 4.825 15.548 1.095 14-2l-7.5-2.5-3.5-2m25 2 1-6.5c-2.43-4.86-10.63-4.739-13 0-2.347 4.693 5 7.086 5 10.5-10.155 0-16.488 11.012-27.5 0-1.951-1.951-4.5-5.35-4.5-8 0-3.972 10.989-5.744 13.5-7 1.046-.523 3.5.951 3.5-1h1c3.797 0 23.705-2.09 25 .5l1 9.5c-1.624 0-2.75 2-5 2ZM259 241l-10 5.5c0 1.153 4.722 2.111 5.5 2.5 8.755 4.377 12.276-8 4.5-8m-23 3c0-2.014-2.284-5.932-1-8.5 1.767-3.534 10.233-3.534 12 0 2.707 5.414-5 7.812-5 11.5 8.288 0 22.231 12.038 29-1.5 1.07-2.139 4-5.078 4-7.5l-10.5-5c-1.303-.652-7.5-.219-7.5-2h-1c-5.194 0-22.143-4.215-25 1.5v9.5l5 2Z"/><path fill="#31B723" id="ENTm3" d="m348 240-4 2c0 1.615 5.22 3.36 6.5 4 9.371 4.686 20.54-2.27 28-6l7.5-5v-1l-5-4h-1c0 4.941-17.749 13-22.5 13-2.4 0-9.5.171-9.5-3Z"/><path fill="#7DCD4B" id="HPF" d="m98 231 1 1-1-1ZM359 231l-1 1 1-1Z"/><path fill="#CCCBCA" id="moV" d="m150 251 2 2c1.574 0 2.624 2.252 4-.5 1.009-2.018-4.131-5.263-5-7v-9c-.53-1.059-6-6.411-6-3.5v4c4.306 0 5 10.038 5 13v1ZM306 252l-3 2-3-1.5 5-6v-10l5.5-4.5.5 4.5c-2.517 5.035-4 6.263-4 12.5v1l-1 1v1Z"/><path fill="#7DCD4B" id="HPF" d="m358 232-1 1 1-1Z"/><path fill="#CACCC8" id="ml" d="M221 243c0 1.801-5.615 4-7 4 0-3.414-7.347-5.807-5-10.5 2.37-4.739 10.57-4.86 13 0l-1 6.5ZM236 244l6 3c0-3.688 7.707-6.086 5-11.5-1.767-3.534-10.233-3.534-12 0-1.284 2.568 1 6.486 1 8.5Z"/><path fill="#30B824" id="ENTm2" d="M113 243c1.465 0 4-.109 4 2-2.548 0-7.778 5.639-10.5 7-7.42 3.71-23.514-3.757-30-7-1.879-.939-10.5-3.37-10.5-6l4-4c3.16 0 17.537 10.019 21.5 12 7.54 3.77 15.629-4 21.5-4ZM344 242l-5 3c3.165 0 7.642 5.571 10.5 7 8.833 4.416 26.472-5.236 34-9 1.35-.675 7.5-2.239 7.5-4v-1l-5-3-7.5 5c-7.46 3.73-18.629 10.686-28 6-1.28-.64-6.5-2.385-6.5-4Z"/><path fill="#CCCCCA" id="mcp" d="M145 237c4.306 0 5 10.038 5 13-3.141 0-5-10.278-5-13Z"/><path fill="#FFB885" id="PG" d="M221 243c0 1.801-5.615 4-7 4-10.155 0-16.488 11.012-27.5 0-1.951-1.951-4.5-5.35-4.5-8-1.602 0-2.384-3.058-4.5-2-2.404 1.202-1.797 22.906-.5 25.5 6.141 12.283 20.932 12.5 33.5 12.5h8c9.791-4.895 7.5-25.034 7.5-34-1.624 0-2.75 2-5 2ZM236 244l6 3c8.288 0 22.231 12.038 29-1.5 1.07-2.139 4-5.078 4-7.5l4.5-1c3.407 1.703.947 22.606-.5 25.5-5.747 11.494-18.796 12.5-30.5 12.5-4.555 0-11.033 1.433-13.5-3.5-5.944-11.889-4-16.625-4-29.5l5 2Z"/><path fill="#CACACB" id="sV" d="m148 254 3 5c0 12.397-18.192 11.116-21 5.5-3.54-7.079-3.529-11.943 0-19 2.061-4.122.746-7.5 7-7.5l6 4.5c1.145 2.29 5 9.125 5 11.5ZM308 254l-3 5c0 17.732 32.909 9.318 22-12.5-2.497-4.993-.832-8.5-8-8.5l-6 5.5c-.826 1.652-2.955 10.5-5 10.5Z"/><path fill="#31B625" id="ENTm1" d="M99 259c0-1.186 1-1.186 1 0 5.606 0 19-6.144 19-13l-2-1c-2.548 0-7.778 5.639-10.5 7-7.42 3.71-23.514-3.757-30-7-1.879-.939-10.5-3.37-10.5-6h-1l-5 3c0 1.996 6.945 4.222 8.5 5 8.219 4.109 21.03 12 30.5 12ZM356 259c0-1.399 2-1.399 2 0 10.163 0 20.841-7.671 29.5-12 1.555-.778 8.5-3.004 8.5-5l-5-3c0 1.761-6.15 3.325-7.5 4-7.528 3.764-25.167 13.416-34 9-2.858-1.429-7.335-7-10.5-7l-2 1c0 6.123 13.273 13 19 13Z"/><path fill="#C8C7CC" id="cst" d="M196 241c0 2.339-4.93 2.64-3 6.5 2.413 4.825 15.548 1.095 14-2l-7.5-2.5-3.5-2ZM259 241l-10 5.5c0 1.153 4.722 2.111 5.5 2.5 8.755 4.377 12.276-8 4.5-8Z"/><path fill="#CCCCCA" id="mcp" d="m307 250-1 1 1-1Z"/><path fill="#FF9B88" id="P" d="M151 259c7.524 0 12.312 10 16 10 0-5.18-15-10.227-15-16l-2-2-2 3 3 5ZM305 259l-6 1 4-6 3-2 2 2-3 5Z"/><path fill="#60E6B5" id="COApm" d="M99 259h1c0-1.186-1-1.186-1 0ZM356 259h2c0-1.399-2-1.399-2 0Z"/><path fill="#FF9B88" id="P" d="m299 260-1 1 1-1ZM298 261l-1 1 1-1ZM297 262l-1 1 1-1ZM296 263l-1 1 1-1ZM295 264l-1 1 1-1ZM293 265l-2 2c1.747 0 2-.253 2-2ZM291 267l-1 1 1-1ZM290 268l-1 1 1-1ZM168 269l2 2-2-2ZM289 269l-2 1 2-1ZM287 270l-1 1 1-1ZM171 271l2 2-2-2ZM286 271l-2 1 2-1ZM284 272l-1 1 1-1ZM282 273l-2 1 2-1ZM280 274c-1.048 0-3-.473-3 1 1.048 0 3 .473 3-1Z"/></svg>