<svg xmlns="http://www.w3.org/2000/svg" viewBox="0 0 456 320"><path fill="#1BA598" id="RSPd1" d="M218 20h1l2-1c0-2.835-3.038-2.575-4-4.5C211.832 4.164 196.223 8 186 8l1 5c6.256 0 31-3.374 31 7ZM236 18l2 2c0-10.265 25.391-7 31-7l1-5c0-1.758-7.884-1-9.5-1-5.833 0-24.5 2.931-24.5 11Z"/><path fill="#1BA696" id="RSPagl1" d="M187 13c-4.569 0-9.062 3-14 3l-1-5c2.776 0 10.389-3 14-3l1 5ZM269 13l15 3 1-5c-2.473 0-11.301-3-15-3l-1 5Z"/><path fill="#09848B" id="VISam1" d="M173 16c-7.372 0-14.963 4-22 4 0-2.523-2-1.96-2-5 7.837 0 14.762-4 23-4l1 5ZM305 20h1l1-5c-7.495 0-14.231-4-22-4l-1 5c6.893 0 14.424 4 21 4Z"/><path fill="#1BA697" id="RSPd2/3" d="M187 21c4.948 0 13.828-4.836 19.5-2l7.5 4c1.429 0 4-1.288 4-3 0-10.374-24.744-7-31-7v8ZM242 24h1c0-8.805 22.709-3 26-3v-8c-5.609 0-31-3.265-31 7l4 4Z"/><path fill="#1AA496" id="RSPagl2/3" d="M174 24v1c4.875 0 8.125-4 13-4v-8c-4.569 0-9.062 3-14 3l1 8ZM283 24l-1 1c-4.881 0-7.985-4-13-4v-8l15 3c0 2.097-1 5.293-1 8Z"/><path fill="#019FAC" id="VISa1" d="M117 26c1.477 0 3 3.924 3 5 7.058 0 22.065-11 31-11 0-2.523-2-1.96-2-5-4.84 0-18.897 5.698-23.5 8-1.324.662-8.5 1.508-8.5 3ZM339 26l-2 5c-6.913 0-22.707-11-31-11l1-5c5.437 0 19.47 5.485 24.5 8 1.272.636 7.5 1.45 7.5 3Z"/><path fill="#0B848A" id="VISam2/3" d="M153 29h2c6.463 0 12.26-5 19-5l-1-8c-7.372 0-14.963 4-22 4 0 3.489 2 5.32 2 9ZM283 24l19 5c0-2.86 3-5.58 3-9-6.576 0-14.107-4-21-4 0 2.097-1 5.293-1 8Z"/><path fill="#1BA597" id="RSPv1" d="M229 64h3V30.5l6-10.5-2-2-7.5 11-7.5-10-2 1 6 12.5V64h2c0-5.32 2-5.498 2 0Z"/><path fill="#1AA596" id="RSPd5" d="M206 33h1c0-1.662 5.179-9 7-9v-1l-7.5-4c-5.672-2.836-14.552 2-19.5 2v11c2.161 0 19-6.915 19 1ZM251 33c0-9.16 16.963 0 19 0l-1-12c-3.291 0-26-5.805-26 3l7 9h1Z"/><path fill="#009EAB" id="VISa2/3" d="m120 31 3 8c4.29 0 18.282-5.89 22.5-8 1.471-.736 7.5.357 7.5-2 0-3.68-2-5.511-2-9-8.935 0-23.942 11-31 11Z"/><path fill="#1AA597" id="RSPv2/3" d="M221 64h4V32.5L219 20h-1c0 1.712-2.571 3-4 3v1c2.535 0 3.161 6.822 4 8.5 2.353 4.706 3 24.658 3 30.5v1ZM232 64h4v-1l1-27.5c.573-1.147 5-11.142 5-11.5l-4-4-6 10.5V64Z"/><path fill="#009EAB" id="VISa2/3" d="m337 31-3 8c-9.388 0-21.954-10-32-10 0-2.86 3-5.58 3-9h1c8.293 0 24.087 11 31 11Z"/><path fill="#1CA697" id="RSPagl5" d="M187 33c-3.843 0-6.746 4-11 4l-2-11v-1c4.875 0 8.125-4 13-4v12ZM280 37h1l1-11v-1c-4.881 0-7.985-4-13-4l1 12 10 4Z"/><path fill="#09858A" id="VISam4" d="M155 29v3l19-6v-2c-6.74 0-12.537 5-19 5Z"/><path fill="#1BA498" id="RSPv5" d="M212 59c2.951 0 5.088 4 9 4 0-5.842-.647-25.794-3-30.5-.839-1.678-1.465-8.5-4-8.5-1.821 0-7 7.338-7 9 0 9.103 5 20.07 5 26ZM244 59c-2.584 0-4.518 4-8 4l1-27.5c.573-1.147 5-11.142 5-11.5h1l7 9c0 8.39-5 16.996-5 25l-1 1Z"/><path fill="#09858A" id="VISam4" d="m302 29-1 3c-6.346 0-12.584-6-19-6v-1l1-1 19 5Z"/><path fill="#029FAB" id="VISrl1" d="m98 36 3 3c6.327 0 12.175-8 19-8 0-1.076-1.523-5-3-5-2.168 0-19 8.825-19 10Z"/><path fill="#0A848B" id="VISam5" d="M176 37c-5.411 0-10.833 4-17 4l-4-9 19-6 2 11ZM297 41h1c0-3.42 3-6.14 3-9-6.346 0-12.584-6-19-6l-1 11c0 1.92 13.657 4 16 4Z"/><path fill="#029FAB" id="VISrl1" d="m359 36-3 3c-6.628 0-12.113-8-19-8l2-5c2.547 0 20 9.109 20 10Z"/><path fill="#019EAC" id="VISa4" d="m123 39 2 4c10.127 0 19.575-11 30-11v-3h-2c0 2.357-6.029 1.264-7.5 2-4.218 2.11-18.21 8-22.5 8Z"/><path fill="#1AA697" id="RSPd6a" d="M189 43c0-4.085 8.68 0 10 0l7-10c0-7.915-16.839-1-19-1v1c0 3.325 1 7.31 1 10h1ZM268 43h1l1-10c-2.037 0-19-9.16-19 0 0 1.608 5.726 10 7 10h1c0-3.833 7.773 0 9 0Z"/><path fill="#019EAC" id="VISa4" d="M331 44h1l2-5c-9.388 0-21.954-10-32-10l-1 3c7.496 0 17.022 5.761 23.5 9 1.326.663 6.5 1.002 6.5 3Z"/><path fill="#029EAC" id="VISrl2/3" d="M106 47h1l16-8-3-8c-6.825 0-12.673 8-19 8v1c0 2.817 5 3.516 5 7ZM356 40c-1.898 0-6 4.973-6 7l-16-8 3-8c6.887 0 12.372 8 19 8v1Z"/><path fill="#019EAB" id="VISa5" d="m125 44 3 8c3.434 0 23.363-11 31-11l-4-9c-10.425 0-19.873 11-30 11v1ZM328 52h1c0-3.227 2-4.574 2-8 0-1.998-5.174-2.337-6.5-3-6.478-3.239-16.004-9-23.5-9 0 2.86-3 5.58-3 9 7.272 0 17.196 4.848 23.5 8 1.139.57 6.5 1.675 6.5 3Z"/><path fill="#1CA597" id="RSPagl6a" d="m184 45-7 1-1-9c4.254 0 7.157-4 11-4 0 3.325 1 7.31 1 10l-4 2Z"/><path fill="#1AA498" id="RSPv6a" d="m209 56 3 3c0-5.93-5-16.897-5-26h-1l-7 10v1c0 3.24 10 7.007 10 12ZM247 56l-2 2c0-8.004 5-16.61 5-25h1c0 1.608 5.726 10 7 10v1l-1 1-2 2c-1.577 0-2 1.762-2 3l-1 1-1 1-1 1-1 1-1 1-1 1Z"/><path fill="#1CA597" id="RSPagl6a" d="M269 43c3.641 0 5.885 3 10 3l1-9-10-4-1 10Z"/><path fill="#188060" id="SSp-bfd1" d="m66 59 3 3 7-5.5C81.353 51.148 93.535 40 101 40v-1l-3-3c-4.072 0-21.555 13.055-25 16.5L66 59ZM387 62h1l2-3-5-4.5c-1.192-2.385-22.89-18.5-26-18.5l-3 3v1c3.585 0 31 20.123 31 22Z"/><path fill="#0A828B" id="VISam6a" d="m177 46-16 1-2-6c6.167 0 11.589-4 17-4l1 9ZM294 47h1l2-6c-2.343 0-16-2.08-16-4h-1l-1 9 15 1Z"/><path fill="#019EAA" id="VISrl4" d="M107 47c0 2.314 1.331-.837 2 .5.579 1.158-.341 3.5 2 3.5l14-7v-1l-2-4-16 8ZM350 47c0 1.438-1.352-.148-2.5 1l-2.5 3c-4.436 0-8.43-7-13-7l2-5 16 8Z"/><path fill="#187F63" id="SSp-bfd2/3" d="m69 63 6 6 6.5-6c5.136-2.568 18.483-16 24.5-16 0-3.484-5-4.183-5-7-7.465 0-19.647 11.148-25 16.5L69 62v1ZM387 62c0 1.763-4.012 7-6 7l-8.5-8c-5.775-2.888-14.98-14-22.5-14 0-2.027 4.102-7 6-7 3.585 0 31 20.123 31 22Z"/><path fill="#009DAC" id="VISa6a" d="m135 57-4 1-3-6c3.434 0 23.363-11 31-11l2 6v1c-3.549 0-22 4.724-22 7-1.465 0-4-.109-4 2Z"/><path fill="#1BA698" id="RSPd6b" d="M198 44h1v-1c-1.32 0-10-4.085-10 0 3.013 0 6.611 1 9 1ZM268 43v1c-2.389 0-5.987-1-9-1 0-3.833 7.773 0 9 0Z"/><path fill="#009DAC" id="VISa6a" d="m328 52-3 6c-4.925 0-21.266-11-30-11l2-6h1c7.272 0 17.196 4.848 23.5 8 1.139.57 6.5 1.675 6.5 3Z"/><path fill="#1AA598" id="RSPagl6b" d="m188 44-4 1 4-2v1Z"/><path fill="#1BA698" id="RSPd6b" d="m189 43-1 1v-1h1Z"/><path fill="#CACCC7" id="cing" d="M221 63v1c-12.42 0-18.295-8.898-28.5-14-6.709-3.354-19.448 0-27.5 0h-9c0-1.684 4.679-1 6-1 5.5 0 9.257-2 15-2 1.851 0 7 .867 7-2l4-1 1-1c3.013 0 6.611 1 9 1l11 12 3 3c2.951 0 5.088 4 9 4Z"/><path fill="#1BA698" id="RSPd6b" d="M258 44h1v-1h-1v1Z"/><path fill="#CACCC7" id="cing" d="M236 63v1c11.769 0 18.772-9.136 28.5-14 6.384-3.192 18.743 0 26.5 0h10c0-1.714-5.594-1-7-1-5.5 0-9.257-2-15-2-4.366 0-7.381-3-11-3-2.389 0-5.987-1-9-1v1l-2 1c0 1.747-.253 2-2 2 0 1.238-.423 3-2 3l-1 1-1 1-1 1-1 1-1 1-1 1-2 2-1 1c-2.584 0-4.518 4-8 4Z"/><path fill="#1AA598" id="RSPagl6b" d="M279 46v1c-4.366 0-7.381-3-11-3v-1h1c3.641 0 5.885 3 10 3Z"/><path fill="#019DAB" id="VISrl5" d="M117 58h1c0-1.054 8.699-6 10-6l-3-8-14 7v1l6 6Z"/><path fill="#1AA497" id="RSPv6b" d="M199 44c0 3.24 10 7.007 10 12l-11-12h1ZM259 44l-2 1 1-1h1Z"/><path fill="#019DAB" id="VISrl5" d="M345 52c-3.005 0-3.171 5-6 5-1.779 0-10-3.465-10-5 0-3.227 2-4.574 2-8h1c4.57 0 8.564 7 13 7v1Z"/><path fill="#1AA598" id="RSPagl6b" d="M177 46v1c1.851 0 7 .867 7-2l-7 1Z"/><path fill="#1AA497" id="RSPv6b" d="m257 45-2 2c1.747 0 2-.253 2-2Z"/><path fill="#08838A" id="VISam6b" d="m161 48 1 1c5.5 0 9.257-2 15-2v-1l-16 1v1ZM294 47v2c-5.5 0-9.257-2-15-2v-1l15 1Z"/><path fill="#197C64" id="SSp-bfd4" d="M75 70c3.005 0 3.171 5 6 5 3.101 0 24.99-23 30-23v-1c-2.341 0-1.421-2.342-2-3.5-.669-1.337-2 1.814-2-.5h-1c-6.017 0-19.364 13.432-24.5 16L75 69v1Z"/><path fill="#1AA497" id="RSPv6b" d="M255 47c-1.577 0-2 1.762-2 3 1.577 0 2-1.762 2-3Z"/><path fill="#029FAC" id="VISa6b" d="M325 58v1c-8.026 0-15.394-9-24-9 0-1.714-5.594-1-7-1v-2h1c8.734 0 25.075 11 30 11Z"/><path fill="#197C64" id="SSp-bfd4" d="M375 76h1l5-6v-1l-8.5-8c-5.775-2.888-14.98-14-22.5-14 0 1.438-1.352-.148-2.5 1l-2.5 3v1c2.291 0 22.873 16.246 24 18.5l6 5.5Z"/><path fill="#029FAC" id="VISa6b" d="M156 50c-6.066 0-10.852 5-17 5 0-2.276 18.451-7 22-7l1 1c-1.321 0-6-.684-6 1Z"/><path fill="#C7CACC" id="ccs" d="M91 111c-3.68 0-5.776 11.053-7 13.5-.523 1.046.951 3.5-1 3.5 0-28.715 25.37-52.935 49.5-65 6.954-3.477 15.408-11 23.5-11 1.013 0 9-1.208 9-2 8.052 0 20.791-3.354 27.5 0 10.205 5.102 16.08 14 28.5 14h15c11.769 0 18.772-9.136 28.5-14 6.384-3.192 18.743 0 26.5 0 0 .792 7.987 2 9 2 6.847 0 14.59 6.045 20.5 9 24.051 12.026 52.5 35.59 52.5 65-2.759 0-3.159-16-8-16v-1l-1-1c0-5.703-8.508-11.516-11-16.5-8.143-16.287-40.346-36.5-61-36.5h-7l-8 1c0-2.422-3.753-.374-4.5 0-4.265 2.132-7.551 6.776-12 9-9.374 4.687-19.789 11-32 11-6.698 0-18.161-2.08-24-5l-11-8c-2.475-1.238-4.702-4.351-8-6-.737-.369-6.5-4.094-6.5-1-2.097 0-5.293-1-8-1h-6c-2.264 0-12-.627-12 2-1.623 0-6 .005-6 2-1.831 0-9 2.183-9 4-1.572 0-7 2.052-7 4-1.417 0-6 2.383-6 4-1.429 0-4 1.288-4 3l-1 1c-1.238 0-3 .423-3 2l-2 2-1 1-1 1c-1.747 0-2 .253-2 2-1.747 0-2 .253-2 2-1.747 0-2 .253-2 2-1.712 0-3 2.571-3 4-1.712 0-3 2.571-3 4-1.577 0-2 1.762-2 3-1.577 0-2 1.762-2 3l-1 2-1 2c-2.275 0-4 3.756-4 6Z"/><path fill="#CBC9C7" id="or" d="m72 143 1 7c.84 0 8.273-19 10-19v-3c0-28.715 25.37-52.935 49.5-65 6.954-3.477 15.408-11 23.5-11l1-2h-1c-6.066 0-10.852 5-17 5 0 2.109-2.535 2-4 2l-4 3c0 1.58-2.855 1-4 1 0 2.294-.997 2-3 2l-5.5 5c-4.474 2.237-18.424 17-21.5 17 0 1.747-.253 2-2 2 0 1.429-1.288 4-3 4 0 1.442-3.274 6-5 6 0 3.794-6 6.572-6 10v1l-1 1-5 10-1 6c0 1.048.473 3-1 3v1c5.437 0-1 10.314-1 14Z"/><path fill="#C9C9CA" id="scwm" d="M165 50c0 .792-7.987 2-9 2l1-2h8Z"/><path fill="#1AA497" id="RSPv6b" d="m253 50-1 1 1-1Z"/><path fill="#C9C9CA" id="scwm" d="M300 50v2c-1.013 0-9-1.208-9-2h9Z"/><path fill="#CBC9C7" id="or" d="m385 145-2 4c-1.232 0-8.111-19-10-19v-4c0-29.41-28.449-52.974-52.5-65-5.91-2.955-13.653-9-20.5-9v-2h1c8.606 0 15.974 9 24 9 0 1.504 5.699 4 7 4 0 2.528 7.435 4.936 9 6.5 4.773 4.773 13.351 13.425 17.5 15.5 3.159 1.58 3.036 6 6.5 6 0 4.668 6.026 7.552 8 11.5.608 1.216 1.184 5.5 3 5.5 0 5.438 6 10.228 6 16l1 1v4c-4.908 0 1 9.318 1 12 0 1.048-.473 3 1 3v1Z"/><path fill="#1AA497" id="RSPv6b" d="m252 51-1 1 1-1Z"/><path fill="#1A7D62" id="SSp-bfd5" d="m81 76 6 6 4.5-5c6.892-3.446 12.179-10.59 19-14l6.5-5-6-6c-5.01 0-26.899 23-30 23v1Z"/><path fill="#029EAB" id="VISrl6a" d="m127 61-4 1c-1.562 0-5-2.189-5-4 0-1.054 8.699-6 10-6l3 6v1l-4 2Z"/><path fill="#1AA497" id="RSPv6b" d="m251 52-1 1 1-1Z"/><path fill="#029EAB" id="VISrl6a" d="M333 63h1l5-5v-1c-1.779 0-10-3.465-10-5h-1l-3 6v1c1.7 0 8 2.46 8 4Z"/><path fill="#1A7D62" id="SSp-bfd5" d="M369 83h1c0-3.153 5-4.304 5-7l-6-5.5c-1.127-2.254-21.709-18.5-24-18.5-3.005 0-3.171 5-6 5v1c3.849 0 30 22.848 30 25Z"/><path fill="#1AA497" id="RSPv6b" d="m250 53-1 1 1-1ZM249 54l-1 1 1-1Z"/><path fill="#029FAC" id="VISa6b" d="M139 55c-1.465 0-4-.109-4 2 1.465 0 4 .109 4-2Z"/><path fill="#C7C8CC" id="alv" d="M165 55c-2.264 0-12-.627-12 2 1.712 0 12-.768 12-2Z"/><path fill="#7ECF4B" id="CA1" d="M96 103v2c6.357 0 21.892-8 32-8l7.5-7c6.572-3.286 24.284-14.358 33-10l13 5 12 8c3.062 1.531 4.509 6 7.5 6l4 1c6.251 0 11.032-4 12-4 0-3.982 2-6.704 2-11l-3-2h-2l-1-1h-1l-1-1h-1l-1-1h-1l-1-1h-1l-2-2h-1c-2.087 0-13.309-12.118-14-13.5l-5-4.5h-1l-1-1-3-1c-.981 0-8-1.184-8-2h-6c0 1.232-10.288 2-12 2 0 1.995-4.377 2-6 2 0 1.817-7.169 4-9 4 0 1.948-5.428 4-7 4 0 2.177-4.336 4-6 4 0 1.712-2.571 3-4 3l-1 1c0 1.577-1.762 2-3 2 0 1.747-.253 2-2 2l-1 1-1 1-2 2-2 2-2 2c0 1.429-1.288 4-3 4 0 1.429-1.288 4-3 4 0 1.238-.423 3-2 3 0 1.238-.423 3-2 3l-1 2Z"/><path fill="#C7C8CC" id="alv" d="M179 56v1c-.981 0-8-1.184-8-2 2.707 0 5.903 1 8 1Z"/><path fill="#C9CCC9" id="dhc" d="M240 83h2l1-1h1l1-1h2l1-1 1-1h1l1-1 2-1 1-1 1-1c0-2.576 11.645-13 14-13l1-1c0-1.577 1.762-2 3-2l2-1 1-1h1v-1c0-2.422-3.753-.374-4.5 0-4.265 2.132-7.551 6.776-12 9-9.374 4.687-19.789 11-32 11-6.698 0-18.161-2.08-24-5l-11-8c-2.475-1.238-4.702-4.351-8-6-.737-.369-6.5-4.094-6.5-1v1l3 1 1 1h1c1.952 0 19 17.005 19 18h1l2 2h1l1 1h1l1 1h1l1 1h1l1 1h26Z"/><path fill="#1AA497" id="RSPv6b" d="m248 55-1 1 1-1Z"/><path fill="#C7C8CC" id="alv" d="M277 56v1c1.257 0 8-.94 8-2l-8 1Z"/><path fill="#7ECF4B" id="CA1" d="m256 99-4 1c-2.37 0-13 .585-13-5l-2-10c1.238 0 3-.423 3-2h2l1-1h1l1-1h2l1-1 1-1h1l1-1 2-1 1-1 1-1c2.355 0 14-10.424 14-13l1-1c1.238 0 3-.423 3-2l2-1 1-1h1c1.257 0 8-.94 8-2h7c0 2.207 5.176.338 6.5 1l15 5c13.507 6.754 33.011 18.522 40.5 33.5 1.839 3.678 7 7.204 7 11.5l-5.5-3c-7.017-3.509-19.318-6-27.5-6 0-3.862-9.111-7.805-11.5-9-18.622-9.311-25.895-10.553-45-1L256 99Z"/><path fill="#C7C8CC" id="alv" d="M350 141c5.829 0 10 9.31 10 14 .665 0 2.46-7.421 3-8.5 3.563-7.126 5-13.371 5-22v-7l-3-7.5v-1l-1-1c0-5.703-8.508-11.516-11-16.5-8.143-16.287-40.346-36.5-61-36.5 0 2.207 5.176.338 6.5 1l15 5c13.507 6.754 33.011 18.522 40.5 33.5 1.839 3.678 7 7.204 7 11.5l2 4c0 4.002 3 8.448 3 13.5 0 46.506-34.993-12.5-51-12.5 0 2.746 9 2.6 9 6h1c2.395 0 15 14.182 15 15l10 9Z"/><path fill="#029FAC" id="VISa6b" d="M131 59v1l4-3-4 1v1Z"/><path fill="#C7C8CC" id="alv" d="M153 57c-1.623 0-6 .005-6 2 1.623 0 6-.005 6-2ZM276 57l-1 1 1-1Z"/><path fill="#198060" id="SSp-bfd6a" d="m95 87-3 2-5-6v-1l4.5-5c6.892-3.446 12.179-10.59 19-14l6.5-5h1c0 1.811 3.438 4 5 4v1c-1.854 0-26 19.56-26 22-1.747 0-2 .253-2 2Z"/><path fill="#C7C8CC" id="alv" d="m182 58 1 1-1-1Z"/><path fill="#1AA498" id="RSPv6a" d="m245 58-1 1 1-1Z"/><path fill="#C7C8CC" id="alv" d="m275 58-2 1 2-1Z"/><path fill="#198060" id="SSp-bfd6a" d="M369 83c0 .78-3.19 6-4 6-2.835 0-3.654-4.577-6.5-6-3.298-1.649-21.212-20-24.5-20l5-5c3.849 0 30 22.848 30 25Z"/><path fill="#1A7E62" id="SSs1" d="M54 78h1c0-3.896 11.77-15 14-15v-1l-3-3c-1.339 0-14 13.606-14 15l2 4Z"/><path fill="#009DAA" id="VISrl6b" d="M131 60c0 1.58-2.855 1-4 1l4-2v1Z"/><path fill="#C7C8CC" id="alv" d="M147 59c-1.831 0-9 2.183-9 4 1.831 0 9-2.183 9-4ZM184 59c1.952 0 19 17.005 19 18-2.087 0-13.309-12.118-14-13.5l-5-4.5ZM273 59c-1.238 0-3 .423-3 2 1.238 0 3-.423 3-2Z"/><path fill="#009DAA" id="VISrl6b" d="M332 63h1c0-1.54-6.3-4-8-4 0 1.504 5.699 4 7 4Z"/><path fill="#1A7E62" id="SSs1" d="M405 75c-3.391 0 .391 2-3 2l-14-15 2-3c1.317 0 15 14.465 15 16Z"/><path fill="#009DAA" id="VISrl6b" d="M123 63h1c2.003 0 3 .294 3-2l-4 1v1Z"/><path fill="#C7C8CC" id="alv" d="m270 61-1 1 1-1ZM269 62c-2.355 0-14 10.424-14 13 2.355 0 14-10.424 14-13Z"/><path fill="#1B8063" id="SSs2/3" d="M394 86h1l7-8v-1l-14-15h-1c0 1.763-4.012 7-6 7v1c1.635 0 13 14.656 13 16ZM61 86h1c0-3.212 13-14.63 13-16v-1l-6-6c-2.23 0-14 11.104-14 15 0 2.825 6 4.506 6 8Z"/><path fill="#1A7E61" id="SSp-bfd6b" d="m124 63-5.5 5c-4.474 2.237-18.424 17-21.5 17 0-2.44 24.146-22 26-22h1Z"/><path fill="#C7C8CC" id="alv" d="M138 63c-1.572 0-7 2.052-7 4 1.572 0 7-2.052 7-4Z"/><path fill="#1A7E61" id="SSp-bfd6b" d="M365 89v2c-3.464 0-3.341-4.42-6.5-6-4.149-2.075-12.727-10.727-17.5-15.5-1.565-1.564-9-3.972-9-6.5h2c3.288 0 21.202 18.351 24.5 20 2.846 1.423 3.665 6 6.5 6Z"/><path fill="#C7C8CC" id="alv" d="M131 67c-1.417 0-6 2.383-6 4 1.664 0 6-1.823 6-4Z"/><path fill="#187C63" id="SSs4" d="M65 91h1c0-1.882 12.892-15 15-15v-1c-2.829 0-2.995-5-6-5 0 1.37-13 12.788-13 16 0 2.297 3 1.849 3 5ZM390 91h1c0-2.364 3-3.053 3-5 0-1.344-11.365-16-13-16l-5 6c1.672 0 14 13.204 14 15Z"/><path fill="#C7C8CC" id="alv" d="M125 71c-1.429 0-4 1.288-4 3 1.429 0 4-1.288 4-3Z"/><path fill="#039399" id="AUDd1" d="M42 97h1c0-6.957 11-12.474 11-19l-2-4c-2.059 0-14 17.038-14 19l4 4Z"/><path fill="#C7C8CC" id="alv" d="m121 74-1 1 1-1ZM120 75c-1.238 0-3 .423-3 2 1.238 0 3-.423 3-2ZM255 75l-1 1 1-1Z"/><path fill="#039399" id="AUDd1" d="M419 93c-1.947 0-2.636 3-5 3l-12-18v-1c3.391 0-.391-2 3-2 1.37 0 14 15.604 14 18Z"/><path fill="#1C8063" id="SSs5" d="M66 91c2.834 0 5.434 9 8 9 0-1.453 11.883-17 13-17v-1l-6-6c-2.108 0-15 13.118-15 15Z"/><path fill="#C7C8CC" id="alv" d="m254 76-1 1 1-1Z"/><path fill="#1C8063" id="SSs5" d="M382 100h1c0-1.77 5.978-9 7-9 0-1.796-12.328-15-14-15h-1c0 2.696-5 3.847-5 7l3 3.5c2.439 2.44 9 10.046 9 13.5Z"/><path fill="#C7C8CC" id="alv" d="m117 77-2 2c1.747 0 2-.253 2-2ZM204 77l2 2-2-2ZM253 77l-2 1 2-1Z"/><path fill="#029397" id="AUDd2/3" d="M50 103h1c0-6.02 10-10.903 10-17 0-3.494-6-5.175-6-8h-1c0 6.526-11 12.043-11 19 2.351 0 3.888 6 7 6Z"/><path fill="#C7C8CC" id="alv" d="m251 78-1 1 1-1Z"/><path fill="#029397" id="AUDd2/3" d="M414 98c-3.747 0-4.633 5-8 5l-11-17 7-8 12 18v2Z"/><path fill="#C7C8CC" id="alv" d="m115 79-1 1 1-1ZM207 79l1 1-1-1ZM249 79l-1 1 1-1ZM114 80l-1 1 1-1Z"/><path fill="#7BD04A" id="DG-mo" d="m149 109 2 1c11.475 0 21.785-2 33.5-2 5.509 0 11.816 2.592 17 0 3.116-1.558 1.5-4.468 1.5-7l-2-2c-2.991 0-4.438-4.469-7.5-6l-12-8-13-5c-8.716-4.358-26.428 6.714-33 10l-7.5 7v2c0 2.867 5.149 2 7 2 0-2.566 10.489-5.994 12.5-7 14.248-7.124 23.011-5.995 37 1 2.552 1.276 10.5 2.246 10.5 6.5 0 1.751-5.411 2.045-6.5 1.5-5.635-2.818-12.72-2-19.5-2-4.11 0-9.081.29-12.5 2-.904.452-5.5 4.257-5.5 2l-2 4Z"/><path fill="#C7C8CC" id="alv" d="m209 80 1 1-1-1ZM248 80l-1 1 1-1Z"/><path fill="#7BD04A" id="DG-mo" d="M308 109c-1.048 0-3-.473-3 1-11.374 0-21.841-2-33.5-2l-14 1c-3.822-1.911-4.5-2.508-4.5-7l3-3 15.5-12c19.105-9.553 26.378-8.311 45 1 2.389 1.195 11.5 5.138 11.5 9l1 2-1 1c-1.819 0-4.591 1-7 1 0-3.315-10.26-5.88-12.5-7-13.094-6.547-21.86-6.57-35 0-1.988.994-13.849 3.801-11.5 8.5 1.31 2.621 12.607-1.5 15-1.5h12.5c5.753 0 10.071 4 15.5 4 1.712 0 3 2.571 3 4Z"/><path fill="#C7C8CC" id="alv" d="M113 81c-1.747 0-2 .253-2 2l2-2ZM211 81l1 1-1-1ZM245 81l-1 1 1-1ZM213 82l1 1-1-1ZM243 82l-1 1 1-1Z"/><path fill="#197D63" id="SSs6a" d="M79 107h1c0-2.065 4.583-10 7-10 0-1.621 2.996-7 5-7v-1l-5-6c-1.117 0-13 15.547-13 17v1c1.462 0 5 4.277 5 6Z"/><path fill="#C7C8CC" id="alv" d="M111 83c-1.747 0-2 .253-2 2l2-2ZM218 83l1 2-3-2h2Z"/><path fill="#7DCD4B" id="HPF" d="m221 83-2 2-1-2h3Z"/><path fill="#7ECD4A" id="FC" d="M217 96h1l1-1v-1l1-1 1-1v-1l1-1 1-1v-1l1-1 1-4h-4l-2 2c0 4.296-2 7.018-2 11ZM234 90l5 5-2-10-1-2h-4l1 4v1l1 1v1Z"/><path fill="#7DCD4B" id="HPF" d="m238 83-1 2-1-2h2Z"/><path fill="#C7C8CC" id="alv" d="M240 83c0 1.577-1.762 2-3 2l1-2h2Z"/><path fill="#197D63" id="SSs6a" d="M382 100c0 1.987-3.223 6-5 6-4.646 0-6.74-15-12-15v-2c.81 0 4-5.22 4-6h1l3 3.5c2.439 2.44 9 10.046 9 13.5Z"/><path fill="#A8A9AA" id="V3" d="M234 90v1c-5.269 0-4.784 4-5.5 4-2.588 0-2.216-5-5.5-5v-2l1-1c1.07 0 2.462-4.019 4.5-3 2.029 1.014 2.271 3 4.5 3v1l1 1v1Z"/><path fill="#1A7E61" id="SSp-bfd6b" d="M97 85c-1.747 0-2 .253-2 2 1.747 0 2-.253 2-2Z"/><path fill="#C7C8CC" id="alv" d="M109 85c-1.747 0-2 .253-2 2l2-2Z"/><path fill="#039398" id="AUDd4" d="M51 103c0 2.215 2 1.519 2 3l12-15c0-3.151-3-2.703-3-5h-1c0 6.097-10 10.98-10 17ZM406 104l-3 2c0-4.183-12-11.888-12-15 0-2.364 3-3.053 3-5h1l11 17v1Z"/><path fill="#1A7E61" id="SSp-bfd6b" d="M92 90v1c1.712 0 3-2.571 3-4l-3 2v1Z"/><path fill="#C7C8CC" id="alv" d="M107 87c-1.712 0-3 2.571-3 4 1.712 0 3-2.571 3-4Z"/><path fill="#65A83D" id="DG-sg" d="m153 102-2 3c0 2.257 4.596-1.548 5.5-2 3.419-1.71 8.39-2 12.5-2 6.78 0 13.865-.818 19.5 2 1.089.545 6.5.251 6.5-1.5 0-4.254-7.948-5.224-10.5-6.5-13.989-6.995-22.752-8.124-37-1-2.011 1.006-12.5 4.434-12.5 7l8-1c0-3.458 23.175-8.662 28.5-6 1.053.526 7.5.581 7.5 2.5L162.5 98l-9.5 4ZM303 102c0 1.481 2 .785 2 3-5.429 0-9.747-4-15.5-4H277c-2.393 0-13.69 4.121-15 1.5-2.349-4.699 9.512-7.506 11.5-8.5 13.14-6.57 21.906-6.547 35 0 2.24 1.12 12.5 3.685 12.5 7l-7-1c0-1.55-6.228-2.364-7.5-3-5.896-2.948-14.921-6.54-22-3l-7.5 2.5 17.5 1.5 8.5 4Z"/><path fill="#1A8061" id="SSs6b" d="M92 91c0 1.442-3.274 6-5 6 0-1.621 2.996-7 5-7v1Z"/><path fill="#A8A9AA" id="V3" d="m223 90-1 1v-1h1Z"/><path fill="#A9AAA8" id="chpl" d="m237 95 1 4.5c-3.861 7.721-19 5.029-19-3.5v-1l1-1v-1l1-1 1-1 1-1c3.284 0 2.912 5 5.5 5 .716 0 .231-4 5.5-4l1 1 1 1 1 2Z"/><path fill="#029398" id="AUDd5" d="M64 118h1c0-2.483 6.612-17 9-17v-1c-2.566 0-5.166-9-8-9h-1l-12 15v1c2.072 0 11 7.872 11 11Z"/><path fill="#C7C8CC" id="alv" d="M104 91c-1.712 0-3 2.571-3 4 1.712 0 3-2.571 3-4Z"/><path fill="#A8A9AA" id="V3" d="m222 91-1 1v-1h1Z"/><path fill="#1A8061" id="SSs6b" d="m377 107-1 1c-1.816 0-2.392-4.284-3-5.5-1.974-3.948-8-6.832-8-11.5 5.26 0 7.354 15 12 15v1Z"/><path fill="#029398" id="AUDd5" d="M403 107c-.764 0-11 8.113-11 10l-9-17c0-1.77 5.978-9 7-9h1c0 3.112 12 10.817 12 15v1Z"/><path fill="#A8A9AA" id="V3" d="m235 92 1 1-1-1Z"/><path fill="#029297" id="AUDp1" d="M28 131h1c0-11.579 13-30.116 13-34l-4-4c-1.996 0-4.222 6.945-5 8.5-4.168 8.335-9 18.598-9 28.5 1.145 0 4-.579 4 1Z"/><path fill="#7ECE4A" id="DG-po" d="M143 100c1.495 0 10 .84 10 2l9.5-4 16.5-1.5c0-1.919-6.447-1.974-7.5-2.5-5.325-2.662-28.5 2.542-28.5 6ZM314 100c-3.978 0-7.549 2-11 2l-8.5-4-17.5-1.5 7.5-2.5c7.079-3.54 16.104.052 22 3 1.272.636 7.5 1.45 7.5 3Z"/><path fill="#029297" id="AUDp1" d="m433 130-5 1c0-8.348-5.448-17.397-9-24.5-.778-1.555-3.004-8.5-5-8.5v-2c2.364 0 3.053-3 5-3l6 10.5c2.805 5.609 8 20.209 8 26.5Z"/><path fill="#A8A9AA" id="V3" d="m220 94-1 1v-1h1Z"/><path fill="#C7C8CC" id="alv" d="M101 95c-1.577 0-2 1.762-2 3 1.577 0 2-1.762 2-3Z"/><path fill="#A8A9AA" id="V3" d="M219 103c3.437 0 4.446 2.973 6.5 4 4.649 2.324 8.316-4 12.5-4 0-1.108 4.43-8-1-8l1 4.5c-3.861 7.721-19 5.029-19-3.5h-1l-1 4.5 2 2.5Z"/><path fill="#019298" id="AUDp2/3" d="M29 131h8c0-8.751 13-24.82 13-28-3.112 0-4.649-6-7-6h-1c0 3.884-13 22.421-13 34Z"/><path fill="#1A8061" id="SSs6b" d="M80 107h1c0-3.428 6-6.206 6-10-2.417 0-7 7.935-7 10Z"/><path fill="#7DCF4B" id="CA2" d="m95 106-2 4c6.527 0 23.923-11 35-11v-2c-10.108 0-25.643 8-32 8l-1 1ZM361 106l2 4-10.5-5c-5.64-2.82-17.046-6-23.5-6l-1-2c8.182 0 20.483 2.491 27.5 6l5.5 3Z"/><path fill="#C7C8CC" id="alv" d="M99 98c-1.577 0-2 1.762-2 3 1.577 0 2-1.762 2-3Z"/><path fill="#019298" id="AUDp2/3" d="M428 131c-3.013 0-6.611 1-9 1 0-4.558-9.005-28-13-28v-1c3.367 0 4.253-5 8-5 1.996 0 4.222 6.945 5 8.5 3.552 7.103 9 16.152 9 24.5Z"/><path fill="#7ECF49" id="CA3" d="m139 112-2 1c-10.701 0-22.507 21.004-32.5 26-7.971 3.986-13.5 2.282-13.5-8l-1-8c0-4.553 3-8.75 3-13 6.527 0 23.923-11 35-11 0 2.867 5.149 2 7 2l8-1c1.495 0 10 .84 10 2l-2 3-2 4v1h-6l-1 1h-1l-2 1Z"/><path fill="#7DCD4B" id="HPF" d="m205 100-2 1-2-2 4 1ZM252 100l1 2 3-3-4 1Z"/><path fill="#7DCF4B" id="CA2" d="m329 99-1 1 1-1Z"/><path fill="#7ECF49" id="CA3" d="M314 111h1c16.007 0 51 59.006 51 12.5 0-5.052-3-9.498-3-13.5l-10.5-5c-5.64-2.82-17.046-6-23.5-6l-1 1c-1.819 0-4.591 1-7 1l-7-1c-3.978 0-7.549 2-11 2 0 1.481 2 .785 2 3 1.712 0 3 2.571 3 4v1h5l1 1Z"/><path fill="#019399" id="AUDd6a" d="M385 129h1c2.013 0 4.388-11 6-11v-1l-9-17h-1c0 1.987-3.223 6-5 6v1c0 7.167 8 14.085 8 22ZM73 125l-2 3c-2.559 0-6-8.31-6-10 0-2.483 6.612-17 9-17 1.462 0 5 4.277 5 6 0 4.264-4 7.497-4 12-1.995 0-2 4.377-2 6Z"/><path fill="#C7C8CC" id="alv" d="m97 101-1 2 1-2Z"/><path fill="#039397" id="AUDp4" d="M37 132h6c0-9.293 10-22.562 10-25v-1c0-1.481-2-.785-2-3h-1c0 3.18-13 19.249-13 28v1Z"/><path fill="#C7C8CC" id="alv" d="M95 105h1v-2l-1 2Z"/><path fill="#C8CCC7" id="hbc" d="M218 111c3.359 0 8.951-3.774 12.5-2 1.61.805 5.802 2 7.5 2 8.019 0 2-1.503 2-7l-2-1c-4.184 0-7.851 6.324-12.5 4-2.054-1.027-3.063-4-6.5-4l-3 1c0 5.912-7.71 7 2 7Z"/><path fill="#FF8D9F" id="MH" d="M223 122c-1.564 0-3.876 1-6 1l-6-10-1-1c0-2.232 3.617-8 6-8 0 5.912-7.71 7 2 7 0 1.751 5 7.393 5 11ZM234 123h5c0-3.524 6-5.962 6-10l1-1c0-1.522-2.571-7-4-7l-1-1h-1c0 5.497 6.019 7-2 7 0 3.277-4 5.999-4 10v2Z"/><path fill="#C8CCC7" id="hbc" d="m241 104 1 1-1-1Z"/><path fill="#039397" id="AUDp4" d="M414 132h5c0-4.558-9.005-28-13-28l-3 2v1c3.297 0 8.557 16.614 10 19.5.619 1.238-1.144 5.5 1 5.5Z"/><path fill="#C7C8CC" id="alv" d="M106 141c-3.584 0-10 8.259-10 12-.83 0-2.466-6.431-3-7.5l-4-6v-24l2-4.5c0-2.244 1.725-6 4-6v1l-2 4c0 4.25-3 8.447-3 13l1 8c0 10.282 5.529 11.986 13.5 8 9.993-4.996 21.799-26 32.5-26v1l-1 1h-1l-1 1-2 1-1 1-1 1h-1l-1 1-1 1-1 1-1 1c-1.747 0-2 .253-2 2-1.198 0-6 4.298-6 6l-1 1-1 1-9 8Z"/><path fill="#7ECF4B" id="CA1" d="m96 105-1 1v-1h1Z"/><path fill="#039199" id="AUDp5" d="M43 132c4.848 0 10.965 2 16 2 0-5.697 5-10.474 5-16 0-3.128-8.928-11-11-11 0 2.438-10 15.707-10 25Z"/><path fill="#019398" id="AUDd6b" d="m80 109-5 10c0-4.503 4-7.736 4-12h2v1l-1 1ZM384 129h1c0-7.915-8-14.833-8-22l-1 1c0 5.438 6 10.228 6 16l1 1v3l1 1Z"/><path fill="#039199" id="AUDp5" d="M397 134h1c4.734 0 10.644-1 16-1v-1c-2.144 0-.381-4.262-1-5.5-1.443-2.886-6.703-19.5-10-19.5-.764 0-11 8.113-11 10v1c0 5.295 5 10.003 5 16Z"/><path fill="#1A8061" id="SSs6b" d="m81 108-1 1 1-1Z"/><path fill="#A8AAAA" id="VL" d="m364 108 1 1-1-1Z"/><path fill="#7DCD4B" id="HPF" d="M149 110h2l-2-1v1Z"/><path fill="#A8A9AA" id="V3" d="M227 136h2c0-4.641 4-8.272 4-13l1-2c0-4.001 4-6.723 4-10-1.698 0-5.89-1.195-7.5-2-3.549-1.774-9.141 2-12.5 2 0 1.751 5 7.393 5 11l4 14Z"/><path fill="#7DCD4B" id="HPF" d="M305 110h3v-1c-1.048 0-3-.473-3 1Z"/><path fill="#C7C8CC" id="alv" d="m143 110-1 1 1-1Z"/><path fill="#FF64FF" id="MB" fill-rule="evenodd" d="m190 112-2 2.5c3.64 7.28 11.836-2.5 2-2.5m7 19h3c2.124 0 4.436-1 6-1 0-1.658 1.461-3 3-3 0-1.465.438-8 2.5-8l3.5 4h2l-6-10h-1l-3.5-2c-3.547-1.773-16.549 0-21.5 0 0 5.089.909 9.319 3 13.5l9 6.5ZM264 112l-3 1.5c-3.254 6.508 12.168 2.834 5.5-.5l-2.5-1m-7 19h3l8-6 1-1v-1l1-1c0-1.048-.473-3 1-3v-8c-4.951 0-17.953-1.773-21.5 0l-3.5 2h-1c0 4.038-6 6.476-6 10h3c0-7.061 5-3.379 5 3l2 2 1 1c.062 0 4.153 2 7 2Z"/><path fill="#C7C8CC" id="alv" d="m313 110 1 1-1-1Z"/><path fill="#A8AAAA" id="VL" d="M325 220h2c9.123 0 20.873-5.246 25-13.5l1-7 2-3.5c0-9.535 9-21.113 9-25-9.089 0 3.937-16.374 5-18.5.557-1.114.41-5.5 2-5.5 0-5.806 2-10.668 2-17v-4c-2.759 0-3.159-16-8-16l3 7.5v7c0 8.629-1.437 14.874-5 22-.54 1.079-2.335 8.5-3 8.5v5c0 10.354-2.224 20.949-7 30.5-.585 1.169-5.326 11.348-7 8-2.389-4.778 5-13.179 5-17.5l-2 1-1 1-4 8-1 2v1l-1 2-1 2v1l-1 1-2 4-1 1v1l-1 1c0 5.091-11 8.346-11 13ZM130 221h1v-1c0-4.709-11-8.621-11-14l-1-1v-1l-2-2v-1l-1-1v-1l-1-1v-1l-2-4v-1c-.898 0-6-8.96-6-10l-2-2 5 13.5c.718 1.437 1.769 7.134-1.5 5.5-2.919-1.46-11.5-23.329-11.5-27 0-1.72-2.256-11 0-11l-1-8c-.83 0-2.466-6.431-3-7.5l-4-6v-24l2-4.5c-3.68 0-5.776 11.053-7 13.5-.523 1.046.951 3.5-1 3.5v3c0 5.62 2 9.499 2 15 1.59 0 1.443 4.386 2 5.5 2.427 4.854 5.611 9.222 8 14 .759 1.517-.037 5.5-2 5.5 0 6.647 9 15.964 9 24 0 8.947 5.427 17.964 13.5 22 2.041 1.02 14.5 1.468 14.5 4Z"/><path fill="#C7C8CC" id="alv" d="M139 112h2v-1l-2 1Z"/><path fill="#FE8083" id="LGd-sh" d="m123 125-2 6 3.5 2c4.997-2.498 6.22-14 12.5-14l2-2h1l2-1 1-1h3c0-1.457 3-1.46 3-4l-8 1-2 1-2 1-1 1h-1l-1 1-2 1-1 1-1 1h-1l-1 1-1 1-1 1-1 1-2 2Z"/><path fill="#FE7F84" id="LGd-co" d="m120 134 11 13 14-12.5 4-6.5c0-5.421 1-11.091 1-17h-1c0 2.54-3 2.543-3 4 6.931 0-4.01 19.48-10 7.5l1-3.5c-6.28 0-7.503 11.502-12.5 14l-3.5-2-1 3Z"/><path fill="#FE909D" id="LP" d="M170 131h13c12.986 0-2-14.334-2-20h-31c0 5.909-1 11.579-1 17v7l9.5 1c3.996-1.998 5.942-5 11.5-5Z"/><path fill="#FF6F80" id="TH" d="M197 131c-2.907 0-6.501.503-8 3.5-.465.93-.817 4.5-2 4.5l-4-8c12.986 0-2-14.334-2-20h4c0 5.089.909 9.319 3 13.5l9 6.5ZM276 111c0 1.108-3.683 8-5 8v-8h5Z"/><path fill="#FE909D" id="LP" d="M286 131c5.63 0 6.939 2.72 11.5 5l9.5-1v-8c0-1.467-2.797-15 0-15v-1h-31c0 1.108-3.683 8-5 8 0 1.048.473 3-1 3l-1 1v1l-1 1c0 3.71.914 6 5 6h13Z"/><path fill="#FE8083" id="LGd-sh" d="M325 117c0 4.835 10 7.98 10 14-1.384 0-1.123 3.189-3.5 2-4.643-2.322-7.091-16-14.5-16h-1l-1-1h-1l-1-1h-2l-4-3v-1c6.717 0 11.468 6 17 6h1Z"/><path fill="#C7C8CC" id="alv" d="M137 113h2v-1l-2 1Z"/><path fill="#FE8EFF" id="APN" d="m190 112-2 2.5c3.64 7.28 11.836-2.5 2-2.5Z"/><path fill="#C8CCC7" id="hbc" d="M210 113h1l-1-1v1ZM245 113h1v-1l-1 1Z"/><path fill="#FE8EFF" id="APN" d="m264 112-3 1.5c-3.254 6.508 12.168 2.834 5.5-.5l-2.5-1Z"/><path fill="#FE7F84" id="LGd-co" d="M336 134c-1.015 0-10 11.421-10 13l-16-14.5-3-5.5c0-1.467-2.797-15 0-15l4 3c-10.549 0 4.059 18.381 9 8.5 1.578-3.155-3-4.241-3-6.5 7.409 0 9.857 13.678 14.5 16 2.377 1.189 2.116-2 3.5-2 1.473 0 1 1.952 1 3ZM143 115l-1 1 1-1Z"/><path fill="#FD8082" id="LGd-ip" d="M139 117h1l2-1 1-1h3c6.931 0-4.01 19.48-10 7.5l1-3.5c1.747 0 2-.253 2-2ZM316 117h1c0 2.259 4.578 3.345 3 6.5-4.941 9.881-19.549-8.5-9-8.5h2l1 1h1l1 1Z"/><path fill="#FE7F84" id="LGd-co" d="m313 115 1 1-1-1ZM142 116l-2 1 2-1ZM315 116l1 1-1-1Z"/><path fill="#CAC7CB" id="fiber tracts" d="m132 117-1 1 1-1Z"/><path fill="#FE7F84" id="LGd-co" d="m139 117-2 2c1.747 0 2-.253 2-2Z"/><path fill="#CAC7CB" id="fiber tracts" fill-rule="evenodd" d="m327 188-3.5 2-6.5 7.5c-8.753 17.506-8.013 23.757-27.5 33.5-2.214 1.107-7.84 10.08-4 12 3.756 1.878 10.102-4.551 13-6 10.173-5.086 24.804-25.108 30.5-36.5 2.293-4.587 5.328-12.5-2-12.5m14-16c0 4.949-9.397 27.295-12 32.5l-8 12c-.425.849-3.157 3.672-1.5 4.5 1.882.941 7.632-5.632 9-7 7.435-7.435 9.853-18.207 14.5-27.5 1.048-2.096.562-14.5-2-14.5m-52 74-3 2-3-6-2-4v-2l1-1 6.5-7c6.367-6.367 19.5-16.072 19.5-25 1.32 0 4-4.394 4-6l1-1 1-1 12-9 1-1c4.188 0 7-4.199 7-8 0-4.358 5-4.9 5-8 6.078 0 5.467-32-2-32 0-1.048.473-3-1-3 0-1.048.473-3-1-3 0-6.02-10-9.165-10-14 2.395 0 15 14.182 15 15 0 2.796 6 11.134 6 19 0 4.107-1 8.469-1 12 0 1.145-.579 4 1 4v14l-2 10-1 2v1l-1 2-1 2v1l-1 1-2 4-1 1v1l-1 1c0 5.091-11 8.346-11 13v1l-2 1-1 1-21 15-1 1h-1l-1 1-1 1-8 5Z"/><path fill="#019396" id="AUDp6a" d="m69 133-10 1c0-5.697 5-10.474 5-16h1c0 1.69 3.441 10 6 10v3l-2 2Z"/><path fill="#CAC7CB" id="fiber tracts" d="m131 118-1 1 1-1Z"/><path fill="#019396" id="AUDp6a" d="m387 133 10 1c0-5.997-5-10.705-5-16-1.612 0-3.987 11-6 11v2l1 2Z"/><path fill="#019398" id="AUDd6b" d="M73 125h1l1-6c-1.995 0-2 4.377-2 6Z"/><path fill="#CAC7CB" id="fiber tracts" d="m129 119-1 1 1-1Z"/><path fill="#FF8F9D" id="LH" d="m215 123-3.5-4c-2.062 0-2.5 6.535-2.5 8 0 6.051 6 .654 6-4ZM242 123c0 4.832 5 10.365 5 3 0-6.379-5-10.061-5-3Z"/><path fill="#FF6F80" id="TH" d="M271 119c-1.473 0-1 1.952-1 3 1.473 0 1-1.952 1-3Z"/><path fill="#CAC7CB" id="fiber tracts" d="m128 120-1 1 1-1ZM127 121l-1 1 1-1ZM126 122l-1 1 1-1Z"/><path fill="#FE90FE" id="PRC" d="m217 141 4 2c3.091 0 3.266-5 6-5v-2l-4-14c-1.564 0-3.876 1-6 1h-2c0 4.654-6 10.051-6 4-1.539 0-3 1.342-3 3l4 6 5 4 1 1h1Z"/><path fill="#FF6F80" id="TH" d="m270 122-1 1 1-1Z"/><path fill="#CAC7CB" id="fiber tracts" d="M125 123c-1.747 0-2 .253-2 2l2-2Z"/><path fill="#FE90FE" id="PRC" d="m239 142-4 1c-3.005 0-3.171-5-6-5v-2c0-4.641 4-8.272 4-13h9c0 4.832 5 10.365 5 3l2 2 1 1-1 5-1 1-8 6-1 1Z"/><path fill="#FF6F80" id="TH" d="m269 124-1 1 1-1Z"/><path fill="#C9C9CA" id="scwm" d="m382 124 1 1-1-1Z"/><path fill="#019398" id="AUDd6b" d="M72 129h1v-4l-2 3v1h1Z"/><path fill="#C9C9CA" id="scwm" d="M74 125c0 1.048.473 3-1 3v-3h1Z"/><path fill="#CAC7CB" id="fiber tracts" fill-rule="evenodd" d="M125 188c0 15.208 16.488 33.988 27.5 45l13.5 9c.861 0 4.036 2.427 5 .5 2.603-5.206-2.526-11.513-6.5-13.5-5.42-2.71-14.931-7.362-17.5-12.5-4.996-9.992-7.248-28.5-22-28.5m-11-16c0 22.603 1.362 19.223 11 38.5.933 1.865 11.271 11.458 12 10 1.097-2.195-4.883-9.883-6.5-11.5-6.278-6.278-7.671-17.842-11.5-25.5-1.111-2.221-1.038-11.5-5-11.5m54 75h3c0-1.238 1.923-5 3-5l1-1v-6l-7-7.5c-5.705-5.705-20-17.618-20-24.5l-5-7-12-9c-3.982 0-8-6.469-8-10-1.951 0-.477-2.454-1-3.5l-5-4.5c-5.408 0-5.639-31 2-31l1-4 1-3 2-6c-1.198 0-6 4.298-6 6l-1 1-1 1c0 4.976-5 12.206-5 20v4c1.735 0 1 6.51 1 8 0 5.587-1 12.081-1 17 0 3.414 3 6.353 3 10v1l2 4v1l1 1v1l1 1v1l2 2v1l1 1c0 5.379 11 9.291 11 14l3 3h1l1 1 11 8 1 1c3.953 0 5.466 6 9 6l1 1c1.546 0 10 5.451 10 7Z"/><path fill="#FF6F80" id="TH" d="M273 131c0 1.122-2.632 7-4 7 0-4.275-5.099-7-9-7l8-6c0 3.71.914 6 5 6ZM321 153h6v-2l-1-4-16-14.5-3-5.5v9c4.942 0 14 11.585 14 17ZM129 153h6c0-2.776 10.879-18 14-18v-7l-4 6.5-14 12.5-2 3v3Z"/><path fill="#C9C9CA" id="scwm" d="M384 129v1l-1-1v-1l1 1Z"/><path fill="#039198" id="AUDp6b" d="m72 130-1 1v-2h1v1Z"/><path fill="#C9C9CA" id="scwm" d="m73 129-1 1v-1h1Z"/><path fill="#CCC8CA" id="ar" d="M67 175h2c0-7.957 1-15.495 1-23 0-1.517.726-9 2-9 0-3.686 6.437-14 1-14l-1 1-1 1c0 1.623-.005 6-2 6 0 5.752-2 9.904-2 16v22Z"/><path fill="#FF6F80" id="TH" d="M257 131c0 1.069-6.717 3-8 3l1-5c.062 0 4.153 2 7 2Z"/><path fill="#CCC8CA" id="ar" d="M389 174v1c-3.287 0-2-15.192-2-18 0-1.235.643-5-1-5 0-2.409-1-5.181-1-7v-1c0-1.048.473-3-1-3 0-2.682-5.908-12-1-12l1 1h1v1c0 7.227 5 14.225 5 22l-1 21Z"/><path fill="#019198" id="AUDv6b" d="M384 130h1v-1h-1v1Z"/><path fill="#039198" id="AUDp6b" d="M385 131h1v-2h-1v2Z"/><path fill="#019099" id="AUDv1" d="M22 151h5l1-20c0-1.579-2.855-1-4-1 0 6.558-2 13.641-2 21Z"/><path fill="#FF6F80" id="TH" d="m200 131 10 5-4-6c-1.564 0-3.876 1-6 1Z"/><path fill="#98D5F9" id="CP" d="m368 197-1 1-5.5 1-6.5-3c0-9.535 9-21.113 9-25 5.047 0 7-19.223 7-24 0-5.806 2-10.668 2-17 1.889 0 8.768 19 10 19v3l2 5.5c1.906 3.811 0 11.09 0 14.5l-1 4-1 1c0 3.076-12.164 20-15 20Z"/><path fill="#019099" id="AUDv1" d="M429 151h5l-1-21-5 1c0 6.296 1 13.164 1 20Z"/><path fill="#029198" id="AUDv2/3" d="M27 151h8c0-6.896 2-12.56 2-19v-1h-9l-1 20Z"/><path fill="#019198" id="AUDv6b" d="M69 133v4c1.995 0 2-4.377 2-6l-2 2Z"/><path fill="#98D5F9" id="CP" d="M102 195c-.427 0-5.19 3.345-6.5 4l-6.5-1c0-1.824-16-15.116-16-22l-2-3c0-7.505 2-14.227 2-21v-2c.84 0 8.273-19 10-19 0 5.62 2 9.499 2 15 0 5.418 2.4 25 8 25 0 6.647 9 15.964 9 24Z"/><path fill="#FF8E9C" id="PO" d="m187 176-5 2c-1.522 0-7-2.571-7-4l-12-12.5-14-26.5 9.5 1c3.996-1.998 5.942-5 11.5-5 0 6.383 15 18.796 15 24v17.5l2 3.5Z"/><path fill="#FD8F9C" id="Eth" d="M187 139c0 2.835-.419 16-2 16 0-5.204-15-17.617-15-24h13l4 8Z"/><path fill="#FC909E" id="PF" fill-rule="evenodd" d="M210 145c0 1.186-3.346 5.192-4 6.5-1.789 3.579 4.193 12.653 8.5 10.5 5.178-2.589.902-17-4.5-17m-23 31c5.656 0 16.198 5.151 22.5 2l6.5-2 2-1c1.714 0 1-5.594 1-7v-23l-2-4h-1l-1-1-5-4-10-5h-3c-2.907 0-6.501.503-8 3.5-.465.93-.817 4.5-2 4.5 0 2.835-.419 16-2 16v17.5l2 3.5ZM245 145c0 .063-4.091 5.682-5 7.5-1.224 2.449.722 11.389 4.5 9.5 5.347-2.674 9.383-17 .5-17m-4 31c5.226 0 15.408 5.046 21.5 2l6.5-2 2-2.5V155c0-5.672-2-10.95-2-17 0-4.275-5.099-7-9-7h-3c0 1.069-6.717 3-8 3l-1 1-8 6-1 1-2 3c0 9.92 1 20.748 1 30l3 1Z"/><path fill="#FD8F9C" id="Eth" d="M269 138c0 6.05 2 11.328 2 17 1.225 0 15-21.352 15-24h-13c0 1.122-2.632 7-4 7Z"/><path fill="#FF8E9C" id="PO" d="m269 176 6 2 6-3 1-1c0-4.176 7.705-6.91 9-9.5 2.617-5.234 16-24.187 16-28.5v-1l-9.5 1c-4.561-2.28-5.87-5-11.5-5 0 2.648-13.775 24-15 24v18.5l-2 2.5Z"/><path fill="#019198" id="AUDv6b" d="M390 153h1c0-7.43-4-13.422-4-20l-1-2h-1c0 7.227 5 14.225 5 22Z"/><path fill="#029198" id="AUDv2/3" d="M421 151h8c0-6.836-1-13.704-1-20-3.013 0-6.611 1-9 1 0 5.732 2 12.293 2 19Z"/><path fill="#029197" id="AUDv4" d="M35 151h6c0-6.756 2-13.122 2-19h-6c0 6.44-2 12.104-2 19Z"/><path fill="#019098" id="AUDv5" d="M41 152h14c0-6.139 4-12.377 4-18-5.035 0-11.152-2-16-2 0 5.878-2 12.244-2 19v1Z"/><path fill="#029197" id="AUDv4" d="M416 151h5c0-6.707-2-13.268-2-19h-5v1l2 18Z"/><path fill="#019397" id="AUDv6a" d="M55 153h10c0-2.473 1.6-16 4-16v-4l-10 1c0 5.623-4 11.861-4 18v1ZM391 153h10v-1c0-6.481-3-11.917-3-18h-1l-10-1c0 6.578 4 12.57 4 20Z"/><path fill="#019098" id="AUDv5" d="M416 151c-4.27 0-10.067 1-15 1 0-6.481-3-11.917-3-18 4.734 0 10.644-1 16-1l2 18Z"/><path fill="#FF909E" id="IGL" d="m131 147-2 3c-1.496 0-10-9.851-10-12l1-4 11 13Z"/><path fill="#FF6F80" id="TH" d="m249 134-1 1 1-1Z"/><path fill="#FF909E" id="IGL" d="m326 147 1 4c2.831 0 10-11.68 10-14 0-1.048.473-3-1-3-1.015 0-10 11.421-10 13Z"/><path fill="#FF7E83" id="VPM" d="m160 179 3 2c4.275 0 6.85-7 12-7l-12-12.5-14-26.5c-3.121 0-14 15.224-14 18l1 4c0 2.234 21.201 22 24 22ZM296 180l-3 1c-3.973 0-6.514-7-11-7 0-4.176 7.705-6.91 9-9.5 2.617-5.234 16-24.187 16-28.5 4.942 0 14 11.585 14 17v4c0 7.255-25 18.488-25 23Z"/><path fill="#019198" id="AUDv6b" d="M65 153h2c0-6.096 2-10.248 2-16-2.4 0-4 13.527-4 16Z"/><path fill="#FF8E9F" id="LGv" d="M333 169h6c6.078 0 5.467-32-2-32 0 2.32-7.169 14-10 14v2c0 4.237.221 9.942 2 13.5l4 2.5ZM117 169h7l4-3.5 1-12.5v-3c-1.496 0-10-9.851-10-12-7.639 0-7.408 31-2 31Z"/><path fill="#FE7F83" id="SPA" d="m233 195-2 1-2-2c0-1.186-1-1.186-1 0 0 1.577-1.762 2-3 2l-2-1c0-2.599-4.22-12-7-12l1-6 1-2c1.714 0 1-5.594 1-7v-23l2-2c3.091 0 3.266-5 6-5h2c2.829 0 2.995 5 6 5l2 2c0 9.92 1 20.748 1 30l1 2 1 6c0 3.682-7 7.406-7 12Z"/><path fill="#FF6F80" id="TH" d="m215 140 1 1-1-1Z"/><path fill="#CBC8CB" id="fi" d="M107 182h3c0-4.919 1-11.413 1-17-1.735 0-1-6.51-1-8v-4c-2.261 0-.297-6.094-1-7.5l-3-4.5c-3.584 0-10 8.259-10 12l1 8 8 19 2 2Z"/><path fill="#FF6F80" id="TH" d="m221 143-2 2-2-4 4 2ZM240 141l-1 1 1-1Z"/><path fill="#CBC8CB" id="fi" d="m349 182-1 1-2-2v-14c0-3.907-.818-15.865 1-19.5l3-6.5c5.829 0 10 9.31 10 14v5c-1.149 0-1.508 4.516-2 5.5l-7 15.5-2 1Z"/><path fill="#C7CACC" id="ccs" d="M384 141c1.473 0 1 1.952 1 3-1.473 0-1-1.952-1-3Z"/><path fill="#FF6F80" id="TH" d="m235 143 2 2 2-3-4 1Z"/><path fill="#C7CACC" id="ccs" d="M70 152h3v-2l-1-7c-1.274 0-2 7.483-2 9Z"/><path fill="#C7CAC9" id="fr" d="M210 145c0 1.186-3.346 5.192-4 6.5-1.789 3.579 4.193 12.653 8.5 10.5 5.178-2.589.902-17-4.5-17ZM245 145c0 .063-4.091 5.682-5 7.5-1.224 2.449.722 11.389 4.5 9.5 5.347-2.674 9.383-17 .5-17Z"/><path fill="#C7CACC" id="ccs" d="M383 152h3c0-2.409-1-5.181-1-7l-2 4v3Z"/><path fill="#CBC9C7" id="or" d="M85 146c1.59 0 1.443 4.386 2 5.5 2.427 4.854 5.611 9.222 8 14 .759 1.517-.037 5.5-2 5.5-5.6 0-8-19.582-8-25ZM371 147c-1.59 0-1.443 4.386-2 5.5-1.063 2.126-14.089 18.5-5 18.5 5.047 0 7-19.223 7-24Z"/><path fill="#15B0B3" id="TEa1" d="m31 175-6 1-2-5.5-1-19.5h5l2 17.5c0 1.21.814 5.5 2 5.5v1Z"/><path fill="#16AFB3" id="TEa2/3" d="M31 174h8c0-7.828-4-15.222-4-23h-8l2 17.5c0 1.21.814 5.5 2 5.5Z"/><path fill="#15B0B2" id="TEa4" d="M39 174h2v-1l-1-16c0-1.235-.643-5 1-5v-1h-6c0 7.778 4 15.172 4 23Z"/><path fill="#15AFB3" id="TEa5" d="m415 173-13 1c0-6.903-1-14.772-1-21v-1c4.933 0 10.73-1 15-1l-1 22Z"/><path fill="#15B0B2" id="TEa4" d="M415 174h2c0-7.835 4-14.626 4-23h-5l-1 22v1Z"/><path fill="#16AFB3" id="TEa2/3" d="M425 175h1c0-7.927 3-15.322 3-24h-8c0 8.374-4 15.165-4 23 1.49 0 8-.735 8 1Z"/><path fill="#15B0B3" id="TEa1" d="m426 175 5 1 2-4.5 1-20.5h-5c0 8.678-3 16.073-3 24Z"/><path fill="#15AFB3" id="TEa5" d="M41 173c5.333 0 8.527 1 13 1 0-7.149 1-14.403 1-21v-1H41c-1.643 0-1 3.765-1 5l1 16Z"/><path fill="#C8CBCC" id="ec" d="M69 175h2v-2c0-7.505 2-14.227 2-21h-3c0 7.505-1 15.043-1 23Z"/><path fill="#CCC8CA" id="ar" d="M134 170c-5.105 0-4.779 4-7 4-2.6 0-3-2.639-3-5l4-3.5 1-12.5h6l1 4c-5.644 0-2 10.195-2 13ZM329 174h2l2-5-4-2.5c-1.779-3.558-2-9.263-2-13.5h-6v4c3.801 0 2 10.443 2 12 2.116 0 6 2.575 6 5Z"/><path fill="#C8CBCC" id="ec" d="M389 175v3l-3-3c0-1.048.473-3-1-3 0-3.41 1.906-10.689 0-14.5l-2-5.5h3c1.643 0 1 3.765 1 5 0 2.808-1.287 18 2 18Z"/><path fill="#15AFB2" id="TEa6a" d="M54 174h12l-1-21H55c0 6.597-1 13.851-1 21Z"/><path fill="#16B0B2" id="TEa6b" d="M66 174h1v-21h-2l1 21ZM389 174h1c0-6.597 1-13.851 1-21h-1l-1 21Z"/><path fill="#15AFB2" id="TEa6a" d="M390 174h12c0-6.903-1-14.772-1-21h-10c0 7.149-1 14.403-1 21Z"/><path fill="#FD8084" id="VPL" d="M153 181c0-2.322 5.704 0 7 0v-2c-2.799 0-24-19.766-24-22-5.644 0-2 10.195-2 13 0 1.397 13.577 10 15 10l1 1h3ZM303 181h2c2.134 0 18-9.587 18-12 0-1.557 1.801-12-2-12 0 7.255-25 18.488-25 23v1c1.296 0 7-2.322 7 0Z"/><path fill="#A9AAA8" id="chpl" d="M360 160c-1.149 0-1.508 4.516-2 5.5l-7 15.5c0 4.321-7.389 12.722-5 17.5 1.674 3.348 6.415-6.831 7-8 4.776-9.551 7-20.146 7-30.5ZM97 161c-2.256 0 0 9.28 0 11 0 3.671 8.581 25.54 11.5 27 3.269 1.634 2.218-4.063 1.5-5.5l-5-13.5-8-19Z"/><path fill="#FF6F80" id="TH" d="M123 177c0-5.746 2.972 0 4 0v-3c-2.6 0-3-2.639-3-5h-7l5 4.5c.523 1.046-.951 3.5 1 3.5Z"/><path fill="#F0483B" id="ZI" d="M169 211h1c1.661 0 20.407 5.314 17-1.5l-10-9.5c0-1.675-6.062-9-8-9l-2-2h-1l-1-1h-1l-1-1c-1.238 0-3-.423-3-2h-1c-1.238 0-3-.423-3-2h-1l-4-2h-1l-1-1c-1.423 0-15-8.603-15-10-5.105 0-4.779 4-7 4v3l4 10 12 9c1.707 0 15.004 8.504 16.5 10 1.171 1.171 4.5.774 4.5 3l4 1 1 1ZM286 211h1l1-1h1l1-1h2l4-2c0-1.577 1.762-2 3-2l4-2c0-1.772 7.346-6 9-6l1-1 1-1 12-9 1-1 2-7v-4c0-2.425-3.884-5-6-5 0 2.413-15.866 12-18 12l-4 2-2 1-2 1-2 1-2 1-1 1-3 1-2 2-1 1-1 1-5 6-1 1-10 10.5c-1.441 2.882 2.414 2.5 4 2.5 4.763 0 8.728-2 13-2Z"/><path fill="#FF6F80" id="TH" d="m331 174 3 3c0-4.358 5-4.9 5-8h-6l-2 5Z"/><path fill="#CACCCB" id="opt" d="M114 172c0 22.603 1.362 19.223 11 38.5.933 1.865 11.271 11.458 12 10 1.097-2.195-4.883-9.883-6.5-11.5-6.278-6.278-7.671-17.842-11.5-25.5-1.111-2.221-1.038-11.5-5-11.5ZM341 172c0 4.949-9.397 27.295-12 32.5l-8 12c-.425.849-3.157 3.672-1.5 4.5 1.882.941 7.632-5.632 9-7 7.435-7.435 9.853-18.207 14.5-27.5 1.048-2.096.562-14.5-2-14.5Z"/><path fill="#97D6F9" id="STR" d="m384 176 2 1v-2c0-1.048.473-3-1-3l-1 4Z"/><path fill="#0D9E90" id="ECT5" d="m47 193 13 4c0-8.232-6-14.582-6-23-4.473 0-7.667-1-13-1v1c0 5.975 5 12.795 5 19h1Z"/><path fill="#97D6F9" id="STR" d="M71 176h2l-2-3v3Z"/><path fill="#0D9E90" id="ECT5" d="m409 194-12 2c0-8.42 5-13.481 5-22l13-1v1c0 6.155-5 13.021-5 19l-1 1Z"/><path fill="#0D9F91" id="ECT2/3" d="m35 192 11 1c0-6.205-5-13.025-5-19H31v1c0 3.852 4 9.015 4 16v1Z"/><path fill="#0E9F91" id="ECT6a" d="M62 197h1c0-2.226 1.774-4 4-4v-13c-1.684 0-1-4.679-1-6H54c0 8.418 6 14.768 6 23h2Z"/><path fill="#0E9F90" id="ECT6b" d="M67 178v2c-1.684 0-1-4.679-1-6h1v4Z"/><path fill="#FD8F9E" id="SubG" d="m127 177 4 10c-3.982 0-8-6.469-8-10 0-5.746 2.972 0 4 0Z"/><path fill="#FF7F82" id="VPLpc" d="m175 187 11 1c0-3.396-4-6.052-4-10-1.522 0-7-2.571-7-4-5.15 0-7.725 7-12 7l1 2h1l1 1h1l1 1h1l4 2h2Z"/><path fill="#FF7E83" id="VPM" d="m282 174-1 1 1-1Z"/><path fill="#FF7F82" id="VPLpc" d="M281 187h2l2-1h1l1-1h1l2-1 1-1h2v-2c-3.973 0-6.514-7-11-7l-1 1-6 3c0 4.015-5 6.644-5 10l11-1Z"/><path fill="#FF6F80" id="TH" d="m331 174-2 4v-4h2Z"/><path fill="#FD8F9E" id="SubG" d="m329 178-2 7c4.188 0 7-4.199 7-8l-3-3-2 4Z"/><path fill="#0E9F90" id="ECT6b" d="M389 178v13c1.804 0 1-14.759 1-17h-1v4Z"/><path fill="#0E9F91" id="ECT6a" d="M394 197h3v-1c0-8.42 5-13.481 5-22h-12c0 2.241.804 17-1 17v2c2.226 0 4 1.774 4 4h1Z"/><path fill="#0D9F91" id="ECT2/3" d="m422 192-12 1c0-5.979 5-12.845 5-19h2c1.49 0 8-.735 8 1l-3 6.5V192Z"/><path fill="#0D9F90" id="ECT1" d="M27 191h8c0-6.985-4-12.148-4-16l-6 1 3 3.5-1 11.5Z"/><path fill="#C8CBCC" id="ec" d="M69 175c0 1.238-.423 3-2 3v-3h2Z"/><path fill="#C8C9CB" id="amc" d="M76 227h3c0-7.666-5.61-25.721-9-32.5-2.895-5.791 1-12.621 1-18.5v-1h-2c0 1.238-.423 3-2 3v12c1.58 0 1 2.855 1 4 0 3.639 3.384 9.268 5 12.5 2.78 5.56 3 13.825 3 20.5Z"/><path fill="#FF6F80" id="TH" d="m216 176 1 1 1-2-2 1ZM241 176l-2 1-1-2 3 1Z"/><path fill="#C8C9CB" id="amc" d="M388 194c0 1.678-3.654 13-5 13 0-4.948 1.889-11.277 4-15.5l-1-14.5v-2l3 3v15l-1 1Z"/><path fill="#0D9F90" id="ECT1" d="M422 191h7l-1-10.5 3-4.5-5-1h-1l-3 6.5v9.5Z"/><path fill="#90EB8D" id="LA" d="M79 232c0 1.424.362 5 2 5 0-7.42 6.07-16 14-16 0-3.707 7.308-4 10-4 0-6.325-16-14.734-16-19 0-1.824-16-15.116-16-22h-2c0 5.879-3.895 12.709-1 18.5 3.39 6.779 9 24.834 9 32.5v5Z"/><path fill="#FE8082" id="VPMpc" d="M186 188c8.052 0 14.928 3 23 3 0-2.634 7-4.253 7-8l1-6-1-1-6.5 2c-6.302 3.151-16.844-2-22.5-2l-5 2c0 3.948 4 6.604 4 10ZM270 188c-7.785 0-14.236 3-22 3-3.225 0-6.815-8-8-8l-1-6 2-1c5.226 0 15.408 5.046 21.5 2l6.5-2 6 2c0 4.015-5 6.644-5 10Z"/><path fill="#97D6F9" id="STR" d="m384 176-1 1 1-1Z"/><path fill="#90EB8D" id="LA" d="M377 233c0 1.048.473 3-1 3 0-6.376-8.235-16-15-16 0-2.869-7.658-3-10-3 0-5.558 16-14.46 16-19l1-1c2.836 0 15-16.924 15-20l1-1 2 1 1 14.5c-2.111 4.223-4 10.552-4 15.5-1.993 0-1.35 5.2-2 6.5-2.01 4.02-3 8.666-3 13.5l-1 6Z"/><path fill="#FF6F80" id="TH" d="m163 181 1 2-4-2v-2l3 2ZM149 180l1 1-1-1Z"/><path fill="#CACCC8" id="ml" d="M173 187h2l3 1.5-3.5.5c-4.229 0-6.69-2-10.5-2h-1l-3-2h-1l-3-2h-1l-2-2c0-2.322 5.704 0 7 0l4 2h1l1 1h1l1 1h1l4 2Z"/><path fill="#FF6F80" id="TH" d="m296 181-3 2v-2l3-1v1Z"/><path fill="#CACCC8" id="ml" d="M292 187h1l2-1 2-1 2-1 2-1 2-2c0-2.322-5.704 0-7 0l-3 2h-2l-1 1-2 1h-1l-1 1h-1l-2 1h-2l-2 1.5 8 .5c0-1.638 3.576-2 5-2Z"/><path fill="#FF6F80" id="TH" d="m153 181 2 2-4-2h2ZM305 181l-4 2 2-2h2ZM156 183l3 2c-1.238 0-3-.423-3-2ZM165 183l1 1-1-1Z"/><path fill="#FF7F84" id="SPFm" d="M217 200h4l1-1 1-1v-3c0-2.599-4.22-12-7-12 0 3.747-7 5.366-7 8 0 3.715 4 5.378 4 8h1l1 1h2ZM235 200h4l5-1 1-1c0-1.812 3-4.82 3-7-3.225 0-6.815-8-8-8 0 3.682-7 7.406-7 12l1 3 1 2Z"/><path fill="#FF6F80" id="TH" d="m291 183-1 1 1-1ZM301 183l-2 1 2-1ZM167 184l1 1-1-1ZM290 184l-2 1 2-1ZM299 184l-2 1 2-1ZM160 185l3 2c-1.238 0-3-.423-3-2ZM169 185l4 2-4-2ZM287 185l-1 1 1-1ZM297 185l-2 1 2-1Z"/><path fill="#FD8F9E" id="SubG" d="m327 185-1 1 1-1Z"/><path fill="#FF6F80" id="TH" d="m285 186-2 1 2-1ZM295 186l-2 1 2-1Z"/><path fill="#E64438" id="HY" d="M164 187v1l-1-1h1Z"/><path fill="#FF6F80" id="TH" d="M211 199h2c0-2.622-4-4.285-4-8-8.072 0-14.948-3-23-3l-11-1 3 1.5-3.5.5c-4.229 0-6.69-2-10.5-2v1h1l1 1h1l2 1h10c12.494 0 17.186.843 27.5 6 1.185.592 4.5 1.012 4.5 3ZM248 191c0 2.18-3 5.188-3 7 3.888 0 7.204-4.352 10.5-6 5.698-2.849 14.688-2 21.5-2h10v-1l-8-.5 2-1.5-11 1c-7.785 0-14.236 3-22 3ZM287 189h2l3-1v-1c-1.424 0-5 .362-5 2Z"/><path fill="#E64438" id="HY" d="m293 187-1 1v-1h1Z"/><path fill="#CCC" d="M125 188c0 15.208 16.488 33.988 27.5 45l13.5 9c.861 0 4.036 2.427 5 .5 2.603-5.206-2.526-11.513-6.5-13.5-5.42-2.71-14.931-7.362-17.5-12.5-4.996-9.992-7.248-28.5-22-28.5Z"/><path fill="#E64438" id="HY" d="m165 188 1 1-1-1Z"/><path fill="#CCC" d="m327 188-3.5 2-6.5 7.5c-8.753 17.506-8.013 23.757-27.5 33.5-2.214 1.107-7.84 10.08-4 12 3.756 1.878 10.102-4.551 13-6 10.173-5.086 24.804-25.108 30.5-36.5 2.293-4.587 5.328-12.5-2-12.5Z"/><path fill="#E64438" id="HY" d="M169 190v1l-2-2 2 1ZM287 190v1l2-2h-2v1Z"/><path fill="#0E9F90" id="ECT6b" d="m67 193 1 1c0-1.145.58-4-1-4v3Z"/><path fill="#F24739" id="FF" d="m183 199-1.5 2-4.5-1c0-1.675-6.062-9-8-9v-1h10c0 .343 4 4.659 4 9Z"/><path fill="#FF64FF" id="MB" d="M208 213c-2.518 0-4.286 2-6 2-3.298 0-19-13.718-19-16 0-4.341-4-8.657-4-9 12.494 0 17.186.843 27.5 6 1.185.592 4.5 1.012 4.5 3v4l-1 2-1 2v4l-1 2ZM249 213c2.25 0 3.376 2 5 2 8.283 0 16.138-16 20-16v-6.5l3-2.5c-6.812 0-15.802-.849-21.5 2-3.296 1.648-6.612 6-10.5 6v1l2 7v4l2 3Z"/><path fill="#F24739" id="FF" d="m280 199-1 1c-1.408 0-5 2.356-5-1v-6.5l3-2.5h10v1l-1 1-1 1-5 6Z"/><path fill="#0E9584" id="PERI1" d="m36 202-6 1c-1.33 0-3-10.03-3-12h8v1l1 10Z"/><path fill="#E64438" id="HY" d="m287 191-1 1 1-1Z"/><path fill="#0E9584" id="PERI1" d="m420 202 7 1c0-4.22 2-7.344 2-12h-7v1l-2 10Z"/><path fill="#0E9583" id="PERI2/3" d="M42 201c-2.124 0-4.436 1-6 1l-1-10 11 1h1c0 3.066 2 4.417 2 7l-7 1Z"/><path fill="#E64438" id="HY" d="m286 192-1 1 1-1Z"/><path fill="#0E9583" id="PERI2/3" d="m415 201 5 1 2-10-12 1-1 1c0 2.483-2 4.026-2 6l8 1Z"/><path fill="#0F9684" id="PERI5" d="M49 200h1l8-2 2-1-13-4c0 3.066 2 4.417 2 7Z"/><path fill="#A0EE9C" id="EPd" d="M76 231c-2.424 0-2.76 2-4 2l-5-8 2.5 2c1.568 0-2.227-5.954-2.5-6.5-1.323-2.645-.643-6.286-2-9-.878-1.756-.213-14.5-2-14.5 0-2.226 1.774-4 4-4l1 1c0 3.639 3.384 9.268 5 12.5 2.78 5.56 3 13.825 3 20.5v4Z"/><path fill="#FF6F80" id="TH" d="M228 194h1c0-1.186-1-1.186-1 0Z"/><path fill="#0E9F90" id="ECT6b" d="m389 193-1 1 1-1Z"/><path fill="#A0EE9C" id="EPd" d="M381 231c1.238 0 3 .423 3 2l4-6c-2.624 0 1.456-7.411 2-8.5l3-21.5c0-2.226-1.774-4-4-4l-1 1c0 1.678-3.654 13-5 13 0 7.048-3 12.685-3 20l1 4Z"/><path fill="#0F9684" id="PERI5" d="m410 193-1 1 1-1Z"/><path fill="#FF64FF" id="MB" d="M225 197c.752 0 6 4.005 6 0v-1l-2-2h-1c0 1.577-1.762 2-3 2v1Z"/><path fill="#0F9684" id="PERI5" d="m398 198 9 2c0-1.974 2-3.517 2-6l-12 2v1l1 1Z"/><path fill="#97D6F9" id="STR" d="m128 238-1 1-10-5-2-3-3-5c0-3.178-3.179-9-7-9 0-6.325-16-14.734-16-19l6.5 1c1.31-.655 6.073-4 6.5-4 0 8.947 5.427 17.964 13.5 22 2.041 1.02 14.5 1.468 14.5 4-3.913 0-3 6.556-3 9-1.991 0-2.931-4.284-5.5-3-3.711 1.856-.648 8.676 2 10 2.116 1.058 2.898-2 4.5-2v3Z"/><path fill="#FF6F80" id="TH" d="M223 197h2v-1l-2-1v2ZM231 197l3 1-1-3-2 1v1Z"/><path fill="#E64438" id="HY" d="m314 195-1 1 1-1ZM163 209h1c0-2.226-3.329-1.829-4.5-3-1.496-1.496-14.793-10-16.5-10l5 7c6.105 0 10.326 6 15 6ZM313 196l-1 1 1-1Z"/><path fill="#97D6F9" id="STR" d="m338 235-5 2 4-4.5c.839-1.679-1.457-6.522-3.5-5.5l-4.5 4v-8.5l-2-1.5v-1c9.123 0 20.873-5.246 25-13.5l1-7 2-3.5 6.5 3 5.5-1c0 4.54-16 13.442-16 19-3.383 0-6 5.045-6 8l-1 1v1l-2 4-4 4Z"/><path fill="#32B824" id="ENTl6a" d="M62 201c-1.714 0-1 5.594-1 7-.889 0-3-8.743-3-10l2-1h2v4Z"/><path fill="#C9C8CA" id="ee" d="M67 224v1l2.5 2c1.568 0-2.227-5.954-2.5-6.5-1.323-2.645-.643-6.286-2-9-.878-1.756-.213-14.5-2-14.5h-1v4c0 6.515 3 12.276 3 18v2l1 1v1l1 1Z"/><path fill="#E64438" id="HY" fill-rule="evenodd" d="M227 203c0 1.726-1.016 12 1.5 12 .183 0 2.328-12-1.5-12m-6-3c4.532 0 4.548 14.596 6 17.5l1.5 4.5.5-2.5c1.641-3.283 2-6.496 2-10.5 0-2.967 4-7.436 4-9l-1-2-3-1c0 4.005-5.248 0-6 0h-2v1l-1 1-1 1Z"/><path fill="#E64438" id="HY" d="M303 203c1.424 0 5-1.762 5 0 1.32 0 4-4.394 4-6-1.654 0-9 4.228-9 6Z"/><path fill="#97D6F9" id="STR" d="m368 197-1 1 1-1Z"/><path fill="#C9C8CA" id="ee" d="m389 226-1 1c-2.624 0 1.456-7.411 2-8.5l3-21.5h1v2c0 5.605-1 10.861-1 16v2l-1 1v1l-1 1v2l-1 1v1l-1 1v1Z"/><path fill="#32B824" id="ENTl6a" d="M394 199c1.763 0 1 8.343 1 10 1.612 0 3-9.304 3-11l-1-1h-3v2Z"/><path fill="#31B824" id="ENTl5" d="M63 215c-1.946 0-5.623 3-8 3 0-4.956-5-12.16-5-18l8-2c0 1.257 2.111 10 3 10l2 7Z"/><path fill="#FF6F80" id="TH" d="m223 198-1 1 1-1ZM244 199h1v-1l-1 1Z"/><path fill="#31B824" id="ENTl5" d="M394 215c0 1.267 5.853 3 7 3 0-3.03 6-14.134 6-18l-9-2c0 1.696-1.388 11-3 11l-1 6Z"/><path fill="#E64438" id="HY" d="m210 225-4 4c0-4.439-7.363-9.568-12.5-7l-2.5 2c0-5.794-11.337-9-16-9l-5-4c1.661 0 20.407 5.314 17-1.5l-10-9.5 4.5 1 1.5-2c0 2.282 15.702 16 19 16 0 6.329 1.057 10 8 10ZM217 200l-6 3v-4h3l1 1h2Z"/><path fill="#FF6F80" id="TH" d="m214 199 1 1-1-1Z"/><path fill="#E64438" id="HY" d="M239 200c0 1.951 2.454.477 3.5 1l4.5 5-2-7h-1l-5 1ZM266 225c-.838 0-15-9.504-15 5-1.811 0-4-3.438-4-5h1c0 1.186 1 1.186 1 0 6.675 0 5-6.686 5-10 8.283 0 16.138-16 20-16 0 3.356 3.592 1 5 1l-10 10.5c-1.441 2.882 2.414 2.5 4 2.5 4.763 0 8.728-2 13-2 0 1.429-3.939 4-5 4l-1 1c-6.006 0-14 1.795-14 9ZM280 199l-1 1 1-1Z"/><path fill="#A0EE9C" id="EPd" d="M393 215h1l1-6c0-1.657.763-10-1-10 0 5.605-1 10.861-1 16Z"/><path fill="#32B725" id="ENTl3" d="m55 218-8 2-5-19 7-1h1c0 5.84 5 13.044 5 18Z"/><path fill="#FD4B3C" id="PH" d="M232 247c2.489 0 3.546 8.977 9.5 6l5.5-6c0-3.095 1.386-8 5-8l1-2-2-7c-1.811 0-4-3.438-4-5-4.567 0-2-6.574-2-9l1-1 1-1v-8l-4.5-5c-1.046-.523-3.5.951-3.5-1h-4c0 1.564-4 6.033-4 9 0 4.004-.359 7.217-2 10.5l-.5 2.5-1.5-4.5c-1.452-2.904-1.468-17.5-6-17.5h-4l-6 3-1 2-1 2v4l1 4c2.826 0 2.826 10 0 10l-4 4v1l-1 1-2 6 2 2c2.757 0 5 5.394 5 8 0 3.286 5.958 7.771 9.5 6l4.5-6 3-6c0-4.028 2-6.478 2-1 1.732 0 3 5.353 3 7Z"/><path fill="#32B725" id="ENTl3" d="m401 218 8 2 6-19-8-1c0 3.866-6 14.97-6 18Z"/><path fill="#32B825" id="ENTl2" d="m47 220-5 2c0-4.063-6-13.515-6-20 1.564 0 3.876-1 6-1l5 19Z"/><path fill="#A0EE9C" id="EPd" d="m63 215 2 4c0-5.724-3-11.485-3-18-1.714 0-1 5.594-1 7l2 7Z"/><path fill="#32B825" id="ENTl2" d="m409 220 6 2c0-6.357 5-12.782 5-20l-5-1-6 19Z"/><path fill="#32B722" id="ENTl1" d="M42 222c-1.658 0-3 1.461-3 3-1.845 0-1.44-3.381-2-4.5-2.357-4.715-7-12.093-7-17.5l6-1c0 6.485 6 15.937 6 20Z"/><path fill="#F1473B" id="STN" d="m171 220 5 8.5c1.081 2.161-1 4.894-1 6.5l-7-7.5c-5.705-5.705-20-17.618-20-24.5 6.105 0 10.326 6 15 6 0 1.114 2.034 4 3 4l1 1 2 3 1 1 1 2ZM281 235h1l6.5-7c6.367-6.367 19.5-16.072 19.5-25 0-1.762-3.576 0-5 0 0 2.109-2.535 2-4 2 0 1.577-1.762 2-3 2l-2 2-5 6-1 1-1 1v1l-1 1-1 1-1 1c0 1.945-3 7.676-3 14Z"/><path fill="#32B722" id="ENTl1" d="M415 222c0 1.481 2 .785 2 3l3-4.5 7-17.5-7-1c0 7.218-5 13.643-5 20Z"/><path fill="#E64438" id="HY" d="m211 203-1 2 1-2Z"/><path fill="#A8A9AA" id="V3" d="M227 203c0 1.726-1.016 12 1.5 12 .183 0 2.328-12-1.5-12Z"/><path fill="#E64438" id="HY" d="m303 203-4 2c1.465 0 4 .109 4-2ZM210 205l-1 2 1-2ZM299 205c-1.238 0-3 .423-3 2 1.238 0 3-.423 3-2ZM292 209h2l2-2-4 2Z"/><path fill="#C8C9CB" id="amc" d="M378 227h2c0-7.315 3-12.952 3-20-1.993 0-1.35 5.2-2 6.5-2.01 4.02-3 8.666-3 13.5Z"/><path fill="#CCCACB" id="nst" d="m170 218 1 2 4.5 3c4.338 0-.5-7.742-.5-8l-5-4h-1l-1-1-4-1h-1c0 1.114 2.034 4 3 4l1 1 2 3 1 1Z"/><path fill="#E64438" id="HY" d="m290 209-1 1 1-1Z"/><path fill="#CCCACB" id="nst" d="m285 220-1 1-2.5 2c-4.326 0-1.5-5.123-1.5-7l1-1c1.061 0 5-2.571 5-4h1l1-1h1l1-1h4l-5 6-1 1-1 1v1l-1 1-1 1Z"/><path fill="#E64438" id="HY" d="m168 210 1 1-1-1ZM249 213l-2 1v-4l2 3ZM288 210l-1 1 1-1ZM208 213l2 2-1-4-1 2ZM166 213l1 1-1-1Z"/><path fill="#C7C9CC" id="mtt" d="M210 215c2.826 0 2.826 10 0 10-6.943 0-8-3.671-8-10 1.714 0 3.482-2 6-2l2 2ZM248 225h1c6.675 0 5-6.686 5-10-1.624 0-2.75-2-5-2l-2 1-1 1-1 1c0 2.426-2.567 9 2 9h1Z"/><path fill="#E64438" id="HY" d="m247 214-1 1 1-1Z"/><path fill="#6ACAB9" id="PIR" d="M83 270c0 5.615-9 13.716-9 18-2.016 0-9.022-10.544-10-12.5-2.379-4.757-6.639-8.277-9-13-4.531-9.062-7.514-19.028-12-28l-4-9.5c0-1.539 1.342-3 3-3l5-2 8-2c2.377 0 6.054-3 8-3l2 4v2l1 1v1l1 1v1l5 8c0 9.764 10 26.35 10 31 0 1.564 1 3.876 1 6Z"/><path fill="#F1483A" id="PSTN" d="m175 237 2 2c7.157 0 14-8.208 14-15 0-5.794-11.337-9-16-9 0 .258 4.838 8 .5 8l-4.5-3 5 8.5c1.081 2.161-1 4.894-1 6.5v2Z"/><path fill="#E64438" id="HY" d="m246 215-1 1 1-1Z"/><path fill="#F1483A" id="PSTN" d="m281 215-1 1 1-1Z"/><path fill="#E64438" id="HY" d="m289 215-1 1 1-1Z"/><path fill="#6ACAB9" id="PIR" d="M373 270c0 2.981 7.235 17 10 17 2.837 0 8.889-10.277 10-12.5l8-11c3.773-7.545 16-30.968 16-38.5 0-2.215-2-1.519-2-3l-6-2-8-2c-1.147 0-7-1.733-7-3h-1v2l-1 1v1l-1 1v2l-1 1v1l-1 1v1l-1 1-4 6c0 6.685-2.162 15.825-5 21.5l-5 9.5-1 1v5Z"/><path fill="#F1483A" id="PSTN" d="m281 238-2 1c-6.672 0-13-7.673-13-14 0-7.205 7.994-9 14-9 0 1.877-2.826 7 1.5 7l2.5-2c0 1.945-3 7.676-3 14v3ZM288 216l-1 1 1-1Z"/><path fill="#9DE79B" id="BLAa" d="M111 230c0 1.778-6.332 4-8 4-3.728 0-8-9.71-8-13 0-3.707 7.308-4 10-4 3.821 0 7 5.822 7 9l-1 4Z"/><path fill="#F1483A" id="PSTN" d="m169 217 1 1-1-1Z"/><path fill="#9DE79B" id="BLAa" d="M345 230c2.665 0 5.362 4 9 4 4.296 0 7-11.476 7-14 0-2.869-7.658-3-10-3-3.383 0-6 5.045-6 8l-1 1v1l1 3Z"/><path fill="#A0EE9C" id="EPd" d="m393 217-1 1 1-1Z"/><path fill="#F1483A" id="PSTN" d="m287 218-1 1 1-1ZM286 219l-1 1 1-1Z"/><path fill="#A0EE9C" id="EPd" d="m392 219-1 1 1-1Z"/><path fill="#9DE69C" id="BLAp" d="M365 250h4l2-1c3.451 0 5-10.15 5-13 0-6.376-8.235-16-15-16 0 2.524-2.704 14-7 14l9 15 2 1Z"/><path fill="#A0EE9C" id="EPd" d="m65 221 1 1-1-1Z"/><path fill="#9DE69C" id="BLAp" d="M87 250h4l2-1 1-1c0-3.154 9-12.098 9-14-3.728 0-8-9.71-8-13-7.93 0-14 8.58-14 16 0 5.195 4 9.477 4 12l2 1Z"/><path fill="#80BFE1" id="MEA" d="M163 256c0 3.9-4.362 7-8 7 0-14.628-15.163-17.331-24.5-22l-2.5-3v-3l-1-5c0-2.444-.913-9 3-9h1l1 1 2 1h1l1 1 11 8 1 1c3.953 0 5.466 6 9 6l1 1c0 1.965 5 10.431 5 16Z"/><path fill="#97D6F9" id="STR" d="m131 221 1 1-1-1ZM326 221l-1 1v-1h1Z"/><path fill="#80BFE1" id="MEA" d="M293 256c0 3.469 4.722 7 8 7l2-3.5c7.738-15.476 8.724-11.612 22.5-18.5l2.5-2v-4l1-4v-8.5l-2-1.5h-1l-1 1h-2l-1 1-21 15-1 1h-1l-1 2h-1c0 4.75-4 10.028-4 15Z"/><path fill="#F2483A" id="LHA" d="m190 253-3.5 2c-3.599 1.799-10.356-1-13.5-1 0-2.16-2-4.167-2-7 0-1.238 1.923-5 3-5l1-1 2-2c7.157 0 14-8.208 14-15l2.5-2c5.137-2.568 12.5 2.561 12.5 7v1l-1 1-2 6-2 4v1l-1 2c-1.482 0-1.576 5-5 5-2.121 0-5 1.693-5 4ZM284 253l-1 1c-3.144 0-9.901 2.799-13.5 1l-3.5-2c0-2.548-2.687-4-5-4-5.18 0-3.915-12-8-12l-2-7c0-14.504 14.162-5 15-5 0 6.327 6.328 14 13 14l4 3 3 6-2 5Z"/><path fill="#A0EE9C" id="EPd" d="m391 222-1 1 1-1Z"/><path fill="#99D2BD" id="OLF" d="m66 223 1 1-1-1Z"/><path fill="#A0EE9C" id="EPd" d="m390 224-1 1 1-1Z"/><path fill="#C8CBCA" id="pm" d="M248 225h1c0 1.186-1 1.186-1 0Z"/><path fill="#8AD987" id="CTXsp" d="m345 225-1 1 1-1ZM111 230l4 1-3-5-1 4Z"/><path fill="#A0EE9C" id="EPd" d="m389 226-1 1 1-1Z"/><path fill="#8AD987" id="CTXsp" d="m76 231 3 1v-5h-3v4Z"/><path fill="#C8CBC7" id="st" d="M127 230c-1.991 0-2.931-4.284-5.5-3-3.711 1.856-.648 8.676 2 10 2.116 1.058 2.898-2 4.5-2l-1-5ZM328 235c1.624 0 2.75 2 5 2l4-4.5c.839-1.679-1.457-6.522-3.5-5.5l-4.5 4-1 4Z"/><path fill="#8AD987" id="CTXsp" d="m345 230-3 1 2-4 1 3ZM381 231l-4 2 1-6h2l1 4Z"/><path fill="#84E981" id="BMAp" d="m100 265 3 1c2.415 0 20-20.443 20-22 0-4.466-6-6.629-6-10l-2-3-4-1c0 1.778-6.332 4-8 4 0 1.902-9 10.846-9 14l-1 1v1c0 4.502 7 9.973 7 15Z"/><path fill="#E64438" id="HY" d="m206 230-1 1 1-1Z"/><path fill="#84E981" id="BMAp" d="m356 265-3 1c-1.729 0-20-20.39-20-23l5-8 4-4 3-1c2.665 0 5.362 4 9 4l9 15v2l-7 14Z"/><path fill="#A0ED9D" id="EPv" d="M83 264h1l1-13v-2c0-2.523-4-6.805-4-12-1.638 0-2-3.576-2-5l-3-1c-2.424 0-2.76 2-4 2 0 9.764 10 26.35 10 31h1ZM373 264h1l5-9.5c2.838-5.675 5-14.815 5-21.5 0-1.577-1.762-2-3-2l-4 2c0 1.048.473 3-1 3 0 2.85-1.549 13-5 13v2c0 3.823 1 8.586 1 13h1Z"/><path fill="#8AD987" id="CTXsp" d="M127 239c0 1.562-2.189 5-4 5 0-4.466-6-6.629-6-10l10 5Z"/><path fill="#E64438" id="HY" d="m282 235-1 1v-1h1Z"/><path fill="#97D6F9" id="STR" d="M328 239h1l4-2c-2.25 0-3.376-2-5-2v4Z"/><path fill="#8AD987" id="CTXsp" d="M329 239c0 1.797 2.203 4 4 4l5-8-5 2-4 2Z"/><path fill="#E64438" id="HY" d="M227 243h2v-3c0-5.478-2-3.028-2 1v2ZM177 239l-2 2v-4l2 2ZM205 239l-4 2 2-4 2 2ZM232 269h1v-10.5c.893-1.785 6 .261 6 1.5.235 0 3.926-5.213 5.5-6 1.862-.931 22.5 3.745 22.5 7l6.5-5c1.94-.97 7.5.824 7.5 3 1.638 0 2-3.576 2-5-3.144 0-9.901 2.799-13.5 1l-3.5-2c0 3.473-4.661 3.178-6 .5l1-4.5c-5.18 0-3.915-12-8-12l-1 2c1.829 0 1.35.2 2 1.5.881 1.761 3.246 4.507 2 7-.632 1.264-9 .843-9-.5l-5.5 6c-5.954 2.977-7.011-6-9.5-6v22Z"/><path fill="#97EC93" id="PA" d="M103 267h11c1.6 0 16.576-10.538 19.5-12 9.731-4.866 16.171 8 21.5 8 0-14.628-15.163-17.331-24.5-22l-2.5-3-1 1c0 1.562-2.189 5-4 5 0 1.557-17.585 22-20 22v1Z"/><path fill="#E64438" id="HY" d="m279 239 4 3-2-4-2 1Z"/><path fill="#FC4C3E" id="PMd" d="M200 244c0 6.778 6.378 3 10 3 0-2.606-2.243-8-5-8l-4 2v1l-1 2ZM252 239c1.829 0 1.35.2 2 1.5.881 1.761 3.246 4.507 2 7-.632 1.264-9 .843-9-.5 0-3.095 1.386-8 5-8Z"/><path fill="#97EC93" id="PA" d="M353 267c-1.657 0-10-.763-10 1l-5.5-5c-8.796-4.398-20.511-13.489-30-4l-5.5 5-1-1 2-3.5c7.738-15.476 8.724-11.612 22.5-18.5l2.5-2h1c0 1.797 2.203 4 4 4 0 2.61 18.271 23 20 23v1Z"/><path fill="#7DCD4B" id="HPF" d="M168 250c0 3.313-1.457 6-5 6 0-5.569-5-14.035-5-16 1.546 0 10 5.451 10 7v1l-2.5-2c-1.084 0-3.782 4 2.5 4Z"/><path fill="#FD5D50" id="PVi" d="M229 269h3v-22c0-1.647-1.268-7-3-7v29Z"/><path fill="#7DCD4B" id="HPF" d="M297 241h1v-1l-1 1Z"/><path fill="#E64438" id="HY" d="m175 241-1 1 1-1Z"/><path fill="#FD5D50" id="PVi" d="M224 269h3v-28l-3 6v22Z"/><path fill="#7DCD4B" id="HPF" d="M289 249c-2.65 0 1.025 7 4 7 0-4.972 4-10.25 4-15l-8 5v1l2.5-1c2.777 1.388-2.5 8.453-2.5 3Z"/><path fill="#E64438" id="HY" d="m201 242-1 2 1-2Z"/><path fill="#A8A9AA" id="V3" d="M227 269c0 10.27 2 10.597 2 0v-26h-2v26Z"/><path fill="#E64438" id="HY" d="M217 260c1.791 0 2.959-3.27 5.5-2l1.5 2v-13l-4.5 6c-3.542 1.771-9.5-2.714-9.5-6-3.622 0-10 3.778-10-3-1.482 0-1.576 5-5 5 0 2.791 2.683 2.135 1 5.5-.952 1.904-6 1.208-6-1.5l-3.5 2c-3.599 1.799-10.356-1-13.5-1l3 6c0-10.119 11.033 0 13 0 0-4.703 8.188-1.844 10.5-3 4.535-2.268 17.5-5.964 17.5 3Z"/><path fill="#7BD04A" id="DG-mo" d="m168 248-2.5-2c-1.084 0-3.782 4 2.5 4v-2ZM289 247l2.5-1c2.777 1.388-2.5 8.453-2.5 3v-2Z"/><path fill="#8AD987" id="CTXsp" d="m94 248-1 1 1-1ZM87 250l-2 1v-2l2 1ZM91 250h2v-1l-2 1Z"/><path fill="#C7C8CA" id="fx" d="M195 249c-2.121 0-5 1.693-5 4 0 2.708 5.048 3.404 6 1.5 1.683-3.365-1-2.709-1-5.5ZM261 249c2.313 0 5 1.452 5 4 0 3.473-4.661 3.178-6 .5l1-4.5Z"/><path fill="#8AD987" id="CTXsp" d="m365 250-2 1v-2l2 1ZM369 250l2 1v-2l-2 1Z"/><path fill="#9CE79C" id="BLAv" d="m96 273-3 1c-3.482 0-5.416-4-8-4l-1-5v-1l1-13 2-1h6c0 4.502 7 9.973 7 15v4l-1 1-3 3ZM360 273l3 1c3.482 0 5.416-4 8-4l1-5v-1c0-4.414-1-9.177-1-13l-2-1h-4l-2 1-7 14 1 4v1l1 1 2 2Z"/><path fill="#E64438" id="HY" d="m284 253-1 1 1-1Z"/><path fill="#FF4B3B" id="PMv" d="M203 275c1.947 0 3.644 3.428 6.5 2 1.619-.809 1.471-2 3.5-2l3-5 1-3v-7c0-8.964-12.965-5.268-17.5-3-2.312 1.156-10.5-1.703-10.5 3 0 4.123 14 13.17 14 15ZM244 275l3.5 2 5.5-1c0-3.316 14-10.825 14-15 0-3.255-20.638-7.931-22.5-7-1.574.787-5.265 6-5.5 6v8l2 3 3 4Z"/><path fill="#60E6B5" id="COApm" d="M114 267c0 9.02 6 16.29 6 22 1.785 0 28.215-19.93 29-21.5l6-4.5c-5.329 0-11.769-12.866-21.5-8-2.924 1.462-17.9 12-19.5 12ZM343 268c0 5.701-2.602 11.703-5 16.5-.559 1.119-.155 4.5-2 4.5l-34-25 5.5-5c9.489-9.489 21.204-.398 30 4l5.5 5Z"/><path fill="#FF4C3E" id="TMv" d="M197 280h1c3.993 0 5-1.186 5-5 0-1.83-14-10.877-14-15-1.967 0-13-10.119-13 0 0 6.875 13.435 19 20 19l1 1ZM253 276c0 3.591 3.117 4 6 4 7.039 0 22-13.51 22-21 0-2.176-5.56-3.97-7.5-3l-6.5 5c0 4.175-14 11.684-14 15Z"/><path fill="#FE5445" id="DMH" d="M219 269h4l1-2v-7l-1.5-2c-2.541-1.27-3.709 2-5.5 2v7l2 2ZM233 269h5l1-1v-8c0-1.239-5.107-3.285-6-1.5V269Z"/><path fill="#99D2BD" id="OLF" d="M83 270h2l-1-5-1-1h-1c0 1.564 1 3.876 1 6Z"/><path fill="#8AD987" id="CTXsp" d="M84 264v1l-1-1h1ZM372 265h1v-1h-1v1Z"/><path fill="#99D2BD" id="OLF" d="m374 264-1 1v-1h1Z"/><path fill="#8AD987" id="CTXsp" d="m101 268-1 1v-4l3 1v1l-2 1ZM356 269h1l-1-4-3 1v1h1l2 2Z"/><path fill="#99D2BD" id="OLF" d="M371 270h2v-5h-1l-1 5Z"/><path fill="#97EC93" id="PA" d="m103 267-2 1 2-1Z"/><path fill="#5FE6B7" id="COApl" d="M92 295v2c5.89 0 28-.648 28-8 0-5.71-6-12.98-6-22h-11l-2 1-1 1-1 1-3 3-1 3c0 6.906-3 12.603-3 19Z"/><path fill="#E64438" id="HY" d="m219 269-3 1 1-3 2 2ZM223 269h1v-2l-1 2Z"/><path fill="#5FE6B7" id="COApl" d="M365 295v1c0 1.735-6.51 1-8 1-4.383 0-21-3.445-21-8 1.845 0 1.441-3.381 2-4.5 2.398-4.797 5-10.799 5-16.5 0-1.763 8.343-1 10-1h1l2 2h1v1l1 1 2 2 2 4c0 5.703 3 13.682 3 18Z"/><path fill="#97EC93" id="PA" d="m354 267 2 2-2-2Z"/><path fill="#E64438" id="HY" d="m238 269 3 2-2-3-1 1Z"/><path fill="#97EC93" id="PA" d="m100 269-1 1 1-1Z"/><path fill="#FF5447" id="PVp" d="M234 286c1.048 0 3-.473 3 1l11-2 1-1c0-3.347-5-5.288-5-9l-3-4-3-2h-9c0 10.597-2 10.27-2 0h-8l-3 1-3 5c0 2.992-5 5.668-5 9 0 2.406 9.841 3 12 3l2-1h5l1-1 1 1h5Z"/><path fill="#59D9AA" id="PAA" d="m92 295-1 1c-3.329 0-17-4.447-17-8 0-4.284 9-12.385 9-18h2c2.584 0 4.518 4 8 4l2 2c0 6.906-3 12.603-3 19Z"/><path fill="#8AD987" id="CTXsp" d="m357 270 1 1-1-1Z"/><path fill="#59D9AA" id="PAA" d="m365 295 1 1c3.354 0 17-4.942 17-9-2.765 0-10-14.019-10-17h-2c-2.584 0-4.518 4-8 4l-1 3c0 5.703 3 13.682 3 18Z"/><path fill="#99D2BD" id="OLF" d="m93 274 2 2 1-3-3 1ZM363 274l-1 3-2-4 3 1Z"/><path fill="#E64438" id="HY" d="M198 280c0 1.165 8.453 4 10 4 0-3.332 5-6.008 5-9-2.029 0-1.881 1.191-3.5 2-2.856 1.428-4.553-2-6.5-2 0 3.814-1.007 5-5 5ZM259 280c0 .411-8.864 4-10 4 0-3.347-5-5.288-5-9l3.5 2 5.5-1c0 3.591 3.117 4 6 4ZM196 279l1 1-1-1ZM249 284l-1 1 1-1ZM227 286h1v-1l-1 1ZM222 286l-2 1 2-1Z"/><path fill="#F1473A" id="ME" d="m220 287-1 5.5c2.418 4.836 15.585 5.831 18 1 1.081-2.161-1-4.894-1-6.5l-2-1h-12l-2 1Z"/><path fill="#E64438" id="HY" d="M236 287h1c0-1.473-1.952-1-3-1l2 1Z"/><path fill="#99D2BD" id="OLF" d="m91 296 1 1v-2l-1 1ZM365 296h1l-1-1v1Z"/></svg>