<svg xmlns="http://www.w3.org/2000/svg" viewBox="0 0 456 320"><path fill="#FCFB90" id="CUL4, 5" d="M241 70h1v-1c0-1.145-.579-4 1-4 0-1.238.423-3 2-3v-1l1-1 1-1v-1l1-1 1-2 1-2 1-1v-1l1-1 1-1 1-1 1-1 1-1h1c0-2.306-7.746-5.123-9.5-6-4.18-2.09-33.82-2.09-38 0-2.146 1.073-9.5 2.035-9.5 6l2 1 1 1 1 2c1.391 0 5 5.706 5 7v1c2.065 0 5 7.264 5 9v1l1 2h26Z"/><path fill="#FF64FF" id="MB" d="M179 95h1l1-1h1l1-1h1l1-1 2-1c0-.994 5.757-4 7-4 0-1.577 1.762-2 3-2l2-2h1l1-1 1-1 1-1 2-1 1-1 1-1h1l1-1 1-1h1l1-1 1-1 1-1v-5l-5-9v-1c-1.391 0-5-5.706-5-7l-1-2-1-1-2-1c-1.574 0-9-.751-9 1 6.871 0 17 7.63 17 15 0 2.577 4 7.15 4 9.5l-4 3c-2.341 2.341-10.64 8.5-14 8.5 0 1.727-5.244 3.372-6.5 4-6.345 3.173-11.056-1.612-14.5-8.5-1.674-3.348-6.116-13.767-4-18 .936-1.873 3-3.23 3-5.5-3.746 0-5.676 8-9 8v1l-1 1v3l1 1v1l1 1 1 1 2 2v1l2 2v1c1.577 0 2 1.762 2 3v1l2 2v1l1 2v1l1 2v1l1 1 1 3h2Z"/><path fill="#F0F080" id="CB" d="m256 46-1 1 1-1Z"/><path fill="#FF64FF" id="MB" d="M278 95h1v-1l1-1 1-1v-1l1-2 1-2v-2l1-1 1-2v-1l1-1 1-1v-1l1-1 1-2 1-2 1-1 1-1 1-1 1-1v-1l1-1v-1l-1-1v-1c-3.338 0-9.249-13-15-13l7 6.5c2.277 4.554 1.468 13.064-1 18-3.24 6.48-8.396 15.052-15.5 11.5-1.426-.713-6.5-1.764-6.5-4-1.269 0-17.767-10.035-18-10.5l3-9.5 1-1v-1c0-6.745 8.541-11.52 13.5-14l8.5 1c0-2.161-11.652-2-14-2h-1l-1 1-1 1-1 1-1 1-1 1v1l-1 1-1 2-1 2-1 1v1l-1 1-1 1v1c0 1.238-.423 3-2 3 0 1.145.579 4-1 4v1l3 4 4 3 2 2h1c.938 0 15.869 10.684 18.5 12 1.243.621 5.5 2.356 5.5 4h2ZM191 47c-1.235 0-5-.643-5 1 1.235 0 5 .643 5-1Z"/><path fill="#FE79FE" id="ICe" d="M208 62c-6.811 0-13.134-.233-17 7.5-1.53 3.06-.328 13.5 3 13.5 0 1.727-5.244 3.372-6.5 4-6.345 3.173-11.056-1.612-14.5-8.5-1.674-3.348-6.116-13.767-4-18 .936-1.873 3-3.23 3-5.5l1-1 1-1h1l1-1 1-1h1l1-1 7-2c1.235 0 5 .643 5-1 6.871 0 17 7.63 17 15Z"/><path fill="#F0F080" id="CB" d="m202 47 1 1-1-1ZM255 47l-1 1 1-1Z"/><path fill="#FE79FE" id="ICe" d="M249 61c7.225 0 12.593 1.686 16 8.5 1.036 2.071 1.591 13.5-2 13.5 0 2.236 5.074 3.287 6.5 4 7.104 3.552 12.26-5.02 15.5-11.5 2.468-4.936 3.277-13.446 1-18l-7-6.5h-1l-2-2-5-1-8.5-1c-4.959 2.48-13.5 7.255-13.5 14Z"/><path fill="#F0F080" id="CB" d="m254 48-1 1 1-1ZM253 49l-1 1 1-1Z"/><path fill="#FF64FF" id="MB" d="m276 49 2 2-2-2ZM179 50l-1 1 1-1Z"/><path fill="#F0F080" id="CB" d="M204 50c1.391 0 5 5.706 5 7-1.391 0-5-5.706-5-7ZM252 50l-1 1 1-1Z"/><path fill="#FF64FF" id="MB" d="m177 51-1 1 1-1ZM176 52l-1 1 1-1Z"/><path fill="#F0F080" id="CB" d="m251 52-1 1 1-1Z"/><path fill="#FDFB8F" id="SIM" d="M119 143c0-2.62 6.904-35.308 8-37.5l4-9.5 2-14 1.5-4 1.5 4.5-2 13c-4.736 9.471-15.717 50.5 3 50.5 0-1.698 1.195-5.89 2-7.5v-15c4.175-8.349 5.706-19.412 10-28L162 69v-2c-1.399 0-1.399-2 0-2l1-1v-1c0-5.935-10.137-13.181-16.5-10-2.716 1.358-6.388.694-9 2-8.351 4.176-17.389 7.389-24.5 14.5-2.08 2.08-8 6.658-8 9.5 0 16.92-1.438 36.625 6 51.5.992 1.984 5.907 12.5 8 12.5Z"/><path fill="#FF64FF" id="MB" d="m174 53-1 1 1-1Z"/><path fill="#F0F080" id="CB" d="m250 53-1 2 1-2Z"/><path fill="#FDFB8F" id="SIM" d="M338 143c-4.023 0-1.857-10.214-3-12.5-4.49-8.979-4.592-25.185-10-36-1.124-2.247-2-9.62-2-12l-1.5-4.5-.5 5c0 5.72 2 9.76 2 15 0 10.069 18.981 48-4 48 0-19.931-5.704-38.909-14-55.5L294 69v-1l1-1v-1l-1-1v-1c0-23.417 40.086-3.414 47.5 4 2.582 2.582 9.5 6.738 9.5 11 0 9.965 2.377 33.747-2 42.5-2.402 4.804-3.581 10.162-6 15-.864 1.728-5 3.581-5 6.5Z"/><path fill="#FF64FF" id="MB" d="m173 54-1 1 1-1Z"/><path fill="#F0F080" id="CB" d="m249 55-1 2 1-2ZM248 57l-1 1 1-1ZM209 58c2.065 0 5 7.264 5 9l-5-9ZM247 59l-1 1 1-1ZM246 60l-1 1 1-1Z"/><path fill="#FE79FF" id="ICd" d="M208 62c-6.811 0-13.134-.233-17 7.5-1.53 3.06-.328 13.5 3 13.5 3.36 0 11.659-6.159 14-8.5l4-3c0-2.35-4-6.923-4-9.5ZM248 63l-3 9.5c.233.465 16.731 10.5 18 10.5 3.591 0 3.036-11.429 2-13.5-3.407-6.814-8.775-8.5-16-8.5v1l-1 1Z"/><path fill="#F0F080" id="CB" d="M245 62c-1.577 0-2 1.762-2 3 1.577 0 2-1.762 2-3Z"/><path fill="#FE79FE" id="ICe" d="m249 62-1 1 1-1Z"/><path fill="#F0F080" id="CB" d="m163 64-1 1 1-1ZM162 65c-1.399 0-1.399 2 0 2v-2ZM243 65c-1.579 0-1 2.855-1 4 1.579 0 1-2.855 1-4ZM294 65l1 1-1-1ZM295 67l-1 1 1-1ZM162 69h1l-1-1v1ZM215 70l-1 2v-4l1 2Z"/><path fill="#FCFB90" id="CUL4, 5" d="M156 135c-1.579 0-1-2.855-1-4 0-3.902.34-9.181 2-12.5l-.5-3.5c-2.826 0-1.562 13.625-2.5 15.5-3.852 7.705-6.32 15.5-17 15.5 0-1.698 1.195-5.89 2-7.5v-15c4.175-8.349 5.706-19.412 10-28L162 69h1v1l1 1 1 1 2 2v1l2 2v1l2 3v1l2 2v1l1 2v1l1 2v1l1 1 1 3c0 6.848-9.719 23.939-13 30.5-.98 1.961-5.566 9.5-8 9.5Z"/><path fill="#FFFC8E" id="CENT3" d="M277 143c0-4.699.352-11.574-4.5-14-17.755-8.877-70.247-8.876-88 0-5.617 2.809-4.5 9.745-4.5 15-1.777 0-6.018-1.537-7-3.5-.595-1.191 1.17-6.5-1.5-6.5-.745 0-15.5 11.404-15.5 1 2.434 0 7.02-7.539 8-9.5 3.281-6.561 13-23.652 13-30.5h1c0 1.186 1 1.186 1 0h1l1-1h1l1-1h1l1-1 2-1c2.025 0 7-1.233 7-4 1.238 0 3-.423 3-2 1.747 0 2-.253 2-2h1l1-1 1-1 1-1 2-1 1-1 1-1h1l1-1 1-1h1l1-1 1-1 1-1 1-2h26c0 2.226 1.774 4 4 4l4 3 2 2h1c0 2.478 21.447 16 24 16h2l1 1c2.91 0 3.076 8.653 4 10.5 2.788 5.576 11.577 28.5 18 28.5 0 5.805-10.044 3.228-12.5 2l-4-4-.5 4.5c-1.782 3.563-2.355 5.5-7 5.5Z"/><path fill="#FCFB90" id="CUL4, 5" d="m301 135-.5-19 .5 3.5c1.698 3.395 2 7.396 2 11.5 0 8.117 8.217 15 16 15 0-19.931-5.704-38.909-14-55.5L294 69l-1 1-1 1-1 1-1 1-1 2-1 2-1 1v1l-1 1-1 1v1l-1 2-1 1v2l-1 2-1 2v1l-1 1-1 1v2c2.91 0 3.076 8.653 4 10.5 2.788 5.576 11.577 28.5 18 28.5Z"/><path fill="#F0F080" id="CB" d="m163 70 1 1-1-1ZM242 70l3 4c-2.226 0-4-1.774-4-4h1ZM293 70l-1 1 1-1ZM292 71l-1 1 1-1ZM165 72l2 2-2-2ZM214 72l-1 1 1-1ZM291 72l-1 1 1-1ZM213 73l-1 1 1-1ZM290 73l-1 2 1-2ZM212 74l-1 1 1-1ZM167 75l2 2-2-2ZM210 75l-1 1 1-1ZM289 75l-1 2 1-2ZM209 76l-1 1 1-1ZM207 77l-1 1 1-1ZM249 77l2 2-2-2ZM288 77l-1 1 1-1Z"/><path fill="#CBC9CC" id="arb" fill-rule="evenodd" d="m125 158-4 3.5c-1.994 3.987-1.933 8.865-4 13-3.309 6.618 1.965 13.768 8.5 10.5 6.426-3.213 3.245-7.991 5.5-12.5 3.178-6.357 4.107-14.5-6-14.5m1 31-5 5c0-1.321.684-6-1-6 0-2.988-9.796-1.852-11.5-1l-33 18c-4.856 2.428-5.2 10.9-7.5 15.5l-.5 10.5c-1.816 0-1.117-2.734-1.5-3.5-2.48-4.959-1.301-16.398 1-21 4.992-9.984 16.983-13.242 25.5-17.5l5-5 6-1 6.5-4c4.818 0 1.103-15-7-15-2.097 0-5.293-1-8-1l-5-2.5c0-2.32 9.65-2.7 7-8l-8-9c-1.376-2.753-1.58-6.161-3-9-.532-1.064-4.163-6.669-2.5-7.5 1.018-.509 3 4.5 3.5 5.5 2.052 4.103 6.032 17.266 10.5 19.5 8.632 4.316 14.89 2.719 19.5-6.5l2-2.5c0-2.62 6.904-35.308 8-37.5l4-9.5 2-14 1.5-4 1.5 4.5-2 13c-4.736 9.471-15.717 50.5 3 50.5 10.68 0 13.148-7.795 17-15.5.938-1.875-.326-15.5 2.5-15.5l.5 3.5c-1.66 3.319-2 8.598-2 12.5 0 1.145-.579 4 1 4 0 10.404 14.755-1 15.5-1 2.67 0 .905 5.309 1.5 6.5.982 1.963 5.223 3.5 7 3.5 10.562 0 11.227 5.954 15 13.5l3 3.5h-1l-1-1c0-3.225-8-6.815-8-8 0-3.661-16-2.388-16 3l-3 3-9 4c0-7.51-11.65 6-8 6l-4 5c-1.054 0-4.091-4-6.5-4-5.205 0-9.5 12.125-9.5 16-1.473 0-1 1.952-1 3h-4l-1 1Z"/><path fill="#F0F080" id="CB" d="M169 78c1.577 0 2 1.762 2 3l-2-3ZM206 78l-1 1 1-1Z"/><path fill="#CBC9CC" id="arb" fill-rule="evenodd" d="M336 195h1c0-.373-4.544-7-1-7v-1c18.77 0 17.76 4.13 33.5 12 4.247 2.124 11.172 3.844 13.5 8.5 1.996 3.993 5 7.706 5 12.5 0 1.543.175 11 1.5 11 1.978 0 1.5-7.536 1.5-9 0-7.275-.044-19.272-7.5-23l-18-9-9-7c-1.844-.922-9.5-.887-9.5-4-6.877 0-.766-15 7-15 1.819 0 4.591-1 7-1 0-1.795 6-.646 6-2.5 0-1.629-8-2.446-8-6 0-4.02 6.254-7.509 8-11 .133-.266 2.013-4.5.5-4.5l-4.5 6.5c-4.34 8.679-16.477 14.045-22 3-1.089-2.177-3-2.822-3-5.5-4.023 0-1.857-10.214-3-12.5-4.49-8.979-4.592-25.185-10-36-1.124-2.247-2-9.62-2-12l-1.5-4.5-.5 5c0 5.72 2 9.76 2 15 0 10.069 18.981 48-4 48-7.783 0-16-6.883-16-15 0-4.104-.302-8.105-2-11.5l-.5-3.5.5 19c0 5.805-10.044 3.228-12.5 2l-4-4-.5 4.5c-1.782 3.563-2.355 5.5-7 5.5 0 2.099-7.032 1.266-8.5 2-3.841 1.92-5.5 5.706-5.5 10l6-3c0-4.175 15-2.065 15 3l3 2 11 7-1-3.5c1.678-3.356 10.964 7.5 7 7.5 0 1.302 4 2.641 4 5 .427 0 5.19-3.345 6.5-4 3.391-1.695 9.5 12.025 9.5 15 1.579 0 1 2.855 1 4v1l4.5-1 6.5 7m0-8c0-3.244 6.378-5.744 4-10.5-2.014-4.028-2.058-9.115-4-13-2.937-5.874-9.804-7.392-13-1-2.848 5.695 5.979 24.5 13 24.5Z"/><path fill="#FCFC90" id="ANcr1" d="M95 163c-2.124 0-4.436 1-6 1 0-3.091-5.198-1.896-6-3.5-2.89-5.782-13.84-7.68-18-16C54.025 122.55 83.074 81 102.5 81l2.5-2c0 16.92-1.438 36.625 6 51.5.992 1.984 5.907 12.5 8 12.5l-2 2.5c-4.61 9.219-10.868 10.816-19.5 6.5-4.468-2.234-8.448-15.397-10.5-19.5-.5-1-2.482-6.009-3.5-5.5-1.663.831 1.968 6.436 2.5 7.5 1.42 2.839 1.624 6.247 3 9l8 9c2.65 5.3-7 5.68-7 8l5 2.5Z"/><path fill="#F0F080" id="CB" d="m205 79-2 1 2-1ZM252 79c.938 0 15.869 10.684 18.5 12 1.243.621 5.5 2.356 5.5 4-2.553 0-24-13.522-24-16ZM287 79l-1 1 1-1Z"/><path fill="#FCFC90" id="ANcr1" fill-rule="evenodd" d="M371 127c0 3.82-1.457 5.414-3 8.5l.5 3.5 1.5-3.5c.792-1.584 6.054-8.5 1-8.5m-10 36c2.409 0 5.181 1 7 1l7.5-6 5-2c6.231-3.115 9.75-9.999 12.5-15.5 9.072-18.144-21.777-59.5-38.5-59.5l-3.5-2c0 9.965 2.377 33.747-2 42.5-2.402 4.804-3.581 10.162-6 15-.864 1.728-5 3.581-5 6.5 0 2.678 1.911 3.323 3 5.5 5.523 11.045 17.66 5.679 22-3l4.5-6.5c1.513 0-.367 4.234-.5 4.5-1.746 3.491-8 6.98-8 11 0 3.554 8 4.371 8 6 0 1.854-6 .705-6 2.5Z"/><path fill="#F0F080" id="CB" d="m203 80-1 1 1-1ZM286 80l-1 1 1-1ZM202 81l-1 1 1-1ZM171 82l2 2-2-2ZM201 82l-1 1 1-1ZM285 82l-1 2 1-2ZM199 83l-2 2c1.747 0 2-.253 2-2ZM284 84l-1 1 1-1ZM173 85l1 2-1-2ZM197 85c-1.238 0-3 .423-3 2 1.238 0 3-.423 3-2ZM194 87c-1.243 0-7 3.006-7 4 2.025 0 7-1.233 7-4ZM283 87l-1 2 1-2ZM174 88l1 2-1-2ZM282 89l-1 2 1-2ZM175 91l1 1-1-1ZM187 91l-2 1 2-1ZM185 92l-1 1 1-1ZM281 92l-1 1 1-1ZM183 93l-1 1 1-1ZM280 93l-1 1 1-1ZM181 94l-1 1 1-1ZM178 95h1c0 1.186-1 1.186-1 0ZM279 95v1l-1-1h1Z"/><path fill="#FDFA91" id="CENT2" fill-rule="evenodd" d="M187 135c0 2.101-7.311-.122-6 2.5.601 1.203 14.688 2.594 16.5 3.5 13.162 6.581 38.651 8.674 52 2 6.22-3.11 14.612-1.806 21-5 1.077-.539 5.5.991 5.5-1.5 0-.277-11.1-2.2-12.5-1.5-7.656 3.828-35.481 12.259-44 8-4.76-2.38-27.037-8-32.5-8m21 30h41c4.116 0 6.343-4 10-4v-1l3-3 1-2c0-4.294 1.659-8.08 5.5-10 1.468-.734 8.5.099 8.5-2 0-4.699.352-11.574-4.5-14-17.755-8.877-70.247-8.876-88 0-5.617 2.809-4.5 9.745-4.5 15 10.562 0 11.227 5.954 15 13.5l3 3.5c2.985 0 6.151 4 10 4Z"/><path fill="#CBC9CC" id="arb" d="M371 127c0 3.82-1.457 5.414-3 8.5l.5 3.5 1.5-3.5c.792-1.584 6.054-8.5 1-8.5ZM187 135c0 2.101-7.311-.122-6 2.5.601 1.203 14.688 2.594 16.5 3.5 13.162 6.581 38.651 8.674 52 2 6.22-3.11 14.612-1.806 21-5 1.077-.539 5.5.991 5.5-1.5 0-.277-11.1-2.2-12.5-1.5-7.656 3.828-35.481 12.259-44 8-4.76-2.38-27.037-8-32.5-8Z"/><path fill="#F0F080" id="CB" d="M188 152c-6.028 0-10.995 3-16 3 0-5.388 16-6.661 16-3ZM269 152c5.59 0 11.697 3 15 3 0-5.065-15-7.175-15-3Z"/><path fill="#CBC9C8" id="uf" d="M193 160c.716 0 3 2.373 3 0 0-3.225-8-6.815-8-8-6.028 0-10.995 3-16 3l-3 3c0 1.579 2.855 1 4 1h1c2.613 0 4.36-.93 6.5-2 2.977-1.489 8.046 1 10.5 1l2 2ZM260 160c0 2.373 2.284 0 3 0l1-1h1c0-5.22 16.08 0 18 0 2.177 0 4 .641 4-2l-3-2c-3.303 0-9.41-3-15-3l-6 3-1 2c0 1.238-.423 3-2 3Z"/><path fill="#CBC9CC" id="arb" d="m263 155-1 2 1-2Z"/><path fill="#FFAD6D" id="PB" d="m179 166 2 4c8.983 0 10-5.219 10-12-2.454 0-7.523-2.489-10.5-1-2.14 1.07-3.887 2-6.5 2l-1 1v1c3.148 0 9.518-3.991 11.5-3 8.001 4.001 2.015 6-4.5 6l-1 2Z"/><path fill="#CBC9CC" id="arb" d="M259 160h1c1.577 0 2-1.762 2-3l-3 3Z"/><path fill="#FFAD6D" id="PB" d="m276 169-1 1c-7.424 0-10-3.793-10-11 0-5.22 16.08 0 18 0v2c-3.3 0-9.127-4.186-11.5-3-8.17 4.085.578 6 5.5 6l1 2-2 3Z"/><path fill="#F0F080" id="CB" d="M308 173v2l-7-4c3.388 0-3.637-5.568-4.5-6-4.559-2.28-7.893-4-13.5-4v-2c2.177 0 4 .641 4-2l11 7 4 3 1 1h1c0 1.302 4 2.641 4 5Z"/><path fill="#FFFDBB" id="DN" d="m125 158-4 3.5c-1.994 3.987-1.933 8.865-4 13-3.309 6.618 1.965 13.768 8.5 10.5 6.426-3.213 3.245-7.991 5.5-12.5 3.178-6.357 4.107-14.5-6-14.5Z"/><path fill="#F0F080" id="CB" d="m148 173 1 2 7-4c-3.76 0 2.577-5.538 3.5-6 4.475-2.238 7.994-4 13.5-4v-2c-1.145 0-4 .579-4-1l-9 4-1 1c0 1.514-5.537 5-7 5l-4 5Z"/><path fill="#CBC9CB" id="scp" d="M156 171h3c2.72 0 3.553-2 6-2l1-1h1l1-1h1l2-1 2-1h2c0-1.643 3.765-1 5-1 6.515 0 12.501-1.999 4.5-6-1.982-.991-8.352 3-11.5 3-5.506 0-9.025 1.762-13.5 4-.923.462-7.26 6-3.5 6Z"/><path fill="#FF9B88" id="P" fill-rule="evenodd" d="M211 206h1c3.406 0 14 2.79 14-3 0-11.347-9.309-18.405-18.5-23l-5-5c-2.229-1.115-6.112-1.724-7.5-4.5-1.131-2.263 0-4.743 0-6.5l-2-4-2-2c0 6.781-1.017 12-10 12v1c2.707 0 5.903 1 8 1l1 1c8.892 0 18.283 8.066 22 15.5l-5 12.5c0 2.424 2 2.76 2 4h1l1 1m2-11c0 5.252 8 11.305 8 3 1.22 0 1.504-3.492 1-4.5-4.186-8.372-9-8.069-9 1.5Z"/><path fill="#CBC9CB" id="scp" d="M298 171h3c3.388 0-3.637-5.568-4.5-6-4.559-2.28-7.893-4-13.5-4-3.3 0-9.127-4.186-11.5-3-8.17 4.085.578 6 5.5 6 1.145 0 4-.579 4 1h2l2 1h1l1 1h2l1 1c2.722 0 4.53 3 8 3Z"/><path fill="#FFFDBB" id="DN" d="M336 187c0-3.244 6.378-5.744 4-10.5-2.014-4.028-2.058-9.115-4-13-2.937-5.874-9.804-7.392-13-1-2.848 5.695 5.979 24.5 13 24.5Z"/><path fill="#FF9B88" id="P" d="m174 159-1 1v-1h1Z"/><path fill="#F0F080" id="CB" d="m264 159-1 1 1-1Z"/><path fill="#FF9B88" id="P" fill-rule="evenodd" d="M246 205h2l1-1 1-1v-2c-4.764 0-4.665-14.17-3-17.5 3.199-6.399 21.195-12.5 28-12.5v-1c-7.424 0-10-3.793-10-11h-1l-1 1-1 4c0 16.074-32 16.952-32 40 0 4.333 12.651 2 15 2l1-1m-3-10c2.289 0-8 14.183-8 3 0-9.13 8-17.602 8-3Z"/><path fill="#FFFDBC" id="IP" d="M159 163c0 1.514-5.537 5-7 5-3.65 0 8-13.51 8-6l-1 1Z"/><path fill="#F0F080" id="CB" d="m197 161-2 3-2-4c.716 0 3 2.373 3 0l1 1ZM259 161l3 3 1-4c-.716 0-3 2.373-3 0h-1v1Z"/><path fill="#FFFDBC" id="IP" d="M303 168h1c3.964 0-5.322-10.856-7-7.5l1 3.5 4 3 1 1Z"/><path fill="#AAA9A7" id="V4" d="m226 203 4 1c0-23.048 32-23.926 32-40l-3-3c-3.657 0-5.884 4-10 4 0 1.239-7.06 3-8.5 3-7.63 0-20.471 2.265-27-1-1.319-.659-5.5.334-5.5-2-3.849 0-7.015-4-10-4h-1l-2 3c0 1.757-1.131 4.237 0 6.5 1.388 2.776 5.271 3.385 7.5 4.5l5 5c9.191 4.595 18.5 11.653 18.5 23Z"/><path fill="#CBC9CC" id="arb" d="m160 162-1 1 1-1Z"/><path fill="#FFFC8D" id="PFL" d="m120 188-8 7.5c-4.667 9.333-24.593 13.187-29 22-4.826 9.652 11 21.091 11 23.5 0 9.231-15.722 27.389-26.5 22-23.689-11.844-29.697-47.106-18.5-69.5 3.454-6.908 14.116-12.308 20.5-15.5h10c5.24-2.62-.028-14 9.5-14 1.564 0 3.876-1 6-1 2.707 0 5.903 1 8 1 0 6.194 7 9.867 7 15l-6.5 4-6 1-5 5c-8.517 4.258-20.508 7.516-25.5 17.5-2.301 4.602-3.48 16.041-1 21 .383.766-.316 3.5 1.5 3.5l.5-10.5c2.3-4.6 2.644-13.072 7.5-15.5l33-18c1.704-.852 11.5-1.988 11.5 1ZM336 188c4.42 0 5.918 7.209 9.5 9 2.819 1.409 6.144 6.572 9 8 7.223 3.612 16.146 7.791 19.5 14.5 3.899 7.797-11 16.985-11 21.5 0 18.716 18.739 25.38 33.5 18l3-4c10.069-5.034 8.288-18.077 12.5-26.5V219c0-17.217-5.011-31.755-21.5-40-2.996-1.498-13.89.72-15.5-2.5-1.435-2.871-.48-6.961-2-10l-5-2.5c-1.819 0-4.591-1-7-1s-5.181 1-7 1c0 6.339-7 9.164-7 15 0 3.113 7.656 3.078 9.5 4l9 7 18 9c7.456 3.728 7.5 15.725 7.5 23 0 1.464.478 9-1.5 9-1.325 0-1.5-9.457-1.5-11 0-4.794-3.004-8.507-5-12.5-2.328-4.656-9.253-6.376-13.5-8.5-15.74-7.87-14.73-12-33.5-12v1Z"/><path fill="#FFF990" id="COPY" d="M103 164c8.103 0 11.818 15 7 15 0-5.133-7-8.806-7-15Z"/><path fill="#FF9B88" id="P" d="M178 166h1l1-2c-1.235 0-5-.643-5 1h2l1 1Z"/><path fill="#FEFA91" id="LING" d="M208 165h41c0 1.239-7.06 3-8.5 3-7.63 0-20.471 2.265-27-1-1.319-.659-5.5.334-5.5-2Z"/><path fill="#FF9B88" id="P" d="m281 165-3 1-1-2c1.145 0 4-.579 4 1Z"/><path fill="#FFF990" id="COPY" d="M354 164c-7.766 0-13.877 15-7 15 0-5.836 7-8.661 7-15Z"/><path fill="#FF9BCD" id="MY" d="m173 165-2 1 2-1Z"/><path fill="#FDB3D6" id="SUV" d="m170 183-3 2c-3.208 0-7.555 3.973-11.5 2l-3.5-4c0-1.804-2.182-5.136-1-7.5l8-4.5c2.72 0 3.553-2 6-2l1-1h1l1-1h1l2-1 2-1h4l1 1h1l2 4v1c-2.158 0-10 10.131-10 11l-1 1Z"/><path fill="#FF9BCD" id="MY" d="m177 165 1 1-1-1Z"/><path fill="#FDB3D6" id="SUV" d="m305 183-4.5 4c-3.945 1.973-8.292-2-11.5-2l-4-3c0-4.685-9-7.682-9-11v-2l2-3 3-1h2l2 1h1l1 1h2l1 1c2.722 0 4.53 3 8 3l7 4.5v7.5Z"/><path fill="#FF9BCD" id="MY" d="m283 165 2 1-2-1ZM171 166l-2 1 2-1ZM286 166l1 1-1-1ZM168 167l-1 1 1-1ZM289 167l1 1-1-1Z"/><path fill="#CBC9CC" id="arb" d="m302 167 1 1-1-1Z"/><path fill="#FF9BCD" id="MY" d="m166 168-1 1 1-1Z"/><path fill="#C9C9C8" id="icp" d="M132 191c1.579 0 1 2.855 1 4 0 4.35-.829 9.842 1 13.5l.5 2.5c2.184 0 10.759-20 11.5-20l1-1v-2l1-1v-1l1-1v-10l-1-2c-1.054 0-4.091-4-6.5-4-5.205 0-9.5 12.125-9.5 16v6Z"/><path fill="#FF9B88" id="P" d="M275 170h1v-1l-1 1Z"/><path fill="#C9C9C8" id="icp" d="M311 192v1c1.943 0 8.149 18 10.5 18 1.955 0 1.5-3.889 1.5-5l1-18v-4c0-2.975-6.109-16.695-9.5-15-1.31.655-6.073 4-6.5 4v13l1 1v2c1.577 0 2 1.762 2 3Z"/><path fill="#FF9BCD" id="MY" d="M275 171h1v-1h-1v1ZM152 183l-3 1v-9l7-4h3l-8 4.5c-1.182 2.364 1 5.696 1 7.5Z"/><path fill="#FFB0D7" id="MV" fill-rule="evenodd" d="M180 191c0 5.678 6.616 0 0 0m-9 20h1c0-1.784 10.634-1 12.5-1 5.914 0 9.574-4 14.5-4 0-1.621 3.283-3 5-3 0-1.577 1.762-2 3-2l5-12.5c-3.717-7.434-13.108-15.5-22-15.5l-1-1c-2.097 0-5.293-1-8-1-2.158 0-10 10.131-10 11l-1 1-1 2c0 10.666-8 15.916-8 24 0 2.789 7.892 2 10 2ZM275 190l-1.5 4c2.004 1.002 3.856-4 1.5-4m9 21h1c2.129 0 10 1.163 10-2 0-8.806-8-14.417-8-24l-2-3c0-4.685-9-7.682-9-11h-1c-6.805 0-24.801 6.101-28 12.5-1.665 3.33-1.764 17.5 3 17.5l3 2 4 2c2.963 0 8.038 5 13.5 5 1.95 0 13.5-.79 13.5 1Z"/><path fill="#FF9BCD" id="MY" d="M305 183c2.215 0 1.519 2 3 2v-10l-7-4h-3l7 4.5v7.5ZM189 172l1 1-1-1ZM171 182l-1 1 1-1ZM287 185h2l-4-3 2 3Z"/><path fill="#FEB3D7" id="LAV" d="M157 209c0 3.781 2.995 0 4 0 0-8.084 8-13.334 8-24h-2c-3.208 0-7.555 3.973-11.5 2l-3.5-4-3 1v1l-1 1v1l-1 1v2l-1 1c0 1.321-.684 6 1 6 7.141 0 10 5.423 10 12Z"/><path fill="#FF9BCD" id="MY" d="M167 185h2l1-2-3 2Z"/><path fill="#FEB3D7" id="LAV" d="m295 209 3.5 2 1.5-2c0-5.943 1.991-12 10-12 1.579 0 1-2.855 1-4v-1l-2-3v-2l-1-1v-1c-1.481 0-.785-2-3-2l-4.5 4c-3.945 1.973-8.292-2-11.5-2h-2c0 9.583 8 15.194 8 24Z"/><path fill="#F0F080" id="CB" d="M324 188h1c0-1.145.579-4-1-4v4ZM131 189h1v-4c-1.473 0-1 1.952-1 3v1Z"/><path fill="#FF9BCD" id="MY" d="m149 185-1 1 1-1ZM308 186l1 1-1-1Z"/><path fill="#FEA5D1" id="DCO" d="M132 208c-6.209 0-10.716 18-17 18v-18.5l5-11.5 1-1v-1l5-5 1-1h4v1l1 1v18Z"/><path fill="#FF9BCD" id="MY" d="m148 187-1 1 1-1Z"/><path fill="#FFBA84" id="PCG" d="M213 195c2.152 0 8 .362 8 3 1.22 0 1.504-3.492 1-4.5-4.186-8.372-9-8.069-9 1.5ZM243 195c-3.351 0-5.596 3-8 3 0-9.13 8-17.602 8-3Z"/><path fill="#FEF991" id="FL" d="M104 233c0 4.866-5.716 8-10 8 0-2.409-15.826-13.848-11-23.5 4.407-8.813 24.333-12.667 29-22l8-7.5c1.684 0 1 4.679 1 6l-1 1-1 1-5 9-1 2c-1.577 0-2 1.762-2 3l-1 1-1 2c-1.747 0-2 .253-2 2-2.109 0-2 2.535-2 4-1.579 0-1 2.855-1 4v10Z"/><path fill="#F0F080" id="CB" d="m127 188-1 1 1-1Z"/><path fill="#FF9BCD" id="MY" d="M335 253c0 4.946-12.747 18-18 18 0-2.183 3.405-3.31 4-4.5l4-10c4.26-8.521-4-20.027-4-27.5 1.486 0 1.486-3 0-3l-1-2c3.75 0-3-13.743-3-8-2.75 0-4.951-5.774-8.5-4l.5 6.5c3.434 6.867 5.542 14.084 9 21 1 2 .134 19.5-3 19.5 0-4.04 3.148-12.204 1-16.5-3.744-7.488-3.552-24.026-12.5-28.5l-6-2c-3.8-1.9-6.715 5-8.5 5 0-3.233-4-4.452-4-6 2.129 0 10 1.163 10-2l3.5 2 1.5-2 1.5 2 2-1c2.5-1.25 8.445.611 9.5-1.5v-9l-3-2.5c1.579 0 1-2.855 1-4 1.943 0 8.149 18 10.5 18 1.955 0 1.5-3.889 1.5-5l1-18h1v21c-2.942 0-2 9.252-2 11.5 0 2.358 3.217 27.434 4 29 1.248 2.497-1.829 6.835 1.5 8.5 2.936 1.468 4.47-5 6.5-5Z"/><path fill="#FEA5D1" id="DCO" d="M325 209c8.132 0 8.584 17 16 17 0-3.824 3.045-11.409 1-15.5l-6-15.5-6.5-7-4.5 1v20Z"/><path fill="#FEF991" id="FL" d="M353 234c0 5.343 5.628 7 10 7 0-4.515 14.899-13.703 11-21.5-3.354-6.709-12.277-10.888-19.5-14.5-2.856-1.428-6.181-6.591-9-8-3.582-1.791-5.08-9-9.5-9-3.544 0 1 6.627 1 7l6 12 2 2v1l4 4v1c3.026 0 3 3.41 3 6v11l1 2Z"/><path fill="#FF9BCD" id="MY" d="M132 189v1l-1-1h1ZM309 189c1.577 0 2 1.762 2 3l-2-3ZM147 190l-1 1 1-1Z"/><path fill="#CCCBC8" id="das" d="m275 190-1.5 4c2.004 1.002 3.856-4 1.5-4Z"/><path fill="#FF9BCD" id="MY" d="M136 225c0 4.734-1.937 12.375-4 16.5-.619 1.238 1.144 5.5-1 5.5 0-13.549 1-26.062 1-39v-17c1.579 0 1 2.855 1 4 0 4.35-.829 9.842 1 13.5l.5 2.5c2.184 0 10.759-20 11.5-20 0 1.321-.684 6 1 6l-4 2.5v9c.104.208 10.695 2.902 11.5 2.5l2.5-2c0 3.781 2.995 0 4 0 0 2.789 7.892 2 10 2 0 1.302-4 2.641-4 5-2 0-5.703-6.398-12.5-3-2.125 1.062-6.653 8-7.5 8 0-4.341 4.597-12.049-3.5-8l-4.5 4c0-4.971-3.836 2-1 2l-1 2c0-6.352-4.508 4-1 4Z"/><path fill="#CCCBC8" id="das" d="M180 191c0 5.678 6.616 0 0 0Z"/><path fill="#CBC9CC" id="arb" d="M120 195h1v-1l-1 1ZM119 196h1v-1l-1 1Z"/><path fill="#A9AAA7" id="V4r" d="m121 195-1 1v-1h1Z"/><path fill="#FFB986" id="SG" d="M213 195c2.152 0 8 .362 8 3 0 8.305-8 2.252-8-3ZM243 195c2.289 0-8 14.183-8 3 2.404 0 4.649-3 8-3Z"/><path fill="#A9AAA7" id="V4r" d="m352 232-1 1c-2.124 0-4.436-1-6-1l-1-1c0-2.554-3-3.688-3-5 0-3.824 3.045-11.409 1-15.5l-6-15.5h1l6 12 2 2v2c-4.753 0-1.189 15.121 0 17.5 1.598 3.195 6-.128 6-3V221h1v11ZM112 231l-2.5 2-4.5-1-1-1v-8h1c0 15.326 12.56-.381 8-9.5-.523-1.046.951-3.5-1-3.5l1-3 1-2 5-9h1l-5 11.5V226l-3 5Z"/><path fill="#C9CACB" id="vVIIIn" d="M147 197c7.141 0 10 5.423 10 12l-2.5 2c-.805.402-11.396-2.292-11.5-2.5v-9l4-2.5ZM310 197c-8.009 0-10 6.057-10 12l1.5 2 2-1c2.5-1.25 8.445.611 9.5-1.5v-9l-3-2.5Z"/><path fill="#FF9BCD" id="MY" d="m204 203 5 2c0-1.24-2-1.576-2-4-1.238 0-3 .423-3 2ZM250 203h3l-3-2v2Z"/><path fill="#C9CCC7" id="gVIIn" d="m201 210 2 1c3.292 0 9-.736 9-5h-1l-1-1h-1l-5-2c-1.717 0-5 1.379-5 3l2 4Z"/><path fill="#FF9BCD" id="MY" d="m227 220 2 1 1-12.5c.99-1.98 5-2.176 5 .5 5.627 0 8.161-1.178 11 4.5l1 2-2 2.5c4.611 0 9.818 3 11 3 0-3.741 9.838-7 13-7 0-4.681 11.974-3 15-3 0-1.79-11.55-1-13.5-1-5.462 0-10.537-5-13.5-5l-1 4-1 1-2 1c-3.807 0-8-.891-8-5-2.349 0-15 2.333-15-2l-4-1c0 5.79-10.594 3-14 3 0 4.264-5.708 5-9 5l-2-1-2-4c-4.926 0-8.586 4-14.5 4-1.866 0-12.5-.784-12.5 1 3.026 0 15-1.681 15 3 4.727 0 13.118 7 14 7 0-2.869 7.658-3 10-3 0-1.423-1.978-3.544-1-5.5 3.015-6.03 11.159-4.683 14 1l-1 4.5h2c0-2.774.141-5.217-1-7.5l-2-3c.816-1.632 4.411-.179 5 1V220ZM250 203l-1 1 1-1Z"/><path fill="#C9CCC7" id="gVIIn" d="m255 210-2 1c-3.807 0-8-.891-8-5l1-1h2l1-1 1-1h3l4 2-1 4-1 1Z"/><path fill="#FF9BCD" id="MY" d="m249 204-1 1 1-1Z"/><path fill="#CBC9CC" id="arb" d="m114 205-1 2 1-2Z"/><path fill="#FF9BCD" id="MY" d="m210 205 1 1-1-1ZM246 205l-1 1 1-1Z"/><path fill="#CBC9CC" id="arb" d="M111 210h1l1-3c-1.577 0-2 1.762-2 3Z"/><path fill="#CBCBCC" id="mlf" d="M225 218c0 .641 2 4.374 2 2v-11.5c-.589-1.179-4.184-2.632-5-1l2 3c1.141 2.283 1 4.726 1 7.5ZM231 218c0 2.003.293 3-2 3l1-12.5c.99-1.98 5-2.176 5 .5-1.747 0-2 .253-2 2-1.175 0-2 5.704-2 7Z"/><path fill="#CBC9CC" id="arb" d="m343 207 2 2-2-2Z"/><path fill="#FEA4D2" id="VCO" d="M122 253v1l5.5 4c4.153 0 1.051-11 3.5-11 0-13.549 1-26.062 1-39-6.209 0-10.716 18-17 18l-3 5 1 2 8 19 1 1Z"/><path fill="#FCB3D8" id="PGRNd" d="M211 218h12l1-4.5c-2.841-5.683-10.985-7.03-14-1-.978 1.956 1 4.077 1 5.5ZM233 217c3.312 0 8.038 1 12 1l2-2.5-1-2c-2.839-5.678-5.373-4.5-11-4.5l-2 2v6Z"/><path fill="#FF9BCD" id="MY" d="M235 209c-1.747 0-2 .253-2 2l2-2Z"/><path fill="#CCCCC7" id="VIIn" d="m256 209-1 1 1-1Z"/><path fill="#FEA4D2" id="VCO" d="M344 232c0 6.964-9 13.571-9 21-2.03 0-3.564 6.468-6.5 5-3.329-1.665-.252-6.003-1.5-8.5-.783-1.566-4-26.642-4-29 0-2.248-.942-11.5 2-11.5 8.132 0 8.584 17 16 17 0 1.312 3 2.446 3 5v1Z"/><path fill="#CBC9CC" id="arb" d="M110 211h1v-1l-1 1Z"/><path fill="#A9AAA7" id="V4r" d="m112 210-1 1v-1h1Z"/><path fill="#A9AAA8" id="chpl" d="M105 220v3c0 15.326 12.56-.381 8-9.5-.523-1.046.951-3.5-1-3.5l-1 1-1 1-1 1v1l-1 1-1 1v1l-1 1v1l-1 1Z"/><path fill="#CCCCC7" id="VIIn" d="m201 210 2 1-2-1ZM255 210l-2 1 2-1Z"/><path fill="#CBC9CC" id="arb" d="m347 213 2 1-4-4v1l2 2ZM110 212l-1 1 1-2v1Z"/><path fill="#A9AAA7" id="V4r" d="m111 211-1 1v-1h1Z"/><path fill="#FCB3D9" id="PARN" d="M155 263h1c2.022 0 5.231-7 9-7l9-9.5c4.038-8.076 13-23.465 13-32.5 0-4.681-11.974-3-15-3h-1c0 1.302-4 2.641-4 5 0 17.433-5.236 11.972-11 23.5-.283.566-3 21.58-3 22.5l1 1h1Z"/><path fill="#FF9BCD" id="MY" d="m233 217-2 1c0-1.296.825-7 2-7v6Z"/><path fill="#FCB3D9" id="PARN" d="M301 263h2v-2c0-1.214-2.61-21.721-3-22.5-4.978-9.956-11-7.16-11-21.5 0-3.233-4-4.452-4-6h-1c-3.026 0-15-1.681-15 3 0 8.237 9.241 23.982 13 31.5l9 10.5c4.775 0 6.684 7 10 7Z"/><path fill="#A9AAA8" id="chpl" d="M351 219v6.5c0 2.872-4.402 6.195-6 3-1.189-2.379-4.753-17.5 0-17.5l2 2 2 2 1 3 1 1Z"/><path fill="#C8CACA" id="sptV" d="M151 267v7c-14.026 0-20-12.676-20-27 2.144 0 .381-4.262 1-5.5 2.063-4.125 4-11.766 4-16.5l1-4 1-2 1-2 4.5-4c8.097-4.049 3.5 3.659 3.5 8-2.264 0-3.193 7.885-4 9.5-4.026 8.051-9.531 26.985 1.5 32.5 2.337 1.169 3.673 4 6.5 4Z"/><path fill="#FFA4D0" id="SPVO" d="M147 221c0 8.928-15.566 34.967-1.5 42 2.364 1.182 5.696-1 7.5-1 0-.92 2.717-21.934 3-22.5 5.764-11.528 11-6.067 11-23.5-2 0-5.703-6.398-12.5-3-2.125 1.062-6.653 8-7.5 8ZM303 261c2.099 0 4.383 3.558 7.5 2l2.5-2 1-1 1-1c0-4.04 3.148-12.204 1-16.5-3.744-7.488-3.552-24.026-12.5-28.5l-6-2c-3.8-1.9-6.715 5-8.5 5 0 14.34 6.022 11.544 11 21.5.39.779 3 21.286 3 22.5Z"/><path fill="#C8CACA" id="sptV" d="M306 273c0 3.776 6.063 0 8 0 0-1.577 1.762-2 3-2 0-2.183 3.405-3.31 4-4.5l4-10c4.26-8.521-4-20.027-4-27.5v-3l-1-2-1-4c-1.577 0-2-1.762-2-3v-1c-2.75 0-4.951-5.774-8.5-4l.5 6.5c3.434 6.867 5.542 14.084 9 21 1 2 .134 19.5-3 19.5l-1 1-1 1c0 1.886-6.941 8-8 8l1 4Z"/><path fill="#CBC9CC" id="arb" d="M107 215h1l1-1v-1c-1.747 0-2 .253-2 2Z"/><path fill="#A9AAA7" id="V4r" d="M349 214v1l-2-2 2 1ZM109 214l-1 1 1-1Z"/><path fill="#FFB2D8" id="IRN" d="m165 256 17.5 3c2.611 1.305 7.241 8 9.5 8 0-14.223 9-30.466 9-46-.882 0-9.273-7-14-7 0 9.035-8.962 24.424-13 32.5l-9 9.5ZM291 256c-5.516 0-13.753 1.626-18.5 4l-7.5 6c0-5.046-1.917-9.334-4-13.5-2.101-4.201-5-26.016-5-31.5 0-3.741 9.838-7 13-7 0 8.237 9.241 23.982 13 31.5l9 10.5Z"/><path fill="#C9CACB" id="vVIIIn" d="m319 220 1 4c3.75 0-3-13.743-3-8v1c1.577 0 2 1.762 2 3Z"/><path fill="#CBC9CC" id="arb" d="M105 219h1v-1l1-1v-2c-2.109 0-2 2.535-2 4Z"/><path fill="#A9AAA7" id="V4r" d="m108 215-1 1v-1h1Z"/><path fill="#C9CACB" id="vVIIIn" d="m139 217-1 2c-2.836 0 1-6.971 1-2Z"/><path fill="#CBC9CC" id="arb" d="M351 221h1c0-2.59.026-6-3-6l1 3 1 1v2Z"/><path fill="#A9AAA7" id="V4r" d="m107 217-1 1 1-1Z"/><path fill="#FF9BCD" id="MY" d="m139 217-1 2 1-2Z"/><path fill="#FEB0D8" id="GRN" fill-rule="evenodd" d="M231 228c0 2.338-2 4.862-2 8v6c0 1.785 2.439 11.622 5 6.5 1.497-2.995.482-20.5-3-20.5m-8 0v14.5c0 20.63 10.287-14.5 0-14.5m30 44h1c0-6.399 6.068-1 8-1h1c0-2.25 2-3.376 2-5 0-5.046-1.917-9.334-4-13.5-2.101-4.201-5-26.016-5-31.5-1.182 0-6.389-3-11-3-3.962 0-8.688-1-12-1l-2 1c0 2.003.293 3-2 3l-2-1c0 2.374-2-1.359-2-2h-14c-2.342 0-10 .131-10 3 0 15.534-9 31.777-9 46l2 4c1.282 0 9-5.258 9 1l6.5-7c5.246-2.623 9.035-4 15.5-4h1c0-14.276 5-9.291 5 1 6.484 0 9.361-.07 15.5 3l6.5 7Z"/><path fill="#FF9BCD" id="MY" d="M317 217c1.577 0 2 1.762 2 3-1.577 0-2-1.762-2-3Z"/><path fill="#A9AAA7" id="V4r" d="m350 218 1 1-1-1Z"/><path fill="#CBC9CC" id="arb" d="M104 223h1v-4c-1.579 0-1 2.855-1 4Z"/><path fill="#A9AAA7" id="V4r" d="m106 219-1 1v-1h1Z"/><path fill="#C9CACB" id="vVIIIn" d="m137 221-1 4c-3.508 0 1-10.352 1-4Z"/><path fill="#FF9BCD" id="MY" d="m154 263-3 4c-2.827 0-4.163-2.831-6.5-4-11.031-5.515-5.526-24.449-1.5-32.5.807-1.615 1.736-9.5 4-9.5 0 8.928-15.566 34.967-1.5 42 2.364 1.182 5.696-1 7.5-1l1 1Z"/><path fill="#C9CACB" id="vVIIIn" d="M321 226c1.486 0 1.486 3 0 3v-3Z"/><path fill="#C8C8CC" id="tspc" d="M223 228v14.5c0 20.63 10.287-14.5 0-14.5ZM231 228c0 2.338-2 4.862-2 8v6c0 1.785 2.439 11.622 5 6.5 1.497-2.995.482-20.5-3-20.5Z"/><path fill="#F0F080" id="CB" d="m105 232-1 1v-2l1 1Z"/><path fill="#FF9BCD" id="MY" d="m112 231 1 2-1-2ZM344 232h1l-1-1v1Z"/><path fill="#F0F080" id="CB" d="m351 233 2 1-1-2-1 1Z"/><path fill="#FF9BCD" id="MY" d="M152 276c-2.402 0 1 3.762 1 5l-7.5-6c-5.46-2.73-23.5-14.111-23.5-21l5.5 4c4.153 0 1.051-11 3.5-11 0 14.324 5.974 27 20 27l1 2Z"/><path fill="#FFC5E2" id="RM" d="M227 281h3v-5c0-1.741-.773-11 1-11v-3c0-10.291-5-15.276-5-1v19l1 1Z"/><path fill="#FF9BCD" id="MY" d="m121 252 1 1-1-1Z"/><path fill="#FFB3D6" id="VII" d="M171 286c7.396 0 13.077 1 20 1 0-1.643 1.338-6 3-6v-2c-2.461 0 0-6.743 0-8l-2-4c-2.259 0-6.889-6.695-9.5-8l-17.5-3c-3.769 0-6.978 7-9 7l-1 1-1 4-1 2c0 10.041 14 14.608 14 15l2 1h2ZM286 286h1l2-1h1c0-1.369 9.543-6 11-6 0-2.029 1.191-1.881 2-3.5 2.053-4.106-2-8.874-2-12.5-3.316 0-5.225-7-10-7-5.516 0-13.753 1.626-18.5 4l-7.5 6c0 1.624-2 2.75-2 5v10l2 5c2.579 0 5.997 3.752 9.5 2 3.888-1.944 6.744-2 11.5-2Z"/><path fill="#FF9BCD" id="MY" d="m315 259-1 1 1-1ZM314 260l-1 1 1-1Z"/><path fill="#FDB2D9" id="MARN" d="m201 279 2 4c6.834 0 11.928-7 18-7l1-1 1-1 2-2.5V261c-6.465 0-10.254 1.377-15.5 4l-6.5 7v1l-1 1v1l-1 1v3Z"/><path fill="#FF9BCD" id="MY" d="m223 274 3 1v-14h-1v10.5l-2 2.5Z"/><path fill="#FDB2D9" id="MARN" d="M256 278c0 1.076-1.523 5-3 5-9.564 0-22-7.847-22-18v-3c6.484 0 9.361-.07 15.5 3l6.5 7 1 1 1 4 1 1Z"/><path fill="#FF9BCD" id="MY" d="M303 263c0 1.714 2 3.482 2 6 1.059 0 8-6.114 8-8l-2.5 2c-3.117 1.558-5.401-2-7.5-2v2Z"/><path fill="#C8C8CB" id="rust" d="M152 276c0 5.004 11.427 9 15 9 0-.392-14-4.959-14-15l1-2 1-4v-1h-1l-3 4v7l1 2Z"/><path fill="#FF9BCD" id="MY" d="m156 263-1 1v-1h1Z"/><path fill="#C8C8CB" id="rust" d="M304 277c-1.481 0-.785 2-3 2 0-2.029 1.191-1.881 2-3.5 2.053-4.106-2-8.874-2-12.5h2c0 1.714 2 3.482 2 6l1 4-2 4Z"/><path fill="#FF9BCD" id="MY" d="M281 289c0 1.647-7.176 1.338-8.5 2-6.481 3.241-15.777 4-23.5 4 0-1.317 3.356-1.788 2-4.5-3.386-6.773-14.515-5.5-20-5.5l-1-4c1.423 0 3.544 1.978 5.5 1 3.629-1.815-.262-8-3-8l-2.5 2c0-1.741-.773-11 1-11 0 10.153 12.436 18 22 18 0 4.651 12 9.53 12 3 2.579 0 5.997 3.752 9.5 2 3.888-1.944 6.744-2 11.5-2 0 2.527-5-.826-5 3ZM154 268l-1 2 1-2Z"/><path fill="#FCB2D9" id="PGRNl" d="m194 279 1 1 5-2 1-1v-1l1-1v-1l1-1v-1c0-6.258-7.718-1-9-1 0 1.257-2.461 8 0 8ZM261 279h2v-7l-1-1c-1.932 0-8-5.399-8 1v1l1 4 2 1 4 1Z"/><path fill="#FF9BCD" id="MY" d="M263 271v1l-1-1h1ZM317 271c-1.238 0-3 .423-3 2 1.238 0 3-.423 3-2ZM254 272v1l-1-1h1ZM203 273l-1 1 1-1ZM304 277l1 2c.732 0 9-4.846 9-6-1.937 0-8 3.776-8 0l-2 4ZM223 274l-1 1 1-1Z"/><path fill="#CACCC8" id="ml" d="M226 280v1c-5.996 0-5 .996-5-5l1-1 1-1 3 1v5ZM230 276l2.5-2c2.738 0 6.629 6.185 3 8-1.956.978-4.077-1-5.5-1v-5Z"/><path fill="#FF9BCD" id="MY" d="m202 275-1 1 1-1Z"/><path fill="#CBC7CC" id="sctv" d="M172 289h3c2.946 0-4-2.944-4-3h-2l-2-1c-3.573 0-15-3.996-15-9-2.402 0 1 3.762 1 5h1l2 2h1l2 2h2l3 2h2l2 1h1c1.048 0 3-.473 3 1Z"/><path fill="#FF9BCD" id="MY" d="M175 289c0 1.344 7.273 1.387 8.5 2 6.813 3.406 16.355 4 24.5 4l-3-3.5c3.276-6.552 13.631-7.5 20-7.5l1-3c-5.996 0-5 .996-5-5-6.072 0-11.166 7-18 7 0 4.539-12 8.845-12 4-6.923 0-12.604-1-20-1 0 .056 6.946 3 4 3ZM200 278l1 1v-2l-1 1ZM256 278h1l-2-1 1 1Z"/><path fill="#CBC7CC" id="sctv" d="M301 281h2l1-1 1-1-1-2c-1.481 0-.785 2-3 2v2Z"/><path fill="#FCB2D8" id="PPY" d="M203 283c0 4.539-12 8.845-12 4 0-1.643 1.338-6 3-6l1-1 5-2 1 1 2 4ZM253 283c0 4.651 12 9.53 12 3l-2-5-2-2-4-1h-1c0 1.076-1.523 5-3 5Z"/><path fill="#FF9BCD" id="MY" d="m195 280-1 1v-2l1 1ZM263 279v2l-2-2h2Z"/><path fill="#C8C8CB" id="rust" d="M301 281c-3.895 0-6.401 4-11 4 0-1.369 9.543-6 11-6v2Z"/><path fill="#FF9BCD" id="MY" d="m305 279-1 1 1-1ZM226 281h1l-1-1v1ZM304 280l-1 1 1-1ZM154 281l2 2-2-2Z"/><path fill="#FFC6E2" id="RPA" d="m226 287 2.5 2 2.5-2v-2l-1-4h-4l-1 3 1 3Z"/><path fill="#CBC7CC" id="sctv" d="M281 289h4l2-1h1c0-1.473 1.952-1 3-1h1l2-1h1l1-1h1l1-1h1l1-1 1-1v-1c-3.895 0-6.401 4-11 4h-1l-2 1h-1c0 2.527-5-.826-5 3Z"/><path fill="#FF9BCD" id="MY" d="m303 281-2 1v-1h2ZM301 282l-1 1 1-1ZM157 283l2 2-2-2ZM300 283l-1 1 1-1Z"/><path fill="#C7C9C9" id="py" d="M216 295h3l4-2.5 3-5.5-1-3c-6.369 0-16.724.948-20 7.5l3 3.5h8ZM246 295h3c0-1.317 3.356-1.788 2-4.5-3.386-6.773-14.515-5.5-20-5.5v2c0 3.416 6 6.157 6 8h9Z"/><path fill="#FF9BCD" id="MY" d="m298 284-1 1 1-1ZM161 285l3 2c-1.238 0-3-.423-3-2ZM167 285l2 1-2-1ZM289 285l-2 1 2-1ZM296 285l-1 1 1-1ZM294 286l-2 1 2-1ZM166 287l2 1-2-1ZM219 295c4.433 0 7.987-5 9.5-5l2 3c2.38 1.19 3.546 2 6.5 2 0-1.843-6-4.584-6-8l-2.5 2-2.5-2-3 5.5-4 2.5ZM291 287c-1.048 0-3-.473-3 1 1.048 0 3 .473 3-1ZM169 288c1.048 0 3-.473 3 1-1.048 0-3 .473-3-1ZM287 288l-2 1 2-1ZM211 295h5c0 1.566-5 1.566-5 0ZM240 295h6c0 1.587-6 1.587-6 0Z"/></svg>