<svg xmlns="http://www.w3.org/2000/svg" viewBox="0 0 456 320"><path fill="#1BA696" id="RSPagl1" d="m188 15-13 2-2-5c0-.481 12.51-3 14-3l1 5v1Z"/><path fill="#1BA598" id="RSPd1" d="m221 20-2 1-5.5-5-7-3c-4.708-2.354-14.017 1-18.5 1l-1-5c8.478 0 34-1.339 34 11ZM235 21h2c.22 0 10.449-6.974 12.5-8 5.666-2.833 14.802 2 19.5 2V9c-9.146 0-34-.761-34 12Z"/><path fill="#1BA696" id="RSPagl1" d="m269 15 13 2 1-5c0-.481-12.51-3-14-3v6Z"/><path fill="#09848B" id="VISam1" d="M167 18h1c0-1.714 5.594-1 7-1l-2-5-8 1 2 5ZM289 18h1l1-5-8-1-1 5c2.409 0 5.181 1 7 1Z"/><path fill="#019FAC" id="VISa1" d="M118 33h1c0-2.076 7.932-3.216 9.5-4 10.854-5.427 25.689-11 38.5-11l-2-5c-7.916 0-29.515 6.508-36.5 10-1.876.938-12.5 2.722-12.5 5l2 5Z"/><path fill="#1BA697" id="RSPd2/3" d="M214 26h1c0-1.712 2.571-3 4-3v-2l-5.5-5-7-3c-4.708-2.354-14.017 1-18.5 1v8c3.958 0 26-4.601 26 4ZM241 26h1c0-8.42 22.812-4 27-4v-7c-4.698 0-13.834-4.833-19.5-2-2.051 1.026-12.28 8-12.5 8v1l4 4Z"/><path fill="#019FAC" id="VISa1" d="M338 33h1c0-1.424.362-5 2-5 0-1.172-11.841-4.17-13.5-5-7.421-3.71-28.039-10-36.5-10l-1 5c6.866 0 24.616 4.058 30.5 7 4.492 2.246 12.476 8 17.5 8Z"/><path fill="#1AA496" id="RSPagl2/3" d="M176 25v1l12-4v-7l-13 2c0 2.707 1 5.903 1 8ZM281 25v2c-3.933 0-7.365-4-12-4v-8l13 2-1 8Z"/><path fill="#0B848A" id="VISam2/3" d="M170 26h1l5-1c0-2.097-1-5.293-1-8-1.406 0-7-.714-7 1 0 3.664 2 5.007 2 8ZM285 26h1c.951 0 3-6.87 3-8-1.819 0-4.591-1-7-1l-1 8 4 1Z"/><path fill="#009EAB" id="VISa2/3" d="M121 41h1c2.536 0 32.023-10.262 35.5-12 1.895-.948 12.5-.459 12.5-3 0-2.993-2-4.336-2-8h-1c-12.811 0-27.646 5.573-38.5 11-1.568.784-9.5 1.924-9.5 4l2 8ZM334 41h1l3-8c-5.024 0-13.008-5.754-17.5-8-5.884-2.942-23.634-7-30.5-7h-1c0 1.13-2.049 8-3 8 0 1.887 10.796 2.148 12.5 3 3.174 1.587 33.402 12 35.5 12Z"/><path fill="#1AA596" id="RSPd5" d="M207 34c-2.935 0-6.006-5.247-10.5-3-1.689.845-6.846 4-8.5 4V22c3.958 0 26-4.601 26 4l-7 8Z"/><path fill="#1BA597" id="RSPv1" d="M230 65h2V31.5l5-9.5v-1h-2c-2.863 0-4.487 9-6.5 9L221 20l-2 1v2c3.427 0 4.009 7.517 5 9.5 1.323 2.645 1 27.505 1 32.5h2c0-6.687 3-6.044 3 0Z"/><path fill="#1AA596" id="RSPd5" d="M249 35h1c0-8.91 14.93-1 18-1 0-3.21 1-7.198 1-11v-1c-4.188 0-27-4.42-27 4 0 3.398 7 5.13 7 9Z"/><path fill="#1CA697" id="RSPagl5" d="m188 35-11 4-1-12v-1l12-4v13Z"/><path fill="#1AA597" id="RSPv2/3" d="m236 64-4 1V31.5l5-9.5 4 4-3 9.5-2 28.5ZM221 64l4 1c0-4.995.323-29.855-1-32.5-.991-1.983-1.573-9.5-5-9.5-1.429 0-4 1.288-4 3 0 2.461 2.811 9.121 4 11.5v15c1.369 2.738 2 8.42 2 11.5Z"/><path fill="#1CA697" id="RSPagl5" d="M279 39h1c0-4.107 1-8.469 1-12-3.933 0-7.365-4-12-4 0 3.802-1 7.79-1 11v1l11 4Z"/><path fill="#09858A" id="VISam4" d="m176 27-5 1v-2l5-1v2ZM281 27l4 1v-2l-4-1v2Z"/><path fill="#019EAC" id="VISa4" d="M124 47h1l13.5-7c6.345-3.172 25.744-11 32.5-11v-3h-1c0 2.541-10.605 2.052-12.5 3-3.477 1.738-32.964 12-35.5 12l2 6Z"/><path fill="#1BA498" id="RSPv5" d="M219 64h2c0-3.08-.631-8.762-2-11.5v-15c-1.189-2.379-4-9.039-4-11.5h-1l-7 8v1c0 6.04 1.393 16.287 4 21.5l2 2.5 6 5ZM236 64h2l6-5c0-7.365 5-14.866 5-24 0-3.87-7-5.602-7-9h-1l-3 9.5-2 28.5Z"/><path fill="#019EAC" id="VISa4" d="m334 41-2 6c-3.363 0-8.462-4.481-11.5-6-5.709-2.855-29.765-12-35.5-12v-3h1c0 1.887 10.796 2.148 12.5 3 3.174 1.587 33.402 12 35.5 12Z"/><path fill="#0A848B" id="VISam5" d="M176 39h1l-1-12-5 1v1c1.693 0 4 8.24 4 10h1ZM280 39h1l4-10v-1l-4-1c0 3.531-1 7.893-1 12Z"/><path fill="#029FAB" id="VISrl1" d="M114 34h1l3-1-2-5c-1.041 0-5 .986-5 2l3 4ZM342 34h1c0-2.424 2-2.76 2-4l-4-2c-1.638 0-2 3.576-2 5l3 1Z"/><path fill="#019EAB" id="VISa5" d="M125 48c0 2.805 4 4.54 4 7 3.363 0 8.462-4.481 11.5-6 4.877-2.439 29.434-10 34.5-10 0-1.76-2.307-10-4-10-6.756 0-26.155 7.828-32.5 11L125 47v1ZM332 48l-5 7-11.5-6c-4.208-2.104-30.204-10-34.5-10l4-10c5.735 0 29.791 9.145 35.5 12 3.038 1.519 8.137 6 11.5 6v1Z"/><path fill="#188060" id="SSp-bfd1" d="M65 67h1c1.05 0 18.972-17.736 23.5-20 5.864-2.932 11.083-7.042 17-10 1.096-.548 7.5-1.994 7.5-3l-3-4c-6.004 0-32.58 19.08-38 24.5L63 64l2 3ZM390 67h1l3-2-10.5-11c-5.621-5.621-30.631-24-38.5-24 0 1.24-2 1.576-2 4 0 1.58 8.912 4.206 10.5 5 9.953 4.976 20.178 12.178 28.5 20.5l8 7.5Z"/><path fill="#1AA697" id="RSPd6a" d="M193 45c0-2.322 5.704 0 7 0 2.729 0 3.72-10 7-10v-1c-2.935 0-6.006-5.247-10.5-3-1.689.845-6.846 4-8.5 4l1 10h4ZM259 45c0-2.46 6.743 0 8 0l1-10v-1c-3.07 0-18-7.91-18 1l6 10h3Z"/><path fill="#029EAC" id="VISrl2/3" d="M119 42h1l1-1-2-8h-1l-3 1 4 8ZM335 41l2 1 5-8-3-1h-1l-3 8Z"/><path fill="#187F63" id="SSp-bfd2/3" d="M66 67c0 1.626 4.11 8 6 8 .75 0 15.563-16.032 19.5-18 7.173-3.586 13.807-8.403 21-12 1.326-.663 6.5-1.002 6.5-3l-4-8h-1c0 1.006-6.404 2.452-7.5 3-5.917 2.958-11.136 7.068-17 10-4.528 2.264-22.45 20-23.5 20ZM384 76h1c0-2.35 3.689-7 6-7v-1l-1-1-8-7.5c-8.322-8.322-18.547-15.524-28.5-20.5-1.588-.794-10.5-3.42-10.5-5h-1l-5 8v1c8.415 0 31.229 15.73 37 21.5 2.77 2.77 10 8.295 10 11.5Z"/><path fill="#1CA597" id="RSPagl6a" d="M178 47h8c0-1.473 1.952-1 3-1v-1l-1-10-11 4v1l1 7Z"/><path fill="#1AA498" id="RSPv6a" d="M209 56c0 .966 2.886 3 4 3l-2-2.5c-2.607-5.213-4-15.46-4-21.5-3.28 0-4.271 10-7 10v1c2.172 0 9 7.508 9 10ZM247 56l-3 3c0-7.365 5-14.866 5-24h1l6 10v1l-1 1c-1.577 0-2 1.762-2 3l-1 1-1 1-1 1-1 1-1 1-1 1Z"/><path fill="#1CA597" id="RSPagl6a" d="m267 46 11 1c0-1.819 1-4.59 1-7v-1l-11-4-1 10v1Z"/><path fill="#009DAC" id="VISa6a" d="M138 59h1l4-2c0-2.51 7.794-3.147 9.5-4 7.631-3.815 16.257-5 25.5-5v-1l-1-7-1-1h-1c-5.066 0-29.623 7.561-34.5 10-3.038 1.519-8.137 6-11.5 6l2 3c1.934 0 7-.07 7 1Z"/><path fill="#0A828B" id="VISam6a" d="M177 39v1l-1-1h1ZM280 39l-1 1v-1h1Z"/><path fill="#009DAC" id="VISa6a" d="M317 59h2c1.564 0 3.876-1 6-1l2-3-11.5-6c-4.208-2.104-30.204-10-34.5-10h-1l-1 1c0 2.41-1 5.181-1 7 10.227 0 22.808 3.654 31.5 8 1.491.746 7.5 1.892 7.5 4Z"/><path fill="#019EAA" id="VISrl4" d="M120 42c0 1.247 2.467 5 4 5l-2-6h-1l-1 1ZM332 48h1c0-1.247 2.467-5 4-5v-1l-2-1h-1l-2 6v1Z"/><path fill="#197C64" id="SSp-bfd4" d="m72 76 5 6c4.119 0 7.74-7.62 10.5-9 6.616-3.308 29.97-25 36.5-25v-1c-1.533 0-4-3.753-4-5h-1c0 1.998-5.174 2.337-6.5 3-7.193 3.597-13.827 8.414-21 12-3.937 1.968-18.75 18-19.5 18v1ZM384 76l-5 6c-3.971 0-17.721-16.61-22.5-19-6.275-3.137-11.197-8.599-18-12l-5.5-3c0-1.247 2.467-5 4-5 8.415 0 31.229 15.73 37 21.5 2.77 2.77 10 8.295 10 11.5Z"/><path fill="#1BA698" id="RSPd6b" d="M199 46h1v-1c-1.296 0-7-2.322-7 0l6 1ZM267 46v1c-2.885 0-4.697-2-8-2 0-2.46 6.743 0 8 0v1ZM189 46v1l4-2h-4v1Z"/><path fill="#CACCC7" id="cing" d="m213 59 6 5c-10.582 0-20.612-8.556-29.5-13-4.334-2.167-20.604 2-26.5 2h-4c0-2.413 15.612-4 19-4 1.775 0 8-.07 8-2h3l4-2 6 1 10 10c0 .966 2.886 3 4 3Z"/><path fill="#1BA698" id="RSPd6b" d="M256 46h1l2-1h-3v1Z"/><path fill="#CACCC7" id="cing" d="m244 59-6 5c9.69 0 17.4-7.95 25.5-12 8.256-4.128 21.415 1 30.5 1h3c0-2.873-15.61-4-19-4l-11-2c-2.885 0-4.697-2-8-2l-2 1-2 1c0 1.238-.423 3-2 3l-1 1-1 1-1 1-1 1-1 1-1 1-3 3Z"/><path fill="#1AA598" id="RSPagl6b" d="M186 47h3v-1c-1.048 0-3-.473-3 1Z"/><path fill="#1AA497" id="RSPv6b" d="M200 46c2.172 0 9 7.508 9 10l-10-10h1ZM257 46l-2 1 1-1h1Z"/><path fill="#1AA598" id="RSPagl6b" d="M278 47v2l-11-2v-1l11 1Z"/><path fill="#019DAB" id="VISrl5" d="M124 48h1v-1h-1v1Z"/><path fill="#1AA598" id="RSPagl6b" d="M178 48v1c1.775 0 8-.07 8-2h-8v1Z"/><path fill="#1AA497" id="RSPv6b" d="M255 47c-1.577 0-2 1.762-2 3 1.577 0 2-1.762 2-3Z"/><path fill="#029FAC" id="VISa6b" d="M316 59h1c0-2.108-6.009-3.254-7.5-4-8.692-4.346-21.273-8-31.5-8v2c3.39 0 19 1.127 19 4 7.471 0 12.534 6 19 6Z"/><path fill="#1A7D62" id="SSp-bfd5" d="M83 91h1l9.5-11c4.477-4.477 30.632-25 35.5-25 0-2.46-4-4.195-4-7h-1c-6.53 0-29.884 21.692-36.5 25-2.76 1.38-6.381 9-10.5 9v1c0 3.463 6 3.457 6 8Z"/><path fill="#029FAC" id="VISa6b" d="M159 53c-6.276 0-9.927 4-16 4 0-2.51 7.794-3.147 9.5-4 7.631-3.815 16.257-5 25.5-5v1c-3.388 0-19 1.587-19 4Z"/><path fill="#1A7D62" id="SSp-bfd5" d="M372 91h1l6-8v-1c-3.971 0-17.721-16.61-22.5-19-6.275-3.137-11.197-8.599-18-12l-5.5-3h-1l-5 7c4.498 0 33.89 21.28 36 25.5 1.873 3.747 9 6.063 9 10.5Z"/><path fill="#1AA497" id="RSPv6b" d="m253 50-1 1 1-1Z"/><path fill="#C7CACC" id="ccs" d="M104 102c-6.615 0-5.786 15-10 15 0-12.743 15.513-36.007 27.5-42 2.206-1.103 19.5-13.379 19.5-14 4.521 0 11.498-3.999 15.5-6 1.134-.567 6.5-.546 6.5-2 5.896 0 22.166-4.167 26.5-2 8.888 4.444 18.918 13 29.5 13h2l4 1h7l4-1h2c9.69 0 17.4-7.95 25.5-12 8.256-4.128 21.415 1 30.5 1 0 1.993 5.2 1.35 6.5 2l15.5 7c0 2.035 8.758 6.129 10.5 7 10.542 5.271 18.608 16.608 27 25 4.874 4.874 5.694 10.888 8.5 16.5.969 1.938 2.167 6.5 0 6.5-.906 0-6.305-16-10-16-2.858 0-4.81-10.655-7.5-12l-14-14c-7.759-3.88-14.321-10.16-22-14-8.537-4.269-19.177-5-29.5-5-2.155 0-10 .525-10 3l-2 1-1 1h-2c-6.486 0-12.882 9.19-18.5 12-5.108 2.554-11.881 1.44-17 4l-6-2c-1.901-.95-10.39-1.695-15-4-4.578-2.289-9.177-10-14.5-10l-10.5-5h-10c-1.363 0-6.5-.7-6.5 1-4.485 0-27 6.113-27 10-1.664 0-6 1.823-6 4-2.681 0-10 5.621-10 8-1.747 0-2 .253-2 2-2.473 0-6 3.527-6 6-1.976 0-4 2.876-4 5-1.577 0-2 1.762-2 3-1.391 0-5 5.706-5 7Z"/><path fill="#1AA497" id="RSPv6b" d="m252 51-1 1 1-1ZM251 52l-1 1 1-1Z"/><path fill="#C9C9CA" id="scwm" d="M141 60v1c4.521 0 11.498-3.999 15.5-6 1.134-.567 6.5-.546 6.5-2h-4c-6.276 0-9.927 4-16 4 0 1.747-.253 2-2 2v1Z"/><path fill="#1AA497" id="RSPv6b" d="m250 53-1 1 1-1Z"/><path fill="#C9C9CA" id="scwm" d="M316 60v2l-15.5-7c-1.3-.65-6.5-.007-6.5-2h3c7.471 0 12.534 6 19 6v1Z"/><path fill="#1AA497" id="RSPv6b" d="m249 54-1 1 1-1Z"/><path fill="#198060" id="SSp-bfd6a" d="m84 91 7 9c0-2.65 10.037-13 12-13 0-2.839 7.161-10 10-10 0-2.149 7.502-8 10-8 0-2.223 8.138-7 10-7v-1l-2-3-2-3c-4.868 0-31.023 20.523-35.5 25L84 91Z"/><path fill="#1AA497" id="RSPv6b" d="m248 55-1 1 1-1Z"/><path fill="#198060" id="SSp-bfd6a" d="M372 91c0 1.429-4.933 9-6 9l-7.5-9c-2.261-1.13-6.167-5.835-7.5-8.5-1.597-3.194-24.801-20.5-28-20.5v-1c1.577 0 2-1.762 2-3l2-3c4.498 0 33.89 21.28 36 25.5 1.873 3.747 9 6.063 9 10.5Z"/><path fill="#C7C8CC" id="alv" d="M193 61c0 4.871 23 18.345 23 20-7.434 0-14.924-13.712-21.5-17-13.447-6.723-12.234-7-28.5-7 0-1.7 5.137-1 6.5-1h10l10.5 5ZM330 119l7 2c4.23 0 7.487 2.007 11.5 0 2.114-1.057 3.346-7 4.5-7 0-4.569-1-8.923-1-13-2.858 0-4.81-10.655-7.5-12l-14-14c-7.759-3.88-14.321-10.16-22-14-8.537-4.269-19.177-5-29.5-5-2.155 0-10 .525-10 3 5.234 0 14.577-4.962 20.5-2l17 5c5.202 2.601 9.704 6.352 15 9 3.089 1.545 8.057 4.615 9.5 7.5 1.944 3.888 12 6.96 12 12.5 1.712 0 3 2.571 3 4 4.859 0 8.169 19.666-.5 24-6.19 3.095-27.67-8-37.5-8v1c3.222 0 6.277 1 9 1l10 4 1 1 2 1Z"/><path fill="#029FAC" id="VISa6b" d="M139 59h2c1.747 0 2-.253 2-2l-4 2Z"/><path fill="#C7C8CC" id="alv" d="M166 57c-4.485 0-27 6.113-27 10l16.5-7c1.51-.755 10.5-1.348 10.5-3Z"/><path fill="#7ECF4B" id="CA1" d="M212 101h1l1-1c1.658 0 3-1.46 3-3 0-3.033 4-6.517 4-12l-4-3-1-1c-7.434 0-14.924-13.712-21.5-17-13.447-6.723-12.234-7-28.5-7 0 1.652-8.99 2.245-10.5 3L139 67c0 1.617-4.583 4-6 4 0 2.115-8.185 8-10 8 0 1.747-.253 2-2 2l-6 6-2 4c9.776 0 19.801 1 29 1 2.588 0 22.378-16.061 30.5-12l30 15 9.5 6ZM242 100l3 1c0-1.45 13.507-8.004 15.5-9 9.256-4.628 22.134-16.933 34-11 2.459 1.23 19.626 11 20.5 11 8.774 0 18.617-1 28-1 0-5.54-10.056-8.612-12-12.5-1.443-2.885-6.411-5.955-9.5-7.5-5.296-2.648-9.798-6.399-15-9l-17-5c-5.923-2.962-15.266 2-20.5 2l-2 1-1 1h-1c0 1.747-.253 2-2 2l-1 1-1 1-2 2c0 1.811-3.438 4-5 4l-1 1-1 1c0 1.577-1.762 2-3 2l-1 1-1 1h-1l-1 1-1 1h-1l-1 1-1 1h-1l-1 1-2 1-1 2-1 1c0 4.254 4 7.157 4 11l3 3Z"/><path fill="#188063" id="SSp-tr6a" d="m138 59-5 2-2-3c1.934 0 7-.07 7 1ZM319 59l4 2c1.577 0 2-1.762 2-3-2.124 0-4.436 1-6 1Z"/><path fill="#1A8063" id="SSp-tr6b" d="M133 62v1l8-3v-1h-3l-5 2v1Z"/><path fill="#C7C8CC" id="alv" d="m269 59-2 1 2-1Z"/><path fill="#1A8063" id="SSp-tr6b" d="M323 62v1l-7-3v-1h3l4 2v1Z"/><path fill="#CBC9C7" id="or" d="M81 128c0 1.238.423 3 2 3 3.923 0 5.759-13 11-13v-1c0-12.743 15.513-36.007 27.5-42 2.206-1.103 19.5-13.379 19.5-14v-1l-8 3c-3.524 0-5.962 6-10 6 0 1.872-7.657 8-10 8 0 1.704-7.964 10-10 10 0 2.895-6.987 9.487-9 11.5l-3 3.5c0 2.757-4 4.081-4 7l-1 1-1 2v1c0 5.113-4 9.289-4 15Z"/><path fill="#C7C8CC" id="alv" d="m267 60-1 1 1-1Z"/><path fill="#CBC9C7" id="or" d="M375 127c0 1.622.461 5-2 5 0-2.626-7.652-14-11-14v-1c2.167 0 .969-4.562 0-6.5-2.806-5.612-3.626-11.626-8.5-16.5-8.392-8.392-16.458-19.729-27-25-1.742-.871-10.5-4.965-10.5-7v-2l7 3c2.828 0 5.994 4.747 8.5 6 10.455 5.227 18.104 19.552 27 24l6.5 8c0 1.451 3.778 8 5 8l1 2v1c0 5.055 4 9.225 4 15Z"/><path fill="#C9CCC9" id="dhc" d="M230 84h5l2-1 2-1 1-1h1l1-1 1-1h1l1-1 1-1h1l1-1 1-1c0-1.577 1.762-2 3-2l1-1 1-1c0-1.811 3.438-4 5-4 0-1.747.253-2 2-2l1-1 1-1 1-2c-6.486 0-12.882 9.19-18.5 12-5.108 2.554-11.881 1.44-17 4l-6-2c-1.901-.95-10.39-1.695-15-4-4.578-2.289-9.177-10-14.5-10 0 4.871 23 18.345 23 20l1 1c1.041 0 5 .986 5 2h5c0-1.486 3-1.486 3 0Z"/><path fill="#C7C8CC" id="alv" d="M265 61c0 1.747-.253 2-2 2l1-2h1Z"/><path fill="#1A7E61" id="SSp-bfd6b" d="M133 63c-3.524 0-5.962 6-10 6 0-2.223 8.138-7 10-7v1ZM365 101h1v-1l-7.5-9c-2.261-1.13-6.167-5.835-7.5-8.5-1.597-3.194-24.801-20.5-28-20.5v1c2.828 0 5.994 4.747 8.5 6 10.455 5.227 18.104 19.552 27 24l6.5 8Z"/><path fill="#C7C8CC" id="alv" d="m263 63-1 1 1-1Z"/><path fill="#1A7E62" id="SSs1" d="m45 86 3 4 3.5-5C53.12 83.38 65 67.353 65 67l-2-3c-2.21 0-18 19.99-18 22Z"/><path fill="#C7C8CC" id="alv" d="m262 64-1 1 1-1ZM261 65c-1.747 0-2 .253-2 2l2-2Z"/><path fill="#1A7E62" id="SSs1" d="m412 86-4 3c-1.98 0-12.168-20-17-20v-2l3-2c1.67 0 18 19.901 18 21Z"/><path fill="#1B8063" id="SSs2/3" d="M48 91c4.091 0 4.9 7 9 7 0-2.06 9.447-14.947 11.5-17l3.5-5v-1c-1.89 0-6-6.374-6-8h-1c0 .353-11.88 16.38-13.5 18L48 90v1Z"/><path fill="#C7C8CC" id="alv" d="M139 67c-1.664 0-6 1.823-6 4 1.417 0 6-2.383 6-4ZM259 67c-1.562 0-5 2.189-5 4 1.562 0 5-2.189 5-4Z"/><path fill="#1B8063" id="SSs2/3" d="M391 67v1l-1-1h1Z"/><path fill="#1A7E61" id="SSp-bfd6b" d="M123 69c-2.498 0-10 5.851-10 8 2.343 0 10-6.128 10-8Z"/><path fill="#1B8063" id="SSs2/3" d="m408 91-8 7-15-22c0-2.35 3.689-7 6-7 4.832 0 15.02 20 17 20v2Z"/><path fill="#C7C8CC" id="alv" d="M133 71c-2.681 0-10 5.621-10 8 1.815 0 10-5.885 10-8ZM254 71l-1 1 1-1ZM253 72l-1 1 1-1ZM252 73c-1.238 0-3 .423-3 2 1.238 0 3-.423 3-2ZM249 75l-1 1 1-1Z"/><path fill="#187C63" id="SSs4" d="m57 99 3 3c3.364 0 12.766-19 17-19v-1l-5-6-3.5 5C66.447 83.053 57 95.94 57 98v1Z"/><path fill="#C7C8CC" id="alv" d="m248 76-1 1 1-1Z"/><path fill="#187C63" id="SSs4" d="M396 103h1l3-4v-1l-15-22h-1l-5 6v1c1.601 0 17 18.829 17 20Z"/><path fill="#1A7E61" id="SSp-bfd6b" d="M113 77c-2.839 0-10 7.161-10 10 2.036 0 10-8.296 10-10Z"/><path fill="#C7C8CC" id="alv" d="m246 77-1 1 1-1ZM245 78l-1 1 1-1ZM123 79c-1.747 0-2 .253-2 2 1.747 0 2-.253 2-2ZM243 79l-1 1 1-1Z"/><path fill="#7BD04A" id="DG-mo" d="M205 115h1c0-1.577 1.762-2 3-2v-1l1-1 1-1 1-1 1-2v-5l-1-1-9.5-6-30-15c-8.122-4.061-27.912 12-30.5 12l-1 3c0 2.944 5.939 4 8 4 0-3.968 8.669-4.585 11.5-6 13.332-6.666 19.968-.016 32 6l15 4c1.586.793-.071 5.536-1 6-2.799 1.4-6.927 2.537-10 1-4.777-2.388-11.867-5-17.5-5-1.804 0-5.136-2.182-7.5-1-3.109 1.554-6.767 3-10.5 3l-2 2v1l1 1 18 1 1 1h5l2 1h3l1 1h15Z"/><path fill="#C7C8CC" id="alv" d="m242 80-1 1 1-1Z"/><path fill="#7BD04A" id="DG-mo" d="M263 115h4l1-1h2c0-1.473 1.952-1 3-1h4l2-1 18-1 1-1v-1c-1.481 0-.785-2-3-2l-10.5-3c-2.288-1.144-5.166 1-7 1-5.785 0-12.14 2.57-17 5-4.949 2.475-17.404-3.798-11-7l10-2c13.617-6.809 20.568-15.716 36-8 2.904 1.452 11.5 1.698 11.5 6 2.881 0 8-.785 8-4v-3c-.874 0-18.041-9.77-20.5-11-11.866-5.933-24.744 6.372-34 11-1.993.996-15.5 7.55-15.5 9l-1 1c0 2.153 1 4.722 1 7v1l1 1 1 1c1.929 0 8.184 4 14 4l2-1Z"/><path fill="#C7C8CC" id="alv" d="M121 81c-2.473 0-6 3.527-6 6l6-6ZM240 81l-1 1 1-1ZM222 84l-1 1-4-3c1.041 0 5 .986 5 2ZM239 82l-2 1 2-1Z"/><path fill="#1C8063" id="SSs5" d="M60 103c0 3.339 5.705 4.909 7 7.5v3l2 .5c0-6.46 14-17.276 14-23 0-4.543-6-4.537-6-8-4.234 0-13.636 19-17 19v1Z"/><path fill="#C7C8CC" id="alv" d="M235 85h1l1-2-2 1v1Z"/><path fill="#1C8063" id="SSs5" d="M396 103c0 5.134-8 6.398-8 11l-15-23 6-8c1.601 0 17 18.829 17 20Z"/><path fill="#7ECD4A" id="FC" d="M225 90c-2.818 0-3.961 7-8 7 0-3.033 4-6.517 4-12l1-1h5c0 2.72-2 3.553-2 6ZM235 86c0 4.254 4 7.157 4 11-3.072 0-6.566-5.632-8-8.5-.385-.77-3.382-4.5-1-4.5h5v2Z"/><path fill="#7DCD4B" id="HPF" d="m236 85-1 1v-1h1Z"/><path fill="#039399" id="AUDd1" d="m30 115 5 1 13-25v-1l-3-4c-2.164 0-15 25.365-15 29ZM421 117h1l4-2c0-8.109-14-26.053-14-29l-4 3v1l1 1c0 7.711 12 17.51 12 26Z"/><path fill="#1A7E61" id="SSp-bfd6b" d="M91 101v1l3-3.5c2.013-2.013 9-8.605 9-11.5-1.963 0-12 10.35-12 13v1Z"/><path fill="#C7C8CC" id="alv" d="m113 91-2 1c0-2.124 2.024-5 4-5l-2 4Z"/><path fill="#A8A9AA" id="V3" d="M223 95c4.052 0 2.343 5 5.5 5 1.329 0 1.966-5 4.5-5 0-2.028-1.191-1.881-2-3.5-.476-.953-.372-4.5-2.5-4.5l-3.5 3c0 2.25-2 3.376-2 5Z"/><path fill="#65A83D" id="DG-sg" d="M168 102c-1.884 0-7 2.575-7 5 3.733 0 7.391-1.446 10.5-3 2.364-1.182 5.696 1 7.5 1 5.633 0 12.723 2.612 17.5 5 3.073 1.537 7.201.4 10-1 .929-.464 2.586-5.207 1-6l-15-4c-12.032-6.016-18.668-12.666-32-6-2.831 1.415-11.5 2.032-11.5 6h6c0-2.55 8.735-3.117 10.5-4 5.072-2.536 27.543 4.587 29.5 8.5.731 1.461-10.673-.587-12.5-1.5-3.658-1.829-9.15-1-13.5-1l-1 1ZM287 101c2.237 0 8 3.917 8 6l-10.5-3c-2.288-1.144-5.166 1-7 1-5.785 0-12.14 2.57-17 5-4.949 2.475-17.404-3.798-11-7l10-2c13.617-6.809 20.568-15.716 36-8 2.904 1.452 11.5 1.698 11.5 6h-5c0-2.059-9.797-3.149-11.5-4-8.04-4.02-16.486 2.743-23 6-1.027.513-6.5 1.641-6.5 3.5l2.5.5c3.389-1.694 7.713-1.357 11-3 3.445-1.722 8.393-1 12.5-1Z"/><path fill="#1A7E62" id="SSs1" d="M408 91h1l-1-1v1Z"/><path fill="#029397" id="AUDd2/3" d="M35 117c3.989 0 6.011 3 10 3 0-5.298 6.71-10.92 9-15.5l3-5.5v-1c-4.1 0-4.909-7-9-7l-13 25v1Z"/><path fill="#197D63" id="SSs6a" d="m79 121-3 4c0-2.838-6.468-10-7-10v-1c0-6.46 14-17.276 14-23h1l7 9v1c-2.673 0-12 17.161-12 20Z"/><path fill="#7DCF4B" id="CA2" d="M110 95h31l1-3c-9.199 0-19.224-1-29-1l-2 1-1 3ZM315 95h31c0-1.429-1.288-4-3-4-9.383 0-19.226 1-28 1v3Z"/><path fill="#197D63" id="SSs6a" d="M388 115c-4.827 0-5.36 10-8 10 0-2.766-12.827-24-14-24v-1c1.067 0 6-7.571 6-9h1l15 23v1Z"/><path fill="#029397" id="AUDd2/3" d="M411 120h1c3.083 0 5.545-3 9-3 0-8.49-12-18.289-12-26h-1l-8 7v1c0 7.429 11 13.074 11 21Z"/><path fill="#C7C8CC" id="alv" d="M109 95h1l1-3c-1.577 0-2 1.762-2 3Z"/><path fill="#7ECF49" id="CA3" d="M148 111h1c0-1.684 4.679-1 6-1h3l1-1 2-2c0-2.425 5.116-5 7-5l1-1c0-3.464-10.85-2-14-2h-6c-2.061 0-8-1.056-8-4h-32l-4 10.5c-1.028 2.056.208 6.416 1 8 6.733 13.465 21.376-.5 31-.5 0-2.497 8.839-2 11-2Z"/><path fill="#7ECE4A" id="DG-po" d="M155 99c3.15 0 14-1.464 14 2 4.35 0 9.842-.829 13.5 1 1.827.913 13.231 2.961 12.5 1.5-1.957-3.913-24.428-11.036-29.5-8.5-1.765.883-10.5 1.45-10.5 4ZM302 99c-2.556 0-15-1.382-15 2-4.107 0-9.055-.722-12.5 1-3.287 1.643-7.611 1.306-11 3l-2.5-.5c0-1.859 5.473-2.987 6.5-3.5 6.514-3.257 14.96-10.02 23-6 1.703.851 11.5 1.941 11.5 4Z"/><path fill="#7ECF49" id="CA3" d="M307 111h1c9.83 0 31.31 11.095 37.5 8 8.669-4.334 5.359-24 .5-24h-31c0 3.215-5.119 4-8 4h-5c-2.556 0-15-1.382-15 2 2.237 0 8 3.917 8 6 2.215 0 1.519 2 3 2l1 1h2c1.321 0 6-.684 6 1Z"/><path fill="#C7C8CC" id="alv" d="M126 119h1l2-1 8-5c-9.624 0-24.267 13.965-31 .5-.792-1.584-2.028-5.944-1-8l4-10.5c-1.391 0-5 5.706-5 7v13l3.5 6c4.013 2.007 7.27 0 11.5 0l7-2Z"/><path fill="#A8A9AA" id="V3" d="m223 95-1 1 1-1Z"/><path fill="#A9AAA8" id="chpl" d="M219 103c1.805 0 6.331 7.915 8.5 9 4.117 2.059 6.788-8 9.5-8 0-3.138-2-5.662-2-8l-1-1h-1c-2.534 0-3.171 5-4.5 5-3.157 0-1.448-5-5.5-5l-1 1-1 1-1 1v1l-1 1v3Z"/><path fill="#A8A9AA" id="V3" d="m234 95 1 1-1-1ZM222 96l-1 1 1-1ZM221 97l-1 1 1-1Z"/><path fill="#039398" id="AUDd4" d="m45 120 4 1c1.504 0 8.557-18 11-18v-1l-3-3-3 5.5c-2.29 4.58-9 10.202-9 15.5Z"/><path fill="#A8A9AA" id="V3" d="m220 99-1 1 1-1Z"/><path fill="#039398" id="AUDd4" d="m411 120-4 2c0-4.993-10-14.826-10-19l3-4c0 7.429 11 13.074 11 21Z"/><path fill="#7DCD4B" id="HPF" d="m214 100-1 1 1-1ZM245 101l-1 1-2-2 3 1Z"/><path fill="#1A8061" id="SSs6b" d="m85 113-6 8c0-2.839 9.327-20 12-20v1c0 2.757-4 4.081-4 7l-1 1-1 2v1Z"/><path fill="#7ECE4A" id="DG-po" d="m169 101-1 1 1-1Z"/><path fill="#7DCD4B" id="HPF" d="M213 101v1l-1-1h1Z"/><path fill="#A8AAAA" id="VL" d="m357 137-4 2c0-2.39 5.101-14 0-14v-11c0-4.569-1-8.923-1-13 3.695 0 9.094 16 10 16v1c-7.717 0-2 9.113-2 12l-1 3-1 2-1 2Z"/><path fill="#1A8061" id="SSs6b" d="M379 126h1v-1c0-2.766-12.827-24-14-24h-1c0 1.451 3.778 8 5 8l1 2v1c2.132 0 8 12.088 8 14Z"/><path fill="#A8AAAA" id="VL" d="M98 134c2.145 0 2.793 6 6 6 0-2.253-6.84-16 0-16v-22c-6.615 0-5.786 15-10 15v1c9.405 0 2 8.508 2 12l2 4Z"/><path fill="#029398" id="AUDd5" d="M63 127h1c0-1.791 3.433-12 5-12v-1l-2-.5v-3c-1.295-2.591-7-4.161-7-7.5-2.443 0-9.496 18-11 18v1l14 5Z"/><path fill="#A8A9AA" id="V3" d="M225 130c0 3.366 7 3.14 7 0-2.064 0-.426-3.353-1-4.5-4.988-9.976 6-15.142 6-19.5v-2c-2.712 0-5.383 10.059-9.5 8-2.169-1.085-6.695-9-8.5-9v2c0 2.835 3.038 2.575 4 4.5l4 10-2 10.5Z"/><path fill="#029398" id="AUDd5" d="M407 123c-5.313 0-9.231 4-14 4l-5-12v-1c0-4.602 8-5.866 8-11h1c0 4.174 10 14.007 10 19v1Z"/><path fill="#FF8D9F" id="MH" d="M223 130h2l2-10.5-4-10c-.962-1.925-4-1.665-4-4.5-2.109 0-2-1.162-2 2 0 2.172-2.054 10-5 10 0 4.152 8 8.184 8 11l3 2ZM232 130h1l3-2c1.726 0 8-8.594 8-10l-5-10c0-3.97 1.349-2-2-2 0 4.358-10.988 9.524-6 19.5.574 1.147-1.064 4.5 1 4.5ZM209 114c0 1.577 1.762 2 3 2 0-3.461 3-5.102 3-9h-2l-1 2-1 1-1 1-1 1v2Z"/><path fill="#C8CCC7" id="hbc" d="M212 116v1c2.946 0 5-7.828 5-10h-2c0 3.898-3 5.539-3 9ZM245 116l-1 2-5-10 2-1c0 3.681 4 5.758 4 9Z"/><path fill="#FF8D9F" id="MH" d="m248 114-3 2c0-3.242-4-5.319-4-9l4 2v1l1 1 1 1 1 2Z"/><path fill="#C9C9CA" id="scwm" d="m87 109-1 1 1-1Z"/><path fill="#7DCD4B" id="HPF" d="M158 110h1v-1l-1 1ZM298 110h1l-1-1v1Z"/><path fill="#C9C9CA" id="scwm" d="m370 109 1 2-1-2ZM86 110l-1 2 1-2Z"/><path fill="#C7C8CC" id="alv" d="M153 111h2v-1c-1.321 0-6-.684-6 1h4ZM303 111h4c0-1.684-4.679-1-6-1v1h2ZM139 113h2c0-1.714 5.594-1 7-1v-1c-2.161 0-11-.497-11 2h2Z"/><path fill="#FE909D" id="LP" d="M147 137h1l1-1c3.064 0 11.536-3.518 14.5-5 4.377-2.188 10.041 2 13.5 2 4.144 0 6.619 7 12 7 0-7.359 10-13.949 10-22l-6-3h-3l-1-1h-3l-2-1h-5l-1-1-18-1h-7c0 1.473-1.952 1-3 1 0 2.231 2.386 6.728 1 9.5l-3 3.5c0 1.013-1.208 9-2 9v1l1 2ZM310 135l-2 1-15.5-5c-4.29-2.145-9.953 2-13.5 2-3.463 0-6.82 7-11 7 0-4.974-11-15.161-11-22l4-2 2-1h4l1-1h2c1.048 0 3 .473 3-1h4l2-1 18-1h6c0 1.473 1.952 1 3 1v10.5l3 3.5c0 1.321-.684 6 1 6v3Z"/><path fill="#FE7F84" id="LGd-co" d="m124 129 8 6c4.182 0 8.277-7 13-7l3-3 3-3.5c1.386-2.772-1-7.269-1-9.5h-2c-1.406 0-7-.714-7 1h3.5c10.391 0-7.5 10.496-7.5 4-1.848 0-12 10.467-12 8-1.579 0-1 2.855-1 4ZM332 129l-7 6c-3.676 0-8.431-7-13-7l-3-2-3-3.5V112h2c3.222 0 6.277 1 9 1v1l-3.5-1c-12.443 0 5.5 10.982 5.5 3 3.216 0 12 12.716 12 8 1.643 0 1 3.765 1 5Z"/><path fill="#C9C9CA" id="scwm" d="M379 133c2.618 0 1.651 3 4 3l-2-4-2-6c0-1.912-5.868-14-8-14 0 5.055 4 9.225 4 15l4 6ZM77 133l-2 1v-2c0-1.974 2-3.517 2-6 1.638 0 2-3.576 2-5l6-8c0 5.113-4 9.289-4 15l-4 5Z"/><path fill="#FE8083" id="LGd-sh" d="M127 119c0 2.447-2 3.28-2 6 0 2.467 10.152-8 12-8l1-1 1-1v-2h-2l-8 5-2 1Z"/><path fill="#FE7F84" id="LGd-co" d="m141 113-2 2v-2h2Z"/><path fill="#FD8082" id="LGd-ip" d="m138 116-1 1c0 6.496 17.891-4 7.5-4H141l-2 2-1 1ZM317 114l-3.5-1c-12.443 0 5.5 10.982 5.5 3l-2-2Z"/><path fill="#FE8083" id="LGd-sh" d="M328 118c0 2.079 3 3.187 3 6 0 4.716-8.784-8-12-8l-2-2v-1l10 4 1 1Z"/><path fill="#FF8F9D" id="LH" d="m201 136 4 5 15-8v-5c0-2.816-8-6.848-8-11v-1c-1.238 0-3-.423-3-2l-3 1h-1l-3 3-3 5.5c-2.01 4.021 2 9.168 2 12.5ZM255 136l-4 4c-1.95 0-14-5.195-14-7l-1-5c1.726 0 8-8.594 8-10l1-2 3-2 7 4 3 7.5c1.637 3.274-3 7.752-3 10.5Z"/><path fill="#CBC8CB" id="fi" d="M347 149h1l1-1v-1c0-1.357.647-6 2-6l2-16v-11c-1.154 0-2.386 5.943-4.5 7-4.013 2.007-7.27 0-11.5 0l-1 8v7c1.643 0 1 3.765 1 5v1l1 1c0 2.653 2.287 5 5 5l1 1h3Z"/><path fill="#019099" id="AUDv1" d="m29 149-6 1 4-27.5 3-7.5 5 1v1c0 1.876-3.06 7.62-4 9.5-2.895 5.791-2 15.588-2 22.5Z"/><path fill="#019399" id="AUDd6a" d="M64 127c0 1.693 8.24 4 10 4l2-5v-1c0-2.838-6.468-10-7-10-1.567 0-5 10.209-5 12Z"/><path fill="#CBC8CB" id="fi" d="M111 149h2l1-1c1.621 0 4-2.379 4-4l1-1v-1c0-1.048-.473-3 1-3v-8c0-3.325-1-7.31-1-10-4.23 0-7.487 2.007-11.5 0l-3.5-6v9c0 6.508 2 12.053 2 18 1.579 0 1 2.855 1 4v1l4 2Z"/><path fill="#FE7F84" id="LGd-co" d="m139 115-1 1 1-1Z"/><path fill="#019399" id="AUDd6a" fill-rule="evenodd" d="M384 119c0 1.93 1.93 0 0 0m9 8c-2.949 0-6.667 4-10 4l-3-5v-1c2.64 0 3.173-10 8-10l5 12Z"/><path fill="#019099" id="AUDv1" d="M427 150h6c0-7.88-.654-18.808-4-25.5-.787-1.574-.838-9.5-3-9.5l-4 2 4 12.5c2.506 5.012 1 14.582 1 20.5Z"/><path fill="#FE7F84" id="LGd-co" d="m138 116-1 1 1-1Z"/><path fill="#029198" id="AUDv2/3" d="M29 150h8c0-6.421 1.236-16.971 4-22.5l4-7.5c-3.989 0-6.011-3-10-3 0 1.876-3.06 7.62-4 9.5-2.895 5.791-2 15.588-2 22.5v1ZM419 150h8c0-5.918 1.506-15.488-1-20.5l-4-12.5h-1c-3.455 0-5.917 3-9 3l5 12.5c2.188 4.375 2 12.312 2 17.5Z"/><path fill="#98D5F9" id="CP" d="m103 187 1 6.5c-3.165 6.33-13.031 3.5-18 3.5-1.886 0-13-15.056-13-18l-1-2 1-22c1.993 0 1.35-5.2 2-6.5l8-17.5c3.923 0 5.759-13 11-13 9.405 0 2 8.508 2 12 0 3.1-3.558 9.615-5 12.5-3.506 7.011 4 15.357 4 21.5l1 1v1c0 .969 1.147 7 2 7 0 2.196 2.765 12 5 12v2Z"/><path fill="#CAC7CB" id="fiber tracts" d="m129 118-2 1 2-1Z"/><path fill="#FD8F9D" id="CL" d="M189 163c3.071 0 4.331 3 8 3 0-4.453-3.309-30 4-30 0-3.332-4.01-8.479-2-12.5l3-5.5h-3c0 8.051-10 14.641-10 22 0 4.594-1 10.741-1 16l1 7ZM267 163c-2.404 0-4.649 3-8 3 0-4.323 5.53-30-4-30 0-2.748 4.637-7.226 3-10.5l-3-7.5h2c0 6.839 11 17.026 11 22v17l-1 6Z"/><path fill="#CAC7CB" id="fiber tracts" d="M349 154c-1.058 0-13.375-8.25-10-1.5l2 4.5-6-7-1-3v-4c0-5.23-2-9.854-2-14 0-1.235.643-5-1-5 0-2.813-3-3.921-3-6l2 1 5 6.5c.523 1.046-.951 3.5 1 3.5v7c0 1.235-.643 5 1 5v1l1 1c0 2.653 2.287 5 5 5l1 1h1c0 1.399 2 1.399 2 0h1l1-1v-1c2.461 0 2-3.378 2-5 1.577 0 2-1.762 2-3l4-2c0 6.218-8 11.132-8 17Z"/><path fill="#98D5F9" id="CP" d="M353 188c0 12.888 7.147 9 17 9 3.144 0 13-15.344 13-18l1-1c0-7.694-1-15.926-1-23 0-5.245-10-21.457-10-23 0-2.626-7.652-14-11-14-7.717 0-2 9.113-2 12 2.535 0 2.229 5.958 3 7.5 5.4 10.801-1 15.663-1 24.5l-1 1v2l-1 2-1 6c0 1.637-3.792 11-5 11 0 1.048.473 3-1 3v1Z"/><path fill="#CAC7CB" id="fiber tracts" d="M108 154c0-2.64 9-7.304 9 0l4-3v-1l1-1v-1l1-2v-2c0-1.804-2.182-5.136-1-7.5.946-1.892 2-5.372 2-7.5 0-1.145-.579-4 1-4 0-2.72 2-3.553 2-6h-1l-6 12v8c0 1.048.473 3-1 3v1l-1 1c0 1.621-2.379 4-4 4l-1 1h-2c0 2.654-4-.733-4-2v-1c-2.109 0-2-2.535-2-4l-1-2c-3.207 0-3.855-6-6-6 0 5.448 4.7 9.899 7 14.5l3 5.5Z"/><path fill="#197D63" id="SSs6a" d="M384 119c0 1.93 1.93 0 0 0Z"/><path fill="#029197" id="AUDv4" d="M37 150h6c0-10.737 6-20.535 6-28v-1l-4-1-4 7.5c-2.764 5.529-4 16.079-4 22.5ZM414 150h5c0-5.188.188-13.125-2-17.5l-5-12.5h-1l-4 2v1c1.59 0 1.443 4.386 2 5.5 3.281 6.563 4 13.53 4 21.5h1Z"/><path fill="#1A8061" id="SSs6b" d="M76 126h1c1.638 0 2-3.576 2-5l-3 4v1Z"/><path fill="#019098" id="AUDv5" d="m43 150 14 1 6-24-14-5c0 7.465-6 17.263-6 28ZM413 150l-14 1c0-8.384-6-16.216-6-24 4.769 0 8.687-4 14-4 1.59 0 1.443 4.386 2 5.5 3.281 6.563 4 13.53 4 21.5Z"/><path fill="#A9AAA8" id="chpl" d="M105 142h1c0-5.947-2-11.492-2-18-6.84 0 0 13.747 0 16l1 2Z"/><path fill="#FF6F80" id="TH" d="M145 128c0 1.564 1 3.876 1 6 .792 0 2-7.987 2-9l-3 3Z"/><path fill="#A9AAA8" id="chpl" d="M351 141v1c1.577 0 2-1.762 2-3 0-2.39 5.101-14 0-14l-2 16Z"/><path fill="#019398" id="AUDd6b" d="M74 132h1c0-1.974 2-3.517 2-6h-1l-2 5v1Z"/><path fill="#FF6F80" id="TH" d="m312 128-2 4c-1.684 0-1-4.679-1-6l3 2Z"/><path fill="#019398" id="AUDd6b" d="M381 132h2v-1l-3-5h-1l2 6Z"/><path fill="#019397" id="AUDv6a" d="m57 151 11 1c0-6.177 2.434-11.369 5-16.5.523-1.046-.951-3.5 1-3.5v-1c-1.76 0-10-2.307-10-4h-1l-6 24Z"/><path fill="#C7CACC" id="ccs" d="M383 155h1c0-8.163-5-13.801-5-22l-4-6c0 1.622.461 5-2 5 0 1.543 10 17.755 10 23Z"/><path fill="#019397" id="AUDv6a" d="m399 151-10 1c0-6.906-6-13.321-6-20v-1c3.333 0 7.051-4 10-4 0 7.784 6 15.616 6 24Z"/><path fill="#C7CACC" id="ccs" d="M72 155h1c1.993 0 1.35-5.2 2-6.5l8-17.5c-1.577 0-2-1.762-2-3l-4 5c0 6.964-5 14.282-5 22Z"/><path fill="#CBC9C7" id="or" d="m133 150-2 1c0-4.538 5.89-11-3-11l4-5c4.182 0 8.277-7 13-7 0 1.564 1 3.876 1 6v3l-1 1-9 8-1 1-1 1-1 2Z"/><path fill="#FF6F80" id="TH" d="M220 133v1l3-4-3-2v5ZM236 133h1l-1-5-3 2c1.539 0 3 1.342 3 3Z"/><path fill="#CBC9C7" id="or" d="m321 147 4 4c0-4.116-5.3-11 3-11 0-1.947-3-2.636-3-5-3.676 0-8.431-7-13-7l-2 4v3l1 2 10 10Z"/><path fill="#FF8E9F" id="LGv" d="M123 144h1l4-4 4-5-8-6c0 2.128-1.054 5.608-2 7.5-1.182 2.364 1 5.696 1 7.5ZM334 143l-1 1-5-4c0-1.947-3-2.636-3-5l7-6c0 4.146 2 8.77 2 14Z"/><path fill="#CBC9C7" id="or" d="m96 166 2 2c0-3.375 8.554-2.027 10.5-3 3.637-1.819 7.393-8 10.5-8v-1l1-1 1-4-4 3-1 2-1 1c0 4.79-7-.168-7-3l-3-5.5c-2.3-4.601-7-9.052-7-14.5l-2-4c0 3.1-3.558 9.615-5 12.5-3.506 7.011 4 15.357 4 21.5l1 1v1Z"/><path fill="#FE8F9E" id="PVT" d="M221 152h14c1.301 0 10-4.946 10-6-3.947 0-9-9.18-9-13 0-1.658-1.461-3-3-3h-1c0 3.14-7 3.366-7 0h-2l-3 4c0 3.826-4.325 12-9 12 0 .907 8.864 6 10 6Z"/><path fill="#CBC9C7" id="or" d="m360 167-1 1c-.699 0-13.258-4.379-14.5-5l-7.5-7c0-1.974-2-3.517-2-6l6 7c0 4.907 8 .096 8-3 0-5.868 8-10.782 8-17l1-2 1-2 1-3c2.535 0 2.229 5.958 3 7.5 5.4 10.801-1 15.663-1 24.5l-1 1v2l-1 2Z"/><path fill="#FF8E9C" id="PO" d="M187 186h2c0-3.264 10.309-1 12-1l-5-4.5c-2.293-4.587-7-12.243-7-17.5l-1-7-2.5-5-5.5-13.5-3-4.5c-3.459 0-9.123-4.188-13.5-2-2.964 1.482-11.436 5-14.5 5v1l4.5 6c4.412 2.206 21.093 28.687 23.5 33.5 1.548 3.096 10 4.464 10 9.5ZM267 186h2l12-11.5c4.773-9.547 11.739-21.739 19.5-29.5l7.5-8v-1l-15.5-5c-4.29-2.145-9.953 2-13.5 2l-11 24-1 6c0 5.198-3.764 12.027-6 16.5l-5 5.5c1.612 0 11-2.068 11 1Z"/><path fill="#019198" id="AUDv6b" d="M68 152h1c0-5.693 5-11.014 5-16l1-2v-2h-1c-1.951 0-.477 2.454-1 3.5-2.566 5.131-5 10.323-5 16.5ZM387 152h2c0-6.906-6-13.321-6-20h-2l2 4c0 5.497 4 9.901 4 16Z"/><path fill="#CCC8CA" id="ar" d="M69 176v1c1.428 0 2-3.205 2-4.5 0-5.835 1-12.297 1-17.5 0-7.718 5-15.036 5-22l-2 1-1 2c0 4.986-5 10.307-5 16v24Z"/><path fill="#FD8F9C" id="Eth" d="M189 140c0 4.594-1 10.741-1 16l-2.5-5-5.5-13.5-3-4.5c4.144 0 6.619 7 12 7Z"/><path fill="#C7CAC9" id="fr" d="M205 141c0 3.742 2.488 5 6 5 4.675 0 9-8.174 9-12v-1l-15 8ZM251 140c0 4.379.002 6-6 6-3.947 0-9-9.18-9-13h1c0 1.805 12.05 7 14 7Z"/><path fill="#FD8F9C" id="Eth" d="M268 140v17l11-24c-3.463 0-6.82 7-11 7Z"/><path fill="#CAC7CB" id="fiber tracts" d="m359 133-1 2 1-2Z"/><path fill="#CCC8CA" id="ar" d="M387 176h1c0-7.946-1-16.711-1-24 0-6.099-4-10.503-4-16-2.349 0-1.382-3-4-3 0 8.199 5 13.837 5 22 1.643 0 1 3.765 1 5 0 1.78 1.013 16 2 16Z"/><path fill="#C9C9CA" id="scwm" d="m75 134-1 2 1-2Z"/><path fill="#FF6F80" id="TH" d="M146 137h1l-1-2v2ZM308 137h3l-1-2-2 1v1Z"/><path fill="#CAC7CB" id="fiber tracts" d="m358 135-1 2 1-2Z"/><path fill="#FF6F80" id="TH" d="M148 137h1v-1l-1 1Z"/><path fill="#FD909D" id="MD" d="m219 180-5 3c-8.479 0-17-8.399-17-17 0-4.453-3.309-30 4-30l4 5c0 3.742 2.488 5 6 5 0 .907 8.864 6 10 6 0 4.23 4.632 12.235 2 17.5-1.447 2.893-4 7.148-4 10.5ZM238 181l4 2c8.944 0 17-8.366 17-17 0-4.323 5.53-30-4-30l-4 4c0 4.379.002 6-6 6 0 1.054-8.699 6-10 6 0 4.362-4.541 11.417-2 16.5 1.451 2.903 5 9.387 5 12.5Z"/><path fill="#FF6F80" id="TH" d="m146 137-1 1 1-1Z"/><path fill="#FF7E83" id="VPM" d="m181 194-2 1h-11.5l-4.5-2-7-6.5c-3.836-7.673-12.408-19.454-20.5-23.5l-4.5-6 2-7 1-2 1-1 1-1 9-8 1-1h3l4.5 6c4.412 2.206 21.093 28.687 23.5 33.5 1.548 3.096 10 4.464 10 9.5v2l-5 5-1 1ZM274 193c3.658 0 9.898 4.301 14.5 2 2.084-1.042 2.908-2 5.5-2 0-3.121 6.369-5.239 8-8.5 4.125-8.25 13.777-14.553 17-21 .921-1.843 6-3.457 6-6.5v-1c0-3.65-4-6.136-4-9l-10-10h-3l-7.5 8c-7.761 7.761-14.727 19.953-19.5 29.5L269 186v2l5 5Z"/><path fill="#FD8F9F" id="RT" d="m136 186-1 1c-1.966 0-12-7.969-12-9l-8-4.5c-2.867-5.733 4-11.644 4-16.5v-1l1-1 1-4v-1l1-1v-1l1-2v-1l1-1 4-4c8.89 0 3 6.462 3 11 0 4.383-4 7.783-4 13 0 1.145-.579 4 1 4 0 5.626 8 11.463 8 14v4ZM320 186l1 1c3.95 0 5.894-6 10-6l2-2 1-1c0-2.847 6.734-2.968 8-5.5 2.325-4.65-5-12.062-5-16.5 0-1.974-2-3.517-2-6l-1-3c-1.473 0-1-1.952-1-3l-5-4c-8.3 0-3 6.884-3 11v1l2 2 2 4.5c2.451 4.903-1.764 20.5-7 20.5l-1 2-1 4v1Z"/><path fill="#FF6F80" id="TH" d="M333 144c0 1.048-.473 3 1 3v-4l-1 1ZM124 144l-1 1v-1h1ZM123 146l-1 2 1-2Z"/><path fill="#C7CACA" id="em" d="m136 146-1 1 1-1ZM135 147l-1 1 1-1ZM326 157c0 3.144 2.799 9.901 1 13.5l-5 8.5c5.236 0 9.451-15.597 7-20.5l-2-4.5-2-2v-1l-4-4c0 2.864 4 5.35 4 9l1 1Z"/><path fill="#15B0B3" id="TEa1" d="M31 177c-1.564 0-3.876 1-6 1 0-9.67-2-17.929-2-28l6-1v1c0 9.385 2 18.377 2 27Z"/><path fill="#CBC9C7" id="or" d="m122 149-1 1 1-1Z"/><path fill="#15B0B3" id="TEa1" d="m426 177 5 1c0-9.388 2-18.031 2-28h-6l-1 27Z"/><path fill="#16AFB3" id="TEa2/3" d="M31 177h10l-4-14.5V150h-8c0 9.385 2 18.377 2 27Z"/><path fill="#15B0B2" id="TEa4" d="M41 177h2v-27h-6v12.5l4 14.5Z"/><path fill="#15AFB3" id="TEa5" d="M43 177h13c0-8.898 1-17.601 1-26l-14-1v27Z"/><path fill="#C8CBC7" id="st" d="m116 156-1 1c0 4.79-7-.168-7-3 0-2.64 9-7.304 9 0l-1 2Z"/><path fill="#C7CACA" id="em" d="M136 182h1l-4-4.5-4-8c-1.029-2.058.118-12.5 2-12.5l2-7-2 1c0 4.383-4 7.783-4 13 1.579 0 1 2.855 1 4 0 5.626 8 11.463 8 14Z"/><path fill="#C8CBC7" id="st" d="M349 154c-1.058 0-13.375-8.25-10-1.5l2 4.5c0 4.907 8 .096 8-3Z"/><path fill="#15AFB3" id="TEa5" d="M400 177h14v-27h-1l-14 1c0 2.937.706 7.913 2 10.5 2.026 4.052-1 11.799-1 15.5Z"/><path fill="#15B0B2" id="TEa4" d="M414 177h2c0-3.625 1.418-9.336 3-12.5V150h-5v27Z"/><path fill="#16AFB3" id="TEa2/3" d="M416 177h10l1-27h-8v14.5c-1.582 3.164-3 8.875-3 12.5Z"/><path fill="#15AFB2" id="TEa6a" d="m67 176-11 1c0-8.898 1-17.601 1-26l11 1c0 7.217-1 16.105-1 24ZM389 176l11 1c0-3.701 3.026-11.448 1-15.5-1.294-2.587-2-7.563-2-10.5l-10 1v24Z"/><path fill="#16B0B2" id="TEa6b" d="M67 176h2v-24h-1c0 7.217-1 16.105-1 24Z"/><path fill="#FE909F" id="IMD" d="M219 180c3.2 0 8.003-3.749 11.5-2l7.5 3c0-3.113-3.549-9.597-5-12.5-2.541-5.083 2-12.138 2-16.5h-14c0 4.23 4.632 12.235 2 17.5-1.447 2.893-4 7.148-4 10.5Z"/><path fill="#CBC9C7" id="or" d="m325 152 2 2-2-2Z"/><path fill="#16B0B2" id="TEa6b" d="M388 176h1v-24h-2c0 7.289 1 16.054 1 24Z"/><path fill="#CAC7CB" id="fiber tracts" d="m117 154-1 2 1-2Z"/><path fill="#C8CBCC" id="ec" d="m72 182-3 1v-6c1.428 0 2-3.205 2-4.5 0-5.835 1-12.297 1-17.5h1l-1 22v5Z"/><path fill="#CCC8CA" id="ar" d="m120 155-1 1 1-1Z"/><path fill="#C8CBCC" id="ec" d="M385 182h2v-6c-.987 0-2-14.22-2-16 0-1.235.643-5-1-5h-1c0 7.074 1 15.306 1 23v1l1 3Z"/><path fill="#CAC7CB" id="fiber tracts" d="m116 156-1 1 1-1Z"/><path fill="#FF6F80" id="TH" d="M325 157h1l-1-1v1Z"/><path fill="#CCC8CA" id="ar" d="M346 180h8l3-6 1-1 1-5c-.699 0-13.258-4.379-14.5-5l-7.5-7c0 4.438 7.325 11.85 5 16.5-1.266 2.532-8 2.653-8 5.5l4-1 8 3ZM102 179l2.5 2c2.161 1.081 4.894-1 6.5-1 0-1.069 6.717-3 8-3l4 1-8-4.5c-2.867-5.733 4-11.644 4-16.5-3.107 0-6.863 6.181-10.5 8-1.946.973-10.5-.375-10.5 3l1 5 3 6Z"/><path fill="#FD8084" id="VPL" d="M163 193c0 2.962-4.707 1-6 1-5.329 0-13.492-9-17-9l-3-3-4-4.5-4-8c-1.029-2.058.118-12.5 2-12.5l4.5 6c8.092 4.046 16.664 15.827 20.5 23.5l7 6.5ZM299 194l-2 1c-1.238 0-3-.423-3-2 0-3.121 6.369-5.239 8-8.5 4.125-8.25 13.777-14.553 17-21 .921-1.843 6-3.457 6-6.5h1c0 3.144 2.799 9.901 1 13.5l-5 8.5-2 2-1 1c0 1.481-2 .785-2 3-4.775 0-11.797 9-18 9Z"/><path fill="#CCC" d="m362 162-1 1 1-1Z"/><path fill="#FE8D9F" id="PCN" d="M201 185c3.864 0 8.209 2 13 2v-4c-8.479 0-17-8.399-17-17-3.669 0-4.929-3-8-3 0 5.257 4.707 12.913 7 17.5l5 4.5ZM256 185c-4.313 0-8 2-13 2l-1-4c8.944 0 17-8.366 17-17 3.351 0 5.596-3 8-3 0 5.198-3.764 12.027-6 16.5l-5 5.5Z"/><path fill="#CCC" d="m95 164 1 1-1-1Z"/><path fill="#CCC8CA" id="ar" d="M127 164c1.579 0 1 2.855 1 4-1.579 0-1-2.855-1-4Z"/><path fill="#CCC" d="m361 165-1 2 1-2ZM98 173h1l-1-5-2-2c0 .969 1.147 7 2 7ZM358 173h1l1-6-1 1-1 5Z"/><path fill="#97D6F9" id="STR" d="m102 179 1 6c-2.235 0-5-9.804-5-12h1l3 6Z"/><path fill="#CCC" d="m358 173-1 1 1-1Z"/><path fill="#97D6F9" id="STR" d="M354 180v4c1.208 0 5-9.363 5-11h-1l-1 1-3 6Z"/><path fill="#0E9F91" id="ECT6a" d="m61 195 4 1c0-.966 2.886-3 4-3v-4c-.715 0-2-11.801-2-13l-11 1c0 6.192 5 12.237 5 18Z"/><path fill="#0E9F90" id="ECT6b" d="M69 183v6c-.715 0-2-11.801-2-13h2v7ZM387 193h1c0-5.789 1-11.78 1-17h-2v17Z"/><path fill="#0E9F91" id="ECT6a" d="M395 195c-1.048 0-3-.473-3 1l-4-3c0-5.789 1-11.78 1-17l11 1c0 6.666-5 12.379-5 18Z"/><path fill="#0D9F90" id="ECT1" d="M35 194c-3.047 0-4.462 1-7 1 0-1.924.964-9.573 0-11.5l-3-5.5c2.124 0 4.436-1 6-1 0 5.635 4 10.893 4 17Z"/><path fill="#0D9F91" id="ECT2/3" d="M35 194h11c0-5.729-3-10.786-3-17H31c0 5.635 4 10.893 4 17Z"/><path fill="#0D9E90" id="ECT5" d="M47 194c3.948 0 9.393 1 14 1 0-5.763-5-11.808-5-18H43c0 6.214 3 11.271 3 17h1Z"/><path fill="#97D6F9" id="STR" d="M72 179h1l-1-2v2Z"/><path fill="#CCC" d="M119 177c-1.283 0-8 1.931-8 3 0 1.779 4.928.357 6 2.5 1.163 2.327.804 5.608 2 8 3.377 6.754 9.494 10.987 13 18l19 22c2.248 4.495 18 16.721 18 5 0-5.242-11.069-14.284-15.5-16.5-9.265-4.632-11.004-21.004-18.5-28.5l-12-11c-1.053-1.053-4-.047-4-2.5Z"/><path fill="#CAC7CB" id="fiber tracts" fill-rule="evenodd" d="M117 196c0 3.746 2.091 0 0 0m42 52h6c0-3.504 3.111-8 7-8v-10h-1c-3.97 0-4.767-5.634-7.5-7-6.738-3.369-17.5-13.532-17.5-22-1.662 0-3-4.357-3-6v-1l-1-1c-1.108 0-5-4.748-5-6h-2c-1.966 0-12-7.969-12-9l-4-1c0 2.453 2.947 1.447 4 2.5l12 11c7.496 7.496 9.235 23.868 18.5 28.5 4.431 2.216 15.5 11.258 15.5 16.5 0 11.721-15.752-.505-18-5l-19-22c-3.506-7.013-9.623-11.246-13-18-1.196-2.392-.837-5.673-2-8-1.072-2.143-6-.721-6-2.5-1.606 0-4.339 2.081-6.5 1l-2.5-2 1 6v2l2 2c0-2.376 4.326-6.849 6-3.5 3.116 6.231 8 15.234 8 22.5l4 2c0-1.623-7.12-10.19-3.5-12l9.5 8.5c4.197 8.394 13.121 17.121 19.5 23.5 1.571 1.571 7.67 7.16 6.5 9.5l-2-.5 6 9Z"/><path fill="#CAC7CB" id="fiber tracts" d="m334 178-1 1c1.622 0 5 .461 5-2l-4 1Z"/><path fill="#CCC" d="M346 180c0 .835-5.961 1.422-7 3.5-1.671 3.342-2.285 7.57-4 11-2.875 5.749-21.975 27.975-28 34-5.125 5.125-14.009 17.983-19 8-1.915-3.83 8.226-13.863 11.5-15.5 12.083-6.042 12.011-20.011 20.5-28.5l11-11.5c1.747 0 2-.253 2-2 1.622 0 5 .461 5-2l8 3Z"/><path fill="#0D9E90" id="ECT5" d="M395 195h14l1-1c0-5.227 4-11.461 4-17h-14c0 6.666-5 12.379-5 18Z"/><path fill="#0D9F91" id="ECT2/3" d="M421 194h1c0-6.708 4-12.264 4-17h-12c0 5.539-4 11.773-4 17h11Z"/><path fill="#0D9F90" id="ECT1" d="M422 194c2.124 0 4.436 1 6 1 2.798 0 0-7.178 0-8 0-3.812 3-5.283 3-9l-5-1c0 4.736-4 10.292-4 17Z"/><path fill="#FD8E9E" id="CM" d="M221 189h14c3.015 0 6.004-2 8-2l-1-4-4-2-7.5-3c-3.497-1.749-8.3 2-11.5 2l-5 3v4c0 2.273 5.226 2 7 2Z"/><path fill="#97D6F9" id="STR" d="M383 179h1v-1l-1 1Z"/><path fill="#90EB8D" id="LA" d="M79 237c0 1.698 1.768 8 4 8 0-5.043 2.474-24 9-24 0-4.876 5.553-4 9-4 0-1.624-2-2.75-2-5l-2.5-3c-1.441-.721-10.5-9.783-10.5-12-1.886 0-13-15.056-13-18h-1v3c0 2.824-2.616 8.268-1 11.5 5.621 11.243 8 29.902 8 43.5Z"/><path fill="#C7CACA" id="em" d="M320 181h1l1-2-2 2Z"/><path fill="#CAC7CB" id="fiber tracts" d="m333 179-2 2c1.747 0 2-.253 2-2Z"/><path fill="#90EB8D" id="LA" d="M377 237c0 2.248-1.089 9-4 9 0-5.297-1.826-25-8-25 0-4.202-6.279-4-9-4l1-4 13-16c3.144 0 13-15.344 13-18h1l1 3c0 19.806-8 35.434-8 55Z"/><path fill="#CAC7CB" id="fiber tracts" d="m292 247 5 1 6-8c-2.186 0-.387-3.726 0-4.5l9.5-10.5c3.816-3.816 20.409-27 24-27 1.622 0 .5 5.312.5 7 1.845 0 1.441-3.381 2-4.5l5-13c2.703-5.407 7-1.821 7 2.5l2-2v-1c0-1.048-.473-3 1-3v-4h-8c0 .835-5.961 1.422-7 3.5-1.671 3.342-2.285 7.57-4 11-2.875 5.749-21.975 27.975-28 34-5.125 5.125-14.009 17.983-19 8-1.915-3.83 8.226-13.863 11.5-15.5 12.083-6.042 12.011-20.011 20.5-28.5l11-11.5c-4.106 0-6.05 6-10 6h-1l-1 1-5 6-1 1c0 1.622.461 5-2 5 0 9.181-11.537 17.037-17 22.5-2.244 2.244-5.812 7.5-9 7.5l-1 1v9c2.51 0 8 4.226 8 7Z"/><path fill="#C7CACA" id="em" d="m320 181-1 1 1-1Z"/><path fill="#FF6F80" id="TH" d="M317 185h3l1-4h-1l-1 1c0 1.481-2 .785-2 3Z"/><path fill="#C8C9CB" id="amc" d="m78 235 1 2c0-13.598-2.379-32.257-8-43.5-1.616-3.232 1-8.676 1-11.5l-3 1v12l2 4c0 3.771 2.388 8.277 4 11.5 2.504 5.008 2 14.604 2 20.5l1 4Z"/><path fill="#FF6F80" id="TH" d="M136 185h4l-3-3h-1v3Z"/><path fill="#C8C9CB" id="amc" d="m379 234-2 3c0-19.566 8-35.194 8-55h2v15l-1 2-1 1c0 3.859-2.329 9.159-4 12.5l-2 18.5v3Z"/><path fill="#F0483B" id="ZI" d="M194 213c0 10.074-17.244 3-22 3-4.545 0-7.796-7-13-7v-1l-3.5-3c-2.822-2.822-8.61-10-12.5-10v-1l-1-1c-1.108 0-5-4.748-5-6l-1-1v-1h4c3.508 0 11.671 9 17 9l16 9 21 10Z"/><path fill="#FE8082" id="VPMpc" d="M189 192c4.461 0 10.891-1.305 15.5 1l7.5 4 3.5 2c6.624 3.312 5.5-7.947 5.5-10-1.774 0-7 .273-7-2-4.791 0-9.136-2-13-2-1.691 0-12-2.264-12 1v6ZM267 192c-4.461 0-10.891-1.305-15.5 1l-6.5 4c-8.996 0-10 6.543-10-8 3.015 0 6.004-2 8-2 5 0 8.687-2 13-2 1.612 0 11-2.068 11 1l1 2-1 4Z"/><path fill="#F0483B" id="ZI" d="M262 213c0 9.904 18.12 3 23 3 0-1.992 9.836-7 12-7l1-1 1-1 1-1 1-1 1-1 2-1 1-1 1-1c0-2.024 5.829-6 7-6l1-1 5-6 1-1v-2h-3c-4.775 0-11.797 9-18 9l-2 1c0 1.884-10.799 7-13 7l-1 1-21 10Z"/><path fill="#97D6F9" id="STR" d="M354 184c-1.473 0-1 1.952-1 3 1.473 0 1-1.952 1-3Z"/><path fill="#C8CBC7" id="st" d="M119 208v3l-6-6c0-6.083-8-9.308-8-16 0-2.376 4.326-6.849 6-3.5 3.116 6.231 8 15.234 8 22.5ZM341 209l-4 2v-6c1.845 0 1.441-3.381 2-4.5l5-13c2.703-5.407 7-1.821 7 2.5 0 6.202-8 9.554-8 15l-1 1v1l-1 2Z"/><path fill="#FF6F80" id="TH" d="M135 187h2l-1-1-1 1ZM189 187l-2 1v-2h2v1ZM268 188h1v-2h-2l1 2ZM320 187h1l-1-1v1Z"/><path fill="#97D6F9" id="STR" d="M106 207c-1.45 0-7 3.126-7 5l-2.5-3c-1.441-.721-10.5-9.783-10.5-12 4.969 0 14.835 2.83 18-3.5l-1-6.5 2 2c0 6.692 8 9.917 8 16-2.833 0-4.84 2-7 2Z"/><path fill="#FF7F82" id="VPLpc" d="M182 193v1l7-2v-5l-2 1-5 5Z"/><path fill="#FF6F80" id="TH" d="m320 187-1 1 1-1ZM209 211h38l-4-5.5c-1.675-3.349 2-6.241 2-8.5-8.996 0-10 6.543-10-8h-14c0 2.053 1.124 13.312-5.5 10l-3.5-2c0 2.421 2.411 6.678 1 9.5l-4 4.5Z"/><path fill="#FF7F82" id="VPLpc" d="M274 193v1l-7-2 1-4h1l5 5Z"/><path fill="#97D6F9" id="STR" d="M350 207c3.262 0 7 2.628 7 6l13-16c-9.853 0-17 3.888-17-9l-2 2c0 6.202-8 9.554-8 15 2.765 0 5.165 2 7 2Z"/><path fill="#FF7E84" id="VM" d="M194 213h7c0-4.843 6.173-2 8-2l4-4.5c1.411-2.822-1-7.079-1-9.5l-7.5-4c-4.609-2.305-11.039-1-15.5-1l-7 2-1 1h-2l-8 5.5 2 2.5 21 10ZM255 213h7l21-10 1-1 1-2.5-11-5.5-7-2c-4.461 0-10.891-1.305-15.5 1l-6.5 4c0 2.259-3.675 5.151-2 8.5l4 5.5h1c2.17 0 7-2.601 7 2Z"/><path fill="#209766" id="AIp6a" d="M62 200h1l3-1c0-2.681 2.078-1 3-1v-5c-1.114 0-4 2.034-4 3l-3 3v1Z"/><path fill="#E64438" id="HY" d="m142 193 1 1-1-1Z"/><path fill="#FF6F80" id="TH" d="m179 195-8 5.5 2 2.5-16-9c1.293 0 6 1.962 6-1l4.5 2H179ZM181 194h1v-1l-1 1ZM297 195c0 1.884-10.799 7-13 7l1-2.5-11-5.5v-1c3.658 0 9.898 4.301 14.5 2 2.084-1.042 2.908-2 5.5-2 0 1.577 1.762 2 3 2Z"/><path fill="#219666" id="AIp6b" d="m388 193-1 2v-2h1Z"/><path fill="#209766" id="AIp6a" d="M393 200h1v-2l-2-2-4-3-1 2v3c1.674 0 2.326 1 4 1l2 1Z"/><path fill="#0E9584" id="PERI1" d="m38 207-4 2c-1.613 0-6-11.96-6-14 2.538 0 3.953-1 7-1l3 13Z"/><path fill="#0E9583" id="PERI2/3" d="M38 207h1l5-1c0-1.175 5.704-2 7-2v-1c-1.817 0-4-7.169-4-9H35l3 13Z"/><path fill="#0F9684" id="PERI5" d="M60 201h1l1-1v-1l-1-4c-4.607 0-10.052-1-14-1 0 1.831 2.183 9 4 9 3.638 0 5.929-2 9-2Z"/><path fill="#FF6F80" id="TH" d="M179 195h2v-1l-2 1Z"/><path fill="#FF7F82" id="VPLpc" d="m182 194-1 1v-1h1Z"/><path fill="#FF6F80" id="TH" d="m299 194-2 1 2-1Z"/><path fill="#E64438" id="HY" d="m314 194-1 1 1-1Z"/><path fill="#0F9684" id="PERI5" d="m410 194-1 1 1-1Z"/><path fill="#0E9583" id="PERI2/3" d="m412 205 6 2c0-4.085 3-8.176 3-13h-11l-1 1c0 1.732-2.005 8-4 8v1l7 1Z"/><path fill="#0E9584" id="PERI1" d="m418 207 5 2c0-4.944 5-8.624 5-14-1.564 0-3.876-1-6-1h-1c0 4.824-3 8.915-3 13Z"/><path fill="#0E9684" id="PERI6a" d="m65 196-3 3-1-4 4 1Z"/><path fill="#219666" id="AIp6b" d="m69 198 2 1-2-4v3Z"/><path fill="#E64438" id="HY" d="M146 201c0-3.149 11.594 7 13 7l-3.5-3c-2.822-2.822-8.61-10-12.5-10 0 1.643 1.338 6 3 6ZM311 200l-5 1c0-2.024 5.829-6 7-6 0 1.622.461 5-2 5Z"/><path fill="#0E9684" id="PERI6a" d="m392 196 2 2c1.473 0 1-1.952 1-3-1.048 0-3-.473-3 1Z"/><path fill="#0F9684" id="PERI5" d="M397 201c2.522 0 4.909 2 8 2 1.995 0 4-6.268 4-8h-14c0 1.048.473 3-1 3v1l1 2h2Z"/><path fill="#8599CC" id="PAL" d="M117 196c0 3.746 2.091 0 0 0Z"/><path fill="#A0EE9C" id="EPd" d="M77 231c-1.087 0-2.433 2-5 2-1.012 0-5-7.673-5-9l3.5 4c.288 0-3.85-10.201-4.5-11.5-2.572-5.144 0-12.51 0-17.5 0-2.681 2.078-1 3-1l2 1c0 3.771 2.388 8.277 4 11.5 2.504 5.008 2 14.604 2 20.5Z"/><path fill="#219666" id="AIp6b" d="m387 198-1 1 1-2v1Z"/><path fill="#A0EE9C" id="EPd" fill-rule="evenodd" d="M385 227c0 1.93 1.93 0 0 0m-6 4c1.624 0 2.75 2 5 2 1.222 0 5-6.549 5-8l-3 1.5 3-6c2.933-5.866 2-14.46 2-21.5-1.674 0-2.326-1-4-1l-1 1-1 1c0 3.859-2.329 9.159-4 12.5l-2 18.5Z"/><path fill="#CACCCB" id="opt" d="M126 215c4.645 0 22.039 24 27 24l2 .5c1.17-2.34-4.929-7.929-6.5-9.5-6.379-6.379-15.303-15.106-19.5-23.5l-9.5-8.5c-3.62 1.81 3.5 10.377 3.5 12l2 3v1l1 1ZM330 215l-5.5 6-21.5 19c-2.186 0-.387-3.726 0-4.5l9.5-10.5c3.816-3.816 20.409-27 24-27 1.622 0 .5 5.312.5 7-1.028 0-4 4.666-4 6l-1 1v1l-1 1-1 1Z"/><path fill="#C9C8CA" id="ee" d="M67 223v1l3.5 4c.288 0-3.85-10.201-4.5-11.5-2.572-5.144 0-12.51 0-17.5l-3 1v13l1 2 1 4 2 4Z"/><path fill="#219666" id="AIp6b" d="m386 199-1 1 1-1Z"/><path fill="#C9C8CA" id="ee" d="M389 224v1l-3 1.5 3-6c2.933-5.866 2-14.46 2-21.5l2 1v12l-1 5-1 2v2c-1.577 0-2 1.762-2 3Z"/><path fill="#219864" id="AIp5" d="m394 200 1 1-1-2v1ZM62 200l-1 1 1-1Z"/><path fill="#32B824" id="ENTl6a" d="M62 210h1v-10h-1l-1 1h-1l2 9Z"/><path fill="#F1473B" id="STN" d="m172 229-1 1c-3.97 0-4.767-5.634-7.5-7-6.738-3.369-17.5-13.532-17.5-22 0-3.149 11.594 7 13 7v1c0 2.719 13 10.597 13 16v4ZM285 229v1c3.188 0 6.756-5.256 9-7.5 5.463-5.463 17-13.319 17-22.5l-5 1-1 1-1 1-2 1-1 1-1 1-1 1-1 1-1 1c0 5.028-12 9.357-12 15v5Z"/><path fill="#32B824" id="ENTl6a" d="M393 210h1l3-9h-2l-1-1h-1v10Z"/><path fill="#31B824" id="ENTl5" d="M62 211c-2.583 0-3.934 2-7 2-1.207 0-4-7.706-4-9v-1c3.638 0 5.929-2 9-2l2 9v1Z"/><path fill="#E64438" id="HY" d="m306 201-1 1 1-1Z"/><path fill="#31B824" id="ENTl5" d="M394 211c2.885 0 4.697 2 8 2 0-3.083 3-5.545 3-9v-1c-3.091 0-5.478-2-8-2l-3 9v1Z"/><path fill="#FF6F80" id="TH" d="m284 202-1 1 1-1Z"/><path fill="#E64438" id="HY" d="m305 202-1 1 1-1Z"/><path fill="#32B725" id="ENTl3" d="M55 213c0 1.434-6.448 2-8 2l-3-9c0-1.175 5.704-2 7-2 0 1.294 2.793 9 4 9Z"/><path fill="#E64438" id="HY" d="m302 204-1 1 1-1Z"/><path fill="#32B725" id="ENTl3" d="M402 213c0 1.663 5.407 2 7 2 0-3.028 3-6.394 3-10l-7-1c0 3.455-3 5.917-3 9Z"/><path fill="#80BEE1" id="CEAl" d="M106 207c0 6.694 1.451 14 9 14l1-7.5c-.823-1.647-3-6.902-3-8.5-2.833 0-4.84 2-7 2Z"/><path fill="#7FC0E0" id="CEAm" d="M125 233c0 3.985-3.223 1-5 1l-7-7-2-1c2.548 0 4-2.687 4-5l1-7.5c-.823-1.647-3-6.902-3-8.5l6 6 2 2c0 6.883 4 12.655 4 20Z"/><path fill="#E64438" id="HY" d="m301 205-1 1 1-1Z"/><path fill="#CAC7CB" id="fiber tracts" d="M333 211h1l3-3v-3c-1.028 0-4 4.666-4 6Z"/><path fill="#97D6F9" id="STR" d="M342 206h1v-1l-1 1Z"/><path fill="#80BEE1" id="CEAl" d="M341 209c0 4.284 1 9.371 1 13 7.94 0 8-10.34 8-15-1.835 0-4.235-2-7-2v1l-1 1-1 2Z"/><path fill="#32B825" id="ENTl2" d="M409 215c0 1.995 4.377 2 6 2l3-10-6-2c0 3.606-3 6.972-3 10ZM47 215c0 1.638-3.576 2-5 2 0-3.372-3-6.053-3-10l5-1 3 9Z"/><path fill="#E64438" id="HY" d="m300 206-1 1 1-1Z"/><path fill="#7FC0E0" id="CEAm" d="m343 206-1 1v-1h1Z"/><path fill="#32B722" id="ENTl1" d="m42 217-3 2-5-10 4-2h1c0 3.947 3 6.628 3 10Z"/><path fill="#80BFE0" id="CEAc" d="m109 225 2 1c2.548 0 4-2.687 4-5-7.549 0-9-7.306-9-14-1.45 0-7 3.126-7 5 0 2.25 2 3.376 2 5l6 6 2 2Z"/><path fill="#E64438" id="HY" d="m299 207-1 1 1-1Z"/><path fill="#7FC0E0" id="CEAm" d="m342 207-1 2 1-2Z"/><path fill="#80BFE0" id="CEAc" d="M345 226h1l1-1 2-2 2-2c0-1.811 3.438-4 5-4l1-4c0-3.372-3.738-6-7-6 0 4.66-.06 15-8 15 0 1.429 1.288 4 3 4Z"/><path fill="#32B722" id="ENTl1" d="m415 217 3 2 5-10-5-2-3 10Z"/><path fill="#97D6F9" id="STR" d="M121 213c0-4.123 2.203 0 4 0l-2-3-4-2v3l2 2Z"/><path fill="#E64438" id="HY" d="m298 208-1 1 1-1Z"/><path fill="#97D6F9" id="STR" d="m337 211-2 2-1-2 3-3v3Z"/><path fill="#CCCACB" id="nst" d="M174 219c0 2.861 3.196 6-2 6 0-5.403-13-13.281-13-16 5.204 0 8.455 7 13 7l2 3ZM281 220c0 4.703.649 4 4 4 0-5.643 12-9.972 12-15-2.164 0-12 5.008-12 7l-4 4Z"/><path fill="#7FC0E0" id="CEAm" d="m331 234 4 1c3.593 0 4.42-8 9-8l1-1c-1.712 0-3-2.571-3-4 0-3.629-1-8.716-1-13l-4 2-2 2c0 7.594-4 13.406-4 21Z"/><path fill="#8AD987" id="CTXsp" d="M62 211h1v-1h-1v1Z"/><path fill="#C7C9CC" id="mtt" d="M210 215c0 3.361-2.614 6-6 6 0-2.404-3-4.649-3-8 0-4.843 6.173-2 8-2l1 4Z"/><path fill="#E64438" id="HY" d="m229 226-2 1c0-3.162.109-2-2-2 0-6.24-4.383-16.059-12.5-12l-2.5 2-1-4h39l-1 4-3.5-2c-7.432-3.716-12.5 5.314-12.5 11-1.747 0-2 .253-2 2Z"/><path fill="#C7C9CC" id="mtt" d="M247 215c0 4.472 1.528 6 6 6 0-2.709 2-4.646 2-8 0-4.601-4.83-2-7-2l-1 4Z"/><path fill="#8AD987" id="CTXsp" d="m394 211-1 1v-2h1v1Z"/><path fill="#6ACAB9" id="PIR" d="M86 275c0 2.428-6.397 16-9 16-4.118 0-10.069-11.637-12-15.5-4.327-8.655-9.716-16.432-14-25l-6-17c-2.11-4.218-6-9.563-6-14.5l3-2c1.424 0 5-.362 5-2 1.552 0 8-.566 8-2 3.066 0 4.417-2 7-2h1v2l1 2 1 4c0 1.465-.109 4 2 4v1c0 1.327 3.988 9 5 9l1 2c0 10.217 12 21.272 12 30l1 1v2l1 1v3l-1 3Z"/><path fill="#80BFE1" id="MEA" d="M130 269c0 2.113 4.546 12 7 12 5.633 0 21.474-14.448 24-19.5 2.021-4.042-2-11.055-2-13.5l-6-9c-4.961 0-22.355-24-27-24l-1-1v-1c-1.797 0-4-4.123-4 0 0 6.883 4 12.655 4 20 2.379 0 2 10.688 2 13v1c0 1.564 1 3.876 1 6l2 16Z"/><path fill="#CAC7CB" id="fiber tracts" d="M332 212h1v-1l-1 1Z"/><path fill="#97D6F9" id="STR" d="m334 211-1 1v-1h1Z"/><path fill="#80BFE1" id="MEA" d="m327 268-7 14c-5.675 0-22.386-16.272-25-21.5-2.096-4.191 2-9.362 2-12.5l6-8 21.5-19 5.5-6 1-1 1-1 1-1 1-1 1 2c0 7.594-4 13.406-4 21 0 3.629-2 7.589-2 12v9c-2.735 0-2 10.639-2 13Z"/><path fill="#6ACAB9" id="PIR" d="m370 275 9 17c2.249 0 10.924-13.348 12-15.5 4.313-8.627 9.72-16.44 14-25l6-17 7-15.5-3-2c-1.623 0-6-.005-6-2-1.593 0-7-.337-7-2-3.303 0-5.115-2-8-2l-1 1-1 5-1 2v2c0 1.238-.423 3-2 3v1c0 1.451-3.778 8-5 8l-1 2c0 9.963-12 23.351-12 30v2l-1 1v7Z"/><path fill="#97D6F9" id="STR" d="m333 212-1 1v-1h1Z"/><path fill="#8AD987" id="CTXsp" d="m63 213 1 2-1-2Z"/><path fill="#E64438" id="HY" d="M179 222c3.172 0 6.873-5.313 11.5-3l6.5 4.5 2 3.5c0-1.668 3.099-6 5-6 0-2.404-3-4.649-3-8h-7c0 10.074-17.244 3-22 3l2 3 5 3Z"/><path fill="#FD4B3C" id="PH" d="M209 245h1l1-1 10-3 3-3c0-4.414 1-9.177 1-13 0-6.24-4.383-16.059-12.5-12l-2.5 2c0 3.361-2.614 6-6 6-1.901 0-5 4.332-5 6v3l-1 1v3l-1 1v5l-1 2v1l2.5 4c3.199 0 6.71-2 10.5-2ZM246 245h1c6.573 0 13 5.079 13-4v-2l-1-1v-5l-1-1v-5l-1.5-3-3.5-3c-4.472 0-6-1.528-6-6l-3.5-2c-7.432-3.716-12.5 5.314-12.5 11 0 4.121 1 9.275 1 14l3 3c3.679 0 6.731 3 10 3l1 1Z"/><path fill="#E64438" id="HY" d="M277 223c0-7.69-19-4.208-19 4l-1.5-3-3.5-3c0-2.709 2-4.646 2-8h7c0 9.904 18.12 3 23 3l-4 4-4 3Z"/><path fill="#97D6F9" id="STR" d="m332 213-1 1 1-1ZM125 214l1 1-1-1ZM331 214l-1 1 1-1Z"/><path fill="#9DE79B" id="BLAa" d="M112 237c-2.952 0-5.452 4-9 4-3.08 0-11-16.531-11-20 0-4.876 5.553-4 9-4 0 2.041 3.974 6 6 6l2 2 3 4v1l1 1v3l-1 3Z"/><path fill="#C8CBCC" id="ec" d="m101 217 6 6c-2.026 0-6-3.959-6-6ZM356 217c-1.562 0-5 2.189-5 4 1.562 0 5-2.189 5-4Z"/><path fill="#9DE79B" id="BLAa" d="m344 237 10 5c0-2.143 11-16.001 11-21 0-4.202-6.279-4-9-4 0 1.811-3.438 4-5 4 0 1.747-.253 2-2 2l-2 2-1 1-1 3-1 1v2l-1 1v2l1 2Z"/><path fill="#A0EE9C" id="EPd" d="m392 217-1 2 1-2ZM65 219l2 4c-2.109 0-2-2.535-2-4Z"/><path fill="#F1483A" id="PSTN" d="M172 230v10c5.285 0 12.214-8.072 9-14.5l-2-3.5-5-3c0 2.861 3.196 6-2 6v5Z"/><path fill="#F2483A" id="LHA" d="M172 259h1l1-1 10-2 3-1c0-3.591 3.117-4 6-4l2-2.5c.619-1.238-1.144-5.5 1-5.5v-1l1-2v-5l1-1v-3l1-1v-3l-2-3.5-6.5-4.5c-4.627-2.313-8.328 3-11.5 3l2 3.5c3.214 6.428-3.715 14.5-9 14.5-3.889 0-7 4.496-7 8 0 2.738 3.26 11 7 11ZM286 258l-1 1-3-1-9-2-3-1c0-2.917-3.481-4-6-4-3.99 0-1.785-10-4-10v-2l-1-1v-5l-1-1v-5c0-8.208 19-11.69 19-4 0 4.955-5.269 17 7 17 2.51 0 8 4.226 8 7 0 2.034-3.653 11-6 11Z"/><path fill="#F1483A" id="PSTN" d="M284 231v9c-12.269 0-7-12.045-7-17l4-3c0 4.703.649 4 4 4v5l-1 2Z"/><path fill="#9DE69C" id="BLAp" d="m87 251 2 1 6-2 2-1 1-1 5-7c-3.08 0-11-16.531-11-20-6.526 0-9 18.957-9 24v1l1 1 3 4Z"/><path fill="#C8CBCC" id="ec" d="m351 221-2 2c1.747 0 2-.253 2-2Z"/><path fill="#9DE69C" id="BLAp" d="M367 252h2l4-6c0-5.297-1.826-25-8-25 0 4.999-11 18.857-11 21l5 6 3 2 5 2Z"/><path fill="#A0EE9C" id="EPd" d="M391 221c-1.577 0-2 1.762-2 3 1.577 0 2-1.762 2-3Z"/><path fill="#FD5D50" id="PVi" d="M224 269h3v-42c0-3.162.109-2-2-2 0 3.823-1 8.586-1 13v31ZM229 269h3v-31c0-4.725-1-9.879-1-14-1.747 0-2 .253-2 2v43Z"/><path fill="#97D6F9" id="STR" d="m113 227-1 2-3-4 2 1 2 1ZM347 225l-1 1 1-1Z"/><path fill="#A8A9AA" id="V3" d="M225 290h7v-1c-2.598 0-3-16.639-3-20v-43l-2 1v57.5l-2 4.5v1Z"/><path fill="#97D6F9" id="STR" d="M344 229h1l1-3h-1l-1 1v2Z"/><path fill="#80BEE2" id="IA" d="M121 242h1c5.025 0-2-6.964-2-8l-7-7-1 2v1l1 1v3l2 3c0 1.726 4.558 5 6 5ZM342 237c-2.247 0-3.288 5-7 5-4.796 0 0-5.065 0-7 3.593 0 4.42-8 9-8v5l-1 1v2l-1 2Z"/><path fill="#C9C8CA" id="ee" d="M385 227c0 1.93 1.93 0 0 0Z"/><path fill="#E64438" id="HY" d="M171 230h1v-1l-1 1ZM285 230l-1 1 1-2v1Z"/><path fill="#8AD987" id="CTXsp" d="m345 229-1 1v-1h1ZM112 230l1 1-1-1Z"/><path fill="#E64438" id="HY" d="m199 230-1 1 1-1Z"/><path fill="#8AD987" id="CTXsp" d="M73 235h5l-1-4c-1.087 0-2.433 2-5 2l1 2ZM379 234c1.145 0 4-.579 4 1l1-2c-2.25 0-3.376-2-5-2v3Z"/><path fill="#E64438" id="HY" d="m258 232 1 1-1-1Z"/><path fill="#8AD987" id="CTXsp" d="m344 232-1 1 1-1Z"/><path fill="#97D6F9" id="STR" d="m123 243 4 3c0-2.312.379-13-2-13 0 3.985-3.223 1-5 1 0 1.036 7.025 8 2 8v1h1Z"/><path fill="#A0ED9D" id="EPv" d="M85 265h1l2-12-1-2-3-4-1-1v-1c-2.232 0-4-6.302-4-8l-1-2h-5c0 10.217 12 21.272 12 30Z"/><path fill="#8AD987" id="CTXsp" d="M112 237h3l-2-3-1 3Z"/><path fill="#E64438" id="HY" d="m198 234-1 1 1-1Z"/><path fill="#97D6F9" id="STR" d="M329 246h1l1-1h1l1-1 1-1 1-1c-4.796 0 0-5.065 0-7l-4-1c0 3.629-2 7.589-2 12Z"/><path fill="#A0ED9D" id="EPv" d="M370 265h1c0-6.649 12-20.037 12-30 0-1.579-2.855-1-4-1l-2 3c0 2.248-1.089 9-4 9l-4 6v2l1 11Z"/><path fill="#8AD987" id="CTXsp" d="M342 237h2l-1-2-1 2Z"/><path fill="#84E981" id="BMAp" d="M109 266h3l1-1h1l1-1 1-1c0-1.577 1.762-2 3-2l2-1 1-1c0-1.577 1.762-2 3-2l3-4c0-2.124-1-4.436-1-6l-4-4h-1l-1-1c-1.442 0-6-3.274-6-5h-3c-2.952 0-5.452 4-9 4l-5 7-1 1 1 2c2.245 0 9.884 15 11 15ZM332 257c5.446 0 9.679 9 16 9 0-4.093 11-13.09 11-16v-2l-5-6-10-5h-2c-2.247 0-3.288 5-7 5l-1 1-1 1-1 1h-1l-1 1-1 1v8h1l1 1 1 1Z"/><path fill="#E64438" id="HY" d="m221 241 3 1v-4l-3 3ZM235 241l-3 1v-4l3 3ZM259 238l1 1-1-1ZM197 240l-1 2 1-2Z"/><path fill="#FE5445" id="DMH" d="M209 245h1l1-1 10-3 3 1v27c-7.122 0-24.241-7.018-19-17.5 1.07-2.14 4-3.942 4-6.5ZM241 267c-3.455 0-5.917 1-9 1v-26l3-1c3.679 0 6.731 3 10 3l1 1h1c0 3.161 7.057 9.385 4 15.5l-8 5.5-2 1Z"/><path fill="#E64438" id="HY" d="M243 266c8.252 0 15 1.624 15 11 2.278 0 4.062-10.624 5-12.5l6-6.5c-10.513 0-5-3.094-5-7-3.99 0-1.785-10-4-10 0 9.079-6.427 4-13 4 0 3.161 7.057 9.385 4 15.5l-8 5.5Z"/><path fill="#8AD987" id="CTXsp" d="M122 242v1l-1-1h1ZM127 246v1l-4-4 4 3Z"/><path fill="#E64438" id="HY" d="M198 276c0-7.79 14.655-15.189 19-6.5 1.292 2.583-2 5.121-2 7.5 1.342 0 9-5.615 9-8-7.122 0-24.241-7.018-19-17.5 1.07-2.14 4-3.942 4-6.5-3.79 0-7.301 2-10.5 2l-2.5-4c-2.144 0-.381 4.262-1 5.5l-2 2.5 1 4.5c-1.599 3.198-7 3.753-7-.5l-3 1 9 7.5c.888 1.775 3.093 12.5 5 12.5Z"/><path fill="#8AD987" id="CTXsp" d="m334 243-1 1 1-1Z"/><path fill="#E64438" id="HY" d="m211 244-1 1 1-1ZM245 244l1 1-1-1Z"/><path fill="#8AD987" id="CTXsp" d="m333 244-1 1 1-1ZM331 245l-1 1 1-1Z"/><path fill="#90EB8D" id="LA" d="m83 246 1 1-1-1Z"/><path fill="#8AD987" id="CTXsp" d="m330 246-1 1v-1h1ZM98 248l-1 1 1-1ZM359 250h3l-3-2v2ZM95 250l3 1-1-2-2 1Z"/><path fill="#9CE79C" id="BLAv" d="M95 278h4c0-1.222 6.549-5 8-5 0-2.523 2-1.959 2-5v-2c-1.116 0-8.755-15-11-15l-3-1-6 2-1 1-2 12v2l1 1v4c1.577 0 2 1.762 2 3l6 3ZM357 278h4l6-3 3-6v-4l-1-11-2-2-5-2h-3c0 2.91-11 11.907-11 16l-1 2 3 5 7 5Z"/><path fill="#8AD987" id="CTXsp" d="m89 252-1 1-1-2 2 1Z"/><path fill="#C7C8CA" id="fx" d="M193 251c-2.883 0-6 .409-6 4 0 4.253 5.401 3.698 7 .5l-1-4.5ZM270 255l-1 3c-10.513 0-5-3.094-5-7 2.519 0 6 1.083 6 4Z"/><path fill="#8AD987" id="CTXsp" d="M369 252v2l-2-2h2Z"/><path fill="#97EC93" id="PA" d="M107 273c.822 0 8-2.798 8 0 .691 0 6.849-4.175 8.5-5 2.161-1.081 4.894 1 6.5 1l-2-16-3 4c0 1.577-1.762 2-3 2l-1 1-2 1c0 1.577-1.762 2-3 2l-1 1-1 1h-1l-1 1-3 2c0 3.041-2 2.477-2 5Z"/><path fill="#E64438" id="HY" d="m273 256-4 2 1-3 3 1Z"/><path fill="#97EC93" id="PA" d="M341 272c3.013 0 6.611 1 9 1l-3-5c-1.137 0-15-9.652-15-11l-1-1-1-1h-1c-2.735 0-2 10.639-2 13 5.477 0 12.079 4 14 4Z"/><path fill="#8AD987" id="CTXsp" d="m330 255 1 1-1-1Z"/><path fill="#F24839" id="TU" d="m208 288-1 1c-14.823 0-20.02-6.54-26-18.5l-8-9.5v-2l1-1 10-2 9 7.5c.888 1.775 3.093 12.5 5 12.5 0 2.734 2.939 7 6 7l4 4v1ZM253 283c0 1.82-4 2.097-4 6 16.436 0 20.381-6.262 27-19.5 1.756-3.511 7-5.173 7-8.5l-1-3-9-2-4 2-6 6.5c-.938 1.876-2.722 12.5-5 12.5l-2 4-1 1-2 1Z"/><path fill="#8AD987" id="CTXsp" d="M125 257c-1.238 0-3 .423-3 2 1.238 0 3-.423 3-2ZM348 266l-1 2c-1.137 0-15-9.652-15-11 5.446 0 9.679 9 16 9Z"/><path fill="#E64438" id="HY" d="m174 258-1 1 1-1ZM285 259l-2 2-1-3 3 1ZM286 258l-1 1 1-1Z"/><path fill="#8AD987" id="CTXsp" d="m122 259-1 1 1-1Z"/><path fill="#E64438" id="HY" d="M173 259v2l-1-2h1Z"/><path fill="#8AD987" id="CTXsp" d="m121 260-2 1 2-1ZM119 261c-1.238 0-3 .423-3 2 1.238 0 3-.423 3-2ZM116 263l-1 1 1-1ZM115 264l-1 1 1-1Z"/><path fill="#99D2BD" id="OLF" d="M86 265v1l-1-1h1Z"/><path fill="#8AD987" id="CTXsp" d="m113 265-1 1 1-1ZM370 267h1v-2h-1v2ZM112 266l-3 2v-2h3Z"/><path fill="#FF4A3D" id="VMH" d="M211 281c-2.16 0-4.167 2-7 2-3.061 0-6-4.266-6-7 0-7.79 14.655-15.189 19-6.5 1.292 2.583-2 5.121-2 7.5l-2 2-2 2Z"/><path fill="#E64438" id="HY" d="m243 266-2 1 2-1Z"/><path fill="#FF4A3D" id="VMH" d="m255 282-2 1c-11.792 0-12-7.706-12-16l2-1c8.252 0 15 1.624 15 11l-2 4-1 1Z"/><path fill="#8AD987" id="CTXsp" d="M86 268h1l-1-1v1Z"/><path fill="#E64438" id="HY" d="M248 289h1c0-3.903 4-4.18 4-6-11.792 0-12-7.706-12-16-3.455 0-5.917 1-9 1v1c0 3.911 16 11.212 16 20Z"/><path fill="#99D2BD" id="OLF" d="m371 267-1 1v-1h1ZM87 268v1l-1-1h1Z"/><path fill="#60E6B5" id="COApm" d="m137 281-3 2.5-12 8.5c-1.845 0-1.441-3.381-2-4.5-1.892-3.783-5-10.153-5-14.5.691 0 6.849-4.175 8.5-5 2.161-1.081 4.894 1 6.5 1 0 2.113 4.546 12 7 12ZM320 282c3.192 0 10.94 10 15 10 0-6.723 6-12.612 6-20-1.921 0-8.523-4-14-4l-7 14Z"/><path fill="#FF5B4F" id="ARH" d="M223 289h2l2-4.5V269h-3c0 2.385-7.658 8-9 8 0 1.747-.253 2-2 2 0 1.747-.253 2-2 2l-3 6v1l1 1c2.885 0 4.697 2 8 2 0-4.079 3.756-2 6-2ZM239 290l1 1 8-2c0-8.788-16-16.089-16-20h-3c0 3.361.402 20 3 20h1c1.293 0 6-1.962 6 1Z"/><path fill="#99D2BD" id="OLF" d="M367 275h3v-6l-3 6ZM86 275h3c0-1.238-.423-3-2-3l-1 3Z"/><path fill="#5FE6B7" id="COApl" d="M96 299v1c3.92 0 26-2.156 26-8-1.845 0-1.441-3.381-2-4.5-1.892-3.783-5-10.153-5-14.5 0-2.798-7.178 0-8 0-1.451 0-8 3.778-8 5l-2 2v14c0 1.235.643 5-1 5ZM360 299v1c-3.878 0-25-1.898-25-8 0-6.723 6-12.612 6-20 3.013 0 6.611 1 9 1l7 5 2 2c0 6.244 1 13.428 1 19Z"/><path fill="#59D9AA" id="PAA" d="m96 299-1 1c-4.187 0-18-4.23-18-9 2.603 0 9-13.572 9-16h3l6 3 2 2v14c0 1.235.643 5-1 5ZM360 299l2 1c3.614 0 17-4.375 17-8l-9-17h-3l-6 3-2 2c0 6.244 1 13.428 1 19Z"/><path fill="#E64438" id="HY" d="m215 277-2 2c1.747 0 2-.253 2-2Z"/><path fill="#99D2BD" id="OLF" d="m99 278-2 2-2-2h4ZM361 278l-2 2-2-2h4Z"/><path fill="#E64438" id="HY" d="m213 279-2 2c1.747 0 2-.253 2-2ZM204 283l4 4 3-6c-2.16 0-4.167 2-7 2ZM256 281l-1 1 1-1ZM207 289h2l-1-1-1 1Z"/><path fill="#F1473A" id="ME" d="M217 291c0 8.327 22 8.617 22 0v-1c0-2.962-4.707-1-6-1l-1 1h-7l-2-1c-2.244 0-6-2.079-6 2Z"/><path fill="#E64438" id="HY" d="M225 289v1l-2-1h2ZM233 289l-1 1v-1h1ZM239 291h1l-1-1v1Z"/><path fill="#99D2BD" id="OLF" d="M95 300h1v-1l-1 1ZM360 300h2l-2-1v1Z"/></svg>