<svg xmlns="http://www.w3.org/2000/svg" viewBox="0 0 456 320"><path fill="#FDFB90" id="FOTU" d="M183 125c2.97 0 16.482-4.491 19.5-6h52l18.5 6 2-1c2.61 0 5.145-6.209 4-8.5-2.339-4.677-7.464-10.982-12.5-13.5-7.144-3.572-14.989-5.494-22-9-4.512-2.256-13.55 2.725-17 1-9.382-4.691-23.362 1.181-31 5-9.506 4.753-18.5 9.647-18.5 22l1 1 1 1 1 1h1l1 1Z"/><path fill="#FFFB8E" id="PRM" d="M159 153c-2.09 0-8 5.91-8 8-2.457 0-4.522 3.489-7.5 2-13.383-6.692.685-20.87 4.5-28.5l-2-4c1.784-3.569 11.065-7.783 14.5-9.5 4.056-2.028 15.5-4.207 15.5 3v5l-1 1v2l-1 1-1 1v1l-1 1c-1.077 0-3 3.762-3 5-1.911 0-5 3.805-5 6-1.901 0-5 4.332-5 6Z"/><path fill="#FBFC91" id="PYR" d="m188 165 8.5-4c7.995-3.997 28.887-2 39-2h13c4.182 2.091 9.846.923 14 3l5.5 3c0-7.694.641-21.783 4-28.5.867-1.733-.084-8.5 3-8.5l-1-2-1-1-18.5-6h-52c-3.018 1.509-16.53 6-19.5 6v1l-1 1 3 8.5c1.767 3.534 3 24.45 3 29.5Z"/><path fill="#FFFB8E" id="PRM" d="m284 136 5 5.5c1.29 2.58 17 18.24 17 19.5 1.947 0 3.644 3.428 6.5 2 13.735-6.867.638-19.224-3.5-27.5l1-5c-1.931-3.861-9.117-6.809-12.5-8.5-6.867-3.433-17.5-5.513-17.5 6l1 1v2l1 1 2 4Z"/><path fill="#F0F080" id="CB" d="m178 121 1 1-1-1ZM180 123l1 1-1-1ZM176 124c1.486 0 1.486 3 0 3v-3ZM182 124l1 1-1-1ZM273 125l1 1 1-2-2 1ZM183 126l-1 1 1-1Z"/><path fill="#FFF990" id="COPY" d="M188 165c0 4.132-15 8.234-15 14-2.147 0-8.316 4.908-10.5 6-1.495.748-2.953-.477-4-1-8.112-4.056-5.5-13.08-5.5-21 1.029 0 6-8.52 6-10 1.901 0 5-4.332 5-6 1.901 0 5-4.332 5-6l4-4 1-2 1-1 1-1 1-1 1-1 1-1 1-1 2-2 3 8.5c1.767 3.534 3 24.45 3 29.5ZM268 165c1.709 0 16 13.241 16 15 2.272 0 8.262 3.881 10.5 5 6.843 3.421 11.532-14.436 10.5-16.5l-2-6.5-4.5-7c-.666-.333-16.5-19.371-16.5-20l-2-2-1-1-1-1-1-1-2-2c-3.084 0-2.133 6.767-3 8.5-3.359 6.717-4 20.806-4 28.5Z"/><path fill="#F0F080" id="CB" d="m280 128 1 1-1-1ZM176 129l-1 1 1-1ZM180 129l-1 1 1-1ZM277 130l1 1-1-1ZM178 131l-1 1 1-1ZM281 131l1 1-1-1ZM176 133l-1 1-1-1 1-1 1 1ZM279 132l1 1-1-1ZM174 133l-1 1 1-1ZM172 136l1 1 1-2h-1l-1 1ZM306 161c-1.048 0-3-.473-3 1l-4.5-7c-.666-.333-16.5-19.371-16.5-20l2 1 5 5.5c1.29 2.58 17 18.24 17 19.5Z"/><path fill="#F0F080" id="CB" d="m173 137-4 4c0-1.238 1.923-5 3-5l1 1ZM169 141c-1.911 0-5 3.805-5 6 1.901 0 5-4.332 5-6ZM164 147c-1.901 0-5 4.332-5 6 1.901 0 5-4.332 5-6ZM151 161c1.747 0 2 .253 2 2 1.029 0 6-8.52 6-10-2.09 0-8 5.91-8 8Z"/><path fill="#FFFA8F" id="UVU" fill-rule="evenodd" d="M185 177c0 5.044 14.185 4 18.5 4H254c3.907 0 15.181 1.138 17-2.5 1.087-2.174-5.377-1.5-6.5-1.5H185m-12 2c0 17.82 7.394 11.947 19.5 18 18.111 9.056 60.182 7.909 78-1 3.76-1.88 10.177-2.854 12.5-7.5.822-1.644.958-8.5 1-8.5 0-1.759-14.291-15-16-15l-5.5-3c-4.154-2.077-9.818-.909-14-3h-13c-10.113 0-31.005-1.997-39 2l-8.5 4c0 4.132-15 8.234-15 14Z"/><path fill="#CBC9CC" id="arb" d="M185 177c0 5.044 14.185 4 18.5 4H254c3.907 0 15.181 1.138 17-2.5 1.087-2.174-5.377-1.5-6.5-1.5H185Z"/><path fill="#FF9BCD" id="MY" fill-rule="evenodd" d="M165 280c0 13.157 15.474 2.987 9.5 0H165m118-1-2 3.5c0 10.206 18.848-2.5 5-2.5l-3-1m-58-10v8.5c3.624 7.247 14.251-8.5 0-8.5m5-44c0 2.231-2.386 6.728-1 9.5l5.5.5c7.722-3.861 1.378-10-4.5-10m-9 0c0 2.099-3.558 4.383-2 7.5 4.661 9.322 16.276-7.5 2-7.5m14-5-5 3.5 8.5.5c1.502-.751.596-4-1-4H235m-65 70c4.316 0 7.119-8.691 12.5-6 4.858 2.429 12.213-.393 17 2 4.757 2.378 41.836 4.582 47 2 1.809-.904 29.892-4.554 31-4 2.599 1.299 5.331 6 8.5 6 0-1.652 2-3.092 2-1l4-4 2-2 1-1 1-1 1-4c-2.518 0-4.286-2-6-2 0 7.847-12.739 0-14 0h-8c0 4.763-8.504 3.502-11.5 5-16.609 8.304-14.574-8.649-18.5-16.5l-6-10c-1.874-3.748 3.904-11.5 7-11.5 0-1.45 3.126-7 5-7 0-3.471 7-5.502 7-8l-6.5 2c-10.374-5.187-2.5-10.224-2.5-15-3.034 0-4.95 3.725-7.5 5-3.127 1.563-5.202-2-6.5-2 0 1.93-1.161 0-2 0 0 2.141-4.913 2.793-6.5 2-4.326-2.163-12.5-9.344-12.5-15-9.22 0-19.93-3-30-3 0 1.622-9 1.622-9 0-1.77 0-12 8.062-12 10 1.421 0 17.441-9.53 22.5-7 3.643 1.821 6.286 4.286 9.5 7.5l3 3.5 1-3c0-.78-8.632-7.434-5.5-9 7.015-3.507 21.723 10 12.5 10 0 .924 8.5 7 10.5 6 1.215-.608-5.745-8-2-8 3.075 0 8.5 6.041 8.5 9l4 .5c.753.753 6.378.243 5 3-.975 1.95-9 .859-9-1.5l-4.5 6c-3.395 1.697-4.342-1-7.5-1 0 3.05 6 4.483 6 8 1.557 0 6 5.116 6 7 1.999 0 8.379 7.742 7 10.5l-5 7c-3.072 6.145-1.737 18.118-8.5 21.5-4.334 2.167-23.5-2.477-23.5-6h-8l-2.5 2c-1.627.813-11.5 2.732-11.5-1-1.564 0-3.876 1-6 1l2 4c1.533 0 4 3.753 4 5l4 3c0-2.029 1-.058 1 1Z"/><path fill="#FF9BCD" id="MY" d="M264 216c1.394 0 9.298-14.601 14.5-12 4.833 2.416 11.044 1.522 16 4 2.771 1.386 6.233 9 8.5 9 0-3.413-12.556-16-16-16 0 1.622-9 1.622-9 0-10.131 0-20.676 3-30 3 0 3.903-3 5.998-3 8l2.5-1c4.311 0-3.091 6.955-1 8 1.444.722 9.5-5.145 9.5-6-7.844 0 6.063-13.718 13.5-10 2.162 1.081-6.5 8.235-6.5 9l1 4Z"/><path fill="#C8CACA" id="sptV" d="M169 201h9c0 1.622-9 1.622-9 0ZM278 201h9c0 1.622-9 1.622-9 0Z"/><path fill="#CAC9CC" id="cuf" d="m193 212 7 1c9.223 0-5.485-13.507-12.5-10-3.132 1.566 5.5 8.22 5.5 9ZM256 213h5l1-1h1c0-.765 8.662-7.919 6.5-9-7.437-3.718-21.344 10-13.5 10Z"/><path fill="#FDA4D0" id="SPVC" d="M165 276c-1.564 0-3.876 1-6 1l-3-3.5-3-1v-4c-5.678-11.356-4-20.547-4-33.5 1.579 0 1-2.855 1-4v-1c1.473 0 1-1.952 1-3v-2c1.473 0 1-1.952 1-3v-1l1-1v-1l1-2 1-2v-1l1-1 1-2c1.421 0 17.441-9.53 22.5-7 3.643 1.821 6.286 4.286 9.5 7.5l3 3.5v1l1 1v1l-1 4-9 11.5c-1.165 2.329-.853 5.706-2 8l-6 10c-2.349 4.697-1.612 11.223-4 16-1.395 2.789-6 5.226-6 8.5Z"/><path fill="#FEA3D0" id="GR" d="M208 204c10.143 0 19 1.195 19 13 0 2.141-4.913 2.793-6.5 2-4.326-2.163-12.5-9.344-12.5-15ZM243 214c-3.034 0-4.95 3.725-7.5 5-3.127 1.563-5.202-2-6.5-2 0-11.502 9.039-13 19-13 0 3.903-3 5.998-3 8l-1 1-1 1Z"/><path fill="#FDA4D0" id="SPVC" d="M291 275c1.714 0 3.482 2 6 2l2.5-3 3.5-1.5c5.453-10.905 5-21.203 5-33.5l-1-2v-4c-1.579 0-1-2.855-1-4v-1c-1.473 0-1-1.952-1-3v-2l-1-2v-1l-1-1v-2c-2.267 0-5.729-7.614-8.5-9-4.956-2.478-11.167-1.584-16-4-5.202-2.601-13.106 12-14.5 12v1l-1 1v1l2 3c0 3.414 6.449 8.397 8 11.5 2.766 5.531 5.187 11.374 8 17 2.374 4.749 1.602 11.205 4 16l6 8.5Z"/><path fill="#FF9BCD" id="MY" d="m157 211-1 2 1-2Z"/><path fill="#FDA5D0" id="CU" d="M204 227h1c3.158 0 4.105 2.697 7.5 1l4.5-6v-2c0-2.959-5.425-9-8.5-9-3.745 0 3.215 7.392 2 8-2 1-10.5-5.076-10.5-6l-7-1-1 3v1l1 1v1c1.429 0 4 3.939 4 5l3 1 4 3ZM254 226l-2 1-6.5 2c-10.374-5.187-2.5-10.224-2.5-15l1-1 1-1 2.5-1c4.311 0-3.091 6.955-1 8 1.444.722 9.5-5.145 9.5-6h5l1-1h1l1 4v1l-1 1v1l-4 4h-1l-1 1-1 1h-1l-1 1Z"/><path fill="#FF9BCD" id="MY" d="m245 212-1 1 1-1ZM262 212l-1 1 1-1ZM156 213l-1 1 1-1ZM155 215l-1 2 1-2ZM192 216l1 1-1-1ZM154 217l-1 2 1-2ZM264 217l-1 1 1-1ZM192 222l5 1c0-1.061-2.571-5-4-5l-1 4ZM265 222l-6 1 4-4 2 3ZM303 219l1 1-1-1ZM153 220l-1 1 1-1Z"/><path fill="#FDA5D1" id="NTS" d="m217 220 4 .5c.753.753 6.378.243 5 3-.975 1.95-9 .859-9-1.5v-2ZM235 220l-5 3.5 8.5.5c1.502-.751.596-4-1-4H235Z"/><path fill="#FF9BCD" id="MY" d="m304 221 1 2-1-2ZM152 222c-1.473 0-1 1.952-1 3 1.473 0 1-1.952 1-3Z"/><path fill="#FDB1D7" id="MDRNd" d="m179 275-2.5 2c-1.627.813-11.5 2.732-11.5-1 0-3.274 4.605-5.711 6-8.5 2.388-4.777 1.651-11.303 4-16l6-10c1.147-2.294.835-5.671 2-8l9-11.5 5 1 3 1 4 3h1c0 3.05 6 4.483 6 8-2.867 0-6.655 7.077-8.5 8-5.083 2.542-23.5 23.976-23.5 32ZM277 275c1.261 0 14 7.847 14 0l-6-8.5c-2.398-4.795-1.626-11.251-4-16-2.813-5.626-5.234-11.469-8-17-1.551-3.103-8-8.086-8-11.5l-6 1h-1l-1 1-1 1h-1l-1 1-2 1c0 2.498-7 4.529-7 8 2.776 0 7.742 6.242 10.5 9 7.945 7.945 21.5 19.604 21.5 31Z"/><path fill="#FF9BCD" id="MY" d="m258 223-1 1 1-1ZM200 224l4 3-4-3ZM257 224l-1 1 1-1Z"/><path fill="#FDB1D8" id="DMX" d="M221 225c0 2.099-3.558 4.383-2 7.5 4.661 9.322 16.276-7.5 2-7.5Z"/><path fill="#FDB1D8" id="DMX" d="M230 225c0 2.231-2.386 6.728-1 9.5l5.5.5c7.722-3.861 1.378-10-4.5-10Z"/><path fill="#FF9BCD" id="MY" d="m255 225-1 1 1-1ZM305 225c1.473 0 1 1.952 1 3-1.473 0-1-1.952-1-3ZM254 226l-2 1 2-1ZM151 227c-1.473 0-1 1.952-1 3 1.473 0 1-1.952 1-3ZM306 229c1.579 0 1 2.855 1 4-1.579 0-1-2.855-1-4ZM150 231c-1.579 0-1 2.855-1 4 1.579 0 1-2.855 1-4Z"/><path fill="#FFB2D8" id="IRN" d="M179 275h8c0-7.623 22.031-33 30-33 0-1.884-4.443-7-6-7-2.867 0-6.655 7.077-8.5 8-5.083 2.542-23.5 23.976-23.5 32ZM269 275h8c0-11.396-13.555-23.055-21.5-31-2.758-2.758-7.724-9-10.5-9-1.874 0-5 5.55-5 7l3.5 3c8.097 4.048 25.5 19.279 25.5 30Z"/><path fill="#FF9BCD" id="MY" d="m307 237 1 2-1-2Z"/><path fill="#FFB1D6" id="MDRNv" d="M217 242c1.999 0 8.379 7.742 7 10.5l-5 7c-3.072 6.145-1.737 18.118-8.5 21.5-4.334 2.167-23.5-2.477-23.5-6 0-7.623 22.031-33 30-33ZM240 242l3.5 3c8.097 4.048 25.5 19.279 25.5 30 0 4.763-8.504 3.502-11.5 5-16.609 8.304-14.574-8.649-18.5-16.5l-6-10c-1.874-3.748 3.904-11.5 7-11.5Z"/><path fill="#C9C7CC" id="pyd" d="M225 269v8.5c3.624 7.247 14.251-8.5 0-8.5Z"/><path fill="#C8C8CB" id="rust" d="m283 279-2 3.5c0 10.206 18.848-2.5 5-2.5l-3-1ZM165 280c0 13.157 15.474 2.987 9.5 0H165Z"/><path fill="#C9CACA" id="sctd" d="M161 281c1.533 0 4 3.753 4 5-1.811 0-4-3.438-4-5ZM296 281l-1 1 1-1ZM295 282l-1 1 1-1ZM294 283l-2 2c1.747 0 2-.253 2-2Z"/><path fill="#CBC7CC" id="sctv" d="m169 289 1 1c0-1.058-1-3.029-1-1ZM288 289l-2 1c0-1.652 2-3.092 2-1Z"/></svg>