<svg xmlns="http://www.w3.org/2000/svg" viewBox="0 0 456 320"><path fill="#FEFA90" id="DEC" d="M273 106c-8.911 0-6.705-17.602-9.5-19-5.653-2.827-12.357-4.179-18-7l-21 1c-2.333-1.167-11.199-2.4-14-1-2.798 1.4-18.61 6.72-19.5 8.5-1.64 3.28 1.678 6.644 0 10l-6 6-2 2.5-6-3-11-27 19.5-11c14.934-7.467 27.062-7 44.5-7l15.5-1c2.653 1.327 6.456-.272 9 1 6.131 3.066 12.871 4.935 19 8 3.791 1.895 13.94 10 17.5 10l-12 28-6 1Z"/><path fill="#FCFC90" id="ANcr1" d="m177 104 1 6-1.5-3-14-14c-9.579-4.79-18.862-7-30.5-7 0-11.078 25.527-9 34-9l11 27ZM279 105v3l12.5-13c10.86-5.43 19.256-9 32.5-9 0-11.437-23.671-9-33-9l-12 28Z"/><path fill="#CBC9CC" id="arb" fill-rule="evenodd" d="M224 83c0 3.801-6.596 1.048-8.5 2-4.182 2.091-8.505 4.51-10.5 8.5v7c0 5.044 3.086 11.293 7.5 13.5 6.776 3.388 26.698 2.151 33-1l1.5-3.5 4-4c4.479-8.957-3.389-20.5-12.5-20.5-5.187 0-8.87-2-14.5-2m53 34c10.4 0 35.551 27.051 42.5 34 5.249 5.249 10.409 11.318 13.5 17.5h3c3.642-7.284-6.913-9.826-9-14l-24-24-10-9.5c-.56 0-4.771-5.135-6.5-6-1.35-.675-7.5-2.239-7.5-4l-6-5c-8.911 0-6.705-17.602-9.5-19-5.653-2.827-12.357-4.179-18-7l-21 1c-2.333-1.167-11.199-2.4-14-1-2.798 1.4-18.61 6.72-19.5 8.5-1.64 3.28 1.678 6.644 0 10l-6 6-2 2.5-5 4c-.896 0-10.921 5.21-12.5 6-1.388.694.23 4-2.5 4 0 2.833-5.887 6.387-8.5 9L129 154.5c-2.68 2.68-11.174 7.653-9 12l2.5 2.5c1.11-.555 9.464-12.464 12-15 10.518-10.518 20.93-24.465 34-31 3.466-1.733 7.511-7 11.5-7 6.816 0 30.942-1.779 36.5 1 5.036 2.518 17.508 3.746 23 1 7.335-3.667 19.818-3 28.5-3 2.008 0 9-.656 9 2Z"/><path fill="#FEFA90" id="DEC" d="M224 83c0 3.801-6.596 1.048-8.5 2-4.182 2.091-8.505 4.51-10.5 8.5v7c0 5.044 3.086 11.293 7.5 13.5 6.776 3.388 26.698 2.151 33-1l1.5-3.5 4-4c4.479-8.957-3.389-20.5-12.5-20.5-5.187 0-8.87-2-14.5-2Z"/><path fill="#FCFA91" id="ANcr2" fill-rule="evenodd" d="M145 115c0 2.144-4.262.381-5.5 1-3.299 1.649-14.5-.479-14.5 5.5 0 .651 10.303-2.902 11.5-3.5l18.5-1.5c1.052-2.103-8.551-1.5-10-1.5m18 6c-5.467 0-11.759 5.629-16.5 8-12.695 6.347-25.352 13.676-38 20-4.915 2.458-11.856 8-17.5 8-12.312 0-9.857-13.786-6-21.5v-4c8.135-16.269 25.688-45.5 47-45.5 11.638 0 20.921 2.21 30.5 7l14 14 1.5 3v1c-.896 0-10.921 5.21-12.5 6-1.388.694.23 4-2.5 4ZM302 115c0 5.046 8.126-.187 12.5 2 1.595.797 14.893 5 16 5l-2-4-5.5-1c-7.367 0-13.376-2-21-2m-9 6c6.993 0 14.476 6.988 20.5 10 10.225 5.113 43.264 26 52.5 26 13.119 0 8.718-19.063 5-26.5-8.101-16.202-25.879-44.5-47-44.5-13.244 0-21.64 3.57-32.5 9L279 108v3c0 1.761 6.15 3.325 7.5 4 1.729.865 5.94 6 6.5 6Z"/><path fill="#FDFB90" id="FOTU" d="M178 110v1l5-4-6-3 1 6ZM279 108v3l-6-5 6-1v3Z"/><path fill="#CBC9CC" id="arb" d="M145 115c0 2.144-4.262.381-5.5 1-3.299 1.649-14.5-.479-14.5 5.5 0 .651 10.303-2.902 11.5-3.5l18.5-1.5c1.052-2.103-8.551-1.5-10-1.5Z"/><path fill="#FDFB90" id="FOTU" d="m182 131 9.5-4c4.066-2.033 40.303-6.349 45-4 5.94 2.97 15.11-.945 21 2l17.5 6c0-2.24.165-14 2-14 0-2.656-6.992-2-9-2-8.682 0-21.165-.667-28.5 3-5.492 2.746-17.964 1.518-23-1-5.558-2.779-29.684-1-36.5-1l2 15Z"/><path fill="#CBC9CC" id="arb" d="M302 115c0 5.046 8.126-.187 12.5 2 1.595.797 14.893 5 16 5l-2-4-5.5-1c-7.367 0-13.376-2-21-2Z"/><path fill="#FFFB8E" id="PRM" d="m124 199-1 1-5.5 1c-14.2-7.1-23.759-20.017-30.5-33.5-2.318-4.636 4-7.183 4-10.5 5.644 0 12.585-5.542 17.5-8 12.648-6.324 25.305-13.653 38-20 4.741-2.371 11.033-8 16.5-8 0 2.833-5.887 6.387-8.5 9L129 154.5c-2.68 2.68-11.174 7.653-9 12l2.5 2.5c1.11-.555 9.464-12.464 12-15 10.518-10.518 20.93-24.465 34-31 3.466-1.733 7.511-7 11.5-7l2 15v1c-5.202 0-12.274 7.774-16 11.5-5.042 5.042-24.275 29.551-27 35-2.071 4.142-8 7.519-8 13.5l-7 7ZM325 192l7 7c1.984 0 3.945 3.278 6.5 2 13.743-6.872 24.043-19.585 30.5-32.5 2.34-4.679-3-8.031-3-11.5-9.236 0-42.275-20.887-52.5-26-6.024-3.012-13.507-10-20.5-10l10 9.5 24 24c2.087 4.174 12.642 6.716 9 14h-3c-3.091-6.182-8.251-12.251-13.5-17.5-6.949-6.949-32.1-34-42.5-34-1.835 0-2 11.76-2 14v1c4.428 0 11.749 8.249 15 11.5 5.377 5.377 23.021 27.041 26 33 2.812 5.624 9 8.687 9 15.5Z"/><path fill="#FBFC91" id="PYR" d="M183 144c.718 0 13.534-8.017 15.5-9 8.33-4.165 47.722-4.139 56 0 2.558 1.279 18.5 5.642 18.5 9 .711 0 2-10.88 2-12v-1l-17.5-6c-5.89-2.945-15.06.97-21-2-4.697-2.349-40.934 1.967-45 4l-9.5 4v1l1 12Z"/><path fill="#FFF990" id="COPY" fill-rule="evenodd" d="M149 183c0 4.136 2.609 0 0 0m2-1c0 1.93 1.93 0 0 0m1-1c0 1.93 1.93 0 0 0m-21 11c1.829 0 2.185 5.842 4.5 7 4.858 2.429 7.359-2 11.5-2 3.974 0 15.561-14 18-14l1-1v-1c0-3.909 3-7.158 3-10 0-3.849-8.223 5.861-10.5 7-.445.223-5.5 4.005-5.5 2.5l8-7 14-20 8-9.5-1-12c-5.202 0-12.274 7.774-16 11.5-5.042 5.042-24.275 29.551-27 35-2.071 4.142-8 7.519-8 13.5Z"/><path fill="#CBC9CC" id="arb" fill-rule="evenodd" d="M170 166c0 5.512.634 0 0 0m-1 5c1.145 0 17.887-5.193 19.5-6 6.676-3.338 27.956 1.522 37-3 2.522-1.261 10.82.91 13 2l30 1c2.757 1.379 15.911 6 18.5 6 0-3.356-5.629-9-9-9-7.342 0-28.588-.044-34.5-3-6.118-3.059-13.818 3.091-20 0-2.432-1.216-9.038.019-11 1-1.822.911-29.886 2-33.5 2-1.808 0-6.384 4.558-7.5 4l3.5-5.5c.935-1.87 5.852-11.5 8-11.5 0-5.866 12.281-8.391 15.5-10 11.678-5.839 47.318-5.841 59 0 2.473 1.237 15.5 4.974 15.5 9 2.697 0 6.944 10.387 8 12.5 1.999 3.997 22.755 24.5 26.5 24.5l-12-12c-6.036-6.036-12.778-15.056-16.5-22.5l-6-6.5c0-3.358-15.942-7.721-18.5-9-8.278-4.139-47.67-4.165-56 0-1.966.983-14.782 9-15.5 9l-8 9.5-14 20-8 7c0 1.505 5.055-2.277 5.5-2.5 2.277-1.139 10.5-10.849 10.5-7Z"/><path fill="#FFF990" id="COPY" d="M325 192c0 12.231-13.241 5-16 5l-19-15v-1c0-4.208-3-8.137-3-10 0-3.356-5.629-9-9-9l-5-7v-7c2.697 0 6.944 10.387 8 12.5 1.999 3.997 22.755 24.5 26.5 24.5l-12-12c-6.036-6.036-12.778-15.056-16.5-22.5l-6-6.5c.711 0 2-10.88 2-12 4.428 0 11.749 8.249 15 11.5 5.377 5.377 23.021 27.041 26 33 2.812 5.624 9 8.687 9 15.5Z"/><path fill="#FBFC91" id="PYR" d="m183 155 6.5-4c6.848-3.424 16.233-1.617 23-5h12c11.294 0 27.492-1.754 37 3l11.5 6v-7c0-4.026-13.027-7.763-15.5-9-11.682-5.841-47.322-5.839-59 0-3.219 1.609-15.5 4.134-15.5 10v6Z"/><path fill="#FFFA8F" id="UVU" d="M179 162c3.614 0 31.678-1.089 33.5-2 1.962-.981 8.568-2.216 11-1 6.182 3.091 13.882-3.059 20 0 5.912 2.956 27.158 3 34.5 3l-5-7-11.5-6c-9.508-4.754-25.706-3-37-3h-12c-6.767 3.383-16.152 1.576-23 5l-6.5 4c0 2.46-4 4.17-4 7Z"/><path fill="#FFF990" id="COPY" d="M183 155c0 2.46-4 4.17-4 7-1.808 0-6.384 4.558-7.5 4l3.5-5.5c.935-1.87 5.852-11.5 8-11.5v6Z"/><path fill="#FFFA8F" id="UVU" d="M234 193h2c13.409 0 24.483-2.491 35.5-8l9-1 6.5-2 1-1h2c0-4.208-3-8.137-3-10-2.589 0-15.743-4.621-18.5-6l-30-1c-2.18-1.09-10.478-3.261-13-2-9.044 4.522-30.324-.338-37 3-1.613.807-18.355 6-19.5 6 0 2.842-3 6.091-3 10h1l9.5 3 9 1c11.277 5.639 21.735 8 35.5 8h13Z"/><path fill="#FFF990" id="COPY" d="M170 166c0 5.512.634 0 0 0Z"/><path fill="#CBC9CC" id="arb" d="M152 181c0 1.93 1.93 0 0 0Z"/><path fill="#F0F080" id="CB" d="m167 181-1 1v-1h1ZM288 181l-1 1 1-1ZM290 181v1l-1-1h1Z"/><path fill="#CBC9CC" id="arb" d="M151 182c0 1.93 1.93 0 0 0Z"/><path fill="#F0F080" id="CB" d="m166 182-1 1 1-1Z"/><path fill="#CBC9CC" id="arb" d="M149 183c0 4.136 2.609 0 0 0Z"/><path fill="#FF9BCD" id="MY" d="m169 187-2 1 2-1Z"/><path fill="#FFA2D2" id="ECU" d="M187 191c0 4.484-5.823 9-10 9-3.558 0-12.15-1.8-14-5.5-1.27-2.541 2-3.709 2-5.5l2-1 2-1c4.107 0 8.469 1 12 1l1 1h2l1 1h1l1 1ZM269 191c0 3.914 6.278 9 10 9 3.765 0 12.035-1.569 14-5.5 1.578-3.155-3-4.241-3-6.5h-1l-1-1c-5.859 0-11.032 2-16 2l-1 1-2 1Z"/><path fill="#FF9BCD" id="MY" d="m288 187 1 1-1-1ZM167 188l-2 1 2-1ZM181 188l1 1-1-1ZM278 215c-4.296 0-7.018 2-11 2l4-3.5-4-3.5c1.658 0 3-1.461 3-3 7.339 0 9-.701 9-7 3.765 0 12.035-1.569 14-5.5 1.578-3.155-3-4.241-3-6.5 4.115 0 7.938 5.219 11.5 7 7.509 3.754 25.5 21.935 25.5 30l-9-11c0-7.093-12.023-14-18-14 0-2.513-10.887-2.725-12-.5-1.078 2.156 3 .79 3 2.5-7.319 0-13 5.641-13 13ZM178 215c4.296 0 7.018 2 11 2l-3-3.5 3-3.5-3-3c-7.174 0-9-1.007-9-7-3.558 0-12.15-1.8-14-5.5-1.27-2.541 2-3.709 2-5.5-4.792 0-26 16.623-26 22 1.214 0 10.065-11 17-11 0-2.387 10.749-3.002 12-.5 1.078 2.156-3 .79-3 2.5 8.118 0 13 4.527 13 13ZM184 189l1 1-1-1ZM272 189l-1 1 1-1ZM187 191h1l-2-1 1 1ZM268 191h1l2-1c-1.048 0-3-.473-3 1Z"/><path fill="#FDA5D0" id="CU" d="M177 200c0 5.993 1.826 7 9 7 2.792 0 9.06-8 13-8 0-6.816-9-6.072-9-8h-3c0 4.484-5.823 9-10 9Z"/><path fill="#FF9BCD" id="MY" d="M199 199c1.048 0 3-.473 3 1l7-4c0-1.951-2.454-.477-3.5-1-3.845-1.922-11.123-4-15.5-4 0 1.928 9 1.184 9 8ZM266 191c-1.424 0-5 .362-5 2 1.424 0 5-.362 5-2Z"/><path fill="#FDA5D0" id="CU" d="M279 200c0 6.299-1.661 7-9 7-2.873 0-8.868-8-13-8 0-3.233 4-4.452 4-6 1.424 0 5-.362 5-2h3c0 3.914 6.278 9 10 9Z"/><path fill="#F0F080" id="CB" d="M147 197c0 8.742-18.649 2-23 2l7-7c1.829 0 2.185 5.842 4.5 7 4.858 2.429 7.359-2 11.5-2ZM309 197c0 8.629 19.354 2 23 2l-7-7c0 12.231-13.241 5-16 5Z"/><path fill="#FF9BCD" id="MY" d="m222 193-1 1v-1h1Z"/><path fill="#FFA5D0" id="AP" d="M227 207h3c0-4.362 9-7.054 9-11v-1h-2l-3-2h-5c0 1.186-1 1.186-1 0h-6l-1 1h-1l-1 1h-1l-1 1 10 11Z"/><path fill="#FF9BCD" id="MY" d="m236 193 1 2-3-2h2ZM257 199l-3 1-7-4c4.553 0 8.704-3 14-3 0 1.548-4 2.767-4 6ZM220 194l-1 1 1-1Z"/><path fill="#FDA5D1" id="NTS" d="M197 221h1c3.428 0 3.884-4 6-4 0-10.766 19-14.594 19-1 0 3.888 4.043-1 5-1v-2l-1-2v-4l-10-11v-1l-8 1-7 4-1 3 2 2.5c0 3.448-4 1.956-4-1.5-3.138 0-6.278 6-10 6l-3 3.5 3 3.5h1l3 2h1l1 1h1l1 1Z"/><path fill="#FF9BCD" id="MY" d="m218 195-1 1v-1h1ZM240 195l-1 1v-1h1Z"/><path fill="#FDA5D1" id="NTS" d="m261 220-2 1c-2.8 0-6-1.875-6-5 0-9.625-19-13.67-19 0-1.777 0-5 2.985-5-1v-4l1-4c0-4.362 9-7.054 9-11l1-1 7 1 7 4 1 3c0 4.53 2 8.076 2 1 3.63 0 6.068 6 10 6l4 3.5-4 3.5-2 1-1 1h-1l-2 1Z"/><path fill="#C8CACA" id="sptV" d="M163 202h2c0-1.71 4.078-.344 3-2.5-1.251-2.502-12-1.887-12 .5 3.978 0 6-.991 6 2h1ZM294 203h1c0-3.919.337-3 5-3 0-2.513-10.887-2.725-12-.5-1.078 2.156 3 .79 3 2.5h2l1 1Z"/><path fill="#F0F080" id="CB" d="m124 199-1 1 1-1Z"/><path fill="#FFB2D6" id="PAS" d="m186 207 3 3c3.722 0 6.862-6 10-6l2-1 1-3c0-1.473-1.952-1-3-1-3.94 0-10.208 8-13 8ZM270 207c0 1.539-1.342 3-3 3-3.932 0-6.37-6-10-6l-2-1-1-3 3-1c4.132 0 10.127 8 13 8Z"/><path fill="#FDA3D1" id="Pa5" d="M147 212c-3.233 0-2.242 2-8 2v-3c1.214 0 10.065-11 17-11 3.978 0 6-.991 6 2l-1 1-12 8h-1l-1 1ZM309 211l4.5 4 4.5-1c0-7.093-12.023-14-18-14-4.663 0-5-.919-5 3 4.227 0 6.912 7 11 7l1 1h2Z"/><path fill="#C8CACA" id="sptV" d="M161 203h1v-1l-1 1Z"/><path fill="#FF9BCD" id="MY" d="m163 202-1 1v-1h1Z"/><path fill="#FDA5D2" id="SPVI" d="m151 269-2 1-5-1h-1l-3-2h-1l-3-3-1-3-1-2v-1l-1-2v-1l-1-2v-1l-1-1v-19l1-2v-1l1-1v-1l1-1c0-1.252 3.172-5 4-5l1-1 8-8h1l1-1 12-8h1l1-1h2c8.118 0 13 4.527 13 13 0 3.114-4.168 4-7 4 0-7.156-15.527-4.973-19-1.5-8.336 8.336-12.655 28.69-7 40 1.235 2.47 1.264 11.5 6 11.5ZM312 269h2l1-1h1l1-1h1l1-1 2-4 1-2v-1l1-2v-1l1-1v-1l1-1v-3c0-1.048-.473-3 1-3v-6l-1-11-1-1v-1l-1-1v-1l-2-2-8-8-1-1-1-1-1-1-1-1-1-1h-1l-1-1c-4.088 0-6.773-7-11-7h-1l-1-1h-2c-7.319 0-13 5.641-13 13 0 3.207 4.706 4 7 4 0-2.47 5.03-3.265 6.5-4 9.064-4.532 16.081 5.663 19.5 12.5 2.966 5.932 4.199 24.603 1 31l-3 8-3 2.5 2 1 4-1Z"/><path fill="#FF9BCD" id="MY" d="m293 202 1 1-1-1Z"/><path fill="#C8CAC7" id="ts" d="m201 203-2 1c0 3.456 4 4.948 4 1.5l-2-2.5ZM255 203l2 1c0 7.076-2 3.53-2-1Z"/><path fill="#FDB1D8" id="DMX" d="M215 217h4l4-1c0-13.594-19-9.766-19 1 1.488 0 11-2.505 11 0ZM237 217h5c0-1.149 9.943-1 11-1 0-9.625-19-13.67-19 0 0 1.473 1.952 1 3 1Z"/><path fill="#FF9BCD" id="MY" d="M227 211h2l1-4h-3v4ZM306 210l1 1-1-1ZM139 214l-8 8c0-2.66 4.59-11 8-11v3Z"/><path fill="#C8CACA" id="sptV" d="M147 212h1v-1l-1 1Z"/><path fill="#FF9BCD" id="MY" d="m149 211-1 1v-1h1Z"/><path fill="#AAA9A7" id="V4" d="M228 213h1v-2h-2l1 2Z"/><path fill="#FF9BCD" id="MY" d="M309 211v1l-1-1h1Z"/><path fill="#C8CACA" id="sptV" d="m315 275-3 1-1-1 1-6h2l1-1h1l1-1h1l1-1 2-4 1-2v-1l1-2v-1l1-1v-1l1-1v-3c1.473 0 1-1.952 1-3 1.587 0 1.587-6 0-6l-1-11-1-1v-1l-1-1v-1l-2-2-8-8-1-1-1-1-1-1-1-1v-1l4.5 4 4.5-1 9 11v1l1 1v1l1 2v2l1 11.5c-1.82 3.64-3 11.406-3 15.5l-4 8-2 2-6 6ZM146 275l-2 1c-3.111 0-5.553-6.027-7.5-7-9.444-4.722-9.5-25.407-9.5-36v-1c1.473 0 1-1.952 1-3l1-2v-1l2-4 8-8c5.758 0 4.767-2 8-2l-8 8-1 1c-.828 0-4 3.748-4 5l-1 1v1l-1 1v1l-1 2v6c-1.634 0-1.634 11 0 11v2l1 1v1l1 2v1l1 2v1l1 2 1 3 3 3h1c0 1.577 1.762 2 3 2h1l2 6Z"/><path fill="#A7AAA9" id="c" d="M228 215h1v-2h-1v2Z"/><path fill="#FF9BCD" id="MY" d="m310 213 1 1-1-1Z"/><path fill="#FDA4D0" id="SPVC" d="M171 219c0 6.127-3.44 11.38-6 16.5l-5 26c-2.057 4.115-4.43 7.5-9 7.5-4.736 0-4.765-9.03-6-11.5-5.655-11.31-1.336-31.664 7-40 3.473-3.473 19-5.656 19 1.5ZM285 219c0 6.71 5.073 16.646 8 22.5 2.701 5.403.295 13.59 3 19 2.078 4.156 4.793 8.5 10 8.5l3-2.5 3-8c3.199-6.397 1.966-25.068-1-31-3.419-6.837-10.436-17.032-19.5-12.5-1.47.735-6.5 1.53-6.5 4Z"/><path fill="#FDB1D7" id="MDRNd" d="M163 275h2c2.675 0 6.711-8.923 8-11.5 4.437-8.873 26-32.62 26-40.5l-1-2h-1l-1-1h-1l-1-1h-1c-1.238 0-3-.423-3-2h-1c-3.982 0-6.704-2-11-2 0 3.114-4.168 4-7 4 0 6.127-3.44 11.38-6 16.5l-5 26c-2.057 4.115-4.43 7.5-9 7.5l-2 1c0 3.821 3.858 5 7 5h7Z"/><path fill="#FF9BCD" id="MY" fill-rule="evenodd" d="M239 287c0 1.184-5.196 3.108-4 5.5 1.332 2.665 16.558 6.884 18 4l-8.5-9.5H239m-27 0-9 9.5 5 .5c3.962 0 7.256-.378 10.5-2 3.642-1.821 2.52-8-1.5-8h-5m18 8c5.146 0 9.253 1.877 13.5 4 5.148 2.574 23.543-1 29.5-1 2.24 0 14-.165 14-2-9.77 0 6-3.452 6-7h-1c-5.124 0-9.99 9.255-16.5 6-4.818-2.409-6.148-5.796-8.5-10.5-.465-.93-.817-4.5-2-4.5-12.759 0-24.667-24.833-29-33.5-1.428-2.856 2-4.553 2-6.5l-1-3h-7.5c-3.116-1.558.687-14.873 1.5-16.5 1.02-2.04 6-2.424 6-3.5-1.048 0-3 .473-3-1-1.777 0-5 2.985-5-1h-1c-.957 0-5 4.888-5 1l-4 1c0 1.659 5.167.833 6 2.5.734 1.469 5.396 16.052 2.5 17.5H219l-1 3c5.062 0 1.101 11.299 0 13.5-3.853 7.706-17.227 26.5-27 26.5 0 5.561-7.854 18.823-15.5 15-1.389-.695-11.123-7-11.5-7l-1 1c0 1.942 14.771 7 7 7 0 2.161 11.652 2 14 2 5.957 0 24.352 3.574 29.5 1 4.164-2.082 7.402-4 12.5-4v-8c-7.694 0-11.799-4.701-18.5 2l-6 5c-1.066.533-7.431.362-6.5-1.5 2.253-4.505 25-15.43 25-18.5-8.804 0 6.289-17 7-17 0-7.13 2-8.816 2 0 1.131 0 15.291 16 7 16 0 5.007 22.789 14.078 25 18.5 1.409 2.818-3.881 3.309-5.5 2.5l-8-7c-6.06-3.03-11.744-1-17.5-1v9Z"/><path fill="#FDB1D7" id="MDRNd" d="M293 275h7c3.35 0 8-1.064 8-5l-2-1c-5.207 0-7.922-4.344-10-8.5-2.705-5.41-.299-13.597-3-19-2.927-5.854-8-15.79-8-22.5-2.294 0-7-.793-7-4-4.296 0-7.018 2-11 2l-2 1-1 1h-1l-2 1-2 1-2 2c0 5.526 6.115 8.73 8 12.5 4.875 9.75 13.091 18.182 18 28 .935 1.87 5.852 11.5 8 11.5h2Z"/><path fill="#FF9BCD" id="MY" d="m312 215 1 1-1-1ZM212 231l-1 1c-2.088 0-1.756-9-12-9l-1-2c3.428 0 3.884-4 6-4 1.488 0 11-2.505 11 0-11.42 0-3 8.471-3 14ZM245 231l1 1c0-2.354 5.093-8.796 7.5-10l3.5 1 2-2c-2.8 0-6-1.875-6-5-1.057 0-11-.149-11 1 9.38 0 3 9.074 3 14ZM190 217l3 2c-1.238 0-3-.423-3-2Z"/><path fill="#FEB1D7" id="XII" d="M212 231c0 3.056 7 4.691 7 6h8.5c2.896-1.448-1.766-16.031-2.5-17.5-.833-1.667-6-.841-6-2.5h-4c-11.42 0-3 8.471-3 14Z"/><path fill="#FEB1D7" id="XII" d="M245 231c-1.654 0-4.874 6-8 6h-7.5c-3.116-1.558.687-14.873 1.5-16.5 1.02-2.04 6-2.424 6-3.5h5c9.38 0 3 9.074 3 14Z"/><path fill="#FF9BCD" id="MY" d="m267 217-2 1 2-1ZM265 218l-1 1 1-1ZM194 219l1 1-1-1ZM263 219l-2 1 2-1ZM139 220l-1 1 1-1ZM196 220l1 1-1-1ZM261 220l-2 1 2-1ZM131 222c-2.109 0-2 2.535-2 4l2-4Z"/><path fill="#FFB2D8" id="IRN" fill-rule="evenodd" d="M175 267c0 1.602-3.058 2.384-2 4.5 2.536 5.071 11.821-1.839 6.5-4.5H175m7 8c-5.958 0-11.283 1-17 1v-1c2.675 0 6.711-8.923 8-11.5 4.437-8.873 26-32.62 26-40.5 10.244 0 9.912 9 12 9v1l-1 2c-6.601 0-28 33.149-28 40ZM277 267l-2 3.5c4.001 8.002 16.394-3.5 2-3.5m14 8v1c-5.24 0-10.524-1-16-1 0-4.601-14.819-28.319-18.5-32-3.536-3.536-4.245-8-9.5-8l-1-1v-2c0-2.354 5.093-8.796 7.5-10l3.5 1c0 5.526 6.115 8.73 8 12.5 4.875 9.75 13.091 18.182 18 28 .935 1.87 5.852 11.5 8 11.5Z"/><path fill="#FF9BCD" id="MY" d="m321 224 2 2-2-2ZM134 226l-1 1 1-1ZM327 226l1 1-1-1ZM129 227l-1 2 1-2ZM323 227l1 1-1-1ZM133 228l-1 1 1-1ZM328 228l1 2-1-2ZM128 229c-1.473 0-1 1.952-1 3 1.473 0 1-1.952 1-3ZM324 229l1 1-1-1ZM132 230l-1 2 1-2Z"/><path fill="#FFB1D9" id="NR" d="m219 237-1 3-7-5v-3l1-1c0 3.056 7 4.691 7 6ZM237 237l1 3 8-5v-3l-1-1c-1.654 0-4.874 6-8 6Z"/><path fill="#FF9BCD" id="MY" d="M329 232c1.353 0 2 4.643 2 6 0 3.835-.539 21-4 21 0-4.094 1.18-11.86 3-15.5l-1-11.5ZM159 288c0 4.7 10 5.036 10 8-14.722 0-36.127-28.754-42-40.5-2.185-4.371-3.368-14.264-1-19 .523-1.046-.951-3.5 1-3.5 0 10.593.056 31.278 9.5 36 1.947.973 4.389 7 7.5 7l9.5 11 3.5-1 2 2ZM210 235h1v-2l-1 2ZM246 235h1l-1-1v1Z"/><path fill="#FFB1D6" id="MDRNv" d="M182 275c3.641 0 9 .042 9 5 9.773 0 23.147-18.794 27-26.5 1.101-2.201 5.062-13.5 0-13.5l-7-5h-1c-6.601 0-28 33.149-28 40ZM275 275c-3.66 0-10 .102-10 5-12.759 0-24.667-24.833-29-33.5-1.428-2.856 2-4.553 2-6.5l8-5h1c5.255 0 5.964 4.464 9.5 8 3.681 3.681 18.5 27.399 18.5 32Z"/><path fill="#FF9BCD" id="MY" d="M131 238c-1.634 0-1.634 11 0 11v-11ZM326 241c1.587 0 1.587 6 0 6v-6ZM326 247c-1.473 0-1 1.952-1 3 1.473 0 1-1.952 1-3Z"/><path fill="#FEC6E2" id="RO" d="M229 263v1l-2-1v-6c0-7.13 2-8.816 2 0v6Z"/><path fill="#FF9BCD" id="MY" d="m131 251 1 1-1-1ZM132 253l1 2-1-2ZM325 253l-1 1 1-1ZM324 255l-1 1 1-1ZM133 256l1 2-1-2Z"/><path fill="#C8C8CC" id="tspc" d="m221 273-1 1c-8.804 0 6.289-17 7-17v6c-3.324 0-3.28 10-6 10ZM230 263c2.578 0 2.56 10 6 10 8.291 0-5.869-16-7-16v5l1 1Z"/><path fill="#FF9BCD" id="MY" d="m323 257-1 2 1-2ZM134 259l1 2-1-2ZM327 259l-4 8c2.447 0 4-6.063 4-8ZM322 260l-1 2 1-2ZM229 263h1l-1-1v1Z"/><path fill="#FFB3D8" id="IO" d="m227 286-1 1c-7.694 0-11.799-4.701-18.5 2l-6 5c-1.066.533-7.431.362-6.5-1.5 2.253-4.505 25-15.43 25-18.5l1-1c2.72 0 2.676-10 6-10v23Z"/><path fill="#FF9BCD" id="MY" d="m229 277-2 2v-16l2 1v13Z"/><path fill="#FFB3D8" id="IO" d="M229 277c0 3.013 1 6.611 1 9 5.756 0 11.44-2.03 17.5 1l8 7c1.619.809 6.909.318 5.5-2.5-2.211-4.422-25-13.493-25-18.5-3.44 0-3.422-10-6-10h-1v14Z"/><path fill="#FF9BCD" id="MY" d="m136 264 3 3-3-3ZM319 266l-1 1 1-1ZM140 267l3 2c-1.238 0-3-.423-3-2Z"/><path fill="#FF9BCD" id="MY" fill-rule="evenodd" d="m177 268-2 1.5c-2.215 4.43 9.284-1.5 2-1.5m-2-1c0 1.602-3.058 2.384-2 4.5 2.536 5.071 11.821-1.839 6.5-4.5H175ZM278 268c0 6.616 5.678 0 0 0m-1-1-2 3.5c4.001 8.002 16.394-3.5 2-3.5Z"/><path fill="#FF9BCD" id="MY" d="m317 267-1 1 1-1ZM323 267l-2 2c1.747 0 2-.253 2-2Z"/><path fill="#FEB3D8" id="AMBv" d="m177 268-2 1.5c-2.215 4.43 9.284-1.5 2-1.5ZM278 268c0 6.616 5.678 0 0 0Z"/><path fill="#FF9BCD" id="MY" d="m315 268-1 1 1-1ZM153 279h2l1-4c-3.142 0-7-1.179-7-5l-5-1 2 6c3.313 0 4.49 4 7 4ZM301 279h2c2.747 0 4.56-4 8-4l1-6-4 1c0 3.936-4.65 5-8 5l1 4ZM321 269l-6 6c2.473 0 6-3.527 6-6ZM221 273l-1 1 1-1Z"/><path fill="#C9CACA" id="sctd" d="m153 279 4 7-3.5 1-9.5-11 2-1c3.313 0 4.49 4 7 4Z"/><path fill="#FCB3D7" id="LRNm" d="M191 280c0 5.561-7.854 18.823-15.5 15-1.389-.695-11.123-7-11.5-7l-9-9 1-4h7l2 1c5.717 0 11.042-1 17-1 3.641 0 9 .042 9 5Z"/><path fill="#FF9BCD" id="MY" d="M165 275v1l-2-1h2Z"/><path fill="#FCB3D7" id="LRNm" d="M265 280c1.183 0 1.535 3.57 2 4.5 2.352 4.704 3.682 8.091 8.5 10.5 6.51 3.255 11.376-6 16.5-6l9-10-1-4h-7l-2 1c-5.24 0-10.524-1-16-1-3.66 0-10 .102-10 5Z"/><path fill="#FF9BCD" id="MY" d="m293 275-2 1v-1h2Z"/><path fill="#C9CACA" id="sctd" d="m305 285-2 2c-1.238 0-3-.423-3-2l3-6c2.747 0 4.56-4 8-4l1 1-1 3c-2.226 0-4 1.774-4 4l-2 2Z"/><path fill="#FF9BCD" id="MY" d="m312 276-1 3c1.797 0 4-2.203 4-4l-3 1Z"/><path fill="#FFC6E2" id="RPA" d="M226 295h4v-9c0-2.389-1-5.987-1-9l-2 2v7l-1 1v8Z"/><path fill="#C8C8CB" id="rust" d="m164 288-1 1-4-1-2-2-4-7h2l9 9ZM292 289h1l4-1 3-3 3-6h-2l-9 10Z"/><path fill="#FF9BCD" id="MY" d="M311 279c-2.226 0-4 1.774-4 4 1.797 0 4-2.203 4-4ZM307 283l-2 2c1.747 0 2-.253 2-2ZM297 288c3.596 0-7 6.343-7 7 2.816 0 13-4.524 13-8-1.238 0-3-.423-3-2l-3 3ZM305 285l-2 2c1.747 0 2-.253 2-2ZM227 286l-1 1 1-1Z"/><path fill="#C7C9C9" id="py" d="m212 287-9 9.5 5 .5c3.962 0 7.256-.378 10.5-2 3.642-1.821 2.52-8-1.5-8h-5ZM239 287c0 1.184-5.196 3.108-4 5.5 1.332 2.665 16.558 6.884 18 4l-8.5-9.5H239Z"/><path fill="#CBC7CC" id="sctv" d="M169 296h1c7.771 0-7-5.058-7-7l-4-1c0 4.7 10 5.036 10 8ZM289 295h1c0-.657 10.596-7 7-7l-4 1c0 3.548-15.77 7-6 7l2-1Z"/><path fill="#FF9BCD" id="MY" d="m289 295-2 1 2-1Z"/></svg>