<svg xmlns="http://www.w3.org/2000/svg" viewBox="0 0 456 320"><path fill="#1BA696" id="RSPagl1" d="m188 15-13 2-1-5c0-.27 11.818-3 13-3l1 6Z"/><path fill="#1BA598" id="RSPd1" d="m221 20-2 1-4.5-4-8-4c-5.457-2.729-14.016 2-18.5 2l-1-6c8.433 0 34-1.191 34 11ZM237 22h1c0-2.224 2.386-2.272 3-3.5 2.241-4.483 17.521-8.49 23.5-5.5l4.5 2V9c-8.701 0-34-.71-34 12l2 1Z"/><path fill="#1BA696" id="RSPagl1" d="m269 15 13 2 1-5-14-3v6Z"/><path fill="#09848B" id="VISam1" d="M168 18h1c0-1.684 4.679-1 6-1l-1-5-8 1 2 5ZM282 17l7 1v-5l-6-1-1 5Z"/><path fill="#019FAC" id="VISa1" d="m116 28 2 5c4.579 0 11.438-4.969 15.5-7 7.421-3.71 25.737-8 34.5-8l-2-5c-8.566 0-28.994 6.247-36.5 10-1.96.98-13.5 2.622-13.5 5Z"/><path fill="#1BA697" id="RSPd2/3" d="M214 26h1c0-1.712 2.571-3 4-3v-2l-4.5-4-8-4c-5.457-2.729-14.016 2-18.5 2v7c4.088 0 26-3.787 26 4ZM241 26h1c0-7.597 21.919-4 26-4l1-7-4.5-2c-5.979-2.99-21.259 1.017-23.5 5.5-.614 1.228-3 1.276-3 3.5l3 4Z"/><path fill="#019FAC" id="VISa1" d="m340 28-2 5-15.5-7c-7.306-3.653-24.902-8-33.5-8v-5c10.687 0 29.344 5.422 38.5 10 1.965.983 12.5 2.381 12.5 5Z"/><path fill="#1AA496" id="RSPagl2/3" d="m175 25 1 2c3.933 0 7.365-4 12-4v-8l-13 2v8ZM281 25v2c-4.295 0-7.994-4-13-4v-1l1-7 13 2-1 8Z"/><path fill="#0B848A" id="VISam2/3" d="M175 25c0 1.473-1.952 1-3 1 0-2.7-3-4.762-3-8 0-1.684 4.679-1 6-1v8ZM281 25l4 1c0-3.137 4-5.591 4-8l-7-1-1 8Z"/><path fill="#009EAB" id="VISa2/3" d="m118 33 4 8c4.197 0 7.052-2.276 10.5-4 4.082-2.041 35.292-11 39.5-11 0-2.7-3-4.762-3-8h-1c-8.763 0-27.079 4.29-34.5 8-4.062 2.031-10.921 7-15.5 7ZM338 33c0 3.391-3 5.353-3 9l-8.5-4c-6.444-3.222-34.063-11-41.5-11v-1c0-3.137 4-5.591 4-8 8.598 0 26.194 4.347 33.5 8l15.5 7Z"/><path fill="#1BA597" id="RSPv1" d="M230 65h2V31.5l5-9.5-2-1-6.5 9-7.5-10-2 1v2c3.016 0 4.071 7.643 5 9.5 1.323 2.645 1 27.505 1 32.5h2c0-6.862 3-5.773 3 0Z"/><path fill="#1AA596" id="RSPd5" d="M207 34c-2.935 0-6.006-5.247-10.5-3-1.689.845-6.846 4-8.5 4V22c4.088 0 26-3.787 26 4l-7 8ZM250 35c0-9.832 16.105 0 18 0V22c-4.081 0-26-3.597-26 4 0 3.218 7 5.402 7 9h1Z"/><path fill="#1AA597" id="RSPv2/3" d="M236 64c0 1.58-2.855 1-4 1V31.5l5-9.5h1l3 4c0 3.554-2.346 12.192-4 15.5L236 64Z"/><path fill="#1CA697" id="RSPagl5" d="M177 37v2l11-4V23c-4.635 0-8.067 4-12 4 0 3.51 1 7.022 1 10Z"/><path fill="#1AA597" id="RSPv2/3" d="M221 64c0 1.58 2.855 1 4 1 0-4.995.323-29.855-1-32.5-.929-1.857-1.984-9.5-5-9.5-1.429 0-4 1.288-4 3 0 2.63 2.758 9.017 4 11.5v15c1.369 2.738 2 8.42 2 11.5Z"/><path fill="#1CA697" id="RSPagl5" d="M279 39h1v-2l1-10c-4.295 0-7.994-4-13-4v12l11 4Z"/><path fill="#09858A" id="VISam4" d="M172 28h1l3-1-1-2c0 1.473-1.952 1-3 1v2ZM285 27l-1 1-3-1v-2l4 1v1Z"/><path fill="#019EAC" id="VISa4" d="m123 45 2 2c2.916 0 12.412-6.456 15.5-8l21-7c1.659-.83 10.5-2.098 10.5-4v-2c-4.208 0-35.418 8.959-39.5 11-3.448 1.724-6.303 4-10.5 4v1l1 3Z"/><path fill="#1BA498" id="RSPv5" d="M218 64h3c0-3.08-.631-8.762-2-11.5v-15c-1.242-2.483-4-8.87-4-11.5h-1l-7 8v2l4 20.5 2 2.5 5 5ZM236 64h2l5-4 1-1c0-7.365 5-14.866 5-24 0-3.598-7-5.782-7-9h-1c0 3.554-2.346 12.192-4 15.5L236 64Z"/><path fill="#0A848B" id="VISam5" d="M173 28c0 2.08 1.934 9 4 9 0-2.978-1-6.49-1-10l-3 1ZM284 28c0 1.227-3.226 9-4 9l1-10 3 1Z"/><path fill="#019EAC" id="VISa4" d="M331 47h1l1-2 1-1 1-1v-1l-8.5-4c-6.444-3.222-34.063-11-41.5-11l-1 1 35.5 13 11.5 6Z"/><path fill="#029FAB" id="VISrl1" d="m118 33-3 1-3-4 4-2 2 5Z"/><path fill="#019EAB" id="VISa5" d="M129 55h1l11.5-6c5.575-2.787 29.447-10 35.5-10v-2c-2.066 0-4-6.92-4-9h-1c0 1.902-8.841 3.17-10.5 4l-21 7c-3.088 1.544-12.584 8-15.5 8v1c0 2.757 4 4.081 4 7ZM326 55h1l4-8-11.5-6L284 28c0 1.227-3.226 9-4 9v2c7.647 0 28.509 7.505 35.5 11 1.746.873 9.5 2.53 9.5 5h1Z"/><path fill="#029FAB" id="VISrl1" d="M341 34h1l2-5-4-1-2 5 3 1Z"/><path fill="#188060" id="SSp-bfd1" d="M394 65c-1.481 0-.785 2-3 2-2.561 0-22.577-19.538-27.5-22l-17-9c-1.029-1.029-4.5-.64-4.5-2l2-5c2.945 0 7.797 4.648 10.5 6 7.796 3.898 25.034 12.568 28.5 19.5L394 65ZM62 65l3 3c1.644 0 9.871-10.686 12.5-12 8.997-4.499 28.21-22 37.5-22l-3-4c-9.531 0-25.585 15.542-34.5 20l-5 5L62 65Z"/><path fill="#1AA697" id="RSPd6a" d="M200 45c-4.526 0-8.084 1-11 1l-1-11c1.654 0 6.811-3.155 8.5-4 4.494-2.247 7.565 3 10.5 3v2l-7 9ZM257 46c0-4.292 8.497 0 10 0l1-11c-1.895 0-18-9.832-18 0 0 3.827 6 6.958 6 11h1Z"/><path fill="#029EAC" id="VISrl2/3" d="M121 42h1v-1l-4-8-3 1 6 8ZM335 42h1c0-2.74 5-4.77 5-8l-3-1c0 3.391-3 5.353-3 9Z"/><path fill="#187F63" id="SSp-bfd2/3" d="M65 69c3.576 0 3.389 7 7 7 0-2.636 6.185-5.87 7-7.5 3.084-6.168 34.568-26.5 42-26.5l-6-8c-9.29 0-28.503 17.501-37.5 22-2.629 1.314-10.856 12-12.5 12v1ZM391 69l-6 7-10.5-11c-6.971-3.486-29.772-23-38.5-23 0-2.74 5-4.77 5-8h1c0 1.36 3.471.971 4.5 2l17 9c4.923 2.462 24.939 22 27.5 22v2Z"/><path fill="#1CA597" id="RSPagl6a" d="M187 47c-3.013 0-6.611 1-9 1l-1-9 11-4 1 11-2 1Z"/><path fill="#1AA498" id="RSPv6a" d="m247 56-3 3c0-7.365 5-14.866 5-24h1c0 3.827 6 6.958 6 11-1.712 0-3 2.571-3 4l-1 1-5 5Z"/><path fill="#1CA597" id="RSPagl6a" d="M267 46c3.492 0 7.709 2 11 2l1-9-11-4-1 11Z"/><path fill="#1AA498" id="RSPv6a" d="M209 56c0 1.712 2.571 3 4 3l-2-2.5-4-20.5-7 9v1c2.134 0 9 7.572 9 10Z"/><path fill="#009DAC" id="VISa6a" d="M140 58h2c0-2.353 16.146-7 19-7 0-2.884 14.13-3 17-3l-1-9c-6.053 0-29.925 7.213-35.5 10L130 55v1l10 2ZM314 57h1c.878 0 10 .955 10-2 0-2.47-7.754-4.127-9.5-5-6.991-3.495-27.853-11-35.5-11h-1l-1 9c8.891 0 18.114 1.307 25.5 5 1.568.784 9.5 1.924 9.5 4h1Z"/><path fill="#197C64" id="SSp-bfd4" d="m72 77 5 6c3.451 0 6.498-7 8.5-8 8.252-4.126 31.72-27 39.5-27v-1l-2-2-2-3c-7.432 0-38.916 20.332-42 26.5-.815 1.63-7 4.864-7 7.5v1Z"/><path fill="#019EAA" id="VISrl4" d="m122 42 1 3-2-3h1ZM336 42l-1 1v-1h1Z"/><path fill="#197C64" id="SSp-bfd4" d="M379 83h1c0-1.987 3.223-6 5-6v-1l-10.5-11c-6.971-3.486-29.772-23-38.5-23l-1 1-1 1c2.029 0 .058 1-1 1l-1 2c0 3.025 10.296 6.898 12.5 8 7.19 3.595 20.941 14.941 26.5 20.5l8 7.5Z"/><path fill="#1BA698" id="RSPd6b" d="m189 47 7.5-2 3.5 2v-2c-4.526 0-8.084 1-11 1v1ZM257 47l4.5-2 5.5 2v-1c-1.503 0-10-4.292-10 0v1Z"/><path fill="#019EAA" id="VISrl4" d="M334 44c2.029 0 .058 1-1 1l1-1Z"/><path fill="#CACCC7" id="cing" d="m213 59 5 5c-9.452 0-18.536-8.018-26.5-12-7.696-3.848-21.074 2-29.5 2l-2-1 1-2c6.229 0 10.664-2 17-2 1.923 0 9 .156 9-2h2l7.5-2 3.5 2 9 9c0 1.712 2.571 3 4 3ZM243 60l-5 4c9.93 0 18.22-7.86 26.5-12 7.912-3.956 21.817 2 30.5 2l2-1c0-2.19-15.715-4-19-4-4.393 0-7.089-2-11-2l-5.5-2-4.5 2-4 3-1 1c0 2.362-2.638 5-5 5l-3 3-1 1Z"/><path fill="#1AA598" id="RSPagl6b" d="M187 47h2v-1l-2 1Z"/><path fill="#1AA497" id="RSPv6b" d="m200 47 9 9c0-2.428-6.866-10-9-10v1ZM257 47l-4 3c0-1.429 1.288-4 3-4h1v1Z"/><path fill="#1AA598" id="RSPagl6b" d="M278 48v1c-4.393 0-7.089-2-11-2v-1c3.492 0 7.709 2 11 2ZM178 48v1c1.923 0 9 .156 9-2-3.013 0-6.611 1-9 1Z"/><path fill="#1A7D62" id="SSp-bfd5" d="M379 83c0 1.631-4.984 8-6 8l-12-12.5c-3.674-3.674-30.163-23.5-34-23.5l4-8h1c0 3.025 10.296 6.898 12.5 8 7.19 3.595 20.941 14.941 26.5 20.5l8 7.5ZM83 91h1l9.5-11c7.087-7.088 16.92-14.46 26-19l9.5-6c0-2.919-4-4.243-4-7-7.78 0-31.248 22.874-39.5 27-2.002 1-5.049 8-8.5 8v1l6 7Z"/><path fill="#029FAC" id="VISa6b" d="M178 49c-6.336 0-10.771 2-17 2 0-2.884 14.13-3 17-3v1ZM313 57v1c-5.381 0-9.937-5-16-5 0-2.19-15.715-4-19-4v-1c8.891 0 18.114 1.307 25.5 5 1.568.784 9.5 1.924 9.5 4Z"/><path fill="#1AA497" id="RSPv6b" d="m253 50-1 1 1-1Z"/><path fill="#029FAC" id="VISa6b" d="M142 58h1c5.896 0 10.441-5 17-5l1-2c-2.854 0-19 4.647-19 7Z"/><path fill="#C7CACC" id="ccs" d="M361 117h1c0-12.065-15.589-36.044-27.5-42-1.97-.985-18.5-11.95-18.5-13-5.523 0-15.164-8-21-8-8.683 0-22.588-5.956-30.5-2-8.28 4.14-16.57 12-26.5 12h-2c0 1.58-2.855 1-4 1h-7c-1.145 0-4 .58-4-1h-3c-9.452 0-18.536-8.018-26.5-12-7.696-3.848-21.074 2-29.5 2-6.395 0-15.635 8-21 8l-16.5 11-6 6C106.632 84.934 95 103.163 95 116c1.179 0 6.13-15 10-15l1-1 3-4c0-1.238.423-3 2-3 0-3.881 16.119-20 20-20 0-3.168 9.558-8 12-8 0-3.003 8.563-4.031 10.5-5 6.655-3.328 22.266-6.867 30-3 1.77.885 9.5 2.372 9.5 5 6.269 0 9.321 6.41 14.5 9 6.258 3.129 13.848 2.924 20 6l2-1 13-2c4.128-2.064 14.747-11 18.5-11l2-1h1l1-1 2-1 2-1c0-3.82 23.545-3.478 26.5-2 14.61 7.305 38.18 14.86 45.5 29.5 2.187 4.375 10 9.52 10 14.5 4.018 0 10 12.994 10 16Z"/><path fill="#1AA497" id="RSPv6b" d="m252 51-5 5c2.362 0 5-2.638 5-5Z"/><path fill="#C9C9CA" id="scwm" d="m140 61 1 1c5.365 0 14.605-8 21-8l-2-1c-6.559 0-11.104 5-17 5l-3 3ZM317 61l-1 1c-5.523 0-15.164-8-21-8l2-1c6.063 0 10.619 5 16 5l4 3Z"/><path fill="#198060" id="SSp-bfd6a" d="M90 101h1c0-1.875 14.7-18 16-18 0-1.365 2.366-4 4-4 0-2.683 7.825-8 10-8 0-2.397 10.035-9 12-9l-3-6v-1h-1l-9.5 6c-9.08 4.54-18.913 11.912-26 19L84 91c0 4.278 6 5.895 6 10Z"/><path fill="#188063" id="SSp-tr6a" d="M323 62h1c0-2.72 2-3.553 2-6v-1h-1c0 2.955-9.122 2-10 2v1l8 4Z"/><path fill="#009DAC" id="VISa6a" d="m327 55-1 1v-1h1Z"/><path fill="#198060" id="SSp-bfd6a" d="M365 101h1l7-9v-1l-12-12.5c-3.674-3.674-30.163-23.5-34-23.5l-1 1c0 2.447-2 3.28-2 6l10.5 7c8.66 4.33 15.607 14.607 22.5 21.5 2.707 2.707 8 6.698 8 10.5Z"/><path fill="#188063" id="SSp-tr6a" d="m140 58-7 4-3-6 10 2Z"/><path fill="#C7C8CC" id="alv" d="m193 63-5.5-4c-3.239-1.62-14.908-4.046-19-2-2.889 1.444-22.957 8-25.5 8 0-3.003 8.563-4.031 10.5-5 6.655-3.328 22.266-6.867 30-3 1.77.885 9.5 2.372 9.5 5v1ZM327 117c2.84 0 6.715 3 10 3 6.683 0 14 1.996 14-8v-11c0-4.98-7.813-10.125-10-14.5-7.32-14.64-30.89-22.195-45.5-29.5-2.955-1.478-26.5-1.82-26.5 2 5.034 0 13.795-4.853 19.5-2l20 6c6.786 3.393 12.114 9.557 19 13 3.01 1.505 15.5 12.826 15.5 15l2 4c6.271 0 6.792 19.354-.5 23-6.931 3.465-22.712-3.856-29-7l-15.5-1v1h2c1.235 0 5-.643 5 1 2.198 0 12-.238 12 2l8 3Z"/><path fill="#7ECF4B" id="CA1" d="M212 101h1l1-1c1.658 0 3-1.46 3-3 0-3.033 4-6.517 4-12l-4-4h-1l-2-2h-1l-2-2h-1l-2-2h-1c-2.168 0-13-9.594-13-12h-1l-5.5-4c-3.239-1.62-14.908-4.046-19-2-2.889 1.444-22.957 8-25.5 8 0 1.933-10.099 8-12 8 0 3.709-17 12.25-17 18h29l19.5-10c11.211-5.605 26.233 7.617 35 12 1.943.971 13.5 4.896 13.5 7l1 1ZM242 100l2 1 9.5-6c10.224-5.112 20.904-9.952 31-15 6.603-3.302 24.375 11 28.5 11h30c0-2.174-12.49-13.495-15.5-15-6.886-3.443-12.214-9.607-19-13l-20-6c-5.705-2.853-14.466 2-19.5 2l-2 1-2 1-1 1-1 1-2 2h-1l-1 1-1 1-1 1-1 1-1 1-1 1-1 1c0 1.712-2.571 3-4 3l-2 1-1 1-1 1-2 1-1 1-2 1-1 1-2 1c0 1.747-.253 2-2 2 0 4.977 4 7.793 4 12l3 3Z"/><path fill="#1A8063" id="SSp-tr6b" d="M323 62v1l-6-2-4-3v-1h1l1 1 8 4Z"/><path fill="#029FAC" id="VISa6b" d="M315 57v1l-1-1h1Z"/><path fill="#1A8063" id="SSp-tr6b" d="M133 62v1l7-2 3-3h-3l-7 4Z"/><path fill="#1AA498" id="RSPv6a" d="m244 59-1 1 1-1Z"/><path fill="#C7C8CC" id="alv" d="m269 59-2 1 2-1ZM267 60l-2 1 2-1Z"/><path fill="#CBC9C7" id="or" d="M82 125c0 2.124 1 4.436 1 6 4.462 0 6.2-14 12-14v-1c0-12.837 11.632-31.066 23.5-37l6-6L141 62l-1-1-7 2c0 1.933-10.099 8-12 8 0 1.872-7.657 8-10 8 0 2.226-1.774 4-4 4 0 5.709-9.552 9.603-12 14.5l-4 5.5-3 5-1 1v1l-1 1-1 2-3 12Z"/><path fill="#C7C8CC" id="alv" d="m265 61-1 1 1-1Z"/><path fill="#CBC9C7" id="or" d="m375 127-2 4-4-6.5-7-7.5c0-12.065-15.589-36.044-27.5-42-1.97-.985-18.5-11.95-18.5-13l1-1 6 2 21.5 16 20.5 23 4 7c0 1.238.423 3 2 3v1l4 14Z"/><path fill="#1A7E61" id="SSp-bfd6b" d="M133 63c0 1.933-10.099 8-12 8 0-2.397 10.035-9 12-9v1Z"/><path fill="#C9CCC9" id="dhc" d="M229 84h6l2-1 2-1 1-1 2-1 1-1 2-1 1-1 1-1 2-1c0-1.712 2.571-3 4-3l1-1 1-1 1-1 1-1 1-1 1-1 1-1h1v-2c-3.753 0-14.372 8.936-18.5 11l-13 2-2 1c-6.152-3.076-13.742-2.871-20-6-5.179-2.59-8.231-9-14.5-9v1h1l13 12h1l2 2h1l2 2h1l2 2h1l5 3h5c0-1.4 2-1.4 2 0ZM261 63h2v-1l-2 1Z"/><path fill="#C7C8CC" id="alv" d="m264 62-1 1v-1h1Z"/><path fill="#1A7E61" id="SSp-bfd6b" d="M365 101v1l-20.5-23L323 63v-1h1l10.5 7c8.66 4.33 15.607 14.607 22.5 21.5 2.707 2.707 8 6.698 8 10.5Z"/><path fill="#C7C8CC" id="alv" d="m194 63 13 12c-2.168 0-13-9.594-13-12ZM263 63l-2 2v-2h2Z"/><path fill="#1A7E62" id="SSs1" d="M44 87c1.434 0 1.178 4 4 4 0-1.696 15.02-22 17-22v-1l-3-3c-1.34 0-18 20.728-18 22Z"/><path fill="#C7C8CC" id="alv" d="M143 65c-2.442 0-12 4.832-12 8 1.901 0 12-6.067 12-8ZM260 65l-1 1 1-1Z"/><path fill="#1A7E62" id="SSs1" d="M412 87c-1.946 0 .342 1.159-.5 2l-2.5 2c-2.326 0-12.705-22-18-22v-2c2.215 0 1.519-2 3-2 1.889 0 18 20.002 18 22Z"/><path fill="#C7C8CC" id="alv" d="m259 66-1 1 1-1ZM258 67l-1 1 1-1ZM257 68l-1 1 1-1Z"/><path fill="#1B8063" id="SSs2/3" d="M48 92c3.219 0 5.542 7 8 7 1.828 0 12.896-22 16-22v-1c-3.611 0-3.424-7-7-7-1.98 0-17 20.304-17 22v1Z"/><path fill="#C7C8CC" id="alv" d="m256 69-1 1 1-1Z"/><path fill="#1B8063" id="SSs2/3" d="M409 92c-4.945 0-4.574 7-9 7-.419 0-13.095-22-15-22v-1l6-7c5.295 0 15.674 22 18 22v1Z"/><path fill="#C7C8CC" id="alv" d="m255 70-1 1 1-1Z"/><path fill="#1A7E61" id="SSp-bfd6b" d="M121 71c-2.175 0-10 5.317-10 8 2.343 0 10-6.128 10-8Z"/><path fill="#C7C8CC" id="alv" d="m254 71-1 1 1-1ZM253 72c-1.429 0-4 1.288-4 3 1.429 0 4-1.288 4-3ZM114 91l-3 2c0-3.881 16.119-20 20-20 0 3.709-17 12.25-17 18ZM208 75l2 2-2-2ZM249 75l-2 1 2-1Z"/><path fill="#187C63" id="SSs4" d="M59 104h1c0-2.06 15.33-20 17-20v-1l-5-6c-3.104 0-14.172 22-16 22v2l3 3Z"/><path fill="#C7C8CC" id="alv" d="m211 77 2 2-2-2ZM246 77l-1 1 1-1Z"/><path fill="#187C63" id="SSs4" d="M400 100c0 1.658-1.461 3-3 3-1.913 0-10.465-12.965-12.5-15l-4.5-5c0-1.987 3.223-6 5-6 1.905 0 14.581 22 15 22v1Z"/><path fill="#C7C8CC" id="alv" d="m245 78-2 1 2-1Z"/><path fill="#1A7E61" id="SSp-bfd6b" d="M111 79c-1.634 0-4 2.635-4 4 2.226 0 4-1.774 4-4Z"/><path fill="#C7C8CC" id="alv" d="m214 79 2 2-2-2ZM243 79l-1 1 1-1Z"/><path fill="#7BD04A" id="DG-mo" d="M205 115h1c0-1.577 1.762-2 3-2l1-1 1-2 1-1 1-1v-7h-1l-1-1c0-2.104-11.557-6.029-13.5-7-8.767-4.383-23.789-17.605-35-12L143 91l-1 4c1.718 0 4.558 4 8 4 0-3.943 9.23-4.865 11.5-6 12.928-6.464 19.806.403 31 6 4.125 2.062 9.982.991 14 3 7.25 3.625-3.818 11.091-8 9-4.949-2.474-13.305-6-19-6l-6-1c-3.155 1.578-7.786 3-11.5 3l-3 3 2 1 16 1 1 1h5l2 1h3l1 1h3c3.531 0 7.893 1 12 1l1-1ZM262 116h1l1-1h4l1-1h2l2-1h5l1-1 17-1 1-1v-1l-2-2c-6.252 0-11.205-2-18-2-5.9 0-13.433 3.466-18.5 6-4.635 2.317-14.462-5.769-10-8l11-2c12.192-6.096 21.764-15.118 36-8 2.659 1.33 10.5 2.524 10.5 6 2.061 0 8-1.056 8-4l-1-4c-4.125 0-21.897-14.302-28.5-11-10.096 5.048-20.776 9.888-31 15l-9.5 6-1 1c0 3.138 2 5.662 2 8l1 1 1 1v1c1.238 0 3 .423 3 2h1c3.249 0 7.194 1 11 1Z"/><path fill="#C7C8CC" id="alv" d="m222 84-1 1-4-4 5 3ZM240 81l-1 1 1-1ZM239 82l-2 1 2-1Z"/><path fill="#1A7E61" id="SSp-bfd6b" d="M91 101v2l4-5.5c2.448-4.897 12-8.791 12-14.5-1.3 0-16 16.125-16 18Z"/><path fill="#C7C8CC" id="alv" d="M235 84v1c1.747 0 2-.253 2-2l-2 1Z"/><path fill="#1C8063" id="SSs5" d="M397 105c-4.38 0-5.783 10-9 10 0-4.082-15-21.603-15-23v-1c1.016 0 6-6.369 6-8h1l4.5 5c2.035 2.035 10.587 15 12.5 15v2ZM68 115h1c0-7.715 14-17.189 14-24l-6-7c-1.67 0-17 17.94-17 20 0 4.192 8 6.106 8 11Z"/><path fill="#7ECD4A" id="FC" d="M225 90c-2.127 0-4.367 7-8 7 0-3.033 4-6.517 4-12l1-1h5l-1 5-1 1ZM235 85c0 4.977 4 7.793 4 12-3.88 0-10-9.259-10-13h6v1Z"/><path fill="#039399" id="AUDd1" d="m30 115 5 1c.617 0 11.63-24 13-24v-1c-2.822 0-2.566-4-4-4 0 2.437-14 21.926-14 28ZM426 115l-5 1-12-24v-1l2.5-2c.842-.841-1.446-2 .5-2 2.071 0 14 24.452 14 28Z"/><path fill="#A8A9AA" id="V3" d="M223 95c3.83 0 2.243 3.871 4.5 5 2.074 1.037 3.158-5 5.5-5 0-4.764-4.156-6-7-6l-1 1c0 2.25-2 3.376-2 5Z"/><path fill="#65A83D" id="DG-sg" d="M169 102c-1.884 0-7 2.575-7 5 3.714 0 8.345-1.422 11.5-3l6 1c5.695 0 14.051 3.526 19 6 4.182 2.091 15.25-5.375 8-9-4.018-2.009-9.875-.938-14-3-11.194-5.597-18.072-12.464-31-6-2.27 1.135-11.5 2.057-11.5 6h5c0-2.059 9.797-3.149 11.5-4 7.522-3.761 16.774 2.887 23 6l6.5 3.5-3.5.5c-3.389-1.694-7.713-1.357-11-3-3.231-1.616-7.637-1-11.5-1l-1 1ZM286 101c1.549 0 9 4.672 9 6-6.252 0-11.205-2-18-2-5.9 0-13.433 3.466-18.5 6-4.635 2.317-14.462-5.769-10-8l11-2c12.192-6.096 21.764-15.118 36-8 2.659 1.33 10.5 2.524 10.5 6h-5c0-2.442-9.711-3.105-11.5-4-7.641-3.82-15.753 2.877-22 6-.986.493-7.5 1.921-7.5 3.5l4.5.5c3.389-1.694 7.713-1.357 11-3 3.018-1.509 6.882-1 10.5-1Z"/><path fill="#197D63" id="SSs6a" d="M75 128h1c0-8.238 14-22.134 14-27 0-4.105-6-5.722-6-10h-1c0 6.811-14 16.285-14 24 0 4.069 6 7.264 6 13Z"/><path fill="#7DCF4B" id="CA2" d="M111 95h31l1-4h-29l-3 2v2ZM314 95h31l-2-4h-30l1 4Z"/><path fill="#029397" id="AUDd2/3" d="m35 117 10 3c0-4.571 6.006-9.513 8-13.5l3-5.5v-2c-2.458 0-4.781-7-8-7-1.37 0-12.383 24-13 24v1Z"/><path fill="#197D63" id="SSs6a" d="M388 115c-2.123 0-1 3.075-1 3.5h-2l-2 3c-.584 1.167.047 5.5-2 5.5-1.622 0-5.13-10.76-6-12.5l-9-13.5 7-9c0 1.397 15 18.918 15 23Z"/><path fill="#029397" id="AUDd2/3" d="M411 120h1l9-3v-1l-12-24c-4.945 0-4.574 7-9 7v1l3 4.5c2.058 4.116 8 10.815 8 15.5Z"/><path fill="#C7C8CC" id="alv" d="m111 95-2 1c0-1.238.423-3 2-3v2Z"/><path fill="#7ECF49" id="CA3" d="M141 112c-1.145 0-4-.579-4 1-6.859 0-23.38 11.739-28 2.5-1.006-2.013-4.396-5.208-3-8 1.171-2.342 3-9.092 3-11.5l2-1h31c1.718 0 4.558 4 8 4h5c2.556 0 15-1.382 15 2l-1 1c-1.884 0-7 2.575-7 5l-3 3h-2c-1.406 0-7-.714-7 1h-1c-1.49 0-8-.735-8 1Z"/><path fill="#7ECE4A" id="DG-po" d="M155 99c2.556 0 15-1.382 15 2 3.863 0 8.269-.616 11.5 1 3.287 1.643 7.611 1.306 11 3l3.5-.5-6.5-3.5c-6.226-3.113-15.478-9.761-23-6-1.703.851-11.5 1.941-11.5 4ZM301 99c-2.556 0-15-1.382-15 2-3.618 0-7.482-.509-10.5 1-3.287 1.643-7.611 1.306-11 3l-4.5-.5c0-1.579 6.514-3.007 7.5-3.5 6.247-3.123 14.359-9.82 22-6 1.789.895 11.5 1.558 11.5 4Z"/><path fill="#7ECF49" id="CA3" d="M298 110h2l15.5 1c6.288 3.144 22.069 10.465 29 7 7.292-3.646 6.771-23 .5-23h-31c0 2.944-5.939 4-8 4h-5c-2.556 0-15-1.382-15 2 1.549 0 9 4.672 9 6l2 2 1 1Z"/><path fill="#A8A9AA" id="V3" d="m223 95-1 1 1-1Z"/><path fill="#A9AAA8" id="chpl" d="M220 101c0 3.182 4.503 13.499 9.5 11l7.5-8c0-2.124-1-4.436-1-6l-1-1v-1l-1-1h-1c-2.342 0-3.426 6.037-5.5 5-2.257-1.129-.67-5-4.5-5l-1 1-1 1-1 1v3Z"/><path fill="#A8A9AA" id="V3" d="m234 95 1 1-1-1Z"/><path fill="#C7C8CC" id="alv" d="m130 117-10 3-9.5 1c-1.949-.974-4.77-7-5.5-7v-13l1-1 3-4c0 2.408-1.829 9.158-3 11.5-1.396 2.792 1.994 5.987 3 8 4.62 9.239 21.141-2.5 28-2.5v1l-7 3Z"/><path fill="#A8A9AA" id="V3" d="m222 96-1 1 1-1ZM221 97l-1 1 1-1ZM235 97l1 1-1-1Z"/><path fill="#A8AAAA" id="VL" d="m106 100-1 1 1-1Z"/><path fill="#7DCD4B" id="HPF" d="m211 100 1 1-1-1ZM214 100l-1 1 1-1ZM244 101l-1 1-1-2 2 1Z"/><path fill="#039398" id="AUDd4" d="m411 120-4 2c0-1.564-8.982-17-10-17v-2c1.539 0 3-1.342 3-3l3 4.5c2.058 4.116 8 10.815 8 15.5ZM49 122h1l9-18-3-3-3 5.5c-1.994 3.987-8 8.929-8 13.5v1l4 1Z"/><path fill="#1A8061" id="SSs6b" d="M75 131v1c.71 0 8.164-19 10-19l1-2 1-1v-1l1-1 3-5v-2h-1c0 4.866-14 18.762-14 27l-1 1v2Z"/><path fill="#A8AAAA" id="VL" d="M98 130c0 1.992 3.339 5 5 5 0-3.047-3.314-12 2-12 0-1.759-1.9-9 0-9v-13c-3.87 0-8.821 15-10 15v1c8.357 0 3 7.439 3 11v2Z"/><path fill="#7ECE4A" id="DG-po" d="m170 101-1 1 1-1Z"/><path fill="#A8A9AA" id="V3" d="M225 130c0 3.366 7 3.14 7 0-1.62 0-3.067-11.365-2-13.5 1.032-2.064 7-8.588 7-10.5v-2l-7.5 8c-4.997 2.499-9.5-7.818-9.5-11-1.579 0-1 2.855-1 4v1l1 1 1.5 2c8.171 4.086 3.5 14.366 3.5 21Z"/><path fill="#A8AAAA" id="VL" d="M359 129c-1.985 0-2.696 7-6 7 0-2.982 3.816-13-2-13 0-1.116 2.791-11 0-11v-11c4.018 0 10 12.994 10 16-7.849 0-2 9.26-2 12Z"/><path fill="#1A8061" id="SSs6b" d="M381 130v1c-1.242 0-6.839-18-10-18v-1c0-1.238-.423-3-2-3l-4-7v-1h1l9 13.5c.87 1.74 4.378 12.5 6 12.5v3Z"/><path fill="#029398" id="AUDd5" d="M63 127h1l4-12c0-4.894-8-6.808-8-11h-1l-9 18c0 .91 11.473 5 13 5Z"/><path fill="#FF8D9F" id="MH" d="M223 130h2c0-6.634 4.671-16.914-3.5-21l-1.5-2-1-1v-1c-2.109 0-2-1.162-2 2 0 2.09-2.433 11-5 11l8 10 3 2ZM232 130h2l2-2c2.718 0 8-9.136 8-11-2.232 0-4-6.302-4-8-2.279 0 .03-5-1.5-5l-1.5 2c0 1.912-5.968 8.436-7 10.5-1.067 2.135.38 13.5 2 13.5Z"/><path fill="#029398" id="AUDd5" d="m407 122-14 5-5-12c3.217 0 4.62-10 9-10 1.018 0 10 15.436 10 17Z"/><path fill="#FF8D9F" id="MH" d="m209 114 3 3c0-4.085 3-5.756 3-10l-2 1-1 1-1 1-1 2-1 1v1Z"/><path fill="#C8CCC7" id="hbc" d="M212 117v1c2.567 0 5-8.91 5-11h-2c0 4.244-3 5.915-3 10ZM245 116l-1 1c-2.232 0-4-6.302-4-8l1-2c0 3.681 4 5.758 4 9Z"/><path fill="#FF8D9F" id="MH" d="M247 114c0 1.747-.253 2-2 2 0-3.242-4-5.319-4-9 2.618 0 1.651 3 4 3l1 1 1 1v2Z"/><path fill="#C9C9CA" id="scwm" d="m88 108-1 1 1-1Z"/><path fill="#7DCD4B" id="HPF" d="M297 110h1l-1-1v1Z"/><path fill="#C9C9CA" id="scwm" d="M369 109c1.577 0 2 1.762 2 3-1.577 0-2-1.762-2-3ZM87 110l-1 1 1-1Z"/><path fill="#C7C8CC" id="alv" d="M154 111h3v-1c-1.406 0-7-.714-7 1h4Z"/><path fill="#C9C9CA" id="scwm" d="m86 111-1 2 1-2Z"/><path fill="#C7C8CC" id="alv" d="M141 112h8v-1c-1.49 0-8-.735-8 1Z"/><path fill="#FE909D" id="LP" d="M147 137h1l1-1c1.571 0 14.59-4.045 16.5-5 3.448-1.724 8.443 2 11.5 2 3.908 0 6.971 7 12 7l10-21c0-3.381-7-1.015-7-4h-3l-1-1h-3l-2-1h-5l-1-1-16-1h-7c0 1.579-2.855 1-4 1v10.5l-3 3.5c0 1.406.714 7-1 7v3l1 1ZM308 137h2v-7c-1.643 0-1-3.765-1-5l-3-2.5V112c-1.145 0-4 .579-4-1h-6l-17 1-1 1h-5l-2 1h-2l-1 1h-4l-1 1h-1l-4 3c0 7.343 10 15.657 10 21 3.669 0 6.205-5 9-5l1-1 1-1 6.5-2c3.068-1.534 16.545 1.545 18.5 3.5 1.053 1.053 4 .047 4 2.5Z"/><path fill="#C7C8CC" id="alv" d="M137 113h4v-1c-1.145 0-4-.579-4 1Z"/><path fill="#FE7F84" id="LGd-co" d="m125 129 8 4 11-5c0-1.577 1.762-2 3-2l3-3.5V112h-9v1c13.544 0-3 9.483-3 3-6.584 0-6.041 8-13 8v5Z"/><path fill="#FE7F84" id="LGd-co" fill-rule="evenodd" d="M309 113c0 2.773 5.711 7.394 8.5 6 4.128-2.064-1.867-6-4-6H309m22 16c-2.747 0-4.56 4-8 4l-10-5-4-3-3-2.5V112h1c2.198 0 12-.238 12 2-2.742 0 3.069 3.569 3.5 4 2.162 2.162 5.419 7 8.5 7v4Z"/><path fill="#CBC8CB" id="fi" d="m344 147 1 1c1.238 0 3-.423 3-2l1-1c0-1.235-.643-5 1-5 0-5.22 1-11.211 1-17 0-1.116 2.791-11 0-11 0 9.996-7.317 8-14 8 0 2.16-2 4.167-2 7v8c.853 0 2 6.031 2 7 0 3.12 4.408 5 7 5Z"/><path fill="#C9C9CA" id="scwm" d="m78 134-3 1v-3c.71 0 8.164-19 10-19l-3 12c-.855 0-4 7.665-4 9Z"/><path fill="#FE7F84" id="LGd-co" d="m137 114 2 1 2-2h-4v1Z"/><path fill="#FD8082" id="LGd-ip" d="m139 115-1 1c0 6.483 16.544-3 3-3l-2 2ZM309 113c0 2.773 5.711 7.394 8.5 6 4.128-2.064-1.867-6-4-6H309Z"/><path fill="#C9C9CA" id="scwm" d="m379 134 3 1-1-3v-1c-1.242 0-6.839-18-10-18l4 14 4 7Z"/><path fill="#CBC8CB" id="fi" d="m112 147-1 1-2-1-2-3v-4c0-4.715-2-10.914-2-17 0-1.759-1.9-9 0-9 .73 0 3.551 6.026 5.5 7l9.5-1 1 8v11l-1 2-1 2-1 1c0 2.933-4.001 3-6 3Z"/><path fill="#FE8083" id="LGd-sh" d="M125 123v1c6.959 0 6.416-8 13-8l1-1-2-1-7 3-3 3-1 1-1 2Z"/><path fill="#FF8F9D" id="LH" d="m201 136 4 4c3.802 0 13.469-7 15-7v-5l-8-10v-1l-3-3-3 1h-1l-1 1-2 2-1 1-3 7.5 3 9.5ZM255 136l-4 4c-1.95 0-14-5.195-14-7l-1-5c2.718 0 8-9.136 8-11l1-1c1.747 0 2-.253 2-2l3 1h1l4 3 3 7.5c1.637 3.274-3 7.752-3 10.5Z"/><path fill="#FE8083" id="LGd-sh" d="M329 120c0 1.624 2 2.75 2 5-3.081 0-6.338-4.838-8.5-7-.431-.431-6.242-4-3.5-4l8 3 2 3Z"/><path fill="#019099" id="AUDv1" d="M23 149c2.124 0 4.436 1 6 1 0-7.454.02-20.542 3-26.5l3-6.5v-1l-5-1-3 8.5-4 25.5Z"/><path fill="#019399" id="AUDd6a" d="M74 131h1v-3c0-5.736-6-8.931-6-13h-1l-4 12c0 1.891 8.016 4 10 4ZM382 132h1l10-5-5-12c-2.123 0-1 3.075-1 3.5h-2l-2 3c-.584 1.167.047 5.5-2 5.5v3l1 2Z"/><path fill="#019099" id="AUDv1" d="m433 149-6 1c0-7.519 1.151-18.198-2-24.5-.845-1.689-4-6.846-4-8.5v-1l5-1c.963 0 3 7.561 3 9 0 7.985 4 16.483 4 25Z"/><path fill="#029198" id="AUDv2/3" d="M29 150h8c0-4.316 4.868-29 8-29v-1l-10-3-3 6.5c-2.98 5.958-3 19.046-3 26.5Z"/><path fill="#98D5F9" id="CP" d="m103 187 1 5.5c-3.331 6.662-12.02 4.5-18 4.5-3.117 0-13-13.6-13-17 0-1.048.473-3-1-3 0-7.671 2-15.257 2-22l1-5v-2c1.845 0 1.44-3.381 2-4.5l6-12.5c4.462 0 6.2-14 12-14 8.357 0 3 7.439 3 11l-1 2c-2.378 0-2.286 5.072-3 6.5-5.122 10.245 1 16.44 1 26.5l1 1v2l1 1v2l1 4c0 2.275 2.13 11 5 11v3ZM352 190c0 9.287 12.054 7 18 7 2.617 0 13-14.826 13-17l1-1c0-8.099-1-16.484-1-24l-2-5v-1l-8-18-4-6.5-7-7.5h-1c-7.849 0-2 9.26-2 12 1.998 0 2.337 5.174 3 6.5 3.192 6.384 4.391 16.218 1 23l-2 4.5v1l-1 3-1 1v5c0 1.732-3.196 10-5 10l-1 2v3l-1 2Z"/><path fill="#029198" id="AUDv2/3" d="M419 150h8c0-7.519 1.151-18.198-2-24.5-.845-1.689-4-6.846-4-8.5l-9 3c0 6.292 7 19.29 7 30Z"/><path fill="#FD8F9D" id="CL" d="m202 118-1 1 1-1ZM267 163c-2.584 0-4.518 4-8 4 0-4.751 5.718-31-4-31 0-2.748 4.637-7.226 3-10.5l-3-7.5 3 1c0 7.343 10 15.657 10 21v17l-1 6ZM189 163c2.747 0 4.56 4 8 4 0-4.068-4.097-31 4-31l-3-9.5 3-7.5h-2l-10 21c0 4.594-1 10.741-1 16l1 7Z"/><path fill="#CAC7CB" id="fiber tracts" d="m127 120-1 1 1-1ZM348 152l-4.5-3c-.986-.493-6.432-.363-5.5 1.5l2 3.5-5-4-1-3-1-2v-2c0-1.731 1.716-14-2-14v-4c0-2.25-2-3.376-2-5 3.406 0 3.677 7 6 7v8c0 1.851-.867 7 2 7 0 3.12 4.408 5 7 5l1 1c1.238 0 3-.423 3-2l1-1c1.014 0 2-3.959 2-5l2-4c3.304 0 4.015-7 6-7 0 3.482-8.433 23-11 23Z"/><path fill="#029197" id="AUDv4" d="M413 150h6c0-10.71-7-23.708-7-30h-1l-4 2c0 8.004 6 17.065 6 28ZM37 150h6c0-10.299 6-18.596 6-28l-4-1c-3.132 0-8 24.684-8 29Z"/><path fill="#CAC7CB" id="fiber tracts" d="m126 121-1 2 1-2Z"/><path fill="#019098" id="AUDv5" d="M43 150c5.371 0 9.948 1 14 1 0-8.14 6-15.717 6-24-1.527 0-13-4.09-13-5h-1c0 9.404-6 17.701-6 28ZM413 150l-14 1c0-8.439-6-15.945-6-24l14-5c0 8.004 6 17.065 6 28Z"/><path fill="#A9AAA8" id="chpl" d="m107 140-1 1-3-6c0-3.047-3.314-12 2-12 0 6.086 2 12.285 2 17Z"/><path fill="#CAC7CB" id="fiber tracts" d="M109 152c0-1.612 6.563-3.968 8.5-3 1.801.9-.5 3.167-.5 4 2.618 0 1.651-3 4-3l1-1v-1l1-1v-4c0-5.003 2-10.49 2-14v-6l-4 5v11l-1 2-1 2-1 1c0 2.933-4.001 3-6 3l-1 1-2-1c-1.577 0-2-1.762-2-3v-1l-1-2-3-6c-1.661 0-5-3.008-5-5h-1c0 3.254 9.756 22 12 22Z"/><path fill="#A9AAA8" id="chpl" d="M350 140h1l2-4c0-2.982 3.816-13-2-13 0 5.789-1 11.78-1 17Z"/><path fill="#C7CACC" id="ccs" d="M78 134c0 2.21-4.668 14-3 14 1.845 0 1.44-3.381 2-4.5l6-12.5c0-1.564-1-3.876-1-6-.855 0-4 7.665-4 9Z"/><path fill="#FF6F80" id="TH" d="M313 128c-2.215 0-1.519 2-3 2-1.643 0-1-3.765-1-5l4 3ZM144 128c2.461 0 2 3.378 2 5 1.714 0 1-5.594 1-7-1.238 0-3 .423-3 2Z"/><path fill="#019397" id="AUDv6a" d="m57 151 11 1c0-1.048-.473-3 1-3v-3c-1.186 0-1.186-1 0-1l1-1 1-4v-1l3-6v-2c-1.984 0-10-2.109-10-4h-1c0 8.283-6 15.86-6 24Z"/><path fill="#C7CACC" id="ccs" d="M379 134c0 4.285 1.237 7.973 3 11.5.472.945.156 3.5-1 3.5l-8-18 2-4 4 7Z"/><path fill="#019397" id="AUDv6a" d="M388 152h1l10-1c0-8.439-6-15.945-6-24l-10 5 2 7v1c1.014 0 2 3.959 2 5 2.212 0 2.212 1 0 1v1c1.643 0 1 3.765 1 5Z"/><path fill="#019398" id="AUDd6b" d="m76 128-1 1v-1h1Z"/><path fill="#97D6F9" id="STR" d="M97 130h1v-2l-1 2Z"/><path fill="#CBC9C7" id="or" d="M132 150h1l1-2 1-1 1-1 9-8 1-1v-4c0-1.622.461-5-2-5l-11 5-4 6c7.631 0 3 7.167 3 11Z"/><path fill="#FF6F80" id="TH" d="M220 133h1c0-1.238.423-3 2-3l-3-2v5ZM236 133h1l-1-5-2 2 2 3Z"/><path fill="#CBC9C7" id="or" d="m322 148 3 3c0-3.568-5.99-12 2-12 0-2.58-4-3.211-4-6l-10-5c-2.215 0-1.519 2-3 2v5c1.473 0 1 1.952 1 3 0 2.753 11 5.64 11 10Z"/><path fill="#FF8E9F" id="LGv" d="M123 143h1l5-4 4-6-8-4c0 3.51-2 8.997-2 14ZM332 143h1c0-1.731 1.716-14-2-14-2.747 0-4.56 4-8 4 0 2.789 4 3.42 4 6h1l1 1 3 3Z"/><path fill="#CBC9C7" id="or" d="m361 163-1 1c-4.513 0-10.711.894-14.5-1l-8.5-7c0-1.974-2-3.517-2-6l5 4c0 4.306 8 1.07 8-2 2.567 0 11-19.518 11-23 1.998 0 2.337 5.174 3 6.5 3.192 6.384 4.391 16.218 1 23l-2 4.5ZM95 163l1 1c4.513 0 10.711.894 14.5-1l8.5-7 1-1 1-5c-2.349 0-1.382 3-4 3v1l-1 1c-2.341 0-7 1.925-7-3-2.244 0-12-18.746-12-22-2.378 0-2.286 5.072-3 6.5-5.122 10.245 1 16.44 1 26.5Z"/><path fill="#FE8F9E" id="PVT" d="M221 152h14l11-7c-5.498 0-10-7.399-10-12l-2-3h-2c0 3.14-7 3.366-7 0h-2c-1.577 0-2 1.762-2 3 0 3.572-5.845 12-10 12 0 3.731 10 3.85 10 7Z"/><path fill="#019398" id="AUDd6b" d="M381 132h1l-1-2v2ZM74 132h1v-1h-1v1Z"/><path fill="#FF8E9C" id="PO" d="M187 186h4c2.389 0 5.987-1 9-1 0-1.382-11-15.914-11-22l-1-7-2.5-5-5.5-13.5-3-4.5c-3.057 0-8.052-3.724-11.5-2-1.91.955-14.929 5-16.5 5v1l12 13.5c3.473 6.946 7.886 16.886 13.5 22.5 2.977 2.977 12.5 8.825 12.5 13ZM266 186h3l12-11.5c4.796-9.592 11.677-21.677 19.5-29.5l7.5-8c0-2.453-2.947-1.447-4-2.5-1.955-1.955-15.432-5.034-18.5-3.5l-6.5 2-1 1-1 1c0 5.783-4.525 12.55-7 17.5-.465.93-.817 4.5-2 4.5l-1 6c0 5.258-3.736 11.972-6 16.5l-5 5.5c3.325 0 7.31 1 10 1Z"/><path fill="#019198" id="AUDv6b" d="M74 133h1v-1h-1v1ZM384 139h1l-2-7h-2l1 3v1l1 1 1 2ZM71 139h2l1-3v-3l-3 6Z"/><path fill="#1A8061" id="SSs6b" d="M74 135h1v-2h-1v2Z"/><path fill="#FD8F9C" id="Eth" d="M189 140c0 4.594-1 10.741-1 16l-2.5-5-5.5-13.5-3-4.5c3.908 0 6.971 7 12 7Z"/><path fill="#C7CAC9" id="fr" d="M205 140c0 4.061.932 5 6 5 4.155 0 10-8.428 10-12h-1c-1.531 0-11.198 7-15 7ZM251 140c0 3.616.017 5-5 5-5.498 0-10-7.399-10-12h1c0 1.805 12.05 7 14 7Z"/><path fill="#FD8F9C" id="Eth" d="m279 133-1 1 1-1Z"/><path fill="#CCC8CA" id="ar" d="M69 176v1c2.303 0 2-2.951 2-4.5 0-5.945 1-12.13 1-17.5 0-1.777 1.1-5 3-5v-2c-1.668 0 3-11.79 3-14l-3 1-1 1-1 3-1 1v2l-1 1v1l-1 3-1 2v27Z"/><path fill="#FD8F9C" id="Eth" d="m278 134-1 1 1-1Z"/><path fill="#CCC8CA" id="ar" d="M384 155c0 4.505 2 10.923 2 15.5 0 1.278-.665 5.5 1 5.5v-28l-2-4-1-4v-1l-1-2-1-1v-1l-3-1c0 4.285 1.237 7.973 3 11.5.472.945.156 3.5-1 3.5v1c2.6 0 3 2.639 3 5Z"/><path fill="#C9C9CA" id="scwm" d="m75 135-1 1v-1h1Z"/><path fill="#FD8F9C" id="Eth" d="M268 140v17c1.183 0 1.535-3.57 2-4.5 2.475-4.95 7-11.717 7-17.5-2.795 0-5.331 5-9 5Z"/><path fill="#FF6F80" id="TH" d="m310 137 1 1c0-1.048.473-3-1-3v2ZM146 137h1l-1-1v1ZM148 137h1v-1l-1 1Z"/><path fill="#FD909D" id="MD" d="m219 180-5 3c-7.769 0-17-7.95-17-16 0-4.068-4.097-31 4-31l4 4c0 4.061.932 5 6 5 0 3.731 10 3.85 10 7 0 3.541 5.306 8.888 3 13.5-1.477 2.954-5 11.463-5 14.5ZM237 180l5 3c7.938 0 17-7.705 17-16 0-4.751 5.718-31-4-31l-4 4c0 3.616.017 5-5 5l-11 7c0 4.273-4.623 12.253-2 17.5 1.447 2.893 4 7.148 4 10.5Z"/><path fill="#C9C9CA" id="scwm" d="m382 136 1 1-1-1Z"/><path fill="#FF6F80" id="TH" d="m146 137-1 1 1-1Z"/><path fill="#FF7E83" id="VPM" d="m181 194-2 1-9.5 1c-1.157-.579-5.491-3-6.5-3-2.755 0-6.75-6.25-8.5-8-7.126-7.126-10.668-17.834-19-22l-4.5-6 2-7 1-2 1-1 1-1 9-8 1-1h3l12 13.5c3.473 6.946 7.886 16.886 13.5 22.5 2.977 2.977 12.5 8.825 12.5 13v5c-1.238 0-3 .423-3 2h-1l-2 1ZM273 193l8.5 3c4.239 2.12 9.094-3 12.5-3l7-6.5c3.813-7.627 12.136-13.273 16-21 1.696-3.392 8-4.357 8-9.5 0-3.238-3-5.3-3-8 0-4.36-11-7.247-11-10l-1-1h-2l-7.5 8c-7.823 7.823-14.704 19.908-19.5 29.5L269 186c0 3.145 3 4.833 3 7h1Z"/><path fill="#1A8061" id="SSs6b" d="M71 140h1l1-1h-2v1Z"/><path fill="#FD8F9F" id="RT" d="m137 186-1 1c-4.594 0-7.919-8-12-8h-1c0-1.747-.253-2-2-2 0-1.631-5.939-2.377-7-4.5-2.344-4.688 5-11.961 5-16.5l1-1 1-5 1-1v-1l1-1v-2l1-2 5-4c7.631 0 3 7.167 3 11l-1 1c0 4.787-7.03 10.441-4 16.5l5 11 4 3.5 1 3v1ZM328 183c-3.381 0-4.248 4-8 4v-5l1-1 2-2 2.5-3c2.661-2.661 5.64-13.22 3.5-17.5l-4-7.5c0-3.568-5.99-12 2-12h1l1 1 3 3 1 1v1l1 2 1 3c0 2.483 2 4.026 2 6 0 5.2 8.069 11.362 5 17.5l-7 3.5-1 1-1 1-1 1-1 1-2 1-1 1Z"/><path fill="#CBC9C7" id="or" d="m328 139 1 1-1-1Z"/><path fill="#1A8061" id="SSs6b" d="M384 140h1v-1h-1v1Z"/><path fill="#019198" id="AUDv6b" d="M70 144h1v-1l1-1v-2h-1l-1 4ZM385 144l2 1c0-1.041-.986-5-2-5h-1l1 4Z"/><path fill="#1A8061" id="SSs6b" d="m72 142-1 1 1-1Z"/><path fill="#FF6F80" id="TH" d="m124 143-1 2v-2h1ZM333 143v1l-1-1h1Z"/><path fill="#019198" id="AUDv6b" d="m70 144-1 1 1-1Z"/><path fill="#1A8061" id="SSs6b" d="M69 147h1l1-3h-1l-1 1v2ZM387 147v1l-2-4 2 1v2Z"/><path fill="#197D63" id="SSs6a" d="M69 145c-1.186 0-1.186 1 0 1v-1Z"/><path fill="#FF6F80" id="TH" d="m333 145 1 2-1-2Z"/><path fill="#197D63" id="SSs6a" d="M387 145c2.212 0 2.212 1 0 1v-1Z"/><path fill="#C7CACA" id="em" d="m136 146-1 1 1-1Z"/><path fill="#019198" id="AUDv6b" d="m70 147-1 2v-2h1Z"/><path fill="#FF6F80" id="TH" d="m123 147-1 1 1-1Z"/><path fill="#C7CACA" id="em" d="m135 147-1 1 1-1Z"/><path fill="#019198" id="AUDv6b" d="M387 152h1c0-1.235.643-5-1-5v5Z"/><path fill="#C7CACA" id="em" d="M325 156c1.995 0 2 4.377 2 6 0 8.284-4 13.355-4 17l2.5-3c2.661-2.661 5.64-13.22 3.5-17.5l-4-7.5-3-3c0 2.7 3 4.762 3 8Z"/><path fill="#15B0B3" id="TEa1" d="m31 178-5 1c-1.735 0-1-6.51-1-8 0-6.825-2-14.272-2-22 2.124 0 4.436 1 6 1 0 9.685 2 18.872 2 28Z"/><path fill="#019198" id="AUDv6b" d="M68 152h1v-3c-1.473 0-1 1.952-1 3Z"/><path fill="#C8CBC7" id="st" d="m117 154-1 1c-2.341 0-7 1.925-7-3 0-1.612 6.563-3.968 8.5-3 1.801.9-.5 3.167-.5 4v1Z"/><path fill="#CBC9C7" id="or" d="m122 149-1 1 1-1Z"/><path fill="#C8CBC7" id="st" d="m348 152-4.5-3c-.986-.493-6.432-.363-5.5 1.5l2 3.5c0 4.306 8 1.07 8-2Z"/><path fill="#15B0B3" id="TEa1" d="m426 178 5 1c0-10.235 2-19.266 2-30l-6 1-1 28Z"/><path fill="#16AFB3" id="TEa2/3" d="M41 177c-3.325 0-7.31 1-10 1 0-9.128-2-18.315-2-28h8c0 10.336 4 20.208 4 27Z"/><path fill="#15B0B2" id="TEa4" d="M41 177h2v-27h-6c0 10.336 4 20.208 4 27Z"/><path fill="#15AFB3" id="TEa5" d="M43 177h13l1-26c-4.052 0-8.629-1-14-1v27Z"/><path fill="#C7CACC" id="ccs" d="M72 155h2l1-5c-1.9 0-3 3.223-3 5Z"/><path fill="#CBC9C7" id="or" d="m132 150-1 1 1-1Z"/><path fill="#C7CACA" id="em" d="M136 182h1l-4-4.5-4-8c-1.029-2.058.118-12.5 2-12.5l2-7h-1l-1 1c0 4.787-7.03 10.441-4 16.5l5 11 4 3.5Z"/><path fill="#C7CACC" id="ccs" d="M383 155h1c0-2.361-.4-5-3-5l2 5Z"/><path fill="#15AFB3" id="TEa5" d="M400 177h14c0-8.932-1-18.732-1-27l-14 1c0 3.567.446 9.393 2 12.5 1.839 3.678-1 10.096-1 13.5Z"/><path fill="#15B0B2" id="TEa4" d="M414 177h2c0-3.625 1.418-9.336 3-12.5V150h-6c0 8.268 1 18.068 1 27Z"/><path fill="#16AFB3" id="TEa2/3" d="M425 178h1l1-28h-8v14.5c-1.582 3.164-3 8.875-3 12.5 3.013 0 6.611 1 9 1Z"/><path fill="#15AFB2" id="TEa6a" d="M56 177h1l10-1c0-7.946 1-16.711 1-24l-11-1-1 26Z"/><path fill="#FE909F" id="IMD" d="M219 180c3.457 0 8.643-3.928 12.5-2l5.5 2c0-3.352-2.553-7.607-4-10.5-2.623-5.247 2-13.227 2-17.5h-14c0 3.541 5.306 8.888 3 13.5-1.477 2.954-5 11.463-5 14.5Z"/><path fill="#15AFB2" id="TEa6a" d="m389 176 11 1c0-3.404 2.839-9.822 1-13.5-1.554-3.107-2-8.933-2-12.5l-10 1v24Z"/><path fill="#16B0B2" id="TEa6b" d="M68 176h1v-24h-1c0 7.289-1 16.054-1 24h1ZM387 176h2v-24h-2v24Z"/><path fill="#CAC7CB" id="fiber tracts" d="m117 154-1 1 1-1Z"/><path fill="#C8CBCC" id="ec" d="m72 183-3 1v-7c2.303 0 2-2.951 2-4.5 0-5.945 1-12.13 1-17.5h2c0 6.743-2 14.329-2 22v6Z"/><path fill="#CCC8CA" id="ar" d="m120 155-1 1 1-1Z"/><path fill="#C8CBCC" id="ec" d="M384 183h3v-7c-1.665 0-1-4.222-1-5.5 0-4.577-2-10.995-2-15.5h-1c0 7.516 1 15.901 1 24v4Z"/><path fill="#CCC8CA" id="ar" d="M105 181h4c0-3.085 9.318-4 12-4 0-1.631-5.939-2.377-7-4.5-2.344-4.688 5-11.961 5-16.5l-8.5 7c-3.789 1.894-9.987 1-14.5 1v2l1 1v2l2 4 3 6 3 2Z"/><path fill="#FD8084" id="VPL" d="M298 195h1l1-1c5.844 0 13.169-9 17-9l2-3 2-1c0-1.747.253-2 2-2 0-3.645 4-8.716 4-17 0-1.623-.005-6-2-6 0 5.143-6.304 6.108-8 9.5-3.864 7.727-12.187 13.373-16 21l-7 6.5c0 2.641 1.823 2 4 2Z"/><path fill="#CCC8CA" id="ar" d="M347 181h4l3-1 3-6 1-1 1-2v-3l1-1 1-3h-1c-4.513 0-10.711.894-14.5-1l-8.5-7c0 5.2 8.069 11.362 5 17.5l-7 3.5h1c2.443 0 11 1.304 11 4Z"/><path fill="#FD8084" id="VPL" d="M163 193c0 2.109-2.535 2-4 2-2.462 0-18-8.281-18-9l-1-1h-1c0-2.215-2-1.519-2-3l-4-4.5-4-8c-1.029-2.058.118-12.5 2-12.5l4.5 6c8.332 4.166 11.874 14.874 19 22 1.75 1.75 5.745 8 8.5 8Z"/><path fill="#CCC" d="m95 163 1 1-1-1Z"/><path fill="#FE8D9F" id="PCN" d="M200 185c4.525 0 8.668 3 14 3v-5c-7.769 0-17-7.95-17-16-3.44 0-5.253-4-8-4 0 6.086 11 20.618 11 22ZM256 185c-4.271 0-8.053 3-13 3l-1-5c7.938 0 17-7.705 17-16 3.482 0 5.416-4 8-4 0 5.258-3.736 11.972-6 16.5l-5 5.5Z"/><path fill="#CCC" d="M360 164h1v-1l-1 1ZM96 166l1 1-1-1ZM360 167l-1 1 1-1ZM98 173h1l-2-4 1 4ZM358 173h1v-2l-1 2Z"/><path fill="#97D6F9" id="STR" d="M103 183v1c-2.87 0-5-8.725-5-11h1l3 6 1 4Z"/><path fill="#CCC" d="m358 173-1 1 1-1Z"/><path fill="#97D6F9" id="STR" d="M354 182v1c1.804 0 5-8.268 5-10h-1l-1 1-3 6v2Z"/><path fill="#0E9F91" id="ECT6a" d="M61 195h2c2.33 0 3.227-4 6-4l-1-15h-1l-10 1c0 6.954 4 12.098 4 18Z"/><path fill="#0E9F90" id="ECT6b" d="M69 191h1c0-2.409-1-5.181-1-7v-8h-1l1 15ZM387 191h1c0-5.039 1-10.575 1-15h-2v15Z"/><path fill="#0E9F91" id="ECT6a" d="M393 195h2c0-4.922 5-11.531 5-18l-11-1c0 4.425-1 9.961-1 15 2.359 0 3.698 4 5 4Z"/><path fill="#0D9F91" id="ECT2/3" d="M35 194c3.962 0 8.688 1 12 1 0-4.363-4-11.511-4-18h-2c-3.325 0-7.31 1-10 1 0 5.215 4 10.215 4 16Z"/><path fill="#0D9E90" id="ECT5" d="M47 195h14c0-5.902-4-11.046-4-18H43c0 6.489 4 13.637 4 18Z"/><path fill="#97D6F9" id="STR" d="M72 180h1c0-1.048.473-3-1-3v3Z"/><path fill="#CCC" d="m124 179 12.5 13c5.911 5.911 8.922 15.344 12.5 22.5l7 6c3.218 3.218 15.175 9.649 12 16-3.368 6.735-12.235 1.531-15-4-5.52-11.039-25.86-26.72-33-41l-5.5-8.5c-1.319-.659-5.5.334-5.5-2 0-3.085 9.318-4 12-4l2 2h1Z"/><path fill="#CAC7CB" id="fiber tracts" d="M121 177c1.747 0 2 .253 2 2l-2-2ZM336 177l-2 1 1-1h1Z"/><path fill="#CCC" d="m329 182-1 1-9 9.5c-6.66 13.32-11.841 20.841-22.5 31.5-4.248 4.248-10.546 8.408-7.5 14.5 3.21 6.42 16.284-6.568 18-10 5.097-10.194 23.283-24.566 30-38l5.5-7.5c1.119-.559 4.5-.155 4.5-2 0-2.696-8.557-4-11-4l-2 1-1 1-1 1-1 1-2 1Z"/><path fill="#0D9E90" id="ECT5" d="M410 194c-4.635 0-9.828 1-15 1 0-4.922 5-11.531 5-18h14c0 5.539-4 11.773-4 17Z"/><path fill="#0D9F91" id="ECT2/3" d="M421 194h1c0-6 3-10.627 3-16-2.389 0-5.987-1-9-1h-2c0 5.539-4 11.773-4 17v1c3.249 0 7.194-1 11-1Z"/><path fill="#0D9F90" id="ECT1" d="m35 194-7 1c0-1.924.964-9.573 0-11.5l-2-4.5 5-1c0 5.215 4 10.215 4 16Z"/><path fill="#FD8E9E" id="CM" d="M221 190h14l8-2-1-5-5-3-5.5-2c-3.857-1.928-9.043 2-12.5 2l-5 3v5l7 2Z"/><path fill="#CAC7CB" id="fiber tracts" d="m334 178-1 1 1-1Z"/><path fill="#0D9F90" id="ECT1" d="m422 194 6 1c2.448 0 .484-6.532 0-7.5-1.6-3.2 3-5.712 3-8.5l-5-1h-1c0 5.373-3 10-3 16Z"/><path fill="#8599CC" id="PAL" d="M105 181c0 2.109 1.162 2-2 2l-1-4 3 2Z"/><path fill="#CAC7CB" id="fiber tracts" d="m164 247-4 2c-1.222 0-5-6.549-5-8 2.084 0 .144-3.356-.5-4l-9.5-10.5c-1.927-3.854-21.57-27.5-26-27.5 0-3.153-2-5.347-2-1-1.609 0-3.304-7.109-4-8.5-1.35-2.7-8-5.678-8-.5l-2-2v-4c3.162 0 2 .109 2-2h4c0 2.334 4.181 1.341 5.5 2l5.5 8.5c7.14 14.28 27.48 29.961 33 41 2.765 5.531 11.632 10.735 15 4 3.175-6.351-8.782-12.782-12-16l-7-6c-3.578-7.156-6.589-16.589-12.5-22.5L124 179c4.081 0 7.406 8 12 8h1l5 6c0 1.52 2.336 8 4 8 0 8.006 10.451 17.976 16.5 21 3.186 1.593 4.664 7 8.5 7l1 1v10c-3.288 0-8 3.648-8 7Z"/><path fill="#C7CACA" id="em" d="M323 179c-1.747 0-2 .253-2 2l2-2Z"/><path fill="#CAC7CB" id="fiber tracts" d="m333 179-1 1 1-1Z"/><path fill="#97D6F9" id="STR" d="M383 180h1v-1l-1 1Z"/><path fill="#90EB8D" id="LA" d="m81 243 3 4c0-4.288-.502-25 7-25v-1l1-1c0-5.177 7.217-2 9-2v-1l-2-4-13-16c-3.117 0-13-13.6-13-17h-1v3l-1 9.5c5.34 10.679 8 30.403 8 43.5l1 6 1 1Z"/><path fill="#CAC7CB" id="fiber tracts" d="m332 180-1 1 1-1Z"/><path fill="#8599CC" id="PAL" d="m354 182-1 1c-2.109 0-2 1.162-2-2l3-1v2Z"/><path fill="#90EB8D" id="LA" d="M376 241c0 1.408-1.197 5-3 5 0-5.129-2.157-25-8-25 0-4.876-5.553-4-9-4l1-4 3-3.5c2.361-2.361 10-9.278 10-12.5 2.617 0 13-14.826 13-17h1v3c0 2.681 2.592 8.316 1 11.5-5.794 11.588-8 28.746-8 42.5v3l-1 1Z"/><path fill="#C7CACA" id="em" d="M319 182h1l1-1-2 1Z"/><path fill="#CAC7CB" id="fiber tracts" d="m331 181-2 1 2-1ZM292 247l5 2 5-8c-1.331 0-1.557-3.471-.5-4 3.848-1.924 7.811-8.811 11.5-12.5l17-20 6.5-5.5c2.617 1.308-1.5 7.525-1.5 9h2c0-3.489 2-5.32 2-9-5.153 0 1-7.082 1-2 .786 0 3.718-9.609 6.5-11 3.072-1.536 4.5 1.669 4.5 4h1l1-2v-5c-2.109 0-2 1.162-2-2h-4c0 1.845-3.381 1.441-4.5 2l-5.5 7.5c-6.717 13.434-24.903 27.806-30 38-1.716 3.432-14.79 16.42-18 10-3.046-6.092 3.252-10.252 7.5-14.5 10.659-10.659 15.84-18.18 22.5-31.5l9-9.5c-3.381 0-4.248 4-8 4l-1 1-5 5-1 2c0 1.622.461 5-2 5 0 6.314-19.36 29-26 29l-1 2v8c0 2.703 8 2.718 8 8Z"/><path fill="#FF6F80" id="TH" d="M137 185h2c0-2.215-2-1.519-2-3h-1l1 3ZM320 187l-1 1c0-2.003.293-3-2-3l2-3h1v5Z"/><path fill="#CAC7CB" id="fiber tracts" d="m329 182-1 1 1-1ZM353 183h1v-1l-1 1Z"/><path fill="#C8C9CB" id="amc" d="m78 235 1 1c0-13.097-2.66-32.821-8-43.5l1-9.5-3 1c0 1.819 1 4.591 1 7l1 9 4 10.5c2.626 5.253 2 14.234 2 20.5 1.58 0 1 2.855 1 4Z"/><path fill="#97D6F9" id="STR" d="m354 183-1 2v-2h1Z"/><path fill="#C8C9CB" id="amc" d="m378 235-1 2c0-13.754 2.206-30.912 8-42.5 1.592-3.184-1-8.819-1-11.5h3v12c-1.579 0-1 2.855-1 4l-1 1c0 3.435-2.496 8.491-4 11.5l-2 19.5-1 4Z"/><path fill="#F0483B" id="ZI" d="M188 219h1c0-.934 5-.098 5-6-6.07 0-15.734-10-21-10l-1-1h-1c-1.633 0-12-5.535-12-7-2.462 0-18-8.281-18-9l-1-1h-3v2l5 6c.774 0 17 14.739 17 16 2.164 0 12 5.008 12 7 4.331 0 8.49 2 13.5 2 1.098 0 3.5-.534 3.5 1Z"/><path fill="#FF6F80" id="TH" d="m140 185 1 1-1-1Z"/><path fill="#FE8082" id="VPMpc" d="M189 191h10.5l13.5 6c8.484 0 8 2.693 8-7l-7-2c-5.332 0-9.475-3-14-3-3.013 0-6.611 1-9 1 0 1.481-2 .785-2 3v2ZM244 197l-1 1c-7.935 0-8-1.516-8-8l8-2c4.947 0 8.729-3 13-3 3.325 0 7.31 1 10 1l1 3v2c-5.505 0-11.944-.278-16.5 2l-6.5 4Z"/><path fill="#F0483B" id="ZI" d="M267 219h2c0-1.534 2.402-1 3.5-1 4.677 0 8.418-2 12.5-2l1-1c3.873 0 6.631-6 11-6l1-1 1-1 1-1 1-1 3-2 1-1 1-1c0-1.988 5.237-6 7-6l1-2 5-5c0-2.003.293-3-2-3-3.831 0-11.156 9-17 9l-1 1h-1c0 1.216-11.295 7-13 7l-1 1c-7.588 0-14.12 10-22 10 0 3.817 5 4.633 5 6Z"/><path fill="#C8CBC7" id="st" d="M119 207v3c-3.448 0-2.91-5-5-5 0-5.483-9-9.377-9-16 0-5.178 6.65-2.2 8 .5.696 1.391 2.391 8.5 4 8.5v1l2 8Z"/><path fill="#FF6F80" id="TH" d="M136 187h1v-1l-1 1ZM189 189l-2 1v-4h4c0 1.481-2 .785-2 3ZM271 193h1c0-2.167-3-3.855-3-7h-3l1 3 4 4Z"/><path fill="#C8CBC7" id="st" d="M337 208v2c3.506 0 3.428-5 6-5 0-5.446 8-8.798 8-15 0-2.331-1.428-5.536-4.5-4-2.782 1.391-5.714 11-6.5 11l-1 2c0 3.68-2 5.511-2 9Z"/><path fill="#97D6F9" id="STR" d="M106 207c-2.569 0-7 3.045-7 6l-13-16c5.98 0 14.669 2.162 18-4.5l-1-5.5 2 2c0 6.623 9 10.517 9 16h-1c-2.765 0-5.165 2-7 2ZM353 188l-1 2 1-2Z"/><path fill="#FF7F82" id="VPLpc" d="m189 191-2 1v-2l2-1v2Z"/><path fill="#FF6F80" id="TH" fill-rule="evenodd" d="M230 199c0 8.29 6.398 0 0 0m-7 0c0 7.519 8.293 0 0 0m-14 12h11.5l6 2 1-2c1.68-.84 2.764 3.118 5 2 4.496-2.248 9.038-2 14.5-2l-4-4.5V198c-7.935 0-8-1.516-8-8h-14c0 9.693.484 7-8 7 0 3.789 1.881 6.738 0 10.5l-4 3.5Z"/><path fill="#FF7F82" id="VPLpc" d="m267 191 4 2-4-4v2Z"/><path fill="#97D6F9" id="STR" d="M351 207c2.985 0 6 3.061 6 6l3-3.5c2.361-2.361 10-9.278 10-12.5-5.946 0-18 2.287-18-7h-1c0 6.202-8 9.554-8 15 3.354 0 5.291 2 8 2Z"/><path fill="#209766" id="AIp6a" d="M63 200h1l2-1 3-1v-7c-2.773 0-3.67 4-6 4l-1 2 1 3Z"/><path fill="#219666" id="AIp6b" d="m69 198 2 2-1-9h-1v7Z"/><path fill="#FF6F80" id="TH" d="m187 192-3 1c0-1.577 1.762-2 3-2v1Z"/><path fill="#FF7E84" id="VM" d="M194 213h7c0-4.843 6.173-2 8-2l4-3.5c1.881-3.762 0-6.711 0-10.5l-13.5-6H189l-2 1-3 1h-1l-2 1-2 1c0 3.049-8 2.528-8 7h1l1 1c5.266 0 14.93 10 21 10ZM255 213h7c7.88 0 14.412-10 22-10l1-1c0-5.501-12-6.511-12-9h-2l-4-2c-5.505 0-11.944-.278-16.5 2l-6.5 4-1 1v8.5l4 4.5h1c2.17 0 7-2.601 7 2Z"/><path fill="#219666" id="AIp6b" d="M388 191c0 1.048.473 3-1 3v-3h1Z"/><path fill="#209766" id="AIp6a" d="M393 200h1l1-2v-2l-2-1c-1.302 0-2.641-4-5-4 0 1.048.473 3-1 3v4c1.465 0 4-.109 4 2h2Z"/><path fill="#E64438" id="HY" d="M146 201c0-3.917 12.131 8 13 8 0-1.261-16.226-16-17-16 0 1.52 2.336 8 4 8Z"/><path fill="#FF6F80" id="TH" d="M179 195c0 3.049-8 2.528-8 7-1.633 0-12-5.535-12-7 1.465 0 4 .109 4-2 1.009 0 5.343 2.421 6.5 3l9.5-1ZM183 193l-2 1 2-1ZM298 195c0 1.216-11.295 7-13 7 0-5.501-12-6.511-12-9l8.5 3c4.239 2.12 9.094-3 12.5-3 0 2.641 1.823 2 4 2Z"/><path fill="#E64438" id="HY" d="m314 193-1 2 1-2Z"/><path fill="#0E9584" id="PERI1" d="m38 207-4 2c-1.613 0-6-11.96-6-14l7-1 3 13Z"/><path fill="#0E9583" id="PERI2/3" d="M38 207h1l5-1 7-2v-1l-4-8c-3.312 0-8.038-1-12-1l3 13Z"/><path fill="#0F9684" id="PERI5" d="M57 202c-1.564 0-3.876 1-6 1l-4-8h14v2l-2 4-2 1Z"/><path fill="#FF6F80" id="TH" d="m181 194-2 1 2-1ZM300 194l-1 1 1-1Z"/><path fill="#0F9684" id="PERI5" d="M405 204h1c0-1.335 3.145-9 4-9v-1c-4.635 0-9.828 1-15 1v3l4 4c.706 0 6 1.325 6 2Z"/><path fill="#0E9583" id="PERI2/3" d="M417 207h1c0-4.085 3-8.176 3-13-3.806 0-7.751 1-11 1-.855 0-4 7.665-4 9 .706 0 6 1.325 6 2l5 1Z"/><path fill="#0E9584" id="PERI1" d="m418 207 4 2c2.368 0 6-11.578 6-14l-6-1h-1c0 4.824-3 8.915-3 13Z"/><path fill="#0E9684" id="PERI6a" d="M61 197h1l1-2h-2v2Z"/><path fill="#8599CC" id="PAL" d="M117 199h2c0-3.153-2-5.347-2-1v1Z"/><path fill="#E64438" id="HY" d="m311 200-5 1c0-1.988 5.237-6 7-6 0 1.622.461 5-2 5Z"/><path fill="#8599CC" id="PAL" d="m340 197-1 2c-5.153 0 1-7.082 1-2Z"/><path fill="#219666" id="AIp6b" d="m387 198-1 1c0-1.145-.579-4 1-4v3Z"/><path fill="#0E9684" id="PERI6a" d="M395 195v1l-2-1h2Z"/><path fill="#219864" id="AIp5" d="M60 201h3v-1l-1-3h-1l-2 4h1Z"/><path fill="#FF6F80" id="TH" d="m244 197-1 1 1-1Z"/><path fill="#CAC7CB" id="fiber tracts" d="m340 197-1 2 1-2Z"/><path fill="#A0EE9C" id="EPd" d="M77 231c0 2.461-3.378 2-5 2-1.012 0-5-7.673-5-9l3.5 4c.905 0-3.049-7.597-3.5-8.5-3.094-6.188-1-14.539-1-20.5l3-1 2 2 4 10.5c2.626 5.253 2 14.234 2 20.5Z"/><path fill="#A0EE9C" id="EPd" fill-rule="evenodd" d="M385 227c0 1.93 1.93 0 0 0m-6 4c1.087 0 2.433 2 5 2 1.222 0 5-6.549 5-8l-3 1.5 3-6c2.813-5.626 2-13.74 2-20.5 0-2.109-2.535-2-4-2l-1 1-1 1c0 3.435-2.496 8.491-4 11.5l-2 19.5Z"/><path fill="#219864" id="AIp5" d="m396 201 3 1-4-4-1 2 2 1Z"/><path fill="#C9C8CA" id="ee" d="M67 223v1l3.5 4c.905 0-3.049-7.597-3.5-8.5-3.094-6.188-1-14.539-1-20.5l-2 1-1 1v11l1 2 1 5 2 4Z"/><path fill="#CAC7CB" id="fiber tracts" d="m119 207 4 3c0-3.669-4-6.547-4-11h-2l2 8Z"/><path fill="#CACCCB" id="opt" d="M154 241h1c2.084 0 .144-3.356-.5-4l-9.5-10.5c-1.927-3.854-21.57-27.5-26-27.5 0 4.453 4 7.331 4 11l2 3c0 5.467 28 23.638 28 27l1 1Z"/><path fill="#FD909F" id="RE" d="M223 199c0 7.519 8.293 0 0 0ZM230 199c0 8.29 6.398 0 0 0Z"/><path fill="#CACCCB" id="opt" d="M330 215c-.84 0-25.725 26-28 26-1.331 0-1.557-3.471-.5-4 3.848-1.924 7.811-8.811 11.5-12.5l17-20 6.5-5.5c2.617 1.308-1.5 7.525-1.5 9l-1 1-1 1v1l-1 1v1l-1 1-1 1Z"/><path fill="#219666" id="AIp6b" d="m386 199-1 1 1-1Z"/><path fill="#32B824" id="ENTl6a" d="m64 200-1 1v-1h1Z"/><path fill="#F1473B" id="STN" d="M171 229h1l-1-5c0-6.071-12-9.754-12-15-.869 0-13-11.917-13-8 0 8.006 10.451 17.976 16.5 21 3.186 1.593 4.664 7 8.5 7ZM285 225v4c6.64 0 26-22.686 26-29l-5 1-1 1-1 1-3 2-1 1-1 1-1 1-1 1c0 4.91-12 9.164-12 16Z"/><path fill="#C9C8CA" id="ee" d="M389 224v1l-3 1.5 3-6c2.813-5.626 2-13.74 2-20.5h2v12l-2 8-1 2-1 2Z"/><path fill="#32B824" id="ENTl6a" d="M393 210h1c0-2.84 2-5.676 2-9l-2-1h-1v10Z"/><path fill="#219864" id="AIp5" d="m59 201-2 1 2-1Z"/><path fill="#31B824" id="ENTl5" d="m62 211-7 2c0-2.557-4-6.098-4-9v-1c2.124 0 4.436-1 6-1l2-1h1l2 9v1Z"/><path fill="#32B824" id="ENTl6a" d="M62 210h1v-9h-3l2 9Z"/><path fill="#E64438" id="HY" d="m306 201-1 1 1-1Z"/><path fill="#31B824" id="ENTl5" d="m394 211 8 2c0-3.083 3-5.545 3-9 0-.675-5.294-2-6-2l-3-1c0 3.324-2 6.16-2 9v1Z"/><path fill="#FF6F80" id="TH" d="m172 202 1 1-1-1ZM285 202l-1 1 1-1Z"/><path fill="#E64438" id="HY" d="m305 202-1 1 1-1Z"/><path fill="#32B725" id="ENTl3" d="m55 213-8 2-3-9 7-2c0 2.902 4 6.443 4 9ZM402 213l7 2c0-2.675 3-5.922 3-9 0-.675-5.294-2-6-2h-1c0 3.455-3 5.917-3 9Z"/><path fill="#80BEE1" id="CEAl" d="M106 207c0 5.283.965 15 9 15 0-2.421 2.411-6.678 1-9.5-.611-1.222-3-6.481-3-7.5-2.765 0-5.165 2-7 2Z"/><path fill="#7FC0E0" id="CEAm" d="M125 233c0 2.041-.959 3-3 3-3.593 0-4.42-8-9-8v-1l2-5c0-2.421 2.411-6.678 1-9.5-.611-1.222-3-6.481-3-7.5h1c2.09 0 1.552 5 5 5l2 2c0 7.416 4 13.283 4 21Z"/><path fill="#E64438" id="HY" d="m301 205-1 1 1-1Z"/><path fill="#7FC0E0" id="CEAm" d="m331 235 4 1c0-2.158 7.062-8 9-8v-1l-3-6v-11.5l2-4.5c-2.572 0-2.494 5-6 5l-2 3c0 7.926-4 13.927-4 22Z"/><path fill="#80BEE1" id="CEAl" d="M351 207c0 4.825-1.572 12.536-6.5 15l-3.5-1v-11.5l2-4.5c3.354 0 5.291 2 8 2Z"/><path fill="#32B825" id="ENTl2" d="M47 215c0 1.638-3.576 2-5 2 0-3.269-3-6.321-3-10l5-1 3 9Z"/><path fill="#E64438" id="HY" d="m300 206-1 1 1-1Z"/><path fill="#32B825" id="ENTl2" d="M409 215c1.974 0 3.517 2 6 2l2-10-5-1c0 3.078-3 6.325-3 9Z"/><path fill="#32B722" id="ENTl1" d="m42 217-3 2-5-10 4-2h1c0 3.679 3 6.731 3 10Z"/><path fill="#80BFE0" id="CEAc" d="m110 226 3 1 2-5c-8.035 0-9-9.717-9-15-2.569 0-7 3.045-7 6l2 4 6 6 3 3Z"/><path fill="#97D6F9" id="STR" d="M121 212c0-2.889 3.299 1 4 1l-2-3-4-3v3l2 2Z"/><path fill="#E64438" id="HY" d="m299 207-1 1 1-1Z"/><path fill="#80BFE0" id="CEAc" d="m347 226-3 1-3-6 3.5 1c4.928-2.464 6.5-10.175 6.5-15 2.985 0 6 3.061 6 6l-1 4-1 1-1 1-1 1-1 1-1 1-1 1-1 1-2 2Z"/><path fill="#32B722" id="ENTl1" d="M415 217c0 1.473 1.952 1 3 1 .855 0 4-7.665 4-9l-4-2h-1l-2 10Z"/><path fill="#E64438" id="HY" d="m298 208-1 1 1-1Z"/><path fill="#CAC7CB" id="fiber tracts" d="m335 208-1 1 1-1Z"/><path fill="#97D6F9" id="STR" d="M333 211c1.747 0 2 .253 2 2l2-3v-2h-2l-1 1-1 1v1Z"/><path fill="#CCCACB" id="nst" d="M175 220c0 4.703-.649 4-4 4 0-6.071-12-9.754-12-15 2.164 0 12 5.008 12 7l4 4ZM281 221c0 3.115.885 4 4 4 0-6.836 12-11.09 12-16-4.369 0-7.127 6-11 6l-1 1-3 4-1 1Z"/><path fill="#CAC7CB" id="fiber tracts" d="m334 209-1 1 1-1Z"/><path fill="#8AD987" id="CTXsp" d="M62 211h1v-1h-1v1Z"/><path fill="#C7C9CC" id="mtt" d="M210 215c0 2.989-2.938 6-6 6 0-2.404-3-4.649-3-8 0-4.843 6.173-2 8-2l1 4ZM247 215c0 2.8 1.875 6 5 6 0-1.495 3-4.137 3-8 0-4.601-4.83-2-7-2l-1 4Z"/><path fill="#8AD987" id="CTXsp" d="m394 211-1 1v-2h1v1Z"/><path fill="#6ACAB9" id="PIR" d="M87 275c-1.328 0-6.86 16-10 16-4.083 0-10.062-11.625-12-15.5-4.331-8.663-9.71-16.42-14-25-1.932-3.865-2.068-9.135-4-13-2.54-5.079-8-12.691-8-18.5l3-2c1.424 0 5-.362 5-2l8-2 7-2h1v1l1 2 1 5 2 4v1c0 1.327 3.988 9 5 9l1 2c0 8.93 13 24.617 13 31v1l1 1v7Z"/><path fill="#80BFE1" id="MEA" d="M129 269c0 1.878 6.137 13 8 13l7.5-5c16.377-8.188 15.5-12.454 15.5-28-1.222 0-5-6.549-5-8h-1l-1-1c0-3.362-28-21.533-28-27-.701 0-4-3.889-4-1 0 7.416 4 13.283 4 21 2.379 0 2 10.688 2 13v1c0 1.564 1 3.876 1 6l1 16Z"/><path fill="#E64438" id="HY" d="m229 228-2 1c0-3.838.867-5-2-5 0-11.141-7.309-9-15-9l-1-4h11.5l6 2 1-2c1.68-.84 2.764 3.118 5 2 4.496-2.248 9.038-2 14.5-2h1l-1 4c-6.299 0-16-2.273-16 8-2.868 0-2 2.688-2 5Z"/><path fill="#CAC7CB" id="fiber tracts" d="M332 212h1v-1l-1 1Z"/><path fill="#80BFE1" id="MEA" d="M327 269c0 4.853-7 8.688-7 13-3.094 0-21.316-13.131-23-16.5l-2-6c-1.813-3.626 2-7.64 2-10.5l5-8c2.275 0 27.16-26 28-26l1-1 1-1 1-1v-1c1.747 0 2 .253 2 2 0 7.926-4 13.927-4 22-2.627 0-2 9.736-2 12v8c0 4.129-2 9.74-2 14Z"/><path fill="#6ACAB9" id="PIR" d="M370 275c0 5.298 9 13.112 9 17 2.249 0 10.924-13.348 12-15.5 3.631-7.262 8.394-13.787 12-21 3.442-6.884 4.578-15.157 8-22 2.082-4.164 7-10.766 7-15.5-1.048 0-3 .473-3-1-2.483 0-4.026-2-6-2l-7-2-8-2-1 1-2 8-1 2-1 2v1c0 1.451-3.778 8-5 8l-1 2c0 9.364-12 23.796-12 30v1l-1 1v1l-1 2v2l1 3Z"/><path fill="#8AD987" id="CTXsp" d="m63 212 1 2-1-2Z"/><path fill="#97D6F9" id="STR" d="m333 212-1 1v-1h1Z"/><path fill="#E64438" id="HY" d="M204 221c-4.384 0-4.402 8-6 8 0-4.269-4.456-10-9-10 0-.934 5-.098 5-6h7c0 3.351 3 5.596 3 8ZM252 221c2.773 0 4.933 3.366 6 5.5.619 1.238-1.144 5.5 1 5.5 0-5.454 1.037-13 8-13 0-1.367-5-2.183-5-6h-7c0 3.863-3 6.505-3 8Z"/><path fill="#FD4B3C" id="PH" d="M220 240c-3.96 0-7.556 3-11 3-6.025 0-12 5.606-12-4v-5c1.473 0 1-1.952 1-3v-2c1.598 0 1.616-8 6-8 3.062 0 6-3.011 6-6 7.691 0 15-2.141 15 9 0 4.077-1 8.431-1 13l-4 3ZM236 240c3.802 0 8.737 3 11 3 10.424 0 12 7.244 12-7v-4c-2.144 0-.381-4.262-1-5.5-1.067-2.134-3.227-5.5-6-5.5-3.125 0-5-3.2-5-6-6.299 0-16-2.273-16 8 0 4.351 1 9.131 1 14l4 3Z"/><path fill="#97D6F9" id="STR" d="m331 214-1 1 1-1Z"/><path fill="#E64438" id="HY" d="m286 215-1 1 1-1ZM175 220l4 3c0-4.876 5.553-4 9-4 0-1.534-2.402-1-3.5-1-5.01 0-9.169-2-13.5-2l4 4ZM281 221c-2.215 0-1.519 2-3 2 0-4.302-5.72-4-9-4 0-1.534 2.402-1 3.5-1 4.677 0 8.418-2 12.5-2l-3 4-1 1Z"/><path fill="#9DE79B" id="BLAa" d="m113 237-10 5c-1.57 0-12-17.698-12-20v-1l1-1c0-5.177 7.217-2 9-2 0 1.77 4.902 5 6 5l3 3 1 3 2 3v5Z"/><path fill="#C8CBCC" id="ec" d="M101 218c0 1.77 4.902 5 6 5l-6-6v1ZM356 217l-1 1 1-1Z"/><path fill="#9DE79B" id="BLAa" d="m344 237 10 5c1.433 0 11-18.361 11-21 0-4.876-5.553-4-9-4l-1 1-1 1-1 1-1 1-1 1-1 1-1 1-2 2-2 4-1 1v1l-1 1v2l1 2Z"/><path fill="#C8CBCC" id="ec" d="m355 218-1 1 1-1Z"/><path fill="#A0EE9C" id="EPd" d="m65 219 2 4-2-4Z"/><path fill="#F2483A" id="LHA" d="M171 259h2c2.84 0 6.715-3 10-3l4-1c0-3.591 3.117-4 6-4l2-2.5c.882-1.765-.935-9.5 2-9.5v-5c0-1.048-.473-3 1-3v-2c0-4.269-4.456-10-9-10h-1c-3.447 0-9-.876-9 4 0 4.997 5.244 17-7 17-3.288 0-8 3.648-8 7 0 4.503 7 9.273 7 12ZM282 258l3 1c3.899 0 7-9.15 7-12 0-5.282-8-5.297-8-8-5.347 0-8-3.958-8-9 0-1.593.337-7 2-7 0-4.302-5.72-4-9-4h-2c-6.963 0-8 7.546-8 13v4c1.634 0 2.217 15 5 15 2.653 0 6 .879 6 4l3 1 9 2Z"/><path fill="#C8CBCC" id="ec" d="m354 219-1 1 1-1Z"/><path fill="#9DE69C" id="BLAp" d="m92 220-1 1 1-1Z"/><path fill="#F1483A" id="PSTN" d="M172 230v10c12.244 0 7-12.003 7-17l-4-3c0 4.703-.649 4-4 4l1 5v1ZM282 220l-1 1 1-1Z"/><path fill="#C8CBCC" id="ec" d="m353 220-1 1 1-1Z"/><path fill="#A0EE9C" id="EPd" d="m391 220-1 2 1-2Z"/><path fill="#F1483A" id="PSTN" d="M284 231v8c-5.347 0-8-3.958-8-9 0-1.593.337-7 2-7 1.481 0 .785-2 3-2 0 3.115.885 4 4 4v4l-1 2Z"/><path fill="#C8CBCC" id="ec" d="m352 221-1 1 1-1Z"/><path fill="#9DE69C" id="BLAp" d="M367 252h2l3-5 1-1c0-5.129-2.157-25-8-25 0 2.639-9.567 21-11 21l4 6 3 2 6 2ZM87 251l2 1 6-2 3-2 5-6c-1.57 0-12-17.698-12-20-7.502 0-7 20.712-7 25l3 4Z"/><path fill="#C8CBCC" id="ec" d="m351 222-1 1 1-1Z"/><path fill="#A0EE9C" id="EPd" d="m390 222-1 2 1-2Z"/><path fill="#FD5D50" id="PVi" d="M224 269h3v-40c0-3.838.867-5-2-5 0 4.077-1 8.431-1 13v32ZM229 269h3v-32c0-4.869-1-9.649-1-14-2.868 0-2 2.688-2 5v41Z"/><path fill="#C8CBCC" id="ec" d="m350 223-1 1 1-1Z"/><path fill="#97D6F9" id="STR" d="M111 229h1l1-1v-1l-3-1 1 3ZM344 230h1l2-4-3 1v3Z"/><path fill="#C9C8CA" id="ee" d="M385 227c0 1.93 1.93 0 0 0Z"/><path fill="#80BEE2" id="IA" d="M115 237c0 2.939 5.475 6 8 6 5.14 0-1-5.133-1-7-3.593 0-4.42-8-9-8l-1 1 1 3v3l2 2Z"/><path fill="#A8A9AA" id="V3" d="M225 290c0 2.768 6.241 0 7 0v-1l-2-3.5-1-16.5v-41l-2 1v55.5l-2 4.5v1Z"/><path fill="#80BEE2" id="IA" d="M333 243h1c1.45 0 7-3.126 7-5l1-1 1-2v-2l1-1v-4c-1.938 0-9 5.842-9 8 0 1.662-7.435 7-2 7Z"/><path fill="#8AD987" id="CTXsp" d="m112 229 1 3-2-3h1Z"/><path fill="#E64438" id="HY" d="M172 229v1l-1-1h1ZM285 229l-1 2 1-2Z"/><path fill="#8AD987" id="CTXsp" d="m345 230-1 1v-1h1ZM73 235h5c0-1.145.58-4-1-4 0 2.461-3.378 2-5 2l1 2Z"/><path fill="#E64438" id="HY" d="M198 231c-1.473 0-1 1.952-1 3 1.473 0 1-1.952 1-3Z"/><path fill="#8AD987" id="CTXsp" d="M378 235h5l1-2c-2.567 0-3.913-2-5-2l-1 4ZM344 232l-1 1 1-1Z"/><path fill="#97D6F9" id="STR" d="m125 245 2 1c0-2.312.379-13-2-13 0 2.041-.959 3-3 3 0 1.867 6.14 7 1 7l2 2Z"/><path fill="#A0ED9D" id="EPv" d="M86 266h1l1-12-1-3-3-4-3-4-1-1-1-6-1-1h-5c0 8.93 13 24.617 13 31ZM369 265h2c0-6.204 12-20.636 12-30h-5l-1 2v3l-1 1c0 1.408-1.197 5-3 5l-1 1-3 5-1 1c0 3.531 1 7.893 1 12Z"/><path fill="#8AD987" id="CTXsp" d="M113 237h2l-2-2v2Z"/><path fill="#97D6F9" id="STR" d="m330 246-1 1c0-2.264-.627-12 2-12l4 1c0 1.662-7.435 7-2 7v1l-1 1h-1l-1 1Z"/><path fill="#8AD987" id="CTXsp" d="M342 237h2l-1-2-1 2Z"/><path fill="#E64438" id="HY" d="M244 265c6.356 0 15 2.388 15 10 1.984 0 3.21-7.92 4-9.5 1.036-2.072 6-6.329 6-7.5-10.513 0-5-3.094-5-7-2.783 0-3.366-15-5-15 0 14.244-1.576 7-12 7 0 4.042 7.778 7.944 5 13.5-.642 1.284-.406 2.813-1 4l-7 4.5Z"/><path fill="#84E981" id="BMAp" d="M126 256c-6.132 0-10.354 10-17 10 0-1.533-9.791-15-11-15v-3l5-6 10-5h2c0 2.939 5.475 6 8 6l2 2 2 2c0 1.564 1 3.876 1 6l-1 2-1 1Z"/><path fill="#E64438" id="HY" d="m220 240 4 1v-4l-4 3ZM236 240l-4 1v-4l4 3Z"/><path fill="#8AD987" id="CTXsp" d="m342 237-1 1 1-1Z"/><path fill="#84E981" id="BMAp" d="m348 265-1 1c-5.121 0-14.379-11-17-11h-1v-8l1-1 1-1h1l1-1 1-1c1.45 0 7-3.126 7-5l1-1h2l10 5 4 6 1 2-1 1c-1.752 0-10 11.998-10 14Z"/><path fill="#E64438" id="HY" d="M213 265c-4.223 0-7.055.278-10.5 2-2.265 1.133-4.563 8-5.5 8 0-3.695-4.225-11.725-7-14.5l-7-4.5 4-1c0 4.222 5.176 4.148 7 .5l-1-4.5 2-2.5c.882-1.765-.935-9.5 2-9.5 0 9.606 5.975 4 12 4 0 4.471-7.207 10.086-4 16.5 1.243 2.486 8 3.946 8 5.5Z"/><path fill="#CAC7CB" id="fiber tracts" d="m153 240 1 1-1-1Z"/><path fill="#FE5445" id="DMH" d="m216 266 8 2v-27l-4-1c-3.96 0-7.556 3-11 3 0 4.471-7.207 10.086-4 16.5 1.243 2.486 8 3.946 8 5.5l3 1ZM232 267h7l1-1 4-1 7-4.5c.594-1.187.358-2.716 1-4 2.778-5.556-5-9.458-5-13.5-2.263 0-7.198-3-11-3l-4 1v26Z"/><path fill="#C8C9CB" id="amc" d="m377 240-1 1 1-1ZM80 242l1 1-1-1Z"/><path fill="#8AD987" id="CTXsp" d="m334 243-1 1v-1h1ZM333 244l-1 1 1-1ZM127 246v1l-2-2 2 1ZM331 245l-1 1 1-1Z"/><path fill="#90EB8D" id="LA" d="m373 246-1 1 1-1Z"/><path fill="#8AD987" id="CTXsp" d="m95 250 3 1v-3l-3 2ZM359 250h2l-3-2 1 2Z"/><path fill="#9CE79C" id="BLAv" d="m99 278-2 1-8-4-2-4v-5l1-12 1-2 6-2 3 1c1.209 0 11 13.467 11 15v4l-2 3-8 5Z"/><path fill="#8AD987" id="CTXsp" d="m359 250-1 1 1-1Z"/><path fill="#9CE79C" id="BLAv" d="m357 278 3 1 7-4c0-1.238.423-3 2-3v-7c0-4.107-1-8.469-1-12l-1-1-6-2h-2l-1 1c-1.752 0-10 11.998-10 14l-1 1v4l2 3 8 5Z"/><path fill="#8AD987" id="CTXsp" d="m89 252-1 2-1-3 2 1Z"/><path fill="#C7C8CA" id="fx" d="M193 251c-2.883 0-6 .409-6 4 0 4.222 5.176 4.148 7 .5l-1-4.5ZM270 255l-1 3c-10.513 0-5-3.094-5-7 2.653 0 6 .879 6 4Z"/><path fill="#8AD987" id="CTXsp" d="m369 252-1 1-1-1h2Z"/><path fill="#97EC93" id="PA" d="M107 273h9c0-4.337 9.929-4 13-4l-1-16-1 2-1 1-2 4c1.22 0 1.504 3.492 1 4.5-.959 1.917-10 5.141-10 2.5-2.813 0-3.921 3-6 3l-2 3Z"/><path fill="#8AD987" id="CTXsp" d="m127 255-1 1 1-1Z"/><path fill="#E64438" id="HY" d="m273 256-4 2 1-3 3 1Z"/><path fill="#97EC93" id="PA" d="M341 273h8l-2-3-6-4c0 4.011-8.694 1.112-10-1.5-.504-1.008-.22-4.5 1-4.5l-2-5h-1c0 4.129-2 9.74-2 14 3.102 0 14-.282 14 4Z"/><path fill="#8AD987" id="CTXsp" d="M347 266v4l-6-4c0-1.645-7.118-6-9-6l-2-5c2.621 0 11.879 11 17 11ZM115 267c-2.813 0-3.921 3-6 3v-4c6.646 0 10.868-10 17-10l-2 4c-2.008 0-9 4.493-9 7Z"/><path fill="#F24839" id="TU" d="m208 288-1 1c-16.498 0-19.429-5.358-26-18.5l-8-9.5v-2c2.84 0 6.715-3 10-3l7 4.5c2.775 2.775 7 10.805 7 14.5v1l1 1c0 3.313 2.973 6 6 6l4 4v1ZM253 283c0 1.82-4 2.097-4 6 16.419 0 19.369-4.237 26-17.5 1.742-3.484 8-7.254 8-10.5l-1-3-9-2-4 2c0 1.171-4.964 5.428-6 7.5-.79 1.58-2.016 9.5-4 9.5 0 3.14-2.256 8-6 8Z"/><path fill="#E64438" id="HY" d="m285 259-2 2-1-3 3 1ZM173 259v2l-2-2h2Z"/><path fill="#84EA80" id="BMAa" d="M124 260c1.22 0 1.504 3.492 1 4.5-.959 1.917-10 5.141-10 2.5 0-2.507 6.992-7 9-7ZM332 260c1.882 0 9 4.355 9 6 0 4.011-8.694 1.112-10-1.5-.504-1.008-.22-4.5 1-4.5Z"/><path fill="#FF4A3D" id="VMH" d="M212 281c-2.709 0-4.646 2-8 2-3.027 0-6-2.687-6-6l-1-1v-1c.937 0 3.235-6.867 5.5-8 3.445-1.722 6.277-2 10.5-2l3 1c0 1.984 3.278 3.945 2 6.5-1.07 2.14-4 3.942-4 6.5l-1 1-1 1ZM259 275c0 3.14-2.256 8-6 8-9.412 0-14-7.294-14-16l1-1 4-1c6.356 0 15 2.388 15 10Z"/><path fill="#8AD987" id="CTXsp" d="m348 265-1 1 1-1ZM369 268h1v-1l1-1v-1h-2v3ZM86 267h1v-1h-1v1Z"/><path fill="#E64438" id="HY" d="M224 269c0 1.189-8.007 10-10 10 0-2.558 2.93-4.36 4-6.5 1.278-2.555-2-4.516-2-6.5l8 2v1ZM240 266l-1 1 1-1Z"/><path fill="#99D2BD" id="OLF" d="m371 266-1 1 1-1ZM87 267v1l-1-1h1Z"/><path fill="#E64438" id="HY" d="M248 289h1c0-3.903 4-4.18 4-6-9.412 0-14-7.294-14-16h-7v2c0 5.436 16 10.564 16 20Z"/><path fill="#99D2BD" id="OLF" d="m370 268-1 2v-2h1Z"/><path fill="#60E6B5" id="COApm" d="m137 282-15 10c-1.59 0-1.443-4.386-2-5.5-2.16-4.319-4-8.237-4-13.5 0-4.337 9.929-4 13-4 0 1.878 6.137 13 8 13Z"/><path fill="#FF5B4F" id="ARH" d="M223 290c-1.987 0-6-3.823-6 1-3.091 0-5.478-2-8-2l-1-1v-1l4-6 1-1 1-1c1.993 0 10-8.811 10-10h3v15.5l-2 4.5-2 1ZM233 290c1.987 0 6-3.823 6 1 3.447 0 6.245-2 9-2 0-9.436-16-14.564-16-20h-3l1 16.5 2 3.5 1 1Z"/><path fill="#60E6B5" id="COApm" d="m320 282 14 10c2.871 0 1.315-3.13 2-4.5 2.15-4.299 5-9.373 5-14.5 0-4.282-10.898-4-14-4 0 4.853-7 8.688-7 13Z"/><path fill="#99D2BD" id="OLF" d="M87 275h2l-2-4v4Z"/><path fill="#5FE6B7" id="COApl" d="M97 299v2c4.505 0 25-4.873 25-9-1.59 0-1.443-4.386-2-5.5-2.16-4.319-4-8.237-4-13.5h-9l-8 5-1 3c0 6.102-1 12.479-1 18ZM360 300l-1 1c-4.325 0-25-5.043-25-9 2.871 0 1.315-3.13 2-4.5 2.15-4.299 5-9.373 5-14.5h8l8 5 2 3c0 6.344 1 13.059 1 19Z"/><path fill="#99D2BD" id="OLF" d="M367 275h3l-1-3c-1.577 0-2 1.762-2 3Z"/><path fill="#59D9AA" id="PAA" d="m97 299-1 1c-4.48 0-19-3.79-19-9 3.14 0 8.672-16 10-16h2l8 4 1 2c0 6.102-1 12.479-1 18ZM379 292c0 4.614-14.654 8-19 8 0-5.941-1-12.656-1-19l1-2 7-4h3c0 5.298 9 13.112 9 17Z"/><path fill="#E64438" id="HY" d="m197 276 1 1-1-1Z"/><path fill="#99D2BD" id="OLF" d="m97 279 1 2 1-3-2 1ZM360 279l-1 2-2-3 3 1Z"/><path fill="#E64438" id="HY" d="m214 279-1 1 1-1ZM213 280l-1 1 1-1ZM204 283l4 4 4-6c-2.709 0-4.646 2-8 2ZM207 289h2l-1-1-1 1Z"/><path fill="#F1473A" id="ME" d="M217 291c0 8.443 22 8.705 22 0 0-4.823-4.013-1-6-1h-1c-.759 0-7 2.768-7 0h-2c-1.987 0-6-3.823-6 1Z"/><path fill="#E64438" id="HY" d="M223 290h2v-1l-2 1ZM232 290h1l-1-1v1Z"/><path fill="#99D2BD" id="OLF" d="m96 300 1 1v-2l-1 1ZM360 300l-1 1 1-1Z"/></svg>