<svg xmlns="http://www.w3.org/2000/svg" viewBox="0 0 456 320"><path fill="#FF64FF" id="MB" d="M190 47h12c0-1.638-12-1.638-12 0ZM254 47h12c0-1.638-12-1.638-12 0ZM184 48h3l2-1c-1.235 0-5-.643-5 1Z"/><path fill="#FE79FF" id="ICd" d="m199 101-7 8-5-6.5c-2.982-5.965-3.088-13.175-6-19-1.303-2.605 5-27.337 5-32.5l1-3 2-1h15c0 1.188 14.628 4.243 11 11.5-3.645 7.29-3.322 16.644-7 24-2.19 4.38-7 10.433-7 15.5-1.577 0-2 1.762-2 3Z"/><path fill="#FF64FF" id="MB" d="m269 119 3 1c0-3.559-7-6.513-7-11-2.799 0-7.678-8.855-9-11.5-3.65-7.3-18.28-35.44-14-44 1.254-2.508 11-5.406 11-6.5-6.825 0-14.658 3.158-19.5 8l-4.5 6.5-.5 3.5-5-10c-4.539-4.54-13.065-8-19.5-8 0 1.188 14.628 4.243 11 11.5-3.645 7.29-3.322 16.644-7 24-2.19 4.38-7 10.433-7 15.5 2.56 0 6.053-8.606 7-10.5 3.832-7.665 9.143-12.822 16.5-16.5 2.547-1.273 2.278 2.86 4 2l3-2c10.537 5.268 22.102 22.704 27.5 33.5 1.152 2.304 7.345 14.5 10 14.5Z"/><path fill="#FE79FF" id="ICd" d="M271 52c-1.251 0-1.536 4.427-1 5.5 2.263 4.525 5 13.353 5 18.5 0 6.474.691 14.119-2 19.5-1.833 3.666-8 10.24-8 13.5-2.799 0-7.678-8.855-9-11.5-3.65-7.3-18.28-35.44-14-44 1.254-2.508 11-5.406 11-6.5h14l2 1 2 4Z"/><path fill="#FF64FF" id="MB" d="m269 48 6 1c0-2.488-6.101-2-8-2l2 1ZM184 48c-1.048 0-3-.473-3 1 1.048 0 3 .473 3-1Z"/><path fill="#FE79FE" id="ICe" d="M147 84c0 3.534-.564 5.629-2 8.5v8.5c0 14.363 6.191 24 20 24 0-1.186-3.346-5.192-4-6.5l-2-23c2.65-5.3 3.338-11.676 6-17 2.771-5.542 7.589-11.178 10-16 1.504-3.008 6.838-11.5 11-11.5l1-3h-3c0 1.473-1.952 1-3 1-2.367 0-18 8.806-18 11l-1 1-1 1-1 1-1 1-1 1-1 1-1 2-1 1-1 1-1 3-2 2c0 1.85-1.784 9-4 9ZM303 72c0 3.087 4.572 8.645 6 11.5 7.39 14.78 2.794 41.5-17 41.5l3-4.5c1.465-2.93.506-7.011 2-10 5.638-11.277-7.796-34.592-12-43-1.913-3.825-8.53-15.5-14-15.5l-2-4 6 1h2l1 1c2.332 0 17 9.18 17 12l1 1 1 1 4 4v1l2 2v1Z"/><path fill="#FF64FF" id="MB" d="m277 49 1 1-1-1Z"/><path fill="#FE7AFE" id="ICc" d="M174 125h2l1-1h1l1-1 4-2 1-1 2-1 6-10-5-6.5c-2.982-5.965-3.088-13.175-6-19-1.303-2.605 5-27.337 5-32.5-4.162 0-9.496 8.492-11 11.5-2.411 4.822-7.229 10.458-10 16-2.662 5.324-3.35 11.7-6 17l2 23c.654 1.308 4 5.314 4 6.5h9ZM282 125h10l3-4.5c1.465-2.93.506-7.011 2-10 5.638-11.277-7.796-34.592-12-43-1.913-3.825-8.53-15.5-14-15.5-1.251 0-1.536 4.427-1 5.5 2.263 4.525 5 13.353 5 18.5 0 6.474.691 14.119-2 19.5-1.833 3.666-8 10.24-8 13.5 0 4.487 7 7.441 7 11l2 1 2 2h1l4 2h1Z"/><path fill="#FF64FF" id="MB" d="m163 60-1 1 1-1ZM162 61l-1 1 1-1ZM161 62l-1 1 1-1ZM295 62l1 1-1-1ZM160 63l-1 1 1-1Z"/><path fill="#098589" id="VISp1" d="M119 79h1l1-1c0-4.521 8.909-6.682 6-12.5-2.919-5.838-24 4.546-24 8.5 5.705 0 9.943 5 16 5Z"/><path fill="#FF64FF" id="MB" d="m297 64 4 4-4-4Z"/><path fill="#098589" id="VISp1" d="M353 74c-5.403 0-10.043 5-16 5-2.993 0-8.686-10.129-7-13.5 2.752-5.504 23 4.455 23 8.5Z"/><path fill="#FF64FF" id="MB" d="m158 65-1 1 1-1ZM156 68l-1 1 1-1ZM155 69l-1 1 1-1ZM301 69l2 2-2-2Z"/><path fill="#FC8FFF" id="PAG" fill-rule="evenodd" d="m263 143-1 2.5c0 3.348 6.539-2.5 1-2.5m-71 0c0 8.12 3.917 0 0 0m64 9h6l1-2 1-1 4-4 1-2 1-2v-5c0-5.909-1-11.579-1-17-2.655 0-8.848-12.196-10-14.5-5.398-10.796-16.963-28.232-27.5-33.5l-3 2c-1.722.86-1.453-3.273-4-2-7.357 3.678-12.668 8.835-16.5 16.5-.947 1.894-4.44 10.5-7 10.5 0 1.238-.423 3-2 3 0 4.544-5.901 10.302-8 14.5l-4 4.5c0 6.436-1 10.914-1 17l1 4v1l1 1v1l1 2 5 6h7c0-3.851 16-11.114 16-2 3.137 0 5.591 4 8 4v-6l-1-1c-3.966 0-5.129-4.815-7.5-6-17.651-8.825-8.446-32.777 6-40l6-6 7 7c8.657 4.328 18.27 21.96 13.5 31.5l-7 6c-2.594 2.594-6.357 7.5-10 7.5v7l8-5c0-7.141 10.3-1.1 12.5 0l3.5 3Z"/><path fill="#FF64FF" id="MB" d="m308 130-4 1c0-7.837-22-1.121-22-6h10c19.794 0 24.39-26.72 17-41.5-1.428-2.855-6-8.413-6-11.5l2 1c0 1.977 6.682 15.865 8 18.5 1.034 2.068.181 14.5 3 14.5 0 5.721-.63 11.761-3 16.5-1.169 2.337-4 3.673-4 6.5l-1 1Z"/><path fill="#C9C8C8" id="bic" d="M147 84c-1.59 0-1.443 4.386-2 5.5-2.115 4.23-4 11.685-4 16.5-1.247 0-1.675-8.15-1-9.5 2.041-4.082 6.421-23.5 11-23.5v2c-2.216 0-4 7.15-4 9Z"/><path fill="#FF64FF" id="MB" d="m153 73-2 2v-2h2Z"/><path fill="#C9C8C8" id="bic" d="M305 73c5.834 0 9.706 21.912 12 26.5l-1 6.5c-2.819 0-1.966-12.432-3-14.5-1.318-2.635-8-16.523-8-18.5Z"/><path fill="#0A838A" id="VISpl1" d="m104 97-25 1c0-2.719 4.002-4.502 6-6.5C88.085 88.415 98.908 74 103 74c5.705 0 9.943 5 16 5 0 2.987-8.336 10.835-11.5 14l-3.5 4ZM353 97c9.051 0 17.826 2 26 2l-7-7.5c-4.17-4.17-14.597-17.5-19-17.5-5.403 0-10.043 5-16 5l16 18Z"/><path fill="#FF64FF" id="MB" d="M151 75c-2.216 0-4 7.15-4 9 2.216 0 4-7.15 4-9Z"/><path fill="#1BA696" id="RSPagl1" d="m121 78-1 1 1-1Z"/><path fill="#FF64FF" id="MB" d="m149 130 4 2c0-10.225 21-1.324 21-7h-9c-13.809 0-20-9.637-20-24v-8.5c1.436-2.871 2-4.966 2-8.5-1.59 0-1.443 4.386-2 5.5-2.115 4.23-4 11.685-4 16.5 0 5.56-.291 10.918 2 15.5l6 8.5Z"/><path fill="#A9A9A8" id="AQ" d="M225 147h7c3.643 0 7.406-4.906 10-7.5l7-6c4.77-9.54-4.843-27.172-13.5-31.5l-7-7-6 6c-14.446 7.223-23.651 31.175-6 40 2.371 1.185 3.534 6 7.5 6h1Z"/><path fill="#72D568" id="PAR" d="M71 108c2.782 0 26-3.235 26 1l7-12-25 1-1 1c-1.592 0-7 7.61-7 9ZM385 108c-5.9 0-13.427-1-20-1-1.357 0-6 .647-6 2l-6-12c9.051 0 17.826 2 26 2l6 9Z"/><path fill="#0A838A" id="VISpl1" d="m79 98-1 1 1-1Z"/><path fill="#FF64FF" id="MB" d="M201 98c-1.577 0-2 1.762-2 3 1.577 0 2-1.762 2-3ZM186 119l1 1 4-4.5c2.099-4.198 8-9.956 8-14.5l-7 8-6 10Z"/><path fill="#FDFB8F" id="SIM" d="M140 127c-3.393 0-6.882 9.265-8 11.5-3.959 7.918-13.061 33.5-23 33.5-5.659 0-11-15.673-11-20.5 0-13.703 13.534-27.069 19-38l6-6c2.788-5.576 16-1.051 16 4.5l1 1v14ZM317 127l7 9.5c4.027 8.053 12.91 35.5 23 35.5l10-10.5 1-6c4.023-8.046-14.144-37.144-20.5-43.5-5.568-5.568-11.02-9.98-17.5-3.5-1.977 1.977-3 2.699-3 5.5 0 1.048.473 3-1 3v5l1 1v4Z"/><path fill="#31B625" id="ENTm1" d="M71 108c2.782 0 26-3.235 26 1 0 6.774-5.156 12.812-8 18.5-3.918 7.836-4.534 31.017-13.5 35.5-4.722 2.361-10.94-4.381-12.5-7.5-5.032-10.064-1.533-28.934 3-38l5-9.5ZM385 108c-5.9 0-13.427-1-20-1-1.357 0-6 .647-6 2 0 5.67 5.544 12.588 8 17.5l4 18 7 15c3.591 7.181 12.46 2.08 15-3 4.798-9.597 2.398-28.204-2-37l-6-11.5Z"/><path fill="#F0F080" id="CB" d="m139 112 1 1-1-1ZM317 114c-1.473 0-1 1.952-1 3 1.473 0 1-1.952 1-3Z"/><path fill="#FC90FF" id="CUN" d="M171 144h1l1-1h1c3.894 0 6.605-2 10-2l1-1c0-1.048-.473-3 1-3 0-6.086 1-10.564 1-17l-1-1-2 1-1 1-4 2-1 1h-1l-1 1h-2c0 5.676-21-3.225-21 7 0 3.527 3.341 10 7 10 3.378 0 6.922 2 11 2ZM283 143h12l1-1c4.283 0 8-7.53 8-11 0-7.837-22-1.121-22-6h-1l-4-2h-1l-2-2-2-1-3-1c0 5.421 1 11.091 1 17 1.579 0 1 2.855 1 4l1 1h2l1 1 7 1h1Z"/><path fill="#FF64FF" id="MB" d="m184 120-1 1 1-1ZM274 121l2 2-2-2Z"/><path fill="#F0F080" id="CB" d="m316 122 1 1-1-1Z"/><path fill="#FF64FF" id="MB" d="m179 123-1 1 1-1ZM277 123l4 2-4-2ZM177 124l-1 1 1-1Z"/><path fill="#F0F080" id="CB" d="M316 127h1v-1l-1 1Z"/><path fill="#FCFB90" id="CUL4, 5" fill-rule="evenodd" d="M133 162c0 1.93 1.93 0 0 0m2 17 6 2 4-3c0-3.455 3-5.917 3-9l1-1v-1l1-1 1-3c0-7.651 6.081-16.339 2-24.5l-5.5-8.5c-1.069-.534-7.5-2.17-7.5-3-3.393 0-6.882 9.265-8 11.5-3.959 7.918-13.061 33.5-23 33.5v1c6.363 0 11.607 1.947 17.5-1l6-8c2.063 0-2.775 7.949-2.5 8.5 1.295 2.589 5 3.708 5 6.5Z"/><path fill="#F0F080" id="CB" d="m155 159-4 4c0-7.651 6.081-16.339 2-24.5l-5.5-8.5c-1.069-.534-7.5-2.17-7.5-3 3.679 0 6.067 3 9 3l4 2c0 3.527 3.341 10 7 10l4 6c-3.172 0-9 8.141-9 11ZM316 127c-1.145 0-4-.579-4 1 1.145 0 4 .579 4-1Z"/><path fill="#FCFB90" id="CUL4, 5" fill-rule="evenodd" d="M322 161c0 1.93 1.93 0 0 0m-1 18-5 2c-2.021 0-10-14.205-10-16 0-6.722-6.808-17.884-3-25.5 1.442-2.884 5-6.128 5-9.5l2-1 2-1c1.145 0 4 .579 4-1h1l7 9.5c4.027 8.053 12.91 35.5 23 35.5v1c-5.063 0-10.701 2.399-15.5 0l-6.5-6.5-1.5-3.5c-1.534 0 3.253 8.995 2.5 10.5l-5 5.5Z"/><path fill="#F0F080" id="CB" d="m312 128-2 1 2-1ZM310 129l-2 1 1-1h1ZM292 148c5.4 0 13.087 17 14 17 0-6.722-6.808-17.884-3-25.5 1.442-2.884 5-6.128 5-9.5l-4 1c0 3.47-3.717 11-8 11l-1 1c0 2.518-3 2.334-3 5Z"/><path fill="#FF64FF" id="MB" d="M270 141h1v-1c0-1.145.579-4-1-4v5ZM186 141h1l-1-4c-1.473 0-1 1.952-1 3l1 1Z"/><path fill="#FF9B88" id="P" d="M184 141h2l-1-1-1 1ZM271 141h1l-1-1v1Z"/><path fill="#FFAD6D" id="PB" d="M157 187h2l10-1 1-1h1c4.505 0 14.648-2.796 17-7.5 1.942-3.884-3-9.831-3-13.5-3.59 0-17.124 10.812-21.5 13-1.941.97-4.257 5.372-7 4-2.073-1.037 3.161-5.161 4-6 3.813-3.813 12.217-12 17.5-12l1-1 2-1 2-1 3-7 1-1 1-8v-1l-1-1v-1h-3c-3.395 0-6.106 2-10 2l-1 1h-1l-1 1-1 1-2 1-1 1v1l-1 1-1 1-4 6-1 1-1 1-1 1-1 1c0 2.636-5.709 9.917-7 12.5l-2 2.5v2c4.175 0 9 4.91 9 9ZM298 187h1l1-4 1-1 8-4v-1c0-3.092-12-16.302-12-18l-1-1-1-1c0-2.364-3-3.053-3-5l-1-1v-1l-3-3-1-1-1-1h-1l-1-1h-1l-1-1-7-1-1-1h-4l-1 2c0 3.013 1 6.611 1 9l3 7 2 2h1l2 2c6.777 0 12.707 9.104 18.5 12 .865.433 5.119 5.441 4 6-4.383 2.192-23.182-17-29.5-17 0 4.124-5.684 13.908.5 17 2.329 1.165 5.706.853 8 2 2.14 1.07 3.887 2 6.5 2h1l1 1 10 1Z"/><path fill="#FF9B88" id="P" d="m274 141 1 1-1-1Z"/><path fill="#FF64FF" id="MB" d="M165 150h1l1-1v-1l1-1 2-1 1-1v-1c-4.078 0-7.622-2-11-2l4 6 1 1v1Z"/><path fill="#FF9B88" id="P" d="m187 142 1 1-1-1Z"/><path fill="#FF64FF" id="MB" d="m296 142-1 1 1-1ZM172 144h1v-1l-1 1Z"/><path fill="#FF9B88" id="P" d="m174 143-1 1v-1h1Z"/><path fill="#C8C9C8" id="IVn" d="M192 143c0 8.12 3.917 0 0 0ZM263 143l-1 2.5c0 3.348 6.539-2.5 1-2.5Z"/><path fill="#FF9B88" id="P" fill-rule="evenodd" d="M224 263h2c0-3.133-1.591-13.455 1.5-15l3.5 3c0-4.119 4-8.112 4-13v-6c0-2.148-.254-19.992 0-20.5 1.307-2.614 2-5.334 2-8.5.847 0 5.375-6.938 7.5-8 2.937-1.468 24.153-8.194 26.5-3.5v7.5l2-2c0-5.454 1.527-8.513 6.5-11 1.324-.662 6.5 1.207 6.5-1-2.613 0-4.36-.93-6.5-2-2.294-1.147-5.671-.835-8-2-6.184-3.092-.5-12.876-.5-17l-3-1.5c-.918-1.835-.476-10.5 2-10.5 0-2.389-1-5.987-1-9l-1 2c0 4.64-1.136 7-6 7h-6c0 4.509 14.068 25 2 25 0 2.022-20.041 15-22.5 15-3.58 0-4.275-7-5.5-7h-4c0 16.615-28-6.47-28-8-12.485 0 3-20.911 3-25h-7c-4.789 0-5-1.546-5-6l-1-2-1 8c1.392 0 2.717 12-2 12 0 3.669 4.942 9.616 3 13.5-2.352 4.704-12.495 7.5-17 7.5 0 1.344 7.273 1.387 8.5 2 4.428 2.214 3.5 6.809 3.5 10l2 2v-6.5c3.464-6.928 29.545 2.09 32 7 4.747 9.494 4 20 4 31.5v7c0 3.924 2.329 8.158 4 11.5 1.616 3.232-1 8.676-1 11.5v2m13-60v-5.5c0-8.665-4.303 7.5-1.5 7.5l1.5-2m-15-1c1.904 0 .189-5.844 2.5-7 3.237-1.619 2.547 4 4 4 1.109 0-.27-6.135 4-4 4.235 2.117 1.333 19.333-2 21-2.734 1.367-.657-15-2-15l-.5 3.5c0 1.685 1.001 11.5-1.5 11.5-3.25 0-4.5-8.849-4.5-11-7.132 0 0-16.402 0-6v3m44-41c2.026 0 1.071-9.785-2.5-8-6.214 3.107.5 13.038.5 10 3.162 0 2 .109 2-2m-76 0c0 1.747.253 2 2 2 0 3.016 7.096-6.702.5-10-3.201-1.601-2.5 6.669-2.5 8Z"/><path fill="#FF9B88" id="P" d="M283 143v1l-1-1h1Z"/><path fill="#FF64FF" id="MB" d="M291 151h1v-3c0-2.666 3-2.482 3-5h-12v1h1l1 1h1l1 1 1 1 3 3v1Z"/><path fill="#FF9B88" id="P" d="m172 144-1 1v-1h1ZM284 144l1 1-1-1ZM171 145l-1 1 1-1Z"/><path fill="#FEC395" id="LDT" d="M211 168c-.412 0-4.868 9-13 9-12.485 0 3-20.911 3-25 0-3.851 16-11.114 16-2l-3 9-1 1-1 5-1 2v1ZM245 167c.332 0 4.877 10 13 10 12.068 0-2-20.491-2-25l-3.5-3c-2.2-1.1-12.5-7.141-12.5 0 0 4.076 3 7.661 3 11v1l1 1v2l1 1v2Z"/><path fill="#FF64FF" id="MB" d="m263 150-1 2c4.864 0 6-2.36 6-7l-4 4-1 1Z"/><path fill="#FF9B88" id="P" d="m286 145 1 1-1-1Z"/><path fill="#FF64FF" id="MB" d="m189 146 5 6c-4.789 0-5-1.546-5-6Z"/><path fill="#FF9B88" id="P" d="m168 147-1 1 1-1Z"/><path fill="#FF64FF" id="MB" d="M225 147v1l-1-1h1Z"/><path fill="#AAA9A7" id="V4" d="M232 148c-1.819 0-4.591 1-7 1v-2h7v1Z"/><path fill="#FF9B88" id="P" d="m288 147 3 3-3-3Z"/><path fill="#CBC9CC" id="arb" d="M164 151c-4.971 0-5.011 8-9 8 0-2.859 5.828-11 9-11l1 1-1 2Z"/><path fill="#FF64FF" id="MB" d="M225 151c2.273 0 2.311 5 3.5 5 .986 0 .616-5 3.5-5v-3c-1.819 0-4.591 1-7 1v2Z"/><path fill="#CBC9CC" id="arb" d="M314 182h2v-1c-2.021 0-10-14.205-10-16-.913 0-8.6-17-14-17v3c4.131 0 5.61 5.11 8.5 8l2 4-5.5-4c0 1.698 12 14.908 12 18l1 1 4 4Z"/><path fill="#F0F080" id="CB" d="M164 151h1v-2l-1 2Z"/><path fill="#FF9B88" id="P" d="m167 149-1 1 1-1Z"/><path fill="#FFBA84" id="PCG" d="M243 160c-2.551 0-3.979-6.26-8.5-4-1.949.974-4.77 7-5.5 7 0-3.817 3-6.124 3-9l8-5c0 4.076 3 7.661 3 11Z"/><path fill="#FF79FE" id="MEV" d="m264 149-1 1 1-1Z"/><path fill="#FF9B88" id="P" d="m166 150-1 1v-1h1Z"/><path fill="#FFBA84" id="PCG" d="M214 159c2.456 0 3.911-4.795 7.5-3l5.5 5c0-3.066-2-4.417-2-7-2.409 0-4.863-4-8-4l-3 9Z"/><path fill="#CBC7CC" id="sctv" d="m158 160-1 1c-4.045 0-2 3.151-2-2 3.989 0 4.029-8 9-8h1l-4 6-1 1-1 1-1 1Z"/><path fill="#FF9B88" id="P" d="M227 165c.675 0 2 6.632 2 4v-6c0-3.817 3-6.124 3-9v-3c-2.884 0-2.514 5-3.5 5-1.189 0-1.227-5-3.5-5v3c0 2.583 2 3.934 2 7v4ZM292 151v1l-1-1h1Z"/><path fill="#CBC7CC" id="sctv" d="m296 158 1 1 5.5 4-2-4c-2.89-2.89-4.369-8-8.5-8v1c0 1.947 3 2.636 3 5l1 1Z"/><path fill="#FF9B88" id="P" d="m187 152-1 1 1-1Z"/><path fill="#CBC9CB" id="scp" d="M178 163c-5.283 0-13.687 8.187-17.5 12-.839.839-6.073 4.963-4 6 2.743 1.372 5.059-3.03 7-4 4.376-2.188 17.91-13 21.5-13 4.717 0 3.392-12 2-12l-1 1-3 7-2 1-2 1-1 1ZM278 163c6.777 0 12.707 9.104 18.5 12 .865.433 5.119 5.441 4 6-4.383 2.192-23.182-17-29.5-17l-3-1.5c-.918-1.835-.476-10.5 2-10.5l3 7 2 2h1l2 2ZM190 161c1.747 0 2 .253 2 2 0 3.016 7.096-6.702.5-10-3.201-1.601-2.5 6.669-2.5 8Z"/><path fill="#CBC9CB" id="scp" d="M266 161c2.026 0 1.071-9.785-2.5-8-6.214 3.107.5 13.038.5 10 0-1.747.253-2 2-2Z"/><path fill="#FEB985" id="DTN" d="M211 167v1l3.5 5c7.037 3.518 12.5-.589 12.5-8v-4l-5.5-5c-3.589-1.795-5.044 3-7.5 3l-1 1-1 5-1 2ZM245 167c0 6.747-8.175 8.663-13.5 6l-2.5-4v-6c.73 0 3.551-6.026 5.5-7 4.521-2.26 5.949 4 8.5 4v1l1 1v2l1 1v2Z"/><path fill="#CBC9CC" id="arb" d="m161 157-1 1 1-1ZM295 157l1 1-1-1ZM160 158l-1 1 1-1ZM145 178h2l1-2 2-2.5c1.291-2.583 7-9.864 7-12.5-4.045 0-2 3.151-2-2l-4 4-1 3-1 1v1l-1 1c0 3.083-3 5.545-3 9ZM159 159l-1 1 1-1Z"/><path fill="#FFBA84" id="PCG" d="m214 159-1 1 1-1Z"/><path fill="#FF9B88" id="P" d="m273 159 2 2-2-2Z"/><path fill="#CBC9CC" id="arb" d="m158 160-1 1 1-1Z"/><path fill="#FF9B88" id="P" d="m183 160-2 1 2-1ZM181 161l-2 1 2-1Z"/><path fill="#FF79FE" id="MEV" d="M190 161c1.747 0 2 .253 2 2-1.747 0-2-.253-2-2Z"/><path fill="#FFBA84" id="PCG" d="m243 161 1 1-1-1Z"/><path fill="#FF79FE" id="MEV" d="M266 161c-1.747 0-2 .253-2 2 3.162 0 2 .109 2-2Z"/><path fill="#FF9B88" id="P" d="m276 161 2 2-2-2Z"/><path fill="#CBC9CC" id="arb" d="M322 161c0 1.93 1.93 0 0 0ZM133 162c0 1.93 1.93 0 0 0Z"/><path fill="#FF9B88" id="P" d="m179 162-1 1 1-1Z"/><path fill="#CBC9CC" id="arb" d="M336 190c0 8.445 8.484 8.468 10 11.5.599 1.199-3.862 2.819-4.5 2.5-2.435-1.218-3.466-3-6.5-3 0-2.516-2-7.435-2-12v-1l1-1c1.046 0 4.716-7.069 4-8.5-1.702-3.404-8.503-1.5-11-1.5 0-2.517-3 .259-3 2h-3l5-5.5c.753-1.505-4.034-10.5-2.5-10.5l1.5 3.5 6.5 6.5c4.799 2.399 10.437 0 15.5 0 0 4.976-10 10.368-10 16l-1 1ZM120 190c0 7.72-10 10.498-10 12.5l5.5 1.5c2.177-1.089 2.822-3 5.5-3 0-1.928 2-8.096 2-13l-4-5.5c-3.649-7.298 7.254-5.5 10-5.5 0-2.553 4.666 2 6 2 0-2.792-3.705-3.911-5-6.5-.275-.551 4.563-8.5 2.5-8.5l-6 8c-5.893 2.947-11.137 1-17.5 1 0 5.115 11 11.037 11 17Z"/><path fill="#FFBA84" id="PCG" d="m244 164 1 1-1-1ZM212 165l-1 2 1-2ZM226 185l2.5-13 1.5 13c1.225 0 1.92 7 5.5 7 2.459 0 22.5-12.978 22.5-15-8.123 0-12.668-10-13-10 0 6.747-8.175 8.663-13.5 6l-2.5-4c0 2.632-1.325-4-2-4 0 7.411-5.463 11.518-12.5 8l-3.5-5c-.412 0-4.868 9-13 9 0 1.53 28 24.615 28 8Z"/><path fill="#F0F080" id="CB" d="m150 166-1 1 1-1ZM149 168l-1 1 1-1Z"/><path fill="#FFFC8D" id="PFL" d="M99 184c3.684 0 7.578-1.961 11.5 0 2.958 1.479 6.112 6 9.5 6 0-5.963-11-11.885-11-17-3.233 0-8.757.014-11 4.5-.363.726-.796 6.5 1 6.5Z"/><path fill="#FDA6FF" id="DR" d="M226 185h4l-1.5-13-2.5 13Z"/><path fill="#FFFC8D" id="PFL" d="M358 184c-3.93 0-8.361-2.07-12.5 0-3.092 1.546-4.688 5-8.5 5 0-5.632 10-11.024 10-16 9.598 0 11 1.81 11 11Z"/><path fill="#CCCCCA" id="mcp" d="M123 188c3.697 0 2.062 9 6 9 0-2.424 8.706-10 10-10v-1l1-1 1-1v-1l-1-1c-4.318 0-7.492-5-11-5-2.746 0-13.649-1.798-10 5.5l4 5.5Z"/><path fill="#F0F080" id="CB" d="M140 182h1v-1l-6-2c-1.334 0-6-4.553-6-2 3.508 0 6.682 5 11 5Z"/><path fill="#FF9B88" id="P" d="M147 178h1v-2l-1 2Z"/><path fill="#F0F080" id="CB" d="m327 177-3 2c0-1.741 3-4.517 3-2Z"/><path fill="#CCCCCA" id="mcp" d="M333 189c-3.57 0-1.43 8-5 8l-11-11-1-2v-2c1.989 0 7-.247 7-3h1l3-2c2.497 0 9.298-1.904 11 1.5.716 1.431-2.954 8.5-4 8.5l-1 1v1Z"/><path fill="#FF9B88" id="P" d="M309 178h1l-1-1v1Z"/><path fill="#CBC9CC" id="arb" d="M141 182h1c1.712 0 3-2.571 3-4l-4 3v1Z"/><path fill="#FEAD6E" id="KF" d="M139 193c1.858 0 11-7.548 11 0l5-1 1-2 1-2v-1c0-4.09-4.825-9-9-9h-3c0 1.429-1.288 4-3 4l-1 1v1l-1 1-1 1v7ZM317 192c-2.364 0-11-5.459-11 1-4.337 0-4.917-6-7-6l1-4 1-1 8-4h1l4 4 2 2 1 2c0 .986 2.515 6 0 6Z"/><path fill="#F0F080" id="CB" d="M316 181v1c1.989 0 7-.247 7-3h-2l-5 2Z"/><path fill="#FF9B88" id="P" d="m142 182-1 1-1-1h2ZM301 182l-1 1 1-1ZM316 182v2l-2-2h2Z"/><path fill="#FEF991" id="FL" d="m107 227-3 1c-8.544 0-19.39-21.72-15-30.5 1.415-2.83 3.304-7.304 5.5-9.5l4.5-4c3.684 0 7.578-1.961 11.5 0 2.958 1.479 6.112 6 9.5 6 0 7.72-10 10.498-10 12.5l5.5 1.5c2.177-1.089 2.822-3 5.5-3v3l-1 1v1l-1 1v1l-1 1v1l-1 1v1l-1 1v1l-1 1v1l-1 1-3 5-1 1-2 2-1 2ZM349 226l4 3c6.655 0 18.778-22.944 15-30.5l-6-11-4-3.5c-3.93 0-8.361-2.07-12.5 0-3.092 1.546-4.688 5-8.5 5l-1 1c0 8.445 8.484 8.468 10 11.5.599 1.199-3.862 2.819-4.5 2.5-2.435-1.218-3.466-3-6.5-3v3l2 2v1l1 1 1 2v1l1 1v1l1 1v1l1 1 2 4 1 1 3 4 1 1Z"/><path fill="#FF9B88" id="P" d="m141 184-1 1 1-1ZM140 185l-1 1 1-1ZM170 185l-1 1 1-1Z"/><path fill="#FEBA86" id="SUT" d="M175 197h8c0-3.191.928-7.786-3.5-10-1.227-.613-8.5-.656-8.5-2h-1l-1 1-10 1-2 1-1 2-1 2c0 1.949-.991 8 2 8l2-1.5c2.966-5.932 10.57-1.5 15-1.5h1ZM299 200h1l1-1c0-4.937-3-11.436-3-12l-10-1-1-1h-1c0 2.207-5.176.338-6.5 1-4.973 2.487-6.5 5.546-6.5 11h9c2.191 0 17-4.494 17 3Z"/><path fill="#FF9B88" id="P" d="m287 185 1 1-1-1ZM327 212c-3.005 0-3.171 5-6 5 0-3.867 7.212-9.075 5-13.5-.642-1.284-.406-2.813-1-4l-8-7.5c2.515 0 0-5.014 0-6l11 11 1 4v10l-2 1ZM130 212l1.5 2c7.364 3.682 6.5 15.052 6.5 23 1.725 0 1-6.052 1-7.5 0-8.677-4.453-13.906-8-21-4.106-8.211 8-14.205 8-15.5v-6c-1.294 0-10 7.576-10 10l-2 4v8l3 3ZM159 187l-2 1v-1h2ZM301 199l4 1c1.714 0 1-5.594 1-7-4.337 0-4.917-6-7-6h-1c0 .564 3 7.063 3 12Z"/><path fill="#F0F080" id="CB" d="m334 187-1 1 1-1ZM121 202h1l1-1h4l2-4c-3.938 0-2.303-9-6-9 0 4.904-2 11.072-2 13v1Z"/><path fill="#FF9B88" id="P" d="m157 188-1 2 1-2Z"/><path fill="#F0F080" id="CB" d="M334 202h1v-1c0-2.516-2-7.435-2-12-3.57 0-1.43 8-5 8l1 4c1.238 0 5-1.459 5 1Z"/><path fill="#FFFC8D" id="PFL" d="m337 189-1 1 1-1Z"/><path fill="#FFAE6F" id="PSV" d="m145 256 3 1c17.455 0 4-26.026 4-37l-1-20-1-7c0-7.548-9.142 0-11 0 0 1.295-12.106 7.289-8 15.5 3.547 7.094 8 12.323 8 21 0 1.448.725 7.5-1 7.5v2l-1 2v4l2 4v1l2 2v1l2 2h1l1 1Z"/><path fill="#FF9B88" id="P" d="m156 190-1 2 1-2Z"/><path fill="#FDBA86" id="PRNc" d="M202 274h1l1-1c0-1.679 9.076-2 11-2l1-1 1-1h1l1-1 1-1 1-1c0-1.238 1.923-5 3-5 0-2.824 2.616-8.268 1-11.5-1.671-3.342-4-7.576-4-11.5l-1.5 1c-1.793 0-1.962-6.424-2.5-7.5-1.356-2.713-7.91-15.295-3.5-17.5l3.5 2.5c1.02 2.041 1.468 14.5 4 14.5 0-11.5.747-22.006-4-31.5-2.455-4.91-28.536-13.928-32-7V219c0 13.19-4 25.313-4 38v4c0 2.377 3 6.054 3 8 4.858 0 7.954 5 12 5h6ZM254 274h7c0-1.9 8.997-5 11-5 0-.98 5.541-12.418 3-17.5-2.105-4.209-4-26.814-4-32.5v-27.5c-2.347-4.694-23.563 2.032-26.5 3.5-2.125 1.062-6.653 8-7.5 8 0 3.166-.693 5.886-2 8.5-.254.508 0 18.352 0 20.5 2.246 0 3.24-18 7.5-18 1.626 0 2.016 4.468 1.5 5.5-2.582 5.164-3.61 18.5-9 18.5 0 4.888-4 8.881-4 13v6c1.579 0 1 2.855 1 4 1.028 0 4 4.666 4 6l3 2 1 1 1 1c1.917 0 12 .484 12 2v1h1Z"/><path fill="#FFAE6F" id="PSV" d="M307 258h1l1-1 4-2 1-1 1-1 1-1 1-2 1-1v-1l1-1v-8l-1-2v-4c-1.535 0-1.535-4 0-4v-3c0-1.235-.643-5 1-5l2-4c0-3.867 7.212-9.075 5-13.5-.642-1.284-.406-2.813-1-4l-8-7.5c-2.364 0-11-5.459-11 1 0 1.406.714 7-1 7 0 7.149-1 14.403-1 21 0 7.673-10.869 37 3 37Z"/><path fill="#FF9B88" id="P" d="M157 200v1c-1.03 0-2.671-1-6-1l-1-7 5-1c0 1.949-.991 8 2 8Z"/><path fill="#FEB986" id="V" d="M157 223c2.431 0 5.064 5.282 6.5 6 3.622 1.811 4.894-3 6.5-3 0-4.615 3.069-8.638 5-12.5 2.368-4.736 0-10.659 0-15.5l-1-1c-4.43 0-12.034-4.432-15 1.5l-2 1.5v23Z"/><path fill="#CBCBCC" id="mlf" d="M222 202v3c-7.132 0 0-16.402 0-6v3Z"/><path fill="#FFC294" id="RPO" d="M222 202c1.904 0 .189-5.844 2.5-7 3.237-1.619 2.547 4 4 4 1.109 0-.27-6.135 4-4 4.235 2.117 1.333 19.333-2 21-2.734 1.367-.657-15-2-15l-.5 3.5c0 1.685 1.001 11.5-1.5 11.5-3.25 0-4.5-8.849-4.5-11v-3Z"/><path fill="#CBCBCC" id="mlf" d="M237 203v-5.5c0-8.665-4.303 7.5-1.5 7.5l1.5-2Z"/><path fill="#FEB986" id="V" d="m300 222-7.5 7c-2.541 1.27-3.709-2-5.5-2 0-4.868-3.916-10.332-6-14.5-2.026-4.052 1-11.799 1-15.5 2.191 0 17-4.494 17 3v1c0 2.253.984 6.469 2 8.5l-1 12.5Z"/><path fill="#FEB886" id="P5" d="M179 223c-2.122 0-9 8.693-9 3 0-4.615 3.069-8.638 5-12.5 2.368-4.736 0-10.659 0-15.5v-1h8l2 2v20l-4 3-2 1ZM276 222c3.711 0 5.548 5 11 5 0-4.868-3.916-10.332-6-14.5-2.026-4.052 1-11.799 1-15.5h-9l-2 2v20c1.114 0 4 2.034 4 3h1Z"/><path fill="#FF9B88" id="P" d="M175 197v1l-1-1h1Z"/><path fill="#FEB984" id="I5" d="M152 220c.773 0 .79 3 5 3v-22c-1.03 0-2.671-1-6-1l1 20ZM304 221c-.361 0-4 5.562-4 1l1-12.5c-1.016-2.031-2-6.247-2-8.5l1-1 1-1 4 1c0 7.149-1 14.403-1 21Z"/><path fill="#FEA4D2" id="VCO" d="M114 255c1.49 0 2.587 1 5 1l2-5c-1.258 0-1.639-7.221-1-8.5 1.147-2.293 7-30.934 7-33.5v-8h-4l-1 1-1 1v1l-1 1v1l-1 1v1l-1 1v1l-1 1v1l-1 1v1l-1 1v1l-1 1-3 5-1 1-2 2-1 2v3l-1 1 1 7 1 1c0 5.251 6 10.494 6 16Z"/><path fill="#FF9B88" id="P" d="m300 200-1 1v-1h1Z"/><path fill="#FEA4D2" id="VCO" d="M342 255c-1.49 0-2.587 1-5 1l-1-4c0-10.216.272-22.955-4-31.5-.759-1.517-1.054-9.5-3-9.5v-10c1.238 0 5-1.459 5 1l1 1v1l2 2v2l2 2v1l1 1v1l1 1v1l1 1 2 4 1 1 3 4 1 1 1 4c0 7.39-5 12.178-5 19l-1 1c0 .671-1.328 5-2 5Z"/><path fill="#FF9BCD" id="MY" d="m123 201-1 1 1-1ZM122 202l-1 1v-1h1ZM335 202v1l-1-1h1ZM121 204l-1 1 1-1ZM335 204l2 2-2-2ZM120 206l-1 1 1-1Z"/><path fill="#F0F080" id="CB" d="M337 208h1l-1-1v1ZM119 208l-1 1 1-1Z"/><path fill="#FF9BCD" id="MY" d="m338 208 1 2-2-2h1ZM147 265c0 3.875-2.489 5-6 5-2.933 0-5.321-3-9-3-2.859 0-3.197 2.849-5.5 4-7.377 3.688-12.5-11.492-12.5-16 1.49 0 2.587 1 5 1 3.065 0 4.202 10.149 8.5 8 2.179-1.089-.993-4.513-.5-5.5l2-1c2.038-4.077-5.209-6.5-8-6.5-1.258 0-1.639-7.221-1-8.5 1.147-2.293 7-30.934 7-33.5l3 3-1 9c0 9.688-8.902 6.696-4 16.5 1.025 2.049 2.174 3.5 5 3.5 0 11.129 4.722 24 17 24ZM118 210l-1 1 1-1ZM310 265c0 3.383 1.617 5 5 5 3.802 0 6.375-3 11-3l3.5 4c7.951 3.976 12.5-11.304 12.5-16-1.49 0-2.587 1-5 1 0 1.366-5.259 9.62-8.5 8-2.179-1.089.993-4.513.5-5.5-3.542-7.085 2.772-6.5 7-6.5 0-10.216.272-22.955-4-31.5-.759-1.517-1.054-9.5-3-9.5l-2 1 1 12c0 4.372 7.565 7.371 5 12.5l-4 4c-1.048 2.095.028.5-2 .5 0 9.695-5.322 24-17 24Z"/><path fill="#F0F080" id="CB" d="m339 211 1 1-1-1ZM117 212l-1 1 1-1Z"/><path fill="#C8CACA" id="sptV" d="m148 257 6 4.5c0 3.559-4.42 3.5-7 3.5-12.278 0-17-12.871-17-24v-15.5c0-1.19.614-4.5-1-4.5l1-9 1.5 2c7.364 3.682 6.5 15.052 6.5 23v2l-1 2v4c0 1.465-.109 4 2 4v1l2 2v1l2 2h1l1 1 3 1ZM307 258h1l1-1 4-2 1-1 1-1 1-1 1-2 1-1v-1l1-1v-8l-1-2v-11c1.643 0 1-3.765 1-5 2.109 0 2-2.535 2-4 2.829 0 2.995-5 6-5l1 12c-2.159 0-.061-4-1.5-4l-.5 5c0 5.259 1 11.406 1 16 0 9.695-5.322 24-17 24-2.149 0-9.042-.416-7-4.5l4-2.5Z"/><path fill="#FF9BCD" id="MY" d="m340 213 1 1-1-1ZM116 214l-1 1 1-1Z"/><path fill="#C8C8CC" id="tspc" d="M221 231c-2.532 0-2.98-12.459-4-14.5l-3.5-2.5c-4.41 2.205 2.144 14.787 3.5 17.5.538 1.076.707 7.5 2.5 7.5l1.5-1v-7ZM235 232c2.246 0 3.24-18 7.5-18 1.626 0 2.016 4.468 1.5 5.5-2.582 5.164-3.61 18.5-9 18.5v-6Z"/><path fill="#F0F080" id="CB" d="m341 215 1 1-1-1Z"/><path fill="#FF9BCD" id="MY" d="m115 216-1 1 1-1Z"/><path fill="#FF9B88" id="P" d="m321 217-2 4c2.109 0 2-2.535 2-4Z"/><path fill="#FF9B88" id="P" fill-rule="evenodd" d="M163 244c0 2.678-5 6.855-5 10l.5 4c2.233 0 14.044-14 4.5-14m29 43v1c-8.754 0-22.042.729-29.5-3-3.594-1.797-6.328-5.164-10-7l-11.5-8c3.511 0 6-1.125 6-5 2.58 0 7 .059 7-3.5l-6-4.5c17.455 0 4-26.026 4-37 .773 0 .79 3 5 3 2.431 0 5.064 5.282 6.5 6 3.622 1.811 4.894-3 6.5-3 0 5.693 6.878-3 9-3 0 8.88 9.742-1 2-1l4-3c0 13.19-4 25.313-4 38-2.383 0-3.061-8.72-8.5-6-8.508 4.254 4.615 10 8.5 10 0 2.377 3 6.054 3 8l-2 1c0-7.438-19-14.864-19-2-2.544 0 .304-6.098-1.5-7-2.258-1.129-2.003 1.501-3 2-6.037 3.019-1.5 7.727-1.5 12-2.409 0-1.055-1.277-2.5-2-3.83-1.915-4.335 1.665-2 4 3.318 3.318 7.103 5.051 11 7 .935.468 5.5 1.9 5.5 0 .981 0 8 2.681 8 0l2 1c-2.472 0 2.328 1 3.5 1l9.5 1ZM280 251c0 2.031-6.175 5.15-4 9.5.913 1.825 16.981-4.759 7.5-9.5H280m11-7c0 4.262-.807 6.693 3 10.5.756.756 3.987 5.026 5 3 1.879-3.758-4.417-13.5-8-13.5m9 31c4.812 0 5-4.935 5 2 1.228 0 10-5.897 10-7-3.383 0-5-1.617-5-5-2.149 0-9.042-.416-7-4.5l4-2.5c-13.869 0-3-29.327-3-37-.361 0-4 5.562-4 1l-7.5 7c-2.541 1.27-3.709-2-5.5-2-5.452 0-7.289-5-11-5l1 2.5c0 7.538-8.267-2.5-2-2.5 0-.966-2.886-3-4-3 0 5.686 1.895 28.291 4 32.5 2.541 5.082-3 16.52-3 17.5h2l3.5-4 8-4c4.578-2.289 6.441 4 8.5 4 0-7.07 5.336-1.828 7 1.5l-1 8.5Z"/><path fill="#C9CACB" id="vVIIIn" d="M328 224c-2.159 0-.061-4-1.5-4l-.5 5c0 5.259 1 11.406 1 16 2.028 0 .952 1.595 2-.5l4-4c2.565-5.129-5-8.128-5-12.5Z"/><path fill="#F0F080" id="CB" d="m344 220 1 1-1-1Z"/><path fill="#C9CACB" id="vVIIIn" d="M129 221c1.614 0 1 3.31 1 4.5V241c-2.826 0-3.975-1.451-5-3.5-4.902-9.804 4-6.812 4-16.5Z"/><path fill="#FF9B88" id="P" d="M319 221c-1.643 0-1 3.765-1 5 1.643 0 1-3.765 1-5Z"/><path fill="#FF9BCD" id="MY" d="m111 222-1 1 1-1Z"/><path fill="#FF9B88" id="P" d="m181 222-2 1 2-1Z"/><path fill="#FDBA85" id="Acs5" d="M181 222c7.742 0-2 9.88-2 1l2-1ZM275 222h1l1 2.5c0 7.538-8.267-2.5-2-2.5Z"/><path fill="#F0F080" id="CB" d="m108 225-1 2 1-2Z"/><path fill="#FF9BCD" id="MY" d="m348 225 1 1-1-1Z"/><path fill="#F0F080" id="CB" d="m353 229-3 1-1-4 4 3ZM107 230l-1 1-2-3 3-1v3Z"/><path fill="#FF9B88" id="P" d="M318 229c-1.535 0-1.535 4 0 4v-4ZM318 237l1 2-1-2Z"/><path fill="#FF9BCD" id="MY" d="m107 238 1 1-1-1Z"/><path fill="#FF9B88" id="P" d="m138 239-1 2 1-2Z"/><path fill="#CCCCC7" id="VIIn" d="M163 244c0 2.678-5 6.855-5 10l.5 4c2.233 0 14.044-14 4.5-14ZM291 244c0 4.262-.807 6.693 3 10.5.756.756 3.987 5.026 5 3 1.879-3.758-4.417-13.5-8-13.5Z"/><path fill="#FF9B88" id="P" d="m137 245 2 4c-2.109 0-2-2.535-2-4ZM319 247l-1 1 1-1Z"/><path fill="#FFC5E2" id="RM" d="M227 271c0 2.747.253 3 3 3v-5c0-1.321-.684-6 1-6v-12l-3.5-3c-3.091 1.545-1.5 11.867-1.5 15v7l1 1Z"/><path fill="#FF9B88" id="P" d="m318 249-1 1 1-1Z"/><path fill="#FF9BCD" id="MY" d="m345 249-1 1 1-1Z"/><path fill="#FF9B88" id="P" d="m139 250 2 2-2-2Z"/><path fill="#C9CACB" id="vVIIIn" d="M121 251c2.791 0 10.038 2.423 8 6.5l-2 1c-.493.987 2.679 4.411.5 5.5-4.298 2.149-5.435-8-8.5-8l2-5Z"/><path fill="#FFB2D8" id="IRN" d="M181 257c-2.383 0-3.061-8.72-8.5-6-8.508 4.254 4.615 10 8.5 10v-4ZM280 251c0 2.031-6.175 5.15-4 9.5.913 1.825 16.981-4.759 7.5-9.5H280Z"/><path fill="#C9CACB" id="vVIIIn" d="M336 252c-4.228 0-10.542-.585-7 6.5.493.987-2.679 4.411-.5 5.5 3.241 1.62 8.5-6.634 8.5-8l-1-4Z"/><path fill="#FF9B88" id="P" d="m316 252-1 1 1-1ZM141 253l2 2-2-2ZM315 253l-1 1 1-1ZM314 254l-1 1 1-1ZM144 255l1 1-1-1ZM231 263l2 1-1-3c0-1.145.579-4-1-4v6ZM309 257l-1 1 1-1Z"/><path fill="#C8C8CB" id="rust" d="M165 277v1c0 2.559-6.818-2-8-2v-1c0-4.273-4.537-8.981 1.5-12 .997-.499.742-3.129 3-2 1.804.902-1.044 7 1.5 7l1 8 1 1Z"/><path fill="#FEAE6E" id="SOCl" d="m165 278 4 2c2.714 0 12 1.046 12-3l1-7c0-7.438-19-14.864-19-2l1 8 1 1v1Z"/><path fill="#FEB0D8" id="GRN" d="M224 263c0 1.658-1.461 3-3 3 0-1.238 1.923-5 3-5v2ZM233 264l3 3c0-1.334-2.972-6-4-6l1 3Z"/><path fill="#FEAE6E" id="SOCl" d="m291 278-4 2h-8.5l-3.5-3-1-8 3.5-4 8-4c4.578-2.289 6.441 4 8.5 4l-1 10-1 1v1l-1 1Z"/><path fill="#C8C8CB" id="rust" d="M293 279h1l4-2 1-1 1-1 1-8.5c-1.664-3.328-7-8.57-7-1.5l-1 10-1 1v1l-1 1 2 1Z"/><path fill="#FF9BCD" id="MY" d="M216 271h3l4.5-4 2.5 2v-6h-2c0 1.658-1.461 3-3 3l-1 1-1 1-1 1h-1l-1 1v1ZM237 271h4l-1-1-1-1-3-2-3-3-2-1c-1.684 0-1 4.679-1 6 1.338 0 7-3.71 7 2Z"/><path fill="#FEB0D8" id="GRN" d="m221 266-1 1 1-1Z"/><path fill="#CACCC8" id="ml" d="M218 277h7c0-1.564 1-3.876 1-6v-2l-2.5-2-4.5 4c0 2.724-1 3.276-1 6ZM231 277h7c0-3.329-1-4.97-1-6 0-5.71-5.662-2-7-2v5l1 3Z"/><path fill="#FF9B88" id="P" d="m219 268-1 1 1-1Z"/><path fill="#FFAD6E" id="SOCm" d="M193 281h2v-1l1-1v-5c-4.046 0-7.142-5-12-5l-2 1-1 7c4.207 0 7.023 4 12 4Z"/><path fill="#FF9B88" id="P" d="m217 269-1 1 1-1ZM239 269l1 1-1-1Z"/><path fill="#FFAD6E" id="SOCm" d="m261 280 2 1c4.887 0 8.1-4 12-4l-1-8h-2c-2.003 0-11 3.1-11 5v6Z"/><path fill="#FF9B88" id="P" d="M215 271h1v-1l-1 1Z"/><path fill="#FF9BCD" id="MY" d="M226 271h1l-1-1v1Z"/><path fill="#CCC7CB" id="tb" d="M211 277h7c0-2.724 1-3.276 1-6h-4c-1.924 0-11 .321-11 2l1 1h2c3.041 0 4-.303 4 3ZM225 277c0 1.581 6 .968 6 0l-1-3c-2.747 0-3-.253-3-3h-1c0 2.124-1 4.436-1 6ZM238 277h8c0-3.416-.596-3 4-3h2l1-1c0-1.516-10.083-2-12-2h-4c0 1.03 1 2.671 1 6Z"/><path fill="#CBC7CC" id="sctv" d="m163 281 6 3c0 1.9-4.565.468-5.5 0-3.897-1.949-7.682-3.682-11-7-2.335-2.335-1.83-5.915 2-4 1.445.723.091 2 2.5 2v1l6 5Z"/><path fill="#FF9B88" id="P" d="M203 274h2l-1-1-1 1ZM252 274h1v-1l-1 1Z"/><path fill="#CBC7CC" id="sctv" d="M296 283c-1.543 0-8 3.296-8 1v-1c1.738 0 6-.686 6-3 1.429 0 4-1.288 4-3l1-1 1-1c4.812 0 5-4.935 5 2-1.238 0-3 .423-3 2l-1 1-2 1c-1.238 0-3 .423-3 2Z"/><path fill="#FF9B88" id="P" d="M196 278h1v-1c0-1.747.253-2 2-2h3v-1h-6v4Z"/><path fill="#FF9BCD" id="MY" d="M207 274c0 1.643-3.765 1-5 1v-1h5Z"/><path fill="#FEA3D2" id="NTB" d="M211 277c-2.587 0-14 9.491-14 1v-1l2-2h3c1.235 0 5 .643 5-1 3.041 0 4-.303 4 3ZM258 275c0 1.423 1.978 3.544 1 5.5-2.29 4.581-11.579-3.5-13-3.5 0-3.416-.596-3 4-3 0 1.579 2.855 1 4 1h4Z"/><path fill="#FF9BCD" id="MY" d="M254 274v1c-1.145 0-4 .579-4-1h4Z"/><path fill="#FF9B88" id="P" d="m258 275 3 4v-5h-7v1h4Z"/><path fill="#FF9BCD" id="MY" d="M199 275c-1.747 0-2 .253-2 2l2-2ZM221 288c2.776 0 6.446-3.527 9.5-2 2.633 1.316 4.265 3 7.5 3l-3-1.5-3-3.5c-.896 0-3.026-2-1-2 0-8.225 17.33 1 20 1 4.135 0 7.305 2 11 2l-1-5v-1l-3-4c0 1.423 1.978 3.544 1 5.5-2.29 4.581-11.579-3.5-13-3.5h-15c0 .968-6 1.581-6 0h-14c-2.587 0-14 9.491-14 1h-1v1l-1 1v1l-1 4c3.982 0 6.704-2 11-2 2.696 0 20-9.207 20-1 2.212 0 2.212 1 0 1l-4 5Z"/><path fill="#FF9B88" id="P" d="m293 275-1 1 1-1ZM300 275l-1 1 1-1ZM163 281c0-3.891 3.872 2 8 2l-2-3-4-2c0 2.559-6.818-2-8-2l6 5ZM164 276l1 1-1-1ZM299 276l-1 1 1-1Z"/><path fill="#FEAD6F" id="POR" d="M179 285h14v-4c-4.977 0-7.793-4-12-4 0 4.046-9.286 3-12 3l2 3h2l2 1h2l2 1ZM264 285h14l1-1h2l2-1h2c0-1.481 2-.785 2-3h-8.5l-3.5-3c-3.9 0-7.113 4-12 4l1 4Z"/><path fill="#FF9B88" id="P" d="m292 277-1 1 1-1ZM294 279v1c1.429 0 4-1.288 4-3l-4 2ZM305 277c-1.238 0-3 .423-3 2 1.238 0 3-.423 3-2ZM285 283h3l5-4-2-1-4 2c0 2.215-2 1.519-2 3Z"/><path fill="#CCC7CB" id="tb" d="M175 284h2c0 2.681-7.019 0-8 0l-6-3c0-3.891 3.872 2 8 2h2l2 1Z"/><path fill="#FF9B88" id="P" d="m196 279-1 1 1-1Z"/><path fill="#C7C9C9" id="py" d="M211 289h8l2-1 4-5v-1c0-8.207-17.304 1-20 1v4c.986 0 6 1.087 6 2ZM238 289h7c0-1.175 5.704-2 7-2 0-1.674-1-2.326-1-4-2.67 0-20-9.225-20-1l1 2 3 3.5 3 1.5Z"/><path fill="#CCC7CB" id="tb" d="M294 280c0 2.314-4.262 3-6 3l5-4h1v1Z"/><path fill="#FF9B88" id="P" d="m302 279-1 1 1-1ZM262 285h2l-1-4-2-1 1 5ZM301 280l-2 1 2-1ZM193 285h1l1-4h-2v4ZM299 281c-1.238 0-3 .423-3 2 1.238 0 3-.423 3-2Z"/><path fill="#CCC7CB" id="tb" d="M225 282c2.212 0 2.212 1 0 1v-1ZM231 282c-2.026 0 .104 2 1 2l-1-2Z"/><path fill="#FF9B88" id="P" d="m173 283 2 1-2-1Z"/><path fill="#CCC7CB" id="tb" d="M192 287h13v-4c-4.296 0-7.018 2-11 2h-15c-2.472 0 2.328 1 3.5 1l9.5 1ZM252 287h12l10-1c1.263 0 6.423-1 4-1h-16c-3.695 0-6.865-2-11-2 0 1.674 1 2.326 1 4Z"/><path fill="#FF9B88" id="P" d="m283 283-2 1 2-1Z"/><path fill="#CCC7CB" id="tb" d="M279 284h2l2-1h5v1c-1.242 0-9 2.558-9 0Z"/><path fill="#FF9B88" id="P" d="M264 287v1c7.214 0 19.311 1.094 25.5-2 1.49-.745 6.5-.335 6.5-3-1.543 0-8 3.296-8 1-1.242 0-9 2.558-9 0l-1 1c2.423 0-2.737 1-4 1l-10 1Z"/><path fill="#FF9BCD" id="MY" d="m192 288 19 1c0-.913-5.014-2-6-2h-13v1ZM264 288l-19 1c0-1.175 5.704-2 7-2h12v1ZM221 288l-2 1 2-1Z"/></svg>