<svg xmlns="http://www.w3.org/2000/svg" viewBox="0 0 456 320"><path fill="#098589" id="VISp1" d="m84 64 3 4c0-2.316 10.803-9.651 13.5-11 6.22-3.11 10.795-8.898 17-12 9.889-4.944 20.21-9.105 30-14 3.571-1.785 16.17-2.915 20-1 .93.465 4.5.817 4.5 2h1l2-5c-4.378 0-12.267-4.617-17.5-2-8.252 4.126-18.678 3.84-27 8-9.582 4.791-18.27 11.135-28 16C100.348 50.076 84 62.59 84 64ZM373 65c-1.539 0-3 1.341-3 3l-5.5-5-19-14c-8.478-4.239-16.503-9.751-25-14-6.419-3.21-14.619-2.81-21-6-5.438-2.719-11.356 3-15.5 3l-2-5c4.065 0 11.465-4.517 16.5-2 8.486 4.243 19.471 3.735 28 8 8.812 4.406 17.201 9.6 26 14l4 4c2.323 1.161 16.5 11.266 16.5 14Z"/><path fill="#1BA696" id="RSPagl1" d="M187 38c-3.391 0-5.353 3-9 3 0-4.639-5-8.438-5-9l2-5c4.626 0 12 7.043 12 11ZM270 37c0 2.447 6.063 4 8 4 0-2.312 2.847-9 6-9l-2-5c-3.813 0-12 5.643-12 10Z"/><path fill="#0A828C" id="VISp2/3" d="M87 69c0 2.789 4 3.42 4 6l21.5-16c7.743-3.872 14.213-10.106 22-14 5.715-2.858 12.31-4.155 18-7l13.5 1c1.988 0 6-5.237 6-7 0-1.183-3.57-1.535-4.5-2-3.83-1.915-16.429-.785-20 1-9.79 4.895-20.111 9.056-30 14-6.205 3.102-10.78 8.89-17 12C97.803 58.349 87 65.684 87 68v1ZM370 69l-5 6-16.5-13c-13.095-6.547-25.041-15.52-38-22-4.211-2.106-12.418-3.291-17-1-.919.46-2.5-.765-2.5 1l-7-8c4.144 0 10.062-5.719 15.5-3 6.381 3.19 14.581 2.79 21 6 8.497 4.249 16.522 9.761 25 14l19 14 5.5 5v1Z"/><path fill="#1AA496" id="RSPagl2/3" d="m163 43 3 4 12-6c0-4.639-5-8.438-5-9h-1c0 1.763-4.012 7-6 7l-3 4ZM294 43c0 1.457-3 1.46-3 4l-12-5-1-1c0-2.312 2.847-9 6-9l7 8 3 3Z"/><path fill="#1BA598" id="RSPd1" d="m305 77-2 1c-.583 0-21.254-23.007-22-24.5l-10-12c-.272-.544-4.174-4.5-1-4.5 0 2.447 6.063 4 8 4l1 1c0 10.949 15.316 19.133 20 28.5.718 1.436 6 4.07 6 6.5Z"/><path fill="#0B848B" id="VISp4" d="M93 79h1c4.429 0 13.977-11.739 18.5-14 17.038-8.52 27.711-22 48.5-22h2l3-4-13.5-1c-5.69 2.845-12.285 4.142-18 7-7.787 3.894-14.257 10.128-22 14L91 75v1c1.577 0 2 1.762 2 3Z"/><path fill="#1BA598" id="RSPd1" d="M151 77c1.048 0 3-.473 3 1l5.5-7c6.36-3.18 17.666-16.832 21.5-24.5 1.809-3.618 6-3.994 6-8.5-3.391 0-5.353 3-9 3 0 10.67-14.424 18.349-19 27.5-.923 1.845-8 5.633-8 8.5Z"/><path fill="#0B848B" id="VISp4" d="M365 76c-1.577 0-2 1.762-2 3-7.579 0-14.448-11.974-20.5-15l-9-7c-12.792-6.396-22.891-14-38.5-14h-1l-3-3c0-1.765 1.581-.54 2.5-1 4.582-2.291 12.789-1.106 17 1 12.959 6.48 24.905 15.453 38 22L365 75v1Z"/><path fill="#1BA697" id="RSPd2/3" d="M147 77h4c0-2.867 7.077-6.655 8-8.5 4.576-9.151 19-16.83 19-27.5l-12 6c0 10.036-9.254 16.007-13 23.5l-6 6.5Z"/><path fill="#FF7AFD" id="SCzo" d="m287 72 2 1c0-5.404-5.749-7.998-8-12.5-5.937-11.874-28.316-24.092-41.5-17.5-3.909 1.955-8.642 5.785-10.5 9.5l-.5 4.5-2-6c-4.193-2.097-7.744-6.372-13-9-5.914-2.957-30.5 5.37-30.5 11 3.702 0 11.034-6.267 14.5-8 15.863-7.932 29.5 4.984 29.5 20h2l1-1c0-30.563 32.455-21.045 46-7.5 3.611 3.61 11 10.515 11 15.5Z"/><path fill="#1BA697" id="RSPd2/3" d="M305 77h4c0-3.94-18-16.632-18-29v-1l-12-5c0 10.949 15.316 19.133 20 28.5.718 1.436 6 4.07 6 6.5Z"/><path fill="#088389" id="VISp5" d="M101 86h1l10.5-9c9.59-4.795 16.638-19 30.5-19h1c0-6.79 17-9.013 17-15-20.789 0-31.462 13.48-48.5 22-4.523 2.261-14.071 14-18.5 14l1 4 6 3Z"/><path fill="#1CA697" id="RSPagl5" d="M144 58c1.658 0 3 1.46 3 3l19-14-3-4h-2c0 5.987-17 8.21-17 15ZM313 58l-4 2c-6.696 0-11.147-12-18-12v-1c0-2.54 3-2.543 3-4h1c0 3.647 18 11.513 18 15Z"/><path fill="#088389" id="VISp5" d="m353 85 2 1 6-3c0-1.238.423-3 2-3v-1c-7.579 0-14.448-11.974-20.5-15l-9-7c-12.792-6.396-22.891-14-38.5-14 0 3.647 18 11.513 18 15h1c10.608 0 23.506 12.006 30.5 19l8.5 8Z"/><path fill="#FF78FF" id="SCsg" d="M227 65c-4.424 0-10.427-16.537-21.5-11-7.016 3.508-14.963 5.482-22 9-4.389 2.194-8.313 8-13.5 8l3-7c1.577 0 2-1.762 2-3 1.747 0 2-.253 2-2 1.747 0 2-.253 2-2 1.747 0 2-.253 2-2 1.747 0 2-.253 2-2 3.702 0 11.034-6.267 14.5-8 15.863-7.932 29.5 4.984 29.5 20ZM230 64c4.159 0 9.853-15.323 20.5-10 8.354 4.177 17.576 6.788 26 11l10.5 7c0-4.985-7.389-11.89-11-15.5-13.545-13.545-46-23.063-46 7.5Z"/><path fill="#1AA596" id="RSPd5" d="M140 77h7l6-6.5c3.746-7.493 13-13.464 13-23.5l-19 14c0 7.284-7 11.748-7 16ZM309 77h8c0-3.28-8-8.99-8-16v-1c-6.696 0-11.147-12-18-12 0 12.368 18 25.06 18 29Z"/><path fill="#FF7AFD" id="SCzo" d="M183 53c-1.747 0-2 .253-2 2 1.747 0 2-.253 2-2Z"/><path fill="#FD7AFF" id="SCop" d="M167 76v1l8.5-6c8.563-4.282 17.525-7.763 26-12 11.414-5.707 17.622 8 25.5 8v-2c-4.424 0-10.427-16.537-21.5-11-7.016 3.508-14.963 5.482-22 9-4.389 2.194-8.313 8-13.5 8l-1 1-1 1v1l-1 1v1ZM289 73v3l-11.5-7c-7.485-3.743-15.611-6.306-23-10-10.888-5.444-17.116 8-25.5 8v-2l1-1c4.159 0 9.853-15.323 20.5-10 8.354 4.177 17.576 6.788 26 11l10.5 7 2 1Z"/><path fill="#FF7AFD" id="SCzo" d="M181 55c-1.747 0-2 .253-2 2 1.747 0 2-.253 2-2ZM179 57c-1.747 0-2 .253-2 2 1.747 0 2-.253 2-2Z"/><path fill="#08858C" id="VISp6a" d="m120 83-18 3 10.5-9c9.59-4.795 16.638-19 30.5-19l-23 25Z"/><path fill="#1CA597" id="RSPagl6a" d="M129 82c-2.546 0-5.725 1-9 1l23-25h1c1.658 0 3 1.46 3 3-6.39 0-12.309 20-17 20l-1 1Z"/><path fill="#FF90FF" id="SCig" d="M165 85c3.06 0 5.886-3.693 8.5-5 8.54-4.27 17.499-7.75 26-12 9.123-4.561 17.81 1.405 25 5 4.335 2.167 13.02-4.01 17-6 13.017-6.508 42.96 18 49.5 18 5.956 0-2-8.219-2-9l-11.5-7c-7.485-3.743-15.611-6.306-23-10-10.888-5.444-17.116 8-25.5 8h-2c-7.878 0-14.086-13.707-25.5-8-8.475 4.237-17.437 7.718-26 12l-8.5 6h-1l-1 1c0 .969-2.614 7 0 7Z"/><path fill="#1CA597" id="RSPagl6a" d="M326 81c3.023 0 6.763 2 11 2 0-3.444-23-20.442-23-25h-1l-4 2v1c5.613 0 13.769 20 17 20Z"/><path fill="#08858C" id="VISp6a" d="M337 83c3.439 0 8.475 2 11 2 1.424 0 5 1.762 5 0l-8.5-8c-6.994-6.994-19.892-19-30.5-19 0 4.558 23 21.556 23 25Z"/><path fill="#FF7AFD" id="SCzo" d="m177 59-2 2c1.747 0 2-.253 2-2Z"/><path fill="#1AA697" id="RSPd6a" d="M129 82v1c4.206 0 6.794-6 11-6 0-4.252 7-8.716 7-16-6.39 0-12.309 20-17 20l-1 1Z"/><path fill="#FF7AFD" id="SCzo" d="M175 61c-1.577 0-2 1.762-2 3 1.577 0 2-1.762 2-3Z"/><path fill="#1AA697" id="RSPd6a" d="m326 81 1 2-10-6c0-3.28-8-8.99-8-16 5.613 0 13.769 20 17 20Z"/><path fill="#09848A" id="VISl1" d="M71 83h1l1-1 3-3.5c2.872-2.872 8.127-9.5 11-9.5v-1l-3-4c-1.26 0-16 16.226-16 17l3 2Z"/><path fill="#FF7AFD" id="SCzo" d="m169 72-1 1c0-2.381 1.584-9 5-9l-3 7-1 1Z"/><path fill="#09848A" id="VISl1" d="M384 82h5c0-1.178-14.765-17-16-17-1.539 0-3 1.341-3 3v1l13 13h1Z"/><path fill="#FF90FE" id="SCiw" d="M173 97c3.177 0 6.726-4.613 9.5-6l27-14c4.801-2.4 14.331 2.166 18 4 1.747.874 14.457-6.271 19-4l24 12 12.5 8c0-3.918 8-7.444 8-12-6.54 0-36.483-24.508-49.5-18-3.98 1.99-12.665 8.167-17 6-7.19-3.595-15.877-9.561-25-5-8.501 4.25-17.46 7.73-26 12-2.614 1.307-5.44 5-8.5 5 0 4.846 8 7.796 8 12Z"/><path fill="#0A8489" id="VISl2/3" d="M75 84c0-1.81 4.336 0 6 0l1-1h1l8-7v-1c0-2.58-4-3.211-4-6-2.873 0-8.128 6.628-11 9.5L73 82v1l2 1ZM374 83h8l1-1-13-13-5 6v1c1.852 0 8 4.927 8 7h1Z"/><path fill="#FF78FF" id="SCsg" d="m170 71-1 1 1-1Z"/><path fill="#FF64FF" id="MB" d="m168 74-1 1 1-1Z"/><path fill="#08828B" id="VISl4" d="m88 84-2 1c0-1.577-1.762-2-3-2l8-7c1.577 0 2 1.762 2 3l-5 5Z"/><path fill="#FF64FF" id="MB" d="M166 77h1v-1l-1 1Z"/><path fill="#FF64FF" id="MB" fill-rule="evenodd" d="M315 143c0 2.091 3.746 0 0 0m-8-4c0 1.317-3.356 1.788-2 4.5 4.711 9.421 16.635-4.5 2-4.5m-19-32-2 5.5c-.702 1.403.765 5.5 2.5 5.5 3.784 0 3.648-11-.5-11m15 50c2.77 0 5.94-3.78 9.5-2l4.5 6 .5-12 2.5 2v-24l-2.5 1c-3.274-1.637-.146-19-4.5-19 0 3.69 4.087 9.326 2 13.5-1.122 2.244-1.761 6.131-4.5 7.5-4.525 2.263-14.905 1.689-17.5-3.5-3.497-6.994-.524-30.988 6.5-34.5 4.671-2.335 10.953 16 13.5 16 0-9.627-14-15.735-14-25-3.434 0-5.94-7-10-7 0 .781 7.956 9 2 9 0 4.556-8 8.082-8 12 0 13.532-4.585 13-15 13l-3 4c0 3.776 2 7.581 2 11l4.5-4c6.611-3.306 22.5 5.391 22.5 11l4 2.5v12c2.341 4.681 5 4.671 5 10.5Z"/><path fill="#08828B" id="VISl4" d="m368 84 3 1 2-2c0-2.073-6.148-7-8-7-1.577 0-2 1.762-2 3v1c1.247 0 5 2.467 5 4Z"/><path fill="#33B932" id="APr" d="M112 93c0 5.006 17 28.845 17 34 1.845 0 1.441-3.381 2-4.5 2.896-5.791 4.139-12.278 7-18 1.938-3.876 16-25.461 16-26.5 0-1.473-1.952-1-3-1h-11c-4.206 0-6.794 6-11 6 0 3.281-17 9.303-17 10Z"/><path fill="#FF64FF" id="MB" d="m166 77-1 1 1-1Z"/><path fill="#FF8FFF" id="SCdg" d="M188 110c0-5.664 7.004-9.508 9-13.5 3.098-6.196 12.273-8.387 18.5-11.5 1.265-.632 31.869 1.435 33 2l3 3c6.422 3.211 16.5 12.315 16.5 20 10.415 0 15 .532 15-13l-12.5-8-24-12c-4.543-2.271-17.253 4.874-19 4-3.669-1.834-13.199-6.4-18-4l-27 14c-2.774 1.387-6.323 6-9.5 6 0 13.374 5.063 13 15 13Z"/><path fill="#33B932" id="APr" d="M345 93c0 4.898-5.935 8.37-8 12.5-2.035 4.07-2.939 8.877-5 13-.737 1.475-3.13 7.5-5 7.5-1.794 0-6.758-18.016-8-20.5-1.69-3.381-16-26.818-16-27.5l2-1h12l10 6 7.5 6c1.611.805 10.5 1.968 10.5 4Z"/><path fill="#FF64FF" id="MB" fill-rule="evenodd" d="M140 143c0 1.93 1.93 0 0 0m5-4c0 1.284-3.47 2.561-2 5.5 3.812 7.624 16.921-5.5 2-5.5m-5 20c2.374 0 5.578-6.461 10.5-4l3.5 4c0-8.945 1.355-7.21 5-14.5l-1-9c.925-1.851 5-2.705 5-4.5 0-5.181 15.391-13.055 21.5-10l5.5 5 1-13-3-3c-9.937 0-15 .374-15-13 0-4.204-8-7.154-8-12-2.614 0 0-6.031 0-7-3.204 0-4.669 5-8 5 0 8.953-12 13.135-12 22 3.598 0 5.47-10.485 8.5-12 6.975-3.487 11.5 11.602 11.5 17l2.5-3c1.745 0 3.913 9.044 2 10-3.602 1.801-2.925-3-4.5-3v9.5c-3.328 6.655-17.278 12.445-22 3-1.812-3.624-1-9.182-1-13.5-2.35 0-.217 7.934-1 9.5-.175.35-4 8.587-4 4.5-1.684 0-1 4.679-1 6v20l2.5-4c2.444 0 1.5 8.441 1.5 10Z"/><path fill="#0B858B" id="VISl5" d="m95 83-7 1 5-5h1l1 4ZM361 83l7 1c0-1.533-3.753-4-5-4-1.577 0-2 1.762-2 3Z"/><path fill="#09818C" id="VISpor1" d="m48 131-5 4c0-14.761.903-20.306 7-32.5l8-10C59.304 89.893 66.086 81 68 81l3 2c0 4.82-10.482 11.465-13 16.5-5.299 10.597-10 17.496-10 30.5v1Z"/><path fill="#08838C" id="VISpl6a" d="m86 106-3 1v-1c3.055 0 6.97-8.44 8-10.5l10-9.5h1l18-3c3.275 0 6.454-1 9-1v1c0 3.281-17 9.303-17 10-1.048 0-3-.473-3 1l-5 1c-1.424 0-5 .362-5 2l-2 1-1 1-1 1-2 1-1 1-1 1h-2l-1 1-1 1-1 1ZM130 81l-1 1 1-1ZM371 107h2l-12-16.5-6-4.5-2-1c0 1.762-3.576 0-5 0-2.525 0-7.561-2-11-2-4.237 0-7.977-2-11-2l1 2 7.5 6c1.611.805 10.5 1.968 10.5 4 1.048 0 3-.473 3 1h1l1 1h3c2.017 0 10 3.36 10 6h1l1 1 1 1h1l1 1 2 1 1 1v1Z"/><path fill="#09818C" id="VISpor1" d="M72 83h1v-1l-1 1Z"/><path fill="#0A8389" id="VISpor2/3" d="M399 124c3.721 0 6.197 6 10 6 0-13.347-6.51-21.52-12-32.5L384 82h-1l-1 1c0 1.238-1.923 5-3 5v1c3.816 0 6 6.82 6 9 0 6.499 13 16.852 13 25l1 1Z"/><path fill="#09818C" id="VISpor1" d="m409 131 4 3c0-14.959-.499-19.498-7-32.5l-6-7c-.869-1.739-9.476-12.5-11-12.5h-5l13 15.5c5.49 10.98 12 19.153 12 32.5v1Z"/><path fill="#0A8389" id="VISpor2/3" d="m57 124-9 6c0-13.004 4.701-19.903 10-30.5 2.518-5.035 13-11.68 13-16.5h2l2 1 2 4v1c-4.714 0-5 7.088-5 9 0 3.233-14 18.976-14 25l-1 1Z"/><path fill="#09848C" id="VISpl2/3" d="m81 84-4 4-2-4c0-1.81 4.336 0 6 0ZM81 84h1v-1l-1 1Z"/><path fill="#08828B" id="VISl4" d="m83 83-1 1v-1h1Z"/><path fill="#0B858A" id="VISpl4" d="m77 89 2 2 7-6c0-1.577-1.762-2-3-2l-1 1h-1l-4 4v1Z"/><path fill="#0B838C" id="VISpl5" d="M79 92c2.672 0 4 12.75 4 14 3.055 0 6.97-8.44 8-10.5l10-9.5-6-3-7 1-2 1-7 6v1Z"/><path fill="#C9C8C8" id="bic" d="M142 113c-2.35 0-.217 7.934-1 9.5-.175.35-4 8.587-4 4.5 0-14.8 5.951-23.403 12-35.5 1.42-2.84 4.919-8.5 8-8.5 0 8.953-12 13.135-12 22l-1 2-1 2v1c-1.473 0-1 1.952-1 3ZM313 109c4.354 0 1.226 17.363 4.5 19l2.5-1c0-13.678-6.362-23.225-12-34.5-1.429-2.857-4.832-9.5-9-9.5 0 9.265 14 15.373 14 25v1Z"/><path fill="#0B838C" id="VISpl5" d="M373 107h1c0-1.842-1-4.283-1-5.5 0-3.117 4-6.894 4-10.5l-6-6-3-1-7-1-6 3 6 4.5 12 16.5Z"/><path fill="#0B858A" id="VISpl4" d="M377 91h1l1-2v-1l-5-5h-1l-2 2 6 6Z"/><path fill="#09848C" id="VISpl2/3" d="M382 83c0 1.238-1.923 5-3 5l-5-5h8Z"/><path fill="#FF8FFE" id="SCdw" d="M191 113c0-2.772 1.833-5.167 3-7.5 3.525-7.05 8.81-12.655 16.5-16.5 3.677-1.839 9.615-1 14-1h18c9.746 4.873 22.5 12.878 22.5 26l3-4c0-7.685-10.078-16.789-16.5-20l-3-3c-1.131-.565-31.735-2.632-33-2-6.227 3.113-15.402 5.304-18.5 11.5-1.996 3.992-9 7.836-9 13.5l3 3Z"/><path fill="#FC8FFF" id="PAG" d="M243 155c-3.679 0-6.067 3-9 3l-1-13.5c1.217-2.434 4.439-13.5-2-13.5v-5c0-3.007 6.683-7.133 5-10.5-2.66-5.321-7.197-12.606-11-5l-5 5 5 9.5 1 6c-6.39 0-3 22.809-3 27-3.083 0-5.545-3-9-3-4.539 0-22.889-11.277-25-15.5l1-13.5 1-13c0-2.772 1.833-5.167 3-7.5 3.525-7.05 8.81-12.655 16.5-16.5 3.677-1.839 9.615-1 14-1h18c9.746 4.873 22.5 12.878 22.5 26 0 3.776 2 7.581 2 11v16c-2.33 0-18.97 14-24 14Z"/><path fill="#0A828A" id="VISpor4" d="M79 92c-2.714 0-5.438 6-7 6 0-1.912.286-9 5-9l2 2v1ZM378 91l7 7c0-2.18-2.184-9-6-9l-1 2Z"/><path fill="#0B838A" id="VISpor5" d="m392 121 6 2c0-8.148-13-18.501-13-25l-7-7h-1c0 3.606-4 7.383-4 10.5 0 1.217 1 3.658 1 5.5l1 2c3.134 0 10.845 12 17 12ZM65 121l-7 2c0-6.024 14-21.767 14-25 1.562 0 4.286-6 7-6 2.672 0 4 12.75 4 14v1l-2 3-1 1-1 1-1 1c-4.276 0-8.163 8-13 8Z"/><path fill="#FE79FE" id="ICe" d="M142 113c0 4.318-.812 9.876 1 13.5 4.722 9.445 18.672 3.655 22-3V110c0-5.398-4.525-20.487-11.5-17-3.03 1.515-4.902 12-8.5 12l-1 2-1 2v1c0 1.048.473 3-1 3ZM313 108c-2.547 0-8.829-18.335-13.5-16-7.024 3.512-9.997 27.506-6.5 34.5 2.595 5.189 12.975 5.763 17.5 3.5 2.739-1.369 3.378-5.256 4.5-7.5 2.087-4.174-2-9.81-2-13.5v-1Z"/><path fill="#72D568" id="PAR" d="M108 179c0 3.686 3 6.177 3 10 1.951 0 .477-2.454 1-3.5 1.807-3.615 1.22-8.44 3-12 3.561-7.123 14-39.012 14-46.5 0-5.155-17-28.994-17-34-1.048 0-3-.473-3 1 1.93 0 0 1.161 0 2l2 5 2 11c0 16.113-6 29.767-6 45 0 7.293 1 15.359 1 22ZM349 179l-4 8c-2.246 0-3.029-12.557-4-14.5-3.329-6.657-14-39.628-14-46.5 1.87 0 4.263-6.025 5-7.5 2.061-4.123 2.965-8.93 5-13 2.065-4.13 8-7.602 8-12.5 1.048 0 3-.473 3 1l-1 2c0 2.25-2 3.376-2 5l-1 10c-1.247 0-1.675 8.15-1 9.5 2.465 4.93 6 29.244 6 35.5v23Z"/><path fill="#C8CBCC" id="ec" d="m100 100-5 1v-1l1-1 1-1 2-1c1.424 0 5-.362 5-2l5-1c1.93 0 0 1.161 0 2-1.176 0-7 2.114-7 3h-1l-1 1ZM363 101v1l-6-2-1-1h-2c0-.886-5.824-3-7-3l1-2h1l1 1h3l10 6Z"/><path fill="#7DCD4B" id="HPF" d="m349 94 1 1-1-1Z"/><path fill="#08848A" id="VISpl6b" d="M104 95c-1.424 0-5 .362-5 2 1.424 0 5-.362 5-2ZM353 95c2.017 0 10 3.36 10 6l-10-6Z"/><path fill="#7DCD4B" id="HPF" d="m108 99 3 2-2-5c-1.176 0-7 2.114-7 3h6ZM349 99h5c0-.886-5.824-3-7-3 0 2.25-2 3.376-2 5l4-2Z"/><path fill="#08848A" id="VISpl6b" d="m99 97-2 1 2-1ZM97 98l-1 1 1-1Z"/><path fill="#7DCD4B" id="HPF" d="m101 99-1 1 1-1Z"/><path fill="#32B623" id="ENTm6" d="M70 174v2c2.78 0 5.268 5.116 9.5 3 5.773-2.887 4.138-13.775 6.5-18.5 6.546-13.092 3.456-30.912 10-44 2.067-4.133 4.909-7.818 7-12l5-5.5h-7l-1 1-5 1-2 1h-1l-1 1h-2l-1 1-1 1-1 1c0 11.238-4.216 25.931-9 35.5-2.177 4.355-.79 10.579-3 15-1.921 3.842-1.037 9.074-3 13-.574 1.147 1.064 4.5-1 4.5Z"/><path fill="#30B724" id="ENTm5" d="M70 176c0 5.343-3 10.144-3 16 4.914 0 11.037 9.232 17.5 6 11.67-5.835 9.685-38.871 15.5-50.5 4.313-8.627 4.634-19.269 9-28 .737-1.475 1.705-7.5 4-7.5l-2-11-3-2-5 5.5c-2.091 4.182-4.933 7.867-7 12-6.544 13.088-3.454 30.908-10 44-2.362 4.725-.727 15.613-6.5 18.5-4.232 2.116-6.72-3-9.5-3ZM390 191v1c-7.135 0-11.893 9.303-20.5 5-6.412-3.206-3.853-16.207-6.5-21.5-1.917-3.834-.161-9.322-2-13-3.918-7.836-4.058-17.117-8-25v-4c-1.903-3.806-9-19.035-9-22.5l1-10 4-2c0 3.215 8.116 10.732 10 14.5 2.674 5.349 10 34.9 10 41 0 7.01 3.011 16.022 6 22 1.643 3.286 11 3.708 11-.5 2.064 0 .426 3.353 1 4.5l3 10.5Z"/><path fill="#32B623" id="ENTm6" d="M386 175v1c0 4.208-9.357 3.786-11 .5-2.989-5.978-6-14.99-6-22 0-6.1-7.326-35.651-10-41-1.884-3.768-10-11.285-10-14.5h7l1 1 6 2h2l1 1h1l1 1 2 1 1 1v1c0 11.057 3.369 23.237 8 32.5 2.886 5.772 1.09 17.181 4 23 1.582 3.164 3 8.875 3 12.5Z"/><path fill="#7DCD4B" id="HPF" d="m356 99 1 1-1-1Z"/><path fill="#08848A" id="VISpl6b" d="M93 101h2v-1l-2 1ZM92 102h1v-1l-1 1Z"/><path fill="#C8CBCC" id="ec" d="m95 101-2 1v-1h2Z"/><path fill="#7DCD4B" id="HPF" d="M363 102h1v-1h-1v1Z"/><path fill="#08848A" id="VISpl6b" d="M364 102h1l-1-1v1Z"/><path fill="#7DCD4B" id="HPF" d="m92 102-1 1 1-1ZM365 102l1 1-1-1ZM89 103l-1 1 1-1ZM367 103l1 1-1-1ZM88 104l-1 1 1-1Z"/><path fill="#FF64FF" id="MB" d="m145 105-1 2 1-2Z"/><path fill="#7DCD4B" id="HPF" d="m370 105 1 1-1-1Z"/><path fill="#32B824" id="ENTl6a" d="m78 113-7 14.5c-3.006 6.012-4 23.596-4 31 0 3.904.382 7.764 2 11 .574 1.147-1.064 4.5 1 4.5s.426-3.353 1-4.5c1.963-3.926 1.079-9.158 3-13 2.21-4.421.823-10.645 3-15 4.784-9.569 9-24.262 9-35.5l-3 1-2 3-1 1-1 1-1 1Z"/><path fill="#A9A9A8" id="AQ" d="M225 125c.979 0 2.61 1 6 1 0-3.007 6.683-7.133 5-10.5-2.66-5.321-7.197-12.606-11-5l-5 5 5 9.5Z"/><path fill="#FF64FF" id="MB" d="m144 107-1 2 1-2Z"/><path fill="#FE79FF" id="ICd" d="m165 110 2.5-3c1.745 0 3.913 9.044 2 10-3.602 1.801-2.925-3-4.5-3v-4ZM288 107l-2 5.5c-.702 1.403.765 5.5 2.5 5.5 3.784 0 3.648-11-.5-11Z"/><path fill="#32B824" id="ENTl6a" d="M375 109c0 1.427 8.729 13.958 10 16.5 3.493 6.986 4 24.316 4 33 0 2.794-.204 16.5-3 16.5 0-3.625-1.418-9.336-3-12.5-2.91-5.819-1.114-17.228-4-23-4.631-9.263-8-21.443-8-32.5h2l2 2Z"/><path fill="#0C858B" id="VISpor6a" d="m374 107 1 2-2-2h1Z"/><path fill="#31B824" id="ENTl5" d="M386 176c2.064 0 .426 3.353 1 4.5l3 10.5c6.876 0 5.33-12.16 7-15.5 5.875-11.75-5-41.805-5-54.5-6.155 0-13.866-12-17-12 0 1.427 8.729 13.958 10 16.5 3.493 6.986 4 24.316 4 33 0 2.794-.204 16.5-3 16.5v1ZM81 110l-1 1 1-1Z"/><path fill="#FF64FF" id="MB" d="M143 110c-1.473 0-1 1.952-1 3 1.473 0 1-1.952 1-3Z"/><path fill="#31B723" id="ENTm3" d="m390 192 2 10c-6.206 0-23.333 14.834-29 3.5-5.568-11.136-3.886-26.772-9-37-.968-1.936-2.512-12.5-5-12.5 0-6.256-3.535-30.57-6-35.5-.675-1.35-.247-9.5 1-9.5 0 3.465 7.097 18.694 9 22.5v4c3.942 7.883 4.082 17.164 8 25 1.839 3.678.083 9.166 2 13 2.647 5.293.088 18.294 6.5 21.5 8.607 4.303 13.365-5 20.5-5Z"/><path fill="#31B824" id="ENTl5" d="m79 112-1 1 1-1Z"/><path fill="#31B723" id="ENTm3" d="M64 201v1c7.308 0 23.577 15.346 30 2.5 5.739-11.477 3.289-26.577 9-38 .784-1.568 1.924-9.5 4-9.5 0-15.233 6-28.887 6-45-2.295 0-3.263 6.025-4 7.5-4.366 8.731-4.687 19.373-9 28-5.815 11.629-3.83 44.665-15.5 50.5-6.463 3.232-12.586-6-17.5-6h-1l-2 9Z"/><path fill="#31B824" id="ENTl5" d="M66 192h1c0-5.856 3-10.657 3-16v-2c-2.064 0-.426-3.353-1-4.5-1.618-3.236-2-7.096-2-11 0-7.404.994-24.988 4-31l7-14.5c-4.276 0-8.163 8-13 8l-2 4.5c-1.263 2.526-4 29.149-4 33.5l-1 10.5c2.36 4.718.623 11.246 3 16l5 6.5Z"/><path fill="#32B725" id="ENTl3" d="m66 192-2 9c-3.62 0-7.77-11.041-9-13.5-9.969-19.937 2-42.272 2-63.5l1-1 7-2-2 4.5c-1.263 2.526-4 29.149-4 33.5l-1 10.5c2.36 4.718.623 11.246 3 16l5 6.5Z"/><path fill="#FF8FFD" id="MRN" fill-rule="evenodd" d="M219 171c0 3.746 2.091 0 0 0m-7 17c0-2.56 3.334 0 4 0l1-4c-11.957 0 2-13.347 2-4 2.627 0 3-10.641 3-13-1.368 0-4-5.878-4-7h-1c-1.606 0-4.339 2.081-6.5 1-1.632-.816-.179-4.411 1-5l3.5 1-1-2c-4.539 0-22.889-11.277-25-15.5l1-13.5-5.5-5c-6.109-3.055-21.5 4.819-21.5 10 6.815 0-2 8.251-2 12l2 2c3.042 0 15.024-14 20.5-14 2.756 0 7.599 12.302 6.5 14.5-.972 1.943-7 4.201-7 5.5v1c5.532 0 9.176 11 10 11 4.175 0 24.212 3.077 21 9.5-1.264 2.529-12.052.5-14 .5 0 1.791 3.27 2.959 2 5.5-2.279 4.558-14.583 6.5-19 6.5v1h1l13.5-1 5.5 2 9 1Z"/><path fill="#FF8FFD" id="MRN" d="m296 143-3 2c0-3.441-14.775-10.637-17.5-12l-3-2c-3.116 1.558-3.531 10-5.5 10v-16l4.5-4c6.611-3.306 22.5 5.391 22.5 11-8.916 0 2 5.639 2 11Z"/><path fill="#32B725" id="ENTl3" d="M392 202h1l7-10.5 5-13c1.706-3.412.473-16.054-1-19-1.434-2.868-5-30.908-5-35.5l-1-1-6-2c0 12.695 10.875 42.75 5 54.5-1.67 3.34-.124 15.5-7 15.5v1l2 10Z"/><path fill="#32B825" id="ENTl2" d="M64 202c0 1.147-1.733 7-3 7-5.894 0-10.077-11.654-12-15.5-14.348-28.696-1-35.364-1-62.5v-1l9-6c0 21.228-11.969 43.563-2 63.5 1.23 2.459 5.38 13.5 9 13.5v1ZM393 202l2 7c5.66 0 10.084-10.668 12-14.5 14.826-29.652 2-34.524 2-63.5v-1c-3.803 0-6.279-6-10-6 0 4.592 3.566 32.632 5 35.5 1.473 2.946 2.706 15.588 1 19l-5 13-7 10.5Z"/><path fill="#FF64FF" id="MB" d="M226 131h5v-5c-3.39 0-5.021-1-6-1l1 6Z"/><path fill="#32B722" id="ENTl1" d="m61 210-2 4c-5.532 0-12.003-10.507-14-14.5-3.4-6.801-12.408-33.184-8-42 2.973-5.946 6-15.559 6-22.5l5-4c0 27.136-13.348 33.804 1 62.5 1.923 3.846 6.106 15.5 12 15.5v1Z"/><path fill="#C9C9CB" id="ll" d="M159 180c0 3.762-6 16.863-6 8 0-5.823-.402-10.696 2-15.5 1.799-3.599-1-10.356-1-13.5 0-8.945 1.355-7.21 5-14.5l-1-9c.925-1.851 5-2.705 5-4.5 6.815 0-2 8.251-2 12-2.371 0 0 10.288 0 12 0 8.501-2 14.583-2 23v2Z"/><path fill="#FC90FF" id="CUN" d="M164 153h3c3.531 0 7.893-1 12-1h1c0-1.473 1.952-1 3-1 0-1.299 6.028-3.557 7-5.5 1.099-2.198-3.744-14.5-6.5-14.5-5.476 0-17.458 14-20.5 14 0 2.707 1 5.903 1 8Z"/><path fill="#FDA6FF" id="DR" d="M225 165c1.602 0 2.384 3.058 4.5 2l1.5-2v-1l1-1v-1l1-1c0-1.048-.473-3 1-3l-1-13.5c1.217-2.434 4.439-13.5-2-13.5h-5c-6.39 0-3 22.809-3 27l2 5v2Z"/><path fill="#FC90FF" id="CUN" d="M290 153h2l2-3.5-1-4.5c0-3.441-14.775-10.637-17.5-12l-3-2c-3.116 1.558-3.531 10-5.5 10 0 8.123 6 8.521 6 10 1.048 0 3-.473 3 1h2l12 1Z"/><path fill="#C9C9CB" id="ll" d="M298 181c0 5.834 1.336 9 6 9 0-6.389-.311-14.122-3-19.5-2.167-4.334 2-9.839 2-13.5 0-5.829-2.659-5.819-5-10.5v-12l-4-2.5c-8.916 0 2 5.639 2 11v15l1 13c1.763 0 1 8.343 1 10Z"/><path fill="#32B722" id="ENTl1" d="m395 210 3 4c3.842 0 11.407-11.315 13-14.5 6.046-12.091 8-22.401 8-36v-8c-2.761-5.522-6-15.149-6-21.5l-4-3c0 28.976 12.826 33.848-2 63.5-1.916 3.832-6.34 14.5-12 14.5v1Z"/><path fill="#FF7AFE" id="SAG" d="M145 139c0 1.284-3.47 2.561-2 5.5 3.812 7.624 16.921-5.5 2-5.5ZM307 139c0 1.317-3.356 1.788-2 4.5 4.711 9.421 16.635-4.5 2-4.5Z"/><path fill="#FF8FFD" id="MRN" fill-rule="evenodd" d="M236 170c0 7.612 3.111 0 0 0m18 17-10 1c0-1.473-1.952-1-3-1 0-1.366-2.366-4-4-4v-1l3 2c2.145 0 2.17.16 3-1.5 3.354-6.708-6-6.478-6-3.5-3.208 0-2-10.472-2-12 0-2.087 3-4.393 3-7h1c1.606 0 4.339 2.081 6.5 1 2.788-1.394-.124-5-2.5-5v-1c5.03 0 21.67-14 24-14 0 8.123 6 8.521 6 10v1c-3.986 0-9 7.603-9 11-11.665 0-38.947 10-8 10 0 1.606-2.081 4.339-1 6.5 1.726 3.452 14.479 5.5 18 5.5v1h-1c-3.202 0-9.03-2.735-12.5-1l-5.5 2Z"/><path fill="#FF79FD" id="PBG" d="M140 143c0 1.93 1.93 0 0 0Z"/><path fill="#FF64FF" id="MB" d="m164 153-3 2c0-1.712-2.371-12 0-12l2 2c0 2.707 1 5.903 1 8ZM292 153c2.854 0 2.448 5 4 5v-15l-3 2 1 4.5-2 3.5Z"/><path fill="#FF79FD" id="PBG" d="M315 143c0 2.091 3.746 0 0 0Z"/><path fill="#C9C9CB" id="ll" d="M136 194c1.947 0 2.636 3 5 3l-1-5-2-3.5c-2.184-4.367 2-22.985 2-29.5 0-1.559.944-10-1.5-10l-2.5 4c0 3.08-.631 8.762-2 11.5l1 25.5 1 4ZM320 194l-5 4 1-5 3-5.5c.586-1.172-2-21.997-2-26.5l.5-12 2.5 2c0 3.166.693 5.886 2 8.5V189l-2 5Z"/><path fill="#FF64FF" id="MB" d="M180 152h3v-1c-1.048 0-3-.473-3 1ZM273 152h3c0-1.473-1.952-1-3-1v1ZM179 152c-4.107 0-8.469 1-12 1 0 1.652 12-.052 12-1Z"/><path fill="#FFA5FD" id="PPN" d="m183 185-1 1c-3.842 0-21 1.906-21-5l-2-3c0-8.417 2-14.499 2-23l3-2h3c0 1.652 12-.052 12-1h4c5.532 0 9.176 11 10 11 0 2.247-4 7.33-4 9.5 0 2.675 9.367.5 11 .5 0 1.791 3.27 2.959 2 5.5-2.279 4.558-14.583 6.5-19 6.5ZM273 185l2 1c4.054 0 21 1.892 21-6 0-2.389 1-5.987 1-9l-1-13c-1.552 0-1.146-5-4-5h-2c0 1.652-12-.052-12-1h-5c-3.986 0-9 7.603-9 11 0 11.513 8.06 10-8 10 0 1.606-2.081 4.339-1 6.5 1.726 3.452 14.479 5.5 18 5.5Z"/><path fill="#FF64FF" id="MB" d="m278 152 12 1c0 1.652-12-.052-12-1Z"/><path fill="#FFAC6F" id="NLL" d="M153 188c-1.154 0-2.386 5.943-4.5 7-3.937 1.969-5.877-3-8.5-3l-2-3.5c-2.184-4.367 2-22.985 2-29.5 2.374 0 5.578-6.461 10.5-4l3.5 4c0 3.144 2.799 9.901 1 13.5-2.402 4.804-2 9.677-2 15.5Z"/><path fill="#FF64FF" id="MB" d="M218 160c2.463 0 4.65 3 7 3l-2-5c-3.083 0-5.545-3-9-3l1 2c1.577 0 2 1.762 2 3h1ZM238 160h1l4-4v-1c-3.679 0-6.067 3-9 3-1.473 0-1 1.952-1 3 .893 0 5-3.652 5-1Z"/><path fill="#FFAC6F" id="NLL" d="M304 190c.568 0 2.885 4.192 4.5 5 2.931 1.465 5.297-2 7.5-2l3-5.5c.586-1.172-2-21.997-2-26.5l-4.5-6c-3.56-1.78-6.73 2-9.5 2 0 3.661-4.167 9.166-2 13.5 2.689 5.378 3 13.111 3 19.5Z"/><path fill="#FE8DFE" id="Pa4" d="M215 157c1.577 0 2 1.762 2 3-1.606 0-4.339 2.081-6.5 1-1.632-.816-.179-4.411 1-5l3.5 1ZM243 156c2.376 0 5.288 3.606 2.5 5-2.161 1.081-4.894-1-6.5-1l4-4Z"/><path fill="#30B824" id="ENTm2" d="M395 209v1c-2.354 0-17.431 7.466-20.5 9H368c-12.42 0-10.976-12.453-15-20.5v-5c-1.606-3.212-4-11.01-4-14.5v-23c2.488 0 4.032 10.564 5 12.5 5.114 10.228 3.432 25.864 9 37 5.667 11.334 22.794-3.5 29-3.5h1l2 7ZM61 209v1c6.793 0 22.536 13.982 32.5 9 9.703-4.851 7.569-20.638 11.5-28.5.964-1.928.072-11.5 3-11.5 0-6.641-1-14.707-1-22-2.076 0-3.216 7.932-4 9.5-5.711 11.423-3.261 26.523-9 38-6.423 12.846-22.692-2.5-30-2.5 0 1.147-1.733 7-3 7Z"/><path fill="#CBCBCC" id="mlf" d="M225 165c0 1.577-1.762 2-3 2-1.368 0-4-5.878-4-7 2.463 0 4.65 3 7 3v2ZM231 165l4 2c0-2.087 3-4.393 3-7 0-2.652-4.107 1-5 1l-1 1v1l-1 1v1Z"/><path fill="#FF64FF" id="MB" d="m233 161-1 1 1-1Z"/><path fill="#CBC9CB" id="scp" d="M193 163c4.175 0 24.212 3.077 21 9.5-1.264 2.529-12.052.5-14 .5-1.633 0-11 2.175-11-.5 0-2.17 4-7.253 4-9.5Z"/><path fill="#FF64FF" id="MB" d="m232 163-1 1 1-1Z"/><path fill="#CBC9CB" id="scp" d="M264 163c-11.665 0-38.947 10-8 10 16.06 0 8 1.513 8-10Z"/><path fill="#FF64FF" id="MB" d="M222 188c1.874 0 5.119 3 6.5 3l1-2h4.5c0-2.59-.026-6 3-6v-4c-3.208 0-2-10.472-2-12l-4-2-1.5 2c-2.116 1.058-2.898-2-4.5-2 0 1.577-1.762 2-3 2 0 2.359-.373 13-3 13v3c2.6 0 3 2.639 3 5Z"/><path fill="#C8C8C8" id="mtg" d="M236 170c0 7.612 3.111 0 0 0ZM219 171c0 3.746 2.091 0 0 0Z"/><path fill="#FF64FF" id="MB" d="m296 180 2 1c0-1.657.763-10-1-10 0 3.013-1 6.611-1 9Z"/><path fill="#FC90FE" id="VTN" d="m219 183-2 1c-11.957 0 2-13.347 2-4v3ZM237 179v3l3 2c2.145 0 2.17.16 3-1.5 3.354-6.708-6-6.478-6-3.5Z"/><path fill="#FF64FF" id="MB" d="m159 180 2 1-2-3v2Z"/><path fill="#31B625" id="ENTm1" d="m61 210-2 4c0 2.232 5.052 4.276 6.5 5 4.52 2.26 22.65 10.675 28 8 9.417-4.709 17.5-27.486 17.5-38 0-3.823-3-6.314-3-10-2.928 0-2.036 9.572-3 11.5-3.931 7.862-1.797 23.649-11.5 28.5-9.964 4.982-25.707-9-32.5-9ZM395 210l3 4-7.5 5c-4.569 2.285-21.523 10.739-27 8-10.179-5.089-18.5-28.925-18.5-40l4-8c0 3.49 2.394 11.288 4 14.5v5c4.024 8.047 2.58 20.5 15 20.5h6.5c3.069-1.534 18.146-9 20.5-9Z"/><path fill="#FF9B88" id="P" fill-rule="evenodd" d="M155 263c0 4.913.612 9.112 4 12.5l5 4c.785-1.571-6.007-16.5-9-16.5m-8-67-2 3 2 2.5c2.964 5.928 5.283-5.5 0-5.5m49 88c-5.131 0-13.15 5.675-18.5 3-2.7-1.35-5.191-2.191-7.5-4.5l-4-3 9 8.5c-4.388 0-11.36-6.86-14.5-10l-15-15c-5.34-2.67-19.934-9.369-22.5-14.5-2.215-4.43-2-11.709-2-17 0-1.21.814-5.5 2-5.5l1 1c0 9.87-.166 21.167 11.5 27 3.115 1.558 11.946 6.027 16 4 3.983-1.992 6.559-8 .5-8l3-2.5c3.29-6.58-1.483-20.966-4-26-1.542-3.084-.793-10.646-4.5-12.5-3.65-1.825-4.542 3.584-5.5 5.5-5.246 10.493-2 11.469-2 21.5l-6-7c0-9.095 6.209-16.919 10-24.5.978-1.956-1-4.077-1-5.5l-1-1v-1l-1-5c2.623 0 4.563 4.969 8.5 3 2.114-1.057 3.346-7 4.5-7 0 8.863 6-4.238 6-8l2 1c0 6.906 17.158 5 21 5h2c0 1.55-6.228 2.364-7.5 3l-6.5 6c0-2.421-7.168-3.166-9.5-2-8.211 4.106-14.098 13 .5 13l-3 4.5c-1.967 3.933 4.415 18.957 7.5 20.5 2.939 1.47 4.216-2 5.5-2l1 3c-3.223 0-4 7.858-4 10l-2 4c0-10.203-7-23.766-7-5-4.129 0-4.129 5 0 5 0 4.417-2 8.355-2 13.5 0 1.425 1.523 4.489 3.5 3.5l2.5-4c0 5.949-.567 18 7 18 0 10.561 20.996 11.507 25 3.5 1.989-3.979-4-3.411-4-5.5l2-2 2 2c0 2.522 2 4.909 2 8l-1 1ZM307 196l-1 3.5c-.319.638 1.301 5.099 2.5 4.5 3.842-1.921 3.219-8-1.5-8m-19 47h2c0-9.308 7-18.949 7-2 3.514 0 2.548 2 4 2 0-9.676 2.002-18.503 6-26.5 1.023-2.046.904-9.798 5.5-7.5 1.565.783 1.833 4.166 2.5 5.5 6.695 13.39 2 10.467 2 22.5l7-9c0-7.569-7.694-17.889-11-24.5l2-5.5 1-5c-2.203 0-4.569 3.465-7.5 2-1.615-.808-3.932-5-4.5-5-4.664 0-6-3.166-6-9l-2-1c0 7.892-16.946 6-21 6h-3c0 1.55 6.228 2.364 7.5 3l7.5 7c0-10.983 25.547 4.977 15.5 10H295c0 2.342 6.404 6.692 2 15.5l-5.5 9.5c-1.517.759-5.5-.037-5.5-2l-2 3c4.553 0 4 7.501 4 11Z"/><path fill="#FD90FE" id="AT" d="M216 188c1.178 0 6 4.304 6 0 0-2.361-.4-5-3-5l-2 1-1 4ZM240 188c-1.03 0-2.671 1-6 1 0-2.59-.026-6 3-6 1.634 0 4 2.634 4 4l-1 1Z"/><path fill="#FF64FF" id="MB" d="M182 186h1v-1l-1 1Z"/><path fill="#FFC295" id="PRNr" d="M207 243h-23.5l-5.5 2c0-3.396-2.118-13-6-13l-1-3v-22c0-1.048.473-3-1-3v-9l6.5-6c1.272-.636 7.5-1.45 7.5-3l13.5-1 5.5 2 2 2c0 2.473.728 9 4 9v10.5l4 7.5c0 3.119 5.085 7.33 3 11.5l-3 4.5c-6.11 0-6 6.223-6 11ZM249 243h24.5l4.5 2c2.957 0-.527-13 6-13l2-3c0-6.319-1-14.033-1-21l1-5c0-1.819 1-4.591 1-7l-7.5-7c-1.272-.636-7.5-1.45-7.5-3-3.202 0-9.03-2.735-12.5-1l-5.5 2-2 3c0 1.6-3.116 8-5 8v1c0 2.467 1.505 8.489 0 11.5-.681 1.362-4 4.844-4 5.5l-2 3c0 2.147-1 4.993-1 6.5 0 2.29 4 4.521 4 6.5 6.23 0 5 7.954 5 11Z"/><path fill="#FF64FF" id="MB" d="M273 186h2l-2-1v1Z"/><path fill="#FF9B88" id="P" d="M209 199c2.879 0 1.993 4 4 4l-1-15-9-1 2 2c0-4.918 4 6.027 4 9v1Z"/><path fill="#FFC393" id="CS" d="M215 216c0 1.483 2.302 10.802 3.5 12 .887.887 6.698 2.104 7.5.5.66-1.319.309-10.5 2.5-10.5l.5 4.5c1.547 3.095 1.197 9.652 7.5 6.5 2.907-1.454 2.387-10 4.5-10v-4c0-4.232 2-7.38 2-11 0-4.925 1-10.521 1-16 0-1.473-1.952-1-3-1l-1 1c-1.03 0-2.671 1-6 1h-4.5l-1 2c-1.381 0-4.626-3-6.5-3 0 4.304-4.822 0-6 0-.666 0-4-2.56-4 0l1 15c0 4.068 2 8.146 2 13Z"/><path fill="#FF8FFD" id="MRN" d="m241 187-1 1 1-1Z"/><path fill="#FF9B88" id="P" d="m247 199-4 5c0-4.925 1-10.521 1-16l10-1-2 3-1.5-2c-2.481 0-3.5 8.209-3.5 10v1Z"/><path fill="#C8C8CC" id="tspc" d="M205 189c0 2.473.728 9 4 9 0-2.973-4-13.918-4-9ZM252 190l-1.5-2c-2.481 0-3.5 8.209-3.5 10 1.884 0 5-6.4 5-8Z"/><path fill="#F0F080" id="CB" d="M136 194c-3.301 0-7.523 2-9 2 0-6.043 3.925-6 8-6l1 4ZM320 194c3.047 0 5.982-.259 8.5 1l2.5 3c0-4.259-4.72-9-9-9l-2 5Z"/><path fill="#FEBA86" id="SUT" d="M161 206h4c0-.672 4.329-2 5-2v-9c0-2.421-7.168-3.166-9.5-2-8.211 4.106-14.098 13 .5 13ZM291 206h11.5c10.047-5.023-15.5-20.983-15.5-10 0 2.409-1 5.181-1 7l1.5 2c1.046.523 3.5-.951 3.5 1Z"/><path fill="#CCCCCA" id="mcp" d="M127 226c2.813 0 3.921 3 6 3 0-9.095 6.209-16.919 10-24.5.978-1.956-1-4.077-1-5.5l-1-1v-1c-2.364 0-3.053-3-5-3-3.301 0-7.523 2-9 2l-1 1c0 2.978-1 6.49-1 10 0 6.903 2 12.374 2 19ZM329 226l-5 2c0-7.569-7.694-17.889-11-24.5l2-5.5 5-4c3.047 0 5.982-.259 8.5 1l2.5 3v6c0 7.761-2 15.188-2 22Z"/><path fill="#F0F080" id="CB" d="m127 196-1 1 1-1Z"/><path fill="#CBC7CC" id="sctv" d="m147 196-2 3 2 2.5c2.964 5.928 5.283-5.5 0-5.5ZM307 196l-1 3.5c-.319.638 1.301 5.099 2.5 4.5 3.842-1.921 3.219-8-1.5-8Z"/><path fill="#C9C9CB" id="ll" d="m141 198 1 1-1-1Z"/><path fill="#C8C8CC" id="tspc" d="M213 216h2c0-4.854-2-8.932-2-13-2.007 0-1.121-4-4-4v9.5l4 7.5ZM241 215l2 1c0-.656 3.319-4.138 4-5.5 1.505-3.011 0-9.033 0-11.5l-4 5c0 3.62-2 6.768-2 11Z"/><path fill="#FF9B88" id="P" d="M291 206c-2.518 0-4.286 2-6 2l1-5 1.5 2c1.046.523 3.5-.951 3.5 1ZM165 206c2.124 0 4.436 1 6 1 0-1.048.473-3-1-3-.671 0-5 1.328-5 2Z"/><path fill="#F0F080" id="CB" d="m334 226-1 2-4-2c0-6.812 2-14.239 2-22 1.665 0 1 4.222 1 5.5l2 16.5Z"/><path fill="#FEB886" id="P5" d="M171 207v22c-1.284 0-2.561 3.47-5.5 2-3.085-1.543-9.467-16.567-7.5-20.5l3-4.5h4c2.124 0 4.436 1 6 1ZM285 208c0 6.967 1 14.681 1 21 0 1.963 3.983 2.759 5.5 2l5.5-9.5c4.404-8.808-2-13.158-2-15.5h-4c-2.518 0-4.286 2-6 2Z"/><path fill="#F0F080" id="CB" d="m127 226-3 1-1-1 1-14.5c0-1.19-.614-4.5 1-4.5 0 6.903 2 12.374 2 19Z"/><path fill="#FFAE6F" id="PSV" d="M151 250h1l3-2.5c3.29-6.58-1.483-20.966-4-26-1.542-3.084-.793-10.646-4.5-12.5-3.65-1.825-4.542 3.584-5.5 5.5-5.246 10.493-2 11.469-2 21.5v1l2 4v1l4.5 5 5.5 3ZM305 250h1l2-1h1c0-1.198 4.298-6 6-6l1-2v-1l1-2v-1c0-12.033 4.695-9.11-2-22.5-.667-1.334-.935-4.717-2.5-5.5-4.596-2.298-4.477 5.454-5.5 7.5-3.998 7.997-6 16.824-6 26.5v3c0 2.823 4 2.566 4 4Z"/><path fill="#FF9B88" id="P" d="m243 216-2 3v-4l2 1ZM231 251c3.514 0 2.548 2 4 2 0-2.312-.868-5 2-5l-6-4.5c-5.339-10.679 7.767-11.5 13-11.5 0-1.979-4-4.21-4-6.5 0-1.507 1-4.353 1-6.5-2.113 0-1.593 8.546-4.5 10-6.303 3.152-5.953-3.405-7.5-6.5l-.5-4.5c-2.191 0-1.84 9.181-2.5 10.5-.802 1.604-6.613.387-7.5-.5-1.198-1.198-3.5-10.517-3.5-12h-2c0 3.119 5.085 7.33 3 11.5l-3 4.5c5.46 0 17.136 1.227 12 11.5l-5 4.5c2.109 0 2 2.535 2 4 1.481 0 .785-2 3-2 0-8.802 6-7.853 6 1Z"/><path fill="#CACACB" id="sV" d="M151 250h1c6.059 0 3.483 6.008-.5 8-4.054 2.027-12.885-2.442-16-4-11.666-5.833-11.5-17.13-11.5-27l3-1c2.813 0 3.921 3 6 3l6 7v1l2 4v1c0 4.286 6.052 8 10 8ZM305 250h1l2-1h1c2.473 0 6-3.527 6-6l1-2v-1l1-2v-1l7-9 5-2 4 2v11.5c-2.462 4.924-8.339 12.919-13.5 15.5-2.616 1.308-6.447.724-9 2-1.19.595-3.347 1.826-5 1-4.624-2.312-7.692-8-.5-8Z"/><path fill="#FF9B88" id="P" fill-rule="evenodd" d="M284 284c0 1.93 1.93 0 0 0m1-1c0 1.93 1.93 0 0 0m4-4c0 3.479 3.479 0 0 0m-29 4c0 1.014 3.959 2 5 2 3.91 0 10.039 4.231 14.5 2l4-2-.5 2c2.266 0 10-5.365 10-7-1.571 0-.48-3.541 0-4.5 1.309-2.618 3.928-11.214 6.5-12.5 2.094-1.047 1.5 3.53 1.5 4.5 0 2.903-2 3.981-2 6.5l12.5-11c23.929-11.964 22.5-12.348 22.5-37l-1 2v11.5c-2.462 4.924-8.339 12.919-13.5 15.5-2.616 1.308-6.447.724-9 2-1.19.595-3.347 1.826-5 1-4.624-2.312-7.692-8-.5-8 0-1.434-4-1.177-4-4h-3c0 1.675 3.357 19.929-2.5 17-1.404-.702-.582-6-2.5-6 0 4.749 2.381 20-6 20v4c-2.558 0-4.36 2.93-6.5 4-5.007 2.504-16.703.095-19.5-5.5l4-4.5-1-3-3 3-1 8Z"/><path fill="#C8C8CB" id="rust" d="M163 257v2l-2.5 4c-1.977.989-3.5-2.075-3.5-3.5 0-5.145 2-9.083 2-13.5v-5c0-18.766 7-5.203 7 5v4l-1 1v3l-1 1v1l-1 1Z"/><path fill="#FEBA85" id="TRN" d="M207 243c0 5.131 9.651 5 13 5l5-4.5c5.136-10.273-6.54-11.5-12-11.5-6.11 0-6 6.223-6 11ZM249 243c0 4.967-7.607 5-12 5l-6-4.5c-5.339-10.679 7.767-11.5 13-11.5 6.23 0 5 7.954 5 11Z"/><path fill="#C8C8CB" id="rust" d="M293 256v1c1.918 0 1.096 5.298 2.5 6 5.857 2.929 2.5-15.325 2.5-17l-1-5c0-16.949-7-7.308-7 2v3c1.473 0 1 1.952 1 3l1 6 1 1Z"/><path fill="#C9C9CB" id="ll" d="M171 256h6l4-2.5c0-2.332-3-5.659-3-8.5 0-3.396-2.118-13-6-13-3.223 0-4 7.858-4 10l2 12 1 1v1ZM285 256v1l-5-1-4-2.5 2-8.5c2.957 0-.527-13 6-13 4.553 0 4 7.501 4 11 0 4.371-2 8.019-2 12l-1 1Z"/><path fill="#FF9B88" id="P" d="m139 237 2 4-2-4ZM317 238l-1 2 1-2Z"/><path fill="#FDB986" id="PC5" d="M159 241c-4.129 0-4.129 5 0 5v-5ZM298 246h3v-3c-1.452 0-.486-2-4-2l1 5Z"/><path fill="#FF9B88" id="P" d="m316 241-1 2 1-2ZM141 242l4.5 5 5.5 3c-3.948 0-10-3.714-10-8Z"/><path fill="#FEAE6E" id="SOCl" d="M172 259c0 4.041 4.764 18-2 18-7.567 0-7-12.051-7-18v-2l1-1v-1l1-1v-3l1-1v-4l2-4 2 12 1 1v1c0 1.048-.473 3 1 3Z"/><path fill="#FDBA86" id="PRNc" d="M212 261c-6.838 0-12.86 1-19 1l-2-1c-2.883 0-8.659-5-14-5l4-2.5c0-2.332-3-5.659-3-8.5l5.5-2H207c0 5.131 9.651 5 13 5 2.109 0 2 2.535 2 4l-1 2-2 2-1 1-2 1-1 1-1 1-2 1ZM265 261l-2 1c-6.035 0-12.234-1-19-1 0-1.577-1.762-2-3-2l-1-1-1-1h-1l-3-3v-1c0-2.312-.868-5 2-5 4.393 0 12-.033 12-5h24.5l4.5 2-2 8.5 4 2.5h-1c-5.485 0-10.724 5-14 5Z"/><path fill="#FEAE6E" id="SOCl" d="M284 262c0 3.554-4.132 15 3 15 8.381 0 6-15.251 6-20v-1l-1-1-1-6c-1.473 0-1-1.952-1-3v-3h-2c0 4.371-2 8.019-2 12l-1 1v5l-1 1Z"/><path fill="#FF9B88" id="P" d="M315 243c-1.702 0-6 4.802-6 6 2.473 0 6-3.527 6-6Z"/><path fill="#FFC5E2" id="RM" d="M226 259h5v-8c0-8.853-6-9.802-6-1l1 9Z"/><path fill="#FF9B88" id="P" d="M290 246c1.473 0 1 1.952 1 3-1.473 0-1-1.952-1-3ZM308 249l-2 1 2-1ZM166 250l-1 1 1-1Z"/><path fill="#CACCC8" id="ml" d="M226 259c0 10.779-11 12.537-11 1v-1l1-1 2-1 1-1c1.747 0 2-.253 2-2l1-2c1.481 0 .785-2 3-2l1 9ZM241 259v1c0 11.94-10 10.696-10-1v-8c3.514 0 2.548 2 4 2v1l3 3h1l1 1 1 1Z"/><path fill="#FF9B88" id="P" d="m222 252-1 2 1-2ZM165 254l-1 1 1-1ZM170 254l1 1-1-1ZM221 254l-2 2c1.747 0 2-.253 2-2ZM235 254l3 3-3-3ZM286 255l-1 1 1-1ZM292 255l1 1-1-1ZM164 256l-1 1 1-1ZM176 258l-4 1c-1.473 0-1-1.952-1-3h6l-1 2Z"/><path fill="#FFAD6E" id="SOCm" d="m193 273-2 2c-7.001 0-15-10.713-15-17l1-2c5.341 0 11.117 5 14 5l2 4v8Z"/><path fill="#FF9B88" id="P" d="m219 256-1 1 1-1Z"/><path fill="#FFAD6E" id="SOCm" d="m264 272 1 3c6.555 0 16-10.83 16-17l-2-2c-5.485 0-10.724 5-14 5l-1 2v9Z"/><path fill="#FF9B88" id="P" d="m281 258 4 1v-2l-5-1h-1l2 2ZM239 257l1 1-1-1Z"/><path fill="#FEAD6F" id="POR" d="M191 275c0 2.089 5.989 1.521 4 5.5-4.004 8.007-25 7.061-25-3.5 6.764 0 2-13.959 2-18l4-1c0 6.287 7.999 17 15 17Z"/><path fill="#FF9B88" id="P" d="m216 258-1 1 1-1Z"/><path fill="#FEAD6F" id="POR" d="M287 277v4c-2.558 0-4.36 2.93-6.5 4-5.007 2.504-16.703.095-19.5-5.5l4-4.5c6.555 0 16-10.83 16-17l4 1v2l-1 1c0 3.554-4.132 15 3 15Z"/><path fill="#FF9B88" id="P" d="M214 260h1v-1l-1 1Z"/><path fill="#FF9BCD" id="MY" d="M257 283h3l1-8c-3.158 0-19-8.134-19-10.5l2-3.5-3-1c0 11.94-10 10.696-10-1h-5c0 10.779-11 12.537-11 1h-1l-1 1 1 4.5c-1.453 2.906-15.507 9.5-19 9.5 0 2.522 2 4.909 2 8h3c0-7.634 17-17.112 17-6l2.5-4c2.222-1.111 9.148-3.426 12-2 1.284.642 2.813.406 4 1l4.5 6c0-12.742 17-2.163 17 5Z"/><path fill="#FF9B88" id="P" d="m241 260 3 1c0-1.577-1.762-2-3-2v1ZM212 261h1l1-1-2 1ZM193 262v3l-2-4 2 1Z"/><path fill="#FEA3D2" id="NTB" d="m193 273 2 2c3.493 0 17.547-6.594 19-9.5l-1-4.5h-1c-6.838 0-12.86 1-19 1v11ZM264 272l-3 3c-3.158 0-19-8.134-19-10.5l2-3.5c6.766 0 12.965 1 19 1l1 1v9Z"/><path fill="#FF9B88" id="P" d="m263 262 1 1 1-2-2 1ZM285 261l-1 1 1-1Z"/><path fill="#CBC7CC" id="sctv" d="M155 263c0 4.913.612 9.112 4 12.5l5 4c.785-1.571-6.007-16.5-9-16.5ZM294 279l-1 1c-1.571 0-.48-3.541 0-4.5 1.309-2.618 3.928-11.214 6.5-12.5 2.094-1.047 1.5 3.53 1.5 4.5 0 2.903-2 3.981-2 6.5l-1 1-1 1-1 1-1 1-1 1Z"/><path fill="#CCC7CB" id="tb" d="M262 288h19l2-1 .5-2-4 2c-4.461 2.231-10.59-2-14.5-2-1.041 0-5-.986-5-2h-3c-2.623 0-16 2.499-16-3l-1-1v-1l-4.5-6c-1.187-.594-2.716-.358-4-1-2.852-1.426-9.778.889-12 2l-2.5 4v1l-1 1c0 6.466-13.12 4-16 4h-3l-1 1c-5.131 0-13.15 5.675-18.5 3-2.7-1.35-5.191-2.191-7.5-4.5l-4-3 9 8.5h21l1-1h5c0-1.797 12.925-1 15-1h3l1-1c1.973 0 5.615-4.443 8.5-3l6.5 3 1 1h2c7.247 0 14.239 1 21 1l1 1h1Z"/><path fill="#C7C9C9" id="py" d="M216 279c0 6.466-13.12 4-16 4 0-7.634 17-17.112 17-6v1l-1 1ZM241 280c0 5.499 13.377 3 16 3 0-7.163-17-17.742-17-5v1l1 1Z"/><path fill="#FF9B88" id="P" d="m299 274-1 1 1-1ZM298 275l-1 1 1-1ZM297 276l-1 1 1-1ZM296 277l-1 1 1-1Z"/><path fill="#FF9BCD" id="MY" d="m217 278-1 1 1-1ZM240 279l1 1-1-1Z"/><path fill="#CCC7CB" id="tb" d="M289 279c0 3.479 3.479 0 0 0Z"/><path fill="#FF9B88" id="P" d="m294 279-1 1 1-1Z"/><path fill="#FF9BCD" id="MY" d="m197 283-1 1 1-1Z"/><path fill="#CCC7CB" id="tb" d="M285 283c0 1.93 1.93 0 0 0ZM284 284c0 1.93 1.93 0 0 0Z"/><path fill="#FF9BCD" id="MY" d="m221 285-1 1 1-1ZM236 285l1 1-1-1ZM217 286c-2.075 0-15-.797-15 1 2.075 0 15 .797 15-1ZM260 287v1l-16-1c-1.235 0-5 .643-5-1 7.247 0 14.239 1 21 1Z"/><path fill="#FF9B88" id="P" d="M196 288h1v-1l-1 1Z"/><path fill="#FF9BCD" id="MY" d="M202 287c0 1.643-3.765 1-5 1v-1h5Z"/><path fill="#FF9B88" id="P" d="M260 288h1l-1-1v1ZM283 287l-2 1 2-1ZM176 288h19c0 1.579-2.855 1-4 1-2.075 0-15 .797-15-1ZM262 288h19c0 1.579-2.855 1-4 1-2.075 0-15 .797-15-1Z"/></svg>