<svg xmlns="http://www.w3.org/2000/svg" viewBox="0 0 456 320"><path fill="#FCFB90" id="CUL4, 5" d="M154 133c2.678 0 3.323-1.911 5.5-3 17.308-8.654 7.182-20.864 13.5-33.5 4.45-8.9 10.182-22.341 20.5-27.5 3.796-1.898 8.149-3.075 12-5h8c3.006-1.503 8.585-3 12-3l2 2 3-2 2 1h7c4.563 2.281 10.557.778 15 3 10.967 5.483 20.68 13.86 26.5 25.5l5 18-1 8c2.952 5.905 10.539 16.5 18 16.5 0-10.332-3.927-41.353-8-49.5-5.027-10.054-12-18.264-12-30.5-3.475 0-4.543-8.021-8.5-10-6.61-3.305-33.45-12.275-42-8-7.349 3.674-27.163-2.918-37 2l-16 8c-2.811 1.406-2.683 8-6.5 8 0 11.544-6.745 20.99-12 31.5-5.482 10.965-7 35.196-7 48.5Z"/><path fill="#FDFB8F" id="SIM" d="M133 115c3.943 0 4.8-11.1 6-13.5 3.371-6.741 4.629-14.259 8-21l2-13c.977-1.954 8.325-9.588 10.5-8.5l-4.5 5.5-5 9c-2.328 4.656-.685 11.37-3 16-5.245 10.49-15.632 43.5 7 43.5 0-13.304 1.518-37.535 7-48.5 5.255-10.51 12-19.956 12-31.5 0-5.516-12.013-8.244-16.5-6-8.01 4.005-29.5 9.376-29.5 22l3 8.5v14c0 8.548 3 15.277 3 23.5ZM323 115c-2.253 0-4.115-8.73-5-10.5-3.952-7.905-5.02-17.04-9-25l-1-10L297.5 59c-2.202 1.101 3.193 3.886 3.5 4.5l6 11 2 14c5.508 11.016 16.522 44.5-6 44.5 0-10.332-3.927-41.353-8-49.5-5.027-10.054-12-18.264-12-30.5l5.5-6c5.819-2.91 17.661 1.83 22 4 5.459 2.73 11.47 6.47 16 11l3.5 7c0 1.931-2.962 9.425-4 11.5v21c-1.8 3.6-3 9.281-3 13.5Z"/><path fill="#CBC9CC" id="arb" fill-rule="evenodd" d="M209 143c0 2.256-.55 8.975 1.5 10 .411.206 10.354-4 13-4 4.892 0 11.88-1.06 16 1l6 3c1.609-.804 2.748-9.126 1-10-2.05-1.025-5.453 1.227-7 2h-16c-5.468 0-9.336-2-14.5-2m54 20h2c0-1.499-14.143-4.787-16-8.5-3.778-7.557 9.612-16.444 15.5-13.5 1.667.834 5.289 5 6.5 5 0-1.714 5.594-1 7-1 0-2.747-2.817-5.842 1.5-8 1.972-.986 22.985 8.492 26 10 5.769 2.885 11.787-3.606 17-1 5.066 2.533 4.5 8.233 4.5 13 0 2.708 1.119 4 4 4 5.724 0 11.316-4 18-4 6.147 0 11.348 3.424 16.5 6 2.542 1.271.471-5 2.5-5l3-2.5-9.5-.5c-3.199-1.599-22.5-7.338-22.5-10-4.808 0-12.898-11.705-10-17.5 2.213-4.427 8.336-7.671 10-11l8-16c.665-1.33 2.875-5.25 2-7l-6.5-8.5c-1.029 0 2.5 7.455 2.5 8 0 5.328-1.739 12.979-4 17.5-3.262 6.525-18 11.099-18 2.5-2.253 0-4.115-8.73-5-10.5-3.952-7.905-5.02-17.04-9-25l-1-10L297.5 59c-2.202 1.101 3.193 3.886 3.5 4.5l6 11 2 14c5.508 11.016 16.522 44.5-6 44.5-7.461 0-15.048-10.595-18-16.5l1-8-5-18c-5.82-11.64-15.533-20.017-26.5-25.5-4.443-2.222-10.437-.719-15-3h-7l-2-1-3 2-2-2c-3.415 0-8.994 1.497-12 3h-8c-3.851 1.925-8.204 3.102-12 5-10.318 5.159-16.05 18.6-20.5 27.5-6.318 12.636 3.808 24.846-13.5 33.5-2.177 1.089-2.822 3-5.5 3-22.632 0-12.245-33.01-7-43.5 2.315-4.63.672-11.344 3-16l5-9 4.5-5.5c-2.175-1.088-9.523 6.546-10.5 8.5l-2 13c-3.371 6.741-4.629 14.259-8 21-1.2 2.4-2.057 13.5-6 13.5 0 8.916-14.939 3.621-18-2.5v-4c-1.095-2.191-5.313-9.374-4-12 .378-.755 4.098-9.5 2.5-9.5-.852 0-7.381 9.739-6.5 11.5.7 1.4 2.998 2.997 4 5l3 11c3.005 6.01 10.585 9.17 14 16 1.785 3.569-6.383 16.5-10 16.5 0 1.644-4.257 3.379-5.5 4-3.542 1.771-16.64 6-20.5 6-3.835 0-5.39-.445-8.5-2l-2.5.5c0 1.453 8 2.061 8 4.5 0 9.874 9.872-1 18-1 7.283 0 14.005 4 18 4 2.313 0 5-1.452 5-4-1.614 0-1-3.31-1-4.5 0-3.729 2.257-6.879 5.5-8.5 4.504-2.252 9.718 4.141 14 2 4.014-2.007 28.39-13.72 30.5-9.5v6.5h7c.656 0 4.138-3.319 5.5-4 5.819-2.909 19.893 5.714 15.5 14.5l-10 5.5 10-2 6.5-4c8.845-4.423 18.768-5.616 28-1 1.258.629 7.5 3.576 7.5 5 5.304 0 9.506 4 14 4m-60-28c-6.056 0-15.267-6.034-18-11.5l-10-8c-4.97-9.939 7.757-35.128 16.5-39.5l13-7c5.861-2.93 15.045.478 22-3 3.426-1.713 7.004 3.998 11 2 2.147-1.073 5.572-.214 8 1h7c13.175 6.588 21.381 16.263 27.5 28.5 1.393 2.785 3.783 11.435 2 15-3.131 6.262-7.109 5.218-9 9-2.923 5.846-12.617 13.5-19 13.5l-6.5 3c-10.126 5.063-22.857 6.071-33 1-1.789-.895-11.5-1.558-11.5-4Z"/><path fill="#FCFB90" id="CUL4, 5" d="M203 135c-6.056 0-15.267-6.034-18-11.5l-10-8c-4.97-9.939 7.757-35.128 16.5-39.5l13-7c5.861-2.93 15.045.478 22-3 3.426-1.713 7.004 3.998 11 2 2.147-1.073 5.572-.214 8 1h7c13.175 6.588 21.381 16.263 27.5 28.5 1.393 2.785 3.783 11.435 2 15-3.131 6.262-7.109 5.218-9 9-2.923 5.846-12.617 13.5-19 13.5 0-12.835 13.032-15.435 4-33.5-3.407-6.813-10.485-3.993-15.5-6.5-9.041-4.52-40.357-1.785-45.5 8.5-7.158 14.316 6 21.249 6 31.5Z"/><path fill="#FCFC90" id="ANcr1" d="M70 123c5.599 0 10.882-.309 15.5 2 4.584 2.292 5.647 8.793 7.5 12.5 2.28 4.559 20.299 9.5 25 9.5 3.617 0 11.785-12.931 10-16.5-3.415-6.83-10.995-9.99-14-16l-3-11c-1.002-2.003-3.3-3.6-4-5-.881-1.761 5.648-11.5 6.5-11.5 1.598 0-2.122 8.745-2.5 9.5-1.313 2.626 2.905 9.809 4 12v4c3.061 6.121 18 11.416 18 2.5 0-8.223-3-14.952-3-23.5v-14l-3-8.5c-6.566 0-11.38-1.06-17.5 2-8.535 4.268-34.858 34.215-39.5 43.5-1.636 3.272 0 5.378 0 8.5ZM386 123c-5.986 0-15.913-.674-19 5.5-1.56 3.12-2.939 10.719-6.5 12.5-4.721 2.36-10.846 4-16.5 4-.671 0-5 1.328-5 2-4.808 0-12.898-11.705-10-17.5 2.213-4.427 8.336-7.671 10-11l8-16c.665-1.33 2.875-5.25 2-7l-6.5-8.5c-1.029 0 2.5 7.455 2.5 8 0 5.328-1.739 12.979-4 17.5-3.262 6.525-18 11.099-18 2.5 0-4.219 1.2-9.9 3-13.5v-21c1.038-2.075 4-9.569 4-11.5 4.108 0 8.375-2.062 12.5 0 14.773 7.386 37.144 31.787 44.5 46.5 1.182 2.364-1 5.696-1 7.5Z"/><path fill="#FFFC8E" id="CENT3" d="M203 135c0 2.442 9.711 3.105 11.5 4 10.143 5.071 22.874 4.063 33-1l6.5-3c0-12.835 13.032-15.435 4-33.5-3.407-6.813-10.485-3.993-15.5-6.5-9.041-4.52-40.357-1.785-45.5 8.5-7.158 14.316 6 21.249 6 31.5Z"/><path fill="#FCFA91" id="ANcr2" d="M89 160c-4.858 0-8.81 7-13 7l-7-6.5c-2.308-4.615-3.727-9.454-6-14-4.125-8.25 7-16.518 7-23.5 5.599 0 10.882-.309 15.5 2 4.584 2.292 5.647 8.793 7.5 12.5 2.28 4.559 20.299 9.5 25 9.5 0 1.644-4.257 3.379-5.5 4-3.542 1.771-16.64 6-20.5 6-3.835 0-5.39-.445-8.5-2l-2.5.5c0 1.453 8 2.061 8 4.5Z"/><path fill="#FCFA91" id="ANcr2" fill-rule="evenodd" d="M372 155c0 4.957 5.531 0 0 0m-4 5c1.839 0 12 5.09 12 7l6.5-6c5.492-5.492 9.393-18.715 5.5-26.5-1.666-3.332-6-7.647-6-11.5-5.986 0-15.913-.674-19 5.5-1.56 3.12-2.939 10.719-6.5 12.5-4.721 2.36-10.846 4-16.5 4-.671 0-5 1.328-5 2 0 2.662 19.301 8.401 22.5 10l9.5.5-3 2.5Z"/><path fill="#FFFDBC" id="IP" d="M137 179h2l1-1 5-1 1-1h1l1-1h1l7-4h1l1-1 1-1h2l1-1c0-4.45 1.584-13 7-13l2-1 1-1 3-2c0-.781 3.19-6 4-6v-6.5c-2.11-4.22-26.486 7.493-30.5 9.5-4.282 2.141-9.496-4.252-14-2-3.243 1.621-5.5 4.771-5.5 8.5 0 1.19-.614 4.5 1 4.5 4.843 0 9.096 12.309 7 16.5-.809 1.619-2 1.471-2 3.5h2ZM319 179c1.238 0 3 1.514 3 0l-3-4.5c-1.44-2.88 3.66-15.5 8-15.5 0-4.767.566-10.467-4.5-13-5.213-2.606-11.231 3.885-17 1-3.015-1.508-24.028-10.986-26-10-4.317 2.158-1.5 5.253-1.5 8l6 8h1c7.025 0 9 9.744 9 15l1 1h2l1 1 2 1c1.301 0 7 2.496 7 4l7 2 1 1 4 1Z"/><path fill="#FFFCBC" id="FN" d="m192 163-5 1c0-2.189-5.066-3-7-3v-3c1.473 0 1-1.952 1-3l5-10c.656 0 4.138-3.319 5.5-4 5.819-2.909 19.893 5.714 15.5 14.5l-10 5.5h-1l-2 1-2 1ZM265 163l4 1c2.232 0 4.029-3 7-3v-4l-5-11c-1.211 0-4.833-4.166-6.5-5-5.888-2.944-19.278 5.943-15.5 13.5 1.857 3.713 16 7.001 16 8.5Z"/><path fill="#CBC8CA" id="cbc" d="M209 143c0 2.256-.55 8.975 1.5 10 .411.206 10.354-4 13-4 4.892 0 11.88-1.06 16 1l6 3c1.609-.804 2.748-9.126 1-10-2.05-1.025-5.453 1.227-7 2h-16c-5.468 0-9.336-2-14.5-2Z"/><path fill="#F0F080" id="CB" d="M175 151c4.24 0 6-3.415 6 4l5-10h-7c-.81 0-4 5.219-4 6ZM284 153l-5.5-4c-3.201-1.601-2.5 6.669-2.5 8l-5-11c0-1.714 5.594-1 7-1l6 8Z"/><path fill="#FEB1D8" id="ICB" d="M173 164h1l1-1h1l1-1 2-1 1-2v-1c0-1.048-.473-3 1-3 0-7.415-1.76-4-6-4l-3 2-1 1-2 1c0 3.909-7.56 9 4 9ZM279 162l3 1 3 1c11.024 0 0-8.084 0-11h-1l-5.5-4c-3.201-1.601-2.5 6.669-2.5 8v1c1.473 0 1 1.952 1 3h1l1 1Z"/><path fill="#FEFA91" id="LING" d="M207 159c2.357 0 18.086 3.793 20.5 5 3.383 1.692 17.666-5 21.5-5 0-1.424-6.242-4.371-7.5-5-9.232-4.616-19.155-3.423-28 1l-6.5 4Z"/><path fill="#F0F080" id="CB" d="m172 153-1 1 1-1ZM288 168h6c0-5.256-1.975-15-9-15 0 2.916 11.024 11 0 11l-3-1 6 5ZM171 154l-2 1 2-1ZM162 168h7l4-4c-11.56 0-4-5.091-4-9-5.416 0-7 8.55-7 13ZM181 155c-1.473 0-1 1.952-1 3 1.473 0 1-1.952 1-3Z"/><path fill="#CBC9CC" id="arb" d="M372 155c0 4.957 5.531 0 0 0Z"/><path fill="#F0F080" id="CB" d="M276 161h1c0-1.048.473-3-1-3v3Z"/><path fill="#FFFB8E" id="PRM" d="M105 172c-5.042 0-8 9.77-8 14-1.77 0-7.275 2.113-9.5 1-6.323-3.162-11.5-12.6-11.5-20 4.19 0 8.142-7 13-7 0 9.874 9.872-1 18-1l-2 13Z"/><path fill="#FFF990" id="COPY" d="m128 177-5 10c0-2.63-14.125-15-18-15l2-13c7.283 0 14.005 4 18 4 0 4.317 3 8.949 3 14Z"/><path fill="#FFFDBB" id="DN" d="M134 179h1c0-2.029 1.191-1.881 2-3.5 2.096-4.191-2.157-16.5-7-16.5 0 2.548-2.687 4-5 4 0 4.317 3 8.949 3 14 1.031 0 3.289 2 6 2Z"/><path fill="#F0F080" id="CB" d="M179 161h1v-2l-1 2Z"/><path fill="#FDFC8F" id="NOD" d="M242 177h2l2-1 7-2 1-1 8-2 1-1c0-2.863-3-2.843-3-4.5 0-.93 3 .033 3-2.5-4.494 0-8.696-4-14-4-3.834 0-18.117 6.692-21.5 5-2.414-1.207-18.143-5-20.5-5l-10 2h-1l-2 1v1c0 2.533 3 1.57 3 2.5 0 .483-3 2.911-3 5.5l14 4 1 1h2l2 1h1c5.372 0 14.024 4.738 19.5 2 2.614-1.307 5.334-2 8.5-2Z"/><path fill="#FFFDBB" id="DN" d="m329 178-7 1-3-4.5c-1.44-2.88 3.66-15.5 8-15.5 0 2.708 1.119 4 4 4 0 4.967-2 9.297-2 15Z"/><path fill="#FFF990" id="COPY" d="M329 178c0 1.088 2.665 8 4 8 3.466 0 11.411-14 19-14l-3-13c-6.684 0-12.276 4-18 4 0 4.967-2 9.297-2 15Z"/><path fill="#FFFB8E" id="PRM" d="M352 172c4.425 0 7 10.663 7 14 1.845 0 8.263 2.119 10.5 1 6.581-3.29 10.5-12.993 10.5-20 0-1.91-10.161-7-12-7-2.029 0 .042 6.271-2.5 5-5.152-2.576-10.353-6-16.5-6l3 13Z"/><path fill="#FEFDBC" id="VeCB" d="M176 173h1l1-1 1-1h2l1-1 2-1h1l2-1v-4c0-2.189-5.066-3-7-3h-1l-2 1-1 1h-1l-1 1h-1l-4 4c0 1.287 4 3.637 4 6l3-1Z"/><path fill="#CBC9CC" id="arb" d="m196 161-2 1 2-1Z"/><path fill="#FEFDBC" id="VeCB" d="m279 172 4 2 4-5h1v-1l-6-5-3-1-1-1h-2c-2.971 0-4.768 3-7 3 0 2.25 2 3.376 2 5h2l1 1h1l1 1h1l1 1h1Z"/><path fill="#F0F080" id="CB" d="m278 161 1 1-1-1ZM177 162l-1 1 1-1Z"/><path fill="#CBC9CC" id="arb" d="M192 163h2v-1l-2 1Z"/><path fill="#F0F080" id="CB" d="m175 163-1 1 1-1ZM187 164v4c2.868 0 5-2.132 5-5l-5 1Z"/><path fill="#AAA9A7" id="V4" d="M187 169c2.765 0 5.165 2 7 2 0-2.589 3-5.017 3-5.5 0-.93-3 .033-3-2.5h-2c0 2.868-2.132 5-5 5v1ZM263 170h10v-1h-2c-3.973 0-6-2.299-6-6h-2c0 2.533-3 1.57-3 2.5 0 1.657 3 1.637 3 4.5Z"/><path fill="#F0F080" id="CB" d="M269 164c0 2.25 2 3.376 2 5-3.973 0-6-2.299-6-6l4 1Z"/><path fill="#FF9BCD" id="MY" d="m157 185 2 1c5.209 0 11.974-4.737 16.5-7 1.303-.652 7.5-.219 7.5-2-1.899 0-8 .488-8-2l-2-1c0-2.363-4-4.713-4-6h-7l-1 1h7.5c5.342 2.671 1.649 10.176-2 12-2.772 1.386-7.269-1-9.5-1v5Z"/><path fill="#F0F080" id="CB" d="M185 169h2v-1l-2 1Z"/><path fill="#FF9BCD" id="MY" d="M288 169h7l-1-1h-6v1Z"/><path fill="#F0F080" id="CB" d="m159 169-1 1 1-1Z"/><path fill="#FDB3D6" id="SUV" d="m156 178 1 2c2.231 0 6.728 2.386 9.5 1 3.649-1.824 7.342-9.329 2-12H159l-1 1-1 1-1 1-1 5 1 1Z"/><path fill="#F0F080" id="CB" d="M183 170h1v-1l-2 1h1Z"/><path fill="#AAA9A7" id="V4" d="M187 169c0 1.473-1.952 1-3 1v-1h3Z"/><path fill="#A9AAA8" id="chpl" d="m232 199-1 1-3.5 1c-8.738-4.369-11.393-18.196-21-23-4.618-2.309-9.901-2-15.5-2-1.235 0-5-.643-5 1h-3l-4-2.5 2-3.5 2-1h1c1.048 0 3 .473 3-1 2.765 0 5.165 2 7 2l14 4 1 1h2l2 1h1c0 4.728 28 5.368 28 0h2l2-1 7-2 1-1 8-2 1-1h10c0 1.627 6.235 2.031 5 4.5l-5 2.5h-3c0-1.647-15-1.647-15 0-1.622 0-5-.461-5 2l-2 1-1 1c-2.226 0-4 1.774-4 4-1.747 0-2 .253-2 2-1.617 0-4 4.583-4 6l-2 2-1 2-1 1-1 1Z"/><path fill="#F0F080" id="CB" d="M273 170h1l-1-1v1Z"/><path fill="#FF9BCD" id="MY" d="m299 185-2 1-17.5-7c-1.147 0-6.5-.957-6.5-2 1.949 0 8 .991 8-2l2-1 4-5-2 4.5c-3.745 7.49 10.456 7.5 14 7.5v4Z"/><path fill="#FDB3D6" id="SUV" d="m301 177-2 4c-3.544 0-17.745-.01-14-7.5l2-4.5h10l1 1 2 1v1l1 1v4Z"/><path fill="#FF9BCD" id="MY" d="m297 169 1 1-1-1ZM158 170l-1 1 1-1Z"/><path fill="#A9AAA7" id="V4r" d="m183 170-2 1 1-1h1Z"/><path fill="#AAA9A7" id="V4" d="m263 170-1 1 1-1Z"/><path fill="#A9AAA7" id="V4r" d="M281 175c0 2.991-6.051 2-8 2l5-2.5c1.235-2.469-5-2.873-5-4.5h2l1 1h1l1 1h1l2 3Z"/><path fill="#F0F080" id="CB" d="m275 170 1 1-1-1ZM151 177h4l1-5v-1l-7 4c1.747 0 2 .253 2 2Z"/><path fill="#FF9BCD" id="MY" d="m157 171-1 1v-1h1Z"/><path fill="#F0F080" id="CB" d="m179 171-1 1 1-1Z"/><path fill="#A9AAA7" id="V4r" d="M175 175c0 2.488 6.101 2 8 2l-4-2.5 2-3.5h-2l-1 1-1 1h-1l-1 2Z"/><path fill="#F0F080" id="CB" d="m277 171 1 1-1-1ZM302 177h3c0-1.747.253-2 2-2 0-1.504-5.699-4-7-4v1l1 1v3l1 1Z"/><path fill="#FFFC8D" id="PFL" d="m117 217-6 1c0-.402-2.465-3.43-3-4.5l-3-14c-1.002-2.003-3.3-3.6-4-5-.75-1.499-1.927-8.5-4-8.5 0-4.23 2.958-14 8-14 3.875 0 18 12.37 18 15 0 .996-10.602 15-2 15v4c-1.638 0-2 3.576-2 5l-1 1-1 5Z"/><path fill="#F0F080" id="CB" d="m178 172-1 1 1-1ZM283 174l-2 1-2-3 4 2Z"/><path fill="#FF9BCD" id="MY" d="m300 172 1 1-1-1Z"/><path fill="#FFFC8D" id="PFL" d="m346 217-1 1-6-1c0-1.964-2.46-13-4-13v-2c9.767 0-2-13.957-2-16 3.466 0 11.411-14 19-14 4.425 0 7 10.663 7 14l-8 14.5c-1.107 2.214-2.399 16.5-5 16.5Z"/><path fill="#F0F080" id="CB" d="m173 174 2 1 1-2-3 1Z"/><path fill="#AAA9A7" id="V4" d="m254 173-1 1 1-1Z"/><path fill="#F0F080" id="CB" d="m148 175-1 1 1-1Z"/><path fill="#A9AAA7" id="V4r" d="M137 179h2l1-1 5-1 1-1h1l1-1h1c1.747 0 2 .253 2 2l-1 1c-4.703 0-10.517 2.008-14.5 4l-8.5 8c0-4.9 10-10.073 10-11Z"/><path fill="#AAA9A7" id="V4" d="m208 175 1 1-1-1Z"/><path fill="#A9AAA7" id="V4r" d="M335 202v1c-1.094 0-4.254-10.008-5-11.5-3.735-7.471-14.11-13.5-23-13.5l-1-1h-1c0-1.747.253-2 2-2l7 2 1 1 4 1 8 6.5c3.807 3.807 8 11.134 8 16.5Z"/><path fill="#F0F080" id="CB" d="m146 176-1 1 1-1Z"/><path fill="#AAA9A7" id="V4" d="M218 193c1.673 0 13 16.655 13 7l-3.5 1c-8.738-4.369-11.393-18.196-21-23-4.618-2.309-9.901-2-15.5-2-1.235 0-5-.643-5 1h1l2 1c11.245 0 20.077-1.347 26 10.5l3 4.5ZM211 176l2 1-2-1ZM246 176l-2 1 2-1ZM270 177l-2 1c-4.077 0-8.431-1-13-1 0-1.647 15-1.647 15 0Z"/><path fill="#FF9BCD" id="MY" d="M301 177h1l-1-1v1Z"/><path fill="#CBC9CC" id="arb" d="m122 201-1 1c-8.602 0 2-14.004 2-15l5-10c1.031 0 3.289 2 6 2 0 1.186 1 1.186 1 0h2c0 .927-10 6.1-10 11-2.447 0-4 6.063-4 8-1.473 0-1 1.952-1 3Z"/><path fill="#F0F080" id="CB" d="m151 177-1 1 1-1Z"/><path fill="#FEA5D1" id="DCO" d="M125 221h2c0-2.769 3.189-14 7-14l6-8c0-5.197 10-6.329 10-9l1-1c0-1.428 4.822-4 6-4v-5l-1-2-1-1h-4l-1 1c-4.703 0-10.517 2.008-14.5 4l-8.5 8-4 8c0 1.048.473 3-1 3 0 1.145.579 4-1 4v1c0 3.421-1.378 15 4 15Z"/><path fill="#FF9BCD" id="MY" d="m155 177 1 1-1-1Z"/><path fill="#FEB1D9" id="SPIV" d="M181 208c-4.943 0-10.289 2-16 2-1.465 0-4 .109-4-2 0-2.63-3.882-7-7-7 0-4.05-1-8.105-1-12l2-1 3-1 1-1c5.209 0 11.974-4.737 16.5-7 1.303-.652 7.5-.219 7.5-2h4l1 1c0 11.102-6 21.364-6 29l-1 1Z"/><path fill="#FF9BCD" id="MY" d="M188 178h1l-2-1 1 1Z"/><path fill="#FFB0D7" id="MV" d="M202 213h1l4-2 1-1 1-1 1-2c0-1.851 6.346-14 8-14l-3-4.5c-5.923-11.847-14.755-10.5-26-10.5h-1c0 11.102-6 21.364-6 29v1c3.611 0 11.224 3 14 3 .706 0 6 1.325 6 2Z"/><path fill="#AAA9A7" id="V4" d="M214 177c5.372 0 14.024 4.738 19.5 2 2.614-1.307 5.334-2 8.5-2 0 5.368-28 4.728-28 0ZM255 177c-1.622 0-5-.461-5 2 1.041 0 5-.986 5-2Z"/><path fill="#FFB0D7" id="MV" d="M253 213h1c0-.675 5.294-2 6-2 4.211 0 10.406-3 15-3l-4-10.5c-2.623-5.247-2-13.196-2-19.5h-1c-4.077 0-8.431-1-13-1 0 1.014-3.959 2-5 2l-2 1-1 1-4 4-2 2-2 5c0 5.947 8 10.311 8 16l3 3.5 3 1.5Z"/><path fill="#FF9BCD" id="MY" d="M268 178h1l1-1-2 1Z"/><path fill="#FEB1D9" id="SPIV" d="M296 208c-1.624 0-2.75 2-5 2-5.668 0-10.977-2-16-2l-4-10.5c-2.623-5.247-2-13.196-2-19.5l1-1h3c0 1.043 5.353 2 6.5 2l17.5 7h1l1 1h1c0 2.35 4 3.056 4 7v2c-.672 0-2 4.329-2 5-3.771 0-6 5.009-6 7Z"/><path fill="#FEA5D1" id="DCO" d="M330 221h1c7.057 0 4-12.864 4-17v-1c-1.094 0-4.254-10.008-5-11.5-3.735-7.471-14.11-13.5-23-13.5h-1l-1-1h-4l-2 4v4c1.704 0 7 2.715 7 5l5.5 3c1.446.723 10.5 11.648 10.5 13l1 1v1c3.346 0 7 10.673 7 13Z"/><path fill="#FF9BCD" id="MY" d="M306 177v1l-1-1h1Z"/><path fill="#F0F080" id="CB" d="M306 178h1l-1-1v1ZM314 177l1 1-1-1ZM140 178l-1 1 1-1Z"/><path fill="#CBC9CC" id="arb" d="M333 186c0 2.043 11.767 16 2 16 0-5.366-4.193-12.693-8-16.5l-8-6.5c1.238 0 3 1.514 3 0l7-1c0 1.088 2.665 8 4 8Z"/><path fill="#FFFDBC" id="IP" d="M134 179h1c0 1.186-1 1.186-1 0Z"/><path fill="#AAA9A7" id="V4" d="m250 179-2 1 2-1ZM248 180l-1 1 1-1ZM247 181c-2.226 0-4 1.774-4 4l4-4Z"/><path fill="#CCCBC8" id="das" d="M151 189h2l2-1 3-1 1-1-2-1c-1.178 0-6 2.572-6 4Z"/><path fill="#AAA9A7" id="V4" d="M243 185c-1.747 0-2 .253-2 2l2-2Z"/><path fill="#CCCBC8" id="das" d="m300 187 6 3c0-2.285-5.296-5-7-5l-2 1h1l1 1h1Z"/><path fill="#FF9BCD" id="MY" d="m159 186-1 1 1-1ZM298 186l1 1-1-1Z"/><path fill="#AAA9A7" id="V4" d="m239 192-2 1c0-1.417 2.383-6 4-6l-2 5Z"/><path fill="#FF9BCD" id="MY" d="M331 221v12c-1.879 0-4.972-13.444-6-15.5-5.148-10.296-8.39-23.5-21-23.5 0-3.944-4-4.65-4-7l6 3 5.5 3c1.446.723 10.5 11.648 10.5 13l1 1v1c0 3.725 7 17.643 7 13h1ZM155 188l-2 1 2-1Z"/><path fill="#CCCBC8" id="das" d="m151 189-1 1 1-1Z"/><path fill="#FF9BCD" id="MY" d="m154 201-3 1c0-5.965 1.779-11.139-6.5-7l-4.5 4c0-5.197 10-6.329 10-9l1-1h2c0 3.895 1 7.95 1 12Z"/><path fill="#FFFC8D" id="PFL" d="M71 190c0 1.414-7.28 2.058-8 3.5-3.306 6.611-7 9.26-7 18.5l1 25c0 19.184 14.3 30.6 31.5 22 7.319-3.659 7.502-15.504 10.5-21.5v-7c9.887-19.774-7.411-40.5-28-40.5Z"/><path fill="#A9AAA7" id="V4r" d="M127 190c-2.447 0-4 6.063-4 8l4-8Z"/><path fill="#FFFC8D" id="PFL" d="M379 190c0 .562-10.135 4.317-11.5 5-6.646 3.323-10.667 12.834-13.5 18.5-.727 1.455 3.079 20.159 4 22l1 9c2.4 4.8 5.571 9.142 8 14l2.5.5c8.068 4.034 11.045 3.977 19 0l4.5-2.5c8.618-17.236 17.915-66.5-14-66.5Z"/><path fill="#FFB3D7" id="PRP" d="M233 209h13l1-1c0-5.689-8-10.053-8-16l-2 1c0 1.747-.253 2-2 2l-1 2-1 1-1 1-1 1c0 9.655-11.327-7-13-7-1.654 0-8 12.149-8 14l1 2h14c0-3.312 6.639 0 8 0Z"/><path fill="#C9C9C8" id="icp" d="M141 271c-1.321 0-6-.684-6 1l-8-8v-1c0-1.238-.423-3-2-3v-1l-1-2v-1c0-1.048.473-3-1-3v-2c.886 0 2-9.728 2-11l1-8c1.844 0 5-11.739 5-14l1-2c1.473 0 1-1.952 1-3l7-14 4.5-4c8.279-4.139 6.5 1.035 6.5 7l-1 1c-5.558 0-17 26.014-17 32v1c-1.643 0-1 3.765-1 5 0 6.593-2.115 13.271 1 19.5 1.191 2.383 8 8.191 8 10.5Z"/><path fill="#AAA9A7" id="V4" d="m237 193-2 2c1.747 0 2-.253 2-2Z"/><path fill="#C9C9C8" id="icp" d="m324 271-3 1c0-1.643-3.765-1-5-1 0-.496 7.176-10.852 8-12.5 2.115-4.23 1-11.483 1-16.5l-1-1v-3c0-1.048.473-3-1-3v-1c0-5.968-9.163-29-16-29v-1l-3-8v-2c12.61 0 15.852 13.204 21 23.5 1.028 2.056 4.121 15.5 6 15.5v6l1 1v1c0 3.222 1 6.277 1 9v5c-1.473 0-1 1.952-1 3l-1 2v1c-1.577 0-2 1.762-2 3v1l-1 1-1 1-1 2-1 1-1 1Z"/><path fill="#AAA9A7" id="V4" d="m235 195-1 2 1-2Z"/><path fill="#FF9BCD" id="MY" d="M302 201c3.151 0 2.703 3 5 3l-3-8c-.672 0-2 4.329-2 5Z"/><path fill="#AAA9A7" id="V4" d="m234 197-1 1 1-1Z"/><path fill="#A9AAA7" id="V4r" d="M123 198c-1.473 0-1 1.952-1 3 1.473 0 1-1.952 1-3Z"/><path fill="#AAA9A7" id="V4" d="m233 198-1 1 1-1Z"/><path fill="#FF9BCD" id="MY" d="m134 207-1 6 7-14-6 8Z"/><path fill="#AAA9A7" id="V4" d="m232 199-1 1 1-1Z"/><path fill="#A9AAA7" id="V4r" d="M121 202v3c1.579 0 1-2.855 1-4l-1 1Z"/><path fill="#FFB0D9" id="x" d="M150 203c0 8.107 6.066 5 11 5 0-2.63-3.882-7-7-7l-3 1-1 1ZM296 208c0 1.714 5.594 1 7 1 0-2.007 4-1.121 4-4v-1c-2.297 0-1.849-3-5-3-3.771 0-6 5.009-6 7Z"/><path fill="#FF9BCD" id="MY" d="m151 202-1 1 1-1ZM147 223c0-3.348 5.515-7.53 7-10.5l-1-3c-2.231-2.231-9.27 4.54-10 6-2.566 5.132-5.466 9.933-8 15-.559 1.119-.155 4.5-2 4.5 0-5.986 11.442-32 17-32 0 8.107 6.066 5 11 5 0 2.109 2.535 2 4 2 0 1.087-2 2.433-2 5-6.489 0-13.127 8-16 8Z"/><path fill="#A9AAA7" id="V4r" fill-rule="evenodd" d="m336 219-4 8.5c-.678 1.357 1.793 4.353 3.5 3.5 3.035-1.518 6.06-12 .5-12m-4 22h2c0-6.623 7-12.823 7-20l-2-4c0-1.964-2.46-13-4-13 0 4.136 3.057 17-4 17v18l1 1v1Z"/><path fill="#FF9BCD" id="MY" d="M303 209c7.056 0 13.335 10.169 16 15.5.784 1.568 1.924 9.5 4 9.5 0-5.968-9.163-29-16-29 0 2.879-4 1.993-4 4Z"/><path fill="#A9AAA7" id="V4r" fill-rule="evenodd" d="m118 219-1 4.5 2 5c4.792 9.584 6.77-9.5-1-9.5m7 21c-1.532 0-.95 1-3 1 0-6.738-7-13.172-7-20l2-4 1-5 1-1c0-1.424.362-5 2-5 0 3.421-1.378 15 4 15 0 2.998 1 7.358 1 11l-1 8Z"/><path fill="#FEA4D2" id="VCO" d="m322 206 1 1-1-1ZM131 218c-.361 0-4 5.682-4 3 0-2.769 3.189-14 7-14l-1 6c-1.473 0-1 1.952-1 3l-1 2Z"/><path fill="#FF9BCD" id="MY" d="M181 208h1v-1l-1 1ZM209 209h2l-1-2-1 2ZM228 233c0 1.186 1 1.186 1 0v-18.5c0-1.163-.549-5.5 1.5-5.5 2.698 0 .5 11.001.5 13l4-1-2-2.5c-.557-1.114 0-8.045 0-9.5-1.361 0-8-3.312-8 0 2.08 0 3 20.682 3 24Z"/><path fill="#FDA5D1" id="NTS" d="m170 220 2 1c5.623 0 10.778-5 17-5l2-1h1l1-1 3-1v-2c-2.776 0-10.389-3-14-3h-1c-4.943 0-10.289 2-16 2 0 1.087-2 2.433-2 5l4 2 1 1 2 2Z"/><path fill="#FF9BCD" id="MY" d="m253 213-3 2c0-1.422-2.033-6-4-6l1-1 3 3.5 3 1.5Z"/><path fill="#FDA5D1" id="NTS" d="M285 221h1v-1l1-1 1-1c2.666 0 2.482-3 5-3 0-3.578-2-3.993-2-5-5.668 0-10.977-2-16-2-4.594 0-10.789 3-15 3v2l6 2 1 1c5.59 0 10.151 4 15 4l1 1h2Z"/><path fill="#FF9BCD" id="MY" d="M293 215c8.902 0 17.914 13 20 13 0-6.053-10-11.406-10-19-1.406 0-7 .714-7-1-1.624 0-2.75 2-5 2 0 1.007 2 1.422 2 5Z"/><path fill="#FEA4D2" id="VCO" d="M323 208c3.346 0 7 10.673 7 13 0 4.643-7-9.275-7-13Z"/><path fill="#C8CACA" id="sptV" d="m141 271 8 3c8.515 0-5-7.059-5-9h-1l-2-3v-1l-2-2v-2c-3.924 0-.985-14.53 0-16.5.659-1.319-.334-5.5 2-5.5 0-1.424.362-5 2-5v-1l1-2 1-2c0-1.747.253-2 2-2 0-3.348 5.515-7.53 7-10.5l-1-3c-2.231-2.231-9.27 4.54-10 6-2.566 5.132-5.466 9.933-8 15-.559 1.119-.155 4.5-2 4.5v1c0 1.235.643 5-1 5 0 6.593-2.115 13.271 1 19.5 1.191 2.383 8 8.191 8 10.5Z"/><path fill="#FF9BCD" id="MY" d="m209 209-1 1 1-1Z"/><path fill="#FCB3D8" id="PGRNd" d="M221 221c-4.284 0-9.371 1-13 1l-1-1v-10l1-1 1-1h14c0 2.648 1.146 7.209 0 9.5l-2 2.5Z"/><path fill="#FF9BCD" id="MY" d="M221 221h4v-12h-2c0 2.648 1.146 7.209 0 9.5l-2 2.5Z"/><path fill="#CBCBCC" id="mlf" d="M225 221c0 1.957.809 12 3 12 0-3.318-.92-24-3-24v12ZM231 222c0 2.072.076 11-2 11v-18.5c0-1.163-.549-5.5 1.5-5.5 2.698 0 .5 11.001.5 13Z"/><path fill="#FCB3D8" id="PGRNd" d="M235 221c4.725 0 9.879 1 14 1l1-7c0-1.422-2.033-6-4-6h-13c0 1.455-.557 8.386 0 9.5l2 2.5Z"/><path fill="#C8CACA" id="sptV" d="m314 272-7 2c-6.533 0 6-8.588 6-9l1-1 1-1v-1l1-1 1-2c1.579 0 1-2.855 1-4 1.643 0 1-3.765 1-5 0-2.946-1.461-16-4-16v-1l-2-4v-1c0-6.053-10-11.406-10-19 7.056 0 13.335 10.169 16 15.5.784 1.568 1.924 9.5 4 9.5v1c0 1.048-.473 3 1 3v3l1 1c0 5.017 1.115 12.27-1 16.5-.824 1.648-8 12.004-8 12.5h-1l-1 1Z"/><path fill="#FF9BCD" id="MY" d="m208 210-1 1 1-1Z"/><path fill="#F0F080" id="CB" d="m119 211-1 1 1-1Z"/><path fill="#FF9BCD" id="MY" d="M196 213h6c0-.675-5.294-2-6-2v2ZM203 213l4 2v-4l-4 2ZM254 213h6v-2c-.706 0-6 1.325-6 2ZM133 213c-1.473 0-1 1.952-1 3 1.473 0 1-1.952 1-3Z"/><path fill="#FFB2D8" id="IRN" d="M175 263c7.403 0 10.833 2 18 2 0-3.455 2.578-5.656 4-8.5 3.179-6.357 10-26.493 10-33.5v-8l-4-2h-7l-3 1-1 1h-1l-1 1c0 9.378-19 35.458-19 42 2.96 0 4 2.399 4 5ZM263 265h1c5.995 0 10.237-2 17-2 0-4.188 2.575-4 5-4 0-7.807-20-33.467-20-43v-1l-6-2h-7l-3 2-1 7v1l1 1c0 12.762 13 31.092 13 41Z"/><path fill="#FF9BCD" id="MY" d="m193 214-1 1 1-1Z"/><path fill="#FFA4D0" id="SPVO" d="M144 265c1.817 0 3.949 1 7 1 0-.656 3.319-4.138 4-5.5 2.765-5.531-.844-14.313 2-20 4.418-8.835 13-4.879 13-18.5v-2l-2-2-1-1-4-2c-6.489 0-13.127 8-16 8 0 1.747-.253 2-2 2l-1 2-1 2v1c0 1.424-.362 5-2 5 0 7.08-2 14.106-2 22v2l2 2v1c1.577 0 2 1.762 2 3h1Z"/><path fill="#FF9BCD" id="MY" d="M189 216h1l1-1-2 1ZM266 216h1l-1-1v1Z"/><path fill="#FFA4D0" id="SPVO" d="M313 265c-2.858 0-5.278 1-8 1 0-.427-3.345-5.19-4-6.5-2.771-5.542.857-14.287-2-20-4.008-8.016-13-5.082-13-17.5v-2l1-1 1-1c2.666 0 2.482-3 5-3 8.902 0 17.914 13 20 13v1l2 4v1c0 6.993 3 13.559 3 21-1.579 0-1 2.855-1 4l-1 2-1 1v1l-1 1-1 1Z"/><path fill="#FF9BCD" id="MY" d="m132 216-1 2 1-2Z"/><path fill="#FCB3D9" id="PARN" d="M151 266c.585 0 2.623 4 8 4 0-1.317 6.892-5 8-5l1-2 3-5c0-6.542 19-32.622 19-42h-1c-6.222 0-11.377 5-17 5l-2 1c0 13.621-8.582 9.665-13 18.5-2.844 5.687.765 14.469-2 20-.681 1.362-4 4.844-4 5.5ZM292 267c1.766 0 5 .607 5 3 2.442 0 8 .773 8-4 0-.427-3.345-5.19-4-6.5-2.771-5.542.857-14.287-2-20-4.008-8.016-13-5.082-13-17.5l-1-1h-2l-1-1c-4.849 0-9.41-4-15-4h-1c0 9.533 20 35.193 20 43l3 6 2 1 1 1Z"/><path fill="#F0F080" id="CB" d="M111 218c0 .966 2.886 3 4 3l2-4-6 1Z"/><path fill="#FF9BCD" id="MY" d="m167 217 1 1-1-1Z"/><path fill="#F0F080" id="CB" d="M345 218c0 1.712-2.571 3-4 3l-2-4 6 1ZM346 217l-1 1 1-1Z"/><path fill="#FF9BCD" id="MY" d="M125 221h2c0 2.682 3.639-3 4-3 0 2.261-3.156 14-5 14 0-3.642-1-8.002-1-11ZM288 218l-1 1 1-1Z"/><path fill="#A9AAA8" id="chpl" d="m118 219-1 4.5 2 5c4.792 9.584 6.77-9.5-1-9.5Z"/><path fill="#FF9BCD" id="MY" d="m287 219-1 1 1-1Z"/><path fill="#A9AAA8" id="chpl" d="m336 219-4 8.5c-.678 1.357 1.793 4.353 3.5 3.5 3.035-1.518 6.06-12 .5-12Z"/><path fill="#FF9BCD" id="MY" d="m172 221-2 1v-2l2 1ZM282 220l1 1-1-1ZM208 222l-1 1v-2l1 1Z"/><path fill="#FEB0D8" id="GRN" d="M255 277h2c0-5.28-6-11 6-11v-1c0-9.908-13-28.238-13-41l-1-1v-1c-4.121 0-9.275-1-14-1l-4 1c0 2.072.076 11-2 11 0 1.186-1 1.186-1 0-2.191 0-3-10.043-3-12h-4c-4.284 0-9.371 1-13 1l-1 1c0 7.007-6.821 27.143-10 33.5-1.422 2.844-4 5.045-4 8.5 0 1.169 7.712 2.924 9 5.5 1.303 2.606-3 4.479-3 6.5h2l4-6.5c4.943-4.943 8.98-9.5 16-9.5 0-5.213 6-23.741 6-10h2c0-14.766 6 4.817 6 10 6.884 0 20 8.963 20 16Z"/><path fill="#FF9BCD" id="MY" d="M286 221v1l-1-1h1ZM147 223c-1.747 0-2 .253-2 2 1.747 0 2-.253 2-2ZM249 223l1 1-1-1ZM145 225l-1 2 1-2ZM144 227l-1 2 1-2ZM313 229l2 4-2-4ZM143 230c-1.638 0-2 3.576-2 5 1.638 0 2-3.576 2-5ZM315 234c2.539 0 4 13.054 4 16 0 1.235.643 5-1 5 0-7.441-3-14.007-3-21ZM141 235c-2.334 0-1.341 4.181-2 5.5-.985 1.97-3.924 16.5 0 16.5 0-7.894 2-14.92 2-22ZM323 235c1.473 0 1 1.952 1 3-1.473 0-1-1.952-1-3ZM133 236c-1.643 0-1 3.765-1 5 1.643 0 1-3.765 1-5ZM331 239l1 1-1-1ZM122 241l1 10c.886 0 2-9.728 2-11-1.532 0-.95 1-3 1ZM324 241l1 1-1-1ZM334 241c.895 0 .269 9-1 9 0-2.723-1-5.778-1-9h2Z"/><path fill="#C8C8CC" id="tspc" d="M224 265h1l1-2 1-1v-11c0-13.741-6 4.787-6 10 0 2.343.285 4 3 4ZM232 265h1c2.641 0 2-1.823 2-4 0-5.183-6-24.766-6-10v10l1 2 2 2Z"/><path fill="#FEC6E2" id="RO" d="M227 276h2l1-2-1-13v-10h-2v12l-1 11 1 2Z"/><path fill="#FF9BCD" id="MY" d="M123 253c1.473 0 1 1.952 1 3-1.473 0-1-1.952-1-3ZM318 255c-1.579 0-1 2.855-1 4 1.579 0 1-2.855 1-4ZM333 255c-1.473 0-1 1.952-1 3 1.473 0 1-1.952 1-3ZM124 257l1 2-1-2Z"/><path fill="#FEB3D6" id="AMBd" d="M175 263c0 2.867-5.149 2-7 2v-2l3-5c2.96 0 4 2.399 4 5ZM282 264c1.819 0 4.591 1 7 1l-3-6c-2.425 0-5-.188-5 4l1 1Z"/><path fill="#FF9BCD" id="MY" d="m332 258-1 2 1-2ZM139 259l2 2-2-2ZM317 259l-1 2 1-2ZM125 260c1.577 0 2 1.762 2 3-1.577 0-2-1.762-2-3Z"/><path fill="#FDB2D9" id="MARN" d="M224 265c0 12.865-23 22.354-23 12l4-6.5c4.943-4.943 8.98-9.5 16-9.5 0 2.343.285 4 3 4Z"/><path fill="#FF9BCD" id="MY" d="M283 291c0 1.961-6.099 2.3-7.5 3-7.641 3.82-19.452 5-28.5 5 0-2.329 2-5.587 2-6.5l-4-3.5c4.119 0 7.35 3.575 10.5 2l4.5-.5-4-3-13.5-7.5c-3.579-1.789-3.356 3.822-5 3-3.186-1.593-2.907-9-7.5-9l-1-13 1 2c0 1.747.253 2 2 2h1l-1 5.5c2.624 5.249 23 17.696 23 6.5h2c1.772 0 11.333 10.417 14.5 12 3.716 1.858 6.65-4 9.5-4v3l-4 2.5c-1.284 2.568 5.098.5 6 .5Z"/><path fill="#FDB2D9" id="MARN" d="m233 265-1 5.5c2.624 5.249 23 17.696 23 6.5 0-7.037-13.116-16-20-16 0 2.177.641 4-2 4Z"/><path fill="#FF9BCD" id="MY" d="m316 261-1 1 1-1ZM331 261c-1.577 0-2 1.762-2 3 1.577 0 2-1.762 2-3ZM141 262c1.577 0 2 1.762 2 3l-2-3Z"/><path fill="#FEB0D8" id="GRN" d="M226 263h1v-1l-1 1Z"/><path fill="#FF9BCD" id="MY" d="M167 265h1v-2l-1 2Z"/><path fill="#FCB2D9" id="PGRNl" d="M172 283h1c3.241 0 7.132 8.184 11.5 6 2.502-1.251 13.696-12 14.5-12 0-2.021 4.303-3.894 3-6.5-1.288-2.576-9-4.331-9-5.5-7.167 0-10.597-2-18-2 0 2.867-5.149 2-7 2h-1c-1.108 0-8 3.683-8 5l1 3c3.103 0 11 6.228 11 9l1 1Z"/><path fill="#FEB0D8" id="GRN" d="m226 263-1 2 1-2Z"/><path fill="#FF9BCD" id="MY" d="m211 289-3 2.5 1 3c2.628 5.257-1.483 4.5 7 4.5 0 1.643-3.765 1-5 1-1.236 0-14.559-1.53-15.5-2-6.022-3.011-14.031-2.016-20-5-7.762-3.881-15.205-8.103-23-12-2.159-1.08-13.5-3.16-13.5-6 4.6 0 10.484 3.992 14.5 6l2.5-1.5c0-3.339-7-3.148-7-5.5 8.515 0-5-7.059-5-9 1.817 0 3.949 1 7 1 .585 0 2.623 4 8 4l1 3c-3.325 0-4.103 6-2 6l-1 2.5 14.5 7.5c.344.172 8.5 5.221 8.5 2.5l-10-6.5c.814 0 6 2.623 6 1.5l-3-3.5c3.241 0 7.132 8.184 11.5 6 2.502-1.251 13.696-12 14.5-12h2c0 10.354 23 .865 23-12h1l1-2h1l-1 11c-4.688 0-3.551 9-7.5 9-.906 0-1.29-4.355-4-3-4.776 2.388-9.156 5.578-14 8l-4.5 2.5 4.5.5c3.861 0 6.085-2 10.5-2Z"/><path fill="#FEB0D8" id="GRN" d="m230 263 2 2c-1.747 0-2-.253-2-2Z"/><path fill="#FCB2D9" id="PGRNl" d="m282 284-1 1c-2.85 0-5.784 5.858-9.5 4-3.167-1.583-12.728-12-14.5-12 0-5.28-6-11 6-11l1-1c5.995 0 10.237-2 17-2l1 1c1.819 0 4.591 1 7 1l2 1 1 1c1.766 0 5 .607 5 3l-1 3c-5.281 0-5.899 8-10 8l-1 1-1 1-2 1Z"/><path fill="#FF9BCD" id="MY" d="m281 263 1 1-1-1ZM315 263l-1 1 1-1ZM135 272l3 3c-3.182 0-11-7.838-11-11l8 8ZM314 264l-1 1 1-1ZM264 265l-1 1v-1h1ZM303 281c0 2.842-13.379 8-16 8 0-3.816 13-4.289 13-8.5l-2-1.5c2.103 0 1.325-6-2-6l1-3c2.442 0 8 .773 8-4 2.722 0 5.142-1 8-1 0 .412-12.533 9-6 9l-6 3.5c-.949 1.897.245 3.5 2 3.5ZM329 265l-1 1 1-1ZM291 266l1 1-1-1ZM328 266l-1 1 1-1ZM327 267l-1 2 1-2ZM326 269l-1 1 1-1ZM325 270l-1 1 1-1Z"/><path fill="#C9CACA" id="sctd" d="M138 275h1c4.6 0 10.484 3.992 14.5 6l2.5-1.5c0-3.339-7-3.148-7-5.5l-8-3c-1.321 0-6-.684-6 1l3 3Z"/><path fill="#C9C9C8" id="icp" d="m315 271-1 1 1-1Z"/><path fill="#C9CACA" id="sctd" d="M308 279c-1.424 0-5 .362-5 2-1.755 0-2.949-1.603-2-3.5l6-3.5 7-2 1-1h1c1.235 0 5-.643 5 1v1l-1 1-1 1h-3l-1 1h-1l-1 1c-1.424 0-5 .362-5 2Z"/><path fill="#FF9BCD" id="MY" d="M321 272v1c1.238 0 3-.423 3-2l-3 1Z"/><path fill="#C8C8CB" id="rust" d="M169 285h1c.814 0 6 2.623 6 1.5l-3-3.5h-1l-1-1c0-2.772-7.897-9-11-9-3.325 0-4.103 6-2 6h1l2 1 2 1c1.238 0 3 .423 3 2l2 1 1 1ZM281 288h1l1-1 2-1 1-1h1l1-1h1l1-1c0-1.577 1.762-2 3-2l2-1 2-1h1c2.103 0 1.325-6-2-6-5.281 0-5.899 8-10 8l-1 1-1 1-2 1-1 1v3Z"/><path fill="#FF9BCD" id="MY" d="m321 273-1 1 1-1Z"/><path fill="#FFB3D8" id="IO" d="M211 289h2c0-.2 10.494-1 12-1v-1c-4.616 0-2.124-6 0-6l1-1v-1l1-1v-2l-1-2c-4.688 0-3.551 9-7.5 9-.906 0-1.29-4.355-4-3-4.776 2.388-9.156 5.578-14 8l-4.5 2.5 4.5.5c3.861 0 6.085-2 10.5-2ZM244 289h1c4.119 0 7.35 3.575 10.5 2l4.5-.5-4-3-13.5-7.5c-3.579-1.789-3.356 3.822-5 3-3.186-1.593-2.907-9-7.5-9l-1 2 1 2v1l1 1v1c7.287 0-4.626 8 8 8h1c0-1.535 4-1.535 4 0Z"/><path fill="#FF9BCD" id="MY" d="m320 274-1 1 1-1Z"/><path fill="#C9C9C8" id="icp" d="M315 276h1v-1l-1 1Z"/><path fill="#FF9BCD" id="MY" d="m318 275-2 1v-1h2ZM227 277l3 1-1-2h-2v1Z"/><path fill="#C9C9C8" id="icp" d="M313 277h1v-1l-1 1Z"/><path fill="#FF9BCD" id="MY" d="m316 276-2 1v-1h2Z"/><path fill="#FFC6E2" id="RPA" d="M225 287v1l2.5 2c4.272 2.136 3.5-6.987 3.5-9v-1l-1-1v-1l-3-1v1l-1 1v1l-1 1v6Z"/><path fill="#FF9BCD" id="MY" d="M313 277c-1.424 0-5 .362-5 2 1.424 0 5-.362 5-2ZM227 278l-1 1 1-1Z"/><path fill="#CBC7CC" id="sctv" d="M169 285h1l10 6.5c0 2.721-8.156-2.328-8.5-2.5l-14.5-7.5 1-2.5h1l2 1 2 1c0 1.577 1.762 2 3 2l2 1 1 1Z"/><path fill="#FF9BCD" id="MY" d="m159 279 2 1-2-1ZM230 279l1 1-1-1ZM297 279l-2 1 2-1Z"/><path fill="#CBC7CC" id="sctv" d="m287 289-4 2c-.902 0-7.284 2.068-6-.5l4-2.5h1l1-1 2-1 1-1h1l1-1h1l1-1c1.238 0 3-.423 3-2l2-1 2-1h1l2 1.5c0 4.211-13 4.684-13 8.5Z"/><path fill="#FF9BCD" id="MY" d="M308 279c-1.424 0-5 .362-5 2 1.424 0 5-.362 5-2ZM226 280l-1 1 1-1ZM163 281c1.238 0 3 .423 3 2-1.238 0-3-.423-3-2ZM225 281c-2.124 0-4.616 6 0 6v-6Z"/><path fill="#FF9BCD" id="MY" d="M219 299c3.658 0 9.028-7 9.5-7l2.5 3.5c1.917 1.917 4.21 3.5 7 3.5l-5-5.5 6-4.5c-12.626 0-.713-8-8-8 0 2.013.772 11.136-3.5 9l-2.5-2c-1.506 0-12 .8-12 1 2.748 0 12.228 2.044 10 6.5l-4 3.5ZM286 281l-1 1 1-1ZM293 281c-1.238 0-3 .423-3 2 1.238 0 3-.423 3-2ZM171 282l1 1-1-1ZM285 282l-1 1 1-1ZM290 283l-1 1 1-1ZM168 284l1 1-1-1ZM282 284l-1 1 1-1ZM288 284l-1 1 1-1ZM286 285l-1 1 1-1ZM285 286l-2 1 2-1ZM283 287l-1 1 1-1ZM240 289h4c0-1.535-4-1.535-4 0Z"/><path fill="#C7C9C9" id="py" d="M216 299h3l4-3.5c2.228-4.456-7.252-6.5-10-6.5h-2l-3 2.5 1 3c2.628 5.257-1.483 4.5 7 4.5ZM240 299h7c0-2.329 2-5.587 2-6.5l-4-3.5h-6l-6 4.5 5 5.5h2Z"/><path fill="#FF9BCD" id="MY" d="m287 289-4 2c1.465 0 4 .109 4-2ZM240 299h7c0 1.602-7 1.602-7 0Z"/></svg>