<svg xmlns="http://www.w3.org/2000/svg" viewBox="0 0 456 320"><path fill="#FCFB90" id="CUL4, 5" d="M201 44c0 3.463 7.569 2.035 9.5 3 8.852 4.426 27.113 4.444 36 0 1.745-.872 8.5.027 8.5-3 0-3.884-7.472-1.986-9.5-3-4.046-2.023-29.954-2.023-34 0-2.185 1.092-10.5-1.204-10.5 3Z"/><path fill="#FEFA90" id="DEC" d="m172 89 4-5.5 9.5-8.5c7.49-3.745 15.524-6.262 23-10l10-2c3.113-1.557 11.944-4.028 16-2 5.902 2.95 13.162 3.08 19 6l20 10c2.913 1.457 11.236 13 11.5 13 0-2.654-.888-5.275-2-7.5l2-29.5-4.5-4c-6.687-3.343-17.612-5-25.5-5 0 3.027-6.755 2.128-8.5 3-8.887 4.444-27.148 4.426-36 0-1.931-.965-9.5.463-9.5-3-5.289 0-14.912.706-19.5 3-1.932.966-8.531 6-9.5 6v36Z"/><path fill="#FDFB8F" id="SIM" d="M145 99c6.695 0 11.717-21.934 14-26.5l5.5-5.5c1.657.828-1.075 3.65-1.5 4.5l-5 15c-6.104 12.207-10.995 34.752 4.5 42.5 3.857 1.928 9.043-2 12.5-2 0-3.542-3.305-13.11-5-16.5-2.481-4.962 1-14.573 1-19.5l1-2V53c-.86 0-6.905-3.798-10.5-2-5.781 2.89-24.5 8.55-24.5 17 5.878 0 8 25.449 8 31ZM311 98c-5.533 0-12.051-20.602-14-24.5-.762-1.524-1.701-8.4-5.5-6.5-1.558.779 1.5 3.626 1.5 5 0 4.058 4.149 11.799 6 15.5 5.462 10.924 9.844 34.328-4.5 41.5-4.068 2.034-9.039-2-12.5-2 0-3.96 2.273-10.047 4-13.5 2.48-4.961 0-13.705 0-19.5l-1-1v-3c0-2.654-.888-5.275-2-7.5l2-29.5c0-2.476 8.665-2.918 10.5-2 6.008 3.004 23.5 8.697 23.5 17 0 .691-4.175 6.85-5 8.5-2.751 5.502-3 15-3 21.5Z"/><path fill="#FCFB90" id="CUL4, 5" d="M175 127c6.661 0 23.499 2.502 27-4.5 1.818-3.636-4.743-15.515-2-21 1.86-3.72 10.215-4.858 13.5-6.5.586-.293.771-3.385 4-5 2.812-1.406 7.078.461 10-1 1.247-.624 13.454 1.227 15 2 1.53.765-.281 3.86 2 5 3.188 1.594 10.706 1.912 12.5 5.5 4.239 8.479-5.813 15.373-2 23 1.919 3.838 22.565 2.5 27 2.5 0-3.96 2.273-10.047 4-13.5 2.48-4.961 0-13.705 0-19.5l-1-1v-3c-.264 0-8.587-11.543-11.5-13l-20-10c-5.838-2.92-13.098-3.05-19-6-4.056-2.028-12.887.443-16 2l-10 2c-7.476 3.738-15.51 6.255-23 10l-9.5 8.5-4 5.5-1 2c0 4.927-3.481 14.538-1 19.5 1.695 3.39 5 12.958 5 16.5Z"/><path fill="#FCFC90" id="ANcr1" d="M90 102c22.78 0 13.845 22.173 23.5 27 6.229 3.115 13.822 2.911 20 6 1.538.769 5.5-1.226 5.5 2 6.571 0 8.558-24.383 6-29.5-2.788-5.576-21.833-13.335-18-21 .465-.93 3.441 6.883 4 8 .84 1.68 14 11.007 14 4.5 0-5.551-2.122-31-8-31l-5.5-1C120.747 72.376 90 86.63 90 102Z"/><path fill="#CBC9CC" id="arb" fill-rule="evenodd" d="M225 96c0 8.971-7 6.191-7 9.5 0 3.062 1.156 12.328 3.5 13.5.437.219 3.003 7.505 3.5 8.5l.5 4.5c7.394 3.697 6.798-9.097 8.5-12.5l3-1c1.149-2.297 2.391-12.218 1-15l-5-1c-2.523-5.046-1.641-6.5-8-6.5m85 83c0 1.377 10.73 12 11 12l-5-10.5c-3.028-6.055-5.767-27.866 1.5-31.5 2.381-1.191 6.556 4 9.5 4 9.918 0 18.004 6.252 25.5 10 3.554 1.777 5.338 11 9 11 3.286 0-.174-4.849-.5-5.5-2.764-5.529-9.355-7.71-12-13-.387-.774-2.186-4.5 0-4.5 0-2.334 4.181-1.341 5.5-2 3.748-1.874 8.02-3 12.5-3l7 .5-3-7c-.894-1.788-3.286 1.5-4.5 1.5l-14 5c-5.133 2.567-23.783-2.891-28-5-1.924-.962-7.5-1.207-7.5-5-6.229 0-8.427-21.645-6-26.5l4.5-7.5c1.175-.587 7.5-1.344 7.5-3.5l-2.5-.5c-1.522.76-9.5 6.535-9.5 0-5.533 0-12.051-20.602-14-24.5-.762-1.524-1.701-8.4-5.5-6.5-1.558.779 1.5 3.626 1.5 5 0 4.058 4.149 11.799 6 15.5 5.462 10.924 9.844 34.328-4.5 41.5-4.068 2.034-9.039-2-12.5-2-4.435 0-25.081 1.338-27-2.5-3.813-7.627 6.239-14.521 2-23-1.794-3.588-9.312-3.906-12.5-5.5-2.281-1.14-.47-4.235-2-5-1.546-.773-13.753-2.624-15-2-2.922 1.461-7.188-.406-10 1-3.229 1.615-3.414 4.707-4 5-3.285 1.642-11.64 2.78-13.5 6.5-2.743 5.485 3.818 17.364 2 21-3.501 7.002-20.339 4.5-27 4.5-3.457 0-8.643 3.928-12.5 2-15.495-7.748-10.604-30.293-4.5-42.5l5-15c.425-.85 3.157-3.672 1.5-4.5l-5.5 5.5c-2.283 4.566-7.305 26.5-14 26.5 0 6.507-13.16-2.82-14-4.5-.559-1.117-3.535-8.93-4-8-3.833 7.665 15.212 15.424 18 21 2.558 5.117.571 29.5-6 29.5 0 2.47-5.03 3.265-6.5 4-4.291 2.145-23.723 7.639-29 5l-12-4c-1.023-.511-5.952-4.596-6.5-3.5-.52 1.042-1.527 8.487-1.5 8.5.84.42 13.911-.544 19 2 1.411.706 5.5.386 5.5 3 2.878 0-11.05 14.6-12 16.5-.464.928-3.563 4.469-1.5 5.5l2.5-1.5c1.988-3.976 5.04-7.04 8.5-10.5 4.884-4.884 16.77-9 23.5-9 3.313 0 7.555-5.472 10.5-4 11.006 5.503-2.5 33.008-2.5 40 2.734 0 9-7.866 9-10-3.468 0-1.722-7.056-1-8.5l12.5-19.5c6.438-3.219 7.758 3 14 3 .621 0 1.389-3 3.5-3l1-5c0-3.019-7.951-6.599-6-10.5 3.668-7.336 17.668.584 21.5 2.5 1.157.578 3.055-.973 5 0 2.25 1.125 2.625 3.75 3.5 5.5.82 1.64 5.063 4.874 4 7-2.586 5.171-8.999 3.999-12 7-3.175 3.175-7.667.5-11 .5 0 1.747-.253 2-2 2l-1 1-1 1v1c18.407 0 32.262-16 46-16 0-1.579 2.855-1 4-1 0-1.486 3-1.486 3 0 1.145 0 4-.579 4 1 13.084 0 27.412 16 45 16v-1l-1-1-3-2c-4.467 0-6.856-.178-10.5-2-2.393-1.197-12.5-2.588-12.5-7.5l3-4c4.551-9.102 12.141-8.321 20.5-12.5 2.804-1.402 11.5-.147 11.5 3.5l-6 8.5 1 6c2.45 0 1.698 3 3.5 3 6.142 0 6.473-6.264 13-3 4.251 2.125 11.364 17.227 13.5 21.5 1.067 2.133.259 6.5-2 6.5Z"/><path fill="#FCFC90" id="ANcr1" fill-rule="evenodd" d="M324 95c0 5.3 1.984 0 0 0m2-2c0 3.746 2.091 0 0 0m2-5-1 2.5c-2.811 5.623 5.522-2.5 1-2.5m38 14c-15.403 0-15.894 14.289-21 24.5-2.027 4.054-23.44 9.5-28 9.5-6.229 0-8.427-21.645-6-26.5l4.5-7.5c1.175-.587 7.5-1.344 7.5-3.5l-2.5-.5c-1.522.76-9.5 6.535-9.5 0 0-6.5.249-15.998 3-21.5.825-1.65 5-7.809 5-8.5l5.5-1c11.551 5.776 41.5 18.733 41.5 35Z"/><path fill="#CBC9CC" id="arb" d="m328 88-1 2.5c-2.811 5.623 5.522-2.5 1-2.5Z"/><path fill="#FEFA90" id="DEC" d="m172 89-1 2 1-2ZM285 93l1 1-1-1Z"/><path fill="#CBC9CC" id="arb" d="M326 93c0 3.746 2.091 0 0 0ZM324 95c0 5.3 1.984 0 0 0Z"/><path fill="#FCFB90" id="CUL4, 5" d="M225 96c0 8.971-7 6.191-7 9.5 0 3.062 1.156 12.328 3.5 13.5.437.219 3.003 7.505 3.5 8.5l.5 4.5c7.394 3.697 6.798-9.097 8.5-12.5l3-1c1.149-2.297 2.391-12.218 1-15l-5-1c-2.523-5.046-1.641-6.5-8-6.5Z"/><path fill="#FCFA91" id="ANcr2" d="M108 152c-9.376 0-24.22 13-31 13-14.583 0-8.569-8.638-12-15.5-5.649-11.298 11.245-47.5 25-47.5 22.78 0 13.845 22.173 23.5 27 6.229 3.115 13.822 2.911 20 6 1.538.769 5.5-1.226 5.5 2 0 2.47-5.03 3.265-6.5 4-4.291 2.145-23.723 7.639-29 5l-12-4c-1.023-.511-5.952-4.596-6.5-3.5-.52 1.042-1.527 8.487-1.5 8.5.84.42 13.911-.544 19 2 1.411.706 5.5.386 5.5 3ZM349 151c0 1.961 6.099 2.3 7.5 3l23.5 11c10.491 0 12-10.491 12-20.5 0-14.546-6.775-32.638-20.5-39.5l-5.5-3c-15.403 0-15.894 14.289-21 24.5-2.027 4.054-23.44 9.5-28 9.5 0 3.793 5.576 4.038 7.5 5 4.217 2.109 22.867 7.567 28 5l14-5c1.214 0 3.606-3.288 4.5-1.5l3 7-7-.5c-4.48 0-8.752 1.126-12.5 3-1.319.659-5.5-.334-5.5 2Z"/><path fill="#FFFCBC" id="FN" d="M181 155v3c3.333 0 7.825 2.675 11-.5 3.001-3.001 9.414-1.829 12-7 1.063-2.126-3.18-5.36-4-7-.875-1.75-1.25-4.375-3.5-5.5-1.945-.973-3.843.578-5 0-3.832-1.916-17.832-9.836-21.5-2.5-1.951 3.901 6 7.481 6 10.5 2.51 0 6 4.891 6 7l-1 2ZM275 155v4c-4.467 0-6.856-.178-10.5-2-2.393-1.197-12.5-2.588-12.5-7.5l3-4c4.551-9.102 12.141-8.321 20.5-12.5 2.804-1.402 11.5-.147 11.5 3.5l-6 8.5c-2.073 0-7 6.148-7 8l1 2Z"/><path fill="#F0F080" id="CB" d="M227 146h3c0-1.486-3-1.486-3 0ZM275 159l3 2c0-4.544-3.366-10 4-10l-1-6c-2.073 0-7 6.148-7 8l1 2v4ZM181 158c0 1.747-.253 2-2 2 0-4.146 1.333-9-4-9l1-5c2.51 0 6 4.891 6 7l-1 2v3Z"/><path fill="#FFFA8F" id="UVU" d="M223 147h11c0-1.579-2.855-1-4-1h-3c-1.145 0-4-.579-4 1Z"/><path fill="#FDFC8F" id="NOD" d="M237 189h1c0-.886 5.824-3 7-3l1-1h2l1-1h1l1-1h3l2-1c0-1.788 11.092-1 13-1 0-1.579 2.855-1 4-1 5.139 0 10.395-1 16-1 0-.288 10.672-4 11-4 0-1.593-10.726-10-13-10-1.041 0-5-.986-5-2h-3c-17.588 0-31.916-16-45-16h-11c-13.738 0-27.593 16-46 16h-3c0 1.473-1.952 1-3 1l-1 1c-2.898 0-13 6.329-13 10l1.5 2c3.944 1.972 19.569 3 24.5 3l16 1 4 2h2l2 1h1l1 1h1l8 4h19Z"/><path fill="#FFF990" id="COPY" d="m136 191-3 5c-3.301 0-8.855-15-14-15 0-6.083 3.345-16.19 6-21.5 1.319-2.638 4-3.261 4-6.5 3.313 0 7.555-5.472 10.5-4 11.006 5.503-2.5 33.008-2.5 40l-1 2Z"/><path fill="#FFFDBC" id="IP" d="M147 179h2l8-4c0-3.671 10.102-10 13-10l1-1c0-1.473 1.952-1 3-1h2l1-1 1-1 1-1c0-4.146 1.333-9-4-9-2.111 0-2.879 3-3.5 3-6.242 0-7.562-6.219-14-3L145 170.5c-.722 1.444-2.468 8.5 1 8.5h1ZM309 179h1c2.259 0 3.067-4.367 2-6.5-2.136-4.273-9.249-19.375-13.5-21.5-6.527-3.264-6.858 3-13 3-1.802 0-1.05-3-3.5-3-7.366 0-4 5.456-4 10l1 1 2 1h1c1.424 0 5 .362 5 2 2.274 0 13 8.407 13 10l7 4h2Z"/><path fill="#FFF990" id="COPY" d="M321 191c0 1.643 1.338 6 3 6 0-3.502 10.055-16 14-16 0-6.774-11-25.116-11-28-2.944 0-7.119-5.191-9.5-4-7.267 3.634-4.528 25.445-1.5 31.5l5 10.5Z"/><path fill="#FFFB8E" id="PRM" d="m348 200 6 3c17.68 0 26-23.887 26-38l-23.5-11c-1.401-.7-7.5-1.039-7.5-3-2.186 0-.387 3.726 0 4.5 2.645 5.29 9.236 7.471 12 13 .326.651 3.786 5.5.5 5.5-3.662 0-5.446-9.223-9-11-7.496-3.748-15.582-10-25.5-10 0 2.884 11 21.226 11 28 0 2.667 10 14.065 10 19ZM108 200c-1.076 0-5 1.523-5 3-18.555 0-26-21.968-26-38 6.78 0 21.624-13 31-13 2.878 0-11.05 14.6-12 16.5-.464.928-3.563 4.469-1.5 5.5l2.5-1.5c1.988-3.976 5.04-7.04 8.5-10.5 4.884-4.884 16.77-9 23.5-9 0 3.239-2.681 3.862-4 6.5-2.655 5.31-6 15.417-6 21.5l-3.5 4-7.5 15Z"/><path fill="#CBC9CC" id="arb" d="m182 153-1 2 1-2ZM274 153l1 2-1-2Z"/><path fill="#F0F080" id="CB" d="m179 160-1 1 1-1ZM176 163h1v-1l-1 1ZM279 163h2l-2-1v1ZM174 163c-1.048 0-3-.473-3 1 1.048 0 3 .473 3-1ZM282 163c1.424 0 5 .362 5 2-1.041 0-5-.986-5-2ZM171 164l-1 1 1-1Z"/><path fill="#A9AAA7" id="V4r" d="M133 196c0 2.46-4 4.17-4 7 2.099 0 14.914-19.207 20.5-22 5.745-2.873 8.468-2 14.5-2 1.779 0 6.402.695 5 3.5l-9 8.5h2c3.291 0 13.891-10 21-10v-1c-4.931 0-20.556-1.028-24.5-3l-1.5-2-8 4c0 1.399-2 1.399-2 0h-1c0 2.134-6.266 10-9 10l-1 2-3 5ZM331 235c3.041 0 .766 4 4 4l2-3.5c2.639-5.277-1-16.457-1-21.5l-3-4c0-4.867-9-8.597-9-13-1.662 0-3-4.357-3-6-.27 0-11-10.623-11-12h-1c0 1.399-2 1.399-2 0l-7-4c-.328 0-11 3.712-11 4l12.5-1c9.876 4.938 22.398 18.297 27.5 28.5l4 5c1.233 2.465 2.994 16.253.5 17.5-2.983 1.492-3.784-4.069-4.5-5.5-1.148-2.297-11.809-19.5-13-19.5 0 4.702 10 12.876 10 19v1l1 1v1l1 1v1l1 1v1l1 1v1l1 1v2Z"/><path fill="#A9AAA8" id="chpl" d="M137 209c-1.577 0-2 1.762-2 3-3.286 0-6.832 15.166-10.5 17-3.362 1.681-2.5-10.375-2.5-12l7-14c2.099 0 14.914-19.207 20.5-22 5.745-2.873 8.468-2 14.5-2 1.779 0 6.402.695 5 3.5l-9 8.5-2 1-2 1c-1.048 0-3-.473-3 1-1.048 0-3-.473-3 1l-2 1-1 1h-1l-1 1-1 1-1 1v1l-1 1-1 1-1 1-1 2-1 1-1 2ZM315 202l1 2c1.191 0 11.852 17.203 13 19.5.716 1.431 1.517 6.992 4.5 5.5 2.494-1.247.733-15.035-.5-17.5l-4-5c-5.102-10.203-17.624-23.562-27.5-28.5l-12.5 1c0 2.392-2.399 1.701-1 4.5l12 9.5h1c1.424 0 5 .362 5 2h1l2 2h1l3 3 1 1 1 1Z"/><path fill="#FDFC8F" id="NOD" d="M147 179h2c0 1.399-2 1.399-2 0Z"/><path fill="#A9AAA7" id="V4r" d="m295 191 5 2-12-9.5c-1.399-2.799 1-2.108 1-4.5-5.605 0-10.861 1-16 1v1c7.862 0 17.818 10 22 10Z"/><path fill="#FDFC8F" id="NOD" d="M307 179h2c0 1.399-2 1.399-2 0Z"/><path fill="#AAA9A7" id="V4" d="M190 182c4.569 0 8.923 1 13 1l-4-2-16-1v1l6 1h1ZM269 181h4v-1c-1.145 0-4-.579-4 1Z"/><path fill="#FFFC8D" id="PFL" d="M115 211h7l1-1c0-1.662 4.775-7 6-7 0-2.83 4-4.54 4-7-3.301 0-8.855-15-14-15l-3.5 4-7.5 15 1 5c0 1.76 3.689 6 6 6Z"/><path fill="#FEB1D9" id="SPIV" d="m186 204-13 4c-3.498 0-6-.182-6-4 0-3.29.534-8-4-8 0-1.49-1-2.587-1-5 3.291 0 13.891-10 21-10l6 1 1 1c0 8.089-4 14.529-4 21Z"/><path fill="#AAA9A7" id="V4" d="M256 182h11l2-1c-1.908 0-13-.788-13 1Z"/><path fill="#FEB1D9" id="SPIV" d="M290 205c-1.349 0-3.085 3-6 3-4.679 0-8.729-4-13-4l-4-9.5V182l2-1h4c7.862 0 17.818 10 22 10l-1 5c-6.514 0-4 5.232-4 9Z"/><path fill="#FFFC8D" id="PFL" d="m333 210 7 2c1.6 0 7-4.129 7-6 0-2.486 1-3.725 1-6 0-4.935-10-16.333-10-19-3.945 0-14 12.498-14 16 0 4.403 9 8.133 9 13Z"/><path fill="#FF9BCD" id="MY" d="M190 182v1l-1-1h1Z"/><path fill="#FFB0D7" id="MV" d="M204 207c1.835 0 4.235 2 7 2 0-4.336 6-9.204 6-14 0-4.415-7-7.064-7-10h-1l-1-1h-1l-2-1h-2c-4.077 0-8.431-1-13-1v1c0 8.089-4 14.529-4 21 1.199 0 13 1.285 13 2l5 1Z"/><path fill="#AAA9A7" id="V4" d="m256 182-2 1 2-1Z"/><path fill="#FFB0D7" id="MV" d="m251 208-5 1c-4.181 0-3.864-14-7-14v-1l6-8 1-1h2l1-1h1l1-1h3l2-1h11v12.5l4 9.5c-1.318 0-14 1.249-14 2h-2l-1 1-3 1Z"/><path fill="#AAA9A7" id="V4" d="m205 183 2 1-2-1ZM251 183l-1 1 1-1ZM208 184l1 1-1-1ZM249 184l-1 1 1-1ZM217 195l2 1c0-.698-4.237-7-1-7l-8-4c0 2.936 7 5.585 7 10ZM246 185l-1 1 1-1ZM238 189c1.643 0 1 3.765 1 5l6-8c-1.176 0-7 2.114-7 3Z"/><path fill="#CBC9CC" id="arb" d="m137 189-1 2 1-2Z"/><path fill="#A9AAA8" id="chpl" d="m233 202-1 1c-1.791 0-2.959 3.27-5.5 2l-7.5-8v-1c0-.698-4.237-7-1-7h2c0 1.65 17 1.65 17 0h1c1.643 0 1 3.765 1 5l-1 1-1 2-1 1-1 1v1l-1 1-1 1Z"/><path fill="#AAA9A7" id="V4" d="M220 189h17c0 1.65-17 1.65-17 0Z"/><path fill="#A9AAA7" id="V4r" d="m160 191-2 1 2-1Z"/><path fill="#FF9BCD" id="MY" d="M168 214c-4.144 0-7.693-4.403-12.5-2l-9 5-5.5 5c0-5.385 10.189-9.689 13-12.5.797-.797 5.557-4.472 3.5-5.5l-7.5 1 5-7.5c1.232-2.464-6.655 1.078-7.5 1.5L137 211v-2l1-2 1-1 1-2 1-1 1-1 1-1v-1l1-1 1-1 1-1h1l1-1 2-1c1.048 0 3 .473 3-1 1.048 0 3 .473 3-1l2-1 2-1h2c0 2.413 1 3.51 1 5-4.487 0-9.131 6.184-3.5 9 2.364 1.182 5.696-1 7.5-1 0 3.818 2.502 4 6 4 0 1.367-5 2.183-5 6ZM289 213l7.5-2 9 3c14.629 7.315 18.5 23.803 18.5 40 1.643 0 1-3.765 1-5 0-5.41.232-11.035-2-15.5-4.437-8.874-10.264-17.882-19.5-22.5-.887-.443-5.427-4.647-4.5-6.5 1.203-2.406 6.69 1.5 8 1.5 0-3.624-6-5.981-6-9.5 0-1.56 2.807.5 3 .5 3.484 0 6.047 3.547 8.5 6l13.5 20c0-6.124-10-14.298-10-19l-1-2-1-1-1-1-3-3h-1l-2-2h-1c-1.424 0-5-.362-5-2h-1l-5-2-1 5c8.169 0 7.563 9-4 9-1.349 0-3.085 3-6 3l5 5Z"/><path fill="#A9AAA7" id="V4r" d="m158 192-2 1 2-1ZM156 193c-1.048 0-3-.473-3 1 1.048 0 3 .473 3-1ZM301 193c1.424 0 5 .362 5 2-1.424 0-5-.362-5-2ZM153 194c-1.048 0-3-.473-3 1 1.048 0 3 .473 3-1Z"/><path fill="#AAA9A7" id="V4" d="M238 195h1v-1l-1 1Z"/><path fill="#A9AAA7" id="V4r" d="m150 195-2 1 2-1Z"/><path fill="#FFB3D7" id="PRP" d="M223 214h10l11-1c2.641 0 2-1.823 2-4-4.181 0-3.864-14-7-14h-1l-1 2-1 1-1 1v1l-1 1-1 1-1 1c0 9.705-13-2.442-13-6v-1l-2-1c0 4.796-6 9.664-6 14 0 1.429-1.787 4 1 4l11 1Z"/><path fill="#AAA9A7" id="V4" d="m238 195-1 2 1-2Z"/><path fill="#A9AAA7" id="V4r" d="m307 195 2 2-2-2ZM148 196l-1 1 1-1Z"/><path fill="#C9C9C8" id="icp" d="M146 275v1c-.97 0-12-6.685-12-3-2.383 0-7.938-10.376-9-12.5-.659-1.319.334-5.5-2-5.5v-4c0-5.998 2-10.447 2-16v-1l1-1v-1l1-1 1-3 1-1v-1l1-1v-1l1-1v-2l1-1 1-2c1.948 0 4-5.428 4-7l10.5-12c.845-.422 8.732-3.964 7.5-1.5l-5 7.5-1 1c-6.452 0-11.591 9.682-14 14.5-5.847 11.693-17.268 38.116-.5 46.5 3.009 1.505 7.073 8 11.5 8Z"/><path fill="#FFB0D9" id="x" d="M163 196c4.534 0 4 4.71 4 8-1.804 0-5.136 2.182-7.5 1-5.631-2.816-.987-9 3.5-9ZM294 196c8.169 0 7.563 9-4 9 0-3.768-2.514-9 4-9Z"/><path fill="#C9C9C8" id="icp" d="m323 272-8 1c0-2.73 3.306-1.112 4-2.5 1.893-3.785 7.641-6.282 10-11 6.982-13.964-4.574-32.148-10-43-2.023-4.046-6.482-10.5-12-10.5 0-3.624-6-5.981-6-9.5 0-1.56 2.807.5 3 .5 3.484 0 6.047 3.547 8.5 6l13.5 20v1l1 1v1l1 1v1l1 1v1l1 1v1l1 1v2c0 5.45 2 12.911 2 20v2l-1 2-1 2v1l-1 2-1 1v1l-1 1-1 2c-1.747 0-2 .253-2 2l-2 1Z"/><path fill="#A9AAA7" id="V4r" d="m146 197-1 1 1-1Z"/><path fill="#AAA9A7" id="V4" d="m219 197 7.5 8c2.541 1.27 3.709-2 5.5-2 0 9.705-13-2.442-13-6ZM237 197l-1 1 1-1Z"/><path fill="#A9AAA7" id="V4r" d="m310 197 3 3-3-3Z"/><path fill="#AAA9A7" id="V4" d="m236 198-1 1 1-1Z"/><path fill="#A9AAA7" id="V4r" d="m144 199-1 1 1-1Z"/><path fill="#F0F080" id="CB" d="M103 203c2.72 0 3.553 2 6 2l-1-5c-1.076 0-5 1.523-5 3Z"/><path fill="#AAA9A7" id="V4" d="m235 200-1 1 1-1Z"/><path fill="#F0F080" id="CB" d="M354 203c-3.145 0-4.833 3-7 3 0-2.486 1-3.725 1-6l6 3Z"/><path fill="#A9AAA7" id="V4r" d="m143 201-1 1 1-1Z"/><path fill="#AAA9A7" id="V4" d="m234 201-1 1 1-1Z"/><path fill="#A9AAA7" id="V4r" d="m314 201 1 1-1-1ZM142 202l-1 1 1-1Z"/><path fill="#AAA9A7" id="V4" d="m233 202-1 1 1-1Z"/><path fill="#A9AAA7" id="V4r" d="M125 235c-2.007 0-1.121 4-4 4l-2-5.5V215l3-4 1-1c0-1.662 4.775-7 6-7l-7 14c0 1.625-.862 13.681 2.5 12 3.668-1.834 7.214-17 10.5-17l-2 6-1 2-1 1v2l-1 1v1l-1 1v1l-1 1-1 3-1 1v1l-1 1v1ZM141 203l-1 1 1-1Z"/><path fill="#C8CACA" id="sptV" d="m145 269 6 3.5-2.5 2.5H146c-4.427 0-8.491-6.495-11.5-8-16.768-8.384-5.347-34.807.5-46.5 2.409-4.818 7.548-14.5 14-14.5l1-1 7.5-1c2.057 1.028-2.703 4.703-3.5 5.5-2.811 2.811-13 7.115-13 12.5l-1 1-1 2c-1.577 0-2 1.762-2 3v1c-1.577 0-2 1.762-2 3-1.638 0-2 3.576-2 5-1.951 0-.477 2.454-1 3.5-1.021 2.042-2.299 15.5 1 15.5v1c0 1.717 3.453 8 5 8h1c0 1.539 1.342 3 3 3h1l1 1h1Z"/><path fill="#FDA5D1" id="NTS" d="M177 221h2l1-1c4.077 0 8.431-1 13-1l1-1c2.933 0 5.321-3 9-3l1-3c-10.529 0-5-4.38-5-6 0-.715-11.801-2-13-2l-13 4c0 1.367-5 2.183-5 6 1.7 0 6 4.503 6 6l3 1ZM279 221h3v-1l1-1 6-6-5-5c-4.679 0-8.729-4-13-4-1.318 0-14 1.249-14 2 6.326 0-.085 6-5 6l2 3c3.647 0 5.609 3 9 3 4.974 0 11.338 3 16 3Z"/><path fill="#C8CACA" id="sptV" d="m315 273-4 2c-7.962 0-4-.215-4-4l4-2h2l1-1 1-1h1l1-1 1-1 1-1 1-1v-1l1-1c1.577 0 2-1.762 2-3v-1c1.473 0 1-1.952 1-3 1.643 0 1-3.765 1-5 0-5.41.232-11.035-2-15.5-4.437-8.874-10.264-17.882-19.5-22.5-.887-.443-5.427-4.647-4.5-6.5 1.203-2.406 6.69 1.5 8 1.5 5.518 0 9.977 6.454 12 10.5 5.426 10.852 16.982 29.036 10 43-2.359 4.718-8.107 7.215-10 11-.694 1.388-4-.23-4 2.5Z"/><path fill="#FF9BCD" id="MY" d="m150 205-1 1 1-1Z"/><path fill="#A9AAA7" id="V4r" d="m139 206-1 1 1-1Z"/><path fill="#FDB1D8" id="DMX" d="M204 207c0 .671 2.662 5 0 5-10.529 0-5-4.38-5-6l5 1Z"/><path fill="#FDA5D1" id="NTS" d="m255 206-1 1 1-1Z"/><path fill="#FDB1D8" id="DMX" d="m251 208 1 4c4.915 0 11.326-6 5-6h-2l-1 1-3 1Z"/><path fill="#A9AAA7" id="V4r" d="m138 207-1 2 1-2Z"/><path fill="#FF9BCD" id="MY" d="m203 215 7 4c0-2.518 2-4.286 2-6-2.787 0-1-2.571-1-4-2.765 0-5.165-2-7-2 0 .671 2.662 5 0 5l-1 3ZM254 215l-7 3c0-3.151-3-2.703-3-5 2.641 0 2-1.823 2-4l5-1 1 4 2 3Z"/><path fill="#A9AAA7" id="V4r" d="m137 211-2 1c0-1.238.423-3 2-3v2Z"/><path fill="#F0F080" id="CB" d="m123 210-1 1 1-1ZM340 212c0 2.978-2.995 2-4 2l-3-4 7 2ZM122 211l-3 4-4-4h7Z"/><path fill="#FF9BCD" id="MY" d="m135 212-2 6c1.948 0 4-5.428 4-7l-2 1Z"/><path fill="#FDA5D2" id="SPVI" d="M145 269h4c9.281 0 5.524-20.548 8-25.5 3.579-7.158 17-11.892 17-20.5v-3c0-1.497-4.3-6-6-6-4.144 0-7.693-4.403-12.5-2l-9 5-5.5 5-1 1-1 2c0 1.238-.423 3-2 3v1c0 1.238-.423 3-2 3 0 1.424-.362 5-2 5v20c.81 0 5 6.749 5 8h1l3 3h1l1 1h1ZM311 269h2l1-1 1-1h1l1-1 1-1 1-1 1-1v-1l1-1c0-1.238.423-3 2-3v-1c0-1.048-.473-3 1-3 0-16.197-3.871-32.685-18.5-40l-9-3-7.5 2-6 6-1 1v3l4 7.5 11 8c2.446 4.892 3.545 30.5 10 30.5h4Z"/><path fill="#FCB3D8" id="PGRNd" d="M211 222h11c0-2.748 1-5.804 1-8l-11-1c0 1.714-2 3.482-2 6l1 3Z"/><path fill="#FF9BCD" id="MY" d="M227 238c0 .896 2 3.026 2 1v-21.5c2.18-4.361 2 4.385 2 5.5l4-1c0-2.338-2-4.862-2-8h-10c0 2.196-1 5.252-1 8l3 1c0-15.79 3 6.073 3 9.5 0 1.278.665 5.5-1 5.5Z"/><path fill="#FCB3D8" id="PGRNd" d="M245 222h1l1-4c0-3.151-3-2.703-3-5l-11 1c0 3.138 2 5.662 2 8h10Z"/><path fill="#FFFC8D" id="PFL" d="M79 215c0 1.659-5.167.833-6 2.5-1.206 2.413-.77 5.542-2 8-2.657 5.315 5.99 18.755 12.5 15.5 6.79-3.395 6.215-26-4.5-26Z"/><path fill="#FFB2D8" id="IRN" d="M190 265h3l7-14.5c2.449-4.898 4.503-10.006 7-15l2-10 2-3.5-1-3-7-4c-3.679 0-6.067 3-9 3l-1 1c0 8.389-12 15.002-12 23 3.806 0 18.665 6.417 11.5 10-6 3-8.882-6-13.5-6 0 4.66-8 9.928-8 15 1.539 0 3 1.342 3 3l2 1h14ZM280 265h1l2-1c0-2.747.253-3 3-3l-2-2.5c-1.05-2.1-4.191-12.5-7-12.5-4.358 0-7.006 9.247-13.5 6-7.281-3.64 9.729-10 11.5-10 0-8.511-12-15.098-12-24-3.391 0-5.353-3-9-3l-7 3-1 4v1c0 13.032 17 30.759 17 42l3 1c0-3.896 5.584-1 7-1h7Z"/><path fill="#FFFC8D" id="PFL" d="m375 215-4 2.5c-1.098 2.197-1.874 4.749-3 7-.657 1.313 1.305 8.609 2 10 .754 1.507.75 5.625 2.5 6.5 10.786 5.393 21.124-26 2.5-26Z"/><path fill="#CBCBCC" id="mlf" d="M225 223c0 2.688.222 15 2 15 1.665 0 1-4.222 1-5.5 0-3.427-3-25.29-3-9.5ZM231 223c0 2.639 1.215 16-2 16v-21.5c2.18-4.361 2 4.385 2 5.5Z"/><path fill="#FF9BCD" id="MY" d="m133 218-1 2 1-2ZM194 218l-1 1 1-1Z"/><path fill="#FCB3D9" id="PARN" d="m307 271-6.5 3-4.5-2-7-7-1-1-2-3-2-2.5c-1.05-2.1-4.191-12.5-7-12.5 0-2.18 3.414-.671 4 .5l8 16 3.5 3.5c3.526-1.763-2.815-9.13-3.5-10.5-1.99-3.981-3.717-12.108-8.5-14.5-1.956-.978-4.077 1-5.5 1 0-8.511-12-15.098-12-24 4.974 0 11.338 3 16 3l3 2 4 7.5 11 8c2.446 4.892 3.545 30.5 10 30.5v2ZM149 269c0 5.542 8.512 4 11 4 0-1.517 6.113-8 8-8l1-1c0-1.238.423-3 2-3 0-5.072 8-10.34 8-15 0-2.649-3.542.584-4 1.5l-8 16-3.5 2.5c-2.64-1.32 1.912-7.324 2.5-8.5 2-3.999 5.062-14.281 9.5-16.5 1.956-.978 4.077 1 5.5 1 0-7.998 12-14.611 12-23-4.569 0-8.923 1-13 1l-1 1h-2l-3 2c0 8.608-13.421 13.342-17 20.5-2.476 4.952 1.281 25.5-8 25.5Z"/><path fill="#FF9BCD" id="MY" d="m283 219-1 1 1-1ZM132 220l-1 1 1-1ZM177 221l-3 2v-3l3 1ZM180 220l-1 1 1-1ZM282 221v2l-3-2h3ZM141 222l-1 1 1-1Z"/><path fill="#FEB0D8" id="GRN" d="M251 276c0 3.891 8.479 1 10 1 0-3.495-5.582-10 2-10v-2c0-11.241-17-28.968-17-42l-1-1h-10l-4 1c0 2.639 1.215 16-2 16 0 2.026-2-.104-2-1-1.778 0-2-12.312-2-15l-3-1h-11l-2 3.5-2 10c-2.497 4.994-4.551 10.102-7 15l-7 14.5 1 2c6.534 0 1 7.728 1 10 1.521 0 10 2.891 10-1-13.527 0 16-27.802 16-11 2.258 0 .383-12 6-12 0-2.726 2-3.644 2 0 2.997 0 8 13.788 8 17h2c0-2.594-4.829-4.842-3-8.5 4.309-8.617 27.908 14.5 15 14.5Z"/><path fill="#FF9BCD" id="MY" d="M246 222v1l-1-1h1ZM131 223l-1 1 1-1ZM140 223l-1 2 1-2ZM326 224l1 1-1-1ZM130 225l-1 1 1-1ZM139 225c-1.577 0-2 1.762-2 3 1.577 0 2-1.762 2-3ZM327 226l1 1-1-1ZM129 227l-1 1 1-1ZM328 228l1 1-1-1ZM137 229c-1.577 0-2 1.762-2 3 1.577 0 2-1.762 2-3ZM329 230l1 1-1-1ZM127 231l-1 1 1-1ZM135 232c-1.638 0-2 3.576-2 5 1.638 0 2-3.576 2-5ZM330 232l1 1-1-1ZM126 233l-1 1 1-1ZM121 239c0 1.308 1.144 12 2 12 0-5.998 2-10.447 2-16-2.007 0-1.121 4-4 4ZM335 239c0 2.267-.443 16-2 16 0-7.089-2-14.55-2-20 3.041 0 .766 4 4 4ZM133 237c-1.951 0-.477 2.454-1 3.5-1.021 2.042-2.299 15.5 1 15.5v-19Z"/><path fill="#FFB1D8" id="LIN" d="M181 242c3.806 0 18.665 6.417 11.5 10-6 3-8.882-6-13.5-6 0-2.649-3.542.584-4 1.5l-8 16-3.5 2.5c-2.64-1.32 1.912-7.324 2.5-8.5 2-3.999 5.062-14.281 9.5-16.5 1.956-.978 4.077 1 5.5 1ZM275 242c1.423 0 3.544-1.978 5.5-1 4.783 2.392 6.51 10.519 8.5 14.5.685 1.37 7.026 8.737 3.5 10.5l-3.5-3.5-8-16c-.586-1.171-4-2.68-4-.5-4.358 0-7.006 9.247-13.5 6-7.281-3.64 9.729-10 11.5-10Z"/><path fill="#FEC6E2" id="RO" d="m230 268-1 3c-2.641 0-2-1.823-2-4v-14c0-2.726 2-3.644 2 0l1 15Z"/><path fill="#C8C8CC" id="tspc" d="m222 273-1 1c-2.698 0-2-.331-2-4v-1c2.109 0 2-2.535 2-4 2.258 0 .383-12 6-12v14l-2 3-1 1-2 2ZM237 270c0 3.383 2.269 4-2 4l-4-4-1-2-1-15c2.997 0 8 13.788 8 17Z"/><path fill="#FF9BCD" id="MY" d="M324 254c-1.473 0-1 1.952-1 3 1.473 0 1-1.952 1-3ZM134 273l1 2c-4.224 0-12-16.372-12-20 2.334 0 1.341 4.181 2 5.5 1.062 2.124 6.617 12.5 9 12.5ZM133 257c.81 0 5 6.749 5 8-1.547 0-5-6.283-5-8ZM333 257l-1 2 1-2ZM323 258c-1.577 0-2 1.762-2 3 1.577 0 2-1.762 2-3ZM332 259l-1 2 1-2Z"/><path fill="#FDB2D9" id="MARN" d="m211 275-6 1c-13.527 0 16-27.802 16-11l-2 4-1 1-1 1-2 1-1 1-2 1-1 1ZM244 274l7 2c12.908 0-10.691-23.117-15-14.5-1.829 3.658 3 5.906 3 8.5l1 1 2 2h1l1 1Z"/><path fill="#FEB3D6" id="AMBd" d="m173 265-2 1-2-1v-1c0-1.238.423-3 2-3 1.539 0 3 1.342 3 3l-1 1ZM285 266h1l1-1 1-1-2-3c-2.747 0-3 .253-3 3v1l2 1Z"/><path fill="#FF9BCD" id="MY" d="m321 261-1 1 1-1ZM331 262l-1 2 1-2ZM320 263l-1 1 1-1ZM168 265h1v-1l-1 1ZM176 265v1l-3-1 1-1 2 1Z"/><path fill="#FCB2D9" id="PGRNl" d="m195 277-10.5 12c-4.434 2.217-7.892-3-11.5-3l-2-2.5c-.741-1.482-2.669-9.584-4.5-10.5l-5.5 2-1-2c0-1.517 6.113-8 8-8h1l2 1c0 4.532 5 3.571 5 0v-1h7v1c0 7.559 7 5.985 7 2l1-1h3c6.534 0 1 7.728 1 10Z"/><path fill="#FCB3D7" id="LRNm" d="m191 267-1 1c0 3.985-7 5.559-7-2l1-1h6l1 2ZM266 266v1c0 4.256 7 8.01 7-2-1.416 0-7-2.896-7 1Z"/><path fill="#FCB2D9" id="PGRNl" d="m261 277 10.5 12c5.174 2.587 8.817-4 12.5-4l6.5-12 4.5 2c1.473 0 1-1.952 1-3l-7-7h-2l-1 1-1 1c0 3.467-4 2.435-4-1l-1-1h-7c0 10.01-7 6.256-7 2h-3c-7.582 0-2 6.505-2 10Z"/><path fill="#FF9BCD" id="MY" d="M281 265h2v-1l-2 1ZM287 265h2l-1-1-1 1ZM319 264l-1 1 1-1ZM330 264l-1 1 1-1ZM139 265l3 3c-1.658 0-3-1.461-3-3Z"/><path fill="#FEB3D8" id="AMBv" d="M171 266c0 4.532 5 3.571 5 0l-3-1-2 1Z"/><path fill="#FF9BCD" id="MY" d="m184 265-1 1v-1h1ZM191 267h3l-1-2h-3l1 2Z"/><path fill="#FEB0D8" id="GRN" d="m221 265-2 4c2.109 0 2-2.535 2-4Z"/><path fill="#FF9BCD" id="MY" d="M263 267h3v-1l-3-1v2ZM281 265v1l-1-1h1Z"/><path fill="#FEB3D8" id="AMBv" d="M285 266v1c0 3.467-4 2.435-4-1v-1h2l2 1Z"/><path fill="#FF9BCD" id="MY" d="m318 265-1 1 1-1ZM286 266l-1 1v-1h1ZM317 266l-1 1 1-1ZM329 266l-1 1 1-1ZM191 267l-1 1 1-1ZM229 277l-2 1c0-1.949.991-8-2-8l2-3c0 2.177-.641 4 2 4v6ZM315 267l-1 1 1-1ZM328 267l-1 2 1-2ZM143 268l1 1-1-1ZM231 270l-2 1 1-3 1 2ZM314 268l-1 1 1-1ZM161 277c-3.495 0-10-5.582-10 2-1.238 0-5-1.923-5-3v-1h2.5l2.5-2.5-6-3.5h4c0 5.542 8.512 4 11 4l1 2v2Z"/><path fill="#FEB0D8" id="GRN" d="M218 270h1v-1l-1 1Z"/><path fill="#FF9BCD" id="MY" d="m311 269-4 2v-2h4ZM327 269c-1.747 0-2 .253-2 2l2-2Z"/><path fill="#FEB0D8" id="GRN" d="m218 270-1 1 1-1Z"/><path fill="#FF9BCD" id="MY" d="m205 295-2 4.5c1.189 2.379 11.929-.5 14-.5 0 2.356-14.219 3.141-16.5 2-3.274-1.637-7.861-.431-11-2-7.877-3.938-17.029-5.014-25-9-1.555-.777-10.5-3.414-10.5-5h2l3 1c0 .538 12.548 6.024 14.5 7 .948.474 4.5 1.221 4.5-.5 0-3.379-13-4.011-13-7.5 1.846 0 8 4.777 8 1 3.608 0 7.066 5.217 11.5 3l10.5-12c1.521 0 10 2.891 10-1l6-1 1-1 2-1 1-1 2-1 1-1h1c0 3.669-.698 4 2 4 0 3.097-5.806.653-10.5 3L195 288.5c-1.005 1.005-9.362 3.276-8 6 1.472 2.944 7.601-2.799 8-2v4c2.532 5.064 7.751-1.5 10-1.5ZM225 270l-1 1 1-1Z"/><path fill="#FFB3D8" id="IO" fill-rule="evenodd" d="M195 291c0 1.93 1.93 0 0 0m1-1c0 1.93 1.93 0 0 0m1-1c0 1.93 1.93 0 0 0m10-1c0 1.93 1.93 0 0 0m-8 0c0 1.93 1.93 0 0 0m9-1c0 1.93 1.93 0 0 0m-8 0c0 1.93 1.93 0 0 0m15-1c0 1.93 1.93 0 0 0m-13 0c0 1.93 1.93 0 0 0m14-1c0 1.93 1.93 0 0 0m-6 0c0 4.42 1.206 0 0 0m-7 0c0 1.93 1.93 0 0 0m14-1c0 1.93 1.93 0 0 0m-5 0c0 1.93 1.93 0 0 0m-7 0c0 1.93 1.93 0 0 0m8-1c0 1.93 1.93 0 0 0m-7 0c0 1.93 1.93 0 0 0m2-1c0 1.93 1.93 0 0 0m1-1c0 1.93 1.93 0 0 0m9-3c0 1.93 1.93 0 0 0m-11 15c-2.409 0-1.055-1.277-2.5-2l-3.5 3.5c1.354 2.708 4-4.339 4 .5-2.249 0-7.468 6.564-10 1.5v-4c-.399-.799-6.528 4.944-8 2-1.362-2.724 6.995-4.995 8-6l15.5-11.5c4.694-2.347 10.5.097 10.5-3l1-1 2-2 1-1c2.991 0 2 6.051 2 8-2.846 0-1.203 5 0 5v1l-1 1c-.879 0-5.809 4.154-7.5 5-3.553 1.777-3.836-2.918-4-3l-4.5 3-1 1c-5.552 0-2-3.552-2 2ZM257 288c0 5.613 5.613 0 0 0m-4-2c0 3.368 5.746 0 0 0m-10-2 10 10.5 2.5.5-2.5-3.5c-2.395-2.395-6.67-7.5-10-7.5m6-1c0 3.368 5.746 0 0 0m-8-1c0 1.93 1.93 0 0 0m5-1c0 3.781 3.781 0 0 0m1 10h1l7.5 7c2.105 1.052 5.549-.599 6.5-2.5l-.5-3.5c1 0 10.712 6.925 7.5.5-.501-1.001-25.649-16.075-28.5-17.5-3.802-1.901-2.536 4-3 4l-2.5-5-4-4-2 1v7c1.348 0 3.216 3 1 3v4c4.067 0 5.933 7.284 12.5 4l-4-5c1.712 0 8.5 5.805 8.5 7Z"/><path fill="#FF9BCD" id="MY" d="M281 294c0 2.966-11.395 2.948-13.5 4-15.93 7.965-26.647 1.177-39-5-.559-.279-8.557 6-11.5 6l5-5.5c0-2.805-10.315-3.5-12-3.5l4.5-3c.164.082.447 4.777 4 3 1.691-.846 6.621-5 7.5-5 0 6.029 4 5.592 4 0 4.067 0 5.933 7.284 12.5 4l-4-5c1.712 0 8.5 5.805 8.5 7-2.448 0-1.851-1.324-4.5 0l-7 1c-2.469 1.234 1.678 4.678 2.5 5.5 1.24 1.24 13.728 4.544 15 2 1.235-2.471-5-5.509-5-8.5l7.5 7c2.105 1.052 5.549-.599 6.5-2.5l-.5-3.5c1 0 10.712 6.925 7.5.5-.501-1.001-25.649-16.075-28.5-17.5-3.802-1.901-2.536 4-3 4l-2.5-5c4.269 0 2-.617 2-4h2l1 1 2 2h1l1 1 7 2c0 3.891 8.479 1 10 1l10.5 12c5.174 2.587 8.817-4 12.5-4 0 2.003-.293 3 2 3 0 .82-13.03 6-5 6Z"/><path fill="#FEB0D8" id="GRN" d="m217 271-2 1 2-1ZM240 271l2 2-2-2Z"/><path fill="#FF9BCD" id="MY" d="M296 277c3.184 0 10-5.667 10 2l5-3v-1c-7.962 0-4-.215-4-4l-6.5 3-4.5-2c0 1.048.473 3-1 3l1 2ZM323 272v1c1.747 0 2-.253 2-2l-2 1Z"/><path fill="#C9CACA" id="sctd" d="M154 285h2c0-2.572-5-2.494-5-6-1.238 0-5-1.923-5-3-.97 0-12-6.685-12-3l1 2h1l2 2h1l1 1 1 1h1l2 2h1l8 4h1Z"/><path fill="#FEB0D8" id="GRN" d="m215 272-1 1 1-1Z"/><path fill="#C9CACA" id="sctd" d="M303 285h1l1-1 2-1h1l1-1h1l1-1h1l1-1 2-1 2-1 1-1 2-1 1-1 1-1 1-1v-1l-8 1-4 3-5 3-5 6h2Z"/><path fill="#C8C8CB" id="rust" d="M165 285c1.846 0 8 4.777 8 1l-2-2.5c-.741-1.482-2.669-9.584-4.5-10.5l-5.5 2v2c0 2.666 3 4.031 3 8h1Z"/><path fill="#FF9BCD" id="MY" d="m222 273-1 1 1-1Z"/><path fill="#FEB0D8" id="GRN" d="m243 273 1 1-1-1Z"/><path fill="#C8C8CB" id="rust" d="m288 287-2 1c-2.293 0-2-.997-2-3l6.5-12 4.5 2 1 2c0 1.495-3 4.137-3 8h-2l-1 1-2 1Z"/><path fill="#C9C9C8" id="icp" d="M311 275v1l4-3-4 2Z"/><path fill="#FF9BCD" id="MY" d="m323 273-1 1 1-1Z"/><path fill="#FEB0D8" id="GRN" d="m212 274-1 1 1-1Z"/><path fill="#FF9BCD" id="MY" d="m322 274-1 1 1-1ZM136 275l2 2-2-2Z"/><path fill="#FEB0D9" id="LRNp" d="m164 285-5 1-3-1c0-2.572-5-2.494-5-6 0-7.582 6.505-2 10-2 0 2.666 3 4.031 3 8ZM301 285l-4 1-4-1c0-3.863 3-6.505 3-8 3.184 0 10-5.667 10 2l-5 6Z"/><path fill="#FF9BCD" id="MY" d="m321 275-1 1 1-1Z"/><path fill="#C9C9C8" id="icp" d="m139 277 1 1-1-1Z"/><path fill="#FFC6E2" id="RPA" d="M226 285c0 6.029 4 5.592 4 0v-4l-1-3v-1l-2 1v6l-1 1Z"/><path fill="#FF9BCD" id="MY" d="m318 277-1 1 1-1ZM140 278l1 1-1-1ZM218 278c0 1.93 1.93 0 0 0ZM227 278c-2.846 0-1.203 5 0 5v-5ZM229 278c1.348 0 3.216 3 1 3l-1-3ZM317 278l-2 1 2-1ZM142 279l2 2-2-2ZM315 279l-2 1 2-1ZM313 280l-1 1 1-1ZM145 281l8 4-8-4ZM209 281c0 1.93 1.93 0 0 0ZM246 281c0 3.781 3.781 0 0 0ZM311 281l-1 1 1-1ZM208 282c0 1.93 1.93 0 0 0ZM241 282c0 1.93 1.93 0 0 0ZM309 282l-1 1 1-1ZM206 283c0 1.93 1.93 0 0 0ZM213 283c0 1.93 1.93 0 0 0ZM249 283c0 3.368 5.746 0 0 0ZM307 283l-2 1 2-1ZM205 284c0 1.93 1.93 0 0 0ZM212 284c0 1.93 1.93 0 0 0ZM217 284c0 1.93 1.93 0 0 0ZM227 284l-1 1 1-1ZM243 284l10 10.5 2.5.5-2.5-3.5c-2.395-2.395-6.67-7.5-10-7.5ZM305 284l-1 1 1-1Z"/><path fill="#CBC7CC" id="sctv" d="M165 285c0 3.489 13 4.121 13 7.5 0 1.721-3.552.974-4.5.5-1.952-.976-14.5-6.462-14.5-7l5-1h1Z"/><path fill="#FF9BCD" id="MY" d="M203 285c0 1.93 1.93 0 0 0ZM210 285c0 4.42 1.206 0 0 0ZM216 285c0 1.93 1.93 0 0 0ZM291 285l-1 1 1-1Z"/><path fill="#CBC7CC" id="sctv" d="M284 293c-1.048 0-3-.473-3 1-8.03 0 5-5.18 5-6l2-1 2-1 1-1h2l4 1v1l-4 2-4 2c-1.424 0-5 .362-5 2Z"/><path fill="#FF9BCD" id="MY" d="M297 286v1c1.357 0 6-.647 6-2h-2l-4 1ZM202 286c0 1.93 1.93 0 0 0ZM215 286c0 1.93 1.93 0 0 0ZM253 286c0 3.368 5.746 0 0 0ZM290 286l-2 1 2-1ZM200 287c0 1.93 1.93 0 0 0ZM208 287c0 1.93 1.93 0 0 0ZM288 287l-2 1 2-1ZM297 287l-4 2c1.465 0 4 .109 4-2ZM199 288c0 1.93 1.93 0 0 0ZM207 288c0 1.93 1.93 0 0 0ZM257 288c0 5.613 5.613 0 0 0ZM197 289c0 1.93 1.93 0 0 0ZM209 291c-5.552 0-2-3.552-2 2l2-2ZM293 289l-4 2c1.465 0 4 .109 4-2ZM196 290c0 1.93 1.93 0 0 0ZM210 290l-1 1 1-1Z"/><path fill="#C7C9C9" id="py" d="m205 295-2 4.5c1.189 2.379 11.929-.5 14-.5l5-5.5c0-2.805-10.315-3.5-12-3.5l-1 1-2 2-2 2ZM247 291h1c0 2.991 6.235 6.029 5 8.5-1.272 2.544-13.76-.76-15-2-.822-.822-4.969-4.266-2.5-5.5l7-1c2.649-1.324 2.052 0 4.5 0Z"/><path fill="#FF9BCD" id="MY" d="M195 291c0 1.93 1.93 0 0 0ZM207 293c-2.409 0-1.055-1.277-2.5-2l-3.5 3.5c1.354 2.708 4-4.339 4 .5l2-2ZM289 291c-1.424 0-5 .362-5 2 1.424 0 5-.362 5-2ZM284 293c-1.048 0-3-.473-3 1 1.048 0 3 .473 3-1Z"/></svg>