<svg xmlns="http://www.w3.org/2000/svg" viewBox="0 0 456 320"><path fill="#098589" id="VISp1" d="M87 71h1c0-3.594 9.716-8.216 12-10.5 13.101-13.1 29.062-17.78 44.5-25.5 3.695-1.848 22.5-1.757 22.5 3h1c1.847 0 4-4.974 4-7l-3.5-2h-18l-24 8c-7.613 3.806-14.316 9.158-22 13C100.029 52.236 85 62.558 85 67l2 4ZM372 67l-3 4-12.5-11-12-9c-8.378-4.189-16.673-8.837-25-13-3.088-1.544-30.5-8.315-30.5 0-2.285 0-5-5.296-5-7 5.397 0 16.19-5.155 22.5-2 8.777 4.389 19.192 5.596 28 10 7.368 3.684 14.331 10.666 21 14 2.559 1.28 16.5 12.096 16.5 14Z"/><path fill="#1BA696" id="RSPagl1" d="m181 43-12 5c0-3.553-1-6.716-1-10 1.847 0 4-4.974 4-7 3.847 0 9 8.867 9 12ZM275 43l12 5c0-2.008-.656-9 2-9v-1c-2.285 0-5-5.296-5-7-3.366 0-9 9.41-9 12Z"/><path fill="#0A828C" id="VISp2/3" d="M91 78h1c3.112 0 7.426-7.963 9.5-9 11.175-5.587 20.947-14.473 32-20 5.903-2.952 10.795-5 18-5 1.483 0 6.5.487 6.5 2 2.462 0 9-5.773 9-8 0-4.757-18.805-4.848-22.5-3-15.438 7.72-31.399 12.4-44.5 25.5-2.284 2.284-12 6.906-12 10.5 0 3.622 3 3.47 3 7ZM369 72c-1.617 0-4 4.583-4 6-4.287 0-9.474-9.487-12.5-11-5.677-2.839-10.225-8.112-16-11l-22-11c-2.172-1.086-16.5-1.38-16.5 1-3.466 0-5.378-7-9-7v-1c0-8.315 27.412-1.544 30.5 0 8.327 4.163 16.622 8.811 25 13l12 9L369 71v1Z"/><path fill="#1AA496" id="RSPagl2/3" d="M153 50c2.753 0 3 5.011 3 7 3.092 0 7.954-8 13-8v-1c0-3.553-1-6.716-1-10h-1c0 2.227-6.538 8-9 8-1.947 0-2.636 3-5 3v1ZM303 50c-2.867 0-2 5.149-2 7-2.864 0-8.562-8-14-8v-1c0-2.008-.656-9 2-9 3.622 0 5.534 7 9 7l5 4Z"/><path fill="#1BA598" id="RSPd1" d="m145 81 2 2 8-9.5c4.964-4.964 26-24.64 26-30.5l-12 5v1c0 9.182-24 25.646-24 32Z"/><path fill="#FF7AFD" id="SCzo" d="M282 69h2c0-14.564-32.322-31.589-45.5-25l-9.5 8.5-.5 4.5-3.5-7.5c-1.46-2.92-7.382-4.941-10.5-6.5-5.941-2.97-29.5 5.598-29.5 10 3.451 0 7.468-4.484 10.5-6 14.085-7.042 30.5-.4 30.5 16l1 1h2l1-1c0-33.7 52-13.613 52 6Z"/><path fill="#1BA598" id="RSPd1" d="m311 81-2 2-8-9.5c-4.063-4.063-26-25.545-26-30.5l12 5v1c0 8.784 24 25.026 24 32Z"/><path fill="#0B848B" id="VISp4" d="M95 81h1l14.5-11 7-6c12.406-6.203 20.341-15 35.5-15 2.364 0 3.053-3 5-3 0-1.513-5.017-2-6.5-2-7.205 0-12.097 2.048-18 5-11.053 5.527-20.825 14.413-32 20-2.074 1.037-6.388 9-9.5 9v1c1.238 0 3 .423 3 2ZM360 81h1l4-2v-1c-4.287 0-9.474-9.487-12.5-11-5.677-2.839-10.225-8.112-16-11l-22-11c-2.172-1.086-16.5-1.38-16.5 1l5 4h1c0-2.827 12.305.403 13.5 1 7.969 3.984 14.961 9.98 23 14 3.447 1.724 6.295 6.648 9 8 1.881.94 10.5 5.692 10.5 8Z"/><path fill="#FF78FF" id="SCsg" d="M226 63c-2.611 0-10.997-12.752-20.5-8-3.853 1.926-29.293 14-31.5 14 0-7.201 11-10.933 11-16 3.451 0 7.468-4.484 10.5-6 14.085-7.042 30.5-.4 30.5 16ZM230 63c4.182 0 10.638-12.931 20.5-8 2.93 1.465 30.671 14 31.5 14 0-19.613-52-39.7-52-6Z"/><path fill="#088389" id="VISp5" d="m112 81-2 1c0-2.987-7.508 1-8.5 1L96 81l14.5-11 7-6c12.406-6.203 20.341-15 35.5-15v1c0 .02-20 13.439-20 17h-1l-1 1-2 1c-1.972 0-17 9.92-17 12Z"/><path fill="#1BA697" id="RSPd2/3" d="M140 81h5c0-6.354 24-22.818 24-32-5.046 0-9.908 8-13 8l-1 1c0 7.69-15 19.832-15 23ZM311 81h6c0-1.836-16-16.123-16-23v-1c-2.864 0-8.562-8-14-8 0 8.784 24 25.026 24 32Z"/><path fill="#088389" id="VISp5" d="M346 81c1.464 0 7.531 2.484 8.5 2l5.5-2c0-2.308-8.619-7.06-10.5-8-2.705-1.352-5.553-6.276-9-8-8.039-4.02-15.031-10.016-23-14-1.195-.597-13.5-3.827-13.5-1 1.973 0 19 15.843 19 17l2 1c2.666 0 20 11.012 20 13h1Z"/><path fill="#1CA697" id="RSPagl5" d="M133 67c5.373 0-1 8.764-1 10 3.808 0 14.091-19 23-19l1-1c0-1.989-.247-7-3-7 0 .02-20 13.439-20 17ZM323 67c-4.222 0 2 9.683 2 10-5.765 0-13.831-19-24-19v-1c0-1.851-.867-7 2-7h1c1.973 0 19 15.843 19 17Z"/><path fill="#FF7AFD" id="SCzo" d="M173 69h1c0-7.201 11-10.933 11-16-4.752 0-12 11.001-12 15v1Z"/><path fill="#FD7AFF" id="SCop" d="M173 69h1c2.207 0 27.647-12.074 31.5-14 9.503-4.752 17.889 8 20.5 8l1 1v2c-7.56 0-14.531-11.985-24.5-7-3.103 1.552-29.456 14-30.5 14l1-4ZM284 69c0 1.137 2.091 4 0 4l-6.5-4c-7.735-3.867-16.328-6.164-24-10-9.859-4.93-16.898 7-24.5 7v-2l1-1c4.182 0 10.638-12.931 20.5-8 2.93 1.465 30.671 14 31.5 14h2Z"/><path fill="#1AA596" id="RSPd5" d="M140 81c-3.614 0-6.899 4-11 4v-4l1-2 1-1 1-1c3.808 0 14.091-19 23-19 0 7.69-15 19.832-15 23ZM327 81v4l-10-4c0-1.836-16-16.123-16-23 10.169 0 18.235 19 24 19v1l1 1 1 1v1Z"/><path fill="#FF90FF" id="SCig" d="M175 76c10.356 0 33.038-14.231 43.5-9 12.551 6.275 24.823-4.589 34 0 6.459 3.23 22.191 9 29.5 9l2-3-6.5-4c-7.735-3.867-16.328-6.164-24-10-9.859-4.93-16.898 7-24.5 7 0 1.4-2 1.4-2 0-7.56 0-14.531-11.985-24.5-7-3.103 1.552-29.456 14-30.5 14l3 3Z"/><path fill="#09848A" id="VISl1" d="M79 79h1l7-8-2-4c-2.133 0-11 8.409-11 11 1.7 0 5-.7 5 1Z"/><path fill="#08858C" id="VISp6a" d="m132 67-1 1 1-1Z"/><path fill="#1CA597" id="RSPagl6a" d="m129 80-10 1c0-5.081 10-6.344 10-12l2-1 1-1h1c5.373 0-1 8.764-1 10l-1 1-1 1-1 1Z"/><path fill="#FF90FE" id="SCiw" d="m178 93 9.5-6c7.526-3.763 15.413-7.206 23-11 3.839-1.92 13.921 1.46 17 3 2.602 1.3 14.231-5.384 19-3 4.171 2.085 7.784 4.892 12 7 2.464 1.232 19.5 8.184 19.5 10 .187 0 4.34-10.18 5-11.5.978-1.956-1-4.077-1-5.5-7.309 0-23.041-5.77-29.5-9-9.177-4.589-21.449 6.275-34 0-10.462-5.231-33.144 9-43.5 9-1.643 0-1 3.766-1 5 0 4.082 4 7.63 4 12Z"/><path fill="#1CA597" id="RSPagl6a" d="m327 80 11 1-13-13-2-1c-4.222 0 2 9.683 2 10v1l1 1 1 1Z"/><path fill="#09848A" id="VISl1" d="M376 79h2l5-1-11-11-3 4v1l7 7Z"/><path fill="#08858C" id="VISp6a" d="m131 68-2 1 2-1Z"/><path fill="#FF64FF" id="MB" d="M164 140c0-2.322 5.656-7.187 5-8.5l-4.5-.5c-3.834 1.917-9.322.161-13 2-3.204 1.602-.525 6.55-1.5 8.5-2.898 5.796-8.259-.121-11.5 1.5l-1.5 2c-1.614 0-1-3.31-1-4.5 0-4.445 1-9.712 1-13.5 7.755 0 1.193-20 6-20 0 6.659-2.169 13.163 1 19.5 3.313 6.626 18 4.659 18-1.5 1.049 0 8 3.325 8-4l1.5-2c6.687-6.687-1.335-29-5.5-29 0-11.07.561-11.53-8.5-7l-4.5 5c0-2.83 4-4.54 4-7l16-13v1l-1 4 3 3c-1.643 0-1 3.766-1 5 0 4.082 4 7.63 4 12 0 8.744 1.743 14 10 14l3 4c0 4.67-3 8.668-3 13 0 1.235.643 5-1 5 0-2.747-3.689-5.406-6.5-4-4.097 2.048-13.295 15-16.5 15Z"/><path fill="#08858C" id="VISp6a" d="M338 81h7c0-1.988-17.334-13-20-13l13 13ZM112 81h7c0-5.081 10-6.344 10-12-1.972 0-17 9.92-17 12Z"/><path fill="#FF64FF" id="MB" fill-rule="evenodd" d="m295 143-7-11.5 3.5-.5c3.806 1.903 9.326.163 13 2 3.329 1.665.252 6.003 1.5 8.5 2.711 5.422 8.484-.008 11.5 1.5l2.5 5v-22c-7.2 0-2.301-12.102-5-17.5-1.581-3.162-15-26.94-15-27.5l-16-12c0 1.137 2.091 4 0 4l-2 3c0 1.423 1.978 3.544 1 5.5-.66 1.32-4.813 11.5-5 11.5 0 8.765.842 14-10 14 0 2.061-.902 4-3 4l4 16c2.099 0 4.383-3.558 7.5-2 3.163 1.581 15.555 18 18.5 18m-9-23c0 4.598 5.513 6 8 6 3.48 0 7.238 7.631 12.5 5 16.533-8.267 4.05-28.4-1.5-39.5-1.018-2.035-10.277-13.612-12.5-12.5-1.843.921-2.5 9.27-2.5 11-3.288 0-13.838 30-4 30Z"/><path fill="#0A8489" id="VISl2/3" d="M90 79h1v-1c0-3.53-3-3.378-3-7h-1l-7 8h10ZM366 79h10l-7-7c-1.617 0-4 4.583-4 6v1h1Z"/><path fill="#FF8FFF" id="SCdg" d="M188 107c0-4.365 10.759-14.13 14.5-16l9-6h33c5.311 2.655 9.35 5.35 14 10 2.8 2.8 9.5 7.484 9.5 12 10.842 0 10-5.235 10-14 0-1.816-17.036-8.768-19.5-10-4.216-2.108-7.829-4.915-12-7-4.769-2.384-16.398 4.3-19 3-3.079-1.54-13.161-4.92-17-3-7.587 3.794-15.474 7.237-23 11l-9.5 6c0 8.744 1.743 14 10 14Z"/><path fill="#1CA697" id="RSPagl5" d="m132 77-1 1 1-1Z"/><path fill="#0A838A" id="VISpl1" d="m70 82 3 3 6-6c0-1.7-3.3-1-5-1l-4 4Z"/><path fill="#08828B" id="VISl4" d="M91 79h1v-1h-1v1Z"/><path fill="#1CA697" id="RSPagl5" d="m325 78 1 1-1-1Z"/><path fill="#0A838A" id="VISpl1" d="m386 82-3 3c-1.901 0-5-4.332-5-6l5-1 3 4Z"/><path fill="#09848C" id="VISpl2/3" d="m73 87 4 5 13-13H79l-6 6v2Z"/><path fill="#0B858A" id="VISpl4" d="M77 95h1c1.36 0 13.285-14 17-14 0-1.577-1.762-2-3-2h-2L77 92v3Z"/><path fill="#1AA697" id="RSPd6a" d="M129 80v1l1-2-1 1Z"/><path fill="#FE79FE" id="ICe" d="m164 117-2 8c0 6.159-14.687 8.126-18 1.5-3.169-6.337-1-12.841-1-19.5 1.802 0 5-9.131 5-11l1-2c1.577 0 2-1.762 2-3 1.577 0 2-1.762 2-3l4.5-5c9.061-4.53 8.5-4.07 8.5 7 0 8.636-2 17.555-2 27ZM293 118l1 8c3.48 0 7.238 7.631 12.5 5 16.533-8.267 4.05-28.4-1.5-39.5-1.018-2.035-10.277-13.612-12.5-12.5-1.843.921-2.5 9.27-2.5 11 1.714 0 1 5.594 1 7 0 6.461 2 14.36 2 21Z"/><path fill="#0B858A" id="VISpl4" d="M378 95h1l1-3-14-13h-1l-4 2c1.209 0 17 12.499 17 14Z"/><path fill="#09848C" id="VISpl2/3" d="m383 86-3 6-14-13h12c0 1.668 3.099 6 5 6v1Z"/><path fill="#08838C" id="VISpl6a" d="M103 97c-3.997 0-8.336 4-12 4 0-6.234 19-15.467 19-19l2-1h7l10-1v1l-6 7-2 1-2 1c0 .733-6.022 3-7 3-1.403 0-9 2.71-9 4Z"/><path fill="#33B932" id="APr" d="M112 93c0 3.672 3.735 2.97 5 5.5 1.372 2.745 8.915 21.5 11 21.5 1.505 0 3.296-7.092 4-8.5 1.808-3.616 15-27.013 15-28.5l-2-2h-5c-3.614 0-6.899 4-11 4l-6 3-2 1-2 1c0 .733-6.022 3-7 3ZM345 93l-5 4.5-11 23.5c-2.155 0-3.233-6.965-4-8.5-1.823-3.646-16-29.124-16-29.5l2-2h6l10 4 10 5c0 .616 6.93 3 8 3Z"/><path fill="#08838C" id="VISpl6a" d="m353 97 13 4c0-6.782-20-14.945-20-20h-8l-11-1v1c.323 0 10 8.424 10 9 0 .616 6.93 3 8 3l8 4Z"/><path fill="#0B838C" id="VISpl5" d="m91 101-8 4c-3.05 0-5-6.873-5-10 1.36 0 13.285-14 17-14h1l5.5 2c.992 0 8.5-3.987 8.5-1 0 3.533-19 12.766-19 19Z"/><path fill="#1AA697" id="RSPd6a" d="m129 85-6 3 6-7v4Z"/><path fill="#C9C8C8" id="bic" d="M143 107c-4.807 0 1.755 20-6 20 0-16.225 5.411-24.321 12-37.5 1.333-2.665 4.189-8.5 8-8.5 0 2.46-4 4.17-4 7-1.577 0-2 1.762-2 3-1.577 0-2 1.762-2 3l-1 2c-2.567 0-5 8.91-5 11ZM300 81c4.505 0 7.454 8.407 9 11.5 5.647 11.294 11 19.702 11 33.5-7.2 0-2.301-12.102-5-17.5-1.581-3.162-15-26.94-15-27.5Z"/><path fill="#1AA697" id="RSPd6a" d="m327 85 10 5c0-.576-9.677-9-10-9v4Z"/><path fill="#0B838C" id="VISpl5" d="m366 101 8 4c2.02 0 4-7.759 4-10 0-1.501-15.791-14-17-14h-1l-5.5 2c-.969.484-7.036-2-8.5-2 0 5.055 20 13.218 20 20Z"/><path fill="#09818C" id="VISpor1" d="m52 124-6 5c0-14.571 5.174-27.674 15.5-38l8.5-9 3 3v2c-8.138 0-21 28.578-21 37ZM405 125l5 4c0-15.275-4.766-27.266-15-37.5l-9-9.5-3 3v1l7 7.5c7.821 7.821 15 19.477 15 30.5v1Z"/><path fill="#FF8FFE" id="SCdw" d="M191 111c0-5.321 6.177-8.855 8-12.5 7.188-14.376 36.238-14.13 49.5-7.5 6.335 3.167 16.5 12.41 16.5 20 2.098 0 3-1.939 3-4 0-4.516-6.7-9.2-9.5-12-4.65-4.65-8.689-7.345-14-10h-33l-9 6c-3.741 1.87-14.5 11.635-14.5 16l3 4Z"/><path fill="#0A8389" id="VISpor2/3" d="m393 116 12 8c0-11.023-7.179-22.679-15-30.5l-7-7.5-3 6-1 3c0 3.353 13 15.035 13 20l1 1ZM63 117c-4.159 0-7.355 7-11 7 0-8.422 12.862-37 21-37l4 5v3c0 4.092-12 13.684-12 20l-2 2Z"/><path fill="#FC8FFF" id="PAG" d="M241 159h1l1-1c5.019 0 11.11-6.805 15.5-9 .93-.465 4.5-.817 4.5-2-4.206 0-.49-2 2-2l2-1c0-5.574 2-10.673 2-17l-4-16c0-7.59-10.165-16.833-16.5-20-13.262-6.63-42.312-6.876-49.5 7.5-1.823 3.645-8 7.179-8 12.5 0 4.67-3 8.668-3 13 0 1.235.643 5-1 5 0 5.753 3 10.233 3 15l1 1c1.674 0 5.984 2 3 2l19 11 1 1h1c3.391 0 5.353 3 9 3 0-3.951-4.979-28 2-28l-1-5c0-3.785-8.286-8.929-6-13.5.896-1.791 7.196-9.848 8.5-10.5l9.5 9.5c2.709 5.417-5 9.324-5 13.5l-1 1v5c5.611 0 2 22.581 2 28l8-3Z"/><path fill="#1AA697" id="RSPd6a" d="m123 88-2 1 2-1Z"/><path fill="#FF64FF" id="MB" d="M153 88c-1.577 0-2 1.762-2 3 1.577 0 2-1.762 2-3Z"/><path fill="#1AA697" id="RSPd6a" d="m121 89-2 1 2-1Z"/><path fill="#FE79FF" id="ICd" d="M164 117c3.169 0 6-1.425 6 4l1.5-2c6.687-6.687-1.335-29-5.5-29 0 8.636-2 17.555-2 27ZM293 118c-1.884 0-7-3.792-7 2-9.838 0 .712-30 4-30 1.714 0 1 5.594 1 7 0 6.461 2 14.36 2 21Z"/><path fill="#FF64FF" id="MB" d="M151 91c-1.577 0-2 1.762-2 3 1.577 0 2-1.762 2-3Z"/><path fill="#72D568" id="PAR" d="M111 145v20c2.076 0 3.216-7.932 4-9.5 3.741-7.482 13-27.439 13-35.5-2.085 0-9.628-18.755-11-21.5-1.265-2.53-5-1.828-5-5.5-1.403 0-9 2.71-9 4 1.429 0 4 1.288 4 3 3.75 0 5 13.52 5 17l-1 28ZM346 145v15.5c0 1.19.614 4.5-1 4.5-1.612 0-3.243-8.987-4-10.5-4.066-8.131-12-24.332-12-33.5l11-23.5 5-4.5 8 4-4 3c-2.054 0-5 13.189-5 16 0 9.985 2 19.543 2 29Z"/><path fill="#FF64FF" id="MB" d="m149 94-1 2 1-2Z"/><path fill="#0B838A" id="VISpor5" d="m70 113-5 2c0-6.316 12-15.908 12-20h1c0 3.127 1.95 10 5 10l-5 4-1 1-7 3ZM386 113c1.974 0 3.517 2 6 2 0-4.965-13-16.647-13-20h-1c0 2.241-1.98 10-4 10l5 5 7 3Z"/><path fill="#FF64FF" id="MB" d="M148 96c-2.567 0-5 8.91-5 11 1.802 0 5-9.131 5-11Z"/><path fill="#30B724" id="ENTm5" fill-rule="evenodd" d="M79 127c0 4.082-9.528 31.486-4.5 34 2.993 1.497 2.735-4.97 3.5-6.5 1.878-3.757 6.807-27.5 1-27.5m-2-17c0 21.662-14 40.494-14 62 0 6.329 14.331 18.838 19 9.5 8.43-16.861 6.61-38.22 15-55v-5l6-16 4-5.5c0-1.712-2.571-3-4-3-3.997 0-8.336 4-12 4l-8 4-5 4-1 1ZM375 126c0 8.539-.026 18.448 4 26.5.524 1.048-1.181 10.341 2.5 8.5 3.648-1.824-.973-25.446-2.5-28.5-.735-1.47-1.53-6.5-4-6.5m19 45v2c-.939 0-8.086 15.207-16.5 11-7.642-3.821-5.765-16.03-8.5-21.5-5.313-10.626-3.693-24.386-9-35l-1-8c-2.406-4.812-3.615-10.23-6-15l-4-4.5 4-3 13 4 8 4 5 5c0 7.546 8.707 40.913 12 47.5.83 1.66 1.494 13.5 3 13.5Z"/><path fill="#31B723" id="ENTm3" d="M59 182v3l8.5 9c6.24 3.12 12.31 5.345 19 2 4.279-2.139 2.73-10.959 4.5-14.5 1.637-3.274.43-7.861 2-11 5.345-10.69 4.618-24.236 10-35 1.139-2.277 7.398-18.5 9-18.5 0-3.48-1.25-17-5-17l-4 5.5-6 16v5c-8.39 16.78-6.57 38.139-15 55-4.669 9.338-19-3.171-19-9.5h-1c0 1.643-1.484 10-3 10ZM397 183v2c0 6.639-22.99 20.521-30 6.5-1.702-3.405-.322-8.644-2-12-1.637-3.274-.431-7.861-2-11-5.218-10.437-4.748-23.496-10-34-1.122-2.245-7.576-18.5-9-18.5 0-2.811 2.946-16 5-16l4 4.5c2.385 4.77 3.594 10.188 6 15l1 8c5.307 10.614 3.687 24.374 9 35 2.735 5.47.858 17.679 8.5 21.5 8.414 4.207 15.561-11 16.5-11 .586 0 3 8.833 3 10Z"/><path fill="#A9A9A8" id="AQ" d="M225 129h6l1-1c0-4.176 7.709-8.083 5-13.5l-9.5-9.5c-1.304.652-7.604 8.709-8.5 10.5-2.286 4.571 6 9.715 6 13.5Z"/><path fill="#31B824" id="ENTl5" d="m78 109-1 1 1-1ZM62 172h1c0-21.506 14-40.338 14-62l-7 3c0 6.672-2.094 17.689-5 23.5-3.52 7.04-3 26.299-3 35.5ZM386 113c0 4.435 7.109 37.718 9 41.5 2.129 4.259-1 12.572-1 16.5-1.506 0-2.17-11.84-3-13.5-3.293-6.587-12-39.954-12-47.5l7 3Z"/><path fill="#32B725" id="ENTl3" d="M62 172c0 1.643-1.484 10-3 10 0-6.427-7.742-17.017-4-24.5 2.983-5.966 1.573-23.147 4-28 1.285-2.571 4-9.822 4-12.5l2-2 5-2c0 6.672-2.094 17.689-5 23.5-3.52 7.04-3 26.299-3 35.5ZM394 173c.586 0 3 8.833 3 10 1.951 0 .477-2.454 1-3.5 1.918-3.836 3-8.403 3-13 0-6.025-2.302-35.603-4-39-1.189-2.379-4-9.039-4-11.5l-1-1c-2.483 0-4.026-2-6-2 0 4.435 7.109 37.718 9 41.5 2.129 4.259-1 12.572-1 16.5v2Z"/><path fill="#FE7AFE" id="ICc" d="M170 121c0 7.325-6.951 4-8 4l2-8c3.169 0 6-1.425 6 4ZM286 120c0 4.598 5.513 6 8 6l-1-8c-1.884 0-7-3.792-7 2Z"/><path fill="#30B824" id="ENTm2" d="M397 185c1.569 0 3 6.6 3 8 0 9.973-31.08 23.34-37 11.5-7.073-14.146-3.952-32.904-11-47-.91-1.819-4.181-12.5-6-12.5 0-9.457-2-19.015-2-29 1.424 0 7.878 16.255 9 18.5 5.252 10.504 4.782 23.563 10 34 1.569 3.139.363 7.726 2 11 1.678 3.356.298 8.595 2 12 7.01 14.021 30 .139 30-6.5Z"/><path fill="#32B825" id="ENTl2" d="M400 193h1l6-8.5 4-14c3.111-6.223-6-36.426-6-45.5v-1l-12-8c0 2.461 2.811 9.121 4 11.5 1.698 3.397 4 32.975 4 39 0 4.597-1.082 9.164-3 13-.523 1.046.951 3.5-1 3.5v2c1.569 0 3 6.6 3 8ZM59 185l-3 8c-4.026 0-6.735-10.971-8-13.5-8.493-16.987 4-38.659 4-55.5 3.645 0 6.841-7 11-7 0 2.678-2.715 9.929-4 12.5-2.427 4.853-1.017 22.034-4 28-3.742 7.483 4 18.073 4 24.5v3Z"/><path fill="#30B824" id="ENTm2" d="M56 193v1c.642 0 4.264 6.382 5.5 7 6.381 3.191 19.21 12.395 28 8 10.132-5.066 9.426-40.352 14.5-50.5 1.083-2.165 4.223-13.5 7-13.5l1-28c-1.602 0-7.861 16.223-9 18.5-5.382 10.764-4.655 24.31-10 35-1.57 3.139-.363 7.726-2 11-1.77 3.541-.221 12.361-4.5 14.5-6.69 3.345-12.76 1.12-19-2l-8.5-9-3 8Z"/><path fill="#32B722" id="ENTl1" d="m56 194-4 5c-3.829 0-6.505-10.511-8-13.5-4.077-8.154-6.439-31.123-2-40 2.218-4.435 4-11.303 4-16.5l6-5c0 16.841-12.493 38.513-4 55.5 1.265 2.529 3.974 13.5 8 13.5v1Z"/><path fill="#FC90FF" id="CUN" d="M180 152h2l6-3 1-1 1-4c0-4.767-3-9.247-3-15 0-2.747-3.689-5.406-6.5-4-4.097 2.048-13.295 15-16.5 15l-1 1c0 .17-2 7.269-2 11h19ZM274 152h2l17.5 1 2.5-3-1-7c-2.945 0-15.337-16.419-18.5-18-3.117-1.558-5.401 2-7.5 2 0 6.327-2 11.426-2 17 0 4.335 7 6.469 7 8Z"/><path fill="#32B722" id="ENTl1" d="M401 193c0 2.813 3 3.921 3 6 3.767 0 6.708-8.915 8-11.5 5.874-11.748 7.082-31.836 1-44-.851-1.702-1.543-14.5-3-14.5l-5-4c0 9.074 9.111 39.277 6 45.5l-4 14-6 8.5Z"/><path fill="#32B623" id="ENTm6" d="M375 126c0 8.539-.026 18.448 4 26.5.524 1.048-1.181 10.341 2.5 8.5 3.648-1.824-.973-25.446-2.5-28.5-.735-1.47-1.53-6.5-4-6.5ZM79 127c0 4.082-9.528 31.486-4.5 34 2.993 1.497 2.735-4.97 3.5-6.5 1.878-3.757 6.807-27.5 1-27.5Z"/><path fill="#FF64FF" id="MB" d="m232 128-1 1 1-1ZM226 134h5v-5h-6l1 5Z"/><path fill="#C9C9CB" id="ll" d="m137 186 3 4 1-9 1-24 1-2v-1l1-1 1-1 1-1h2c0-1.186 1-1.186 1 0 17.287 0 0 25.243 0 30 1.087 0 2.433 2 5 2l1-2 1-2 1-2 1-5c0-1.235-.643-5 1-5v-3l1-1v-3c0-2.707 1-5.903 1-8 0-3.731 2-10.83 2-11l1-1c0-2.322 5.656-7.187 5-8.5l-4.5-.5c-3.834 1.917-9.322.161-13 2-3.204 1.602-.525 6.55-1.5 8.5-2.898 5.796-8.259-.121-11.5 1.5l-1.5 2v41ZM316 191h1l2-5 1-1v-37l-2.5-5c-3.016-1.508-8.789 3.922-11.5-1.5-1.248-2.497 1.829-6.835-1.5-8.5-3.674-1.837-9.194-.097-13-2l-3.5.5 7 11.5 1 7v12l1 1v3c.913 0 2 5.014 2 6l1 6v1l1 1v1c.853 0 6 4.714 6 0 0-5.249-16.401-30 0-30 0-1.186 1-1.186 1 0h3c2.944 0 4 5.939 4 8v23c0 2.389 1 5.987 1 9Z"/><path fill="#FDA6FF" id="DR" d="M231 167c0 7.705-4.456 1-6 1v-3l-1-3c0-3.951-4.979-28 2-28h5c5.611 0 2 22.581 2 28-1.473 0-1 1.952-1 3l-1 1v1Z"/><path fill="#FF64FF" id="MB" d="m164 140-1 1 1-1ZM191 147l-2 1 1-4 1 1v2ZM274 152l-5 3c0-4.427-4-7.6-4-8v-2l2-1c0 4.335 7 6.469 7 8Z"/><path fill="#31B625" id="ENTm1" d="m56 194-4 5 11.5 11c6.922 3.461 15.06 3.53 22 7 5.206 2.603 11.513-2.526 13.5-6.5 2.467-4.933 12-40.251 12-45.5v-20c-2.777 0-5.917 11.335-7 13.5-5.074 10.148-4.368 45.434-14.5 50.5-8.79 4.395-21.619-4.809-28-8-1.236-.618-4.858-7-5.5-7Z"/><path fill="#C8C9C8" id="IVn" d="M191 147h3c2.984 0-1.326-2-3-2v2ZM263 147h2v-2c-2.49 0-6.206 2-2 2Z"/><path fill="#31B625" id="ENTm1" d="M401 193c0 2.813 3 3.921 3 6l-7.5 8c-3.351 3.351-28.523 12.238-33 10-10.977-5.488-9.9-30.299-14.5-39.5l-4-12.5c1.614 0 1-3.31 1-4.5V145c1.819 0 5.09 10.681 6 12.5 7.048 14.096 3.927 32.854 11 47 5.92 11.84 37-1.527 37-11.5h1Z"/><path fill="#FF64FF" id="MB" d="M137 147c-1.399 0-1.399 2 0 2v-2Z"/><path fill="#FF8FFD" id="MRN" fill-rule="evenodd" d="M213 173c0 2.447-2 3.28-2 6 0 17.803 20.278-6 2-6m1 15c0-.498 5.149 0 7 0 0-5.468 2-11.596 2-18-1.514 0-5-5.537-5-7l-3-4h-1l-1-1-19-11h-3l-2 1-1 1-1 5c0 2.538 3 3.953 3 7 4.383 0 25.567 4.366 23 9.5l-14 .5c0 2.78 4.823 7.338-.5 10-1.61.805-12.5 2.575-12.5 4l1 1h11l1 1h2l13 1ZM239 173l-3 5c0 19.392 19.583-5 3-5m-4 15h8l12-1h3l1-1h11v-1c0-1.425-10.89-3.195-12.5-4-4.6-2.3-.5-7.449-.5-10l-14-.5c-2.573-5.145 19.353-9.5 24-9.5 0-2.518 2-4.286 2-6 0-4.427-4-7.6-4-8h-2c0 1.183-3.57 1.535-4.5 2-4.39 2.195-10.481 9-15.5 9l-1 1h-1c0 1.114-2.034 4-3 4 0 3.613-4 3.899-4 7 0 2.014-2.284 5.932-1 8.5 1.359 2.719 2 6.26 2 9.5Z"/><path fill="#FF64FF" id="MB" d="m189 148-1 1 1-1ZM182 152l5 2 1-5-6 3ZM148 151h1c0-1.186-1-1.186-1 0ZM276 152c0 2.261 6.094.297 7.5 1 2.922 1.461 7.188-.406 10 1l2.5 4v-8l-2.5 3-17.5-1ZM307 151h1c0-1.186-1-1.186-1 0ZM146 151l-1 1 1-1Z"/><path fill="#FFAC6F" id="NLL" d="M141 181c.063 0 8 7.098 8 0 0-4.757 17.287-30 0-30h-3l-1 1-1 1-1 1v1l-1 2-1 24ZM307 181l3.5 3c2.116 1.058 2.898-2 4.5-2v-23l-4-8h-4c-16.401 0 0 24.751 0 30Z"/><path fill="#FF64FF" id="MB" d="M311 151c2.944 0 4 5.939 4 8l-4-8ZM145 152l-1 1 1-1ZM180 152c0 1.643-3.765 1-5 1-2.279 0-5.418 2-7.5 2-1.184 0-3.175-1.913-5-1-2.143 1.072-.721 6-2.5 6 0-2.707 1-5.903 1-8h19Z"/><path fill="#FFA5FD" id="PPN" d="m166 182 9.5 4 10.5-1c0-1.425 10.89-3.195 12.5-4 5.323-2.662.5-7.22.5-10h-9.5c-2.473 1.237-7.498 8.251-12 6-1.073-.537 6.9-4.9 8.5-6.5 1.067-1.067 3.662-9.5 4-9.5 0-3.047-3-4.462-3-7l-5-2h-2c0 1.643-3.765 1-5 1-2.279 0-5.418 2-7.5 2-1.184 0-3.175-1.913-5-1-2.143 1.072-.721 6-2.5 6v3l-1 1v3l1 6 1 3 5 6ZM289 183l-8.5 3-10.5-1c0-1.425-10.89-3.195-12.5-4-4.6-2.3-.5-7.449-.5-10h9.5c1.505.753 4.416 3.708 7 5 .667.334 6.749 1.998 5.5-.5-1.602-3.204-12-2.661-12-14.5 0-2.518 2-4.286 2-6l5-3h2c0 2.261 6.094.297 7.5 1 2.922 1.461 7.188-.406 10 1l2.5 4v4l1 1v9l-2 4-4 5-1 1-1 1Z"/><path fill="#FF64FF" id="MB" d="m144 153-1 1 1-1ZM143 155l-1 2 1-2ZM213 158l1 1-1-1ZM243 158l-1 1 1-1ZM218 163c3.066 0 4.417 2 7 2l-1-3c-3.647 0-5.609-3-9-3l3 4ZM238 163c-2.518 0-4.286 2-6 2 0-1.048-.473-3 1-3l8-3c0 1.114-2.034 4-3 4Z"/><path fill="#CBC9CB" id="scp" d="M190 161c4.383 0 25.567 4.366 23 9.5l-14 .5h-9.5c-2.473 1.237-7.498 8.251-12 6-1.073-.537 6.9-4.9 8.5-6.5 1.067-1.067 3.662-9.5 4-9.5ZM267 161c-4.647 0-26.573 4.355-24 9.5l14 .5h9.5c1.505.753 4.416 3.708 7 5 .667.334 6.749 1.998 5.5-.5-1.602-3.204-12-2.661-12-14.5Z"/><path fill="#FF64FF" id="MB" d="m296 162 1 1-1-1ZM160 163l-1 1 1-1Z"/><path fill="#CBCBCC" id="mlf" d="m225 168-2 2c-1.514 0-5-5.537-5-7 3.066 0 4.417 2 7 2v3ZM231 167l3 3c0-3.101 4-3.387 4-7-2.518 0-4.286 2-6 2l-1 1v1Z"/><path fill="#FF64FF" id="MB" d="m232 165-1 1 1-1ZM297 172h2c0-.986-1.087-6-2-6v6ZM158 172l2 1-1-6c-1.643 0-1 3.765-1 5ZM227 189l1 1c2.16 0 4.167-2 7-2 0-3.24-.641-6.781-2-9.5-1.284-2.568 1-6.486 1-8.5l-3-3c0 7.705-4.456 1-6 1l-2 2c0 6.404-2 12.532-2 18 2.124 0 4.436 1 6 1Z"/><path fill="#FF9B88" id="P" d="m161 176-4 1 1-5 2 1 1 3ZM295 176c2.25 0 3.376 2 5 2l-1-6h-2l-2 4Z"/><path fill="#FC90FE" id="VTN" d="M213 173c0 2.447-2 3.28-2 6 0 17.803 20.278-6 2-6ZM239 173l-3 5c0 19.392 19.583-5 3-5Z"/><path fill="#FFAD6D" id="PB" d="M155 193h3l1-1 5-1 4-4.5c1.058-2.116-2-2.898-2-4.5l-5-6-4 1-1 2-1 2-1 2c0 4.871-8.791 10 1 10ZM298 193h3c11.181 0 0-7.278 0-12v-1l-1-1v-1c-1.624 0-2.75-2-5-2l-4 5-1 1-1 1c0 4.427 4 7.6 4 8l4 1 1 1Z"/><path fill="#FF9B88" id="P" d="m157 177-1 2 1-2ZM156 179l-1 2 1-2ZM300 179l1 1-1-1Z"/><path fill="#FF9B88" id="P" fill-rule="evenodd" d="m146 187-3 4.5c-.597 1.194 1.229 4.5 2.5 4.5 2.036 0 6.492-9 .5-9m15 55c8.927 0 .976 5 5 5 0-4.98.465-6 4-6l3-6 1-4c-5.742 0-13 4.803-13-5-8.25 0-6-8.84-6-14-2.564 0-2.564-2 0-2v-4c-6.006 0-6.292-5.916-4-10.5l3.5-1.5.5-1c-9.791 0-1-5.129-1-10-2.567 0-3.913-2-5-2 0 7.098-7.937 0-8 0l-1 9v1c0 2.014 2.284 5.932 1 8.5-2.575 5.149-12 17.412-12 22.5v1c3.858 0 7.786 9.071 9 11.5.523 1.046-.951 3.5 1 3.5 0-5.046-.879-11.258-3-15.5-2.388-4.776 5.37-21.565 9.5-19.5 3.261 1.63 7.193 22.886 9.5 27.5.813 1.625-.67 8.5 2 8.5l2.5-3c2.167-1.084 1.5 4.918 1.5 6Z"/><path fill="#FF9B88" id="P" d="m155 181-1 2 1-2ZM291 181l-1 1 1-1Z"/><path fill="#FF9B88" id="P" fill-rule="evenodd" d="M302 210c0 3.746 2.091 0 0 0m6-23c0 2.262-1.198 1.105 0 3.5l1 4c2.399 4.798 7.685-7.5-1-7.5m-24 98c6.903 0-2 2.46-2 4 2.366 0 11-3.179 11-6h-2c-2.488 0-1.919-2 0-2 3.677 0 12-22.585 12-9l6.5-7c7.247-3.623 27.5-15.282 27.5-25-4.029 0-4-9.724-4-13h-1c0 9.416-3.157 14.815-7 22.5-3.254 6.509-20.099 12.802-24 5l3-3.5c-5.425 0-4-9.112-4-13 0-3.761 8.894-33.697 11.5-35 2.983-1.492 11.441 14.617 9.5 18.5-2.186 4.371-3 9.218-3 14.5l3-6.5 6-6.5v-3c0-2.264-10.274-19.047-12-22.5-.978-1.956 1-4.077 1-5.5v-1c0-3.013-1-6.611-1-9-1.602 0-2.384 3.058-4.5 2l-3.5-3c0 4.714-5.147 0-6 0 0 4.722 11.181 12 0 12l5 3.5c1.919 3.838 1.072 9.5-4 9.5 0 5.068 2.041 20-6 20 0 9.666-8.811 5-14 5l1 4c0 2.232 3 4.029 3 7l2.5-2c2.58 1.29.391 9 2.5 9 0-3.596.106-8 4-8 0-11.93 7.36 3.07 3.5 5l-2.5-1c0 1.167 6.112 20.194 2.5 22-2.377 1.189-2.116-2-3.5-2 0 3.489-1.498 8.496-3 11.5l-3 2.5-2 4c3.479 0 0 3.479 0 0-1.238 0-3 .423-3 2Z"/><path fill="#FF9B88" id="P" d="M164 191h13l10-5-1-1-10.5 1-9.5-4c0 1.602 3.058 2.384 2 4.5l-4 4.5ZM290 182l-1 1 1-1ZM279 191h14c0-.4-4-3.573-4-8l-8.5 3-10.5-1v1l9 5Z"/><path fill="#F0F080" id="CB" d="M140 190v1c-1.928 0-8.096-2-13-2 0-6.764 7.628-3 10-3l3 4ZM331 190c-2.824 0-8.268-2.616-11.5-1l-2.5 2 2-5 1-1c2.756 0 11 .189 11 5Z"/><path fill="#FFC295" id="PRNr" d="M215 229c-12.652 0-26.699 1-40 1 0-2.654.888-5.275 2-7.5V191l10-5h11l1 1h2l10 8.5c2.041 4.081 1 6.548 1 10.5-6.872 0 3 12.421 3 14v9Z"/><path fill="#FF9B88" id="P" d="m198 186 1 1-1-1ZM259 186l-1 1 1-1Z"/><path fill="#FFC295" id="PRNr" d="M242 229c12.597 0 26.738 1 40 1l-3-10.5c-2.008-4.016 1-11.887 1-15.5v-2c0-3.806-1-7.751-1-11l-9-5h-11l-1 1h-3l-8 6.5c-2.25 4.501-3 6.957-3 12.5 8.775 0-3 12.105-3 14 0 1.593-2.063 9 1 9Z"/><path fill="#CBC7CC" id="sctv" d="m146 187-3 4.5c-.597 1.194 1.229 4.5 2.5 4.5 2.036 0 6.492-9 .5-9Z"/><path fill="#FF9B88" id="P" d="m212 206 3 2c0-6.958-1-13.413-1-20l-13-1 10 8.5c2.041 4.081 1 6.548 1 10.5Z"/><path fill="#FFC393" id="CS" fill-rule="evenodd" d="M229 193c0 1.259-.15 7 1.5 7 2.569 0 2.221-7-1.5-7m-4 0-1 3c0 11.084 6.405-3 1-3m14 25c-1.931 0-5.254 6.623-8.5 5-1.716-.858-1.312-10-2-10-2.2 0-.577 9.288-2 10-2.37 1.185-7.353-4-8.5-4 0-4.423-3-7.39-3-11 0-6.958-1-13.413-1-20 0-.498 5.149 0 7 0 2.124 0 4.436 1 6 1l1 1c2.16 0 4.167-2 7-2h8c0 7.413-2 14.453-2 21 0 2.846-2 5.382-2 9Z"/><path fill="#FF9B88" id="P" d="m244 206-3 3c0-6.547 2-13.587 2-21l12-1-8 6.5c-2.25 4.501-3 6.957-3 12.5Z"/><path fill="#CBC7CC" id="sctv" d="M308 187c0 2.262-1.198 1.105 0 3.5l1 4c2.399 4.798 7.685-7.5-1-7.5Z"/><path fill="#F0F080" id="CB" d="m127 189-1 1 1-1Z"/><path fill="#CCCCCA" id="mcp" d="M123 193c0 3.983 2.865 29 6 29 0-5.088 9.425-17.351 12-22.5 1.284-2.568-1-6.486-1-8.5-1.928 0-8.096-2-13-2l-1 1-2 1-1 2Z"/><path fill="#FF9B88" id="P" d="m227 189 1 1-1-1Z"/><path fill="#CCCCCA" id="mcp" d="M316 192c0 1.423-1.978 3.544-1 5.5 1.726 3.453 12 20.236 12 22.5l1.5 2c1.378 0 2.5-6.132 2.5-7 0-8.588 1-16.368 1-24l-1-1c-2.824 0-8.268-2.616-11.5-1l-2.5 2-1 1Z"/><path fill="#FEBA86" id="SUT" d="M163 205h1c3.843 0 7.451-2 12-2l1-1v-11h-13l-5 1-1 1h-3l-.5 1-3.5 1.5c-2.292 4.584-2.006 10.5 4 10.5 0-1.735 6.51-1 8-1ZM293 205c3.013 0 6.611 1 9 1 5.072 0 5.919-5.662 4-9.5l-5-3.5h-3l-1-1-4-1h-14c0 3.249 1 7.194 1 11l1 1c4.078 0 7.622 2 11 2h1Z"/><path fill="#F0F080" id="CB" d="m124 191-1 2 1-2ZM317 191l-1 1v-1h1ZM332 227h1l2-4c0-1.93 1.161 0 2 0l-2-5.5c0-3.883 5.431-26.5-3-26.5 0 7.632-1 15.412-1 24 0 .868-1.122 7-2.5 7l-1.5-2v3c3.41 0 5 .234 5 4Z"/><path fill="#FF9B88" id="P" d="m159 192-1 1 1-1ZM297 192l1 1-1-1Z"/><path fill="#F0F080" id="CB" d="M123 227h2c0-3.744.256-4 4-4v-1c-3.135 0-6-25.017-6-29-5.066 0-3 24.329-3 29 1.803 0 3 3.592 3 5Z"/><path fill="#FFC294" id="RPO" d="m225 193-1 3c0 11.084 6.405-3 1-3ZM229 193c0 1.259-.15 7 1.5 7 2.569 0 2.221-7-1.5-7Z"/><path fill="#FF9B88" id="P" d="m176 203 1 1v-2l-1 1ZM281 203l-1 1v-2l1 1Z"/><path fill="#FFAE6F" id="PSV" d="M145 249c2.583 0 3.934 2 7 2 3.989 0 3.123-5 5-5v-7c-2.67 0-1.187-6.875-2-8.5-2.307-4.614-6.239-25.87-9.5-27.5-4.13-2.065-11.888 14.724-9.5 19.5 2.121 4.242 3 10.454 3 15.5v3l6 8Z"/><path fill="#FEB886" id="P5" d="m175 230-1 1c-5.742 0-13 4.803-13-5 9.657 0 3-15.364 3-20v-1c3.843 0 7.451-2 12-2l1 1v18.5c-1.112 2.225-2 4.846-2 7.5ZM282 230v1c5.189 0 14 4.666 14-5-11.736 0-3-15.217-3-20l-1-1c-3.378 0-6.922-2-11-2l-1 1c0 3.613-3.008 11.484-1 15.5l3 10.5Z"/><path fill="#FFAE6F" id="PSV" d="M304 251h4l1-1 1-1h1l1-1 1-1h1l1-2 1-1 1-2v-2c0-1.048-.473-3 1-3v-1c0-5.282.814-10.129 3-14.5 1.941-3.883-6.517-19.992-9.5-18.5-2.606 1.303-11.5 31.239-11.5 35 0 3.888-1.425 13 4 13Z"/><path fill="#FEB986" id="V" d="M155 212c0 5.16-2.25 14 6 14 9.657 0 3-15.364 3-20l-1-1c-1.49 0-8-.735-8 1v6Z"/><path fill="#FF9B88" id="P" d="M164 205v1l-1-1h1ZM293 205v1l-1-1h1Z"/><path fill="#FEB986" id="V" d="M302 206c0 5.068 2.041 20-6 20-11.736 0-3-15.217-3-20v-1c3.013 0 6.611 1 9 1Z"/><path fill="#C8C8CC" id="tspc" d="m218 219-3 1c0-1.579-9.872-14-3-14l3 2c0 3.61 3 6.577 3 11ZM239 218c0 1.747.253 2 2 2 0-1.895 11.775-14 3-14l-3 3c0 2.846-2 5.382-2 9Z"/><path fill="#FDB986" id="PC5" d="M155 210c-2.564 0-2.564 2 0 2v-2ZM302 210c0 3.746 2.091 0 0 0Z"/><path fill="#FF9B88" id="P" d="M231 256h3c0-3.505-3.051-4.397-1-8.5 1.452-2.904 9-3.547 9-6.5-12.918 0-8.18-7 2-7l-2-5c-3.063 0-1-7.407-1-9-1.747 0-2-.253-2-2-1.931 0-5.254 6.623-8.5 5-1.716-.858-1.312-10-2-10-2.2 0-.577 9.288-2 10-2.37 1.185-7.353-4-8.5-4l-3 1v9c0 1.624-2 2.75-2 5 10.115 0 13.293 7 2 7 0 3.058 7.004 3.508 8 5.5 1.819 3.639 0 5.981 0 9.5h2c0-2.662-1.659-20.08 4.5-17 3.245 1.622 1.5 13.642 1.5 17Z"/><path fill="#FF9BCD" id="MY" d="M119 237v2c4.874 0 4-6.739 4-12 0-1.408-1.197-5-3-5v1c3.561 0 1.224 14-1 14Z"/><path fill="#FEA4D2" id="VCO" d="M337 223c0 1.555 4.95 14 0 14l-2-3.5V223c0-1.93 1.161 0 2 0Z"/><path fill="#FF9BCD" id="MY" d="m120 223-1 1 1-1Z"/><path fill="#FEA4D2" id="VCO" d="M119 224c0 1.354-2.752 13 0 13 2.224 0 4.561-14 1-14l-1 1Z"/><path fill="#CACACB" id="sV" d="M145 249c2.583 0 3.934 2 7 2 0 1.575 4.801.898 3 4.5-2.954 5.907-12.141 1.18-15.5-.5-10.327-5.164-14.5-15.691-14.5-28 0-3.744.256-4 4-4 3.858 0 7.786 9.071 9 11.5.523 1.046-.951 3.5 1 3.5v3c0 2.07 3.396 8 6 8ZM304 251h4l1-1 1-1h1l1-1 1-1h1l1-2 1-1 1-2v-2c1.473 0 1-1.952 1-3v-1l3-6.5 6-6.5c3.41 0 5 .234 5 4 0 9.416-3.157 14.815-7 22.5-3.254 6.509-20.099 12.802-24 5l3-3.5Z"/><path fill="#FF9BCD" id="MY" d="M337 237v3c-4.029 0-4-9.724-4-13l2-4v10.5l2 3.5Z"/><path fill="#FF9B88" id="P" d="m166 283 9 6c-6.743 0-11.76-5.26-16.5-10l-14-16-7-2c-5.486-2.743-18.5-16.814-18.5-22 4.874 0 4-6.739 4-12h2c0 12.309 4.173 22.836 14.5 28 3.359 1.68 12.546 6.407 15.5.5 1.801-3.602-3-2.925-3-4.5 3.989 0 3.123-5 5-5l3-1c0 2.854-1.822 4.145-3 6.5V262c0 1.846.181 6.66 3.5 5 1.616-.808-.846-5 1.5-5l1 12.5 5 4.5c-2.239 0 5.529 7 8 7h11.5c1.586-.793 7.094-5 8.5-5v3c-5.49 0-14.671 6.414-21.5 3-2.781-1.391-7.103-6-9.5-6-3.501 0-5.585-9.085-7.5-11l-3-3c-5.379 2.69 7.658 16 11.5 16Z"/><path fill="#FDBA86" id="PRNc" d="M212 264c-5.22 0-11.211 1-17 1l-2-1c0-2.715-9.58-5-12-5l-1-1h-1c0-2.346 4.192.116 5-1.5 1.649-3.298-6.32-21.5-11-21.5l1-4 1-1c13.301 0 27.348-1 40-1 0 1.624-2 2.75-2 5-3.974 0-1.675 7 2 7 0 3.058 7.004 3.508 8 5.5 1.819 3.639 0 5.981 0 9.5l-1 1c-1.294 0-7 3.609-7 5l-1 1-2 1ZM261 265h2c0-3.641 11.297-7 14-7 0-2.346-4.192.116-5-1.5-.951-1.901 6.222-21.5 11-21.5l-1-4v-1c-13.262 0-27.403-1-40-1l2 5c2.355 0 .846 7-2 7 0 2.953-7.548 3.596-9 6.5-2.051 4.103 1 4.995 1 8.5l7 6 2 1 2 1c4.925 0 10.521 1 16 1Z"/><path fill="#FF9B88" id="P" d="m175 230-1 1 1-1Z"/><path fill="#FEBA85" id="TRN" d="M213 234c10.115 0 13.293 7 2 7-3.675 0-5.974-7-2-7ZM244 234c2.355 0 .846 7-2 7-12.918 0-8.18-7 2-7Z"/><path fill="#C9C9CB" id="ll" d="M178 258h1c0-2.346 4.192.116 5-1.5 1.649-3.298-6.32-21.5-11-21.5l-3 6c0 3.313-.409 17 4 17h4ZM279 258h3c3.348 0 3-4.824 3-7l1-1v-8c0-2.971-3-4.768-3-7-4.778 0-11.951 19.599-11 21.5.808 1.616 5-.846 5 1.5h2Z"/><path fill="#FDB986" id="PC5" d="m160 245-3 1v-7l2.5-3c2.167-1.084 1.5 4.918 1.5 6v2l-1 1ZM295 241l1 4 2.5 1c3.86-1.93-3.5-16.93-3.5-5Z"/><path fill="#FF9B88" id="P" d="M318 237c-1.473 0-1 1.952-1 3 1.473 0 1-1.952 1-3Z"/><path fill="#FFC5E2" id="RM" d="M231 260c-1.49 0-2.587 1-5 1v-3l-1-1v-1c0-2.662-1.659-20.08 4.5-17 3.245 1.622 1.5 13.642 1.5 17v4Z"/><path fill="#FEAE6E" id="SOCl" d="M176 266c0 8.947 2.368 13-8 13l-5-4.5-1-12.5v-2l1-1v-3l1-1 1-1 1-7c0-4.98.465-6 4-6 0 3.313-.409 17 4 17 0 2.522 2 4.909 2 8ZM280 266c0 8.478-.288 13 9 13l3-2.5c1.502-3.004 3-8.011 3-11.5v-2l-1-2v-3l-1-1c0-2.709-2-4.646-2-8-2.109 0 .08-7.71-2.5-9l-2.5 2v8l-1 1c0 2.176.348 7-3 7l-1 2v1l-1 5Z"/><path fill="#FF9B88" id="P" d="m139 241 6 8c-2.604 0-6-5.93-6-8Z"/><path fill="#C8C8CB" id="rust" d="M162 260v2c-2.346 0 .116 4.192-1.5 5-3.319 1.66-3.5-3.154-3.5-5v-10.5c1.178-2.355 3-3.646 3-6.5l1-1v-2c8.927 0 .976 5 5 5l-1 7-1 1-1 1v3l-1 1ZM295 263v2c1.384 0 1.123 3.189 3.5 2 3.612-1.806-2.5-20.833-2.5-22l-1-4c-3.894 0-4 4.404-4 8 0 3.354 2 5.291 2 8l1 1v3l1 2Z"/><path fill="#FF9B88" id="P" d="m317 242-1 2 1-2ZM161 244l-1 1 1-1ZM316 244l-1 1 1-1ZM315 245l-1 2 1-2ZM313 247l-1 1 1-1ZM312 248l-1 1 1-1ZM310 249l-1 1 1-1ZM286 250l-1 1 1-1ZM309 250l-1 1 1-1ZM165 254l-1 1 1-1ZM164 255l-1 1 1-1ZM223 256l-1 1 1-1Z"/><path fill="#CACCC8" id="ml" d="M226 267c0 6.746-7.412 2-9 2l-2-6v-1c0-1.391 5.706-5 7-5l1-1h2v1l1 1v9ZM231 267c0 4.095 8 5.873 8 2 0-2.447 2-3.28 2-6v-1l-7-6h-3v11Z"/><path fill="#FF9BCD" id="MY" d="m225 257 1 1-1-1Z"/><path fill="#FF9B88" id="P" d="m293 257 1 1-1-1ZM176 266h1l-1-6.5 2-1.5h-4c0 2.522 2 4.909 2 8Z"/><path fill="#FFAD6E" id="SOCm" d="M193 274v3c-5.005 0-16-2.927-16-11l-1-6.5 2-1.5h2l1 1c2.42 0 12 2.285 12 5l1 3-1 7Z"/><path fill="#FF9B88" id="P" d="m180 258 1 1-1-1Z"/><path fill="#FFAD6E" id="SOCm" d="M263 275v2c5.952 0 16-2.133 16-11 0-1.424.362-5 2-5v-1l-2-2h-2c-2.703 0-14 3.359-14 7l-1 1c0 2.723 1 5.778 1 9Z"/><path fill="#FF9B88" id="P" d="m282 258-1 2-2-2h3ZM163 259l-1 1 1-1Z"/><path fill="#FF9BCD" id="MY" d="M226 267h5v-7c-1.49 0-2.587 1-5 1v6Z"/><path fill="#FF9B88" id="P" d="M279 266h1l1-5c-1.638 0-2 3.576-2 5ZM294 261l1 2-1-2ZM214 263h1v-1l-1 1ZM241 263h2l-2-1v1Z"/><path fill="#FF9BCD" id="MY" d="m200 283-4 1v-3l-1-3v-1c7.497 0 10.447-2.974 16.5-6 2.561-1.28 5.347-7 .5-7l2-1h1l2 6c0 3.545 2 4.63 2 7-2.421 0-6.678-2.411-9.5-1-2.214 1.107-8.177 8-9.5 8ZM256 283l4 1c0-1.145-.579-4 1-4v-3c-7.754 0-11.232-3.866-17.5-7-3.07-1.535-1.568-6 1.5-6l-2-1h-2c0 2.72-2 3.553-2 6 3.528 0-2 7.119-2 8l2.5-2c4.433-2.216 10.788 1.788 13.5 4.5l3 3.5Z"/><path fill="#FF9B88" id="P" d="m195 265-1 2-1-3 2 1Z"/><path fill="#FEA3D2" id="NTB" d="m193 274 2 3c7.497 0 10.447-2.974 16.5-6 2.561-1.28 5.347-7 .5-7-5.22 0-11.211 1-17 1l-1 2-1 7ZM261 277h1l1-2c0-3.222-1-6.277-1-9l-1-1c-5.479 0-11.075-1-16-1-3.068 0-4.57 4.465-1.5 6 6.268 3.134 9.746 7 17.5 7Z"/><path fill="#FF9B88" id="P" d="m263 265-1 1-1-1h2Z"/><path fill="#FEAD6F" id="POR" d="M168 279c-2.239 0 5.529 7 8 7h11.5c1.586-.793 7.094-5 8.5-5l-1-3-2-1c-5.005 0-16-2.927-16-11h-1c0 8.947 2.368 13-8 13ZM287 283c-1.238 0-3 .423-3 2-4.924 0-23 4.092-23-5v-2l1-1h1c5.952 0 16-2.133 16-11h1c0 8.478-.288 13 9 13l-2 4Z"/><path fill="#CBC7CC" id="sctv" d="M165 281c-3.501 0-5.585-9.085-7.5-11l-3-3c-5.379 2.69 7.658 16 11.5 16l-1-2Z"/><path fill="#CCC7CB" id="tb" d="M237 287h12c0-1.454-5.366-1.433-6.5-2-4.129-2.065-5.5-3.139-5.5-8 0-.881 5.528-8 2-8 0 3.873-8 2.095-8-2h-5c0 6.746-7.412 2-9 2 0 3.545 2 4.63 2 7 0 4.38.396 6.552-4.5 9-1.3.65-6.5.007-6.5 2h11l2-1c2.477 0 2.522-2.011 4.5-3 4.232-2.116 6.72 3 9.5 3l2 1Z"/><path fill="#CBC7CC" id="sctv" d="M291 283h2l1-1 1-1 1-1 1-1 1-1 1-1c0-1.429 1.288-4 3-4l1-1c0-13.585-8.323 9-12 9v2Z"/><path fill="#FF9B88" id="P" d="m303 272-1 1 1-1ZM302 273c-1.712 0-3 2.571-3 4 1.712 0 3-2.571 3-4ZM195 277v1l-2-1v-3l2 3Z"/><path fill="#C7C9C9" id="py" d="M205 287h3c0-1.993 5.2-1.35 6.5-2 4.896-2.448 4.5-4.62 4.5-9-2.421 0-6.678-2.411-9.5-1-2.214 1.107-8.177 8-9.5 8 0 2.854 5 2.448 5 4ZM249 287h2c0-1.927 5-.106 5-4l-3-3.5c-2.712-2.712-9.067-6.716-13.5-4.5l-2.5 2c0 4.861 1.371 5.935 5.5 8 1.134.567 6.5.546 6.5 2Z"/><path fill="#FF9B88" id="P" d="M262 277h1v-2l-1 2ZM262 277l-1 1v-1h1ZM299 277l-1 1 1-1ZM298 278l-1 1 1-1ZM297 279l-1 1 1-1ZM260 284c2.37 0 5.431 1.965 7.5 3H278c1.623 0 6-.005 6-2-4.924 0-23 4.092-23-5-1.579 0-1 2.855-1 4ZM296 280l-1 1 1-1Z"/><path fill="#CCC7CB" id="tb" d="M175 289h18l2-1 1-1h9c0-1.552-5-1.146-5-4l-4 1c-5.49 0-14.671 6.414-21.5 3-2.781-1.391-7.103-6-9.5-6l1 2 9 6ZM291 281c-1.919 0-2.488 2 0 2v-2Z"/><path fill="#FF9B88" id="P" d="m295 281-1 1 1-1ZM294 282l-1 1 1-1Z"/><path fill="#CCC7CB" id="tb" d="M263 289h19c0-1.54 8.903-4 2-4 0 1.995-4.377 2-6 2h-10.5c-2.069-1.035-5.13-3-7.5-3l-4-1c0 3.894-5 2.073-5 4h9l3 2ZM287 283c0 3.479 3.479 0 0 0Z"/><path fill="#FF9BCD" id="MY" d="m221 286-2 1 2-1ZM235 286l2 1-2-1Z"/><path fill="#FF9B88" id="P" d="M195 288h1v-1l-1 1Z"/><path fill="#FF9BCD" id="MY" d="M201 287c0 1.643-3.765 1-5 1v-1h5ZM260 287v1c-1.235 0-5 .643-5-1h5Z"/><path fill="#FF9B88" id="P" d="m260 288 3 1-3-2v1ZM195 288l-2 1 2-1Z"/></svg>