<svg xmlns="http://www.w3.org/2000/svg" viewBox="0 0 456 320"><path fill="#187C64" id="SSp-tr1" d="M141 28h1c4.805 0 11.336-2.918 15.5-5 6.168-3.084 16.128-2 23.5-2v-6c-4.559 0-32.531 4.515-35.5 6-2.069 1.035-5.13 3-7.5 3 0 1.552 3 1.146 3 4Z"/><path fill="#1BA696" id="RSPagl1" d="M199 19c-6.522 0-11.671 2-18 2v-6h17l1 4Z"/><path fill="#1BA598" id="RSPd1" d="M223 35h10c0-10.534 15.5-16 25-16l1-4c-8.319 0-12.724.612-19.5 4-2.549 1.274-10.68 14-11 14l-11-14c-6.695-3.347-11.278-4-19.5-4l1 4c9.532 0 24 4.276 24 16Z"/><path fill="#1BA696" id="RSPagl1" d="M258 19c6.265 0 10.944 2 17 2l1-6h-17l-1 4Z"/><path fill="#187C64" id="SSp-tr1" d="M314 29h1c0-2.708 1.119-4 4-4 0-1.777-9.63-4-11.5-4l-4-2c-1.329-.664-24.896-4-27.5-4l-1 6c11.403 0 22.106.303 31.5 5 1.401.7 7.5 1.04 7.5 3Z"/><path fill="#1AA496" id="RSPagl2/3" d="M182 31v1c5.06 0 10.372-5 16-5h1v-8c-6.522 0-11.671 2-18 2 0 2.978 1 6.49 1 10Z"/><path fill="#1BA697" id="RSPd2/3" d="m223 36-6 3c0-9.2-10.452-12-18-12v-8c9.532 0 24 4.276 24 16v1ZM233 36l6 3c0-9.325 11.319-12 19-12v-8c-9.5 0-25 5.466-25 16v1Z"/><path fill="#1AA496" id="RSPagl2/3" d="M274 31v1c-3.696 0-10.872-5-16-5v-8c6.265 0 10.944 2 17 2l-1 10Z"/><path fill="#188061" id="SSp-tr2/3" d="M182 31c-9.651 0-18.549 6-28 6-3.688 0-8.212-8-12-8v-1c4.805 0 11.336-2.918 15.5-5 6.168-3.084 16.128-2 23.5-2 0 2.978 1 6.49 1 10ZM274 31c9.607 0 18.706 6 28 6 4.469 0 7.416-8 12-8 0-1.96-6.099-2.3-7.5-3-9.394-4.697-20.097-5-31.5-5l-1 10Z"/><path fill="#197E64" id="SSp-ul1" d="m141 29-14 5-1-5c3.671 0 7.972-5 12-5 0 1.552 3 1.146 3 4v1ZM331 29c0 .67-1.328 5-2 5l-14-5c0-2.708 1.119-4 4-4 4.635 0 8.067 4 12 4Z"/><path fill="#1CA697" id="RSPagl5" d="m197 41-13 5c0-4.035-2-10.015-2-14 5.06 0 10.372-5 16-5 0 4.992-1 8.036-1 14Z"/><path fill="#1AA596" id="RSPd5" d="M197 41c6.061 0 10-.145 10 7 3.585 0 6.014-8 10-8v-1c0-9.2-10.452-12-18-12h-1c0 4.992-1 8.036-1 14ZM260 41c-5.758 0-11-.078-11 7-3.741 0-5.783-8-10-8v-1c0-9.325 11.319-12 19-12 0 5.018 2 9.423 2 14Z"/><path fill="#1CA697" id="RSPagl5" d="m260 41 12 5c.818 0 2-12.593 2-14-3.696 0-10.872-5-16-5 0 5.018 2 9.423 2 14Z"/><path fill="#187F60" id="SSp-ll1" d="M141 29h1v-1h-1v1Z"/><path fill="#1B8062" id="SSp-un1" d="m127 35-10 4c0-1.562-.052-5-2-5 0-1.208 9.363-5 11-5l1 5v1Z"/><path fill="#197F61" id="SSp-ul2/3" d="M143 41c0 1.073-11.474 6-13 6 0-4.526-3-8.002-3-12v-1l14-5h1l1 12Z"/><path fill="#187F64" id="SSp-ll2/3" d="M143 41h1c3.541 0 6.145-3 10-3v-1c-3.688 0-8.212-8-12-8l1 12ZM302 38c4.06 0 7.303 3 11 3 0-4.371 2-8.019 2-12h-1c-4.584 0-7.531 8-12 8v1Z"/><path fill="#197F61" id="SSp-ul2/3" d="M326 47h1c0-3.522 2-8.093 2-12v-1l-14-5c0 3.981-2 7.629-2 12l13 6Z"/><path fill="#1B8062" id="SSp-un1" d="m329 35 10 4 2-6-10-4c0 .67-1.328 5-2 5v1Z"/><path fill="#1B7E62" id="SSp-tr4" d="M160 41c0-1.186 1-1.186 1 0 6.986 0 14.25-9 21-9v-1c-9.651 0-18.549 6-28 6v1l5 3h1ZM295 41h2c2.364 0 3.053-3 5-3v-1c-9.294 0-18.393-6-28-6v1l21 9Z"/><path fill="#197F60" id="SSp-tr5" d="M172 51h2c0-.865 8.68-4 10-4v-1c0-4.035-2-10.015-2-14-6.75 0-14.014 9-21 9l11 10ZM283 51h2c0-5.981 10-4.978 10-10l-21-9c0 1.407-1.182 14-2 14v1c3.923 0 7.404 4 11 4Z"/><path fill="#188060" id="SSp-bfd1" d="m405 87-4 2-10.5-14-12-12c-9.777-4.889-28.418-24-39.5-24l2-6 11.5 6c11.625 5.813 33.57 19.64 38.5 29.5 2.888 5.777 14 11.888 14 18.5ZM51 87l4 3c1.179 0 9.735-15.617 12.5-17l13-12c9.105-4.552 26.75-22 36.5-22 0-1.562-.052-5-2-5-5.117 0-10.129 4.814-14.5 7C89.195 46.652 70.382 57.736 64 70.5 61.48 75.539 51 81.297 51 87Z"/><path fill="#1C7F63" id="SSp-un2/3" d="M121 50h1l8-3c0-4.526-3-8.002-3-12l-10 4c0 2.697 4 6.652 4 11Z"/><path fill="#1BA597" id="RSPv1" d="M229 79h3c0-14.068 1-28.434 1-43v-1h-10v1l1 43h3c0-4.013 2-4.556 2 0Z"/><path fill="#1C7F63" id="SSp-un2/3" d="m327 47 8 3 4-11-10-4c0 3.907-2 8.478-2 12Z"/><path fill="#1AA597" id="RSPv2/3" d="M221 79h3l-1-43-6 3v1c0 4.167.746 29.992 2 32.5l2 6.5ZM232 79h4c0-12.7 3-25.44 3-39v-1l-6-3c0 14.566-1 28.932-1 43Z"/><path fill="#1C7F64" id="SSp-ll4" d="M159 41c0 1.219-12.334 6-14 6 0-1.564-1-3.876-1-6 3.541 0 6.145-3 10-3l5 3ZM311 47h1c0-2.124 1-4.436 1-6-3.697 0-6.94-3-11-3-1.947 0-2.636 3-5 3 0 .84 12.559 6 14 6Z"/><path fill="#187F63" id="SSp-bfd2/3" d="M63 97h1c0-4.38 6.093-8.685 8-12.5 5.49-10.98 18.11-19.805 29.5-25.5l19.5-9c0-4.348-4-8.303-4-11-9.75 0-27.395 17.448-36.5 22l-13 12C64.735 74.383 56.179 90 55 90v1l8 6ZM401 91c-3.701 0-4.299 6-8 6l-12.5-18-12-12c-9.445-4.722-22.536-16-33.5-16v-1l4-11c11.082 0 29.723 19.111 39.5 24l12 12L401 89v2Z"/><path fill="#1C7F64" id="SSp-ll4" d="M160 41h1c0-1.186-1-1.186-1 0Z"/><path fill="#1BA498" id="RSPv5" d="M215 77c1.714 0 3.482 2 6 2l-2-6.5c-1.254-2.508-2-28.333-2-32.5-3.986 0-6.415 8-10 8v2c0 8.26 5 16.264 5 24l3 3ZM242 77c-2.447 0-3.28 2-6 2 0-12.7 3-25.44 3-39 4.217 0 6.259 8 10 8v1c0 8.6-4 16.053-4 24l-3 4Z"/><path fill="#1A7F63" id="SSp-ul4" d="m145 47-13 6-2-6c1.526 0 13-4.927 13-6h1c0 2.124 1 4.436 1 6Z"/><path fill="#197C63" id="SSp-ll5" d="M172 51c-5.867 0-18.665 8-25 8l-2-12c1.666 0 14-4.781 14-6h2l11 10Z"/><path fill="#1CA597" id="RSPagl6a" d="M186 57h6c0-1.473 1.952-1 3-1l2-15-13 5v1c0 1.06 1.223 10 2 10Z"/><path fill="#1AA697" id="RSPd6a" d="m196 57 4 2 7-9v-2c0-7.145-3.939-7-10-7l-2 15v1h1ZM256 60h1l1-1c0-1.577 1.762-2 3-2v-1l-1-15c-5.758 0-11-.078-11 7v1c1.656 0 7 9.233 7 11Z"/><path fill="#1CA597" id="RSPagl6a" d="M264 56c1.819 0 4.591 1 7 1l1-10v-1l-12-5 1 15h3Z"/><path fill="#197C63" id="SSp-ll5" d="M285 51c0 1.59 4.386 1.443 5.5 2l18.5 6c0-2.147 2-7.69 2-12-1.441 0-14-5.16-14-6h-2c0 5.022-10 4.019-10 10Z"/><path fill="#1A7F63" id="SSp-ul4" d="M324 53h1c0-2.124 1-4.436 1-6l-13-6c0 1.564-1 3.876-1 6l12 6Z"/><path fill="#197E61" id="SSp-un4" d="M124 57h1l7-4-2-6-8 3 2 7Z"/><path fill="#187E62" id="SSp-ul5" d="m147 59-12 5c-1.496 0-3-9.452-3-11l13-6 2 12Z"/><path fill="#188063" id="SSp-tr6a" d="M183 61h1l2-4c-.777 0-2-8.94-2-10-1.32 0-10 3.135-10 4 0 4.283 9 5.882 9 10ZM273 61h1c0-4.129 9-6.612 9-10-3.596 0-7.077-4-11-4l-1 10 1 4h1Z"/><path fill="#187E62" id="SSp-ul5" d="M321 65h1c0-4.832 2-7.599 2-12l-12-6h-1c0 4.31-2 9.853-2 12 1.738 0 12 4.262 12 6Z"/><path fill="#197E61" id="SSp-un4" d="m325 53 7 4 3-6v-1l-8-3h-1c0 1.564-1 3.876-1 6Z"/><path fill="#1AA498" id="RSPv6a" d="M248 71c-1.481 0-.785 2-3 2 0-7.947 4-15.4 4-24 1.656 0 7 9.233 7 11v1c-2.073 0-7 6.148-7 8l-1 2Z"/><path fill="#197C64" id="SSp-bfd4" d="M64 97c0 .842 3.862 5 5 5l7-7.5c6.01-6.01 13.545-16.023 20.5-19.5 3.765-1.883 27.5-16.691 27.5-18l-2-7h-1l-19.5 9C90.11 64.695 77.49 73.52 72 84.5c-1.907 3.815-8 8.12-8 12.5Z"/><path fill="#1AA498" id="RSPv6a" d="m209 71 3 3c0-7.736-5-15.74-5-24l-7 9v1c1.766 0 9 9.218 9 11Z"/><path fill="#1A7F64" id="SSp-ll6a" d="M183 61c-5.602 0-29.119 12-34 12l-2-14c6.335 0 19.133-8 25-8h2c0 4.283 9 5.882 9 10ZM307 73h1c0-4.72 1-8.425 1-14l-18.5-6c-1.114-.557-5.5-.41-5.5-2h-2c0 3.388-9 5.871-9 10 0 1.36 6.258 2.379 7.5 3 1.793.896 24.891 9 25.5 9Z"/><path fill="#197C64" id="SSp-bfd4" d="m393 98-6 4-13-14.5c-9.74-9.74-21.002-17.75-32.5-23.5l-9.5-6v-1l3-6c10.964 0 24.055 11.278 33.5 16l12 12L393 97v1Z"/><path fill="#197D62" id="SSp-un5" d="m135 65-8 3c0-4.178-2-6.493-2-11l7-4c0 1.548 1.504 11 3 11v1ZM322 65l7 3c0-3.534 3-6.075 3-10v-1l-7-4h-1c0 4.401-2 7.168-2 12Z"/><path fill="#1D9C5A" id="MOs6a" d="M193 57h2v-1c-1.048 0-3-.473-3 1h1ZM261 57l3 1v-2h-3v1Z"/><path fill="#1F9B5A" id="MOp6a" d="m264 58 8 3-1-4c-2.409 0-5.181-1-7-1v2Z"/><path fill="#1A7D62" id="SSp-bfd5" d="M78 111h1c0-5.155 6.823-8.147 9-12.5 5.048-10.096 21.269-19.884 30.5-24.5 2.614-1.307 5.44-5 8.5-5v-1c0-4.178-2-6.493-2-11h-1c0 1.309-23.735 16.117-27.5 18-6.955 3.477-14.49 13.49-20.5 19.5l-7 7.5v1c1.817 0 9 6.283 9 8Z"/><path fill="#1F9B5A" id="MOp6a" d="M184 61h1l6-2 2-1v-1h-7l-2 4Z"/><path fill="#1E9C58" id="MOs6b" d="M193 59h3v-2h-3v2Z"/><path fill="#1BA698" id="RSPd6b" d="M200 60v1l-4-2v-2l4 2v1ZM258 59h2l1-2c-1.238 0-3 .423-3 2Z"/><path fill="#1E9C58" id="MOs6b" d="M260 59h4v-1l-3-1-1 2Z"/><path fill="#1D9D5A" id="MOp6b" d="M191 59h2v-1l-2 1ZM272 62v1l-8-4v-1l8 3v1Z"/><path fill="#1A7D62" id="SSp-bfd5" d="m387 103-9 7-13-16.5c-1.571-3.143-32.225-24.5-36-24.5v-1c0-3.534 3-6.075 3-10l9.5 6c11.498 5.75 22.76 13.76 32.5 23.5l13 14.5v1Z"/><path fill="#197D61" id="SSp-ul6a" d="M137 79h1c0-1.326 9.597-6 11-6l-2-14-12 5v1c0 5.03 2 8.72 2 14Z"/><path fill="#1D9D5A" id="MOp6b" d="M185 61v1c1.402 0 6-1.11 6-3l-6 2Z"/><path fill="#CACCC7" id="cing" d="m212 74 3 3c-7.85 0-14.896-7.698-21.5-11-5.515-2.758-19.425 4-25.5 4l-1 1h-2c-1.145 0-4 .58-4-1 7.713 0 15.278-7 23-7l1-1c1.402 0 6-1.11 6-3h5l4 2c0 1.626 7.125 10 9 10l3 3Z"/><path fill="#1BA698" id="RSPd6b" d="m258 59-1 1 1-1Z"/><path fill="#CACCC7" id="cing" d="m245 73-3 4c7.044 0 15.438-7.969 21.5-11 5.127-2.564 18.822 4 24.5 4l1 1h2c1.235 0 5 .643 5-1l-24-7-8-4h-6l-1 1-1 1c0 1.852-4.927 8-7 8l-1 2c-1.481 0-.785 2-3 2Z"/><path fill="#197D61" id="SSp-ul6a" d="M318 79h1c0-4.549 2-8.872 2-14 0-1.738-10.262-6-12-6 0 5.575-1 9.28-1 14 1.515 0 10 4.327 10 6Z"/><path fill="#1AA497" id="RSPv6b" d="M200 61c0 1.626 7.125 10 9 10 0-1.782-7.234-11-9-11v1ZM257 60l-1 1v-1h1Z"/><path fill="#197F62" id="SSp-ll6b" d="M149 73v2c3.908 0 7.837-5 12-5 7.713 0 15.278-7 23-7v-2h-1c-5.602 0-29.119 12-34 12Z"/><path fill="#1A8063" id="SSp-tr6b" d="m185 62-1 1v-2h1v1Z"/><path fill="#1AA497" id="RSPv6b" d="M256 61c-2.073 0-7 6.148-7 8 2.073 0 7-6.148 7-8Z"/><path fill="#1A8063" id="SSp-tr6b" d="m273 61-1 1v-1h1Z"/><path fill="#197F62" id="SSp-ll6b" d="M307 73v2c-3.318 0-7.352-5-11-5l-24-7v-1l1-1h1c0 1.36 6.258 2.379 7.5 3 1.793.896 24.891 9 25.5 9Z"/><path fill="#1A7F61" id="SSp-un6a" d="m137 79-6 3c0-1.643-2.504-13-4-13v-1l8-3c0 5.03 2 8.72 2 14ZM319 79l6 3 4-13v-1l-7-3h-1c0 5.128-2 9.451-2 14Z"/><path fill="#C9C7C9" id="ccb" d="M381 171h4v-2l-1-1v-3l-1-2v-2c-2.271 0-4-7.839-4-10v-1c-.97 0-7.078-13.656-8-15.5-3.316-6.633-20.952-28.726-26.5-31.5-14.15-7.075-26.004-19.002-40-26-1.881-.94-13.5-4.017-13.5-6h-2l-1-1c-5.678 0-19.373-6.564-24.5-4-6.062 3.031-14.456 11-21.5 11-2.447 0-3.28 2-6 2h-15c-2.518 0-4.286-2-6-2-7.85 0-14.896-7.698-21.5-11-5.515-2.758-19.425 4-25.5 4l-1 1h-2c0 2.426-11.477 4.989-13.5 6-12.972 6.486-23.913 17.456-37 24-9.35 4.675-24.962 25.424-29.5 34.5L78 149l-1 2c0 1.623-.005 6-2 6 0 1.048.473 3-1 3l-1 2v2c0 1.048.473 3-1 3v2l-1 1v1h5c0-15.433 20.283-51.892 34.5-59 7.079-3.539 10.969-11 19.5-11 0-6.319 14.431-15 20-15 0-3.883 8.196-6.848 10.5-8 7.546-3.773 20.825-11.588 30-7 4.808 2.404 19.129 14 23.5 14 3.26 0 12.505 2.998 14.5 2 3.825-1.913 8.905-2 13.5-2l9-4c0-2.058 6.918-5.209 8.5-6 16.067-8.034 22.945-3.528 38 4 1.959.98 8.5 3.578 8.5 6 3.659 0 21 11.68 21 16 9.938 0 14.242 9.871 22.5 14 11.168 5.584 31.5 42.76 31.5 56Z"/><path fill="#198060" id="SSp-bfd6a" d="m91 118-1 1c-5.352 0-7.463-8-11-8 0-5.155 6.823-8.147 9-12.5 5.048-10.096 21.269-19.884 30.5-24.5 2.614-1.307 5.44-5 8.5-5 1.496 0 4 11.357 4 13v1c-1.815 0-10 5.885-10 8-1.747 0-2 .253-2 2-1.417 0-6 2.383-6 4-2.226 0-4 1.774-4 4-2.226 0-4 1.774-4 4-1.429 0-4 1.288-4 3l-1 1c-3.09 0-7 5.163-7 8l-2 1Z"/><path fill="#1AA497" id="RSPv6b" d="m249 69-1 2 1-2Z"/><path fill="#198060" id="SSp-bfd6a" d="M367 119c0-1.186 1-1.186 1 0l10-8v-1l-13-16.5c-1.571-3.143-32.225-24.5-36-24.5l-4 13v1c4.639 0 27.157 20.657 32 25.5 1.981 1.981 8 6.4 8 9.5l2 1Z"/><path fill="#C9C9CA" id="scwm" d="M91 121c0 5.006-13 19.543-13 28l7-13.5c4.538-9.076 20.15-29.825 29.5-34.5 13.087-6.544 24.028-17.514 37-24 2.023-1.011 13.5-3.574 13.5-6-1.145 0-4 .58-4-1-4.163 0-8.092 5-12 5l-11 5-6 3c0 1.732-9.221 8-11 8 0 1.747-.253 2-2 2 0 2.177-4.336 4-6 4 0 1.634-2.634 4-4 4l-4 4c0 2.098-1.939 3-4 3l-1 1c0 1.68-5.89 8-7 8v1l-2 3ZM168 70l-1 1 1-1Z"/><path fill="#C7C8CC" id="alv" d="M189 114h1l1-1c-8.729 0-27.765-8.265-34-14.5-5.161-5.162-7.118-9.882-1.5-15.5l4.5-3c0-2.189 5.066-3 7-3 0-2.44 7.862-2.18 9.5-3 15.075-7.537 26.98 11 34.5 11l6 4 7 2v-1c-2.115 0-10-2.443-10-5-4.371 0-18.692-11.596-23.5-14-9.175-4.588-22.454 3.227-30 7-2.304 1.152-10.5 4.117-10.5 8v8.5l3 4.5c2.183 0 3.31 3.405 4.5 4 2.567 1.283 19.5 7.363 19.5 9l10 2h2ZM280 112l-8 1c0-1.186 4.408-3.454 5.5-4 6.343-3.172 13.512-4.756 20-8 8.346-4.173 9.744-21-.5-21 0-1.732-5.353-3-7-3 0-2.357-6.029-1.264-7.5-2-16.426-8.213-22.004 6-31.5 6 0-2.058 6.918-5.209 8.5-6 16.067-8.034 22.945-3.528 38 4 1.959.98 8.5 3.578 8.5 6 0 2.014 2.284 5.932 1 8.5l-4 5.5c0 5.027-23 9.258-23 13Z"/><path fill="#C9C9CA" id="scwm" d="m288 70 1 1-1-1ZM365 121c0 3.537 14 20.729 14 29-.97 0-7.078-13.656-8-15.5-3.316-6.633-20.952-28.726-26.5-31.5-14.15-7.075-26.004-19.002-40-26-1.881-.94-13.5-4.017-13.5-6 1.235 0 5 .643 5-1 3.648 0 7.682 5 11 5 4.287 0 7.258 5 11 5l7 3 8.5 8c9.444 4.722 16.5 16.75 27 22 1.435.718 1.256 6 4.5 6v2Z"/><path fill="#1C8064" id="SSp-ul6b" d="M138 79v1l11-5v-2c-1.403 0-11 4.674-11 6Z"/><path fill="#7ECF4B" id="CA1" d="M167 77c2.043 0 29.756 8.628 32.5 10 1.957.979 11.5.174 11.5-2-7.52 0-19.425-18.537-34.5-11-1.638.82-9.5.56-9.5 3ZM251 81l-6 5c3.036 0 9.064 2.718 12.5 1 3.571-1.785 29.337-10 32.5-10 0-2.357-6.029-1.264-7.5-2-16.426-8.213-22.004 6-31.5 6Z"/><path fill="#1C8064" id="SSp-ul6b" d="M318 79v1c-3.742 0-6.713-5-11-5v-2h1c1.515 0 10 4.327 10 6Z"/><path fill="#7DCF4B" id="CA2" d="m211 85 6 4c-5.211 0-13.817 4.841-19.5 2-4.267-2.133-33.275-11-37.5-11 0-2.189 5.066-3 7-3 2.043 0 29.756 8.628 32.5 10 1.957.979 11.5.174 11.5-2ZM241 87l-1 2c4.835 0 13.018 4.741 18.5 2 5.802-2.901 32.288-11 38.5-11 0-1.732-5.353-3-7-3-3.163 0-28.929 8.215-32.5 10-3.436 1.718-9.464-1-12.5-1l-4 1Z"/><path fill="#1A7D63" id="SSp-un6b" d="M131 83h1l6-3v-1h-1l-6 3v1ZM325 82v1l-7-3v-1h1l6 3Z"/><path fill="#7ECF49" id="CA3" d="M191 113h11c0-3.689 7-5.411 7-10-2.002 0-4.792-1-1-1l1-1 14-6h1v-4l-7-2c-5.211 0-13.817 4.841-19.5 2-4.267-2.133-33.275-11-37.5-11l-4.5 3c-5.618 5.618-3.661 10.338 1.5 15.5 6.235 6.235 25.271 14.5 34 14.5ZM271 113h1c0-1.186 4.408-3.454 5.5-4 6.343-3.172 13.512-4.756 20-8 8.346-4.173 9.744-21-.5-21-6.212 0-32.698 8.099-38.5 11-5.482 2.741-13.665-2-18.5-2h-3l-2 1-3 2v3h1c5.437 0 9.286 6 15 6l1 1c3.464 0 .585 1-1 1 0 5.263 7 8.111 7 10h16Z"/><path fill="#C7C8CC" id="alv" d="m245 86-4 1 1-2 9-4-6 5Z"/><path fill="#1A7E61" id="SSp-bfd6b" d="M132 83c0 1.732-9.221 8-11 8 0-2.115 8.185-8 10-8h1ZM365 118v1c-3.244 0-3.065-5.282-4.5-6-10.5-5.25-17.556-17.278-27-22l-8.5-8c4.639 0 27.157 20.657 32 25.5 1.981 1.981 8 6.4 8 9.5Z"/><path fill="#C9CCC9" id="dhc" d="M231 91h1c0-1.473 1.952-1 3-1l2-1h1c0-1.577 1.762-2 3-2l1-2c-4.595 0-9.675.087-13.5 2-1.995.998-11.24-2-14.5-2 0 2.557 7.885 5 10 5 2.402 0 4.31 1 7 1Z"/><path fill="#A8AAAA" id="VL" fill-rule="evenodd" d="m311 93-2 8.5c0 3.058 7.199 16.602 10 11v-4c-2.666-5.331.557-9.887-1-13-1.458-2.917-4.296-2.5-7-2.5m16 8c-5.125 0-8 19.217-8 24-.478 0-3.432-8.364-4-9.5-1.893-3.786-8.57-4.14-11-9-1.083-2.165 5.344-7.5-1-7.5l4-5.5c1.284-2.568-1-6.486-1-8.5 3.659 0 21 11.68 21 16ZM141 93l-3 3.5 2 7c0 .617-4.809 10.5-.5 10.5 6.384 0 12.784-21 1.5-21m-4 31h1c0-10.124 10.249-8.998 14-16.5.89-1.779-3.463-8.5 1-8.5l-3-4.5V86c-5.569 0-20 8.681-20 15l4 3.5c1.785 3.571 3 15.014 3 19.5Z"/><path fill="#1A7E62" id="SSs1" d="m29 161 5 1c0-18.545 5.234-37.969 13-53.5 1.13-2.26 6.061-17.5 8-17.5v-1l-4-3c-1.243 0-7.966 14.432-9 16.5-8.599 17.197-13 36.779-13 57.5Z"/><path fill="#C7C8CC" id="alv" d="M238 89h2l1-2c-1.238 0-3 .423-3 2Z"/><path fill="#1A7E62" id="SSs1" d="m428 161-6 1c0-19.487-4.896-38.293-13-54.5-1.19-2.379-5.158-16.5-8-16.5v-2l4-2c3.554 0 7.709 12.918 9 15.5 8.464 16.928 14 38.308 14 58.5Z"/><path fill="#C7C8CC" id="alv" d="m237 89-2 1 2-1ZM232 91v1l3-2c-1.048 0-3-.473-3 1Z"/><path fill="#1B8063" id="SSs2/3" d="m34 162 8 1c0-12.758 8.532-38.564 14-49.5 2.345-4.689 7-11.047 7-16.5l-8-6c-1.939 0-6.87 15.24-8 17.5-7.766 15.531-13 34.955-13 53.5Z"/><path fill="#1A7E61" id="SSp-bfd6b" d="M121 91c-1.747 0-2 .253-2 2 1.747 0 2-.253 2-2Z"/><path fill="#7DCD4B" id="HPF" d="M224 95h3c0-1.429-1.288-4-3-4v4ZM230 95h2v-4h-1l-1 4Z"/><path fill="#1B8063" id="SSs2/3" d="M422 162c-3.11 0-5.105 1-8 1 0-13.19-7.418-36.337-13-47.5L393 98v-1c3.701 0 4.299-6 8-6 2.842 0 6.81 14.121 8 16.5 8.104 16.207 13 35.013 13 54.5Z"/><path fill="#1A7E61" id="SSp-bfd6b" d="M119 93c-1.417 0-6 2.383-6 4 1.664 0 6-1.823 6-4Z"/><path fill="#A9AAA8" id="chpl" d="m141 93-3 3.5 2 7c0 .617-4.809 10.5-.5 10.5 6.384 0 12.784-21 1.5-21ZM311 93l-2 8.5c0 3.058 7.199 16.602 10 11v-4c-2.666-5.331.557-9.887-1-13-1.458-2.917-4.296-2.5-7-2.5Z"/><path fill="#65A83D" id="DG-sg" d="M191 113h11c4.428 0 7.929-5.429 11-8.5.279-.279 2.137-3.5.5-3.5l-4.5 2c-2.002 0-4.792-1-1-1l1-1 14-6c0 8.016-13.805 20.653-20.5 24-1.19.595-12.5-3.375-12.5-5l1-1Z"/><path fill="#7BD04A" id="DG-mo" d="M203 125h2l2-1 2-1c0-1.46 6.472-6 8-6 0-1.429 1.288-4 3-4l1-1v-1l1-1 1-1v-1l1-1 1-1v-1l1-2v-1l1-1v-6h-4c0 8.016-13.805 20.653-20.5 24-1.19.595-12.5-3.375-12.5-5h-1l-1 2 1 3 8 5h1l1 1h4ZM255 125h3l1-1h1l1-1 5-3 1-1 1-1 1-1v-2h-2l-12.5 4c-5.78 0-21.5-18.886-21.5-24h-3l-1 4.5 2 3.5v2l2 3 2 3 8.5 9 7.5 5h4Z"/><path fill="#65A83D" id="DG-sg" d="M267 114v1l-12.5 4c-5.78 0-21.5-18.886-21.5-24 5.437 0 9.286 6 15 6l1 1c3.464 0 .585 1-1 1-2.245 0-3.905-2-5.5-2-1.716 0 1.733 2.965 2.5 4.5 1.769 3.538 5.81 7.5 10 7.5h10l2 1Z"/><path fill="#187C63" id="SSs4" d="m42 163 5 1c0-7.374 8.702-37.904 12-44.5 1.326-2.651 10-14.838 10-16.5v-1c-1.138 0-5-4.158-5-5h-1c0 5.453-4.655 11.811-7 16.5-5.468 10.936-14 36.742-14 49.5Z"/><path fill="#1A7E61" id="SSp-bfd6b" d="M113 97c-2.226 0-4 1.774-4 4 1.366 0 4-2.366 4-4Z"/><path fill="#187C63" id="SSs4" d="m414 163-5 1c0-14.079-7.975-35.45-14-47.5-1.13-2.259-4.904-13.5-8-13.5v-1l6-4 8 17.5c5.582 11.163 13 34.31 13 47.5Z"/><path fill="#CBC8CB" id="fi" d="M138 130c0 3.816 7.504 3 9 3 0-3.636 16.627-16.063 20.5-18 1.8-.9 9.5.005 9.5-3 0-1.637-16.933-7.717-19.5-9-1.19-.595-2.317-4-4.5-4-4.463 0-.11 6.721-1 8.5-3.751 7.502-14 6.376-14 16.5v6ZM319 130c-2.311 0-5.087 3-9 3-4.943 0-9.339-11.92-13.5-14-3.904-1.952-8.163-3.082-12-5-1.37-.685-4.5.871-4.5-2 0-3.742 23-7.973 23-13 6.344 0-.083 5.335 1 7.5 2.43 4.86 9.107 5.214 11 9 .568 1.136 3.522 9.5 4 9.5v5Z"/><path fill="#1A7E61" id="SSp-bfd6b" d="M109 101c-2.226 0-4 1.774-4 4l4-4Z"/><path fill="#98D5F9" id="CP" d="m113 211-7.5 3c-3.184 1.592-8.819-1-11.5-1-2.72 0-3.553-2-6-2l-1-1-6-11.5c-4.154-8.308-5-17.401-5-27.5 0-15.433 20.283-51.892 34.5-59 7.079-3.539 10.969-11 19.5-11l4 3.5c1.785 3.571 3 15.014 3 19.5l-1 5-1 1v1h-8c-14.421 0-8 20.173-8 28l-5 15.5c-3.475 6.95 3 23.021 3 29.5 0 3.091-4 4.435-4 7Z"/><path fill="#7BD04A" id="DG-mo" d="m209 101-1 1 1-1Z"/><path fill="#7ECE4A" id="DG-po" d="m209 103 4.5-2c1.637 0-.221 3.221-.5 3.5-3.071 3.071-6.572 8.5-11 8.5 0-3.689 7-5.411 7-10Z"/><path fill="#A8A9AA" id="V3" d="M223 109c3.333 0 3.093 4 5.5 4l3-4 3.5 2-2-3c-1.577 0-2-1.762-2-3v-2l-4-2-1 1v1l-1 2v1l-1 1-1 1v1Z"/><path fill="#7ECE4A" id="DG-po" d="M248 103c-2.245 0-3.905-2-5.5-2-1.716 0 1.733 2.965 2.5 4.5 1.769 3.538 5.81 7.5 10 7.5 0-1.889-7-4.737-7-10Z"/><path fill="#7BD04A" id="DG-mo" d="m248 101 1 1-1-1Z"/><path fill="#98D5F9" id="CP" d="m363 213-1 1c-5.883 0-11.638.431-16.5-2l-6.5-8v-1l1-1c0-6.507 6.398-17.704 3-24.5-1.068-2.136-6-16.827-6-18.5 0-7.899 7.364-28-8-28-2.858 0-5.278-1-8-1l-2-3v-2c0-4.783 2.875-24 8-24 9.938 0 14.242 9.871 22.5 14 11.168 5.584 31.5 42.76 31.5 56 0 5.82.432 13.637-2 18.5l-8 18.5-1 1-2 2-5 2Z"/><path fill="#1C8063" id="SSs5" d="M47 164c3.933 0 9.422 3 13 3 0-10.04 4.732-29.965 9-38.5l9-17.5c0-1.717-7.183-8-9-8 0 1.662-8.674 13.849-10 16.5-3.298 6.596-12 37.126-12 44.5ZM396 167h1c0-2.627 9.736-2 12-2v-1c0-14.079-7.975-35.45-14-47.5-1.13-2.259-4.904-13.5-8-13.5l-9 7v1l9 16.5c5.305 10.609 9 26.977 9 39.5Z"/><path fill="#1A7E61" id="SSp-bfd6b" d="M105 105c-1.429 0-4 1.288-4 3 2.061 0 4-.902 4-3ZM101 108l-1 1 1-1ZM100 109c-3.09 0-7 5.163-7 8 1.11 0 7-6.32 7-8Z"/><path fill="#A9AAA8" id="chpl" d="M232 128v1c-1.543 0-2.231 4.634-5.5 3l-2.5-5v-1l-1-1v-2l-2-2v-2l-1-1v-3l1-2v-1l1-1 1-1v-1c3.333 0 3.093 4 5.5 4l3-4 3.5 2v1l1 2v5l-1 1v1l-1 2-1 1v2l-1 2Z"/><path fill="#A8A9AA" id="V3" d="m223 110-1 1v-1h1Z"/><path fill="#197D63" id="SSs6a" d="M70 168h1c0-2.657 1.29-15 4-15 0-6.462 6.423-20.923 11-25.5l4-6.5v-2c-5.352 0-7.463-8-11-8h-1l-9 17.5c-4.268 8.535-9 28.46-9 38.5l10 1Z"/><path fill="#A8A9AA" id="V3" d="m222 111-1 1v-1h1Z"/><path fill="#197D63" id="SSs6a" d="m396 167-10 1c0-11.945-7.914-25.329-13-35.5-.864-1.728-5.225-11.5-7-11.5v-1l1-1h1l10-8 9 16.5c5.305 10.609 9 26.977 9 39.5Z"/><path fill="#A8A9AA" id="V3" d="m235 112 1 2-1-2ZM221 113l-1 2v-2h1Z"/><path fill="#C7C8CC" id="alv" d="M267 114h2l2-1h-6l2 1Z"/><path fill="#7DCD4B" id="HPF" d="m189 114-1 2-1-2h2ZM267 115h2v-1h-2v1Z"/><path fill="#FF909D" id="LD" d="m189 149-6 4-15-9c0-1.681-7.278-5-9-5l-1-2-4-3-1-5 1-1c0-5.662 20.753-15.874 26.5-13 1.689.845 6.846 4 8.5 4l8 5v1c0 10.418-8 19.245-8 24ZM267 149c1.417 0 6 2.383 6 4 5.205 0 9.082-8 14-8l1-1c2.789 0 5.693-5 9-5l2-2 3-3 1-1v-4l-4-5.5c-12.262-12.262-17.112-6.5-30-6.5l-1 1-1 1-1 1-5 3-1 1-1 1c0 9.392 8 16.515 8 24Z"/><path fill="#1A7E61" id="SSp-bfd6b" d="M91 118h2v-1l-2 1Z"/><path fill="#FF8D9F" id="MH" d="m224 135-5 2-8-10 1-4 5-6h3v1l1 1v2l2 2v2l1 1v9ZM233 135l4 2 8-10-1-4c0-3.821-4.716-6-8-6v2l-1 1v1l-1 2-1 1v2l-1 2v1c0 2.124 1 4.436 1 6Z"/><path fill="#1B7E64" id="SSp-n6b" d="M90 121h1l2-3h-2l-1 1v2Z"/><path fill="#A8A9AA" id="V3" d="m220 118 1 1-1-1Z"/><path fill="#187D62" id="SSp-n6a" d="m367 119-1 1-1-1v-1l2 1ZM367 119h1c0-1.186-1-1.186-1 0Z"/><path fill="#A8A9AA" id="V3" d="m236 119-1 1 1-1Z"/><path fill="#1B7E64" id="SSp-n6b" d="M365 121h1v-1l-1-1v2Z"/><path fill="#1A8061" id="SSs6b" d="m77 151-2 2c0-6.462 6.423-20.923 11-25.5l4-6.5h1c0 5.006-13 19.543-13 28l-1 2Z"/><path fill="#A8A9AA" id="V3" d="m221 121 2 2-2-2ZM235 121l-1 2 1-2Z"/><path fill="#1A8061" id="SSs6b" d="M385 168h1c0-11.945-7.914-25.329-13-35.5-.864-1.728-5.225-11.5-7-11.5h-1c0 3.537 14 20.729 14 29v1c2.048 0 4 8.226 4 10v2l1 2v3h1Z"/><path fill="#CCC9C8" id="sm" d="M202 136h1l8-9 1-4h-3l-2 1-2 1h-2l-1 1c0 1.577-1.762 2-3 2 0 3.238 3 5.3 3 8Z"/><path fill="#A8A9AA" id="V3" d="m234 123-1 1 1-1Z"/><path fill="#CCC9C8" id="sm" d="M253 136h1l1-1c0-2.37 2-3.455 2-7-1.747 0-2-.253-2-2l-2-1h-2l-7-2 1 4 8 9Z"/><path fill="#FF6F80" id="TH" d="M197 125h1v-1h-1v1ZM260 124l-1 1v-1h1Z"/><path fill="#FD8F9D" id="CL" d="M190 157c1.819 0 4.591 1 7 1v-12.5c.846-1.692 5-6.899 5-8.5v-1c0-2.7-3-4.762-3-8v-3h-2c0 10.418-8 19.245-8 24l2 2.5-1 5.5Z"/><path fill="#FF6F80" id="TH" d="M202 126c0 1.577-1.762 2-3 2v-3h2l1 1Z"/><path fill="#A8A9AA" id="V3" d="m223 125 1 1-1-1Z"/><path fill="#FF6F80" id="TH" d="M255 126c0 1.747.253 2 2 2l1-3h-3v1Z"/><path fill="#FD8F9D" id="CL" d="m267 157-8 1c0-4.285.511-21-5-21v-1l1-1c0-2.37 2-3.455 2-7l1-3h1c0 9.392 8 16.515 8 24v8Z"/><path fill="#A8A9AA" id="V3" d="m233 126-1 2 1-2Z"/><path fill="#FF8F9D" id="LH" d="M219 137v1l-11.5 1-4.5-2v-1l8-9 8 10Z"/><path fill="#A8A9AA" id="V3" d="m224 135 4.5 2 4.5-2c0-1.564-1-3.876-1-6-1.543 0-2.231 4.634-5.5 3l-2.5-5v8Z"/><path fill="#FF8F9D" id="LH" d="M253 137c0 3.003-12.732 1-15 1l-1-1 8-10 8 9v1Z"/><path fill="#FF6F80" id="TH" d="m154 128-1 1 1-1Z"/><path fill="#97D6F9" id="STR" d="M135 130h1v-1l-1 1Z"/><path fill="#FF6F80" id="TH" d="m150 133 4 1-1-5-3 4ZM303 133h3l-3-4v4Z"/><path fill="#CAC7CB" id="fiber tracts" d="M129 136c0 4.355 9 6.941 9 10 4.608 0 10-6.624 10-11l-1-2c-1.496 0-9 .816-9-3h-3v3c17.333 0-2 16.906-2 2l-4 1ZM327 136c0 4.532-9 8.749-9 10-4.836 0-9-6.731-9-11l1-2c3.913 0 6.689-3 9-3h2l1 3h-4.5c-9.534 4.767 6.5 13.194 6.5 2l3 1Z"/><path fill="#97D6F9" id="STR" d="m324 135 3 1c2.461 0 2-3.378 2-5-2.858 0-5.278-1-8-1l1 3 2 2Z"/><path fill="#CCC" d="M166 209c-1.048 0-3-.473-3 1l-6-2c0-1.212-16.249-9.875-18.5-11l-5.5-5v-1l-1-1c0-6.687-5.198-31-13-31 0-7.827-6.421-28 8-28 0 2.25 2 3.376 2 5 0 4.355 9 6.941 9 10l-7 5.5c-1.828 3.655.617 12.234 2 15 2.177 4.353 14.535 23.518 18.5 25.5 2.178 1.089 13.5 11.928 13.5 14l1 3Z"/><path fill="#97D6F9" id="STR" d="m133 135-4 1c0-1.624-2-2.75-2-5h8v2c-1.747 0-2 .253-2 2Z"/><path fill="#CCC" d="M297 209h1l1-1c5.266 0 19.529-15 24-15l1-2c0-5.829 5.688-32 13-32 0-7.899 7.364-28-8-28 0 1.622.461 5-2 5 0 4.532-9 8.749-9 10 7.179 0 9.46 11.579 7 16.5-6.191 12.383-14.34 22.34-24.5 32.5l-8.5 10-1 1-1 1v2l4 1 3-1Z"/><path fill="#C8CBC7" id="st" d="M135 133c17.333 0-2 16.906-2 2 0-1.747.253-2 2-2Z"/><path fill="#FD8F9F" id="RT" d="m177 208 2 2.5c0 4.102-9.111-1.5-10-1.5 0-1.712-2.571-3-4-3 0-2.072-11.322-12.911-13.5-14-3.965-1.982-16.323-21.147-18.5-25.5-1.383-2.766-3.828-11.345-2-15l7-5.5c4.608 0 10-6.624 10-11l2-2 4 1 4 3v2c0 3.435-5 5.249-5 8-1.738 0-6 .686-6 3-2.226 0-4 1.774-4 4-2.099 0-2.946 8.608-2 10.5 3 6 11.803 29.5 21 29.5l8 6 2 2 5 6Z"/><path fill="#FF6F80" id="TH" d="m303 133-1 1 1-1Z"/><path fill="#FD8F9F" id="RT" d="m279 208-1 2.5c2.015 4.03 6.782-1.5 9-1.5 0-1.577 1.762-2 3-2l1-1 1-1 8.5-10c10.16-10.16 18.309-20.117 24.5-32.5 2.46-4.921.179-16.5-7-16.5-4.836 0-9-6.731-9-11l-3-2h-3l-1 1-3 3v2c0 2.277 1.922 8 5 8 6.507 0 11 7.029 11 13 0 2.008.656 9-2 9 0 2.248-1.089 9-4 9 0 1.238-.423 3-2 3 0 1.238-.423 3-2 3l-1 1c0 2.226-1.774 4-4 4l-1 1-1 1-3 3c-3.71 0-4.986 5-8 5 0 2.215-2 1.519-2 3l-2 1c0 1.061-2.571 5-4 5Z"/><path fill="#C8CBC7" id="st" d="m322 133 2 2c0 11.194-16.034 2.767-6.5-2h4.5Z"/><path fill="#FE8F9E" id="PVT" d="m224 149 4.5 2 4.5-2c0-2.499 1.611-11 5-11l-1-1-4-2-4.5 2-4.5-2-5 2v1c0 1.751 5 7.393 5 11Z"/><path fill="#FF6F80" id="TH" d="m255 135-1 1 1-1ZM202 137h1v-1h-1v1ZM253 137h1v-1h-1v1ZM158 139h1l-1-2v2Z"/><path fill="#FD909D" id="MD" d="m223 167-8 5c-5.714 0-18-7.697-18-14v-12.5c.846-1.692 5-6.899 5-8.5h1l4.5 2 11.5-1c0 1.751 5 7.393 5 11 0 6.216-1 12.292-1 18ZM235 168l7 4c5.194 0 17-8.028 17-14 0-4.285.511-21-5-21h-1c0 3.003-12.732 1-15 1-3.389 0-5 8.501-5 11 0 2.681-2.592 8.316-1 11.5.611 1.222 3 6.481 3 7.5Z"/><path fill="#FF6F80" id="TH" d="M297 139h2v-2l-2 2Z"/><path fill="#FD8084" id="VPL" d="M165 183c0 2.528-1.611 8-5 8l-7-6.5c-9.017-9.017-10-18.903-10-30.5l4-4 6-3c0-2.751 5-4.565 5-8h1c1.722 0 9 3.319 9 5 0 1.606 2.081 4.339 1 6.5-1.131 2.261-6 8.238-6 10.5-2.409 0-1.055 1.277-2.5 2-9.037 4.519 4.5 15.172 4.5 20ZM296 191h2l1-1 1-1 4-4 1-1c0-1.238.423-3 2-3 0-1.238.423-3 2-3 0-1.403 2.711-9 4-9 0-4.962 2.33-9.841 0-14.5-1.312-2.624-9-5.646-9-7.5-3.078 0-5-5.723-5-8h-2c-3.307 0-6.211 5-9 5l-1 1c0 4.257 2.178 9.856 4 13.5l3 2.5 3 3.5c5.181 10.361-6 11.371-6 18.5 0 2.073 2.359 8 5 8Z"/><path fill="#FD7E84" id="VAL" d="m162 194 8 6c0-3.316 1.829-4.665 4.5-6 5.475-2.738 13.212-10.894 21-7l5.5 2c0-1.048-.473-3 1-3l1-8c0-2.243-16-14.223-16-21-1.634 0-4-2.634-4-4l-15-9c0 1.606 2.081 4.339 1 6.5-1.131 2.261-6 8.238-6 10.5 9.05 0 12.003 22 2 22 0 2.528-1.611 8-5 8l2 3ZM288 144l-1 1 1-1ZM295 194c-3.71 0-4.986 5-8 5 0-2-3.038-3.538-4-4.5-4.141-4.141-15.675-10.913-22.5-7.5l-4.5 2-3-11c0-2.03 16-14.232 16-21 1.797 0 4-2.203 4-4 5.205 0 9.082-8 14-8 0 4.257 2.178 9.856 4 13.5l3 2.5c-9.358 0-13.175 22-3 22 0 2.073 2.359 8 5 8l-1 3Z"/><path fill="#C7CACA" id="em" d="M153 147c-1.738 0-6 .686-6 3l6-3ZM304 147c6.507 0 11 7.029 11 13 0 2.008.656 9-2 9 0-4.962 2.33-9.841 0-14.5-1.312-2.624-9-5.646-9-7.5Z"/><path fill="#C9C9CA" id="scwm" d="m78 149-1 2 1-2Z"/><path fill="#FD909E" id="AV" d="M187 157h3l1-5.5-2-2.5-6 4c0 1.366 2.366 4 4 4Z"/><path fill="#FE909F" id="IMD" d="m223 167 7.5-1 4.5 2c0-1.019-2.389-6.278-3-7.5-1.592-3.184 1-8.819 1-11.5l-4.5 2-4.5-2c0 6.216-1 12.292-1 18Z"/><path fill="#FD909E" id="AV" d="M267 157h2c1.797 0 4-2.203 4-4 0-1.617-4.583-4-6-4v8Z"/><path fill="#C7CACA" id="em" d="M147 150c-2.226 0-4 1.774-4 4l4-4Z"/><path fill="#C9C9CA" id="scwm" d="M75 153v4c1.995 0 2-4.377 2-6l-2 2ZM379 151c2.048 0 4 8.226 4 10-2.271 0-4-7.839-4-10Z"/><path fill="#1A8061" id="SSs6b" d="M71 168h1v-1c0-1.048-.473-3 1-3v-2l1-2c0-1.048-.473-3 1-3v-4c-2.71 0-4 12.343-4 15Z"/><path fill="#C7CACA" id="em" d="m160 191 2 3c-9.197 0-18-23.5-21-29.5-.946-1.892-.099-10.5 2-10.5 0 11.597.983 21.483 10 30.5l7 6.5Z"/><path fill="#C9C9CA" id="scwm" d="M75 157c-1.473 0-1 1.952-1 3 1.473 0 1-1.952 1-3Z"/><path fill="#FE8D9F" id="PCN" d="M203 178c1.904 0 5.83 3 11 3 0-3.013 1-6.611 1-9-5.714 0-18-7.697-18-14-2.409 0-5.181-1-7-1h-3c0 6.777 16 18.757 16 21ZM253 178c-1.33 0-5.647 3-11 3v-9c5.194 0 17-8.028 17-14l8-1h2c0 6.768-16 18.97-16 21Z"/><path fill="#8598CC" id="GPe" d="m117 204 4 3 4.5 2 2.5-1c7.117 0 5-9.819 5-15v-2l-1-1c0-6.687-5.198-31-13-31l-5 15.5c-3.475 6.95 3 23.021 3 29.5ZM339 204c0 .828-3.748 4-5 4-14.818 0-10-4.709-10-17 0-5.829 5.688-32 13-32 0 1.673 4.932 16.364 6 18.5 3.398 6.796-3 17.993-3 24.5l-1 1v1Z"/><path fill="#C9C9CA" id="scwm" d="m74 160-1 2 1-2Z"/><path fill="#12AD83" id="VISC1" d="m37 196-6 1c0-2.408-1.829-9.158-3-11.5-2.964-5.929 1-18.698 1-24.5l5 1c0 5.479-3.783 16.934-1 22.5 1.403 2.806 4 7.305 4 10.5v1Z"/><path fill="#FF7E83" id="VPM" d="M163 161c9.05 0 12.003 22 2 22 0-4.828-13.537-15.481-4.5-20 1.445-.723.091-2 2.5-2ZM294 161l3 3.5c5.181 10.361-6 11.371-6 18.5-10.175 0-6.358-22 3-22Z"/><path fill="#12AD83" id="VISC1" d="m419 196 6 1c0-1.05 3.305-15.11 4-16.5l-1-19.5-6 1c0 9.603 3.66 17.179-1 26.5-.65 1.3-.007 6.5-2 6.5v1Z"/><path fill="#12AC83" id="VISC2/3" d="M47 193c0 1.66-8.148 2-10 2 0-3.195-2.597-7.694-4-10.5-2.783-5.566 1-17.021 1-22.5l8 1c0 5.317-1.066 17.368 1 21.5l4 8.5ZM409 193c0 1.66 8.148 2 10 2 1.993 0 1.35-5.2 2-6.5 4.66-9.321 1-16.897 1-26.5-3.11 0-5.105 1-8 1 0 4.245.872 30-5 30Z"/><path fill="#11AC82" id="VISC4" d="M47 193h1l-3-7.5c-3.072-6.144 2-16.155 2-21.5l-5-1c0 5.317-1.066 17.368 1 21.5l4 8.5Z"/><path fill="#C9C9CA" id="scwm" d="m383 163 1 2-1-2Z"/><path fill="#11AC82" id="VISC4" d="M409 165c2.273 0 2 5.226 2 7v14.5c-1.07 2.14-2 3.887-2 6.5 5.872 0 5-25.755 5-30l-5 1v1Z"/><path fill="#12AD82" id="VISC5" d="M62 191c-4.455 0-8.828 2-14 2l-3-7.5c-3.072-6.144 2-16.155 2-21.5 3.933 0 9.422 3 13 3l-1 11.5c1.38 2.76 3 9.507 3 12.5Z"/><path fill="#C9C9CA" id="scwm" d="M73 164c-1.473 0-1 1.952-1 3 1.473 0 1-1.952 1-3Z"/><path fill="#12AD82" id="VISC5" d="M408 193h1c0-2.613.93-4.36 2-6.5V172c0-1.774.273-7-2-7-2.264 0-12-.627-12 2 0 8.503-2 16.389-2 24 0 1.507 9.906 2 13 2Z"/><path fill="#FD8E9E" id="CM" d="M214 181h28v-9l-7-4-4.5-2-7.5 1-8 5c0 2.389-1 5.987-1 9Z"/><path fill="#11AC83" id="VISC6a" d="m75 189-13 2c0-2.993-1.62-9.74-3-12.5l1-11.5 10 1 1 12.5 4 8.5ZM394 191h1c0-7.611 2-15.497 2-24h-1l-10 1c0 2.914.614 15-3 15l-1 6c3.981 0 7.629 2 12 2Z"/><path fill="#11AD82" id="VISC6b" d="M75 189h1c0-6.011-5-11.459-5-18v-1l1-1v-1h-2l1 12.5 4 8.5Z"/><path fill="#C9C9CA" id="scwm" d="M385 168v1l-1-1h1Z"/><path fill="#11AD82" id="VISC6b" d="M385 171c0 4.656-2 7.78-2 12 3.614 0 3-12.086 3-15h-1v3Z"/><path fill="#C9C9CA" id="scwm" d="m72 169-1 1 1-1Z"/><path fill="#C7CACA" id="em" d="M313 169c-1.289 0-4 7.597-4 9 2.911 0 4-6.752 4-9Z"/><path fill="#C8CBCC" id="ec" d="M86 213h2v-1l-1-2-6-11.5c-4.154-8.308-5-17.401-5-27.5h-5c0 6.541 5 11.989 5 18l3 7v2l4 8c0 1.176 2.114 7 3 7ZM369 213h2c0-1.176 2.114-7 3-7 0-1.345 1.571-7 3-7v-2l1-1v-1l3-6c0-1.623.005-6 2-6 0-4.22 2-7.344 2-12h-4c0 5.82.432 13.637-2 18.5l-8 18.5-1 1-1 2v2Z"/><path fill="#FF6F80" id="TH" d="M202 186c1.132 0 3.948-5.276 6.5-4l8.5 4v-1c0-1.457-3-1.46-3-4-5.17 0-9.096-3-11-3l-1 8ZM255 189h1l-3-11c-1.33 0-5.647 3-11 3 0 1.429-1.288 4-3 4v2c3.074 0 16-12.025 16 2Z"/><path fill="#C7CACA" id="em" d="M309 178c-1.577 0-2 1.762-2 3 1.577 0 2-1.762 2-3Z"/><path fill="#FE8E9C" id="IAM" d="M217 185h22c1.712 0 3-2.571 3-4h-28c0 2.54 3 2.543 3 4Z"/><path fill="#C7CACA" id="em" d="M307 181c-1.577 0-2 1.762-2 3 1.577 0 2-1.762 2-3Z"/><path fill="#FD8E9F" id="SMT" fill-rule="evenodd" d="M207 192c0 .546-4.294 5.088-5 6.5-1.597 3.193 2.809 5.845 5.5 4.5 4.399-2.199 5.583-11-.5-11m8 14c-4.269 0-7.079 4-12 4 0-6.281-2-12.845-2-20 1.579 0 1-2.855 1-4 1.132 0 3.948-5.276 6.5-4l8.5 4 3 5.5c.523 1.046-.951 3.5 1 3.5l-6 11ZM246 192c0 1.606-2.081 4.339-1 6.5 7.079 14.158 15.685-6.5 1-6.5m-5 13c3.652 0 7.407 5 12 5l2-5.5c2.169-4.339 0-11.204 0-15.5 0-14.025-12.926-2-16-2 0 2.196-3 5.252-3 8l5 10Z"/><path fill="#11AD82" id="VISC6b" d="M381 189h1l1-6c-1.995 0-2 4.377-2 6Z"/><path fill="#C7CACA" id="em" d="m305 184-1 1 1-1Z"/><path fill="#FF8E9E" id="RH" d="M221 195h15c0-2.748 3-5.804 3-8v-2h-22v1l3 5.5c.523 1.046-.951 3.5 1 3.5Z"/><path fill="#C7CACA" id="em" d="m304 185-4 4c2.226 0 4-1.774 4-4Z"/><path fill="#FF6F80" id="TH" d="M201 189v1c1.579 0 1-2.855 1-4-1.473 0-1 1.952-1 3Z"/><path fill="#FF7E84" id="VM" d="M203 210c0 1.481-2 .785-2 3-7.289 0-13.263-6-21-6 0-1.562-6.653-5-8-5l-2-2c0-3.316 1.829-4.665 4.5-6 5.475-2.738 13.212-10.894 21-7l5.5 2v1c0 7.155 2 13.719 2 20ZM253 210l3 3c6.871 0 12.618-6 20-6 0-1.504 5.699-4 7-4l2-1c0-1.481 2-.785 2-3 0-2-3.038-3.538-4-4.5-4.141-4.141-15.675-10.913-22.5-7.5l-4.5 2h-1c0 4.296 2.169 11.161 0 15.5l-2 5.5Z"/><path fill="#209766" id="AIp6a" d="M71 212h2l2-1c0-4.079 6.148-5 8-5l-4-8c0 8.223-5.162-3-2-3 0-2.447-2-3.28-2-6l-13 2c0 5.198 9 14.609 9 21Z"/><path fill="#219666" id="AIp6b" d="m77 195 2 1-3-7h-1c0 2.72 2 3.553 2 6Z"/><path fill="#C7CACA" id="em" d="m300 189-1 1 1-1Z"/><path fill="#219666" id="AIp6b" d="M378 195h2l1-6-3 6Z"/><path fill="#209766" id="AIp6a" d="M384 212h2c0-7.766 8-13.874 8-21-4.371 0-8.019-2-12-2h-1l-1 6 1 3.5c-1.04 2.08-4 3.859-4 .5-1.429 0-3 5.655-3 7 3.423 0 5.701 5 8 5l2 1Z"/><path fill="#8599CC" id="PAL" d="m132 190 1 1-1-1Z"/><path fill="#C7CACA" id="em" d="m299 190-1 1 1-1Z"/><path fill="#219864" id="AIp5" d="m71 212-6 2c0-.377-17-13.824-17-21 5.172 0 9.545-2 14-2 0 5.198 9 14.609 9 21Z"/><path fill="#C7CACA" id="em" d="m298 191-3 3 1-3h2Z"/><path fill="#8599CC" id="PAL" d="M326 213c0-6.26-3.053 1-7 1l3-4.5c1.481-2.963 1-13.378 1-16.5l1-2c0 12.291-4.818 17 10 17l-3 3-5 2Z"/><path fill="#219864" id="AIp5" d="m386 213 6 1 7-5.5c2.056-4.113 9-9.158 9-15.5-3.094 0-13-.493-13-2h-1c0 7.126-8 13.234-8 21v1Z"/><path fill="#8499CC" id="GPi" d="m147 223 4 2c8.577 0 13-.435 13-10l-1-2-6-5c0-1.212-16.249-9.875-18.5-11l-5.5-5v1c1.797 0 1 12.925 1 15l6 9 6 5 1 1Z"/><path fill="#C7C9CC" id="mtt" d="M207 192c0 .546-4.294 5.088-5 6.5-1.597 3.193 2.809 5.845 5.5 4.5 4.399-2.199 5.583-11-.5-11ZM246 192c0 1.606-2.081 4.339-1 6.5 7.079 14.158 15.685-6.5 1-6.5Z"/><path fill="#209865" id="AIp2/3" d="M65 214c-4.727 0-8.893 5-13 5 0-4.944-15-15.9-15-23v-1c1.852 0 10-.34 10-2h1c0 7.176 17 20.623 17 21Z"/><path fill="#8599CC" id="PAL" d="M130 213c0-8.358 7.386 4 10 4l-6-9c0-2.075.797-15-1-15 0 5.181 2.117 15-5 15l-2.5 1-4.5-2 4 4 5 2Z"/><path fill="#8499CC" id="GPi" d="m308 224-3 1c-7.884 0-13-1.136-13-10l1-2 1-1c1.658 0 3-1.461 3-3h1l1-1c5.266 0 19.529-15 24-15 0 3.122.481 13.537-1 16.5l-3 4.5-1 1-1 1-1 1-1 1-1 1-5 4-1 1Z"/><path fill="#209865" id="AIp2/3" d="m392 214 12 4c2.306 0 15-19.373 15-22v-1c-1.852 0-10-.34-10-2h-1c0 6.342-6.944 11.387-9 15.5l-7 5.5Z"/><path fill="#FD909F" id="RE" d="M226 222c0-3.528-5.521-28.011 4.5-23 4.031 2.016-.5 19.576-.5 23l11-2 2-3.5-2-11.5-5-10h-15l-6 11v13c2.263 0 7.198 3 11 3Z"/><path fill="#8ADA86" id="CLA" d="M79 196v2c0 8.223-5.162-3-2-3l2 1ZM377 197v2c0 3.359 2.96 1.58 4-.5l-1-3.5h-2v1l-1 1Z"/><path fill="#219765" id="AIp1" d="M52 219c-2.25 0-3.376 2-5 2 0-5.378-16-15.888-16-24l6-1c0 7.1 15 18.056 15 23Z"/><path fill="#219666" id="AIp6b" d="m378 196-1 1 1-1Z"/><path fill="#219765" id="AIp1" d="m404 218 5 3c1.711 0 16-20.404 16-24l-6-1c0 2.627-12.694 22-15 22Z"/><path fill="#FC8F9F" id="Xi" d="M226 222h4c0-3.424 4.531-20.984.5-23-10.021-5.011-4.5 19.472-4.5 23Z"/><path fill="#FF6F80" id="TH" d="m180 207-3 1-5-6c1.347 0 8 3.438 8 5ZM285 202l-2 1 2-1Z"/><path fill="#97D6F9" id="STR" d="m340 202-1 1 1-1Z"/><path fill="#FF6F80" id="TH" d="M276 207c1.048 0 3-.473 3 1 1.429 0 4-3.939 4-5-1.301 0-7 2.496-7 4Z"/><path fill="#97D6F9" id="STR" d="M121 211h4l-4-4-4-3c0 3.091-4 4.435-4 7h8ZM361 216l-5 4c0-4.349-6.294-6-10-6-2.749 0-5.105-4-9-4l-1 1h-5l3-3c1.252 0 5-3.172 5-4l6.5 8c4.862 2.431 10.617 2 16.5 2l-1 2Z"/><path fill="#A0EE9C" id="EPd" d="M77 227c1.557 0 11 11.971 11 3v-3l-2-14c-.886 0-3-5.824-3-7-1.852 0-8 .921-8 5l-1 4c0 1.192 7.026 13.263 4.5 12-1.562-.781-.937-5-3.5-5v1l1 1v1l1 1v1Z"/><path fill="#FD909C" id="PR" d="M242 221h1l1-1h1l1-1c1.515 0 10-4.327 10-6l-3-3c-4.593 0-8.348-5-12-5l2 11.5-2 3.5 1 1Z"/><path fill="#8599CC" id="PAL" d="m292 205-1 1 1-1Z"/><path fill="#A0EE9C" id="EPd" d="M368 229c0 8.448 6.351 1 9 1v-2c0-2.11 2-7.256 2-3h1l1-1v-2c-4.735 0 1-2.528 1-6v-5c-2.299 0-4.577-5-8-5-.886 0-3 5.824-3 7 0 5.056-3 10.645-3 16Z"/><path fill="#8599CC" id="PAL" d="m151 225 5 4c12.31 0 15-2.708 15-14v-1c0-1.087-2-2.433-2-5 0-1.712-2.571-3-4-3l1 3c0 .155 5.707 12 3.5 12l-5.5-6c0 9.565-4.423 10-13 10Z"/><path fill="#FD909C" id="PR" d="M213 221h2v-15c-4.269 0-7.079 4-12 4 0 1.481-2 .785-2 3 0 2.422 8.189 6 10 6l2 2Z"/><path fill="#8599CC" id="PAL" d="m291 206-1 1 1-1Z"/><path fill="#F0483B" id="ZI" d="M211 220c0 6.109-16.665 2-20 2 0-.858-13.272-6-15-6l-4-1-1-1c0-1.087-2-2.433-2-5 .889 0 10 5.602 10 1.5l-2-2.5 3-1c7.737 0 13.711 6 21 6 0 2.422 8.189 6 10 6v1ZM246 221c.129 0 5.42 2.46 6.5 3l12.5-2c0-.597 11.508-5 13-5h1l1-1 5-1 1-1c0-1.852 1-3.309 1-5-2.218 0-6.985 5.53-9 1.5l1-2.5c0-1.473-1.952-1-3-1-7.382 0-13.129 6-20 6 0 1.673-8.485 6-10 6v2Z"/><path fill="#8599CC" id="PAL" d="m305 225-5 4c-6.303 0-14-.442-14-8 1.186 0 1.186-1 0-1l-1-5 1-1c0-1.852 1-3.309 1-5 0-1.577 1.762-2 3-2v2c0 .114-5.501 11-2.5 11l4.5-5c0 8.864 5.116 10 13 10ZM163 210v3l-6-5 6 2ZM299 208l-1 1 1-1Z"/><path fill="#97D6F9" id="STR" d="m371 208-1 1 1-1Z"/><path fill="#CCCACB" id="nst" d="m163 213 1 2 5.5 6c2.207 0-3.5-11.845-3.5-12-1.048 0-3-.473-3 1v3ZM293 213l-1 2-4.5 5c-3.001 0 2.5-10.886 2.5-11l4 1v2l-1 1Z"/><path fill="#8599CC" id="PAL" d="M294 210v2c1.658 0 3-1.461 3-3l-3 1Z"/><path fill="#97D6F9" id="STR" d="M368 211h1l1-2-2 2ZM88 211v1l-1-2 1 1Z"/><path fill="#80BEE1" id="CEAl" d="M111 214c0 4.844 2.467 18 10 18l2-2.5c2.741-5.481-2-13.849-2-18.5h-8l-2 3Z"/><path fill="#A2B1D7" id="SI" d="M157 237c0 2.293-.997 2-3 2-2.873 0-2.903-5-6-5l-1-2c0-3.541-13.545-19-17-19 0-8.358 7.386 4 10 4l6 5 1 1 4 2 5 4 1 8ZM299 238l4 1c0-1.726 4.558-5 6-5l1-1c0-3.712 10.235-18 14-18l1-1 1-1c0-6.26-3.053 1-7 1l-1 1-1 1-1 1-1 1-1 1-5 4-1 1-3 1-5 4c0 2.86-1 5.58-1 9Z"/><path fill="#7FC0E0" id="CEAm" d="m337 210-1 1 1-1Z"/><path fill="#80BEE1" id="CEAl" d="M346 214c0 5.904-3.679 18-11 18l-2-3.5c-2.581-5.162 2-12.807 2-17.5h1l1-1c3.895 0 6.251 4 9 4Z"/><path fill="#8AD987" id="CTXsp" d="M73 212c0 1.048-.473 3 1 3l1-4-2 1Z"/><path fill="#90EB8D" id="LA" d="M97 219c-2.9 0-4.569 4-6 4-1.3 0-3-8.63-3-10v-2c2.447 0 3.28 2 6 2l1 2 2 4Z"/><path fill="#97D6F9" id="STR" d="m95 215 5 4c0-3.468 8.676-5 11-5l2-3-7.5 3c-3.184 1.592-8.819-1-11.5-1l1 2Z"/><path fill="#7FC0E0" id="CEAm" d="M136 245h1c0-3.307 3.91-11 8-11l2-2c0-3.541-13.545-19-17-19l-5-2h-4c0 4.651 4.741 13.019 2 18.5l-2 2.5c0 3.559-2 9.441-2 13 3.832 0 8.084 4 14 4 0-.594-2.765-6 .5-6l2.5 2ZM338 245c-4.56 0-8.551 4-14 4 0-5.177-3-10.399-3-4h-2c0-4.513-3.273-11-8-11l-1-1c0-3.712 10.235-18 14-18l1-1 1-1 5-2h4c0 4.693-4.581 12.338-2 17.5l2 3.5c0 2.018 3 12.678 3 13Z"/><path fill="#90EB8D" id="LA" d="M360 219c3.125 0 5 3.2 5 6 2.888 0 .57-12 4-12v-2h-1l-5 2-1 1-1 2-1 3Z"/><path fill="#8AD987" id="CTXsp" d="m384 212-2 4v-5l2 1Z"/><path fill="#6ACAB9" id="PIR" d="M101 275c0 5.094-11 18.441-11 21-3.506 0-12.318-12.136-14-15.5-5.257-10.515-11.711-20.423-17-31l-6-16-6-12.5c1.624 0 2.75-2 5-2 4.107 0 8.273-5 13-5l6-2c0 2.72 2 3.553 2 6l2 3v2l1 1v1l1 1v1l4 7 2 2v1l1 1c0 8.837 18 23.793 18 35l-1 2Z"/><path fill="#C9C8CA" id="ee" d="M75 221v1c2.563 0 1.938 4.219 3.5 5 2.526 1.263-4.5-10.808-4.5-12-1.473 0-1-1.952-1-3h-2c0 2.72 2 3.553 2 6 1.577 0 2 1.762 2 3Z"/><path fill="#8599CC" id="PAL" d="m294 212-1 1 1-1Z"/><path fill="#C9C8CA" id="ee" d="m382 220-1 2c-4.735 0 1-2.528 1-6l2-4h2v1l-3 6-1 1Z"/><path fill="#C8C9CB" id="amc" d="M91 234c0 2.118 4.074 14 6 14 0-5.542-6-14.361-6-25-1.3 0-3-8.63-3-10h-2l2 14c.286 0 3 6.302 3 7Z"/><path fill="#8599CC" id="PAL" d="m326 213-1 1 1-1Z"/><path fill="#97D6F9" id="STR" d="m363 213-1 1 1-1Z"/><path fill="#C8C9CB" id="amc" d="m366 234-3 6c0-5.239 2-9.279 2-15 2.888 0 .57-12 4-12h2c0 5.056-3 10.645-3 16-1.014 0-2 3.959-2 5Z"/><path fill="#6ACAB9" id="PIR" d="m355 275 8 16.5 4 4.5 4-3.5 10-13c4.927-9.854 11.041-19.081 16-29l6-16 6-13.5-5-3-12-4-6-1-3 6-1 1c0 1.048.473 3-1 3v1l-1 1-1 2c0 1.238-.423 3-2 3 0 1.238-1.923 5-3 5l-1 2v1c0 6.358-18 23.58-18 35v2Z"/><path fill="#80BFE0" id="CEAc" d="M111 241c2.622 0 4.285 4 8 4 0-3.559 2-9.441 2-13-7.533 0-10-13.156-10-18-2.324 0-11 1.532-11 5 0 3.66 11 14.867 11 22Z"/><path fill="#E64438" id="HY" d="M171 215h1l-1-1v1ZM286 214l-1 1 1-1Z"/><path fill="#8599CC" id="PAL" d="m319 214-1 1 1-1ZM325 214l-1 1 1-1Z"/><path fill="#80BFE0" id="CEAc" d="M344 243c-1.974 0-3.517 2-6 2 0-.322-3-10.982-3-13 7.321 0 11-12.096 11-18 3.706 0 10 1.651 10 6 0 1.947-3 2.636-3 5-2.109 0-2 2.535-2 4-2.109 0-2 2.535-2 4l-1 2-1 2v1l-1 1-1 1v1l-1 2Z"/><path fill="#C8CBCC" id="ec" d="M100 219c0 3.66 11 14.867 11 22-1.651 0-5.15-10.799-6-12.5-1.107-2.214-8-8.177-8-9.5l-2-4 5 4Z"/><path fill="#F2483A" id="LHA" d="M186 257c0 6.121-2.454 7-7 7l-14-15-4-4-4-8-1-8c12.31 0 15-2.708 15-14h1l4 1c0 2.186 15 7.221 15 17-8.549 0-11.951 24-5 24ZM277 264l-1 1c-3.981 0-6-4.403-6-8 7.543 0 2.747-16.007 1-19.5l-6-5.5 1-4 1-2 11-9h1l1-1 5-1 1 5v1c0 7.558 7.697 8 14 8 0 2.86-1 5.58-1 9l-3 6-1 1c-1.577 0-2 1.762-2 3l-1 1-1 1-1 1-9 9-1 1-1 1-1 1-1 1Z"/><path fill="#8599CC" id="PAL" d="m318 215-1 1 1-1Z"/><path fill="#E64438" id="HY" d="M191 233h10l3-1c0-2.35-7.934-.217-9.5-1-7.831-3.916-3.5-7.438-3.5-9 0-.858-13.272-6-15-6 0 2.186 15 7.221 15 17ZM280 216l-1 1 1-1Z"/><path fill="#8599CC" id="PAL" d="m317 216-1 1 1-1Z"/><path fill="#C8CBCC" id="ec" d="m359 220-6 5c0-2.364 3-3.053 3-5l5-4-1 3-1 1Z"/><path fill="#E64438" id="HY" d="M265 222c2.109 0 2 2.535 2 4l11-9c-1.492 0-13 4.403-13 5Z"/><path fill="#8599CC" id="PAL" d="m316 217-1 1 1-1Z"/><path fill="#8AD987" id="CTXsp" d="M73 218c1.577 0 2 1.762 2 3l-2-3Z"/><path fill="#8599CC" id="PAL" d="m315 218-1 1 1-1Z"/><path fill="#9DE79B" id="BLAa" d="M97 249c2.46 0 4.17 4 7 4 1.994 0 7-5.067 7-7l1-1-1-4c-1.651 0-5.15-10.799-6-12.5-1.107-2.214-8-8.177-8-9.5-2.9 0-4.569 4-6 4 0 10.639 6 19.458 6 25v1Z"/><path fill="#FF6F80" id="TH" d="m211 220 2 1-2-2v1ZM226 224h5c3.378 0 7.874-3 11-3l-1-1-11 2h-4c-3.802 0-8.737-3-11-3v2c0 1.109 9.537 3 11 3Z"/><path fill="#E64438" id="HY" d="m245 220 1 1v-2l-1 1Z"/><path fill="#90EB8D" id="LA" d="m360 219-1 1 1-1Z"/><path fill="#9DE79B" id="BLAa" d="M354 253h1l1-1 1-1 1-1 1-1v-1l1-1 1-2c0-1.048-.473-3 1-3l1-2c0-5.239 2-9.279 2-15 0-2.8-1.875-6-5-6l-1 1-6 5-2 4-2 4-1 2-1 2v1l-1 1v1l-1 1v5l7 7h2Z"/><path fill="#8AD987" id="CTXsp" d="m383 219-1 1 1-1Z"/><path fill="#FF4C3D" id="PVHd" d="M229 238h4l8-4h1l1-1c2.978 0 6.49-1 10-1 0-2.308 7.013-.257 8.5-1l4.5-3 1-2c0-1.465.109-4-2-4l-12.5 2c-1.08-.54-6.371-3-6.5-3l-1-1h-1l-1 1h-1c-3.126 0-7.622 3-11 3 0 1.666-5 3.135-5 0-1.463 0-11-1.891-11-3h-2l-2-1c0 6.109-16.665 2-20 2 0 1.562-4.331 5.084 3.5 9 1.566.783 9.5-1.35 9.5 1l10 1 10 5h3c0-10.888 2-10.888 2 0Z"/><path fill="#FF6F80" id="TH" d="m244 220-1 1 1-1Z"/><path fill="#CCCACB" id="nst" d="M286 220c1.186 0 1.186 1 0 1v-1Z"/><path fill="#8AD987" id="CTXsp" d="M381 222v1c1.473 0 1-1.952 1-3l-1 2Z"/><path fill="#8599CC" id="PAL" d="m146 222 1 1-1-1Z"/><path fill="#8AD987" id="CTXsp" d="m75 223 1 1-1-1Z"/><path fill="#E64438" id="HY" d="M226 224h5c0 1.666-5 3.135-5 0Z"/><path fill="#8599CC" id="PAL" d="m309 223-1 1 1-1Z"/><path fill="#C9C8CA" id="ee" d="m379 227-2 1c0-2.11 2-7.256 2-3v2Z"/><path fill="#8AD987" id="CTXsp" d="m381 224-1 1 1-1ZM76 225l1 1-1-1Z"/><path fill="#C8CBCC" id="ec" d="M353 225c-2.109 0-2 2.535-2 4l2-4Z"/><path fill="#8AD987" id="CTXsp" d="m380 225-1 2v-2h1Z"/><path fill="#E64438" id="HY" d="m267 226-1 2 1-2Z"/><path fill="#8AD987" id="CTXsp" d="M83 237h1c.706 0 2.573-3 7-3 0-.698-2.714-7-3-7v3c0 8.971-9.443-3-11-3l4 7 2 2v1ZM377 228v2c1.577 0 2-1.762 2-3l-2 1Z"/><path fill="#E64438" id="HY" d="m265 232-9 1-3-1c0-2.308 7.013-.257 8.5-1l4.5-3-1 4Z"/><path fill="#A8A9AA" id="V3" d="M228 275h1v-37c0-10.888-2-10.888-2 0v28.5c0 1.532-.743 8.5 1 8.5Z"/><path fill="#C8CBCC" id="ec" d="M351 229c-2.109 0-2 2.535-2 4l2-4Z"/><path fill="#8AD987" id="CTXsp" d="M373 237v1c-1.177 0-1.496-4-7-4 0-1.041.986-5 2-5 0 8.448 6.351 1 9 1 0 1.238-1.923 5-3 5l-1 2Z"/><path fill="#97D6F9" id="STR" d="M145 234h3l-1-2-2 2Z"/><path fill="#F2463A" id="PeF" d="M190 252c0 2.601-1.04 5-4 5-6.951 0-3.549-24 5-24h10c0 1.733 4.776 8.948 2 14.5l-6 5.5c-1.923 0-4-2.104-4-4v-3.5c0-10.982-11.921 6.5-3 6.5Z"/><path fill="#FF4B3E" id="AHN" d="m214 233 4 5.5c3.786 7.573-4.637 15.068-9.5 17.5-4.215 2.108-8.092-3-11.5-3l6-5.5c2.776-5.552-2-12.767-2-14.5l3-1 10 1ZM241 234h1l1-1c2.978 0 6.49-1 10-1l3 1-3 2.5c-2.217 4.434.637 16.5 6 16.5 0 5.383-15.349 4.802-18-.5-6.091-12.183 0-9.689 0-17.5Z"/><path fill="#F2463A" id="PeF" d="M266 252c0 2.313 1.452 5 4 5 7.543 0 2.747-16.007 1-19.5l-6-5.5-9 1-3 2.5c-2.217 4.434.637 16.5 6 16.5 1.811 0 4 .495 4-3v-3.5c0-10.619 12.55 6.5 3 6.5Z"/><path fill="#A0ED9D" id="EPv" d="m103 275 5 1 1-2-2-12-2-4-1-2-3-3-4-4v-1c-1.926 0-6-11.882-6-14-4.427 0-6.294 3-7 3v1c0 8.837 18 23.793 18 35l1 2Z"/><path fill="#E64438" id="HY" fill-rule="evenodd" d="M209 258c0 .242-6.156 5.812-7 7.5-3.026 6.052 7.779 14.5 12.5 14.5 9.444 0 10.491-22-5.5-22m0 31h6l-1-2.5c.487-.974 9.716-9.5 10-9.5v-39l-10-5 4 5.5c3.786 7.573-4.637 15.068-9.5 17.5-4.215 2.108-8.092-3-11.5-3-1.923 0-4-2.104-4-4l-3 3c0 2.601-1.04 5-4 5 0 6.121-2.454 7-7 7l6 7c0-1.33-1.894-1.606-.5-3 10.769-10.769 7.713 3.357 15 7l12.5 8.5c1.284 2.569-3 3.509-3 5.5Z"/><path fill="#E64438" id="HY" d="m243 233-1 1 1-1Z"/><path fill="#97D6F9" id="STR" d="M309 234h2l-1-1-1 1Z"/><path fill="#C8CBCC" id="ec" d="m349 233-1 2 1-2Z"/><path fill="#A0ED9D" id="EPv" d="m353 275-5 1-1-1c0-4.676 2-8.693 2-14l1-2 2-3 1-1 1-1 1-1 1-1 1-1 1-1 1-1v-1l1-1 1-2c1.473 0 1-1.952 1-3l1-2 3-6c5.504 0 5.823 4 7 4 0 6.358-18 23.58-18 35l-2 2Z"/><path fill="#99D2BD" id="OLF" d="m81 234 2 2-2-2Z"/><path fill="#80BFE1" id="MEA" d="m143 282 3 2c0-7.638 9.094-6 13-6l1-1c0-2.998 1-7.358 1-11v-5c-1.336 0-3-10.309-3-12-2.064 0-.426-3.353-1-4.5l-3-5.5c-2.873 0-2.903-5-6-5h-3c-4.09 0-8 7.693-8 11v10l1 14 1 3c0 3.948 4 6.604 4 10Z"/><path fill="#E64438" id="HY" fill-rule="evenodd" d="M241 258c0 .253-5.285 7.069-6 8.5-1.028 2.056.208 6.416 1 8 9.353 18.707 27.786-15.5 12-15.5-1.819 0-4.591-1-7-1m1 31h6c0-1.543-4.634-2.231-3-5.5 1.882-3.763 6.515-5.007 9.5-6.5l11-13c4.595-2.297 6.5 3.867 6.5 7l4-6c-3.981 0-6-4.403-6-8-2.548 0-4-2.687-4-5l-3-3c0 3.495-2.189 3-4 3 0 5.383-15.349 4.802-18-.5-6.091-12.183 0-9.689 0-17.5l-8 4v39c0 3.82 9 5.511 9 12Z"/><path fill="#80BFE1" id="MEA" d="m313 283-3 1c0-7.508-8.171-6-12-6l-2-1-1-10v-4c1.473 0 1-1.952 1-3v-2c.586 0 3-8.833 3-10 0-3.318 4-6.321 4-9 0-1.726 4.558-5 6-5h2c4.727 0 8 6.487 8 11 0 3.51 1 7.022 1 10l-2 13v4l-1 1-4 10Z"/><path fill="#C8CBCC" id="ec" d="m348 235-1 2 1-2Z"/><path fill="#99D2BD" id="OLF" d="m374 235-1 2 1-2ZM84 237v1l-1-1h1Z"/><path fill="#8599CC" id="PAL" d="M161 247c-1.238 0-3 .423-3 2-2.064 0-.426-3.353-1-4.5l-3-5.5c2.003 0 3 .293 3-2l4 8v2Z"/><path fill="#FD5D50" id="PVi" d="M224 277c0 2.515 4 2.515 4 0v-2c-1.743 0-1-6.968-1-8.5V238h-3v39ZM229 277c0 4.365 2.366 0 4 0v-39h-4v39Z"/><path fill="#8599CC" id="PAL" d="m295 247 4 1c0-3.318 4-6.321 4-9l-4-1-3 6-1 1v2Z"/><path fill="#C8CBCC" id="ec" d="m347 238-1 1 1-1Z"/><path fill="#97D6F9" id="STR" d="M345 240h1v-1l-1 1Z"/><path fill="#C8CBCC" id="ec" d="m346 240-1 1v-1h1Z"/><path fill="#C8C9CB" id="amc" d="m363 240-1 2 1-2Z"/><path fill="#97D6F9" id="STR" d="M127 254c0-5.528 9.238 1 10 1v-4c-1.896 0-4 1.97-4-2-5.916 0-10.168-4-14-4-3.715 0-5.378-4-8-4l1 4h1c5.267 0 12.657 9 14 9ZM344 243h1v-2l-1 2Z"/><path fill="#C7C8CA" id="fx" d="m193 249-3 3c-8.921 0 3-17.482 3-6.5v3.5ZM263 249l3 3c9.55 0-3-17.119-3-6.5v3.5Z"/><path fill="#C8C9CB" id="amc" d="M362 242c-1.473 0-1 1.952-1 3 1.473 0 1-1.952 1-3Z"/><path fill="#C7CAC8" id="stc" d="M133 249c0 3.97 2.104 2 4 2v-4l-1-2-2.5-2c-3.265 0-.5 5.406-.5 6ZM321 245c0 .111-2.673 8.586.5 7l2.5-3c0-5.177-3-10.399-3-4Z"/><path fill="#97D6F9" id="STR" d="M330 254c-1.984 0-3.945-3.278-6.5-2l-3.5 3c0-2.978-1-6.49-1-10h2c0 .111-2.673 8.586.5 7l2.5-3c5.449 0 9.44-4 14-4 2.483 0 4.026-2 6-2v2c-2.88 0-14 5.043-14 9Z"/><path fill="#8AD987" id="CTXsp" d="m344 245 1 1v-3h-1v2Z"/><path fill="#E64438" id="HY" d="m296 244-1 1 1-1Z"/><path fill="#8AD987" id="CTXsp" d="m113 245-2 1 1-1h1Z"/><path fill="#80BEE2" id="IA" d="m105 258 4 2c4.568 0 18 2.325 18-6-1.343 0-8.733-9-14-9l-2 1c0 1.933-5.006 7-7 7v3l1 2Z"/><path fill="#97D6F9" id="STR" d="M137 245v2l-1-2h1Z"/><path fill="#E64438" id="HY" d="m163 248 2 1-4-4v2h1l1 1ZM293 248h1l1-1v-2c-1.577 0-2 1.762-2 3Z"/><path fill="#80BEE2" id="IA" d="m350 259-3 1c-5.05 0-17 2.162-17-6 0-3.957 11.12-9 14-9l1 1 7 7 1 1v1l-1 1-2 3Z"/><path fill="#C8C9CB" id="amc" d="m361 245-1 2 1-2Z"/><path fill="#CAC7CB" id="fiber tracts" fill-rule="evenodd" d="M183 274c0 2.337 6 7.696 6 6.5l-6-6.5m2-3c0 3.801 7.655 14.078 11.5 16 1.114.557 5.5.41 5.5 2-10.855 0-18.449-9.475-27.5-14l-9.5-6c5.105 0 11.106 8.697 16.5 6 .98-.49-2.058-5.615-2.5-6.5-1.493-2.985-15.191-21.619-19-14l1 6.5c-1.336 0-3-10.309-3-12 0-1.577 1.762-2 3-2h1l1 1 2 1 14 15 6 7Z"/><path fill="#8599CC" id="PAL" d="m162 247 1 1-1-1ZM295 247l-1 1 1-1Z"/><path fill="#CAC7CB" id="fiber tracts" d="M267 280c-2.024 0-6 5.829-6 7 2.361 0 20-10.353 20-12-1.842 0-4.283 1-5.5 1-2.244 0 1.408-6.315 1.5-6.5 1.996-3.991 19-27.167 19-11.5.586 0 3-8.833 3-10l-4-1-1 1h-1l-1 1-1 1-1 1-9 9-1 1-1 1-1 1-1 1-1 1-4 6-3 6c.662 0 5-3.948 5-2.5 0 1.807-7 8.22-7 5.5Z"/><path fill="#C8C9CB" id="amc" d="m360 247-1 1 1-1Z"/><path fill="#E64438" id="HY" d="m293 248-1 1 1-1Z"/><path fill="#C8C9CB" id="amc" d="M104 253v1l-3-1-4-4c2.46 0 4.17 4 7 4ZM359 249l-1 1 1-1Z"/><path fill="#E64438" id="HY" d="m291 250-1 1 1-1Z"/><path fill="#C8C9CB" id="amc" d="m358 250-1 1 1-1ZM357 251l-1 1 1-1Z"/><path fill="#84EA80" id="BMAa" d="m116 278-1 1-4-2-2-3-2-12 2-2c4.568 0 18 2.325 18-6 0-5.528 9.238 1 10 1l1 14-3 2c-7.339 0-12.238 7-19 7ZM345 278l-2 1-3-1c-6.623 0-11.556-7-19-7l-3-3 2-13 3.5-3c2.555-1.278 4.516 2 6.5 2 0 8.162 11.95 6 17 6l2 1c0 5.307-2 9.324-2 14l-1 1v1l-1 1Z"/><path fill="#C8C9CB" id="amc" d="m356 252-1 1 1-1Z"/><path fill="#8AD987" id="CTXsp" d="M104 254v2l-3-3 3 1Z"/><path fill="#CACCCB" id="opt" d="M164 269h1c5.105 0 11.106 8.697 16.5 6 .98-.49-2.058-5.615-2.5-6.5-1.493-2.985-15.191-21.619-19-14l1 6.5v3l1 2v1l2 2ZM287 271c-1.664 0-6 1.823-6 4-1.842 0-4.283 1-5.5 1-2.244 0 1.408-6.315 1.5-6.5 1.996-3.991 19-27.167 19-11.5v2c-1.473 0-1 1.952-1 3v3l-1 1-1 1-1 1h-1l-1 1h-1l-2 1Z"/><path fill="#C8C9CB" id="amc" d="M353 254h1v-1h-2l1 1Z"/><path fill="#8AD987" id="CTXsp" d="m355 253-1 1v-1h1ZM354 254l-1 1v-1h1ZM353 255l-1 1 1-1ZM109 260l-2 2-2-4 4 2Z"/><path fill="#FF4A3D" id="VMH" d="M209 258c0 .242-6.156 5.812-7 7.5-3.026 6.052 7.779 14.5 12.5 14.5 9.444 0 10.491-22-5.5-22ZM241 258c0 .253-5.285 7.069-6 8.5-1.028 2.056.208 6.416 1 8 9.353 18.707 27.786-15.5 12-15.5-1.819 0-4.591-1-7-1Z"/><path fill="#8AD987" id="CTXsp" d="m347 260 2 1 1-2-3 1Z"/><path fill="#E64438" id="HY" d="m281 260-1 1 1-1Z"/><path fill="#CAC7CB" id="fiber tracts" d="M296 260c-1.473 0-1 1.952-1 3 1.473 0 1-1.952 1-3Z"/><path fill="#E64438" id="HY" d="m279 262-1 1 1-1Z"/><path fill="#CAC7CB" id="fiber tracts" d="M161 266h1l-1-2v2Z"/><path fill="#F24839" id="TU" d="M202 289h7c0-1.991 4.284-2.931 3-5.5l-12.5-8.5c-7.287-3.643-4.231-17.769-15-7-1.394 1.394.5 1.67.5 3 0 3.801 7.655 14.078 11.5 16 1.114.557 5.5.41 5.5 2ZM248 289h7c0-1.353 4.643-2 6-2 0-1.171 3.976-7 6-7 0-1.238.423-3 2-3l3-6c0-3.133-1.905-9.297-6.5-7l-11 13c-2.985 1.493-7.618 2.737-9.5 6.5-1.634 3.269 3 3.957 3 5.5Z"/><path fill="#E64438" id="HY" d="m277 264-1 1 1-1Z"/><path fill="#CAC7CB" id="fiber tracts" d="M294 267h1v-1l-1 1ZM162 267l2 2-2-2ZM294 267l-1 1 1-1ZM293 268l-1 1 1-1Z"/><path fill="#99D2BD" id="OLF" d="m321 271-3 1v-4l3 3ZM135 271l4 1-1-3-3 2Z"/><path fill="#CAC7CB" id="fiber tracts" d="m291 269-1 1 1-1ZM289 270l-2 1 2-1Z"/><path fill="#60E5B7" id="COAa" d="M120 300h1l2-1c3.616 0 22-6.673 22-10 0-2.833-2-4.84-2-7 0-3.396-4-6.052-4-10l-4-1c-7.339 0-12.238 7-19 7l-1 1-1 2 1 17c1.624 0 2.75 2 5 2Z"/><path fill="#CAC7CB" id="fiber tracts" d="M287 271c-1.664 0-6 1.823-6 4 1.664 0 6-1.823 6-4Z"/><path fill="#60E5B7" id="COAa" d="M335 300h1l5-1c0-6.075 1-12.355 1-18l-2-3c-6.623 0-11.556-7-19-7l-3 1-1 1-4 10-2 3v3c0 3.017 18.488 10 22 10l2 1Z"/><path fill="#99D2BD" id="OLF" d="m318 272-1 1 1-1ZM101 275h2l-1-2-1 2ZM353 275h2v-2l-2 2Z"/><path fill="#8AD987" id="CTXsp" d="M110 277h1l-2-3-1 2h1l1 1Z"/><path fill="#CCCAC9" id="sup" d="M183 274c0 2.337 6 7.696 6 6.5l-6-6.5ZM269 277c.662 0 5-3.948 5-2.5 0 1.807-7 8.22-7 5.5 1.577 0 2-1.762 2-3Z"/><path fill="#59D9AA" id="PAA" d="M101 301h13l1-3-1-17-3-4h-1l-1-1h-1l-5-1h-2c0 5.094-11 18.441-11 21 0 3.031 8.54 5 11 5Z"/><path fill="#E64438" id="HY" d="M228 277h1v-2h-1v2Z"/><path fill="#8AD987" id="CTXsp" d="M347 276h1l-1-1-1 1h1Z"/><path fill="#59D9AA" id="PAA" d="M343 301h12c2.359 0 12-2.634 12-5l-4-4.5-8-16.5h-2l-5 1h-1l-1 1-1 1-2 1-1 2c0 5.645-1 11.925-1 18l1 2h1Z"/><path fill="#99D2BD" id="OLF" d="m109 276 1 1-1-1ZM347 276l-1 1v-1h1ZM115 279l-1 2-3-4 4 2Z"/><path fill="#80BFE2" id="BA" d="M147 287h2c2.103 0 10-5.368 10-8v-1c-3.906 0-13-1.638-13 6 0 1.048-.473 3 1 3Z"/><path fill="#97D6F9" id="STR" d="M159 278v1l1-2-1 1Z"/><path fill="#FF5B4F" id="ARH" d="M215 289h27c0-6.489-9-8.18-9-12-1.634 0-4 4.365-4 0h-1c0 2.515-4 2.515-4 0-.284 0-9.513 8.526-10 9.5l1 2.5Z"/><path fill="#CAC7CB" id="fiber tracts" d="M269 277c-1.577 0-2 1.762-2 3 1.577 0 2-1.762 2-3Z"/><path fill="#97D6F9" id="STR" d="M298 278v2c-1.577 0-2-1.762-2-3l2 1Z"/><path fill="#80BFE2" id="BA" d="M308 287h1l2-1-1-2c0-7.508-8.171-6-12-6v2c0 2.574 8.031 7 10 7Z"/><path fill="#99D2BD" id="OLF" d="m116 278-1 1 1-1ZM343 279l-1 2-2-3 3 1ZM345 278l-2 1 2-1ZM147 288l-2 1c0-2.833-2-4.84-2-7l3 2c0 1.048-.473 3 1 3v1ZM310 284l1 2 2-3-3 1ZM309 288l2 1v-3l-2 1v1Z"/><path fill="#97D6F9" id="STR" d="m149 287-2 1v-1h2Z"/><path fill="#CAC7CB" id="fiber tracts" d="M261 287c-1.357 0-6 .647-6 2 1.623 0 6-.005 6-2Z"/><path fill="#97D6F9" id="STR" d="M309 287v1l-1-1h1Z"/><path fill="#99D2BD" id="OLF" d="M120 300c0 1.684-4.679 1-6 1l1-3c1.624 0 2.75 2 5 2ZM123 299l-2 1 2-1ZM333 299l2 1-2-1ZM336 300c0 1.684 4.679 1 6 1l-1-2-5 1ZM101 301h13c0 1.641-13 1.641-13 0ZM343 301h12c0 1.638-12 1.638-12 0Z"/></svg>