<svg xmlns="http://www.w3.org/2000/svg" viewBox="0 0 456 320"><path fill="#FEFA90" id="DEC" fill-rule="evenodd" d="M223 94c0 1.07-7.398 2.704-6 5.5 2.354 4.707 9.408 10.546 15.5 7.5 2.257-1.129 7.9-6.701 6.5-9.5-2.195-4.39-11.559-3.5-16-3.5m0-29-4 2c-5.823 0-10.696-.402-15.5 2-1.077.539-5.5-.99-5.5 1.5 0 1.692 6.163-.332 6.5-.5 6.292-3.146 15.895 1.052 22-2 2.411-1.206-2.905-3-3.5-3m62 17c-4.198 0-8.866-5.183-12.5-7-7.106-3.553-20.595-8-29-8-2.084 0-14.5-2.304-14.5.5l17.5.5c8.12 4.06 17.848 4.924 26 9 5.624 2.812 8.603 7.706 11.5 13.5 3.567 7.133-5.916 30.208-12.5 33.5-12.866 6.433-28.265 6.632-41 13-3.326 1.663-13.21-2.605-16-4-4.859-2.43-15.081-1.541-20-4-12.395-6.198-15.509-12.518-21.5-24.5v-6c-4.266-8.532 5.101-18.8 12.5-22.5 1.529-.764 12.5-2.591 12.5-4.5l-6.5.5c-3.905 1.952-8.145 3.073-12 5-1.693.846-5.818 6-8.5 6 0-6.192-2-12.044-2-19 0-2.251 21.516-9.508 24.5-11 9.228-4.614 57.32-6.84 67-2 2.943 1.471 26.406 13 27.5 13 0 5.478-3 12.933-3 18Z"/><path fill="#FDFB8F" id="SIM" d="m171 83-6 4c0-3.02-4.531-16-8-16 0-4.138 8.77-7 12-7 0 6.956 2 12.808 2 19ZM285 82l6 5c0-2.257 7.1-16 8-16 0-3.864-7.286-7-11-7 0 5.478-3 12.933-3 18Z"/><path fill="#CBC9CC" id="arb" d="m223 65-4 2c-5.823 0-10.696-.402-15.5 2-1.077.539-5.5-.99-5.5 1.5 0 1.692 6.163-.332 6.5-.5 6.292-3.146 15.895 1.052 22-2 2.411-1.206-2.905-3-3.5-3Z"/><path fill="#CBC9CC" id="arb" fill-rule="evenodd" d="M155 181h1c0-4.18 7-7.537 7-11 0-1.257 24.499-17 28.5-15 3.694 1.847 28.607-1.803 33-4 3.745-1.873 7.738 2 10.5 2 7.561 0 19.999-.25 26.5 3l8-1 4 3c2.503 1.251 19.5 9.823 19.5 12 1.782 0 8 8.977 8 11 3.043 0 6.789 6 9.5 6l-5-6-8-10-6.5-11.5c-1.866-3.731-8.115-8.229-10-12-1.264-2.528-7-3.775-7-7.5-2.516 0-3.17-5 0-5 0-2.393 3.234-3 5-3 0-8.217 27.178.839 29.5 2l30.5 30.5c1.556 3.111 7.436 13.128 10 8 1.768-3.537-3.626-7.626-6.5-10.5-4.004-4.004-21.5-20.071-21.5-24 0-3.903 4.691-2.095 6.5-3 .357-.179 17.891-2.555 19-2 1.234.617 11.5 5.045 11.5 4.5l-6.5-5.5-3-6-6 3c-3.589 1.795-10.92 1.46-16 4-3.536 1.768-16.878-4.439-20-6l-9.5-6-4-4.5c-7.322-14.643-2-16.047-2-29.5l-6-5c-4.198 0-8.866-5.183-12.5-7-7.106-3.553-20.595-8-29-8-2.084 0-14.5-2.304-14.5.5l17.5.5c8.12 4.06 17.848 4.924 26 9 5.624 2.812 8.603 7.706 11.5 13.5 3.567 7.133-5.916 30.208-12.5 33.5-12.866 6.433-28.265 6.632-41 13-3.326 1.663-13.21-2.605-16-4-4.859-2.43-15.081-1.541-20-4-12.395-6.198-15.509-12.518-21.5-24.5v-6c-4.266-8.532 5.101-18.8 12.5-22.5 1.529-.764 12.5-2.591 12.5-4.5l-6.5.5c-3.905 1.952-8.145 3.073-12 5-1.693.846-5.818 6-8.5 6l-6 4 2 5.5c3.128 6.256-2.156 28.5-8 28.5 0 2.683-7.664 5.082-9.5 6-5.892 2.946-16.132 8.434-23 5-4.007-2.004-9.171-1.086-13-3l-6-3-1.5 4.5-6 6c0 1.13 8.597-3.049 9.5-3.5 2.823-1.411 25.5 2.107 25.5 5 0 4.016-17.17 20.67-21 24.5-1.621 1.621-8.283 6.434-7 9l2.5 3.5 3.5-5.5 14.5-16.5c8.058-4.029 15.583-16.792 26-22 3.132-1.566 15.087-3.956 19-2l4.5 2 5 3c2.877 0 4.816 5 1 5 0 4.388-6.587 5.674-8 8.5-4.691 9.382-13.36 16.721-18 26l-7.5 10.5 5.5-3m37-36c-2.267 0-5.011 4.745-2.5 6 .576.288 16.833-1.416 18-2 2.88-1.44 40.319-.341 43 1h12c1.047.523 2.505 1.748 4 1 3.06-1.53 1.039-6-1.5-6l-2-1h-1l-1-1h-4l-1-1h-1c0-1.643-3.765-1-5-1h-21c0-1.399-2-1.399-2 0h-21c-1.145 0-4-.579-4 1l-9 2-1 1Z"/><path fill="#FCFC90" id="ANcr1" d="M114 90c13.899 0 20.451 13.475 31.5 19l13.5 12c5.844 0 11.128-22.244 8-28.5l-2-5.5c0-3.02-4.531-16-8-16-3.253 0-7.725-3.888-11.5-2-9.452 4.726-31.5 7.964-31.5 21ZM342 90c-14.815 0-22.593 16.046-34.5 22l-10.5 9-4-4.5c-7.322-14.643-2-16.047-2-29.5 0-2.257 7.1-16 8-16 3.2 0 8.003-3.749 11.5-2 8.132 4.066 31.5 7.38 31.5 21Z"/><path fill="#FCFA91" id="ANcr2" fill-rule="evenodd" d="M99 137c0 1.93 1.93 0 0 0m36 1c-7.877 0-41.82 23-51 23l-5.5 1c-6.656-3.328-7.462-18.576-4.5-24.5C81.728 122.045 90.04 90 114 90c13.899 0 20.451 13.475 31.5 19l13.5 12c0 2.683-7.664 5.082-9.5 6-5.892 2.946-16.132 8.434-23 5-4.007-2.004-9.171-1.086-13-3l-6-3-1.5 4.5-6 6c0 1.13 8.597-3.049 9.5-3.5 2.823-1.411 25.5 2.107 25.5 5Z"/><path fill="#FCFA91" id="ANcr2" d="M321 138c9.031 0 41.307 23 52 23l4.5 1c6.252-3.126 8.717-17.066 5.5-23.5-8.357-16.715-15.814-48.5-41-48.5-14.815 0-22.593 16.046-34.5 22l-10.5 9 9.5 6c3.122 1.561 16.464 7.768 20 6 5.08-2.54 12.411-2.205 16-4l6-3 3 6 6.5 5.5c0 .545-10.266-3.883-11.5-4.5-1.109-.555-18.643 1.821-19 2-1.809.905-6.5-.903-6.5 3Z"/><path fill="#FCFB90" id="CUL4, 5" d="M223 94c0 1.07-7.398 2.704-6 5.5 2.354 4.707 9.408 10.546 15.5 7.5 2.257-1.129 7.9-6.701 6.5-9.5-2.195-4.39-11.559-3.5-16-3.5Z"/><path fill="#FFFB8E" id="PRM" d="m127 194-7.5 7-7.5 4c-11.044 0-26.59-24.68-31-33.5-2.164-4.328 3-7.353 3-10.5 9.18 0 43.123-23 51-23 0 4.016-17.17 20.67-21 24.5-1.621 1.621-8.283 6.434-7 9l2.5 3.5 3.5-5.5 14.5-16.5c8.058-4.029 15.583-16.792 26-22 3.132-1.566 15.087-3.956 19-2l4.5 2c0 1.722-5.235 2.368-6.5 3l-13 10c-9.074 9.074-30.5 38.664-30.5 50ZM330 194l6.5 7c1.456.728 7.5 1.87 7.5 4 11.143 0 26.586-23.673 31-32.5 2.011-4.023-2-8.411-2-11.5-10.693 0-42.969-23-52-23 0 3.929 17.496 19.996 21.5 24 2.874 2.874 8.268 6.963 6.5 10.5-2.564 5.128-8.444-4.889-10-8L308.5 134c-2.322-1.161-29.5-10.217-29.5-2 16.051 0 33.888 28.275 40 40.5 2.741 5.481 11 15.427 11 21.5Z"/><path fill="#FFF990" id="COPY" fill-rule="evenodd" d="M145 186c0 1.93 1.93 0 0 0m1-1c0 1.93 1.93 0 0 0m1-1c0 2.091 3.746 0 0 0m-6 16-1 1c-1.6 0-11 3.303-11-1 0-1.048.473-3-1-3l-1-3c0-11.336 21.426-40.926 30.5-50l13-10c1.265-.632 6.5-1.278 6.5-3l5 3 1 5c0 4.388-6.587 5.674-8 8.5-4.691 9.382-13.36 16.721-18 26l-7.5 10.5 5.5-3v1c0 1.693-10.663 17-13 17l-1 1Z"/><path fill="#FFF990" id="COPY" d="M317 201h10l1-2 1-2c0-1.048-.473-3 1-3 0-6.073-8.259-16.019-11-21.5-6.112-12.225-23.949-40.5-40-40.5-1.766 0-5 .607-5 3v5c0 3.725 5.736 4.972 7 7.5 1.885 3.771 8.134 8.269 10 12l6.5 11.5 8 10 5 6c-2.711 0-6.457-6-9.5-6l1 2c3.21 0 5.014 14 10 14l1 1 2 2 1 1h1Z"/><path fill="#FBFC91" id="PYR" d="M182 134c2.877 0 4.816 5 1 5l-1-5ZM274 135c-3.17 0-2.516 5 0 5v-5Z"/><path fill="#CBC9CC" id="arb" d="M99 137c0 1.93 1.93 0 0 0Z"/><path fill="#FBFC91" id="PYR" d="M227 141h2c0-1.399-2-1.399-2 0ZM206 141c-1.145 0-4-.579-4 1 1.145 0 4 .579 4-1Z"/><path fill="#FFFA8F" id="UVU" d="M192 145c-2.267 0-5.011 4.745-2.5 6 .576.288 16.833-1.416 18-2 2.88-1.44 40.319-.341 43 1h12c1.047.523 2.505 1.748 4 1 3.06-1.53 1.039-6-1.5-6l-2-1h-1l-1-1h-4l-1-1h-1c-1.235 0-5 .643-5-1h-44c0 1.579-2.855 1-4 1l-9 2-1 1Z"/><path fill="#FBFC91" id="PYR" d="M250 141c1.235 0 5-.643 5 1-1.235 0-5 .643-5-1ZM256 142l1 1-1-1ZM261 143l1 1-1-1ZM193 144l-1 1 1-1ZM263 144l2 1-2-1Z"/><path fill="#FFFA8F" id="UVU" d="M163 170c7.432 0 15.474.513 22.5-3 2.556-1.278 9.873.936 12 2H233c9.956 0 24.096 2.202 32.5-2 3.804-1.902 15.742 2.371 19 4l8.5-1c0-2.177-16.997-10.749-19.5-12l-4-3-8 1c-6.501-3.25-18.939-3-26.5-3-2.762 0-6.755-3.873-10.5-2-4.393 2.197-29.306 5.847-33 4-4.001-2-28.5 13.743-28.5 15Z"/><path fill="#FDFC8F" id="NOD" d="M298 182c-14.49 0-45.617 5.059-57.5 11-3.919 1.96-25.718-.359-29-2h-4c-12.166-6.083-32.735-8-47.5-8l-1-1h-1l-2-1c0-4.18 7-7.537 7-11 7.432 0 15.474.513 22.5-3 2.556-1.278 9.873.936 12 2H233c9.956 0 24.096 2.202 32.5-2 3.804-1.902 15.742 2.371 19 4l8.5-1c1.782 0 8 8.977 8 11-1.048 0-3-.473-3 1Z"/><path fill="#F0F080" id="CB" d="M155 182h3l-2-1h-1v1ZM298 182l4 1-1-2c-1.048 0-3-.473-3 1ZM159 182l1 1-1-1Z"/><path fill="#CBC9CC" id="arb" d="M147 184c0 2.091 3.746 0 0 0ZM146 185c0 1.93 1.93 0 0 0ZM145 186c0 1.93 1.93 0 0 0Z"/><path fill="#FF9BCD" id="MY" d="m166 187-1 1 1-1Z"/><path fill="#FFA2D2" id="ECU" d="m177 191 1 4-4.5 4c-2.833 1.416-12.16.18-13.5-2.5-1.558-3.117 2-5.401 2-7.5h1l1-1h1l1-1h4l7 4Z"/><path fill="#FF9BCD" id="MY" d="m181 188-4 3-7-4c1.741 0 11-.773 11 1ZM183 188h2c0-1.399-2-1.399-2 0ZM271 188h3c0-1.486-3-1.486-3 0ZM275 188c1.717 0 4 1.252 4 3l7-4c-1.741 0-11-.773-11 1Z"/><path fill="#FFA2D2" id="ECU" d="m279 196 4.5 3H294l3-4.5-2-5.5c-3.071 0-5.362-2-9-2l-7 4v5Z"/><path fill="#FF9BCD" id="MY" d="m164 188-1 1 1-1Z"/><path fill="#FEB1D9" id="SPIV" d="M187 204h1l1-1h1l2-2 5-10-1-2-11-1h-4l-4 3 1 4v3l2 5 7 1ZM264 200l5.5 4c2.161 1.081 4.894-1 6.5-1l2-4 1-3v-5c0-1.748-2.283-3-4-3h-4c-3.51 0-7.022 1-10 1l-1 1v1l4 9Z"/><path fill="#FF9BCD" id="MY" d="M123 236h1c0-5.913 3.523-11.545 6-16.5.691-1.382 5-.47 5-3.5 0-4.072 8.928-13 13-13l1-1c0-3.353 15-5.128 15-1.5 0 .876-4 .193-4 2.5 3.23 0 9.38-.74 11 2.5.791 1.582 3.942 8.5 6 8.5 0-6.087 10-8.693 10-10l-7-1c-8.987 0-4.518-5-2-5v-3l-4.5 4c-2.833 1.416-12.16.18-13.5-2.5-1.558-3.117 2-5.401 2-7.5-5.026 0-15.994 9.494-19 12.5l-8 7.5-1 1-2 2c0 1.952-9 15.217-9 24ZM197 191h3l-4-2 1 2ZM261 189l-1 1 1-1ZM332 234h1c0-7.272-9-20.771-9-22l-1-1-1-1v-1c-2.631 0-21.181-20-27-20l2 5.5-3 4.5c2.547 0 15-.642 15 4 3.654 0 12 9.551 12 13 4.381 0 11 13.358 11 18ZM257 191h3v-1c-1.048 0-3-.473-3 1Z"/><path fill="#FFB0D7" id="MV" d="M192 201h2c3.606 0 6.972-3 10-3l2-1h1c0-3.591-3-3.777-3-5h-1l-1-1h-5l-5 10Z"/><path fill="#FF9BCD" id="MY" d="m202 191 1 1-1-1ZM255 191l-2 1 2-1Z"/><path fill="#FFB0D7" id="MV" d="m264 200-1 1c-4.168 0-7.42-3-11-3 0-1.007-2-1.422-2-5h1l2-1 2-1h5l4 9Z"/><path fill="#FF9BCD" id="MY" d="M207 197h9c0-3.065-9.7-5-12-5 0 1.223 3 1.409 3 5ZM253 192l-2 1 2-1ZM240 197c3.895 0 7.95 1 12 1 0-1.007-2-1.422-2-5-4.052 0-6.866 3-10 3v1Z"/><path fill="#F0F080" id="CB" d="M140 201c0 7.436-22.956 4-28 4l7.5-4 7.5-7 1 3c0 1.048-.473 3 1 3 0 4.303 9.4 1 11 1ZM317 201h10l1-2 1-2c0-1.048-.473-3 1-3l6.5 7c1.456.728 7.5 1.87 7.5 4-5.59 0-27 3.512-27-4Z"/><path fill="#A9AAA8" id="chpl" d="m238 199-1 1-5.5 4c-5.745 2.872-12.5-4.341-12.5-8h19v3Z"/><path fill="#FDA5D1" id="NTS" d="M198 220h1l1-1h1l4-5c0-11.652 14-15.848 14-4 1.455 0 8 3.93 8 0 0-3.21-10-7.917-10-13h-11l-2 1c-3.028 0-6.394 3-10 3l-4 2h-1l-1 1h-1c0 1.307-10 3.913-10 10l2 5 2 2c2.128 0 5.608-1.054 7.5-2l9.5 1Z"/><path fill="#AAA9A7" id="V4" d="m230 209-3 1c0-3.21-10-7.917-10-13l2-1c0 3.659 6.755 10.872 12.5 8l5.5-4c0 1.662-5.179 9-7 9ZM240 197l-2 2v-3h2v1Z"/><path fill="#FDA5D1" id="NTS" d="M274 221h1l2-1 2-5c0-9.841-16-11.323-16-14-4.168 0-7.42-3-11-3-4.05 0-8.105-1-12-1l-2 2-1 1c0 1.662-5.179 9-7 9 0 5.545 4.659 1 7 1 0-11.606 15-7.785 15 4 0 2.666 3 2.482 3 5h2l1 1h15l1 1Z"/><path fill="#FF9BCD" id="MY" d="M300 205c-4.427 0-7.399-3.551-12.5-1l-8.5 11c0-9.841-16-11.323-16-14l1-1 5.5 4c2.161 1.081 4.894-1 6.5-1l4.5 1c2.982-1.491-.336-5-2.5-5l1-3 4.5 3H294c0 4.379 6 2.861 6 6Z"/><path fill="#FFFC8D" id="PFL" d="M128 197c1.473 0 1 1.952 1 3-1.473 0-1-1.952-1-3Z"/><path fill="#FF9BCD" id="MY" d="m206 197-2 1 2-1Z"/><path fill="#F0F080" id="CB" d="m312 197 1 1-1-1Z"/><path fill="#FFFC8D" id="PFL" d="m329 197-1 2 1-2Z"/><path fill="#C8CACA" id="sptV" d="M153 206h1l3-1c0-2.293.997-2 3-2 0-2.307 4-1.624 4-2.5 0-3.628-15-1.853-15 1.5 1.204 0 7-2.386 7 .5l-3 3.5Z"/><path fill="#FDA5D0" id="CU" d="M178 198c-2.518 0-6.987 5 2 5l-2-5ZM278 199c2.164 0 5.482 3.509 2.5 5l-4.5-1 2-4Z"/><path fill="#C8CACA" id="sptV" d="M306 209h1c0-3.246-4.494-2.489-6-5.5-1.081-2.161 1.87-3.315 3.5-2.5l4.5 2c0-4.642-12.453-4-15-4 0 4.379 6 2.861 6 6h1l2 2h1l2 2Z"/><path fill="#F0F080" id="CB" d="m142 199-1 1 1-1Z"/><path fill="#AAA9A7" id="V4" d="m238 199-1 1 1-1Z"/><path fill="#FFFC8D" id="PFL" d="m328 199-1 2 1-2Z"/><path fill="#F0F080" id="CB" d="m141 200-1 1 1-1ZM315 200l1 1-1-1Z"/><path fill="#FDA3D1" id="Pa5" d="M144 213c-3.483 0-4.788 3-9 3 0-4.072 8.928-13 13-13l1-1c1.204 0 7-2.386 7 .5l-3 3.5-1 1h-1l-1 1-1 1c-1.747 0-2 .253-2 2h-1l-1 1-1 1Z"/><path fill="#FF9BCD" id="MY" d="m194 201-4 2 2-2h2Z"/><path fill="#FDA3D1" id="Pa5" d="M308 209c2.96 0 7.54 7 13 7 0-3.449-8.346-13-12-13l-4.5-2c-1.63-.815-4.581.339-3.5 2.5 1.506 3.011 6 2.254 6 5.5h1Z"/><path fill="#C8CACA" id="sptV" d="m149 202-1 1 1-1Z"/><path fill="#FF9BCD" id="MY" d="M160 203c-2.003 0-3-.293-3 2l3-2Z"/><path fill="#FDA5D2" id="SPVI" d="M142 269h6c10.393 0 7.554-20.608 11-27.5 3.553-7.106 20-9.875 20-18.5v-4l-2-5c-2.058 0-5.209-6.918-6-8.5-1.62-3.24-7.77-2.5-11-2.5l-3 2-3 1-1 1h-1l-1 1-1 1h-1l-2 2-1 1-1 1-1 1-1 1c0 1.59-5.662 6-7 6l-1 1-1 1-1 1-2 4-1 1-1 2-1 10c0 1.235.643 5-1 5v1l1 2v2l1 1v1l1 2v1l1 1v2l1 1v1l1 1v1l2 2v1l1 1 2 1 1 1h3Z"/><path fill="#FF9BCD" id="MY" d="m189 203-1 1 1-1Z"/><path fill="#FDB1D8" id="DMX" d="M219 210c0 1.326-12.059 4-14 4 0-11.652 14-15.848 14-4ZM237 210c4.862 0 9.596 4 15 4 0-11.785-15-15.606-15-4Z"/><path fill="#FDA5D2" id="SPVI" d="M315 269h2l1-1 4-3 1-2 1-1v-1l1-1v-2l1-1v-1l1-1v-2l1-1v-1l1-2-1-16-1-1-1-4-1-1v-1l-2-2-1-1-1-1-11-10-3-3h-1l-2-2h-1l-2-2h-1c-4.427 0-7.399-3.551-12.5-1l-8.5 11-2 5v2c0 9.323 16.297 12.094 20 19.5 3.064 6.128 1.574 27.5 11 27.5h7Z"/><path fill="#FF9BCD" id="MY" d="m301 205 2 2-2-2Z"/><path fill="#C8CACA" id="sptV" d="M152 207h1v-1l-1 1Z"/><path fill="#FF9BCD" id="MY" d="m154 206-1 1v-1h1Z"/><path fill="#A9AAA7" id="V4r" d="m134 210-2 2c-5.86 0 3-9.824 3-3l-1 1Z"/><path fill="#C8CACA" id="sptV" d="M150 208h1v-1l-1 1Z"/><path fill="#FF9BCD" id="MY" d="m152 207-1 1v-1h1ZM304 207l2 2-2-2Z"/><path fill="#A9AAA7" id="V4r" d="m323 211 1 1c7.285 0-2-8.874-2-3v1l1 1Z"/><path fill="#C8CACA" id="sptV" d="M149 209h1v-1l-1 1Z"/><path fill="#FF9BCD" id="MY" d="m151 208-1 1v-1h1Z"/><path fill="#C8CACA" id="sptV" d="M149 209c-1.747 0-2 .253-2 2l2-2Z"/><path fill="#FF9BCD" id="MY" d="M226 234c0-.686 4.141 0 5 0 0-1.579 2.855-1 4-1v-3c0-.003-9.63-1.24-6-8.5 1.203-2.406 1.608-7.054 4.5-8.5 2.72-1.36 11.834-.832 13.5 2.5 2.011 4.023-2 8.411-2 11.5h1c0-2.756 6.759-8 9-8 0-2.518-3-2.334-3-5-5.404 0-10.138-4-15-4-2.341 0-7 4.545-7-1l-3 1c0 3.93-6.545 0-8 0 0 1.326-12.059 4-14 4l-4 5c4.644 0 7.352 8 10 8 0-3.027-3.839-6.821-2-10.5 2.049-4.098 11.147-5.177 14.5-3.5 1.591.795 3.654 6.809 4.5 8.5 3.718 7.436-7 8.106-7 8.5v3l5 1ZM308 209l2 3-3-3h1Z"/><path fill="#C8CACA" id="sptV" d="M319 273c-4.287 0-6.359 3-10 3 0-3.17 6-5.882 6-7h2l1-1 4-3 1-2 1-1v-1l1-1v-2l1-1v-1l1-1v-2l1-1v-1l1-2-1-16-1-1-1-4-1-1v-1l-2-2-1-1-1-1-11-10-2-3c2.96 0 7.54 7 13 7 4.381 0 11 13.358 11 18l1 1v16l-1 2v3c-1.473 0-1 1.952-1 3l-1 2-1 2-1 2-1 1v1c-1.747 0-2 .253-2 2l-1 1-1 1-4 2ZM145 212h1v-1l-1 1Z"/><path fill="#FF9BCD" id="MY" d="m147 211-1 1v-1h1Z"/><path fill="#C8CACA" id="sptV" d="M144 213h1v-1l-1 1Z"/><path fill="#FF9BCD" id="MY" d="m146 212-1 1v-1h1Z"/><path fill="#FEB1D7" id="XII" d="M211 227c3.11 0 6.535 3 10 3 0-.394 10.718-1.064 7-8.5-.846-1.691-2.909-7.705-4.5-8.5-3.353-1.677-12.451-.598-14.5 3.5-1.839 3.679 2 7.473 2 10.5Z"/><path fill="#FEB1D7" id="XII" d="M245 227c-3.11 0-6.535 3-10 3 0-.003-9.63-1.24-6-8.5 1.203-2.406 1.608-7.054 4.5-8.5 2.72-1.36 11.834-.832 13.5 2.5 2.011 4.023-2 8.411-2 11.5Z"/><path fill="#C8CACA" id="sptV" d="M138 273c3.817 0 6.124 3 9 3 0-2.728-5-5.572-5-7h-3l-1-1-2-1-1-1v-1l-2-2v-1l-1-1v-1l-1-1v-2l-1-1v-1l-1-2v-1l-1-1v-2l-1-2v-1c0-1.235-.643-5 1-5l1-10 1-2 1-1 2-4 1-1 1-1 1-1c1.338 0 7-4.41 7-6l1-1v-1c-3.483 0-4.788 3-9 3 0 3.03-4.309 2.118-5 3.5-2.477 4.955-6 10.587-6 16.5l-1 1v12l1 2 1 6v1l2 4v1l2 2v1c2.847 0 5.004 7 9 7Z"/><path fill="#FF9BCD" id="MY" d="m145 213-1 1v-1h1ZM144 214l-1 1 1-1ZM181 221l-2 2v-4l2 2Z"/><path fill="#FCB3D9" id="PARN" d="M164 270c-3.754 0-8.405 4-10 4-2.666 0-6-2.104-6-5 10.393 0 7.554-20.608 11-27.5 3.553-7.106 20-9.875 20-18.5l2-2c2.128 0 5.608-1.054 7.5-2l9.5 1v1c0 2.777-3.831 4.162-5 6.5-5.161 10.323-12.834 19.668-18 30l-7 8.5-1 1-3 3Z"/><path fill="#FF9BCD" id="MY" d="m200 219-1 1 1-1Z"/><path fill="#FFB2D8" id="IRN" d="M177 275h1l1-1c4.238 0 7.286-11 16-11 0-4.9 17-26.279 17-29v-2l-1-5c-2.648 0-5.356-8-10-8h-1l-1 1-1 1c0 2.777-3.831 4.162-5 6.5-5.161 10.323-12.834 19.668-18 30l-7 8.5-1 1c0 1.145-.579 4 1 4 0-1.747.253-2 2-2l3-3 2-1h4c4.279 0-.263 9-4 9v1h2ZM279 275h2v-1l-4-2.5c-.402-.804-2.3-5.5 0-5.5l1-1h4c2.813 0 3.461 4 5 4l1 2h1v-4c0-3.327-5.244-4.989-7-8.5l-17-28-7-10.5-1-1h-2c-2.241 0-9 5.244-9 8l-2 5v1l18 30c6.766 0 11.672 10 14 10l2 2h1Z"/><path fill="#FF9BCD" id="MY" d="m257 219 1 1-1-1Z"/><path fill="#FCB3D9" id="PARN" d="M292 270c2.075 0 10 1.182 10 4 3.313 0 6-1.457 6-5-9.426 0-7.936-21.372-11-27.5-3.703-7.406-20-10.177-20-19.5l-2-1h-1l-1-1h-15l7 10.5 17 28c1.756 3.511 7 5.173 7 8.5l3 3Z"/><path fill="#FF9BCD" id="MY" d="m199 220-1 1v-1h1ZM273 220l1 1-1-1ZM275 221l2 1v-2l-2 1ZM136 221l-1 1 1-1ZM321 222l1 1-1-1ZM134 223l-1 1 1-1ZM323 224l2 2-2-2Z"/><path fill="#FFB1D9" id="NR" d="M213 233h8v-3c-3.465 0-6.89-3-10-3l1 5 1 1ZM235 233h8l1-1 2-5h-1c-3.11 0-6.535 3-10 3v3Z"/><path fill="#FF9BCD" id="MY" d="m325 227 1 1-1-1ZM131 228l-1 1 1-1ZM130 229l-1 2 1-2ZM213 233l-1 1v-2l1 1ZM243 233h1v-1l-1 1ZM327 232l1 1-1-1Z"/><path fill="#FEB0D8" id="GRN" d="m195 263 4 5.5c1.292 2.583-2 5.121-2 7.5 6.995 0 9.843-2.172 15.5-5l8.5-9v-1l1-1 1-1c0-3.041-.303-4 3-4l1-1c0-1.623 1.457-6 0-6-4.224 0-1-12.197-1-14l-5-1h-8l-1 1c0 2.721-17 24.1-17 29Z"/><path fill="#CBCBCC" id="mlf" d="M227 248c0-1.714-.387-12 1.5-12l.5 12c3.351 0 2-11.528 2-14-.859 0-5-.686-5 0 0 1.803-3.224 14 1 14Z"/><path fill="#FEB0D8" id="GRN" d="m262 263-4 4.5 1 8.5c-4.845 0-15.927-3.354-18-7.5l-8-10.5c0-2.003.293-3-2-3l-2-2v-5c3.351 0 2-11.528 2-14 0-1.579 2.855-1 4-1h9l18 30Z"/><path fill="#C9C9C8" id="icp" d="M333 234v1l-1-1h1ZM124 236l-1 1v-1h1Z"/><path fill="#FF9BCD" id="MY" d="m229 251-2 3c0-1.623 1.457-6 0-6 0-1.714-.387-12 1.5-12l.5 12v3ZM333 237c1.644 0 1.644 14 0 14v-14ZM123 240c-1.622 0-1.622 9 0 9v-9ZM128 241c-1.643 0-1 3.765-1 5 1.643 0 1-3.765 1-5ZM127 247l1 2-1-2Z"/><path fill="#C9C9C8" id="icp" d="M123 251h1l-1-2v2Z"/><path fill="#FF9BCD" id="MY" d="m329 249-1 2 1-2ZM124 251l1 6c-1.995 0-2-4.377-2-6h1ZM128 251l1 1-1-1Z"/><path fill="#FEC6E2" id="RO" d="M227 265h2v-14l-2 3v11Z"/><path fill="#C9C9C8" id="icp" d="M332 253h1v-2l-1 2Z"/><path fill="#FF9BCD" id="MY" d="m328 252-1 1 1-1ZM129 253l1 2-1-2ZM231 255l-2 1v-3l2 2ZM333 253c0 1.048.473 3-1 3v-3h1ZM226 255h1v-1l-1 1Z"/><path fill="#C8C8CC" id="tspc" d="M226 263h1v-8h-1c-3.303 0-3 .959-3 4l-1 1-1 1v1c0 3.379-8.869 11-2 11 2.947 0 3.926-10 7-10ZM230 263c1.54 0 6 6.98 6 9l3.5 1c1.801-.9-.5-3.167-.5-4l-6-11c0-2.003.293-3-2-3l-2 1v6l1 1Z"/><path fill="#FF9BCD" id="MY" d="m327 255-1 1 1-1ZM130 256l1 1-1-1ZM332 256c-1.473 0-1 1.952-1 3 1.473 0 1-1.952 1-3ZM326 257l-1 1 1-1ZM125 258l2 4-2-4Z"/><path fill="#FF9BCD" id="MY" fill-rule="evenodd" d="M237 289c0 9.473 15.571 11.358 17 8.5 2.901-5.802-13.478-8.5-17-8.5m-8 3c0 3.496 5.092 3.796 7.5 5 11.006 5.503 24.656 2 37 2 2.124 0 13.5-1.858 13.5-4-11.664 0 4-2.922 4-6-5.426 0-3-1.216-3-5-4.046 0-7.853 9.824-13.5 7-3.926-1.963-13.695-15-15.5-15-4.845 0-15.927-3.354-18-7.5l-8-10.5 6 11c0 .833 2.301 3.1.5 4l-3.5-1c0 4.727 18.395 17.447 21.5 19 1.145.572 8.5.828 8.5 2.5l-10.5 1.5c-4.013-2.006-7.047-6.023-11-8l-10-1-5.5-4c0 1.079 5.147 10 0 10Z"/><path fill="#FF9BCD" id="MY" d="m131 259 1 1-1-1ZM223 259l-1 1 1-1ZM331 259l-1 2 1-2ZM222 260l-1 1 1-1ZM325 260l-1 1 1-1ZM132 261l1 1-1-1ZM330 261l-1 2 1-2ZM210 289h5c15.669 0-9.763 14.974-13 8.5l5-6.5c-2.558 0-4.36 2.93-6.5 4l-9.5-1.5 6.5-3.5c3.762 0 21.5-9.911 21.5-17-6.869 0 2-7.621 2-11l-8.5 9c-5.657 2.828-8.505 5-15.5 5-1.676 0-10.877 13.189-14.5 15-5.742 2.871-10.398-7-14.5-7 0 3.569 2.552 5-3 5 0 .863 9.99 5.255 8.5 6-3.195 1.597-9.558-2.779-12-4-.939-.47-4.562-4-2.5-4 0-2.226-3.479-4 0-4h1c0-.438-6-3.389-6-9-2.666 0-6-2.104-6-5h-6c0 1.428 5 4.272 5 7 0 2.994 10.472 5.556 8 10.5-.827 1.655-4.252-1.252-5-2-2.615-2.615-12-7.99-12-11.5-3.996 0-6.153-7-9-7 0 4.787 11.832 13.166 15.5 15 2.978 1.489 6.295 6.147 10 8 14.166 7.083 27.822 11 45 11 6.249 0 28.5-1.586 28.5-8-3.348 0-3-4.824-3-7-2.117 0-15 1.718-15 4ZM230 263l-1 2v-3l1 1ZM324 262l-1 1 1-1ZM127 263l2 2-2-2ZM133 263l2 2-2-2Z"/><path fill="#FCB3D7" id="LRNm" d="M160 283c1.49 0 8-.735 8 1 4.102 0 8.758 9.871 14.5 7 3.623-1.811 12.824-15 14.5-15 0-2.379 3.292-4.917 2-7.5l-4-5.5c-8.714 0-11.762 11-16 11l-1 1h-1c0 1.577-1.762 2-3 2h-1c0 1.399-2 1.399-2 0l-1-1-1-2v-1c-1.947 0-2.636-3-5-3-3.754 0-8.405 4-10 4 0 5.611 6 8.562 6 9Z"/><path fill="#FFB3D8" id="IO" d="M210 289c-1.238 0-3 .423-3 2-2.558 0-4.36 2.93-6.5 4l-9.5-1.5 6.5-3.5c3.762 0 21.5-9.911 21.5-17 2.947 0 3.926-10 7-10l1 1v1l1 12v1l-1 1-1 5-1 1c-2.117 0-15 1.718-15 4Z"/><path fill="#FF9BCD" id="MY" d="M227 263v1l-1-1h1Z"/><path fill="#FFB3D8" id="IO" d="M229 277v5l5.5 4 10 1c3.953 1.977 6.987 5.994 11 8l10.5-1.5c0-1.672-7.355-1.928-8.5-2.5-3.105-1.553-21.5-14.273-21.5-19 0-2.02-4.46-9-6-9l-1 2v12Z"/><path fill="#FCB3D7" id="LRNm" d="M297 283c-1.574 0-9-.751-9 1-4.046 0-7.853 9.824-13.5 7-3.926-1.963-13.695-15-15.5-15l-1-8.5 4-4.5c6.766 0 11.672 10 14 10l2 2h1c0 1.84 6 3.862 6 2h1l1-2v-1c1.577 0 2-1.762 2-3l3-1c2.075 0 10 1.182 10 4 0 5.904-5 8.295-5 9Z"/><path fill="#FF9BCD" id="MY" d="m323 263-1 2 1-2ZM329 263l-1 2 1-2ZM175 265l-2 1 2-1Z"/><path fill="#FEB3D8" id="AMBv" d="M179 265c0 6.689-6 8.366-6 1l2-1h4Z"/><path fill="#FF9BCD" id="MY" d="M170 269c0 1.925 3.075 5 5 5 3.737 0 8.279-9 4-9 0 6.689-6 8.366-6 1l-3 3ZM228 277h1v-12h-2l1 12ZM278 265l-1 1 1-1Z"/><path fill="#FEB3D8" id="AMBv" d="m282 265 1 4.5c-2.439 4.879-6-.597-6-3.5l1-1h4Z"/><path fill="#FF9BCD" id="MY" d="M287 269c0 2.284-4.065 5-6 5l-4-2.5c-.402-.804-2.3-5.5 0-5.5 0 2.903 3.561 8.379 6 3.5l-1-4.5c2.813 0 3.461 4 5 4ZM328 265l-1 1 1-1ZM135 266l1 1-1-1ZM168 266l-1 1 1-1ZM168 271l1 2c-1.947 0-2.636-3-5-3l3-3c0 1.145-.579 4 1 4ZM292 270l-3 1v-4l3 3ZM327 267c-1.747 0-2 .253-2 2l2-2ZM138 268l1 1-1-1ZM318 268l-1 1 1-1Z"/><path fill="#FCB2D9" id="PGRNl" d="M173 277h1l1-2v-1c-1.925 0-5-3.075-5-5-1.747 0-2 .253-2 2l1 2v1l1 2 1 1h2ZM285 277h1l1-2v-1l1-3-1-2c0 2.284-4.065 5-6 5v1l4 2Z"/><path fill="#FF9BCD" id="MY" d="M304 287c0 1.518-14.473 8-17 8l9.5-5c.987-.493 2.617-3 .5-3 0-1.896 3.746-4 0-4 0-.705 5-3.096 5-9 3.313 0 6-1.457 6-5h7c0 1.118-6 3.83-6 7 0 1.841-13.629 11-5 11ZM325 269l-1 1 1-1ZM324 270l-1 1 1-1ZM289 271c0 1.238-.423 3-2 3l1-3h1ZM319 273l-10 10c2.431 0 14-9.092 14-12l-4 2Z"/><path fill="#C9CACA" id="sctd" d="M138 273c3.817 0 6.124 3 9 3 0 2.994 10.472 5.556 8 10.5-.827 1.655-4.252-1.252-5-2-2.615-2.615-12-7.99-12-11.5Z"/><path fill="#FF9BCD" id="MY" d="m276 273 2 2-2-2Z"/><path fill="#C9CACA" id="sctd" d="m305 286-1 1c-8.629 0 5-9.159 5-11 3.641 0 5.713-3 10-3l-10 10c-1.429 0-4 1.288-4 3Z"/><path fill="#FF9BCD" id="MY" d="m169 274 1 2-1-2ZM179 274l-1 1 1-1ZM177 275c0 1.577-1.762 2-3 2l1-2h2ZM281 275l4 2c0 1.862-6-.16-6-2h2ZM287 275l-1 2 1-2ZM171 277h2c0 1.399-2 1.399-2 0Z"/><path fill="#FFC6E2" id="RPA" d="M228 292h1c5.147 0 0-8.921 0-10v-5h-1v1l-1 1-1 5-1 1c0 2.176-.348 7 3 7Z"/><path fill="#FF9BCD" id="MY" d="m228 278-1 1 1-1Z"/><path fill="#C8C8CB" id="rust" d="M164 289h1c5.552 0 3-1.431 3-5 0-1.735-6.51-1-8-1 0 2.212-1 2.212-1 0-3.479 0 0 1.774 0 4l4 1 1 1Z"/><path fill="#FEB0D9" id="LRNp" d="M159 283h1c0 2.212-1 2.212-1 0Z"/><path fill="#C8C8CB" id="rust" fill-rule="evenodd" d="M296 284c0 1.93 1.93 0 0 0m-5 5h1l2-1 3-1c0-1.896 3.746-4 0-4-1.574 0-9-.751-9 1 0 3.784-2.426 5 3 5Z"/><path fill="#FF9BCD" id="MY" d="M309 283c-1.429 0-4 1.288-4 3 1.429 0 4-1.288 4-3ZM226 284l-1 1 1-1Z"/><path fill="#FEB0D9" id="LRNp" d="M296 284c0 1.93 1.93 0 0 0Z"/><path fill="#FF9BCD" id="MY" d="m305 286-1 1 1-1Z"/><path fill="#CBC7CC" id="sctv" d="M164 289h1c0 .863 9.99 5.255 8.5 6-3.195 1.597-9.558-2.779-12-4-.939-.47-4.562-4-2.5-4l4 1 1 1ZM291 289h1l2-1 3-1c2.117 0 .487 2.507-.5 3l-9.5 5c-11.664 0 4-2.922 4-6Z"/><path fill="#FF9BCD" id="MY" d="m163 288 1 1-1-1ZM294 288l-2 1 2-1ZM210 289c-1.238 0-3 .423-3 2 1.238 0 3-.423 3-2Z"/><path fill="#C7C9C9" id="py" d="M210 289h5c15.669 0-9.763 14.974-13 8.5l5-6.5c1.238 0 3-.423 3-2ZM237 289c0 9.473 15.571 11.358 17 8.5 2.901-5.802-13.478-8.5-17-8.5Z"/></svg>