<svg xmlns="http://www.w3.org/2000/svg" viewBox="0 0 456 320"><path fill="#098589" id="VISp1" d="m82 53 3 3c3.532 0 14.041-10.77 18.5-13 17.105-8.552 41.599-24 61.5-24l-1-4-5.5 2h-7c-5.65 2.825-12.453 3.226-18 6-11.747 5.873-23.139 12.07-35 18C96.418 42.041 82 51.265 82 53Z"/><path fill="#0A8589" id="VISpm1" d="M165 19h10v-4h-11l1 4Z"/><path fill="#1BA696" id="RSPagl1" d="M175 19h17l1-4h-18v4Z"/><path fill="#1BA598" id="RSPd1" d="M204 37c0 .302 5.147 0 6 0l1-1c0-13.227-1.968-13.234-13.5-19l-4.5-2-1 4c5.563 0 17.506 6.488 14 13.5l-2 4.5ZM254 37v1l-8-2c-2.389 0-.571-9.357 0-10.5 2.747-5.495 12.093-10.5 18-10.5v4c-4.99 0-10.796 3.091-13 7.5-1.147 2.294-.258 10.5 3 10.5Z"/><path fill="#1BA696" id="RSPagl1" d="M264 19h17v-4h-17v4Z"/><path fill="#0A8589" id="VISpm1" d="M281 19h10l1-4h-11v4Z"/><path fill="#098589" id="VISp1" d="M371 57h1l2-4c0-2.14-14.138-10.819-16.5-12l-40-20c-4.347-2.174-17.115-2.558-20-4-2.084-1.042-2.908-2-5.5-2l-1 4c23.398 0 43.875 16.187 63.5 26 2.151 1.075 16.5 10.069 16.5 12Z"/><path fill="#1AA496" id="RSPagl2/3" d="m174 26 1 1c2.962 0 9.675-2 15-2h1l1-6h-17c0 2.41-1 5.181-1 7ZM282 26v1l-4.5-2H266l-2-6h17l1 7Z"/><path fill="#0A828C" id="VISp2/3" d="m85 57 5 6c4.164 0 7.921-5.21 11.5-7 11.536-5.768 22.453-12.227 34-18l22-9c1.468-.734 8.5.099 8.5-2l-1-8c-19.901 0-44.395 15.448-61.5 24-4.459 2.23-14.968 13-18.5 13v1Z"/><path fill="#08858B" id="VISpm2/3" d="M166 27h1l7-1c0-1.819 1-4.59 1-7h-10l1 8Z"/><path fill="#1BA697" id="RSPd2/3" d="M202 38c0-.69-5.011 1-7 1 0-3.556 5.551-14-4-14l1-6c5.563 0 17.506 6.488 14 13.5l-2 4.5-2 1ZM254 37c2.467 0 6.233 3 9 3 0-1.676-10.924-15 3-15l-2-6c-4.99 0-10.796 3.091-13 7.5-1.147 2.294-.258 10.5 3 10.5Z"/><path fill="#08858B" id="VISpm2/3" d="m282 26 8 1 1-8h-10l1 7Z"/><path fill="#0A828C" id="VISp2/3" d="M366 64h1c0-2.83 4-4.54 4-7 0-1.931-14.349-10.925-16.5-12-19.625-9.813-40.102-26-63.5-26l-1 8c15.732 0 44.06 18.78 58.5 26 2.167 1.083 17.5 9.565 17.5 11Z"/><path fill="#1CA697" id="RSPagl5" d="M169 37h7c4.371 0 14-7.1 14-12-5.325 0-12.038 2-15 2h-1c0 3.88-5 6.823-5 10Z"/><path fill="#1AA596" id="RSPd5" d="M192 40h1l2-1c0-3.556 5.551-14-4-14h-1c0 4.9-9.629 12-14 12v1c3.397 0-1 7.36-1 8 9.632 0 8.679-6 17-6ZM264 40c7.004 0 13.351 7 19 7l-4-4.5c-.978-1.956 1-4.077 1-5.5-4.484 0-14-7.93-14-12-13.924 0-3 13.324-3 15h1Z"/><path fill="#1CA697" id="RSPagl5" d="M281 37c2.409 0 5.181 1 7 1 0-3.241-6-7.082-6-11l-4.5-2H266c0 4.07 9.516 12 14 12h1Z"/><path fill="#09828B" id="VISpm4" d="M174 27h1l-1-1-7 1v2l7-2ZM289 29h1v-2l-8-1v1l7 2Z"/><path fill="#0B848B" id="VISp4" d="M93 69h1c0-1.269 14.449-8.975 16.5-10 12.594-6.297 44.038-29 56.5-29v-3h-1c0 2.099-7.032 1.266-8.5 2l-22 9c-11.547 5.773-22.464 12.232-34 18-3.579 1.79-7.336 7-11.5 7v1c1.077 0 3 3.762 3 5Z"/><path fill="#088489" id="VISpm5" d="M167 38h1l1-1c0-3.177 5-6.12 5-10l-7 2v9ZM288 38l2 1c0-2.69-1-6.675-1-10l-7-2c0 3.918 6 7.759 6 11Z"/><path fill="#0B848B" id="VISp4" d="m366 64-3 5-15.5-10c-13.33-6.665-25.598-15.299-39-22-4.513-2.257-9.437-3.719-14-6-1.119-.56-4.5-.155-4.5-2v-2c15.732 0 44.06 18.78 58.5 26 2.167 1.083 17.5 9.565 17.5 11Z"/><path fill="#088389" id="VISp5" d="M357 78h1l5-9-15.5-10c-13.33-6.665-25.598-15.299-39-22-4.513-2.257-9.437-3.719-14-6-1.119-.56-4.5-.155-4.5-2h-1c0 3.325 1 7.31 1 10 11.5 0 39.772 22.136 51.5 28 2.981 1.49 15.5 8.147 15.5 11ZM94 69c0 1.738 3.015 8 5 8 4.913 0 11.132-7.816 15.5-10 11.19-5.595 41.006-28 51.5-28h1v-9c-12.462 0-43.906 22.703-56.5 29-2.051 1.025-16.5 8.731-16.5 10Z"/><path fill="#1BA597" id="RSPv1" d="m164 67 1 2 9.5-10c8.075-4.037 16.093-14 26.5-14l9-8c-.853 0-6 .302-6 0l-2 1c0 1.996-6.945 4.222-8.5 5-4.834 2.417-29.5 18.411-29.5 24ZM211 36l-1 1 1-1ZM293 67l-1 2-11.5-11c-7.379-7.379-18.202-10.601-27-15-2.386-1.193-7.5-3.625-7.5-7l8 2 7.5 5c5.933 2.966 31.5 18.344 31.5 24Z"/><path fill="#1CA597" id="RSPagl6a" d="M166 40c0 3.398-7 5.13-7 9 3.283 0 11.519-11 17-11v-1h-7l-1 1-1 1-1 1Z"/><path fill="#1AA597" id="RSPv2/3" d="m161 65 3 2c0-5.589 24.666-21.583 29.5-24 1.555-.778 8.5-3.004 8.5-5 0-.69-5.011 1-7 1l-2 1h-1c0 2.24-11.418 7.959-13.5 9L161 65ZM295 65l-2 2c0-5.656-25.567-21.034-31.5-24l-7.5-5v-1c2.467 0 6.233 3 9 3h1c0 2.104 6.951 4.226 8.5 5 2.351 1.175 22.5 19.439 22.5 20Z"/><path fill="#1AA697" id="RSPd6a" d="M299 56v1c-6.287 0-9.501-10-16-10l-4-4.5c-.978-1.956 1-4.077 1-5.5h1c0 1.26 19 11.304 19 16-1.652 0-3.092 2-1 2v1Z"/><path fill="#1CA597" id="RSPagl6a" d="M300 53h1l-11-14-2-1c-1.819 0-4.591-1-7-1 0 1.26 19 11.304 19 16Z"/><path fill="#09858B" id="VISpm6a" d="m168 38-1 1v-1h1Z"/><path fill="#1AA697" id="RSPd6a" d="M157 56v1c5.604 0 8.664-8 14-8l1-1 2-1 1-1c0-.64 4.397-8 1-8-5.481 0-13.717 11-17 11l-1 1-1 1v2c1.399 0 1.399 2 0 2v1Z"/><path fill="#08858C" id="VISp6a" d="M103 85h1c0-1.772 7.346-6 9-6 0-1.617 4.583-4 6-4 0-2.177 4.336-4 6-4 0-1.617 4.583-4 6-4 0-1.617 4.583-4 6-4 0-1.948 5.428-4 7-4 0-2.168 9.098-6 11-6h1l1-2 1-1 1-1c0-3.87 7-5.602 7-9v-1c-10.494 0-40.31 22.405-51.5 28-4.368 2.184-10.587 10-15.5 10v1c0 2.757 4 4.081 4 7Z"/><path fill="#09858B" id="VISpm6a" d="m167 39-1 1v-1h1Z"/><path fill="#1BA697" id="RSPd2/3" d="m195 39-2 1 2-1Z"/><path fill="#08858C" id="VISp6a" d="M357 78c0 2.83-4 4.54-4 7l-12.5-9c-8.982-4.49-30.791-23-39.5-23l-11-14c11.5 0 39.772 22.136 51.5 28 2.981 1.49 15.5 8.147 15.5 11Z"/><path fill="#1BA498" id="RSPv5" d="m157 61 4 4 17.5-16c2.082-1.041 13.5-6.76 13.5-9-8.321 0-7.368 6-17 6l-1 1-2 1-1 1c0 3.069-11.423 12-14 12ZM299 61c0 1.365-2.366 4-4 4 0-.561-20.149-18.825-22.5-20-1.549-.774-8.5-2.896-8.5-5 7.004 0 13.351 7 19 7l3 3.5L299 61Z"/><path fill="#FF7AFD" id="SCzo" d="m294 80 1 1v-4c-2.876 0-6.795-11.147-10.5-13-2.971-1.486-5.707-5.853-8-7-8.169-4.084-15.867-8.934-24-13-7.624-3.812-16.266 3.266-21.5 8.5-1.641 1.642-.179 6.5-2.5 6.5l-1.5-4.5-7.5-7.5c-13.109-6.555-7.605-2-18.5-2 0 2.47-7.754 4.127-9.5 5-4.596 2.298-26.5 17.33-26.5 23l12.5-12c13.35-6.675 36.933-27.634 48.5-4.5V69h4V57.5c10.789-21.578 38.091-6.909 50.5 5.5 4.344 4.344 13.5 10.237 13.5 17Z"/><path fill="#1AA596" id="RSPd5" d="m175 46-1 1 1-1Z"/><path fill="#FF78FF" id="SCsg" d="m164 75-1 4c5.487 0 11.692-7.596 16.5-10 9.048-4.524 18.967-7.483 28-12 10.64-5.32 16.819 12 18.5 12V56.5c-11.567-23.134-35.15-2.175-48.5 4.5L165 73l-1 2ZM230 69c2.376 0 8.588-17.456 19.5-12 11.177 5.589 22.753 10.377 34 16l10.5 7c0-6.763-9.156-12.656-13.5-17-12.409-12.409-39.711-27.078-50.5-5.5V69Z"/><path fill="#1AA498" id="RSPv6a" d="M299 61h2l-2-4c-6.287 0-9.501-10-16-10l3 3.5L299 61ZM172 48l-1 1 1-1Z"/><path fill="#1CA597" id="RSPagl6a" d="m159 49-1 1 1-1Z"/><path fill="#1AA498" id="RSPv6a" d="M155 61h2c2.577 0 14-8.931 14-12-5.336 0-8.396 8-14 8l-2 4Z"/><path fill="#1CA597" id="RSPagl6a" d="m158 50-1 1 1-1ZM156 53h1v-2l-1 2Z"/><path fill="#09848A" id="VISl1" d="M67 74h1c0-1.783 10.906-12.203 12.5-13 1.19-.595 2.317-4 4.5-4v-1l-3-3c-1.202 0-17 16.847-17 18 1.577 0 2 1.762 2 3Z"/><path fill="#08858A" id="VISp6b" d="M155 54c0 1.302-9.231 5-11 5 0-2.168 9.098-6 11-6v1Z"/><path fill="#1AA598" id="RSPagl6b" d="M155 54h1v-1h-1v1Z"/><path fill="#1BA698" id="RSPd6b" d="m156 54 1 1c1.399 0 1.399-2 0-2h-1v1ZM301 54l-2 1c-2.092 0-.652-2 1-2h1v1Z"/><path fill="#08858A" id="VISp6b" d="m353 85-1 1c-4.955 0-28.238-23-35-23l-12.5-8c-1.046-.523-3.5.952-3.5-1v-1c8.709 0 30.518 18.51 39.5 23l12.5 9Z"/><path fill="#09848A" id="VISl1" d="m391 71-2 2-17-16 2-4c1.535 0 17 15.82 17 18Z"/><path fill="#C9C9CA" id="scwm" d="M139 63h3l15-7v-1l-1-1h-1c0 1.302-9.231 5-11 5l-5 4ZM315 63h2l-12.5-8c-1.046-.523-3.5.952-3.5-1l-2 1v1c5.955 0 10.239 7 16 7Z"/><path fill="#C8C9CA" id="fp" d="M80 113h1l2-2 2-2c0-1.712 2.571-3 4-3 0-1.712 2.571-3 4-3 0-1.577 1.762-2 3-2 0-1.577 1.762-2 3-2l4-2c0-2.911 6.752-4 9-4l-1-3.5c2.484-4.969 25.057-20.5 31-20.5h2c3.817 0 6.758-8 11-8l2-4v-1l-15 7c0 3.724-11.937 8.718-14.5 10-6.66 3.33-36.084 24.668-38.5 29.5-1.766 3.532-10 6.148-10 10.5h1ZM377 113h1l-11.5-12c-8.968-8.968-26.312-22.156-38-28-3.087-1.543-13.5-6.19-13.5-10-5.761 0-10.045-7-16-7v1l2 4c2.025 0 10 5.267 10 7l1 1h3c6.416 0 30 16.908 30 24 8.613 0 15.835 8.668 22.5 12 3.872 1.936 5.933 8 9.5 8Z"/><path fill="#0A8489" id="VISl2/3" d="m68 74 5 5c0-2.758 11.22-10.86 13.5-12l3.5-3v-1l-5-6c-2.183 0-3.31 3.405-4.5 4-1.594.797-12.5 11.217-12.5 13Z"/><path fill="#FD7AFF" id="SCop" d="M161 84c.41 0 29.118-15.309 32.5-17 4.846-2.423 16.775-5.613 22-3l10 11 2-3 3 3 12-12c2.92-1.46 8.777.888 11 2 4.448 2.224 10.552 1.776 15 4l16 8 10.5 7v-3l-1-1-10.5-7c-11.247-5.623-22.823-10.411-34-16-10.912-5.456-17.124 12-19.5 12h-4c-1.681 0-7.86-17.32-18.5-12-9.033 4.517-18.952 7.476-28 12-4.808 2.404-11.013 10-16.5 10l-2 2v3Z"/><path fill="#0A8489" id="VISl2/3" d="m389 74-5 5-17-15c0-2.83 4-4.54 4-7h1l17 16v1Z"/><path fill="#08858A" id="VISp6b" d="M137 63h2l5-4c-1.572 0-7 2.052-7 4Z"/><path fill="#47C83C" id="POST" d="M124 109c5.675 0 11.954 1 17 1l6-8v-1l1-1 1-1 1-2v-1l1-1v-1l1-1 1-1v-1l1-1 1-1v-1l1-1 1-1 4-8 1-2 1-1 1-2 1-4-1-2-3-2-4-4h-2c-4.242 0-7.183 8-11 8l-2 2-1 2-1 1v1l-1 1v1l-1 1v1l-1 1v1l-1 1v1l-1 1-1 3-1 1v1l-1 1-1 1-2 2-2 4-3 12ZM333 109c-5.587 0-12.081 1-17 1l-7-9v-1l-1-1-1-1v-1l-1-1-2-3v-1l-1-1-2-2v-1l-1-1c0-1.736-2.935-9-5-9v-1c0-3.054-3-4.55-3-8l1-2 2-2c1.634 0 4-2.635 4-4h2c2.025 0 10 5.267 10 7l1 1h1c0 1.238.423 3 2 3v1l2 2v1l1 1v1l1 1 1 3 1 1 4 8 5 7c0 4.275 3 7.621 3 11Z"/><path fill="#08858A" id="VISp6b" d="M137 63c-1.417 0-6 2.383-6 4 2.244 0 6-1.725 6-4Z"/><path fill="#CBC9C7" id="or" d="m65 130-1 2c4.929 0 10.21-19 15-19 0-4.352 8.234-6.968 10-10.5 2.416-4.832 31.84-26.17 38.5-29.5 2.563-1.282 14.5-6.276 14.5-10h-5c0 2.275-3.756 4-6 4 0 2.177-4.336 4-6 4 0 1.617-4.583 4-6 4 0 2.177-4.336 4-6 4 0 1.942-6.754 7-9 7L89 98l-2 1c0 1.747-.253 2-2 2 0 1.747-.253 2-2 2 0 1.747-.253 2-2 2v1l-10 12.5-6 10.5v1Z"/><path fill="#FF90FF" id="SCig" d="m307 117-2 2-4-2c0-21.184-21.651-29.075-37.5-37-4.211-2.105-13.313-8.844-19-6-5.724 2.862-7.141 8.07-13 11-1.972.986-2.786-1.107-5 0-1.716.858-11.557-11-17-11-14.921 0-26.491 12.746-39 19-3.281 1.64-9.562 4.625-11.5 8.5-2.339 4.678-4 9.892-4 15.5l-4 2-2-2c0-3.649-2-7.489-2-12v-1l1-2v-1l1-2 1-1 1-1v-1c1.577 0 2-1.762 2-3 1.577 0 2-1.762 2-3l1-1 1-1 1-1 1-2h1l1-1c.41 0 29.118-15.309 32.5-17 4.846-2.423 16.775-5.613 22-3l10 11 2-3 3 3 12-12c2.92-1.46 8.777.888 11 2 4.448 2.224 10.552 1.776 15 4l16 8 10.5 7 2 2 1 1 9 11v1l1 3 1 1v1l1 8.5-3 4.5Z"/><path fill="#CBC9C7" id="or" d="M392 131v1c-3.964 0-11.313-19-14-19l-11.5-12c-8.968-8.968-26.312-22.156-38-28-3.087-1.543-13.5-6.19-13.5-10h2c6.762 0 30.045 23 35 23l15 12 9 8c0 4.497 8.965 10.429 11 14.5.718 1.435 3.76 10.5 5 10.5Z"/><path fill="#08828B" id="VISl4" d="m73 80 3 2 13-9.5 4-3.5c0-1.238-1.923-5-3-5l-3.5 3C84.22 68.14 73 76.242 73 79v1ZM380 83h1l3-3v-1l-17-15h-1l-3 5 13.5 10 3.5 4Z"/><path fill="#08858A" id="VISp6b" d="M131 67c-1.417 0-6 2.383-6 4 1.664 0 6-1.823 6-4Z"/><path fill="#7DCD4B" id="HPF" d="m311 68 1 1-1-1Z"/><path fill="#0B858B" id="VISl5" d="m76 83 7 7c3.474 0 11.386-12 16-12v-1c-1.985 0-5-6.262-5-8h-1l-4 3.5L76 82v1Z"/><path fill="#C9CCC9" id="dhc" d="M122 95h2c2.25 0 3.376-2 5-2l2-2 1-1 1-1v-1l1-1 1-3 1-1v-1l1-1v-1l1-1v-1l1-1v-1l1-1v-1l1-1 1-2v-2c-5.943 0-28.516 15.531-31 20.5l1 3.5c2.108 0 10-.789 10 2Z"/><path fill="#7DCD4B" id="HPF" d="m144 69-2 2v-2h2ZM315 69v3c-1.577 0-2-1.762-2-3h2Z"/><path fill="#C9CCC9" id="dhc" d="M333 95h1c0-2.896 8.797-2 11-2 0-7.092-23.584-24-30-24v4l2 2v1l1 1v1l1 1 1 3 1 1 4 8c2.622 0 4.285 4 8 4Z"/><path fill="#0B858B" id="VISl5" d="M373 91h1c0-2.956 6-4.814 6-8l-3.5-4L363 69l-5 9c1.202 0 15 11.246 15 13Z"/><path fill="#0C858C" id="VISli1" d="M59 84h1l7-10c0-1.238-.423-3-2-3-2.115 0-8 8.185-8 10 0 2.215 2 1.519 2 3Z"/><path fill="#08858A" id="VISp6b" d="M125 71c-1.664 0-6 1.823-6 4 1.417 0 6-2.383 6-4Z"/><path fill="#7DCD4B" id="HPF" d="m142 71-1 2 1-2Z"/><path fill="#0C858C" id="VISli1" d="M400 81c0 1.577-1.762 2-3 2-1.222 0-8-7.195-8-9v-1l2-2c1.593 0 9 7.863 9 10Z"/><path fill="#7DCD4B" id="HPF" d="m141 73-1 1 1-1Z"/><path fill="#FF7AFD" id="SCzo" d="m165 73-1 2v-2h1Z"/><path fill="#7DCD4B" id="HPF" d="m315 73 2 2-2-2Z"/><path fill="#0A858A" id="VISli2/3" d="M64 89h1l8-9v-1l-5-5h-1l-7 10 4 5Z"/><path fill="#FF90FE" id="SCiw" d="M169 119c0-3.276 19.127-20.314 22.5-22 5.588-2.794 10.401-9.7 17-13 4.797-2.398 15.304 2.152 19 4 2.725 1.362 15.277-6.861 21-4 7.186 3.593 21.287 14.074 24.5 20.5 2.623 5.246 14 6.988 14 14.5l6.5 1 7.5-3c0-21.184-21.651-29.075-37.5-37-4.211-2.105-13.313-8.844-19-6-5.724 2.862-7.141 8.07-13 11-1.972.986-2.786-1.107-5 0-1.716.858-11.557-11-17-11-14.921 0-26.491 12.746-39 19-3.281 1.64-9.562 4.625-11.5 8.5-2.339 4.678-4 9.892-4 15.5 2.029 0 1.881 1.191 3.5 2 3.395 1.698 7.353 0 10.5 0Z"/><path fill="#0A858A" id="VISli2/3" d="M392 89h1c0-1.061 2.571-5 4-5v-1c-1.222 0-8-7.195-8-9l-5 5v1l8 9Z"/><path fill="#08858A" id="VISp6b" d="M119 75c-1.417 0-6 2.383-6 4 1.664 0 6-1.823 6-4Z"/><path fill="#7DCD4B" id="HPF" d="m140 75-1 1 1-1Z"/><path fill="#FF7AFD" id="SCzo" d="m163 79-2 2v-3l1-2 1-1h1l-1 4Z"/><path fill="#7DCD4B" id="HPF" d="m317 76 1 1-1-1ZM139 77l-1 1 1-1Z"/><path fill="#08848C" id="VISl6a" d="M88 97h1c0-5.562 14-7.88 14-12 0-2.919-4-4.243-4-7-4.614 0-12.526 12-16 12v1l5 6Z"/><path fill="#7DCD4B" id="HPF" d="m318 78 1 1-1-1Z"/><path fill="#08848C" id="VISl6a" d="M368 97h1c0-2.58 4-3.211 4-6 0-1.754-13.798-13-15-13h-1c0 2.83-4 4.54-4 7 3.494 0 13.628 12 15 12Z"/><path fill="#08858A" id="VISp6b" d="M104 85v1c2.246 0 9-5.058 9-7-1.654 0-9 4.228-9 6Z"/><path fill="#7DCD4B" id="HPF" d="m138 79-1 1 1-1Z"/><path fill="#08828C" id="VISli4" d="M65 89c0 1.747.253 2 2 2 3.324 0 5.254-8 9-8v-1l-3-2-8 9ZM389 92h1l2-2v-1l-8-9-3 3c1.694 0 8 7.539 8 9Z"/><path fill="#15B0B3" id="TEa1" d="m33 140-5 1c0-16.173 6.361-27.223 13-40.5l5-6C47.244 92.012 53.501 81 57 81c0 2.215 2 1.519 2 3L47 99.5c-6.395 12.79-14 23.968-14 39.5v1Z"/><path fill="#7DCD4B" id="HPF" d="m137 81-1 1 1-1Z"/><path fill="#15B0B3" id="TEa1" d="m424 140 5 1c0-15.754-7.467-28.434-14-41.5l-4-4c-1.427-2.855-8.337-14.5-11-14.5 0 1.577-1.762 2-3 2v1l12 15.5c6.29 12.579 15 24.368 15 39.5v1Z"/><path fill="#7DCD4B" id="HPF" d="m320 82 1 1-1-1Z"/><path fill="#0A848A" id="VISli5" d="M67 93c3.352 0 4.781 6 8 6 3.45 0 4.953-8 8-8v-1l-7-7c-3.746 0-5.676 8-9 8v2Z"/><path fill="#7DCD4B" id="HPF" d="m136 83-1 1 1-1Z"/><path fill="#C7CBCB" id="bsc" d="M160 84h1v-1l-1 1ZM307 97v1l-9-11-1-1-2-2v-1c2.215 0 1.519 2 3 2l1 1 1 1 1 1v1l2 2v1l1 1 2 3 1 1Z"/><path fill="#0A848A" id="VISli5" d="M381 100h1l7-8c0-1.461-6.306-9-8-9h-1c0 3.186-6 5.044-6 8l7 9Z"/><path fill="#16AFB3" id="TEa2/3" d="M40 138c-1.819 0-4.59 1-7 1 0-15.532 7.605-26.71 14-39.5L59 84h1l4 5-1 3c-3.072 0-5.805 7.305-7.5 9-8.794 8.794-15.5 24.395-15.5 37Z"/><path fill="#C7CBCB" id="bsc" d="M159 85h1v-1l-1 1Z"/><path fill="#FF64FF" id="MB" d="m161 84-1 1v-1h1Z"/><path fill="#FF8FFF" id="SCdg" d="M273 125h1c0-1.56 13-1.167 13-6 0-7.512-11.377-9.254-14-14.5-3.213-6.426-17.314-16.907-24.5-20.5-5.723-2.861-18.275 5.362-21 4-3.696-1.848-14.203-6.398-19-4-6.599 3.3-11.412 10.206-17 13-3.373 1.686-22.5 18.724-22.5 22 1.384 0 5.976 4.238 7.5 5 1.238.619 5.5-1.144 5.5 1h2l8-4c0-10.42 5.415-22.458 16.5-28 5.113-2.557 11.42 0 17 0l19-1c11.586 5.793 20.5 15.69 20.5 29 0 3.403 8 1.851 8 4Z"/><path fill="#16AFB3" id="TEa2/3" d="M416 138c2.254 0 4.577 1 8 1 0-15.132-8.71-26.921-15-39.5L397 84c-1.429 0-4 3.939-4 5v2c2.232 0 8.022 9.544 9 11.5 6.153 12.306 14 20.446 14 35.5Z"/><path fill="#09858C" id="VISl6b" d="M89 97v1l15-12v-1h-1c0 4.12-14 6.438-14 12Z"/><path fill="#C7CBCB" id="bsc" d="M158 86v1l1-2-1 1Z"/><path fill="#CAC7CB" id="fiber tracts" d="m298 85 1 1-1-1Z"/><path fill="#09858C" id="VISl6b" d="m368 97-1 1-15-12 1-1c3.494 0 13.628 12 15 12Z"/><path fill="#CAC7CB" id="fiber tracts" d="M157 87h1v-1h-1v1Z"/><path fill="#FF64FF" id="MB" d="m297 86 1 1-1-1Z"/><path fill="#7DCD4B" id="HPF" d="m134 87-1 1 1-1Z"/><path fill="#CAC7CB" id="fiber tracts" d="M156 88h1v-1h-1v1Z"/><path fill="#C7CBCB" id="bsc" d="m158 87-1 1v-1h1Z"/><path fill="#CAC7CB" id="fiber tracts" d="m300 87 1 1-1-1ZM155 89h1v-1h-1v1Z"/><path fill="#C7CBCB" id="bsc" d="m157 88-1 1v-1h1Z"/><path fill="#0A828A" id="VISpor4" d="m67 93-4 4v-5l1-3h1c0 1.747.253 2 2 2v2Z"/><path fill="#7DCD4B" id="HPF" d="m133 89-1 1 1-1Z"/><path fill="#CAC7CB" id="fiber tracts" d="M154 90h1v-1l-1 1Z"/><path fill="#C7CBCB" id="bsc" d="m156 89-1 1v-1h1Z"/><path fill="#CAC7CB" id="fiber tracts" d="m301 89 2 2-2-2Z"/><path fill="#0A8389" id="VISpor2/3" d="M392 90h1v-1h-1v1Z"/><path fill="#7DCD4B" id="HPF" d="m132 90-1 1 1-1Z"/><path fill="#C7CBCB" id="bsc" d="M153 92v1c1.577 0 2-1.762 2-3h-1l-1 1v1Z"/><path fill="#0A828A" id="VISpor4" d="M393 97h1c0-2.813-1-3.921-1-6v-1h-1l-2 2 3 5Z"/><path fill="#088488" id="VISli6a" d="M80 105h1c0-1.747.253-2 2-2 0-1.747.253-2 2-2 0-1.747.253-2 2-2l1-2-5-6c-3.047 0-4.55 8-8 8v2l4 4h1Z"/><path fill="#7DCD4B" id="HPF" d="m333 95-3 3-5-7c2.622 0 4.285 4 8 4Z"/><path fill="#088488" id="VISli6a" d="M376 105h1l4-5-7-9h-1c0 2.789-4 3.42-4 6l7 8Z"/><path fill="#15B0B2" id="TEa4" d="M414 138h2c0-15.054-7.847-23.194-14-35.5-.978-1.956-6.768-11.5-9-11.5 0 2.079 1 3.187 1 6v2c1.853 0 5.969 7.438 7 9.5 4.693 9.386 13 18.325 13 29.5ZM40 138h3c0-12.749 8.715-20.93 14-31.5.791-1.582 3.942-8.5 6-8.5v-6c-3.072 0-5.805 7.305-7.5 9-8.794 8.794-15.5 24.395-15.5 37Z"/><path fill="#CAC7CB" id="fiber tracts" d="M152 93h1v-1l-1 1Z"/><path fill="#FF8FFE" id="SCdw" d="M263 121h2c0-13.31-8.914-23.207-20.5-29l-19 1c-5.58 0-11.887-2.557-17 0-11.085 5.542-16.5 17.58-16.5 28h2c0-9.548 8.507-21.504 17.5-26h34c6.947 3.474 17.5 17.101 17.5 26Z"/><path fill="#CAC7CB" id="fiber tracts" d="M304 92v1l-1-1h1Z"/><path fill="#0B838A" id="VISpor5" d="m382 100 7 8.5 5 8.5c0-5.466 1.186-9.128-1-13.5-.682-1.365.931-4.5 1-4.5v-1l-1-1-3-5h-1l-7 8ZM62 117h1c0-3.258 8.934-16 12-16v-2c-3.219 0-4.648-6-8-6l-4 4v1c0 7.684-1 10.715-1 19Z"/><path fill="#C7C8CC" id="alv" d="M122 95c-6.907 0-12.954 2-19 2 0-2.911 6.752-4 9-4 2.108 0 10-.789 10 2Z"/><path fill="#7DCD4B" id="HPF" d="m124 95 3 2 2-4c-1.624 0-2.75 2-5 2Z"/><path fill="#CAC7CB" id="fiber tracts" d="m152 93-1 1 1-1Z"/><path fill="#C7CBCB" id="bsc" d="M151 95v1c1.577 0 2-1.762 2-3h-1l-1 1v1Z"/><path fill="#C7C8CC" id="alv" d="M377 113c0 6.094 10 10.4 10 17-1.727 0-3.372-5.244-4-6.5-2.043-4.085-11.481-16.5-16-16.5 0-2.417-4.092-3.296-5.5-4-11.367-5.683-13.413-8-27.5-8 0-2.896 8.797-2 11-2 8.613 0 15.835 8.668 22.5 12 3.872 1.936 5.933 8 9.5 8Z"/><path fill="#4FC244" id="SUB" d="m124 109-20 24-3-5.5c-2.408-4.816-11-16.66-11-21.5l3-3c1.238 0 3-.423 3-2 1.238 0 3-.423 3-2 1.465 0 4 .109 4-2 6.046 0 12.093-2 19-2h2l3 2-3 12Z"/><path fill="#CAC7CB" id="fiber tracts" d="M150 96h1v-1l-1 1Z"/><path fill="#FC8FFF" id="PAG" fill-rule="evenodd" d="M220 135c0 1.519-13.886 6.807-7.5 10 4.837 2.419 19.518-10 7.5-10m20 14h3l1-1 1-1c3.719 0 9.027-10.527 12.5-14l4.5-5 1-7c0-8.899-10.553-22.526-17.5-26h-34c-8.993 4.496-17.5 16.452-17.5 26v7c4.042 0 13.88 19 17 19 1.974 0 3.517 2 6 2 0-2.461 3.378-2 5-2 4.716 0 5-19.785 5-24l-1-3.5c1.09-2.18 5-1.265 5 1l-2 2.5c0 4.272 2 8.237 2 13l4.5-1c1.809.905 14.143 6.928 8 10-5.651 2.825-8.382-7-12.5-7 0 2.444-.913 9 3 9 2.518 0 4.286 2 6 2Z"/><path fill="#4FC244" id="SUB" d="M333 109c0 2.175 12.246 16.746 15 19.5l5 5.5c0-6.242 7.269-14.038 10-19.5.675-1.35 2.239-7.5 4-7.5 0-2.417-4.092-3.296-5.5-4-11.367-5.683-13.413-8-27.5-8h-1l-3 3c0 4.275 3 7.621 3 11Z"/><path fill="#C7CBCB" id="bsc" d="M150 97h1v-1h-1v1Z"/><path fill="#CAC7CB" id="fiber tracts" d="m306 96 1 1-1-1Z"/><path fill="#08818B" id="VISli6b" d="m89 98-2 1 1-2h1v1Z"/><path fill="#C7C8CC" id="alv" d="m103 97-4 2c1.465 0 4 .109 4-2Z"/><path fill="#C7CBCB" id="bsc" d="m150 98-1 1 1-2v1Z"/><path fill="#FF64FF" id="MB" d="m151 97-1 1v-1h1Z"/><path fill="#08818B" id="VISli6b" d="M376 105v1l-9-8 1-1h1l7 8Z"/><path fill="#15AFB3" id="TEa5" d="M394 97v1l-1-1h1ZM43 138h11c0-7.726 8-13.875 8-21 0-8.285 1-11.316 1-19-2.058 0-5.209 6.918-6 8.5-5.285 10.57-14 18.751-14 31.5Z"/><path fill="#CAC7CB" id="fiber tracts" d="M307 99h1l-1-1v1Z"/><path fill="#08818B" id="VISli6b" d="M87 99c-1.747 0-2 .253-2 2 1.747 0 2-.253 2-2Z"/><path fill="#C7C8CC" id="alv" d="M99 99c-1.238 0-3 .423-3 2 1.238 0 3-.423 3-2Z"/><path fill="#C7CBCB" id="bsc" d="M148 100v1l1-2-1 1ZM308 102h1v-2l-1-1h-1l1 3Z"/><path fill="#15AFB3" id="TEa5" d="M403 138c0-1.522 8.928 0 11 0 0-11.175-8.307-20.114-13-29.5-1.031-2.062-5.147-9.5-7-9.5-.069 0-1.682 3.135-1 4.5 2.186 4.372 1 8.034 1 13.5v1c1.678 0 8 17.026 8 20h1Z"/><path fill="#0C858B" id="VISpor6a" d="M394 118c-.609 0-1.01 9-2 9l-5-9.5-10-12.5 4-5h1l7 8.5 5 8.5v1ZM63 117c0 2.717-.215 9 2 9 0-7.582 14-14.613 14-21l-4-4c-3.066 0-12 12.742-12 16Z"/><path fill="#08818B" id="VISli6b" d="M85 101c-1.747 0-2 .253-2 2 1.747 0 2-.253 2-2Z"/><path fill="#C7C8CC" id="alv" d="M96 101c-1.238 0-3 .423-3 2 1.238 0 3-.423 3-2Z"/><path fill="#C7CBCB" id="bsc" d="M147 102h1v-1h-1v1Z"/><path fill="#FF64FF" id="MB" d="m148 102-1 2v-2h1ZM309 102v1l-1-1h1Z"/><path fill="#08818B" id="VISli6b" d="M83 103c-1.747 0-2 .253-2 2 1.747 0 2-.253 2-2Z"/><path fill="#C7C8CC" id="alv" d="M89 106h1l3-3c-1.429 0-4 1.288-4 3Z"/><path fill="#FF64FF" id="MB" d="M307 117h3c0-2.041.959-3 3-3 0-.878-3.218-10-4-10l1 8.5-3 4.5Z"/><path fill="#0C848C" id="VISpor6b" d="M65 128v1l6-10.5L81 106l-1-1h-1c0 6.387-14 13.418-14 21v2Z"/><path fill="#08818B" id="VISli6b" d="M81 105v1l-1-1h1Z"/><path fill="#FF64FF" id="MB" d="M146 117h3c0-3.649-2-7.489-2-12-1.592 0-3 7.662-3 9 1.577 0 2 1.762 2 3Z"/><path fill="#0C848C" id="VISpor6b" d="M392 129v2c-1.24 0-4.282-9.065-5-10.5-2.035-4.071-11-10.003-11-14.5v-1h1l10 12.5 5 9.5v2Z"/><path fill="#C7C8CC" id="alv" d="M89 106c-1.429 0-4 1.288-4 3 1.429 0 4-1.288 4-3Z"/><path fill="#57B947" id="ProS" d="M96 177c-9.725 0-17.835 11-27 11 0-1.775-2.898-13-4-13v-33c1.353 0 2-4.643 2-6v-1l1-2 1-1v-1l1-2 1-2 1-2 1-1v-1l1-1 1-1 1-2 1-1c1.577 0 2-1.762 2-3 1.747 0 2-.253 2-2 1.747 0 2-.253 2-2 1.747 0 2-.253 2-2 1.429 0 4-1.288 4-3h1c0 4.84 8.592 16.684 11 21.5l3 5.5-2 5-1 1v1l-1 1-1 2v1l-1 1v1l-1 1v2l-1 2c-1.58 0-1 2.855-1 4v3c-1.628 0-1.628 10 0 10v1l1 8ZM388 187l-1 1c-6.437 0-18.174-11-26-11v-6c1.649 0 1.649-16 0-16v-2c0-1.048.473-3-1-3v-1l-1-1v-2l-1-1v-1l-1-1v-1l-4-8c0-6.242 7.269-14.038 10-19.5.675-1.35 2.239-7.5 4-7.5 4.519 0 13.957 12.415 16 16.5.628 1.256 2.273 6.5 4 6.5v1c0 1.335 3.145 9 4 9v1c0 1.488.924 11 2 11v11c-1.148 0-2 11.286-2 13v1c-1.353 0-2 4.643-2 6v1c-1.473 0-1 1.952-1 3Z"/><path fill="#C7C8CC" id="alv" d="m85 109-2 2c1.747 0 2-.253 2-2Z"/><path fill="#59B847" id="PRE" d="M122 152h2c0-11.16 6.289-23.078 11-32.5l6-9.5c-5.046 0-11.325-1-17-1l-20 24-2 5 6.5-5c10.663-5.332 13.5 12.86 13.5 19ZM333 153h1l1-1c0-6.598 2.036-24.732 13.5-19 2.688 1.344 6.343 9 8.5 9l-4-8-5-5.5c-2.754-2.754-15-17.325-15-19.5-5.587 0-12.081 1-17 1 0 4.576 5.974 10.448 8 14.5 3.849 7.697 9 19.541 9 28.5Z"/><path fill="#C7C8CC" id="alv" d="m83 111-2 2c1.747 0 2-.253 2-2Z"/><path fill="#C8CBCC" id="ec" d="M65 175c0 6.961 6 14.511 6 20-2.47 0-3.265-5.03-4-6.5-4.203-8.406-7-19.542-7-29.5v-8c0-4.721 2-8.983 2-13l1-4 1-1v-1c4.929 0 10.21-19 15-19h1l-1 2c-1.577 0-2 1.762-2 3l-1 1-1 2-1 1-1 1v1l-1 1-1 2-1 2-1 2v1l-1 1-1 2v1c-1.995 0-2 4.377-2 6v1c-1.353 0-2 4.643-2 6 0 6.052-1.574 15.352 1 20.5.574 1.147-1.064 4.5 1 4.5v1Z"/><path fill="#C7C8CC" id="alv" d="M81 113c0 1.747-.253 2-2 2l1-2h1Z"/><path fill="#C8CBCC" id="ec" d="M387 190v3c2.155 0 3.233-6.965 4-8.5 2.734-5.468 6-19.251 6-25.5v-9l-2-13-2-4-1-1c-3.964 0-11.313-19-14-19h-1c0 6.094 10 10.4 10 17v1c1.817 0 4 7.169 4 9v1c2.497 0 2 8.839 2 11v11c0 2.312.379 13-2 13v1c0 1.623-.005 6-2 6v1c0 1.048.473 3-1 3l-1 2v1Z"/><path fill="#C9C8C8" id="bic" d="m139 141-4 1c0-4.596 1.182-28 9-28 1.577 0 2 1.762 2 3l-5 8.5-2 15.5ZM317 140c1.49 0 2.587 1 5 1 0-6.515-.31-13.119-3-18.5-.969-1.937-6-7.405-6-8.5-2.041 0-3 .959-3 3 4.27 0 7 18.578 7 23Z"/><path fill="#C7C8CC" id="alv" d="M79 115c-1.577 0-2 1.762-2 3 1.577 0 2-1.762 2-3Z"/><path fill="#15AFB2" id="TEa6a" d="M60 137h1c0-1.543 1.71-8 3-8v-1l1-1v-1c-2.215 0-2-6.283-2-9h-1c0 7.125-8 13.274-8 21 2.342 0 3.658-1 6-1Z"/><path fill="#FE7AFD" id="NB" d="m147 135-3.5 7-4.5-1 2-15.5 5-8.5h3l2 2v6l-1 2-1 2-1 1v1c-1.473 0-1 1.952-1 3v1Z"/><path fill="#FF64FF" id="MB" d="M151 125h31c0-2.144-4.262-.381-5.5-1-1.524-.762-6.116-5-7.5-5-3.147 0-7.105 1.698-10.5 0-1.619-.809-1.471-2-3.5-2l-4 2v6ZM274 125l28.5-1 4.5 3c0-2.338-2-4.862-2-8l-4-2-7.5 3-6.5-1c0 4.833-13 4.44-13 6Z"/><path fill="#FE7AFD" id="NB" d="M309 133c1.781 0 1.348 6.197 2 7.5 1.018 2.036 6 2.349 6-.5 0-4.422-2.73-23-7-23h-3l-2 2c0 3.138 2 5.662 2 8l1 3 1 1v2Z"/><path fill="#C7C8CC" id="alv" d="m77 118-1 1 1-1Z"/><path fill="#A9A9A8" id="AQ" d="M227 123h2l2-2.5c0-2.265-3.91-3.18-5-1l1 3.5Z"/><path fill="#15AFB2" id="TEa6a" d="m396 137 6 1c0-2.974-6.322-20-8-20-.609 0-1.01 9-2 9v2l4 8Z"/><path fill="#C7C8CC" id="alv" d="m76 119-1 2 1-2ZM75 121l-1 1 1-1Z"/><path fill="#FF64FF" id="MB" d="M184 125c0 .518 8.922 3 10 3v-7h-2l-8 4ZM273 125c0 .426-9.876 3-11 3l1-7h2c0 3.403 8 1.851 8 4Z"/><path fill="#C7C8CC" id="alv" d="m74 122-1 1 1-1Z"/><path fill="#FF64FF" id="MB" d="M223 167c2.289 0 5.439-3.031 7.5-2l3.5 4-1-6c-4.969 0 0-4.47 0-6-5.84 0 1-9.223 1-10-3.913 0-3-6.556-3-9v-2c0-4.763-2-8.728-2-13h-2c0 4.215-.284 24-5 24 0 2.78 5.116 5.268 3 9.5-1.466 2.932-8-5.196-8-7.5-2.483 0-4.026-2-6-2l5 5c.038 0 13.572 8.464 8.5 11-1.898.949-1.158-4-3.5-4v6c3.702 0 2-1.702 2 2Z"/><path fill="#C7C8CC" id="alv" d="m73 124-1 1 1-1Z"/><path fill="#FF8FFD" id="MRN" fill-rule="evenodd" d="M196 161c0 3.073-7.89 4.72-5 10.5 8.307 16.614 28.114-10.5 5-10.5m12 19c-1.186 0-5.192 3.346-6.5 4-5.829 2.915-14.576 0-20.5 0 0-1.693 12.247-1.005 8-9.5-2.496-4.992-22-5.323-22-.5-4.82 0-6.481-7.462-8-10.5-4.547-9.095-12-17.624-12-28.5v-1c1.473 0 1-1.952 1-3v-1l1-1 1-2 1-2h33c0 .518 8.922 3 10 3 4.042 0 13.88 19 17 19l5 5c0 3.694 5 4.561 5 7v5c-5.288 0-13 10.81-13 16ZM254 161c0 2.505-5 5.533-5 8.5l2 3c5.837 11.675 22.624-3.938 9.5-10.5-2.159-1.079-3.868-1-6.5-1m-6 18 4.5 4 7 2c4.296 2.148 12.46-1 16.5-1 0-1.215-12.783-.934-8-10.5 1.871-3.743 22-3.865 22 .5 3.676 0 5.949-7.399 7-9.5 5.28-10.56 12-18.665 12-31.5v-2l-1-1-1-3-4.5-3-28.5 1h-1c0 .426-9.876 3-11 3l-4.5 5c-3.473 3.473-8.781 14-12.5 14l-1 1-1 1-2 3c0 1.6-4.129 7-6 7l1 5c4.416 0 12 10.78 12 15Z"/><path fill="#C7C8CC" id="alv" d="m72 125-1 2 1-2Z"/><path fill="#FF64FF" id="MB" d="m151 125-1 2 1-2Z"/><path fill="#0C858B" id="VISpor6a" d="M64 128h1v-1l-1 1Z"/><path fill="#C7C8CC" id="alv" d="m71 127-1 2 1-2Z"/><path fill="#16B0B2" id="TEa6b" d="M64 129h1v-1h-1v1ZM61 137l1 1 1-4 1-1v-1l1-2-1-1c-1.29 0-3 6.457-3 8Z"/><path fill="#0C848C" id="VISpor6b" d="M65 129v1l-1-1h1Z"/><path fill="#C7C8CC" id="alv" d="m70 129-1 2 1-2Z"/><path fill="#FF64FF" id="MB" d="m149 129-1 1 1-1Z"/><path fill="#16B0B2" id="TEa6b" d="M395 137h1l-4-8v3l1 1 2 4Z"/><path fill="#FF64FF" id="MB" d="m308 130 1 1-1-1ZM148 131c-1.473 0-1 1.952-1 3 1.473 0 1-1.952 1-3Z"/><path fill="#C7C8CC" id="alv" d="M387 131c1.817 0 4 7.169 4 9-.855 0-4-7.665-4-9ZM69 132l-1 1 1-1Z"/><path fill="#C9C9CA" id="scwm" d="m392 132 1 1-1-1ZM64 133l-1 1 1-1Z"/><path fill="#C7C8CC" id="alv" d="m68 133-1 2 1-2Z"/><path fill="#7BD04A" id="DG-mo" d="m120 210 5 2c0-3.179 4.659-4.818 6-7.5l2-13c-5.588-11.175-10-21.928-10-35.5l-1-4c0-6.14-2.837-24.332-13.5-19l-6.5 5-1 1v1l-1 1-1 2v1l-1 1v1l-1 1v2l-1 2c0 1.145.58 4-1 4v14c1.255 0 3.205 10.909 4 12.5.936 1.873 10 15.152 10 15.5l11 13Z"/><path fill="#FF64FF" id="MB" fill-rule="evenodd" d="M308 163c0 7.973 5.509 0 0 0m-161 0-2 1.5c-2.562 5.123 9.32-1.5 2-1.5m160 46c-3.308 0-6.581-9.338-10-2.5v2l-2 2.5c-2.998 0-2.388-10-8-10 0-2.323-14.318-17.863-17-12.5l2 5.5c-4.668 0-24-20.573-24 3h-6c0-7.013-8.831-2-11-2-1.747 0-2 .253-2 2l-3-2-8.5-2-3.5 4h-5c-2.144 0-.381-4.262-1-5.5-1.173-2.345-2.175-4.337-4.5-5.5-5.362-2.681-12.522 6-17.5 6 0-10.685-8.364-1.772-11 3.5l-6 4.5c-5.53 0-3.025 11-7 11-2.414 0-3.24-5.87-5.5-7-1.963-.982-3.672 3-5.5 3 0-15.702-7.554-26.608-14-39.5-3.386-6.771-2-17.407-2-25.5l4-1 4.5 1 3.5-7c0 10.876 7.453 19.405 12 28.5 1.519 3.038 3.18 10.5 8 10.5 0 6.541 8.646 10 14 10 5.924 0 14.671 2.915 20.5 0 1.308-.654 5.314-4 6.5-4v5c0 3.025 2.457 8.585 5 3.5 1.138-2.275.579-14.5 4-14.5 0 3.838-.867 5 2 5 0 2.026 3.959 6 6 6 0 8.549 6 8.547 6 0 3.254 0 6-4.041 6-7 2.867 0 2-1.162 2-5 1.845 0 1.441 3.381 2 4.5 1.362 2.724 3.362 18.276 7 11v-4c1.369-2.738 0-2.682 0-5.5l4.5 4 7 2c4.296 2.148 12.46-1 16.5-1 4.55 0 14-4.334 14-10 3.676 0 5.949-7.399 7-9.5 5.28-10.56 12-18.665 12-31.5 1.781 0 1.348 6.197 2 7.5 1.018 2.036 6 2.349 6-.5 1.49 0 2.587 1 5 1 0 22.922-7.06 37.621-17 57.5-1.873 3.745 2 7.738 2 10.5Z"/><path fill="#7BD04A" id="DG-mo" d="M336 210c-1.852 0-3.309 1-5 1l-6-7.5-1-14c4.476-8.953 9-17.686 9-28.5 1.735 0 1-6.51 1-8l1-1c0-6.598 2.036-24.732 13.5-19 2.688 1.344 6.343 9 8.5 9v1l1 1v1l1 1v2l1 1v1c0 1.048-.473 3 1 3v18c-1.434 0-2 6.448-2 8l-4 8c-1.617 0-4 4.583-4 6l-2 2v1l-1 1-1 1-1 1-10 11Z"/><path fill="#FD90FC" id="Su3" d="M220 135c0 1.519-13.886 6.807-7.5 10 4.837 2.419 19.518-10 7.5-10ZM231 136l4.5-1c1.809.905 14.143 6.928 8 10-5.651 2.825-8.382-7-12.5-7v-2Z"/><path fill="#C7C8CC" id="alv" d="M67 136c-1.995 0-2 4.377-2 6 1.353 0 2-4.643 2-6Z"/><path fill="#0D9E90" id="ECT5" d="M43 150h1c0-.225 7.742-1 9-1 0-3.642 1-8.002 1-11H43v12Z"/><path fill="#0E9F91" id="ECT6a" d="m53 149 5 1 2-13c-2.342 0-3.658 1-6 1 0 2.998-1 7.358-1 11Z"/><path fill="#0E9F90" id="ECT6b" d="M58 151h2c0-4.721 2-8.983 2-13l-1-1h-1l-2 13v1ZM397 150h1l-2-13h-1l2 13Z"/><path fill="#0E9F91" id="ECT6a" d="M398 150h1l5-1-1-11h-1l-6-1 2 13Z"/><path fill="#0D9E90" id="ECT5" d="M404 149h9l1-11c-2.072 0-11-1.522-11 0l1 11Z"/><path fill="#0D9F91" id="ECT2/3" d="M36 153h1c0-2.314 4.262-3 6-3v-12h-3c-1.819 0-4.59 1-7 1v9.5l3 4.5Z"/><path fill="#59B847" id="PRE" d="m102 138-1 1 1-1Z"/><path fill="#0D9F91" id="ECT2/3" d="M420 153h1c0-4.271 3-8.053 3-13v-1c-3.423 0-5.746-1-8-1h-2l-1 11v1c1.71 0 7 .718 7 3Z"/><path fill="#0D9F90" id="ECT1" d="m36 153-3 3c-4.931 0-5-11.486-5-15l5-1v8.5l3 4.5Z"/><path fill="#59B847" id="PRE" d="m101 140-1 1 1-1Z"/><path fill="#0D9F90" id="ECT1" d="m421 153 3 3 4-5.5 1-9.5-5-1c0 4.947-3 8.729-3 13Z"/><path fill="#59B847" id="PRE" d="m100 141-1 2 1-2Z"/><path fill="#C7C8CC" id="alv" d="M391 141c2.497 0 2 8.839 2 11-1.076 0-2-9.512-2-11ZM65 143c-1.353 0-2 4.643-2 6 0 6.052-1.574 15.352 1 20.5.574 1.147-1.064 4.5 1 4.5v-31Z"/><path fill="#59B847" id="PRE" d="m357 143 1 1-1-1ZM99 144l-1 1 1-1ZM358 145l1 1-1-1ZM98 146l-1 1 1-1Z"/><path fill="#FE90FF" id="III" d="M222 147c-1.622 0-5-.461-5 2 0 2.304 6.534 10.432 8 7.5 2.116-4.232-3-6.72-3-9.5ZM233 157h1c0-1.577 1.762-2 3-2 0-1.747.253-2 2-2v-1l1-3c-1.714 0-3.482-2-6-2 0 .777-6.84 10-1 10Z"/><path fill="#FF64FF" id="MB" d="m245 147-1 1 1-1ZM244 148l-1 1 1-1Z"/><path fill="#59B847" id="PRE" d="m359 148 1 1-1-1Z"/><path fill="#0F9684" id="PERI5" d="M51 159h2v-10c-1.258 0-9 .775-9 1 0 1.671 1.13 9 3 9h4Z"/><path fill="#0E9684" id="PERI6a" d="M55 159h3v-9l-5-1v10h2Z"/><path fill="#59B847" id="PRE" d="m97 149-1 2 1-2Z"/><path fill="#FF64FF" id="MB" d="M239 152h2l2-3h-3l-1 3Z"/><path fill="#0E9684" id="PERI6a" d="M401 159h3v-10l-5 1v9h2Z"/><path fill="#0F9684" id="PERI5" d="m405 159 5 1 3-10v-1h-9v1c1.186 0 1.186 1 0 1v8h1Z"/><path fill="#0E9583" id="PERI2/3" d="M45 160c-1.564 0-3.876 1-6 1l-2-8c0-2.314 4.262-3 6-3h1c0 1.671 1.13 9 3 9l-2 1Z"/><path fill="#59B847" id="PRE" d="M360 150c1.473 0 1 1.952 1 3-1.473 0-1-1.952-1-3Z"/><path fill="#0E9683" id="PERI6b" d="M397 159h2v-9h-2v9Z"/><path fill="#0D9E90" id="ECT5" d="M404 150c1.186 0 1.186 1 0 1v-1Z"/><path fill="#0E9583" id="PERI2/3" d="m411 160 7 1c0-3.138 2-5.662 2-8 0-2.282-5.29-3-7-3l-3 10h1Z"/><path fill="#0E9683" id="PERI6b" d="M58 159h2v-8h-2v8Z"/><path fill="#59B847" id="PRE" d="M96 151c-1.58 0-1 2.855-1 4 1.58 0 1-2.855 1-4Z"/><path fill="#7DCD4B" id="HPF" d="M124 152c0 1.145.579 4-1 4l-1-4h2Z"/><path fill="#CBCBCC" id="mlf" d="M216 152c.038 0 13.572 8.464 8.5 11-1.898.949-1.158-4-3.5-4 0-2.439-5-3.306-5-7ZM235 159c-2.109 0-2 2.535-2 4-4.969 0 0-4.47 0-6h1c1.238 0 3-.423 3-2l2-2v-1h2c0 1.6-4.129 7-6 7Z"/><path fill="#7DCD4B" id="HPF" d="m335 152-1 1 1-1Z"/><path fill="#0E9584" id="PERI1" d="m38 162-4 1c0-2.814-1-4.068-1-7l3-3h1l2 8-1 1Z"/><path fill="#FF64FF" id="MB" d="M239 153c-1.747 0-2 .253-2 2l2-2Z"/><path fill="#7DCD4B" id="HPF" d="M334 153c0 1.49.735 8-1 8v-8h1Z"/><path fill="#0E9584" id="PERI1" d="m418 162 5 1c0-3.051 1-5.183 1-7l-3-3h-1c0 2.338-2 4.862-2 8v1Z"/><path fill="#FF64FF" id="MB" d="M237 155c-1.238 0-3 .423-3 2 1.238 0 3-.423 3-2Z"/><path fill="#59B847" id="PRE" d="M361 155c1.649 0 1.649 16 0 16v-16ZM95 158c-1.628 0-1.628 10 0 10v-10Z"/><path fill="#32B725" id="ENTl3" d="M72 235h1c0-3.086 4-2.914 4-6l-6.5-6L57 206.5c-10.005-20.009-6-26.32-6-47.5h-4l-2 1c0 4.827-.007 9.514-2 13.5-4.815 9.63 6.344 31.689 10 39l6 10c2.477 4.954 13 6.731 13 12.5Z"/><path fill="#31B824" id="ENTl5" d="M77 229h1c.828 0 4-3.748 4-5 0-3.221-14.546-16.593-17-21.5-6.67-13.341-10-27.42-10-43.5h-4c0 21.18-4.005 27.491 6 47.5L70.5 223l6.5 6Z"/><path fill="#32B824" id="ENTl6a" d="M82 224h1c0-1.533 3.753-4 5-4l-9-12-2-2-1-2c-1.577 0-2-1.762-2-3l-1-1v-1c-1.577 0-2-1.762-2-3v-1c-2.47 0-3.265-5.03-4-6.5-4.203-8.406-7-19.542-7-29.5h-5c0 16.08 3.33 30.159 10 43.5 2.454 4.907 17 18.279 17 21.5Z"/><path fill="#FF64FF" id="MB" d="M235 164h1l-1-5c-2.109 0-2 2.535-2 4l2 1Z"/><path fill="#32B824" id="ENTl6a" d="m369 220 5 4 15-17.5c7.845-15.69 12-28.309 12-47.5h-4c0 6.249-3.266 20.032-6 25.5-.767 1.535-1.845 8.5-4 8.5 0 1.238-.423 3-2 3v1l-1 1v1l-1 1v1l-1 1-1 1v1l-1 1-1 1-1 2-1 1-2 2c0 1.747-.253 2-2 2 0 1.747-.253 2-2 2l-1 2-1 1v2Z"/><path fill="#31B824" id="ENTl5" d="M378 229h1l7-6.5c5.584-5.584 11.636-12.272 15-19 2.707-5.414 9.541-26.919 6-34-1.294-2.587-2-7.563-2-10.5h-4c0 19.191-4.155 31.81-12 47.5L374 224v1l4 4Z"/><path fill="#32B725" id="ENTl3" d="m379 229 5 5c3.098 0 14.621-13.742 16-16.5 3.578-7.156 7.456-13.913 11-21 1.808-3.617 1.187-8.373 3-12 1.982-3.964-3-19.351-3-24.5h-1l-5-1c0 2.937.706 7.913 2 10.5 3.541 7.081-3.293 28.586-6 34-3.364 6.728-9.416 13.416-15 19l-7 6.5Z"/><path fill="#32B825" id="ENTl2" d="m72 235-3 3c-5.196 0-8.96-5.23-12.5-7-17.181-8.591-15.15-31.801-22.5-46.5-3.422-6.845 4-16.327 4-22.5l1-1c2.124 0 4.436-1 6-1 0 4.827-.007 9.514-2 13.5-4.815 9.63 6.344 31.689 10 39l6 10c2.477 4.954 13 6.731 13 12.5ZM384 235l3 3c4.235 0 6.964-3.232 10.5-5 18.03-9.015 16.917-30.334 24.5-45.5 4.073-8.146-4-18.714-4-25.5v-1l-7-1c0 5.149 4.982 20.536 3 24.5-1.813 3.627-1.192 8.383-3 12-3.544 7.087-7.422 13.844-11 21-1.379 2.758-12.902 16.5-16 16.5v1Z"/><path fill="#FE90FD" id="RN" d="M196 161c0 3.073-7.89 4.72-5 10.5 8.307 16.614 28.114-10.5 5-10.5ZM254 161c0 2.505-5 5.533-5 8.5l2 3c5.837 11.675 22.624-3.938 9.5-10.5-2.159-1.079-3.868-1-6.5-1Z"/><path fill="#32B722" id="ENTl1" d="m69 239-3 4c-4.488 0-11.71-7.21-15-10.5-13.042-13.042-14.427-29.855-22-45v-16l4-7.5 1-1 4-1c0 6.173-7.422 15.655-4 22.5 7.35 14.699 5.319 37.909 22.5 46.5 3.54 1.77 7.304 7 12.5 7v1ZM387 239c2.618 0 1.651 3 4 3 5.01 0 8.275-5.887 12.5-8 12.558-6.279 17.696-32.892 23.5-44.5 1.003-2.005-.056-4.888 1-7 3.319-6.639-5-14.228-5-19.5l-5-1c0 6.786 8.073 17.354 4 25.5-7.583 15.166-6.47 36.485-24.5 45.5-3.536 1.768-6.265 5-10.5 5v1Z"/><path fill="#0E9584" id="PERI1" d="m34 163-1 1 1-1Z"/><path fill="#FF79FD" id="PBG" d="m147 163-2 1.5c-2.562 5.123 9.32-1.5 2-1.5Z"/><path fill="#C8C8C8" id="mtg" d="M239 173c0 3.838.867 5-2 5v-5l-1-1-2-3-1-6 2 1 4 9Z"/><path fill="#FF79FD" id="PBG" d="M308 163c0 7.973 5.509 0 0 0Z"/><path fill="#C7C8CC" id="alv" d="M393 163c-1.148 0-2 11.286-2 13 2.379 0 2-10.688 2-13Z"/><path fill="#C8C8CC" id="tspc" d="M217 174c-3.421 0-2.862 12.225-4 14.5-2.543 5.085-5-.475-5-3.5v-5c0-5.19 7.712-16 13-16v1c0 3.757-4 5.09-4 9Z"/><path fill="#C8C8C8" id="mtg" d="M217 174c0 3.838-.867 5 2 5 0-2.409 1-5.181 1-7l1-1 1-2 1-1v-1c0-3.702 1.702-2-2-2 0 3.757-4 5.09-4 9Z"/><path fill="#C8C8CC" id="tspc" d="M239 173c1.845 0 1.441 3.381 2 4.5 1.362 2.724 3.362 18.276 7 11v-4c1.369-2.738 0-2.682 0-5.5 0-4.22-7.584-15-12-15h-1l4 9Z"/><path fill="#FFA4FF" id="CLI" d="m230 184 1 1c3.254 0 6-4.041 6-7v-5l-1-1-2-3-3.5-4c-2.061-1.031-5.211 2-7.5 2v1l-1 1-1 2-1 1c0 1.819-1 4.591-1 7 0 2.026 3.959 6 6 6l2-1c0-2.868 3-2.197 3 0Z"/><path fill="#FF64FF" id="MB" d="m223 168-1 1 1-1Z"/><path fill="#59B847" id="PRE" d="M96 177c0 2.766 9.783 20 13 20 0-.348-9.064-13.627-10-15.5-.795-1.591-2.745-12.5-4-12.5l1 8Z"/><path fill="#FD8FFF" id="RR" d="M167 174c0 6.541 8.646 10 14 10 0-1.693 12.247-1.005 8-9.5-2.496-4.992-22-5.323-22-.5ZM290 174c0 5.666-9.45 10-14 10 0-1.215-12.783-.934-8-10.5 1.871-3.743 22-3.865 22 .5Z"/><path fill="#FF64FF" id="MB" d="m221 171-1 1 1-1Z"/><path fill="#59B847" id="PRE" d="m361 177-2 2c0-1.552.566-8 2-8v6Z"/><path fill="#FF64FF" id="MB" d="m236 172 1 1-1-1Z"/><path fill="#C7C8CC" id="alv" d="m88 220 4 3-7-8.5c-2.933-5.867-16-19.389-16-26.5 0-1.775-2.898-13-4-13 0 6.961 6 14.511 6 20v1c1.577 0 2 1.762 2 3v1l1 1 2 3 1 2 2 2 9 12Z"/><path fill="#4FC244" id="SUB" d="m94 225 2 1c3.164 0 22.958-16 24-16l-11-13c-3.217 0-13-17.234-13-20-9.725 0-17.835 11-27 11 0 7.111 13.067 20.633 16 26.5l7 8.5 1 1 1 1ZM362 225l-1 1c-6.637 0-18.587-15-24-15l-1-1 10-11 1-1 1-1 1-1v-1c1.747 0 2-.253 2-2 2.177 0 4-4.336 4-6 2.447 0 4-6.063 4-8l2-2c7.826 0 19.563 11 26 11v2l-2 4-2 4-2 4c-1.577 0-2 1.762-2 3-1.577 0-2 1.762-2 3-1.577 0-2 1.762-2 3-1.747 0-2 .253-2 2l-2 2-1 2-1 1-3 3-1 1-1 1-1 1-1 1Z"/><path fill="#C7C8CC" id="alv" d="M391 177c-1.353 0-2 4.643-2 6 1.995 0 2-4.377 2-6Z"/><path fill="#59B847" id="PRE" d="m359 179-4 8c2.447 0 4-6.063 4-8Z"/><path fill="#FF64FF" id="MB" d="M227 184h3c0-2.197-3-2.868-3 0Z"/><path fill="#CCC7CC" id="dscp" d="M225 185c0 8.549 6 8.547 6 0l-1-1h-3l-2 1Z"/><path fill="#C7C8CC" id="alv" d="M389 184c-1.473 0-1 1.952-1 3 1.473 0 1-1.952 1-3Z"/><path fill="#FFC295" id="PRNr" d="m189 235-1 1c-5.569 0-14.172-20.156-12-24.5l2-3.5c5.557 0 6-8.993 6-13l1-1v-1l1-1c4.978 0 12.138-8.681 17.5-6 2.325 1.163 3.327 3.155 4.5 5.5.619 1.238-1.144 5.5 1 5.5 0 7.527.808 18.116 4 24.5 1.292 2.583-2 5.121-2 7.5-1.46 0-13.38 1.44-14.5 2l-7.5 4ZM268 236h1l3-1.5 5-7c3.15-6.3 2-12.921 2-19.5-6.429 0-7-9.175-7-14-4.668 0-24-20.573-24 3 0 5.899-1.422 16.344-4 21.5-1.889 3.777 2 7.892 2 10.5l16.5 3 4.5 3 1 1Z"/><path fill="#C8C8CB" id="rust" d="M169 200c0 5.957 3.425 8 9 8 5.557 0 6-8.993 6-13l1-1v-1l1-1c0-10.685-8.364-1.772-11 3.5l-6 4.5ZM287 201c0 5.06-3.232 7-8 7-6.429 0-7-9.175-7-14l-2-5.5c2.682-5.363 17 10.177 17 12.5Z"/><path fill="#59B847" id="PRE" d="M355 187c-1.617 0-4 4.583-4 6 2.177 0 4-4.336 4-6Z"/><path fill="#C7C8CC" id="alv" d="M387 188v1l1-2-1 1ZM387 193l-2 1 2-4v3Z"/><path fill="#FF64FF" id="MB" d="m186 192-1 1 1-1Z"/><path fill="#FFC393" id="CS" d="m224 230 3-5.5v-5c0-.805 1.419-4.162 2-3 1.252 2.504-.511 13.5 4 13.5l4.5-4c2.518-2.518 4.93-6.36 6.5-9.5 2.37-4.741-2-14.664-2-19.5 0-7.013-8.831-2-11-2l-2 2c0 5.486-3 .319-3-2l-8.5-2-3.5 4c0 5.033-3.576 15.348-1 20.5l6 9 4 3.5h1Z"/><path fill="#59B847" id="PRE" d="m351 193-2 2c1.747 0 2-.253 2-2Z"/><path fill="#C8CBCC" id="ec" d="M385 194v2c1.577 0 2-1.762 2-3l-2 1Z"/><path fill="#FF64FF" id="MB" d="m185 194-1 1 1-1Z"/><path fill="#C7C8CC" id="alv" d="M383 198h1l1-1v-3l-2 4Z"/><path fill="#FFA6FE" id="IPN" d="m226 195 3 2c0 5.486-3 .319-3-2ZM231 195c-1.747 0-2 .253-2 2l2-2Z"/><path fill="#C8CBCC" id="ec" d="M71 196c1.577 0 2 1.762 2 3-1.577 0-2-1.762-2-3Z"/><path fill="#59B847" id="PRE" d="m349 196-1 1 1-1Z"/><path fill="#FF9B88" id="P" d="m211 229 12 1-4-3.5-6-9c-2.576-5.152 1-15.467 1-20.5h-5c0 7.527.808 18.116 4 24.5 1.292 2.583-2 5.121-2 7.5ZM246 229c-4.569 0-8.923 1-13 1l4.5-4c2.518-2.518 4.93-6.36 6.5-9.5 2.37-4.741-2-14.664-2-19.5h6c0 5.899-1.422 16.344-4 21.5-1.889 3.777 2 7.892 2 10.5Z"/><path fill="#C8CBCC" id="ec" d="m385 197-1 1 1-1Z"/><path fill="#59B847" id="PRE" d="m347 198-1 1 1-1Z"/><path fill="#C7C8CC" id="alv" d="M381 202h1l1-1v-3l-2 4Z"/><path fill="#C8CBCC" id="ec" d="M383 199h1v-1h-1v1Z"/><path fill="#7DCD4B" id="HPF" d="m384 199-1 1v-1h1Z"/><path fill="#C8CBCC" id="ec" d="m73 200 1 1-1-1Z"/><path fill="#FF9B88" id="P" d="M152 261c1.545 0 24.944 15.722 29.5 18 5.905 2.952 39.797 2.102 46-1 2.835-1.418 29.129 4 34 4 3.412 0 23.5-6.657 23.5-9l-7.5 1c-2.652-1.326 4.355-4.677 5-5 2.557-1.278 6.5-8.488 6.5-11l-4.5 2c-6.084-3.042-6.18-16.14-3.5-21.5 1.288-2.576 1.447-13.5 6-13.5l1-2 1-2c0-2.103 3.18-9 6-9v-1c-2.998 0-2.388-10-8-10 0 5.06-3.232 7-8 7 0 6.579 1.15 13.2-2 19.5l-5 7-3 1.5c0 2.173 4 3.025 4 7 1.344 0 1.883-1.735 3 .5l1 23c-3.14 6.281-6.854 6.677-12.5 9.5-2.007 1.003-24.392-.196-26-1-3.824-1.912-7.766-10.031-9.5-13.5-1.144-2.288.23-15.5 2-15.5 0-3.404-2.839-9.822-1-13.5l3-2.5c-4.511 0-2.748-10.996-4-13.5-.581-1.162-2 2.195-2 3v5l-3 5.5 2 2.5V246c0 10.646 2.046 13.408-3 23.5-4.625 9.25-38.213 8.574-42 1-1.526-3.051-2.86-23.281-1-27 1.117-2.235 1.656-.5 3-.5 0-3.602 5-5.209 5-7-5.569 0-14.172-20.156-12-24.5l2-3.5c-5.575 0-9-2.043-9-8-5.53 0-3.025 11-7 11l5 7.5c3.363 6.726 17.947 35.276 5.5 41.5-2.569 1.284-3.509-3-5.5-3 0 9.088 9.637 10.773 12 15.5 1.301 2.603-10.397-.949-11.5-1.5L150 254h-1c0 2.232 3 4.029 3 7Z"/><path fill="#7DCD4B" id="HPF" d="m74 201 2 3c-1.577 0-2-1.762-2-3ZM383 201l-1 1 1-1Z"/><path fill="#C7C8CC" id="alv" d="M379 205h1l1-1v-2c-1.577 0-2 1.762-2 3Z"/><path fill="#7DCD4B" id="HPF" d="m382 202-1 1v-1h1Z"/><path fill="#C9C9CB" id="ll" fill-rule="evenodd" d="M155 210c0 1.536-5.601 3.299-4 6.5l11 21 3 10c.879 1.759 4.3 9.1 7.5 7.5 2.68-1.34 3.916-10.667 2.5-13.5-3.822-7.645-8.504-31.5-20-31.5m-8 4c0 5.691 11.081 19.662 14 25.5 1.211 2.422 2.876 17.5 6 17.5 1.991 0 2.931 4.284 5.5 3 12.447-6.224-2.137-34.774-5.5-41.5l-5-7.5c-2.414 0-3.24-5.87-5.5-7-1.963-.982-3.672 3-5.5 3l-1 2c-1.077 0-3 3.762-3 5Z"/><path fill="#C9C9CB" id="ll" d="M287 225c-4.553 0-4.712 10.924-6 13.5-2.68 5.36-2.584 18.458 3.5 21.5l4.5-2 3-4.5c4.894-9.788 4.528-21.528 13-30 1.494-1.494 2.753-8.5 5-8.5v-1l-3-5c-3.308 0-6.581-9.338-10-2.5v2l-2 2.5v1l5.5-2c9.902 4.951-3.942 24.383-7.5 31.5-1.057 2.114-4.09 16.205-9.5 13.5-6.663-3.331 3.5-26.75 3.5-30Z"/><path fill="#7DCD4B" id="HPF" d="m381 204-1 1 1-1Z"/><path fill="#C7C8CC" id="alv" d="M377 208h1l1-2v-1c-1.577 0-2 1.762-2 3Z"/><path fill="#7DCD4B" id="HPF" d="m380 205-1 1v-1h1ZM77 206l2 2-2-2Z"/><path fill="#FF64FF" id="MB" d="m151 207-1 2 1-2Z"/><path fill="#C7C8CC" id="alv" d="m377 209-2 2c0-1.238.423-3 2-3v1Z"/><path fill="#7DCD4B" id="HPF" d="m378 208-1 1v-1h1Z"/><path fill="#33B931" id="HATA" d="m116 237 3 1c0-6.611 4-12.829 4-20-1.069 0-3-6.717-3-8-1.042 0-20.836 16-24 16l6 7 5 2 5 1 4 1Z"/><path fill="#7DCD4B" id="HPF" d="m125 212-2 6c-1.069 0-3-6.717-3-8l5 2Z"/><path fill="#FFAC6F" id="NLL" d="M155 210c0 1.536-5.601 3.299-4 6.5l11 21 3 10c.879 1.759 4.3 9.1 7.5 7.5 2.68-1.34 3.916-10.667 2.5-13.5-3.822-7.645-8.504-31.5-20-31.5ZM288 223l-1 2c0 3.25-10.163 26.669-3.5 30 5.41 2.705 8.443-11.386 9.5-13.5 3.558-7.117 17.402-26.549 7.5-31.5l-5.5 2c0 1.654-4.228 9-6 9l-1 2Z"/><path fill="#7DCD4B" id="HPF" d="M337 211c-2.917 0-1.452 9-4 9 0-3.638-2-5.929-2-9 1.691 0 3.148-1 5-1l1 1Z"/><path fill="#33B931" id="HATA" d="m341 237-4 1c0-6.191-4-12.054-4-18 2.548 0 1.083-9 4-9 5.413 0 17.363 15 24 15l-7 7-5 2-4 1-4 1Z"/><path fill="#C7C8CC" id="alv" d="M375 211c-1.747 0-2 .253-2 2 1.747 0 2-.253 2-2Z"/><path fill="#C9C9CB" id="ll" d="M295 212c-2.82 0-6 6.897-6 9 1.772 0 6-7.346 6-9Z"/><path fill="#C7C8CC" id="alv" d="m373 213-2 2c1.747 0 2-.253 2-2Z"/><path fill="#CCCCCA" id="mcp" fill-rule="evenodd" d="m153 245-1 3.5c4.988 9.976 7.223-3.5 1-3.5m-6-14c0 1.981 4.401 9 6.5 9 2.569 0-2.219-9-6.5-9m3 23 17.5 17c1.103.551 12.801 4.103 11.5 1.5-2.363-4.727-12-6.412-12-15.5-3.124 0-4.789-15.078-6-17.5-2.919-5.838-14-19.809-14-25.5l-2 1c0 2.068-2.877 4.255-4 6.5-.867 1.734-.08 4.161-1 6-2.66 5.321 3 11.144 3 15.5v1l2 2 3 6 2 2Z"/><path fill="#F0F080" id="CB" d="M324 236c-6.744 0-8.833 8-11 8 0-2.079 8.38-29-3-29v-1c11.226 0 5.774 10.049 9 16.5l5 5.5ZM133 236c4.931 0 7.056 7 10 7 0-4.356-5.66-10.179-3-15.5.92-1.839.133-4.266 1-6 1.123-2.245 4-4.432 4-6.5-10.708 0-4.792 10.084-8 16.5l-4 4.5Z"/><path fill="#CCCCCA" id="mcp" fill-rule="evenodd" d="m301 245-2 4.5c-1.081 2.161 1.87 3.315 3.5 2.5 3.119-1.56 2.043-7-1.5-7m5-14c0 .666-6.817 9-2.5 9 1.36 0 9.205-9 2.5-9m-19 41-2 1-7.5 1c-2.652-1.326 4.355-4.677 5-5 2.557-1.278 6.5-8.488 6.5-11l3-4.5c4.894-9.788 4.528-21.528 13-30 1.494-1.494 2.753-8.5 5-8.5 11.38 0 3 26.921 3 29l-1 2-1 1c0 2.83-4 4.54-4 7l-1 1c-1.209 0-15 12.709-15 14l-2 2-2 1Z"/><path fill="#C7C8CC" id="alv" d="m371 215-1 2 1-2ZM370 217l-1 1 1-1ZM369 220l-3 1 3-3v2Z"/><path fill="#32B623" id="ENTm6" d="m96 226 6 7c-1.423 0-3.544 1.978-5.5 1-2.418-1.209-13.5-7.532-13.5-10 0-1.533 3.753-4 5-4l4 3 1 1 1 1 2 1ZM361 226l-7 7c4.235 0 6.185 1.157 10.5-1 3.163-1.581 5.794-7 9.5-7v-1l-5-4-3 1-1 1-1 1-1 1-1 1-1 1Z"/><path fill="#C9C9CB" id="ll" d="m289 221-1 2 1-2Z"/><path fill="#C7C8CC" id="alv" d="m366 221-1 1 1-1ZM365 222l-1 1 1-1Z"/><path fill="#C9C9CB" id="ll" d="m288 223-1 2 1-2Z"/><path fill="#C7C8CC" id="alv" d="m364 223-1 1 1-1Z"/><path fill="#30B724" id="ENTm5" d="m102 233 5 2c0 11.336-29-.194-29-6 .828 0 4-3.748 4-5h1c0 2.468 11.082 8.791 13.5 10 1.956.978 4.077-1 5.5-1Z"/><path fill="#C7C8CC" id="alv" d="m93 224 1 1-1-1ZM362 225l-1 1 1-1Z"/><path fill="#30B724" id="ENTm5" d="m354 233-5 2c0 10.158 29 1.001 29-6l-4-4c-3.706 0-6.337 5.419-9.5 7-4.315 2.157-6.265 1-10.5 1Z"/><path fill="#31B723" id="ENTm3" d="m107 235 5 1c0 4.792-8.035 5.768-10.5 7-9.948 4.974-20.311-8-28.5-8 0-3.086 4-2.914 4-6h1c0 5.806 29 17.336 29 6Z"/><path fill="#FEBA85" id="TRN" fill-rule="evenodd" d="M194 247c0 1.423-1.978 3.544-1 5.5 2.564 5.128 17.277 1.555 15-3-1.579-3.159-10.696-2.5-14-2.5m23-13-4 4.5c-1.419 2.839 1.109 12.696 5.5 10.5 6.572-3.286 7.155-15-1.5-15m-34 9 3 5.5c7.551 15.101 23.329 6.586 35.5.5l4.5-3v-13.5l-2-2.5h-1l-12-1c-1.46 0-13.38 1.44-14.5 2l-7.5 4-1 1c0 1.791-5 3.398-5 7ZM254 247c0 1.795-7.666.167-6 3.5 6.136 12.272 29.486-3.5 6-3.5m-19-13c0 1.911-2 4.611-2 7.5 0 20.155 23.918-7.5 2-7.5m38 9-3 6.5c-5.78 11.559-18.356 7.072-27.5 2.5-1.758-.879-11.5-4.234-11.5-6 0-3.404-2.839-9.822-1-13.5l3-2.5c4.077 0 8.431-1 13-1l16.5 3 4.5 3 1 1h1c0 2.173 4 3.025 4 7Z"/><path fill="#31B723" id="ENTm3" d="M384 235c-9.507 0-18.763 13.368-29.5 8-2.919-1.459-9.5-2.021-9.5-7l4-1c0 10.158 29 1.001 29-6h1l5 5v1Z"/><path fill="#CCCBCA" id="moV" d="M147 231c0 1.981 4.401 9 6.5 9 2.569 0-2.219-9-6.5-9ZM306 231c0 .666-6.817 9-2.5 9 1.36 0 9.205-9 2.5-9Z"/><path fill="#CACCC8" id="ml" d="m217 234-4 4.5c-1.419 2.839 1.109 12.696 5.5 10.5 6.572-3.286 7.155-15-1.5-15ZM235 234c0 1.911-2 4.611-2 7.5 0 20.155 23.918-7.5 2-7.5Z"/><path fill="#30B824" id="ENTm2" d="M69 238v1c3.638 0 8.288 4.394 11.5 6 10.721 5.361 18.585 5.207 29 0 2.168-1.084 6.5-5.241 6.5-8l-4-1c0 4.792-8.035 5.768-10.5 7-9.948 4.974-20.311-8-28.5-8h-1l-3 3Z"/><path fill="#FF9B88" id="P" d="m189 235-1 1 1-1ZM267 235l1 1-1-1Z"/><path fill="#30B824" id="ENTm2" d="M387 238v1l-9.5 5c-7.488 3.744-27.289 9.921-32.5-.5-1.169-2.337-4-3.673-4-6.5l4-1c0 4.979 6.581 5.541 9.5 7 10.737 5.368 19.993-8 29.5-8l3 3Z"/><path fill="#CACACB" id="sV" d="M149 254c0 2.232 3 4.029 3 7 0 9.08-12.827 9.836-20.5 6-7.084-3.542-6.5-11.305-6.5-18 0-4.25 2.514-13 8-13 4.931 0 7.056 7 10 7v1l2 2 3 6 1 2ZM306 255l-2 6c0 16.745 36.715 5.93 27-13.5-1.649-3.298-.903-11.5-7-11.5-6.744 0-8.833 8-11 8l-1 2-1 1c0 2.83-4 4.54-4 7l-1 1Z"/><path fill="#31B625" id="ENTm1" d="m69 239-3 4 12.5 7c10.355 5.177 29.596 10.309 36.5-3.5 1.364-2.728 4-5.269 4-8.5l-3-1c0 2.759-4.332 6.916-6.5 8-10.415 5.207-18.279 5.361-29 0-3.212-1.606-7.862-6-11.5-6ZM387 239c2.618 0 1.651 3 4 3 0 2.575-10.495 5.997-12.5 7-12.479 6.24-24.457 10.543-36-1-2.101-2.101-5.5-7.19-5.5-10l4-1c0 2.827 2.831 4.163 4 6.5 5.211 10.421 25.012 4.244 32.5.5l9.5-5Z"/><path fill="#FFB885" id="PG" d="M183 243c-1.344 0-1.883-1.735-3 .5-1.86 3.719-.526 23.949 1 27 3.787 7.574 37.375 8.25 42-1 5.046-10.092 3-12.854 3-23.5l-4.5 3c-12.171 6.086-27.949 14.601-35.5-.5l-3-5.5ZM273 243c1.344 0 1.883-1.735 3 .5l1 23c-3.14 6.281-6.854 6.677-12.5 9.5-2.007 1.003-24.392-.196-26-1-3.824-1.912-7.766-10.031-9.5-13.5-1.144-2.288.23-15.5 2-15.5 0 1.766 9.742 5.121 11.5 6 9.144 4.572 21.72 9.059 27.5-2.5l3-6.5Z"/><path fill="#F0F080" id="CB" d="m143 244 2 2-2-2Z"/><path fill="#CCCBCA" id="moV" d="m153 245-1 3.5c4.988 9.976 7.223-3.5 1-3.5ZM301 245l-2 4.5c-1.081 2.161 1.87 3.315 3.5 2.5 3.119-1.56 2.043-7-1.5-7Z"/><path fill="#F0F080" id="CB" d="m312 246-1 1 1-1Z"/><path fill="#C8C7CC" id="cst" d="M194 247c0 1.423-1.978 3.544-1 5.5 2.564 5.128 17.277 1.555 15-3-1.579-3.159-10.696-2.5-14-2.5ZM254 247c0 1.795-7.666.167-6 3.5 6.136 12.272 29.486-3.5 6-3.5Z"/><path fill="#F0F080" id="CB" d="M149 254h1l-2-2 1 2Z"/><path fill="#FF9B88" id="P" d="m307 254-1 1 1-1ZM304 261c-4.856 0-8.33 8-13 8 0-1.291 13.791-14 15-14l-2 6ZM291 269l-2 2c1.747 0 2-.253 2-2ZM289 271l-2 1 2-1ZM287 272l-2 1 2-1Z"/></svg>