<svg xmlns="http://www.w3.org/2000/svg" viewBox="0 0 456 320"><path fill="#1BA696" id="RSPagl1" d="M186 13c-4.902 0-9.334 3-14 3 0-2.124-1-4.436-1-6 0-.701 13.214-3 15-3v6Z"/><path fill="#1BA598" id="RSPd1" d="M217 19h2c0-1.747.253-2 2-2 0-2.924-5.738-5.119-7.5-6-10.491-5.246-14.434-4-27.5-4v6c4.631 0 31-5.062 31 6ZM238 19h1c0-4.796 20.791-10.355 25.5-8l5.5 2c0-1.564 1-3.876 1-6-7.504 0-35-.954-35 10l2 2Z"/><path fill="#1BA696" id="RSPagl1" d="M270 13c5.15 0 9.337 3 14 3 0-2.167 1-3.855 1-7-5.433 0-9.088-2-14-2 0 2.124-1 4.436-1 6Z"/><path fill="#09848B" id="VISam1" d="M321 19c0 1.465.109 4-2 4-9.913 0-22.739-7-35-7 0-2.167 1-3.855 1-7 .696 0 25.706 5.603 26.5 6 2.546 1.273 6.642 4 9.5 4ZM136 19l1 4c11.228 0 22.517-7 35-7 0-2.124-1-4.436-1-6-2.106 0-24.097 4.299-25.5 5l-9.5 4Z"/><path fill="#1BA697" id="RSPd2/3" d="M213 23h1l3-4c0-11.062-26.369-6-31-6v7c3.762 0 27-4.958 27 3ZM242 23h1c0-7.819 23.446-3 27-3v-7l-5.5-2c-4.709-2.355-25.5 3.204-25.5 8l3 4Z"/><path fill="#1AA496" id="RSPagl2/3" d="M173 25h1c3.933 0 7.365-4 12-4v-8c-4.902 0-9.334 3-14 3 0 1.819 1 4.59 1 7v2ZM283 23v2l-13-5v-7c5.15 0 9.337 3 14 3l-1 7Z"/><path fill="#0B848A" id="VISam2/3" d="M137 24c.871 0 4 6.808 4 8 10.988 0 21.246-9 32-9 0-2.41-1-5.181-1-7-12.483 0-23.772 7-35 7v1ZM319 24l-4 8c-10.978 0-21.069-9-32-9l1-7c12.261 0 25.087 7 35 7v1Z"/><path fill="#1BA597" id="RSPv1" d="m230 68 2 1V30.5l6-11.5-2-2-7.5 12-7.5-12c-1.747 0-2 .253-2 2l6 13.5V69l2-2c0-5.775 3-2.624 3 1Z"/><path fill="#1AA596" id="RSPd5" d="M205 32h1c0-3.598 7-5.782 7-9 0-7.958-23.238-3-27-3v12l3.5-2c2.428-1.214 15.5-2.504 15.5 2ZM251 31c3.629 0 9.847-4.326 14.5-2l5.5 3-1-12c-3.554 0-27-4.819-27 3l8 8Z"/><path fill="#019FAC" id="VISa1" d="M121 27v2c5.84 0 10.058-5 16-5v-1l-1-4c-5.35 0-8.988 4-14 4 0 2.06 2.431 4-1 4Z"/><path fill="#1AA597" id="RSPv2/3" d="m220 68 5 1V32.5L219 19h-2l-3 4 5 8.5 1 36.5ZM237 67c0 1.638-3.576 2-5 2V30.5l6-11.5h1l3 4c0 2.272-3.881 8.262-5 10.5-2.597 5.194 0 27.657 0 33.5Z"/><path fill="#019FAC" id="VISa1" d="m336 27-1 2c-5.665 0-10.173-5-16-5v-1c2.109 0 2-2.535 2-4 5.425 0 8.796 4 14 4l-2 3.5c0 2.036 3-1.96 3 .5Z"/><path fill="#1CA697" id="RSPagl5" d="m271 33 10 4 2-12-13-5 1 12v1ZM186 32l-11 5-1-12c3.933 0 7.365-4 12-4v11Z"/><path fill="#098589" id="VISp1" fill-rule="evenodd" d="M120 25c0 2.091 3.746 0 0 0m-1 0 2 2c3.431 0 1-1.94 1-4l-3 2Z"/><path fill="#09858A" id="VISam4" d="M142 35h1c6.123 0 24.263-10 30-10v-2c-10.754 0-21.012 9-32 9v1l1 2Z"/><path fill="#1BA498" id="RSPv5" d="m215 66 5 2-1-36.5-5-8.5h-1c0 3.218-7 5.402-7 9l3 22.5c1.035 2.069 3 5.13 3 7.5l3 4ZM242 66l-5 1c0-5.843-2.597-28.306 0-33.5 1.119-2.238 5-8.228 5-10.5h1l8 8v2c-2.143 0-2 4.797-2 6.5 0 8.279-4 14.926-4 22.5l-1 1-1 2-1 1Z"/><path fill="#09858A" id="VISam4" d="M314 35h1v-3c-10.978 0-21.069-9-32-9v2c5.844 0 24.223 10 30 10 0-1.186 1-1.186 1 0Z"/><path fill="#098589" id="VISp1" d="m337 25-1 2c0-2.46-3 1.536-3-.5l2-3.5 2 2Z"/><path fill="#009EAB" id="VISa2/3" d="M124 38h1c0-1.263 13.374-5 16-5v-1c0-1.192-3.129-8-4-8-5.942 0-10.16 5-16 5v1c1.446 0 3 6.754 3 8ZM315 33c6.358 0 10.903 4 17 4 1.119 0 3-6.284 3-8-5.665 0-10.173-5-16-5l-4 8v1Z"/><path fill="#029FAB" id="VISrl1" d="M88 46h1c0-1.996 6.945-4.222 8.5-5 6.932-3.466 15.406-11 23.5-11v-3l-2-2c-8.556 0-17.178 8.339-24.5 12-1.582.791-8.5 3.942-8.5 6l2 3Z"/><path fill="#019FAC" id="VISa1" d="M120 25c0 2.091 3.746 0 0 0Z"/><path fill="#0A848B" id="VISam5" d="M146 43h1c7.904 0 21.417-6 28-6l-1-12h-1c-5.737 0-23.877 10-30 10 0 3.239 3 4.575 3 8ZM309 43h1l3-8c-5.777 0-24.156-10-30-10l-2 12c8.789 0 18.82 6 28 6Z"/><path fill="#029FAB" id="VISrl1" d="M367 46h2l1-3c0-2.78-6.465-4.983-8.5-6-7.654-3.827-15.462-12-24.5-12l-1 2-1 2c5.779 0 17.974 9.237 23.5 12 1.549.774 8.5 2.896 8.5 5Z"/><path fill="#1AA697" id="RSPd6a" d="M191 41c0-2.515 5.014 0 6 0 1.489 0 8-7.014 8-9 0-4.504-13.072-3.214-15.5-2l-3.5 2c0 3.222 1 6.277 1 9h4ZM269 41h1l1-8v-1l-5.5-3c-4.653-2.326-10.871 2-14.5 2v2c3.718 0 4.345 8 8 8h2c0-2.46 6.743 0 8 0Z"/><path fill="#029EAC" id="VISrl2/3" d="M367 46c0 1.702-4.802 6-6 6-3.632 0-22.217-14-29-14v-1c1.119 0 3-6.284 3-8 5.779 0 17.974 9.237 23.5 12 1.549.774 8.5 2.896 8.5 5ZM94 53h1l6-4.5c1.79-1.79 20.54-10.5 23-10.5 0-1.246-1.554-8-3-8-8.094 0-16.568 7.534-23.5 11-1.555.778-8.5 3.004-8.5 5 1.497 0 5 5.2 5 7Z"/><path fill="#1CA597" id="RSPagl6a" d="M185 43c-3.303 0-5.115 2-8 2l-2-8 11-5c0 3.222 1 6.277 1 9v1l-2 1Z"/><path fill="#1AA498" id="RSPv6a" d="M208 58c0 1.621 2.379 4 4 4 0-2.37-1.965-5.431-3-7.5L206 32h-1c0 1.986-6.511 9-8 9v1c.809 0 11 14.317 11 16Z"/><path fill="#019EAC" id="VISa4" d="m125 38 1 4c4.335 0 12.145-7 16-7l-1-2c-2.626 0-16 3.737-16 5Z"/><path fill="#1AA498" id="RSPv6a" d="m248 59-3 3c0-7.574 4-14.221 4-22.5 0-1.703-.143-6.5 2-6.5 3.718 0 4.345 8 8 8v1c-1.988 0-2.408 3.315-3 4.5-1.761 3.522-7 6.346-7 10.5l-1 2Z"/><path fill="#1CA597" id="RSPagl6a" d="M270 41c0 1.29 7.597 4 9 4 0-2.885 2-4.697 2-8l-10-4-1 8Z"/><path fill="#019EAC" id="VISa4" d="M330 42h1l1-4v-1c-6.097 0-10.642-4-17-4v2c0 .93 15 6.703 15 7ZM313 35h1c0-1.186-1-1.186-1 0Z"/><path fill="#019EAB" id="VISa5" d="M129 50h1c0-3.54 16-4.095 16-7 0-3.425-3-4.761-3-8h-1c-3.855 0-11.665 7-16 7l3 8ZM310 43l4 2c4.641 0 8.272 4 13 4 1.429 0 3-5.655 3-7 0-.297-15-6.07-15-7h-2l-3 8Z"/><path fill="#0A828B" id="VISam6a" d="M177 46c-9.993 0-18.822 3-28 3l-2-6c7.904 0 21.417-6 28-6l2 8v1ZM279 45c9.146 0 19.034 4 28 4 0-2.447 2-3.28 2-6-9.18 0-19.211-6-28-6 0 3.303-2 5.115-2 8Z"/><path fill="#019EAA" id="VISrl4" d="M99 57h1c0-2.203 22.9-15 26-15l-1-4h-1c-2.46 0-21.21 8.71-23 10.5L95 53l4 4ZM361 53c-2.349 0-1.382 3-4 3-4.148 0-10.73-7.115-14.5-9-1.492-.746-11.5-3.906-11.5-5l1-4c6.783 0 25.368 14 29 14v1Z"/><path fill="#1BA698" id="RSPd6b" d="M197 41v1l-6-1c0-2.515 5.014 0 6 0ZM269 41v2c-2.522 0-4.909-2-8-2 0-2.46 6.743 0 8 0ZM187 42v1l4-2h-4v1Z"/><path fill="#CACCC7" id="cing" d="m212 62 3 4c-5.491 0-12.062-9-15-9l-1.5-2c-4.261-2.13-7.816-5.908-12-8l-6 2-18.5 1h-9c0-1.7 5.137-1 6.5-1 5.861 0 10.953-2 17.5-2l8-4h2l4-2 6 1c0 1.669 10.042 16 11 16 0 1.621 2.379 4 4 4Z"/><path fill="#1BA698" id="RSPd6b" d="M259 42h1l1-1h-2v1Z"/><path fill="#CACCC7" id="cing" d="m244 63-1 2c3.45 0 4.946-3 8-3l1-1 1-1 1-1 4.5-4c3.653-3.653 6.822-5.91 11-8l6 2 19.5 1h9c0-1.7-5.137-1-6.5-1-6.094 0-11.659-2-18.5-2-2.949 0-6.667-4-10-4-2.522 0-4.909-2-8-2l-1 1c0 1.326-9.909 15-11 15l-1 2-3 3-1 1Z"/><path fill="#1AA598" id="RSPagl6b" d="M279 45v2c-2.949 0-6.667-4-10-4v-2h1c0 1.29 7.597 4 9 4Z"/><path fill="#019DAB" id="VISrl5" d="M100 57c0 1.497 4.3 6 6 6 5.735 0 16.616-13 23-13l-3-8c-3.1 0-26 12.797-26 15Z"/><path fill="#1AA598" id="RSPagl6b" d="M185 43h2v-1l-2 1Z"/><path fill="#1AA497" id="RSPv6b" d="M197 42c.809 0 11 14.317 11 16-.958 0-11-14.331-11-16ZM260 42c0 1.326-9.909 15-11 15 0-4.154 5.239-6.978 7-10.5.592-1.185 1.012-4.5 3-4.5h1Z"/><path fill="#019DAB" id="VISrl5" d="M350 63h1l6-6v-1c-4.148 0-10.73-7.115-14.5-9-1.492-.746-11.5-3.906-11.5-5h-1c0 1.345-1.571 7-3 7v1c6.512 0 17.714 13 23 13Z"/><path fill="#188060" id="SSp-bfd1" d="m67 58 2 3 19-15-2-3c-1.66 0-19 13.464-19 15Z"/><path fill="#009DAC" id="VISa6a" d="M131 56h1l17-7-2-6h-1c0 2.905-16 3.46-16 7l1 6Z"/><path fill="#1AA598" id="RSPagl6b" d="M177 46v1l8-4c-3.303 0-5.115 2-8 2v1Z"/><path fill="#009DAC" id="VISa6a" d="M327 50c0 1.974-2 3.517-2 6l-18-7c0-2.447 2-3.28 2-6h1l4 2c4.641 0 8.272 4 13 4v1Z"/><path fill="#188060" id="SSp-bfd1" d="M387 61h1l2-3c0-1.121-17.873-15-20-15l-1 3 18 15Z"/><path fill="#08838A" id="VISam6b" d="M304 50h2l1-1c-8.966 0-18.854-4-28-4v2c6.841 0 12.406 2 18.5 2 1.363 0 6.5-.7 6.5 1Z"/><path fill="#187F63" id="SSp-bfd2/3" d="m69 62 6 6 4-3.5C80.155 62.19 90.87 53 94 53c0-1.8-3.503-7-5-7h-1L69 61v1Z"/><path fill="#08838A" id="VISam6b" d="M150 50h3c0-1.7 5.137-1 6.5-1 5.861 0 10.953-2 17.5-2v-1c-9.993 0-18.822 3-28 3l1 1Z"/><path fill="#187F63" id="SSp-bfd2/3" d="M387 61c0 1.338-4.41 7-6 7 0-2.916-17.357-15-20-15v-1c1.198 0 6-4.298 6-6h2l18 15Z"/><path fill="#C8C9CA" id="fp" d="M91 101c-2.852 0-10.987 18-12 18 0-18.816 31.847-48.174 47.5-56 7.204-3.602 14.797-6.398 22-10 1.471-.736 7.5.357 7.5-2 1.321 0 6 .684 6-1l18.5-1 6-2c4.184 2.092 7.739 5.87 12 8l1.5 2c0 4.893 23 14.77 23 20v2h-1c0-4.707-4.003-1.503-6-3.5l-5.5-.5-15-8c-5.831-2.915-10.203-9.101-16-12-1.073-.536-5.5-.25-5.5 1-5.726 0-13.805-2.848-19.5 0-1.046.523-3.5-.952-3.5 1-1.145 0-4-.58-4 1l-2 1h-1l-4 2h-1c-1.238 0-3 .423-3 2h-1c-1.238 0-3 .423-3 2h-1l-1 1-2 1c-1.238 0-3 .423-3 2-1.238 0-3 .423-3 2-1.238 0-3 .423-3 2-1.238 0-3 .423-3 2-1.238 0-3 .423-3 2l-2 2c-1.747 0-2 .253-2 2-2.226 0-4 1.774-4 4-1.747 0-2 .253-2 2-1.747 0-2 .253-2 2l-2 2v1c-1.747 0-2 .253-2 2l-2 2-1 1-1 1-1 1-1 2ZM365 101c4.052 0 10.343 17 12 17 0-10.312-8.695-16.89-13-25.5-8.486-16.972-30.951-26.725-48.5-35.5-3.986-1.993-11.029-6-15.5-6-1.235 0-5 .643-5-1l-19.5-1-6-2c-4.178 2.09-7.347 4.347-11 8l-4.5 4-1 1-1 1-1 1c0 .962-18 12.716-18 15v1h1c0-3.348 9.5-2 11.5-3l17-9 14-11c1.14-.57 6.5-.264 6.5 1 5.495 0 13.012-2.744 18.5 0 1.046.523 3.5-.952 3.5 1h1c2.172 0 10 1.377 10 4h1c1.572 0 7 2.052 7 4h1c1.238 0 3 .423 3 2h1c1.061 0 5 2.57 5 4h1c2.834 0 28 22.609 28 27l2 2v1Z"/><path fill="#029FAC" id="VISa6b" d="M132 56v1c4.638 0 10.465-3.983 14.5-6 1.046-.523 3.5.952 3.5-1l-1-1-17 7ZM325 56v1c-4.854 0-10.326-3.913-14.5-6-1.147-.574-4.5 1.064-4.5-1l1-1 18 7Z"/><path fill="#029EAB" id="VISrl6a" d="M112 67h2c0-1.577 1.762-2 3-2 0-1.577 1.762-2 3-2 0-3.762 11-3.901 11-7l-1-6h-1c-6.384 0-17.265 13-23 13v1l6 3Z"/><path fill="#CBC9C7" id="or" d="M69 172h3c1.995 0 4.919.662 6-1.5l-3-7c-1.889-3.777 0-11.179 0-14.5v-8c0-7.773 4-14.904 4-22 0-18.816 31.847-48.174 47.5-56 7.204-3.602 14.797-6.398 22-10 1.471-.736 7.5.357 7.5-2v-1h-6c0 1.952-2.454.477-3.5 1-4.035 2.017-9.862 6-14.5 6 0 1.574-10.112 6-12 6 0 1.577-1.762 2-3 2 0 2.293-.997 2-3 2l-1 1c0 1.933-12.072 11-14 11 0 1.198-4.298 6-6 6 0 1.747-.253 2-2 2l-1 2-1 1c0 1.338-4.41 7-6 7v1l-8 15-4 11c1.58 0 1 2.855 1 4 0 1.048.473 3-1 3 0 6.565-3 12.69-3 20 0 3.559-2 9.441-2 13 0 3.345 3 6.468 3 8Z"/><path fill="#C9C9CA" id="scwm" d="M162 50c0 1.684-4.679 1-6 1v-1h6ZM300 50v1c-1.235 0-5 .643-5-1h5Z"/><path fill="#CBC9C7" id="or" d="M385 172h2l3-2.5V163c0-3.531-1-7.893-1-12 0-7.15-4-14.356-4-21v-1l-1-2 1-2c0-4.334-3-7.01-3-11l-2-3.5c-1.769-3.538-3.239-7.478-5-11l-2-1.5c0-5.641-10-8.04-10-13l-15-13.5-5-3.5-14-8.5c-1.053-1.053-4-.047-4-2.5-4.854 0-10.326-3.913-14.5-6-1.147-.574-4.5 1.064-4.5-1h-6v1c4.471 0 11.514 4.007 15.5 6 17.549 8.775 40.014 18.528 48.5 35.5 4.305 8.61 13 15.188 13 25.5v1l1 1c0 6.828 3 12.605 3 20v3l1 2c0 4.102-3.044 26.411-3 26.5l6 .5Z"/><path fill="#029EAB" id="VISrl6a" d="m350 63-5 4c-7.036 0-12.465-10-20-10v-1c0-2.483 2-4.026 2-6 6.512 0 17.714 13 23 13Z"/><path fill="#197C64" id="SSp-bfd4" d="M80 73h1l18-16-4-4h-1c-3.13 0-13.845 9.19-15 11.5L75 68v1l5 4ZM376 73h1l4-4v-1c0-2.916-17.357-15-20-15-2.349 0-1.382 3-4 3v1c2.126 0 16.272 16 19 16Z"/><path fill="#C7C8CC" id="alv" d="m201 80 4 1-7.5-4-17-17c-1.28-.64-6.5-2.385-6.5-4-5.726 0-13.805-2.848-19.5 0-1.046.523-3.5-.952-3.5 1 23.186 0 22.537-1.963 40 15.5l10 7.5Z"/><path fill="#C9CCC9" id="dhc" d="M219 81h1l2-2c0-4.707-4.003-1.503-6-3.5l-5.5-.5-15-8c-5.831-2.915-10.203-9.101-16-12-1.073-.536-5.5-.25-5.5 1 0 1.615 5.22 3.36 6.5 4l17 17 7.5 4h14ZM249 81h2l2-1 2-1h1l1-1 2-1c0-1.712 2.571-3 4-3l1-1 1-1 1-1c0-2.839 7.161-10 10-10 0-1.577 1.762-2 3-2l2-1 2-1v-1c0-1.264-5.36-1.57-6.5-1l-14 11-17 9c-2 1-11.5-.348-11.5 3 0 1.803 3.592 3 5 3h10Z"/><path fill="#C7C8CC" id="alv" d="M283 57h22c0-1.952-2.454-.477-3.5-1-5.488-2.744-13.005 0-18.5 0v1Z"/><path fill="#009DAA" id="VISrl6b" d="M132 57c0 1.574-10.112 6-12 6 0-3.762 11-3.901 11-7h1v1Z"/><path fill="#7ECF4B" id="CA1" d="M85 115v4c4.424 0 8.671-6.086 12.5-8 6.5-3.25 15.894-8 23.5-8 0-5.907 6.834-9.667 11.5-12 12.831-6.415 25.946-15.527 41-8 4.52 2.26 9.137 6.069 13 8l4.5 4 5 2h1l2 1h6c0-6.414-4-12.101-4-18l-10-7.5C173.537 55.037 174.186 57 151 57c0 1.58-2.855 1-4 1l-2 1h-1c0 2.109-2.535 2-4 2h-1c0 1.577-1.762 2-3 2h-1c0 1.577-1.762 2-3 2h-1l-1 1-2 1c0 1.577-1.762 2-3 2 0 1.577-1.762 2-3 2 0 1.577-1.762 2-3 2 0 1.577-1.762 2-3 2 0 1.577-1.762 2-3 2 0 1.747-.253 2-2 2l-2 2-4 4-2 2-2 2c0 1.747-.253 2-2 2v1l-2 2c0 1.238-.423 3-2 3l-1 1c0 1.408-1.197 5-3 5l-6 12ZM335 103c9.452 0 19.516 6.008 27.5 10 3.976 1.988 6.19 7 10.5 7 0-5.913-17.871-34.186-23.5-37-1.519-.76-14.5-11.484-14.5-12h-1c-1.247 0-5-2.467-5-4h-1c-1.238 0-3-.423-3-2h-1l-7-4h-1c-1.32 0-10-3.135-10-4h-23l-2 1-2 1c0 1.577-1.762 2-3 2l-10 10-1 1-1 1-1 1c0 1.712-2.571 3-4 3l-2 1-1 1h-1v1l-4 18h6l2-1h2l4-2h1l1-1c0-3.818 14.275-9.387 17.5-11 14.447-7.224 27.507 1.754 40 8 4.474 2.237 10.5 6.445 10.5 12Z"/><path fill="#1A7D62" id="SSp-bfd5" d="M81 73c0 1.935 4.065 6 6 6 3.977 0 12.87-15 19-15v-1c-1.7 0-6-4.503-6-6h-1L81 73Z"/><path fill="#C7C8CC" id="alv" d="M151 57c-1.145 0-4-.58-4 1 1.145 0 4 .58 4-1Z"/><path fill="#C7CACC" id="ccs" d="M223 77c1.618 0 4.745-2.378 5.5-2l4.5 2c0-2.284 18-14.038 18-15-3.054 0-4.55 3-8 3l-1 1-5 1c0 1.638-3.576 2-5 2l-2-1-3-1-2 2-5-1-5-2c-5.491 0-12.062-9-15-9 0 4.893 23 14.77 23 20Z"/><path fill="#1AA497" id="RSPv6b" d="m249 57-1 2 1-2Z"/><path fill="#C7C8CC" id="alv" d="m283 57-2 1 2-1ZM306 57c2.172 0 10 1.377 10 4-1.32 0-10-3.135-10-4Z"/><path fill="#009DAA" id="VISrl6b" d="M343 68h2v-1c-7.036 0-12.465-10-20-10 0 2.453 2.947 1.447 4 2.5l14 8.5Z"/><path fill="#1A7D62" id="SSp-bfd5" d="M369 80h1l6-7c-2.728 0-16.874-16-19-16l-6 6c0 1.7 18 13.007 18 17Z"/><path fill="#1A7E62" id="SSs1" d="M58 72h1c0-2.444 7.533-10 10-10v-1l-2-3c-2.06 0-11 7.71-11 10l2 4Z"/><path fill="#C7C8CC" id="alv" d="m147 58-2 1 2-1ZM281 58l-2 1 2-1Z"/><path fill="#1A7E62" id="SSs1" d="M401 69c-1.481 0-.785 2-3 2l-10-10 2-3c1.914 0 11 10.169 11 11Z"/><path fill="#C7C8CC" id="alv" d="m144 59-4 2c1.465 0 4 .109 4-2Z"/><path fill="#C7CACC" id="ccs" d="m254 59-1 1 1-1Z"/><path fill="#C7C8CC" id="alv" d="M279 59c-1.238 0-3 .423-3 2 1.238 0 3-.423 3-2Z"/><path fill="#C7CACC" id="ccs" d="m253 60-1 1 1-1Z"/><path fill="#C7C8CC" id="alv" d="M139 61c-1.238 0-3 .423-3 2 1.238 0 3-.423 3-2Z"/><path fill="#C7CACC" id="ccs" d="m252 61-1 1 1-1Z"/><path fill="#C7C8CC" id="alv" d="M276 61c-2.839 0-10 7.161-10 10l10-10ZM317 61c1.572 0 7 2.052 7 4l-7-4Z"/><path fill="#1B8063" id="SSs2/3" d="m398 72-7 7c-3.329 0-6.17-10-10-10v-1c1.59 0 6-5.662 6-7h1l10 10v1ZM65 79h1c0-1.815 6.928-10 9-10v-1l-6-6c-2.467 0-10 7.556-10 10l6 7Z"/><path fill="#1AA498" id="RSPv6a" d="m245 62-1 1 1-1Z"/><path fill="#009DAA" id="VISrl6b" d="M120 63c-1.238 0-3 .423-3 2 1.238 0 3-.423 3-2Z"/><path fill="#C7C8CC" id="alv" d="M135 63c-1.238 0-3 .423-3 2 1.238 0 3-.423 3-2Z"/><path fill="#198060" id="SSp-bfd6a" d="M364 85h1l4-5c0-3.993-18-15.3-18-17h-1l-5 4v1c0 .949 19 13.348 19 17ZM87 80c0 .828 3.749 4 5 4 2.696 0 3.847-5 7-5 0-2.311 10.241-11 13-11v-1l-6-3c-6.13 0-15.023 15-19 15v1Z"/><path fill="#009DAA" id="VISrl6b" d="M117 65c-1.238 0-3 .423-3 2 2.003 0 3 .293 3-2Z"/><path fill="#C7C8CC" id="alv" d="m131 65-1 1 1-1Z"/><path fill="#CACCC7" id="cing" d="m243 65-1 1 1-1Z"/><path fill="#C7C8CC" id="alv" d="M325 65c1.238 0 3 .423 3 2-1.238 0-3-.423-3-2ZM130 66l-2 1 2-1Z"/><path fill="#009DAA" id="VISrl6b" d="M112 68h1l1-1h-2v1Z"/><path fill="#C7C8CC" id="alv" d="M128 67c-1.238 0-3 .423-3 2 1.238 0 3-.423 3-2ZM329 67c1.061 0 5 2.57 5 4-1.247 0-5-2.467-5-4Z"/><path fill="#039399" id="AUDd1" d="M40 88c1.947 0 2.636 3 5 3 0-4.477 13-15.299 13-19l-2-4c-.955 0-16 17.993-16 20Z"/><path fill="#1A7E61" id="SSp-bfd6b" d="M113 68c0 1.933-12.072 11-14 11 0-2.311 10.241-11 13-11h1ZM363 85h1c0-3.652-19-16.051-19-17h-2l5 3.5L363 85Z"/><path fill="#187C63" id="SSs4" d="M69 83h1l10-10-5-4c-2.072 0-9 8.185-9 10l3 4Z"/><path fill="#C7C8CC" id="alv" d="M125 69c-1.238 0-3 .423-3 2 1.238 0 3-.423 3-2Z"/><path fill="#187C63" id="SSs4" d="m391 80-4 3-10-10 4-4c3.83 0 6.671 10 10 10v1Z"/><path fill="#039399" id="AUDd1" d="M411 91h1l5-3c0-1.172-15.12-19-16-19-1.481 0-.785 2-3 2v1c.68 0 13 17.26 13 19Z"/><path fill="#C7C8CC" id="alv" d="M122 71c-1.238 0-3 .423-3 2 1.238 0 3-.423 3-2ZM266 71l-1 1 1-1ZM343 199v2l11-9c0-1.712 2.571-3 4-3l5.5-4c13.061-6.53 17.5-25.91 17.5-40v-5c-1.984 0-4.002-13.504-5-15.5l-8-19-3-4.5v-1l-2-2c0-4.391-25.166-27-28-27 0 .516 12.981 11.24 14.5 12 5.629 2.814 23.5 31.087 23.5 37 0 3.455 3 5.917 3 9 0 3.721 1.36 10.22 3 13.5l-1 8c0 9.425-3.402 22.951-12.5 27.5-2.167 1.083-9.017 6.466-10.5 3.5-2.183-4.365 1.225-11.55-1-16l-5-17c-3.356-6.713-13.856-24.678-19.5-27.5-3.764-1.882-7.019-9-12.5-9l3 3 2 1 1 1c2.486 0 14 13.66 14 17 2.529 0 11 18.074 11 21l1 2v2c2.826 0 0 15.401 0 17 0 4.231.853 19-4 19 0 1.465.109 4-2 4Z"/><path fill="#029397" id="AUDd2/3" d="M51 97h2c0-6.7 12-12.434 12-18l-6-7h-1c0 3.701-13 14.523-13 19v1c.953 0 6 3.715 6 5Z"/><path fill="#C7C8CC" id="alv" d="m265 72-1 1 1-1Z"/><path fill="#029397" id="AUDd2/3" d="M404 97h1l6-6c0-1.74-12.32-19-13-19l-7 7v1l2.5 3c2.406 1.203 10.5 10.75 10.5 14Z"/><path fill="#1C8063" id="SSs5" d="m70 83 7 8 10-11v-1c-1.935 0-6-4.065-6-6h-1L70 83Z"/><path fill="#C7C8CC" id="alv" d="M119 73c-1.238 0-3 .423-3 2 1.238 0 3-.423 3-2ZM264 73l-1 1 1-1Z"/><path fill="#1C8063" id="SSs5" d="M387 84c-3.127 0-4.51 7-8 7l-9-11 6-7h1l10 10v1Z"/><path fill="#C7C8CC" id="alv" d="M263 74c-1.429 0-4 1.288-4 3 1.429 0 4-1.288 4-3ZM116 75c-1.238 0-3 .423-3 2 1.238 0 3-.423 3-2ZM113 77l-2 2c1.747 0 2-.253 2-2ZM259 77l-2 1 2-1Z"/><path fill="#7DCD4B" id="HPF" d="M238 82h1v-1c-1.408 0-5-1.197-5-3h-1c0 1.048-.473 3 1 3l4 1Z"/><path fill="#C7C8CC" id="alv" d="m257 78-1 1 1-1Z"/><path fill="#039398" id="AUDd4" d="m53 97 2 2 4-4.5c2.608-2.608 10-8.485 10-11.5l-3-4h-1c0 5.566-12 11.3-12 18Z"/><path fill="#1A7E61" id="SSp-bfd6b" d="M92 85h1c1.702 0 6-4.802 6-6-3.153 0-4.304 5-7 5v1Z"/><path fill="#C7C8CC" id="alv" d="M111 79c-1.747 0-2 .253-2 2l2-2Z"/><path fill="#7DCD4B" id="HPF" d="M220 81h3v-2h-1l-2 2Z"/><path fill="#C7C8CC" id="alv" d="M253 80h2v-1l-2 1Z"/><path fill="#197D63" id="SSs6a" d="M82 97h1c0-1.822 3.711-8 6-8 0-1.747.253-2 2-2l1-2v-1c-1.251 0-5-3.172-5-4L77 91v1l5 5Z"/><path fill="#7BD04A" id="DG-mo" d="M165 107c-7.509 0-13.872 3-22 3 0-1.048-.473-3 1-3 3.594 0 12.088-5.294 15.5-7 6.236-3.118 17.066-.533 22-3 6.928-3.464-9.426-7.213-11-8-9.414-4.707-26.252 5.126-34 9-2.633 1.317-9.5 3.488-9.5 7h-5l-1-2c0-5.907 6.834-9.667 11.5-12 12.831-6.415 25.946-15.527 41-8 4.52 2.26 9.137 6.069 13 8l4.5 4 1 4-7.5 4c-1.629.815-10.5-.185-10.5 2h-1c-1.552 0-8 .566-8 2Z"/><path fill="#57B947" id="ProS" d="M209 97c0 1.58-2.855 1-4 1 0-6.414-4-12.101-4-18l4 1c0 3.09 1.619 8.738 3 11.5.574 1.147-1.064 4.5 1 4.5Z"/><path fill="#C7C8CC" id="alv" d="m253 80-2 1 2-1Z"/><path fill="#57B947" id="ProS" d="M248 98h3l4-18h-2l-2 1-3 17Z"/><path fill="#7BD04A" id="DG-mo" d="M313 109v1c-11.116 0-19.606-5-30-5h-1c0-2.064-3.353-.426-4.5-1-2.264-1.132-12.5-1.6-12.5-5v-4h1l1-1c0-3.818 14.275-9.387 17.5-11 14.447-7.224 27.507 1.754 40 8 4.474 2.237 10.5 6.445 10.5 12v2h-6c0-4.301-6.675-5.588-9.5-7-7.728-3.864-24.548-13.726-34-9-.925.463-18.331 4.335-11 8 5.06 2.53 16.74-.13 23 3 4.078 2.039 10.87 7 15.5 7v2Z"/><path fill="#197D63" id="SSs6a" d="M374 97h1l4-5v-1l-9-11h-1l-4 5 9 12Z"/><path fill="#039398" id="AUDd4" d="m404 97-3 2c-3.827 0-8.446-15-14-15v-1l4-3 2.5 3c2.406 1.203 10.5 10.75 10.5 14Z"/><path fill="#C7C8CC" id="alv" d="M109 81c-2.226 0-4 1.774-4 4l4-4Z"/><path fill="#4FC244" id="SUB" d="M219 90c-3.06 0-4.827 7-10 7-2.064 0-.426-3.353-1-4.5-1.381-2.762-3-8.41-3-11.5h2c0 1.763 8.343 1 10 1h2v5c-1.399 0-1.399 2 0 2v1Z"/><path fill="#C7C8CC" id="alv" d="M217 81v1c-1.657 0-10 .763-10-1h10Z"/><path fill="#7DCD4B" id="HPF" d="M217 82h2v-1h-2v1Z"/><path fill="#7ECD4A" id="FC" d="M219 87h1l1-1v-1l2-4h-4v6Z"/><path fill="#A8A9AA" id="V3" d="M220 89c1.602 0 2.384-3.058 4.5-2l4 4c1.795-.897 3.42-5.29 6-4 1.445.723.091 2 2.5 2l-2-3v-1l-3.5-4c-5.153-2.576-7.462 4-10.5 4v1l-1 1v2Z"/><path fill="#7ECD4A" id="FC" d="m235 86 3 3c.498 0 0-5.149 0-7l-4-1 1 4v1Z"/><path fill="#C7C8CC" id="alv" d="M249 81c0 1.763-8.343 1-10 1v-1h10Z"/><path fill="#4FC244" id="SUB" d="M238 89c0 4.016 6.23 9 10 9l3-17h-2c0 1.763-8.343 1-10 1h-1c0 1.851.498 7 0 7Z"/><path fill="#029398" id="AUDd5" d="M55 100c5.255 0 6.677 7 12 7l10-15v-1l-7-8h-1c0 3.015-7.392 8.892-10 11.5L55 99v1ZM389 108h1c0-1.693 9.271-8 11-8v-1c-3.827 0-8.446-15-14-15-3.127 0-4.51 7-8 7v1c1.131 0 10 14.277 10 16Z"/><path fill="#1A8061" id="SSs6b" d="M93 85c0 1.747-.253 2-2 2l1-2h1Z"/><path fill="#C7C8CC" id="alv" d="M105 85c-1.747 0-2 .253-2 2l2-2Z"/><path fill="#1A8061" id="SSs6b" d="m374 97-1 1c0-5.641-10-8.04-10-13h2l9 12ZM89 89h1l1-2c-1.747 0-2 .253-2 2Z"/><path fill="#C7C8CC" id="alv" d="M103 87c-1.747 0-2 .253-2 2l2-2Z"/><path fill="#7ECD4A" id="FC" d="M219 87c-1.399 0-1.399 2 0 2v-2Z"/><path fill="#A9AAA8" id="chpl" d="M221 97h15l1-1v-7c-2.409 0-1.055-1.277-2.5-2-2.58-1.29-4.205 3.103-6 4l-4-4c-2.116-1.058-2.898 2-4.5 2l-1 1v6l1 1h1Z"/><path fill="#029297" id="AUDp1" d="m23 131 5 1c0-11.259 6.267-22.034 11-31.5.791-1.582 3.942-8.5 6-8.5v-1c-2.364 0-3.053-3-5-3-2.289 0-5.146 7.792-6 9.5-5.02 10.039-11 21.544-11 33.5Z"/><path fill="#65A83D" id="DG-sg" d="M127 105c0-3.512 6.867-5.683 9.5-7 7.748-3.874 24.586-13.707 34-9 1.574.787 17.928 4.536 11 8-4.934 2.467-15.764-.118-22 3-3.412 1.706-11.906 7-15.5 7l2-4 8.5-5c4.349-2.174 12.292-1.146 16-3 3.057-1.528-8.205-2-9.5-2-4.077 0-24 6.325-24 9-3.641 0-5.885 3-10 3ZM329 105c0-4.301-6.675-5.588-9.5-7-7.728-3.864-24.548-13.726-34-9-.925.463-18.331 4.335-11 8 5.06 2.53 16.74-.13 23 3 4.078 2.039 10.87 7 15.5 7l-2-4c-2.175 0-5.969-3.734-8.5-5-4.642-2.321-11.431-.716-16-3-3.057-1.528 8.205-2 9.5-2 3.956 0 23 6.343 23 9 3.641 0 5.885 3 10 3Z"/><path fill="#029297" id="AUDp1" d="M428 132h1l4-1c0-11.009-4.391-22.282-9-31.5L417 88l-5 3c0 4.51 6.986 10.472 9 14.5 3.753 7.505 7 17.538 7 26.5Z"/><path fill="#1A8061" id="SSs6b" d="M89 90c0 1.338-4.41 7-6 7 0-1.822 3.711-8 6-8v1Z"/><path fill="#C9C9CA" id="scwm" d="m90 89-1 1v-1h1Z"/><path fill="#C7C8CC" id="alv" d="m101 89-2 2c1.747 0 2-.253 2-2Z"/><path fill="#A8A9AA" id="V3" d="m220 89-1 1v-1h1Z"/><path fill="#019298" id="AUDp2/3" d="m428 132-7 1c0-9.247-6.068-19.636-10-27.5-1.475-2.949-6-4.996-6-8.5l6-6h1c0 4.51 6.986 10.472 9 14.5 3.753 7.505 7 17.538 7 26.5ZM35 133h1c0-8.179 3.567-16.633 7-23.5 1.914-3.828 8-8.076 8-12.5 0-1.285-5.047-5-6-5-2.058 0-5.209 6.918-6 8.5-4.733 9.466-11 20.241-11 31.5l7 1Z"/><path fill="#019399" id="AUDd6a" d="M73 113h1c0-2.235 5.644-15 8-15v-1l-5-5-10 15v1c1.723 0 6 3.538 6 5Z"/><path fill="#C7C8CC" id="alv" d="M99 92c-1.747 0-2 .253-2 2l2-2Z"/><path fill="#019399" id="AUDd6a" d="m389 108-6 4-8-15 4-5c1.131 0 10 14.277 10 16Z"/><path fill="#7ECE4A" id="DG-po" d="M137 102c3.013 0 6.611 1 9 1l8.5-5c4.349-2.174 12.292-1.146 16-3 3.057-1.528-8.205-2-9.5-2-4.077 0-24 6.325-24 9ZM319 102c-2.707 0-5.903 1-8 1-2.175 0-5.969-3.734-8.5-5-4.642-2.321-11.431-.716-16-3-3.057-1.528 8.205-2 9.5-2 3.956 0 23 6.343 23 9Z"/><path fill="#C7C8CC" id="alv" d="M95 96v1c1.577 0 2-1.762 2-3l-2 2Z"/><path fill="#7DCD4B" id="HPF" d="m267 94-1 1 1-1ZM196 97l-4 2-1-4 5 2ZM261 97l4 2v-4l-4 2Z"/><path fill="#C7CACC" id="ccs" d="M94 97h1v-1l-1 1Z"/><path fill="#A8A9AA" id="V3" d="m219 96 1 1-1-1ZM237 96l-1 1 1-1Z"/><path fill="#039397" id="AUDp4" d="M40 134h1c0-8.201 2.583-16.665 6-23.5l8-10.5v-1l-2-2h-2c0 4.424-6.086 8.672-8 12.5-3.433 6.867-7 15.321-7 23.5l4 1Z"/><path fill="#1A8061" id="SSs6b" d="M82 98h1v-1h-1v1Z"/><path fill="#C7CACC" id="ccs" d="M93 98h1v-1l-1 1Z"/><path fill="#C7C8CC" id="alv" d="m95 97-1 1v-1h1Z"/><path fill="#7DCD4B" id="HPF" d="m197 97 2 1-2-1Z"/><path fill="#A8A9AA" id="V3" d="M222 99h12l2-2h-15l1 2Z"/><path fill="#7DCD4B" id="HPF" d="m259 97-2 1 2-1Z"/><path fill="#019398" id="AUDd6b" d="m383 113-1 1-2-3.5c-1.769-3.538-3.239-7.478-5-11l-2-1.5 1-1h1l8 15v1Z"/><path fill="#039397" id="AUDp4" d="m421 133-5 1c0-8.314-4.112-21.612-10-27.5l-5-6.5v-1l3-2h1c0 3.504 4.525 5.551 6 8.5 3.932 7.864 10 18.253 10 27.5Z"/><path fill="#019398" id="AUDd6b" d="M74 113h1l8-15h-1c-2.356 0-8 12.765-8 15Z"/><path fill="#C7C8CC" id="alv" d="M91 101v2c1.803 0 3-3.592 3-5h-1l-1 1-1 2Z"/><path fill="#C7CACC" id="ccs" d="m363 98 2 2-2-2ZM92 99l-1 2 1-2Z"/><path fill="#C8CCC7" id="hbc" d="m239 105 4 2c0-4.134-5.083-8-9-8h-12c-2.12 0-10.96 6.77-8.5 8l3.5-1 1-1 3.5-2c.735-.367 13.265-.367 14 0 1.619.809 1.471 2 3.5 2Z"/><path fill="#039199" id="AUDp5" d="m41 134 15 3c0-7.617 11-24.272 11-29v-1c-5.323 0-6.745-7-12-7l-8 10.5c-3.417 6.835-6 15.299-6 23.5ZM416 134l-16 3c0-9.308-10-21.455-10-29 0-1.693 9.271-8 11-8l5 6.5c5.888 5.888 10 19.186 10 27.5Z"/><path fill="#C7CACC" id="ccs" d="M79 119c0 7.096-4 14.227-4 22 1.602 0 7.526-26 10-26 0-2.286 3.343-12 6-12v-2c-2.852 0-10.987 18-12 18ZM378 120c0 6.828 3 12.605 3 20-1.984 0-4.002-13.504-5-15.5l-8-19-3-4.5c4.052 0 10.343 17 12 17v1l1 1Z"/><path fill="#7ECF49" id="CA3" d="m81 129-1 1c0 6.932-4.516 15.468-1 22.5 1.434 2.869 1.73 13.459 4 18 2.939 5.878 9.883 8.192 14.5 10.5.775.388 2.523 3.454 3.5 1.5l2-20c2.013-4.026 2.026-9.051 4-13 3.319-6.637 8.634-12.269 12-19 2.246-4.492 10.226-15.5 16-15.5l1-1 1-1 2-1 1-1 3-1c0-1.048-.473-3 1-3l2-4c-2.389 0-5.987-1-9-1-3.641 0-5.885 3-10 3h-5c-11.084 0-21.133 9.316-30.5 14L81 129Z"/><path fill="#FF64FF" id="MB" fill-rule="evenodd" d="M236 147c0 3.531-1 7.893-1 12l.5 4 .5-2.5c.712-1.425 2.34-13.5 0-13.5m-16 0v12.5c0 .76 1.066 4.869 2 3 .978-1.956-1.23-15.5-2-15.5m36 76c2.124 0 4.436 1 6 1l4-4.5c1.813-3.626-2-7.64-2-10.5-1.232 0-1.711-9.078-1-10.5.91-1.821 6-7.862 6-9.5-6.06 0 2-5.983 2-6-7.366 0-19-2.515-19-11 0-11.409-4.328-25.586 8.5-32l7.5 1c1.028 0 4-4.666 4-6-16.975 0-8.809-8.118-14-18.5-2.446-4.891 1.434-13.5 6-13.5 0-1.622-9-1.622-9 0 4.854 0-2.893 7.713-5 3.5l1-2.5-8 3c0 2.33-4 3.227-4 6 5.651 0 9.696 6.892 12 11.5.484.969-.065 4.5-1.5 4.5-1.132 0-12.5-11.311-12.5-13l-3 1c0 1.985 7 2.696 7 6l8 7.5c3.337 6.674-8.818 11.659-12.5 13.5l-7.5-1c0 4.466-2 4.252-2 0-7.387 0-15.995-.49-20-8.5-1.278-2.555 2-4.516 2-6.5l-2.5 1c-2.785 0-.873-4.753-.5-5.5 2.164-4.328 13-18.838 13-4.5l4-1v-1c-5.874 0-9.649-13-17-13 0 9.696-9.98-1-4-1 0-1.628-10-1.628-10 0 6.039 0 8.838 11.824 6 17.5-5.483 10.966 2.44 14.5-14 14.5l4 6 7.5-1c12.014 6.007 9.5 18.996 9.5 32 0 4.538-1.499 7-6 7 0 2.606-11.413 4-14 4 0 2.208 3-1.619 3 6l5 8.5c2.341 4.683-1 8.506-1 12.5 0 3.263-4.819 14 3 14l5-1 9-1c0-1.951 2.454-.477 3.5-1l1.5-2v-7c-1.723 0-.393 4.553-3.5 3-3.627-1.814-.265-6 2.5-6 0-3.388-4.095-8.31-2-12.5l6-5.5c-6.626 0-8-5.348-8-11v-3c0-3.756-4.321-9.859-2-14.5 5.943-11.886 9 8.803 9 12.5l-1 2 1 4c3.913 0 3 6.556 3 9l4 2c2.54 0 2.543 3 4 3 0-1.728-.745-12 1.5-12l.5 12 4-3c1.03 0 2.671-1 6-1 0-1.947-3.428-3.644-2-6.5l4-4.5v-3c0-5.739 1.259-27.982 9-12.5 1.888 3.775-2 8.247-2 11.5l-1 4c0 4.804.596 11-7 11l5 4.5c2.202 4.404-2 10.166-2 13.5 8.843 0 0 10.837 0 2-1.714 0-1 5.594-1 7l2.5 3c.919.459 2.5-.765 2.5 1h1l8 1Z"/><path fill="#7ECF49" id="CA3" d="M317 112c5.481 0 8.736 7.118 12.5 9 5.644 2.822 16.144 20.787 19.5 27.5l5 17c2.225 4.45-1.183 11.635 1 16 1.483 2.966 8.333-2.417 10.5-3.5 9.098-4.549 12.5-18.075 12.5-27.5l1-8c-1.64-3.28-3-9.779-3-13.5l-9.5-9c-9.46-4.73-20.374-15-31.5-15h-6c-4.115 0-6.359-3-10-3-2.707 0-5.903 1-8 1l2 4v2l1 1 3 2Z"/><path fill="#C7C8CC" id="alv" d="M91 103c-2.657 0-6 9.714-6 12l6-12Z"/><path fill="#7DCF4B" id="CA2" d="M84 120c0 3.083-3 5.545-3 9l10.5-10c9.367-4.684 19.416-14 30.5-14l-1-2c-7.606 0-17 4.75-23.5 8-3.829 1.914-8.076 8-12.5 8l-1 1Z"/><path fill="#FE8EFF" id="APN" d="m178 129 6 6c16.44 0 8.517-3.534 14-14.5 2.838-5.676.039-17.5-6-17.5-4.885 0-8.723 3-13 3l-6 3c0 1.238-.423 3-2 3v2l1 1 7 11.5-1 2.5Z"/><path fill="#FE90FC" id="OP" d="m202 103 4 1c0 9.696-9.98-1-4-1Z"/><path fill="#A8A9AA" id="V3" d="M224 117h9c0-2.695 6-6.016 6-12-2.029 0-1.881-1.191-3.5-2-.735-.367-13.265-.367-14 0l-3.5 2-1 1c0 4.487 7 7.441 7 11Z"/><path fill="#FE90FC" id="OP" d="M255 103c4.854 0-2.893 7.713-5 3.5l1-2.5c0-1.579 2.855-1 4-1Z"/><path fill="#FE8EFF" id="APN" d="M279 129c-2.96 0-3.754 6-7 6-16.975 0-8.809-8.118-14-18.5-2.446-4.891 1.434-13.5 6-13.5 4.982 0 8.896 3 13 3l6 3 2 2v4c-4.299 0-6 11.789-6 14Z"/><path fill="#7DCF4B" id="CA2" d="M373 120c0 3.455 3 5.917 3 9l-9.5-9c-9.46-4.73-20.374-15-31.5-15v-2c9.452 0 19.516 6.008 27.5 10 3.976 1.988 6.19 7 10.5 7Z"/><path fill="#CAC7CB" id="fiber tracts" d="m175 105-2 1v-1h2Z"/><path fill="#C7CBCB" id="bsc" d="m171 110-15 1 2-1 1-1h4l1-1h1l2-1h3l1-1h2l2-1c1.145 0 4-.579 4 1l-6 3h-1l-1 1ZM300 110v1l-15-1-1-1h-1l-6-3c0-1.579 2.855-1 4-1l2 1h2l1 1h3l2 1h1l2 1h3l1 1h2Z"/><path fill="#CAC7CB" id="fiber tracts" d="M283 105v1l-2-1h2ZM171 106l-1 1 1-1ZM285 106l1 1-1-1ZM167 107l-2 1v-1h2ZM289 107l2 1-2-1Z"/><path fill="#019396" id="AUDp6a" d="m56 137 9 2c0-9.029 8-17.125 8-26 0-1.462-4.277-5-6-5 0 4.728-11 21.383-11 29Z"/><path fill="#CAC7CB" id="fiber tracts" d="m164 108-1 1 1-1ZM292 108l2 1-2-1Z"/><path fill="#019396" id="AUDp6a" d="M391 139h1l8-2c0-9.308-10-21.455-10-29h-1l-6 4v1c0 8.691 8 16.721 8 26Z"/><path fill="#CAC7CB" id="fiber tracts" d="m159 109-1 1 1-1Z"/><path fill="#FF64FF" id="MB" d="m172 109-1 1 1-1Z"/><path fill="#FF6F80" id="TH" d="M171 110v2c1.577 0 2-1.762 2-3h-1l-1 1ZM285 110v1l-2-2h1l1 1Z"/><path fill="#FF64FF" id="MB" d="m284 109 1 1-1-1Z"/><path fill="#CAC7CB" id="fiber tracts" d="m297 109 1 1-1-1Z"/><path fill="#7DCD4B" id="HPF" d="M313 110h1l-1-1v1Z"/><path fill="#FE909D" id="LP" d="m151 140-1 1c-4.062 0-5 .306-5-4v-1l1-1c0-2.253.984-6.469 2-8.5 1.592-3.184-1-8.819-1-11.5v-2c1.048 0 3 .473 3-1 1.145 0 4 .579 4-1h2l15-1v5c0 1.944-1.018 15 3 15l-1 2-11 4-1 1c-3.679 0-6.731 3-10 3ZM305 140l1 1c4.826 0 5 .112 5-4 0-3.153-1.569-9.637-3-12.5-.308-.616 1-7.763 1-9.5v-2c-1.048 0-3 .473-3-1h-3l-1-1h-2l-15-1v5c2.131 0 .625 15-3 15l1 1c1.094 0 11 4.493 11 5l1 1c3.679 0 6.731 3 10 3Z"/><path fill="#CAC7CB" id="fiber tracts" d="M300 111h1l-1-1v1Z"/><path fill="#C7C8CC" id="alv" d="M139 112h1v-1l-1 1Z"/><path fill="#CAC7CB" id="fiber tracts" d="M145 113h2c1.048 0 3 .473 3-1-1.235 0-5 .643-5-1l-2 1 2 1Z"/><path fill="#C7CBCB" id="bsc" d="M154 111c0 1.579-2.855 1-4 1-1.235 0-5 .643-5-1h9Z"/><path fill="#CAC7CB" id="fiber tracts" d="M303 111v1l-1-1h1Z"/><path fill="#C7CBCB" id="bsc" d="M311 113h4v-1h-2l-1-1h-9v1h3c1.235 0 5-.643 5 1Z"/><path fill="#CAC7CB" id="fiber tracts" d="m312 111 1 1-1-1Z"/><path fill="#C7C8CC" id="alv" d="M137 113h2v-1l-2 1Z"/><path fill="#CAC7CB" id="fiber tracts" d="m141 113-1 1v-2h1v1Z"/><path fill="#C7CBCB" id="bsc" d="M141 113h4l-2-1h-2v1Z"/><path fill="#CAC7CB" id="fiber tracts" d="M309 113h2c0-1.643-3.765-1-5-1 0 1.473 1.952 1 3 1ZM318 115c0-1.93 1.161 0 2 0l-3-3h-2v1l1 1c0-1.186 1-1.186 1 0l1 1Z"/><path fill="#039198" id="AUDp6b" d="M66 139h1c0-5.591 4-9.8 4-15l4-11h-2c0 8.875-8 16.971-8 26h1Z"/><path fill="#C7C8CC" id="alv" d="M136 114h1v-1l-1 1Z"/><path fill="#CAC7CB" id="fiber tracts" d="M137 114h2v-1h-2v1Z"/><path fill="#C7CBCB" id="bsc" d="M139 114h1v-1h-1v1Z"/><path fill="#FE8083" id="LGd-sh" d="M121 135v2l2.5 2c5.486-2.743 6.02-18 14.5-18 0-1.517 7.636-6 9-6v-2h-6l-1 1h-1l-2 1c0 1.577-1.762 2-3 2l-2 2-1 1-1 1-1 1-1 1-1 1-2 2v1l-1 1-1 2-1 1v1l-1 1v2Z"/><path fill="#FF8DFE" id="NPC" d="m210 127-1 1-2.5 1c-2.785 0-.873-4.753-.5-5.5 2.164-4.328 13-18.838 13-4.5-1.747 0-2 .253-2 2-1.747 0-2 .253-2 2-1.562 0-5 2.189-5 4Z"/><path fill="#FF64FF" id="MB" d="m239 113-1 1 1-1Z"/><path fill="#FF8DFE" id="NPC" d="M237 115v1c0 1.689 11.368 13 12.5 13 1.435 0 1.984-3.531 1.5-4.5-2.304-4.608-6.349-11.5-12-11.5l-1 1-1 1Z"/><path fill="#FE8083" id="LGd-sh" d="M335 135v1c0 1.069-.811 3.845-2.5 3l-7.5-13.5c-1.934-3.869-9.599-6.549-13.5-8.5l-2.5-2v-2h6l1 1h1l1 1 2 1 1 1 4 3 1 1 1 1 1 1 1 1 2 2 1 2 1 1v1l2 2v3Z"/><path fill="#C7CBCB" id="bsc" d="M316 114h1c0-1.186-1-1.186-1 0Z"/><path fill="#039198" id="AUDp6b" d="M390 139h1c0-9.279-8-17.309-8-26l-1 1c0 3.99 3 6.666 3 11 1.949 0 4 9.971 4 12v1l1 1Z"/><path fill="#C7C8CC" id="alv" d="M135 115h1v-1l-1 1Z"/><path fill="#CAC7CB" id="fiber tracts" d="M136 115h1v-1h-1v1Z"/><path fill="#C7CBCB" id="bsc" d="m139 114-2 1v-1h2Z"/><path fill="#FF6F80" id="TH" d="M171 115h1l-1-1v1Z"/><path fill="#FF64FF" id="MB" d="m238 114-1 1 1-1Z"/><path fill="#C7CBCB" id="bsc" d="m337 134-2 1v-3l-2-2v-1l-1-1-1-2-2-2-1-1-1-1-1-1-1-1-4-3-1-1-2-1c0-1.93 1.161 0 2 0l2 1 1 1c2.486 0 14 13.66 14 17Z"/><path fill="#C7C8CC" id="alv" d="M115 201c2.978 0 2 2.995 2 4l-14-13c0-1.803-3.592-3-5-3-5.497 0-16.77-16.039-19-20.5-1.306-2.612-.642-6.284-2-9-.752-1.503-.201-10.5-2-10.5v-8c1.602 0 7.526-26 10-26v4l-1 1c0 3.083-3 5.545-3 9l-1 1c0 6.932-4.516 15.468-1 22.5 1.434 2.869 1.73 13.459 4 18 2.939 5.878 9.883 8.192 14.5 10.5.775.388 2.523 3.454 3.5 1.5l2-20c2.013-4.026 2.026-9.051 4-13 3.319-6.637 8.634-12.269 12-19 2.246-4.492 10.226-15.5 16-15.5l-1 2c-1.238 0-3 .423-3 2l-2 2-2 2c-1.577 0-2 1.762-2 3l-1 1c-1.577 0-2 1.762-2 3l-1 1-1 1-1 3c-3.315 0-8 11.28-8 14-1.802 0-3 6.346-3 8-2.064 0-.426 3.353-1 4.5-1.467 2.934 0 9.286 0 13.5 0 5.199 1.687 26 8 26Z"/><path fill="#C7CBCB" id="bsc" d="M137 115c0 1.577-1.762 2-3 2l1-2h2Z"/><path fill="#FE7F84" id="LGd-co" d="m120 139 12 12 13-14v-1l1-1c0-2.253.984-6.469 2-8.5 1.592-3.184-1-8.819-1-11.5-1.364 0-9 4.483-9 6 2.245 0 3.905-2 5.5-2 1.271 0 3.097 3.306 2.5 4.5-2.95 5.901-1.778 13.361-9.5 9.5l-3.5-2.5c-2.356-4.711 5-6.165 5-9.5-8.48 0-9.014 15.257-14.5 18l-2.5-2-1 2Z"/><path fill="#FF8D9D" id="POL" d="m178 129-4 1c-4.018 0-3-13.056-3-15h1l7 11.5-1 2.5ZM279 129l3 1c3.625 0 5.131-15 3-15-4.299 0-6 11.789-6 14Z"/><path fill="#FE7F84" id="LGd-co" fill-rule="evenodd" d="M312 119c0 1.804-2.182 5.136-1 7.5.959 1.918 1.101 4.203 2 6 5.833 11.666 18.155-13.5-1-13.5m24 19c0 1.543-10.742 13-12 13l-13-14c0-3.153-1.569-9.637-3-12.5-.308-.616 1-7.763 1-9.5l2.5 2c3.901 1.951 11.566 4.631 13.5 8.5l7.5 13.5c1.689.845 2.5-1.931 2.5-3l1 2Z"/><path fill="#CCCACA" id="pc" d="M234 119c2.83 0 4.54 4 7 4 0-3.304-7-4.015-7-6h-11v1c3.642 0 8.002 1 11 1Z"/><path fill="#CAC7CB" id="fiber tracts" d="m320 116 1 1-1-1ZM322 116l1 1-1-1Z"/><path fill="#C7CBCB" id="bsc" d="M131 119h1l2-2c-1.238 0-3 .423-3 2Z"/><path fill="#CCCACA" id="pc" d="m222 119-3 1v-1l4-1-1 1Z"/><path fill="#FF78FE" id="SCO" d="M225 123c1.764 0 2.313-2.593 3.5-2l2.5 2c2.098 0 3-1.939 3-4-2.998 0-7.358-1-11-1l-1 1c0 1.717 1.252 4 3 4Z"/><path fill="#7ECF4B" id="CA1" d="m85 119-1 1 1-1Z"/><path fill="#C7CBCB" id="bsc" d="M129 121h1l1-1v-1l-2 2Z"/><path fill="#CAC7CB" id="fiber tracts" d="m132 119-1 1v-1h1Z"/><path fill="#FD8082" id="LGd-ip" d="M138 121c0 3.335-7.356 4.789-5 9.5l3.5 2.5c7.722 3.861 6.55-3.599 9.5-9.5.597-1.194-1.229-4.5-2.5-4.5-1.595 0-3.255 2-5.5 2Z"/><path fill="#FF64FF" id="MB" d="M217 121h1l1-1v-1c-1.747 0-2 .253-2 2Z"/><path fill="#FE90FE" id="PRC" d="M209 128c0 1.984-3.278 3.945-2 6.5 4.005 8.01 12.613 8.5 20 8.5 0-7.089-2-14.55-2-20-1.748 0-3-2.283-3-4l-3 1-1 1h-1v1l-1 1h-1c0 1.811-3.438 4-5 4l-1 1ZM241 123l8 7.5c3.337 6.674-8.818 11.659-12.5 13.5l-7.5-1c0-7.278 2-13.343 2-20 2.098 0 3-1.939 3-4 2.83 0 4.54 4 7 4Z"/><path fill="#FD8082" id="LGd-ip" d="M312 119c0 1.804-2.182 5.136-1 7.5.959 1.918 1.101 4.203 2 6 5.833 11.666 18.155-13.5-1-13.5Z"/><path fill="#C8C9CA" id="fp" d="m377 119 1 1-1-1Z"/><path fill="#CCCACA" id="pc" d="m219 120-1 1 1-1Z"/><path fill="#CAC7CB" id="fiber tracts" d="m325 120 1 1-1-1Z"/><path fill="#C7CBCB" id="bsc" d="M127 123h1l1-1v-1l-2 2Z"/><path fill="#CAC7CB" id="fiber tracts" d="m130 121-1 1v-1h1Z"/><path fill="#FF64FF" id="MB" d="M215 123h1l1-1v-1c-1.747 0-2 .253-2 2Z"/><path fill="#A8A9AA" id="V3" d="M227 143c0 4.252 2 4.466 2 0 0-7.278 2-13.343 2-20l-2.5-2c-1.187-.593-1.736 2-3.5 2 0 5.45 2 12.911 2 20Z"/><path fill="#CCCACA" id="pc" d="m217 122-1 1 1-1Z"/><path fill="#CAC7CB" id="fiber tracts" d="m327 122 1 1-1-1Z"/><path fill="#C7CBCB" id="bsc" d="m127 124-2 2c0-1.238.423-3 2-3v1Z"/><path fill="#CAC7CB" id="fiber tracts" d="m128 123-1 1v-1h1Z"/><path fill="#FF64FF" id="MB" d="M215 123c-1.562 0-5 2.189-5 4 1.562 0 5-2.189 5-4Z"/><path fill="#CCC8CA" id="ar" d="m71 131-4 8c0-5.591 4-9.8 4-15 1.58 0 1 2.855 1 4-1.473 0-1 1.952-1 3Z"/><path fill="#CAC7CB" id="fiber tracts" d="m329 124 2 2-2-2Z"/><path fill="#CCC8CA" id="ar" d="m385 130 4 7c0-2.029-2.051-12-4-12l-1 2 1 2v1Z"/><path fill="#C7CBCB" id="bsc" d="M124 127h1v-1l-1 1ZM122 130h1l1-2v-1c-1.577 0-2 1.762-2 3Z"/><path fill="#CAC7CB" id="fiber tracts" d="m125 127-1 1v-1h1Z"/><path fill="#FF64FF" id="MB" d="m210 127-1 1 1-1Z"/><path fill="#C8C9CA" id="fp" d="m384 127 1 2-1-2ZM72 128c-1.473 0-1 1.952-1 3 1.473 0 1-1.952 1-3Z"/><path fill="#CAC7CB" id="fiber tracts" d="m332 128 1 1-1-1Z"/><path fill="#7DCF4B" id="CA2" d="m81 129-1 1 1-1Z"/><path fill="#FF6F80" id="TH" d="M188 141c0 2.409-4 4.863-4 8-.815 0-11-14.764-11-17l1-2 4-1 6 6 4 6ZM268 141l3 2.5c.465.93.817 4.5 2 4.5 0-3.495 10-9.631 10-17l-1-1-3-1c-2.96 0-3.754 6-7 6 0 1.334-2.972 6-4 6Z"/><path fill="#C7CBCB" id="bsc" d="M122 131v1l-1-1 1-1v1Z"/><path fill="#CAC7CB" id="fiber tracts" d="m123 130-1 1v-1h1ZM333 130l2 2-2-2Z"/><path fill="#C8C9CA" id="fp" d="M389 151h3v-2c-1.579 0-1-2.855-1-4v-1c-1.353 0-2-4.643-2-6v-1l-4-7c0 6.644 4 13.85 4 21Z"/><path fill="#019099" id="AUDv1" d="M21 151h6c0-6.417 1-13.174 1-19l-5-1c0 6.455-2 13.017-2 20Z"/><path fill="#C8C9CA" id="fp" d="M65 151h3c0-7.31 3-13.435 3-20l-4 8c0 1.145.58 4-1 4l-1 2v2c0 1.048.473 3-1 3v1h1Z"/><path fill="#CAC7CB" id="fiber tracts" d="m122 132-1 1-1-1 1-1 1 1Z"/><path fill="#FD8F9C" id="Eth" d="M273 148v13l21-24v-1c0-.507-9.906-5-11-5 0 7.369-10 13.505-10 17Z"/><path fill="#019099" id="AUDv1" d="M429 151h6l-1-15c0-1.235.643-5-1-5l-4 1v19Z"/><path fill="#029198" id="AUDv2/3" d="M27 151h8v-18l-7-1c0 5.826-1 12.583-1 19Z"/><path fill="#C7CBCB" id="bsc" d="M119 135h2v-2l-1-1-1 3Z"/><path fill="#FD8F9C" id="Eth" d="M184 149v14l-3-5.5c-2.605-5.211-11.053-10.106-14-16l-5-4.5v-1l11-4c0 2.236 10.185 17 11 17Z"/><path fill="#029198" id="AUDv2/3" d="M422 151h7v-19h-1l-7 1 1 18Z"/><path fill="#029197" id="AUDv4" d="M35 151h3c0-5.254 2-11.486 2-17l-4-1h-1v18ZM418 151h4l-1-18-5 1 2 17Z"/><path fill="#019098" id="AUDv5" d="m38 151 15 1 3-15-15-3h-1c0 5.514-2 11.746-2 17Z"/><path fill="#CAC7CB" id="fiber tracts" d="M329 209c0 2.089-13.188 14-16 14 0-1.43 16-21.711 16-28l1-8c0-2.751 5-4.565 5-8l4.5-6c5.549-5.549 12.31-30-1.5-30 0-1.041-.986-5-2-5l-1-2v-1l2-1c2.529 0 11 18.074 11 21l1 2v2c-1.658 0-1.209 10.917-2 12.5-3.893 7.787-6.081 16.163-10 24-.819 1.637-1.175 7.5-4 7.5 0-2.863 6.434-19.368 8-22.5.495-.991 3.825-5.338 1.5-6.5l-5.5 5.5c-3.757 7.514-4.246 16.492-8 24-.665 1.33-3.12 5.5 0 5.5Z"/><path fill="#019098" id="AUDv5" d="m418 151-15 1-3-15 16-3 2 17Z"/><path fill="#CAC7CB" id="fiber tracts" d="M118 143c-4.337 0-4.917 6-7 6 0-2.72 4.685-14 8-14h2v2l-1 2-2 4Z"/><path fill="#FF6F80" id="TH" d="m146 135-1 1 1-1Z"/><path fill="#FF7E82" id="PoT" d="M161 137h1v-1l-1 1ZM294 137h1l-1-1v1Z"/><path fill="#019397" id="AUDv6a" d="m53 152 10 1c0-5.151 2-9.701 2-14l-9-2-3 15Z"/><path fill="#FF6F80" id="TH" d="M132 151v3c3.451 0 8.792-9 14-9l5-2v-2h-1c-4.062 0-5 .306-5-4l-13 14Z"/><path fill="#FF8E9C" id="PO" d="M180 174h1l3-1v-10l-3-5.5c-2.605-5.211-11.053-10.106-14-16l-5-4.5h-1c-3.679 0-6.731 3-10 3v3c0 .819 6.303 15.803 7 16.5l9 8.5c2.347 0 7.794 6 13 6ZM276 174h1c5.056 0 8.859-6 13-6l9-8.5 6-16.5v-3c-3.269 0-6.321-3-10-3h-1l-21 24v10c0 2.041.959 3 3 3Z"/><path fill="#FF6F80" id="TH" d="M324 151v2c-5.571 0-7.535-8-14-8l-5-2v-2h1c4.826 0 5 .112 5-4l13 14Z"/><path fill="#019397" id="AUDv6a" d="m403 152-9 1-2-14 8-2 3 15Z"/><path fill="#FF909E" id="IGL" d="M324 153c0 1.564 1 3.876 1 6 4.458 0 10.805-16 13-16 0-1.041-.986-5-2-5 0 1.543-10.742 13-12 13v2Z"/><path fill="#CCC8CA" id="ar" d="m390 139 1 5c-1.353 0-2-4.643-2-6l1 1Z"/><path fill="#019198" id="AUDv6b" d="M63 153h1v-3c0-1.048-.473-3 1-3v-4l1-1v-3h-1c0 4.299-2 8.849-2 14Z"/><path fill="#CCC8CA" id="ar" d="M66 142v1c1.58 0 1-2.855 1-4h-1v3Z"/><path fill="#FF909E" id="IGL" d="m132 154-1 5c-3.442 0-10.498-16-13-16l2-4 12 12v3Z"/><path fill="#019198" id="AUDv6b" d="M392 153h2l-2-14h-2l1 5v1c1.579 0 1 2.855 1 4v4Z"/><path fill="#FF7E82" id="PoT" d="M150 141h1v-1l-1 1Z"/><path fill="#FC909E" id="PF" d="M205 172c-6.642 0-14.473 1-21 1v-24c0-3.137 4-5.591 4-8l7.5-1c12.014 6.007 9.5 18.996 9.5 32ZM273 171l-3.5 3c-4.22 2.11-13.238-2-17.5-2 0-11.409-4.328-25.586 8.5-32l7.5 1 3 2.5c.465.93.817 4.5 2 4.5v23Z"/><path fill="#FF7E82" id="PoT" d="M305 141h1l-1-1v1Z"/><path fill="#C9C9CA" id="scwm" d="M65 143h1v-1l-1 1Z"/><path fill="#CCC8CA" id="ar" d="m66 143-1 2v-2h1Z"/><path fill="#FF8E9F" id="LGv" d="M126 177c-2.25 0-3.376 2-5 2l-8-10.5c-3.32-6.64-2-12.361-2-19.5 2.083 0 2.663-6 7-6 2.502 0 9.558 16 13 16l2 4c-4.155 0-5.592 14-7 14Z"/><path fill="#FF7E83" id="VPM" d="M167 168c-2.868 0-5 2.132-5 5l-8-6c0-1.59-5.662-6-7-6l-5-5.5c-2.21-4.421 4-7.391 4-10.5l5-2c0 .819 6.303 15.803 7 16.5l9 8.5ZM290 168c2.813 0 3.461 4 5 4l7-5 8-6 4-4.5c2.706-5.413-4-9.886-4-11.5l-5-2-6 16.5-9 8.5Z"/><path fill="#FF8E9F" id="LGv" d="M330 177c1.622 0 5-.461 5 2l4.5-6c5.549-5.549 12.31-30-1.5-30-2.195 0-8.542 16-13 16l-1 4c2.633 0 6 11.791 6 14Z"/><path fill="#CCC8CA" id="ar" d="m140 165-4 1-3-3-2-4 1-5c3.451 0 8.792-9 14-9 0 3.109-6.21 6.079-4 10.5l5 5.5-3 2-3.5-4c-3.159-1.579-.5 5.95-.5 6ZM317 165c0 1.579 2.855 1 4 1l3-3 1-4c0-2.124-1-4.436-1-6-5.571 0-7.535-8-14-8 0 1.614 6.706 6.087 4 11.5l-4 4.5c0 1.577 1.762 2 3 2l3.5-4 .5 6Z"/><path fill="#A8AAAA" id="VL" fill-rule="evenodd" d="M361 194c0 5.019-21.307 26.404-26.5 29-2.318 1.159-14.742.016-11.5 6.5 1.426 2.852 9.444 1.528 11.5.5 5.261-2.63 24.183-18.866 26.5-23.5 1.016-2.033 4.637-12.5 0-12.5m-44 37h20l3.5-2c3.747-1.873 6.063-9 10.5-9 0-1.712 2.571-3 4-3l1-1 3-2 1-1 1-1v-1l1-1 1-1 6-10 1-1 1-2 1-1 1-2c0-1.238.423-3 2-3 0-1.238.423-3 2-3l1-1 1-1c0-2.027 6-8.095 6-13l-6-.5c-.044-.089 3-22.398 3-26.5h-1c0 14.09-4.439 33.47-17.5 40l-5.5 4c0 3.495-2.189 3-4 3l-11 9c0 1.634-2.634 4-4 4 0 6.865-12.99 12.745-17.5 15l-5.5 5-1 4 2 2Z"/><path fill="#C9C9CA" id="scwm" d="M391 145c1.579 0 1 2.855 1 4-1.579 0-1-2.855-1-4ZM65 147c-1.473 0-1 1.952-1 3 1.473 0 1-1.952 1-3Z"/><path fill="#FC8FFF" id="PAG" d="M220 147v12.5c0 .76 1.066 4.869 2 3 .978-1.956-1.23-15.5-2-15.5ZM236 147c0 3.531-1 7.893-1 12l.5 4 .5-2.5c.712-1.425 2.34-13.5 0-13.5Z"/><path fill="#A8AAAA" id="VL" fill-rule="evenodd" d="M94 194c0 1.804-2.182 5.136-1 7.5 5.215 10.429 15.434 16.434 24 25 3.423 3.423 20.088 8.175 16 0-2.149-4.298-7.278-1.889-10.5-3.5-5.245-2.623-9.508-7.508-14-12L97 198.5c-.592-1.185-1.012-4.5-3-4.5m47 35-2 2c-8.863 0-15.507 1.997-23.5-2-3.811-1.905-7.398-12-13.5-12h-1l-1-1-4-3v-1l-2-2-7-12-2-2v-1c0-1.505-4.197-8-6-8l-2-2c0-2.821-5-7.334-5-13 1.995 0 4.919.662 6-1.5l-3-7c-1.889-3.777 0-11.179 0-14.5 1.799 0 1.248 8.997 2 10.5 1.358 2.716.694 6.388 2 9 2.23 4.461 13.503 20.5 19 20.5 0 4.043 2.638 3 5 3l14 13c0 5.643 14.519 13.509 19.5 16l3.5 4 1 4Z"/><path fill="#CAC7CB" id="fiber tracts" fill-rule="evenodd" d="M114 174c0 7.514 5.248 19.995 9 27.5.927 1.855 4.338 9.324 6 6l-4-9c-2.169-4.338-4.485-24.5-11-24.5m30 51h1l-7-8.5c-3.128-6.256-10-14.136-10-21.5-.981 0-2-7.758-2-9-1.874 0-5-5.55-5-7l-8-10.5c-3.32-6.64-2-12.361-2-19.5-1.802 0-3 6.346-3 8 0 18.637 9.237 34.975 17 50.5 2.117 4.234 19 15.408 19 17.5Z"/><path fill="#15B0B3" id="TEa1" d="M29 173c-1.145 0-4-.579-4 1-1.995 0-2-4.377-2-6l-2-17h6c0 7.458 2 14.456 2 21v1Z"/><path fill="#16AFB3" id="TEa2/3" d="m39 171-10 1c0-6.544-2-13.542-2-21h8c0 7.412 4 13.718 4 20Z"/><path fill="#15B0B2" id="TEa4" d="M39 171h1l-2-20h-3c0 7.412 4 13.718 4 20Z"/><path fill="#15AFB3" id="TEa5" d="M41 171h12v-19l-15-1 2 20h1Z"/><path fill="#C8CBCC" id="ec" d="M64 153v1c1.473 0 1-1.952 1-3h-1v2Z"/><path fill="#CCC8CA" id="ar" d="M64 157c2.662 0-.662 7 2 7 0-3.559 2-9.441 2-13h-3c0 1.048.473 3-1 3v3ZM392 161l-2 2c0-3.531-1-7.893-1-12h3v10Z"/><path fill="#15AFB3" id="TEa5" d="M404 171h12c0-6.427 2-12.946 2-20l-15 1 1 19Z"/><path fill="#15B0B2" id="TEa4" d="M416 171h2c0-6.498 4-13.225 4-20h-4c0 7.054-2 13.573-2 20Z"/><path fill="#16AFB3" id="TEa2/3" d="m418 171 9 1 2-5.5V151h-7c0 6.775-4 13.502-4 20Z"/><path fill="#15B0B3" id="TEa1" d="m427 173 5 1c0-7.237 3-15.114 3-23h-6v15.5l-2 5.5v1Z"/><path fill="#15AFB2" id="TEa6a" d="M53 171h10v-18l-10-1v19ZM393 171h11l-1-19-9 1-1 18Z"/><path fill="#16B0B2" id="TEa6b" d="M63 171h2c0-4.121-1-9.275-1-14v-4h-1v18ZM392 171h1l1-18h-2v18Z"/><path fill="#C8CBCC" id="ec" d="m70 186-3 1-2-16c0-4.121-1-9.275-1-14 2.662 0-.662 7 2 7 0 3.345 3 6.468 3 8 0 4.607 1 10.052 1 14Z"/><path fill="#FD8084" id="VPL" d="M152 174h1l-6-7-3-4-3.5-4c-3.159-1.579-.5 5.95-.5 6 0 4.887 12 6.986 12 9Z"/><path fill="#C7CAC9" id="fr" d="M209 177h6l1-2c0-3.697-3.057-24.386-9-12.5-2.321 4.641 2 10.744 2 14.5ZM248 176l-2.5 2-4.5-1c0-5.739 1.259-27.982 9-12.5 1.888 3.775-2 8.247-2 11.5Z"/><path fill="#FD8084" id="VPL" d="M309 167c0 2.33-4 3.227-4 6 5.18 0 7.908-8 12-8l-.5-6-3.5 4-4 4Z"/><path fill="#FF6F80" id="TH" d="M147 167h7c0-1.59-5.662-6-7-6l-3 2 3 4ZM302 167h7l4-4c-1.238 0-3-.423-3-2l-8 6Z"/><path fill="#C8CBCC" id="ec" d="m387 186 2 1 2-12c0-1.145-.579-4 1-4v-10l-2 2v6.5l-3 2.5v14Z"/><path fill="#F0483B" id="ZI" d="m146 197 7 5.5c2.739 2.739 26 12.913 26 4.5 0-6.922-6.566-13.066-11.5-18l-6.5-6c-1.901 0-12-6.067-12-8-2.589 0-13-5.773-13-9l-3-3c-4.155 0-5.592 14-7 14 0 2.955 5 6.349 5 10l15 10ZM309 199c-6.028 0-14.382 11-23 11-2.444 0-9 .913-9-3 0-5.944 6.704-13.204 11-17.5l7-5.5 6-5 2-1 2-1 1-1h1l1-1c2.574 0 13-7.138 13-9l3-3c2.633 0 6 11.791 6 14 0 3.34-5 6.956-5 11-4.52 0-8.897 8-13 8l-1 1-1 1-1 1Z"/><path fill="#FF6F80" id="TH" d="m149 175 2 1c0-1.577-1.729-2 1-2 0-2.014-12-4.113-12-9l-4 1c0 3.227 10.411 9 13 9ZM306 176h1l1-1c2.574 0 13-7.138 13-9-1.145 0-4 .579-4-1-4.092 0-6.82 8-12 8h-1v1c2.729 0 1 .423 1 2h1Z"/><path fill="#FD7F83" id="MGm" d="M157 175h5v-2l-8-6h-7l6 7 1 1h3ZM295 175h4c1.145 0 4 .579 4-1l1-1h1c0-2.773 4-3.67 4-6h-7l-7 5v3Z"/><path fill="#FF7F82" id="VPLpc" d="m186 176 2 1.5c0 1.264-7.28 2.5-8 2.5-7.755 0-15.421-5-18-5v-2c0-2.868 2.132-5 5-5 2.347 0 7.794 6 13 6l1 1 5 1ZM288 179l-12 1c-.859 0-7.623-1.253-7-2.5l2-1.5 5-1 1-1c5.056 0 8.859-6 13-6 2.813 0 3.461 4 5 4v3l-7 4Z"/><path fill="#0D9F91" id="ECT2/3" d="M34 189c3.445 0 8.784 2 12 2 0-6.615-5-12.859-5-20h-2l-10 1v1l2 2.5c4.591 9.182 3 3.84 3 13.5Z"/><path fill="#0D9E90" id="ECT5" d="M58 195h1c0-8.431-6-14.644-6-24H41c0 7.141 5 13.385 5 20v1c4.922 0 7.995 3 12 3Z"/><path fill="#0E9F91" id="ECT6a" d="M59 195h2c2.44 0 2.666-2 6-2 0-6.703-4-15.276-4-22H53c0 9.356 6 15.569 6 24Z"/><path fill="#0E9F90" id="ECT6b" d="M67 193h1l-1-6-2-16h-2c0 6.724 4 15.297 4 22Z"/><path fill="#FF6F80" id="TH" d="m288 179-12 1c0 1.22-3.492 1.504-4.5 1-3.838-1.919-9.181-.091-13-2-4.25-2.125.814-4 3-4h4c1.987 0 4.052 1 5.5 1l5-1v-1c-2.041 0-3-.959-3-3l-3.5 3c-4.22 2.11-13.238-2-17.5-2 0 8.485 11.634 11 19 11 3.153 0 17-1.244 17-4Z"/><path fill="#0E9F90" id="ECT6b" d="m390 193-2 1 1-7 2-12c0-1.145-.579-4 1-4h1l-3 22Z"/><path fill="#0E9F91" id="ECT6a" d="M395 195h2c0-8.013 7-15.276 7-24h-11l-3 22c2.25 0 3.376 2 5 2Z"/><path fill="#0D9E90" id="ECT5" d="M397 195h2c4.53 0 6.484-2 11-2v-1l6-21h-12c0 8.724-7 15.987-7 24Z"/><path fill="#0D9F91" id="ECT2/3" d="M422 189c-3.654 0-7.874 3-12 3l6-21h2l9 1v1c-5.347 0-5 12.211-5 16Z"/><path fill="#FF6F80" id="TH" d="M186 176c0-1.614 3.31-1 4.5-1 4.075 0 8.5-1.203 8.5 4 4.501 0 6-2.462 6-7-6.642 0-14.473 1-21 1l-3 1v1l5 1Z"/><path fill="#0D9F90" id="ECT1" d="M27 188c1.819 0 4.59 1 7 1 0-9.66 1.591-4.318-3-13.5l-2-2.5c-1.145 0-4-.579-4 1 0 2.477 2.01 2.522 3 4.5 1.386 2.772-1 7.269-1 9.5Z"/><path fill="#FD8084" id="VPL" d="M303 174h1v-1l-1 1Z"/><path fill="#0D9F90" id="ECT1" d="M429 188c-1.819 0-4.591 1-7 1 0-3.789-.347-16 5-16l5 1-4 5.5 1 8.5Z"/><path fill="#CACCCB" id="opt" d="M114 174c0 7.514 5.248 19.995 9 27.5.927 1.855 4.338 9.324 6 6l-4-9c-2.169-4.338-4.485-24.5-11-24.5Z"/><path fill="#CACCC8" id="ml" d="M185 183c0 2.208 3-1.619 3 6-10.592 0-19.61-7-26-7l-11-6c0-1.577-1.729-2 1-2h1l1 1h3c0 1.59 4.386 1.443 5.5 2 7.078 3.539 13.915 6 22.5 6Z"/><path fill="#FF6F80" id="TH" d="m153 174 1 1-1-1Z"/><path fill="#FF7E82" id="PoT" d="M181 174v1l-1-1h1ZM277 174l-1 1v-1h1Z"/><path fill="#CACCC8" id="ml" d="M271 183c0 .017-8.06 6-2 6 10.254 0 17.753-7 26-7l6-3 2-1 2-1v-1c0-1.577 1.729-2-1-2h-1c0 1.579-2.855 1-4 1 0 1.605-9.295 4-11 4 0 2.756-13.847 4-17 4Z"/><path fill="#CACCCB" id="opt" d="m330 208-1 1c-3.12 0-.665-4.17 0-5.5 3.754-7.508 4.243-16.486 8-24l5.5-5.5c2.325 1.162-1.005 5.509-1.5 6.5-1.566 3.132-8 19.637-8 22.5l-1 2-1 2-1 1Z"/><path fill="#CBC8CB" id="fi" d="M107 175c6.08 0 3.335 17.17 4 18.5l4 7.5c-6.313 0-8-20.801-8-26Z"/><path fill="#E64438" id="HY" d="m162 182-1 1c-1.901 0-12-6.067-12-8l2 1 11 6Z"/><path fill="#FF6F80" id="TH" d="M199 179c-4.504 0-9.733 2-14 2-1.235 0-5 .643-5-1-7.755 0-15.421-5-18-5h-5c0 1.59 4.386 1.443 5.5 2 7.078 3.539 13.915 6 22.5 6 2.587 0 14-1.394 14-4Z"/><path fill="#FE8084" id="SPFp" d="M199 179c-4.504 0-9.733 2-14 2-1.235 0-5 .643-5-1 .72 0 8-1.236 8-2.5l-2-1.5c0-1.614 3.31-1 4.5-1 4.075 0 8.5-1.203 8.5 4Z"/><path fill="#FF6F80" id="TH" d="m216 175-1 2 1-2Z"/><path fill="#FE8084" id="SPFp" d="M271 176c-1.448 0-3.513-1-5.5-1h-4c-2.186 0-7.25 1.875-3 4 3.819 1.909 9.162.081 13 2 1.008.504 4.5.22 4.5-1-.859 0-7.623-1.253-7-2.5l2-1.5Z"/><path fill="#FF6F80" id="TH" d="M299 175c0 1.605-9.295 4-11 4l7-4h4Z"/><path fill="#E64438" id="HY" d="m308 175-1 1 1-1Z"/><path fill="#FF6F80" id="TH" d="M241 180h6l1-4-2.5 2-4.5-1v3Z"/><path fill="#E64438" id="HY" d="m306 176-1 1v-1h1Z"/><path fill="#CBC8CB" id="fi" d="M349 176c-4.899 0-4 16.195-4 19 4.853 0 4-14.769 4-19Z"/><path fill="#FD8F9E" id="SubG" d="m126 186 5 1c0-3.651-5-7.045-5-10-2.25 0-3.376 2-5 2 0 1.45 3.126 7 5 7Z"/><path fill="#FF6F80" id="TH" d="M209 180c2.409 0 5.181 1 7 1l-1-4h-6v3Z"/><path fill="#E64438" id="HY" d="m305 177-2 1 2-1Z"/><path fill="#FD8F9E" id="SubG" d="m330 187-5 1c0-4.044 5-7.66 5-11 1.622 0 5-.461 5 2 0 3.435-5 5.249-5 8Z"/><path fill="#E64438" id="HY" d="m303 178-2 1 2-1ZM295 182v2l6-5-6 3Z"/><path fill="#FF7F84" id="SPFm" d="M217 191h1l1-1c0-2.444.913-9-3-9-1.819 0-4.591-1-7-1 0 5.652 1.374 11 8 11ZM239 191h1c7.596 0 7-6.196 7-11h-6l-4 4.5c-1.428 2.856 2 4.553 2 6.5Z"/><path fill="#F24739" id="FF" d="M179 207c1.958 0 7.38 3 13 3 0-3.994 3.341-7.817 1-12.5l-5-8.5c-10.592 0-19.61-7-26-7l-1 1 6.5 6c4.934 4.934 11.5 11.078 11.5 18ZM277 207l-4.5 3c-2.568 1.284-6.486-1-8.5-1-1.232 0-1.711-9.078-1-10.5.91-1.821 6-7.862 6-9.5 10.254 0 17.753-7 26-7v2l-7 5.5c-4.296 4.296-11 11.556-11 17.5Z"/><path fill="#A8A9AA" id="V3" d="M227 195c0 5.777 2 5.777 2 0l-.5-12c-2.245 0-1.5 10.272-1.5 12Z"/><path fill="#90EB8D" id="LA" d="m79 229 1 1c0-8.086 12.299-9 18-9l1-1 2-1-5-6v-1l-2-2-7-12-2-2v-1c-1.55 0-6-6.146-6-8l-2-2c-1.745 0-6-.698-6 2 0 12.612 8 21.695 8 34v8Z"/><path fill="#97D6F9" id="STR" d="m379 185-1 1 1-1Z"/><path fill="#90EB8D" id="LA" d="M377 229v2c-1.154 0-2.386-5.943-4.5-7-3.985-1.993-9.827-4-14.5-4l-3-1v-1c2.226 0 4-1.774 4-4l1-1 1-1v-1l1-1 1-1 6-10 1-1 1-2 1-1 1-2c1.577 0 2-1.762 2-3 1.577 0 2-1.762 2-3l1-1 1-1c2.426 0 6-1.024 6 2v3c0 9.41-6 15.714-6 25-1.714 0-1 5.594-1 7 0 1.819-1 4.591-1 7Z"/><path fill="#C8C9CB" id="amc" d="m79 221-1 1c-1.05 0-2.214-12.927-3-14.5L68 193l-1-6 3-1 1 1c0 12.612 8 21.695 8 34Z"/><path fill="#FF64FF" id="MB" d="M173 243h3l2-4c0-13.953-11.768-21.268-20.5-30-2.086-2.086-11.5-8.643-11.5-12l-15-10-5-1c0 1.242 1.019 9 2 9 0-8.331 11.146-1.207 13 2.5l-1 8 3 5.5 1 1 4 5 1 1 1 1 1 1 1 1 1 1 1 1 2 2h1l2 2h1l1 1c0 1.902 8.841 3.171 10.5 4 6.689 3.345 1.5 8.098 1.5 10v1Z"/><path fill="#97D6F9" id="STR" d="m378 186-1 1 1-1Z"/><path fill="#C8C9CB" id="amc" d="m388 194-6 12.5c-.694 1.389-1.384 8.5-3 8.5 0-9.286 6-15.59 6-25 1.473 0 1-1.952 1-3l1-1 2 1-1 7Z"/><path fill="#97D6F9" id="STR" d="M79 187c1.803 0 6 6.495 6 8-1.55 0-6-6.146-6-8Z"/><path fill="#FF64FF" id="MB" d="M280 243h4v-1c-5.076 0-1.864-6.772-1-8.5l11.5-4.5 2.5-2 1-1 2-1 1-1 1-1 7-7 1-1c5.937 0 5.299-16.098 7-19.5 4.868-9.736 11.821-.5 12-.5l1-8-5 1c-4.52 0-8.897 8-13 8l-1 1-1 1-1 1-12 11.5c-9.854 9.854-18 16.763-18 29.5l1 3Z"/><path fill="#97D6F9" id="STR" d="M377 187c-1.577 0-2 1.762-2 3 1.577 0 2-1.762 2-3Z"/><path fill="#8AD987" id="CTXsp" d="M386 187c0 1.048.473 3-1 3v-3h1Z"/><path fill="#0E9584" id="PERI1" d="M35 199c-2.41 0-5.181 1-7 1 0-3.531-1-7.893-1-12 1.819 0 4.59 1 7 1 0 3.51 1 7.022 1 10ZM422 199h6c2.457 0 1-9.943 1-11-1.819 0-4.591 1-7 1v10Z"/><path fill="#0E9583" id="PERI2/3" d="M35 199h6c0-.853 6.031-2 7-2l-2-5v-1c-3.216 0-8.555-2-12-2 0 3.51 1 7.022 1 10Z"/><path fill="#CBC8CB" id="fi" d="M98 189c1.408 0 5 1.197 5 3-2.362 0-5 1.043-5-3ZM358 189c-1.429 0-4 1.288-4 3 1.811 0 4 .495 4-3Z"/><path fill="#0E9583" id="PERI2/3" d="M415 199h7v-10c-3.654 0-7.874 3-12 3v1l-2 4c.969 0 7 1.147 7 2Z"/><path fill="#FF64FF" id="MB" d="m219 190-1 1 1-1Z"/><path fill="#FD4B3C" id="PH" d="M227 230c0-1.919 2-2.488 2 0 2.011 0 12-1.62 12-4 0-2.097 1-5.293 1-8 0-1.406-.714-7 1-7v-2c0-3.334 4.202-9.096 2-13.5l-5-4.5h-1c-3.329 0-4.97 1-6 1 0 3.771-2.388 8.277-4 11.5l-.5 2.5c-2.23 0-1.029-3.558-1.5-4.5l-4-9.5-4-2-1 1h-1l-6 5.5c-2.095 4.19 2 9.112 2 12.5l1 3v7l1 7c0 2.334 10.052 4 12 4Z"/><path fill="#97D6F9" id="STR" d="M375 190c-1.577 0-2 1.762-2 3 1.577 0 2-1.762 2-3Z"/><path fill="#CCC" d="M171 242h2c0-1.902 5.189-6.655-1.5-10-1.659-.829-10.5-2.098-10.5-4l-1-1h-1l-2-2h-1l-2-2-1-1-1-1-1-1-1-1-1-1-1-1-4-5-1-1-3-5.5 1-8c-1.854-3.707-13-10.831-13-2.5 0 7.364 6.872 15.244 10 21.5l7 8.5 5 6h1l2 2h1l2 2h1l2 2h1l3 2h1l3 2h1l1 1h2ZM285 242h2l1-1h1l1-1h1l2-1 2-1 1-1h1l1-1 2-1 1-1 2-1 2-1 1-1 4-4 1-1 1-1 1-1v-1c0-1.43 16-21.711 16-28-.179 0-7.132-9.236-12 .5-1.701 3.402-1.063 19.5-7 19.5l-1 1-7 7-1 1-1 1-2 1-1 1-2.5 2-11.5 4.5c-.864 1.728-4.076 8.5 1 8.5h1Z"/><path fill="#0F9684" id="PERI5" d="M48 197h1l8-1 1-1c-4.005 0-7.078-3-12-3l2 5Z"/><path fill="#E64438" id="HY" d="M227 195c0 5.777 2 5.777 2 0l4-3c0 3.771-2.388 8.277-4 11.5l-.5 2.5c-2.23 0-1.029-3.558-1.5-4.5l-4-9.5c2.54 0 2.543 3 4 3Z"/><path fill="#0F9684" id="PERI5" d="M407 197h1l2-4c-4.516 0-6.47 2-11 2v1l8 1Z"/><path fill="#A0EE9C" id="EPd" d="M77 228c-2.364 0-3.053 3-5 3l-4-6-1-1v-1l3 1.5c0-1.518-5.894-15.788-7-18-1.327-2.654 2.328-9.5-2-9.5v-2c2.44 0 2.666-2 6-2h1l7 14.5c.786 1.573 1.95 14.5 3 14.5 0 1.564-1 3.876-1 6Z"/><path fill="#97D6F9" id="STR" d="m373 193-1 2 1-2Z"/><path fill="#A0EE9C" id="EPd" d="m380 228 4 3c1.222 0 5-6.549 5-8l-2 .5 2-4c1.808-3.615 4-9.284 4-13.5 0-2.008-.656-9 2-9v-2c-1.624 0-2.75-2-5-2l-2 1-6 12.5c-.694 1.389-1.384 8.5-3 8.5v7c0 2.124 1 4.436 1 6Z"/><path fill="#A9AAA8" id="chpl" d="M94 194c0 1.804-2.182 5.136-1 7.5 5.215 10.429 15.434 16.434 24 25 3.423 3.423 20.088 8.175 16 0-2.149-4.298-7.278-1.889-10.5-3.5-5.245-2.623-9.508-7.508-14-12L97 198.5c-.592-1.185-1.012-4.5-3-4.5ZM361 194c0 5.019-21.307 26.404-26.5 29-2.318 1.159-14.742.016-11.5 6.5 1.426 2.852 9.444 1.528 11.5.5 5.261-2.63 24.183-18.866 26.5-23.5 1.016-2.033 4.637-12.5 0-12.5Z"/><path fill="#32B824" id="ENTl6a" d="M61 197c0 5.74 2 11.217 2 16-1.845 0-1.44-3.381-2-4.5L57 196l1-1h3v2Z"/><path fill="#CBC8CB" id="fi" d="m345 195-2 4c2.109 0 2-2.535 2-4Z"/><path fill="#97D6F9" id="STR" d="m372 195-1 1 1-1Z"/><path fill="#32B824" id="ENTl6a" d="M395 197v12c2.12 0 4-10.856 4-13v-1h-4v2Z"/><path fill="#31B824" id="ENTl5" d="M64 219h1v-1l-1-1-1-4c-1.845 0-1.44-3.381-2-4.5L57 196l-8 1c0 8.2 7 17.795 7 24l8-2Z"/><path fill="#97D6F9" id="STR" d="m85 196 2 2-2-2Z"/><path fill="#E64438" id="HY" d="m312 196-1 1 1-1Z"/><path fill="#31B824" id="ENTl5" d="M393 220h7c2.235 0 7-19.274 7-23l-8-1c0 2.144-1.88 13-4 13v1l-1 2-1 4-1 1v2l1 1Z"/><path fill="#32B725" id="ENTl3" d="M56 221c-3.091 0-5.478 2-8 2l-7-24c0-.853 6.031-2 7-2h1c0 8.2 7 17.795 7 24Z"/><path fill="#C9C8CA" id="ee" d="m65 219 2 4 3 1.5c0-1.518-5.894-15.788-7-18-1.327-2.654 2.328-9.5-2-9.5 0 5.74 2 11.217 2 16l1 4 1 1v1Z"/><path fill="#E64438" id="HY" d="m182 237-4 2c0-13.953-11.768-21.268-20.5-30-2.086-2.086-11.5-8.643-11.5-12l7 5.5c2.739 2.739 26 12.913 26 4.5 1.958 0 7.38 3 13 3 0 3.263-4.819 14 3 14 0 1.624-2 2.75-2 5l-2 1c0-6.884-7.095-13-14-13 0-1.574 2.252-2.624-.5-4l-7.5.5c0 2.128 4.26 4.5 6 4.5 0 8.268 7 11.409 7 19ZM311 197l-1 1 1-1Z"/><path fill="#C9C8CA" id="ee" d="M389 222v1l-2 .5 2-4c1.808-3.615 4-9.284 4-13.5 0-2.008-.656-9 2-9v13l-1 2-1 4-1 1v1l-1 1v1l-1 1-1 1Z"/><path fill="#32B725" id="ENTl3" d="M400 220c0 .504 7.078 3 8 3 0-7.762 7-15.728 7-24 0-.853-6.031-2-7-2h-1c0 3.726-4.765 23-7 23Z"/><path fill="#E64438" id="HY" d="m310 198-1 1 1-1Z"/><path fill="#97D6F9" id="STR" d="m370 198-1 1 1-1Z"/><path fill="#32B722" id="ENTl1" d="m42 225-3 1c0-3.445-11-19.861-11-26 1.819 0 4.59-1 7-1 0 10.154 7 18.07 7 26Z"/><path fill="#32B825" id="ENTl2" d="M48 223c-2.483 0-4.026 2-6 2 0-7.93-7-15.846-7-26h6l7 24Z"/><path fill="#E64438" id="HY" d="m275 237 4 3c0-12.737 8.146-19.646 18-29.5l12-11.5c-6.028 0-14.382 11-23 11-2.444 0-9 .913-9-3l-4.5 3c-2.568 1.284-6.486-1-8.5-1 0 2.86 3.813 6.874 2 10.5l-4 4.5 2 5 1 1c0-5.927 6.122-10.811 10.5-13l4.5 1-1-4.5c.451-.902 11.452-2.452 6.5 2.5l-2 1-2.5 1 2 2.5c0 3.038-8 10.26-8 16.5Z"/><path fill="#CBC8CB" id="fi" d="M341 201h2v-2l-2 2Z"/><path fill="#32B825" id="ENTl2" d="m408 223 6 1c1.845 0 1.441-3.381 2-4.5 2.994-5.989 6-13.389 6-20.5h-7c0 8.272-7 16.238-7 24Z"/><path fill="#32B722" id="ENTl1" d="m414 224 3 3 3-5.5c2.604-2.604 8-18.426 8-22.5h-6c0 7.111-3.006 14.511-6 20.5-.559 1.119-.155 4.5-2 4.5Z"/><path fill="#C7C8CC" id="alv" d="M343 201c0 1.634-2.634 4-4 4l2-4h2Z"/><path fill="#CAC7CB" id="fiber tracts" d="m333 203-1 2 1-2ZM332 205l-1 2 1-2ZM331 207l-1 1 1-1ZM330 208l-1 1 1-1Z"/><path fill="#C8C8C8" id="mtg" d="M213 209c-2.765 0-6.127 4.186-2.5 6 3.107 1.553 1.777-3 3.5-3l-1-3ZM243 209c8.843 0 0 10.837 0 2v-2Z"/><path fill="#32B824" id="ENTl6a" d="m395 210-1 2 1-2Z"/><path fill="#CCCAC7" id="cpd" d="m143 211 1 1-1-1Z"/><path fill="#CCCACB" id="nst" d="m177 217-2 1c-1.74 0-6-2.372-6-4.5l7.5-.5c2.752 1.376.5 2.426.5 4ZM280 218h1l2.5-1 2-1c4.952-4.952-6.049-3.402-6.5-2.5l1 4.5Z"/><path fill="#CCCAC7" id="cpd" d="m310 215-1 1 1-1Z"/><path fill="#C8C9CB" id="amc" d="M378 222h1v-7c-1.714 0-1 5.594-1 7Z"/><path fill="#CAC7CB" id="fiber tracts" d="m100 216 1 1-1-1ZM356 216l-1 1 1-1Z"/><path fill="#32B824" id="ENTl6a" d="m393 216-1 1 1-1ZM64 217l1 1-1-1Z"/><path fill="#CAC7CB" id="fiber tracts" d="M141 233c-4.23 0-7.554 2-11 2 0-1.874-9.811-3.155-11.5-4-.879-.44-2.5-.028-2.5 1l-3-3-4-4v-1l-1-1-1-1-5-5c6.102 0 9.689 10.095 13.5 12 7.993 3.997 14.637 2 23.5 2l2 2Z"/><path fill="#CCCAC7" id="cpd" d="m148 217 1 1-1-1Z"/><path fill="#F1483A" id="PSTN" d="m187 234-5 3c0-7.591-7-10.732-7-19l2-1c6.905 0 14 6.116 14 13l-3 3-1 1ZM272 236l3 1c0-6.24 8-13.462 8-16.5l-2-2.5h-1l-4.5-1c-4.378 2.189-10.5 7.073-10.5 13l1 1 1 1 1 1 2 2h1l1 1Z"/><path fill="#CAC7CB" id="fiber tracts" d="M351 220h2l1-1 1-1v-1c-1.429 0-4 1.288-4 3Z"/><path fill="#E64438" id="HY" d="M241 226h1c1.304 0 1.738-4 5-4 0-1.765-1.581-.541-2.5-1l-2.5-3c0 2.707-1 5.903-1 8Z"/><path fill="#32B824" id="ENTl6a" d="M391 219h1v-1l-1 1Z"/><path fill="#6ACAB9" id="PIR" d="M80 265c0 6.71-8 17.05-8 19-3.276 0-9.818-10.137-11-12.5-5.517-11.035-22-33.381-22-45.5l3-1c1.974 0 3.517-2 6-2 2.522 0 4.909-2 8-2l8-2 3 4v1l1 1 4 6c0 7.29 1.856 19.212 5 25.5l3 6.5v2Z"/><path fill="#99D2BD" id="OLF" d="m65 219 2 4-3-4h1Z"/><path fill="#9DE79B" id="BLAa" d="m107 228-3 1c-3.605 0-6-4.484-6-8l1-1 2-1h1l1 1 4 2 1 1 1 1v1l-2 3Z"/><path fill="#90EB8D" id="LA" d="m102 219 1 1-1-1Z"/><path fill="#CCCAC7" id="cpd" d="m150 219 1 1-1-1Z"/><path fill="#E64438" id="HY" d="M214 226h1l-1-7-1.5 2c-1.046.523-3.5-.951-3.5 1 2.405 0 5 1.319 5 4Z"/><path fill="#90EB8D" id="LA" d="m355 219-1 1v-1h1Z"/><path fill="#9DE79B" id="BLAa" d="M351 229h1c5.016 0 6-4.792 6-9l-3-1-1 1h-1l-2 1-1 1-1 1-1 1v1l1 3h1l1 1Z"/><path fill="#99D2BD" id="OLF" d="M391 220h2l-1-1h-1v1Z"/><path fill="#9DE69C" id="BLAp" d="m99 220-1 1 1-1Z"/><path fill="#CAC7CB" id="fiber tracts" d="M341 231h1l1-1 1-1 1-1v-1l1-1 1-1 1-1 1-1 1-1 1-1v-1c-4.437 0-6.753 7.127-10.5 9l-3.5 2h4Z"/><path fill="#9DE69C" id="BLAp" d="M365 249h6c0-.33 6-10.992 6-18-1.154 0-2.386-5.943-4.5-7-3.985-1.993-9.827-4-14.5-4 0 4.208-.984 9-6 9l3 2.5c1.228 2.456 7.249 17.5 10 17.5Z"/><path fill="#99D2BD" id="OLF" d="M390 221v1l1-2-1 1Z"/><path fill="#6ACAB9" id="PIR" d="M376 265c0 2.771 6.731 19 9 19l12-13.5c4.358-8.716 20-33.929 20-43.5l-3-3-6-1c-.922 0-8-2.496-8-3h-9l-1 2-1 1c0 1.451-3.778 8-5 8 0 7.956-1.635 17.77-5 24.5-.636 1.272-1.45 7.5-3 7.5v2Z"/><path fill="#8AD987" id="CTXsp" d="m77 228 2 1v-8l-1 1c0 1.564-1 3.876-1 6Z"/><path fill="#9DE69C" id="BLAp" d="m86 249 5 1c0-.384 13-18.914 13-21-3.605 0-6-4.484-6-8-5.701 0-18 .914-18 9 0 3.921.984 19 6 19Z"/><path fill="#CCCAC7" id="cpd" d="m152 221 1 1-1-1Z"/><path fill="#A0EE9C" id="EPd" d="M389 222h1v-1l-1 1Z"/><path fill="#E64438" id="HY" d="m206 227-3 1-3-5 9-1c0 1.312-3 2.446-3 5Z"/><path fill="#C8CBCA" id="pm" d="M214 226c0 10.115-8 8.109-8 1 0-2.554 3-3.688 3-5 2.405 0 5 1.319 5 4ZM242 226c0 7.827 8 9.418 8 1 0-2.25-2-3.376-2-5h-1c-3.262 0-3.696 4-5 4Z"/><path fill="#E64438" id="HY" d="M253 229h1c0-2.483 2-4.026 2-6l-8-1c0 1.624 2 2.75 2 5 1.238 0 3 .423 3 2Z"/><path fill="#8AD987" id="CTXsp" d="m380 228-3 1c0-2.409 1-5.181 1-7h1c0 2.124 1 4.436 1 6Z"/><path fill="#99D2BD" id="OLF" d="m390 222-1 1v-1h1Z"/><path fill="#CCCAC7" id="cpd" d="m154 223 2 2-2-2Z"/><path fill="#CBCCCB" id="mfb" d="M193 229c1.791 0 2.959-3.27 5.5-2l4.5 2v-1l-3-5-5 1c0 1.624-2 2.75-2 5ZM254 229c1.984 0 3.945-3.278 6.5-2l3.5 2-2-5c-1.564 0-3.876-1-6-1 0 1.974-2 3.517-2 6Z"/><path fill="#CCCAC7" id="cpd" d="m302 223-1 1 1-1Z"/><path fill="#99D2BD" id="OLF" d="m67 224 1 1-1-1Z"/><path fill="#C7C8CC" id="alv" d="m145 234 3 1c0-2.062-3.344-6.922-1.5-6l3.5 2-5-6h-1c-.666 0-4-2.56-4 0l1 4 4 5Z"/><path fill="#CCCAC7" id="cpd" d="m301 224-1 1 1-1Z"/><path fill="#CAC7CB" id="fiber tracts" d="m313 224-1 1 1-1Z"/><path fill="#C7C8CC" id="alv" d="M311 234h1l1-1 2-4 1-4c0-1.473-1.952-1-3-1l-1 1-1 1-1 1-4 4c2.029 0 1.881-1.191 3.5-2 3.231-1.615-.5 5.735-.5 6l2-1Z"/><path fill="#8AD987" id="CTXsp" d="M107 228c2.724 0 3.276 1 6 1l-4-4-2 3Z"/><path fill="#CCCAC7" id="cpd" d="m157 225 2 2-2-2Z"/><path fill="#8AD987" id="CTXsp" d="M345 228h4l-1-3h-1l-1 1-1 1v1Z"/><path fill="#FF493D" id="SUM" d="M226 249h4c0-6.237 10.791-12 16-12h4l1-1c0-3.066 2-4.417 2-7 0-1.577-1.762-2-3-2 0 8.418-8 6.827-8-1h-1c0 2.38-9.989 4-12 4 0 1.93-1.161 0-2 0-1.948 0-12-1.666-12-4h-1c0 10.115-8 8.109-8 1l-3 1v1c0 1.835 2 4.235 2 7l2 1h4c5.397 0 15 6.104 15 12Z"/><path fill="#CCCAC7" id="cpd" d="m298 226-1 1 1-1Z"/><path fill="#CAC7CB" id="fiber tracts" d="m311 226-1 1 1-1Z"/><path fill="#84E981" id="BMAp" d="M95 266h2l6-4c0-1.205 16-18.384 16-23l-1-3-2-4-3-3c-2.724 0-3.276-1-6-1l-3 1c0 2.086-13 20.616-13 21v11l4 5Z"/><path fill="#CCCAC7" id="cpd" d="m160 227 1 1-1-1Z"/><path fill="#F2483A" id="LHA" d="m177 251 8 1c0-.823 6.664-3 8-3l4-2c0-2.215 2-1.519 2-3l1-1 1-1 1-1 1-1 1-1 1-3c0-2.765-2-5.165-2-7l-4.5-2c-2.541-1.27-3.709 2-5.5 2l-2 1-3 3-1 1-5 3-4 2-2 4v6l1 1v1ZM279 251c-1.819 0-4.591 1-7 1l-8-3-5-3-1-1-1-1-1-1-5-7c0-3.066 2-4.417 2-7h1c1.984 0 3.945-3.278 6.5-2l3.5 2 1 1 1 1 1 1 1 1 2 2h1l1 1 3 1 4 3 1 3v7l-1 1Z"/><path fill="#A0ED9D" id="EPv" d="M80 263h2l3-2c0-1.257.94-8 2-8v-1l-1-3c-5.016 0-6-15.079-6-19l-1-1-2-1c-2.364 0-3.053 3-5 3 0 7.29 1.856 19.212 5 25.5l3 6.5Z"/><path fill="#E64438" id="HY" d="M227 230c.839 0 2 1.93 2 0 0-2.488-2-1.919-2 0Z"/><path fill="#8AD987" id="CTXsp" d="m345 228-1 1 1-1Z"/><path fill="#84E981" id="BMAp" d="M359 266h3l3-4.5c.574-1.147-1.064-4.5 1-4.5v-3l-1-5c-2.751 0-8.772-15.044-10-17.5l-3-2.5h-1l-1-1h-5l-1 1-1 1-1 1h-1l-3 6v3c0 5.75 15 17.755 15 22l6 4Z"/><path fill="#8AD987" id="CTXsp" d="m350 228 1 1-1-1Z"/><path fill="#A0ED9D" id="EPv" d="M375 263h1c1.55 0 2.364-6.228 3-7.5 3.365-6.73 5-16.544 5-24.5l-4-3-3 1v2c0 7.008-6 17.67-6 18l-1 4v3c.672 0 2 4.329 2 5 1.481 0 .785 2 3 2Z"/><path fill="#7ECF49" id="CA3" d="m162 246-3 3c-4.935 0-6.657-14-11-14 0-2.062-3.344-6.922-1.5-6l3.5 2h1l2 2h1l2 2h1l2 2h1c0 1.577 1.762 2 3 2h1l1 2v2l-1 1-1 1-1 1ZM293 245l4 4c6.289 0 5.167-14 12-14 0-.265 3.731-7.615.5-6-1.619.809-1.471 2-3.5 2l-1 1-2 1-2 1-1 1-2 1-1 1h-1l-1 1-2 1-2 1v2l1 1 1 2Z"/><path fill="#8AD987" id="CTXsp" d="m343 230-1 1 1-1Z"/><path fill="#C8CBC7" id="st" d="m118 236 5 1c2.833 0 4.84-2 7-2 0-1.874-9.811-3.155-11.5-4-.879-.44-2.5-.028-2.5 1l2 4Z"/><path fill="#C7C8CC" id="alv" d="m151 231 2 2-2-2Z"/><path fill="#E64438" id="HY" d="m266 231 1 1-1-1Z"/><path fill="#C7C8CC" id="alv" d="m306 231-1 1 1-1Z"/><path fill="#CAC7CB" id="fiber tracts" d="M315 233c4.135 0 7.814 2 11 2 0-4.775 11 .775 11-4h-20l-2 2Z"/><path fill="#C8CBC7" id="st" d="M334 237h4l3-6h-4c0 4.775-11-.775-11 4 2.338 0 4.862 2 8 2Z"/><path fill="#C7C8CC" id="alv" d="m305 232-2 1 2-1Z"/><path fill="#97EC93" id="PA" d="m113 262 9.5-7c11.981-5.99 14.983-.008 23 4l3.5 3c2.919 0 4.243-4 7-4 0-7.506-11-20.801-11-24l-4-1c-4.23 0-7.554 2-11 2-2.16 0-4.167 2-7 2l-4 2c0 4.616-16 21.795-16 23h10Z"/><path fill="#C7C8CC" id="alv" d="m154 233 2 2-2-2Z"/><path fill="#E64438" id="HY" d="m188 233-1 1 1-1ZM268 233l2 2-2-2Z"/><path fill="#C7C8CC" id="alv" d="m303 233-2 1 2-1Z"/><path fill="#97EC93" id="PA" d="M343 262h10c0-4.245-15-16.25-15-22l-4-3c-3.138 0-5.662-2-8-2-3.186 0-6.865-2-11-2h-2l-1 1-1 1c0 3.862-11 16.098-11 23l7 4 4-3.5c2.569-2.569 5.477-3.988 8.5-5.5 9.057-4.528 19.975 9 23.5 9Z"/><path fill="#7DCD4B" id="HPF" d="M163 256c0 .682-6.241 2-7 2 0-7.506-11-20.801-11-24l3 1c4.343 0 6.065 14 11 14v2c0 3.41.234 5 4 5Z"/><path fill="#C7C8CC" id="alv" d="m301 234-1 1 1-1Z"/><path fill="#7DCD4B" id="HPF" d="M293 256c0 .682 6.241 2 7 2 0-6.902 11-19.138 11-23v-1l-2 1c-6.833 0-5.711 14-12 14v1c2.812 0 1.27 6-4 6Z"/><path fill="#C7C8CC" id="alv" d="m157 235 2 2-2-2Z"/><path fill="#E64438" id="HY" d="m271 235 1 1-1-1Z"/><path fill="#C7C8CC" id="alv" d="m300 235-2 1 2-1Z"/><path fill="#8AD987" id="CTXsp" d="m123 237-4 2-1-3 5 1Z"/><path fill="#E64438" id="HY" d="m207 237-3 2 1-3 2 1ZM250 237l6 6-5-7-1 1Z"/><path fill="#C7C8CC" id="alv" d="m298 236-1 1 1-1ZM160 237l3 2c-1.238 0-3-.423-3-2Z"/><path fill="#FC4B3E" id="Mml" d="M199 250h1c0-3.217 6.24-12 10-12v-1h-3l-3 2-1 1-1 1-1 1-1 1-1 1c0 1.481-2 .785-2 3l1 3h1Z"/><path fill="#FE4A3C" id="Mmm" d="m211 237-1 1v-1h1Z"/><path fill="#FC4C3E" id="PMd" d="m217 258-1 1-2.5-2c-3.184-1.592-8.819 1-11.5 1 0-1.349-3-3.085-3-6l1-2c0-3.217 6.24-12 10-12l1-1c5.397 0 15 6.104 15 12l-1 4c-3.014 0-4.29 5-8 5ZM254 258c-2.681 0-8.316-2.592-11.5-1l-2.5 2-1-1c-3.204 0-4.669-5-8-5l-1-4c0-6.237 10.791-12 16-12l1 1c3.312 0 9 8.157 9 11l1 2v1c0 3.067-3 4.726-3 6Z"/><path fill="#FE4A3C" id="Mmm" d="M247 237v1l-1-1h1Z"/><path fill="#FC4B3E" id="Mml" d="m259 249-2 1-1-1c0-2.843-5.688-11-9-11v-1h3l6 6 1 1 1 1 1 1v3Z"/><path fill="#C7C8CC" id="alv" d="m296 237-1 1 1-1Z"/><path fill="#8AD987" id="CTXsp" d="M338 237v3l-4-3h4Z"/><path fill="#C7C8CC" id="alv" d="m295 238-2 1 2-1ZM165 241h2l-3-2 1 2Z"/><path fill="#E64438" id="HY" d="m204 239-1 1 1-1Z"/><path fill="#C7C8CC" id="alv" d="m293 239-2 1 2-1Z"/><path fill="#E64438" id="HY" d="m203 240-1 1 1-1Z"/><path fill="#CAC7CB" id="fiber tracts" d="M289 241h1v-1l-1 1Z"/><path fill="#C7C8CC" id="alv" d="M290 241h1v-1h-1v1Z"/><path fill="#7DCD4B" id="HPF" d="M166 242h2v-1h-3v1h1Z"/><path fill="#E64438" id="HY" d="m202 241-1 1 1-1Z"/><path fill="#7DCD4B" id="HPF" d="M288 242h3v-1h-3v1Z"/><path fill="#7ECE4A" id="DG-po" d="m166 242-1 1v-1h1Z"/><path fill="#65A83D" id="DG-sg" d="M159 249v2c3.101 0 9-6.024 9-9h-2l-1 1-1 1-1 1-1 1-3 3Z"/><path fill="#7BD04A" id="DG-mo" d="M163 256h2l1-1h1l1-1 1-1c1.615 0 4.769-5.962 4-7.5l-3-3.5h-2c0 2.976-5.899 9-9 9 0 3.41.234 5 4 5Z"/><path fill="#CAC7CB" id="fiber tracts" d="M173 242v1l-2-1h2ZM284 243h1v-1h-1v1Z"/><path fill="#7BD04A" id="DG-mo" d="M292 256h1c5.27 0 6.812-6 4-6 0 .852-9-4.532-9-8h-1l-2 1c0 3.758-1.194 12 6 12l1 1Z"/><path fill="#65A83D" id="DG-sg" d="M297 249v1c0 .852-9-4.532-9-8h3l1 1 1 2 4 4Z"/><path fill="#7ECE4A" id="DG-po" d="m165 243-1 1 1-1Z"/><path fill="#E64438" id="HY" d="m200 243-1 1 1-1Z"/><path fill="#7ECE4A" id="DG-po" d="m292 243 1 2-1-2ZM164 244l-1 1 1-1Z"/><path fill="#E64438" id="HY" d="m257 244 1 1-1-1Z"/><path fill="#7ECE4A" id="DG-po" d="m163 245-1 1 1-1Z"/><path fill="#E64438" id="HY" d="M274 261c0-5.884-10.111 1-11 1 0-3.074-6.289-4-9-4 0-1.274 3-2.933 3-6 .215 0 5.684 1.869 4-1.5l-2-1.5v-3l5 3c0 4.077 8 9.086 8 3 2.409 0 5.181-1 7-1 0 1.779-3.465 10-5 10ZM183 261c0-6.003 8.561 1 10 1 0-3.094 6.901-4 9-4 0-1.349-3-3.085-3-6-3.676 0-6.55-2-1-2l-1-3-4 2c0 3.768-8 9.662-8 3l-8-1c0 1.969 3.732 10 6 10ZM231 257l-3.5-2-2.5 3v-5l1-4h4l1 4v4Z"/><path fill="#8AD987" id="CTXsp" d="M87 252c2.54 0 2.543 3 4 3v-5l-5-1 1 3Z"/><path fill="#E64438" id="HY" d="m176 249 1 1-1-1Z"/><path fill="#FF4B3D" id="LM" d="M193 249c-1.336 0-8 2.177-8 3 0 6.662 8 .768 8-3Z"/><path fill="#E64438" id="HY" d="M257 250v1l-1-2 1 1Z"/><path fill="#C7C8CA" id="fx" d="M257 251v1c.215 0 5.684 1.869 4-1.5l-2-1.5-2 1v1Z"/><path fill="#FF4B3D" id="LM" d="m264 249 8 3c0 6.086-8 1.077-8-3Z"/><path fill="#8AD987" id="CTXsp" d="M370 253c-2.878 0-2.954 1-4 1l-1-5h6l-1 4Z"/><path fill="#C7C8CA" id="fx" d="M199 250v2c-3.676 0-6.55-2-1-2h1Z"/><path fill="#E64438" id="HY" d="m200 250-1 2v-2h1ZM280 250l-1 1 1-1Z"/><path fill="#9CE79C" id="BLAv" d="m91 261-2 1-2-1v-9c2.54 0 2.543 3 4 3v6ZM369 261l-2 1c-1.643 0-1-3.765-1-5v-3c1.046 0 1.122-1 4-1v3l-1 5Z"/><path fill="#8AD987" id="CTXsp" d="M85 261h2v-8c-1.06 0-2 6.743-2 8Z"/><path fill="#60E6B5" id="COApm" d="m149 262-6 5.5c-1.153 2.306-21.472 18.5-24 18.5l-4-7.5c-2.278-4.556-2-10.995-2-16.5l9.5-7c11.981-5.99 14.983-.008 23 4l3.5 3Z"/><path fill="#7DCD4B" id="HPF" d="m169 253-1 1 1-1Z"/><path fill="#FC4C3D" id="TMd" d="M217 265h8v-12c-3.014 0-4.29 5-8 5v7ZM231 265h8c0-2.124 1-4.436 1-6l-1-1c-3.204 0-4.669-5-8-5v12Z"/><path fill="#60E6B5" id="COApm" d="M343 262c0 3.021 1.638 8.224 0 11.5-.843 1.686-6 12.311-6 12.5-3.275 0-20.379-14.879-23.5-18l-6.5-6 4-3.5c2.569-2.569 5.477-3.988 8.5-5.5 9.057-4.528 19.975 9 23.5 9Z"/><path fill="#7DCD4B" id="HPF" d="m168 254-1 1 1-1ZM166 255l-1 1 1-1Z"/><path fill="#A8A9AA" id="V3" d="M225 265c3.43 0 .629 7.064 2.5 8 2.528 1.264 1.899-8 3.5-8v-8l-3.5-2-2.5 3v7Z"/><path fill="#7DCD4B" id="HPF" d="m291 255 1 1-1-1Z"/><path fill="#8AD987" id="CTXsp" d="M369 261h3c0-.671-1.328-5-2-5l-1 5Z"/><path fill="#FF4B3B" id="PMv" d="m195 267 4.5 5c3.062 1.531 6.814 3 10.5 3l7-10v-6h-1l-2.5-2c-3.184-1.592-8.819 1-11.5 1-2.099 0-9 .906-9 4l2 5ZM261 268c-2.629 0-8.108 7-14 7l-8-10c0-2.124 1-4.436 1-6l2.5-2c3.184-1.592 8.819 1 11.5 1 2.711 0 9 .926 9 4l-2 6Z"/><path fill="#8AD987" id="CTXsp" d="m362 266 1 1 4-5c-1.643 0-1-3.765-1-5-2.064 0-.426 3.353-1 4.5l-3 4.5Z"/><path fill="#E64438" id="HY" d="M216 259h1v-1l-1 1ZM239 258l1 1-1-1Z"/><path fill="#FF4C3E" id="TMv" d="m195 267-1 2c-3.214 0-11-5.272-11-8 0-6.003 8.561 1 10 1l2 5ZM261 268l2 1c4.007 0 8.546-8 11-8 0-5.884-10.111 1-11 1l-2 6Z"/><path fill="#59D9AA" id="PAA" d="m90 291-2 1c-3.44 0-16-3.442-16-8 0-1.95 8-12.29 8-19l2-2 3-2h2l2 1 4 4 1 5-4 20Z"/><path fill="#8AD987" id="CTXsp" d="M93 266h2l-4-5-2 1 4 4Z"/><path fill="#59D9AA" id="PAA" d="m366 290 2 2c3.44 0 17-4.774 17-8-2.269 0-9-16.229-9-19l-1-2c-2.215 0-1.519-2-3-2h-3l-2 1-4 5-1 3 4 20Z"/><path fill="#5FE6B7" id="COApl" d="m90 291 1 2c9.934 0 17.876 2.624 25.5-5l2.5-2-4-7.5c-2.278-4.556-2-10.995-2-16.5h-10l-6 4-3 5-4 20ZM366 290v3c-12.11 0-13.804 1.348-24.5-4l-4.5-3c0-.189 5.157-10.814 6-12.5 1.638-3.276 0-8.479 0-11.5h10l6 4 3 4 4 20Z"/><path fill="#99D2BD" id="OLF" d="m82 263-2 2v-2h2ZM376 263v2l-1-2h1Z"/><path fill="#FF5447" id="PVp" d="m210 278 7.5 3c1.9.95 20.119-.059 22-1 1.3-.65 6.5-.007 6.5-2l1-3-8-10h-8c-1.601 0-.972 9.264-3.5 8-1.871-.936.93-8-2.5-8h-8l-7 10v3Z"/><path fill="#99D2BD" id="OLF" d="m97 266-3 5-1-5h4ZM363 267l-1 3-3-4h3l1 1Z"/><path fill="#E64438" id="HY" d="M210 275v3c-2.479 0-16-5.906-16-9l1-2 4.5 5c3.062 1.531 6.814 3 10.5 3ZM247 275l-1 3c2.102 0 17-7.143 17-9l-2-1c-2.629 0-8.108 7-14 7Z"/><path fill="#99D2BD" id="OLF" d="m368 292-2 1v-3l2 2ZM88 292c0 1.473 1.952 1 3 1l-1-2-2 1Z"/></svg>