<svg xmlns="http://www.w3.org/2000/svg" viewBox="0 0 456 320"><path fill="#1BA598" id="RSPd1" d="m221 21-2 1-2.5-3c-2.619-1.31-5.792-3.396-9-5-6.086-3.043-12.732 1-18.5 1l-1-5c0-1.769 8.801-1 10.5-1 6.802 0 22.5 3.478 22.5 12ZM235 21l2 1 8.5-7c7.416-3.708 14.349 0 21.5 0l1-5c0-1.763-8.343-1-10-1-5.957 0-23 4.654-23 12Z"/><path fill="#1BA696" id="RSPagl1" d="M189 15c-5.02 0-9.401 2-15 2v-4c4.096 0 9.512-3 14-3l1 5ZM267 15c5.02 0 9.401 2 15 2l1-4c-4.662 0-9.958-3-15-3l-1 5Z"/><path fill="#019FAC" id="VISa1" d="m116 29 2 4c6.165 0 14.157-5.328 19.5-8 5.728-2.864 29.623-8 36.5-8v-2l-1-2c-12.693 0-31.83 4.665-42.5 10-1.868.934-14.5 4.153-14.5 6Z"/><path fill="#09848B" id="VISam1" d="M174 13v2l-1-2h1Z"/><path fill="#1BA697" id="RSPd2/3" d="M219 23c0 1.366-2.366 4-4 4l-4.5-4-6-2c-4.616-2.308-11.235 2-15.5 2v-8c5.768 0 12.414-4.043 18.5-1 3.208 1.604 6.381 3.69 9 5l2.5 3v1ZM237 24l4 3 3.5-3 7-3c4.577-2.288 11.359 2 15.5 2v-8c-7.151 0-14.084-3.708-21.5 0l-8.5 7v2Z"/><path fill="#019FAC" id="VISa1" d="m340 29-2 4c-5.699 0-14.457-5.479-19.5-8-7.26-3.63-28-8-36.5-8l1-4c13.142 0 31.487 4.493 42.5 10 2.348 1.174 14.5 2.513 14.5 6Z"/><path fill="#1AA496" id="RSPagl2/3" d="M189 23c-4.641 0-8.272 4-13 4l-2-10c5.599 0 9.98-2 15-2v8ZM267 23l14 4 1-10c-5.599 0-9.98-2-15-2v8Z"/><path fill="#009EAB" id="VISa2/3" d="M124 42h1c0-2.278 10.624-4.062 12.5-5 10.75-5.375 25.759-10 38.5-10l-2-10c-6.877 0-30.772 5.136-36.5 8-5.343 2.672-13.335 8-19.5 8v1c1.155 0 5 6.844 5 8h1ZM338 34l-5 8-11.5-5c-6.674-3.337-32.467-10-40.5-10l1-10c8.5 0 29.24 4.37 36.5 8 5.043 2.521 13.801 8 19.5 8v1Z"/><path fill="#1AA596" id="RSPd5" d="m189 35 8.5-3c4.028-2.014 6.698 3 9.5 3l8-7v-1l-4.5-4-6-2c-4.616-2.308-11.235 2-15.5 2v12Z"/><path fill="#1BA597" id="RSPv1" d="M230 66h2c0-7.165-1.305-29.89 1-34.5.819-1.637 1.175-7.5 4-7.5v-2l-2-1-3 4.5-3.5 5.5-7.5-10-2 1v1c2.074 0 4.17 7.84 5 9.5 1.377 2.754 1 28.337 1 33.5h2c0-5.86 3-4.761 3 0Z"/><path fill="#1AA596" id="RSPd5" d="M249 36h1c0-8.56 14.634-1 18-1 0-3.821-1-7.372-1-12-4.141 0-10.923-4.288-15.5-2l-7 3-3.5 3v1c1.158 0 8 6.162 8 8Z"/><path fill="#1CA697" id="RSPagl5" d="m189 36-11 4c0-4.401-2-8.475-2-12v-1c4.728 0 8.359-4 13-4v13Z"/><path fill="#1AA597" id="RSPv2/3" d="M221 66h4c0-5.163.377-30.746-1-33.5-.83-1.66-2.926-9.5-5-9.5 0 1.366-2.366 4-4 4v1c2.729 0 1.254 5.007 2 6.5 2.069 4.138 4 26.21 4 31.5Z"/><path fill="#1CA697" id="RSPagl5" d="m268 36 11 4c0-4.31 2-9.853 2-12v-1l-14-4c0 4.628 1 8.179 1 12v1Z"/><path fill="#1AA597" id="RSPv2/3" d="M232 66h4c0-5.763 1.046-30.592 3-34.5l2-3.5v-1l-4-3c-2.825 0-3.181 5.863-4 7.5-2.305 4.61-1 27.335-1 34.5Z"/><path fill="#019EAC" id="VISa4" d="m133 45-3 1c0-3.24-5-.153-5-4 0-2.278 10.624-4.062 12.5-5 10.75-5.375 25.759-10 38.5-10v1l-33.5 12-9.5 5ZM324 45h2l7-2v-1l-11.5-5c-6.674-3.337-32.467-10-40.5-10v1c2.436 0 28.231 9.366 31.5 11l11.5 6Z"/><path fill="#019EAB" id="VISa5" d="M143 50h1l1-1c10.945 0 21.659-9 33-9 0-4.401-2-8.475-2-12l-33.5 12-9.5 5c0 1.76 2.862 3 4.5 3l1-2 1 3c.425 0 3.5-1.123 3.5 1Z"/><path fill="#1BA498" id="RSPv5" d="m217 65 4 1c0-5.29-1.931-27.362-4-31.5-.746-1.493.729-6.5-2-6.5l-8 7v3c0 7.814 6 15.68 6 23l4 4ZM239 65l-3 1c0-5.763 1.046-30.592 3-34.5l2-3.5c1.158 0 8 6.162 8 8 0 9.135-6 20.629-6 25l-4 4Z"/><path fill="#019EAB" id="VISa5" d="M324 45c0 2.001-10.014 4-13 4-8.424 0-22.395-9-32-9 0-4.31 2-9.853 2-12 2.436 0 28.231 9.366 31.5 11l11.5 6Z"/><path fill="#188060" id="SSp-bfd1" d="m60 68 3 3c3.899 0 9.692-10.596 12.5-12 12.04-6.02 27.416-25 42.5-25v-1l-2-4c-8.692 0-37.421 19.921-44.5 27L60 68ZM396 67c0 1.429-1.288 4-3 4l-16.5-16c-11.301-5.65-25.49-21-38.5-21v-1l2-4c13.227 0 32.685 20.093 44.5 26L396 67Z"/><path fill="#1AA697" id="RSPd6a" d="M200 47h1c0-1.877 3.449-9 6-9v-3c-2.802 0-5.472-5.014-9.5-3l-8.5 3v1l1 11h1c0-2.82 8.108 0 9 0ZM266 47h1c0-3.642 1-8.002 1-11v-1c-3.366 0-18-7.56-18 1 0 4.283 6 7.064 6 11h1c0-2.82 8.108 0 9 0Z"/><path fill="#187F63" id="SSp-bfd2/3" d="M63 72c2.47 0 3.215 7 7 7l10.5-12c12.955-6.477 27.254-24 42.5-24v-1c0-1.156-3.845-8-5-8-15.084 0-30.46 18.98-42.5 25-2.808 1.404-8.601 12-12.5 12v1ZM393 72l-7 7-12.5-14-7-6c-7.315-3.658-26.291-17-33.5-17l5-8c13.01 0 27.199 15.35 38.5 21L393 71v1Z"/><path fill="#1CA597" id="RSPagl6a" d="m190 47-11 1-1-8 11-4 1 11Z"/><path fill="#1AA498" id="RSPv6a" d="M247 57c0 1.365-2.366 4-4 4 0-4.371 6-15.865 6-25h1c0 4.283 6 7.064 6 11-1.712 0-3 2.571-3 4l-2 2-2 2-2 2Z"/><path fill="#1CA597" id="RSPagl6a" d="M267 47c2.978 0 6.49 1 10 1l2-8-11-4c0 2.998-1 7.358-1 11Z"/><path fill="#1AA498" id="RSPv6a" d="m209 57 4 4c0-7.32-6-15.186-6-23-2.551 0-6 7.123-6 9 0 4.282 8 6.288 8 10Z"/><path fill="#009DAC" id="VISa6a" d="M156 53h4c0-.843 3.646-2 4.5-2l14.5-3-1-8c-11.341 0-22.055 9-33 9v1c4.081 0 8.087 3 11 3ZM299 53h2c2.84 0 6.715-3 10-3v-1c-8.424 0-22.395-9-32-9l-2 8 15.5 3c.854 0 4.5 1.157 4.5 2h2Z"/><path fill="#019EAC" id="VISa4" d="m123 43 1 1c1.93 0 0-1.161 0-2h-1v1Z"/><path fill="#1B7E62" id="SSp-tr4" d="m130 46-4 2-2-4c1.93 0 0-1.161 0-2h1c0 3.847 5 .76 5 4Z"/><path fill="#197C64" id="SSp-bfd4" d="m386 80-5 6-23.5-21c-4.88-2.44-16.928-8.928-20.5-12.5l-6-4.5 2-5v-1c7.209 0 26.185 13.342 33.5 17l7 6L386 79v1ZM75 86h1l11.5-11c8.588-8.588 20.539-16.27 32-22l6.5-5-2-4-1-1c-15.246 0-29.545 17.523-42.5 24L70 79v1c1.901 0 5 4.332 5 6Z"/><path fill="#1B7E62" id="SSp-tr4" d="M330 48h1l2-5-7 2 4 3Z"/><path fill="#197F60" id="SSp-tr5" d="m143 50-13 6-4-8 4-2 3-1c0 1.76 2.862 3 4.5 3l1-2 1 3c.425 0 3.5-1.123 3.5 1ZM311 50c5.959 0 10.206 6 16 6l3-8-4-3h-2c0 2.001-10.014 4-13 4v1Z"/><path fill="#1BA698" id="RSPd6b" d="M200 47v1c-2.389 0-5.987-1-9-1 0-2.82 8.108 0 9 0ZM266 47v1c-2.389 0-5.987-1-9-1 0-2.82 8.108 0 9 0Z"/><path fill="#1AA598" id="RSPagl6b" d="M190 48c-3.109 0-7.814 2-11 2v-2l11-1v1Z"/><path fill="#1BA698" id="RSPd6b" d="m191 47-1 1v-1h1Z"/><path fill="#CACCC7" id="cing" d="m213 61 4 4c-8.506 0-18.227-8.363-25.5-12-5.471-2.735-22.201 2-28.5 2h-4l2-2c6.418 0 11.557-3 18-3 3.186 0 7.891-2 11-2l1-1c3.013 0 6.611 1 9 1l9 9 4 4Z"/><path fill="#1AA497" id="RSPv6b" d="m200 48 9 9c0-3.712-8-5.718-8-10h-1v1ZM256 48l-3 3c0-1.429 1.288-4 3-4v1Z"/><path fill="#1BA698" id="RSPd6b" d="m257 47-1 1v-1h1Z"/><path fill="#CACCC7" id="cing" d="m243 61-4 4c8.903 0 17.962-8.231 25.5-12 5.502-2.75 22.972 2 29.5 2h4l-1-1c-6.446 0-13.068-4-20-4-2.947 0-8.053-2-11-2-2.389 0-5.987-1-9-1l-1 1-3 3c0 1.747-.253 2-2 2 0 1.747-.253 2-2 2 0 1.747-.253 2-2 2 0 1.365-2.366 4-4 4Z"/><path fill="#1AA598" id="RSPagl6b" d="M277 48v2c-2.947 0-8.053-2-11-2v-1h1c2.978 0 6.49 1 10 1Z"/><path fill="#1A7D62" id="SSp-bfd5" d="M82 95h1c0-3.496 6.95-9.45 9.5-12 6.022-6.022 30.692-26 37.5-26v-1l-4-8-6.5 5c-11.461 5.73-23.412 13.412-32 22L76 86c0 3.909 6 4.578 6 9Z"/><path fill="#029FAC" id="VISa6b" d="M160 53h1c6.418 0 11.557-3 18-3v-2l-14.5 3c-.854 0-4.5 1.157-4.5 2ZM297 53v1c-6.446 0-13.068-4-20-4v-2l15.5 3c.854 0 4.5 1.157 4.5 2Z"/><path fill="#1A7D62" id="SSp-bfd5" d="M381 87c-1.841 0-7 6.033-7 7l-9.5-11c-8.26-4.13-28.348-26-37.5-26v-1l3-8h1l6 4.5c3.572 3.572 15.62 10.06 20.5 12.5L381 86v1Z"/><path fill="#197F60" id="SSp-tr5" d="M144 50h1v-1l-1 1Z"/><path fill="#188063" id="SSp-tr6a" d="M130 57c1.876 0 1.04 6 4 6l22-10c-2.913 0-6.919-3-11-3h-2l-13 6v1ZM327 57c-1.008 0-4 5.147-4 6l-17.5-8c-1.119-.56-4.5-.155-4.5-2 2.84 0 6.715-3 10-3 5.959 0 10.206 6 16 6v1Z"/><path fill="#1AA497" id="RSPv6b" d="m253 51-2 2c1.747 0 2-.253 2-2Z"/><path fill="#1A8063" id="SSp-tr6b" d="M134 64h1l4-1c0-1.867 16.887-8 20-8l2-2h-5l-22 10v1Z"/><path fill="#C7CACC" id="ccs" d="m357 113 1 1c0-14.552-15.309-32.404-28.5-39L316 65c-1.349 0-14.313-6.906-16.5-8-1.319-.66-5.5.334-5.5-2-6.528 0-23.998-4.75-29.5-2-7.538 3.769-16.597 12-25.5 12l-3 1h-15l-4-1c-8.506 0-18.227-8.363-25.5-12-5.471-2.735-22.201 2-28.5 2 0 1.59-4.386 1.443-5.5 2L141 64c0 1.703-13.486 9.993-15.5 11-9.523 4.761-26.5 25.723-26.5 37h1l1-1v-1l1-1v-1l1-1 4-6 1-1 1-1c0-1.747.253-2 2-2l1-2 1-1c0-1.247 2.467-5 4-5 0-2.226 1.774-4 4-4 0-4.043 12.38-14 16-14 0-2.834 7.108-4.804 9.5-6 6.725-3.362 29.239-12.38 38-8 2.091 1.046 13.66 9 14.5 9 4.028 0 24.468 15.516 33.5 11l11-3c4.173-2.086 9.705-8 14.5-8h1l1-1 1-1 2-1c0-1.747.253-2 2-2l2-1 2-1 3.5-2h16c4.31 2.155 9.759 1.88 14 4 10.691 5.346 20.839 10.84 29.5 19.5 3.047 3.047 11 9.3 11 13.5l4 4v1c2.12 0 7 7.287 7 9l1 1v1c1.577 0 2 1.762 2 3Z"/><path fill="#1AA497" id="RSPv6b" d="m251 53-2 2c1.747 0 2-.253 2-2Z"/><path fill="#1A8063" id="SSp-tr6b" d="m323 64-1 1-5-2c0-1.822-16.142-8-19-8l-1-1v-1h1c0 1.186 1 1.186 1 0h2c0 1.845 3.381 1.44 4.5 2l17.5 8v1Z"/><path fill="#029FAC" id="VISa6b" d="M298 53h1c0 1.186-1 1.186-1 0Z"/><path fill="#C9C9CA" id="scwm" d="m139 63 2 1 16.5-7c1.114-.557 5.5-.41 5.5-2h-4c-3.113 0-20 6.133-20 8Z"/><path fill="#1AA497" id="RSPv6b" d="m249 55-2 2c1.747 0 2-.253 2-2Z"/><path fill="#C9C9CA" id="scwm" d="m317 63-1 2c-1.349 0-14.313-6.906-16.5-8-1.319-.66-5.5.334-5.5-2h4c2.858 0 19 6.178 19 8Z"/><path fill="#198060" id="SSp-bfd6a" d="m83 95 8 9c0-3.277 6.347-7.847 8.5-10 5.432-5.433 20.015-25 27.5-25 0-2.275 3.756-4 6-4l1-1v-1c-2.96 0-2.124-6-4-6-6.808 0-31.478 19.978-37.5 26-2.55 2.55-9.5 8.504-9.5 12Z"/><path fill="#C7C8CC" id="alv" d="M137 71c4.034 0 8.053-4.276 11.5-6l17-6h7c1.584-.792 5.944-2.028 8-1 3.113 1.556 6.853 1.426 10 3l10 8 7.5 6-9-9c-.84 0-12.409-7.954-14.5-9-8.761-4.38-31.275 4.638-38 8-2.392 1.196-9.5 3.166-9.5 6ZM323 115l9 1c3.482 0 13 .445 13-5 0-2.147 2-7.689 2-12l-1-1-3-4c0-4.2-7.953-10.453-11-13.5-8.661-8.66-18.809-14.154-29.5-19.5-4.241-2.12-9.69-1.845-14-4h-16l-3.5 2 13.5-1c2.383 1.191 5.725-.137 8 1 9.864 4.932 30.996 8.492 36.5 19.5l10 9.5 4 4c0 4.675 7.136 10.227 4 16.5-6.355 12.711-30.278 2.5-42 2.5v1h3c1.048 0 3-.473 3 1 4.107 0 8.469 1 12 1l1 1h1Z"/><path fill="#198060" id="SSp-bfd6a" d="m374 95-8 9-7.5-9c-6.293-3.147-15.785-18.892-26-24-3.175-1.587-5.79-7-9.5-7v-1c0-.853 2.992-6 4-6 9.152 0 29.24 21.87 37.5 26l9.5 11v1Z"/><path fill="#7ECF4B" id="CA1" d="m216 99-1 1-9.5-5c-10.029-5.015-21.025-9.013-31-14-6.675-3.338-19.736 9-24.5 9l-23-2c-1.406 0-7 .714-7-1l1-2 4.5-4c1.906-.953 11.5-7.624 11.5-10 4.034 0 8.053-4.276 11.5-6l17-6h7c1.584-.792 5.944-2.028 8-1 3.113 1.556 6.853 1.426 10 3l10 8 7.5 6h1l2 2h1l2 2 1 1 6 5c0 4.868-3 7.951-3 12l-2 2ZM239 98l2 2c2.126 0 35.823-16.662 40.5-19 7.315-3.657 20.018 9 25.5 9 9.712 0 19.586-2 30-2l-10-9.5c-5.504-11.008-26.636-14.568-36.5-19.5-2.275-1.137-5.617.191-8-1L269 59l-2 1-2 1-2 2-2 1-1 1-1 1-1 1-1 1c0 1.712-2.571 3-4 3l-1 1-1 1-2 1-1 1-1 1-2 1-1 1-2 1-1 1-1 1h-1l-1 1-1 1-2 2c0 5.696 4 8.651 4 12v1Z"/><path fill="#C7C8CC" id="alv" d="m269 59-2 1 2-1ZM267 60l-2 1 2-1ZM265 61c-1.747 0-2 .253-2 2l2-2Z"/><path fill="#CBC9C7" id="or" d="m86 122 1 4 11-11v-1l1-2c0-11.277 16.977-32.239 26.5-37 2.014-1.007 15.5-9.297 15.5-11l-2-1-4 1-2 1c0 1.617-4.583 4-6 4 0 2.611-5.379 4.88-7.5 7L99 96.5l-8 8.5-2 6-1 1-2 10Z"/><path fill="#C7C8CC" id="alv" d="m263 63-2 1 2-1Z"/><path fill="#CBC9C7" id="or" d="m371 123-2 3c0-1.613-8.298-11-11-11v-1c0-14.552-15.309-32.404-28.5-39L316 65l1-2 5 2c3.065 0 5.596 5.048 7.5 6 4.85 2.425 17.959 11.418 20.5 16.5 1.725 3.45 5.848 8.174 8.5 9.5l6.5 8 3 6 3 12Z"/><path fill="#1A7E61" id="SSp-bfd6b" d="m135 64-2 1 1-1h1Z"/><path fill="#C7C8CC" id="alv" d="m261 64-1 1 1-1Z"/><path fill="#1A7E61" id="SSp-bfd6b" d="M365 105h1v-1l-7.5-9c-6.293-3.147-15.785-18.892-26-24-3.175-1.587-5.79-7-9.5-7l-1 1c3.065 0 5.596 5.048 7.5 6 4.85 2.425 17.959 11.418 20.5 16.5 1.725 3.45 5.848 8.174 8.5 9.5l6.5 8ZM133 65c-2.244 0-6 1.725-6 4 1.417 0 6-2.383 6-4Z"/><path fill="#C7C8CC" id="alv" d="m260 65-1 1 1-1Z"/><path fill="#C9CCC9" id="dhc" d="M230 84h4l3-1 1-1 1-1h1l1-1 1-1 2-1 1-1 2-1 1-1 1-1 2-1 1-1 1-1c0-1.712 2.571-3 4-3l1-1v-1c-4.795 0-10.327 5.914-14.5 8l-11 3c-9.032 4.516-29.472-11-33.5-11l9 9h1l2 2h1l2 2 1 1c2.919 0 4.243 4 7 4h8Z"/><path fill="#C7C8CC" id="alv" d="m259 66-1 1v-1h1ZM258 67l-1 1 1-1Z"/><path fill="#1A7E62" id="SSs1" d="M410 97h1l4-4c0-2.368-18.166-26-19-26 0 1.429-1.288 4-3 4v1c3.075 0 17 22.072 17 25ZM41 93l4 4c1.407 0 13.955-25 18-25v-1l-3-3-5 5.5C52.771 75.729 41 90.892 41 93Z"/><path fill="#C7C8CC" id="alv" d="M257 68c-1.429 0-4 1.288-4 3 1.429 0 4-1.288 4-3Z"/><path fill="#1A7E61" id="SSp-bfd6b" d="M91 104v1l8-8.5L119.5 76c2.121-2.12 7.5-4.389 7.5-7-7.485 0-22.068 19.567-27.5 25-2.153 2.153-8.5 6.723-8.5 10Z"/><path fill="#C7C8CC" id="alv" d="M137 71c-3.62 0-16 9.957-16 14l4.5-4c1.906-.953 11.5-7.624 11.5-10ZM253 71l-1 1 1-1Z"/><path fill="#1B8063" id="SSs2/3" d="M45 98c5.415 0 5.358 8 9 8 0-3.007 9.518-18.018 12-20.5l4-5.5v-1c-3.785 0-4.53-7-7-7-4.045 0-16.593 25-18 25v1Z"/><path fill="#C7C8CC" id="alv" d="m252 72-1 1 1-1Z"/><path fill="#1B8063" id="SSs2/3" d="M410 97c0 2.919-3.892 5-4.5 5-.876 0-.193 4-2.5 4-1.281 0-14.037-26-17-26v-1l7-7c3.075 0 17 22.072 17 25Z"/><path fill="#C7C8CC" id="alv" d="m251 73-2 1 2-1ZM249 74l-1 1 1-1ZM209 75l2 2-2-2ZM248 75l-1 1 1-1ZM247 76l-2 1 2-1ZM212 77l2 2-2-2ZM245 77l-1 1 1-1ZM242 79l-1 1 1-1Z"/><path fill="#187C63" id="SSs4" d="m54 107 3 3c0-6.215 18-19.127 18-24 0-1.668-3.099-6-5-6l-4 5.5c-2.482 2.482-12 17.493-12 20.5v1Z"/><path fill="#C7C8CC" id="alv" d="m222 84-1 1-6-5c2.919 0 4.243 4 7 4ZM241 80l-1 1 1-1Z"/><path fill="#187C63" id="SSs4" d="m403 107-3 3c-2.468 0-14.449-23-19-23v-1l5-6c2.963 0 15.719 26 17 26v1Z"/><path fill="#7BD04A" id="DG-mo" d="M194 117h10l5-2 1-1 1-1 2-1c0-3.551 3-6.471 3-11l-1-1-9.5-5c-10.029-5.015-21.025-9.013-31-14-6.675-3.338-19.736 9-24.5 9l-2 3c0 3.981 4.403 6 8 6 0-4.138 7.697-4.598 10.5-6 11.787-5.894 24.048 4.024 34 9h10c3.805 1.902-2.678 7.339-4 8-5.018 2.509-12.899 1.55-18-1-7.444-3.722-13.235-2-21.5-2l-3 2 1 2c4.577 0 8.982 2 14 2l2 1h2l2 1h3l1 1h1l2 1h2Z"/><path fill="#C7C8CC" id="alv" d="m239 81-1 1 1-1Z"/><path fill="#7BD04A" id="DG-mo" d="M262 117h2l2-1h1l2-1h3l2-1h2l1-1c5.528 0 9.922-2 15-2v-2l-2-2c-8.385 0-13.961-1.77-21.5 2-3.003 1.502-14.109 3.446-17 2-2.055-1.028-9.94-6.53-5-9 3.302-1.651 8.612.694 12-1 9.565-4.782 19.633-13.683 31-8 4.196 2.098 10.5 1.518 10.5 6 2.973 0 9-2.32 9-6l-2-3c-5.482 0-18.185-12.657-25.5-9-4.677 2.338-38.374 19-40.5 19l-1 4.5 4 7.5 3 3 6 2h9Z"/><path fill="#C7C8CC" id="alv" d="m238 82-1 1 1-1ZM234 84l1 1 2-2-3 1Z"/><path fill="#7ECD4A" id="FC" d="m221 96-3 1c0-4.049 3-7.132 3-12l1-1h5v5l-2 2v1l-1 1-3 3ZM235 85c0 5.696 4 8.651 4 12-6.885 0-9-8.708-9-13h4l1 1Z"/><path fill="#C7C8CC" id="alv" d="m120 87-3 2c0-2.226 1.774-4 4-4l-1 2Z"/><path fill="#1C8063" id="SSs5" d="M63 127v3c1.11 0 5.859-14.217 7-16.5L82 95c0-4.422-6-5.091-6-9h-1c0 4.873-18 17.785-18 24v1l3 2.5c0 2.522 4 6.478 4 9 0 .949-1 2.951-1 4.5Z"/><path fill="#7DCF4B" id="CA2" d="M116 92c4.04 0 12.204-3.148 16.5-1 3.756 1.878 11.191 2 15.5 2l2-3-23-2c-1.406 0-7 .714-7-1l-3 2-1 3Z"/><path fill="#1C8063" id="SSs5" fill-rule="evenodd" d="M400 142c0 1.93 1.93 0 0 0m-1-2c0 1.93 1.93 0 0 0m0 11h2c1.238 0 3-.423 3-2 0-8.389-10-12.597-10-22-2.151 0 .545-1.409 0-2.5l-1-3c1.36-2.72 3.648-10.5 7-10.5v-1c-2.468 0-14.449-23-19-23-1.841 0-7 6.033-7 7v1l7 10.5c6.99 13.979 17 28.856 17 45.5h1Z"/><path fill="#7DCF4B" id="CA2" d="M341 92c-4.382 0-12.969-3.265-17.5-1-3.417 1.708-10.632 2-14.5 2l-2-3c9.712 0 19.586-2 30-2l4 4Z"/><path fill="#C7C8CC" id="alv" d="M113 94v1l3-3 1-3c-1.533 0-4 3.753-4 5Z"/><path fill="#A8A9AA" id="V3" d="M223 96c3.736 0 2.992 6 5.5 6l3-6c2.116-1.058 2.898 2 4.5 2 0-2.025-7.193-9-9-9 0 1.747-.253 2-2 2v1l-1 1-1 3Z"/><path fill="#7ECF49" id="CA3" d="M153 111h2c0-1.684 4.679-1 6-1h2l1-1 3-2c0-2.767 4.975-4 7-4 0-5.807-8.389-4-14-4h-4c-3.597 0-8-2.019-8-6-4.309 0-11.744-.122-15.5-2-4.296-2.148-12.46 1-16.5 1l-3 3c0 3.62-3.946 8.607-2 12.5 6.975 13.951 28.79 3.5 42 3.5Z"/><path fill="#65A83D" id="DG-sg" d="M174 103c-2.025 0-7 1.233-7 4 8.265 0 14.056-1.722 21.5 2 5.101 2.55 12.982 3.509 18 1 1.322-.661 7.805-6.098 4-8h-10c-9.952-4.976-22.213-14.894-34-9-2.803 1.402-10.5 1.862-10.5 6h4c0-1.946 7.983-2.242 9.5-3 4.505-2.252 28.979 6.459 30.5 9.5.908 1.817-3.573 1.963-4.5 1.5-3.125-1.562-6.95-1.475-10-3-4.032-2.016-7.438-1-11.5-1ZM282 103c1.937 0 8 1.553 8 4-8.385 0-13.961-1.77-21.5 2-3.003 1.502-14.109 3.446-17 2-2.055-1.028-9.94-6.53-5-9 3.302-1.651 8.612.694 12-1 9.565-4.782 19.633-13.683 31-8 4.196 2.098 10.5 1.518 10.5 6h-3c0-1.652-8.99-2.245-10.5-3-7.484-3.742-17.703 3.852-24 7l-6.5 3.5 4 .5 10.5-3c3.793-1.896 7.941-1 11.5-1Z"/><path fill="#7ECF49" id="CA3" d="M301 111h2c11.722 0 35.645 10.211 42-2.5 3.136-6.273-4-11.825-4-16.5-4.382 0-12.969-3.265-17.5-1-3.417 1.708-10.632 2-14.5 2 0 3.68-6.027 6-9 6h-3c-4.813 0-15-2.246-15 4 1.937 0 8 1.553 8 4l2 2 1 1h2c1.321 0 6-.684 6 1Z"/><path fill="#039399" id="AUDd1" d="M36 117h1c0-7.038 8-12.643 8-19v-1l-4-4c0 6.21-10 15.284-10 23l5 1ZM426 116l-6 1c0-7.075-9-12.984-9-20l4-4 3 5.5c2.361 4.722 8 12.122 8 17.5Z"/><path fill="#C9C7C9" id="ccb" d="M112 95h1v-1l-1 1ZM346 98h1l-4-4 3 4Z"/><path fill="#197D63" id="SSs6a" d="M68 155h1c0-3.408 3.373-20 6-20 0-3.945 13.022-30 16-30v-1l-8-9h-1l-12 18.5c-1.141 2.283-5.89 16.5-7 16.5 0 1.048.473 3-1 3l-4 18v1c1.643 0 10 1.484 10 3Z"/><path fill="#C9C7C9" id="ccb" d="m112 95-1 2 1-2Z"/><path fill="#C7C8CC" id="alv" d="m134 115-9 1c-3.634 0-14 .759-14-5 0-3.531-1-7.893-1-12l1-2 1-2h1c0 3.62-3.946 8.607-2 12.5 6.975 13.951 28.79 3.5 42 3.5v1h-2c-1.145 0-4-.579-4 1-3.806 0-7.751 1-11 1l-2 1Z"/><path fill="#7ECE4A" id="DG-po" d="M160 99c5.611 0 14-1.807 14 4 4.062 0 7.468-1.016 11.5 1 3.05 1.525 6.875 1.438 10 3 .927.463 5.408.317 4.5-1.5-1.521-3.041-25.995-11.752-30.5-9.5-1.517.758-9.5 1.054-9.5 3ZM297 99c-4.813 0-15-2.246-15 4-3.559 0-7.707-.896-11.5 1l-10.5 3-4-.5 6.5-3.5c6.297-3.148 16.516-10.742 24-7 1.51.755 10.5 1.348 10.5 3Z"/><path fill="#197D63" id="SSs6a" d="M398 151c0 .956-8.939 4-10 4 0-13.514-9.261-28.022-15-39.5l-7-10.5v-1l8-9 7 10.5c6.99 13.979 17 28.856 17 45.5Z"/><path fill="#A8A9AA" id="V3" d="m222 96-1 1v-1h1Z"/><path fill="#A9AAA8" id="chpl" d="M225 113c1.602 0 2.384 3.058 4.5 2l1.5-2 1-1 1-1 1-3 1-1 1-2v-7c-1.602 0-2.384-3.058-4.5-2l-3 6c-2.508 0-1.764-6-5.5-6h-1l-1 1v1l-1 1v5l1 2 1 2 1 1v1l2 2v1Z"/><path fill="#C9C7C9" id="ccb" d="M109 99h1l1-2c-1.747 0-2 .253-2 2Z"/><path fill="#029397" id="AUDd2/3" d="M410 121h1c2.659 0 6.5-4 9-4 0-7.075-9-12.984-9-20h-1c0 2.919-3.892 5-4.5 5-.876 0-.193 4-2.5 4v1l7 14Z"/><path fill="#029397" id="AUDd2/3" fill-rule="evenodd" d="M49 102c0 1.93 1.93 0 0 0m-12 15c0 1.094 6.211 4 9 4 0-1.854 6.781-14 8-14v-1c-3.642 0-3.585-8-9-8 0 6.357-8 11.962-8 19Z"/><path fill="#A8A9AA" id="V3" d="m221 98-1 1 1-1Z"/><path fill="#7DCD4B" id="HPF" d="m239 98 2 2-2-2Z"/><path fill="#C9C7C9" id="ccb" d="m109 99-1 1 1-1Z"/><path fill="#A8AAAA" id="VL" d="M106 130h2c0-2.529-3.577-15 1-15l2-4c0-3.531-1-7.893-1-12h-1l-1 1-1 1-4 6-1 1v1l-1 1v1l-1 1-1 1v1c7.754 0 6 7.942 6 14l1 2Z"/><path fill="#7DCD4B" id="HPF" d="m215 100 1 1v-2l-1 1Z"/><path fill="#A8AAAA" id="VL" d="M349 130h1l2-2c-1.247 0-1.675-8.15-1-9.5 2.484-4.968 2.386-3.5 7-3.5v-1l-1-1-2-3v-1l-1-1c0-1.713-4.88-9-7-9 0 4.311-2 9.853-2 12 2.109 0 2 2.535 2 4 5.243 0 2 11.37 2 15Z"/><path fill="#C9C7C9" id="ccb" d="m108 100-1 1 1-1Z"/><path fill="#A8A9AA" id="V3" d="m237 103-1 2v-5c1.473 0 1 1.952 1 3Z"/><path fill="#1B8063" id="SSs2/3" d="M49 102c0 1.93 1.93 0 0 0Z"/><path fill="#FF8D9F" id="MH" d="M223 131h2l2-5.5c2.095-4.19-2-9.112-2-12.5v-1l-2-2v-1l-1-1-1-2-1-1-2.5-2c-1.885.943 1.122 8-1.5 8 0 3.119-3 5.616-3 8l9 11 1 1ZM231 131h3l1-1c0-4.108 8-6.043 8-11 0-3.171-3-5.383-3-9-2.867 0 1.295-7-3-7l-1 2-1 2-1 1-1 3-1 1-1 1v18Z"/><path fill="#A8A9AA" id="V3" d="m220 105 1 1-1-2v1Z"/><path fill="#1A8061" id="SSs6b" d="M88 112c-3.78 0-11.235 23-13 23 0-3.945 13.022-30 16-30l-2 6-1 1Z"/><path fill="#A8A9AA" id="V3" d="m236 105-1 2 1-2Z"/><path fill="#1A8061" id="SSs6b" d="M387 155h1c0-13.514-9.261-28.022-15-39.5l-7-10.5h-1l3 6c1.953 0 13 22.123 13 26v1l2 2 4 15Z"/><path fill="#039398" id="AUDd4" d="m46 121 5 2c0-1.938 4.212-12 6-12v-1l-3-3c-1.219 0-8 12.146-8 14Z"/><path fill="#C9C7C9" id="ccb" d="m103 107-1 1 1-1Z"/><path fill="#A8A9AA" id="V3" d="m235 107-1 1 1-1Z"/><path fill="#039398" id="AUDd4" d="M405 123h1l4-2-7-14-3 3v1c0 3.91 5 7.393 5 12Z"/><path fill="#A8A9AA" id="V3" d="m222 108 1 1-1-1Z"/><path fill="#C9C7C9" id="ccb" d="m354 108 1 1-1-1ZM102 109l-1 1 1-1Z"/><path fill="#7DCD4B" id="HPF" d="M163 111h2l-1-2-1 1v1Z"/><path fill="#C8CCC7" id="hbc" d="M245 117c0 1.747-.253 2-2 2 0-3.171-3-5.383-3-9 0-2.605 2.524 2 3 2 0 1.424.362 5 2 5Z"/><path fill="#7DCD4B" id="HPF" d="M292 111h1v-1l-1-1v2Z"/><path fill="#C7C8CC" id="alv" d="M157 111h4v-1c-1.321 0-6-.684-6 1h2Z"/><path fill="#C8CCC7" id="hbc" d="m212 118 1 1c0-2.384 3-4.881 3-8 0-2.605-2.524 2-3 2l-1 5Z"/><path fill="#A8A9AA" id="V3" d="m223 110 2 2-2-2Z"/><path fill="#C7C8CC" id="alv" d="M299 111h2c0-1.684-4.679-1-6-1v1h4Z"/><path fill="#C9C7C9" id="ccb" d="M355 110c1.577 0 2 1.762 2 3l-2-3Z"/><path fill="#029398" id="AUDd5" d="M51 123c4.264 0 7.497 4 12 4 0-1.549 1-3.551 1-4.5 0-2.522-4-6.478-4-9l-3-2.5c-1.788 0-6 10.062-6 12Z"/><path fill="#C9C9CA" id="scwm" d="m89 111-1 1 1-1Z"/><path fill="#C9C7C9" id="ccb" d="m101 111-1 1 1-1Z"/><path fill="#CBC8CB" id="fi" d="M122 140h1c0-1.296.825-7 2-7v-2c0-4.004.359-7.217 2-10.5l-2-4.5c-3.634 0-14 .759-14-5l-2 4c0 4.635 1 9.828 1 15v2c0 8.274 4.342 9 11 9l1-1Z"/><path fill="#FE909D" id="LP" d="M181 139c2.583 0 3.934 2 7 2l11-21-5-3h-2l-2-1h-1l-1-1h-3l-2-1h-2l-2-1c-5.018 0-9.423-2-14-2h-8c0 1.579-2.855 1-4 1h-2l-1 1c0 2.798-.697 12-5 12v2l1 9 1 1 2-1c-4.893 0 5.321-14.089 15.5-9 1.618.809 3.355.21 4.5 2.5 1.078 2.156-3 .79-3 2.5 4.937 0 15-.08 15 7Z"/><path fill="#A8A9AA" id="V3" d="m233 111-1 1 1-1Z"/><path fill="#FE909D" id="LP" d="M275 139c-2.16 0-4.167 2-7 2l-10-20c0-2.879 4-1.993 4-4h2l2-1h1l2-1h3l2-1h2l1-1c5.528 0 9.922-2 15-2h7c0 1.579 2.855 1 4 1h3l1 1v8.5l4 3.5v10l-2 2-2-1c6.021 0-5.304-14.098-15.5-9l-4.5 2.5 4 2.5c-4.694 0-15-.436-15 6l-1 1Z"/><path fill="#CBC8CB" id="fi" d="M346 133c0 11.17-6.186 7-12 7 0-4.006-2.144-13.787-4-17.5-1.428-2.856 2-4.553 2-6.5 3.482 0 13 .445 13-5 2.109 0 2 2.535 2 4 0 5.585-1 10.037-1 15v3Z"/><path fill="#C9C9CA" id="scwm" d="m378 136 3 1c0-3.877-11.047-26-13-26l3 12c2.05 0 7 11.104 7 13Z"/><path fill="#029398" id="AUDd5" d="M405 123c-3.843 0-6.746 4-11 4-2.151 0 .545-1.409 0-2.5l-1-3c1.36-2.72 3.648-10.5 7-10.5 0 3.91 5 7.393 5 12Z"/><path fill="#C9C9CA" id="scwm" d="m78 135-3 2v-2c1.765 0 9.22-23 13-23l-2 10c-4.114 0-4.555 13-8 13Z"/><path fill="#C7CACC" id="ccs" d="M98 114h1v-2l-1 2Z"/><path fill="#C9C7C9" id="ccb" d="m100 112-1 1v-1h1Z"/><path fill="#FF8D9F" id="MH" d="M210 115c0 1.238.423 3 2 3l1-5v-1l-2 1-1 1v1Z"/><path fill="#A8A9AA" id="V3" d="m232 112-1 1 1-1Z"/><path fill="#FF8D9F" id="MH" d="m247 115-2 2c-1.638 0-2-3.576-2-5h1l3 3Z"/><path fill="#FE7F84" id="LGd-co" d="M140 127h2c0-1.577 1.762-2 3-2 4.303 0 5-9.202 5-12h-3c-3.806 0-7.751 1-11 1l-2 1c0 1.322-5 5.312-5 11l1 1c2.25 0 3.376 2 5 2 0-1.014 3.959-2 5-2Z"/><path fill="#A8A9AA" id="V3" d="M225 131c1.639 0 2.455 2 3.5 2 .63 0 .688-2 2.5-2v-18l-1.5 2c-2.116 1.058-2.898-2-4.5-2 0 3.388 4.095 8.31 2 12.5l-2 5.5Z"/><path fill="#FE7F84" id="LGd-co" d="M327 127c-2.483 0-4.026 2-6 2 0-1.014-3.959-2-5-2h-1l-4-2-4-3.5V113h2c4.107 0 8.469 1 12 1l1 1h1c0 2.156 5 5.037 5 10l-1 2Z"/><path fill="#C9C7C9" id="ccb" d="m99 114-1 1v-1h1Z"/><path fill="#98D5F9" id="CP" d="M103 195c-1.019 0-6.278 2.389-7.5 3-2.772 1.386-7.269-1-9.5-1-4.859 0-8.934-13-12-13l-1-2v-23l1-2 1-2v-4c1.473 0 1-1.952 1-3 1.473 0 1-1.952 1-3l2-4 1-1 7-14 11-11 1-1c7.754 0 6 7.942 6 14-1.048 0-3-.473-3 1h-1c-5.018 0-7.779 16.942-6 20.5.62 1.238-1.144 5.5 1 5.5 0 5.681 3 10.635 3 16v2c0 .978-1.823 7 1 7 0 1.878 4 7.98 4 14l-1 1ZM353 195l7.5 3c3.028 1.514 7.882-1 10.5-1 0-.857 11-9.398 11-13l1-1c0-1.235-.643-5 1-5l-1-20v-1c-1.473 0-1-1.952-1-3-1.579 0-1-2.855-1-4v-1l-1-1-1-2-2-5v-1l-8-14c0-1.613-8.298-11-11-11-4.614 0-4.516-1.468-7 3.5-.675 1.35-.247 9.5 1 9.5 1.048 0 3-.473 3 1 8.362 0 6 20.782 6 26l-4 17c1.587 0 1.587 6 0 6 0 3.438-2.615 4.729-4 7.5-1.54 3.08 0 6.704 0 9.5Z"/><path fill="#A9AAA8" id="chpl" d="M108 130h2c0-5.172-1-10.365-1-15-4.577 0-1 12.471-1 15Z"/><path fill="#FF8F9D" id="LH" fill-rule="evenodd" d="M201 123c0 1.93 1.93 0 0 0m0 13 4 3c4.803 0 15.685-7 16-7l1-2-9-11-1-1c-1.577 0-2-1.762-2-3h-1l-5 2-4 3c0 2.618-2.514 7.472-1 10.5l2 5.5Z"/><path fill="#FF8F9D" id="LH" d="m256 135-5 4c-3.758 0-16-4.398-16-9 0-4.108 8-6.043 8-11 1.747 0 2-.253 2-2l2-2 6 2 3 3c0 2.412 3.487 5.526 2 8.5l-2 6.5Z"/><path fill="#A9AAA8" id="chpl" d="M347 131h1l1-1c0-3.63 3.243-15-2-15 0 5.585-1 10.037-1 15l1 1Z"/><path fill="#019099" id="AUDv1" d="M24 148h6c0-7.579-.186-18.128 3-24.5l3-6.5-5-1-3 7.5c-2.982 5.964-4 17.565-4 24.5ZM432 148l-5 1v-1c0-6.153-.34-17.18-3-22.5l-4-8.5 6-1c0 8.304 6 20.471 6 32Z"/><path fill="#029198" id="AUDv2/3" d="M38 149h1c0-6.696.233-13.966 3-19.5l4-8.5c-2.789 0-9-2.906-9-4h-1l-3 6.5c-3.186 6.372-3 16.921-3 24.5l8 1ZM427 148c-3.898 0-5.539 1-9 1 0-10.404-7-20.144-7-28 2.659 0 6.5-4 9-4l4 8.5c2.66 5.32 3 16.347 3 22.5Z"/><path fill="#FD8F9D" id="CL" d="m191 167 6 2c0-4.286-6.039-33 4-33l-2-5.5c-1.514-3.028 1-7.882 1-10.5h-1l-11 21c0 4.107-1 8.469-1 12v2l1 1c0 1.923-.156 9 2 9l1 1v1ZM265 167l-6 2c0-4.401 5.352-12.796 3-17.5-1.192-2.383.137-5.725-1-8l-5-8.5 2-6.5c1.487-2.974-2-6.088-2-8.5l2 1 10 20 1 13c0 4.494-3 8.381-3 12l-1 1Z"/><path fill="#029197" id="AUDv4" d="M39 149h5c0-8.997 7-20.18 7-26l-5-2-4 8.5c-2.767 5.534-3 12.804-3 19.5ZM413 149h5c0-10.404-7-20.144-7-28h-1l-4 2c0 8.618 7 17.043 7 26Z"/><path fill="#C7CACC" id="ccs" d="M78 135c0 .671 1.328 5 2 5l7-14-1-4c-4.114 0-4.555 13-8 13Z"/><path fill="#019098" id="AUDv5" d="M44 149h8c0-4.442 4.69-10 6.5-10 1.374 0-.23-3.385 1-4 1.906-.953-.513-5 3.5-5v-3c-4.503 0-7.736-4-12-4 0 5.82-7 17.003-7 26Z"/><path fill="#CCC9C8" id="sm" d="M201 123c0 1.93 1.93 0 0 0Z"/><path fill="#C7CACC" id="ccs" d="m378 136-1 4-8-14 2-3c2.05 0 7 11.104 7 13Z"/><path fill="#019098" id="AUDv5" d="M404 149h9c0-8.957-7-17.382-7-26h-1c-3.843 0-6.746 4-11 4 0 9.403 10 13.611 10 22Z"/><path fill="#FF6F80" id="TH" d="M142 127h3v-2c-1.238 0-3 .423-3 2Z"/><path fill="#FF909D" id="LD" d="m154 135-5 1c-4.893 0 5.321-14.089 15.5-9 1.618.809 3.355.21 4.5 2.5 1.078 2.156-3 .79-3 2.5h-3l-1 1-7 1-1 1ZM291 132c5.587 0 10.85 4 16 4 6.021 0-5.304-14.098-15.5-9l-4.5 2.5 4 2.5Z"/><path fill="#FF6F80" id="TH" d="m315 127-4 1v-3l4 2ZM327 127h1v-2l-1 2ZM129 127h1l-1-1v1Z"/><path fill="#FF8E9F" id="LGv" d="M127 137h2l6-6v-2c-1.624 0-2.75-2-5-2h-1l-1 2-1 7v1Z"/><path fill="#FF6F80" id="TH" d="M135 129v2l5-4c-1.041 0-5 .986-5 2Z"/><path fill="#CBC9C7" id="or" d="M133 149h1l1-1v-1l1-1 1-1 8-6 1-3-1-9h-5l-5 4-6 6c2.029 0 1.881-1.191 3.5-2 2.609-1.304 5.717 4.067 4.5 6.5-1.251 2.502-4 4.49-4 7.5ZM321 147l3 2-5-9.5 4.5-4.5 3.5 2-5-6c-1.178 0-6-2.572-6-4h-1l-4 1v11c1.909 0 10 5.627 10 8Z"/><path fill="#FF6F80" id="TH" d="m321 129 1 2c-1.178 0-6-2.572-6-4 1.041 0 5 .986 5 2Z"/><path fill="#FF8E9F" id="LGv" d="M328 137h2v-2c0-1.564-1-3.876-1-6l-1-2h-1c-2.483 0-4.026 2-6 2l1 2 5 6h1Z"/><path fill="#97D6F9" id="STR" d="m102 131 1 5c6.008 0 3-.649 3-6l-1-2c-1.048 0-3-.473-3 1v2ZM355 131l-2 5c-5.577 0-3-1.183-3-6l2-2c1.048 0 3-.473 3 1v1c-1.186 0-1.186 1 0 1Z"/><path fill="#CBC9C7" id="or" d="M96 155c3.768 0 6.417 1.459 9.5 3 4.649 2.325 9.588-3 13.5-3l4-8-3 2c-1.69 0-11 4.946-11-2-2.445 0-6-9.027-6-11l-1-5-1-2c-5.018 0-7.779 16.942-6 20.5.62 1.238-1.144 5.5 1 5.5Z"/><path fill="#CCC" d="M102 129v2l-1-2h1Z"/><path fill="#CAC7CB" id="fiber tracts" d="m125 133 2 3 1-7-3 2v2ZM329 129c2.495 0 2.852 6 1 6 0-1.564-1-3.876-1-6Z"/><path fill="#CBC9C7" id="or" d="M337 155c3.777 0 9.165 5.168 13.5 3 3.327-1.664 6.427-3 10.5-3 0-5.218 2.362-26-6-26v2l-2 5c0 2.959-3.021 11-6 11 0 3.332-10 6.183-10 2l-4-2 4 8Z"/><path fill="#1C8063" id="SSs5" fill-rule="evenodd" d="M53 148c0 1.93 1.93 0 0 0m2 3h3l4-18c1.473 0 1-1.952 1-3-4.013 0-1.594 4.047-3.5 5-1.23.615.374 4-1 4-1.81 0-6.5 5.558-6.5 10l3 2Z"/><path fill="#CAC7CB" id="fiber tracts" d="m123 147-3 2c0-11.915-8.163-2-11-2-2.445 0-6-9.027-6-11 6.008 0 3-.649 3-6h2l2 2c0 8.274 4.342 9 11 9l1-1h1l3-1v2l-2 5-1 1Z"/><path fill="#C7CAC9" id="fr" d="m223 131-2 1 1-2 1 1ZM251 139c0 4.727-1.622 4-7 4 0-3.453-10-6.78-10-12l1-1c0 4.602 12.242 9 16 9Z"/><path fill="#CAC7CB" id="fiber tracts" d="M347 147c0-3.339-9.512-4.475-11-1.5l1 3.5-4-2v-1l-1-1-2-4v-2l4 1c5.814 0 12 4.17 12-7l1-2h1l1-1h1c0 4.817-2.577 6 3 6 0 2.959-3.021 11-6 11Z"/><path fill="#CCC" d="M355 130c-1.186 0-1.186 1 0 1v-1Z"/><path fill="#FE8F9E" id="PVT" d="M223 149h11l10-6c0-3.453-10-6.78-10-12h-3c-1.812 0-1.87 2-2.5 2-1.045 0-1.861-2-3.5-2h-2l-2 1c0 6.538-9 9.052-9 11 3.736 0 7.086 6 11 6Z"/><path fill="#FE909D" id="LP" d="m163 132-1 1 1-1Z"/><path fill="#FF8E9C" id="PO" d="M187 187c2.203 0 4.569-3.465 7.5-2l1.5 2 3-2c0-3.096-8-11.199-8-18v-1l-1-1c-2.156 0-2-7.077-2-9l-1-1v-2c-1.442 0-6-12.174-6-14 0-7.08-10.063-7-15-7h-3l-1 1-7 1-1 1-5 1-2 1v2c8.578 0 24.398 26.297 29 35.5 2.284 4.568 11 6.301 11 12.5Z"/><path fill="#C7CAC9" id="fr" d="M205 139c0 4.202 2.38 4 7 4 0-1.948 9-4.462 9-11-.315 0-11.197 7-16 7Z"/><path fill="#FF8E9C" id="PO" d="M260 187c.755 0 9-4.339 9 0l4.5-7c13.113-6.557 21.637-41 36.5-41l-1-2-2-1c-5.15 0-10.413-4-16-4-4.694 0-15-.436-15 6l-1 1c0 2.168-4.157 15-6 15 0 4.494-3 8.381-3 12l-1 1c0 8.068-8 15.199-8 18 1.238 0 3 .423 3 2Z"/><path fill="#FE909D" id="LP" d="m155 134-1 1 1-1Z"/><path fill="#1A8061" id="SSs6b" d="m75 137-5 14.5c-.523 1.046.951 3.5-1 3.5 0-3.408 3.373-20 6-20v2Z"/><path fill="#CCC8CA" id="ar" d="M73 161c-2.572 0-.877 15-3 15 0-6.319-1-14.033-1-21 1.951 0 .477-2.454 1-3.5l5-14.5 3-2c0 .671 1.328 5 2 5l-1 1c-2.109 0-2 2.535-2 4 0 1.048.473 3-1 3-1.473 0-1 1.952-1 3-1.473 0-1 1.952-1 3-1.473 0-1 1.952-1 3v4Z"/><path fill="#FD8F9F" id="RT" d="M140 187v2c-3.047 0-4.462-3-7-3 0-2.272-15.306-13-18-13 0-2.014-2.284-5.932-1-8.5l5-9.5 4-8 1-1 2-5 1-2 2-2c2.029 0 1.881-1.191 3.5-2 2.609-1.304 5.717 4.067 4.5 6.5-1.251 2.502-4 4.49-4 7.5l-1 1-5 11.5c-2.787 5.575 8.526 24.5 13 24.5v1Z"/><path fill="#FD909D" id="MD" d="m237 179 6 4c6.201 0 16-7.178 16-14 0-4.401 5.352-12.796 3-17.5-1.192-2.383.137-5.725-1-8l-5-8.5-5 4c0 4.727-1.622 4-7 4l-10 6c0 4.742-4.724 13.053-2 18.5l3 9 2 2.5Z"/><path fill="#FF6F80" id="TH" d="M310 139h1v-4l-2 2 1 2Z"/><path fill="#FD8F9F" id="RT" d="m321 188-5 1 1-3c1.988 0 6-5.237 6-7l2.5-3c4.957-4.957 4.43-16.641 1.5-22.5l-2-2.5-1-1v-1l-5-9.5 4.5-4.5 3.5 2h1v1l1 1 1 2 2 4 1 1v1l4 8 6 11.5c1.465 2.931-2 5.297-2 7.5-7.495 0-13.769 11-17 11l-1 1-1 1-1 1Z"/><path fill="#FF6F80" id="TH" d="M145 139h2v-2l-1-1-1 3Z"/><path fill="#FD909D" id="MD" d="m220 179-7 4c-5.804 0-16-7.31-16-14 0-4.286-6.039-33 4-33l4 3c0 4.202 2.38 4 7 4 3.736 0 7.086 6 11 6l2 15.5c-.699 1.398-5 13.72-5 14.5Z"/><path fill="#CCC8CA" id="ar" d="M383 158c1.614 0 1 3.31 1 4.5 0 1.254 1.27 13.5 2 13.5 0-6.228 1-14.097 1-21l-4-15-2-2v-1l-3-1-1 4v1c2.184 0 3.749 5 2 5l1 2 1 1v1l2 4v4Z"/><path fill="#FF6F80" id="TH" d="m129 137-2 2v-2h2ZM330 139v2l-1-2-1-1v-1h2v2Z"/><path fill="#FD8F9C" id="Eth" d="m276 138-1 1 1-1Z"/><path fill="#CBC9C7" id="or" d="m328 138 1 1-1-1Z"/><path fill="#C9C9CA" id="scwm" d="m381 138 2 2-2-2Z"/><path fill="#FF6F80" id="TH" d="m127 139-1 2v-2h1Z"/><path fill="#FF7E83" id="VPM" d="M166 196h11l2-1 2-1 2-1 2-1 1-1 1-2v-2c0-6.199-8.716-7.932-11-12.5-4.602-9.203-20.422-35.5-29-35.5h-2l-8 6-1 1-1 1v1l-1 1-1 1-2 7 7 8.5c5.49 5.49 23.197 30.5 28 30.5Z"/><path fill="#FD8F9C" id="Eth" d="M188 141c0 4.107-1 8.469-1 12-1.442 0-6-12.174-6-14 2.583 0 3.934 2 7 2ZM268 141l1 13c1.843 0 6-12.832 6-15-2.16 0-4.167 2-7 2Z"/><path fill="#FF7E83" id="VPM" d="m269 189 8.5 6c4.481 2.24 8.026 1 12.5 1 3.473 0 7.492-4.992 10-7.5 2.137-2.137 25-32.367 25-32.5 0-3.65-4-6.136-4-9 0-2.373-8.091-8-10-8h-1c-14.863 0-23.387 34.443-36.5 41l-4.5 7v2Z"/><path fill="#019098" id="AUDv5" d="M399 140c0 1.93 1.93 0 0 0Z"/><path fill="#C7CACC" id="ccs" d="M79 141c-2.109 0-2 2.535-2 4l2-4ZM377 141c2.184 0 3.749 5 2 5l-2-5Z"/><path fill="#019098" id="AUDv5" d="M400 142c0 1.93 1.93 0 0 0Z"/><path fill="#C8CBC7" id="st" d="M109 147c2.837 0 11-9.915 11 2-1.69 0-11 4.946-11-2ZM347 147c0 3.332-10 6.183-10 2l-1-3.5c1.488-2.975 11-1.839 11 1.5Z"/><path fill="#C7CACA" id="em" d="m137 145-1 1 1-1Z"/><path fill="#CBC9C7" id="or" d="m332 145 1 1-1-1ZM124 146l-1 1 1-1Z"/><path fill="#C7CACA" id="em" d="m136 146-1 1 1-1ZM325 156c1.995 0 2 4.377 2 6 0 8.284-4 13.355-4 17l2.5-3c4.957-4.957 4.43-16.641 1.5-22.5l-2-2.5-1-1v-1l-3-2c0 2.864 4 5.35 4 9Z"/><path fill="#15B0B3" id="TEa1" d="m31 178-6 1-1-31h6c0 9.92 1 20.748 1 30Z"/><path fill="#16AFB3" id="TEa2/3" d="m40 177-9 1c0-9.252-1-20.08-1-30l8 1c0 9.981 2 18.671 2 28Z"/><path fill="#019098" id="AUDv5" d="M53 148c0 1.93 1.93 0 0 0Z"/><path fill="#C9C7C9" id="ccb" d="M76 148c-1.473 0-1 1.952-1 3 1.473 0 1-1.952 1-3Z"/><path fill="#C7CACA" id="em" d="m135 148-1 1 1-1Z"/><path fill="#C9C7C9" id="ccb" d="m380 148 1 1-1-1Z"/><path fill="#16AFB3" id="TEa2/3" d="m416 177 10 1 1-29v-1c-3.898 0-5.539 1-9 1 0 3.202 2.735 9.03 1 12.5-1.883 3.766-3 11.205-3 15.5Z"/><path fill="#15B0B3" id="TEa1" d="m426 178 5 1 1-31-5 1-1 29Z"/><path fill="#15B0B2" id="TEa4" d="M40 177h3c0-9.221 1-19.461 1-28h-6c0 9.981 2 18.671 2 28Z"/><path fill="#15AFB3" id="TEa5" d="M43 177h14v-16c-2.263 0-2-8.046-2-10l-3-2h-8c0 8.539-1 18.779-1 28Z"/><path fill="#CBC9C7" id="or" d="M132 150h1v-1l-1 1Z"/><path fill="#C7CACA" id="em" d="m134 149-1 1v-1h1Z"/><path fill="#FE909F" id="IMD" d="M220 179c3.138 0 8.309-4.096 12.5-2l4.5 2-2-2.5-3-9c-2.724-5.447 2-13.758 2-18.5h-11l2 15.5c-.699 1.398-5 13.72-5 14.5Z"/><path fill="#15AFB3" id="TEa5" d="M413 177h1l-1-28h-9c0 1.577-1.762 2-3 2 0 2.19 1.038 10-1 10v16h13Z"/><path fill="#15B0B2" id="TEa4" d="M414 177h2c0-4.295 1.117-11.734 3-15.5 1.735-3.47-1-9.298-1-12.5h-5l1 28Z"/><path fill="#C7CACA" id="em" d="M131 157c-1.792 0-2.993 9.515-2 11.5l6 12c.64 1.279 5 3.232 5 5.5-4.474 0-15.787-18.925-13-24.5l5-11.5h1l-2 7Z"/><path fill="#CBC9C7" id="or" d="m324 150 1 1-1-1Z"/><path fill="#C9C7C9" id="ccb" d="M382 154h1l-2-4c0 1.145-.579 4 1 4Z"/><path fill="#12AD82" id="VISC5" d="M58 152c0 2.389-1 5.987-1 9-2.263 0-2-8.046-2-10h3v1Z"/><path fill="#C9C7C9" id="ccb" d="m74 154 1 1v-4c-1.473 0-1 1.952-1 3Z"/><path fill="#11AC83" id="VISC6a" d="M387 189h10l1-2c-1.745 0-8-5.555-8-6.5 0-.949 1-2.951 1-4.5l-2-1.5 2-2-2-1c-1.117-2.235 7.771-10.5 10-10.5v-10h-1c0 .956-8.939 4-10 4 0 11.432-1 21.982-1 34Z"/><path fill="#12AD82" id="VISC5" d="M399 161h1c2.038 0 1-7.81 1-10h-2v10Z"/><path fill="#11AC83" id="VISC6a" d="M57 161c3.348 0 8.63 6.759 10 9.5l-2 3 3 .5v-19c0-1.516-8.357-3-10-3 0 2.389-1 5.987-1 9Z"/><path fill="#C7CACC" id="ccs" d="M73 157h1l1-2-1-1c-1.473 0-1 1.952-1 3ZM383 154v3c-1.473 0-1-1.952-1-3h1Z"/><path fill="#11AD82" id="VISC6b" d="M70 189h1v-2l-1-11c0-6.319-1-14.033-1-21h-1v20c.718 0 2 12.72 2 14Z"/><path fill="#CCC8CA" id="ar" d="m101 174 1 2c1.416 0 13-.831 13-3 0-2.014-2.284-5.932-1-8.5l5-9.5c-3.912 0-8.851 5.325-13.5 3-3.083-1.541-5.732-3-9.5-3 0 5.681 3 10.635 3 16l2 3Z"/><path fill="#FD8F9C" id="Eth" d="m187 155 1 1-1-1Z"/><path fill="#CCC8CA" id="ar" d="m355 176-1 1c-4.759 0-8.057-3-13-3 0-2.203 3.465-4.569 2-7.5l-6-11.5c3.777 0 9.165 5.168 13.5 3 3.327-1.664 6.427-3 10.5-3l-4 17v1l-1 1-1 1v1Z"/><path fill="#11AD82" id="VISC6b" d="M386 189h1c0-12.018 1-22.568 1-34h-1c0 6.903-1 14.772-1 21v13Z"/><path fill="#FD8084" id="VPL" d="M290 196c0 2.698.331 2 4 2 6.144 0 11.256-7 17-7l1-1 4-4c0-1.766 5.833-7 7-7 0-3.645 4-8.716 4-17 0-1.623-.005-6-2-6 0 .133-22.863 30.363-25 32.5-2.508 2.508-6.527 7.5-10 7.5Z"/><path fill="#C8CBCC" id="ec" d="m74 157-1 2v-2h1Z"/><path fill="#FD8084" id="VPL" d="M166 196c0 2.698-.331 2-4 2-6.529 0-11.994-8-18-8l-4-3v-1c0-2.268-4.36-4.221-5-5.5l-6-12c-.993-1.985.208-11.5 2-11.5l7 8.5c5.49 5.49 23.197 30.5 28 30.5Z"/><path fill="#C8CBCC" id="ec" d="m383 187 3 1v-12c-.73 0-2-12.246-2-13.5 0-1.19.614-4.5-1-4.5l1 20c0 1.235.643 5-1 5v4Z"/><path fill="#15AFB2" id="TEa6a" d="m66 176-9 1v-16c3.348 0 8.63 6.759 10 9.5l-2 3 3 .5v1l-2 1Z"/><path fill="#C8CBCC" id="ec" d="M71 187h2v-26c-2.572 0-.877 15-3 15l1 11Z"/><path fill="#15AFB2" id="TEa6a" d="M399 177h1v-16h-1c-2.229 0-11.117 8.265-10 10.5l2 1-2 2 2 1.5 8 1Z"/><path fill="#FE8D9F" id="PCN" d="m190 165 1 1-1-1ZM266 166l-1 1 1-1ZM206 189l7 1v-7c-5.804 0-16-7.31-16-14l-6-2c0 6.801 8 14.904 8 18l2 2c1.238 0 3 .423 3 2h2ZM243 190h5l2-1h2l4-2 1-2c0-2.801 8-9.932 8-18l-6 2c0 6.822-9.799 14-16 14v7Z"/><path fill="#CCC" d="M100 174h1l-2-3v2l1 1Z"/><path fill="#97D6F9" id="STR" d="M357 174v4c1.587 0 1.587-6 0-6v2ZM100 174v6c-2.823 0-1-6.022-1-7l1 1Z"/><path fill="#CCC" d="m121 195 2 3 5 5.5 15 18c3.097 6.193 20.19 22.62 25 13 1.8-3.601-6.47-11.985-9.5-13.5-9.033-4.516-13.281-16.062-17.5-24.5l-8-10.5c0-2.272-15.306-13-18-13 0 2.169-11.584 3-13 3l2 3 12 10.5 3 3.5 2 2ZM356 174h1v-1l-1 1Z"/><path fill="#8598CC" id="GPe" d="m106 192-2 2c0-6.02-4-12.122-4-14v-6h1l1 2 2 3c0 4.112 3 6.336 3 12l-1 1Z"/><path fill="#CCC" d="M333 199c-1.187 0-15.767 17.035-17 19.5-1.304 2.608-5 3.297-5 6.5-3.053 0-10.977 10.738-15.5 13-5.365 2.683-8.039-5.423-6.5-8.5l20-19c2.437-4.873 4.559-10.119 7-15 1.266-2.532 5-4.524 5-7.5l1-1 1-1 1-1c3.231 0 9.505-11 17-11 4.943 0 8.241 3 13 3l-1 2-1 1c-1.046 0-17 14.243-17 16l-1 1-1 1v1ZM356 174l-1 1 1-1Z"/><path fill="#8598CC" id="GPe" d="m349 190 4 5c0-2.796-1.54-6.42 0-9.5 1.385-2.771 4-4.062 4-7.5v-4h-1l-1 1v1l-1 1-1 2-1 1c0 1.585-5.63 10-3 10Z"/><path fill="#11AC83" id="VISC6a" d="M59 189h11c0-1.28-1.282-14-2-14l-2 1c0 3.891-2.974 11-7 11v2Z"/><path fill="#0E9F91" id="ECT6a" d="M58 187h1c4.026 0 7-7.109 7-11l-9 1 1 10Z"/><path fill="#CCC" d="m355 176-1 1 1-1Z"/><path fill="#0E9F91" id="ECT6a" d="M399 177c0 3.51-1 7.022-1 10-1.745 0-8-5.555-8-6.5 0-.949 1-2.951 1-4.5l8 1Z"/><path fill="#0D9F91" id="ECT2/3" d="M46 194c0 .873-8.397 1-11 1l-4-17 9-1h3c0 6.214 3 11.271 3 17Z"/><path fill="#0D9E90" id="ECT5" d="m47 194 3 1c1.562 0 4.286-6 7-6l1-2-1-10H43c0 6.214 3 11.271 3 17h1Z"/><path fill="#FD8E9E" id="CM" d="M234 190h9v-7l-6-4-4.5-2c-4.191-2.096-9.362 2-12.5 2l-7 4v7c2.389 0 5.987 1 9 1 0-2.461 3.378-2 5-2h2c1.235 0 5-.643 5 1Z"/><path fill="#0D9E90" id="ECT5" d="m410 194-4 1c0-2.225-5.366-6-7-6l-1-2c0-2.978 1-6.49 1-10h14c0 6.294-3 11.653-3 17Z"/><path fill="#0D9F91" id="ECT2/3" d="M410 195h11c0-5.552 5-11.611 5-17l-10-1h-3c0 6.294-3 11.653-3 17v1Z"/><path fill="#0D9F90" id="ECT1" d="M35 195c-2.124 0-4.436 1-6 1-3.063 0-1-7.407-1-9 0-3.45-3-4.946-3-8l6-1 4 17Z"/><path fill="#97D6F9" id="STR" d="M384 178c-1.643 0-1 3.765-1 5 1.643 0 1-3.765 1-5Z"/><path fill="#0D9F90" id="ECT1" d="M421 195c3.145 0 4.833 1 7 1 0-1.29-.456-9.588 0-10.5 1.218-2.435 3-3.466 3-6.5l-5-1c0 5.389-5 11.448-5 17Z"/><path fill="#8599CC" id="PAL" d="M120 207c0 1.429 3.939 4 5 4 0-3.295-4.86-6 0-6l-2-7-2-3-2-2-3-3.5-12-10.5c0 4.112 3 6.336 3 12h1c7.042 0 12 8.868 12 16Z"/><path fill="#C7CACA" id="em" d="M316 186h1c1.988 0 6-5.237 6-7-1.167 0-7 5.234-7 7Z"/><path fill="#8599CC" id="PAL" d="m353 179-1 1 1-1ZM332 211h1l4-4c0-3.9 1.801-10.301 4.5-13 .737-.737 7.5-5.787 7.5-2h1l-1-2c-2.63 0 3-8.415 3-10-1.046 0-17 14.243-17 16l-1 1-1 1v1l-2 6c4.044 0 1 2.386 1 6Z"/><path fill="#97D6F9" id="STR" d="M73 184h1l-1-2v2ZM382 184h1v-1l-1 1Z"/><path fill="#90EB8D" id="LA" d="M83 244c0 1.417 2.383 6 4 6l-2-4.5c-3.131-6.262 1.674-17.349 4-22 .46-.919-.765-2.5 1-2.5 0-7.942 7.475-4 9-4v-2l-3-5.5c-2.279-4.557-10-7.021-10-12.5-4.859 0-8.934-13-12-13h-1v3c0 15.643 6 26.816 6 43v1c.13 0 4 11.974 4 13ZM374 243c0 1.664-1.823 6-4 6 0-4.106 2.516-28-4-28 0-5.267-4.89-5-8-5v-2l2.5-4 10.5-13c0-.857 11-9.398 11-13h1v3c0 16.738-6 28.937-6 46v1c-1.663 0-2 5.407-2 7v1l-1 1Z"/><path fill="#FD7E84" id="VAL" d="M187 189v2c2.546 0 5.725-3 9-3v-1l-1.5-2c-2.931-1.465-5.297 2-7.5 2v2Z"/><path fill="#FF6F80" id="TH" d="M196 188h4l1-1-2-2-3 2v1ZM257 188h3v-1c0-1.577-1.762-2-3-2l-1 2 1 1Z"/><path fill="#FD7E84" id="VAL" d="M269 189v1c-3.157 0-5.481-2-9-2v-1c.755 0 9-4.339 9 0v2Z"/><path fill="#CAC7CB" id="fiber tracts" d="m324 185-1 1 1-1ZM164 251c0 5.055-2.096 3-5 3 0-2.483-2-4.026-2-6 3.517 0 1.713-5.074 0-8.5L133.5 213c-2.154-2.154-5.273-8-8.5-8l-2-7 5 5.5 15 18c3.097 6.193 20.19 22.62 25 13 1.8-3.601-6.47-11.985-9.5-13.5-9.033-4.516-13.281-16.062-17.5-24.5l-8-10.5c2.538 0 3.953 3 7 3l3 2 1 2c0 1.775.069 8 2 8 0 6.902 16.77 24 23 24l2 1v1l1 1v10c-12.125 0-8 6.658-8 13Z"/><path fill="#FF6F80" id="TH" d="m312 190 1 1c2.215 0 1.519-2 3-2l1-3h-1l-4 4Z"/><path fill="#CAC7CB" id="fiber tracts" d="m323 186-1 1 1-1Z"/><path fill="#12AD82" id="VISC5" d="M57 189h2v-2h-1l-1 2Z"/><path fill="#C8C9CB" id="amc" d="M78 230h1c0-16.184-6-27.357-6-43h-2v2c0 5.307 2 9.324 2 14l3 7.5c2.377 4.754 2 13.928 2 19.5Z"/><path fill="#FF6F80" id="TH" d="m144 190-1 1-3-2v-2l4 3Z"/><path fill="#FE8082" id="VPMpc" d="m200 188 4 1c0-1.577-1.762-2-3-2l-1 1ZM257 188l-5 1 4-2 1 1Z"/><path fill="#CAC7CB" id="fiber tracts" d="m322 187-1 1 1-1Z"/><path fill="#C8C9CB" id="amc" d="m378 231-1 2c0-17.063 6-29.262 6-46l3 1v5c-.981 0-2 7.758-2 9l-1 1-2 4.5c-2.062 4.124-3 18.398-3 23.5Z"/><path fill="#12AD82" id="VISC5" d="M397 189h2l-1-2-1 2Z"/><path fill="#FF7E84" id="VM" d="m194 214 7 1c0-7.095 3.545-5 8-5h3l1-1 1-1 1-1v-12l-5-4h-2l-1-1h-1l-1-1h-1l-4-1h-4c-3.275 0-6.454 3-9 3h-1l-1 1-2 1-2 1-2 1-2 1c0 4.491-8 2.052-8 6l11 6 1 1h1l1 1h1l1 1 9 3ZM262 214l-7 1c0-8.348-.91-5-7-5l-4-1-2-1-2-4.5 1-8.5c1.429 0 4-1.288 4-3l2-1h1l1-1h1l1-1h1l5-1h3c3.519 0 5.843 2 9 2 0 3.375 18 8.575 18 12l-7 4-1 1h-1l-1 1-3 1-1 1-11 4Z"/><path fill="#CAC7CB" id="fiber tracts" d="M292 252c0 4.258 3.133 2 5 2l2-5c-4.321 0-.871-4.758 0-6.5 1.509-3.018 12-15.951 12-17.5-3.053 0-10.977 10.738-15.5 13-5.365 2.683-8.039-5.423-6.5-8.5l20-19c2.437-4.873 4.559-10.119 7-15 1.266-2.532 5-4.524 5-7.5l-5 1c-1.481 0-.785 2-3 2v1c0 2.157-.46 9-3 9 0 7.248-15.553 24-23 24l-2 2-1 11c12.871 0 8 7.253 8 14Z"/><path fill="#219864" id="AIp5" d="M51 205h1c1.105 0 9-3.877 9-1l3-1 1-2c-1.591 0-6-10.425-6-12h-2c-2.714 0-5.438 6-7 6l-1 4 2 6Z"/><path fill="#209766" id="AIp6a" d="m67 201 5 1c0-3.879-2-8.27-2-13H59c0 1.575 4.409 12 6 12h2Z"/><path fill="#219666" id="AIp6b" d="m72 202 1 1c0-4.676-2-8.693-2-14h-1c0 4.73 2 9.121 2 13Z"/><path fill="#FF6F80" id="TH" d="M186 191h1v-2l-1 2Z"/><path fill="#FE8082" id="VPMpc" d="M206 189v1l-1-1h1Z"/><path fill="#FF6F80" id="TH" fill-rule="evenodd" d="M226 214h4c6.382 0 7.903-14.298 2.5-17-1.619-.81-3.001 1-4 1-1.184 0-3.175-1.913-5-1-5.153 2.577-3.984 17 2.5 17m-16 0c9.237 0 16.659 4.92 24.5 1 1.487-.743 8.5 1.308 8.5-1-3.967 0-9.496-6.502-6.5-8l5.5 2-2-4.5 1-8.5c-6.936 0 1.434-3 4-3l2-1h1v-1h-14c0 1.631-5 2.741-5-1h-2c0 4.42-1.771 2-5 2-3.013 0-6.611-1-9-1l-7-1v1h1l1 1h2c2.629 0 14.159 4 5 4v12l4.5-1c3.794 1.897-5.244 13.011-8.5 6.5l1-2.5h-3l1 4Z"/><path fill="#FF8E9E" id="RH" d="M227 189c-1.622 0-5-.461-5 2 3.229 0 5 2.42 5-2ZM229 189c1.235 0 5-.643 5 1 0 1.631-5 2.741-5-1Z"/><path fill="#FF6F80" id="TH" d="M249 190h1v-1l-2 1h1Z"/><path fill="#FE8082" id="VPMpc" d="m251 189-1 1v-1h1Z"/><path fill="#FF6F80" id="TH" d="m294 198-7 4c0-3.425-18-8.625-18-12v-1l8.5 6c4.481 2.24 8.026 1 12.5 1 0 2.698.331 2 4 2Z"/><path fill="#219666" id="AIp6b" d="M387 189c0 1.048.473 3-1 3v-3h1Z"/><path fill="#209766" id="AIp6a" d="m390 201 2 1c0-4.244 5-8.499 5-13h-10c0 1.048.473 3-1 3v1c0 2.707-1 5.903-1 8h5Z"/><path fill="#219864" id="AIp5" d="M395 204c2.914 0 6.901 1 10 1l2-5-1-5c0-2.225-5.366-6-7-6h-2c0 4.501-5 8.756-5 13l3 2Z"/><path fill="#F0483B" id="ZI" d="m177 219 12 1c6.28 0 5-1.81 5-6l-9-3-1-1h-1l-1-1h-1l-1-1-11-6-7-4c-6.529 0-11.994-8-18-8l-1 1 1 2 15 16c4.015 0 6.81 6 10 6l8 4Z"/><path fill="#FE8082" id="VPMpc" d="m207 190 1 1-1-1ZM249 190l-1 1v-1h1Z"/><path fill="#FF6F80" id="TH" d="m312 190-1 1 1-1Z"/><path fill="#F0483B" id="ZI" d="m279 219-12 1c-6.201 0-5-1.666-5-6l11-4 1-1 3-1 1-1h1l1-1 7-4 7-4c6.144 0 11.256-7 17-7l1-1 1 1v1l-9 11-1 1-1 1h-1l-2 2-2 2c-4.165 0-6.712 6-10 6l-1 1-1 1c-2.483 0-4.026 2-6 2Z"/><path fill="#97D6F9" id="STR" d="M350 207c3.475 0 8 3.376 8 7l2.5-4 10.5-13c-2.618 0-7.472 2.514-10.5 1l-7.5-3-4-5 1 2-1 1c0 4.487-7 7.441-7 11l1 1c2.765 0 5.165 2 7 2Z"/><path fill="#8599CC" id="PAL" d="M106 192h1v-1l-1 1Z"/><path fill="#CAC7CB" id="fiber tracts" d="m108 191-1 1v-1h1Z"/><path fill="#C8CBC7" id="st" d="m120 207-1 1-5-4c0-4-7-7.136-7-12l1-1c7.042 0 12 8.868 12 16Z"/><path fill="#FF6F80" id="TH" d="m186 191-1 1 1-1Z"/><path fill="#FE8082" id="VPMpc" d="M210 191c2.629 0 14.159 4 5 4l-5-4ZM247 191l-2 1 2-1Z"/><path fill="#C8CBC7" id="st" d="M337 207v1c2.813 0 3.461-4 5-4 0-3.559 7-6.513 7-11v-1c0-3.787-6.763 1.263-7.5 2-2.699 2.699-4.5 9.1-4.5 13Z"/><path fill="#97D6F9" id="STR" d="M106 207c-4.019 0-7 4.219-7 8l-3-5.5c-2.279-4.557-10-7.021-10-12.5 2.231 0 6.728 2.386 9.5 1 1.222-.611 6.481-3 7.5-3l1-1 2-2h1c0 4.864 7 8 7 12l-1 1c-2.765 0-5.165 2-7 2Z"/><path fill="#FF6F80" id="TH" d="m185 192-2 1 2-1Z"/><path fill="#FE8082" id="VPMpc" d="M245 192c-2.566 0-10.936 3-4 3 1.429 0 4-1.288 4-3Z"/><path fill="#E64438" id="HY" d="M310 201c0-1.834-4.583 2-6 2l9-11c0 2.157-.46 9-3 9Z"/><path fill="#CAC7CB" id="fiber tracts" d="m350 192-1 1v-1h1ZM119 193l2 2-2-2Z"/><path fill="#E64438" id="HY" d="M146 201c0-2.969 11.798 8 13 8l-15-16c0 1.775.069 8 2 8Z"/><path fill="#FF6F80" id="TH" d="m183 193-2 1 2-1Z"/><path fill="#219666" id="AIp6b" d="m385 201-1 1c0-1.242 1.019-9 2-9 0 2.707-1 5.903-1 8Z"/><path fill="#0E9583" id="PERI2/3" d="m45 207-5 2c0-4.296-5-9.073-5-14 2.603 0 11-.127 11-1h1l1 5c0 3.1-3 3.642-3 8Z"/><path fill="#0F9684" id="PERI5" d="M48 199h1l1-4-3-1 1 5Z"/><path fill="#8598CC" id="GPe" d="m104 194-1 1 1-1Z"/><path fill="#FF6F80" id="TH" d="m181 194-2 1 2-1Z"/><path fill="#0F9684" id="PERI5" d="m408 199-1 1-1-5 4-1v1l-2 4Z"/><path fill="#0E9583" id="PERI2/3" d="M416 209h1c0-4.981 4-8.553 4-14h-11l-2 4 4 8 4 2Z"/><path fill="#0E9584" id="PERI1" d="m40 209-5 1c0-4.679-6-8.635-6-14 1.564 0 3.876-1 6-1 0 4.927 5 9.704 5 14Z"/><path fill="#FF6F80" id="TH" d="m179 195-2 1 2-1Z"/><path fill="#0E9584" id="PERI1" d="m417 209 4 1c1.962 0 7-11.832 7-14-2.167 0-3.855-1-7-1 0 5.447-4 9.019-4 14Z"/><path fill="#FF6F80" id="TH" d="m162 198 7 4c0-3.948 8-1.509 8-6h-11c0 2.698-.331 2-4 2Z"/><path fill="#CAC7CB" id="fiber tracts" d="m335 196-1 1 1-1Z"/><path fill="#FD909F" id="RE" d="M226 214c-6.484 0-7.653-14.423-2.5-17 1.825-.913 3.816 1 5 1 .999 0 2.381-1.81 4-1 5.403 2.702 3.882 17-2.5 17 0-16.285-4-15.068-4 0Z"/><path fill="#CAC7CB" id="fiber tracts" d="m334 197-1 1 1-1Z"/><path fill="#209865" id="AIp2/3" d="m51 205-6 2c0-4.358 3-4.9 3-8h1l2 6Z"/><path fill="#CAC7CB" id="fiber tracts" d="M331 205c-5.209 0-14.893 20-20 20 0-3.203 3.696-3.892 5-6.5 1.233-2.465 15.813-19.5 17-19.5l-2 6Z"/><path fill="#209865" id="AIp2/3" d="M411 207h1l-4-8-1 1-2 5 6 2Z"/><path fill="#F1473B" id="STN" d="m170 224-1 1c-6.23 0-23-17.098-23-24 0-2.969 11.798 8 13 8 0 4.095 11 8.837 11 15ZM286 224l1 1c7.447 0 23-16.752 23-24 0-1.834-4.583 2-6 2l-1 1-1 1h-1c0 1.747-.253 2-2 2 0 1.747-.253 2-2 2 0 4.931-11 9.059-11 15Z"/><path fill="#C9C8CA" id="ee" d="M69 226v1l2 .5c.902-1.804-3.192-7.383-4-9-1.966-3.932-1-11.748-1-15.5l1-1v-1h-2l-1 2v10c0 3.727 3 6.314 3 10l1 1v1l1 1Z"/><path fill="#A0EE9C" id="EPd" d="M78 230c0 5.969-5.194 1-7 1l-2-4 2 .5c.902-1.804-3.192-7.383-4-9-1.966-3.932-1-11.748-1-15.5l1-1v-1l5 1 1 1 3 7.5c2.377 4.754 2 13.928 2 19.5Z"/><path fill="#FC8F9F" id="Xi" d="M226 214h4c0-16.285-4-15.068-4 0Z"/><path fill="#A0EE9C" id="EPd" d="M378 231c1.602 0 2.384 3.058 4.5 2l2.5-2 1-2c-2.836 0 1-6.971 1-2l1-2c-2.624 0 1.456-7.411 2-8.5 1.809-3.618 0-10.551 0-14.5l-1-1h-4l-1 1-1 1-2 4.5c-2.062 4.124-3 18.398-3 23.5Z"/><path fill="#C9C8CA" id="ee" d="m389 224-1 1c-2.624 0 1.456-7.411 2-8.5 1.809-3.618 0-10.551 0-14.5v-1l2 1c0 2.124 1 4.436 1 6l-1 6c0 3.686-3 6.177-3 10Z"/><path fill="#219666" id="AIp6b" d="m384 202-1 1 1-1Z"/><path fill="#32B824" id="ENTl6a" d="M393 208h1l1-4-3-2c0 2.124 1 4.436 1 6Z"/><path fill="#31B824" id="ENTl5" d="M62 209c-2.16 0-4.167 2-7 2l-3-6c1.105 0 9-3.877 9-1l1 5Z"/><path fill="#32B824" id="ENTl6a" d="m64 208-2 1-1-5 3-1v5Z"/><path fill="#E64438" id="HY" d="m304 203-1 1 1-1Z"/><path fill="#31B824" id="ENTl5" d="M394 209c2.709 0 4.646 2 8 2l3-6c-3.099 0-7.086-1-10-1l-1 4v1Z"/><path fill="#7FC0E0" id="CEAm" d="m127 237-2 2c-4.197 0-6.644-8-12-8l-1-2c2.393 0 3-3.234 3-5 0-1.828 3.863-19-2-19l1-1 5 4 3 4c0 8.966 5 16.294 5 25Z"/><path fill="#CACCCB" id="opt" d="M127 214c0 6.495 30 28.793 30 34 3.517 0 1.713-5.074 0-8.5L133.5 213c-2.154-2.154-5.273-8-8.5-8-4.86 0 0 2.705 0 6v1l2 2Z"/><path fill="#E64438" id="HY" d="m303 204-1 1 1-1Z"/><path fill="#CACCCB" id="opt" d="M299 248v1c-4.321 0-.871-4.758 0-6.5 1.509-3.018 12-15.951 12-17.5 5.107 0 14.791-20 20-20 4.044 0 1 2.386 1 6l-1 1v1l-1 1-5.5 7-19 19-5.5 7-1 1Z"/><path fill="#7FC0E0" id="CEAm" d="m330 237 2 2c4.056 0 6.027-8 11-8l1-2-3-6c0-2.383-2.464-18 2-18l-1-1c-1.539 0-2.187 4-5 4l-2 5c0 8.007-5 15.288-5 24Z"/><path fill="#32B725" id="ENTl3" d="m55 211-8 2-2-6 6-2h1l3 6Z"/><path fill="#80BEE1" id="CEAl" d="M106 207c0 5.827 1.434 17 9 17 0-1.828 3.863-19-2-19-2.765 0-5.165 2-7 2Z"/><path fill="#E64438" id="HY" d="m301 205-2 2c1.747 0 2-.253 2-2Z"/><path fill="#80BEE1" id="CEAl" d="M350 207c0 6.311-1.052 16-9 16 0-2.383-2.464-18 2-18 2.765 0 5.165 2 7 2Z"/><path fill="#32B725" id="ENTl3" d="m402 211 7 2c0-1.974 2-3.517 2-6l-6-2-3 6Z"/><path fill="#FD909C" id="PR" d="m213 209-1 1-1 2.5c3.256 6.511 12.294-4.603 8.5-6.5l-4.5 1-1 1-1 1ZM243 214h1v-5l-2-1-5.5-2c-2.996 1.498 2.533 8 6.5 8Z"/><path fill="#FF6F80" id="TH" d="m280 206-1 1 1-1Z"/><path fill="#32B825" id="ENTl2" d="M47 213c0 2.461-3.378 2-5 2l-2-6 5-2 2 6Z"/><path fill="#80BFE0" id="CEAc" d="m110 228 2 1c2.393 0 3-3.234 3-5-7.566 0-9-11.173-9-17-4.019 0-7 4.219-7 8v2h1c2.488 0 10 9.382 10 11Z"/><path fill="#97D6F9" id="STR" d="M122 212h3v-1c-1.061 0-5-2.571-5-4l-1 1 3 4Z"/><path fill="#FF6F80" id="TH" d="m215 207-1 1 1-1ZM278 207l-1 1 1-1Z"/><path fill="#E64438" id="HY" d="m299 207-2 2c1.747 0 2-.253 2-2Z"/><path fill="#97D6F9" id="STR" d="m333 211 2 2 2-5v-1l-4 4Z"/><path fill="#80BFE0" id="CEAc" d="M344 229h1l2-2c0-1.747.253-2 2-2l1-1 1-1c0-1.747.253-2 2-2 0-2.226 1.774-4 4-4l1-1v-2c0-3.624-4.525-7-8-7 0 6.311-1.052 16-9 16l3 6Z"/><path fill="#32B825" id="ENTl2" d="M409 213c0 1.995 4.377 2 6 2l1-6-4-2h-1c0 2.483-2 4.026-2 6Z"/><path fill="#8AD987" id="CTXsp" d="m62 209 2 4v-5l-2 1Z"/><path fill="#FF6F80" id="TH" d="m180 208 1 1-1-1ZM214 208l-1 1 1-1Z"/><path fill="#8AD987" id="CTXsp" d="M394 209c0 1.041-.986 5-2 5l1-6h1v1Z"/><path fill="#32B722" id="ENTl1" d="m42 215-3 2-4-7 5-1 2 6Z"/><path fill="#6ACAB9" id="PIR" d="m88 276-9 17c-4.334 0-10.39-12.282-12-15.5-2.844-5.688-7.178-10.356-10-16-4.115-8.23-5.9-17.801-10-26L39 217l3-2c1.622 0 5 .461 5-2l8-2c2.833 0 4.84-2 7-2l2 4c0 3.727 3 6.314 3 10l1 1v1l1 1v1l2 4 4 7c0 7.376 6.81 16.121 10 22.5.695 1.39 2.272 8.5 4 8.5v6l-1 1Z"/><path fill="#CCCACB" id="nst" d="m170 224 1 1c3.495 0 3-2.189 3-4l-5-6c-3.19 0-5.985-6-10-6 0 4.095 11 8.837 11 15Z"/><path fill="#FF6F80" id="TH" d="m182 209 1 1-1-1Z"/><path fill="#C7C9CC" id="mtt" d="M206 219h1l1-1 2-4-1-4c-4.455 0-8-2.095-8 5 0 2.681 2.595 4 5 4Z"/><path fill="#FF6F80" id="TH" d="M244 214h3l1-4-4-1v5Z"/><path fill="#C7C9CC" id="mtt" d="M249 219h1c2.601 0 5-1.04 5-4 0-8.348-.91-5-7-5l-1 4c0 2.25 2 3.376 2 5Z"/><path fill="#FF6F80" id="TH" d="m274 209-1 1 1-1Z"/><path fill="#CCCACB" id="nst" d="m286 224-1 1c-2.715 0-3-1.657-3-4l1-1 2-3 1-1 1-1c3.288 0 5.835-6 10-6 0 4.931-11 9.059-11 15Z"/><path fill="#6ACAB9" id="PIR" d="m368 276 7 13.5 3 3.5c2.108 0 11.627-14.754 13-17.5 3.759-7.517 8.265-14.53 12-22l8-22c2.059-4.119 6-9.704 6-14.5l-2-2c-1.623 0-6-.005-6-2l-7-2c-3.354 0-5.291-2-8-2 0 1.041-.986 5-2 5 0 3.686-3 6.177-3 10l-1 1-1 2-1 2-1 2-3 6c0 10.221-14 22.651-14 32l-1 2v2l1 3Z"/><path fill="#32B722" id="ENTl1" d="m415 215 2 2c1.948 0 4-5.428 4-7l-4-1h-1l-1 6Z"/><path fill="#FF6F80" id="TH" d="m184 210 1 1-1-1Z"/><path fill="#8599CC" id="PAL" d="M331 212h1v-1l-1 1Z"/><path fill="#97D6F9" id="STR" d="m333 211-1 1v-1h1Z"/><path fill="#80BFE1" id="MEA" d="m322 283-1 2-7.5-5c-13.464-6.732-16.5-10.709-16.5-26l2-5v-1l1-1 5.5-7 19-19 5.5-7 1-1 1-1 1-1 2 2c0 8.007-5 15.288-5 24-1.643 0-1 3.765-1 5v12c0 4.425-1 9.961-1 15l-1 6-1 2-1 1v1c-1.747 0-2 .253-2 2l-1 2ZM135 284h1c3.415 0 21.023-12.547 23-16.5 2.005-4.01 0-9.766 0-13.5 0-2.483-2-4.026-2-6 0-5.207-30-27.505-30-34l-2-2h-3c0 8.966 5 16.294 5 25v5l1 1v26l1 5v1l2 2v1l2 2v1l1 1 1 2Z"/><path fill="#8599CC" id="PAL" d="m125 212 2 2-2-2Z"/><path fill="#97D6F9" id="STR" d="m332 212-1 1v-1h1ZM331 213l-1 1 1-1Z"/><path fill="#E64438" id="HY" d="m210 260-6.5 3c-4.332 2.166-7.5 5.619-7.5 11-1.183 0-1.535-3.57-2-4.5-1.703-3.406-5.934-12.5-11-12.5l4-2c0 6.437 6 4.229 6-4 0-6.208 5.332-17.836 2-24.5l-6-6.5c6.28 0 5-1.81 5-6l7 1c0 2.681 2.595 4 5 4l-3 2.5c-1.479 2.958-7.257 13.5 2 13.5 0 .98-5.541 12.418-3 17.5 1.04 2.08 1.91 5.205 4.5 6.5 1.046.523 3.5-.951 3.5 1ZM231 225c-2.124 0-4.436 1-6 1 0-10.292-10.648-8-17-8l2-4c9.237 0 16.659 4.92 24.5 1 1.487-.743 8.5 1.308 8.5-1h4c0 2.25 2 3.376 2 5l-2.5-2c-4.709-2.355-15.5 2.935-15.5 8ZM246 260l10.5 5c2.315 1.158 2.671 7 4.5 7 1.722 0 2.368-5.235 3-6.5l5-6.5c-6.187 0-5-4.432-5-8 0-6.136-6.412-16.676-3-23.5 1.036-2.072 6-6.329 6-7.5-6.201 0-5-1.666-5-6l-7 1c0 2.96-2.399 4-5 4l4 3.5c3.001 3.001 5.238 12.5-2 12.5 0 5.78 5.422 11.657 2 18.5l-4.5 5.5c-1.046.523-3.5-.951-3.5 1Z"/><path fill="#9DE79B" id="BLAa" d="M113 240c0 2.077-7.561 6-10 6 0-.35-13-20.63-13-25 0-7.942 7.475-4 9-4h1c0 1.942 7.808 11 10 11l2 4 1 1v7Z"/><path fill="#E64438" id="HY" d="M174 221h2l1-2-8-4 5 6ZM287 215l-1 1 1-1Z"/><path fill="#9DE79B" id="BLAa" d="M343 240c3.604 0 6.409 6 11 6 0-2.231 12-18.954 12-25 0-5.267-4.89-5-8-5l-1 1-4 4-2 2-1 1-1 1-2 2-1 2-1 1v1l-1 1v2l-1 1v5Z"/><path fill="#E64438" id="HY" d="m286 216-1 1 1-1Z"/><path fill="#90EB8D" id="LA" d="m358 216-1 1 1-1Z"/><path fill="#C8CBCC" id="ec" d="M100 217c2.488 0 10 9.382 10 11-2.192 0-10-9.058-10-11Z"/><path fill="#FD4B3C" id="PH" d="M223 233c-6.547 0-12.123 2-18 2-9.257 0-3.479-10.542-2-13.5l3-2.5h1l1-1c6.352 0 17-2.292 17 8l-1 6-1 1ZM233 233c6.951 0 12.608 2 19 2 7.238 0 5.001-9.499 2-12.5l-4-3.5h-1l-2.5-2c-4.709-2.355-15.5 2.935-15.5 8l1 6 1 2Z"/><path fill="#E64438" id="HY" d="m282 221-2 1-1-3c1.974 0 3.517-2 6-2l-2 3-1 1Z"/><path fill="#C8CBCC" id="ec" d="M357 217c-2.226 0-4 1.774-4 4l4-4Z"/><path fill="#E64438" id="HY" d="m208 218-1 1 1-1Z"/><path fill="#F2483A" id="LHA" d="M171 259h2c1.046 0 6.474-2 10-2l4-2c0-3.591 3.117-4 6-4 0-6.208 5.332-17.836 2-24.5l-6-6.5-12-1-1 2c0 3.239 7.144 17-4 17-12.125 0-8 6.658-8 13l7 8ZM283 259h2l7-7c0-6.747 4.871-14-8-14-9.675 0-4-12.25-4-16l-1-3-12 1c0 1.171-4.964 5.428-6 7.5-3.412 6.824 3 17.364 3 23.5 1.984 0 6 1.444 6 4l3 2c3.526 0 8.954 2 10 2Z"/><path fill="#F2473A" id="PST" d="m283 220-1 1 1-1Z"/><path fill="#9DE69C" id="BLAp" d="M88 252h4l5-1c0-1.577 1.762-2 3-2l3-3c0-.35-13-20.63-13-25-1.765 0-.54 1.581-1 2.5-2.326 4.651-7.131 15.738-4 22l2 4.5 1 2Z"/><path fill="#F2473A" id="PST" d="M172 228v10c11.144 0 4-13.761 4-17h-2c0 1.811.495 4-3 4v2l1 1ZM285 227l-1 11c-9.675 0-4-12.25-4-16l2-1c0 2.343.285 4 3 4v2Z"/><path fill="#C8CBCC" id="ec" d="M353 221c-1.747 0-2 .253-2 2l2-2Z"/><path fill="#9DE69C" id="BLAp" d="M365 252h3l1-1 1-1v-1c0-4.106 2.516-28-4-28 0 6.046-12 22.769-12 25l2 3 4 2 5 1Z"/><path fill="#A0EE9C" id="EPd" d="m67 223 1 1-1-1Z"/><path fill="#C8CBCC" id="ec" d="m351 223-1 1 1-1Z"/><path fill="#E64438" id="HY" d="M171 225v1l-2-1 1-1 1 1ZM287 225l-2 2v-2l1-1 1 1Z"/><path fill="#C8CBCC" id="ec" d="m350 224-1 1 1-1Z"/><path fill="#A0EE9C" id="EPd" d="m389 224-1 1 1-1ZM68 225l1 1-1-1Z"/><path fill="#FD5D50" id="PVi" d="M229 270h3v-39l-1-6c-2.124 0-4.436 1-6 1l-1 6v38h3v-29c0-1.475-.893-9 1.5-9l.5 38Z"/><path fill="#C8CBCC" id="ec" d="M349 225c-1.747 0-2 .253-2 2l2-2Z"/><path fill="#C9C8CA" id="ee" d="m387 227-1 2c-2.836 0 1-6.971 1-2Z"/><path fill="#E64438" id="HY" d="m171 227 1 1-1-1Z"/><path fill="#97D6F9" id="STR" d="M345 229h1l1-2-2 2Z"/><path fill="#A0EE9C" id="EPd" d="m387 227-1 2 1-2Z"/><path fill="#97D6F9" id="STR" d="M112 232h1v-1l-1-2-2-1 2 4ZM344 231h1v-2h-1l-1 2h1Z"/><path fill="#8AD987" id="CTXsp" d="m346 229-1 1v-1h1ZM79 236c-2.177 0-4-.641-4 2l-4-7c1.806 0 7 4.969 7-1h1v6Z"/><path fill="#C8C9CB" id="amc" d="M79 236c0 1.551 1.883 8 4 8 0-1.026-3.87-13-4-13v5Z"/><path fill="#80BEE2" id="IA" d="M126 246h2v-3l-1-1v-1c-1.747 0-2-.253-2-2-4.197 0-6.644-8-12-8v6l3 4 10 5Z"/><path fill="#E64438" id="HY" d="m233 233-1 2v-4l1 2Z"/><path fill="#80BEE2" id="IA" d="M329 246h1c1.661 0 11-4.467 11-6l2-3v-2l1-1v-3h-1c-4.973 0-6.944 8-11 8l-3 3v4Z"/><path fill="#8AD987" id="CTXsp" d="m345 231-1 1v-1h1ZM377 237h5l3-6-2.5 2c-2.116 1.058-2.898-2-4.5-2l-1 2v4ZM113 232v1l-1-1h1Z"/><path fill="#E64438" id="HY" d="m223 233 1 1v-2l-1 1Z"/><path fill="#A8A9AA" id="V3" d="M225 291h7v-2c0-2.029-1.191-1.881-2-3.5l-1-15.5-.5-38c-2.393 0-1.5 7.525-1.5 9v41.5c-.579 1.157-3 5.491-3 6.5l1 2Z"/><path fill="#FE5445" id="DMH" d="M219 261h5v-27l-1-1c-6.547 0-12.123 2-18 2 0 .98-5.541 12.418-3 17.5 1.04 2.08 1.91 5.205 4.5 6.5 1.046.523 3.5-.951 3.5 1 3.222 0 6.277 1 9 1ZM246 260l-9 1-5-1v-25l1-2c6.951 0 12.608 2 19 2 0 5.78 5.422 11.657 2 18.5l-4.5 5.5c-1.046.523-3.5-.951-3.5 1Z"/><path fill="#8AD987" id="CTXsp" d="m344 234-1 1 1-1Z"/><path fill="#C8C9CB" id="amc" d="M377 237c0 1.465.109 4-2 4 0-1.593.337-7 2-7v3Z"/><path fill="#A0ED9D" id="EPv" d="M90 255c0 4.121-1 9.275-1 14-1.728 0-3.305-7.11-4-8.5-3.19-6.379-10-15.124-10-22.5 0-2.641 1.823-2 4-2 0 1.551 1.883 8 4 8 0 1.417 2.383 6 4 6l1 2 2 3ZM367 269h1c0-9.349 14-21.779 14-32h-5c0 1.465.109 4-2 4v1l-1 1c0 1.664-1.823 6-4 6v1l-1 1-1 1-1 3v14Z"/><path fill="#8AD987" id="CTXsp" d="m113 240 3 1-3-4v3Z"/><path fill="#97D6F9" id="STR" d="M125 239c0 1.747.253 2 2 2v-4l-2 2ZM332 239l-3 3c0-1.235-.643-5 1-5l2 2Z"/><path fill="#8AD987" id="CTXsp" d="M341 240h2v-3l-2 3Z"/><path fill="#84E981" id="BMAp" d="M109 262h2c2.309 0 10.528-9 15-9 1.579 0 1-2.855 1-4l-1-3-10-5-3-1c0 2.077-7.561 6-10 6l-3 3v2c1.273 0 9 8.656 9 11ZM345 262h2l1-1 8-10v-2l-2-3c-4.591 0-7.396-6-11-6h-2c0 1.533-9.339 6-11 6l-1 1v5l2 2c2.895 0 14 4.749 14 8Z"/><path fill="#97D6F9" id="STR" d="m127 242 1 1-1-1Z"/><path fill="#C8C9CB" id="amc" d="m375 242-1 1 1-1Z"/><path fill="#97D6F9" id="STR" d="M127 249h1v-3h-2l1 3ZM330 246l-1 1v-1h1Z"/><path fill="#CAC7CB" id="fiber tracts" d="m300 247-1 1 1-1Z"/><path fill="#8AD987" id="CTXsp" d="M97 251h3v-2c-1.238 0-3 .423-3 2ZM126 253l2 2v-6h-1c0 1.145.579 4-1 4ZM356 251h4l-4-2v2Z"/><path fill="#90EB8D" id="LA" d="m370 250-1 1 1-1Z"/><path fill="#9CE79C" id="BLAv" d="m101 279-2 1c-1.707 0-8-2.656-8-5l-2-4v-2c0-4.725 1-9.879 1-14l2-3 5-1h3c1.273 0 9 8.656 9 11l2 3v5c0 2.25-2 3.376-2 5l-8 4Z"/><path fill="#C7C8CA" id="fx" d="M193 251c-2.883 0-6 .409-6 4 0 6.437 6 4.229 6-4ZM270 255l-1 4c-6.187 0-5-4.432-5-8 1.984 0 6 1.444 6 4Z"/><path fill="#9CE79C" id="BLAv" d="m355 279 3 1 8-5 1-2v-18l-2-3-5-1h-4l-8 10-1 1-2 4v5l2 4 8 4Z"/><path fill="#8AD987" id="CTXsp" d="m369 251-1 1 1-1ZM92 252l-2 3-2-3h4ZM329 254h2l-2-2v2ZM368 252l-1 3-2-3h3Z"/><path fill="#84EA80" id="BMAa" d="M121 273h2l5-4v-14l-2-2c-4.472 0-12.691 9-15 9v8l4 4 6-1ZM335 273l7 1 3-3v-9c0-3.251-11.105-8-14-8h-2c0 4.425-1 9.961-1 15l6 4h1Z"/><path fill="#E64438" id="HY" d="m273 257-4 2 1-4 3 2Z"/><path fill="#F24839" id="TU" d="M207 289h1v-3l-3-2c-4.168 0-9-6.091-9-10-1.183 0-1.535-3.57-2-4.5-1.703-3.406-5.934-12.5-11-12.5-3.526 0-8.954 2-10 2v2c0 3.274 4.605 5.711 6 8.5 7.568 15.135 8.72 19.5 28 19.5ZM249 287v2c18.265 0 20.447-3.395 28-18.5l6-8.5 1-1-1-2c-1.046 0-6.474-2-10-2l-4 2-5 6.5c-.632 1.265-1.278 6.5-3 6.5 0 3.926-3.19 11-8 11l-1 1h-1c0 1.481-2 .785-2 3Z"/><path fill="#E64438" id="HY" d="M173 259v2l-2-2h2ZM285 259l-1 2-1-2h2Z"/><path fill="#FF4A3D" id="VMH" d="m213 281-8 3c-4.168 0-9-6.091-9-10 0-5.381 3.168-8.834 7.5-11l6.5-3c3.222 0 6.277 1 9 1l4 6.5-2 6.5-1 1-1 1-1 1-1 1-1 1h-1l-2 2Z"/><path fill="#E64438" id="HY" d="M251 284c0 1.481-2 .785-2 3-.28 0-13.684-12.867-14-13.5l-3-3.5v-10l5 1c0 2.802-5.014 5.472-3 9.5 2.646 5.292 11.037 13.5 17 13.5Z"/><path fill="#FF4A3D" id="VMH" d="M251 284h1l1-1c4.81 0 8-7.074 8-11-1.829 0-2.185-5.842-4.5-7l-10.5-5-9 1c0 2.802-5.014 5.472-3 9.5 2.646 5.292 11.037 13.5 17 13.5Z"/><path fill="#E64438" id="HY" d="m224 270-3 4 2-6.5-4-6.5h5v9ZM284 261l-1 1 1-1Z"/><path fill="#8AD987" id="CTXsp" d="m348 261-1 1 1-1ZM111 262v3l-2-3h2ZM347 262l-2 4v-4h2Z"/><path fill="#99D2BD" id="OLF" d="M123 273c2.124 0 4.436 1 6 1l-1-5-5 4ZM334 273c-2.765 0-5.165 2-7 2l1-6 6 4ZM368 269l-1 2v-2h1Z"/><path fill="#8AD987" id="CTXsp" d="M114 274h1l-4-4c0 2.25-2 3.376-2 5l5-1Z"/><path fill="#FF5B4F" id="ARH" d="M216 291c0-4.813 6.327 0 7 0l1-2c0-1.009 2.421-5.343 3-6.5V270h-3l-3 4-1 1-1 1-1 1-1 1-1 1h-1c0 1.747-.253 2-2 2l-5 5v3l1 1c1.564 0 3.876 1 6 1h1ZM240 291h1c2.409 0 5.181-1 7-1l1-1v-2c-.28 0-13.684-12.867-14-13.5l-3-3.5h-3l1 15.5c.809 1.619 2 1.471 2 3.5l1 2c1.935 0 7-4.796 7 0Z"/><path fill="#99D2BD" id="OLF" d="M89 275h2l-2-4v4Z"/><path fill="#8AD987" id="CTXsp" d="m343 274 4 1-2-4-3 3h1Z"/><path fill="#99D2BD" id="OLF" d="M114 274h1l6-1c0 1.481-2 .785-2 3-1.041 0-5-.986-5-2Z"/><path fill="#60E6B5" id="COApm" d="m133 286-9 6c-1.601 0-5-13.464-5-16 0-2.215 2-1.519 2-3h2c2.124 0 4.436 1 6 1v1l2 2v1l2 2v1l1 1 1 2v1h-1l-1 1ZM326 288c2.757 0 4.081 4 7 4l5-16-3-3h-1c-2.765 0-5.165 2-7 2l-1 2-1 1v1l-2 2-1 2 2 4h1l1 1Z"/><path fill="#99D2BD" id="OLF" d="M343 274c0 .672-4.329 2-5 2l-3-3 7 1h1ZM366 275l2 1-1-3-1 2Z"/><path fill="#5FE6B7" id="COApl" d="m100 300 1 1c3.95 0 23-5.631 23-9-1.601 0-5-13.464-5-16-1.041 0-5-.986-5-2l-5 1-8 4-1 3v18Z"/><path fill="#E64438" id="HY" d="m221 274-1 1 1-1Z"/><path fill="#5FE6B7" id="COApl" d="m357 300-1 1c-4.081 0-23-5.29-23-9l5-16c.671 0 5-1.328 5-2l4 1 8 4 1 4c0 5.587 1 12.081 1 17Z"/><path fill="#99D2BD" id="OLF" d="m89 275-1 1 1-1Z"/><path fill="#59D9AA" id="PAA" d="m100 300-1 1c-3.606 0-20-3.924-20-8l9-17 1-1h2c0 2.344 6.293 5 8 5l1 2v18Z"/><path fill="#99D2BD" id="OLF" d="m129 275 2 2-2-2Z"/><path fill="#E64438" id="HY" d="m220 275-1 1 1-1Z"/><path fill="#99D2BD" id="OLF" d="m327 275-1 2 1-2Z"/><path fill="#59D9AA" id="PAA" d="M357 300v1c3.571 0 21-4.399 21-8l-3-3.5-7-13.5-2-1-8 5-2 3c0 5.587 1 12.081 1 17Z"/><path fill="#E64438" id="HY" d="m219 276-1 1 1-1Z"/><path fill="#99D2BD" id="OLF" d="m326 277-1 1 1-1ZM131 278l2 2-2-2Z"/><path fill="#E64438" id="HY" d="m217 278-1 1 1-1Z"/><path fill="#99D2BD" id="OLF" d="m99 280 1 2 1-3-2 1Z"/><path fill="#E64438" id="HY" d="m215 279-2 2c1.747 0 2-.253 2-2Z"/><path fill="#99D2BD" id="OLF" d="M325 279c-1.747 0-2 .253-2 2l2-2ZM358 280l-2 3-1-4 3 1ZM133 281l1 1-1-1Z"/><path fill="#E64438" id="HY" d="m205 284 3 2 5-5-8 3Z"/><path fill="#99D2BD" id="OLF" d="m323 281-1 2 1-2Z"/><path fill="#E64438" id="HY" d="m253 283-1 1 1-1Z"/><path fill="#99D2BD" id="OLF" d="m321 285 3 2-2-4-1 2ZM136 284l-1 1v-1h1ZM134 285l-1 1 1-1ZM325 287l1 1-1-1Z"/><path fill="#E64438" id="HY" d="m208 289 1 1-2-1h1Z"/><path fill="#F1473A" id="ME" d="M217 292c0 7.543 23 7.018 23 0v-1c0-4.796-5.065 0-7 0h-10c-.673 0-7-4.813-7 0l1 1Z"/><path fill="#E64438" id="HY" d="M223 291h2l-1-2-1 2ZM232 291h1l-1-2v2ZM249 289l-1 1 1-1ZM216 291l1 1-2-1h1ZM241 291l-1 1v-1h1Z"/><path fill="#99D2BD" id="OLF" d="M99 301h2l-1-1-1 1ZM356 301h1v-1l-1 1Z"/></svg>