<svg xmlns="http://www.w3.org/2000/svg" viewBox="0 0 456 320"><path fill="#FEFA90" id="DEC" d="M190 93h77c0-10.174-7.143-10.322-14.5-14-3.135-1.567-17.78-1.61-21 0-2.056 1.028-6.416-.208-8-1-4.769-2.384-30.903 3.306-32.5 6.5l-1 8.5Z"/><path fill="#FDFB90" id="FOTU" fill-rule="evenodd" d="M237 108c0 2.111 7.389 0 0 0m-21 0c0 2.112 5.567 0 0 0m-33 23c0-4.714 16.689-6.595 19.5-8 7.833-3.917 48.24-3.88 56 0l12 5 3.5 3c0-7.994 9-18.234 9-25v-2c0-4.433-12.768-11-16-11h-77c-3.881 0-17 7.19-17 11v2l3 6.5c2.566 5.133 6 12.49 6 18.5h1Z"/><path fill="#FCFA91" id="ANcr2" d="m135 127-1 1c-3.156 0-5.924 4.788-9.5 3-8.576-4.288 8.562-19.781 13-22 5.479-2.74 25.047-11.476 32-8l3.5 3v2c-7.554 0-32.905 21-38 21ZM283 106c6.419 0 23.012 11.756 29.5 15l8.5 6c3.151 0 7.146 5.677 10.5 4 2.767-1.383 3.734-8.633 1-10l-8-8-16-9c-3.555-1.777-16.604-5.198-21-3l-4.5 3v2Z"/><path fill="#FFFB8E" id="PRM" d="M145 173c-1.028 0-4 4.666-4 6l-4.5 2c-1.685 0-9.258-1.129-11-2-12.427-6.214-9.395-25.709-4.5-35.5 2.121-4.242 13-11.731 13-15.5l1-1c5.095 0 30.446-21 38-21l3 6.5c2.566 5.133 6 12.49 6 18.5l-9.5 9c-6.42 6.42-16.474 16.449-20.5 24.5l-5 6.5-1 1-1 1ZM310 171l6 8 3.5 2 13-3c11.571-5.785 6.57-27.36 2.5-35.5L321 127l-8.5-6c-6.488-3.244-23.081-15-29.5-15 0 6.766-9 17.006-9 25 3.351 0 5.8 5.3 8 7.5l21 23 7 9.5Z"/><path fill="#CBC9CC" id="arb" d="M216 108c0 2.112 5.567 0 0 0ZM237 108c0 2.111 7.389 0 0 0Z"/><path fill="#FBFC91" id="PYR" d="m185 146 6.5-5c7.539-3.769 17.517-2.258 25-6 5.58-2.79 38.463 1.732 43 4 1.238.619 11.492 7 11.5 7l3-15-3.5-3-12-5c-7.76-3.88-48.167-3.917-56 0-2.811 1.405-19.5 3.286-19.5 8 0 5.526 2 9.703 2 15Z"/><path fill="#FFF990" id="COPY" fill-rule="evenodd" d="M168 166c0 1.93 1.93 0 0 0m1-1c0 1.93 1.93 0 0 0m1-2c0 3.746 2.091 0 0 0m2-2c0 4.42 1.206 0 0 0m-30 22c0 20.99 25.674 0 30 0 0-1.884 2.575-7 5-7 0-2.482 7.626-11 9-11l-1-16c-3.492 0-9.285 13.107-11.5 12-1.895-.947 1.32-3.32 2-4l9.5-11c0-5.297-2-9.474-2-15h-1l-9.5 9c-6.42 6.42-16.474 16.449-20.5 24.5l-5 6.5-1 1-1 1c0 3.854-3 5.971-3 10Z"/><path fill="#FFF990" id="COPY" d="M315 182c0 14.75-18.023 8.738-25.5 5l-4.5-4c0-4.725-15-15.747-15-19 0-4.425 1-9.961 1-15 3.327 0 14.936 18 16.5 18 1.505 0-2.277-5.055-2.5-5.5L271 146l3-15c3.351 0 5.8 5.3 8 7.5l21 23 7 9.5 5 11Z"/><path fill="#CBC9CC" id="arb" d="M185 149c0-4.18 14.01-6.755 16.5-8 10.372-5.186 42.628-5.186 53 0 2.636 1.318 16.5 3.29 16.5 8 3.327 0 14.936 18 16.5 18 1.505 0-2.277-5.055-2.5-5.5L271 146c-.008 0-10.262-6.381-11.5-7-4.537-2.268-37.42-6.79-43-4-7.483 3.742-17.461 2.231-25 6l-6.5 5-9.5 11c-.68.68-3.895 3.053-2 4 2.215 1.107 8.008-12 11.5-12Z"/><path fill="#FBFC91" id="PYR" d="M270 164c-2.595 0-6.162-3.831-8.5-5-4.238-2.119-41.897-5.552-47-3-5.505 2.752-13.48.24-19 3-1.932.966-8.531 6-9.5 6l-1-16c0-4.18 14.01-6.755 16.5-8 10.372-5.186 42.628-5.186 53 0 2.636 1.318 16.5 3.29 16.5 8 0 5.039-1 10.575-1 15Z"/><path fill="#FFFA8F" id="UVU" d="M172 183c0 11.043 21.155 8.827 27.5 12 4.64 2.32 11.519-.24 16 2 9.107 4.554 41.333.334 50-4l12-2c2.042-1.021 6.743-8 7.5-8 0-4.725-15-15.747-15-19-2.595 0-6.162-3.831-8.5-5-4.238-2.119-41.897-5.552-47-3-5.505 2.752-13.48.24-19 3-1.932.966-8.531 6-9.5 6-1.374 0-9 8.518-9 11l3.5-3h7.5c8.061 0 19.27 4.115 27.5 0l15 1c4.722-2.361 21.145-1.428 26 1 1.802.901 23.5-5.764 23.5 1.5l-2.5 1.5c-5.467-2.734-14.045 0-20.5 0-7.224 0-20.247 1.127-26.5-2l-34 2c-4.074 0-19.5-.333-19.5-2-2.425 0-5 5.116-5 7Z"/><path fill="#CBC9CC" id="arb" d="M172 161c0 4.42 1.206 0 0 0ZM170 163c0 3.746 2.091 0 0 0ZM169 165c0 1.93 1.93 0 0 0ZM168 166c0 1.93 1.93 0 0 0Z"/><path fill="#F0F080" id="CB" d="m147 171-1 1 1-1ZM316 179c-1.473 0-1 1.952-1 3l-5-11 6 8ZM146 172l-1 1 1-1ZM141 179c0 1.145-.579 4 1 4 0-4.029 3-6.146 3-10-1.028 0-4 4.666-4 6Z"/><path fill="#CBC9CC" id="arb" d="M177 176c0 1.667 15.426 2 19.5 2l34-2c6.253 3.127 19.276 2 26.5 2 6.455 0 15.033-2.734 20.5 0l2.5-1.5c0-7.264-21.698-.599-23.5-1.5-4.855-2.428-21.278-3.361-26-1l-15-1c-8.23 4.115-19.439 0-27.5 0h-7.5l-3.5 3Z"/><path fill="#FF9BCD" id="MY" d="M188 206c0 1.24-2 1.576-2 4l-7.5-7c-4.068-2.034-7.398 0-11.5 0v-2c4.143 0 13.467-.516 6.5-4-3.585-1.792-8.979 2-12.5 2 0-2.747 14.093-5 17-5 1.321 0 6-.684 6 1-5.772 0-4.768 6 0 6 0 2.601 1.04 5 4 5ZM268 206l3 3 8.5-7 9.5 1v-2c-2.522 0-10.226-1.047-10-1.5 4.945-9.89 28.807 7.613 32 14 3.049 6.098 9.945 31.11 6 39l-6 17.5c3.928 0 5.708-12.916 7-15.5 5.475-10.95-.521-31.042-5-40l-7-9-10-7c-3.248-3.248-12.764-4.5-17.5-4.5-1.363 0-6.5-.7-6.5 1 5.717 0 5.844 6 1 6 0 2.868-2.132 5-5 5Z"/><path fill="#FFA2D2" id="ECU" d="M184 201h1l2.5 1c6.357 0-.5-6.78-.5-7h-3c-5.772 0-4.768 6 0 6Z"/><path fill="#FF9BCD" id="MY" d="M185 201c0 2.492 4 1.835 4 5 4.289 0-.603-9 6-9 0-1.059-6.743-2-8-2 0 .22 6.857 7 .5 7l-2.5-1ZM269 195l-2 1 2-1Z"/><path fill="#FFA2D2" id="ECU" d="M271 201h2c4.844 0 4.717-6-1-6h-3l-2 1c0 4.062-.306 5 4 5Z"/><path fill="#FF9BCD" id="MY" d="m271 201-4 4c-4.501 0 .772-8-6-8 0-1.684 4.679-1 6-1 0 4.062-.306 5 4 5Z"/><path fill="#C8CACA" id="sptV" d="m150 272 2 2c0 11.01-10.911-17.322-12-19.5-2.247-4.494-1.089-25.823 1-30l4-10.5c1.577 0 2-1.762 2-3l14-12c3.521 0 8.915-3.792 12.5-2 6.967 3.484-2.357 4-6.5 4-2.473 0-9 .728-9 4l-1 1-2 1-2 2c-1.747 0-2 .253-2 2-2.177 0-4 4.336-4 6-2.16 0-3 6.07-3 8-1.473 0-1 1.952-1 3v4c-1.684 0-1 4.679-1 6v16l1 2v4l2 3v1l1 1v1l1 1v1l3 4Z"/><path fill="#FDA5D0" id="CU" d="m206 217-1 1c-2.014 0-5.932 2.284-8.5 1l-9.5-6-1-3c0-2.424 2-2.76 2-4h1c4.289 0-.603-9 6-9h4c0 1.59 4.386 1.443 5.5 2l1.5 2c0 3.55 6 5.856 6 9v2l-1 1-3 2-1 1-1 1Z"/><path fill="#FF9BCD" id="MY" d="M206 199v2l-1.5-2c-1.114-.557-5.5-.41-5.5-2l7 2ZM257 197l-2 1 2-1Z"/><path fill="#FDA5D0" id="CU" d="m250 217 1 1 8.5 1c1.821-.91 7.862-6 9.5-6v-1l1-1 1-1v-1l-3-3-1-1c-4.501 0 .772-8-6-8h-4l-2 1h-1l-2 1h-1v1c0 3.856-6 6.218-6 10v2l4 4 1 1Z"/><path fill="#C8CACA" id="sptV" d="m305 274 2 1 2-2c0-1.238.423-3 2-3l6-17.5c3.945-7.89-2.951-32.902-6-39-3.193-6.387-27.055-23.89-32-14-.226.453 7.478 1.5 10 1.5 2.554 0 9 .255 9 4 6.766 0 15 15.58 15 22v1c1.643 0 1 3.765 1 5v4c1.649 0 1.649 16 0 16v4l-1 1v3l-1 1-1 2v1l-1 2-1 1v1l-1 1-1 1v1l-1 1-1 1Z"/><path fill="#FF9BCD" id="MY" d="M207 199h5c0-1.566-5-1.566-5 0ZM244 199h5c0-1.566-5-1.566-5 0ZM254 198l-2 1 2-1ZM161 199c-3.615 0-14 7.885-14 12l14-12Z"/><path fill="#FEA3D0" id="GR" d="m224 210-3.5 3c-2.542 1.271-5.368-2-7.5-2l-1-1c0-3.144-6-5.45-6-9v-2h9l1 1 3 1c0 2.973 5 5.016 5 9Z"/><path fill="#FF9BCD" id="MY" d="m215 199 1 1-1-1Z"/><path fill="#FEA3D0" id="GR" d="m245 210-2 1c-1.657 0-10 4.619-10-1 0-3.863 3-6.505 3-8l1-1 7-2h6l1 1c0 3.856-6 6.218-6 10Z"/><path fill="#FF9BCD" id="MY" d="M251 199v1l-1-1h1Z"/><path fill="#FDA3D1" id="Pa5" d="M158 205v1l9-3v-2c-2.473 0-9 .728-9 4Z"/><path fill="#CAC9CC" id="cuf" d="M188 206h1c0-3.165-4-2.508-4-5h-1c0 2.601 1.04 5 4 5Z"/><path fill="#FF9BCD" id="MY" d="m224 210 3 1-2-2.5c-1.189-2.377 2-2.116 2-3.5l-8-4c0 2.973 5 5.016 5 9ZM237 201l-1 1 1-1Z"/><path fill="#CAC9CC" id="cuf" d="m267 205 1 1c2.868 0 5-2.132 5-5h-2l-4 4Z"/><path fill="#FDA3D1" id="Pa5" d="M298 205v1l-9-3v-2c2.554 0 9 .255 9 4Z"/><path fill="#FDA4D0" id="SPVC" d="M152 274c1.819 0 4.591 1 7 1 3.284 0 6.496-6.491 8-9.5 5.233-10.466 6.712-22.425 12-33 .93-1.86 2.249-10.5 5-10.5l4-4.5-1-4.5-1-3-7.5-7c-4.068-2.034-7.398 0-11.5 0l-9 3h-1l-2 1c0 1.747-.253 2-2 2 0 1.747-.253 2-2 2 0 1.417-2.383 6-4 6 0 1.543-1.709 8-3 8 0 1.048.473 3-1 3v4c0 1.321.684 6-1 6v16l1 2v4c1.577 0 2 1.762 2 3v1l1 1v1l1 1v1l3 4 2 2Z"/><path fill="#FF9BCD" id="MY" d="m233 210-4 1 3-3.5-2-2.5c0-1.89 4.598-3 6-3 0 1.495-3 4.137-3 8Z"/><path fill="#FDA4D0" id="SPVC" d="M297 275h7l1-1 1-1 1-1v-1l1-1 1-1v-1l1-1 1-2v-1l1-2 1-1v-3l1-1v-24c-1.643 0-1-3.765-1-5v-1c-1.59 0-1.443-4.386-2-5.5-1.957-3.914-7.126-15.5-13-15.5l-9-3-9.5-1-8.5 7v1l-1 1-1 1v1c0 5.843 3 7.728 3 9 3.479 0 4.014 7.529 5 9.5 2.996 5.992 5.03 12.059 8 18 2.493 4.986 1.47 11.94 4 17l8 8.5Z"/><path fill="#FF9BCD" id="MY" d="M157 206h1v-1l-1 1Z"/><path fill="#FFA5D0" id="AP" d="M228 211h1l3-3.5-2-2.5h-3c0 1.384-3.189 1.123-2 3.5l2 2.5h1Z"/><path fill="#FF9BCD" id="MY" d="M298 206c5.874 0 11.043 11.586 13 15.5.557 1.114.41 5.5 2 5.5 0-6.42-8.234-22-15-22v1ZM157 206l-2 1 2-1ZM155 207l-2 2c1.747 0 2-.253 2-2ZM153 209c-1.747 0-2 .253-2 2 1.747 0 2-.253 2-2ZM213 211l-1 1v-2l1 1Z"/><path fill="#FDA5D1" id="NTS" fill-rule="evenodd" d="M243 217c0 7.975 4.275 0 0 0m-32 0c0 7.381 5.869 0 0 0m15 11c0 2.662 4.329 0 5 0 0-11.532 12-9.215 12-4 5.807 0 8 .265 8-6l-1-1-1-1-4-4-2-1c-1.657 0-10 4.619-10-1l-4 1c0 1.186-1 1.186-1 0h-1l-3-1-3.5 3c-2.542 1.271-5.368-2-7.5-2l-1 1-1 1-3 2-1 1-1 1-1 1c0 5.447 2.494 7 8 7 0-6.462 13-8.568 13 3Z"/><path fill="#FF9BCD" id="MY" d="m243 211 2 1v-2l-2 1ZM271 210l-1 1 1-1ZM147 211c-1.577 0-2 1.762-2 3 1.577 0 2-1.762 2-3ZM151 211c-2.177 0-4 4.336-4 6 1.617 0 4-4.583 4-6ZM228 211h1c0 1.186-1 1.186-1 0ZM270 211l-1 1 1-1ZM212 212l-1 1 1-1Z"/><path fill="#FF9BCD" id="MY" fill-rule="evenodd" d="M228 231c0 3.746 2.091 0 0 0m-15 8c2.364 0 3.053 3 5 3 0-3.392-5.372-7.756-3-12.5 1.99-3.981 10.176 3.176 11.5 4.5l2 3 3.5-4.5 3-3.5c-1.145 0-4 .579-4-1-.671 0-5 2.662-5 0l-4.5 1-8.5-4c-5.506 0-8-1.553-8-7-2.014 0-5.932 2.284-8.5 1l-9.5-6 1 4.5-4 4.5c6.489 0 25-1.692 25 9 3.667 0 4 5.045 4 8Z"/><path fill="#FF9BCD" id="MY" d="m243 239-3 2c0-6.913 5.323-12-5-12 0-2.742 8-1.47 8-5 5.807 0 8 .265 8-6l8.5 1c1.821-.91 7.862-6 9.5-6 0 5.843 3 7.728 3 9-5.615 0-25-.938-25 9-2.743 0-4 5.558-4 8ZM165 289l5 6c-6.281 0-7.569-8.034-11.5-10-13.174-6.587-21.5-27.238-21.5-43.5 0-4.687 3.551-27.5 8-27.5l-4 10.5c-2.089 4.177-3.247 25.506-1 30 1.089 2.178 12 30.51 12 19.5 1.819 0 4.591 1 7 1 0 2.098 1.939 3 4 3l-2 2-5.5-2c-1.527.763 7.94 11 9.5 11ZM208 215l-1 1 1-1ZM249 216l1 1-1-1Z"/><path fill="#FF9BCD" id="MY" d="M147 217c-2.16 0-3 6.07-3 8 1.291 0 3-6.457 3-8ZM206 217l-1 1 1-1Z"/><path fill="#C8CAC7" id="ts" d="M211 217c0 7.381 5.869 0 0 0ZM243 217c0 7.975 4.275 0 0 0Z"/><path fill="#FDB1D8" id="DMX" d="m213 225 8.5 4 4.5-1c0-11.568-13-9.462-13-3ZM231 228c0 1.579 2.855 1 4 1 0-2.742 8-1.47 8-5 0-5.215-12-7.532-12 4Z"/><path fill="#FDB1D7" id="MDRNd" d="m163 278 9 1 3-3c0-6.795 16.422-27.922 22-33.5 2.725-2.725 12-8.443 12-11.5 0-10.692-18.511-9-25-9-2.751 0-4.07 8.64-5 10.5-5.288 10.575-6.767 22.534-12 33-1.504 3.009-4.716 9.5-8 9.5 0 2.098 1.939 3 4 3ZM294 278l-9 1-4-3c0-10.774-17.95-26.4-22-34.5L247 231c0-9.938 19.385-9 25-9 3.479 0 4.014 7.529 5 9.5 2.996 5.992 5.03 12.059 8 18 2.493 4.986 1.47 11.94 4 17l8 8.5c0 2.041-.959 3-3 3Z"/><path fill="#FF9BCD" id="MY" d="M144 225c-1.473 0-1 1.952-1 3 1.473 0 1-1.952 1-3ZM313 228c1.643 0 1 3.765 1 5-1.643 0-1-3.765-1-5Z"/><path fill="#FEB1D7" id="XII" d="M236 243h1l1-1 1-1h1c0-6.913 5.323-12-5-12l-3 3.5-3.5 4.5-2-3c-1.324-1.324-9.51-8.481-11.5-4.5-2.372 4.744 3 9.108 3 12.5h1l1 1h1l12 1c0-1.473 1.952-1 3-1Z"/><path fill="#FFB2D8" id="IRN" d="M175 276c0 5.598 5.211 1 7 1 0-9.123 11.097-17.694 15-25.5l4-3c1.752-3.505 7.85-9.5 12-9.5 0-2.955-.333-8-4-8 0 3.057-9.275 8.775-12 11.5-5.578 5.578-22 26.705-22 33.5Z"/><path fill="#A7AAA9" id="c" d="M228 231c0 3.746 2.091 0 0 0Z"/><path fill="#FFB2D8" id="IRN" d="M274 276c.871 0 7 6.395 7 0 0-10.774-17.95-26.4-22-34.5L247 231c-2.743 0-4 5.558-4 8 8.227 0 31 29.954 31 37Z"/><path fill="#FF9BCD" id="MY" d="M143 232c-1.684 0-1 4.679-1 6 1.684 0 1-4.679 1-6ZM314 237c1.649 0 1.649 16 0 16v-16Z"/><path fill="#FFB1D6" id="MDRNv" d="M221 243c0 1.967 5.593 1.314 4 4.5-1.412 2.823-16.3 27.4-16.5 27.5-3.013 1.507-26.5 10.837-26.5 2 0-9.123 11.097-17.694 15-25.5l4-3c1.752-3.505 7.85-9.5 12-9.5 2.364 0 3.053 3 5 3h1l1 1h1ZM233 244l-2 2.5c2.421 4.842 15.452 28.476 19.5 30.5 4.633 2.316 23.5 7.421 23.5-1 0-7.046-22.773-37-31-37l-3 2h-1l-1 1-1 1h-1c0 1.473-1.952 1-3 1Z"/><path fill="#FF9BCD" id="MY" d="m239 241-1 1 1-1ZM219 242l1 1-1-1ZM238 242l-1 1 1-1Z"/><path fill="#FF9BCD" id="MY" fill-rule="evenodd" d="m277 280-5 5.5c5.578 11.156 19.867-5.5 5-5.5m-101 0c0 2.456-4.795 3.911-3 7.5 1.117 2.233 16.845 2.845 7-7l-4-.5m39 20c0-6.444 5.347-10.194 8-15.5l2-24 5.5-.5c3.016 1.508.827 18.155 2.5 21.5 2.858 5.716 8 12.924 8 18.5 3.044 0 24.781.86 26.5 0 3.699-1.849 8.022-2 12.5-2 0-3.847 3.566-3.066 6.5-6 .717-.717 3.513-4.474 4.5-2.5l-3 4.5c2.783 0 19-16.221 19-19l-2-1-1 1h-7c0 2.041-.959 3-3 3l1 3c1.107 0 4.921-4.659 6-2.5 1.035 2.071-10 13.1-10 8.5-5.76 0-6-2.949-6-8l-4-3c0 6.395-6.129 0-7 0 0 8.421-18.867 3.316-23.5 1-4.048-2.024-17.079-25.658-19.5-30.5l2-2.5-12-1c0 1.967 5.593 1.314 4 4.5-1.412 2.823-16.3 27.4-16.5 27.5-3.013 1.507-26.5 10.837-26.5 2-1.789 0-7 4.598-7-1l-3 3c0 4.455-2.122 8-7 8v2c2.656 0 12 6.351 12 9 4.211 0 8.982.241 12.5 2 1.659.83 22.71 0 25.5 0m89-25c0 4.42 1.206 0 0 0Z"/><path fill="#FF9BCD" id="MY" d="M236 243c-1.048 0-3-.473-3 1 1.048 0 3 .473 3-1ZM142 254l1 2-1-2ZM314 257l-1 1 1-1ZM143 260c1.577 0 2 1.762 2 3l-2-3Z"/><path fill="#C9C7CC" id="pyd" d="M215 300c0-6.444 5.347-10.194 8-15.5l2-24 5.5-.5c3.016 1.508.827 18.155 2.5 21.5 2.858 5.716 8 12.924 8 18.5 0 1.832-12-2.186-12-6 0-1.399-2-1.399-2 0 0 5.162-9.221 6-12 6Z"/><path fill="#FF9BCD" id="MY" d="m313 261-1 1 1-1ZM312 262l-1 2 1-2ZM145 264l1 1-1-1ZM311 265l-1 2 1-2ZM146 266l1 1-1-1ZM310 267l-1 1 1-1ZM147 268l3 4-3-4ZM309 269l-1 1 1-1ZM308 270l-1 1 1-1ZM311 270c-1.577 0-2 1.762-2 3 1.577 0 2-1.762 2-3ZM307 272l-1 1 1-1ZM306 273l-1 1 1-1ZM309 273l-2 2c1.747 0 2-.253 2-2Z"/><path fill="#C8CACA" id="sptV" d="M304 275c0 4.42 1.206 0 0 0Z"/><path fill="#C9CACA" id="sctd" d="M165 287v2c-1.56 0-11.027-10.237-9.5-11l5.5 2c0 2.757 4 4.081 4 7Z"/><path fill="#C8C8CB" id="rust" d="M161 280c0 2.757 4 4.081 4 7 4.878 0 7-3.545 7-8l-9-1-2 2ZM295 281c0 2.789-4 3.42-4 6-5.76 0-6-2.949-6-8l9-1 1 3Z"/><path fill="#C9CACA" id="sctd" d="M295 281c1.107 0 4.921-4.659 6-2.5 1.035 2.071-10 13.1-10 8.5 0-2.58 4-3.211 4-6Z"/><path fill="#FCB3D7" id="LRNm" d="M176 280c0 2.456-4.795 3.911-3 7.5 1.117 2.233 16.845 2.845 7-7l-4-.5ZM277 280l-5 5.5c5.578 11.156 19.867-5.5 5-5.5Z"/><path fill="#CBC7CC" id="sctv" d="m172 296 5 2c0-2.649-9.344-9-12-9l5 6h1l1 1ZM283 297l-3 1c0-3.847 3.566-3.066 6.5-6 .717-.717 3.513-4.474 4.5-2.5l-3 4.5-2 1-1 1h-1l-1 1Z"/><path fill="#FF9BCD" id="MY" d="M227 294h2c0-1.399-2-1.399-2 0ZM288 294l-2 1 2-1ZM171 295l1 1-1-1ZM286 295l-1 1 1-1ZM284 296l-1 1 1-1Z"/></svg>