<svg xmlns="http://www.w3.org/2000/svg" viewBox="0 0 456 320"><path fill="#098589" id="VISp1" d="m82 57 3 3 19.5-15c20.405-10.203 39.874-24 64.5-24l-1-4c-25.713 0-47.037 15.269-68.5 26C97.055 44.222 82 54.211 82 57Z"/><path fill="#0A8589" id="VISpm1" d="M175 21h1v-4h-8l1 4h6Z"/><path fill="#1BA696" id="RSPagl1" d="M176 21c6.204 0 11.834 3 17 3l1-5c-5.807 0-11.794-2-18-2v4ZM263 24h1c0-2.884 14.13-3 17-3v-4c-6.326 0-12.181 2-18 2v5Z"/><path fill="#0A8589" id="VISpm1" d="M281 21h6l1-4h-7v4Z"/><path fill="#098589" id="VISp1" d="M371 60h1l2-4c0-2.924-13.915-9.33-15-11.5-2.04-4.079-12.176-7.338-16.5-9.5-16.569-8.285-34.69-18-54.5-18l-1 4c25.23 0 41.717 13.609 62.5 24 2.663 1.331 21.5 12.702 21.5 15Z"/><path fill="#1BA598" id="RSPd1" d="m170 61-1 1-2-1c0-5.537 25.851-18.202 28-22.5 1.54-3.08 5.255-13.5-2-13.5v-1l1-5c4.298 0 14.951 10.597 13 14.5-2.035 4.07-23.312 17.406-27.5 19.5l-8.5 7-1 1ZM286 61c0-1.514 1.762 0 3 0 0-6.66-25.738-17.976-29-24.5-3.562-7.123 3-9.3 3-12.5v-5c-5.133 0-15.732 10.036-13 15.5 2.257 4.513 19.288 13.894 24.5 16.5l6.5 5 1 1 4 4Z"/><path fill="#0A828C" id="VISp2/3" d="M89 67h1l19.5-13c18.93-9.465 37.785-25 60.5-25v-1l-1-7c-24.626 0-44.095 13.797-64.5 24L85 60v1c1.617 0 4 4.583 4 6Z"/><path fill="#08858B" id="VISpm2/3" d="M170 28h4c0-1.819 1-4.59 1-7h-6l1 7Z"/><path fill="#1AA496" id="RSPagl2/3" d="M186 32h1l4-3.5 2-3.5v-1c-5.166 0-10.796-3-17-3h-1c0 2.41-1 5.181-1 7l-1 2c2.274 0 13-3.284 13 2ZM283 30c-2.173 0-13-3.354-13 2-2.604 0-6-5.93-6-8 0-2.884 14.13-3 17-3 0 1.774-.273 7 2 7v2Z"/><path fill="#08858B" id="VISpm2/3" d="M283 28h3c1.714 0 1-5.594 1-7h-6c0 1.774-.273 7 2 7Z"/><path fill="#0A828C" id="VISp2/3" d="M366 67h1c0-2.785 4-3.54 4-7 0-2.298-18.837-13.669-21.5-15-20.783-10.391-37.27-24-62.5-24 0 1.406.714 7-1 7v1c22.403 0 40.858 14.679 59.5 24L366 67Z"/><path fill="#1BA697" id="RSPd2/3" d="m290 61 2 1-8.5-10c-8.429-8.429-13.5-9.297-13.5-20-2.604 0-6-5.93-6-8h-1c0 3.2-6.562 5.377-3 12.5 3.262 6.524 29 17.84 29 24.5h1ZM166 61h1c0-5.537 25.851-18.202 28-22.5 1.54-3.08 5.255-13.5-2-13.5l-2 3.5-4 3.5c0 13.642-22 22.447-22 29h1Z"/><path fill="#09828B" id="VISpm4" d="M171 31h2v-1l1-2h-4v3h1ZM283 30l3 1v-3h-3v2Z"/><path fill="#0B848B" id="VISp4" d="m90 67 3 5c5.413 0 11.722-8.611 16.5-11 15.755-7.877 43.262-30 60.5-30v-2c-22.715 0-41.57 15.535-60.5 25L90 67Z"/><path fill="#1CA697" id="RSPagl5" d="M165 41h4c3.21 0 11.189-4.689 13.5-7l3.5-2c0-5.284-10.726-2-13-2v1l-3 4-5 6ZM288 41h3c0-3.086-4-2.914-4-6-1.533 0-4-3.753-4-5-2.173 0-13-3.354-13 2l17 9h1Z"/><path fill="#0B848B" id="VISp4" d="m366 67-3 5-19.5-13c-16.26-8.13-38.952-28-57.5-28v-2c22.403 0 40.858 14.679 59.5 24L366 67Z"/><path fill="#088489" id="VISpm5" d="m286 31 1 4c-1.533 0-4-3.753-4-5l3 1Z"/><path fill="#088389" id="VISp5" d="M93 73c3.753 0 2.536 7 6 7 5.446 0 11.325-9.413 16.5-12 12.719-6.36 33.639-26 47.5-26l1-1h1l5-6 1-4h-1c-17.238 0-44.745 22.123-60.5 30-4.778 2.389-11.087 11-16.5 11v1Z"/><path fill="#088489" id="VISpm5" d="m173 31-3 4 1-4h2Z"/><path fill="#088389" id="VISp5" d="M357 81h1c0-1.738 3.015-8 5-8v-1l-19.5-13c-16.26-8.13-38.952-28-57.5-28l1 4c0 3.086 4 2.914 4 6h2c5.721 0 11.581 5.54 16.5 8 8.508 4.254 27.471 14.471 34 21L357 81Z"/><path fill="#1AA596" id="RSPd5" d="m155 64 2 1c2.72 0 3.553-2 6-2l1-1h1v-1c0-6.553 22-15.358 22-29h-1l-3.5 2c-2.311 2.311-10.29 7-13.5 7v1c3.826 0-1.626 9.752-2 10.5L155 64ZM302 64l-3 1c-3.3 0-3.1-3-6-3h-1l-8.5-10c-8.429-8.429-13.5-9.297-13.5-20l17 9c0 12.298 3.491 8.483 8 17.5l7 5.5Z"/><path fill="#08858C" id="VISp6a" d="m164 41-1 1 1-1Z"/><path fill="#1CA597" id="RSPagl6a" d="M149 59h1c0-3.595 15.605-17 19-17v-1h-5l-1 1c0 2.992-14 10.273-14 17Z"/><path fill="#FF7AFD" id="SCzo" d="M230 67c0 1.473-1.952 1-3 1 0-1.713-.09-10.68-1-12.5-2.721-5.443-14.695-16.402-22.5-12.5L187 51c0-2.903 19.653-11.923 23.5-10 5.319 2.66 10.442 5.442 15 10l3 7 .5-4.5c1.268-2.536 5.217-6.5 8-6.5 0 2.835-4.577 3.654-6 6.5L230 67ZM294 78l1 1c0-13.467-27.036-30.768-37.5-36-4.422-2.21-20.5-2.528-20.5 4 4.567 0 10.067-6.717 15.5-4 9.443 4.722 41.5 21.976 41.5 35Z"/><path fill="#1AA697" id="RSPd6a" d="M307 61c-2.364 0-3.053 3-5 3l-7-5.5c-4.509-9.017-8-5.202-8-17.5h1c0 1.69 19 13.198 19 18-1.186 0-1.186 1 0 1v1Z"/><path fill="#1CA597" id="RSPagl6a" d="M307 59h1c0-6.916-15-12.032-15-18h-5c0 1.69 19 13.198 19 18Z"/><path fill="#08858C" id="VISp6a" d="m357 81-4 6c-4.326 0-8.702-7.1-12.5-9-8.241-4.12-23.805-19-32.5-19 0-6.916-15-12.032-15-18 5.721 0 11.581 5.54 16.5 8 8.508 4.254 27.471 14.471 34 21L357 81ZM99 81l5 6c5.181 0 9.323-10 15-10 0-1.4 16.146-12 18-12 0-2.109 2.535-2 4-2 0-1.368 5.878-4 7-4h1c0-6.727 14-14.008 14-17-13.861 0-34.781 19.64-47.5 26-5.175 2.587-11.054 12-16.5 12v1Z"/><path fill="#1AA697" id="RSPd6a" d="m149 61 6 3 12-11.5c.374-.748 5.826-10.5 2-10.5-3.395 0-19 13.405-19 17l-1 1v1Z"/><path fill="#FF78FF" id="SCsg" d="M163 74v3c5.304 0 10.859-7.68 15.5-10 8.792-4.396 18.255-7.628 27-12 11.919-5.96 18.319 13 21.5 13 0-1.713-.09-10.68-1-12.5-2.721-5.443-14.695-16.402-22.5-12.5L187 51c0 1.89-6.374 6-8 6l-14 14-1 2-1 1ZM230 67c3.268 0 8.723-17.889 20.5-12 11.08 5.54 22.793 10.397 34 16 2.252 1.126 6.046 7 9.5 7 0-13.024-32.057-30.278-41.5-35-5.433-2.717-10.933 4-15.5 4 0 2.835-4.577 3.654-6 6.5L230 67Z"/><path fill="#FF7AFD" id="SCzo" d="M187 51c-1.822 0-8 3.711-8 6 1.626 0 8-4.11 8-6Z"/><path fill="#FD7AFF" id="SCop" d="m295 82-10.5-7c-8.947-4.474-18.129-8.564-27-13-7.73-3.865-14.69.345-20 3l-7 7-2-2c-1.232-.616-2.073 2.463-5 1l-10-10c-9.887-4.944-33.171 10.085-41 14L161 83v-4l2-2c5.304 0 10.859-7.68 15.5-10 8.792-4.396 18.255-7.628 27-12 11.919-5.96 18.319 13 21.5 13 1.048 0 3 .473 3-1 3.268 0 8.723-17.889 20.5-12 11.08 5.54 22.793 10.397 34 16 2.252 1.126 6.046 7 9.5 7l1 1v3Z"/><path fill="#1BA597" id="RSPv1" d="m281 56 1 1-1-1Z"/><path fill="#09848A" id="VISl1" d="M388 77h1c0-1.747.253-2 2-2 0-1.706-15.211-19-17-19l-2 4c0 4.19 16 11.847 16 17ZM67 77h2c0-3.343 12.657-16 16-16v-1l-3-3c-1.202 0-17 16.847-17 18 1.747 0 2 .253 2 2Z"/><path fill="#FF7AFD" id="SCzo" d="M179 57c-3.442 0-14 10.62-14 14l14-14Z"/><path fill="#08858A" id="VISp6b" d="m148 61-7 2c0-1.368 5.878-4 7-4v2Z"/><path fill="#1AA598" id="RSPagl6b" d="M148 61h1v-2h-1v2Z"/><path fill="#1BA698" id="RSPd6b" d="m150 59-1 1v-1h1ZM307 59c-1.186 0-1.186 1 0 1v-1Z"/><path fill="#1AA598" id="RSPagl6b" d="M308 61h1l-1-2h-1v2h1Z"/><path fill="#08858A" id="VISp6b" d="m353 88-1 1c-4.407 0-16.545-16-23-16 0-1.78-17.581-12-20-12l-1-2c8.695 0 24.259 14.88 32.5 19 3.798 1.9 8.174 9 12.5 9v1Z"/><path fill="#1BA597" id="RSPv1" d="m171 60-1 1 1-1ZM295 68l-1 2-8-9c0-1.514 1.762 0 3 0h1l5 7Z"/><path fill="#0A8489" id="VISl2/3" d="m388 77-5 5-16-15c0-2.785 4-3.54 4-7h1c0 4.19 16 11.847 16 17ZM69 77l4 5 4-3.5c2.736-2.736 12-8.075 12-11.5 0-1.417-2.383-6-4-6-3.343 0-16 12.657-16 16Z"/><path fill="#C9C9CA" id="scwm" d="M127 73h2c6.295 0 10.464-8 17-8l1-1 2-1v-2h-1l-7 2c0 2.109-2.535 2-4 2 0 4.112-10 3.866-10 8Z"/><path fill="#33B932" id="APr" d="m163 69-3 5-11-11v-2l6 3 2 1c0 1.577 1.762 2 3 2l1 1 2 1Z"/><path fill="#1AA597" id="RSPv2/3" d="m166 61-1 1v-1h1Z"/><path fill="#1BA597" id="RSPv1" d="m161 68 2 1 6-7-2-1h-1l-1 1c0 1.417-2.383 6-4 6ZM170 61l-1 1 1-1Z"/><path fill="#FF90FF" id="SCig" d="M153 107c0-4.395 6.696-7.892 8-10.5 3.934-7.868 24.648-17.074 33.5-21.5 4.074-2.037 12.46-7.77 18-5l13 12c7.399 3.7 13.46-9.73 18-12 7.311-3.656 18.593 5.296 24 8 8.391 4.196 35.5 18.91 35.5 29 6.445 0 3-5.572 3-9v-1l-1-1v-1l-1-1-2-4-1-1-2-3v-1h-1l-1-1-2-2-10.5-7c-8.947-4.474-18.129-8.564-27-13-7.73-3.865-14.69.345-20 3l-7 7-2-2c-1.232-.616-2.073 2.463-5 1l-10-10c-9.887-4.944-33.171 10.085-41 14L161 83h-1l-1 1-1 1-1 1-1 1v1l-1 1v1l-1 1-1 1v1l-1 1-1 1v2l-1 1v1c0 3.013-1.144 8 3 8Z"/><path fill="#1AA597" id="RSPv2/3" d="m297 67-2 1-5-7 2 1h1l4 5Z"/><path fill="#33B932" id="APr" d="m294 70 2 4c4.768 0 7.614-11 12-11v-2h-1c-2.364 0-3.053 3-5 3l-3 1c0 1.747-.253 2-2 2l-2 1-1 2Z"/><path fill="#C9C9CA" id="scwm" d="M327 73h2c0-1.78-17.581-12-20-12h-1v2l2 1 17 9Z"/><path fill="#1BA498" id="RSPv5" d="m164 62-1 1 1-1Z"/><path fill="#1AA597" id="RSPv2/3" d="m160 67 1 1c1.617 0 4-4.583 4-6h-1l-1 1-3 4Z"/><path fill="#1BA498" id="RSPv5" d="M299 65c0 1.747-.253 2-2 2l-4-5c2.9 0 2.7 3 6 3Z"/><path fill="#08858A" id="VISp6b" d="M141 63c-1.465 0-4-.109-4 2 1.465 0 4 .109 4-2Z"/><path fill="#47C83C" id="POST" d="m117 109 23 1c1.996 0 4.222-6.945 5-8.5 2.995-5.99 15-21.89 15-27.5l-11-11-2 1-1 1-6 6-1 1-1 1-5 6-1 1-2 4-1 1-1 3-1 1-10 20Z"/><path fill="#1BA498" id="RSPv5" d="M157 65c0 1.577 1.762 2 3 2l3-4c-2.447 0-3.28 2-6 2Z"/><path fill="#47C83C" id="POST" d="m339 109-23 1-5-7.5c-1.004-2.008-.976-4.952-2-7-3.116-6.233-13-14.385-13-21.5 4.768 0 7.614-11 12-11l2 1c0 3.713 7 5.227 7 8l8 9v1l2 2 1 3 1 1v1c0 7.107 10 12.62 10 20Z"/><path fill="#C8C9CA" id="fp" d="m147 64-1 1 1-1ZM359 99l-1 2-5.5-6c-6.264-3.132-21.305-19-27.5-19l-8-4c0-2.773-7-4.287-7-8l17 9c0 2.115 5.996 5.248 7.5 6 2.727 1.364 24.5 18.18 24.5 20Z"/><path fill="#08858A" id="VISp6b" d="m127 73-8 4c0-1.4 16.146-12 18-12 0 4.112-10 3.866-10 8Z"/><path fill="#C8C9CA" id="fp" d="m97 99 1 2 9.5-9c3.42-3.42 20.429-16 24.5-16l6-3 1-1 1-1 6-6c-6.536 0-10.705 8-17 8 0 2.056-21.213 15.713-24 18.5L97 99Z"/><path fill="#08828B" id="VISl4" d="m73 83 4 2 16-12v-1l-3-5h-1c0 3.425-9.264 8.764-12 11.5L73 82v1ZM379 85h1l3-2v-1l-16-15h-1l-3 5v1c2.713 0 9.914 6.414 12.5 9l3.5 3Z"/><path fill="#FF90FE" id="SCiw" d="M287 112c0-6.202-16.345-16.423-21.5-19-6.422-3.211-10.395-8.697-17-12-7.886-3.943-16.041 7.48-23 4-3.842-1.921-12.829-6.586-18-4-6.899 3.45-12.007 10.504-19 14-6.388 3.194-18.5 11.133-18.5 18-5.905 0-11.819-6-17-6 0-4.395 6.696-7.892 8-10.5 3.934-7.868 24.648-17.074 33.5-21.5 4.074-2.037 12.46-7.77 18-5l13 12c7.399 3.7 13.46-9.73 18-12 7.311-3.656 18.593 5.296 24 8 8.391 4.196 35.5 18.91 35.5 29-2.358 0-10.048 5-16 5Z"/><path fill="#7DCD4B" id="HPF" d="m140 71-1 1 1-1Z"/><path fill="#FF7AFD" id="SCzo" d="m165 71-1 2 1-2Z"/><path fill="#7DCD4B" id="HPF" d="m139 72-1 1 1-1ZM325 76c-3.772 0 0 3.753 0 5l-8-9 8 4Z"/><path fill="#0B858B" id="VISl5" d="M83 94h1c0-1.782 13.576-13 15-13v-1c-3.464 0-2.247-7-6-7L77 85v1c0 3.05 6 4.483 6 8Z"/><path fill="#CBC9C7" id="or" d="m71 125-1 4c3.454 0 3.046-7 7-7 0-2.099 17.783-23 20-23l8-7.5c2.787-2.787 24-16.444 24-18.5h-2l-8 4c0 2.477-8.936 7.718-11.5 9l-3.5 3h-1c0 1.747-.253 2-2 2 0 1.747-.253 2-2 2 0 1.747-.253 2-2 2 0 1.747-.253 2-2 2 0 1.797-2.203 4-4 4v1l-1 1h-1c0 1.747-.253 2-2 2 0 1.747-.253 2-2 2 0 2.645-7.803 12-10 12 0 1.664-1.823 6-4 6Z"/><path fill="#7DCD4B" id="HPF" d="M132 76c1.473 0 1 1.952 1 3l5-6-6 3Z"/><path fill="#FF7AFD" id="SCzo" d="m164 73-1 1 1-1Z"/><path fill="#CBC9C7" id="or" d="M366 102c0 4.751 21 19.763 21 27-3.382 0-22.582-30-28-30 0-1.82-21.773-18.636-24.5-20-1.504-.752-7.5-3.885-7.5-6h2c6.455 0 18.593 16 23 16l14 13Z"/><path fill="#0B858B" id="VISl5" d="M379 85c0 4.16-6 5.46-6 9l-15-13c0-1.738 3.015-8 5-8 2.713 0 9.914 6.414 12.5 9l3.5 3Z"/><path fill="#FF7AFD" id="SCzo" d="m163 77-2 2c0-1.424.362-5 2-5v3Z"/><path fill="#0C858C" id="VISli1" d="M59 87h1c1.541 0 7-8.181 7-10 0-1.747-.253-2-2-2-1.782 0-8 8.284-8 10l2 2ZM396 87h1c0-1.481 2-.785 2-3 0-1.986-6.511-9-8-9-1.747 0-2 .253-2 2 0 3.967 7 6.234 7 10Z"/><path fill="#C9CCC9" id="dhc" d="M111 107H97.5l-4.5 2-1-2 6-6 9.5-9c3.42-3.42 20.429-16 24.5-16 1.473 0 1 1.952 1 3l-1 1-2 4-1 1-1 3-1 1c-2.483 0-7.028 9.556-8 11.5l-8 6.5ZM364 107v2l-5.5-2H345l-4.5-4c-2.941-2.941-8.55-14-11.5-14v-1l-1-1-1-3-2-2v-1c0-1.247-3.772-5 0-5 6.195 0 21.236 15.868 27.5 19l5.5 6 6 6Z"/><path fill="#0A858A" id="VISli2/3" d="M60 87c0 1.654 3.74 5 5 5l8-9v-1l-4-5h-2c0 1.819-5.459 10-7 10Z"/><path fill="#08858A" id="VISp6b" d="M104 88v1l3.5-3c2.564-1.282 11.5-6.523 11.5-9-5.677 0-9.819 10-15 10v1Z"/><path fill="#0A858A" id="VISli2/3" d="M396 87c0 2.101-2.831 5-5 5l-8-9v-1l5-5h1c0 3.967 7 6.234 7 10Z"/><path fill="#7DCD4B" id="HPF" d="m133 79-1 1 1-1Z"/><path fill="#08848C" id="VISl6a" d="M90 101h1c0-2.226 1.774-4 4-4 0-1.747.253-2 2-2 0-1.747.253-2 2-2 0-1.747.253-2 2-2 0-1.747.253-2 2-2l1-1v-1l-5-6c-1.424 0-15 11.218-15 13 0 2.696 5 3.847 5 7h1Z"/><path fill="#FF8FFF" id="SCdg" d="M277 122h2l3.5-2c1.234-.617 4.5-6.542 4.5-8 0-6.202-16.345-16.423-21.5-19-6.422-3.211-10.395-8.697-17-12-7.886-3.943-16.041 7.48-23 4-3.842-1.921-12.829-6.586-18-4-6.899 3.45-12.007 10.504-19 14-6.388 3.194-18.5 11.133-18.5 18 0 3.399 7 7.04 7 9h3l11-3-1-9.5A45.719 45.719 0 0 1 210.5 89l17.5 2 18.5-2c7.251 3.625 16.074 11.648 19.5 18.5V119c3.818 0 6.678 3 11 3Z"/><path fill="#FF64FF" id="MB" d="M295 82h1l-1-1v1Z"/><path fill="#08848C" id="VISl6a" d="M366 101h1c0-2.103 4.468-6 6-6v-1l-15-13h-1l-4 6v1l13 13Z"/><path fill="#C7CBCB" id="bsc" d="M160 83h1v-1l-2 1h1ZM298 85h1l-3-3h-1l2 2 1 1Z"/><path fill="#7DCD4B" id="HPF" d="m325 82 2 2-2-2Z"/><path fill="#08828C" id="VISli4" d="M67 95h1c0-2.51 6.43-9 9-9v-1l-4-2-8 9v1l2 2Z"/><path fill="#C7CBCB" id="bsc" d="m159 84-1 1 1-2v1Z"/><path fill="#FF64FF" id="MB" d="m160 83-1 1v-1h1Z"/><path fill="#08828C" id="VISli4" d="m391 93-2 1-9-9 3-2 8 9v1Z"/><path fill="#7DCD4B" id="HPF" d="m130 84-1 1 1-1Z"/><path fill="#FF64FF" id="MB" d="m297 84 1 1-1-1Z"/><path fill="#09818C" id="VISpor1" d="m411 99-2 4-3-3.5c-2.349-2.35-9-9.993-9-12.5 0-1.481 2-.785 2-3l2.5 3c1.68.84 9.5 9.897 9.5 12ZM46 99l1 5 3-3.5c2.31-2.31 9-10.216 9-13.5l-2-2c-2.784 0-11 11.695-11 14Z"/><path fill="#C7CBCB" id="bsc" d="m158 85-1 1 1-1Z"/><path fill="#0A848A" id="VISli5" d="M379 103h2c0-.943 6.778-7 8-7v-2l-9-9h-1c0 4.16-6 5.46-6 9v1c1.46 0 6 6.472 6 8ZM77 102l-1 1-8-8c0-2.51 6.43-9 9-9 0 3.05 6 4.483 6 8 0 3.374-6 5.875-6 8Z"/><path fill="#C7CBCB" id="bsc" d="m157 86-1 1 1-1ZM304 94h1c0-1.822-3.711-8-6-8l2 3 1 1 2 4Z"/><path fill="#0A8389" id="VISpor2/3" d="M47 106c0 3.582-.048 14 1 14 0-2.91 14.65-27 17-27v-1c-1.26 0-5-3.346-5-5h-1c0 3.284-6.69 11.19-9 13.5l-3 3.5v2Z"/><path fill="#C7CBCB" id="bsc" d="M155 88h1v-1l-1 1Z"/><path fill="#7DCD4B" id="HPF" d="m328 87 1 1-1-1Z"/><path fill="#0A8389" id="VISpor2/3" d="M408 120h1c0-3.882.333-13 1-13v-1l-1-1v-2l-3-3.5c-2.349-2.35-9-9.993-9-12.5h-1c0 2.101-2.831 5-5 5v1c3.466 0 17 22.73 17 27Z"/><path fill="#09858C" id="VISl6b" d="M103 89h1v-1l-1 1Z"/><path fill="#7DCD4B" id="HPF" d="m128 88-1 1 1-1Z"/><path fill="#FF64FF" id="MB" d="m156 88-1 1v-1h1Z"/><path fill="#09858C" id="VISl6b" d="M366 101v1l-14-13 1-1 13 13ZM103 89c-1.747 0-2 .253-2 2 1.747 0 2-.253 2-2Z"/><path fill="#7DCD4B" id="HPF" d="m112 108 5 1 10-20c-2.483 0-7.028 9.556-8 11.5l-8 6.5 1 1Z"/><path fill="#C7CBCB" id="bsc" d="M154 90h1v-1l-1 1Z"/><path fill="#FF8FFE" id="SCdw" d="M193 120c0-11.176 6.871-22.686 17.5-28l15.5 1 19.5-1c9.24 4.62 18.5 16.153 18.5 28l2-1v-11.5c-3.426-6.852-12.249-14.875-19.5-18.5L228 91l-17.5-2a45.719 45.719 0 0 0-20.5 20.5l1 9.5 2 1Z"/><path fill="#FF64FF" id="MB" d="m301 89 1 1-1-1Z"/><path fill="#7DCD4B" id="HPF" d="M339 109h1l5-1v-1l-4.5-4c-2.941-2.941-8.55-14-11.5-14 0 7.107 10 12.62 10 20Z"/><path fill="#C7CBCB" id="bsc" d="M153 91h1v-1l-1 1Z"/><path fill="#FF64FF" id="MB" d="m155 90-1 1v-1h1Z"/><path fill="#09858C" id="VISl6b" d="M101 91c-1.747 0-2 .253-2 2 1.747 0 2-.253 2-2Z"/><path fill="#FF64FF" id="MB" d="m154 91-1 1v-1h1Z"/><path fill="#C7CBCB" id="bsc" d="M152 93h1v-1l-1 1Z"/><path fill="#FC8FFF" id="PAG" d="M212 149h1c4.88 0 13-5.773 13-11-3.711 0-10.921 11.79-16.5 9-3.366-1.683-.505-6.748 2-8 2.756-1.378 9.297-5.851 13-4l1.5 2c0-4.725 1-9.879 1-14l-3-5.5c2.519-5.038 5.481-5.038 8 0l-3 6.5c0 .17 2 7.269 2 11 4.791 0 14.67 1.84 17 6.5.978 1.956-1 4.077-1 5.5 4.84 0 16-15.944 16-20l1-7c0-11.847-9.26-23.38-18.5-28L226 93l-15.5-1c-10.629 5.314-17.5 16.824-17.5 28v7c0 4.12 12.736 21 18 21l1 1Z"/><path fill="#0A828A" id="VISpor4" d="m48 121 1 4 7-13.5L67 95l-2-2c-2.35 0-17 24.09-17 27 1.186 0 1.186 1 0 1Z"/><path fill="#09858C" id="VISl6b" d="M99 93c-1.747 0-2 .253-2 2 1.747 0 2-.253 2-2Z"/><path fill="#C7CBCB" id="bsc" d="m152 94-1 1 1-2v1Z"/><path fill="#FF64FF" id="MB" d="m153 93-1 1v-1h1Z"/><path fill="#0A828A" id="VISpor4" d="m409 122-2 4c0-4.273-15.656-30-18-30v-2l2-1c3.466 0 17 22.73 17 27l1 1v1Z"/><path fill="#088488" id="VISli6a" d="M88 103h1v-2c0-3.153-5-4.304-5-7h-1c0 3.374-6 5.875-6 8 .672 0 11-.67 11 1Z"/><path fill="#FF64FF" id="MB" d="M305 94v1l-1-1h1Z"/><path fill="#0B838A" id="VISpor5" d="M49 130c3.098 0 3.508 8 8 8 2.022 0 3.127-10.754 4-12.5 1.636-3.273 15-21.082 15-22.5l-8-8h-1l-11 16.5-7 13.5v5Z"/><path fill="#09858C" id="VISl6b" d="M97 95c-1.747 0-2 .253-2 2 1.747 0 2-.253 2-2Z"/><path fill="#C7CBCB" id="bsc" d="M150 97h1v-2l-1 2ZM306 98h1c0-1.238-.423-3-2-3v1l1 1v1Z"/><path fill="#088488" id="VISli6a" d="M368 102c3.806 0 7.751 1 11 1 0-1.528-4.54-8-6-8-1.532 0-6 3.897-6 6v1h1Z"/><path fill="#FF64FF" id="MB" d="m305 96 1 1-1-1Z"/><path fill="#0B838A" id="VISpor5" d="M407 130c0 1.916-5.679 9-8 9 0-8.527-6.384-17.268-10-24.5-1.694-3.389-8-7.663-8-11.5 0-.943 6.778-7 8-7 2.344 0 18 25.727 18 30v4Z"/><path fill="#09858C" id="VISl6b" d="M95 97c-2.226 0-4 1.774-4 4 1.797 0 4-2.203 4-4Z"/><path fill="#C7CBCB" id="bsc" d="M149 99h1v-2l-1 2Z"/><path fill="#FF64FF" id="MB" d="m151 97-1 1v-1h1ZM279 189c0 .918 3.595 1.548 4.5 2 1.117.559 14.571 4 15.5 4 1.845 0 1.441-3.381 2-4.5l7.5-9.5 3.5 1c0-6.475 4.205-14.91 7-20.5.498-.996 2-24.097 2-26.5-1.019 0-3.002 3.495-4 1.5-2.494-4.988.565-12.87-2-18-1.615-3.229-9.183-8.635-7-13l4 1.5-5-9h-1c0 3.428 3.445 9-3 9-2.358 0-10.048 5-16 5 0 1.458-3.266 7.383-4.5 8l-3.5 2 10.5-1c2.039 1.019 9.632 5 11.5 5l1-5 3-4.5c7.261-7.261 11.894 13.303 9.5 14.5-2.968 1.484-6.933 1-10.5 1l-1 15c7.827 0 6 3.477 6 10 2.841 0 1.549-6.524 4.5-8 2.921-1.461 2.892 2.285 3.5 3.5 3.38 6.759-8 19.211-8 5.5l-5.5 3c-3.349 1.675-6.241-2-8.5-2 0 3.882-6 5.862-6 9l8 7.5c2.027 4.053-2.09 11.795-5.5 13.5H279Z"/><path fill="#15B0B3" id="TEa1" d="M36 132h1c0-4.204 6.581-26 10-26v-1c-1.186 0-1.186-1 0-1l-1-5c-2.268 0-4.228 5.956-5 7.5-4.339 8.677-10 16.016-10 26.5l5-1Z"/><path fill="#C8CBCC" id="ec" d="m79 121-2 1c0-2.099 17.783-23 20-23l1 2-6 6c-1.901 0-5 4.332-5 6-1.747 0-2 .253-2 2l-1 1-1 1-1 1-1 1-1 1-1 1Z"/><path fill="#FF64FF" id="MB" d="M177 190c-7.175 0-13.505 5-20 5 0-3.358-6.147-12.324-9.5-14-2.377-1.189-2.116 2-3.5 2 0-7.761-3.727-15.954-7-22.5l-1-25.5 2.5 2 1.5-4 1-13.5c1.122-2.244 9.161-10.678 8-13-1.113-2.225-2.212-.5-4-.5l4-7h1c0 3.013-1.144 8 3 8 5.181 0 11.095 6 17 6 0 3.399 7 7.04 7 9-4.593 0-10.009-2.245-14.5 0l-7.5 4c0-2.378-.029-3.559-1-5.5-8.165-16.329-16.951 8.275-10.5 11.5h9.5c0 2.014-2.284 5.932-1 8.5l2 6.5c-4.17 0-8-.175-8 6l-4.5-4c-8.944 4.472 3.35 19.801 6.5 13.5l-1-5.5 6.5 4 7.5-1 6 8-8 8.5c-1.617 3.235 2.93 11.215 5.5 12.5H177v1Z"/><path fill="#C8CBCC" id="ec" d="M386 177h1c0-3.172 2.492-11.484 4-14.5 3.069-6.139-1-19.46-1-25.5 0-2.748-3-5.804-3-8-3.382 0-22.582-30-28-30l-1 2 6 6c1.716 0 19 19.433 19 22v2l1 1 1 5v1c2.342 0 2 7.951 2 10v2c1.647 0 1.647 15 0 15v1l-1 11Z"/><path fill="#15B0B3" id="TEa1" d="m420 132 5 1c0-9.432-4.089-17.678-8-25.5l-6-8.5-2 4v1l1 1v2c1.891 0 10 20.735 10 24v1Z"/><path fill="#08818B" id="VISli6b" d="m91 102-1 1-1-1v-1h1l1 1Z"/><path fill="#09858C" id="VISl6b" d="M91 101v1l-1-1h1Z"/><path fill="#08818B" id="VISli6b" d="M366 102h1v-1h-1v1Z"/><path fill="#0B838A" id="VISpor5" d="m77 102-1 1 1-1Z"/><path fill="#0C858B" id="VISpor6a" d="m57 140 4 1 3-2c0-2.653 3.716-14 7-14 0-2.244 1.725-6 4-6 0-2.8 7.603-12 10-12 0-1.747.253-2 2-2l1-2c0-1.67-10.328-1-11-1l-1 1c0 1.418-13.364 19.227-15 22.5-.873 1.746-1.978 12.5-4 12.5v2Z"/><path fill="#0C848C" id="VISpor6b" d="M89 103h1l-1-1v1ZM390 137l3 2c0-9.635-11.858-19.217-16-27.5-1.037-2.074-9-6.388-9-9.5h-2c0 4.751 21 19.763 21 27 0 2.196 3 5.252 3 8Z"/><path fill="#0C858B" id="VISpor6a" d="M397 141h1l1-1v-1c0-8.527-6.384-17.268-10-24.5-1.694-3.389-8-7.663-8-11.5h-2c-3.249 0-7.194-1-11-1 0 3.112 7.963 7.426 9 9.5 4.142 8.283 16 17.865 16 27.5l3 2h1Z"/><path fill="#0C848C" id="VISpor6b" d="M89 103c0 1.747-.253 2-2 2l1-2h1Z"/><path fill="#09818C" id="VISpor1" d="M47 104c-1.186 0-1.186 1 0 1v-1ZM409 105h1l-1-1v1Z"/><path fill="#0C848C" id="VISpor6b" d="M87 105c-1.747 0-2 .253-2 2 1.747 0 2-.253 2-2Z"/><path fill="#C9C8C8" id="bic" d="M139 115c0 4.704-4 9.469-4 14.5 0 1.278-.665 5.5 1 5.5l2.5 2 1.5-4 1-13.5c1.122-2.244 9.161-10.678 8-13-1.113-2.225-2.212-.5-4-.5l-6 9ZM312 107c5.051 0 9 22.654 9 28-1.019 0-3.002 3.495-4 1.5-2.494-4.988.565-12.87-2-18-1.615-3.229-9.183-8.635-7-13l4 1.5Z"/><path fill="#16AFB3" id="TEa2/3" d="M410 105v1l-1-1h1ZM46 129c0 1.139-7.742 3-9 3 0-4.204 6.581-26 10-26 0 3.582-.048 14 1 14v1c-1.572 0-2.875 8-2 8Z"/><path fill="#0C848C" id="VISpor6b" d="M85 107c-2.397 0-10 9.2-10 12 2.197 0 10-9.355 10-12Z"/><path fill="#7DCD4B" id="HPF" d="M93 109c0 1.028-4.666 4-6 4 0-1.668 3.099-6 5-6l1 2Z"/><path fill="#C7C8CC" id="alv" d="M79 121v2l10.5-9c6.097-3.048 15.369-6 22.5-6l-1-1H97.5l-4.5 2c0 1.028-4.666 4-6 4l-2 2-1 1-1 1-1 1-1 1-1 1-1 1ZM384 132l1 5-2.5-4c-2.931-2.931-3.898-7.898-7.5-11.5-7.923-7.923-18.334-13.5-30-13.5v-1h13.5l5.5 2 5 4.5 10 10c.606 1.212 2.24 5.5 4 5.5v2l1 1Z"/><path fill="#7DCD4B" id="HPF" d="m364 109 5 4.5 10 10c.606 1.212 2.24 5.5 4 5.5 0-2.567-17.284-22-19-22v2Z"/><path fill="#16AFB3" id="TEa2/3" d="M411 130c3.18 0 5.003 1 9 1 0-3.265-8.109-24-10-24-.667 0-1 9.118-1 13v2c0 2.522 2 4.909 2 8Z"/><path fill="#4FC244" id="SUB" d="M107 213c-2.72 0-3.553 2-6 2-4.115 0-6.36-3-10-3 0-1.247-2.467-5-4-5v-1l-2-2v-1l-10-16.5c-.883-1.765-1.45-10.5-4-10.5v-1c0-7.351-2-13.482-2-21 1.205 0 2-13.074 2-15 1.353 0 2-4.643 2-6 2.109 0 2-2.535 2-4l1-2c1.712 0 3-2.571 3-4l10.5-9c6.097-3.048 15.369-6 22.5-6l5 1-10 20.5c-4.146 8.291-3.881 18.763-8 27-5.938 11.876 9 41.958 9 53.5l-1 3ZM365 212c-3.375 0-5.875 3-10 3l-6-3-1-2c0-12.34 15.158-36.184 9-48.5v-8l-10-30c-2.392-4.785-7-8.742-7-14.5l5-1c11.666 0 22.077 5.577 30 13.5 3.602 3.602 4.569 8.569 7.5 11.5l2.5 4v1c0 1.249 1.074 10 2 10v18c-1.341 0-2 9.28-2 11-1.845 0-1.441 3.381-2 4.5l-6 13.5c-1.577 0-2 1.762-2 3-1.577 0-2 1.762-2 3l-1 2-1 1-1 1-1 2c-1.577 0-2 1.762-2 3l-1 1-1 1Z"/><path fill="#59B847" id="PRE" d="M113 212h4l3-2c0-7.893 3-15.608 3-24 0-1.145-.579-4 1-4v-6l1-1c0-12.228 2.903-34.307 8-44.5 1.267-2.534 2.03-15.5 6-15.5l1-5-23-1-10 20.5c-4.146 8.291-3.881 18.763-8 27-5.938 11.876 9 41.958 9 53.5l5 2ZM339 211l4 1 5-2c0-12.34 15.158-36.184 9-48.5v-8l-10-30c-2.392-4.785-7-8.742-7-14.5h-1l-23 1c0 1.812 6.729 16.958 8 19.5 3.134 6.268 7 35.088 7 43.5l1 1v6l1 1v8l1 2 2 19 3 1Z"/><path fill="#7DCD4B" id="HPF" d="M87 113c-1.747 0-2 .253-2 2l2-2Z"/><path fill="#A9A9A8" id="AQ" d="m227 123 2 1 3-6.5c-2.519-5.038-5.481-5.038-8 0l3 5.5Z"/><path fill="#7DCD4B" id="HPF" d="m85 115-1 1 1-1Z"/><path fill="#FE79FE" id="ICe" d="M155 126c0 3.128-2 5.28-2 6h-9.5c-6.451-3.225 2.335-27.829 10.5-11.5.971 1.941 1 3.122 1 5.5ZM301 126c0 2.607-.416 6 3 6 3.567 0 7.532.484 10.5-1 2.394-1.197-2.239-21.761-9.5-14.5l-3 4.5-1 5Z"/><path fill="#7DCD4B" id="HPF" d="m84 116-1 1 1-1ZM83 117l-1 1 1-1ZM82 118l-1 1 1-1Z"/><path fill="#0C848C" id="VISpor6b" d="M75 119c-2.275 0-4 3.756-4 6 2.177 0 4-4.336 4-6Z"/><path fill="#7DCD4B" id="HPF" d="m81 119-1 1 1-1Z"/><path fill="#FF64FF" id="MB" d="M180 122c0 1.781 6.197 1.348 7.5 2 1.873.936 3.23 3 5.5 3v-7l-2-1-11 3ZM277 122c0 2.064-3.353.426-4.5 1l-9.5 4 1-7 2-1c3.818 0 6.678 3 11 3Z"/><path fill="#15B0B2" id="TEa4" d="M48 120c1.186 0 1.186 1 0 1v-1Z"/><path fill="#7DCD4B" id="HPF" d="m80 120-1 1 1-1Z"/><path fill="#15B0B2" id="TEa4" d="M409 120v1l-1-1h1ZM48 130h1v-4c-1.186 0-1.186-1 0-1l-1-4c-1.572 0-2.875 8-2 8l2 1Z"/><path fill="#7DCD4B" id="HPF" d="m79 123-2 1v-2l2-1v2Z"/><path fill="#FF8FFD" id="MRN" d="M204 186c-3.378 0-10.693-2.904-14.5-1l-5.5 2-1-1c0-3.48 5.245-7.009 3-11.5-4.335-8.67-12.091-6.5-19-6.5l-6-8c0-2.624-1.251-13-7-13l-2-6.5c-1.284-2.568 1-6.486 1-8.5 0-.72 2-2.872 2-6l7.5-4c4.491-2.245 9.907 0 14.5 0h3c0 1.781 6.197 1.348 7.5 2 1.873.936 3.23 3 5.5 3 0 4.12 12.736 21 18 21l1 1h1c0 1.114 2.034 4 3 4l4 6c0 2.361-.4 5-3 5-8.072 0-10 14.305-10 21l-3 1ZM252 186c3.476 0 10.654-2.923 14.5-1l5.5 2 1-2c0-2.842-4.633-6.233-3-9.5 4.602-9.204 11.007-7.5 19-7.5 0-3.138 6-5.118 6-9 0-3.169 2.635-12 8-12l1-15c-3.416 0-3-3.393-3-6-1.868 0-9.461-3.981-11.5-5l-10.5 1h-2c0 2.064-3.353.426-4.5 1l-9.5 4c0 4.056-11.16 20-16 20l-1 1-2 1-4 4c0 2.773-4 3.67-4 6 0 1.408 1.197 5 3 5 8.668 0 10 13.381 10 21l3 1Z"/><path fill="#C8CBCC" id="ec" d="M70 178h1v-3c-1.951 0-.477-2.454-1-3.5-1.554-3.107-2-8.933-2-12.5 0-1.235-.643-5 1-5 0-2.676-.09-15 2-15l1-6 1-1v-1l1-2 1-2 1-2 1-1v-2c-3.954 0-3.546 7-7 7l-4 8c0 6.207-2.76 22.981 0 28.5 1.262 2.524 4 9.937 4 12.5Z"/><path fill="#15B0B2" id="TEa4" d="M408 130h3c0-3.091-2-5.478-2-8l-2 4v2l1 2Z"/><path fill="#C7C8CC" id="alv" d="M76 125v2c1.712 0 3-2.571 3-4l-2 1-1 1Z"/><path fill="#FF64FF" id="MB" d="M243 190h1c0-9.375-5-17.375-5-26-1.803 0-3-3.592-3-5l-2.5 5c-1.271 0-3.097-3.306-2.5-4.5l5-4.5c-7.978 0 1.071-11.358 4-5.5l-1 3.5h1l4-4c-4.933 0-13-4.87-13-10v-4c0-3.731-2-10.83-2-11l-2-1c0 4.121-1 9.275-1 14v1c0 5.227-8.12 11-13 11 0 1.114 2.034 4 3 4h1v-3.5c3.169-6.338 9.997 5.5 4 5.5 0 1.362 4 3.389 4 8 1.865 0 5.2-.65 6.5 0l3.5 3c0-3.328 3.651 2.802 4 3.5 2.485 4.97-2 13.914-2 3.5l-4 2c0 2.798 3.992 7.516 2 11.5-2.531 5.062-11.412 5.177-14 0-2.011-4.023 2-8.411 2-11.5l-4-3-.5 7c-1.778.889-2.131-7.238-1.5-8.5.326-.652 5-8.735 5-4.5l2-2-4-5c0 2.361-.4 5-3 5 0 7.448-5 17.18-5 26h3c0-2.434 3-3.962 3-1 4.324 0 5.039 2.269 8.5 4 3.485 1.742 7.806-4 11.5-4 0-3.137 3-1.969 3 1h2Z"/><path fill="#7DCD4B" id="HPF" d="m77 124-1 1 1-1Z"/><path fill="#0A828A" id="VISpor4" d="M49 125c-1.186 0-1.186 1 0 1v-1Z"/><path fill="#0C848C" id="VISpor6b" d="m66 137-2 2c0-2.653 3.716-14 7-14l-1 4-4 8Z"/><path fill="#7DCD4B" id="HPF" d="M75 127h1v-2l-1 2ZM74 129h1v-2l-1 2Z"/><path fill="#C7C8CC" id="alv" d="m76 127-1 2v-2h1Z"/><path fill="#15AFB3" id="TEa5" d="M407 130h1l-1-2v2Z"/><path fill="#0D9F91" id="ECT2/3" d="M37 143h1c2.526 0 5.577-2 9-2l1-11-2-1c0 1.139-7.742 3-9 3h-1c0 3.806 1 7.751 1 11Z"/><path fill="#7DCD4B" id="HPF" d="m74 129-1 2 1-2Z"/><path fill="#C7C8CC" id="alv" d="M73 132v1c2.109 0 2-2.535 2-4h-1l-1 2v1Z"/><path fill="#0D9E90" id="ECT5" d="M57 141v1l-6.5-3v2H47l1-11h1c3.098 0 3.508 8 8 8v3Z"/><path fill="#0D9E90" id="ECT5" fill-rule="evenodd" d="M405 139c0 1.93 1.93 0 0 0m4 1v1c-3.947 0-6.628-1-10-1v-1c2.321 0 8-7.084 8-9h1c0 2.69 1 6.675 1 10Z"/><path fill="#0D9F91" id="ECT2/3" d="M409 140c3.665 0 6.335 3 10 3l2-4.5-1-6.5v-1c-3.997 0-5.82-1-9-1h-3c0 2.69 1 6.675 1 10Z"/><path fill="#7DCD4B" id="HPF" d="m383 131 1 1-1-1Z"/><path fill="#0D9F90" id="ECT1" d="m37 143-4 4c-3.118 0-2-11.531-2-14l5-1c0 3.806 1 7.751 1 11Z"/><path fill="#7DCD4B" id="HPF" d="M72 133h1v-1l-1 1Z"/><path fill="#0D9F90" id="ECT1" d="m419 143 4 4c4.189 0 2-12.103 2-14l-5-1 1 6.5-2 4.5Z"/><path fill="#C7C8CC" id="alv" d="M73 133c0 1.357-.647 6-2 6l1-6h1Z"/><path fill="#FD90FC" id="Su3" d="m226 137-1.5-2c-3.703-1.851-10.244 2.622-13 4-2.505 1.252-5.366 6.317-2 8 5.579 2.79 12.789-9 16.5-9v-1ZM231 139c5.449 0 9.682 8 16 8 0-1.423 1.978-3.544 1-5.5-2.33-4.66-12.209-6.5-17-6.5v4Z"/><path fill="#32B824" id="ENTl6a" d="m91 212-6 7c-2.321 0-12.507-11.514-14-14.5-3.126-6.251-6.912-11.823-10-18-5.04-10.08-3-31.036-3-43.5l1-1 2-1 3-2 2-2c0 6.207-2.76 22.981 0 28.5 1.262 2.524 4 9.937 4 12.5 0 1.799 3.249 11 5 11v1l2 2c0 1.559 6.57 11 8 11v1l2 2v1l4 5ZM371 220h1l7-7.5c4.432-4.432 9.061-10.123 12-16 7.558-15.116 8-35.457 8-53.5l-2-1-1-1-3-2-3-2c0 6.04 4.069 19.361 1 25.5-1.508 3.016-4 11.328-4 14.5l-1 1-1 2v1l-1 2-1 2v1l-1 2-1 1c0 1.417-2.383 6-4 6 0 1.238-.423 3-2 3 0 1.238-.423 3-2 3l-1 2-1 1-1 1-1 2c0 1.238-.423 3-2 3l-1 1v1l5 8Z"/><path fill="#C7C8CC" id="alv" d="M385 138c2.342 0 2 7.951 2 10-.926 0-2-8.751-2-10Z"/><path fill="#0F9684" id="PERI5" d="m53 147-4 1-2-7h3.5v-2l6.5 3v1l-4 4Z"/><path fill="#C7C8CC" id="alv" d="M71 139c-2.09 0-2 12.324-2 15 1.205 0 2-13.074 2-15Z"/><path fill="#FC8FFF" id="PAG" d="m246 148-2 1c-4.933 0-13-4.87-13-10 5.449 0 9.682 8 16 8l-1 1Z"/><path fill="#0F9684" id="PERI5" d="M405 139c0 1.93 1.93 0 0 0Z"/><path fill="#0E9F91" id="ECT6a" d="m61 141-2 1-2-1v-1l4 1ZM398 141h1v-1l-1 1Z"/><path fill="#0F9684" id="PERI5" d="m403 146 5 3 1-8c-3.947 0-6.628-1-10-1v1l1 2 3 3Z"/><path fill="#0E9583" id="PERI2/3" d="M409 150c2.607 0 4.913 3 7 3 0-3.285 3-7.16 3-10-3.665 0-6.335-3-10-3v1l-1 8 1 1ZM47 150l-7 3-2-10c2.526 0 5.577-2 9-2l2 7-2 2Z"/><path fill="#0E9684" id="PERI6a" d="m59 142-1 1-1-1v-1l2 1Z"/><path fill="#0E9F91" id="ECT6a" d="M397 141v1l-1-1h1Z"/><path fill="#0E9684" id="PERI6a" d="M399 143h1l-1-2h-2v1l2 1Z"/><path fill="#0E9F91" id="ECT6a" d="M57 143h1l-1-1v1Z"/><path fill="#0E9584" id="PERI1" d="m40 153-5 4c0-3.526-2-8.954-2-10l4-4h1l2 10Z"/><path fill="#31B824" id="ENTl5" d="m85 221-4 5c-4.253 0-11.926-8.351-14-12.5-2.595-5.189-7.447-8.895-10-14l-6-17c-2.956-5.911 2-27.89 2-35.5l4-4h1c0 12.464-2.04 33.42 3 43.5 3.088 6.177 6.874 11.749 10 18 1.493 2.986 11.679 14.5 14 14.5v2ZM375 227h1l8-6.5c5.614-5.614 11.581-13.162 15-20 9.328-18.656 4-34.384 4-54.5l-3-3h-1c0 18.043-.442 38.384-8 53.5-2.939 5.877-7.568 11.568-12 16l-7 7.5 3 7Z"/><path fill="#0E9584" id="PERI1" d="m416 153 5 3c0-3.618 2-6.154 2-9l-4-4c0 2.84-3 6.715-3 10Z"/><path fill="#FF7AFE" id="SAG" d="m147 157 6.5 4 7.5-1c0-2.624-1.251-13-7-13-4.17 0-8-.175-8 6v1l1 2v1ZM309 158l-5.5 3c-3.349 1.675-6.241-2-8.5-2 0-3.169 2.635-12 8-12 7.827 0 6 3.477 6 10v1Z"/><path fill="#32B725" id="ENTl3" d="M376 227c0 1.408 1.197 5 3 5 3.259 0 17.294-13.088 19-16.5l9-15 5-16c2.241-4.483-3-28.042-3-34.5l-1-1-5-3c0 20.116 5.328 35.844-4 54.5-3.419 6.838-9.386 14.386-15 20l-8 6.5ZM77 233h1l3-6v-1c-4.253 0-11.926-8.351-14-12.5-2.595-5.189-7.447-8.895-10-14l-6-17c-2.956-5.911 2-27.89 2-35.5l-4 1-2 2c0 28.978-6.952 31.596 7 59.5 2.949 5.897 9.15 14.325 15.5 17.5 1.657.829 7.5 3.415 7.5 6Z"/><path fill="#FF64FF" id="MB" d="m211 148 1 1-1-1Z"/><path fill="#FE90FF" id="III" d="M220 155h1c5.997 0-.831-11.838-4-5.5v3.5l2 1 1 1ZM236 155h1l1-1 1-1 1-3.5c-2.929-5.858-11.978 5.5-4 5.5Z"/><path fill="#FF64FF" id="MB" d="m246 148-2 1 2-1Z"/><path fill="#FF79FD" id="PBG" d="M147 156v1l1 5.5c-3.15 6.301-15.444-9.028-6.5-13.5l4.5 4v1l1 2ZM309 157c2.841 0 1.549-6.524 4.5-8 2.921-1.461 2.892 2.285 3.5 3.5 3.38 6.759-8 19.211-8 5.5v-1Z"/><path fill="#32B825" id="ENTl2" d="m77 233-2 4c-4.428 0-6.862-3.181-10.5-5-17.644-8.822-19.365-25.23-27.5-41.5-1.446-2.892-.51-7.019-2-10-2.43-4.859 5-21.51 5-27.5l7-3c0 28.978-6.952 31.596 7 59.5 2.949 5.897 9.15 14.325 15.5 17.5 1.657.829 7.5 3.415 7.5 6Z"/><path fill="#C7C8CC" id="alv" d="M387 150c1.647 0 1.647 15 0 15v-15Z"/><path fill="#32B825" id="ENTl2" d="M381 237h1c3.224 0 4.832-2.666 7.5-4 16.716-8.358 18.413-16.325 26.5-32.5l2-8c1.975-3.951 5.563-15.874 3-21-2.313-4.626-5-13.213-5-18.5-2.087 0-4.393-3-7-3 0 6.458 5.241 30.017 3 34.5l-5 16-9 15c-1.706 3.412-15.741 16.5-19 16.5v1l2 4Z"/><path fill="#32B722" id="ENTl1" d="M75 238c-1.577 0-2 1.762-2 3-4.625 0-10.42-5.96-14.5-8-16.873-8.437-20.202-29.903-27.5-44.5-1.137-2.275.192-5.617-1-8-3.924-7.849 5-16.91 5-23.5l5-4c0 5.99-7.43 22.641-5 27.5 1.49 2.981.554 7.108 2 10 8.135 16.27 9.856 32.678 27.5 41.5 3.638 1.819 6.072 5 10.5 5v1Z"/><path fill="#CBCBCC" id="mlf" d="m225 163-1 1-4-5-4-6h1l2 1 1 1h1c0 1.362 4 3.389 4 8Z"/><path fill="#FF64FF" id="MB" d="m239 153-1 1 1-1Z"/><path fill="#CBCBCC" id="mlf" d="M236 155h1l1-1 1-1h1c0 2.773-4 3.67-4 6l-2.5 5c-1.271 0-3.097-3.306-2.5-4.5l5-4.5Z"/><path fill="#32B722" id="ENTl1" d="m382 237 1 4c5.006 0 10.168-5.834 14.5-8 19.464-9.732 20.356-32.213 28.5-48.5 4.801-9.601-5-20.678-5-28.5l-5-3c0 5.287 2.687 13.874 5 18.5 2.563 5.126-1.025 17.049-3 21l-2 8c-8.087 16.175-9.784 24.142-26.5 32.5-2.668 1.334-4.276 4-7.5 4Z"/><path fill="#C7C8CC" id="alv" d="M69 154c-1.643 0-1 3.765-1 5 0 3.567.446 9.393 2 12.5.523 1.046-.951 3.5 1 3.5 0-7.351-2-13.482-2-21Z"/><path fill="#FF64FF" id="MB" d="m146 154 1 2-1-2ZM219 154l1 1-1-1ZM238 154l-1 1 1-1ZM225 163l-1 1 1-1Z"/><path fill="#FFA4FF" id="CLI" d="m223 175 4.5-3 5.5 3 4-2c0-2.833-2-4.84-2-7l-3.5-3c-1.3-.65-4.635 0-6.5 0l-1 1-2 2-1 1-2 5 4 3Z"/><path fill="#C8C8CC" id="tspc" d="M209 204h1l2-12v-2c0-8.82 5-18.552 5-26-8.072 0-10 14.305-10 21v4c0 2.556-1.382 15 2 15ZM246 203l1 1c4.218 0 2-12.142 2-14v-5c0-7.619-1.332-21-10-21 0 8.625 5 16.625 5 26v3l1 1c0 3.222 1 6.277 1 9Z"/><path fill="#C8C8C8" id="mtg" d="m221 167-2 5-.5 7c-1.778.889-2.131-7.238-1.5-8.5.326-.652 5-8.735 5-4.5l-1 1ZM235 166c0 2.16 2 4.167 2 7 0 10.414 4.485 1.47 2-3.5-.349-.698-4-6.828-4-3.5Z"/><path fill="#FF64FF" id="MB" d="m222 166-1 1 1-1Z"/><path fill="#C7C8CC" id="alv" d="M385 177h1l1-11c-1.341 0-2 9.28-2 11Z"/><path fill="#FFA5FD" id="PPN" d="M177 189h2l2-1 2-2c0-3.48 5.245-7.009 3-11.5-4.335-8.67-12.091-6.5-19-6.5l-8 8.5c-1.617 3.235 2.93 11.215 5.5 12.5H177ZM278 189h13.5c3.41-1.705 7.527-9.447 5.5-13.5l-8-7.5c-7.993 0-14.398-1.704-19 7.5-1.633 3.267 3 6.658 3 9.5l4 4h1Z"/><path fill="#CCC7CC" id="dscp" d="m223 175 4.5-3 5.5 3c0 2.798 3.992 7.516 2 11.5-2.531 5.062-11.412 5.177-14 0-2.011-4.023 2-8.411 2-11.5Z"/><path fill="#72D568" id="PAR" d="m331 173 1 1-1-1ZM125 175l-1 1 1-1Z"/><path fill="#C7C8CC" id="alv" d="M77 192c0 1.559 6.57 11 8 11l-10-16.5c-.883-1.765-1.45-10.5-4-10.5v2l4 11v1l2 2ZM381 189c0 1.417-2.383 6-4 6l6-13.5c.559-1.119.155-4.5 2-4.5v4l-1 2-1 2v1l-1 2-1 1Z"/><path fill="#C8CBCC" id="ec" d="M385 178h1v-1h-1v1Z"/><path fill="#7DCD4B" id="HPF" d="m387 177-1 1v-1h1ZM71 178l4 11c-1.751 0-5-9.201-5-11h1ZM386 178l-1 2v-2h1Z"/><path fill="#72D568" id="PAR" d="m332 180 1 1-1-1Z"/><path fill="#C9C9CB" id="ll" d="m155 227 2 6-6-10.5c-1.461-2.922-10-9.607-10-12.5v-1c0-1.804-2.182-5.136-1-7.5 3.224-6.448 4-10.577 4-18.5 1.384 0 1.123-3.189 3.5-2 3.353 1.676 9.5 10.642 9.5 14l1 3c-2.741 0-4.714-5.893-8.5-4-15.833 7.916 4.5 23.91 4.5 31l1 1v1ZM303 228l-2 1v-2l1-2 1-1v-2l1-1 9-14.5c1.514-3.029-2.854-7.707-4-10l-2.5-2.5c-3.204-1.602-5.152 3-7.5 3v-2c1.845 0 1.441-3.381 2-4.5l7.5-9.5 3.5 1c0 11.021 4 17.313 4 27-1.19 0-11 13.805-11 16-1.577 0-2 1.762-2 3Z"/><path fill="#7DCD4B" id="HPF" d="m385 181-1 2 1-2Z"/><path fill="#72D568" id="PAR" d="M124 182c-1.579 0-1 2.855-1 4 1.579 0 1-2.855 1-4Z"/><path fill="#7DCD4B" id="HPF" d="m384 183-1 2 1-2Z"/><path fill="#FFC295" id="PRNr" d="M175 234c2.352 0 4.814 13 14 13 0-7.016 15.764-19 22-19l1-1c0-2.097 1-5.293 1-8v-2l-1-1v-3l-1-1-1-7-1-1c-3.382 0-2-12.444-2-15l-3-3c-3.378 0-10.693-2.904-14.5-1l-5.5 2-3 1-2 1-2 1c0 1.173-5 .582-5 7l1.5 2c2.288 1.144 2.2-2 3-2 2.265 0 3.18 3.91 1 5h-3c-1.881.941 1.18 6-2.5 6l-1 1c0 3.995-2.044 9.413 0 13.5l4 10.5v1Z"/><path fill="#FF64FF" id="MB" d="m204 186 3 3v-4l-3 1ZM249 189h1l2-3-3-1v4Z"/><path fill="#FFC295" id="PRNr" d="m279 239-7.5 8-4.5-1c0-6.216-17.702-19-23-19l-1-7v-1l1-2v-2l1-1 1-8 1-2c4.218 0 2-12.142 2-14l1-1 2-3c3.476 0 10.654-2.923 14.5-1l5.5 2 5 2h1c0 2.612 7 1.572 7 8-2.409 0-1.055 1.277-2.5 2l-3-2-1.5 4.5 3.5.5 1.5 5.5 2 1.5c0 2.421 2.411 6.678 1 9.5l-3 10.5v1l-1 2-1 2v1c-2.109 0-2 2.535-2 4Z"/><path fill="#FF64FF" id="MB" d="m272 187 5 2-4-4-1 2ZM184 187l-3 1 2-2 1 1Z"/><path fill="#7DCD4B" id="HPF" d="m383 186-1 2 1-2Z"/><path fill="#FD90FE" id="AT" d="M218 189c0 2.167-3 2.934-3 1 0-2.434 3-3.962 3-1ZM238 189c0 1.348 3 3.216 3 1 0-2.969-3-4.137-3-1Z"/><path fill="#FF64FF" id="MB" d="m181 188-2 1 2-1Z"/><path fill="#7DCD4B" id="HPF" d="m382 188-1 1 1-1Z"/><path fill="#FF9B88" id="P" d="m179 189-2 1v-1h2Z"/><path fill="#FFC393" id="CS" d="m225 230 2-3.5c.646-1.292-1.303-7.5 1.5-7.5l2.5 11 5-1 1-1 6-8v-1l1-2v-2l1-1 1-8v-3c0-2.723-1-5.778-1-9l-1-1v-2l-1-1h-2c0 2.216-3 .348-3-1-3.694 0-8.015 5.742-11.5 4-3.461-1.731-4.176-4-8.5-4 0 2.167-3 2.934-3 1h-2l-1 2-2 12v1l1 7 1 1v3l1 1v2l6 9 6 2Z"/><path fill="#FF9B88" id="P" d="m250 189-1 1v-1h1ZM285 209c0 2.421 2.411 6.678 1 9.5l-3 10.5c1.727 0 3.372-5.244 4-6.5 2.676-5.352 12-20.18 12-25.5v-2c-.929 0-14.383-3.441-15.5-4-.905-.452-4.5-1.082-4.5-2h-1c0 2.612 7 1.572 7 8 11.031 0 7.263 12 0 12Z"/><path fill="#72D568" id="PAR" d="m333 189 1 2-1-2Z"/><path fill="#7DCD4B" id="HPF" d="m75 190 2 2-2-2Z"/><path fill="#FF9B88" id="P" d="M171 209c0 3.995-2.044 9.413 0 13.5l4 10.5-4-7.5c-3.075-6.15-13-21.175-13-27.5l-1-3c6.495 0 12.825-5 20-5 0 1.173-5 .582-5 7-11.72 0-7.351 12-1 12ZM213 190l-1 2v-2h1ZM244 190v1l-1-1h1ZM244 193l1 1-1-1Z"/><path fill="#FFAC6F" id="NLL" d="M179 255c0 4.293-.767 8.134-4.5 10-2.622 1.311-9.5-.693-9.5-4 0-1.649-5.051-23.601-6-25.5-.928-1.857-.605-8.5-4-8.5v-1l-1-1c0-7.09-20.333-23.084-4.5-31 3.786-1.893 5.759 4 8.5 4 0 6.325 9.925 21.35 13 27.5l4 7.5v1c0 5.644 4 12.607 4 21ZM277 256c0 5.076 5.252 12.124 11.5 9l3.5-4c0-6.509 5-19.247 5-25 0-1.831 2.183-9 4-9l1-2 1-1v-2l1-1 9-14.5c1.514-3.029-2.854-7.707-4-10l-2.5-2.5c-3.204-1.602-5.152 3-7.5 3 0 5.32-9.324 20.148-12 25.5-.628 1.256-2.273 6.5-4 6.5v1l-1 2-1 2v1l-2 4c0 5.806-2 10.668-2 17Z"/><path fill="#C7C8CC" id="alv" d="M377 195c-1.577 0-2 1.762-2 3 1.577 0 2-1.762 2-3Z"/><path fill="#C8C8CB" id="rust" d="m172 208-1 1c-6.351 0-10.72-12 1-12l1.5 2c2.288 1.144 2.2-2 3-2 2.265 0 3.18 3.91 1 5h-3c-1.881.941 1.18 6-2.5 6ZM285 197c11.031 0 7.263 12 0 12l-2-1.5-1.5-5.5-3.5-.5 1.5-4.5 3 2c1.445-.723.091-2 2.5-2Z"/><path fill="#C7C8CC" id="alv" d="M375 198c-1.577 0-2 1.762-2 3 1.577 0 2-1.762 2-3ZM373 201l-1 2 1-2Z"/><path fill="#FF9B88" id="P" d="m247 204-1 2v-3l1 1Z"/><path fill="#C7C8CC" id="alv" d="m372 203-1 1 1-1ZM85 204l2 2-2-2Z"/><path fill="#FF9B88" id="P" d="M210 204v1l-1-1h1Z"/><path fill="#C7C8CC" id="alv" d="m370 205-1 2 1-2ZM87 207c1.533 0 4 3.753 4 5l-4-5ZM369 207c-1.577 0-2 1.762-2 3 1.577 0 2-1.762 2-3Z"/><path fill="#F0F080" id="CB" d="M141 210c-3.11 0-3.662 5-6 5 0-5.498 2.568-6 6-6v1Z"/><path fill="#FF9B88" id="P" d="m172 208-1 1 1-1Z"/><path fill="#F0F080" id="CB" d="M328 231c-3.066 0-4.417 2-7 2 0-5.172 2.599-12.301 0-17.5-1.194-2.389-5-4.247-5-6.5 8.257 0 4.135 9.769 7 15.5.834 1.667 5 5.289 5 6.5Z"/><path fill="#CCCCCA" id="mcp" d="M296 245h1c0 7.183 1.961 7.579 5 1.5l1-13 4-5c.949-1.897-.245-3.5-2-3.5 0-2.195 9.81-16 11-16 0 2.253 3.806 4.111 5 6.5 2.599 5.199 0 12.328 0 17.5l-13.5 19-4.5 5c-1.345 0-5.13 2.76-6 4.5l-1.5 3.5-.5-5 1-15Z"/><path fill="#31B723" id="ENTm3" d="m81 227-3 6c5.939 0 14.227 7.636 21.5 4 6.362-3.181 13.5-18.374 13.5-25l-5-2-1 3c0 6.769-5.848 24.326-16.5 19l-9.5-5Z"/><path fill="#31B625" id="ENTm1" d="M75 238c-1.577 0-2 1.762-2 3 0 3.492 22.99 9.255 27.5 7 12.789-6.395 19.5-24.538 19.5-38l-3 2-3 8.5-1 7c-3.957 7.913-7.657 11.578-15.5 15.5-5.517 2.759-17.38-5-22.5-5Z"/><path fill="#CCCCCA" id="mcp" fill-rule="evenodd" d="m150 225-1 2.5c1.579 3.159 3.461 5.921 5 9 1.406 2.812-.461 7.078 1 10 .483.966.519 5.5 2.5 5.5 2.329 0 1.5-6.61 1.5-8 0-2.478-6.472-19-9-19m10 17 1.5 24-1.5-3.5c-1.003-2.006-4.911-5.5-7-5.5 0-3.328-17-18.553-17-23 0-4.017-2-8.279-2-13 1.579 0 1-2.855 1-4v-2c2.338 0 2.89-5 6-5 0 2.893 8.539 9.578 10 12.5l6 10.5v2l1 1v1l1 1v3l1 1Z"/><path fill="#31B625" id="ENTm1" d="m382 237 1 4c0 3.585-22.348 9.076-26.5 7-17.184-8.592-11.058-14.617-17.5-27.5-1.337-2.675-3-7.459-3-10.5l3 1 3 7.5 1 8c4.491 8.981 7.679 12.09 16.5 16.5 2.998 1.499 15.619-1.619 17.5-3.5l4-2.5h1Z"/><path fill="#31B723" id="ENTm3" d="M379 232v1c-9.279 0-22.33 11.841-30-3.5-1.165-2.329-.853-5.706-2-8l-4-9.5 5-2 1 2c0 6.715 5.605 25.447 16.5 20l9.5-5h1c0 1.408 1.197 5 3 5Z"/><path fill="#C7C8CC" id="alv" d="m367 210-1 1 1-1Z"/><path fill="#30B824" id="ENTm2" d="m379 233 2 4-4 2.5c-1.881 1.881-14.502 4.999-17.5 3.5-8.821-4.41-12.009-7.519-16.5-16.5l-1-8-3-7.5 4 1 4 9.5c1.147 2.294.835 5.671 2 8 7.67 15.341 20.721 3.5 30 3.5Z"/><path fill="#C7C8CC" id="alv" d="M365 212h1v-1l-1 1Z"/><path fill="#32B623" id="ENTm6" d="M85 219v2c5.73 0 16 5.606 16-6-4.115 0-6.36-3-10-3l-6 7Z"/><path fill="#30B824" id="ENTm2" d="M75 237v1c5.12 0 16.983 7.759 22.5 5 7.843-3.922 11.543-7.587 15.5-15.5l1-7 3-8.5h-4c0 6.626-7.138 21.819-13.5 25-7.273 3.636-15.561-4-21.5-4h-1l-2 4Z"/><path fill="#FF9B88" id="P" d="m211 212 1 1-1-1Z"/><path fill="#30B724" id="ENTm5" d="m372 220 3 7-9.5 5c-10.895 5.447-16.5-13.285-16.5-20l6 3c0 8.673 16 10.358 16 5h1Z"/><path fill="#32B623" id="ENTm6" d="M355 215c0 8.673 16 10.358 16 5l-5-8h-1c-3.375 0-5.875 3-10 3Z"/><path fill="#30B724" id="ENTm5" d="M81 226v1l9.5 5c10.652 5.326 16.5-12.231 16.5-19-2.72 0-3.553 2-6 2 0 11.606-10.27 6-16 6l-4 5Z"/><path fill="#FF9B88" id="P" d="m245 214-1 1 1-1ZM212 216l1 1-1-1Z"/><path fill="#F0F080" id="CB" d="M135 217c-1.579 0-1 2.855-1 4 1.579 0 1-2.855 1-4Z"/><path fill="#FF9B88" id="P" d="m244 217-1 2 1-2ZM212 227c2.409 0 5.181 1 7 1l-6-9c0 2.707-1 5.903-1 8Z"/><path fill="#FF9B88" id="P" fill-rule="evenodd" d="M294 266c0 1.93 1.93 0 0 0m-142-3c5.809 0 10.479 9.49 15.5 12 7.287 3.643 14.853 6.426 22 10 5.569 2.784 17.739-1.869 22-4h9c7.603-3.802 27.503.251 35 4 10.21 5.105 28.433-8.217 36-12 5.082-2.541 7.388-10 13.5-10 0-1.714-2-3.482-2-6-1.345 0-5.13 2.76-6 4.5l-1.5 3.5-.5-5 1-15 1-2v-3l1-1v-2l1-1v-2l1-1v-1l1-2v-3c-1.817 0-4 7.169-4 9 0 5.753-5 18.491-5 25 0 1.715.32 3.18-1.5 5-4.856 4.856-11.666 8.167-15.5.5-.918-1.835-.476-10.5 2-10.5 0-6.332 2-11.194 2-17l-7.5 8-4.5-1v25.5c-1.969 3.939-8.407 1.954-11.5 3.5-10.431 5.215-25.5-4.635-25.5-17 0-9.275 1-19.108 1-28l-2.5-11c-2.803 0-.854 6.208-1.5 7.5l-2 3.5c0 3.038.589 10.679 2 13.5 1.904 3.807-1 11.122-1 14.5 0 12.298-14.607 22.447-25.5 17-2.962-1.481-9.658.184-11.5-3.5l1-7.5c-4.356 0-1-14.967-1-17-9.186 0-11.648-13-14-13 0 5.644 4 12.607 4 21 3.997 0 2.192 14.654-.5 16-7.215 3.607-18.099-10-13.5-10 0-1.649-5.051-23.601-6-25.5-.928-1.857-.605-8.5-4-8.5l2 6v2l1 1v1l1 1v3l1 1 1.5 24-1.5-3.5c-1.003-2.006-4.911-5.5-7-5.5 0 2.124-1 4.436-1 6Z"/><path fill="#FF9B88" id="P" d="m244 227-7 1 6-8 1 7Z"/><path fill="#F0F080" id="CB" d="M128 231c4.144 0 5.033 3 8 3 0-4.017-2-8.279-2-13-1.149 0-1.473 5.447-2 6.5l-4 3.5Z"/><path fill="#FF9B88" id="P" d="m304 221-1 1 1-1ZM303 224l-1 1 1-1Z"/><path fill="#CCCBCA" id="moV" d="m150 225-1 2.5c1.579 3.159 3.461 5.921 5 9 1.406 2.812-.461 7.078 1 10 .483.966.519 5.5 2.5 5.5 2.329 0 1.5-6.61 1.5-8 0-2.478-6.472-19-9-19Z"/><path fill="#FF9B88" id="P" d="m154 225 1 1-1-1ZM302 225l-1 2 1-2Z"/><path fill="#CCCCCA" id="mcp" d="M305 225c-1.577 0-2 1.762-2 3 1.577 0 2-1.762 2-3Z"/><path fill="#CCCBCA" id="moV" d="M297 243v2c0 7.183 1.961 7.579 5 1.5l1-13 4-5c.949-1.897-.245-3.5-2-3.5 0 1.238-.423 3-2 3l-2 4c0 1.424-.362 5-2 5 0 1.623-.005 6-2 6Z"/><path fill="#FF9B88" id="P" d="m212 227-1 1 1-1Z"/><path fill="#FEBA85" id="TRN" fill-rule="evenodd" d="M200 257c0 1.991-4.284 2.931-3 5.5 2.475 4.95 14 1.279 14-3 0-1.271-3.306-3.097-4.5-2.5-1.372.686-4.065 0-6.5 0m19-22-2 6.5c-1.759 3.519 2.465 9.518 6.5 7.5 5.569-2.785.292-14-4.5-14m7 23c-8.691 0-12.468 5.984-20.5 10h-12l-3.5-4c-4.356 0-1-14.967-1-17 0-7.016 15.764-19 22-19l1-1c2.409 0 5.181 1 7 1l6 2c0 3.038.589 10.679 2 13.5 1.904 3.807-1 11.122-1 14.5ZM247 257c0 4.367-1.029 3.736 3.5 6 11.346 5.673 11.168-6 2.5-6h-6m-13-22-3 5.5c-1.717 3.434.592 10.954 5.5 8.5 5.627-2.813 2.921-14-2.5-14m-4 23c9.199 0 12.573 6.036 20.5 10h13c2.593-1.296.263-4 3.5-4v-18c0-6.216-17.702-19-23-19l-7 1-1 1-5 1c0 8.892-1 18.725-1 28Z"/><path fill="#FF9B88" id="P" d="m237 228-1 1 1-1Z"/><path fill="#CCCCCA" id="mcp" d="M301 230v2l2-4-2 1v1Z"/><path fill="#FF9B88" id="P" d="m283 230-1 2 1-2Z"/><path fill="#C9C9CB" id="ll" d="M300 232h1v-2l-1 2Z"/><path fill="#F0F080" id="CB" d="m127 231-2 1 2-1Z"/><path fill="#CACACB" id="sV" d="M153 257c0 2.124-1 4.436-1 6-2.029 0-1.881 1.191-3.5 2-7.43 3.715-24.705-2.91-28.5-10.5-2.23-4.461-1.384-22.5 5-22.5l2-1h1c4.144 0 5.033 3 8 3 0 4.447 17 19.672 17 23ZM303 257c0 2.518 2 4.286 2 6 2.029 0 1.881 1.191 3.5 2 6.692 3.346 23.707-2.914 26.5-8.5 2.323-4.646 4.062-24.5-4-24.5l-1-1h-2c-3.066 0-4.417 2-7 2l-13.5 19-4.5 5Z"/><path fill="#F0F080" id="CB" d="m330 231 1 1-1-1Z"/><path fill="#FF9B88" id="P" d="m282 232-1 2 1-2Z"/><path fill="#CCCCCA" id="mcp" d="M299 236v1c1.638 0 2-3.576 2-5h-1v1l-1 1v2Z"/><path fill="#C9C9CB" id="ll" d="m300 233-1 1 1-1ZM157 235l1 1-1-1Z"/><path fill="#CACCC8" id="ml" d="m219 235-2 6.5c-1.759 3.519 2.465 9.518 6.5 7.5 5.569-2.785.292-14-4.5-14ZM234 235l-3 5.5c-1.717 3.434.592 10.954 5.5 8.5 5.627-2.813 2.921-14-2.5-14Z"/><path fill="#FF9B88" id="P" d="M281 235c-2.109 0-2 2.535-2 4l2-4Z"/><path fill="#C9C9CB" id="ll" d="M298 237h1v-1l-1 1ZM158 237l1 1-1-1Z"/><path fill="#CCCCCA" id="mcp" d="M297 240v3c1.995 0 2-4.377 2-6h-1v2l-1 1Z"/><path fill="#C9C9CB" id="ll" d="m298 239-1 1 1-1ZM159 241l1 1-1-1ZM296 245h1v-2l-1 2ZM179 255c3.997 0 2.192 14.654-.5 16-7.215 3.607-18.099-10-13.5-10 0 3.307 6.878 5.311 9.5 4 3.733-1.866 4.5-5.707 4.5-10ZM277 256c-2.476 0-2.918 8.665-2 10.5 3.834 7.667 10.644 4.356 15.5-.5 1.82-1.82 1.5-3.285 1.5-5l-3.5 4c-6.248 3.124-11.5-3.924-11.5-9Z"/><path fill="#C8C7CC" id="cst" d="M200 257c0 1.991-4.284 2.931-3 5.5 2.475 4.95 14 1.279 14-3 0-1.271-3.306-3.097-4.5-2.5-1.372.686-4.065 0-6.5 0Z"/><path fill="#FFB885" id="PG" d="M226 258c-8.691 0-12.468 5.984-20.5 10h-12l-3.5-4-1 7.5c1.842 3.684 8.538 2.019 11.5 3.5 10.893 5.447 25.5-4.702 25.5-17ZM230 258c9.199 0 12.573 6.036 20.5 10h13c2.593-1.296.263-4 3.5-4v7.5c-1.969 3.939-8.407 1.954-11.5 3.5-10.431 5.215-25.5-4.635-25.5-17Z"/><path fill="#C8C7CC" id="cst" d="M247 257c0 4.367-1.029 3.736 3.5 6 11.346 5.673 11.168-6 2.5-6h-6Z"/><path fill="#CCCCCA" id="mcp" d="M294 266c0 1.93 1.93 0 0 0Z"/></svg>