<svg xmlns="http://www.w3.org/2000/svg" viewBox="0 0 456 320"><path fill="#FEFA90" id="DEC" d="M206 103c5.142 0 4.251-12.003 6-15.5l6-1.5c2.423 0 20.85-.325 21.5 0 2.36 1.18 6.249 1.998 7.5 4.5 1.397 2.794-2.503 4.994-2 6 .573 1.146 4.438 6.5 6 6.5 6.09 0 15.365.568 20.5-2 2.484-1.242 8.87-4 11.5-4l2-2c0-4.366 4-7.128 4-12 0-3.296-17.623-11.561-20.5-13-18.165-9.083-26.584-7-47.5-7-4.934 0-13.597-2.451-18.5 0l-16 8c-2.683 1.342-19.5 8.996-19.5 12l4 11v1l1 1 1 1c2.63 0 9.016 2.758 11.5 4 4.264 2.132 16.033 2 21.5 2Z"/><path fill="#FCFC90" id="ANcr1" d="M147 85c6.186 0 11.429.465 16.5 3l7.5 6-4-11c-4.6 0-9.885-1.308-14.5 1-1.238.62-5.5-1.144-5.5 1ZM309 85c-4.883 0-10.455-.022-14.5 2l-9.5 8c0-4.366 4-7.128 4-12 4.6 0 9.885-1.308 14.5 1 1.238.62 5.5-1.144 5.5 1Z"/><path fill="#FCFA91" id="ANcr2" d="m173 114-16.5 8c-15.202 7.601-29.749 17.375-45 25-4.912 2.456-11.83 8-17.5 8-11.487 0-5.768-21.964-3-27.5 10.188-20.376 31.64-42.5 56-42.5 6.186 0 11.429.465 16.5 3l7.5 6v1l1 1 1 1c0 4.473 6 10.179 6 15h-1l-2 1h-1l-2 1ZM281 113l16.5 8c15.853 7.926 31.054 18.027 47 26 4.912 2.456 11.83 8 17.5 8 13.38 0 4.663-24.173 2-29.5-9.97-19.94-31.115-40.5-55-40.5-4.883 0-10.455-.022-14.5 2l-9.5 8-2 2c0 4.983-5 9.625-5 15l2 1h1Z"/><path fill="#CBC9CC" id="arb" d="M180 115c0-1.014 3.959-2 5-2l18.5-1h56c3.995 1.998 10.117-.942 14 1l3.5 2c4.381 0 6.803 6.152 10.5 8 6.411 3.205 26.264 22.028 29.5 28.5l11.5 11.5c3.292-1.646-6.998-11.998-8.5-13.5-9.627-9.627-20.377-18.377-29-27l-10-9.5h-1l-2-1c-3.628 0-27-5.8-27-9-1.562 0-5.427-5.354-6-6.5-.503-1.006 3.397-3.206 2-6-1.251-2.502-5.14-3.32-7.5-4.5-.65-.325-19.077 0-21.5 0l-6 1.5c-1.749 3.497-.858 15.5-6 15.5 0 2.984-23.485 9-27 9h-1l-2 1h-1l-2 1c0 4.396-10.159 11.329-13.5 13L134 152.5c-2.097 2.097-7 6.136-7 9 0 3.503 4.36-1.36 5-2l11-12c6.711-6.711 16.165-18.833 23.5-22.5 4.615-2.308 8.065-10 13.5-10Z"/><path fill="#FCFC90" id="ANcr1" d="m171 95 1 1-1-1Z"/><path fill="#FDFB90" id="FOTU" d="M206 103c0 2.984-23.485 9-27 9 0-4.821-6-10.527-6-15 2.63 0 9.016 2.758 11.5 4 4.264 2.132 16.033 2 21.5 2ZM251 103c0 3.2 23.372 9 27 9 0-5.375 5-10.017 5-15-2.63 0-9.016 2.758-11.5 4-5.135 2.568-14.41 2-20.5 2ZM182 131l16.5-6c5.686-2.843 24.801-2 32.5-2h14.5c6.539 3.27 15.409 1.705 22 5l7.5 4c0-6.109 2-11.557 2-17l-3.5-2c-3.883-1.942-10.005.998-14-1h-56l-18.5 1c-1.041 0-5 .986-5 2l2 16Z"/><path fill="#FFFB8E" id="PRM" d="m178 112-2 1 2-1ZM278 112l2 1-2-1ZM175 113l-2 1 2-1ZM323 189l7 8c3.14 0 7.418 1.541 10.5 0 9.843-4.921 20.343-20.185 24.5-28.5 2.563-5.126-3-9.97-3-13.5-5.67 0-12.588-5.544-17.5-8-15.946-7.973-31.147-18.074-47-26l-16.5-8 10 9.5c8.623 8.623 19.373 17.373 29 27 1.502 1.502 11.792 11.854 8.5 13.5L317 151.5c-3.236-6.472-23.089-25.295-29.5-28.5-3.697-1.848-6.119-8-10.5-8 0 5.443-2 10.891-2 17v1c4.712 0 11.109 8.609 14.5 12 5.261 5.261 22.94 26.38 25.5 31.5 1.999 3.997 8 7.814 8 12.5ZM127 196l-1 1c-3.098 0-6.591 1.455-9.5 0-11.144-5.572-20.319-20.138-25.5-30.5-2.22-4.439 3-8.164 3-11.5 5.67 0 12.588-5.544 17.5-8 15.251-7.625 29.798-17.399 45-25l16.5-8c0 4.396-10.159 11.329-13.5 13L134 152.5c-2.097 2.097-7 6.136-7 9 0 3.503 4.36-1.36 5-2l11-12c6.711-6.711 16.165-18.833 23.5-22.5 4.615-2.308 8.065-10 13.5-10l2 16v1c-4.018 0-11.53 9.03-14.5 12L143 174.5c-2.284 4.568-10 9.217-10 14.5l-6 7Z"/><path fill="#FBFC91" id="PYR" d="M273 144c-2.589 0-9.88-5.69-12.5-7-4.688-2.344-42.325-6.837-48-4-6.377 3.188-14.511 2.756-21 6l-8.5 6-1-13v-1l16.5-6c5.686-2.843 24.801-2 32.5-2h14.5c6.539 3.27 15.409 1.705 22 5l7.5 4v1c-2.815 0 .815 11-2 11Z"/><path fill="#FFF990" id="COPY" fill-rule="evenodd" d="M154 180c0 1.93 1.93 0 0 0m-16 19h4c0-1.014 3.959-2 5-2h1l1-1 1-1c5.096 0 15.454-13 19-13l1-1 2-7c0-4.016 7-6.816 7-9l4-6v-10c-2.268 0-4.228 5.956-5 7.5l-15 17-7.5 6.5 27.5-35-1-13c-4.018 0-11.53 9.03-14.5 12L143 174.5c-2.284 4.568-10 9.217-10 14.5 0 3.651 5 7.045 5 10Z"/><path fill="#CBC9CC" id="arb" d="M183 149c0-6.306 14.058-8.279 17.5-10 11.392-5.696 43.621-5.689 55 0 4.605 2.302 17.5 3.251 17.5 10 2.529 0 4.396 5.896 6 7.5 4.137 4.137 18.121 25.5 24.5 25.5l-8.5-8.5-16-22-6-7.5c-2.589 0-9.88-5.69-12.5-7-4.688-2.344-42.325-6.837-48-4-6.377 3.188-14.511 2.756-21 6l-8.5 6-27.5 35 7.5-6.5 15-17c.772-1.544 2.732-7.5 5-7.5Z"/><path fill="#FFF990" id="COPY" d="M315 199h3c0-.364 5-6.03 5-10 0-4.686-6.001-8.503-8-12.5-2.56-5.12-20.239-26.239-25.5-31.5-3.391-3.391-9.788-12-14.5-12-2.815 0 .815 11-2 11l6 7.5 16 22 8.5 8.5c-6.379 0-20.363-21.363-24.5-25.5-1.604-1.604-3.471-7.5-6-7.5v9c0 2.46 4 4.17 4 7 2.962 0 7 6.336 7 9 0 2.16 2 4.167 2 7l2 1c3.368 0 15.059 14 20 14 .978 0 7 2.267 7 3Z"/><path fill="#FBFC91" id="PYR" d="m273 158-12.5-7c-3.884-1.942-39.4-5.3-44-3-6.658 3.329-17.573 1.286-25 5l-8.5 6v-10c0-6.306 14.058-8.279 17.5-10 11.392-5.696 43.621-5.689 55 0 4.605 2.302 17.5 3.251 17.5 10v9Z"/><path fill="#FFFA8F" id="UVU" d="M179 165c14.068 0 30.753-1 44.5-1 2.355 0 16.692-1.154 17-1 9.23 4.615 26.864 2 36.5 2 0-2.83-4-4.54-4-7l-12.5-7c-3.884-1.942-39.4-5.3-44-3-6.658 3.329-17.573 1.286-25 5l-8.5 6-4 6Z"/><path fill="#CBC9CC" id="arb" d="m172 174 9.5-4c2.812-1.406 7.078.461 10-1 7.524-3.762 24.05 2.475 33-2 3.365-1.682 12.304.652 15 2h26c2.653 1.326 6.456-.272 9 1l9.5 4c0-2.664-4.038-9-7-9-9.636 0-27.27 2.615-36.5-2-.308-.154-14.645 1-17 1-13.747 0-30.432 1-44.5 1 0 2.184-7 4.984-7 9Z"/><path fill="#FFFA8F" id="UVU" d="M234 194h2c13.393 0 27.386-2.443 38.5-8 2.009-1.005 11.5-.896 11.5-4v-1c0-2.833-2-4.84-2-7l-9.5-4c-2.544-1.272-6.347.326-9-1h-26c-2.696-1.348-11.635-3.682-15-2-8.95 4.475-25.476-1.762-33 2-2.922 1.461-7.188-.406-10 1l-9.5 4-2 7 1 1c0 3.967 9.292 2.896 11.5 4 10.943 5.472 24.309 8 37.5 8h14Z"/><path fill="#CBC9CC" id="arb" d="M154 180c0 1.93 1.93 0 0 0Z"/><path fill="#F0F080" id="CB" d="M169 182h2l-1-1-1 1ZM286 182h2l-2-1v1Z"/><path fill="#FF9BCD" id="MY" d="m172 187-1 1 1-1Z"/><path fill="#FFA2D2" id="ECU" d="M189 192c0 4.051-6.073 9-10 9-2.463 0-11.695-3.891-13-6.5-1.27-2.541 2-3.709 2-5.5l3-1 1-1c3.222 0 6.277 1 9 1l1 1 7 2v1ZM267 192c0 4.739 6.534 9 11 9 0-2.032 8.889-3.194 10.5-4 3.049-1.525.5-5.974.5-8h-1l-1-1h-1l-1-1c-5 0-8.687 2-13 2l-1 1h-1l-1 1h-1l-1 1Z"/><path fill="#FF9BCD" id="MY" d="m285 187 1 1-1-1ZM181 188l1 1-1-1ZM287 188l1 1-1-1Z"/><path fill="#F0F080" id="CB" d="M127 196c1.444 0 11 5.997 11 3 0-2.955-5-6.349-5-10l-6 7Z"/><path fill="#FF9BCD" id="MY" d="M160 288c0 4.508 12 8.489 12 9-8.572 0-19.427-8.354-23-15.5-3.152-6.304-11.355-8.711-15-16-7.628-15.256-9.017-29.967-1-46 1.681-3.362 6.95-6.9 9-11 3.054-6.109 19.739-19.5 26-19.5 0 1.791-3.27 2.959-2 5.5 1.305 2.609 10.537 6.5 13 6.5l-1 3.5c1.253 2.507 12.17 8.5 15 8.5 0 4.611 4 6.638 4 8-6.661 0-12.672-6-20-6v-7c0-9.139-13.699-3-16-3v-2l3-1c10.759 0 1.859-6.68-5.5-3-1.158.579-3.5-.341-3.5 2-1.238 0-5 1.923-5 3l-1 1-1 1-1 1c-1.747 0-2 .253-2 2-3.461 0-8.811 10.122-10 12.5-5.974 11.949-7.177 26.647-1 39 1.751 3.503 2.866 8.683 6.5 10.5 2.831 1.415 2.871 5 7.5 5 0 5.602 6.049 10 10 10l2 2ZM272 189l-1 1 1-1ZM279 215c-6.288 0-12.05 5-18 5 0-1.834 2-3.838 2-7 3.494 0 14.317-6.135 16-9.5l-1-2.5c0-2.032 8.889-3.194 10.5-4 3.049-1.525.5-5.974.5-8 5.187 0 9.111 5.806 13.5 8 10.969 5.484 26.5 28.585 26.5 41.5 0 6.179-3.239 30.5-10 30.5l6-12.5v-4c6.292-12.585-.405-30.405-9.5-39.5-1.915-1.915-4.815-8-8.5-8 0-2.177-4.336-4-6-4 0-4.156-15-4.918-15-.5 0 1.925 9 .602 9 2.5l1 4-1-1c0-5.375-16-3.966-16 2v7Z"/><path fill="#F0F080" id="CB" d="m330 197-3.5-1c-.707.354-8.5 6.833-8.5 3 0-.364 5-6.03 5-10l7 8Z"/><path fill="#FF9BCD" id="MY" d="m270 190-1 1 1-1ZM189 192h3c0-1.473-1.952-1-3-1v1ZM264 192h3l1-1c-1.145 0-4-.579-4 1Z"/><path fill="#FDA5D0" id="CU" d="m196 209-3 4c-2.83 0-13.747-5.993-15-8.5l1-3.5c3.927 0 10-4.949 10-9h4l2 1h2l4 2h1c0 1.03 1 2.671 1 6-2.38 0-6 4.801-6 7l-1 1Z"/><path fill="#FF9BCD" id="MY" d="m193 192 2 1-2-1ZM264 192c-1.048 0-3-.473-3 1 1.048 0 3 .473 3-1Z"/><path fill="#FDA5D0" id="CU" d="m261 210 2 3c3.494 0 14.317-6.135 16-9.5l-1-2.5c-4.466 0-11-4.261-11-9h-3c0 1.473-1.952 1-3 1h-2l-1 1h-1l-1 1h-2c0 1.03-1 2.671-1 6 1.865 0 7 4.438 7 7l1 2Z"/><path fill="#FF9BCD" id="MY" d="m197 193 4 2-4-2ZM259 193l-1 1 1-1ZM222 194l-2 1v-1h2Z"/><path fill="#FFA5D0" id="AP" d="m217 197 4 4.5 6.5 9.5 3.5-2.5c1.627-3.254 8-8.641 8-11.5l-1-2h-2l-2-1h-5c0 1.186-1 1.186-1 0h-6l-2 1h-2l-1 1v1Z"/><path fill="#FF9BCD" id="MY" d="M236 194v1l-2-1h2ZM257 194l-1 1 1-1Z"/><path fill="#F0F080" id="CB" d="m150 195-1 1 1-1Z"/><path fill="#FF9BCD" id="MY" d="m203 201 1 1c2.422 0 7.209-5 13-5v-1l-15-1c0 1.03 1 2.671 1 6ZM218 195l-1 1 1-1ZM252 201h1c0-3.329 1-4.97 1-6h-16l1 2c6.561 0 9.687 4 13 4Z"/><path fill="#F0F080" id="CB" d="m127 196-1 1 1-1ZM149 196l-1 1 1-1ZM308 196c.978 0 7 2.267 7 3-2.176 0-7 .348-7-3ZM147 197c-1.041 0-5 .986-5 2 1.622 0 5 .461 5-2Z"/><path fill="#C8CACA" id="sptV" d="M155 201c1.745 0 6-.698 6 2l3-1c10.759 0 1.859-6.68-5.5-3-1.158.579-3.5-.341-3.5 2Z"/><path fill="#FDA5D1" id="NTS" fill-rule="evenodd" d="m252 205-1 2c0 8.178 6.168-2 1-2m-49 0c0 9.972 3.986 0 0 0m-6 16h1c2.883 0 6-.409 6-4 0-10.261 19-10.582 19 1l5 1c0-1.186 1-1.186 1 0h4c0-12.044 19-12.759 19-2 0 3.207 4.706 4 7 4l2-1c0-1.834 2-3.838 2-7l-2-3-2-2c-2.04 0-7-4.676-7-7-3.313 0-6.439-4-13-4 0 2.859-6.373 8.246-8 11.5l-3.5 2.5-6.5-9.5-4-4.5c-5.791 0-10.578 5-13 5 0 1.871-5.4 6-7 6l-1 1-3 4c0 4.611 4 6.638 4 8Z"/><path fill="#C8CACA" id="sptV" d="M301 201c-2.518 0-4.286 2-6 2 0-1.898-9-.575-9-2.5 0-4.418 15-3.656 15 .5Z"/><path fill="#FDA3D1" id="Pa5" d="M146 213h1l1-1c1.914 0 11-1.507 11-4l1-1 1-2v-2c0-2.698-4.255-2-6-2-1.238 0-5 1.923-5 3l-1 1-1 1-1 1-2 2c0 2.061-2.431 4 1 4Z"/><path fill="#FFB2D6" id="PAS" d="M204 202c0 1.871-5.4 6-7 6 0-2.199 3.62-7 6-7l1 1ZM259 208h1c0-2.562-5.135-7-7-7h-1c0 2.324 4.96 7 7 7Z"/><path fill="#FDA3D1" id="Pa5" d="M308 212h1l1.5 1c5.727 2.863-3.5-7.9-3.5-8 0-2.177-4.336-4-6-4-2.518 0-4.286 2-6 2l1 4 1 1 1 1c2.654 0 6.986 3 10 3Z"/><path fill="#FDA5D2" id="SPVI" d="m161 206 16 2c0-9.139-13.699-3-16-3v1ZM295 206l-16 2c0-5.966 16-7.375 16-2Z"/><path fill="#C8CACA" id="sptV" d="m150 204-1 1 1-1ZM149 205l-1 1 1-1Z"/><path fill="#FF9BCD" id="MY" d="m161 206-1 1 1-2v1Z"/><path fill="#C8CAC7" id="ts" d="M203 205c0 9.972 3.986 0 0 0ZM252 205l-1 2c0 8.178 6.168-2 1-2Z"/><path fill="#C8CACA" id="sptV" d="M307 276h2c3.435 0 5.249-5 8-5 0-1.747.253-2 2-2l6-12.5v-4c6.292-12.585-.405-30.405-9.5-39.5-1.915-1.915-4.815-8-8.5-8 0 .1 9.227 10.863 3.5 8l-1.5-1v1l1 1 3 3v1l1 1 1 1 2 2v1l2 2v1l1 1v1l1 1v1c1.186 0 2 4.29 2 5.5 0 6.205 1.748 10.505-1 16-.523 1.046.951 3.5-1 3.5v1l-1 1v2l-1 1v2l-1 1v1l-1 1-3 2-1 1-1 1h-1c0 3.328-4 5.479-4 7ZM148 206l-1 1 1-1Z"/><path fill="#FDA4D0" id="SPVC" d="m147 270 4 1c13.679 0 13.395-32.289 18-41.5 1.853-3.706 8-10.422 8-14.5v-7l-16-2-1 1-1 1c0 2.493-9.086 4-11 4l-1 1-1 1-1 1-1 2-1 1-1 1v1l-1 1v1l-1 1c0 7.417-7.003 20.495-3 28.5 1.358 2.716.694 6.388 2 9l6 8.5h1l1 1ZM306 271h1l1-1h1l1-1h2l1-1v-1l3-4.5 3-9c1.081-2.163-.102-23.203-1-25l-3-7.5v-1l-1-1-1-1v-1l-3-3-1-1-1-1c-3.014 0-7.346-3-10-3l-1-1-1-1-1-1-16 2v7l8 13.5c5.057 10.114 4.465 42.5 19 42.5Z"/><path fill="#C8CACA" id="sptV" d="M147 207c-1.747 0-2 .253-2 2l2-2Z"/><path fill="#FF9BCD" id="MY" d="m160 207-1 1 1-1ZM197 208l-1 1 1-1ZM260 208l1 2-2-2h1ZM297 208l1 1-1-1Z"/><path fill="#C8CACA" id="sptV" d="M148 276h1c0-1.522-4-4.055-4-7h-1l-1-1-2-2-1-1-1-1-1-1v-1l-1-1v-2l-1-1v-1c-1.473 0-1-1.952-1-3v-3c-3.309 0-3.732-13-1-13v-1c0-1.321-.684-6 1-6v-1l1-2 2-4 1-1 1-1 1-1v-1l1-1 1-1 1-1 1-2 1-1v-1c-3.431 0-1-1.939-1-4-3.461 0-8.811 10.122-10 12.5-5.974 11.949-7.177 26.647-1 39 1.751 3.503 2.866 8.683 6.5 10.5 2.831 1.415 2.871 5 7.5 5Z"/><path fill="#FDB1D8" id="DMX" d="M214 219h3c1.321 0 6 .684 6-1 0-11.582-19-11.261-19-1 .965 0 10 1.299 10 2ZM239 219h3c0-.701 9.035-2 10-2 0-10.759-19-10.044-19 2h6Z"/><path fill="#FF9BCD" id="MY" d="m148 212-1 1 1-1ZM309 212v1l-1-1h1ZM147 213l-1 1v-1h1ZM146 214l-1 1 1-1ZM310 214l3 3-3-3ZM145 215l-1 2 1-2Z"/><path fill="#FDB1D7" id="MDRNd" d="m167 277-3 1-5-1c-4.092 0-8-1.303-8-6 13.679 0 13.395-32.289 18-41.5 1.853-3.706 8-10.422 8-14.5 7.328 0 13.339 6 20 6h1l3 4c0 4.741-5.053 6.606-7 10.5-1.869 3.738-17.254 27.254-19.5 29.5-1.92 1.92-5.239 12-7.5 12ZM293 278h2l1-1h2c3.14 0 8-2.256 8-6-14.535 0-13.943-32.386-19-42.5l-8-13.5c-6.288 0-12.05 5-18 5l-2 1-4 4c0 4.837 6.936 8.371 9 12.5l18.5 27.5c1.632 1.632 4.144 12 6.5 12l4 1Z"/><path fill="#FDA5D2" id="SPVI" d="m144 217-1 1 1-1Z"/><path fill="#FF9BCD" id="MY" d="M211 233h1c0-4.978-7.623-14 2-14 0-.701-9.035-2-10-2 0 3.591-3.117 4-6 4l3 4c4.321 0 10 3.174 10 8ZM244 233l2 1c0-4.964 3.998-9 9-9l4-4c-2.294 0-7-.793-7-4-.965 0-10 1.299-10 2 10.015 0 2 9.252 2 14ZM143 218l-1 1 1-1Z"/><path fill="#FF9BCD" id="MY" fill-rule="evenodd" d="M239 286c0 2.143-5.853 2.793-4 6.5 1.876 3.751 17 6.336 17 3 0-3.093-10.222-9.5-13-9.5m-26 0c0 3.339-9.926 6.647-8 10.5 1.294 2.588 26.205-2.647 12.5-9.5-1.718-.859-2.387-1-4.5-1m32-3c0 5.399 13.712 15.076 16 10.5 1.339-2.678-12.789-10.5-16-10.5m-38 0c0 4.478-14.154 6.192-12 10.5 2.635 5.27 24.759-10.5 12-10.5m22 12c5.664 0 10.815 1.658 15.5 4 4.925 2.462 22.667-1 28-1 2.31 0 14.5-.093 14.5-2-5.604 0 0-1.338 0-3-2.606 0-2.4.95-4.5 2-8.881 4.44-15.5-7.374-15.5-14-14.761 0-25.362-22.225-31-33.5-1.795-3.589 3-5.044 3-7.5l-1-1-8.5 1c-3.242-1.621 1.751-17.003 2.5-18.5.777-1.553 7-.665 7-2.5h-11l-5-1c0 1.684-4.679 1-6 1 0 1.32 6.864 1.229 8 3.5 1.305 2.61 6.57 14.965 1.5 17.5l-8.5-2v2c0 2.108 4.182 4.137 3 6.5-6.187 12.373-17.364 34.5-32 34.5 0 6.814-6.461 18.519-15.5 14l-6.5-4c0 2.947 6 2.713 6 6 6.868 0 33.431 5.034 39.5 2 4.419-2.21 9.163-4 14.5-4 0-2.389-1-5.987-1-9-1.182 0-10-4.981-10-6.5 0-2.3 3-2.068 3-4.5-5.61 0 5.016-15 8-15 0-12.704 2-9.136 2 1 3.468 0 14.956 14 8 14l3 3.5c1.359 2.719-2.894 2.894-4 4-2.103 2.103-2.996 3.5-6 3.5 0 1.606 2.081 4.339 1 6.5l-2 2.5Z"/><path fill="#A7AAA9" id="c" d="M228 219h1c0-1.186-1-1.186-1 0Z"/><path fill="#FF9BCD" id="MY" d="m313 218 1 1-1-1ZM141 220h1v-1l-1 1Z"/><path fill="#FEB1D7" id="XII" d="M212 233c1.692 0 2.921 5 6 5l8.5 2c5.07-2.535-.195-14.89-1.5-17.5-1.136-2.271-8-2.18-8-3.5h-3c-9.623 0-2 9.022-2 14Z"/><path fill="#FEB1D7" id="XII" d="M244 233c0 3.184-6 4.222-6 6l-8.5 1c-3.242-1.621 1.751-17.003 2.5-18.5.777-1.553 7-.665 7-2.5h3c10.015 0 2 9.252 2 14Z"/><path fill="#FDA5D2" id="SPVI" d="m314 219 1 1-1-1ZM142 220l-1 1v-1h1Z"/><path fill="#FF9BCD" id="MY" d="m261 220-2 1 2-1ZM315 221l2 1-2-2v1ZM140 222h1v-1l-1 1Z"/><path fill="#FDA5D2" id="SPVI" d="M313 267h1l3-2 1-1v-1l1-1v-2l1-1v-2l1-1v-27l-1-1v-1l-1-1v-1l-2-2v-1l-2-1 3 7.5c.898 1.797 2.081 22.837 1 25l-3 9-3 4.5Z"/><path fill="#FF9BCD" id="MY" d="M139 223h1v-1l-1 1Z"/><path fill="#FDA5D2" id="SPVI" d="m141 222-1 1v-1h1Z"/><path fill="#FF9BCD" id="MY" d="m139 223-1 1 1-1Z"/><path fill="#FDA5D2" id="SPVI" d="M144 269h1l-6-8.5c-1.306-2.612-.642-6.284-2-9-4.003-8.005 3-21.083 3-28.5h-1l-1 1-2 4-1 2v1c0 1.321.684 6-1 6v1c0 4.414 1 9.177 1 13v3c1.473 0 1 1.952 1 3v1l1 1v2l1 1v1l1 1 1 1 1 1 2 2 1 1Z"/><path fill="#FF9BCD" id="MY" d="m317 223 2 2-2-2Z"/><path fill="#FFB2D8" id="IRN" fill-rule="evenodd" d="m176 268-2 3.5c0 3.521 12.623.562 4.5-3.5H176m-9 9 1 2c3.877 0 8.127-3 13-3 0-4.81 17.659-33.08 21.5-35 3.551-1.775 1.928-6 7.5-6l1-1v-1c0-4.826-5.679-8-10-8 0 4.741-5.053 6.606-7 10.5-1.869 3.738-17.254 27.254-19.5 29.5-1.92 1.92-5.239 12-7.5 12ZM277 268l-1 3.5c2.88 5.76 10.679-3.5 1-3.5m12 9-1 2c-3.877 0-8.127-3-13-3 0-7.254-21.82-41-29-41v-1c0-4.964 3.998-9 9-9 0 4.837 6.936 8.371 9 12.5l18.5 27.5c1.632 1.632 4.144 12 6.5 12Z"/><path fill="#FF9BCD" id="MY" d="m319 226 1 1-1-1ZM136 228l-1 2 1-2ZM320 228l1 1-1-1ZM321 230c1.186 0 2 4.29 2 5.5 0 6.205 1.748 10.505-1 16-.523 1.046.951 3.5-1 3.5v-25ZM135 231c-1.684 0-1 4.679-1 6 1.684 0 1-4.679 1-6Z"/><path fill="#FFB1D9" id="NR" d="M218 238v2c-1.424 0-7-3.98-7-5v-2h1c1.692 0 2.921 5 6 5ZM238 239l1 1 7-5v-1l-2-1c0 3.184-6 4.222-6 6Z"/><path fill="#FF9BCD" id="MY" d="M210 235h1v-1l-1 1Z"/><path fill="#FFB1D6" id="MDRNv" d="M181 276c2.809 0 8 1.397 8 5 14.636 0 25.813-22.127 32-34.5 1.182-2.363-3-4.392-3-6.5-1.424 0-7-3.98-7-5h-1c-5.572 0-3.949 4.225-7.5 6-3.841 1.92-21.5 30.19-21.5 35ZM275 276c-3.096 0-8 1.868-8 5-14.761 0-25.362-22.225-31-33.5-1.795-3.589 3-5.044 3-7.5l7-5c7.18 0 29 33.746 29 41Z"/><path fill="#FF9BCD" id="MY" d="M134 238c-2.732 0-2.309 13 1 13 0-3.823-1-8.586-1-13Z"/><path fill="#FEC6E2" id="RO" d="M227 265h2v-4c0-10.136-2-13.704-2-1v5Z"/><path fill="#FF9BCD" id="MY" d="M135 254c1.473 0 1 1.952 1 3-1.473 0-1-1.952-1-3ZM321 256l-1 1 1-1ZM136 258l1 1-1-1ZM320 259l-1 1 1-1Z"/><path fill="#C8C8CC" id="tspc" d="M219 275h1l1-1c0-2.02 4.152-9 6-9v-5c-2.984 0-13.61 15-8 15ZM230 265c2.949 0 2.83 10 7 10 6.956 0-4.532-14-8-14v2l1 2Z"/><path fill="#FF9BCD" id="MY" d="m137 261 1 1-1-1ZM319 262l-1 1 1-1ZM138 263l1 1-1-1ZM229 265h1l-1-2v2ZM318 264l-1 1 1-1ZM140 265l1 1-1-1Z"/><path fill="#FFB3D8" id="IO" d="M227 279c0 2.409-1 5.181-1 7-1.182 0-10-4.981-10-6.5 0-2.3 3-2.068 3-4.5h1l1-1c0-2.02 4.152-9 6-9v14Z"/><path fill="#FF9BCD" id="MY" d="m229 277-2 2v-14h2v12Z"/><path fill="#FFB3D8" id="IO" d="m229 277 1 9c3.004 0 3.897-1.397 6-3.5 1.106-1.106 5.359-1.281 4-4l-3-3.5c-4.17 0-4.051-10-7-10h-1v12Z"/><path fill="#FF9BCD" id="MY" d="m314 267-1 1v-1h1ZM143 268l1 1-1-1ZM176 268l-2 3.5c0 3.521 12.623.562 4.5-3.5H176ZM277 268l-1 3.5c2.88 5.76 10.679-3.5 1-3.5ZM313 268l-1 1 1-1ZM154 279c0-2.56 3.334 0 4 0l1-2c-4.092 0-8-1.303-8-6l-4-1-1-1h-1c0 2.945 4 5.478 4 7 2.554 0 3.688 3 5 3Z"/><path fill="#FDA5D2" id="SPVI" d="m146 269 1 1-1-1ZM310 269l-1 1 1-1Z"/><path fill="#FF9BCD" id="MY" d="M299 278c1.048 0 3-.473 3 1l5-3c0-1.521 4-3.672 4-7h-1l-1 1h-1l-1 1h-1c0 3.744-4.86 6-8 6l1 1ZM319 269c-1.747 0-2 .253-2 2 1.747 0 2-.253 2-2Z"/><path fill="#FDA5D2" id="SPVI" d="m308 270-1 1 1-1Z"/><path fill="#FF9BCD" id="MY" d="M309 276c0 4.266-5 4.799-5 9 .852 0 13-12.498 13-14-2.751 0-4.565 5-8 5ZM221 274l-1 1 1-1Z"/><path fill="#C9CACA" id="sctd" d="M154 279c1.283 0 4 5.666 4 7-3.951 0-10-4.398-10-10h1c2.554 0 3.688 3 5 3Z"/><path fill="#FCB3D7" id="LRNm" d="M166 291h1l6.5 4c9.039 4.519 15.5-7.186 15.5-14 0-3.603-5.191-5-8-5-4.873 0-9.123 3-13 3-1.145 0-4 .579-4-1l-5-1-1 2c0 3.571 5 5.945 5 9l3 3ZM290 291c-1.238 0-3 .423-3 2-2.606 0-2.4.95-4.5 2-8.881 4.44-15.5-7.374-15.5-14 0-3.132 4.904-5 8-5 4.873 0 9.123 3 13 3 1.235 0 5 .643 5-1h2l1-1h2l1 1c0 4.189-6 6.956-6 11-1.238 0-3 .423-3 2Z"/><path fill="#C9CACA" id="sctd" d="M304 285c-1.238 0-5 3.402-5 1 0-3.047 3-4.462 3-7l5-3h2c0 4.266-5 4.799-5 9Z"/><path fill="#FF9BCD" id="MY" d="M164 278c0 1.579 2.855 1 4 1l-1-2-3 1Z"/><path fill="#FFC6E2" id="RPA" d="M227 295h2l2-2.5c1.081-2.161-1-4.894-1-6.5l-1-9-2 2c0 2.409-1 5.181-1 7 0 3.013 1 6.611 1 9Z"/><path fill="#FF9BCD" id="MY" d="M293 278c0 1.643-3.765 1-5 1l1-2 4 1ZM296 277l-1 1 1-1Z"/><path fill="#C8C8CB" id="rust" d="M163 288v1l-3-1-2-2c0-1.334-2.717-7-4-7 0-2.56 3.334 0 4 0 0 3.571 5 5.945 5 9ZM297 288l-4 1c0-4.044 6-6.811 6-11 1.048 0 3-.473 3 1 0 2.538-3 3.953-3 7l-2 2Z"/><path fill="#FFB3D8" id="IO" d="M207 283c0 4.478-14.154 6.192-12 10.5 2.635 5.27 24.759-10.5 12-10.5ZM245 283c0 5.399 13.712 15.076 16 10.5 1.339-2.678-12.789-10.5-16-10.5Z"/><path fill="#FF9BCD" id="MY" d="M297 288c0 4.7-10 5.036-10 8 3.795 0 17-6.324 17-11-1.238 0-5 3.402-5 1l-2 2Z"/><path fill="#C7C9C9" id="py" d="M213 286c0 3.339-9.926 6.647-8 10.5 1.294 2.588 26.205-2.647 12.5-9.5-1.718-.859-2.387-1-4.5-1ZM239 286c0 2.143-5.853 2.793-4 6.5 1.876 3.751 17 6.336 17 3 0-3.093-10.222-9.5-13-9.5Z"/><path fill="#CBC7CC" id="sctv" d="M172 297h1c0-3.287-6-3.053-6-6h-1l-3-2-3-1c0 4.508 12 8.489 12 9Z"/><path fill="#FF9BCD" id="MY" d="m163 289 3 2-3-3v1Z"/><path fill="#CBC7CC" id="sctv" d="M287 293c0 1.662-5.604 3 0 3 0-2.964 10-3.3 10-8l-4 1c0 1.577-1.762 2-3 2 0 1.577-1.762 2-3 2Z"/><path fill="#FF9BCD" id="MY" d="M293 289c-1.238 0-3 .423-3 2 1.238 0 3-.423 3-2ZM290 291c-1.238 0-3 .423-3 2 1.238 0 3-.423 3-2Z"/></svg>