<svg xmlns="http://www.w3.org/2000/svg" viewBox="0 0 456 320"><path fill="#FEFA90" id="DEC" fill-rule="evenodd" d="M177 67c0 2.091 3.746 0 0 0m96-2 6.5 4-1-2c-1.944-.972-3.075-2-5.5-2m-93 0c0 4.282 5.195 0 0 0m14 66c0-2.078-7.584-5.668-9-8.5-4.531-9.062-9.192-22.616-4-33 4.462-8.925 13.19-8.845 20.5-12.5 17.217-8.609 65.3-4.9 74.5 13.5 5.458 10.916-1.684 25.367-6 34l-8 6.5c6.65 0 11.048-6 17-6l1-1 5-12.5V73c0-4.322-7.347-3 1-3 0-4.933 1-10.73 1-15l-18.5-8c-12.068-6.034-33.707-4-48.5-4h-16.5l-21 6-12.5 6 1 15c7.488 0 0-.535 0 3v35.5c.74 1.48 6 14.861 6 15.5 0 1.254 14.386 7 17 7Z"/><path fill="#FDFB8F" id="SIM" d="m171 70-5 3.5c-2.149 4.299-7.703 19.5-14 19.5 0-6.525-2.235-14.97-5-20.5l-4-5.5 8.5-8c5.314-2.657 12.094-4 18.5-4l1 15ZM286 70l5 4.5c2.473 4.946 7.054 18.5 14 18.5 0-6.877 1.158-13.817 4-19.5l4-6.5c0-6.666-20.185-12-26-12 0 4.27-1 10.067-1 15Z"/><path fill="#CBC9CC" id="arb" d="M180 65c0 4.282 5.195 0 0 0ZM273 65l6.5 4-1-2c-1.944-.972-3.075-2-5.5-2Z"/><path fill="#FCFC90" id="ANcr1" fill-rule="evenodd" d="M135 88c0 3.705 10 6.652 10 6.5l-4-2-2.5-1.5-3.5-3m-36 7c14.327 0 19.114 17.728 24 27.5 2.588 5.175 22 6.861 22 9.5 8.088 0 11.035-23.43 8-29.5l-5-7 4-2.5c0-6.525-2.235-14.97-5-20.5l-4-5.5c-8.172 0-31.913 9.327-36 17.5-1.876 3.753-8 4.935-8 10.5Z"/><path fill="#CBC9CC" id="arb" d="M177 67c0 2.091 3.746 0 0 0Z"/><path fill="#FCFC90" id="ANcr1" fill-rule="evenodd" d="M311 94c0 2.091 3.746 0 0 0m2-1c0 2.091 3.746 0 0 0m3-2c0 4.136 2.609 0 0 0m4-3-2 2.5c0 1.54 7.807-2.5 2-2.5m37 7c-16.229 0-16.558 20.058-24 27.5-5.178 5.178-10.638 4.569-16.5 7.5-1.319.659-5.5-.334-5.5 2-8.513 0-8-15.133-8-21 0-4.613.11-8.721 2-12.5l4-3-4-2.5c0-6.877 1.158-13.817 4-19.5l4-6.5c9.63 0 44 14.747 44 28Z"/><path fill="#CBC9CC" id="arb" fill-rule="evenodd" d="M279 131c0 3.352-20.21 10.355-23.5 12-1.188.594-6.5-.018-6.5 2.5l8.5 5.5c13.327 6.663 14.078-2.039 24-7 2.286-1.143 10.21-7.081 8.5-10.5-1.875-3.75-7.522-2.5-11-2.5m-110 0c0 1.284-3.47 2.561-2 5.5 3.186 6.373 16.987 17.5 24 17.5 2.737 0 17.422-6.656 16-9.5l-5.5-1.5c-5.128-2.564-10.759-3.379-16-6-8.198-4.099-5.6-6-16.5-6m-26 56h2c0-1.747.253-2 2-2l1-3 2-1c0-4.401 5.702-5.904 7-8.5 2.206-4.412 8.374-5.437 12.5-7.5 8.993-4.496 14.524-9 25.5-9 0-2.378 11.54-4.02 13.5-5 13.56-6.78 26.372-6.814 40 0 1.892.946 13.5 2.906 13.5 5 9.895 0 30.378 8.878 37 15.5 2.565 2.565 9 7.522 9 10.5l6 6c0-.41-13.52-30.539-15-33.5l-6-6c-1.879-3.758-3.518-13.5 4-13.5 0-1.263 5.36-1.57 6.5-1l12 9c10.12 5.06 18.845 12.922 29 18l9.5 10.5 3.5 3.5c6.349-3.174-17.065-21.631-18.5-24.5l1-2.5c0-3.664 19.002-6 23-6 1.203 0 8.133 3.765 7 1.5-.838-1.676-3.839-3.678-5-6-.471-.942.73-4.5-1.5-4.5l-3 3-8 3h-5c-9.712 4.856-19.863 2.569-29-2-1.439-.72-7.5-3.101-7.5-5-8.513 0-8-15.133-8-21 0-4.613.11-8.721 2-12.5l4-3-4-2.5c-6.946 0-11.527-13.554-14-18.5l-5-4.5c-8.347 0-1-1.322-1 3 5.806 0 6.23 10.96 8 14.5 6.134 12.267 4.193 36.5-13 36.5l-1 1c-5.952 0-10.35 6-17 6l-2 1c-9.187 0-29.296 11.602-38.5 7-6.527-3.264-17.999-7-25.5-7l-1-1h-1c-2.614 0-17-5.746-17-7-3.785 0-8.299-1.399-11.5-3-5.934-2.967-5.215-27.07-2.5-32.5 1.428-2.857 3.149-15.5 8-15.5 0-3.535 7.488-3 0-3l-5 3.5c-2.149 4.299-7.703 19.5-14 19.5l-4 2.5 5 7c3.035 6.07.088 29.5-8 29.5 0 4.104-14.246 9-18 9-6.947 0-11.992 1.254-18.5-2h-5c-1.918-.959-4.203-1.101-6-2l-5-4-1.5 6.5-4 4c0 .442 6.177-1.5 7.5-1.5 3.86 0 21.5 2.161 21.5 6 3.138 0-1.645 5.789-2 6.5-1.59 3.181-21.86 16.82-14.5 20.5l2.5-2.5c1.699-3.399 6.391-9.945 9.5-11.5l29-18c4.638-2.319 8.413-6.706 13-9 1.073-.536 5.5-.251 5.5 1 3.98 0 7.926 6.649 6 10.5-2.183 4.366-6.635 6.269-9 11-1.661 3.322-1.372 7.744-3 11-2.83 5.66-10 12.955-10 19.5m139-30c1.364 0 13.162 3.669 8.5 6-2.596 1.298-7.311-5-9.5-5-2.716 0 0-15.898 0-6.5v2.5l1 3m-107 0c-2.998 0-5.895.395-8 2.5-.645.645-3.276 2.612-1.5 3.5 1.941.97 7.584-4 9.5-4 4.765 0 0-19.21 0-5.5v3.5Z"/><path fill="#FDFB8F" id="SIM" d="M171 73c-4.851 0-6.572 12.643-8 15.5-2.715 5.43-3.434 29.533 2.5 32.5 3.201 1.601 7.715 3 11.5 3 0-.639-5.26-14.02-6-15.5V73Z"/><path fill="#FCFB90" id="CUL4, 5" d="M196 132c7.501 0 18.973 3.736 25.5 7 9.204 4.602 29.313-7 38.5-7l2-1 8-6.5c4.316-8.633 11.458-23.084 6-34-9.2-18.4-57.283-22.109-74.5-13.5-7.31 3.655-16.038 3.575-20.5 12.5-5.192 10.384-.531 23.938 4 33 1.416 2.832 9 6.422 9 8.5h1l1 1Z"/><path fill="#FDFB8F" id="SIM" d="M285 73c5.806 0 6.23 10.96 8 14.5 6.134 12.267 4.193 36.5-13 36.5l5-12.5V73Z"/><path fill="#CBC9CC" id="arb" d="M135 88c0 3.705 10 6.652 10 6.5l-4-2-2.5-1.5-3.5-3ZM320 88l-2 2.5c0 1.54 7.807-2.5 2-2.5ZM316 91c0 4.136 2.609 0 0 0ZM313 93c0 2.091 3.746 0 0 0ZM311 94c0 2.091 3.746 0 0 0Z"/><path fill="#FCFA91" id="ANcr2" fill-rule="evenodd" d="M86 144c0 1.93 1.93 0 0 0m30 4c-8.56 0-30.556 16-37 16-14.567 0-12-13.658-12-25l2-4.5 1-7c5.084-10.168 9.418-21.459 19.5-26.5l9.5-6c14.327 0 19.114 17.728 24 27.5 2.588 5.175 22 6.861 22 9.5 0 4.104-14.246 9-18 9-6.947 0-11.992 1.254-18.5-2h-5c-1.918-.959-4.203-1.101-6-2l-5-4-1.5 6.5-4 4c0 .442 6.177-1.5 7.5-1.5 3.86 0 21.5 2.161 21.5 6Z"/><path fill="#FCFA91" id="ANcr2" d="M340 148c3.184 0 27.34 9.84 29.5 12l7.5 4c1.865 0 5.2.65 6.5 0 4.848-2.424 9.155-15.19 6.5-20.5-2.08-4.16-.942-9.884-3-14-6.095-12.19-10.609-24.054-23.5-30.5l-6.5-4c-16.229 0-16.558 20.058-24 27.5-5.178 5.178-10.638 4.569-16.5 7.5-1.319.659-5.5-.334-5.5 2 0 1.899 6.061 4.28 7.5 5 9.137 4.569 19.288 6.856 29 2h5l8-3 3-3c2.23 0 1.029 3.558 1.5 4.5 1.161 2.322 4.162 4.324 5 6 1.133 2.265-5.797-1.5-7-1.5-3.998 0-23 2.336-23 6Z"/><path fill="#FDFB8F" id="SIM" d="m280 124-1 1 1-1Z"/><path fill="#FFFCBC" id="FN" d="M169 131c0 1.284-3.47 2.561-2 5.5 3.186 6.373 16.987 17.5 24 17.5 2.737 0 17.422-6.656 16-9.5l-5.5-1.5c-5.128-2.564-10.759-3.379-16-6-8.198-4.099-5.6-6-16.5-6Z"/><path fill="#FEFA90" id="DEC" d="m195 131 1 1-1-1ZM262 131l-2 1 2-1Z"/><path fill="#FFFCBC" id="FN" d="M279 131c0 3.352-20.21 10.355-23.5 12-1.188.594-6.5-.018-6.5 2.5l8.5 5.5c13.327 6.663 14.078-2.039 24-7 2.286-1.143 10.21-7.081 8.5-10.5-1.875-3.75-7.522-2.5-11-2.5Z"/><path fill="#FFFB8E" id="PRM" d="M115 201c-4.737 0-7.84 4-12 4-12.294 0-21.344-23.188-26-32.5l2-8.5c6.444 0 28.44-16 37-16 3.138 0-1.645 5.789-2 6.5-1.59 3.181-21.86 16.82-14.5 20.5l2.5-2.5c1.699-3.399 6.391-9.945 9.5-11.5l29-18c4.638-2.319 8.413-6.706 13-9 1.073-.536 5.5-.251 5.5 1-4.662 0-6.614 6.057-10.5 8-9.939 4.97-25.5 31.576-25.5 42 0 6.073-8 10.301-8 16ZM342 201c4.196 0 7.152 4 11 4 13.419 0 21.949-24.397 27-34.5.177-.355-3-4.917-3-6.5l-7.5-4c-2.16-2.16-26.316-12-29.5-12l-1 2.5c1.435 2.869 24.849 21.326 18.5 24.5l-3.5-3.5-9.5-10.5c-10.155-5.078-18.88-12.94-29-18l-12-9c-1.14-.57-6.5-.263-6.5 1 5.926 0 9.485 8.493 14.5 11 9.098 4.549 21.5 29.515 21.5 39 1.59 0 1.443 4.386 2 5.5l7 10.5Z"/><path fill="#FFF990" id="COPY" d="M142 189c0 2.257-7.243 12-10 12 0-2.631-5.533-16-9-16 0-10.424 15.561-37.03 25.5-42 3.886-1.943 5.838-8 10.5-8 3.98 0 7.926 6.649 6 10.5-2.183 4.366-6.635 6.269-9 11-1.661 3.322-1.372 7.744-3 11-2.83 5.66-10 12.955-10 19.5l-1 2ZM314 188c0 2.172 7.279 13 10 13 1.361 0 2.379-6.258 3-7.5.969-1.937 6-7.405 6-8.5 0-9.485-12.402-34.451-21.5-39-5.015-2.507-8.574-11-14.5-11-7.518 0-5.879 9.742-4 13.5l6 6c1.48 2.961 15 33.09 15 33.5Z"/><path fill="#CBC9CC" id="arb" d="M86 144c0 1.93 1.93 0 0 0Z"/><path fill="#FFFA8F" id="UVU" d="M195 156h67c0-2.094-11.608-4.054-13.5-5-13.628-6.814-26.44-6.78-40 0-1.96.98-13.5 2.622-13.5 5Z"/><path fill="#F0F080" id="CB" d="M175 157v2c4.765 0 0-19.21 0-5.5v3.5ZM282 157l-1 1c-2.716 0 0-15.898 0-6.5v2.5l1 3Z"/><path fill="#FDFC8F" id="NOD" d="m245 190-2 1c-6.162 0-19.312 4.094-25.5 1-1.157-.579-5.491-3-6.5-3h-1l-1-1h-1l-1-1h-1l-2-1h-1l-2-1h-2c0-1.614-3.31-1-4.5-1-3.533 0-7.456-1-11.5-1-11.706 0-22.213-2-33-2 0-4.401 5.702-5.904 7-8.5 2.206-4.412 8.374-5.437 12.5-7.5 8.993-4.496 14.524-9 25.5-9h67c9.895 0 30.378 8.878 37 15.5 2.565 2.565 9 7.522 9 10.5-2.839 0-6.121-3.69-9.5-2-6.776 3.388-17.439 3-25.5 3-2.376 0-15 .025-15 2h-3l-2 1-2 1h-2l-1 1-3 2Z"/><path fill="#FFFDBC" id="IP" d="M175 157c-2.998 0-5.895.395-8 2.5-.645.645-3.276 2.612-1.5 3.5 1.941.97 7.584-4 9.5-4v-2ZM282 157c1.364 0 13.162 3.669 8.5 6-2.596 1.298-7.311-5-9.5-5l1-1Z"/><path fill="#A9AAA7" id="V4r" d="M160 193c-4.349 0-6.918 4-11 4 0-4.346 12.355-6.21 14-9.5 2.281-4.561-7.465-7.017-10.5-5.5l-5.5 3 1-3 2-1c10.787 0 21.294 2 33 2v1c-4.947 0-8.729 3-13 3l-1 1-1 1c-1.465 0-4-.109-4 2h-1l-1 1-2 1ZM329 227c.491 0 5 8.612 5 6v-20c-.913 0-2-5.014-2-6l-8-6c-2.721 0-10-10.828-10-13l-6-6c-2.839 0-6.121-3.69-9.5-2-6.776 3.388-17.439 3-25.5 3v1c5.102 0 8.712 3 13 3l2 1 1 1c1.238 0 3 .423 3 2h1l14 6c0-4.312-16.526-7.447-14-12.5l4.5-1.5c11.075-5.538 20.032 15.032 26 21 1.926 1.926 10.34 6.821 8.5 10.5l-1 3c-3.139 6.278-9.51-8.5-12-8.5 0 5.462 10 11.041 10 17v1Z"/><path fill="#FDFC8F" id="NOD" d="m150 181-2 1 2-1Z"/><path fill="#A9AAA8" id="chpl" d="M135 212c-1.577 0-2 1.762-2 3l-5.5 4c-3.602-1.801-2.834-6.833-1.5-9.5 2.506-5.012 17-10.648 17-20.5l2-2 2-2 5.5-3c3.035-1.517 12.781.939 10.5 5.5-1.645 3.29-14 5.154-14 9.5h-1l-1 1-4 4-1 1-1 1-1 1-1 1-2 3-1 1-1 1v1ZM319 208v1c2.49 0 8.861 14.778 12 8.5l1-3c1.84-3.679-6.574-8.574-8.5-10.5-5.968-5.968-14.925-26.538-26-21l-4.5 1.5c-2.526 5.053 14 8.188 14 12.5 1.668 0 6 3.099 6 5l1 1 1 1 1 1 1 1 2 2Z"/><path fill="#AAA9A7" id="V4" d="M192 185h7c0-1.614-3.31-1-4.5-1-3.533 0-7.456-1-11.5-1v1l8 1h1ZM258 185h7l8-1v-1c-2.376 0-15 .025-15 2Z"/><path fill="#FEB1D9" id="SPIV" d="M187 203c-3.614 0-6.899 4-11 4-6.508 0-7-5.416-7-11l-1-5v-2l1-1 1-1c4.271 0 8.053-3 13-3l8 1 1 1c0 6.02-4 10.872-4 16l-1 1ZM269 203l11 4c5.547 0 8-5.031 8-10 0-1.033-2.19-6 1-6l-3-4c-4.288 0-7.898-3-13-3l-8 1v9.5l4 8.5Z"/><path fill="#FFFC8D" id="PFL" d="M124 208c-1.819 0-4.591 1-7 1l-2-1v-7c0-5.699 8-9.927 8-16 3.467 0 9 13.369 9 16 0 1.59-5.662 6-7 6l-1 1Z"/><path fill="#A9AAA7" id="V4r" d="M147 185c-1.747 0-2 .253-2 2l2-2Z"/><path fill="#FF9BCD" id="MY" d="M192 185v1l-1-1h1Z"/><path fill="#FFB0D7" id="MV" d="m203 204 8 1 4-4 2-4c0-3.517-6-4.95-6-8h-1l-1-1h-1l-1-1h-1l-2-1h-1l-2-1h-9v1c0 6.02-4 10.872-4 16v1c2.075 0 15-.797 15 1Z"/><path fill="#AAA9A7" id="V4" d="m201 185 2 1-2-1ZM255 185l-2 1 2-1Z"/><path fill="#FFB0D7" id="MV" d="m253 204-8 1-4-4-2-4 4-6 2-1 3-2 1-1h2l2-1 2-1h10v9.5l4 8.5c-2.158 0-16-.801-16 1Z"/><path fill="#FFFC8D" id="PFL" d="M339 209h2l1-1 1-1-1-6-7-10.5c-.557-1.114-.41-5.5-2-5.5 0 1.095-5.031 6.563-6 8.5-.621 1.242-1.639 7.5-3 7.5l8 6c.062 0 4.153 2 7 2Z"/><path fill="#AAA9A7" id="V4" d="m204 186 2 1-2-1ZM253 186l-2 1 2-1Z"/><path fill="#CBC9CC" id="arb" d="M142 189h1v-2l-1 2Z"/><path fill="#A9AAA7" id="V4r" d="m145 187-2 2v-2h2Z"/><path fill="#F0F080" id="CB" d="m170 187-1 1 1-1Z"/><path fill="#AAA9A7" id="V4" d="m207 187 1 1-1-1ZM249 187l-1 1 1-1Z"/><path fill="#FF9BCD" id="MY" d="M289 191h3c0-1.577-1.762-2-3-2l-1-1-2-1 3 4ZM169 188l-1 1 1-1Z"/><path fill="#AAA9A7" id="V4" d="m209 188 1 1-1-1Z"/><path fill="#F0F080" id="CB" d="m288 188 1 1-1-1Z"/><path fill="#A9AAA7" id="V4r" d="m125 232-3 1 1-20 1-5 1-1c1.338 0 7-4.41 7-6 2.757 0 10-9.743 10-12h1c0 9.852-14.494 15.488-17 20.5-1.334 2.667-2.102 7.699 1.5 9.5l5.5-4-2 5-1 2-1 1v1l-1 1v1l-1 1v1l-1 1-1 2v1Z"/><path fill="#FF9BCD" id="MY" d="M164 191h4v-2c-1.465 0-4-.109-4 2Z"/><path fill="#AAA9A7" id="V4" d="M238 197h1l4-6c-6.162 0-19.312 4.094-25.5 1-1.157-.579-5.491-3-6.5-3 0 3.05 6 4.483 6 8l4 3c0-2.021-4.303-3.894-3-6.5l19.5-.5c2.225 1.113.5 2.212.5 4ZM245 190l-2 1 2-1Z"/><path fill="#FF9BCD" id="MY" d="m163 191-1 1 1-1Z"/><path fill="#FFA2D2" id="ECU" d="M160 193c0 10.255 3.396 3 9 3l-1-5h-5l-1 1-2 1ZM293 191l4 3.5c3.452 6.904-7.341 2.5-9 2.5 0-1.033-2.19-6 1-6h4Z"/><path fill="#FF9BCD" id="MY" d="M285 213c3.316 0 5.41-9.045 11.5-6l14 7 4.5 4c0-4.97-16.081-10.663-18-14.5-1.776-3.552 8-.423 8-1.5l-4-4.5 2.5-.5c2.733 1.367 9.5 5.43 9.5 9l5 6c0-.322 6.863 8.226 8 10.5l3 3.5c0-5.959-10-11.538-10-17v-1l-2-2-1-1-1-1-1-1-1-1c0-1.901-4.332-5-6-5l-14-6 4 3.5c3.452 6.904-7.341 2.5-9 2.5 0 4.969-2.453 10-8 10 0 1.692 5 2.921 5 6ZM162 192l-2 1 2-1ZM134 218l-3 2 2-5c1.577 0 2-1.762 2-3v-1l1-1 1-1 2-3 1-1 1-1 1-1 1-1 4-4 1-1h1c4.082 0 6.651-4 11-4 0 10.255 3.396 3 9 3 0 5.584.492 11 7 11l-5 5-6.5-5c-3.528-1.764-8.121 2-11.5 2 0-2.359 7.225-4.05 6-6.5-1.815-3.63-8 1.797-8-.5l4-4.5c-.828-1.657-3.651 1.075-4.5 1.5-2.646 1.323-6.5 3.4-6.5 7l-5 5c-2.293 0-2 .997-2 3l-1 1-1 2-1 1Z"/><path fill="#A9AAA8" id="chpl" d="m232 205-1 1c-5.397 0-7.726-5-10-5v-1c0-2.021-4.303-3.894-3-6.5l19.5-.5c2.225 1.113.5 2.212.5 4l-1 1v1l-1 1-1 1-2 2v1l-1 1Z"/><path fill="#A9AAA7" id="V4r" d="m148 197-1 1 1-1Z"/><path fill="#C9C9C8" id="icp" d="M151 202c-2.46 0-4.17 4-7 4 0-3.6 3.854-5.677 6.5-7 .849-.425 3.672-3.157 4.5-1.5l-4 4.5Z"/><path fill="#FFB3D7" id="PRP" d="m232 205-1 1c0 5.127-10-1.917-10-5v-1l-4-3-2 4-1 7.5c4.483 8.966 24.52 7.961 29-1l-2-6.5-2-4h-1l-1 1v1l-1 1-1 1c0 1.747-.253 2-2 2v1l-1 1Z"/><path fill="#AAA9A7" id="V4" d="m238 197-1 1 1-1Z"/><path fill="#C9C9C8" id="icp" d="m305 202 8 4c0-3.57-6.767-7.633-9.5-9l-2.5.5 4 4.5Z"/><path fill="#AAA9A7" id="V4" d="m237 199-1 1 1-1ZM236 200l-1 1 1-1Z"/><path fill="#F0F080" id="CB" d="M103 205c0 .573 10.704 3 12 3v-7c-4.737 0-7.84 4-12 4Z"/><path fill="#C8CACA" id="sptV" d="m139 273 5 2 2.5 1c8.832-4.416-3.5-3.48-3.5-7h-2l-2-2h-1l-3-3-1-2-1-1v-1c-1.577 0-2-1.762-2-3v-2l-2-4v-10l1-2v-2c0-1.048-.473-3 1-3v-1l1-2 1-1v-1l1-1v-1l1-1 1-1 1-1 2-3 1-1 1-1 1-1 1-2c0-1.712 2.571-3 4-3l1-1 1-1h1l1-1 2-1c0-2.359 7.225-4.05 6-6.5-1.815-3.63-8 1.797-8-.5-2.46 0-4.17 4-7 4l-5 5c0 1.238-.423 3-2 3l-1 1-1 2-1 1-10 21c0 1.321.684 6-1 6v2c1.684 0 1 4.679 1 6v1c1.473 0 1 1.952 1 3v1l2 4v1l1 1 1 2 1 1 1 1 1 1h1c.781 0 6 3.19 6 4Z"/><path fill="#FF9BCD" id="MY" d="M227 243h2v-21.5c1.504-3.008 2 2.788 2 3.5h4l-1-4.5c2.554-5.108 10-2.601 10 2.5.622 0 5.987-6 11-6 0-1.947-3-2.636-3-5-5.396 0-7-1.699-7-7l-4-4 2 6.5c-4.48 8.961-24.517 9.966-29 1l1-7.5-4 4c0 4.83-.785 7-7 7 0 3.151-3 2.703-3 5 3.968 0 12 3.008 12 8h1c0-1.423-1.978-3.544-1-5.5 1.172-2.345 7.828-2.345 9 0 .978 1.956-1 4.077-1 5.5h4c0-.734.972-5.557 2-3.5 2.845 5.689 0 15.76 0 21.5Z"/><path fill="#AAA9A7" id="V4" d="M221 201c2.274 0 4.603 5 10 5 0 5.127-10-1.917-10-5ZM235 201l-2 2c1.747 0 2-.253 2-2Z"/><path fill="#C8CACA" id="sptV" d="m312 275-1 1c-1.408 0-5-1.197-5-3l1-1 6-3h2l1-1h1l1-1 1-1 1-1 1-1 1-1 1-1v-1l1-1v-1l1-1v-2l1-2 1-2v-1c1.602 0 1.602-7 0-7v-5c0-1.048.473-3-1-3v-1l-1-2-1-3-1-1v-1l-2-2-2-3-3-3-1-2c0-4.97-16.081-10.663-18-14.5-1.776-3.552 8-.423 8-1.5l8 4 5 6 11 18.5c.769 1.537 2.456 10.5 4 10.5v11c-1.579 0-1 2.855-1 4-1.473 0-1 1.952-1 3v1l-1 1v1l-1 1v1l-1 1-1 2h-1l-1 1-1 1c-1.238 0-5 1.923-5 3l-2 1-5 2Z"/><path fill="#F0F080" id="CB" d="M353 205c0 1.16-8.505 2-10 2l-1-6c4.196 0 7.152 4 11 4Z"/><path fill="#A9AAA7" id="V4r" d="m143 202-1 1 1-1Z"/><path fill="#FF9BCD" id="MY" d="M187 203h1v-1l-1 1Z"/><path fill="#A9AAA7" id="V4r" d="m313 202 1 1-1-1ZM142 203l-1 1 1-1Z"/><path fill="#FDA5D1" id="NTS" d="M177 221h2c4.783 0 10.26-2 16-2h1l5-2c0-2.297 3-1.849 3-5-7.296 0-1-6.961-1-8 0-1.797-12.925-1-15-1h-1c-3.614 0-6.899 4-11 4l-5 5 6 9ZM280 220l-2 1c-5.378 0-10.79-2-17-2l-3-1-1-1h-2c0-1.947-3-2.636-3-5 1.812 0 5.075-3.35 4-5.5l-3-2.5c0-1.801 13.842-1 16-1l11 4c0 1.692 5 2.921 5 6l-5 7Z"/><path fill="#A9AAA7" id="V4r" d="m141 204-1 1 1-1Z"/><path fill="#FDB1D8" id="DMX" d="M211 205c0 4.83-.785 7-7 7-7.296 0-1-6.961-1-8l8 1Z"/><path fill="#AAA9A7" id="V4" d="m233 204-1 1 1-1Z"/><path fill="#FDB1D8" id="DMX" d="M245 205c0 5.301 1.604 7 7 7 1.812 0 5.075-3.35 4-5.5l-3-2.5-8 1Z"/><path fill="#A9AAA7" id="V4r" d="m315 204 1 1-1-1ZM140 205l-1 1 1-1Z"/><path fill="#AAA9A7" id="V4" d="m232 205-1 1 1-1Z"/><path fill="#A9AAA7" id="V4r" d="m317 206 2 2-2-2Z"/><path fill="#F0F080" id="CB" d="m125 207-1 1 1-1Z"/><path fill="#FDA5D2" id="SPVI" d="M143 269h6c8.987 0 7.184-22.869 10-28.5 3.365-6.729 17-7.853 17-16.5l1-1v-2l-6-9-6.5-5c-3.528-1.764-8.121 2-11.5 2l-2 1-1 1h-1l-1 1-1 1c0 1.712-2.571 3-4 3l-1 2-1 1-1 1-1 1-2 3-1 1-1 1-1 1v1l-1 1v1l-1 1-1 2v1c0 1.048.473 3-1 3v2l-1 2v10l2 4v2l2 3v1l1 1 1 2 3 3h1l2 2h2ZM313 269h2l1-1h1l1-1 1-1 1-1 1-1 1-1 1-1v-1l1-1v-1l1-1v-2l1-2 1-2v-13c-1.473 0-1-1.952-1-3v-1l-1-2-1-3-1-1v-1l-2-2-2-3-3-3-1-2-4.5-4-14-7c-6.09-3.045-8.184 6-11.5 6l-5 7v3c0 8.34 14.519 12.538 18 19.5 2.68 5.36-.244 26.5 9 26.5h6Z"/><path fill="#F0F080" id="CB" d="M339 209c0 1.811-3.438 4-5 4-.913 0-2-5.014-2-6 .062 0 4.153 2 7 2ZM343 207l-1 1 1-1ZM117 209c0 1.028 4.666 4 6 4l1-5c-1.819 0-4.591 1-7 1ZM342 208l-1 1 1-1Z"/><path fill="#A9AAA7" id="V4r" d="m137 209-1 1 1-1Z"/><path fill="#FF9BCD" id="MY" d="m153 209-2 1 2-1Z"/><path fill="#A9AAA7" id="V4r" d="m136 210-1 1 1-1Z"/><path fill="#FF9BCD" id="MY" d="m151 210-1 1 1-1Z"/><path fill="#C9C9C8" id="icp" d="M139 211c-2.293 0-2 .997-2 3 1.577 0 2-1.762 2-3Z"/><path fill="#FF9BCD" id="MY" d="m149 211-1 1 1-1Z"/><path fill="#C9C9C8" id="icp" d="M329 227c0 4.769 4 8.687 4 14-1.544 0-3.231-8.963-4-10.5L318 212c0-.322 6.863 8.226 8 10.5l3 3.5v1Z"/><path fill="#A9AAA7" id="V4r" d="M135 212c-1.577 0-2 1.762-2 3 1.577 0 2-1.762 2-3Z"/><path fill="#FF9BCD" id="MY" d="m148 212-1 1 1-1ZM147 213c-1.429 0-4 1.288-4 3 1.429 0 4-1.288 4-3Z"/><path fill="#C9C9C8" id="icp" d="m137 214-1 1 1-1ZM136 215l-1 2 1-2ZM135 217l-1 1 1-1Z"/><path fill="#FFB2D8" id="IRN" fill-rule="evenodd" d="m187 246-1 3.5c1.968 3.936 14 5.524 14-1 0-2.464-11.001-2.5-13-2.5m-8 19h4c3.186 0 6.865-2 11-2 0-1.995 12.157-25.813 14-29.5.783-1.565 3.064-8.5 5-8.5 0-4.992-8.032-8-12-8l-5 2-1 1c0 2.048-16.421 29.921-18.5 32-1.792 1.792-3.207 9-6.5 9v1l1 1h1l3 2h4ZM262 246c0 2.177-7.485-.47-5 4.5 4.241 8.482 21.014-4.5 9.5-4.5H262m18 19h1l1-1h1l1-1h1l1-1-5-7.5c-2.785-5.571-20-32.153-20-35.5l-3-1-1-1h-2c-5.013 0-10.378 6-11 6v2c0 2.648 11.997 24.493 14 28.5l5 9.5c3.702 0 7.27 2 10 2h7Z"/><path fill="#FF9BCD" id="MY" d="m257 217 1 1-1-1Z"/><path fill="#C9C9C8" id="icp" d="m125 232-1 7 10-21-3 2-1 2-1 1v1l-1 1v1l-1 1v1l-1 1-1 2v1Z"/><path fill="#FF9BCD" id="MY" d="m142 218-1 1 1-1Z"/><path fill="#FCB3D8" id="PGRNd" d="M214 225h7c0-1.423 1.978-3.544 1-5.5-1.172-2.345-7.828-2.345-9 0-.978 1.956 1 4.077 1 5.5ZM243 224c-2.097 0-5.293 1-8 1l-1-4.5c2.554-5.108 10-2.601 10 2.5l-1 1Z"/><path fill="#FF9BCD" id="MY" d="m141 219-1 1 1-1Z"/><path fill="#FCB3D9" id="PARN" d="M153 275h1c3.066 0 4.417-2 7-2l3-4c-4.213 0 4.024-13.548 5-15.5l4.5-3.5c1.827.914-3.5 9.279-3.5 11 3.293 0 4.708-7.208 6.5-9 2.079-2.079 18.5-29.952 18.5-32v-1c-5.74 0-11.217 2-16 2l-2 2-1 1c0 8.647-13.635 9.771-17 16.5-2.816 5.631-1.013 28.5-10 28.5 0 3.326 4 3.683 4 6Z"/><path fill="#FF9BCD" id="MY" d="m196 219-1 1v-1h1Z"/><path fill="#FCB3D9" id="PARN" d="M306 273c-1.238 0-3 .423-3 2-2.833 0-4.84-2-7-2-.966 0-3-2.886-3-4 1.9 0 .468-4.565 0-5.5l-7-12-2.5-1.5c-3.862 1.931 6.5 13.987 6.5 16l-3-3-1-1-5-7.5c-2.785-5.571-20-32.153-20-35.5 6.21 0 11.622 2 17 2l2 2c0 8.34 14.519 12.538 18 19.5 2.68 5.36-.244 26.5 9 26.5v3l-1 1Z"/><path fill="#FF9BCD" id="MY" d="m131 220-1 2 1-2ZM140 220l-1 1 1-1ZM278 221l2 2v-3l-2 1ZM316 220l3 3-3-3ZM179 221l-2 2v-2h2Z"/><path fill="#CBCBCC" id="mlf" d="M225 225c0 4.35-.829 9.842 1 13.5.052.103 1 7.863 1 4.5 0-5.74 2.845-15.811 0-21.5-1.028-2.057-2 2.766-2 3.5ZM231 225v17.5c-.834 1.669-2 3.493-2 .5v-21.5c1.504-3.008 2 2.788 2 3.5Z"/><path fill="#FF9BCD" id="MY" d="m130 222-1 1 1-1ZM177 223l-1 1 1-1ZM243 224l1 1v-2l-1 1ZM129 224l-1 1 1-1ZM137 224l-1 1 1-1Z"/><path fill="#FEB0D8" id="GRN" fill-rule="evenodd" d="M242 263c0 4.526 1.876 5.376 5 8.5.862.862 5.006 2.987 6 1 2.474-4.947-7.749-9.5-11-9.5m-32 0-7 7.5c-.997 1.994 3.193 3.153 4.5 2.5 4.956-2.478 12.069-10 2.5-10m29 8c4.598 0 9.67 7 15 7 1.357 0 6-.647 6-2 0-2.132-3.271-4.958-2-7.5l5-5.5-5-9.5c-2.003-4.007-14-25.852-14-28.5l-1-1c-2.097 0-5.293 1-8 1h-4v17.5c-.834 1.669-2 3.493-2 .5h-2c0 3.363-.948-4.397-1-4.5-1.829-3.658-1-9.15-1-13.5h-12c-1.936 0-4.217 6.935-5 8.5-1.843 3.687-14 27.505-14 29.5l4 4.5c1.619 3.237-2 6.105-2 8.5 3.588 0 6.132 3.184 10.5 1l10.5-6 4-4.5 3-11 3-.5c0-4.907 2-5.671 2 0 1.578 0 3.15-.2 4 1.5l2 9 4 5.5Z"/><path fill="#FF9BCD" id="MY" d="m136 225-1 1 1-1ZM128 226l-1 1 1-1ZM135 226l-1 1 1-1ZM321 226l2 2-2-2ZM333 252v2c1.643 0 1-3.765 1-5 0-1.468 2.859-16 0-16 0 2.612-4.509-6-5-6 0 4.769 4 8.687 4 14v11ZM127 228l-1 1 1-1ZM134 228l-1 1 1-1ZM126 229l-1 2 1-2ZM323 229l1 1-1-1ZM133 230l-1 1 1-1ZM132 231l-1 2 1-2ZM123 247v4c-1.368 0-1.129-12.759-2-14.5l1-3.5 3-1-1 7c-1.684 0-1 4.679-1 6v2ZM325 233l1 2-1-2ZM131 234c-1.473 0-1 1.952-1 3 1.473 0 1-1.952 1-3ZM326 236c1.473 0 1 1.952 1 3-1.473 0-1-1.952-1-3Z"/><path fill="#C9C9C8" id="icp" d="M124 239c-1.684 0-1 4.679-1 6 1.684 0 1-4.679 1-6Z"/><path fill="#FF9BCD" id="MY" d="m130 239-1 2 1-2ZM327 244c1.602 0 1.602 7 0 7v-7Z"/><path fill="#FFB1D8" id="LIN" d="m187 246-1 3.5c1.968 3.936 14 5.524 14-1 0-2.464-11.001-2.5-13-2.5ZM262 246c0 2.177-7.485-.47-5 4.5 4.241 8.482 21.014-4.5 9.5-4.5H262Z"/><path fill="#C9C9C8" id="icp" d="M123 253h1c0-1.321.684-6-1-6v6Z"/><path fill="#FFB1D8" id="LIN" d="m165 268-1 1c-4.213 0 4.024-13.548 5-15.5l4.5-3.5c1.827.914-3.5 9.279-3.5 11l-1 2-1 1-1 1v1l-1 1-1 1Z"/><path fill="#FEC6E2" id="RO" d="m230 267-1 2c-2.293 0-2-.997-2-3v-11c0-4.907 2-5.671 2 0l1 12Z"/><path fill="#FFB1D8" id="LIN" d="M292 269h1c1.9 0 .468-4.565 0-5.5l-7-12-2.5-1.5c-3.862 1.931 6.5 13.987 6.5 16l1 2 1 1Z"/><path fill="#FF9BCD" id="MY" d="m129 251 2 4-2-4ZM327 252l-1 2 1-2Z"/><path fill="#C9C9C8" id="icp" d="M332 256h1v-4c-1.579 0-1 2.855-1 4Z"/><path fill="#FF9BCD" id="MY" d="M125 258v2c-1.663 0-2-5.407-2-7h1v1c0 1.048-.473 3 1 3v1Z"/><path fill="#C9C9C8" id="icp" d="M124 254c1.473 0 1 1.952 1 3-1.473 0-1-1.952-1-3Z"/><path fill="#FF9BCD" id="MY" d="m326 254-1 2 1-2Z"/><path fill="#C8C8CC" id="tspc" d="m220 274-1 1c-2.109 0-2-2.535-2-4l4-4.5 3-11 3-.5v11l-2 3-5 5ZM235 273l4 2v-4l-4-5.5-2-9c-.85-1.7-2.422-1.5-4-1.5l1 12 1 2c1.366 0 4 2.366 4 4Z"/><path fill="#C9C9C8" id="icp" d="M331 259h1v-3c-1.473 0-1 1.952-1 3Z"/><path fill="#FF9BCD" id="MY" d="M333 256c0 1.048.473 3-1 3v-3h1ZM131 257l2 3c-1.577 0-2-1.762-2-3Z"/><path fill="#C9C9C8" id="icp" d="m125 261 2 1-2-4v3Z"/><path fill="#FF9BCD" id="MY" d="m325 258-1 1 1-1ZM331 260v1l1-2h-1v1ZM324 260l-1 1 1-1Z"/><path fill="#C9C9C8" id="icp" d="M330 261h1v-1l-1 1Z"/><path fill="#FF9BCD" id="MY" d="M127 262v1l-2-2 2 1ZM133 261l1 1-1-1Z"/><path fill="#FCB3D9" id="PARN" d="M169 263h1v-2l-1 2Z"/><path fill="#FF9BCD" id="MY" d="M330 262v1l1-2h-1v1ZM170 263h1l-1-1v1ZM287 263l-2 1v-1l1-1 1 1ZM323 262l-1 1 1-1Z"/><path fill="#C9C9C8" id="icp" d="M329 263h1v-1l-1 1ZM127 264h1l-1-1v1Z"/><path fill="#FCB3D9" id="PARN" d="m169 263-1 1 1-1Z"/><path fill="#FCB2D9" id="PGRNl" d="M190 280c0 3.542-1.954 3.408-3 5.5-4.469 8.938-10.806-.5-16-.5 0-3.01-2.749-4.998-4-7.5l-.5-3.5-3.5 3c-2.641 0-2-1.823-2-4l3-4 1-1 1-1 1-1v-1l1-1 1-1h2v6l1 1c1.145 0 4 .579 4-1l1-1v-1l2-2h4v7.5l7 7.5Z"/><path fill="#FEB3D6" id="AMBd" d="m172 263-1 1v-1h1Z"/><path fill="#FF9BCD" id="MY" d="m175 265-4 1v-2l1-1 3 2Z"/><path fill="#FCB3D7" id="LRNm" d="M196 276c-1.431 0-3.1 4-6 4l-7-7.5V265c3.186 0 6.865-2 11-2l4 4.5c1.619 3.237-2 6.105-2 8.5Z"/><path fill="#FDB2D9" id="MARN" d="m210 263-7 7.5c-.997 1.994 3.193 3.153 4.5 2.5 4.956-2.478 12.069-10 2.5-10ZM242 263c0 4.526 1.876 5.376 5 8.5.862.862 5.006 2.987 6 1 2.474-4.947-7.749-9.5-11-9.5Z"/><path fill="#FCB3D7" id="LRNm" d="M260 276c2.33 0 3.227 4 6 4 6.061 0 7-10.509 7-14v-1c-2.73 0-6.298-2-10-2l-5 5.5c-1.271 2.542 2 5.368 2 7.5Z"/><path fill="#FF9BCD" id="MY" d="M285 264v1l-2-1 1-1 1 1Z"/><path fill="#FEB3D6" id="AMBd" d="M285 263v1l-1-1h1Z"/><path fill="#FCB2D9" id="PGRNl" d="M266 280c0 2.678 1.911 3.323 3 5.5 3.868 7.736 10.723.5 16 .5 0-.972 4.926-12 5.5-12l2.5 3c2.715 0 3-1.657 3-4-.966 0-3-2.886-3-4h-1l-1-1-1-2-3-3-2 1v3c1.399 0 1.399 2 0 2l-1 1c-1.465 0-4 .109-4-2l-2-3h-4l-1 1c0 3.491-.939 14-7 14Z"/><path fill="#FF9BCD" id="MY" d="m322 263-1 1 1-1ZM330 263l-1 1v-1h1Z"/><path fill="#FF9BCD" id="MY" fill-rule="evenodd" d="M281 293c0 2.091 3.746 0 0 0m-40-3c0 2.101-7.311-.122-6 2.5 1.651 3.302 17.094 10.812 19 7 1.966-3.933-8.807-9.5-13-9.5m-33 1 6-1c19.898 0-11 17.328-11 7-1.67 0-11.131 2.763-8-3.5l2-2c0-.436-6.998 3.5-8.5 3.5l-3.5-.5c0-2.049 8.117-4.808 9.5-5.5l16-12c3.677-1.838 8.5-.579 8.5-2-2.109 0-2-2.535-2-4l-10.5 6c-4.368 2.184-6.912-1-10.5-1-1.431 0-3.1 4-6 4 0 3.542-1.954 3.408-3 5.5-4.469 8.938-10.806-.5-16-.5 0 6.404-1.845 1-7 1l-1 1 13 6.5c0 1.462-4.476-.5-5-.5-1.994 0-12-3.618-12-6h-1l-2-2h-1c0 2.104-4.586-.543-5.5-1-2.551-1.276-14.5-7.619-14.5-11l-2-4h-1l-1-1-1-1-1-1-1-2h-1c0 5.905 11.91 14.705 16.5 17 7.554 3.777 14.493 8.246 22 12 3.676 1.838 8.218 2.109 12 4 4.235 2.117 10.822-.089 15 2 3.545 1.772 15.524 4.238 20 2 4.563-2.281 9.466-3.733 14-6l2-3 2 3c4.102 2.051 10.254 6 15 6 12.528 0 26.55-.775 37-6 1.736-.868 10.5-1.601 10.5-4l-3.5 1c-.464.232-6.5 1.849-6.5.5l10-5.5v-1c-3.516 0-8 5.729-8 0-5.277 0-12.132 7.236-16-.5-1.089-2.177-3-2.822-3-5.5-2.773 0-3.67-4-6-4 0 1.353-4.643 2-6 2-5.33 0-10.402-7-15-7v4c8.392 0 12.529 8.515 19.5 12 1.448.724 13.142 7.429 12 8-5.231 2.616-7.547-5-11-5l1.5 2.5c.668 1.336 1.023 4.738-.5 5.5-6.802 3.401-7.987-5.994-12-8-2.885-1.442-7.213.393-10-1l-7.5-4c0 6.588-6 6.075-6 0l-6.5 4c-2.098 1.049-10.5-2.017-10.5 2Z"/><path fill="#FF9BCD" id="MY" d="m135 264 3 3-3-3Z"/><path fill="#FCB3D9" id="PARN" d="m168 264-1 1 1-1Z"/><path fill="#FF9BCD" id="MY" d="m282 264-1 1 1-1Z"/><path fill="#FEB3D8" id="AMBv" d="m285 269-1 1c-1.465 0-4 .109-4-2v-3h1l1-1h1l2 1v4Z"/><path fill="#C9C9C8" id="icp" d="M328 265h1v-1l-1 1Z"/><path fill="#FEB3D8" id="AMBv" d="M176 269c0 1.579-2.855 1-4 1l-1-1v-3l4-1h1l1 2v1l-1 1Z"/><path fill="#FF9BCD" id="MY" d="m179 265-2 2-1-2h3ZM274 265l-1 1v-1h1ZM280 265v3l-2-3h2ZM320 265l-1 1 1-1ZM329 265l-2 2 1-2h1Z"/><path fill="#C9C9C8" id="icp" d="m129 266 1 1-1-1Z"/><path fill="#FCB3D9" id="PARN" d="m167 266-1 1 1-1Z"/><path fill="#FF9BCD" id="MY" d="M227 278h2v-9c-2.293 0-2-.997-2-3l-2 3c3.84 0 2 7.04 2 9ZM319 266l-1 1 1-1ZM139 267l2 2-2-2Z"/><path fill="#FCB3D9" id="PARN" d="m166 267-1 1 1-1Z"/><path fill="#FF9BCD" id="MY" d="M229 269h2l-1-2-1 2ZM285 267c1.399 0 1.399 2 0 2v-2ZM318 267l-1 1 1-1Z"/><path fill="#C9C9C8" id="icp" d="m326 267-1 1 1-1Z"/><path fill="#FF9BCD" id="MY" d="M321 273v2c1.89 0 6-6.374 6-8h-1l-1 1-1 1-3 4Z"/><path fill="#C9C9C8" id="icp" d="m131 268 1 1-1-1Z"/><path fill="#FF9BCD" id="MY" d="m177 268-1 1 1-1Z"/><path fill="#FCB3D9" id="PARN" d="m291 268 1 1-1-1Z"/><path fill="#FF9BCD" id="MY" d="m316 268-1 1 1-1Z"/><path fill="#C9C9C8" id="icp" d="M135 273h4c0-.81-5.219-4-6-4l2 4Z"/><path fill="#FF9BCD" id="MY" d="M153 275c0 1.087-2 2.433-2 5-1.014 0-7-3.903-7-5l2.5 1c8.832-4.416-3.5-3.48-3.5-7h6c0 3.326 4 3.683 4 6ZM171 269l1 1-1-1Z"/><path fill="#FFB3D8" id="IO" fill-rule="evenodd" d="M203 291c0 .235-3.372 4-1.5 4 .941 0 4.131-4 1.5-4m1-1c0 1.93 1.93 0 0 0m1-1c0 1.93 1.93 0 0 0m1-1c0 1.93 1.93 0 0 0m1-1c0 1.93 1.93 0 0 0m1-1c0 1.93 1.93 0 0 0m1-1c0 1.93 1.93 0 0 0m1-1c0 1.93 1.93 0 0 0m1-1c0 2.091 3.746 0 0 0m2-1c0 1.93 1.93 0 0 0m1-1c0 1.93 1.93 0 0 0m1-1c0 1.93 1.93 0 0 0m1-1c0 1.93 1.93 0 0 0m1-2c0 1.93 1.93 0 0 0m-13 19-1 1c-1.67 0-11.131 2.763-8-3.5l2-2c0-.436-6.998 3.5-8.5 3.5l-3.5-.5c0-2.049 8.117-4.808 9.5-5.5l16-12c3.677-1.838 8.5-.579 8.5-2l1-1 5-5c3.84 0 2 7.04 2 9 0 2.124-1 4.436-1 6l-1 1-6.5 4c-2.098 1.049-10.5-2.017-10.5 2l-1 1-1 1-1 2-1 1ZM242 281l12.5 14c1.535 0-2.469-5.469-3-6l-9.5-8m-2-2c0 1.93 1.93 0 0 0m-9 5v1l7.5 4c2.787 1.393 7.115-.442 10 1 4.013 2.006 5.198 11.401 12 8 1.523-.762 1.168-4.164.5-5.5l-1.5-2.5c3.453 0 5.769 7.616 11 5 1.142-.571-10.552-7.276-12-8-6.971-3.485-11.108-12-19.5-12 0 5.588-4 .001-4-2 0-1.634-2.634-4-4-4h-2v9l1 5 1 1Z"/><path fill="#FF9BCD" id="MY" d="m285 269-1 1 1-1ZM313 269l-6 3v-3h6Z"/><path fill="#C9C9C8" id="icp" d="m319 272 2 1 3-4c-1.238 0-5 1.923-5 3Z"/><path fill="#FF9BCD" id="MY" d="m307 272-1 1 1-1Z"/><path fill="#C9C9C8" id="icp" d="m319 272-2 1 2-1Z"/><path fill="#C9CACA" id="sctd" d="M301 286h3l1-1h1c0-1.577 1.762-2 3-2l2-1 1-1h1l1-1 1-1 2-1 1-1c0-1.577 1.762-2 3-2v-2l-2-1-2 1-5 2-1 1c0 1.077-3.762 3-5 3l-1 1c0 1.562-2.189 5-4 5v1ZM151 280l4 5c0 2.104-4.586-.543-5.5-1-2.551-1.276-14.5-7.619-14.5-11h4l5 2c0 1.097 5.986 5 7 5Z"/><path fill="#FF9BCD" id="MY" d="m163 277-1 2-8-4c3.066 0 4.417-2 7-2 0 2.177-.641 4 2 4ZM235 273l4 2c0 5.588-4 .001-4-2ZM293 277l2 2 8-4c-2.833 0-4.84-2-7-2 0 2.343-.285 4-3 4ZM311 276c0 1.077-3.762 3-5 3 0-1.429-1.288-4-3-4 0-1.577 1.762-2 3-2 0 1.803 3.592 3 5 3Z"/><path fill="#C8C8CB" id="rust" d="M171 285c0 6.404-1.845 1-7 1 0-2.833-2-4.84-2-7l1-2 3.5-3 .5 3.5c1.251 2.502 4 4.49 4 7.5Z"/><path fill="#FF9BCD" id="MY" d="m220 274-1 1 1-1Z"/><path fill="#C8C8CB" id="rust" d="M285 286c0 5.729 4.484 0 8 0 0-3.338 2-5.106 2-7l-2-2-2.5-3c-.574 0-5.5 11.028-5.5 12Z"/><path fill="#FEB0D9" id="LRNp" d="M159 287h4l1-1c0-2.833-2-4.84-2-7l-8-4h-1c0 1.087-2 2.433-2 5l4 5h1l2 2h1ZM293 287h5l2-1 1-1c1.811 0 4-3.438 4-5l1-1c0-1.429-1.288-4-3-4l-8 4c0 1.894-2 3.662-2 7v1Z"/><path fill="#FF9BCD" id="MY" d="m312 275-1 1 1-1ZM321 275c-1.238 0-3 .423-3 2 1.238 0 3-.423 3-2ZM217 277c0 1.93 1.93 0 0 0ZM318 277l-1 1 1-1Z"/><path fill="#FFC6E2" id="RPA" d="M225 285c0 6.075 6 6.588 6 0v-1l-1-1-1-5h-2c0 2.124-1 4.436-1 6l-1 1Z"/><path fill="#FF9BCD" id="MY" d="m317 278-2 1 2-1ZM216 279c0 1.93 1.93 0 0 0ZM240 279c0 1.93 1.93 0 0 0ZM306 279l-1 1 1-1ZM315 279l-1 1 1-1ZM215 280c0 1.93 1.93 0 0 0ZM314 280l-1 1 1-1ZM214 281c0 1.93 1.93 0 0 0ZM242 281l12.5 14c1.535 0-2.469-5.469-3-6l-9.5-8ZM312 281l-1 1 1-1ZM213 282c0 1.93 1.93 0 0 0ZM311 282l-2 1 2-1ZM211 283c0 2.091 3.746 0 0 0ZM230 283l1 1-1-1ZM309 283c-1.238 0-3 .423-3 2 1.238 0 3-.423 3-2ZM210 284c0 1.93 1.93 0 0 0ZM226 284l-1 1 1-1Z"/><path fill="#CBC7CC" id="sctv" d="m156 285 2 2-2-2Z"/><path fill="#FF9BCD" id="MY" d="M209 285c0 1.93 1.93 0 0 0Z"/><path fill="#CBC7CC" id="sctv" d="M300 286h1v-1l-1 1Z"/><path fill="#FF9BCD" id="MY" d="m305 285-1 1 1-1ZM208 286c0 1.93 1.93 0 0 0Z"/><path fill="#CBC7CC" id="sctv" d="m300 286-2 1 2-1Z"/><path fill="#FF9BCD" id="MY" d="m298 287-5 4 11-5h-4l-2 1Z"/><path fill="#CBC7CC" id="sctv" d="M159 287h4l13 6.5c0 1.462-4.476-.5-5-.5-1.994 0-12-3.618-12-6Z"/><path fill="#FF9BCD" id="MY" d="M207 287c0 1.93 1.93 0 0 0Z"/><path fill="#CBC7CC" id="sctv" d="m298 287-5 4-3.5 1c-.464.232-6.5 1.849-6.5.5l10-5.5h5Z"/><path fill="#FF9BCD" id="MY" d="M206 288c0 1.93 1.93 0 0 0ZM205 289c0 1.93 1.93 0 0 0ZM204 290c0 1.93 1.93 0 0 0Z"/><path fill="#C7C9C9" id="py" d="m204 296-1 1c0 10.328 30.898-7 11-7l-6 1-1 1-1 1-1 2-1 1ZM241 290c0 2.101-7.311-.122-6 2.5 1.651 3.302 17.094 10.812 19 7 1.966-3.933-8.807-9.5-13-9.5Z"/><path fill="#FF9BCD" id="MY" d="M203 291c0 .235-3.372 4-1.5 4 .941 0 4.131-4 1.5-4ZM208 291l-1 1 1-1ZM207 292l-1 1 1-1ZM206 293l-1 2 1-2Z"/><path fill="#CBC7CC" id="sctv" d="M281 293c0 2.091 3.746 0 0 0Z"/><path fill="#FF9BCD" id="MY" d="m205 295-1 1 1-1ZM204 296l-1 1 1-1Z"/></svg>