<svg xmlns="http://www.w3.org/2000/svg" viewBox="0 0 456 320"><path fill="#1BA696" id="RSPagl1" d="M173 15h1c5.03 0 8.72-2 14-2V9c-2.075 0-15-.797-15 1v5Z"/><path fill="#1BA598" id="RSPd1" d="m219 21-2 2c0-8.505-22.678-10-29-10V9c10.852 0 23.648-1.204 29 9.5l2 2.5ZM239 23h1c0-8.742 21.158-10 28-10V9c-10.686 0-23.798-.904-29 9.5l-2 2.5 2 2Z"/><path fill="#1BA696" id="RSPagl1" d="M268 13c5.743 0 9.5 2 15 2l1-5c-4.594 0-10.741-1-16-1v4Z"/><path fill="#0A8589" id="VISpm1" d="M173 15c-6.031 0-13.867 4-20 4l-2-4c7.038 0 14.61-5 22-5v5ZM305 15l-1 4c-6.73 0-14.41-4-21-4l1-5c5.183 0 17.15 5 21 5Z"/><path fill="#1AA496" id="RSPagl2/3" d="M173 22v1l14-4h1v-6c-5.28 0-8.97 2-14 2l-1 7Z"/><path fill="#1BA697" id="RSPd2/3" d="m217 23-4 3c-.377 0-10.111-6.305-11.5-7-3.618-1.81-9.239 0-13.5 0v-6c6.322 0 29 1.495 29 10ZM240 23l3 3 7.5-5c5.307-2.653 12.095-2 18.5-2 0-2.486-1-3.725-1-6-6.842 0-28 1.258-28 10Z"/><path fill="#1AA496" id="RSPagl2/3" d="M283 21v2l-14-4c0-2.486-1-3.725-1-6 5.743 0 9.5 2 15 2v6Z"/><path fill="#098589" id="VISp1" d="M87 48h1l14.5-9c9.245-4.623 41.402-20 50.5-20l-2-4c-12.741 0-38.869 14.185-50.5 20C97.977 36.261 85 41.654 85 45c1.577 0 2 1.762 2 3Z"/><path fill="#08858B" id="VISpm2/3" d="M173 22c-6.481 0-11.555 6-18 6 0-3.489-2-5.32-2-9 6.133 0 13.969-4 20-4h1l-1 7ZM283 21l18 7 3-9c-6.73 0-14.41-4-21-4v6Z"/><path fill="#098589" id="VISp1" d="M368 48h1l2-3c0-1.963-12.279-8.89-14.5-10-11.314-5.657-39.254-20-51.5-20l-1 4c10.71 0 38.185 14.843 48.5 20 2.026 1.013 15.5 7.183 15.5 9Z"/><path fill="#1AA596" id="RSPd5" d="M185 29c3.753 0 15-4.224 15 4 5.027 0 8.16-6 13-6v-1c-.377 0-10.111-6.305-11.5-7-3.618-1.81-9.239 0-13.5 0h-1c0 3.721-2 6.881-2 10Z"/><path fill="#0A828C" id="VISp2/3" d="M92 55h1c0-1.892 13.472-6.986 15.5-8 9.746-4.873 36.27-18 46.5-18v-1c0-3.489-2-5.32-2-9-9.098 0-41.255 15.377-50.5 20L88 48l4 7Z"/><path fill="#1CA697" id="RSPagl5" d="M185 30c-4.391 0-8.074 5-12 5V23l14-4c0 3.721-2 6.881-2 10v1Z"/><path fill="#1AA596" id="RSPd5" d="M271 29c-4.714 0-14-4.147-14 5-4.959 0-8.601-7-14-7v-1l7.5-5c5.307-2.653 12.095-2 18.5-2l2 10Z"/><path fill="#1CA697" id="RSPagl5" d="m271 29 12 6V23l-14-4 2 10Z"/><path fill="#0A828C" id="VISp2/3" d="M364 55h1l3-7c0-1.817-13.474-7.987-15.5-9-10.315-5.157-37.79-20-48.5-20l-3 9c4.908 0 13.11 4.805 17.5 7 10.008 5.004 21.934 6.967 32 12l13.5 8Z"/><path fill="#1BA597" id="RSPv1" d="m175 71 2 2c4.31 0 19.878-12 28-12l12-6.5c1.874-3.748 8.296-22.408 7-25-.702-1.404-3.384-8.5-5-8.5l-2 2c0 2.764 3 6.529 3 9.5 0 18.562-17.605 23.053-30.5 29.5l-10 5-4.5 4ZM281 71l-2 2c-3.352 0-7.554-4.527-10.5-6-5.991-2.995-26.503-7.506-29.5-13.5l-7-21c-2.414-4.828 5-7.873 5-11.5l2 2-2 4.5c-4.374 8.748 5.446 23.973 12.5 27.5 7.117 3.558 19.307 5.307 25 11l6.5 5Z"/><path fill="#09828B" id="VISpm4" d="M299 32h1l1-4-18-7v3c4.265 0 8.833 4.167 12.5 6l3.5 2ZM155 29l2 2 16-7v-2c-6.481 0-11.555 6-18 6v1Z"/><path fill="#1AA597" id="RSPv2/3" d="m173 69 2 2 4.5-4 10-5c12.895-6.447 30.5-10.938 30.5-29.5 0-2.971-3-6.736-3-9.5l-4 3v1l2 5.5c3.226 6.453-9.801 18.15-14.5 20.5-5.158 2.58-27.5 8.408-27.5 16ZM284 69c0 1.577-1.762 2-3 2l-6.5-5c-5.693-5.693-17.883-7.442-25-11-7.054-3.527-16.874-18.752-12.5-27.5l2-4.5h1l3 3v1c0 2.618-2.514 7.472-1 10.5 5.485 10.97 13.004 14.252 23.5 19.5 3.445 1.722 18.5 6.063 18.5 12Z"/><path fill="#088489" id="VISpm5" d="M160 41h1l12-6V24l-16 7v1l3 9ZM283 35c4.76 0 8.659 6 13 6 0-2.86 3-5.58 3-9l-3.5-2c-3.667-1.833-8.235-6-12.5-6v11Z"/><path fill="#1AA697" id="RSPd6a" d="m179 40 1 1c7.147 0 12.976-7 20-7v-1c0-8.224-11.247-4-15-4v1l-6 10Z"/><path fill="#1BA498" id="RSPv5" d="M169 65c0 2.226 1.774 4 4 4 0-7.592 22.342-13.42 27.5-16 4.699-2.35 17.726-14.047 14.5-20.5l-2-5.5c-4.84 0-7.973 6-13 6v1c0 10.867-18.316 14.816-24.5 21-1.598 1.598-5.184 10-6.5 10ZM287 66l-3 3c0-5.937-15.055-10.278-18.5-12-10.496-5.248-18.015-8.53-23.5-19.5-1.514-3.028 1-7.882 1-10.5 5.399 0 9.041 7 14 7 0 16.305 30 14.432 30 32Z"/><path fill="#1AA697" id="RSPd6a" d="M276 41h1v-1c0-3.891-6-7.431-6-11-4.714 0-14-4.147-14 5 6.505 0 12.164 7 19 7Z"/><path fill="#0B848B" id="VISp4" d="M364 55c0 1.717-1.252 4-3 4l-12.5-6c-12.46-6.23-26.577-9.788-39-16l-9.5-5 1-4c4.908 0 13.11 4.805 17.5 7 10.008 5.004 21.934 6.967 32 12l13.5 8ZM93 55c0 2.25 2 3.376 2 5 3.337 0 9.391-5.445 12.5-7 11.102-5.551 23.915-8.457 35-14l14.5-7v-1l-2-2c-10.23 0-36.754 13.127-46.5 18-2.028 1.014-15.5 6.108-15.5 8Z"/><path fill="#1CA597" id="RSPagl6a" d="M278 40c0-2.36 3.959 0 5 0v-5l-12-6c0 3.569 6 7.109 6 11h1ZM178 40h1l6-10c-4.391 0-8.074 5-12 5 0 1.234-.643 5 1 5 1.137 0 4-2.091 4 0Z"/><path fill="#088389" id="VISp5" d="m95 61 5 7c3.983 0 8.978-5.239 12.5-7 10.85-5.425 23.167-8.583 34-14 3.729-1.865 9.214-6 13.5-6l-3-9-14.5 7c-11.085 5.543-23.898 8.449-35 14-3.109 1.555-9.163 7-12.5 7v1ZM361 60l-5 8-12.5-7c-8.468-4.234-17.45-7.725-26-12-2.294-1.147-5.671-.835-8-2-4.012-2.006-8.788-6-13.5-6 0-2.86 3-5.58 3-9h1l9.5 5c12.423 6.212 26.54 9.77 39 16l12.5 6v1Z"/><path fill="#1AA498" id="RSPv6a" d="m167 64 2 1c1.316 0 4.902-8.402 6.5-10 6.184-6.184 24.5-10.133 24.5-21-7.024 0-12.853 7-20 7v1l-1 2-1 1c0 4.34-7.103 8.706-9 12.5-.465.93-.817 4.5-2 4.5v2ZM289 65l-2 1c0-17.568-30-15.695-30-32 6.505 0 12.164 7 19 7l2 4 11 16v4Z"/><path fill="#09858B" id="VISpm6a" d="M162 47h1l4-2c0-2.767 4.975-4 7-4v-1c-1.643 0-1-3.766-1-5l-12 6 1 6ZM293 47h1l2-6c-4.341 0-8.24-6-13-6v6c1.965 0 10 4.061 10 6Z"/><path fill="#1AA598" id="RSPagl6b" d="M174 41h4v-1c0-2.091-2.863 0-4 0v1ZM282 41h1v-1c-1.041 0-5-2.36-5 0v1h4Z"/><path fill="#1BA698" id="RSPd6b" d="M179 42h1v-1l-1-1h-1v1l1 1ZM278 41l-1 1v-2h1v1Z"/><path fill="#08858C" id="VISp6a" d="M100 69c1.077 0 3 3.762 3 5 5.065 0 23.757-15 34-15 0-1.638 3.576-2 5-2l20-10-1-6h-1c-4.286 0-9.771 4.135-13.5 6-10.833 5.417-23.15 8.575-34 14-3.522 1.761-8.517 7-12.5 7v1Z"/><path fill="#088589" id="VISpm6b" d="M174 41c-2.025 0-7 1.233-7 4 1.301 0 7-2.496 7-4Z"/><path fill="#CACCC7" id="cing" d="M164 50c7.764 0 3 6.304 3 12 1.183 0 1.535-3.57 2-4.5 1.897-3.794 9-8.16 9-12.5l1-1v-2l-1-1h-4c0 1.504-5.699 4-7 4l-4 3v1l1 1Z"/><path fill="#1AA497" id="RSPv6b" d="m277 42 1 3-2-4h1v1Z"/><path fill="#CACCC7" id="cing" d="M292 50c-6.927 0-3.974 3.552-2 7.5.472.944.156 3.5-1 3.5l-11-16-1-3 1-1h4c0 .307 9.772 7 11 7v1l-1 1Z"/><path fill="#088589" id="VISpm6b" d="M293 47v1c-1.228 0-11-6.693-11-7h1c1.965 0 10 4.061 10 6Z"/><path fill="#08858C" id="VISp6a" d="m356 69-3 5-12.5-7c-11.226-5.613-23.849-8.424-35-14L294 47l2-6c4.712 0 9.488 3.994 13.5 6 2.329 1.165 5.706.853 8 2 8.55 4.275 17.532 7.766 26 12l12.5 7v1Z"/><path fill="#1AA497" id="RSPv6b" d="m180 42-1 2v-2h1ZM179 44l-1 1 1-1Z"/><path fill="#09848A" id="VISl1" d="M69 59c0 1.137-2.091 4 0 4 3.623 0 11.345-8.845 14-11.5l4-3.5c0-1.238-.423-3-2-3-1.915 0-16 12.593-16 14Z"/><path fill="#088589" id="VISpm6b" d="M163 47v1l4-3-4 2Z"/><path fill="#09848A" id="VISl1" d="M388 59c-2.226 0 3.205 4-1 4-2.571 0-10.672-8.172-13.5-11l-4.5-4 2-3c2.037 0 17 12.946 17 14Z"/><path fill="#08858A" id="VISp6b" d="m150 55-8 2 20-10h1v2c-1.921 0-13 4.492-13 6ZM353 74v1c-4.034 0-8.053-4.276-11.5-6-5.623-2.811-11.326-5.163-17-8l-9-2c-2.98-1.49-4.87-4-8.5-4 0-.962-11.764-6-14-6v-2h1l11.5 6c11.151 5.576 23.774 8.387 35 14l12.5 7Z"/><path fill="#0A8489" id="VISl2/3" d="m68 67 4 4 20-16-4-7h-1l-4 3.5C80.345 54.155 72.623 63 69 63v1l-2 1v1l1 1ZM388 67l-4 4-19-16 3-7h1l4.5 4c2.828 2.828 10.929 11 13.5 11l1 1 1 1v1l-1 1Z"/><path fill="#C9C9CA" id="scwm" d="m150 55 1 1c1.752 0 13-4.503 13-6l-1-1c-1.921 0-13 4.492-13 6ZM307 55l-2 1c-1.706 0-13-4.82-13-6l1-1c2.236 0 14 5.038 14 6Z"/><path fill="#C8C9CA" id="fp" d="M59 143h1l1-2v-2l1-2 1-2v-2l1-1v-1l1-1v-1l1-2 1-1v-1l1-1v-1l1-1v-1l1-1 1-1v-1l1-1 1-2c0-1.238.423-3 2-3l1-1 1-1v-1l1-1 1-1 1-2 1-1 1-1 1-1 1-1 1-1 1-1 1-1 1-1 1-1 1-1 1-1 1-1h1c0-1.747.253-2 2-2l1-1 1-1h1l1-1 1-1 1-1 2-1 1-1 1-1h1l1-1 2-1c0-1.577 1.762-2 3-2h1l2-1 1-1h1l1-1 2-1h1l2-1 2-1c0-1.995 4.377-2 6-2l2-1c0-4.088 7.365-3.932 9.5-5 8.789-4.395 22.5-11.297 22.5 5 2.698 0 2-4.255 2-6v-2c0-5.696 4.764-12-3-12 0 1.497-11.248 6-13 6 0 3.092-8.562 4.031-10.5 5l-31 14C99.06 80.22 89.794 89.706 81 98.5L73 109c0 5.017-5.815 11.131-8 15.5-.424.847-4 7.86-4 5.5l-1 1c1.687 0-1 9.725-1 12ZM397 143h1c0-9.642-6.962-17.423-11-25.5-9.863-19.727-24.372-34.436-44.5-44.5l-26-12c-2.131-1.066-11.5-1.418-11.5-5-1.706 0-13-4.82-13-6-6.927 0-3.974 3.552-2 7.5.472.944.156 3.5-1 3.5v4c0 1.643 1.338 6 3 6 0-17.882 10.224-11.638 21.5-6 2.296 1.148 10.5.569 10.5 5l1 1h1c1.424 0 5 .362 5 2h1c1.238 0 3 .423 3 2h1l4 2h1c1.178 0 6 2.572 6 4h1c1.247 0 5 2.467 5 4h1l2 2h1c1.634 0 4 2.635 4 4h1l5 4v1c1.668 0 6 3.099 6 5v1l1 1 1 1c2.425 0 5 5.116 5 7l1 1 2 2v1l2 2v1c1.428 0 4 4.822 4 6v1l1 1v1l1 1v1l1 1v1l1 1v2l1 1v1l1 2v1l2 4Z"/><path fill="#08828B" id="VISl4" d="M75 75h1c0-2.867 16.322-14 19-14v-1c0-1.624-2-2.75-2-5h-1L72 71v1c1.659 0 3 1.46 3 3Z"/><path fill="#CBC9C7" id="or" d="M73 105c2.091 0 0 2.863 0 4l8-10.5c8.794-8.794 18.06-18.28 28.5-23.5l31-14c1.938-.969 10.5-1.908 10.5-5l-1-1-8 2c0 2.46-3.378 2-5 2 0 2.672-7.792 3.146-9.5 4-5.087 2.543-19.623 12-24.5 12 0 2.24-10.811 9.656-13.5 11L87 88l-6 7-6 6-2 4ZM398 143c0 1.854 3 12.664 3 7 0-3.806-1-7.751-1-11v-1l-1-1-1-1v-1l-1-1-2-7-1-1-1-3-1-1-2-4-1-1v-1l-1-1c0-3.63-5-5.841-5-10 0-3.218-7-6.406-7-10l-7-7-16-13c-4.034 0-8.053-4.276-11.5-6-5.623-2.811-11.326-5.163-17-8l-9-2c-2.98-1.49-4.87-4-8.5-4l-2 1c0 3.582 9.369 3.934 11.5 5l26 12c20.128 10.064 34.637 24.773 44.5 44.5 4.038 8.077 11 15.858 11 25.5Z"/><path fill="#08828B" id="VISl4" d="M380 75h1l3-3v-1l-19-16h-1c0 1.717-1.252 4-3 4v1c2.408 0 19 12.653 19 15Z"/><path fill="#08858A" id="VISp6b" d="M142 57c-1.424 0-5 .362-5 2 1.622 0 5 .46 5-2Z"/><path fill="#0B838B" id="VISal1" d="M60 74h1l1-1c0-3.153 5-4.304 5-7v-1l2-1v-1c-2.091 0 0-2.863 0-4-2.089 0-12 10.776-12 12l3 3Z"/><path fill="#08858A" id="VISp6b" d="M103 74v1c4.877 0 19.413-9.457 24.5-12 1.708-.854 9.5-1.328 9.5-4-10.243 0-28.935 15-34 15Z"/><path fill="#C9CCC9" id="dhc" d="M159 73h3l1-1 1-1 1-1c0-16.297-13.711-9.395-22.5-5-2.135 1.068-9.5.912-9.5 5 1.97 0 12-1.495 12 1h2l4 2h8Z"/><path fill="#FF7AFD" id="SCzo" d="M169 84v1l11.5-10c13.527-6.763 46.5-27.941 46.5 3 0 2.373 2.284 0 3 0 0-30.782 32.317-10.092 46.5-3L288 86l-1-3-6-6-8.5-6c-9.093-4.546-18.937-7.469-28-12-5.716-2.858-12.34 2.18-14.5 6.5l-1.5 5.5-1.5-4.5-6.5-7.5c-4.64-2.32-11.096 2-15.5 2l-28 14-1 1-1 1-1 1-1 1-4 5Z"/><path fill="#C9CCC9" id="dhc" d="M299 73h6l2-1h1l2-1h2c0-2.202 9.826-1 12-1 0-4.431-8.204-3.852-10.5-5-11.276-5.638-21.5-11.882-21.5 6l2 1 1 1h4Z"/><path fill="#0B838B" id="VISal1" d="M395 74h1l3-3c0-2.19-8.591-12-11-12-2.226 0 3.205 4-1 4l1 1 1 1v1l6 7v1Z"/><path fill="#0B858B" id="VISl5" d="M380 75c0 1.17-3.976 7-6 7-3.504 0-12.145-13-18-13v-1l5-8c2.408 0 19 12.653 19 15ZM76 75l6 7c3.79 0 12.328-13 18-13v-1l-5-7c-2.678 0-19 11.133-19 14Z"/><path fill="#FF78FF" id="SCsg" d="M169 86v1l13.5-6 31-11c5.642-2.821 9.386 8 13.5 8 0-30.941-32.973-9.763-46.5-3L169 85v1ZM288 86v1c-4.578 0-10.522-4.011-14.5-6-9.715-4.857-21.308-6.154-31-11-5.973-2.986-8.491 8-12.5 8 0-30.782 32.317-10.092 46.5-3L288 86Z"/><path fill="#09848A" id="VISl1" d="m69 64-2 1 2-1Z"/><path fill="#47C83C" id="POST" d="m154 95-5 1 10-6.5c6.341-12.683 0-9.27 0-15.5v-1h3l1-1 1-1 1-1c2.698 0 2-4.255 2-6l2 1c0 2.226 1.774 4 4 4l2 2 2 2v2l-1 1-1 1-1 1-1 1-4 5c-3.538 0-8.689 11-15 11Z"/><path fill="#09848A" id="VISl1" d="m388 64 1 1-1-1Z"/><path fill="#47C83C" id="POST" d="m302 95 5 1-3.5-2-8.5-8.5c-2.569-5.138 2-7.277 2-11.5v-1h-2l-1-1-2-1c-1.662 0-3-4.357-3-6l-2 1-3 3c0 1.577-1.762 2-3 2l-2 2 2 4 6 6 4 4 2 2c0 1.645 7.118 6 9 6Z"/><path fill="#098389" id="VISal2/3" d="M68 67c0 .11-4.48 8-4.5 8L62 73c0-3.153 5-4.304 5-7l1 1ZM388 67c3.71 0 2.487 8 4.5 8l2.5-2-6-7-1 1Z"/><path fill="#0A858A" id="VISli2/3" d="m61 74 4 5c3.345 0 4.032-7 7-7v-1l-4-4c0 .11-4.48 8-4.5 8L62 73l-1 1ZM395 74l-4 5-7-7v-1l4-4c3.71 0 2.487 8 4.5 8l2.5-2v1Z"/><path fill="#08848C" id="VISl6a" d="M86 87h1c0-1.466 14.094-12 16-12v-1c0-1.238-1.923-5-3-5-5.672 0-14.21 13-18 13v1l4 4Z"/><path fill="#C7C8CC" id="alv" d="M134 71h11c0-2.495-10.03-1-12-1l-2 1h3ZM323 71h2l-1-1c-2.174 0-12-1.202-12 1h11Z"/><path fill="#08848C" id="VISl6a" d="M369 87h2c0-1.114 2.034-4 3-4v-1c-3.504 0-12.145-13-18-13l-3 5v1c2.039 0 16 9.883 16 12Z"/><path fill="#C8C9CA" id="fp" d="m165 70-1 1 1-1Z"/><path fill="#FD7AFF" id="SCop" d="m167 92 10.5-5c10.122-5.06 22.91-4.955 33-10 5.686-2.843 11.653 7 14 7l3-2 4 2 10-7c2.26-1.13 8.146 1.073 10 2 8.179 4.09 18.739 3.87 27 8l10.5 5v-5h-1c-4.578 0-10.522-4.011-14.5-6-9.715-4.857-21.308-6.154-31-11-5.973-2.986-8.491 8-12.5 8-.716 0-3 2.373-3 0-4.114 0-7.858-10.821-13.5-8l-31 11-13.5 6-1 1-1 4Z"/><path fill="#15B0B3" id="TEa1" d="m51 77 3 4c1.87 0 6-5.4 6-7l-3-3-6 6Z"/><path fill="#C7C8CC" id="alv" d="M131 71c-1.623 0-6 .005-6 2 1.357 0 6-.647 6-2Z"/><path fill="#57B947" id="ProS" d="m137 96-10 5c0-9.135-4-16.984-4-26v-1l2-1c1.357 0 6-.647 6-2h3c0 8.72 3 16.709 3 25Z"/><path fill="#4FC244" id="SUB" d="M137 96h12l10-6.5c6.341-12.683 0-9.27 0-15.5l-1-1h-7l-4-2h-13c0 8.72 3 16.709 3 25Z"/><path fill="#C7C8CC" id="alv" d="m147 71 4 2-4-2Z"/><path fill="#7DCD4B" id="HPF" d="m164 71-1 1 1-1Z"/><path fill="#C7C8CC" id="alv" d="m310 71-2 1 2-1Z"/><path fill="#4FC244" id="SUB" d="M308 96h11c0-7.912 4-16.754 4-25h-13l-2 1h-1l-2 1h-6l-2 1c0 4.223-4.569 6.362-2 11.5l8.5 8.5 3.5 2h1Z"/><path fill="#57B947" id="ProS" d="M319 96c0 .473 8.784 4 10 4l5-25-2-2h-1c-1.041 0-5-.986-5-2h-3c0 8.246-4 17.088-4 25Z"/><path fill="#C7C8CC" id="alv" d="M326 71c1.424 0 5 .362 5 2-1.041 0-5-.986-5-2Z"/><path fill="#15B0B3" id="TEa1" d="M405 77c-.927 0-.094 4-3 4l-6-7 3-3c1.532 0 6 3.897 6 6Z"/><path fill="#08828C" id="VISli4" d="M68 82h1c0-3.351 6-5.108 6-7 0-1.54-1.341-3-3-3-2.968 0-3.655 7-7 7v1l3 2Z"/><path fill="#7DCD4B" id="HPF" d="m163 72-1 1 1-1ZM294 72l1 1-1-1Z"/><path fill="#C7C8CC" id="alv" d="m307 72-2 1 2-1Z"/><path fill="#08828C" id="VISli4" d="M388 82h1l2-2v-1l-7-7-3 3c1.62 0 7 5.295 7 7Z"/><path fill="#098389" id="VISal2/3" d="m62 73-1 1 1-1Z"/><path fill="#C7C8CC" id="alv" d="m125 73-2 1 2-1Z"/><path fill="#7DCD4B" id="HPF" d="M159 73v1l-1-1h1ZM299 73l-2 1v-1h2Z"/><path fill="#C7C8CC" id="alv" d="M334 75h1c0-1.577-1.762-2-3-2l2 2Z"/><path fill="#16AFB3" id="TEa2/3" d="M54 82c0 2.463 3 4.65 3 7l8-9v-1l-4-5h-1c0 1.6-4.13 7-6 7v1Z"/><path fill="#C7C8CC" id="alv" d="M121 75h2v-1l-2 1Z"/><path fill="#16AFB3" id="TEa2/3" d="M402 82c0 2.773-3 4.54-3 7l-8-9v-1l4-5h1l6 7v1Z"/><path fill="#0A848A" id="VISli5" d="M75 90h1c0-1.6 4.13-7 6-7v-1l-6-7h-1c0 1.892-6 3.649-6 7l6 8Z"/><path fill="#09858C" id="VISl6b" d="M87 87v1l2.5-2c2.689-1.344 13.5-8.76 13.5-11-1.906 0-16 10.534-16 12Z"/><path fill="#C7C8CC" id="alv" d="m120 75-2 1 2-1Z"/><path fill="#7ECF4B" id="CA1" d="M115 241h2c5.546 0 13.664-11 16-11 0-4.989-23.872-23.244-27-29.5-3.648-7.296-11.045-14.091-15-22-10.876-21.751-.538-46.462 15.5-62.5 3.617-3.617 16.179-15 20.5-15 0-9.135-4-16.984-4-26h-3l-2 1-1 1h-1l-1 1-2 1h-1c0 1.577-1.762 2-3 2l-2 1-1 1h-1l-1 1-1 1-2 1-1 1-1 1-1 1h-1l-1 1-1 1-2 2h-1l-1 1-1 1-1 1-1 1-1 1-1 1-1 1-1 1-1 1-1 1-1 1-1 1-1 2-1 1-1 1v1l-1 1-1 1c0 1.238-.423 3-2 3l-1 2-1 1v1l-1 1-1 1v1l-1 1v1l-1 1v1l-1 1-1 2v1l-1 1v1l-1 1v2l-1 2-1 2v2l-1 2v1c0 1.048.473 3-1 3v3c0 10.176-2.579 22.342 2 31.5 1.695 3.39 10 19.889 10 22.5v1c.222 0 10.42 13.921 12.5 16 3.968 3.968 9.063 7.063 12.5 10.5l4 3.5h1l11 6h3ZM343 241h1l4-2h1c0-1.577 1.762-2 3-2h1c0-1.577 1.762-2 3-2 0-1.577 1.762-2 3-2l2-1 1-1c0-1.577 1.762-2 3-2l2-2c0-1.577 1.762-2 3-2l1-1 1-1 1-1 1-1c0-1.429 1.288-4 3-4l1-1 1-1 1-2 1-1c0-1.238.423-3 2-3l1-2 1-2 1-2 1-1v-1c0-1.238.423-3 2-3 0-1.465-.109-4 2-4v-1l2-4c0-2.009 2.384-12 4-12v-32c-1.353 0-2-4.643-2-6v-1l-1-2v-1l-1-1v-2l-1-1v-1l-1-1v-1l-1-1v-1l-1-1v-1c-1.428 0-4-4.822-4-6v-1l-2-2v-1l-2-2-1-1-5-7-1-1-1-1v-1c-1.252 0-6-3.892-6-5v-1c-1.562 0-5-2.189-5-4h-1c-1.634 0-4-2.635-4-4h-1l-2-2h-1l-5-4h-1c-1.178 0-6-2.572-6-4h-1l-4-2h-2l-5 25 18.5 13c11.215 5.607 27.846 41.809 21.5 54.5l-4 12-10 16-18 19-14 15.5c3.514 0 10.679 11 17 11h3Z"/><path fill="#C7C8CC" id="alv" d="m336 75 4 2-4-2Z"/><path fill="#09858C" id="VISl6b" d="M369 87v1l-16-13c2.039 0 16 9.883 16 12Z"/><path fill="#0A848A" id="VISli5" d="m374 83 7 6c1.436 0 7-4.812 7-7 0-1.705-5.38-7-7-7h-1c0 1.17-3.976 7-6 7v1Z"/><path fill="#C7C8CC" id="alv" d="m118 76-1 1 1-1Z"/><path fill="#039299" id="AUDpo1" d="m37 97 4 4 9.5-15 3.5-4v-1l-3-4-14 20Z"/><path fill="#C7C8CC" id="alv" d="m116 77-1 1 1-1Z"/><path fill="#FF90FF" id="SCig" d="M164 133c0-24.871 26.669-35.084 44.5-44 5.743-2.871 13.744 4 19.5 4 6.038 0 14.432-7.034 20.5-4 14.603 7.301 32.663 13.827 40.5 29.5l1 6 3 8.5c0 1.251 4.427 1.536 5.5 1 3.136-1.568 5.5-2.875 5.5-7v-4l-1-9v-2l-2-4v-1l-2-2v-2l-2-2v-1l-2-2-1-2-5-4-10.5-5c-8.261-4.13-18.821-3.91-27-8-1.854-.927-7.74-3.13-10-2l-10 7-4-2-3 2c-2.347 0-8.314-9.843-14-7-10.09 5.045-22.878 4.94-33 10L167 92c0 1.712-2.571 3-4 3v1l-1 1-1 1-1 1-1 1v2l-1 1-1 1v1l-1 2-1 1v1l-1 2c0 1.048.473 3-1 3v2c0 1.321.684 6-1 6l1 5c0 8.467 5.336 6 11 6Z"/><path fill="#C7C8CC" id="alv" d="M341 77c1.178 0 6 2.572 6 4-1.178 0-6-2.572-6-4Z"/><path fill="#039299" id="AUDpo1" d="M415 101h1c0-1.114 2.034-4 3-4 0-5.5-7.642-9.784-10-14.5-.606-1.212-2.24-5.5-4-5.5-.927 0-.094 4-3 4v1c1.218 0 13 17.177 13 19Z"/><path fill="#C7C8CC" id="alv" d="m115 78-2 1 2-1ZM112 79c-1.238 0-3 .423-3 2 1.238 0 3-.423 3-2Z"/><path fill="#15B0B2" id="TEa4" d="M60 93h1c0-4.227 7-6.912 7-11l-3-2-8 9v1c1.54 0 3 1.341 3 3ZM396 93h1c0-1.238.423-3 2-3v-1l-8-9-2 2c0 4.159 7 7.355 7 11Z"/><path fill="#C7C8CC" id="alv" d="m109 81-2 1 2-1ZM348 81c1.247 0 5 2.467 5 4l-5-4Z"/><path fill="#029199" id="AUDpo2/3" d="m41 102 5 3 11-15v-1c0-2.35-3-4.537-3-7l-3.5 4-9.5 15v1Z"/><path fill="#15AFB3" id="TEa5" d="m61 93 6 8 8-11-6-8h-1c0 4.088-7 6.773-7 11Z"/><path fill="#C7C8CC" id="alv" d="m107 82-1 1 1-1Z"/><path fill="#15AFB3" id="TEa5" d="m396 93-7 8-8-11v-1c1.436 0 7-4.812 7-7h1c0 4.159 7 7.355 7 11Z"/><path fill="#029199" id="AUDpo2/3" d="m415 101-4 4c-4.79 0-6.881-15-12-15v-1c0-2.46 3-4.227 3-7 1.218 0 13 17.177 13 19Z"/><path fill="#088488" id="VISli6a" d="M79 94h1l6-7-4-4c-1.87 0-6 5.4-6 7l3 4Z"/><path fill="#C7C8CC" id="alv" d="m105 83-1 1 1-1Z"/><path fill="#088488" id="VISli6a" d="M376 94h1l4-4v-1l-7-6c-.966 0-3 2.886-3 4 0 3.273 5 3.507 5 7Z"/><path fill="#C7C8CC" id="alv" d="m104 84-1 1 1-1ZM103 85l-2 1 2-1ZM354 85l2 2-2-2Z"/><path fill="#FF7AFD" id="SCzo" d="M168 87h1v-1l-1 1Z"/><path fill="#08818B" id="VISli6b" d="m80 94 1 1 6-7v-1h-1l-6 7Z"/><path fill="#C7C8CC" id="alv" d="m100 87-1 1 1-1Z"/><path fill="#FF64FF" id="MB" d="M163 94v1c1.429 0 4-1.288 4-3l1-4v-1c-1.097 0-5 5.986-5 7Z"/><path fill="#FF78FF" id="SCsg" d="m169 87-1 1v-1h1Z"/><path fill="#FF64FF" id="MB" d="m293 94 1 2-5-4v-5c.994 0 4 5.757 4 7Z"/><path fill="#7DCD4B" id="HPF" d="m291 87 2 2-2-2Z"/><path fill="#C7C8CC" id="alv" d="M357 87c1.634 0 4 2.635 4 4-1.634 0-4-2.635-4-4Z"/><path fill="#08818B" id="VISli6b" d="M376 94v1l-7-7v-1h2c0 3.273 5 3.507 5 7Z"/><path fill="#C7C8CC" id="alv" d="m99 88-1 1 1-1ZM97 89l-1 1 1-1Z"/><path fill="#FF90FE" id="SCiw" d="M164 133c0-24.871 26.669-35.084 44.5-44 5.743-2.871 13.744 4 19.5 4 6.038 0 14.432-7.034 20.5-4 14.603 7.301 32.663 13.827 40.5 29.5l1 6 3 8.5c-6.629 0-14.031 5.734-21.5 2-4.353-2.176-8.409-8.318-10.5-12.5-.559-1.119-.155-4.5-2-4.5 0-7.145-5.665-17.582-12.5-21-3.717-1.858-10.069-1-14.5-1-13.368 0-24.516-1.469-31 11.5-1.671 3.342-4 7.576-4 11.5-.524 0-7.049 13.274-10.5 15-4.367 2.184-14.208 3.396-19 1l-3.5-2Z"/><path fill="#039298" id="AUDpo4" d="M48 109h1l11-16c0-1.659-1.46-3-3-3l-11 15v1c1.577 0 2 1.762 2 3Z"/><path fill="#15AFB2" id="TEa6a" d="M67 102c2.35 0 1.382 3 4 3l4-4c0-3.145 4-3.855 4-7l-3-4h-1l-8 11v1Z"/><path fill="#C7C8CC" id="alv" d="m96 90-1 1 1-1Z"/><path fill="#15AFB2" id="TEa6a" d="M389 102c0 .966-2.886 3-4 3l-8-11 4-4 8 11v1Z"/><path fill="#039298" id="AUDpo4" d="M407 109h1c0-1.658 1.461-3 3-3v-1c-4.79 0-6.881-15-12-15-1.577 0-2 1.762-2 3 0 5.752 10 11.098 10 16Z"/><path fill="#C7C8CC" id="alv" d="M95 91c-1.747 0-2 .253-2 2l2-2ZM362 91l5 4c-1.562 0-5-2.189-5-4Z"/><path fill="#019197" id="AUDpo5" d="M57 117h1c0-2.101 7.068-15 9-15v-1l-6-8h-1l-11 16 8 8Z"/><path fill="#C7C8CC" id="alv" d="m92 93-1 1 1-1Z"/><path fill="#019197" id="AUDpo5" d="M407 109c0 1.342-6.662 7-8 7-3.781 0-5.599-14-10-14v-1l7-8h1c0 5.752 10 11.098 10 16Z"/><path fill="#16B0B2" id="TEa6b" d="m81 95-6 6c0-3.145 4-3.855 4-7h1l1 1Z"/><path fill="#C7C8CC" id="alv" d="m91 94-1 1 1-1Z"/><path fill="#C7CBCB" id="bsc" d="M159 99h1l1-1 1-1 1-1v-2l-4 4v1ZM313 124h1l-4-3-3-3v-1l-2-4v-2l-1-1v-1l-1-1v-1l-2-3v-1l-1-1-2-4-3-3-2-1 1 2 1 2 2 2v1l2 2v2l2 2v1l2 4v2c1.931 0 2 6.225 2 8 2.25 0 3.376 2 5 2h3Z"/><path fill="#16B0B2" id="TEa6b" d="M384 106h1v-1l-8-11h-1v1c0 3.594 7 6.782 7 10l1 1Z"/><path fill="#C7C8CC" id="alv" d="m90 95-1 1 1-1Z"/><path fill="#7DCD4B" id="HPF" d="m149 96 4 2 1-3-5 1Z"/><path fill="#CAC7CB" id="fiber tracts" d="m295 95 3 3-3-3Z"/><path fill="#7DCD4B" id="HPF" d="M308 96c0 .672-4.329 2-5 2l-1-3 5 1h1Z"/><path fill="#C7C8CC" id="alv" d="m89 96-1 1 1-1Z"/><path fill="#7BD04A" id="DG-mo" d="M139 235h1c4.409 0 12.927-4.645 10-10.5l-2-2.5h-1c0 12.391-11.56 5.381-15-1.5-5.671-11.341-17.503-19.006-23-30l-6-6-8-16c-1.55-3.101-1.383-12.234 0-15 1.27-2.539 1.729-11.457 4-16 8.123-16.247 27.576-28.038 42.5-35.5 4.836-2.418 4.628 4.244 3.5 6.5l-22 22c-4.529 9.058-9.224 22.552-4 33 2.299 4.597 8 10.129 8 15.5l1 1 3 2v-7c-1.242 0-4-9.326-4-11v-1l-1-1v-1l-1-1-1-8 1-10 1-1v-1l1-1v-1l1-1 1-2 1-1 1-1c0-1.668 3.099-6 5-6l1-1c0-2.617 6.379-4.879 8-6.5l6-7.5v-1l1-2 1-2v-9l-4-2h-12l-10 5c-4.321 0-16.883 11.383-20.5 15-16.038 16.038-26.376 40.749-15.5 62.5 3.955 7.909 11.352 14.704 15 22 3.128 6.256 27 24.511 27 29.5l3 3 2 2h1Z"/><path fill="#FF64FF" id="MB" d="m163 96-1 1 1-1Z"/><path fill="#FF8FFF" id="SCdg" d="M201 122c0-25.5 54-27.047 54 1 1.009 0 4-3.52 4-5 0-7.145-5.665-17.582-12.5-21-3.717-1.858-10.069-1-14.5-1-13.368 0-24.516-1.469-31 11.5-1.671 3.342-4 7.576-4 11.5l4 3Z"/><path fill="#7BD04A" id="DG-mo" d="m320 234-1 1c-4.312 0-9.779-.058-12-4.5-.73-1.461-.826-7.5 1-7.5h1c0 4 3.956 8.272 8.5 6 1.664-.832 15.5-20.89 15.5-22 .776 0 15.189-16.878 16-18.5 2.777-5.555 8.708-12.415 12-19 6.129-12.258-3.227-29.454-8-39l-8-9c-1.926-3.853-22.969-16.234-27.5-18.5-1.899-.95-7.5-2.138-7.5 1.5 0 3.843 23.216 25.433 27 33 4.453 8.907 2.049 22.903-2 31-1.962 3.925-5 5.688-5 10.5l-3 3h-2v-6l1-2v-1c1.473 0 1-1.952 1-3 1.638 0 2-3.576 2-5 1.473 0 1-1.952 1-3l1-1 2-9-1-8-1-1v-2l-1-1v-1l-1-1v-1c0-3.955-15.622-16.122-19-19.5l-5-6.5v-1c0-4.005-2-5.842-2-12 .671 0 5-1.328 5-2h11c0 .473 8.784 4 10 4l18.5 13c11.215 5.607 27.846 41.809 21.5 54.5l-4 12-10 16-18 19-14 15.5-3 4Z"/><path fill="#C7C8CC" id="alv" d="M367 96c1.668 0 6 3.099 6 5-1.252 0-6-3.892-6-5Z"/><path fill="#029297" id="AUDp1" d="M34 113h1c0-1.902 3.832-11 6-11v-1l-4-4-7 14 4 2Z"/><path fill="#C7C8CC" id="alv" d="m88 97-1 1 1-1Z"/><path fill="#FF64FF" id="MB" d="m162 97-1 1 1-1Z"/><path fill="#029297" id="AUDp1" d="m426 111-4 2-6-12c0-1.114 2.034-4 3-4 1.987 0 7 11.798 7 14Z"/><path fill="#C7C8CC" id="alv" d="m87 98-1 1 1-1Z"/><path fill="#CAC7CB" id="fiber tracts" d="M158 99h1v-1l-1 1Z"/><path fill="#FF64FF" id="MB" d="m295 98 2 2-2-2Z"/><path fill="#C7C8CC" id="alv" d="m86 99-1 1 1-1Z"/><path fill="#CAC7CB" id="fiber tracts" d="m158 99-1 1 1-1Z"/><path fill="#C7CBCB" id="bsc" d="M146 125h1c0-2.098 1.939-3 4-3 0-1.357.647-6 2-6v-2c0-1.048-.473-3 1-3l1-2v-1l1-1 1-2v-1l1-1 1-1v-3h-1l-1 1v1l-1 1v1l-1 1v1l-1 1-1 1v2l-1 1v1l-1 2v2l-1 1-1 1v1l-1 1-1 1-1 1-1 1-3 2h2l2 1Z"/><path fill="#FF64FF" id="MB" d="m160 99-1 1v-1h1Z"/><path fill="#C7C8CC" id="alv" d="m85 100-1 1 1-1Z"/><path fill="#16B0B2" id="TEa6b" d="M71 106h1l1-1 2-4-4 4v1Z"/><path fill="#C7C8CC" id="alv" d="m84 101-1 1 1-1Z"/><path fill="#CAC7CB" id="fiber tracts" d="m157 101-1 1 1-1Z"/><path fill="#FF64FF" id="MB" d="m297 101 2 2-2-2Z"/><path fill="#019298" id="AUDp2/3" d="M415 114h1l6-1-6-12h-1l-4 4v1l4 8ZM35 113l6 1 5-8v-1l-5-3c-2.168 0-6 9.098-6 11Z"/><path fill="#029399" id="AUDpo6a" d="m59 119 3 1c0-1.294 3.609-7 5-7 0-1.572 2.052-7 4-7v-1c-2.618 0-1.65-3-4-3-1.932 0-9 12.899-9 15l1 2Z"/><path fill="#C7C8CC" id="alv" d="m83 102-1 1 1-1Z"/><path fill="#65A83D" id="DG-sg" d="m145 221 2 1c0 12.391-11.56 5.381-15-1.5-5.671-11.341-17.503-19.006-23-30l-6-6-8-16c-1.55-3.101-1.383-12.234 0-15 1.27-2.539 1.729-11.457 4-16 8.123-16.247 27.576-28.038 42.5-35.5 4.836-2.418 4.628 4.244 3.5 6.5l-22 22c-4.529 9.058-9.224 22.552-4 33 2.299 4.597 8 10.129 8 15.5-3.244 0-6.971-8.441-8-10.5-2.611-5.222-8.542-16.917-5-24l2-6.5c0-6.802 9.114-15.614 14-20.5l6-7c-.887-1.774-10.042 5.771-11.5 6.5-10.769 5.384-25.5 19.347-25.5 32-1.58 0-1 2.855-1 4-1.473 0-1 1.952-1 3 0 21.574 13.646 27.793 22 44.5l14 17.5c0 5.535 12 12.316 12 3Z"/><path fill="#FF64FF" id="MB" d="m159 102-1 1 1-1Z"/><path fill="#CAC7CB" id="fiber tracts" d="m300 102 1 1-1-1Z"/><path fill="#65A83D" id="DG-sg" d="M330 179c0-4.812 3.038-6.575 5-10.5 4.049-8.097 6.453-22.093 2-31-3.784-7.567-27-29.157-27-33 0-3.638 5.601-2.45 7.5-1.5 4.531 2.266 25.574 14.647 27.5 18.5l8 9c4.773 9.546 14.129 26.742 8 39-3.292 6.585-9.223 13.445-12 19-.811 1.622-15.224 18.5-16 18.5 0-7.197 10.793-12.087 14-18.5 6.065-12.13 12-19.582 12-34.5 0-13.927-13.236-29.868-25.5-36-3.905-1.952-8.532-8-13-8l1 3 7.5 6.5 10 14c.559 1.119.155 4.5 2 4.5 0 3.331.582 7.663 2 10.5 2.895 5.79-5.735 19.471-8 24-.804 1.608-3.393 6.5-5 6.5Z"/><path fill="#C7C8CC" id="alv" d="m373 102 1 1-1-1Z"/><path fill="#029399" id="AUDpo6a" d="M394 120h1l2-1 1-1 1-1v-1c-3.781 0-5.599-14-10-14 0 .966-2.886 3-4 3v1c2.202 0 9 11.883 9 14Z"/><path fill="#C7C8CC" id="alv" d="m82 103-1 1 1-1Z"/><path fill="#CAC7CB" id="fiber tracts" d="m156 103-1 1 1-1Z"/><path fill="#FF64FF" id="MB" d="m158 103-1 1 1-1Z"/><path fill="#FF8FFE" id="SCdw" d="m202 125 7.5-12c6.798-6.798 10.602-4.301 18-8l2.5 1c8.816 0 16.812 4.124 21 12.5.663 1.326 1.002 6.5 3 6.5l1-2c0-28.047-54-26.5-54-1l1 3Z"/><path fill="#C7C8CC" id="alv" d="m81 104-1 1 1-1Z"/><path fill="#CAC7CB" id="fiber tracts" d="M301 104c1.577 0 2 1.762 2 3l-2-3Z"/><path fill="#C7C8CC" id="alv" d="M375 104c2.425 0 5 5.116 5 7l-5-7Z"/><path fill="#CCC8CA" id="ar" d="M65 119h1c0-1.59 5.099-10 7-10 0-1.137 2.091-4 0-4l-1 1c0 1.294-3.609 7-5 7l-2 6Z"/><path fill="#C7C8CC" id="alv" d="m80 105-1 2 1-2Z"/><path fill="#CAC7CB" id="fiber tracts" d="m155 105-1 1 1-1Z"/><path fill="#FF64FF" id="MB" d="m157 105-1 2 1-2Z"/><path fill="#FC8FFF" id="PAG" d="m242 144-6.5-1-4.5 3-2-16c0-3.454-2-7.498-2-2l-1 20c-.06 0-4.088-4.294-5.5-5l-6.5 1c0-3.987-5.631-12-10-12l-1-1h-1v-6l7.5-12c6.798-6.798 10.602-4.301 18-8l2.5 1c8.816 0 16.812 4.124 21 12.5.663 1.326 1.002 6.5 3 6.5v6c-3.585 0-8.492 5.483-10 8.5-.465.93-.817 4.5-2 4.5Z"/><path fill="#FF64FF" id="MB" d="m299 105 2 2-2-2Z"/><path fill="#CCC8CA" id="ar" d="M398 136h1c0-5.664-6-10.723-6-16l-8-13-1-1-1-1c0 4.159 5 6.37 5 10l1 1v1l1 1 2 4 1 1 1 3 1 1 2 7 1 1v1Z"/><path fill="#039397" id="AUDp4" d="M41 115h4l3-6c0-1.238-.423-3-2-3l-5 8v1Z"/><path fill="#029298" id="AUDpo6b" d="M72 106c0 1.294-3.609 7-5 7 0-1.572 2.052-7 4-7h1Z"/><path fill="#CAC7CB" id="fiber tracts" d="m154 106-1 1v-1h1Z"/><path fill="#CBC9C7" id="or" d="M385 106v1l-1-1h1Z"/><path fill="#029298" id="AUDpo6b" d="M393 120h1c0-2.117-6.798-14-9-14v1l8 13Z"/><path fill="#039397" id="AUDp4" d="M411 115h1c1.048 0 3 .473 3-1l-4-8c-1.539 0-3 1.342-3 3l3 6Z"/><path fill="#C7C8CC" id="alv" d="m79 107-1 1 1-1Z"/><path fill="#FF64FF" id="MB" d="m156 107-1 1 1-1Z"/><path fill="#C7C8CC" id="alv" d="m78 108-1 1 1-1Z"/><path fill="#FF64FF" id="MB" d="m301 108 2 4-2-4Z"/><path fill="#CAC7CB" id="fiber tracts" d="m303 108 1 1-1-1Z"/><path fill="#039199" id="AUDp5" d="M57 117v1l-12-3 3-6h1l8 8Z"/><path fill="#CBC9C7" id="or" d="M61 128v2c0 2.36 3.576-4.653 4-5.5 2.185-4.369 8-10.483 8-15.5-1.901 0-7 8.41-7 10l-1 1v1l-1 1-2 5-1 1Z"/><path fill="#CAC7CB" id="fiber tracts" d="m153 109-1 1v-1h1Z"/><path fill="#FF64FF" id="MB" d="m155 109-1 2 1-2Z"/><path fill="#039199" id="AUDp5" d="m399 117 1 1c4.06 0 7.303-3 11-3l-3-6h-1c0 1.342-6.662 7-8 7v1Z"/><path fill="#C7C8CC" id="alv" d="m77 110-1 1 1-1Z"/><path fill="#7ECE4A" id="DG-po" d="M116 138c-2.274 0-2.431-6.534-7.5-4-3.874 1.937-8.838 15-9.5 15 0-12.653 14.731-26.616 25.5-32 1.458-.729 10.613-8.274 11.5-6.5l-6 7c-4.886 4.886-14 13.698-14 20.5Z"/><path fill="#CAC7CB" id="fiber tracts" d="M305 110v1l-1-1h1Z"/><path fill="#7ECE4A" id="DG-po" d="M341 138c-1.845 0-1.441-3.381-2-4.5l-10-14-7.5-6.5-1-3c4.468 0 9.095 6.048 13 8 12.264 6.132 25.5 22.073 25.5 36-1.428 0-5.076-12.651-6-14.5-2.22-4.44-12-9.588-12-1.5Z"/><path fill="#019099" id="AUDv1" d="M24 136h4c0-7.93 6-15.37 6-23l-4-2c0 4.899-6 15.426-6 25Z"/><path fill="#C7C8CC" id="alv" d="m76 111-1 1 1-1Z"/><path fill="#CAC7CB" id="fiber tracts" d="M151 112v1l1-2h-1v1Z"/><path fill="#FF64FF" id="MB" d="M154 111c-1.473 0-1 1.952-1 3 1.473 0 1-1.952 1-3Z"/><path fill="#019099" id="AUDv1" d="M428 136h5c0-6.176-2.33-15.16-5-20.5-.559-1.119-.155-4.5-2-4.5l-4 2c0 7.376 6 14.823 6 23Z"/><path fill="#C7C8CC" id="alv" d="M75 112c-1.577 0-2 1.762-2 3 1.577 0 2-1.762 2-3ZM381 112l2 2-2-2Z"/><path fill="#029198" id="AUDv2/3" d="M28 136h6c0-3.309 4.567-21 7-21v-1l-6-1h-1c0 7.63-6 15.07-6 23Z"/><path fill="#029298" id="AUDpo6b" d="M62 120h1l2-1 2-6c-1.391 0-5 5.706-5 7Z"/><path fill="#CAC7CB" id="fiber tracts" d="m305 113 2 4-2-4Z"/><path fill="#029198" id="AUDv2/3" d="M423 136h5c0-8.177-6-15.624-6-23l-6 1c0 6.909 7 14.505 7 22Z"/><path fill="#FF64FF" id="MB" d="m305 122-1 1-1-9c1.931 0 2 6.225 2 8Z"/><path fill="#029197" id="AUDv4" d="M419 137h4v-1c0-7.495-7-15.091-7-22h-1c0 1.473-1.952 1-3 1 0 7.273 7 13.918 7 22ZM37 136l-3 1v-1c0-3.309 4.567-21 7-21h4c0 3.734-8 15.062-8 21Z"/><path fill="#019098" id="AUDv5" d="M37 137h12c1.126 0 4.9-18 8-18v-1l-12-3c0 3.734-8 15.062-8 21v1Z"/><path fill="#C7C8CC" id="alv" d="m73 115-1 2 1-2Z"/><path fill="#CAC7CB" id="fiber tracts" d="m151 115-1 1 1-1Z"/><path fill="#C7C8CC" id="alv" d="m383 115 2 2-2-2Z"/><path fill="#C8C9CA" id="fp" d="m388 115 1 1-1-1Z"/><path fill="#019098" id="AUDv5" d="M407 137h12c0-8.082-7-14.727-7-22h-1c-3.697 0-6.94 3-11 3v1l2 3.5 5 14.5Z"/><path fill="#CAC7CB" id="fiber tracts" d="m150 116-1 1 1-1Z"/><path fill="#FF64FF" id="MB" d="M151 122h1c1.684 0 1-4.679 1-6-1.353 0-2 4.643-2 6Z"/><path fill="#019396" id="AUDp6a" d="M57 119h2l-1-2h-1v2Z"/><path fill="#C7C8CC" id="alv" d="m72 117-1 1 1-1Z"/><path fill="#C8C9CA" id="fp" d="m389 117 1 1-1-1Z"/><path fill="#019396" id="AUDp6a" d="M400 118v1l-2-1 1-1 1 1Z"/><path fill="#CAC7CB" id="fiber tracts" d="m149 118-1 1 1-1Z"/><path fill="#FF64FF" id="MB" d="M305 134c0 1.057-2.628 11-3 11 0-6.968-12.929 4.285-17.5 2-8.999-4.5-19.989-16-30.5-16v-6l1-2c1.009 0 4-3.52 4-5 1.845 0 1.441 3.381 2 4.5 2.091 4.182 6.147 10.324 10.5 12.5 7.469 3.734 14.871-2 21.5-2 0 1.251 4.427 1.536 5.5 1 3.136-1.568 5.5-2.875 5.5-7l2 1-1 6Z"/><path fill="#CAC7CB" id="fiber tracts" d="m307 118 3 3-3-3Z"/><path fill="#C7C8CC" id="alv" d="M385 118c1.428 0 4 4.822 4 6-1.428 0-4-4.822-4-6Z"/><path fill="#019396" id="AUDp6a" d="m398 118-1 1 1-1Z"/><path fill="#019397" id="AUDv6a" d="m407 138-6 1c0-7.14-6-12.274-6-19l2-1 1-1 2 1 2 3.5 5 14.5v1ZM49 138l6 1 2-4c0-1.623.005-6 2-6 0-3.42 3-6.14 3-9l-3-1h-2c-3.1 0-6.874 18-8 18v1Z"/><path fill="#CCC8CA" id="ar" d="M61 127h1l2-5 1-1v-2l-2 1-2 7Z"/><path fill="#C8C9CA" id="fp" d="m66 119-1 1v-1h1Z"/><path fill="#C7C8CC" id="alv" d="m71 119-1 1 1-1Z"/><path fill="#CAC7CB" id="fiber tracts" d="m148 119-1 1 1-1Z"/><path fill="#FF64FF" id="MB" d="m152 135 2 9 2.5-2c4.796 0 10.125 7.937 16 5 8.855-4.428 19.15-16 29.5-16v-6l-1-3-4-3c-.524 0-7.049 13.274-10.5 15-4.367 2.184-14.208 3.396-19 1l-3.5-2c-5.664 0-11 2.467-11-6l-3 1 2 7Z"/><path fill="#019198" id="AUDv6b" d="m61 127-2 2c0-3.42 3-6.14 3-9h1l-2 7Z"/><path fill="#C7C8CC" id="alv" d="m70 120-1 1 1-1Z"/><path fill="#019198" id="AUDv6b" d="M400 139h1c0-7.14-6-12.274-6-19h-2c0 5.277 6 10.336 6 16v1l1 1v1Z"/><path fill="#C8C9CA" id="fp" d="m65 121-1 1 1-1Z"/><path fill="#CAC7CB" id="fiber tracts" d="m146 121-1 1 1-1Z"/><path fill="#C7C8CC" id="alv" d="m69 122-1 1 1-1Z"/><path fill="#FF8EFF" id="DT" d="m153 127-3 1c-1.658 0-3-1.461-3-3 0-2.098 1.939-3 4-3h1l1 5ZM304 127l2 1c1.429 0 4-1.288 4-3v-1c-1.624 0-2.75-2-5-2l-1 1v4Z"/><path fill="#C8C9CA" id="fp" d="m392 122 1 1-1-1Z"/><path fill="#C7C8CC" id="alv" d="m68 124-1 1 1-1Z"/><path fill="#FF6F80" id="TH" d="m150 134 2 1-2-7c-1.658 0-3-1.461-3-3h-1l-2-1h-2c0 1.014-3.959 2-5 2v1h4c2.869 0 9 4.144 9 7Z"/><path fill="#FF64FF" id="MB" d="m144 124 2 1-2-1ZM313 124c0 1.473-1.952 1-3 1v-1h3Z"/><path fill="#FF6F80" id="TH" d="m305 134 2 1c0-3.286 4.622-8 8-8h4c0-3.232-5-.827-5-3h-1c0 1.473-1.952 1-3 1 0 1.712-2.571 3-4 3l-1 6Z"/><path fill="#A9A9A8" id="AQ" d="m227 128 2 2c0-3.454-2-7.498-2-2Z"/><path fill="#C7C8CC" id="alv" d="m389 125 1 1-1-1ZM67 126l-1 1 1-1Z"/><path fill="#C8C9CA" id="fp" d="m394 126 1 1-1-1Z"/><path fill="#CCC8CA" id="ar" d="m60 131-1 1v-3l2-2v3l-1 1Z"/><path fill="#C8C9CA" id="fp" d="m62 127-1 1v-1h1Z"/><path fill="#C7C8CC" id="alv" d="m66 127-1 2 1-2Z"/><path fill="#FF6F80" id="TH" d="m137 127-1 1v-1h1Z"/><path fill="#FF8E9D" id="SGN" d="M138 145h3l7-5 1-5 1-1c0-2.856-6.131-7-9-7 0 2.197-3 2.868-3 0h-1l-1 1-2 3c0 4.691 4 9.967 4 14Z"/><path fill="#FE909D" id="LP" d="M138 127h3c0 2.197-3 2.868-3 0Z"/><path fill="#FF8E9D" id="SGN" d="M316 145h3c0-4.377 4-9.887 4-14l-4-4h-1c0 4.239-3 1.441-3 0-3.378 0-8 4.714-8 8l2 6 7 4Z"/><path fill="#FE909D" id="LP" d="M315 127h3c0 4.239-3 1.441-3 0Z"/><path fill="#C7C8CC" id="alv" d="m390 127 1 1-1-1Z"/><path fill="#FF64FF" id="MB" d="M226 157h5v-11l-2-16-2-2-1 20v9Z"/><path fill="#019198" id="AUDv6b" d="M57 135h1c0-1.048-.473-3 1-3v-3c-1.995 0-2 4.377-2 6Z"/><path fill="#C7C8CC" id="alv" d="m391 129 1 1-1-1ZM65 130l-1 1 1-1Z"/><path fill="#CBC9C7" id="or" d="M59 143c-2.749 0-.17 9-4 9 0-4.569 1-8.923 1-13l1-1 1-1v-1l1-1v-3l1-1c1.687 0-1 9.725-1 12Z"/><path fill="#FE7F82" id="MGd" d="m136 148-5.5-1c-1.412.706-5.954 5-6.5 5l1-10 1-1v-1l1-1v-1l1-1 1-2 1-1 1-1 3-2c0 4.691 4 9.967 4 14l-2 3Z"/><path fill="#FF8FFD" id="MRN" d="M187 193h4l4-2c-31.174 0-10.497-49.997 12-27.5l6 7c2.041 4.081 3 6.473 3 11.5l6-11.5c1.081-2.161-1-4.894-1-6.5l-1-3v-2h-1c-4.657 0-7.213 1.073-10-4.5-.899-1.797-.367-10.5 2.5-10.5l3.5 3-1-3c0-3.987-5.631-12-10-12l-1-1h-1c-10.35 0-20.645 11.572-29.5 16-5.875 2.937-11.204-5-16-5l-2.5 2 2 15c0 3.496-3 5.441-3 9 0 13.8 15.375 23 28 23 2.518 0 4.286 2 6 2Z"/><path fill="#FF64FF" id="MB" d="m203 131 1 1-1-1Z"/><path fill="#FF8FFD" id="MRN" d="M265 193h4c1.974 0 3.517-2 6-2 7.292 0 13.284-6 20-6l6-6.5c1.643-3.287 2-7.511 2-11.5l-3-9 2-13c0-6.968-12.929 4.285-17.5 2-8.999-4.5-19.989-16-30.5-16-3.585 0-8.492 5.483-10 8.5-.465.93-.817 4.5-2 4.5v2l2.5-2c4.179 0 3.771 8.958 2.5 11.5-2.743 5.487-5.544 3.5-10 3.5 0 1.424-.362 5-2 5l-1 4.5 5 10c.559 1.119.155 4.5 2 4.5 0-4.988-.91-11.795 3.5-14l7-8 7-3c3.765-1.882 13.762 3.024 15.5 6.5 5.883 11.767 3.185 26.5-13 26.5l4 2Z"/><path fill="#FE7F82" id="MGd" d="m321 148 4.5-1 7.5 5-1-8-1-1v-2l-1-1v-1l-1-1v-1l-6-6c0 4.113-4 9.623-4 14 0 1.238.423 3 2 3Z"/><path fill="#C7C8CC" id="alv" d="m392 131 1 1-1-1Z"/><path fill="#CCC8CA" id="ar" d="M58 135h1v-3c-1.473 0-1 1.952-1 3Z"/><path fill="#C7C8CC" id="alv" d="m64 132-1 1 1-1Z"/><path fill="#7ECF49" id="CA3" d="M145 220v1c-4.937 0-11.436-3-12-3l-14-17.5c-8.354-16.707-22-22.926-22-44.5 1.473 0 1-1.952 1-3 1.58 0 1-2.855 1-4 .662 0 5.626-13.063 9.5-15 5.069-2.534 5.226 4 7.5 4l-2 6.5c-3.542 7.083 2.389 18.778 5 24 1.029 2.059 4.756 10.5 8 10.5l1 1 2 3 1 1v1l4 8v2l2 4v1c0 7.437 8 12.563 8 20ZM311 220v1c3.731 0 10.83-2 11-2l1-1 1-1c3.311 0 5.302-10 9-10 0-7.197 10.793-12.087 14-18.5 6.065-12.13 12-19.582 12-34.5-1.428 0-5.076-12.651-6-14.5-2.22-4.44-12-9.588-12-1.5 0 3.331.582 7.663 2 10.5 2.895 5.79-5.735 19.471-8 24-.804 1.608-3.393 6.5-5 6.5l-3 3-1 2-1 1-2 4c0 1.048.473 3-1 3v1l-1 2v1c0 1.424-.362 5-2 5 0 1.424-.362 5-2 5l-1 2-1 2-1 2-1 1v1l-2 4v2Z"/><path fill="#FF6F80" id="TH" d="m150 134-1 1 1-1Z"/><path fill="#FF8D9D" id="POL" d="M150 155c2.33 0 3.227 4 6 4l-2-15-2-9-2-1-1 1-1 5c0 1.894-1.661 15 2 15ZM305 157c-2.364 0-3.053 1-5 1l2-13c.372 0 3-9.943 3-11l2 1 2 6v9.5l-3 5.5-1 1Z"/><path fill="#C7C8CC" id="alv" d="m393 134 1 1-1-1Z"/><path fill="#C8C9CA" id="fp" d="m397 134 1 1-1-1Z"/><path fill="#019198" id="AUDv6b" d="M55 139h1l1-1v-3l-2 4Z"/><path fill="#CCC8CA" id="ar" d="M57 137h1v-2h-1v2Z"/><path fill="#C8C9CA" id="fp" d="m59 135-1 1v-1h1Z"/><path fill="#C7C8CC" id="alv" d="m63 135-1 2 1-2Z"/><path fill="#15B0B3" id="TEa1" d="m28 157-4 1v-22h4v21Z"/><path fill="#16AFB3" id="TEa2/3" d="M28 157h1l7-1c0-2.595-1.775-9.049-3-11.5l1-7.5v-1h-6v21Z"/><path fill="#15B0B2" id="TEa4" d="M36 156h2c0-1.698-1.195-5.89-2-7.5l1-11.5v-1l-3 1-1 7.5c1.225 2.451 3 8.905 3 11.5Z"/><path fill="#C7C8CC" id="alv" d="m394 136 1 2-1-2Z"/><path fill="#C8C9CA" id="fp" d="M399 136v1l-1-1h1Z"/><path fill="#15B0B2" id="TEa4" d="M419 156h2c0-6.023 2-12.149 2-19h-4v19Z"/><path fill="#16AFB3" id="TEa2/3" d="m421 156 7 1v-21h-5v1c0 6.851-2 12.977-2 19Z"/><path fill="#15B0B3" id="TEa1" d="m428 157 4 1c0-6.557 1-14.767 1-22h-5v21Z"/><path fill="#15AFB3" id="TEa5" d="M47 155c-3.013 0-6.611 1-9 1 0-1.698-1.195-5.89-2-7.5l1-11.5h12v1l-2 17Z"/><path fill="#C8C9CA" id="fp" d="m58 137-1 1v-1h1Z"/><path fill="#C7C8CC" id="alv" d="m62 137-1 2 1-2Z"/><path fill="#CCC8CA" id="ar" d="m399 137 1 1-1-1Z"/><path fill="#15AFB3" id="TEa5" d="M409 155c3.325 0 7.31 1 10 1v-19h-12v1c0 5.517 2 10.764 2 17Z"/><path fill="#15AFB2" id="TEa6a" d="M47 155h6l2-16-6-1-2 17ZM403 155h6c0-6.236-2-11.483-2-17l-6 1c0 5.051 2 10.426 2 16Z"/><path fill="#16B0B2" id="TEa6b" d="M53 155h2v-3c0-4.569 1-8.923 1-13h-1l-2 16Z"/><path fill="#C7C8CC" id="alv" d="M397 143v2c-1.353 0-2-4.643-2-6l2 4Z"/><path fill="#16B0B2" id="TEa6b" d="M402 155h1c0-5.574-2-10.949-2-16h-1c0 3.249 1 7.194 1 11 1.643 0 1 3.765 1 5Z"/><path fill="#FF7E82" id="PoT" d="M144 157c1.238 0 3 .423 3 2 1.247 0 5 4.14 5-.5l-2-3.5c-3.661 0-2-13.106-2-15l-7 5c0 2.73 2 6.298 2 10l1 2Z"/><path fill="#C7C8CC" id="alv" d="m61 141-1 2 1-2Z"/><path fill="#FF7E82" id="PoT" d="m309 159-1 1c-2.983 0-3 1.321-3-3l1-1 3-5.5V141l7 4c-2.763 0-3 8.651-3 11l-1 1-3 2Z"/><path fill="#C8CBCC" id="ec" d="M114 242v1l-11-4-2-2-3-2h-1l-8-6-7-6-2-2-9-12.5c-4.698-9.396-14-19.367-14-30.5l-1-7-1-1v-18c3.83 0 1.251-9 4-9h1v1c-1.473 0-1 1.952-1 3v3c-1.612 0-2 12.325-2 14.5 0 11.153 4.337 21.674 9 31 .827 1.655 2.559 8.5 5 8.5v1c0 5.928 23.272 30 29 30h1c0 2.168 9.098 6 11 6h1l1 1Z"/><path fill="#FD8FFD" id="ND" d="m223 157-3 1-1-2v-1c0-1.238-.423-3-2-3v-1l-1-1v-1l-1-1v-1l-1-3 6.5-1c1.412.706 5.44 5 5.5 5v5l-3 4ZM236 158h1v-3l1-1 1-1 1-2v-1l1-1v-1l1-2v-2l-6.5-1-4.5 3v9l2 2 3 1Z"/><path fill="#C8CBCC" id="ec" d="M385 205v2c3.731 0 14-23.634 14-28l1-1c0-1.235-.643-5 1-5v-2c0-5.605 1-10.861 1-16 0-1.235.643-5-1-5 0 5.664-3-5.146-3-7h-1v5c1.951 0 .477 2.454 1 3.5 2.468 4.935 1 13.691 1 19.5 0 .986-1.087 6-2 6 0 2.186-1.733 12-4 12 0 1.465.109 4-2 4v1l-2 4c0 1.238-.423 3-2 3v1l-1 1-1 2Z"/><path fill="#C7C8CC" id="alv" d="M60 144c-1.473 0-1 1.952-1 3 1.473 0 1-1.952 1-3Z"/><path fill="#FF90FD" id="INC" d="M219 156v3c-4.657 0-7.213 1.073-10-4.5-.899-1.797-.367-10.5 2.5-10.5l3.5 3v1l1 1v1l1 1v1c0 1.238.423 3 2 3v1ZM237 158v1c4.456 0 7.257 1.987 10-3.5 1.271-2.542 1.679-11.5-2.5-11.5l-2.5 2-1 2v1l-1 1v1l-1 2-1 1v1l-1 1v2Z"/><path fill="#FD7F83" id="MGm" d="M143 157c0 3.479-3.629 6.565-6.5 8-.945.472-3.5.156-3.5-1 7.289 0 3-12.47 3-16l2-3h3c0 2.73 2 6.298 2 10v2ZM313 157c0 2.603 4.296 6.898 6.5 8 1.008.504 4.5.22 4.5-1-9.797 0-3-13.145-3-16-1.577 0-2-1.762-2-3h-3c-2.763 0-3 8.651-3 11v1Z"/><path fill="#FF8FFD" id="MRN" d="m242 146-1 2 1-2Z"/><path fill="#FE7E83" id="MGv" d="M129 164h4c7.289 0 3-12.47 3-16l-5.5-1c-1.412.706-5.954 5-6.5 5l1 8 1 1v1l1 1 2 1ZM324 164h3l2-1 1-1 1-1 2-9-7.5-5-4.5 1c0 2.855-6.797 16 3 16Z"/><path fill="#FF8FFD" id="MRN" d="m215 148 1 1-1-1Z"/><path fill="#C7C8CC" id="alv" d="M397 148c1.951 0 .477 2.454 1 3.5 2.468 4.935 1 13.691 1 19.5 0 .986-1.087 6-2 6v-29Z"/><path fill="#7ECE4A" id="DG-po" d="M99 149c-1.58 0-1 2.855-1 4 1.58 0 1-2.855 1-4Z"/><path fill="#FF8FFD" id="MRN" d="m241 149-1 1 1-1Z"/><path fill="#C7C8CC" id="alv" d="M59 150c-1.612 0-2 12.325-2 14.5 0 11.153 4.337 21.674 9 31 .827 1.655 2.559 8.5 5 8.5 0-2.611-8.305-19.11-10-22.5-4.579-9.158-2-21.324-2-31.5Z"/><path fill="#FF8FFD" id="MRN" d="m216 150 1 1-1-1Z"/><path fill="#CBCBCC" id="mlf" d="m240 151-1 2 1-2ZM217 152c1.577 0 2 1.762 2 3-1.577 0-2-1.762-2-3Z"/><path fill="#7ECE4A" id="DG-po" d="M98 153c-1.473 0-1 1.952-1 3 1.473 0 1-1.952 1-3Z"/><path fill="#FC8FFF" id="PAG" d="M224 159h1l1-2v-4l-3 4 1 2Z"/><path fill="#CBCBCC" id="mlf" d="m239 153-1 1 1-1ZM237 155h1v-1l-1 1Z"/><path fill="#0D9E90" id="ECT5" d="M43 171h7c0-5.537-3-9.946-3-16-3.013 0-6.611 1-9 1l5 14v1Z"/><path fill="#0E9F91" id="ECT6a" d="M51 171h4v-3c-1.148 0-2-11.286-2-13h-6c0 6.054 3 10.463 3 16h1Z"/><path fill="#0E9F90" id="ECT6b" d="M55 155v13c-1.148 0-2-11.286-2-13h2Z"/><path fill="#FF6F80" id="TH" d="M143 157h1l-1-2v2ZM153 168l-2 2c0-4.515-4-7.701-4-11 1.247 0 5 4.14 5-.5l-2-3.5c2.33 0 3.227 4 6 4 0 3.496-3 5.441-3 9Z"/><path fill="#FC8FFF" id="PAG" d="m233 159-2 1v-5l2 2v2Z"/><path fill="#FF8FFD" id="MRN" d="m238 155-1 1v-1h1Z"/><path fill="#0E9F90" id="ECT6b" d="M401 171h1l1-16h-1c0 5.139-1 10.395-1 16Z"/><path fill="#0E9F91" id="ECT6a" d="M402 171h4c0-5.196 3-9.883 3-16h-6l-1 16Z"/><path fill="#0D9E90" id="ECT5" d="M406 171h7v-1c0-4.595 6-9.53 6-14-2.69 0-6.675-1-10-1 0 6.117-3 10.804-3 16Z"/><path fill="#0D9F91" id="ECT2/3" d="M34 171h1c0-1.735 6.51-1 8-1l-5-14h-2l-7 1c0 5.901 5 8.854 5 14Z"/><path fill="#CBCBCC" id="mlf" d="M219 159h1v-1l-1-2v3Z"/><path fill="#FE8FFC" id="EW" d="M231 160v4c0 2.311-3.688 4.124-5 1.5V157h5v3Z"/><path fill="#FF6F80" id="TH" d="m306 156-1 1 1-1ZM312 157h1v-1l-1 1Z"/><path fill="#0D9F91" id="ECT2/3" d="M421 171h1c0-4.589 6-8.681 6-14l-7-1h-2c0 4.47-6 9.405-6 14 1.49 0 8-.735 8 1Z"/><path fill="#0D9F90" id="ECT1" d="M30 171h4c0-5.146-5-8.099-5-14h-1l-4 1c0 6.602 6 11.647 6 13Z"/><path fill="#FE8D9E" id="PIL" d="M148 173h2l1-1v-2c0-4.515-4-7.701-4-11 0-1.577-1.762-2-3-2h-1c0 3.479-3.629 6.565-6.5 8-.945.472-3.5.156-3.5-1h-4v2l1 1 6.5 5c3.109 1.555 7.768 1 11.5 1Z"/><path fill="#FF64FF" id="MB" d="M247 189v6c-1.257 0-5.579-6-11-6v-2l-2-11c0-1.145.579-4-1-4v-1c0-1.747-.253-2-2-2h-5l-2 1c-1.473 0-1 1.952-1 3 0 2.106-2.946 12.777-2.5 13l2.5-1h2l-5 4c-4.975 0-9.381 6-11 6v-6l1-1h1l1-1c1.712 0 3-2.571 3-4l1-1 6-11.5c1.081-2.161-1-4.894-1-6.5 1.728 0-.187-3-1-3v-3l3-1 1 2c-3.964 0-1.109 6 .5 6l.5-6 1-2v8.5c1.312 2.624 5 .811 5-1.5 3.907 0 2.043-3 4-3v3l-1 4.5 5 10c.559 1.119.155 4.5 2 4.5v1l1 1 4 3 1 1ZM233 159c1.747 0 2 .253 2 2 1.473 0 1-1.952 1-3l-3-1v2Z"/><path fill="#FF6F80" id="TH" d="m303 167 2 2 3-9c-2.983 0-3 1.321-3-3-2.364 0-3.053 1-5 1l3 9Z"/><path fill="#FE8D9E" id="PIL" d="M307 173h10.5c1.937-.969 7.405-6 8.5-6h1v-3h-3c0 1.22-3.492 1.504-4.5 1-2.204-1.102-6.5-5.397-6.5-8h-1l-3 2-1 1-3 9v2l1 1 1 1Z"/><path fill="#0D9F90" id="ECT1" d="M422 171h5c0-2.341 5-5.472 5-13l-4-1c0 5.319-6 9.411-6 14Z"/><path fill="#FE90FD" id="RN" d="m209 189-7.5 3-6.5-1c-31.174 0-10.497-49.997 12-27.5l6 7c2.041 4.081 3 6.473 3 11.5l-1 1c0 1.429-1.288 4-3 4l-1 1h-1l-1 1Z"/><path fill="#CBCBCC" id="mlf" d="M235 161v3c1.638 0 2-3.576 2-5v-1h-1c0 1.048.473 3-1 3Z"/><path fill="#FE90FD" id="RN" d="m247 189 7.5 3c2.161 1.081 4.894-1 6.5-1 16.185 0 18.883-14.733 13-26.5-1.738-3.476-11.735-8.382-15.5-6.5l-7 3-7 8c-4.41 2.205-3.5 9.012-3.5 14v1l1 1 4 3 1 1Z"/><path fill="#FC8EFF" id="MA3" d="M224 159h1l-.5 6c-1.609 0-4.464-6-.5-6ZM235 161c-1.957 0-.093 3-4 3v-4l2-1c1.747 0 2 .253 2 2Z"/><path fill="#FF6F80" id="TH" d="m309 159-1 1 1-1Z"/><path fill="#CBCBCC" id="mlf" d="M220 161c.813 0 2.728 3 1 3l-1-3Z"/><path fill="#FF6F80" id="TH" d="M129 164v1l-2-1v-1l2 1ZM329 165l-2 1v-2l2-1v2ZM129 168h1v-1l-1-1v2Z"/><path fill="#FD7F84" id="PP" d="M134 177h3c3.271 0 12 3.365 12-3l-1-1c-3.732 0-8.391.555-11.5-1l-6.5-5v3l1 2v1l3 4Z"/><path fill="#FF64FF" id="MB" d="M318 184c-1.082 0-6.836-6.832-12.5-4l-10.5 5 6-6.5c1.643-3.287 2-7.511 2-11.5l2 2v2l1 1 1 1 1 2c0 5.09 9.155 2 12 2l-2 7Z"/><path fill="#FD7F84" id="PP" d="M320 177h2c0-1.577 1.762-2 3-2v-1c0-1.048-.473-3 1-3v-4c-1.095 0-6.563 5.031-8.5 6H308v2c0 5.09 9.155 2 12 2Z"/><path fill="#FF6F80" id="TH" d="M326 169h1v-2h-1v2Z"/><path fill="#FF64FF" id="MB" d="M130 168v1l-1-1h1ZM184 203l-1 2-4-2c0-7.738-23.115-20.307-28.5-23-2.25-1.125-8.238.119-10 1l-2.5 4-1-8c3.271 0 12 3.365 12-3l1-1 1-1v-2l2-2c0 13.8 15.375 23 28 23 0 1.938-1.164 5.173 0 7.5.848 1.696 3 1.526 3 4.5Z"/><path fill="#CACAC7" id="dtd" d="M224 170h1l1-1-2 1Z"/><path fill="#FEA6FF" id="RL" d="M225 185h6l2-1-2-14v-1h-5l-1 1-1 11-1 1v3h2Z"/><path fill="#CACAC7" id="dtd" d="m231 170 2 1c0-1.747-.253-2-2-2v1Z"/><path fill="#FF64FF" id="MB" d="M326 170h1v-1h-1v1Z"/><path fill="#0E9583" id="PERI2/3" d="m40 182-7 1c0-2.27 2.064-3.627 3-5.5 1.08-2.161-1-4.894-1-6.5 0-1.735 6.51-1 8-1v1c0 2.675 3 5.922 3 9-.706 0-6 1.325-6 2Z"/><path fill="#0E9F90" id="ECT6b" d="M55 171h1l-1-1v1Z"/><path fill="#FF64FF" id="MB" d="m130 170 1 2-1-2Z"/><path fill="#CACAC7" id="dtd" d="M224 170c-1.473 0-1 1.952-1 3 1.473 0 1-1.952 1-3Z"/><path fill="#C8C8C8" id="mtg" d="M223 182v3l-2.5 1c-.446-.223 2.5-10.894 2.5-13 1.473 0 1-1.952 1-3h1l-1 11-1 1ZM235 187h1l-2-11c-1.579 0-1-2.855-1-4v-1l-2-1 2 14c1.577 0 2 1.762 2 3Z"/><path fill="#0E9583" id="PERI2/3" d="m417 182 7 1-4-6.5 1-5.5c0-1.735-6.51-1-8-1v1l-3 9c.969 0 7 1.147 7 2Z"/><path fill="#0E9584" id="PERI1" d="M32 183h1c0-2.27 2.064-3.627 3-5.5 1.08-2.161-1-4.894-1-6.5h-5c0 7.189-4 9.249-4 12h6Z"/><path fill="#0F9684" id="PERI5" d="M46 180h1l5-1-1-8h-8c0 2.675 3 5.922 3 9Z"/><path fill="#0E9684" id="PERI6a" d="m56 178-4 1-1-8h4c0 2.409 1 5.181 1 7Z"/><path fill="#0E9683" id="PERI6b" d="M56 178h1l-1-7h-1c0 2.409 1 5.181 1 7Z"/><path fill="#FF6F80" id="TH" d="m305 171 1 1-1-1Z"/><path fill="#FF64FF" id="MB" d="M325 174h1v-3c-1.473 0-1 1.952-1 3Z"/><path fill="#0E9683" id="PERI6b" d="m402 171-1 2v-2h1Z"/><path fill="#0E9684" id="PERI6a" d="M401 178c0 1.473 1.952 1 3 1l2-8h-4l-1 2v5Z"/><path fill="#0F9684" id="PERI5" d="m404 179 6 1 3-9h-7l-2 8Z"/><path fill="#0E9584" id="PERI1" d="M425 183h6c0-3.25-3.76-4.019-5-6.5-.978-1.956 1-4.077 1-5.5h-6l-1 5.5 4 6.5h1Z"/><path fill="#FF6F80" id="TH" d="m151 172-1 1 1-1Z"/><path fill="#CACAC7" id="dtd" d="M233 172c1.579 0 1 2.855 1 4-1.579 0-1-2.855-1-4Z"/><path fill="#FF64FF" id="MB" d="m134 177-2 2c0-1.048.473-3-1-3v-3l3 4Z"/><path fill="#FF6F80" id="TH" d="m150 173-1 1-1-1h2ZM308 173v2l-1-2h1Z"/><path fill="#0E9683" id="PERI6b" d="M400 178h1v-5c-1.643 0-1 3.765-1 5Z"/><path fill="#FF64FF" id="MB" d="M324 177h1v-2c-1.238 0-3 .423-3 2h2Z"/><path fill="#CCCAC7" id="cpd" d="M195 223c2.883 0 6 .409 6 4 0 8.222-29.042 6.229-33.5 4-8.286-4.143-13.359-12.679-20-16l-6.5-7-4-8v-1l-2-4v-2l-1-5-1-2v-1l-1-6 2-2h3l1 8-1 6.5c1.221 2.442.82 5.64 2 8 6.444 12.889 19.89 21.5 35 21.5h1c0 1.665 4.222 1 5.5 1 4.378 0 9.551 1 14.5 1ZM261 223c-1.999 0-6 .067-6 3 0 8.189 27.1 8.2 31.5 6 7.882-3.941 12.632-7.632 19.5-14.5l8-7.5 1-1v-1l1-1 1-1c0-1.424.362-5 2-5 0-1.424.362-5 2-5v-3l1-1v-3l1-1v-2l1-9h-4l-2 7c0 2.421 2.411 6.678 1 9.5-1.088 2.175-.962 4.925-2 7-6.029 12.059-20.177 20.5-34 20.5h-2c0 1.665-4.222 1-5.5 1-4.182 0-9.679 1-14.5 1Z"/><path fill="#C7C8CC" id="alv" d="M397 177c-1.616 0-4 9.991-4 12 2.267 0 4-9.814 4-12Z"/><path fill="#32B824" id="ENTl6a" d="m79 222-3 1c0-5.281-8.574-9.648-11-14.5-4.678-9.357-13-18.325-13-29.5l4-1h1c0 11.133 9.302 21.104 14 30.5l9 12.5-1 1Z"/><path fill="#0E9683" id="PERI6b" d="m400 178-1 1 1-1Z"/><path fill="#32B824" id="ENTl6a" d="m377 222 3 1c0-4.618 8.082-8.664 10-12.5 5.202-10.404 14-18.986 14-31.5-1.048 0-3 .473-3-1h-1l-1 1c0 4.366-10.269 28-14 28l-1 2-1 2c0 2.36-3.842 8-6 8v3Z"/><path fill="#31B824" id="ENTl5" d="M66 227h5l3-2 2-2c0-5.281-8.574-9.648-11-14.5-4.678-9.357-13-18.325-13-29.5l-5 1c0 12.482 2.919 20.337 8 30.5L66 227ZM385 227h5l7-10.5c6.413-12.826 13-20.756 13-36.5l-6-1c0 12.514-8.798 21.096-14 31.5-1.918 3.836-10 7.882-10 12.5l3 3 2 1Z"/><path fill="#32B725" id="ENTl3" d="M66 227c0 2.156-7.077 2-9 2-1.859 0-5.205-7.91-6-9.5-4.692-9.383-7.332-19.665-12-29l1-8.5c0-.675 5.294-2 6-2h1c0 12.482 2.919 20.337 8 30.5L66 227Z"/><path fill="#7DCD4B" id="HPF" d="M130 183h1v-1l-3-2 2 3Z"/><path fill="#FF8DFD" id="SNr" d="M180 210c0 3.936-6 6.717-6 11-15.11 0-28.556-8.611-35-21.5-1.18-2.36-.779-5.558-2-8l1-6.5 2.5-4c1.762-.881 7.75-2.125 10-1 5.385 2.693 28.5 15.262 28.5 23 0 2.573 1 4.472 1 7ZM276 211c1.762 0 7 8.567 7 10 13.823 0 27.971-8.441 34-20.5 1.038-2.075.912-4.825 2-7 1.411-2.822-1-7.079-1-9.5-1.082 0-6.836-6.832-12.5-4l-10.5 5c0 1.448-18 14.084-18 18l1 4.5-2 3.5Z"/><path fill="#32B725" id="ENTl3" d="M390 227c0 .889 8.743 3 10 3 0-4.118 5.198-8.895 7-12.5 5.322-10.643 10-22.631 10-35.5 0-.853-6.031-2-7-2 0 15.744-6.587 23.674-13 36.5l-7 10.5Z"/><path fill="#FF64FF" id="MB" d="m224 181-1 1 1-1Z"/><path fill="#32B825" id="ENTl2" d="M57 229c0 2.16-8.074 3-10 3-2.55 0-3.117-8.735-4-10.5l-12-29c-1.411-2.822 1-7.079 1-9.5h1l7-1-1 8.5c4.668 9.335 7.308 19.617 12 29 .795 1.59 4.141 9.5 6 9.5Z"/><path fill="#FF8FFD" id="MRN" d="m216 182-1 1 1-1Z"/><path fill="#7DCD4B" id="HPF" d="M325 184h1l1-2h-2v2Z"/><path fill="#32B825" id="ENTl2" d="m400 230 10 3c0-2.772 1.833-5.167 3-7.5l4-14c4.641-9.281 8-17.138 8-28.5h-1l-7-1c0 12.869-4.678 24.857-10 35.5-1.802 3.605-7 8.382-7 12.5Z"/><path fill="#32B722" id="ENTl1" d="M47 232c0 1.579-2.855 1-4 1-2.76 0-4.025-9.55-5-11.5-5.636-11.272-12-25.043-12-38.5h6c0 2.421-2.411 6.678-1 9.5l12 29c.883 1.765 1.45 10.5 4 10.5Z"/><path fill="#C7C8CC" id="alv" d="M131 183v1l-1-1h1Z"/><path fill="#32B722" id="ENTl1" d="M410 233h4l4-8.5c3.914-7.829 13-32.727 13-41.5h-6c0 11.362-3.359 19.219-8 28.5l-4 14c-1.167 2.333-3 4.728-3 7.5Z"/><path fill="#FF64FF" id="MB" d="m231 185 4 2c0-1.238-.423-3-2-3l-2 1Z"/><path fill="#FF8FFD" id="MRN" d="m241 184 1 1-1-1Z"/><path fill="#C7C8CC" id="alv" d="m326 184-1 1v-1h1ZM134 188l1 5-4-8h2v1l1 2Z"/><path fill="#CACBC9" id="vtd" d="M221 196h15c1.579 0 1-2.855 1-4l-1-3v-2h-1l-4-2h-6l-5 4-1 5 2 2Z"/><path fill="#FF64FF" id="MB" d="m277 203-4 2-1-2 4-6.5c.978-1.956-1-4.077-1-5.5 7.292 0 13.284-6 20-6 0 1.448-18 14.084-18 18Z"/><path fill="#C7C8CC" id="alv" d="M323 188v1l2-4-2 1v2Z"/><path fill="#FF64FF" id="MB" d="m133 186 1 2-1-2Z"/><path fill="#FF8FFD" id="MRN" d="m212 187-1 1 1-1ZM210 188l-1 1 1-1ZM246 188l1 1-1-1Z"/><path fill="#FF64FF" id="MB" d="M322 189h1v-1l-1 1Z"/><path fill="#FE8DFF" id="VTA" d="M212 202c2.883 0-.02 7-4 7-4.434 0-18-9.043-18-14l1-2 4-2 6.5 1 7.5-3v6c0 3.245-2.99 7 3 7Z"/><path fill="#C8C8CB" id="rust" d="M209 195c0 3.245-2.99 7 3 7 0-1.076 4.98-1.46 6-3.5.574-1.147-1.064-4.5 1-4.5l1-5c-4.975 0-9.381 6-11 6ZM247 195c.836 0 3.483 7-3 7l-6-3.5c-.662-1.324 1.207-6.5-1-6.5l-1-3c5.421 0 9.743 6 11 6Z"/><path fill="#FE8DFF" id="VTA" d="M244 202c0 4.083-1.169 7 5 7 3.364 0 18-9.996 18-14l-2-2-4-2c-1.606 0-4.339 2.081-6.5 1l-7.5-3v6c.836 0 3.483 7-3 7Z"/><path fill="#C7C8CC" id="alv" d="M323 189c0 1.048.473 3-1 3v-3h1ZM393 189l-2 4c2.109 0 2-2.535 2-4Z"/><path fill="#CACCC8" id="ml" d="m198 216 8 1c0-2.338 2-4.862 2-8-4.434 0-18-9.043-18-14l-3-2c-1.714 0-3.482-2-6-2 0 1.938-1.164 5.173 0 7.5.848 1.696 3 1.526 3 4.5l2 2 12 11ZM259 216c-2.723 0-5.778 1-9 1 0-2.502-1-5.498-1-8 3.364 0 18-9.996 18-14l2-2c1.974 0 3.517-2 6-2 0 1.423 1.978 3.544 1 5.5l-4 6.5-1 2c-.463 0-12 10.32-12 11Z"/><path fill="#FF64FF" id="MB" d="M255 226c-3.079 0-4.921 1-8 1v-8c0-4.39-4.943-15-10-15 0-2.301-1-5.476-1-8 1.579 0 1-2.855 1-4 2.207 0 .338 5.176 1 6.5l6 3.5c0 4.083-1.169 7 5 7 0 2.502 1 5.498 1 8-3.359 0-1.58 2.96.5 4 3.503 1.752 6.921-2 9.5-2l1 4c-1.999 0-6 .067-6 3ZM191 193l-1 2-3-2h4ZM269 193l-2 2-2-2h4Z"/><path fill="#C7C8CC" id="alv" d="m322 193-1 2v-2h1Z"/><path fill="#FF64FF" id="MB" d="m201 227 3.5-2 6.5 4-3-4.5 1-5.5c0-3.78 4.912-15 10-15 0-3.015 2-6.004 2-8l-2-2c-2.064 0-.426 3.353-1 4.5-1.02 2.04-6 2.424-6 3.5 2.883 0-.02 7-4 7 0 3.138-2 5.662-2 8 3.359 0 1.58 2.96-.5 4-3.325 1.662-6.853-2-9.5-2 0 1.674-1 2.326-1 4 2.883 0 6 .409 6 4Z"/><path fill="#C7C8CC" id="alv" d="M391 194c-2.109 0-2 2.535-2 4l2-4ZM135 195l2 4-2-4Z"/><path fill="#FFA6FF" id="IF" d="m237 204-2 1-4-2c-.671 0-5-2.662-5 0l-4 2c0-1.473-1.952-1-3-1 0-3.015 2-6.004 2-8h15c0 2.524 1 5.699 1 8Z"/><path fill="#C7C8CC" id="alv" d="M321 196c-1.638 0-2 3.576-2 5 1.638 0 2-3.576 2-5ZM389 198c-1.577 0-2 1.762-2 3 1.577 0 2-1.762 2-3ZM145 220h1c0-4.638-5-7.92-5-12l-4-8c0 7.437 8 12.563 8 20ZM319 201c-1.638 0-2 3.576-2 5 1.638 0 2-3.576 2-5Z"/><path fill="#FFA4FE" id="IPR" d="M221 220h14c0-3.855 1-6.459 1-10-1.841 0-5-4.669-5-7-.671 0-5-2.662-5 0l-5 7v10Z"/><path fill="#C7C8CC" id="alv" d="m387 202-1 1 1-1Z"/><path fill="#FFA6FD" id="SNc" d="M187 211c0 2.183 3.405 3.31 4 4.5 1.534 3.069-3.178 3.161-4.5 2.5l-5.5-6-1-2c0-2.528-1-4.427-1-7l4 2 2 2 2 4Z"/><path fill="#C7CCCC" id="IIIn" d="m186 205-1 2-2-2 1-2 2 2Z"/><path fill="#FEA4FF" id="IPDM" d="m219 209 2 1 5-7-4 2-3 3v1ZM237 208l-1 2c-1.841 0-5-4.669-5-7l4 2 2 3Z"/><path fill="#C7CCCC" id="IIIn" d="M273 205c0 1.747-.253 2-2 2v-2l1-2 1 2Z"/><path fill="#FFA6FD" id="SNc" d="m275 212-4.5 6c-1.175.588-5.5 1.529-5.5-1.5 0-1.045 2-1.861 2-3.5 1.747 0 2-.253 2-2l1-1 1-3c1.747 0 2-.253 2-2l4-2 1 4.5-2 3.5-1 1Z"/><path fill="#C7C8CC" id="alv" d="m386 203-1 2 1-2Z"/><path fill="#FF8EFE" id="PN" d="M214 214c-2.047 0-2.168 5-5 5 0-3.78 4.912-15 10-15 1.048 0 3-.473 3 1l-3 3-1 1c-.828 0-4 3.748-4 5ZM243 215l4 4c0-4.39-4.943-15-10-15l-2 1 2 3c2.024 0 6 5.829 6 7Z"/><path fill="#C7C8CC" id="alv" d="M71 205c.222 0 10.42 13.921 12.5 16 3.968 3.968 9.063 7.063 12.5 10.5l4 3.5c-5.728 0-29-24.072-29-30Z"/><path fill="#FF64FF" id="MB" d="M193 216h5l-12-11-1 2 2 4 6 5ZM259 216h4l4-3 2-2 1-1 1-3v-2c-.463 0-12 10.32-12 11Z"/><path fill="#C7C8CC" id="alv" d="M384 207h1v-2l-1 2ZM316 207v1l1-2-1 1Z"/><path fill="#65A83D" id="DG-sg" d="M309 222v1c0 4 3.956 8.272 8.5 6 1.664-.832 15.5-20.89 15.5-22-3.698 0-5.689 10-9 10l-1 1-1 1c0 5.939-11 10.191-11 2h-2v1Z"/><path fill="#C7C8CC" id="alv" d="M383 209h1v-2l-1 2Z"/><path fill="#C8CBCC" id="ec" d="m385 207-1 2v-2h1Z"/><path fill="#FEA5FE" id="IPRL" d="M218 209h1v-1l-1 1Z"/><path fill="#FDA6FE" id="IPDL" d="M235 220h6l2-5c0-1.171-3.976-7-6-7l-1 2c0 3.541-1 6.145-1 10Z"/><path fill="#C7C8CC" id="alv" d="M315 209v1l1-2h-1v1Z"/><path fill="#FDA6FE" id="IPDL" d="M215 220h6v-10l-2-1h-1c-.828 0-4 3.748-4 5l1 6Z"/><path fill="#C7C8CC" id="alv" d="m383 211-2 1c0-1.238.423-3 2-3v2Z"/><path fill="#C8CBCC" id="ec" d="m384 209-1 2v-2h1Z"/><path fill="#C7CCCC" id="IIIn" d="M174 221h1c1.703 0 6-7.441 6-9l-1-2c0 3.936-6 6.717-6 11Z"/><path fill="#FF8DFD" id="SNr" d="m270 210-1 1 1-1Z"/><path fill="#C7C8CC" id="alv" d="m315 210-1 2v-2h1Z"/><path fill="#FF8DFD" id="SNr" d="M175 221c0 1.665 4.222 1 5.5 1 4.378 0 9.551 1 14.5 1 0-1.674 1-2.326 1-4l-3-3-6-5c0 2.183 3.405 3.31 4 4.5 1.534 3.069-3.178 3.161-4.5 2.5l-5.5-6c0 1.559-4.297 9-6 9ZM269 211l-2 2c1.747 0 2-.253 2-2Z"/><path fill="#C7CCCC" id="IIIn" d="M281 221h2c0-1.433-5.238-10-7-10l-1 1c0 1.364 4.483 9 6 9Z"/><path fill="#C8CBCC" id="ec" d="M377 217v2c2.158 0 6-5.64 6-8l-2 1-1 1-1 2-1 1-1 1Z"/><path fill="#FF8DFD" id="SNr" d="M281 221c0 1.665-4.222 1-5.5 1-4.182 0-9.679 1-14.5 1l-1-4 3-3 4-3c0 1.639-2 2.455-2 3.5 0 3.029 4.325 2.088 5.5 1.5l4.5-6c0 1.364 4.483 9 6 9Z"/><path fill="#C7C8CC" id="alv" d="m314 212-1 1 1-1ZM381 212l-1 1 1-1ZM380 213l-1 2 1-2Z"/><path fill="#FEA5FF" id="IPL" d="m219 234 2 1v-2c-3.733 0-6-9.734-6-13l-1-6c-2.047 0-2.168 5-5 5l-1 5.5 3 4.5h1l2 2h1l2 2h1l1 1Z"/><path fill="#C7C8CC" id="alv" d="M313 214c-2.109 0-2 2.535-2 4l2-4Z"/><path fill="#FEA5FF" id="IPL" d="M236 234h1l2-1 2-1 1-1 1-1 2-1 1-1 1-1v-8l-4-4-2 5c0 2.87-1.02 13-5 13v1Z"/><path fill="#C7C8CC" id="alv" d="m379 215-1 1 1-1Z"/><path fill="#CCCAC8" id="mp" d="M206 217c3.359 0 1.58 2.96-.5 4-3.325 1.662-6.853-2-9.5-2l-3-3h5l8 1ZM250 217c-3.359 0-1.58 2.96.5 4 3.503 1.752 6.921-2 9.5-2l3-3h-4c-2.723 0-5.778 1-9 1Z"/><path fill="#C7C8CC" id="alv" d="m378 216-1 1 1-1Z"/><path fill="#7ECE4A" id="DG-po" d="m324 217-1 1 1-1Z"/><path fill="#C7C8CC" id="alv" d="M374 221h1l2-2v-2c-1.712 0-3 2.571-3 4Z"/><path fill="#7ECE4A" id="DG-po" d="M133 218c.564 0 7.063 3 12 3 0 9.316-12 2.535-12-3Z"/><path fill="#C7C8CC" id="alv" d="M310 220h1v-2l-1 2Z"/><path fill="#7ECE4A" id="DG-po" d="M322 219c-.17 0-7.269 2-11 2 0 8.191 11 3.939 11-2Z"/><path fill="#C8CBCC" id="ec" d="M375 221h2v-2l-2 2Z"/><path fill="#7DCD4B" id="HPF" d="M147 222h1l-2-2h-1v1l2 1Z"/><path fill="#FEA6FD" id="IPI" d="M221 220v13c-3.733 0-6-9.734-6-13h6Z"/><path fill="#FFA5FE" id="IPC" d="M221 235h14l1-1v-1c0-4.569-1-8.923-1-13h-14v15Z"/><path fill="#FEA6FD" id="IPI" d="M241 220c0 2.87-1.02 13-5 13 0-4.569-1-8.923-1-13h6Z"/><path fill="#7DCD4B" id="HPF" d="M309 221h2v-1h-1l-1 1Z"/><path fill="#8AD987" id="CTXsp" d="m79 222 3 1-2-2-1 1Z"/><path fill="#C7C8CC" id="alv" d="m374 221-1 1 1-1Z"/><path fill="#C8CBCC" id="ec" d="m375 222-2 1v-1l1-1h1v1Z"/><path fill="#8AD987" id="CTXsp" d="M375 222h2v-1h-2v1Z"/><path fill="#A0ED9D" id="EPv" d="M89 229v2c-3.101 0-15-.046-15-4v-2l2-2 3-1 3 1 7 6Z"/><path fill="#7DCD4B" id="HPF" d="M308 223h1v-1l-1 1Z"/><path fill="#C7C8CC" id="alv" d="M372 223h1v-1l-1 1Z"/><path fill="#A0ED9D" id="EPv" d="m367 229 1 2c5.967 0 13.718-4 15-4v-1l-3-3-3-1h-2l-2 1c0 1.747-.253 2-2 2l-1 1-1 1-2 2Z"/><path fill="#C7C8CC" id="alv" d="m372 223-1 1 1-1Z"/><path fill="#C8CBCC" id="ec" d="M371 224v1c1.747 0 2-.253 2-2h-1l-1 1Z"/><path fill="#C7C8CC" id="alv" d="M370 225h1v-1l-1 1Z"/><path fill="#99D2BD" id="OLF" d="M71 227h3v-2l-3 2Z"/><path fill="#C7C8CC" id="alv" d="M367 227h2l1-1v-1c-1.238 0-3 .423-3 2Z"/><path fill="#C8CBCC" id="ec" d="m371 225-1 1v-1h1ZM370 226l-1 1 1-1Z"/><path fill="#99D2BD" id="OLF" d="M383 227h2l-2-1v1Z"/><path fill="#A8ECD2" id="TR" d="M98 249c-5.251 0-13 12.687-13 17-12.232 0-26.007-6.514-32-18.5-2.741-5.483-10-7.886-10-14.5 1.145 0 4 .579 4-1 1.926 0 10-.84 10-3 1.923 0 9 .156 9-2h8c0 3.954 11.899 4 15 4l8 4h1l3 3 1 2c0 3.638-4 6.335-4 9Z"/><path fill="#FF64FF" id="MB" d="m247 227-1 1 1-1Z"/><path fill="#C7C8CC" id="alv" d="M366 229h1v-2l-2 2h1Z"/><path fill="#C8CBCC" id="ec" d="m369 227-2 2v-2h2Z"/><path fill="#A8ECD2" id="TR" d="M360 250c4.071 0 11 12.191 11 16 13.59 0 27.652-7.804 34-20.5 1.612-3.224 9-7.207 9-12.5h-4l-10-3c-1.257 0-10-2.111-10-3h-7c-1.282 0-9.033 4-15 4l-5 2h-1l-1 1-1 1h-1l-1 1-1 1h-1l-1 2c0 4.51 3 7.533 3 10h1l1 1Z"/><path fill="#FF64FF" id="MB" d="m246 228-1 1 1-1Z"/><path fill="#8AD987" id="CTXsp" d="m89 231 8 4-8-6v2Z"/><path fill="#FF64FF" id="MB" d="m212 229 2 2-2-2ZM245 229l-2 1 2-1Z"/><path fill="#C7C8CC" id="alv" d="M362 231h2l1-1v-1c-1.238 0-3 .423-3 2Z"/><path fill="#C8CBCC" id="ec" d="m366 229-1 1v-1h1Z"/><path fill="#8AD987" id="CTXsp" d="m368 231-5 2 1-2 1-1 1-1h1l1 2Z"/><path fill="#33B931" id="HATA" d="M116 243c5.052 0 9.426 6 15 6 1.982 0 6-10.828 6-13l-1-3-3-3c-2.336 0-10.454 11-16 11l-1 1v1Z"/><path fill="#FF64FF" id="MB" d="m243 230-1 1 1-1Z"/><path fill="#33B931" id="HATA" d="m340 243-14 7c-2.619 0-7-12.401-7-15l1-1 3-4c3.514 0 10.679 11 17 11v2Z"/><path fill="#C8CBCC" id="ec" d="m365 230-1 1 1-1Z"/><path fill="#FF64FF" id="MB" d="m215 231 2 2-2-2ZM242 231l-1 1 1-1Z"/><path fill="#C7C8CC" id="alv" d="m362 231-1 1 1-1Z"/><path fill="#C8CBCC" id="ec" d="M362 233h1l1-2h-2l-1 1v1h1Z"/><path fill="#FF64FF" id="MB" d="m241 232-2 1 2-1Z"/><path fill="#C7C8CC" id="alv" d="M359 233h2v-1l-2 1Z"/><path fill="#7DCD4B" id="HPF" d="m138 235-1 1-1-3 2 2Z"/><path fill="#FF64FF" id="MB" d="m218 233 1 1-1-1Z"/><path fill="#C7C8CC" id="alv" d="M356 235h2l1-2c-1.238 0-3 .423-3 2Z"/><path fill="#C8CBCC" id="ec" d="M359 235h1l1-1v-1h-2l-1 2h1Z"/><path fill="#8AD987" id="CTXsp" d="m362 233-1 1v-1h1Z"/><path fill="#FEA5FF" id="IPL" d="M235 235h1v-1l-1 1Z"/><path fill="#FF64FF" id="MB" d="m237 234-1 1v-1h1Z"/><path fill="#7DCD4B" id="HPF" d="m320 234-1 1 1-1Z"/><path fill="#8AD987" id="CTXsp" d="m361 234-1 1 1-1ZM101 237v1l-3-3 3 2Z"/><path fill="#C7C8CC" id="alv" d="m101 235 11 6c-1.902 0-11-3.832-11-6Z"/><path fill="#7DCD4B" id="HPF" d="M139 235h1c0 1.186-1 1.186-1 0Z"/><path fill="#C7C8CC" id="alv" d="M353 237h2l1-2c-1.238 0-3 .423-3 2Z"/><path fill="#C8CBCC" id="ec" d="M356 237h1l1-1v-1h-2l-1 2h1Z"/><path fill="#8AD987" id="CTXsp" d="m359 235-1 1v-1h1ZM358 236l-1 1 1-1Z"/><path fill="#FF9B88" id="P" fill-rule="evenodd" d="m191 243-1 4.5c3.447 6.893 25.404-.048 12.5-6.5H198l-7 2m0 0c0-3.113 7.656-3.078 9.5-4 9.278-4.639 30.018 5.463 23.5 18.5-1.101 2.201-7.32-.5-8.5-.5-8.614 0-19.77 1.615-27-2-3.2-1.6-1.153-12 2.5-12ZM253 241c0 1.543-4.634 2.231-3 5.5 3.883 7.766 24.151 1.825 13.5-3.5l-3.5-2h-7m-4-4c0 2.308-6.963 2.232-8.5 3-4.005 2.002-9.5 7.615-9.5 12.5 0 .9 1.426 4.963 2.5 5.5.607.304 31.623-1.311 33-2 3.627-1.814 3.288-11.356 0-13l-6-3c-3.108-1.554-7.871-3-11.5-3Z"/><path fill="#C7C8CC" id="alv" d="M349 239h2l1-2c-1.238 0-3 .423-3 2Z"/><path fill="#C8CBCC" id="ec" d="M351 239h2l2-1v-1h-3l-1 2Z"/><path fill="#8AD987" id="CTXsp" d="M355 238v1l1-2h-1v1Z"/><path fill="#97EC93" id="PA" d="M107 251c8.749 0 15.971 7 20 7l4-9c-5.574 0-9.948-6-15-6h-2l-11-4-1 1c0 3.638-4 6.335-4 9 2.008 0 9-.656 9 2Z"/><path fill="#C7C8CC" id="alv" d="M346 241h1l1-2-4 2h2Z"/><path fill="#C8CBCC" id="ec" d="m351 239-4 2 1-2h3Z"/><path fill="#97EC93" id="PA" d="M349 251c-8.633 0-16.258 7-19 7-1.778 0-4-6.332-4-8l14-7h3l3-2h1l4-2h4c0 4.51 3 7.533 3 10-1.923 0-9-.156-9 2Z"/><path fill="#C7C8CC" id="alv" d="M115 243h1v-1l-1-1h-2l1 1 1 1Z"/><path fill="#7DCD4B" id="HPF" d="m117 241-1 1-1-1h2Z"/><path fill="#FFB885" id="PG" d="m191 243-1 4.5c3.447 6.893 25.404-.048 12.5-6.5H198l-7 2ZM253 241c0 1.543-4.634 2.231-3 5.5 3.883 7.766 24.151 1.825 13.5-3.5l-3.5-2h-7Z"/><path fill="#7DCD4B" id="HPF" d="M340 242h1v-1h-1v1Z"/><path fill="#C7C8CC" id="alv" d="M341 242h2v-1h-2v1Z"/><path fill="#C8CBCC" id="ec" d="M343 242v1l3-2h-3v1Z"/><path fill="#C7C8CC" id="alv" d="M340 243h1v-1h-1v1Z"/><path fill="#5FE6B7" id="COApl" d="m85 266 10 7c0-5.686 3.633-10.767 6-15.5l6-6.5c0-2.656-6.992-2-9-2-5.251 0-13 12.687-13 17ZM371 266c0 1.274-8.392 7-10 7 0-8.576-12-21.467-12-22 0-2.156 7.077-2 9-2h1l1 1c4.071 0 11 12.191 11 16Z"/><path fill="#97EC93" id="PA" d="m359 249 1 1-1-1Z"/><path fill="#60E6B5" id="COApm" d="M127 258c0 1.869-4.334 6.417-5.5 7-2.834 1.417-8.399 7.699-13 10-4.042 2.021-11.055-2-13.5-2 0-5.686 3.633-10.767 6-15.5l6-6.5c8.749 0 15.971 7 20 7ZM330 258c0 5.279 12.801 17 18 17 2.382 0 13 1.056 13-2 0-8.576-12-21.467-12-22-8.633 0-16.258 7-19 7Z"/></svg>