<svg xmlns="http://www.w3.org/2000/svg" viewBox="0 0 456 320"><path fill="#1BA598" id="RSPd1" d="M218 20h1l2-1c0-2.835-3.038-2.575-4-4.5C211.832 4.164 196.223 8 186 8l1 5c5.599 0 31-3.245 31 7ZM235 19l3 1c0-9.939 25.463-7 31-7l1-5c-12.015 0-21.534-2.966-31 6.5l-4 4.5Z"/><path fill="#1BA696" id="RSPagl1" d="M187 13c-4.416 0-9.086 3-14 3l-1-5c2.776 0 10.389-3 14-3l1 5ZM269 13c4.746 0 9.633 3 15 3l1-5c-4.211 0-10.406-3-15-3l-1 5Z"/><path fill="#09848B" id="VISam1" d="M173 16c-6.835 0-14.506 4-21 4l-2-5c7.495 0 14.231-4 22-4l1 5ZM284 17c7.332 0 13.677 3 20 3 0-1.852 1-3.31 1-5-5.813 0-13.598-4-20-4l-1 5v1Z"/><path fill="#1BA697" id="RSPd2/3" d="M187 21c4.9 0 13.088-4.706 18.5-2 1.586.793 7.094 5 8.5 5l4-4c0-10.245-25.401-7-31-7v8ZM242 24h1c0-8.54 22.609-3 26-3v-8c-5.537 0-31-2.939-31 7v1l4 3Z"/><path fill="#1AA496" id="RSPagl2/3" d="M175 24v1l12-4v-8c-4.416 0-9.086 3-14 3 0 3.091 2 5.478 2 8ZM282 24v1c-4.363 0-7.943-4-12-4h-1v-8c4.746 0 9.633 3 15 3v1c-.853 0-2 6.031-2 7Z"/><path fill="#019FAC" id="VISa1" d="m117 26 2 5c8.532 0 22.686-11 33-11l-2-5c-5.437 0-19.47 5.485-24.5 8-1.242.621-8.5 1.767-8.5 3ZM337 31h1l1-5c0-1.492-7.176-2.338-8.5-3-6.728-3.364-17.752-8-25.5-8 0 1.69-1 3.148-1 5 9.774 0 25.636 11 33 11Z"/><path fill="#0B848A" id="VISam2/3" d="M155 29h1c6.433 0 12.058-5 19-5 0-2.522-2-4.909-2-8-6.835 0-14.506 4-21 4 0 2.933 3 5.321 3 9ZM300 29h1l3-9c-6.323 0-12.668-3-20-3-.853 0-2 6.031-2 7 6.354 0 12.112 5 18 5Z"/><path fill="#1AA596" id="RSPd5" d="M206 33h1c0-1.255 4.777-8 7-8v-1c-1.406 0-6.914-4.207-8.5-5-5.412-2.706-13.6 2-18.5 2v12c.923 0 19-8.505 19 0Z"/><path fill="#1BA597" id="RSPv1" d="M230 64h2c0-9.207-2.955-25.59 1-33.5.904-1.808 2.198-9.5 5-9.5v-1l-3-1-3 4.5-1.5 2.5c-6.562 6.562-4.747-7-9.5-7l-2 1 6 12.5V64h2c0-5.86 3-4.761 3 0Z"/><path fill="#1AA596" id="RSPd5" d="M251 33c0-8.868 16.614 0 19 0V21h-1c-3.391 0-26-5.54-26 3l7 9h1Z"/><path fill="#009EAB" id="VISa2/3" d="m119 31 4 8c9.482 0 21.774-10 32-10 0-3.679-3-6.067-3-9-10.314 0-24.468 11-33 11Z"/><path fill="#1AA597" id="RSPv2/3" d="m221 63 4 1V32.5L219 20h-1l-4 4v1c3.241 0 3.114 5.727 4 7.5 2.275 4.55 3 24.85 3 30.5Z"/><path fill="#009EAB" id="VISa2/3" d="M333 39h1l3-8c-7.364 0-23.226-11-33-11l-3 9c10.26 0 22.663 10 32 10Z"/><path fill="#1CA697" id="RSPagl5" d="M187 33c-3.614 0-6.899 4-11 4 0-3.249-1-7.194-1-11v-1l12-4v12Z"/><path fill="#1AA597" id="RSPv2/3" d="m236 63-4 1c0-9.207-2.955-25.59 1-33.5.904-1.808 2.198-9.5 5-9.5l4 3-5 11.5-1 27.5Z"/><path fill="#1CA697" id="RSPagl5" d="M270 33c3.408 0 6.686 4 11 4 0-2.657-.312-11 1-11v-1c-4.363 0-7.943-4-12-4v12Z"/><path fill="#09858A" id="VISam4" d="m156 29 1 2c6.637 0 11.527-5 18-5v-2c-6.942 0-12.567 5-19 5Z"/><path fill="#1BA498" id="RSPv5" d="M236 63h2l6-4 1-1v-1c0-7.584 5-15.943 5-24l-7-9h-1l-5 11.5-1 27.5Z"/><path fill="#09858A" id="VISam4" d="m300 29-1 2c-5.91 0-11.303-5-17-5v-2c6.354 0 12.112 5 18 5Z"/><path fill="#1BA498" id="RSPv5" d="M212 58c0 1.827 7.086 5 9 5 0-5.65-.725-25.95-3-30.5-.886-1.773-.759-7.5-4-7.5-2.223 0-7 6.745-7 8l2 17.5c1.035 2.069 3 5.13 3 7.5Z"/><path fill="#029FAB" id="VISrl1" d="M102 39h1c0-1.093 14.209-8 16-8l-2-5c-1.72 0-17 7.818-17 9 .546 0 1 2.571 1 4h1Z"/><path fill="#0A848B" id="VISam5" d="M161 41h1l14-3v-1c0-3.249-1-7.194-1-11-6.473 0-11.363 5-18 5v1c0 4.204 4 5.214 4 9ZM281 38l14 3c0-4.92 4-3.226 4-9v-1c-5.91 0-11.303-5-17-5-1.312 0-1 8.343-1 11v1Z"/><path fill="#029FAB" id="VISrl1" d="M353 39h2c0-1.465-.109-4 2-4l-3.5-2c-4.214-2.107-9.626-7-14.5-7l-1 5c1.449 0 15 6.998 15 8Z"/><path fill="#019EAC" id="VISa4" d="m123 39 1 5c6.945 0 23.131-12 33-12v-1l-1-2h-1c-10.226 0-22.518 10-32 10Z"/><path fill="#1AA697" id="RSPd6a" d="M188 43h11l7-10c0-8.505-18.077 0-19 0 0 3.325 1 7.31 1 10ZM258 43h11l1-10c-2.386 0-19-8.868-19 0 0 1.862 4.777 10 7 10Z"/><path fill="#019EAC" id="VISa4" d="M333 39c0 1.234.643 5-1 5-5.259 0-23.66-12-33-12v-1l1-2h1c10.26 0 22.663 10 32 10Z"/><path fill="#029EAC" id="VISrl2/3" d="M108 46h1l14-7-4-8c-1.791 0-16 6.907-16 8l5 7ZM347 46h1c0-1.473 5-4.605 5-7 0-1.002-13.551-8-15-8h-1l-3 8 13 7Z"/><path fill="#019EAB" id="VISa5" d="m124 45 4 7c4.577 0 23.381-11 33-11 0-3.786-4-4.796-4-9-9.869 0-26.055 12-33 12v1ZM328 52h1c0-1.489 1.835-7 3-7v-1c-5.259 0-23.66-12-33-12 0 5.774-4 4.08-4 9 6.594 0 17.768 3.134 23.5 6l9.5 5Z"/><path fill="#1CA597" id="RSPagl6a" d="m185 45-8 1-1-8v-1c4.101 0 7.386-4 11-4 0 3.325 1 7.31 1 10l-3 2Z"/><path fill="#1AA498" id="RSPv6a" d="M209 55c0 1.54 1.342 3 3 3 0-2.37-1.965-5.431-3-7.5L207 33h-1l-7 10v1l10 11ZM247 56l-2 1c0-7.584 5-15.943 5-24h1c0 1.862 4.777 10 7 10v1l-1 1-2 2c-1.811 0-4 3.438-4 5l-1 1c-1.747 0-2 .253-2 2l-1 1Z"/><path fill="#1CA597" id="RSPagl6a" d="M269 43c3.136 0 6.122 3 10 3 0-1.552.566-8 2-8v-1c-4.314 0-7.592-4-11-4l-1 10Z"/><path fill="#188060" id="SSp-bfd1" d="m66 59 3 3 18.5-15 13.5-8c0-1.429-.454-4-1-4-4.601 0-23.214 13.714-27 17.5L66 59ZM387 63h1l2-4-5-4.5c-1.263-2.526-25.06-19.5-28-19.5-2.109 0-2 2.535-2 4 2.973 0 22.632 14.132 25 16.5 1.995 1.995 7 5.283 7 7.5Z"/><path fill="#0A828B" id="VISam6a" d="m177 46-13 1-2-6 14-3 1 8ZM279 46l14 1c0-2.72 2-3.553 2-6l-14-3c-1.434 0-2 6.448-2 8Z"/><path fill="#187F63" id="SSp-bfd2/3" d="m69 63 6 6c1.296 0 14.55-12.525 17.5-14l11-7c.93-.465 4.5-.817 4.5-2l-5-7c0 1.186-1 1.186-1 0h-1l-13.5 8L69 62v1Z"/><path fill="#029EAC" id="VISrl2/3" d="M102 39h1c0 1.186-1 1.186-1 0Z"/><path fill="#019EAA" id="VISrl4" d="M112 51h1c3.619 0 6.774-6 11-6v-1l-1-5-14 7 3 5ZM347 46c0 2.364-3 3.053-3 5-4.166 0-7.026-6-12-6v-1c1.643 0 1-3.766 1-5h1l13 7Z"/><path fill="#187F63" id="SSp-bfd2/3" d="M381 70h1c0-3.153 5-4.304 5-7 0-2.217-5.005-5.505-7-7.5-2.368-2.368-22.027-16.5-25-16.5h-2c0 2.395-5 5.527-5 7 3.934 0 23.566 13.631 25 16.5l8 7.5Z"/><path fill="#009DAC" id="VISa6a" d="M131 59h1c0-2.37 15.21-8 18-8 0-2.117 11.965-4 14-4l-2-6h-1c-9.619 0-28.423 11-33 11v1l3 6ZM328 52c0 1.146-1.339 6-3 6-6.42 0-21.606-11-32-11 0-2.72 2-3.553 2-6 6.594 0 17.768 3.134 23.5 6l9.5 5Z"/><path fill="#1BA698" id="RSPd6b" d="M198 44h1v-1h-11v1h10ZM259 44h9l1-1h-11v1h1Z"/><path fill="#1AA598" id="RSPagl6b" d="M188 44c0 1.473-1.952 1-3 1l3-2v1Z"/><path fill="#CACCC7" id="cing" d="M212 58c0 1.827 7.086 5 9 5 0 2.112-4.643 0-6 0-5.697 0-10.653-5.577-15.5-8l-7-5c-7.197-3.598-20.512 1-28.5 1 0-1.714-5.594-1-7-1 0-1.714 5.594-1 7-1 4.965 0 7.895-2 13-2 1.899 0 8 .488 8-2 1.048 0 3 .473 3-1h10c0 2.32 8.738 11 11 11 0 1.54 1.342 3 3 3ZM244 59l-6 4c11.225 0 17.272-8.386 26.5-13 7.014-3.507 20.566 1 28.5 1 0-1.714 5.594-1 7-1 0-1.714-5.594-1-7-1-5.211 0-8.527-2-14-2-2.317 0-11-.623-11-3h-9l-2 1c0 1.747-.253 2-2 2 0 1.562-2.189 5-4 5l-1 1-2 2-1 1-2 1v1l-1 1Z"/><path fill="#1AA598" id="RSPagl6b" d="M279 46v1c-2.317 0-11-.623-11-3l1-1c3.136 0 6.122 3 10 3Z"/><path fill="#1AA497" id="RSPv6b" d="m199 44 10 11c-2.262 0-11-8.68-11-11h1ZM259 44l-2 1 1-1h1Z"/><path fill="#019DAB" id="VISrl5" d="m128 53-9 4c-1.7 0-6-4.503-6-6 3.619 0 6.774-6 11-6l4 7v1Z"/><path fill="#1AA598" id="RSPagl6b" d="M177 46v1c1.899 0 8 .488 8-2l-8 1Z"/><path fill="#1AA497" id="RSPv6b" d="m257 45-2 2c1.747 0 2-.253 2-2Z"/><path fill="#019DAB" id="VISrl5" d="M337 57h1l6-6c-4.166 0-7.026-6-12-6-1.165 0-3 5.511-3 7l8 5Z"/><path fill="#197C64" id="SSp-bfd4" d="M75 71c3.09 0 3.266 5 6 5l2.5-2c6.26-6.26 13.486-13.243 21-17l7.5-6-3-5h-1c0 1.183-3.57 1.535-4.5 2l-11 7C89.55 56.475 76.296 69 75 69v2Z"/><path fill="#08838A" id="VISam6b" d="M177 47c-5.105 0-8.035 2-13 2v-2l13-1v1ZM293 47v2c-5.211 0-8.527-2-14-2v-1l14 1Z"/><path fill="#197C64" id="SSp-bfd4" d="M375 76h1l5-6-8-7.5c-1.434-2.869-21.066-16.5-25-16.5h-1c0 2.364-3 3.053-3 5l8.5 7c3.712 1.856 22.5 16 22.5 18Z"/><path fill="#029FAC" id="VISa6b" d="M150 51h4c0-1.473 1.952-1 3-1 0-1.714 5.594-1 7-1v-2c-2.035 0-14 1.883-14 4Z"/><path fill="#1AA497" id="RSPv6b" d="M255 47c-1.811 0-4 3.438-4 5 1.811 0 4-3.438 4-5Z"/><path fill="#029FAC" id="VISa6b" d="M325 59v1c-3.737 0-15.496-9-23-9l-2-1c0-1.714-5.594-1-7-1v-2c10.394 0 25.58 11 32 11v1Z"/><path fill="#C7CACC" id="ccs" d="M363 108c2.273 0 8.635 16 9 16 0-26.528-26.701-50.1-48.5-61-4.994-2.497-11.765-9-17.5-9l-1-1h-2l-10-2c-7.934 0-21.486-4.507-28.5-1-9.228 4.614-15.275 13-26.5 13 0 1.4-2 1.4-2 0l-4 1h-7l-4-1c0 2.112-4.643 0-6 0-5.697 0-10.653-5.577-15.5-8l-7-5c-7.197-3.598-20.512 1-28.5 1-4.296 0-7.018 2-11 2h-1l-1 1c-7.228 0-15.244 7.872-21.5 11C109.669 74.916 85 97.665 85 121c3.353 0 4.498-13 8-13v-1l1-1 4-5 1-2c0-1.238.423-3 2-3 0-1.238.423-3 2-3 0-1.747.253-2 2-2 0-1.238.423-3 2-3 0-2.226 1.774-4 4-4v-1c0-1.901 4.332-5 6-5l1-1c0-1.577 1.762-2 3-2 0-1.747.253-2 2-2 0-1.577 1.762-2 3-2 0-1.577 1.762-2 3-2 0-1.577 1.762-2 3-2 0-1.577 1.762-2 3-2l2-1 2-1c0-4.581 22.161-8 27-8h6c2.707 0 5.903 1 8 1 10.266 0 19.857 12.178 29.5 17 5.154 2.577 12.788.394 18 3 .93.465 8.815-1.407 10-2 4.049-2.025 9.864-.932 14-3 9.3-4.65 14.376-15 24.5-15l8-1h7c20.472 0 52.848 19.195 62 37.5 1.953 3.906 10 10.09 10 15.5Z"/><path fill="#C9C9CA" id="scwm" d="M164 51c-4.296 0-7.018 2-11 2 0-.714 3.336-2 1-2 0-1.473 1.952-1 3-1 1.406 0 7-.714 7 1ZM302 51c-2.336 0 1 1.286 1 2l-10-2c0-1.714 5.594-1 7-1l2 1Z"/><path fill="#1A7D62" id="SSp-bfd5" d="m81 77 5 6 8.5-8c6.887-3.444 17.531-17 24.5-17v-1c-1.7 0-6-4.503-6-6h-1l-7.5 6c-7.514 3.757-14.74 10.74-21 17L81 76v1Z"/><path fill="#029FAC" id="VISa6b" d="M132 59v1l13.5-7c1.37-.685 4.5.871 4.5-2-2.79 0-18 5.63-18 8Z"/><path fill="#CBC9C7" id="or" d="M73 140c.672 0 2 4.329 2 5l9-16v-3l1-2v-3c0-23.335 24.669-46.084 44.5-56 6.256-3.128 14.272-11 21.5-11l1-1h1c0-.714 3.336-2 1-2h-4c0 2.871-3.13 1.315-4.5 2L132 60l-6 3c-2.367 0-4.032 4-7 4 0 1.89-6.374 6-8 6 0 3.803-11.178 10.678-14 13.5L93 91c0 1.634-2.635 4-4 4 0 2.055-5.939 12-8 12 0 1.048.473 3-1 3 0 4.748-5 8.89-5 14l-1 1v5c4.661 0-1 7.51-1 10ZM383 139c0 1.623-.005 6-2 6l-9-18v-3c0-26.528-26.701-50.1-48.5-61-4.994-2.497-11.765-9-17.5-9l-1-1h-2c0-.714-3.336-2-1-2 7.504 0 19.263 9 23 9l6 3c2.907 0 21.446 16.946 24.5 20l8.5 8c0 2.825 7.55 13.05 9.5 15l3.5 4c0 5.538 5 9.48 5 15l1 2v3c-5.598 0 0 6.211 0 9Z"/><path fill="#1A7D62" id="SSp-bfd5" d="M375 76c0 1.424-3.98 7-5 7l-7.5-7c-5.26-5.26-10.831-9.915-17-13l-7.5-6 6-6 8.5 7c3.712 1.856 22.5 16 22.5 18Z"/><path fill="#1AA497" id="RSPv6b" d="m251 52-1 1 1-1Z"/><path fill="#029EAB" id="VISrl6a" d="M331 62h1l5-5-8-5h-1c0 1.146-1.339 6-3 6v1l6 3ZM124 62h1l6-3-3-6-9 4v1l5 4Z"/><path fill="#C9C9CA" id="scwm" d="m152 53-1 1 1-1Z"/><path fill="#1AA497" id="RSPv6b" d="M250 53c-1.747 0-2 .253-2 2l2-2Z"/><path fill="#C9C9CA" id="scwm" d="m305 53 1 1-1-1Z"/><path fill="#C7C8CC" id="alv" d="M166 55c-4.839 0-27 3.419-27 8l15.5-6c1.538-.77 11.5-.285 11.5-2Z"/><path fill="#7ECF4B" id="CA1" d="M98 101v2c3.908 0 8.174-2.337 11.5-4 3.905-1.952 14.491-2 19.5-2 0-4.229 10.843-8.671 13.5-10 20.263-10.131 26.508-7.746 46 2 4.24 2.12 9.754 11 14.5 11l2 1c5.083 0 8.754-4 12-4v-1c0-3.708 2-5.942 2-10v-1l-2-2h-2l-1-1h-1l-1-1h-1c-1.238 0-3-.423-3-2h-1l-2-2h-1c-2.53 0-13.928-12.428-16.5-15l-4.5-4h-1l-1-1h-1c-1.257 0-8-.94-8-2h-6c0 1.715-9.962 1.23-11.5 2L139 63l-2 1-2 1c0 1.577-1.762 2-3 2 0 1.577-1.762 2-3 2 0 1.577-1.762 2-3 2 0 1.577-1.762 2-3 2l-2 2c0 1.577-1.762 2-3 2l-1 1c0 1.901-4.332 5-6 5v1l-4 4c0 1.238-.423 3-2 3 0 1.747-.253 2-2 2 0 1.238-.423 3-2 3 0 1.238-.423 3-2 3l-1 2Z"/><path fill="#C7C8CC" id="alv" d="M180 56v1c-1.257 0-8-.94-8-2 2.707 0 5.903 1 8 1Z"/><path fill="#C9CCC9" id="dhc" d="M239 83h2l2-1 2-1h1l1-1 2-1 2-1 1-1 1-1 1-1h1c0-1.747.253-2 2-2 0-1.747.253-2 2-2 0-1.747.253-2 2-2 0-1.747.253-2 2-2 0-1.747.253-2 2-2 0-1.747.253-2 2-2l1-1 1-1 2-1 1-1h1l1-1 1-1h1v-1c-10.124 0-15.2 10.35-24.5 15-4.136 2.068-9.951.975-14 3-1.185.593-9.07 2.465-10 2-5.212-2.606-12.846-.423-18-3-9.643-4.822-19.234-17-29.5-17v1h1l1 1h1c1.328 0 21 16.772 21 19h1l2 2h1l3 2h1l1 1h1l1 1h24Z"/><path fill="#1AA497" id="RSPv6b" d="m248 55-1 1 1-1Z"/><path fill="#C7C8CC" id="alv" d="M276 56v1c1.257 0 8-.94 8-2l-8 1Z"/><path fill="#7ECF4B" id="CA1" d="m253 100-2 1c-5.161 0-11.148-5-12-5 0-4.242-2-6.596-2-11 1.747 0 2-.253 2-2h2l2-1 2-1h1l1-1 2-1 2-1 1-1 1-1 1-1h1l2-2 2-2c1.747 0 2-.253 2-2l2-2 2-2 2-2 1-1 1-1 2-1 1-1h1l1-1 1-1h1c1.257 0 8-.94 8-2h7c0 1.684 4.679 1 6 1 4.39 0 11.655 3.077 15.5 5 13.323 6.661 31.751 17.002 38.5 30.5l8 11.5c-4.269 0-8.878-2.189-12.5-4-4.972-2.486-13.576-2-19.5-2 0-4.42-11.694-9.597-14.5-11-13.029-6.514-24.582-7.71-38-1-4.338 2.169-18.067 15-21.5 15Z"/><path fill="#C7C8CC" id="alv" d="M350 139c4.91 0 10 6.722 10 11 .791 0 2.459-7.418 3-8.5 1.891-3.781 5.383-21.233 3-26l-3-7.5c0-5.41-8.047-11.594-10-15.5-9.152-18.305-41.528-37.5-62-37.5 0 1.684 4.679 1 6 1 4.39 0 11.655 3.077 15.5 5 13.323 6.661 31.751 17.002 38.5 30.5l8 11.5 3 6 3 12.5c0 40.598-37.056-10.5-50-10.5l2 2h1l1 1h1l1 1h1l2 2h1l2 2h1l11 11 11 9ZM181 57l1 1-1-1ZM275 57l-1 1 1-1Z"/><path fill="#198060" id="SSp-bfd6a" d="m370 84-5 6-16.5-16L332 62l5-5h1l7.5 6c6.169 3.085 11.74 7.74 17 13l7.5 7v1ZM86 84l6 6c2.752 0 14.094-17 19-17 0-2.158 5.64-6 8-6l5-5-5-4c-6.969 0-17.613 13.556-24.5 17L86 83v1Z"/><path fill="#C7C8CC" id="alv" d="M183 58c1.328 0 21 16.772 21 19-2.53 0-13.928-12.428-16.5-15l-4.5-4Z"/><path fill="#1AA498" id="RSPv6a" d="m245 58-1 1 1-1Z"/><path fill="#C7C8CC" id="alv" d="m274 58-1 1 1-1Z"/><path fill="#1A7E62" id="SSs1" d="M53 79h1l2-2.5C57.704 73.092 66.16 63 69 63v-1l-3-3c-1.095 0-15 15.198-15 16l2 4Z"/><path fill="#009DAA" id="VISrl6b" d="m125 62 1 1 6-3v-1h-1l-6 3Z"/><path fill="#C7C8CC" id="alv" d="m272 59-1 1 1-1Z"/><path fill="#009DAA" id="VISrl6b" d="M331 62v1l-6-3v-1l6 3Z"/><path fill="#1A7E62" id="SSs1" d="m405 75-2 4c-1.868 0-11.72-16-15-16l2-4c1.939 0 15 15.093 15 16Z"/><path fill="#C7C8CC" id="alv" d="m271 60-2 1 2-1ZM269 61l-1 1 1-1Z"/><path fill="#1A7E61" id="SSp-bfd6b" d="M126 63c-2.367 0-4.032 4-7 4l5-5h1l1 1Z"/><path fill="#C7C8CC" id="alv" d="m268 62-1 1 1-1Z"/><path fill="#1A7E61" id="SSp-bfd6b" d="M364 91h1v-1l-16.5-16L332 62h-1v1c2.907 0 21.446 16.946 24.5 20l8.5 8Z"/><path fill="#1B8063" id="SSs2/3" d="m54 79 7 8c2.53 0 10-16 14-16v-2l-6-6c-2.84 0-11.296 10.092-13 13.5L54 79Z"/><path fill="#C7C8CC" id="alv" d="m139 63-2 1 2-1Z"/><path fill="#CACCC7" id="cing" d="M236 63h2c0 1.4-2 1.4-2 0Z"/><path fill="#C7C8CC" id="alv" d="M267 63c-1.747 0-2 .253-2 2l2-2Z"/><path fill="#1B8063" id="SSs2/3" d="M403 80c-3.198 0-5.09 7-8 7 0-3.71-13-13.268-13-17 0-3.153 5-4.304 5-7h1c3.28 0 13.132 16 15 16v1Z"/><path fill="#C7C8CC" id="alv" d="m137 64-2 1 2-1ZM135 65c-1.238 0-3 .423-3 2 1.238 0 3-.423 3-2ZM265 65c-1.747 0-2 .253-2 2l2-2Z"/><path fill="#1A7E61" id="SSp-bfd6b" d="M119 67c-2.36 0-8 3.842-8 6 1.626 0 8-4.11 8-6Z"/><path fill="#C7C8CC" id="alv" d="M132 67c-1.238 0-3 .423-3 2 1.238 0 3-.423 3-2ZM263 67c-1.747 0-2 .253-2 2l2-2ZM129 69c-1.238 0-3 .423-3 2 1.238 0 3-.423 3-2ZM261 69c-1.747 0-2 .253-2 2 1.747 0 2-.253 2-2Z"/><path fill="#187C63" id="SSs4" d="m395 88-4 3-15-15 5-6h1c0 3.732 13 13.29 13 17v1ZM61 88c1.114 0 4 2.034 4 3 5.426 0 8.939-14 16-14v-1c-2.734 0-2.91-5-6-5-4 0-11.47 16-14 16v1Z"/><path fill="#C7C8CC" id="alv" d="M126 71c-1.238 0-3 .423-3 2 1.238 0 3-.423 3-2ZM259 71c-1.747 0-2 .253-2 2l2-2Z"/><path fill="#1A7E61" id="SSp-bfd6b" d="M92 91h1l4-4.5c2.822-2.822 14-9.697 14-13.5-4.906 0-16.248 17-19 17v1Z"/><path fill="#C7C8CC" id="alv" d="M123 73c-1.747 0-2 .253-2 2l2-2ZM257 73c-1.747 0-2 .253-2 2l2-2Z"/><path fill="#039399" id="AUDd1" d="M37 94c1.947 0 2.636 3 5 3l3-4.5c1.912-3.823 8-9.18 8-13.5l-2-4c-1.346 0-14 17.829-14 19Z"/><path fill="#C7C8CC" id="alv" d="M121 75c-1.238 0-3 .423-3 2 1.238 0 3-.423 3-2ZM254 75l-1 1 1-1Z"/><path fill="#039399" id="AUDd1" d="m419 94-4 4-3-3.5c-1.62-3.24-9-11.115-9-14.5v-1l2-4c2.09 0 14 16.476 14 19Z"/><path fill="#C7C8CC" id="alv" d="m253 76-1 1 1-1Z"/><path fill="#1C8063" id="SSs5" d="m391 92-8 9c0-3.385-7.407-10.907-9.5-13l-3.5-4v-1c1.02 0 5-5.576 5-7h1l15 15v1ZM65 92c1.056 0 8 6.944 8 9l13-17v-1l-5-6c-7.061 0-10.574 14-16 14v1Z"/><path fill="#C7C8CC" id="alv" d="m118 77-1 1 1-1ZM205 77l2 2-2-2ZM252 77l-1 1 1-1ZM117 78c-1.668 0-6 3.099-6 5 1.668 0 6-3.099 6-5ZM251 78l-2 1 2-1Z"/><path fill="#029397" id="AUDd2/3" d="M49 105h1c0-3.901 11-14.245 11-17v-1l-7-8h-1c0 4.32-6.088 9.677-8 13.5L42 97v2l7 6Z"/><path fill="#C7C8CC" id="alv" d="m208 79 3 2c-1.238 0-3-.423-3-2ZM249 79l-2 1 2-1Z"/><path fill="#7BD04A" id="DG-mo" d="m150 109 2 1 35-1c4.419 0 11.183 2.159 15.5 0 2.917-1.458 2.5-4.296 2.5-7l-2-2c-4.746 0-10.26-8.88-14.5-11-19.492-9.746-25.737-12.131-46-2-2.657 1.329-13.5 5.771-13.5 10v2c1.996 0 4.985 2 8 2 0-3.187 6.991-4.745 9.5-6 16.328-8.164 21.697-8.151 38 0 2.896 1.448 12.5 2.654 12.5 7.5 0 1.751-5.411 2.045-6.5 1.5-5.476-2.738-11.854-3-18.5-3-4.511 0-9.758.129-13.5 2-1.108.554-6.5 3.838-6.5 2l-2 4Z"/><path fill="#C7C8CC" id="alv" d="m247 80-1 1 1-1Z"/><path fill="#7BD04A" id="DG-mo" d="M307 109c-1.048 0-3-.473-3 1l-35-1c-4.296 0-11.161 2.169-15.5 0-4.074-2.037-1.5-4.449-1.5-7l1-2c3.433 0 17.162-12.831 21.5-15 13.418-6.71 24.971-5.514 38 1 2.806 1.403 14.5 6.58 14.5 11v2c0 2.273-5.226 2-7 2 0-3.315-10.26-5.88-12.5-7-14.033-7.016-22.188-5.906-36 1-3.954 1.977-9.344 2.187-11.5 6.5-.993 1.985 2.379 2.5 3.5 2.5l11-2c3.658-1.829 9.15-1 13.5-1l16 4c1.712 0 3 2.571 3 4Z"/><path fill="#029397" id="AUDd2/3" d="M415 99c-3.71 0-4.986 5-8 5-5.561 0-6.782-16-12-16v-1c2.91 0 4.802-7 8-7 0 3.385 7.38 11.26 9 14.5l3 3.5v1Z"/><path fill="#C7C8CC" id="alv" d="m212 81 1 1-1-1ZM245 81l-2 1 2-1ZM214 82l1 1-1-1ZM243 82l-2 1 2-1ZM219 83v2l-2-2h2Z"/><path fill="#7DCD4B" id="HPF" d="M219 85v1c1.577 0 2-1.762 2-3h-2v2Z"/><path fill="#7ECD4A" id="FC" d="M217 96h1l1-1 1-1 1-1v-1l1-1 1-1v-1l2-6h-4c0 1.238-.423 3-2 3 0 4.058-2 6.292-2 10ZM237 95l2 1c0-4.242-2-6.596-2-11l-2-2h-3l1 5v1l2 2v1l2 2v1Z"/><path fill="#7DCD4B" id="HPF" d="M237 83v2l-2-2h2Z"/><path fill="#C7C8CC" id="alv" d="M239 83c0 1.747-.253 2-2 2v-2h2Z"/><path fill="#197D63" id="SSs6a" d="m81 107-2 1c-1.778 0-2.816-6-6-6v-1l13-17 6 6v1c-1.712 0-3 2.571-3 4-2.859 0-8 9.612-8 12Z"/><path fill="#C7C8CC" id="alv" d="M111 84c-2.226 0-4 1.774-4 4l4-4Z"/><path fill="#197D63" id="SSs6a" d="m383 102-6 6-12-17v-1l5-6 3.5 4c2.093 2.093 9.5 9.615 9.5 13v1Z"/><path fill="#A8A9AA" id="V3" d="M235 91v1l-3.5-1-4 4c-1.813-.906-1.331-4-4.5-4v-2l3.5-4c3.155-1.578 4.241 3 6.5 3v1l2 2Z"/><path fill="#039398" id="AUDd4" d="M50 105c0 1.577 1.762 2 3 2l12-15v-1c0-.966-2.886-3-4-3 0 2.755-11 13.099-11 17Z"/><path fill="#C7C8CC" id="alv" d="M107 88c-1.577 0-2 1.762-2 3 1.577 0 2-1.762 2-3Z"/><path fill="#65A83D" id="DG-sg" d="m155 102-3 3c0 1.838 5.392-1.446 6.5-2 3.742-1.871 8.989-2 13.5-2 6.646 0 13.024.262 18.5 3 1.089.545 6.5.251 6.5-1.5 0-4.846-9.604-6.052-12.5-7.5-16.303-8.151-21.672-8.164-38 0-2.509 1.255-9.5 2.813-9.5 6l6-1c0-1.55 6.228-2.364 7.5-3 7.256-3.628 16.023-5.989 24-2 1.039.52 6.5.667 6.5 2.5 0 1.819-5.197-.349-5.5-.5l-11 1-9.5 4ZM302 102l2 3-16-4c-4.35 0-9.842-.829-13.5 1l-11 2c-1.121 0-4.493-.515-3.5-2.5 2.156-4.313 7.546-4.523 11.5-6.5 13.812-6.906 21.967-8.016 36-1 2.24 1.12 12.5 3.685 12.5 7l-7-1c0-1.55-6.228-2.364-7.5-3-5.782-2.89-14.045-6.478-21-3-1.312.656-8.5 1.085-8.5 3.5 0 1.828 4.925-.5 5-.5l11.5 1 9.5 4Z"/><path fill="#039398" id="AUDd4" d="m407 106-4 1c0-3.77-12-13.572-12-15v-1l4-3c5.218 0 6.439 16 12 16v2Z"/><path fill="#1A8061" id="SSs6b" d="M93 91c0 1.634-2.635 4-4 4 0-1.429 1.288-4 3-4h1Z"/><path fill="#C7C8CC" id="alv" d="M105 91c-1.747 0-2 .253-2 2 1.747 0 2-.253 2-2Z"/><path fill="#A9AAA8" id="chpl" d="M219 96c0 11.854 16.2 10.1 19 4.5l-1-4.5v-1l-2-2v-1l-3.5-1-4 4c-1.813-.906-1.331-4-4.5-4h-1v1l-1 1-1 1-1 1v1Z"/><path fill="#1A8061" id="SSs6b" d="M377 109v1l-3.5-4c-1.95-1.95-9.5-12.175-9.5-15h1l12 17v1Z"/><path fill="#029398" id="AUDd5" d="M63 121h1c0-6.196 9-14.9 9-19v-1c0-2.056-6.944-9-8-9l-12 15v2l4 2.5c1.317 2.634 6 6.428 6 9.5Z"/><path fill="#A8A9AA" id="V3" d="m222 92-1 1v-1h1Z"/><path fill="#029398" id="AUDd5" d="M403 108c0 .773-9.062 11-10 11-2.073 0-7.226-17-10-17v-1l8-9c0 1.428 12 11.23 12 15v1Z"/><path fill="#C7C8CC" id="alv" d="M103 93c-1.577 0-2 1.762-2 3 1.577 0 2-1.762 2-3Z"/><path fill="#7ECE4A" id="DG-po" d="M143 100c4.364 0 8.259 2 12 2l9.5-4 11-1c.303.151 5.5 2.319 5.5.5 0-1.833-5.461-1.98-6.5-2.5-7.977-3.989-16.744-1.628-24 2-1.272.636-7.5 1.45-7.5 3Z"/><path fill="#A8A9AA" id="V3" d="M237 94v1l-2-2 2 1Z"/><path fill="#7ECE4A" id="DG-po" d="M313 100c-4.078 0-7.622 2-11 2l-9.5-4-11.5-1c-.075 0-5 2.328-5 .5 0-2.415 7.188-2.844 8.5-3.5 6.955-3.478 15.218.11 21 3 1.272.636 7.5 1.45 7.5 3Z"/><path fill="#029297" id="AUDp1" d="M24 130h5c0-10.356 12-25.485 12-31l1-1v-1c-2.364 0-3.053-3-5-3 0 4.36-13 24.396-13 36ZM428 130h4c0-8.364-3.459-18.418-7-25.5L419 94l-4 4v1c0 3.582 13 22.664 13 31Z"/><path fill="#1A8061" id="SSs6b" d="M89 95c-2.859 0-8 9.612-8 12 2.061 0 8-9.945 8-12Z"/><path fill="#C7C8CC" id="alv" d="M101 96c-1.577 0-2 1.762-2 3 1.577 0 2-1.762 2-3Z"/><path fill="#A8A9AA" id="V3" d="m227 135 2 1c0-4.585 4-7.957 4-13 0-4.768 4-7.867 4-12 0-.095-8.915-7 0-7 0-.186 6.281-8 0-8l1 4.5c-2.8 5.6-19 7.354-19-4.5h-1l-1 1c0 2.847 2 6.938 2 7 5.256 0 4.758 7 0 7 0 2.645 4 7.037 4 13l4 11Z"/><path fill="#7DCF4B" id="CA2" d="m97 104-2 4c7.318 0 21.163-9 34-9v-2c-5.009 0-15.595.048-19.5 2-3.326 1.663-7.592 4-11.5 4l-1 1ZM359 103l3 6-7.5-4c-7.745-3.872-18.234-6-27.5-6v-2c5.924 0 14.528-.486 19.5 2 3.622 1.811 8.231 4 12.5 4Z"/><path fill="#039399" id="AUDd1" d="M41 99h1v-1l-1 1Z"/><path fill="#019298" id="AUDp2/3" d="M37 131h1c0-10.093 11-20.577 11-26l-7-6h-1c0 5.515-12 20.644-12 31l8 1Z"/><path fill="#C7C8CC" id="alv" d="m99 99-1 2 1-2Z"/><path fill="#7ECF49" id="CA3" d="M137 113c-1.465 0-4-.109-4 2-10.471 0-23.978 28.761-37.5 22-2.807-1.403-1.43-5.361-2.5-7.5-1.402-2.804-1-6.126-1-9.5 0-4.126 3-8.346 3-12 7.318 0 21.163-9 34-9 1.996 0 4.985 2 8 2l6-1c4.364 0 8.259 2 12 2l-3 3-2 4-1 1h-5l-1 1h-2l-2 1-2 1ZM314 111h1c12.944 0 50 51.098 50 10.5l-3-12.5-7.5-4c-7.745-3.872-18.234-6-27.5-6 0 2.273-5.226 2-7 2l-7-1c-4.078 0-7.622 2-11 2l2 3c1.712 0 3 2.571 3 4v1h6l1 1Z"/><path fill="#019298" id="AUDp2/3" d="M428 130c-3.496 0-5.441 1-9 1 0-3.553-9.365-25-12-25v-2c3.014 0 4.29-5 8-5 0 3.582 13 22.664 13 31Z"/><path fill="#7DCD4B" id="HPF" d="M205 101v1l-2-2 2 1ZM251 101l1 1 1-2-2 1Z"/><path fill="#C7C8CC" id="alv" d="M107 139c-2.741 0-8.7 3.899-10 6.5-.523 1.046.951 3.5-1 3.5 0-3.607-3.424-8.347-5-11.5-1.272-2.544.326-6.347-1-9-3.29-6.582 3-14.941 3-20.5v-1l1-1 4-5v2l-1 1-2 4c0 3.654-3 7.874-3 12 0 3.374-.402 6.696 1 9.5 1.07 2.139-.307 6.097 2.5 7.5 13.522 6.761 27.029-22 37.5-22v1l-1 1-2 1-1 1-1 1-1 1c-1.852 0-8 4.927-8 7l-1 1-1 1-10 9Z"/><path fill="#019399" id="AUDd6a" d="m68 128 3 1 6-14.5c.56-1.119.155-4.5 2-4.5v-2c-1.778 0-2.816-6-6-6 0 4.1-9 12.804-9 19l-1 1v1c3.15 0 1.505 5 5 5ZM388 128l-3 1c0-4.976-3.852-11.203-6-15.5-.559-1.119-.155-4.5-2-4.5v-1l6-6c2.774 0 7.927 17 10 17v2c-1.186 0-1.186 1 0 1v1l-5 5Z"/><path fill="#7ECF4B" id="CA1" d="m98 103-1 1 1-1Z"/><path fill="#FF8D9F" id="MH" d="M217 124h6c0-5.963-4-10.355-4-13l-2.5-1c-6.791 0 .5-.446.5-6-3.285 0-8 5.625-8 9h1l1 1v1l6 9Z"/><path fill="#C8CCC7" id="hbc" d="M219 104c5.256 0 4.758 7 0 7l-2.5-1c-6.791 0 .5-.446.5-6h2ZM240 104l-1 2.5 4 3c.601 1.201-4.678 1.5-6 1.5 0-.095-8.915-7 0-7h3Z"/><path fill="#FF8D9F" id="MH" d="M233 123c1.03 0 2.671 1 6 1 0-1.871 6-6.15 6-9v-1l1-1h1c0-2.994-3.459-9-7-9l-1 2.5 4 3c.601 1.201-4.678 1.5-6 1.5 0 4.133-4 7.232-4 12Z"/><path fill="#039397" id="AUDp4" d="m38 131 5 1c0-3.742 6.261-23 10-23v-2c-1.238 0-3-.423-3-2h-1c0 5.423-11 15.907-11 26Z"/><path fill="#A8AAAA" id="VL" d="m94 106-1 1 1-1Z"/><path fill="#039397" id="AUDp4" d="m419 131-6 1c0-3.949-6.279-24-10-24v-1l4-1c2.635 0 12 21.447 12 25Z"/><path fill="#1A8061" id="SSs6b" d="M79 110h1c1.473 0 1-1.952 1-3l-2 1v2Z"/><path fill="#A8AAAA" id="VL" d="M111 211c2.011 0 3.989 1 6 1 0-12.224-10-24.342-10-33l-2-1 2 9.5c-1.275 2.55-4.613-4.226-5-5-3.35-6.701-2.674-15.348-6-22-.57-1.14-.263-6.5 1-6.5l-1-5c0-3.607-3.424-8.347-5-11.5-1.272-2.544.326-6.347-1-9-3.29-6.582 3-14.941 3-20.5-3.502 0-4.647 13-8 13v3l-1 2v3l2 14c1.15 0 1.508 4.516 2 5.5l8 15c.825 1.65.268 7.5-2 7.5 0 5.221 9 16.277 9 25 0 4.294 7 12.83 7 15h1ZM339 211c1.384 0 1.123 3.189 3.5 2 1.619-.809 1.471-2 3.5-2l3-2.5c1.808-3.615 4-9.284 4-13.5 0-6.273 10-20.655 10-24-8.86 0 3.81-19.119 5-21.5.492-.984.851-5.5 2-5.5 0-5.613 2-10.781 2-17v-3c-.365 0-6.727-16-9-16l3 7.5c2.383 4.767-1.109 22.219-3 26-.541 1.082-2.209 8.5-3 8.5 0 2.124-1 4.436-1 6 1.265 0 1.604 6.292 1 7.5l-6 20c-.395.79-3.788 6.425-5 4l2-8.5h-2c0 11.155-10 20.096-10 32Z"/><path fill="#039199" id="AUDp5" d="m413 132-16 1v-1c0-1.294-2.793-9-4-9v-4c.938 0 10-10.227 10-11 3.721 0 10 20.051 10 24ZM60 132l-1 1-16-1c0-3.742 6.261-23 10-23l4 2.5c1.317 2.634 6 6.428 6 9.5v2c0 2.675-3 5.922-3 9Z"/><path fill="#7DCD4B" id="HPF" d="M149 110h3l-2-1-1 1ZM304 110h3v-1c-1.048 0-3-.473-3 1Z"/><path fill="#019398" id="AUDd6b" d="M384 129h1c0-4.976-3.852-11.203-6-15.5-.559-1.119-.155-4.5-2-4.5v1c0 5.538 5 9.48 5 15l1 2v2h1ZM72 130h1c0-1.048-.473-3 1-3v-2l1-1c0-5.11 5-9.252 5-14h-1c-1.845 0-1.44 3.381-2 4.5L71 129l1 1Z"/><path fill="#C7C8CC" id="alv" d="M143 111h1v-1l-1 1ZM313 110l1 1-1-1ZM139 112h2v-1l-2 1Z"/><path fill="#FE8083" id="LGd-sh" d="M127 121c0 3.07-6 5.349-6 9l3.5 3c4.655-2.328 5.465-14 12.5-14l1-1 1-1h1l1-1h1l1-1h2l1-1h1c1.577 0 2-1.762 2-3h-5c0 1.473-1.952 1-3 1l-2 1-2 1-1 1h-1l-2 1-1 1-2 1-1 1-1 1-1 1Z"/><path fill="#FE7F84" id="LGd-co" d="M121 133c0 2.085 8.048 13 10 13 2.778 0 17.844-18 18-18 0-5.846 1-11.452 1-17h-1c0 1.238-.423 3-2 3 0 1.284 3.47 2.561 2 5.5-2.9 5.799-12 7.962-12-.5-7.035 0-7.845 11.672-12.5 14l-3.5-3v3Z"/><path fill="#FE909D" id="LP" d="M171 131c4.725 0 9.879 1 14 1 6.8 0 5-3.769 5-8l-3-6c-1.037 0-4-6.169-4-7h-33c0 5.548-1 11.154-1 17v6c2.647 0 6.175 3.662 9.5 2 4.709-2.354 5.896-5 12.5-5Z"/><path fill="#FF6F80" id="TH" d="m185 111 2 7c-1.037 0-4-6.169-4-7h2Z"/><path fill="#FF64FF" id="MB" d="M199 131h2c3.454 0 3.835-3 6-3 0-5.07 4-10.017 4-13v-1l-1-1h-1c-7.601 0-15.542-2-24-2l2 7 3 6 9 7ZM256 131h1l8-5v-1l1-1 1-1 3-6 1-2v-4c-8.551 0-16.182 2-24 2h-1l-1 1v1c3.722 0 4 9.25 4 12 2.35 0 3.056 4 7 4Z"/><path fill="#FF6F80" id="TH" d="m274 111-3 3v-3h3Z"/><path fill="#FE909D" id="LP" d="M285 131c6.821 0 7.631 2.566 12.5 5l9.5-1v-8c0-4.925-1-10.521-1-16h-32l-3 3v1l-1 2-3 6-1 1-1 1v1c0 3.876 2.144 6 6 6 4.121 0 9.275-1 14-1Z"/><path fill="#FE7F84" id="LGd-co" d="m336 133-2 3.5c-1.66 3.321-8 5.595-8 9.5-4.063 0-18.543-19-19-19 0-4.925-1-10.521-1-16h1c0 2.215 2 1.519 2 3 0 1.317-3.356 1.788-2 4.5 1.796 3.592 8.782 10.436 12 4 2.169-4.338-5-4.824-5-7.5 5.5 0 17.83 18 18.5 18l2.5-2 1 2Z"/><path fill="#FE8083" id="LGd-sh" d="M328 119c0 2.73 7 6.252 7 12l-2.5 2c-.67 0-13-18-18.5-18h-3l-1-1h-1c0-1.481-2-.785-2-3 3.894 0 6.605 2 10 2h1l1 1h1l1 1h1l2 2h1l2 2h1Z"/><path fill="#C7C8CC" id="alv" d="M137 113h2v-1l-2 1ZM135 115h1l1-1v-1c-1.465 0-4-.109-4 2h2Z"/><path fill="#C8CCC7" id="hbc" d="m210 113 1 1-1-1ZM246 113l-1 1 1-1Z"/><path fill="#FE7F84" id="LGd-co" d="m146 114-1 1 1-1Z"/><path fill="#FD8082" id="LGd-ip" d="m138 118-1 1c0 8.462 9.1 6.299 12 .5 1.47-2.939-2-4.216-2-5.5h-1l-1 1h-2l-1 1h-1l-1 1h-1l-1 1ZM311 115h3c0 2.676 7.169 3.162 5 7.5-3.218 6.436-10.204-.408-12-4-1.356-2.712 2-3.183 2-4.5h1l1 1Z"/><path fill="#FE7F84" id="LGd-co" d="m310 114 1 1-1-1ZM143 115l-1 1 1-1Z"/><path fill="#FF8F9D" id="LH" d="M207 128c0 1.622-.461 5 2 5 5.546 0 8-1.812 8-9l-6-9c0 2.983-4 7.93-4 13ZM248 133l-1 1c-5.323 0-8-5.159-8-10 0-1.871 6-6.15 6-9 3.722 0 4 9.25 4 12v5l-1 1Z"/><path fill="#FF6F80" id="TH" d="m271 115-1 2 1-2Z"/><path fill="#FE7F84" id="LGd-co" d="m141 116-1 1 1-1ZM139 117l-1 1 1-1Z"/><path fill="#CAC7CB" id="fiber tracts" d="m325 117 2 2-2-2ZM130 118l-1 1 1-1Z"/><path fill="#FE7F84" id="LGd-co" d="m138 118-1 1 1-1Z"/><path fill="#CAC7CB" id="fiber tracts" d="m129 119-1 1 1-1Z"/><path fill="#CAC7CB" id="fiber tracts" fill-rule="evenodd" d="M328 187c0 1.988-3.315 2.408-4.5 3l-6.5 7.5c-8.242 16.484-8.641 24.07-27.5 33.5-2.815 1.407-7.383 9.808-3 12 2.981 1.49 14.156-7.156 16.5-9.5 8.364-8.364 19.7-20.4 26-33 1.471-2.943 6.167-13.5-1-13.5m-38 59-4 3c0-2.971-3-4.768-3-7l-2-3v-1c1.473 0 1-1.952 1-3l7-7.5c6.378-6.378 19-15.516 19-24.5 2.177 0 4-4.336 4-6l1-1 1-1 12-9 1-1c2.215 0 1.519-2 3-2 1.283 0 4-5.666 4-7l1-4c1.429 0 4-3.939 4-5 6.64 0 3.849-30-2-30 0-1.145.579-4-1-4l-1-2c0-5.748-7-9.27-7-12l11 11c0 2.594 6 10.921 6 20.5V164c0 1.145-.579 4 1 4 0 2.506-.465 11 3 11 0 11.155-10 20.096-10 32l-12 9c-3.379 0-5.61 5-9 5-6.237 0 9.674-17.847 11-20.5l10-24c.594-1.188-.018-6.5 2.5-6.5 1.244 0 1.5 4.452 1.5 5.5 0 5.493.284 12.432-2 17-3.925 7.85-12.436 14.873-16 22l-7 6.5-21 16-1 1-1 1-5 3Z"/><path fill="#CAC7CB" id="fiber tracts" d="m128 120-1 1 1-1Z"/><path fill="#019396" id="AUDp6a" d="m64 121-1 1v-1h1Z"/><path fill="#CAC7CB" id="fiber tracts" fill-rule="evenodd" d="m127 187-3 2.5c0 12.082 18.381 33.381 27.5 42.5 3.142 3.142 10.146 10 14.5 10 .861 0 4.036 2.427 5 .5 2.308-4.617-2.568-11.534-6.5-13.5-7.573-3.787-15.686-8.871-19.5-16.5-3.582-7.163-6.463-25.5-18-25.5m-13-12c0 26.023 2.617 17.735 13 38.5l9.5 9.5 3.5 1.5c1.028-2.056-13.292-20.583-15-24-1.94-3.88-7.804-25.5-11-25.5m53 72 3 1c0-2.572 4-4.883 4-7l1-2v-3l-1-1-8-9.5c-4.264-8.528-18-11.765-18-22.5l-5-7c0-4.105-13-6.233-13-11-1.238 0-3-.423-3-2-2.275 0-4-3.756-4-6l-2-6c-1.366 0-4-2.366-4-4-5.493 0-3.084-30 2-30l2-4v-3c0-3.651 6-5.93 6-9-1.852 0-8 4.927-8 7l-1 1-1 1c0 5.495-6 10.633-6 17v12c1.566 0 1.566 5 0 5 0 3.976.937 15-4 15 0 8.658 10 20.776 10 33l12 8h1l1 1c5.162 0 18.158 13.329 23.5 16l6.5 6c1.417 0 6 2.383 6 4Z"/><path fill="#019396" id="AUDp6a" d="M393 121c-1.186 0-1.186 1 0 1v-1ZM68 128c0 4.372-8 4.028-8 4 0-3.078 3-6.325 3-9 3.15 0 1.505 5 5 5Z"/><path fill="#FE90FE" id="PRC" d="m239 141-4 2-4-5-2-1v-1c0-4.585 4-7.957 4-13 1.03 0 2.671 1 6 1 0 4.841 2.677 10 8 10v1h-1l-1 1-1 1-3 2-1 1-1 1Z"/><path fill="#FF6F80" id="TH" d="m267 123-1 1 1-1Z"/><path fill="#019396" id="AUDp6a" d="M388 128c0 4.202 6.279 4 9 4 0-1.294-2.793-9-4-9l-5 5Z"/><path fill="#C9C9CA" id="scwm" d="m75 124-1 1 1-1Z"/><path fill="#C7CACC" id="ccs" d="m85 124-1 2 1-2Z"/><path fill="#FF6F80" id="TH" d="m185 132 3 6c0-6.187 6.028-7 11-7l-9-7c0 4.231 1.8 8-5 8Z"/><path fill="#FE90FE" id="PRC" d="m215 139 6 4 5-5 1-1v-2l-4-11h-6c0 7.188-2.454 9-8 9l3 4 3 2Z"/><path fill="#FF6F80" id="TH" d="m266 124-1 1 1-1Z"/><path fill="#C9C9CA" id="scwm" d="m382 125 1 2-1-2Z"/><path fill="#FF6F80" id="TH" d="m271 132-2 6-2.5-5c-3.356-1.678-5.38-2-9.5-2l8-5c0 3.876 2.144 6 6 6Z"/><path fill="#C9C9CA" id="scwm" d="M73 130h1v-3c-1.473 0-1 1.952-1 3Z"/><path fill="#FF6F80" id="TH" d="M247 134v1c1.048 0 9-3.08 9-4-3.944 0-4.65-4-7-4v2c1.399 0 1.399 2 0 2v1l-1 1-1 1ZM327 153c-3.454 0-3.835 3-6 3v-6.5c-1.386-2.773-11.133-14.5-14-14.5v-8c.457 0 14.937 19 19 19l1 2v5Z"/><path fill="#98D5F9" id="CP" d="m367 198-1 1h-7.5l-5.5-4c0-6.273 10-20.655 10-24 5.635 0 7-21.7 7-27 0-5.613 2-10.781 2-17l9 18 2 7 2 5.5c1.906 3.811 0 11.09 0 14.5l-1 4-3 6.5c-1.811 3.621-9.385 15.5-14 15.5Z"/><path fill="#019397" id="AUDv6a" d="M55 153h10c0-8.158 6-16.141 6-24l-3-1c0 4.372-8 4.028-8 4l-1 1-4 20Z"/><path fill="#FF6F80" id="TH" d="M129 153c2.518 0 4.286 2 6 2v-5.5c1.791-3.582 11.247-14.5 14-14.5v-7c-.156 0-15.222 18-18 18l-2 2v5ZM209 133l3 4c-.755 0-11-5.937-11-6 3.454 0 3.835-3 6-3 0 1.622-.461 5 2 5Z"/><path fill="#019397" id="AUDv6a" d="M391 153h10c0-7.124-4-14.045-4-20v-1c-2.721 0-9 .202-9-4l-3 1c0 6.815 6 15.548 6 24Z"/><path fill="#019198" id="AUDv6b" d="M65 153h2c0-8.108 5-14.719 5-22v-1l-1-1c0 7.859-6 15.842-6 24Z"/><path fill="#98D5F9" id="CP" d="m103 196-5.5 3c-3.503 1.752-6.921-2-9.5-2-3.13 0-15-17.585-15-21l-2-3c0-7.505 2-14.227 2-21l2-7 9-16 2 14c0 5.481 1.66 28 8 28 0 5.221 9 16.277 9 25Z"/><path fill="#FE90FE" id="PRC" d="M249 129c1.399 0 1.399 2 0 2v-2Z"/><path fill="#C9C9CA" id="scwm" d="m383 130 1 1v-2h-1v1Z"/><path fill="#019198" id="AUDv6b" d="M389 153h2c0-8.452-6-17.185-6-24h-1v2c1.149 0 1.508 4.516 2 5.5 2.426 4.852 3 10.622 3 16.5Z"/><path fill="#019099" id="AUDv1" d="M22 151h5c0-7.159 2-14.24 2-21h-5c0 6.674-2 13.714-2 21Z"/><path fill="#029198" id="AUDv2/3" d="M27 151h9c0-6.168 1-13.138 1-20l-8-1c0 6.76-2 13.841-2 21Z"/><path fill="#C9C9CA" id="scwm" d="m73 130-1 1v-1h1Z"/><path fill="#CCC8CA" id="ar" d="M67 175v1c2.59 0 2-3.814 2-5.5l1-18.5c0-3.862 3-8.51 3-12 0-2.49 5.661-10 1-10h-1l-1 1c0 7.281-5 13.892-5 22v22ZM389 153v22c-2.461 0-2-3.378-2-5 0-6.102-1-12.479-1-18 0-2.154-.919-13-3-13 0-2.789-5.598-9 0-9l1 1c1.149 0 1.508 4.516 2 5.5 2.426 4.852 3 10.622 3 16.5Z"/><path fill="#029198" id="AUDv2/3" d="M421 151h8l-1-21c-3.496 0-5.441 1-9 1 0 6.657 2 12.722 2 20Z"/><path fill="#019099" id="AUDv1" d="M429 151h5c0-5.259-1-10.826-1-15.5 0-1.278.665-5.5-1-5.5h-4l1 21Z"/><path fill="#029197" id="AUDv4" d="M36 151h5c0-6.896 2-12.56 2-19l-5-1h-1c0 6.862-1 13.832-1 20Z"/><path fill="#FF8E9C" id="PO" d="M188 177c-2.765 0-5.165 2-7 2l-4-3-12-12.5-16-28.5v-1c2.647 0 6.175 3.662 9.5 2 4.709-2.354 5.896-5 12.5-5 0 2.463 9.312 16.812 11.5 19l3.5 5c0 3.701-3.026 11.448-1 15.5l3 6.5Z"/><path fill="#FD8F9C" id="Eth" d="m188 138-2 17-3.5-5c-2.188-2.188-11.5-16.537-11.5-19 4.725 0 9.879 1 14 1l3 6Z"/><path fill="#FC909E" id="PF" fill-rule="evenodd" d="M209 144c0 2.232-3 4.029-3 7l1.5 5c11.063 11.063 12.738-12 1.5-12m-21 33c5.029 0 13.333 4.583 18.5 2 3.071-1.535 6.805-2 10.5-2l2-2c0-4.213 1-8.782 1-13.5 0-1.098-.534-3.5 1-3.5v-2c-1.684 0-1-4.679-1-6v-3c-1.951 0-.477-2.454-1-3.5l-4-4.5-3-2c-.755 0-11-5.937-11-6h-2c-4.972 0-11 .813-11 7l-2 17c0 3.701-3.026 11.448-1 15.5l3 6.5ZM245 143l-5 5.5v5c0 12.685 16.711.711 8-8l-3-2.5m-5 34c4.968 0 13.542 4.479 18.5 2 3.071-1.535 6.805-2 10.5-2l2-4.5V155c-1.925 0-2-14.008-2-17l-2.5-5c-3.356-1.678-5.38-2-9.5-2h-1c0 .92-7.952 4-9 4h-1l-1 1-1 1-3 2-1 1-1 1c0 .698-2.714 7-3 7v9l1 18c1.238 0 3 .423 3 2Z"/><path fill="#FD8F9C" id="Eth" d="M269 138c0 2.992.075 17 2 17 0-5.807 14-16.78 14-24-4.725 0-9.879 1-14 1l-2 6Z"/><path fill="#FF8E9C" id="PO" d="M269 177c2.518 0 4.286 2 6 2l5-3 12-13.5c2.326-2.326 15-24.828 15-27.5l-9.5 1c-4.869-2.434-5.679-5-12.5-5 0 7.22-14 18.193-14 24v17.5l-2 4.5Z"/><path fill="#029197" id="AUDv4" d="M416 151h5c0-7.278-2-13.343-2-20l-6 1c0 5.773 2 12.316 2 19h1Z"/><path fill="#019098" id="AUDv5" d="M41 151c4.504 0 9.733 2 14 2l4-20-16-1c0 6.44-2 12.104-2 19Z"/><path fill="#FE90FE" id="PRC" d="m249 132-1 1 1-1Z"/><path fill="#019098" id="AUDv5" d="M415 151c-4.504 0-9.733 2-14 2 0-7.124-4-14.045-4-20l16-1c0 5.773 2 12.316 2 19Z"/><path fill="#FF909E" id="IGL" d="m131 146-2 2c-4.416 0-6.886-11-10-11l2-4c0 2.085 8.048 13 10 13ZM326 146l1 2c2.34 0 10-8.907 10-11 0-1.145.579-4-1-4l-2 3.5c-1.66 3.321-8 5.595-8 9.5Z"/><path fill="#FF7E83" id="VPM" d="m161 181 2 1c4.925 0 8.368-6 14-6l-12-12.5-16-28.5c-2.753 0-12.209 10.918-14 14.5v7.5c0 7.292 26 19.905 26 24Z"/><path fill="#FF6F80" id="TH" d="m246 135-1 1 1-1Z"/><path fill="#FF7E83" id="VPM" d="M293 181h2c2.431 0 5.064-5.282 6.5-6 4.971-2.486 19.5-11.647 19.5-18v-7.5c-1.386-2.773-11.133-14.5-14-14.5 0 2.672-12.674 25.174-15 27.5L280 176c5.177 0 8.011 5 13 5Z"/><path fill="#FF6F80" id="TH" d="m245 136-1 1 1-1Z"/><path fill="#FF8E9F" id="LGv" d="M117 167h4c7.518 0 8-7.474 8-14v-5c-4.416 0-6.886-11-10-11-5.084 0-7.493 30-2 30Z"/><path fill="#FE7F83" id="SPA" d="M227 196c0-2.373 2.284 0 3 0l3-1c0-2.683 3.523-10 7-10l-1-7-2-3-1-18c-1.984 0-3.945 3.278-6.5 2l-.5-21-2-1-1 1 2 3.5v16c-1.621 3.241-4.871.5-7 .5-1.534 0-1 2.402-1 3.5 0 4.718-1 9.287-1 13.5 0 1.238-.423 3-2 3v7c4.095 0 5.439 10 7 10l3 1ZM229 138h2l-2-1v1Z"/><path fill="#FF8E9F" id="LGv" d="M335 167h4c6.64 0 3.849-30-2-30 0 2.093-7.66 11-10 11v5c2.207 0 .338 5.176 1 6.5 2.357 4.713.345 7.5 7 7.5Z"/><path fill="#FE8F9E" id="PVT" d="M221 156v2c2.129 0 5.379 2.741 7-.5v-16l-2-3.5-5 5-1 4v3c1.684 0 1 4.679 1 6ZM236 148v9c-1.984 0-3.945 3.278-6.5 2l-.5-21h2l4 5 1 5Z"/><path fill="#CBC8CB" id="fi" d="m105 178 2 1c4.937 0 4-11.024 4-15v-17l-4-8c-2.741 0-8.7 3.899-10 6.5-.523 1.046.951 3.5-1 3.5l1 5c0 8.966 8 15.728 8 24Z"/><path fill="#FF6F80" id="TH" d="m221 143-1 4c-1.951 0-.477-2.454-1-3.5l-4-4.5 6 4ZM241 139l-1 1 1-1Z"/><path fill="#CBC8CB" id="fi" d="M349 179h2c0-7.926 8-14.604 8-23 0-1.564 1-3.876 1-6 0-4.278-5.09-11-10-11-5.178 0-4 24.202-4 29 0 2.506-.465 11 3 11Z"/><path fill="#C7CACC" id="ccs" d="M383 152h3c0-2.154-.919-13-3-13 0 1.623-.005 6-2 6l2 7ZM70 152h3l2-7c0-.671-1.328-5-2-5 0 3.49-3 8.138-3 12Z"/><path fill="#FF6F80" id="TH" d="m240 140-1 1 1-1ZM235 143l1 5c.286 0 3-6.302 3-7l-4 2Z"/><path fill="#CBC9C7" id="or" d="M86 143c1.15 0 1.508 4.516 2 5.5l8 15c.825 1.65.268 7.5-2 7.5-6.34 0-8-22.519-8-28Z"/><path fill="#C7CAC9" id="fr" d="m245 143-5 5.5v5c0 12.685 16.711.711 8-8l-3-2.5ZM209 144c0 2.232-3 4.029-3 7l1.5 5c11.063 11.063 12.738-12 1.5-12Z"/><path fill="#CBC9C7" id="or" d="M370 144c-1.149 0-1.508 4.516-2 5.5-1.19 2.381-13.86 21.5-5 21.5 5.635 0 7-21.7 7-27Z"/><path fill="#FF6F80" id="TH" d="M220 150c1.684 0 1 4.679 1 6-1.684 0-1-4.679-1-6Z"/><path fill="#15B0B3" id="TEa1" d="M31 175c-2.25 0-3.376 2-5 2-1.15 0-1.508-4.516-2-5.5-2.742-5.484-2-13.956-2-20.5h5c0 2.764.941 17.382 2 19.5l2 4.5Z"/><path fill="#16AFB3" id="TEa2/3" d="m40 174-9 1-2-4.5c-1.059-2.118-2-16.736-2-19.5h9c0 8.491 4 17.811 4 23Z"/><path fill="#15B0B2" id="TEa4" d="M40 174h1v-23h-5c0 8.491 4 17.811 4 23Z"/><path fill="#15AFB3" id="TEa5" d="M42 174h12l1-21c-4.267 0-9.496-2-14-2v23h1ZM402 174h13l1-23h-1c-4.504 0-9.733 2-14 2 0 6.445 1 13.948 1 21Z"/><path fill="#15B0B2" id="TEa4" d="M415 174h2c0-7.889 4-14.683 4-23h-5l-1 23Z"/><path fill="#16AFB3" id="TEa2/3" d="M425 175h1c0-7.864 3-15.537 3-24h-8c0 8.317-4 15.111-4 23l8 1Z"/><path fill="#15B0B3" id="TEa1" d="m426 175 4 2c3.59 0 4-21.635 4-26h-5c0 8.463-3 16.136-3 24Z"/><path fill="#C8CBCC" id="ec" d="M67 176v2c2.618 0 1.65-3 4-3v-2c0-7.505 2-14.227 2-21h-3l-1 18.5c0 1.686.59 5.5-2 5.5ZM389 175v3l-3-3c0-1.048.473-3-1-3 0-3.41 1.906-10.689 0-14.5l-2-5.5h3c0 5.521 1 11.898 1 18 0 1.622-.461 5 2 5Z"/><path fill="#15AFB2" id="TEa6a" d="M55 175h11l-1-22H55l-1 21 1 1Z"/><path fill="#16B0B2" id="TEa6b" d="M66 175h1v-22h-2l1 22Z"/><path fill="#CCC8CA" id="ar" d="M125 176h2c1.423 0 2.415-6 6-6 0-1.976-2.682-13 2-13v-2c-1.714 0-3.482-2-6-2 0 6.526-.482 14-8 14l1 4c5.232 0 3 .548 3 5ZM329 176h3l-2-2.5c-2.08-4.16 4.289-2.5 5-2.5v-4c-6.655 0-4.643-2.787-7-7.5-.662-1.324 1.207-6.5-1-6.5-3.454 0-3.835 3-6 3v1c4.443 0 3 10.194 3 13 2.229 0 5 3.812 5 6Z"/><path fill="#16B0B2" id="TEa6b" d="M389 175h1l1-22h-2v22Z"/><path fill="#15AFB2" id="TEa6a" d="M390 175h12v-1c0-7.052-1-14.555-1-21h-10l-1 22Z"/><path fill="#A9AAA8" id="chpl" d="M97 154c-1.263 0-1.57 5.36-1 6.5 3.326 6.652 2.65 15.299 6 22 .387.774 3.725 7.55 5 5l-2-9.5c0-8.272-8-15.034-8-24ZM359 156c1.265 0 1.604 6.292 1 7.5l-6 20c-.395.79-3.788 6.425-5 4l2-8.5c0-7.926 8-14.604 8-23Z"/><path fill="#FD8084" id="VPL" d="M155 182c0-1.457 4.377 0 6 0v-1c0-4.095-26-16.708-26-24-4.682 0-2 11.024-2 13 0 1.701 15.513 12 18 12h4ZM301 182h4c5.33 0 14.834-11 18-11l1-1c0-2.806 1.443-13-3-13 0 6.353-14.529 15.514-19.5 18-1.436.718-4.069 6-6.5 6l1 1c1.424 0 5-1.762 5 0Z"/><path fill="#FF6F80" id="TH" d="M121 171h1l-1-4h-4c0 1.634 2.634 4 4 4ZM335 171v1c1.429 0 4-3.939 4-5h-4v4Z"/><path fill="#FD8F9F" id="RT" d="m125 176-2 1-2-6h1c5.232 0 3 .548 3 5Z"/><path fill="#F0483B" id="ZI" d="m164 209 4 1 7.5 3c3.005 0 5.518-.241 8 1 5.633 2.817 7.338-4.831 3-7-5.217-2.609-9.799-8.799-14.5-13.5l-5-3.5c-1.347 0-8-3.438-8-5h-1c-1.176 0-7-2.114-7-3-2.487 0-18-10.299-18-12-3.585 0-4.577 6-6 6v3l3 6c0 4.767 13 6.895 13 11 3.299 0 14.149 7.649 16.5 10l4.5 3Z"/><path fill="#CCC8CA" id="ar" d="m324 170-1 1 1-1Z"/><path fill="#F0483B" id="ZI" d="m289 210-2 1c-4.38 0-10.703 3-15.5 3-1.7 0-5.785-.929-4.5-3.5l14-13.5 2-2 4-4h1l1-1c1.408 0 5-1.197 5-3 1.465 0 4 .109 4-2h1l6-3c5.33 0 14.834-11 18-11l1-1c2.229 0 5 3.812 5 6v4c-1.638 0-2 3.576-2 5l-1 1-12 9-1 1-1 1c-1.654 0-9 4.228-9 6-1.238 0-3 .423-3 2h-1c-1.238 0-3 .423-3 2-1.238 0-3 .423-3 2h-3l-1 1Z"/><path fill="#FD8F9F" id="RT" d="M332 176h2l1-4v-1c-.711 0-7.08-1.66-5 2.5l2 2.5Z"/><path fill="#97D6F9" id="STR" d="m384 176 2 1v-2c0-1.048.473-3-1-3l-1 4ZM71 176h2l-2-3v3Z"/><path fill="#0D9F91" id="ECT2/3" d="M35 192c4.364 0 8.259 2 12 2 0-4.44-5-13.66-5-20h-2l-9 1c0 2.974 4 9.124 4 17Z"/><path fill="#0D9E90" id="ECT5" d="M47 194c4.671 0 8.806 3 13 3 0-8.145-5-13.45-5-22l-1-1H42c0 6.34 5 15.56 5 20Z"/><path fill="#CACCCB" id="opt" d="m318 225 7-6.5c3.564-7.127 12.075-14.15 16-22 2.284-4.568 2-11.507 2-17 0-1.048-.256-5.5-1.5-5.5-2.518 0-1.906 5.312-2.5 6.5l-10 24c-1.326 2.653-17.237 20.5-11 20.5Z"/><path fill="#0D9E90" id="ECT5" d="m410 194-13 2c0-8.196 5-13.187 5-21v-1h13l-5 20Z"/><path fill="#0D9F91" id="ECT2/3" d="M422 192c-4.411 0-8.371 2-12 2l5-20h2l8 1c0 4.057-3 9.51-3 16v1Z"/><path fill="#0D9F90" id="ECT1" d="M27 191c2.707 0 5.903 1 8 1 0-7.876-4-14.026-4-17-2.25 0-3.376 2-5 2l2 2.5-1 11.5Z"/><path fill="#0E9F91" id="ECT6a" d="M62 197h1c0-1.621 2.379-4 4-4v-15c-1.473 0-1-1.952-1-3H55c0 8.55 5 13.855 5 22h2Z"/><path fill="#0E9F90" id="ECT6b" d="M67 176v2c-1.473 0-1-1.952-1-3h1v1Z"/><path fill="#C8C9CB" id="amc" d="m79 227-3 1c0-7.806-.75-16.999-4-23.5L68 194c0-1.145.58-4-1-4v-12c2.618 0 1.65-3 4-3v1c0 5.758-3.846 12.808-1 18.5 3.284 6.567 9 25.14 9 32.5Z"/><path fill="#CACCCB" id="opt" d="M114 175c0 26.023 2.617 17.735 13 38.5l9.5 9.5 3.5 1.5c1.028-2.056-13.292-20.583-15-24-1.94-3.88-7.804-25.5-11-25.5Z"/><path fill="#FF6F80" id="TH" d="M217 177v1c1.577 0 2-1.762 2-3l-2 2ZM240 177l-1 1-2-3c1.238 0 3 .423 3 2Z"/><path fill="#C8C9CB" id="amc" d="M378 228h2c0-9.129 2.183-18.867 6-26.5.567-1.134.546-6.5 2-6.5l1-2v-15l-3-3v2l1 14.5c-4.112 8.224-9 26.875-9 36.5Z"/><path fill="#0E9F90" id="ECT6b" d="M389 178v13c1.801 0 1-13.842 1-16h-1v3Z"/><path fill="#0E9F91" id="ECT6a" d="M395 197h1l1-1c0-8.196 5-13.187 5-21h-12c0 2.158.801 16-1 16v3c1.811 0 4-.495 4 3h2Z"/><path fill="#0D9F90" id="ECT1" d="M422 191h7l-1-9.5 2-4.5-4-2h-1c0 4.057-3 9.51-3 16Z"/><path fill="#90EB8D" id="LA" d="M79 233c0 1.424.362 5 2 5 0-7.468 5.793-17 14-17 0-3.59 6.743-4 10-4l-1-2-3-3.5L88 197c-3.13 0-15-17.585-15-21h-2c0 5.758-3.846 12.808-1 18.5 3.284 6.567 9 25.14 9 32.5v6Z"/><path fill="#FF6F80" id="TH" d="M127 179v4c-2.275 0-4-3.756-4-6l2-1h2v3Z"/><path fill="#FF7F82" id="VPLpc" d="M171 187c4.875 0 9.599 2 15 2l-5-10-4-3c-5.632 0-9.075 6-14 6l3 3h1l1 1h1l1 1h1ZM285 187h1l1-1h1l1-1h2l1-1 1-1v-2c-4.989 0-7.823-5-13-5l-5 3-4 10c5.128 0 9.451-2 14-2Z"/><path fill="#FF6F80" id="TH" d="M329 180c1.473 0 1 1.952 1 3 1.283 0 4-5.666 4-7h-5v4Z"/><path fill="#90EB8D" id="LA" d="M377 233c0 1.145.579 4-1 4 0-6.193-8.302-17-15-17 0-2.869-7.658-3-10-3l2-4c2.576 0 13-11.645 13-14l1-1c4.615 0 12.189-11.879 14-15.5l3-6.5 2 1 1 14.5c-4.112 8.224-9 26.875-9 36.5l-1 5Z"/><path fill="#FE8082" id="VPMpc" d="M186 189c7.892 0 14.917 4 23 4 1.977 0 8-6.023 8-8v-8c-3.695 0-7.429.465-10.5 2-5.167 2.583-13.471-2-18.5-2-2.765 0-5.165 2-7 2l5 10ZM271 189c-8.333 0-15.424 4-24 4 0-2.127-7-4.367-7-8l-1-7 1-1c4.968 0 13.542 4.479 18.5 2 3.071-1.535 6.805-2 10.5-2 2.518 0 4.286 2 6 2l-4 10Z"/><path fill="#FD8F9E" id="SubG" d="M127 183c0 1.577 1.762 2 3 2l-3-6v4ZM330 183c-1.481 0-.785 2-3 2 0-1.424.362-5 2-5 1.473 0 1 1.952 1 3Z"/><path fill="#CACCC8" id="ml" d="M170 187h1l2 1.5-4 .5-10-4h-1l-3-3c0-1.457 4.377 0 6 0l5 3h1l1 1h1l1 1Z"/><path fill="#FF6F80" id="TH" d="m163 182 3 3-5-3v-1l2 1ZM296 182c0 1.473-1.952 1-3 1v-2h2l1 1Z"/><path fill="#CACCC8" id="ml" d="M285 187h1l1-1h1l1-1h2l1-1 1-1c1.048 0 3 .473 3-1 1.424 0 5-1.762 5 0l-2 3h-1l-4 2c-3.942 0-9 4.689-9 0Z"/><path fill="#FF6F80" id="TH" d="m155 182 3 3c-1.176 0-7-2.114-7-3h4ZM305 182l-6 3 2-3h4ZM293 183l-1 1 1-1ZM292 184l-1 1 1-1ZM212 200l3 1c0-1.747-6-4.96-6-8-8.083 0-15.108-4-23-4-5.401 0-10.125-2-15-2l2 1.5-4 .5-10-4c0 1.562 6.653 5 8 5 .969 0 7 1.147 7 2l5 1 4.5 2c1.423.712 26.536 5 28.5 5ZM167 185l1 1-1-1Z"/><path fill="#FF7F84" id="SPFm" d="M218 202h2l3-3 1-1v-3c-1.561 0-2.905-10-7-10 0 1.977-6.023 8-8 8 0 3.04 6 6.253 6 8 1.048 0 3-.473 3 1ZM236 202h3c0-1.473 1.952-1 3-1l1-1c0-2.367 4-4.032 4-7 0-2.127-7-4.367-7-8-3.477 0-7 7.317-7 10v4l3 3Z"/><path fill="#FF6F80" id="TH" d="m289 185-1 1 1-1ZM298 185l-4 2c1.465 0 4 .109 4-2Z"/><path fill="#FD8F9E" id="SubG" d="m327 185-1 1 1-1Z"/><path fill="#FF6F80" id="TH" d="m169 186 1 1-1-1ZM287 186l-1 1 1-1Z"/><path fill="#CCC" d="m127 187-3 2.5c0 12.082 18.381 33.381 27.5 42.5 3.142 3.142 10.146 10 14.5 10 .861 0 4.036 2.427 5 .5 2.308-4.617-2.568-11.534-6.5-13.5-7.573-3.787-15.686-8.871-19.5-16.5-3.582-7.163-6.463-25.5-18-25.5Z"/><path fill="#FF6F80" id="TH" d="M243 200h2c1.838 0 26.147-4.324 27.5-5l4.5-2 6-1c0-1.579 2.855-1 4-1h1l1-1c1.408 0 5-1.197 5-3-3.942 0-9 4.689-9 0-4.549 0-8.872 2-14 2-8.333 0-15.424 4-24 4 0 2.968-4 4.633-4 7Z"/><path fill="#CCC" d="M328 187c0 1.988-3.315 2.408-4.5 3l-6.5 7.5c-8.242 16.484-8.641 24.07-27.5 33.5-2.815 1.407-7.383 9.808-3 12 2.981 1.49 14.156-7.156 16.5-9.5 8.364-8.364 19.7-20.4 26-33 1.471-2.943 6.167-13.5-1-13.5Z"/><path fill="#0E9F90" id="ECT6b" d="m67 193 1 1c0-1.145.58-4-1-4v3Z"/><path fill="#E64438" id="HY" d="m209 225-4 4c0-4.542-6.215-10.642-11.5-8l-3.5 3c0-5.863-9.866-9-15-9-1.463 0-7-3.486-7-5l7.5 3c3.005 0 5.518-.241 8 1 5.633 2.817 7.338-4.831 3-7-5.217-2.609-9.799-8.799-14.5-13.5l-5-3.5c.969 0 7 1.147 7 2-4.186 0 5 9.631 5 3 1.488 0 2.11 6.805 4.5 8 6.445 3.222 11.766 11 19.5 11 0 2.701-5.836 11 6 11ZM289 190l-1 1 1-1Z"/><path fill="#0E9584" id="PERI1" d="M36 203c-2.124 0-4.436 1-6 1 0-4.522-3-8.202-3-13 2.707 0 5.903 1 8 1l1 10v1Z"/><path fill="#E64438" id="HY" d="M283 192c1.514 0 0 1.762 0 3l4-4c-1.145 0-4-.579-4 1Z"/><path fill="#0E9584" id="PERI1" d="M420 203h6c2.339 0 3-9.67 3-12h-7v1l-2 10v1Z"/><path fill="#0E9583" id="PERI2/3" d="M36 202h6c0-2.662 7 .662 7-2 0-2.447-2-3.28-2-6-3.741 0-7.636-2-12-2l1 10Z"/><path fill="#F24739" id="FF" d="M179 193v2c0 6.631-9.186-3-5-3l5 1ZM277 197h4c0-1.747.253-2 2-2 0-1.238 1.514-3 0-3l-6 1v4Z"/><path fill="#0E9583" id="PERI2/3" d="M415 202h5l2-10c-4.411 0-8.371 2-12 2l-3 6v1c2.707 0 5.903 1 8 1Z"/><path fill="#A0EE9C" id="EPd" d="M76 231c-2.424 0-2.76 2-4 2l-5-8 2.5 2c1.568 0-2.227-5.954-2.5-6.5-1.323-2.645-.643-6.286-2-9-.922-1.843.032-14.5-2-14.5 0-1.621 2.379-4 4-4l1 1 4 10.5c3.25 6.501 4 15.694 4 23.5v3Z"/><path fill="#FF64FF" id="MB" d="M206 213c-1.048 0-3-.473-3 1-7.734 0-13.055-7.778-19.5-11-2.39-1.195-3.012-8-4.5-8v-2l4.5 2c1.423.712 26.536 5 28.5 5l-3 8v2l-3 3ZM250 213l4 1c5.236 0 13.944-6.444 17.5-10l5.5-7v-4l-4.5 2c-1.353.676-25.662 5-27.5 5l2 7v2l3 4Z"/><path fill="#0E9F90" id="ECT6b" d="m389 194-1 1 1-2v1Z"/><path fill="#A0EE9C" id="EPd" d="M381 231c1.238 0 3 .423 3 2l4-6c-2.624 0 1.456-7.411 2-8.5 2.308-4.617 3-16.337 3-21.5 0-3.495-2.189-3-4-3l-1 1c-1.454 0-1.433 5.366-2 6.5-3.817 7.633-6 17.371-6 26.5l1 3Z"/><path fill="#0F9684" id="PERI5" d="M49 200h1l8-1 3-2h-1c-4.194 0-8.329-3-13-3 0 2.72 2 3.553 2 6ZM398 198l9 2 3-6-13 2-1 1v1h2Z"/><path fill="#FF6F80" id="TH" d="M224 198h1l2-2-3-1v3Z"/><path fill="#FF64FF" id="MB" d="M225 198h6l-1-2c-.716 0-3-2.373-3 0l-2 2Z"/><path fill="#FF6F80" id="TH" d="m231 198 2 1v-4l-3 1 1 2Z"/><path fill="#E64438" id="HY" d="M283 195c-1.747 0-2 .253-2 2l2-2ZM314 195l-1 1 1-1Z"/><path fill="#97D6F9" id="STR" d="M348 211c2.25 0 3.376 2 5 2 2.576 0 13-11.645 13-14h-7.5l-5.5-4c0 4.216-2.192 9.885-4 13.5l-3 2.5h2ZM108 211h2c0-2.17-7-10.706-7-15l-5.5 3c-3.503 1.752-6.921-2-9.5-2l13 14.5 3 3.5c0-3.115.885-4 4-4Z"/><path fill="#E64438" id="HY" d="M162 209h2l-4.5-3c-2.351-2.351-13.201-10-16.5-10l5 7c0-2.363 2.815-.342 3.5 0 2.1 1.05 8.421 6 10.5 6ZM313 196l-1 1 1-1Z"/><path fill="#0D9E90" id="ECT5" d="m397 196-1 1 1-1Z"/><path fill="#32B824" id="ENTl6a" d="M62 203c-1.58 0-1 2.855-1 4-2.055 0-.945-8-3-8l3-2h1v6Z"/><path fill="#C9C8CA" id="ee" d="M67 224v1l2.5 2c1.568 0-2.227-5.954-2.5-6.5-1.323-2.645-.643-6.286-2-9-.922-1.843.032-14.5-2-14.5h-1v6c0 5.355 3 10.944 3 16v2l1 1v1l1 1Z"/><path fill="#E64438" id="HY" d="M253 223c2.839 0 6.121-3.69 9.5-2l3.5 2c0-5.583 10.829-7 15-7l1-1 5-4c-4.38 0-10.703 3-15.5 3-1.7 0-5.785-.929-4.5-3.5l14-13.5h-4l-5.5 7c-3.556 3.556-12.264 10-17.5 10 0 1.606 2.081 4.339 1 6.5l-2 2.5ZM303 203c1.041 0 5-2.36 5 0 2.177 0 4-4.336 4-6-1.654 0-9 4.228-9 6Z"/><path fill="#C9C8CA" id="ee" d="m389 226-1 1c-2.624 0 1.456-7.411 2-8.5 2.308-4.617 3-16.337 3-21.5h1v3l-1 15v2l-1 1v1l-1 1v2l-1 1-1 2v1Z"/><path fill="#32B824" id="ENTl6a" d="M394 200c1.751 0 1 7.426 1 9 1.109 0 3-9.537 3-11h-2l-1-1h-1v3Z"/><path fill="#0E9684" id="PERI6a" d="M396 197v1l-1-1h1Z"/><path fill="#FF6F80" id="TH" d="m224 198-1 1 1-1Z"/><path fill="#E64438" id="HY" fill-rule="evenodd" d="M228 205c0 1.02-3.121 12 .5 12 .56 0 1.405-12-.5-12m-8-3c6.546 0 4.965 14.43 7 18.5l1.5 5.5.5-4.5c1.999-3.997 1.107-19.5 7-19.5l-3-3-2-1h-7l-1 1-3 3Z"/><path fill="#97D6F9" id="STR" d="m367 198-1 1 1-1Z"/><path fill="#31B824" id="ENTl5" d="M394 215c2.338 0 4.862 2 8 2 0-1.956 3.664-16 5-16v-1l-9-2c0 1.463-1.891 11-3 11l-1 6ZM62 215c-1.836 0-4.235 2-7 2 0-2.821-5-12.6-5-17l8-1c2.055 0 .945 8 3 8v4l1 1v3Z"/><path fill="#32B725" id="ENTl3" d="M55 217c-2.885 0-4.697 2-8 2l-5-17c0-2.662 7 .662 7-2h1c0 4.4 5 14.179 5 17Z"/><path fill="#E64438" id="HY" d="M218 202c-4.546 0-6.299 6-9 6l3-8 3 1c1.048 0 3-.473 3 1Z"/><path fill="#FF6F80" id="TH" d="m243 200-1 1 1-1Z"/><path fill="#E64438" id="HY" d="M239 202c3.435 0 5.249 5 8 5l-2-7h-2l-1 1c-1.048 0-3-.473-3 1Z"/><path fill="#A0EE9C" id="EPd" d="M393 215h1l1-6c0-1.574.751-9-1-9l-1 15Z"/><path fill="#32B725" id="ENTl3" d="M402 217c2.16 0 4.167 2 7 2 0-5.238 6-11.762 6-17-2.097 0-5.293-1-8-1-1.336 0-5 14.044-5 16Z"/><path fill="#32B825" id="ENTl2" d="M47 219c0 1.638-3.576 2-5 2-1.845 0-1.44-3.381-2-4.5-1.71-3.419-4-9.613-4-13.5v-1h6l5 17Z"/><path fill="#F1473B" id="STN" d="M174 235h1v-9.5l-3-4.5c-.511 0-10-11.361-10-12-2.079 0-8.4-4.95-10.5-6-.685-.342-3.5-2.363-3.5 0 0 10.735 13.736 13.972 18 22.5l8 9.5Z"/><path fill="#FD4B3C" id="PH" d="M197 248v1c0 3.093 18.374 6.563 21.5 5 1.848-.924 5.065-7 5.5-7 0-1.654 1.198-8 3-8 0-6.663 2-11.281 2-1 1.429 0 3 5.655 3 7 1.452 0 1.716 7.108 3.5 8 5.372 2.686 23.5.23 23.5-4 0-7.368-8-13.793-8-21l-3-3c-6.588 0-1-9.599-1-11v-7c-2.751 0-4.565-5-8-5h-3c-5.893 0-5.001 15.503-7 19.5l-.5 4.5-1.5-5.5c-2.035-4.07-.454-18.5-7-18.5h-2c-4.546 0-6.299 6-9 6v5c0 .801 6.868 12 0 12l-4 4-7 18-1 1Z"/><path fill="#F1473B" id="STN" d="M281 235h1l7-7.5c6.378-6.378 19-15.516 19-24.5 0-2.36-3.959 0-5 0 0 1.577-1.762 2-3 2h-1c0 1.577-1.762 2-3 2l-1 2c0 .814-11 10.21-11 13l-1 1c0 3.649-2 7.489-2 12Z"/><path fill="#32B825" id="ENTl2" d="M409 219c1.714 0 3.482 2 6 2 0-5.735 5-11.703 5-18v-1h-5c0 5.238-6 11.762-6 17Z"/><path fill="#32B722" id="ENTl1" d="m42 221-3 3c-1.845 0-1.44-3.381-2-4.5-2.082-4.164-7-10.766-7-15.5 1.564 0 3.876-1 6-1 0 3.887 2.29 10.081 4 13.5.56 1.119.155 4.5 2 4.5Z"/><path fill="#A0EE9C" id="EPd" d="m63 215 2 4c0-5.056-3-10.645-3-16-1.58 0-1 2.855-1 4v4l1 1v2l1 1Z"/><path fill="#E64438" id="HY" d="M303 203c-1.238 0-3 .423-3 2 1.238 0 3-.423 3-2Z"/><path fill="#32B722" id="ENTl1" d="m415 221 3 3c0-5.957 8-13.768 8-21h-6c0 6.297-5 12.265-5 18Z"/><path fill="#A8A9AA" id="V3" d="M228 205c0 1.02-3.121 12 .5 12 .56 0 1.405-12-.5-12Z"/><path fill="#E64438" id="HY" d="M299 205c-1.238 0-3 .423-3 2 1.238 0 3-.423 3-2ZM293 209h2l1-2c-1.238 0-3 .423-3 2Z"/><path fill="#CCCACB" id="nst" d="M175 215c0 .311 4.731 10.615-.5 8l-2.5-2c-.511 0-10-11.361-10-12h2l4 1c0 1.514 5.537 5 7 5Z"/><path fill="#E64438" id="HY" d="m250 213-3 1v-5l3 4ZM290 209l-1 1 1-1Z"/><path fill="#CCCACB" id="nst" d="m284 222-1 1c-6.863 0-2-3.942-2-7l1-1 5-4 2-1 1-1h5c0 .814-11 10.21-11 13Z"/><path fill="#E64438" id="HY" d="M206 213h3v-3l-3 3ZM289 210l-2 1 2-1Z"/><path fill="#32B824" id="ENTl6a" d="m61 211 1 1-1-1Z"/><path fill="#80BFE0" id="CEAc" d="M105 217h2l2-3-1-3c-3.115 0-4 .885-4 4l1 2Z"/><path fill="#80BEE1" id="CEAl" d="M111 211c0 2.003.293 3-2 3l-1-3h3Z"/><path fill="#97D6F9" id="STR" d="M127 239h1l-1-4-3.5 1c-2.717-1.358-5.434-9.283-2-11 3.256-1.628 3.152 4 5.5 4 0-2.592-3.453-9 2-9l-12-8c-2.011 0-3.989-1-6-1 0 2.003.293 3-2 3l-2 3c0 3.095 5 5.702 5 10l1 1c1.186 0 3.004-.491 4 1.5.387.774 2.186 4.5 0 4.5l1 1c3.242 0 5.319 4 9 4ZM329 239v1l8-4 1-1 1-1c-2.5 0 1.926-7 4-7h1v-1l1-1c0-3.435 5-5.249 5-8l-3-3c-3.382 0-1-1.342-1-3-2.029 0-1.881 1.191-3.5 2-2.377 1.189-2.116-2-3.5-2l-12 9c4.576 0 3 5.196 3 9l4.5-4c4.26 2.13.504 9.748-2 11l-3.5-1v4Z"/><path fill="#80BEE1" id="CEAl" d="m348 211-1 3c-3.382 0-1-1.342-1-3h2Z"/><path fill="#80BFE0" id="CEAc" d="M350 217h1l2-4c-1.624 0-2.75-2-5-2l-1 3 3 3Z"/><path fill="#C7C9CC" id="mtt" d="M203 214c0 2.701-5.836 11 6 11 6.868 0 0-11.199 0-12h-3c-1.048 0-3-.473-3 1ZM253 223c-1.624 0-2.75 2-5 2-6.588 0-1-9.599-1-11l3-1 4 1c0 1.606 2.081 4.339 1 6.5l-2 2.5Z"/><path fill="#32B824" id="ENTl6a" d="M62 215h1l-1-1v1Z"/><path fill="#6ACAB9" id="PIR" d="M83 271c0 1.986-7.834 17-9 17-1.324 0-8.934-11.434-10.5-13-10.019-10.019-12.593-24.686-18.5-36.5-2.072-4.144-6-9.663-6-14.5l3-3c1.424 0 5-.362 5-2 3.303 0 5.115-2 8-2 2.765 0 5.164-2 7-2h1l2 4v2l1 1v1l1 1v1l5 8c0 7.556 3.792 16.084 7 22.5.767 1.535 1.845 8.5 4 8.5v7Z"/><path fill="#F1483A" id="PSTN" d="m175 239 1 1c7.17 0 14-9.452 14-16 0-5.863-9.866-9-15-9 0 .311 4.731 10.615-.5 8l-2.5-2 3 4.5V239ZM282 215l-1 1 1-1Z"/><path fill="#6ACAB9" id="PIR" d="M373 271c0 4.531 9 13.922 9 17 3.499 0 9.756-11.012 11-13.5 3.371-6.743 8.663-12.325 12-19 3.319-6.638 4.703-14.407 8-21 1.513-3.027 5-7.028 5-10.5l-3-3c-2.518 0-4.286-2-6-2-2.833 0-4.84-2-7-2-3.138 0-5.662-2-8-2h-1v2l-1 1v1l-1 1v2l-1 1-1 2v1l-1 1-4 6c0 6.525-2.223 15.945-5 21.5-1.288 2.576-5 6.629-5 9.5l-1 1v6Z"/><path fill="#F1483A" id="PSTN" d="m281 239-1 1c-7.464 0-14-10.378-14-17 0-5.583 10.829-7 15-7 0 3.058-4.863 7 2 7 0 3.649-2 7.489-2 12v4Z"/><path fill="#9DE79B" id="BLAa" d="M111 231c0 1.817-7.169 4-9 4-2.622 0-7-11.43-7-14 0-3.59 6.743-4 10-4h2c0 3.095 5 5.702 5 10l-1 4ZM345 231c2.864 0 5.35 4 9 4 4.023 0 7-13.006 7-15 0-2.869-7.658-3-10-3h-1c0 2.751-5 4.565-5 8l-1 1v1l1 4Z"/><path fill="#A0EE9C" id="EPd" d="m393 217-1 1 1-1ZM392 219l-1 1 1-1Z"/><path fill="#80BFE1" id="MEA" d="m154 263 1 1c4.501 0 8-4.75 8-9 0-4.374-2-8.563-2-12l-6.5-6c-5.342-2.671-18.338-16-23.5-16l-1-1h-1c-5.453 0-2 6.408-2 9v6l1 4c0 4.012 5.9 4.7 8.5 6 7.039 3.519 12.034 8.567 15.5 15.5l2 2.5Z"/><path fill="#97D6F9" id="STR" d="m130 220 1 1-1-1Z"/><path fill="#80BFE1" id="MEA" d="m303 263-1 2c-3.304 0-9-5.64-9-9 0-4.763 2-8.728 2-13l1-1 1-1 21-16c3.39 0 5.621-5 9-5 4.576 0 3 5.196 3 9 0 1.564-1 3.876-1 6v4l-2.5 4c-7.583 3.791-23.5 8.395-23.5 20Z"/><path fill="#9DE69C" id="BLAp" d="m371 250-2 1-4-1-2-1-9-14c4.023 0 7-13.006 7-15 6.698 0 15 10.807 15 17 0 4.277-5 11.956-5 13Z"/><path fill="#A0EE9C" id="EPd" d="m65 221 1 1-1-1Z"/><path fill="#9DE69C" id="BLAp" d="m92 250-5 1-2-2c0-3.299-4-6.485-4-11 0-7.468 5.793-17 14-17 0 2.57 4.378 14 7 14 0 4.52-8 8.897-8 13l-2 2Z"/><path fill="#F2483A" id="LHA" d="m190 253-3.5 2c-3.807 1.904-11.122-1-14.5-1 0-1.974-2-3.517-2-6 0-2.572 4-4.883 4-7l2-1c7.17 0 14-9.452 14-16l3.5-3c5.285-2.642 11.5 3.458 11.5 8l-7 18-1 1v1l-2 1c-2.565 0-5-.236-5 3ZM267 254h17c1.638 0 2-3.576 2-5 0-2.971-3-4.768-3-7l-3-2c-7.464 0-14-10.378-14-17l-3.5-2c-3.379-1.69-6.661 2-9.5 2l-2 5c0 7.207 8 13.632 8 21l2 1c2.883 0 6 .409 6 4Z"/><path fill="#F1483A" id="PSTN" d="m284 222-1 1 1-1Z"/><path fill="#A0EE9C" id="EPd" d="m391 222-1 1 1-1ZM66 223l1 1-1-1Z"/><path fill="#E64438" id="HY" d="m248 225 3 3 2-5c-1.624 0-2.75 2-5 2Z"/><path fill="#A0EE9C" id="EPd" d="m390 223-1 2 1-2Z"/><path fill="#C8CBC7" id="st" d="M127 229c-2.348 0-2.244-5.628-5.5-4-3.434 1.717-.717 9.642 2 11l3.5-1v-6ZM330 229l4.5-4c4.26 2.13.504 9.748-2 11l-3.5-1c0-2.124 1-4.436 1-6Z"/><path fill="#8AD987" id="CTXsp" d="m345 225-1 1 1-1Z"/><path fill="#A0EE9C" id="EPd" d="m389 226-1 1 1-1Z"/><path fill="#8AD987" id="CTXsp" d="m76 231 3 2v-6l-3 1v3ZM111 231l4 1-2-4-1-1-1 4Z"/><path fill="#80BEE2" id="IA" d="m115 232 2 2c2.186 0 .387-3.726 0-4.5-.996-1.991-2.814-1.5-4-1.5l2 4ZM342 231l-3 3c-2.5 0 1.926-7 4-7l-1 4Z"/><path fill="#8AD987" id="CTXsp" d="M342 231h3l-1-4h-1l-1 4ZM381 231l-4 2 1-5h2l1 3Z"/><path fill="#A0ED9D" id="EPv" d="M83 264h1l1-13v-2c0-3.299-4-6.485-4-11-1.638 0-2-3.576-2-5l-3-2c-2.424 0-2.76 2-4 2 0 7.556 3.792 16.084 7 22.5.767 1.535 1.845 8.5 4 8.5Z"/><path fill="#84E981" id="BMAp" d="m101 265 3 1c2.224 0 2.272-2.386 3.5-3 1.689-.844 16.5-16.041 16.5-18 0-4.015-6-6.81-6-10l-1-1-2-2-4-1c0 1.817-7.169 4-9 4 0 4.52-8 8.897-8 13v3l7 14Z"/><path fill="#E64438" id="HY" d="M227 241h2v-3c0-10.281-2-5.663-2 1v2Z"/><path fill="#84E981" id="BMAp" d="m355 265-2 1c-2.559 0-20-19.205-20-21 0-4.215 4-5.464 4-9l1-1 1-1 3-3h3c2.864 0 5.35 4 9 4l9 14v1c0 4.626-8 9.894-8 15Z"/><path fill="#A0ED9D" id="EPv" d="M373 264h1c0-2.871 3.712-6.924 5-9.5 2.777-5.555 5-14.975 5-21.5 0-1.577-1.762-2-3-2l-4 2c0 1.145.579 4-1 4 0 4.277-5 11.956-5 13v1c0 4.077 1 8.431 1 13h1Z"/><path fill="#8AD987" id="CTXsp" d="M127 239c0 1.643-1.338 6-3 6 0-4.015-6-6.81-6-10 3.242 0 5.319 4 9 4Z"/><path fill="#E64438" id="HY" d="M175 235v1l-1-1h1ZM282 235c0 1.048.473 3-1 3v-3h1Z"/><path fill="#8AD987" id="CTXsp" d="m338 235-1 1 1-1ZM329 240c0 1.247 2.467 5 4 5 0-4.215 4-5.464 4-9l-8 4Z"/><path fill="#FD5D50" id="PVi" d="M229 269h3v-24c0-1.345-1.571-7-3-7v4l1 1c0 8.739-1 17.859-1 26Z"/><path fill="#97EC93" id="PA" d="M103 268h11c.57 0 19.949-11.724 22.5-13 7.751-3.876 11.705 8 17.5 8l-2-2.5c-3.466-6.933-8.461-11.981-15.5-15.5-2.6-1.3-8.5-1.988-8.5-6h-1c0 1.643-1.338 6-3 6 0 1.959-14.811 17.156-16.5 18-1.228.614-1.276 3-3.5 3l-1 2Z"/><path fill="#E64438" id="HY" d="m176 240-2 1 1-2 1 1Z"/><path fill="#FD5D50" id="PVi" d="M224 269h3v-30c-1.802 0-3 6.346-3 8v22Z"/><path fill="#E64438" id="HY" d="m280 240 3 2-2-3-1 1Z"/><path fill="#97EC93" id="PA" d="M355 268v1l-3.5-2-9.5 1c0-2.688-23.834-15.333-28.5-13-2.301 1.15-8.278 8-10.5 8 0-11.605 15.917-16.209 23.5-20l2.5-4v1c0 1.247 2.467 5 4 5 0 1.795 17.441 21 20 21l2 2Z"/><path fill="#A8A9AA" id="V3" d="M227 269c0 10.27 2 10.597 2 0 0-8.141 1-17.261 1-26l-1-1v-1h-2v28Z"/><path fill="#7DCD4B" id="HPF" d="m297 241-1 1 1-1ZM296 242l-1 1 1-1ZM167 247c0 4.805.57 8-4 8 0-4.374-2-8.563-2-12 1.417 0 6 2.383 6 4ZM290 246c0 2.897-2.832 10 3 10 0-4.763 2-8.728 2-13l-5 3Z"/><path fill="#E64438" id="HY" d="M281 260c0-11.176-12.659 1-14 1 0-2.071-19.668-6.916-21.5-6l-5.5 5c0-2.406-3.677-6.411-6.5-5l-1.5 3v-13c1.452 0 1.716 7.108 3.5 8 5.372 2.686 23.5.23 23.5-4l2 1c0 5.997 6 8.572 6 4h17l-3 6ZM198 247l-1 1 1-1ZM216 259c-.656 0-4.138-3.319-5.5-4-2.155-1.077-11.91 1.955-14 3h-5l-2.5 3-6.5-5c-1.94-.97-7.5.824-7.5 3l-3-5c3.378 0 10.693 2.904 14.5 1l3.5-2c0 3.968 5 5.214 5-3l2-1c0 3.093 18.374 6.563 21.5 5 1.848-.924 5.065-7 5.5-7v9l-4.5-1-3.5 4Z"/><path fill="#8AD987" id="CTXsp" d="m92 250 2 1v-3l-2 2ZM85 251h2l-2-2v2ZM363 250h2l-2-1v1Z"/><path fill="#9CE79C" id="BLAv" d="M94 275h1l1-1 1-1 3-3 1-1v-4l-7-14-2-1-5 1h-2l-1 13v1l2 6c1.718 0 4.558 4 8 4Z"/><path fill="#C7C8CA" id="fx" d="M195 250c-2.565 0-5-.236-5 3 0 3.968 5 5.214 5-3ZM261 250c2.883 0 6 .409 6 4 0 4.572-6 1.997-6-4Z"/><path fill="#9CE79C" id="BLAv" d="m360 274 3 1 8-4 1-6v-1c0-4.569-1-8.923-1-13h-2l-4-1h-2c0 4.626-8 9.894-8 15v4l5 5Z"/><path fill="#8AD987" id="CTXsp" d="M369 251h2v-1l-2 1Z"/><path fill="#60E6B5" id="COApm" d="M114 268c0 3.56 4.173 21 7 21 5.808 0 20.24-16.87 26.5-20 1.431-.716 7.5-3.243 7.5-5l-1-1c-5.795 0-9.749-11.876-17.5-8-2.551 1.276-21.93 13-22.5 13Z"/><path fill="#FF4B3B" id="PMv" d="m202 275 5.5 2 5.5-2 1-1 1-2 1-1v-12c-.656 0-4.138-3.319-5.5-4-2.155-1.077-11.91 1.955-14 3h-5l-2.5 3c0 3.617 13 11.746 13 14Z"/><path fill="#FE5445" id="DMH" d="M222 269h2v-13l-4.5-1-3.5 4v9c1.564 0 3.876 1 6 1ZM233 269h2l5-1v-8c0-2.406-3.677-6.411-6.5-5l-1.5 3v10l1 1Z"/><path fill="#FF4B3B" id="PMv" d="m243 275 5.5 2 5.5-2c2.254 0 13-11.835 13-14 0-2.071-19.668-6.916-21.5-6l-5.5 5v8l1 3v1l2 2v1Z"/><path fill="#60E6B5" id="COApm" d="M342 268c0 3.261-2.585 21-7 21-5.06 0-27.443-24-33-24l1-2c2.222 0 8.199-6.85 10.5-8 4.666-2.333 28.5 10.312 28.5 13Z"/><path fill="#FF4C3E" id="TMv" d="M202 275c0 5.557-2.105 4-7 4-6.523 0-20-13.284-20-20 0-2.176 5.56-3.97 7.5-3l6.5 5c0 3.617 13 11.746 13 14ZM262 279l-2 1c-3.71 0-6-.914-6-5 2.254 0 13-11.835 13-14 1.341 0 14-12.176 14-1 0 6.065-12.951 19-19 19Z"/><path fill="#8AD987" id="CTXsp" d="M83 265h1v-1h-1v1ZM372 265h1v-1h-1v1Z"/><path fill="#99D2BD" id="OLF" d="m374 264-1 1v-1h1ZM83 271h3l-2-6h-1v6Z"/><path fill="#8AD987" id="CTXsp" d="M101 268h2l1-2-3-1v3ZM353 266l2 2v-3l-2 1Z"/><path fill="#99D2BD" id="OLF" d="M371 271h2v-6h-1l-1 6Z"/><path fill="#5FE6B7" id="COApl" d="M92 296v1c14.79 0 13.238.631 26.5-6l2.5-2c-2.827 0-7-17.44-7-21h-11l-2 1-1 1-3 3-1 1-1 1v2c0 6.939-3 12.796-3 19ZM364 295v2c-16.216 0-11.019 1.24-25.5-6l-3.5-2c4.415 0 7-17.739 7-21l9.5-1 3.5 2 5 5 1 3c0 6.476 3 12.025 3 18Z"/><path fill="#97EC93" id="PA" d="m103 268-2 1v-1h2Z"/><path fill="#E64438" id="HY" d="M222 269c0 .913-5.014 2-6 2v-3c1.564 0 3.876 1 6 1ZM232 269h1l-1-1v1ZM235 269c0 .913 5.014 2 6 2l-1-3-5 1Z"/><path fill="#97EC93" id="PA" d="m101 269-1 1 1-1Z"/><path fill="#FF5447" id="PVp" d="M237 287h8l1-1 2-1c0-4.015-5-6.644-5-10v-1l-2-2v-1c-.986 0-6-1.087-6-2h-6c0 10.597-2 10.27-2 0h-5c0 .913-5.014 2-6 2l-1 1-1 2-1 1c0 3.764-4 5.626-4 10 0 2.896 8.797 2 11 2 2.097 0 5.293-1 8-1 0-1.186 1-1.186 1 0l8 1Z"/><path fill="#59D9AA" id="PAA" d="M89 296h3c0-6.204 3-12.061 3-19l-1-2c-3.442 0-6.282-4-8-4h-3c0 1.986-7.834 17-9 17 0 3.823 11.905 8 15 8Z"/><path fill="#E64438" id="HY" d="m216 271-1 1 1-1Z"/><path fill="#59D9AA" id="PAA" d="m364 295 4 1c2.85 0 14-4.145 14-8 0-3.078-9-12.469-9-17h-2l-8 4-2 2c0 6.476 3 12.025 3 18Z"/><path fill="#E64438" id="HY" d="m241 272 2 2-2-2Z"/><path fill="#99D2BD" id="OLF" d="m97 273-1 1 1-1ZM96 274l-1 1 1-1Z"/><path fill="#E64438" id="HY" d="m214 274-1 1 1-1Z"/><path fill="#99D2BD" id="OLF" d="m363 275-2 2-1-3 3 1ZM95 275v2l-1-2h1Z"/><path fill="#E64438" id="HY" d="M195 279c0 2.404 11.748 6 14 6 0-4.374 4-6.236 4-10l-5.5 2-5.5-2c0 5.557-2.105 4-7 4ZM260 280c0 1.245-10.225 5-12 5 0-4.015-5-6.644-5-10l5.5 2 5.5-2c0 4.086 2.29 5 6 5ZM262 279l-2 1 2-1ZM228 286c0 1.186 1 1.186 1 0s-1-1.186-1 0Z"/><path fill="#F1473A" id="ME" d="M220 287c0 1.423-1.978 3.544-1 5.5 2.499 4.999 15.352 6.297 18 1V287l-8-1c0 1.186-1 1.186-1 0-2.707 0-5.903 1-8 1Z"/><path fill="#E64438" id="HY" d="m246 286-1 1 1-1Z"/><path fill="#99D2BD" id="OLF" d="M368 296c0 1.579-2.855 1-4 1v-2l4 1ZM92 296v1c-1.048 0-3 .473-3-1h3Z"/></svg>