<svg xmlns="http://www.w3.org/2000/svg" viewBox="0 0 456 320"><path fill="#1BA696" id="RSPagl1" d="M171 15h1c5.373 0 9.368-3 15-3l-1-5c-5.816 0-9.554 2-15 2v6Z"/><path fill="#1BA598" id="RSPd1" d="M217 19h1l1-2c0-1.986-2.075-3.288-3.5-4l-4-4c-6.886-3.443-17.277-2-25.5-2l1 5c4.965 0 30-1.203 30 7ZM237 17l2 1 8.5-5c6.706-3.353 15.504-1 22.5-1V7c-11.493 0-21.771-1.729-30 6.5l-3 3.5Z"/><path fill="#1BA696" id="RSPagl1" d="m270 12 15 3 1-6c-5.677 0-9.859-2-16-2v5Z"/><path fill="#0A8589" id="VISpm1" d="M142 22h1l6-3c7.681 0 14.454-4 22-4V9c-2.846 0-24.028 4.764-26.5 6l-3.5 2 1 5ZM315 17l-1 5-6.5-3c-1.639-.82-20.237-4-22.5-4l1-6c6.082 0 16.142 3.321 21.5 6 1.644.822 7.5-1.038 7.5 2Z"/><path fill="#1BA697" id="RSPd2/3" d="M213 23h1c0-2.35 3-1.383 3-4 0-8.203-25.035-7-30-7 0 2.41-1 5.181-1 7 10.175 0 13.283-3.108 23.5 2l3.5 2ZM243 23h1c0-7.623 22.482-4 26-4v-7c-6.996 0-15.794-2.353-22.5 1l-8.5 5v2l4 3Z"/><path fill="#1AA496" id="RSPagl2/3" d="M172 21c1.473 0 1 1.952 1 3l13-5c0-1.819 1-4.59 1-7-5.632 0-9.627 3-15 3v6ZM283 24h1v-3l1-6-15-3v7l13 5Z"/><path fill="#08858B" id="VISpm2/3" d="M143 22c0 3.52 2 5.843 2 9 6.261 0 22.556-10 27-10v-6h-1c-7.546 0-14.319 4-22 4l-6 3ZM314 22l-3 9c-8.011 0-19.75-10-27-10l1-6c2.263 0 20.861 3.18 22.5 4l6.5 3Z"/><path fill="#098589" id="VISp1" d="M98 40h1l9.5-5c7.832-3.916 24.898-13 33.5-13l-1-5c-9.77 0-25.861 8.68-34.5 13-1.684.842-10.5 4.05-10.5 6l2 4Z"/><path fill="#1AA596" id="RSPd5" d="m185 30 9.5-3c1.736.868 7.882 4 9.5 4l9-8-3.5-2c-10.217-5.108-13.325-2-23.5-2l-1 11Z"/><path fill="#1BA597" id="RSPv1" d="M195 83c8.906 0 20.59 2.32 25-6.5 2.992-5.984 3.969-12.938 7-19 .471-.942-.73-4.5 1.5-4.5l8.5 24.5c3.981 7.961 17.447 5.5 25 5.5l1-2-8.5-3c-3.256-1.628-7.678-1.339-11-3-9.161-4.58-7.466-20.432-11.5-28.5-2.412-4.824 2.381-26.5 7-26.5v-2l-2-1-8 10.5-.5 2.5c-1.551 0-5.941-13-9.5-13l-1 2c0 .845 6.113 12.727 7 14.5 1.796 3.592-.533 14.066-2 17-3.658 7.315-1.033 19.766-10.5 24.5-3.344 1.672-7.773 1.387-11 3-2.82 1.41-5.077 3-8.5 3 0 1.747.253 2 2 2Z"/><path fill="#1AA596" id="RSPd5" d="m271 30-9.5-3c-1.506.753-7.18 4-8.5 4l-9-8c0-7.623 22.482-4 26-4l1 11Z"/><path fill="#098589" id="VISp1" d="m361 36-3 4c-3.983 0-8.978-5.239-12.5-7-5.135-2.568-26.36-11-31.5-11l1-5c10.852 0 26.984 9.242 36.5 14 1.529.765 9.5 3.163 9.5 5Z"/><path fill="#1CA697" id="RSPagl5" d="M174 36h1c0-1.804 8.268-5 10-5v-1l1-11-13 5 1 12Z"/><path fill="#1AA597" id="RSPv2/3" d="m191 79 2 2c3.423 0 5.68-1.59 8.5-3 3.227-1.613 7.656-1.328 11-3 9.467-4.734 6.842-17.185 10.5-24.5 1.467-2.934 3.796-13.408 2-17-.887-1.773-7-13.655-7-14.5h-1c0 2.617-3 1.65-3 4l5 9.5c3.263 6.526-3.416 28.831-6 34-3.308 6.616-10.764 7.632-16.5 10.5-1.319.66-5.5-.334-5.5 2Z"/><path fill="#1CA697" id="RSPagl5" d="M272 31c3.915 0 5.954 4 10 4 0-3.249 1-7.194 1-11l-13-5 1 11 1 1Z"/><path fill="#1AA597" id="RSPv2/3" d="M263 81h2l1-2v-1c-13.008 0-20.786-9.073-26-19.5l-1-8c-1.418-2.836-3.684-13.632-2-17l3-7 3-3.5-4-3c-4.619 0-9.412 21.676-7 26.5 4.034 8.068 2.339 23.92 11.5 28.5 3.322 1.661 7.744 1.372 11 3l8.5 3Z"/><path fill="#09828B" id="VISpm4" d="M146 35h1l26-11c0-1.048.473-3-1-3-4.444 0-20.739 10-27 10l1 4ZM311 31l-1 4c-5.541 0-13.602-5.55-18.5-8-1.272-.636-7.5-1.45-7.5-3v-3c7.25 0 18.989 10 27 10Z"/><path fill="#0A828C" id="VISp2/3" d="M99 40c0 3.047 3 4.462 3 7 7.122 0 31.897-16 43-16 0-3.157-2-5.48-2-9h-1c-8.602 0-25.668 9.084-33.5 13L99 40ZM354 47h1l3-7c-3.983 0-8.978-5.239-12.5-7-5.135-2.568-26.36-11-31.5-11l-3 9c6.604 0 29.219 8.86 35.5 12 2.387 1.194 4.693 4 7.5 4Z"/><path fill="#1BA498" id="RSPv5" d="m188 75 3 4c0-2.334 4.181-1.34 5.5-2 5.736-2.868 13.192-3.884 16.5-10.5 2.584-5.169 9.263-27.474 6-34l-5-9.5h-1l-9 8v1c0 10.709-1.109 21.719-6 31.5l-6.5 8.5-3.5 3ZM266 78h1l1-1 1-1v-1c-9.611 0-13.591-25.683-17-32.5-.711-1.422-.232-10.5 1-10.5v-1l-9-8h-1l-3 3.5-3 7c-1.684 3.368.582 14.164 2 17l1 8c5.214 10.427 12.992 19.5 26 19.5Z"/><path fill="#088489" id="VISpm5" d="M174 36c-6.667 0-17.614 8-25 8 0-3.489-2-5.32-2-9l26-11 1 12ZM282 36l25 8 3-9c-5.541 0-13.602-5.55-18.5-8-1.272-.636-7.5-1.45-7.5-3h-1c0 3.806-1 7.751-1 11v1Z"/><path fill="#1AA697" id="RSPd6a" d="M184 39c2.833 0 4.84 2 7 2 5.234 0 8.621-9 13-9v-1c-1.618 0-7.764-3.132-9.5-4l-9.5 3v1l-1 8ZM272 39l-7 2c-1.158 0-12-7.352-12-9v-1c1.32 0 6.994-3.247 8.5-4l9.5 3 1 1v8Z"/><path fill="#0B848B" id="VISp4" d="M104 52h1c0-1.517 8.028-3.264 9.5-4 5.13-2.565 26.921-13 31.5-13l-1-4c-11.103 0-35.878 16-43 16 0 1.624 2 2.75 2 5Z"/><path fill="#1CA597" id="RSPagl6a" d="M176 42h1c0-1.43 5.655-3 7-3l1-8c-1.732 0-10 3.196-10 5l1 6ZM273 39l7 2c.672 0 2-4.33 2-5v-1c-4.046 0-6.085-4-10-4v8h1Z"/><path fill="#0B848B" id="VISp4" d="m354 47-2 4c-2.236 0-30.34-10.42-33.5-12-2.728-1.364-5.269-4-8.5-4l1-4c6.604 0 29.219 8.86 35.5 12 2.387 1.194 4.693 4 7.5 4Z"/><path fill="#1AA498" id="RSPv6a" d="M187 71c0 1.429-1.787 4 1 4l3.5-3 6.5-8.5c4.891-9.781 6-20.791 6-31.5-4.379 0-7.766 9-13 9v1c2.518 0 2.518 7 0 7-1.196 0-3 10.494-3 12l-1 10ZM270 71l-1 4c-9.611 0-13.591-25.683-17-32.5-.711-1.422-.232-10.5 1-10.5 0 1.648 10.842 9 12 9v1c-1.657 0-1.894 8 1 8 0 3.109 2 7.814 2 11l2 10Z"/><path fill="#088389" id="VISp5" d="m105 52 4 8c5.686 0 28.97-16 40-16 0-3.489-2-5.32-2-9h-1c-4.579 0-26.37 10.435-31.5 13-1.472.736-9.5 2.483-9.5 4ZM352 52l-4 8c-6.933 0-29.126-16-41-16l3-9c3.231 0 5.772 2.636 8.5 4 3.16 1.58 31.264 12 33.5 12v1Z"/><path fill="#029FAB" id="VISrl1" d="M81 46c0 1.238.423 3 2 3 3.865 0 8.138-5.319 11.5-7l3.5-2-2-4c-1.633 0-15 9.3-15 10Z"/><path fill="#09858B" id="VISpm6a" d="M172 45c-6.299 0-13.413 5-20 5l-3-6c7.386 0 18.333-8 25-8h1l1 6-4 3ZM307 44l-2 6c-7.007 0-23.105-8-25-8v-1c.672 0 2-4.33 2-5l25 8Z"/><path fill="#029FAB" id="VISrl1" d="m376 46-3 3c-4.466 0-9.865-9-15-9l3-4 15 10Z"/><path fill="#1AA598" id="RSPagl6b" d="M177 42v1c2.16 0 4.167-2 7-2v-2c-1.345 0-7 1.57-7 3Z"/><path fill="#1BA698" id="RSPd6b" d="M191 41v1c-1.819 0-4.591-1-7-1v-2c2.833 0 4.84 2 7 2ZM265 42h1c1.819 0 4.591-1 7-1v-2h-1l-7 2v1Z"/><path fill="#1AA598" id="RSPagl6b" d="M280 42v1c-2.583 0-3.934-2-7-2v-2l7 2v1Z"/><path fill="#029EAC" id="VISrl2/3" d="M87 56h1l14-9c0-2.538-3-3.953-3-7h-1l-3.5 2c-3.362 1.681-7.635 7-11.5 7v1c1.617 0 4 4.583 4 6ZM368 56h1l4-6v-1c-4.466 0-9.865-9-15-9l-3 7c0 3.342 13 5.436 13 9Z"/><path fill="#CACCC7" id="cing" d="M164 51c4.947 0 12.81-6.345 17.5-4 3.518 1.76 4.203 14 6.5 14 0-1.506 1.804-12 3-12v-7c-1.819 0-4.591-1-7-1-2.833 0-4.84 2-7 2-1.624 0-2.75 2-5 2 0 3.005-8.551 4-11 4l3 2ZM292 51c-4.517 0-12.463-6.019-16.5-4-3.929 1.964-4.53 14-7.5 14 0-3.186-2-7.891-2-11v-8c1.819 0 4.591-1 7-1 3.066 0 4.417 2 7 2 2.289 0 8.986 6 15 6l-3 2Z"/><path fill="#088589" id="VISpm6b" d="M177 43c-1.624 0-2.75 2-5 2l4-3h1v1Z"/><path fill="#1AA497" id="RSPv6b" d="M191 42c2.518 0 2.518 7 0 7v-7ZM266 42v8c-2.894 0-2.657-8-1-8h1Z"/><path fill="#088589" id="VISpm6b" d="M304 51h1v-1c-7.007 0-23.105-8-25-8v1c2.289 0 8.986 6 15 6 3.489 0 5.32 2 9 2Z"/><path fill="#08858C" id="VISp6a" d="M118 63c-2.72 0-3.553 2-6 2-1.077 0-3-3.762-3-5 5.686 0 28.97-16 40-16l3 6c-1.378 0-9 1.769-9 3-1.623 0-6 .005-6 2-2.589 0-15 3.193-15 6-1.465 0-4-.109-4 2ZM344 66h1c0-1.238 1.923-5 3-5v-1c-6.933 0-29.126-16-41-16l-2 6c9.481 0 22.29 6.895 30.5 11 1.655.827 8.5 2.559 8.5 5Z"/><path fill="#088589" id="VISpm6b" d="M152 51h1l8-2c2.449 0 11-.995 11-4-6.299 0-13.413 5-20 5v1Z"/><path fill="#0B838B" id="VISal1" d="M61 68h1c0-1.558 19.77-18 21-18v-1c-1.577 0-2-1.762-2-3-3.349 0-14.01 11.51-17 14.5L59 65l2 3ZM397 65c-2.043 0 0 .962 0 1.5l-2 1.5c-4.188 0-15.873-18-22-18v-1l3-3c2.224 0 12.898 11.398 16 14.5l5 4.5Z"/><path fill="#019EAA" id="VISrl4" d="m88 56 3 3c4.738 0 8.15-7 13-7 0-2.25-2-3.376-2-5l-14 9Z"/><path fill="#C8C9CA" id="fp" d="M63 143v1l2-3c0-1.593.337-7 2-7 0-1.424.362-5 2-5l1-2 1-2c0-1.465-.109-4 2-4v-1l1-1 1-2v-1l1-1 1-2 1-2 1-1v-1c0-1.238.423-3 2-3v-1l1-1 1-1 1-2 1-1 1-1 1-2 1-1 1-1 1-1 1-1c0-1.747.253-2 2-2l1-1 1-1 1-1 1-1 1-1 1-1 3-2 1-1 1-1 3-2 1-1 1-1h1l1-1 2-1 2-1 1-1 2-1 2-1 2-1 2-1c0-2.109 2.535-2 4-2 0-1.638 3.576-2 5-2l2-1c0-1.473 1.952-1 3-1 0-2.156 7.077-2 9-2 0-3.699 11.763-4 15.5-4 8.871 0 18.638 2.776 22.5 10.5l-1 4.5 3-1 1-10c-2.297 0-2.982-12.24-6.5-14-4.69-2.345-12.553 4-17.5 4-3.911 0-6.607 2-11 2 0 2.44-7.862 2.18-9.5 3l-27 11c-16.146 8.073-33.657 24.815-41.5 40.5l-6 17c-2.697 5.393-6 12.11-6 18.5ZM393 143h1c0-6.109-4.354-14.208-7-19.5-3.169-6.338-4.797-13.593-8-20-6.249-12.498-22.815-28.157-35.5-34.5-10.035-5.018-21.051-8.026-31-13-1.638-.82-9.5-.56-9.5-3-4.296 0-7.018-2-11-2-4.517 0-12.463-6.019-16.5-4-3.929 1.964-4.53 14-7.5 14l2 10 2 1c0-12.405 12.391-15 23-15 3.524 0 14 .387 14 4h1c1.775 0 8 .07 8 2h1c1.465 0 4-.109 4 2h1l4 2h1c1.238 0 3 .423 3 2h1c1.238 0 3 .423 3 2h1c1.178 0 6 2.572 6 4h1l2 2h1l1 1 2 1 2 2 1 1 1 1h1l3 3 2 1 1 1 1 1 1 1 1 1 1 1 1 1 1 1v1l4 4v1l2 2v1c1.533 0 4 3.753 4 5v1c1.577 0 2 1.762 2 3v1l2 2v1l2 3v1c1.577 0 2 1.762 2 3v1c1.635 0 5.932 13.365 7 15.5.523 1.046-.951 3.5 1 3.5Z"/><path fill="#019EAA" id="VISrl4" d="M365 60h1l2-4c0-3.564-13-5.658-13-9h-1l-2 4v1c2.263 0 13 5.27 13 8Z"/><path fill="#C9C9CA" id="scwm" d="M164 51c-3.911 0-6.607 2-11 2v-2l8-2 3 2ZM304 51l-1 2c-4.296 0-7.018-2-11-2l3-2c3.489 0 5.32 2 9 2Z"/><path fill="#098389" id="VISal2/3" d="m62 68 6 6 4-4.5L87 56c0-1.417-2.383-6-4-6-1.23 0-21 16.442-21 18Z"/><path fill="#08858A" id="VISp6b" d="M143 53h5l1-1 3-1v-1c-1.378 0-9 1.769-9 3ZM344 66v1c-4.386 0-11.415-8-17-8l-1-1c-6.079 0-15.039-7-21-7v-1c9.481 0 22.29 6.895 30.5 11 1.655.827 8.5 2.559 8.5 5Z"/><path fill="#098389" id="VISal2/3" d="M388 74h1l2-2c0-.966 2.886-3 4-3v-1c-4.188 0-15.873-18-22-18l-4 6c0 1.503 19 13.987 19 18Z"/><path fill="#CBC9C7" id="or" d="M61 156v3c-4.509 0-3-6.087-3-11 1.014 0 2-3.959 2-5l1-5v-3l1-1v-2c1.473 0 1-1.952 1-3v-2l1-1 1-2 2-4v-2l1-1v-1l1-1v-1l1-1 1-2c.896 0 3.026-2 1-2l1-4c1.577 0 2-1.762 2-3l8-11 2-2 2-3 1-1 1-1 1-1c2.43 0 11-8.168 11-10 2.582 0 10-3.504 10-6h1c1.178 0 6-2.572 6-4 1.465 0 4 .109 4-2 2.168 0 15-4.157 15-6 1.623 0 6-.005 6-2h5l1-1 3-1h1v2c0 2.44-7.862 2.18-9.5 3l-27 11c-16.146 8.073-33.657 24.815-41.5 40.5l-6 17c-2.697 5.393-6 12.11-6 18.5-2.379 0-2 10.688-2 13ZM399 152v4c-1.909 0-.099 5.201-2.5 4l-2.5-17c0-6.109-4.354-14.208-7-19.5-3.169-6.338-4.797-13.593-8-20-6.249-12.498-22.815-28.157-35.5-34.5-10.035-5.018-21.051-8.026-31-13-1.638-.82-9.5-.56-9.5-3l1-2h1c5.961 0 14.921 7 21 7l1 1c5.585 0 12.614 8 17 8 3.51 0 7.015 6 11 6l9 8 1 1 7 7 1 1 8 12 4 7c-2.654 0 .733 4 2 4l1 3 1 1v2l1 1v1c0 1.402 1.11 6 3 6v1c0 1.041.986 5 2 5v4c0 .986 1.087 6 2 6 0 1.235-.643 5 1 5 0 1.145-.579 4 1 4Z"/><path fill="#019DAB" id="VISrl5" d="m109 60-12 7-6-7v-1c4.738 0 8.15-7 13-7h1l4 8Z"/><path fill="#C9C9CA" id="scwm" d="m149 52-1 1 1-1Z"/><path fill="#019DAB" id="VISrl5" d="M348 61c4.908 0 7.437 6 12 6l5-7c0-2.73-10.737-8-13-8l-4 8v1Z"/><path fill="#08858A" id="VISp6b" d="M143 53c-1.623 0-6 .005-6 2 1.623 0 6-.005 6-2ZM137 55c-2.589 0-15 3.193-15 6 2.168 0 15-4.157 15-6Z"/><path fill="#088588" id="VISal4" d="M70 77h1c0-1.368 18.013-17 20-17v-1l-3-3h-1L72 69.5 68 74v1l2 2ZM386 76h1l1-1v-1c0-4.013-19-16.497-19-18h-1l-2 4c4.528 0 15.562 16 20 16Z"/><path fill="#C9CCC9" id="dhc" d="m184 72-2 1-5-1c0-3.311-17.227-11-21-11h-9c0-3.699 11.763-4 15.5-4 8.871 0 18.638 2.776 22.5 10.5l-1 4.5ZM279 72l-4 1-3-1c0-12.405 12.391-15 23-15 3.524 0 14 .387 14 4h-8c-1.235 0-5-.643-5 1l-2 1h-1l-2 1-1 1h-1l-2 2c-1.238 0-3 .423-3 2l-1 1-2 1-2 1Z"/><path fill="#C9C9CA" id="scwm" d="m326 58 1 1-1-1Z"/><path fill="#08848B" id="VISal5" d="m71 77 8 7c0-1.782 16.326-16 18-16v-1l-6-7c-1.987 0-20 15.632-20 17Z"/><path fill="#029EAB" id="VISrl6a" d="M100 73h1c0-1.728 8.413-6 10-6l1-1v-1c-1.077 0-3-3.762-3-5l-12 7v1c0 1.947 3 2.636 3 5Z"/><path fill="#08848B" id="VISal5" d="M377 84h1l1-1 2-1 1-1 1-1 1-1 1-1 1-1v-1c-4.438 0-15.472-16-20-16h-1l-5 7v1c1.235 0 17 13.525 17 16Z"/><path fill="#08858A" id="VISp6b" d="M122 61c-1.465 0-4-.109-4 2 1.465 0 4 .109 4-2Z"/><path fill="#C7C8CC" id="alv" d="M147 61c-1.923 0-9-.156-9 2 1.517 0 9-.726 9-2Z"/><path fill="#7ECF4B" id="CA1" d="m129 241 4 1c1.909 0 8-2.008 8-4-4.216 0-13.794-12.647-18.5-15-13.999-6.999-30.707-30.914-37.5-44.5-1.727-3.454-.24-8.479-2-12-3.483-6.965 4.552-35.5 12-35.5 0-6.579 7.629-11.758 10-16.5 7.777-15.555 36.156-29.5 53-29.5V62l-2-1h-9c0 1.274-7.483 2-9 2 0 1.473-1.952 1-3 1l-2 1c0 1.638-3.576 2-5 2l-4 2-2 1-2 1-2 1-2 1-1 1-2 1-2 1-1 1h-1l-1 1-1 1-3 2-1 1-1 1-3 2-1 1-1 1-1 1-1 1-1 1-1 1-2 2-1 1-1 1-1 1-1 1-1 2-1 1-1 1-1 2-1 1-1 1v1c0 1.238-.423 3-2 3v1l-1 1-1 2-1 2-1 1v1l-1 2-1 1v1l-2 4-1 2-1 2c0 1.424-.362 5-2 5 0 1.593-.337 7-2 7 0 1.517-.726 9-2 9v1c0 10.106-2.263 24.974 2 33.5 5.109 10.218 11.841 19.683 17 30 2.762 5.524 21.021 14.76 26.5 17.5 1.648.824 10.5 3.156 10.5 5h1c1.831 0 9 2.183 9 4Z"/><path fill="#C7C8CC" id="alv" d="M167 66c3.524 0 5.962 6 10 6 0-3.311-17.227-11-21-11l2 1c1.628 0 9 2.347 9 4ZM296 62h2c1.048 0 3 .473 3-1-1.235 0-5-.643-5 1Z"/><path fill="#7ECF4B" id="CA1" d="m327 241-3 1c-2.317 0-8-.709-8-4v-1l1-1c2.061 0 4-.902 4-3 7.183 0 12.524-12.012 18.5-15 14.442-7.221 33.5-36.066 33.5-51 0-12.638.979-23.521-8-32.5-1.59-1.59-1.805-3.5-4-3.5 0-6.031-5.484-9.468-8-14.5-8.14-16.279-36.614-31.5-54-31.5 0-7.505-1-15.043-1-23 1.048 0 3 .473 3-1h9c0 1.434 6.448 2 8 2h1l4 2h1l4 2h1l3 2h1c0 1.577 1.762 2 3 2h1c0 1.428 4.822 4 6 4h1l2 2h1l1 1 2 1 2 2 1 1 1 1h1l3 3 2 1 1 1 1 1 1 1 1 1 1 1 1 1 1 1v1l4 4v1l2 2v1l4 5v1l2 3v1l2 2v1c0 1.238.423 3 2 3v1c0 1.238.423 3 2 3v1c0 4.373 4.046 11.593 6 15.5.662 1.324.353 8.5 2 8.5v1c0 7.661 3.335 22.83 0 29.5-2.487 4.974-8 14.948-8 20.5-2.856 0-7.877 11.254-9 13.5-1.823 3.646-15 11.181-15 12.5-1.238 0-3 .423-3 2-1.856 0-7 1.782-7 4-1.465 0-4-.109-4 2-1.424 0-5 .362-5 2-1.424 0-5 .362-5 2-1.424 0-5 .362-5 2-1.424 0-5 .362-5 2Z"/><path fill="#C7C8CC" id="alv" d="M310 61c1.775 0 8 .07 8 2-1.552 0-8-.566-8-2Z"/><path fill="#029EAB" id="VISrl6a" d="M355 73h1l4-5v-1c-4.563 0-7.092-6-12-6-1.077 0-3 3.762-3 5 1.433 0 10 5.238 10 7Z"/><path fill="#57B947" id="ProS" d="m158 85 8 2c0-7.052 1-14.555 1-21 0-1.653-7.372-4-9-4v23Z"/><path fill="#C7C8CC" id="alv" d="m296 62-2 1 2-1Z"/><path fill="#57B947" id="ProS" d="m299 85-8 2c0-7.004-2-14.669-2-20v-2h1l1-1 2-1h1l2-1h2c0 7.957 1 15.495 1 23Z"/><path fill="#08858A" id="VISp6b" d="M112 66v1c1.178 0 6-2.572 6-4-2.72 0-3.553 2-6 2v1Z"/><path fill="#C7C8CC" id="alv" d="M138 63c-1.048 0-3-.473-3 1 1.048 0 3 .473 3-1ZM293 63l-2 1 2-1ZM319 63c1.465 0 4-.109 4 2l-4-2ZM135 64l-2 1 2-1ZM291 64l-1 1 1-1Z"/><path fill="#039399" id="AUDd1" d="M60 70h1v-2l-2-3c-1.577 0-2 1.762-2 3 0 1.692 3-.99 3 2Z"/><path fill="#C7C8CC" id="alv" d="M133 65c-1.424 0-5 .362-5 2 1.424 0 5-.362 5-2ZM287 67h2v-2l-2 2ZM324 65l4 2-4-2Z"/><path fill="#039399" id="AUDd1" d="M396 70h1c0-1.965 1.288-2 3-2l-3-3c-2.043 0 0 .962 0 1.5l-2 1.5v1l1 1Z"/><path fill="#009DAA" id="VISrl6b" d="M111 67h1v-1l-1 1Z"/><path fill="#4FC244" id="SUB" d="M169 90h4c6 0 10.627-3 16-3l1-1c0-1.423 1.978-3.544 1-5.5l-9-7.5-5-1c-4.038 0-6.476-6-10-6 0 6.445-1 13.948-1 21l3 3Z"/><path fill="#009DAA" id="VISrl6b" d="M344 67c3.51 0 7.015 6 11 6 0-1.762-8.567-7-10-7h-1v1ZM111 67c-1.587 0-10 4.272-10 6 2.582 0 10-3.504 10-6Z"/><path fill="#C7C8CC" id="alv" d="M128 67c-1.465 0-4-.109-4 2l4-2ZM287 67c-1.238 0-3 .423-3 2 1.238 0 3-.423 3-2Z"/><path fill="#4FC244" id="SUB" d="M283 90h4l1-1 3-2c0-7.004-2-14.669-2-20h-2c0 1.577-1.762 2-3 2l-1 1-2 1-2 1-4 1-6 3-1 1-1 1-1 1-1 2 1 5c5.321 0 10.813 4 17 4Z"/><path fill="#C7C8CC" id="alv" d="M329 67c1.238 0 3 .423 3 2l-3-2Z"/><path fill="#039299" id="AUDpo1" d="m45 81 4 3 11-14c0-2.99-3-.308-3-2-2.406 0-12 10.832-12 13Z"/><path fill="#029397" id="AUDd2/3" d="M67 75h1v-1l-6-6h-1v2c0 3.708 6 .256 6 5Z"/><path fill="#09828C" id="VISal6a" d="m82 87 2 1 3-3c0-1.747.253-2 2-2 0-1.03 9.154-10 11-10 0-2.364-3-3.053-3-5-1.674 0-18 14.218-18 16v1c1.747 0 2 .253 2 2h1ZM375 87l-2 1c-1.727 0-13.084-15-17-15l4-5c1.235 0 17 13.525 17 16v1l-1 1-1 1Z"/><path fill="#039299" id="AUDpo1" d="m411 81-4 3c0-5.007-10-8.775-10-14 0-1.965 1.288-2 3-2 1.522 0 11 11.074 11 13Z"/><path fill="#C7C8CC" id="alv" d="m124 69-2 1 2-1ZM284 69l-1 1 1-1ZM333 69c1.238 0 3 .423 3 2-1.238 0-3-.423-3-2Z"/><path fill="#029397" id="AUDd2/3" d="M396 70c-1.624 0-2.75 2-5 2 0-.966 2.886-3 4-3l1 1Z"/><path fill="#029199" id="AUDpo2/3" d="M55 89h1c0-6.623 11-8.149 11-14 0-4.744-6-1.292-6-5h-1L49 84v1c1.334 0 6 2.972 6 4Z"/><path fill="#C7C8CC" id="alv" d="m122 70-2 1 2-1ZM283 70l-2 1 2-1Z"/><path fill="#029199" id="AUDpo2/3" d="M401 89h1l5-4v-1c0-5.007-10-8.775-10-14h-1c-1.624 0-2.75 2-5 2 0 2.109 1.162 2-2 2v1c0 5.155 12 8.998 12 14Z"/><path fill="#C7C8CC" id="alv" d="m120 71-2 1 2-1Z"/><path fill="#7DCD4B" id="HPF" d="M195 83c0 1.803-3.592 3-5 3 0-1.423 1.978-3.544 1-5.5l-9-7.5 2-1 3-1c0 1.429-1.787 4 1 4l3 4 2 2c0 1.747.253 2 2 2ZM269 75v1l6-3-3-1-2-1-1 4Z"/><path fill="#C7C8CC" id="alv" d="m281 71-2 1 2-1ZM337 71c1.178 0 6 2.572 6 4-1.178 0-6-2.572-6-4ZM118 72l-2 1 2-1Z"/><path fill="#029397" id="AUDd2/3" d="m391 72-2 2c3.162 0 2 .109 2-2Z"/><path fill="#0B848C" id="VISal6b" d="M89 83h1c2.43 0 11-8.168 11-10h-1c-1.846 0-11 8.97-11 10Z"/><path fill="#C7C8CC" id="alv" d="m116 73-1 1 1-1Z"/><path fill="#0B848C" id="VISal6b" d="M372 89h1v-1c-1.727 0-13.084-15-17-15h-1l9 8 1 1 7 7Z"/><path fill="#C7C8CC" id="alv" d="m115 74-2 1 2-1Z"/><path fill="#039398" id="AUDd4" d="M388 75h1v-1h-1v1Z"/><path fill="#039298" id="AUDpo4" d="M56 89c0 1.577 1.762 2 3 2 0-5.072 10-9.651 10-14l-1-2h-1c0 5.851-11 7.377-11 14Z"/><path fill="#039398" id="AUDd4" d="M69 77h1l-2-2 1 2Z"/><path fill="#C7C8CC" id="alv" d="m113 75-2 1 2-1ZM344 75l2 2-2-2Z"/><path fill="#039398" id="AUDd4" d="m388 75-1 1 1-1Z"/><path fill="#039298" id="AUDpo4" d="M397 91h1l3-2c0-5.002-12-8.845-12-14h-1l-1 1v1c0 3 10 9.41 10 14Z"/><path fill="#C7C8CC" id="alv" d="m111 76-1 1 1-1Z"/><path fill="#7DCD4B" id="HPF" d="m269 76-1 1 1-1Z"/><path fill="#039398" id="AUDd4" d="M386 77h1v-1h-1v1Z"/><path fill="#019197" id="AUDpo5" fill-rule="evenodd" d="M72 80c0 5.613 5.613 0 0 0M59 92l10 6 9-13-8-8h-1c0 4.349-10 8.928-10 14v1Z"/><path fill="#029398" id="AUDd5" d="M78 85h1v-1l-8-7h-1l8 8Z"/><path fill="#C7C8CC" id="alv" d="m109 77-1 1 1-1Z"/><path fill="#7DCD4B" id="HPF" d="m268 77-1 1 1-1Z"/><path fill="#C7C8CC" id="alv" d="m347 77 1 1-1-1Z"/><path fill="#029398" id="AUDd5" d="m386 77-1 1c2.681 0 1 1.68 1-1Z"/><path fill="#019197" id="AUDpo5" d="M387 98h1c1.141 0 9-5.327 9-7 0-4.59-10-11-10-14h-1c0 2.68 1.681 1-1 1l-1 1-1 1-1 1-1 1c0 2.73-.423 1-2 1 0 2.68 1.681 1-1 1v1c1.923 0 9 10.897 9 13Z"/><path fill="#C7C8CC" id="alv" d="m108 78-1 1 1-1Z"/><path fill="#7DCD4B" id="HPF" d="m267 78-1 1v-1h1Z"/><path fill="#029398" id="AUDd5" d="m385 78-1 1 1-1Z"/><path fill="#7DCD4B" id="HPF" d="m266 79-1 2 1-2Z"/><path fill="#C7C8CC" id="alv" d="m350 79 2 2-2-2Z"/><path fill="#029398" id="AUDd5" d="m384 79-1 1 1-1ZM72 80c0 5.613 5.613 0 0 0ZM383 80l-1 1 1-1Z"/><path fill="#029297" id="AUDp1" d="M24 125h5c0-9.632 7.865-21.23 12-29.5 1.152-2.304 8-7.084 8-10.5v-1l-4-3c-1.884 0-6.19 7.879-7 9.5-5.362 10.725-14 21.732-14 34.5Z"/><path fill="#C7C8CC" id="alv" d="m104 81-1 1 1-1Z"/><path fill="#7DCD4B" id="HPF" d="M262 83c0 1.712 2.571 3 4 3l-1-5h-2l-1 2Z"/><path fill="#C9C9CA" id="scwm" d="m364 81 1 1-1-1Z"/><path fill="#029297" id="AUDp1" d="M428 125h4c0-12.692-7.7-22.9-13-33.5-1.298-2.596-5.018-10.5-8-10.5l-4 3v1c2.058 0 5.209 6.918 6 8.5 5.125 10.249 14 19.245 14 31.5h1Z"/><path fill="#C7C8CC" id="alv" d="m103 82-1 1 1-1ZM353 82l1 1-1-1Z"/><path fill="#029398" id="AUDd5" d="m381 82-2 1c1.577 0 2 1.73 2-1Z"/><path fill="#0B848C" id="VISal6b" d="M87 85h1l1-1v-1c-1.747 0-2 .253-2 2Z"/><path fill="#C9C9CA" id="scwm" d="m90 83-1 1v-1h1Z"/><path fill="#C7C8CC" id="alv" d="m355 83 3 3-3-3Z"/><path fill="#029398" id="AUDd5" d="m379 83-1 1c2.681 0 1 1.68 1-1Z"/><path fill="#FF64FF" id="MB" d="M190 143c4.221 0 11.805-4.348 18.5-1 1.541.77 6.221 6 6.5 6v-9c-1.579 0-1-2.855-1-4-.039 0-4.966 7.767-10.5 5-10.762-5.381 8.536-27.536 13.5-32.5 2.175-2.175 5.482-6.5 8.5-6.5.704 0 3.5 4.738 3.5 2l-3-5.5-8.5-10.5c-5.825-2.913-13.987-4.006-20-1-1.134.567-6.5.546-6.5 2h18l5.5-1c7.299 3.65 5.124 14-3.5 14 0 3.004-19.991 11-24 11l4 9.5c2.65 5.3-1 16.408-1 21.5ZM266 143c-3.535 0-9.886-4.307-14.5-2-2.175 1.088-4.925.962-7 2l-2.5 4v-8l1-2c4.35 0 5.975 4.763 11.5 2 5.773-2.886.077-9.345-1.5-12.5-4.156-8.313-12.664-24.5-24-24.5 0-9.734 15.289-21.606 24.5-17 1.723.861 11.5.815 11.5 3-2.298 0-17-3.331-17 1-1.984 0-3.945-3.278-6.5-2-8.465 4.233-3.416 14 3.5 14 0 2.79 20.889 11 25 11l-5 11.5c-2.473 4.945 1 14.687 1 19.5Z"/><path fill="#019399" id="AUDd6a" d="M377 85h1v-1h-1v1Z"/><path fill="#019298" id="AUDp2/3" d="m29 125 6 2c0-10.905 10.35-22.199 15-31.5l5-6.5c0-1.028-4.666-4-6-4 0 3.416-6.848 8.196-8 10.5-4.135 8.27-12 19.868-12 29.5Z"/><path fill="#029399" id="AUDpo6a" d="M69 99c2.25 0 3.376 2 5 2l8-11-3-5h-1l-9 13v1Z"/><path fill="#019399" id="AUDd6a" d="M82 90h1l1-1v-1l-2-1c0 1.186-1 1.186-1 0 0-1.747-.253-2-2-2l3 5Z"/><path fill="#0B848C" id="VISal6b" d="M84 89h1l2-3v-1l-3 3v1Z"/><path fill="#C9C9CA" id="scwm" d="m88 85-1 1v-1h1Z"/><path fill="#C7C8CC" id="alv" d="m99 85-1 1 1-1Z"/><path fill="#7BD04A" id="DG-mo" d="m95 131 1 2c3.602 0 12-1.962 12-7-2.362 0 .868-4.368 1.5-5 3.705-3.705 5.781-6.781 10-11 8.857-8.857 22.498-11.75 33-17 2.123-1.061 6.035-3.483 9-2 6.365 3.182-11.655 12.828-14 14-4.205 2.102-12.576 8.653-14.5 12.5-.724 1.448-2.768 6.5-5 6.5l-1 1v3l-1 2v1c0 2.717 7.495-6 9-6 0-1.747.253-2 2-2v-1l1-1h1l1-1 1-1h1l1-1 1-1 1-1 1-1h1l1-1 1-1h1l1-1 1-1h1l1-1 1-1 1-1 1-1h1l1-1 1-1c0-1.577 1.762-2 3-2 0-4.561 8-5.912 8-12l-2-1-3-3-8-2c-16.844 0-45.223 13.945-53 29.5-2.371 4.742-10 9.921-10 16.5ZM361 131l-1 2c-3.79 0-11-2.289-11-7 0-13.377-29.735-26.117-39.5-31-3.24-1.62-10.664-6.168-15-4-5.429 2.715 17.027 16.513 20 18 3.253 1.626 13.971 16 14.5 16v2l1 1v3c0 1.431-2.634.232-3-.5-1.124-2.249-10.71-12.5-13-12.5l-1-1-5-3-6-5h-1l-4-4h-1c0-4.368-11-7.76-11-13l2-2 1-1 3-2 8-2c17.386 0 45.86 15.221 54 31.5 2.516 5.032 8 8.469 8 14.5Z"/><path fill="#019399" id="AUDd6a" d="m377 85-1 1 1-1Z"/><path fill="#029399" id="AUDpo6a" d="M387 98c0 1.077-3.762 3-5 3 0-1.73-6.307-11-8-11v-1l1-2 1-1 1-1h1c1.923 0 9 10.897 9 13Z"/><path fill="#019298" id="AUDp2/3" d="M427 125c0 .913-5.014 2-6 2 0-9.91-7.816-19.133-12-27.5-1.607-3.214-7-6.8-7-10.5l5-4c2.058 0 5.209 6.918 6 8.5 5.125 10.249 14 19.245 14 31.5Z"/><path fill="#C7C8CC" id="alv" d="m98 86-1 1 1-1Z"/><path fill="#7DCD4B" id="HPF" d="m190 86-1 1 1-1Z"/><path fill="#019399" id="AUDd6a" d="m376 86-1 1 1-1Z"/><path fill="#029399" id="AUDpo6a" d="M81 87h1c0 1.186-1 1.186-1 0Z"/><path fill="#C7C8CC" id="alv" d="m97 87-1 1 1-1Z"/><path fill="#FF8FFC" id="NOT" d="m175 106-10 5v-6l1-2 1-1 1-1 1-1c0-5.504 15.846-11 20-11l1-1h19v1l-1 2-6.5 4c-3.334 1.667-23.5 6.062-23.5 10h-2l-1 1Z"/><path fill="#FF90FC" id="MPT" d="M208 91c0 4.208 3 8.137 3 10 8.624 0 10.799-10.35 3.5-14l-5.5 1v1l-1 2ZM248 92c0 2.325.01 9-3 9-6.916 0-11.965-9.767-3.5-14 2.555-1.278 4.516 2 6.5 2v3Z"/><path fill="#FF8FFC" id="NOT" d="M281 106c3.879 0 6.823 5 10 5v-7l-2-2c0-5.623-16.55-13-21-13l-2-1h-1c-2.298 0-17-3.331-17 1v1l1 2c1.892 0 19.734 7.617 22.5 9 1.604.802 7.5 1.39 7.5 4h1l1 1Z"/><path fill="#C7C8CC" id="alv" d="m360 87 1 1-1-1Z"/><path fill="#019399" id="AUDd6a" d="M373 89h1l1-2-2 1v1Z"/><path fill="#C7C8CC" id="alv" d="m96 88-1 1 1-1Z"/><path fill="#FF64FF" id="MB" d="m190 88-1 1 1-1ZM266 88l2 1-2-1Z"/><path fill="#039397" id="AUDp4" d="M35 127h3c1.758 0 2.301-7.103 3-8.5C42.572 115.356 56.789 92 59 92v-1c-1.238 0-3-.423-3-2h-1l-5 6.5c-4.65 9.301-15 20.595-15 31.5Z"/><path fill="#019398" id="AUDd6b" d="M83 90v1l2-2h-1l-1 1Z"/><path fill="#C7C8CC" id="alv" d="m95 89-1 1 1-1Z"/><path fill="#FF64FF" id="MB" d="m209 89-1 2 1-2Z"/><path fill="#7DCD4B" id="HPF" d="m288 89-1 1 1-1Z"/><path fill="#C7C8CC" id="alv" d="m362 89 1 1-1-1Z"/><path fill="#019398" id="AUDd6b" d="M373 90h1v-1h-2l1 1Z"/><path fill="#039397" id="AUDp4" d="M418 127h3c0-9.91-7.816-19.133-12-27.5-1.607-3.214-7-6.8-7-10.5h-1l-3 2c0 6.27 20 24.358 20 36Z"/><path fill="#029298" id="AUDpo6b" d="M74 102h1l8-11v-1h-1l-8 11v1Z"/><path fill="#C7C8CC" id="alv" d="m94 90-1 1 1-1Z"/><path fill="#7DCD4B" id="HPF" d="m173 90-2 1-2-1h4Z"/><path fill="#FF64FF" id="MB" d="M248 92h1l-1-2v2Z"/><path fill="#7DCD4B" id="HPF" d="m287 90-2 2-2-2h4Z"/><path fill="#029298" id="AUDpo6b" d="M381 102h1v-1c0-1.73-6.307-11-8-11h-1l8 12Z"/><path fill="#C7C8CC" id="alv" d="M93 91c-1.747 0-2 .253-2 2l2-2Z"/><path fill="#65A83D" id="DG-sg" d="M128 124c2.232 0 4.276-5.052 5-6.5 1.924-3.847 10.295-10.398 14.5-12.5 2.345-1.172 20.365-10.818 14-14-2.965-1.483-6.877.939-9 2-10.502 5.25-24.143 8.143-33 17-4.219 4.219-6.295 7.295-10 11-.632.632-3.862 5-1.5 5l13-12 2-1c0-2.268 5.956-4.228 7.5-5 7.04-3.52 13.057-8.528 20-12 5.975-2.988-4.559 6.279-6 7l-6 4-7.5 8-3 9Z"/><path fill="#FC8FFE" id="PPT" d="m183 108 4 4c4.009 0 24-7.996 24-11 0-1.863-3-5.792-3-10l-6.5 4c-3.334 1.667-23.5 6.062-23.5 10l2 1c0-8.04 20.266 1 6 1l-3 1Z"/><path fill="#65A83D" id="DG-sg" d="M329 125c-.529 0-11.247-14.374-14.5-16-2.973-1.487-25.429-15.285-20-18 4.336-2.168 11.76 2.38 15 4 9.765 4.883 39.5 17.623 39.5 31-5.193 0-8.163-12-14-12l-6.5-5-20-12c-.485-.242-5.5-1.635-5.5-.5l8 6 5.5 3.5 8.5 8 4 11Z"/><path fill="#C7C8CC" id="alv" d="m364 91 1 1-1-1Z"/><path fill="#039199" id="AUDp5" d="m418 128-15 4c0-10.215-15-28.29-15-34 1.141 0 9-5.327 9-7h1c0 6.27 20 24.358 20 36v1ZM38 128c5.356 0 10.233 5 15 5 0-8.933 7.18-18.861 11-26.5.772-1.544 2.732-7.5 5-7.5v-1l-10-6c-2.211 0-16.428 23.356-18 26.5-.699 1.397-1.242 8.5-3 8.5v1Z"/><path fill="#FC8FFE" id="PPT" d="m273 108-3 4c-4.111 0-25-8.21-25-11 3.01 0 3-6.675 3-9h1c1.892 0 19.734 7.617 22.5 9 1.604.802 7.5 1.39 7.5 4l-3 1c0-3.43-11-4.361-11-1.5 0 4.017 8 1.182 8 3.5Z"/><path fill="#C7C8CC" id="alv" d="m91 93-1 1 1-1ZM366 93l1 1-1-1ZM90 94l-1 1 1-1ZM89 95l-1 1 1-1ZM367 95l4 4-4-4ZM88 96l-1 1 1-1Z"/><path fill="#7ECE4A" id="DG-po" d="M123 113c1.949 0 8-.991 8 2l7.5-8 6-4c1.441-.721 11.975-9.988 6-7-6.943 3.472-12.96 8.48-20 12-1.544.772-7.5 2.732-7.5 5ZM325 114h10l-6.5-5-20-12c-.485-.242-5.5-1.635-5.5-.5l8 6 5.5 3.5 8.5 8Z"/><path fill="#C7C8CC" id="alv" d="m87 97-1 2 1-2Z"/><path fill="#019396" id="AUDp6a" d="M397 135h1l5-2v-1c0-10.215-15-28.29-15-34h-1c0 1.077-3.762 3-5 3v1c1.996 0 4.222 6.945 5 8.5 3.515 7.03 10 16.28 10 24.5ZM53 133l6 2c0-2.021 3.797-14 6-14 0-2.797 4.72-16 8-16 0-1.048-.473-3 1-3v-1c-1.624 0-2.75-2-5-2-2.268 0-4.228 5.956-5 7.5-3.82 7.639-11 17.567-11 26.5Z"/><path fill="#C7C8CC" id="alv" d="m86 99-1 1 1-1ZM85 100l-1 1 1-1Z"/><path fill="#FF64FF" id="MB" d="m169 100-1 1 1-1Z"/><path fill="#C7C8CC" id="alv" d="m371 100 2 2-2-2ZM84 101l-1 2 1-2Z"/><path fill="#FF8DFE" id="NPC" d="M214 134v1c-.039 0-4.966 7.767-10.5 5-10.762-5.381 8.536-27.536 13.5-32.5 2.175-2.175 5.482-6.5 8.5-6.5.704 0 3.5 4.738 3.5 2v-1c11.336 0 19.844 16.187 24 24.5 1.577 3.155 7.273 9.614 1.5 12.5-5.525 2.763-7.15-2-11.5-2l-1-4-1-1c0-7.25-12-10.038-12-13 0-3.644-2-2.726-2 0 0 2.922-12 6.577-12 14l-1 1Z"/><path fill="#039198" id="AUDp6b" d="M75 102c0 1.238-.423 3-2 3 0-1.048-.473-3 1-3h1Z"/><path fill="#FF64FF" id="MB" d="m167 102-1 1 1-1ZM291 103v1l-2-2 2 1Z"/><path fill="#039198" id="AUDp6b" d="M396 135h1c0-8.22-6.485-17.47-10-24.5-.778-1.555-3.004-8.5-5-8.5h-1l4 7 2 4 1 3 1 1v2l1 1v1l3 6v1c1.638 0 2 3.576 2 5v1l1 1Z"/><path fill="#C7C8CC" id="alv" d="m83 103-1 1 1-1Z"/><path fill="#C7CBCB" id="bsc" d="m127 141-1 1c-1.156 0-1.472-2.555-1-3.5 1.973-3.945 10-9.937 10-13.5l2-2 1-1 1-1 1-1 1-1h1l1-1 1-1h1l1-1 1-1h1l1-1 1-1h1l1-1 1-1 1-1 1-1h1l1-1 1-1 1-1h1l1-1 2-2h2v3l-2 3.5-4 3.5-8 6c-1.238 0-3 .423-3 2h-1l-1 1-1 1c-3.836 0-16 9.626-16 14l-1 1-1 1v2Z"/><path fill="#FF64FF" id="MB" d="m166 103-1 2v-2h1Z"/><path fill="#FE90FC" id="OP" d="m180 106 3 2 3-1c14.266 0-6-9.04-6-1ZM276 106l-3 2c0-2.318-8 .517-8-3.5 0-2.861 11-1.93 11 1.5Z"/><path fill="#C7CBCB" id="bsc" d="M329 139v1c9.478 0-15-19.721-15-22h-1l-5-4-4-2-3-3-3-2-2-2c-1.624 0-2.75-2-5-2v2l6 8 2.5 2c2.577 1.289 11.5 5.325 11.5 8h1c3.072 0 15 9.837 15 13l2 2v1Z"/><path fill="#C7C8CC" id="alv" d="M373 103c1.533 0 4 3.753 4 5l-4-5ZM82 104l-1 1 1-1Z"/><path fill="#039198" id="AUDp6b" d="m67 120-2 1c0-2.797 4.72-16 8-16l-1 4-1 2-1 2-1 1v1l-1 1v1l-1 1v2Z"/><path fill="#CAC7CB" id="fiber tracts" d="m161 105-1 1v-1h1Z"/><path fill="#FF64FF" id="MB" d="m176 105-1 1 1-1Z"/><path fill="#FE8EFF" id="APN" d="M165 157c2.466 0 5.447 6 11 6 6.762 0 14-14.47 14-20 0-5.092 3.65-16.2 1-21.5l-4-9.5-4-4-3-2-2-1h-2l-1 1-10 5-4 4-1 6c0 3.242-.105 25.29 1 27.5l3 6.5 1 1v1ZM288 161l-7 2c-7.157 0-10.436-9.372-13-14.5-.492-.984-.851-5.5-2-5.5 0-4.813-3.473-14.555-1-19.5l5-11.5 3-4 3-2 3-1h1l1 1c3.879 0 6.823 5 10 5l4 4 1 6v24.5c-1.014 2.028-4 8.538-4 10.5l-1 1-1 2-1 1-1 1Z"/><path fill="#FF64FF" id="MB" d="m280 105 1 1-1-1ZM297 113c-1.747 0-2 .253-2 2l-4-4v-6l6 8Z"/><path fill="#CAC7CB" id="fiber tracts" d="m297 105 1 2-2-2h1Z"/><path fill="#C7C8CC" id="alv" d="M81 106c-1.577 0-2 1.762-2 3 1.577 0 2-1.762 2-3Z"/><path fill="#FF64FF" id="MB" d="m160 113 1 2 4-4v-5l-2 3.5-4 3.5h1Z"/><path fill="#CAC7CB" id="fiber tracts" d="m158 107-1 1v-1h1ZM157 108l-1 1v-1h1Z"/><path fill="#CCC8CA" id="ar" d="M72 109c2.026 0-.104 2-1 2l1-2Z"/><path fill="#CAC7CB" id="fiber tracts" d="m302 109 2 3-3-3h1Z"/><path fill="#C7C8CC" id="alv" d="M377 109c1.577 0 2 1.762 2 3l-2-3Z"/><path fill="#CCC8CA" id="ar" d="M385 109c-2.654 0 .733 4 2 4l-2-4Z"/><path fill="#C7C8CC" id="alv" d="m79 110-1 1 1-1Z"/><path fill="#CCC8CA" id="ar" d="m71 111-1 2 1-2Z"/><path fill="#C7C8CC" id="alv" d="m78 111-1 2 1-2Z"/><path fill="#CAC7CB" id="fiber tracts" d="m153 111-1 1v-1h1ZM152 112l-1 1v-1h1Z"/><path fill="#CCC8CA" id="ar" d="m70 113-1 1 1-1Z"/><path fill="#C7C8CC" id="alv" d="m77 113-1 2 1-2Z"/><path fill="#7ECE4A" id="DG-po" d="m123 113-2 1 2-1Z"/><path fill="#7ECF49" id="CA3" d="M145 239h2c0-2.293.997-2 3-2l3 1c0-.913 5.014-2 6-2v-1l-3-4h-1c-1.712 0-3-2.571-3-4l-1-1c-2.538 0-10-9.905-10-12v-1c-3.206 0-6.821-12.141-8-14.5-4.573-9.145-9.443-17.886-14-27l-3-11c-1.732-3.464 2.792-20.5 5-20.5 0-1.465-.109-4 2-4v-1l1-2 1-1v-1l1-1 1-2v-3l1-1 3-9c0-2.991-6.051-2-8-2l-2 1-13 12c0 5.038-8.398 7-12 7 0 1.216-7.898 10.296-9 12.5-5.656 11.313 1.437 33.874 6 43 3.06 6.12 26.561 32.531 32.5 35.5 1.792.896 16.5 13.182 16.5 14l3 1Z"/><path fill="#CAC7CB" id="fiber tracts" d="m150 113-1 1v-1h1ZM158 116c-2.538 0-3.953 3-7 3l8-6h1l-1 2-1 1ZM299 116l12 7c0-2.675-8.923-6.711-11.5-8l-2.5-2c0 2.215 2 1.519 2 3Z"/><path fill="#7ECF49" id="CA3" d="M310 239h1l3-1 2-1 1-1c0-1.712 2.571-3 4-3 0-2.793 12.433-12.467 15.5-14 5.324-2.662 25.173-26.847 28.5-33.5 4.925-9.85 9.537-29.927 4-41-1.344-2.688-9-8.833-9-11.5-3.79 0-11-2.289-11-7-5.193 0-8.163-12-14-12h-10l4 11v2l1 1v1l1 2 1 1v1l1 1v1c4.962 0 7 21.345 7 26.5 0 1.536-1.28 8.5-3 8.5 0 1.831-2.183 9-4 9l-1 2-1 2-1 2-1 2-1 2-1 2-1 2-1 2-1 2-1 2-1 2-1 2-1 2-1 2-1 2-1 2-1 2-1 1-1 2-1 1c0 1.238-.423 3-2 3l-1 1-1 1v1l-2 2-1 1-1 1-1 1-1 1-1 1-1 1-1 1-1 1-1 2c0 3.232 5 .827 5 3l3-1c1.465 0 4-.109 4 2Z"/><path fill="#C7C8CC" id="alv" d="m379 113 2 2-2-2Z"/><path fill="#CAC7CB" id="fiber tracts" d="m149 114-1 1v-1h1ZM313 117v1l-5-4 5 3Z"/><path fill="#CCC8CA" id="ar" d="m69 115-1 1 1-1Z"/><path fill="#C7C8CC" id="alv" d="m76 115-1 1 1-1Z"/><path fill="#CAC7CB" id="fiber tracts" d="m147 115-1 1v-1h1Z"/><path fill="#FE909D" id="LP" d="M141 134h15c0-4.712.255-13 4-13l1-6h-2l-1 1c-2.538 0-3.953 3-7 3 0 1.577-1.762 2-3 2h-1l-1 1-1 1c0 1.864-12.537 11-4 11ZM300 133l3.5 2 11.5-1c9.564 0-3-7.927-3-11h-1l-12-7-4-1 1 6 2.5-1 1.5 13Z"/><path fill="#CAC7CB" id="fiber tracts" d="m146 116-1 1v-1h1Z"/><path fill="#FF64FF" id="MB" d="M227 119h2c0-3.644-2-2.726-2 0Z"/><path fill="#C7C8CC" id="alv" d="m381 116 2 3c-1.577 0-2-1.762-2-3Z"/><path fill="#CCC8CA" id="ar" d="m388 116 1 1-1-1ZM68 117l-1 1 1-1Z"/><path fill="#C7C8CC" id="alv" d="m75 117-1 2 1-2Z"/><path fill="#CAC7CB" id="fiber tracts" d="m144 117-1 1 1-1ZM143 118l-1 1 1-1ZM337 170l-2 1c0-1.838 3.329-13-1-13 0-1.472-1.562-11-3-11v-3l-1-1-1-3c9.478 0-15-19.721-15-22 2.29 0 11.876 10.251 13 12.5.366.732 3 1.931 3 .5h1v1l1 1v1l1 1c0 2.102 4.79 16.08 6 18.5 2.258 4.516-2 11.97-2 16.5Z"/><path fill="#C7C8CC" id="alv" d="m74 119-1 1 1-1Z"/><path fill="#CAC7CB" id="fiber tracts" d="m141 119-1 1 1-1ZM151 119c-1.238 0-3 .423-3 2 1.238 0 3-.423 3-2Z"/><path fill="#CCCACA" id="pc" d="m243 137-1 2-3-5.5c-1.604-3.207-5.803-5.5-9-5.5h-4c-4.942 0-11 6.064-11 11-1.579 0-1-2.855-1-4v-1l1-1c0-7.423 12-11.078 12-14h2c0 2.962 12 5.75 12 13l1 1 1 4Z"/><path fill="#CCC8CA" id="ar" d="m389 119 1 1-1-1ZM65 121v3l2-4-2 1Z"/><path fill="#CAC7CB" id="fiber tracts" d="m140 120-1 1 1-1Z"/><path fill="#FF8D9D" id="POL" d="m172 167-4 1-8-9.5c-2.243-4.485-4-10.145-4-15.5v-9c0-4.712.255-13 4-13 0 3.242-.105 25.29 1 27.5l3 6.5 1 1v1l7 10ZM285 167c0 1.473 1.952 1 3 1l7-7.5c3.069-6.138 5-10.994 5-18.5v-9l-1.5-13-2.5 1v24.5c-1.014 2.028-4 8.538-4 10.5l-1 1-1 2-1 1-1 1-2 3-1 1v2Z"/><path fill="#C7C8CC" id="alv" d="M383 120c1.577 0 2 1.762 2 3-1.577 0-2-1.762-2-3Z"/><path fill="#039198" id="AUDp6b" d="M60 135h1v-1l1-2c0-1.048-.473-3 1-3v-2l1-1 1-2v-3c-2.203 0-6 11.979-6 14h1Z"/><path fill="#C7C8CC" id="alv" d="M73 121c-2.109 0-2 2.535-2 4l2-4Z"/><path fill="#CAC7CB" id="fiber tracts" d="m139 121-1 1v-1h1ZM147 121l-1 1 1-1Z"/><path fill="#CCC8CA" id="ar" d="m390 121 3 6c-1.89 0-3-4.598-3-6Z"/><path fill="#CAC7CB" id="fiber tracts" d="m138 122-1 1v-1h1ZM146 122l-1 1 1-1ZM137 123c-1.747 0-2 .253-2 2l2-2Z"/><path fill="#FF6F80" id="TH" d="M129 137c3.699 0 8-9.817 8 0l3-1 1-2c-8.537 0 4-9.136 4-11-3.836 0-16 9.626-16 14ZM327 136c-4.209 0-7-7.036-7 2l-4-2-1-2c9.564 0-3-7.927-3-11 3.072 0 15 9.837 15 13Z"/><path fill="#CCC8CA" id="ar" d="m65 124-1 2 1-2Z"/><path fill="#65A83D" id="DG-sg" d="m128 124-1 1 1-1Z"/><path fill="#C7C8CC" id="alv" d="M393 143v5c-1.647 0-1.338-7.176-2-8.5-1.954-3.907-6-11.127-6-15.5 1.635 0 5.932 13.365 7 15.5.523 1.046-.951 3.5 1 3.5Z"/><path fill="#019099" id="AUDv1" d="M22 146c0 .828 3.378 0 5 0 0-7.375 2-14.579 2-21h-5c0 6.458-2 13.649-2 21Z"/><path fill="#029198" id="AUDv2/3" d="m27 146 6 1c0-7.241 2-13.281 2-20l-6-2c0 6.421-2 13.625-2 21Z"/><path fill="#C7C8CC" id="alv" d="m71 125-1 2 1-2Z"/><path fill="#CAC7CB" id="fiber tracts" d="m124 179 4 7v-13h-1c0 2.407-3.05 2.399-4 .5-.765-1.53-6.207-15.5-1-15.5l3-10v-3l1-1v-2c-1.156 0-1.472-2.555-1-3.5 1.973-3.945 10-9.937 10-13.5-1.505 0-9 8.717-9 6h-1v2l-1 1-1 1v1l-2 4c0 6.179-6.614 16.272-3 23.5 1.506 3.012 5 10.286 5 13.5 1.652 0 3.092 2 1 2Z"/><path fill="#029198" id="AUDv2/3" d="M429 146c-1.564 0-3.876 1-6 1 0-7.089-2-14.55-2-20 .986 0 6-1.087 6-2h1c0 6.761 1 13.753 1 21Z"/><path fill="#019099" id="AUDv1" d="M429 146c2.124 0 4.436 1 6 1 0-4.468-.042-12.584-2-16.5-.619-1.238 1.144-5.5-1-5.5h-4c0 6.761 1 13.753 1 21Z"/><path fill="#CCC8CA" id="ar" d="m64 126-1 1 1-1Z"/><path fill="#029197" id="AUDv4" d="M33 147h3l2-19v-1h-3c0 6.719-2 12.759-2 20Z"/><path fill="#C7C8CC" id="alv" d="m70 127-1 2 1-2Z"/><path fill="#FF78FE" id="SCO" d="M228 130h1l1-2h-4c0 1.747.253 2 2 2Z"/><path fill="#7DCD4B" id="HPF" d="m329 127 1 1-1-1Z"/><path fill="#029197" id="AUDv4" d="M420 147h3c0-7.089-2-14.55-2-20h-3v1c0 6.126 2 12.304 2 19Z"/><path fill="#019098" id="AUDv5" d="M36 147c4.725 0 9.879 1 14 1 0-5.042 3-10.338 3-15-4.767 0-9.644-5-15-5l-2 19Z"/><path fill="#7DCD4B" id="HPF" d="m127 128-1 2 1-2Z"/><path fill="#FC8FFF" id="PAG" d="M225 177c1.639 0 2.455-2 3.5-2 .392 0 1.56 2 3.5 2l1-2c1.539 0 3-1.342 3-3 0-5.978-7.582-3.336-3-12.5 1.691-3.381 4.138-3.5 8-3.5v-7l1-1v-9l-3-5.5c-1.604-3.207-5.803-5.5-9-5.5l-1 2v1l-.5 10c-.274 0-1.552-10-.5-10v-1c-1.747 0-2-.253-2-2-4.942 0-11 6.064-11 11v9c0 2.707 1 5.903 1 8 3.082 0 12.194 3.112 9 9.5-.706 1.412-5 5.954-5 6.5l3 3 2 2Z"/><path fill="#CCC8CA" id="ar" d="M393 128c1.638 0 2 3.576 2 5-1.014 0-2-3.959-2-5Z"/><path fill="#019098" id="AUDv5" d="M406 148h1c3.823 0 8.586-1 13-1 0-6.696-2-12.874-2-19l-15 4v1c2.122 0 3 12.788 3 15Z"/><path fill="#CCC8CA" id="ar" d="M63 129c-1.473 0-1 1.952-1 3 1.473 0 1-1.952 1-3Z"/><path fill="#C7C8CC" id="alv" d="M69 129c-1.638 0-2 3.576-2 5 1.638 0 2-3.576 2-5Z"/><path fill="#7DCD4B" id="HPF" d="M330 131h1l-1-2v2ZM125 131h1v-1l-1 1Z"/><path fill="#FF64FF" id="MB" d="M228 131h1v-1h-1v1Z"/><path fill="#7DCF4B" id="CA2" d="M141 238h1c0-.818-14.708-13.104-16.5-14-5.939-2.969-29.44-29.38-32.5-35.5-4.563-9.126-11.656-31.687-6-43 1.102-2.204 9-11.284 9-12.5l-1-2c-7.448 0-15.483 28.535-12 35.5 1.76 3.521.273 8.546 2 12 6.793 13.586 23.501 37.501 37.5 44.5 4.706 2.353 14.284 15 18.5 15Z"/><path fill="#A9A9A8" id="AQ" d="M228 131h1l-.5 10c-.274 0-1.552-10-.5-10Z"/><path fill="#C7C8CC" id="alv" d="M331 132h1l-1-1v1Z"/><path fill="#7DCF4B" id="CA2" d="M360 133c0 2.667 7.656 8.812 9 11.5 5.537 11.073.925 31.15-4 41-3.327 6.653-23.176 30.838-28.5 33.5-3.067 1.533-15.5 11.207-15.5 14 7.183 0 12.524-12.012 18.5-15 14.442-7.221 33.5-36.066 33.5-51 0-12.638.979-23.521-8-32.5-1.59-1.59-1.805-3.5-4-3.5l-1 2Z"/><path fill="#CCC8CA" id="ar" d="M61 134h1v-2l-1 2Z"/><path fill="#C7C8CC" id="alv" d="M124 133h1v-1l-1 1Z"/><path fill="#FE8083" id="LGd-sh" d="M127 151h1l3-3v-1l1-2 1-1 2-4 1-1v-1l1-1c0-9.817-4.301 0-8 0l-1 2-1 1v1l-1 2v1l-1 1v3l2 3Z"/><path fill="#FF64FF" id="MB" d="m241 132 1 1-1-1Z"/><path fill="#7DCD4B" id="HPF" d="M332 132v1l-1-1h1Z"/><path fill="#019397" id="AUDv6a" d="m50 148 6 1c0-5.029 3-9.415 3-14l-6-2c0 4.662-3 9.958-3 15Z"/><path fill="#C7C8CC" id="alv" d="m124 134-1 1 1-2v1Z"/><path fill="#7DCD4B" id="HPF" d="m125 133-1 1v-1h1Z"/><path fill="#FF64FF" id="MB" d="m215 133-1 1 1-1Z"/><path fill="#FF8E9D" id="SGN" d="M307 144h3l6-8-1-2-11.5 1-3.5-2v9c1.835 0 4.235 2 7 2Z"/><path fill="#FE8083" id="LGd-sh" d="m330 151-1 1-4-5-1-3-1-1-2-4-1-1c0-9.036 2.791-2 7-2v1l2 2v1l1 3 1 1v6l-1 1Z"/><path fill="#C7C8CC" id="alv" d="M332 134h1l-1-1v1Z"/><path fill="#019397" id="AUDv6a" d="M400 149h1l5-1c0-2.212-.878-15-3-15l-5 2c0 5.03 2 8.72 2 14Z"/><path fill="#C8C9CA" id="fp" d="m62 134-1 1v-1h1Z"/><path fill="#C7C8CC" id="alv" d="M67 134c-1.663 0-2 5.407-2 7 1.663 0 2-5.407 2-7Z"/><path fill="#FF8E9D" id="SGN" d="M146 144h3c2.409 0 5.181-1 7-1v-9h-15l-1 2 6 8Z"/><path fill="#7DCD4B" id="HPF" d="M333 134v1l-1-1h1Z"/><path fill="#CCC8CA" id="ar" d="m395 137 2 2-1-4-1-1v3Z"/><path fill="#019198" id="AUDv6b" d="M56 149h1v-1c0-.706 1.325-6 2-6v-2l1-2v-3h-1c0 4.585-3 8.971-3 14Z"/><path fill="#CCC8CA" id="ar" d="M60 138h1v-3h-1v3Z"/><path fill="#C7C8CC" id="alv" d="M333 135c4.962 0 7 21.345 7 26.5 0 1.536-1.28 8.5-3 8.5 0-4.53 4.258-11.984 2-16.5-1.21-2.42-6-16.398-6-18.5Z"/><path fill="#019198" id="AUDv6b" d="M399 149h1c0-5.28-2-8.97-2-14h-2l1 4v2c1.663 0 2 5.407 2 7v1Z"/><path fill="#C7C8CC" id="alv" d="M123 136c-2.109 0-2 2.535-2 4l2-4Z"/><path fill="#FE7F82" id="MGd" d="m132 147 6.5-2 6.5 2 1-3-6-8-3 1v1l-1 1-1 1-2 4-1 1v2ZM311 147l8.5-2 5.5 2-1-3-1-1-2-4-1-1-4-2-6 8 1 3Z"/><path fill="#CAC7CB" id="fiber tracts" d="m327 137 2 1-2-2v1Z"/><path fill="#FF6F80" id="TH" d="M128 138v1l1-2-1 1Z"/><path fill="#FE7F84" id="LGd-co" d="M136 138h1v-1l-1 1Z"/><path fill="#FF6F80" id="TH" d="M329 138v1l-2-2 2 1Z"/><path fill="#C8C9CA" id="fp" d="M397 141v2c-.913 0-2-5.014-2-6l2 2v2Z"/><path fill="#CCC8CA" id="ar" d="m60 138-1 2 1-2Z"/><path fill="#C8C9CA" id="fp" d="m59 142 1 1 1-5h-1l-1 2v2Z"/><path fill="#CAC7CB" id="fiber tracts" d="M127 139h1v-1l-1 1Z"/><path fill="#FF6F80" id="TH" d="m137 138-1 1v-1h1Z"/><path fill="#FE7F84" id="LGd-co" d="m320 138 1 1-1-1Z"/><path fill="#FF6F80" id="TH" d="m128 139-1 1v-1h1Z"/><path fill="#FE7F84" id="LGd-co" d="m136 139-1 1 1-1Z"/><path fill="#C7C8CC" id="alv" d="m129 188 12 25c-3.206 0-6.821-12.141-8-14.5-4.573-9.145-9.443-17.886-14-27l-3-11c-1.732-3.464 2.792-20.5 5-20.5 0 6.179-6.614 16.272-3 23.5 1.506 3.012 5 10.286 5 13.5l1 2 4 7 1 2ZM63 144v6c1.274 0 2-7.483 2-9l-2 3Z"/><path fill="#FF6F80" id="TH" d="M126 142v1l1-2-1 1Z"/><path fill="#FF8FFD" id="MRN" d="m181 193-6-7.5c0-1.702 2.735-3.382 4.5-2.5l13.5 10c10.521 0 26-9.574 26-21v-1c-9.776 0-8.467-13-3-13v-2c0-2.097-1-5.293-1-8-.279 0-4.959-5.23-6.5-6-6.695-3.348-14.279 1-18.5 1 0 5.53-7.238 20-14 20l-4 5v6c0 4.534-4.71 4-8 4 0 1.676-4.954 3.592-3 7.5 3.419 6.838 13.298 7.5 20 7.5ZM263 193c4.219 0 9.69-8.095 13.5-10 1.679-.84 6.028.444 4.5 3.5l-6 6.5c8.668 0 16.847-1.194 21-9.5 1.545-3.09-4-3.915-4-5.5-2.774 0-7 .377-7-3-1.735 0-1-6.51-1-8-1.712 0-3-2.571-3-4-7.157 0-10.436-9.372-13-14.5-.492-.984-.851-5.5-2-5.5-3.535 0-9.886-4.307-14.5-2-2.175 1.088-4.925.962-7 2l-2.5 4v1l-1 1v9c5.838 0 4.405 11.047.5 13l-4.5-1v2c0 9.974 16.111 21 26 21Z"/><path fill="#CCC8CA" id="ar" d="M398 148h1c0-1.593-.337-7-2-7v2c0 1.235-.643 5 1 5ZM57 148h1c1.014 0 2-3.959 2-5l-1-1c-.675 0-2 5.294-2 6Z"/><path fill="#FF7E82" id="PoT" d="M291 171c1.606 0 4.339-2.081 6.5-1l6.5 2c0-1.577 1.762-2 3-2 0-.656-3.319-4.138-4-5.5-3.093-6.186 4-17.04 4-20.5-2.765 0-5.165-2-7-2 0 7.506-1.931 12.362-5 18.5l-7 7.5 3 3Z"/><path fill="#C8CBCC" id="ec" d="M63 151c-2.495 0 .495 5-2 5 0-2.312-.379-13 2-13v8Z"/><path fill="#FF7E82" id="PoT" d="M166 171c-1.804 0-5.136-2.182-7.5-1l-5.5 2c0-1.577-1.762-2-3-2l3-4.5v-14c-.74-1.479-4-6.906-4-7.5 2.409 0 5.181-1 7-1 0 5.355 1.757 11.015 4 15.5l8 9.5-2 3Z"/><path fill="#FF6F80" id="TH" d="m323 143 1 1-1-1ZM330 143l1 1-1-1Z"/><path fill="#C8CBCC" id="ec" d="m385 199-2 6c2.395 0 10.542-17 12-17v-1c0-1.593.337-7 2-7 0-2.254.317-15 2-15v-9c-1.909 0-.099 5.201-2.5 4l-2.5-17h-1v6c2.311 0 2 10.244 2 12.5 0 11.037-.473 19.945-5 29-.827 1.655-2.559 8.5-5 8.5Z"/><path fill="#FF6F80" id="TH" d="m126 144-1 1 1-1ZM133 144l-1 1 1-1Z"/><path fill="#FD7F83" id="MGm" d="M135 166c0 3.759 11.898 4 15 4l3-4.5v-14c-.74-1.479-4-6.906-4-7.5h-3l-1 3 2 3.5c2.024 4.048-1.778 13.139-4.5 14.5H135v1ZM321 166c0 4.074-10.897 4-14 4 0-.656-3.319-4.138-4-5.5-3.093-6.186 4-17.04 4-20.5h3l1 3c0 9.592-4.894 18 10 18v1Z"/><path fill="#FF6F80" id="TH" d="M131 147h1v-2l-1 2Z"/><path fill="#FE7E83" id="MGv" d="m131 148-2 8.5c.715 1.431 6 8.247 6 8.5h7.5c2.722-1.361 6.524-10.452 4.5-14.5l-2-3.5-6.5-2-6.5 2-1 1ZM325 147c0 3.463 5.578 18-4 18-14.894 0-10-8.408-10-18l8.5-2 5.5 2Z"/><path fill="#15B0B3" id="TEa1" d="m28 166-5 1c0-5.139-1-10.395-1-16 0-1.424-1.762-5 0-5 0 .828 3.378 0 5 0v14.5c0 1.19-.614 4.5 1 4.5v1Z"/><path fill="#16AFB3" id="TEa2/3" d="M36 164c0 1.735-6.51 1-8 1-1.614 0-1-3.31-1-4.5V146l6 1c0 6.294 3 11.653 3 17ZM420 164c2.389 0 5.987 1 9 1v-19c-1.564 0-3.876 1-6 1 0 6.9-3 13.883-3 17Z"/><path fill="#15B0B3" id="TEa1" d="m429 166 4 1c0-6.254 2-13.578 2-20-1.564 0-3.876-1-6-1v20Z"/><path fill="#15B0B2" id="TEa4" d="M36 164h2l-2-17h-3c0 6.294 3 11.653 3 17Z"/><path fill="#15AFB3" id="TEa5" d="M39 164h10c0-5.479 1-11.075 1-16-4.121 0-9.275-1-14-1l2 17h1Z"/><path fill="#FE7F82" id="MGd" d="m132 147-1 1v-1h1Z"/><path fill="#FF6F80" id="TH" d="M303 177h7l7-2c0-1.638 3.576-2 5-2l1-1h2c1.048 0 3-.473 3 1h1c0-3.03-3.246-15 5-15 0-1.472-1.562-11-3-11v3l-1 1-1 1-4-5c0 3.463 5.578 18-4 18v1c7.562 0-11.09 9-15 9l-3 2Z"/><path fill="#15AFB3" id="TEa5" d="M407 164h11c0-5.373 2-11.151 2-17-4.414 0-9.177 1-13 1v16Z"/><path fill="#15B0B2" id="TEa4" d="M418 164h2c0-3.117 3-10.1 3-17h-3c0 5.849-2 11.627-2 17Z"/><path fill="#15AFB2" id="TEa6a" d="M57 164v1c-2.097 0-5.293-1-8-1 0-5.479 1-11.075 1-16l6 1c0 4.933 1 10.73 1 15Z"/><path fill="#C8CBCC" id="ec" d="M79 214h1l-11-17.5c-6.016-12.032-8-22.794-8-37.5-4.509 0-3-6.087-3-11h-1v1c0 5.039 1 10.575 1 15l3 22v1l4 7.5 11 15c.592 1.185 1.012 4.5 3 4.5Z"/><path fill="#FF6F80" id="TH" d="M147 177h6c0-1.481-2-.785-2-3-3.083 0-6.108.696-9.5-1-1.309-.655-11.547-7-6.5-7v-1c0-.253-5.285-7.069-6-8.5l2-8.5-3 3c0 1.186-1 1.186-1 0l-2-3-3 10c7.247 0 6 9.537 6 14h5l6 3 4 1 1 1h3Z"/><path fill="#FF64FF" id="MB" d="m242 148-1 1 1-1Z"/><path fill="#C8CBCC" id="ec" d="M399 149v3c-1.579 0-1-2.855-1-4h1v1Z"/><path fill="#15AFB2" id="TEa6a" d="M400 164h7v-16h-1l-5 1-1 15Z"/><path fill="#16B0B2" id="TEa6b" d="M57 164h1c0-4.425-1-9.961-1-15h-1c0 4.933 1 10.73 1 15Z"/><path fill="#C7C8CC" id="alv" d="M393 149c2.311 0 2 10.244 2 12.5 0 11.037-.473 19.945-5 29-.827 1.655-2.559 8.5-5 8.5 0-5.552 5.513-15.526 8-20.5 3.335-6.67 0-21.839 0-29.5Z"/><path fill="#16B0B2" id="TEa6b" d="M399 165h1v-1l1-15h-2v16Z"/><path fill="#FE7F84" id="LGd-co" d="m331 150-1 1 1-1Z"/><path fill="#C7C8CC" id="alv" d="M116 237h3c0-1.844-8.852-4.176-10.5-5-5.479-2.74-23.738-11.976-26.5-17.5-5.159-10.317-11.891-19.782-17-30-4.263-8.526-2-23.394-2-33.5-2.495 0 .495 5-2 5v3c0 14.706 1.984 25.468 8 37.5L80 214c0 2.907 22.281 16.391 25.5 18l8.5 4h1l1 1Z"/><path fill="#FE7F84" id="LGd-co" d="M127 151h1c0 1.186-1 1.186-1 0ZM330 151l-1 1 1-1Z"/><path fill="#FF64FF" id="MB" d="m164 155 1 1-1-1Z"/><path fill="#FD8FFD" id="ND" d="M219 172h1c0-.546 4.294-5.088 5-6.5 3.194-6.388-5.918-9.5-9-9.5v2l1 3 1 1v1l1 2v7ZM236 172h1v-5c0-1.048-.473-3 1-3v-1l1-1v-2l1-1 1-1v-2c-3.862 0-6.309.119-8 3.5-4.582 9.164 3 6.522 3 12.5Z"/><path fill="#FF64FF" id="MB" d="m292 156-1 1 1-1ZM172 167v1l4-5c-5.553 0-8.534-6-11-6l7 10ZM291 157l-1 2 1-2Z"/><path fill="#FF8E9F" id="LGv" d="m128 172-1 1c0 2.407-3.05 2.399-4 .5-.765-1.53-6.207-15.5-1-15.5 7.247 0 6 9.537 6 14Z"/><path fill="#FF90FD" id="INC" d="M219 165v6c-9.776 0-8.467-13-3-13l1 3 1 1v1l1 2Z"/><path fill="#FF8FFD" id="MRN" d="m241 158-1 1 1-1Z"/><path fill="#FF90FD" id="INC" d="M237 167v3l4.5 1c3.905-1.953 5.338-13-.5-13l-1 1-1 1v2l-1 1v1c0 1.048.473 3-1 3Z"/><path fill="#FF8E9F" id="LGv" d="M335 171c-.038 0-6 7.672-6 2 0-3.03-3.246-15 5-15 4.329 0 1 11.162 1 13Z"/><path fill="#FF8FFD" id="MRN" d="m240 159-1 1 1-1Z"/><path fill="#FF64FF" id="MB" d="m290 159-1 1 1-1ZM289 160l-1 1 1-1Z"/><path fill="#FF8FFD" id="MRN" d="m217 161 1 1-1-1Z"/><path fill="#FF64FF" id="MB" d="M284 167h1v-2l1-1 2-3-7 2c0 1.429 1.288 4 3 4Z"/><path fill="#FF8FFD" id="MRN" d="m239 162-1 1 1-1ZM218 163l1 2-1-2Z"/><path fill="#0D9F91" id="ECT2/3" d="M35 181h9l-5-17h-3c0 1.735-6.51 1-8 1v1c0 6.231 7 8.526 7 15Z"/><path fill="#0D9E90" id="ECT5" d="M44 181c3.504 0 6.547 3 10 3 0-6.543-5-12.445-5-20H39l5 17Z"/><path fill="#0E9F91" id="ECT6a" d="M60 187h1v-1c-1.186 0-2-4.29-2-5.5 0-5.334-2-9.779-2-15.5-2.097 0-5.293-1-8-1 0 7.555 5 13.457 5 20 1.146 0 6 1.339 6 3Z"/><path fill="#0E9F90" id="ECT6b" d="M57 165c0 5.721 2 10.166 2 15.5 0 1.21.814 5.5 2 5.5l-3-22h-1v1Z"/><path fill="#FF8FFD" id="MRN" d="M238 164c-1.473 0-1 1.952-1 3 1.473 0 1-1.952 1-3Z"/><path fill="#FF6F80" id="TH" d="m286 164-1 1 1-1Z"/><path fill="#0E9F91" id="ECT6a" d="m403 184-7 2 1-6c1.26 0 3-13.208 3-15v-1h7c0 7.216-4 12.863-4 19v1Z"/><path fill="#0D9E90" id="ECT5" d="M412 181c-2.846 0-5.382 2-9 2 0-6.137 4-11.784 4-19h11l-6 17Z"/><path fill="#0D9F91" id="ECT2/3" d="M412 181h10c0-6.235 7-9.405 7-15v-1c-3.013 0-6.611-1-9-1h-2l-6 17Z"/><path fill="#0E9F90" id="ECT6b" d="M400 165c0 1.792-1.74 15-3 15 0-2.254.317-15 2-15h1Z"/><path fill="#0D9F90" id="ECT1" d="M29 180c2.124 0 4.436 1 6 1 0-6.474-7-8.769-7-15l-5 1c0 5.534 6 7.466 6 13Z"/><path fill="#FE8D9E" id="PIL" d="M153 172c-1.747 0-2 .253-2 2-3.083 0-6.108.696-9.5-1-1.309-.655-11.547-7-6.5-7 0 3.759 11.898 4 15 4 1.238 0 3 .423 3 2ZM304 172c1.577 0 2 1.762 2 3 3.91 0 22.562-9 15-9 0 4.074-10.897 4-14 4-1.238 0-3 .423-3 2Z"/><path fill="#0D9F90" id="ECT1" d="m427 180-5 1c0-6.235 7-9.405 7-15l4 1c0 5.759-6 7.709-6 13Z"/><path fill="#FF6F80" id="TH" d="M166 171c2.915 0 4.651 3 6 3v-7l-4 1-2 3ZM291 171c-2.883 0-6 .409-6 4-1.735 0-1-6.51-1-8h1c0 1.473 1.952 1 3 1l3 3Z"/><path fill="#FE8084" id="SPFp" d="M159 178h5c3.29 0 8 .534 8-4-1.349 0-3.085-3-6-3-1.804 0-5.136-2.182-7.5-1l-5.5 2c-1.747 0-2 .253-2 2 0 2.215 2 1.519 2 3h5l1 1ZM292 178h5l1-1h5l3-2c0-1.238-.423-3-2-3l-6.5-2c-2.161-1.081-4.894 1-6.5 1-2.883 0-6 .409-6 4 0 3.377 4.226 3 7 3Z"/><path fill="#C7C8CC" id="alv" d="M333 177v2c1.817 0 4-7.169 4-9l-2 1c0 2.483-2 4.026-2 6Z"/><path fill="#CAC7CB" id="fiber tracts" d="M329 185h1l1-2 1-2v-2l1-2c0-1.974 2-3.517 2-6-.038 0-6 7.672-6 2h-1v7c1.643 0 1 3.765 1 5Z"/><path fill="#FF6F80" id="TH" d="M127 173h1v-1l-1 1Z"/><path fill="#FF64FF" id="MB" d="M150 192c-3.447 0-6.245 2-9 2 0-6.588-12-14.665-12-6l-1-2v-14h3c0 2.63-3.513 5.475-2 8.5.782 1.564 3.485.03 4-1 1.585-3.17 0-4.632 0-7.5l6 3c-3.041 0-4-.303-4 3l2 2c0 1.577 9.964 10 12 10l1 2Z"/><path fill="#FE8FFE" id="LT" d="M131 172h2c0 2.868 1.585 4.33 0 7.5-.515 1.03-3.218 2.564-4 1-1.513-3.025 2-5.87 2-8.5Z"/><path fill="#FF64FF" id="MB" fill-rule="evenodd" d="M225 199c0 2.984-3.528 6.443-2 9.5 2.055 4.109 3.247.5 5.5.5l3 2c3.239-1.619 1.328-10.836-1-12l-2 2c-.392 0-1.56-2-3.5-2m-8-4c0 3.904-3.652 4.804-5 7.5-.579 1.158 6.551 2.974 7.5 2.5 2.286-1.143-.029-10-2.5-10m5-2-1 2c0 9.05 3.711-2 1-2m58 48c0 1.751-7.426 1-9 1-3.667 0-6.811 3-7 3l-3-4-6-9c0-1.07 4.019-2.462 3-4.5-1.17-2.34-10-3.61-10-.5l-11.5-6h-17c-3.447 1.723-7.466 6-11.5 6 0-8.098-16.308 5-6 5 0 3.755-6 4.86-6 9-3.626 0-3 3.26-3 6l-3.5-5c-1.799-.9-12.5 1.462-12.5-1 3.817 0 6.124-3 9-3 0 3.531 9.476-2.452 11-5.5 1.278-2.555-2-4.516-2-6.5 9.112 0 23.334-24.083 13.5-29-5.253-2.627-6.336 2-10.5 2 0-3.079-5-4.308-5-6 10.521 0 26-9.574 26-21h1l3 3c0 3.162-.109 2 2 2 1.639 0 2.455-2 3.5-2 .392 0 1.56 2 3.5 2 0 1.053 1.475 1.55 2 .5l-1-2.5c1.539 0 3-1.342 3-3h1c0 9.974 16.111 21 26 21 0 2.572-5 2.494-5 6-4.164 0-5.247-4.627-10.5-2-7.142 3.571 2.888 29 13.5 29l-2 6.5c1.521 3.043 5.944 5.222 8.5 6.5l3.5.5-2-2.5c3.299 0 6.485 4 11 4m-44-41c0 1.812-.469 4.015 1.5 5 .949.474 8.079-1.342 7.5-2.5l-4-2c-.646-1.292.102-6.301-3.5-4.5-1.498.749.705 4-1.5 4m0 0-1-3.5v-3c-1.179-2.359-3.715 6.5 1 6.5Z"/><path fill="#FF64FF" id="MB" d="m323 172-1 1 1-1Z"/><path fill="#FE8FFE" id="LT" d="M328 179v1c-7.619 0-3.792-3-6-3v-4l1-1h2c0 .698 2.714 7 3 7Z"/><path fill="#FF64FF" id="MB" d="M328 173v6c-.286 0-3-6.302-3-7 1.048 0 3-.473 3 1ZM317 175h5v-2c-1.424 0-5 .362-5 2Z"/><path fill="#F0483B" id="ZI" d="M307 190c-2.097 0-5.293 1-8 1-2.292 0-.543-6 1-6l1-1 9-7 7-2h5v2l-1 1-2 2c0 1.468-9.826 10-12 10ZM149 190l8 1c4.452 0-.526-8-3-8l-1-1-6-5h-3l-1-1-4-1c-3.041 0-4-.303-4 3l2 2c0 1.577 9.964 10 12 10Z"/><path fill="#FC8EFF" id="MA3" d="m223 175 2 2c-2.109 0-2 1.162-2-2ZM233 175l-1 2c0 1.053 1.475 1.55 2 .5l-1-2.5Z"/><path fill="#FF64FF" id="MB" d="m143 176 1 1-1-1Z"/><path fill="#CACCCB" id="opt" d="M123 177c1.652 0 3.092 2 1 2l-1-2Z"/><path fill="#FF64FF" id="MB" d="M192 201c0 2.144-4.262.381-5.5 1-4.01 2.005-11.5-.359-11.5 6-5.081 0-18-12.759-18-17 4.452 0-.526-8-3-8l-1-1-6-5h11l1 1h5c0 1.676-4.954 3.592-3 7.5 3.419 6.838 13.298 7.5 20 7.5l11 8Z"/><path fill="#FF6F80" id="TH" d="m158 177 1 1-1-1ZM298 177l-1 1 1-1Z"/><path fill="#FF64FF" id="MB" d="M265 201c0 2.064 3.353.426 4.5 1 3.496 1.748 12.5-.165 12.5 6 3.441 0 17-13.516 17-17-2.292 0-.543-6 1-6l1-1 9-7h-12l-1 1h-5c0 1.585 5.545 2.41 4 5.5-4.153 8.306-12.332 9.5-21 9.5l-10 8ZM307 192c4.341 0 8.657 4 9 4 0-10.353 2.576-11 12-11h1c0-1.235.643-5-1-5-7.619 0-3.792-3-6-3l-1 1c0 1.747-.253 2-2 2 0 1.468-9.826 10-12 10v2Z"/><path fill="#CACCCB" id="opt" d="M332 179h1v-2l-1 2Z"/><path fill="#E64438" id="HY" d="m135 178 2 2-2-2ZM321 178l-2 2c1.747 0 2-.253 2-2Z"/><path fill="#C7C8CC" id="alv" d="m333 179-1 2v-2h1Z"/><path fill="#0E9584" id="PERI1" d="M31 191h1l3-10c-1.564 0-3.876-1-6-1 0 1.849-5.481 11-3 11h5Z"/><path fill="#0E9583" id="PERI2/3" d="M32 191h7l8-1-3-9h-9l-3 10Z"/><path fill="#0E9F90" id="ECT6b" d="M395 187h1v-1l1-6c-1.663 0-2 5.407-2 7Z"/><path fill="#0E9583" id="PERI2/3" d="M417 191h8c0-3.136-3-6.122-3-10h-10c0 3.078-3 6.325-3 9h1c1.819 0 4.591 1 7 1Z"/><path fill="#0E9584" id="PERI1" d="M425 191h6c0-5.032-4-6.551-4-11l-5 1c0 3.878 3 6.864 3 10Z"/><path fill="#0F9684" id="PERI5" d="m54 189-7 1-3-9c3.504 0 6.547 3 10 3l1 4-1 1Z"/><path fill="#C7C8CC" id="alv" d="m332 181-1 2 1-2Z"/><path fill="#0F9684" id="PERI5" d="m402 189 7 1c0-2.675 3-5.922 3-9-2.846 0-5.382 2-9 2v1l-1 4v1Z"/><path fill="#E64438" id="HY" d="m153 182 1 1-1-1Z"/><path fill="#CACCC8" id="ml" d="M258 199c.062 0 4.153 2 7 2l10-8 6-6.5c1.528-3.056-2.821-4.34-4.5-3.5-3.81 1.905-9.281 10-13.5 10 0 2.572-5 2.494-5 6ZM198 199c0 2.698-4.255 2-6 2l-11-8-6-7.5c0-1.702 2.735-3.382 4.5-2.5l13.5 10c0 1.692 5 2.921 5 6Z"/><path fill="#C7C8CC" id="alv" d="m331 183-1 2 1-2Z"/><path fill="#0E9684" id="PERI6a" d="m60 187-5 1-1-4c1.146 0 6 1.339 6 3Z"/><path fill="#CCCAC7" id="cpd" d="M186 238c-2.876 0-5.183 3-9 3-5.27 0-8.893-4-13-4h-1l-2-2h-1l-4-4h-1c0-1.114-2.034-4-3-4l-1-1-10-12v-1l-12-25c0-8.665 12-.588 12 6v1l-1 2-1 5.5c7.603 15.207 16.838 23.169 31.5 30.5 6.452 3.226 14.408-3 19.5-3 1.473 0 1 1.952 1 3l-1 2-1 1-1 1-2 1Z"/><path fill="#E64438" id="HY" d="m301 184-1 1 1-1Z"/><path fill="#CCCAC7" id="cpd" d="M293 237c-4.608 0-7.675 4-13 4-4.515 0-7.701-4-11-4l-1-1c0-.424-4.408-6-1-6 4.841 0 12.306 6.097 18.5 3 13.586-6.793 24.443-15.385 31.5-29.5l-1-7.5c0-10.353 2.576-11 12-11v4l-1 2-1 2-1 2-1 2-1 2-1 2-1 2-1 2-1 2-1 2-1 2-1 2-1 1-1 2-1 1c-1.577 0-2 1.762-2 3l-1 1-1 1v1c-1.747 0-2 .253-2 2l-1 1-1 1-1 1-1 1-1 1-1 1-1 1-1 1-2 1-1 1h-1l-2 2Z"/><path fill="#0E9684" id="PERI6a" d="m396 187 6 1 1-4-7 2v1Z"/><path fill="#CAC7CB" id="fiber tracts" d="M328 187h1v-2h-1v2Z"/><path fill="#C7C8CC" id="alv" d="m330 185-1 2v-2h1Z"/><path fill="#32B824" id="ENTl6a" d="M71 224h2l1-1h1l1-2c0-4.45-5.133-6.766-7-10.5-4.183-8.365-8-13.221-8-23.5h-1l-5 1-1 1c1.952 0 .477 2.454 1 3.5l4 11c2.762 5.524 12 14.299 12 20.5Z"/><path fill="#A0EE9C" id="EPd" d="M80 219c-1.24 0-1.576 2-4 2 0-4.45-5.133-6.766-7-10.5-4.183-8.365-8-13.221-8-23.5l4 7.5 11 15c.592 1.185 1.012 4.5 3 4.5l1 5Z"/><path fill="#C7C8CC" id="alv" d="m329 187-1 2v-2h1Z"/><path fill="#32B824" id="ENTl6a" d="M383 224h2c0-6.577 17-23.097 17-35v-1l-6-1h-1v1c0 7.169-1.08 11.66-4 17.5-2.708 5.416-10 9.027-10 15.5 0 2.215 2 1.519 2 3Z"/><path fill="#A0EE9C" id="EPd" d="M379 222h1l1-1c0-6.473 7.292-10.084 10-15.5 2.92-5.84 4-10.331 4-17.5-1.458 0-9.605 17-12 17 0 1.955-3.574 9-6 9v5c0 2.215 2 1.519 2 3Z"/><path fill="#31B824" id="ENTl5" d="M61 225h7c0-1.473 1.952-1 3-1 0-6.201-9.238-14.976-12-20.5l-4-11c-.523-1.046.952-3.5-1-3.5l-7 1c0 11.214 14 31.654 14 35Z"/><path fill="#C7C8CC" id="alv" d="m328 189-1 2 1-2Z"/><path fill="#31B824" id="ENTl5" d="M388 225h8c0-5.8 14-24.772 14-35h-1l-7-1c0 11.903-17 28.423-17 35 1.048 0 3-.473 3 1Z"/><path fill="#32B725" id="ENTl3" d="M61 225c-3.694 0-6.865 2-11 2 0-1.851-7.907-30.313-9-32.5-.81-1.619-2-1.471-2-3.5l8-1c0 11.214 14 31.654 14 35Z"/><path fill="#FFA6FD" id="SNc" d="M190 222v1c-10.713 0-22.802-12.302-30.5-20-2.877-2.877-4.923-11-9.5-11l-1-2 8 1c0 4.241 12.919 17 18 17 0 1.233 7.258 2.379 8.5 3 2.984 1.492 6.5 7.967 6.5 11ZM267 222v1c9.228 0 23.046-13.546 30-20.5 2.778-2.778 5.055-10.5 10-10.5v-2c-2.097 0-5.293 1-8 1 0 3.484-13.559 17-17 17-6.52 0-15 7.053-15 14Z"/><path fill="#32B725" id="ENTl3" d="M396 225c3.119 0 6.279 2 10 2l3-6.5c.732-1.465 8-28.173 8-29.5-2.409 0-5.181-1-7-1 0 10.228-14 29.2-14 35Z"/><path fill="#32B722" id="ENTl1" d="M43 229c0 1.473-1.952 1-3 1 0-7.917-14-26.213-14-39h5c0 13.433 12 24.842 12 38Z"/><path fill="#32B825" id="ENTl2" d="M50 227c-2.16 0-4.167 2-7 2 0-13.158-12-24.567-12-38h8c0 2.029 1.19 1.881 2 3.5 1.093 2.187 9 30.649 9 32.5Z"/><path fill="#C7C8CC" id="alv" d="m327 191-1 2 1-2Z"/><path fill="#32B825" id="ENTl2" d="M406 227c2.16 0 4.167 2 7 2 0-10.384 12-25.295 12-38h-8c0 1.327-7.268 28.035-8 29.5l-3 6.5Z"/><path fill="#32B722" id="ENTl1" d="m413 229 4 1c0-12.419 14-25.575 14-39h-6c0 12.705-12 27.616-12 38Z"/><path fill="#FF8DFD" id="SNr" d="m191 229-1 1c-5.092 0-13.048 6.226-19.5 3-14.662-7.331-23.897-15.293-31.5-30.5l1-5.5 1-2v-1c2.755 0 5.553-2 9-2 4.577 0 6.623 8.123 9.5 11 7.698 7.698 19.787 20 30.5 20l1 6ZM265 229l2 1c4.841 0 12.306 6.097 18.5 3 13.586-6.793 24.443-15.385 31.5-29.5l-1-7.5c-.343 0-4.659-4-9-4-4.945 0-7.222 7.722-10 10.5-6.954 6.954-20.772 20.5-30 20.5 0 2.447-2 3.28-2 6Z"/><path fill="#C8C8C8" id="mtg" d="m222 193-1 2c0 9.05 3.711-2 1-2ZM236 200l-1-3.5v-3c-1.179-2.359-3.715 6.5 1 6.5Z"/><path fill="#C7C8CC" id="alv" d="m326 193-1 2 1-2Z"/><path fill="#FF64FF" id="MB" d="m141 195-1 2 1-2Z"/><path fill="#C7CAC9" id="fr" d="M217 195c0 3.904-3.652 4.804-5 7.5-.579 1.158 6.551 2.974 7.5 2.5 2.286-1.143-.029-10-2.5-10Z"/><path fill="#C7C8CC" id="alv" d="m325 195-1 2 1-2Z"/><path fill="#FE8DFF" id="VTA" d="m190 222 5 4c9.112 0 23.334-24.083 13.5-29-5.253-2.627-6.336 2-10.5 2 0 2.698-4.255 2-6 2 0 2.144-4.262.381-5.5 1-4.01 2.005-11.5-.359-11.5 6 0 1.233 7.258 2.379 8.5 3 2.984 1.492 6.5 7.967 6.5 11Z"/><path fill="#C7CAC9" id="fr" d="M236 200c0 1.812-.469 4.015 1.5 5 .949.474 8.079-1.342 7.5-2.5l-4-2c-.646-1.292.102-6.301-3.5-4.5-1.498.749.705 4-1.5 4Z"/><path fill="#FE8DFF" id="VTA" d="M267 222c-2.773 0-3.67 4-6 4-10.612 0-20.642-25.429-13.5-29 5.253-2.627 6.336 2 10.5 2 .062 0 4.153 2 7 2 0 2.064 3.353.426 4.5 1 3.496 1.748 12.5-.165 12.5 6-6.52 0-15 7.053-15 14Z"/><path fill="#C7C8CC" id="alv" d="m324 197-1 2 1-2Z"/><path fill="#FFA6FF" id="IF" d="M225 199c0 2.984-3.528 6.443-2 9.5 2.055 4.109 3.247.5 5.5.5l3 2c3.239-1.619 1.328-10.836-1-12l-2 2c-.392 0-1.56-2-3.5-2Z"/><path fill="#C7C8CC" id="alv" d="m323 199-1 2 1-2ZM374 217c-2.52 0-8.348 8-13 8 0-1.319 13.177-8.854 15-12.5 1.123-2.246 6.144-13.5 9-13.5l-2 6c-2.171 0-6 7.276-6 9l-1 1-1 1-1 1ZM322 201l-1 2 1-2ZM321 203l-1 2 1-2ZM320 205l-1 2 1-2Z"/><path fill="#C8CBCC" id="ec" d="M383 205c-2.171 0-6 7.276-6 9 2.426 0 6-7.045 6-9Z"/><path fill="#C7C8CC" id="alv" d="m319 207-1 2 1-2ZM318 209l-1 2 1-2ZM317 211l-1 2 1-2ZM316 213l-1 1 1-1ZM141 214l10 12c-2.538 0-10-9.905-10-12ZM315 214l-1 2 1-2Z"/><path fill="#C8CBCC" id="ec" d="M376 215h1v-1l-1 1Z"/><path fill="#C7C8CC" id="alv" d="m314 216-1 1 1-1Z"/><path fill="#A8AAAA" id="VL" d="m375 216-1 1 1-1Z"/><path fill="#C7C8CC" id="alv" d="M313 217c-1.577 0-2 1.762-2 3 1.577 0 2-1.762 2-3Z"/><path fill="#8AD987" id="CTXsp" d="M85 226h6c0-1.006-9.425-7-11-7-1.24 0-1.576 2-4 2l-1 2c2.813 0 10-2.548 10 3ZM367 225h4c2.404 0 4.649-3 8-3 0-1.481-2-.785-2-3-1.698 0-10 4.773-10 6Z"/><path fill="#C7C8CC" id="alv" d="m311 220-1 1 1-1Z"/><path fill="#FF493D" id="SUM" d="m261 241-4 2c-4.9 0-8.15-10-14-10 0-3.752-22.145-3.678-25.5-2-1.119.559-4.5.155-4.5 2-4.039 0-11.937 11-14 11l-3-3c0-4.14 6-5.245 6-9l6-5c4.034 0 8.053-4.277 11.5-6h17l11.5 6 7 5 6 9Z"/><path fill="#C7C8CC" id="alv" d="m310 221-1 1 1-1Z"/><path fill="#8AD987" id="CTXsp" d="M383 224v1l-3-3 1-1c0 2.215 2 1.519 2 3Z"/><path fill="#A0ED9D" id="EPv" d="M75 240h4l2-1c0-4.331 4-9.104 4-13 0-5.548-7.187-3-10-3 0 1.238-.423 3-2 3l1 10 1 4Z"/><path fill="#FE8FFF" id="MT" d="m188 237-2 1c0 3.531 9.476-2.452 11-5.5 1.278-2.555-2-4.516-2-6.5l-5-4v1l1 6c1.535 0 1.535 4 0 4l-1 2-1 1-1 1ZM268 236l1 1 2 2.5-3.5-.5c-2.556-1.278-6.979-3.457-8.5-6.5l2-6.5c2.33 0 3.227-4 6-4v1c0 2.447-2 3.28-2 6 0 2.176-.348 7 3 7Z"/><path fill="#A0ED9D" id="EPv" d="M377 240h4l2-2v-13l-3-3h-1c-3.351 0-5.596 3-8 3 0 4.462 4 8.76 4 14l2 1Z"/><path fill="#99D2BD" id="OLF" d="m74 223-1 1 1-1Z"/><path fill="#8AD987" id="CTXsp" d="M73 224v2c1.577 0 2-1.762 2-3h-1l-1 1Z"/><path fill="#C7C8CC" id="alv" d="M309 223c-1.747 0-2 .253-2 2l2-2Z"/><path fill="#99D2BD" id="OLF" d="m68 225 5 1v-2h-2c-1.048 0-3-.473-3 1ZM388 225c-2.25 0-3.376 2-5 2v-3h2c1.048 0 3-.473 3 1Z"/><path fill="#6ACAB9" id="PIR" d="M73 241c0 1.637-13 24.869-13 25-2.862 0-6.077-6.654-7-8.5-4.108-8.215-13-17.863-13-27.5 1.048 0 3 .473 3-1 2.833 0 4.84-2 7-2 4.135 0 7.306-2 11-2h7l5 1 1 10c-1.643 0-1 3.765-1 5Z"/><path fill="#9DE69C" id="BLAp" d="M91 248h1l4-3c1.274 0 7-8.392 7-10v-3l-3-1-1-1-4-2-1-1-3-1h-6c0 3.896-4 8.669-4 13v2l10 7Z"/><path fill="#CCCAC8" id="mp" d="m208 227-6 5c-10.308 0 6-13.098 6-5ZM248 227l7 5c0-1.07 4.019-2.462 3-4.5-1.17-2.34-10-3.61-10-.5Z"/><path fill="#C7C8CC" id="alv" d="m307 225-1 1 1-1ZM361 225c-1.238 0-3 .423-3 2 1.238 0 3-.423 3-2Z"/><path fill="#8AD987" id="CTXsp" d="m367 225-1 1 1-1Z"/><path fill="#9DE69C" id="BLAp" d="M364 248h2l8-6 1-1v-2c0-5.24-4-9.538-4-14h-4l-1 1h-1l-1 1-9 4-1 1v4l7 10 3 2Z"/><path fill="#6ACAB9" id="PIR" d="m383 241 4 5.5c2.249 4.498 4.013 18.5 10 18.5 2.943 0 4.848-5.197 6-7.5 3.289-6.577 14-20.47 14-27.5l-4-1c-2.833 0-4.84-2-7-2-3.721 0-6.881-2-10-2h-8c-2.25 0-3.376 2-5 2v14Z"/><path fill="#C7C8CC" id="alv" d="m306 226-1 1 1-1Z"/><path fill="#8AD987" id="CTXsp" d="m365 226-1 1 1-1ZM94 227l1 1-1-1Z"/><path fill="#C7C8CC" id="alv" d="M152 227c.966 0 3 2.886 3 4-1.712 0-3-2.571-3-4ZM305 227l-1 1 1-1ZM358 227c-1.856 0-7 1.782-7 4 1.572 0 7-2.052 7-4ZM304 228l-1 1 1-1Z"/><path fill="#FF64FF" id="MB" d="M190 230c1.473 0 1 1.952 1 3 1.535 0 1.535-4 0-4l-1 1ZM267 230c-3.408 0 1 5.576 1 6-3.348 0-3-4.824-3-7l2 1Z"/><path fill="#C7C8CC" id="alv" d="m303 229-1 1 1-1Z"/><path fill="#8AD987" id="CTXsp" d="m99 230 1 1-1-1Z"/><path fill="#FD4A3D" id="Mmd" d="M223 242c2.245 0 3.905-2 5.5-2 1.231 0 3.306 2 5.5 2l5-3 1-1c2.393 0 3-3.234 3-5 0-3.752-22.145-3.678-25.5-2-1.119.559-4.5.155-4.5 2l3 6c1.577 0 2-1.729 2 1 1.041 0 5 .986 5 2Z"/><path fill="#C7C8CC" id="alv" d="m302 230-1 1 1-1ZM159 235h1l-4-4 3 4ZM301 231l-1 1 1-1ZM351 231c-1.465 0-4-.109-4 2l4-2Z"/><path fill="#8AD987" id="CTXsp" d="m355 231-1 1 1-1ZM109 236h2l-8-4v3c2.124 0 4.436 1 6 1Z"/><path fill="#C7C8CC" id="alv" d="m300 232-1 1 1-1Z"/><path fill="#8AD987" id="CTXsp" d="m349 235 5 1v-4c-1.408 0-5 1.197-5 3Z"/><path fill="#FF64FF" id="MB" d="m191 233-1 2 1-2Z"/><path fill="#FC4B3E" id="Mml" d="M198 252c0 1.705 10.123 4 12 4l7-16-1-1-3-6c-4.039 0-11.937 11-14 11l-1 7v1ZM259 252c-3.743 0-7.966 4-12 4l-7-15v-3c2.393 0 3-3.234 3-5 5.85 0 9.1 10 14 10l2 8v1Z"/><path fill="#C7C8CC" id="alv" d="M297 235h1l1-2-2 1v1Z"/><path fill="#7DCF4B" id="CA2" d="M321 233c-1.429 0-4 1.288-4 3 2.061 0 4-.902 4-3Z"/><path fill="#C7C8CC" id="alv" d="M347 233c-1.424 0-5 .362-5 2 1.424 0 5-.362 5-2Z"/><path fill="#84E981" id="BMAp" d="M100 249h3c0-.674 6-7.205 6-13-1.564 0-3.876-1-6-1 0 1.608-5.726 10-7 10 0 3.041-.303 4 3 4h1Z"/><path fill="#7DCD4B" id="HPF" d="M159 236h2v-1h-2v1ZM295 236h2v-1h-2v1Z"/><path fill="#7ECE4A" id="DG-po" d="M297 236c0 2.922 4.909 2 6 2 0-2.173-5 .232-5-3h-1v1Z"/><path fill="#C7C8CC" id="alv" d="M338 237h2l1-1h1v-1c-1.424 0-5 .362-5 2h1Z"/><path fill="#8AD987" id="CTXsp" d="M346 236h1l1-1-2 1Z"/><path fill="#84E981" id="BMAp" d="M357 249h1c2.041 0 3-.959 3-3l-7-10-5-1h-1l-1 1c0 5.995 6 10.569 6 13h4Z"/><path fill="#99D2BD" id="OLF" d="m75 240-2 1c0-1.235-.643-5 1-5l1 4Z"/><path fill="#97EC93" id="PA" d="m141 253-5 7-8.5-6c-5.282-2.641-10.143-2-15.5-2 0-2.954-6.821-3-9-3 0-.674 6-7.205 6-13h6l1 1h3l2 2h2l4 2h1l2 2 2 1c2.556 0 9 7.409 9 9Z"/><path fill="#7ECE4A" id="DG-po" d="M159 236c-.986 0-6 1.087-6 2 1.422 0 6 2.269 6-2Z"/><path fill="#65A83D" id="DG-sg" d="m150 237 3 1c1.422 0 6 2.269 6-2h2c0 7.03-11 6.174-11 1Z"/><path fill="#7BD04A" id="DG-mo" d="m150 245 2 2c4.966 0 12.426.648 15-4.5l-3-5.5h-1l-2-1c0 7.03-11 6.174-11 1-2.003 0-3-.293-3 2 0 2.364 3 3.053 3 5v1Z"/><path fill="#FF64FF" id="MB" d="m189 236-1 1 1-1Z"/><path fill="#65A83D" id="DG-sg" d="m306 237-3 1c-1.091 0-6 .922-6-2h-2v1c0 4.938 11 5.717 11 0Z"/><path fill="#7DCF4B" id="CA2" d="m317 236-1 1 1-1Z"/><path fill="#97EC93" id="PA" d="m315 253 6 7c0-4.938 18.595-9 23-9 3.071 0 5.362-2 9-2 0-2.431-6-7.005-6-13h-6l-1 1h-2l-1 1h-1l-1 1h-2l-1 1h-1l-1 1h-1l-2 1-2 1-10 10Z"/><path fill="#C7C8CC" id="alv" d="M128 241h1c0-1.817-7.169-4-9-4l1 2h2l4 2h1Z"/><path fill="#7BD04A" id="DG-mo" d="m306 245-2 2c-3.382 0-17.283.065-14-6.5l3-3.5h2c0 4.938 11 5.717 11 0 1.465 0 4-.109 4 2v1l-1 1-1 1-1 2-1 1Z"/><path fill="#7DCF4B" id="CA2" d="M314 238h2v-1l-2 1Z"/><path fill="#C7C8CC" id="alv" d="M333 239h2l1-1h1v-1c-1.424 0-5 .362-5 2h1Z"/><path fill="#33B931" id="HATA" d="M149 248c-3.396 0-5.177 5-8 5 0-1.591-6.444-9-9-9l1-2c1.909 0 8-2.008 8-4h1l3 1 5 5v3l-1 1Z"/><path fill="#C8CBCA" id="pm" d="M217 240h1c0-2.729-.423-1-2-1l1 1ZM239 239l1 2v-3l-1 1Z"/><path fill="#33B931" id="HATA" d="m307 247 8 6 10-10-1-1c-2.317 0-8-.709-8-4h-2l-3 1-1 1-1 1-1 1-1 2-1 1 1 2Z"/><path fill="#99D2BD" id="OLF" d="m381 240 2 1v-3l-2 2Z"/><path fill="#8AD987" id="CTXsp" d="m79 240 2 1v-2l-2 1Z"/><path fill="#7DCD4B" id="HPF" d="M147 239c0 2.364 3 3.053 3 5l-5-5h2Z"/><path fill="#FE4A3C" id="Mmm" d="m247 256-12 1-1-15 5-3 1 2 7 15Z"/><path fill="#7DCD4B" id="HPF" d="m311 239-1 1v-1h1Z"/><path fill="#C7C8CC" id="alv" d="M329 241h1l1-1h1v-1c-1.424 0-5 .362-5 2h2Z"/><path fill="#8AD987" id="CTXsp" d="m377 240-2 1v-2l2 1Z"/><path fill="#A8ECD2" id="TR" d="M60 266c0 8.503 21.306 14 29 14 0-2.733-1.733-13.035 0-16.5l4-10.5-2-5-10-7-2-1h-4l-2 1c0 1.637-13 24.869-13 25Z"/><path fill="#FE4A3C" id="Mmm" d="m210 256 11 1 2-15c0-1.014-3.959-2-5-2h-1l-7 16Z"/><path fill="#FE493D" id="Mmp" d="M221 257h14l-1-15c-2.194 0-4.269-2-5.5-2-1.595 0-3.255 2-5.5 2l-2 15Z"/><path fill="#7DCD4B" id="HPF" d="m310 240-1 1 1-1Z"/><path fill="#A8ECD2" id="TR" d="M397 265c0 10.047-22.495 15-30 15v-18.5l-3-8.5c0-2.25 2-3.376 2-5l8-6 1-1 2-1h4l2 1 4 5.5c2.249 4.498 4.013 18.5 10 18.5Z"/><path fill="#7DCD4B" id="HPF" d="m130 243 2 1 1-2-4-1 1 2Z"/><path fill="#FF4B3D" id="LM" d="M197 251h1l1-7-3-3c-3.626 0-3 3.26-3 6 0 3.115.885 4 4 4ZM259 251h1c3.591 0 4-3.117 4-6l-3-4-4 2 2 8Z"/><path fill="#7DCD4B" id="HPF" d="m309 241-1 1 1-1ZM327 242l-2 1-1-1 3-1v1Z"/><path fill="#8AD987" id="CTXsp" d="m375 241-1 1 1-1Z"/><path fill="#7DCD4B" id="HPF" d="m307 244-1 1 1-1Z"/><path fill="#8AD987" id="CTXsp" d="m99 250-3 1-4-3 4-3c0 3.041-.303 4 3 4v1Z"/><path fill="#7DCD4B" id="HPF" d="M150 247h2l-2-2v2ZM304 247h3l-1-2-2 2Z"/><path fill="#8AD987" id="CTXsp" d="M360 251h1c0-2.93 3-1.084 3-3l-3-2c0 2.041-.959 3-3 3v1h1l1 1Z"/><path fill="#7DCD4B" id="HPF" d="m150 247-1 1 1-1Z"/><path fill="#99D2BD" id="OLF" d="m96 251-3 2-2-5h1l4 3ZM361 251l3 2c0-2.25 2-3.376 2-5h-2c0 1.916-3 .07-3 3Z"/><path fill="#97EC93" id="PA" d="m100 249-1 1v-1h1Z"/><path fill="#5FE6B7" id="COApl" d="M89 280c0 1.765 1.581.541 2.5 1 6.96 3.48 9.97 3 17.5 3 0-.258-3.355-6.209-4-7.5-3.03-6.061 1.783-15.567 4-20 .592-1.185 1.012-4.5 3-4.5 0-2.954-6.821-3-9-3h-3l-1 1-3 1-3 2-4 10.5c-1.733 3.465 0 13.767 0 16.5ZM367 280c0 5.102-16.01 4-19 4l3-5.5v-16c-.619-1.238-7-11.492-7-11.5 3.071 0 5.362-2 9-2h4l1 1h1l1 1h1l3 2 3 8.5V280Z"/><path fill="#97EC93" id="PA" d="M358 249v1l-1-1h1ZM359 250l1 1-1-1Z"/><path fill="#60E6B5" id="COApm" d="M136 260c0 5.559-20.836 24-27 24 0-.258-3.355-6.209-4-7.5-3.03-6.061 1.783-15.567 4-20 .592-1.185 1.012-4.5 3-4.5 5.357 0 10.218-.641 15.5 2l8.5 6Z"/><path fill="#E64438" id="HY" d="M198 251v1l-1-1h1ZM260 251l-1 1v-1h1Z"/><path fill="#60E6B5" id="COApm" d="M321 260c0 6.817 20.709 24 27 24l3-5.5v-16c-.619-1.238-7-11.492-7-11.5-4.405 0-23 4.062-23 9Z"/></svg>