<svg xmlns="http://www.w3.org/2000/svg" viewBox="0 0 456 320"><path fill="#FEFA90" id="DEC" fill-rule="evenodd" d="M207 68c0 3.107-10 1.757-10 4.5l4 .5c3.981 0 15.507-5 6-5m22-1c0 3.27 10 4.338 10 1.5L229 67m-6 0c0 2.358-6-.09-6 1.5 0 4.403 17.599-1.5 6-1.5m-52 18c.178 0 15.03-8.53 16-9.5.618-.618 10-3.263 10-2 0 1.816-2.734 1.117-3.5 1.5l-10 5c-10.263 5.132-11.137 21.227-6.5 30.5 8.279 16.559 15.072 13.286 29.5 20.5l12 2c3.059 1.529 12.017 3.992 16 2 19.338-9.669 46.5-4.544 46.5-36V87.5c-3.631-7.263-15.323-10.911-22.5-14.5-3.341-1.67-8.585-.292-12-2-.838-.419-2.419-2.29-1-3 2.604-1.302 7.031 2.015 9 3 6.087 3.044 13.913 2.956 20 6 3.125 1.563 6.619 8 10.5 8 0-6.327 3-13.059 3-20-1.789 0-13.077-6.788-15.5-8-14.586-7.293-29.762-6-46.5-6l-16.5-1c-2.383 1.191-5.725-.137-8 1l-22 8-11.5 6c0 6.565 3 13.624 3 20Z"/><path fill="#FDFB8F" id="SIM" d="m171 85-3 2c0-5.984-9-10.757-9-16 0-2.178 6.831-6 9-6 0 6.565 3 13.624 3 20ZM285 85l3 2c0-5.65 9-10.662 9-16 0-2.347-6.658-6-9-6 0 6.941-3 13.673-3 20Z"/><path fill="#CBC9CC" id="arb" d="M223 67c0 2.358-6-.09-6 1.5 0 4.403 17.599-1.5 6-1.5ZM229 67c0 3.27 10 4.338 10 1.5L229 67ZM207 68c0 3.107-10 1.757-10 4.5l4 .5c3.981 0 15.507-5 6-5Z"/><path fill="#CBC9CC" id="arb" fill-rule="evenodd" d="M293 171c2.551 0 6 7.122 6 9 3.791 0 8.102 7 11.5 7l-4.5-4.5-7.5-9.5c-3.994-3.994-13.546-17.591-16.5-23.5l-8-7.5c-8.919 0-10.148-12 0-12h1c0-1.993 5.2-1.35 6.5-2 7.128-3.564 18.905 1.952 25 5 6.351 3.175 27.375 24.25 30.5 30.5 2.064 4.129 8.677 13.646 12 7l-6-6c-3.399-6.799-24-20.747-24-28.5 0-4.453 23.545-4.978 25.5-4 1.38.69 11.5 4.571 11.5 4.5l-6.5-5.5-3-6-4 2c-4.761 2.38-11.16 1.58-16 4-7.065 3.532-16.866-3.433-22-6l-9.5-5-2-2.5c-.7-1.4-2.998-2.997-4-5-3.79-7.58-1-17.357-1-25.5l-3-2c-3.881 0-7.375-6.438-10.5-8-6.087-3.044-13.913-2.956-20-6-1.969-.985-6.396-4.302-9-3-1.419.71.162 2.581 1 3 3.415 1.708 8.659.33 12 2 7.177 3.589 18.869 7.237 22.5 14.5V99c0 31.456-27.162 26.331-46.5 36-3.983 1.992-12.941-.471-16-2l-12-2c-14.428-7.214-21.221-3.941-29.5-20.5-4.637-9.273-3.763-25.368 6.5-30.5l10-5c.766-.383 3.5.316 3.5-1.5 0-1.263-9.382 1.382-10 2-.97.97-15.822 9.5-16 9.5l-3 2c0 5.775 3.238 33-7 33 0 1.275-14.487 7.994-16.5 9-5.723 2.862-17.147 2.926-23 0l-12-4-.5 3.5-8 7c-1.219 2.438 6.494-1.997 7.5-2.5 2.811-1.406 29.5-2.174 29.5 3l-1 1c0 3.844-18.165 21.665-21.5 25-3.113 3.113-8.589 6.321-6.5 10.5h4c3.246-6.492 10.699-11.398 14-18l10.5-9.5 12-12 17-6c2.553-1.276 15.5 1.114 15.5 3 13.755 0 6.601 12 1 12l-9.5 9c-6.479 6.479-12.571 15.642-16.5 23.5l-7.5 9.5c1.452.726 5.302-3 7.5-3 0-1.969 3.732-10 6-10 0-3.12 20.38-12.44 23.5-14 7.462-3.731 23.435 1.282 30-2l11-3 7 2c6.216 3.108 15.761-1.12 22 2h13l4 3c2.724 1.362 19.5 8.549 19.5 12m-106-24-1 3.5c.878 1.756 9.546 2.477 11.5 1.5 7.06-3.53 39.74-1 49.5-1l20.5 1c1.598-.799 5.188-5 1.5-5 0-5.438-10.674-4.587-13.5-6-4.263-2.131-10.85 1.075-15-1-4.989-2.494-34.302-1.349-39 1-2.906 1.453-14.5.478-14.5 6Z"/><path fill="#FCFC90" id="ANcr1" d="M117 89c10.809 0 26.705 14.205 34.5 22 2.438 2.438 9.5 5.473 9.5 9 10.238 0 7-27.225 7-33 0-5.984-9-10.757-9-16l-14.5-1c-9.055 4.528-27.5 6.21-27.5 19ZM340 89c-8.95 0-16.927 8.214-24.5 12l-9 9c-2.204 1.102-11.5 6.895-11.5 10l-2-2.5c-.7-1.4-2.998-2.997-4-5-3.79-7.58-1-17.357-1-25.5 0-5.65 9-10.662 9-16l14.5-1c8.554 4.277 28.5 6.382 28.5 19Z"/><path fill="#FCFA91" id="ANcr2" d="m137 137-14.5 7c-9.7 4.85-20.34 8.17-30 13l-7.5 4h-7.5c-5.231-2.616-4.765-19.97-2.5-24.5 9.14-18.281 11.878-33.689 31.5-43.5 3.128-1.564 6.841-4 10.5-4 10.809 0 26.705 14.205 34.5 22 2.438 2.438 9.5 5.473 9.5 9 0 1.275-14.487 7.994-16.5 9-5.723 2.862-17.147 2.926-23 0l-12-4-.5 3.5-8 7c-1.219 2.438 6.494-1.997 7.5-2.5 2.811-1.406 29.5-2.174 29.5 3l-1 1ZM319 136c3.566 0 9.252 5.376 12.5 7 5.78 2.89 36.158 18 40.5 18h6.5c6.103-3.051 4.947-20.606 2.5-25.5-7.309-14.617-12.249-34.374-28.5-42.5-2.329-1.165-5.706-.853-8-2l-4.5-2c-8.95 0-16.927 8.214-24.5 12l-9 9c-2.204 1.102-11.5 6.895-11.5 10l9.5 5c5.134 2.567 14.935 9.532 22 6 4.84-2.42 11.239-1.62 16-4l4-2 3 6 6.5 5.5c0 .071-10.12-3.81-11.5-4.5-1.955-.978-25.5-.453-25.5 4Z"/><path fill="#FFFB8E" id="PRM" d="M127 195c-3.086 0-5.2 5.35-8.5 7l-3.5 2c-17.085 0-27.284-22.067-34-35.5-1.552-3.104 4-5.123 4-7.5l7.5-4c9.66-4.83 20.3-8.15 30-13l14.5-7c0 3.844-18.165 21.665-21.5 25-3.113 3.113-8.589 6.321-6.5 10.5h4c3.246-6.492 10.699-11.398 14-18l10.5-9.5 12-12 17-6c2.553-1.276 15.5 1.114 15.5 3v1c-19.878 0-38.699 30.899-46 45.5-2.907 5.814-9 11.663-9 18.5ZM329 194l4.5 5 8.5 5c15.399 0 27.254-22.008 33-33.5 1.993-3.986-3-6.541-3-9.5-4.342 0-34.72-15.11-40.5-18-3.248-1.624-8.934-7-12.5-7 0 7.753 20.601 21.701 24 28.5l6 6c-3.323 6.646-9.936-2.871-12-7-3.125-6.25-24.149-27.325-30.5-30.5-6.095-3.048-17.872-8.564-25-5-1.3.65-6.5.007-6.5 2v1c18.157 0 37.869 30.238 45 44.5 2.673 5.347 9 12.244 9 18.5Z"/><path fill="#FBFC91" id="PYR" d="m182 131 1 11c5.601 0 12.755-12-1-12v1ZM275 131c0 3.249-1 7.194-1 11-8.919 0-10.148-12 0-12l1 1Z"/><path fill="#FDFB90" id="FOTU" d="M275 130v1l-1-1h1Z"/><path fill="#FFF990" id="COPY" fill-rule="evenodd" d="M145 186c0 1.93 1.93 0 0 0m1-1c0 1.93 1.93 0 0 0m1-1c0 2.091 3.746 0 0 0m-20 11 3.5 6c3.527 1.763 6.126 0 9.5 0 4.706 0 15.967-18 16-18l1-2c-2.198 0-6.048 3.726-7.5 3l7.5-9.5c3.929-7.858 10.021-17.021 16.5-23.5l9.5-9-1-11c-19.878 0-38.699 30.899-46 45.5-2.907 5.814-9 11.663-9 18.5Z"/><path fill="#FFF990" id="COPY" d="M329 194c0 13.647-10.808 5-15 5-2.469 0-13-13.451-13-16l-2-2v-1c3.791 0 8.102 7 11.5 7l-4.5-4.5-7.5-9.5c-3.994-3.994-13.546-17.591-16.5-23.5l-8-7.5c0-3.806 1-7.751 1-11 18.157 0 37.869 30.238 45 44.5 2.673 5.347 9 12.244 9 18.5Z"/><path fill="#FFFB8E" id="PRM" d="m138 136-1 1 1-1Z"/><path fill="#FBFC91" id="PYR" d="m187 147 10.5-4c4.502-2.251 27.184-2 34-2h14c.801.4 23.334 6 23.5 6 0-5.438-10.674-4.587-13.5-6-4.263-2.131-10.85 1.075-15-1-4.989-2.494-34.302-1.349-39 1-2.906 1.453-14.5.478-14.5 6Z"/><path fill="#FFFA8F" id="UVU" d="m187 147 10.5-4c4.502-2.251 27.184-2 34-2h14c.801.4 23.334 6 23.5 6 3.688 0 .098 4.201-1.5 5l-20.5-1c-9.76 0-42.44-2.53-49.5 1-1.954.977-10.622.256-11.5-1.5l1-3.5Z"/><path fill="#FFFA8F" id="UVU" d="M163 171c2.203 0 4.569 3.465 7.5 2 2.249-1.125 17.833-5.083 20-4 11.457 5.728 43.992 2 58.5 2 7.202 0 20.353-3.574 25.5-1 3.114 1.557 10.051 3 13.5 3 1.041 0 5-.986 5-2 0-3.451-16.776-10.638-19.5-12l-4-3h-13c-6.239-3.12-15.784 1.108-22-2l-7-2-11 3c-6.565 3.282-22.538-1.731-30 2-3.12 1.56-23.5 10.88-23.5 14Z"/><path fill="#FDFC8F" id="NOD" d="M161 183c14.807 0 40.566 3.033 52.5 9h20c21.194 0 38.342-9 61.5-9l4-2v-1c0-1.878-3.449-9-6-9 0 1.014-3.959 2-5 2-3.449 0-10.386-1.443-13.5-3-5.147-2.574-18.298 1-25.5 1-14.508 0-47.043 3.728-58.5-2-2.167-1.083-17.751 2.875-20 4-2.931 1.465-5.297-2-7.5-2-2.268 0-6 8.031-6 10l4 2Z"/><path fill="#F0F080" id="CB" d="M156 183h5l-4-2-1 2ZM295 183h6l-2-2-4 2Z"/><path fill="#CBC9CC" id="arb" d="M147 184c0 2.091 3.746 0 0 0ZM146 185c0 1.93 1.93 0 0 0ZM145 186c0 1.93 1.93 0 0 0Z"/><path fill="#FFA2D2" id="ECU" d="m176 198-1 1c-4.01 0-19.27 1.041-15-7.5l2-2.5h1l1-1c1.819 0 4.591-1 7-1l5.5 3 2.5 3v2l-2 2-1 1Z"/><path fill="#FF9BCD" id="MY" d="M188 189c-4.146 0-9-1.333-9 4l-2.5-3-5.5-3c4.341 0 8.695 1 12.5 1 1.19 0 4.5-.614 4.5 1ZM268 189c2.554 0 10-1.11 10 3l8-5c-4.414 0-9.177 1-13 1-1.235 0-5-.643-5 1Z"/><path fill="#FFA2D2" id="ECU" d="M281 198c3.312 0 8.038 1 12 1l3-2.5-1-7.5-3-1-1-1h-5l-8 5v2l1 3 2 1Z"/><path fill="#FF9BCD" id="MY" d="m291 187 1 1-1-1ZM164 188l-1 1 1-1ZM135 217c-4.098 0-5.266 7-8 7 0-9.1 26.481-35 35-35l-2 2.5c-4.27 8.541 10.99 7.5 15 7.5 0 6.98 8 8.191 8 3l2 1c0 1.674-1 2.326-1 4-3.989 0-6 4.646-6 8-1.757 0-4.284-6.069-5-7.5-2.533-5.066-8.233-4.5-13-4.5l5-2.5c0-3.261-14-3.453-14 .5l-1 1c-6.346 0-15 8.69-15 15Z"/><path fill="#FEB1D9" id="SPIV" d="m183 202 2 1c2.518 0 4.286-2 6-2l1-1 1-1 2-1c0-2.25 2-3.376 2-5l-1-3h-1l-1-1h-6c-4.146 0-9-1.333-9 4v4c1.811 0 4 3.438 4 5Z"/><path fill="#FF9BCD" id="MY" d="m194 189 1 1-1-1ZM262 189l-1 1 1-1Z"/><path fill="#FEB1D9" id="SPIV" d="m274 201-3 2c-3.145 0-4.833-3-7-3l-2-2-3-5v-2l2-1 1-1h6c2.554 0 10-1.11 10 3v2c-1.473 0-1 1.952-1 3-1.712 0-3 2.571-3 4Z"/><path fill="#FF9BCD" id="MY" d="M332 234h1c0-14.585-14.48-31.49-27.5-38-3.522-1.761-6.346-7-10.5-7l1 7.5-3 2.5c2.131 0 12-2.492 12 2h1l1 1c4.598 0 15 9.132 15 14 0 1.01 10 10.372 10 18ZM215 196c-5.645 0-10.044 3-15 3l4-3.5c1.541-3.083-5.724-2.5-7-2.5l-1-3c.258 0 14.069 2.785 14.5 3l4.5 3ZM261 190l-2 1 2-1ZM260 199l1 2c-5.762 0-12.321-5-20-5 0-1.718 15.473-5 18-5v2c-9.607 0-6.358 6 1 6Z"/><path fill="#FFB0D7" id="MV" d="M199 199h1l4-3.5c1.541-3.083-5.724-2.5-7-2.5 0 1.624-2 2.75-2 5v1h4ZM260 199h2v-1l-3-5c-9.607 0-6.358 6 1 6Z"/><path fill="#FF9BCD" id="MY" d="M277 197h2l-1-3c-1.473 0-1 1.952-1 3Z"/><path fill="#F0F080" id="CB" d="m314 199 2.5 3c7.501 7.501 16.644 2 25.5 2l-8.5-5-4.5-5c0 13.647-10.808 5-15 5ZM140 201c0 7.604-13.802 4-18 4-1.406 0-7 .714-7-1l3.5-2c3.3-1.65 5.414-7 8.5-7l3.5 6c3.527 1.763 6.126 0 9.5 0Z"/><path fill="#FF9BCD" id="MY" d="M177 197h2v-2l-2 2Z"/><path fill="#FDA5D1" id="NTS" d="M198 220h1l1-1h1l4-5c0-12.001 15-14.796 15-4 0 1.922 7 3.722 7 0l-9-12-2-2h-1c-5.645 0-10.044 3-15 3h-1l-4 2-11 6c-3.989 0-6 4.646-6 8l2 5 2 1 6.5-2 9.5 1Z"/><path fill="#FF9BCD" id="MY" d="M218 197v1l-2-2 2 1Z"/><path fill="#AAA9A7" id="V4" d="m220 196-1 1 1-1Z"/><path fill="#A9AAA8" id="chpl" d="M219 197c0 10.177 17.013 2 18 2v-3h-17l-1 1Z"/><path fill="#AAA9A7" id="V4" d="m239 197-2 2v-3l2 1Z"/><path fill="#FF9BCD" id="MY" d="m241 196-2 1 2-1Z"/><path fill="#FDA5D1" id="NTS" d="M274 221h1l2-2 1-3 1-1v-1c0-2.841-4.105-7-7-7l-9-5-1-1h-1c-5.762 0-12.321-5-20-5l-2 1-2 2c0 4.191-8 8.497-8 11 0 4.86 6.912 0 8 0 0-12.066 15-7.093 15 4l3 5h1l2 1h15l1 1Z"/><path fill="#FF9BCD" id="MY" d="m177 197-1 1 1-1Z"/><path fill="#FDA5D0" id="CU" d="M175 199c0 6.98 8 8.191 8 3 0-1.562-2.189-5-4-5h-2l-1 1-1 1Z"/><path fill="#AAA9A7" id="V4" d="M227 210h2c0-2.503 8-6.809 8-11-.987 0-18 8.177-18-2h-1v1l9 12Z"/><path fill="#FDA5D0" id="CU" d="M281 198c0 8.911-7 9.957-7 3 0-1.429 1.288-4 3-4h2l2 1Z"/><path fill="#C8CACA" id="sptV" d="M155 205h2l1-1 1-1h1l5-2.5c0-3.261-14-3.453-14 .5h3c5.278 0 1 1.545 1 4Z"/><path fill="#FF9BCD" id="MY" d="m176 198-1 1 1-1ZM193 199h2v-1l-2 1ZM262 199l2 1-2-2v1ZM272 207c2.895 0 7 4.159 7 7 2.058 0 5.209-6.918 6-8.5 1.62-3.24 7.77-2.5 11-2.5 0-3.504-3 .325-3-4-3.962 0-8.688-1-12-1 0 8.911-7 9.957-7 3l-3 2c0 1.046 1 1.122 1 4Z"/><path fill="#C8CACA" id="sptV" d="m305 208 2 1c0-3.702-13.437-8-2-8 0-4.492-9.869-2-12-2 0 4.325 3 .496 3 4h1c1.238 0 3 .423 3 2l2 1 1 1h1l1 1Z"/><path fill="#FF9BCD" id="MY" d="m193 199-1 1 1-1Z"/><path fill="#FFB2D6" id="PAS" d="M185 203c0 1.674-1 2.326-1 4l11-6 1-2h-3l-1 1-1 1c-1.714 0-3.482 2-6 2Z"/><path fill="#FF9BCD" id="MY" d="m199 199-4 2 1-2h3Z"/><path fill="#FFB2D6" id="PAS" d="M271 203c0 1.046 1 1.122 1 4l-9-5-1-1h-1l-1-2h2l2 1c2.167 0 3.855 3 7 3Z"/><path fill="#FF9BCD" id="MY" d="m192 200-1 1 1-1Z"/><path fill="#C8CACA" id="sptV" d="m151 201-1 1 1-1Z"/><path fill="#FDA3D1" id="Pa5" d="M143 214c-3.239 0-4.575 3-8 3 0-6.31 8.654-15 15-15l1-1h3c5.278 0 1 1.545 1 4l-2 1-1 1h-1l-1 1-1 1c-1.747 0-2 .253-2 2h-1l-1 1-1 1-1 1Z"/><path fill="#FF9BCD" id="MY" d="m262 201 1 1-1-1Z"/><path fill="#FDA3D1" id="Pa5" d="M308 209c1.873 0 5.769 7 14 7 0-4.868-10.402-14-15-14l-1-1h-1c-11.437 0 2 4.298 2 8h1Z"/><path fill="#C8CACA" id="sptV" d="m306 201 1 1-1-1Z"/><path fill="#FF9BCD" id="MY" d="m159 203-1 1 1-1Z"/><path fill="#FDA5D2" id="SPVI" d="M142 269h6c10.549 0 7.535-20.57 11-27.5 4.002-8.004 21-10 21-19.5v-2l-2-5c-1.757 0-4.284-6.069-5-7.5-2.533-5.066-8.233-4.5-13-4.5h-1l-1 1-1 1h-2l-1 1-1 1h-1l-1 1-1 1h-1l-2 2-1 1-1 1-1 1-1 1c0 1.59-5.662 6-7 6l-1 1-1 1-1 1-2 4-1 1-1 2-1 10v9l1 1v2l2 4v2l1 1v1l1 1v1l2 2v1l1 1 2 1 1 1h3Z"/><path fill="#FDB1D8" id="DMX" d="M213 213h1l6-3c0-10.796-15-8.001-15 4l8-1ZM243 213l9 1c0-11.093-15-16.066-15-4l5 3h1Z"/><path fill="#FDA5D2" id="SPVI" d="M315 269h2l1-1 4-3 1-2 1-2 1-2v-1l1-1v-2l1-1v-1l1-2v-1l1-1-1-16-1-1-1-4-1-1v-1l-2-2-1-1-1-1-12-11-2-2-2-1-1-1h-1l-1-1-2-1-3-2h-1c-3.23 0-9.38-.74-11 2.5-.791 1.582-3.942 8.5-6 8.5v1l-1 1-1 3v4c0 6.365 16.778 12.056 20 18.5 3.043 6.087 1.716 27.5 11 27.5h7Z"/><path fill="#FF9BCD" id="MY" d="M297 203c1.238 0 3 .423 3 2l-3-2ZM158 204l-1 1 1-1Z"/><path fill="#C8CACA" id="sptV" d="M153 206h1l1-1-2 1ZM152 207h1v-1l-1 1Z"/><path fill="#FF9BCD" id="MY" d="m154 206-1 1v-1h1ZM302 206l1 1-1-1Z"/><path fill="#C8CACA" id="sptV" d="M150 208h1v-1l-1 1Z"/><path fill="#FF9BCD" id="MY" d="m152 207-1 1v-1h1ZM304 207l1 1-1-1Z"/><path fill="#C8CACA" id="sptV" d="M149 209h1v-1l-1 1Z"/><path fill="#FF9BCD" id="MY" d="m151 208-1 1v-1h1Z"/><path fill="#C8CACA" id="sptV" d="M149 209c-1.747 0-2 .253-2 2l2-2Z"/><path fill="#FF9BCD" id="MY" d="m308 209 1 2-2-2h1Z"/><path fill="#C8CACA" id="sptV" d="M317 274c0-2.664-5.824 1-7 1 0-2.966 5-4.976 5-6h2l1-1 4-3 1-2 1-2 1-2v-1l1-1v-2l1-1v-1l1-2v-1l1-1-1-16-1-1-1-4-1-1v-1l-2-2-1-1-1-1-12-11-1-2c1.873 0 5.769 7 14 7 0 1.01 10 10.372 10 18l1 2v13l-1 2v4c-1.473 0-1 1.952-1 3l-2 4v1l-1 1-1 2-1 1-1 2c-1.747 0-2 .253-2 2l-6 3Z"/><path fill="#FF9BCD" id="MY" d="m233 255-4 1c0-5.766-2-6.7-2-1h-3l2-7c1.643 0 1-3.765 1-5 0-4.098 2.903-8-1-8l-5-1v-3c10.797 0 7.452-15.024 1.5-18H214l6-3c0 1.922 7 3.722 7 0h2c0 4.86 6.912 0 8 0l5 3h-8.5c-5.002 2.501-8.124 18 1.5 18v3c-1.145 0-4-.579-4 1l-1.5-1c-.548 0-1.425 14 .5 14 0 2.607 3 4.913 3 7Z"/><path fill="#C8CACA" id="sptV" d="M145 212h1v-1l-1 1Z"/><path fill="#FF9BCD" id="MY" d="m147 211-1 1v-1h1Z"/><path fill="#C8CACA" id="sptV" d="M144 213h1v-1l-1 1Z"/><path fill="#FF9BCD" id="MY" d="m146 212-1 1v-1h1Z"/><path fill="#C8CACA" id="sptV" d="M143 214h1v-1l-1 1Z"/><path fill="#FF9BCD" id="MY" d="m145 213-1 1v-1h1ZM201 219c4.91 0 5.54 8 10 8 0-3.027-3.839-6.821-2-10.5l4-3.5-8 1-4 5Z"/><path fill="#FEB1D7" id="XII" d="M211 227c3.099 0 5.883 4 10 4 10.797 0 7.452-15.024 1.5-18H213l-4 3.5c-1.839 3.679 2 7.473 2 10.5Z"/><path fill="#FEB1D7" id="XII" d="M245 227c-1.883 0-5.321 4-10 4-9.624 0-6.502-15.499-1.5-18h9.5l4 2.5c1.986 3.973-2 8.553-2 11.5Z"/><path fill="#FF9BCD" id="MY" d="M245 227h1c2.83 0 4.54-8 9-8l-3-5-9-1 4 2.5c1.986 3.973-2 8.553-2 11.5Z"/><path fill="#C8CACA" id="sptV" d="M139 274c0-3.612 7.246 2 8 2 0-2.411-5-5.702-5-7h-3l-1-1-2-1-1-1v-1l-2-2v-1l-1-1v-1l-1-1v-2l-2-4v-2l-1-1v-1c-1.613 0-1.613-8 0-8l1-10 1-2 1-1 2-4 1-1 1-1 1-1c1.338 0 7-4.41 7-6v-1c-3.239 0-4.575 3-8 3-4.098 0-5.266 7-8 7 0 1.424-.362 5-2 5v4l-1 1v3l-1 2v7c1.473 0 1 1.952 1 3 0 4.527 3 8.002 3 12v1c1.577 0 2 1.762 2 3v1c3.585 0 6.014 8 10 8Z"/><path fill="#FF9BCD" id="MY" d="m144 214-1 1v-1h1ZM279 215l-1 1 1-1Z"/><path fill="#FCB3D9" id="PARN" d="M165 270c-4.329 0-10.1 4-11 4-2.666 0-6-2.104-6-5 10.549 0 7.535-20.57 11-27.5 4.002-8.004 21-10 21-19.5l2-1 6.5-2 9.5 1v1l-25 39.5c-1.66 3.321-8 5.595-8 9.5Z"/><path fill="#FF9BCD" id="MY" d="m200 219-1 1 1-1Z"/><path fill="#FFB2D8" id="IRN" fill-rule="evenodd" d="m177 276-1 1c-3.311 0-11-3.694-11-7 0-3.905 6.34-6.179 8-9.5l25-39.5 1-1 1-1h1c4.91 0 5.54 8 10 8 0 2.124 1 4.436 1 6v2c-2.111 0-16.366 29-19 29-6.401 0-10.07 12-16 12m2-11c3.315 0 1.853 6 0 6 0 7.78-16.263-6-4-6h4ZM281 265c5.089 0 4.979 6.261 1.5 8-4.499 2.249-8.219-7-5.5-7l1-1h3m-18-1c6.975 0 11.597 10.049 17.5 13 6.524 3.262 6.989-7 11.5-7 0-3.317-6.032-5.563-7-7.5-2.978-5.955-14.835-25.835-19-30l-8-11.5-2-2h-1c-4.46 0-6.17 8-9 8l-2 6v2c1.564 0 4.174 4.848 5 6.5 1.481 2.963 14 22.281 14 22.5Z"/><path fill="#FF9BCD" id="MY" d="M258 220v1l-2-2 2 1Z"/><path fill="#FCB3D9" id="PARN" d="M292 270c3.533 0 9.443 4 10 4 3.313 0 6-1.457 6-5-9.284 0-7.957-21.413-11-27.5-3.222-6.444-20-12.135-20-18.5l-2-2h-1l-1-1h-15v1l8 11.5c4.165 4.165 16.022 24.045 19 30 .968 1.937 7 4.183 7 7.5Z"/><path fill="#FF9BCD" id="MY" d="m275 221 2 2v-4l-2 2ZM182 221l-2 1v-2l2 1ZM199 220l-1 1v-1h1ZM273 220l1 1-1-1ZM136 221l-1 1 1-1ZM321 222l1 1-1-1ZM134 223l-1 1 1-1ZM127 224c-1.638 0-2 3.576-2 5 1.638 0 2-3.576 2-5ZM323 224l2 2-2-2Z"/><path fill="#FFB1D9" id="NR" d="M213 234h8v-3c-4.117 0-6.901-4-10-4 0 2.124 1 4.436 1 6l1 1ZM235 234h8l1-1 2-6h-1c-1.883 0-5.321 4-10 4v3Z"/><path fill="#FF9BCD" id="MY" d="m325 227 1 1-1-1ZM131 228l-1 1 1-1ZM123 237h1v-3l1-1v-4c-1.931 0-2 6.225-2 8ZM130 229l-1 2 1-2ZM327 232l1 1-1-1Z"/><path fill="#C9C9C8" id="icp" d="m125 233-1 1 1-1Z"/><path fill="#FF9BCD" id="MY" d="m213 234-1 1v-2l1 1ZM243 234l1 1v-2l-1 1Z"/><path fill="#FEB0D8" id="GRN" d="M193 264c0 .373 4.263 3.027 5 4.5l-1 7.5c6.153 0 15.944-3.389 19-9.5.811-1.621 5.116-9.5 7-9.5l1-2 2-7v-13l-5-1h-8l-1 1c-2.111 0-16.366 29-19 29Z"/><path fill="#CBCBCC" id="mlf" d="M226 235c3.903 0 1 3.902 1 8 0 1.235.643 5-1 5v-13ZM231 247l-1 1c-1.925 0-1.048-14-.5-14l1.5 1v12Z"/><path fill="#FEB0D8" id="GRN" d="m263 264-4 3.5c-1.284 2.568 1 6.486 1 8.5-9.013 0-14.152-4.652-20.5-11-1.398-1.398-4.822-9-6.5-9v-1c0-2.087-3-4.393-3-7l1-1v-12c0-1.579 2.855-1 4-1h8l1 1c1.564 0 4.174 4.848 5 6.5 1.481 2.963 14 22.281 14 22.5Z"/><path fill="#C9C9C8" id="icp" d="M333 234v2l-1-2h1ZM124 237l-1 2v-2h1Z"/><path fill="#FF9BCD" id="MY" d="M333 238c1.634 0 1.634 11 0 11v-11ZM128 241c-1.613 0-1.613 8 0 8v-8Z"/><path fill="#C9C9C8" id="icp" d="M123 249h1c0-1.048.473-3-1-3v3Z"/><path fill="#FF9BCD" id="MY" d="m231 247-1 1 1-1ZM124 249c0 4.527 3 8.002 3 12-3.096 0-4-9.504-4-12h1ZM329 249l-1 1 1-1Z"/><path fill="#C9C9C8" id="icp" d="M332 251h1v-2l-1 2Z"/><path fill="#FF9BCD" id="MY" d="m128 250 1 1-1-1Z"/><path fill="#FEC6E2" id="RO" d="M227 265h2v-9c0-5.766-2-6.7-2-1v10Z"/><path fill="#FF9BCD" id="MY" d="m328 251-1 2 1-2ZM333 251c0 1.145.579 4-1 4v-4h1ZM129 253l2 4-2-4ZM327 254l-1 1 1-1Z"/><path fill="#C8C8CC" id="tspc" d="m221 272-1 1c-8.764 0 3-10.805 3-16l1-2h3v8c-2.638 0-6 6.355-6 9ZM230 263c4.542 0 3.476 10 7 10 6.702 0-4-12.63-4-17v-1l-4 1v6l1 1Z"/><path fill="#FF9BCD" id="MY" d="M332 255c-1.473 0-1 1.952-1 3 1.473 0 1-1.952 1-3Z"/><path fill="#FF9BCD" id="MY" fill-rule="evenodd" d="M241 288c0 1.748-7.037.425-5 4.5 1.576 3.151 16.304 8.392 18 5 1.456-2.912-10.412-9.5-13-9.5m-12 4c0 4.395 7.072 4.286 10.5 6 5.902 2.951 30.992 3.004 37 0 1.859-.93 10.5.005 10.5-3-11.991 0 5-3.086 5-6-1.235 0-5 .643-5-1l-6.5 3c-7.098 3.549-13.505-5.51-15.5-9.5l-5-5.5c-9.013 0-14.152-4.652-20.5-11-1.398-1.398-4.822-9-6.5-9 0 4.37 10.702 17 4 17 0 3.772 14.883 14.191 18.5 16l6.5 4.5-6.5 1.5-10-8-12-1-3.5-2c0 1.293 3.155 8-1 8ZM207 291l-5 6.5c1.779 3.559 16.295-1.59 18-5 1.355-2.71-4.76-5.37-6.5-4.5l-6.5 3m-38-4c0 2.641-1.823 2-4 2 0 3.535 9 2.879 9 5.5l-4.5.5c-2.885-1.443-10.5-4.009-10.5-8 0-1.797-4.123-4 0-4 0-.562-5-4.361-5-9-2.666 0-6-2.104-6-5h-6c0 1.298 5 4.589 5 7 0 .337 13.637 11 6 11 0 3.762 12.913 6.706 15.5 8 7.118 3.559 37.01 7.995 45 4 3.142-1.571 14.5-2.617 14.5-7-5.275 0-2-5.477-2-8l-3.5 2c-3.667 1.834-15.5-1.303-15.5 5-2.558 0-4.36 2.93-6.5 4-1.749.874-8.288-1.856-4-4 4.082-2.041 23.5-12.919 23.5-18-8.764 0 3-10.805 3-16-1.884 0-6.189 7.879-7 9.5-3.056 6.111-12.847 9.5-19 9.5-2.805 0-9.447 12.974-13.5 15-5.849 2.925-10.406-4-14.5-4Z"/><path fill="#FF9BCD" id="MY" d="m326 257-1 1 1-1ZM331 258l-2 4c2.109 0 2-2.535 2-4ZM131 259l1 1-1-1ZM325 259l-1 2 1-2ZM132 261l1 1-1-1ZM324 261l-1 2 1-2ZM127 262c1.577 0 2 1.762 2 3l-2-3ZM230 263l-1 1v-2l1 1ZM133 263l2 2-2-2Z"/><path fill="#FFB3D8" id="IO" d="m226 284-3.5 2c-3.667 1.834-15.5-1.303-15.5 5-2.558 0-4.36 2.93-6.5 4-1.749.874-8.288-1.856-4-4 4.082-2.041 23.5-12.919 23.5-18l1-1c0-2.645 3.362-9 6-9v2c0 3.531 1 7.893 1 12v1l-1 1v4l-1 1ZM230 283v1l3.5 2 12 1 10 8 6.5-1.5-6.5-4.5c-3.617-1.809-18.5-12.228-18.5-16-3.524 0-2.458-10-7-10l-1 1v18l1 1Z"/><path fill="#FF9BCD" id="MY" d="m323 263-1 2 1-2ZM329 263l-1 1 1-1Z"/><path fill="#FCB3D7" id="LRNm" d="M159 283c3.849 0 7.015 4 10 4 4.094 0 8.651 6.925 14.5 4 4.053-2.026 10.695-15 13.5-15l1-7.5c-.737-1.473-5-4.127-5-4.5-6.401 0-10.07 12-16 12l-1 1c-3.311 0-11-3.694-11-7-4.329 0-10.1 4-11 4 0 4.639 5 8.438 5 9ZM288 287l-1 1-6.5 3c-7.098 3.549-13.505-5.51-15.5-9.5l-5-5.5c0-2.014-2.284-5.932-1-8.5l4-3.5c6.975 0 11.597 10.049 17.5 13 6.524 3.262 6.989-7 11.5-7 3.533 0 9.443 4 10 4 0 5.112-5 8.775-5 9-2.008 0-9 1.355-9 4Z"/><path fill="#FF9BCD" id="MY" d="m328 264-1 2 1-2ZM175 265c-12.263 0 4 13.78 4 6-8.79 0-4-1.676-4-6Z"/><path fill="#FEB3D8" id="AMBv" d="M179 265v6c-8.79 0-4-1.676-4-6h4Z"/><path fill="#FF9BCD" id="MY" d="M179 265c3.315 0 1.853 6 0 6v-6ZM228 277h1v-12h-2c0 3.531 1 7.893 1 12ZM278 265l-1 1 1-1Z"/><path fill="#FEB3D8" id="AMBv" d="M281 265c0 1.602 3.058 2.384 2 4.5-2.439 4.879-6-.597-6-3.5l1-1h3Z"/><path fill="#FF9BCD" id="MY" d="M281 265c5.089 0 4.979 6.261 1.5 8-4.499 2.249-8.219-7-5.5-7 0 2.903 3.561 8.379 6 3.5 1.058-2.116-2-2.898-2-4.5ZM139 274l13 13c-1.96 0-23-18.894-23-21 3.585 0 6.014 8 10 8ZM135 266l1 1-1-1ZM327 266l-1 1 1-1ZM326 267l-1 2 1-2ZM138 268l1 1-1-1ZM318 268l-1 1 1-1ZM304 287c0 1.698-14.208 8-17 8l7.5-4c.651-.325 5.781-4 2.5-4 0-2.556 5.574-4 0-4 0-.225 5-3.888 5-9 3.313 0 6-1.457 6-5h7c0 1.024-5 3.034-5 6l-1 1c0 .832-13.226 11-5 11ZM325 269c-1.747 0-2 .253-2 2l2-2ZM317 274l-6 7c2.132 0 12-7.433 12-10l-6 3ZM221 272l-1 1 1-1Z"/><path fill="#C9CACA" id="sctd" d="M152 287h1c7.637 0-6-10.663-6-11-.754 0-8-5.612-8-2l13 13ZM305 286l-1 1c-8.226 0 5-10.168 5-11l1-1c1.176 0 7-3.664 7-1l-6 7-2 2c-1.429 0-4 1.288-4 3Z"/><path fill="#C8CACA" id="sptV" d="m310 275-1 1 1-1Z"/><path fill="#FF9BCD" id="MY" d="m177 276-1 1 1-1Z"/><path fill="#FFC6E2" id="RPA" d="M228 292h1c4.155 0 1-6.707 1-8v-1l-1-1v-5h-1v1l-1 1v4l-1 1c0 2.523-3.275 8 2 8Z"/><path fill="#FF9BCD" id="MY" d="m228 278-1 1 1-1ZM311 281l-2 2c1.747 0 2-.253 2-2ZM229 282l1 1-1-1Z"/><path fill="#C8C8CB" id="rust" d="M169 287c0 2.641-1.823 2-4 2l-6-2c0-1.797-4.123-4 0-4 3.849 0 7.015 4 10 4Z"/><path fill="#FF9BCD" id="MY" d="m227 283-1 1 1-1Z"/><path fill="#C8C8CB" id="rust" d="M292 289h1l1-1 3-1c0-2.556 5.574-4 0-4-2.008 0-9 1.355-9 4l-1 1c0 1.643 3.765 1 5 1Z"/><path fill="#FF9BCD" id="MY" d="M309 283c-1.429 0-4 1.288-4 3 1.429 0 4-1.288 4-3ZM305 286l-1 1 1-1Z"/><path fill="#CBC7CC" id="sctv" d="m159 287 6 2c0 3.535 9 2.879 9 5.5l-4.5.5c-2.885-1.443-10.5-4.009-10.5-8Z"/><path fill="#FF9BCD" id="MY" d="m288 287-1 1 1-1Z"/><path fill="#CBC7CC" id="sctv" d="M292 289h1l1-1 3-1c3.281 0-1.849 3.675-2.5 4l-7.5 4c-11.991 0 5-3.086 5-6Z"/><path fill="#C7C9C9" id="py" d="m207 291-5 6.5c1.779 3.559 16.295-1.59 18-5 1.355-2.71-4.76-5.37-6.5-4.5l-6.5 3ZM241 288c0 1.748-7.037.425-5 4.5 1.576 3.151 16.304 8.392 18 5 1.456-2.912-10.412-9.5-13-9.5Z"/><path fill="#FF9BCD" id="MY" d="m294 288-1 1 1-1Z"/></svg>