<svg xmlns="http://www.w3.org/2000/svg" viewBox="0 0 456 320"><path fill="#1BA696" id="RSPagl1" d="m191 17-14 1-1-5c5.446 0 10.463-2 15-2l1 5-1 1Z"/><path fill="#1BA598" id="RSPd1" d="m223 25-2 2c0-2.183-3.405-3.31-4-4.5-4.824-9.648-16.389-6.5-25-6.5l-1-5c9.316 0 32 1.132 32 14ZM235 27h1c0-2.477 2.011-2.522 3-4.5 4.652-9.304 16.776-6.5 26-6.5l1-5c-9.813 0-33 1.167-33 15l2 1Z"/><path fill="#1BA696" id="RSPagl1" d="m265 16 15 3v-6c-5.04 0-9.869-2-14-2l-1 5Z"/><path fill="#019FAC" id="VISa1" d="M156 21h1c5.391 0 12.728-2 20-2v-1l-1-5c-5.542 0-13.702 1.601-18.5 4-1.238.62-5.5-1.144-5.5 1 0 1.376 2.024 3 4 3ZM300 22h2c0-4.147 3-.945 3-4-7.95 0-16.606-5-25-5v6c3.73 0 20 .317 20 3Z"/><path fill="#1BA697" id="RSPd2/3" d="M221 27c-2.732 0-2.259 4-5 4 0-9.463-19.22-7-24-7l-1-7 1-1c8.611 0 20.176-3.148 25 6.5.595 1.19 4 2.317 4 4.5ZM240 31h1c0-9.797 18.423-7 24-7v-8c-9.224 0-21.348-2.804-26 6.5-.989 1.978-3 2.023-3 4.5l4 4Z"/><path fill="#1AA496" id="RSPagl2/3" d="m192 16-1 1 1-1ZM279 28v1c-4.799 0-8.786-4-14-4v-9l15 3c0 2.723-1 5.778-1 9ZM178 28v1c4.585 0 7.957-4 13-4l1-1-1-7-14 1v1c0 3.222 1 6.277 1 9Z"/><path fill="#187C64" id="SSp-tr1" d="M119 35h1c0-1.722 5.235-2.368 6.5-3 7.165-3.583 14.893-5.447 22-9 1.471-.736 7.5.357 7.5-2-1.976 0-4-1.624-4-3-9.089 0-19.744 5.122-27.5 9-1.382.69-7.5 1.1-7.5 3l2 5ZM340 30l-3 4c-10.602 0-23.293-12-35-12 0-4.147 3-.945 3-4 8.772 0 19.966 5.233 27.5 9 1.272.636 7.5 1.45 7.5 3Z"/><path fill="#009EAB" id="VISa2/3" d="M166 30h1c2.978 0 6.49-1 10-1l1-1c0-2.723-1-5.778-1-9-7.272 0-14.609 2-20 2 0 5.715 3.066 2 3.5 2 .448 0 5.5 6.074 5.5 7ZM290 30h1c0-2.034 6.715-8 9-8 0-2.683-16.27-3-20-3 0 2.723-1 5.778-1 9l10 2c0-1.186 1-1.186 1 0Z"/><path fill="#188061" id="SSp-tr2/3" d="M124 45h1c0-2.155 6.965-3.233 8.5-4 5.25-2.625 27.31-11 32.5-11 0-.926-5.052-7-5.5-7-.434 0-3.5 3.715-3.5-2h-1c0 2.357-6.029 1.264-7.5 2-7.107 3.553-14.835 5.417-22 9-1.265.632-6.5 1.278-6.5 3l4 10ZM337 35l-5 9-30.5-11c-1.415-.708-10.5-1.622-10.5-3 0-2.034 6.715-8 9-8h2c11.707 0 24.398 12 35 12v1Z"/><path fill="#1AA596" id="RSPd5" d="M191 37c4.828 0 16-6.211 16 4l9-9v-1c0-9.463-19.22-7-24-7v1c0 3.312-1 8.038-1 12ZM265 37c-3.737 0-16-5.709-16 3-2.158 0-8-7.062-8-9 0-9.797 18.423-7 24-7v13Z"/><path fill="#1BA697" id="RSPd2/3" d="M191 25h1v-1l-1 1Z"/><path fill="#1CA697" id="RSPagl5" d="m179 41 1 1 11-4v-1c0-3.962 1-8.688 1-12h-1c-5.043 0-8.415 4-13 4 0 3.531 1 7.893 1 12Z"/><path fill="#1BA597" id="RSPv1" d="M229 71h3l1-26.5c-.981-1.962-2.216-8.568-1-11l3-6.5-2-1-4.5 5-5.5-6-2 2 4 7.5-1 9.5 1 27h2c0-5.32 2-5.498 2 0Z"/><path fill="#1CA697" id="RSPagl5" d="M277 41v2c-3.926 0-7.609-5-12-5V25c5.214 0 9.201 4 14 4v1c-1.679 0-2 9.077-2 11Z"/><path fill="#1AA597" id="RSPv2/3" d="M221 71h4l-1-27 1-9.5-4-7.5c-2.732 0-2.259 4-5 4v1c1.274 0 2 7.483 2 9 0 10.108 3 20.388 3 30ZM232 71h4c0-13.416 4-26.776 4-40l-4-4h-1l-3 6.5c-1.216 2.432.019 9.038 1 11L232 71Z"/><path fill="#019EAC" id="VISa4" d="M177 29h1v-1l-1 1ZM286 33h1c0-2.215 2-1.519 2-3l-10-2v2l7 3ZM170 33h1l6-4c-3.51 0-7.022 1-10 1l3 3Z"/><path fill="#019EAB" id="VISa5" d="M171 33c0 2.755 5.149 5 5.5 5l2.5 3c0-4.107-1-8.469-1-12h-1l-6 4Z"/><path fill="#188061" id="SSp-tr2/3" d="M289 30h1c0-1.186-1-1.186-1 0Z"/><path fill="#188060" id="SSp-bfd1" d="m57 75 2 3 12.5-13 6-6c11.213-5.606 28.948-24 41.5-24l-2-5c-10.706 0-39.347 21.847-48 30.5-3.39 3.39-12 9.788-12 14.5Z"/><path fill="#1B7E62" id="SSp-tr4" d="m125 45 2 6c2.945 0 7.797-4.648 10.5-6 5.242-2.621 27.474-12 32.5-12l-3-3h-1c-5.19 0-27.25 8.375-32.5 11-1.535.767-8.5 1.845-8.5 4Z"/><path fill="#019EAB" id="VISa5" d="m286 33-9 8c0-1.923.321-11 2-11l7 3Z"/><path fill="#1B7E62" id="SSp-tr4" d="m332 45-3 5c-7.993 0-31.87-17-42-17 0-2.215 2-1.519 2-3h2c0 1.378 9.085 2.292 10.5 3L332 44v1Z"/><path fill="#188060" id="SSp-bfd1" d="m400 75-3 3-14.5-15-9-8c-10.474-5.237-24.529-20-36.5-20v-1l3-4c4.753 0 10.363 4.931 14.5 7 11.348 5.674 29.302 15.103 34.5 25.5 1.473 2.947 11 7.663 11 12.5Z"/><path fill="#1BA498" id="RSPv5" d="m240 69-4 2c0-13.416 4-26.776 4-40h1c0 1.938 5.842 9 8 9v2c0 8.273-6 15.564-6 23l-1 2-2 2ZM216 69l5 2c0-9.612-3-19.892-3-30 0-1.517-.726-9-2-9l-9 9v2c0 6.568 8 21.102 8 24l1 2Z"/><path fill="#197F60" id="SSp-tr5" d="m130 56 6 1 9.5-4c5.44-2.72 28.639-10 34.5-10v-1l-1-1-2.5-3c-.351 0-5.5-2.245-5.5-5h-1c-5.026 0-27.258 9.379-32.5 12-2.703 1.352-7.555 6-10.5 6l3 5ZM320 57h1l6-3 2-3v-1c-7.993 0-31.87-17-42-17h-1l-9 8v2l31.5 9 11.5 5Z"/><path fill="#187F63" id="SSp-bfd2/3" d="M59 79c4.563 0 4.16 7 8 7 1.76 0 3.394-4.288 4-5.5L82.5 68c6.936-6.936 31.232-23 41.5-23l-4-10h-1c-12.552 0-30.287 18.394-41.5 24l-6 6L59 78v1Z"/><path fill="#1AA697" id="RSPd6a" d="M193 50c0-3.641 7.64 1 8 1 0-1.743 4.823-8 6-8v-2c0-10.211-11.172-4-16-4v1l1 12h1ZM255 51h1c0-3.68 6.754-1 8-1 0-3.531 1-7.893 1-12v-1c-3.737 0-16-5.709-16 3v2c1.703 0 6 7.441 6 9Z"/><path fill="#187F63" id="SSp-bfd2/3" d="M389 87h1c0-1.339 5.122-8 7-8v-1l-14.5-15-9-8c-10.474-5.237-24.529-20-36.5-20l-5 9v1c13.31 0 35.602 17.102 45.5 27 3.569 3.569 11.5 10.062 11.5 15Z"/><path fill="#1CA597" id="RSPagl6a" d="m191 51-9 1-2-9v-1l11-4 1 12-1 1ZM274 52h1l2-9c-3.926 0-7.609-5-12-5 0 4.107-1 8.469-1 12l10 2Z"/><path fill="#1AA498" id="RSPv6a" d="M247 61c0 1.797-2.203 4-4 4 0-7.436 6-14.727 6-23 1.703 0 6 7.441 6 9 0 2.33-4 3.227-4 6-1.747 0-2 .253-2 2l-2 2Z"/><path fill="#188063" id="SSp-tr6a" d="M147 62h2c0-1.233 7.258-2.379 8.5-3 7.242-3.62 15.803-6 24.5-6v-1l-2-9c-5.861 0-29.06 7.28-34.5 10l-9.5 4v1l5 2c.986 0 6 1.087 6 2Z"/><path fill="#1AA498" id="RSPv6a" d="m209 61 6 6c0-2.898-8-17.432-8-24-1.177 0-6 6.257-6 8 1.782 0 8 8.283 8 10Z"/><path fill="#188063" id="SSp-tr6a" d="M308 62h1l6-2 5-3-11.5-5-31.5-9-2 9c0 2.207 5.176.338 6.5 1 2.307 1.153 15.586 6 17.5 6 1.336 0 8 2.178 8 3h1Z"/><path fill="#197C64" id="SSp-bfd4" d="M72 93h1c0-2.776 8.892-9.392 11.5-12 10.483-10.483 21.791-17.895 34-24l8.5-6-2-6h-1c-10.268 0-34.564 16.064-41.5 23L71 80.5c-.606 1.212-2.24 5.5-4 5.5v1l5 6ZM383 93h1l5-6c0-4.938-7.931-11.431-11.5-15-9.898-9.898-32.19-27-45.5-27l-3 5v1l12.5 8c10.417 5.208 28.555 15.61 33.5 25.5 1.418 2.835 8 4.092 8 8.5Z"/><path fill="#1BA698" id="RSPd6b" d="M201 51v1c-2.892 0-4.781-1-8-1v-1c0-3.641 7.64 1 8 1ZM264 51l-4.5-1-3.5 2v-1c0-3.68 6.754-1 8-1v1Z"/><path fill="#1AA598" id="RSPagl6b" d="M191 51h2v-1h-1l-1 1Z"/><path fill="#CACCC7" id="cing" d="m215 67 1 2c-7.29 0-17.129-8.814-23.5-12-7.482-3.74-20.081 3-27.5 3h-6c0-1.952 2.454-.477 3.5-1 5.065-2.533 12.341-2.17 16-4 .905-.452 4.5-1.082 4.5-2 1.899 0 8 .488 8-2h2c3.219 0 5.108 1 8 1 0 1.675 6.062 9 8 9l6 6ZM242 67l-2 2c7.874 0 16.728-8.614 23.5-12 7.538-3.77 20.12 3 27.5 3h6c0-1.15-4.516-1.508-5.5-2-4.822-2.41-11.799-4-17.5-4-3.014 0-7.346-3-10-3l-4.5-1-3.5 2-5 5c0 1.747-.253 2-2 2 0 1.747-.253 2-2 2 0 1.797-2.203 4-4 4l-1 2Z"/><path fill="#1AA598" id="RSPagl6b" d="M274 52v2c-3.014 0-7.346-3-10-3v-1l10 2Z"/><path fill="#1A7D62" id="SSp-bfd5" d="M73 93c3.21 0 3 8 8 8l7-8.5c5.224-10.447 21.976-20.738 31.5-25.5 3.652-1.826 7.228-7 11.5-7v-1l-1-3-3-5-8.5 6c-12.209 6.105-23.517 13.517-34 24C81.892 83.608 73 90.224 73 93Z"/><path fill="#1AA598" id="RSPagl6b" d="M182 53h1c1.899 0 8 .488 8-2l-9 1v1Z"/><path fill="#1AA497" id="RSPv6b" d="M201 52c0 1.675 6.062 9 8 9 0-1.717-6.218-10-8-10v1ZM256 52l-5 5c0-2.773 4-3.67 4-6h1v1Z"/><path fill="#1A7D62" id="SSp-bfd5" d="M383 93c0 1.255-4.777 8-7 8l-11.5-14c-7.851-3.925-31.011-27-39.5-27v-1c0-1.624 2-2.75 2-5l2-3 12.5 8c10.417 5.208 28.555 15.61 33.5 25.5 1.418 2.835 8 4.092 8 8.5Z"/><path fill="#1A8063" id="SSp-tr6b" d="M307 62v1c-3.823 0-6.314-3-10-3 0-1.15-4.516-1.508-5.5-2-4.822-2.41-11.799-4-17.5-4v-2h1c0 2.207 5.176.338 6.5 1 2.307 1.153 15.586 6 17.5 6 1.336 0 8 2.178 8 3ZM149 62v1c3.823 0 6.314-3 10-3 0-1.952 2.454-.477 3.5-1 5.065-2.533 12.341-2.17 16-4 .905-.452 4.5-1.082 4.5-2h-1c-8.697 0-17.258 2.38-24.5 6-1.242.621-8.5 1.767-8.5 3Z"/><path fill="#197D62" id="SSp-un5" d="M321 57c0 2.109 2.535 2 4 2 0-1.624 2-2.75 2-5l-6 3ZM136 58l-5 1-1-3 6 1v1Z"/><path fill="#C9C7C9" id="ccb" d="M344 107c2.25 0 3.376 2 5 2 0-9.952-8.47-15.97-15.5-23l-7.5-7-1-1-2-2-1-1h-1c-1.427 0-13.958-8.729-16.5-10-3.19-1.595-6.757-2.379-10-4-1.046-.523-3.5.952-3.5-1-7.38 0-19.962-6.77-27.5-3-6.772 3.386-15.626 12-23.5 12l-4 2h-15l-5-2c-7.29 0-17.129-8.814-23.5-12-7.482-3.74-20.081 3-27.5 3 0 1.233-7.258 2.379-8.5 3L140 71l-1 1-1 1h-1c0 1.747-.253 2-2 2l-1 1-1 1h-1l-1 1-9 8.5c-6.123 6.123-15 13.097-15 22.5 1.974 0 3.517-2 6-2 0-3.559 6.978-12 10-12 0-4.353 7.762-14 12-14 0-3.497 9.382-8.44 12.5-10 12.053-6.026 30.502-15.25 45-8 4.508 2.254 15.411 14 19.5 14 5.431 0 11.517 4 16.5 4 3.01 0 11.153-4 15.5-4h2c0-1.577 1.762-2 3-2 0-1.89 6.374-6 8-6 0-5.595 20.439-10.53 25.5-8 5.465 2.733 12.52 2.26 18 5l13 7 6 6c4.196 2.098 13.5 9.67 13.5 15 2.84 0 11 10.674 11 13Z"/><path fill="#1AA497" id="RSPv6b" d="M251 57c-1.747 0-2 .253-2 2 1.747 0 2-.253 2-2Z"/><path fill="#1A7F61" id="SSp-un6a" d="m314 65 8 4c0-3.516 3-6.557 3-9v-1c-1.465 0-4 .109-4-2h-1l-5 3-1 5ZM143 65l-8 4c-2.227 0-1.773-9-4-9v-1l5-1 5 2 2 5Z"/><path fill="#1AA497" id="RSPv6b" d="m249 59-2 2c1.747 0 2-.253 2-2Z"/><path fill="#198060" id="SSp-bfd6a" d="M90 111h1c0-1.747.253-2 2-2 0-5.17 11.426-12.926 15-16.5 1.881-1.881 2.431-5.5 5-5.5 0-1.269 19.719-17 22-17v-1c-2.227 0-1.773-9-4-9-4.272 0-7.848 5.174-11.5 7-9.524 4.762-26.276 15.053-31.5 25.5l-7 8.5v1l9 9Z"/><path fill="#197D61" id="SSp-ul6a" d="m147 62-4 3-2-5c.986 0 6 1.087 6 2Z"/><path fill="#C9C9CA" id="scwm" d="M140 68v3l16.5-8c1.242-.621 8.5-1.767 8.5-3h-6c-3.686 0-6.177 3-10 3l-6 3-3 2ZM316 68c0 3.153 5 4.304 5 7-1.427 0-13.958-8.729-16.5-10-3.19-1.595-6.757-2.379-10-4-1.046-.523-3.5.952-3.5-1h6c3.686 0 6.177 3 10 3l6 3 3 2Z"/><path fill="#197D61" id="SSp-ul6a" d="m309 63 5 2 1-5-6 2v1Z"/><path fill="#198060" id="SSp-bfd6a" d="m376 102-10 9-9-10.5c-8.253-8.253-15.603-18.551-25.5-23.5l-9.5-7v-1c0-3.516 3-6.557 3-9 8.489 0 31.649 23.075 39.5 27l11.5 14v1Z"/><path fill="#C7C8CC" id="alv" d="M137 81c0-2.315 13.328-9.914 15.5-11 13.247-6.624 29.869-10.066 44-3 3.548 1.774 14.165 14 18.5 14 0-2.618-3-1.65-3-4-4.089 0-14.992-11.746-19.5-14-14.498-7.25-32.947 1.974-45 8-3.118 1.56-12.5 6.503-12.5 10h2ZM295 111h17l12.5-2 7.5-6c0-2.389 1-5.987 1-9 0-5.33-9.304-12.902-13.5-15l-6-6-13-7c-5.48-2.74-12.535-2.267-18-5-5.061-2.53-25.5 2.405-25.5 8 3.352 0 7.554-4.527 10.5-6 7.9-3.95 40.846 6.193 43.5 11.5 1.138 2.276 9 3.44 9 6.5l5 4c5.174 0 9.719 16.891 1.5 21-11.875 5.938-29.281 4-43.5 4v1h12Z"/><path fill="#1C8064" id="SSp-ul6b" d="M143 65v1l6-3v-1h-2l-4 3ZM314 65l-1 1-6-3v-1h1l1 1 5 2Z"/><path fill="#1A8063" id="SSp-tr6b" d="M309 62v1l-1-1h1Z"/><path fill="#7ECF4B" id="CA1" d="M217 96h1c0-3.238 3-5.135 3-9 0-2.829-5-2.995-5-6h-1c-4.335 0-14.952-12.226-18.5-14-14.131-7.066-30.753-3.624-44 3-2.172 1.086-15.5 8.685-15.5 11 6.42 0 16.862 3.181 22.5 6 1.319.66 5.5-.334 5.5 2 4.578 0 10.936-6.782 16.5-4 9.859 4.93 23.889 11 35.5 11ZM291 89c-4.502 0-10.969-6.765-16.5-4-9.916 4.958-23.805 11-35.5 11 0-2.986-4-6.15-4-10l1-1 1-1 1-1 1-1 2-1 1-1 1-1c1.238 0 3-.423 3-2 1.238 0 3-.423 3-2 1.822 0 8-3.711 8-6 3.352 0 7.554-4.527 10.5-6 7.9-3.95 40.846 6.193 43.5 11.5 1.138 2.276 9 3.44 9 6.5-6.679 0-17.654 3.077-23.5 6-1.319.66-5.5-.334-5.5 2Z"/><path fill="#1A7D63" id="SSp-un6b" d="M135 70v1l5-3 3-2v-1l-8 4v1Z"/><path fill="#1AA498" id="RSPv6a" d="m243 65-1 2 1-2Z"/><path fill="#1A7D63" id="SSp-un6b" d="m322 70-1 1-5-3-3-2 1-1 8 4v1Z"/><path fill="#CBC9C7" id="or" d="M95 115v5l12-11c0-9.403 8.877-16.377 15-22.5l9-8.5 1-1h1l1-1 1-1 2-2h1l1-1 1-1v-3l-5 3-4.5 4c-4.835 2.418-12.061 12-17.5 12 0 6.107-14 12.64-14 17l-1 1c0 3.372-3 6.053-3 10ZM361 114c0 .671 2.662 5 0 5-4.907 0-6.605-10-12-10 0-9.952-8.47-15.97-15.5-23l-7.5-7-1-1-2-2-1-1h-1c0-2.696-5-3.847-5-7l5 3c5.108 0 23.649 19.15 27.5 23l8.5 9c0 3.408 4 6.686 4 11Z"/><path fill="#C7C8CC" id="alv" d="M257 69c-1.626 0-8 4.11-8 6 1.822 0 8-3.711 8-6Z"/><path fill="#1A7E61" id="SSp-bfd6b" d="m135 71-4.5 4c-4.835 2.418-12.061 12-17.5 12 0-1.269 19.719-17 22-17v1ZM365 112h1v-1l-9-10.5c-8.253-8.253-15.603-18.551-25.5-23.5l-9.5-7-1 1c5.108 0 23.649 19.15 27.5 23l8.5 9 8 9Z"/><path fill="#C9C9CA" id="scwm" d="m140 71-1 1 1-1ZM139 72l-1 1 1-1ZM137 73l-2 2c1.747 0 2-.253 2-2Z"/><path fill="#1A7E62" id="SSs1" d="m26 151 6 1c0-21.349 8.148-40.795 17-58.5L59 79v-1l-2-3c-3.61 0-9.7 11.901-11 14.5-9.736 19.473-20 38.057-20 61.5Z"/><path fill="#C9C9CA" id="scwm" d="m135 75-1 1 1-1Z"/><path fill="#C7C8CC" id="alv" d="M249 75c-1.238 0-3 .423-3 2 1.238 0 3-.423 3-2Z"/><path fill="#C9C9CA" id="scwm" d="m322 75 1 1-1-1Z"/><path fill="#1A7E62" id="SSs1" d="m430 151-5 1c0-21.119-9.209-39.919-18-57.5-1.28-2.56-6.661-15.5-10-15.5v-1l3-3c1.264 0 10.051 13.602 11 15.5 9.856 19.713 19 36.602 19 60.5Z"/><path fill="#C9C9CA" id="scwm" d="m134 76-1 1 1-1ZM132 77l-1 1 1-1Z"/><path fill="#C9CCC9" id="dhc" d="M229 86h5l2-1 1-1 1-1 1-1 2-1 1-1 1-1 1-2c-4.347 0-12.49 4-15.5 4-4.983 0-11.069-4-16.5-4 0 2.35 3 1.382 3 4h1l7 5h4c0-1.4 2-1.4 2 0Z"/><path fill="#C7C8CC" id="alv" d="M246 77c0 1.577-1.762 2-3 2l1-2h2Z"/><path fill="#C9C9CA" id="scwm" d="m325 78 1 1-1-1Z"/><path fill="#1B8063" id="SSs2/3" d="m32 152 8 1c0-16.497 10.011-35.522 17-49.5L67 87v-1c-3.84 0-3.437-7-8-7L49 93.5c-8.852 17.705-17 37.151-17 58.5Z"/><path fill="#C7C8CC" id="alv" d="m243 79-1 1 1-1Z"/><path fill="#1B8063" id="SSs2/3" d="m425 152-8 1c0-12.057-12.534-38.567-18-49.5-2.189-4.379-9-11.598-9-16.5 0-1.339 5.122-8 7-8 3.339 0 8.72 12.94 10 15.5 8.791 17.581 18 36.381 18 57.5Z"/><path fill="#C7C8CC" id="alv" d="m242 80-1 1 1-1ZM171 111h2v-1c-11.822 0-31.965 1.768-41.5-3-11.298-5.649-4.669-22 .5-22l3-4c-4.238 0-12 9.647-12 14l1 8 4.5 4c4.346 2.173 10.348 4 15.5 4h27Z"/><path fill="#7DCF4B" id="CA2" d="m165 89-2 2c0-1.78-6.197-1.348-7.5-2-6.854-3.427-15.231-4-23.5-4l3-4h2c6.42 0 16.862 3.181 22.5 6 1.319.66 5.5-.334 5.5 2Z"/><path fill="#C7C8CC" id="alv" d="m223 86-2 1c0-2.829-5-2.995-5-6l7 5ZM241 81l-2 1 2-1Z"/><path fill="#7DCF4B" id="CA2" d="m291 89 2 2 11.5-4c5.135-2.568 14.41-2 20.5-2l-5-4c-6.679 0-17.654 3.077-23.5 6-1.319.66-5.5-.334-5.5 2Z"/><path fill="#C7C8CC" id="alv" d="m239 82-1 1 1-1ZM238 83l-1 1 1-1ZM237 84l-1 1 1-1Z"/><path fill="#7ECF49" id="CA3" d="M173 110h2l3-1c0-2.789 7.892-2 10-2 0-4.273-8-5.834-8-8h-9c-5.275 0-8-2.822-8-8 0-1.78-6.197-1.348-7.5-2-6.854-3.427-15.231-4-23.5-4-5.169 0-11.798 16.351-.5 22 9.535 4.768 29.678 3 41.5 3Z"/><path fill="#7BD04A" id="DG-mo" d="m207 120-4 1c-3.222 0-6.277-1-9-1h-1l-1-1h-2c0-1.638-3.576-2-5-2l-5-2-1-1-3-1-1-1v-2l3-1c6.513 0 13.945 3.223 19.5 6 5.113 2.556 21.164-10.172 19.5-13.5-1.837-3.674-10.571.5-14 .5-8.039 0-16.462-10.02-24.5-6-1.678.839-7.5-.11-7.5 3-5.275 0-8-2.822-8-8l2-2c4.578 0 10.936-6.782 16.5-4 9.859 4.93 23.889 11 35.5 11l1 1h3v8l-2 4c-1.577 0-2 1.762-2 3l-3 3-1 1h-1l-1 1-1 1-1 1h-1l-1 1Z"/><path fill="#C7C8CC" id="alv" d="M234 86h1l1-1-2 1Z"/><path fill="#7BD04A" id="DG-mo" d="M260 121h1l2-1 1-1h3l2-1 2-1h1l1-1c2.892 0 4.781-3 8-3v-3l-3-1c0 1.715-9.962 1.231-11.5 2-11.451 5.726-10.21 3.895-20-1-2.14-1.07-8.223-5.053-6.5-8.5 2.17-4.34 11.952 2.774 16.5.5 5.8-2.9 15.202-9.399 22-6 1.49.745 6.5.335 6.5 3 6.903 0 8-2.83 8-8l-2-2c-4.502 0-10.969-6.765-16.5-4-9.916 4.958-23.805 11-35.5 11l-4 2v5l4 7.5 5 5.5 2 2 3 2 5 1h6Z"/><path fill="#7ECF49" id="CA3" d="M281 110h2c14.219 0 31.625 1.938 43.5-4 8.219-4.109 3.674-21-1.5-21-6.09 0-15.365-.568-20.5 2L293 91c0 5.17-1.097 8-8 8h-9c0 2.818-7 3.961-7 8 2.04 0 9-1.087 9 2l3 1Z"/><path fill="#7ECD4A" id="FC" d="M221 97h2l2-2 1-1 1-8h-4l-2 1c0 3.865-3 5.762-3 9v1h3ZM239 96l-4 2c0-.654-6-6.474-6-12h6c0 3.85 4 7.014 4 10Z"/><path fill="#187C63" id="SSs4" d="M40 154h5c0-8.911 9.896-34.293 14-42.5L72 93l-5-6-10 16.5c-6.989 13.978-17 33.003-17 49.5v1Z"/><path fill="#1A7E61" id="SSp-bfd6b" d="M98 105c-3.27 0-1.73 4-5 4 0-5.17 11.426-12.926 15-16.5 1.881-1.881 2.431-5.5 5-5.5 0 6.107-14 12.64-14 17l-1 1Z"/><path fill="#187C63" id="SSs4" d="M417 154c-2.124 0-4.436 1-6 1 0-16.895-10.869-35.239-18-49.5-1.04-2.081-6.618-12.5-9-12.5l5-6h1c0 4.902 6.811 12.121 9 16.5 5.466 10.933 18 37.443 18 49.5v1Z"/><path fill="#1C8063" id="SSs5" d="M45 155c3.51 0 8.997 2 14 2 0-14.859 7.731-29.962 14-42.5 1.102-2.204 4.975-12.5 8-12.5v-1c-5 0-4.79-8-8-8h-1l-13 18.5c-4.104 8.207-14 33.589-14 42.5v1Z"/><path fill="#A8A9AA" id="V3" d="M235 100v1l-2.5-2-4 6c-3.079 0-2.205-6-5.5-6v-2c1.747 0 2-.253 2-2l1-1c6.557 0 6.793 6 9 6Z"/><path fill="#1C8063" id="SSs5" d="M397 158h1c0-1.7 5.137-1 6.5-1l6.5-2c0-16.895-10.869-35.239-18-49.5-1.04-2.081-6.618-12.5-9-12.5h-1c0 1.255-4.777 8-7 8v1c2.364 0 6.034 9.568 7 11.5 6.795 13.59 14 28.219 14 44.5Z"/><path fill="#A8AAAA" id="VL" d="m336 125 2 1c0-4.756.404-19 6-19 0-2.326-8.16-13-11-13 0 3.013-1 6.611-1 9l2 2 2.5-2c1.219.609.714 16-1.5 16l1 6ZM118 125h2c.675 0 2-5.294 2-6-3.852 0-1.994-8.489-4-12.5l2.5-3.5 2.5 2 1-2-1-8c-3.022 0-10 8.441-10 12 5.294 0 5 13.73 5 18Z"/><path fill="#65A83D" id="DG-sg" d="M188 107c-2.108 0-10-.789-10 2 6.513 0 13.945 3.223 19.5 6 5.113 2.556 21.164-10.172 19.5-13.5-1.837-3.674-10.571.5-14 .5-8.039 0-16.462-10.02-24.5-6-1.678.839-7.5-.11-7.5 3h9c6.136 0 12.327 3.413 17.5 6 1.076.538 9.447.607 8.5 2.5-3.404 6.807-13.948-.5-18-.5ZM269 107c2.04 0 9-1.087 9 2 0 1.715-9.962 1.231-11.5 2-11.451 5.726-10.21 3.895-20-1-2.14-1.07-8.223-5.053-6.5-8.5 2.17-4.34 11.952 2.774 16.5.5 5.8-2.9 15.202-9.399 22-6 1.49.745 6.5.335 6.5 3h-9c-5.656 0-11.702 3.601-16.5 6l-9.5 1.5c0 7.512 17.437.5 19 .5Z"/><path fill="#7DCD4B" id="HPF" d="M218 96v1l-1-1h1Z"/><path fill="#7ECE4A" id="DG-po" d="M180 99c6.136 0 12.327 3.413 17.5 6 1.076.538 9.447.607 8.5 2.5-3.404 6.807-13.948-.5-18-.5 0-4.273-8-5.834-8-8Z"/><path fill="#A8A9AA" id="V3" d="m223 99-1 2 1-2Z"/><path fill="#A9AAA8" id="chpl" d="m226 120 4 1 1-4 1-1 1-4 1-1v-1l1-2v-7l-2.5-2-4 6c-3.079 0-2.205-6-5.5-6l-1 2v9l1 1v2l1 1 2 6Z"/><path fill="#7ECE4A" id="DG-po" d="M276 99c-5.656 0-11.702 3.601-16.5 6l-9.5 1.5c0 7.512 17.437.5 19 .5 0-4.039 7-5.182 7-8Z"/><path fill="#197D63" id="SSs6a" d="M59 158c3.492 0 7.709 2 11 2 0-1.937.827-11 3-11 0-8.301 6.403-20.307 10-27.5 1.938-3.877 7-5.826 7-10.5l-9-9c-3.025 0-6.898 10.296-8 12.5-6.269 12.538-14 27.641-14 42.5v1Z"/><path fill="#A8A9AA" id="V3" d="m221 108 1 1v-7h-1v6Z"/><path fill="#197D63" id="SSs6a" d="m397 158-10 2c0-10.577-9.316-28.132-14-37.5-.854-1.708-5.142-10.5-7-10.5v-1l10-9c2.364 0 6.034 9.568 7 11.5 6.795 13.59 14 28.219 14 44.5Z"/><path fill="#A9AAA8" id="chpl" d="m123 105-2.5-2-2.5 3.5c2.006 4.011.148 12.5 4 12.5 0-4.121 1-9.275 1-14Z"/><path fill="#CBC8CB" id="fi" d="M121 131c0 3.99 6.673 4 10 4 0-4.014 13-19.603 13-24-5.152 0-11.154-1.827-15.5-4l-4.5-4-1 2c0 4.725-1 9.879-1 14 0 .706-1.325 6-2 6 0 2.124 1 4.436 1 6ZM336 131l-2.5 3-7.5 1c0-1.116-14-22.326-14-24l12.5-2 7.5-6 2 2c0 1.756-2.174 14 1 14l1 6v6Z"/><path fill="#A9AAA8" id="chpl" d="m334 105 2.5-2c1.219.609.714 16-1.5 16-3.174 0-1-12.244-1-14Z"/><path fill="#C9C9CA" id="scwm" d="M361 114c2.315 0 5.168 6.835 6 8.5 1.138 2.277 4.508 5.016 6 8 2.922 5.844 5.062 12.123 8 18 .666 1.331 2.737 9.5 4 9.5 0-6.871-8.748-26.996-12-33.5-1.816-3.631-8-8.372-8-12.5l-8-9c0 3.408 4 6.686 4 11ZM99 104l-1 1 1-1ZM73 149v4c2.155 0 3.233-6.965 4-8.5 1.956-3.912 13.998-29.5 18-29.5 0-3.947 3-6.628 3-10-3.27 0-1.73 4-5 4 0 1.238-.423 3-2 3 0 4.417-4.18 5.86-6 9.5-3.203 6.407-4.831 13.662-8 20l-4 7.5Z"/><path fill="#A8A9AA" id="V3" d="M235 108h1l-1-2v2Z"/><path fill="#98D5F9" id="CP" d="M86 201h1c3.241 0 17.149 1.201 19-2.5 2.644-5.288-4-12.878-4-17.5 0-1.406-.714-7 1-7 0-1.296.825-7 2-7l-2-5.5V146c0-5.091.307-14.903 4.5-17 3.443-1.722 3.168 3 5.5 3l4-1 1-1v-5c0-4.27.294-18-5-18-2.483 0-4.026 2-6 2l-12 11-7 9.5c-4.705 9.411-13 21.408-13 32.5 0 4.382-3.265 12.969-1 17.5 1.418 2.837 2 7.169 2 10.5l1 1v2l4 4 4 3 1 1ZM376 197l-6 4c-3.139 0-18.276.948-20-2.5-1.875-3.75 3-11.491 3-15.5 1.161 0 3.375-7 1-7l-2-9 2-16.5c0-1.278.665-5.5-1-5.5 0-4.998.054-9.392-2-13.5-.955-1.911-6-4.27-6-.5l-1 1-5-1-1-5c0-4.756.404-19 6-19 2.25 0 3.376 2 5 2 5.395 0 7.093 10 12 10 0 4.885 6.112 7.723 8 11.5 4.677 9.354 12 20.379 12 31.5 0 4.564 3.428 14.644 1 19.5-1.094 2.189-2 7.093-2 9.5l-1 1v1l-3 4Z"/><path fill="#FF8D9F" id="MH" d="M223 131h2l1-11-2-6-1-1v-2l-1-1v-1l-1-1-2 1c0 1.238-.423 3-2 3 0 1.048.473 3-1 3l-3 7 8 9h2Z"/><path fill="#A8A9AA" id="V3" d="m235 108-1 2 1-2Z"/><path fill="#FF8D9F" id="MH" d="m235 131-1 1-3-1-1-10 1-4 1-1 1-4 1-1v-1l1-2h1l5 8c0 2.72 2 3.553 2 6-3.137 0-3.77 9-8 9Z"/><path fill="#1A7E61" id="SSp-bfd6b" d="M91 111v1c1.577 0 2-1.762 2-3-1.747 0-2 .253-2 2Z"/><path fill="#7DCD4B" id="HPF" d="M174 112h1v-2h-2v1l1 1Z"/><path fill="#A8A9AA" id="V3" d="m222 110 1 1-1-1Z"/><path fill="#7DCD4B" id="HPF" d="M281 112h1l1-1v-1h-2v2Z"/><path fill="#1A8061" id="SSs6b" d="M91 112c0 4.417-4.18 5.86-6 9.5-3.203 6.407-4.831 13.662-8 20l-4 7.5c0-8.301 6.403-20.307 10-27.5 1.938-3.877 7-5.826 7-10.5h1v1Z"/><path fill="#FF909D" id="LD" d="M155 137c8.888 0 15.615 3 24 3 0-3.52 7-14.804 7-22l-1-1-5-2-1-1-3-1-1-1h-1c-1.048 0-3 .473-3-1h-10c0 2.144-4.262.381-5.5 1-1.157.579-5.491 3-6.5 3 0 5.165-6 9.251-6 10v2c0 4.042 4 5.757 4 9l2 1 3.5-2 2.5 2Z"/><path fill="#A8A9AA" id="V3" d="m234 111-1 1 1-1Z"/><path fill="#FF909D" id="LD" d="m302 137 2.5-2 2.5 2 3-2 1-1 3-7-1-2c0-1.998-6-4.804-6-10-1.009 0-5.343-2.421-6.5-3-1.238-.619-5.5 1.144-5.5-1h-9c0 1.579-2.855 1-4 1l-1 1c-3.219 0-5.108 3-8 3l-1 1h-1l-1 1c0 7.295 7 15.735 7 22 8.659 0 15.75-3 25-3Z"/><path fill="#1A8061" id="SSs6b" d="M385 160h2c0-10.577-9.316-28.132-14-37.5-.854-1.708-5.142-10.5-7-10.5h-1c0 4.128 6.184 8.869 8 12.5 3.252 6.504 12 26.629 12 33.5v2Z"/><path fill="#A8A9AA" id="V3" d="m223 113 1 1-1-1Z"/><path fill="#C9C7C9" id="ccb" d="M381 162h4v-4c-1.263 0-3.334-8.169-4-9.5-2.938-5.877-5.078-12.156-8-18-1.492-2.984-4.862-5.723-6-8-.832-1.665-3.685-8.5-6-8.5 0 .671 2.662 5 0 5 0 4.885 6.112 7.723 8 11.5 4.677 9.354 12 20.379 12 31.5ZM71 162h4c0-11.092 8.295-23.089 13-32.5l7-9.5v-5c-4.002 0-16.044 25.588-18 29.5-.767 1.535-1.845 8.5-4 8.5 0 1.145.58 4-1 4 0 1.048.473 3-1 3v2Z"/><path fill="#FE7F84" id="LGd-co" d="M139 126h3l1-1c0-.749 6-4.835 6-10-3.965 0-10 7.279-10 11Z"/><path fill="#C8CCC7" id="hbc" d="M212 119c0 2.393-3.598 3 1 3l3-7h-2l-1 2-1 2ZM245 119c0 2.715 1.58 3-2 3 0-2.447-2-3.28-2-6 0-1.93 1.161 0 2 0 0 1.238.423 3 2 3Z"/><path fill="#FE7F84" id="LGd-co" d="M315 126h2c0-4.184-5.503-11-10-11 0 5.196 6 8.002 6 10l2 1Z"/><path fill="#FF8D9F" id="MH" d="M210 119h2l1-2v-1h-1l-1 1-1 1v1Z"/><path fill="#A8A9AA" id="V3" d="m232 116-1 1 1-1Z"/><path fill="#FF8D9F" id="MH" d="m246 118-1 1c-1.577 0-2-1.762-2-3h1l2 2Z"/><path fill="#FE909D" id="LP" d="M183 145h4c0-6.109 10-18.232 10-22l-3-3h-1l-1-1h-2l-4-1c0 7.196-7 18.48-7 22 0 1.247 2.467 5 4 5Z"/><path fill="#FF8F9D" id="LH" d="M244 139h7l1-1 3-3 1-5c-4.219 0-7-6.898-7-10l-3-2-1 1c0 2.715 1.58 3-2 3-3.137 0-3.77 9-8 9 0 5.037 9 3.842 9 8Z"/><path fill="#FE909D" id="LP" d="M270 145h4c1.077 0 3-3.762 3-5 0-6.265-7-14.705-7-22h-1l-2 1h-3l-1 1-2 1h-1l-1 2c.403 0 7.988 14.476 9 16.5.492.984.851 5.5 2 5.5Z"/><path fill="#FF8F9D" id="LH" d="m201 135 4.5 4c2.364 1.182 5.696-1 7.5-1 0-.468 7.539-5 8-5v-2l-8-9c-4.598 0-1-.607-1-3h-4l-1 1 1 3.5-7 5.5v6Z"/><path fill="#CCC9C8" id="sm" d="M199 124c0 1.424.362 5 2 5l7-5.5-1-3.5-4 1-2 2-2 1Z"/><path fill="#A8A9AA" id="V3" d="M225 131c0 2.062 6 4.066 6 0l-1-10-4-1-1 11Z"/><path fill="#CCC9C8" id="sm" d="m257 124-1 6c-4.219 0-7-6.898-7-10l5 1 2 2 1 1Z"/><path fill="#FD8F9D" id="CL" d="m189 164 6 1c0-6.115-4.169-13.161-1-19.5l3-7 4-3.5v-6c-1.638 0-2-3.576-2-5v-1h-2c0 3.768-10 15.891-10 22l-1 7c0 2.618 3 10.884 3 12Z"/><path fill="#FF6F80" id="TH" d="m201 123-2 1v-1h2ZM257 123v1l-1-1h1Z"/><path fill="#FD8F9D" id="CL" d="m267 164-6 1c0-5.323 5.394-30-6-30l1-5 1-6v-1h2c.403 0 7.988 14.476 9 16.5.492.984.851 5.5 2 5.5v8c0 1.495-.84 10-2 10l-1 1Z"/><path fill="#FF6F80" id="TH" d="M142 127h1v-2l-1 1v1ZM314 127h1v-1l-2-1 1 2Z"/><path fill="#FF8E9F" id="LGv" d="M137 130h2c2.041 0 3-.959 3-3v-1h-3l-2 4ZM318 130h1c0-1.465.109-4-2-4h-2v1c0 2.041.959 3 3 3Z"/><path fill="#CBC9C7" id="or" d="m147 136-2 3c0-4.676-.486-8-6-8v-1c2.041 0 3-.959 3-3h1c0 4.042 4 5.757 4 9ZM320 133l-4.5-2-4.5 3 3-7h1c0 2.041.959 3 3 3l2 2v1ZM103 146l5.5 7c4.248 2.124 8.359 0 12.5 0 3.702 0 13-14.789 13-18h-1c0 2.103-4.468 6-6 6l-1 1c-.892 0-9 2.819-9 0-2.645 0-4-6.992-4-9v-1c-2.332 0-2.057-4.722-5.5-3-4.193 2.097-4.5 11.909-4.5 17ZM353 145c0 10.711-11.017 8-18 8-2.178 0-14-16.761-14-19l2 1c0 2.073 6.148 7 8 7 0 1.583 9 2.034 9-1 2.16 0 3-6.07 3-8l1-1 1-1c0-3.77 5.045-1.411 6 .5 2.054 4.108 2 8.502 2 13.5Z"/><path fill="#97D6F9" id="STR" d="M117 131h1v-1l-1 1Z"/><path fill="#FF6F80" id="TH" d="M137 131h2v-1h-2v1ZM319 130l1 2-2-2h1Z"/><path fill="#97D6F9" id="STR" d="M113 132v1c1.634 0 4 1.248 4-2l-4 1Z"/><path fill="#CAC7CB" id="fiber tracts" d="M127 141c0-7.221-10-6.056-10 1-2.645 0-4-6.992-4-9 1.634 0 4 1.248 4-2h4c0 3.99 6.673 4 10 4h2c0 2.103-4.468 6-6 6Z"/><path fill="#CBC9C7" id="or" d="m139 131-2 1v-1h2Z"/><path fill="#FD8F9F" id="RT" d="m156 201-1 1-2-1-7.5-6c-8.274-4.137-22.481-23.462-26.5-31.5-1.873-3.745 2-7.738 2-10.5 3.702 0 13-14.789 13-18l2-2 1-1 2-1c5.514 0 6 3.324 6 8l-2 2v1c-2.664 0-8 5.336-8 8-2.109 0-2 2.535-2 4-2.868 0-2 12-2 14.5 0 5.504 13.628 26.5 20 26.5l3 2 2 4Z"/><path fill="#C7CAC9" id="fr" d="m223 131-2 2v-2h2Z"/><path fill="#FE8F9E" id="PVT" d="m223 145 4.5 2 5.5-1c0-3.962 6-5.607 6-8 0-1.465-5-3.316-5-6l-3-1c0 4.066-6 2.062-6 0h-2l-2 2c0 3.262-4 3.696-4 5 1.59 0 6 5.662 6 7Z"/><path fill="#C7CAC9" id="fr" d="m239 138 5 1c0-4.158-9-2.963-9-8l-1 1c0 2.684 5 4.535 5 6Z"/><path fill="#FD8F9F" id="RT" d="m300 201 2 1c3.566 0 9.875-7.375 12.5-10 7.779-7.779 17.164-16.829 22.5-27.5 2.576-5.151-2-7.412-2-11.5-2.178 0-14-16.761-14-19l-1-1-4.5-2-4.5 3c0 2.833 2 4.84 2 7v1c11.014 0 14.685 23.13 11 30.5-.954 1.908-1.531 8.5-5 8.5 0 1.238-.423 3-2 3l-1 1-1 1c0 2.664-5.336 8-8 8l-1 1-2 1-1 1-3 4Z"/><path fill="#CAC7CB" id="fiber tracts" d="M340 141c0-5.059-8.688-7.124-11-2.5-1.189 2.377 2 2.116 2 3.5-1.852 0-8-4.927-8-7h3l7.5-1 2.5-3h3c0 2.978 2.995 2 4 2 0 1.93-.84 8-3 8Z"/><path fill="#97D6F9" id="STR" d="m344 132-1 1c-1.005 0-4 .978-4-2l5 1ZM345 131l-1 1 1-1Z"/><path fill="#FF6F80" id="TH" d="m137 132-1 1 1-1Z"/><path fill="#C7CAC9" id="fr" d="M213 138c0 2.091 2.863 0 4 0 0-1.304 4-1.738 4-5-.461 0-8 4.532-8 5Z"/><path fill="#CBC9C7" id="or" d="M310 135c0 1.738.686 6 3 6 0-2.16-2-4.167-2-7l-1 1Z"/><path fill="#FD8084" id="VPL" d="M142 144h11c0-1.835 2-4.235 2-7l-2.5-2-3.5 2c0 1.797-2.203 4-4 4l-2 1-1 2Z"/><path fill="#FD909D" id="MD" d="m221 175-8 5c-6.248 0-17.845-15-18-15 0-6.115-4.169-13.161-1-19.5l3-7 4-3.5 4.5 4c2.364 1.182 5.696-1 7.5-1 0 2.091 2.863 0 4 0 1.59 0 6 5.662 6 7 0 5.184 4.653 15.193 2 20.5l-3 8.5-1 1ZM235 175c3.23 0 5.26 5 8 5 5.157 0 18-9.226 18-15 0-5.323 5.394-30-6-30l-3 3-1 1h-7l-5-1c0 2.393-6 4.038-6 8 0 5.092-3.65 16.2-1 21.5l3 7.5Z"/><path fill="#FD8084" id="VPL" d="M303 144c3.962 0 8.688 1 12 1l-2-3c-1.442 0-6-3.274-6-5l-2.5-2-2.5 2c0 2.409 1 5.181 1 7Z"/><path fill="#FF6F80" id="TH" d="M313 141v1c-1.442 0-6-3.274-6-5l3-2c0 1.738.686 6 3 6Z"/><path fill="#C8CBC7" id="st" d="M117 142c0 2.819 8.108 0 9 0l1-1c0-7.221-10-6.056-10 1Z"/><path fill="#FF6F80" id="TH" d="M145 139v2c1.797 0 4-2.203 4-4l-2-1-2 3Z"/><path fill="#C8CBC7" id="st" d="M340 141c0 3.034-9 2.583-9 1 0-1.384-3.189-1.123-2-3.5 2.312-4.624 11-2.559 11 2.5Z"/><path fill="#FF8E9C" id="PO" d="m191 172-12 6c0-5.505-19.953-34-26-34 0-1.835 2-4.235 2-7 8.888 0 15.615 3 24 3 0 1.247 2.467 5 4 5 0 1.489 1.835 7 3 7 0 2.618 3 10.884 3 12l2 8ZM265 173c4.843 0 8.214 5 12 5 0-10.738 13.466-17.432 18-26.5 1.156-2.312 5.024-7.5 8-7.5 0-1.819-1-4.591-1-7-9.25 0-16.341 3-25 3 0 1.238-1.923 5-3 5l-4 8c0 1.495-.84 10-2 10l-1 1-2 9Z"/><path fill="#C7CAC9" id="fr" d="m252 138-1 1 1-1Z"/><path fill="#CBC9C7" id="or" d="M143 141h2v-2l-2 2Z"/><path fill="#CAC7CB" id="fiber tracts" d="m127 141-1 1 1-1Z"/><path fill="#FF6F80" id="TH" d="m145 141-2 1v-1h2Z"/><path fill="#C7CACA" id="em" d="m141 145-6 5c0-2.664 5.336-8 8-8l-1 2-1 1ZM323 157c1.951 0 .477 2.454 1 3.5 4.022 8.044-5 13.579-5 20.5 3.469 0 4.046-6.592 5-8.5 3.685-7.37.014-30.5-11-30.5l2 3c3.895 0 8 7.796 8 12Z"/><path fill="#FD8084" id="VPL" d="m142 144-1 1 1-1Z"/><path fill="#FF7E83" id="VPM" d="M179 178c0 9.94-2.204 15-12 15-7.96 0-21.633-21.133-28.5-28-1.454-1.454-4.451-9-5.5-9v-2l2-4 6-5 1-1h11c6.047 0 26 28.495 26 34ZM277 178c0 7.868 2.881 16 12 16 0-1.183 3.57-1.535 4.5-2l9.5-8.5c3.909-7.818 13.845-14.69 16-19l4-7.5c0-4.204-4.105-12-8-12-3.312 0-8.038-1-12-1-2.976 0-6.844 5.188-8 7.5-4.534 9.068-18 15.762-18 26.5Z"/><path fill="#FD8F9C" id="Eth" d="m187 145-1 7c-1.165 0-3-5.511-3-7h4Z"/><path fill="#FE909F" id="IMD" d="M222 174c2.421 0 6.678-2.411 9.5-1l3.5 2-3-7.5c-2.65-5.3 1-16.408 1-21.5l-5.5 1-4.5-2c0 5.184 4.653 15.193 2 20.5l-3 8.5Z"/><path fill="#FD8F9C" id="Eth" d="m274 145-4 8v-8h4Z"/><path fill="#CCC" d="M325 209c-3.778 0-5.891 10-10 10 0-2.827 2.831-4.163 4-6.5v-6c0-9.692-14.157-.5-18-.5l-1 1h-3l5-5c3.566 0 9.875-7.375 12.5-10 7.779-7.779 17.164-16.829 22.5-27.5 2.576-5.151-2-7.412-2-11.5 6.983 0 18 2.711 18-8 1.665 0 1 4.222 1 5.5l-2 16.5c-4.641 0-19 27.49-19 32l-7 9-1 1ZM131 209l6 6.5c5.141 5.141 10.789 12.644 16.5 15.5 1.367.684 7.5 1.997 7.5-1.5l-2-4.5c-10.04 0-15.443-2.387-20-11.5-1.446-2.891-4.133-9.183.5-11.5 4.746-2.373 11.39 4 15.5 4l4 1-4-4-2-2-7.5-6c-8.274-4.137-22.481-23.462-26.5-31.5-1.873-3.745 2-7.738 2-10.5-4.141 0-8.252 2.124-12.5 0l-5.5-7v15.5l2 5.5c3.675 0 18 27.51 18 31l2 2 2 4 1 1 2 2 1 1v1Z"/><path fill="#1A8061" id="SSs6b" d="M70 160h1c0-1.048-.473-3 1-3 0-1.145-.58-4 1-4v-4c-2.173 0-3 9.063-3 11Z"/><path fill="#C7CACA" id="em" d="M135 150c-2.109 0-2 2.535-2 4l2-4Z"/><path fill="#12AD83" id="VISC1" d="m34 192-5 1c-2.099 0-1.266-7.032-2-8.5-4.714-9.428-1-23.293-1-33.5l6 1c0 5.858-3.637 25.226-1 30.5l3 8.5v1ZM423 191c0 .672 4.329 2 5 2 0-3.879 1.335-9.171 3-12.5V161c0-1.657.763-10-1-10l-5 1 1 26.5c-1.69 3.38-3 8.529-3 12.5Z"/><path fill="#12AC83" id="VISC2/3" d="M45 190c-2.998 0-7.358 1-11 1l-3-8.5c-2.637-5.274 1-24.642 1-30.5l8 1v1c0 5.065-.412 35 5 35v1ZM422 191h1c0-3.971 1.31-9.12 3-12.5l-1-26.5-8 1v1c0 6.282-.823 35-6 35v1c2.649 0 6.826 1 11 1Z"/><path fill="#C9C9CA" id="scwm" d="M73 153c-1.58 0-1 2.855-1 4 1.58 0 1-2.855 1-4Z"/><path fill="#11AC82" id="VISC4" d="M45 155c0 6.84-5.523 19.453-2 26.5 1.263 2.527 2 4.392 2 7.5-5.412 0-5-29.935-5-35h5v1Z"/><path fill="#C7CACA" id="em" d="M133 156c0 9.915-.467 15.567 4 24.5l14 14.5c-6.372 0-20-20.996-20-26.5 0-2.5-.868-14.5 2-14.5v2Z"/><path fill="#11AC82" id="VISC4" d="M411 155c0 6.806 5.685 20.13 2 27.5l-2 6.5c5.177 0 6-28.718 6-35-2.124 0-4.436 1-6 1Z"/><path fill="#12AD82" id="VISC5" d="M45 190h15l-2-6.5c-3.07-6.139 1-19.46 1-25.5v-1c-5.003 0-10.49-2-14-2 0 6.84-5.523 19.453-2 26.5 1.263 2.527 2 4.392 2 7.5v1ZM397 190h14v-1l2-6.5c3.685-7.37-2-20.694-2-27.5l-6.5 2c-1.363 0-6.5-.7-6.5 1 0 5.576 3.795 16.91 1 22.5-1.359 2.719-2 6.26-2 9.5Z"/><path fill="#FD8084" id="VPL" d="m154 197 7 2c4.629 0 6-2.977 6-6-7.96 0-21.633-21.133-28.5-28-1.454-1.454-4.451-9-5.5-9 0 9.915-.467 15.567 4 24.5l14 14.5 3 2Z"/><path fill="#C9C9CA" id="scwm" d="M72 157c-1.473 0-1 1.952-1 3 1.473 0 1-1.952 1-3Z"/><path fill="#FD8084" id="VPL" d="m303 197-7 2c-2.341 0-7-2.294-7-5 0-1.183 3.57-1.535 4.5-2l9.5-8.5c3.909-7.818 13.845-14.69 16-19l4-7.5c1.951 0 .477 2.454 1 3.5 4.022 8.044-5 13.579-5 20.5-1.577 0-2 1.762-2 3l-1 1-1 1-8 8-1 1-2 1-1 1Z"/><path fill="#11AC83" id="VISC6a" d="M72 188c0 .711-10.88 2-12 2l-2-6.5c-3.07-6.139 1-19.46 1-25.5 3.492 0 7.709 2 11 2 0 3.378-2.904 10.693-1 14.5 1.862 3.724 3 9.1 3 13.5ZM396 190h1c0-3.24.641-6.781 2-9.5 2.795-5.59-1-16.924-1-22.5h-1l-10 2v15.5c-1.594 3.188-3 8.833-3 12.5v1c3.962 0 8.688 1 12 1Z"/><path fill="#11AD82" id="VISC6b" d="M73 188h1c0-4.006-2.144-13.787-4-17.5-1.284-2.568 1-6.486 1-8.5v-2h-1c0 3.378-2.904 10.693-1 14.5 1.862 3.724 3 9.1 3 13.5h1ZM383 188h1c0-3.667 1.406-9.312 3-12.5V160h-2v2c1.7 0 1 5.137 1 6.5 0 7.005-3 12.775-3 19.5Z"/><path fill="#C8CBCC" id="ec" d="M76 198h2l-1-5v-2l-1-1c0-3.331-.582-7.663-2-10.5-2.265-4.531 1-13.118 1-17.5h-4c0 2.014-2.284 5.932-1 8.5 1.856 3.713 4 13.494 4 17.5l2 10ZM380 198h1c0-1.899-.488-8 2-8v-2c0-6.725 3-12.495 3-19.5 0-1.363.7-6.5-1-6.5h-4c0 4.564 3.428 14.644 1 19.5-1.094 2.189-2 7.093-2 9.5l-1 1v1c0 1.145.579 4-1 4v1h2Z"/><path fill="#FE8D9F" id="PCN" d="m268 163-1 1 1-1ZM204 186h7c0-4.192 2-4.268 2-6-6.248 0-17.845-15-18-15l-6-1 2 8 3.5 4c2.717 2.717 9.5 6.41 9.5 10ZM253 185l-2.5 2-4.5-1c0-2.915-3-4.651-3-6 5.157 0 18-9.226 18-15l6-1-2 9-12 12Z"/><path fill="#8598CC" id="GPe" d="M115 201h5c1.238 0 3-.423 3-2v-1c0-3.49-14.325-31-18-31-1.175 0-2 5.704-2 7 0 5.199 5.82 27 12 27ZM341 201h1l1-1 4-4.5c.97-1.94 3.729-12.5 6-12.5l1-7-2-9c-4.641 0-19 27.49-19 32l3 2h5Z"/><path fill="#FD7E84" id="VAL" d="M168 203h1l3.5-4c3.183-1.591 5.73-4.365 9-6 7.997-3.999 12.774-5 21.5-5l1-2c0-3.59-6.783-7.283-9.5-10l-3.5-4-12 6c0 9.94-2.204 15-12 15 0 3.023-1.371 6-6 6v1c0 1.732 5.353 3 7 3Z"/><path fill="#FD8E9E" id="CM" d="M215 187c6.559 0 15.377-4.561 22.5-1 1.046.523 3.5-.951 3.5 1l5-1c0-2.915-3-4.651-3-6-2.74 0-4.77-5-8-5l-3.5-2c-2.822-1.411-7.079 1-9.5 1l-1 1-8 5c0 1.732-2 1.808-2 6l4 1Z"/><path fill="#FD7E84" id="VAL" d="M287 204h1l1-1 7-3v-1c-2.341 0-7-2.294-7-5-9.119 0-12-8.132-12-16-3.786 0-7.157-5-12-5l-12 12 1 3c6.716 0 12.093-.204 18.5 3l7 6c2.49 1.245 7.5 3.438 7.5 7Z"/><path fill="#97D6F9" id="STR" d="m96 213 3 2c0-3.809 5.86-6 9-6l1-1 4-2c1.423 0 3.544-1.978 5.5-1l4.5 4v-1l-1-1-1-1-6-5c-6.18 0-12-21.801-12-27-1.714 0-1 5.594-1 7 0 4.622 6.644 12.212 4 17.5-1.851 3.701-15.759 2.5-19 2.5 0 4.359 9 6.106 9 12Z"/><path fill="#FE909F" id="IMD" d="m222 174-1 1 1-1Z"/><path fill="#97D6F9" id="STR" d="M354 176c2.375 0 .161 7-1 7l1-7Z"/><path fill="#C7CACA" id="em" d="M319 181c-1.577 0-2 1.762-2 3 1.577 0 2-1.762 2-3Z"/><path fill="#97D6F9" id="STR" d="M357 215h2l1-2c0-5.296 10-7.249 10-12-3.139 0-18.276.948-20-2.5-1.875-3.75 3-11.491 3-15.5-2.271 0-5.03 10.56-6 12.5l-4 4.5-1 1h-1l-3 4 5 1 5 2c2.559 0 9 4.073 9 7Z"/><path fill="#C7CACA" id="em" d="m317 184-1 1 1-1Z"/><path fill="#FF8E9E" id="RH" d="M232 196c-2.707 0-5.903 1-8 1 0-5.755-3.34-9-9-9v-1c6.559 0 15.377-4.561 22.5-1 1.046.523 3.5-.951 3.5 1v1c-4.52 0-9 3.153-9 8Z"/><path fill="#FF6F80" id="TH" d="m254 188-1 1c-3.531 0-7.893-1-12-1v-1l5-1 4.5 1 2.5-2 1 3Z"/><path fill="#C7CACA" id="em" d="m316 185-1 1 1-1Z"/><path fill="#FF6F80" id="TH" d="M215 188c-3.642 0-8.002 1-11 1l-1-1 1-2h7l4 1v1Z"/><path fill="#C7CACA" id="em" d="m315 186-8 8c2.664 0 8-5.336 8-8Z"/><path fill="#FF7E84" id="VM" d="M203 217h1l-4-4.5 1-5.5c-1.168 0-.567-4.366 0-5.5 1.582-3.163 3-8.889 3-12.5l-1-1c-8.726 0-13.503 1.001-21.5 5-3.27 1.635-5.817 4.409-9 6l-3.5 4 1 2 3 1 1 1h2l2 2h2l1 1h1l1 1c7.107 0 11.91 6 20 6ZM252 217h2c9.975 0 17.864-9 26-9l1-1 3-1 1-1 2-1c0-3.562-5.01-5.755-7.5-7l-7-6c-6.407-3.204-11.784-3-18.5-3l-1 1c0 5.158.863 10.225 3 14.5.504 1.008.22 4.5-1 4.5l1 4.5-4 4.5Z"/><path fill="#209766" id="AIp6a" d="M77 205h-5.5l-3.5 4c0-7.172-8-14.308-8-19 1.12 0 12-1.289 12-2h1c0 6.197 4 11.363 4 17Z"/><path fill="#219666" id="AIp6b" d="m77 205 1 1-2-8-2-10h-1c0 6.197 4 11.363 4 17Z"/><path fill="#FD8E9F" id="SMT" d="M201 207c2.409 0 1.055-1.277 2.5-2 7.083-3.542 5.5 6.493 5.5 9 5.243 0 9.814-11 13-11l1-1 1-5c0-5.755-3.34-9-9-9-3.642 0-8.002 1-11 1 0 3.611-1.418 9.337-3 12.5-.567 1.134-1.168 5.5 0 5.5ZM255 208c0-4.206-8-6.09-8 5-5.572 0-10.445-10-13-10l-2-7c0-4.847 4.48-8 9-8 4.107 0 8.469 1 12 1 0 5.158.863 10.225 3 14.5.504 1.008.22 4.5-1 4.5Z"/><path fill="#219666" id="AIp6b" d="m384 189-1 1v-2h1v1Z"/><path fill="#209766" id="AIp6a" d="M380 205c3.863 0 6.505 3 8 3 1.149 0 1.473-5.447 2-6.5l6-11.5c-3.312 0-8.038-1-12-1l-1 1c0 1.775-.069 8-2 8l-1 7Z"/><path fill="#209865" id="AIp2/3" d="m59 211-14 4c0-4.319-6.088-9.677-8-13.5-.758-1.517-1.054-9.5-3-9.5v-1c3.642 0 8.002-1 11-1l8 16.5 6 4.5Z"/><path fill="#219864" id="AIp5" d="M66 210c-1.819 0-4.59 1-7 1l-6-4.5-8-16.5h15c0 4.692 8 11.828 8 19l-2 1Z"/><path fill="#97D6F9" id="STR" d="m76 190 1 1-1-1Z"/><path fill="#219666" id="AIp6b" d="M383 190c-2.488 0-2 6.101-2 8 1.931 0 2-6.225 2-8Z"/><path fill="#219864" id="AIp5" d="M391 210c0 1.684 4.679 1 6 1l8-6.5 6-14.5h-15l-6 11.5c-.527 1.053-.851 6.5-2 6.5l1 1 2 1Z"/><path fill="#209865" id="AIp2/3" d="m397 211 14 4c0-4.244 11-15.577 11-24-4.174 0-8.351-1-11-1l-6 14.5-8 6.5Z"/><path fill="#97D6F9" id="STR" d="m380 191-1 1 1-1Z"/><path fill="#219765" id="AIp1" d="m411 215 4 2c2.742 0 13-20.488 13-24-.671 0-5-1.328-5-2h-1c0 8.423-11 19.756-11 24ZM45 215l-4 2c-2.417 0-12-20.14-12-24l5-1c1.946 0 2.242 7.983 3 9.5 1.912 3.823 8 9.181 8 13.5Z"/><path fill="#97D6F9" id="STR" d="M78 198h1l2-1-4-4 1 5ZM376 197h2c1.579 0 1-2.855 1-4l-3 4Z"/><path fill="#C7CACA" id="em" d="m307 194-1 1 1-1Z"/><path fill="#FD909F" id="RE" d="M234 221h2l1-2c0-5.951-3-10.518-3-16l-2-7c-2.707 0-5.903 1-8 1l-1 5-1 1-3 16 2 2h3c0-2.402 2.143-17 4.5-17l1.5 4.5c1.759 3.518 2 8.289 2 12.5h2Z"/><path fill="#FF6F80" id="TH" d="m304 196-1 1 1-1Z"/><path fill="#90EB8D" id="LA" d="M86 242h1c0-8.069-2.566-27 8-27l1-2c0-5.894-9-7.641-9-12h-1l-1-1-4-3-2 1c0 5.077 1.882 19.264 4 23.5v11l3 8.5v1Z"/><path fill="#FF6F80" id="TH" d="m161 200-5 1-2-4 7 2v1ZM296 200l4 1 3-4-7 2v1Z"/><path fill="#90EB8D" id="LA" d="M369 243h1v-1l1-1c0-1.357.647-6 2-6l2-25.5c1.554-3.108 3-7.871 3-11.5v-1h-2l-6 4c0 4.751-10 6.704-10 12l1 2c11.457 0 8 19.659 8 28Z"/><path fill="#C8C9CB" id="amc" d="m83 237 3 4-3-8.5v-11c-2.118-4.236-4-18.423-4-23.5h-3l2 8c0 5.629 3 14.603 3 23 1.06 0 2 6.743 2 8Z"/><path fill="#8599CC" id="PAL" d="m123 199 2 1-2-2v1Z"/><path fill="#C8C9CB" id="amc" d="m375 231-2 4 2-25.5c1.554-3.108 3-7.871 3-11.5h2l-1 7-1 1c0 8.108-3 16.114-3 25Z"/><path fill="#219666" id="AIp6b" d="M379 205h1l1-7h-1l-1 7Z"/><path fill="#A2B1D7" id="SI" d="m124 210 1 1 5.5 5c2.161 1.081 3.315-1.87 2.5-3.5l-2-3.5v-1l-1-1-2-2-1-1-2-4-2-1c0 1.577-1.762 2-3 2l1 5 1 1 1 1v1l1 1ZM328 215l-1 1c-6.901 0-2-2.963-2-7l1-1 7-9 3 2c0 2.275-1 3.514-1 6l-1 1-1 1-1 1v1l-1 1-2 2-1 1Z"/><path fill="#97D6F9" id="STR" d="m85 200 1 1-1-1Z"/><path fill="#F0483B" id="ZI" d="M205 219c0 8.376-18.851 2-22 2-4.254 0-7.157-4-11-4l-5-4-2-1-1-1-1-1-4-3-4-4v-1l1-1 5-1c0 1.732 5.353 3 7 3l2 2 3 1 1 1h2l2 2h2l1 1h1l1 1c7.107 0 11.91 6 20 6l2 2ZM251 219c0 7.425 16.988 3 21 3l13-5c0-1.712 2.571-3 4-3l1-1 1-1 1-1 2-1 1-1 2-2 5-5-2-1-4-1-7 3-1 1h-1l-2 1-1 1-3 1-1 1c-8.136 0-16.025 9-26 9 0 1.577-1.762 2-3 2Z"/><path fill="#8599CC" id="PAL" d="m343 200-1 1 1-1ZM120 201l1 5-6-5h5ZM155 202v1l-2-2 2 1ZM338 205l-3 2c0-2.486 1-3.725 1-6h5l-3 4Z"/><path fill="#8499CC" id="GPi" d="M163 215c0 4.327 4.487 10-4 10-10.04 0-15.443-2.387-20-11.5-1.446-2.891-4.133-9.183.5-11.5 4.746-2.373 11.39 4 15.5 4l6 5 2 4Z"/><path fill="#FD909C" id="PR" d="m223 202-1 1 1-1Z"/><path fill="#8499CC" id="GPi" d="M313 221c-2.469 0-3.074 2.787-5.5 4H297c-6.047 0-5-3.765-5-8l1-1c0-1.238 1.923-5 3-5l4-4 1-1c3.843 0 18-9.192 18 .5v6c-1.169 2.337-4 3.673-4 6.5-1.747 0-2 .253-2 2Z"/><path fill="#FF6F80" id="TH" d="m169 203 1 2-2-2h1Z"/><path fill="#FD909C" id="PR" d="m219 219-1 1c-2.654 0-6.986-1-10-1l-1-3 1-1 1-1c5.243 0 9.814-11 13-11l-3 16ZM249 219c-3.613 0-7.715 1-11 1l-1-1c0-5.951-3-10.518-3-16 2.555 0 7.428 10 13 10v1l1 1 1 1v3Z"/><path fill="#FF6F80" id="TH" d="m289 203-1 1 1-1Z"/><path fill="#8599CC" id="PAL" d="m127 204 1 1-1-1Z"/><path fill="#FC8F9F" id="Xi" d="M224 221c1.912 0 3.521 2 5.5 2l2.5-2c0-4.211-.241-8.982-2-12.5l-1.5-4.5c-2.357 0-4.5 14.598-4.5 17Z"/><path fill="#A0EE9C" id="EPd" d="M81 229c0 8.505-4.62 1-8 1v-1c1.57 0 .48-3.541 0-4.5-2.47-4.939-5-9.539-5-15.5l3.5-4H77l1 1c0 5.629 3 14.603 3 23Z"/><path fill="#7FC0E0" id="CEAm" d="M123 247h2c2.567 0 3.913-2 5-2l-1-17c0-1.235.643-5-1-5 0 2.222-9.378-11-3-11v-1l-1-1-1-1-4.5-4c-1.956-.978-4.077 1-5.5 1l4 3.5 2 6c2.433 4.866-3 9.768-3 13.5 0 1.896-2.077 4-4 4l1 3v1l2 2 2 3c0 1.481 2 .785 2 3l4 2Z"/><path fill="#C7C9CC" id="mtt" d="m207 216-3 1-4-4.5 1-5.5c2.409 0 1.055-1.277 2.5-2 7.083-3.542 5.5 6.493 5.5 9l-1 1-1 1ZM249 216l3 1 4-4.5-1-4.5c0-4.206-8-6.09-8 5v1l1 1 1 1Z"/><path fill="#FF6F80" id="TH" d="m285 205-1 1 1-1Z"/><path fill="#7FC0E0" id="CEAm" d="M332 247h1l1-1h1l2-1 1-1 2-2 1-3 2-2 1-2 1-1v-1c-2.169 0-5-2.899-5-5-2.016 0-3.098-12.305-2-14.5.793-1.586 5-6.811 5-7.5l-5-1-3 2-1 1-1 1-1 1v2c3.46 0-3 17.546-3 9-2.064 0-.426 3.353-1 4.5-2.68 5.361-1 15.205-1 21.5h5Z"/><path fill="#219666" id="AIp6b" d="m379 205-1 1 1-1Z"/><path fill="#A0EE9C" id="EPd" d="M375 231c0 2.698 4.255 2 6 2 0-1.238.423-3 2-3v-1c0-7.168 6-12.747 6-20l-1-1c-1.495 0-4.137-3-8-3h-1l-1 1c0 8.108-3 16.114-3 25Z"/><path fill="#80BEE1" id="CEAl" d="M108 209c0 4.968 1.674 20 8 20 0-3.732 5.433-8.634 3-13.5l-2-6-4-3.5-4 2-1 1Z"/><path fill="#8599CC" id="PAL" d="M163 210c-3.212 0-2-1.787-2 1l-6-5 4 1 4 3Z"/><path fill="#FF6F80" id="TH" d="m173 206 1 1-1-1Z"/><path fill="#8599CC" id="PAL" d="m301 206-1 1 1-1Z"/><path fill="#80BEE1" id="CEAl" d="M348 208c0 5.856-.454 20-8 20-2.016 0-3.098-12.305-2-14.5.793-1.586 5-6.811 5-7.5l5 2Z"/><path fill="#8599CC" id="PAL" d="m122 207 1 1-1-1ZM130 207l1 1-1-1Z"/><path fill="#FF6F80" id="TH" d="m176 207 2 2-2-2ZM281 207l-1 1 1-1Z"/><path fill="#8599CC" id="PAL" d="m295 209 1 2 4-4h-3l-2 2ZM335 207l-1 1 1-1Z"/><path fill="#80BFE0" id="CEAc" d="m109 208-1 1 1-1Z"/><path fill="#8599CC" id="PAL" d="m326 208-1 1 1-1ZM334 208l-1 1 1-1Z"/><path fill="#80BFE0" id="CEAc" d="m346 232-1 1c-2.169 0-5-2.899-5-5 7.546 0 8-14.144 8-20 2.559 0 9 4.073 9 7v1l-1 1-1 1c-1.577 0-2 1.762-2 3-1.577 0-2 1.762-2 3-1.577 0-2 1.762-2 3-1.712 0-3 2.571-3 4v1Z"/><path fill="#C9C8CA" id="ee" d="m72 227 1 2c1.57 0 .48-3.541 0-4.5-2.47-4.939-5-9.539-5-15.5l-2 1 2 9 1 1v2l1 1v1l1 1v1l1 1Z"/><path fill="#80BFE0" id="CEAc" d="M111 233h1c1.923 0 4-2.104 4-4-6.326 0-8-15.032-8-20-3.14 0-9 2.191-9 6 1.28 0 11 14.969 11 16l1 2Z"/><path fill="#8599CC" id="PAL" d="m123 209 1 1-1-1ZM157 237l4 2c0-4.464 4.914-2.707 7.5-4 4.694-2.347 3.5-6.441 3.5-10-5.557 0-4.249-10-9-10 0 4.327 4.487 10-4 10l2 4.5c0 3.497-6.133 2.184-7.5 1.5-5.711-2.856-11.359-10.359-16.5-15.5l-6-6.5 2 3.5c.815 1.63-.339 4.581-2.5 3.5l-5.5-5v1l4 4 6 6c0-5.317 12.377 6.877 14.5 9l3.5 3c0-2.153 4 1.962 4 3Z"/><path fill="#CCCACB" id="nst" d="M170 218c0 2.499 2 3.508 2 7-5.557 0-4.249-10-9-10l-2-4c0-2.787-1.212-1 2-1l1 1 1 1 2 2v1l3 3Z"/><path fill="#FF6F80" id="TH" d="m180 209 1 1-1-1Z"/><path fill="#8599CC" id="PAL" d="m295 209-1 1 1-1Z"/><path fill="#CCCACB" id="nst" d="M287 218c0 1.402-2 1.901-2 7 4.197 0 2.984-8 7-8l1-1c0-1.238 1.923-5 3-5l-1-2-1 1-2 1-1 1-1 1v1l-1 1c0 1.747-.253 2-2 2v1Z"/><path fill="#8599CC" id="PAL" d="M296 238h2l1-1h1l1-1c0-1.186 1-1.186 1 0l1-1c-1.186 0-1.186-1 0-1l4-3.5c2.09-2.09 14-13.378 14-8.5l6-6c-6.901 0-2-2.963-2-7-3.778 0-5.891 10-10 10 0 1.747-.253 2-2 2 0 3.684-14.568 14.364-17 9.5l1-5.5c-6.047 0-5-3.765-5-8-4.016 0-2.803 8-7 8-3.316 0 .593 9.047 2.5 10 1.859.93 8.5-.519 8.5 3ZM333 209l-1 1 1-1Z"/><path fill="#C9C8CA" id="ee" d="M383 229h1l1-2 1-2v-1l1-1v-2l1-1c0-1.078 2.482-10 3-10l-2-1c0 7.253-6 12.832-6 20Z"/><path fill="#6ACAB9" id="PIR" d="m94 276-11 19c-5.101 0-11.796-14.093-14-18.5-4.194-8.389-9.862-15.724-14-24l-6-18-8-17.5 4-2 14-4c2.41 0 5.181-1 7-1l2 9 1 1v2l1 1v2l1 1v1l2 2v1l5 8c0 8.493 16 26.309 16 33v5Z"/><path fill="#97D6F9" id="STR" d="m124 210 1 1-1-1Z"/><path fill="#E64438" id="HY" d="m163 210 1 1-1-1Z"/><path fill="#FF6F80" id="TH" d="m182 210 1 1-1-1Z"/><path fill="#6ACAB9" id="PIR" d="M363 276c0 4.528 5.995 10.49 8 14.5l3 4.5c2.947 0 11.764-15.027 13-17.5 4.174-8.349 9.87-15.739 14-24 3.706-7.413 4.306-16.612 8-24 1.814-3.629 6-8.311 6-12.5l-4-2-14-4c-1.321 0-6 .684-6-1-.518 0-3 8.922-3 10l-1 1v3l-1 1-1 2-1 2-1 1c0 1.238-.423 3-2 3l-2 5-17 34 1 4Z"/><path fill="#C7CAC8" id="stc" d="M128 220v3c0 2.222-9.378-11-3-11v1l1 1v1l1 1v3l1 1Z"/><path fill="#E64438" id="HY" d="m292 211-1 1 1-1Z"/><path fill="#97D6F9" id="STR" d="M331 212h1v-1l-1 1ZM127 216h2l-4-4v1l1 1v1l1 1Z"/><path fill="#8599CC" id="PAL" d="M167 213v1l-2-2 2 1Z"/><path fill="#E64438" id="HY" d="m291 212-1 1 1-1Z"/><path fill="#97D6F9" id="STR" d="M329 216h1v-1l1-1v-2l-2 2-1 1v1h1Z"/><path fill="#7FC0E0" id="CEAm" d="m332 212-1 1v-1h1Z"/><path fill="#C7CAC8" id="stc" d="M329 217v4c0 8.546 6.46-9 3-9l-1 1v1l-1 1v1l-1 1Z"/><path fill="#C8CBCC" id="ec" d="M99 215c1.28 0 11 14.969 11 16-3.435 0-7.212-16-15-16l1-2 3 2Z"/><path fill="#7FC0E0" id="CEAm" d="m125 213 1 1-1-1Z"/><path fill="#E64438" id="HY" d="m172 217-2 1-3-3v-2l5 4ZM289 214h1v-1l-1 1Z"/><path fill="#C8CBCC" id="ec" d="M359 215h2l-1-2-1 2Z"/><path fill="#FD8E9F" id="SMT" d="m209 214-1 1 1-1ZM247 214l1 1-1-1Z"/><path fill="#E64438" id="HY" d="M287 217v1l-2-1c0-1.712 2.571-3 4-3v1l-2 2Z"/><path fill="#8599CC" id="PAL" d="m290 214-1 1v-1h1ZM329 214l-1 1 1-1Z"/><path fill="#7FC0E0" id="CEAm" d="m331 214-1 1 1-1Z"/><path fill="#9DE79B" id="BLAa" d="M98 255h7l2-2 6-6 1-5v-2l-1-3v-1l-2-3-1-2c-3.435 0-7.212-16-15-16-10.566 0-8 18.931-8 27v3l1 1v1l1 1 1 2 1 1v1l3 1h1l1 1 2 1Z"/><path fill="#7FC0E0" id="CEAm" d="m126 215 1 1-1-1Z"/><path fill="#8599CC" id="PAL" d="m167 215 3 3-3-3Z"/><path fill="#FD8E9F" id="SMT" d="m208 215-1 1 1-1Z"/><path fill="#8599CC" id="PAL" d="m289 215-2 2c1.747 0 2-.253 2-2ZM327 216h1v-1l-1 1Z"/><path fill="#C8CBCC" id="ec" d="m359 215-2 1v-1h2Z"/><path fill="#9DE79B" id="BLAa" d="M352 255h6l5-2h1l1-1 1-2 1-1v-1l1-1 1-1v-3c0-8.341 3.457-28-8-28h-2l-2 1-1 1-1 1c0 1.238-.423 3-2 3 0 1.238-.423 3-2 3 0 2.003.293 3-2 3 0 1.429-1.288 4-3 4v1l-1 1v1l-1 1-1 2v4l-1 1 1 4 6 7 3 2Z"/><path fill="#80BFE1" id="MEA" d="M137 287h2c2.969 0 18.285-11.07 20-14.5l1-9.5-1-3c0-9.855-24-32.298-24-38l-6-6h-2v3l1 1v3c1.643 0 1 3.765 1 5l1 17v28l7 14Z"/><path fill="#FF6F80" id="TH" d="M205 219h3l-1-3-3 1h-1l2 2ZM249 219h2c1.238 0 3-.423 3-2h-2l-3-1v3Z"/><path fill="#8599CC" id="PAL" d="m293 216-1 1 1-1Z"/><path fill="#80BFE1" id="MEA" d="M318 287h2c0-4.625 6-8.883 6-14l1-2v-24c0-6.295-1.68-16.139 1-21.5.574-1.147-1.064-4.5 1-4.5v-5h-2l-6 6v1l-1 1c0 6.877-23 25.649-23 36v12.5c1.954 3.907 17.453 14.5 21 14.5Z"/><path fill="#7FC0E0" id="CEAm" d="m330 216-1 1v-1h1Z"/><path fill="#C8CBCC" id="ec" d="m357 216-1 1 1-1Z"/><path fill="#F2483A" id="LHA" d="m172 259 4 1 7-2 2-2c-3.34 0 .397-8.948 2.5-10 3.493-1.746 2.356 1 4.5 1 0-5.987 1.863-10.775-1-16.5-1.177-2.353-8-7.788-8-9.5-4.254 0-7.157-4-11-4l-2 1c0 2.499 2 3.508 2 7 0 3.559 1.194 7.653-3.5 10-2.586 1.293-7.5-.464-7.5 4 0 4.116 4 6.343 4 10v1l7 9ZM284 259h1c0-1.429 1.288-4 3-4 0-1.238.423-3 2-3l1-2c0-1.238.423-3 2-3 0-1.465-.109-4 2-4l1-5c0-3.519-6.641-2.07-8.5-3-1.907-.953-5.816-10-2.5-10 0-5.099 2-5.598 2-7l-2-1-13 5c0 2.137-6.846 9.191-8 11.5-.784 1.567-.194 12.5 1 12.5 3.429 0 4.972.443 7 4.5.402.804 2.3 5.5 0 5.5l2 2 7 2 3-1Z"/><path fill="#C8CBCC" id="ec" d="m356 217-1 1 1-1ZM355 218c-1.577 0-2 1.762-2 3 1.577 0 2-1.762 2-3Z"/><path fill="#A0EE9C" id="EPd" d="m68 219 1 1-1-1Z"/><path fill="#7FC0E0" id="CEAm" d="m127 219 1 1-1-1Z"/><path fill="#E64438" id="HY" d="M274 258c-6.559 0-11.053 16-13 16 0-9.036-14.053-26.223-24.5-21l-4.5 5v-9l1.5 2h17c6.97-3.485 8.044-13.978 0-18-1.658-.829-14.858-3.071-17-2l-1.5 2c0-3.493-3-3.866-3 0h-1c0-3.416-4-4.154-4-1-5.638 0-12.922-1.789-18.5 1-7.332 3.666-7.3 14.35 0 18 4.646 2.323 14.174-1 18.5-1v7l-3.5-4c-6.843-3.421-19.548 4.596-22.5 10.5-1.775 3.55-2 7.167-2 11.5-1.713 0-7.72-17-13-17l2-2 2-1c0 8.449 11.711-5 3-5l2-3c0-5.987 1.863-10.775-1-16.5-1.177-2.353-8-7.788-8-9.5 3.149 0 22 6.376 22-2h3c3.014 0 7.346 1 10 1 0 1.473 1.952 1 3 1h1c0 5.44 12 5.44 12 0h2l2-1c3.285 0 7.387-1 11-1h2c0 7.425 16.988 3 21 3 0 2.137-6.846 9.191-8 11.5-.784 1.567-.194 12.5 1 12.5l1 4c-8.879 0 4 12.87 4 6h2l2 2Z"/><path fill="#FF6F80" id="TH" d="M218 220c0 1.473 1.952 1 3 1l-2-2-1 1ZM238 220l-2 1 1-2 1 1Z"/><path fill="#CCC" d="M315 219c-1.747 0-2 .253-2 2 1.747 0 2-.253 2-2Z"/><path fill="#CACCCB" id="opt" d="M155 237c0 3.669 15.463 21.018 9.5 24-1.956.978-4.077-1-5.5-1 0-9.855-24-32.298-24-38 0-5.317 12.377 6.877 14.5 9l3.5 3 1 1 1 1v1ZM297 260l-1 1c-5.306 0-5-.926-5-6l2-4 2-4c2.109 0 2-2.535 2-4 1.577 0 2-1.762 2-3l1-2 1-1 1-1 1-1v-1l4-3.5c2.09-2.09 14-13.378 14-8.5v1l-1 1c0 6.877-23 25.649-23 36Z"/><path fill="#A0EE9C" id="EPd" d="m388 220-1 1 1-1Z"/><path fill="#FF6F80" id="TH" d="M232 221h2c0 5.44-12 5.44-12 0h2c1.912 0 3.521 2 5.5 2l2.5-2Z"/><path fill="#CCC" d="M313 221c-2.469 0-3.074 2.787-5.5 4H297l-1 5.5c2.432 4.864 17-5.816 17-9.5Z"/><path fill="#C8CBCC" id="ec" d="M353 221c-1.577 0-2 1.762-2 3 1.577 0 2-1.762 2-3Z"/><path fill="#A0EE9C" id="EPd" d="m69 222 1 1-1-1Z"/><path fill="#8599CC" id="PAL" d="m321 223-1 1 1-1Z"/><path fill="#A0EE9C" id="EPd" d="M386 224h1v-1l-1 1ZM70 225h1l-1-1v1Z"/><path fill="#C8CBCC" id="ec" d="M351 224c-1.577 0-2 1.762-2 3 2.293 0 2-.997 2-3Z"/><path fill="#8AD987" id="CTXsp" d="m387 224-1 1v-1h1ZM71 225v1l-1-1h1ZM386 225l-1 2 1-2Z"/><path fill="#A0EE9C" id="EPd" d="M71 227h1l-1-1v1Z"/><path fill="#8AD987" id="CTXsp" d="m72 227 1 2-2-2h1Z"/><path fill="#C8CBCC" id="ec" d="M349 227c-1.712 0-3 2.571-3 4 1.712 0 3-2.571 3-4Z"/><path fill="#8AD987" id="CTXsp" d="m385 227-1 2 1-2ZM83 237c-1.076 0-5-2.669-5 1l-5-8c3.38 0 8 7.505 8-1 1.06 0 2 6.743 2 8ZM384 229l-1 1v-1h1Z"/><path fill="#FD5D50" id="PVi" d="M224 271h3c0-12.543 1-26.142 1-38 0-3.416-4-4.154-4-1v39ZM229 271h3v-38c0-3.493-3-3.866-3 0v38Z"/><path fill="#8AD987" id="CTXsp" d="M383 230c-1.577 0-2 1.762-2 3 1.577 0 2-1.762 2-3Z"/><path fill="#FE5445" id="DMH" d="M224 232c-5.638 0-12.922-1.789-18.5 1-7.332 3.666-7.3 14.35 0 18 4.646 2.323 14.174-1 18.5-1v-18ZM232 233l1.5-2c2.142-1.071 15.342 1.171 17 2 8.044 4.022 6.97 14.515 0 18h-17l-1.5-2v-16Z"/><path fill="#8AD987" id="CTXsp" d="M373 237c3.329 0 4.97 1 6 1l2-5c-1.745 0-6 .698-6-2l-2 4v2Z"/><path fill="#97D6F9" id="STR" d="m346 232-1 1 1-1ZM112 233l1 3-2-3h1Z"/><path fill="#CCCAC9" id="sup" d="M155 237h2c0-1.038-4-5.153-4-3l1 1 1 1v1Z"/><path fill="#A8A9AA" id="V3" d="M228 290h1v-57h-1c0 11.858-1 25.457-1 38 0 6.244 1 13.428 1 19Z"/><path fill="#CCCAC9" id="sup" d="M303 234c-1.186 0-1.186 1 0 1v-1Z"/><path fill="#97D6F9" id="STR" d="m345 234-1 1 1-1Z"/><path fill="#8599CC" id="PAL" d="m154 235 1 1-1-1Z"/><path fill="#CCCAC9" id="sup" d="M301 236h1c0-1.186-1-1.186-1 0Z"/><path fill="#97D6F9" id="STR" d="m344 235-1 2 1-2Z"/><path fill="#C8C9CB" id="amc" d="m373 237-2 4c0-1.357.647-6 2-6v2Z"/><path fill="#A0ED9D" id="EPv" d="M94 271h1c0-4.725 1-9.879 1-14l-1-1-4-4v-1l-1-1-1-2-1-1v-1l-1-1v-2l-1-1v-1l-3-4c-1.076 0-5-2.669-5 1 0 8.493 16 26.309 16 33Z"/><path fill="#CCCAC9" id="sup" d="M300 237h1v-1l-1 1Z"/><path fill="#CAC7CB" id="fiber tracts" d="m302 236-1 1v-1h1Z"/><path fill="#A0ED9D" id="EPv" d="M361 272h1l17-34c-1.03 0-2.671-1-6-1l-2 4-1 1v1l-1 2v1l-1 1-1 1v1l-1 1-1 2-1 1-1 1-1 1-1 1v16Z"/><path fill="#97D6F9" id="STR" d="m115 239-1 1-1-3 2 2Z"/><path fill="#CAC7CB" id="fiber tracts" fill-rule="evenodd" d="m157 238 3.5 6 2.5 2.5c0-1.353-4.582-8.5-6-8.5m18 25 1 3c-2.379 0-9.425.538-12.5-1l-3.5-2-1-3c1.423 0 3.544 1.978 5.5 1 5.963-2.982-9.5-20.331-9.5-24h2l4 2c0 4.116 4 6.343 4 10-5.534 0 8 14.956 8 13l2 1Z"/><path fill="#CAC7CB" id="fiber tracts" d="m300 238-1 2-1-2 1-1 1 1Z"/><path fill="#CCCAC9" id="sup" d="M300 237v1l-1-1h1Z"/><path fill="#CAC7CB" id="fiber tracts" d="m301 237-1 1v-1h1Z"/><path fill="#97D6F9" id="STR" d="M342 241h1v-4l-2 2 1 2Z"/><path fill="#CCCAC9" id="sup" d="m157 238 3.5 6 2.5 2.5c0-1.353-4.582-8.5-6-8.5Z"/><path fill="#CAC7CB" id="fiber tracts" d="M291 250c1.577 0 2-1.729 2 1l2-4c2.109 0 2-2.535 2-4 1.577 0 2-1.762 2-3-3.31 0-1 .936-1-2h-2l-1 5c-2.109 0-2 2.535-2 4-1.577 0-2 1.762-2 3Z"/><path fill="#CCCAC9" id="sup" d="m298 238 1 2c-3.31 0-1 .936-1-2Z"/><path fill="#80BEE2" id="IA" d="m114 241 3 1-2-3-1 1v1ZM341 242l-1 1v-1l1-3 1 2-1 1Z"/><path fill="#97D6F9" id="STR" d="M118 245h1c0-2.215-2-1.519-2-3l-3-1v1l4 3ZM341 242h1v-1l-1 1Z"/><path fill="#8AD987" id="CTXsp" d="m343 241-1 1v-1h1Z"/><path fill="#C8C9CB" id="amc" d="m371 241-1 1 1-1ZM87 242v1l-1-1h1Z"/><path fill="#8AD987" id="CTXsp" d="M118 245c-2.25 0-3.376 2-5 2l1-5 4 3Z"/><path fill="#97D6F9" id="STR" d="m340 243-2 1 2-2v1Z"/><path fill="#8AD987" id="CTXsp" d="m338 245 5 1-1-4h-1l-1 1-2 1v1Z"/><path fill="#C8C9CB" id="amc" d="m370 243-1 2v-2h1Z"/><path fill="#97D6F9" id="STR" d="M337 245h1v-1l-1 1Z"/><path fill="#C8C9CB" id="amc" d="m87 245 1 1-1-1Z"/><path fill="#84EA80" id="BMAa" d="M113 278h1c5.617 0 9.496-6 15-6l1-2v-18l-5-5h-2l-4-2h-1c-2.25 0-3.376 2-5 2l-6 6-1 3c0 7.006 5 14.59 5 21l2 1Z"/><path fill="#8AD987" id="CTXsp" d="m119 245 4 2-4-2Z"/><path fill="#97D6F9" id="STR" d="m125 247 5 5v-7c-1.087 0-2.433 2-5 2Z"/><path fill="#F2463A" id="PeF" d="m187 255-2 1c-3.34 0 .397-8.948 2.5-10 3.493-1.746 2.356 1 4.5 1l-2 3c-2.393 0-3 3.234-3 5ZM270 256h2c2.3 0 .402-4.696 0-5.5-2.028-4.057-3.571-4.5-7-4.5l1 4c2.462 0 4 3.953 4 6Z"/><path fill="#8AD987" id="CTXsp" d="m337 245-2 1 2-1Z"/><path fill="#84EA80" id="BMAa" d="M342 278h2l2-2c0-6.062 4-12.553 4-19l-1-4-6-7-5-1h-1l-2 1-1 1h-2l-1 1-4 3v20l1 1c4.897 0 8.996 6 14 6Z"/><path fill="#97D6F9" id="STR" d="M333 247h1v-1l-1 1Z"/><path fill="#8AD987" id="CTXsp" d="m335 246-1 1v-1h1Z"/><path fill="#C8C9CB" id="amc" d="m369 246-1 1 1-1ZM88 247l1 1-1-1Z"/><path fill="#97D6F9" id="STR" d="m331 248-4 3v-4h4v1Z"/><path fill="#8AD987" id="CTXsp" d="m332 247-1 1v-1h1Z"/><path fill="#C8C9CB" id="amc" d="m368 247-1 1 1-1Z"/><path fill="#CCCAC9" id="sup" d="M173 261v1c0 1.956-13.534-13-8-13v1c0 1.944 5.77 11 8 11ZM291 250c1.577 0 2-1.729 2 1-1.577 0-2 1.729-2-1Z"/><path fill="#C8C9CB" id="amc" d="m367 249-1 1 1-1ZM90 250l1 1-1-1Z"/><path fill="#CAC7CB" id="fiber tracts" d="m172 259 1 2c-2.23 0-8-9.056-8-11l7 9Z"/><path fill="#C7C8CA" id="fx" d="M190 250c8.711 0-3 13.449-3 5 0-1.766.607-5 3-5ZM266 250c2.462 0 4 3.953 4 6 0 6.87-12.879-6-4-6Z"/><path fill="#CAC7CB" id="fiber tracts" d="M290 252c1.473 0 1 1.952 1 3l2-4c-1.577 0-2 1.729-2-1l-1 2Z"/><path fill="#C8C9CB" id="amc" d="m98 256-2 1-1-1-4-4 3 1 4 3Z"/><path fill="#CAC7CB" id="fiber tracts" d="M290 252c-1.577 0-2 1.762-2 3 1.577 0 2-1.762 2-3Z"/><path fill="#CCCAC9" id="sup" d="M288 255c0 3.749 1.288 0 3 0 0-1.048.473-3-1-3 0 1.238-.423 3-2 3Z"/><path fill="#C8C9CB" id="amc" d="m365 252-1 1 1-1Z"/><path fill="#8AD987" id="CTXsp" d="M98 255v1l-4-3h1l1 1 2 1Z"/><path fill="#9DE69C" id="BLAp" d="m95 253 1 1-1-1Z"/><path fill="#8AD987" id="CTXsp" d="m105 255 1 1 1-3-2 2Z"/><path fill="#FF4A3D" id="VMH" d="M216 281c-3.708 0-5.942 2-10 2-4.159 0-10-3.391-10-8 0-4.333.225-7.95 2-11.5 2.952-5.904 15.657-13.921 22.5-10.5l3.5 4v15l-1 1v1l-1 1-5 5-1 1ZM260 276c0 3.432-6.057 7-9 7-8.958 0-17.492-10-18-10v-1l-1-1v-13l4.5-5c10.447-5.223 24.5 11.964 24.5 21v1l-1 1Z"/><path fill="#8AD987" id="CTXsp" d="m352 255-2 2-1-4 3 2ZM360 257l1 1v-2c-2.029 0-.058-1 1-1l1-1v-1l-5 2 1 1 1 1Z"/><path fill="#C8C9CB" id="amc" d="m364 253-1 1v-1h1ZM363 254l-1 1 1-1Z"/><path fill="#9CE79C" id="BLAv" d="M110 278c0 1.638-3.576 2-5 2-3.137 0-5.591-4-8-4l-1-3-1-1v-1c0-4.725 1-9.879 1-14l2-1v-1h7l1 1c0 7.006 5 14.59 5 21l-1 1Z"/><path fill="#CAC7CB" id="fiber tracts" fill-rule="evenodd" d="M287 257c0 1.93 1.93 0 0 0m-5 5h1c0 2.999 3.999-1 1-1v-2h1c0-1.429 1.288-4 3-4 0 3.749 1.288 0 3 0 0 5.074-.306 6 5 6 0 4.502-9.394 4.447-12.5 6-.879.44-2.5.028-2.5-1l1-4m3-3c0 2.609 4.136 0 0 0Z"/><path fill="#9CE79C" id="BLAv" d="m347 279 5 1c1.334 0 7-2.717 7-4l1-2 1-1v-15l-1-1-1-1-1-1h-6l-2 2c0 6.447-4 12.938-4 19l1 3Z"/><path fill="#C8C9CB" id="amc" d="M362 255c-1.058 0-3.029 1-1 1l1-1Z"/><path fill="#8AD987" id="CTXsp" d="m95 256 1 1-1-1Z"/><path fill="#C8C9CB" id="amc" d="m359 256 1 1-1-1Z"/><path fill="#CCCAC9" id="sup" d="M287 257c0 1.93 1.93 0 0 0Z"/><path fill="#F24839" id="TU" d="M207 290v1c-14.318 0-22.046-7.591-28-19.5l-3-5.5-1-3 1-3 7-2c5.28 0 11.287 17 13 17 0 4.609 5.841 8 10 8l2 3-1 4ZM249 290v1c6.769 0 18.481-1.462 22-8.5l10-16.5 1-4-1-2-7-2c-6.559 0-11.053 16-13 16v1l-1 1c0 3.432-6.057 7-9 7l-3 3 1 4Z"/><path fill="#CCCAC9" id="sup" d="M285 259c0 2.609 4.136 0 0 0Z"/><path fill="#E64438" id="HY" d="m173 262 2 1 1-3-4-1 1 2v1ZM282 262h1l1-1v-2l-3 1 1 2Z"/><path fill="#CAC7CB" id="fiber tracts" d="M296 261h1v-1l-1 1Z"/><path fill="#CCCAC9" id="sup" d="M284 261c2.999 0-1 3.999-1 1l1-1Z"/><path fill="#99D2BD" id="OLF" d="m129 272 1 1v-3l-1 2ZM94 276h3l-1-3-1-1v-1h-1v5Z"/><path fill="#FF5B4F" id="ARH" d="M216 291c0-1.927 9.076 0 11 0l1-1c0-5.572-1-12.756-1-19h-3v1l-1 1v1l-1 1c0 2.362-2.638 5-5 5l-1 1c0 1.155-6.844 5-8 5l-1 4 1 1h8ZM241 291h7l1-1-1-4c-2.444 0-15-9.947-15-13v-1l-1-1h-3v20c2.072 0 11-1.522 11 0h1Z"/><path fill="#E64438" id="HY" d="m232 271 1 1-1-1Z"/><path fill="#99D2BD" id="OLF" d="m328 272-2 1 1-2 1 1Z"/><path fill="#8AD987" id="CTXsp" d="m95 272 1 1-1-1Z"/><path fill="#60E5B7" id="COAa" d="M120 295h2c2.151 0 15-6.095 15-7v-1l-7-14-1-1c-5.504 0-9.383 6-15 6l-1 5c0 2.085 4.512 12 7 12Z"/><path fill="#E64438" id="HY" d="m224 272-1 1 1-1Z"/><path fill="#60E5B7" id="COAa" d="M335 295h2c0-4.19 7-8.142 7-13l-2-4c-5.004 0-9.103-6-14-6l-2 1c0 5.117-6 9.375-6 14v2c5.078 0 9.102 6 15 6Z"/><path fill="#99D2BD" id="OLF" d="M359 276h4l-1-4h-1v1l-1 1-1 2Z"/><path fill="#E64438" id="HY" d="m251 283-3 3c-2.444 0-15-9.947-15-13 .508 0 9.042 10 18 10Z"/><path fill="#8AD987" id="CTXsp" d="m361 273-1 1 1-1Z"/><path fill="#E64438" id="HY" d="m223 274-1 1 1-1ZM222 275l-5 5c2.362 0 5-2.638 5-5ZM261 275l-1 1 1-1Z"/><path fill="#59D9AA" id="PAA" d="M83 295c0 7.03 21.82 6 26 6l-2-18c-1.577 0-2-1.762-2-3-3.137 0-5.591-4-8-4h-3l-11 19Z"/><path fill="#8AD987" id="CTXsp" d="m344 278 3 1-1-3-2 2Z"/><path fill="#59D9AA" id="PAA" d="M348 300v1c4.118 0 26 .455 26-6l-3-4.5c-2.005-4.01-8-9.972-8-14.5h-4c0 1.283-5.666 4-7 4l-2 3c0 5.339-2 12.137-2 17Z"/><path fill="#8AD987" id="CTXsp" d="M110 278h3l-2-1-1 1Z"/><path fill="#99D2BD" id="OLF" d="M107 283c0-4.714 5.147 0 6 0l1-5h-4c0 1.638-3.576 2-5 2 0 1.238.423 3 2 3ZM344 282l4.5-1 1.5 2 2-3-5-1-3-1h-2l2 4Z"/><path fill="#E64438" id="HY" d="m217 280-1 1 1-1Z"/><path fill="#5FE6B7" id="COApl" d="m119 297-10 4-2-18c0-4.714 5.147 0 6 0 0 2.085 4.512 12 7 12v1l-1 1Z"/><path fill="#E64438" id="HY" d="m206 283 2 3c1.156 0 8-3.845 8-5-3.708 0-5.942 2-10 2Z"/><path fill="#5FE6B7" id="COApl" d="m348 300-1 1-10-4v-2c0-4.19 7-8.142 7-13l4.5-1 1.5 2c0 5.339-2 12.137-2 17Z"/><path fill="#99D2BD" id="OLF" d="m139 287-2 1v-1h2ZM320 287v2l-2-2h2Z"/><path fill="#E64438" id="HY" d="M207 291h1l-1-1v1Z"/><path fill="#F1473A" id="ME" d="m217 292 3.5 2c14.626 7.313 11.648-2 19.5-2v-1c0-1.522-8.928 0-11 0h-2c-1.924 0-11-1.927-11 0l1 1Z"/><path fill="#E64438" id="HY" d="M227 291h2v-1h-1l-1 1ZM248 291h1v-1l-1 1ZM216 291l1 1-1-1ZM241 291l-1 1v-1h1Z"/><path fill="#99D2BD" id="OLF" d="m122 295-2 1v-1h2ZM337 295v2l-2-2h2ZM120 296l-1 1 1-1ZM347 301h1v-1l-1 1Z"/></svg>