<svg xmlns="http://www.w3.org/2000/svg" viewBox="0 0 456 320"><path fill="#098589" id="VISp1" d="M98 75h1c0-2.832 6.115-5.807 8.5-7 4.903-2.451 26.5-20.5 26.5-4l16-13-7.5-3c-1.908-.954-18.48.24-20 1-6.455 3.228-13.379 9.19-19 12C99.786 62.857 91 69.633 91 73l7 2ZM357 75h1l8-2-9-8.5c-3.715-7.43-23.428-16.5-32-16.5-3.676 0-19-.032-19 4 6.16 0 11.113 12 17 12 0-17.946 34 7.194 34 11Z"/><path fill="#FF7AFD" id="SCzo" d="M204 57h20c0-9.728-21-9.196-21-6l1 6ZM233 57c6.706 0 11.897 1 19 1l2-7c0-2.818-21-4.489-21 6Z"/><path fill="#1BA696" id="RSPagl1" d="M134 81h1l1-1 1-1c0-2.196 11.131-12.762 13-16.5.713-1.425 4.389-11.5 0-11.5l-16 13v1c0 5.509-7 10.016-7 14 0 1.663 5.407 2 7 2Z"/><path fill="#FF64FF" id="MB" d="M314 131c0-7.18-15 .532-15 1-12.583 0-20.753-11-29-11l-2.5-5c-2.409-2.409-2.977-8.455-4.5-11.5-1.169-2.337-4-3.673-4-6.5v-8c0-4.31-15.329-14.915-19.5-17-3.336-1.668-10.5-1.775-10.5 2 0 1.4-2 1.4-2 0 0-7.095-22 .674-22 8l-2 1-2 1c-2.393 0-3 3.234-3 5l-1 1c0 1.406-.714 7 1 7 0 1.276-11 18.522-11 23-5.111 0-6.292 4-10 4 0-3.314 7-5.532 7-10 1.359 0 5.922-15.344 7-17.5 2.282-4.564 8.585-38.83 7-42-2.126-4.252-10.966-2.5-15-2.5 0-.843 3.646-2 4.5-2H203l1 6 .5 3 6.5-1 14 2c0 5.793 6 6.726 6 0 6.013 0 12.528-3.986 18.5-1 1.759.88 2.5-.606 2.5-2l2-7c4.456 0 25 .072 25 4-4.742 0-13.053-4.724-18.5-2-2.13 1.065-2.637 3.774-3.5 5.5l2 4.5c0 6.207 1.346 15.193 4 20.5v9c2.29 4.58 3.687 9.375 6 14 .821 1.642 1.379 8.5 4 8.5 0 6.818 8.542 10.521 13.5 13 2.568 1.284 6.486-1 8.5-1l7.5 1c10.502-5.251 13.832-20.836 8.5-31.5v-5L303 76l2 1 8 15.5c1.951 3.903 1.051 9.102 3 13V119c0 1.145-.579 4 1 4 0 1.07-2.384 8-3 8Z"/><path fill="#1BA696" id="RSPagl1" d="M322 81h1c3.767 0 5.08-1 8-1v-1c-4.639 0-8-10.686-8-14v-1c-5.887 0-10.84-12-17-12-2.404 0-1.775 5.95-1 7.5 1.395 2.79 14.799 21.5 17 21.5Z"/><path fill="#FF64FF" id="MB" d="M183 53c-1.622 0-5-.46-5 2 1.041 0 5-.986 5-2Z"/><path fill="#FE79FF" id="ICd" d="M172 69c.571 0 2 3.95 2 4.5 0 4.895-2.512 12.975 0 18l10 23.5c1.359 0 5.922-15.344 7-17.5 2.282-4.564 8.585-38.83 7-42-2.126-4.252-10.966-2.5-15-2.5 0 1.014-3.959 2-5 2 0 5.024-6 9.344-6 14ZM284 69c-1.643 0-1 3.766-1 5v16.5c-2.874 5.748-10 18.267-10 24.5-2.621 0-3.179-6.858-4-8.5-2.313-4.625-3.71-9.42-6-14v-9c-2.654-5.307-4-14.293-4-20.5l-2-4.5c.863-1.726 1.37-4.435 3.5-5.5 5.447-2.724 13.758 2 18.5 2 0 5.487 5 9.091 5 14Z"/><path fill="#FE79FE" id="ICe" d="M147 87c0 13.651-11.545 31.977 6.5 41l7.5-1-2-6.5c-3.867-7.735 2.967-33.935 6-40 1.089-2.177 3.631-11.5 7-11.5 0-4.656 6-8.976 6-14-4.283 0-21 12.084-21 16l-1 1-1 1-1 1v1l-1 1-1 1-1 2c0 1.466.109 4-2 4l-1 2-1 2ZM303 76l8 15.5v5c5.332 10.664 2.002 26.249-8.5 31.5l-7.5-1c0-2.235 1.886-9.273 3-11.5 2.397-4.795-4.78-31.56-7-36-1.027-2.053-3.898-10.5-7-10.5 0-4.909-5-8.513-5-14 2.864 0 16 8.73 16 11l2 2 1 1 1 1 3 4 1 1v1Z"/><path fill="#0A828C" id="VISp2/3" d="M99 75c7.145 0 12.192 4 19 4 0-1.167 14.604-14 16-14v-1c0-16.5-21.597 1.549-26.5 4-2.385 1.193-8.5 4.168-8.5 7Z"/><path fill="#FD7AFF" id="SCop" d="m224 57 1 4-14-2-6.5 1-.5-3h20ZM252 58c0 1.394-.741 2.88-2.5 2-5.972-2.986-12.487 1-18.5 1l2-4c6.706 0 11.897 1 19 1Z"/><path fill="#0A828C" id="VISp2/3" d="M357 75c-6.935 0-12.043 4-19 4l-3.5-4c-2.917-2.917-8.538-10-11.5-10v-1c0-17.946 34 7.194 34 11Z"/><path fill="#1AA496" id="RSPagl2/3" d="M126 79h1c0-3.984 7-8.491 7-14-1.396 0-16 12.833-16 14h8ZM331 79h7l-3.5-4c-2.917-2.917-8.538-10-11.5-10 0 3.314 3.361 14 8 14Z"/><path fill="#FF64FF" id="MB" d="m295 66 2 2-2-2Z"/><path fill="#FE7AFE" id="ICc" d="m177 125-7.5 3-8.5-1-2-6.5c-3.867-7.735 2.967-33.935 6-40 1.089-2.177 3.631-11.5 7-11.5.571 0 2 3.95 2 4.5 0 4.895-2.512 12.975 0 18l10 23.5c0 4.468-7 6.686-7 10ZM273 115c0 6.818 8.542 10.521 13.5 13 2.568 1.284 6.486-1 8.5-1 0-2.235 1.886-9.273 3-11.5 2.397-4.795-4.78-31.56-7-36-1.027-2.053-3.898-10.5-7-10.5-1.643 0-1 3.766-1 5v16.5c-2.874 5.748-10 18.267-10 24.5Z"/><path fill="#FF64FF" id="MB" d="m298 69 1 1-1-1ZM157 71l-1 1 1-1ZM156 72l-1 1 1-1Z"/><path fill="#FF8FFF" id="SCdg" d="M205 83h2c0-1.517 7.636-6 9-6 0-1.473 1.952-1 3-1l8-1c0-7.095-22 .674-22 8ZM249 82c3.873 0 7.369 8 10 8 0-4.31-15.329-14.915-19.5-17-3.336-1.668-10.5-1.775-10.5 2l8 1c1.048 0 3-.473 3 1h1l1 1 6 3 1 1Z"/><path fill="#0A838A" id="VISpl1" d="M72 93c0 1.408 1.197 5 3 5 0-4.065 23-18.835 23-23l-7-2c-3.42 0-11.501 11.001-15 14.5L72 93Z"/><path fill="#FF64FF" id="MB" d="m155 73-1 1 1-1Z"/><path fill="#0A838A" id="VISpl1" d="m385 93-3 5-24-23 8-2 5.5 6c.885.442 13.5 12.276 13.5 14Z"/><path fill="#FF64FF" id="MB" d="m302 74 1 1-1-1Z"/><path fill="#09848C" id="VISpl2/3" d="M75 103h1l2-1c0-1.998 5.174-2.337 6.5-3l1-2H111c0-5.436 15-13.63 15-18h-8c-6.808 0-11.855-4-19-4h-1c0 4.165-23 18.935-23 23v5Z"/><path fill="#FF64FF" id="MB" d="m154 75-1 1 1-1Z"/><path fill="#CBC9C9" id="cic" d="m207 89 12.5-6c9.213-4.606 24.884 6 29.5 6v-7l-1-1-6-3-1-1h-1c-1.048 0-3 .473-3-1l-8-1c0 1.4-2 1.4-2 0l-8 1c0 1.473-1.952 1-3 1-1.364 0-9 4.483-9 6v6Z"/><path fill="#09848C" id="VISpl2/3" d="M380 103h1l1-4v-1l-24-23h-1c-6.935 0-12.043 4-19 4h-7v1c0 2.663 15 12.969 15 17 10.076 0 20.13-1.185 28.5 3 1.311.656 5.5.797 5.5 3Z"/><path fill="#FF64FF" id="MB" d="m153 76-1 1 1-1ZM219 76c-1.048 0-3-.473-3 1 1.048 0 3 .473 3-1ZM237 76c1.048 0 3-.473 3 1-1.048 0-3 .473-3-1Z"/><path fill="#C9C8C8" id="bic" d="M147 87c-2.155 0-3.233 6.965-4 8.5-3.232 6.463-3 20.125-3 27.5-2.683 0-2-10.187-2-12.5 0-10.68 3.633-17.266 8-26 .845-1.69 2.175-7.5 5-7.5v2l-2 4-1 2-1 2Z"/><path fill="#FF64FF" id="MB" d="m152 77-1 2v-2h1ZM241 77l1 1-1-1Z"/><path fill="#C9C8C8" id="bic" d="M305 77c3.614 0 5.636 7.772 7 10.5 2.532 5.063 10.231 22.537 7 29l-2 6.5c-1.579 0-1-2.855-1-4v-13.5c-1.949-3.898-1.049-9.097-3-13L305 77Z"/><path fill="#0A838A" id="VISpl1" d="M111 97c3.015 0 6.004 2 8 2l5-6.5 8-8.5 1-1 1-1v-1c-1.593 0-7-.337-7-2h-1c0 4.37-15 12.564-15 18Z"/><path fill="#1BA598" id="RSPd1" d="m137 79-1 1 1-1Z"/><path fill="#FF64FF" id="MB" d="m151 79-2 4c2.109 0 2-2.534 2-4Z"/><path fill="#0A838A" id="VISpl1" d="M346 97c-3.914 0-6.634 2-9 2 0-4.567-14-13.54-14-17v-1c3.767 0 5.08-1 8-1 0 2.663 15 12.969 15 17Z"/><path fill="#1BA598" id="RSPd1" d="m136 80-1 1 1-1ZM135 81l-1 1v-1h1Z"/><path fill="#FF64FF" id="MB" d="m248 81 1 1-1-1Z"/><path fill="#1BA598" id="RSPd1" d="M323 81v1l-1-1h1ZM134 82l-1 1 1-1Z"/><path fill="#FF8FFE" id="SCdw" d="M259 90v8l-10-9v-7c3.873 0 7.369 8 10 8Z"/><path fill="#1BA598" id="RSPd1" d="m133 83-1 1 1-1Z"/><path fill="#FF64FF" id="MB" d="m149 83-1 2 1-2Z"/><path fill="#FF8FFF" id="SCdg" d="m205 83-2 1 2-1Z"/><path fill="#FF8FFE" id="SCdw" d="M197 91c0 1.406-.714 7 1 7l9-9v-6h-2l-2 1-2 1c0 1.238-1.923 5-3 5l-1 1Z"/><path fill="#FC8FFF" id="PAG" fill-rule="evenodd" d="M264 141c0 6.133 6.133 0 0 0m-74 0c0 6.072 4.238 0 0 0m45 19c-2.93 0-1.084 3-3 3 0-1.235.643-5-1-5v-7l1-10c3.488 0 7.774-7.049 9-9.5 4.991-9.981 3.618-20.941-7.5-26.5l-5-6-4 5c-10.559 5.28-14.949 16.602-9.5 27.5l9 9.5 2 9c0 4.121-1 9.275-1 14-.654 0-2.358-5-8-5l-2-1v-1c0-4.53 4.363-7.775 2-12.5-3.798-7.597-18 6.101-18 9.5h-2c-2.169 0-11-10.083-11-12v-1l-1-2c0-6.655 2-11.943 2-18 0-4.478 11-21.724 11-23l9-9 12.5-6c9.213-4.606 24.884 6 29.5 6l10 9c0 2.827 2.831 4.163 4 6.5 1.523 3.045 2.091 9.091 4.5 11.5l2.5 5 1 20c-4.154 0-6.034 13-12 13l-2-1-11.5-11c-4.518-2.259-8.219 6.061-6.5 9.5 1.042 2.084 2 2.908 2 5.5v1l-2 1c-1.145 0-4-.579-4 1Z"/><path fill="#FF8FFF" id="SCdg" d="m203 84-2 1 2-1Z"/><path fill="#FF64FF" id="MB" d="m148 85-1 2 1-2Z"/><path fill="#FF8FFF" id="SCdg" d="M201 85c-2.393 0-3 3.234-3 5 1.077 0 3-3.762 3-5Z"/><path fill="#FF64FF" id="MB" d="m142 131 2.5-4 3 2c1.868.934 10.5.075 10.5 3 3.361 0 19-3.807 19-7l-7.5 3-8.5-1-7.5 1c-18.045-9.023-6.5-27.349-6.5-41-2.155 0-3.233 6.965-4 8.5-3.232 6.463-3 20.125-3 27.5l2 8Z"/><path fill="#FF8FFF" id="SCdg" d="m198 90-1 1 1-1Z"/><path fill="#09818C" id="VISpor1" d="M67 109c0 1.991-6.266 7-8 7 0-3.513 9.411-23 13-23 0 1.408 1.197 5 3 5v1c-1.89 0-6 6.374-6 8l-1 1-1 1ZM389 109c3.616 0 4.079 7 8 7 0-3.739-8.815-23-12-23l-3 5v1l7 10Z"/><path fill="#72D568" id="PAR" d="M98 105c5.662 0 9 10.261 9 15 1.476 0 12-18.652 12-21-1.996 0-4.985-2-8-2H85.5l-1 2c-1.326.663-6.5 1.002-6.5 3l16.5 1 3.5 2ZM358 105c-4.673 0-6.52 7.54-8 10.5-.574 1.147 1.064 4.5-1 4.5l-3-4.5c-2.187-4.374-9-11.613-9-16.5 2.366 0 5.086-2 9-2 10.076 0 20.13-1.185 28.5 3 1.311.656 5.5.797 5.5 3-2.824 0-8.268-2.616-11.5-1l-10.5 3Z"/><path fill="#0A8389" id="VISpor2/3" d="M75 103c-2.789 0-3.42 4-6 4 0-1.626 4.11-8 6-8v4Z"/><path fill="#A9A9A8" id="AQ" d="m224 141 5.5 2 2.5-2c3.488 0 7.774-7.049 9-9.5 4.991-9.981 3.618-20.941-7.5-26.5l-5-6-4 5c-10.559 5.28-14.949 16.602-9.5 27.5l9 9.5Z"/><path fill="#0A8389" id="VISpor2/3" d="M388 109h1l-7-10-1 4c1.338 0 7 4.41 7 6Z"/><path fill="#72D568" id="PAR" d="m78 102-2 1 2-1Z"/><path fill="#30B824" id="ENTm2" d="M68 108v1c1.156 0 1.472 2.555 1 3.5-2.931 5.863-4.139 12.278-7 18-4.97 9.941-1.067 37.217 9.5 42.5 6.224 3.112 9.77-7.039 11.5-10.5 4.84-9.679 3.187-22.373 8-32v-5c1.452-2.904 7-17.945 7-20.5l-3.5-2-16.5-1-2 1h-1c-2.789 0-3.42 4-6 4l-1 1ZM358 105c0 1.524 5.893 16.287 7 18.5v5c4.952 9.904 3.027 23.054 8 33 1.55 3.101 5.596 14.452 11.5 11.5 11.625-5.813 14.839-33.821 9.5-44.5-2.727-5.454-4.202-11.405-7-17-.44-.879-.028-2.5 1-2.5 0-1.59-5.662-6-7-6h-1c-2.824 0-8.268-2.616-11.5-1l-10.5 3Z"/><path fill="#31B625" id="ENTm1" d="M59 116c0 3.604-2.382 10.264-4 13.5-3.225 6.45-3.246 32.507 0 39l7 9c23.607 23.607 24.542-8.084 33-25 1.55-3.099.437-7.875 2-11 2.358-4.717 10-16.651 10-21.5 0-4.739-3.338-15-9-15 0 2.555-5.548 17.596-7 20.5v5c-4.813 9.627-3.16 22.321-8 32-1.73 3.461-5.276 13.612-11.5 10.5-10.567-5.283-14.47-32.559-9.5-42.5 2.861-5.722 4.069-12.137 7-18 .472-.945.156-3.5-1-3.5h-1c0 1.991-6.266 7-8 7ZM397 116c2.893 0 2.87 14.24 4 16.5 2.439 4.878 2 10.6 2 16.5v15.5c-3.585 7.17-10.433 17.966-17.5 21.5-5.51 2.755-11.942-2.384-14.5-7.5-5.23-10.46-5.786-23.572-11-34-2-4.001-11-21.102-11-24.5 2.064 0 .426-3.353 1-4.5 1.48-2.96 3.327-10.5 8-10.5 0 1.524 5.893 16.287 7 18.5v5c4.952 9.904 3.027 23.054 8 33 1.55 3.101 5.596 14.452 11.5 11.5 11.625-5.813 14.839-33.821 9.5-44.5-2.727-5.454-4.202-11.405-7-17-.44-.879-.028-2.5 1-2.5h1c3.616 0 4.079 7 8 7Z"/><path fill="#0A8389" id="VISpor2/3" d="m69 107-1 1 1-1ZM67 109h1v-1l-1 1Z"/><path fill="#FC90FF" id="CUN" d="M170 147h3c0-2.185 8.871-1.185 10.5-2l2.5-3v-1l-1-2c0-6.655 2-11.943 2-18-5.111 0-6.292 4-10 4 0 3.193-15.639 7-19 7-12.307 0-5.123 13 0 13 2.86 0 5.58 3 9 3 0-1.473 1.952-1 3-1ZM284 147h3l5.5 1 5.5-3c5.76 0 12.222-13 1-13-12.583 0-20.753-11-29-11l1 20c0 6.778 13 3.414 13 6Z"/><path fill="#FDFB8F" id="SIM" d="m134 137-13 24.5-7 7.5c-3.776 0-7.72-8.06-6-11.5l3-11 8-15c5.599-11.198 15-6.907 15 4.5v1ZM322 137c.902 0 6.162 11.824 7 13.5 2.832 5.664 7.181 10.362 10 16l4 2.5c4.266 0 6.643-10.215 5-13.5l-3-10c-2.744-5.487-6.271-10.543-9-16l-3.5-2.5c-6.928-6.928-10.5 4.755-10.5 10Z"/><path fill="#C9C9CB" id="ll" d="M158 145c0 2.099-1.857 12-7 12 0-3.992-3-9.537-3-13l-1-1c0-3.736-5-7.982-5-12l2.5-4 3 2c1.868.934 10.5.075 10.5 3-12.307 0-5.123 13 0 13ZM298 145c0 3.177 3.853 12 7 12 2.308 0 .257-7.013 1-8.5l3-5.5 2-2c0-3.686 3-6.177 3-10 0-7.18-15 .532-15 1 11.222 0 4.76 13-1 13Z"/><path fill="#F0F080" id="CB" d="M134 137h1l-1-1v1Z"/><path fill="#FCFB90" id="CUL4, 5" d="M117 176c5.568 0 13.654 3.577 18.5 6l5.5-1 4-8c0-4.102 2.168-11.836 4-15.5 2.99-5.98-4-11.227-4-15.5l-1-1-1-1c0-2.98-8 1.447-8-3h-1l-13 24.5-7 7.5c0 2.18 3 5.188 3 7Z"/><path fill="#F0F080" id="CB" d="m322 137-1 2 1-2Z"/><path fill="#FCFB90" id="CUL4, 5" d="M338 177h1l1-1 3-7-4-2.5c-2.819-5.638-7.168-10.336-10-16-.838-1.676-6.098-13.5-7-13.5l-1 2h-7l-1 1-1 1-1 1-1 1c0 2.772-1.833 5.167-3 7.5-2.053 4.107 6.68 29.59 10.5 31.5 1.944.972 16.188-5 20.5-5Z"/><path fill="#FF64FF" id="MB" d="m185 139 1 2-1-2Z"/><path fill="#F0F080" id="CB" d="m314 139-1 1 1-1ZM143 140l1 1-1-1Z"/><path fill="#C8C9C8" id="IVn" d="M190 141c0 6.072 4.238 0 0 0Z"/><path fill="#FF64FF" id="MB" d="M226 150c3.598 0 4.708 1 5 1l1-10-2.5 2-5.5-2 2 9Z"/><path fill="#C8C9C8" id="IVn" d="M264 141c0 6.133 6.133 0 0 0Z"/><path fill="#FF64FF" id="MB" d="M265 161c0 1.465-.109 4 2 4 0-5.049-.749-10 4-10v-3l1-2c0-3.626 3.26-3 6-3h6c0-2.586-13 .778-13-6-4.154 0-6.034 13-12 13v3l4.5-4c4.121-2.06 1.5 6.446 1.5 8Z"/><path fill="#F0F080" id="CB" d="m312 141-1 1v-1h1ZM145 173h1l8-13-3-3c0-3.992-3-9.537-3-13l-1-1-2-1c0 4.273 6.99 9.52 4 15.5-1.832 3.664-4 11.398-4 15.5Z"/><path fill="#FF64FF" id="MB" d="M192 163c-1.481 0-.785 2-3 2 0-1.812 2.669-11-2.5-11l-1.5 3v-6c0-3.591-3.117-4-6-4h-6c0-2.185 8.871-1.185 10.5-2l2.5-3c0 1.917 8.831 12 11 12v2c-2.715 0-1.333-1.917-3.5-3-4.362-2.181-1.5 8.534-1.5 10Z"/><path fill="#FEC395" id="LDT" d="M199 154c0 3.237 2.657 11.578 5.5 13l4-2 6.5-8c0-4.53 4.363-7.775 2-12.5-3.798-7.597-18 6.101-18 9.5ZM241 157c2.337 0 5.615 10 12 10 0-6.31 4-6.839 4-14l-11.5-11c-4.518-2.259-8.219 6.061-6.5 9.5 1.042 2.084 2 2.908 2 5.5Z"/><path fill="#FF64FF" id="MB" d="m147 143 1 1-1-1Z"/><path fill="#F0F080" id="CB" d="M330 208h1c0-1.747.253-2 2-2 0-7.303 4-10.789 4-18l1-11c-4.312 0-18.556 5.972-20.5 5-3.82-1.91-12.553-27.393-10.5-31.5 1.167-2.333 3-4.728 3-7.5h-1l-3 5.5c-.743 1.487 1.308 8.5-1 8.5 0 3.212-1.288 2-3 2l1 2c0 4.044 6 6.811 6 11 1.577 0 2 1.762 2 3v1c1.577 0 2 1.762 2 3v1l2 2 2 2c2.511 0 17.757-4.986 19-2.5 2.518 5.037-3.254 9.509-5 13-.952 1.904 1.801 8.5-2 8.5l1 5Z"/><path fill="#FF64FF" id="MB" d="m156 158-2 2-3-3c5.143 0 7-9.901 7-12 2.86 0 5.58 3 9 3v1h-1l-1 1h-1l-1 1-1 1-1 1-5 5ZM305 157c0 3.212-1.288 2-3 2l-2-2-6-6h-1l-2-2h-2l-2-2 5.5 1 5.5-3c0 3.177 3.853 12 7 12ZM169 148h1v-1c-1.048 0-3-.473-3 1h2Z"/><path fill="#FF9B88" id="P" d="M173 147c0 1.473-1.952 1-3 1v-1h3Z"/><path fill="#FFAD6D" id="PB" d="M176 186c-6.272 0-12.208 2-19 2 0-1.481-8.872-7-11-7l-1-1v-1l1-1v-1h1c1.442 0 6-8.625 6-10l1-2 2-4c.81 0 5-6.749 5-8l1-1 1-1 1-1h1l1-1h1l2-1h1c1.048 0 3 .473 3-1h6c0 1.951 2.454.477 3.5 1l2.5 3v4l-4.5 6c-1.916.958-9.5 5.203-9.5 8 0 4.833-11 5.363-11 10.5 0 1.553 4.128-1.128 4.5-1.5 2.699-2.699 12.642-9 16.5-9l1-1c4.84 0 4.495 7.511 3 10.5l-9 7.5Z"/><path fill="#FF9B88" id="P" d="M179 147c2.883 0 6 .409 6 4l-2.5-3c-1.046-.523-3.5.951-3.5-1ZM278 147c-2.74 0-6-.626-6 3l6-3Z"/><path fill="#FFAD6D" id="PB" d="M299 188h1c0-2.589 8.969-7 11-7v-3l-1-1c-2.322 0-8-10.353-8-12l-1-3-1-1v-1c-1.067 0-6-7.571-6-9h-1l-2-2h-2c-.986 0-6-1.087-6-2h-5l-6 3-1 2v3l3.5 4c2.726 2.726 11.5 7.496 11.5 11 2.026 0 10.69 9.905 10.5 10-2.477 1.239-16.823-11-20.5-11h-5v8.5c1.329 2.658 10 7.101 10 8.5 5.819 0 11.674 2 18 2Z"/><path fill="#FF9B88" id="P" d="m287 147 2 2c-.986 0-6-1.087-6-2h4ZM169 148l-2 1v-1h2ZM166 149l-1 1 1-1Z"/><path fill="#FDA6FF" id="DR" d="M231 170c0 21.107-6 19.588-6 1v-7c0-4.725 1-9.879 1-14 3.598 0 4.708 1 5 1v19Z"/><path fill="#FF9B88" id="P" d="m291 149 2 2-2-2ZM164 150l-1 1 1-1ZM272 150l-1 2 1-2ZM163 151l-1 1 1-1ZM300 157v3c-1.067 0-6-7.571-6-9l6 6ZM162 152l-1 1 1-1ZM156 160v1c.81 0 5-6.749 5-8l-5 5v2Z"/><path fill="#CBC9CB" id="scp" d="M192 163c0 2.782 8 3.303 8 0l-3-7c-2.715 0-1.333-1.917-3.5-3-4.362-2.181-1.5 8.534-1.5 10Z"/><path fill="#FF9B88" id="P" d="m256 163-3 4c0-6.31 4-6.839 4-14l2 1v3l-3 6Z"/><path fill="#CBC9CB" id="scp" d="M265 161c-2.205 0-.002 3.251-1.5 4-1.65.825-7.5.268-7.5-2l3-6 4.5-4c4.121-2.06 1.5 6.446 1.5 8ZM171 169c0 4.833-11 5.363-11 10.5 0 1.553 4.128-1.128 4.5-1.5 2.699-2.699 12.642-9 16.5-9l1-1c0-1.473 1.952-1 3-1 0-1.577 1.762-2 3-2h1c0-1.812 2.669-11-2.5-11l-1.5 3c0 5.385-8.814 12-14 12Z"/><path fill="#FF9B88" id="P" d="m213 169 6.5 3 5.5-1v-7c-.654 0-2.358-5-8-5v1c3.256 0 5-.714 5 3l2 4.5c0 8.956-18.358-6.5-9-6.5v-4l-6.5 8-4 2c-2.843-1.422-5.5-9.763-5.5-13h-2v2l3 7c1.415 0 1.474 5 7 5 0-2.029 5 .182 5 1h1Z"/><path fill="#CBC9CB" id="scp" d="M276 169c3.677 0 18.023 12.239 20.5 11 .19-.095-8.474-10-10.5-10-6.21 0-15-8.657-15-15-4.749 0-4 4.951-4 10h1l3 1 5 3Z"/><path fill="#FF9B88" id="P" d="M185 157c0 5.385-8.814 12-14 12 0-2.797 7.584-7.042 9.5-8l4.5-6v2ZM271 155l3.5 4c2.726 2.726 11.5 7.496 11.5 11-6.21 0-15-8.657-15-15ZM244 169l-7.5 3-5.5-2v-5l1-2c1.916 0 .07-3 3-3v3c0 1.791-3.27 2.959-2 5.5 3.543 7.087 14.847-7.5 8-7.5v-4c2.337 0 5.615 10 12 10 0 2.787-2.571 1-4 1 0-2.029-5 .182-5 1Z"/><path fill="#CBC9CC" id="arb" d="M301 161c0-1.93 1.161 0 2 0l-1-2-2-2v4h1ZM154 160h2v-2l-2 2Z"/><path fill="#FF64FF" id="MB" d="M215 161h1l1-1v-1l-2-1v3ZM232 163l-1 2v-7c1.643 0 1 3.765 1 5ZM240 161h1v-3l-2 1 1 2Z"/><path fill="#FF9B88" id="P" d="m235 160 5 1-1-2c-1.145 0-4-.579-4 1Z"/><path fill="#CBC7CC" id="sctv" d="M146 176h1c0-2.103 3.18-9 6-9l1-2 2-4v-1h-2l-8 13v3Z"/><path fill="#FF9B88" id="P" d="M216 161h1v-1l-1 1Z"/><path fill="#FEB985" id="DTN" d="M217 161c0 1.638 3.576 2 5 2 0-3.714-1.744-3-5-3v1ZM240 161c0 1.014-3.959 2-5 2v-3l5 1Z"/><path fill="#CBC7CC" id="sctv" d="M313 180v1l-1-1-1-1v-1l-1-1c0-2.388-5.141-12-8-12l-1-3v-1c0-1.93 1.161 0 2 0 0 4.044 6 6.811 6 11l2 3v1l2 3v1Z"/><path fill="#FFBA84" id="PCG" d="M217 161c0 1.638 3.576 2 5 2l2 4.5c0 8.956-18.358-6.5-9-6.5h2ZM241 161c6.847 0-4.457 14.587-8 7.5-1.27-2.541 2-3.709 2-5.5 1.041 0 5-.986 5-2h1Z"/><path fill="#FF8FFD" id="MRN" d="m236 182 1 5c0 2.273 12.49 0 14.5 0 9.08 0 18.5-7.58 18.5-17 0-2.25-2-3.376-2-5h-1c-2.109 0-2-2.535-2-4-2.205 0-.002 3.251-1.5 4-1.65.825-7.5.268-7.5-2l-3 4c0 2.787-2.571 1-4 1l-5 1-6 6c8.35 0 0 5.073 0 2-2.496 0 .496 5-2 5Z"/><path fill="#FF9B88" id="P" d="M301 161v1l-1-1h1Z"/><path fill="#FF8FFD" id="MRN" d="M220 183v4c-14.147 0-34 .717-34-19l2-3h1c2.215 0 1.519-2 3-2 0 2.782 8 3.303 8 0 1.415 0 1.474 5 7 5l5 1h1l5 6c-5.4 0-4.295 2 1 2l1 6Z"/><path fill="#CBC9CC" id="arb" d="m154 165-1 2 1-2Z"/><path fill="#FF64FF" id="MB" d="m185 167 1 1 2-3c-1.238 0-3 .423-3 2ZM270 170h1v-4l-3-1c0 1.624 2 2.75 2 5Z"/><path fill="#CBC9CC" id="arb" d="M302 165c2.859 0 8 9.612 8 12-2.322 0-8-10.353-8-12Z"/><path fill="#FF9B88" id="P" d="M271 169h5l-5-3v3Z"/><path fill="#CBC9CC" id="arb" d="M147 176v1c1.442 0 6-8.625 6-10-2.82 0-6 6.897-6 9Z"/><path fill="#FF9B88" id="P" d="M184 198c0-22.167 26.836 0 33 0 0-3.982.585-8 5-8v-1l-2-2c-14.147 0-34 .717-34-19l-1-1c-1.048 0-3-.473-3 1 4.84 0 4.495 7.511 3 10.5l-9 7.5c6.187 0 7 6.028 7 11l1 1Z"/><path fill="#FF64FF" id="MB" d="m207 168 5 1c0-.818-5-3.029-5-1ZM249 168l-5 1c0-.818 5-3.029 5-1Z"/><path fill="#FF9B88" id="P" d="m182 168-1 1 1-1Z"/><path fill="#FF64FF" id="MB" d="M223 187h11c0-4.3-2.971-5 2-5 2.496 0-.496-5 2-5v-2l6-6-7.5 3-5.5-2c0 21.107-6 19.588-6 1l-5.5 1-6.5-3 5 6 1 2 1 6 1.5-2c2.167-1.084 1.5 4.918 1.5 6Z"/><path fill="#FF9B88" id="P" d="M273 194c-.122 0-7.835-8.332-14.5-5l-15 6-4.5 4c0-4.28.275-9-5-9v-1c2.215 0 1.519-2 3-2 0 2.273 12.49 0 14.5 0 9.08 0 18.5-7.58 18.5-17h1v7.5c1.329 2.658 10 7.101 10 8.5-4.328 0-8 3.698-8 8Z"/><path fill="#CBC9CC" id="arb" d="M309 172c1.577 0 2 1.762 2 3l-2-3Z"/><path fill="#F0F080" id="CB" d="M141 181h2v-1l1-2 1-1v-4l-4 8Z"/><path fill="#CBC9CC" id="arb" d="M145 176h1v-3h-1v3Z"/><path fill="#FC90FE" id="VTN" d="m218 175 1 2c-5.295 0-6.4-2-1-2ZM238 175c8.35 0 0 5.073 0 2v-2Z"/><path fill="#F0F080" id="CB" d="M126 209h1v-6c-3.476 0-1.052-7.603-2-9.5-1.339-2.677-6.848-7.305-5-11 2.693-5.386 15.46 1.5 19 1.5l2-2v-1l-5.5 1c-4.846-2.423-12.932-6-18.5-6v1c3.087 0 2 6.96 2 9 0 7.653 4 12.104 4 20 2.041 0 3 .959 3 3Z"/><path fill="#CBC7CC" id="sctv" d="M145 178h1v-2h-1v2Z"/><path fill="#F0F080" id="CB" d="M146 177h1v-1h-1v1Z"/><path fill="#CBC9CC" id="arb" d="M311 176c1.577 0 2 1.762 2 3l-2-3Z"/><path fill="#F0F080" id="CB" d="M339 177h1v-1l-1 1Z"/><path fill="#FFFC8D" id="PFL" d="M116 179c-3.638 0-5.929 2-9 2 0-5.897 6.371-3 9-3v1Z"/><path fill="#CBC9CC" id="arb" d="M116 179c2.213 0 1.075 7 3 7 0-2.04 1.087-9-2-9l-1 1v1ZM144 178h1v-1l-1 1Z"/><path fill="#FF9B88" id="P" d="m310 177 1 1-1-1Z"/><path fill="#CBC9CC" id="arb" d="M340 179c0 1.258-1.861 9-3 9l1-11h2v2Z"/><path fill="#FFFC8D" id="PFL" d="M340 179c3.447 0 6.245 2 9 2 0-6.18-6.196-3-9-3v1Z"/><path fill="#CBC9CC" id="arb" d="M143 180h1v-2l-1 2Z"/><path fill="#CBC7CC" id="sctv" d="M144 180h1v-2h-1v2Z"/><path fill="#FF9B88" id="P" d="m146 178-1 1v-1h1Z"/><path fill="#FEF991" id="FL" d="M109 224h1l1-1v-1l1-1c2.415 0 9-10.89 9-13l1-1 1-1c0-7.896-4-12.347-4-20-1.925 0-.787-7-3-7-3.638 0-5.929 2-9 2-13.75 0-12.2 44 0 44l2-1Z"/><path fill="#CBC9CC" id="arb" d="M311 180h1l-1-1v1Z"/><path fill="#FEF991" id="FL" d="m345 222 4 3c12.979 0 14.005-44 0-44-2.755 0-5.553-2-9-2 0 1.258-1.861 9-3 9 0 7.211-4 10.697-4 18 0 1.785 7.025 9.55 8 11.5l3 3.5 1 1Z"/><path fill="#CBC7CC" id="sctv" d="m144 180-1 1v-1h1Z"/><path fill="#FF9B88" id="P" d="m146 181-3 1v-1l1-1h1l1 1ZM329 214c-3.91 0-8.697 12-10 12 0-5.353 9.376-13.749 7-18.5-1.543-3.085-2.821-5.821-5.5-8.5l-3.5-4c0-2.482-.169-14-6-14v-1h1l1 1 2 1 2 2c0 7.716 12 15.129 12 19l1 5v2l-1 4Z"/><path fill="#CBC9CC" id="arb" d="m313 181 2 1-2-2v1Z"/><path fill="#CCCCCA" id="mcp" d="M139 189c-4.697 0-6.587 14-12 14-3.476 0-1.052-7.603-2-9.5-1.339-2.677-6.848-7.305-5-11 2.693-5.386 15.46 1.5 19 1.5 1.473 0 1 1.952 1 3l-1 2Z"/><path fill="#CBC9CC" id="arb" d="M141 182h2v-1h-2v1Z"/><path fill="#FEAD6E" id="KF" d="m152 196-3 1c0-6.968-7.329-2-10-2v-6l1-2c1.077 0 3-3.762 3-5l3-1c2.128 0 11 5.519 11 7 0 2.968-4 4.633-4 7l-1 1Z"/><path fill="#CBCBCC" id="mlf" d="m223 187-1 2-2-2v-4l1.5-2c2.167-1.084 1.5 4.918 1.5 6ZM234 188v1c2.215 0 1.519-2 3-2l-1-5c-4.971 0-2 .7-2 5v1Z"/><path fill="#FEAD6E" id="KF" d="M317 195c-2.592 0-9-5.107-9 2l-4-2c-1.466 0-4-4.201-4-6v-1c0-2.589 8.969-7 11-7 5.831 0 6 11.518 6 14Z"/><path fill="#CCCCCA" id="mcp" d="M317 184c2.511 0 17.757-4.986 19-2.5 2.518 5.037-3.254 9.509-5 13-.952 1.904 1.801 8.5-2 8.5 0-3.871-12-11.284-12-19Z"/><path fill="#FF9B88" id="P" d="M139 184c1.473 0 1 1.952 1 3 1.077 0 3-3.762 3-5h-2l-2 2Z"/><path fill="#FEBA86" id="SUT" d="M154 202h1c0-5.486 10.863-5 15-5 0-5.223 11.633 0 13 0 0-4.972-.813-11-7-11-6.272 0-12.208 2-19 2 0 2.968-4 4.633-4 7l-1 1 1 5 1 1ZM304 201l-2 1-5.5-5H287l-2.5-2c-3.745-1.873-7.738 2-10.5 2l-1-1v-2c0-4.302 3.672-8 8-8 5.819 0 11.674 2 18 2l1 1c0 1.799 2.534 6 4 6v6Z"/><path fill="#FF9B88" id="P" d="m140 187-1 2 1-2ZM234 188c-4.639 0-7.96 1-12 1l1-2h11v1Z"/><path fill="#FFC294" id="RPO" d="M227 216c0-2.389 1-5.987 1-9l.5-6 .5 15c8.516 0 5-20.998 5-26v-2c-4.639 0-7.96 1-12 1v1c0 4.861-1.451 26 5 26Z"/><path fill="#FF9B88" id="P" d="M300 188v1l-1-1h1ZM128 214l3 3.5c1.127 2.254 4.543 5.086 6 8 2.231 4.463-3.939 27.5 7 27.5 0-1.619-5.122-6.744-6-8.5l1-16-8-16c-4.109-8.219 8-12.584 8-17.5v-6c-4.697 0-6.587 14-12 14v6c0 1.235-.643 5 1 5Z"/><path fill="#FDBA86" id="PRNc" fill-rule="evenodd" d="M211 211c0 4.473 2.05 11.6 4 15.5.476.953.372 4.5 2.5 4.5l-.5-6.5c0-5.345 1.438-13.5-6-13.5m-16 60 4 1c0-1.602-3.058-2.384-2-4.5 1.328-2.656 19.927-2.5 24-2.5 0-1.588 6.97-8.56 4-14.5-2.278-4.556-9.799-22.402-7-28 .901-1.802 2-6.594 2-8.5l-3-16c-6.164 0-33-22.167-33 0v23c0 5.106-4.673 22.845-7 27.5-1.923 3.846 1 11.024 1 14.5l3 3h2l12 5ZM243 211l-4 4.5v8.5l.5 7 2.5-6c0-3.995 7.064-14 1-14m16 60h2l13-5h1l3-3 1-1c0-7.908 1.311-18.879-2-25.5-2.107-4.214-5-11.687-5-16.5 0-3.202-2.735-9.03-1-12.5 1.101-2.203 2-8.154 2-10.5v-3c-.122 0-7.835-8.332-14.5-5l-15 6-4.5 4c0 5.297-2 9.474-2 15 0 9.879 2.511 20.477-2 29.5-.675 1.35-2.239 7.5-4 7.5v8c.81 0 4 5.219 4 6 7.012 0 24-2.446 24 6Z"/><path fill="#FFC393" id="CS" d="M220 214c1.063 0 7 4.687 7 2-6.451 0-5-21.139-5-26-4.415 0-5 4.018-5 8l3 16ZM237 214c-1.455 0-8 4.228-8 2 8.516 0 5-20.998 5-26 5.275 0 5 4.72 5 9 0 5.297-2 9.474-2 15Z"/><path fill="#FFAE6F" id="PSV" d="m144 253 5 2c13.336 0 7.359-17.781 4-24.5l-2-17.5v-3c-1.682 0-2-10.912-2-13 0-6.968-7.329-2-10-2 0 4.916-12.109 9.281-8 17.5l8 16-1 16c.878 1.756 6 6.881 6 8.5ZM311 254l-4 1c-13.044 0-7.337-16.825-4-23.5 2.259-4.518 2-12.096 2-17.5v-1c1.579 0 1-2.855 1-4 0-3.459 2-8.607 2-12 0-7.107 6.408-2 9-2l3.5 4c2.679 2.679 3.957 5.415 5.5 8.5 2.376 4.751-7 13.147-7 18.5-1.614 0-1 3.31-1 4.5V247l-1 1-1 1-1 1v1l-1 1-1 1h-1l-1 1Z"/><path fill="#FF9B88" id="P" d="m153 195-1 1 1-1Z"/><path fill="#FEB886" id="P5" d="M173 226c0 2.725-4 7.152-4 4 0-5.046 1.917-9.334 4-13.5 3.226-6.452-3-14.408-3-19.5 0-5.223 11.633 0 13 0l1 1v23l-3-1c-4.351 0-8-.657-8 6ZM283 226c0 2.645 4 7.553 4 3 0-5.003-1.908-10.317-4-14.5-3.099-6.197 4-13.704 4-17.5l-2.5-2c-3.745-1.873-7.738 2-10.5 2h-1c0 2.346-.899 8.297-2 10.5-1.735 3.47 1 9.298 1 12.5l3 1c0-5.287 8-.901 8 5Z"/><path fill="#FF9B88" id="P" d="M304 201c1.781 0 1 10.176 1 12 1.579 0 1-2.855 1-4 0-3.459 2-8.607 2-12l-4-2v6ZM153 201c-3.286 0-2 6.284-2 9-1.682 0-2-10.912-2-13l3-1 1 5ZM273 197h1l-1-1v1Z"/><path fill="#FEB986" id="V" d="m169 230-3 1c-5.227 0-6.361-14-11-14h-1l1-14v-1c0-5.486 10.863-5 15-5 0 5.092 6.226 13.048 3 19.5-2.083 4.166-4 8.454-4 13.5ZM292 229l-1 2-4-2c0-5.003-1.908-10.317-4-14.5-3.099-6.197 4-13.704 4-17.5h9.5l5.5 5v16c-5.197 0-3.534 10-9 10l-1 1Z"/><path fill="#FEB984" id="I5" d="m151 213 3 4 1-14-1-1-1-1c-3.286 0-2 6.284-2 9v3Z"/><path fill="#FF9B88" id="P" d="m225 264-4 1c0-1.588 6.97-8.56 4-14.5-2.278-4.556-9.799-22.402-7-28 .901-1.802 2-6.594 2-8.5 1.063 0 7 4.687 7 2 0-2.389 1-5.987 1-9l.5-6 .5 15c0 2.228 6.545-2 8-2 0 9.879 2.511 20.477-2 29.5-.675 1.35-2.239 7.5-4 7.5 0-2.103-2.93-7.64-5-3.5V263l-1 1Z"/><path fill="#FEB984" id="I5" d="M305 214c-3.027 0 1.888 2-3 2v-14l2-1c1.781 0 1 10.176 1 12v1Z"/><path fill="#FF9B88" id="P" d="M155 202v1l-1-1h1Z"/><path fill="#FEA4D2" id="VCO" d="M119 243c-.792 0-2 7.987-2 9-8.107 0-9-18.962-9-24l1-1v-2l1-1 1-1v-1l1-1c2.415 0 9-10.89 9-13l1-1 1-1c2.041 0 3 .959 3 3 0 8.46-7 21.193-7 29v5ZM338 243c0 3.447 2 6.245 2 9 3.388 0 8-10.589 8-14l1-1v-8l-1-1v-1l-1-1v-1l-1-1-1-2-1-1-3-3.5c-.975-1.95-8-9.715-8-11.5-1.747 0-2 .253-2 2l-1 1v1c1.381 0 1.413 6.327 2 7.5 2.478 4.956 5 14.866 5 20.5v1l1 2v2Z"/><path fill="#FF9BCD" id="MY" d="m122 207-1 1 1-1ZM331 208l-1 1v-1h1ZM122 259c0 4.202 6.279 4 9 4 0-2.313 1.452-5 4-5 0-.993-5.145-13.789-6-15.5-4.011-8.021-1-20.001-1-28.5-1.643 0-1-3.765-1-5h-1c0 8.46-7 21.193-7 29 3.464 0 4.502.504 6 3.5 4.367 8.733-6 8.707-6 1.5-.792 0-2 7.987-2 9l2 3c3.166 0 7.324 4 3 4ZM335 259c0 3.272-6.527 4-9 4 0-2.101-2.831-5-5-5l3-4.5 3-9c3.914-7.827 2-22.016 2-30.5l1-4c1.381 0 1.413 6.327 2 7.5 2.478 4.956 5 14.866 5 20.5-3.819 0-11.327 7.087-5.5 10 5.226 2.613 4.887-5 6.5-5 0 3.447 2 6.245 2 9l-3 3c-3.131 0-6.192 4-2 4Z"/><path fill="#C8C8CC" id="tspc" d="M211 211c0 4.473 2.05 11.6 4 15.5.476.953.372 4.5 2.5 4.5l-.5-6.5c0-5.345 1.438-13.5-6-13.5ZM243 211l-4 4.5v8.5l.5 7 2.5-6c0-3.995 7.064-14 1-14Z"/><path fill="#FF9B88" id="P" fill-rule="evenodd" d="m158 253-1 1.5c0 1.858 6.354-1.5 1-1.5m32 33-2 2c-4.177 0-25 .555-25-3 1.238 0 3 1.514 3 0 .338 0 9 3.779 9 1.5l-7.5-1.5c-1.407-.703-4.5-5.978-4.5-4-4.361 0-4.3-6.9-8.5-9-1.936-.968-5.195-.889-3.5 2.5l6 5.5c-7.103 0-14.066-17-26-17 0-2.313 1.452-5 4-5l9.5 5c2.016 1.008 11.701-2.098 10.5-4.5l-6-3.5c13.336 0 7.359-17.781 4-24.5l-2-17.5 3 4h1c0 6.465 1.377 10.254 4 15.5 2.384 4.767 7 2.903 7-1.5l3-1c0 3.152 4-1.275 4-4 7.549 0 8 2.917 8-6l3 1c0 5.106-4.673 22.845-7 27.5-1.923 3.846 1 11.024 1 14.5l-9.5-10-2.5 4c0-6.566-8.618 3.737-10 6.5-2.616 5.233 5 15.368 5 8.5 1.811 0 1.58 7 5 7 0 8.492 17.456 7 24 7Z"/><path fill="#C8CACA" id="sptV" d="m149 255 6 3.5c1.201 2.402-8.484 5.508-10.5 4.5l-9.5-5c0-.993-5.145-13.789-6-15.5-4.011-8.021-1-20.001-1-28.5l3 3.5c1.127 2.254 4.543 5.086 6 8 2.231 4.463-3.939 27.5 7 27.5l5 2Z"/><path fill="#FF9B88" id="P" fill-rule="evenodd" d="m297 252-1 2.5c0 2.613 6.449-2.5 1-2.5m-10 35c0 1.614-3.31 1-4.5 1H268l-2-2c6.027 0 25 1.441 25-7l4-6c0 6.16 7.499-4.503 5-9.5-1.436-2.873-9-13.357-9-6.5-2.342 0-1.602-4.949-3.5-4-2.62 1.31-3.836 9-8.5 9 0-7.908 1.311-18.879-2-25.5-2.107-4.214-5-11.687-5-16.5l3 1c0 6.365 2.838 5 8 5 0 2.645 4 7.553 4 3l4 2c0 13.401 11-6.34 11-13v-2c4.888 0-.027-2 3-2 0 5.404.259 12.982-2 17.5-3.337 6.675-9.044 23.5 4 23.5 0 2.635-3.97 1.44-5 3.5-1.495 2.99 8.386 5.557 10.5 4.5l8.5-5c2.169 0 5 2.899 5 5-9.721 0-16.319 12-21 12 0-11.414-8.369 6-11 6l-1 1c0-2.029-1-.058-1 1l-1 1c-2.212 0-2.212 1 0 1h2c0 1.995-4.377 2-6 2m0 0 2-1.5c0-.803-13.567 1.5-4.5 1.5h2.5Z"/><path fill="#C8CACA" id="sptV" d="M307 255c0 2.635-3.97 1.44-5 3.5-1.495 2.99 8.386 5.557 10.5 4.5l8.5-5 3-4.5 3-9c3.914-7.827 2-22.016 2-30.5-3.91 0-8.697 12-10 12v15.5c0 1.19.614 4.5-1 4.5v1l-1 1-1 1-1 1v1l-1 1-1 1h-1l-1 1-4 1Z"/><path fill="#FDB986" id="PC5" d="M155 217c4.639 0 5.773 14 11 14 0 4.403-4.616 6.267-7 1.5-2.623-5.246-4-9.035-4-15.5ZM292 229l-1 2c0 13.401 11-6.34 11-13-5.197 0-3.534 10-9 10l-1 1Z"/><path fill="#FDBA85" id="Acs5" d="M181 220c-4.351 0-8-.657-8 6 7.549 0 8 2.917 8-6ZM275 221c0 6.365 2.838 5 8 5 0-5.901-8-10.287-8-5Z"/><path fill="#F0F080" id="CB" d="m112 221-1 1 1-1Z"/><path fill="#FF9BCD" id="MY" d="m344 221 1 1-1-1Z"/><path fill="#F0F080" id="CB" d="M348 228h1v-3l-4-3 1 2 1 1v1l1 1v1Z"/><path fill="#FF9BCD" id="MY" d="m111 223-1 1 1-1Z"/><path fill="#F0F080" id="CB" d="M108 227h1v-3l-2 1 1 2Z"/><path fill="#FF9BCD" id="MY" d="m110 224-1 1v-1h1ZM346 224l1 1-1-1Z"/><path fill="#FF9B88" id="P" d="M319 226c-1.614 0-1 3.31-1 4.5V246c1.614 0 1-3.31 1-4.5V226Z"/><path fill="#FF9BCD" id="MY" d="m347 226 1 1-1-1ZM109 227l-1 1v-1h1Z"/><path fill="#FF9B88" id="P" d="m293 228-1 1 1-1Z"/><path fill="#FF9BCD" id="MY" d="M349 228v1l-1-1h1ZM349 237l-1 1 1-1Z"/><path fill="#C9CACB" id="vVIIIn" d="M119 238c3.464 0 4.502.504 6 3.5 4.367 8.733-6 8.707-6 1.5v-5ZM338 241v2c-1.613 0-1.274 7.613-6.5 5-5.827-2.913 1.681-10 5.5-10v1l1 2Z"/><path fill="#FF9BCD" id="MY" d="m337 239 1 2-1-2Z"/><path fill="#FFC5E2" id="RM" d="m226 272 4 1v-10l1-4v-8c0-2.103-2.93-7.64-5-3.5V272Z"/><path fill="#FF9B88" id="P" d="m318 247-1 1 1-1ZM316 249l-1 1 1-1ZM315 251l-1 1 1-1Z"/><path fill="#CCCCC7" id="VIIn" d="m297 252-1 2.5c0 2.613 6.449-2.5 1-2.5Z"/><path fill="#FF9B88" id="P" d="m314 252-1 1 1-1Z"/><path fill="#CCCCC7" id="VIIn" d="m158 253-1 1.5c0 1.858 6.354-1.5 1-1.5Z"/><path fill="#FEAE6E" id="SOCl" d="m181 276-4.5 4-10.5-1c-3.42 0-3.189-7-5-7 0-3.232 1.814-15 5-15l2.5-4 9.5 10 3 3v10ZM276 276c0 6.753 12.018 3 15 3l4-6v-9.5c-1.07-2.14-4-3.942-4-6.5-2.342 0-1.602-4.949-3.5-4-2.62 1.31-3.836 9-8.5 9l-1 1-3 3v1c0 3.013 1 6.611 1 9Z"/><path fill="#FF9B88" id="P" d="m312 253-1 1 1-1Z"/><path fill="#C8C8CB" id="rust" d="M166 257c-3.186 0-5 11.768-5 15 0 6.868-7.616-3.267-5-8.5 1.382-2.763 10-13.066 10-6.5ZM291 257c0 2.558 2.93 4.36 4 6.5v9.5c0 6.16 7.499-4.503 5-9.5-1.436-2.873-9-13.357-9-6.5Z"/><path fill="#C9CACB" id="vVIIIn" d="M119 255c3.166 0 7.324 4 3 4-2.098 0-3-1.939-3-4ZM337 255c-3.131 0-6.192 4-2 4 2.109 0 2-2.535 2-4Z"/><path fill="#FF9B88" id="P" d="m231 264 4 1c0-.781-3.19-6-4-6l-1 4 1 1ZM279 262l-1 1 1-1Z"/><path fill="#FF9BCD" id="MY" d="m225 264 1 1v-2l-1 1ZM231 264l-1 1v-2l1 1Z"/><path fill="#CACCC8" id="ml" d="M226 265v7c0 3.346-7.68 6.14-9 3.5-2.146-4.293 4-7.321 4-10.5l4-1 1 1ZM235 265c0 2.385 6.505 6.49 5 9.5-1.382 2.764-10 2.148-10-1.5v-8l1-1 4 1Z"/><path fill="#CCC7CB" id="tb" d="M221 287c3.05 0 6.113-3.694 9.5-2l4.5 2-2-5.5c2.582-5.164 10.402-1.5 14-1.5v-2l-4-4.5c0-4.378 10.654-.5 14-.5v-1l2-1c0-8.446-16.988-6-24-6 0 2.385 6.505 6.49 5 9.5-1.382 2.764-10 2.148-10-1.5l-4-1c0 3.346-7.68 6.14-9 3.5-2.146-4.293 4-7.321 4-10.5-4.073 0-22.672-.156-24 2.5-1.058 2.116 2 2.898 2 4.5l1 1c2.483 0 15.798-4.096 13 1.5l-4 3.5v2c2.565 0 18.133-3.766 14 4.5l-2 2.5Z"/><path fill="#FF9B88" id="P" d="m183 266-2 1v-1h2Z"/><path fill="#FFAD6E" id="SOCm" d="m195 280-1 1c-3.294 0-13-.206-13-5v-9l2-1 12 5 1 5v1l-1 2v1ZM261 279l1 2c6.481 0 12.586-5 14-5 0-2.389-1-5.987-1-9l-1-1-13 5v8Z"/><path fill="#FF9B88" id="P" d="M275 266v1l-1-1h1Z"/><path fill="#CBC7CC" id="sctv" d="M163 285c1.238 0 3 1.514 3 0-.966 0-3-2.886-3-4-4.361 0-4.3-6.9-8.5-9-1.936-.968-5.195-.889-3.5 2.5l6 5.5 1 1 4 4h1Z"/><path fill="#FF9B88" id="P" d="m199 273-3 3-1-5 4 1v1Z"/><path fill="#FEA3D2" id="NTB" d="m209 278-4.5 3c-3.473 1.736-7.052-2-8.5-2v-3l3-3h1c2.483 0 15.798-4.096 13 1.5l-4 3.5ZM260 277c0 9.019-9.783 1-13 1l-4-4.5c0-4.378 10.654-.5 14-.5h1l2 4Z"/><path fill="#FDBA86" id="PRNc" d="M257 272h1l1-1-2 1Z"/><path fill="#FF9B88" id="P" d="M260 277h1v-6h-2l-1 1v1l2 4Z"/><path fill="#CBC7CC" id="sctv" d="M293 285h1l1-1 1-1h1c0-1.747.253-2 2-2l1-1 1-1 1-1 1-1 1-1 1-1c0-11.414-8.369 6-11 6l-1 1-1 1-1 1v1h2Z"/><path fill="#FF9BCD" id="MY" d="M199 273h1l-1-1v1ZM257 273h1v-1h-1v1Z"/><path fill="#FF9B88" id="P" d="m305 275-1 1 1-1Z"/><path fill="#FEAD6F" id="POR" d="M190 286h2l1-1h1l1-1v-3h-1c-3.294 0-13-.206-13-5l-4.5 4-10.5-1c0 8.492 17.456 7 24 7ZM265 286h1c6.027 0 25 1.441 25-7-2.982 0-15 3.753-15-3-1.414 0-7.519 5-14 5h-1v3l1 1h1l2 1Z"/><path fill="#FF9B88" id="P" d="m304 276-1 1 1-1ZM195 279h1v-2l-1 2Z"/><path fill="#FF9BCD" id="MY" d="M261 284v1l-10-3-4-2v-2c3.217 0 13 8.019 13-1h1v7Z"/><path fill="#FF9B88" id="P" d="m303 277-1 1 1-1Z"/><path fill="#FF9BCD" id="MY" d="M195 284v1l10-3 4-2v-2l-4.5 3c-3.473 1.736-7.052-2-8.5-2h-1v5Z"/><path fill="#FF9B88" id="P" d="m302 278-1 1 1-1Z"/><path fill="#C7C9C9" id="py" d="M205 287h16l2-2.5c4.133-8.266-11.435-4.5-14-4.5l-4 2-2 3.5 2 1.5ZM235 287h17c0-2.413-1-3.51-1-5l-4-2c-3.598 0-11.418-3.664-14 1.5l2 5.5Z"/><path fill="#FF9B88" id="P" d="M261 281h1l-1-2v2ZM301 279l-1 1 1-1Z"/><path fill="#CCC7CB" id="tb" d="M163 281c0 1.114 2.034 4 3 4 .338 0 9 3.779 9 1.5l-7.5-1.5c-1.407-.703-4.5-5.978-4.5-4Z"/><path fill="#FF9B88" id="P" d="M194 281h1v-1l-1 1ZM300 280l-1 1 1-1ZM158 281l4 4-4-4Z"/><path fill="#CCC7CB" id="tb" d="m293 282-1 1c0-1.058 1-3.029 1-1Z"/><path fill="#FF9B88" id="P" d="M299 281c-1.747 0-2 .253-2 2l2-2Z"/><path fill="#CCC7CB" id="tb" d="M188 288h5l2-1h10l-2-1.5 2-3.5-10 3h-2l-1 1h-2l-2 2ZM263 288h5l-2-2h-1l-2-1h-2l-10-3c0 1.49 1 2.587 1 5h9l2 1ZM292 283l-1 1 1-1Z"/><path fill="#FF9B88" id="P" d="m296 283-1 1 1-1ZM194 285h1v-1l-1 1ZM261 285h1l-1-1v1Z"/><path fill="#CCC7CB" id="tb" d="M291 284c-2.212 0-2.212 1 0 1v-1Z"/><path fill="#FF9B88" id="P" d="m295 284-1 1 1-1ZM193 285l-1 1 1-1ZM263 285l2 1-2-1Z"/><path fill="#CCC7CB" id="tb" d="m287 287 2-1.5c0-.803-13.567 1.5-4.5 1.5h2.5Z"/><path fill="#FF9B88" id="P" d="m195 287-2 1 2-1Z"/><path fill="#FF9BCD" id="MY" d="M205 287h16c0 3.479-10.706 1.897-12.5 1-1.147-.574-4.5 1.064-4.5-1h1ZM235 287h17c0 1.715-17 3.533-17 0Z"/><path fill="#FF9B88" id="P" d="m261 287 2 1-2-1Z"/></svg>