<svg xmlns="http://www.w3.org/2000/svg" viewBox="0 0 456 320"><path fill="#1BA696" id="RSPagl1" d="m192 17-17 1v-4h17v3ZM265 17l16 1v-4h-17l1 3Z"/><path fill="#0A8589" id="VISpm1" d="m175 18-12 1v-4l12-1v4Z"/><path fill="#1BA598" id="RSPd1" d="m213 33-5 1c0-9.737-5.993-17-16-17v-3c11.387 0 21 7.152 21 19ZM243 33l6 2c0-11.07 4.17-18 16-18l-1-3c-10.686 0-21 7.723-21 19Z"/><path fill="#0A8589" id="VISpm1" d="m281 18 12 1 1-4-13-1v4Z"/><path fill="#098589" id="VISp1" d="m83 51 2 4c3.28 0 13.654-10.077 17.5-12 17.873-8.936 39.337-24 60.5-24v-4c-17.769 0-45.013 14.256-60.5 22-3.125 1.562-17.88 14-19.5 14ZM374 52l-3 3c-4.222 0-11.886-9.693-16.5-12-18.099-9.05-40.06-24-61.5-24l1-4c18.046 0 46.667 16.083 62.5 24 2.275 1.138 17.5 10.95 17.5 13Z"/><path fill="#1AA496" id="RSPagl2/3" d="M191 23c-5.998 0-10.447 2-16 2v-7l17-1c0 2.079-1 3.187-1 6Z"/><path fill="#1BA697" id="RSPd2/3" d="m207 35-8 2 2-3.5c2.341-4.682-6.544-10.5-10-10.5 0-2.813 1-3.921 1-6 10.007 0 16 7.263 16 17l-1 1ZM257 36v1l-8-2c0-11.07 4.17-18 16-18 0 2.124 1 4.436 1 6-9.283 0-9 6.66-9 13Z"/><path fill="#1AA496" id="RSPagl2/3" d="M282 25v1c-5.081 0-10.07-3-16-3 0-1.564-1-3.876-1-6l16 1 1 7Z"/><path fill="#08858B" id="VISpm2/3" d="M165 27h1l8-2h1v-7l-12 1 2 8ZM282 25c3.519 0 5.843 2 9 2l2-8-12-1 1 7Z"/><path fill="#0A828C" id="VISp2/3" d="m85 56 5 6c6.621 0 15.586-10.043 21.5-13 9.946-4.973 43.837-22 53.5-22l-2-8c-21.163 0-42.627 15.064-60.5 24-3.846 1.923-14.22 12-17.5 12v1ZM371 56l-5 6-17.5-11c-11.347-5.673-46.261-24-57.5-24l2-8c21.44 0 43.401 14.95 61.5 24 4.614 2.307 12.278 12 16.5 12v1Z"/><path fill="#1CA697" id="RSPagl5" d="M178 36h1c4.009 0 12-9.019 12-13-5.998 0-10.447 2-16 2l-1 1v1c0 3.547-4 6.7-4 10 .922 0 8-4.056 8-1Z"/><path fill="#1AA596" id="RSPd5" d="M199 37c-4.765 0-10.421 1.96-14.5 4-.959.48-4.5 1.57-4.5 0 0-2.688-1-3.418-1-5 4.009 0 12-9.019 12-13 3.456 0 12.341 5.818 10 10.5l-2 3.5ZM277 36v7c-6.128 0-13.475-7-20-7 0-6.34-.283-13 9-13 0 5.8 11 12.166 11 13Z"/><path fill="#1CA697" id="RSPagl5" d="M279 36c0-2.494 6.717 1 8 1 0-3.1-4-5.883-4-10l-1-1c-5.081 0-10.07-3-16-3 0 5.8 11 12.166 11 13h2Z"/><path fill="#09828B" id="VISpm4" d="M165 29h1c2.885 0 4.697-2 8-2v-2l-8 2-1 2Z"/><path fill="#1AA496" id="RSPagl2/3" d="m175 25-1 1v-1h1Z"/><path fill="#09828B" id="VISpm4" d="M291 27v2c-2.885 0-4.697-2-8-2l-1-1v-1c3.519 0 5.843 2 9 2Z"/><path fill="#0B848B" id="VISp4" d="M93 68h1c0-2.4 9.603-6.051 11.5-7 14.505-7.252 27.516-16.758 42-24 4.218-2.109 8.727-3.864 13-6 1.119-.56 4.5-.155 4.5-2l1-2h-1c-9.663 0-43.554 17.027-53.5 22-5.914 2.957-14.879 13-21.5 13v1c1.077 0 3 3.762 3 5Z"/><path fill="#088489" id="VISpm5" d="M169 37h1c0-3.3 4-6.453 4-10-3.303 0-5.115 2-8 2v9l3-1ZM287 37l4 1v-9c-2.885 0-4.697-2-8-2 0 4.117 4 6.9 4 10Z"/><path fill="#0B848B" id="VISp4" d="m366 63-3 4c-5.912 0-12.362-7.431-17.5-10l-40-21-14.5-7v-2c11.239 0 46.153 18.327 57.5 24L366 62v1Z"/><path fill="#088389" id="VISp5" d="m94 68 5 8 17.5-11c10.433-5.217 39.809-26 49.5-26V29h-1c0 1.845-3.381 1.44-4.5 2-4.273 2.136-8.782 3.891-13 6-14.484 7.242-27.495 16.748-42 24-1.897.949-11.5 4.6-11.5 7ZM363 68l-6 8-16.5-11c-12.443-6.221-24.58-13.79-37-20-3.629-1.815-8.311-6-12.5-6V29l14.5 7 40 21c5.138 2.569 11.588 10 17.5 10v1Z"/><path fill="#1BA597" id="RSPv1" d="m164 67 2 2 10.5-10 15-10c7.42-3.71 21.5-4.333 21.5-16l-5 1-1 1c0 1.946-27.797 19.648-32.5 22L164 67ZM292 67l-1 2c-4.573 0-7.682-8.59-12.5-11l-14-9c-6.632-3.316-21.5-5.428-21.5-16l6 2c0 3.417 8.329 6.915 10.5 8 5.402 2.701 32.5 17.334 32.5 24Z"/><path fill="#1CA597" id="RSPagl6a" d="M166 41c-1.02 0-5 5.575-5 7l4-3.5 13-8.5c0-3.056-7.078 1-8 1h-1l-3 4Z"/><path fill="#1AA597" id="RSPv2/3" d="m162 65 2 2 10.5-10c4.703-2.352 32.5-20.054 32.5-22l-8 2c0 2.058-6.918 5.209-8.5 6-7.028 3.514-20.269 11.038-23.5 17.5l-5 4.5ZM295 65l-3 2c0-6.666-27.098-21.299-32.5-24-2.171-1.085-10.5-4.583-10.5-8l8 2 6.5 5c7.942 3.971 15.716 11.358 23 15l8.5 8Z"/><path fill="#1CA597" id="RSPagl6a" d="M297 51h1c0-4.62-7-6.328-7-10l-4-4c-1.283 0-8-3.494-8-1 0 2.022 18 9.963 18 15Z"/><path fill="#1AA697" id="RSPd6a" d="M159 51c1.747 0 2 .253 2 2 5.57 0 9.077-8 15-8l1-1 1-1h1v-1l1-1c0-2.688-1-3.418-1-5h-1l-13 8.5-4 3.5-1 1-1 1v1Z"/><path fill="#1BA498" id="RSPv5" d="m299 61-4 4-8.5-8c-7.284-3.642-15.058-11.029-23-15l-6.5-5v-1c6.525 0 13.872 7 20 7h1l5 4.5c1.459 2.918 12.148 13.5 16 13.5Z"/><path fill="#1AA697" id="RSPd6a" d="m297 51-2 1c-6.158 0-11.401-9-17-9h-1v-7h2c0 2.022 18 9.963 18 15Z"/><path fill="#09858B" id="VISpm6a" d="M166 39v2l3-4-3 1v1Z"/><path fill="#1BA498" id="RSPv5" d="m158 61 4 4 5-4.5c3.231-6.462 16.472-13.986 23.5-17.5 1.582-.791 8.5-3.942 8.5-6-4.765 0-10.421 1.96-14.5 4-.959.48-4.5 1.57-4.5 0l-1 1c1.186 0 1.186 1 0 1h-1l-1 1-1 1c0 1.01-16.95 16-18 16Z"/><path fill="#09858B" id="VISpm6a" d="M291 39v2l-4-4 4 1v1Z"/><path fill="#08858C" id="VISp6a" d="M103 83h2c0-1.617 4.583-4 6-4 0-.996 16.772-12 19-12 0-1.577 1.762-2 3-2 0-2.268 8.031-6 10-6 0-1.948 5.428-4 7-4 0-2.447 6.063-4 8-4h1v-1l1-1 1-1c0-1.425 3.98-7 5-7v-2c-9.691 0-39.067 20.783-49.5 26L99 76v1l4 6ZM357 77c0 1.417-2.383 6-4 6-2.828 0-5.994-4.747-8.5-6-11.651-5.826-22.355-14.178-34-20-3.642-1.821-7.209-6-11.5-6h-1c0-4.62-7-6.328-7-10v-2c4.189 0 8.871 4.185 12.5 6 12.42 6.21 24.557 13.779 37 20L357 76v1Z"/><path fill="#1AA596" id="RSPd5" d="M179 42c1.186 0 1.186 1 0 1v-1Z"/><path fill="#1AA498" id="RSPv6a" d="m178 43-1 1 1-1ZM300 60l-1 1c-3.852 0-14.541-10.582-16-13.5l-5-4.5c5.599 0 10.842 9 17 9l1 1 1 1v1l3 5ZM177 44l-1 1 1-1Z"/><path fill="#FF7AFD" id="SCzo" d="m294 81 1 1v-4l-2-2v-1l-13.5-14-12-8c-6.76-3.38-14.254-5.627-21-9-3.829-1.915-15.689 7.877-17.5 11.5l-.5 4.5-2-6c-5.091-5.091-13.719-12.64-21-9l-20 10-12 9-8.5 9-1 1v1l-1 1-1 1-1 2v3l2-1c0-7.046 8.571-12.071 13-16.5 11.16-11.16 39.547-27.906 50-7V69c0 1.821 4 3.118 4 1 0-4.43-.858-10.783 1-14.5l5.5-4.5 6-4c8.115-4.058 28.252 11.626 35 15 5.561 2.78 16.5 12.237 16.5 19Z"/><path fill="#1AA498" id="RSPv6a" d="M156 61h2c1.05 0 18-14.99 18-16-5.923 0-9.43 8-15 8l-1 1-1 1c0 2.364-3 3.053-3 5v1Z"/><path fill="#FF78FF" id="SCsg" d="M226 69c-2.255 0-7.886-15.807-17.5-11l-30 13L163 81c0-7.046 8.571-12.071 13-16.5 11.16-11.16 39.547-27.906 50-7V69ZM230 70c1.979 0 8.36-17.07 18.5-12 10.782 5.391 22.177 9.588 33 15 4.048 2.024 8.181 8 12.5 8 0-6.763-10.939-16.22-16.5-19-6.748-3.374-26.885-19.058-35-15l-6 4-5.5 4.5c-1.858 3.717-1 10.07-1 14.5Z"/><path fill="#1CA597" id="RSPagl6a" d="m161 48-1 1 1-1ZM160 49l-1 1 1-1Z"/><path fill="#09848A" id="VISl1" d="M67 73h1c0-2.14 15.257-17 17-17v-1l-2-4c-1.184 0-18 17.705-18 19 0 1.481 2 .785 2 3Z"/><path fill="#08858A" id="VISp6b" d="M158 52c-2.892 0-4.781 3-8 3 0-2.447 6.063-4 8-4v1Z"/><path fill="#1AA598" id="RSPagl6b" d="M158 52h1v-1h-1v1Z"/><path fill="#1BA698" id="RSPd6b" d="M160 53h1c0-1.747-.253-2-2-2v1l1 1ZM296 53h1l1-1v-1h-1l-2 1 1 1Z"/><path fill="#1AA598" id="RSPagl6b" d="M298 52h1v-1h-1v1Z"/><path fill="#08858A" id="VISp6b" d="M353 84v1l-36-23-1-1h-2c0-1.813-15-8.8-15-9v-1c4.291 0 7.858 4.179 11.5 6 11.645 5.822 22.349 14.174 34 20 2.506 1.253 5.672 6 8.5 6v1Z"/><path fill="#C9C9CA" id="scwm" d="m142 61 2 1c5.133 0 8.806-7 15-7l1-1v-1l-1-1h-1c-2.892 0-4.781 3-8 3 0 1.948-5.428 4-7 4l-1 2ZM314 61l-1 1c-4.269 0-9.596-7-16-7v-2l1-1h1c0 .2 15 7.187 15 9Z"/><path fill="#09848A" id="VISl1" d="m392 70-3 2c-3.131 0-12.868-16-18-16v-1l3-3c1.729 0 14.151 12.802 15 14.5l3 3.5Z"/><path fill="#1AA697" id="RSPd6a" d="m161 53-1 1v-1h1ZM297 53v1l-1-1h1Z"/><path fill="#C8C9CA" id="fp" d="m160 54-1 1 1-1Z"/><path fill="#08858A" id="VISp6b" d="M150 55c-1.572 0-7 2.052-7 4 1.572 0 7-2.052 7-4Z"/><path fill="#C8C9CA" id="fp" d="M74 117h1l2-1 1-1c0-1.429 1.288-4 3-4l2-2 2-2 2-2 2-1 1-1 1-1 2-1c0-1.747.253-2 2-2 0-1.577 1.762-2 3-2 0-1.577 1.762-2 3-2l14-7c0-4.028 18.206-16.853 22.5-19 .686-.343 7.5-4.185 7.5-1h1l9-7 1-1c0-1.947 3-2.636 3-5-6.194 0-9.867 7-15 7-1.591 0-12.439 9.47-15.5 11-11.101 5.55-20.835 14.418-32 20l-8 8c-2.848 1.424-14.5 13.234-14.5 16ZM382 117v1l-7.5-9c-10.092-5.046-21.725-21-33.5-21 0-5.57-12.439-12.97-16.5-15l-9-6c-.945-.472-3.5-.156-3.5 1l-3-1c-3.622 0-5.534-7-9-7l-3-5c6.404 0 11.731 7 16 7 0 1.719 15.272 10.886 17.5 12 14.309 7.154 28.516 17.516 40 29 3.291 3.291 11.5 9.426 11.5 14Z"/><path fill="#0A8489" id="VISl2/3" d="M72 78h1c0-.794 15.609-15 17-15v-1l-5-6c-1.743 0-17 14.86-17 17l4 5ZM383 78h1l5-5v-1c-3.131 0-12.868-16-18-16l-5 6v1c1.445 0 17 13.13 17 15Z"/><path fill="#FD7AFF" id="SCop" d="M162 85c4.051 0 8.636-6.068 12.5-8 5.598-2.799 11.335-5.168 17-8l9-2c2.403-1.201 10.027-4.487 13-3l11 11c2.547 1.273 2.278-2.86 4-2 .997.499.742 3.129 3 2 6.561-3.28 7.79-14.605 17-10h4c9.603 4.802 20.376 7.188 30 12 3.828 1.914 8.076 8 12.5 8v-3l-1-1c-4.319 0-8.452-5.976-12.5-8-10.823-5.412-22.218-9.609-33-15-10.14-5.07-16.521 12-18.5 12 0 2.118-4 .821-4-1-2.255 0-7.886-15.807-17.5-11l-30 13L163 81l-2 1v2l1 1Z"/><path fill="#08858A" id="VISp6b" d="M142 61c-3.54 0-5.131 4-9 4 0-2.268 8.031-6 10-6l-1 2Z"/><path fill="#7DCD4B" id="HPF" d="M155 61h1v-1l-1 1Z"/><path fill="#47C83C" id="POST" d="M315 109h16c0-1.597-5-10.35-5-16l-2-3-3-3-1-1-4-8-1-1-1-3-1-1v-2l-4-4c-3.622 0-5.534-7-9-7l-1 1-4 4-3 2-1 2c0 2.483 2 4.026 2 6v1l2 2v1l4 7v1l2 2 2 3 1 2 1 1 3 5 1 1v1l6 7Z"/><path fill="#CBC9C7" id="or" d="M69 121v2l5-6c0-2.766 11.652-14.576 14.5-16l8-8c11.165-5.582 20.899-14.45 32-20 3.061-1.53 13.909-11 15.5-11l-2-1c-3.54 0-5.131 4-9 4 0 2.293-.997 2-3 2 0 1.17-16.718 12-19 12 0 2.275-3.756 4-6 4 0 1.747-.253 2-2 2L88 97c-3.165 0-5.138 8-9 8 0 1.747-.253 2-2 2l-4 8-2 2-1 2-1 2Z"/><path fill="#47C83C" id="POST" d="M125 109h16l6-6v-1l1-1v-1l1-1v-1l1-1 1-1 1-1v-1l1-1 1-1 1-1v-1l1-1 1-1v-1l1-1 3-6v-1l1-2 1-1 1-1v-1l1-1 1-4-2-2-2-2-4-4h-3l-9 7-1 1-1 2-1 1v2l-1 1-1 1v2l-1 1-1 3-1 1-3 5-1 1-1 1-1 1-2 2-1 10.5-4 5.5Z"/><path fill="#CBC9C7" id="or" d="M396 140c0 1.564 1 3.876 1 6-3.226 0-1.231-3.962-2-5.5-1.534-3.069-10.607-23.5-13-23.5 0-4.574-8.209-10.709-11.5-14-11.484-11.484-25.691-21.846-40-29-2.228-1.114-17.5-10.281-17.5-12l1-1h2l1 1 36 23 15 11 9 9 7 10c0 2.165 4.765 12 7 12v1l2 3v1l1 1v1l1 1v3l1 1v1Z"/><path fill="#C9C9CA" id="scwm" d="m316 61 1 1-1-1Z"/><path fill="#08828B" id="VISl4" d="M75 81h1l17-13c0-1.238-1.923-5-3-5-1.391 0-17 14.206-17 15l2 3ZM380 81h1c1.577 0 2-1.762 2-3 0-1.87-15.555-15-17-15l-3 4v1c4.024 0 14.816 13 17 13Z"/><path fill="#FF90FF" id="SCig" d="m301 119 6 1c0-.564 3-7.063 3-12v-1l-1-2v-2c-.536 0-11.152-18-14-18-4.424 0-8.672-6.086-12.5-8-9.624-4.812-20.397-7.198-30-12h-4c-9.21-4.605-10.439 6.72-17 10-2.258 1.129-2.003-1.501-3-2-1.722-.86-1.453 3.273-4 2l-11-11c-2.973-1.487-10.597 1.799-13 3l-9 2c-5.665 2.832-11.402 5.201-17 8-3.864 1.932-8.449 8-12.5 8l-3 2-2 2c0 1.747-.253 2-2 2v1l-1 1-1 1-1 1-1 2c0 1.238-.423 3-2 3l-1 2-1 2v2c0 1.048.473 3-1 3v2c0 2.104 1.321 7.91 3.5 9 1.43.715 5.5-.722 5.5-2 0-20.467 23.527-29.013 39.5-37 3.347-1.673 10.58-8.21 15-6 5.163 2.582 9.197 7.598 14 10 2.826 1.413 4.157-.421 7 1 1.774.887 13.269-13.866 19-11 6.056 3.028 12.923 4.962 19 8l16 11c10.795 5.398 16.5 12.531 16.5 25Z"/><path fill="#08858A" id="VISp6b" d="M133 65c-1.238 0-3 .423-3 2 2.003 0 3 .293 3-2ZM130 67c-2.228 0-19 11.004-19 12 2.282 0 19-10.83 19-12Z"/><path fill="#C9CCC9" id="dhc" d="M132 91c-1.048 0-3-.473-3 1l-6-1c0-2.775-5.412-3-8-3 0-4.028 18.206-16.853 22.5-19 .686-.343 7.5-4.185 7.5-1v1l-1 2-1 1v2l-1 1-1 1v2l-1 1-1 3-1 1-3 5-1 1-1 1-1 1Z"/><path fill="#7DCD4B" id="HPF" d="m312 68 1 3-4-4 3 1Z"/><path fill="#C9CCC9" id="dhc" d="m333 91-5 1-4-2-3-3-1-1-4-8-1-1-1-3-1-1v-2l-1-3c0-1.156 2.555-1.472 3.5-1l9 6c4.061 2.03 16.5 9.43 16.5 15-1.968 0-8 .361-8 3Z"/><path fill="#0B858B" id="VISl5" d="M76 81c0 2.233 5.192 8 7 8 3.095 0 10.645-12 16-12v-1l-5-8h-1L76 81Z"/><path fill="#7DCD4B" id="HPF" d="m146 68-1 1v-1h1Z"/><path fill="#0B858B" id="VISl5" d="M380 81c0 1.937-4.74 8-6 8-4.164 0-11.206-12-17-12v-1l6-8c4.024 0 14.816 13 17 13Z"/><path fill="#7DCD4B" id="HPF" d="m145 69-1 2 1-2Z"/><path fill="#0C858C" id="VISli1" d="M59 83h1l7-10c0-2.215-2-1.519-2-3-1.875 0-9 8.374-9 10l3 3ZM401 80l-4 2-8-9v-1l3-2 9 10Z"/><path fill="#7DCD4B" id="HPF" d="m144 71-1 1 1-1Z"/><path fill="#0A858A" id="VISli2/3" d="M64 88h1l7-10-4-5h-1l-7 10 4 5Z"/><path fill="#7DCD4B" id="HPF" d="m313 73 1 1-1-1Z"/><path fill="#0A858A" id="VISli2/3" d="m397 83-5 5-8-10 5-5 8 9v1Z"/><path fill="#7DCD4B" id="HPF" d="m143 74-1 1 1-1ZM142 75l-1 1 1-1Z"/><path fill="#FF90FE" id="SCiw" d="M169 121c0-3.401 13.96-14.46 17.5-18 7.063-7.063 14.682-13.841 23-18 4.736-2.368 16.572 5.214 19 4 9.328-4.664 16.919-4.54 26 0l6 6c3.109 1.554 9.168 6.836 10.5 9.5 1.791 3.582 16 11.638 16 16.5l7.5 1 6.5-3c0-12.469-5.705-19.602-16.5-25l-16-11c-6.077-3.038-12.944-4.972-19-8-5.731-2.866-17.226 11.887-19 11-2.843-1.421-4.174.413-7-1-4.803-2.402-8.837-7.418-14-10-4.42-2.21-11.653 4.327-15 6-15.973 7.987-39.5 16.533-39.5 37l7.5 4 6.5-1Z"/><path fill="#08848C" id="VISl6a" d="m83 90 4 5c5.504 0 10.128-11 16-11v-1l-4-6c-5.355 0-12.905 12-16 12v1Z"/><path fill="#7DCD4B" id="HPF" d="m315 77 1 1-1-1Z"/><path fill="#08848C" id="VISl6a" d="m374 90-5 5c-5.35 0-9.552-11-16-11v-1c1.617 0 4-4.583 4-6 5.794 0 12.836 12 17 12v1Z"/><path fill="#08828C" id="VISli4" d="m65 88 2 2c2.165 0 8-7.875 8-9l-2-3h-1l-7 10Z"/><path fill="#7DCD4B" id="HPF" d="m141 78-1 1 1-1Z"/><path fill="#08828C" id="VISli4" d="m392 89-3 1-8-9c1.577 0 2-1.762 2-3h1l8 10v1Z"/><path fill="#08858A" id="VISp6b" d="M111 79c-1.417 0-6 2.383-6 4 2.244 0 6-1.725 6-4Z"/><path fill="#15B0B3" id="TEa1" d="m31 143-4 1c0-24.007 7.496-29.493 17-48.5.97-1.938 10.558-15.5 12-15.5l3 3-14 18.5c-6.523 13.045-14 25.773-14 41.5ZM425 143l4 1c0-17.112-5.004-28.508-12-42.5-2.104-4.208-16-18.928-16-21.5l-4 2v1c2.009 0 8.057 9.613 9 11.5 8.923 17.847 19 26.107 19 48.5Z"/><path fill="#0A848A" id="VISli5" d="M74 99h1c0-1.675 6.062-9 8-9v-1c-1.808 0-7-5.767-7-8h-1c0 1.125-5.835 9-8 9v1l2 2 1 1v1c1.365 0 4 2.366 4 4ZM381 99h1l5-5c0-2.215 2-1.519 2-3v-1l-8-9h-1c0 1.937-4.74 8-6 8v1c1.072 0 7 7.403 7 9Z"/><path fill="#7DCD4B" id="HPF" d="m139 82-1 1 1-1Z"/><path fill="#16AFB3" id="TEa2/3" d="M39 141c-3.227 0-4.574 2-8 2 0-15.727 7.477-28.455 14-41.5L59 83h1l4 5c0 2.929-10.063 11.625-12 15.5-6.501 13.002-13 21.509-13 37.5Z"/><path fill="#08858A" id="VISp6b" d="M103 84v1c1.747 0 2-.253 2-2h-2v1Z"/><path fill="#16AFB3" id="TEa2/3" d="m418 141 7 2c0-22.393-10.077-30.653-19-48.5-.943-1.887-6.991-11.5-9-11.5l-5 5v1c3.127 0 6.525 8.025 8.5 10 10.342 10.342 17.5 27.146 17.5 42Z"/><path fill="#09858C" id="VISl6b" d="m87 96 1 1 15-12v-1c-5.872 0-10.496 11-16 11v1Z"/><path fill="#C7CBCB" id="bsc" d="M159 86v1l3-2-1-1-2 2ZM309 102v1c-.536 0-11.152-18-14-18v-1l2 1 2 2v1l4 4 1 2 1 1 3 5 1 1v1Z"/><path fill="#09858C" id="VISl6b" d="M368 96h1v-1c-5.35 0-9.552-11-16-11v1l15 11Z"/><path fill="#FF8FFF" id="SCdg" d="M264 121c0 7.391 23 3.048 23 0 0-4.862-14.209-12.918-16-16.5-1.332-2.664-7.391-7.946-10.5-9.5l-6-6c-9.081-4.54-16.672-4.664-26 0-2.428 1.214-14.264-6.368-19-4-8.318 4.159-15.937 10.937-23 18-3.54 3.54-17.5 14.599-17.5 18 .402 0 3.43 2.465 4.5 3 3.546 1.773 18.5 2.794 18.5-3 0-10.587 8.483-22.491 17.5-27 4.809-2.405 10.877 0 16 0l17-1c11.469 5.735 21.5 14.868 21.5 28Z"/><path fill="#CAC7CB" id="fiber tracts" d="M299 86v1l-2-2 2 1ZM158 87h1v-1h-1v1Z"/><path fill="#7DCD4B" id="HPF" d="m320 86 1 1-1-1Z"/><path fill="#C7CBCB" id="bsc" d="M157 88v1l2-2h-2v1Z"/><path fill="#15B0B2" id="TEa4" d="M39 141h2c0-11.665 7.131-21.763 12-31.5l6-7c.94-1.882 5.931-11.5 8-11.5v-1l-2-2h-1c0 2.929-10.063 11.625-12 15.5-6.501 13.002-13 21.509-13 37.5Z"/><path fill="#C7C8CC" id="alv" d="M123 91c0 1.054-8.462-1.019-10.5 0-3.223 1.612-7.729 4-11.5 4l14-7c2.588 0 8 .225 8 3Z"/><path fill="#7DCD4B" id="HPF" d="m135 88-1 1 1-1Z"/><path fill="#CAC7CB" id="fiber tracts" d="M156 89h1v-1l-1 1ZM301 89l2 3-4-4 2 1Z"/><path fill="#C7C8CC" id="alv" d="m382 118 7 14-6-10.5c-2.609-5.218-19.98-23.5-25-23.5 0-3.429-14.08-7-17-7-1.949 0-8 .402-8 0 0-2.639 6.032-3 8-3 11.775 0 23.408 15.954 33.5 21l7.5 9Z"/><path fill="#CAC7CB" id="fiber tracts" d="m156 89-1 1 1-1Z"/><path fill="#C7CBCB" id="bsc" d="M155 90v1c1.747 0 2-.253 2-2h-1l-1 1Z"/><path fill="#15B0B2" id="TEa4" d="M415 141h3c0-14.854-7.158-31.658-17.5-42-1.975-1.975-5.373-10-8.5-10l-3 1v1c2.308 0 7.059 8.619 8 10.5 6.865 13.731 18 22.812 18 39.5Z"/><path fill="#088488" id="VISli6a" d="m75 99 4 4 8-7v-1l-4-5c-1.938 0-8 7.325-8 9Z"/><path fill="#7DCD4B" id="HPF" d="m133 90-1 1 1-1ZM328 92l-2 1-2-3 4 2Z"/><path fill="#088488" id="VISli6a" d="m381 99-4 4-8-7v-1l5-5c1.072 0 7 7.403 7 9Z"/><path fill="#15AFB3" id="TEa5" d="M52 141h1c0-10.297 5.738-17.976 10-26.5.791-1.582 3.942-8.5 6-8.5v-1c-.098 0-1.119-10 1-10v-1l-1-1-2-2c-2.069 0-7.06 9.618-8 11.5l-6 7c-4.869 9.737-12 19.835-12 31.5h11Z"/><path fill="#4FC244" id="SUB" d="m113 122-2 1-3-5.5c-2.765-5.53-9-14.146-9-20.5l2-2c3.771 0 8.277-2.388 11.5-4 2.038-1.019 10.5 1.054 10.5 0l6 1 1 1-1 10.5-4 5.5-3 3.5c-1.87 1.87-7 6.091-7 8.5l-2 1Z"/><path fill="#7DCD4B" id="HPF" d="m129 92 1 1 2-2c-1.048 0-3-.473-3 1Z"/><path fill="#CAC7CB" id="fiber tracts" d="M154 92h1v-1l-1 1Z"/><path fill="#4FC244" id="SUB" d="M344 123h1c2.203 0 2.344-4.189 3-5.5l8-15c.465-.93.817-4.5 2-4.5 0-3.429-14.08-7-17-7-1.949 0-8 .402-8 0l-5 1-2 1c0 5.65 5 14.403 5 16l13 14Z"/><path fill="#15AFB3" id="TEa5" d="M404 141h11c0-16.688-11.135-25.769-18-39.5-.941-1.881-5.692-10.5-8-10.5 0 1.481-2 .785-2 3v11l1 1v1c2.825 0 4.155 5.81 5 7.5 4.232 8.464 11 16.385 11 26.5Z"/><path fill="#CAC7CB" id="fiber tracts" d="M153 93h1v-1l-1 1Z"/><path fill="#C7CBCB" id="bsc" d="m155 92-1 1v-1h1Z"/><path fill="#0B838A" id="VISpor5" d="m69 93 1 1-1-1Z"/><path fill="#CAC7CB" id="fiber tracts" d="M152 94h1v-1l-1 1Z"/><path fill="#C7CBCB" id="bsc" d="m154 93-1 1v-1h1Z"/><path fill="#FF8FFE" id="SCdw" d="M262 121h2c0-13.132-10.031-22.265-21.5-28l-17 1c-5.123 0-11.191-2.405-16 0-9.017 4.509-17.5 16.413-17.5 27h3c0-12.975 12.047-21.274 21.5-26l13 1c4.754 0 9.815-2.093 14 0 7.898 3.95 18.5 15.314 18.5 25Z"/><path fill="#C7CBCB" id="bsc" d="m153 94-1 1v-1h1Z"/><path fill="#CAC7CB" id="fiber tracts" d="m304 94 1 1-1-1Z"/><path fill="#0B838A" id="VISpor5" d="m382 99 5 5V94l-5 5ZM74 99l-5 6c-.098 0-1.119-10 1-10 1.365 0 4 2.366 4 4Z"/><path fill="#C7C8CC" id="alv" d="M98 97h1l2-2c-1.238 0-3 .423-3 2Z"/><path fill="#C7CBCB" id="bsc" d="M151 96v1l1-2-1 1Z"/><path fill="#FC8FFF" id="PAG" fill-rule="evenodd" d="m234 137 3 2.5v3c3.623 7.247 11.245-5.5-3-5.5m-14 0c0 1.239-11.351 4.074-5.5 7 3.47 1.735 8.592-7 5.5-7m19 12h4l1-1 1-1c1.469 0 7.155-9.81 8-11.5l8-7.5c0-1.819 1-4.591 1-7 0-9.686-10.602-21.05-18.5-25-4.185-2.093-9.246 0-14 0l-13-1c-9.453 4.726-21.5 13.025-21.5 26v7l4.5 5c3.989 1.994 11.282 15 13.5 15l4 1c2.275 0 3.514-1 6-1l3-3c0-7.373 1-15.242 1-22l-1-1.5c0-5.755 6.637 1.5 3 1.5 0 7.216 2 14.93 2 23v1l2 1c3.39 0 5.021 1 6 1Z"/><path fill="#08818B" id="VISli6b" d="M79 104v1c3.862 0 5.835-8 9-8l-1-1-8 7v1Z"/><path fill="#CAC7CB" id="fiber tracts" d="M150 97h1v-1l-1 1Z"/><path fill="#08818B" id="VISli6b" d="M377 104v1l-9-9h1l8 7v1Z"/><path fill="#C7C8CC" id="alv" d="M98 97c-1.238 0-3 .423-3 2 1.238 0 3-.423 3-2Z"/><path fill="#57B947" id="ProS" d="M113 206c-6.49 0-12.931 8.216-18.5 11-1.212.606-5.5 2.24-5.5 4-3.023 0-14.61-17.719-16-20.5l-4-7.5v-1l-2-4v-1c0-1.772-2.912-14-4-14v-28c1.473 0 1-1.952 1-3 1.473 0 1-1.952 1-3v-1l1-2c1.473 0 1-1.952 1-3l1-2 1-2 1-2 1-2 1-2 1-1v-1l1-1 1-1c1.577 0 2-1.762 2-3l1-1c1.712 0 3-2.571 3-4 1.747 0 2-.253 2-2 1.747 0 2-.253 2-2 1.747 0 2-.253 2-2l2-1 1-1 1-1 2-1 2-2c1.238 0 3-.423 3-2h1c0 6.354 6.235 14.97 9 20.5l3 5.5-10 10.5c-2.258 4.517-11.62 24.76-9 30 1.461 2.922-.406 7.188 1 10 3.106 6.213 5.843 12.685 9 19 2.041 4.082 11 8.907 11 13.5Z"/><path fill="#CAC7CB" id="fiber tracts" d="m150 97-1 1 1-1Z"/><path fill="#C7CBCB" id="bsc" d="M149 99v1c1.577 0 2-1.762 2-3h-1l-1 1v1Z"/><path fill="#57B947" id="ProS" d="M367 221h2c0-1.747.253-2 2-2 0-1.562 2.189-5 4-5 0-1.238.423-3 2-3 0-1.238.423-3 2-3l1-1 1-2c0-1.238.423-3 2-3l1-2 1-2 1-2 1-2v-1l1-2 1-2v-1c0-1.424.362-5 2-5v-1c0-1.048-.473-3 1-3 0-1.145-.579-4 1-4v-32c-1.014 0-2-3.959-2-5v-1l-2-4v-1l-6-10.5c-2.609-5.218-19.98-23.5-25-23.5-1.183 0-1.535 3.57-2 4.5l-8 15c-.656 1.311-.797 5.5-3 5.5l8 7.5c3.839 7.678 16.219 28.561 11 39-1.357 2.714-.677 6.355-2 9-2.724 5.448-6.257 10.514-9 16l-9 10.5c0 1.715 23 13.386 23 16Z"/><path fill="#0C858B" id="VISpor6a" d="m71 115-3 2c0-3.819 1-7.052 1-11v-1l5-6h1l4 4v1c-1.577 0-2 1.762-2 3-2.289 0-6 6.178-6 8Z"/><path fill="#C7C8CC" id="alv" d="M95 99c-1.747 0-2 .253-2 2l2-2Z"/><path fill="#CAC7CB" id="fiber tracts" d="M148 100h1v-1l-1 1Z"/><path fill="#0C858B" id="VISpor6a" d="M388 107c-2.282 0 1 2.696 1 3.5 0 2.235-1 4.085-1 6.5-3.422 0-6.391-13-11-13v-1l4-4h1l5 5v1l1 1v1Z"/><path fill="#C7CBCB" id="bsc" d="M148 101v1l1-2h-1v1Z"/><path fill="#C7C8CC" id="alv" d="m93 101-2 1 2-1ZM91 102l-1 1 1-1Z"/><path fill="#C7CBCB" id="bsc" d="M147 103v1l1-2h-1v1Z"/><path fill="#C7C8CC" id="alv" d="m90 103-1 1 1-1Z"/><path fill="#0C848C" id="VISpor6b" d="M79 105c0 1.747-.253 2-2 2 0-1.238.423-3 2-3v1Z"/><path fill="#C7C8CC" id="alv" d="m89 104-2 1 2-1Z"/><path fill="#C7CBCB" id="bsc" d="M309 105h1l-1-1v1Z"/><path fill="#0C848C" id="VISpor6b" d="M388 118v2l-4-5-7-10v-1c4.609 0 7.578 13 11 13v1Z"/><path fill="#C7C8CC" id="alv" d="m87 105-2 2c1.747 0 2-.253 2-2Z"/><path fill="#C7CBCB" id="bsc" d="M146 106h1v-1l-1 1Z"/><path fill="#FF64FF" id="MB" d="M310 106v1l-1-2h1v1Z"/><path fill="#15AFB2" id="TEa6a" d="m387 105 1 1-1-1ZM53 141h6c0-3.389 7.178-22 9-22v-2c0-3.819 1-7.052 1-11-2.058 0-5.209 6.918-6 8.5-4.262 8.524-10 16.203-10 26.5Z"/><path fill="#FF64FF" id="MB" d="M146 107v2c1.473 0 1-1.952 1-3h-1v1Z"/><path fill="#C7CBCB" id="bsc" d="M310 108h1l-1-2v2Z"/><path fill="#0C848C" id="VISpor6b" d="M71 115h2l4-8c-2.289 0-6 6.178-6 8Z"/><path fill="#C7C8CC" id="alv" d="m85 107-2 2c1.747 0 2-.253 2-2Z"/><path fill="#C7CBCB" id="bsc" d="M145 111h1v-4c-1.579 0-1 2.855-1 4Z"/><path fill="#15AFB2" id="TEa6a" d="M398 141h6c0-10.115-6.768-18.036-11-26.5-.845-1.69-2.175-7.5-5-7.5-2.282 0 1 2.696 1 3.5 0 2.235-1 4.085-1 6.5v1c1.368 0 10 19.708 10 23Z"/><path fill="#FF64FF" id="MB" d="M307 120h4c0-2.003-.293-3 2-3l-1-3c-1.399 0-1.399-2 0-2l-1-4h-1c0 4.937-3 11.436-3 12Z"/><path fill="#C7C8CC" id="alv" d="m83 109-2 2c1.747 0 2-.253 2-2Z"/><path fill="#59B847" id="PRE" d="M127 127h2c0-1.238.423-3 2-3l1-1 1-1v-1l1-1c0-4.088 7-6.773 7-11h-16l-3 3.5c-1.87 1.87-7 6.091-7 8.5 4.029 0 12 .671 12 6ZM325 124l4 3c0-8.658 12.407-4 15-4l-13-14h-16l8 12 2 2v1Z"/><path fill="#C7C8CC" id="alv" d="M81 111c-1.712 0-3 2.571-3 4 1.712 0 3-2.571 3-4Z"/><path fill="#FF64FF" id="MB" d="M151 126c5.826 0 29.345-2.578 34.5 0 2.189 1.094 7.093 2 9.5 2v-7h-3c0 5.794-14.954 4.773-18.5 3-1.07-.535-4.098-3-4.5-3l-6.5 1-7.5-4c0 1.278-4.07 2.715-5.5 2-2.179-1.09-3.5-6.896-3.5-9h-1l-1 6c1.577 0 2 1.762 2 3 4.086 0 5 2.29 5 6Z"/><path fill="#C7CBCB" id="bsc" d="M312 112c-1.399 0-1.399 2 0 2v-2Z"/><path fill="#0C848C" id="VISpor6b" d="M69 119h1l1-2v-2l-3 2v1l1 1Z"/><path fill="#CCC8CA" id="ar" d="m73 115-2 2v-2h2Z"/><path fill="#C7C8CC" id="alv" d="m78 115-1 1 1-1Z"/><path fill="#CCC8CA" id="ar" d="m388 120 3 7c-2.235 0-7-9.835-7-12l4 5Z"/><path fill="#C7C8CC" id="alv" d="M75 117v2c1.577 0 2-1.762 2-3l-2 1Z"/><path fill="#CCC8CA" id="ar" d="m71 117-1 2 1-2Z"/><path fill="#C8CBCC" id="ec" d="m69 193 5 11c-1.91 0-4.289-6.077-5-7.5-4.73-9.459-10-20.274-10-31.5v-20c2.81 0 1.982-3.464 3-5.5 2.078-4.157 7-11.845 7-16.5l5-6h1v2l-1 1-1 1v1l-1 1-1 2-1 2-1 2-1 2-1 2c-1.473 0-1 1.952-1 3l-1 2v1c-1.473 0-1 1.952-1 3-1.473 0-1 1.952-1 3v1c-2.475 0-2.467 16.565-1 19.5.62 1.238-1.144 5.5 1 5.5v2c0 2.25 1.721 14 4 14v1c0 1.465-.109 4 2 4v1Z"/><path fill="#C9C8C8" id="bic" d="m139 143-3.5 4-1.5-2c0-6.101 3.03-28 10-28 1.577 0 2 1.762 2 3-4.157 0-7 18.958-7 23ZM318 143c.305 0 4 7.7 4 2 0-5.576-2.356-28-9-28-2.293 0-2 .997-2 3l4 6.5c1.908 3.815 2 9.931 2 14.5l1 1v1Z"/><path fill="#C8CBCC" id="ec" d="M385 198v2c2.236 0 3.287-5.074 4-6.5 4.284-8.568 8-18.259 8-28.5l1-10c0-3.222-1-6.277-1-9-3.226 0-1.231-3.962-2-5.5-1.534-3.069-10.607-23.5-13-23.5v1l7 14v1l2 4v1c1.638 0 2 3.576 2 5v2c1.827 0 2 3.968 2 5.5 0 5.688 1.415 14.171-1 19-.574 1.147 1.064 4.5-1 4.5v1c0 1.145.579 4-1 4 0 1.048.473 3-1 3v1c0 1.424-.362 5-2 5v1l-1 2-1 2v1l-1 2-1 2Z"/><path fill="#16B0B2" id="TEa6b" d="M68 119h1l-1-1v1ZM396 140l2 1c0-3.292-8.632-23-10-23v2l3 7v1c1.577 0 2 1.762 2 3v1l1 1v1l1 1v3l1 1v1ZM59 141h1v-1l1-1v-3l1-1v-1l1-1v-2l1-1 1-1v-2l1-1 1-2c0-1.238.423-3 2-3v-1l-1-1c-1.822 0-9 18.611-9 22Z"/><path fill="#0C848C" id="VISpor6b" d="M69 119v1l-1-1h1Z"/><path fill="#CCC8CA" id="ar" d="M69 120v1l1-2h-1v1Z"/><path fill="#C7C8CC" id="alv" d="m75 119-1 1 1-1Z"/><path fill="#A9A9A8" id="AQ" d="M227 123h2c3.637 0-3-7.255-3-1.5l1 1.5Z"/><path fill="#FF64FF" id="MB" d="M306 127c-2.947 0-7.527-3.986-11.5-2-.893.447-31.334 3-33.5 3 0-1.819 1-4.591 1-7h2c0 7.391 23 3.048 23 0l7.5 1 6.5-3 6 1c0 2.139-1 4.033-1 7Z"/><path fill="#C7C8CC" id="alv" d="m74 120-1 1 1-1Z"/><path fill="#7DCD4B" id="HPF" d="m134 120-1 1 1-1Z"/><path fill="#FE7AFD" id="NB" d="M147 137c-1.59 0-1.443 4.386-2 5.5-1.387 2.774-6 4.799-6 .5 0-4.042 2.843-23 7-23 4.086 0 5 2.29 5 6 0 3.744-4 6.631-4 11ZM318 142v1c0 4.623-5.545 2.411-7-.5-.652-1.303-.219-7.5-2-7.5l-3-8c0-2.967 1-4.861 1-7h4l4 6.5c1.908 3.815 2 9.931 2 14.5l1 1Z"/><path fill="#CCC8CA" id="ar" d="m69 123-2 1c0-1.238.423-3 2-3v2Z"/><path fill="#59B847" id="PRE" d="m115 121-2 1 2-1Z"/><path fill="#7BD04A" id="DG-mo" fill-rule="evenodd" d="M119 186c0 2.099-3.558 4.383-2 7.5.814 1.629 1.231 3.463 2 5 7.399 14.798 12.631-12.5 0-12.5m3 29 4 2c5.963 0 12.798-13.905 10-19.5-6.776-13.552-13-36.184-13-52.5 0-1.145-.579-4 1-4 0-1.048-.473-3 1-3l2-8v-3c0-5.329-7.971-6-12-6l-2 1-2 1-10 10.5c-2.258 4.517-11.62 24.76-9 30 1.461 2.922-.406 7.188 1 10 3.106 6.213 5.843 12.685 9 19 2.041 4.082 11 8.907 11 13.5l7 7 2 2Z"/><path fill="#7DCD4B" id="HPF" d="m323 121 2 2-2-2Z"/><path fill="#7BD04A" id="DG-mo" fill-rule="evenodd" d="m337 186-4.5 3c-2.488 2.488-5.547 11.727-1 14 5.926 2.963 10.623-17 5.5-17m-3 29-4 2c-4.691 0-12.027-13.446-10-17.5.92-1.839.133-4.266 1-6 7.779-15.559 12-31.633 12-50.5 0-1.048.473-3-1-3v-1l-1-2v-3l-1-1v-2l-1-1v-3c0-8.658 12.407-4 15-4h1l8 7.5c3.839 7.678 16.219 28.561 11 39-1.357 2.714-.677 6.355-2 9-2.724 5.448-6.257 10.514-9 16l-9 10.5-7 7-2 2-1 1Z"/><path fill="#C7C8CC" id="alv" d="m73 122-1 1 1-1Z"/><path fill="#7DCD4B" id="HPF" d="m133 122-1 1 1-1Z"/><path fill="#CBC9C7" id="or" d="m60 141-1 4c2.81 0 1.982-3.464 3-5.5 2.078-4.157 7-11.845 7-16.5l-2 1-1 2-1 1v2l-1 1-1 1v2l-1 1v1l-1 1v3l-1 1v1Z"/><path fill="#C7C8CC" id="alv" d="m72 123-1 2 1-2Z"/><path fill="#7DCD4B" id="HPF" d="m132 123-1 1 1-1Z"/><path fill="#FF64FF" id="MB" d="m226 145 5 1c0-8.07-2-15.784-2-23h-2c0 6.758-1 14.627-1 22Z"/><path fill="#CCC8CA" id="ar" d="m67 124-1 2 1-2Z"/><path fill="#7DCD4B" id="HPF" d="M131 124c-1.577 0-2 1.762-2 3 1.577 0 2-1.762 2-3ZM329 127v2c-1.533 0-4-3.753-4-5l4 3Z"/><path fill="#C7C8CC" id="alv" d="m71 125-1 2 1-2Z"/><path fill="#FF8FFD" id="MRN" d="m209 179-9.5 5H190c0-6.479-1.124-7.812-7.5-11-4.022-2.011-13.5-.516-13.5 4-8.839 0-22-31.826-22-40 0-4.369 4-7.256 4-11 5.826 0 29.345-2.578 34.5 0 2.189 1.094 7.093 2 9.5 2l4.5 5c3.989 1.994 11.282 15 13.5 15l3 4c0 3.267 5 5.364 5 7v6c-5.288 0-6.281 10-10 10-4.879 0-9.407 8.046-15.5 5-21.837-10.918 5.217-32.066 15.5-11.5 1.465 2.93 0 3.619 0 6.5l-2 4Z"/><path fill="#FF8FFD" id="MRN" fill-rule="evenodd" d="m254 160-3 1.5c-.855 1.71-8.463 8.073-7 11l6.5 4.5c16.542 8.271 26.262-9.369 11-17H254m-8 17 7.5 6 13.5 1-2-2.5c-1.82-3.64 7.615-7.558 9.5-8.5 2.477-1.239 13.5-.571 13.5 3 5.559 0 8.097-6.694 10-10.5 5.217-10.434 11-17.741 11-30.5l-3-8c-2.947 0-7.527-3.986-11.5-2-.893.447-31.334 3-33.5 3l-8 7.5c-.845 1.69-6.531 11.5-8 11.5l-1 1-1 1-2 3c0 1.247-2.467 5-4 5l-2 2v6c3.579 0 11 8.417 11 12Z"/><path fill="#CCC8CA" id="ar" d="m66 126-1 1 1-1Z"/><path fill="#C7C8CC" id="alv" d="m70 127-1 2 1-2Z"/><path fill="#7DCD4B" id="HPF" d="M129 127c0 1.238-.423 3-2 3v-3h2Z"/><path fill="#CCC8CA" id="ar" d="M391 128c1.577 0 2 1.762 2 3l-2-3ZM65 129l-1 1 1-1Z"/><path fill="#C7C8CC" id="alv" d="m69 129-1 2 1-2Z"/><path fill="#CCC8CA" id="ar" d="m64 130-1 1 1-1Z"/><path fill="#7DCD4B" id="HPF" d="m329 130 1 1-1-1Z"/><path fill="#C7C8CC" id="alv" d="m68 131-1 2 1-2Z"/><path fill="#CCC8CA" id="ar" d="m393 132 1 1-1-1ZM63 133l-1 1 1-1Z"/><path fill="#C7C8CC" id="alv" d="M67 133c-1.473 0-1 1.952-1 3 1.473 0 1-1.952 1-3Z"/><path fill="#7DCD4B" id="HPF" d="m330 133 1 1-1-1Z"/><path fill="#C7C8CC" id="alv" d="m389 133 2 4-2-4Z"/><path fill="#CCC8CA" id="ar" d="m394 134 1 1-1-1ZM62 135l-1 1 1-1Z"/><path fill="#FF64FF" id="MB" d="M304 213c-4.176 0-2.236-4.132-8.5-1l-8.5 11c-1.714 0-1-5.594-1-7 0-4.046-2.831-7-7-7 0-2.313 7.911-3.678 5-9.5-1.894-3.788-5.388-6.775-7-10l-4-2.5 6.5 1c3.421-1.71 8.5-8.127 8.5-12 5.559 0 8.097-6.694 10-10.5 5.217-10.434 11-17.741 11-30.5 1.781 0 1.348 6.197 2 7.5 1.455 2.911 7 5.123 7 .5.305 0 4 7.7 4 2 1.127 0 1.894 13.712 1 15.5l-4 14-17 34 2 4.5Z"/><path fill="#C7C8CC" id="alv" d="m66 136-1 2 1-2Z"/><path fill="#FF64FF" id="MB" d="M154 211c11.699 0 13.43 13 16 13 0-7.878.86-15 10-15v-1c-20.2 0 1-16.289 1-20-5.53 0-12-5.242-12-11-8.839 0-22-31.826-22-40-1.59 0-1.443 4.386-2 5.5-1.387 2.774-6 4.799-6 .5l-3.5 4-1.5-2c0 14.734.429 24.358 7 37.5 4.422 8.844 13 17.961 13 28.5Z"/><path fill="#FD90FC" id="Su3" d="M220 137c0 1.239-11.351 4.074-5.5 7 3.47 1.735 8.592-7 5.5-7ZM234 137l3 2.5v3c3.623 7.247 11.245-5.5-3-5.5Z"/><path fill="#7DCD4B" id="HPF" d="m331 137 1 2-1-2ZM125 138c-1.473 0-1 1.952-1 3 1.473 0 1-1.952 1-3Z"/><path fill="#C7C8CC" id="alv" d="M391 138c1.638 0 2 3.576 2 5-1.014 0-2-3.959-2-5Z"/><path fill="#CCC8CA" id="ar" d="m395 138 1 1-1-1ZM61 139l-1 1 1-1Z"/><path fill="#C7C8CC" id="alv" d="M65 139c-1.473 0-1 1.952-1 3 1.473 0 1-1.952 1-3Z"/><path fill="#0D9E90" id="ECT5" d="m43 154 9 1v-14H41c0 4.854 2 8.932 2 13Z"/><path fill="#0E9F91" id="ECT6a" d="M52 155h5c0-5.04 2-9.869 2-14h-7v14Z"/><path fill="#7DCD4B" id="HPF" d="M332 140c1.473 0 1 1.952 1 3-1.473 0-1-1.952-1-3Z"/><path fill="#0E9F90" id="ECT6b" d="M398 155h1c0-4.869-1-9.649-1-14l-2-1c0 1.564 1 3.876 1 6 0 2.723 1 5.778 1 9Z"/><path fill="#0D9E90" id="ECT5" d="m413 154-8 1c0-4.869-1-9.649-1-14h11c0 4.559-2 11.089-2 13Z"/><path fill="#0D9F91" id="ECT2/3" d="m43 154-7 2c0-1.078-5-8.934-5-13 3.426 0 4.773-2 8-2h2c0 4.854 2 8.932 2 13Z"/><path fill="#0E9F90" id="ECT6b" d="m59 154-2 1c0-5.04 2-9.869 2-14h1l-1 4v9Z"/><path fill="#7DCD4B" id="HPF" d="M124 141c-1.579 0-1 2.855-1 4 1.579 0 1-2.855 1-4Z"/><path fill="#FF64FF" id="MB" d="m317 141 1 1-1-1Z"/><path fill="#0E9F91" id="ECT6a" d="M399 155h6c0-4.869-1-9.649-1-14h-6c0 4.351 1 9.131 1 14Z"/><path fill="#0D9F91" id="ECT2/3" d="M420 156h1c0-4.081 4-7.889 4-13l-7-2h-3c0 4.559-2 11.089-2 13l7 2Z"/><path fill="#C7C8CC" id="alv" d="M64 142c-1.473 0-1 1.952-1 3 1.473 0 1-1.952 1-3Z"/><path fill="#0D9F90" id="ECT1" d="m36 156-4 2c-4.324 0-5-10.891-5-14l4-1c0 4.066 5 11.922 5 13ZM421 156l3 2c5.452 0 5-10.478 5-14l-4-1c0 5.111-4 8.919-4 13Z"/><path fill="#FF64FF" id="MB" d="M233 169c-3.921 0-6.478 1-10 1 0-1.091 3.731-7 .5-7l-1.5 2h-1v-6c2.579 0 .794 3 5 3 1.71 0 .344 4.078 2.5 3 5.809-2.904-2.5-18.12-2.5-8v3c-3.873 0-7.369-8-10-8l-3-4 4 1c0 2.168 5.992 11.516 8 7.5 1.675-3.349-2-6.241-2-8.5l3-3c0 7.391-.446 7 5 7 0 2.124 1 4.436 1 6 0 .671-2.662 5 0 5 0 2.01 1 3.512 1 6Z"/><path fill="#FE8FFC" id="EW" d="M231 151v1c-5.446 0-5 .391-5-7l5 1v5Z"/><path fill="#C7C8CC" id="alv" d="M393 145c1.827 0 2 3.968 2 5.5 0 5.688 1.415 14.171-1 19-.574 1.147 1.064 4.5-1 4.5v-29ZM63 146c-2.475 0-2.467 16.565-1 19.5.62 1.238-1.144 5.5 1 5.5v-25Z"/><path fill="#FE90FF" id="III" d="M223 148c-2.486 0-3.725 1-6 1 0 2.168 5.992 11.516 8 7.5 1.675-3.349-2-6.241-2-8.5Z"/><path fill="#FF64FF" id="MB" d="m233 148-2 3v-4l2 1Z"/><path fill="#FE90FF" id="III" d="M232 158h1l1-1h1l2-2 1-1 1-1v-4c-.979 0-2.61-1-6-1l-2 3v1c0 2.124 1 4.436 1 6Z"/><path fill="#FF64FF" id="MB" d="m245 147-1 1 1-1ZM239 152h2l2-3h-4v3Z"/><path fill="#CBCBCC" id="mlf" d="M226 160v2c-4.206 0-2.421-3-5-3 0-1.636-5-3.733-5-7 2.631 0 6.127 8 10 8ZM237 155v2c1.533 0 4-3.753 4-5h-2v1l-1 1-1 1Z"/><path fill="#FF64FF" id="MB" d="m239 153-1 1 1-1Z"/><path fill="#0E9583" id="PERI2/3" d="M44 165h3l-4-11-7 2c0 2.526 2 5.577 2 9h6Z"/><path fill="#0F9684" id="PERI5" d="M50 165h2v-10l-9-1 4 11h3Z"/><path fill="#0E9683" id="PERI6b" d="m58 164 1 1v-11l-2 1c0 3.013 1 6.611 1 9Z"/><path fill="#FEA6FF" id="RL" d="M226 160v2c1.71 0 .344 4.078 2.5 3 5.809-2.904-2.5-18.12-2.5-8v3Z"/><path fill="#FF64FF" id="MB" d="m238 154-1 1 1-1Z"/><path fill="#0F9684" id="PERI5" d="M407 165h3l3-11-8 1-1 10h3Z"/><path fill="#0E9583" id="PERI2/3" d="M412 165c2.409 0 5.181 1 7 1 0-1.423-1.978-3.544-1-5.5l2-4.5-7-2-3 11h2Z"/><path fill="#0E9684" id="PERI6a" d="M55 164h3c0-2.389-1-5.987-1-9h-5v10l3-1Z"/><path fill="#FF64FF" id="MB" d="M235 157h2v-2l-2 2Z"/><path fill="#0E9683" id="PERI6b" d="m399 164-2 1 1-10h1v9Z"/><path fill="#0E9684" id="PERI6a" d="M402 165h2l1-10h-6v9c1.048 0 3-.473 3 1Z"/><path fill="#0E9584" id="PERI1" d="m37 166-4 1c0-3.013-1-6.611-1-9l4-2c0 2.526 2 5.577 2 9l-1 1ZM419 166l5 1v-9l-3-2h-1l-2 4.5c-.978 1.956 1 4.077 1 5.5Z"/><path fill="#FF64FF" id="MB" d="m234 157-1 1 1-1Z"/><path fill="#CBCBCC" id="mlf" d="m235 159-3 4c-2.662 0 0-4.329 0-5h1l1-1h3l-2 2Z"/><path fill="#FF64FF" id="MB" d="m232 163 3 2v-6l-3 4Z"/><path fill="#FE90FD" id="RN" d="M211 175c0-2.881 1.465-3.57 0-6.5-10.283-20.566-37.337.582-15.5 11.5 6.093 3.046 10.621-5 15.5-5ZM254 160l-3 1.5c-.855 1.71-8.463 8.073-7 11l6.5 4.5c16.542 8.271 26.262-9.369 11-17H254Z"/><path fill="#C8C8C8" id="mtg" d="M219 177v3c-2.293 0-2-.997-2-3 0-4.656 5-7.439 5-12l1.5-2c3.231 0-.5 5.909-.5 7l-2 4-1 1v1l-1 1ZM239 176c0 3.454.461 3-2 3l-1-5-1-1v-1l-2-2v-1c0-2.488-1-3.99-1-6l3 2c0 4.51 4 6.642 4 11Z"/><path fill="#31B824" id="ENTl5" d="M82 226c-2.666 0-2.482 3-5 3-4.352 0-6.968-8.234-10.5-10-2.662-1.331-6.016-6.532-7.5-9.5l-6-9c-5.475-10.95-3-23.311-3-35.5h2l3-1c0 16.379 3.325 26.151 10 39.5 1.853 3.705 6.51 7.022 8 10 .947 1.895 7.05 11.5 9 11.5v1Z"/><path fill="#32B824" id="ENTl6a" d="M87 222c-2.364 0-3.053 3-5 3-1.95 0-8.053-9.605-9-11.5-1.49-2.978-6.147-6.295-8-10-6.675-13.349-10-23.121-10-39.5h3l1 1c0 11.226 5.27 22.041 10 31.5.711 1.423 3.09 7.5 5 7.5l3 5 1 1 1 2 1 1 7 9ZM374 225h1c0-3.354 13.571-15.643 16-20.5 6.271-12.542 11-24.332 11-39.5 0-1.473-1.952-1-3-1l-2 1c0 10.241-3.716 19.932-8 28.5-.713 1.426-1.764 6.5-4 6.5l-1 2-1 1v1l-1 1-1 1v1l-1 1-1 1-2 2c0 1.238-.423 3-2 3 0 1.562-2.189 5-4 5l-2 2v1c2.364 0 3.053 3 5 3Z"/><path fill="#32B825" id="ENTl2" d="M66 239h1l4-4v-1c0-1.607-4.892-4.196-6.5-5-3.825-1.913-8.767-9.035-10.5-12.5l-9-19c-1.809-3.617-1.187-8.373-3-12l2-20.5h-6l-1 1c0 6.179-6.614 16.272-3 23.5 5.195 10.39 6.788 22.577 12 33L58.5 235c1.475.737 7.5 1.705 7.5 4Z"/><path fill="#32B725" id="ENTl3" d="M77 230c-2.773 0-3.67 4-6 4 0-1.607-4.892-4.196-6.5-5-3.825-1.913-8.767-9.035-10.5-12.5l-9-19c-1.809-3.617-1.187-8.373-3-12l2-20.5h6c0 12.189-2.475 24.55 3 35.5l6 9c1.484 2.968 4.838 8.169 7.5 9.5 3.532 1.766 6.148 10 10.5 10v1Z"/><path fill="#C8C8CC" id="tspc" d="M217 177c-2.968 0-3.014 10.757-5.5 12-2.388 1.194-5.436-3.627-4.5-5.5l2-4.5 2-4c3.719 0 4.712-10 10-10h1c0 4.561-5 7.344-5 12ZM239 176l6.5 13c3.053 1.527 4.545-5.409 3.5-7.5l-3-4.5c0-3.583-7.421-12-11-12 0 4.51 4 6.642 4 11Z"/><path fill="#31B824" id="ENTl5" d="M375 225c0 1.976 2.876 4 5 4l13-13.5c2.571-5.143 7.47-8.94 10-14 5.222-10.444 4-23.904 4-36.5h-5c0 15.168-4.729 26.958-11 39.5-2.429 4.857-16 17.146-16 20.5Z"/><path fill="#32B725" id="ENTl3" d="m380 230 5 4c2.618 0 13.019-11.537 14-13.5 2.308-4.615 5.727-8.455 8-13l7-19c3.036-6.071-2-17.516-2-23.5h-5c0 12.596 1.222 26.056-4 36.5-2.53 5.06-7.429 8.857-10 14L380 229v1Z"/><path fill="#32B825" id="ENTl2" d="M389 239h1l7.5-4c5.238-2.619 10.984-8.468 13.5-13.5 2.651-5.302 14.625-36.749 12-42-1.408-2.816-4-10.561-4-13.5-1.819 0-4.591-1-7-1 0 5.984 5.036 17.429 2 23.5l-7 19c-2.273 4.545-5.692 8.385-8 13-.981 1.963-11.382 13.5-14 13.5v1c1.797 0 4 2.203 4 4Z"/><path fill="#32B722" id="ENTl1" d="M66 239c0 2.349-3 1.382-3 4-3.52 0-6.283-4.891-8.5-6-16.113-8.056-18.617-32.734-25.5-46.5-1.777-3.555-1.007-23.5 4-23.5l4-1c0 6.179-6.614 16.272-3 23.5 5.195 10.39 6.788 22.577 12 33L58.5 235c1.475.737 7.5 1.705 7.5 4ZM390 239l4 4c3.647 0 7.288-6.394 10.5-8 13.358-6.679 17.384-36.269 23.5-48.5 1.645-3.29-1.531-19.5-4-19.5l-5-1c0 2.939 2.592 10.684 4 13.5 2.625 5.251-9.349 36.698-12 42-2.516 5.032-8.262 10.881-13.5 13.5l-7.5 4Z"/><path fill="#FFA4FF" id="CLI" d="M237 179c0 4.134-1.004 13.248-7.5 10l-1.5-2-1.5 2c-5.318 2.659-7.5-5.558-7.5-9v-3l1-1v-1l1-1 2-4c3.522 0 6.079-1 10-1v1l2 2v1l1 1 1 5Z"/><path fill="#FF64FF" id="MB" d="m233 170 2 2-2-2Z"/><path fill="#C7C8CC" id="alv" d="M63 173c1.088 0 4 12.228 4 14-2.279 0-4-11.75-4-14Z"/><path fill="#FD8FFF" id="RR" d="M181 188h1l1-1h2c0-1.477 3.924-3 5-3 0-6.479-1.124-7.812-7.5-11-4.022-2.011-13.5-.516-13.5 4 0 5.758 6.47 11 12 11Z"/><path fill="#FF64FF" id="MB" d="m235 173 1 1-1-1Z"/><path fill="#FD8FFF" id="RR" d="M272 187h1l6.5 1c3.421-1.71 8.5-8.127 8.5-12 0-3.571-11.023-4.239-13.5-3-1.885.942-11.32 4.86-9.5 8.5l2 2.5 5 3Z"/><path fill="#FF64FF" id="MB" d="m221 174-1 1 1-1Z"/><path fill="#C7C8CC" id="alv" d="M393 175c-1.579 0-1 2.855-1 4 1.579 0 1-2.855 1-4Z"/><path fill="#FF64FF" id="MB" d="m220 176-1 1 1-1ZM241 205h6c0-3.517.969-15.235 4.5-17 3.658-1.829 5.906 3 8.5 3 0-8.797 4.885-4 12-4l-5-3-13.5-1-7.5-6 3 4.5c1.045 2.091-.447 9.027-3.5 7.5l-6.5-13c0 3.454.461 3-2 3 0 4.134-1.004 13.248-7.5 10l-1.5-2-1.5 2c-5.318 2.659-7.5-5.558-7.5-9-2.293 0-2-.997-2-3-2.968 0-3.014 10.757-5.5 12-2.388 1.194-5.436-3.627-4.5-5.5l2-4.5-9.5 5H190c-1.076 0-5 1.523-5 3 4.147 0 12-3.902 12 3 2.457 0 4.522-3.489 7.5-2 4.486 2.243 4.5 12.582 4.5 17h6c0-2.698 4.255-2 6-2 0-2.59-.026-6 3-6h8c3.626 0 3 3.26 3 6 1.745 0 6-.698 6 2Z"/><path fill="#C7C8CC" id="alv" d="M392 179c-1.473 0-1 1.952-1 3 1.473 0 1-1.952 1-3ZM391 183c-1.638 0-2 3.576-2 5 1.638 0 2-3.576 2-5Z"/><path fill="#65A83D" id="DG-sg" d="M119 186c0 2.099-3.558 4.383-2 7.5.814 1.629 1.231 3.463 2 5 7.399 14.798 12.631-12.5 0-12.5Z"/><path fill="#C8C8CB" id="rust" d="M180 208h1c2.461 0 2-3.378 2-5l1-2 1-2v-1l1-1 1-2h1l1-1c2.971 0 4.768-3 7-3l1-1c0-6.902-7.853-3-12-3h-2l-1 1h-1c0 3.711-21.2 20-1 20ZM278 209h1c0-2.313 7.911-3.678 5-9.5-1.894-3.788-5.388-6.775-7-10l-4-2.5h-1c-7.115 0-12-4.797-12 4h1l1 1c0 1.638 3.576 2 5 2 3.581 0 6 5.054 6 8 0 2.607-.416 6 3 6l2 1Z"/><path fill="#65A83D" id="DG-sg" d="m337 186-4.5 3c-2.488 2.488-5.547 11.727-1 14 5.926 2.963 10.623-17 5.5-17Z"/><path fill="#FF64FF" id="MB" d="m183 187-1 1 1-1Z"/><path fill="#C7C8CC" id="alv" d="m67 188 2 4c-2.109 0-2-2.535-2-4Z"/><path fill="#FFC295" id="PRNr" d="M194 232h1l2-1h8l2-1h1c0-.652 3.297-2.095 4-3.5 3.11-6.22-3-15.911-3-21.5 0-4.418-.014-14.757-4.5-17-2.978-1.489-5.043 2-7.5 2l-1 1c-2.232 0-4.029 3-7 3l-1 1h-1l-1 2-1 1v1l-1 2-1 2c0 1.622.461 5-2 5l-1 1c0 7.398-.416 24 11 24 0-1.473 1.952-1 3-1ZM261 232h2l5.5 1c8.051-4.026 8.5-16.164 8.5-24l-1-1c-3.416 0-3-3.393-3-6-1.845 0-1.441-3.381-2-4.5l-4-3.5c-1.424 0-5-.362-5-2l-1-1h-1c-2.594 0-4.842-4.829-8.5-3-3.531 1.765-4.5 13.483-4.5 17 0 4.276-4.811 16.877-3 20.5l4 4.5h2l2 1h7l2 1Z"/><path fill="#C7C8CC" id="alv" d="m389 189-1 2 1-2Z"/><path fill="#FF64FF" id="MB" d="m197 190-1 1 1-1ZM261 191l1 1-1-1Z"/><path fill="#C7C8CC" id="alv" d="m388 191-1 2 1-2ZM87 222c3.87 0 5.602 7 9 7l-7-8c-3.023 0-14.61-17.719-16-20.5l-4-7.5 5 11 3 5 1 1 1 2 1 1 7 9Z"/><path fill="#FF64FF" id="MB" d="m189 194-1 1 1-1ZM267 194c3.581 0 6 5.054 6 8-1.845 0-1.441-3.381-2-4.5l-4-3.5Z"/><path fill="#C7C8CC" id="alv" d="m387 194-1 2 1-2Z"/><path fill="#FF64FF" id="MB" d="m187 195-1 2 1-2Z"/><path fill="#C7C8CC" id="alv" d="m386 196-1 2 1-2Z"/><path fill="#FF64FF" id="MB" d="m186 197-1 1 1-1Z"/><path fill="#FFA6FE" id="IPN" d="M221 203h2c0-1.728 1-3.991 1-6-3.026 0-3 3.41-3 6Z"/><path fill="#FEA4FF" id="IPDM" d="M223 203h1c0-1.714 2-3.482 2-6h-2c0 2.009-1 4.272-1 6Z"/><path fill="#FEA6FE" id="IPA" d="M227 205c0-5.698 2-2.513 2 2l3-4-2-6h-4c0 2.518-2 4.286-2 6 2.215 0 1.519 2 3 2Z"/><path fill="#FEA4FF" id="IPDM" d="M232 203h2c0-2.518-2-4.286-2-6h-2l2 6Z"/><path fill="#FFA6FE" id="IPN" d="M234 203h1c0-2.74.626-6-3-6 0 1.714 2 3.482 2 6Z"/><path fill="#C7C8CC" id="alv" d="M384 200h1v-2l-1 2Z"/><path fill="#FF64FF" id="MB" d="m185 199-1 2 1-2Z"/><path fill="#C7C8CC" id="alv" d="M383 202h1v-2l-1 2Z"/><path fill="#C8CBCC" id="ec" d="m385 200-1 2v-2h1Z"/><path fill="#FF64FF" id="MB" d="m184 201-1 2 1-2Z"/><path fill="#FFA6FE" id="IPN" d="M227 205c0 2.11 2 5.814 2 2 0-4.513-2-7.698-2-2Z"/><path fill="#C7C8CC" id="alv" d="M381 205h1l1-1v-2c-1.577 0-2 1.762-2 3Z"/><path fill="#C8CBCC" id="ec" d="m384 202-1 1v-1h1Z"/><path fill="#FFC393" id="CS" d="M227 205c0 2.11 2 5.814 2 2l3-4h3c1.745 0 6-.698 6 2 0 6.458 5.296 14.102-4.5 19-1.19.595-3.347 1.826-5 1-1.65-.825-2.94-11-3-11-1.543 0-1.764 9.882-4 11-6.031 3.016-9.808-7.116-11.5-10.5l2-9.5c0-2.698 4.255-2 6-2h3c2.215 0 1.519 2 3 2Z"/><path fill="#C8CBCC" id="ec" d="m383 204-1 1 1-1Z"/><path fill="#FF9B88" id="P" d="M178 275c0 2.871 3.13 1.315 4.5 2 2.851 1.426 11.458 5.771 15 4 7.111-3.556 19.23.885 25-2 1.547-.773 4.95-3.025 7-2l6.5 2c7.487 0 16.249-1.125 22.5 2 3.619 1.809 13.071-2.536 16-4 1.119-.559 4.5-.155 4.5-2-15.255 0 9-12.539 9-21-9.34 0-8.021-18.457-5-24.5 1.169-2.337 4-3.673 4-6.5-1.714 0-1-5.594-1-7 0-4.046-2.831-7-7-7h-2c0 7.836-.449 19.974-8.5 24l-5.5-1c0 3.099 11 3.238 11 7l3.5-2c3.163 0 2.5 6.189 2.5 8v16.5l-5 7c-3.213 6.427-36.285 10.431-40 3-6.633-13.266-4-14.514-4-28.5 0-15.792 3.741-13 17-13l-4-4.5c-1.811-3.623 3-16.224 3-20.5h-6c0 6.458 5.296 14.102-4.5 19-1.19.595-3.347 1.826-5 1-1.65-.825-2.94-11-3-11-1.543 0-1.764 9.882-4 11-6.031 3.016-9.808-7.116-11.5-10.5l2-9.5h-6c0 5.589 6.11 15.28 3 21.5-.703 1.405-4 2.848-4 3.5 12.321 0 18-3.527 18 12 0 14.025 2.529 14.442-4 27.5l-3.5 5.5h-9c-13.036 0-25.924.652-32.5-12.5v-20c0-1.163-.549-5.5 1.5-5.5l3.5 2c.035 0 9-5.656 9-6-11.416 0-11-16.602-11-24-9.14 0-10 7.122-10 15l4 7.5c1.628 3.256 2.057 23.5-3.5 23.5l-2.5-1c0 6.427 22.91 21 10 21Z"/><path fill="#4FC244" id="SUB" d="m361 228-1 1c-2.33 0-23-15.304-23-17l7-7c0 1.715 23 13.386 23 16v2c-1.747 0-2 .253-2 2-1.747 0-2 .253-2 2h-1l-1 1Z"/><path fill="#C7C8CC" id="alv" d="M380 207h1v-2l-1 2Z"/><path fill="#C8CBCC" id="ec" d="m382 205-1 1v-1h1Z"/><path fill="#4FC244" id="SUB" d="m89 221 7 8c6.861 0 18.646-16 24-16l-7-7c-6.49 0-12.931 8.216-18.5 11-1.212.606-5.5 2.24-5.5 4Z"/><path fill="#C7C8CC" id="alv" d="M379 208h1v-1l-1 1Z"/><path fill="#C8CBCC" id="ec" d="m381 207-1 1v-1h1Z"/><path fill="#FF9B88" id="P" d="m181 208-1 1v-1h1Z"/><path fill="#FF64FF" id="MB" d="M277 209h1l-2-1 1 1Z"/><path fill="#C7C8CC" id="alv" d="m379 209-2 2c0-1.238.423-3 2-3v1Z"/><path fill="#C8CBCC" id="ec" d="m380 208-1 1v-1h1ZM77 209l1 1-1-1Z"/><path fill="#C9C9CB" id="ll" fill-rule="evenodd" d="M156 217c0 10.879 3.257 12.013 8 21.5.8 1.6 3.186 8.157 6.5 6.5 2.716-1.358 1.465-7.57.5-9.5-3.599-7.198-4.784-18.5-15-18.5m14 7 4 7.5c1.628 3.256 2.057 23.5-3.5 23.5l-2.5-1-3-3.5-2-9-9-15-5-8.5 1-2 1-1 2-3 1-1c11.699 0 13.43 13 16 13ZM296 217c0 1.187-11 12.931-11 21l.5 7c2.393 1.197 4.612-1.725 5.5-3.5 2.319-4.637 17.377-24.5 5-24.5m-9 6c0 2.827-2.831 4.163-4 6.5-3.021 6.043-4.34 24.5 5 24.5 1.87 0 4.263-6.025 5-7.5 1.147-2.294.835-5.671 2-8l12-20.5v-1l-2-2-1-2c-4.176 0-2.236-4.132-8.5-1l-8.5 11Z"/><path fill="#FF64FF" id="MB" d="m154 211-1 1 1-1Z"/><path fill="#C7C8CC" id="alv" d="M377 211c-1.577 0-2 1.762-2 3 1.577 0 2-1.762 2-3Z"/><path fill="#7DCD4B" id="HPF" d="m79 212 1 1-1-1Z"/><path fill="#33B931" id="HATA" d="m340 242-3 2c0-6.984-6-14.671-6-22 1.429 0 3-5.655 3-7l1-1 2-2c0 1.696 20.67 17 23 17l-7 7-4 3c-1.424 0-5 .362-5 2l-4 1ZM117 243l2 1c0-5.345 6-15.228 6-23l-3-6-2-2c-5.354 0-17.139 16-24 16l7 7 5 3c1.465 0 4-.109 4 2 1.424 0 5 .362 5 2Z"/><path fill="#7DCD4B" id="HPF" d="m335 214-1 1 1-1Z"/><path fill="#C7C8CC" id="alv" d="M375 214c-1.811 0-4 3.438-4 5 1.811 0 4-3.438 4-5Z"/><path fill="#7DCD4B" id="HPF" d="m126 217-1 4-3-6 4 2Z"/><path fill="#FF64FF" id="MB" d="m151 215-1 1 1-1ZM305 215l2 2-2-2Z"/><path fill="#7DCD4B" id="HPF" d="m330 217 1 5c1.429 0 3-5.655 3-7l-4 2Z"/><path fill="#F0F080" id="CB" d="m151 253-2 1c-3.196 0-4.962-9.424-6-11.5l-7-5.5c11.106 0 .87-13.24 3-17.5.713-1.425 9-1.817 9-1.5l-5 6.5v14c1.6 3.199 2.415 6.83 4 10l4 4.5Z"/><path fill="#FFAC6F" id="NLL" d="M156 217c0 10.879 3.257 12.013 8 21.5.8 1.6 3.186 8.157 6.5 6.5 2.716-1.358 1.465-7.57.5-9.5-3.599-7.198-4.784-18.5-15-18.5ZM296 217c0 1.187-11 12.931-11 21l.5 7c2.393 1.197 4.612-1.725 5.5-3.5 2.319-4.637 17.377-24.5 5-24.5Z"/><path fill="#F0F080" id="CB" d="M306 253h2c2.295 0 4.171-7.842 5-9.5l8-6.5c-15.543 0 6.68-19-13-19l5 5.5v16l-7 13.5Z"/><path fill="#CCCCCA" id="mcp" fill-rule="evenodd" d="M151 245v6.5c.589 1.179 4.184 2.632 5 1 .823-1.645-3.302-7.5-5-7.5m-5-13c0 1.065.705 9 4.5 9 4.035 0 .574-9-4.5-9m31 43h1c12.91 0-10-14.573-10-21l-3-3.5-2-9-9-15-5-8.5h-1l-5 6.5v14c1.6 3.199 2.415 6.83 4 10l4 4.5 13 14h1l4 4h1l7 4ZM304 246c0 1.198-5.964 5.768-3.5 7 4.241 2.12 8.077-7 3.5-7m5-15c0 2.329-8.838 7.331-3.5 10 1.65.825 8.91-10 3.5-10m-28 43-2 1c-15.255 0 9-12.539 9-21 1.87 0 4.263-6.025 5-7.5 1.147-2.294.835-5.671 2-8l12-20.5h1l5 5.5v16l-7 13.5c-2.223 0-7 6.745-7 8-1.747 0-2 .253-2 2l-2 1-1 1-1 1-1 1-1 1-1 1h-1l-2 2-2 1-1 1h-1l-2 1Z"/><path fill="#C7C8CC" id="alv" d="M371 219c-1.747 0-2 .253-2 2l2-2ZM369 222l-2 1v-2h2v1Z"/><path fill="#32B623" id="ENTm6" d="m96 229 7 7c0 1.251-4.427 1.536-5.5 1-2.609-1.304-14.738-11-15.5-11v-1c1.947 0 2.636-3 5-3 3.87 0 5.602 7 9 7ZM360 229l-7 7c0 1.251 4.427 1.536 5.5 1 2.614-1.307 15.5-8.634 15.5-12-1.947 0-2.636-3-5-3l-2 1-2 2-2 2h-1l-1 1-1 1Z"/><path fill="#C7C8CC" id="alv" d="M367 223c-1.747 0-2 .253-2 2l2-2ZM365 225c-1.747 0-2 .253-2 2l2-2Z"/><path fill="#30B724" id="ENTm5" d="m353 236-4 3c0 4.431 14.067 3.217 16.5 2l14.5-11v-1c-2.124 0-5-2.024-5-4h-1c0 3.366-12.886 10.693-15.5 12-1.073.536-5.5.251-5.5-1ZM103 236l5 3c0 2.54-6.843 3-9 3-4.487 0-22-7.403-22-12v-1c2.518 0 2.334-3 5-3 .762 0 12.891 9.696 15.5 11 1.073.536 5.5.251 5.5-1Z"/><path fill="#C7C8CC" id="alv" d="m362 227-1 1 1-1ZM361 228l-1 1 1-1Z"/><path fill="#FEBA85" id="TRN" fill-rule="evenodd" d="M195 243c0 1.947-3.428 3.644-2 6.5 3.476 6.952 17.964-1.768 12.5-4.5l-6-1c-1.718-.859-2.387-1-4.5-1m26 2c0-2.421 2.411-6.678 1-9.5-2.478-4.955-10.464-1.072-12 2-2.172 4.343 5 8.249 5 10.5-2.678 0-3.323 1.911-5.5 3-6.841 3.421-16.895 3.105-22.5-2.5-2.282-2.282-5-6.346-5-9.5.035 0 9-5.656 9-6 1.048 0 3 .473 3-1h1l2-1h8l2-1h1c12.321 0 18-3.527 18 12l-5 3ZM258 243c0 3.184-7.65.799-9 3.5-1.243 2.486 2.259 2.879 3.5 3.5 11.104 5.552 15.463-7 5.5-7m-23 2-1-7.5c2.49-4.981 10.04-5.92 13 0 1.683 3.365-5 7.655-5 10.5l10.5 5c9.602 4.801 21.5-6.176 21.5-14 0-3.762-11-3.901-11-7h-2l-2-1h-7l-2-1h-2c-13.259 0-17-2.792-17 13l4 2Z"/><path fill="#31B723" id="ENTm3" d="M108 239c1.465 0 4-.109 4 2-3.723 0-9.762 8.369-14.5 6-2.442-1.221-5.64-.82-8-2-3.522-1.761-15.505-10-18.5-10v-1c2.33 0 3.227-4 6-4 0 4.597 17.513 12 22 12 2.157 0 9-.46 9-3Z"/><path fill="#FF9B88" id="P" d="m207 230-2 1 2-1ZM250 230l2 1-2-1Z"/><path fill="#31B723" id="ENTm3" d="M349 239c-1.424 0-5 .362-5 2 3.514 0 10.044 8.228 14.5 6 5.273-2.637 11.69-3.345 17-6l9.5-6v-1l-5-4-14.5 11c-2.433 1.217-16.5 2.431-16.5-2Z"/><path fill="#FF9B88" id="P" d="m197 231-2 1 2-1ZM259 231l2 1-2-1Z"/><path fill="#CCCBCA" id="moV" d="M309 231c0 2.329-8.838 7.331-3.5 10 1.65.825 8.91-10 3.5-10ZM146 232c0 1.065.705 9 4.5 9 4.035 0 .574-9-4.5-9Z"/><path fill="#FF9B88" id="P" d="M194 232c-1.048 0-3-.473-3 1 1.048 0 3 .473 3-1Z"/><path fill="#CACCC8" id="ml" d="m221 245-6 3c0-2.251-7.172-6.157-5-10.5 1.536-3.072 9.522-6.955 12-2 1.411 2.822-1 7.079-1 9.5ZM235 245c1.812 0 4.82 3 7 3 0-2.845 6.683-7.135 5-10.5-2.96-5.92-10.51-4.981-13 0l1 7.5Z"/><path fill="#30B824" id="ENTm2" d="M112 241c1.424 0 5 .362 5 2-2.388 0-7.567 6.533-10.5 8-8.824 4.412-25.49-4.745-32-8-1.35-.675-7.5-2.239-7.5-4l4-4c2.995 0 14.978 8.239 18.5 10 2.36 1.18 5.558.779 8 2 4.738 2.369 10.777-6 14.5-6ZM344 241l-4 1c0 2.224 2.386 2.272 3 3.5 5.896 11.791 27.637 3.431 35.5-.5 1.73-.865 10.5-3.947 10.5-6 0-1.797-2.203-4-4-4l-9.5 6c-5.31 2.655-11.727 3.363-17 6-4.456 2.228-10.986-6-14.5-6Z"/><path fill="#CACACB" id="sV" d="m149 254 2 5c0 2.013 1.125 4.25 0 6.5-1.996 3.992-8.406.953-11.5 2.5-2.526 1.263-2.569.215-5-1-8.434-4.217-9.663-14.175-5.5-22.5 1.662-3.325 2.171-7.5 7-7.5l7 5.5c1.038 2.076 2.804 11.5 6 11.5Z"/><path fill="#FFB885" id="PG" d="m221 245-6 3c-2.678 0-3.323 1.911-5.5 3-6.841 3.421-16.895 3.105-22.5-2.5-2.282-2.282-5-6.346-5-9.5l-3.5-2c-2.049 0-1.5 4.337-1.5 5.5v20c6.576 13.152 19.464 12.5 32.5 12.5h9l3.5-5.5c6.529-13.058 4-13.475 4-27.5l-5 3ZM235 245c1.812 0 4.82 3 7 3l10.5 5c9.602 4.801 21.5-6.176 21.5-14l3.5-2c3.163 0 2.5 6.189 2.5 8v16.5l-5 7c-3.213 6.427-36.285 10.431-40 3-6.633-13.266-4-14.514-4-28.5l4 2Z"/><path fill="#CACACB" id="sV" d="m308 253-3 6c0 12.328 18.453 12.594 23 3.5 2.552-5.103 1.319-14.362-1-19-1.531-3.061-1.897-6.5-6-6.5l-8 6.5c-.829 1.658-2.705 9.5-5 9.5Z"/><path fill="#31B625" id="ENTm1" d="m117 243 2 1c0 3.736-4.445 7.472-7.5 9-15.783 7.892-22.18 3.41-37-4-1.73-.865-11.5-4.039-11.5-6 0-2.618 3-1.651 3-4h1c0 1.761 6.15 3.325 7.5 4 6.51 3.255 23.176 12.412 32 8 2.933-1.467 8.112-8 10.5-8ZM394 243l-10.5 6c-12.24 6.12-23.965 11.518-37 5-3.332-1.666-9.5-5.484-9.5-10l3-2c0 2.224 2.386 2.272 3 3.5 5.896 11.791 27.637 3.431 35.5-.5 1.73-.865 10.5-3.947 10.5-6h1l4 4Z"/><path fill="#C8C7CC" id="cst" d="M195 243c0 1.947-3.428 3.644-2 6.5 3.476 6.952 17.964-1.768 12.5-4.5l-6-1c-1.718-.859-2.387-1-4.5-1ZM258 243c0 3.184-7.65.799-9 3.5-1.243 2.486 2.259 2.879 3.5 3.5 11.104 5.552 15.463-7 5.5-7Z"/><path fill="#CCCBCA" id="moV" d="M151 245v6.5c.589 1.179 4.184 2.632 5 1 .823-1.645-3.302-7.5-5-7.5ZM304 246c0 1.198-5.964 5.768-3.5 7 4.241 2.12 8.077-7 3.5-7Z"/><path fill="#FF9B88" id="P" d="M151 259c4.652 0 10.48 8 13 8l-13-14-2 1 2 5ZM305 259l-6 2c0-1.255 4.777-8 7-8h2l-3 6ZM299 261c-1.747 0-2 .253-2 2l2-2ZM297 263l-2 1 2-1ZM295 264l-1 1 1-1ZM294 265l-1 1 1-1ZM293 266l-1 1 1-1ZM165 267l4 4c-1.634 0-4-2.634-4-4ZM292 267l-1 1 1-1ZM291 268l-1 1 1-1ZM289 269l-2 2c1.747 0 2-.253 2-2ZM170 271l7 4c-1.572 0-7-2.052-7-4ZM287 271l-2 1 2-1ZM285 272l-1 1 1-1ZM283 273l-2 1 2-1ZM281 274l-2 1 2-1Z"/></svg>