<svg xmlns="http://www.w3.org/2000/svg" viewBox="0 0 456 320"><path fill="#FEFA90" id="DEC" d="M171 85c4.884 0 7.471-4.986 11.5-7 7.327-3.664 33.993-13.003 42-9l11-1c4.263 2.131 10.85-1.075 15 1 7.461 3.73 15.654 5.327 23 9 3.561 1.78 8.458 8 12.5 8 0-6.512 3-12.854 3-19 0-3.332-17.634-8.567-20.5-10-18.637-9.318-61.361-9.32-80 0-2.835 1.418-21.5 6.69-21.5 10 2.064 0 .426 3.353 1 4.5 1.487 2.973 3 10.27 3 13.5Z"/><path fill="#FDFB8F" id="SIM" d="m171 85-1 3-3-6.5-7-10.5c0-1.948 5.428-4 7-4 2.064 0 .426 3.353 1 4.5 1.487 2.973 3 10.27 3 13.5ZM286 86l1 1 9-16c0-2.528-4.652-4-7-4 0 6.146-3 12.488-3 19Z"/><path fill="#CBC9CC" id="arb" fill-rule="evenodd" d="M210 71c0 2.207-11.6 3.05-13.5 4-8.428 4.214-26.056 11.388-19.5 24.5v7c2.603 5.205 3.921 13.211 10.5 16.5 11.898 5.949 26.192 6.096 38 12 2.834 1.417 24.859-5.429 28-7 3.554-1.777 8.351-1.176 12-3 10.386-5.193 19.24-26.02 13.5-37.5-5.321-10.643-24.65-12.075-33.5-16.5H210m84 101 5 8c3.061 0 6.851 3.675 9.5 5l2.5 1.5-10-9c-4.532-9.064-11.363-19.363-18.5-26.5l-8.5-8c-4.49 0-18.741-14-3-14l4-2c2.44 0 7.088-2 9.5-2l22 8 19 18c5.161 2.581 18.298 27.904 22.5 19.5l-8.5-9.5c-4.03-4.03-22.5-21.663-22.5-26-1.244 0-1.541-2.479-.5-3 1.929-.964 20.767-2.117 23-1 3.39 1.695 7.563 1.282 11 3l4.5 2.5-6-5-4.5-8.5-1 2-12 4h-21l-5-4c-2.009-1.005-11.5-3.015-11.5-6-10.184 0-7-26.261-7-32l-1-1c-4.042 0-8.939-6.22-12.5-8-7.346-3.673-15.539-5.27-23-9-4.15-2.075-10.737 1.131-15-1l-11 1c-8.007-4.003-34.673 5.336-42 9-4.029 2.014-6.616 7-11.5 7l-1 3c0 3.67 1.347 31-7 31-2.368 0-14.503 8.501-17.5 10-4.737 2.369-26.295-1.147-30-3l-4-3-2.5 6.5-6 5c0 1.726 6.865-2.183 7.5-2.5 4.4-2.2 18.277-1 24-1 1.871 0 6.5.458 6.5 3l-1 1c0 3.552-5.496 5.492-7 8.5-3.66 7.32-12.124 10.248-16 18-1.295 2.59-9.634 5.732-8 9l3.5 2.5c.391-.195 16.838-19.838 20-23l17-17 22-8 9.5 2 4 2c12.267 0 6.294 13-2 13l-8 7.5c-4.886 9.772-14.148 17.296-19 27l-6.5 7.5 8.5-5c0-1.294 3.609-7 5-7 0-4.145 18.46-11.48 21.5-13l5-3c1.628-.814 7.328 2.336 10 1 5.014-2.507 30.033-3.984 34-2 3.348 1.674 8.541-.73 12 1 5.863 2.931 17.204-1.398 22 1 3.692 1.846 26.5 10.402 26.5 15m-23-24 1 2.5c0 2.695-10.547 3.476-12.5 2.5-9.593-4.797-43.037-1-55-1-4.861 0-19.5 4.306-19.5-3l1-1 1-1c0-5.939 11.826-5.163 15.5-7 4.191-2.095 11.041-1 16-1 10.966 0 28.814-3.093 39 2 3.162 1.581 13.5 2.057 13.5 7Z"/><path fill="#FCFC90" id="ANcr1" d="M118 89c8.637 0 31.137 13.775 35 21.5 1.331 2.661 10 4.778 10 8.5 8.347 0 7-27.33 7-31l-3-6.5-7-10.5c-13.685 0-42 1.671-42 18Z"/><path fill="#FEFA90" id="DEC" d="M210 71c0 2.207-11.6 3.05-13.5 4-8.428 4.214-26.056 11.388-19.5 24.5v7c2.603 5.205 3.921 13.211 10.5 16.5 11.898 5.949 26.192 6.096 38 12 2.834 1.417 24.859-5.429 28-7 3.554-1.777 8.351-1.176 12-3 10.386-5.193 19.24-26.02 13.5-37.5-5.321-10.643-24.65-12.075-33.5-16.5H210Z"/><path fill="#FCFC90" id="ANcr1" d="M339 89c-9.278 0-34.066 15.632-38 23.5-1.226 2.451-7 3.25-7 6.5-10.184 0-7-26.261-7-32l9-16c12.877 0 43 1.6 43 18Z"/><path fill="#FCFA91" id="ANcr2" fill-rule="evenodd" d="M101 136c0 1.93 1.93 0 0 0m1-1c0 1.93 1.93 0 0 0m38 0-41.5 20c-1.919.959-13.5 4.04-13.5 6-13.76 0-12.62-15.259-8-24.5v-5C84.712 116.075 96.212 89 118 89c8.637 0 31.137 13.775 35 21.5 1.331 2.661 10 4.778 10 8.5-2.368 0-14.503 8.501-17.5 10-4.737 2.369-26.295-1.147-30-3l-4-3-2.5 6.5-6 5c0 1.726 6.865-2.183 7.5-2.5 4.4-2.2 18.277-1 24-1 1.871 0 6.5.458 6.5 3l-1 1Z"/><path fill="#FCFA91" id="ANcr2" d="m317 135 11.5 6c7.758 3.879 35.394 19 42.5 19 1.606 0 4.339 2.081 6.5 1 8.078-4.039 5.522-19.456 2.5-25.5l-5-15c-6.21-12.419-20.069-31.5-36-31.5-9.278 0-34.066 15.632-38 23.5-1.226 2.451-7 3.25-7 6.5 0 2.985 9.491 4.995 11.5 6l5 4h21l12-4 1-2 4.5 8.5 6 5-4.5-2.5c-3.437-1.718-7.61-1.305-11-3-2.233-1.117-21.071.036-23 1-1.041.521-.744 3 .5 3Z"/><path fill="#FFFB8E" id="PRM" d="M127 194c0 3.829-12 7.792-12 10-15.888 0-27.252-22.004-33-33.5-2.014-4.028 3-6.698 3-9.5 0-1.96 11.581-5.041 13.5-6l41.5-20c0 3.552-5.496 5.492-7 8.5-3.66 7.32-12.124 10.248-16 18-1.295 2.59-9.634 5.732-8 9l3.5 2.5c.391-.195 16.838-19.838 20-23l17-17 22-8 9.5 2 1 4c-17.776 0-38.127 30.754-45 44.5-2.018 4.036-10 14.201-10 18.5ZM329 194l6 6.5 6 3.5c16.902 0 27.984-23.467 34-35.5 1.498-2.997-4-5.699-4-8.5-7.106 0-34.742-15.121-42.5-19l-11.5-6c0 4.337 18.47 21.97 22.5 26l8.5 9.5c-4.202 8.404-17.339-16.919-22.5-19.5l-19-18-22-8c-2.412 0-7.06 2-9.5 2v4c17.249 0 37.816 31.132 45 45.5 2.697 5.394 9 11.212 9 17.5Z"/><path fill="#FDFB90" id="FOTU" d="m185 129-3 2-1-4 4 2ZM271 129l4 2v-4l-4 2Z"/><path fill="#FBFC91" id="PYR" d="m182 131 1 11c8.294 0 14.267-13 2-13l-3 2ZM275 131c0 3.531-1 7.893-1 12-4.49 0-18.741-14-3-14l4 2Z"/><path fill="#FFF990" id="COPY" fill-rule="evenodd" d="M145 186c0 1.93 1.93 0 0 0m1-1c0 1.93 1.93 0 0 0m1-1c0 2.091 3.746 0 0 0m-5 16-1 1c-3.549 0-6.002 1.749-9.5 0-2.655-1.328-1.904-7-4.5-7 0-4.299 7.982-14.464 10-18.5 6.873-13.746 27.224-44.5 45-44.5l1 11-8 7.5c-4.886 9.772-14.148 17.296-19 27l-6.5 7.5 8.5-5v2l-1 2c-.877 0-10.198 16-14 16l-1 1Z"/><path fill="#FFF990" id="COPY" d="m312 198 2 1c5.394 0 8.513 7.475 13-1.5l2-3.5c0-6.288-6.303-12.106-9-17.5-7.184-14.368-27.751-45.5-45-45.5 0 3.531-1 7.893-1 12l8.5 8c7.137 7.137 13.968 17.436 18.5 26.5l10 9-2.5-1.5c-2.649-1.325-6.439-5-9.5-5v1l1 2c.172 0 7.597 14 11 14l1 1Z"/><path fill="#FFFB8E" id="PRM" d="m141 134-1 1 1-1Z"/><path fill="#CBC9CC" id="arb" d="M102 135c0 1.93 1.93 0 0 0ZM101 136c0 1.93 1.93 0 0 0Z"/><path fill="#FBFC91" id="PYR" d="M187 147c3.859 0 9.159-2.329 12.5-4 4.384-2.192 27.419-1 34-1h15c.728.364 22.424 6 22.5 6 0-4.943-10.338-5.419-13.5-7-10.186-5.093-28.034-2-39-2-4.959 0-11.809-1.095-16 1-3.674 1.837-15.5 1.061-15.5 7Z"/><path fill="#FFFA8F" id="UVU" d="m271 148 1 2.5c0 2.695-10.547 3.476-12.5 2.5-9.593-4.797-43.037-1-55-1-4.861 0-19.5 4.306-19.5-3l1-1 1-1c3.859 0 9.159-2.329 12.5-4 4.384-2.192 27.419-1 34-1h15c.728.364 22.424 6 22.5 6Z"/><path fill="#FBFC91" id="PYR" d="m187 147-1 1 1-1ZM186 148l-1 1 1-1Z"/><path fill="#FFFA8F" id="UVU" d="M163 172c0 1.214 5.939 2.78 7.5 2 3.709-1.855 17.51-5.245 22-3 8.107 4.053 21.386 2 31 2h36c3.724-1.862 7.462-2 12-2l18 3 4.5-2c0-4.598-22.808-13.154-26.5-15-4.796-2.398-16.137 1.931-22-1-3.459-1.73-8.652.674-12-1-3.967-1.984-28.986-.507-34 2-2.672 1.336-8.372-1.814-10-1l-5 3c-3.04 1.52-21.5 8.855-21.5 13Z"/><path fill="#FDFC8F" id="NOD" d="M161 182c10.234 0 47.875 6.187 55.5 10 2.334 1.167 21.905.048 24-1 3.88-1.94 10.077-.039 14-2 8.204-4.102 30.298-7 40.5-7l4-1v-1l-5-8-4.5 2-18-3c-4.538 0-8.276.138-12 2h-36c-9.614 0-22.893 2.053-31-2-4.49-2.245-18.291 1.145-22 3-1.561.78-7.5-.786-7.5-2-1.391 0-5 5.706-5 7v2l3 1Z"/><path fill="#F0F080" id="CB" d="M161 182c0 1.579-2.855 1-4 1l1-2 3 1ZM295 182c0 1.643 3.765 1 5 1l-1-2-4 1Z"/><path fill="#CBC9CC" id="arb" d="M147 184c0 2.091 3.746 0 0 0ZM146 185c0 1.93 1.93 0 0 0ZM145 186c0 1.93 1.93 0 0 0Z"/><path fill="#FFA2D2" id="ECU" d="m176 198-1 1c-3.393 0-18.602.704-15-6.5l2-3.5h1l1-1c1.819 0 4.591-1 7-1 0 1.596 8 1.513 8 9l-1 1-2 1Z"/><path fill="#FF9BCD" id="MY" d="m181 195-2 1c0-7.487-8-7.404-8-9 2.688 0 15 .222 15 2-5.471 0-5 2.441-5 6ZM270 189c2.607 0 4.913 3 7 3l9-5c-2.839 0-16 .142-16 2Z"/><path fill="#FFA2D2" id="ECU" d="M282 199h11l3-3.5-1-6.5-3-1-1-1h-5l-9 5v1l2 4 3 2Z"/><path fill="#FF9BCD" id="MY" d="m291 187 1 1-1-1ZM164 188l-1 1 1-1ZM134 217c0 .246-6.952 7-7 7 0-8.905 26.607-35 35-35l-2 3.5c-3.602 7.204 11.607 6.5 15 6.5 0 6.031 2.342 6 8 6l1 2c-4.879 0-5 6.617-5 9-2.058 0-5.209-6.918-6-8.5-2.677-5.354-8.041-4.5-13-4.5l5-2.5c0-3.27-13-3.493-13 .5-6.161 0-18 9.302-18 16Z"/><path fill="#FEB1D9" id="SPIV" d="M185 201h4l4-2 2-1 2-1 2-2.5-2-3.5h-1l-1-1h-2c-1.145 0-4 .579-4-1h-3c-5.471 0-5 2.441-5 6 2.177 0 4 4.336 4 6Z"/><path fill="#FF9BCD" id="MY" d="M189 189c1.145 0 4-.579 4 1-1.145 0-4 .579-4-1ZM267 189c-1.145 0-4-.579-4 1 1.145 0 4 .579 4-1Z"/><path fill="#FEB1D9" id="SPIV" d="M268 201h3c0-2.188 2.771-6 5-6l1-2v-1c-2.087 0-4.393-3-7-3h-3c0 1.579-2.855 1-4 1l-4 1c0 7.773 4 5.5 4 8l5 2Z"/><path fill="#FF9BCD" id="MY" d="M322 217c2.106 0 4.924 6 7 6 0-10.088-15.704-23.102-23.5-27-3.522-1.761-6.346-7-10.5-7l1 6.5-3 3.5c2.011 0 12-2.583 12 2 6.351 0 17 9.682 17 16ZM195 190l1 1-1-1ZM197 197c2.177 0 4-.641 4 2 3.207 0 9.215-3 15-3 0-1.183-3.57-1.535-4.5-2-3.216-1.608-10.986-3-14.5-3l2 3.5-2 2.5ZM256 199c0-4.758 3.518 0 7 0 0-2.5-4-.227-4-8-2.879 0-12.896 1.396-15 3.5l-3 1.5c5.591 0 10.379 3 15 3ZM276 195l3 2-2-4-1 2Z"/><path fill="#F0F080" id="CB" d="M141 201c0 7.65-21.463 3-26 3 0-2.208 12-6.171 12-10 2.596 0 1.845 5.672 4.5 7 3.498 1.749 5.951 0 9.5 0ZM314 199c0 10.272 21.04 5 27 5l-6-3.5-6-6.5-2 3.5c-4.487 8.975-7.606 1.5-13 1.5Z"/><path fill="#FDA5D0" id="CU" d="m185 201-2 4c-5.658 0-8 .031-8-6l1-1 2-1 1-1 2-1c2.177 0 4 4.336 4 6ZM273 204v1c5.173 0 9-.036 9-6l-3-2-3-2c-2.229 0-5 3.812-5 6l2 3Z"/><path fill="#FF9BCD" id="MY" d="m179 196-1 1 1-1Z"/><path fill="#FDA5D1" id="NTS" d="M182 221h1l1-1h15l2-1 4-5c0-11.512 15-15.306 15-3 2.122 0 7 4.911 7-1 0-3.226-9-8.528-9-13l-2-1c-5.785 0-11.793 3-15 3h-2l-1 1-14 7c-4.879 0-5 6.617-5 9v2l1 1v1l2 1Z"/><path fill="#AAA9A7" id="V4" d="M227 210h2l3.5-3c.7-.7 5.5-8.177 5.5-9v-1l-3-1c0 8.487-13.75 4.999-15 2.5l1-2.5-3 1c0 4.472 9 9.774 9 13Z"/><path fill="#A9AAA8" id="chpl" d="M221 196h14c0 8.487-13.75 4.999-15 2.5l1-2.5Z"/><path fill="#FF9BCD" id="MY" d="m240 196-1 1 1-1Z"/><path fill="#FDA5D1" id="NTS" d="M274 221h1l2-2 1-4c0-3.752-5-6.234-5-8-5.525 0-9.823-7-15-7l-1-1h-1c-4.621 0-9.409-3-15-3h-1l-1 1-1 1c0 .823-4.8 8.3-5.5 9l-3.5 3c0 6.856 6.078 0 8 0 0-11.22 15-6.933 15 4l3 5h1l2 1h15l1 1Z"/><path fill="#FF9BCD" id="MY" d="m197 197-2 1 2-1Z"/><path fill="#FFB2D6" id="PAS" d="m183 205 1 2 14-7 1-1h2c0-2.641-1.823-2-4-2l-2 1-2 1-4 2-6 4Z"/><path fill="#FF9BCD" id="MY" d="m239 197-1 1v-1h1Z"/><path fill="#FFB2D6" id="PAS" d="M273 205v2c-5.525 0-9.823-7-15-7l-1-1h-1c0-4.758 3.518 0 7 0l5 2 5 3v1Z"/><path fill="#F0F080" id="CB" d="m311 197 1 1-1-1Z"/><path fill="#C8CACA" id="sptV" d="M155 205h2l1-1 1-1h1l5-2.5c0-3.27-13-3.493-13 .5 6.443 0 3 .25 3 4Z"/><path fill="#FF9BCD" id="MY" d="m176 198-1 1 1-1ZM195 198l-2 1 2-1Z"/><path fill="#C8CACA" id="sptV" d="M303 207h1c0-2.54-9.67-6-1.5-6h2.5c0-4.583-9.989-2-12-2l-2 1.5c0 1.118 5-.334 5 2.5h1l1 1 4 2 1 1Z"/><path fill="#F0F080" id="CB" d="m143 199-1 1 1-1Z"/><path fill="#FF9BCD" id="MY" d="m199 199-1 1 1-1ZM257 199l1 1-1-1ZM273 207c0 1.766 5 4.248 5 8 2.825 0 4.155-5.81 5-7.5 2.677-5.354 8.041-4.5 13-4.5 0-2.834-5-1.382-5-2.5l2-1.5h-11c0 5.964-3.827 6-9 6v2Z"/><path fill="#F0F080" id="CB" d="m142 200-1 1 1-1Z"/><path fill="#FDA3D1" id="Pa5" d="M143 214c-3.461 0-5.102 3-9 3 0-6.698 11.839-16 18-16 6.443 0 3 .25 3 4l-2 1-1 1h-1l-1 1-1 1c-1.747 0-2 .253-2 2h-1l-1 1-1 1-1 1Z"/><path fill="#FF9BCD" id="MY" d="m189 201-6 4 2-4h4ZM271 201l2 3-5-3h3Z"/><path fill="#FDA3D1" id="Pa5" d="M308 209c3.055 0 7.991 8 14 8 0-6.318-10.649-16-17-16h-2.5c-8.17 0 1.5 3.46 1.5 6h1l2 2h1Z"/><path fill="#FF9BCD" id="MY" d="m159 203-1 1 1-1Z"/><path fill="#FDA5D2" id="SPVI" d="M142 269h7c8.446 0 4.568-11.637 7-16.5 1.369-2.737.65-6.3 2-9 3.243-6.485 11.575-11.538 17.5-14.5l4.5-6v-4l-1-1v-2c-2.058 0-5.209-6.918-6-8.5-2.677-5.354-8.041-4.5-13-4.5h-1l-1 1-1 1h-2l-1 1-1 1h-1l-1 1-1 1h-1l-2 2-1 1-1 1-1 1-1 1c0 1.59-5.662 6-7 6l-1 1-1 1-1 1-2 4-1 1-1 2-1 10v9l1 1v2l1 1v1l1 2v2c1.577 0 2 1.762 2 3v1l2 2v1l1 1 2 1 1 1h3Z"/><path fill="#FDB1D8" id="DMX" d="M214 213h2l4-2c0-12.306-15-8.512-15 3 0 1.393 7.075-1 9-1ZM243 213c3.543 0 6.374 1 9 1 0-10.933-15-15.22-15-4 0 2.93 3 1.084 3 3h3Z"/><path fill="#FDA5D2" id="SPVI" d="M315 269h2l1-1 4-3 1-2v-1l1-1 1-2 1-4 1-1v-2l1-1v-1l1-1c0-6.867-2-12.86-2-19l-1-1v-1l-1-1v-1l-2-2-1-1-1-1-12-11-2-2-2-1-1-1h-1l-1-1-4-2-1-1h-1c-4.959 0-10.323-.854-13 4.5-.845 1.69-2.175 7.5-5 7.5l-1 4v4c0 6.365 16.778 12.056 20 18.5 3.014 6.027 1.926 27.5 11 27.5h7Z"/><path fill="#FF9BCD" id="MY" d="m297 203 1 1-1-1ZM158 204l-1 1 1-1Z"/><path fill="#C8CACA" id="sptV" d="M153 206h1l1-1-2 1ZM152 207h1v-1l-1 1Z"/><path fill="#FF9BCD" id="MY" d="m154 206-1 1v-1h1ZM302 206l1 1-1-1Z"/><path fill="#C8CACA" id="sptV" d="M150 208h1v-1l-1 1Z"/><path fill="#FF9BCD" id="MY" d="m152 207-1 1v-1h1ZM305 207v1l-1-1h1Z"/><path fill="#C8CACA" id="sptV" d="m305 208 2 1-2-2v1ZM149 209h1v-1l-1 1Z"/><path fill="#FF9BCD" id="MY" d="m151 208-1 1v-1h1Z"/><path fill="#C8CACA" id="sptV" d="M149 209c-1.747 0-2 .253-2 2l2-2Z"/><path fill="#FF9BCD" id="MY" d="m308 209 1 2-2-2h1Z"/><path fill="#C8CACA" id="sptV" d="M317 274c0-3.408-5.576 1-6 1 0-3.242 4-4.968 4-6h2l1-1 4-3 1-2v-1l1-1 1-2 1-4 1-1v-2l1-1v-1l1-1c0-6.867-2-12.86-2-19l-1-1v-1l-1-1v-1l-2-2-1-1-1-1-12-11-1-2c3.055 0 7.991 8 14 8 2.106 0 4.924 6 7 6v1l2 4v1l1 6 1 2v11l-1 2-1 7v1l-1 2-1 1v1l-1 2-1 1v1l-1 1-1 1v1c-1.747 0-2 .253-2 2l-6 3Z"/><path fill="#FF9BCD" id="MY" fill-rule="evenodd" d="M239 288c0 1.465-4.394 1.711-3 4.5 2.258 4.516 9.034 5.5 13.5 5.5 1.163 0 5.5.549 5.5-1.5 0-3.212-12.575-8.5-16-8.5m-10 5c0 2.936 6.212 2.856 8.5 4 7.002 3.501 30.525 4.738 38 1 2.021-1.01 11.5.331 11.5-3-2.113 0-2.782.141-4.5 1-1.813.907-1.223-1.388 0-2 1.746-.873 9.5-2.531 9.5-5-1.145 0-4 .579-4-1-5.758 0-9.536 6.482-16.5 3-2.179-1.089-9.051-15-11.5-15-12.143 0-29-16.903-29-29-2.808 0-3.526-11 0-11 0-1.643 3.765-1 5-1v-4h-6.5c-1.214-.607-3.069-18 10.5-18 0-1.916-3-.07-3-3-1.922 0-8 6.856-8 0h-2c0 5.911-4.878 1-7 1l-4 2h6.5c2.587 1.294 8.112 16.444 5 18H221v4c3.744 0 4 .256 4 4 1.909 0 .099-5.201 2.5-4 .906.453-.943 12-1 12l-1.5-1c0 13.433-15.585 30-29 30 0 2.268-4.36 4.221-5 5.5-3.331 6.662-8.897 13.802-17.5 9.5l-5.5-3c0 1.579-2.855 1-4 1 0 3.212 11 2.843 11 6.5 0 1.035-5.826-1.163-6.5-1.5-2.886-1.443-9.5-2.452-9.5-7 0-1.634-4.365-4 0-4 0-.541-4-2.134-4-9-3.71 0-6-.914-6-5h-7c0 1.298 5 4.589 5 7 0 2.756 10.481 5.537 8 10.5-.727 1.455-3.82-.82-4.5-1.5L140 275c-4.201 0-10.454-9.408-12-12.5l-3-5.5c0 6.281 6.982 12.482 11.5 17 8.626 8.626 18.297 15.649 29 21 2.997 1.498 6.931 1.466 10 3 5.916 2.958 15.047-.977 21 2 6.811 3.405 19.908-1.454 25-4 1.428-.714 6.5-.622 6.5-3-6.231 0-1-8.411-1-10l-4.5 3c-2.427 1.213-13.5-1.292-13.5 3l5.5-1c18.04 0-9.329 15.843-12.5 9.5l5-6.5c-2.558 0-4.36 2.93-6.5 4-1.102.551-6.123-1.254-5.5-2.5 2.032-4.063 25-12.926 25-19.5-8.324 0 4.445-18 7-18 2.279 0-.03-5 1.5-5l.5 6 3.5-1 1.5 5.5c1.502 3.004 9.711 12.5 3 12.5 0 7.862 20.996 13.491 24 19.5.623 1.246-4.398 3.051-5.5 2.5l-10-8-12-1-3.5-2c0 1.606 2.081 4.339 1 6.5l-2 2.5Z"/><path fill="#C8CACA" id="sptV" d="M145 212h1v-1l-1 1Z"/><path fill="#FF9BCD" id="MY" d="m147 211-1 1v-1h1Z"/><path fill="#C8CACA" id="sptV" d="M144 213h1v-1l-1 1Z"/><path fill="#FF9BCD" id="MY" d="m146 212-1 1v-1h1Z"/><path fill="#C8CACA" id="sptV" d="M143 214h1v-1l-1 1Z"/><path fill="#FF9BCD" id="MY" d="m145 213-1 1v-1h1ZM211 227v1c-3.668 0-4.97-9-10-9l4-5c0 1.393 7.075-1 9-1l-5 3.5c-1.839 3.679 2 7.473 2 10.5Z"/><path fill="#FEB1D7" id="XII" d="M211 227c1.137 0 4.542 4 10 4h6.5c3.112-1.556-2.413-16.706-5-18H214l-5 3.5c-1.839 3.679 2 7.473 2 10.5Z"/><path fill="#FEB1D7" id="XII" d="M245 228c-2.561 0-5.324 3-9 3h-6.5c-1.214-.607-3.069-18 10.5-18h3l4 2.5c2.119 4.237-2 9.239-2 12.5Z"/><path fill="#FF9BCD" id="MY" d="M245 228h1c0-2.024 7.193-9 9-9l-3-5c-2.626 0-5.457-1-9-1l4 2.5c2.119 4.237-2 9.239-2 12.5Z"/><path fill="#C8CACA" id="sptV" d="M140 275c0-5.35 5.376 1 7 1 0-2.411-5-5.702-5-7h-3l-1-1-2-1-1-1v-1l-2-2v-1l-2-3v-2l-1-2v-1l-1-1v-2l-1-1v-2c-1.602 0-1.602-7 0-7l1-10 1-2 1-1 2-4 1-1 1-1 1-1c1.338 0 7-4.41 7-6v-1c-3.461 0-5.102 3-9 3 0 .246-6.952 7-7 7v1l-1 2-1 2v4l-1 2v3c0 1.048.473 3-1 3v3c1.473 0 1 1.952 1 3l1 9v1l3 5.5c1.546 3.092 7.799 12.5 12 12.5Z"/><path fill="#FF9BCD" id="MY" d="m144 214-1 1v-1h1ZM179 218l1 1-1-1Z"/><path fill="#FCB3D9" id="PARN" d="M165 270c-1.907 0-10 1.321-10 4-3.71 0-6-.914-6-5 8.446 0 4.568-11.637 7-16.5 1.369-2.737.65-6.3 2-9 3.243-6.485 11.575-11.538 17.5-14.5l4.5-6 2-2h1l1-1h14v1c0 4.313-5.196 6.891-7 10.5l-18 29c-1.66 3.321-8 5.595-8 9.5Z"/><path fill="#FF9BCD" id="MY" d="m201 219-2 1 2-1Z"/><path fill="#FFB2D8" id="IRN" fill-rule="evenodd" d="M193 265c-7.217 0-13.73 15.885-21.5 12l-3-4-3.5-3c0-3.905 6.34-6.179 8-9.5l18-29c1.804-3.609 7-6.187 7-10.5l1-1 2-1c5.03 0 6.332 9 10 9 0 1.235-.643 5 1 5v2c0 4.866-19 25.385-19 30m-15 0c4.072 0 3.382 6 1 6 0 3.081-12.995 1.495-6-5.5l3-.5h2ZM280 265c5.171 0 6.968 5.766 2.5 8-4.035 2.018-8.472-7-5.5-7l1-1h2m-17 0c10.106 0 14.432 19.068 25 8.5l4-3.5c0-3.608-7.948-7.395-9-9.5L258 221l-2-2h-1c-1.807 0-9 6.976-9 9l-2 6 1 2c0 4.19 18 23.657 18 29Z"/><path fill="#FF9BCD" id="MY" d="M258 220v1l-2-2 2 1Z"/><path fill="#FCB3D9" id="PARN" d="M292 270c3.181 0 8.747 4 10 4 3.201 0 6-1.646 6-5-9.074 0-7.986-21.473-11-27.5-3.222-6.444-20-12.135-20-18.5l-2-2h-1l-1-1h-15v1l25 39.5c1.052 2.105 9 5.892 9 9.5Z"/><path fill="#FF9BCD" id="MY" d="m275 221 2 2v-4l-2 2ZM182 221l-2 2v-3l2 1ZM184 220l-1 1 1-1ZM199 220l-1 1v-1h1ZM273 220l1 1-1-1ZM136 221l-1 1 1-1ZM321 222l1 1-1-1ZM134 223l-1 1 1-1ZM323 224l2 2-2-2ZM329 224l2 4-2-4ZM127 225l-1 2 1-2ZM126 227l-1 2 1-2Z"/><path fill="#FFB1D9" id="NR" d="M213 235h8v-4c-5.458 0-8.863-4-10-4v1c0 1.235-.643 5 1 5l1 2Z"/><path fill="#FF9BCD" id="MY" d="m325 227 1 1-1-1ZM131 228l-1 1 1-1Z"/><path fill="#FFB1D9" id="NR" d="M236 235h7l1-1 2-6h-1c-2.561 0-5.324 3-9 3v4Z"/><path fill="#FF9BCD" id="MY" d="m130 229-1 2 1-2ZM326 229l1 1-1-1ZM332 235h1c0-1.623-.005-6-2-6l1 6ZM124 233h1v-3c-1.473 0-1 1.952-1 3ZM123 238h1v-5c-1.643 0-1 3.765-1 5Z"/><path fill="#C9C9C8" id="icp" d="m125 233-1 2v-2h1Z"/><path fill="#FF9BCD" id="MY" d="M212 235h1l-1-2v2ZM243 235l2 1-1-2-1 1Z"/><path fill="#FEB0D8" id="GRN" d="M193 265c6.424 0 3 8.075 3 11 13.415 0 29-16.567 29-30v-7c0-3.744-.256-4-4-4h-9c0 4.866-19 25.385-19 30Z"/><path fill="#CBCBCC" id="mlf" d="M225 239c1.909 0 .099-5.201 2.5-4 .906.453-.943 12-1 12l-1.5-1v-7ZM231 236c-3.526 0-2.808 11 0 11v-11Z"/><path fill="#FEB0D8" id="GRN" d="M263 265c-6.133 0-3 8.577-3 11-12.143 0-29-16.903-29-29v-11c0-1.643 3.765-1 5-1h7l2 1c0 4.19 18 23.657 18 29Z"/><path fill="#C9C9C8" id="icp" d="M333 235v2l-1-2h1ZM124 238c0 1.048.473 3-1 3v-3h1Z"/><path fill="#FF9BCD" id="MY" d="M333 240c1.602 0 1.602 7 0 7v-7ZM128 241c-1.602 0-1.602 7 0 7v-7Z"/><path fill="#C9C9C8" id="icp" d="M123 247h1c0-1.048.473-3-1-3v3Z"/><path fill="#FF9BCD" id="MY" d="m124 247 1 9c-2.156 0-2-7.077-2-9h1Z"/><path fill="#C9C9C8" id="icp" d="M332 250h1v-2l-1 2Z"/><path fill="#FF9BCD" id="MY" d="m329 249-1 1 1-1ZM128 250l1 1-1-1Z"/><path fill="#FEC6E2" id="RO" d="M228 265h1v-9l-.5-6c-1.53 0 .779 5-1.5 5v8l1 2Z"/><path fill="#FF9BCD" id="MY" d="M333 250c0 1.774.273 7-2 7l1-7h1ZM328 251l-1 1 1-1ZM129 253l1 1-1-1ZM327 254l-1 1 1-1ZM130 255l1 2-1-2Z"/><path fill="#C8C8CC" id="tspc" d="m221 272-1 1c-8.324 0 4.445-18 7-18v8c-2.638 0-6 6.355-6 9ZM230 263c4.542 0 3.476 10 7 10 6.711 0-1.498-9.496-3-12.5l-1.5-5.5-3.5 1v6l1 1Z"/><path fill="#FF9BCD" id="MY" d="m331 258-1 2 1-2ZM131 259c1.577 0 2 1.762 2 3l-2-3ZM325 259l-1 2 1-2ZM330 260l-1 1 1-1ZM324 261l-1 1 1-1ZM230 263l-1 1v-2l1 1ZM329 262l-1 2 1-2ZM133 263l2 2-2-2Z"/><path fill="#FFB3D8" id="IO" d="M209 289c-1.747 0-2 .253-2 2-2.558 0-4.36 2.93-6.5 4-1.102.551-6.123-1.254-5.5-2.5 2.032-4.063 25-12.926 25-19.5l1-1c0-2.645 3.362-9 6-9l1 2v12l-1 6-4.5 3c-2.427 1.213-13.5-1.292-13.5 3ZM230 283v1l3.5 2 12 1 10 8c1.102.551 6.123-1.254 5.5-2.5-3.004-6.009-24-11.638-24-19.5-3.524 0-2.458-10-7-10l-1 1v18l1 1Z"/><path fill="#FF9BCD" id="MY" d="m323 263-1 2 1-2ZM328 264l-1 1 1-1ZM176 265l-3 .5c-6.995 6.995 6 8.581 6 5.5-7.209 0-3-2.397-3-6Z"/><path fill="#FEB3D8" id="AMBv" d="M178 265c0 1.564 1 3.876 1 6-7.209 0-3-2.397-3-6h2Z"/><path fill="#FF9BCD" id="MY" d="M178 265c4.072 0 3.382 6 1 6 0-2.124-1-4.436-1-6Z"/><path fill="#FCB3D7" id="LRNm" d="M159 283c1.818 0 9 2.517 9 5l5.5 3c8.603 4.302 14.169-2.838 17.5-9.5.64-1.279 5-3.232 5-5.5 0-2.925 3.424-11-3-11-7.217 0-13.73 15.885-21.5 12l-3-4-3.5-3c-1.907 0-10 1.321-10 4 0 6.866 4 8.459 4 9Z"/><path fill="#FF9BCD" id="MY" d="M228 277h1v-12h-1v12Z"/><path fill="#FCB3D7" id="LRNm" d="m289 287-1 1c-5.758 0-9.536 6.482-16.5 3-2.179-1.089-9.051-15-11.5-15 0-2.423-3.133-11 3-11 10.106 0 14.432 19.068 25 8.5l4-3.5c3.181 0 8.747 4 10 4 0 4.831-4 7.867-4 9-1.831 0-9 2.183-9 4Z"/><path fill="#FF9BCD" id="MY" d="m278 265-1 1 1-1Z"/><path fill="#FEB3D8" id="AMBv" d="M280 265c0 1.465 4.394 1.711 3 4.5-2.475 4.95-6-.454-6-3.5l1-1h2Z"/><path fill="#FF9BCD" id="MY" d="M280 265c5.171 0 6.968 5.766 2.5 8-4.035 2.018-8.472-7-5.5-7 0 3.046 3.525 8.45 6 3.5 1.394-2.789-3-3.035-3-4.5ZM135 266l1 1-1-1ZM327 266l-1 1 1-1ZM326 267l-1 1 1-1ZM138 268l1 1-1-1ZM318 268l-1 1 1-1ZM303 287c0 3.197-12.268 8-15 8 0-1.958 9-3.326 9-8 0-1.811 5.316-4 1-4 0-1.133 4-4.169 4-9 3.201 0 6-1.646 6-5h7c0 1.032-4 2.758-4 6h-1l-1 1c0 .083-11.973 11-6 11ZM325 269c-1.747 0-2 .253-2 2l2-2ZM317 274l-6 7c2.132 0 12-7.433 12-10l-6 3ZM221 272l-1 1 1-1Z"/><path fill="#C9CACA" id="sctd" d="m140 275 10.5 10c.68.68 3.773 2.955 4.5 1.5 2.481-4.963-8-7.744-8-10.5-1.624 0-7-6.35-7-1ZM303 287h1l1-1c0-1.901 4.332-5 6-5l6-7c0-3.408-5.576 1-6 1h-1l-1 1c0 .083-11.973 11-6 11Z"/><path fill="#C8CACA" id="sptV" d="m310 275-1 1 1-1Z"/><path fill="#FFC6E2" id="RPA" d="M228 293h1l2-2.5c1.081-2.161-1-4.894-1-6.5v-1l-1-1v-5h-1l-1 6c0 1.589-5.231 10 1 10Z"/><path fill="#FF9BCD" id="MY" d="M311 281c-1.668 0-6 3.099-6 5 2.195 0 6-3.089 6-5ZM229 282l1 1-1-1Z"/><path fill="#C8C8CB" id="rust" d="M168 288c0 1.579-2.855 1-4 1l-5-2c0-1.634-4.365-4 0-4 1.818 0 9 2.517 9 5ZM288 288c0 1.579 2.855 1 4 1l5-2c0-1.811 5.316-4 1-4-1.831 0-9 2.183-9 4l-1 1Z"/><path fill="#FF9BCD" id="MY" d="m305 286-1 1 1-1Z"/><path fill="#CBC7CC" id="sctv" d="m159 287 5 2c0 3.212 11 2.843 11 6.5 0 1.035-5.826-1.163-6.5-1.5-2.886-1.443-9.5-2.452-9.5-7Z"/><path fill="#FF9BCD" id="MY" d="m289 287-1 1 1-1Z"/><path fill="#CBC7CC" id="sctv" d="M287 295h1c0-1.958 9-3.326 9-8l-5 2c0 2.469-7.754 4.127-9.5 5-1.223.612-1.813 2.907 0 2 1.718-.859 2.387-1 4.5-1Z"/><path fill="#C7C9C9" id="py" d="m209 289 5.5-1c18.04 0-9.329 15.843-12.5 9.5l5-6.5 2-2ZM239 288c0 1.465-4.394 1.711-3 4.5 2.258 4.516 9.034 5.5 13.5 5.5 1.163 0 5.5.549 5.5-1.5 0-3.212-12.575-8.5-16-8.5Z"/><path fill="#FF9BCD" id="MY" d="M209 289c-1.747 0-2 .253-2 2l2-2Z"/></svg>