<svg xmlns="http://www.w3.org/2000/svg" viewBox="0 0 456 320"><path fill="#187F60" id="SSp-ll1" d="m134 29 1 5c5.828 0 21.062-6.281 26.5-9 2.508-1.254 12.984-1 15.5-1l-3-5c-5.942 0-26.965 3.733-31.5 6-2.249 1.125-6.003 4-8.5 4Z"/><path fill="#187C64" id="SSp-tr1" d="M177 24h8v-5h-11l3 5Z"/><path fill="#1BA696" id="RSPagl1" d="M207 24h2v-5h-24v5l16.5-1c1.278 0 5.5-.666 5.5 1Z"/><path fill="#1BA598" id="RSPd1" d="M223 49h10c0-6.383 1.642-23 10-23h1l2-1 1-1v-5c-6.621 0-11.007 7.507-15.5 12-1.374 1.374-1.056 5-3 5-1.848 0-10.74-17-19.5-17v5l2 1c11.352 0 12 15.905 12 24Z"/><path fill="#1BA696" id="RSPagl1" d="m250 23 21 1v-5h-24v5l3-1Z"/><path fill="#187C64" id="SSp-tr1" d="M279 24h1l3-5h-12v5h8Z"/><path fill="#187F60" id="SSp-ll1" d="m323 29-2 5c-3.835 0-7.269-2.385-10.5-4-8.022-4.01-21.045-6-30.5-6l3-5c5.862 0 25.953 3.727 30.5 6l9.5 4Z"/><path fill="#1AA496" id="RSPagl2/3" d="M199 24h8c0-1.666-4.222-1-5.5-1L185 24v1c4.725 0 9.879-1 14-1Z"/><path fill="#1E9D58" id="MOs2/3" d="m259 32-12.5 1-5.5 4c0-4.135 2-7.305 2-11h1l2-1 1-1 3-1c0 1.735 6.51 1 8 1 0 2.196 1 5.252 1 8Z"/><path fill="#1AA496" id="RSPagl2/3" d="M271 24v1c-4.414 0-9.177-1-13-1-1.49 0-8 .735-8-1l21 1Z"/><path fill="#187F64" id="SSp-ll2/3" d="M138 48h1c0-1.505 7.092-3.296 8.5-4 7.591-3.795 25.714-9 34.5-9v-2l-5-9c-2.516 0-12.992-.254-15.5 1-5.438 2.719-20.672 9-26.5 9v1c0 4.167 3 8.244 3 13Z"/><path fill="#188061" id="SSp-tr2/3" d="M185 25c-2.273 0-3 5.872-3 8l-5-9h8v1Z"/><path fill="#1F9C58" id="MOp2/3" d="M182 35v2c4.578 0 9.481-5 15-5h1l1-8c-4.121 0-9.275 1-14 1-2.273 0-3 5.872-3 8v2Z"/><path fill="#1E9D58" id="MOs2/3" d="m198 32 12.5 1 4.5 3c1.954 0 .162-6.177-1-8.5l-3-2.5-2-1h-10l-1 8Z"/><path fill="#1F9C58" id="MOp2/3" d="M274 35v1c-5.023 0-9.55-4-15-4 0-2.748-1-5.804-1-8 3.823 0 8.586 1 13 1 3.274 0 3 7.029 3 10Z"/><path fill="#188061" id="SSp-tr2/3" d="M274 35h1c0-4.382 4-6.709 4-11h-8v1c3.274 0 3 7.029 3 10Z"/><path fill="#187F64" id="SSp-ll2/3" d="M321 35c0 3.318-1.068 6.637-2 8.5-.523 1.046.951 3.5-1 3.5-3.856 0-7.268-2.384-10.5-4-6.351-3.176-25.186-8-32.5-8 0-4.382 4-6.709 4-11h1c9.455 0 22.478 1.99 30.5 6 3.231 1.615 6.665 4 10.5 4v1Z"/><path fill="#1BA697" id="RSPd2/3" d="m223 50-5 1-1-11-1-1-1-1v-2c1.954 0 .162-6.177-1-8.5l-3-2.5c11.352 0 12 15.905 12 24v1ZM246 25l-2 1 2-1Z"/><path fill="#1BA697" id="RSPd2/3" fill-rule="evenodd" d="M239 34c0 1.93 1.93 0 0 0m-6 16c2.483 0 4.026 2 6 2 0-1.741-.773-11 1-11l1-4c0-4.135 2-7.305 2-11-8.358 0-10 16.617-10 23v1Z"/><path fill="#197E64" id="SSp-ul1" d="M135 35c-5.459 0-9.477 6-15 6l-1-6 15-6 1 5v1ZM337 35c0 2.124-1 4.436-1 6-5.098 0-9.522-6-15-6v-1l2-5 14 6Z"/><path fill="#1E9C5A" id="MOp5" d="m193 48-13 6 2-17c4.578 0 9.481-5 15-5 0 5.506-3 9.826-3 15l-1 1Z"/><path fill="#1F9D58" id="MOs5" d="M194 47h10.5l1.5 2c3.218 0 5.402-7 9-7l1-2h1l-1-1-1-1v-2l-4.5-3-12.5-1h-1c0 5.506-3 9.826-3 15ZM263 47h-11.5l-1.5 2-9-8h-1l1-4 5.5-4 12.5-1c0 5.19 4 10.265 4 15Z"/><path fill="#1E9C5A" id="MOp5" d="m263 48 13 5-1-15-1-2c-5.023 0-9.55-4-15-4 0 5.19 4 10.265 4 15v1Z"/><path fill="#1E9D58" id="MOs2/3" d="M239 34c0 1.93 1.93 0 0 0Z"/><path fill="#1B8062" id="SSp-un1" d="M111 45h1l8-3v-1l-1-6-9 5 1 5Z"/><path fill="#197F61" id="SSp-ul2/3" d="M138 48c-4.829 0-9.72 6-15 6 0-1.761-1.873-12-3-12v-1c5.523 0 9.541-6 15-6 0 4.167 3 8.244 3 13Z"/><path fill="#1C7F64" id="SSp-ll4" d="M139 48c0 2.486 1 3.725 1 6 5.18 0 30.852-11.176 36.5-14l5.5-3v-2c-8.786 0-26.909 5.205-34.5 9-1.408.704-8.5 2.495-8.5 4ZM316 54h1c0-2.483 2-4.026 2-6l-1-1c-3.856 0-7.268-2.384-10.5-4-6.351-3.176-25.186-8-32.5-8h-1v1l1 2 41 16Z"/><path fill="#197F61" id="SSp-ul2/3" d="M319 48c4.443 0 8.953 6 14 6l3-13c-5.098 0-9.522-6-15-6 0 3.318-1.068 6.637-2 8.5-.523 1.046.951 3.5-1 3.5l1 1Z"/><path fill="#1B8062" id="SSp-un1" d="M336 41c2.759 0 5.795 4 9 4l1-6-9-4c0 2.124-1 4.436-1 6Z"/><path fill="#197C63" id="SSp-ll5" d="M144 67h1c0-1.96 6.099-2.3 7.5-3 2.942-1.471 25.436-10 27.5-10l2-17-5.5 3c-5.648 2.824-31.32 14-36.5 14v1c0 4.37 4 7.918 4 12Z"/><path fill="#1AA596" id="RSPd5" d="m215 38 1 1-1-1Z"/><path fill="#197C63" id="SSp-ll5" d="M316 54c0 3.876-4 8.682-4 13l-8.5-4c-1.516-.758-26.966-9-27.5-9v-1l-1-15 41 16Z"/><path fill="#188060" id="SSp-bfd1" d="M399 92h6l-8-11.5c-6.307-12.615-24.991-27.246-37.5-33.5L346 39l-1 6v1c4.853 0 8.406 4.953 12.5 7 5.341 2.67 26.813 17.126 29.5 22.5l9 12c.592 1.185 1.012 4.5 3 4.5ZM58 92l-1 1-5-1c0-4.97 6.86-9.22 9-13.5C66.777 66.946 88.065 51.217 98.5 46c3.272-1.636 7.747-6 11.5-6l1 5c0 .665-15.445 8.973-17.5 10-4.843 2.421-23.938 19.377-26.5 24.5-1.981 3.962-9 7.933-9 12.5Z"/><path fill="#3EA566" id="ACAd5" d="m216 40-1 2 1-2Z"/><path fill="#1AA596" id="RSPd5" d="m218 53-5 2c0-4.908 2-8.486 2-13l1-2h1l1 11v2ZM239 53l4 2c0-5.289-2-9.478-2-14h-1c-1.773 0-1 9.259-1 11v1Z"/><path fill="#3EA566" id="ACAd5" d="m245 61 4 3c0-4.725 1-9.879 1-14v-1l-9-8c0 4.522 2 8.711 2 14 0 3.334 2 3.56 2 6Z"/><path fill="#1C7F63" id="SSp-un2/3" d="M333 55c3.238 0 5.3 3 8 3 0-1.083 3.598-12 4-12v-1c-3.205 0-6.241-4-9-4l-3 13v1ZM123 55l-8 3-3-13 8-3c1.127 0 3 10.239 3 12v1Z"/><path fill="#3EA566" id="ACAd5" d="m211 62-4 2c0-1.991.793-14-1-14v-1c3.218 0 5.402-7 9-7 0 4.514-2 8.092-2 13 0 2.833-2 4.84-2 7Z"/><path fill="#187F63" id="SSp-bfd2/3" d="M69 92h1l1-1c0-3.01 6.23-8.73 9-11.5 5.892-5.892 27.76-20.5 35-20.5v-1l-3-13h-1c0 .665-15.445 8.973-17.5 10-4.843 2.421-23.938 19.377-26.5 24.5-1.981 3.962-9 7.933-9 12.5v1l3-.5-.5-1.5 3 2c1.653 0 3.7-1 5.5-1ZM399 92v1c-1.943 0-3.375-2-4.5-2l-2 2c-1.717 0-3.944-1-5.5-1h-1c0-4.614-7.032-7.564-9-11.5-2.226-4.451-29.807-22.5-36-22.5 0-1.083 3.598-12 4-12 4.853 0 8.406 4.953 12.5 7 5.341 2.67 26.813 17.126 29.5 22.5l9 12c.592 1.185 1.012 4.5 3 4.5Z"/><path fill="#1D9C5A" id="MOs6a" d="M191 67h5c0-5.472 10-13.593 10-17v-1l-1.5-2H194l-1 1c0 6.14-2 12.133-2 19ZM261 67c0-1.762 3.576 0 5 0 0-6.764-3-13.02-3-19v-1h-11.5l-1.5 2v1c2.257 0 10 14.476 10 17h1Z"/><path fill="#1A7F63" id="SSp-ul4" d="M140 55c-5.714 0-9.563 6-15 6 0-1.623-.005-6-2-6v-1c5.28 0 10.171-6 15-6h1c0 2.486 1 3.725 1 6v1Z"/><path fill="#1F9B5A" id="MOp6a" d="m191 67-13 5c-.154 0-.685-4.13 0-5.5.974-1.948 2-8.776 2-12.5l13-6c0 6.14-2 12.133-2 19ZM266 67c4.029 0 8.179 5 13 5 0-5.71-3-12.538-3-18v-1l-13-5c0 5.98 3 12.236 3 19Z"/><path fill="#1A7F63" id="SSp-ul4" d="m333 55-2 6-14-7c0-2.483 2-4.026 2-6 4.443 0 8.953 6 14 6v1Z"/><path fill="#1BA597" id="RSPv1" d="M229 83h2l2-2V49h-10v32l3 2h1c0-3.15 2-3.446 2 0Z"/><path fill="#3FA664" id="ACAd6a" d="M196 67c2.364 0 3.053 3 5 3l6-5v-1c0-1.991.793-14-1-14 0 3.407-10 11.528-10 17Z"/><path fill="#1AA597" id="RSPv2/3" d="M219 81h4V50l-5 1v2c0 9.22 1 19.46 1 28ZM233 81h5l1-28v-1c-1.974 0-3.517-2-6-2v31Z"/><path fill="#3FA664" id="ACAd6a" d="M255 71h1l1-1c0-1.747.253-2 2-2l1-1c0-2.524-7.743-17-10-17 0 4.121-1 9.275-1 14v1l6 6Z"/><path fill="#1BA498" id="RSPv5" d="M219 81c-2.707 0-5.903 1-8 1 0-1.041-.986-5-2-5v-1c1.065 0 2-13.248 2-14 0-2.16 2-4.167 2-7l5-2c0 9.22 1 19.46 1 28ZM245 82h1c0-1.145-.579-4 1-4v-5l-2-12c0-2.44-2-2.666-2-6l-4-2-1 28c2.409 0 5.181 1 7 1Z"/><path fill="#1A7F64" id="SSp-ll6a" d="m178 73-26 7c0-4.287-7-8.23-7-13 0-1.96 6.099-2.3 7.5-3 2.942-1.471 25.436-10 27.5-10 0 3.724-1.026 10.552-2 12.5-.685 1.37-.154 5.5 0 5.5v1ZM304 80h1c0-4.738 7-8.15 7-13l-8.5-4c-1.516-.758-26.966-9-27.5-9 0 5.462 3 12.29 3 18v1l25 7Z"/><path fill="#187E62" id="SSp-ul5" d="M312 67c5.731 0 10.121 6 16 6l3-12-14-7h-1c0 3.876-4 8.682-4 13Z"/><path fill="#197E61" id="SSp-un4" d="M125 62c-3.205 0-5.091 5-8 5 0-3.091-2-5.478-2-8v-1l8-3c1.995 0 2 4.377 2 6v1Z"/><path fill="#187E62" id="SSp-ul5" d="m144 67-15 6c-2.841 0-1.159-11-4-11v-1c5.437 0 9.286-6 15-6 0 4.37 4 7.918 4 12Z"/><path fill="#197E61" id="SSp-un4" d="M331 61c2.909 0 4.795 5 8 5l2-8c-2.7 0-4.762-3-8-3l-2 6Z"/><path fill="#197C64" id="SSp-bfd4" d="M373 91h5.5l1 2c1.669 0 3.658-1 6.5-1 0-4.614-7.032-7.564-9-11.5-2.226-4.451-29.807-22.5-36-22.5l-2 8v1l25.5 16c2.002 1 5.048 8 8.5 8ZM82 92h1l7.5-7c3.376-3.376 23.009-18 26.5-18 0-3.091-2-5.478-2-8-7.24 0-29.108 14.608-35 20.5-2.77 2.77-9 8.49-9 11.5 0 2.361 9.123 1 11 1Z"/><path fill="#3EA666" id="ACAv5" d="M249 65c0 .981-1.184 8-2 8l-2-12 4 3v1Z"/><path fill="#197D62" id="SSp-un5" d="m328 74 8 5 3-12v-1c-3.205 0-5.091-5-8-5l-3 12v1ZM120 79h1c0-1.985 6.262-5 8-5v-1c-2.841 0-1.159-11-4-11-3.205 0-5.091 5-8 5 0 3.813 3 7.204 3 12Z"/><path fill="#3EA666" id="ACAv5" d="M207 65c1.679 0 2 9.076 2 11 1.065 0 2-13.248 2-14l-4 2v1Z"/><path fill="#40A564" id="ACAv6a" d="M209 77v3c-1.938 0-8-7.325-8-9v-1l6-5c1.679 0 2 9.076 2 11v1ZM247 82h1c0-2.403 4.125-9 7-9v-2l-6-6c0 .981-1.184 8-2 8v9Z"/><path fill="#1E9C58" id="MOs6b" d="M191 68h5v-1h-5v1ZM261 68h4l1-1c-1.424 0-5-1.762-5 0v1Z"/><path fill="#1A7D62" id="SSp-bfd5" d="M97 93h2l4.5-4L120 79c0-4.796-3-8.187-3-12-3.491 0-23.124 14.624-26.5 18L83 92l6.5-1 4 2c.507 0 3.5-2.626 3.5 0Z"/><path fill="#197D61" id="SSp-ul6a" d="M147 83c-5.522 0-9.13 7-14 7 0-5.674-4-10.298-4-16v-1l15-6h1c0 4.77 7 8.713 7 13v1c-1.424 0-5 .362-5 2Z"/><path fill="#1D9D5A" id="MOp6b" d="M178 72v1c2.343 0 13-2.613 13-5v-1l-13 5Z"/><path fill="#CACCC7" id="cing" d="M211 84v1c-7.096 0-11.597-7.049-17.5-10-6.006-3.003-14.186 3-20.5 3l-1 1h-9c0-3.196 15-1.981 15-6 2.343 0 13-2.613 13-5h5l4 3c0 2.09 6.419 11 9 11l1 1 1 1Z"/><path fill="#3FA466" id="ACAd6b" d="M200 71h1v-1c-1.947 0-2.636-3-5-3v1l4 3ZM259 68h2v-1h-1l-1 1Z"/><path fill="#1D9D5A" id="MOp6b" d="M279 73v1c-1.855 0-14-4.298-14-6l1-1c4.029 0 8.179 5 13 5v1Z"/><path fill="#197D61" id="SSp-ul6a" d="m305 80 18 9c2.064 0 .426-3.353 1-4.5 1.481-2.961 4-7.05 4-10.5v-1c-5.879 0-10.269-6-16-6 0 4.85-7 8.262-7 13Z"/><path fill="#1A7D62" id="SSp-bfd5" d="M357 93h2c0-1.131 12.385-1 14-1v-1c-3.452 0-6.498-7-8.5-8L339 67l-3 12c2.354 0 21 12.928 21 14Z"/><path fill="#3FA466" id="ACAd6b" d="M259 68c-1.747 0-2 .253-2 2l2-2Z"/><path fill="#CACCC7" id="cing" d="M245 84v1c7.781 0 11.124-6.812 17.5-10 6.576-3.288 15.559 3 21.5 3l1 1h8c0-.926-12.383-5-14-5-1.855 0-14-4.298-14-6h-6l-2 2-1 2-1 1c0 1.602-5.561 9-7 9h-1l-1 1-1 1Z"/><path fill="#3FA466" id="ACAd6b" d="M256 71v1l1-2-1 1Z"/><path fill="#40A465" id="ACAv6b" d="M209 80v2c-2.581 0-9-8.91-9-11h1c0 1.675 6.062 9 8 9ZM256 72l-1 1v-2h1v1Z"/><path fill="#197F62" id="SSp-ll6b" d="M152 81h1l10-2c0-3.196 15-1.981 15-6l-26 7v1Z"/><path fill="#40A465" id="ACAv6b" d="M255 73c-2.875 0-7 6.597-7 9 1.439 0 7-7.398 7-9Z"/><path fill="#197F62" id="SSp-ll6b" d="M304 80v1c-4.404 0-6.758-2-11-2 0-.926-12.383-5-14-5v-1l25 7Z"/><path fill="#1A7F61" id="SSp-un6a" d="m129 93-6 2c0-5.474-2-9.96-2-16 0-1.985 6.262-5 8-5 0 5.702 4 10.326 4 16v1l-4 2Z"/><path fill="#C9C7C9" id="ccb" d="M379 174h3v-1l-1-6c-1.995 0-2-4.377-2-6v-2l-2-3v-2c-2.453 0-1.447-2.947-2.5-4l-7.5-15v-1c-2.498 0-5.328-7.828-7-9.5-7.704-7.704-15.667-18.584-25.5-23.5l-36-17c-1.968-.984-12.5-2.548-12.5-5h-1l-1-1c-5.941 0-14.924-6.288-21.5-3-6.376 3.188-9.719 10-17.5 10-2.709 0-4.646 2-8 2l-3-1-1 1c-1.765 0-10 .03-10-1l-4 1c-3.354 0-5.291-2-8-2-7.096 0-11.597-7.049-17.5-10-6.006-3.003-14.186 3-20.5 3l-1 1h-2c0 2.485-7.838 3.169-9.5 4-11.46 5.73-23.532 10.266-35 16-10.547 5.273-18.474 14.474-27.5 23.5-1.863 1.863-5.169 10.5-8 10.5l-1 2c0 1.888-4.426 12-6 12l-2 4-1 2v1l-1 1v2l-1 1v1l-1 2v1c0 1.145.58 4-1 4v1l-1 1v4l-1 1v1h3c0-10.806 7.445-20.389 12-29.5 5.635-11.269 22.279-32.389 32.5-37.5 4.535-2.267 9.517-3.758 14-6l7.5 1c0-1.569 2.671-5 4-5l2-2h1l1-1 2-1h1l1-1 11.5-5H179c3.172 0 6.873-5.313 11.5-3 3.076 1.538 20.138 9 22.5 9h9.5l6 2c4.524-2.262 10.031-2 15.5-2 3.138 0 17.946-7.223 21.5-9 4.668-2.334 9.351 3 11.5 3h12.5l14.5 6c3.333 0 9 5.667 9 9l8.5-1c23.802 11.901 38.726 27.952 50.5 51.5 3.211 6.422 7 13.851 7 21.5Z"/><path fill="#1A7F61" id="SSp-un6a" d="m323 90 10 5c0-4.92 3-10.739 3-16l-8-5c0 3.45-2.519 7.539-4 10.5-.574 1.147 1.064 4.5-1 4.5v1Z"/><path fill="#1AA498" id="RSPv6a" d="M210 83h1v-1c0-1.041-.986-5-2-5v5l1 1Z"/><path fill="#C9C9CA" id="scwm" d="m173 78-1 1 1-1Z"/><path fill="#1AA498" id="RSPv6a" d="m247 82-1 1v-1c0-1.145-.579-4 1-4v4Z"/><path fill="#C9C9CA" id="scwm" d="m284 78 1 1-1-1Z"/><path fill="#198060" id="SSp-bfd6a" d="M118 99h1c0-2.098 1.939-3 4-3v-1c0-5.474-2-9.96-2-16h-1l-16.5 10-4.5 4c3.306 0 4.306.903 6.5 2l3-1c2.734 1.367 5.286 5 8.5 5h1Z"/><path fill="#C9C9CA" id="scwm" d="m91 129-1 4c2.831 0 6.137-8.637 8-10.5 9.026-9.026 16.953-18.227 27.5-23.5 11.468-5.734 23.54-10.27 35-16 1.662-.831 9.5-1.515 9.5-4h-7l-10 2c0 1.995-4.377 2-6 2 0 .352-12.115 8-14 8 0 2.109-2.535 2-4 2 0 1.617-4.583 4-6 4l-4 2v1l-2 1c0 1.577-1.762 2-3 2 0 1.577-1.762 2-3 2 0 2.226-1.774 4-4 4 0 2.473-3.527 6-6 6 0 3.672-3.735 2.971-5 5.5l-2 5-3 3.5ZM365 128c0 2.447 2 3.28 2 6-2.498 0-5.328-7.828-7-9.5-7.704-7.704-15.667-18.584-25.5-23.5l-36-17c-1.968-.984-12.5-2.548-12.5-5h7c4.242 0 6.596 2 11 2 0 2.871 3.13 1.315 4.5 2 3.851 1.926 10.189 8 14.5 8l10 6c2.364 0 3.053 3 5 3l16.5 15c3.569 1.785 9.435 13 10.5 13Z"/><path fill="#198060" id="SSp-bfd6a" d="M338 99h1c3.952 0 5.117-5 9.5-5 .174 0 4.5.545 4.5.5l-.5-1.5c1.583-.792 4.5 1.615 4.5 0 0-1.072-18.646-14-21-14 0 5.261-3 11.08-3 16v1c1.408 0 5 1.197 5 3Z"/><path fill="#1C8064" id="SSp-ul6b" d="M323 90v1c-4.311 0-10.649-6.074-14.5-8-1.37-.685-4.5.871-4.5-2v-1h1l18 9v1ZM153 81c0 1.995-4.377 2-6 2 0-1.638 3.576-2 5-2h1Z"/><path fill="#3EA666" id="ACAv5" d="M211 85c2.709 0 4.646 2 8 2v-6c-2.707 0-5.903 1-8 1v3Z"/><path fill="#3FA566" id="ACAv2/3" d="m223 86-4 1v-6h4v5Z"/><path fill="#40A664" id="ACAv1" d="M226 83c0 1.577-1.762 2-3 2v-4l3 2ZM234 86l-1 1-2-4 2-2 1 5Z"/><path fill="#3FA566" id="ACAv2/3" d="m234 86 3 1 1-6h-5l1 5Z"/><path fill="#3EA666" id="ACAv5" d="M245 85c-2.709 0-4.646 2-8 2l1-6c2.409 0 5.181 1 7 1v3Z"/><path fill="#40A564" id="ACAv6a" d="m246 83-1 1v-2h1v1Z"/><path fill="#1C8064" id="SSp-ul6b" d="M133 90v1c1.885 0 14-7.648 14-8-5.522 0-9.13 7-14 7Z"/><path fill="#40A564" id="ACAv6a" d="M211 83v1l-1-1h1Z"/><path fill="#7ED04B" id="IG" d="M223 86c0 1.03 8.235 1 10 1l-2-4h-2c0 1.93-1.161 0-2 0h-1c0 1.577-1.762 2-3 2v1Z"/><path fill="#C7C8CC" id="alv" d="M206 108h3l4-3c-3.2 0-8.003 3.749-11.5 2-4.679-2.34-23.513-7.475-18.5-17.5 3.806-7.612 32.524 4.048 35 9 1.468 2.936-5 4.47-5 6.5h2l1-1 2-1c0-2.009 1-4.272 1-6 0-2.517-6-.996-6-4-2.362 0-19.424-7.462-22.5-9-4.627-2.313-8.328 3-11.5 3v10.5l3 3.5c4.013 0 8.07 4.285 11.5 6l12.5 1ZM248 108h3l14.5-2c2.614-1.307 5.44-5 8.5-5l4-5.5-1-8.5c-2.149 0-6.832-5.334-11.5-3-3.554 1.777-18.362 9-21.5 9l-1 2 22.5-9c6.224-3.112 9.561 6.379 7.5 10.5-4.063 8.126-27.612 16.776-34 4-1.722-3.443 3-3.168 3-5.5l-4 1-1 1c0 3.715 4 5.378 4 8 .888 0 7 2.573 7 3Z"/><path fill="#7ECF49" id="CA3" d="M213 105c0-2.03 6.468-3.564 5-6.5-2.476-4.952-31.194-16.612-35-9-5.013 10.025 13.821 15.16 18.5 17.5 3.497 1.749 8.3-2 11.5-2ZM242 95h1l22.5-9c6.224-3.112 9.561 6.379 7.5 10.5-4.063 8.126-27.612 16.776-34 4-1.722-3.443 3-3.168 3-5.5Z"/><path fill="#A8AAAA" id="VL" fill-rule="evenodd" d="M169 90c0 .652-3.297 2.095-4 3.5-1.09 2.18 1.223 8.554-1 13-1.523 3.045-8.98 4.04-7 8 5.294 10.588 36.157-24.5 12-24.5m-13 37h1v-5.5l4.5-1.5 10-7c7.042-3.521 10.5-3.705 10.5-12l-3-3.5V87h-12.5L155 92l-1 1h-1l-2 1-1 1h-1c0 1.747-.253 2-2 2l-1 6c2.561 0 8.557 12.614 10 15.5v8.5ZM283 90l-4 4.5v7c0 5.689 17.464 20.073 21 13 1.735-3.47-5.918-4.836-7-7-3.724-7.447 1.508-17.5-10-17.5m27 13c0 3.141-10 13.206-10 22-2.205 0-.002-3.251-1.5-4-7.704-3.852-15.322-8.161-23-12-1.885-.943 1.122-8-1.5-8l4-5.5-1-8.5h12.5l14.5 6c0 1.705 6 3.9 6 10Z"/><path fill="#A9AAA8" id="chpl" d="M169 90c0 .652-3.297 2.095-4 3.5-1.09 2.18 1.223 8.554-1 13-1.523 3.045-8.98 4.04-7 8 5.294 10.588 36.157-24.5 12-24.5ZM283 90l-4 4.5v7c0 5.689 17.464 20.073 21 13 1.735-3.47-5.918-4.836-7-7-3.724-7.447 1.508-17.5-10-17.5Z"/><path fill="#1A7D63" id="SSp-un6b" d="M333 96v1l-10-6v-1l10 5v1Z"/><path fill="#1B7F64" id="SSp-n2/3" d="M62 106h1c0-4.983 6-8.84 6-13v-1c-1.8 0-3.847 1-5.5 1l-3-2 .5 1.5-3 .5h-1l-3 6c2.314 0-.837 1.331.5 2 1.431.716 7.5 3.243 7.5 5Z"/><path fill="#1A8062" id="SSp-n4" d="M68 111h1c0-6.148 13-14.636 13-19-1.877 0-11 1.361-11-1l-1 1-1 1c0 4.16-6 8.017-6 13l5 5Z"/><path fill="#197E62" id="SSp-n5" fill-rule="evenodd" d="M89 92c0 1.93 1.93 0 0 0m-12 26h1c0-7.673 10.81-14.12 14-20.5l5-4.5c0-2.626-2.993 0-3.5 0l-4-2-6.5 1h-1c0 4.364-13 12.852-13 19 2.038 0 8 5.366 8 7Z"/><path fill="#1A7D63" id="SSp-un6b" d="m133 91-4 2c1.465 0 4 .109 4-2Z"/><path fill="#197E62" id="SSp-n5" d="m388 111-9 6c-3.077 0-5.152-8.652-7-10.5L359 93c0-1.131 12.385-1 14-1 3.878 0 13.559 18 15 18v1Z"/><path fill="#1A8062" id="SSp-n4" d="m394 106-6 4c-1.441 0-11.122-18-15-18v-1h5.5l1 2c1.669 0 3.658-1 6.5-1h1l7 14Z"/><path fill="#1B7F64" id="SSp-n2/3" d="M402 99c0 1.716-6.193 7-8 7l-7-14c1.556 0 3.783 1 5.5 1l2-2c1.125 0 2.557 2 4.5 2l3 6Z"/><path fill="#188060" id="SSp-bfd1" d="m52 92-1 1 1-1Z"/><path fill="#197E63" id="SSp-n1" d="M53 99h1l3-6-5-1-1 1-2 3 4 3ZM57 93h1v-1l-1 1Z"/><path fill="#197C64" id="SSp-bfd4" d="m70 92-1 1v-1h1Z"/><path fill="#1A7D62" id="SSp-bfd5" d="M89 92c0 1.93 1.93 0 0 0Z"/><path fill="#AAA8A9" id="SEZ" d="m155 92-1 1 1-1Z"/><path fill="#197E63" id="SSp-n1" d="M402 99h1c0-1.946 1.158.341 2-.5l2-2.5-2-4h-6v1l3 6Z"/><path fill="#187D62" id="SSp-n6a" d="M90 128h1c0-3.726 6.597-13 10-13l6-6 4-4c0-1.577 1.762-2 3-2 0-1.577 1.762-2 3-2v-2c-3.214 0-5.766-3.633-8.5-5l-3 1c-2.194-1.097-3.194-2-6.5-2h-2l-5 4.5c-3.19 6.38-14 12.827-14 20.5l12 10Z"/><path fill="#1A7D63" id="SSp-un6b" d="M123 96v1c1.417 0 6-2.383 6-4l-6 2v1Z"/><path fill="#AAA8A9" id="SEZ" d="m153 93-2 1 2-1Z"/><path fill="#CBC8CC" id="df" d="M219 97h18l1-1 4-1h1l1-2c-5.469 0-10.976-.262-15.5 2l-6-2H213c0 3.004 6 1.483 6 4Z"/><path fill="#AAA8A9" id="SEZ" d="m313 102-3 1c0-6.1-6-8.295-6-10 3.333 0 9 5.667 9 9Z"/><path fill="#187D62" id="SSp-n6a" d="M379 118c-4.994 0-7.946 9-13 9-3.227 0-3.789-6.289-5.5-8l-15-15c-1.433-1.433-6.5-2.293-6.5-5 3.952 0 5.117-5 9.5-5 .174 0 4.5.545 4.5.5l-.5-1.5c1.583-.792 4.5 1.615 4.5 0h2l13 13.5c1.848 1.848 3.923 10.5 7 10.5v1Z"/><path fill="#AAA8A9" id="SEZ" d="m151 94-1 1 1-1ZM149 95l-2 2c1.747 0 2-.253 2-2Z"/><path fill="#1A7E62" id="SSs1" d="M31 169h5c0-13.342 3.585-37.67 9-48.5 2.82-5.638 8-15.064 8-21.5l-4-3c0 2.776-8.248 19.995-10 23.5-4.856 9.711-8 37.353-8 49.5Z"/><path fill="#1A7E61" id="SSp-bfd6b" d="m123 97-4 2c0-2.098 1.939-3 4-3v1ZM338 99v1c-1.947 0-2.636-3-5-3v-1c1.408 0 5 1.197 5 3Z"/><path fill="#1A7E62" id="SSs1" d="M421 169h4c0-14.549-2.017-38.533-8-50.5l-6-16-4-6.5-2 2.5c-.842.841-2-1.446-2 .5 0 5.711 5.444 15.388 8 20.5 5.099 10.198 10 37.107 10 49.5Z"/><path fill="#AAA8A9" id="SEZ" d="m143 102 3 1 1-6c-1.329 0-4 3.431-4 5Z"/><path fill="#1B8063" id="SSs2/3" d="m36 169 8 2c0-10.979 6.575-38.65 11-47.5 2.33-4.661 7-12.178 7-17.5 0-1.757-6.069-4.284-7.5-5-1.337-.669 1.814-2-.5-2h-1c0 6.436-5.18 15.862-8 21.5-5.415 10.83-9 35.158-9 48.5Z"/><path fill="#1B7E64" id="SSp-n6b" d="m119 100-2 1v-2h1l1 1Z"/><path fill="#1A7E61" id="SSp-bfd6b" d="M119 99v1l-1-1h1Z"/><path fill="#1B7E64" id="SSp-n6b" d="M365 128h1v-1c-3.227 0-3.789-6.289-5.5-8l-15-15c-1.433-1.433-6.5-2.293-6.5-5h-1v1l16.5 15c3.569 1.785 9.435 13 10.5 13Z"/><path fill="#1B8063" id="SSs2/3" d="m421 169-8 2c0-9.544-8.064-40.629-12-48.5l-7-16.5c1.807 0 8-5.284 8-7h1c0 5.711 5.444 15.388 8 20.5 5.099 10.198 10 37.107 10 49.5Z"/><path fill="#1B7E64" id="SSp-n6b" d="M117 101c-1.238 0-3 .423-3 2 1.238 0 3-.423 3-2Z"/><path fill="#98D5F9" id="CP" d="m129 226-1 1c-3.946 0-12.052 7.224-18.5 4L95 222l-8-13.5c-5.499-10.997-10-21.087-10-34.5 0-10.806 7.445-20.389 12-29.5 5.635-11.269 22.279-32.389 32.5-37.5 4.535-2.267 9.517-3.758 14-6l7.5 1 3 1c2.561 0 8.557 12.614 10 15.5V129l-1 2v1l-1 1-1 2-2 2-9-1c-10.483 0-7 13.621-7 22-3.196 0-4.962 9.424-6 11.5-2.273 4.546-7.707 29.586-5 35l5 11.5v10Z"/><path fill="#CBC8CB" id="fi" d="M159 139h1c5.539 0 16.359-12 30-12 0-2.453 2.947-1.447 4-2.5 2.188-2.188 7.723-9.5 11-9.5 0-2.607 1-4.913 1-7l-12.5-1c-3.43-1.715-7.487-6-11.5-6 0 8.295-3.458 8.479-10.5 12l-10 7-4.5 1.5v5.5l-1 1v1l-1 2v1c0 3.313 4 4.49 4 7ZM298 138l-1 1c-6.257 0-8.41-5.455-13.5-8-10.994-5.497-26.276-4.052-33.5-18.5l1-4.5 14.5-2c2.614-1.307 5.44-5 8.5-5 2.622 0-.385 7.057 1.5 8 7.678 3.839 15.296 8.148 23 12 1.498.749-.705 4 1.5 4v3l1 1v2c0 2.124-1 4.436-1 6l-2 1Z"/><path fill="#98D5F9" id="CP" d="M327 225v1c1.901 0 12.945 8.278 19.5 5 3.633-1.816 10.537-8 14.5-8v-1l1-1c2.382 0 1.982-7 5-7 0-4.758 3.985-9.47 6-13.5l2-3.5 2-4c0-1.623.005-6 2-6v-13c0-7.649-3.789-15.078-7-21.5-11.774-23.548-26.698-39.599-50.5-51.5l-8.5 1-3 1c0 3.141-10 13.206-10 22v3l1 1v2l2 3 2.5 3 8.5-1 3.5-1c7.337 3.669 3.5 16.148 3.5 22 2.508 0 5.043 9.586 6 11.5 3.164 6.328 8.422 31.156 5 38l-4 8.5-1 1v9Z"/><path fill="#1B7E64" id="SSp-n6b" d="M114 103c-1.238 0-3 .423-3 2 1.238 0 3-.423 3-2Z"/><path fill="#7BD04A" id="DG-mo" d="M205 115c0 5.4 3.327 4 8 4 0-2.407 14.542-16 5-16l-2 1-1 1-5 5-5 5ZM241 105c-1.602 0-2.384-3.058-4.5-2-5.377 2.688 7.518 15.759 8 16l7.5-.5c1.6-3.2-5-4.893-5-7.5l-6-6Z"/><path fill="#7DCD4B" id="HPF" d="m216 104-1 1 1-1Z"/><path fill="#1B7E64" id="SSp-n6b" d="m111 105-4 4c2.226 0 4-1.774 4-4Z"/><path fill="#7DCD4B" id="HPF" d="m209 108 1 2 5-5h-2l-4 3Z"/><path fill="#A8A9AA" id="V3" fill-rule="evenodd" d="M216 123c0 2.797-5.483 2.535-3 7.5 5.156 10.312 13.291 2.396 15.5 3.5 3.481 1.741 7.17 2.915 11 1 5.334-2.667 6.019-9.491 1-12-1.022-.511-8.785 2.392-10 3l-2 3-2-3c-2.212-1.106-8.087-3-10.5-3m4 16 8.5 5 8.5-5c0-2.275 3.756-4 6-4l1-1c.582 0 7.828-4 9-4l1-3c0-5.108-8.65-6.075-12.5-8-3.763-1.882-5.007-6.515-6.5-9.5-.463-.927-6.065-5.217-7.5-4.5-5.856 2.928-7.949 14-14.5 14 0 3.976-10 .558-10 8 0 5.985 10 4.913 10 8 2.025 0 7 1.233 7 4Z"/><path fill="#7DCD4B" id="HPF" d="M248 108c-3.382 0-1 1.342-1 3l-6-6c.888 0 7 2.573 7 3Z"/><path fill="#187C63" id="SSs4" d="M44 171h5c0-8.772 6.245-34.989 10-42.5l9-17.5-5-5h-1c0 5.322-4.67 12.839-7 17.5-4.425 8.85-11 36.521-11 47.5ZM408 171h5c0-9.544-8.064-40.629-12-48.5l-7-16.5-6 4v1c2.998 0 5.898 11.296 7 13.5 6.441 12.883 12 31.323 12 46.5h1Z"/><path fill="#1B7E64" id="SSp-n6b" d="m107 109-6 6c2.473 0 6-3.527 6-6Z"/><path fill="#1C8063" id="SSs5" d="m49 171 13 1c0-10.015 2.855-27.21 7-35.5l8-18.5c0-1.634-5.962-7-8-7h-1l-9 17.5c-3.755 7.511-10 33.728-10 42.5ZM407 171l-12 1c0-9.176-4.114-28.727-8-36.5l-8-17.5v-1l9-6c2.998 0 5.898 11.296 7 13.5 6.441 12.883 12 31.323 12 46.5Z"/><path fill="#1B7E64" id="SSp-n6b" d="M91 128v1l3-3.5 2-5c1.265-2.529 5-1.828 5-5.5-3.403 0-10 9.274-10 13Z"/><path fill="#197D63" id="SSs6a" d="M62 172c2.998 0 7.358 1 11 1 0-10.476 5.544-23.589 10-32.5 1.9-3.8 7-8.062 7-12.5l-12-10h-1l-8 18.5c-4.145 8.29-7 25.485-7 35.5ZM395 172c-3.312 0-8.038 1-12 1 0-11.337-5.232-23.964-10-33.5-1.733-3.466-7-7.511-7-11.5v-1c5.054 0 8.006-9 13-9l8 17.5c3.886 7.773 8 27.324 8 36.5Z"/><path fill="#A9AAA8" id="chpl" d="M216 123c0 2.797-5.483 2.535-3 7.5 5.156 10.312 13.291 2.396 15.5 3.5 3.481 1.741 7.17 2.915 11 1 5.334-2.667 6.019-9.491 1-12-1.022-.511-8.785 2.392-10 3l-2 3-2-3c-2.212-1.106-8.087-3-10.5-3Z"/><path fill="#FF8F9E" id="AD" d="m202 155-2 2c0-7.2-12-13.11-12-20 0-2.097-1-5.293-1-8 1.238 0 3-.423 3-2l8.5-1 3.5 2v16l1 2v3c0 2.124-1 4.436-1 6ZM254 155l2 1 13-19v-8l-5.5-3-8.5 1c0 1.238-.423 3-2 3 0 4.514 2 8.092 2 13l-1 2c0 1.145.579 4-1 4l1 6Z"/><path fill="#CCC9C8" id="sm" d="m203 147 1 1c2.891 0 9-3.519 9-7v-6c0-3.087-10-2.015-10-8l-1 1v16l1 2v1ZM255 127c0 1.238-.423 3-2 3l1-3h1Z"/><path fill="#1A8061" id="SSs6b" d="M73 173h1l1-1v-4l1-1v-1c0-1.145-.58-4 1-4v-1l1-2v-1l1-1v-2l1-1v-1l1-2c0-1.465-.109-4 2-4 0-2.396 3.023-12 6-12l1-2 1-4v-1h-1c0 4.438-5.1 8.7-7 12.5-4.456 8.911-10 22.024-10 32.5ZM382 173h1c0-11.337-5.232-23.964-10-33.5-1.733-3.466-7-7.511-7-11.5h-1c0 2.447 2 3.28 2 6v1c2.269 0 10 16.767 10 19v2c1.577 0 2 1.762 2 3v2c1.995 0 2 4.377 2 6l1 6Z"/><path fill="#FF909D" id="LD" d="M169 144h1c0-10.241 12.278-7 18-7 0-2.097-1-5.293-1-8-3.543 0-21 6.14-21 10l1 3 2 2ZM286 144h1l1-1 1-1 1-1 1-1c0-4.686-18.164-11-22-11v8c5.62 0 17-3.211 17 7Z"/><path fill="#CCC9C8" id="sm" d="M254 145c-1.473 0-1 1.952-1 3-3.178 0-9-3.179-9-7v-7c.582 0 7.828-4 9-4 0 4.514 2 8.092 2 13l-1 2Z"/><path fill="#C9C9CA" id="scwm" d="m90 133-1 2 1-2Z"/><path fill="#97D6F9" id="STR" d="m154 133-1 2 1-2Z"/><path fill="#FF6F80" id="TH" d="M242 141h2v-7l-1 1c0 1.235.643 5-1 5v1Z"/><path fill="#97D6F9" id="STR" d="m313 140-1 1-5-1c0-1.747-.253-2-2-2l-1-1-1-3 2.5 3 8.5-1-1 4Z"/><path fill="#C9C9CA" id="scwm" d="M89 135c-2.977 0-6 9.604-6 12 1.574 0 6-10.112 6-12Z"/><path fill="#CCC" d="M150 183v1c1.583 0 8.421 17.961 12.5 20 2.692 1.346 3.178-6.145 2.5-7.5-1.14-2.281-8-16.135-8-17.5 0-4.896-6.816-12.131-9-16.5-1.284-2.568 1-6.486 1-8.5l1-1h1l1-2c0-3.585-8-6.014-8-10l-2-5c-10.483 0-7 13.621-7 22 4.323 0 14 19.815 14 24l1 1Z"/><path fill="#97D6F9" id="STR" d="M151 137h2v-2l-2 2Z"/><path fill="#FF8D9F" id="MH" d="M220 139c0 2.459-3.762 1-5 1l-2-1v-4c2.025 0 7 1.233 7 4ZM239 141h1l2-1c1.643 0 1-3.765 1-5-2.244 0-6 1.725-6 4l2 2Z"/><path fill="#CCC" d="m306 185-1 2-10.5 17c-2.89 1.445-4.499-3.503-3.5-5.5.906-1.812 8-18.862 8-19.5l1-1 8-14.5c2.132-4.265-1-5.935-1-9.5l-3-3c0-4.44 8-4.882 8-10l1-1 1-4 3.5-1c7.337 3.669 3.5 16.148 3.5 22 0 1.356-14 18.4-14 26l-1 1v1Z"/><path fill="#C9C9CA" id="scwm" d="M367 135c2.269 0 10 16.767 10 19-2.453 0-1.447-2.947-2.5-4l-7.5-15Z"/><path fill="#97D6F9" id="STR" d="M144 141h5c0-1.238.423-3 2-3v-1l-9-1 2 5Z"/><path fill="#FD909E" id="AV" d="m189 168-2 2-2.5 2c-3.552 0-9.5-10.026-9.5-13 0-1.424-.362-5-2-5v-1l-2-4v-1l-1-2v-2c0-10.241 12.278-7 18-7 0 6.89 12 12.8 12 20l-1 5c-1.772 0-10 3.756-10 6ZM267 167l3 4c4.811 0 11-6.138 11-12l2-4v-1l1-2 1-2v-1l1-2v-3c0-10.211-11.38-7-17-7l-13 19 1 6 10 5Z"/><path fill="#CAC7CB" id="fiber tracts" d="M162 142c0 .671-1.328 5-2 5 0-5.688-3.347-9-9-9v-1h2c2.518 0 4.286 2 6 2h1l2 3ZM304 151l-1 1c-4.889 0-8-4.376-8-9l2-4 1-1 2-1h4l1 1c-2.854 0-4.145 1.822-6.5 3-9.217 4.609 8.5 12.951 8.5-1l5 1c0 5.118-8 5.56-8 10Z"/><path fill="#C8CBC7" id="st" d="M149 141c0 7.179 6.894 6 11 6 0-5.688-3.347-9-9-9-1.577 0-2 1.762-2 3ZM305 138c1.747 0 2 .253 2 2 0 13.951-17.717 5.609-8.5 1 2.355-1.178 3.646-3 6.5-3Z"/><path fill="#FF6F80" id="TH" d="m165 141 2 1-1-3-1 2ZM213 141h2v-1l-2-1v2Z"/><path fill="#FE8F9E" id="PVT" d="M225 167c2.409 0 5.181 1 7 1 0-.978 2.267-7 3-7v-11.5c.912-1.824 4-6.619 4-8.5l-2-2-8.5 5-8.5-5c0 2.459-3.762 1-5 1v1c6.377 0 7 14.154 7 19 0 1.416 1.031 7 3 7ZM240 141h2v-1l-2 1Z"/><path fill="#FF6F80" id="TH" d="M290 141h2l-1-1-1 1Z"/><path fill="#CAC7CB" id="fiber tracts" d="m313 140-1 1 1-1ZM152 151l2 1c2.8 0 6-1.875 6-5-4.106 0-11 1.179-11-6h-5c0 3.986 8 6.415 8 10Z"/><path fill="#FD8F9F" id="RT" d="M201 208c-6.557 0-14.767 1-22 1-15.239 0-11.812-30-22-30 0-4.896-6.816-12.131-9-16.5-1.284-2.568 1-6.486 1-8.5l1-1h1c1.048 0 3 .473 3-1 2.8 0 6-1.875 6-5 .672 0 2-4.329 2-5l3-1 2 1 2 2 1 1v1l1 2v1l2 4v8c-15.761 0-3.962 24 3 24l5 4c2.38 0 12.096 12 16 12 0 2.789 4 3.42 4 6v1Z"/><path fill="#FD909D" id="MD" d="M222 160c-.719 0-6.672 5-12 5-2.86 0-5.701-10-8-10 0-1.564 1-3.876 1-6l1-1c2.891 0 9-3.519 9-7h2c6.377 0 7 14.154 7 19ZM235 161c3.299 0 6.485 4 11 4 2.373 0 8-8.091 8-10l-1-6v-1c-3.178 0-9-3.179-9-7h-5c0 1.881-3.088 6.676-4 8.5V161Z"/><path fill="#FF6F80" id="TH" d="m290 141-1 1 1-1Z"/><path fill="#FD8F9F" id="RT" d="M256 208c6.228 0 14.097 1 21 1 11.549 0 12.002-13.504 16-21.5.955-1.911 2.632-8.5 6-8.5l1-1 8-14.5c2.132-4.265-1-5.935-1-9.5l-4-2c-4.889 0-8-4.376-8-9l-3-2h-2l-1 1-1 1-1 1c0 1.048.473 3-1 3l-1 2v1l-1 2-1 2v7c15.327 0 5.151 23-2 23l-1 1-4 3c0 1.63-15.101 13-16 13h-1c0 2.773-4 3.67-4 6l1 1Z"/><path fill="#FF6F80" id="TH" d="m255 143-1 2 1-2ZM288 143l-1 1 1-1ZM170 144v1l-1-1h1ZM202 144l1 2-1-2ZM287 144c0 1.048.473 3-1 3v-3h1ZM253 148v1c1.579 0 1-2.855 1-4-1.473 0-1 1.952-1 3ZM170 146l1 2-1-2Z"/><path fill="#C9C9CA" id="scwm" d="M83 147c-2.109 0-2 2.535-2 4l2-4Z"/><path fill="#FF6F80" id="TH" d="m204 148-1 1v-2l1 1ZM286 147l-1 2 1-2ZM171 149l2 4-2-4ZM285 150l-1 2 1-2Z"/><path fill="#C9C9CA" id="scwm" d="m81 151-1 2 1-2Z"/><path fill="#8599CC" id="PAL" d="M154 152c0 1.473-1.952 1-3 1l1-2 2 1ZM303 152l4 2-3-3-1 1Z"/><path fill="#FF6F80" id="TH" d="m284 152-1 2 1-2Z"/><path fill="#8599CC" id="PAL" d="m150 153-1 1 1-1Z"/><path fill="#C9C9CA" id="scwm" d="m80 154-1 1 1-1Z"/><path fill="#FF6F80" id="TH" d="M173 159h2c0-1.424-.362-5-2-5v5Z"/><path fill="#FC8E9F" id="IAD" d="m219 181-1 5c-1.006 0-15.722-24-19-24l1-5 2-2c2.299 0 5.14 10 8 10 0 3.21 9 9.918 9 15v1ZM237 180l2 5c1.673 0 14.969-23 18-23l-1-6-2-1c0 1.909-5.627 10-8 10 0 4.963-9 9.571-9 15Z"/><path fill="#FF6F80" id="TH" d="M281 159h2v-4l-2 4Z"/><path fill="#C9C9CA" id="scwm" d="M377 156c1.577 0 2 1.762 2 3l-2-3ZM79 157l-1 1 1-1Z"/><path fill="#8598CC" id="GPe" d="m327 216-5 2c-21.463 0-17-14.301-17-31l1-2v-1l1-1c0-7.6 14-24.644 14-26 2.508 0 5.043 9.586 6 11.5 3.164 6.328 8.422 31.156 5 38l-4 8.5-1 1ZM129 216l5 2c26.813 0 16-18.135 16-34v-1l-1-1c0-4.185-9.677-24-14-24-3.196 0-4.962 9.424-6 11.5-2.273 4.546-7.707 29.586-5 35l5 11.5Z"/><path fill="#C9C9CA" id="scwm" d="m78 159-1 2 1-2Z"/><path fill="#FD7E84" id="VAL" d="M188 187c-2.529 0-7-1.136-7 2l-5-4c0-2.595-3.831-6.162-5-8.5-2.428-4.857 2-11.553 2-15.5v-2h2c0 2.974 5.948 13 9.5 13l2.5-2-1 10.5 2 6.5ZM268 187c2.707 0 5.903 1 8 1l4-3 1-1c0-2.287 3.886-8.271 5-10.5 1.931-3.862-3-9.283-3-12.5v-2h-2c0 5.862-6.189 12-11 12v11.5l-2 4.5Z"/><path fill="#FF909F" id="PT" d="M220 180h1l2-1 2-12c-1.969 0-3-5.584-3-7-.719 0-6.672 5-12 5 0 3.21 9 9.918 9 15h1Z"/><path fill="#C7CACA" id="em" d="M173 161c-15.761 0-3.962 24 3 24 0-2.595-3.831-6.162-5-8.5-2.428-4.857 2-11.553 2-15.5Z"/><path fill="#FF909F" id="PT" d="M235 180h2c0-5.429 9-10.037 9-15-4.515 0-7.701-4-11-4-.733 0-3 6.022-3 7l1 10 2 2Z"/><path fill="#C7CACA" id="em" d="M283 161c15.327 0 5.151 23-2 23 0-2.287 3.886-8.271 5-10.5 1.931-3.862-3-9.283-3-12.5Z"/><path fill="#C9C9CA" id="scwm" d="M379 161c1.995 0 2 4.377 2 6-1.995 0-2-4.377-2-6ZM77 162c-1.58 0-1 2.855-1 4 1.58 0 1-2.855 1-4Z"/><path fill="#FD8D9F" id="AMd" d="M207 193h2l6-3 1-1 2-2v-1c-1.006 0-15.722-24-19-24-1.772 0-10 3.756-10 6 1.644 0 3.379 4.257 4 5.5l8 13 6 6.5ZM248 193h2c0-2.433 17-21.228 17-26l-10-5c-3.031 0-16.327 23-18 23v1l3 4 6 3Z"/><path fill="#C9C9CA" id="scwm" d="m76 167-1 1 1-1Z"/><path fill="#FD8E9E" id="CM" d="M223 180h10v-2l-1-10c-1.819 0-4.591-1-7-1l-2 12v1Z"/><path fill="#FC909D" id="AMv" d="M258 197h2c2.738 0 8-7.481 8-10l2-4.5V171l-3-4c0 4.772-17 23.567-17 26 0 1.238.423 3 2 3l6 1ZM196 197h2l6-1 3-3-6-6.5-8-13c-.621-1.243-2.356-5.5-4-5.5l-2 2-1 10.5 2 6.5c2.52 0 3.609 10 8 10Z"/><path fill="#12AD83" id="VISC1" d="m40 198-6 1-3-10.5V169h5c0 5.677-1.77 15.96 1 21.5l3 6.5v1Z"/><path fill="#12AC83" id="VISC2/3" d="M49 195c0 1.674-7.241 2-9 2l-3-6.5c-2.77-5.54-1-15.823-1-21.5l8 2c0 4.431-.858 10.783 1 14.5l4 9.5ZM405 195c4.335 0 6.86 2 11 2 1.089 0 3-6.134 3-7.5 0-6.273 2-13.265 2-20.5l-8 2c0 5.034-2.128 23-8 23v1Z"/><path fill="#12AD83" id="VISC1" d="m416 198 6 1c1.781 0 1.348-6.197 2-7.5 3.328-6.656 1-15.586 1-22.5h-4c0 7.235-2 14.227-2 20.5 0 1.366-1.911 7.5-3 7.5v1Z"/><path fill="#11AC82" id="VISC4" d="M49 195h1l1-1c0-.742-3.4-13.302-4-14.5l2-8.5h-5c0 4.431-.858 10.783 1 14.5l4 9.5Z"/><path fill="#12AD82" id="VISC5" d="M51 195h1c4.514 0 8.092-2 13-2 0-1.598-2.176-6.853-3-8.5-1.866-3.731 0-9.097 0-12.5l-13-1-2 8.5c.6 1.198 4 13.758 4 14.5v1ZM405 194v1l-13-2c0-6.672 3-13.273 3-21l12-1h1c0 3.254 2.82 9.859 1 13.5-.868 1.736-4 7.882-4 9.5Z"/><path fill="#11AC82" id="VISC4" d="M413 171c0 5.034-2.128 23-8 23 0-1.618 3.132-7.764 4-9.5 1.82-3.641-1-10.246-1-13.5h5Z"/><path fill="#11AC83" id="VISC6a" d="M76 190c-3.379 0-7.874 3-11 3 0-1.598-2.176-6.853-3-8.5-1.866-3.731 0-9.097 0-12.5 2.998 0 7.358 1 11 1 0 7.206 3 13.298 3 17Z"/><path fill="#C9C9CA" id="scwm" d="m75 172-1 1 1-1Z"/><path fill="#11AC83" id="VISC6a" d="M391 193h1c0-6.672 3-13.273 3-21-3.312 0-8.038 1-12 1 0 1.041 2.36 5 0 5v1c0 4.296-2 7.018-2 11 0 2.036 10 .536 10 3Z"/><path fill="#11AD82" id="VISC6b" d="M76 190h1c0-5.537-3-9.946-3-16v-1h-1c0 7.206 3 13.298 3 17ZM382 174l1 4c2.36 0 0-3.959 0-5h-1v1Z"/><path fill="#C8CBCC" id="ec" d="M99 233h2v-1l-6-10-8-13.5c-5.499-10.997-10-21.087-10-34.5h-3c0 6.054 3 10.463 3 16 1.473 0 1 1.952 1 3 1.9 0 5 8.997 5 11l2 2 9 19 1 1v1l3 6h1ZM383 179c-3.382 0-.293 8-4 8v-13h3l1 4v1Z"/><path fill="#FF6F80" id="TH" d="M233 180h2l-2-2v2Z"/><path fill="#8599CC" id="PAL" d="m300 178-1 1 1-1Z"/><path fill="#8599CC" id="PAL" fill-rule="evenodd" d="M164 208v3.5c0 8.768 9.471-3.5 0-3.5m-21 16c0-4.884 22-7.867 22 4 4.05 0 3.146-15 10-15l3-3 1-1c-15.239 0-11.812-30-22-30 0 1.365 6.86 15.219 8 17.5.678 1.355.192 8.846-2.5 7.5-4.079-2.039-10.917-20-12.5-20 0 15.865 10.813 34-16 34l6 5h1l1 1h1Z"/><path fill="#FF6F80" id="TH" d="M221 180h2v-1l-2 1Z"/><path fill="#8599CC" id="PAL" fill-rule="evenodd" d="M291 208c0 1.704-6.908 7-1.5 7 2.297 0 5.71-7 1.5-7m22 16h1l1-1h1l6-5c-21.463 0-17-14.301-17-31l-10.5 17c-2.89 1.445-4.499-3.503-3.5-5.5.906-1.812 8-18.862 8-19.5-3.368 0-5.045 6.589-6 8.5-3.998 7.996-4.451 21.5-16 21.5l1 1 4 3c5.291 0 7.538 17 10 17 0-16.276 21-9.648 21-6Z"/><path fill="#11AD82" id="VISC6b" d="M380 190h1c0-3.982 2-6.704 2-11-3.382 0-.293 8-4 8v3h1Z"/><path fill="#FF6F80" id="TH" d="m220 180-1 1v-1h1Z"/><path fill="#FE8E9C" id="IAM" d="M219 187h1l1-1c2.911 0 9.109-2.695 12.5-1l4.5 2 1-1v-1l-2-5h-17l-1 1-1 5v1h1Z"/><path fill="#8599CC" id="PAL" d="m149 182 1 1-1-1ZM307 183l-1 1 1-1Z"/><path fill="#C7CACA" id="em" d="m281 184-1 1 1-1Z"/><path fill="#FF8E9E" id="RH" d="M218 189h21l-1-2-4.5-2c-3.391-1.695-9.589 1-12.5 1l-1 1h-1l-1 2Z"/><path fill="#8599CC" id="PAL" d="m306 185-1 2 1-2Z"/><path fill="#FF6F80" id="TH" d="m221 186-1 1 1-1ZM239 189l3 1-3-4-1 1 1 2Z"/><path fill="#FF7E84" id="VM" d="M197 199v2c-3.904 0-13.62-12-16-12 0-3.136 4.471-2 7-2 2.52 0 3.609 10 8 10l1 2Z"/><path fill="#FF6F80" id="TH" d="M216 189h2l1-2h-1l-2 2Z"/><path fill="#FF7E84" id="VM" d="M260 197v4c.899 0 16-11.37 16-13-2.097 0-5.293-1-8-1 0 2.519-5.262 10-8 10Z"/><path fill="#C8CBCC" id="ec" d="M377 193h1l1-1v-5c-1.995 0-2 4.377-2 6Z"/><path fill="#FF6F80" id="TH" d="m216 189-1 1 1-1Z"/><path fill="#FD909F" id="RE" fill-rule="evenodd" d="M226 197c0 1.483-3 2.228-3 6.5l2 6c.425.849 1.245 6.5 2.5 6.5 2.741 0 11.636-19-1.5-19m-15 14c2.862 0 6.196 5.348 9.5 7 1.927.964 5.545-.272 7-1 1.315-.658 5.725 2.138 8 1l9.5-7c0-2.845 5-6.425 5-12-.913 0-2-5.014-2-6l-6-3-3-1h-23l-1 1-6 3c0 1.996-2 4.985-2 8 0 3.448 4 6.349 4 10Z"/><path fill="#209766" id="AIp6a" d="M74 213h2c0-5.586 5.46-7 9-7l-2-2c-1.167 0-5.068 2.363-6 .5-.713-1.425-4.389-11.5 0-11.5l-1-3c-3.379 0-7.874 3-11 3l9 20Z"/><path fill="#219666" id="AIp6b" d="M77 193h1c0-1.048.473-3-1-3h-1l1 3ZM380 190l-1 2v-2h1Z"/><path fill="#209766" id="AIp6a" d="M382 213h1c0-7.166 8-12.734 8-20 0-2.464-10-.964-10-3h-1l-1 2v1c4.007 0 1.935 10.783-.5 12-2.292 1.146-4.5-.896-4.5-3-1.473 0-1 1.952-1 3 2.55 0 8 5.402 8 8h1Z"/><path fill="#219666" id="AIp6b" d="M378 193h1v-1l-1 1Z"/><path fill="#219864" id="AIp5" d="m74 213-7 3c0-3.981-15-13.215-15-21 4.514 0 8.092-2 13-2l9 20Z"/><path fill="#8ADA86" id="CLA" d="M78 193c1.9 0 5 8.997 5 11-1.167 0-5.068 2.363-6 .5-.713-1.425-4.389-11.5 0-11.5h1Z"/><path fill="#FF6F80" id="TH" d="m204 196 3 5c0-3.015 2-6.004 2-8h-2l-3 3ZM252 196l-2 3c-.913 0-2-5.014-2-6h2c0 1.238.423 3 2 3Z"/><path fill="#C8CBCC" id="ec" d="M375 197h1l1-4-2 4Z"/><path fill="#8ADA86" id="CLA" d="m375 198-1 4c0 2.104 2.208 4.146 4.5 3 2.435-1.217 4.507-12 .5-12h-2l-1 4-1 1Z"/><path fill="#219864" id="AIp5" d="M383 213c0 .886 5.824 3 7 3 0-4.457 15-13.181 15-21l-13-2h-1c0 7.266-8 12.834-8 20Z"/><path fill="#12AC83" id="VISC2/3" d="M50 195h1v-1l-1 1Z"/><path fill="#209865" id="AIp2/3" d="M67 216c-3.645 0-6.777 4-10 4l-12-12.5-5-9.5v-1c1.759 0 9-.326 9-2h3c0 7.785 15 17.019 15 21ZM390 216l9 4c0-2.458 17-14.591 17-22v-1c-4.14 0-6.665-2-11-2 0 7.819-15 16.543-15 21Z"/><path fill="#FD909C" id="PR" d="M201 207c1.064 0 10 7.632 10 4 0-3.651-4-6.552-4-10l-3-5-6 1-1 2v2c0 2.789 4 3.42 4 6ZM255 207c-.507 0-10 7.489-10 4 0-2.845 5-6.425 5-12l2-3 6 1 1 4c0 2.773-4 3.67-4 6Z"/><path fill="#FF6F80" id="TH" d="m198 197-1 2-1-2h2Z"/><path fill="#FC8F9F" id="Xi" d="M226 197c0 1.483-3 2.228-3 6.5l2 6c.425.849 1.245 6.5 2.5 6.5 2.741 0 11.636-19-1.5-19Z"/><path fill="#FF6F80" id="TH" d="M259 201h1v-4h-2l1 4Z"/><path fill="#C8CBCC" id="ec" d="M372 206c0 1.156-3.845 8-5 8 0-4.758 3.985-9.47 6-13.5l2-3.5v1l-1 4c-1.473 0-1 1.952-1 3l-1 1Z"/><path fill="#209766" id="AIp6a" d="m376 197-1 1v-1h1Z"/><path fill="#219765" id="AIp1" d="m57 220-5 2c-1.738 0-18-20.354-18-23l6-1 5 9.5L57 220ZM399 220l5 2c2.163 0 18-19.853 18-23l-6-1c0 7.409-17 19.542-17 22Z"/><path fill="#A0EE9C" id="EPd" d="M94 233h1v-7l-1-1-9-19c-3.54 0-9 1.414-9 7 0 4.691 7 8.926 7 13 0 3.882 8.094 7 11 7Z"/><path fill="#209766" id="AIp6a" d="m373 205-1 1 1-1Z"/><path fill="#A0EE9C" id="EPd" d="M361 233h2c4.215 0 5.464-4 9-4l1-1 1-1v-1h1v-1l6-12c0-2.598-5.45-8-8-8l-1 1c0 1.156-3.845 8-5 8 0 4.446-5 7.975-5 12l-1 1v6Z"/><path fill="#FF6F80" id="TH" d="m229 219 3 1c0-.844 9.257-2.379 10.5-3 3.032-1.516 7.049-6 10.5-6l3-3-1-1c-.507 0-10 7.489-10 4l-9.5 7c-2.275 1.138-6.685-1.658-8-1-1.455.728-5.073 1.964-7 1-3.304-1.652-6.638-7-9.5-7 0 3.632-8.936-4-10-4v1l3 3 12.5 7c1.173.587 7.5.619 7.5 2l3-1c.839 0 2-1.93 2 0Z"/><path fill="#CCCACB" id="nst" d="M164 208v3.5c0 8.768 9.471-3.5 0-3.5Z"/><path fill="#F0483B" id="ZI" d="M182 215h1c5.562 0 21 8.573 21-4l-3-3c-6.557 0-14.767 1-22 1l-1 1c0 3.165 4 2.508 4 5ZM273 215h1c0-1.864 4-.587 4-5l-1-1c-6.903 0-14.772-1-21-1l-3 3c0 13.303 14.555 4 20 4Z"/><path fill="#CCCACB" id="nst" d="M291 208c0 1.704-6.908 7-1.5 7 2.297 0 5.71-7 1.5-7Z"/><path fill="#E64438" id="HY" d="M179 215h3c0-2.492-4-1.835-4-5l-3 3 4 2ZM274 215h3c1.624 0 2.75-2 5-2l-4-3c0 4.413-4 3.136-4 5ZM221 239l-2 1c0-2.029-1.191-1.881-2-3.5-5.914-11.829-15.905.5-19 .5l6-11.5c-3.4-6.8-11 3.883-11 7.5l-3 3c0-4.518.246-17-6-17 0-1.674-1-2.326-1-4 5.562 0 21 8.573 21-4l12.5 7c1.173.587 7.5.619 7.5 2-2.277 0-9.245-1.627-10.5-1-5.495 2.747 7.5 15.1 7.5 20ZM236 239l1 1c1.183 0 1.535-3.57 2-4.5l5.5-3.5c4.037-2.019 14.5 2.811 14.5 6h1c0-3.749-9.325-7.849-7-12.5 3.7-7.4 10 4.803 10 8.5l3 1c0-3.854.836-16 6-16l1-4c-5.445 0-20 9.303-20-4-3.451 0-7.468 4.484-10.5 6-1.243.621-10.5 2.156-10.5 3 3.08 0 11.693-2.115 13 .5.472.944-9 14.687-9 18.5Z"/><path fill="#6ACAB9" id="PIR" d="M109 274c0 7.023-12 20.536-12 23-3.28 0-11.711-13.211-14-15.5-4.484-4.484-18.132-35.264-22-43-2.167-4.334-9-11.695-9-16.5l5-2c3.223 0 6.355-4 10-4l7-3 6 11 2 3 1 1 1 2 6 8c0 2.781 13.406 22.906 16 25.5l4 7.5-1 3Z"/><path fill="#C9C8CA" id="ee" d="m80 224 3 2c0-4.074-7-8.309-7-13h-2l6 11Z"/><path fill="#F2483A" id="LHA" d="m190 251-3 9.5c-.809 1.618-.21 3.355-2.5 4.5-1.256.628-18.902-12-23.5-12v-13l1-1 3-11c4.05 0 3.146-15 10-15l4 2c0 1.533 3.753 4 5 4 6.246 0 6 12.482 6 17v15ZM296 251l-1 2c-4.97 0-21.511 12.995-23.5 12-1.912-.956-4.5-8.136-4.5-10 0-1.235.643-5-1-5v-15c0-3.854.836-16 6-16 2.124 0 5-2.024 5-4 1.624 0 2.75-2 5-2 5.291 0 7.538 17 10 17l3 10 1 11Z"/><path fill="#C9C8CA" id="ee" d="M382 213c0 2.164-4.51 12-7 12l6-12h1Z"/><path fill="#6ACAB9" id="PIR" d="M347 274c0 5.521 12 21.957 12 23 1.998 0 12.564-11.629 14-14.5 7.571-15.141 15.431-29.861 23-45 2.061-4.122 8-10.866 8-15.5l-5-2-9-4c-1.176 0-7-2.114-7-3h-1c0 2.164-4.51 12-7 12v1l-1 1-1 1v1l-1 1-1 1c0 1.238-.423 3-2 3 0 1.238-.423 3-2 3v1c0 5.497-20 25.425-20 33v3Z"/><path fill="#C8CBCC" id="ec" d="M357 233h1l3-5v-1l1-1c0-4.025 5-7.554 5-12-3.018 0-2.618 7-5 7l-1 1v1l-6 9v1h2Z"/><path fill="#CCC9C8" id="sm" d="M183 215c0 1.674 1 2.326 1 4-1.247 0-5-2.467-5-4h4ZM277 215c0 1.976-2.876 4-5 4l1-4h4Z"/><path fill="#97D6F9" id="STR" d="m328 215-1 1 1-1ZM140 223c-4.58 0-9.82 2-11 2v-9l5 2 6 5ZM316 223c3.731 0 10.83 2 11 2v-9l-5 2-6 5Z"/><path fill="#E64438" id="HY" d="M227 219c.839 0 2-1.93 2 0 0 1.399-2 1.399-2 0Z"/><path fill="#FF5D4F" id="PVH" d="m227 242 .5-19c2.041-1.021 1.5 3.062 1.5 4v15l3-1 2-1 1-1h1c0-3.813 9.472-17.556 9-18.5-1.307-2.615-9.92-.5-13-.5l-3-1c0 1.399-2 1.399-2 0l-3 1c-2.277 0-9.245-1.627-10.5-1-5.495 2.747 7.5 15.1 7.5 20l3 2 3 1Z"/><path fill="#A2B1D7" id="SI" d="M151 241h10v-1l1-1 3-11c0-11.867-22-8.884-22-4l1 1c6.306 0 5 9.653 5 14l2 2ZM306 240l-1 1-7.5 1-2.5-2-3-10c0-16.276 21-9.648 21-6l-4 2.5c-1.775 3.55-2 7.167-2 11.5l-1 2Z"/><path fill="#97D6F9" id="STR" d="m362 221-1 1 1-1Z"/><path fill="#97D6F9" id="STR" fill-rule="evenodd" d="M118 237c0 3.39-.758 1.984 1 5.5 9.091 18.183 14.582-5.5-1-5.5m13 15c-1.423 0-3.544-1.978-5.5-1l-7.5 4c0-4.576-7-7.525-7-13l1-3c3.689 0-6.315-9-8.5-9l.5 3-3-1-6-10 14.5 9c6.448 3.224 14.554-4 18.5-4 0 3.018-4.613 7.274-3 10.5 1.029 2.058 8 5.821 8 6.5-4.042 0-2 6.063-2 8Z"/><path fill="#7FC0E0" id="CEAm" d="m145 243-12 1c0-.679-6.971-4.442-8-6.5-1.613-3.226 3-7.482 3-10.5l1-1v-1c1.18 0 6.42-2 11-2h1l1 1h1l1 1c6.306 0 5 9.653 5 14l-4 4Z"/><path fill="#97D6F9" id="STR" d="m141 223 1 1-1-1Z"/><path fill="#A8A9AA" id="V3" d="M228 274h1v-47c0-.938.541-5.021-1.5-4l-.5 19c0 10.549 1 22.134 1 32Z"/><path fill="#97D6F9" id="STR" d="m315 223-1 1 1-1Z"/><path fill="#7FC0E0" id="CEAm" d="m311 243 13 1 5-3 2-2c0-5.385-4-9.952-4-13v-1c-.17 0-7.269-2-11-2h-1l-1 1h-1l-4 2.5c-1.775 3.55-2 7.167-2 11.5l4 5Z"/><path fill="#97D6F9" id="STR" d="M326 251c4.936 0 9.147 4 12 4l5-5.5c.534-1.069 2.17-7.5 3-7.5l-1-3c-4.992 0 8-10.711 8-7h2l6-9c-3.963 0-10.867 6.184-14.5 8-6.555 3.278-17.599-5-19.5-5 0 3.048 4 7.615 4 13 2.379 0 4.917-3.292 7.5-2 4.807 2.404-10.5 20.242-10.5 8.5l1-4.5-5 3c2.273 0 2 5.226 2 7Z"/><path fill="#8AD987" id="CTXsp" d="m94 233-4 4c-1.985 0-2.696-7-6-7l-1-2-1-1-2-3 3 2c0 3.882 8.094 7 11 7Z"/><path fill="#97D6F9" id="STR" d="m143 224 1 1-1-1Z"/><path fill="#C7C8CA" id="fx" d="M197 237h1l6-11.5c-3.4-6.8-11 3.883-11 7.5 0 1.408 1.197 5 3 5l1-1ZM263 234l-3 4c0-3.749-9.325-7.849-7-12.5 3.7-7.4 10 4.803 10 8.5Z"/><path fill="#8AD987" id="CTXsp" d="m94 225 1 1-1-1Z"/><path fill="#97D6F9" id="STR" d="m129 226-1 1 1-1Z"/><path fill="#8AD987" id="CTXsp" d="m362 226-1 1 1-1ZM375 226l-1 1v-1h1Z"/><path fill="#99D2BD" id="OLF" d="m82 227 1 1-1-1Z"/><path fill="#8AD987" id="CTXsp" d="M95 233h3l-3-6v6ZM374 227l-1 1 1-1ZM358 233h3v-5l-3 5ZM372 229h1v-1l-1 1ZM367 237v1l-4-5c4.215 0 5.464-4 9-4v1l-1 1c-1.577 0-2 1.762-2 3-1.577 0-2 1.762-2 3Z"/><path fill="#99D2BD" id="OLF" d="m373 229-1 1v-1h1ZM90 237v1l-6-8c3.304 0 4.015 7 6 7Z"/><path fill="#C8CBCC" id="ec" d="m104 233 8 6c3.689 0-6.315-9-8.5-9l.5 3ZM352 233l-7 6c-4.992 0 8-10.711 8-7l-1 1Z"/><path fill="#99D2BD" id="OLF" d="m372 230-1 1 1-1ZM371 231c-1.577 0-2 1.762-2 3 1.577 0 2-1.762 2-3Z"/><path fill="#9DE79B" id="BLAa" d="M110 242h1l1-3-8-6-3-1v1l8 9h1Z"/><path fill="#FF4B3E" id="AHN" d="M191 251c0 12.31 6.085 19 18.5 19h7l2.5-3v-27c0-2.029-1.191-1.881-2-3.5-5.914-11.829-15.905.5-19 .5h-1v1c3.3 0-3.227 13-6 13ZM238 267v1l2.5 2h7c12.377 0 17.5-7.046 17.5-19-2.482 0-8.279-13-6-13 0-3.189-10.463-8.019-14.5-6l-5.5 3.5c-.465.93-.817 4.5-2 4.5v26l1 1Z"/><path fill="#97D6F9" id="STR" d="m353 232-1 1 1-1Z"/><path fill="#9DE79B" id="BLAa" d="M346 242h1l1-1 1-1 1-1 1-1 2-3 1-1 1-1v-1h-2l-1 1-7 6 1 3Z"/><path fill="#A0ED9D" id="EPv" d="M110 271h2l2-2v-9c0-8.789-12-16.043-12-20-2.393 0-3-3.234-3-5v-2h-5l-4 4v1c0 2.781 13.406 22.906 16 25.5l4 7.5Z"/><path fill="#C8C9CB" id="amc" d="M109 242v1l-6-5-3-3-1-1v-1h2l8 9Z"/><path fill="#F2463A" id="PeF" d="M190 251h1c2.773 0 9.3-13 6-13h-1c-1.803 0-3-3.592-3-5l-3 3v15Z"/><path fill="#C8C9CB" id="amc" d="M351 239h2l4-4v-2h-2l-1 1-1 1-2 3v1Z"/><path fill="#A0ED9D" id="EPv" d="M344 271h3c0-7.575 20-27.503 20-33l-4-5h-6v2c2.485 0-1.043 5-3 5 0 3.855-11 10.075-11 21v6c0 1.145-.579 4 1 4Z"/><path fill="#8AD987" id="CTXsp" d="M99 235h1l-1-1v1Z"/><path fill="#F2463A" id="PeF" d="m266 250-1 1c-2.482 0-8.279-13-6-13h1l3-4 3 1v15Z"/><path fill="#C8CBCC" id="ec" d="m354 234-1 1 1-1Z"/><path fill="#99D2BD" id="OLF" d="M369 234c-1.577 0-2 1.762-2 3 1.577 0 2-1.762 2-3Z"/><path fill="#80BEE2" id="IA" d="m103 238-1 2c-2.393 0-3-3.234-3-5h1l3 3ZM353 239l1 1c1.957 0 5.485-5 3-5l-4 4Z"/><path fill="#80BFE0" id="CEAc" d="M118 237c0 3.39-.758 1.984 1 5.5 9.091 18.183 14.582-5.5-1-5.5Z"/><path fill="#E64438" id="HY" d="M196 238h1v-1l-1 1Z"/><path fill="#80BFE0" id="CEAc" d="M331 239c2.379 0 4.917-3.292 7.5-2 4.807 2.404-10.5 20.242-10.5 8.5l1-4.5c1.747 0 2-.253 2-2Z"/><path fill="#8AD987" id="CTXsp" d="m118 255-4 5c0-8.789-12-16.043-12-20l1-2 6 5 1-1h1c0 5.475 7 8.424 7 13Z"/><path fill="#97D6F9" id="STR" d="M299 251h7.5l1.5 2c0-3.721-3.733-10 3-10l-4-5-1 2-1 1c0 3.971-6 6.029-6 10Z"/><path fill="#C8CBCC" id="ec" d="M350 239h1v-1l-1 1Z"/><path fill="#97D6F9" id="STR" d="M149 252h9l-7-11-2-2-4 4c5.333 0 4 4.854 4 9Z"/><path fill="#8599CC" id="PAL" d="m162 239-1 1 1-1Z"/><path fill="#FD5547" id="SBPV" d="M224 270c-2.666 0-2.482 1-5 1v-31l2-1 3 2v29Z"/><path fill="#E64438" id="HY" d="m235 239-1 1 1-1Z"/><path fill="#FD5547" id="SBPV" d="M232 270c2.413 0 3.51 1 5 1 1.473 0 1-1.952 1-3v-1l-1-1v-26l-1-1h-1l-1 1-2 1v29Z"/><path fill="#97D6F9" id="STR" d="m331 239-2 2c1.747 0 2-.253 2-2Z"/><path fill="#C8C9CB" id="amc" d="M349 240v1c1.747 0 2-.253 2-2h-1l-1 1Z"/><path fill="#8AD987" id="CTXsp" d="m338 255 5 6c0-10.925 11-17.145 11-21l-1-1h-2c0 1.747-.253 2-2 2l-1 1-1 1-1-1c-.83 0-2.466 6.431-3 7.5l-5 5.5Z"/><path fill="#8599CC" id="PAL" d="M295 253v2l4-4c0-3.971 6-6.029 6-10l-7.5 1-2.5-2 1 11-1 2ZM306 240l-1 1 1-1Z"/><path fill="#C8CBCC" id="ec" d="M348 241h1v-1l-1 1Z"/><path fill="#8599CC" id="PAL" d="M161 253v2l-3-3-7-11h10v12Z"/><path fill="#FF5D50" id="PVa" d="M228 274c0 1.048.473 3-1 3l-3-7v-29l3 1c0 10.549 1 22.134 1 32ZM229 274c0 1.048-.473 3 1 3l2-7v-29l-3 1v32Z"/><path fill="#C8CBCC" id="ec" d="M347 242h1v-1l-1 1Z"/><path fill="#C8C9CB" id="amc" d="m349 241-1 1v-1h1Z"/><path fill="#C8CBCC" id="ec" d="m110 242-1 1v-1h1ZM347 242v1l-1-1h1Z"/><path fill="#C8C9CB" id="amc" d="m348 242-1 1v-1h1Z"/><path fill="#80C0E2" id="AAA" d="M147 255c-3.255 0-6.058 2-10 2l-6-5c0-1.937-2.042-8 2-8l12-1c5.333 0 4 4.854 4 9l-1 1-1 2ZM320 256l-1 1c-3.909 0-7.158-3-10-3l-1-1c0-3.721-3.733-10 3-10l13 1c2.273 0 2 5.226 2 7l-1 1-4 3-1 1Z"/><path fill="#E64438" id="HY" d="M266 272h1l2-1 1-1 2-1 1-1 2-1c0-2.639 6.032-3 8-3 0-9.264 7-1.766 7 4h1c0-1.048-.473-3 1-3 0-3.855 3-6.459 3-10v-2c-4.97 0-21.511 12.995-23.5 12-1.912-.956-4.5-8.136-4.5-10 0-1.235.643-5-1-5l-1 1c0 11.954-5.123 19-17.5 19h-7l-2.5-2c0 1.048.473 3-1 3l2 4c4.508 0 27-10.148 27-3Z"/><path fill="#84EA80" id="BMAa" d="m117 274 3 1c3.773 0 6.657-4 11-4l2-2c0-3.29-.534-8 4-8v-4l-6-5c-1.423 0-3.544-1.978-5.5-1l-7.5 4-4 5v9l3 5Z"/><path fill="#80BFE1" id="MEA" d="m160 281-3 1c0-2.662.243-13-3-13l-1-2-4-5-1-1-1-6 1-2 1-1h9l3 3c0 3.933 4 7.365 4 12v4l-1 2v1l-1 1v1l-1 1-1 2-1 2Z"/><path fill="#E64438" id="HY" d="M191 273c0-9.836 22.149 3 27 3l1-5v-4l-2.5 3h-7c-12.415 0-18.5-6.69-18.5-19h-1l-3 9.5c-.809 1.618-.21 3.355-2.5 4.5-1.256.628-18.902-12-23.5-12v2c0 3.933 4 7.365 4 12h1c0-5.482 8-11.543 8-3 3.15 0 13 2.861 13 7h1l3 2ZM296 251l-1 2 1-2Z"/><path fill="#80BFE1" id="MEA" d="m297 281 2 1c0-2.134.937-12 3-12l2-4 5-5v-7l-1-1-1.5-2H299l-4 4c0 3.541-3 6.145-3 10v8l1 1v1l1 1 1 3 2 2Z"/><path fill="#97D6F9" id="STR" d="m326 251-1 1 1-1Z"/><path fill="#84EA80" id="BMAa" d="M336 275h3l2-2c0-1.357.647-6 2-6v-6l-5-6c-2.853 0-7.064-4-12-4l-1 1-4 3-1 1-1 1v3c3.914 0 5 7.325 5 10l1 1c4.193 0 7.454 4 11 4Z"/><path fill="#97D6F9" id="STR" d="m149 252-1 1 1-1ZM148 253l-1 2 1-2ZM315 259l4 1v-3c-3.909 0-7.158-3-10-3v7c1.974 0 3.517-2 6-2ZM141 259c2.833 0 4.84 2 7 2l-1-6c-3.255 0-6.058 2-10 2v2l1 1 3-1ZM321 255l-1 1 1-1ZM320 256l-1 1 1-1Z"/><path fill="#99D2BD" id="OLF" d="M137 260h1l-1-1v1Z"/><path fill="#C7CAC8" id="stc" d="M141 267h2l2-1c0-3.328-4-5.479-4-7l-3 1-1 1c0 3.446-.116 6 4 6Z"/><path fill="#94E4C7" id="NLOT3" d="m145 266 4.5-1 3.5 2-4-5-1-1c-2.16 0-4.167-2-7-2 0 1.521 4 3.672 4 7ZM304 266h7c0-3.313 4-4.49 4-7-2.483 0-4.026 2-6 2l-5 5Z"/><path fill="#C7CAC8" id="stc" d="M313 267h2c4.719 0 4-3.164 4-7l-4-1c0 2.51-4 3.687-4 7h1l1 1Z"/><path fill="#94E4C7" id="NLOT3" d="m138 260-1 1v-1h1Z"/><path fill="#FE5B50" id="SO" d="M166 268c0 1.473 1.952 1 3 1 1.872 0 1.926-5 5-5 0-8.543-8-2.482-8 3v1ZM287 269h3v-1c0-5.766-7-13.264-7-4l4 5Z"/><path fill="#94E4C7" id="NLOT3" d="M324 270v2l-2.5-3c-1.493-.746-6.5.729-6.5-2 4.719 0 4-3.164 4-7 3.914 0 5 7.325 5 10ZM133 269v2l8-4c-4.116 0-4-2.554-4-6-4.534 0-4 4.71-4 8Z"/><path fill="#99D2BD" id="OLF" d="m148 261 1 1-1-1Z"/><path fill="#CAC7CB" id="fiber tracts" d="M169 271c3.125 0 5.2-7.15 9.5-5l8.5 5c0-4.139-9.85-7-13-7-3.074 0-3.128 5-5 5v2ZM287 269v2l-5.5-5-6.5 1c0-2.639 6.032-3 8-3l4 5Z"/><path fill="#95E3C8" id="NLOT2" d="m136 282 1 1c12.957 0 17-1.309 17-14l-1-2-3.5-2-4.5 1-2 1h-2l-8 4v1c0 2.482-.669 10 3 10ZM319 283h1l1-1c0-2.842 3-6.091 3-10l-2.5-3c-1.493-.746-6.5.729-6.5-2h-2l-1-1h-8l-2 4c0 11.39 6.28 13 17 13Z"/><path fill="#94E4C7" id="NLOT3" d="m145 266-2 1 2-1Z"/><path fill="#CACCCB" id="opt" d="M199 283v3c-9.192 0-15.955-4.227-23.5-8l-6.5-6v-1c3.125 0 5.2-7.15 9.5-5l8.5 5h1c0 4.625 11 6.958 11 12Z"/><path fill="#E64438" id="HY" d="m237 266 1 1-1-1Z"/><path fill="#CACCCB" id="opt" d="m268 285-11 1v-3l6-7 1-1 1-1 1-1 1-1 2-1 1-1 2-1 1-1 2-1 6.5-1 5.5 5v2l-1 1-1 1c-1.747 0-2 .253-2 2-1.572 0-7 2.052-7 4-1.465 0-4-.109-4 2-1.465 0-4-.109-4 2Z"/><path fill="#94E4C7" id="NLOT3" d="m312 266 1 1-1-1Z"/><path fill="#8599CC" id="PAL" d="M165 268h1v-1h-1v1Z"/><path fill="#CAC7CB" id="fiber tracts" d="m275 267-2 1 2-1Z"/><path fill="#8AD987" id="CTXsp" d="M342 273h1l1-2c-1.579 0-1-2.855-1-4-1.353 0-2 4.643-2 6h1Z"/><path fill="#CAC7CB" id="fiber tracts" d="m273 268-1 1 1-1Z"/><path fill="#8599CC" id="PAL" d="m291 268-1 1v-1h1Z"/><path fill="#8AD987" id="CTXsp" d="m112 271 5 3-3-5-2 2Z"/><path fill="#99D2BD" id="OLF" d="M133 271v1l-2-1 2-2v2Z"/><path fill="#95E4C7" id="NLOT1" d="M144 295h1l2-1 1-1h1l1-1 1-1 2-1 1-1 1-1 2-6c0-2.662.243-13-3-13 0 12.691-4.043 14-17 14v10c2.16 0 4.167 2 7 2Z"/><path fill="#F2483B" id="RCH" d="M217 284h6l-1-3c-1.533 0-4-3.753-4-5-4.851 0-27-12.836-27-3 .581 0 10.624 8.062 12.5 9 1.583.791 12.5.342 12.5 2h1Z"/><path fill="#FF5545" id="SCH" d="M227 277c0 2.96-2.399 4-5 4-1.533 0-4-3.753-4-5l1-5c2.518 0 2.334-1 5-1l3 7ZM236 280l-1 1c-3.132 0-5-.436-5-4l2-7c2.413 0 3.51 1 5 1l2 4v1l-1 1-1 2-1 1Z"/><path fill="#F2483B" id="RCH" d="M240 284h1c0-1.483 10.039-1.269 11.5-2 2.652-1.326 7.603-6 10.5-6l1-1 1-1v-1l1-1c0-7.148-22.492 3-27 3v1l-1 1-1 2-1 1-1 1-1 3h6Z"/><path fill="#CAC7CB" id="fiber tracts" d="m270 270-1 1 1-1Z"/><path fill="#95E4C7" id="NLOT1" d="M312 295h1c2.518 0 4.286-2 6-2v-10c-10.72 0-17-1.61-17-13-2.063 0-3 9.866-3 12 1.183 0 1.535 3.57 2 4.5l5 5.5 4 2 2 1Z"/><path fill="#99D2BD" id="OLF" d="m325 271-1 1v-2l1 1ZM120 275l-1 2-5.5-4-4.5 1 1-3h2l5 3 3 1Z"/><path fill="#60E5B7" id="COAa" d="M137 293c0 6.042-12.674 3-16 3 0-5.873-2-12.394-2-19l1-2c3.773 0 6.657-4 11-4l2 1c0 2.482-.669 10 3 10l1 1v10Z"/><path fill="#97D6F9" id="STR" d="m165 271-1 2 1-2Z"/><path fill="#CAC7CB" id="fiber tracts" d="m199 283 17 1c0-1.658-10.917-1.209-12.5-2-1.876-.938-11.919-9-12.5-9l-3-2c0 4.625 11 6.958 11 12ZM269 271l-2 1 2-1Z"/><path fill="#60E5B7" id="COAa" d="M319 293c0 4.458 12.717 4 16 4 0-6.009 3-12.11 3-19l-2-3c-3.546 0-6.807-4-11-4l-1 1c0 3.909-3 7.158-3 10l-1 1-1 1v9Z"/><path fill="#99D2BD" id="OLF" d="m343 273 4 1v-3h-3l-1 2Z"/><path fill="#CAC7CB" id="fiber tracts" d="M226 285h1c0 2.514-14.291 3-16.5 3-17.215 0-14.545.728-30-7-3.356-1.678-11.5-3.279-11.5-9l6.5 6c7.545 3.773 14.308 8 23.5 8 0 1.156 2.555 1.472 3.5 1 3.113-1.556 11.101-2 14.5-2h9Z"/><path fill="#E64438" id="HY" d="M265 273h1v-1l-1 1Z"/><path fill="#CAC7CB" id="fiber tracts" d="m267 272-1 1v-1h1Z"/><path fill="#59D9AA" id="PAA" d="M108 301h7c0-2.352 6-.59 6-5 0-5.873-2-12.394-2-19l-5.5-4-4.5 1c0 7.023-12 20.536-12 23 2.86 0 5.58 3 9 3l2 1Z"/><path fill="#CAC7CB" id="fiber tracts" d="m266 273-1 1v-1h1ZM287 273l-1 1 1-1Z"/><path fill="#97D6F9" id="STR" d="m292 273 1 1-1-1Z"/><path fill="#99D2BD" id="OLF" d="M342 273c0 1.577-1.762 2-3 2l2-2h1Z"/><path fill="#59D9AA" id="PAA" d="M341 301h8l2-1c2.748 0 5.804-3 8-3 0-1.043-12-17.479-12-23l-4-1h-1c0 1.577-1.762 2-3 2l-1 3c0 6.89-3 12.991-3 19 0 2.96 6 2.124 6 4Z"/><path fill="#97D6F9" id="STR" d="m164 274-1 1 1-1Z"/><path fill="#E64438" id="HY" d="M231 284h3l1-3c-3.132 0-5-.436-5-4-1.473 0-1-1.952-1-3h-1c0 1.048.473 3-1 3 0 2.96-2.399 4-5 4l1 3h3c0-3.955 5-2.09 5 0Z"/><path fill="#CAC7CB" id="fiber tracts" d="m265 274-1 1 1-1ZM286 274l-1 1 1-1ZM285 275c-1.747 0-2 .253-2 2 1.747 0 2-.253 2-2Z"/><path fill="#97D6F9" id="STR" d="m293 275 1 1-1-1Z"/><path fill="#99D2BD" id="OLF" d="m339 275-1 3-2-3h3Z"/><path fill="#97D6F9" id="STR" d="m163 276-1 1 1-1Z"/><path fill="#E64438" id="HY" d="m239 276-1 1 1-1Z"/><path fill="#CAC7CB" id="fiber tracts" d="m257 283-16 1c0-1.483 10.039-1.269 11.5-2 2.652-1.326 7.603-6 10.5-6l-6 7Z"/><path fill="#97D6F9" id="STR" d="m162 277-1 2 1-2Z"/><path fill="#CAC7CB" id="fiber tracts" d="M283 277c-1.572 0-7 2.052-7 4 2.591 0 7-1.238 7-4Z"/><path fill="#97D6F9" id="STR" d="M160 281h1v-2l-1 2Z"/><path fill="#E64438" id="HY" d="m237 279-1 1 1-1Z"/><path fill="#97D6F9" id="STR" d="M295 281h2l-2-2v2Z"/><path fill="#E64438" id="HY" d="m236 280-1 1 1-1Z"/><path fill="#99D2BD" id="OLF" d="m157 282-2 6c3.254 0 6-4.041 6-7h-1l-3 1Z"/><path fill="#CAC7CB" id="fiber tracts" d="m268 285-11 1c0 1.156-2.555 1.472-3.5 1-2.821-1.411-10.462-2-13.5-2h-9c-2.212 0-2.212-1 0-1 0-2.09-5-3.955-5 0l1 1c2.029 0 1.881 1.191 3.5 2 2.273 1.136 27.55 2.225 30 1 1.401-.7 7.5-1.039 7.5-3ZM276 281c-1.465 0-4-.109-4 2l4-2Z"/><path fill="#99D2BD" id="OLF" d="M299 282c1.183 0 1.535 3.57 2 4.5l5 5.5c-2.873 0-11-8.106-11-11h2l2 1ZM136 282l1 1-1-1ZM321 282l-1 1 1-1Z"/><path fill="#CBCACC" id="och" d="M217 285c-3.399 0-11.387.444-14.5 2-.945.472-3.5.156-3.5-1v-3l17 1h1v1ZM240 285c3.038 0 10.679.589 13.5 2 .945.472 3.5.156 3.5-1v-3l-16 1h-1v1Z"/><path fill="#CAC7CB" id="fiber tracts" d="M272 283c-1.465 0-4-.109-4 2 1.465 0 4 .109 4-2Z"/><path fill="#99D2BD" id="OLF" d="m320 283-1 1v-1h1Z"/><path fill="#CCCAC9" id="sup" d="M217 285h9v-1h-9v1Z"/><path fill="#CBCACC" id="och" d="M226 285h1l-1-1v1ZM231 284c-2.212 0-2.212 1 0 1v-1Z"/><path fill="#CCCAC9" id="sup" d="M231 285h9v-1h-9v1Z"/><path fill="#99D2BD" id="OLF" d="m155 288-1 1 1-1ZM154 289l-1 1 1-1ZM153 290l-2 1 2-1ZM151 291l-1 1 1-1ZM150 292l-1 1 1-1ZM121 296c0 4.41-6 2.648-6 5 7.831 0 14.112-4 21.5-4 1.689 0 7.5-.198 7.5-2-2.833 0-4.84-2-7-2 0 6.042-12.674 3-16 3ZM148 293l-1 1 1-1ZM335 297c0 2.96 6 2.124 6 4-7.443 0-13.655-4-20.5-4-1.689 0-7.5-.198-7.5-2 2.518 0 4.286-2 6-2 0 4.458 12.717 4 16 4ZM147 294l-2 1 2-1ZM310 294l2 1-2-1ZM106 300l2 1-2-1ZM351 300l-2 1 2-1Z"/></svg>