<svg xmlns="http://www.w3.org/2000/svg" viewBox="0 0 456 320"><path fill="#1BA696" id="RSPagl1" d="M186 12c-4.837 0-8.981 3-14 3l-1-6c5.446 0 9.184-2 15-2v5Z"/><path fill="#1BA598" id="RSPd1" d="m220 16-3 2c0-8.043-26.081-6-31-6V7c13.066 0 17.009-1.246 27.5 4 1.596.798 6.5 2.296 6.5 5ZM237 16l2 2 7.5-5c6.982-3.491 16.148-1 23.5-1l1-5c-7.094 0-34-1.113-34 9Z"/><path fill="#1BA696" id="RSPagl1" d="M270 12c5.174 0 9.494 3 15 3l1-6c-5.5 0-9.257-2-15-2l-1 5Z"/><path fill="#09848B" id="VISam1" d="m172 15-13 2-1-5c4.273 0 8.795-3 13-3l1 6ZM285 15c4.246 0 7.473 2 12 2l2-4c0-1.496-11.357-4-13-4l-1 6Z"/><path fill="#1BA697" id="RSPd2/3" d="m217 19-4 3-4.5-3c-2.93-1.465-7.011-.506-10-2L186 19v-7c4.919 0 31-2.043 31 6v1ZM270 19l-12.5-2c-1.277.639-13.887 5-14.5 5 0-.966-2.886-3-4-3v-1l7.5-5c6.982-3.491 16.148-1 23.5-1v7Z"/><path fill="#0A8589" id="VISpm1" d="m136 19 2 4c6.569 0 14.124-6 21-6l-1-5c-5.008 0-12.143 2.822-16.5 5-1.319.66-5.5-.334-5.5 2Z"/><path fill="#1AA496" id="RSPagl2/3" d="M173 22v2l13-5v-7c-4.837 0-8.981 3-14 3l1 7ZM284 22l-1 2-13-5v-7c5.174 0 9.494 3 15 3 0 1.819-1 4.59-1 7Z"/><path fill="#0A8589" id="VISpm1" d="M318 23h1l1-5c-6.841 0-13.391-5-21-5l-2 4c7.048 0 14.407 6 21 6Z"/><path fill="#0B848A" id="VISam2/3" d="M173 22c-4.304 0-7.464 3-12 3l-2-8 13-2 1 7ZM284 22c3.99 0 6.666 3 11 3 1.434 0 2-6.448 2-8-4.527 0-7.754-2-12-2 0 1.819-1 4.59-1 7Z"/><path fill="#1BA597" id="RSPv1" d="M210 88c9.107 0 12.964-12.428 16-18.5l2.5-7.5c.76 0 2.04 8.58 2.5 9.5 3.099 6.197 7.488 16.5 16 16.5l1-3c0-2.764-9.457-6.414-11-9.5-2.885-5.77-2.132-13.264-5-19-2.785-5.57 1.199-37.5 7-37.5v-1l-2-2c-4.361 0-6.052 20.397-12 8.5l-2-4-3-4.5-3 2v1c3.196 0 5.039 7.578 6 9.5 2.382 4.763 3.516 25.969 1 31-2.995 5.99-3.94 12.88-7 19-1.149 2.297-9 3.776-9 6.5l2 3Z"/><path fill="#08858B" id="VISpm2/3" d="m161 26-20 6-3-9c6.569 0 14.124-6 21-6l2 8v1Z"/><path fill="#1AA596" id="RSPd5" d="M204 31h1l8-8v-1l-4.5-3c-2.93-1.465-7.011-.506-10-2L186 19l-1 12c3.598 0 8.649-5.425 13.5-3l5.5 3ZM252 31c3.59 0 8.481-5.51 13.5-3l5.5 3c0-4.107-1-8.469-1-12l-12.5-2c-1.277.639-13.887 5-14.5 5v1c4.487 0 5.789 8 9 8Z"/><path fill="#08858B" id="VISpm2/3" d="M315 32h1l2-9c-6.593 0-13.952-6-21-6 0 1.552-.566 8-2 8v1l20 6Z"/><path fill="#098589" id="VISp1" d="M351 37h1l2-5c0-1.325-5.361-2.43-6.5-3-6.391-3.196-20.516-11-27.5-11l-1 5c5.823 0 19.043 7.272 24.5 10 1.475.737 7.5 1.705 7.5 4ZM102 32c0 1.429 1.288 4 3 4 5.982 0 25.197-13 33-13l-2-4c-8.943 0-17.972 5.236-25.5 9-1.408.704-8.5 2.495-8.5 4Z"/><path fill="#1CA697" id="RSPagl5" d="m185 31-10 5c0-3.451-2-7.022-2-11v-1l13-5-1 12Z"/><path fill="#1AA597" id="RSPv2/3" d="m206 84 2 1c0-2.724 7.851-4.203 9-6.5 3.06-6.12 4.005-13.01 7-19 2.516-5.031 1.382-26.237-1-31-.961-1.922-2.804-9.5-6-9.5l-4 3v1c5.663 0 6 12.149 6 16 0 11.365.815 42-14 42v1l1 2ZM250 84l-2 1c0-2.764-9.457-6.414-11-9.5-2.885-5.77-2.132-13.264-5-19-2.785-5.57 1.199-37.5 7-37.5 1.114 0 4 2.034 4 3v1c-5.102 0-8.396 27.709-6 32.5 3.054 6.107 2.873 13.746 6 20l4.5 5.5c1.046.523 3.5-.951 3.5 1v1l-1 1Z"/><path fill="#1CA697" id="RSPagl5" d="m271 31 11 5 1-11v-1l-13-5c0 3.531 1 7.893 1 12Z"/><path fill="#09858A" id="VISam4" d="M161 26v3c4.264 0 7.497-4 12-4v-3c-4.304 0-7.464 3-12 3v1ZM295 26v3c-4.264 0-7.497-4-12-4v-1l1-2c3.99 0 6.666 3 11 3v1Z"/><path fill="#0A828C" id="VISp2/3" d="M108 44h1c5.748 0 23.103-12 32-12l-3-9c-7.803 0-27.018 13-33 13v1l3 7Z"/><path fill="#1BA498" id="RSPv5" d="M204 81h1c14.815 0 14-30.635 14-42 0-3.851-.337-16-6-16l-8 8v34.5c0 2.367-1.359 11.5-4 11.5l2 3 1 1ZM253 81l-2 1c0-1.951-2.454-.477-3.5-1l-4.5-5.5c-3.127-6.254-2.946-13.893-6-20-2.396-4.791.898-32.5 6-32.5 4.487 0 5.789 8 9 8v1c-2.497 0-2 8.839-2 11 0 3.282-.13 23.24 1 25.5.912 1.824 4 6.62 4 8.5v2c-1.747 0-2 .253-2 2Z"/><path fill="#0A828C" id="VISp2/3" d="m351 37-3 7c-7.188 0-22.994-12-32-12l2-9h1c5.823 0 19.043 7.272 24.5 10 1.475.737 7.5 1.705 7.5 4Z"/><path fill="#0A848B" id="VISam5" d="M175 36c-3.88 0-7.764 4-12 4 0-3.378-2-6.922-2-11 4.264 0 7.497-4 12-4 0 3.978 2 7.549 2 11ZM293 40h1c0-3.802 1-7.79 1-11-4.264 0-7.497-4-12-4l-1 11 11 4Z"/><path fill="#09828B" id="VISpm4" d="m141 32 1 4 19-7v-3l-20 6ZM314 36h1v-4l-20-6v3c5.529 0 14.23 7 19 7Z"/><path fill="#1AA697" id="RSPd6a" d="M185 40c1.423 0 3.544-1.978 5.5-1l3.5 2c2.021 0 10-8.018 10-10l-5.5-3c-4.851-2.425-9.902 3-13.5 3v9ZM262 41h2c0-4.045 5.781-1 7-1v-9l-5.5-3c-5.019-2.51-9.91 3-13.5 3v1c3.928 0 5.797 9 10 9Z"/><path fill="#088489" id="VISpm5" d="m163 40-18 4-3-8 19-7c0 4.078 2 7.622 2 11ZM294 40l18 4 2-8c-4.77 0-13.471-7-19-7 0 3.21-1 7.198-1 11Z"/><path fill="#1CA597" id="RSPagl6a" d="m184 41-7 2c-2.273 0-2-5.226-2-7l10-5v9l-1 1Z"/><path fill="#1AA498" id="RSPv6a" d="m198 74 3 3c2.641 0 4-9.133 4-11.5V31h-1c0 1.982-7.979 10-10 10v1c1.633 0 3.308 9 1 9l4 16v6l-1 1Z"/><path fill="#1CA597" id="RSPagl6a" d="M271 40c3.391 0 5.353 3 9 3l2-7-11-5v9Z"/><path fill="#029FAB" id="VISrl1" d="M77 53h1c4.612 0 18.882-16 27-16v-1c-1.712 0-3-2.571-3-4-7.139 0-20.602 17-26 17l1 4Z"/><path fill="#0B848B" id="VISp4" d="m109 44 2 4c5.589 0 25.828-12 31-12l-1-4c-8.897 0-26.252 12-32 12Z"/><path fill="#1AA498" id="RSPv6a" d="m258 74-3 3c0-1.88-3.088-6.676-4-8.5-1.13-2.26-1-22.218-1-25.5 0-2.161-.497-11 2-11 3.928 0 5.797 9 10 9v1c0 2.354-1 5.17-1 9 0 5.895-4 10.6-4 16l1 7Z"/><path fill="#0B848B" id="VISp4" d="m348 45-3 3c-3.991 0-18.364-6.932-22.5-9-1.272-.636-7.5-1.45-7.5-3v-4h1c9.006 0 24.812 12 32 12v1Z"/><path fill="#029FAB" id="VISrl1" d="m381 50-3 3c-2.297 0-20.236-16-26-16l2-5c6.885 0 14.476 9.988 20.5 13 1.608.804 6.5 3.393 6.5 5Z"/><path fill="#088389" id="VISp5" d="m111 49 4 7c8.193 0 20.684-12 30-12l-3-8c-5.172 0-25.411 12-31 12v1Z"/><path fill="#0A828B" id="VISam6a" d="m175 45-11 2-1-7c4.236 0 8.12-4 12-4 0 1.774-.273 7 2 7v1l-2 1ZM280 44l12 3c0-1.819 1-4.59 1-7l-11-4-2 7v1Z"/><path fill="#088389" id="VISp5" d="m345 49-4 7c-8.513 0-18.46-11-29-11v-1l2-8h1c0 1.55 6.228 2.364 7.5 3 4.136 2.068 18.509 9 22.5 9v1Z"/><path fill="#029EAC" id="VISrl2/3" d="m78 53 5 6c3.658 0 14.466-9.983 18.5-12 1.326-.663 6.5-1.002 6.5-3l-3-7c-8.118 0-22.388 16-27 16ZM378 53c0 1.442-3.274 6-5 6-4.699 0-16.96-14-25-14v-1l3-7h1c5.764 0 23.703 16 26 16Z"/><path fill="#1BA698" id="RSPd6b" d="M193 42h1v-1l-3.5-2c-1.956-.978-4.077 1-5.5 1v1c1.49 0 8-.735 8 1ZM264 41h7v-1c-1.219 0-7-3.045-7 1Z"/><path fill="#09858B" id="VISpm6a" d="m164 47-17 3c0-1.974-2-3.517-2-6l18-4 1 7Z"/><path fill="#1AA598" id="RSPagl6b" d="M184 41h1v-1l-1 1ZM280 44l-1 1-8-4v-1c3.391 0 5.353 3 9 3v1Z"/><path fill="#09858B" id="VISpm6a" d="M292 47c6.043 0 12.17 3 18 3 0-.67 1.328-5 2-5v-1l-18-4h-1c0 2.41-1 5.181-1 7Z"/><path fill="#1AA598" id="RSPagl6b" d="M177 44v1c1.122 0 7-2.632 7-4l-7 2v1Z"/><path fill="#CACCC7" id="cing" d="m195 51 4 16c-3.752 0-8.33-16.915-12.5-19-6.07-3.035-13.633 2-20.5 2-1.235 0-5 .643-5-1h4c1.061 0 10-3.044 10-4h2c1.122 0 7-2.632 7-4h1c1.49 0 8-.735 8 1 0 2.526 2 5.577 2 9Z"/><path fill="#1BA698" id="RSPd6b" d="M262 42h1l1-1h-2v1Z"/><path fill="#CACCC7" id="cing" d="M261 51c0 5.895-4 10.6-4 16 4.66 0 8.704-17.102 14.5-20 3.068-1.534 14.728 3 19.5 3 1.145 0 4 .58 4-1h-3c-3.808 0-9.028-4-13-4l-8-4h-7l-1 1c0 1.014-1.208 9-2 9Z"/><path fill="#1AA497" id="RSPv6b" d="M194 42c1.633 0 3.308 9 1 9 0-3.423-2-6.474-2-9h1ZM263 42c0 1.014-1.208 9-2 9 0-3.83 1-6.646 1-9h1Z"/><path fill="#019EAA" id="VISrl4" d="M83 60c2.35 0 1.382 3 4 3 5.024 0 15.288-14 24-14v-1l-2-4h-1c0 1.998-5.174 2.337-6.5 3-4.034 2.017-14.842 12-18.5 12v1Z"/><path fill="#08858C" id="VISp6a" d="M118 62h1c0-2.126 23.785-11 28-11v-1c0-1.974-2-3.517-2-6-9.316 0-21.807 12-30 12v1c1.477 0 3 3.924 3 5Z"/><path fill="#08838A" id="VISam6b" d="M175 45h2v-1l-2 1ZM292 47v2c-3.808 0-9.028-4-13-4l1-1 12 3ZM164 47l1 2c1.061 0 10-3.044 10-4l-11 2Z"/><path fill="#08858C" id="VISp6a" d="m341 57-3 5c-5.749 0-18.957-11-28-11v-1c0-.67 1.328-5 2-5 10.54 0 20.487 11 29 11v1Z"/><path fill="#019EAA" id="VISrl4" d="M369 64h1l3-4v-1c-4.699 0-16.96-14-25-14l-3 3v1c3.904 0 24 11.02 24 15Z"/><path fill="#088589" id="VISpm6b" d="M153 50c-1.564 0-3.876 1-6 1v-1l17-3 1 2h-4l-8 1Z"/><path fill="#C8C9CA" id="fp" d="M65 146h2c0-1.593.337-7 2-7 0-1.623.005-6 2-6 0-1.622-.46-5 2-5v-1l1-2 1-2c0-1.465-.109-4 2-4v-1l2-4 2-4c0-1.238.423-3 2-3v-1c0-1.238.423-3 2-3 0-1.238.423-3 2-3l1-1 1-2 1-1 1-1 1-2 1-1 1-1 1-1 1-1 1-1 1-1 1-1 1-1 1-1 1-1h1c0-1.747.253-2 2-2l1-1 1-1 2-2h1l1-1 2-1 1-1h1l1-1 2-1 1-1h1l1-1 2-1c0-1.577 1.762-2 3-2h1l2-1 2-1 2-1 2-1c0-1.638 3.576-2 5-2h1c0-1.995 4.377-2 6-2 0-2.457 9.943-1 11-1 0-4.82 12.251-3.124 14.5-2 8.755 4.377 20.5 8.064 20.5 19l5-1 1-1v-6c-3.752 0-8.33-16.915-12.5-19-6.07-3.035-13.633 2-20.5 2 0 1.714-5.594 1-7 1l-5 2c-9.915 0-20.121 5.81-28.5 10-17.384 8.692-37.297 22.095-46.5 40.5-3.062 6.124-4.915 12.831-8 19l-2 10c-1.664 3.327-4 9.756-4 13.5ZM390 146h1c0-4.614-2.025-10.551-4-14.5l-2-10-10-22c-8.577-17.154-29.494-28.997-44.5-36.5-8.086-4.043-17.953-10-27.5-10-.836 0-12-2.966-12-3-4.772 0-16.432-4.534-19.5-3-5.796 2.898-9.84 20-14.5 20l1 7 6 1c0-1.423-1.978-3.544-1-5.5 3.282-6.564 14.466-10.483 20.5-13.5 2.826-1.413 14.5-2.807 14.5 2 3.576 0 27 2.318 27 7h1c1.238 0 3 .423 3 2h1c1.238 0 3 .423 3 2h1l2 2h1l1 1h1l1 1h1l2 2h1l2 2h1c1.634 0 4 2.635 4 4h1c1.206 0 13 12.317 13 13l1 1 3 4v1l2 2v1c2.673 0 8 11.657 8 14v1c2.203 0 2.344 4.189 3 5.5 2.98 5.96 8 15.64 8 22.5Z"/><path fill="#088589" id="VISpm6b" d="M309 51h1v-1c-5.83 0-11.957-3-18-3v2h3c2.008 0 9-.656 9 2h5Z"/><path fill="#0B838B" id="VISal1" d="M64 65h1l12-12-1-4-14 13 2 3Z"/><path fill="#019DAB" id="VISrl5" d="M92 71h1c0-1.354 19.414-14 22-14v-1l-4-7c-8.712 0-18.976 14-24 14v1l5 7Z"/><path fill="#C9C9CA" id="scwm" d="M166 50c0 1.714-5.594 1-7 1l-5 2-1-3 8-1c0 1.643 3.765 1 5 1ZM304 51l-1 2c-.836 0-12-2.966-12-3 1.145 0 4 .58 4-1 2.008 0 9-.656 9 2Z"/><path fill="#019DAB" id="VISrl5" d="M369 64c0 2.863-5 4.921-5 7-2.932 0-16.378-14-23-14v-1l4-7c3.904 0 24 11.02 24 15Z"/><path fill="#CBC9C7" id="or" d="m65 146-1 14.5c-1.928 3.855-3-5.64-3-6.5 2.656 0 2-6.992 2-9l1-9c1.473 0 1-1.952 1-3v-1l1-1 1-6c1.473 0 1-1.952 1-3l1-2v-1c1.348 0 3.216-3 1-3 0-4.025 5-7.554 5-12 1.655 0 8-11.24 8-13 1.26 0 5-3.346 5-5l9-9c1.822 0 8-3.711 8-6 2.244 0 6-1.725 6-4l8-4c.173 0 21.788-9.288 22-9.5 1.159-1.16 6-.11 6-2.5 2.124 0 4.436-1 6-1l1 3c-9.915 0-20.121 5.81-28.5 10-17.384 8.692-37.297 22.095-46.5 40.5-3.062 6.124-4.915 12.831-8 19l-2 10c-1.664 3.327-4 9.756-4 13.5Z"/><path fill="#0B838B" id="VISal1" d="M391 65h1l3-3c0-2.695-7.71-6.21-10-8.5l-4-3.5-3 3c2.65 0 13 10.037 13 12Z"/><path fill="#08858A" id="VISp6b" d="M119 62v1c.173 0 21.788-9.288 22-9.5 1.159-1.16 6-.11 6-2.5-4.215 0-28 8.874-28 11Z"/><path fill="#CBC9C7" id="or" d="m393 146 2 9c0 13.482-4-4.28-4-9 0-4.614-2.025-10.551-4-14.5l-2-10-10-22c-8.577-17.154-29.494-28.997-44.5-36.5-8.086-4.043-17.953-10-27.5-10l1-2h5c0 2.729 5.007 1.254 6.5 2 3.942 1.971 19.042 10 22.5 10 5.079 0 17.352 15 22 15l3 3 1 1 1 1 2 2h1c0 4.477 13 13.563 13 19 0 4.095 5 7.713 5 12 0 4.6 4 8.545 4 13l1 2v2c0 4.068 2 8.146 2 13Z"/><path fill="#08858A" id="VISp6b" d="M338 62v1c-3.458 0-18.558-8.029-22.5-10-1.493-.746-6.5.729-6.5-2h1c9.043 0 22.251 11 28 11Z"/><path fill="#098389" id="VISal2/3" d="m65 65 6 6c4.926 0 6.758-11 12-11v-1l-5-6h-1L65 65ZM385 71h1l5-6c0-1.963-10.35-12-13-12 0 1.442-3.274 6-5 6v1c2.154 0 12 8.619 12 11Z"/><path fill="#C9CCC9" id="dhc" d="M192 75h1c0-10.936-11.745-14.623-20.5-19-2.249-1.124-14.5-2.82-14.5 2l2 1h2c4.808 0 21 9.245 21 14h1c1.238 0 3 .423 3 2h5ZM267 75h2l2-1 1-1h1l1-1 1-1c0-1.577 1.762-2 3-2l1-1 1-1 1-1c0-1.712 2.571-3 4-3 0-2.109 2.535-2 4-2l2-1c0-1.473 1.952-1 3-1h3l1-1c0-4.807-11.674-3.413-14.5-2-6.034 3.017-17.218 6.936-20.5 13.5-.978 1.956 1 4.077 1 5.5h3Z"/><path fill="#029EAB" id="VISrl6a" d="M96 77h1c0-1.89 6.374-6 8-6 0-1.617 4.583-4 6-4 0-1.391 5.706-5 7-5 0-1.076-1.523-5-3-5-2.586 0-22 12.646-22 14l3 6Z"/><path fill="#C7C8CC" id="alv" d="M147 59h13l-2-1c-1.057 0-11-1.457-11 1ZM297 59c4.695 0 11.554-.973 15.5 1l12.5 5c0-4.682-23.424-7-27-7l-1 1Z"/><path fill="#029EAB" id="VISrl6a" d="M360 77h1c0-1.408 1.197-5 3-5v-1c-2.932 0-16.378-14-23-14l-3 5c4.065 0 14.567 8.067 17.5 11l4.5 4Z"/><path fill="#C7C8CC" id="alv" d="M147 59c-1.623 0-6 .005-6 2 1.357 0 6-.647 6-2Z"/><path fill="#7ECF4B" id="CA1" d="M69 139c0 5.897-5.522 24.455-3 29.5 2.347 4.693.661 11.323 3 16 8.85 17.701 18.11 31.305 36.5 40.5 7.427 3.714 15.76 11 24.5 11 0-3.035-20.554-14.609-23-19.5l-20-24c-10.321-20.643-16.434-44.566 2.5-63.5 3.938-3.938 11.974-13 17.5-13 0-6.272 8.007-14.253 13.5-17 3.244-1.622 7.022-6.011 11-8 6.434-3.217 13.6-4.8 20-8 5.277-2.639 13.157 2 17.5 2 0-6.903 2-13.647 2-21 0-2.985-9-3.003-9-5h-15c0 1.353-4.643 2-6 2h-1c0 1.638-3.576 2-5 2l-2 1-2 1-2 1-2 1h-1c0 1.577-1.762 2-3 2l-2 1-1 1h-1l-1 1-2 1-1 1h-1l-1 1-2 1-1 1h-1c0 1.747-.253 2-2 2l-1 1-1 1-2 2h-1l-1 1-1 1-1 1-1 1-1 1-1 1-1 1-1 1-1 1-1 1-1 2-1 1-1 1-1 2-1 1c0 1.238-.423 3-2 3 0 1.238-.423 3-2 3v1c0 1.238-.423 3-2 3 0 1.465.109 4-2 4 0 1.465.109 4-2 4v1l-2 4-1 2-1 2v1c0 1.424-.362 5-2 5 0 1.623-.005 6-2 6Z"/><path fill="#C7C8CC" id="alv" d="m178 70 5 3c0-4.755-16.192-14-21-14 0 1.997 9 2.015 9 5 1.763 0 7 4.012 7 6ZM294 59c-1.048 0-3-.473-3 1 1.048 0 3 .473 3-1Z"/><path fill="#7ECF4B" id="CA1" d="M327 235h6c0-1.638 3.576-2 5-2 0-.875 13.132-8 15-8 0-2.655 12.196-8.848 14.5-10 10.307-5.154 15.179-21.858 19.5-30.5 5.077-10.154 3.931-39.139-1-49l-7-17.5v-1c-1.17 0-8-12.323-8-14v-1l-2-2v-1c-1.712 0-3-2.571-3-4l-1-1-13-13h-1l-4-4h-1l-2-2h-1l-2-2h-1l-1-1h-1l-1-1h-1l-2-2h-1l-3-2h-1c-1.238 0-3-.423-3-2h-1l-12.5-5c-3.946-1.973-10.805-1-15.5-1h-3c0 1.473-1.952 1-3 1l-2 1-3 2-1 1 2 21c4.449 0 12.235-4.632 17.5-2 7.691 3.846 16.233 6.117 24 10l9 7c4.536 2.268 12.5 10.867 12.5 16 6.278 0 10.202 9.351 15.5 12 3.615 1.807 5.801 5.102 7.5 8.5 1.922 3.845 4.11 7.22 6 11 1.194 2.388.979 8.042 0 10-2.61 5.22.658 13.685-2 19-6.081 12.161-13.247 25.247-23 35-6.907 6.907-13.894 11.894-20 18l-7 5.5Z"/><path fill="#088588" id="VISal4" d="m71 72 3 2c4.456 0 7.996-10 13-10v-1c-2.618 0-1.65-3-4-3-5.242 0-7.074 11-12 11v1Z"/><path fill="#C7C8CC" id="alv" d="m291 60-2 1 2-1Z"/><path fill="#088588" id="VISal4" d="m385 71-3 3-12-10 3-4c2.154 0 12 8.619 12 11Z"/><path fill="#C7C8CC" id="alv" d="M140 61c-1.424 0-5 .362-5 2 1.424 0 5-.362 5-2ZM285 63h1l3-2c-1.465 0-4-.109-4 2Z"/><path fill="#039399" id="AUDd1" d="M50 82h1c0-4.925 13-13.162 13-17l-2-3c-1.179 0-16 16.425-16 17l4 3Z"/><path fill="#009DAA" id="VISrl6b" d="m119 63-8 4c0-1.391 5.706-5 7-5h1v1ZM360 77v1c-4.648 0-16.921-15-22-15v-1c4.065 0 14.567 8.067 17.5 11l4.5 4Z"/><path fill="#039399" id="AUDd1" d="m410 79-4 3c-1.16 0-11.503-17-14-17l3-3c0 2.033 15 12.56 15 17Z"/><path fill="#C7C8CC" id="alv" d="m135 63-2 1 2-1ZM285 64l-4 2c0-1.712 2.571-3 4-3v1Z"/><path fill="#57B947" id="ProS" d="m286 63-1 1v-1h1Z"/><path fill="#08848B" id="VISal5" d="M82 81h1c0-3.982 9-5.493 9-10l-5-7c-5.004 0-8.544 10-13 10v1l8 6Z"/><path fill="#C7C8CC" id="alv" d="m133 64-2 1 2-1Z"/><path fill="#57B947" id="ProS" d="m175 89 2 1 1-20c0-1.988-5.237-6-7-6 0 7.353-2 14.097-2 21l6 4ZM287 85l-7 5c0-6.422-2-13.746-2-20v-1l1-1 1-1 1-1 4-2 2 21Z"/><path fill="#08848B" id="VISal5" d="M374 81h1l7-6v-1l-12-10h-1c0 2.863-5 4.921-5 7v1c3.664 0 7.254 9 10 9Z"/><path fill="#029397" id="AUDd2/3" d="m51 82 6 5 14-15v-1l-6-6h-1c0 3.838-13 12.075-13 17Z"/><path fill="#C7C8CC" id="alv" d="m131 65-2 1 2-1ZM326 65c1.238 0 3 .423 3 2-1.238 0-3-.423-3-2Z"/><path fill="#029397" id="AUDd2/3" d="M399 87h1c2.33 0 3.227-4 6-4v-1c-1.16 0-11.503-17-14-17h-1l-5 6 13 16Z"/><path fill="#C7C8CC" id="alv" d="m129 66-2 1 2-1ZM281 66l-1 1 1-1Z"/><path fill="#009DAA" id="VISrl6b" d="M111 67c-1.417 0-6 2.383-6 4 2.244 0 6-1.725 6-4Z"/><path fill="#C7C8CC" id="alv" d="M126 67c-1.238 0-3 .423-3 2 1.238 0 3-.423 3-2ZM280 67l-1 1 1-1ZM330 67c1.238 0 3 .423 3 2l-3-2ZM279 68l-1 1 1-1ZM123 69l-2 1 2-1ZM278 70l-3 1c0-1.577 1.762-2 3-2v1ZM334 69l2 2-2-2ZM121 70l-1 1 1-1Z"/><path fill="#4FC244" id="SUB" d="m177 90 2 1h20.5c2.225-1.112 4.846-2 7.5-2l-1-5-1-2-1-1-1-1c-3.698 0-7.064-4-11-4-1.048 0-3 .473-3-1h-2l-3-2h-1l-5-3-1 20ZM280 90c-1.048 0-3-.473-3 1h-19.5c-1.892-.946-5.372-2-7.5-2v-5l1-1v-1l2-1 2-2c2.885 0 4.697-2 8-2l1-1c1.048 0 3 .473 3-1h2l2-1 1-1h1l1-1 1-1 3-1c0 6.254 2 13.578 2 20Z"/><path fill="#09828C" id="VISal6a" d="M87 85h1l8-8-3-6h-1c0 4.507-9 6.018-9 10 0 1.365 2.366 4 4 4Z"/><path fill="#009DAA" id="VISrl6b" d="M105 71c-1.626 0-8 4.11-8 6 1.822 0 8-3.711 8-6Z"/><path fill="#C7C8CC" id="alv" d="m119 71-1 1 1-1ZM275 71l-1 1 1-1ZM337 71l1 1-1-1Z"/><path fill="#039398" id="AUDd4" d="m399 87-2 3c-2.245 0-9.724-15-15-15v-1l3-3h1l13 16ZM57 88l3 2c0-1.394 12.661-15 14-15v-1l-3-2-14 15v1Z"/><path fill="#C7C8CC" id="alv" d="m118 72-2 1 2-1ZM274 72l-1 1 1-1ZM339 72l1 1-1-1Z"/><path fill="#09828C" id="VISal6a" d="M369 85h1l4-4c-2.746 0-6.336-9-10-9-1.803 0-3 3.592-3 5l8 8Z"/><path fill="#C7C8CC" id="alv" d="m116 73-1 1 1-1ZM184 73c1.238 0 3 .423 3 2l-3-2Z"/><path fill="#7DCD4B" id="HPF" d="m199 73-1 1 1-1Z"/><path fill="#C7C8CC" id="alv" d="m272 73-1 1 1-1ZM341 73l2 2-2-2ZM114 74l-1 1 1-1Z"/><path fill="#7DCD4B" id="HPF" d="m201 77 2 3c-3.698 0-7.064-4-11-4v-1h1l5-1 3 3ZM263 77c-3.303 0-5.115 2-8 2v-2l3-3 6 1v1l-1 1Z"/><path fill="#C7C8CC" id="alv" d="m271 74-2 1 2-1Z"/><path fill="#029398" id="AUDd5" d="m60 91 9 7 13-17-8-6c-1.339 0-14 13.606-14 15v1Z"/><path fill="#C7C8CC" id="alv" d="m113 75-2 1 2-1ZM192 75v1c-1.048 0-3 .473-3-1h3ZM267 75c0 1.473-1.952 1-3 1v-1h3ZM344 75l2 2-2-2Z"/><path fill="#029398" id="AUDd5" d="m389 98-1 1-3.5-4c-1.884-1.884-9.5-11.311-9.5-14l7-6c5.276 0 12.755 15 15 15v1c-2.761 0-8 4.9-8 7Z"/><path fill="#C7C8CC" id="alv" d="m111 76-1 1 1-1ZM264 76l-1 1 1-1Z"/><path fill="#0B848C" id="VISal6b" d="M88 85v1l9-9h-1l-8 8Z"/><path fill="#C7C8CC" id="alv" d="m109 77-2 2c1.747 0 2-.253 2-2ZM347 77c1.634 0 4 2.635 4 4l-4-4Z"/><path fill="#0B848C" id="VISal6b" d="M368 85h1l-8-8h-1v1l3 3 1 1 1 1 2 2h1Z"/><path fill="#039299" id="AUDpo1" d="M48 85h1l1-3-4-3c-1.577 0-2 1.762-2 3l4 3Z"/><path fill="#C7C8CC" id="alv" d="m107 79-1 1 1-1Z"/><path fill="#7DCD4B" id="HPF" d="M255 79c-1.747 0-2 .253-2 2l2-2Z"/><path fill="#039299" id="AUDpo1" d="M407 85h1c.811 0 4-2.876 4-4l-2-2-4 3v1l1 2Z"/><path fill="#C7C8CC" id="alv" d="m106 80-1 1 1-1Z"/><path fill="#019399" id="AUDd6a" d="M69 100c0 1.077 3.762 3 5 3 3.06 0 4.722-12 9-12 0-2.773 4-3.67 4-6-1.634 0-4-2.635-4-4h-1L69 98v2Z"/><path fill="#C7C8CC" id="alv" d="M105 81c-1.747 0-2 .253-2 2l2-2Z"/><path fill="#7DCD4B" id="HPF" d="M205 81v1l-1-1h1Z"/><path fill="#C7C8CC" id="alv" d="M352 81c1.206 0 13 12.317 13 13l-13-13Z"/><path fill="#C9C9CA" id="scwm" d="m363 81 1 1-1-1Z"/><path fill="#019399" id="AUDd6a" d="m388 100-6 3-2.5-4c-1.859-1.859-9.5-11.45-9.5-14l4-4h1c0 2.689 7.616 12.116 9.5 14l3.5 4v1Z"/><path fill="#029297" id="AUDp1" d="m433 128-5 1c0-10.896-6.403-22.306-11-31.5-1.862-3.723-9-8.288-9-12.5.811 0 4-2.876 4-4 2.967 0 3.574 7.037 5.5 8 6.186 3.093 15.5 31.01 15.5 39ZM23 128h5c0-9.545 6.896-21.292 11-29.5L48 85l-4-3c-2.602 0-6.085 7.67-7 9.5-5.61 11.22-14 23.155-14 36.5Z"/><path fill="#029199" id="AUDpo2/3" d="m57 88-2 1c-.78 0-6-3.19-6-4l1-3h1l6 5v1Z"/><path fill="#C7C8CC" id="alv" d="m102 83-1 1 1-1Z"/><path fill="#7BD04A" id="DG-mo" d="M134 118h2l4-1 1-1 1-1h1l1-1h1l2-1 1-1h1l2-1 2-1 2-1c0-1.577 1.762-2 3-2 0-1.577 1.762-2 3-2l2-1 2-1h1c0-4.438 12-5.098 12-11l-3-3-6-4c-4.343 0-12.223-4.639-17.5-2-6.4 3.2-13.566 4.783-20 8-3.978 1.989-7.756 6.378-11 8-5.493 2.747-13.5 10.728-13.5 17l1 2c1.774 0 7 .273 7-2 0-9.27 29.968-21.234 37.5-25 1.815-.907 17.5-3.508 17.5.5 0 1.473-18.147 10.324-20.5 11.5-2.076 1.038-14.008 11-14.5 11-1.579 0-1 2.855-1 4Z"/><path fill="#7DCD4B" id="HPF" d="m251 83-1 1 1-1Z"/><path fill="#7BD04A" id="DG-mo" d="m322 117-1 1-8-3-1-1-3-1-1-1h-1l-5-3h-1c0-4.306-22-8.937-22-17l1-2 7-5c4.449 0 12.235-4.632 17.5-2 7.691 3.846 16.233 6.117 24 10l9 7c4.536 2.268 12.5 10.867 12.5 16l-1 2c-3.138 0-5.662-2-8-2 0-11.486-31.82-21.16-39.5-25-2.363-1.181-12.645-4.21-14.5-.5-1.7 3.4 9.442 7.47 11.5 8.5l10 5c3.67 1.835 9.47 10 13.5 10v3Z"/><path fill="#C9C9CA" id="scwm" d="m365 83 2 2-2-2Z"/><path fill="#029199" id="AUDpo2/3" d="M401 90h1l5-5-1-2c-2.773 0-3.67 4-6 4l1 3Z"/><path fill="#C7C8CC" id="alv" d="m101 84-1 1 1-1Z"/><path fill="#7DCD4B" id="HPF" d="m210 88-3 1-1-5 2 1 2 3ZM247 88l3 1v-5l-2 1-1 3Z"/><path fill="#019298" id="AUDp2/3" d="M28 129c2.41 0 5.181 1 7 1 0-11.053 7.377-20.254 12-29.5L55 90v-1c-.78 0-6-3.19-6-4h-1l-9 13.5c-4.104 8.208-11 19.955-11 29.5v1Z"/><path fill="#019398" id="AUDd6b" d="M88 86c0 1.654-3.74 5-5 5 0-2.773 4-3.67 4-6h1v1Z"/><path fill="#C7C8CC" id="alv" d="m100 85-1 1 1-1Z"/><path fill="#019398" id="AUDd6b" d="M381 104h1v-1l-2.5-4c-1.859-1.859-9.5-11.45-9.5-14h-2c0 4.477 13 13.563 13 19Z"/><path fill="#019298" id="AUDp2/3" d="M421 130h1c1.564 0 3.876-1 6-1 0-10.896-6.403-22.306-11-31.5-1.862-3.723-9-8.288-9-12.5h-1l-5 5c0 4.324 7.099 8.698 9 12.5 4.247 8.494 10 17.31 10 27.5Z"/><path fill="#C7C8CC" id="alv" d="m99 86-1 1 1-1ZM98 87l-1 1 1-1Z"/><path fill="#039298" id="AUDpo4" d="M397 91h1l3-1-1-3h-1l-2 3v1ZM58 92h1l1-1v-1l-3-2-2 1v1l3 2Z"/><path fill="#C7C8CC" id="alv" d="m97 88-1 1 1-1ZM96 89l-1 1 1-1Z"/><path fill="#65A83D" id="DG-sg" d="M135 114c.492 0 12.424-9.962 14.5-11 2.353-1.176 20.5-10.027 20.5-11.5 0-4.008-15.685-1.407-17.5-.5-7.532 3.766-37.5 15.73-37.5 25 5.485 0 8.401-8 14-8l1-1c0-5.252 45.618-20.559 20.5-8l-6 3-8.5 7-1 5Z"/><path fill="#7DCD4B" id="HPF" d="m179 91-1 1-3-3 2 1 2 1Z"/><path fill="#65A83D" id="DG-sg" d="M322 114c-4.03 0-9.83-8.165-13.5-10l-10-5c-2.058-1.03-13.2-5.1-11.5-8.5 1.855-3.71 12.137-.681 14.5.5 7.68 3.84 39.5 13.514 39.5 25-4.865 0-7.714-8-13-8l-1-1h-1c0-2.143-15.787-9.643-18.5-11-1.502-.751-10.378-3.257-9.5-1.5l9 5 6.5 3.5 6.5 6 2 5Z"/><path fill="#039397" id="AUDp4" d="M38 131h1c0-10.177 5.777-18.054 10-26.5 1.794-3.589 9-7.953 9-12.5l-3-2-8 10.5c-4.623 9.246-12 18.447-12 29.5v1h3Z"/><path fill="#C7C8CC" id="alv" d="m95 90-1 1 1-1Z"/><path fill="#7DCD4B" id="HPF" d="m277 91 2 1 1-2c-1.048 0-3-.473-3 1Z"/><path fill="#039397" id="AUDp4" d="M421 130c0 1.473-1.952 1-3 1 0-9.062-6.173-17.846-10-25.5L398 92v-1l3-1h1c0 4.324 7.099 8.698 9 12.5 4.247 8.494 10 17.31 10 27.5Z"/><path fill="#019197" id="AUDpo5" d="M68 99h1v-1l-9-7-1 1 8 6 1 1Z"/><path fill="#019398" id="AUDd6b" d="M74 104h1c1.655 0 8-11.24 8-13-4.278 0-5.94 12-9 12v1Z"/><path fill="#C7C8CC" id="alv" d="m94 91-1 1 1-1Z"/><path fill="#FF8FFC" id="NOT" d="m190 102-6.5-1c-1.824.912-6.619 4-8.5 4l-1-4 1-1c0-8.118 28.895-8 34-8l-4 8h-2c-4.721 0-8.983 2-13 2ZM267 102c1.423 0 3.544-1.978 5.5-1l8.5 3c2.787 0 1-2.571 1-4-2.36 0-8.676-5.588-11.5-7-5.984-2.992-17.579-1-23.5-1l4 7 2 1c4.721 0 8.983 2 13 2h1Z"/><path fill="#019197" id="AUDpo5" d="m398 92-9 6c0-2.1 5.239-7 8-7h1v1Z"/><path fill="#039199" id="AUDp5" d="M53 136h1c0-9.242 6.065-19.631 10-27.5.827-1.655 2.559-8.5 5-8.5v-1h-1l-1-1-8-6h-1c0 4.547-7.206 8.911-9 12.5-4.223 8.446-10 16.323-10 26.5 4.691 0 9.61 5 14 5Z"/><path fill="#C7C8CC" id="alv" d="m93 92-1 1 1-1Z"/><path fill="#FF90FC" id="MPT" d="m206 101 5 4c5.713 0 6-3.154 6-7 0-4.385-4.224-6-8-6l-4 8 1 1ZM246 104l-1 1c-4.708 0-6-2.811-6-7 0-3.821 4.716-6 8-6l4 7v2l-1 1-4 2Z"/><path fill="#039199" id="AUDp5" d="M418 131c-5.405 0-9.94 5-15 5 0-9.38-15-31.858-15-36v-1l1-1 9-6 10 13.5c3.827 7.654 10 16.438 10 25.5Z"/><path fill="#C7C8CC" id="alv" d="m92 93-1 2 1-2Z"/><path fill="#7ECE4A" id="DG-po" d="m130 107 6 2 8.5-7 6-3c25.118-12.559-20.5 2.748-20.5 8ZM326 107l-6 2-6.5-6-6.5-3.5-9-5c-.878-1.757 7.998.749 9.5 1.5 2.713 1.357 18.5 8.857 18.5 11Z"/><path fill="#C7C8CC" id="alv" d="m91 95-1 1 1-1ZM366 95l3 4c-1.712 0-3-2.571-3-4ZM90 96l-1 1 1-1ZM89 97l-1 2 1-2Z"/><path fill="#029398" id="AUDd5" d="m67 98 1 1-1-1Z"/><path fill="#FF64FF" id="MB" d="M190 144c2.345 0 9-.421 9 3l3-5.5 3-2.5c-8.77 0-4.378-7.745-2-12.5 1.867-3.734 11.68-19.59 15.5-21.5 1.956-.978 4.077 1 5.5 1l-7-8c0 3.846-.287 7-6 7 0 9.117-13.118 8-18 8l1 19.5c-1.124 2.247-4 9.268-4 11.5ZM267 145c-1.606 0-4.339-2.081-6.5-1l-3.5 3c0-3.126-6-6.346-6-8 16.598 0-10.388-34-17-34 0-1.463 3.486-7 5-7 0 4.189 1.292 7 6 7 0 7.747 12.454 9 18 9 0 5.51-1.99 17.521 0 21.5.94 1.88 4 7.624 4 9.5Z"/><path fill="#019197" id="AUDpo5" d="m389 98-1 1 1-1Z"/><path fill="#C7C8CC" id="alv" d="m88 99-1 1 1-1Z"/><path fill="#A8A9AA" id="V3" d="m227 99-1 4 1 2c0 10.516 7.261-6 0-6Z"/><path fill="#FF64FF" id="MB" d="m253 100-1 1-1-1v-1l2 1Z"/><path fill="#019396" id="AUDp6a" d="M60 139h1c0-2.186 1.733-12 4-12 0-8.087 9-16.842 9-23v-1c-1.238 0-5-1.923-5-3-2.441 0-4.173 6.845-5 8.5-3.935 7.869-10 18.258-10 27.5l6 3Z"/><path fill="#C7C8CC" id="alv" d="M87 100c-1.577 0-2 1.762-2 3 1.577 0 2-1.762 2-3Z"/><path fill="#FF64FF" id="MB" d="m175 100-1 1 1-1Z"/><path fill="#FE90FC" id="OP" d="m190 102 3 7c4.554 0 7.777-.139 11.5-2 1.974-.987 3.127-6-.5-6l-1-1c-4.721 0-8.983 2-13 2Z"/><path fill="#FF64FF" id="MB" d="M204 100v1l-1-1h1Z"/><path fill="#FC8FFE" id="PPT" d="M193 109v4c4.882 0 18 1.117 18-8l-5-4-1-1h-1v1c3.627 0 2.474 5.013.5 6-3.723 1.861-6.946 2-11.5 2Z"/><path fill="#FF64FF" id="MB" d="m205 100 1 1-1-1Z"/><path fill="#FC8FFE" id="PPT" d="M251 101h1l-1-1v1Z"/><path fill="#FE90FC" id="OP" d="M266 103c-1.353 0-2 4.643-2 6-5.574 0-14 .566-14-7l1-1h1l1-1c4.721 0 8.983 2 13 2v1Z"/><path fill="#FF64FF" id="MB" d="M290 111h3c0-2.656-6.544-4.044-8-5.5-.717-.717-2.075-3.5 0-3.5l-3-2c0 1.429 1.787 4-1 4l9 7Z"/><path fill="#C7C8CC" id="alv" d="m369 100 2 2-2-2Z"/><path fill="#019396" id="AUDp6a" d="m403 136-7 2c0-6.161-7.139-19.778-10-25.5-.704-1.408-2.495-8.5-4-8.5v-1l6-3c0 4.142 15 26.62 15 36Z"/><path fill="#FF64FF" id="MB" d="M163 111h4l8-6-1-4-2 1c0 5.427-9 6.11-9 9Z"/><path fill="#FE8EFF" id="APN" d="M175 157h4c3.589 0 11-9.804 11-13 0-2.232 2.876-9.253 4-11.5l-1-19.5v-4l-3-7-6.5-1c-1.824.912-6.619 4-8.5 4l-8 6-4 8c3.113 0 3.113 18 0 18l2 10 1 1 1 2 2 2v1l4 4h2Z"/><path fill="#FC8FFE" id="PPT" d="m251 101-1 1 1-1Z"/><path fill="#FE8EFF" id="APN" d="M282 157h1l2-1 1-1 1-1v-1l1-1 1-1v-1l1-1 1-1v-1c0-3.395 2-6.106 2-10l-2-3.5c-2.301-4.602 2-10.842 2-14.5 0-3.238-3-5.3-3-8l-9-7-8.5-3c-1.956-.978-4.077 1-5.5 1l-1 1c-1.353 0-2 4.643-2 6l-1 5c0 5.51-1.99 17.521 0 21.5.94 1.88 4 7.624 4 9.5 0 3.731 7.365 12 11 12h4Z"/><path fill="#C7CBCB" id="bsc" d="m136 122-1 1c-5.268 0 5-4.558 5-6l2-1 1-1h1l1-1 2-1h1l2-1h1l1-1h1l1-1 1-1 3-1 1-1h1l1-1 1-1h1l1-1h1l1-1 6-1c0 5.427-9 6.11-9 9h-1l-4 2c-2.548 0-18 5.749-18 7l-2 1-2 1Z"/><path fill="#FC8FFE" id="PPT" d="m264 109-1 5c-5.546 0-18-1.253-18-9l1-1 4-2c0 7.566 8.426 7 14 7Z"/><path fill="#FF64FF" id="MB" d="m267 102-1 1v-1h1Z"/><path fill="#C7CBCB" id="bsc" d="M335 136v1c0 2.205-4-4.038-4-5 0-3.073-9.135-11-12-11h-1c0-2.341-2.342-1.421-3.5-2-4.401-2.2-10.361-6-15.5-6h-1c0-2.109-2.535-2-4-2h-1c0-2.656-6.544-4.044-8-5.5-.717-.717-2.075-3.5 0-3.5l7 2 1 1 3 1 1 1h1l2 2h1l1 1 4 2 2 1h1l3 2h1c0 .089 11.649 8.149 13 9.5l4 3.5 1 2 2 2 1 3 1 1Z"/><path fill="#C7C8CC" id="alv" d="M85 103c-1.577 0-2 1.762-2 3 1.577 0 2-1.762 2-3Z"/><path fill="#CAC7CB" id="fiber tracts" d="m166 103-1 1v-1h1Z"/><path fill="#C7C8CC" id="alv" d="M371 103c2.673 0 8 11.657 8 14-1.17 0-8-12.323-8-14Z"/><path fill="#039198" id="AUDp6b" d="m67 125-2 2c0-8.087 9-16.842 9-23h1c0 4.446-5 7.975-5 12l-1 3v1l-1 2c-1.473 0-1 1.952-1 3Z"/><path fill="#CAC7CB" id="fiber tracts" d="m164 104-1 1v-1h1Z"/><path fill="#FF64FF" id="MB" d="m246 104-1 1 1-1Z"/><path fill="#CAC7CB" id="fiber tracts" d="m292 104 1 1-1-1Z"/><path fill="#039198" id="AUDp6b" d="M395 139h1v-1c0-6.161-7.139-19.778-10-25.5-.704-1.408-2.495-8.5-4-8.5h-1c0 4.095 5 7.713 5 12 1.445 0 5 11.076 5 13v1c1.638 0 2 3.576 2 5v1l2 3Z"/><path fill="#CAC7CB" id="fiber tracts" d="m162 105-1 1v-1h1Z"/><path fill="#FF8DFE" id="NPC" d="M248 139h3c16.598 0-10.388-34-17-34-3.327 0-3.795 8-5.5 8l-2.5-3.5-2-3.5c-1.423 0-3.544-1.978-5.5-1-3.82 1.91-13.633 17.766-15.5 21.5-2.378 4.755-6.77 12.5 2 12.5h3l5-5c0-5.516 9.454-8.977 13.5-11l2-4 .5 2.5 3.5 3.5c2.941 1.471 10.5 3.552 10.5 8l5 6Z"/><path fill="#CAC7CB" id="fiber tracts" d="m161 106-1 1 1-1ZM296 106l1 1-1-1Z"/><path fill="#C7C8CC" id="alv" d="M83 107c-1.577 0-2 1.762-2 3 1.577 0 2-1.762 2-3Z"/><path fill="#7ECE4A" id="DG-po" d="m130 107-1 1 1-1Z"/><path fill="#7ECF49" id="CA3" d="m155 249-2 2c-4.66 0-8.352-14-18-14l-7.5-6c-7.225-3.613-12.911-10.911-19-17-19.34-19.339-37.259-45.982-23.5-73.5 1.856-3.712 4.28-7.89 7.5-9.5 3.692-1.846 9.696-13 15.5-13 1.774 0 7 .273 7-2 5.485 0 8.401-8 14-8l1-1 6 2-1 5c-1.579 0-1 2.855-1 4l-1 1-1 1-1 1-1 1-1 1c-1.617 0-4 4.583-4 6-4.02 0-9.475 18.45-11 21.5-8.702 17.405 14.182 43.363 21 57 1.651 3.301 8.229 15.5 12 15.5v1l1 1 1 1 1 1 1 1 1 1h1c0 1.26 3.346 5 5 5l2 1 2 2h1v2l-1 2c-1.145 0-4-.579-4 1l-2 1c-3.684 0-1 4.598-1 6Z"/><path fill="#CAC7CB" id="fiber tracts" d="m159 107-1 1v-1h1ZM298 107l2 2-2-2Z"/><path fill="#7ECF49" id="CA3" d="M300 242c2.719 0 2.745 7 1 7 0 1.868 4.627 1.437 5.5 1 4.557-2.279 3.667-13 15.5-13l1-1c0-.022 16.916-14.416 19.5-17 10.401-10.401 21.882-21.264 28.5-34.5l4-12c6.617-13.234-2.064-33.064-11-42L349 118c-3.138 0-5.662-2-8-2-4.865 0-7.714-8-13-8l-1-1h-1l-6 2 2 5v3c.966 0 3 2.886 3 4l1 1c2.862 0 6.077 6.654 7 8.5 4.176 8.351 10 14.338 10 24.5 0 2.469 1.118 14-2 14 0 1.774.273 7-2 7 0 2.286-3.343 12-6 12 0 1.465.109 4-2 4 0 1.238-.423 3-2 3l-1 2c0 1.429-1.288 4-3 4 0 1.664-1.823 6-4 6l-1 2-1 2c0 1.747-.253 2-2 2v1l-1 1-1 1v1l-1 1-1 1c0 1.747-.253 2-2 2v1l-1 1-1 1-1 1-1 1-1 1-1 1-1 1-1 1-1 1-1 1-2 1-1 1-1 1h-1l-1 1-1 1-1 1v1l5 3h2Z"/><path fill="#7ECE4A" id="DG-po" d="m327 107 1 1-1-1Z"/><path fill="#CAC7CB" id="fiber tracts" d="M302 109v1l-1-1h1Z"/><path fill="#C7C8CC" id="alv" d="m81 110-2 4c2.109 0 2-2.535 2-4Z"/><path fill="#CAC7CB" id="fiber tracts" d="m154 110-1 1v-1h1ZM152 111l-1 1v-1h1ZM162 111l-4 2c1.465 0 4 .109 4-2Z"/><path fill="#FE909D" id="LP" d="M144 137h2c0-1.854 5.407 0 7 0l6-3 1-1c0-2.293 3-13.827 3-14l4-8h-5c0 2.109-2.535 2-4 2 0 1.442-12.174 6-14 6l-1 1v15l1 2ZM311 137h1l1-1v-13l1-3-1-1c-1.898 0-14-4.507-14-6h-1c-1.465 0-4 .109-4-2h-4c0 2.7 3 4.762 3 8 3.063 0 3 11.459 3 14l1 1 6.5 3c1.431 0 7.5-2.217 7.5 0Z"/><path fill="#CAC7CB" id="fiber tracts" d="M294 111c1.465 0 4-.109 4 2-1.465 0-4 .109-4-2ZM150 112l-2 1v-1h2ZM308 112v1l-2-1h2ZM147 113l-2 1 2-1ZM141 120h2l1-1c1.826 0 14-4.558 14-6-2.548 0-18 5.749-18 7h1ZM316 121h2c0-2.341-2.342-1.421-3.5-2-4.401-2.2-10.361-6-15.5-6 0 1.493 12.102 6 14 6l1 1h1l1 1ZM312 114v1l-3-2 3 1Z"/><path fill="#C7C8CC" id="alv" d="m79 114-2 4c2.109 0 2-2.535 2-4Z"/><path fill="#CAC7CB" id="fiber tracts" d="m145 114-1 1v-1h1ZM143 115l-1 1v-1h1ZM326 122l4 6-4-3.5c-1.351-1.351-13-9.411-13-9.5l8 3 4 3 1 1Z"/><path fill="#CCC8CA" id="ar" d="M70 116c2.216 0 .348 3-1 3l1-3Z"/><path fill="#7DCF4B" id="CA2" d="M133 237h2l-7.5-6c-7.225-3.613-12.911-10.911-19-17-19.34-19.339-37.259-45.982-23.5-73.5 1.856-3.712 4.28-7.89 7.5-9.5 3.692-1.846 9.696-13 15.5-13l-1-2c-5.526 0-13.562 9.062-17.5 13-18.934 18.934-12.821 42.857-2.5 63.5l20 24c2.446 4.891 23 16.465 23 19.5 1.048 0 3-.473 3 1Z"/><path fill="#CAC7CB" id="fiber tracts" d="m142 116-2 1 1-1h1Z"/><path fill="#7DCF4B" id="CA2" d="M323 236h3l1-1 7-5.5c6.106-6.106 13.093-11.093 20-18 9.753-9.753 16.919-22.839 23-35 2.658-5.315-.61-13.78 2-19 .979-1.958 1.194-7.612 0-10-1.89-3.78-4.078-7.155-6-11-1.699-3.398-3.885-6.693-7.5-8.5-5.298-2.649-9.222-12-15.5-12l-1 2 15 12.5c8.936 8.936 17.617 28.766 11 42l-4 12c-6.618 13.236-18.099 24.099-28.5 34.5-2.584 2.584-19.5 16.978-19.5 17Z"/><path fill="#CCC8CA" id="ar" d="M390 129h1c0-1.924-3.555-13-5-13 0 4.6 4 8.545 4 13Z"/><path fill="#CAC7CB" id="fiber tracts" d="M133 124c0-2.889-3.299 1-4 1v-2l1-1 1-1 1-1 1-1c1.048 0 3 .473 3-1l4-1c0 1.442-10.268 6-5 6l-2 1Z"/><path fill="#7DCD4B" id="HPF" d="m321 118 4 3c0-1.114-2.034-4-3-4l-1 1ZM136 118c0 1.473-1.952 1-3 1l1-1h2Z"/><path fill="#C7C8CC" id="alv" d="M361 222c-3.239 0-4.575 3-8 3 0-2.655 12.196-8.848 14.5-10 10.307-5.154 15.179-21.858 19.5-30.5 5.077-10.154 3.931-39.139-1-49l-7-17.5c2.203 0 2.344 4.189 3 5.5 2.98 5.96 8 15.64 8 22.5 0 6.256 5.114 18.273 2 24.5-1.546 3.092-3 11.178-3 14.5-1.845 0-1.441 3.381-2 4.5-2.562 5.124-5.488 9.977-8 15-1.981 3.962-18 17.483-18 17.5ZM77 119c-2.109 0-2 2.535-2 4l2-4Z"/><path fill="#7DCD4B" id="HPF" d="m133 119-1 1 1-1Z"/><path fill="#FF6F80" id="TH" d="m144 119-1 1 1-1Z"/><path fill="#FF8D9D" id="POL" d="M161 137h2c3.113 0 3.113-18 0-18 0 .173-3 11.707-3 14l1 2v2Z"/><path fill="#CCCACA" id="pc" d="M243 133c0-4.448-7.559-6.529-10.5-8l-3.5-3.5-.5-2.5-2 4c-4.046 2.023-13.5 5.484-13.5 11 0 1.622 2.571-1 4-1l2-1 1-1h1l1-1h1c0-1.473 1.952-1 3-1h5l2 1h1l1 1h2c2.026 0 6 6.395 6 2Z"/><path fill="#FF8D9D" id="POL" d="M293 137h2l1-2v-2c0-2.541.063-14-3-14 0 3.658-4.301 9.898-2 14.5l2 3.5Z"/><path fill="#FF6F80" id="TH" d="m313 119 1 1-1-1Z"/><path fill="#CCC8CA" id="ar" d="m69 120-1 2 1-2Z"/><path fill="#7DCD4B" id="HPF" d="m132 120-1 1 1-1Z"/><path fill="#CAC7CB" id="fiber tracts" d="M138 121h2v-1l-2 1Z"/><path fill="#FF6F80" id="TH" d="m141 120-1 1v-1h1Z"/><path fill="#FE8083" id="LGd-sh" d="m125 149 1 1 3.5 1c2.283-1.142 7.908-16.316 9.5-19.5.675-1.35 2.239-7.5 4-7.5v-4h-2l-1 1h-2l-2 1-1 1-2 1-1 1-1 1-1 1-1 1-1 1-1 2-1 1c0 4.006-3 8.208-3 14l2 3ZM329 151l-1 1c-2.435 0-12.879-29-15-29l1-3h1l1 1h3l8 6.5c2.967 5.935 7 10.274 7 17.5l-1 2-1 1-3 3Z"/><path fill="#FF6F80" id="TH" d="m315 120 1 1-1-1Z"/><path fill="#C7C8CC" id="alv" d="m131 121-1 1 1-1Z"/><path fill="#CAC7CB" id="fiber tracts" d="m138 121-2 1 2-1Z"/><path fill="#CAC7CB" id="fiber tracts" fill-rule="evenodd" d="M335 139c0 3.746 2.091 0 0 0m2 11c4.042 0 1.976 7 4 7 0-3.931-2.533-20-6-20 0 2.205-4-4.038-4-5 0-3.073-9.135-11-12-11l8 6.5c2.967 5.935 7 10.274 7 17.5v2l3 3Z"/><path fill="#CCC8CA" id="ar" d="M68 122c-1.473 0-1 1.952-1 3 1.473 0 1-1.952 1-3Z"/><path fill="#C7C8CC" id="alv" d="m130 122-1 1 1-1Z"/><path fill="#CAC7CB" id="fiber tracts" d="m136 122-1 1 1-1Z"/><path fill="#C7C8CC" id="alv" d="M341 163v6c3.118 0 2-11.531 2-14 0-10.162-5.824-16.149-10-24.5-.923-1.846-4.138-8.5-7-8.5l4 6 1 2 2 2 1 3 1 1v1c3.467 0 6 16.069 6 20v6ZM75 123l-1 2 1-2ZM125 129h1l1-1 1-2 1-1v-2c-1.617 0-4 4.583-4 6Z"/><path fill="#C7CBCB" id="bsc" d="m129 128-1 1-1-1 1-2 1-1c.701 0 4-3.889 4-1l-1 1-1 1-1 1-1 1Z"/><path fill="#FE7F84" id="LGd-co" fill-rule="evenodd" d="M317 136c0 9.376 5.159 0 0 0m8 18h1l2-2c-2.435 0-12.879-29-15-29v13l3.5 4 8.5 14Z"/><path fill="#CAC7CB" id="fiber tracts" d="m133 124-1 1 1-1Z"/><path fill="#FE7F84" id="LGd-co" fill-rule="evenodd" d="m138 136-1 1.5c-3.514 7.027 7.087-1.5 1-1.5m-12 14c0 1.533 3.753 4 5 4l4-5c0-1.408 1.197-5 3-5l1-1v-1l1-1 1-2 2-4v-11c-1.761 0-3.325 6.15-4 7.5-1.592 3.184-7.217 18.358-9.5 19.5l-3.5-1Z"/><path fill="#CCC8CA" id="ar" d="M65 131h1l1-6-2 2v4Z"/><path fill="#C7C8CC" id="alv" d="m74 125-1 2 1-2Z"/><path fill="#CAC7CB" id="fiber tracts" d="m129 125-1 1 1-1ZM132 125l-1 1 1-1ZM131 126l-1 1 1-1Z"/><path fill="#039198" id="AUDp6b" d="m63 137-2 2c0-2.186 1.733-12 4-12v4l-1 2c-1.473 0-1 1.952-1 3v1Z"/><path fill="#CAC7CB" id="fiber tracts" d="m130 127-1 1 1-1Z"/><path fill="#019099" id="AUDv1" d="M21 149h6c0-6.734 1-13.866 1-20v-1h-5c0 6.89-2 13.566-2 21Z"/><path fill="#C7C8CC" id="alv" d="M73 128c-2.46 0-2 3.378-2 5 1.638 0 2-3.576 2-5Z"/><path fill="#CAC7CB" id="fiber tracts" d="m128 129-1 2-1-2 1-1 1 1ZM129 128l-1 1 1-1Z"/><path fill="#FF78FE" id="SCO" d="M228 132c0-1.93 1.161 0 2 0l1-1v-2h-5l1 3h1Z"/><path fill="#019099" id="AUDv1" d="M429 149h6c0-7.401-2-14.278-2-21l-5 1c0 5.9 1 13.427 1 20Z"/><path fill="#029198" id="AUDv2/3" d="M27 149h6c0-6.245 2-12.298 2-18v-1c-1.819 0-4.59-1-7-1 0 6.134-1 13.266-1 20Z"/><path fill="#C7C8CC" id="alv" d="M128 195c0 4.358 19 25.146 19 28-3.771 0-10.349-12.199-12-15.5-6.818-13.637-29.702-39.595-21-57 1.525-3.05 6.98-21.5 11-21.5v1l-1 2-1 1v2l-1 1-1 1v1c-4.402 0-6 19.381-6 24 0 1.775.069 8 2 8v1c0 1.145-.579 4 1 4l2 5 1 1v1l7 13Z"/><path fill="#CAC7CB" id="fiber tracts" d="m126 129-1 1v-1h1Z"/><path fill="#C7CBCB" id="bsc" d="M124 132c0 1.93 1.161 0 2 0l1-1-1-2-1 1-1 2Z"/><path fill="#FF64FF" id="MB" d="M227 132v1l-4-3c0-1.473 1.952-1 3-1l1 3ZM233 130l-2 1v-2l2 1Z"/><path fill="#C8C9CA" id="fp" d="M391 130v1l-1-2h1v1Z"/><path fill="#029198" id="AUDv2/3" d="M423 149h6c0-6.573-1-14.1-1-20-2.124 0-4.436 1-6 1 0 6 1 12.475 1 19Z"/><path fill="#FF64FF" id="MB" d="m222 130-1 1 1-1Z"/><path fill="#FC8FFF" id="PAG" d="M213 149v4c.981 0 2 7.758 2 9 0 6.32 2.243 19.871 8.5 23 3.443 1.722 3.069-3 5-3 2.15 0 1.64 4.18 6 2 2.857-1.429 3.261-8.022 4.5-10.5 2.098-4.196 6.546-28.908 4-34l-6-8.5h-2l-1-1h-1l-2 1-1 1-1 2-.5 11-.5-10-1-1v-1l-4-3h-1l-1 1h-1l-1 1-2 1c0 3.466-4 9.118-4 16Z"/><path fill="#FF64FF" id="MB" d="m234 130 1 1-1-1Z"/><path fill="#CAC7CB" id="fiber tracts" d="m331 130 2 2-2-2Z"/><path fill="#CCC8CA" id="ar" d="m391 133 2 2c0-1.424-.362-5-2-5v3Z"/><path fill="#029197" id="AUDv4" d="M419 149h4c0-6.525-1-13-1-19h-1c0 1.473-1.952 1-3 1 0 5.361 1 12.004 1 18ZM33 149h4l1-18h-3c0 5.702-2 11.755-2 18Z"/><path fill="#019098" id="AUDv5" d="m37 149 14 1 2-14c-4.39 0-9.309-5-14-5h-1l-1 18Z"/><path fill="#CCC8CA" id="ar" d="M64 133h1v-2l-1 2Z"/><path fill="#C8C9CA" id="fp" d="m66 131-1 1v-1h1Z"/><path fill="#CAC7CB" id="fiber tracts" d="m127 131-1 1 1-1Z"/><path fill="#FF64FF" id="MB" d="m220 131-1 1 1-1ZM230 132l-1 2-1-2c0-1.93 1.161 0 2 0ZM231 131l-1 1 1-1Z"/><path fill="#FF64FF" id="MB" fill-rule="evenodd" d="M240 184c0 2.454-2.489 7.523-1 10.5 3.995 7.99 17.339-10.5 1-10.5m-25 0c0 .685-6.125 3.751-7 5.5-1.12 2.239 4.628 7.5 6.5 7.5 4.201 0 4.685-13 .5-13m65 58c-2.18 0-5.188 3-7 3l-4-4c0-.667-12.368-11-13-11 0-6.078.804-8.893-2-14.5-.835-1.67-5.351-.297-6 1l-1 6.5-12.5-5c-2.348-1.174-5.339.83-7 0-6.344-3.172-13.161 5-18.5 5v-4.5c0-8.553-9-1.706-9 6 0 1.19-.614 4.5 1 4.5l-2 2-1 1-1 1-1 1-1 1c-1.763 0-7 4.012-7 6-3.424 0-3.518 5-5 5 0-2.474-5.251-4-7-4 0-.665 7.421-2.46 8.5-3 2.596-1.298 3.735-7-.5-7 0-2.139 1-4.033 1-7l2-1c7.118 0 12.985-13.257 5.5-17-3.382-1.691-15.577 6-18.5 6-7.092 0-10.484-12-18-12 0-5.621-14-6.139-14 5-4.756 0 0-10.117 0-11.5 0-2.796-9.207-8.646-11.5-7.5l-2.5 2v-8c1.925 0 8.763 6.632 11.5 8 9.209 4.604 16.481 12 28.5 12 2.097 0 5.293 1 8 1 8.801 0 11 4.636 11-7l3 2c11.423 0-6.416-10.916-8-12.5l-4-3.5c1.235 0 5 .643 5-1h2c0 3.486 5.651 4.075 7.5 5 11.885 5.942 18.5-6.591 18.5-16.5 0-3.794-.085-11.5-5-11.5 0-2.024 7 .042 7-4 .981 0 2 7.758 2 9 0 6.32 2.243 19.871 8.5 23 3.443 1.722 3.069-3 5-3 2.15 0 1.64 4.18 6 2 2.857-1.429 3.261-8.022 4.5-10.5 2.098-4.196 6.546-28.908 4-34l-6-8.5c2.026 0 6 6.395 6 2l5 6c0 4.415-6.872 9.755-4 15.5 1.072 2.143 6 .721 6 2.5-4.467 0-4 8.084-4 11 0 10.086 4.985 23.258 17.5 17 1.963-.981 8.5-1.3 8.5-5l2 1h5c0 2.208-12.332 8.916-14.5 10-1.297.649-2.67 5.165-1 6l5.5-1c0 9.077 4.998 6 11 6 2.707 0 5.903-1 8-1 5 0 8.687-2 13-2l-1 2c-6.822 0-11.423 12-17 12-3.207 0-15.507-7.496-18.5-6-8.005 4.002-2.341 17 5.5 17l1 1c0 2.765 2 5.165 2 7-5.302 0-2.631 6.434.5 8 1.053.527 6.5.851 6.5 2m-60-39c0 8.471 6.853 3 8.5 3 1.279 0 1.176 3.412 6 1l2.5-4c0 5.265 5.097-4 0-4 0-2.408-4.848-6.326-7.5-5l-1 2c-1.986 0-8.5-5.275-8.5 4-2.795 0-3.91 5-2.5 5l2.5-2Z"/><path fill="#019098" id="AUDv5" d="m419 149-14 1c0-5.263-2-9.23-2-14 5.06 0 9.595-5 15-5 0 5.361 1 12.004 1 18Z"/><path fill="#CAC7CB" id="fiber tracts" d="M119 150c0 .402-2.465 3.43-3 4.5-2.056 4.112 1 11.536 1 15.5-1.931 0-2-6.225-2-8 0-4.619 1.598-24 6-24 0 2.336 2.373-1 0-1l1-1c0 2.029 1 .058 1-1 1.399 0 1.399-2 0-2l1-1c0 1.93 1.161 0 2 0 0 4.006-3 8.208-3 14l-1 1-3 3Z"/><path fill="#FF64FF" id="MB" d="m219 132-2 1 2-1Z"/><path fill="#A9A9A8" id="AQ" d="m229 134-.5 11-.5-10-1-1v-2h1l1 2Z"/><path fill="#CCC8CA" id="ar" d="M63 136h1v-3c-1.473 0-1 1.952-1 3Z"/><path fill="#C8C9CA" id="fp" d="M65 133c0 1.048.473 3-1 3v-3h1Z"/><path fill="#C7C8CC" id="alv" d="M71 133c-1.995 0-2 4.377-2 6 1.995 0 2-4.377 2-6Z"/><path fill="#C7CBCB" id="bsc" d="M123 133c1.399 0 1.399 2 0 2v-2Z"/><path fill="#FF6F80" id="TH" d="m159 134 2 1-1-2-1 1Z"/><path fill="#FF64FF" id="MB" d="m208 139 5 10c0-6.882 4-12.534 4-16-1.429 0-4 2.622-4 1l-5 5Z"/><path fill="#FF6F80" id="TH" d="m297 134-1 1v-2l1 1Z"/><path fill="#C8C9CA" id="fp" d="m396 145-3 1c0-4.854-2-8.932-2-13l2 2v1c0 1.041.986 5 2 5v2l1 1v1Z"/><path fill="#FF8E9D" id="SGN" d="m159 146-7 1-3-1c0-2.675-3-5.922-3-9 0-1.854 5.407 0 7 0l6-3 2 1v8l-2 3Z"/><path fill="#FF64FF" id="MB" d="m227 134 1 1-1-1Z"/><path fill="#FF8E9D" id="SGN" d="m308 146-4 1c-2.833 0-4.84-2-7-2l-2-2v-6l1-2 1-1 6.5 3c1.431 0 7.5-2.217 7.5 0 0 2.343-3 6.082-3 9Z"/><path fill="#C7CBCB" id="bsc" d="m123 135-1 1c0 2.029 1 .058 1-1Z"/><path fill="#FF6F80" id="TH" d="m144 137-3 2 2-4 1 2ZM296 135l-1 2 1-2Z"/><path fill="#CAC7CB" id="fiber tracts" d="m334 135 1 1-1-1Z"/><path fill="#019397" id="AUDv6a" d="M51 151h7c0-1.145-.58-4 1-4l1-8-6-3h-1l-2 14v1Z"/><path fill="#C8C9CA" id="fp" d="m61 144 2 1 1-9h-1v1c0 1.424-.362 5-2 5v2Z"/><path fill="#FD8082" id="LGd-ip" d="m138 136-1 1.5c-3.514 7.027 7.087-1.5 1-1.5Z"/><path fill="#FF6F80" id="TH" d="M314 160c0 2.527 5-.826 5 3 2.15 0 6-6.928 6-9l-8.5-14-3.5-4-1 1c1.758 0 7 7.424 7 9 0 4.789 7.076 14-5 14Z"/><path fill="#FD8082" id="LGd-ip" d="M317 136c0 9.376 5.159 0 0 0Z"/><path fill="#CCC8CA" id="ar" d="M395 139v2c-1.014 0-2-3.959-2-5l2 3Z"/><path fill="#019397" id="AUDv6a" d="M399 151h6v-1c0-5.263-2-9.23-2-14l-7 2v1l3 12Z"/><path fill="#CCC8CA" id="ar" d="M61 139v3c1.638 0 2-3.576 2-5l-2 2Z"/><path fill="#C7CBCB" id="bsc" d="M121 137c2.373 0 0 3.336 0 1v-1Z"/><path fill="#FE7F82" id="MGd" d="m149 146-2 1-3.5-2c-1.956-.978-4.077 1-5.5 1v-2l1-1v-1l1-1 1-2 3-2h2c0 3.078 3 6.325 3 9Z"/><path fill="#FF6F80" id="TH" d="M161 143c2.879 0 1.993 4 4 4l-2-10h-2v6ZM295 143l-4 4c0-3.395 2-6.106 2-10h2v6Z"/><path fill="#FE7F82" id="MGd" d="m319 146-6.5-1-3.5 2-1-1c0-2.918 3-6.657 3-9h1c1.758 0 7 7.424 7 9Z"/><path fill="#019198" id="AUDv6b" d="M59 147h1c0-1.048-.473-3 1-3v-5h-1l-1 8Z"/><path fill="#C7C8CC" id="alv" d="M131 237h2c0-1.473-1.952-1-3-1-8.74 0-17.073-7.286-24.5-11-18.39-9.195-27.65-22.799-36.5-40.5-2.339-4.677-.653-11.307-3-16-2.522-5.045 3-23.603 3-29.5-1.663 0-2 5.407-2 7 0 5.932-5.14 23.218-2 29.5 1.36 2.719 2 6.26 2 9.5 2.203 0 2.344 4.189 3 5.5 2.753 5.506 6.275 10.551 9 16l9.5 10.5c1.324.662 6.5 2.159 6.5 4 3.699 0 16.373 9.936 20.5 12 1.513.757 10.5 2.388 10.5 4h5Z"/><path fill="#FF6F80" id="TH" d="m141 139-1 2 1-2Z"/><path fill="#FD8DFF" id="RPF" d="M213 153c0 4.042-7 1.976-7 4-5.216 0-7-5.586-7-10l3-5.5 3-2.5h3l5 10v4ZM257 147c0 4.562-1.552 10-7 10 0-1.779-4.928-.357-6-2.5-2.872-5.745 4-11.085 4-15.5h3c0 1.654 6 4.874 6 8Z"/><path fill="#C7CBCB" id="bsc" d="M335 139c0 3.746 2.091 0 0 0Z"/><path fill="#019198" id="AUDv6b" d="M397 151h2l-3-12h-1v4l1 1v1c0 1.564 1 3.876 1 6Z"/><path fill="#FF6F80" id="TH" d="m140 141-1 1 1-1ZM139 143l-1 1 1-1Z"/><path fill="#FD8F9C" id="Eth" d="M177 162c0 1.247 1.725 5-2 5-7.192 0-16-15.094-16-21l2-3c2.879 0 1.993 4 4 4v1l2 2 2 2v1c0 1.634 2.634 4 4 4l4 4v1ZM279 163c0 2.343.285 4 3 4 6.396 0 15-16.746 15-22l-2-2-4 4v1l-1 1-1 1v1l-1 1-1 1v1l-1 1-1 1-2 1-1 1-1 1-1 1-1 1v2Z"/><path fill="#CCC8CA" id="ar" d="m395 143 1 1-1-1ZM59 151l2 3c2.656 0 2-6.992 2-9l-2-1c-1.473 0-1 1.952-1 3s.473 3-1 3v1Z"/><path fill="#FF6F80" id="TH" d="m138 146-3 3c0-1.408 1.197-5 3-5v2Z"/><path fill="#FF8FFD" id="MRN" d="m186 174 1 4.5-2 1.5c0 3.486 5.651 4.075 7.5 5 11.885 5.942 18.5-6.591 18.5-16.5 0-3.794-.085-11.5-5-11.5-5.216 0-7-5.586-7-10 0-3.421-6.655-3-9-3 0 3.196-7.411 13-11 13l-1 5 8 12ZM270 174c0 1.422-2.269 6 2 6 0 3.7-6.537 4.019-8.5 5-12.515 6.258-17.5-6.914-17.5-17 0-2.916-.467-11 4-11 5.448 0 7-5.438 7-10l3.5-3c2.161-1.081 4.894 1 6.5 1 0 3.731 7.365 12 11 12l1 4v2c-2.115 0-8 8.185-8 10l-1 1Z"/><path fill="#FE7E83" id="MGv" d="M135 149c0 6.352.973 11 8 11 9.291 0 4-9.571 4-13l-3.5-2c-1.956-.978-4.077 1-5.5 1l-3 3Z"/><path fill="#FF7E82" id="PoT" d="m302 173-2 1c-5.32 0-11.881-4-19-4l1-3c6.396 0 15-16.746 15-22 2.16 0 4.167 2 7 2 0 5.048-2.817 12.134-5 16.5-1.529 3.058 3 6.75 3 9.5Z"/><path fill="#FE7E83" id="MGv" d="M309 147c0 5.256-3.633 13 5 13 12.076 0 5-9.211 5-14l-6.5-1-3.5 2Z"/><path fill="#FE7F84" id="LGd-co" d="M333 147h1v-2l-1 2Z"/><path fill="#CCC8CA" id="ar" d="m397 153-2 2-2-9 3-1c0 1.564 1 3.876 1 6v2Z"/><path fill="#C8CBCC" id="ec" d="M74 204v1l-2-2.5c-1.738-3.476-5.58-7.16-7-10-.523-1.046.951-3.5-1-3.5 0-7.464-3-14.236-3-22 0-5.023-2-10.332-2-16l2 3c0 .86 1.072 10.355 3 6.5l1-14.5h2c0 5.932-5.14 23.218-2 29.5 1.36 2.719 2 6.26 2 9.5 0 7.249 7 14.993 7 19Z"/><path fill="#FE7F84" id="LGd-co" d="m122 147 3 2-2-3-1 1Z"/><path fill="#FD7F83" id="MGm" d="M140 167c2.63 0 8.4 6 15 6 0-3.434 3.904-7.693 2-11.5-1.864-3.728-5-10.281-5-14.5l-3-1-2 1c0 3.429 5.291 13-4 13 0 .675-5.294 2-6 2 0 1.766.607 5 3 5Z"/><path fill="#FF7E82" id="PoT" d="m155 173 1 1c5.32 0 11.881-4 19-4v-3c-7.192 0-16-15.094-16-21l-7 1c0 4.219 3.136 10.772 5 14.5 1.904 3.807-2 8.066-2 11.5Z"/><path fill="#FD7F83" id="MGm" d="M316 168c-4.752 0-9.412 5-14 5 0-2.75-4.529-6.442-3-9.5 2.183-4.366 5-11.452 5-16.5l4-1 1 1c0 5.256-3.633 13 5 13 0 2.527 5-.826 5 3 0 2.554-3 3.688-3 5Z"/><path fill="#C8CBCC" id="ec" d="M392 189c0 1.717-3.453 8-5 8 0-4.499 2-7.354 2-12 0-3.322 1.454-11.408 3-14.5 3.114-6.227-2-18.244-2-24.5h1c0 4.72 4 22.482 4 9l2-2-1 14c0 7.164-4 15.135-4 22Z"/><path fill="#019198" id="AUDv6b" d="M58 151h1v-4c-1.58 0-1 2.855-1 4Z"/><path fill="#C8CBCC" id="ec" d="M60 147c0 1.048.473 3-1 3v-3h1Z"/><path fill="#FF909E" id="IGL" d="m131 156-2 4c-3.332 0-6.236-10-10-10l3-3 3 2 1 1c0 1.533 3.753 4 5 4v2Z"/><path fill="#FF64FF" id="MB" d="M165 148h1l-1-1v1Z"/><path fill="#FE7F84" id="LGd-co" d="m333 147-1 1 1-1Z"/><path fill="#FF909E" id="IGL" d="m326 154 1 6 10-10-3-3h-1l-1 1-3 3-1 1-2 2Z"/><path fill="#FF6F80" id="TH" d="m166 148 1 2-2-2h1Z"/><path fill="#FF64FF" id="MB" d="m291 148-1 1 1-1Z"/><path fill="#15B0B3" id="TEa1" d="M23 169h5c0-5.998-1-13.358-1-20h-6l2 20Z"/><path fill="#16AFB3" id="TEa2/3" d="M37 167c-3.325 0-6.16 2-9 2 0-5.998-1-13.358-1-20h6c0 6.08 4 12.16 4 18Z"/><path fill="#15B0B2" id="TEa4" d="M37 167h2c0-5.877-2-11.453-2-18h-4c0 6.08 4 12.16 4 18Z"/><path fill="#15AFB3" id="TEa5" d="M39 167h11l1-16v-1l-14-1c0 6.547 2 12.123 2 18Z"/><path fill="#FF6F80" id="TH" d="M143 160c0 .675-5.294 2-6 2l-6-6v-2l4-5c0 6.352.973 11 8 11Z"/><path fill="#FF64FF" id="MB" d="m290 149-1 1 1-1Z"/><path fill="#15AFB3" id="TEa5" d="M406 167h11c0-5.468 2-11.596 2-18l-14 1v1c0 4.925 1 10.521 1 16Z"/><path fill="#15B0B2" id="TEa4" d="M417 167h2c0-5.825 4-11.316 4-18h-4c0 6.404-2 12.532-2 18Z"/><path fill="#16AFB3" id="TEa2/3" d="M428 169h1v-20h-6c0 6.684-4 12.175-4 18 3.324 0 6.16 2 9 2Z"/><path fill="#15B0B3" id="TEa1" d="M429 169h4c0-6.45 2-13.119 2-20h-6v20Z"/><path fill="#FF8E9F" id="LGv" d="M128 174v1c-2.159 0-.061 4-1.5 4-3.442 0-6.953-8-9.5-8v-1c0-3.964-3.056-11.388-1-15.5.535-1.07 3-4.098 3-4.5 3.764 0 6.668 10 10 10 0 1.624 2 2.75 2 5-1.473 0-1 1.952-1 3l-1 1v2c-1.473 0-1 1.952-1 3Z"/><path fill="#FF64FF" id="MB" d="m167 150 2 2-2-2Z"/><path fill="#FF8E9F" id="LGv" d="M329 175v3c3.4 0 7.96-3.42 10-7.5.587-1.173.619-7.5 2-7.5v-6c-2.024 0 .042-7-4-7l-10 10-1 4 1 5v1c1.014 0 2 3.959 2 5Z"/><path fill="#15AFB2" id="TEa6a" d="M51 167h8l-1-16h-7l-1 16h1Z"/><path fill="#16B0B2" id="TEa6b" d="M59 167h2c0-5.023-2-10.332-2-16h-1l1 16Z"/><path fill="#FF64FF" id="MB" d="m289 151-1 1 1-1Z"/><path fill="#FE7F84" id="LGd-co" d="m329 151-1 1 1-1Z"/><path fill="#16B0B2" id="TEa6b" d="M396 167h1c0-5.377 2-10.211 2-16h-2v2l-1 14Z"/><path fill="#15AFB2" id="TEa6a" d="M397 167h9c0-5.479-1-11.075-1-16h-6c0 5.789-2 10.623-2 16Z"/><path fill="#FF64FF" id="MB" d="m288 152-1 1 1-1ZM169 153l4 4c-1.366 0-4-2.366-4-4ZM287 154l-1 1 1-1Z"/><path fill="#FE8D9D" id="IntG" d="m316 168 1 1 7-3 2-2 1-4-1-6h-1c0 2.072-3.85 9-6 9 0 2.554-3 3.688-3 5Z"/><path fill="#FF64FF" id="MB" d="m286 155-1 1 1-1Z"/><path fill="#FE8D9D" id="IntG" d="m140 167-1 2-6-3-2-1c0-2.25-2-3.376-2-5l2-4 6 6c0 1.766.607 5 3 5Z"/><path fill="#FF64FF" id="MB" d="m285 156-2 1 2-1Z"/><path fill="#FF6F80" id="TH" d="m175 157 2 4-4-4h2Z"/><path fill="#FF64FF" id="MB" d="M177 162h1l1-5h-4l2 4v1ZM280 160l-1 1-1-4h4v1l-1 1-1 1Z"/><path fill="#FF6F80" id="TH" d="m283 157-1 1v-1h1ZM282 158l-1 1 1-1ZM281 159l-1 1 1-1ZM175 170c4.46 0 7.481 4 11 4l-8-12h-1c0 1.247 1.725 5-2 5v3ZM281 170c-3.784 0-6.702 3-10 3 0-1.815 5.885-10 8-10 0 2.343.285 4 3 4l-1 3Z"/><path fill="#CAC7CB" id="fiber tracts" d="m331 192-2 1v-15c3.4 0 7.96-3.42 10-7.5.587-1.173.619-7.5 2-7.5v6c-1.353 0-2 4.643-2 6-2.495 0-10.117 9-5 9l-1 4c-2.109 0-2 2.535-2 4Z"/><path fill="#FF6F80" id="TH" d="m324 166 3 3-1-5-2 2ZM133 166l-3 2c0-1.048-.473-3 1-3l2 1Z"/><path fill="#F0483B" id="ZI" d="m170 197-2 4c-12.019 0-19.291-7.396-28.5-12-2.737-1.368-9.575-8-11.5-8v-7c1.473 0 1-1.952 1-3v-1l1-1v-1l3-2 6 3 8 5 1 1h1l8 6c0 2.158 13 10.859 13 16ZM301 199c-4.313 0-8 2-13 2l-2-4 4-6.5 9-9.5c1.626 0 8-4.11 8-6h1l1-1c1.251 0 8-4.19 8-5l7-3 3 3v1c0 1.424.362 5 2 5v6l-19.5 12-4.5 4-2 1-2 1Z"/><path fill="#0D9F91" id="ECT2/3" d="M35 183c0 .777 8.94 2 10 2l-6-18h-2c-3.325 0-6.16 2-9 2 0 5.545 7 6.931 7 14Z"/><path fill="#0D9E90" id="ECT5" d="M45 185c2.472 0 9.23 4 10 4 0-7.871-4-13.421-4-22H39l6 18Z"/><path fill="#0E9F91" id="ECT6a" d="M58 190h3l2-1-4-22h-8c0 8.579 4 14.129 4 22h1l2 1Z"/><path fill="#0E9F90" id="ECT6b" d="M63 189h1c0-7.464-3-14.236-3-22h-2l4 22Z"/><path fill="#FF6F80" id="TH" d="m151 175 8 2-3-3-1-1c-6.6 0-12.37-6-15-6l-1 2 8 5 1 1h3Z"/><path fill="#0E9F90" id="ECT6b" d="M392 189h1c0-5.263 4-15.019 4-22h-1c0 7.164-4 15.135-4 22Z"/><path fill="#0E9F91" id="ECT6a" d="M395 190h3l3-1c0-7.573 5-13.864 5-22h-9c0 6.981-4 16.737-4 22l2 1Z"/><path fill="#0D9E90" id="ECT5" d="M411 185h1c0-6.571 5-11.522 5-18h-11c0 8.136-5 14.427-5 22 2.771 0 6.929-4 10-4Z"/><path fill="#0D9F91" id="ECT2/3" d="m422 183-10 2c0-6.571 5-11.522 5-18h2c3.324 0 6.16 2 9 2 0 5.286-6 7.751-6 14Z"/><path fill="#FF6F80" id="TH" d="M129 169h1v-1l-1 1ZM299 176h5l1-1h3l1-1c1.251 0 8-4.19 8-5l-1-1c-4.752 0-9.412 5-14 5l-2 1-1 2Z"/><path fill="#0D9F90" id="ECT1" d="M34 183h1c0-7.069-7-8.455-7-14h-5c0 5.324 5 5.582 5 14h6Z"/><path fill="#FF64FF" id="MB" d="m130 169-1 1v-1h1Z"/><path fill="#C7C8CC" id="alv" d="M339 175v1c2.273 0 2-5.226 2-7-1.353 0-2 4.643-2 6Z"/><path fill="#0D9F90" id="ECT1" d="M422 183h6c0-6.374 5-8.2 5-14h-5c0 5.286-6 7.751-6 14Z"/><path fill="#FE8084" id="SPFp" d="M183 180h2l2-1.5-1-4.5c-3.519 0-6.54-4-11-4-7.119 0-13.68 4-19 4l3 3h2c7.292 0 14.202 3 22 3ZM272 180l2 1c0-1.665 4.222-1 5.5-1l15.5-3h2l2-1 1-2c-5.32 0-11.881-4-19-4-3.784 0-6.702 3-10 3l-1 1c0 1.422-2.269 6 2 6Z"/><path fill="#FF64FF" id="MB" d="M327 170c1.014 0 2 3.959 2 5-1.638 0-2-3.576-2-5Z"/><path fill="#CAC7CB" id="fiber tracts" d="M128 189v6l-7-13 2.5 2c2.721 0-2.999-9-5.5-9-1.579 0-1-2.855-1-4 2.547 0 6.058 8 9.5 8 1.439 0-.659-4 1.5-4v14Z"/><path fill="#FF64FF" id="MB" d="M129 171c-1.473 0-1 1.952-1 3 1.473 0 1-1.952 1-3Z"/><path fill="#FF6F80" id="TH" d="m271 173-1 1 1-1Z"/><path fill="#E64438" id="HY" d="m147 174 1 1-1-1ZM309 174l-1 1 1-1Z"/><path fill="#CACCCB" id="opt" d="M121 181v1l2.5 2c2.721 0-2.999-9-5.5-9l2 5 1 1Z"/><path fill="#E64438" id="HY" d="m158 179-1 2-8-6h2l7 4Z"/><path fill="#FF64FF" id="MB" d="M166 180v1l-8-2-7-4 8 2h2l5 3ZM305 175l-1 1 1-1Z"/><path fill="#E64438" id="HY" d="M299 179v2c1.626 0 8-4.11 8-6h-2l-1 1-5 3Z"/><path fill="#CACCCB" id="opt" d="m335 183-1 1c-5.117 0 2.505-9 5-9v1l-2 3-1 1v1l-1 1v1Z"/><path fill="#FF6F80" id="TH" d="m299 176-2 1 2-1Z"/><path fill="#FF64FF" id="MB" d="M291 180v1c2.885 0 4.697-2 8-2l5-3h-5l-2 1h-2l-4 3Z"/><path fill="#C7C8CC" id="alv" d="m334 184-1 4c2.657 0 6-9.714 6-12l-2 3-1 1v1l-1 1v1l-1 1Z"/><path fill="#FF6F80" id="TH" d="M183 180c0 1.643-3.765 1-5 1l-12-1-5-3c7.292 0 14.202 3 22 3ZM274 181h5l12-1 4-3-15.5 3c-1.278 0-5.5-.665-5.5 1Z"/><path fill="#F24739" id="FF" d="m170 197 6 5c8.801 0 11 4.636 11-7-5.399 0-16.009-14-21-14l-8-2-1 2c0 2.158 13 10.859 13 16ZM286 197l-6 5c-6.002 0-11 3.077-11-6l1-1 19-13 1-1h1c2.885 0 4.697-2 8-2v2l-9 9.5-4 6.5Z"/><path fill="#CAC7CB" id="fiber tracts" d="m337 179-1 1 1-1ZM120 180l1 1-1-1Z"/><path fill="#CACCC8" id="ml" d="m178 181 4 3.5c1.584 1.584 19.423 12.5 8 12.5l-3-2c-5.399 0-16.009-14-21-14v-1l12 1ZM270 195l-1 1-5.5 1c-1.67-.835-.297-5.351 1-6 2.168-1.084 14.5-7.792 14.5-10l12-1v1h-1l-1 1-19 13Z"/><path fill="#FF64FF" id="MB" d="m290 181-1 1 1-1ZM305 197c5.073 0 10 2.482 10 8 3.085 0-.775-10.95 0-12.5.829-1.658 8.81-6.345 10.5-5.5l3.5 3v-9l-19.5 12-4.5 4Z"/><path fill="#CAC7CB" id="fiber tracts" d="m336 181-1 1 1-1Z"/><path fill="#0E9584" id="PERI1" d="M26 194h6c0-3.419 2-7.224 2-11h-6c0 3.911-2 6.607-2 11Z"/><path fill="#0E9583" id="PERI2/3" d="M40 193h7l-2-8c-1.06 0-10-1.223-10-2h-1c0 3.776-2 7.581-2 11 2.707 0 5.903-1 8-1Z"/><path fill="#CAC7CB" id="fiber tracts" d="m335 183-1 1 1-1Z"/><path fill="#0E9583" id="PERI2/3" d="M416 193c2.097 0 5.293 1 8 1 0-3.109-2-7.814-2-11l-10 2h-1c0 3.303-2 5.115-2 8h7Z"/><path fill="#0E9584" id="PERI1" d="M424 194h6c0-4.348-2-7.28-2-11h-6c0 3.186 2 7.891 2 11Z"/><path fill="#C7CAC9" id="fr" d="M215 184c0 .685-6.125 3.751-7 5.5-1.12 2.239 4.628 7.5 6.5 7.5 4.201 0 4.685-13 .5-13ZM240 184c0 2.454-2.489 7.523-1 10.5 3.995 7.99 17.339-10.5 1-10.5Z"/><path fill="#0F9684" id="PERI5" d="M47 193h1l8-2v-2h-1c-.77 0-7.528-4-10-4l2 8Z"/><path fill="#A8AAAA" id="VL" d="M90 221c.67 0 5 2.662 5 0 0-1.841-5.176-3.338-6.5-4L79 206.5c-2.725-5.449-6.247-10.494-9-16-.656-1.311-.797-5.5-3-5.5 0 7.249 7 14.993 7 19l1 1v1l2 2v1l1 1v1c1.617 0 4 4.583 4 6l1 1 1 1h1l1 1h1l1 1h2ZM367 221h1l1-1h1l1-1h1l1-1 1-1 1-1c0-1.238.423-3 2-3l1-2 1-1v-1l1-1v-1l1-1 1-1v-1l1-1c0-1.238.423-3 2-3 0-1.238.423-3 2-3 0-4.499 2-7.354 2-12-1.845 0-1.441 3.381-2 4.5-2.562 5.124-5.488 9.977-8 15-1.981 3.962-18 17.483-18 17.5l6-1Z"/><path fill="#0F9684" id="PERI5" d="m401 191 8 2c0-2.885 2-4.697 2-8-3.071 0-7.229 4-10 4l-1 2h1Z"/><path fill="#CCCAC7" id="cpd" d="m171 241 5 1c0-.665 7.421-2.46 8.5-3 2.596-1.298 3.735-7-.5-7-3.261 0-8.358 4.071-12.5 2-8.752-4.376-29.5-16.53-29.5-28-4.756 0 0-10.117 0-11.5 0-2.796-9.207-8.646-11.5-7.5l-2.5 2v6c0 4.358 19 25.146 19 28v1l1 1 1 1 1 1 1 1 1 1h1l5 5 2 1 2 2h1l2 1 1 1h1l1 1 3 1ZM286 241h1l1-1 2-1h1l1-1 1-1h1l1-1 1-1h1l1-1 1-1 2-1 1-1 1-1 1-1 1-1 1-1 1-1 1-1 1-1 1-1 1-1v-1l2-2 1-1 1-1v-1l1-1 1-1v-1l2-2 1-2 1-2c0-1.417 2.383-6 4-6 0-1.429 1.288-4 3-4v-2l1-2v-3l-3.5-3c-1.69-.845-9.671 3.842-10.5 5.5-.775 1.55 3.085 12.5 0 12.5 0 12.575-21.67 24.585-30.5 29-3.973 1.986-8.553-2-11.5-2-5.302 0-2.631 6.434.5 8 1.053.527 6.5.851 6.5 2l6-1Z"/><path fill="#C7C8CC" id="alv" d="M333 188c-2.109 0-2 2.535-2 4 2.109 0 2-2.535 2-4Z"/><path fill="#0E9684" id="PERI6a" d="m58 190-2 1v-2l2 1Z"/><path fill="#A0EE9C" id="EPd" d="m71 224 4 1 3-2c0-2.097 1-5.293 1-8l-1-4v-1l-1-1v-1l-2-2v-1h-1l-2-2.5c-1.738-3.476-5.58-7.16-7-10-.523-1.046.951-3.5-1-3.5h-1l-2 1v12.5c3.135 6.27 10 13.067 10 20.5v1ZM382 225h3v-3c0-5.804 7.45-13.4 10-18.5 2.079-4.158 0-9.063 0-13.5l-2-1h-1c0 1.717-3.453 8-5 8 0 1.238-.423 3-2 3l-2 4-1 2h-1l-1 1v1l-1 1v1l-1 1-1 2v2l1 8 4 2Z"/><path fill="#0E9684" id="PERI6a" d="m398 190 2 1 1-2-3 1Z"/><path fill="#32B824" id="ENTl6a" d="M69 223h2c0-7.433-6.865-14.23-10-20.5V190h-3l-2 1c0 11.866 11 22.122 11 32h2ZM387 223h2c0-7.899 12-21.54 12-32h-1l-2-1h-3c0 4.437 2.079 9.342 0 13.5-2.55 5.1-10 12.696-10 18.5l2 1Z"/><path fill="#31B824" id="ENTl5" d="m67 223-8 1c0-3.838-11-21.291-11-31l8-2c0 11.866 11 22.122 11 32ZM389 223l9 1c0-4.677 11-22.488 11-31l-8-2c0 10.46-12 24.101-12 32Z"/><path fill="#C7C8CC" id="alv" d="M329 193v2c1.577 0 2-1.762 2-3l-2 1Z"/><path fill="#32B825" id="ENTl2" d="M49 226c-1.564 0-3.876 1-6 1 0-7.089-11-23.191-11-33 2.707 0 5.903-1 8-1 0 11.281 9 21.832 9 33Z"/><path fill="#32B725" id="ENTl3" d="m59 224-10 2c0-11.168-9-21.719-9-33h8c0 9.709 11 27.162 11 31Z"/><path fill="#CAC7CB" id="fiber tracts" d="M328 195h1v-2l-1 2Z"/><path fill="#32B725" id="ENTl3" d="m398 224 9 2c0-10.919 9-21.566 9-33h-7c0 8.512-11 26.323-11 31Z"/><path fill="#32B825" id="ENTl2" d="m407 226 6 1c2.162 0 2.284-6.067 3-7.5 3.672-7.343 8-16.792 8-25.5-2.707 0-5.903-1-8-1 0 11.434-9 22.081-9 33Z"/><path fill="#32B722" id="ENTl1" d="M43 227c0 1.577-1.762 2-3 2-1.9 0-2.31-6.118-3-7.5-3.905-7.811-11-18.403-11-27.5h6c0 9.809 11 25.911 11 33Z"/><path fill="#FD4B3C" id="PH" d="M220 203c0 8.471 6.853 3 8.5 3 1.279 0 1.176 3.412 6 1l2.5-4v-4c0-2.408-4.848-6.326-7.5-5l-1 2c-1.986 0-8.5-5.275-8.5 4v3Z"/><path fill="#32B722" id="ENTl1" d="m413 227 4 2c0-8.211 13-23.621 13-35h-6c0 8.708-4.328 18.157-8 25.5-.716 1.433-.838 7.5-3 7.5Z"/><path fill="#FF64FF" id="MB" d="m270 195-1 1 1-1Z"/><path fill="#C7C8CC" id="alv" d="m329 195-1 2v-2h1Z"/><path fill="#FF8DFD" id="SNr" d="M185 225c0 2.967-1 4.861-1 7-3.261 0-8.358 4.071-12.5 2-8.752-4.376-29.5-16.53-29.5-28 0-11.139 14-10.621 14-5 0 6.648 6.239 7.87 10.5 10l1.5 3.5c3.177 6.354 10.597 10.5 17 10.5Z"/><path fill="#E64438" id="HY" d="M168 201c2.097 0 5.293 1 8 1l-6-5-2 4ZM288 201c-2.097 0-5.293 1-8 1l6-5 2 4Z"/><path fill="#FF64FF" id="MB" d="m305 197-2 1 2-1Z"/><path fill="#FF8DFD" id="SNr" d="M271 225c0 2.765 2 5.165 2 7 2.947 0 7.527 3.986 11.5 2 8.83-4.415 30.5-16.425 30.5-29 0-5.518-4.927-8-10-8l-2 1-2 1-1 2c0 5.891-5.39 7.945-9.5 10-8.651 4.325-4.719 14-19.5 14Z"/><path fill="#C7C8CC" id="alv" d="M328 197c-1.712 0-3 2.571-3 4 1.712 0 3-2.571 3-4Z"/><path fill="#C8CBCC" id="ec" d="M387 197c-1.577 0-2 1.762-2 3 1.577 0 2-1.762 2-3Z"/><path fill="#FF64FF" id="MB" d="m303 198-2 1 2-1Z"/><path fill="#C8C8C8" id="mtg" d="M237 199c5.097 0 0 9.265 0 4v-4ZM220 200c-2.795 0-3.91 5-2.5 5l2.5-2v-3Z"/><path fill="#C8CBCC" id="ec" d="M383 203v1l2-4c-1.577 0-2 1.762-2 3Z"/><path fill="#FFA6FD" id="SNc" d="m187 224-2 1c-6.403 0-13.823-4.146-17-10.5l-1.5-3.5c-4.261-2.13-10.5-3.352-10.5-10 7.516 0 10.908 12 18 12 0 4.397 13 4.612 13 11ZM270 224l1 1c14.781 0 10.849-9.675 19.5-14 4.11-2.055 9.5-4.109 9.5-10-6.822 0-11.423 12-17 12 0 1.261-13 5.45-13 11Z"/><path fill="#C7C8CC" id="alv" d="M325 201c-1.617 0-4 4.583-4 6 2.177 0 4-4.336 4-6Z"/><path fill="#C8CBCC" id="ec" d="M382 205v1l1-2h-1v1Z"/><path fill="#FE8DFF" id="VTA" d="M174 213c2.923 0 15.118-7.691 18.5-6 7.485 3.743 1.618 17-5.5 17 0-6.388-13-6.603-13-11ZM283 213c-3.207 0-15.507-7.496-18.5-6-8.005 4.002-2.341 17 5.5 17 0-5.55 13-9.739 13-11Z"/><path fill="#C7C8CC" id="alv" d="m321 207-1 2 1-2ZM320 209l-1 2 1-2ZM319 211l-2 2c1.747 0 2-.253 2-2ZM317 214l-1 1 1-1Z"/><path fill="#8AD987" id="CTXsp" d="M82 225c1.984 0 3.945-3.278 6.5-2l5.5 2-4-4h-2l-1-1h-1l-1-1h-1l-1-1-1-1c-1.481 0-.785-2-3-2 0 2.707-1 5.903-1 8 1.466 0 4-.109 4 2Z"/><path fill="#CBCCCB" id="mfb" d="m209 223-8 6c-1.614 0-1-3.31-1-4.5 0-7.706 9-14.553 9-6v4.5ZM247 223l9 7c0-6.078.804-8.893-2-14.5-.835-1.67-5.351-.297-6 1l-1 6.5Z"/><path fill="#C7C8CC" id="alv" d="m316 215-1 1 1-1Z"/><path fill="#8AD987" id="CTXsp" d="m364 224 6.5-1 3.5 2c0-2.109 2.535-2 4-2l-1-8-2 1-1 1-1 1-1 1h-1l-1 1h-1l-1 1h-1l-3 3Z"/><path fill="#C7C8CC" id="alv" d="m315 217-1 1 1-1Z"/><path fill="#FF493D" id="SUM" d="M264 241c-2.25 0-3.376 2-5 2-2.814 0-10.362-11-15-11h-31c-5.517 0-12.475 11-16 11l-4-2 2-6 1-1 1-1 1-1 1-1 2-2 8-6c5.339 0 12.156-8.172 18.5-5 1.661.83 4.652-1.174 7 0l12.5 5 9 7c0 3.614 8 6.88 8 11Z"/><path fill="#C7C8CC" id="alv" d="m314 218-1 1 1-1ZM313 219l-2 2c1.747 0 2-.253 2-2ZM311 222l-1 1 1-1Z"/><path fill="#99D2BD" id="OLF" d="m387 223-2 2v-3l2 1Z"/><path fill="#6ACAB9" id="PIR" d="M69 278h1l1-2 5-22c-1.473 0-1-1.952-1-3 0-8.108-2-15.54-2-24l-2-3-2-1h-2l-8 1-10 2c-1.564 0-3.876 1-6 1 0 1.577-1.762 2-3 2 0 12.25 12.678 26.857 18 37.5L69 278Z"/><path fill="#99D2BD" id="OLF" d="M71 223v1l-2-1h2Z"/><path fill="#A0ED9D" id="EPv" d="M78 252h2l1-3-1-14.5c1.094-2.189 2-7.093 2-9.5 0-2.109-2.534-2-4-2l-3 2-2 2c0 8.46 2 15.892 2 24l3 1Z"/><path fill="#9DE69C" id="BLAp" d="M86 252h2l3-1v-1l1-1c2.034 0 9.883-18 11-18v-2c-2.952 0-5.452-4-9-4l-5.5-2c-2.555-1.278-4.516 2-6.5 2 0 2.407-.906 7.311-2 9.5l1 14.5 5 3Z"/><path fill="#C7C8CC" id="alv" d="m310 223-1 1 1-1Z"/><path fill="#9DE69C" id="BLAp" d="M368 252h3l4-3v-1l1-1c0-5.08 1.149-12.203-1-16.5-.619-1.238 1.144-5.5-1-5.5l-3.5-2-6.5 1-2 1-7 3-1 1-1 1c0 4.171 12 16.52 12 20l3 2Z"/><path fill="#A0ED9D" id="EPv" d="M377 252h2l2-1c0-7.388 2-15.645 2-24l-1-2-4-2c-1.465 0-4-.109-4 2 2.144 0 .381 4.262 1 5.5 2.149 4.297 1 11.42 1 16.5l-1 1v1l2 3Z"/><path fill="#6ACAB9" id="PIR" d="m386 277 1 1c3.318 0 8.733-7.967 10-10.5l6-7c3.643-7.286 14-23.713 14-31.5l-4-2-6-1-9-2-9-1h-2l-2 2-2 2c0 8.355-2 16.612-2 24v4l4 20 1 1v1Z"/><path fill="#8AD987" id="CTXsp" d="m75 225-2 2-2-3 4 1Z"/><path fill="#C7C8CC" id="alv" d="m147 224 1 1-1-1ZM309 224l-1 1 1-1Z"/><path fill="#8AD987" id="CTXsp" d="m364 224-2 1 2-1Z"/><path fill="#C7C8CC" id="alv" d="m308 225-1 1 1-1ZM353 225c-1.868 0-15 7.125-15 8 2.577 0 15-5.307 15-8Z"/><path fill="#8AD987" id="CTXsp" d="m385 225-2 2-1-2h3Z"/><path fill="#C7C8CC" id="alv" d="m149 226 1 1-1-1ZM307 226l-1 1 1-1ZM306 227l-1 1 1-1ZM151 228l1 1-1-1ZM305 228l-1 1 1-1Z"/><path fill="#8AD987" id="CTXsp" d="m355 228-1 1 1-1ZM103 231h3c0-1.577-1.762-2-3-2v2Z"/><path fill="#C7C8CC" id="alv" d="m153 229 5 5c-1.654 0-5-3.74-5-5ZM304 229l-1 1 1-1Z"/><path fill="#8AD987" id="CTXsp" d="M352 230h1l1-1-2 1Z"/><path fill="#84E981" id="BMAp" d="m92 256 3 1c4.046 0 6.085-4 10-4 0-4.522 8-8.868 8-15 0-2.25-2-3.376-2-5l-2-1-1-1h-5c-1.117 0-8.966 18-11 18l-1 1v4l1 2Z"/><path fill="#E64438" id="HY" d="M264 241h5c0-.667-12.368-11-13-11 0 3.614 8 6.88 8 11Z"/><path fill="#C7C8CC" id="alv" d="m303 230-1 1 1-1Z"/><path fill="#8AD987" id="CTXsp" d="m351 230-1 1 1-1Z"/><path fill="#84E981" id="BMAp" d="m364 256-3 1-9-4c0-2.847-9-10.128-9-16l1-3 1-1 5-2 1-1h2c0 4.171 12 16.52 12 20v5l-1 1Z"/><path fill="#8AD987" id="CTXsp" d="m108 231 1 1-1-1Z"/><path fill="#E64438" id="HY" d="m199 231-1 1 1-1Z"/><path fill="#FD4A3D" id="Mmd" d="M222 237c1.607 0 6.092-2.204 6.5-2 2.48 1.24 2.437 2 5.5 2l5-1c0-3.248 2.366-2 4-2l1-2h-31l1 2c1.712 0 3-1.212 3 2l5 1Z"/><path fill="#E64438" id="HY" d="m198 232-1 1 1-1Z"/><path fill="#FC4B3E" id="Mml" d="M197 257c3.395 0 6.106 2 10 2l5-15.5c.465-.93.817-4.5 2-4.5v-5l-1-2c-5.517 0-12.475 11-16 11 0 3.531-1 7.893-1 12l1 2ZM259 257c-3.395 0-6.106 2-10 2 0-7.18-6-13.229-6-20v-5l1-2c4.638 0 12.186 11 15 11l2 4.5-1 6.5v2l-1 1Z"/><path fill="#C7C8CC" id="alv" d="m301 232-2 1 2-1Z"/><path fill="#8AD987" id="CTXsp" d="m117 236-4 2c0-2.25-2-3.376-2-5l6 2v1Z"/><path fill="#E64438" id="HY" d="m197 233-1 1 1-1Z"/><path fill="#C8CBCA" id="pm" d="m217 236-3 3v-5c1.712 0 3-1.212 3 2ZM239 236l4 3v-5c-1.634 0-4-1.248-4 2Z"/><path fill="#C7C8CC" id="alv" d="m299 233-1 1 1-1ZM338 233c-1.424 0-5 .362-5 2 1.424 0 5-.362 5-2Z"/><path fill="#8AD987" id="CTXsp" d="m345 233-1 1 1-1Z"/><path fill="#E64438" id="HY" d="m196 234-1 1 1-1Z"/><path fill="#C7C8CC" id="alv" d="m298 234-1 1 1-1Z"/><path fill="#8AD987" id="CTXsp" d="m339 236 4 1 1-3-5 1v1Z"/><path fill="#CAC7CB" id="fiber tracts" d="M117 236h2l-2-1v1Z"/><path fill="#C7C8CC" id="alv" d="m160 235 2 2-2-2Z"/><path fill="#E64438" id="HY" d="M188 241h5l2-6c-1.763 0-7 4.012-7 6Z"/><path fill="#FD4B3E" id="Mmme" d="M222 261h13l-1-24c-3.063 0-3.02-.76-5.5-2-.408-.204-4.893 2-6.5 2v24Z"/><path fill="#C7C8CC" id="alv" d="m296 235-1 1 1-1Z"/><path fill="#7ECF4B" id="CA1" d="m327 235-1 1 1-1Z"/><path fill="#C7C8CC" id="alv" d="M329 237h2l2-2h-6l-1 1h-3v1h6Z"/><path fill="#CAC7CB" id="fiber tracts" d="M338 236h1v-1l-1 1Z"/><path fill="#97EC93" id="PA" d="m147 254-7 7c0-4.898-18.109-11.196-22.5-9l-4.5 2c-2.097 0-5.293-1-8-1 0-4.522 8-8.868 8-15l4-2h4l1 1h5l7 4 5 3 3 3 5 7Z"/><path fill="#CAC7CB" id="fiber tracts" d="m121 236 1 1-1-1Z"/><path fill="#FE4A3C" id="Mmm" d="M207 259c4.875 0 9.727 2 15 2v-24l-5-1-3 3c-1.183 0-1.535 3.57-2 4.5l-5 15.5ZM249 259l-14 2-1-24 5-1 4 3c0 6.771 6 12.82 6 20Z"/><path fill="#C7C8CC" id="alv" d="m295 236-1 1 1-1Z"/><path fill="#7DCF4B" id="CA2" d="M322 237h1v-1l-1 1Z"/><path fill="#CAC7CB" id="fiber tracts" d="m335 236-1 1 1-1Z"/><path fill="#97EC93" id="PA" d="M343 254c0-1.353-4.643-2-6-2-5.867 0-11.619 1.559-16.5 4l-4.5 4-7-6 5-6 3-3 6-5 2-1 4-2h5l1-1h4l4 1c0 5.872 9 13.153 9 16-3.013 0-6.611 1-9 1Z"/><path fill="#7DCD4B" id="HPF" d="m153 251-6 3-5-7c0-2.041-.959-3-3-3l-5-3-3-4h4c9.648 0 13.34 14 18 14Z"/><path fill="#C7C8CC" id="alv" d="M164 239h1v-1l-2-1v2h1ZM294 237l-1 1v-1h1Z"/><path fill="#7DCD4B" id="HPF" d="M299 250c0 2.064 3.353.426 4.5 1l5.5 3 5-6c0-1.938 3-5.802 3-3l6-5 2-1 1-2h-4c-11.833 0-10.943 10.721-15.5 13-.873.437-5.5.868-5.5-1l-2 1ZM291 239h1v-1l-1 1Z"/><path fill="#C7C8CC" id="alv" d="M292 239h1v-1h-1v1Z"/><path fill="#7ECE4A" id="DG-po" d="m164 240-2 1 1-2h1v1Z"/><path fill="#7DCD4B" id="HPF" d="m165 239-1 1v-1h1Z"/><path fill="#65A83D" id="DG-sg" d="m158 242-2 1c4.68 0 10 5.036 10-4h-1l-1 1-2 1c0 1.579-2.855 1-4 1Z"/><path fill="#7BD04A" id="DG-mo" d="m155 249 2 1c8.587 0 14 1.973 14-9l-3-1-1-1h-1c0 9.036-5.32 4-10 4-3.684 0-1 4.598-1 6ZM301 249l-2 1c-10.153 0-13 2.338-13-9h1l1-1 2-1c0 5.257 10 8.752 10 3 2.719 0 2.745 7 1 7Z"/><path fill="#65A83D" id="DG-sg" d="M298 242h2c0 5.752-10 2.257-10-3h2c0 2.314 4.262 3 6 3Z"/><path fill="#7ECE4A" id="DG-po" d="m293 239 5 3c-1.738 0-6-.686-6-3h1ZM162 241c-1.145 0-4-.579-4 1 1.145 0 4 .579 4-1Z"/><path fill="#FF4B3D" id="LM" d="M194 255h2c0-4.107 1-8.469 1-12l-4-2h-5c-3.424 0-3.518 5-5 5 0 5.535 5.899 9 11 9ZM260 254l2 1c6.335 0 11-3.42 11-10l-4-4h-5c-2.25 0-3.376 2-5 2l2 4.5-1 6.5Z"/><path fill="#33B931" id="HATA" d="M139 244c2.041 0 3 .959 3 3l-3-3ZM317 245l-3 3c0-1.938 3-5.802 3-3Z"/><path fill="#8AD987" id="CTXsp" d="m376 247-1 1 1-1ZM80 252h6l-5-3-1 3ZM92 249l-1 1 1-1Z"/><path fill="#7DCD4B" id="HPF" d="M157 250c0 1.579-2.855 1-4 1l2-2 2 1Z"/><path fill="#8AD987" id="CTXsp" d="M371 252h6l-2-3-4 3ZM368 252l-3 2v-4l3 2Z"/><path fill="#99D2BD" id="OLF" d="m78 252-2 2c-1.473 0-1-1.952-1-3l3 1Z"/><path fill="#8AD987" id="CTXsp" d="m88 252 3 2v-3l-3 1Z"/><path fill="#99D2BD" id="OLF" d="m379 252 2 3v-4l-2 1Z"/><path fill="#A8ECD2" id="TR" d="m70 279 5.5 4 14.5 2v-17l1-1 1-6v-5l-1-2-3-2H78l-2 2-5 22-1 2v1Z"/><path fill="#60E6B5" id="COApm" d="M140 261c0 3.412-21.337 23-25 23-3.156 0-3.137-5.773-4-7.5-2.797-5.595-2.811-14.378 0-20l2-2.5 4.5-2c4.391-2.196 22.5 4.102 22.5 9ZM316 260c0 4.73 21.511 24 26 24 3.181 0 2.185-4.87 3-6.5 2.354-4.708 3.584-14.833 1-20l-3-3.5c0-1.353-4.643-2-6-2-5.867 0-11.619 1.559-16.5 4l-4.5 4Z"/><path fill="#A8ECD2" id="TR" d="m386 279-7.5 5c-1.743.871-9.837 1-11.5 1 0-5.572-1-12.756-1-19l-1-1v-3c0-1.564-1-3.876-1-6l1-1v-1l3-2h11l2 3 4 20 1 1v3Z"/><path fill="#5FE6B7" id="COApl" d="M115 284c0 1.765-1.581.541-2.5 1-4.812 2.406-12.335 4.832-18 2l-4.5-2v-17l1-1 1-6c.966 0 3-2.886 3-4 4.046 0 6.085-4 10-4 2.707 0 5.903 1 8 1l-2 2.5c-2.811 5.622-2.797 14.405 0 20 .863 1.727.844 7.5 4 7.5ZM342 284c0 7.76 23.056 1 25 1 0-5.572-1-12.756-1-19l-1-1v-3l-4-5-9-4c-3.013 0-6.611 1-9 1l3 3.5c2.584 5.167 1.354 15.292-1 20-.815 1.63.181 6.5-3 6.5Z"/><path fill="#E64438" id="HY" d="m262 255-2 1v-2l2 1ZM196 255l1 2-3-2h2Z"/><path fill="#99D2BD" id="OLF" d="m365 255-1 1 1-1ZM95 257c0 1.114-2.034 4-3 4v-5l3 1Z"/><path fill="#E64438" id="HY" d="m260 256-1 1 1-1Z"/><path fill="#99D2BD" id="OLF" d="m361 257 4 5c0-1.564-1-3.876-1-6l-3 1ZM365 265l1 1-1-1ZM91 267l-1 1 1-1ZM385 275l1 1-1-1ZM71 276l-1 2 1-2ZM387 278l-1 1v-2l1 1ZM70 278v1l-1-1h1Z"/></svg>