<svg xmlns="http://www.w3.org/2000/svg" viewBox="0 0 456 320"><path fill="#FEFA90" id="DEC" d="M192 105c2.029 0 1.881-1.191 3.5-2 7.482-3.741 2.5-8.285 2.5-14.5 0-3.596 12.321-4.41 14.5-5.5 5.555-2.777 38.429.715 43 3 5.951 2.975-5.256 19 9.5 19 5.937 0 10.645-3 16-3 0-8.381 9-15.287 9-24-1.106 0-19.123-11.312-22.5-13-14.087-7.044-27.695-5-44-5-3.999 0-11.792-3.104-16-1-3.639 1.82-8.396 1.198-12 3l-18 9-11.5 7c0 7.947 9 15.044 9 23 4.658 0 10.437 4 17 4Z"/><path fill="#FCFC90" id="ANcr1" d="m175 101 2 5-10.5-12c-10.052-5.026-18.311-9-30.5-9 0-10.142 21.873-7 30-7 0 7.947 9 15.044 9 23ZM281 102v1l14.5-13c7.111-3.555 17.047-5 25.5-5 0-10.007-23.756-7-31-7 0 8.713-9 15.619-9 24Z"/><path fill="#CBC9CC" id="arb" fill-rule="evenodd" d="M225 85c0 2.999-13.499 3.498-16 8.5-1.234 2.469.47 10.485 2.5 11.5h3l3 4c10.936 5.468 18.778.611 28-4 2.855-1.427 2.922-13.539 0-15-2.675-1.337-7.301-2-10.5-2-2.467 0-5.49-3-10-3m-59 34h1l1-1c0-4.17 10-4.051 10-7 1.898 0 14-4.507 14-6 2.029 0 1.881-1.191 3.5-2 7.482-3.741 2.5-8.285 2.5-14.5 0-3.596 12.321-4.41 14.5-5.5 5.555-2.777 38.429.715 43 3 5.951 2.975-5.256 19 9.5 19 0 2.058 11.004 6 13 6 0 1.728 7.11 3.305 8.5 4l3.5 4 9 8.5 28 28c2.015 4.031 11.056 5.889 8 12l-1.5 1.5c-2.261 0-2.136-4.136-3-5L319 151.5c-7.933-7.933-20.635-23.567-30.5-28.5-3.768-1.884-7.044-7-11.5-7 0-1.995-4.377-2-6-2-3.297 0-12.62-1.94-16.5 0-5.467 2.733-15.584 1-22 1h-30c-2.761-1.38-10.013-2-13-2l-9.5 2c-5.033 0-11.009 8.755-15.5 11-4.76 2.38-29.695 25.89-31.5 29.5l-8 10c-.659 1.318.419 2.54-1.5 3.5-1.246.623-3.051-4.398-2.5-5.5l44-43.5 1-1Z"/><path fill="#FCFA91" id="ANcr2" fill-rule="evenodd" d="M145 113c0 1.837-10.023 1.455-9 3.5.721 1.442 7.361-.93 8.5-1.5l9.5-.5-4.5-.5c-1.718-.859-2.387-1-4.5-1m-54 44c0-1.186 1-1.186 1 0 4.518 0 12.375-5.937 16.5-8 13.737-6.869 27.244-15.122 41-22 4.682-2.341 10.003-7 15.5-7l1-1h1l1-1c0-4.17 10-4.051 10-7l-1-5-10.5-12c-10.052-5.026-18.311-9-30.5-9l-3.5 2-9 2c-12.54 6.27-26.07 18.641-32.5 31.5-1.643 3.287-2.096 8.192-4 12-3.064 6.127-9.37 24.5 4 24.5Z"/><path fill="#FEFA90" id="DEC" d="M225 85c0 2.999-13.499 3.498-16 8.5-1.234 2.469.47 10.485 2.5 11.5h3l3 4c10.936 5.468 18.778.611 28-4 2.855-1.427 2.922-13.539 0-15-2.675-1.337-7.301-2-10.5-2-2.467 0-5.49-3-10-3Z"/><path fill="#FCFA91" id="ANcr2" fill-rule="evenodd" d="M307 113c0 2.159-4 .061-4 1.5l8.5.5c.782.391 9.5 3.011 9.5 1.5 0-2.23-3.558-1.029-4.5-1.5-1.718-.859-2.387-1-4.5-1l-5-1m-17 6c4.678 0 11.374 4.937 15.5 7 15.763 7.881 31.319 17.159 47 25 3.557 1.779 7.303 5 11.5 5l4.5 1c10.751-5.376 2.239-24.021-1.5-31.5-9.631-19.262-17.58-27.04-36.5-36.5l-9.5-4c-8.453 0-18.389 1.445-25.5 5L281 103l-1 2-1 2-1 4c0 1.728 7.11 3.305 8.5 4l3.5 4Z"/><path fill="#FDFB90" id="FOTU" d="m177 106 1 5c1.898 0 14-4.507 14-6-6.563 0-12.342-4-17-4l2 5ZM279 107l-1 4c-1.996 0-13-3.942-13-6 5.937 0 10.645-3 16-3v1l-1 2-1 2Z"/><path fill="#FCFC90" id="ANcr1" d="m281 103-1 2 1-2ZM280 105l-1 2 1-2Z"/><path fill="#CBC9CC" id="arb" d="M145 113c0 1.837-10.023 1.455-9 3.5.721 1.442 7.361-.93 8.5-1.5l9.5-.5-4.5-.5c-1.718-.859-2.387-1-4.5-1Z"/><path fill="#FDFB90" id="FOTU" d="m182 131 9.5-4c4.482-2.241 41.655-6.673 47-4 5.399 2.699 13.661-.67 19 2 4.152 2.076 12.91 6 17.5 6 0-5.37 2-10.336 2-15 0-1.995-4.377-2-6-2-3.297 0-12.62-1.94-16.5 0-5.467 2.733-15.584 1-22 1h-30c-2.761-1.38-10.013-2-13-2l-9.5 2 2 16Z"/><path fill="#CBC9CC" id="arb" d="M307 113c0 2.159-4 .061-4 1.5l8.5.5c.782.391 9.5 3.011 9.5 1.5 0-2.23-3.558-1.029-4.5-1.5-1.718-.859-2.387-1-4.5-1l-5-1Z"/><path fill="#FFFB8E" id="PRM" d="m125 198-1 1-6.5 1c-12.486-6.243-19.893-14.286-26.5-27.5-1.18-2.36-.779-5.558-2-8-1.292-2.583 2-5.121 2-7.5h1c4.518 0 12.375-5.937 16.5-8 13.737-6.869 27.244-15.122 41-22 4.682-2.341 10.003-7 15.5-7l-44 43.5c-.551 1.102 1.254 6.123 2.5 5.5 1.919-.96.841-2.182 1.5-3.5l8-10c1.805-3.61 26.74-27.12 31.5-29.5 4.491-2.245 10.467-11 15.5-11l2 16v1c-5.229 0-12.278 8.778-16 12.5-5.853 5.853-11.347 12.693-15 20-2.22 4.44-9.795 9.591-12 14-2.204 4.408-7 7.158-7 12.5l-7 7ZM325 191l7 8c3.593 0 6.897 1.802 10.5 0 10.56-5.28 25.5-24.863 25.5-36.5l-4-6.5c-4.197 0-7.943-3.221-11.5-5-15.681-7.841-31.237-17.119-47-25-4.126-2.063-10.822-7-15.5-7l9 8.5 28 28c2.015 4.031 11.056 5.889 8 12l-1.5 1.5c-2.261 0-2.136-4.136-3-5L319 151.5c-7.933-7.933-20.635-23.567-30.5-28.5-3.768-1.884-7.044-7-11.5-7 0 4.664-2 9.63-2 15v1c1.128 0 14.117 9.734 15 11.5l23 30c3.014 6.029 12 9.945 12 17.5ZM168 118l-1 1 1-1ZM166 119l-1 1 1-1Z"/><path fill="#FBFC91" id="PYR" d="M183 144c.737 0 14.489-7.994 16.5-9 8.237-4.119 24.366.317 31-3 4.672-2.336 31.838 4.919 36 7l6.5 5c.711 0 2-10.88 2-12v-1c-4.59 0-13.348-3.924-17.5-6-5.339-2.67-13.601.699-19-2-5.345-2.673-42.518 1.759-47 4l-9.5 4v1l1 12Z"/><path fill="#FFF990" id="COPY" fill-rule="evenodd" d="M150 183c0 1.93 1.93 0 0 0m1-1c0 1.93 1.93 0 0 0m1-1c0 1.93 1.93 0 0 0m2-2c0 4.136 2.609 0 0 0m-7 18h1l1-1 17-13 1-1 1-1-1-4.5 4-5.5c-1.717 0 4.908-8 8-8 0-2.83 4-4.54 4-7v-7c-2.268 0-4.228 5.956-5 7.5-2.478 4.957-10.673 14.587-14.5 16.5l-7 6 26.5-35-1-12c-5.229 0-12.278 8.778-16 12.5-5.853 5.853-11.347 12.693-15 20-2.22 4.44-9.795 9.591-12 14-2.204 4.408-7 7.158-7 12.5 0 12.416 10.512 6 15 6Z"/><path fill="#CBC9CC" id="arb" d="M183 149c0-6.551 13.054-8.277 16.5-10 11.663-5.831 46.325-5.837 58 0 3.798 1.899 15.5 3.828 15.5 10 3.013 0 5.749 6.999 7 9.5 1.84 3.679 21.182 24.5 24.5 24.5v-2l-11-10-15.5-21.5-5-5.5-6.5-5c-4.162-2.081-31.328-9.336-36-7-6.634 3.317-22.763-1.119-31 3-2.011 1.006-15.763 9-16.5 9l-26.5 35 7-6c3.827-1.913 12.022-11.543 14.5-16.5.772-1.544 2.732-7.5 5-7.5Z"/><path fill="#FFF990" id="COPY" fill-rule="evenodd" d="M306 183c0 3.781 3.781 0 0 0m19 8c-1.554 0-3.014 6.757-5.5 8-4.439 2.22-8.164-3-11.5-3-4.533 0-15.572-14-19-14v-1c0-5.458-4-8.863-4-10 2.263 0-5.146-8-8-8 0-2.968-4-4.633-4-7v-7c3.013 0 5.749 6.999 7 9.5 1.84 3.679 21.182 24.5 24.5 24.5v-2l-11-10-15.5-21.5-5-5.5c.711 0 2-10.88 2-12 1.128 0 14.117 9.734 15 11.5l23 30c3.014 6.029 12 9.945 12 17.5Z"/><path fill="#FBFC91" id="PYR" d="M183 156c1.42 0 12.385-5.942 14.5-7 8.216-4.108 28.677-2 39-2h13c4.583 2.291 10.45 1.725 15 4l8.5 5v-7c0-6.172-11.702-8.101-15.5-10-11.675-5.837-46.337-5.831-58 0-3.446 1.723-16.5 3.449-16.5 10v7Z"/><path fill="#FFFA8F" id="UVU" d="M179 163c16.764 0 33.76-2 52-2h19.5c6.875 3.438 19.114 2 26.5 2 0-2.968-4-4.633-4-7l-8.5-5c-4.55-2.275-10.417-1.709-15-4h-13c-10.323 0-30.784-2.108-39 2-2.115 1.058-13.08 7-14.5 7 0 2.46-4 4.17-4 7Z"/><path fill="#CBC9CC" id="arb" d="M171 171c4.478 0 6.855-2.178 10.5-4 3.08-1.54 7.809.595 11-1l5 1c8.123-4.062 19.798.101 28-4 3.331-1.665 8.654 2 12.5 2 5.179 0 34.209.854 36.5 2 3.448 1.724 6.303 4 10.5 4 2.263 0-5.146-8-8-8-7.386 0-19.625 1.438-26.5-2H231c-18.24 0-35.236 2-52 2-3.092 0-9.717 8-8 8Z"/><path fill="#FFFA8F" id="UVU" d="M233 193h2c14.566 0 26.556-2.028 38.5-8h5l8.5-3 2-1c0-5.458-4-8.863-4-10-4.197 0-7.052-2.276-10.5-4-2.291-1.146-31.321-2-36.5-2-3.846 0-9.169-3.665-12.5-2-8.202 4.101-19.877-.062-28 4l-5-1c-3.191 1.595-7.92-.54-11 1-3.645 1.822-6.022 4-10.5 4l-4 5.5 1 4.5 1 1c6.91 0 30.126 7.813 36.5 11H233Z"/><path fill="#CBC9CC" id="arb" d="M154 179c0 4.136 2.609 0 0 0ZM152 181c0 1.93 1.93 0 0 0Z"/><path fill="#F0F080" id="CB" d="M167 182h2l-1-1-1 1ZM287 182h2v-1l-2 1Z"/><path fill="#CBC9CC" id="arb" d="M151 182c0 1.93 1.93 0 0 0Z"/><path fill="#F0F080" id="CB" d="m167 182-1 1 1-1Z"/><path fill="#CBC9CC" id="arb" d="M150 183c0 1.93 1.93 0 0 0ZM306 183c0 3.781 3.781 0 0 0Z"/><path fill="#FF9BCD" id="MY" d="m169 187-1 1 1-1Z"/><path fill="#FFA2D2" id="ECU" d="M188 192c0 3.904-6.744 8-10 8-3.558 0-12.15-1.8-14-5.5-1.27-2.541 2-3.709 2-5.5l1-1h1l1-1c5.859 0 11.032 2 16 2l3 3Z"/><path fill="#FF9BCD" id="MY" d="m277 187-1 1 1-1Z"/><path fill="#FFA2D2" id="ECU" d="M269 191c0 4.277 4.606 9 9 9 4.203 0 12.215-1.929 14-5.5l-1-5.5h-1l-1-1h-1l-1-1h-10l-1 1h-1l-1 1h-2l-1 1h-1l-1 1Z"/><path fill="#FF9BCD" id="MY" d="m287 187 1 1-1-1ZM167 188l-1 1 1-1ZM275 188l-1 1 1-1ZM289 188l1 1-1-1ZM177 215c6.198 0 10.682 4 16 4l-4-3.5c-1.27-2.541 2-3.709 2-5.5l-4-2c-8.251 0-9-2.257-9-8-3.558 0-12.15-1.8-14-5.5-1.27-2.541 2-3.709 2-5.5-8.736 0-35 26.023-35 34 3.332 0 6.236-10 10-10 0-6.486 9.1-13 15-13 0-2.577 11.849-2.801 13-.5 1.078 2.156-3 .79-3 2.5 9.083 0 11 5.987 11 13ZM188 191v1l-3-3 3 2ZM272 189l-1 1 1-1ZM279 215c-5.432 0-9.125 3-14 3l3-3.5-3-4.5c1.465 0 4 .109 4-2 2.503 0 13.089-2.322 11-6.5l-2-1.5c4.203 0 12.215-1.929 14-5.5l-1-5.5c4.999 0 8.277 5.889 12.5 8 12.07 6.035 33.206 36.088 26.5 49.5-1.946 3.892-3.567 24.5-11 24.5l8-15.5c5.047-10.094 1.438-24.123-3-33-1.04-2.079-6.209-10.5-9-10.5 0-5.689-9.22-12-15-12 0-2.588-13-3.218-13 .5 0 1.439 4-.659 4 1.5-8.763 0-12 4.492-12 13ZM270 190l-1 1 1-1Z"/><path fill="#F0F080" id="CB" d="M147 197c0 8.752-19.025 1-22 1l7-7c0 12.416 10.512 6 15 6Z"/><path fill="#FDA5D0" id="CU" d="M200 200c-2.457 0-13 6.072-13 8-8.251 0-9-2.257-9-8 3.256 0 10-4.096 10-8v-1h2c0 1.014 3.959 2 5 2h2c0 2.441 3-.178 3 7Z"/><path fill="#FF9BCD" id="MY" d="M190 191c1.424 0 5 .362 5 2-1.041 0-5-.986-5-2ZM266 191l-2 1 2-1Z"/><path fill="#FDA5D0" id="CU" d="m278 200 2 1.5c2.089 4.178-8.497 6.5-11 6.5 0-2.791-10.783-8-13-8 0-5.105 4-4.779 4-7h1c1.048 0 3 .473 3-1l2-1h3c0 4.277 4.606 9 9 9Z"/><path fill="#F0F080" id="CB" d="M308 196c0 4.936 12.942 6.779 16.5 5l4-3 3.5 1-7-8c-1.554 0-3.014 6.757-5.5 8-4.439 2.22-8.164-3-11.5-3Z"/><path fill="#FF9BCD" id="MY" d="M264 192c-1.048 0-3-.473-3 1 1.048 0 3 .473 3-1ZM200 200h3l8-4-14-3c0 2.441 3-.178 3 7ZM223 193l-2 1v-1h2Z"/><path fill="#FFA5D0" id="AP" d="M227 209h2c0-4.957 10-7.919 10-13v-1h-1l-2-1h-1l-2-1h-4c0 1.186-1 1.186-1 0h-5l-2 1h-1l-1 1h-2v1c0 4.601 10 8.077 10 13Z"/><path fill="#FF9BCD" id="MY" d="M235 193v1l-2-1h2ZM256 200l-2 1-3.5-3c-.93-.465-4.5-.817-4.5-2l14-3c0 2.221-4 1.895-4 7ZM220 194l-1 1 1-1ZM236 194l2 1-2-1Z"/><path fill="#FDA5D1" id="NTS" fill-rule="evenodd" d="m254 204-1 2c0 6.675 6.397-2 1-2m-57 17h1c3.233 0 4.452-4 6-4 0-10.048 19-13.724 19 0 3.665 0 4.78-1 5-1 0-1.186 1-1.186 1 0 0 3.31 2.996 1 4 1 0-13.198 20-11.09 20 0 0 2.556 4.016 4 6 4l2-1 2-1 2-1 3-3.5-3-4.5c0-2.273-11-4.745-11-9l-3.5-3c-.93-.465-4.5-.817-4.5-2l-5-1-2 1c0 5.081-10 8.043-10 13 0 4.77-2 3.625-2 0 0-4.923-10-8.399-10-13l-1-1-5 1-8 4-2 4c5.353 0-1 8.658-1 1.5l1-1.5c-4.424 0-5.747 6-10 6 0 1.791-3.27 2.959-2 5.5l4 3.5h1l1 1h1l1 1Z"/><path fill="#FF9BCD" id="MY" d="M217 195v1l-1-1h1ZM241 195l-2 1v-1h2Z"/><path fill="#F0F080" id="CB" d="m149 196-1 1 1-1ZM125 198l-1 1 1-1Z"/><path fill="#C8CACA" id="sptV" d="M163 202h3c0-1.71 4.078-.344 3-2.5-1.151-2.301-13-2.077-13 .5 3.978 0 6-.991 6 2h1ZM294 203h1c0-3.919.337-3 5-3 0-2.588-13-3.218-13 .5 0 1.439 4-.659 4 1.5h2l1 1Z"/><path fill="#FDA3D1" id="Pa5" d="m146 213-1 1c-2.061 0-4 2.431-4-1 0-6.486 9.1-13 15-13 3.978 0 6-.991 6 2l-1 1-8 7-1 1h-4l-1 1-1 1Z"/><path fill="#FFB2D6" id="PAS" d="m187 208 4 2c4.253 0 5.576-6 10-6l2-4h-3c-2.457 0-13 6.072-13 8ZM269 208c0 2.109-2.535 2-4 2 0-2.273-11-4.745-11-9l2-1c2.217 0 13 5.209 13 8Z"/><path fill="#FDA3D1" id="Pa5" d="M309 212c3.045 0 6 6.073 6 0 0-5.689-9.22-12-15-12-4.663 0-5-.919-5 3 3.788 0 6.51 8 11 8 1.048 0 3-.473 3 1Z"/><path fill="#C8CACA" id="sptV" d="M161 203h1v-1l-1 1Z"/><path fill="#FF9BCD" id="MY" d="m163 202-1 1v-1h1Z"/><path fill="#FDA5D2" id="SPVI" d="M149 270h3c0-.621-4.484-1.984-5.5-3l-3.5-8.5c-4.691-9.383-.22-30.559 4-39 2.556-5.113 9.816-6.158 14.5-8.5 3.875-1.938 8.385 6 11.5 6l4-2c0-7.013-1.917-13-11-13h-3l-1 1h-1l-8 7-1 1h-2l-2 1-1 1-1 1-1 1-1 1-1 1-1 1-1 1-5 5-1 1v1l-1 1-1 2c0 1.048.473 3-1 3v1c0 1.321.684 6-1 6v7c1.579 0 1 2.855 1 4v1l1 2v1l1 2v1l1 2v2l1 1v1l1 1 1 1 1 1 1 1 1 1h1l7 2ZM304 270h3l5-1h1l1-1h1l1-1h1l1-1 1-1 1-1 1-4 1-2v-1l1-2v-1l1-2v-1l1-2v-14c-.913 0-2-5.014-2-6v-1l-2-3-2-3-1-1-9-8-3-2c-4.49 0-7.212-8-11-8h-1l-1-1h-2c-8.763 0-12 4.492-12 13 1.624 0 2.75 2 5 2 1.614 0 7.515-7.492 10.5-6 2.458 1.229 5.587.794 8 2 11.663 5.832 15.941 36.618 10.5 47.5-1.264 2.528-2.452 6.976-5.5 8.5-1.046.523-3.5-.951-3.5 1Z"/><path fill="#FF9BCD" id="MY" d="m293 202 1 1-1-1Z"/><path fill="#C8CAC7" id="ts" d="m201 204-1 1.5c0 7.158 6.353-1.5 1-1.5ZM254 204l-1 2c0 6.675 6.397-2 1-2Z"/><path fill="#FDB1D8" id="DMX" d="M218 218h2l3-1c0-13.724-19-10.048-19 0 1.991 0 14-.793 14 1ZM237 218h1c0-1.797 12.925-1 15-1 0-11.09-20-13.198-20 0l4 1Z"/><path fill="#FF9BCD" id="MY" d="M227 209h2c0 4.77-2 3.625-2 0ZM153 210l-1 1 1-1Z"/><path fill="#C8CACA" id="sptV" d="M147 212h1v-1l-1 1Z"/><path fill="#FF9BCD" id="MY" d="m150 211-2 1v-1h2Z"/><path fill="#FDA4D0" id="SPVC" d="M173 217c-3.115 0-7.625-7.938-11.5-6-4.684 2.342-11.944 3.387-14.5 8.5-4.22 8.441-8.691 29.617-4 39l3.5 8.5c1.016 1.016 5.5 2.379 5.5 3 3.352 0 7.68-6.861 9-9.5l4-23c2.646-5.293 8-14.505 8-20.5ZM284 217c1.614 0 7.515-7.492 10.5-6 2.458 1.229 5.587.794 8 2 11.663 5.832 15.941 36.618 10.5 47.5-1.264 2.528-2.452 6.976-5.5 8.5-1.046.523-3.5-.951-3.5 1-4.019 0-7.55-7.599-9-10.5-2.213-4.426.222-11.555-2-16-2.743-5.485-9-20.542-9-26.5Z"/><path fill="#FF9BCD" id="MY" d="M309 212v1l-3-2c1.048 0 3-.473 3 1Z"/><path fill="#C8CACA" id="sptV" d="M146 213h1v-1l-1 1Z"/><path fill="#FF9BCD" id="MY" d="m148 212-1 1v-1h1Z"/><path fill="#C8CACA" id="sptV" d="M310 275h1c2.33 0 3.227-2 6-2 0-1.747.253-2 2-2l8-15.5c5.047-10.094 1.438-24.123-3-33-1.04-2.079-6.209-10.5-9-10.5 0 6.073-2.955 0-6 0v1l9 8 1 1 2 3c1.577 0 2 1.762 2 3v1c1.995 0 2 4.377 2 6v14l-1 2v1l-1 2v1l-1 2v1l-1 2-1 4-1 1-1 1-1 1h-1l-1 1h-1l-1 1h-1c0 2.518-2 4.286-2 6ZM146 275l-1 1c-3.327 0-8.681-6.862-10-9.5-2.77-5.54-11.565-22.871-8-30 1.307-2.614 2-5.334 2-8.5 1.638 0 2-3.576 2-5 3.332 0 6.236-10 10-10 0 3.431 1.939 1 4 1v1l-1 1-1 1-1 1-1 1-5 5-1 1v1l-1 1-1 2c-1.473 0-1 1.952-1 3v1c-1.684 0-1 4.679-1 6v7c0 1.145-.579 4 1 4v1l1 2v1l1 2v1l1 2v2l1 1v1l1 1 1 1 1 1 1 1 1 1h1c0 1.132 4 4.382 4 7ZM145 214h1v-1l-1 1Z"/><path fill="#FF9BCD" id="MY" d="m147 213-1 1v-1h1ZM146 214l-1 1v-1h1ZM145 215l-1 1 1-1Z"/><path fill="#FDB1D7" id="MDRNd" d="m166 276-1 1-8-2c-3.415 0-8-.567-8-5h3c3.352 0 7.68-6.861 9-9.5l4-23c2.646-5.293 8-14.505 8-20.5l4-2c6.198 0 10.682 4 16 4h1l1 1h1l1 1h1l2 3c0 4.692-5.175 6.85-7 10.5l-20 30c-.903 1.806-5.043 11.5-7 11.5Z"/><path fill="#A7AAA9" id="c" d="M228 216h1c0-1.186-1-1.186-1 0Z"/><path fill="#FDB1D7" id="MDRNd" d="m290 276 1 1 8-2c4.397 0 8-.166 8-5h-3c-4.019 0-7.55-7.599-9-10.5-2.213-4.426.222-11.555-2-16-2.743-5.485-9-20.542-9-26.5-2.25 0-3.376-2-5-2-5.432 0-9.125 3-14 3l-2 1-2 1-2 1-2 3c0 6.376 7.33 10.159 10 15.5 5.033 10.067 12.986 18.972 18 29l5 7.5Z"/><path fill="#FF9BCD" id="MY" d="m144 216-1 1 1-1Z"/><path fill="#FF9BCD" id="MY" fill-rule="evenodd" d="M212 287c0 2.64-9.711 6.077-8 9.5.719 1.439 23.183.183 15.5-7.5l-2.5-2h-5m29-1c0 1.435-7.93 2.641-6 6.5 1.892 3.784 9.248 4.5 13 4.5 1.111 0 5 .455 5-1.5 0-2.745-9.845-9.5-12-9.5m-11 9c5.146 0 9.253 1.877 13.5 4l29.5-1c2.24 0 14-.165 14-2-9.103 0 3-1.969 3-5-10.146 0-13.341 11.818-21-3.5-1.167-2.333-3-4.728-3-7.5-13.387 0-24.691-21.881-30-32.5-1.465-2.931 2-5.297 2-7.5l-1-3-7.5 1c-3.116-1.558.687-14.873 1.5-16.5 1.02-2.04 6-2.424 6-3.5l-4-1c-1.004 0-4 2.31-4-1h-1c-.22 0-1.335 1-5 1l-3 1 5 2.5c1.297 2.593 6.389 15.056 1.5 17.5l-7.5-1-1 3c0 1.991 4.284 2.931 3 5.5-5.667 11.333-15.922 34.5-31 34.5 0 6.206-6.893 19.304-15.5 15l-11.5-7v1c0 1.942 14.771 7 7 7 0 2.161 11.652 2 14 2 6.036 0 24.377 3.562 29.5 1 4.164-2.082 7.402-4 12.5-4v-8c-5.493 0-8.641-4.93-14.5-2l-10 9c-1.639.819-7.995.491-6.5-2.5 1.437-2.875 25-14.05 25-17.5-8.192 0 6.07-16 7-16 0-8.682 2-9.657 2 0 2.291 0 8.728 8.957 10 11.5l-.5 4.5-3.5-1c0 4.275 23.756 14.011 26 18.5 2.79 5.581-10.38 1.239-12-2-4.83-9.66-11.929-2.5-19-2.5v8Z"/><path fill="#FF9BCD" id="MY" d="m143 217-1 1 1-1ZM210 235h1c0-1.048-.473-3 1-3 0-8.371-10.545-14 6-14 0-1.793-12.009-1-14-1-1.548 0-2.767 4-6 4l2 3c6.631 0 10 3.248 10 11ZM244 232h2l6.5-9 4.5 1 2-3c-1.984 0-6-1.444-6-4-2.075 0-15-.797-15 1 17.142 0 6 5.292 6 14ZM142 218l-1 1 1-1Z"/><path fill="#FEB1D7" id="XII" d="M212 232c1.636 0 3.733 5 7 5l7.5 1c4.889-2.444-.203-14.907-1.5-17.5l-5-2.5h-2c-16.545 0-6 5.629-6 14Z"/><path fill="#FEB1D7" id="XII" d="M244 232c0 2.873-4.352 5-7 5l-7.5 1c-3.116-1.558.687-14.873 1.5-16.5 1.02-2.04 6-2.424 6-3.5h1c17.142 0 6 5.292 6 14Z"/><path fill="#FF9BCD" id="MY" d="m265 218-2 1 2-1ZM194 219l1 1-1-1ZM263 219l-2 1 2-1ZM196 220l1 1-1-1ZM261 220l-2 1 2-1ZM318 221l1 1-1-1ZM131 223c-1.638 0-2 3.576-2 5 1.638 0 2-3.576 2-5Z"/><path fill="#FFB2D8" id="IRN" fill-rule="evenodd" d="m176 267-3 4.5c3.116 6.233 14.077-4.5 3-4.5m-10 9v1l16-2c0-6.91 21.371-40 28-40 0-7.752-3.369-11-10-11 0 4.692-5.175 6.85-7 10.5l-20 30c-.903 1.806-5.043 11.5-7 11.5ZM277 267l-2 3.5c0 5.648 15.017 1.259 5.5-3.5H277m13 9v1c-5.402 0-9.922-2-15-2 0-5.53-14.649-28.149-19-32.5-2.839-2.839-4.688-8.5-9-8.5h-1v-2l6.5-9 4.5 1c0 6.376 7.33 10.159 10 15.5 5.033 10.067 12.986 18.972 18 29l5 7.5Z"/><path fill="#FF9BCD" id="MY" d="m136 224-1 1 1-1ZM321 225c1.577 0 2 1.762 2 3l-2-3ZM135 226l-1 1 1-1ZM134 227l-1 2 1-2ZM159 288c0 4.7 10 5.036 10 8-15.474 0-36.057-29.613-42-41.5-2.029-4.057-2.033-15.934 0-20 .65-1.3.007-6.5 2-6.5 0 3.166-.693 5.886-2 8.5-3.565 7.129 5.23 24.46 8 30 1.319 2.638 6.673 9.5 10 9.5l4 4.5c2.258 4.516 3.707 5.5 8 5.5l2 2ZM133 229c-1.473 0-1 1.952-1 3 1.473 0 1-1.952 1-3ZM323 229c1.995 0 2 4.377 2 6-.913 0-2-5.014-2-6Z"/><path fill="#FFB1D9" id="NR" d="m219 237-1 3-7-5c0-1.048-.473-3 1-3 1.636 0 3.733 5 7 5ZM237 237l1 3c3.204 0 4.669-5 8-5v-3h-2c0 2.873-4.352 5-7 5Z"/><path fill="#FF9BCD" id="MY" d="M132 233c-1.684 0-1 4.679-1 6 1.684 0 1-4.679 1-6ZM247 234l-1 1v-1h1Z"/><path fill="#FFB1D6" id="MDRNv" d="M275 275c-2.932 0-9 1.471-9 5-13.387 0-24.691-21.881-30-32.5-1.465-2.931 2-5.297 2-7.5 3.204 0 4.669-5 8-5l1-1c4.312 0 6.161 5.661 9 8.5 4.351 4.351 19 26.97 19 32.5ZM182 275c3.008 0 8 1.216 8 5 15.078 0 25.333-23.167 31-34.5 1.284-2.569-3-3.509-3-5.5l-7-5h-1c-6.629 0-28 33.09-28 40Z"/><path fill="#FF9BCD" id="MY" d="M131 246c1.579 0 1 2.855 1 4-1.579 0-1-2.855-1-4ZM325 249l-1 2 1-2Z"/><path fill="#FEC6E2" id="RO" d="m227 264 2 1v-7c0-9.657-2-8.682-2 0v6Z"/><path fill="#FF9BCD" id="MY" d="m132 251 1 2-1-2ZM324 252l-1 2 1-2ZM133 254l1 2-1-2ZM323 255l-1 2 1-2ZM134 257l1 2-1-2Z"/><path fill="#C8C8CC" id="tspc" d="m221 273-1 1c-8.192 0 6.07-16 7-16v5l-6 10ZM229 263c1.673 0 6 8.485 6 10l3.5 1 .5-4.5c-1.272-2.543-7.709-11.5-10-11.5v5Z"/><path fill="#FF9BCD" id="MY" d="m322 258-1 2 1-2ZM135 261l1 1-1-1ZM136 263l1 1-1-1Z"/><path fill="#FFB3D8" id="IO" d="m227 286-1 1c-5.493 0-8.641-4.93-14.5-2l-10 9c-1.639.819-7.995.491-6.5-2.5 1.437-2.875 25-14.05 25-17.5l1-1 6-10v23ZM229 277c0 3.51 1 7.022 1 10 7.071 0 14.17-7.16 19 2.5 1.62 3.239 14.79 7.581 12 2-2.244-4.489-26-14.225-26-18.5 0-1.515-4.327-10-6-10v14Z"/><path fill="#FF9BCD" id="MY" d="m229 277-2 2v-15l2 1v12ZM320 264l-1 1 1-1ZM138 265l1 1-1-1ZM319 265l-1 1 1-1ZM318 266l-1 1 1-1ZM140 267l1 1-1-1Z"/><path fill="#FF9BCD" id="MY" fill-rule="evenodd" d="M176 269c0 4.238 6.072 0 0 0m0-2-3 4.5c3.116 6.233 14.077-4.5 3-4.5ZM278 269c0 4.529 5.456 0 0 0m-1-2-2 3.5c0 5.648 15.017 1.259 5.5-3.5H277Z"/><path fill="#FF9BCD" id="MY" d="m316 267-1 1 1-1ZM154 279c0-1.93 1.161 0 2 0l1-4c-3.415 0-8-.567-8-5l-7-2c0 1.132 4 4.382 4 7 3.44 0 5.253 4 8 4ZM314 268l-1 1 1-1Z"/><path fill="#FEB3D8" id="AMBv" d="M176 269c0 4.238 6.072 0 0 0ZM278 269c0 4.529 5.456 0 0 0Z"/><path fill="#FF9BCD" id="MY" d="m301 278 2 1c2.367 0 4.032-4 7-4 0-1.714 2-3.482 2-6l-5 1c0 4.834-3.603 5-8 5l2 3ZM319 271c-1.747 0-2 .253-2 2 1.747 0 2-.253 2-2ZM221 273l-1 1 1-1ZM311 275c0 4.617-6 5.801-6 10l12-12c-2.773 0-3.67 2-6 2Z"/><path fill="#C9CACA" id="sctd" d="m154 279 3 7c-4.293 0-5.742-.984-8-5.5l-4-4.5 1-1c3.44 0 5.253 4 8 4Z"/><path fill="#FCB3D7" id="LRNm" d="M190 280c0 6.206-6.893 19.304-15.5 15l-11.5-7-7-9 1-4 8 2h1l16-2c3.008 0 8 1.216 8 5ZM293 288l-3 3c-10.146 0-13.341 11.818-21-3.5-1.167-2.333-3-4.728-3-7.5 0-3.529 6.068-5 9-5 5.078 0 9.598 2 15 2h1l8-2 2 3-8 10Z"/><path fill="#C9CACA" id="sctd" d="m304 286-1 1c-2.003 0-3 .293-3-2l3-6c2.367 0 4.032-4 7-4h1c0 4.617-6 5.801-6 10l-1 1Z"/><path fill="#FF9BCD" id="MY" d="M165 277h1v-1l-1 1ZM290 277h1l-1-1v1Z"/><path fill="#FFC6E2" id="RPA" d="M226 295h4v-8c0-2.978-1-6.49-1-10l-2 2v7l-1 1v8Z"/><path fill="#C8C8CB" id="rust" d="M163 288v1l-4-1-2-2-3-7c0-1.93 1.161 0 2 0l7 9ZM297 288l-4 1v-1l8-10 2 1-3 6-3 3Z"/><path fill="#FF9BCD" id="MY" d="M297 288c3.596 0-7 6.343-7 7 2.857 0 13-4.229 13-8-2.003 0-3 .293-3-2l-3 3ZM305 285l-1 1 1-1ZM227 286l-1 1 1-1Z"/><path fill="#C7C9C9" id="py" d="M241 286c0 1.435-7.93 2.641-6 6.5 1.892 3.784 9.248 4.5 13 4.5 1.111 0 5 .455 5-1.5 0-2.745-9.845-9.5-12-9.5Z"/><path fill="#FF9BCD" id="MY" d="m304 286-1 1 1-1Z"/><path fill="#C7C9C9" id="py" d="M212 287c0 2.64-9.711 6.077-8 9.5.719 1.439 23.183.183 15.5-7.5l-2.5-2h-5Z"/><path fill="#CBC7CC" id="sctv" d="M169 296h1c7.771 0-7-5.058-7-7l-4-1c0 4.7 10 5.036 10 8Z"/><path fill="#FF9BCD" id="MY" d="M293 289c0 1.577-1.762 2-3 2l3-3v1Z"/><path fill="#CBC7CC" id="sctv" d="M289 295h1c0-.657 10.596-7 7-7l-4 1c0 1.577-1.762 2-3 2 0 3.031-12.103 5-3 5l2-1Z"/><path fill="#FF9BCD" id="MY" d="m289 295-2 1 2-1Z"/></svg>