<svg xmlns="http://www.w3.org/2000/svg" viewBox="0 0 456 320"><path fill="#FE79FE" id="ICe" d="M194 88c0 2.65 5 5.752 5 9-2.04 0-16.501 8.5-19.5 10-3.936 1.968-8.17-3.585-11-5-6.244-3.122-14.488-23.524-10.5-31.5l3-9.5 1-2 1-1v-1l1-1 1-1 1-1 1-1h1l1-1c0-2.108 6.009-3.254 7.5-4 9.589-4.794 18.887-3 29.5-3 0 5.66-15 10.301-15 19l-3.5-1c-8.386 4.193-22.977 25.011-9 32 6.663 3.331 15.381-7 15.5-7Z"/><path fill="#FCFB90" id="CUL4, 5" d="M232 57c-2.409 0-5.181 1-7 1l-1-1-1-1-1-1-1-1-1-1-1-1-2-3c0-7.585 22-7.634 22 0v2h-1l-1 1-1 1-1 1-1 1-1 1-1 1Z"/><path fill="#FE79FE" id="ICe" d="M262 87c0 3.894-4 5.807-4 10 .934 0 16.208 8.854 18.5 10 4.706 2.353 12.756-5.012 14.5-8.5 2.785-5.57 11.859-18.283 8-26l-4-12-3-4.5-2-2-1-1-3.5-3-12-5c-5.402-2.701-16.878 0-22.5 0 0 7.48 14 9.185 14 20l3.5-2c9.673 4.837 22.822 25.089 9 32-6.974 3.487-15.098-8-15.5-8Z"/><path fill="#FE79FF" id="ICd" d="M194 88c0 2.65 5 5.752 5 9l1.5-2 6-2c7.393-3.696 20.233-26.035 16.5-33.5l-7.5-9.5-3.5-3h-1l-4-2h-1c0 5.66-15 10.301-15 19l4 6.5c2.233 4.466-1 13.342-1 17.5Z"/><path fill="#FF64FF" id="MB" d="m207 45 4 2-4-2ZM249 45l-1 1 1-1Z"/><path fill="#FE79FF" id="ICd" d="M262 87c0 3.894-4 5.807-4 10-8.011 0-29.376-26.748-25-35.5 1.473-2.947 6-7.148 6-10.5 1.747 0 2-.253 2-2l4-2 2-1h1l1-1h2c0 7.48 14 9.185 14 20l-4 7.5c-1.942 3.885 1 10.888 1 14.5Z"/><path fill="#FF64FF" id="MB" d="m247 46-2 1 2-1ZM287 113l-1 1-3-1h-1c0-1.673-8.485-6-10-6h-1l-1-1-4-1-1-1h-1l-1-1h-1c0-1.577-1.762-2-3-2l-4-2-2-2h-1l-2-2h-1c0-1.712-2.571-3-4-3l-1-1c0-2.41-9.811-11-12-11-2.854 0-2.448 5-4 5l-1-1c0-2.343-.285-4-3-4l-1 1h-1l-1 1v1c-1.747 0-2 .253-2 2-1.238 0-3 .423-3 2l-1 1-1 1-1 1-1 1-1 1-1 1h-1l-1 1-1 1-1 1-4 2-1 1h-1l-1 1-1 1h-1l-1 1-3 1-1 1h-1l-1 1h-2l-1 1-2 1-2 1-1 1h-1l-2 1-1 1h-1l-1 1-2 1-2 1-4-2v-1l-1-1-1-2-1-1v-1l-2-2-1-2-1-1v-1l-2-2v-1l-2-2v-1l-2-2V69l6-8-3 9.5c-3.988 7.976 4.256 28.378 10.5 31.5 2.83 1.415 7.064 6.968 11 5 2.999-1.5 17.46-10 19.5-10l1.5-2 6-2c7.393-3.696 20.233-26.035 16.5-33.5l-7.5-9.5-3.5-3 3 1 1 1h1l2 3 1 1 1 1 1 1 1 1 1 1 1 1c0 .983 2.262 8 3.5 8l3.5-9 1-1 1-1 1-1 1-1 1-1 1-1h1c0 3.352-4.527 7.553-6 10.5-4.376 8.752 16.989 35.5 25 35.5.934 0 16.208 8.854 18.5 10 4.706 2.353 12.756-5.012 14.5-8.5 2.785-5.57 11.859-18.283 8-26l-4-12-3-4.5c2.154 0 9 11.17 9 13v2l1 2v14c-1.579 0-1 2.855-1 4v2l-1 1-1 1-3 5-1 1v1l-1 1-1 1v1l-1 1-1 1v1l-1 1-1 1v1l-1 1-1 1ZM241 48v1l4-2-4 1Z"/><path fill="#FCFB90" id="CUL4, 5" d="m215 48 1 1-1-1ZM240 49h1v-1l-1 1Z"/><path fill="#FF64FF" id="MB" d="M241 49c0 1.747-.253 2-2 2v-2h2Z"/><path fill="#F0F080" id="CB" d="m238 51-1 1 1-1Z"/><path fill="#FF64FF" id="MB" d="m169 52-1 1 1-1Z"/><path fill="#F0F080" id="CB" d="m219 52 1 1-1-1ZM237 52l-1 1 1-1Z"/><path fill="#FF64FF" id="MB" d="m167 53-1 1 1-1Z"/><path fill="#F0F080" id="CB" d="m236 53-1 1 1-1Z"/><path fill="#FF64FF" id="MB" d="m289 53 1 1-1-1ZM166 54l-1 1 1-1Z"/><path fill="#F0F080" id="CB" d="m221 54 1 1-1-1Z"/><path fill="#FF64FF" id="MB" d="m165 55-1 1 1-1Z"/><path fill="#F0F080" id="CB" d="m234 55-1 1 1-1Z"/><path fill="#FF64FF" id="MB" d="m164 56-1 1 1-1Z"/><path fill="#F0F080" id="CB" d="m223 56 1 1-1-1Z"/><path fill="#FF64FF" id="MB" d="m163 58-1 1 1-1ZM162 59l-1 2 1-2Z"/><path fill="#FDFB8F" id="SIM" d="M129 155c-2.939 0-6.407.687-8-2.5-3.815-7.63 2.544-34.088 6-41 .983-1.966 1.456-12.478-2.5-10.5-2.862 1.431-1.189 10.877-2.5 13.5-4.832 9.664-1.156 23.312-6 33-1.191 2.381-2.032 12.5-6 12.5l-4-5.5-5-14c-5.963-11.927-4-34.094-4-48.5 2.236 0 3.287-5.074 4-6.5 2.572-5.145 9.583-11.041 14.5-13.5 5.264-2.632 26.049-13.975 32-11 3.425 1.712 4.022 8 7.5 8v2c-1.801 0-1 13.842-1 16 0 9.736-8.872 18.245-13 26.5-3.736 7.471-12 33.276-12 41.5ZM327 155c12.994 0 11.2-16.101 7-24.5l-2-13c-.455-.909-6.869-19.684-.5-16.5 2.929 1.465 1.276 8.052 2.5 10.5 4.975 9.949 1.022 24.044 6 34 1.521 3.042 1.075 14.5 7 14.5 0-3.625 2.432-3.363 4-6.5l6-19c4.887-9.774 2-31.06 2-42.5l-3-4.5c-6.563-13.127-19.659-16.58-31.5-22.5-3.373-1.687-10.392-6.304-15-4-3.628 1.814-4.333 8-8.5 8v2l1 2v14c1.951 0 .477 2.454 1 3.5l5 12c4.439 8.878 9.637 17.275 14 26 2.844 5.688.163 14.326 3 20 1.07 2.14 2 3.887 2 6.5Z"/><path fill="#FE7AFE" id="ICc" d="m191 64-3.5-1c-8.386 4.193-22.977 25.011-9 32 6.663 3.331 15.381-7 15.5-7 0-4.158 3.233-13.034 1-17.5l-4-6.5ZM265 65l3.5-2c9.673 4.837 22.822 25.089 9 32-6.974 3.487-15.098-8-15.5-8 0-3.612-2.942-10.615-1-14.5l4-7.5Z"/><path fill="#F0F080" id="CB" d="M154 87h1V71c-1.801 0-1 13.842-1 16ZM301 71l1 2-1-2ZM224 80l-1 1 1-1Z"/><path fill="#FFFC8E" id="CENT3" d="M285 153h1c5.2 0 14.536 10.427 19 1.5v-5l2-4.5c-4.869 0-20-25.946-20-31h-1c0 2.216-3 .348-3-1h-1c-1.515 0-10-4.327-10-6h-1l-1-1-4-1-1-1h-1l-1-1h-1l-3-2-4-2-2-2h-1l-2-2h-1l-4-3-1-1-12-11c-2.854 0-2.448 5-4 5l-1-1c0-2.343-.285-4-3-4l-1 1h-1l-1 1v1l-2 2c0 1.577-1.762 2-3 2l-1 1-1 1-1 1-1 1-1 1-1 1h-1l-1 1-1 1-1 1-4 2-1 1h-1l-1 1-1 1h-1l-1 1-3 1-1 1h-1l-1 1h-2l-1 1-2 1-2 1-1 1h-1l-2 1-1 1h-1l-1 1-2 1-2 1c0 2.373-2.284 0-3 0 0 6.065-14.422 31-20 31 0 2.029 1.191 1.881 2 3.5l1 7c3.668 7.336 13.889-2.5 18-2.5h1l1-1h1l1-1h1l1-1 1-1h2l1-1h1l2-1h2c0-3.286-6.851-9.799-5-13.5 7.156-14.312 24.587-17.044 37.5-23.5 3.137-1.569 10.782-5.109 15-3 6.976 3.488 15.07 4.535 22 8l5 4c5.499 2.75 13.469 7.437 16.5 13.5 2.484 4.968-4 10.218-4 14.5h1l2 1h2l1 1h1l1 1h1l1 1 2 1 1 1Z"/><path fill="#F0F080" id="CB" d="M232 80c2.189 0 12 8.59 12 11l-12-11ZM222 81l-1 1 1-1ZM221 83c-1.747 0-2 .253-2 2l2-2ZM227 84l1 1-1-1ZM219 85c-1.238 0-3 .423-3 2 1.238 0 3-.423 3-2Z"/><path fill="#FCFB90" id="CUL4, 5" d="m149 145 1-12-.5-4-1.5 11.5c-3.121 6.242-10.755 14.5-19 14.5 0-8.224 8.264-34.029 12-41.5 4.128-8.255 13-16.764 13-26.5h1v5l2 2v1l2 2v1l2 2v1l1 1 1 2 2 2v1l1 1 1 2 1 1v1l1 2c0 6.065-14.422 31-20 31Z"/><path fill="#F0F080" id="CB" d="m216 87-1 1 1-1ZM302 87c-1.579 0-1 2.855-1 4 1.579 0 1-2.855 1-4Z"/><path fill="#FCFB90" id="CUL4, 5" d="m307 145-.5-16 2.5 13.5c2.609 5.218 12.324 12.5 18 12.5 0-2.613-.93-4.36-2-6.5-2.837-5.674-.156-14.312-3-20-4.363-8.725-9.561-17.122-14-26l-5-12c-.523-1.046.951-3.5-1-3.5 0 1.145.579 4-1 4v2l-1 1-1 1-3 5-1 1v1l-1 1-1 1v1l-1 1-1 1v1l-1 1-1 1v1l-1 1-1 1v1c0 5.054 15.131 31 20 31Z"/><path fill="#F0F080" id="CB" d="m215 88-1 1 1-1ZM214 89l-1 1 1-1ZM213 90l-1 1 1-1ZM212 91l-1 1 1-1Z"/><path fill="#FCFC90" id="ANcr1" d="m96 162-5 1-6.5-4c-16.235-8.118-21.814-24.873-13.5-41.5 2.37-4.74 8-8.999 10-13C83.68 99.14 90.888 92 97 92c0 14.406-1.963 36.573 4 48.5l5 14 4 5.5c-3.51 0-8.997 2-14 2Z"/><path fill="#F0F080" id="CB" d="m155 92 2 2-2-2ZM211 92l-1 1 1-1ZM245 92c1.429 0 4 1.288 4 3l-4-3Z"/><path fill="#FCFC90" id="ANcr1" d="M360 162c1.564 0 3.876 1 6 1 0-2.825 5.863-3.181 7.5-4 4.904-2.452 8.813-5.126 11.5-10.5 6.126-12.253 3.792-23.415-2-35-1.354-2.707-4.995-4.99-6-7-3.139-6.278-10.626-14.5-18-14.5 0 11.44 2.887 32.726-2 42.5l-6 19c-1.568 3.137-4 2.875-4 6.5 0 2.735 10.639 2 13 2Z"/><path fill="#F0F080" id="CB" d="m209 93-1 1 1-1ZM301 93l-1 1 1-1ZM208 94l-1 1 1-1ZM300 94l-1 1 1-1ZM157 95l2 2-2-2ZM207 95l-1 1 1-1ZM250 95l2 2-2-2ZM253 97l2 2-2-2ZM159 98l2 2-2-2ZM202 98l-1 1 1-1ZM200 99l-1 1 1-1ZM199 100l-1 1 1-1ZM296 100l-1 1 1-1Z"/><path fill="#CBC9CC" id="arb" d="m126 193-3 2v-7c0-4.433-7.124-8.188-11.5-6l-16 5c-7.205 3.603-13.766 8.383-21 12-3.784 1.892-7.84 8.178-9.5 11.5-.114.228-1.717 8.567-3 6-5.681-11.363 21.57-31.535 29.5-35.5 2.303-1.151 15.5-1.841 15.5-5 4.964 0-.516-10-4-10l-7-4c5.003 0 10.49-2 14-2 3.968 0 4.809-10.119 6-12.5 4.844-9.688 1.168-23.336 6-33 1.311-2.623-.362-12.069 2.5-13.5 3.956-1.978 3.483 8.534 2.5 10.5-3.456 6.912-9.815 33.37-6 41 1.593 3.187 5.061 2.5 8 2.5 8.245 0 15.879-8.258 19-14.5l1.5-11.5.5 4-1 12c0 2.029 1.191 1.881 2 3.5l1 7c3.668 7.336 13.889-2.5 18-2.5 0 1.577-1.729 2 1 2l-7.5 4c-4.046 2.023-13.5 9.206-13.5 14h-1c0-3.281-3.963-.574-5 1.5-.567 1.134-.546 6.5-2 6.5l-2 3-1 1h-1c0-3.92 5.061-9.378 3-13.5-.526-1.052-8.626.251-9 1-1.254 2.508-2 13.667-2 16.5-1.473 0-1 1.952-1 3h-2l-1 1Z"/><path fill="#F0F080" id="CB" d="m161 101 1 1-1-1ZM197 101l-1 1 1-1ZM259 101c1.238 0 3 .423 3 2l-3-2Z"/><path fill="#CBC9CC" id="arb" d="m336 199 2 1c0-2.342-5-6.617-5-12 0-4.557 8.116-8.192 12.5-6l15 5 20 11c4.277 2.138 8.665 8.829 10.5 12.5l2.5 6.5 1.5-1.5c4.986-9.973-23.127-30.813-30.5-34.5-3.28-1.64-15.5-1.413-15.5-6-4.452 0 .526-8 3-8l1-1 7-4c-2.361 0-13 .735-13-2-5.925 0-5.479-11.458-7-14.5-4.978-9.956-1.025-24.051-6-34-1.224-2.448.429-9.035-2.5-10.5-6.369-3.184.045 15.591.5 16.5l2 13c4.2 8.399 5.994 24.5-7 24.5-5.676 0-15.391-7.282-18-12.5l-2.5-13.5.5 16-2 4.5v5c-4.464 8.927-13.8-1.5-19-1.5 0 3.31.936 1-2 1v1c5.187 0 13.739 7.239 17.5 11l5.5 7c0-7.478 7 4.943 7 8l3 4h2c0-3.884-6.276-8.949-4-13.5.981-1.962 9.285.569 10 2 1.618 3.236 1 12.065 1 14.5 1.579 0 1 2.855 1 4 4.304 0 6.651 7 9 7Z"/><path fill="#F0F080" id="CB" d="m295 102-1 1 1-1ZM193 103l-1 1 1-1ZM263 103l1 1-1-1ZM294 103l-1 1 1-1ZM163 104l2 2-2-2ZM191 104l-1 1 1-1ZM265 104l1 1-1-1ZM188 105l-1 1 1-1ZM293 105l-1 1 1-1ZM187 106l-2 1 2-1ZM270 106l1 1-1-1ZM292 106l-1 1 1-1ZM165 107l1 1-1-1ZM185 107l-2 1 2-1Z"/><path fill="#FDFA91" id="CENT2" fill-rule="evenodd" d="M252 133c0 1.835-14.47 2.985-16.5 4-.852.426-6.739-.978-5.5 1.5l9 .5c3.067 0 4.029-.765 6.5-2h15c4.242-2.121 3.084-4-1.5-4h-7m-58 0-1 2.5 5.5 1.5c6.762 0 12.575 2 18.5 2l9-.5c1.065-2.13-3.996-1.5-5-1.5l-5.5-2h-8c-4.256-2.128-8.319-2-13.5-2m5 23c5.692 0 28.262 11.619 37.5 7 2.225-1.113 19.771-7 21.5-7l2-1 1-1 1-1h1c0-2.226 1.774-4 4-4l1-1h1l2-1h1c0-4.282 6.484-9.532 4-14.5-3.031-6.063-11.001-10.75-16.5-13.5l-5-4c-6.93-3.465-15.024-4.512-22-8-4.218-2.109-11.863 1.431-15 3-12.913 6.456-30.344 9.188-37.5 23.5-1.851 3.701 5 10.214 5 13.5h1l1 1h1l1 1h1l4 4 1 1 4 2Z"/><path fill="#F0F080" id="CB" d="M272 107c1.515 0 10 4.327 10 6-1.515 0-10-4.327-10-6ZM183 108l-1 1 1-1ZM291 108l-1 1 1-1ZM181 109l-2 1 2-1ZM290 109l-1 1 1-1ZM167 110l1 1-1-1ZM179 110l-1 1 1-1ZM177 111l-1 1 1-1ZM289 111l-1 1 1-1ZM169 114c.716 0 3 2.373 3 0l-4-2 1 2ZM176 112l-2 1 2-1ZM288 112l-1 1 1-1ZM174 113l-2 1 2-1ZM283 113l3 1c0 2.216-3 .348-3-1ZM286 114h1v-1l-1 1Z"/><path fill="#CBC9CC" id="arb" d="m194 133-1 2.5 5.5 1.5c6.762 0 12.575 2 18.5 2l9-.5c1.065-2.13-3.996-1.5-5-1.5l-5.5-2h-8c-4.256-2.128-8.319-2-13.5-2ZM252 133c0 1.835-14.47 2.985-16.5 4-.852.426-6.739-.978-5.5 1.5l9 .5c3.067 0 4.029-.765 6.5-2h15c4.242-2.121 3.084-4-1.5-4h-7ZM183 147l-2 1 2-1Z"/><path fill="#CBC7CC" id="sctv" d="m172 154-1 1c-2.729 0-1-.423-1-2h1l1-1h1l1-1h1l1-1 1-1h2l1-1h1l2-1h3l1 1h1l1 1h1l1 2h-2l-1-1c0-1.486-3-1.486-3 0h-2l-1 1h-2l-4 2-4 1Z"/><path fill="#CBC9CC" id="arb" d="m186 147 1 1-1-1ZM271 147l-2 1 2-1Z"/><path fill="#CBC7CC" id="sctv" d="M286 153c0 3.31.936 1-2 1l-8-3h-1l-1-1h-3c0-1.399-2-1.399-2 0h-2v-1l1-1h1l2-1h2l2 1h2l1 1h1l1 1h1l1 1 2 1 1 1h1Z"/><path fill="#CBC9CC" id="arb" d="m273 147 2 1-2-1ZM180 148l-1 1 1-1ZM188 148l1 1-1-1ZM268 148l-1 1 1-1ZM277 148l1 1-1-1ZM177 149l-1 1 1-1Z"/><path fill="#F0F080" id="CB" d="M187 150h1c0-1.486-3-1.486-3 0h2Z"/><path fill="#CBC9CC" id="arb" d="M191 151c0 1.577 1.762 2 3 2l-4-4 1 2ZM266 151l-3 2c0-2.226 1.774-4 4-4v1l-1 1Z"/><path fill="#F0F080" id="CB" d="M269 150h2c0-1.399-2-1.399-2 0Z"/><path fill="#CBC9CC" id="arb" d="m279 149 1 1-1-1ZM176 150l-1 1 1-1Z"/><path fill="#F0F080" id="CB" d="M182 151h1v-1l-1 1Z"/><path fill="#FF9B88" id="P" d="m185 150-2 1v-1h2Z"/><path fill="#FFAD6D" id="PB" d="M174 175h9l2-1v-1l1-1 1-1 1-1 1-1v-1l1-1 4-4c2.765 0 0-8.94 0-10-1.238 0-3-.423-3-2h-2l-2-1h-2l-2 1h-1l-1 2c0 4.373-14 5.824-14 11 4.157 0 18.858-8.321 19.5-8 7.716 3.858-5.761 7.881-8 9-2.506 1.253-5.672 6-8.5 6l-1 1v2l1 1h4Z"/><path fill="#FF9B88" id="P" d="m188 150 1 1-2-1h1Z"/><path fill="#CBC7CC" id="sctv" d="M266 151h1v-1l-1 1Z"/><path fill="#FF9B88" id="P" d="m269 150-2 1v-1h2Z"/><path fill="#FFAD6D" id="PB" d="M283 175h4v-4h-1l-1-1c0-1.109-15.515-7.529-17-10.5-1.209-2.418 2.531-4.484 4.5-3.5l5 5c2.622 1.311 10.742 4 13.5 4 0-4.835-16-7.715-16-12v-2h-1c-1.048 0-3 .473-3-1h-2l-2 1h-1l-3 2-1 1-1 1c0 2.707 1 5.903 1 8l4 4 1 1 1 1 2 3 1 2 2 1h10Z"/><path fill="#FF9B88" id="P" d="M274 150v1c-1.048 0-3 .473-3-1h3Z"/><path fill="#F0F080" id="CB" d="M274 151h1l-1-1v1Z"/><path fill="#CBC9CC" id="arb" d="m281 150 1 1-1-1ZM174 151l-1 1 1-1Z"/><path fill="#F0F080" id="CB" d="M176 153h3l1-2-4 2Z"/><path fill="#FF9B88" id="P" d="M179 153h2l1-2h-2l-1 2ZM275 153h3l-2-2h-1v2Z"/><path fill="#F0F080" id="CB" d="M284 154v1c-2.447 0-3.28-2-6-2l-2-2 8 3Z"/><path fill="#CBC9CC" id="arb" d="m172 152-1 1 1-1ZM284 152l1 1-1-1Z"/><path fill="#F0F080" id="CB" d="M172 154v1l4-2-4 1Z"/><path fill="#CBC9C8" id="uf" d="M149 174c0 2.409-1 5.181-1 7 4.592 0 4.935-8 8-8l1-1v-1c0-1.797 2.203-4 4-4 0-2.109 2.535-2 4-2l1-1h1c0-5.176 14-6.627 14-11h-5l-4 2h-1l-7.5 4c-4.046 2.023-13.5 9.206-13.5 14l-1 1Z"/><path fill="#FF9B88" id="P" d="M195 183h2l-4-8v-2c0-5.276 4.165-12 10-12l-6-5-2-2-1-1c0 1.06 2.765 10 0 10 0 5.555-4 9.238-4 15 0 2.047 5 2.168 5 5Z"/><path fill="#F0F080" id="CB" d="M261 154h1v-1l-1 1Z"/><path fill="#FF9B88" id="P" d="m263 153-1 1v-1h1Z"/><path fill="#CBC9C8" id="uf" d="m307 173 2 8c-5.608 0-4.792-8-9-8v-1c0-3.988-5.521-7-9-7 0-4.835-16-7.715-16-12h3c2.72 0 3.553 2 6 2 5.187 0 13.739 7.239 17.5 11l5.5 7Z"/><path fill="#CBC9CC" id="arb" d="M171 155h1v-1l-1 1Z"/><path fill="#F0F080" id="CB" d="M197 156h2l-4-2 2 2ZM260 155h1v-1l-1 1Z"/><path fill="#FF9B88" id="P" d="m262 154-1 1v-1h1Z"/><path fill="#F0F080" id="CB" d="M258 156h1l1-1-2 1Z"/><path fill="#FF9B88" id="P" d="m262 178-1 4c1.014 0 7-3.903 7-5-2.096 0-6-11.957-6-14 0-2.097-1-5.293-1-8h-1l-1 1c0 3.354-6 2.568-6 5 6.135 0 10 5.021 10 11v5l-1 1Z"/><path fill="#CBC9CB" id="scp" d="M160 175h3l2-1 2-1 1-1h1l1-1c2.828 0 5.994-4.747 8.5-6 2.239-1.119 15.716-5.142 8-9-.642-.321-15.343 8-19.5 8l-1 1h-1l-4 2c0 2.226-1.774 4-4 4v2c0 2.293.997 2 3 2Z"/><path fill="#AAA9A7" id="V4" d="M203 161c5.335 0 13.854 2.677 18.5 5l7 8 5-7c5.171-2.586 13.53-6 19.5-6 0-2.432 6-1.646 6-5h-1c-1.729 0-19.275 5.887-21.5 7-9.238 4.619-31.808-7-37.5-7h-2l6 5Z"/><path fill="#CBC9CB" id="scp" d="M294 175h2c1.465 0 4 .109 4-2v-1l-9-7c-2.758 0-10.878-2.689-13.5-4l-5-5c-1.969-.984-5.709 1.082-4.5 3.5 1.485 2.971 17 9.391 17 10.5l1 1h1l1 1 6 3Z"/><path fill="#FFBA84" id="PCG" fill-rule="evenodd" d="M238 194c0 1.585-5.545 2.41-4 5.5 2.218 4.435 17.259-5.5 4-5.5m-25 0c0 9.911 16.063 5.782 4.5 0H213m21-15c0 2.348-4.602 4.296-3 7.5 7.05 14.101 27.092-7.5 3-7.5m-20 0c0 2.348-4.602 4.296-3 7.5 7.05 14.101 27.092-7.5 3-7.5m30 24h1l7-9c0-4.754 2.287-11 8-11l1-1 1-4c-5.897 0-3.501-6 1-6 0-5.979-3.865-11-10-11-5.97 0-14.329 3.414-19.5 6l-5 7-7-8c-4.646-2.323-13.165-5-18.5-5-5.835 0-10 6.724-10 12l2.5-2c1.251 0 2.508 7.246 1 8-1.929.965-1.915-4-3.5-4l4 8c5.272 0 7 5.574 7 10l7 10h16c0-2.082 2-4.219 2-1v1c2.723 0 5.778 1 9 1 0-1.684 4.679-1 6-1Z"/><path fill="#FFFC8D" id="PFL" d="M123 188c-6.626 0-40.888 19.276-44 25.5-3.56 7.119 8 19.667 8 23.5 0 7.901-13.478 25.011-23.5 20-14.18-7.09-20.5-23.007-20.5-38.5v-7c1.358-2.716.694-6.388 2-9l9-13c3.794-7.589 18.46-8.919 25-22 1.22-2.44 12-2.598 12-4.5l5-1 7 4c0 3.115 4 6.196 4 10 0 3.159-13.197 3.849-15.5 5-7.93 3.965-35.181 24.137-29.5 35.5 1.283 2.567 2.886-5.772 3-6 1.66-3.322 5.716-9.608 9.5-11.5 7.234-3.617 13.795-8.397 21-12l16-5c4.376-2.188 11.5 1.567 11.5 6ZM333 188c8.441 0 40.418 18.335 44 25.5 4.516 9.032-8 18.466-8 24.5 0 6.326 15.255 23.123 23.5 19 15.552-7.776 20.5-23.17 20.5-40v-8.5c-3.705-7.41-6.123-18.812-15.5-23.5-7.871-3.936-14.53-7.561-18.5-15.5-1.344-2.688-6.631-4.065-9.5-5.5-1.046-.523-3.5.951-3.5-1-2.124 0-4.436-1-6-1l-7 4-1 1c0 1.07-2.384 8-3 8 0 4.587 12.22 4.36 15.5 6 7.373 3.687 35.486 24.527 30.5 34.5l-1.5 1.5-2.5-6.5c-1.835-3.671-6.223-10.362-10.5-12.5l-20-11-15-5c-4.384-2.192-12.5 1.443-12.5 6Z"/><path fill="#FDC395" id="LC" d="M189 178h1c0-5.762 4-9.445 4-15l-4 4-1 1v1l-1 1-1 1-1 1-1 1v1l2 3h1l1 1ZM268 177h2l1-1v-2l-1-2c-1.577 0-2-1.762-2-3l-1-1-1-1-4-4c0 2.043 3.904 14 6 14Z"/><path fill="#F0F080" id="CB" d="M165 165h1v-1l-1 1Z"/><path fill="#FFAD6D" id="PB" d="m167 164-1 1v-1h1Z"/><path fill="#F0F080" id="CB" d="M165 165c-1.465 0-4-.109-4 2l4-2ZM291 165c3.479 0 9 3.012 9 7l-9-7Z"/><path fill="#FFF990" id="COPY" d="M103 166c3.484 0 8.964 10 4 10 0-3.804-4-6.885-4-10ZM353 166l-1 1 1-1Z"/><path fill="#F0F080" id="CB" d="M161 167c-1.797 0-4 2.203-4 4 2.226 0 4-1.774 4-4Z"/><path fill="#FF79FE" id="MEV" d="m190 167-1 1 1-1ZM266 167l1 1-1-1Z"/><path fill="#FFF990" id="COPY" d="M352 167c-2.474 0-7.452 8-3 8 .616 0 3-6.93 3-8Z"/><path fill="#FF79FE" id="MEV" d="m189 169-1 1 1-1ZM268 169l2 3c-1.577 0-2-1.762-2-3ZM188 170l-1 1 1-1Z"/><path fill="#FF9B88" id="P" d="m285 170 1 1-1-1Z"/><path fill="#C9C9C8" id="icp" d="M130 189c1.473 0 1 1.952 1 3 0 12.755 14-1.974 14-7l1-1 1-1 1-2c0-1.819 1-4.591 1-7v-1c0-3.281-3.963-.574-5 1.5-.567 1.134-.546 6.5-2 6.5 0 1.145.579 4-1 4 0 4.332-3 8.055-3 2-1.399 0-1.399-2 0-2 0-3.92 5.061-9.378 3-13.5-.526-1.052-8.626.251-9 1-1.254 2.508-2 13.667-2 16.5Z"/><path fill="#FF9B88" id="P" d="m170 171-1 1 1-1Z"/><path fill="#FF79FE" id="MEV" d="m187 171-1 1 1-1Z"/><path fill="#FFBA86" id="B" d="m193 173 2.5-2c1.251 0 2.508 7.246 1 8-1.929.965-1.915-4-3.5-4v-2ZM263 177l-1 1c-5.897 0-3.501-6 1-6v5Z"/><path fill="#FF9B88" id="P" d="M287 174h2l-1-2-1-1v3Z"/><path fill="#C9C9C8" id="icp" d="m326 188-1 5-2.5 4c-4.246 2.123-11.5-9.845-11.5-13l-1-1-1-2-2-8c0-7.478 7 4.943 7 8l1 3c0 5.322 4 9.165 4 2v-1c0-3.884-6.276-8.949-4-13.5.981-1.962 9.285.569 10 2 1.618 3.236 1 12.065 1 14.5Z"/><path fill="#F0F080" id="CB" d="M156 173h1v-1l-1 1Z"/><path fill="#FF9BCD" id="MY" d="m168 172-1 1 1-1Z"/><path fill="#FF9B88" id="P" d="M167 174h2v-2h-1l-1 1v1Z"/><path fill="#FF79FE" id="MEV" d="m186 172-1 1 1-1Z"/><path fill="#FF9BCD" id="MY" d="m289 174 5 1-6-3 1 2Z"/><path fill="#F0F080" id="CB" d="m150 173-1 1v-1h1Z"/><path fill="#FF9BCD" id="MY" d="M163 211c-3.13 0-11.747-6.006-16 2.5-.88 1.76-2.592 14.5-4 14.5l1-17 2-4.5c.936-1.873-2.112-6.694-4.5-5.5-2.26 1.13-3.612 5-6.5 5 0-3.145-3-4.833-3-7l-2-7h1c0 12.755 14-1.974 14-7l1-1 1-1 1-2c4.592 0 4.935-8 8-8h1c0 2.293.997 2 3 2l-4 3.5c-2.106 4.211 5.817 4.5 8 4.5 0 2.864-20.297 16.602-11.5 21 1.846.923 4.245 1.122 6 2 2.159 1.079 3.868 1 6.5 1l-2 4ZM165 174h2v-1l-2 1ZM313 211v15c-1.056 0-3.239-10.978-4-12.5-3.372-6.744-10.016-3.5-15-3.5l-3-3c7.163 0 17.643-2.215 13-11.5l-5-5-4.5-5.5-9.5-8h2l5 5 1 1c3.072 0 9.547-.406 7-5.5l-4-2.5c1.465 0 4 .109 4-2 4.208 0 3.392 8 9 8l1 2 1 1c0 3.155 7.254 15.123 11.5 13l2.5-4v6l-3 2.5 1 7.5-2.5-4c-4.785-2.392-9.5-6.871-9.5 2.5l2 3.5ZM165 174l-2 1 2-1Z"/><path fill="#FDB3D6" id="SUV" d="m165 182-1 1c-2.183 0-10.106-.289-8-4.5l4-3.5h3l2-1h4l1 1v2c-1.712 0-3 2.571-3 4l-2 1Z"/><path fill="#FF9B88" id="P" d="m183 175 4 2-2-3-2 1ZM273 175l-2 1v-2l2 1Z"/><path fill="#FDB3D6" id="SUV" d="m292 182 1 1c3.072 0 9.547-.406 7-5.5l-4-2.5h-2l-5-1h-2v3l5 5Z"/><path fill="#FF9B88" id="P" d="M170 177h1c1.238 0 3-.423 3-2h-4v2Z"/><path fill="#FFB0D7" id="MV" fill-rule="evenodd" d="m188 181-1 3.5c2.222 4.445 9.181-3.5 1-3.5m-23 26h8c0-3.041 9.205.647 10.5 0l15.5-6 2-2v-2c-8.223 0-6-9.427-6-14 0-2.832-5-2.953-5-5h-1l-1-1h-1l-4-2h-9c0 1.577-1.762 2-3 2l-4 4-2 1-1 1c0 2.864-20.297 16.602-11.5 21 1.846.923 4.245 1.122 6 2 2.159 1.079 3.868 1 6.5 1ZM265 181c0 10.239 7.754 0 0 0m18 26h8c7.163 0 17.643-2.215 13-11.5l-5-5-4.5-5.5-9.5-8-2-2h-10l-2 1-1 1h-2c0 1.097-5.986 5-7 5v1l2 2.5c1.861 3.722-3.919 11.5-8 11.5v2c4.567 0 13.439 8 21 8h1c0-1.587 6-1.587 6 0Z"/><path fill="#FF9B88" id="P" d="M285 177h2v-2h-4l2 2ZM271 176l-1 1 1-1Z"/><path fill="#FF9BCD" id="MY" d="m171 177-4 4c0-1.429 1.288-4 3-4h1Z"/><path fill="#FF9B88" id="P" d="m188 177 1 1-1-1Z"/><path fill="#FFBA84" id="PCG" d="m263 177-1 1 1-1Z"/><path fill="#FFB984" id="PDTg" d="M214 179c0 2.348-4.602 4.296-3 7.5 7.05 14.101 27.092-7.5 3-7.5ZM234 179c0 2.348-4.602 4.296-3 7.5 7.05 14.101 27.092-7.5 3-7.5Z"/><path fill="#F0F080" id="CB" d="m140 184 1 1c1.579 0 1-2.855 1-4l-2 3Z"/><path fill="#FF9BCD" id="MY" d="m167 181-2 1 2-1Z"/><path fill="#FEC394" id="SLC" d="m188 181-1 3.5c2.222 4.445 9.181-3.5 1-3.5ZM265 181c0 10.239 7.754 0 0 0Z"/><path fill="#F0F080" id="CB" d="m315 184 2 1-3-4 1 3Z"/><path fill="#FF9B88" id="P" d="m165 182-1 1 1-1ZM260 183h1v-1l-1 1ZM292 182l1 1-1-1Z"/><path fill="#F0F080" id="CB" d="m147 183-1 1 1-1Z"/><path fill="#FEC295" id="SLD" d="M204 193c0 1.429-1.288 4-3 4-8.223 0-6-9.427-6-14h2c5.272 0 7 5.574 7 10ZM252 194l3 3c4.081 0 9.861-7.778 8-11.5l-2-2.5h-1c-5.713 0-8 6.246-8 11Z"/><path fill="#F0F080" id="CB" d="m310 183 1 1-1-1Z"/><path fill="#FF9BCD" id="MY" d="M141 185c0 4.332-3 8.055-3 2l1-2 1-1 1 1Z"/><path fill="#F0F080" id="CB" d="m146 184-1 1 1-1Z"/><path fill="#FF9BCD" id="MY" d="m318 185 1 1c0 7.165-4 3.322-4-2l2 1h1Z"/><path fill="#F0F080" id="CB" d="m139 185-1 2c-1.399 0-1.399-2 0-2h1ZM319 185v1l-1-1h1Z"/><path fill="#FEF991" id="FL" d="M103 233c0 2.275-1.102 1.602-2.5 3-6.702 6.702-8.964 1-13.5 1 0-3.833-11.56-16.381-8-23.5 3.112-6.224 37.374-25.5 44-25.5v7c-1.712 0-3 2.571-3 4l-5 5-1 1c-1.073 0-12.165 9.831-13 11.5-1.058 2.116 2 2.898 2 4.5l1 1v8c-1.473 0-1 1.952-1 3Z"/><path fill="#F0F080" id="CB" d="m327 192-2 1 1-5c1.579 0 1 2.855 1 4Z"/><path fill="#FEF991" id="FL" d="M353 233c0 7.475 12.602 5 16 5 0-6.034 12.516-15.468 8-24.5-3.582-7.165-35.559-25.5-44-25.5 0 5.383 5 9.658 5 12l4 4 2.5 3c2.499 1.25 17.557 13 8.5 13v3l-1 1v5c1.579 0 1 2.855 1 4Z"/><path fill="#F0F080" id="CB" d="M130 192h1c0-1.048.473-3-1-3-1.473 0-1 1.952-1 3h1ZM127 192l-1 1 1-1Z"/><path fill="#FEA5D1" id="DCO" d="m114 219 1 2c3.265 0 9.367-22 17-22l-2-7h-3l-1 1-3 2c0 1.429-1.288 4-3 4 0 3.37-3.563 6.626-5 9.5-.574 1.147 1.064 4.5-1 4.5v6ZM336 199l5 8.5 1 13.5c-4.154 0-10.19-22-17-22v-6l2-1c4.304 0 6.651 7 9 7Z"/><path fill="#FF9B88" id="P" d="m207 201 4 2-7-10c0 1.429-1.288 4-3 4v2h2l2 1 2 1Z"/><path fill="#FFB986" id="SG" d="M213 194c0 9.911 16.063 5.782 4.5 0H213ZM238 194c0 1.585-5.545 2.41-4 5.5 2.218 4.435 17.259-5.5 4-5.5Z"/><path fill="#FF9B88" id="P" d="M245 203h2c1.947 0 2.636-3 5-3l2-1h1v-2l-3-3-7 9Z"/><path fill="#CBC9CC" id="arb" d="M123 195c-1.712 0-3 2.571-3 4 1.712 0 3-2.571 3-4Z"/><path fill="#A9AAA7" id="V4r" d="M112 209c2.641 0 2 1.823 2 4 2.064 0 .426-3.353 1-4.5 1.437-2.874 5-6.13 5-9.5l-5 5-1 1-2 4Z"/><path fill="#FEA4D2" id="VCO" d="M118 254v1l3.5 6c7.918 3.959 8.5-13.256 8.5-17l1-27.5c1.07-2.14 2-3.887 2-6.5l2-4c0-3.145-3-4.833-3-7-7.633 0-13.735 22-17 22l-2 2-1 1-3 8v3l1 1c0 4.11 6 7.311 6 12l1 1v3l1 2Z"/><path fill="#FF9BCD" id="MY" d="m203 200-4 1 2-2h2v1Z"/><path fill="#CCCCC7" id="VIIn" d="M203 200h2l-2-1v1ZM252 200h2v-1l-2 1Z"/><path fill="#FF9BCD" id="MY" d="m269 217 4 5-3-10.5c.849-1.698 6-3.824 6-4.5-7.561 0-16.433-8-21-8h-1v1c1.238 0 3 .423 3 2 4.123 0 11.459 9.418 13 12.5l-1 2.5Z"/><path fill="#FEA4D2" id="VCO" d="M339 250v3c-1.488 0-2.11 6.805-4.5 8-8.25 4.125-7.5-12.815-7.5-17v-13l-1-1c0-6.406-2-12.21-2-18l-1-1v-2l-1-7.5 3-2.5c6.81 0 12.846 22 17 22l2 2c0 3.391 3 5.353 3 9v4l-1 1c-1.378 0-6 10.035-6 12l-1 1Z"/><path fill="#A9AAA7" id="V4r" d="m342 221 2 2c0-1.28-2.872-14 0-14l-2-5-4-4-2-1 5 8.5 1 13.5Z"/><path fill="#C9CCC7" id="gVIIn" d="m202 208 2 1c1.45 0 7-3.126 7-5-1.429 0-4-1.288-4-3l-2-1h-2l-4 1v1c0 2.915 3 4.651 3 6Z"/><path fill="#FF9B88" id="P" d="m229 202-2 1c0-2.082 2-4.219 2-1Z"/><path fill="#C9CCC7" id="gVIIn" d="m254 208-2 1c-1.72 0-7-3.753-7-5l2-1c1.947 0 2.636-3 5-3h2c1.238 0 3 .423 3 2 0 3.067-3 4.726-3 6Z"/><path fill="#C9CACB" id="vVIIIn" d="m132 243-2 1 1-27.5c1.07-2.14 2-3.887 2-6.5 2.109 0 2-2.535 2-4 2.888 0 4.24-3.87 6.5-5 2.388-1.194 5.436 3.627 4.5 5.5l-2 4.5c-6.4 0-8.762 18.024-11 22.5-.783 1.566 1.35 9.5-1 9.5Z"/><path fill="#FF9BCD" id="MY" d="M173 207c6.8 0 13 .16 13 8 .068 0 9.376-13 13-13v-1l-15.5 6c-1.295.647-10.5-3.041-10.5 0ZM211 204h1v-1h-1l-4-2c0 1.712 2.571 3 4 3Z"/><path fill="#C9CACB" id="vVIIIn" d="M325 244h2v-13l-1-1c0-6.406-2-12.21-2-18l-1-1v-2l-2.5-4c-4.785-2.392-9.5-6.871-9.5 2.5l2 3.5c5.239 0 12 28.168 12 33Z"/><path fill="#CCCCC7" id="VIIn" d="M192 215c-1.624 0-2.75 2-5 2l-1-2c.068 0 9.376-13 13-13 0 2.915 3 4.651 3 6l-10 7Z"/><path fill="#FF9BCD" id="MY" fill-rule="evenodd" d="M220 207c0 .862 4.225 6.637 5.5 6 1.199-.6-.297-5.648-1-6H220m13 6h7l-3-8c-1.899 0-8 .488-8-2v-1l-2 1c0 2.991-6.051 2-8 2 0 3.219-3 5.108-3 8h7.5l4 2 1 2 2-3c.919-.459 2.5.765 2.5-1m0 0c0-1.998 5.065-5.217 3.5-6-4.943-2.471-7.951 6-3.5 6Z"/><path fill="#CCCCC7" id="VIIn" d="m264 215 5 2 1-2.5c-1.541-3.082-8.877-12.5-13-12.5 0 3.067-3 4.726-3 6 0 2.118 10 4.053 10 7Z"/><path fill="#FF9B88" id="P" d="M212 204c2.409 0 5.181 1 7 1 1.949 0 8 .991 8-2h-15v1ZM238 204l-1 1c-1.899 0-8 .488-8-2 2.723 0 5.778 1 9 1ZM238 204h6v-1c-1.321 0-6-.684-6 1Z"/><path fill="#FF9BCD" id="MY" d="M244 204h1l2-1h-3v1Z"/><path fill="#CBC9CC" id="arb" d="m115 204-1 1 1-1Z"/><path fill="#FDB1D9" id="VI" d="M216 213c-2.097 0-5.293 1-8 1 0-1.539-4-2.187-4-5 1.45 0 7-3.126 7-5h1c2.409 0 5.181 1 7 1 0 3.219-3 5.108-3 8ZM240 213c2.723 0 5.778 1 9 1 0-1.087 5.388-5 3-5-1.72 0-7-3.753-7-5h-7l-1 1 3 8Z"/><path fill="#CBC9CC" id="arb" d="M344 209c4.237 0 9 7.328 9 11 9.057 0-6.001-11.75-8.5-13l-2.5-3 2 5ZM103 221h1c0-3.062.43-10 5-10l1-1 1-1h1l2-4c-1.073 0-12.165 9.831-13 11.5-1.058 2.116 2 2.898 2 4.5Z"/><path fill="#FF9BCD" id="MY" d="m135 206-2 4c2.109 0 2-2.535 2-4ZM277 207h6c0-1.587-6-1.587-6 0Z"/><path fill="#FCB3D9" id="PARN" d="M155 262h1l1-1c2.489 0 3.849-5 8-5l8-8.5c2.639-5.278 10-18.967 10-24.5l1-1v-1l1-2c0-1.145-.579-4 1-4 0-7.84-6.2-8-13-8h-8l-2 4c0 11.865-3.135 21.771-8 31.5v13c-1.042 2.084-2 2.908-2 5.5l2 1Z"/><path fill="#CBCBCC" id="mlf" d="M220 207c0 .862 4.225 6.637 5.5 6 1.199-.6-.297-5.648-1-6H220ZM233 213c0-1.998 5.065-5.217 3.5-6-4.943-2.471-7.951 6-3.5 6Z"/><path fill="#FCB3D9" id="PARN" d="M300 262h1l2-2c0-2.592-.958-3.416-2-5.5v-14c-3.331-6.662-4.696-14.391-8-21-1.386-2.772 1-7.269 1-9.5l-3-3h-15c0 .676-5.151 2.802-6 4.5l3 10.5c0 5.093 7.506 20.513 10 25.5l6.5 7.5c.919.459 2.5-.765 2.5 1 3.602 0 5.209 5 7 5l1 1Z"/><path fill="#FF9BCD" id="MY" d="M192 215c2.409 0 5.181 1 7 1l9-2c0-1.539-4-2.187-4-5l-2-1-10 7ZM264 215c-2.409 0-5.181 1-7 1 0-.816-7.019-2-8-2 0-1.087 5.388-5 3-5l2-1c0 2.118 10 4.053 10 7Z"/><path fill="#A9AAA7" id="V4r" d="m111 209-1 1 1-1Z"/><path fill="#A9AAA8" id="chpl" d="M104 230c0 2.461 3.378 2 5 2l3-8 1-1c0-1.145-.579-4 1-4v-6c0-2.177.641-4-2-4h-1l-1 1-1 1c-4.57 0-5 6.938-5 10v9Z"/><path fill="#FFA4D0" id="SPVO" d="m141 257 5.5 5 6.5-1c0-2.592.958-3.416 2-5.5v-13c4.865-9.729 8-19.635 8-31.5-3.13 0-11.747-6.006-16 2.5-.88 1.76-2.592 14.5-4 14.5v1c0 1.593-.337 7-2 7l-2 13v2c1.014 0 2 3.959 2 5v1ZM313 260l-1 1-6.5 1-2.5-2c0-2.592-.958-3.416-2-5.5v-14c-3.331-6.662-4.696-14.391-8-21-1.386-2.772 1-7.269 1-9.5 4.984 0 11.628-3.244 15 3.5.761 1.522 2.944 12.5 4 12.5v1c0 8.94 4 16.292 4 26l-1 2-1 2v1l-1 1-1 1Z"/><path fill="#A9AAA8" id="chpl" d="M352 229c0 3.236-2.435 3-5 3 0-3.647-3-5.609-3-9 0-1.28-2.872-14 0-14 4.237 0 9 7.328 9 11v3l-1 1v5Z"/><path fill="#A9AAA7" id="V4r" d="m110 210-1 1 1-1Z"/><path fill="#C8CACA" id="sptV" d="M151 266c0 2.124-1 4.436-1 6l-3.5 2-4-3c-11.09-5.545-10.5-18.229-10.5-28 2.35 0 .217-7.934 1-9.5 2.238-4.476 4.6-22.5 11-22.5l-1 17v1c-1.663 0-2 5.407-2 7-1.659 0-4.537 13-2 13v2c0 1.622-.461 5 2 5v1c0 4.766 10 6.593 10 9ZM305 266l1 6 3.5 2 4-3c10.302-5.151 11.5-16.551 11.5-27 0-4.832-6.761-33-12-33v16c1.513 0 2 5.017 2 6.5 0 3.457 3 7.627 3 13 0 1.363.7 6.5-1 6.5l-1 2-1 2v1l-1 1-1 1-1 1c0 1.097-5.986 5-7 5Z"/><path fill="#FF9BCD" id="MY" d="m323 211 1 1-1-1Z"/><path fill="#FEB0D8" id="GRN" fill-rule="evenodd" d="M234 223c0 2.784-7.068 23.216-1.5 26 3.368 1.684 4.376-26 1.5-26m-13 0v17c0 1.349 1.606 13.288 4 8.5 1.796-3.592.635-25.5-4-25.5m-20 50h1c0-4.464 14.521-11.51 17.5-13 1.956-.978 4.077 1 5.5 1h1c0-12.869 5-11.511 5 0 5.405 0 8.273-.614 13.5 2l10.5 10c0-4.479 4.652-2 7-2l3-6c0-3.067-.765-4.029-2-6.5-1.326-2.652-6-38.01-6-42.5 0-.816-7.019-2-8-2-3.222 0-6.277-1-9-1h-7c0 1.765-1.581.541-2.5 1l-2 3-1-2-4-2H216c-2.097 0-5.293 1-8 1l-9 2c0 17.137-7 34.458-7 50 0 1.974 2 3.517 2 6 1.892 0 7-5.165 7 1Z"/><path fill="#FF9BCD" id="MY" d="m187 217-2 2c0-1.145-.579-4 1-4l1 2Z"/><path fill="#FFB2D8" id="IRN" d="M165 256c6.447 0 14.081 1.291 19.5 4l7.5 6c0-15.542 7-32.863 7-50-1.819 0-4.591-1-7-1-1.624 0-2.75 2-5 2l-2 2-1 2v1l-1 1c0 5.533-7.361 19.222-10 24.5l-8 8.5ZM292 256c-5.554 0-13.769.635-18.5 3-2.937 1.469-5.783 6-8.5 6 0-3.067-.765-4.029-2-6.5-1.326-2.652-6-38.01-6-42.5 1.819 0 4.591-1 7-1l5 2 4 5c0 5.093 7.506 20.513 10 25.5l6.5 7.5c.919.459 2.5-.765 2.5 1Z"/><path fill="#A9AAA7" id="V4r" d="m115 221-2 2c0-1.145-.579-4 1-4l1 2Z"/><path fill="#FF9BCD" id="MY" d="m185 219-1 2 1-2Z"/><path fill="#A9AAA7" id="V4r" d="M104 221v1l-1-1h1Z"/><path fill="#FF9BCD" id="MY" d="m184 222-1 1 1-1Z"/><path fill="#A9AAA7" id="V4r" d="m113 223-1 1 1-1Z"/><path fill="#C8C8CC" id="tspc" d="M221 223v17c0 1.349 1.606 13.288 4 8.5 1.796-3.592.635-25.5-4-25.5ZM234 223c0 2.784-7.068 23.216-1.5 26 3.368 1.684 4.376-26 1.5-26Z"/><path fill="#A9AAA7" id="V4r" d="m353 223-1 1 1-1Z"/><path fill="#FF9BCD" id="MY" d="M313 227c1.513 0 2 5.017 2 6.5 0 3.457 3 7.627 3 13 0 1.363.7 6.5-1 6.5 0-9.708-4-17.06-4-26ZM143 229c-1.663 0-2 5.407-2 7 1.663 0 2-5.407 2-7Z"/><path fill="#A9AAA7" id="V4r" d="m353 233-5 1-1-1v-1c2.565 0 5 .236 5-3 1.579 0 1 2.855 1 4ZM103 233h6v-1c-1.622 0-5 .461-5-2-1.473 0-1 1.952-1 3Z"/><path fill="#FF9BCD" id="MY" d="m326 230 1 1-1-1ZM347 234h1l-1-1v1ZM109 235l1 1-1-1ZM141 236c-1.659 0-4.537 13-2 13l2-13ZM347 236l-1 1 1-1ZM153 277c-4.714 0 0 .929 0 4-1.278 0-17.493-12.497-20.5-14-4.016-2.008-8.251 1.874-12 0-1.882-.941-4.681-12-2.5-12l3.5 6c7.918 3.959 8.5-13.256 8.5-17l2-1c0 9.771-.59 22.455 10.5 28l4 3 3.5-2 3 5Z"/><path fill="#FF9BCD" id="MY" fill-rule="evenodd" d="M305 276c0 1.93 1.93 0 0 0m-1 1 1 2c2.642 0 14.523-10.012 18.5-12 2.403-1.201 12.574 1.353 13.5-.5 1.954-3.909 2-8.753 2-13.5-1.488 0-2.11 6.805-4.5 8-8.25 4.125-7.5-12.815-7.5-17h-2c0 10.449-1.198 21.849-11.5 27l-4 3-3.5-2-2 5Z"/><path fill="#FF9BCD" id="MY" d="m116 248 1 1-1-1ZM340 249l-1 1 1-1ZM139 251c1.014 0 2 3.959 2 5-2.461 0-2-3.378-2-5Z"/><path fill="#FFC5E2" id="RM" d="M227 277h3v-2c0-1.657-.763-10 1-10v-4c0-11.511-5-12.869-5 0v15l1 1Z"/><path fill="#FF9BCD" id="MY" d="m117 252 1 2-1-2ZM317 253l-1 2 1-2ZM316 255l-1 2 1-2Z"/><path fill="#FFB3D6" id="VII" d="m168 285 20.5 2 3.5-2 2-6v-7c0-2.483-2-4.026-2-6l-7.5-6c-5.419-2.709-13.053-4-19.5-4-4.151 0-5.511 5-8 5l-1 2v1l-1 1c0 2.421-2.411 6.678-1 9.5l2 3.5 1 1 10 6h1ZM289 285h1l8.5-5c3.754-1.877 4.5-7.3 4.5-11l-1-1v-2l-1-1v-1l-1-1v-1l-1-1c-1.791 0-3.398-5-7-5-5.554 0-13.769.635-18.5 3-2.937 1.469-5.783 6-8.5 6l-3 6v8c0 2.538 3 3.953 3 7 7.907 0 15.686-1 24-1Z"/><path fill="#FF9BCD" id="MY" d="m155 262-4 4c0-2.407-10-4.234-10-9l5.5 5 6.5-1 2 1ZM315 258l-1 1 1-1ZM314 259l-1 1 1-1Z"/><path fill="#FDB2D9" id="MARN" d="M201 276c0 1.465-.109 4 2 4 6.229 0 18.886-4.271 22-10.5V261c-1.423 0-3.544-1.978-5.5-1-2.979 1.49-17.5 8.536-17.5 13l-1 1v2ZM255 276l-1 4c-7.907 0-23-5.086-23-15v-4c5.405 0 8.273-.614 13.5 2l10.5 10v3Z"/><path fill="#FF9BCD" id="MY" d="m301 262 4 4c1.014 0 7-3.903 7-5l-6.5 1-2.5-2-2 2ZM313 260l-1 1 1-1ZM156 262v1l1-2-1 1ZM167 287c0 1.985 8.497 2 10.5 2 10.113 0 19.748 4 30.5 4 0-1.465-4.394-1.711-3-4.5l15-7.5c-1.22 0-1.504-3.492-1-4.5 1.79-3.579 4.487-2.5 7-2.5v-13h-1v8.5c-3.114 6.229-15.771 10.5-22 10.5 0 3.714-11 10.204-11 5l-3.5 2-20.5-2c0 2.414 6-.493 6 2.5l-7-.5ZM299 261l1 1-1-1Z"/><path fill="#C8C8CB" id="rust" d="M163 285h4l-10-6-1-1-2-3.5c-1.411-2.822 1-7.079 1-9.5l1-1v-2h-1l-4 4c0 2.124-1 4.436-1 6l3 5c0 4.23 9 4.863 9 8h1ZM290 285h4l4-2c0-1.577 1.762-2 3-2 0-1.114 2.034-4 3-4l2-5-1-6-4-4h-1v1l1 1v1l1 1v2l1 1c0 3.7-.746 9.123-4.5 11l-8.5 5Z"/><path fill="#FF9BCD" id="MY" d="m300 263 1 1-1-1ZM156 264l-1 1 1-1ZM289 287c0 2.497-8.839 2-11 2-9.819 0-19.386 4-30 4 0-1.423 4.954-1.593 3-5.5-1.392-2.784-15-3.674-15-6.5 1.383 0 1.624-5.438.5-6-4.215-2.107-2.893 0-6.5 0 0-1.657-.763-10 1-10 0 9.914 15.093 15 23 15 0 6.251 7.176 6 11 6 7.907 0 15.686-1 24-1 0 1.992-7 .285-7 2.5l7-.5ZM301 265l1 1-1-1ZM302 268l1 1-1-1Z"/><path fill="#FCB2D9" id="PGRNl" d="m194 277 1 1 4-2 2-2v-1c0-6.165-5.108-1-7-1v5ZM262 277l-1 1-4-2-2-3c0-4.479 4.652-2 7-2v6Z"/><path fill="#FF9BCD" id="MY" d="m202 273-1 1v-1h1Z"/><path fill="#CACCC8" id="ml" d="M220 281h5c3.382 0 1-1.342 1-3v-4c-2.513 0-5.21-1.079-7 2.5-.504 1.008-.22 4.5 1 4.5ZM231 281h5c1.383 0 1.624-5.438.5-6-4.215-2.107-2.893 0-6.5 0v2c0 1.145-.579 4 1 4Z"/><path fill="#FF9BCD" id="MY" d="M255 276h2l-2-3v3ZM199 276h2v-2l-2 2Z"/><path fill="#CBC7CC" id="sctv" d="M161 285h1c0-3.137-9-3.77-9-8-4.714 0 0 .929 0 4h1l2 2h1l3 2h1Z"/><path fill="#FCB2D8" id="PPY" d="M203 280c0 3.714-11 10.204-11 5l2-6 1-1 4-2h2c0 1.465-.109 4 2 4Z"/><path fill="#FF9BCD" id="MY" d="m227 277-1 1v-2l1 1Z"/><path fill="#FCB2D8" id="PPY" d="M254 280c0 6.251 7.176 6 11 6 0-3.047-3-4.462-3-7l-1-1-4-2h-2l-1 4Z"/><path fill="#CBC7CC" id="sctv" d="M305 276c0 1.93 1.93 0 0 0Z"/><path fill="#FF9BCD" id="MY" d="m195 278-1 1v-2l1 1Z"/><path fill="#FFC6E2" id="RPA" d="M226 285c1.046 0 1.122 1 4 1l1-5c-1.579 0-1-2.855-1-4h-3l-1 1c0 1.658 2.382 3-1 3l1 4Z"/><path fill="#FF9BCD" id="MY" d="m261 278 1 1v-2l-1 1Z"/><path fill="#CBC7CC" id="sctv" d="M301 281h2l1-1 1-1-1-2c-.966 0-3 2.886-3 4Z"/><path fill="#FF9BCD" id="MY" d="m156 278 1 1-1-1ZM305 279l-1 1 1-1ZM304 280l-1 1 1-1ZM154 281l2 2-2-2Z"/><path fill="#C7C9C9" id="py" d="M212 293h6c0-1.373 8-3.83 8-8l-1-4h-5l-15 7.5c-1.394 2.789 3 3.035 3 4.5h4ZM245 293h3c0-1.423 4.954-1.593 3-5.5-1.392-2.784-15-3.674-15-6.5h-5l-1 5 4 4.5 4 2.5h7Z"/><path fill="#CBC7CC" id="sctv" d="M298 283h1l2-1v-1c-1.238 0-3 .423-3 2Z"/><path fill="#FF9BCD" id="MY" d="m303 281-2 1v-1h2ZM157 283l3 2c-1.238 0-3-.423-3-2Z"/><path fill="#CBC7CC" id="sctv" d="M295 285h2l1-1v-1l-4 2h1Z"/><path fill="#FF9BCD" id="MY" d="m299 283-1 1v-1h1ZM298 284l-1 1 1-1ZM163 285l3 2c-1.424 0-5-.362-5-2h2Z"/><path fill="#CBC7CC" id="sctv" d="M166 287h1l7 .5c0-2.993-6-.086-6-2.5h-5l3 2Z"/><path fill="#FF9BCD" id="MY" d="M218 293c4.985 0 6.316-2.408 9.5-4 .86-.43 8.037 4 10.5 4l-4-2.5-4-4.5c-2.878 0-2.954-1-4-1 0 4.17-8 6.627-8 8Z"/><path fill="#CBC7CC" id="sctv" d="M289 287h1c0-1.473 1.952-1 3-1h1v-1h-5c0 1.992-7 .285-7 2.5l7-.5Z"/><path fill="#FF9BCD" id="MY" d="m295 285-1 1v-1h1ZM293 286c-1.048 0-3-.473-3 1 1.048 0 3 .473 3-1ZM211 293h1c0 1.186-1 1.186-1 0ZM244 293h1c0 1.186-1 1.186-1 0Z"/></svg>