<svg xmlns="http://www.w3.org/2000/svg" viewBox="0 0 456 320"><path fill="#098589" id="VISp1" d="m82 59 3 3c1.75 0 21.979-16.74 26.5-19 19.625-9.813 35.551-20 59.5-20v-4c-27.343 0-46.898 13.699-69.5 25C98.63 45.435 82 57.233 82 59Z"/><path fill="#0A8589" id="VISpm1" d="M171 23h4l1-4h-5v4Z"/><path fill="#1BA696" id="RSPagl1" d="M190 29h1c1.077 0 3-3.762 3-5 0-1.876-15.496-5-18-5l-1 4c3.339 0 15 1.438 15 6ZM262 24c0 1.247 2.467 5 4 5 .315 0 9.355-6 15-6v-4c-5.649 0-17.129 5-19 5Z"/><path fill="#0A8589" id="VISpm1" d="M281 23h4v-4h-4v4Z"/><path fill="#098589" id="VISp1" d="m374 59-3 3c-3.138 0-15.982-13.241-19.5-15-22.122-11.06-39.516-24-66.5-24v-4c22.157 0 41.141 8.82 59.5 18l12 8c2.551 1.276 17.5 12.035 17.5 14Z"/><path fill="#0A828C" id="VISp2/3" d="M90 69h1c0-.37 17.351-11.926 19.5-13 20.424-10.212 36.779-26 61.5-26h1l-2-7c-23.949 0-39.875 10.188-59.5 20-4.521 2.26-24.75 19-26.5 19v1l5 6Z"/><path fill="#08858B" id="VISpm2/3" d="M175 23c0 1.774.273 7-2 7l-2-7h4Z"/><path fill="#1AA496" id="RSPagl2/3" d="M172 33c3.127 0 9-1.32 9 3 2.369 0 9-4.37 9-7 0-4.562-11.661-6-15-6 0 1.774.273 7-2 7v1l-1 2ZM285 33c-2.129 0-10-1.163-10 2-1.914 0-9-3.173-9-5v-1c.315 0 9.355-6 15-6l2 7 1 1 1 2Z"/><path fill="#08858B" id="VISpm2/3" d="M283 30h1l1-7h-4l2 7Z"/><path fill="#0A828C" id="VISp2/3" d="m371 63-5 6-20.5-14c-19.969-9.984-37.359-25-61.5-25l1-7c26.984 0 44.378 12.94 66.5 24 3.518 1.759 16.362 15 19.5 15v1Z"/><path fill="#1BA598" id="RSPd1" d="m160 70 1 1 10-11.5c5.975-5.975 27.458-19.916 30-25 1.605-3.21-3.865-10.5-7-10.5 0 1.238-1.923 5-3 5 0 1.842 1 4.283 1 5.5 0 5.311-20.674 19.347-23 24-1.887 3.775-9 7.125-9 11.5ZM297 70l-2 1c0-2.43-5.282-5.064-6-6.5-3.699-7.397-24.688-24.094-31.5-27.5-4.931-2.465.374-13 4.5-13 0 1.247 2.467 5 4 5v1c-4.605 0 2.148 9.648 3 10.5l22 22 6 7.5Z"/><path fill="#1BA697" id="RSPd2/3" d="M158 70h2c0-4.375 7.113-7.725 9-11.5 2.326-4.653 23-18.689 23-24 0-1.217-1-3.658-1-5.5h-1c0 2.63-6.631 7-9 7 0 12.052-23 25.862-23 34Z"/><path fill="#0B848B" id="VISp4" d="M91 69c0 1.238 1.923 5 3 5 2.936 0 20.758-15.629 25.5-18 16.18-8.09 31.063-22 50.5-22l1-1h1l1-2-1-1c-24.721 0-41.076 15.788-61.5 26C108.351 57.074 91 68.63 91 69Z"/><path fill="#09828B" id="VISpm4" d="M173 30v1l-1-1h1Z"/><path fill="#1BA697" id="RSPd2/3" d="m299 69-2 1-6-7.5-22-22c-.852-.852-7.605-10.5-3-10.5 0 1.827 7.086 5 9 5v1c0 6.51 12.235 20.735 17 25.5l7 7.5Z"/><path fill="#09828B" id="VISpm4" d="M284 30v1l-1-1h1Z"/><path fill="#0B848B" id="VISp4" d="M362 74h1l3-4v-1l-20.5-14c-19.969-9.984-37.359-25-61.5-25v1l1 2c19.973 0 36.743 15.622 53.5 24 4.716 2.358 19.666 17 23.5 17Z"/><path fill="#088389" id="VISp5" d="m171 33-1 1 1-1Z"/><path fill="#1CA697" id="RSPagl5" d="M163 45h2l3.5-3 12.5-6c0-4.32-5.873-3-9-3h-1l-1 1c0 4.556-9 7.117-9 10l2 1ZM292 45h1l2-1c0-4.825-10-6.112-10-11-2.129 0-10-1.163-10 2v1c4.799 0 13.376 9 17 9Z"/><path fill="#088389" id="VISp5" d="M362 74c0 1.28-3.755 8-5 8-3.833 0-12.23-10.865-16.5-13-12.268-6.134-30.952-25-44.5-25h-1c0-4.825-10-6.112-10-11 19.973 0 36.743 15.622 53.5 24 4.716 2.358 19.666 17 23.5 17ZM94 75l5 7c4.774 0 10.257-8.879 14.5-11 13.032-6.516 30.796-26 45.5-26l1-1h1c0-2.883 9-5.444 9-10-19.437 0-34.32 13.91-50.5 22-4.742 2.371-22.564 18-25.5 18v1Z"/><path fill="#1AA596" id="RSPd5" d="M151 67c0 .733 6.022 3 7 3 0-8.138 23-21.948 23-34l-12.5 6-3.5 3 1 4.5c-2.08 4.16-8.832 17.5-15 17.5ZM305 67c0 1.353-4.643 2-6 2l-7-7.5c-4.765-4.765-17-18.99-17-25.5 4.799 0 13.376 9 17 9 0 1.606-2.081 4.339-1 6.5 1.614 3.229 11.005 15.5 14 15.5Z"/><path fill="#FF7AFD" id="SCzo" d="m293 77 2 1c0-12.893-26.885-30.192-36.5-35-2.907-1.453-10.15-3.925-14-2-5.201 2.6-9.494 5.494-14 10-1.491 1.49.108 6-2 6l-3.5-7.5-12.5-8.5c-5.551-2.776-27.5 5.832-27.5 10 4.82 0 11.244-5.872 15.5-8 7.202-3.6 21.323 3.147 24.5 9.5 1.457 2.915 2 11.326 2 14.5 1.048 0 3 .473 3-1l1-12.5c3.042-6.083 16.627-14.437 24.5-10.5 6.824 3.412 13.336 9.168 19 12 2.666 1.333 7.37 5.24 8.5 7.5 2.268 4.535 10 8.05 10 14.5Z"/><path fill="#FF78FF" id="SCsg" d="m165 71-2 6 14.5-10c5.092-2.546 8.599-5.3 14-8l15-5c11.426-5.713 16.999 13 20.5 13 0-3.174-.543-11.585-2-14.5-3.177-6.353-17.298-13.1-24.5-9.5-4.256 2.128-10.68 8-15.5 8 0 1.747-.253 2-2 2l-15 14c0 1.429-1.288 4-3 4ZM230 66c3.77 0 9.23-17.635 20.5-12 3.069 1.534 7.003 1.502 10 3 6.802 3.401 13.192 7.596 20 11l12.5 9c0-6.45-7.732-9.965-10-14.5-1.13-2.26-5.834-6.167-8.5-7.5-5.664-2.832-12.176-8.588-19-12-7.873-3.937-21.458 4.417-24.5 10.5L230 66Z"/><path fill="#08858C" id="VISp6a" d="m160 44-1 1 1-1Z"/><path fill="#1CA597" id="RSPagl6a" d="M141 67h2c0-8.045 20-18.124 20-22l-2-1h-1l-1 1c0 4.993-18 14.274-18 22ZM314 67h1c0-8.12-19-20.012-19-23h-1l-2 1c0 2.443 21 15.714 21 22Z"/><path fill="#08858C" id="VISp6a" d="M357 83c0 .835-2.67 6-4 6l-27.5-19c-.827-.827-8.5-4.878-8.5-2l-2-1c0-8.12-19-20.012-19-23 13.548 0 32.232 18.866 44.5 25 4.27 2.135 12.667 13 16.5 13v1ZM103 89h2c0-2.158 5.64-6 8-6 0-1.617 4.583-4 6-4 0-2.205 13.292-9.896 15.5-11 .774-.387 4.5-2.186 4.5 0l2-1c0-7.726 18-17.007 18-22-14.704 0-32.468 19.484-45.5 26-4.243 2.121-9.726 11-14.5 11v1l4 6Z"/><path fill="#1AA697" id="RSPd6a" d="M145 67h6c6.168 0 12.92-13.34 15-17.5l-1-4.5h-2c0 3.876-20 13.955-20 22h2ZM311 67h3c0-6.286-21-19.557-21-22h-1c0 1.606-2.081 4.339-1 6.5 1.614 3.229 11.005 15.5 14 15.5h6Z"/><path fill="#FF7AFD" id="SCzo" d="M185 51c-1.747 0-2 .253-2 2 1.747 0 2-.253 2-2ZM183 53c-3.642 0-15 10.094-15 14l15-14Z"/><path fill="#FD7AFF" id="SCop" d="M162 81c4.419 0 8.508-6.504 11.5-8 7.696-3.848 30.116-17.942 40-13l12 11 3-2 3 2c8.027-4.014 10.048-16.476 23-10h4l24 12c3.997 1.999 7.814 8 12.5 8v-3l-2-1-12.5-9c-6.808-3.404-13.198-7.599-20-11-2.997-1.498-6.931-1.466-10-3-11.27-5.635-16.73 12-20.5 12 0 1.473-1.952 1-3 1-3.501 0-9.074-18.713-20.5-13l-15 5c-5.401 2.7-8.908 5.454-14 8L163 77c0 1.186-1 1.186-1 0-1.473 0-1 1.952-1 3l1 1Z"/><path fill="#09848A" id="VISl1" d="m66 76 3 2c2.293 0 12.304-15 16-15v-1l-3-3c-1.086 0-16 16.194-16 17ZM387 79h1l2-3c0-3.644-8.848-10.348-12-13.5l-4-3.5-3 3v1c2.273 0 16 11.976 16 16Z"/><path fill="#FF90FF" id="SCig" d="M155 102c0-7.65 25.076-21.788 31.5-25 6.684-3.342 18.682-12.66 28-8 .947.473 10.394 11.803 12 11 2.377-1.189 3.394.303 6-1l10-10c11.578-5.789 30.38 10.69 39 15 5.681 2.84 19.5 10.608 19.5 18 3.378 0 2-8.107 2-11l-1-1-1-1v-1l-2-2-4-5c-4.686 0-8.503-6.001-12.5-8l-24-12h-4c-12.952-6.476-14.973 5.986-23 10l-3-2-3 2-12-11c-9.884-4.942-32.304 9.152-40 13-2.992 1.496-7.081 8-11.5 8l-1 1-1 1h-1v1l-1 1h-1v1l-1 1v1l-1 1v1l-1 1-1 1c0 2.806-1.337 10 2 10Z"/><path fill="#0A8489" id="VISl2/3" d="m69 79 5 5 16-15-5-6c-3.696 0-13.707 15-16 15v1ZM387 79l-5 5c-2.598 0-11.606-14-16-14v-1l5-6c2.273 0 16 11.976 16 16Z"/><path fill="#08858A" id="VISp6b" d="M139 68c-7.283 0-13.058 11-20 11 0-2.205 13.292-9.896 15.5-11 .774-.387 4.5-2.186 4.5 0Z"/><path fill="#47C83C" id="POST" d="M115 109c8.017 0 16.609 1 24 1l3-6.5c2.35-4.7 13-18.252 13-22.5l-10-14h-4l-2 1-2 4-1 1-4 5-1 1c0 3.267-16 24.368-16 30Z"/><path fill="#33B932" id="APr" d="M161 71c0 1.48-4.971 10-6 10l-10-14h6c0 .733 6.022 3 7 3h2l1 1Z"/><path fill="#FF7AFD" id="SCzo" d="M168 67c-1.712 0-3 2.571-3 4 1.712 0 3-2.571 3-4Z"/><path fill="#33B932" id="APr" d="M295 71c0 1.022 5.166 9 6 9 .948 0 10-12.114 10-13h-6c0 1.353-4.643 2-6 2l-2 1-2 1Z"/><path fill="#47C83C" id="POST" d="M342 109c-8.418 0-17.172 1-25 1 0-9.091-16-21.619-16-30 .948 0 10-12.114 10-13h4l2 1c0 1.429 1.288 4 3 4l3 5 6 7.5c2.339 4.678 13 20.432 13 24.5Z"/><path fill="#08858A" id="VISp6b" d="M353 90v1l-4-3-7.5-5c-7.674-3.837-15.527-15-24.5-15 0-2.878 7.673 1.173 8.5 2L353 89v1Z"/><path fill="#C9C9CA" id="scwm" d="M108 88h2l6-3c0-1.307 17.756-12 20-12l1-1 2-4c-7.283 0-13.058 11-20 11 0 2.177-4.336 4-6 4 0 2.832-5 2.953-5 5ZM349 88l-2 1-7-5-20-12c-1.712 0-3-2.571-3-4 8.973 0 16.826 11.163 24.5 15l7.5 5Z"/><path fill="#08828B" id="VISl4" d="M76 88h1c0-1.136 15.44-13 17-13v-1c-1.077 0-3-3.762-3-5h-1L74 84v1l2 3Z"/><path fill="#FF90FE" id="SCiw" d="M169 109c0-5.657 17.672-15.586 22.5-18 6.166-3.083 10.878-8.939 17-12 5.661-2.83 16.811 6.595 20 5 3.75-1.875 14.153-7.423 19-5 7.861 3.93 14.056 11.028 22 15 5.355 2.677 17.5 8.425 17.5 15 3.33 0 14-2.831 14-7 0-7.392-13.819-15.16-19.5-18-8.62-4.31-27.422-20.789-39-15l-10 10c-2.606 1.303-3.623-.189-6 1-1.606.803-11.053-10.527-12-11-9.318-4.66-21.316 4.658-28 8-6.424 3.212-31.5 17.35-31.5 25 0 3.053 11.131 7 14 7Z"/><path fill="#08828B" id="VISl4" d="M379 88h1l2-3v-1c-2.598 0-11.606-14-16-14l-3 4c0 3.387 16 9.675 16 14Z"/><path fill="#FF7AFD" id="SCzo" d="M162 77c0 1.186 1 1.186 1 0l2-6c-2.314 0-3 4.262-3 6Z"/><path fill="#C8C9CA" id="fp" d="m137 72-1 1 1-1ZM337 85h1l2-1-20-12 3 5 2.5 2c1.879.94 10.5 3.37 10.5 6h1ZM119 85h2l1-1c0-1.406 7.52-5 9-5l1-1 4-5c-2.244 0-20 10.693-20 12h3Z"/><path fill="#0B858B" id="VISl5" d="M371 95h3c0-3.153 5-4.304 5-7 0-4.325-16-10.613-16-14h-1c0 1.28-3.755 8-5 8v1c2.29 0 14 9.281 14 12ZM85 95h1c0-2.406 10.832-12 13-12v-1l-5-7c-1.56 0-17 11.864-17 13 .71 0 6 5.697 6 7h2Z"/><path fill="#0C858C" id="VISli1" d="m57 87 3 2 9-10v-1l-3-2-9 11ZM399 87l-3 2-8-10 2-3c2.035 0 9 9.8 9 11Z"/><path fill="#7DCD4B" id="HPF" d="M385 130c0 15.185 2.342 32.815-4 45.5-1.024 2.048-2.356 9.5-6 9.5 0-5.286 3.724-11.949 6-16.5 2.681-5.361.422-27.155-2-32-2.865-5.73-6.563-10.532-12.5-13.5-1.279-.639-8.5-.258-8.5 1h-3c0-3.911-5.819-11-10-11l-3-4c0-4.068-10.661-19.822-13-24.5l-6-7.5 2.5 2c1.879.94 10.5 3.37 10.5 6l-2.5-1c-2.063 1.031 1.036 4.572 1.5 5.5l8 15c4.03 8.06 9.098.299 11.5 1.5l2.5 8.5c2.282 4.563 14 7.079 14 .5l3 2 1 1c0 1.805 6.778 9 8 9v1l1 1 1 1ZM132 78l-1 1 1-1Z"/><path fill="#0A858A" id="VISli2/3" d="m60 90 5 4 9-9v-1l-5-5-9 10v1Z"/><path fill="#08858A" id="VISp6b" d="M119 79c-1.417 0-6 2.383-6 4 1.664 0 6-1.823 6-4Z"/><path fill="#7DCD4B" id="HPF" d="m82 185-1 1-8-13.5c-4.358-8.716-2-30.56-2-41.5v-1l2-2 8-10 1-1 1-1 1-1h1c0 6.309 7.969 3.765 11.5 2 4.781-2.39 2.17-9.085 6-11l5 3c4.209-2.105 7.545-6.59 9.5-10.5 1.851-3.701 4.115-7.23 6-11 .472-.945.156-3.5-1-3.5 0-1.406 7.52-5 9-5 0 3.267-16 24.368-16 30l-4 5c0-1.833-9 5.52-9 9l-1 1h-3c0-1.258-7.221-1.639-8.5-1-6.43 3.215-9.47 8.44-12.5 14.5-3.764 7.529-3.716 28.568 0 36l5 11.5Z"/><path fill="#FF8FFF" id="SCdg" d="M277 120h2c0-2.862 8-6.668 8-11 0-6.575-12.145-12.323-17.5-15-7.944-3.972-14.139-11.07-22-15-4.847-2.423-15.25 3.125-19 5-3.189 1.595-14.339-7.83-20-5-6.122 3.061-10.834 8.917-17 12-4.828 2.414-22.5 12.343-22.5 18l6 9.5 3 1.5h1c3.771 0 7.478-3 11-3l-1-8.5c3.959-7.919 11.859-16.18 20.5-20.5l15.5 1c20.415 0 31.132-3.236 42 18.5l-1 9.5c3.522 0 7.229 3 11 3Z"/><path fill="#0A858A" id="VISli2/3" d="M396 90c-1.907 0-2.382 4-5 4l-9-9v-1l5-5h1l8 10v1Z"/><path fill="#FF64FF" id="MB" d="M161 81h1l-1-1v1Z"/><path fill="#C7CBCB" id="bsc" d="M160 82h1v-1l-1 1Z"/><path fill="#FD7AFF" id="SCop" d="m162 81-1 1v-1h1Z"/><path fill="#C7CBCB" id="bsc" d="m302 90 1 1c0-2.858-5.46-10-8-10l4 5 2 2v1l1 1ZM159 83h1v-1l-1 1Z"/><path fill="#FF64FF" id="MB" d="m161 82-1 1v-1h1Z"/><path fill="#08848C" id="VISl6a" d="m89 97 5 1 9-8v-1l-4-6c-2.168 0-13 9.594-13 12 0 1.692 3-.99 3 2Z"/><path fill="#08858A" id="VISp6b" d="m108 88-3 1c0-2.158 5.64-6 8-6 0 2.832-5 2.953-5 5Z"/><path fill="#C7CBCB" id="bsc" d="M158 84h1v-1l-1 1Z"/><path fill="#08848C" id="VISl6a" d="M362 98h1c0-1.58 2.855-1 4-1l4-2c0-2.719-11.71-12-14-12 0 .835-2.67 6-4 6v1c1.675 0 9 6.062 9 8Z"/><path fill="#7DCD4B" id="HPF" d="m122 84-1 1 1-1Z"/><path fill="#C9CCC9" id="dhc" d="m86 113-1 2c0 6.309 7.969 3.765 11.5 2 4.781-2.39 2.17-9.085 6-11l5 3c4.209-2.105 7.545-6.59 9.5-10.5 1.851-3.701 4.115-7.23 6-11 .472-.945.156-3.5-1-3.5l-1 1h-2c0 1.13-11.271 8-13 8l-4 4-1 1-1 1-1 1-3 1-1 1-1 1-1 1-1 1-1 1-1 1-1 1v1l-1 1-1 1v1l-1 1Z"/><path fill="#C7CBCB" id="bsc" d="M157 85h1v-1l-1 1Z"/><path fill="#FF64FF" id="MB" d="m159 84-1 1v-1h1Z"/><path fill="#C9CCC9" id="dhc" d="m369 111 2 4c0 6.579-11.718 4.063-14-.5l-2.5-8.5c-2.402-1.201-7.47 6.56-11.5-1.5l-8-15c-.464-.928-3.563-4.469-1.5-5.5l2.5 1h1l1 1c1.844 0 17 10.503 17 12l1 1 2 1 1 1 8 7 1 1 1 1v1Z"/><path fill="#C8CBCC" id="ec" d="m359 101 8 7-15-14.5-5-4.5-7-5-2 1v1c1.844 0 17 10.503 17 12l1 1 2 1 1 1Z"/><path fill="#08828C" id="VISli4" d="m65 95 3 1 8-8-2-3-9 9v1Z"/><path fill="#C8CBCC" id="ec" d="m110 88-4 5c1.729 0 13-6.87 13-8h-3l-6 3Z"/><path fill="#7DCD4B" id="HPF" d="M338 85v1l-1-1h1Z"/><path fill="#08828C" id="VISli4" d="M388 97h1l2-2v-1l-9-9-2 3c0 2.23 8 5.31 8 9Z"/><path fill="#C7CBCB" id="bsc" d="m157 86-1 1 1-1Z"/><path fill="#FF64FF" id="MB" d="m299 86 2 2-2-2Z"/><path fill="#09818C" id="VISpor1" d="M39 127v1c1.647 0 1.338-7.176 2-8.5 3.267-6.534 8.976-21.238 15.5-24.5l3.5-5v-1l-3-2-5 6.5c-3.756 7.512-15 15.8-15 24.5 1.186 0 1.186 1 0 1 0 1.695 2 5.293 2 8Z"/><path fill="#C7CBCB" id="bsc" d="M155 88h1v-1l-1 1Z"/><path fill="#09818C" id="VISpor1" d="M417 127h1c0-4.456 1-5.746 1-9 0-8.814-10.653-16.806-14-23.5-.752-1.504-3.885-7.5-6-7.5l-3 2v1c3.094 0 3.53 6.015 5.5 7 4.523 2.261 15.5 24.357 15.5 30Z"/><path fill="#0A848A" id="VISli5" d="M68 96v1c5.599 0 9.98-2 15-2 0-1.303-5.29-7-6-7h-1l-8 8Z"/><path fill="#CBC9C7" id="or" d="M81 117h1l1-1 1-1 1-2 1-1 1-1 1-1 1-1v-1l1-1 1-1 1-1 1-1 1-1 1-1 1-1c0-1.577 1.762-2 3-2 0-1.747.253-2 2-2 0-1.811 3.438-4 5-4l4-5h-2l-3 1c0 1.747-.253 2-2 2l-8 8-2 2c0 3.254-12 10.936-12 16Z"/><path fill="#C7CBCB" id="bsc" d="M154 90h1v-2l-1 2Z"/><path fill="#FF64FF" id="MB" d="m156 88-1 1v-1h1Z"/><path fill="#FF8FFE" id="SCdw" d="M192 120c0-14.142 7.925-24.212 19.5-30l17 1 16-1c11.917 5.958 19.5 15.48 19.5 30 2.293 0 2-.997 2-3l1-9.5C256.132 85.764 245.415 89 225 89l-15.5-1c-8.641 4.32-16.541 12.581-20.5 20.5l1 8.5c0 2.003-.293 3 2 3Z"/><path fill="#CBC9C7" id="or" d="M375 118h2c0-4.499-13-12.839-13-17l-2-2-9-8-4-3-2 1 5 4.5 15 14.5 1 1 1 1v1c1.777 0 5 4.013 5 6l1 1Z"/><path fill="#0A848A" id="VISli5" d="M374 95c4.215 0 8.022 2 14 2 0-3.69-8-6.77-8-9h-1c0 2.696-5 3.847-5 7Z"/><path fill="#08858A" id="VISp6b" d="M103 90v1c1.747 0 2-.253 2-2h-2v1Z"/><path fill="#FF64FF" id="MB" d="m301 89 1 1-1-1Z"/><path fill="#0A8389" id="VISpor2/3" d="M43 135c3.435 0 5.25 5 8 5v-12.5c1.446-2.891 4-8.244 4-11.5l-2-1.5 6-12 6-7.5v-1l-5-4-3.5 5c-6.524 3.262-12.233 17.966-15.5 24.5-.662 1.324-.353 8.5-2 8.5v2c1.43 0 4 3.939 4 5Z"/><path fill="#09858C" id="VISl6b" d="M94 99h1l8-8v-1l-9 8v1Z"/><path fill="#C7CBCB" id="bsc" d="M153 91h1v-1l-1 1Z"/><path fill="#FF64FF" id="MB" d="m155 90-1 1v-1h1Z"/><path fill="#FC8FFF" id="PAG" fill-rule="evenodd" d="M238 140c0 2.328 6.834 5.833 8.5 5v-4h-4c-1.718-.859-2.387-1-4.5-1m-23 0c0 2.426-8.161-.822-6 3.5 2.059 4.118 13.284-3.5 6-3.5m9 4c-4.71 0-7.852 5-13 5-10.062 0-18-13.082-18-22l-1-7c0-14.142 7.925-24.212 19.5-30l17 1 16-1c11.917 5.958 19.5 15.48 19.5 30v7l-1 1c0 8.391-7.595 21-17 21-5.783 0-9.173-6-14-6l-1-12c0-1.851.867-7-2-7l4-5.5c1.586-3.171-4.986-13.028-10-3-1.743 3.485 4 5.592 4 8.5 0 1.564-1 3.876-1 6 0 4.405-2 9.098-2 14Z"/><path fill="#09858C" id="VISl6b" d="M362 98v1l-9-8v-1c1.675 0 9 6.062 9 8Z"/><path fill="#0A8389" id="VISpor2/3" d="M405 140h1c1.636 0 3.733-5 7-5l4-5v-3c0-5.643-10.977-27.739-15.5-30-1.97-.985-2.406-7-5.5-7-1.907 0-2.382 4-5 4v1c.217 0 17.133 20 10 20l4 10.5c1.998 3.997 0 10.806 0 14.5Z"/><path fill="#FF64FF" id="MB" d="m154 91-1 1v-1h1ZM287 189c0 2.281 11 1.385 11 4 .665 0 2.46-7.421 3-8.5 1.148-2.296 11.254-14.877 12.5-15.5l3.5 1c0-5.447 1.653-13.805 4-18.5l-1-18.5-2.5 1-.5-5c0-4.15-.259-10.017-2-13.5-.729-1.457-14.074-16.5-7-16.5l-5-8c0 2.893 1.378 11-2 11 0 4.169-10.67 7-14 7 0 4.332-8 8.138-8 11l12.5 1 5.5 4 2-5.5 2-6c7.651-15.302 19.023 14.238 12.5 17.5-4.354 2.177-9.326 0-13.5 0 0 3.823 1 8.586 1 13 5.61 0 10-1.171 10 7 1.829 0 2.185-5.842 4.5-7 1.32-.66 2.5 3.634 2.5 4.5 0 7.607-7 15.94-7 4.5l-3.5 4c-1.626.813-8.391 2-10 2l-4.5-2c0 1.712-2.571 3-4 3l9 8.5c4.392 8.784-1.589 20.5-11 20.5ZM178 120l-12.5 1c-1.667.834-5.289 5-6.5 5 0-3.647-4.757-19.871-10.5-17l-7.5 11c0-4.843 12.888-21 8-21 0-1.301 2.496-7 4-7 0 2.806-1.337 10 2 10 0 3.053 11.131 7 14 7l6 9.5 3 1.5Z"/><path fill="#C8CBCC" id="ec" d="M101 97h1l4-4c-1.562 0-5 2.189-5 4Z"/><path fill="#0A828A" id="VISpor4" d="M68 97c-1.89 0-11.38 19-13 19l-2-1.5 6-12 6-7.5 3 1v1Z"/><path fill="#0B838A" id="VISpor5" d="m55 139-4 1v-12.5c1.446-2.891 4-8.244 4-11.5 1.62 0 11.11-19 13-19 5.599 0 9.98-2 15-2h2l-10 12.5c-3.334 6.668-16 22.622-16 29.5l-3 1-1 1Z"/><path fill="#0C858B" id="VISpor6a" d="M59 137h2l9-6 1-1 2-4 1-2 1-1 1-2 1-1c0-1.987 12.753-19 15-19v-1l-3-3c0-2.99-3-.308-3-2h-1l-10 12.5c-3.334 6.668-16 22.622-16 29.5ZM395 137h2c0-11.6-13.035-22.569-18-32.5l-8-9.5-4 2-2 3v1l5.5 6c3.142 3.142 15.5 19.381 15.5 23l9 7Z"/><path fill="#0B838A" id="VISpor5" d="m401 139 4 1c0-3.694 1.998-10.503 0-14.5l-4-10.5-3.5-4-6.5-11.5-2-2.5h-1c-5.978 0-9.785-2-14-2h-3l8 9.5c4.965 9.931 18 20.9 18 32.5l4 2Z"/><path fill="#0A828A" id="VISpor4" d="m389 97 2 2.5 6.5 11.5 3.5 4c7.133 0-9.783-20-10-20l-2 2Z"/><path fill="#08838C" id="VISpl6a" d="m94 99-2 1-3-3 5 1v1Z"/><path fill="#C8CBCC" id="ec" d="M99 99h1l1-1v-1c-1.747 0-2 .253-2 2Z"/><path fill="#7DCD4B" id="HPF" d="m102 97-1 1v-1h1Z"/><path fill="#08838C" id="VISpl6a" d="m363 98 2 2 2-3c-1.145 0-4-.58-4 1Z"/><path fill="#7DCD4B" id="HPF" d="m355 98 1 1-1-1Z"/><path fill="#08848A" id="VISpl6b" d="M364 101h1v-1l-2-2h-1v1l2 2ZM92 101h1l2-2h-1l-2 1v1Z"/><path fill="#C8CBCC" id="ec" d="m99 100-3 1c0-1.577 1.762-2 3-2v1Z"/><path fill="#7DCD4B" id="HPF" d="m100 99-1 1v-1h1Z"/><path fill="#C9C8C8" id="bic" d="M141 121c-2.427 0-.139 9.778-1 11.5-1.113 2.225-2.212.5-4 .5 0-7.406 3-13.609 3-20 3.433 0 4.578-14 10-14 4.888 0-8 16.157-8 21v1ZM308 99c6.185 0 10.63 23.759 13 28.5l-1 5.5-2.5 1-.5-5c0-4.15-.259-10.017-2-13.5-.729-1.457-14.074-16.5-7-16.5Z"/><path fill="#7DCD4B" id="HPF" d="m358 100 1 1-1-1Z"/><path fill="#0C848C" id="VISpor6b" d="m80 118-3 2c0-1.987 12.753-19 15-19h1c0 3.254-12 10.936-12 16l-1 1Z"/><path fill="#C8CBCC" id="ec" d="m96 101-1 1 1-1Z"/><path fill="#0C848C" id="VISpor6b" d="M385 130h1c0-3.619-12.358-19.858-15.5-23l-5.5-6h-1c0 4.161 13 12.501 13 17 0 2.147 6 5.481 6 9v1l1 1 1 1Z"/><path fill="#C8CBCC" id="ec" d="m95 102-1 1 1-1ZM94 103l-1 1 1-1ZM92 105l-1 1 1-1ZM90 107l-1 1 1-1ZM89 109l-1 1 1-1Z"/><path fill="#59B847" id="PRE" d="M106 136c0 2.18 18.365 17 21 17 0-6.317 8-23.663 8-29 0-2.233 1.546-11 4-11v-3c-7.391 0-15.983-1-24-1l-4 5c0 2.483-2 4.026-2 6l-1 1v3l-2 12Z"/><path fill="#FE79FE" id="ICe" d="m157 131-1 1c-10.705 0-15 1.4-15-11v-1l7.5-11c5.743-2.871 10.5 13.353 10.5 17 0 1.622.461 5-2 5ZM297 125c0 2.74-.626 6 3 6 4.174 0 9.146 2.177 13.5 0 6.523-3.262-4.849-32.802-12.5-17.5l-2 6-2 5.5Z"/><path fill="#59B847" id="PRE" d="M351 136c-1.026 0-17.311 17-22 17 0-3.548-6.488-30.476-8-33.5l-4-9.5c7.828 0 16.582-1 25-1l3 4c0 2.518 2 4.286 2 6l1 1v1l1 2c0 4.854 2 8.932 2 13Z"/><path fill="#C8CBCC" id="ec" d="m368 109 1 1-1-1ZM88 110l-1 1 1-1Z"/><path fill="#A9A9A8" id="AQ" d="M227 124h2l4-5.5c1.586-3.171-4.986-13.028-10-3-1.743 3.485 4 5.592 4 8.5Z"/><path fill="#C8CBCC" id="ec" d="M86 112h1v-1l-1 1ZM371 115l3 2c0-1.987-3.223-6-5-6l2 4ZM85 113h1v-1l-1 1Z"/><path fill="#7DCD4B" id="HPF" d="m87 112-1 1v-1h1Z"/><path fill="#C8CBCC" id="ec" d="M84 115h1v-2l-1 2Z"/><path fill="#7DCD4B" id="HPF" d="m86 113-1 2v-2h1Z"/><path fill="#32B623" id="ENTm6" d="M102 123h5l1-2 1-1c0-1.974 2-3.517 2-6 0-1.833-9 5.52-9 9ZM349 123c2.124 0 4.436 1 6 1 0-3.911-5.819-11-10-11 0 2.518 2 4.286 2 6l1 1v1l1 2Z"/><path fill="#C8CBCC" id="ec" d="m84 115-1 1 1-1ZM83 116l-1 1 1-1Z"/><path fill="#CBC9C7" id="or" d="M80 118h1v-1l-1 1Z"/><path fill="#C8CBCC" id="ec" d="m82 117-1 1v-1h1Z"/><path fill="#FF64FF" id="MB" d="m192 120 1 7-5.5-4c-1.242-.621-8.5-1.767-8.5-3 3.771 0 7.478-3 11-3 0 2.003-.293 3 2 3ZM277 120c0 1.758-7.103 2.301-8.5 3l-4.5 4v-7c2.293 0 2-.997 2-3 3.522 0 7.229 3 11 3Z"/><path fill="#15B0B3" id="TEa1" d="M37 118c1.186 0 1.186 1 0 1v-1Z"/><path fill="#C8CBCC" id="ec" d="M73 126v2l8-10h-1l-3 2-1 1-1 2-1 1-1 2ZM377 118c0 2.147 6 5.481 6 9-1.222 0-8-7.195-8-9h2Z"/><path fill="#15B0B3" id="TEa1" d="m418 127 4 1c0-1.874-1.261-10-3-10 0 3.254-1 4.544-1 9ZM39 127l-5 1c0-1.593 1.592-9 3-9 0 1.695 2 5.293 2 8Z"/><path fill="#7DCD4B" id="HPF" d="m347 119 1 1-1-1Z"/><path fill="#0C848C" id="VISpor6b" d="m77 120-1 1 1-1Z"/><path fill="#7DCD4B" id="HPF" d="m109 120-1 1 1-1Z"/><path fill="#FF8FFD" id="MRN" d="M184 186c4.04 0 12.204-3.148 16.5-1l4.5 2 3-12-3.5 3c-13.449-6.725-2.615-8 5.5-8 .106 0 5-6.173 5-1 2.618 0 1.651-3 4-3l1-7-2-3h-1c0 7.351-11.552-4-3-4l-3-3c-10.062 0-18-13.082-18-22l-5.5-4c-1.242-.621-8.5-1.767-8.5-3h-1l-12.5 1c-1.667.834-5.289 5-6.5 5 0 1.622.461 5-2 5l-1 1c0 3.312-1 8.038-1 12 4.641 0 8 9.648 8 13l4 3c3.265 0 6.814-4.843 10.5-3 3.961 1.98 21.211 15.078 18.5 20.5-1.607 3.215-12 6.414-12 8.5ZM252 187c3.95 0 11.471-4.515 16.5-2l4.5 2c0-3.251-10.911-6.322-13-10.5-1.832-3.664 14.89-17.695 18.5-19.5 3.632-1.816 7.399 3 10.5 3 1.429 0 4-1.288 4-3 0-5.523 8-11.783 8-13 0-4.414-1-9.177-1-13-3.626 0-3-3.26-3-6l-5.5-4-12.5-1h-2c0 1.758-7.103 2.301-8.5 3l-4.5 4-1 1c0 8.391-7.595 21-17 21l-3 3c2.849 0 2.536 4.982.5 6l-4.5-1c-1.238 0-3 .423-3 2 0 3.477 1.644 10 6 10 0-3.838 4-.945 4 1 8.739 0 19 1.25 5.5 8l-3.5-3c0 3.974 3 7.572 3 12h1Z"/><path fill="#0C848C" id="VISpor6b" d="m76 121-1 2 1-2Z"/><path fill="#7DCD4B" id="HPF" d="m107 123 1 1v-3l-1 2Z"/><path fill="#FF64FF" id="MB" d="M169 189c0 .635-9.949 4-11 4 0-3.518-11.494-22.497-14.5-24-2.116-1.058-2.898 2-4.5 2 0-5.76-.649-9.798-3-14.5V133c1.788 0 2.887 1.725 4-.5.861-1.722-1.427-11.5 1-11.5 0 12.4 4.295 11 15 11 0 3.312-1 8.038-1 12-4.646 0-10-1.537-10 6-1.979 0-1.754-7.373-4.5-6-6.071 3.035.565 20.371 4.5 12.5V151c.251 0 2.794 5.147 4.5 6 4.901 2.45 9.346 0 13.5 0l4 3-8 7.5c-4.049 8.097-.698 21.5 10 21.5Z"/><path fill="#7DCD4B" id="HPF" d="m348 121 1 2-1-2Z"/><path fill="#0C848C" id="VISpor6b" d="m75 123-1 1 1-1Z"/><path fill="#C7C8CC" id="alv" d="m83 184-1 1-5-11.5c-3.716-7.432-3.764-28.471 0-36 3.03-6.06 6.07-11.285 12.5-14.5 1.279-.639 8.5-.258 8.5 1-16.477 0-21 21.135-21 34.5v8c1.56 3.122 6 14.37 6 17.5Z"/><path fill="#32B623" id="ENTm6" d="m102 123-1 1 1-1Z"/><path fill="#4FC244" id="SUB" d="M100 191h1l2-3.5c.598-1.197 1-35.104 1-38.5 0-1.714.852-13 2-13l2-12-1-1h-5l-1 1h-3c-16.477 0-21 21.135-21 34.5v8c1.56 3.122 6 14.37 6 17.5 4.299 0 10.754 7 17 7ZM355 191h2c2.454 0 16-5.684 16-7l6-15.5v-5c6.355-12.71-6.557-39.5-21-39.5h-3c-1.564 0-3.876-1-6-1 0 4.854 2 8.932 2 13 0 2.894 2.339 34.178 3 35.5 1.121 2.242-2.675 9.65-1 13l2 6.5Z"/><path fill="#C7C8CC" id="alv" d="m373 184 2 1c0-5.286 3.724-11.949 6-16.5 2.681-5.361.422-27.155-2-32-2.865-5.73-6.563-10.532-12.5-13.5-1.279-.639-8.5-.258-8.5 1 14.443 0 27.355 26.79 21 39.5v5l-6 15.5Z"/><path fill="#0C848C" id="VISpor6b" d="m74 124-1 2 1-2Z"/><path fill="#FF64FF" id="MB" d="M226 130c2.413 0 3.51 1 5 1 0-1.851.867-7-2-7h-2c0 1.564-1 3.876-1 6Z"/><path fill="#0C848C" id="VISpor6b" d="m73 128-2 2 2-4v2Z"/><path fill="#0D9F90" id="ECT1" d="M40 137c-1.061 0-5 2.571-5 4-3.426 0-1-11.233-1-13l5-1v3c0 2.124 1 4.436 1 6v1Z"/><path fill="#FF64FF" id="MB" d="m264 127-1 1 1-1Z"/><path fill="#0D9F90" id="ECT1" d="M417 137c1.634 0 4 2.634 4 4 2.911 0 2.692-13 1-13l-4-1h-1v10Z"/><path fill="#C8CBCC" id="ec" d="m383 128 1 1-1-1Z"/><path fill="#FDA6FF" id="DR" d="m232 143-2 15.5c-.344.688-2.004 3.991-3 2l-2-12c0-1.19.614-4.5-1-4.5 0-4.902 2-9.595 2-14 2.413 0 3.51 1 5 1l1 12Z"/><path fill="#0D9F91" id="ECT2/3" d="m43 135-3 1c0-1.564-1-3.876-1-6 1.43 0 4 3.939 4 5Z"/><path fill="#0C848C" id="VISpor6b" d="M70 131h1v-1l-1 1Z"/><path fill="#32B824" id="ENTl6a" d="M375 185c0 9.604-2 17.183-2 27 .17 0 11.286-13.071 12-14.5 3.262-6.525 6.81-12.619 10-19 3.083-6.166 0-33.547 0-41.5l-9-7h-1c0 15.185 2.342 32.815-4 45.5-1.024 2.048-2.356 9.5-6 9.5Z"/><path fill="#0D9F91" id="ECT2/3" d="M416 137h1v-7l-4 5c1.238 0 3 .423 3 2Z"/><path fill="#32B824" id="ENTl6a" d="M81 186c0 8.786 2 16.753 2 25-2.214 0-8.905-9.31-10-11.5-3.33-6.66-7.74-12.48-11-19-3.99-7.978-1-33.445-1-43.5l9-6h1c0 10.94-2.358 32.784 2 41.5l8 13.5Z"/><path fill="#FF64FF" id="MB" d="m157 131-1 1 1-1Z"/><path fill="#0E9583" id="PERI2/3" d="m50 141-8 4-2-8v-1l3-1c3.435 0 5.25 5 8 5l-1 1ZM406 141l8 4c1.434 0 2-6.448 2-8 0-1.577-1.762-2-3-2-3.267 0-5.364 5-7 5v1Z"/><path fill="#72D568" id="PAR" d="m113 212 2 2c3 0 2.884-13.267 4-15.5 2.265-4.53 8-39.441 8-45.5-2.635 0-21-14.82-21-17-1.148 0-2 11.286-2 13 0 3.396-.402 37.303-1 38.5l-2 3.5c.548 0 6 12.59 6 14l3 5 3 2ZM343 212l-2 2-4-12.5c-2.498-4.996.481-13.037-2-18-2.101-4.202-6-25.399-6-30.5 4.689 0 20.974-17 22-17 0 2.894 2.339 34.178 3 35.5 1.121 2.242-2.675 9.65-1 13l2 6.5-5 14-3 4-4 3Z"/><path fill="#0E9584" id="PERI1" d="m42 146-5 5c0-3.942-2-6.745-2-10 0-1.429 3.939-4 5-4l2 8v1Z"/><path fill="#31B824" id="ENTl5" d="m83 212-2 10c-3.24 0-14.533-13.566-16-16.5-3.795-7.59-8.267-14.534-12-22-2.801-5.602 2-35.374 2-44.5l1-1 3-1h2c0 10.055-2.99 35.522 1 43.5 3.26 6.52 7.67 12.34 11 19 1.095 2.19 7.786 11.5 10 11.5v1ZM373 212c0 .877 2.665 9 3 9 4.598 0 10.992-8.485 13-12.5 2.059-4.118 5.974-6.948 8-11l7-17c2.307-4.614-3-34.206-3-41.5l-4-2h-2c0 7.953 3.083 35.334 0 41.5-3.19 6.381-6.738 12.475-10 19-.714 1.429-11.83 14.5-12 14.5Z"/><path fill="#0E9584" id="PERI1" d="M414 146c2.741 0 2.75 4 5 4 0-3.68 2-5.511 2-9 0-1.366-2.366-4-4-4h-1c0 1.552-.566 8-2 8v1Z"/><path fill="#32B725" id="ENTl3" d="m56 138-1 1 1-1ZM81 222l-2 7c-2.844 0-18.426-14.353-20-17.5-3.48-6.959-8.204-15.409-12-23-4.838-9.676 3-36.713 3-47.5l1-1 4-1c0 9.126-4.801 38.898-2 44.5 3.733 7.466 8.205 14.41 12 22 1.467 2.934 12.76 16.5 16 16.5ZM376 222l1 7c2.924 0 17.47-12.44 19-15.5 3.212-6.423 7.837-11.675 11-18 2.408-4.817 1.594-11.188 4-16 2.15-4.3-5-32.07-5-38.5v-1h-1l-4-1c0 7.294 5.307 36.886 3 41.5l-7 17c-2.026 4.052-5.941 6.882-8 11-2.008 4.015-8.402 12.5-13 12.5v1Z"/><path fill="#FD90FC" id="Su3" d="M215 140c0 2.426-8.161-.822-6 3.5 2.059 4.118 13.284-3.5 6-3.5ZM238 140c0 2.328 6.834 5.833 8.5 5v-4h-4c-1.718-.859-2.387-1-4.5-1Z"/><path fill="#32B825" id="ENTl2" d="m79 229-2 6c-3.963 0-5.282-2.391-8.5-4-19.977-9.989-19.811-22.123-28.5-39.5-1.287-2.574-5.485-16.029-4-19 1.954-3.907 6-21.859 6-26.5v-1l8-4c0 10.787-7.838 37.824-3 47.5 3.796 7.591 8.52 16.041 12 23 1.574 3.147 17.156 17.5 20 17.5ZM379 235l1 1 10.5-6c7.042-3.521 14.678-10.855 18.5-18.5 3.303-6.605 14.985-34.03 11-42-2.92-5.84-6-16.799-6-23.5v-1l-8-4c0 6.43 7.15 34.2 5 38.5-2.406 4.812-1.592 11.183-4 16-3.163 6.325-7.788 11.577-11 18-1.53 3.06-16.076 15.5-19 15.5 0 1.974 2 3.517 2 6Z"/><path fill="#FF7AFE" id="SAG" d="M145 151c.251 0 2.794 5.147 4.5 6 4.901 2.45 9.346 0 13.5 0 0-3.352-3.359-13-8-13-4.646 0-10-1.537-10 6v1Z"/><path fill="#FF64FF" id="MB" fill-rule="evenodd" d="M225 171c0 3.72-6.833 5.834-4 11.5 1.771 3.541 2.673 1.087 5.5 2.5 9.766 4.883 14.202-14-1.5-14m10-5 2 4.5 1.5 8.5.5-4c0-3.177.033-9-4-9m10 23-2 1c0-10.902-8-9.454-8-1-2.922 0-5.468 4-6.5 4-2.049 0-3.891-4-6.5-4-1.149 0-1.508-4.516-2-5.5-2.415-4.829-7 1.261-7 5.5h-2c0-3.77 2-7.021 2-10 1.473 0 1-1.952 1-3v-1l1-2v-4c2.618 0 1.651-3 4-3 0 3.626-4.053 8.394-2 12.5 1.404 2.808 4-11.497 4-12.5 5.859 0 4.132-9.184.5-11-.945-.472-3.5-.156-3.5 1h-1c0-2.043-.591-4-3-4l-3-3c5.148 0 8.29-5 13-5 1.614 0 1 3.31 1 4.5l2 12c.996 1.991 2.656-1.312 3-2l2-15.5c4.827 0 8.217 6 14 6l-3 3c-1.429 0-4 1.288-4 3-4.608 0-11.732 6.884-5.5 10 2.622 1.311.399-6 2.5-6 0 3.477 1.644 10 6 10v6c0 1.048-.473 3 1 3 0 2.95 2 7.018 2 11Z"/><path fill="#FF7AFE" id="SAG" d="m311 153-3.5 4c-1.626.813-8.391 2-10 2l-4.5-2c0-5.523 8-11.783 8-13 5.61 0 10-1.171 10 7v2Z"/><path fill="#FF79FD" id="PBG" d="M145 150c-1.979 0-1.754-7.373-4.5-6-6.071 3.035.565 20.371 4.5 12.5V150ZM311 151c1.829 0 2.185-5.842 4.5-7 1.32-.66 2.5 3.634 2.5 4.5 0 7.607-7 15.94-7 4.5v-2Z"/><path fill="#32B722" id="ENTl1" d="m77 235-1 4-10.5-6c-19.056-9.528-24.068-26.635-32.5-43.5-1.446-2.892-.51-7.019-2-10-3.706-7.413 6-21.708 6-28.5l5-5c0 4.641-4.046 22.593-6 26.5-1.485 2.971 2.713 16.426 4 19 8.689 17.377 8.523 29.511 28.5 39.5 3.218 1.609 4.537 4 8.5 4ZM380 236v3c3.252 0 7.595-4.547 10.5-6 18.687-9.343 23.95-25.399 32.5-42.5 1.18-2.36.779-5.558 2-8 4.865-9.731-6-24.569-6-32.5-2.25 0-2.259-4-5-4 0 6.701 3.08 17.66 6 23.5 3.985 7.97-7.697 35.395-11 42-3.822 7.645-11.458 14.979-18.5 18.5l-10.5 6Z"/><path fill="#FE8DFE" id="Pa4" d="M214 152c2.409 0 3 1.957 3 4 0 7.351-11.552-4-3-4ZM239 155v2l4.5 1c2.036-1.018 2.349-6-.5-6-1.429 0-4 1.288-4 3Z"/><path fill="#CBCBCC" id="mlf" d="M221 165v1c5.859 0 4.132-9.184.5-11-.945-.472-3.5-.156-3.5 1l2 3c1.684 0 1 4.679 1 6ZM239 157c-1.238 0-3 .423-3 2-2.101 0 .122 7.311-2.5 6-6.232-3.116.892-10 5.5-10v2Z"/><path fill="#FFA5FD" id="PPN" d="M169 189h6c3.303 0 5.115-2 8-2l1-1c0-2.086 10.393-5.285 12-8.5 2.711-5.422-14.539-18.52-18.5-20.5-3.686-1.843-7.235 3-10.5 3l-8 7.5c-4.049 8.097-.698 21.5 10 21.5ZM281 189h6c9.411 0 15.392-11.716 11-20.5l-9-8.5c-3.101 0-6.868-4.816-10.5-3-3.61 1.805-20.332 15.836-18.5 19.5 2.089 4.178 13 7.249 13 10.5h2l1 1 5 1Z"/><path fill="#FF64FF" id="MB" d="m221 165-2 1 1-7c1.684 0 1 4.679 1 6Z"/><path fill="#C8C8C8" id="mtg" d="M219 166c0 3.626-4.053 8.394-2 12.5 1.404 2.808 4-11.497 4-12.5v-1l-2 1ZM235 166l2 4.5 1.5 8.5.5-4c0-3.177.033-9-4-9Z"/><path fill="#C8C8CC" id="tspc" d="m211 207-1 1c-2.303 0-2-2.951-2-4.5 0-5.725-3-11.318-3-16.5l3-12c1.014 0 2-3.959 2-5 .106 0 5-6.173 5-1v4l-1 2v1c-1.473 0-1 1.952-1 3 0 2.979-2 6.23-2 10l1 2-1 16ZM245 207l1 1 3-1.5v-13c1.042-2.084 2-2.908 2-5.5v-1c0-4.428-3-8.026-3-12l-2-5c0-1.945-4-4.838-4-1v6c1.473 0 1 1.952 1 3 0 2.95 2 7.018 2 11v18Z"/><path fill="#C9C9CB" id="ll" d="m148 214 3 7-2-3.5c-1.96-3.921-10-6.932-10-11.5l-2-2c0-3.824-3.045-11.409-1-15.5 2.516-5.033 3-11.431 3-17.5 1.602 0 2.384-3.058 4.5-2 3.006 1.503 14.5 20.482 14.5 24l1 10c-2.064 0-.426-3.353-1-4.5-2.202-4.404-3.136-12.818-8.5-15.5-8.324-4.162-11.424 13.651-8.5 19.5 1.495 2.989 7 8.899 7 11.5ZM307 216v2l11-12 1-2c0-3.457 3.928-8.643 2-12.5-2.728-5.456-4-15.155-4-21.5l-3.5-1c-1.246.623-11.352 13.204-12.5 15.5-.54 1.079-2.335 8.5-3 8.5v7c2.064 0 .426-3.353 1-4.5l7.5-12.5c10.97-5.485 10.412 16.675 7.5 22.5l-5 7.5-1 1-1 1v1Z"/><path fill="#CBC9CB" id="scp" d="M210 170c-8.115 0-18.949 1.275-5.5 8l3.5-3c1.014 0 2-3.959 2-5ZM246 170c8.739 0 19 1.25 5.5 8l-3.5-3-2-5Z"/><path fill="#CCC7CC" id="dscp" d="M225 171c0 3.72-6.833 5.834-4 11.5 1.771 3.541 2.673 1.087 5.5 2.5 9.766 4.883 14.202-14-1.5-14Z"/><path fill="#CBC9CB" id="scp" d="m215 173-1 2 1-2ZM242 175c1.473 0 1 1.952 1 3-1.473 0-1-1.952-1-3ZM214 176c-1.473 0-1 1.952-1 3 1.473 0 1-1.952 1-3Z"/><path fill="#FFAC6F" id="NLL" d="m171 262-1 1c-7.044 0-9-7.707-9-14v-9c0-4.281-8.773-26-13-26 0-2.601-5.505-8.511-7-11.5-2.924-5.849.176-23.662 8.5-19.5 5.364 2.682 6.298 11.096 8.5 15.5.574 1.147-1.064 4.5 1 4.5v1c0 17.529 13 28.3 13 45v9l-1 1v3Z"/><path fill="#FD90FE" id="AT" d="M222 189c0 10.086-7.079 1-9 1v-1c0-4.239 4.585-10.329 7-5.5.492.984.851 5.5 2 5.5ZM243 190v1c-3.632 0-8 7.134-8-2 0-8.454 8-9.902 8 1Z"/><path fill="#FFAC6F" id="NLL" d="M285 256c0 2.409 1 5.181 1 7 7.725 0 9-7.25 9-14v-6c0-1.235-.643-5 1-5 0-3.635 7.173-22 11-22v-1l1-1 1-1 5-7.5c2.912-5.825 3.47-27.985-7.5-22.5l-7.5 12.5c-.574 1.147 1.064 4.5-1 4.5 0 1.321.684 6-1 6 0 16.539-12 25.882-12 42v8Z"/><path fill="#32B623" id="ENTm6" d="M83 211v1c2.86 0 6.874 3.813 10.5 2 6.687-3.343 6.5-16.072 6.5-23-6.246 0-12.701-7-17-7l-1 1-1 1c0 8.786 2 16.753 2 25ZM357 191c0 9.005-1.57 18.965 6.5 23 3.325 1.662 6.853-2 9.5-2 0-9.817 2-17.396 2-27l-2-1c0 1.316-13.546 7-16 7Z"/><path fill="#FFC295" id="PRNr" d="m178 247 8.5 9c3.739 1.87 3.444-1 6.5-1 0-9.583 9.3-27 20-27l1-7v-1l-1-1-1-7-2-4c-2.303 0-2-2.951-2-4.5 0-5.725-3-11.318-3-16.5l-4.5-2c-4.296-2.148-12.46 1-16.5 1l-1 1c-2.885 0-4.697 2-8 2l-11 5.5 1 3.5c11.312 0 3 13.294 3 17 0 4.569 1 8.923 1 13v1l2 3v1l1 1c0 4.296 6 8.177 6 13ZM263 255c1.602 0 2.384 3.058 4.5 2l4.5-2 1-1 1-1 1-1 1-2 3-4c0-4.462 5-7.233 5-11l1-1v-1l1-1v-1l1-1v-1l1-2 1-12c-2.246 0-6.748-17 2-17l2-2.5c0-4.166-12-4.018-12-6.5l-5-1-1-1h-2l-4.5-2c-5.029-2.515-12.55 2-16.5 2l-1 1c0 2.592-.958 3.416-2 5.5v13l-3 1.5-1 1v3l-1 1-1 8c0 2.409 1 5.181 1 7 4.079 0 14.949 9.398 17 13.5 1.954 3.909 2 8.753 2 13.5Z"/><path fill="#FF8FFD" id="MRN" d="m184 186-1 1 1-1Z"/><path fill="#FF64FF" id="MB" d="m252 187-1 1v-1h1ZM275 187l1 1-1-1Z"/><path fill="#FF9B88" id="P" d="M168 215c0 4.569 1 8.923 1 13-1.073 0-6.933-14.366-8-16.5-.652-1.303-.219-7.5-2-7.5v-1l-1-10c1.051 0 11-3.365 11-4h6l-11 5.5 1 3.5c-5.607 0-2.903 17 3 17ZM213 190l-1 1-1-2h2v1Z"/><path fill="#FFC393" id="CS" d="M231 230c-1.93 0-1.488-11-2.5-11-1.588 0-2.5 10.791-2.5 12-1.812 0-4.82-3-7-3l-4-4.5c-.459-.919.765-2.5-1-2.5v-1l-1-1-1-7-1-5 1-16 1-1c1.921 0 9 9.086 9-1 2.609 0 4.451 4 6.5 4 1.032 0 3.578-4 6.5-4 0 9.134 4.368 2 8 2l2 4v17l-1 1-1 8c-1.097 0-5 5.986-5 7l-7 2Z"/><path fill="#FF9B88" id="P" d="m243 191 2 4v-6l-2 1v1ZM289 215l-1 12c2.218 0 5.935-12.369 7-14.5.65-1.3.007-6.5 2-6.5 0-1.321-.684-6 1-6v-7c0-2.615-11-1.719-11-4h-6c0 2.482 12 2.334 12 6.5l-2 2.5c7.633 0 2.222 17-2 17Z"/><path fill="#30B724" id="ENTm5" d="m83 212-2 10c5.118 0 10.027 3.737 15.5 1 5.128-2.564 8.658-18 10.5-18 0-1.41-5.452-14-6-14h-1c0 6.928.187 19.657-6.5 23-3.626 1.813-7.64-2-10.5-2ZM376 221v1c-7.865 0-10.846 2.827-18.5-1-3.019-1.51-6.374-16-7.5-16l5-14h2c0 9.005-1.57 18.965 6.5 23 3.325 1.662 6.853-2 9.5-2 0 .877 2.665 9 3 9Z"/><path fill="#C8C8CB" id="rust" d="M165 198c11.312 0 3 13.294 3 17-5.903 0-8.607-17-3-17ZM291 198c7.633 0 2.222 17-2 17-2.246 0-6.748-17 2-17Z"/><path fill="#C9C9CB" id="ll" d="M298 200c-1.684 0-1 4.679-1 6 1.684 0 1-4.679 1-6Z"/><path fill="#F0F080" id="CB" d="m139 206-5 2c0-2.061.902-4 3-4l2 2Z"/><path fill="#C9C9CB" id="ll" d="M172 249h5l1-2c0-4.823-6-8.704-6-13l-1-1v-1c-1.577 0-2-1.762-2-3v-1c-1.073 0-6.933-14.366-8-16.5-.652-1.303-.219-7.5-2-7.5 0 17.529 13 28.3 13 45Z"/><path fill="#F0F080" id="CB" d="m318 206 6 4c0-2.112-2.737-6-5-6l-1 2Z"/><path fill="#31B723" id="ENTm3" d="m81 222-2 7 4.5 2c7.347 3.673 13.928-1.464 19-4 2.468-1.234 6.097-17 7.5-17l-3-5c-1.842 0-5.372 15.436-10.5 18-5.473 2.737-10.382-1-15.5-1ZM376 222l1 7c-3.803 0-10.117 5.191-14.5 3-8.141-4.071-15.5-13.349-15.5-23l3-4c1.126 0 4.481 14.49 7.5 16 7.654 3.827 10.635 1 18.5 1Z"/><path fill="#CCCCCA" id="mcp" d="M157 256c0 2.787 1.212 1-2 1 0-.317-14.43-17.93-17-20.5l-6-5.5c0-4.425-1-9.961-1-15v-1c1.473 0 1-1.952 1-3v-1l1-1v-1l1-1 5-2c0 4.568 8.04 7.579 10 11.5l2 3.5v1l-2.5-3c-1.969 0-.868 2.764-.5 3.5l6 11c1.687 3.374-2.646 14.5 3 14.5v8Z"/><path fill="#C9C9CB" id="ll" d="M279 246c0 5.196 3.139 2 6 2 0-16.118 12-25.461 12-42-1.993 0-1.35 5.2-2 6.5-1.065 2.131-4.782 14.5-7 14.5l-1 2v1l-1 1v1l-1 1v1l-1 1c0 3.767-5 6.538-5 11Z"/><path fill="#CCCCCA" id="mcp" d="m302 256-3 1v-10c1.344 0 1.883 1.735 3-.5v-11c2.183-4.366 4.765-8.53 7-13 1.515-3.031-.955-2.5-2-2.5v-2l11-12 6 4v1l1 2v1c0 5.587-1 12.081-1 17 0 1.64-22 23.409-22 25Z"/><path fill="#FF9B88" id="P" d="m210 208 2 4-1-5-1 1ZM246 208l-1 1v-2l1 1Z"/><path fill="#F0F080" id="CB" d="m134 208-1 1 1-1Z"/><path fill="#30B824" id="ENTm2" d="M377 229c0 1.974 2 3.517 2 6l-4.5 2c-5.842 2.921-15.018.491-20-2-5.95-2.975-7.039-12.577-9.5-17.5-.659-1.319.334-5.5-2-5.5l4-3c0 9.651 7.359 18.929 15.5 23 4.383 2.191 10.697-3 14.5-3ZM79 229l-2 6c4.882 0 12.846 5.827 18.5 3 8.819-4.409 11.369-10.238 15.5-18.5v-4l2-3.5-3-2c-1.403 0-5.032 15.766-7.5 17-5.072 2.536-11.653 7.673-19 4l-4.5-2Z"/><path fill="#F0F080" id="CB" d="m133 210-1 1 1-1ZM324 211l1 2-1-2Z"/><path fill="#31B625" id="ENTm1" d="m77 235-1 4c5.662 0 13.717 7.391 20.5 4 10.794-5.397 18.5-16.238 18.5-29l-2-2-2 3.5v4c-4.131 8.262-6.681 14.091-15.5 18.5-5.654 2.827-13.618-3-18.5-3Z"/><path fill="#F0F080" id="CB" d="M132 212c-1.473 0-1 1.952-1 3 1.473 0 1-1.952 1-3Z"/><path fill="#FF9B88" id="P" d="m245 212-1 1 1-1Z"/><path fill="#31B625" id="ENTm1" d="M380 236v3c-5.515 0-13.764 7.368-20.5 4-10.227-5.113-18.5-17.377-18.5-29l2-2c2.334 0 1.341 4.181 2 5.5 2.461 4.923 3.55 14.525 9.5 17.5 4.982 2.491 14.158 4.921 20 2l4.5-2 1 1Z"/><path fill="#FF9B88" id="P" d="m309 213-1 1 1-1Z"/><path fill="#FF9B88" id="P" fill-rule="evenodd" d="M159 237c0 3.746 2.091 0 0 0m-1 8 2 2c0-1.406-.714-7 1-7 0-4.281-8.773-26-13-26l3 7v2l2 4v1l1 1v1l1 1 3 14Z"/><path fill="#FF9B88" id="P" d="m308 214-1 1 1-1Z"/><path fill="#F0F080" id="CB" d="M333 230c-3.222 0-6.277 1-9 1 0-4.919 1-11.413 1-17 1.993 0 1.35 5.2 2 6.5.966 1.932 6 8.531 6 9.5ZM124 230l8 1c0-4.425-1-9.961-1-15-1.993 0-1.35 5.2-2 6.5l-5 7.5Z"/><path fill="#FF9B88" id="P" fill-rule="evenodd" d="M298 258c0 1.93 1.93 0 0 0m-59 24 21 1 7 1.5-2 1.5c11.713 0 17.914-6.207 27.5-11l9-9 10.5-5c-3.415 0-10-.792-10-5l-3 1c-3.203 0-3.203-12 0-12 0-4.99 2-8.551 2-13l1-1v-1l1-1v-2l1-1v-2l1-1v-1l1-1v-1l1-1v-3c-3.827 0-11 18.365-11 22 2.112 0 0 5.567 0 0-1.643 0-1 3.765-1 5 1.587 0 1.587 6 0 6 0 6.75-1.275 14-9 14 0 2.014 2.284 5.932 1 8.5-4.156 8.312-14.041 14.918-20 3-3.712-7.424 5-15.139 5-19.5l-4.5 2c-2.116 1.058-2.898-2-4.5-2 0 5.068-1.555 8-7 8 0 1.947 3.428 3.644 2 6.5-2.259 4.519-9.894 7.211-13 1-1.736-3.473 2-7.052 2-8.5l-16.5-2c-3.843-1.922.5-25.865.5-30-1.93 0-1.488-11-2.5-11-1.588 0-2.5 10.791-2.5 12l1 27.5c-1.493 2.986-13.935 3.5-17 3.5l2 5.5c-3.733 7.465-10.034 8.932-14 1l2-5.5c-5.215 0-7-3.084-7-8-3.056 0-2.761 2.87-6.5 1l-8.5-9-1 2c2.554 0 5.032 3.564 6 5.5 1.558 3.116 9.665 10.671 7 16l-3 8c-4.077 8.154-14.606-1.211-17-6-1.819-3.639 0-5.981 0-9.5-7.044 0-9-7.707-9-14l-1-1c-3.43 0 1.986 8-3 8 0 2.787 1.212 1-2 1-1.827 0-5.717 4-10 4l11.5 6 3 4c11.356 5.678 17.63 15 31.5 15l-2-1.5 7-1.5 21-1h1l11.5-3c2.756 1.378 6.269 3 9.5 3Z"/><path fill="#CCCBCA" id="moV" d="m158 245-1 3c-5.646 0-1.313-11.126-3-14.5l-6-11c-.368-.736-1.469-3.5.5-3.5l2.5 3v1l2 4v1l1 1v1l1 1 3 14Z"/><path fill="#FF9B88" id="P" d="m213 219 1 1-1-1Z"/><path fill="#C9C9CB" id="ll" d="M306 220h1v-1l-1 1Z"/><path fill="#CCCBCA" id="moV" d="M299 245v2c1.344 0 1.883 1.735 3-.5v-11c2.183-4.366 4.765-8.53 7-13 1.515-3.031-.955-2.5-2-2.5l-1 1v1l-1 1v1l-1 1v1l-1 1v2l-1 1v1l-1 1c0 4.449-2 8.01-2 13Z"/><path fill="#CCCCCA" id="mcp" d="m307 220-1 1v-1h1Z"/><path fill="#FF9B88" id="P" d="M213 228h6l-4-4.5c-.459-.919.765-2.5-1-2.5l-1 7ZM238 228h6c0-1.819-1-4.591-1-7-1.097 0-5 5.986-5 7Z"/><path fill="#C9C9CB" id="ll" d="M305 222h1v-1l-1 1Z"/><path fill="#CCCCCA" id="mcp" d="m306 222-1 1v-1h1ZM151 223l2 4-2-4Z"/><path fill="#C9C9CB" id="ll" d="M304 224h1v-1l-1 1Z"/><path fill="#CCCCCA" id="mcp" d="m305 224-1 1v-1h1ZM304 226l-1 1 1-1Z"/><path fill="#FF9B88" id="P" d="m288 227-1 2 1-2Z"/><path fill="#CCCCCA" id="mcp" d="m153 228 1 1-1-1Z"/><path fill="#FEBA85" id="TRN" fill-rule="evenodd" d="m219 237-1 7.5 2 7c5.814 11.627 10.306-14.5-1-14.5m-9 25c-3.51 0-7.022 1-10 1-5.215 0-7-3.084-7-8 0-9.583 9.3-27 20-27h6c2.18 0 5.188 3 7 3l1 27.5c-1.493 2.986-13.935 3.5-17 3.5ZM234 237l-3 6v5.5c0 18.193 14.37-11.5 3-11.5m13 25c3.222 0 6.277 1 9 1 5.445 0 7-2.932 7-8 0-4.747-.046-9.591-2-13.5-2.051-4.102-12.921-13.5-17-13.5h-6l-7 2c0 4.135-4.343 28.078-.5 30l16.5 2Z"/><path fill="#FF9B88" id="P" d="m169 229 2 3c-1.577 0-2-1.762-2-3Z"/><path fill="#CCCCCA" id="mcp" d="m303 229-1 1 1-1Z"/><path fill="#CACACB" id="sV" d="M155 257c-1.827 0-5.717 4-10 4-11.193 0-19.91-4.32-25-14.5-1.695-3.391 1-9.589 1-12.5l1-1c0-1.238.423-3 2-3l8 1 6 5.5c2.57 2.57 17 20.183 17 20.5Z"/><path fill="#CCCCCA" id="mcp" d="m154 230 1 1-1-1Z"/><path fill="#FF9B88" id="P" d="m287 230-1 1 1-1Z"/><path fill="#CACACB" id="sV" d="M302 256c0 4.208 6.585 5 10 5 8.728 0 19.658-3.815 23-10.5l1-6c.523-1.047 1.748-2.505 1-4-1.229-2.458-.794-5.587-2-8l-2-2.5c-3.222 0-6.277 1-9 1 0 1.64-22 23.409-22 25Z"/><path fill="#CCCCCA" id="mcp" d="m302 231-1 1 1-1Z"/><path fill="#FF9B88" id="P" d="m286 232-1 1 1-1ZM122 233l-1 1 1-1ZM171 233l1 1-1-1ZM285 234l-1 1 1-1Z"/><path fill="#CBC7CC" id="sctv" d="M159 237c0 3.746 2.091 0 0 0Z"/><path fill="#CACCC8" id="ml" d="m219 237-1 7.5 2 7c5.814 11.627 10.306-14.5-1-14.5ZM234 237l-3 6v5.5c0 18.193 14.37-11.5 3-11.5Z"/><path fill="#CBC7CC" id="sctv" d="M296 238c0 5.567 2.112 0 0 0ZM160 248l1 1v-9c-1.714 0-1 5.594-1 7v1ZM295 243c1.587 0 1.587 6 0 6v-6Z"/><path fill="#FDB986" id="PC5" d="M160 248c-3.43 0 1.986 8-3 8v-8l1-3 2 2v1ZM299 247v10c-3.203 0-3.203-12 0-12v2Z"/><path fill="#FF9B88" id="P" d="M276 250c2.112 0 3.332-1.084 5.5 0 2.04 1.02 2.424 6 3.5 6v-8c-2.861 0-6 3.196-6-2l-3 4ZM177 249l-5 4v-4h5Z"/><path fill="#FEAD6F" id="POR" d="m171 262-1 1c0 3.519-1.819 5.861 0 9.5 2.394 4.789 12.923 14.154 17 6l3-8c2.665-5.329-5.442-12.884-7-16-.968-1.936-3.446-5.5-6-5.5l-5 4v5l-1 1v3ZM285 256c0 2.409 1 5.181 1 7 0 2.014 2.284 5.932 1 8.5-4.156 8.312-14.041 14.918-20 3-3.712-7.424 5-15.139 5-19.5l1-1 1-1 1-1 1-2c2.112 0 3.332-1.084 5.5 0 2.04 1.02 2.424 6 3.5 6Z"/><path fill="#FF9B88" id="P" d="m275 252-1 1 1-1ZM273 254l-1 1 1-1ZM172 258l-1 1 1-1Z"/><path fill="#CCCCCA" id="mcp" d="M298 258c0 1.93 1.93 0 0 0Z"/><path fill="#FF9B88" id="P" d="m171 262-1 1 1-1Z"/><path fill="#C8C7CC" id="cst" d="M210 262c-3.51 0-7.022 1-10 1l-2 5.5c3.966 7.932 10.267 6.465 14-1l-2-5.5ZM247 262c3.222 0 6.277 1 9 1 0 1.947 3.428 3.644 2 6.5-2.259 4.519-9.894 7.211-13 1-1.736-3.473 2-7.052 2-8.5Z"/><path fill="#CCC7CB" id="tb" d="M200 286h1l2-1h2c0-3.087 6.96-2 9-2h3v-1l-21 1-7 1.5 2 1.5h9Z"/><path fill="#FF9BCD" id="MY" d="m218 282-1 1v-1h1Z"/><path fill="#CCC7CB" id="tb" d="M258 286h7l2-1.5-7-1.5-21-1c0 1.579 2.855 1 4 1 1.949 0 8-.991 8 2h2c1.048 0 3-.473 3 1h2Z"/><path fill="#FF9BCD" id="MY" d="M214 283c-2.04 0-9-1.087-9 2 1.242 0 9-1.019 9-2ZM243 283c1.949 0 8-.991 8 2-.981 0-8-1.184-8-2ZM203 285l-2 1 2-1ZM253 285c1.048 0 3-.473 3 1-1.048 0-3 .473-3-1Z"/><path fill="#FF9B88" id="P" d="M198 286v1c-1.321 0-6 .684-6-1h6Z"/><path fill="#FF9BCD" id="MY" d="m200 286-2 1v-1h2ZM258 286v1l-1-1h1Z"/><path fill="#FF9B88" id="P" d="M265 286c0 1.714-5.594 1-7 1v-1h7Z"/></svg>