<svg xmlns="http://www.w3.org/2000/svg" viewBox="0 0 456 320"><path fill="#FEFA90" id="DEC" d="M195 105c2.409 0 1.055-1.277 2.5-2 8.412-4.206 2.334-9.168 5.5-15.5 1.186-2.372 7.426-1.463 9.5-2.5 2.291-1.146 27.487-2.256 30-1 3.138 1.57 9.592.683 11.5 4.5 1.349 2.699-2.875 16.5 8 16.5 6.693 0 12.342-4 19-4l1-1 1-1c0-7.256 7-12.713 7-20l-8.5-6-20-10c-8.978-4.49-37.283-3-49-3-12.655 0-23.476 5.738-34 11-3.291 1.645-8.92 8-12.5 8l9 22 20 4Z"/><path fill="#FCFC90" id="ANcr1" d="M139 85c9.835 0 17.42 1.96 25.5 6 2.312 1.156 7.132 10 10.5 10l-9-22c-6.015 0-27-1.746-27 6ZM318 85c-8.952 0-17.103 1.302-24.5 5-4.187 2.094-6.546 9-10.5 9 0-7.256 7-12.713 7-20 5.467 0 28-1.682 28 6Z"/><path fill="#CBC9CC" id="arb" fill-rule="evenodd" d="M225 87c0 4.385-7.093 2.686-10 8.5-1.849 3.697 3.12 5.24 4 7 1.2 2.401 1.391.445 3.5 1.5l3 4c4.64 2.32 18.114-7.273 15.5-12.5-2.049-4.097-6.821-4.642-7-5-1.693-3.387-5.014-3.5-9-3.5m-56 30-1 1-11 10.5-28 28c-1.782 3.563-9.001 5.997-6 12 .631 1.263 4.275-5.275 5-6l11-13c1.094-2.188 25.337-24.919 30.5-27.5 3.389-1.694 6.555-7 10.5-7l4.5-2H197c17.227 0 35.416 1 53 1l21.5-1 5.5 2c4.996 0 10.092 8.796 14.5 11 11.364 5.682 18.365 21.683 29 27l9 11 3.5 3.5c2.168-4.337-2.918-6.836-4-9L297.5 127 287 117c0-2.326-7.158-5-9-5-2.209 0-16-4.417-16-7-10.875 0-6.651-13.801-8-16.5-1.908-3.817-8.362-2.93-11.5-4.5-2.513-1.256-27.709-.146-30 1-2.074 1.037-8.314.128-9.5 2.5-3.166 6.332 2.912 11.294-5.5 15.5-1.445.723-.091 2-2.5 2 0 1.776-13.522 6-16 6 0 .384-9.888 6-10 6Z"/><path fill="#FCFA91" id="ANcr2" fill-rule="evenodd" d="M146 112c0 1.804-10.643.213-9 3.5.704 1.407 18.05-3.5 9-3.5m22 6c-5.295 0-10.97 4.735-15.5 7-14.142 7.071-27.826 15.913-42 23-4.722 2.361-12.122 8-17.5 8-16.176 0-7.693-19.115-4-26.5l6-10c1.152-2.305.796-5.593 2-8 5.439-10.878 29.652-26.5 42-26.5 9.835 0 17.42 1.96 25.5 6 2.312 1.156 7.132 10 10.5 10 0 1.368 2.741 10 4 10 0 .384-9.888 6-10 6l-1 1ZM307 112c0 2.401 9.972 4 12.5 4 1.853 0-2.79-3-4-3h-4l-4.5-1m-20 5c5.03 0 12.046 5.773 16.5 8 13.722 6.861 27.261 15.131 41 22 5.075 2.537 12.735 9 18.5 9 16.982 0 7.702-20.097 4-27.5-6.999-13.997-14.756-29.628-30.5-37.5l-7-2c-3.326-1.663-7.592-4-11.5-4-8.952 0-17.103 1.302-24.5 5-4.187 2.094-6.546 9-10.5 9l-1 2-1 1c0 3.11-3 6.535-3 10 1.842 0 9 2.674 9 5Z"/><path fill="#FEFA90" id="DEC" d="M225 87c0 4.385-7.093 2.686-10 8.5-1.849 3.697 3.12 5.24 4 7 1.2 2.401 1.391.445 3.5 1.5l3 4c4.64 2.32 18.114-7.273 15.5-12.5-2.049-4.097-6.821-4.642-7-5-1.693-3.387-5.014-3.5-9-3.5Z"/><path fill="#FCFC90" id="ANcr1" d="M282 100v1l1-2-1 1Z"/><path fill="#FDFB90" id="FOTU" d="M281 101h1v-1l-1 1ZM195 105c0 1.776-13.522 6-16 6-1.259 0-4-8.632-4-10l20 4ZM262 105c0 2.583 13.791 7 16 7 0-3.465 3-6.89 3-10v-1c-6.658 0-12.307 4-19 4Z"/><path fill="#FCFC90" id="ANcr1" d="m282 101-1 1v-1h1Z"/><path fill="#CBC9CC" id="arb" d="M146 112c0 1.804-10.643.213-9 3.5.704 1.407 18.05-3.5 9-3.5ZM307 112c0 2.401 9.972 4 12.5 4 1.853 0-2.79-3-4-3h-4l-4.5-1Z"/><path fill="#FDFB90" id="FOTU" d="m182 131 9.5-4c8.203-4.101 26.826-4 37-4h12c4.858 2.429 12.213-.393 17 2 4.152 2.076 12.91 6 17.5 6 0-5.763 2-10.837 2-16l-5.5-2-21.5 1c-17.584 0-35.773-1-53-1h-12.5l-4.5 2 2 16Z"/><path fill="#FFFB8E" id="PRM" d="M124 198h1l2-1c0-1.668 3.099-6 5-6 0-5.952 6.504-9.508 9-14.5l26-33c3.136-3.136 10.722-11.5 15-11.5v-1l-2-16c-3.945 0-7.111 5.306-10.5 7-5.163 2.581-29.406 25.312-30.5 27.5l-11 13c-.725.725-4.369 7.263-5 6-3.001-6.003 4.218-8.437 6-12l28-28 11-10.5c-5.295 0-10.97 4.735-15.5 7-14.142 7.071-27.826 15.913-42 23-4.722 2.361-12.122 8-17.5 8 0 2.092-4.329 5.843-3 8.5 1.814 3.628 1.178 8.356 3 12 5.646 11.293 16.971 22.5 30 22.5l1-1ZM332 198l1 1c18.286 0 26.296-17.092 33-30.5 2.301-4.603-3-11.061-3-12.5-5.765 0-13.425-6.463-18.5-9-13.739-6.869-27.278-15.139-41-22-4.454-2.227-11.47-8-16.5-8l10.5 10 31.5 31.5c1.082 2.164 6.168 4.663 4 9l-3.5-3.5-9-11c-10.635-5.317-17.636-21.318-29-27-4.408-2.204-9.504-11-14.5-11 0 5.163-2 10.237-2 16v1c4.214 0 11.404 8.904 14.5 12 5.985 5.985 19.67 21.84 23.5 29.5 3.12 6.24 11 9.987 11 17.5 1.563 0 7 5.158 7 7h1ZM169 117l-1 1 1-1Z"/><path fill="#FBFC91" id="PYR" d="M183 144c1.774 0 13.869-7.685 16.5-9 7.17-3.585 25.628-.314 31-3 3.803-1.901 29.438 4.219 33 6l9.5 6c.711 0 2-10.88 2-12v-1c-4.59 0-13.348-3.924-17.5-6-4.787-2.393-12.142.429-17-2h-12c-10.174 0-28.797-.101-37 4l-9.5 4v1l1 12Z"/><path fill="#FFF990" id="COPY" fill-rule="evenodd" d="M150 183c0 1.93 1.93 0 0 0m1-1c0 1.93 1.93 0 0 0m1-1c0 1.93 1.93 0 0 0m2-2c0 4.136 2.609 0 0 0m-7 18h1l1-1c0-1.768 18-10.766 18-14l2-1c0-4.551 4-9.719 4-10-6.407 0 6-7.395 6-8l4-6v-8c-2.268 0-4.228 5.956-5 7.5-2.229 4.457-10.631 14.566-14.5 16.5l-7 6 5.5-6.5 21-28.5-1-12c-4.278 0-11.864 8.364-15 11.5l-26 33c-2.496 4.992-9 8.548-9 14.5.937 0 3.235 6.867 5.5 8 3.379 1.69 6.661-2 9.5-2Z"/><path fill="#CBC9CC" id="arb" d="M183 149c0-6.551 13.054-8.277 16.5-10 12.165-6.082 45.843-6.079 58 0 3.798 1.899 15.5 3.828 15.5 10 3.013 0 5.749 6.999 7 9.5 1.856 3.712 21.151 24.5 24.5 24.5L294 171.5 280.5 153l-7.5-9-9.5-6c-3.562-1.781-29.197-7.901-33-6-5.372 2.686-23.83-.585-31 3-2.631 1.315-14.726 9-16.5 9l-21 28.5-5.5 6.5 7-6c3.869-1.934 12.271-12.043 14.5-16.5.772-1.544 2.732-7.5 5-7.5Z"/><path fill="#FFF990" id="COPY" d="M324 191c0 13.632-12.266 5-16 5-4.932 0-14.685-13-18-13l-2-2c0-4.679-4-8.117-4-10 2.62 0-3.861-7-6-7l-5-8v-7c3.013 0 5.749 6.999 7 9.5 1.856 3.712 21.151 24.5 24.5 24.5L294 171.5 280.5 153l-7.5-9c.711 0 2-10.88 2-12 4.214 0 11.404 8.904 14.5 12 5.985 5.985 19.67 21.84 23.5 29.5 3.12 6.24 11 9.987 11 17.5Z"/><path fill="#FBFC91" id="PYR" d="M273 156c-3.37 0-6.626-3.563-9.5-5-9.67-4.835-27.092-4-39-4h-13c-6.925 3.463-15.996 2.498-23 6l-5.5 4v-8c0-6.551 13.054-8.277 16.5-10 12.165-6.082 45.843-6.079 58 0 3.798 1.899 15.5 3.828 15.5 10v7Z"/><path fill="#FFFA8F" id="UVU" d="M179 163c16.187 0 31.6-1 46.5-1l18-1c7.925 3.963 25.455 3 34.5 3l-5-8c-3.37 0-6.626-3.563-9.5-5-9.67-4.835-27.092-4-39-4h-13c-6.925 3.463-15.996 2.498-23 6l-5.5 4-4 6Z"/><path fill="#CBC9CC" id="arb" d="M173 171c2.565 0 13.056-2.778 15.5-4 6.815-3.408 27.382 1.809 37-3 3.578-1.789 8.818 2 12.5 2l30.5 1c3.801 1.9 11.181 4 15.5 4 2.62 0-3.861-7-6-7-9.045 0-26.575.963-34.5-3l-18 1c-14.9 0-30.313 1-46.5 1 0 .605-12.407 8-6 8Z"/><path fill="#FFFA8F" id="UVU" d="M219 194h1l1-1h14c13.83 0 27.144-1.822 39.5-8h5l7.5-3 1-1c0-4.679-4-8.117-4-10-4.319 0-11.699-2.1-15.5-4l-30.5-1c-3.682 0-8.922-3.789-12.5-2-9.618 4.809-30.185-.408-37 3-2.444 1.222-12.935 4-15.5 4 0 .281-4 5.449-4 10l2 2 5.5 2h5c10.723 5.362 24.68 9 37.5 9Z"/><path fill="#CBC9CC" id="arb" d="M154 179c0 4.136 2.609 0 0 0ZM152 181c0 1.93 1.93 0 0 0Z"/><path fill="#F0F080" id="CB" d="m167 182 4 1-2-2-2 1ZM287 182l3 1-2-2-1 1Z"/><path fill="#CBC9CC" id="arb" d="M151 182c0 1.93 1.93 0 0 0ZM150 183c0 1.93 1.93 0 0 0Z"/><path fill="#FF9BCD" id="MY" d="m170 187-1 1 1-1Z"/><path fill="#FFA2D2" id="ECU" d="M188 192c0 2.703-6.334 9-9 9 0-2.357-6.029-1.264-7.5-2-6.191-3.095-5.5-4.248-5.5-10h1l1-1h1l1-1c4.107 0 8.469 1 12 1l1 1h2l1 1h1l1 2Z"/><path fill="#FF9BCD" id="MY" d="m277 187-1 1 1-1Z"/><path fill="#FFA2D2" id="ECU" d="M268 192c0 3.2 7.093 9 10 9 0-1.961 9.808-3.154 11.5-4 4.561-2.28.5-5.423.5-8h-1l-2-2h-10l-1 1h-1l-1 1-4 1-1 1-1 1Z"/><path fill="#FF9BCD" id="MY" d="m287 187 2 2-2-2ZM168 188l-1 1 1-1ZM182 188l1 1-1-1ZM275 188l-1 1 1-1ZM176 215c6.572 0 11.344 4 17 4l-3-3.5 2-5.5-4-1c-3.116 0-18.135-8-9-8 0-2.357-6.029-1.264-7.5-2-6.191-3.095-5.5-4.248-5.5-10-10.724 0-37 29.501-37 40 1.845 0 1.441-3.381 2-4.5l11-13.5c.004 0 7.885-11 14-11 0-2.448 11.72-3.06 13-.5l-2 2.5c4.28 0 11 3.577 11 8.5l-2 4.5ZM185 189l1 1-1-1ZM280 215c-6.425 0-11.39 4-17 4l4-4.5-4-5.5h5c3.811 0 7.314-2.407 10.5-4 1.371-.686 1.792-4-.5-4 0-1.961 9.808-3.154 11.5-4 4.561-2.28.5-5.423.5-8 4.252 0 6.941 4.221 10.5 6 11.099 5.549 21.206 18.913 26.5 29.5l3 11c2.488 4.976-3.377 29.5-7 29.5 0-3.908 2.337-8.174 4-11.5 4.344-8.688.86-22.28-3-30-1.582-3.165-5.571-10.5-9-10.5v-1l-2-2c0-5.102-8.214-10-13-10 0-2.588-13-3.218-13 .5l3 1.5c-9.751 0-10 5.727-10 13ZM189 191l-1 1-1-2 2 1ZM270 190l-1 1 1-1Z"/><path fill="#F0F080" id="CB" d="m127 197 6.5 4c3.215 1.608 13.5-.601 13.5-4-2.839 0-6.121 3.69-9.5 2-2.265-1.133-4.563-8-5.5-8-1.901 0-5 4.332-5 6Z"/><path fill="#FDA5D0" id="CU" d="M179 201c-9.135 0 5.884 8 9 8 0-2.731 10.894-9 13-9 0-5.885-4-4.839-4-7h-2c-1.041 0-5-.986-5-2h-1l-1 1c0 2.703-6.334 9-9 9Z"/><path fill="#FF9BCD" id="MY" d="M190 191c1.424 0 5 .362 5 2-1.041 0-5-.986-5-2ZM266 191l-2 1 2-1Z"/><path fill="#FDA5D0" id="CU" d="M278 201c2.292 0 1.871 3.314.5 4-3.186 1.593-6.689 4-10.5 4 0-3.281-10.534-9-13-9 0-5.173 3-4.803 3-6l1-1h2c1.048 0 3 .473 3-1l2-1h2v1c0 3.2 7.093 9 10 9Z"/><path fill="#FF9BCD" id="MY" d="m269 191-1 1v-1h1Z"/><path fill="#F0F080" id="CB" d="M308 196c0 3.91 11.534 6.483 14.5 5l6-4 2.5 1c0-1.842-5.437-7-7-7 0 13.632-12.266 5-16 5Z"/><path fill="#FF9BCD" id="MY" d="M264 192c-1.048 0-3-.473-3 1 1.048 0 3 .473 3-1ZM201 200l2 1 8-5c-4.795 0-9.549-3-14-3 0 2.161 4 1.115 4 7ZM221 194h6v-1h-6v1ZM229 194h6v-1h-6v1ZM259 193l-1 1 1-1ZM221 194l-2 1v-1h2Z"/><path fill="#FFA5D0" id="AP" d="M228 210h1c0-6.042 10-7.701 10-14v-1h-2l-1-1h-15l-2 1h-2v1c0 2.641 6.681 9.181 8.5 11l2.5 3Z"/><path fill="#FF9BCD" id="MY" d="m236 194 1 1-1-1ZM255 200l-2 1-8-5 13-2c0 1.197-3 .827-3 6ZM215 196h2v-1l-2 1ZM239 196h2l-2-1v1Z"/><path fill="#F0F080" id="CB" d="m149 196-1 1 1-1Z"/><path fill="#FDA5D1" id="NTS" fill-rule="evenodd" d="M253 205c0 7.975 4.275 0 0 0m-52 0c0 7.751 6.007 0 0 0m57 16h1l2-1 2-1 4-4.5-4-5.5c-1.717 0-10-6.218-10-8l-8-5h-6c0 6.299-10 7.958-10 14 0 1.186-1 1.186-1 0l-2.5-3c-1.819-1.819-8.5-8.359-8.5-11h-6l-8 5c0 2.247-8.402 9-11 9l-2 5.5 3 3.5h1l3 2h1c3.233 0 4.452-4 6-4 0-10.457 19-12.89 19 0h5c0-1.186 1-1.186 1 0 0 1.579 2.855 1 4 1 0-14.314 20-11.547 20-1 0 2.96 2.399 4 5 4Z"/><path fill="#F0F080" id="CB" d="m127 197-2 1 2-1ZM124 198l-1 1 1-1Z"/><path fill="#C8CACA" id="sptV" d="M161 203h1l2-1h3l2-2.5c-1.28-2.56-13-1.948-13 .5 4.663 0 5-.919 5 3ZM294 203h1c0-3.919.337-3 5-3 0-2.588-13-3.218-13 .5l3 1.5h3l1 1Z"/><path fill="#F0F080" id="CB" d="m332 198 1 1-1-1Z"/><path fill="#FDA3D1" id="Pa5" d="m147 212-1 1c-3.351 0-4 3.588-4-2 .004 0 7.885-11 14-11 4.663 0 5-.919 5 3l-1 1-1 2-1 1-1 1-1 1-1 1-1 1h-1c-2.124 0-4.436 1-6 1Z"/><path fill="#FFB2D6" id="PAS" d="m188 209 4 1c2.598 0 11-6.753 11-9l-2-1c-2.106 0-13 6.269-13 9ZM263 209h5c0-3.281-10.534-9-13-9l-2 1c0 1.782 8.283 8 10 8Z"/><path fill="#FDA3D1" id="Pa5" d="M315 212v1c0 4.553-5.662-2-7-2h-5l-2-1-5-6-1-1c0-3.919.337-3 5-3 4.786 0 13 4.898 13 10l2 2Z"/><path fill="#FF9BCD" id="MY" d="m164 202-2 1 2-1Z"/><path fill="#FDA5D2" id="SPVI" d="m176 215-2 1-9.5-6-9.5 1v-1l1-1 1-1 1-1 1-1 1-2 1-1h1l2-1h3c4.28 0 11 3.577 11 8.5l-2 4.5ZM282 216h1c0-6.716 14.533-5 18-5v-1l-5-6-1-1h-1l-1-1h-3c-9.751 0-10 5.727-10 13h1l1 1Z"/><path fill="#FF9BCD" id="MY" d="m293 202 1 1-1-1ZM161 203l-1 1 1-1ZM295 203l1 1-1-1Z"/><path fill="#C8CAC7" id="ts" d="M201 205c0 7.751 6.007 0 0 0ZM253 205c0 7.975 4.275 0 0 0Z"/><path fill="#FF9BCD" id="MY" d="m159 206-1 1 1-1ZM158 207l-1 1 1-1Z"/><path fill="#FDB1D8" id="DMX" d="M220 219h1l2-2c0-12.89-19-10.457-19 0 2.806 0 16-.155 16 2ZM235 219h1c0-1.579 2.855-1 4-1h1c0-1.781 10.176-1 12-1 0-10.547-20-13.314-20 1l2 1Z"/><path fill="#FF9BCD" id="MY" d="m156 209-1 1 1-1ZM154 211h1v-1l-1 1Z"/><path fill="#FDA4D0" id="SPVC" d="M174 216c0 4.258-6.85 18.2-9 22.5l-4 23c-1.985 3.97-5.311 8.5-10 8.5 0-1.076-4.98-1.46-6-3.5-1.651-3.303-6.902-22.197-5-26 1.192-2.383-.137-5.725 1-8 2.386-4.773 3.589-10.179 6-15l6-5.5 2-1 9.5-1 9.5 6Z"/><path fill="#FF9BCD" id="MY" d="M228 210h1c0 1.186-1 1.186-1 0Z"/><path fill="#FDA4D0" id="SPVC" d="M283 216c0 6.542 5.146 15.792 8 21.5l5 25c2.213 4.425 4.891 7.5 10 7.5 0-.676 5.151-2.802 6-4.5 1.895-3.789 6.407-24.186 4-29-2.462-4.925-2.502-11.004-5-16l-5.5-7.5-3.5-2h-1c-3.467 0-18-1.716-18 5Z"/><path fill="#FF9BCD" id="MY" d="M302 211h1l-2-1v1h1Z"/><path fill="#C8CACA" id="sptV" d="m313 210 2 2-2-2ZM146 275h1c0-1.193-4-4.944-4-7h-1l-1-1h-1l-3-3v-1l-1-1v-1l-1-1v-3l-1-2v-1l-1-1v-1c-2.374 0-3.002-13-1-13v-2c0-1.321-.684-6 1-6v-1l1-2 1-1c0-2.364 3-3.053 3-5l1-1 5-5 1-1 1-1v-1c-3.351 0-4 3.588-4-2l-11 13.5c-.559 1.119-.155 4.5-2 4.5 0 21.571-1.717 20.066 8 39.5 1.77 3.54 4.832 6.5 9 6.5Z"/><path fill="#FF9BCD" id="MY" d="m153 212-6 1v-1c1.564 0 3.876-1 6-1v1Z"/><path fill="#FDA5D2" id="SPVI" d="m155 211-2 1v-1h2ZM306 270h1l5-1h1l1-1 1-1 2-1 1-1 1-1 1-1 1-4 1-2v-1l1-2v-2l1-2c0-6.318-1-13.322-1-19v-2l-2-3c0-1.247-2.467-5-4-5l-5-5-3-3c-1.041 0-5-.986-5-2h-2l3.5 2 5.5 7.5c2.498 4.996 2.538 11.075 5 16 2.407 4.814-2.105 25.211-4 29-.849 1.698-6 3.824-6 4.5Z"/><path fill="#FF9BCD" id="MY" d="m308 211 1 2c-1.041 0-5-.986-5-2h4Z"/><path fill="#C8CACA" id="sptV" d="m310 275 1 1 4-2.5 6-5.5c0-1.238.423-3 2-3 0-3.908 2.337-8.174 4-11.5 4.344-8.688.86-22.28-3-30-1.582-3.165-5.571-10.5-9-10.5 0 4.553-5.662-2-7-2l1 2 3 3 5 5c1.533 0 4 3.753 4 5 1.577 0 2 1.762 2 3v2c3.17 0 2 12.446 2 15 0 1.145.579 4-1 4l-1 2v2l-1 2v1l-1 2-1 4-1 1-1 1-1 1-2 1-1 1-1 1h-1c0 2.483-2 4.026-2 6ZM146 213h1v-1l-1 1Z"/><path fill="#FDA5D2" id="SPVI" d="M149 270h2c0-1.076-4.98-1.46-6-3.5-1.651-3.303-6.902-22.197-5-26 1.192-2.383-.137-5.725 1-8 2.386-4.773 3.589-10.179 6-15l6-5.5-6 1-1 1-1 1-1 1-5 5-1 1c0 1.947-3 2.636-3 5l-1 1-1 2v1c0 1.321.684 6-1 6v2c0 4.569 1 8.923 1 13v1l1 1v1l1 2v3l1 1v1l1 1v1l3 3h1l1 1h1c1.974 0 3.517 2 6 2Z"/><path fill="#FF9BCD" id="MY" d="m147 213-1 1v-1h1ZM145 215l-1 1 1-1Z"/><path fill="#FDB1D7" id="MDRNd" d="m157 276 10 1c0-6.842 19.938-31.375 24-39.5 1.888-3.776 9-7.677 9-12.5l-2-4h-1c-1.238 0-3-.423-3-2h-1c-5.656 0-10.428-4-17-4l-2 1c0 4.258-6.85 18.2-9 22.5l-4 23c-1.985 3.97-5.311 8.5-10 8.5h-2c0 3.436 5.12 6 8 6ZM300 276l-10 1-7-11.5c-4.892-9.784-13.095-18.19-18-28-2.262-4.524-8-7.029-8-12.5l1-4h1l2-1 2-1c5.61 0 10.575-4 17-4h1l1 1h1c0 6.542 5.146 15.792 8 21.5l5 25c2.213 4.425 4.891 7.5 10 7.5h1c0 3.552-3.831 6-7 6Z"/><path fill="#FF9BCD" id="MY" d="m281 215 1 1-1-1Z"/><path fill="#A7AAA9" id="c" d="M228 217h1c0-1.186-1-1.186-1 0Z"/><path fill="#FF9BCD" id="MY" d="m312 216 5 5-5-5ZM210 235h1c0-1.048-.473-3 1-3 0-5.198-8.057-14 2.5-14l5.5 1c0-2.155-13.194-2-16-2-1.548 0-2.767 4-6 4l2 4 1.5-2c5.003-2.501 8.5 9.025 8.5 12Z"/><path fill="#FF9BCD" id="MY" fill-rule="evenodd" d="M240 286c0 1.729-6.666 3.169-5 6.5 1.231 2.462 15.659 6.683 17 4 1.872-3.744-9.164-10.5-12-10.5m-26 0c0 3.112-10 5.471-10 9.5 0 2.19 5.242 1.5 6.5 1.5 10.982 0 14.508-11 3.5-11m69 9c0 1.579 2.855 1 4 1 0 1.835-11.76 2-14 2l-29.5 1c-4.247-2.123-8.354-4-13.5-4v-8c4.281 0 7.933-6.283 12.5-4l11 10c1.149.574 9.564 2.627 7.5-1.5-2.301-4.602-26-13.499-26-18.5l3.5 1 .5-4.5c-1.917-3.833-7.882-10.5-10-10.5 0-10.727-2-9.908-2 0l-1.5-1-2.5 5.5c-1.297 2.593-10.816 10.5-3 10.5 0 4.187-23.386 14.271-25 17.5-1.495 2.991 4.861 3.319 6.5 2.5l11-10c6.205-3.102 7.939 3 13.5 3v8c-5.046 0-9.334 1.917-13.5 4-3.533 1.767-16.931.534-20-1h-17c-3.602-1.801-8.428-1.214-12-3l-10-7c-5.312-2.656-21.851-24.202-24.5-29.5-1.966-3.933-1.048-9.096-3-13-1.091-2.182 1.446-16.5 3-16.5 0 21.571-1.717 20.066 8 39.5 1.77 3.54 4.832 6.5 9 6.5 0 3.649 4.498 7.998 7 10.5.675.675 4 3.045 4 .5l2 2c0 3.632 7.7 6.6 10.5 8l3.5-.5-10-6.5v-1l11.5 7c7.995 3.998 15.5-8.033 15.5-14 13.438 0 26.246-24.992 31-34.5 1.303-2.606-3-4.479-3-6.5l1-3c1.173 0 7.869 2.762 9 .5 2.445-4.89-1.411-18.5-7-18.5l2-2h6c0 1.579 2.855 1 4 1l2 1c-5.588 0-8.318 13.865-6 18.5l8 .5 1 2c0 2.203-3.465 4.569-2 7.5 4.405 8.811 17.502 33.5 30 33.5.71 0 4.299 10.099 5 11.5 1.722 3.443 8.584 2.5 12 2.5Z"/><path fill="#FF9BCD" id="MY" d="m244 232 2 1c0-3.017 4.544-8.522 7.5-10l3.5 2 1-4c-2.601 0-5-1.04-5-4-1.824 0-12-.781-12 1 11.357 0 3 8.526 3 14Z"/><path fill="#FEB1D7" id="XII" d="M212 232c1.258 0 3.207 5 7 5 1.173 0 7.869 2.762 9 .5 2.445-4.89-1.411-18.5-7-18.5h-1l-5.5-1c-10.557 0-2.5 8.802-2.5 14Z"/><path fill="#FF9BCD" id="MY" d="M240 218c-1.145 0-4-.579-4 1 1.145 0 4 .579 4-1Z"/><path fill="#FEB1D7" id="XII" d="m238 237-1 1-8-.5c-2.318-4.635.412-18.5 6-18.5h1c1.145 0 4 .579 4-1h1c11.357 0 3 8.526 3 14 0 2.896-3.334 5-6 5Z"/><path fill="#FF9BCD" id="MY" d="m194 219 3 2c-1.238 0-3-.423-3-2ZM263 219l-2 1 2-1ZM261 220l-2 1 2-1ZM139 221l-1 1 1-1Z"/><path fill="#FFB2D8" id="IRN" fill-rule="evenodd" d="M176 267c0 1.791-3.27 2.959-2 5.5 1.109 2.218 10.495.495 5-5l-3-.5m5 9-14 1c0-6.842 19.938-31.375 24-39.5 1.888-3.776 9-7.677 9-12.5l1.5-2c5.003-2.501 8.5 9.025 8.5 12-4.284 0-7.138 2.776-9 6.5-4.057 8.113-20 26.521-20 34.5ZM278 267c0 1.602-3.058 2.384-2 4.5 3.11 6.221 12.193-4.5 2-4.5m-3 9 15 1-7-11.5c-4.892-9.784-13.095-18.19-18-28-2.262-4.524-8-7.029-8-12.5l-3.5-2c-2.956 1.478-7.5 6.983-7.5 10v1h1c4.312 0 6.161 5.661 9 8.5 4.981 4.981 19 26.885 19 33.5Z"/><path fill="#FF9BCD" id="MY" d="M321 226c1.577 0 2 1.762 2 3l-2-3ZM135 227l-1 1 1-1ZM134 228l-1 2 1-2ZM133 231c-1.684 0-1 4.679-1 6 1.684 0 1-4.679 1-6ZM323 231c3.17 0 2 12.446 2 15 0 1.145.579 4-1 4 0-6.318-1-13.322-1-19Z"/><path fill="#FFB1D9" id="NR" d="m219 237-1 3-7-5c0-1.048-.473-3 1-3 1.258 0 3.207 5 7 5ZM237 238l1 2c3.331 0 4.796-5 8-5v-2l-2-1c0 2.896-3.334 5-6 5l-1 1Z"/><path fill="#FF9BCD" id="MY" d="m247 234-1 1v-1h1Z"/><path fill="#FFB1D6" id="MDRNv" d="M275 276c-3.429 0-9 .569-9 5-12.498 0-25.595-24.689-30-33.5-1.465-2.931 2-5.297 2-7.5 3.331 0 4.796-5 8-5l1-1c4.312 0 6.161 5.661 9 8.5 4.981 4.981 19 26.885 19 33.5ZM181 276c4.193 0 9-.137 9 5 13.438 0 26.246-24.992 31-34.5 1.303-2.606-3-4.479-3-6.5l-7-5h-1c-4.284 0-7.138 2.776-9 6.5-4.057 8.113-20 26.521-20 34.5Z"/><path fill="#FF9BCD" id="MY" d="m238 237-1 1 1-1ZM132 239c-2.002 0-1.374 13 1 13 0-4.077-1-8.431-1-13Z"/><path fill="#FEC6E2" id="RO" d="M228 265h1v-6c0-10.727-2-9.908-2 0v5l1 1Z"/><path fill="#FF9BCD" id="MY" d="m324 250-1 2 1-2ZM133 253l1 1-1-1ZM323 254l-1 2 1-2ZM134 255l1 2-1-2ZM322 257l-1 2 1-2Z"/><path fill="#C8C8CC" id="tspc" d="M227 264c-3.812 0-3.188 10-7 10-7.816 0 1.703-7.907 3-10.5l2.5-5.5 1.5 1v5ZM230 264l5 9 3.5 1 .5-4.5c-1.917-3.833-7.882-10.5-10-10.5v4l1 1Z"/><path fill="#FF9BCD" id="MY" d="m135 260 1 1-1-1ZM136 262l1 1-1-1ZM229 264h1l-1-1v1ZM320 263l-1 1 1-1ZM137 264l3 3-3-3Z"/><path fill="#FFB3D8" id="IO" d="M227 279c0 2.707-1 5.903-1 8-5.561 0-7.295-6.102-13.5-3l-11 10c-1.639.819-7.995.491-6.5-2.5 1.614-3.229 25-13.313 25-17.5 3.812 0 3.188-10 7-10l1 1-1 14ZM229 277l1 10c4.281 0 7.933-6.283 12.5-4l11 10c1.149.574 9.564 2.627 7.5-1.5-2.301-4.602-26-13.499-26-18.5l-5-9h-1v13Z"/><path fill="#FF9BCD" id="MY" d="m229 277-2 2 1-14h1v12ZM318 265l-1 1 1-1ZM323 265c-1.577 0-2 1.762-2 3 1.577 0 2-1.762 2-3ZM141 267l1 1-1-1Z"/><path fill="#FF9BCD" id="MY" fill-rule="evenodd" d="M177 269c0 4.42 1.206 0 0 0m-1-2c0 1.791-3.27 2.959-2 5.5 1.109 2.218 10.495.495 5-5l-3-.5ZM278 269c0 3.479 4.365 0 0 0m0-2c0 1.602-3.058 2.384-2 4.5 3.11 6.221 12.193-4.5 2-4.5Z"/><path fill="#FF9BCD" id="MY" d="m315 267-1 1 1-1ZM156 278l-2 1c-2.46 0-4.17-4-7-4 0-1.193-4-4.944-4-7 1.974 0 3.517 2 6 2 0 3.436 5.12 6 8 6l-1 2ZM314 268l-1 1 1-1ZM311 276c0 3.07-6 5.349-6 9 1.275 0 16-15.485 16-17l-6 5.5-4 2.5Z"/><path fill="#FEB3D8" id="AMBv" d="M177 269c0 4.42 1.206 0 0 0ZM278 269c0 3.479 4.365 0 0 0Z"/><path fill="#FF9BCD" id="MY" d="M301 278h2l7-3c0-1.974 2-3.517 2-6l-5 1c0 3.552-3.831 6-7 6l1 2Z"/><path fill="#C9CACA" id="sctd" d="M154 279c0 2.538 3 3.953 3 7 0 2.545-3.325.175-4-.5-2.502-2.502-7-6.851-7-10.5h1c2.83 0 4.54 4 7 4ZM305 285c-2.486 0-3.725 1-6 1l4-8 7-3 1 1c0 3.07-6 5.349-6 9Z"/><path fill="#FCB3D7" id="LRNm" d="M190 281c0 5.967-7.505 17.998-15.5 14l-11.5-7-7-10 1-2 10 1 14-1c4.193 0 9-.137 9 5ZM290 291c-1.572 0-7 2.052-7 4-3.416 0-10.278.943-12-2.5-.701-1.401-4.29-11.5-5-11.5 0-4.431 5.571-5 9-5l15 1 10-1 1 2-1 1-7 9-3 3Z"/><path fill="#FFC6E2" id="RPA" d="M226 295h4v-8l-1-10-2 2c0 2.707-1 5.903-1 8v8Z"/><path fill="#C8C8CB" id="rust" d="M163 288v1l-4-1-2-2c0-3.047-3-4.462-3-7l2-1 7 10Z"/><path fill="#FF9BCD" id="MY" d="m301 278-1 1 1-1Z"/><path fill="#C8C8CB" id="rust" d="m297 288-4 1v-1l7-9 1-1h2l-4 8-2 2Z"/><path fill="#FF9BCD" id="MY" d="M297 288c0 4.578-8 4.336-8 7 3.724 0 16-4.92 16-10-2.486 0-3.725 1-6 1l-2 2Z"/><path fill="#C7C9C9" id="py" d="M214 286c0 3.112-10 5.471-10 9.5 0 2.19 5.242 1.5 6.5 1.5 10.982 0 14.508-11 3.5-11ZM240 286c0 1.729-6.666 3.169-5 6.5 1.231 2.462 15.659 6.683 17 4 1.872-3.744-9.164-10.5-12-10.5Z"/><path fill="#CBC7CC" id="sctv" d="m159 288 4 1 10 6.5-3.5.5c-2.8-1.4-10.5-4.368-10.5-8Z"/><path fill="#FF9BCD" id="MY" d="M293 289c0 1.577-1.762 2-3 2l3-3v1Z"/><path fill="#CBC7CC" id="sctv" d="m289 295-2 1c-1.145 0-4 .579-4-1 1.572 0 7-2.052 7-4 1.238 0 3-.423 3-2l4-1c0 4.578-8 4.336-8 7Z"/><path fill="#FF9BCD" id="MY" d="M290 291c-1.572 0-7 2.052-7 4 1.572 0 7-2.052 7-4ZM289 295l-2 1 2-1Z"/></svg>