<svg xmlns="http://www.w3.org/2000/svg" viewBox="0 0 456 320"><path fill="#1BA598" id="RSPd1" d="m223 24-2 1-4-4.5-8.5-5.5H190v-4c9.793 0 24.161-2.178 29 7.5l4 5.5ZM235 26h1c0-11.699 22.04-11 30-11l1-4c-11.052 0-24.92-2.66-31 9.5l-2 2.5 1 3Z"/><path fill="#1BA696" id="RSPagl1" d="M175 18h1l14-2v-5c-5.671 0-9.206 2-15 2v5ZM266 16l14 2 1-5c-5.366 0-8.763-2-14-2l-1 4v1Z"/><path fill="#019FAC" id="VISa1" d="M137 27h1c0-1.36 6.258-2.379 7.5-3 7.806-3.903 20.315-6 29.5-6v-5c-4.21 0-29.675 4.588-32.5 6-2.557 1.278-7.687 4-10.5 4l5 4ZM324 23c0 2.697-3.346 3-5 3-3.423 0-5.68-1.59-8.5-3-4.556-2.278-23.637-5-29.5-5h-1l1-5c6.479 0 27.393 3.446 32.5 6l10.5 4Z"/><path fill="#1BA697" id="RSPd2/3" d="m221 26-5 3-8.5-6c-4.226-2.113-12.65 1-16.5 1l-1-8v-1h18.5l8.5 5.5 4 4.5v1ZM236 26c0 1.077 3.762 3 5 3 0-8.617 20.689-5 25-5v-9c-7.96 0-30-.699-30 11Z"/><path fill="#1AA496" id="RSPagl2/3" d="M190 24h1l-1-8-14 2 1 10 13-4ZM266 24l13 4 2-10h-1l-14-2v8Z"/><path fill="#009EAB" id="VISa2/3" d="M149 34h1c5.72 0 17.547-6 27-6l-1-10h-1c-9.185 0-21.694 2.097-29.5 6-1.242.621-7.5 1.64-7.5 3 0 2.314 1.331-.837 2 .5.803 1.606 6.138 6.5 9 6.5ZM279 28c10.187 0 20.105 6 28 6 3.049 0 8-4.885 8-5.5 0-1.44 4 .659 4-1.5v-1c-3.423 0-5.68-1.59-8.5-3-4.556-2.278-23.637-5-29.5-5l-2 10Z"/><path fill="#187C64" id="SSp-tr1" d="m117 29 2 5c6.218 0 11.541-7 18-7l-5-4c-5.201 0-10.158 6-15 6Z"/><path fill="#1AA596" id="RSPd5" d="M190 37c2.862 0 17-7.835 17 1l9-8v-1l-8.5-6c-4.226-2.113-12.65 1-16.5 1h-1v13Z"/><path fill="#1BA597" id="RSPv1" d="M229 69h3l1-24.5c-1.043-2.086-2.278-9.444-1-12l3-6.5-1-3-5.5 8-5.5-7-2 1v1l4 8.5-1 3c-2.714 5.427 1 25.276 1 31.5h2c0-5.32 2-5.498 2 0Z"/><path fill="#1AA596" id="RSPd5" d="M266 36c-3.69 0-9.326-4.087-13.5-2l-3.5 4-8-8v-1c0-8.617 20.689-5 25-5v12Z"/><path fill="#187C64" id="SSp-tr1" d="m339 29-2 5c-6.164 0-11.402-7-18-7v-1c1.654 0 5-.303 5-3 5.143 0 11.018 6 15 6Z"/><path fill="#1CA697" id="RSPagl5" d="M190 37c-3.843 0-6.746 4-11 4 0-4.5-2-7.354-2-12v-1l13-4v13ZM266 37l11 4c0-3.956 2-7.497 2-12v-1l-13-4v13Z"/><path fill="#1AA597" id="RSPv2/3" d="M221 69h4c0-6.224-3.714-26.073-1-31.5l1-3-4-8.5-5 3v1l2 6.5c.627 1.253 3 29.871 3 32.5ZM232 69h4c0-9.78 3-19.631 3-29 0-2.108-.789-10 2-10v-1c-1.238 0-5-1.923-5-3h-1l-3 6.5c-1.278 2.556-.043 9.914 1 12L232 69Z"/><path fill="#188061" id="SSp-tr2/3" d="m119 35 4 8c6.002 0 15.253-4.377 20.5-7 .984-.492 5.5-.85 5.5-2-2.862 0-8.197-4.894-9-6.5-.669-1.337-2 1.814-2-.5h-1c-6.459 0-11.782 7-18 7v1ZM307 35c9.462 0 17.003 8 26 8 1.444 0 4-7.394 4-9-6.164 0-11.402-7-18-7 0 2.159-4 .06-4 1.5 0 .615-4.951 5.5-8 5.5v1Z"/><path fill="#019EAC" id="VISa4" d="M153 37h4c0-1.845 3.381-1.44 4.5-2 3.753-1.877 11.371-6 15.5-6v-1c-9.453 0-21.28 6-27 6 0 1.916 3 .07 3 3ZM302 37h1l4-2v-1c-7.895 0-17.813-6-28-6v1c4.679 0 11.396 3.948 15.5 6 1.119.56 4.5.155 4.5 2h2c0-1.186 1-1.186 1 0Z"/><path fill="#188060" id="SSp-bfd1" d="M60 76h1c0-3.847 9.684-10.184 12-12.5C83.18 53.32 105.279 35 119 35v-1l-2-5c-8.994 0-39.494 21.994-47 29.5-2.152 2.152-12 11.787-12 13.5 0 1.24 2 1.576 2 4Z"/><path fill="#019EAB" id="VISa5" d="M170 44h1c0-.504 7.078-3 8-3 0-4.5-2-7.354-2-12-4.129 0-11.747 4.123-15.5 6-1.119.56-4.5.155-4.5 2 0 2.087 13 3.855 13 7ZM285 44h2c0-4.374 12-2.753 12-7 0-1.845-3.381-1.44-4.5-2-4.104-2.052-10.821-6-15.5-6 0 4.503-2 8.044-2 12 .922 0 8 2.496 8 3Z"/><path fill="#188060" id="SSp-bfd1" d="M399 73c-2.215 0-1.519 2-3 2l-17.5-17c-10.13-5.065-30.059-24-41.5-24l2-5c9.692 0 39.438 21.938 47 29.5 3.386 3.386 13 10.67 13 14.5Z"/><path fill="#1BA498" id="RSPv5" d="m216 67 5 2c0-2.629-2.373-31.247-3-32.5l-2-6.5-9 8v2c0 6.917 7 20.536 7 24l2 3ZM240 67l-4 2c0-9.78 3-19.631 3-29 0-2.108-.789-10 2-10l8 8v1c0 8.886-6 16.945-6 24v1l-1 1-2 2Z"/><path fill="#1B7E62" id="SSp-tr4" d="M126 50h1l26-13c0-2.93-3-1.084-3-3h-1c0 1.15-4.516 1.508-5.5 2-5.247 2.623-14.498 7-20.5 7v1l3 6Z"/><path fill="#1AA697" id="RSPd6a" d="M192 49c0-3.833 7.773 0 9 0 0-1.156 4.801-9 6-9v-2c0-8.835-14.138-1-17-1l1 12h1ZM256 49h1c0-2.967 6.07-1 8-1 0-3.841 1-6.895 1-11v-1c-3.69 0-9.326-4.087-13.5-2l-3.5 4v1c1.029 0 6 8.52 6 10h1Z"/><path fill="#187F63" id="SSp-bfd2/3" d="M388 84h1c0-1.433 5.61-8 7-8v-1l-17.5-17c-10.13-5.065-30.059-24-41.5-24 0 1.606-2.556 9-4 9v1c8.414 0 40.154 18.809 44 26.5 2.243 4.487 11 8.293 11 13.5ZM68 84h1c0-4.52 7.732-11.232 11-14.5 7.678-7.678 33.173-25.5 43-25.5v-1l-4-8c-13.721 0-35.82 18.32-46 28.5-2.316 2.316-12 8.653-12 12.5l7 8Z"/><path fill="#1B7E62" id="SSp-tr4" d="M329 50h1l3-6v-1c-8.997 0-16.538-8-26-8l-4 2c0 2.334 4.181 1.34 5.5 2 2.683 1.342 20.5 10.264 20.5 11ZM301 37h1c0-1.186-1-1.186-1 0Z"/><path fill="#197F60" id="SSp-tr5" d="M127 50c0 3.555 4 4.955 4 8 2.678 0 3.323-1.911 5.5-3 6.937-3.468 25.869-11 33.5-11 0-3.145-13-4.913-13-7h-4l-26 13Z"/><path fill="#1CA597" id="RSPagl6a" d="m191 49-10 2-2-10c4.254 0 7.157-4 11-4l1 12ZM275 51h1l1-10-11-4c0 4.105-1 7.159-1 11v1c1.249 0 10 1.075 10 2Z"/><path fill="#197F60" id="SSp-tr5" d="M329 50c0 3.44-4 5.252-4 8-3.239 0-6.686-3.593-9.5-5L287 44c0-4.374 12-2.753 12-7h4c0 2.334 4.181 1.34 5.5 2 2.683 1.342 20.5 10.264 20.5 11Z"/><path fill="#1AA498" id="RSPv6a" d="M247 60c0 .966-2.886 3-4 3 0-7.055 6-15.114 6-24 1.029 0 6 8.52 6 10l-2 4c-1.747 0-2 .253-2 2-1.712 0-3 2.571-3 4l-1 1ZM209 59l5 5c0-3.464-7-17.083-7-24-1.199 0-6 7.844-6 9v1c1.739 0 8 7.568 8 9Z"/><path fill="#009DAC" id="VISa6a" d="M180 51h1l-2-10c-.922 0-8 2.496-8 3l8 7h1ZM276 51h1l8-7c0-.504-7.078-3-8-3l-1 10Z"/><path fill="#197C64" id="SSp-bfd4" d="M73 90h1l9.5-9c9.717-9.717 19.604-18.302 31-24 1.932-.966 11.5-4.636 11.5-7l-3-6c-9.827 0-35.322 17.822-43 25.5-3.268 3.268-11 9.98-11 14.5 0 2.871 4 2.556 4 6Z"/><path fill="#188063" id="SSp-tr6a" d="m134 63 5 1c3.239 0 6.686-3.593 9.5-5 7.926-3.963 21.262-8 30.5-8l-8-7h-1c-7.631 0-26.563 7.532-33.5 11-2.177 1.089-2.822 3-5.5 3v1l3 4ZM317 65h2c0-2.68 2.078-1 3-1l3-6c-3.239 0-6.686-3.593-9.5-5L287 44h-2l-8 7c11.22 0 23.021 5.26 32.5 10 1.637.819 7.5 1.175 7.5 4Z"/><path fill="#197C64" id="SSp-bfd4" d="M382 90h1l5-6c0-5.207-8.757-9.013-11-13.5-3.846-7.691-35.586-26.5-44-26.5l-3 6 10.5 7c10.629 5.315 21.52 12.52 30.5 21.5L382 90Z"/><path fill="#1BA698" id="RSPd6b" d="M201 49v1c-2.723 0-5.778-1-9-1 0-3.833 7.773 0 9 0ZM265 49v1c-2.097 0-5.293-1-8-1 0-2.967 6.07-1 8-1v1Z"/><path fill="#1AA598" id="RSPagl6b" d="M181 51v1c1.748 0 11-.69 11-3h-1l-10 2Z"/><path fill="#CACCC7" id="cing" d="m214 64 2 3c-8.067 0-16.594-8.547-23.5-12-6.234-3.117-22.614 3-29.5 3h-6c0-1.454 5.366-1.433 6.5-2 4.061-2.03 11.866-4 16.5-4h1c1.748 0 11-.69 11-3 3.222 0 6.277 1 9 1 0 2.342 6.163 9 8 9l5 5Z"/><path fill="#1AA497" id="RSPv6b" d="m256 50-3 3 2-4h1v1Z"/><path fill="#1BA698" id="RSPd6b" d="m257 49-1 1v-1h1Z"/><path fill="#CACCC7" id="cing" d="m242 65-2 2c8.056 0 17.57-8.535 24.5-12 7.693-3.846 20.932 3 28.5 3h6c0-1.454-5.366-1.433-6.5-2-4.061-2.03-11.866-4-16.5-4h-1l-10-2c-2.097 0-5.293-1-8-1l-1 1-3 3c0 1.747-.253 2-2 2 0 1.429-1.288 4-3 4l-1 1c0 .966-2.886 3-4 3v1l-1 1Z"/><path fill="#1AA598" id="RSPagl6b" d="M275 51v1l-10-2v-1c1.249 0 10 1.075 10 2Z"/><path fill="#1A7D62" id="SSp-bfd5" d="M74 90c0 1.339 5.121 8 7 8l13-14.5c5.502-5.502 29.431-24.5 37-24.5v-1c0-3.045-4-4.445-4-8h-1c0 2.364-9.568 6.034-11.5 7-11.396 5.698-21.283 14.283-31 24L74 90Z"/><path fill="#1AA497" id="RSPv6b" d="M201 50c1.739 0 8 7.568 8 9-1.837 0-8-6.658-8-9Z"/><path fill="#1A7D62" id="SSp-bfd5" d="M375 99h1l6-9-11-11.5c-8.98-8.98-19.871-16.185-30.5-21.5L330 50h-1c0 3.44-4 5.252-4 8 3.699 0 8.225 5.362 11.5 7 8.506 4.253 26.946 16.392 31.5 25.5 1.678 3.357 7 5.228 7 8.5Z"/><path fill="#1A8063" id="SSp-tr6b" d="M139 65h1l17-7c0-1.454 5.366-1.433 6.5-2 4.061-2.03 11.866-4 16.5-4v-1h-1c-9.238 0-22.574 4.037-30.5 8-2.814 1.407-6.261 5-9.5 5v1Z"/><path fill="#029FAC" id="VISa6b" d="M180 52h1v-1h-1v1ZM275 52h1v-1h-1v1Z"/><path fill="#1A8063" id="SSp-tr6b" d="m299 58 18 7c0-2.825-5.863-3.181-7.5-4-9.479-4.74-21.28-10-32.5-10h-1v1c4.634 0 12.439 1.97 16.5 4 1.134.567 6.5.546 6.5 2Z"/><path fill="#1AA497" id="RSPv6b" d="M253 53c-1.747 0-2 .253-2 2 1.747 0 2-.253 2-2Z"/><path fill="#C9C7C9" id="ccb" d="M351 111h2c0-10.257-18.94-30.72-27.5-35l-8.5-7-15.5-8c-1.242-.621-8.5-1.767-8.5-3-7.568 0-20.807-6.846-28.5-3-6.93 3.465-16.444 12-24.5 12l-4 2h-15l-5-2c-8.067 0-16.594-8.547-23.5-12-6.234-3.117-22.614 3-29.5 3l-5 2.5-12.5 4.5-4.5 3-1 1h-1l-1 1-10.5 9c-10.019 5.01-23.5 21.266-23.5 32h2l1-1c0-3.112 6.419-12 10-12 0-4.022 13.634-21 18-21 0-4.399 11.753-8.626 14.5-10 13.622-6.81 30.329-11.335 45-4 4.596 2.298 10.328 12 15.5 12 4.851 0 12.279 1.89 16.5 4l19.5-4 3-1c0-1.712 2.571-3 4-3 0-2.289 6.178-6 8-6 0-5.032 17.521-8.49 22.5-6 2.981 1.49 7.108.554 10 2 6.763 3.382 14.221 5.61 21 9 3.869 1.934 7.348 8.674 12 11 4.492 2.246 12.5 10.851 12.5 16 1.246 0 12 12.73 12 14Z"/><path fill="#1AA497" id="RSPv6b" d="M251 55c-1.712 0-3 2.571-3 4 1.712 0 3-2.571 3-4Z"/><path fill="#C9C9CA" id="scwm" d="m140 66 1 2 4.5-3 12.5-4.5 5-2.5h-6l-17 7v1ZM317 66c-3.749 0 0 1.288 0 3l-15.5-8c-1.242-.621-8.5-1.767-8.5-3h6l18 7v1Z"/><path fill="#198060" id="SSp-bfd6a" d="M375 99c-3.671 0-4.438 9-9 9l-11-12.5c-2.443-4.886-19.724-19.612-25.5-22.5-3.167-1.583-4.683-6-8.5-6v-1l1-2 3-6c3.699 0 8.225 5.362 11.5 7 8.506 4.253 26.946 16.392 31.5 25.5 1.678 3.357 7 5.228 7 8.5ZM90 109h1c0-2.577 8.931-14 12-14 0-1.634 2.634-4 4-4 0-3.465 25.065-24 28-24v-1l-1-3-3-4c-7.569 0-31.498 18.998-37 24.5L81 98v1l9 10Z"/><path fill="#C7C8CC" id="alv" d="M135 77c4.424 0 8.672-6.086 12.5-8 6.088-3.044 31.361-11.82 39-8 8.032 4.016 14.213 10.107 22 14l7.5 6-6-6c-5.172 0-10.904-9.702-15.5-12-14.671-7.335-31.378-2.81-45 4-2.747 1.374-14.5 5.601-14.5 10Z"/><path fill="#1AA497" id="RSPv6b" d="m248 59-1 1 1-1Z"/><path fill="#C7C8CC" id="alv" d="M336 108c-1.962 0-5.963 3-11 3 0-1.951 2.454-.477 3.5-1 3.259-1.629 6.722-2.943 8.5-6.5 1.843-3.687-1.48-15.5-6-15.5 0-1.562-2.189-5-4-5 0-2.56-9.475-7.988-11.5-9-8.67-4.335-34.56-18.72-46-13l-8.5 4c0-5.032 17.521-8.49 22.5-6 2.981 1.49 7.108.554 10 2 6.763 3.382 14.221 5.61 21 9 3.869 1.934 7.348 8.674 12 11 4.492 2.246 12.5 10.851 12.5 16 0 4.384-3 7.678-3 11Z"/><path fill="#7ECF4B" id="CA1" d="m218 96-1 1c-12.169 0-24.245-7.873-34.5-13-7.63-3.815-19.414 5-23.5 5-9.108 0-19.498-6-29-6l5-6c4.424 0 8.672-6.086 12.5-8 6.088-3.044 31.361-11.82 39-8 8.032 4.016 14.213 10.107 22 14l7.5 6h1l4 4v1c0 4.798-3 7.092-3 10ZM239 97h1c11.553 0 24.673-8.087 34.5-13 8.389-4.195 16.956 5 23.5 5 6.394 0 20.974-6 29-6 0-2.56-9.475-7.988-11.5-9-8.67-4.335-34.56-18.72-46-13l-8.5 4c0 1.89-6.374 6-8 6 0 1.712-2.571 3-4 3 0 1.712-2.571 3-4 3l-1 1-1 1h-1l-1 1-1 1-1 1-2 1c0 1.747-.253 2-2 2 0 5.696 4 8.651 4 12Z"/><path fill="#1A7F61" id="SSp-un6a" d="m139 65-4 1-1-3 5 1v1ZM319 65l2 1 1-2c-.922 0-3-1.68-3 1Z"/><path fill="#1AA498" id="RSPv6a" d="m243 64-1 1 1-1Z"/><path fill="#1A7D63" id="SSp-un6b" d="M135 67h1l4-1v-1h-1l-4 1v1Z"/><path fill="#C7C8CC" id="alv" d="M261 65c-1.822 0-8 3.711-8 6 1.626 0 8-4.11 8-6Z"/><path fill="#1A7D63" id="SSp-un6b" d="M321 67v1l-4-2v-1h2l2 1v1Z"/><path fill="#CBC9C7" id="or" d="m91 118 1 4c3.283 0 7.595-11 12-11 0-10.734 13.481-26.99 23.5-32l10.5-9 1-1h1l1-1-1-2-4 1-6.5 6c-4.099 2.05-21.113 18-22.5 18 0 2.226-1.774 4-4 4 0 1.621-2.996 7-5 7l-1 1c0 1.238-.423 3-2 3 0 3.541-3 6.145-3 10l-1 1v1ZM365 117v6l-12-12c0-10.257-18.94-30.72-27.5-35l-8.5-7c0-1.712-3.749-3 0-3l4 2 6.5 5c8.8 4.4 21.727 15.953 25.5 23.5l6 6.5c0 4.068 6 9.235 6 14Z"/><path fill="#1A7E61" id="SSp-bfd6b" d="m136 67-6.5 6c-4.099 2.05-21.113 18-22.5 18 0-3.465 25.065-24 28-24h1ZM365 109h1v-1l-11-12.5c-2.443-4.886-19.724-19.612-25.5-22.5-3.167-1.583-4.683-6-8.5-6v1l6.5 5c8.8 4.4 21.727 15.953 25.5 23.5l6 6.5c3.148 0 3.318 6 6 6Z"/><path fill="#C9C9CA" id="scwm" d="m141 68-1 1 1-1ZM139 69l-1 1 1-1Z"/><path fill="#C7C8CC" id="alv" d="M253 71c-1.429 0-4 1.288-4 3 1.429 0 4-1.288 4-3Z"/><path fill="#1A7E62" id="SSs1" d="M37 104c3.532 0-.69 5 4 5l4-6.5c2.74-5.481 5.226-11.452 8-17l7-9.5c0-2.424-2-2.76-2-4-2.115 0-5.248 5.996-6 7.5-3.218 6.436-15 17.493-15 24.5ZM419 104c0 1.925-1.706 5-4 5 0-5.047-11.341-21.182-14-26.5l-5-6.5v-1c1.481 0 .785-2 3-2 2.585 0 5.171 5.843 6 7.5 3.721 7.442 14 14.788 14 23.5Z"/><path fill="#C7C8CC" id="alv" d="m246 75-1 2c1.429 0 4-1.288 4-3l-3 1Z"/><path fill="#C9CCC9" id="dhc" d="M229 85h6l2-2 2-1 1-1 1-1 1-1h1l1-1 1-1 1-2-19.5 4c-4.221-2.11-11.649-4-16.5-4l6 6h1l5 4h5c0-1.4 2-1.4 2 0Z"/><path fill="#1B8063" id="SSs2/3" d="m31 149 8 2c0-17.231 11.701-35.902 19-50.5L68 84l-7-8h-1l-7 9.5c-2.774 5.548-5.26 11.519-8 17l-4 6.5v2c0 .778 1.029 8-1 8 0 3.686-3.34 10-7 10v4l-2 16Z"/><path fill="#1B8063" id="SSs2/3" fill-rule="evenodd" d="M416 121c0 1.93 1.93 0 0 0m9 28-8 2c0-17.362-10.697-34.894-18-49.5-2.403-4.806-10-12.055-10-17.5 0-1.433 5.61-8 7-8l5 6.5c2.659 5.318 14 21.453 14 26.5l1 1v1c-2.043 0 0 .962 0 1.5l-2 1 2 5.5c0 1.382 4.67 10 7 10v2l1 2 1 16Z"/><path fill="#C7C8CC" id="alv" d="M121 108c0 2.869 7.658 3 10 3l-10-4.5c-1.884-3.768-2.329-18.5 4-18.5l5-5 5-6c-4.366 0-18 16.978-18 21 0 4.045 4 9.209 4 10ZM245 77l-1 1 1-1ZM244 78l-1 1 1-1ZM242 79l-1 1 1-1ZM241 80l-1 1 1-1ZM221 85h1l-5-4 4 4ZM239 82l-2 1 2-1Z"/><path fill="#7DCF4B" id="CA2" d="m159 89-2 2c-2.654 0-5.275-.888-7.5-2-4.389-2.194-19.993-1-24.5-1l5-5c9.502 0 19.892 6 29 6Z"/><path fill="#C7C8CC" id="alv" d="m237 83-2 2c1.747 0 2-.253 2-2Z"/><path fill="#7DCF4B" id="CA2" d="m298 89 1 2c3.166 0 5.886-.693 8.5-2 4.3-2.15 19.162-1 23.5-1 0-1.562-2.189-5-4-5-8.026 0-22.606 6-29 6Z"/><path fill="#187C63" id="SSs4" d="m39 151 6 1c0-13.345 8.295-31.09 14-42.5L73 90c0-3.444-4-3.129-4-6h-1l-10 16.5c-7.299 14.598-19 33.269-19 50.5Z"/><path fill="#7BD04A" id="DG-mo" d="m204 119-1 1-9-1h-1l-4-2h-2l-2-1h-1c0-.144-7.359-3-8-3h-2l-1-1h-1l-1-1v-1l3-2c6.741 0 14.889 1.695 21.5 5 5.021 2.511 22.4-5.7 19.5-11.5-1.966-3.932-10.47 2.515-14.5.5-8.44-4.22-18.344-11.828-28-7-2.262 1.131-7.5.894-7.5 4-6.725 0-8-2.807-8-8l2-2c4.086 0 15.87-8.815 23.5-5 10.255 5.127 22.331 13 34.5 13l2 2v7l-1 2c-1.514 0-5 5.537-5 7l-3 1-1 1-5 2ZM262 119h1l2-1h1l2-1h2l2-1h1c0-1.579 2.855-1 4-1l2-1 1-1h3l1-1h1l1-1-1-2c-2.215 0-1.519-2-3-2 0 3.635-9.689.594-12.5 2-7.217 3.608-19.709 8.082-24.5-1.5-.709-1.419-4.571-2.858-3-6 1.855-3.71 10.532 2.484 14.5.5 8.285-4.142 17.553-11.723 27-7 2.449 1.224 7.5.092 7.5 4 7.681 0 8-2.36 8-8l-1-2c-6.544 0-15.111-9.195-23.5-5-9.827 4.913-22.947 13-34.5 13 0 1.577-1.762 2-3 2 0 7.626 7 13.799 7 16l2 1 1 1h1l1 1 5 2 8-1Z"/><path fill="#187C63" id="SSs4" d="m417 151-5 1c0-7.967-9.321-33.142-13-40.5-1.835-3.67-16-19.234-16-21.5l5-6h1c0 5.445 7.597 12.694 10 17.5 7.303 14.606 18 32.138 18 49.5Z"/><path fill="#7DCD4B" id="HPF" d="m222 85-1 1v-1h1Z"/><path fill="#7ECD4A" id="FC" d="m222 97-3 1-1-2c0-2.908 3-5.202 3-10l1-1h5v6l-2 2v1l-1 1-1 1-1 1ZM239 97l-2 1c-4.778 0-8-9.496-8-13h6c0 5.696 4 8.651 4 12Z"/><path fill="#7ECF49" id="CA3" d="M153 111h8c0-1.735 6.51-1 8-1h2l3-2c0-2.753 5.011-3 7-3 0-5.619-3.9-6-9-6h-7c-6.725 0-8-2.807-8-8-2.654 0-5.275-.888-7.5-2-4.389-2.194-19.993-1-24.5-1-6.329 0-5.884 14.732-4 18.5l10 4.5h22ZM303 111h22c0-1.951 2.454-.477 3.5-1 3.259-1.629 6.722-2.943 8.5-6.5 1.843-3.687-1.48-15.5-6-15.5-4.338 0-19.2-1.15-23.5 1-2.614 1.307-5.334 2-8.5 2 0 5.64-.319 8-8 8h-6c-4.743 0-10-.103-10 6 2.833 0 4.84 2 7 2 1.481 0 .785 2 3 2l3 1c1.49 0 8-.735 8 1h7Z"/><path fill="#1C8063" id="SSs5" d="M45 152c4.739 0 8.946 3 14 3 0-13.55 6.278-29.057 12-40.5L81 99v-1c-1.879 0-7-6.661-7-8h-1l-14 19.5c-5.705 11.41-14 29.155-14 42.5ZM412 152l-14 3c0-11.554-7.976-31.452-13-41.5-2.048-4.095-9-9.886-9-14.5l6-9h1c0 2.266 14.165 17.83 16 21.5 3.679 7.358 13 32.533 13 40.5Z"/><path fill="#1A7E61" id="SSp-bfd6b" d="M107 91c-1.366 0-4 2.366-4 4 2.226 0 4-1.774 4-4Z"/><path fill="#A8A9AA" id="V3" d="M222 98c4.375 0 4.005 6 6.5 6l3-6 3.5 1c0-2.365-5.573-8-8-8 0 1.747-.253 2-2 2v1l-1 1-1 1-1 1v1Z"/><path fill="#65A83D" id="DG-sg" d="M181 105c-1.989 0-7 .247-7 3 6.741 0 14.889 1.695 21.5 5 5.021 2.511 22.4-5.7 19.5-11.5-1.966-3.932-10.47 2.515-14.5.5-8.44-4.22-18.344-11.828-28-7-2.262 1.131-7.5.894-7.5 4h7c0-.999 6.988-2.756 8.5-2 5.623 2.811 11.332 5.166 17 8l6.5 1.5c.925 1.849-4.996 3.252-6.5 2.5-4.926-2.463-10.561-4-16.5-4ZM275 105c2.833 0 4.84 2 7 2 0 3.635-9.689.594-12.5 2-7.217 3.608-19.709 8.082-24.5-1.5-.709-1.419-4.571-2.858-3-6 1.855-3.71 10.532 2.484 14.5.5 8.285-4.142 17.553-11.723 27-7 2.449 1.224 7.5.092 7.5 4h-6c0-1.434-6.448-2-8-2-5.622 0-13.566 5.533-18.5 8l-6.5 1.5c0 2.056 5.104 2.5 6.5 2.5 5.552 0 10.236-4 16.5-4Z"/><path fill="#1A7E61" id="SSp-bfd6b" d="m95 106-4 3c0-2.577 8.931-14 12-14 0 1.621-2.996 7-5 7l-1 1c-1.577 0-2 1.762-2 3Z"/><path fill="#7DCD4B" id="HPF" d="M219 98v1l-2-2 1-1 1 2Z"/><path fill="#7ECE4A" id="DG-po" d="M172 99c5.1 0 9 .381 9 6 5.939 0 11.574 1.537 16.5 4 1.504.752 7.425-.651 6.5-2.5l-6.5-1.5c-5.668-2.834-11.377-5.189-17-8-1.512-.756-8.5 1.001-8.5 2Z"/><path fill="#7DCD4B" id="HPF" d="M237 98v1c1.238 0 3-.423 3-2h-1l-2 1Z"/><path fill="#7ECE4A" id="DG-po" d="M285 99c-4.743 0-10-.103-10 6-6.264 0-10.948 4-16.5 4-1.396 0-6.5-.444-6.5-2.5l6.5-1.5c4.934-2.467 12.878-8 18.5-8 1.552 0 8 .566 8 2Z"/><path fill="#A8AAAA" id="VL" d="M340 127h3c0-4.802-.332-14.584 4.5-17l3.5 1c0-1.27-10.754-14-12-14 0 4.384-3 7.678-3 11l2 2c1.465 0 1.711-4.394 4.5-3l.5 3.5c-1.541 3.083-.758 14.5-3 14.5v2ZM117 126l-3 1c-1.684 0-1-4.679-1-6 0-4.326-.792-11-6-11 0-3.112 6.419-12 10-12 0 4.045 4 9.209 4 10l-3 3c0-2.51-3.03-6.439-5-2.5l2 4c2.142 4.285-2.985 11.5 2 11.5v2Z"/><path fill="#A8A9AA" id="V3" d="m222 98-1 2 1-2Z"/><path fill="#A9AAA8" id="chpl" d="m230 118-3 1v-1l-1-1-2-5-1-1v-1l-1-1v-1l-1-1v-7l1-2c4.375 0 4.005 6 6.5 6l3-6 3.5 1v9l-1 1-1 2v1l-1 1-2 5Z"/><path fill="#197D63" id="SSs6a" d="M59 156c4.058 0 6.292 2 10 2 0-11.4 8.085-26.669 13-36.5 1.784-3.567 8-8.439 8-12.5l-9-10-10 15.5c-5.722 11.443-12 26.95-12 40.5v1ZM398 156c-4.404 0-6.758 2-11 2 0-12.084-7.836-27.172-13-37.5l-8-11.5v-1c4.562 0 5.329-9 9-9h1c0 4.614 6.952 10.405 9 14.5 5.024 10.048 13 29.946 13 41.5v1Z"/><path fill="#A8A9AA" id="V3" d="m236 106-1 1v-7c1.684 0 1 4.679 1 6Z"/><path fill="#C9C9CA" id="scwm" d="m98 102-1 1 1-1ZM97 103c-1.577 0-2 1.762-2 3 1.577 0 2-1.762 2-3ZM379 142h2c0-8.999-16-28.195-16-33-2.682 0-2.852-6-6-6 0 4.068 6 9.235 6 14 1.352 0 14 22.319 14 25Z"/><path fill="#039399" id="AUDd1" d="M37 119h1l2-8 1-1v-1c-4.69 0-.468-5-4-5 0 4.089-5 8.422-5 13 .754 0 5 .447 5 2ZM425 117c-2.518 0-4.286 2-6 2l-3-8c1.186 0 1.186-1 0-1l-1-1c2.294 0 4-3.075 4-5 1.043 0 6 11.507 6 13Z"/><path fill="#C9C9CA" id="scwm" d="m77 142-2 1c0-8.385 16-29.66 16-34l4-3c0 3.541-3 6.145-3 10l-1 1v1c-1.76 0-3.394 4.288-4 5.5-2.492 4.984-10 12.92-10 18.5Z"/><path fill="#FF8D9F" id="MH" d="M223 131h2c0-3.981 2-7.629 2-12v-1l-1-1-2-5-1-1v-1l-1-1v-1l-1-1-2-1-1 2c0 .986-1.087 6-2 6l-3 7 9 10h1ZM231 131h3l1-1c0-2.961 8-4.911 8-9l-2-6c-3.093 0-.995-9-5-9l-1 1v1l-1 1-1 2v1l-1 1-2 5 1 13Z"/><path fill="#A9AAA8" id="chpl" d="M118 111c0 4.077-1 8.431-1 13-4.985 0 .142-7.215-2-11.5l-2-4c1.97-3.939 5-.01 5 2.5Z"/><path fill="#A8A9AA" id="V3" d="m221 107 1 1-1-1Z"/><path fill="#A9AAA8" id="chpl" d="M338 110c1.465 0 1.711-4.394 4.5-3l.5 3.5c-1.541 3.083-.758 14.5-3 14.5l-2-15Z"/><path fill="#CBC8CB" id="fi" d="M117 131c0 5.514 3.324 6 8 6l6-6.5c1.883-3.766 4-15.201 4-18.5-1.048 0-3 .473-3-1h-1c-2.342 0-10-.131-10-3l-3 3c0 4.077-1 8.431-1 13v7Z"/><path fill="#A8A9AA" id="V3" d="m235 108-1 1 1-1Z"/><path fill="#CBC8CB" id="fi" d="M339 132c0 5.219-3.8 5-8 5l-5-5.5c-2.081-4.162-5-15.934-5-19.5 1.145 0 4 .579 4-1 5.037 0 9.038-3 11-3l2 2 2 15v2c-1.643 0-1 3.765-1 5Z"/><path fill="#1A8061" id="SSs6b" d="M69 158h1c.484 0 4-11.589 4-13l1-1v-1c0-8.385 16-29.66 16-34h-1c0 4.061-6.216 8.933-8 12.5-4.915 9.831-13 25.1-13 36.5Z"/><path fill="#A8A9AA" id="V3" d="m222 109 1 1-1-1ZM234 109l-1 2 1-2Z"/><path fill="#7DCD4B" id="HPF" d="M287 111h1v-1l-3-1 1 2h1Z"/><path fill="#1A8061" id="SSs6b" d="M386 159h1v-1c0-12.084-7.836-27.172-13-37.5l-8-11.5h-1c0 4.805 16 24.001 16 33v1l2 3c0 4.339 3 8.536 3 13Z"/><path fill="#1A7E62" id="SSs1" d="M40 111h1v-1l-1 1Z"/><path fill="#A8AAAA" id="VL" d="m107 110-1 1 1-1Z"/><path fill="#98D5F9" id="CP" d="M105 194c0 5.188-12.15 8.675-15.5 7l-3.5-2-8-7-3-4c0-2.613-.93-4.36-2-6.5V167c1.684 0 1-4.679 1-6 1.643 0 1-3.765 1-5l2-3.5c1.806-3.612 2.162-8.323 4-12L92 122c3.283 0 7.595-11 12-11h2l1-1c5.208 0 6 6.674 6 11 0 1.321-.684 6 1 6v2l-1 2h-5l-1-1c0-3.89-5.571 2.642-6 3.5-2.027 4.053-2 10.633-2 15.5l1 8 1 8 1 4v1l-1 2v3c-1.587 0-1.587 6 0 6v3l1 1 2 6 1 1v2Z"/><path fill="#C7C8CC" id="alv" d="M161 111h8v-1c-1.49 0-8-.735-8 1Z"/><path fill="#7DCD4B" id="HPF" d="M169 111h2v-1h-2v1Z"/><path fill="#C7C8CC" id="alv" d="M288 111h8c0-1.735-6.51-1-8-1v1Z"/><path fill="#98D5F9" id="CP" d="M351 194c0 10.081 15.784 5 20 5l7-7 3-3v-2l1-1c0-6.758 1-14.627 1-22v-1l-1-2c0-8.321-5.455-18.41-9-25.5-1.822-3.645-8-9.215-8-12.5l-12-12h-2l-3.5-1c-4.832 2.416-4.5 12.198-4.5 17v4h6c0-4.726 4.981-.538 6 1.5 2.414 4.827 2 11.673 2 17.5 0 1.406.714 7-1 7 0 2.707-1 5.903-1 8v8c1.628 0 1.628 10 0 10l-3 9-1 1v1Z"/><path fill="#1A7E62" id="SSs1" d="M416 110c1.186 0 1.186 1 0 1v-1Z"/><path fill="#029397" id="AUDd2/3" d="M38 119h2c2.029 0 1-7.222 1-8h-1l-2 8Z"/><path fill="#C7C8CC" id="alv" d="M135 112h18v-1h-21c0 1.473 1.952 1 3 1Z"/><path fill="#FF909D" id="LD" d="m151 137-3 1-2-1c-1.4 0-3-9.182-3-11l1-1v-1c4.905 0 6-7.33 6-11 1.048 0 3 .473 3-1 1.49 0 8 .735 8-1h8c0 1.473 1.952 1 3 1h1l1 1h2l4 3c0 2.454 2.489 7.523 1 10.5l-3 9.5c-7.9 0-18.353 1-27 1Z"/><path fill="#A8A9AA" id="V3" d="m223 111 1 1-1-1Z"/><path fill="#FF909D" id="LD" d="m311 137-2 1-3-1h-27l-2-2.5c-1.867-3.735-.103-9.206-2-13l2-5.5v-1l2-1 1-1h3l1-1h1l2-1h9c0 1.076 9.512 2 11 2 0 4.12.322 6.144 2 9.5l4 2.5c0 4.549-2 8.157-2 12Z"/><path fill="#C7C8CC" id="alv" d="M325 111c0 1.579-2.855 1-4 1h-14c-1.145 0-4 .579-4-1h22Z"/><path fill="#029397" id="AUDd2/3" d="M416 119h3l-3-8c-2.043 0 0 .962 0 1.5l-2 1 2 5.5Z"/><path fill="#A8A9AA" id="V3" d="m233 112-1 1 1-1Z"/><path fill="#FE7F84" id="LGd-co" d="M141 125h2l1-1c4.905 0 6-7.33 6-11-5.504 0-15 5.791-15 12l4 1 2-1ZM321 125l-3 1-3-1h-2l-4-2.5c-1.678-3.356-2-5.38-2-9.5 5.542 0 14 5.788 14 12Z"/><path fill="#C8CCC7" id="hbc" d="M211 119c0 1.747.253 2 2 2l3-7c-2.215 0-1.519 2-3 2 0 1.238-.423 3-2 3ZM245 119c0 1.747-.253 2-2 2l-2-6c0-1.93 1.161 0 2 0l2 4Z"/><path fill="#FF8D9F" id="MH" d="m210 117 1 2c1.577 0 2-1.762 2-3v-1l-3 1v1ZM247 117l-2 2-2-4h1l2 1 1 1Z"/><path fill="#C9C7C9" id="ccb" d="m92 116-1 1 1-1Z"/><path fill="#FE909D" id="LP" d="M183 143h5c0-7.173 10-16.032 10-21l-4-3h-1l-4-2h-2l-2-1h-5c0 2.454 2.489 7.523 1 10.5l-3 9.5c0 1.463 3.486 7 5 7ZM269 143h5l5-6-2-2.5c-1.867-3.735-.103-9.206-2-13l2-5.5h-5l-2 1h-2l-2 1h-1l-2 1h-1l-4 3c0 1.474 11 16.617 11 21Z"/><path fill="#019099" id="AUDv1" d="M33 133c-4.867 0-2.684 6-6 6 0-7.865 5-16.347 5-22 .754 0 5 .447 5 2l-4 10c-1.186 0-1.186 1 0 1v3Z"/><path fill="#FF8F9D" id="LH" d="M209 139h2c0-2.354 8.346-6 10-6l1-2-9-10c-1.747 0-2-.253-2-2l-1-2h-1l-5 2-1 1v1c5.776 0-.316 7-3 7 0 2.409 1 5.181 1 7l3 4h5Z"/><path fill="#A8A9AA" id="V3" d="m226 117 1 1-1-1Z"/><path fill="#FF8F9D" id="LH" d="M247 139h5l4-4v-7c-1.402 0-7.085-5.707-4.5-7l3.5 1-1-2-5-2-1-1h-1l-2 2c0 1.747-.253 2-2 2 0 4.089-8 6.039-8 9 0 6.986 11 3.661 11 9h1Z"/><path fill="#C9C7C9" id="ccb" d="M382 161h1c0-6.862-4-11.971-4-19 0-2.681-12.648-25-14-25v6c0 3.285 6.178 8.855 8 12.5 3.545 7.09 9 17.179 9 25.5Z"/><path fill="#019099" id="AUDv1" d="M424 133c4.301 0 .61 6 6 6 0-7.465-5-14.801-5-22-2.518 0-4.286 2-6 2l4 10c1.186 0 1.186 1 0 1v1h1c1.186 0 1.186 1 0 1v1Z"/><path fill="#C9C7C9" id="ccb" d="M77 142c0 5.366-2 8.763-2 14l2-3.5c1.806-3.612 2.162-8.323 4-12L92 122l-1-4c-1.76 0-3.394 4.288-4 5.5-2.492 4.984-10 12.92-10 18.5Z"/><path fill="#A8A9AA" id="V3" d="m225 131 3.5 2 2.5-2-1-13-3 1c0 4.371-2 8.019-2 12Z"/><path fill="#029198" id="AUDv2/3" d="M40 119c0 3.686-3.34 10-7 10l4-10h3ZM419 119l4 10c-2.33 0-7-8.618-7-10h3Z"/><path fill="#FF8F9D" id="LH" d="m202 121-1 1 1-1Z"/><path fill="#CCC9C8" id="sm" d="M201 122c0 1.564-1 3.876-1 6 2.684 0 8.776-7 3-7h-1l-1 1ZM255 122l-3.5-1c-2.585 1.293 3.098 7 4.5 7 3.408 0-1-5.576-1-6Z"/><path fill="#029198" id="AUDv2/3" d="M416 121c0 1.93 1.93 0 0 0Z"/><path fill="#FD8F9D" id="CL" d="M190 165c1.835 0 4.235 2 7 2 0-2.192-5.525-15.45-3-20.5l3-7 4-4.5c0-1.819-1-4.591-1-7 0-2.124 1-4.436 1-6h-3c0 4.968-10 13.827-10 21 0 2.69-1 6.675-1 10 0 2.71-.777 12 3 12ZM266 166l-6 1c0-6.734 5.639-14.222 2-21.5-1.204-2.409-6-8.029-6-10.5v-7c3.408 0-1-5.576-1-6h3c0 1.474 11 16.617 11 21v12c0 3.526-2 8.954-2 10l-1 1Z"/><path fill="#FE909D" id="LP" d="M143 125h1v-1l-1 1Z"/><path fill="#FF8E9F" id="LGv" d="M133 132h1c2.101 0 5-2.831 5-5v-1l-4-1-1 3-1 1v3Z"/><path fill="#FF6F80" id="TH" d="M139 126v1l2-2-2 1Z"/><path fill="#CBC9C7" id="or" d="M137 145h1l5-3 1-1 1-1 1-3c-1.4 0-3-9.182-3-11v-1h-2l-2 2c0 2.169-2.899 5-5 5v1c4.896 0 10.574.352 7 7.5l-4 4.5Z"/><path fill="#FF6F80" id="TH" d="m144 125-1 1v-1h1Z"/><path fill="#CBC9C7" id="or" d="M319 146h2c0-3.626-12.434-9.033-2.5-14l3.5 1v-1l-5-5-2-2h-2c0 4.549-2 8.157-2 12 0 2.25 2 3.376 2 5h1l1 1 2 1 1 1 1 1Z"/><path fill="#FF6F80" id="TH" d="m318 126-1 1-2-2 3 1Z"/><path fill="#FF8E9F" id="LGv" d="M322 132h1v-4l-1-1-1-2-3 1-1 1 5 5Z"/><path fill="#CAC7CB" id="fiber tracts" d="m322 127 1 1-1-1ZM134 128l-1 1 1-1Z"/><path fill="#1A7E62" id="SSs1" d="M33 129c-1.186 0-1.186 1 0 1v-1Z"/><path fill="#CBC9C7" id="or" d="M105 157h8.5c1.295 0 4.5-1.927 4.5 0 .596 0 11-15.134 11-17l-4 3-1 1-1 1c-2.939 0-11 3.154-11-3l-4-8v-2l-1-2c0-3.89-5.571 2.642-6 3.5-2.027 4.053-2 10.633-2 15.5l6 8Z"/><path fill="#97D6F9" id="STR" d="M113 131h1v-2l-1 2Z"/><path fill="#CBC9C7" id="or" d="M339 157c0-1.158 5.232.366 6.5 1l6.5-1 1-1c0-1.178 2.572-6 4-6 0-5.827.414-12.673-2-17.5-1.019-2.038-6-6.226-6-1.5v2l-1 1c0 1.628-2.347 9-4 9 0 3.421-6.655 3-9 3l-1-1-1-1-6-5c0 2.3 9.749 18 12 18Z"/><path fill="#1A7E62" id="SSs1" d="M423 129c1.186 0 1.186 1 0 1v-1Z"/><path fill="#CCC" d="M108 131v1l-1-2 1 1Z"/><path fill="#C7CAC9" id="fr" d="M242 139h4c0-5.339-11-2.014-11-9l-1 1c0 3.492 4.445 8 8 8Z"/><path fill="#CAC7CB" id="fiber tracts" d="M323 130c1.399 0 1.399 2 0 2v-2Z"/><path fill="#97D6F9" id="STR" d="M108 132v2c2.904 0 5 2.055 5-3h-5v1Z"/><path fill="#CAC7CB" id="fiber tracts" d="m112 142 1.5-3c3.886-1.943 11.5-.294 11.5 4l4-3v-1l1-1 1-2-6 1c-4.676 0-8-.486-8-6h-4c0 5.055-2.096 3-5 3l4 8Z"/><path fill="#C7CAC9" id="fr" d="m223 131-2 2 1-2h1Z"/><path fill="#FE8F9E" id="PVT" d="M223 147h10l9-8c-3.555 0-8-4.508-8-8h-3l-2.5 2-3.5-2h-2l-2 2c0 3.526-3.543 6-7 6 0 2.279 9 4.438 9 8Z"/><path fill="#CAC7CB" id="fiber tracts" d="M344 143c0-5.424-11.305-4.89-12-3.5l1 4.5-6-5-2-3 6 1c4.2 0 8 .219 8-5l4-1c0 4.292 2.899 3 5 3 0 1.628-2.347 9-4 9Z"/><path fill="#97D6F9" id="STR" d="m349 133-1 1c-2.101 0-5 1.292-5-3h5l1 1v1Z"/><path fill="#CCC" d="M349 131v1l-1-1h1Z"/><path fill="#029198" id="AUDv2/3" d="M424 132v1l-1-2h1v1Z"/><path fill="#1A7E62" id="SSs1" d="M424 131c1.186 0 1.186 1 0 1v-1ZM25 148l6 1 2-16c-4.867 0-2.684 6-6 6-1.274 0-2 7.483-2 9Z"/><path fill="#FF6F80" id="TH" d="M133 133h1v-1h-1v1Z"/><path fill="#FD8F9F" id="RT" d="m148 194 1 3c-4.668 0-6.464-6-10-6l-4-4.5-18-19.5-1-5.5 2-4.5c.596 0 11-15.134 11-17v-1l1-1 1-2 1-1 1-1 1-1c4.896 0 10.574.352 7 7.5l-4 4.5-1 1-1 1-1 1v1l-1 2c-2.109 0-2 2.535-2 4-2.942 0-2 9.252-2 11.5 0 4.702 10.393 24.5 16 24.5l3 3ZM307 195v2c4.307 0 6.632-6 10-6l1-1 1-1 20-22v-10c-2.251 0-12-15.7-12-18l-2-3-1-1-2-2-3.5-1c-9.934 4.967 2.5 10.374 2.5 14l4 5.5c2.724 5.449 3.73 14.54 1 20-.706 1.411-.386 5.5-3 5.5 0 1.664-1.823 6-4 6 0 1.747-.253 2-2 2 0 1.747-.253 2-2 2 0 1.747-.253 2-2 2l-1 1-3 3-1 1-1 1Z"/><path fill="#FF6F80" id="TH" d="m322 133 2 2-1-3h-1v1Z"/><path fill="#CBC9C7" id="or" d="m134 133-1 1v-1h1Z"/><path fill="#C7CAC9" id="fr" d="M211 139c0 1.514 1.762 0 3 0 3.457 0 7-2.474 7-6-1.654 0-10 3.646-10 6Z"/><path fill="#CAC7CB" id="fiber tracts" d="m349 133-1 1 1-1Z"/><path fill="#1A7E62" id="SSs1" d="m431 148-6 1-1-16c4.301 0 .61 6 6 6 0 2.723 1 5.778 1 9Z"/><path fill="#CAC7CB" id="fiber tracts" d="m132 135-1 1 1-1Z"/><path fill="#FD909D" id="MD" d="M222 176c-3.29 0-5.518 5-9 5-6.452 0-16-7.009-16-14 0-2.192-5.525-15.45-3-20.5l3-7 4-4.5 3 4c0 3.135 5 1.666 5 0h2c0 1.514 1.762 0 3 0 0 2.279 9 4.438 9 8 0 5.007 4.683 14.134 2 19.5l-3 9.5ZM234 176l9 5c6.472 0 9.469-3.969 14-8.5 1.016-1.016 2.379-5.5 3-5.5 0-6.734 5.639-14.222 2-21.5-1.204-2.409-6-8.029-6-10.5l-4 4c0 3.135-5 1.666-5 0h-5l-9 8c0 5.164-3.665 16.171-1 21.5.946 1.892 2 5.372 2 7.5Z"/><path fill="#FF8E9C" id="PO" d="M193 177c-1.954 0-10 1.586-10 4-.497 0-14.782-21.063-16-23.5l-12-14-4-2.5v-4c8.647 0 19.1-1 27-1 0 1.463 3.486 7 5 7 0 1.761 2.307 10 4 10 0 2.71-.777 12 3 12 0 4.304 3 7.464 3 12ZM263 177c4.334 0 7.01 3 11 3l3.5-5c5.786-2.893 12.303-19.303 18-25l9.5-9 1-4h-27l-5 6c0 1.379-4.294 12-5 12 0 3.526-2 8.954-2 10l-1 1c0 3.771-3 7.478-3 11Z"/><path fill="#FF6F80" id="TH" d="m148 138-3 2 1-3 2 1Z"/><path fill="#FD8084" id="VPL" d="m151 141-7 1v-1l1-1 3-2 3-1v4ZM305 141l7 1-3-4-3-1-1 4Z"/><path fill="#FF6F80" id="TH" d="M312 142h1c0-1.624-2-2.75-2-5l-2 1 3 4Z"/><path fill="#CBC9C7" id="or" d="m130 138-1 1 1-1Z"/><path fill="#C8CBC7" id="st" d="m124 144-1 1c-2.939 0-11 3.154-11-3l1.5-3c3.886-1.943 11.5-.294 11.5 4l-1 1Z"/><path fill="#C7CAC9" id="fr" d="M204 139h5c0 1.666-5 3.135-5 0ZM247 139h5c0 3.135-5 1.666-5 0Z"/><path fill="#C8CBC7" id="st" d="m334 145 1 1c2.345 0 9 .421 9-3 0-5.424-11.305-4.89-12-3.5l1 4.5 1 1Z"/><path fill="#FF6F80" id="TH" d="m145 140-1 1 1-1ZM143 142h1v-1l-1 1Z"/><path fill="#FF7E83" id="VPM" d="M183 181c0 9.458-5.525 15-15 15-3.853 0-8.687-5.187-11.5-8-3.299-3.299-5.31-7.121-7.5-11.5-3.99-7.98-17-11.61-17-21.5l1-4 1-2 1-1 1-1 1-1 1-1 5-3h1l7-1 4 2.5 12 14c1.218 2.437 15.503 23.5 16 23.5ZM274 180c0 9.476 1.465 16 14 16 8.509 0 17.855-15.209 21-21.5l9.5-8.5c1.523-1.523 4.8-9 6.5-9 0-4.487-6-8.45-6-11l-1-1-1-1-2-1-1-1h-2l-7-1-9.5 9c-5.697 5.697-12.214 22.107-18 25l-3.5 5Z"/><path fill="#CCC8CA" id="ar" d="M73 167c-.853 0-2 6.031-2 7-1.801 0-1-13.842-1-16 .484 0 4-11.589 4-13l1-1v-1l2-1c0 5.366-2 8.763-2 14-1.014 0-2 3.959-2 5v6Z"/><path fill="#FF6F80" id="TH" d="m314 142 1 1-1-1Z"/><path fill="#CCC8CA" id="ar" d="M383 164c2.013 0 .752 9 3 9v-14c0-4.464-3-8.661-3-13-1.577 0-2-1.762-2-3v-1h-2c0 7.029 4 12.138 4 19v3Z"/><path fill="#CAC7CB" id="fiber tracts" d="m125 143-1 1 1-1Z"/><path fill="#FD8F9C" id="Eth" d="M188 143c0 2.69-1 6.675-1 10-1.693 0-4-8.239-4-10h5ZM274 143c0 1.379-4.294 12-5 12v-12h5Z"/><path fill="#C9C9CA" id="scwm" d="m381 143 2 3c-1.577 0-2-1.762-2-3ZM75 144l-1 1 1-1Z"/><path fill="#CAC7CB" id="fiber tracts" d="m124 144-1 1 1-1Z"/><path fill="#C7CACA" id="em" d="m317 144 1 1-1-1Z"/><path fill="#CBC9C7" id="or" d="M136 146h1v-1l-1 1Z"/><path fill="#C7CACA" id="em" d="m138 145-1 1v-1h1Z"/><path fill="#CAC7CB" id="fiber tracts" d="m334 145 1 1-1-1Z"/><path fill="#CBC9C7" id="or" d="M135 147h1v-1l-1 1Z"/><path fill="#C7CACA" id="em" d="m137 146-1 1v-1h1ZM325 157c0 2.911 2.695 9.109 1 12.5l-3 7.5c2.614 0 2.294-4.089 3-5.5 2.73-5.46 1.724-14.551-1-20l-4-5.5h-2c0 2.55 6 6.513 6 11Z"/><path fill="#CBC9C7" id="or" d="M134 148h1v-1l-1 1Z"/><path fill="#C7CACA" id="em" d="m136 147-1 1v-1h1Z"/><path fill="#FE909F" id="IMD" d="M222 176h12c0-2.128-1.054-5.608-2-7.5-2.665-5.329 1-16.336 1-21.5h-10c0 5.007 4.683 14.134 2 19.5l-3 9.5Z"/><path fill="#12AD83" id="VISC1" d="M28 191h6c0-2.332-2.86-13.221-4-15.5l1-26.5-6-1v32.5c1.707 3.414 3 6.352 3 10.5Z"/><path fill="#C7CACA" id="em" d="m135 148-1 1v-1h1Z"/><path fill="#12AD83" id="VISC1" d="M423 191h5l3-9.5V148l-6 1c0 5.674 3.571 24.359 1 29.5-1.69 3.38-3 8.529-3 12.5Z"/><path fill="#12AC83" id="VISC2/3" d="m45 190-11 1c0-2.332-2.86-13.221-4-15.5l1-26.5 8 2c0 9.916-1.14 22.222 3 30.5 1.13 2.26-.191 7.5 3 7.5v1Z"/><path fill="#CCC" d="M100 157h5l-6-8 1 8Z"/><path fill="#C7CACA" id="em" d="m134 149-1 2 1-2Z"/><path fill="#12AC83" id="VISC2/3" d="M422 191h1c0-3.971 1.31-9.12 3-12.5 2.571-5.141-1-23.826-1-29.5l-8 2c0 8.706 1.656 20.187-2 27.5-1.318 2.635-.231 10.5-4 10.5v1l11 1Z"/><path fill="#CCC" d="m353 156 3 1c1.714 0 1-5.594 1-7-1.428 0-4 4.822-4 6Z"/><path fill="#11AC82" id="VISC4" d="M45 152c0 6.216-5.205 24.09-2 30.5 1.07 2.14 2 3.887 2 6.5-3.191 0-1.87-5.24-3-7.5-4.14-8.278-3-20.584-3-30.5l6 1Z"/><path fill="#C7CACA" id="em" d="M131 155h1l1-4c-2.109 0-2 2.535-2 4Z"/><path fill="#11AC82" id="VISC4" d="M412 152c0 6.155 3.712 26.075 1 31.5l-2 5.5c3.769 0 2.682-7.865 4-10.5 3.656-7.313 2-18.794 2-27.5l-5 1Z"/><path fill="#12AD82" id="VISC5" d="m59 189-14 1v-1c0-2.613-.93-4.36-2-6.5-3.205-6.41 2-24.284 2-30.5 4.739 0 8.946 3 14 3v1c-1.06 0-2 6.743-2 8 0 8.868 2 16.906 2 25ZM411 189v1l-14-1 2-6.5c2.365-4.73-1-21.43-1-26.5v-1l14-3c0 6.155 3.712 26.075 1 31.5l-2 5.5Z"/><path fill="#C7CACA" id="em" d="M131 155c-2.942 0-2 9.252-2 11.5 0 4.702 10.393 24.5 16 24.5l-12-14.5c-3.573-7.147-2-13.622-2-21.5Z"/><path fill="#FD8084" id="VPL" d="M161 199h4c1.658 0 3-1.461 3-3-3.853 0-8.687-5.187-11.5-8-3.299-3.299-5.31-7.121-7.5-11.5-3.99-7.98-17-11.61-17-21.5h-1c0 7.878-1.573 14.353 2 21.5l12 14.5 3 3 5 3h2l1 1h2l2 1h1Z"/><path fill="#11AC83" id="VISC6a" d="M59 189h13v-1c0-3.249-1.54-9.581-3-12.5V158c-3.708 0-5.942-2-10-2-1.06 0-2 6.743-2 8 0 8.868 2 16.906 2 25Z"/><path fill="#C9C7C9" id="ccb" d="M73 161h1c1.643 0 1-3.765 1-5-1.014 0-2 3.959-2 5Z"/><path fill="#CCC8CA" id="ar" d="M101 165c5.191 0 10.59 2 16 2l-1-5.5 2-4.5c0-1.927-3.205 0-4.5 0H100l1 8ZM355 165c-5.034 0-10.59 2-16 2v-10c0-1.158 5.232.366 6.5 1l6.5-1 1-1 3 1c0 2.707-1 5.903-1 8Z"/><path fill="#CCC" d="m353 156-1 1 1-1Z"/><path fill="#11AC83" id="VISC6a" d="M385 189h12l2-6.5c2.365-4.73-1-21.43-1-26.5-4.404 0-6.758 2-11 2v1c0 10.217-2 19.586-2 29v1Z"/><path fill="#FD8084" id="VPL" d="M295 199h2l2-1h1l1-1h2l4-2 1-1 1-1 3-3 1-1 2-2 2-2 2-2c0-1.417 2.383-6 4-6l3-7.5c1.695-3.391-1-9.589-1-12.5-1.7 0-4.977 7.477-6.5 9l-9.5 8.5c-3.145 6.291-12.491 21.5-21 21.5l4 3h3Z"/><path fill="#11AD82" id="VISC6b" d="M72 188h1c0-4.577-2-8.982-2-14-1.801 0-1-13.842-1-16h-1v17.5c1.46 2.919 3 9.251 3 12.5ZM384 188h1c0-9.414 2-18.783 2-29h-1v14c0 4.875-2 9.727-2 15Z"/><path fill="#C8CBCC" id="ec" d="M74 161c0 1.321.684 6-1 6v-6h1ZM383 161v2l-1-2h1ZM380 194l3 1c0-1.406-.714-7 1-7 0-5.273 2-10.125 2-15-2.248 0-.987-9-3-9 0 7.373-1 15.242-1 22l-1 1v2c0 1.048.473 3-1 3v2Z"/><path fill="#CCC" d="m149 212-6.5-2c-6.664 3.332 4.724 17.052 7.5 11.5V214l6.5 9c1.738.869 10.5 4.617 10.5 7.5 0 2.127-6.946 5.277-8.5 4.5-9.239-4.62-16.23-15.23-23.5-22.5l-8-8.5v-1l-4-5c0-6.327-20-22.749-20-28l-1-1-1-4c5.191 0 10.59 2 16 2l18 19.5 4 4.5c0 .096 10 17.178 10 21Z"/><path fill="#FE8D9F" id="PCN" d="M207 189h2c0-1.473 1.952-1 3-1l-1-4.5 2-2.5c-6.452 0-16-7.009-16-14-2.765 0-5.165-2-7-2 0 4.304 3 7.464 3 12l9 10h1l1 1h1l2 1ZM267 165l-1 1 1-1Z"/><path fill="#CCC" d="M308 211c13.777 0 5 2.748 5 10l14-14 1-2 1-1 1-1 1-2c0-1.747.253-2 2-2v-1c0-4.725 20-23.139 20-27l2-3v-3c-5.034 0-10.59 2-16 2l-20 22-1 1-1 1c0 3.013-9 14.509-9 20Z"/><path fill="#FE8D9F" id="PCN" d="M248 189h1l3-1 3-1 8-10c0-3.522 3-7.229 3-11l-6 1c-.621 0-1.984 4.484-3 5.5-4.531 4.531-7.528 8.5-14 8.5 0 1.835 2 4.235 2 7 1.048 0 3-.473 3 1Z"/><path fill="#C8CBCC" id="ec" d="m76 194-2 1-1-7c0-4.577-2-8.982-2-14 0-.969 1.147-7 2-7v14.5c1.07 2.14 2 3.887 2 6.5l1 5v1Z"/><path fill="#97D6F9" id="STR" d="M353 171h2v-3l-2 3ZM102 170h1l-1-1v1ZM102 170l-1 2 1-2Z"/><path fill="#8598CC" id="GPe" d="M120 199h2l1-1c0-6.327-20-22.749-20-28h-1l-1 2v12l1 1 2 6 1 1v2c2.542 0 3.955 5 8 5h7ZM340 199h3c4.151 0 5.511-5 8-5v-1l1-1 3-9v-12h-2c0 3.861-20 22.275-20 27l2 1h5Z"/><path fill="#97D6F9" id="STR" d="M355 173c1.628 0 1.628 10 0 10v-10ZM101 175c-1.587 0-1.587 6 0 6v-6Z"/><path fill="#FD8E9E" id="CM" d="M241 188h4c0-2.765-2-5.165-2-7l-9-5h-12c-3.29 0-5.518 5-9 5l-2 2.5 1 4.5h3l10.5-3c1.536-.768 6.056 1 8 1 1.431 0 7.5.694 7.5 2Z"/><path fill="#FD7E84" id="VAL" d="M165 199c0 2.215 2 1.519 2 3 8.801 0 18.425-15 35-15l-9-10c-1.954 0-10 1.586-10 4 0 9.458-5.525 15-15 15 0 1.539-1.342 3-3 3ZM289 202h1l1-1 1-2-4-3c-12.535 0-14-6.524-14-16-3.99 0-6.666-3-11-3l-8 10c12.102 0 17.661 7.081 27.5 12 1.326.663 6.5 1.002 6.5 3Z"/><path fill="#C7CACA" id="em" d="M323 177c-1.617 0-4 4.583-4 6 2.177 0 4-4.336 4-6ZM319 183l-2 2c1.747 0 2-.253 2-2Z"/><path fill="#97D6F9" id="STR" d="m101 184 1 1-1-1Z"/><path fill="#FF8E9E" id="RH" d="M231 196h2c0-4.441 3.798-7 8-7v-1c0-1.306-6.069-2-7.5-2-1.944 0-6.464-1.768-8-1l-10.5 3v1c3.463 0 8 2.089 8 6l2 1h6Z"/><path fill="#C7CACA" id="em" d="m317 185-2 2c1.747 0 2-.253 2-2Z"/><path fill="#97D6F9" id="STR" d="m382 186-1 1 1-1Z"/><path fill="#FF7E84" id="VM" d="M196 216h6c0-2.139-1-4.033-1-7 0-6.163 5-12.46 5-19l-1-2h-1l-1-1h-1c-16.575 0-26.199 15-35 15l3 2 1 1h1l1 1h1l1 1h1l1 1h1l1 1h1l1 1h1l1 1 4 1 1 1 6 2 1 1h1Z"/><path fill="#FF6F80" id="TH" d="m203 187 1 1-1-1Z"/><path fill="#FF7E84" id="VM" d="M255 216h5l6-2 1-1h2l1-1 3-1 1-1h1l1-1h2l1-1 1-1h2l1-1 1-1h1l1-1 3-1v-1c0-1.998-5.174-2.337-6.5-3-9.839-4.919-15.398-12-27.5-12l-3 1-1 3c0 6.202 4 11.18 4 17v8Z"/><path fill="#C7CACA" id="em" d="m315 187-2 2c1.747 0 2-.253 2-2Z"/><path fill="#209766" id="AIp6a" d="M67 206h1c1.835 0 4.235-2 7-2 0-4.553-3-9.718-3-15H59c0 4.105 8 11.131 8 17Z"/><path fill="#219666" id="AIp6b" d="m75 204 1 1-2-10-1-7h-1v1c0 5.282 3 10.447 3 15Z"/><path fill="#97D6F9" id="STR" d="m78 192-2 1-1-5 3 4Z"/><path fill="#FF6F80" id="TH" d="m207 189-1 1-1-2 2 1ZM209 189h6v-1h-3c-1.048 0-3-.473-3 1ZM241 189h7c0-1.473-1.952-1-3-1h-4v1ZM249 189l2 2 1-3-3 1Z"/><path fill="#219666" id="AIp6b" d="M383 195v2c.689 0 2-7.178 2-8v-1h-1c-1.714 0-1 5.594-1 7Z"/><path fill="#209766" id="AIp6a" d="M388 206h1l8-17h-12c0 .822-1.311 8-2 8l-1 7c1.623 0 6 .005 6 2Z"/><path fill="#219864" id="AIp5" d="M64 209h1c0-2.215 2-1.519 2-3 0-5.869-8-12.895-8-17l-14 1 6 14.5c.974 1.949 7 4.77 7 5.5 2.124 0 4.436-1 6-1Z"/><path fill="#FD8E9F" id="SMT" d="M201 209c3.558 0 9-6.6 9 4l10-9 2-3 1-1v-5c0-3.911-4.537-6-8-6h-8l-1 1c0 6.54-5 12.837-5 19ZM255 208c-5.285 0-8-2.589-8 5l-11-9-2-3v-1l-1-1v-3c0-4.441 3.798-7 8-7h8l2 2c0 6.202 4 11.18 4 17Z"/><path fill="#C7CACA" id="em" d="m313 189-1 1 1-1Z"/><path fill="#8599CC" id="PAL" d="m319 189-1 1 1-1Z"/><path fill="#97D6F9" id="STR" d="M378 192h2c1.473 0 1-1.952 1-3l-3 3Z"/><path fill="#219864" id="AIp5" d="M393 209c1.564 0 3.876 1 6 1l5-3.5c2.375-4.75 7-10.914 7-16.5l-14-1-8 17 2 2 2 1Z"/><path fill="#209865" id="AIp2/3" d="M58 210c-5.645 0-10.044 3-15 3 0-5.574-9-14.696-9-22l11-1 6 14.5c.974 1.949 7 4.77 7 5.5Z"/><path fill="#8599CC" id="PAL" d="m318 190-1 1 1-1Z"/><path fill="#209865" id="AIp2/3" d="M399 210c5.407 0 9.279 3 14 3 0-3.988 9-14.169 9-22l-11-1c0 5.586-4.625 11.75-7 16.5l-5 3.5Z"/><path fill="#219765" id="AIp1" d="m43 213-4 2c-2.14 0-11-20.16-11-24h6c0 7.304 9 16.426 9 22Z"/><path fill="#97D6F9" id="STR" d="m104 191 1 1-1-1Z"/><path fill="#8599CC" id="PAL" d="m157 237 4 2c1.316 0 12-3.997 12-6-.689 0-2-7.178-2-8-2.778 0-3.325-7-5-7h-1c0 2.785-4.798-.649-5.5-1-1.987-.994-2.5-3.541-2.5-6l-5-4.5c-.59-1.181-2.62-7.5-1-7.5v-2h-2c-4.668 0-6.464-6-10-6 0 .096 10 17.178 10 21l1 2 6.5 9c1.738.869 10.5 4.617 10.5 7.5 0 2.127-6.946 5.277-8.5 4.5-9.239-4.62-16.23-15.23-23.5-22.5l-8-8.5 2 2.5c.448.896.187 4.344-1.5 3.5l-7.5-6v1l5 7 1 1c2.741 0 2.268 4 5 4 0-1.602-3.058-2.384-2-4.5.668-1.335 5.674 2.348 6 3l18 18.5c1.429 0 4 1.288 4 3ZM299 237l-4 2c-1.181 0-11-4.191-11-6l1-8 6-7c0 1.028 1.621 1.44 2.5 1 2.853-1.427 6.5-4.663 6.5-8 0-2.196 6-5.95 6-11v-2l1-1c4.307 0 6.632-6 10-6 0 3.013-9 14.509-9 20l-1 1v1l-5.5 8c-2.819 2.819-5.732 4.366-9 6-5.86 2.93.349 6.675 3 8 1.811.906 17.5-11.666 17.5-14l14-14c0 5.884 3.237 1 6 1l-1 3-1 2-4 2c0-10.384-20.415 19-24 19-1.186 0-1.186 1 0 1l-1 1c0-1.186-1-1.186-1 0h-1l-1 1Z"/><path fill="#219765" id="AIp1" d="m413 213 4 2c3.133 0 11-19.912 11-24h-6c0 7.831-9 18.012-9 22Z"/><path fill="#90EB8D" id="LA" d="M86 247h1v-17.5c0-1.483.487-6.5 2-6.5 0-4.263 1.01-8 6-8l2-2c0-5.427-11-8.573-11-14l-8-7-2 1v1c.18 0 .124 7.747 1 9.5 3.994 7.988 1.968 22.936 4 27l4 13.5v1l1 1v1Z"/><path fill="#97D6F9" id="STR" d="m352 192-1 1 1-1Z"/><path fill="#90EB8D" id="LA" d="m370 247-1 1c0-3.321 2.788-26-2-26 0-4.786-.844-7-6-7l-1-2c0-5.882 11-9.001 11-14l7-7h2v2c0 12.043-5 24.899-5 39-1.434 0-2 6.448-2 8l-1 2-1 2v1l-1 1Z"/><path fill="#FF6F80" id="TH" d="m309 193-1 1 1-1Z"/><path fill="#C8C9CB" id="amc" d="M82 238c0 1.146 1.34 6 3 6l-4-13.5c-2.032-4.064-.006-19.012-4-27-.876-1.753-.82-9.5-1-9.5l-2 1 2 10 2 4.5 2 21.5c.853 0 2 6.031 2 7Z"/><path fill="#97D6F9" id="STR" d="M98 215h1c0-3.9 4.362-7 8-7 0-2.189 5.066-3 7-3l1-2-2-4c-4.045 0-5.458-5-8-5 0 5.188-12.15 8.675-15.5 7l-3.5-2c0 5.427 11 8.573 11 14v2h1Z"/><path fill="#FF6F80" id="TH" d="M151 197h2l-5-3 1 3h2ZM308 194l-1 1 1-1Z"/><path fill="#97D6F9" id="STR" d="M358 215h1l1-2c0-5.882 11-9.001 11-14-4.216 0-20 5.081-20-5-2.489 0-3.849 5-8 5l-2 4 2 2c1.738 0 6 .686 6 3 3.694 0 9 3.052 9 7Z"/><path fill="#C8C9CB" id="amc" d="m377 229-2 4c0-14.101 5-26.957 5-39l3 1v2c-1.663 0-2 5.407-2 7v1c-3.293 0-4 19.843-4 24Z"/><path fill="#FF6F80" id="TH" d="m225 196-2 3v-4l2 1ZM307 197l-1 1-3-1 4-2v2Z"/><path fill="#FD909F" id="RE" d="M232 220h2l1-1h2v-1l-2-14-1-3v-1l-1-1v-1l-2-2h-6l-2 3v1l-1 1v3l-3 14 1 1h1l4 1c0-2.444-1.053-14.223 2.5-16 1.595-.798 2.117 2.735 2.5 3.5 1.66 3.319 2 8.598 2 12.5Z"/><path fill="#FF6F80" id="TH" d="M233 196v2l-2-2h2Z"/><path fill="#F0483B" id="ZI" d="m174 218 11 3c1.857 0 16 3.649 16-1.5 0-.63-2-.688-2-2.5-1.048 0-3 .473-3-1h-1l-1-1-6-2-1-1-4-1-1-1h-1l-1-1h-1l-1-1h-1l-1-1h-1l-1-1h-1l-1-1h-1l-1-1-3-2-6-3h-1l-2-1h-2l-1-1h-4v2c0 4.564 8 6.369 8 10 2.83 0 4.54 4 7 4l8 5Z"/><path fill="#FF6F80" id="TH" d="m155 197 1 1-1-1ZM301 197l-1 1 1-1Z"/><path fill="#F0483B" id="ZI" d="m282 218-11 3c-2.789 0-13.039 3.422-15-.5l2-3.5 2-1 6-2 1-1h2l1-1 3-1 1-1h1l1-1h2l1-1 1-1h2l1-1 1-1h1l1-1 3-1 1-1 1-1 4-2h2l2-1h1l1-1h2l3 1v2l-9 9h-1l-1 1-5 3-8 5Z"/><path fill="#219666" id="AIp6b" d="M381 204h1l1-7c-1.663 0-2 5.407-2 7Z"/><path fill="#8599CC" id="PAL" d="M122 199c2.732 0 2.259 4 5 4l-4-5-1 1Z"/><path fill="#FF6F80" id="TH" d="m158 198 2 1-2-1ZM299 198l-2 1 2-1Z"/><path fill="#8599CC" id="PAL" d="M333 199h2l-2-1v1Z"/><path fill="#C8CBC7" id="st" d="M119 205h1v-2l-1-1v-1c-1.747 0-2-.253-2-2h-4l2 4 4 2Z"/><path fill="#8599CC" id="PAL" d="m120 199-1 2c-1.747 0-2-.253-2-2h3Z"/><path fill="#A2B1D7" id="SI" d="m120 204 7.5 6c1.687.844 1.948-2.604 1.5-3.5l-2-2.5v-1c-2.741 0-2.268-4-5-4h-2l-1 2v1l1 1v1Z"/><path fill="#E64438" id="HY" d="M165 218h1l-7-9c0-3.631-8-5.436-8-10-1.62 0 .41 6.319 1 7.5l5 4.5c1.852 0 8 4.927 8 7Z"/><path fill="#FF6F80" id="TH" d="M165 199c0 2.215 2 1.519 2 3l-6-3h4ZM233 199l1 1-1-1ZM295 199l-4 2 1-2h3Z"/><path fill="#8599CC" id="PAL" d="M333 199c-1.747 0-2 .253-2 2l2-2Z"/><path fill="#A2B1D7" id="SI" d="m334 207-1 1c-2.763 0-6 4.884-6-1l1-2 1-1 1-1 1-2 2-2h3l1 3v1l-1 1-1 2-1 1Z"/><path fill="#8599CC" id="PAL" d="m340 199-3 3-1-3h4Z"/><path fill="#C8CBC7" id="st" d="M336 205h1l4-2 2-4h-3l-3 3v1l-1 1v1Z"/><path fill="#FF6F80" id="TH" d="m223 200-1 1 1-1Z"/><path fill="#E64438" id="HY" d="M297 211h3c0-2.196 6-5.95 6-11l-9 9v2Z"/><path fill="#FF6F80" id="TH" d="M220 204h2v-3l-2 3ZM235 204h1l-2-3 1 3ZM291 201l-1 1 1-1Z"/><path fill="#8599CC" id="PAL" d="m331 201-1 2 1-2ZM119 202l1 1-1-1Z"/><path fill="#FF6F80" id="TH" d="m290 202-1 1v-1h1Z"/><path fill="#7FC0E0" id="CEAm" d="M121 242c0 3.472 5.853 1 7 1 0-9.326-3-17.631-3-26-2.657 0-6-9.714-6-12l-4-2-1 2 3 5.5v9.5c0 1.235.643 5-1 5 0 2.386-1.196 6-4 6 0 1.238.423 3 2 3 1.782 0 7 6.482 7 8Z"/><path fill="#8599CC" id="PAL" d="m330 203-1 1 1-1ZM337 203l-1 1 1-1Z"/><path fill="#7FC0E0" id="CEAm" d="m336 242-3.5 2-4.5-1c0-9.198 3-17.266 3-26 3.45 0 6-8.69 6-12l4-2 2 2c0 .718-3.262 5.025-4 6.5-2.307 4.614 2 10.965 2 14.5 0 2.601 1.04 5 4 5v1l-1 1-1 1c-2.522 0-7 5.551-7 8Z"/><path fill="#A0EE9C" id="EPd" d="m71 229 4.5 4c2.712 1.356 3.183-2 4.5-2l-2-21.5-2-4.5-1-1c-2.765 0-5.165 2-7 2 0 4.914-1.443 9.615 1 14.5 1.662 3.324 5.875 7.5 2 7.5v1Z"/><path fill="#FF6F80" id="TH" d="m170 204 1 1-1-1Z"/><path fill="#FD909C" id="PR" d="m219 218-1 1c-2.04 0-9 1.087-9-2v-3l1-1 10-9h2l-3 14Z"/><path fill="#FC8F9F" id="Xi" d="M225 220c0 2.768 6.241 0 7 0 0-3.902-.34-9.181-2-12.5-.383-.765-.905-4.298-2.5-3.5-3.553 1.777-2.5 13.556-2.5 16Z"/><path fill="#FD909C" id="PR" d="m237 218 1 1c3.526 0 8.954-2 10-2v-1l-1-3-11-9h-1l2 14Z"/><path fill="#FF6F80" id="TH" d="m286 204-1 1 1-1Z"/><path fill="#8599CC" id="PAL" d="m329 204-1 1 1-1ZM336 205l-1 1 1-2v1Z"/><path fill="#209766" id="AIp6a" d="m382 204-1 1v-1h1Z"/><path fill="#A0EE9C" id="EPd" d="m384 230-1 2c-3.763 0-6 2.979-6-3 0-4.157.707-24 4-24l1-1c1.623 0 6 .005 6 2l1 1c0 9.575-5 15.201-5 22v1Z"/><path fill="#80BEE1" id="CEAl" d="M107 208c0 7.392 1.498 17 9 17 1.643 0 1-3.765 1-5v-9.5l-3-5.5c-1.934 0-7 .811-7 3Z"/><path fill="#C7CAC8" id="stc" d="M125 213c0 1.465 1.115 4 0 4-2.657 0-6-9.714-6-12h1l5 7v1Z"/><path fill="#FF6F80" id="TH" d="m172 205 1 1-1-1ZM284 205l-1 1 1-1Z"/><path fill="#8599CC" id="PAL" d="m328 205-1 2 1-2Z"/><path fill="#C7CAC8" id="stc" d="M331 213v4c3.45 0 6-8.69 6-12h-1l-1 1-1 1-1 1-1 3-1 2Z"/><path fill="#80BEE1" id="CEAl" d="M349 208c0 4.687-.285 18-8 18 0-3.535-4.307-9.886-2-14.5.738-1.475 4-5.782 4-6.5 1.738 0 6 .686 6 3Z"/><path fill="#C9C8CA" id="ee" d="M71 227v1c3.875 0-.338-4.176-2-7.5-2.443-4.885-1-9.586-1-14.5h-1c0 1.481-2 .785-2 3v2l3 11 1 1 1 3 1 1Z"/><path fill="#FF6F80" id="TH" d="m174 206 1 1-1-1ZM283 206l-1 1 1-1Z"/><path fill="#8599CC" id="PAL" d="m335 206-1 1 1-1Z"/><path fill="#C9C8CA" id="ee" d="M384 229h1v-1l1-1v-1l1-1v-1l1-1c0-3.818 3-6.678 3-11v-4l-2-2v1c0 9.575-5 15.201-5 22Z"/><path fill="#FF6F80" id="TH" d="m176 207 1 1-1-1Z"/><path fill="#C7C9CC" id="mtt" d="M202 217h6l1-1v-2l1-1c0-10.6-5.442-4-9-4 0 2.967 1 4.861 1 7v1ZM255 216c-1.564 0-3.876 1-6 1l-1-1-1-3c0-7.589 2.715-5 8-5v8Z"/><path fill="#FF6F80" id="TH" d="m280 207-1 1 1-1Z"/><path fill="#8599CC" id="PAL" d="m334 207-1 1 1-1Z"/><path fill="#80BFE0" id="CEAc" d="m111 230 1 1c2.804 0 4-3.614 4-6-7.502 0-9-9.608-9-17-3.638 0-8 3.1-8 7 0 3.995 12 10.675 12 15Z"/><path fill="#FF6F80" id="TH" d="m178 208 1 1-1-1ZM279 208l-1 1 1-1Z"/><path fill="#80BFE0" id="CEAc" d="m346 230-1 1c-2.96 0-4-2.399-4-5 7.715 0 8-13.313 8-18 3.694 0 9 3.052 9 7l-1 1-1 1-1 1c-1.577 0-2 1.762-2 3-1.821 0-7 7.338-7 9Z"/><path fill="#8AD987" id="CTXsp" d="m393 209-2 3v-4l2 1Z"/><path fill="#6ACAB9" id="PIR" d="M91 276c0 1.964-9.227 18-11 18-3.983 0-6.647-11.574-9.5-13-3.053-1.527-5.796-9.092-7.5-12.5-2.442-4.884-5.58-9.161-8-14l-8-23-8-16.5 4-2c4.956 0 9.355-3 15-3 2.124 0 4.436-1 6-1l1 2 3 11 1 1 1 3 1 1v2l5 9c0 4.824 9.497 19.494 12 24.5l4 8.5-1 5Z"/><path fill="#8AD987" id="CTXsp" d="M65 209v2l-1-2h1Z"/><path fill="#CCCACB" id="nst" d="M171 225h2c0-2.833-2-4.84-2-7-1.548 0-5-3.343-5-5-2.46 0-4.17-4-7-4l7 9c1.675 0 2.222 7 5 7Z"/><path fill="#FF6F80" id="TH" d="m180 209 1 1-1-1ZM276 209l-1 1 1-1Z"/><path fill="#E64438" id="HY" d="m296 209-1 1 1-1Z"/><path fill="#CCCACB" id="nst" d="M284 225h1l6-7 1-1 1-1v-1l2-2c0-1.747.253-2 2-2v-2h-1l-1 1-5 3c0 1.668-3.099 6-5 6 0 1.03-1 2.671-1 6Z"/><path fill="#6ACAB9" id="PIR" d="M365 276c0 1.927 10.375 18 11 18 3.144 0 11.676-15.853 13-18.5 3.524-7.048 8.524-13.048 12-20l8-23c2.297-4.595 8-12.309 8-17.5l-4-2c-4.721 0-8.593-3-14-3-2.124 0-4.436-1-6-1l-2 3c0 4.322-3 7.182-3 11l-1 1v2l-1 1-1 1v1l-1 1-1 2-3 6c0 9.905-15 23.449-15 33v5Z"/><path fill="#8499CC" id="GPi" d="m149 212-6.5-2c-6.664 3.332 4.724 17.052 7.5 11.5V214l-1-2Z"/><path fill="#FF6F80" id="TH" d="m182 210 1 1-1-1ZM274 210l-1 1 1-1Z"/><path fill="#8499CC" id="GPi" d="M307 213c0 .807-2.289 11.895 1.5 10l4.5-2c0-7.252 8.777-10-5-10l-1 1v1Z"/><path fill="#F1473B" id="STN" d="M157 211c1.852 0 8 4.927 8 7 0 2.785-4.798-.649-5.5-1-1.987-.994-2.5-3.541-2.5-6Z"/><path fill="#E64438" id="HY" d="M297 211c-1.747 0-2 .253-2 2 1.747 0 2-.253 2-2Z"/><path fill="#F1473B" id="STN" d="m292 217-1 1c0 1.028 1.621 1.44 2.5 1 2.853-1.427 6.5-4.663 6.5-8h-3c0 1.747-.253 2-2 2 0 1.747-.253 2-2 2v1l-1 1Z"/><path fill="#CCC" d="m308 211-1 1 1-1Z"/><path fill="#97D6F9" id="STR" d="m332 211-1 2 1-2ZM125 213h1l-1-1v1Z"/><path fill="#CACCCB" id="opt" d="M155 237c0 3.481 13.228 18.136 7.5 21l-3.5-1c0-9.301-27-29.965-27-38l-1-1v-1c0-1.602-3.058-2.384-2-4.5.668-1.335 5.674 2.348 6 3l18 18.5 1 1 1 1v1Z"/><path fill="#FF6F80" id="TH" d="m187 212 1 1-1-1ZM270 212l-1 1 1-1Z"/><path fill="#CACCCB" id="opt" d="M293 252c0 4.964.094 5 4 5 0-6.823 28-32.378 28-39l1-1 1-1v-1c0-10.384-20.415 19-24 19v1l-1 1-1 1-1 1-1 2c0 1.465.109 4-2 4 0 1.465.109 4-2 4l-2 4Z"/><path fill="#C8CBCC" id="ec" d="M95 215h2v-2l-2 2Z"/><path fill="#80BFE1" id="MEA" d="m135 285 1 2c3.547 0 20.926-12.353 23-16.5l1-10.5-1-3c0-9.301-27-29.965-27-38l-1-1v-1c-2.732 0-2.259-4-5-4h-1c0 1.465 1.115 4 0 4 0 8.369 3 16.674 3 26 2.515 0 0 5.014 0 6v2c0 5.572 1 12.756 1 19v3l6 12Z"/><path fill="#E64438" id="HY" d="M171 218h3l-8-5c0 1.657 3.452 5 5 5Z"/><path fill="#FD8E9F" id="SMT" d="m210 213-1 1 1-1Z"/><path fill="#FF6F80" id="TH" d="m267 213-1 1 1-1Z"/><path fill="#E64438" id="HY" d="M282 218c1.048 0 3-.473 3 1 1.901 0 5-4.332 5-6l-8 5ZM295 213l-2 2c1.747 0 2-.253 2-2Z"/><path fill="#CCC" d="m307 213-5.5 8c-2.819 2.819-5.732 4.366-9 6-5.86 2.93.349 6.675 3 8 1.811.906 17.5-11.666 17.5-14l-4.5 2c-3.789 1.895-1.5-9.193-1.5-10Z"/><path fill="#80BFE1" id="MEA" d="m321 286-1 1c-2.856 0-21.253-13.007-23-16.5V257c0-6.823 28-32.378 28-39l1-1 1-1v-1l4-2v4c0 8.734-3 16.802-3 26v28l-1 2c0 4.979-6 8.518-6 13Z"/><path fill="#C8CBCC" id="ec" d="M359 215h2l-1-2-1 2Z"/><path fill="#9DE79B" id="BLAa" d="M111 248c-2.864 0-5.35 4-9 4 0-.457-9.018-20.537-10-22.5-.632-1.265-1.278-6.5-3-6.5 0-4.263 1.01-8 6-8h3l12 15 3 5 1 6-1 4-2 3Z"/><path fill="#C8CBCC" id="ec" d="M110 230h1c0-4.325-12-11.005-12-15h-1l12 15Z"/><path fill="#FF6F80" id="TH" d="m194 215 1 1-1-1Z"/><path fill="#C8CBCC" id="ec" d="m359 215-2 1 1-1h1Z"/><path fill="#9DE79B" id="BLAa" d="M345 248c3.164 0 5.21 4 9 4l3-3.5 10-26.5c0-4.786-.844-7-6-7h-2l-2 1-1 1-1 1c0 1.238-.423 3-2 3 0 1.819-5.459 10-7 10h-1v2l-1 1-1 2-1 6 2 4 1 2Z"/><path fill="#FF6F80" id="TH" d="M199 217h3v-1h-6c0 1.473 1.952 1 3 1ZM208 217h1v-1l-1 1ZM248 217h1l-1-1v1Z"/><path fill="#E64438" id="HY" d="M273 257c0 1.323-6.893 7.286-8 9.5l-4 7.5c0-11.402-11.204-19-22-19 0-1.614 3.31-1 4.5-1 3.554 0 9.588 1.323 11.5-2.5 3.113-6.225 3.637-16.932-3.5-20.5l-8-1c-1.711-.855-6.817-2.091-9-1l-2.5 2c0-4.202-7.074 0-8 0l-1.5-2c-3.911-1.956-19.847 1.195-21.5 4.5-1.141 2.283-1 4.726-1 7.5 0 3.459-.437 7.627 1 10.5 1.979 3.958 8.801 2.5 12.5 2.5 1.19 0 4.5-.614 4.5 1-9.932 0-23 6.666-23 18l-4-7.5-8-8.5 4-2c0 10.744 10.12-4 4-4 0-4.547 4.742-13.015 2-18.5l-3-7-5-4.5c1.857 0 16 3.649 16-1.5 0-.63-2-.688-2-2.5h10c0 3.087 6.96 2 9 2h3c0 4.755 13 6.351 13 1l1-1h3c3.526 0 8.954-2 10-2h1c2.124 0 4.436-1 6-1 0 1.473 1.952 1 3 1l-2 3.5c1.961 3.922 12.211.5 15 .5l-4 3.5c-1.633 3.266-2.375 6.749-4 10-2.624 5.247 3 13.132 3 16.5-7.702 0 3 15.249 3 3l4 3Z"/><path fill="#FF6F80" id="TH" d="m260 216-2 1c-1.048 0-3 .473-3-1h5Z"/><path fill="#E64438" id="HY" d="m293 216-1 1 1-1Z"/><path fill="#8599CC" id="PAL" d="m327 216-1 1 1-1Z"/><path fill="#C8CBCC" id="ec" d="m357 216-1 1 1-1Z"/><path fill="#E64438" id="HY" d="m292 217-1 1 1-1Z"/><path fill="#8599CC" id="PAL" d="m326 217-1 1 1-1Z"/><path fill="#C8CBCC" id="ec" d="m356 217-1 1 1-1Z"/><path fill="#8599CC" id="PAL" d="m131 218 1 1-1-1Z"/><path fill="#F2483A" id="LHA" d="M172 259h2c1.477 0 5.699-2 9-2l4-2c0-2.226 1.774-4 4-4 0-4.547 4.742-13.015 2-18.5l-3-7-5-4.5-11-3h-3c0 2.16 2 4.167 2 7v8c0 2.003-10.684 6-12 6 0 4.193 4 7.454 4 11v1l7 8Z"/><path fill="#FF6F80" id="TH" d="M218 219h2l-1-1-1 1ZM237 219h1l-1-1v1Z"/><path fill="#F2483A" id="LHA" d="M283 259h2l2-2 1-1 1-1 1-2 1-2c0-1.238.423-3 2-3v-1c0-1.238.423-3 2-3v-5c-1.181 0-11-4.191-11-6-1.613 0-1.613-8 0-8 0-3.329 1-4.97 1-6 0-1.473-1.952-1-3-1l-11 3-4 3.5c-1.633 3.266-2.375 6.749-4 10-2.624 5.247 3 13.132 3 16.5l3 3 4 3c2.707 0 5.903 1 8 1l1 1h1Z"/><path fill="#C8CBCC" id="ec" d="M355 218c-1.577 0-2 1.762-2 3 1.577 0 2-1.762 2-3Z"/><path fill="#FF6F80" id="TH" d="M232 220h2c0 5.351-13 3.755-13-1l4 1c0 2.768 6.241 0 7 0ZM235 219l-1 1 1-1Z"/><path fill="#C8CBCC" id="ec" d="M346 230v1c1.541 0 7-8.181 7-10-1.821 0-7 7.338-7 9Z"/><path fill="#A0EE9C" id="EPd" d="m68 222 1 1-1-1Z"/><path fill="#9DE69C" id="BLAp" d="M365 253h1l1-1 1-2 1-1v-1c0-3.321 2.788-26-2-26l-10 26.5-3 3.5 1 1h10ZM96 253h6v-1c0-.457-9.018-20.537-10-22.5-.632-1.265-1.278-6.5-3-6.5-1.513 0-2 5.017-2 6.5V248l1 1v1c1.495 0 4.137 3 8 3Z"/><path fill="#A0EE9C" id="EPd" d="m388 223-1 1 1-1Z"/><path fill="#F2473A" id="PST" d="M173 225v8c-.689 0-2-7.178-2-8h2ZM285 225l-1 8c-1.613 0-1.613-8 0-8h1Z"/><path fill="#A0EE9C" id="EPd" d="M386 226h1v-1l-1 1ZM70 226l1 1-1-1Z"/><path fill="#8AD987" id="CTXsp" d="m387 226-1 1v-1h1ZM386 227l-1 1 1-1ZM76 238c1.602 0 2.384-3.058 4.5-2l1.5 2c0-.969-1.147-7-2-7-1.317 0-1.788 3.356-4.5 2l-4.5-4 5 9Z"/><path fill="#FE5445" id="DMH" d="M218 255h2l4-2v-22l-1.5-2c-3.911-1.956-19.847 1.195-21.5 4.5-1.141 2.283-1 4.726-1 7.5 0 3.459-.437 7.627 1 10.5 1.979 3.958 8.801 2.5 12.5 2.5 1.19 0 4.5-.614 4.5 1Z"/><path fill="#FD5D50" id="PVi" d="M229 271h3v-40c0-4.202-7.074 0-8 0v39l3 1v-29c0-1.475-.893-9 1.5-9l.5 38Z"/><path fill="#FE5445" id="DMH" d="M237 255h2c0-1.614 3.31-1 4.5-1 3.554 0 9.588 1.323 11.5-2.5 3.113-6.225 3.637-16.932-3.5-20.5l-8-1c-1.711-.855-6.817-2.091-9-1l-2.5 2v22l5 2Z"/><path fill="#8AD987" id="CTXsp" d="M375 237c1.076 0 5-2.669 5 1l3-6c-3.763 0-6 2.979-6-3l-2 4v4ZM385 229l-1 1v-1h1Z"/><path fill="#97D6F9" id="STR" d="m114 234-1 1-3-5h1l1 1c0 1.238.423 3 2 3ZM345 231h1v-1l-1 1Z"/><path fill="#8AD987" id="CTXsp" d="m384 230-1 2 1-2Z"/><path fill="#97D6F9" id="STR" d="M344 233h1v-1l-1 1Z"/><path fill="#A8A9AA" id="V3" d="M226 291h4l1-1c0-6.392-2-12.049-2-19l-.5-38c-2.393 0-1.5 7.525-1.5 9v42.5l-2 4.5 1 2Z"/><path fill="#97D6F9" id="STR" d="m344 234-1 2v-2l1-1v1Z"/><path fill="#8AD987" id="CTXsp" d="m345 233-1 1v-1h1Z"/><path fill="#C8C9CB" id="amc" d="m375 237-2 4c0-1.552.566-8 2-8v4Z"/><path fill="#80BEE2" id="IA" d="m121 242-2 1c-2.567 0-3.913-2-5-2l-1-6 1-1c1.782 0 7 6.482 7 8Z"/><path fill="#CCCAC9" id="sup" d="M165 250v1c0 3.034 3.725 4.95 5 7.5 1.213 2.426-4.292-2.584-5-4l-6-13-4-4.5v-1l-1-1-1-1c1.429 0 4 1.288 4 3l2 2.5c.939 1.879 3.37 10.5 6 10.5ZM303 234c-1.186 0-1.186 1 0 1v-1Z"/><path fill="#80BEE2" id="IA" d="m342 242-4 1-2-1c0-2.449 4.478-8 7-8v2l-1 6Z"/><path fill="#CAC7CB" id="fiber tracts" d="m154 235 1 1-1-1Z"/><path fill="#CCCAC9" id="sup" d="M301 236h1c0-1.186-1-1.186-1 0Z"/><path fill="#A0ED9D" id="EPv" d="M92 271h1v-14l-2-3-3-4v-1l-1-1-1-1v-1l-1-1v-1c-1.66 0-3-4.854-3-6l-1.5-2c-2.116-1.058-2.898 2-4.5 2 0 4.824 9.497 19.494 12 24.5l4 8.5Z"/><path fill="#CAC7CB" id="fiber tracts" d="m301 237-1 1-1-1 1-1 1 1Z"/><path fill="#CCCAC9" id="sup" d="M301 236v1l-1-1h1Z"/><path fill="#CAC7CB" id="fiber tracts" d="m302 236-1 1v-1h1Z"/><path fill="#A0ED9D" id="EPv" d="M364 271h1c0-9.551 15-23.095 15-33 0-3.669-3.924-1-5-1l-2 4-1 2-1 2v1l-1 1-1 1v1l-1 1-1 2-1 1-1 1-1 1-1 2c0 4.121 1 9.275 1 14Z"/><path fill="#CAC7CB" id="fiber tracts" d="M173 261v2c0 2.751-11.925-3-13-3l-1-3 3.5 1c5.728-2.864-7.5-17.519-7.5-21l4 4.5 6 13c.708 1.416 6.213 6.426 5 4-1.275-2.55-5-4.466-5-7.5l7 8 1 2Z"/><path fill="#CAC7CB" id="fiber tracts" d="M161 239c0 4.193 4 7.454 4 11-2.63 0-5.061-8.621-6-10.5l-2-2.5 4 2Z"/><path fill="#CAC7CB" id="fiber tracts" fill-rule="evenodd" d="M295 243c1.577 0 2-1.729 2 1 2.109 0 2-2.535 2-4l1-2-1-1-4 2v4m4-3c0-5.296-3.306 2-1.5 2l1.5-2Z"/><path fill="#CCCAC9" id="sup" d="m299 237 1 1-1-1ZM299 240c0-5.296-3.306 2-1.5 2l1.5-2Z"/><path fill="#8AD987" id="CTXsp" d="m119 244-6 1 1-4c1.087 0 2.433 2 5 2v1Z"/><path fill="#C8C9CB" id="amc" d="m373 241-1 2 1-2Z"/><path fill="#97D6F9" id="STR" d="m124 246 4 3c0-.986 2.515-6 0-6-1.147 0-7 2.472-7-1l-2 1v1l5 2Z"/><path fill="#CCCAC9" id="sup" d="M295 244c0 1.93 1.161 0 2 0 0-2.729-.423-1-2-1v1Z"/><path fill="#97D6F9" id="STR" d="m329 250-1 1v-8l4.5 1 3.5-2 2 1v1h-2l-1 1-4 2c-1.577 0-2 1.762-2 3Z"/><path fill="#8AD987" id="CTXsp" d="M338 244c2.518 0 4.286 2 6 2l-2-4-4 1v1Z"/><path fill="#C8C9CB" id="amc" d="m372 243-1 2 1-2Z"/><path fill="#84E981" id="BMAp" d="M125 249c-4.077 0-8.431 1-13 1l-1-2 2-3 6-1 5 2 1 3Z"/><path fill="#CAC7CB" id="fiber tracts" d="M293 247c1.577 0 2-1.729 2 1 2.109 0 2-2.535 2-4-.839 0-2 1.93-2 0-1.577 0-2 1.762-2 3Z"/><path fill="#8AD987" id="CTXsp" d="m336 244-1 1 1-1Z"/><path fill="#84E981" id="BMAp" d="m331 249 14 1v-2l-1-2c-1.714 0-3.482-2-6-2h-2l-1 1-4 2v2Z"/><path fill="#C8C9CB" id="amc" d="m85 245 1 1-1-1Z"/><path fill="#8AD987" id="CTXsp" d="M128 249v2l-3-2-1-3 4 3Z"/><path fill="#CCCAC9" id="sup" d="M293 248c0 1.93 1.161 0 2 0 0-2.729-.423-1-2-1v1Z"/><path fill="#C8C9CB" id="amc" d="m371 246-1 1 1-1ZM87 247v1l-1-1h1Z"/><path fill="#8AD987" id="CTXsp" d="m331 249-2 1c0-1.238.423-3 2-3v2Z"/><path fill="#90EB8D" id="LA" d="m87 248 1 1-1-1Z"/><path fill="#8AD987" id="CTXsp" d="M102 253c3.041 0 2.477 2 5 2 0-2.99 5-3.409 5-5l-1-2c-2.864 0-5.35 4-9 4v1Z"/><path fill="#CAC7CB" id="fiber tracts" d="M291 251c1.577 0 2-1.729 2 1l2-4c-.839 0-2 1.93-2 0-1.577 0-2 1.762-2 3Z"/><path fill="#8AD987" id="CTXsp" d="M355 253c-2.813 0-3.921 3-6 3 0-3.233-4-4.452-4-6v-2c3.164 0 5.21 4 9 4l1 1Z"/><path fill="#84EA80" id="BMAa" d="M114 277h2l1-1 10-4 2-2c0-6.244-1-13.428-1-19l-3-2c-4.077 0-8.431 1-13 1 0 1.591-5 2.01-5 5 0 7.058 5 13.33 5 20l2 2ZM339 276l4 1 2-2c0-6.742 4-12.258 4-19 0-3.233-4-4.452-4-6l-14-1-2 1-1 1v20l1 1 10 4Z"/><path fill="#8AD987" id="CTXsp" d="m369 249-1 1 1-1ZM91 254l3 2 2-3c-3.863 0-6.505-3-8-3l3 4Z"/><path fill="#C7C8CA" id="fx" d="m266 251 3 3c0 12.249-10.702-3-3-3Z"/><path fill="#CCCAC9" id="sup" d="M293 252c-1.077 0-3 5.451-3 1l1-2c1.577 0 2-1.729 2 1Z"/><path fill="#C7C8CA" id="fx" d="M191 251c6.12 0-4 14.744-4 4 0-2.226 1.774-4 4-4Z"/><path fill="#CAC7CB" id="fiber tracts" d="m291 251-1 2 1-2ZM283 261v2c0 .269 8.754-.127 10.5-1l3.5-3v-2c-3.906 0-4-.036-4-5-1.077 0-3 5.451-3 1l-1 2c3.866 0-3 6.89-3 4.5l1-2.5-2 2-2 2Z"/><path fill="#8AD987" id="CTXsp" d="m367 252-1 1 1-1Z"/><path fill="#9CE79C" id="BLAv" d="M101 280h5l4-1 1-2 1-2c0-6.67-5-12.942-5-20-2.523 0-1.959-2-5-2h-6l-2 3-1 1v14l1 5c2.367 0 4.032 4 7 4Z"/><path fill="#E64438" id="HY" d="m220 255 4 5v-7l-4 2ZM237 255l-5 6v-8l5 2Z"/><path fill="#9CE79C" id="BLAv" d="M351 280h4c2.968 0 4.633-4 7-4l2-5c0-4.725-1-9.879-1-14v-2l-2-2h-6c-2.813 0-3.921 3-6 3 0 6.742-4 12.258-4 19v2l2 2 4 1Z"/><path fill="#8AD987" id="CTXsp" d="M363 255h1l1-1v-1h-4l2 2Z"/><path fill="#C8C9CB" id="amc" d="m366 253-1 1v-1h1ZM94 256l-1 1-2-3 3 2ZM365 254l-1 1 1-1Z"/><path fill="#FF4A3D" id="VMH" d="M215 281c-3.255 0-6.058 2-10 2-3.288 0-9-3.185-9-7l-1-1v-2c0-11.334 13.068-18 23-18h2l4 5v11l-1 1v1c-1.577 0-2 1.762-2 3l-1 1c-1.238 0-3 .423-3 2l-2 2ZM260 277c0 3.693-5.913 6-9 6-8.461 0-14.408-10-18-10l-1-2v-10l5-6h2c10.796 0 22 7.598 22 19v2l-1 1Z"/><path fill="#CAC7CB" id="fiber tracts" d="m289 255-1 1 1-1Z"/><path fill="#CCCAC9" id="sup" d="m288 256-1 1-1 2.5c0 2.39 6.866-4.5 3-4.5l-1 1Z"/><path fill="#C8C9CB" id="amc" d="m364 255-1 2v-2h1Z"/><path fill="#CAC7CB" id="fiber tracts" d="m288 256-1 1 1-1Z"/><path fill="#F24839" id="TU" d="m208 286-1 4c-9.768 0-19.205-.91-24-10.5-1.084-2.169-8.339-16.5-10-16.5v-2l1-2c1.477 0 5.699-2 9-2l8 8.5 4 7.5v2l1 1c0 3.815 5.712 7 9 7l3 3ZM249 287v3c8.628 0 19.484-.467 24-9.5 1.042-2.083 8.922-17.5 10-17.5v-4h-1l-1-1c-2.097 0-5.293-1-8-1 0 1.323-6.893 7.286-8 9.5l-4 7.5v2l-1 1c0 3.693-5.913 6-9 6l-2 4Z"/><path fill="#E64438" id="HY" d="m281 258 1 1-1-1ZM174 259l-1 2-1-2h2ZM285 259l-2 2v-2h2Z"/><path fill="#99D2BD" id="OLF" d="m127 272 2 1v-3l-2 2Z"/><path fill="#FF5B4F" id="ARH" d="M215 291c0-3.912 7.828 0 10 0v-2l2-4.5V271l-3-1v1l-1 1v1c0 1.238-.423 3-2 3l-1 1c0 1.577-1.762 2-3 2 0 1.747-.253 2-2 2 0 1.391-5.706 5-7 5l-1 4c2.097 0 5.293 1 8 1Z"/><path fill="#99D2BD" id="OLF" d="M91 276h3l-1-5h-1l-1 5Z"/><path fill="#E64438" id="HY" d="m224 271-1 1 1-1Z"/><path fill="#FF5B4F" id="ARH" d="M241 291h7l1-1v-3c-1.895 0-16-12.66-16-14l-1-2h-3c0 6.951 2 12.608 2 19l1 1c2.454 0 9-4.485 9 0Z"/><path fill="#99D2BD" id="OLF" d="m329 272-2 1 1-2 1 1ZM362 276h3v-5h-1l-2 5Z"/><path fill="#60E5B7" id="COAa" d="M123 293h1c2.027 0 11-3.744 11-6v-2l-6-12-2-1-10 4-1 1v4c0 1.839 5.09 12 7 12ZM332 293h1c2.416 0 8-11.034 8-13l-2-4-10-4-2 1c0 4.979-6 8.518-6 13v1c0 1.823 9.17 6 11 6Z"/><path fill="#E64438" id="HY" d="M223 273c-1.577 0-2 1.762-2 3 1.577 0 2-1.762 2-3ZM251 283l-2 4c-1.895 0-16-12.66-16-14 3.592 0 9.539 10 18 10Z"/><path fill="#8AD987" id="CTXsp" d="M111 277h3l-2-2-1 2Z"/><path fill="#E64438" id="HY" d="m195 275 1 1-1-1Z"/><path fill="#8AD987" id="CTXsp" d="M343 277h2v-2l-2 2Z"/><path fill="#59D9AA" id="PAA" d="M80 294c0 5.717 21.357 7 25 7l-1-17-3-4c-2.968 0-4.633-4-7-4h-3c0 1.964-9.227 18-11 18Z"/><path fill="#99D2BD" id="OLF" d="m117 276-1 1 1-1Z"/><path fill="#E64438" id="HY" d="m221 276-1 1 1-1ZM261 276l-1 1 1-1Z"/><path fill="#99D2BD" id="OLF" d="M347 279c-2.124 0-4.436 1-6 1l-2-4 4 1h2l2 2Z"/><path fill="#59D9AA" id="PAA" d="M376 294c0 6.364-21.168 7-25 7 0-6.792 2-12.728 2-19l2-2c2.968 0 4.633-4 7-4h3c0 1.927 10.375 18 11 18Z"/><path fill="#99D2BD" id="OLF" d="M110 279c2.711 0 4.969 2 6 2v-4h-5l-1 2Z"/><path fill="#E64438" id="HY" d="M220 277c-1.238 0-3 .423-3 2 1.238 0 3-.423 3-2Z"/><path fill="#5FE6B7" id="COApl" d="M123 294c0 1.254-15.21 7-18 7l-1-17c0-2.424 2-2.76 2-4l4-1c2.711 0 4.969 2 6 2 0 1.839 5.09 12 7 12v1Z"/><path fill="#E64438" id="HY" d="m217 279-2 2c1.747 0 2-.253 2-2Z"/><path fill="#5FE6B7" id="COApl" d="M333 294c5.916 0 11.168 7 18 7 0-6.792 2-12.728 2-19l-2-2-4-1c-2.124 0-4.436 1-6 1 0 1.966-5.584 13-8 13v1Z"/><path fill="#99D2BD" id="OLF" d="M106 280c0 1.24-2 1.576-2 4l-3-4h5ZM355 280l-2 2-2-2h4Z"/><path fill="#E64438" id="HY" d="m205 283 3 3c1.294 0 7-3.609 7-5-3.255 0-6.058 2-10 2Z"/><path fill="#99D2BD" id="OLF" d="M135 287h1l-1-2v2ZM320 287h1v-1l-1 1Z"/><path fill="#F1473A" id="ME" d="M232 291c2.454 0 9-4.485 9 0 0 2.658-.873 1.187-2.5 2-7.326 3.663-13.157 7.843-20.5.5l-3-2.5c0-3.912 7.828 0 10 0h7Z"/><path fill="#E64438" id="HY" d="M225 291h1l-1-2v2ZM230 291h2l-1-1-1 1ZM249 290l-1 1 1-1Z"/><path fill="#99D2BD" id="OLF" d="m124 293-1 1v-1h1ZM333 293v1l-1-1h1Z"/></svg>