<svg xmlns="http://www.w3.org/2000/svg" viewBox="0 0 456 320"><path fill="#1BA598" id="RSPd1" d="M218 20h1l2-1c0-2.835-3.038-2.575-4-4.5-2.638-5.276-18.617-10.942-25.5-7.5L186 9l1 4c5.608 0 31-2.859 31 7ZM235 19l3 1c.682 0 7.726-6.113 9.5-7 7.023-3.512 15.874 1 22.5 1V9l-4.5-2c-8.059-4.03-21.498 2.498-26.5 7.5l-4 4.5Z"/><path fill="#1BA696" id="RSPagl1" d="m187 14-14 2-1-5c4.299 0 8.849-2 14-2l1 4v1ZM270 14l13 2 1-5c-3.718 0-8.855-2-14-2v5Z"/><path fill="#09848B" id="VISam1" d="M154 19h1c6.127 0 11.384-2 18-2v-1l-1-5c-6.492 0-12.93 4-19 4l1 4ZM283 17c7.049 0 12.432 2 19 2l1-4c-3.552 0-13.888-4-19-4l-1 5v1Z"/><path fill="#1BA697" id="RSPd2/3" d="M187 21c4.787 0 12.645-4.427 17.5-2l6 2 3.5 3 4-4c0-9.859-25.392-7-31-7v8ZM242 24h1c0-7.898 22.514-3 26-3h1v-7c-6.626 0-15.477-4.512-22.5-1-1.774.887-8.818 7-9.5 7v1l4 3Z"/><path fill="#1AA496" id="RSPagl2/3" d="m174 24 1 1c4.363 0 7.943-4 12-4v-7l-14 2v1l1 7ZM282 24v2l-12-5v-7l13 2v1l-1 7Z"/><path fill="#019FAC" id="VISa1" d="m117 27 2 4c3.562 0 23.499-8 27.5-10 1.471-.736 7.5.357 7.5-2l-1-4c-8.363 0-19.325 4.413-26.5 8-1.844.922-9.5.887-9.5 4ZM339 26c0 1.235.643 5-1 5-10.217 0-23.643-11-36-11v-1l1-4c3.54 0 27.487 6.493 30.5 8 1.79.895 3.403 3 5.5 3Z"/><path fill="#0B848A" id="VISam2/3" d="m174 24-15 4-4-9c6.127 0 11.384-2 18-2l1 7ZM297 28h1c0-2.348 2.067-8 4-8v-1c-6.568 0-11.951-2-19-2l-1 7 15 4Z"/><path fill="#009EAB" id="VISa2/3" d="M122 40h1c0-1.006 6.404-2.452 7.5-3 7.769-3.885 19.385-8 28.5-8v-1l-4-9h-1c0 2.357-6.029 1.264-7.5 2-4.001 2-23.938 10-27.5 10v1l3 8Z"/><path fill="#1AA596" id="RSPd5" d="M206 33h1c0-1.255 4.777-8 7-8v-1l-3.5-3-6-2c-4.855-2.427-12.713 2-17.5 2v12c.79 0 19-7.305 19 0Z"/><path fill="#1BA597" id="RSPv1" d="M230 64h2c0-9.207-2.955-25.59 1-33.5.904-1.808 2.198-9.5 5-9.5v-1l-3-1-3 4.5-1.5 2.5-2 4-7.5-11-2 1 6 12.5V64h2c0-6.958 3-5.736 3 0Z"/><path fill="#1AA596" id="RSPd5" d="M251 33c0-7.8 15.665 0 18 0V21c-3.486 0-26-4.898-26 3l7 9h1Z"/><path fill="#1AA597" id="RSPv2/3" d="m221 63 4 1V32.5L219 20h-1l-4 4v1c2.648 0 3.192 5.884 4 7.5 2.204 4.409 3 25.022 3 30.5Z"/><path fill="#009EAB" id="VISa2/3" d="m338 32-4 8-21.5-8c-1.96-.98-14.5-2.879-14.5-4 0-2.348 2.067-8 4-8 12.357 0 25.783 11 36 11v1Z"/><path fill="#1CA697" id="RSPagl5" d="m187 34-11 4-1-12v-1c4.363 0 7.943-4 12-4v13Z"/><path fill="#1AA597" id="RSPv2/3" d="m236 63-4 1c0-9.207-2.955-25.59 1-33.5.904-1.808 2.198-9.5 5-9.5l4 3c0 2.581-3.726 9.952-5 12.5L236 63Z"/><path fill="#1CA697" id="RSPagl5" d="M269 33c3.486 0 6.769 4 11 4 .766 0 2-9.884 2-11l-12-5h-1v12Z"/><path fill="#09858A" id="VISam4" d="M160 31h1c0-1.226 12.343-5 14-5v-1l-1-1-15 4v1l1 2Z"/><path fill="#1BA498" id="RSPv5" d="M236 63h2l6-5 1-1c0-7.674 5-15.881 5-24l-7-9h-1c0 2.581-3.726 9.952-5 12.5L236 63Z"/><path fill="#09858A" id="VISam4" d="M295 31h1l1-3-15-4v2c1.54 0 13 3.795 13 5Z"/><path fill="#1BA498" id="RSPv5" d="M218 63h3c0-5.478-.796-26.091-3-30.5-.808-1.616-1.352-7.5-4-7.5-2.223 0-7 6.745-7 8 0 6.995 1.023 17.546 4 23.5l2 2.5 5 4Z"/><path fill="#0A848B" id="VISam5" d="M164 41h1c0-1.11 9.537-3 11-3l-1-12c-1.657 0-14 3.774-14 5 0 4.09 3 6.21 3 10ZM291 41h1c0-3.028 3-6.394 3-10 0-1.205-11.46-5-13-5 0 1.116-1.234 11-2 11v1c1.612 0 11 1.778 11 3Z"/><path fill="#029FAB" id="VISrl1" d="m355 34-3 3c-5.071 0-8.891-5-14-5v-1c1.643 0 1-3.765 1-5l16 8ZM102 34l3 3c4.81 0 8.833-5 14-5v-1l-2-4c-2.599 0-15 4.381-15 7Z"/><path fill="#019EAC" id="VISa4" d="m334 40-2 5-4.5-3c-6.575-3.288-24.351-11-31.5-11l1-3h1c0 1.121 12.54 3.02 14.5 4l21.5 8ZM123 40c0 1.465-.109 4 2 4 7.193 0 25.109-13 35-13l-1-2c-9.115 0-20.731 4.115-28.5 8-1.096.548-7.5 1.994-7.5 3Z"/><path fill="#1AA697" id="RSPd6a" d="M192 43c0-2.614 6.031 0 7 0l7-10c0-7.305-18.21 0-19 0v1c0 3.222 1 6.277 1 9h4ZM257 44h1c0-4.108 8.283-1 10-1 1.763 0 1-8.343 1-10-2.335 0-18-7.8-18 0 0 4.206 6 6.794 6 11Z"/><path fill="#019EAB" id="VISa5" d="M128 53h1c0-2.13 6.044-3.272 7.5-4 7.775-3.888 18.326-8 27.5-8 0-3.79-3-5.91-3-10h-1c-9.891 0-27.807 13-35 13v1c0 3.45 3 4.946 3 8ZM332 45c0 1.334-2.717 7-4 7-7.068 0-23.551-11-36-11 0-3.028 3-6.394 3-10h1c7.149 0 24.925 7.712 31.5 11l4.5 3Z"/><path fill="#029EAC" id="VISrl2/3" d="M110 45h1l11-5-3-8c-5.167 0-9.19 5-14 5v1l5 7ZM345 45h2c0-.85 4.004-7 5-7v-1c-5.071 0-8.891-5-14-5l-4 8c3.648 0 7.682 5 11 5Z"/><path fill="#1AA498" id="RSPv6a" d="m209 55 4 4-2-2.5c-2.977-5.954-4-16.505-4-23.5h-1l-7 10v1c0 3.296 10 7.248 10 11ZM248 55c-1.481 0-.785 2-3 2 0-7.674 5-15.881 5-24h1c0 4.206 6 6.794 6 11v1c-2.226 0-4 1.774-4 4-1.901 0-5 4.332-5 6Z"/><path fill="#1CA597" id="RSPagl6a" d="M268 44c3.911 0 6.607 2 11 2l1-8v-1c-4.231 0-7.514-4-11-4 0 1.657.763 10-1 10v1Z"/><path fill="#188060" id="SSp-bfd1" d="M68 63h1l9.5-8c6.368-3.184 18.2-17 26.5-17v-1l-3-3c-8.358 0-20.78 15.14-28.5 19L65 60l3 3Z"/><path fill="#1CA597" id="RSPagl6a" d="m186 45-9 1-1-8 11-4c0 3.222 1 6.277 1 9v1l-2 1Z"/><path fill="#188060" id="SSp-bfd1" d="M388 63h1l2-3-6-5.5c-1.254-2.508-26.538-20.5-30-20.5l-3 3v1c3.701 0 21.88 12.38 25 15.5l11 9.5Z"/><path fill="#187F63" id="SSp-bfd2/3" d="M69 63c0 3.351 6 5.108 6 7 .885 0 11.261-11.38 14.5-13 5.086-2.543 9.893-6.447 15-9l5.5-3-5-7c-8.3 0-20.132 13.816-26.5 17L69 63Z"/><path fill="#0A828B" id="VISam6a" d="m177 46-10 1c0-1.974-2-3.517-2-6 0-1.11 9.537-3 11-3l1 8ZM279 46l11 1 1-6c0-1.222-9.388-3-11-3l-1 8Z"/><path fill="#187F63" id="SSp-bfd2/3" d="m388 63-7 7c0-2.306-21.643-18.572-24.5-20-1.637-.819-9.5-2.844-9.5-5 0-.85 4.004-7 5-7 3.701 0 21.88 12.38 25 15.5l11 9.5Z"/><path fill="#019EAA" id="VISrl4" d="m125 45-10 5-4-5 11-5h1c0 1.465-.109 4 2 4v1ZM341 51h1l3-6c-3.318 0-7.352-5-11-5l-2 5c1.628 0 9 3.9 9 6Z"/><path fill="#009DAC" id="VISa6a" d="m137 57-6 2c0-1.714-2-3.482-2-6 0-2.13 6.044-3.272 7.5-4 7.775-3.888 18.326-8 27.5-8h1c0 2.483 2 4.026 2 6-4.003 0-26 5.549-26 8-1.465 0-4-.109-4 2ZM328 53l-3 6-11.5-6c-6.076-3.038-16.422-6-23.5-6l1-6h1c12.449 0 28.932 11 36 11v1Z"/><path fill="#1BA698" id="RSPd6b" d="M198 44h1v-1c-.969 0-7-2.614-7 0 2.124 0 4.436 1 6 1ZM258 45c1.791 0 2.959-3.27 5.5-2l4.5 2v-2c-1.717 0-10-3.108-10 1v1ZM188 44v1l4-2h-4v1Z"/><path fill="#CACCC7" id="cing" d="m213 59 5 4c-10.684 0-17.634-8.567-26.5-13L161 51l-2-1c0-1.735 6.51-1 8-1l10-2c2.04 0 9 1.087 9-2h2l4-2c2.124 0 4.436 1 6 1 0 2.017 9.341 11 11 11l4 4ZM244 58l-6 5c10.941 0 18.453-8.476 27.5-13l29.5 1c0-1.473 1.952-1 3-1 0-1.735-6.51-1-8-1l-11-2c-4.23 0-7.554-2-11-2l-4.5-2c-2.541-1.27-3.709 2-5.5 2h-1l-4 4c0 1.668-3.099 6-5 6-1.481 0-.785 2-3 2l-1 1Z"/><path fill="#1AA598" id="RSPagl6b" d="M186 45h2v-1l-2 1Z"/><path fill="#1AA497" id="RSPv6b" d="M199 44c0 3.296 10 7.248 10 11-1.659 0-11-8.983-11-11h1ZM257 45h1v-1h-1v1Z"/><path fill="#1AA598" id="RSPagl6b" d="M279 46v1c-4.23 0-7.554-2-11-2v-1c3.911 0 6.607 2 11 2Z"/><path fill="#197C64" id="SSp-bfd4" d="M80 77h1l7.5-7c3.472-3.472 22.679-19 26.5-19v-1l-4-5h-1l-5.5 3c-5.107 2.553-9.914 6.457-15 9-3.239 1.62-13.615 13-14.5 13v1l5 6Z"/><path fill="#019DAB" id="VISrl5" d="M121 57h1c0-1.428 4.822-4 6-4 0-3.054-3-4.55-3-8l-10 5v1c2.103 0 6 4.468 6 6Z"/><path fill="#1AA598" id="RSPagl6b" d="M177 46v1c2.04 0 9 1.087 9-2l-9 1Z"/><path fill="#1AA497" id="RSPv6b" d="M257 45c-2.226 0-4 1.774-4 4l4-4Z"/><path fill="#019DAB" id="VISrl5" d="m328 53 7 3 6-5c0-2.1-7.372-6-9-6 0 1.334-2.717 7-4 7v1Z"/><path fill="#197C64" id="SSp-bfd4" d="M376 77h1c0-2.58 4-3.211 4-6v-1c0-2.306-21.643-18.572-24.5-20-1.637-.819-9.5-2.844-9.5-5h-2l-3 6c5.478 0 20.927 16.714 27.5 20l6.5 6Z"/><path fill="#08838A" id="VISam6b" d="m177 47-10 2v-2l10-1v1ZM290 47v2l-11-2v-1l11 1Z"/><path fill="#029FAC" id="VISa6b" d="M142 55h1c5.233 0 10.209-5 16-5 0-1.735 6.51-1 8-1v-2c-4.003 0-26 5.549-26 8h1ZM325 60v1l-11-6c-5.308 0-10.275-5-16-5 0-1.735-6.51-1-8-1v-2c7.078 0 17.424 2.962 23.5 6l11.5 6v1Z"/><path fill="#1AA497" id="RSPv6b" d="M253 49c-1.901 0-5 4.332-5 6 1.901 0 5-4.332 5-6Z"/><path fill="#C9C9CA" id="scwm" d="M143 55v2c1.463 0 12.978-3.239 14.5-4l3.5-2-2-1c-5.791 0-10.767 5-16 5Z"/><path fill="#C7CACC" id="ccs" d="M95 107c-3.635 0-4.506 13-8 13 0-15.253 18.94-41.72 33.5-49l16-10c1.426-.713 6.5-1.764 6.5-4 1.463 0 12.978-3.239 14.5-4l3.5-2 30.5-1c8.866 4.433 15.816 13 26.5 13h3l4 1h7l4-1h2c10.941 0 18.453-8.476 27.5-13l29.5 1 3.5 2c1.014.507 13.764 4 14.5 4l12.5 8c18.871 9.436 43.5 31.325 43.5 54-3.494 0-4.365-13-8-13l-1-2-1-1c0-5.73-9.891-12.281-12-16.5-7.922-15.844-41.165-31.5-59-31.5h-5c-1.235 0-5-.643-5 1l-2 1h-3c-9.295 0-11.798 8.649-18.5 12-5.421 2.71-13.392 3.196-17 5-1.185.593-9.07 2.465-10 2-5.227-2.613-12.816-.408-18-3-8.877-4.438-15.639-16-26.5-16h-2c0-2.488-6.101-2-8-2h-4c-2.418 0-14-.5-14 2-1.623 0-6 .005-6 2-1.85 0-9 1.784-9 4-1.856 0-7 1.782-7 4-1.238 0-3 .423-3 2-1.238 0-3 .423-3 2-1.429 0-4 1.288-4 3l-1 1-1 1-2 1c-1.747 0-2 .253-2 2-1.747 0-2 .253-2 2-2.226 0-4 1.774-4 4-1.747 0-2 .253-2 2-2.289 0-6 6.178-6 8-1.577 0-2 1.762-2 3-1.577 0-2 1.762-2 3-1.028 0-4 4.666-4 6Z"/><path fill="#C9C9CA" id="scwm" d="m314 55-1 2c-.736 0-13.486-3.493-14.5-4l-3.5-2c0-1.473 1.952-1 3-1 5.725 0 10.692 5 16 5Z"/><path fill="#1A7D62" id="SSp-bfd5" d="M85 85h1l9-9.5c2.91-2.91 22.092-18.5 26-18.5 0-1.532-3.897-6-6-6-3.821 0-23.028 15.528-26.5 19L81 77l4 8ZM376 77c0 3.396-5 5.177-5 8l-10-9.5c-3.669-3.67-21.133-18.5-26-18.5v-1l6-5h1c5.478 0 20.927 16.714 27.5 20l6.5 6Z"/><path fill="#029EAB" id="VISrl6a" d="m131 60-4 1c-2.732 0-2.259-4-5-4 0-1.428 4.822-4 6-4h1c0 2.518 2 4.286 2 6v1ZM329 61h1c0-1.43 3.939-4 5-4v-1l-7-3-3 6v1l4 1Z"/><path fill="#029FAC" id="VISa6b" d="m141 56-4 1c0-2.109 2.535-2 4-2v1Z"/><path fill="#C9C9CA" id="scwm" d="m142 55-1 1v-1h1Z"/><path fill="#CBC9C7" id="or" d="m75 137 2 4c1.572 0 8.324-18 10-18v-3c0-15.253 18.94-41.72 33.5-49l16-10c1.426-.713 6.5-1.764 6.5-4v-2h-1l-1 1-4 1c0 1.617-4.583 4-6 4l-3 1c0 1.077-3.762 3-5 3 0 1.812-5.824 6-8 6 0 2.195-1.91 2.41-3.5 4-2.46 2.46-11.018 12-14.5 12 0 1.747-.253 2-2 2 0 1.429-1.288 4-3 4 0 2.787-5.995 10.495-8 12.5l-3 3.5c0 1.048.473 3-1 3 0 5.278-5 9.235-5 15v4c4.057 0 0 3.756 0 6Z"/><path fill="#C7C8CC" id="alv" d="M169 55c-2.418 0-14-.5-14 2 1.727 0 14-.918 14-2Z"/><path fill="#7ECF4B" id="CA1" d="M206 101h1c4.679 0 8.117-4 10-4 0-4.506 3-7.078 3-12l-2-2h-2l-1-1h-1l-1-1h-1c-1.178 0-6-2.572-6-4l-1-1c-3.408 0-14.163-11.663-16.5-14l-6.5-5h-1c-1.257 0-8-.94-8-2h-4c0 1.082-12.273 2-14 2 0 1.995-4.377 2-6 2 0 1.817-7.169 4-9 4 0 1.948-5.428 4-7 4 0 1.577-1.762 2-3 2 0 1.577-1.762 2-3 2 0 1.712-2.571 3-4 3l-1 1-1 1-2 1c0 1.747-.253 2-2 2l-2 2-4 4c0 1.747-.253 2-2 2 0 1.626-4.11 8-6 8 0 1.238-.423 3-2 3l-1 3 12.5-4 19.5-1c0-3.745 9.126-7.813 11.5-9 16.322-8.16 24.212-9.394 41-1 4.348 2.174 18.074 15 21.5 15Z"/><path fill="#C7C8CC" id="alv" d="M173 55c1.899 0 8-.488 8 2-1.257 0-8-.94-8-2ZM283 55c-1.235 0-5-.643-5 1 1.235 0 5 .643 5-1Z"/><path fill="#7ECF4B" id="CA1" d="M249 101h1c4.232 0 7.622-6.06 11.5-8l12-8c4.113-2.056 8.888-2.944 13-5 7.869-3.934 25.002 6.001 31 9l7.5 7 19.5 1c2.484 1.242 8.87 4 11.5 4 0-4.313-5.196-6.891-7-10.5-6.868-13.735-28.25-24.375-40.5-30.5-3.916-1.958-10.442-4-15-4-1.278 0-5.5.666-5.5-1h-5c0 1.643-3.765 1-5 1l-2 1h-1l-2 1-2 1-1 1-1 1h-1l-1 1-1 1-1 1c0 2.41-9.811 11-12 11l-1 1-1 1h-1l-1 1-1 1h-1l-1 1-1 1h-2l-1 1h-1l-1 1h-1l-2 2-1 1c0 3.414 3 6.353 3 10 0 3.508 7.447 5 10 5Z"/><path fill="#C7C8CC" id="alv" d="M349 135c1.899 0 10 2.74 10 5 1.55 0 2.364-6.228 3-7.5 4.005-8.011-1-18.89-1-26.5l-1-2-1-1c0-5.73-9.891-12.281-12-16.5-7.922-15.844-41.165-31.5-59-31.5 0 1.666 4.222 1 5.5 1 4.558 0 11.084 2.042 15 4 12.25 6.125 33.632 16.765 40.5 30.5 1.804 3.609 7 6.187 7 10.5l2 4c1.59 0 1.443 4.386 2 5.5 3.135 6.27 3.497 18.001-3.5 21.5-11.164 5.582-29.03-21-41.5-21l2 2h1l1 1h1l1 1h1l2 2h1l1 1 2 1c1.461 0 9 6.306 9 8 1.259 0 12 7.604 12 8Z"/><path fill="#CBC9C7" id="or" d="m381 137-2 4c0-6.196-9-12.371-9-19l-1-1v-2c0-22.675-24.629-44.564-43.5-54L313 57l1-2 11 6 3 1 9.5 7c4.041 4.04 18.221 16.61 21 18l6.5 7c0 2.036 7.059 12.559 8.5 14l3.5 4c0 5.428 4 8.449 4 14l1 5c-3.685 0-1 3.645-1 6Z"/><path fill="#C7C8CC" id="alv" d="m278 56-2 1 2-1Z"/><path fill="#198060" id="SSp-bfd6a" d="M95 89c-2.618 0-1.65 3-4 3l-5-7 9-9.5c2.91-2.91 22.092-18.5 26-18.5h1c2.741 0 2.268 4 5 4v1c-1.429 0-4 1.288-4 3-2.36 0-8 3.842-8 6-2.414 0-18 14.4-18 16-1.747 0-2 .253-2 2Z"/><path fill="#029FAC" id="VISa6b" d="M131 60v1c1.417 0 6-2.383 6-4l-6 2v1Z"/><path fill="#C7C8CC" id="alv" d="M155 57c-1.623 0-6 .005-6 2 1.623 0 6-.005 6-2ZM183 57l4.5 3L205 76c-3.408 0-14.163-11.663-16.5-14l-6.5-5h1Z"/><path fill="#C9CCC9" id="dhc" d="M239 83h1l1-1h1l1-1h2l1-1 1-1h1l1-1 1-1h1l1-1 1-1c0-2.41 9.811-11 12-11l1-1 1-1 1-1h1l1-1 1-1 2-1v-1c-9.295 0-11.798 8.649-18.5 12-5.421 2.71-13.392 3.196-17 5-1.185.593-9.07 2.465-10 2-5.227-2.613-12.816-.408-18-3-8.877-4.438-15.639-16-26.5-16l4.5 3L205 76l1 1c1.178 0 6 2.572 6 4h1l1 1h1l1 1h23Z"/><path fill="#1AA498" id="RSPv6a" d="m245 57-1 1 1-1Z"/><path fill="#C7C8CC" id="alv" d="m275 57-2 1v-1h2Z"/><path fill="#198060" id="SSp-bfd6a" d="M371 86c-2.86 0-3.869 6-6 6l-8-7.5c-2.265-4.53-10.4-12.45-16.5-15.5-2.231-1.115-10.5-5.579-10.5-8 0-1.43 3.939-4 5-4 4.867 0 22.331 14.83 26 18.5l10 9.5v1Z"/><path fill="#C7C8CC" id="alv" d="m273 58-2 1 2-1ZM149 59c-1.85 0-9 1.784-9 4 1.831 0 9-2.183 9-4ZM271 59l-1 1 1-1Z"/><path fill="#1A7E62" id="SSs1" d="M52 81h1c0-5.022 15-14.603 15-18l-3-3c0 2.082-16 13.52-16 18l3 3Z"/><path fill="#009DAA" id="VISrl6b" d="M127 62h1l3-1v-1l-4 1v1Z"/><path fill="#C7C8CC" id="alv" d="m270 60-1 1 1-1Z"/><path fill="#009DAA" id="VISrl6b" d="m329 61-1 1-3-1v-1l4 1Z"/><path fill="#1A7E62" id="SSs1" d="M403 81h1l3-4-2.5-4L391 60l-2 3c0 5.603 14 10.799 14 18Z"/><path fill="#C7C8CC" id="alv" d="m268 61-1 1 1-1Z"/><path fill="#1A7E61" id="SSp-bfd6b" d="M365 93v1l-6.5-7c-2.779-1.39-16.959-13.96-21-18l-9.5-7 1-1h1c0 2.421 8.269 6.885 10.5 8 6.1 3.05 14.235 10.97 16.5 15.5l8 7.5v1ZM128 62c0 1.077-3.762 3-5 3 0-1.712 2.571-3 4-3h1Z"/><path fill="#C7C8CC" id="alv" d="m267 62-1 1 1-1Z"/><path fill="#1B8063" id="SSs2/3" d="m53 81 7 8c2.419 0 11.495-18 15-18v-1c0-1.892-6-3.649-6-7h-1c0 3.397-15 12.978-15 18Z"/><path fill="#C7C8CC" id="alv" d="M140 63c-1.856 0-7 1.782-7 4 1.572 0 7-2.052 7-4ZM266 63l-1 1 1-1Z"/><path fill="#1B8063" id="SSs2/3" d="m403 81-7 8c-1.692 0-11.077-18-15-18v-1l7-7h1c0 5.603 14 10.799 14 18Z"/><path fill="#C7C8CC" id="alv" d="M265 64c-2.189 0-12 8.59-12 11 2.189 0 12-8.59 12-11Z"/><path fill="#1A7E61" id="SSp-bfd6b" d="M123 65c-2.36 0-8 3.842-8 6 2.176 0 8-4.188 8-6Z"/><path fill="#C7C8CC" id="alv" d="M133 67c-1.238 0-3 .423-3 2 1.238 0 3-.423 3-2ZM130 69c-1.238 0-3 .423-3 2 1.238 0 3-.423 3-2Z"/><path fill="#187C63" id="SSs4" d="M64 94h1c0-5.138 15-14.632 15-17l-5-6c-3.505 0-12.581 18-15 18v1l4 4Z"/><path fill="#1A7E61" id="SSp-bfd6b" d="M115 71c-2.414 0-18 14.4-18 16 3.482 0 12.04-9.54 14.5-12 1.59-1.59 3.5-1.805 3.5-4Z"/><path fill="#C7C8CC" id="alv" d="M127 71c-1.429 0-4 1.288-4 3 1.429 0 4-1.288 4-3Z"/><path fill="#187C63" id="SSs4" d="M392 94h1c0-1.114 2.034-4 3-4v-1c-1.692 0-11.077-18-15-18 0 2.789-4 3.42-4 6 0 3.43 15 12.947 15 17Z"/><path fill="#C7C8CC" id="alv" d="m123 74-1 1 1-1ZM122 75l-1 1 1-1ZM253 75l-1 1 1-1ZM121 76l-2 1 2-1ZM252 76l-1 1 1-1Z"/><path fill="#1C8063" id="SSs5" d="M65 94c0 1.938 6.038 9 8 9 0-6.288 12-11.72 12-18l-4-8h-1c0 2.368-15 11.862-15 17Z"/><path fill="#C7C8CC" id="alv" d="M119 77c-1.747 0-2 .253-2 2 1.747 0 2-.253 2-2ZM206 77c1.178 0 6 2.572 6 4-1.178 0-6-2.572-6-4ZM250 77l-1 1 1-1Z"/><path fill="#1C8063" id="SSs5" d="m392 94-8 9-13-17v-1c0-2.823 5-4.604 5-8h1c0 3.43 15 12.947 15 17Z"/><path fill="#039399" id="AUDd1" d="M420 97c-1.312 0-2.446 3-5 3l-11-19 3-4c1.76 0 3.394 4.288 4 5.5 2.268 4.537 9 9.208 9 14.5ZM40 101h1c0-7.017 11-12.86 11-20l-3-3c-1.028 0-13 17.184-13 19 1.634 0 4 2.635 4 4Z"/><path fill="#C7C8CC" id="alv" d="m249 78-1 1 1-1ZM117 79c-1.747 0-2 .253-2 2l2-2ZM247 79l-1 1 1-1Z"/><path fill="#7BD04A" id="DG-mo" d="m151 109 2 1 27.5-1c6.306 3.153 18.769 3.116 25 0 3.399-1.7 1.5-4.637 1.5-7l-1-1c-3.426 0-17.152-12.826-21.5-15-16.788-8.394-24.678-7.16-41 1-2.374 1.187-11.5 5.255-11.5 9v2c0 2.273 5.226 2 7 2 0-2.675 11.392-5.946 13.5-7 15.671-7.835 21.596-3.202 36 4 3.252 1.626 8.399 1.298 10.5 5.5 1.697 3.395-4.306 2.5-6 2.5-6.223 0-10.862-3-17.5-3l-15 1c-1.108.554-6.5 3.838-6.5 2-.966 0-3 2.886-3 4Z"/><path fill="#C7C8CC" id="alv" d="m246 80-1 1 1-1Z"/><path fill="#7BD04A" id="DG-mo" d="m305 109-2 1-27.5-1c-6.313 3.157-18.725 3.138-25 0-2.315-1.157-1.5-4.849-1.5-7l1-1c4.232 0 7.622-6.06 11.5-8l12-8c4.113-2.056 8.888-2.944 13-5 7.869-3.934 25.002 6.001 31 9l7.5 7v2l-1 1c-1.819 0-4.591 1-7 1 0-3.232-11.243-5.871-13.5-7-12.607-6.303-18.919-4.04-31 2-4.157 2.078-12.986 2.473-15.5 7.5-1.697 3.395 4.306 2.5 6 2.5 6.162 0 11.02-3 17.5-3 4.564 0 11.168-.916 15 1 1.108.554 6.5 3.838 6.5 2 1.712 0 3 2.571 3 4Z"/><path fill="#029397" id="AUDd2/3" d="M48 108h1c0-3.863 6.236-10.97 8-14.5l3-3.5v-1l-7-8h-1c0 7.14-11 12.983-11 20l7 7Z"/><path fill="#C7C8CC" id="alv" d="M115 81c-2.226 0-4 1.774-4 4l4-4ZM213 81l1 1-1-1ZM243 81l-1 1 1-1Z"/><path fill="#029397" id="AUDd2/3" d="M415 101c-3.268 0-2.687 6-7 6-2.653 0-9.579-17-12-17v-1l7-8h1l11 19v1Z"/><path fill="#C7C8CC" id="alv" d="m215 82 1 1-1-1ZM241 82l-1 1 1-1ZM220 83v2l-2-2h2Z"/><path fill="#7DCD4B" id="HPF" d="m221 83-1 2v-2h1Z"/><path fill="#7ECD4A" id="FC" d="M217 97h1l1-1 1-1 1-2c0-1.747.253-2 2-2v-1l1-1 1-2v-4h-4l-1 2c0 4.922-3 7.494-3 12ZM233 90l6 6c0-3.647-3-6.586-3-10l-1-3h-4c0 2.483 2 4.026 2 6v1Z"/><path fill="#7DCD4B" id="HPF" d="m237 85-1 1-1-3h1l1 2Z"/><path fill="#C7C8CC" id="alv" d="m239 83-2 2-1-2h3Z"/><path fill="#197D63" id="SSs6a" d="m81 109-2 2c-2.552 0-3.636-7-6-7v-1c0-6.288 12-11.72 12-18h1l5 7v1c-.914 0-10 14.04-10 16Z"/><path fill="#C7C8CC" id="alv" d="M111 85c-1.747 0-2 .253-2 2 1.747 0 2-.253 2-2Z"/><path fill="#A8A9AA" id="V3" d="M223 91c3.059 0 3.176 6 5.5 6l1.5-3.5c1.323-2.645 2.418-1.5 4-1.5l-1-2v-1l-4.5-4-3.5 2-1 2-1 1v1Z"/><path fill="#197D63" id="SSs6a" d="M377 111h1c.579 0 2.765-7 6-7v-1l-13-17c-2.86 0-3.869 6-6 6v1c1.352 0 12 15.974 12 18Z"/><path fill="#1A7E61" id="SSp-bfd6b" d="M97 87c-1.747 0-2 .253-2 2 1.747 0 2-.253 2-2Z"/><path fill="#C7C8CC" id="alv" d="M109 87c-2.289 0-6 6.178-6 8 1.89 0 6-6.374 6-8Z"/><path fill="#65A83D" id="DG-sg" d="m157 102-3 3c0 1.838 5.392-1.446 6.5-2l15-1c6.638 0 11.277 3 17.5 3 1.694 0 7.697.895 6-2.5-2.101-4.202-7.248-3.874-10.5-5.5-14.404-7.202-20.329-11.835-36-4-2.108 1.054-13.5 4.325-13.5 7h5c0-1.55 6.228-2.364 7.5-3 7.219-3.61 16.047-5.977 24-2 1.175.587 7.5 1.344 7.5 3.5l-14.5-.5c-1.271.636-10.708 4-11.5 4ZM300 102l2 3c0 1.838-5.392-1.446-6.5-2-3.832-1.916-10.436-1-15-1-6.48 0-11.338 3-17.5 3-1.694 0-7.697.895-6-2.5 2.514-5.027 11.343-5.422 15.5-7.5 12.081-6.04 18.393-8.303 31-2 2.257 1.129 13.5 3.768 13.5 7h-5c0-1.55-6.228-2.364-7.5-3-7.111-3.555-15.193-5.903-23-2-1.175.587-7.5 1.344-7.5 3.5l14.5-.5 11.5 4Z"/><path fill="#1A7E61" id="SSp-bfd6b" d="M91 93h1c1.712 0 3-2.571 3-4-2.618 0-1.65 3-4 3v1Z"/><path fill="#039398" id="AUDd4" d="M49 108c0 1.577 1.762 2 3 2 1.996 0 4.222-6.945 5-8.5.815-1.63 7-4.864 7-7.5l-4-4-3 3.5c-1.764 3.53-8 10.637-8 14.5ZM404 111h1c0-1.577 1.762-2 3-2v-2c-2.653 0-9.579-17-12-17-.966 0-3 2.886-3 4 0 5.796 11 10.495 11 17Z"/><path fill="#A9AAA8" id="chpl" d="m237 97 1 4.5c-3.447 6.893-20 5.492-20-2.5l1-2 1-1v-1l1-1 1-1 1-1v-1c3.059 0 3.176 6 5.5 6l1.5-3.5c1.323-2.645 2.418-1.5 4-1.5l1 2 2 2v1Z"/><path fill="#A8A9AA" id="V3" d="m223 92-1 1 1-1Z"/><path fill="#1A8061" id="SSs6b" d="M92 93c0 2.787-5.995 10.495-8 12.5l-3 3.5c0-1.96 9.086-16 10-16h1Z"/><path fill="#7ECE4A" id="DG-po" d="M144 100c2.223 0 13-.018 13 2 .792 0 10.229-3.364 11.5-4l14.5.5c0-2.156-6.325-2.913-7.5-3.5-7.953-3.977-16.781-1.61-24 2-1.272.636-7.5 1.45-7.5 3Z"/><path fill="#A8A9AA" id="V3" d="m222 93-1 1v-1h1Z"/><path fill="#7ECE4A" id="DG-po" d="M312 100c-2.083 0-12 .142-12 2l-11.5-4-14.5.5c0-2.156 6.325-2.913 7.5-3.5 7.807-3.903 15.889-1.555 23 2 1.272.636 7.5 1.45 7.5 3Z"/><path fill="#1A8061" id="SSs6b" d="M377 111v1l-3.5-4c-1.441-1.441-8.5-11.964-8.5-14v-1c1.352 0 12 15.974 12 18Z"/><path fill="#029398" id="AUDd5" d="M52 111c.253 0 7.836 15 10 15 0-2.407 9.166-22 11-22v-1c-1.962 0-8-7.062-8-9h-1c0 2.636-6.185 5.87-7 7.5-.778 1.555-3.004 8.5-5 8.5v1Z"/><path fill="#A8A9AA" id="V3" d="m235 94 2 2-2-2Z"/><path fill="#029398" id="AUDd5" d="M394 126h1l5-6.5c.867-1.733 3.993-8.5 4-8.5 0-6.505-11-11.204-11-17h-1l-8 9v1c0 3.24 10 15.786 10 22Z"/><path fill="#C7C8CC" id="alv" d="M103 95c-1.577 0-2 1.762-2 3 1.577 0 2-1.762 2-3Z"/><path fill="#7DCF4B" id="CA2" d="M99 101h1l12.5-4 19.5-1v2c-6.335 0-18.42.46-23.5 3L98 105l1-4Z"/><path fill="#A8A9AA" id="V3" d="m220 96-1 1v-1h1Z"/><path fill="#7DCF4B" id="CA2" d="m356 101 2 4-9.5-4c-4.709-2.355-17.604-3-23.5-3v-2l19.5 1c2.484 1.242 8.87 4 11.5 4Z"/><path fill="#029297" id="AUDp1" d="M24 129h5c0-9.294 11-20.003 11-28 0-1.365-2.366-4-4-4 0 3.132-12 23.611-12 32Z"/><path fill="#A8A9AA" id="V3" d="m219 97-1 2v-2h1Z"/><path fill="#A8A9AA" id="V3" d="M228 135h1l4-9v-9.5l4-6.5v-5l1-1c0-1.219 3.045-7-1-7l1 4.5c-3.447 6.893-20 5.492-20-2.5-3.408 0 1 5.576 1 6v5c0 .656 3.319 4.138 4 5.5l1 9.5c0 4.115 3 6.359 3 10h1Z"/><path fill="#029297" id="AUDp1" d="M427 129h5c0-8.096-4.547-17.594-8-24.5l-4-7.5c-1.312 0-2.446 3-5 3v1c2.53 0 12 24.009 12 28Z"/><path fill="#C7C8CC" id="alv" d="M99 101h1l1-3c-1.577 0-2 1.762-2 3Z"/><path fill="#7ECF49" id="CA3" d="M133 115c-2.244 0-6 1.725-6 4-6.037 0-11.408 9.454-16.5 12l-8.5 1c-12.721 0-5-19.354-5-26l1-1 10.5-4c5.08-2.54 17.165-3 23.5-3 0 2.273 5.226 2 7 2h5c2.223 0 13-.018 13 2l-3 3c-.966 0-3 2.886-3 4v1h-7l-1 1h-1c-1.424 0-5 .362-5 2-1.465 0-4-.109-4 2Z"/><path fill="#7DCF4B" id="CA2" d="m325 98-1 1 1-1Z"/><path fill="#7ECF49" id="CA3" d="M313 111h2c12.47 0 30.336 26.582 41.5 21 6.997-3.499 6.635-15.23 3.5-21.5-.557-1.114-.41-5.5-2-5.5l-9.5-4c-4.709-2.355-17.604-3-23.5-3l-1 1c-1.819 0-4.591 1-7 1h-5c-2.083 0-12 .142-12 2l2 3c1.712 0 3 2.571 3 4l1 1h6l1 1Z"/><path fill="#019298" id="AUDp2/3" d="M29 129c3.18 0 5.003 1 9 1 0-6.608 10-18.245 10-22l-7-7h-1c0 7.997-11 18.706-11 28Z"/><path fill="#C7C8CC" id="alv" d="m108 134-11 5c-1.59 0-1.443-4.386-2-5.5-4.424-8.848 0-17.645 0-26.5 0-1.334 2.972-6 4-6l-1 4-1 1c0 6.646-7.721 26 5 26l8.5-1c5.092-2.546 10.463-12 16.5-12v1l-1 1-1 1-1 1c-1.238 0-3 .423-3 2l-1 1-1 1c-3.725 0-6.956 7-11 7Z"/><path fill="#7DCD4B" id="HPF" d="M207 101v1l-1-1h1ZM250 101l-1 1v-1h1Z"/><path fill="#019298" id="AUDp2/3" d="m427 129-9 1c0-3.073-7.527-21-10-21v-2c4.313 0 3.732-6 7-6 2.53 0 12 24.009 12 28Z"/><path fill="#A8AAAA" id="VL" d="m359 103 1 1-1-1Z"/><path fill="#019399" id="AUDd6a" d="M62 126c3.414 0 6.353 3 10 3l7-18c-2.552 0-3.636-7-6-7-1.834 0-11 19.593-11 22Z"/><path fill="#FF8D9F" id="MH" d="M209 115h1c0-4.956 7-5.847 7-11-4.958 0-8 5.585-8 10v1Z"/><path fill="#C8CCC7" id="hbc" d="M210 115h2c0-3.616 3.953-5 7-5v-5l-2-1c0 5.153-7 6.044-7 11ZM247 114l-2 1c-.515 0-2.8-5-8-5v-5l1-1h2l-1 2.5c.468.936 7.339 7.5 8 7.5Z"/><path fill="#FF8D9F" id="MH" d="M247 114h1c0-3.515-3.899-10-8-10l-1 2.5c.468.936 7.339 7.5 8 7.5Z"/><path fill="#019399" id="AUDd6a" d="m394 126-9 3c-2.334 0-1.341-4.181-2-5.5-1.765-3.53-5-8.401-5-12.5.579 0 2.765-7 6-7 0 3.24 10 15.786 10 22Z"/><path fill="#7DCF4B" id="CA2" d="m98 105-1 1 1-1Z"/><path fill="#A8AAAA" id="VL" d="m352 194-3 10.5c-.372.744-4 2.51-4 .5 0-2.231-2.386-6.728-1-9.5 2.789-5.579 7-16.165 7-22.5l1-1v-1l1-1v-1c3.182 0 4-6.347 4-11 1.931 0 2-6.225 2-8v-10c1.55 0 2.364-6.228 3-7.5 4.005-8.011-1-18.89-1-26.5 3.635 0 4.506 13 8 13v3c0 4.884-1 11.698-1 17-1.381 0-1.413 6.327-2 7.5-1.67 3.339-9.807 17.385-8 21l2 3.5v1c0 5.013-8 15.805-8 22ZM104 194c1.454 0 1.433 5.366 2 6.5 2.037 4.073 2.009 4.5 6 4.5 0-7.022.324-14.853-3-21.5l-4-10.5-2-4c0 2.084-3-4.346-3-6 0-4.905-3-9.591-3-15v-9c-1.59 0-1.443-4.386-2-5.5-4.424-8.848 0-17.645 0-26.5-3.635 0-4.506 13-8 13v3c0 5.172 1 10.365 1 15 1.378 0 2.293 9.085 3 10.5 2.206 4.412 9.952 14.096 7 20l-2 2.5c0 7.53 8 14.664 8 23Z"/><path fill="#039397" id="AUDp4" d="M38 130h6c0-2.857 6.162-19 8-19v-1c-1.238 0-3-.423-3-2h-1c0 3.755-10 15.392-10 22Z"/><path fill="#1A8061" id="SSs6b" d="m79 111 1 1c1.473 0 1-1.952 1-3l-2 2Z"/><path fill="#7DCD4B" id="HPF" d="M151 110h2l-2-1v1ZM303 110h3l-1-1-2 1Z"/><path fill="#039397" id="AUDp4" d="M413 130h5c0-3.073-7.527-21-10-21-1.238 0-3 .423-3 2 0 6.152 8 12.39 8 19Z"/><path fill="#C7C8CC" id="alv" d="M143 111h1v-1l-1 1Z"/><path fill="#FF8D9F" id="MH" d="M224 125c-2.275 0-3.514 1-6 1-2.727 0-6-8.763-6-11 0-3.616 3.953-5 7-5 0 .656 3.319 4.138 4 5.5l1 9.5ZM233 126h6c0-3.364 6-7.226 6-11-.515 0-2.8-5-8-5l-4 6.5v9.5Z"/><path fill="#C7C8CC" id="alv" d="m312 110 1 1-1-1Z"/><path fill="#039199" id="AUDp5" d="M61 128c-1.091 0-7.177 2.339-8.5 3-2.568 1.284-6.486-1-8.5-1 0-2.857 6.162-19 8-19 .253 0 7.836 15 10 15l-1 2Z"/><path fill="#019398" id="AUDd6b" d="M72 130h1l2-3c0-5.765 5-9.722 5-15l-1-1-7 18v1Z"/><path fill="#C7C8CC" id="alv" d="M138 113h2l1-1h1v-1c-1.424 0-5 .362-5 2h1Z"/><path fill="#FE8083" id="LGd-sh" d="m124 123-2 5c0 9.569 12.491-10 15-10l1-1h1l1-1 7-2c0-1.481 2-.785 2-3h-5l-2 1h-1l-1 1h-2l-1 1-3 1-1 1-1 1h-1l-1 1-1 1h-1l-1 1-1 1-1 1-1 1Z"/><path fill="#FE7F84" id="LGd-co" d="M121 133c1.848 0 9 10.063 9 12 4.228 0 16.813-17 19-17 0-2.592.958-3.416 2-5.5 1.592-3.184-1-8.819-1-11.5h-1c0 2.215-2 1.519-2 3 10.007 0-10 18.699-10 4-2.509 0-15 19.569-15 10-1.643 0-1 3.765-1 5Z"/><path fill="#FE909D" id="LP" d="M189 134h1l4-3 2-5c0-5.5-7-8.605-7-13-2.253 0-6.469-.984-8.5-2H150c0 2.681 2.592 8.316 1 11.5-1.042 2.084-2 2.908-2 5.5v6l9.5 3c6.522-3.261 3.658-6 12.5-6 0-1.762 3.576 0 5 0 4.623 0 8.054 3 13 3ZM266 134h1c6.223 0 10.433-3 17-3l1-1c6.775 0 8.392 4.446 13.5 7l8.5-3c2.322 0 0-5.704 0-7 0-5.271-1-9.801-1-16h-30.5c-2.031 1.016-6.247 2-8.5 2 0 4.486-6 6.662-6 12l1 6 4 3Z"/><path fill="#FE7F84" id="LGd-co" d="M336 133c-1.887 0-10 9.87-10 12-2.774 0-17.822-18-19-18 0-5.271-1-9.801-1-16h1c0 2.93 3 1.084 3 3-6.847 0 1.329 14.171 8 7.5l2-2-2-2.5c6.533 0 8.805 11.653 13.5 14l3.5-2 1 4Z"/><path fill="#FE8083" id="LGd-sh" d="M328 119c0 3.425 7 5.927 7 10l-3.5 2c-4.695-2.347-6.967-14-13.5-14l-8-3c0-1.916-3-.07-3-3 3.894 0 6.605 2 10 2h1l1 1h1l1 1h1l2 2h1l1 1 2 1Z"/><path fill="#019398" id="AUDd6b" d="M383 130h2v-1c-2.334 0-1.341-4.181-2-5.5-1.765-3.53-5-8.401-5-12.5h-1v1c0 5.428 4 8.449 4 14 2.109 0 2 2.535 2 4Z"/><path fill="#039199" id="AUDp5" d="M395 128c2.93 0 4.269 3 6.5 3 2.924 0 8.002-1 11.5-1 0-6.61-8-12.848-8-19h-1c-.007 0-3.133 6.767-4 8.5l-5 6.5v2Z"/><path fill="#C7C8CC" id="alv" d="M133 115h1l3-1v-1c-1.465 0-4-.109-4 2Z"/><path fill="#FF64FF" id="MB" d="m196 126 4.5 3c2.116 1.058 2.898-2 4.5-2 0-2.135 1.252-12 4-12v-1l-20-1c0 4.395 7 7.5 7 13ZM261 125c-.276 0-4.357 3.429-5.5 4-2.116 1.058-2.898-2-4.5-2 0-4.824-3-8.915-3-13l19-1c0 4.486-6 6.662-6 12Z"/><path fill="#FD8082" id="LGd-ip" d="M138 117h1l1-1 7-2c10.007 0-10 18.699-10 4l1-1Z"/><path fill="#FF8F9D" id="LH" d="m241 136 2 1c3.351 0 5.596-3 8-3v-7c0-4.824-3-8.915-3-13h-1l-2 1c0 3.774-6 7.636-6 11l-1 4.5 3 5.5Z"/><path fill="#FD8082" id="LGd-ip" d="m310 114 8 3 2 2.5-2 2c-6.671 6.671-14.847-7.5-8-7.5Z"/><path fill="#C7C8CC" id="alv" d="M128 119h1l1-1 1-1h1l1-1v-1c-2.244 0-6 1.725-6 4h1Z"/><path fill="#FF8F9D" id="LH" d="m215 136-2 1c-1.934 0-7-.811-7-3 0-1.819-1-4.591-1-7 0-2.135 1.252-12 4-12h3c0 2.237 3.273 11 6 11 0 4.208-3 8.137-3 10Z"/><path fill="#FE7F84" id="LGd-co" d="m140 116-1 1 1-1Z"/><path fill="#CAC7CB" id="fiber tracts" d="m131 117-1 1 1-1Z"/><path fill="#FE7F84" id="LGd-co" d="m138 117-1 1 1-1Z"/><path fill="#CAC7CB" id="fiber tracts" d="m325 117 1 1-1-1ZM130 118l-1 1 1-1ZM128 119l-1 1v-1h1Z"/><path fill="#CAC7CB" id="fiber tracts" fill-rule="evenodd" d="m346 175-1 2.5v2.5c0 8.295 4.622-5 1-5m-52 70c-2.83 0-4.54 4-7 4 0-3.715-4-5.378-4-8l-1-2v-2l2-4 5.5-6c5.41-2.705 19.5-18.566 19.5-25 1.617 0 4-4.583 4-6l1-1c.679 0 13-9.981 13-11l3-3 5-5 1-1 1-1 1-6 1-2 2-2.5c2.386-4.772 1.234-15.533-1-20-.716-1.433-.838-7.5-3-7.5 0-1.048.473-3-1-3l-1-4c0-4.073-7-6.575-7-10 1.461 0 9 6.306 9 8l6 11.5c.662 1.324-1.207 6.5 1 6.5v10c0 1.25-.251 12 3 12 0 2.244 1.725 6 4 6 0 6.335-4.211 16.921-7 22.5-1.386 2.772 1 7.269 1 9.5-3.477 0-10.96 7.421-12 9.5l-3 2.5-4 2c0-3.833 10.865-12.23 13-16.5 1.931-3.862 4.955-12.09 3-16-.471-.942.73-4.5-1.5-4.5s-3.8 8.1-4.5 9.5c-3.909 7.818-8.558 17.558-15 24l-6 6.5c-3.628 0-20.764 24.368-27.5 21-3.767-1.884-.961-10.519 2-12 17.111-8.555 19.756-18.012 27.5-33.5 1.424-2.848 9.762-12.369 13.5-10.5 9.937 4.968-15.5 28.379-15.5 35l-4 8c0 3.08-17 11.252-17 15Z"/><path fill="#CAC7CB" id="fiber tracts" d="m127 120-1 1 1-1ZM126 121l-1 1 1-1Z"/><path fill="#C7CACC" id="ccs" d="M369 122h1l-1-1v1Z"/><path fill="#CAC7CB" id="fiber tracts" d="m125 122-1 1 1-1Z"/><path fill="#98D5F9" id="CP" d="m368 198-1 1h-9.5l-5.5-5c0-6.195 8-16.987 8-22l1-1c8.928 0 7-26.496 7-32 0-5.302 1-12.116 1-17h1c0 6.629 9 12.804 9 19 0 1.199 4.741 12 5 12 0 6.538 1 13.185 1 19l-1 4-3 6.5c-1.054 2.109-10.749 15.5-13 15.5ZM104 194c0 7.469-11.257 4-15 4-4.539 0-16-18.047-16-22l-2-3c0-7.054 2-13.573 2-20l4-12c1.572 0 8.324-18 10-18 0 5.172 1 10.365 1 15 0 6.565-1.48 33 8 33 0 7.53 8 14.664 8 23Z"/><path fill="#CAC7CB" id="fiber tracts" fill-rule="evenodd" d="m125 187-2 3.5c7.478 14.956 15.621 28.621 28.5 41.5 2.544 2.544 15.823 14.854 18.5 9.5 2.024-4.047-1.128-10.314-5.5-12.5-5.048-2.524-14.534-7.568-17.5-13.5-4.64-9.281-7.857-28.5-22-28.5m-16-12v3.5c0 10.988 4.976-3.5 0-3.5m54 70 6 4c0-2.945 4-5.478 4-7l1-1v-6l-1-1-7.5-8c-6.047-6.047-18.5-15.568-18.5-24-1.008 0-4-5.147-4-6 0-4.697-14-6.894-14-13-1.238 0-3-.423-3-2l-3-3c-1.533 0-4-3.753-4-5v-4l-2-3c0-3.073-4.225-15.049-2-19.5l4-11.5 2-2c0-1.235-.643-5 1-5l2-5c-1.238 0-3 .423-3 2l-1 1-1 1c0 4.89-6 10.866-6 18 0 2.808 1.287 18-2 18 0 1.048.473 3-1 3l-1 1c0 2.522-1.432 6-4 6l4 10.5c3.324 6.647 3 14.478 3 21.5 2.152 0 14 9.51 14 12l8 5-7-7.5c-4.4-8.8-18.334-19.332-12-32l4 4c2.222 4.444 3.754 9.509 6 14 3.494 6.987 20 23.078 20 29.5l18 15Z"/><path fill="#FE90FE" id="PRC" d="m215 136 5 5c2.458 0 2.748-6 7-6 0-3.641-3-5.885-3-10-2.275 0-3.514 1-6 1 0 4.208-3 8.137-3 10Z"/><path fill="#FF6F80" id="TH" d="m262 131-11 3v-7c1.602 0 2.384 3.058 4.5 2 1.143-.571 5.224-4 5.5-4l1 6Z"/><path fill="#019397" id="AUDv6a" d="M56 152c3.022 0 5.879 1 10 1 0-5.701 1.59-12.678 4-17.5.492-.984.85-5.5 2-5.5v-1c-3.647 0-6.586-3-10-3l-1 2c0 7.867-5 15.4-5 24Z"/><path fill="#FF6F80" id="TH" d="m194 131 12 3c0-1.819-1-4.591-1-7-1.602 0-2.384 3.058-4.5 2l-4.5-3-2 5Z"/><path fill="#FE90FE" id="PRC" d="m241 136-4 5c-2.766 0-3.652-6-8-6l4-9h6l-1 4.5 3 5.5Z"/><path fill="#C9C9CA" id="scwm" d="m382 131 2 1-1-2c0-1.465.109-4-2-4l1 5Z"/><path fill="#019397" id="AUDv6a" d="M401 152c-3.551 0-6.471 1-11 1 0-8.405-5-15.496-5-23v-1l9-3 1 1v1c0 7.603 6 15.823 6 24Z"/><path fill="#019396" id="AUDp6a" d="M395 126v1l-1-1h1Z"/><path fill="#C9C9CA" id="scwm" d="M73 131h2v-4l-2 3v1Z"/><path fill="#FF6F80" id="TH" d="M328 153c-2.25 0-3.376 2-5 2 0-4.49-10.979-20-16-20v-1c2.322 0 0-5.704 0-7 1.178 0 16.226 18 19 18l1 1 1 7Z"/><path fill="#019098" id="AUDv5" d="M55 152h1c0-8.6 5-16.133 5-24-1.091 0-7.177 2.339-8.5 3-2.568 1.284-6.486-1-8.5-1 0 6.772-3 13.91-3 21 4.978 0 8.596 1 14 1Z"/><path fill="#FF6F80" id="TH" d="M133 157h1l1-8.5c1.19-2.38 12.514-13.5 14-13.5v-7c-2.187 0-14.772 17-19 17l-1 1v7c2.226 0 4 1.774 4 4Z"/><path fill="#019098" id="AUDv5" d="M415 151c-4.351 0-9.131 1-14 1 0-8.177-6-16.397-6-24 2.93 0 4.269 3 6.5 3 2.924 0 8.002-1 11.5-1 0 7.514 2 13.311 2 21Z"/><path fill="#019099" id="AUDv1" d="M22 151h6c0-7.464 1-15.1 1-22h-5l-2 22Z"/><path fill="#029198" id="AUDv2/3" d="M28 151h8c0-7.484 2-14.153 2-21-3.997 0-5.82-1-9-1 0 6.9-1 14.536-1 22ZM421 151h8c0-7.647-2-15.015-2-22l-9 1c0 6.872 3 13.484 3 21Z"/><path fill="#019099" id="AUDv1" d="M429 151h5c0-7.643-2-14.903-2-22h-5c0 6.985 2 14.353 2 22Z"/><path fill="#029197" id="AUDv4" d="M36 151h5c0-7.09 3-14.228 3-21h-6c0 6.847-2 13.516-2 21Z"/><path fill="#019198" id="AUDv6b" d="M66 153h1c0-7.715 6-15.012 6-22v-1h-1c-1.15 0-1.508 4.516-2 5.5-2.41 4.822-4 11.799-4 17.5Z"/><path fill="#FD8F9C" id="Eth" d="M189 135c0 6.657-2 12.722-2 20-2.966 0-13.165-24-16-24 0-1.762 3.576 0 5 0 4.623 0 8.054 3 13 3v1ZM285 130l-1 1 1-1Z"/><path fill="#FF8E9C" id="PO" d="M274 179h3c0-2.867 7.077-6.655 8-8.5 3.524-7.048 22-29.322 22-35.5v-1l-8.5 3c-5.108-2.554-6.725-7-13.5-7l-1 1c0 3.379-8.166 16.833-10.5 18l-3.5 5 1 15.5-3 7.5 6 2Z"/><path fill="#019198" id="AUDv6b" d="M389 153h1c0-8.405-5-15.496-5-23h-2l1 2c0 6.77 5 13.443 5 21Z"/><path fill="#029197" id="AUDv4" d="M415 151h6c0-7.516-3-14.128-3-21h-5c0 7.514 2 13.311 2 21Z"/><path fill="#CCC8CA" id="ar" d="M67 176h2l1-17.5c0-1.278-.665-5.5 1-5.5 0-2.912 1.766-16 4-16 0-2.244 4.057-6 0-6h-2c0 6.988-6 14.285-6 22v23Z"/><path fill="#FF8E9C" id="PO" d="M179 179h4l7-1c0-.427-3.345-5.19-4-6.5-2.113-4.226 1-12.65 1-16.5-2.966 0-13.165-24-16-24-8.842 0-5.978 2.739-12.5 6l-9.5-3v1c0 4.02 17.181 26.861 20 32.5 2.086 4.172 10 7.177 10 11.5Z"/><path fill="#FC909E" id="PF" fill-rule="evenodd" d="M209 142c0 2.594-4.829 4.842-3 8.5 7.33 14.661 19.474-8.5 3-8.5m7 35-3.5 2c-5.537 2.768-17.105-1-22.5-1 0-.427-3.345-5.19-4-6.5-2.113-4.226 1-12.65 1-16.5 0-7.278 2-13.343 2-20l1-1 4-3 12 3c0 2.189 5.066 3 7 3l6 6v32c-2.215 0-1.519 2-3 2ZM242 142c0 2.608-3.889 6.723-2 10.5 5.621 11.243 19.989-10.5 2-10.5m26 35-1 1c-5.479 0-16.934 3.783-22.5 1l-4.5-2-3-3v-30l6-7c3.351 0 5.596-3 8-3l11-3 4 3 1 1c0 4.906 2 9.387 2 15 0 1.145-.579 4 1 4l1 15.5-3 7.5Z"/><path fill="#FD8F9C" id="Eth" d="M267 135c0 4.906 2 9.387 2 15 0 1.145-.579 4 1 4l3.5-5c2.334-1.167 10.5-14.621 10.5-18-6.567 0-10.777 3-17 3v1Z"/><path fill="#CCC8CA" id="ar" d="M389 175v1c-2.461 0-2-3.378-2-5l-1-18c0-2.759-1.707-16-5-16 0-2.355-2.685-6 1-6l2 1c0 6.77 5 13.443 5 21v22Z"/><path fill="#FF909E" id="IGL" d="m130 145-1 1-10-11 2-2c1.848 0 9 10.063 9 12ZM326 145l1 1 10-10c0-1.048.473-3-1-3-1.887 0-10 9.87-10 12Z"/><path fill="#CBC8CB" id="fi" d="m103 169 2 4c2.568 0 4-3.478 4-6l1-1c0-1.048-.473-3 1-3 0-5.357 3.691-16.119 1-21.5l-4-7.5-11 5v9c1.014 0 2 3.959 2 5l4 16Z"/><path fill="#FF6F80" id="TH" d="m190 134-1 1v-1h1ZM267 134v1l-1-1h1Z"/><path fill="#FF8E9F" id="LGv" d="M117 166h2c0-1.995 4.377-2 6-2 0-.972 3.725-11 4-11v-7l-10-11-4 11.5c-2.225 4.451 2 16.427 2 19.5Z"/><path fill="#FF7E83" id="VPM" d="m161 182 3 1c5.494 0 9.083-4 15-4 0-4.323-7.914-7.328-10-11.5-2.819-5.639-20-28.48-20-32.5-1.486 0-12.81 11.12-14 13.5l-1 8.5 5.5 7 21.5 18Z"/><path fill="#FE8F9E" id="PVT" d="M219 159h18v-18c-2.766 0-3.652-6-8-6 0 1.186-1 1.186-1 0h-1c-4.252 0-4.542 6-7 6l-1 2v16Z"/><path fill="#FF7E83" id="VPM" d="m295 182-3 1c-5.44 0-9.018-4-15-4 0-2.867 7.077-6.655 8-8.5 3.524-7.048 22-29.322 22-35.5 5.021 0 16 15.51 16 20v2l-4.5 6-23.5 19Z"/><path fill="#CBC8CB" id="fi" d="m352 172-1 1c-2.275 0-4-3.756-4-6 0-1.296-2.427-12-3-12v-10c2.013 0 .354-10 5-10 1.899 0 10 2.74 10 5v10c-1.931 0-2 6.225-2 8-.885 0-4 9.683-4 11v1l-1 1v1Z"/><path fill="#FF6F80" id="TH" d="m220 141-1 2-6-6 2-1 5 5ZM237 141v3l6-7-2-1-4 5Z"/><path fill="#FF8E9F" id="LGv" d="M338 166h1l2-2.5c2.386-4.772 1.234-15.533-1-20-.716-1.433-.838-7.5-3-7.5l-10 10 1 7 3 11c2.833 0 4.84 2 7 2Z"/><path fill="#C7CACC" id="ccs" d="M71 153h2l4-12-2-4c-2.234 0-4 13.088-4 16ZM384 153h2c0-2.759-1.707-16-5-16l-2 4c0 1.199 4.741 12 5 12Z"/><path fill="#CBC9C7" id="or" d="M88 138c1.378 0 2.293 9.085 3 10.5 2.206 4.412 9.952 14.096 7 20l-2 2.5c-9.48 0-8-26.435-8-33ZM360 171h1c8.928 0 7-26.496 7-32-1.381 0-1.413 6.327-2 7.5-1.67 3.339-9.807 17.385-8 21l2 3.5Z"/><path fill="#C7CAC9" id="fr" d="M209 142c0 2.594-4.829 4.842-3 8.5 7.33 14.661 19.474-8.5 3-8.5ZM242 142c0 2.608-3.889 6.723-2 10.5 5.621 11.243 19.989-10.5 2-10.5Z"/><path fill="#A9AAA8" id="chpl" d="M97 148c1.014 0 2 3.959 2 5l4 16c0 2.084-3-4.346-3-6 0-4.905-3-9.591-3-15ZM359 150c-1.931 0-2 6.225-2 8 1.931 0 2-6.225 2-8Z"/><path fill="#15B0B3" id="TEa1" d="m31 176-5 1c-1.454 0-1.433-5.366-2-6.5-2.555-5.109-2-13.438-2-19.5h6l1 18.5 2 5.5v1Z"/><path fill="#16AFB3" id="TEa2/3" d="M31 175h9c0-7.732-4-15.426-4-24h-8l1 18.5 2 5.5Z"/><path fill="#15B0B2" id="TEa4" d="M40 175h2c0-7.289-1-16.054-1-24h-5c0 8.574 4 16.268 4 24Z"/><path fill="#15AFB3" id="TEa5" d="M42 175h13v-23c-5.404 0-9.022-1-14-1 0 7.946 1 16.711 1 24ZM414 175h1v-24c-4.351 0-9.131 1-14 1l1 23h12Z"/><path fill="#15B0B2" id="TEa4" d="M415 175h1c0-6.881 5-15.942 5-24h-6v24Z"/><path fill="#16AFB3" id="TEa2/3" d="M425 176h1l3-25h-8c0 8.058-5 17.119-5 24 1.574 0 9-.751 9 1Z"/><path fill="#15B0B3" id="TEa1" d="m426 176 5 1c0-7.116 3-16.464 3-26h-5l-3 25Z"/><path fill="#15AFB2" id="TEa6a" d="M55 175h11v-22c-4.121 0-6.978-1-10-1h-1v23ZM401 175h1l-1-23c-3.551 0-6.471 1-11 1v22h11Z"/><path fill="#16B0B2" id="TEa6b" d="M66 175h1v-22h-1v22Z"/><path fill="#C8CBCC" id="ec" d="m71 175-2 1 1-17.5c0-1.278-.665-5.5 1-5.5h2c0 6.427-2 12.946-2 20v2Z"/><path fill="#CCC8CA" id="ar" d="M127 178h1c0-3.095 1.681-6 5-6l-2-2.5c-2.095-4.19 2-9.112 2-12.5 0-2.226-1.774-4-4-4-.275 0-4 10.028-4 11 3.351 0 2 11.528 2 14ZM328 178h1v-10.5l2-3.5-3-11c-2.25 0-3.376 2-5 2v2l3 6.5c1.487 2.974-2 6.088-2 8.5 3.121 0 4 3.347 4 6Z"/><path fill="#C8CBCC" id="ec" d="M389 176v2l-3-2c0-1.145.579-4-1-4 0-5.815-1-12.462-1-19h2l1 18c0 1.622-.461 5 2 5Z"/><path fill="#16B0B2" id="TEa6b" d="M389 175h1v-22h-1v22Z"/><path fill="#FD8084" id="VPL" d="M155 185h3l3-1c1.93 0 0-1.161 0-2l-21.5-18-5.5-7h-1c0 3.388-4.095 8.31-2 12.5l2 2.5c0 3.336 18.22 13 22 13ZM298 185h4c8.203 0 19.321-13 22-13 0-2.412 3.487-5.526 2-8.5l-3-6.5-4.5 6-23.5 19v2l3 1Z"/><path fill="#FE909F" id="IMD" d="M220 177c0 2.082 5.561.47 6.5 0l2-3 1 3c2.96 1.48 4.893 0 7.5 0v-18h-18v16l1 2Z"/><path fill="#A9AAA8" id="chpl" d="M357 158c-.885 0-4 9.683-4 11 3.182 0 4-6.347 4-11Z"/><path fill="#FD8F9F" id="RT" d="M127 178c0 1.048.473 3-1 3l-3-3-4-5v-7c0-1.995 4.377-2 6-2 3.351 0 2 11.528 2 14ZM329 178c0 1.048-.473 3 1 3l5-5 1-1 1-1 1-6v-2c-2.16 0-4.167-2-7-2l-2 3.5V178Z"/><path fill="#FF6F80" id="TH" d="M119 166v3l-2-3h2ZM339 166l-1 2v-2h1Z"/><path fill="#F0483B" id="ZI" d="m191 209 1 3.5c-3.787 7.574-19.138-1.5-24-1.5l-5-2-6-4h-1c0-1.711-11.205-9-13-9 0-4.697-14-6.894-14-13l-1-5c0-3.095 1.681-6 5-6 0 3.336 18.22 13 22 13l16 8c0 1.366 2.366 4 4 4 0 3.769 11.608 11 15 11l1 1ZM287 212l-2 1c-4.881 0-18.077 5.346-21-.5l1-3.5h1l1-1c2.787 0 14-8.241 14-11 1.747 0 2-.253 2-2 1.238 0 3-.423 3-2l16-8c8.203 0 19.321-13 22-13 3.121 0 4 3.347 4 6l-1 6c0 1.019-12.321 11-13 11l-1 1c-1.505 0-8 4.197-8 6l-2 1c-1.238 0-3 .423-3 2-1.238 0-3 .423-3 2l-2 1-2 1-3 1-1 1h-1l-1 1Z"/><path fill="#CAC7CB" id="fiber tracts" d="m352 172-1 1 1-1Z"/><path fill="#97D6F9" id="STR" d="M385 177h1v-1c0-1.145.579-4-1-4l-1 4 1 1ZM71 176h2l-2-3v3Z"/><path fill="#CCC8CA" id="ar" d="m119 173 4 5c-1.533 0-4-3.753-4-5Z"/><path fill="#FE7F83" id="SPA" d="M224 195h8c0-1.704 2.715-7 5-7l1-1 2-3.5-1-4.5-2-2c-2.607 0-4.54 1.48-7.5 0l-1-3-2 3c-.939.47-6.5 2.082-6.5 0-1.481 0-.785 2-3 2 0 2.409 1 5.181 1 7l2 2c2.474 0 4 5.251 4 7Z"/><path fill="#FF6F80" id="TH" d="m240 177-1 2-2-2v-3l3 3Z"/><path fill="#CCC8CA" id="ar" d="m337 174-1 1 1-1Z"/><path fill="#0D9F91" id="ECT2/3" d="M35 193c4.107 0 8.469 1 12 1 0-4.863-5-12.966-5-19H31v1c0 3.62 4 9.182 4 16v1Z"/><path fill="#0D9E90" id="ECT5" d="m47 194 13 2c0-7.678-5-12.927-5-21H42c0 6.034 5 14.137 5 19Z"/><path fill="#0E9F91" id="ECT6a" d="M63 197h1c0-2.041.96-3 3-3v-19H55c0 8.073 5 13.322 5 21l3 1Z"/><path fill="#C8C9CB" id="amc" d="M78 227c0 1.747-.253 2-2 2 0-8.222-.584-17.667-4-24.5L68 194c0-1.574.751-9-1-9v-7c1.747 0 2-.253 2-2l2-1v1l-1 17.5c3.812 7.624 8 24.511 8 33.5Z"/><path fill="#C8CBC7" id="st" d="M109 175v3.5c0 10.988 4.976-3.5 0-3.5Z"/><path fill="#FF6F80" id="TH" d="M220 177c-1.481 0-.785 2-3 2l-1-2c1.481 0 .785-2 3-2l1 2Z"/><path fill="#CCC8CA" id="ar" d="m336 175-1 1 1-1Z"/><path fill="#C8CBC7" id="st" d="m346 175-1 2.5v2.5c0 8.295 4.622-5 1-5Z"/><path fill="#0E9F90" id="ECT6b" d="M389 178v8c1.773 0 1-9.259 1-11h-1v3Z"/><path fill="#0E9F91" id="ECT6a" d="M393 197h2l1-1c0-7.45 5-12.765 5-21h-11c0 1.741.773 11-1 11v8c1.429 0 4 1.288 4 3Z"/><path fill="#0D9E90" id="ECT5" d="m410 194-14 2c0-7.45 5-12.765 5-21h13c0 6.673-4 12.899-4 19Z"/><path fill="#0D9F91" id="ECT2/3" d="M422 193c-3.962 0-8.688 1-12 1 0-6.101 4-12.327 4-19h2c1.574 0 9-.751 9 1 0 4.057-3 9.51-3 16v1Z"/><path fill="#0D9F90" id="ECT1" d="M27 192h8c0-6.818-4-12.38-4-16l-5 1 2 3.5-1 11.5Z"/><path fill="#C8CBCC" id="ec" d="M69 176c0 1.747-.253 2-2 2v-2h2Z"/><path fill="#90EB8D" id="LA" d="M79 234c0 1.424.362 5 2 5 0-6.202 5.425-18 13-18 1.876 0 5.146-4 9-4l-1-4-3-3.5c-2.592-2.592-10-7.903-10-11.5-4.539 0-16-18.047-16-22h-2l-1 17.5c3.812 7.624 8 24.511 8 33.5 1.714 0 1 5.594 1 7ZM377 235c0 1.424-.362 5-2 5 0-6.309-4.481-19-12-19-3.099 0-5.883-4-10-4l1-4 9.5-10 3.5-4 1-1c2.251 0 11.946-13.391 13-15.5l3-6.5 1 1 1 1 1 13.5c-4.073 8.146-9 26.992-9 36.5v5l-1 2Z"/><path fill="#C8C9CB" id="amc" d="m378 228 2 1c0-7.461.862-17.225 4-23.5l4-10.5c0-1.048-.473-3 1-3v-14l-3-2v2l1 13.5c-4.073 8.146-9 26.992-9 36.5Z"/><path fill="#0D9F90" id="ECT1" d="M422 192h7l-1-10.5 3-4.5-5-1h-1c0 4.057-3 9.51-3 16Z"/><path fill="#FE8082" id="VPMpc" d="M206 195h6c0-2.895 6-3.509 6-7v-2c0-1.819-1-4.591-1-7l-1-2-3.5 2c-5.537 2.768-17.105-1-22.5-1l-7 1c0 4.599 4 9.221 4 12 7.072 0 12.815 4 19 4ZM244 194c2.139 0 4.033 1 7 1 4.363 0 11.511-4 18-4 0-2.677 5-6.845 5-12l-6-2-1 1c-5.479 0-16.934 3.783-22.5 1l-4.5-2-1 2 1 4.5-2 3.5 1 2 5 5Z"/><path fill="#FF8E9C" id="PO" d="m268 177-1 1 1-1Z"/><path fill="#8AD987" id="CTXsp" d="M386 177v1l-1-1h1Z"/><path fill="#FF6F80" id="TH" d="M126 181c0 1.577 1.762 2 3 2l-1-5h-1c0 1.048.473 3-1 3ZM330 181l-3 3 1-6h1c0 1.048-.473 3 1 3Z"/><path fill="#FF7F82" id="VPLpc" d="m187 191-4 1c0-2.144-4.262-.381-5.5-1l-9.5-4h-1l-1-1h-1l-1-3c5.494 0 9.083-4 15-4h4c0 4.599 4 9.221 4 12ZM269 191l4 1c0-1.534 2.402-1 3.5-1 4.328 0 7.467-3 11.5-3l1-1h1l1-1 1-1v-2c-5.44 0-9.018-4-15-4h-3c0 5.155-5 9.323-5 12Z"/><path fill="#CACCCB" id="opt" d="M144 230h1c0-6.422-16.506-22.513-20-29.5-2.246-4.491-3.778-9.556-6-14l-4-4c-6.334 12.668 7.6 23.2 12 32l7 7.5 4 3 1 1 4 3 1 1Z"/><path fill="#FF6F80" id="TH" d="m161 184 4 2-1-3-3-1c0 .839 1.93 2 0 2ZM295 184c0 1.473-1.952 1-3 1v-2l3-1v2Z"/><path fill="#CACCCB" id="opt" d="m315 222-4 8c4.942 0 8.361-9 13-9l1-1 1-1c0-3.833 10.865-12.23 13-16.5 1.931-3.862 4.955-12.09 3-16-.471-.942.73-4.5-1.5-4.5s-3.8 8.1-4.5 9.5c-3.909 7.818-8.558 17.558-15 24l-6 6.5Z"/><path fill="#CACCC8" id="ml" d="M167 187h1c0 3.72-2.338 1.581-5.5 0-1.119-.559-4.5-.155-4.5-2l3-1 4 2h1l1 1ZM289 187h1l1-1 1-1c1.048 0 3 .473 3-1l3 1c0 1.696-10 5.296-10 3l1-1Z"/><path fill="#0E9F90" id="ECT6b" d="M67 194h1c0-1.574.751-9-1-9v9Z"/><path fill="#FF6F80" id="TH" d="m171 193 4 2c0-1.569 6.6-3 8-3 0-2.144-4.262-.381-5.5-1l-9.5-4c0 3.72-2.338 1.581-5.5 0-1.119-.559-4.5-.155-4.5-2h-3l16 8ZM292 185l-1 1 1-1ZM282 195h1c0-1.577 1.762-2 3-2l16-8h-4c0 1.696-10 5.296-10 3-4.033 0-7.172 3-11.5 3-1.098 0-3.5-.534-3.5 1 3.078 0 6.325 3 9 3ZM166 186l1 1-1-1ZM218 188h2l-2-2v2ZM291 186l-1 1 1-1Z"/><path fill="#CCC" d="m125 187-2 3.5c7.478 14.956 15.621 28.621 28.5 41.5 2.544 2.544 15.823 14.854 18.5 9.5 2.024-4.047-1.128-10.314-5.5-12.5-5.048-2.524-14.534-7.568-17.5-13.5-4.64-9.281-7.857-28.5-22-28.5Z"/><path fill="#FF6F80" id="TH" d="m237 188 2 1-1-2-1 1ZM289 187l-1 1 1-1Z"/><path fill="#CCC" d="M315 222c0-6.621 25.437-30.032 15.5-35-3.738-1.869-12.076 7.652-13.5 10.5-7.744 15.488-10.389 24.945-27.5 33.5-2.961 1.481-5.767 10.116-2 12 6.736 3.368 23.872-21 27.5-21Z"/><path fill="#FF7F84" id="SPFm" d="M223 202c0 3.472-5.853 1-7 1l-4-8c0-2.895 6-3.509 6-7h2c2.474 0 4 5.251 4 7v6l-1 1ZM233 201c0 4.788 5.558 2 8 2 0-3.238 3-5.136 3-9l-5-5-2-1c-2.285 0-5 5.296-5 7l1 6Z"/><path fill="#FF7E84" id="VM" d="M196 211h1c4.788 0 12-1.146 12-7 0-3.275-3-6.454-3-9-6.185 0-11.928-4-19-4l-4 1c-1.4 0-8 1.431-8 3v2c0 3.769 11.608 11 15 11l1 1h2l3 2ZM259 211h1l2-1h1l1-1h2l1-1c2.787 0 14-8.241 14-11l1-2c-2.675 0-5.922-3-9-3l-4-1c-6.489 0-13.637 4-18 4 0 .135-3 5.287-3 10 0 5.476 6.965 6 11 6Z"/><path fill="#0E9584" id="PERI1" d="m37 203-6 1c-1.812 0-4-10.142-4-12h8v1c0 3.721 2 6.881 2 10Z"/><path fill="#0E9F90" id="ECT6b" d="m389 194-1 1c0-1.048-.473-3 1-3v2Z"/><path fill="#0E9584" id="PERI1" d="M420 203c.671 0 5 1.328 5 2 2.6 0 4-10.548 4-13h-7v1l-2 10Z"/><path fill="#0E9583" id="PERI2/3" d="M37 203h6c0-.913 5.014-2 6-2l-2-7c-3.531 0-7.893-1-12-1 0 3.721 2 6.881 2 10Z"/><path fill="#E64438" id="HY" d="M175 195v2c-1.634 0-4-2.634-4-4l4 2ZM286 193c-1.238 0-3 .423-3 2 1.238 0 3-.423 3-2Z"/><path fill="#0E9583" id="PERI2/3" d="M414 203h6l2-10c-3.962 0-8.688 1-12 1l-3 7 7 2Z"/><path fill="#0F9684" id="PERI5" d="M49 201h1l9-2 2-1-1-2-13-2 2 7Z"/><path fill="#A0EE9C" id="EPd" d="m76 231-4 2c-.81 0-5-6.749-5-8l3 1.5-4-9-2-20.5c0-2.041.96-3 3-3h1l4 10.5c3.416 6.833 4 16.278 4 24.5v2Z"/><path fill="#97D6F9" id="STR" d="M119 236c0 .359 6.831 5 8 5v-8c-7.122 0-4.001-.503-7-6.5-.545-1.089-.251-6.5 1.5-6.5l3.5 4c0-1.406-.714-7 1-7 0-2.49-11.848-12-14-12-3.991 0-3.963-.427-6-4.5-.567-1.134-.546-6.5-2-6.5 0 7.469-11.257 4-15 4 0 3.597 7.408 8.908 10 11.5l3 3.5c0-2.393 3.234-3 5-3 1.178 0 6-1.576 6 2 3.467 0 8.983 13.259 5.5 15-4.515 2.257-4.84-9-8.5-9l-2 1 4 8h1c0-5.74 6 6.184 6 9Z"/><path fill="#FF6F80" id="TH" d="m246 203 2 2c0-4.713 3-9.865 3-10-2.967 0-4.861-1-7-1 0 3.864-3 5.762-3 9h5Z"/><path fill="#97D6F9" id="STR" d="m337 237-8 4c0-1.49-.735-8 1-8 0 5.547 8.481-6.537 6-11.5-1.27-2.54-3.483 1.5-4 1.5 0-1.623-.005-6-2-6l3-2.5c1.04-2.079 8.523-9.5 12-9.5 0 2.01 3.628.244 4-.5l3-10.5 5.5 5h9.5l-3.5 4-9.5 10c0-2.6-2.639-3-5-3 0-3.208-4.47 1-5 1l-1 1c-3.527 0-7.521 13.49-4.5 15 3.303 1.651 4.795-9 7.5-9l3 1c0 2.367-4 4.032-4 7h-1c-4.317 0-7 6.439-7 10v1Z"/><path fill="#A0EE9C" id="EPd" d="M380 231c2.043 0 4 .591 4 3 .483 0 4-5.903 4-7-2.733 0 1.694-8.888 3-11.5l1-14c0-1.19-.614-4.5 1-4.5 0-1.712-2.571-3-4-3l-1 1-4 10.5c-3.138 6.275-4 16.039-4 23.5v2Z"/><path fill="#0F9684" id="PERI5" d="M406 201h1l3-7-14 2-1 1v1l2 1c3.519 0 5.843 2 9 2Z"/><path fill="#FF6F80" id="TH" d="M209 204h1l1-1h5l-4-8h-6c0 2.546 3 5.725 3 9ZM230 200l3 1-1-6h-8v6l3-2c0-3.202 3-.934 3 1Z"/><path fill="#E64438" id="HY" d="M283 195c0 1.747-.253 2-2 2l1-2h1ZM314 195l-1 1 1-1Z"/><path fill="#0E9684" id="PERI6a" d="M61 198h1l1-1-3-1 1 2Z"/><path fill="#E64438" id="HY" d="M147 202c2.799 0 5.957 3 9 3 0-1.711-11.205-9-13-9 0 .853 2.992 6 4 6ZM305 202c1.465 0 4-1.115 4 0 1.617 0 4-4.583 4-6-1.505 0-8 4.197-8 6Z"/><path fill="#C9C8CA" id="ee" d="M67 224v1l3 1.5-4-9-2-20.5h-1l-1 1v5c2.35 0 .217 7.934 1 9.5l4 11.5Z"/><path fill="#FF64FF" id="MB" d="M227 199c0 2.681 2.078 1 3 1 0-1.934-3-4.202-3-1Z"/><path fill="#C9C8CA" id="ee" d="m389 226-1 1c-2.733 0 1.694-8.888 3-11.5l1-14c0-1.19-.614-4.5 1-4.5l1 1v4l-1 13v2l-1 2-1 2-1 2-1 2v1Z"/><path fill="#0E9684" id="PERI6a" d="M394 198h1v-1h-2l1 1Z"/><path fill="#32B824" id="ENTl6a" d="m62 203-1 4c-1.434 0-2-6.448-2-8l2-1h1v5Z"/><path fill="#97D6F9" id="STR" d="m368 198-1 1 1-1Z"/><path fill="#32B824" id="ENTl6a" d="M394 202c1.714 0 1 5.594 1 7 1.888 0 2-8.072 2-10l-2-1h-1v4Z"/><path fill="#31B824" id="ENTl5" d="M62 214c0 1.663-5.407 2-7 2-1.313 0-5-13.279-5-15l9-2c0 1.552.566 8 2 8v4l1 1v2Z"/><path fill="#E64438" id="HY" fill-rule="evenodd" d="M228 209c0 1.02-3.121 12 .5 12 .56 0 1.405-12-.5-12m1 29-2 1v-4c0-9.253-.093-21.686-4-29.5-2.008-4.017-14 1.845-14 7.5l-3-1c0-2.409 4-4.863 4-8l1-1h5c1.147 0 7 2.472 7-1l1-1 3-2c0 2.681 2.078 1 3 1l3 1c0 4.788 5.558 2 8 2h5c0 3.601 5 7.082 5 9l-4 2c0-6.466-10.916-13.667-14-7.5-2.778 5.557-4 20.764-4 27.5v4Z"/><path fill="#31B824" id="ENTl5" d="m394 215 7 1c2.291 0 5-12.83 5-15-3.157 0-5.481-2-9-2 0 1.928-.112 10-2 10l-1 6Z"/><path fill="#32B725" id="ENTl3" d="M55 216c0 .144-7.36 3-8 3 0-5.716-4-9.895-4-16 0-.913 5.014-2 6-2h1c0 1.721 3.687 15 5 15Z"/><path fill="#F1473B" id="STN" d="M173 234h1c0-1.423 1.978-3.544 1-5.5l-3-6.5c0-3.141-11-11.617-11-13l-4-4h-1c-3.043 0-6.201-3-9-3 0 8.432 12.453 17.953 18.5 24l7.5 8Z"/><path fill="#FF6F80" id="TH" d="m224 201-1 1 1-1Z"/><path fill="#F1473B" id="STN" d="M282 233h2l5.5-6c5.41-2.705 19.5-18.566 19.5-25 0-1.115-2.535 0-4 0l-2 1c0 1.577-1.762 2-3 2 0 1.577-1.762 2-3 2l-2 1v1c0 1.908-7.591 9.091-9.5 11l-2.5 3-1 10Z"/><path fill="#32B725" id="ENTl3" d="M401 216c0 1.059 6.743 2 8 2 0-4.755 5-9.84 5-15l-7-2h-1c0 2.17-2.709 15-5 15Z"/><path fill="#E64438" id="HY" d="m305 202-2 1 2-1Z"/><path fill="#A0EE9C" id="EPd" d="M393 215h1l1-6c0-1.406.714-7-1-7l-1 13Z"/><path fill="#32B722" id="ENTl1" d="m43 220-4 3c-1.221 0-8-16.393-8-19l6-1c0 3.918 1.574 17 6 17Z"/><path fill="#32B825" id="ENTl2" d="m47 219-4 1c-4.426 0-6-13.082-6-17h6c0 6.105 4 10.284 4 16Z"/><path fill="#A0EE9C" id="EPd" d="M62 214c2.06 0 1.647 10 5 10l-4-11.5c-.783-1.566 1.35-9.5-1-9.5l-1 4v4l1 1v2Z"/><path fill="#FF64FF" id="MB" d="m211 203-1 1 1-1ZM251 212l3 1c1.424 0 5-.362 5-2-4.035 0-11-.524-11-6l-2-2c0 3.601 5 7.082 5 9Z"/><path fill="#E64438" id="HY" d="M303 203c-1.238 0-3 .423-3 2 1.238 0 3-.423 3-2Z"/><path fill="#32B825" id="ENTl2" d="M409 218c0 1.014 3.959 2 5 2 3.09 0 6-14.395 6-17h-6c0 5.16-5 10.245-5 15Z"/><path fill="#32B722" id="ENTl1" d="m414 220 4 3c1.951 0 .477-2.454 1-3.5 2.288-4.577 6-9.029 6-14.5 0-.672-4.329-2-5-2 0 2.605-2.91 17-6 17Z"/><path fill="#FF64FF" id="MB" d="m206 212-3 1c-1.623 0-6-.005-6-2 4.788 0 12-1.146 12-7h1c0 3.137-4 5.591-4 8Z"/><path fill="#E64438" id="HY" d="M161 209h2l-6-4 4 4Z"/><path fill="#FD4B3C" id="PH" d="m220 253-3 1c-4.761 0-21 1.213-21-5 0-5.807 8-14.628 8-21l3-4c7.653 0 2-8.313 2-11 0-5.655 11.992-11.517 14-7.5 3.907 7.814 4 20.247 4 29.5-1.786 0-3 8.479-3 10l-4 8ZM239 254h1l17.5-1 3.5-3c0-5.294-8-14.528-8-21l-4-5c-7.029 0-2-7.527-2-10 0-6.466-10.916-13.667-14-7.5-2.778 5.557-4 20.764-4 27.5 1.931 0 3 8.302 3 10 .092 0 4 8.167 4 9h2l1 1Z"/><path fill="#E64438" id="HY" d="M300 205c-1.238 0-3 .423-3 2 1.238 0 3-.423 3-2ZM297 207l-2 1 2-1Z"/><path fill="#FF64FF" id="MB" d="m190 208 1 1-1-1Z"/><path fill="#E64438" id="HY" d="m267 208-1 1 1-1ZM293 209h2v-1l-2 1Z"/><path fill="#80BEE1" id="CEAl" d="M113 212c0 2.565.236 5-3 5 0-2.167-3-3.855-3-7 1.178 0 6-1.576 6 2Z"/><path fill="#CCCACB" id="nst" d="M175 216c0 1.28 4.482 9.991-1.5 7l-1.5-1c0-3.141-11-11.617-11-13h2l5 2c0 1.391 5.706 5 7 5Z"/><path fill="#E64438" id="HY" d="m207 224-3 4c0-9.704-8.73-6-15-6 0-3.335-11.554-6-14-6-1.294 0-7-3.609-7-5 4.862 0 20.213 9.074 24 1.5l-1-3.5h2c0 1.577 1.762 2 3 2h1c0 1.995 4.377 2 6 2 0 2.4-5.422 11 4 11Z"/><path fill="#FF64FF" id="MB" d="m193 209 3 2c-1.238 0-3-.423-3-2Z"/><path fill="#A8A9AA" id="V3" d="M228 209c0 1.02-3.121 12 .5 12 .56 0 1.405-12-.5-12Z"/><path fill="#FF64FF" id="MB" d="m264 209-1 1 1-1Z"/><path fill="#E64438" id="HY" d="m249 224 4 5c0-10.482 7.353-7 14-7 0-3.662 12.314-6 15-6l3-3c-4.881 0-18.077 5.346-21-.5l1-3.5h-1l-1 1h-1l-2 1h-1c0 1.638-3.576 2-5 2 0 4.318 2.73 11-5 11Z"/><path fill="#CCCACB" id="nst" d="M282 216c0 2.785-5.192 7 1 7l2.5-3c1.909-1.909 9.5-9.092 9.5-11h-2l-3 1-1 1h-1l-1 1-2 1-3 3Z"/><path fill="#80BEE1" id="CEAl" d="M343 212c0 1.766.607 5 3 5 0-2.167 3-3.855 3-7 0-3.208-4.47 1-5 1l-1 1Z"/><path fill="#80BFE0" id="CEAc" d="m110 218-2 1-5-2-1-4c0-2.393 3.234-3 5-3 0 3.145 3 4.833 3 7v1Z"/><path fill="#FF64FF" id="MB" d="m262 210-2 1 2-1Z"/><path fill="#E64438" id="HY" d="m290 210-1 1 1-1Z"/><path fill="#80BFE0" id="CEAc" d="m346 218 3 1 4-2 1-4c0-2.6-2.639-3-5-3 0 3.145-3 4.833-3 7v1Z"/><path fill="#32B824" id="ENTl6a" d="m61 211 1 1-1-1Z"/><path fill="#E64438" id="HY" d="m288 211-1 1 1-1Z"/><path fill="#7FC0E0" id="CEAm" d="m344 211-1 1 1-1ZM110 217v1c3.66 0 3.985 11.257 8.5 9 3.483-1.741-2.033-15-5.5-15 0 2.565.236 5-3 5Z"/><path fill="#C7C9CC" id="mtt" d="M209 213c0 2.687 5.653 11-2 11-9.422 0-4-8.6-4-11l3-1 3 1ZM247 214c0 2.473-5.029 10 2 10 7.73 0 5-6.682 5-11l-3-1-4 2Z"/><path fill="#E64438" id="HY" d="m287 212-2 1 2-1Z"/><path fill="#7FC0E0" id="CEAm" d="M346 217v1c-2.705 0-4.197 10.651-7.5 9-3.021-1.51.973-15 4.5-15 0 1.766.607 5 3 5Z"/><path fill="#6ACAB9" id="PIR" d="m84 272-9 17c-2.338 0-10.925-13.349-12-15.5-5.338-10.676-24-39.4-24-50.5l4-3 4-1c.64 0 8-2.856 8-3 1.593 0 7-.337 7-2 2.06 0 1.647 10 5 10v1c0 1.251 4.19 8 5 8 0 9.583 11 27.132 11 31v1l1 1v6ZM373 273l8 16c3.812 0 10.662-11.824 12-14.5 4.866-9.731 11.188-18.377 16-28 1.932-3.865 2.068-9.135 4-13 1.513-3.027 5-7.028 5-10.5l-4-3c-1.041 0-5-.986-5-2-1.257 0-8-.941-8-2l-7-1h-1v2l-1 2-1 2-1 2-1 2v1l-1 1c0 1.097-3.517 7-4 7 0 7.553-3.818 15.136-7 21.5-.767 1.535-1.845 8.5-4 8.5v1c0 1.048.473 3-1 3v1l1 4Z"/><path fill="#F1483A" id="PSTN" d="m174 238 2 2c8.023 0 13-11.507 13-18 0-3.335-11.554-6-14-6 0 1.28 4.482 9.991-1.5 7l-1.5-1 3 6.5c.978 1.956-1 4.077-1 5.5v4ZM282 239l-1 1c-11.448 0-9.62-9.74-12-14.5l-2-3.5c0-3.662 12.314-6 15-6 0 2.785-5.192 7 1 7l-1 10v6Z"/><path fill="#9DE79B" id="BLAa" d="M112 232c-2.749 0-5.105 4-9 4-3.519 0-9-11.626-9-15 1.876 0 5.146-4 9-4l5 2 4 8 1 1v2l-1 2Z"/><path fill="#80BFE1" id="MEA" d="m146 259 7 7c6.258 0 11-7.37 11-13v-1c-1.714 0-1-5.594-1-7l-18-15h-1l-1-1-4-3-1-1-4-3-8-5c-1.714 0-1 5.594-1 7 0 3.489 2 5.32 2 9v9l3.5 4c3.082 1.541 15.5 8.156 15.5 13ZM311 258c0 1.137-6.234 8-8 8-8.607 0-10-9.118-10-16v-2l1-3c0-3.748 17-11.92 17-15 4.942 0 8.361-9 13-9l1-1 1-1 4-2c1.995 0 2 4.377 2 6l-1 2-1 8c-1.735 0-1 6.51-1 8v2c-1.187 0-18 13.088-18 15Z"/><path fill="#9DE79B" id="BLAa" d="M345 232c0 3.371 6.666 4 9 4 1.016 0 9-13.508 9-15-3.099 0-5.883-4-10-4l-4 2c0 2.367-4 4.032-4 7l-1 1v2l1 3Z"/><path fill="#A0EE9C" id="EPd" d="m393 217-1 2 1-2Z"/><path fill="#CAC7CB" id="fiber tracts" d="m326 219-1 1 1-1Z"/><path fill="#A0EE9C" id="EPd" d="m392 219-1 2 1-2Z"/><path fill="#C8CBC7" id="st" d="m125 224-3.5-4c-1.751 0-2.045 5.411-1.5 6.5 2.999 5.997-.122 6.5 7 6.5 0-3.68-2-5.511-2-9Z"/><path fill="#CAC7CB" id="fiber tracts" d="m325 220-1 1 1-1Z"/><path fill="#9DE69C" id="BLAp" d="m92 250-5 1-2-1c0-3.669-4-6.547-4-11 0-6.202 5.425-18 13-18 0 3.374 5.481 15 9 15 0 2.953-8 8.052-8 12l-3 2Z"/><path fill="#F2483A" id="LHA" d="M189 254c-5.488 0-11.682 1-17 1l-3-6c0-2.945 4-5.478 4-7l1-1 2-1c8.023 0 13-11.507 13-18 6.27 0 15-3.704 15 6 0 6.372-8 15.193-8 21l-2 2c-1.832 0-5-.818-5 3ZM267 253l2.5 2c4.322 2.161 11.337 0 15.5 0 0-1.714 2-3.482 2-6 0-3.715-4-5.378-4-8l-2-1c-11.448 0-9.62-9.74-12-14.5l-2-3.5c-6.647 0-14-3.482-14 7 0 6.472 8 15.706 8 21h2c2.061 0 4 .902 4 3Z"/><path fill="#C8CBC7" id="st" d="m331 225-1 8c0 5.547 8.481-6.537 6-11.5-1.27-2.54-3.483 1.5-4 1.5l-1 2Z"/><path fill="#9DE69C" id="BLAp" d="m371 250-1 1c-2.124 0-4.436-1-6-1l-2-2-8-12c1.016 0 9-13.508 9-15 7.519 0 12 12.691 12 19 0 4.299-4 6.885-4 10Z"/><path fill="#A0EE9C" id="EPd" d="m391 221-1 2 1-2Z"/><path fill="#97D6F9" id="STR" d="m332 223-1 2 1-2Z"/><path fill="#A0EE9C" id="EPd" d="m390 223-1 2 1-2Z"/><path fill="#80BEE2" id="IA" d="M118 236h1c0-2.816-6-14.74-6-9v3l1 3 4 3Z"/><path fill="#CAC7CB" id="fiber tracts" d="m138 225 1 1-1-1Z"/><path fill="#80BEE2" id="IA" d="M337 236h1c2.54 0 2.543-3 4-3l1-1c0-1.048-.473-3 1-3v-3c-4.317 0-7 6.439-7 10Z"/><path fill="#8AD987" id="CTXsp" d="m345 226-1 1v-1h1Z"/><path fill="#A0EE9C" id="EPd" d="m389 226-1 1 1-1Z"/><path fill="#8AD987" id="CTXsp" d="m76 231 3 3c0-1.406.714-7-1-7 0 1.747-.253 2-2 2v2ZM113 227v1l-1-1h1ZM380 231l-2 2v-5l2 1v2Z"/><path fill="#CAC7CB" id="fiber tracts" d="m143 229 1 1-1-1Z"/><path fill="#8AD987" id="CTXsp" d="M343 232h2l-1-3c-1.473 0-1 1.952-1 3ZM112 232l2 1-1-3-1 2Z"/><path fill="#A0ED9D" id="EPv" d="M83 264h1c0-4.477 2-8.932 2-13l-1-1c0-3.669-4-6.547-4-11-1.638 0-2-3.576-2-5l-3-3-4 2c0 9.583 11 27.132 11 31ZM372 264h1c2.155 0 3.233-6.965 4-8.5 3.182-6.364 7-13.947 7-21.5 0-2.409-1.957-3-4-3l-2 2-1 2c0 1.424-.362 5-2 5 0 4.299-4 6.885-4 10v2l1 12Z"/><path fill="#84E981" id="BMAp" d="M103 265h3c3.116 0 19-16.795 19-19 0-4.073-7-6.575-7-10l-4-3-2-1c-2.749 0-5.105 4-9 4 0 2.953-8 8.052-8 12v3c0 4.414 8 9.178 8 14Z"/><path fill="#8AD987" id="CTXsp" d="m343 232-1 1 1-1Z"/><path fill="#84E981" id="BMAp" d="M351 265h2c3.237 0 4.769-14 9-14v-3l-8-12c-2.334 0-9-.629-9-4h-2l-1 1c-1.457 0-1.46 3-4 3l-1 1c0 .934-4.858 8-6 8 0 3.164 16.607 20 20 20Z"/><path fill="#E64438" id="HY" d="m284 233-2 4v-4h2Z"/><path fill="#8AD987" id="CTXsp" d="m378 233-1 2 1-2Z"/><path fill="#E64438" id="HY" d="M174 234v1l-1-1h1Z"/><path fill="#FD5D50" id="PVi" d="M229 269h3v-25c0-1.698-1.069-10-3-10v35ZM224 269h3v-34c-1.786 0-3 8.479-3 10v24Z"/><path fill="#8AD987" id="CTXsp" d="M127 242c0 1.465.109 4-2 4 0-4.073-7-6.575-7-10h1c0 .359 6.831 5 8 5v1ZM338 236l-1 1v-1h1ZM329 243l2 2c1.142 0 6-7.066 6-8l-8 4v2Z"/><path fill="#E64438" id="HY" d="m176 240-2 1v-3l2 2Z"/><path fill="#A8A9AA" id="V3" d="M227 269c0 11.405 2 11.708 2 0v-31l-2 1v30Z"/><path fill="#E64438" id="HY" d="m281 240 2 1-1-2-1 1ZM174 241l-1 1 1-1Z"/><path fill="#97EC93" id="PA" d="M103 269h12c0-2.825 5.81-4.155 7.5-5 4.629-2.314 14.792-10.104 21-7l2.5 2c0-4.844-12.418-11.459-15.5-13l-3.5-4c0 1.465.109 4-2 4 0 2.205-15.884 19-19 19l-3 3v1ZM342 269h11v-2c-1.747 0-2-.253-2-2-3.393 0-20-16.836-20-20l-2-2c-1.187 0-18 13.088-18 15 10.423 0 12.83.165 22.5 5 2.026 1.013 7.297 6 8.5 6Z"/><path fill="#E64438" id="HY" d="m236 253-4 1v-10c.092 0 4 8.167 4 9ZM220 253h4v-8l-4 8Z"/><path fill="#8AD987" id="CTXsp" d="m92 250 3 1v-3l-3 2Z"/><path fill="#7DCD4B" id="HPF" d="M164 252v1c2.286 0 0-9.244 0-1ZM293 248c-2.561 0-2.447 6-1.5 6 1.439 0-.659-4 1.5-4v-2Z"/><path fill="#8AD987" id="CTXsp" d="m364 250-2 1v-3l2 2Z"/><path fill="#E64438" id="HY" d="M213 260c-1.778 0-23-4.334-23 3l-6.5-6c-2.7-1.35-8.5-.153-8.5 3-1.803 0-3-3.592-3-5 5.318 0 11.512-1 17-1 0 8.378 10.38-3 5-3l2-2c0 6.213 16.239 5 21 5 0 1.431-4 3.1-4 6Z"/><path fill="#8AD987" id="CTXsp" d="M86 251h1l-2-1 1 1Z"/><path fill="#9CE79C" id="BLAv" d="M93 275h3l6-5 1-1v-4c0-4.822-8-9.586-8-14l-3-1-5 1h-1c0 4.068-2 8.523-2 13v3c.672 0 2 4.329 2 5 2.232 0 4.03 3 7 3Z"/><path fill="#C7C8CA" id="fx" d="M194 251c5.38 0-5 11.378-5 3 0-3.818 3.168-3 5-3Z"/><path fill="#E64438" id="HY" d="M281 261c0-6.674-7.95-4.55-11.5-1l-3.5 4c0-4.551-15.188-7.656-18.5-6l-4.5 2c0-2.813-3-3.921-3-6l17.5-1 3.5-3h2c0 1.317-3.356 1.788-2 4.5 1.942 3.883 6 2.557 6-1.5l2.5 2c4.322 2.161 11.337 0 15.5 0l-4 6Z"/><path fill="#C7C8CA" id="fx" d="M263 250c2.061 0 4 .902 4 3 0 4.057-4.058 5.383-6 1.5-1.356-2.712 2-3.183 2-4.5Z"/><path fill="#9CE79C" id="BLAv" d="m359 274 4 1c3.145 0 4.833-3 7-3l2-3v-5l-1-12-1-1c-2.124 0-4.436-1-6-1l-2 1c-4.231 0-5.763 14-9 14v3l1 1 1 1 4 4Z"/><path fill="#8AD987" id="CTXsp" d="m370 251 1 1v-2l-1 1Z"/><path fill="#FE5445" id="DMH" d="m224 269-4 1-5-1c0-3.447-2-6.245-2-9 0-2.9 4-4.569 4-6l3-1h4v16ZM241 269l-4 1-4-1-1-1v-14l4-1h2l1 1h1c0 2.079 3 3.187 3 6l-2 9Z"/><path fill="#E64438" id="HY" d="m238 253 1 1-1-1Z"/><path fill="#60E6B5" id="COApm" d="M115 269c0 2.545 2.659 21 6 21 2.045 0 22.141-15.641 25-18.5 1.402-1.402 7-2.841 7-5.5l-7-7-2.5-2c-6.208-3.104-16.371 4.686-21 7-1.69.845-7.5 2.175-7.5 5Z"/><path fill="#FF4C3E" id="TMv" d="M188 277h1c4.907 0 11 5.857 11-3 0-2.832-10-6.641-10-11l-6.5-6c-2.7-1.35-8.5-.153-8.5 3 0 6.615 12 12.231 12 16l1 1ZM269 276l-1 1c-3.997 0-12 5.34-12-3l10-10 3.5-4c3.55-3.55 11.5-5.674 11.5 1 0 2.905-9.132 14-11 14l-1 1Z"/><path fill="#60E6B5" id="COApm" d="M342 269c0 3.662-4.102 21-7 21l-32-24c1.766 0 8-6.863 8-8 10.423 0 12.83.165 22.5 5 2.026 1.013 7.297 6 8.5 6Z"/><path fill="#FF4B3B" id="PMv" d="M215 269c0 9.364-10.57 5-15 5 0-2.832-10-6.641-10-11 0-7.334 21.222-3 23-3 0 2.755 2 5.553 2 9ZM241 269l4.5 6c3.981 1.99 6.869-1 10.5-1l10-10c0-4.551-15.188-7.656-18.5-6l-4.5 2-2 9Z"/><path fill="#8AD987" id="CTXsp" d="M83 265h1v-1h-1v1ZM372 265h1v-1h-1v1Z"/><path fill="#99D2BD" id="OLF" d="M84 265v1l-1-1h1Z"/><path fill="#8AD987" id="CTXsp" d="m106 265-3 3v-3h3ZM353 265v2c-1.747 0-2-.253-2-2h2Z"/><path fill="#99D2BD" id="OLF" d="M373 265c0 1.048.473 3-1 3v-3h1ZM84 272h2c0-.671-1.328-5-2-5v5Z"/><path fill="#E64438" id="HY" d="M232 269h1l-1-1v1Z"/><path fill="#8AD987" id="CTXsp" d="M353 269h1l-1-1v1Z"/><path fill="#97EC93" id="PA" d="m103 269-1 1 1-1Z"/><path fill="#5FE6B7" id="COApl" d="M93 297v1c10.193 0 14.413-.457 23.5-5l4.5-3c-3.341 0-6-18.455-6-21h-12l-1 1-6 5-1 2c0 7.155-2 13.719-2 20Z"/><path fill="#E64438" id="HY" d="M189 277c0 3.476 16.654 9 20 9 0-5.257 3.846-8.193 6-12.5l5-3.5-5-1c0 9.364-10.57 5-15 5 0 8.857-6.093 3-11 3Z"/><path fill="#FF5B4F" id="ARH" d="M247 287c-2.978 0-6.49 1-10 1 0-3.563-6.6-1-8-1 0-1.186-1-1.186-1 0-1.671 0-9-2.576-9 1-2.049 0-10 .342-10-2 0-5.257 3.846-8.193 6-12.5l5-3.5 4-1h3c0 11.405 2 11.708 2 0h4l4 1c0 1.562 10 9.139 10 17Z"/><path fill="#E64438" id="HY" d="M268 277c0 1.619-18.41 10-21 10 0-7.861-10-15.438-10-17l4-1 4.5 6c3.981 1.99 6.869-1 10.5-1 0 8.34 8.003 3 12 3Z"/><path fill="#5FE6B7" id="COApl" d="M363 296v2c-13.746 0-12.283.109-24.5-6l-3.5-2c2.898 0 7-17.338 7-21h12l1 1 4 4 2 3c0 6.951 2 12.608 2 19Z"/><path fill="#97EC93" id="PA" d="m354 269 1 1-1-1Z"/><path fill="#99D2BD" id="OLF" d="m370 272 3 1-1-4-2 3Z"/><path fill="#59D9AA" id="PAA" d="M91 297h2c0-6.281 2-12.845 2-20l-2-2c-2.97 0-4.768-3-7-3h-2l-9 17c0 4.394 12.7 8 16 8ZM363 296l2 1c3.669 0 16-2.869 16-8l-8-16-3-1c-2.167 0-3.855 3-7 3l-2 2c0 6.951 2 12.608 2 19Z"/><path fill="#99D2BD" id="OLF" d="m363 275-2 2-2-3 4 1ZM96 275l-1 2-2-2h3Z"/><path fill="#E64438" id="HY" d="m270 275-1 1 1-1ZM187 276l1 1-1-1Z"/><path fill="#F1473A" id="ME" d="M219 288c0 12.725 18 12.248 18 0 0-3.563-6.6-1-8-1h-1c-1.671 0-9-2.576-9 1Z"/><path fill="#E64438" id="HY" d="M228 287h1c0-1.186-1-1.186-1 0Z"/><path fill="#99D2BD" id="OLF" d="m365 297-2 1v-2l2 1ZM93 297v1l-2-1h2Z"/></svg>