<svg xmlns="http://www.w3.org/2000/svg" viewBox="0 0 456 320"><path fill="#FEFA90" id="DEC" fill-rule="evenodd" d="M176 69c0 4.282 5.195 0 0 0m5-2-2 1.5c0 1.806 7.296-1.5 2-1.5m3-2c0 4.42 1.206 0 0 0m54 72c0-.909 12.835-5.167 14.5-6 10.151-5.075 26.884-24.731 20.5-37.5-8.646-17.292-52.829-22.835-69.5-14.5l-16 8c-8.551 4.276-3.021 31.49 4 35 6.27 3.135 11.91 7.955 18 11 9.845 4.922 17.497 4 28.5 4m42-14-11.5 7c-5.381 2.69-24.071 7-30.5 7 0 2.104-14.172 3.164-16.5 2-10.473-5.237-23.471-4.736-34-10-1.669-.835-10.5-4.067-10.5-6l-3-4.5-3-9V76c0-.31 5.662-6.581 2.5-5l-2.5 2c0-5.14-1-10.395-1-16l3.5-3 12-5c13.888-6.944 33.308-5 50-5h17l24 7 10.5 6c0 4.594-1 10.74-1 16-3.352 0-7.554-4.527-10.5-6-.307-.153-3.5-1.756-3.5-.5 0 3.608 13 3.914 13 8.5 0 7.392 2.328 32.843 0 37.5l-5 10.5Z"/><path fill="#FDFB8F" id="SIM" d="M171 73c-6.015 0-9.655 19-17 19 0-9.727-8-20.992-8-24 0-8.626 16.005-11 24-11 0 5.605 1 10.86 1 16ZM286 73l3 2.5c1.841 3.683 8.085 16.5 13 16.5 0-3.794 5.891-24 9-24 0-8.366-16.401-11-24-11 0 4.594-1 10.74-1 16Z"/><path fill="#CBC9CC" id="arb" d="M184 65c0 4.42 1.206 0 0 0Z"/><path fill="#CBC9CC" id="arb" fill-rule="evenodd" d="M280 151c0 5.567 2.112 0 0 0m-105 0c0 7.389 2.111 0 0 0m107-21-6.5 3-9 8c-3.444 1.722-9.45-1.275-12 0-1.023.511-6.351 2.798-5.5 4.5l5.5 3.5c10.043 5.021 17.884 3.116 26.5-5.5 1.214-1.214 9.662-9.676 9-11-1.366-2.732-5.344-2.5-8-2.5m-113 0c0 1.317-3.356 1.788-2 4.5 5.307 10.614 17.591 14.046 26.5 18.5 1.161.58 15.068-6.364 13.5-9.5-2.589-5.178-12.885-.192-17.5-2.5l-5-4c-6.363-3.182-7.628-7-15.5-7m137 52 6 6c2.363 0-6.184-11.867-7-13.5-5.055-10.11-10.913-19.825-16-30-1.571-3.142 2.725-10.5 6-10.5l5.5-2c13.894 6.947 25.447 19.724 40 27 4.05 2.025 13.692 17.154 16 16 2.987-1.494-2.042-6.042-3-7-4.925-4.925-8.431-12.216-14-15-.95-.475-4.376-7-1.5-7 0-5.061 17.684-6 22-6 1.327 0 8.004 3.508 7 1.5-.072-.145-6.461-8.481-6.5-8.5l-3.5 2-16.5 5c-8.561 4.28-19.867-2.934-26-6-1.544-.772-7.5-2.732-7.5-5-4.923 0-8.453-22.594-6-27.5 1.11-2.22 3.189-4.379 4-6 .891-1.782-1.644-3.5-3-3.5-4.915 0-11.159-12.817-13-16.5l-3-2.5c-3.352 0-7.554-4.527-10.5-6-.307-.153-3.5-1.756-3.5-.5 0 3.608 13 3.914 13 8.5 3.577 0 4.908 9.315 6 11.5 4.407 8.814 2.612 36.5-11 36.5l-11.5 7c-5.381 2.69-24.071 7-30.5 7 0 2.104-14.172 3.164-16.5 2-10.473-5.237-23.471-4.736-34-10-1.669-.835-10.5-4.067-10.5-6-13.413 0-16.921-24.657-12-34.5 1.232-2.465 1.535-12.5 6-12.5 0-.31 5.662-6.581 2.5-5l-2.5 2c-6.015 0-9.655 19-17 19 0 1.71-4.078.344-3 2.5l4 5c2.48 4.96-.008 29.5-5 29.5 0 1.658-7.972 5.236-9.5 6-10.713 5.357-24.357 7.821-36 2l-7-3-1-2-3.5 6.5-4 4c0 .566 6.81-2.5 8-2.5 5.227 0 22 1.075 22 7 0 6.136-10.316 14.816-14.5 19-1.461 1.461-6.704 5.093-5.5 7.5 2.267 4.533 9.581-9.041 12.5-10.5 10.588-5.294 19.632-16.316 31-22l5-5c1.899-.95 14.5-7.122 14.5-1 7.162 0 4.978 10.544 3 14.5l-8 12c-1.694 3.387-2.273 7.546-4 11-2.647 5.294-9 9.166-9 15.5l6-6 1-1c0-5.592 12.965-16 18-16 0-1.644 14.301-8.901 16.5-10h10c21.171-10.585 43.864-10.568 65 0h10c2.385 1.193 16.5 7.659 16.5 10 5.102 0 19 11.825 19 17Z"/><path fill="#CBC9CC" id="arb" d="m181 67-2 1.5c0 1.806 7.296-1.5 2-1.5Z"/><path fill="#FCFC90" id="ANcr1" fill-rule="evenodd" d="M139 88c0 3.533 8.277 4.889 2.5 2l-2.5-2m-38 6c21.548 0 18.198 22.849 28.5 28l16 5c1.37.685 4.5-.871 4.5 2 4.992 0 7.48-24.54 5-29.5l-4-5c-1.078-2.156 3-.79 3-2.5 0-9.727-8-20.992-8-24-13.601 0-20.435 5.467-31.5 11l-4 4c-3.204 1.602-9.5 7.166-9.5 11ZM312 91c0 1.93 1.93 0 0 0m4-3-2.5 3c2.231 1.116 4.89-3 2.5-3m39 6c-8.049 0-16.523 6.547-20 13.5-1.657 3.314-2.668 11.584-6.5 13.5l-17 6c-1.37.685-4.5-.871-4.5 2-4.923 0-8.453-22.594-6-27.5 1.11-2.22 3.189-4.379 4-6 .891-1.782-1.644-3.5-3-3.5 0-3.794 5.891-24 9-24l12.5 1c7.166 3.583 31.5 15.564 31.5 25Z"/><path fill="#CBC9CC" id="arb" d="M176 69c0 4.282 5.195 0 0 0Z"/><path fill="#FCFB90" id="CUL4, 5" d="M238 137c0-.909 12.835-5.167 14.5-6 10.151-5.075 26.884-24.731 20.5-37.5-8.646-17.292-52.829-22.835-69.5-14.5l-16 8c-8.551 4.276-3.021 31.49 4 35 6.27 3.135 11.91 7.955 18 11 9.845 4.922 17.497 4 28.5 4Z"/><path fill="#FDFB8F" id="SIM" d="M285 75c3.577 0 4.908 9.315 6 11.5 4.407 8.814 2.612 36.5-11 36.5l5-10.5c2.328-4.657 0-30.108 0-37.5ZM171 76c-4.465 0-4.768 10.035-6 12.5-4.921 9.843-1.413 34.5 12 34.5l-3-4.5-3-9V76Z"/><path fill="#CBC9CC" id="arb" d="M139 88c0 3.533 8.277 4.889 2.5 2l-2.5-2ZM316 88l-2.5 3c2.231 1.116 4.89-3 2.5-3ZM312 91c0 1.93 1.93 0 0 0Z"/><path fill="#FCFA91" id="ANcr2" fill-rule="evenodd" d="M88 143c0 1.93 1.93 0 0 0m31 4c-10.028 0-30.522 16-39 16l-5.5 1c-14.946-7.473-2.645-39.211 2.5-49.5 3.785-7.569 11.42-11.419 17-17l7-3.5c21.548 0 18.198 22.849 28.5 28l16 5c1.37.685 4.5-.871 4.5 2 0 1.658-7.972 5.236-9.5 6-10.713 5.357-24.357 7.821-36 2l-7-3-1-2-3.5 6.5-4 4c0 .566 6.81-2.5 8-2.5 5.227 0 22 1.075 22 7Z"/><path fill="#FCFA91" id="ANcr2" d="M338 146c0 1.693 6.837 2.337 8 3.5 2.34 2.34 27.877 13.5 31 13.5 3.229 0 4.459 1.52 7.5 0 3.72-1.86 6.704-16.092 4.5-20.5-7.042-14.085-5.931-33.716-23.5-42.5-3.361-1.68-6.569-6-10.5-6-8.049 0-16.523 6.547-20 13.5-1.657 3.314-2.668 11.584-6.5 13.5l-17 6c-1.37.685-4.5-.871-4.5 2 0 2.268 5.956 4.228 7.5 5 6.133 3.066 17.439 10.28 26 6l16.5-5 3.5-2c.039.019 6.428 8.355 6.5 8.5 1.004 2.008-5.673-1.5-7-1.5-4.316 0-22 .939-22 6Z"/><path fill="#FFFCBC" id="FN" d="M169 130c0 1.317-3.356 1.788-2 4.5 5.307 10.614 17.591 14.046 26.5 18.5 1.161.58 15.068-6.364 13.5-9.5-2.589-5.178-12.885-.192-17.5-2.5l-5-4c-6.363-3.182-7.628-7-15.5-7ZM282 130l-6.5 3-9 8c-3.444 1.722-9.45-1.275-12 0-1.023.511-6.351 2.798-5.5 4.5l5.5 3.5c10.043 5.021 17.884 3.116 26.5-5.5 1.214-1.214 9.662-9.676 9-11-1.366-2.732-5.344-2.5-8-2.5Z"/><path fill="#FFFB8E" id="PRM" d="M117 201c-5.858 0-8.923 4-15 4-8.85 0-21.365-27.23-25-34.5-.441-.882 3-5.825 3-7.5 8.478 0 28.972-16 39-16 0 6.136-10.316 14.816-14.5 19-1.461 1.461-6.704 5.093-5.5 7.5 2.267 4.533 9.581-9.041 12.5-10.5 10.588-5.294 19.632-16.316 31-22l5-5c1.899-.95 14.5-7.122 14.5-1-5.617 0-8.758 7.629-13.5 10-14.218 7.109-15.67 23.841-21.5 35.5l-3 6.5-7 14ZM339 201c5.764 0 9.118 4 15 4 8.495 0 21.184-24.868 25-32.5 1.476-2.952-2-6.371-2-9.5-3.123 0-28.66-11.16-31-13.5-1.163-1.163-8-1.807-8-3.5-2.876 0 .55 6.525 1.5 7 5.569 2.784 9.075 10.075 14 15 .958.958 5.987 5.506 3 7-2.308 1.154-11.95-13.975-16-16-14.553-7.276-26.106-20.053-40-27l-5.5 2c0 2.417 4.092 3.296 5.5 4l15 13c3.959 1.98 16.5 31.179 16.5 36l7 14Z"/><path fill="#FFF990" id="COPY" d="M312 188c0 2.777 10.945 15 13 15 0-2.825 3.621-16 7-16 0-4.821-12.541-34.02-16.5-36l-15-13c-1.408-.704-5.5-1.583-5.5-4-3.275 0-7.571 7.358-6 10.5 5.087 10.175 10.945 19.89 16 30 .816 1.633 9.363 13.5 7 13.5ZM141 195c-3.735 0-6.491 8-10 8 0-3.78-2.923-16-7-16l3-6.5c5.83-11.659 7.282-28.391 21.5-35.5 4.742-2.371 7.883-10 13.5-10 7.162 0 4.978 10.544 3 14.5l-8 12c-1.694 3.387-2.273 7.546-4 11-2.647 5.294-9 9.166-9 15.5l-1 4c-1.577 0-2 1.762-2 3Z"/><path fill="#CBC9CC" id="arb" d="M88 143c0 1.93 1.93 0 0 0Z"/><path fill="#FFFA8F" id="UVU" d="m169 165 16.5-7c2.556-1.278 9.914-.043 12 1 1.927.964 5.545-.272 7-1 6.794-3.397 19.274 1.863 25-1 2.801-1.401 11.667-.167 14 1 8.008 4.004 21.836-3.082 30 1l13.5 6c0-2.341-14.115-8.807-16.5-10h-10c-21.136-10.568-43.829-10.585-65 0h-10c-2.199 1.099-16.5 8.356-16.5 10Z"/><path fill="#F0F080" id="CB" d="M175 151c0 7.389 2.111 0 0 0ZM280 151c0 5.567 2.112 0 0 0Z"/><path fill="#FDFC8F" id="NOD" d="m245 191-2 1c-6.162 0-19.312 4.094-25.5 1l-5.5-2h-1l-2-2h-1l-4-2h-1c0-1.473-1.952-1-3-1h-1c0-1.614-3.31-1-4.5-1-3.533 0-7.456-1-11.5-1-10.631 0-21.237-3-32-3 0-5.592 12.965-16 18-16l16.5-7c2.556-1.278 9.914-.043 12 1 1.927.964 5.545-.272 7-1 6.794-3.397 19.274 1.863 25-1 2.801-1.401 11.667-.167 14 1 8.008 4.004 21.836-3.082 30 1l13.5 6c5.102 0 19 11.825 19 17-10.483 0-22.129 2-33 2-2.267 0-16 .443-16 2h-1l-2 1h-1c-1.048 0-3-.473-3 1l-1 1h-2l-1 1-1 1ZM151 181l-1 1 1-1Z"/><path fill="#A9AAA7" id="V4r" d="M160 193c-4.349 0-6.918 4-11 4l12-9.5c2.088-4.176-7.082-5.709-9.5-4.5-2.619 1.309-6.136 9-8.5 9l1-4 6-6 1-1c10.763 0 21.369 3 32 3v1c-4.549 0-8.157 2-12 2l-1 1-2 1h-2l-1 1-4 2-1 1ZM329 226l2 1c0-4.537 2-9.554 2-15l-2-5-6-4c-2.055 0-13-12.223-13-15l-6-6c-10.483 0-22.129 2-33 2v1c4.511 0 8.351 2 12 2h1l1 1 2 1 5 2 2 2h1l10 4c0-3.087-13.472-8.555-12-11.5 1.91-3.82 8.648-2.926 11.5-1.5 6.866 3.433 8.815 16.908 21 23 2.222 1.111 4.763 5.975 3.5 8.5-3.715 7.43-9.981-7.5-12-7.5l7 12v1l1 1v1l1 1 1 2Z"/><path fill="#A9AAA8" id="chpl" d="m135 211-1 2-3.5 4c-2.823 1.411-6.911-2.677-5.5-5.5 3.398-6.796 16-8.138 16-16.5 1.577 0 2-1.762 2-3 2.364 0 5.881-7.691 8.5-9 2.418-1.209 11.588.324 9.5 4.5l-12 9.5h-1l-1 1-3 3-1 1-1 1-1 1-1 1-2 2-1 1v1l-1 1-1 1ZM317 205l2 3c2.019 0 8.285 14.93 12 7.5 1.263-2.525-1.278-7.389-3.5-8.5-12.185-6.092-14.134-19.567-21-23-2.852-1.426-9.59-2.32-11.5 1.5-1.472 2.945 12 8.413 12 11.5h1l1 1 4 4 1 1h1l2 2Z"/><path fill="#AAA9A7" id="V4" d="M193 186h6c0-1.614-3.31-1-4.5-1-3.533 0-7.456-1-11.5-1v1l9 1h1ZM257 186h7l9-1v-1c-2.267 0-16 .443-16 2Z"/><path fill="#FEB1D9" id="SPIV" d="m188 203-11 4c-5.263 0-7-5.663-7-10 3.681 0 1-6.754 1-8v-2c3.843 0 7.451-2 12-2l9 1v1c0 6.134-4 11.221-4 15v1ZM269 203l10 4c5.957 0 7-4.885 7-10 0-2.75-1-5.337-1-8v-2c-3.649 0-7.489-2-12-2l-9 1c0 6.193 4 10.8 4 16l1 1Z"/><path fill="#FF9BCD" id="MY" d="m193 186-1 1v-1h1Z"/><path fill="#FFB0D7" id="MV" d="M205 203h4l7-4 1-1c0-3.516-5-4.57-5-7h-1l-2-2h-1l-4-2h-1c-1.048 0-3 .473-3-1h-7l-1 1c0 6.134-4 11.221-4 15l1 1h16Z"/><path fill="#AAA9A7" id="V4" d="M200 186c1.048 0 3-.473 3 1-1.048 0-3 .473-3-1ZM256 186l-2 1 2-1Z"/><path fill="#FFB0D7" id="MV" d="M252 203h15l1-1c0-5.2-4-9.807-4-16h-8l-2 1h-1c0 1.473-1.952 1-3 1l-1 1h-2l-1 1-1 1-2 1-4 6 1 1 7 4h5Z"/><path fill="#FFFC8D" id="PFL" d="m131 203-6 4c-8.223 0-8 4.232-8-6l7-14c4.077 0 7 12.22 7 16Z"/><path fill="#F0F080" id="CB" d="M170 188h1v-1l-1 1Z"/><path fill="#AAA9A7" id="V4" d="m204 187 4 2-4-2ZM253 187c-1.048 0-3-.473-3 1 1.048 0 3 .473 3-1Z"/><path fill="#FF9BCD" id="MY" d="M285 189h4l-2-1-1-1h-1v2Z"/><path fill="#F0F080" id="CB" d="m286 187 1 1-1-1Z"/><path fill="#FFFC8D" id="PFL" d="M339 208h1l-1-7-7-14c-3.379 0-7 13.175-7 16l6 4 8 1Z"/><path fill="#FF9BCD" id="MY" d="M168 189h3v-1h-1l-2 1Z"/><path fill="#AAA9A7" id="V4" d="m250 188-1 1 1-1Z"/><path fill="#FF9BCD" id="MY" d="m166 189-1 1 1-1Z"/><path fill="#FFA2D2" id="ECU" d="M160 193c0 11.964 3.614 4 10 4 3.681 0 1-6.754 1-8h-5l-1 1-4 2-1 1Z"/><path fill="#AAA9A7" id="V4" d="m209 189 2 2-2-2ZM247 189l-1 1 1-1Z"/><path fill="#FFA2D2" id="ECU" d="M297 193c0 10.185-5.047 4-11 4 0-2.75-1-5.337-1-8h4l5 2 2 2h1Z"/><path fill="#AAA9A7" id="V4" d="m246 190-1 1 1-1ZM238 198h1l4-6c-6.162 0-19.312 4.094-25.5 1l-5.5-2c0 2.43 5 3.484 5 7l3.5 3c1.62 1.62 11.5 14.028 11.5 4-1.606 0-4.339 2.081-6.5 1l-3-4c-1.524-1.524-5.741-5.017-4.5-7.5l19.5-.5.5 4ZM245 191l-2 1 2-1Z"/><path fill="#FF9BCD" id="MY" d="m294 191 2 2-2-2Z"/><path fill="#A9AAA7" id="V4r" d="M143 192c-1.577 0-2 1.762-2 3 1.577 0 2-1.762 2-3Z"/><path fill="#FF9BCD" id="MY" d="m161 192-1 1 1-1ZM131 219h2l1-1 1-1v-1l1-1 1-1c0-1.747.253-2 2-2l6-8c0-2.656 5.168-4.334 6.5-5 .1-.05 3.5-3.602 3.5-1.5l-3 3.5c0 1.349 8-1.878 8 1.5 0 3.284-8 2.819-8 6.5 3.657 0 8.252-5.124 12.5-3 2.038 1.019 6.892 7 8.5 7 0-2.773 4-3.67 4-6-5.263 0-7-5.663-7-10-6.386 0-10 7.964-10-4-4.349 0-6.918 4-11 4h-1l-1 1-3 3-1 1-1 1-1 1-1 1-2 2-1 1v1l-1 1-1 1-1 2-3 6ZM323 219l3 1-7-12-2-3c-1.747 0-2-.253-2-2h-1l-1-1-4-4-1-1h-1l-10-4c0 10.185-5.047 4-11 4 0 5.115-1.043 10-7 10 0 1.465 5 3.316 5 6 3.276 0 6.073-10.213 12.5-7 3.576 1.788 7.362 3.181 11 5l6.5 6c0-5.016-18-13.238-18-14.5 0-3.918 9 .657 9-1.5l-4-3.5c0-.444 10 3.333 10 6.5l7 8 1 1v1l4 4v1Z"/><path fill="#A9AAA8" id="chpl" d="m233 204-1 1c-1.606 0-4.339 2.081-6.5 1l-3-4c-1.524-1.524-5.741-5.017-4.5-7.5l19.5-.5.5 4-1 1-1 2-1 1-1 1-1 1Z"/><path fill="#A9AAA7" id="V4r" d="M125 227h2v-1l1-1 1-1v-1l1-2 1-1v-1l3-6-3.5 4c-2.823 1.411-6.911-2.677-5.5-5.5 3.398-6.796 16-8.138 16-16.5-3.735 0-6.491 8-10 8l-6 4-1 4-1 2 2 14ZM148 197l-1 1 1-1Z"/><path fill="#C9C9C8" id="icp" d="m152 201-7 3c0-2.656 5.168-4.334 6.5-5 .1-.05 3.5-3.602 3.5-1.5l-3 3.5ZM305 201l6 3c0-3.167-10-6.944-10-6.5l4 3.5Z"/><path fill="#A9AAA7" id="V4r" d="m308 197 1 1-1-1Z"/><path fill="#FF9BCD" id="MY" d="m217 198-1 1 1-1Z"/><path fill="#FFB3D7" id="PRP" d="m233 204-1 1c0 10.028-9.88-2.38-11.5-4l-3.5-3-1 1c0 14.217 18.81 16.88 25 4.5l-1-4.5-1-1h-1l-1 1-1 2-1 1-1 1-1 1Z"/><path fill="#AAA9A7" id="V4" d="m238 198-1 1 1-1Z"/><path fill="#FF9BCD" id="MY" d="m227 243 2 2v-21.5c1.028-2.057 2 2.766 2 3.5 2.395 0 5.263-3.619 8.5-2l4.5 2c0-5.787 5.183-10 11-10 0-1.457-3-1.46-3-4-6.019 0-14.402-10-5-10l-7-4 1 4.5c-6.19 12.38-25 9.717-25-4.5l-7 4c9.091 0 2.098 9-5 9 0 2.25-2 3.376-2 5 4.059 0 11 4.701 11 9h12c0-.605 1.439-3.622 2-2.5 2.747 5.494 0 13.899 0 19.5Z"/><path fill="#AAA9A7" id="V4" d="m237 199-1 2 1-2Z"/><path fill="#F0F080" id="CB" d="m124 211-1 2-8.5-6c-1.583-.791-12.5-.342-12.5-2 6.077 0 9.142-4 15-4 0 10.232-.223 6 8 6l-1 4Z"/><path fill="#A9AAA7" id="V4r" d="m144 201-1 1 1-1Z"/><path fill="#C8CACA" id="sptV" d="M138 273c3.047 0 4.462 3 7 3l2.5-1c6.873-3.437-5.5-3.611-5.5-6h-1c-1.238 0-3-.423-3-2l-3-3-2-2v-1l-1-1v-1l-1-1v-2l-1-1v-1l-1-1v-3l-1-1v-6l1-1v-5c0-1.048-.473-3 1-3l1-2v-1l1-2 1-1v-1l1-1 1-1 1-1 1-1 1-1 3-4 1-1 1-1 1-1 1-1 1-1c0-1.577 1.762-2 3-2l1-1 2-1c0-3.681 8-3.216 8-6.5 0-3.378-8-.151-8-1.5l-7 3-6 8-2 2-1 1-1 1v1l-1 1-1 1c0 1.429-1.288 4-3 4l-1 2-2 4-1 2-1 2v1c0 1.048.473 3-1 3 0 1.145.579 4-1 4v9c1.579 0 1 2.855 1 4v1l1 2v2l2 3v2c2.895 0 3.509 6 7 6l4 3Z"/><path fill="#AAA9A7" id="V4" d="m236 201-1 1 1-1Z"/><path fill="#C8CACA" id="sptV" d="M319 273c-3.47 0-5.278 3-8 3-2.061 0-4-.902-4-3l7-4h2l1-1 1-1h1l1-1 1-1 2-2v-1l1-1v-1l1-1v-2l1-2 1-2v-1l1-1v-2c1.535 0 1.535-4 0-4v-4l-1-1v-5l-1-2v-1l-1-1v-1l-1-1-1-2-2-2-4-5-2-2-1-1c0-5.016-18-13.238-18-14.5 0-3.918 9 .657 9-1.5l6 3 7 8 1 1v1l4 4v1l6 9.5c.757 1.513 2.388 10.5 4 10.5v14c-1.473 0-1 1.952-1 3v1l-1 2v1l-1 1v1l-1 1v2c-1.747 0-2 .253-2 2l-4 3c-2.061 0-4 .902-4 3Z"/><path fill="#F0F080" id="CB" d="M354 205c0 .324-12.729 3-14 3l-1-7c5.764 0 9.118 4 15 4Z"/><path fill="#A9AAA7" id="V4r" d="m143 202-1 1 1-1Z"/><path fill="#FF9BCD" id="MY" d="M188 203h1l-1-1v1Z"/><path fill="#AAA9A7" id="V4" d="m235 202-1 1 1-1Z"/><path fill="#FF9BCD" id="MY" d="M267 203h2l-1-1-1 1Z"/><path fill="#A9AAA7" id="V4r" d="m313 202 1 1-1-1ZM142 203l-1 1 1-1Z"/><path fill="#FDA5D1" id="NTS" d="m177 220 2 1c5.097 0 12.253-2 17-2h2l1-1 3-1c0-1.624 2-2.75 2-5-1.272 0-3.876-4.749-3-6.5l4-2.5h-17l-11 4c0 2.33-4 3.227-4 6 0 2.919 4 4.243 4 7Z"/><path fill="#FDB1D8" id="DMX" d="M209 203c9.091 0 2.098 9-5 9-1.272 0-3.876-4.749-3-6.5l4-2.5h4Z"/><path fill="#AAA9A7" id="V4" d="m234 203-1 1 1-1Z"/><path fill="#FDB1D8" id="DMX" d="m252 203 3 2.5c1.602 3.204-3 5.152-3 7.5-6.019 0-14.402-10-5-10h5Z"/><path fill="#FDA5D1" id="NTS" d="M277 221h2c0-3.205 5-5.091 5-8 0-2.684-5-4.535-5-6l-10-4h-17l3 2.5c1.602 3.204-3 5.152-3 7.5 0 2.54 3 2.543 3 4l5 2c5.025 0 11.714 2 17 2Z"/><path fill="#A9AAA7" id="V4r" d="m315 203 2 2c-1.747 0-2-.253-2-2ZM141 204l-1 1 1-1Z"/><path fill="#AAA9A7" id="V4" d="m233 204-1 1 1-1Z"/><path fill="#FDA5D2" id="SPVI" d="M142 269h6c11.168 0 7.723-20.947 11-27.5 3.245-6.489 18-9.832 18-18.5v-3c0-2.757-4-4.081-4-7-1.608 0-6.462-5.981-8.5-7-4.248-2.124-8.843 3-12.5 3l-2 1-1 1c0 1.577-1.762 2-3 2l-1 1-1 1-1 1-1 1-1 1-3 4-1 1-1 1-1 1-1 1-1 1v1l-1 1-1 2v1l-1 2c0 1.048.473 3-1 3v5l-1 1v6l1 1v3l1 1v1l1 1v2l1 1v1l1 1v1l2 2 3 3 3 2h1ZM314 269h2l1-1 1-1h1l1-1 1-1c0-1.747.253-2 2-2v-1l1-1v-1l1-1v-2l1-2 1-2v-1l1-1v-10l-1-1v-5l-1-2v-1l-1-1v-1l-1-1-1-2-2-2-4-5-2-2-1-1-6.5-6c-3.638-1.819-7.424-3.212-11-5-6.427-3.213-9.224 7-12.5 7 0 2.909-5 4.795-5 8v2c0 7.321 15.004 11.508 18 17.5 3.182 6.365.878 28.5 11 28.5h6Z"/><path fill="#A9AAA7" id="V4r" d="m138 207-1 1 1-1Z"/><path fill="#F0F080" id="CB" d="M339 208c0 1.028-4.666 4-6 4l-2-5 8 1Z"/><path fill="#A9AAA7" id="V4r" d="m137 209-1 1 1-1Z"/><path fill="#FF9BCD" id="MY" d="m152 209-2 1 2-1Z"/><path fill="#A9AAA7" id="V4r" d="m136 210-1 1 1-1Z"/><path fill="#FF9BCD" id="MY" d="m150 210-1 1 1-1Z"/><path fill="#A9AAA7" id="V4r" d="m135 211-1 2 1-2Z"/><path fill="#FF9BCD" id="MY" d="M149 211c-1.238 0-3 .423-3 2 1.238 0 3-.423 3-2Z"/><path fill="#C9C9C8" id="icp" d="M139 212c-1.747 0-2 .253-2 2l2-2ZM318 212l1 1-1-1Z"/><path fill="#FF9BCD" id="MY" d="m146 213-1 1 1-1Z"/><path fill="#C9C9C8" id="icp" d="m137 214-1 1 1-1Z"/><path fill="#FF9BCD" id="MY" d="m145 214-1 1 1-1Z"/><path fill="#C9C9C8" id="icp" d="m319 214 4 4-4-4ZM136 215l-1 1 1-1Z"/><path fill="#FF9BCD" id="MY" d="m144 215-1 1 1-1ZM143 216l-1 1 1-1Z"/><path fill="#C9C9C8" id="icp" d="m135 217-1 1 1-1Z"/><path fill="#FF9BCD" id="MY" d="m142 217-1 1 1-1Z"/><path fill="#FFB2D8" id="IRN" fill-rule="evenodd" d="m191 247-1 2.5c2.68 5.36 13.264-.118 8.5-2.5H191m-8 18h1c2.73 0 6.298-2 10-2l18-36 1-1c0-4.299-6.941-9-11-9l-3 1-1 1h-1l-1 1-5 7.5c-4.25 8.501-9.779 16.558-14 25l-7 10.5 3 1h2l1 1h7ZM258 247l-1 3.5c1.373 2.747 10 1.31 10-2 0-1.978-7.536-1.5-9-1.5m22 18h1l1-1h1l3-1c0-3.034-3.725-4.95-5-7.5-4.211-8.422-9.743-16.486-14-25l-7-11.5-5-2c-5.817 0-11 4.213-11 10l18 36c4.135 0 7.814 2 11 2h7Z"/><path fill="#C9C9C8" id="icp" d="m134 218-1 1 1-1Z"/><path fill="#FF9BCD" id="MY" d="m199 218-1 1 1-1ZM315 218l2 2-2-2Z"/><path fill="#C9C9C8" id="icp" d="M130 221v2c1.712 0 3-2.571 3-4h-2v1l-1 1Z"/><path fill="#FCB3D9" id="PARN" d="m163 271-6 3c-2.84 0-9 .604-9-5 11.168 0 7.723-20.947 11-27.5 3.245-6.489 18-9.832 18-18.5l2-2c5.097 0 12.253-2 17-2v1l-5 7.5c-4.25 8.501-9.779 16.558-14 25l-7 10.5h-1c0-.555 3.455-8 1.5-8-2.876 0-6.606 8.711-7.5 10.5-.472.945-.156 3.5 1 3.5v1l-1 1Z"/><path fill="#FF9BCD" id="MY" d="m197 219-1 1v-1h1Z"/><path fill="#FCB3D9" id="PARN" d="M307 273c-2.69 0-4.598 1-7 1l-6-3-1-2c0-4.791-2.053-7.607-4-11.5l-4-3c-1.841 3.681 4 7.247 4 10.5l-2-1-1-1c0-3.034-3.725-4.95-5-7.5-4.211-8.422-9.743-16.486-14-25l-7-11.5c5.025 0 11.714 2 17 2l2 2c0 7.321 15.004 11.508 18 17.5 3.182 6.365.878 28.5 11 28.5l-1 4Z"/><path fill="#C9C9C8" id="icp" d="M329 226c0 4.221 4 8.313 4 13-1.612 0-3.243-8.987-4-10.5l-6-9.5 3 1v1l1 1v1l1 1 1 2Z"/><path fill="#FF9BCD" id="MY" d="m131 220-1 1 1-1ZM179 221l-2 2v-3l2 1ZM129 223h1v-2l-1 2ZM279 221v2l-2-2h2ZM326 221l1 1-1-1ZM138 222l-1 1 1-1Z"/><path fill="#C9C9C8" id="icp" d="M129 224v1l1-2h-1v1Z"/><path fill="#FF9BCD" id="MY" d="m137 223-1 1 1-1Z"/><path fill="#CBCBCC" id="mlf" d="M225 226c0 4.594-.936 10.629 1 14.5l.5 5.5.5-3c0-5.601 2.747-14.006 0-19.5-.561-1.122-2 1.895-2 2.5ZM231 227v13.5c0 1.695-2 6.883-2 4.5v-21.5c1.028-2.057 2 2.766 2 3.5Z"/><path fill="#FF9BCD" id="MY" d="m327 223 1 1-1-1ZM128 225h1v-1l-1 1ZM136 224l-1 1 1-1ZM128 225l-1 1 1-1Z"/><path fill="#C9C9C8" id="icp" d="M127 227v2l2-4h-1l-1 1v1Z"/><path fill="#FF9BCD" id="MY" d="m135 225-1 1 1-1Z"/><path fill="#FEB0D8" id="GRN" d="M240 271c2.262 0 8.239 4.869 10.5 6 3.95 1.975 5.194-1 8.5-1 0-3.114-5.822-13 3-13l-18-36-4.5-2c-3.237-1.619-6.105 2-8.5 2v13.5c0 1.695-2 6.883-2 4.5l-2-2-.5 3-.5-5.5c-1.936-3.871-1-9.906-1-14.5h-12l-1 1-18 36c11.215 0 3 10.326 3 13 3.302 0 5.451 3.024 9.5 1l10.5-6 4-5.5 3-10 3-.5c0-4.907 2-5.671 2 0 6.425 0 6.439 16 11 16Z"/><path fill="#FF9BCD" id="MY" d="m321 225 2 2-2-2ZM134 226l-1 1 1-1ZM213 226l-1 1 1-1ZM333 245l1 2c1.665 0 1-4.222 1-5.5 0-3.216-.523-14.5-4-14.5l-2-1c0 4.221 4 8.313 4 13v6ZM123 250v1c-1.665 0-1-4.222-1-5.5 0-3.343-.882-18.5 3-18.5h2v2l-1 2-1 2v1c-1.473 0-1 1.952-1 3-1.579 0-1 2.855-1 4v9ZM133 228l-1 1 1-1Z"/><path fill="#C9C9C8" id="icp" d="m127 229-1 2 1-2Z"/><path fill="#FF9BCD" id="MY" d="m132 229-1 2 1-2ZM324 229l1 1-1-1Z"/><path fill="#C9C9C8" id="icp" d="m126 231-1 2 1-2Z"/><path fill="#FF9BCD" id="MY" d="m325 231 1 1-1-1ZM131 232l-1 2 1-2ZM326 233l1 2-1-2Z"/><path fill="#C9C9C8" id="icp" d="M125 234c-1.473 0-1 1.952-1 3 1.473 0 1-1.952 1-3Z"/><path fill="#FF9BCD" id="MY" d="M130 234c-1.473 0-1 1.952-1 3 1.473 0 1-1.952 1-3Z"/><path fill="#C9C9C8" id="icp" d="M124 237c-1.579 0-1 2.855-1 4 1.579 0 1-2.855 1-4Z"/><path fill="#FF9BCD" id="MY" d="m327 240 1 1-1-1ZM129 242l-1 1 1-1ZM328 245c1.535 0 1.535 4 0 4v-4Z"/><path fill="#C9C9C8" id="icp" d="M333 247h1l-1-2v2Z"/><path fill="#FFB1D8" id="LIN" d="m191 247-1 2.5c2.68 5.36 13.264-.118 8.5-2.5H191ZM258 247l-1 3.5c1.373 2.747 10 1.31 10-2 0-1.978-7.536-1.5-9-1.5Z"/><path fill="#FF9BCD" id="MY" d="M333 253v1c1.714 0 1-5.594 1-7h-1v6ZM128 249l1 1-1-1Z"/><path fill="#C9C9C8" id="icp" d="M123 254h1c0-1.145.579-4-1-4v4Z"/><path fill="#FEC6E2" id="RO" d="M227 265c0 5.257 1.379 1 3 1l-1-11c0-5.671-2-4.907-2 0v10Z"/><path fill="#FF9BCD" id="MY" d="m328 251-1 1 1-1ZM129 253l1 1-1-1ZM327 253l-1 2 1-2Z"/><path fill="#C9C9C8" id="icp" d="M332 256h1v-3c-1.473 0-1 1.952-1 3Z"/><path fill="#FF9BCD" id="MY" d="M125 257v2c-1.638 0-2-3.576-2-5h1v1l1 2Z"/><path fill="#FFB1D8" id="LIN" d="M292 269h1c0-4.791-2.053-7.607-4-11.5l-4-3c-1.841 3.681 4 7.247 4 10.5v1l2 2 1 1Z"/><path fill="#C9C9C8" id="icp" d="m124 255 1 2-1-2Z"/><path fill="#FF9BCD" id="MY" d="m130 255 1 1-1-1Z"/><path fill="#FFB1D8" id="LIN" d="M164 269h1l1-2 1-1v-1l2-2c0-.555 3.455-8 1.5-8-2.876 0-6.606 8.711-7.5 10.5-.472.945-.156 3.5 1 3.5Z"/><path fill="#C8C8CC" id="tspc" d="M217 271c0 2.747.253 3 3 3l5-6 2-3v-10l-3 .5-3 10-4 5.5ZM240 271c0 3.97-2.104 2-4 2l-5-5-1-2-1-11c6.425 0 6.439 16 11 16Z"/><path fill="#FF9BCD" id="MY" d="m326 255-1 2 1-2ZM332 257v1l1-2h-1v1Z"/><path fill="#C9C9C8" id="icp" d="M331 259h1v-2l-1 2Z"/><path fill="#FF9BCD" id="MY" d="m131 258 1 1-1-1Z"/><path fill="#C9C9C8" id="icp" d="m125 261 2 1-2-3v2Z"/><path fill="#FF9BCD" id="MY" d="m325 259-1 1 1-1ZM332 259l-1 1v-1h1ZM132 260l1 1-1-1Z"/><path fill="#C9C9C8" id="icp" d="M330 261h1v-1l-1 1Z"/><path fill="#FF9BCD" id="MY" d="M127 262v1l-2-2 2 1ZM324 261l-1 1 1-1ZM330 262v1l1-2h-1v1ZM133 262l2 2-2-2Z"/><path fill="#C9C9C8" id="icp" d="M329 263h1v-1l-1 1Z"/><path fill="#FCB3D9" id="PARN" d="m169 264-2 1 2-2v1Z"/><path fill="#FF9BCD" id="MY" d="M173 264c0 3.088-2.58 6 3 6 0 2.191-4.559.382-5-.5-1.108-2.216 1.813-5.5-2-5.5v-1h1l3 1Z"/><path fill="#FCB3D7" id="LRNm" d="M197 276c0 3.952-7.139 6-10 6-8.192 0-4-11.332-4-16l1-1c2.73 0 6.298-2 10-2 11.215 0 3 10.326 3 13ZM259 276c0 2.908 6.772 6 10 6 9.237 0 4-10.896 4-16v-1c-3.186 0-6.865-2-11-2-8.822 0-3 9.886-3 13Z"/><path fill="#FF9BCD" id="MY" d="M287 264c-1.747 0-2 .253-2 2l-2-2 3-1 1 1ZM323 263c-1.747 0-2 .253-2 2l2-2ZM330 263l-1 1v-1h1ZM136 273c0 4.771 14 9.411 14 12-4.395 0-23-16.167-23-21 2.895 0 3.509 6 7 6l2 3Z"/><path fill="#FCB2D9" id="PGRNl" d="M187 282c0 13.907-10.463 4-16 4 0-2.499-3.711-9-6-9h-2v-5l1-2 1-1 1-2 1-1v-1l2-1c3.813 0 .892 3.284 2 5.5.441.882 5 2.691 5 .5l1-2c1.577 0 2-1.762 2-3h4v1c0 4.668-4.192 16 4 16Z"/><path fill="#FEB3D8" id="AMBv" d="m177 268-1 2c-5.58 0-3-2.912-3-6h2l1 1h1v3Z"/><path fill="#FF9BCD" id="MY" d="m175 264 1 1-1-1ZM282 264l-1 1 1-1Z"/><path fill="#FEB3D8" id="AMBv" d="M283 270h1l1-1v-3l-2-2h-1l-1 1h-1l-1 2c0 2.003-.293 3 2 3h2Z"/><path fill="#FCB2D9" id="PGRNl" d="M269 282c0 13.697 11.481 4 16 4 0-1.559 4.297-9 6-9h2v-5l-1-3-1-1-2-2v-1l-2-1c-1.747 0-2 .253-2 2v1c1.399 0 1.399 2 0 2l-1 1h-1c0 1.399-2 1.399-2 0-2.293 0-2-.997-2-3l-2-2h-3l-1 1c0 5.104 5.237 16-4 16Z"/><path fill="#FF9BCD" id="MY" d="M179 265c0 1.238-.423 3-2 3v-3h2ZM184 265l-1 1v-1h1ZM227 278h2c0-2.129-1.163-10 2-10l-1-2c-1.621 0-3 4.257-3-1l-2 3c3.778 0 2 8.045 2 10ZM274 265l-1 1v-1h1ZM280 265l-1 2-2-2h3ZM329 265c-1.747 0-2 .253-2 2l2-2Z"/><path fill="#FCB3D9" id="PARN" d="m167 266-1 1 1-1ZM289 266l2 2-2-2Z"/><path fill="#FF9BCD" id="MY" d="m320 266-1 1 1-1ZM138 267l3 2c-1.238 0-3-.423-3-2ZM285 267c1.399 0 1.399 2 0 2v-2ZM318 267l-1 1 1-1ZM321 273v1c1.988 0 6-5.237 6-7l-4 3-2 3Z"/><path fill="#FFB3D8" id="IO" fill-rule="evenodd" d="M201 293c0 1.93 1.93 0 0 0m1-1c0 1.93 1.93 0 0 0m-7-1c0 3.479 3.479 0 0 0m2-1c0 1.93 1.93 0 0 0m7-1c0 5.512.634 0 0 0m2-2c0 4.42 1.206 0 0 0m2-2c0 4.136 2.609 0 0 0m2-1c0 1.93 1.93 0 0 0m1-1c0 1.93 1.93 0 0 0m1-1c0 1.93 1.93 0 0 0m1-1c0 1.93 1.93 0 0 0m1-1c0 1.93 1.93 0 0 0m1-1c0 1.93 1.93 0 0 0m1-1c0 1.93 1.93 0 0 0m-11 16c-1.577 0-2 1.762-2 3-2.204 0-6.305 2.89-8-.5l-.5-3.5-4 2-5.5-.5c0-2.049 8.117-4.808 9.5-5.5l17-12c4.467-2.234 8.5 2.435 8.5-3l5-6c3.778 0 2 8.045 2 10l-1 5-1 2-8.5 4h-7l-1.5 2h-1c-1.577 0-2 1.762-2 3ZM245 283c0 .514 8.71 11 9.5 11 .116 0-6.548-11-9.5-11m-16-5 2 6 8.5 5c2.515 1.257 6.391-.305 9 1l8 8 4.5-.5c.892-1.783-1.619-6.44-1.5-6.5l6 4 5.5-.5-7-5c-2.001-2.001-21.13-14.5-23.5-14.5-3.881 0 3.445 8 3 8-2.024 0-7.5-8.53-7.5-10l-5-5c-3.163 0-2 7.871-2 10Z"/><path fill="#FF9BCD" id="MY" d="m317 268-1 1 1-1ZM162 280c-1.399 0-11-7.102-11-2l1 3-7-5 2.5-1c6.873-3.437-5.5-3.611-5.5-6h6c0 5.604 6.16 5 9 5 0 5.057 3.051 3 6 3h2l-3 3ZM165 269l-1 1v-1h1ZM285 269l-1 1 1-1ZM294 271l-1 1-1-3h1l1 2ZM314 269l-7 4 1-4h6Z"/><path fill="#C9C9C8" id="icp" d="M136 273h2l-4-3 2 3Z"/><path fill="#FF9BCD" id="MY" d="M163 271v1l1-2-1 1ZM281 270h2c0 1.399-2 1.399-2 0Z"/><path fill="#C9C9C8" id="icp" d="M319 273h2l2-3c-2.061 0-4 .902-4 3Z"/><path fill="#FCB3D7" id="LRNm" d="M157 274c0 5.057 3.051 3 6 3v-6l-6 3Z"/><path fill="#FF9BCD" id="MY" fill-rule="evenodd" d="M281 293c0 2.112 5.567 0 0 0m-42-3-4 2.5c0 3.686 15.692 8.904 18.5 7.5 1.682-.841-2.016-4.532-2.5-5.5-2.512-5.024-6.663-4.5-12-4.5m-31 1 5.5-1c19.668 0-10.5 16.513-10.5 7-2.204 0-6.305 2.89-8-.5l-.5-3.5-4 2-5.5-.5c0-2.049 8.117-4.808 9.5-5.5l17-12c4.467-2.234 8.5 2.435 8.5-3-2.747 0-3-.253-3-3l-10.5 6c-4.049 2.024-6.198-1-9.5-1 0 3.952-7.139 6-10 6 0 13.907-10.463 4-16 4 0 5.789-4.618 0-8 0v1c0 3.253 12 3.912 12 6.5 0 1.463-6.853-1.176-7.5-1.5-2.952-1.476-11.5-2.809-11.5-7h-1c0 2.56-3.334 0-4 0 0 1.823 13.474 6.987 15.5 8 6.666 3.333 37.813 12.093 46 8 4.563-2.281 9.487-3.743 14-6l2-3 5 5c6.149 3.075 12.474 4 20 4 8.65 0 20.634-1.317 28-5 1.401-.7 7.5-1.039 7.5-3-12.051 0 5-3.371 5-6l-1-1c-3.099 0-8 6.466-8 0-4.519 0-16 9.697-16-4-3.228 0-10-3.092-10-6-3.306 0-4.55 2.975-8.5 1-2.261-1.131-8.238-6-10.5-6 0 3.97-2.104 2-4 2 0 1.47 5.476 10 7.5 10 .445 0-6.881-8-3-8 2.37 0 21.499 12.499 23.5 14.5l7 5-5.5.5-6-4c-.119.06 2.392 4.717 1.5 6.5l-4.5.5-8-8c-2.609-1.305-6.485.257-9-1l-8.5-5c0 6.689-6 8.366-6 1l-8.5 4h-7l-1.5 2Z"/><path fill="#FCB3D7" id="LRNm" d="M297 278h1l1-1 1-3-6-3-1 1v5l4 1Z"/><path fill="#C9CACA" id="sctd" d="M151 285c.666 0 4 2.56 4 0l-3-4-7-5c-2.538 0-3.953-3-7-3h-2c0 4.771 14 9.411 14 12h1Z"/><path fill="#FF9BCD" id="MY" d="M299 277c3.512 0 6-2.208 6 3l6-4c-2.061 0-4-.902-4-3-2.69 0-4.598 1-7 1l-1 3Z"/><path fill="#C9CACA" id="sctd" d="m306 285-2 1c-1.048 0-3 .473-3-1l4-5 6-4c2.722 0 4.53-3 8-3h2v1l-3 3-1 1-2 1c-1.747 0-2 .253-2 2l-2 1-2 1c-1.238 0-3 .423-3 2Z"/><path fill="#FF9BCD" id="MY" d="m321 274-3 3c2.041 0 3-.959 3-3Z"/><path fill="#FEB0D9" id="LRNp" d="M163 286v1c-2.765 0-5.165-2-7-2h-1l-3-4-1-3c0-5.102 9.601 2 11 2 0 2.011 1 3.989 1 6ZM294 287h4l2-1 1-1 4-5c0-5.208-2.488-3-6-3l-1 1h-1l-2 2c0 1.031-2 3.289-2 6l1 1Z"/><path fill="#C8C8CB" id="rust" d="M163 286c3.382 0 8 5.789 8 0 0-2.499-3.711-9-6-9l-3 3c0 2.011 1 3.989 1 6ZM285 286c0 6.466 4.901 0 8 0 0-2.711 2-4.969 2-6l-4-3c-1.703 0-6 7.441-6 9Z"/><path fill="#FF9BCD" id="MY" d="m297 278-2 2-4-3h2l4 1ZM299 277l-1 1 1-1ZM318 277l-1 1 1-1ZM216 278c0 1.93 1.93 0 0 0Z"/><path fill="#FFC6E2" id="RPA" d="M231 284c0 6.689-6 8.366-6 1l1-2 1-5h2l2 6Z"/><path fill="#FF9BCD" id="MY" d="m317 278-2 1 2-1ZM215 279c0 1.93 1.93 0 0 0ZM315 279c-1.747 0-2 .253-2 2l2-2ZM214 280c0 1.93 1.93 0 0 0ZM213 281c0 1.93 1.93 0 0 0ZM313 281l-2 1 2-1ZM212 282c0 1.93 1.93 0 0 0ZM311 282l-2 1 2-1ZM211 283c0 1.93 1.93 0 0 0ZM226 283l-1 2 1-2ZM245 283c0 .514 8.71 11 9.5 11 .116 0-6.548-11-9.5-11ZM309 283c-1.238 0-3 .423-3 2 1.238 0 3-.423 3-2ZM210 284c0 1.93 1.93 0 0 0Z"/><path fill="#CBC7CC" id="sctv" d="M156 285c1.835 0 4.235 2 7 2 0 3.253 12 3.912 12 6.5 0 1.463-6.853-1.176-7.5-1.5-2.952-1.476-11.5-2.809-11.5-7Z"/><path fill="#FF9BCD" id="MY" d="M208 285c0 4.136 2.609 0 0 0ZM298 287c0 3.4-9 3.254-9 6 2.29 0 15-6.012 15-7-1.048 0-3 .473-3-1l-1 1-2 1ZM306 285l-2 1 2-1Z"/><path fill="#CBC7CC" id="sctv" d="m300 286-2 1 2-1Z"/><path fill="#FF9BCD" id="MY" d="M206 287c0 4.42 1.206 0 0 0Z"/><path fill="#CBC7CC" id="sctv" d="M298 287c0 3.4-9 3.254-9 6-12.051 0 5-3.371 5-6h4Z"/><path fill="#FF9BCD" id="MY" d="M204 289c0 5.512.634 0 0 0ZM197 290c0 1.93 1.93 0 0 0Z"/><path fill="#C7C9C9" id="py" d="M205 294c0 1.238-.423 3-2 3 0 9.513 30.168-7 10.5-7l-5.5 1h-1c0 1.238-.423 3-2 3ZM239 290l-4 2.5c0 3.686 15.692 8.904 18.5 7.5 1.682-.841-2.016-4.532-2.5-5.5-2.512-5.024-6.663-4.5-12-4.5Z"/><path fill="#FF9BCD" id="MY" d="M195 291c0 3.479 3.479 0 0 0ZM207 291c-1.577 0-2 1.762-2 3 1.577 0 2-1.762 2-3ZM202 292c0 1.93 1.93 0 0 0ZM201 293c0 1.93 1.93 0 0 0Z"/><path fill="#CBC7CC" id="sctv" d="M281 293c0 2.112 5.567 0 0 0Z"/><path fill="#FF9BCD" id="MY" d="M205 294c-1.577 0-2 1.762-2 3 1.577 0 2-1.762 2-3Z"/></svg>