<svg xmlns="http://www.w3.org/2000/svg" viewBox="0 0 456 320"><path fill="#1BA696" id="RSPagl1" d="M171 15h1c5.373 0 9.368-3 15-3l-1-5c-5.794 0-9.329 2-15 2v6Z"/><path fill="#1BA598" id="RSPd1" d="M217 19h1l2-2-8.5-8c-6.844-3.422-17.325-2-25.5-2l1 5c12.444 0 16.162-.67 27.5 5l2.5 2ZM237 17l2 2 9.5-6c6.49-3.245 14.714-1 21.5-1V7c-7.234 0-33-.54-33 10Z"/><path fill="#1BA696" id="RSPagl1" d="m270 12 15 3 1-6c-5.927 0-9.84-2-16-2v5Z"/><path fill="#0A8589" id="VISpm1" d="M143 21h1c6.75 0 18.963-6 27-6V9c-5.294 0-17.791 3.646-22.5 6-1.493.746-6.5-.729-6.5 2l1 4ZM315 17l-2 4c-9.105 0-18.552-6-28-6l1-6c6.082 0 16.142 3.321 21.5 6 1.644.822 7.5-1.038 7.5 2Z"/><path fill="#1BA697" id="RSPd2/3" d="M213 23h1l3-4-2.5-2c-11.338-5.67-15.056-5-27.5-5v7c10.564 0 10.198-4.151 22.5 2l3.5 2ZM243 23h1c0-7.723 22.602-4 26-4v-7c-6.786 0-15.01-2.245-21.5 1l-9.5 6v1l4 3Z"/><path fill="#1AA496" id="RSPagl2/3" d="M172 21c1.473 0 1 1.952 1 3l14-5v-7c-5.632 0-9.627 3-15 3v6ZM284 21v3l-14-5v-7l15 3-1 6Z"/><path fill="#08858B" id="VISpm2/3" d="M146 31h1c0-1.59 4.386-1.443 5.5-2 2.871-1.436 17.175-8 19.5-8v-6h-1c-8.037 0-20.25 6-27 6l2 10ZM313 22c0 2.467-3 6.233-3 9l-26-10 1-6c9.448 0 18.895 6 28 6v1Z"/><path fill="#098589" id="VISp1" d="m94 37 2 4 27.5-13c4.331-2.166 9.622-2.811 14-5 1.114-.557 5.5-.41 5.5-2l-1-4c-9.206 0-26.34 7.92-34.5 12L94 37Z"/><path fill="#1AA596" id="RSPd5" d="M185 30c.875 0 18-6.057 18 1 4.025 0 7.212-8 10-8l-3.5-2c-12.302-6.151-11.936-2-22.5-2l-2 11Z"/><path fill="#1BA597" id="RSPv1" d="M191 83c3.108 0 4.973-.737 7.5-2 8.29-4.145 15.715 4.07 22.5-9.5 2.621-5.241 3.308-11.616 6-17 .429-.857-.075-5.5 1.5-5.5l.5 4.5c3.382 6.764 4.658 14.316 8 21 2.813 5.627 22.258 8.5 28 8.5 1.577 0 2-1.762 2-3-3.003 0-5.953-1.727-8.5-3-4.167-2.084-9.777-1.889-14-4-9.939-4.97-8.496-20.492-12.5-28.5-2.267-4.534 3.281-24.5 7-24.5v-1l-2-2c-1.76 0-6.162 7.825-7 9.5l-1.5 4.5c-1.816 0-1.117-2.734-1.5-3.5L220 17l-2 2 6 12.5c3.765 7.529-4.08 30.16-7 36-3.909 7.817-14.313 7.406-20.5 10.5-1.428.714-6.5.622-6.5 3l1 2Z"/><path fill="#1AA596" id="RSPd5" d="M272 30c-3.046 0-7.485-4.508-10.5-3-1.506.753-7.18 4-8.5 4-3.544 0-7.607-8-9-8 0-7.723 22.602-4 26-4 0 3.776 2 7.58 2 11Z"/><path fill="#098589" id="VISp1" d="M360 41h1l1-4c-.288 0-9.674-6.087-11.5-7-8.675-4.337-25.714-13-35.5-13l-2 4v1c6.202 0 26.649 8.075 32.5 11 4.01 2.005 9.984 8 14.5 8Z"/><path fill="#1CA697" id="RSPagl5" d="M184 31c-3.915 0-5.954 4-10 4l-1-11 14-5-2 11-1 1Z"/><path fill="#1AA597" id="RSPv2/3" d="m188 80 2 1c0-2.378 5.072-2.286 6.5-3 6.187-3.094 16.591-2.683 20.5-10.5 2.92-5.84 10.765-28.471 7-36L218 19h-1l-3 4 5 9.5c1.963 3.925-.459 13.917-2 17-2.706 5.412-1.705 16.102-8.5 19.5-5.076 2.538-11.055 3.528-16 6-2.177 1.089-2.822 3-5.5 3l1 2Z"/><path fill="#1CA697" id="RSPagl5" d="m272 31 10 4c0-.965 1.299-10 2-10v-1l-14-5c0 3.776 2 7.58 2 11v1Z"/><path fill="#1AA597" id="RSPv2/3" d="M267 80h1l1-1v-1l-5.5-3c-10.65-5.325-16.155-3.81-22.5-16.5-1.588-3.176-.451-7.901-2-11-.87-1.74-2.876-10.248-2-12l3-9 3-3.5-4-3c-3.719 0-9.267 19.966-7 24.5 4.004 8.008 2.561 23.53 12.5 28.5 4.223 2.111 9.833 1.916 14 4 2.547 1.273 5.497 3 8.5 3Z"/><path fill="#0A828C" id="VISp2/3" d="m96 42 4 6c3.472 0 7.473-3.487 10.5-5 7.644-3.822 27.063-12 35.5-12l-2-10h-1c0 1.59-4.386 1.443-5.5 2-4.378 2.189-9.669 2.834-14 5L96 41v1Z"/><path fill="#09828B" id="VISpm4" d="M147 35h1l25-11c0-1.048.473-3-1-3-2.325 0-16.629 6.564-19.5 8-1.114.557-5.5.41-5.5 2v4ZM310 31l-1 4c-7.201 0-16.953-10-25-10v-4l26 10Z"/><path fill="#0A828C" id="VISp2/3" d="M356 48h1l3-7c-4.516 0-10.49-5.995-14.5-8-5.851-2.925-26.298-11-32.5-11 0 2.467-3 6.233-3 9 6.904 0 30.028 8.764 36.5 12 2.814 1.407 6.261 5 9.5 5Z"/><path fill="#1BA498" id="RSPv5" d="m183 73 4 5c2.678 0 3.323-1.911 5.5-3 4.945-2.472 10.924-3.462 16-6 6.795-3.398 5.794-14.088 8.5-19.5 1.541-3.083 3.963-13.075 2-17l-5-9.5h-1c-2.788 0-5.975 8-10 8v1c2.218 0 .674 12.152 0 13.5-3.889 7.778-7.331 27.5-20 27.5ZM271 76l-2 2-5.5-3c-10.65-5.325-16.155-3.81-22.5-16.5-1.588-3.176-.451-7.901-2-11-.87-1.74-2.876-10.248-2-12l3-9 3-3.5h1c1.393 0 5.456 8 9 8v1c0 2.014-2.284 5.932-1 8.5 4.251 8.503 8.027 32.5 21 32.5l-1 2-1 1Z"/><path fill="#088489" id="VISpm5" d="M174 36c-7.765 0-14.767 7-23 7l-3-8 25-11 1 11v1ZM305 43h1c0-3.415 3-5.548 3-8-7.201 0-16.953-10-25-10-.701 0-2 9.035-2 10v1c7.684 0 14.887 7 23 7Z"/><path fill="#1AA697" id="RSPd6a" d="M183 39c2.833 0 4.84 2 7 2 4.965 0 8.657-9 13-9v-1c0-7.057-17.125-1-18-1l-1 1-1 8ZM273 39c-2.833 0-4.84 2-7 2-5.108 0-7.999-9-13-9v-1c1.32 0 6.994-3.247 8.5-4 3.015-1.508 7.454 3 10.5 3v1l1 8Z"/><path fill="#0B848B" id="VISp4" d="M102 53h1c0-1.984 7.92-3.21 9.5-4 4.927-2.464 30.456-14 34.5-14v-4h-1c-8.437 0-27.856 8.178-35.5 12-3.027 1.513-7.028 5-10.5 5v1l2 4Z"/><path fill="#1CA597" id="RSPagl6a" d="m183 39-7 2c-.672 0-2-4.33-2-5v-1c4.046 0 6.085-4 10-4l-1 8ZM280 41h1l1-5v-1l-10-4 1 8 7 2Z"/><path fill="#0B848B" id="VISp4" d="M353 53h1l2-5c-3.239 0-6.686-3.593-9.5-5-6.472-3.236-29.596-12-36.5-12l-1 4c6.131 0 28.183 10.841 34.5 14 1.568.784 9.5 1.924 9.5 4Z"/><path fill="#1AA498" id="RSPv6a" d="M183 71v2c12.669 0 16.111-19.722 20-27.5.674-1.348 2.218-13.5 0-13.5-4.343 0-8.035 9-13 9v1c2.001 0 1.32 9-1 9-1.869 0-3 7.33-3 9l-3 11ZM273 71v2c-12.973 0-16.749-23.997-21-32.5-1.284-2.568 1-6.486 1-8.5 5.001 0 7.892 9 13 9v1c-1.657 0-1.894 8 1 8 2.917 0 1.452 9 4 9 0 4.527 2 7.754 2 12Z"/><path fill="#088389" id="VISp5" d="m103 53 4 8c8.7 0 29.77-17 44-17v-1l-3-8h-1c-4.044 0-29.573 11.536-34.5 14-1.58.79-9.5 2.016-9.5 4ZM353 53l-4 8-24.5-12c-3.676-1.838-8.218-2.11-12-4-1.493-.746-6.5.729-6.5-2 0-3.415 3-5.548 3-8 6.131 0 28.183 10.841 34.5 14 1.568.784 9.5 1.924 9.5 4Z"/><path fill="#09858B" id="VISpm6a" d="M153 50h1l5-1c0-.236 10.836-4 12-4 0-2.109 2.535-2 4-2l1-1v-1c-.672 0-2-4.33-2-5-7.765 0-14.767 7-23 7v1l2 6ZM303 50h1l1-7c-8.113 0-15.316-7-23-7l-1 5c0 3.422 18.718 9 22 9Z"/><path fill="#029FAB" id="VISrl1" d="M83 49h2c0-2.151 8.996-7 11-7v-1l-2-4-13 9c1.577 0 2 1.762 2 3ZM372 49h1c0-1.238.423-3 2-3 0-1.862-10.426-9-13-9l-1 4c0 1.148 9.747 8 11 8Z"/><path fill="#1AA598" id="RSPagl6b" d="M176 42h1l6-1v-2l-7 2v1Z"/><path fill="#1BA698" id="RSPd6b" d="M189 42h1v-1c-2.16 0-4.167-2-7-2v2c1.321 0 6-.684 6 1ZM266 42h1c1.564 0 3.876-1 6-1v-2c-2.833 0-4.84 2-7 2v1Z"/><path fill="#1AA598" id="RSPagl6b" d="M280 41v2c-1.835 0-4.235-2-7-2v-2l7 2Z"/><path fill="#CACCC7" id="cing" d="M189 51c-1.869 0-3 7.33-3 9-2.328 0-2.969-11.234-6.5-13-3.307-1.654-11.471 4-15.5 4l-3-2c2.507 0 10-.667 10-4 1.465 0 4 .109 4-2l2-1 6-1c1.321 0 6-.684 6 1v9ZM293 51c-4.643 0-12.431-6.035-16.5-4-3.25 1.625-3.578 12-5.5 12-2.548 0-1.083-9-4-9v-8c1.564 0 3.876-1 6-1 2.765 0 5.165 2 7 2 4.983 0 9.082 6 15 6l-2 2Z"/><path fill="#088589" id="VISpm6b" d="M303 50v1c-3.303 0-5.115-2-8-2-5.918 0-10.017-6-15-6v-2h1c0 3.422 18.718 9 22 9Z"/><path fill="#029EAC" id="VISrl2/3" d="M367 55h1l4-6c-1.253 0-11-6.852-11-8h-1l-3 7 10 7ZM89 55h1c0-1.727 8.413-6 10-6v-1l-4-6c-2.004 0-11 4.849-11 7 0 1.334 2.972 6 4 6Z"/><path fill="#088589" id="VISpm6b" d="m177 42-2 1 1-1h1Z"/><path fill="#1AA497" id="RSPv6b" d="M190 42c2.001 0 1.32 9-1 9v-9h1ZM267 42v8c-2.894 0-2.657-8-1-8h1Z"/><path fill="#088589" id="VISpm6b" d="M175 43c-1.465 0-4-.109-4 2 1.465 0 4 .109 4-2Z"/><path fill="#08858C" id="VISp6a" d="M346 67h1c0-2.72 2-3.553 2-6l-24.5-12c-3.676-1.838-8.218-2.11-12-4-1.493-.746-6.5.729-6.5-2h-1l-1 7c7.948 0 25.244 8.372 32.5 12 1.659.83 9.5 2.926 9.5 5ZM110 67h1c0-2.842 13.379-8 16-8 0-1.722 5.235-2.368 6.5-3 4.99-2.495 13.793-6 19.5-6l-2-6c-14.23 0-35.3 17-44 17l3 6Z"/><path fill="#088589" id="VISpm6b" d="M159 49h2c2.507 0 10-.667 10-4-1.164 0-12 3.764-12 4Z"/><path fill="#0B838B" id="VISal1" d="m59 66 3 2 21-19c0-1.238-.423-3-2-3-1.646 0-22 18.238-22 20ZM397 66l-2 2-22-19c0-1.238.423-3 2-3 1.564 0 22 17.65 22 20Z"/><path fill="#C8C9CA" id="fp" d="M62 143h1c0-1.041.986-5 2-5v-1l1-2c0-1.048-.473-3 1-3 0-1.424.362-5 2-5l1-2 1-2 1-2 1-1v-1l1-2 1-2 1-2 1-1v-1l1-1 1-1v-1l1-1 1-2 1-1 1-1v-1l1-1 1-1v-1l1-1 1-1 1-1 1-1 1-1 1-2 1-1 1-1h1l1-1 1-1 1-1 1-1 1-1h1l1-1 1-1 1-1 1-1 2-1 1-1 1-1 1-1h1l1-1 2-1 2-1 1-1h1l2-1 1-1h1c0-1.577 1.762-2 3-2h1c0-1.577 1.762-2 3-2h1l2-1c0-1.473 1.952-1 3-1 0-1.638 3.576-2 5-2h2c0-2.109 2.535-2 4-2 0-2.633 12.126-4 14.5-4 10.826 0 22.5 2.057 22.5 14h1l3-11c-2.328 0-2.969-11.234-6.5-13-3.307-1.654-11.471 4-15.5 4-3.446 0-6.77 2-11 2 0 2.524-5.962 2.23-7.5 3-9.162 4.581-19.804 6.402-29 11-14.645 7.323-32.186 21.872-39.5 36.5-3.058 6.116-4.978 12.957-8 19-2.965 5.93-7 13.502-7 20.5ZM393 143h2c0-6.307-5.222-15.945-8-21.5-3.027-6.053-4.944-12.889-8-19-5.815-11.63-22.972-26.736-34.5-32.5-9.797-4.898-20.299-8.15-30-13-1.848-.924-11.5-1.354-11.5-4-3.77 0-7.021-2-10-2-4.643 0-12.431-6.035-16.5-4-3.25 1.625-3.578 12-5.5 12 0 4.527 2 7.754 2 12h2v-6.5c3.397-6.795 20.034-9.733 26.5-6.5 2.532 1.266 9.5-.753 9.5 3 1.424 0 5 .362 5 2h1c1.942 0 10 1.937 10 4h1c1.902 0 11 3.832 11 6h1l3 2h1l2 2h1l2 2h1l2 2 1 1 1 1h1l3 3 2 1 9 9v1l4 4v1l2 2v1l2 2v1c1.428 0 4 4.822 4 6v1l2 3v1c1.996 0 8 14.528 8 17v1c1.995 0 2 4.377 2 6Z"/><path fill="#019EAA" id="VISrl4" d="M363 59h1c0-2.35 3-1.383 3-4l-10-7h-1l-2 5c1.654 0 9 4.228 9 6Z"/><path fill="#098389" id="VISal2/3" d="M67 75h1c0-5.648 21-18.051 21-20-1.028 0-4-4.666-4-6h-2L62 68v1l5 6Z"/><path fill="#019EAA" id="VISrl4" d="M92 59h1c0-1.703 7.441-6 9-6l-2-4c-1.587 0-10 4.273-10 6l2 4Z"/><path fill="#088589" id="VISpm6b" d="M154 50v1c1.424 0 5-.362 5-2l-5 1Z"/><path fill="#C9C9CA" id="scwm" d="M164 51c-3.446 0-6.77 2-11 2v-2h1c1.424 0 5-.362 5-2h2l3 2ZM305 52l-2 1c-3.77 0-7.021-2-10-2l2-2c2.885 0 4.697 2 8 2l2 1Z"/><path fill="#098389" id="VISal2/3" d="m395 69-6 5-21-19 4-6h1l22 19v1Z"/><path fill="#08858A" id="VISp6b" d="M153 51h1v-1h-1c-5.707 0-14.51 3.505-19.5 6-1.265.632-6.5 1.278-6.5 3 7.128 0 19.937-8 26-8ZM345 67h1c0-2.074-7.841-4.17-9.5-5-7.256-3.628-24.552-12-32.5-12h-1v1l2 1c8.261 0 25.136 7.318 32.5 11 2.387 1.194 4.693 4 7.5 4Z"/><path fill="#CBC9C7" id="or" d="M61 149c-2.9 0 1.127 11-2.5 11l-1.5-5.5V147c2.109 0 2-2.535 2-4v-2c1.473 0 1-1.952 1-3l1-2v-4l1-2 1-2v-2l1-1 1-2v-1l1-2 1-2v-1l1-1v-1l1-1v-1l1-1 1-1c.813 0 2.728-3 1-3l3-6v-1c1.617 0 4-4.583 4-6l5-5c1.077 0 3-3.762 3-5 1.747 0 2-.253 2-2l2-1 1-1 11-8c1.854 0 8-4.45 8-6l12.5-6c1.158-.58 3.5.341 3.5-2 7.128 0 19.937-8 26-8v2c0 2.524-5.962 2.23-7.5 3-9.162 4.581-19.804 6.402-29 11-14.645 7.323-32.186 21.872-39.5 36.5-3.058 6.116-4.978 12.957-8 19-2.965 5.93-7 13.502-7 20.5-1.684 0-1 4.679-1 6ZM399 149v10l-1.5 2-2.5-18c0-6.307-5.222-15.945-8-21.5-3.027-6.053-4.944-12.889-8-19-5.815-11.63-22.972-26.736-34.5-32.5-9.797-4.898-20.299-8.15-30-13-1.848-.924-11.5-1.354-11.5-4l2-1c8.261 0 25.136 7.318 32.5 11 2.387 1.194 4.693 4 7.5 4 0 1.884 6.4 5 8 5l12 10 1 1 7 7c0 3.959 8 7.584 8 12l4 6c-2.4 0 1.669 6 3 6v1l1 1v1l2 4v1c0 1.238.423 3 2 3v2l2 4v4l1 1v1l1 2v4l2 4v2Z"/><path fill="#019DAB" id="VISrl5" d="m107 61-9 5c-1.02 0-5-5.575-5-7 0-1.703 7.441-6 9-6h1l4 8ZM349 61l9 5c1.92 0 5-5.188 5-7 0-1.772-7.346-6-9-6h-1l-4 8Z"/><path fill="#088588" id="VISal4" d="M69 77h2c0-1.438 19.255-18 21-18l-2-4h-1c0 1.949-21 14.352-21 20l1 2ZM386 77h1l2-2v-1l-21-19h-1c0 2.617-3 1.65-3 4 2.186 0 18.043 13.585 19 15.5l3 2.5Z"/><path fill="#C9CCC9" id="dhc" d="m181 72-2 1-4-1c0-.879-12.94-9-15-9h-1c0-1.681-12-3.313-12-1h-2v-1c0-2.633 12.126-4 14.5-4 10.826 0 22.5 2.057 22.5 14l-1 1ZM281 72l-4 1-2-2v-6.5c3.397-6.795 20.034-9.733 26.5-6.5 2.532 1.266 9.5-.753 9.5 3v1h-2c0-1.613-8-1.613-8 0-1.145 0-4-.58-4 1h-1c-1.238 0-3 .423-3 2h-1l-1 1-2 1c-1.429 0-4 1.288-4 3l-2 1-2 1Z"/><path fill="#08848B" id="VISal5" d="M78 85h1c0-2.693 16.666-18 19-18v-1c-1.02 0-5-5.575-5-7h-1c-1.745 0-21 16.562-21 18 0 3.635 7 4.173 7 8Z"/><path fill="#08858A" id="VISp6b" d="M127 59c-2.621 0-16 5.158-16 8l12.5-6c1.158-.58 3.5.341 3.5-2Z"/><path fill="#08848B" id="VISal5" d="M378 85h1c0-3.635 7-4.173 7-8l-3-2.5c-.957-1.915-16.814-15.5-19-15.5h-1c0 1.813-3.08 7-5 7v1c2.052 0 20 15.2 20 18Z"/><path fill="#029EAB" id="VISrl6a" d="M102 71h1l7-4-3-6-9 5v1l4 4Z"/><path fill="#C7C8CC" id="alv" d="M145 62c0 1.58-2.855 1-4 1 0-2.109 2.535-2 4-2v1ZM154 62l5 1c0-1.681-12-3.313-12-1h7ZM302 62h7c0-1.613-8-1.613-8 0h1ZM311 62c0 1.643 3.765 1 5 1 0-1.638-3.576-2-5-2v1Z"/><path fill="#029EAB" id="VISrl6a" d="m358 67-4 4c-1.243 0-7-3.006-7-4 0-2.72 2-3.553 2-6l9 5v1Z"/><path fill="#7ECF4B" id="CA1" d="M129 242h2c3.483 0 9-.426 9-5 0-1.762-12.663-11.163-15-13.5-12.342-12.342-28.295-24.591-36-40-5.311-10.623-6.52-29.959-1-41 .832-1.665 3.685-8.5 6-8.5 0-21.02 41.1-48 60-48V62h-9c0 1.58-2.855 1-4 1h-2c0 1.638-3.576 2-5 2 0 1.473-1.952 1-3 1l-2 1h-1c0 1.577-1.762 2-3 2h-1c0 1.577-1.762 2-3 2h-1l-1 1-2 1h-1l-1 1-2 1-2 1-1 1h-1l-1 1-1 1-1 1-2 1-1 1-1 1-1 1-1 1h-1l-1 1-1 1-1 1-1 1-1 1h-1l-1 1-1 1-1 2-1 1-1 1-1 1-1 1-1 1v1l-1 1-1 1v1l-1 1-1 1-1 2-1 1v1l-1 1-1 1v1l-1 1-1 2-1 2-1 2v1l-1 1-1 2-1 2-1 2c0 1.424-.362 5-2 5 0 1.048.473 3-1 3l-1 2v1c0 1.593-.337 7-2 7v1c0 1.913-.612 13-2 13v1c0 18.951 12.59 54.545 29.5 63l30 15c1.533.767 8.5 1.971 8.5 4Z"/><path fill="#57B947" id="ProS" d="m154 86 9 1c0-6.903 1-14.772 1-21l-4-3h-1l-5-1v24Z"/><path fill="#C7C8CC" id="alv" d="M297 63h4v-1c-1.145 0-4-.58-4 1Z"/><path fill="#57B947" id="ProS" d="m302 62-1 1v-1h1Z"/><path fill="#7ECF4B" id="CA1" d="M325 242h2l2-1c0-1.638 3.576-2 5-2 0-1.638 3.576-2 5-2 0-1.638 3.576-2 5-2 0-1.638 3.576-2 5-2 0-2.109 2.535-2 4-2 0-2.218 5.144-4 7-4 0-1.577 1.762-2 3-2l9.5-8 8.5-10c0-2.172 10.231-20.963 12-24.5 5.115-10.23 0-26.992 0-37.5v-2c-1.353 0-2-4.643-2-6v-1c-1.845 0-1.441-3.381-2-4.5l-6-12.5v-1c-1.577 0-2-1.762-2-3v-1c-1.428 0-4-4.822-4-6v-1l-2-2v-1l-2-2v-1l-4-4v-1l-9-9-2-1-3-3h-1l-1-1-1-1-2-2h-1l-2-2h-1l-2-2h-1c-1.238 0-3-.423-3-2h-1l-11-6h-1c-1.368 0-10-2.74-10-4h-1c-1.235 0-5 .643-5-1h-9l-1 1c0 7.23 2 15.921 2 23 19.075 0 60 28.84 60 49 7.373 0 9 22.207 9 28 0 18.396-11.513 33.013-24.5 46-2.884 2.884-10.59 12-14.5 12 0 2.38-10.614 12-14 12l-3 4c0 4.022 5.671 5 9 5Z"/><path fill="#C7C8CC" id="alv" d="M139 63c-1.424 0-5 .362-5 2 1.424 0 5-.362 5-2ZM164 66c3.936 0 6.717 6 11 6 0-.879-12.94-9-15-9l4 3ZM296 63c-1.238 0-3 .423-3 2 1.238 0 3-.423 3-2Z"/><path fill="#57B947" id="ProS" d="m303 86-9 1-1-22c1.238 0 3-.423 3-2h5c0 7.23 2 15.921 2 23Z"/><path fill="#C7C8CC" id="alv" d="M317 63c1.942 0 10 1.937 10 4-1.368 0-10-2.74-10-4ZM134 65c-1.048 0-3-.473-3 1 1.048 0 3 .473 3-1ZM292 65l-1 1 1-1Z"/><path fill="#4FC244" id="SUB" d="M285 90h4l5-3-1-22h-1l-1 1-2 1c0 1.712-2.571 3-4 3l-2 1-2 1-4 1-5 2-1 1-2 2v1l-1 1v5c5.314 0 10.805 5 17 5Z"/><path fill="#039299" id="AUDpo1" d="m45 81 4 3 13-15v-1l-3-2c-1.095 0-14 14.211-14 15Z"/><path fill="#C7C8CC" id="alv" d="m131 66-2 1 2-1Z"/><path fill="#4FC244" id="SUB" d="M167 90h4c5.168 0 9.195-3 14-3l1-1h1l1-1v-5l-1-2-8-5-4-1c-4.283 0-7.064-6-11-6 0 6.228-1 14.097-1 21l4 3Z"/><path fill="#C7C8CC" id="alv" d="m291 66-2 1 2-1Z"/><path fill="#039299" id="AUDpo1" d="M407 85h1l3-4c0-.727-12.09-15-14-15l-2 2v1l3 3.5c2.309 2.309 9 9.205 9 12.5Z"/><path fill="#09828C" id="VISal6a" d="M83 89h1c0-2.06.902-4 3-4 0-1.747.253-2 2-2 0-1.747.253-2 2-2l11-10-4-4c-2.334 0-19 15.307-19 18l4 4Z"/><path fill="#009DAA" id="VISrl6b" d="M103 71v2c1.854 0 8-4.45 8-6h-1l-7 4Z"/><path fill="#C7C8CC" id="alv" d="M128 67c-1.238 0-3 .423-3 2 1.238 0 3-.423 3-2ZM289 67c-1.429 0-4 1.288-4 3 1.429 0 4-1.288 4-3ZM328 67c1.902 0 11 3.832 11 6l-11-6Z"/><path fill="#009DAA" id="VISrl6b" d="M353 72h1v-1c-1.243 0-7-3.006-7-4h-2c0 1.884 6.4 5 8 5Z"/><path fill="#09828C" id="VISal6a" d="M373 89h1l4-4c0-2.8-17.948-18-20-18l-4 4v1c2.551 0 19 14.222 19 17Z"/><path fill="#029199" id="AUDpo2/3" d="M55 89h1c0-6.623 11-8.149 11-14l-5-6-13 15v1l6 4Z"/><path fill="#C7C8CC" id="alv" d="M124 69c-1.238 0-3 .423-3 2 1.238 0 3-.423 3-2Z"/><path fill="#029199" id="AUDpo2/3" d="m407 85-6 4c0-5.002-12-8.845-12-14v-1l6-5 3 3.5c2.309 2.309 9 9.205 9 12.5Z"/><path fill="#C7C8CC" id="alv" d="m285 70-2 1 2-1Z"/><path fill="#0B848C" id="VISal6b" d="M91 81h1l11-8v-2h-1L91 81Z"/><path fill="#C7C8CC" id="alv" d="m120 71-1 1 1-1Z"/><path fill="#C8C9CA" id="fp" d="m182 71-1 1 1-1Z"/><path fill="#7DCD4B" id="HPF" d="m183 73 4 5-8-5 2-1 1-1h1v2ZM277 73l-5 2 1-2v-2h2l2 2Z"/><path fill="#C7C8CC" id="alv" d="m283 71-2 1 2-1ZM119 72l-2 1 2-1Z"/><path fill="#0B848C" id="VISal6b" d="M373 89v1l-7-7-1-1-12-10h1c2.551 0 19 14.222 19 17Z"/><path fill="#C7C8CC" id="alv" d="m116 73-1 1 1-1ZM340 73l3 2c-1.238 0-3-.423-3-2ZM115 74l-2 1 2-1Z"/><path fill="#039298" id="AUDpo4" d="M56 89c0 1.577 1.762 2 3 2 0-5.072 10-9.651 10-14l-1-2h-1c0 5.851-11 7.377-11 14Z"/><path fill="#C7C8CC" id="alv" d="m113 75-2 1 2-1Z"/><path fill="#7DCD4B" id="HPF" d="m272 75-1 1 1-1Z"/><path fill="#C7C8CC" id="alv" d="m344 75 2 2-2-2Z"/><path fill="#039298" id="AUDpo4" d="m401 90-3 1c-2.831 0-6.137-8.637-8-10.5l-3-3.5 2-2c0 5.155 12 8.998 12 14v1Z"/><path fill="#C7C8CC" id="alv" d="m111 76-1 1 1-1Z"/><path fill="#019197" id="AUDpo5" d="M59 92c3.448 0 6.349 6 10 6 0-1.621 7.671-13 9-13 0-3.827-7-4.365-7-8h-2c0 4.349-10 8.928-10 14v1Z"/><path fill="#C7C8CC" id="alv" d="m109 77-1 1 1-1ZM347 77l2 2-2-2Z"/><path fill="#019197" id="AUDpo5" d="m398 92-10 6c-1.037 0-9-11.415-9-13 0-3.635 7-4.173 7-8h1l3 3.5c1.863 1.863 5.169 10.5 8 10.5v1Z"/><path fill="#C7C8CC" id="alv" d="m108 78-1 1 1-1ZM107 79l-1 1 1-1Z"/><path fill="#7DCD4B" id="HPF" d="m269 79-1 1 1-1Z"/><path fill="#C7C8CC" id="alv" d="m350 79 2 2-2-2Z"/><path fill="#7DCD4B" id="HPF" d="M191 83c0 1.577-1.762 2-3 2v-5l2 1 1 2ZM265 83c0 1.577 1.762 2 3 2v-5h-1c0 1.238-.423 3-2 3Z"/><path fill="#029297" id="AUDp1" d="m25 123 4 1c0-6.463 8.002-20.505 11-26.5L49 85v-1l-4-3-6 8.5c-5.485 10.969-14 20.301-14 33.5Z"/><path fill="#0B848C" id="VISal6b" d="m91 82-2 1c0-1.747.253-2 2-2v1Z"/><path fill="#C9C9CA" id="scwm" d="m92 81-1 1v-1h1Z"/><path fill="#C7C8CC" id="alv" d="m104 81-1 1 1-1Z"/><path fill="#FF64FF" id="MB" d="M255 139c3.978 0 8.611 4 12 4 0-6.116-2.755-13.99 0-19.5 1.234-2.468 8-9.985 8-11.5-4.065 0-30-10.954-30-14-8.608 0-10.067-10 0-10h6c3.701 0 11.448-3.026 15.5-1l5.5 2c0-2.816-25.993-9.254-30.5-7-5.868 2.934-6.9 8.9-11 13-1.269 1.27-.205 5-2 5-2.23 0-1.029-3.558-1.5-4.5-1.111-2.223-6.469-10.984-9.5-12.5-11.092-5.546-20.955 4-31.5 4l-2 2c2.613 0 4.36-.93 6.5-2 4.052-2.026 11.799 1 15.5 1 1.777 0 5-2.985 5 1 9.378 0 8.866 7.317 3.5 10l-3.5-1-.5 3-28.5 11 7 10.5c2.936 5.871 0 14.573 0 20.5 3.985 0 8.355-4 13-4 0-2.099-3.558-4.383-2-7.5 4.146-8.292 9.095-15.095 16-22 2.34-2.34 6.29-9.605 10.5-7.5 3.989 1.995.5 13.036.5 16l3 1c0-3.928-3.129-12.241-1-16.5 1.735-3.47 9.517 4.035 10 5l8 9c2.931 5.862 7.11 11.22 10 17l-2 5.5Z"/><path fill="#029297" id="AUDp1" d="m432 123-5 1c0-9.712-7.855-20.21-12-28.5-1.661-3.323-7-6.648-7-10.5l3-4c3.108 0 2.75 5.125 4.5 6 5.527 2.763 16.5 29.036 16.5 36Z"/><path fill="#C7C8CC" id="alv" d="m103 82-1 1 1-1ZM353 82l1 1-1-1Z"/><path fill="#C9C9CA" id="scwm" d="m365 82 1 1-1-1Z"/><path fill="#0B848C" id="VISal6b" d="M89 83c-1.747 0-2 .253-2 2 1.747 0 2-.253 2-2Z"/><path fill="#C7C8CC" id="alv" d="m355 83 3 3-3-3ZM101 84l-1 1 1-1Z"/><path fill="#019298" id="AUDp2/3" d="M29 125c2.124 0 4.436 1 6 1 0-8.595 11.094-22.688 15-30.5l5-6.5-6-4-9 12.5c-2.998 5.995-11 20.037-11 26.5v1Z"/><path fill="#029399" id="AUDpo6a" d="M74 101h1c0-2.244 1.725-6 4-6 0-2.773 4-3.67 4-6l-4-4h-1c-1.329 0-9 11.379-9 13v1l5 2Z"/><path fill="#0B848C" id="VISal6b" d="M84 89v1c1.077 0 3-3.762 3-5-2.098 0-3 1.94-3 4Z"/><path fill="#C7C8CC" id="alv" d="m99 85-1 1 1-1Z"/><path fill="#7DCD4B" id="HPF" d="m188 85-1 1 1-1Z"/><path fill="#029399" id="AUDpo6a" d="M382 101h1l5-2v-1c-1.037 0-9-11.415-9-13h-1l-4 4 8 12Z"/><path fill="#019298" id="AUDp2/3" d="M427 125c-2.124 0-4.436 1-6 1 0-10.508-9.553-19.605-14-28.5-.829-1.657-3.415-7.5-6-7.5v-1l6-4h1c0 3.852 5.339 7.177 7 10.5 4.145 8.29 12 18.788 12 28.5v1Z"/><path fill="#C7C8CC" id="alv" d="m98 86-1 1 1-1Z"/><path fill="#7BD04A" id="DG-mo" d="M122 138v2c4.567 0 4.474-9 9-9 0-1.562 2.189-5 4-5l1-1 1-1 1-1 1-1 1-1 1-1 1-1h1l1-1 1-1 1-1 1-1h1l1-1 1-1h1c0-1.747.253-2 2-2l1-1 1-1 1-1 1-1 2-1 1-1 1-1c0-4.435 8-7.683 8-13l-2-1-4-3-9-1c-18.9 0-60 26.98-60 48l1 3c2.66 0 11-4.59 11-8 0-14.213 27.369-27.434 38.5-33 2.714-1.357 11.747-6.626 15-5 7.343 3.672-16.906 18.453-20 20-3.987 1.993-11.273 17-14.5 17 0 2.885-2 4.697-2 8l-1 1v1Z"/><path fill="#7DCD4B" id="HPF" d="M185 87h1v-1l-1 1Z"/><path fill="#7BD04A" id="DG-mo" d="M334 137v3c-3.716 0-10.261-15-13-15l-4-4h-1l-2-2-2-2-2-1c0-1.577-1.762-2-3-2l-1-1-2-2h-1c0-4.21-16-12.69-16-19l2-2 5-3 9-1c19.075 0 60 28.84 60 49l-1 2c-3.981 0-11-4.199-11-8 0-12.689-25.279-25.89-35.5-31-5.001-2.5-10.035-4.517-15-7-1.909-.954-6.719 1.061-5.5 3.5 2.994 5.988 17.573 10.146 20 15 2.643 5.286 9.26 9.519 12 15l4 3.5c0 2.16 2 4.167 2 7l1 1v1Z"/><path fill="#C7C8CC" id="alv" d="m97 87-1 1 1-1Z"/><path fill="#FF8FFC" id="NOT" d="m165 111-1 1c-1.473 0-1-1.952-1-3v-2l2-4c0-6.217 14.067-14 19-14 2.613 0 4.36-.93 6.5-2 4.052-2.026 11.799 1 15.5 1 0 3.902-7.402 3.95-9.5 5-3.227 1.614-23.5 10.691-23.5 14l-1 1-1 1-6 2Z"/><path fill="#FC8FFE" id="PPT" d="M173 108c3.638 0 6.335 4 9 4l28.5-11 .5-3v-9c0-3.985-3.223-1-5-1 0 3.902-7.402 3.95-9.5 5-3.227 1.614-23.5 10.691-23.5 14v1ZM284 108c-2.233 0-9 1.484-9 4-4.065 0-30-10.954-30-14l2-3.5c1.278-2.555-2-4.516-2-6.5h6c0 2.385 21.567 11.034 25.5 13l7.5 6v1Z"/><path fill="#FF8FFC" id="NOT" d="m294 110-1 2-7-3-2-2-7.5-6c-3.933-1.966-25.5-10.615-25.5-13 3.701 0 11.448-3.026 15.5-1l5.5 2 7 2 1 1c5.355 0 8.778 11 12 11 0 1.048-.473 3 1 3v2l1 1v1Z"/><path fill="#C7C8CC" id="alv" d="m360 87 9 9-9-9ZM96 88l-1 1 1-1Z"/><path fill="#FF90FC" id="MPT" d="M211 89c9.378 0 8.866 7.317 3.5 10l-3.5-1v-9ZM245 88c-10.067 0-8.608 10 0 10l2-3.5c1.278-2.555-2-4.516-2-6.5Z"/><path fill="#039397" id="AUDp4" d="M38 127h1c0-10.563 9.986-18.471 14-26.5.791-1.582 3.942-8.5 6-8.5v-1c-1.238 0-3-.423-3-2h-1l-5 6.5c-3.906 7.812-15 21.905-15 30.5l3 1Z"/><path fill="#029298" id="AUDpo6b" d="m84 90-5 5c0-2.773 4-3.67 4-6h1v1Z"/><path fill="#C7C8CC" id="alv" d="m95 89-1 1 1-1Z"/><path fill="#029298" id="AUDpo6b" d="m382 101-1 1c0-4.416-8-8.041-8-12v-1h1l8 12Z"/><path fill="#C7C8CC" id="alv" d="m93 90-1 1 1-1Z"/><path fill="#7DCD4B" id="HPF" d="m171 90-2 1-2-1h4ZM289 90l-2 2-2-2h4Z"/><path fill="#039397" id="AUDp4" d="m421 126-3 1c0-7.807-9.545-18.59-13-25.5l-7-9.5v-1l3-1c2.585 0 5.171 5.843 6 7.5 4.447 8.895 14 17.992 14 28.5Z"/><path fill="#C7C8CC" id="alv" d="m92 91-1 1 1-1Z"/><path fill="#65A83D" id="DG-sg" d="M125 128c3.227 0 10.513-15.007 14.5-17 3.094-1.547 27.343-16.328 20-20-3.253-1.626-12.286 3.643-15 5-11.131 5.566-38.5 18.787-38.5 33 3.047 0 9.728-14 15-14l6-4.5c2.353-2.353 22.427-14.537 24.5-13.5l-5 5-7.5 5.5c-1.255 1.255-8.573 9.5-9 9.5 0 3.572-5 6.988-5 11Z"/><path fill="#FF64FF" id="MB" d="m279 91 1 1-1-1Z"/><path fill="#65A83D" id="DG-sg" d="m331 128-4-3.5c-2.74-5.481-9.357-9.714-12-15-2.427-4.854-17.006-9.012-20-15-1.219-2.439 3.591-4.454 5.5-3.5 4.965 2.483 9.999 4.5 15 7 10.221 5.11 35.5 18.311 35.5 31-5.742 0-8.688-14-16-14 0-2.023-23.696-16.098-27.5-18-6.561-3.28 2.635 4.818 5 6l5 4 9.5 10c0 4.082 4 6.651 4 11Z"/><path fill="#039199" id="AUDp5" d="m39 127 14 4c0-8.12 7.507-17.514 11-24.5.845-1.69 2.175-7.5 5-7.5v-1c-3.651 0-6.552-6-10-6-2.058 0-5.209 6.918-6 8.5-4.014 8.029-14 15.937-14 26.5ZM403 131h1l14-4c0-7.807-9.545-18.59-13-25.5l-7-9.5-10 6v1c1.615 0 3.36 5.22 4 6.5 3.802 7.604 11 16.526 11 25.5Z"/><path fill="#C7C8CC" id="alv" d="m90 94-1 1 1-1Z"/><path fill="#029298" id="AUDpo6b" d="M79 95c-2.275 0-4 3.756-4 6 1.617 0 4-4.583 4-6Z"/><path fill="#C7C8CC" id="alv" d="m89 95-1 1 1-1ZM88 96l-1 1 1-1ZM87 97l-1 1 1-1Z"/><path fill="#7ECE4A" id="DG-po" d="M121 115c2.04 0 9-1.087 9 2 .427 0 7.745-8.245 9-9.5l7.5-5.5 5-5c-2.073-1.037-22.147 11.147-24.5 13.5l-6 4.5ZM335 115c-2.625 0-8-1.221-8 2l-9.5-10-5-4c-2.365-1.182-11.561-9.28-5-6 3.804 1.902 27.5 15.977 27.5 18Z"/><path fill="#C7C8CC" id="alv" d="m369 97 4 4-4-4ZM86 98l-1 1 1-1Z"/><path fill="#019396" id="AUDp6a" d="m53 131 6 3c0-8.452 7.37-18.238 11-25.5.64-1.28 2.385-6.5 4-6.5v-1l-5-2c-2.825 0-4.155 5.81-5 7.5-3.493 6.986-11 16.38-11 24.5ZM403 131c-1.624 0-2.75 2-5 2-1.55 0-2.364-6.228-3-7.5L383 101l5-2c1.615 0 3.36 5.22 4 6.5 3.802 7.604 11 16.526 11 25.5Z"/><path fill="#C7C8CC" id="alv" d="m85 100-1 1 1-1Z"/><path fill="#029298" id="AUDpo6b" d="M74 102h1v-1h-1v1Z"/><path fill="#C7C8CC" id="alv" d="m84 101-1 1 1-1Z"/><path fill="#039198" id="AUDp6b" d="M397 134h1v-1c-1.55 0-2.364-6.228-3-7.5L383 101h-1l-1 1 4 6 3 6v1l1 1v1l2 4v1c1.577 0 2 1.762 2 3v2l2 4v1l2 2ZM59 134h1l1-1v-1l1-2 1-2v-2l1-1 1-2v-1l1-2 1-2v-1l1-1v-1l1-1v-1l1-1 1-1c0-1.048-.473-3 1-3l3-6h-1c-1.615 0-3.36 5.22-4 6.5-3.63 7.262-11 17.048-11 25.5Z"/><path fill="#FF8DFE" id="NPC" d="M202 139h6c4.469 0 4.604-6 6-6l1-2c0-5.193 5.62-12 11-12l1-1c0-2.964 3.489-14.005-.5-16-4.21-2.105-8.16 5.16-10.5 7.5-6.905 6.905-11.854 13.708-16 22-1.558 3.117 2 5.401 2 7.5Z"/><path fill="#FF8DFE" id="NPC" d="M248 139h7l2-5.5c-2.89-5.78-7.069-11.138-10-17l-8-9c-.483-.965-8.265-8.47-10-5-2.129 4.259 1 12.572 1 16.5 4.983 0 11 5.961 11 11l1 1v1l1 2v2c1.947 0 2.636 3 5 3Z"/><path fill="#C7C8CC" id="alv" d="m373 102 2 2-2-2ZM83 103l-1 1 1-1Z"/><path fill="#FF64FF" id="MB" d="M163 104v3l2-4-2 1ZM293 104v2c-1.473 0-1-1.952-1-3l1 1Z"/><path fill="#C7C8CC" id="alv" d="m82 104-1 1 1-1Z"/><path fill="#C7CBCB" id="bsc" d="M131 131v2c3.814 0 5.165-7 10-7l1-1 1-1h1l1-1 2-1 1-1h1c0-1.617 4.583-4 6-4 0-1.747.253-2 2-2l1-1 1-1 4-4v-5h-2l-1 1-1 1-2 1v1l-1 1h-1v1l-1 1h-1l-2 2-1 1h-1l-1 1h-1l-1 1-1 1-1 1-1 1h-1l-1 1-1 1-1 1-1 1-1 1-1 1-1 1c0 1.562-2.189 5-4 5ZM327 136v1c1.961 0 .389-2.722 0-3.5l-8-9.5-1-1-1-1v-1h-1l-2-2-2-1-2-2-3-2-1-1h-1l-2-2-5-4-2-2-3-1v4l1 1v1l3 3c1.634 0 9.372 5.872 11 7.5l3 2.5h1c2.135 0 13 8.553 13 11l2 2Z"/><path fill="#C7C8CC" id="alv" d="m81 105-1 2 1-2Z"/><path fill="#CAC7CB" id="fiber tracts" d="m296 105 2 2-2-2Z"/><path fill="#C7C8CC" id="alv" d="m375 105 2 2-2-2ZM80 107l-1 1 1-1Z"/><path fill="#FF64FF" id="MB" d="M172 108h1v-1l-1 1ZM284 108l2 1-2-2v1Z"/><path fill="#CCC8CA" id="ar" d="M72 108c1.728 0-.187 3-1 3 0-1.048-.473-3 1-3Z"/><path fill="#CAC7CB" id="fiber tracts" d="m157 108-1 1v-1h1Z"/><path fill="#FF64FF" id="MB" d="m172 108-1 1 1-1Z"/><path fill="#FE8EFF" id="APN" d="M165 159c1.904 0 5.57 5 10 5 8.373 0 14-13.056 14-21 0-5.927 2.936-14.629 0-20.5l-7-10.5c-2.665 0-5.362-4-9-4h-1l-1 1-6 2-1 1-4 4v1l-1 4 1 26.5 4 9.5 1 1v1ZM287 163l-6 1c-7.817 0-14-14.514-14-21 0-6.116-2.755-13.99 0-19.5 1.234-2.468 8-9.985 8-11.5 0-2.516 6.767-4 9-4l2 1 7 3 3 3v1l1 5v24.5c-1.274 2.548-5 9.919-5 12.5l-1 1-1 1-1 1-2 2Z"/><path fill="#FF64FF" id="MB" d="m293 108 1 1-1-1Z"/><path fill="#C7C8CC" id="alv" d="M377 108c1.428 0 4 4.822 4 6-1.428 0-4-4.822-4-6Z"/><path fill="#CCC8CA" id="ar" d="M385 108c-2.4 0 1.669 6 3 6l-3-6Z"/><path fill="#C7C8CC" id="alv" d="m79 109-1 1 1-1Z"/><path fill="#FF64FF" id="MB" d="M159 113c1.473 0 1 1.952 1 3l4-4c-1.473 0-1-1.952-1-3l-4 4Z"/><path fill="#C7C8CC" id="alv" d="m78 110-1 1 1-1Z"/><path fill="#CAC7CB" id="fiber tracts" d="m155 110-1 1v-1h1Z"/><path fill="#FF64FF" id="MB" d="m297 113-1 2-3-3 1-2 3 3Z"/><path fill="#CCC8CA" id="ar" d="m71 111-1 1 1-1Z"/><path fill="#FF64FF" id="MB" d="m165 111-1 1 1-1Z"/><path fill="#CAC7CB" id="fiber tracts" d="m304 111 1 2-2-2h1Z"/><path fill="#CCC8CA" id="ar" d="m70 112-1 1 1-1Z"/><path fill="#C7C8CC" id="alv" d="m77 112-1 1 1-1ZM76 113l-1 2 1-2Z"/><path fill="#CAC7CB" id="fiber tracts" d="m151 113-1 1v-1h1ZM159 113l-1 1 1-1ZM302 119l9 4-3-2.5c-1.628-1.628-9.366-7.5-11-7.5l5 6ZM306 113l1 1-1-1Z"/><path fill="#CCC8CA" id="ar" d="m69 114-1 1 1-1Z"/><path fill="#CAC7CB" id="fiber tracts" d="m158 114-1 1 1-1Z"/><path fill="#C7C8CC" id="alv" d="m75 115-1 2 1-2Z"/><path fill="#7ECF49" id="CA3" d="M143 237h1l4-2 3 1 6-1v-1l-16-19.5c-7.612-15.225-14.382-30.763-22-46-2.427-4.853-2-11.132-2-17 0-1.21.814-5.5 2-5.5v-1l1-2c0-1.041.986-5 2-5v-1l1-1c0-3.303 2-5.115 2-8 0-4.012 5-7.428 5-11 0-3.087-6.96-2-9-2-5.272 0-11.953 14-15 14 0 3.41-8.34 8-11 8-3.328 0-4.973 8.447-6 10.5-5.897 11.794-.103 29.794 5 40 7.468 14.937 21.941 24.941 33 36l16 13.5Z"/><path fill="#CAC7CB" id="fiber tracts" d="M155 117h2v-2c-1.747 0-2 .253-2 2Z"/><path fill="#7ECF49" id="CA3" d="M312 237h2c0-1.811 3.438-4 5-4 0-2.509 11.829-12 14-12 0-2.425 6.743-7.243 9-9.5 7.571-7.571 16.467-15.934 21-25 3.032-6.063 9.987-28.025 6-36-.772-1.543-7-13.018-7-13.5-3.981 0-11-4.199-11-8-5.742 0-8.688-14-16-14-2.625 0-8-1.221-8 2 0 4.082 4 6.651 4 11 0 2.16 2 4.167 2 7l1 1v1l2 4 1 2v2c3.686 0 2 14.534 2 17 0 1.424-.362 5-2 5 0 2.097-1.533 9-4 9l-2 4c0 1.465.109 4-2 4 0 1.424-.362 5-2 5l-1 2-1 2c0 1.465.109 4-2 4v1l-2 4-1 2-1 2v1l-1 1-1 2-1 2-1 1v1l-1 1-1 2-1 1-1 1v1l-1 1-1 1-1 1-1 1v1l-2 2-2 2-2 2-2 2v1c2.16 0 4.167 2 7 2l3-1c1.238 0 3 .423 3 2Z"/><path fill="#C7C8CC" id="alv" d="m381 115 2 3c-1.577 0-2-1.762-2-3Z"/><path fill="#CCC8CA" id="ar" d="m388 115 1 1-1-1ZM68 116l-1 1 1-1Z"/><path fill="#FE909D" id="LP" d="M301 133c2.606 0 2.4.95 4.5 2 2.171 1.085 4.463-1.232 6-2l5.5 1c7.209 0-5-9.572-5-11h-1l-9-4-6-3 1 5c4.956 0 4 7.688 4 12Z"/><path fill="#CAC7CB" id="fiber tracts" d="M312 117v1l-2-2 2 1Z"/><path fill="#C7C8CC" id="alv" d="m74 117-1 2 1-2Z"/><path fill="#CAC7CB" id="fiber tracts" d="m145 117-1 1 1-1ZM154 119l-5 2c0-1.617 4.583-4 6-4v1l-1 1Z"/><path fill="#FE909D" id="LP" d="m155 133-4.5 2c-.119.059-9.01-1-10.5-1-7.189 0 1-6.116 1-8l1-1 1-1h1l1-1 2-1 1-1h1l5-2 1-1 2-1h3l-1 4c-3.833 0-4 8.925-4 12Z"/><path fill="#CCC8CA" id="ar" d="m389 117 2 4-2-4ZM67 118l-1 2 1-2Z"/><path fill="#CAC7CB" id="fiber tracts" d="m144 118-1 1 1-1Z"/><path fill="#FF64FF" id="MB" d="m227 118-1 1 1-1Z"/><path fill="#CCCACA" id="pc" d="M243 136c0 1.048.473 3-1 3-.83 0-2.466-6.431-3-7.5-1.235-2.469-5.714-4.5-9-4.5 0-1.348-3-3.216-3-1l-1 1c-5.764 0-11 6.558-11 12-1.684 0-1-4.679-1-6l1-2c0-5.193 5.62-12 11-12l1-1 3 1c4.983 0 11 5.961 11 11l1 1v1l1 2v2Z"/><path fill="#CAC7CB" id="fiber tracts" d="m314 119 2 2-2-2Z"/><path fill="#C7C8CC" id="alv" d="M383 119c1.996 0 8 14.528 8 17-1.845 0-1.441-3.381-2-4.5l-6-12.5Z"/><path fill="#CCC8CA" id="ar" d="m66 120-1 2 1-2Z"/><path fill="#C7C8CC" id="alv" d="m73 120-1 1 1-1ZM72 121l-1 2 1-2Z"/><path fill="#CAC7CB" id="fiber tracts" d="m140 121-1 1 1-1ZM148 121l-1 1 1-1Z"/><path fill="#FF8D9D" id="POL" d="M167 168h4v-1c0-2.956-6-4.815-6-8v-1l-1-1-4-9.5-1-26.5c-3.833 0-4 8.925-4 12v10c0 6.575 2.28 12.06 5 17.5l7 7.5ZM290 167c-1.49 0-2.587 1-5 1v-1l2-4c1.747 0 2-.253 2-2l1-1 1-1 1-1c0-2.581 3.726-9.952 5-12.5V121c4.956 0 4 7.688 4 12v9c0 6.226-4.62 25-11 25Z"/><path fill="#CAC7CB" id="fiber tracts" d="m139 122-1 1 1-1ZM147 122l-2 1 2-1ZM317 122l1 1-1-1Z"/><path fill="#CCC8CA" id="ar" d="M391 122c1.577 0 2 1.762 2 3-1.577 0-2-1.762-2-3Z"/><path fill="#019099" id="AUDv1" d="M22 145h5c0-7.067 2-13.852 2-20v-1l-4-1c-1.951 0-.477 2.454-1 3.5-2.588 5.176-2 12.278-2 18.5Z"/><path fill="#CCC8CA" id="ar" d="m65 123-1 2 1-2Z"/><path fill="#C7C8CC" id="alv" d="m71 123-1 2 1-2Z"/><path fill="#CAC7CB" id="fiber tracts" d="m138 123-1 1 1-1Z"/><path fill="#FF6F80" id="TH" d="m145 123-1 1 1-1ZM313 178h1c0-.286 6.302-3 7-3 0-4.292 2.899-3 5-3h2c6.324 0 4.769-23.961 3-27.5l-4-7.5v-1l-2-2c0-2.447-10.865-11-13-11 0 1.428 12.209 11 5 11l1 2c4.675 0 9 8.174 9 12 0 4.058 4.654 17-5 17v1c11.67 0-11.866 9.683-12.5 10l-3.5-1-1 2 8 1Z"/><path fill="#019099" id="AUDv1" d="M429 145h5c0-7.748-2-15.068-2-22l-5 1v1c2.144 0 .381 4.262 1 5.5 1.936 3.871 1 9.906 1 14.5Z"/><path fill="#CAC7CB" id="fiber tracts" d="m137 124-1 1 1-1Z"/><path fill="#FF6F80" id="TH" d="m143 124-1 1 1-1Z"/><path fill="#CAC7CB" id="fiber tracts" d="M328 184h1l2-4c0-1.465-.109-4 2-4 0-1.831 2.183-9 4-9l1-15-1-1v-6l-1-1-2-4c-3.716 0-10.261-15-13-15l-2-1 8 9.5c.389.778 1.961 3.5 0 3.5l4 7.5c1.769 3.539 3.324 27.5-3 27.5v12Z"/><path fill="#029198" id="AUDv2/3" d="m27 145 6 1c0-7.241 2-13.281 2-20-1.564 0-3.876-1-6-1 0 6.148-2 12.933-2 20Z"/><path fill="#CCC8CA" id="ar" d="m64 125-1 1 1-1Z"/><path fill="#C7C8CC" id="alv" d="m70 125-1 2 1-2Z"/><path fill="#CAC7CB" id="fiber tracts" d="m136 125-1 1 1-1Z"/><path fill="#FF6F80" id="TH" d="m142 125-1 1 1-1Z"/><path fill="#FF78FE" id="SCO" d="M226 127c0 2.885 4 2.885 4 0 0-1.348-3-3.216-3-1l-1 1Z"/><path fill="#029198" id="AUDv2/3" d="m429 145-5 1c0-6.537-3-13.838-3-20 1.564 0 3.876-1 6-1 2.144 0 .381 4.262 1 5.5 1.936 3.871 1 9.906 1 14.5Z"/><path fill="#029197" id="AUDv4" d="M33 146h3l2-19-3-1c0 6.719-2 12.759-2 20Z"/><path fill="#CAC7CB" id="fiber tracts" d="M135 126c-1.811 0-4 3.438-4 5 1.811 0 4-3.438 4-5Z"/><path fill="#FF6F80" id="TH" fill-rule="evenodd" d="M127 145c0 3.746 2.091 0 0 0m23 30 2 2-8.5 1-7.5-3c-1.197 0-.827-3-6-3h-2c-2.446 0-3.985-3.47-5-5.5l1-4.5c0-2.898-.407-13.686 1-16.5l4-7.5v-1l1-1 1-1v-2c3.814 0 5.165-7 10-7 0 1.884-8.189 8-1 8l-1 1c-4.984 0-10 9.991-10 14 0 4.189-3.334 16 5 16v1c-8.142 0 8.443 9 11.5 9 .854 0 4.5 2.469 4.5 0Z"/><path fill="#FC8FFF" id="PAG" d="m227 126-1 1 1-1Z"/><path fill="#029197" id="AUDv4" d="M421 146h3c0-6.537-3-13.838-3-20l-3 1 3 19Z"/><path fill="#019098" id="AUDv5" d="m36 146 14 1c0-5.56 3-10.819 3-16l-14-4h-1l-2 19Z"/><path fill="#C7C8CC" id="alv" d="M69 127c-1.638 0-2 3.576-2 5 1.638 0 2-3.576 2-5Z"/><path fill="#FC8FFF" id="PAG" fill-rule="evenodd" d="m228 130 .5 10c.578 0 1.375-10-.5-10m1 45h1c0-2.978 2.995-2 4-2l1-2c-3.11 0-6.384-8.732-5-11.5 2.458-4.915 5.867-5.5 10-5.5l2-10v-5c-.83 0-2.466-6.431-3-7.5-1.235-2.469-5.714-4.5-9-4.5 0 2.885-4 2.885-4 0-5.764 0-11 6.558-11 12l-1 4c0 1.124 2.574 11 3 11 0-2.785 4.798.649 5.5 1 4.562 2.281 4.521 16-.5 16v2c1.896 0 4-1.97 4 2h1c0-2.726 2-3.644 2 0Z"/><path fill="#CCC8CA" id="ar" d="m393 127 2 4-2-4Z"/><path fill="#019098" id="AUDv5" d="m421 146-14 1-3-16 14-4 3 19Z"/><path fill="#CCC8CA" id="ar" d="m63 128-1 2 1-2ZM62 130l-1 2 1-2Z"/><path fill="#A9A9A8" id="AQ" d="m228 130 .5 10c.578 0 1.375-10-.5-10Z"/><path fill="#FF64FF" id="MB" d="m241 130 1 1-1-1Z"/><path fill="#019397" id="AUDv6a" d="M50 148h5c.34 0 4-12.749 4-14l-6-3c0 5.181-3 10.44-3 16v1Z"/><path fill="#CAC7CB" id="fiber tracts" d="M128 180v3l-4-7.5c-4.655-9.309-5-17.119-5-28.5l1-2v-1l2-4c4.567 0 4.474-9 9-9v2c-1.348 0-3.216 3-1 3l-1 1c-1.186 0-1.186 1 0 1l-4 7.5c-1.407 2.814-1 13.602-1 16.5l-1 4.5c1.015 2.03 2.554 5.5 5 5.5v8Z"/><path fill="#FF64FF" id="MB" d="m215 131-1 2 1-2Z"/><path fill="#019397" id="AUDv6a" d="M401 148h6v-1l-3-16h-1c-1.624 0-2.75 2-5 2v1l3 14Z"/><path fill="#C7C8CC" id="alv" d="M67 132c-1.473 0-1 1.952-1 3 1.473 0 1-1.952 1-3Z"/><path fill="#FF64FF" id="MB" d="m242 132 1 2-1-2Z"/><path fill="#CCC8CA" id="ar" d="M396 137h1v-3l-2-2v3l1 1v1ZM60 136h1v-3l-1 1v2Z"/><path fill="#C7CBCB" id="bsc" d="m131 135-1 1c-2.216 0-.348-3 1-3v2Z"/><path fill="#FF8E9D" id="SGN" d="M148 143h7v-10l-4.5 2c-.119.059-9.01-1-10.5-1l-1 1c0 1.528 4.54 8 6 8h3Z"/><path fill="#FF64FF" id="MB" d="m215 139-1 4-3.5-3c-.919-.459-2.5.765-2.5-1 4.469 0 4.604-6 6-6 0 1.321-.684 6 1 6Z"/><path fill="#FF8E9D" id="SGN" d="M308 143h3l7-7-1-2-5.5-1c-1.537.768-3.829 3.085-6 2-2.1-1.05-1.894-2-4.5-2v9c2.528 0 4.427 1 7 1Z"/><path fill="#019198" id="AUDv6b" d="M55 149h2v-2l1-4v-1l1-2v-2l1-2v-2h-1c0 1.251-3.66 14-4 14v1Z"/><path fill="#7DCF4B" id="CA2" d="M140 237h3l-16-13.5c-11.059-11.059-25.532-21.063-33-36-5.103-10.206-10.897-28.206-5-40 1.027-2.053 2.672-10.5 6-10.5l-1-3c-2.315 0-5.168 6.835-6 8.5-5.52 11.041-4.311 30.377 1 41 7.705 15.409 23.658 27.658 36 40 2.337 2.337 15 11.738 15 13.5Z"/><path fill="#CAC7CB" id="fiber tracts" d="m325 134 2 2-2-2Z"/><path fill="#019198" id="AUDv6b" d="M399 149h1l1-1-3-14h-1v5l1 2v1c1.643 0 1 3.765 1 5v2Z"/><path fill="#C7C8CC" id="alv" d="m66 135-1 2 1-2Z"/><path fill="#CAC7CB" id="fiber tracts" d="m131 135-1 1 1-1Z"/><path fill="#FE7F82" id="MGd" d="M144 147c-2.618 0-7.472-2.514-10.5-1l-4.5 3c0-4.009 5.016-14 10-14 0 1.528 4.54 8 6 8l-1 4Z"/><path fill="#7DCD4B" id="HPF" d="m333 135 1 1-1-1Z"/><path fill="#7DCF4B" id="CA2" d="M362 137c0 .482 6.228 11.957 7 13.5 3.987 7.975-2.968 29.937-6 36-4.533 9.066-13.429 17.429-21 25-2.257 2.257-9 7.075-9 9.5 3.91 0 11.616-9.116 14.5-12 12.987-12.987 24.5-27.604 24.5-46 0-5.793-1.627-28-9-28l-1 2Z"/><path fill="#C8C9CA" id="fp" d="m395 135 1 1-1-1Z"/><path fill="#CCC8CA" id="ar" d="M59 138h1v-2l-1 2Z"/><path fill="#C8C9CA" id="fp" d="m61 136-1 2v-2h1Z"/><path fill="#7DCD4B" id="HPF" d="m123 136-1 1 1-1Z"/><path fill="#FF64FF" id="MB" d="m248 139-6 5v-5c1.473 0 1-1.952 1-3 1.947 0 2.636 3 5 3Z"/><path fill="#FE7F82" id="MGd" d="M312 147c2.618 0 7.472-2.514 10.5-1l4.5 2c0-3.826-4.325-12-9-12l-7 7 1 4Z"/><path fill="#C7CBCB" id="bsc" d="M129 137c-1.186 0-1.186 1 0 1v-1Z"/><path fill="#7DCD4B" id="HPF" d="M336 144h1v-1l-1-2-2-4v3l2 4Z"/><path fill="#C7C8CC" id="alv" d="M391 137c1.995 0 2 4.377 2 6-1.353 0-2-4.643-2-6Z"/><path fill="#C8C9CA" id="fp" d="M397 137v2l-1-2h1ZM59 140v1c1.473 0 1-1.952 1-3h-1v2Z"/><path fill="#C7C8CC" id="alv" d="M63 143v2c1.663 0 2-5.407 2-7-1.014 0-2 3.959-2 5Z"/><path fill="#7DCD4B" id="HPF" d="M120 143v1l2-4v-2c-1.014 0-2 3.959-2 5Z"/><path fill="#FF8FFD" id="MRN" d="M194 194c-4.885 0-10.187-8.843-14.5-11-3.481-1.741-3.243 4.013-2.5 5.5.718 1.436 6 4.069 6 6.5-7.812 0-20.011-1.522-24-9.5-1.65-3.301 2-6.145 2-7.5h4l1-1c4.889 0 5-4.788 5-9v-1c1.429 0 4-1.288 4-3 8.373 0 14-13.056 14-21 3.985 0 8.355-4 13-4h6c0 1.765 1.581.541 2.5 1l3.5 3c0 1.124 2.574 11 3 11v3c-8.681 0-9.321 14 3 14v1c0 10.748-15.808 22-26 22ZM263 194l13.5-11c2.418-1.209 4.484 2.531 3.5 4.5l-7 7.5c9.356 0 20.977-2.454 25-10.5 1.631-3.262-3-4.986-3-6.5h-3c-5.159 0-7-5.611-7-10v-1c-1.114 0-4-2.034-4-3-7.817 0-14-14.514-14-21-3.389 0-8.022-4-12-4h-7l-6 5-2 10v3c6.45 0 9.353 14-3 14v7.5c3.735 7.471 18.569 15.5 26 15.5Z"/><path fill="#CCC8CA" id="ar" d="M397 141h1l-1-2v2ZM58 142h1v-2l-1 2Z"/><path fill="#C7C8CC" id="alv" d="m336 141 1 2-1-2Z"/><path fill="#C8C9CA" id="fp" d="m398 142-1 1v-2h1v1ZM58 143h1v-1h-1v1Z"/><path fill="#FF7E82" id="PoT" d="M295 171h6c0-1.89 4.598-3 6-3l-3-3.5v-13c.9-1.8 4-6.713 4-8.5-2.573 0-4.472-1-7-1 0 6.226-4.62 25-11 25 0 2.96 2.399 4 5 4Z"/><path fill="#CCC8CA" id="ar" d="m397 143 2 4c0-1.235.643-5-1-5l-1 1ZM59 143c0 1.465.109 4-2 4l1-4h1Z"/><path fill="#C8CBCC" id="ec" d="m63 146-2 3c0-1.321-.684-6 1-6h1v3Z"/><path fill="#C7C8CC" id="alv" d="M119 145h1v-2l-1 2Z"/><path fill="#FD7F83" id="MGm" d="M134 166c1.255 0 7.967 3.234 9.5 4l6.5-2c0-3.725 5.518-8.464 3-13.5-1.019-2.039-5-9.632-5-11.5h-3l-1 4 2 3.5c2.401 4.802-1.796 13.648-5.5 15.5-2.161 1.081-4.894-1-6.5-1v1Z"/><path fill="#FF7E82" id="PoT" d="M155 171h7c1.766 0 5-.607 5-3l-7-7.5c-2.72-5.44-5-10.925-5-17.5h-7c0 1.868 3.981 9.461 5 11.5 2.518 5.036-3 9.775-3 13.5 1.076 0 5 1.523 5 3Z"/><path fill="#FD7F83" id="MGm" d="M322 166c0 3.523-15 4.243-15 2l-3-3.5v-13c.9-1.8 4-6.713 4-8.5h3l1 4c0 6.249-3.716 15.392 3.5 19 2.161 1.081 4.894-1 6.5-1v1Z"/><path fill="#C8CBCC" id="ec" d="m395 189-6 8c0-3.477 2.539-6.578 4-9.5 3.332-6.664 5.752-25.496 2-33-.882-1.765.935-9.5-2-9.5v-2h2l2.5 18 1.5-2v4l-2 20-1 1-1 2v3Z"/><path fill="#15B0B3" id="TEa1" d="m28 165-5 1c0-6.445-1-13.948-1-21h5c0 6.573 1 14.1 1 20Z"/><path fill="#16AFB3" id="TEa2/3" d="m36 164-8 1c0-5.9-1-13.427-1-20l6 1c0 7.16 3 13.07 3 18Z"/><path fill="#FE8083" id="LGd-sh" d="M127 145c0 3.746 2.091 0 0 0Z"/><path fill="#C7C8CC" id="alv" d="m338 152-1 15c1.638 0 2-3.576 2-5 0-2.466 1.686-17-2-17v6l1 1ZM381 207h2v-1l1-1 1-2c0-1.238.423-3 2-3 0-1.238.423-3 2-3 0-3.477 2.539-6.578 4-9.5 3.332-6.664 5.752-25.496 2-33-.882-1.765.935-9.5-2-9.5 0 10.508 5.115 27.27 0 37.5-1.769 3.537-12 22.328-12 24.5Z"/><path fill="#16AFB3" id="TEa2/3" d="M420 163c0 .981 7.758 2 9 2v-20l-5 1c0 2.443-1.597 17-4 17Z"/><path fill="#15B0B3" id="TEa1" d="m429 165 4 1c0-6.319 1-14.033 1-21h-5v20Z"/><path fill="#15B0B2" id="TEa4" d="m38 163-2 1c0-4.93-3-10.84-3-18h3l2 17Z"/><path fill="#15AFB3" id="TEa5" d="M38 163h10c0-1.926.795-15 2-15v-1l-14-1 2 17Z"/><path fill="#C7C8CC" id="alv" d="M61 149v10c1.388 0 2-11.087 2-13l-2 3ZM158 233l-1 1-16-19.5c-7.612-15.225-14.382-30.763-22-46-2.427-4.853-2-11.132-2-17 0-1.21.814-5.5 2-5.5v1c0 11.381.345 19.191 5 28.5l4 7.5 1 2c0 10.037 14.375 28.251 19 37.5l10 10.5Z"/><path fill="#FE7E83" id="MGv" d="M129 149c0 4.189-3.334 16 5 16 1.606 0 4.339 2.081 6.5 1 3.704-1.852 7.901-10.698 5.5-15.5l-2-3.5c-2.618 0-7.472-2.514-10.5-1l-4.5 3ZM327 148c0 4.058 4.654 17-5 17-1.606 0-4.339 2.081-6.5 1-7.216-3.608-3.5-12.751-3.5-19 2.618 0 7.472-2.514 10.5-1l4.5 2Z"/><path fill="#15AFB3" id="TEa5" d="M418 163h1c0-5.959 2-11.632 2-17l-14 1v1l1 15h10Z"/><path fill="#15B0B2" id="TEa4" d="M419 163h1c2.403 0 4-14.557 4-17h-3c0 5.368-2 11.041-2 17Z"/><path fill="#15AFB2" id="TEa6a" d="M48 163h8c0-4.351-1-9.131-1-14v-1h-5c-1.205 0-2 13.074-2 15Z"/><path fill="#16B0B2" id="TEa6b" d="M399 163h1c0-4.425 1-9.961 1-15l-1 1c0 1.657.763 10-1 10v4Z"/><path fill="#15AFB2" id="TEa6a" d="M400 163h8l-1-15h-6c0 5.039-1 10.575-1 15Z"/><path fill="#16B0B2" id="TEa6b" d="M56 163h1c0-1.917-2.098-12 0-12v-2h-2c0 4.869 1 9.649 1 14Z"/><path fill="#C8CBCC" id="ec" d="M61 188c3.433 0 4.578 14 10 14 0-3.252-4.547-7.595-6-10.5-2.706-5.412-5-14.143-5-20.5 0-1.741-.773-11 1-11v-11c-2.9 0 1.127 11-2.5 11l-1.5-5.5V151c-2.098 0 0 10.083 0 12v4c1.614 0 1 3.31 1 4.5 0 4.357 3 9.606 3 13.5v3ZM400 149c0 1.657.763 10-1 10v-10h1Z"/><path fill="#FD8FFD" id="ND" d="m222 171-2 1v-5l-1-2v-3l-1-1v-1l-1-1v-5c0-2.785 4.798.649 5.5 1 4.562 2.281 4.521 16-.5 16ZM237 171v1l-2-1c-3.11 0-6.384-8.732-5-11.5 2.458-4.915 5.867-5.5 10-5.5v3l-1 1v2l-1 1v1l-1 2v4c-1.399 0-1.399 2 0 2v1Z"/><path fill="#FF64FF" id="MB" d="m164 157 1 1-1-1Z"/><path fill="#FF90FD" id="INC" d="M220 167v4c-12.321 0-11.681-14-3-14v2l1 1v1l1 1v3l1 2Z"/><path fill="#FF8FFD" id="MRN" d="m240 157-1 1 1-1Z"/><path fill="#FF90FD" id="INC" d="M237 170v1c12.353 0 9.45-14 3-14l-1 1v2l-1 1v1l-1 2v6Z"/><path fill="#FF64FF" id="MB" d="m292 158-1 1 1-1ZM175 164c0 1.712-2.571 3-4 3 0-2.956-6-4.815-6-8 1.904 0 5.57 5 10 5Z"/><path fill="#FF8FFD" id="MRN" d="m217 159 1 1-1-1Z"/><path fill="#FF64FF" id="MB" d="m291 159-1 1 1-1Z"/><path fill="#C7C8CC" id="alv" d="m126 241 3 1c0-2.029-6.967-3.233-8.5-4l-30-15C73.59 214.545 61 178.951 61 160c-1.773 0-1 9.259-1 11 0 6.357 2.294 15.088 5 20.5 1.453 2.905 6 7.248 6 10.5v1c2.854 0 7.77 11.27 10 13.5l4 4.5c3.431 0 16.393 9.947 20.5 12l6.5 3h1l1 1 4 1 1 1h2l1 1h1l1 1h2Z"/><path fill="#FF8FFD" id="MRN" d="m239 160-1 1 1-1Z"/><path fill="#FF64FF" id="MB" d="m290 160-1 1 1-1Z"/><path fill="#FF8FFD" id="MRN" d="m218 161 1 1-1-1Z"/><path fill="#FF64FF" id="MB" d="m289 161-2 2c1.747 0 2-.253 2-2Z"/><path fill="#FF8FFD" id="MRN" d="m238 162-1 2 1-2Z"/><path fill="#0D9F91" id="ECT2/3" d="M35 179c3.013 0 6.611 1 9 1l-6-17-2 1-8 1c0 6.36 7 8.085 7 14Z"/><path fill="#0D9E90" id="ECT5" d="M44 180c3.016 0 6.525 2 9 2 0-6.236-5-12.357-5-19H38l6 17Z"/><path fill="#0E9F91" id="ECT6a" d="M53 183h6c0-4.783-2-10.26-2-16v-2l-1-2h-8c0 6.643 5 12.764 5 19v1Z"/><path fill="#0E9F90" id="ECT6b" d="M57 163v2l-1-2h1Z"/><path fill="#FF64FF" id="MB" d="M281 164c0 .966 2.886 3 4 3l2-4-6 1Z"/><path fill="#0E9F90" id="ECT6b" d="M397 183h1c0-6.561 2-12.857 2-20h-1l-2 20Z"/><path fill="#0E9F91" id="ECT6a" d="M398 183h5c0-6.571 5-12.593 5-20h-8c0 7.143-2 13.439-2 20Z"/><path fill="#0D9E90" id="ECT5" d="m412 180-9 3c0-6.571 5-12.593 5-20h10c0 5.526-5 10.303-5 16l-1 1Z"/><path fill="#0D9F91" id="ECT2/3" d="M413 179h9c0-5.8 7-8.377 7-14-1.242 0-9-1.019-9-2h-2c0 5.526-5 10.303-5 16Z"/><path fill="#0D9F90" id="ECT1" d="M29 179h6c0-5.915-7-7.64-7-14l-5 1c0 6.061 6 7.269 6 13Z"/><path fill="#FF8FFD" id="MRN" d="m219 165 1 2-1-2Z"/><path fill="#0D9F90" id="ECT1" d="M422 179h5c0-5.172 6-7.04 6-13l-4-1c0 5.623-7 8.2-7 14Z"/><path fill="#FE8D9E" id="PIL" d="M155 171c-1.247 0-5 2.467-5 4 0 2.469-3.646 0-4.5 0-3.057 0-19.642-9-11.5-9 1.255 0 7.967 3.234 9.5 4l6.5-2c1.076 0 5 1.523 5 3ZM301 171c1.85 0 5 2.23 5 4l3.5 1c.634-.317 24.17-10 12.5-10 0 3.523-15 4.243-15 2-1.402 0-6 1.11-6 3Z"/><path fill="#0E9F90" id="ECT6b" d="m59 184 2 1c0-3.894-3-9.143-3-13.5 0-1.19.614-4.5-1-4.5 0 5.74 2 11.217 2 16v1Z"/><path fill="#FF6F80" id="TH" d="m295 171-4 2.5 1 4.5c-5.159 0-7-5.611-7-10 2.413 0 3.51-1 5-1 0 2.96 2.399 4 5 4Z"/><path fill="#C7C8CC" id="alv" d="M337 167c-1.817 0-4 7.169-4 9 2.467 0 4-6.903 4-9Z"/><path fill="#FF6F80" id="TH" d="M162 171c0 1.548 4 2.767 4 6 4.889 0 5-4.788 5-9h-4c0 2.393-3.234 3-5 3Z"/><path fill="#FF8FFD" id="MRN" d="M237 168c-1.399 0-1.399 2 0 2v-2Z"/><path fill="#FE8FFE" id="LT" d="M128 178v2c3.991 0 8 4.002 8-5-1.197 0-.827-3-6-3 0 .706-1.325 6-2 6Z"/><path fill="#FE8084" id="SPFp" d="M161 178h4l1-1c0-3.233-4-4.452-4-6h-7c-1.247 0-5 2.467-5 4l2 2h5l2 1h2Z"/><path fill="#FF64FF" id="MB" fill-rule="evenodd" d="M243 221c0 10.259 22.671 9.086 10.5 3l-6-1c-2.1-1.05-1.894-2-4.5-2m-5-24-2 3.5c0 1.972-.199 2.398-1 4-.777 1.554 2.242 3.129 3.5 2.5 2.183-1.091 2.262-10-.5-10m-21 0v7c0 10.208 8.351-7 0-7m16-7c0 1.302-.743 7 1.5 7 1.249 0 .415-7-1.5-7m-10 0c0 1.156-4.033 5.734-1.5 7 1.614.807 3.953-7 1.5-7m-26 56 1 4c-3.117 0-3.119-8.309-6.5-10-1.614-.807-13.5 4.334-13.5 1 4.599 0 7.105-4 11-4 0 2.13 6.33-1.16 7-2.5 1.688-3.377 0-5.409 0-8.5 8.962 0 20.652-19.197 16-28.5-2.085-4.169-13-3.883-13 .5l-5-4c10.192 0 26-11.252 26-22l2-1v2c0 5.898-.767 6 4 6 0 6.752 4 4.985 4-1l2.5 2c4.212 2.106 1.5-6.814 1.5-7l1-2 2 1v6.5c3.735 7.471 18.569 15.5 26 15.5l-5 4c-3.162 0-5.334-5.583-10.5-3-4.11 2.055-4.284 15.932-2.5 19.5 1.024 2.048 13.277 11.5 15 11.5l-1 6.5c.78 1.561 9 6.821 9 5 0-2.026-4-3.445-4-6.5l4.5 6c2.492 2.492 6.858 4 10.5 4 0 3.483-12.946-1.777-14.5-1-2.683 1.342-2.993 9-5.5 9l1-4c0-11.173-13.563-17.031-21.5-21-2.97-1.485-9.15.925-11 0-1.19-.595-3.347-1.826-5-1l-12.5 4 3-5.5c-.828-1.657-3.651 1.075-4.5 1.5-2.996 1.498-7.51.52-9.5 4.5-1.326 2.651 8.968.5 10 .5l-8 6.5c-2.36 4.72-4 6.79-4 11.5m29-49c0 2.625-5.685 7.13-4 10.5 2.149 4.298 9.812 5.375 12 1 2.108-4.215-3-8.092-3-11.5 0-3.928.866-7-2.5-7-.651 0-1.651-2.198-2.5-.5-1.48 2.96 0 4.893 0 7.5Z"/><path fill="#FE8084" id="SPFp" d="M295 178h3l1-1h6l1-2c0-1.77-3.15-4-5-4h-6l-4 2.5 1 4.5h3Z"/><path fill="#FE8FFE" id="LT" d="M328 176v5c-5.159 0-7 .427-7-6 0-4.292 2.899-3 5-3l2 4Z"/><path fill="#FF64FF" id="MB" d="M130 172c0 .706-1.325 6-2 6v-6h2Z"/><path fill="#FC8EFF" id="MA3" d="M226 177v2c-4.767 0-4-.102-4-6 1.896 0 4-1.97 4 2v2Z"/><path fill="#FF64FF" id="MB" d="M227 175h2c0-3.644-2-2.726-2 0Z"/><path fill="#FC8EFF" id="MA3" d="M230 175v3l2.5 2c4.212 2.106 1.5-6.814 1.5-7-1.005 0-4-.978-4 2Z"/><path fill="#FF64FF" id="MB" d="M328 172v4l-2-4h2ZM191 201c0 1.751-7.426 1-9 1-3.676 0-6.439 3-9 3-6.465 0-15.431-16-18-16 0-4.036-11.844-13.811-14-9.5-2.13 4.26 7 6.633 7 8.5l1 3c-3.855 0-8.587 3-9 3 0-7.444-11-15.832-11-9l-1-2v-3c3.991 0 8 4.002 8-5l7.5 3 8.5-1h5l2 1h2c0 1.355-3.65 4.199-2 7.5 3.989 7.978 16.188 9.5 24 9.5 1.528 0 8 4.54 8 6ZM227 175l-1 2v-2h1Z"/><path fill="#FE8FFC" id="EW" d="M230 178c0 5.985-4 7.752-4 1v-2l1-2h3v3Z"/><path fill="#FF64FF" id="MB" d="M307 191h6.5l3.5 4-1-4.5c1.213-2.426 7.121-9.19 10.5-7.5l1.5 2v-4c-5.159 0-7 .427-7-6-.698 0-7 2.714-7 3 3.996 0-1.403 7.951-3.5 9-.919.459-2.5-.765-2.5 1l-1 3Z"/><path fill="#C7C8CC" id="alv" d="M333 176c-2.109 0-2 2.535-2 4l2-4Z"/><path fill="#FF6F80" id="TH" d="m157 177 2 1-2-1ZM166 177l-1 1 1-1ZM299 177l-1 1 1-1Z"/><path fill="#FF64FF" id="MB" d="M265 201c0 1.758 7.884 1 9.5 1 3.579 0 7.884 3 8.5 3 6.769 0 16.212-16 18-16 0-3.99 6.629-7.129 9-9.5l3-1.5-8-1h-6l-1 1h-3c0 1.514 4.631 3.238 3 6.5-4.023 8.046-15.644 10.5-25 10.5-2.956 0-4.815 6-8 6Z"/><path fill="#F0483B" id="ZI" d="m148 188 7 1c0-4.036-11.844-13.811-14-9.5-2.13 4.26 7 6.633 7 8.5ZM308 188c-1.819 0-4.591 1-7 1 0-3.99 6.629-7.129 9-9.5l3-1.5h1c3.996 0-1.403 7.951-3.5 9-.919.459-2.5-.765-2.5 1Z"/><path fill="#0E9584" id="PERI1" d="M31 190h1c0-3.751 3-6.819 3-11h-6c0 4.777-4 6.36-4 11h6Z"/><path fill="#0E9583" id="PERI2/3" d="M32 190h7l8-1-3-9c-2.389 0-5.987-1-9-1 0 4.181-3 7.249-3 11ZM418 190h7c0-3.379-3-6.725-3-11h-9l-1 1-2 9 8 1Z"/><path fill="#0E9584" id="PERI1" d="M425 190h6c0-4.882-4-6.118-4-11h-5c0 4.275 3 7.621 3 11Z"/><path fill="#0F9684" id="PERI5" d="m53 188-6 1-3-9c3.016 0 6.525 2 9 2v1l1 4-1 1Z"/><path fill="#C7C8CC" id="alv" d="m331 180-2 4c2.109 0 2-2.535 2-4Z"/><path fill="#0F9684" id="PERI5" d="m403 188 7 1 2-9-9 3-1 4 1 1Z"/><path fill="#0E9684" id="PERI6a" d="m60 186-6 1-1-4h6v1l1 2Z"/><path fill="#CCCAC7" id="cpd" d="M189 237c-3.895 0-6.401 4-11 4-8.334 0-15.732-8-19-8h-1l-10-10.5c-4.625-9.249-19-27.463-19-37.5 0-6.832 11 1.556 11 9l-1 9.5c6.523 13.046 20.977 29.5 37.5 29.5 5.061 0 10.775-4 15.5-4l-1 5v1c-1.747 0-2 .253-2 2Z"/><path fill="#CACCC8" id="ml" d="M199 198c0 5.861-5.333 3-8 3 0-1.46-6.472-6-8-6 0-2.431-5.282-5.064-6-6.5-.743-1.487-.981-7.241 2.5-5.5 4.313 2.157 9.615 11 14.5 11l5 4ZM258 198c0 5.99 3.755 3 7 3 3.185 0 5.044-6 8-6l7-7.5c.984-1.969-1.082-5.709-3.5-4.5L263 194l-5 4Z"/><path fill="#CCCAC7" id="cpd" d="M295 235c-4.711 0-8.649 6-16 6-3.642 0-8.008-1.508-10.5-4l-4.5-6v-1l1-1c5.197 0 13.924 6.288 20.5 3 15.521-7.761 31.5-16.142 31.5-37l-1-4.5c1.213-2.426 7.121-9.19 10.5-7.5l1.5 2-1 4-1 2-1 2-2 4v1c-2.109 0-2 2.535-2 4l-1 2-1 2v1l-1 1-1 2-1 2-1 1v1l-1 1-1 2-1 1-1 1v1l-1 1-1 1-1 1-1 1v1c-1.747 0-2 .253-2 2-1.747 0-2 .253-2 2-1.747 0-2 .253-2 2l-2 1-1 1-1 1-2 1Z"/><path fill="#0E9F90" id="ECT6b" d="M396 184h1v-1l-1 1Z"/><path fill="#0E9F91" id="ECT6a" d="m398 183-1 1v-1h1Z"/><path fill="#0E9684" id="PERI6a" d="m397 186 5 1 1-4h-5l-1 1v2Z"/><path fill="#0E9683" id="PERI6b" d="M60 186h1v-1l-2-1 1 2Z"/><path fill="#C7C8CC" id="alv" d="m328 185-1 4c1.638 0 2-3.576 2-5h-1v1Z"/><path fill="#0E9683" id="PERI6b" d="M395 186h2v-2h-1l-1 2Z"/><path fill="#32B824" id="ENTl6a" d="M74 223h1l1-1v-1c0-11.565-15-16.727-15-33v-2h-1l-6 1-1 1c0 4.053 11.156 24.656 14.5 28l5.5 7h1ZM382 223l2 1c0-6.042 19-25.272 19-36l-1-1-5-1h-2v3c0 16.682-15 20.266-15 32l1 1 1 1Z"/><path fill="#31B824" id="ENTl5" d="M70 225c-2.707 0-5.903 1-8 1l-6-9.5c-4-8.001-9-17.979-9-27.5l6-1c0 4.053 11.156 24.656 14.5 28l5.5 7-3 2Z"/><path fill="#A0EE9C" id="EPd" d="M79 219c0 2.293-.997 2-3 2 0-11.565-15-16.727-15-33 3.433 0 4.578 14 10 14v1l8 14v2Z"/><path fill="#FFA6FD" id="SNc" d="M173 205c0 2.33 13 2.914 13 10 0 5.54-7.088.206-9.5-1-6.67-3.335-25.929-23-27.5-23l-1-3 7 1c2.569 0 11.535 16 18 16ZM271 214l-1 1c0 5.243 7.097 1.202 9.5 0 7.175-3.587 15.848-10.195 19.5-17.5 1.076-2.151 5.764-6.5 8-6.5l1-3c-1.819 0-4.591 1-7 1-1.788 0-11.231 16-18 16 0 2.652-12 3.049-12 9Z"/><path fill="#31B824" id="ENTl5" d="m387 225 8 1c0-4.951 15-25.498 15-37l-7-1c0 10.728-19 29.958-19 36 1.048 0 3-.473 3 1Z"/><path fill="#32B725" id="ENTl3" d="m62 226-11 1c-1.758 0-2.301-7.103-3-8.5-2.871-5.743-9-22.225-9-28.5l8-1c0 9.521 5 19.499 9 27.5l6 9.5Z"/><path fill="#FEA6FF" id="RL" d="M230 197h1c0-3.928.866-7-2.5-7-.651 0-1.651-2.198-2.5-.5-1.48 2.96 0 4.893 0 7.5h1c0-2.373 2.284 0 3 0Z"/><path fill="#C7C8CC" id="alv" d="m327 189-1 2 1-2Z"/><path fill="#A0EE9C" id="EPd" d="M377 219c0 2.293.997 2 3 2 0-11.734 15-15.318 15-32l-6 8c0 1.238-.423 3-2 3 0 1.238-.423 3-2 3l-1 2-1 1v1l-6 11v1Z"/><path fill="#32B725" id="ENTl3" d="M395 226c3.776 0 7.581 2 11 2 0-1.607 8.057-29.613 9-31.5l3-6.5-8-1c0 11.502-15 32.049-15 37Z"/><path fill="#32B722" id="ENTl1" d="m44 229-3 2c-2.51 0-3.147-7.794-4-9.5-4.273-8.546-12-21.621-12-31.5h6c0 9.688 5.87 21.239 10 29.5.84 1.68.504 9.5 3 9.5Z"/><path fill="#32B825" id="ENTl2" d="M51 227c0 1.663-5.407 2-7 2-2.496 0-2.16-7.82-3-9.5-4.13-8.261-10-19.812-10-29.5h8c0 6.275 6.129 22.757 9 28.5.699 1.397 1.242 8.5 3 8.5Z"/><path fill="#C8C8C8" id="mtg" d="M223 190c0 1.156-4.033 5.734-1.5 7 1.614.807 3.953-7 1.5-7ZM233 190c0 1.302-.743 7 1.5 7 1.249 0 .415-7-1.5-7Z"/><path fill="#32B825" id="ENTl2" d="m406 228 7 1c0-10.433 12-25.463 12-39h-7l-3 6.5c-.943 1.887-9 29.893-9 31.5Z"/><path fill="#32B722" id="ENTl1" d="m413 229 3 2c0-8.587 15-28.365 15-41h-6c0 13.537-12 28.567-12 39Z"/><path fill="#FF8DFD" id="SNr" d="M187 215c0 4.729 5 8.739 5 14-4.725 0-10.439 4-15.5 4-16.523 0-30.977-16.454-37.5-29.5l1-9.5c.413 0 5.145-3 9-3 1.571 0 20.83 19.665 27.5 23 2.412 1.206 9.5 6.54 9.5 1h1ZM265 227v2c5.197 0 13.924 6.288 20.5 3 15.521-7.761 31.5-16.142 31.5-37l-3.5-4H307c-2.236 0-6.924 4.349-8 6.5-3.652 7.305-12.325 13.913-19.5 17.5-2.403 1.202-9.5 5.243-9.5 0h-1c0 4.264-4 7.497-4 12Z"/><path fill="#C7C8CC" id="alv" d="m326 191-1 2 1-2ZM325 193l-2 4c2.109 0 2-2.535 2-4Z"/><path fill="#FE8DFF" id="VTA" d="M187 215c2.822 0 9 8.34 9 11 8.962 0 20.652-19.197 16-28.5-2.085-4.169-13-3.883-13 .5 0 5.861-5.333 3-8 3 0 1.751-7.426 1-9 1-3.676 0-6.439 3-9 3 0 2.33 13 2.914 13 10h1ZM269 215h1l1-1c0-5.951 12-6.348 12-9-.616 0-4.921-3-8.5-3-1.616 0-9.5.758-9.5-1-3.245 0-7 2.99-7-3-3.162 0-5.334-5.583-10.5-3-4.11 2.055-4.284 15.932-2.5 19.5 1.024 2.048 13.277 11.5 15 11.5 3.356 0 4.532-11 9-11Z"/><path fill="#FF64FF" id="MB" d="M227 197c0 2.202 3 2.202 3 0-.716 0-3-2.373-3 0Z"/><path fill="#C7CAC9" id="fr" d="M217 197v7c0 10.208 8.351-7 0-7Z"/><path fill="#FFA6FF" id="IF" d="M230 197h1c0 3.408 5.108 7.285 3 11.5-2.188 4.375-9.851 3.298-12-1-1.685-3.37 4-7.875 4-10.5h1c0 2.202 3 2.202 3 0Z"/><path fill="#C7CAC9" id="fr" d="m238 197-2 3.5c0 1.972-.199 2.398-1 4-.777 1.554 2.242 3.129 3.5 2.5 2.183-1.091 2.262-10-.5-10Z"/><path fill="#C8CBCC" id="ec" d="M389 197c-1.577 0-2 1.762-2 3 1.577 0 2-1.762 2-3Z"/><path fill="#C7C8CC" id="alv" d="M323 198c-2.109 0-2 2.535-2 4l2-4Z"/><path fill="#C8CBCC" id="ec" d="M387 200c-1.577 0-2 1.762-2 3 1.577 0 2-1.762 2-3Z"/><path fill="#C7C8CC" id="alv" d="m321 202-1 2 1-2Z"/><path fill="#C8CBCC" id="ec" d="m79 217 6 4-4-4.5c-2.23-2.23-7.146-13.5-10-13.5l8 14ZM385 203l-1 2 1-2Z"/><path fill="#C7C8CC" id="alv" d="m320 204-1 2 1-2Z"/><path fill="#C8CBCC" id="ec" d="m384 205-1 1 1-1Z"/><path fill="#C7C8CC" id="alv" d="m319 207-1 1 1-1ZM372 220c-2.849 0-5.459 5-9 5l9.5-8 8.5-10c0 5.398-9 8.674-9 13Z"/><path fill="#C8CBCC" id="ec" d="m372 220 1 1c0-1.712 2.571-3 4-3l6-11h-2c0 5.398-9 8.674-9 13Z"/><path fill="#C7C8CC" id="alv" d="m318 208-1 2 1-2ZM317 210l-1 2 1-2ZM316 212l-1 1 1-1Z"/><path fill="#FF8DFD" id="SNr" d="m271 214-1 1 1-1Z"/><path fill="#C7C8CC" id="alv" d="m315 214-1 1 1-1Z"/><path fill="#FE8FFF" id="MT" d="m191 235-2 2c0 2.13 6.33-1.16 7-2.5 1.688-3.377 0-5.409 0-8.5 0-2.66-6.178-11-9-11 0 4.729 5 8.739 5 14 1.979 0 1.202 5-1 5v1ZM264 230v1c0 3.055 4 4.474 4 6.5 0 1.821-8.22-3.439-9-5l1-6.5c3.356 0 4.532-11 9-11 0 4.264-4 7.497-4 12-1.473 0-1 1.952-1 3Z"/><path fill="#C7C8CC" id="alv" d="m314 215-1 2 1-2ZM313 217l-1 1 1-1ZM312 218l-1 1 1-1Z"/><path fill="#8AD987" id="CTXsp" d="M86 227h5c0-.889-10.421-8-12-8 0 2.293-.997 2-3 2v1c3.539 0 10 .303 10 5ZM381 222c-3.942 0-6.745 2-10 2l2-3 4-2c0 2.293.997 2 3 2l1 1Z"/><path fill="#C7C8CC" id="alv" d="m311 220-1 1 1-1Z"/><path fill="#CCCAC8" id="mp" d="m210 227-1 1c-1.032 0-11.326 2.151-10-.5 1.99-3.98 6.504-3.002 9.5-4.5.849-.425 3.672-3.157 4.5-1.5l-3 5.5ZM243 221c0 10.259 22.671 9.086 10.5 3l-6-1c-2.1-1.05-1.894-2-4.5-2Z"/><path fill="#C7C8CC" id="alv" d="m310 221-1 1 1-1Z"/><path fill="#7DCF4B" id="CA2" d="M333 221c-2.171 0-14 9.491-14 12 3.386 0 14-9.62 14-12Z"/><path fill="#8AD987" id="CTXsp" d="m76 222-1 1 1-1Z"/><path fill="#A0ED9D" id="EPv" d="M75 238h5l2-1c0-3.54 4-7.199 4-10 0-4.697-6.461-5-10-5l-1 1-1 1-1 3 1 6 1 5Z"/><path fill="#C7C8CC" id="alv" d="m309 222-1 1 1-1Z"/><path fill="#A0ED9D" id="EPv" d="m381 238-5 1-2-2c0-2.279-1.309-10-4-10l1-3c3.255 0 6.058-2 10-2l1 1v1l1 1v10l-2 3Z"/><path fill="#99D2BD" id="OLF" d="m70 225 3 2 1-3v-1h-1l-3 2Z"/><path fill="#8AD987" id="CTXsp" d="m75 223-1 1v-1h1Z"/><path fill="#FF493D" id="SUM" d="m197 246 2 1 2-3.5c1.336-2.671 9.732-10.5 12-10.5 3.359 0 10.833-5.834 14.5-4 1.91.955 6.264-.368 9 1l6.5 3c3.62 0 14 10.549 14 14l3-2c0-11.173-13.563-17.031-21.5-21-2.97-1.485-9.15.925-11 0-1.19-.595-3.347-1.826-5-1l-12.5 4-1 1-8 6.5c-2.36 4.72-4 6.79-4 11.5Z"/><path fill="#C7C8CC" id="alv" d="m308 223-1 1 1-1Z"/><path fill="#99D2BD" id="OLF" d="m387 225-4 3v-3l-1-1v-1l2 1c1.048 0 3-.473 3 1Z"/><path fill="#8AD987" id="CTXsp" d="m367 226 3 1 1-3-4 2ZM382 224l1 1-1-1Z"/><path fill="#6ACAB9" id="PIR" d="M73 239c-5.633 0-13.096 24-15 24-2.233 0-4.276-5.052-5-6.5-4.21-8.419-12-15.378-12-25.5l3-2c1.593 0 7-.337 7-2l11-1c2.097 0 5.293-1 8-1l3 2 1 6c-1.684 0-1 4.679-1 6Z"/><path fill="#C7C8CC" id="alv" d="M307 225c-1.747 0-2 .253-2 2l2-2ZM363 225c-1.238 0-3 .423-3 2 1.238 0 3-.423 3-2Z"/><path fill="#6ACAB9" id="PIR" d="M384 239c2.287 0 14 22.459 14 25l5.5-7c4.605-4.605 12.5-18.644 12.5-26l-3-2-7-1c-3.419 0-7.224-2-11-2l-8-1-4 3v7l1 4Z"/><path fill="#9DE69C" id="BLAp" d="M91 247h3c2.359 0 3.698-4 5-4l1-1 1-1 1-1 1-7-8-4-1-1h-1l-1-1h-6c0 2.801-4 6.46-4 10l1 3 8 7Z"/><path fill="#8AD987" id="CTXsp" d="m367 226-1 1 1-1Z"/><path fill="#9DE69C" id="BLAp" d="M363 247h2c1.432 0 9-6.261 9-8v-2c0-2.279-1.309-10-4-10l-3-1-1 1h-2l-1 1-6 3-1 1-3 1c0 2.833 2 4.84 2 7v1c3.05 0 4.483 6 8 6Z"/><path fill="#8AD987" id="CTXsp" d="m92 227 1 1-1-1Z"/><path fill="#FF64FF" id="MB" d="m210 227-1 1 1-1ZM265 229l-1 1c0-1.048-.473-3 1-3v2Z"/><path fill="#C7C8CC" id="alv" d="M305 227c-1.747 0-2 .253-2 2l2-2ZM360 227c-1.856 0-7 1.782-7 4 1.572 0 7-2.052 7-4Z"/><path fill="#8AD987" id="CTXsp" d="m364 227-1 1 1-1ZM94 228l1 1-1-1Z"/><path fill="#FF64FF" id="MB" d="M192 229c1.979 0 1.202 5-1 5l1-5Z"/><path fill="#FD4A3D" id="Mmd" d="M223 243c2.194 0 4.269-2 5.5-2 1.231 0 3.306 2 5.5 2 1.624 0 2.75-2 5-2 0-2.917 4-4.016 4-8l-6.5-3c-2.736-1.368-7.09-.045-9-1-3.667-1.834-11.141 4-14.5 4 0 3.724 5 5.63 5 8l5 2Z"/><path fill="#C7C8CC" id="alv" d="M303 229c-1.747 0-2 .253-2 2l2-2ZM299 232v1l2-2-2 1ZM353 231c-1.465 0-4-.109-4 2l4-2Z"/><path fill="#8AD987" id="CTXsp" d="m357 231-1 1 1-1Z"/><path fill="#99D2BD" id="OLF" d="m75 238-2 1c0-1.321-.684-6 1-6l1 5Z"/><path fill="#8AD987" id="CTXsp" d="m106 238-4 2 1-7 6 3c-1.238 0-3 .423-3 2Z"/><path fill="#7DCD4B" id="HPF" d="M157 235h2v-2h-1l-1 1v1Z"/><path fill="#FC4B3E" id="Mml" d="M199 251c3.985 0 8.355 4 13 4 0-2.044 4.126-14 6-14 0-2.37-5-4.276-5-8-2.268 0-10.664 7.829-12 10.5l-2 3.5v4ZM257 251c0 1.812-10.142 4-12 4l-6-14c0-2.917 4-4.016 4-8 3.62 0 14 10.549 14 14l1 3-1 1Z"/><path fill="#C7C8CC" id="alv" d="M298 234h1v-1h-1v1Z"/><path fill="#7DCF4B" id="CA2" d="M314 237h2l3-4c-1.562 0-5 2.189-5 4Z"/><path fill="#C7C8CC" id="alv" d="M344 235h3l2-2c-1.424 0-5 .362-5 2Z"/><path fill="#8AD987" id="CTXsp" d="m351 238 4 2c0-2.16-2-4.167-2-7l-4 2 2 3Z"/><path fill="#7DCD4B" id="HPF" d="M297 235h2v-1h-2v1Z"/><path fill="#7ECE4A" id="DG-po" d="M299 235c0 1.841 7 3.202 7 1-2.833 0-4.84-2-7-2v1Z"/><path fill="#7BD04A" id="DG-mo" d="m149 243 2 2c3.613 0 6.74 1.88 10.5 0 3.859-1.929 3.568-10-1.5-10 0 6.999-12 6.051-12 0l-4 2 5 6Z"/><path fill="#65A83D" id="DG-sg" d="M159 235h1c0 6.999-12 6.051-12 0l3 1c0 1.852 6 1.495 6-1h2Z"/><path fill="#7ECE4A" id="DG-po" d="m157 235-6 1c0 1.852 6 1.495 6-1Z"/><path fill="#FF64FF" id="MB" d="M191 235c-1.747 0-2 .253-2 2l2-2Z"/><path fill="#7BD04A" id="DG-mo" d="m307 244-1 1c-2.345 0-17.724 1.948-14-5.5 1.014-2.029 3-2.271 3-4.5h2c0 7.312 12 5.582 12 0 1.238 0 3 .423 3 2 0 2.364-3 3.053-3 5l-1 1-1 1Z"/><path fill="#65A83D" id="DG-sg" d="m309 235-3 1c0 2.202-7 .841-7-1h-2c0 7.312 12 5.582 12 0Z"/><path fill="#C7C8CC" id="alv" d="M340 237h2l1-1h1v-1c-1.424 0-5 .362-5 2h1Z"/><path fill="#8AD987" id="CTXsp" d="m348 235-1 1v-1h1Z"/><path fill="#97EC93" id="PA" d="m316 252 6 8c0-5.441 18.379-9 23-9 0-3.118 11.531-2 14-2l-2-2c-4.451 0-8.484-9-6-9l-2-3h-1l-1 1h-4l-1 1h-2l-1 1h-1l-1 1h-1l-2 1-2 1h-1l-2 1-1 1-2 1c-3.719 0-6.111 8-10 8Z"/><path fill="#99D2BD" id="OLF" d="m381 238 3 1-1-4-2 3Z"/><path fill="#97EC93" id="PA" d="m141 252-7 8c0-5.192-17.074-9-22-9l-3.5-2H98l1-2c5.548 0 7-5.696 7-9 0-1.577 1.762-2 3-2h4l1 1 4 1 1 1h2l1 1h1l1 1h2c0 1.577 1.762 2 3 2h1c0 1.42 9.283 9 11 9Z"/><path fill="#8AD987" id="CTXsp" d="m80 238 3 2-1-3-2 1Z"/><path fill="#33B931" id="HATA" d="M149 246c-1.829 0-8 4.808-8 6-1.717 0-11-7.58-11-9l1-1c3.483 0 9-.426 9-5h4l5 6v3ZM308 246l8 6c3.889 0 6.281-8 10-8l-1-2c-3.329 0-9-.978-9-5h-4c0 2.364-3 3.053-3 5l-1 1-1 1 1 2Z"/><path fill="#C7C8CC" id="alv" d="M336 239h1l1-1h1v-1c-1.424 0-5 .362-5 2h2Z"/><path fill="#8AD987" id="CTXsp" d="M374 239h2l-2-2v2Z"/><path fill="#A8ECD2" id="TR" d="M58 263c0 9.88 23.292 16 31 16 0-5.913-2.788-13.923 0-19.5 1.574-3.148 4-5.683 4-9.5l-2-3-8-7-3-2h-5l-2 1c-5.633 0-13.096 24-15 24Z"/><path fill="#84E981" id="BMAp" d="M99 243v4c5.548 0 7-5.696 7-9l-4 2-1 1-1 1-1 1ZM355 241c0 2.043 2 3.957 2 6-4.451 0-8.484-9-6-9l4 2v1Z"/><path fill="#A8ECD2" id="TR" d="M398 264c0 8.672-23.446 15-30 15 0-2.399 1.613-12.274 0-15.5-1.558-3.115-4-8.983-4-12.5l1-4c1.432 0 9-6.261 9-8h2l5-1 3 1c2.287 0 14 22.459 14 25Z"/><path fill="#C7C8CC" id="alv" d="M331 241h1l2-1v-1c-1.424 0-5 .362-5 2h2Z"/><path fill="#8AD987" id="CTXsp" d="m102 240-1 1 1-1ZM101 241l-1 1 1-1Z"/><path fill="#FE4A3C" id="Mmm" d="m212 255 8 1c0-4.194 3-8.329 3-13l-5-2c-1.874 0-6 11.956-6 14Z"/><path fill="#FE493D" id="Mmp" d="M220 256h16c0-4.272-2-8.237-2-13-2.194 0-4.269-2-5.5-2-1.231 0-3.306 2-5.5 2 0 4.671-3 8.806-3 13Z"/><path fill="#FE4A3C" id="Mmm" d="m245 255-9 1c0-4.272-2-8.237-2-13 1.624 0 2.75-2 5-2l6 14Z"/><path fill="#C7C8CC" id="alv" d="M328 242h1v-1l-2 1h1Z"/><path fill="#8AD987" id="CTXsp" d="M359 249h2l2-2c-3.517 0-4.95-6-8-6 0 2.043 2 3.957 2 6l2 2ZM100 242l-1 1 1-1Z"/><path fill="#7DCD4B" id="HPF" d="M129 243h1l1-1h-2v1ZM309 242l-1 1 1-1ZM328 243l-2 1-1-2h3v1Z"/><path fill="#8AD987" id="CTXsp" d="M96 249h2l1-2v-4c-1.302 0-2.641 4-5 4l1 2h1Z"/><path fill="#7DCD4B" id="HPF" d="m151 245-2 1v-3l2 2ZM306 245l2 1-1-2-1 1Z"/><path fill="#E64438" id="HY" d="m259 249-1 1-1-3 3-2-1 4ZM198 250l1 1v-4l-2-1 1 4Z"/><path fill="#99D2BD" id="OLF" d="M93 250h2v-1l-1-2h-3l2 3ZM361 249l3 2 1-4h-2l-2 2Z"/><path fill="#97EC93" id="PA" d="m96 249-1 1v-1h1Z"/><path fill="#5FE6B7" id="COApl" d="M89 279c4.401 0 8.284 5 13.5 5 1.19 0 4.5.614 4.5-1-6.151 0-1.63-22.239 0-25.5l5-6.5-3.5-2H96l-1 1h-2c0 3.817-2.426 6.352-4 9.5-2.788 5.577 0 13.587 0 19.5ZM368 279c-4.274 0-8.161 5-13 5-1.235 0-5 .643-5-1 2.729 0 1.254-5.007 2-6.5 5.016-10.032-7-21.228-7-25.5 0-3.118 11.531-2 14-2h2l3 2c0 3.517 2.442 9.385 4 12.5 1.613 3.226 0 13.101 0 15.5Z"/><path fill="#E64438" id="HY" d="m258 250-1 1 1-1Z"/><path fill="#60E6B5" id="COApm" d="M134 260c0 7.876-19.573 23-27 23-6.151 0-1.63-22.239 0-25.5l5-6.5c4.926 0 22 3.808 22 9ZM322 260c0 7.951 20.111 23 28 23 2.729 0 1.254-5.007 2-6.5 5.016-10.032-7-21.228-7-25.5-4.621 0-23 3.559-23 9Z"/></svg>