<svg xmlns="http://www.w3.org/2000/svg" viewBox="0 0 456 320"><path fill="#FCFB90" id="CUL4, 5" d="M161 130c33.018 0 10.15-33.825 30.5-44 5.094-2.547 9.995-5.498 15-8 4.923-2.462 15.525-.263 21-3 .513-.256 14.9 2.45 16 3l11 1c3.908 1.954 13.827 8.153 16.5 13.5 7.501 15.002-2.283 37.5 24 37.5 0-11.687.718-31.064-4-40.5-2.138-4.276-8-10.626-8-15.5l-5-3.5c-9.268-9.268-4-11.57-4-21.5 0-6.149-11.727-8.114-15.5-10-7.746-3.873-52.245-3.878-60 0-4.5 2.25-15.5 3.085-15.5 10 0 11.435 4.611 11.89-5.5 22l-4.5 4c0 4.53-5.974 11.448-8 15.5-4.004 8.008-4 29.532-4 39.5Z"/><path fill="#FDFB8F" id="SIM" d="m140 105 4-7.5c3.448-6.897 5.605-14.21 9-21v-6c.904-1.807 5.394-10.053 8.5-8.5.089.045-5.695 11.89-6.5 13.5-1.419 2.837-.554 7.107-2 10-6.181 12.362-17.175 44.5 8 44.5 0-9.968-.004-31.492 4-39.5 2.026-4.052 8-10.97 8-15.5 0-5.503 5.011-15.478 2-21.5l-2-2.5c-3.35 0-7.616-5.442-12.5-3-7.689 3.844-28.5 7.94-28.5 20 0 1.937 3.992 8.484 5 10.5v12c1.63 3.26 3 10.907 3 14.5ZM317 105c-3.328 0-4.973-8.447-6-10.5l-6-12c-3.549-7.098.389-15.055-8.5-19.5l-2-2c-2.354 0 3.354 6.208 3.5 6.5 2.248 4.495 2.759 9.518 5 14 6.89 13.78 17.227 48.5-8 48.5 0-11.687.718-31.064-4-40.5-2.138-4.276-8-10.626-8-15.5 0-2.816-.775-7.05-2-9.5-2.202-4.404 2-10.166 2-13.5 1.841 0 3.57-2.035 5.5-3 5.598-2.799 16.789 2.895 21 5 5.012 2.506 8.455 5.455 12.5 9.5 1.016 1.016 2.379 5.5 3 5.5 0 .691-4.175 6.85-5 8.5-.912 1.824-3 25.572-3 28.5Z"/><path fill="#FEFA90" id="DEC" d="m173 51 2 2.5c3.011 6.022-2 15.997-2 21.5l4.5-4c10.111-10.11 5.5-10.565 5.5-22-3.255 0-6.058 2-10 2ZM283 51c0 3.334-4.202 9.096-2 13.5 1.225 2.45 2 6.684 2 9.5l-5-3.5c-9.268-9.268-4-11.57-4-21.5 3.071 0 5.362 2 9 2Z"/><path fill="#CBC9CC" id="arb" fill-rule="evenodd" d="M210 143c0 .994-2.611 5.945-.5 7 2.936 1.468 9.678-1.839 12-3 6.502-3.251 21.263 4.869 25 3v-7c-3.098-1.549-8.895 2-12.5 2h-10c-5.473 0-8.789-2-14-2m3-64c0 2.691-10.566 3.033-12.5 4-6.36 3.18-18.368 18.764-13.5 28.5 1.088 2.175.962 4.925 2 7 5.884 11.768 23.026 18.763 34.5 24.5 7.12 3.56 14.965-3.483 20-6 12.323-6.162 25.5-13.187 25.5-30v-7.5c-7.364-14.727-12.057-13.779-25.5-20.5-1.653-.826-3.81.405-5 1-1.912.956-21.945-1-25.5-1m126 77c7.087 0 13.555 4.027 19.5 7l6 7-.5-3.5c-.514-1.029-7.407-10.5-4-10.5 0-4.879 19.223-5.054 17-9.5-.594-1.188-2.811.155-3.5.5-3.572 1.786-7.475 2.237-11 4-5.843 2.922-25.315-3.658-30-6l-7.5-5c-6.835 0-5.787-16.926-4-20.5l11-13c-.67-1.34-3.673 2.086-4.5 2.5-3.239 1.62-10.5-.751-10.5-4-3.328 0-4.973-8.447-6-10.5l-6-12c-3.549-7.098.389-15.055-8.5-19.5l-2-2c-2.354 0 3.354 6.208 3.5 6.5 2.248 4.495 2.759 9.518 5 14 6.89 13.78 17.227 48.5-8 48.5-26.283 0-16.499-22.498-24-37.5-2.673-5.347-12.592-11.546-16.5-13.5l-11-1c-1.1-.55-15.487-3.256-16-3-5.475 2.737-16.077.538-21 3-5.005 2.502-9.906 5.453-15 8-20.35 10.175 2.518 44-30.5 44-25.175 0-14.181-32.138-8-44.5 1.446-2.893.581-7.163 2-10 .805-1.61 6.589-13.455 6.5-13.5-3.106-1.553-7.596 6.693-8.5 8.5v6c-3.395 6.79-5.552 14.103-9 21l-4 7.5c-2.931 0-3.391 7.554-14.5 2L120 94.5l-1.5-5.5c-1.886 0 2.134 10.769 2.5 11.5 4.709 9.419 16 15.643 16 27 0 3.288-1.257 12.5-6 12.5 0 2.825-5.81 4.155-7.5 5-4.848 2.424-23.867 9.066-30 6l-9-3-4.5-2.5c-3.32 6.639 16 4.469 16 10.5 3.603 0-3.47 10.438-4 11.5l-.5 3.5 8-9c5.541-2.77 11.886-6 18.5-6 5.881 0 12.087 5 15 5 0-4.904-4.579-3.343 0-12.5 3.038-6.076 11.03.5 14.5.5 3.013 0 7.342-2.671 10-4h8l5-6c4.322-2.161 4.5 3.467 4.5 6h6c0-1.947-3.428-3.644-2-6.5 2.157-4.315 24.119 1.238 26 5 5.619 11.238-5 9.822-5 13.5 7.029 0 11.588-6 19-6 0-2.134 18-2.975 18 0 9.058 0 15.379 8 24 8 0-3.108-15.631-3.238-10-14.5 2.032-4.064 24.459-10.081 26-7 1.182 2.364-1 5.696-1 7.5l4.5-1 1.5 2c0-2.883-2.187-5.157 1.5-7 3.295-1.648 4.839 4.919 7 6h9c1.883.942 7.756 5.122 10 4 4.655-2.328 12.021-5.458 15.5 1.5 1.889 3.777-2 7.892-2 10.5 4.273 0 9.531-5 16-5Z"/><path fill="#FCFC90" id="ANcr1" fill-rule="evenodd" d="M119 87c0 3.746 2.091 0 0 0m1-2c0 3.746 2.091 0 0 0m-41 26c6.075 0 14.841.182 18 6.5 2.645 5.291 1.75 14.125 8.5 17.5l25.5 5c4.743 0 6-9.212 6-12.5 0-11.357-11.291-17.581-16-27-.366-.731-4.386-11.5-2.5-11.5l1.5 5.5 5.5 12.5c11.109 5.554 11.569-2 14.5-2 0-3.593-1.37-11.24-3-14.5v-12c-1.008-2.016-5-8.563-5-10.5l-12.5 1c-9.27 4.635-28.998 20.496-32.5 27.5-2.754 5.507-8 7.837-8 14.5ZM334 100c0 .276-3.512 6-1.5 6 .361 0 4.501-6 1.5-6m2-5-1 2.5c-2.811 5.623 5.522-2.5 1-2.5m-1-10 2 4.5v5c.568 1.136 3.051-9.5-2-9.5m42 26c-6.92 0-14.791 1.082-18 7.5-1.65 3.3-1.767 12.633-5.5 14.5-7.37 3.685-19.983 7-28.5 7-6.835 0-5.787-16.926-4-20.5l11-13c-.67-1.34-3.673 2.086-4.5 2.5-3.239 1.62-10.5-.751-10.5-4 0-2.928 2.088-26.676 3-28.5.825-1.65 5-7.809 5-8.5l11.5 1c11.439 5.72 40.5 27.864 40.5 42Z"/><path fill="#FCFB90" id="CUL4, 5" d="M213 79c0 2.691-10.566 3.033-12.5 4-6.36 3.18-18.368 18.764-13.5 28.5 1.088 2.175.962 4.925 2 7 5.884 11.768 23.026 18.763 34.5 24.5 7.12 3.56 14.965-3.483 20-6 12.323-6.162 25.5-13.187 25.5-30v-7.5c-7.364-14.727-12.057-13.779-25.5-20.5-1.653-.826-3.81.405-5 1-1.912.956-21.945-1-25.5-1Z"/><path fill="#CBC9CC" id="arb" d="M120 85c0 3.746 2.091 0 0 0ZM335 85l2 4.5v5c.568 1.136 3.051-9.5-2-9.5ZM119 87c0 3.746 2.091 0 0 0Z"/><path fill="#CBC9CC" id="arb" d="m336 95-1 2.5c-2.811 5.623 5.522-2.5 1-2.5Z"/><path fill="#CBC9CC" id="arb" d="M334 100c0 .276-3.512 6-1.5 6 .361 0 4.501-6 1.5-6Z"/><path fill="#FCFA91" id="ANcr2" d="M96 156c0 1.55-6.228 2.364-7.5 3-1.981.99-12.156 8-12.5 8l-3.5-3h-3c-3.98-1.99-3.002-6.504-4.5-9.5-5.224-10.449-.54-22.92 4-32 1.346-2.693 6.022-11.5 10-11.5 6.075 0 14.841.182 18 6.5 2.645 5.291 1.75 14.125 8.5 17.5l25.5 5c0 2.825-5.81 4.155-7.5 5-4.848 2.424-23.867 9.066-30 6l-9-3-4.5-2.5c-3.32 6.639 16 4.469 16 10.5ZM360 156c2.177 0 20 9.563 20 11l4.5-3c14.836-7.418 8.119-31.262 2.5-42.5-1.676-3.351-6.639-10.5-10-10.5-6.92 0-14.791 1.082-18 7.5-1.65 3.3-1.767 12.633-5.5 14.5-7.37 3.685-19.983 7-28.5 7l7.5 5c4.685 2.342 24.157 8.922 30 6 3.525-1.763 7.428-2.214 11-4 .689-.345 2.906-1.688 3.5-.5 2.223 4.446-17 4.621-17 9.5Z"/><path fill="#FFFCBC" id="FN" d="M186 161h3c0-1.473 1.952-1 3-1l2-1h1l2-1c0-1.473 1.952-1 3-1 0-3.678 10.619-2.262 5-13.5-1.881-3.762-23.843-9.315-26-5-1.428 2.856 2 4.553 2 6.5 0 2.421 2.411 6.678 1 9.5-.628 1.256-2.867 3.267-2 5l5 2.5 1-1ZM268 161h2c6.67 0 6.509-2.481 4-7.5-.756-1.512 1.001-8.5 2-8.5 0-1.804 2.182-5.136 1-7.5-1.541-3.081-23.968 2.936-26 7-5.631 11.262 10 11.392 10 14.5h1c1.357 0 6 .647 6 2Z"/><path fill="#FFFDBC" id="IP" d="M161 171c-6.11 0-13.768 10-22 10 0-3.113 1.75-16-3-16 0-1.429-1.288-4-3-4 0-4.904-4.579-3.343 0-12.5 3.038-6.076 11.03.5 14.5.5 3.013 0 7.342-2.671 10-4h8l5-6c4.322-2.161 4.5 3.467 4.5 6 0 4.648 7.07 7.361 4 13.5-2.563 5.125-9.628.564-13.5 2.5-2.863 1.431 1.838 4.824 1.5 5.5l-5 3.5-1 1ZM308 178c2.933 0 5.321 3 9 3 0-1.738-1.395-16 3-16l3-4c0-2.608 3.889-6.723 2-10.5-3.479-6.958-10.845-3.828-15.5-1.5-2.244 1.122-8.117-3.058-10-4h-9c-2.161-1.081-3.705-7.648-7-6-3.687 1.843-1.5 4.117-1.5 7 0 4.425-8.056 5.389-4 13.5 1.589 3.178 8.473.5 10.5.5 5.598 0 .75 5.001 1.5 6.5l5 4.5 12 6 1 1Z"/><path fill="#CBC8CA" id="cbc" d="M210 143c0 .994-2.611 5.945-.5 7 2.936 1.468 9.678-1.839 12-3 6.502-3.251 21.263 4.869 25 3v-7c-3.098-1.549-8.895 2-12.5 2h-10c-5.473 0-8.789-2-14-2Z"/><path fill="#F0F080" id="CB" d="m173 168-11 2 5-3.5c.338-.676-4.363-4.069-1.5-5.5 3.872-1.936 10.937 2.625 13.5-2.5 3.07-6.139-4-8.852-4-13.5h6c0 2.421 2.411 6.678 1 9.5-.628 1.256-2.867 3.267-2 5l5 2.5c0 1.149-4.516 1.508-5.5 2-1.308.654-5.314 4-6.5 4ZM283 168c4.279 0 8.452 3 12 3l-5-4.5c-.75-1.499 4.098-6.5-1.5-6.5-2.027 0-8.911 2.678-10.5-.5-4.056-8.111 4-9.075 4-13.5l-1.5-2-4.5 1c-.999 0-2.756 6.988-2 8.5 2.509 5.019 2.67 7.5-4 7.5 0 3.588 13 2.872 13 7Z"/><path fill="#FEFA91" id="LING" d="M219 151h18c0-2.975-18-2.134-18 0Z"/><path fill="#FDFC8F" id="NOD" d="M274 175h3l9-4.5-3-2.5c0-4.128-13-3.412-13-7h-2c-1.623 0-6-.005-6-2h-1c-8.621 0-14.942-8-24-8h-18c-7.412 0-11.971 6-19 6 0 1.473-1.952 1-3 1l-2 1h-1l-2 1c0 1.473-1.952 1-3 1h-3l-1 1c0 1.149-4.516 1.508-5.5 2-1.308.654-5.314 4-6.5 4l-3 2.5c0 2.696 10 3.132 10 4.5h3c9.116 0 28.866 5.183 36.5 9 8.267 4.133 21.228-3 28.5-3 0-3.226 3.962-1.231 5.5-2 4.688-2.344 14.249-4 19.5-4h1Z"/><path fill="#FFFB8E" id="PRM" d="M111 174c0 3.795-8 13.186-8 21-2.248 0-5.932 4.284-8.5 3-12.206-6.103-18.5-17.934-18.5-31 .344 0 10.519-7.01 12.5-8 1.272-.636 7.5-1.45 7.5-3 3.603 0-3.47 10.438-4 11.5l-.5 3.5 8-9c5.541-2.77 11.886-6 18.5-6 0 .047-7 15.869-7 18Z"/><path fill="#FFF990" id="COPY" d="M111 174c4.855 0 16.795 18 17 18 0-3.662 8-16.368 8-27 0-1.429-1.288-4-3-4-2.913 0-9.119-5-15-5 0 .047-7 15.869-7 18ZM345 175c-4.347 0-16 13.549-16 17-3.305 0-9-22.774-9-27l3-4c4.273 0 9.531-5 16-5 0 5.939 6 12.413 6 19Z"/><path fill="#FFFB8E" id="PRM" d="M345 175c3.86 0 8 15.716 8 20l8.5 3c12.56-6.28 18.5-16.321 18.5-31 0-1.437-17.823-11-20-11-3.407 0 3.486 9.471 4 10.5l.5 3.5-6-7c-5.945-2.973-12.413-7-19.5-7 0 5.939 6 12.413 6 19Z"/><path fill="#CBC9CC" id="arb" d="M200 157c-1.048 0-3-.473-3 1 1.048 0 3 .473 3-1ZM197 158l-2 1 2-1ZM194 159l-2 1 2-1ZM262 159c1.357 0 6 .647 6 2-1.623 0-6-.005-6-2ZM192 160c-1.048 0-3-.473-3 1 1.048 0 3 .473 3-1Z"/><path fill="#F0F080" id="CB" d="m186 161-1 1 1-1Z"/><path fill="#CBC9CC" id="arb" d="M128 192c0 .893-3.652 5-1 5 0-4.334 12-15.18 12-16 0-3.113 1.75-16-3-16 0 10.632-8 23.338-8 27ZM330 197h1l-2-5c-3.305 0-9-22.774-9-27-4.395 0-3 14.262-3 16 0 .167 12 11.189 12 16h1Z"/><path fill="#A9AAA7" id="V4r" fill-rule="evenodd" d="m125 213-6 6.5 1 4.5c0 18.463 18.136-11 5-11m-3 28h2v-2l1-1c0-3.679 3-6.731 3-10l1-1 1-3 1-2v-1c0-4.453 4-8.197 4-13l-4.5 1c-9.201-4.601 6.698-23.349 12-26 4.209-2.105 13.5-2.12 13.5 4 2.885 0 4.697-2 8-2l1-2c-13.377 0-13.949-5.275-2.5-11 4.342-2.171 12.612 3 17.5 3 0-1.368-10-1.804-10-4.5l3-2.5-11 2-1 1c-6.11 0-13.768 10-22 10 0 .82-12 11.666-12 16 0 5.893-8 15.872-8 17l-2 3 2 17.5 3 6.5ZM327 213c0 3.246 2.527 20.487 7.5 18 6.301-3.151 2.715-18-7.5-18m5 27 3 1c0-7.728 4-15.382 4-24l-1-3c-2.924 0-9-14.412-9-17 0-4.811-12-15.833-12-16-3.679 0-6.067-3-9-3l-1-1-12-6c-3.548 0-7.721-3-12-3l3 2.5-9 4.5c4.888 0 13.158-5.171 17.5-3l4 3c11.66 11.66-6.812 6-12.5 6l2 2h1l11 4c0-3.865 6.534-6.983 10.5-5l10 5c2.766 1.383 10.928 19.536 6 22l-5.5-1 6 17 1 3 1 1c0 3.697 3 6.94 3 11Z"/><path fill="#F0F080" id="CB" d="m162 170-1 1 1-1Z"/><path fill="#A9AAA8" id="chpl" d="M171 181h1c0-2.763 8.651-3 11-3v-3h-3c-4.888 0-13.158-5.171-17.5-3-11.449 5.725-10.877 11 2.5 11 0-1.995 4.377-2 6-2ZM285 181h1c5.688 0 24.16 5.66 12.5-6l-4-3c-4.342-2.171-12.612 3-17.5 3h-3l-1 1c-1.186 0-1.186 1 0 1 1.836 0 12 2.008 12 4Z"/><path fill="#FFFC8D" id="PFL" d="M113 213c1.564 0 3.876 1 6 1 0-1.128 8-11.107 8-17-2.652 0 1-4.107 1-5-.205 0-12.145-18-17-18 0 3.795-8 13.186-8 21 0 7.245 10 12.425 10 18Z"/><path fill="#AAA9A7" id="V4" d="M218 194c0 .79 13 18.603 13 8-8.305 0-8.019-5.519-13-10.5-.872-.872-4.477-6.511-2.5-7.5.522-.261 17.699 1 20.5 1l5.5-1-.5 4 7-7c-7.272 0-20.233 7.133-28.5 3-7.634-3.817-27.384-9-36.5-9v4l5 1c10.261 0 21.425-2.649 27 8.5l3 5.5ZM268 180h1l1-1h3v-2c-1.186 0-1.186-1 0-1v-1c-5.251 0-14.812 1.656-19.5 4-1.538.769-5.5-1.226-5.5 2 2.721 0 6.171-.836 8.5-2l11.5 1Z"/><path fill="#A9AAA7" id="V4r" d="m274 175-1 1v-1h1Z"/><path fill="#FFFC8D" id="PFL" d="M338 214h4l1-1c1.29 0 10-14.912 10-18 0-4.284-4.14-20-8-20-4.347 0-16 13.549-16 17l2 5c0 1.186-1 1.186-1 0h-1c0 2.588 6.076 17 9 17Z"/><path fill="#A9AAA7" id="V4r" d="M283 181h2c0-1.992-10.164-4-12-4v2h1l2 1h3l2 1h2Z"/><path fill="#F0F080" id="CB" d="m307 177 1 1-1-1Z"/><path fill="#A9AAA7" id="V4r" d="M173 181h3l1-1h3c0-1.473 1.952-1 3-1v-1c-2.349 0-11 .237-11 3h1Z"/><path fill="#FF9BCD" id="MY" d="M183 179c-1.048 0-3-.473-3 1 1.048 0 3 .473 3-1Z"/><path fill="#FEB1D9" id="SPIV" d="M184 206c-5.635 0-10.668 3-17 3l-4-3c0-4.502 2.993-9-4-9 0-3.256-3.009-3.483-1-7.5l6-4.5c1.238 0 3-.423 3-2h1c1.048 0 3 .473 3-1l2-1h3l1-1h3c1.048 0 3 .473 3-1l5 1c0 9.363-3 17.525-3 25l-1 1Z"/><path fill="#FFB0D7" id="MV" d="M210 209c-.038 0-2.371 2-7 2l-6.5-4c-1.743-.871-9.837-1-11.5-1v-1c0-7.475 3-15.637 3-25 10.261 0 21.425-2.649 27 8.5l3 5.5-3 3.5v3l-5 8.5ZM246 209l3.5 3 4.5-1c0-4.122 14.101-5 17-5l1-1-3-8.5-1-16.5-11.5-1c-2.329 1.164-5.779 2-8.5 2l-7 7-2 6 7 15Z"/><path fill="#FF9BCD" id="MY" d="m270 179-1 1 1-1Z"/><path fill="#FEB1D9" id="SPIV" d="M273 206c5.355 0 10.063 3 16 3 1.896 0 4-2.077 4-4 0-3.597-2.061-8 4-8 0-1.947 3.428-3.644 2-6.5l-10-7.5h-1c-1.041 0-5-.986-5-2h-2l-2-1h-3l-2-1h-4l-1 1h-1l1 16.5 3 8.5 1 1Z"/><path fill="#FF9BCD" id="MY" d="m274 179 2 1-2-1ZM177 180l-1 1 1-1ZM279 180l2 1-2-1Z"/><path fill="#A9AAA7" id="V4r" d="M167 183h1c0-1.473 1.952-1 3-1v-1c-1.623 0-6 .005-6 2h2Z"/><path fill="#FF9BCD" id="MY" d="m173 181-2 1v-1h2ZM286 181l2 2c-1.041 0-5-.986-5-2h3Z"/><path fill="#FEA5D1" id="DCO" d="m139 205-4 3-4.5 1c-9.201-4.601 6.698-23.349 12-26 4.209-2.105 13.5-2.12 13.5 4 0 4.345-7 5.993-7 8l-2 1-1 1-1 1-1 1-1 1-1 1-1 1c-1.577 0-2 1.762-2 3Z"/><path fill="#FF9BCD" id="MY" d="M171 182c-1.048 0-3-.473-3 1 1.048 0 3 .473 3-1Z"/><path fill="#FEA5D1" id="DCO" d="M308 195c2.79 0 13 11.264 13 13l5.5 1c4.928-2.464-3.234-20.617-6-22l-10-5c-3.966-1.983-10.5 1.135-10.5 5 0 4.578 7 4.714 7 8h1Z"/><path fill="#FF9BCD" id="MY" d="M167 183c0 1.577-1.762 2-3 2l1-2h2ZM292 215c15.646 0 21.117 11.734 27 23.5 1.323 2.645.643 6.286 2 9 1.789 3.578-2 8.818-2 12.5 1.59 0 1.443-4.386 2-5.5 3.475-6.949-.985-19.97-4-26-1.932-3.864-19.31-19.595-15.5-21.5 4.907-2.453 9.444 7 13.5 7 0-4.971-21.71-19-8-19 0-3.286-7-3.422-7-8l-11-4 10 7.5c1.428 2.856-2 4.553-2 6.5 6.318 0 8.011 7.244 2.5 10-2.856 1.428-4.553-2-6.5-2 0 1.923-2.104 4-4 4 0 1.349 3 3.085 3 6Z"/><path fill="#A9AAA8" id="chpl" d="m232 201-1 1c-8.305 0-8.019-5.519-13-10.5-.872-.872-4.477-6.511-2.5-7.5.522-.261 17.699 1 20.5 1l5.5-1-.5 4c-1.948 0-4 5.428-4 7l-1 1-1 1-1 2-1 1-1 1Z"/><path fill="#FF9BCD" id="MY" d="M157 276c-2.124 0-4.436 1-6 1l-5-2v-1c1.918 0 4.981 1.539 6-.5 1.096-2.193-8.192-5.846-9.5-6.5-6.032-3.016-5.216-9.931-7.5-14.5-.662-1.324-1.897-4.206-1-6 3.674-7.349 5.066-16.132 9-24l11-11c.68-.68 2.955-3.773 1.5-4.5-5.045-2.522-8.544 6-12.5 6 0-6.269 20.331-18 6-18 0-2.007 7-3.655 7-8 2.885 0 4.697-2 8-2l-6 4.5c-2.009 4.017 1 4.244 1 7.5-2.318 0-9.306 6.097-5.5 8 4.029 2.015 5.596 1 9.5 1l4 3c0 1.732-2 1.808-2 6-21.035 0-21.808 14.117-29 28.5-4.705 9.411 4.479 23.5 14 23.5 0 4.431 5.571 5 9 5l2 1-4 3Z"/><path fill="#AAA9A7" id="V4" d="m239 194-2 1c0-1.572 2.052-7 4-7l-2 6Z"/><path fill="#FFB3D7" id="PRP" d="M234 211h11l1-2-7-15-2 1-1 1-1 1-1 2-1 1-1 1-1 1c0 10.603-13-7.21-13-8l-3 3.5v3l-5 8.5 1 2h23Z"/><path fill="#FF9BCD" id="MY" d="m149 195-2 1 2-1Z"/><path fill="#C9C9C8" id="icp" d="M146 274v1c-2.506 0-7.313-3-13-3l-6-6v-1l-2-3v-1c0-1.041-.986-5-2-5v-4c0-3.806 1-7.751 1-11v-2l1-1c0-3.679 3-6.731 3-10l1-1 1-3 1-2v-1c2.324 0 8-13.808 8-16 1.577 0 2-1.762 2-3l1-1 1-1 1-1 1-1 1-1 1-1 2-1c14.331 0-6 11.731-6 18h-1c-3.432 0-5.832 11.164-7 13.5-6.833 13.665-8.32 30.68 3.5 42.5l7.5 5Z"/><path fill="#AAA9A7" id="V4" d="m237 195-1 1 1-1Z"/><path fill="#C9C9C8" id="icp" d="M323 272c-3.269 0-6.321 1-10 1l6-4.5 5-6 3-9c2.084-4.168-4.152-26.303-6-30-1.042-2.084-6-8.265-6-9.5 0-4.971-21.71-19-8-19h1l3 2.5 8 11c1.073 2.146 6.641 16.5 8 16.5l1 3 1 1c0 3.697 3 6.94 3 11 0 4.594 1 10.741 1 16v2l-1 2-1 2v1l-1 2-1 1v1c-1.747 0-2 .253-2 2l-1 1-1 1-2 1Z"/><path fill="#FF9BCD" id="MY" d="m321 208 6 17c-1.359 0-6.927-14.354-8-16.5l-8-11-3-2.5c2.79 0 13 11.264 13 13ZM147 196l-1 1 1-1Z"/><path fill="#AAA9A7" id="V4" d="m236 196-1 1 1-1Z"/><path fill="#FF9BCD" id="MY" d="m146 197-1 1 1-1Z"/><path fill="#FFB0D9" id="x" d="M159 197c6.993 0 4 4.498 4 9-3.904 0-5.471 1.015-9.5-1-3.806-1.903 3.182-8 5.5-8Z"/><path fill="#AAA9A7" id="V4" d="m235 197-1 2 1-2Z"/><path fill="#FFB0D9" id="x" d="M297 197c6.318 0 8.011 7.244 2.5 10-2.856 1.428-4.553-2-6.5-2 0-3.597-2.061-8 4-8Z"/><path fill="#F0F080" id="CB" d="M330 197h1c0 1.186-1 1.186-1 0Z"/><path fill="#FF9BCD" id="MY" d="m145 198-1 1 1-1Z"/><path fill="#FFFC8D" id="PFL" d="m72 199-6 3.5c-2.592 2.592-6.183 11.634-4 16 4.257 8.513-1.299 21.403 3 30 3.287 6.575 20.027 11.947 25 2 9.906-19.812 11.797-51.5-18-51.5Z"/><path fill="#FF9BCD" id="MY" d="m144 199-1 1 1-1Z"/><path fill="#AAA9A7" id="V4" d="m234 199-1 1 1-1Z"/><path fill="#FFFC8D" id="PFL" d="M377 199c0 .886-10.118 5.309-11.5 6-3.903 1.952-3.611 8.723-5.5 12.5-1.401 2.801-.167 11.667 1 14v6c5.121 10.242 9.297 24.101 24.5 16.5 8.868-4.434 7.5-15.488 7.5-24.5 0-15.056 5.885-30.5-16-30.5Z"/><path fill="#FF9BCD" id="MY" d="m143 200-1 1 1-1Z"/><path fill="#AAA9A7" id="V4" d="m233 200-1 1 1-1Z"/><path fill="#FF9BCD" id="MY" d="m142 201-1 1 1-1Z"/><path fill="#AAA9A7" id="V4" d="m232 201-1 1 1-1Z"/><path fill="#FF9BCD" id="MY" d="M141 202c-1.577 0-2 1.762-2 3 1.577 0 2-1.762 2-3ZM135 208c0 4.803-4 8.547-4 13 2.324 0 8-13.808 8-16l-4 3ZM184 206h1v-1l-1 1ZM271 206h2l-1-1-1 1Z"/><path fill="#FDA5D1" id="NTS" d="M169 218c3.275 0 2.49 3 6 3 5.355 0 11.19-4 17-4 2.933 0 5.321-3 9-3l2-3-6.5-4c-1.743-.871-9.837-1-11.5-1h-1c-5.635 0-10.668 3-17 3 0 1.732-2 1.808-2 6l4 3ZM286 219l-4 2c-5.703 0-10.987-4-17-4-3.403 0-5.952-3-10-3l-1-3c0-4.122 14.101-5 17-5h2c5.355 0 10.063 3 16 3 0 1.349 3 3.085 3 6l-2 1-1 1h-1l-1 1-1 1Z"/><path fill="#C8CACA" id="sptV" d="M143 213c3.956 0 7.455-8.522 12.5-6 1.455.727-.82 3.82-1.5 4.5l-11 11c-3.934 7.868-5.326 16.651-9 24-.897 1.794.338 4.676 1 6 2.284 4.569 1.468 11.484 7.5 14.5 1.308.654 10.596 4.307 9.5 6.5-1.019 2.039-4.082.5-6 .5l-7.5-5c-11.82-11.82-10.333-28.835-3.5-42.5 1.168-2.336 3.568-13.5 7-13.5 0 1.186 1 1.186 1 0ZM313 273l-2 1-3.5 1c-2.85 1.425-2.44-3.78 0-5 1.69-.845 7.5-2.175 7.5-5l1-1 1-1c1.577 0 2-1.762 2-3 1.59 0 1.443-4.386 2-5.5 3.475-6.949-.985-19.97-4-26-1.932-3.864-19.31-19.595-15.5-21.5 4.907-2.453 9.444 7 13.5 7 0 1.235 4.958 7.416 6 9.5 1.848 3.697 8.084 25.832 6 30l-3 9-5 6-6 4.5Z"/><path fill="#FF9BCD" id="MY" d="m201 214 7 2c2.173 0-.232-5 3-5l-1-2c-.038 0-2.371 2-7 2l-2 3ZM255 214c-2.971 0-4.768 3-7 3 0-1.738-.686-6-3-6l1-2 3.5 3 4.5-1 1 3ZM227 235c0 1.919 2 2.488 2 0v-17.5c0-1.163-.549-5.5 1.5-5.5 2.633 0 .5 9.165.5 11l4-2c0-3.099-1-7.086-1-10h-11c0 4.283-1 6.715-1 10l3 1v-4.5c0-.312.014-8.972 2-5 2.609 5.219-1.666 13.668 1 19 .472.945.156 3.5-1 3.5Z"/><path fill="#FCB3D8" id="PGRNd" d="M222 221c-3.962 0-8.688 1-12 1l-1-1-1-5c2.173 0-.232-5 3-5h12c0 4.283-1 6.715-1 10ZM235 221c4.107 0 8.469 1 12 1l1-5c0-1.738-.686-6-3-6h-11c0 2.914 1 6.901 1 10Z"/><path fill="#CBCBCC" id="mlf" d="M225 222c0 2.088.318 13 2 13 1.156 0 1.472-2.555 1-3.5-2.666-5.332 1.609-13.781-1-19-1.986-3.972-2 4.688-2 5v4.5ZM231 223c0 2.293.983 12-2 12v-17.5c0-1.163-.549-5.5 1.5-5.5 2.633 0 .5 9.165.5 11Z"/><path fill="#F0F080" id="CB" d="m119 214-2 3c-1.366 0-4-2.366-4-4 1.564 0 3.876 1 6 1Z"/><path fill="#A9AAA8" id="chpl" d="m125 213-6 6.5 1 4.5c0 18.463 18.136-11 5-11Z"/><path fill="#FF9BCD" id="MY" d="M142 213h1c0 1.186-1 1.186-1 0Z"/><path fill="#A9AAA8" id="chpl" d="M327 213c0 3.246 2.527 20.487 7.5 18 6.301-3.151 2.715-18-7.5-18Z"/><path fill="#F0F080" id="CB" d="m343 213-1 1 1-1Z"/><path fill="#FFB2D8" id="IRN" d="M176 264c2.014 0 5.932-2.284 8.5-1 2.031 1.016 6.247 2 8.5 2 0-3.963 2.391-5.282 4-8.5 3.872-7.744 12-25.864 12-34.5v-1l-1-5-7-2c-3.679 0-6.067 3-9 3l-21 42c3.115 0 4 .885 4 4l1 1ZM281 264c-2.421 0-6.678-2.411-9.5-1-2.031 1.016-6.247 2-8.5 2 0-11.908-16-29.619-16-43l1-5c2.232 0 4.029-3 7-3 4.048 0 6.597 3 10 3 0 9.601 20 34.189 20 42-2.226 0-4 1.774-4 4v1Z"/><path fill="#F0F080" id="CB" d="M342 214c0 1.658-1.461 3-3 3l-1-3h4Z"/><path fill="#FDA5D2" id="SPVI" d="M171 223c0 10.47-10.936 12.373-15 20.5-2.402 4.804 2.321 23.5-6 23.5-9.521 0-18.705-14.089-14-23.5 7.192-14.383 7.965-28.5 29-28.5l4 3c0 1.624 2 2.75 2 5ZM315 265c-2.846 0-5.382 2-9 2-7.46 0-3.832-20.163-6-24.5-4.182-8.364-15-9.119-15-19.5 1.579 0 1-2.855 1-4l1-1 1-1h1l1-1 2-1c15.646 0 21.117 11.734 27 23.5 1.323 2.645.643 6.286 2 9 1.789 3.578-2 8.818-2 12.5-1.577 0-2 1.762-2 3l-1 1-1 1Z"/><path fill="#FF9BCD" id="MY" d="m290 216-1 1 1-1Z"/><path fill="#FCB3D9" id="PARN" d="M150 267c0 4.431 5.571 5 9 5 0-1.851 6.961-7 8-7l1-1 3-5 21-42c-5.81 0-11.645 4-17 4l-4 2c0 10.47-10.936 12.373-15 20.5-2.402 4.804 2.321 23.5-6 23.5ZM306 267c0 6.081-5.563 4-9 4l-8-6c0-1.334-2.972-6-4-6 0-7.811-20-32.399-20-42 6.013 0 11.297 4 17 4 0 1.577 1.762 2 3 2 0 10.381 10.818 11.136 15 19.5 2.168 4.337-1.46 24.5 6 24.5Z"/><path fill="#FF9BCD" id="MY" d="m288 217-1 1 1-1ZM175 221l-4 2c0-2.25-2-3.376-2-5 3.275 0 2.49 3 6 3ZM287 218l-1 1 1-1ZM282 221c0 1.577 1.762 2 3 2 1.579 0 1-2.855 1-4l-4 2ZM209 222h1l-1-1v1Z"/><path fill="#FEB0D8" id="GRN" d="M196 278h6c0-10.973 10.264-17 19-17 1.781 0 1.348-6.197 2-7.5.796-1.592 4-5.896 4-1.5l2-2c4.123 0 6 7.819 6 11 7.559 0 20 5.477 20 16 0 1.666 5 3.135 5 0-3.75 0-5.424-12 3-12 0-11.908-16-29.619-16-43-3.531 0-7.893-1-12-1l-4 2c0 2.293.983 12-2 12 0 2.488-2 1.919-2 0-1.682 0-2-10.912-2-13l-3-1c-3.962 0-8.688 1-12 1h-1c0 8.636-8.128 26.756-12 34.5-1.609 3.218-4 4.537-4 8.5 13.786 0 3 10.451 3 13Z"/><path fill="#FF9BCD" id="MY" d="m131 222-1 2 1-2ZM129 227l-1 1 1-1ZM328 228l1 1-1-1ZM125 238l-1 1 1-1ZM335 241c0 1.59-1.103 15-2 15 0-5.259-1-11.406-1-16l3 1ZM124 241c0 3.249-1 7.194-1 11-1.841 0-1-10.548-1-11h2Z"/><path fill="#C8C8CC" id="tspc" d="M226 268c-1.624 0-2.75 2-5 2v-9c1.781 0 1.348-6.197 2-7.5.796-1.592 4-5.896 4-1.5v14l-1 1v1Z"/><path fill="#FEC6E2" id="RO" d="M227 273h2l1-1v-5c0-5.22-1-11.211-1-17l-2 2v14l-1 1v1l1 4v1Z"/><path fill="#C8C8CC" id="tspc" d="M230 267c1.312 0 2.446 3 5 3v-9c0-3.181-1.877-11-6-11 0 5.789 1 11.78 1 17Z"/><path fill="#FF9BCD" id="MY" d="M123 256c1.014 0 2 3.959 2 5-1.638 0-2-3.576-2-5ZM333 258l-1 2 1-2Z"/><path fill="#FEB3D6" id="AMBd" d="M175 264c0 3.472-5.853 1-7 1v-1l3-5c3.115 0 4 .885 4 4v1ZM282 265h7c0-1.334-2.972-6-4-6-2.226 0-4 1.774-4 4l1 2Z"/><path fill="#FDB2D9" id="MARN" d="M221 270c0 3.657-10.999 7.75-13.5 9-1.956.978-4.077-1-5.5-1 0-10.973 10.264-17 19-17v9ZM235 270l2.5 3c3.744 1.872 7.207 4.104 11 6 2.856 1.428 4.553-2 6.5-2 0-10.523-12.441-16-20-16v9Z"/><path fill="#FF9BCD" id="MY" d="M319 260c-1.577 0-2 1.762-2 3 1.577 0 2-1.762 2-3ZM332 260l-1 2 1-2ZM125 262l2 3c-1.577 0-2-1.762-2-3ZM175 264h1l-1-1v1Z"/><path fill="#FCB2D9" id="PGRNl" d="m196 278-11.5 11c-4.293 2.146-7.321-4-10.5-4-3.83 0-6.292-12-13-12l-2-1c0-1.851 6.961-7 8-7h1c1.147 0 7 2.472 7-1h1c2.014 0 5.932-2.284 8.5-1 2.031 1.016 6.247 2 8.5 2 13.786 0 3 10.451 3 13ZM260 277c.332 0 9.016 10.758 11.5 12 4.636 2.318 7.183-4 10.5-4 6.716 0 6.298-12 13-12 1.747 0 2-.253 2-2l-8-6h-7l-1-1c-2.421 0-6.678-2.411-9.5-1-2.031 1.016-6.247 2-8.5 2-8.424 0-6.75 12-3 12Z"/><path fill="#FF9BCD" id="MY" d="m281 264 1 1-1-2v1ZM317 263l-1 1 1-1ZM331 263l-1 2 1-2ZM167 265h1v-1l-1 1ZM316 264l-1 1 1-1ZM299 277h6l6-2v-1l-3.5 1c-2.85 1.425-2.44-3.78 0-5 1.69-.845 7.5-2.175 7.5-5-2.846 0-5.382 2-9 2 0 6.081-5.563 4-9 4 0 1.747-.253 2-2 2 0 3.041 4 .766 4 4ZM330 265l-1 1 1-1ZM133 272l1 2c-1.782 0-7-6.482-7-8l6 6ZM227 266l-1 1 1-1ZM280 293c0 2.334-4.181 1.341-5.5 2-6.85 3.425-17.436 5-25.5 5 0-1.816 2.702-2.096 1-5.5l-5-5.5 6 3.5-5.5-6.5c4.57 0 8.278 10.639 9 11 1.392.696 4.888-1.277 5.5-2.5l-.5-3.5c2.224 0 6.5 3.724 6.5 1.5 0-1.239-21.796-14.148-24.5-15.5-2.729-1.365-3.66 2.67-5 2-3.259-1.629-1.406-7-6.5-7v-5c1.312 0 2.446 3 5 3l2.5 3c3.744 1.872 7.207 4.104 11 6 2.856 1.428 4.553-2 6.5-2 0 1.666 5 3.135 5 0 .332 0 9.016 10.758 11.5 12 4.636 2.318 7.183-4 10.5-4 0 4.442 4.826 0 7 0 0 1.658-14.269 8-9 8ZM329 267c-1.747 0-2 .253-2 2l2-2Z"/><path fill="#FF9BCD" id="MY" fill-rule="evenodd" d="M205 292c0 1.93 1.93 0 0 0m-28 1c0 2.334 4.181 1.341 5.5 2 5.625 2.812 14.99 5 21.5 5 1.242 0 9 2.558 9 0-11.936 0-5-2.507-5-8-3.419 0 .035-3-1.5-3-4.708 0-2.469 10.266-7 8-2.341-1.17-2.701-4.85-3-5-.987-.493-4.411 2.679-5.5.5-.296-.592 6.349-4.925 7.5-5.5 5.638-2.819 10.453-7.227 16-10 2.727-1.363 4.257 2 5 2 2.772 0 2.947-7 7.5-7l-1-4c-1.624 0-2.75 2-5 2 0 3.657-10.999 7.75-13.5 9-1.956.978-4.077-1-5.5-1h-6l-11.5 11c-4.293 2.146-7.321-4-10.5-4 0 4.182-3.011 0-7 0 0 3.016 7.643 4.071 9.5 5 .987.493 2.617 3 .5 3Z"/><path fill="#FF9BCD" id="MY" d="m327 269-1 1 1-1ZM326 270l-1 1 1-1Z"/><path fill="#C9CACA" id="sctd" d="m149 281 7 2c0-2.028-5-2.014-5-6l-5-2c-2.506 0-7.313-3-13-3l1 2 2 1h1l1 1 1 1h1l3 1 1 1 4 2h1ZM303 283h1c0-1.577 1.762-2 3-2h2c0-1.577 1.762-2 3-2h1l1-1 1-1h2l2-1 1-1h1l1-1 1-1v-1c-3.269 0-6.321 1-10 1l-2 2-6 2c0 3.233-4 4.452-4 6h2Z"/><path fill="#FF9BCD" id="MY" d="M323 272v1c1.747 0 2-.253 2-2l-2 1Z"/><path fill="#FFB3D8" id="IO" fill-rule="evenodd" d="M208 287c0 4.136 2.609 0 0 0m8-1c0 1.93 1.93 0 0 0m-5 0c0 1.93 1.93 0 0 0m10-3c0 1.93 1.93 0 0 0m-12 8-1 1c-3.419 0 .035-3-1.5-3-4.708 0-2.469 10.266-7 8-2.341-1.17-2.701-4.85-3-5-.987-.493-4.411 2.679-5.5.5-.296-.592 6.349-4.925 7.5-5.5 5.638-2.819 10.453-7.227 16-10 2.727-1.363 4.257 2 5 2 2.772 0 2.947-7 7.5-7v6l-1 1c-1.707 0-6.393 4 1 4v2l-1 1-5.5 4c-3.892 1.946-4.5-.888-4.5-2.5 0-1.454-3 .365-3 1.5h-1l-1 1-2 1Z"/><path fill="#FF9BCD" id="MY" d="m230 272-1 1 1-1Z"/><path fill="#FFB3D8" id="IO" fill-rule="evenodd" d="M239 286c0 1.93 1.93 0 0 0m5 3h1l6 3.5-5.5-6.5c4.57 0 8.278 10.639 9 11 1.392.696 4.888-1.277 5.5-2.5l-.5-3.5c2.224 0 6.5 3.724 6.5 1.5 0-1.239-21.796-14.148-24.5-15.5-2.729-1.365-3.66 2.67-5 2-3.259-1.629-1.406-7-6.5-7l-1 1c0 2.518 2 4.286 2 6v1l3.5 4-4.5-2v4c1.94 0 6.313 4 11 4 0-3.323 3-3.04 3-1Z"/><path fill="#C8C8CB" id="rust" d="M167 285c3.989 0 7 4.182 7 0-3.83 0-6.292-12-13-12l-4 3c0 1.539 4 2.187 4 5 1.562 0 5 2.189 5 4h1Z"/><path fill="#FF9BCD" id="MY" d="m227 277 4 2c0-1.714-2-3.482-2-6h-2v4Z"/><path fill="#C8C8CB" id="rust" d="M289 285h1l1-1 4-3 4-4c0-3.234-4-.959-4-4-6.702 0-6.284 12-13 12 0 4.442 4.826 0 7 0Z"/><path fill="#C9C9C8" id="icp" d="M311 274v1l2-2-2 1Z"/><path fill="#FF9BCD" id="MY" d="m323 273-1 1 1-1ZM322 274l-1 1 1-1ZM137 275v1l-1-1h1Z"/><path fill="#C9C9C8" id="icp" d="M137 276h1l-1-1v1Z"/><path fill="#FF9BCD" id="MY" d="m320 275-1 1 1-1ZM138 276l1 1-1-1Z"/><path fill="#FEB0D9" id="LRNp" d="M157 283h4v-2c0-2.813-4-3.461-4-5-2.124 0-4.436 1-6 1 0 3.986 5 3.972 5 6h1ZM299 283h2c0-1.548 4-2.767 4-6h-6l-4 4v2h4Z"/><path fill="#FF9BCD" id="MY" d="m319 276-2 1 2-1ZM143 278v1c-1.238 0-3-.423-3-2l3 1Z"/><path fill="#FFC6E2" id="RPA" d="M226 286c0 4.12 4 4.12 4 0v-1c-1.399 0-1.399-2 0-2v-1l1-2v-1l-4-2v1l-1 1 1 4v2l-1 1Z"/><path fill="#C9C9C8" id="icp" d="M314 278h1v-1l-1 1Z"/><path fill="#FF9BCD" id="MY" d="m317 277-2 1v-1h2Z"/><path fill="#C9C9C8" id="icp" d="M143 279h1l-1-1v1Z"/><path fill="#FF9BCD" id="MY" d="m227 278-1 1 1-1ZM315 278l-2 1 1-1h1ZM144 279l4 2-4-2ZM226 279c-1.707 0-6.393 4 1 4l-1-4ZM312 279c-1.238 0-3 .423-3 2 1.238 0 3-.423 3-2ZM231 280l3.5 4-4.5-2 1-2ZM157 283l19 10c-6.615 0-15.742-6.121-21.5-9l-5.5-3 7 2h1ZM161 283l5 2c0-1.811-3.438-4-5-4v2ZM295 283l-4 1 4-3v2ZM307 281c-1.238 0-3 .423-3 2 1.238 0 3-.423 3-2Z"/><path fill="#CBC7CC" id="sctv" d="M176 293h1c2.117 0 .487-2.507-.5-3-1.857-.929-9.5-1.984-9.5-5h-1l-5-2h-4l19 10Z"/><path fill="#FF9BCD" id="MY" d="M221 283c0 1.93 1.93 0 0 0ZM230 283c-1.399 0-1.399 2 0 2v-2Z"/><path fill="#CBC7CC" id="sctv" d="M280 293h1l2-1 2-1c0-1.817 7.169-4 9-4 0-2.109 2.535-2 4-2l1-2h-4l-4 1-1 1h-1c0 1.658-14.269 8-9 8Z"/><path fill="#FF9BCD" id="MY" d="M303 283c0 1.638-3.576 2-5 2l1-2h4ZM291 284l-1 1 1-1ZM227 285l-1 1 1-1ZM298 285c-1.465 0-4-.109-4 2 1.465 0 4 .109 4-2ZM211 286c0 1.93 1.93 0 0 0ZM216 286c0 1.93 1.93 0 0 0Z"/><path fill="#FF9BCD" id="MY" d="M218 299c4.617 0 9.845-7 10.5-7l1 3 8.5 4c0-1.918-5.287-2.927-4-5.5l7-3.5c-4.687 0-9.06-4-11-4 0 4.12-4 4.12-4 0l-5.5 4c-3.892 1.946-4.5-.888-4.5-2.5 0-1.454-3 .365-3 1.5 1.058 0 10.305 4.891 10 5.5l-5 4.5ZM239 286c0 1.93 1.93 0 0 0ZM208 287c0 4.136 2.609 0 0 0ZM244 289l-3 1c0-3.323 3-3.04 3-1ZM294 287c-1.831 0-9 2.183-9 4 1.831 0 9-2.183 9-4ZM212 289l-1 1 1-1Z"/><path fill="#C7C9C9" id="py" d="M213 300h1c0-1.473 1.952-1 3-1h1l5-4.5c.305-.609-8.942-5.5-10-5.5h-1l-1 1-2 1-1 1c0 5.493-6.936 8 5 8ZM240 299l9 1c0-1.816 2.702-2.096 1-5.5l-5-5.5h-1l-3 1-7 3.5c-1.287 2.573 4 3.582 4 5.5h2Z"/><path fill="#FF9BCD" id="MY" d="m211 290-2 1 2-1ZM209 291l-1 1 1-1ZM285 291l-2 1 2-1Z"/><path fill="#FFB3D8" id="IO" d="M205 292c0 1.93 1.93 0 0 0Z"/><path fill="#FF9BCD" id="MY" d="m283 292-2 1 2-1ZM217 299c-1.048 0-3-.473-3 1 1.048 0 3 .473 3-1ZM240 299l9 1c0 2.308-9 .633-9-1Z"/></svg>