<svg xmlns="http://www.w3.org/2000/svg" viewBox="0 0 456 320"><path fill="#1BA598" id="RSPd1" d="M221 29h1l2-2c0-5.35-9.741-12.12-13.5-14-2.005-1.003-4.888.056-7-1-1.494-.747-11.5-.214-11.5 1v4h1c7.922 0 28-1.687 28 12ZM234 29h1c0-2.859 2.849-3.197 4-5.5 4.834-9.667 16.342-6.5 25-6.5 0-1.374-.374-4 1-4 0-1.214-10.006-1.747-11.5-1-8.233 4.116-12.636-.227-18.5 11.5l-3 3.5 2 2Z"/><path fill="#019FAC" id="VISa1" d="M171 19h6v-6c-2.522 0-4.909 2-8 2l2 4Z"/><path fill="#1BA696" id="RSPagl1" d="M177 19h1l14-2v-4h-15v6ZM264 17l15 2v-6h-14c-1.374 0-1 2.626-1 4Z"/><path fill="#019FAC" id="VISa1" d="M279 19h6l2-4c-3.303 0-5.115-2-8-2v6Z"/><path fill="#187C64" id="SSp-tr1" d="M119 35h1c4.89 0 11.235-4.867 15.5-7 7.598-3.799 26.673-9 35.5-9l-2-4c-12.123 0-27.182 4.841-37.5 10-1.972.986-14.5 3.69-14.5 6 2.641 0 2 1.823 2 4ZM339 31c-2.109 0-2 2.535-2 4-4.981 0-9.301-3.9-13.5-6-8.455-4.228-28.671-10-38.5-10l2-4c12.459 0 27.919 4.71 38.5 10 2.157 1.078 13.5 2.924 13.5 6Z"/><path fill="#1BA697" id="RSPd2/3" d="M221 29c0 1.366-2.366 4-4 4l-2-3.5-6.5-4.5c-4.173-2.087-11.454 0-15.5 0v-8c7.922 0 28-1.687 28 12ZM239 34h1c0-11.332 17.386-9 24-9v-8c-8.658 0-20.166-3.167-25 6.5-1.151 2.303-4 2.641-4 5.5l4 5Z"/><path fill="#1AA496" id="RSPagl2/3" d="m178 29 1 1 14-5v-8h-1l-14 2v10ZM277 29h1l1-10-15-2v8c4.649 0 8.129 4 13 4Z"/><path fill="#188061" id="SSp-tr2/3" d="M126 45h1c0-2.03 9.733-4.117 11.5-5 9.345-4.672 28.637-11 39.5-11v-1l-7-9c-8.827 0-27.902 5.201-35.5 9-4.265 2.133-10.61 7-15.5 7l3 8c1.238 0 3 .423 3 2Z"/><path fill="#009EAB" id="VISa2/3" d="M178 19v9l-7-9h7ZM278 29h1c0-6.814 6-4.64 6-10h-6l-1 10Z"/><path fill="#188061" id="SSp-tr2/3" d="M329 45h3v-1l1-1c0-1.122 2.632-7 4-7v-1c-4.981 0-9.301-3.9-13.5-6-8.455-4.228-28.671-10-38.5-10 0 5.36-6 3.186-6 10 10.464 0 29.437 6.468 38.5 11 1.767.883 11.5 2.97 11.5 5Z"/><path fill="#1AA596" id="RSPd5" d="M193 38c6.415 0 14-4.064 14 6 3.623 0 5.283-10 10-10v-1l-2-3.5-6.5-4.5c-4.173-2.087-11.454 0-15.5 0v13ZM264 38c-4.886 0-15-4.017-15 5l-9-9c0-11.332 17.386-9 24-9v13Z"/><path fill="#1CA697" id="RSPagl5" d="M192 39c-4.178 0-6.934 4-11 4 0-4.207-2-8.154-2-13l14-5v13l-1 1ZM264 39c4.349 0 6.918 4 11 4 0-3.678 2-8.331 2-13v-1c-4.871 0-8.351-4-13-4v14Z"/><path fill="#1BA597" id="RSPv1" d="M229 73h3l1-27.5c-1.043-2.086-2.278-9.444-1-12l2-4.5-2-2-3.5 5-4.5-5-2 2 2 4.5c1.701 3.403 0 34.775 0 39.5h3c0-5.32 2-5.498 2 0Z"/><path fill="#1B7E62" id="SSp-tr4" d="M132 49h3c0-2.47 7.754-4.127 9.5-5 3.504-1.752 32.652-14 34.5-14l-1-1c-10.863 0-30.155 6.328-39.5 11-1.767.883-11.5 2.97-11.5 5 0 .158 5 2.342 5 4Z"/><path fill="#1AA597" id="RSPv2/3" d="M221 73h3c0-4.725 1.701-36.097 0-39.5l-2-4.5h-1c0 1.366-2.366 4-4 4v1c0 12.886 4 26.523 4 39ZM232 73h4c0-13.011 3-25.452 3-39l-4-5h-1l-2 4.5c-1.278 2.556-.043 9.914 1 12L232 73Z"/><path fill="#1B7E62" id="SSp-tr4" d="M322 49h2c3.787 0 2.436-4 5-4 0-2.03-9.733-4.117-11.5-5-9.063-4.532-28.036-11-38.5-11h-2v1c2.035 0 31.933 12.217 35.5 14 1.659.83 9.5 2.926 9.5 5Z"/><path fill="#197F60" id="SSp-tr5" d="M144 55h2c5.912 0 27.154-11 35-11v-1c0-4.207-2-8.154-2-13-1.848 0-30.996 12.248-34.5 14-1.746.873-9.5 2.53-9.5 5l3 3c0-.759 6 2.299 6 3ZM310 55h2c3.112 0 4.288-3 7-3l3-3c0-2.074-7.841-4.17-9.5-5-3.567-1.783-33.465-14-35.5-14 0 4.669-2 9.322-2 13v1c4.397 0 22.432 4.966 26.5 7l8.5 4Z"/><path fill="#188060" id="SSp-bfd1" d="M58 81h1c0-3.597 6.442-6.383 8-9.5 4.847-9.694 26.442-23.971 35.5-28.5l12-6c1.119-.56 4.5-.155 4.5-2 0-2.177.641-4-2-4-12.077 0-39.49 21.99-49 31.5-3.14 3.14-13 11.104-13 15.5l3 3ZM402 78c-1.457 0-1.46 3-4 3l-4-5.5L381.5 63c-8.399-8.399-32.684-27-44.5-27v-1c0-1.465-.109-4 2-4 13.455 0 38.974 21.474 49 31.5 2.515 2.515 14 13.513 14 15.5Z"/><path fill="#1BA498" id="RSPv5" d="m215 70 6 3c0-12.477-4-26.114-4-39-4.717 0-6.377 10-10 10v1c0 6.03 7 19.54 7 23l1 2ZM241 70l-5 3c0-13.011 3-25.452 3-39h1l9 9v2c0 8.252-6 15.434-6 23l-1 1-1 1Z"/><path fill="#187F63" id="SSp-bfd2/3" d="M59 81c0 1.903 5.2 9 7 9 0-5.067 7.813-9.125 10-13.5C81.25 65.999 114.153 46 125 46v-1l-2-2-3-8h-1c0 1.845-3.381 1.44-4.5 2l-12 6C93.442 47.529 71.847 61.806 67 71.5c-1.558 3.117-8 5.903-8 9.5ZM398 82c-1.872 0-7 6.88-7 8l-14-18.5c-1.427-2.854-8.783-7.142-11.5-8.5-10.567-5.283-20.99-17-33.5-17v-2l1-1c0-1.122 2.632-7 4-7 11.816 0 36.101 18.601 44.5 27L394 75.5l4 5.5v1Z"/><path fill="#1AA697" id="RSPd6a" d="M193 51c3.015 0 6.004 2 8 2l6-8v-1c0-10.064-7.585-6-14-6l-1 1c0 3.335 1 7.328 1 12ZM255 53h1c0-2.273 5.226-2 7-2 0-3.531 1-7.893 1-12v-1c-4.886 0-15-4.017-15 5v2c2.158 0 6 5.64 6 8Z"/><path fill="#1CA597" id="RSPagl6a" d="m193 38-1 1 1-1ZM191 53l-8 1c0-3.894-2-6.605-2-10v-1c4.066 0 6.822-4 11-4 0 3.335 1 7.328 1 12v1l-2 1ZM263 51c2.725 0 6.551 3 10 3l2-10v-1c-4.082 0-6.651-4-11-4 0 4.107-1 8.469-1 12Z"/><path fill="#1C7F63" id="SSp-un2/3" d="M125 45h1c0-1.577-1.762-2-3-2l2 2ZM333 43l-1 1 1-1Z"/><path fill="#188063" id="SSp-tr6a" d="M159 61h1c0-1.59 4.386-1.443 5.5-2 4.661-2.33 12.086-5 17.5-5 0-3.894-2-6.605-2-10-7.846 0-29.088 11-35 11 0 1.638 3.576 2 5 2 1.473 0 8 3.65 8 4ZM296 61h1c0-1.29 6.457-3 8-3l5-3-8.5-4c-4.068-2.034-22.103-7-26.5-7l-2 10c5.63 0 12.699 2.6 17.5 5 1.319.66 5.5-.334 5.5 2Z"/><path fill="#197E61" id="SSp-un4" d="m132 49-5 3c0-2.72-2-3.553-2-6v-1h2c0 .158 5 2.342 5 4Z"/><path fill="#1AA498" id="RSPv6a" d="M209 63c0 1.661 3.008 5 5 5 0-3.46-7-16.97-7-23l-6 8c1.608 0 8 8.496 8 10ZM247 64l-4 4c0-7.566 6-14.748 6-23 2.158 0 6 5.64 6 8-1.617 0-4 4.583-4 6-1.712 0-3 2.571-3 4l-1 1Z"/><path fill="#197E61" id="SSp-un4" d="M324 49c0 1.638 3.576 2 5 2l3-5v-1h-3c-2.564 0-1.213 4-5 4Z"/><path fill="#197C64" id="SSp-bfd4" d="m66 90 5 5 15-14.5c9.29-9.29 20.557-16.028 31.5-21.5 3.077-1.538 5.884-6 9.5-6v-1c0-2.72-2-3.553-2-6-10.847 0-43.75 19.999-49 30.5-2.187 4.375-10 8.433-10 13.5ZM391 91c-2.773 0-3.67 4-6 4l-15.5-15c-8.434-8.434-20.652-16.326-32-22l-8.5-6v-1l3-5c12.51 0 22.933 11.717 33.5 17 2.717 1.358 10.073 5.646 11.5 8.5L391 90v1Z"/><path fill="#197D62" id="SSp-un5" d="M130 62h1l8-4v-1l-1-5-3-3h-3l-5 3v1c0 .168 3 6.715 3 9ZM317 58c3.391 0 5.353 3 9 3l3-9v-1c-1.424 0-5-.362-5-2h-2l-3 3-2 5v1Z"/><path fill="#187E62" id="SSp-ul5" d="M144 55c0 1.638-3.576 2-5 2l-1-5c0-.759 6 2.299 6 3Z"/><path fill="#1BA698" id="RSPd6b" d="M201 53v1c-2.69 0-4.598-1-7-1l-1-1v-1c3.015 0 6.004 2 8 2ZM263 53c-3.051 0-5.183 1-7 1v-1c0-2.273 5.226-2 7-2v2Z"/><path fill="#1AA598" id="RSPagl6b" d="M273 54v1c-3.942 0-6.745-2-10-2v-2c2.725 0 6.551 3 10 3ZM191 53h3l-1-1-2 1Z"/><path fill="#CACCC7" id="cing" d="m214 68 1 2c-7.393 0-16.148-7.824-22.5-11-7.967-3.984-20.717 4-28.5 4h-5l3-2 17.5-5c1.147-.574 4.5 1.064 4.5-1 1.851 0 7 .867 7-2h3c2.402 0 4.31 1 7 1 0 2.18 6.298 9 8 9 0 1.661 3.008 5 5 5ZM242 69l-1 1c7.95 0 15.764-7.632 22.5-11 6.453-3.227 22.463 4 29.5 4h4l-2-2c-6.15 0-10.85-4-17-4l-3.5-2c-.538 0-1.5 2.043-1.5 0-3.942 0-6.745-2-10-2-3.051 0-5.183 1-7 1l-5 5c0 1.429-1.288 4-3 4l-1 1-4 4-1 1Z"/><path fill="#187E62" id="SSp-ul5" d="M312 55c0 1.014 3.959 2 5 2l2-5c-2.712 0-3.888 3-7 3Z"/><path fill="#1A7D62" id="SSp-bfd5" d="M376 104h1l8-8v-1l-15.5-15c-8.434-8.434-20.652-16.326-32-22l-8.5-6-3 9v1c3.558 0 6.445 4.472 9.5 6 9.505 4.752 26.713 14.926 31.5 24.5 1.968 3.936 9 6.886 9 11.5ZM71 96l9 8c0-5.207 8.757-9.013 11-13.5 3.663-7.327 23.501-19.5 31.5-23.5l7.5-5c0-2.285-3-8.832-3-9-3.616 0-6.423 4.462-9.5 6-10.943 5.472-22.21 12.21-31.5 21.5L71 95v1Z"/><path fill="#1AA598" id="RSPagl6b" d="m183 54 1 1c1.851 0 7 .867 7-2l-8 1Z"/><path fill="#1AA497" id="RSPv6b" d="M201 54c0 2.18 6.298 9 8 9 0-1.504-6.392-10-8-10v1ZM256 54l-5 5c0-1.417 2.383-6 4-6h1v1Z"/><path fill="#1A8063" id="SSp-tr6b" d="M160 61h2l17.5-5c1.147-.574 4.5 1.064 4.5-1l-1-1c-5.414 0-12.839 2.67-17.5 5-1.114.557-5.5.41-5.5 2ZM295 61h1c0-2.334-4.181-1.34-5.5-2-4.801-2.4-11.87-5-17.5-5v1c0 2.043.962 0 1.5 0l3.5 2c6.15 0 10.85 4 17 4Z"/><path fill="#197D61" id="SSp-ul6a" d="M152 63c-3.468 0-7.132 5-11 5 0-4.264-2-6.516-2-10v-1c1.424 0 5-.362 5-2h2c0 1.638 3.576 2 5 2 0 1.564 1 3.876 1 6ZM304 63l11 5c0-3.708 2-5.942 2-10v-1c-1.041 0-5-.986-5-2h-2l-5 3-1 5Z"/><path fill="#1A7F64" id="SSp-ll6a" d="m159 61-7 2c0-2.124-1-4.436-1-6 1.473 0 8 3.65 8 4Z"/><path fill="#1A7F61" id="SSp-un6a" d="M134 73h1c0-1.617 4.583-4 6-4v-1c0-4.264-2-6.516-2-10l-8 4c0 4.334 3 7.01 3 11Z"/><path fill="#1A7F64" id="SSp-ll6a" d="m297 61 7 2 1-5c-1.543 0-8 1.71-8 3Z"/><path fill="#1A7F61" id="SSp-un6a" d="M322 73h1c0-4.334 3-7.01 3-11v-1c-3.647 0-5.609-3-9-3 0 4.058-2 6.292-2 10v1c2.83 0 4.54 4 7 4Z"/><path fill="#C9C7C9" id="ccb" d="M339 105c3.65 0 6.136 4 9 4 0-10.17-19-21.417-19-25l-1-1-1-1c-3.627 0-14.445-9.972-18.5-12l-10-5c-1.319-.66-5.5.334-5.5-2-7.037 0-23.047-7.227-29.5-4-6.736 3.368-14.55 11-22.5 11l-5 3h-15l-6-3c-7.393 0-16.148-7.824-22.5-11-7.967-3.984-20.717 4-28.5 4 0 1.59-4.386 1.443-5.5 2-3.623 1.811-7.431 3.216-11 5L129 83c-4.001 0-20 20.693-20 25 2.892 0 4.781-3 8-3 0-2.574 9.154-13 12-13 0-2.27 4.119-7 6-7 0-1.747.253-2 2-2 0-1.977 2.876-4 5-4 0-4.761 12.582-8.54 15.5-10 9.433-4.717 25.246-9.377 36-4 4.736 2.368 15.05 14 19.5 14 4.019 0 10.97 1.235 14.5 3l15.5-3h2c0-1.577 1.762-2 3-2 0-1.577 1.762-2 3-2 0-5.632 17.749-12 23.5-12 12.154 0 39.021 8.541 44.5 19.5 1.916 3.831 8 4.47 8 9.5 3.459 0 12 9.76 12 13Z"/><path fill="#1AA497" id="RSPv6b" d="M251 59c-1.712 0-3 2.571-3 4 1.712 0 3-2.571 3-4Z"/><path fill="#197F62" id="SSp-ll6b" d="M159 63c-2.483 0-4.026 2-6 2l-1-2 7-2h3l-3 2ZM304 63v2c-2.583 0-3.934-2-7-2l-2-2h2l7 2Z"/><path fill="#198060" id="SSp-bfd6a" d="M90 114h1c0-2.003-.293-3 2-3 0-3.343 12.657-16 16-16 0-1.747.253-2 2-2 0-3.182 21.25-20 23-20 0-3.99-3-6.666-3-11h-1l-7.5 5c-7.999 4-27.837 16.173-31.5 23.5-2.243 4.487-11 8.293-11 13.5l10 10ZM376 104c0 1.746-8.124 10-10 10 0-3.121-5.762-7.262-8-9.5-7.582-7.582-15.058-18.779-24.5-23.5L323 73c0-4.334 3-7.01 3-11 3.558 0 6.445 4.472 9.5 6 9.505 4.752 26.713 14.926 31.5 24.5 1.968 3.936 9 6.886 9 11.5Z"/><path fill="#1C8064" id="SSp-ul6b" d="M141 69v1l12-5-1-2c-3.468 0-7.132 5-11 5v1Z"/><path fill="#C9C9CA" id="scwm" d="M129 83c0-5.236-14.451 10-16 10 0-6.491 22-16.065 22-19l6-4 12-5c1.974 0 3.517-2 6-2h5c0 1.59-4.386 1.443-5.5 2-3.623 1.811-7.431 3.216-11 5L129 83Z"/><path fill="#C7C8CC" id="alv" d="M221 87h2l-10-8c-4.45 0-14.764-11.632-19.5-14-10.754-5.377-26.567-.717-36 4-2.918 1.46-15.5 5.239-15.5 10h2c0-4.201 11.886-6.693 14.5-8 9.326-4.663 24.35-9.325 35-4L221 87Z"/><path fill="#1AA497" id="RSPv6b" d="m248 63-1 1 1-1Z"/><path fill="#C7C8CC" id="alv" d="M291 111h15c1.147 0 13.813-5.156 15.5-6l5.5-5v-8c0-5.03-6.084-5.669-8-9.5-5.479-10.959-32.346-19.5-44.5-19.5-5.751 0-23.5 6.368-23.5 12 3.15 0 12.749-8.124 16.5-10 6.527-3.264 25.924 3.462 31 6 2.488 1.244 13.5 4.022 13.5 8 2.124 0 5 2.023 5 4 7.607 0 14.08 15.21.5 22-5.401 2.7-15.795 5-22 5-1.95 0-13.5-.79-13.5 1h9Z"/><path fill="#C9C9CA" id="scwm" d="M327 82c0-2.57 4.676 1.588 5.5 2 3.01 1.505 10.563 11 13.5 11 0-6.548-24-17.683-24-21-1.334 0-7-2.716-7-4l-11-5c-2.583 0-3.934-2-7-2h-4c0 2.334 4.181 1.34 5.5 2l10 5c4.055 2.028 14.873 12 18.5 12Z"/><path fill="#1C8064" id="SSp-ul6b" d="M315 69v1l-11-5v-2l11 5v1Z"/><path fill="#7ECF4B" id="CA1" d="m221 91-2 4c-11.985 0-24.501-3-34.5-8L173 89c0-2.162-6.067-2.284-7.5-3-2.548-1.274-19.29-7-21.5-7 0-4.201 11.886-6.693 14.5-8 9.326-4.663 24.35-9.325 35-4L221 87v4ZM236 91l2 4c11.533 0 23.849-3.175 33.5-8l11.5 2c0-2.334 4.181-1.34 5.5-2 5.417-2.708 11.641-3.32 17-6 1.3-.65 6.5-.007 6.5-2 0-3.978-11.012-6.756-13.5-8-5.076-2.538-24.473-9.264-31-6-3.751 1.876-13.35 10-16.5 10 0 1.577-1.762 2-3 2 0 1.577-1.762 2-3 2 0 1.577-1.762 2-3 2l-1 1-1 1h-1c0 1.747-.253 2-2 2l-2 2 1 4Z"/><path fill="#1AA498" id="RSPv6a" d="m243 68-1 1 1-1Z"/><path fill="#1A7D63" id="SSp-un6b" d="M135 73v1l6-4v-1c-1.417 0-6 2.383-6 4ZM322 73v1c-1.334 0-7-2.716-7-4v-1c2.83 0 4.54 4 7 4Z"/><path fill="#1A7E61" id="SSp-bfd6b" d="M111 93h2c0-6.491 22-16.065 22-19v-1h-1c-1.75 0-23 16.818-23 20ZM365 114h1c0-3.121-5.762-7.262-8-9.5-7.582-7.582-15.058-18.779-24.5-23.5L323 73h-1v1c0 3.317 24 14.452 24 21l1 1 1 1h1l2 2 4 5c4.212 0 7.163 10 10 10Z"/><path fill="#C7C8CC" id="alv" d="M251 75c-1.238 0-3 .423-3 2 1.238 0 3-.423 3-2ZM248 77c-1.238 0-3 .423-3 2 1.238 0 3-.423 3-2Z"/><path fill="#1A7E62" id="SSs1" d="m27 154 6 1c0-20.212 5.663-37.825 14-54.5 1.55-3.102 11-17.521 11-19.5l-3-3c-1.525 0-9.968 14.436-11 16.5-9.37 18.739-17 36.845-17 59.5ZM429 153c0 .672-4.329 2-5 2 0-20.738-7.393-39.285-16-56.5-1.09-2.18-8.198-16.5-10-16.5v-1c2.54 0 2.543-3 4-3 0 2.555 13.024 19.549 15 23.5 7.589 15.178 12 33.24 12 51.5Z"/><path fill="#C7C8CC" id="alv" d="M137 83h2l3-4c-2.124 0-5 2.023-5 4Z"/><path fill="#7DCF4B" id="CA2" d="m173 89-2 2c-7.274 0-20.24-8-32-8l3-4h2c2.21 0 18.952 5.726 21.5 7 1.433.716 7.5.838 7.5 3Z"/><path fill="#C9CCC9" id="dhc" d="M229 87h4l4-2 2-2h1l1-1 1-1 1-2-15.5 3c-3.53-1.765-10.481-3-14.5-3l10 8h4c0-1.4 2-1.4 2 0Z"/><path fill="#C7C8CC" id="alv" d="M245 79c0 1.577-1.762 2-3 2l1-2h2Z"/><path fill="#7DCF4B" id="CA2" d="m283 89 2 2c7.299 0 20.553-8 32-8 0-1.977-2.876-4-5-4 0 1.993-5.2 1.35-6.5 2-5.359 2.68-11.583 3.292-17 6-1.319.66-5.5-.334-5.5 2Z"/><path fill="#1B8063" id="SSs2/3" d="m33 155 8 1c0-17.145 8.782-36.063 16-50.5 1.46-2.92 9-13.138 9-15.5-1.8 0-7-7.097-7-9h-1c0 1.979-9.45 16.398-11 19.5-8.337 16.675-14 34.288-14 54.5Z"/><path fill="#CBC9C7" id="or" d="M99 112v5c1.301 0 9-6.333 9-8l1-1c0-4.307 15.999-25 20-25 0-5.236-14.451 10-16 10l-2 1-1 1-1 1-1 1-1 1-1 1-1 1-1 1-1 1-1 1-1 1-2 8Z"/><path fill="#C7C8CC" id="alv" d="m242 81-1 1 1-1Z"/><path fill="#CBC9C7" id="or" d="M357 112v5l-9-8c0-10.17-19-21.417-19-25l-1-1-1-1c0-2.57 4.676 1.588 5.5 2 3.01 1.505 10.563 11 13.5 11l1 1 1 1h1l2 2 4 5c0 2.338 2 4.862 2 8Z"/><path fill="#C7C8CC" id="alv" d="m241 82-1 1 1-1Z"/><path fill="#1B8063" id="SSs2/3" d="m424 155-8 1c0-13.746-9.083-34.666-15-46.5L391 91v-1c0-1.12 5.128-8 7-8 1.802 0 8.91 14.32 10 16.5 8.607 17.215 16 35.762 16 56.5Z"/><path fill="#C7C8CC" id="alv" d="M137 83c-1.747 0-2 .253-2 2 1.747 0 2-.253 2-2Z"/><path fill="#7ECF49" id="CA3" d="M177 111h3l3-1c0-1.714 5.594-1 7-1 7.747 0 1-2.669 1-6h-1l-1-1-10-2c-7.721 0-8-3.314-8-9-7.274 0-20.24-8-32-8h-2c0 1.747-.253 2-2 2 0 3.663-5 7.32-5 11.5 0 4.915 10.332 8.916 13.5 10.5 3.533 1.767 19.111 3 24 3 1.448 0 7.5-.725 7.5 1h2Z"/><path fill="#C7C8CC" id="alv" d="m239 83-2 2c1.747 0 2-.253 2-2Z"/><path fill="#7ECF49" id="CA3" d="M280 111h2c0-1.79 11.55-1 13.5-1 6.205 0 16.599-2.3 22-5 13.58-6.79 7.107-22-.5-22-11.447 0-24.701 8-32 8 0 6.065.697 9-8 9-3.27 0-8.138 3-11 3 0 1.655-8.321 6 0 6 1.949 0 8-.991 8 2h6Z"/><path fill="#C9C9CA" id="scwm" d="m328 83 1 1-1-1Z"/><path fill="#C7C8CC" id="alv" d="M169 111h6c0-1.725-6.052-1-7.5-1-4.889 0-20.467-1.233-24-3-3.168-1.584-13.5-5.585-13.5-10.5 0-4.18 5-7.837 5-11.5-1.881 0-6 4.73-6 7v8l8.5 7c.669.335 13.328 4 13.5 4h18ZM233 87h2l2-2-4 2Z"/><path fill="#7BD04A" id="DG-mo" d="m208 121-5 1c-2.707 0-5.903-1-8-1h-2l-1-1h-1l-2-1-9-5-1-1 1-2 3-1c0 3.085 7.704 2.102 9.5 3 2.293 1.146 6.971 5.514 10 4 3.55-1.775 18.074-11.351 15.5-16.5-2.134-4.267-11.658 4.921-16.5 2.5-2.267-1.133-22.5-9.507-22.5-3-7.721 0-8-3.314-8-9l2-2 11.5-2c9.999 5 22.515 8 34.5 8 0 1.014 3.959 2 5 2v2l-1 3v1l-1 2c-1.473 0-1 1.952-1 3-1.577 0-2 1.762-2 3l-1 1-5 5-2 2c-1.238 0-3 .423-3 2Z"/><path fill="#7ECD4A" id="FC" d="m227 92-1 1c-1.424 0-5-.362-5-2v-4h6v5ZM236 91l-2.5 2-4.5-1v-5h6l1 4Z"/><path fill="#7BD04A" id="DG-mo" d="M262 121h1l1-1h1l2-1c1.76 0 10-3.946 10-6l-1-2h-2c-6.147 0-11.348 3.424-16.5 6-4.469 2.235-21.09-12.32-18.5-17.5.9-1.8 3.167.5 4 .5 3.267 0 7.336 5.082 11.5 3 2.301-1.15 22.5-9.296 22.5-3 8.697 0 8-2.935 8-9l-2-2-11.5-2c-9.651 4.825-21.967 8-33.5 8l-6 3 1 3 1 1v2c1.473 0 1 1.952 1 3 .109 0 10.246 14 14 14l4 1c3.222 0 6.277-1 9-1Z"/><path fill="#187C63" id="SSs4" d="M45 157h1c0-11.062 8.169-33.837 13-43.5L71 96v-1l-5-5c0 2.362-7.54 12.58-9 15.5-7.218 14.437-16 33.355-16 50.5l4 1Z"/><path fill="#7DCD4B" id="HPF" d="M224 97h1l1-4c-1.424 0-5-.362-5-2l-2 4c0 1.014 3.959 2 5 2ZM238 95l-6 3-3-6 4.5 1 2.5-2 2 4Z"/><path fill="#187C63" id="SSs4" d="m416 156-5 1-2-4.5c-2.894-5.789-1.086-14.172-4-20l-6-16-6-9c-.972-1.945-5.644-11.5-8-11.5v-1c2.33 0 3.227-4 6-4l10 18.5c5.917 11.834 15 32.754 15 46.5Z"/><path fill="#A8AAAA" id="VL" d="M123 124h2l2-7-3-.5 1-9c-.628-1.256-2.867-3.267-2-5 .85-1.7 2.422-1.5 4-1.5l2-1v-8c-2.846 0-12 10.426-12 13 8.302 0 6 12.412 6 19Z"/><path fill="#7DCD4B" id="HPF" d="m227 92-1 1 1-1Z"/><path fill="#A8AAAA" id="VL" d="M339 105c-9.11 0-2.538 10-6 10 0-4.22 1.131-14-4-14l-2-1v-8c3.459 0 12 9.76 12 13Z"/><path fill="#1A7E61" id="SSp-bfd6b" d="M109 95h1l1-1v-1c-1.747 0-2 .253-2 2Z"/><path fill="#C9C9CA" id="scwm" d="m113 93-2 1v-1h2Z"/><path fill="#1A7E61" id="SSp-bfd6b" d="M101 104c-3.49 0-4.873 7-8 7 0-3.343 12.657-16 16-16v1l-1 1-1 1-1 1-1 1-1 1-1 1-1 1-1 1Z"/><path fill="#C9C9CA" id="scwm" d="m110 95-1 1v-1h1Z"/><path fill="#A8A9AA" id="V3" d="M234 102v1c-4.382 0-4.383 3-5.5 3-1.861 0-2.957-4-5.5-4l1-3 1-2c1.602 0 2.384-3.058 4.5-2l2.5 3 1 3 1 1Z"/><path fill="#1C8063" id="SSs5" d="M46 157c4.492 0 8.296 3 13 3 0-10.544 6.447-30.393 11-39.5 1.256-2.513 10-14.91 10-16.5l-9-8-12 17.5c-4.831 9.663-13 32.438-13 43.5Z"/><path fill="#C9C9CA" id="scwm" d="m109 96-1 1 1-1ZM347 96l1 1-1-1Z"/><path fill="#1C8063" id="SSs5" d="m411 157-14 3c0-10.659-5.469-29.437-10-38.5-1.864-3.727-10-14.057-10-17.5l8-8c2.356 0 7.028 9.555 8 11.5l6 9 6 16c2.914 5.828 1.106 14.211 4 20l2 4.5Z"/><path fill="#C9C9CA" id="scwm" d="m349 97 2 2-2-2ZM107 98l-1 1 1-1Z"/><path fill="#65A83D" id="DG-sg" d="M190 109c-1.406 0-7-.714-7 1 0 3.085 7.704 2.102 9.5 3 2.293 1.146 6.971 5.514 10 4 3.55-1.775 18.074-11.351 15.5-16.5-2.134-4.267-11.658 4.921-16.5 2.5-2.267-1.133-22.5-9.507-22.5-3l10 2 1 1h1l5.5 2 4.5 1c14.149 0 .164 7.832-7.5 4-1.046-.523-3.5.951-3.5-1ZM266 109c1.949 0 8-.991 8 2-6.147 0-11.348 3.424-16.5 6-4.469 2.235-21.09-12.32-18.5-17.5.9-1.8 3.167.5 4 .5 3.267 0 7.336 5.082 11.5 3 2.301-1.15 22.5-9.296 22.5-3-3.27 0-8.138 3-11 3-2.592 0-3.416.958-5.5 2l-12.5 1.5c0 6.089 18 5.428 18 2.5Z"/><path fill="#C9C9CA" id="scwm" d="m105 100-1 1 1-1Z"/><path fill="#CBC8CB" id="fi" d="m126 131 1.5 2h6.5c5.495 0 8.192-13.846 12.5-16 1.856-.928 4.5-4.066 4.5-6-.172 0-12.831-3.665-13.5-4l-8.5-7-2 1 2 8c1.399 0 1.399 2 0 2v2l-1 1v1l-1 1v1l-2 7c0 2.409 1 5.181 1 7ZM331 131c-1.477 0-5.699 2-9 2-1.648 0-3.177-1.854-4-3.5-1.883-3.766-12-17.542-12-18.5 1.147 0 13.813-5.156 15.5-6l5.5-5 2 1c0 4.242-2 6.596-2 11l1 1v1l1 1v1c0 2.885 2 4.697 2 8v7Z"/><path fill="#A9AAA8" id="chpl" d="M127 116v1l-3-.5 1-9c-.628-1.256-2.867-3.267-2-5 .85-1.7 2.422-1.5 4-1.5l2 8v4l-1 1v1l-1 1ZM329 116h4v-1c0-4.22 1.131-14-4-14 0 4.242-2 6.596-2 11l1 1v1l1 1v1Z"/><path fill="#C9C9CA" id="scwm" d="m103 102-1 1 1-1Z"/><path fill="#7ECE4A" id="DG-po" d="m189 102 1 1-1-1Z"/><path fill="#A9AAA8" id="chpl" d="m225 121 2.5 3c2.377 1.189 2.116-2 3.5-2l2-7 1-2 1-4v-2c-1.473 0-1-1.952-1-3v-1c-4.382 0-4.383 3-5.5 3-1.861 0-2.957-4-5.5-4v1l-1 2v7l1 2 2 7Z"/><path fill="#C9C9CA" id="scwm" d="m102 103-1 1 1-1Z"/><path fill="#7ECE4A" id="DG-po" d="m191 103 5.5 2 4.5 1c14.149 0 .164 7.832-7.5 4-1.046-.523-3.5.951-3.5-1 7.747 0 1-2.669 1-6Z"/><path fill="#A8A9AA" id="V3" d="m223 103-1 2 1-2Z"/><path fill="#7ECE4A" id="DG-po" d="M266 103c-2.592 0-3.416.958-5.5 2l-12.5 1.5c0 6.089 18 5.428 18 2.5-8.321 0 0-4.345 0-6Z"/><path fill="#197D63" id="SSs6a" d="M59 161c3.806 0 7.751 1 11 1 0-9.624 5.895-21.289 10-29.5.819-1.637 2.844-9.5 5-9.5 0-3.39 5-5.621 5-9l-10-10c0 1.59-8.744 13.987-10 16.5-4.553 9.107-11 28.956-11 39.5v1Z"/><path fill="#C9C9CA" id="scwm" d="M85 123c0 10.382-11 19.314-11 30 2.467 0 4.076-9.651 5-11.5 1.93-3.86 16.158-29.5 20-29.5l2-8c-3.49 0-4.873 7-8 7l-1 3c0 1.713-4.88 9-7 9Z"/><path fill="#A8A9AA" id="V3" d="M234 104c1.473 0 1 1.952 1 3-1.473 0-1-1.952-1-3Z"/><path fill="#C9C9CA" id="scwm" d="M365 114c0 4.086 4.293 6.086 6 9.5 3.686 7.371 12 23.366 12 31.5-2.264 0-3.193-7.885-4-9.5-4.437-8.875-8.032-19.032-15.5-26.5l-6.5-7c0-3.138-2-5.662-2-8 4.212 0 7.163 10 10 10Z"/><path fill="#197D63" id="SSs6a" d="m397 161-11 1c0-12.46-7.692-27.884-13-38.5-1.587-3.175-7-5.79-7-9.5 1.876 0 10-8.254 10-10h1c0 3.443 8.136 13.773 10 17.5 4.531 9.063 10 27.841 10 38.5v1Z"/><path fill="#98D5F9" id="CP" d="m82 200 3 2c4.974 0 18.4 5.7 22-1.5 2.161-4.322-1-12.328-1-16.5v-1l-1-2c0-4.411 2-8.371 2-12 0-1.235-.643-5 1-5 0-3.166-.693-5.886-2-8.5-1.799-3.599 1-10.356 1-13.5 0-4.223.278-7.055 2-10.5.565-1.129 5-4.338 5-1.5l2 1h5l1-1c0-1.564 1-3.876 1-6 0-6.588 2.302-19-6-19-3.219 0-5.108 3-8 3l-1 1c0 1.667-7.699 8-9 8 0 4.02-7.88 9.262-10 13.5-4.858 9.716-14 22.111-14 33.5v18.5c1.561 3.123 4 11.15 4 14.5l3 3Z"/><path fill="#A8A9AA" id="V3" d="M221 111h1v-6c-1.473 0-1 1.952-1 3v3Z"/><path fill="#98D5F9" id="CP" d="M369 203h1l1-1 1-1 3-1 1-1 1-1 4-12.5V164c0-12.321-8.812-24.125-14-34.5-1.29-2.579-10-8.896-10-12.5l-9-8c-2.864 0-5.35-4-9-4-9.11 0-2.538 10-6 10v9l1 5 1 1v1l5 1 1-1h1c0-7.137 7 2.311 7 10 2.064 0 .426 3.353 1 4.5 2.874 5.748-1 12.149-1 18.5 0 6.487 2 11.93 2 19 0 4.666-4.413 12.674-2 17.5 2.994 5.988 15.249 2.5 20 2.5Z"/><path fill="#C9C7C9" id="ccb" d="m109 108-1 1 1-1Z"/><path fill="#A8AAAA" id="VL" d="M129 109c1.399 0 1.399 2 0 2v-2Z"/><path fill="#A8A9AA" id="V3" d="m236 111-2 2 1-4 1 2Z"/><path fill="#1A7E61" id="SSp-bfd6b" d="M91 114h1l1-3c-2.293 0-2 .997-2 3Z"/><path fill="#FF909D" id="LD" d="M157 137c8.236 0 14.841 7 24 7l9-24-1-1-9-5-1-1h-1c-1.242 0-9-1.019-9-2h-4c0 2.144-4.262.381-5.5 1-2.707 1.354-12.5 3.225-12.5 8l-1 1-1 1-1 2-1 1c0 2.124 1 4.436 1 6h1l1 1 2 2 3 1c1.623 0 6 .005 6 2Z"/><path fill="#7DCD4B" id="HPF" d="M178 113h1l1-2h-3l1 2Z"/><path fill="#FF8D9F" id="MH" d="M223 132h1c0-3.42 1-7.915 1-11l-2-7-1-2v-1h-3l-1 1c0 1.408-1.197 5-3 5 0 2.364-3 3.053-3 5 4.354 0 4.694 10 9 10h2ZM234 132h2c1.651 0 8-9.441 8-10l-3-5-5-6-2 2-1 2-2 7v8.5l2 1.5h1Z"/><path fill="#7DCD4B" id="HPF" d="M277 113h2l1-2h-4l1 2Z"/><path fill="#FF909D" id="LD" d="M299 137c-6.309 0-14.079 7-23 7 0-5.591-9-16.186-9-24v-1c1.76 0 10-3.946 10-6h2c1.013 0 9-1.208 9-2h3c0 2.144 4.262.381 5.5 1 3.661 1.83 14.5 4.161 14.5 10l2 2v1c0 2.124-1 4.436-1 6l-4 3-3 1c-2.518 0-4.286 2-6 2Z"/><path fill="#C9C7C9" id="ccb" d="M72 163c0 1.473 1.952 1 3 1 0-11.389 9.142-23.784 14-33.5 2.12-4.238 10-9.48 10-13.5v-5c-3.842 0-18.07 25.64-20 29.5-.924 1.849-2.533 11.5-5 11.5l-1 2v2l-1 2v4Z"/><path fill="#A8A9AA" id="V3" d="m222 112 1 2-1-2Z"/><path fill="#A8AAAA" id="VL" d="m327 112 1 1-1-1Z"/><path fill="#C9C7C9" id="ccb" d="M381 164h4v-3l-1-2v-1l-1-2v-1c-2.264 0-3.193-7.885-4-9.5-4.437-8.875-8.032-19.032-15.5-26.5l-6.5-7v5c0 3.604 8.71 9.921 10 12.5 5.188 10.375 14 22.179 14 34.5Z"/><path fill="#A8AAAA" id="VL" d="m129 113-1 1 1-1Z"/><path fill="#A8A9AA" id="V3" d="m234 113-1 2 1-2Z"/><path fill="#1A8061" id="SSs6b" d="M92 114c0 1.713-4.88 9-7 9 0-3.39 5-5.621 5-9h2Z"/><path fill="#A8AAAA" id="VL" d="m328 114 1 1-1-1Z"/><path fill="#1A8061" id="SSs6b" d="M385 162h1c0-12.46-7.692-27.884-13-38.5-1.587-3.175-7-5.79-7-9.5h-1c0 4.086 4.293 6.086 6 9.5 3.686 7.371 12 23.366 12 31.5v1l1 2v1l1 2v1Z"/><path fill="#A8AAAA" id="VL" d="m128 115-1 1 1-1Z"/><path fill="#C8CCC7" id="hbc" d="M244 122c.716 0 3 2.373 3 0 0-1.534-6-6.728-6-5l3 5Z"/><path fill="#A8AAAA" id="VL" d="M331 124h2v-8h-4c0 2.885 2 4.697 2 8Z"/><path fill="#C8CCC7" id="hbc" d="M212 122c0 1.473-1.952 1-3 1l2-4c1.747 0 2-.253 2-2h2c0 2.364-3 3.053-3 5Z"/><path fill="#FF6F80" id="TH" d="m147 120-1 1 1-1Z"/><path fill="#FE909D" id="LP" d="M183 148h2c1.59 0 1.443-4.386 2-5.5l10-19.5-2-2h-2l-1-1h-2l-9 24c0 2.424 2 2.76 2 4ZM271 148h2l3-4c0-5.591-9-16.186-9-24h-3l-1 1h-1c0 1.577-1.762 2-3 2 0 4.385 12 18.264 12 25Z"/><path fill="#FF6F80" id="TH" d="m146 121-1 1 1-1Z"/><path fill="#CCC9C8" id="sm" d="m199 125 2 6c2.073 0 7-6.148 7-8v-2l-5 1-2 1-2 2Z"/><path fill="#A8A9AA" id="V3" d="m224 132 4.5 2 4.5-2-2-1.5V122c-1.384 0-1.123 3.189-3.5 2l-2.5-3c0 3.085-1 7.58-1 11Z"/><path fill="#CCC9C8" id="sm" d="M257 125c0 1.623-.005 6-2 6-2.875 0-7-6.597-7-9l1-1 4 1 2 1 2 2Z"/><path fill="#FF8F9D" id="LH" d="m201 135 4.5 4c4.106 2.053 8.874-2 12.5-2 0-2.069 3-3.946 3-5-4.306 0-4.646-10-9-10 0 1.473-1.952 1-3 1h-1c0 1.852-4.927 8-7 8v4ZM255 135l-4.5 4c-4.106 2.053-8.874-2-12.5-2l-2-5c1.651 0 8-9.441 8-10 .716 0 3 2.373 3 0h1c0 2.403 4.125 9 7 9v4Z"/><path fill="#FF6F80" id="TH" d="m311 122 2 2-2-2Z"/><path fill="#1A8061" id="SSs6b" d="M70 162h1l1-1v-2l1-2v-2l1-2c0-10.686 11-19.618 11-30-2.156 0-4.181 7.863-5 9.5-4.105 8.211-10 19.876-10 29.5Z"/><path fill="#FD8F9D" id="CL" d="m187 161 2.5 2 5.5-1c0-2.818-3.565-12.369-1-17.5.856-1.713 7-8.917 7-9.5v-4l-2-6-1-2h-1l-10 19.5c-.557 1.114-.41 5.5-2 5.5v3l2 10Z"/><path fill="#FF6F80" id="TH" d="m201 123-2 2-1-2h3ZM258 123l-1 2-2-2h3Z"/><path fill="#FD8F9D" id="CL" d="M262 162h7c0-3.378 2-6.922 2-11v-3c0-6.736-12-20.615-12-25h-1l-1 2c0 1.623-.005 6-2 6v4c9.884 0 7 21.293 7 27Z"/><path fill="#FF6F80" id="TH" d="m144 124-1 1 1-1ZM144 131c-2.25 0-3.376 2-5 2l4-8c0 2.124 1 4.436 1 6ZM312 131l5 1c0-1.122-2.632-7-4-7 0 2.124-1 4.436-1 6Z"/><path fill="#CBC9C7" id="or" d="M134 142c0 1.072-7.403 7-9 7-4.318 0-9.876.812-13.5-1l-4.5-6c0-4.223.278-7.055 2-10.5.565-1.129 5-4.338 5-1.5l3 6c0 1.562 2.189 5 4 5 1.819 0 4.591 1 7 1h6Z"/><path fill="#97D6F9" id="STR" d="M334 130h1l-1-1v1Z"/><path fill="#CBC9C7" id="or" d="M323 142h6c2.124 0 4.436-1 6-1 1.797 0 4-2.203 4-4l1-1v-1l2-4c0-7.137 7 2.311 7 10 0 9.366-11.485 8-18 8-1.255 0-8-4.777-8-7Z"/><path fill="#CCC" d="m116 133 1 3-3-6 2 1v2Z"/><path fill="#97D6F9" id="STR" d="m122 130-1 1 1-1Z"/><path fill="#CAC7CB" id="fiber tracts" d="M128 142h6c2.189 0 3-5.066 3-7l-3-2h-6.5l-1.5-2-4-1-1 1c0 3.798-3.15 2-5 2l1 3c0 1.562 2.189 5 4 5l-1-3.5c1.708-3.417 8.691-5.618 11-1 1.722 3.443-3 3.168-3 5.5ZM323 142h6c0-1.585-5.545-2.41-4-5.5 1.628-3.255 9.224-3.553 11 0l-1 4.5c1.797 0 4-2.203 4-4l1-1v-3c-1.85 0-5 1.798-5-2v-1h-1c0 1.473-1.952 1-3 1-1.477 0-5.699 2-9 2l-3 2c0 1.749 1.526 7 4 7Z"/><path fill="#97D6F9" id="STR" d="M121 131c0 3.798-3.15 2-5 2v-2h5Z"/><path fill="#FD8F9F" id="RT" d="M160 205h1l2-2-4-3c-9.098 0-22.547-24.593-26-31.5-1.098-2.195-.016-14.5 2-14.5 0-1.465-.109-4 2-4 0-1.238.423-3 2-3 0-1.811 3.438-4 5-4l1-1 2-1 1-1v-6l-2-2-1-1h-1c-2.25 0-3.376 2-5 2l-2 2c0 1.934-.811 7-3 7 0 1.072-7.403 7-9 7 0 3.143-6.571 6.359-4 11.5 6.194 12.388 16.811 31.156 29.5 37.5l9.5 7Z"/><path fill="#FF6F80" id="TH" d="m145 131 1 1-1-1Z"/><path fill="#FD8F9F" id="RT" d="M296 205h1l1-1 9.5-7c9.709-4.855 22.223-24.945 27.5-35.5 2.804-5.607-4-10.03-4-12.5-1.255 0-8-4.777-8-7-2.474 0-4-5.251-4-7l-2-3-5-1-4 3c0 2.124 1 4.436 1 6l2 2c8.691 0 12 14.137 12 21 0 2.108.789 10-2 10 0 1.465.109 4-2 4l-1 2-1 2c0 1.747-.253 2-2 2 0 1.238-.423 3-2 3l-1 1-1 1c0 2.362-2.638 5-5 5l-1 1-1 1c0 1.577-1.762 2-3 2 0 1.577-1.762 2-3 2l-1 1-2 1-1 2c0 1.747.253 2 2 2Z"/><path fill="#97D6F9" id="STR" d="M340 132v1c-1.85 0-5 1.798-5-2l5 1ZM341 131l-1 1 1-1Z"/><path fill="#CCC" d="M340 133v2l2-4h-1l-1 1v1Z"/><path fill="#C7CAC9" id="fr" d="M223 132c0 1.832-3.242 5-5 5 0-2.069 3-3.946 3-5h2Z"/><path fill="#FE8F9E" id="PVT" d="M224 145h9l5-8c-1.533 0-4-3.753-4-5h-1l-4.5 2-4.5-2h-1c0 1.832-3.242 5-5 5l6 8Z"/><path fill="#C7CAC9" id="fr" d="m236 132 2 5c-1.533 0-4-3.753-4-5h2Z"/><path fill="#C8CBC7" id="st" d="M121 141c1.819 0 4.591 1 7 1 0-2.332 4.722-2.057 3-5.5-2.309-4.618-9.292-2.417-11 1l1 3.5Z"/><path fill="#FF6F80" id="TH" d="M151 135c0 1.238-1.923 5-3 5v-6l3 1ZM305 135l4 5c0-1.564-1-3.876-1-6l-3 1Z"/><path fill="#C8CBC7" id="st" d="M335 141c-1.564 0-3.876 1-6 1 0-1.585-5.545-2.41-4-5.5 1.628-3.255 9.224-3.553 11 0l-1 4.5Z"/><path fill="#FD8084" id="VPL" d="M166 192c0 4.116-4.224 6-8 6-3.459 0-10.578-7.656-12-10.5l-7-8c-4.598-9.196-4-15.128-4-25.5l2-4c1.577 0 2-1.762 2-3 1.562 0 5-2.189 5-4l1-1 2-1 1-1c1.077 0 3-3.762 3-5 1.623 0 6 .005 6 2 0 1.423 1.978 3.544 1 5.5l-2 4.5c-36.878 0-5.237 27.027 1 39.5 1.104 2.208 9 2.855 9 5.5Z"/><path fill="#FD909D" id="MD" d="M222 173c-3.23 0-5.26 5-8 5-6.062 0-19-9.488-19-16 0-2.818-3.565-12.369-1-17.5.856-1.713 7-8.917 7-9.5l4.5 4c4.106 2.053 8.874-2 12.5-2l6 8v21.5l-2 6.5ZM235 173l7 5c5.784 0 20-9.251 20-16 0-5.707 2.884-27-7-27l-4.5 4c-4.106 2.053-8.874-2-12.5-2l-5 8c0 4.622-3.441 14.618-1 19.5l3 8.5Z"/><path fill="#FD8084" id="VPL" d="m301 197-3 1c-2.946 0-8-2.419-8-6 5.107 0 12.974-10.449 15-14.5 2.89-5.78 9.016-8.031 12-14 5.714-11.429-6.686-16.5-16-16.5 0-1.046-2-6.474-2-10 1.714 0 3.482-2 6-2l4 5 2 2c0 .332 8.82 9.139 10 11.5 2.847 5.694 0 13.649 0 19.5l-2 4-1 2-1 2-2 2c-1.577 0-2 1.762-2 3l-1 1-1 1-5 5-1 1-1 1c-1.238 0-3 .423-3 2Z"/><path fill="#CCC" d="m340 136-1 1 1-1Z"/><path fill="#FF8E9C" id="PO" d="M189 168c-5.452 0-11.939 9-13 9 0-5.583-14.027-30-20-30l2-4.5c.978-1.956-1-4.077-1-5.5 8.236 0 14.841 7 24 7 0 2.424 2 2.76 2 4l2 3 2 10 2 7ZM267 168c6.601 0 9.508 8 13 8 0-5.475 15.073-29 21-29 0-1.046-2-6.474-2-10-6.309 0-14.079 7-23 7l-3 4c0 1.238-.423 3-2 3 0 4.078-2 7.622-2 11 0 2.483-2 4.026-2 6Z"/><path fill="#FF6F80" id="TH" d="m148 140-1 1 1-1Z"/><path fill="#CCC" d="M316 221c-2.279 0-17 15.638-17 4 11.712 0 17.202-5.905 22-15.5.755-1.51 7.297-10.102 4.5-11.5-3.114-1.557-18.923 5.461-22 7l-8.5 8c0-5.445-.409-2-4-2l5-6h1l1-1 9.5-7c9.709-4.855 22.223-24.945 27.5-35.5 2.804-5.607-4-10.03-4-12.5 6.515 0 18 1.366 18-8 2.064 0 .426 3.353 1 4.5 2.874 5.748-1 12.149-1 18.5-7.994 0-17 28.937-17 36l-1 2-1 1-4 5-1 1-4 6-1 1-1 1-2 3-1 1ZM163 219l4 2c0-1.236-6.793-12-5.5-12l4.5 3v-1l-5-5-1-1-9.5-7c-12.689-6.344-23.306-25.112-29.5-37.5-2.571-5.141 4-8.357 4-11.5-4.318 0-9.876.812-13.5-1l-4.5-6c0 3.144-2.799 9.901-1 13.5 1.307 2.614 2 5.334 2 8.5 6.872 0 17 30.462 17 37l1 1 1 2 1 1 2 2 1 1 1 2 1 1 3 5c1.696 0 21 22.887 21 9-12.097 0-17.121-6.742-22-16.5-.698-1.397-6.793-8.853-3.5-10.5 6.731-3.365 31.5 12.583 31.5 21Z"/><path fill="#C7CACA" id="em" d="m145 142-1 1 1-1ZM311 142c8.691 0 12 14.137 12 21 0 2.108.789 10-2 10 0-5.851 2.847-13.806 0-19.5-1.18-2.361-10-11.168-10-11.5ZM144 143c-1.562 0-5 2.189-5 4 1.562 0 5-2.189 5-4Z"/><path fill="#FE909F" id="IMD" d="M222 173c2.395 0 5.263-3.619 8.5-2l4.5 2-3-8.5c-2.441-4.882 1-14.878 1-19.5h-9v21.5l-2 6.5Z"/><path fill="#C7CACA" id="em" d="M139 147c-1.577 0-2 1.762-2 3 1.577 0 2-1.762 2-3Z"/><path fill="#FF7E83" id="VPM" d="M176 177c0 6.742-1.703 15-10 15 0-2.645-7.896-3.292-9-5.5-6.237-12.473-37.878-39.5-1-39.5 5.973 0 20 24.417 20 30ZM280 176c0 6.926 2.257 16 10 16 5.107 0 12.974-10.449 15-14.5 2.89-5.78 9.016-8.031 12-14 5.714-11.429-6.686-16.5-16-16.5-5.927 0-21 23.525-21 29Z"/><path fill="#FD8F9C" id="Eth" d="M185 148v3l-2-3h2ZM273 148c0 1.238-.423 3-2 3v-3h2Z"/><path fill="#C7CACA" id="em" d="M137 150c-2.109 0-2 2.535-2 4l2-4Z"/><path fill="#C9C9CA" id="scwm" d="m74 153-1 2 1-2Z"/><path fill="#12AD83" id="VISC1" d="M421 193c2.124 0 4.436 1 6 1l3-10.5v-21c0-1.616.758-9.5-1-9.5 0 .672-4.329 2-5 2 0 5.706 3.512 23.476 1 28.5l-4 9.5ZM35 193l-6 1c0-2.777-1.715-8.931-3-11.5-2.513-5.026 1-22.875 1-28.5l6 1c0 6.588-5.577 19.347-2 26.5l4 11.5Z"/><path fill="#C7CACA" id="em" d="M159 199v1c-9.098 0-22.547-24.593-26-31.5-1.098-2.195-.016-14.5 2-14.5 0 10.372-.598 16.304 4 25.5l7 8c1.422 2.844 8.541 10.5 12 10.5l1 1Z"/><path fill="#12AC83" id="VISC2/3" d="m45 191-10 2-4-11.5c-3.577-7.153 2-19.912 2-26.5l8 1c0 7.312-2.528 18.444 1 25.5.768 1.537.692 8.5 3 8.5v1ZM412 191l9 2 4-9.5c2.512-5.024-1-22.794-1-28.5l-8 1c0 6.067 1.335 20.83-1 25.5l-3 9.5Z"/><path fill="#11AC82" id="VISC4" d="M45 157c0 6.074-4.826 16.848-2 22.5 1.641 3.283 2 6.496 2 10.5-2.308 0-2.232-6.963-3-8.5-3.528-7.056-1-18.188-1-25.5l4 1Z"/><path fill="#C9C9CA" id="scwm" d="m383 156 1 2-1-2Z"/><path fill="#11AC82" id="VISC4" d="M411 191h1l3-9.5c2.335-4.67 1-19.433 1-25.5l-5 1c0 6.376 5.321 17.857 2 24.5-1.359 2.719-2 6.26-2 9.5Z"/><path fill="#12AD82" id="VISC5" d="M45 191h1c4.869 0 9.648-1 14-1 0-2.407-.906-7.311-2-9.5-2.481-4.962 1-14.573 1-19.5v-1c-4.704 0-8.508-3-13-3h-1c0 6.074-4.826 16.848-2 22.5 1.641 3.283 2 6.496 2 10.5v1Z"/><path fill="#C9C9CA" id="scwm" d="m73 157-1 2 1-2Z"/><path fill="#12AD82" id="VISC5" d="M396 190c4.635 0 9.828 1 15 1 0-3.24.641-6.781 2-9.5 3.321-6.643-2-18.124-2-24.5l-14 3v1c0 5.328 3.755 16.991 1 22.5l-2 6.5Z"/><path fill="#C9C9CA" id="scwm" d="m384 159 1 2-1-2Z"/><path fill="#11AC83" id="VISC6a" d="M60 190h1c4.01 0 8.3-2 12-2 0-3.378-1.528-8.555-3-11.5-2.084-4.167 0-10.169 0-14.5-3.249 0-7.194-1-11-1 0 4.927-3.481 14.538-1 19.5 1.094 2.189 2 7.093 2 9.5Z"/><path fill="#C9C9CA" id="scwm" d="M71 163h1v-2l-1 1v1Z"/><path fill="#FE8D9F" id="PCN" d="M208 185h3c0-2.463 3-4.65 3-7-6.062 0-19-9.488-19-16l-5.5 1-2.5-2 2 7 16 16 3 1Z"/><path fill="#11AC83" id="VISC6a" d="M383 188c3.982 0 8.748 2 13 2l2-6.5c2.755-5.509-1-17.172-1-22.5l-11 1c0 2.231 2.386 6.728 1 9.5-1.759 3.518-4 12.711-4 16.5Z"/><path fill="#11AD82" id="VISC6b" d="M73 188h1c0-8.041-3-15.911-3-25v-1h-1c0 4.331-2.084 10.333 0 14.5 1.472 2.945 3 8.122 3 11.5Z"/><path fill="#FE8D9F" id="PCN" d="M246 185h3l3-2 1.5-2c3.209-1.604 13.5-8.898 13.5-13 0-1.974 2-3.517 2-6h-7c0 6.749-14.216 16-20 16 0 2.51 4 3.687 4 7Z"/><path fill="#11AD82" id="VISC6b" d="M382 188h1c0-3.789 2.241-12.982 4-16.5 1.386-2.772-1-7.269-1-9.5h-1v2c0 9.026-3 17.461-3 24Z"/><path fill="#C8CBCC" id="ec" d="M79 202h2v-1l-2-4c0-3.35-2.439-11.377-4-14.5V164c-1.048 0-3 .473-3-1h-1c0 9.089 3 16.959 3 25l5 14Z"/><path fill="#8598CC" id="GPe" d="M118 203h3l1-1 3-1c0-6.538-10.128-37-17-37-1.643 0-1 3.765-1 5 0 3.629-2 7.589-2 12l1 2v1c1.354 0 6.595 19 12 19ZM334 202l4 1c6.288 0 11.286-20 13-20 0-7.07-2-12.513-2-19-7.994 0-17 28.937-17 36v1l2 1Z"/><path fill="#C8CBCC" id="ec" d="M375 202h2c2.227 0 1.773-9 4-9l1-5c0-6.539 3-14.974 3-24h-4v21.5l-4 12.5-1 1-1 2v1Z"/><path fill="#FD7E84" id="VAL" d="m165 203 4 1c0-7.869 16.569-13.534 21.5-16 3.391-1.695 9.589 1 12.5 1l1-2 1-1v-2l-16-16c-5.452 0-11.939 9-13 9 0 6.742-1.703 15-10 15 0 4.116-4.224 6-8 6l1 1 6 4ZM291 203l-4 1c0-7.397-15.751-13.626-20.5-16-3.391-1.695-9.589 1-12.5 1l-1-1-1-1v-4l1.5-2c3.209-1.604 13.5-8.898 13.5-13 6.601 0 9.508 8 13 8 0 6.926 2.257 16 10 16 0 3.581 5.054 6 8 6v1l-1 1-2 1-4 2Z"/><path fill="#FD8E9E" id="CM" d="M242 186h1c0-1.473 1.952-1 3-1 0-3.313-4-4.49-4-7l-7-5-4.5-2c-3.237-1.619-6.105 2-8.5 2-3.23 0-5.26 5-8 5 0 2.35-3 4.537-3 7l5 1c0-1.714 5.594-1 7-1 1.761 0 7.147-1.676 8.5-1 2.001 1 7.377 2 9.5 2h1Z"/><path fill="#C7CACA" id="em" d="m321 173-2 4c2.109 0 2-2.535 2-4ZM319 177l-1 2 1-2ZM318 179l-1 2 1-2Z"/><path fill="#97D6F9" id="STR" d="m105 181 1 2-1-2Z"/><path fill="#C7CACA" id="em" d="m317 181-2 2c1.747 0 2-.253 2-2Z"/><path fill="#FF6F80" id="TH" d="m249 185 3 2v-4l-3 2Z"/><path fill="#C7CACA" id="em" d="M315 183c-1.577 0-2 1.762-2 3 1.577 0 2-1.762 2-3Z"/><path fill="#97D6F9" id="STR" d="M357 215h2l1-1c0-5.416 9-7.086 9-11-4.751 0-17.006 3.488-20-2.5-2.413-4.826 2-12.834 2-17.5-1.714 0-6.712 20-13 20l-3 3v1h7c1.238 0 5 1.923 5 3 2.187 0 10 1.825 10 5ZM96 213l3 2c0-2.782 7.867-5 10-5l1-1 5-2h6v-2c-1.238 0-3-.423-3-2-5.405 0-10.646-19-12-19 0 4.172 3.161 12.178 1 16.5-3.6 7.2-17.026 1.5-22 1.5 0 3.29 11 5.879 11 11Z"/><path fill="#FF6F80" id="TH" d="M208 185c0 1.473-1.952 1-3 1v-2l3 1Z"/><path fill="#FF8E9E" id="RH" d="M232 196c-2.707 0-5.903 1-8 1 0-5.103-2.257-10-8-10v-1c0-1.714 5.594-1 7-1 1.761 0 7.147-1.676 8.5-1 2.001 1 7.377 2 9.5 2v1c-5.366 0-9 3.666-9 9Z"/><path fill="#FD8E9F" id="SMT" d="M201 208c0-2.875 5.959-8.581 8-4.5 2.031 4.062-1 5.916-1 9.5 5.769 0 10.289-8 13-8l3-8c0-5.103-2.257-10-8-10-1.041 0-5-.986-5-2h-3c0 1.473-1.952 1-3 1l-1 1-1 2c0 2.691-6.69 19-2 19Z"/><path fill="#FF6F80" id="TH" d="M216 186v1c-1.041 0-5-.986-5-2l5 1ZM246 185c-1.048 0-3-.473-3 1 1.048 0 3 .473 3-1Z"/><path fill="#FD8E9F" id="SMT" d="m256 208-3.5-5c-9.01-4.505-3.5 8.654-3.5 11-5.966 0-9.646-9-14-9l-3-9c0-5.334 3.634-9 9-9l1-1h1c1.048 0 3 .473 3-1h3l3 2 1 1 1 1c0 4.176 1.225 8.95 3 12.5 1.081 2.161-1 4.894-1 6.5Z"/><path fill="#FF6F80" id="TH" d="m205 186-1 1 1-1ZM242 186l-1 1v-1h1Z"/><path fill="#C7CACA" id="em" d="m313 186-1 1 1-1ZM312 187l-1 1 1-1Z"/><path fill="#209766" id="AIp6a" d="M79 206c-1.423 0-3.544-1.978-5.5-1l-4.5 4c0-6.751-8-12.741-8-19 4.01 0 8.3-2 12-2 0 5.831 6 12.361 6 18Z"/><path fill="#219666" id="AIp6b" d="m79 206 1 1-1-5-5-14h-1c0 5.831 6 12.361 6 18Z"/><path fill="#FF7E84" id="VM" d="m206 215-1 2c-10.039 0-18.463-9-28-9l-1-1h-2l-2-2h-2l-1-1c0-7.869 16.569-13.534 21.5-16 3.391-1.695 9.589 1 12.5 1 0 2.691-6.69 19-2 19 0 4.204.354 6 5 6v1Z"/><path fill="#FF6F80" id="TH" d="m253 188 1 1-1-1Z"/><path fill="#FF7E84" id="VM" d="m251 216 1 1c9.576 0 17.943-9 27-9l1-1h2l1-1h1l1-1h1l1-1c0-7.397-15.751-13.626-20.5-16-3.391-1.695-9.589 1-12.5 1 0 4.176 1.225 8.95 3 12.5 1.081 2.161-1 4.894-1 6.5 0 4.297-1.782 6-6 6l1 2Z"/><path fill="#C7CACA" id="em" d="m311 188-5 5c2.362 0 5-2.638 5-5Z"/><path fill="#219666" id="AIp6b" d="M383 188c0 1.424-.362 5-2 5l1-5h1Z"/><path fill="#209766" id="AIp6a" d="M378 205c4.691 0 7.12 4 9 4 2.16 0 2.237-6.974 3-8.5l6-10.5c-4.252 0-9.018-2-13-2 0 1.424-.362 5-2 5 0 4.639-3 7.96-3 12Z"/><path fill="#219864" id="AIp5" d="m67 211-5 1-7-4.5c-3.464-3.464-9-11.728-9-16.5 4.869 0 9.648-1 14-1h1c0 6.259 8 12.249 8 19v1l-2 1ZM389 211l6 1 7.5-5c.672-.336 8.5-15.084 8.5-16-5.172 0-10.365-1-15-1l-6 10.5c-.763 1.526-.84 8.5-3 8.5v1l2 1Z"/><path fill="#209865" id="AIp2/3" d="M62 212c-5.167 0-10.357 5-15 5 0-6.551-12-15.881-12-24l10-2h1c0 4.772 5.536 13.036 9 16.5l7 4.5ZM395 212l14 4c1.845 0 12-19.664 12-23l-9-2h-1c0 .916-7.828 15.664-8.5 16l-7.5 5Z"/><path fill="#219765" id="AIp1" d="m47 217-4 2c-1.38 0-14-21.789-14-25l6-1c0 8.119 12 17.449 12 24Z"/><path fill="#C7CACA" id="em" d="m306 193-1 1 1-1Z"/><path fill="#219666" id="AIp6b" d="m378 205-1 1v-4c2.227 0 1.773-9 4-9 0 4.639-3 7.96-3 12Z"/><path fill="#219765" id="AIp1" d="m409 216 4 3c2.566 0 14-21.431 14-25-1.564 0-3.876-1-6-1 0 3.336-10.155 23-12 23Z"/><path fill="#C7CACA" id="em" d="m305 194-1 1 1-1ZM304 195c-1.238 0-3 .423-3 2 1.238 0 3-.423 3-2Z"/><path fill="#FD909F" id="RE" d="M225 222c0-2.411-.264-17.618 2.5-19 2.056-1.028 2.082 3.665 2.5 4.5 1.98 3.959 2 9.781 2 14.5l5-1 1-1c0-5.514-3-9.941-3-15l-3-9c-2.707 0-5.903 1-8 1l-3 8c0 4.938-3 9.431-3 14l1 2h1l5 1Z"/><path fill="#97D6F9" id="STR" d="m82 200-1 1-2-4 3 3Z"/><path fill="#C7CACA" id="em" d="M298 198v1c1.238 0 3-.423 3-2l-3 1Z"/><path fill="#8499CC" id="GPi" d="M163 219c0 4.175-2.138 6-6 6-12.097 0-17.121-6.742-22-16.5-.698-1.397-6.793-8.853-3.5-10.5 6.731-3.365 31.5 12.583 31.5 21ZM293 220c0 3.518 2.927 5 6 5 11.712 0 17.202-5.905 22-15.5.755-1.51 7.297-10.102 4.5-11.5-3.114-1.557-18.923 5.461-22 7l-8.5 8-2 7Z"/><path fill="#97D6F9" id="STR" d="m377 198-1 1 1-1Z"/><path fill="#FF6F80" id="TH" d="M163 203h2l-6-4v1l4 3Z"/><path fill="#C7CACA" id="em" d="m298 199-1 1 1-1Z"/><path fill="#97D6F9" id="STR" d="M375 200v1l1-2-1 1Z"/><path fill="#90EB8D" id="LA" d="M95 215c-10.414 0-8 14.339-8 22-2.577 0-2-6.545-2-8.5 0-8.539-4-18.307-4-26.5v-1l1-1 3 2c0 3.29 11 5.879 11 11l-1 2Z"/><path fill="#8599CC" id="PAL" d="m332 201-1 1 1-2v1Z"/><path fill="#90EB8D" id="LA" d="M369 238h1v-1l1-1c0-11.186 4-23.036 4-34v-2l-3 1-1 1-1 1h-1c0 3.914-9 5.584-9 11l1 1c11.984 0 8 15.724 8 23Z"/><path fill="#A2B1D7" id="SI" d="m133 220 1 1 2.5 2c8.215 4.108-.5-6.121-.5-7l-3-5-1-1-1-2-1-1-2-2-1-1-1-2-1-1-3 1-1 1v3l1 1 1 1 3 4 1 1 3 4 1 1v1h1l1 1Z"/><path fill="#8599CC" id="PAL" d="m125 201 1 1-1-1Z"/><path fill="#FF6F80" id="TH" d="M291 203h3l1-2-4 2Z"/><path fill="#A2B1D7" id="SI" d="m322 222-1 1c-2.312 0-5 .868-5-2l1-1 2-3 1-1 1-1 4-6 1-1 4-5 1-1 1-1 2 1 1 4v1l-1 1-1 1-1 1-1 1-2 3-1 1-1 1v1l-1 1-1 1-2 2-1 1Z"/><path fill="#97D6F9" id="STR" d="m372 201-1 1 1-1Z"/><path fill="#C8C9CB" id="amc" d="M87 237v2l-3-4-1-4c0-8.341-3-16.361-3-24l-1-5h2c0 8.193 4 17.961 4 26.5 0 1.955-.577 8.5 2 8.5Z"/><path fill="#8599CC" id="PAL" d="m122 202-1 1 1-1Z"/><path fill="#C7C9CC" id="mtt" d="M206 214h1l1-1c0-3.584 3.031-5.438 1-9.5-2.041-4.081-8 1.625-8 4.5 0 4.204.354 6 5 6ZM249 214h1c4.218 0 6-1.703 6-6l-3.5-5c-9.01-4.505-3.5 8.654-3.5 11Z"/><path fill="#8599CC" id="PAL" d="m331 202-1 1 1-1ZM338 203l-3 3-1-4 4 1Z"/><path fill="#97D6F9" id="STR" d="m371 202-1 1 1-1Z"/><path fill="#C8C9CB" id="amc" d="m372 235-1 1c0-11.186 4-23.036 4-34h2v4l-1 1c0 6.59-2 12.927-2 20-1.714 0-1 5.594-1 7l-1 1Z"/><path fill="#8599CC" id="PAL" d="M121 203v2c-1.238 0-3-.423-3-2h3Z"/><path fill="#F0483B" id="ZI" d="M207 219c0 7.728-19.062 3-24 3-4.344 0-7.016-5-11-5l-2-2-4-4-5-5v-1l2-2h2l4 1 1 1h2l2 2h2l1 1c9.537 0 17.961 9 28 9l2 2Z"/><path fill="#FC8F9F" id="Xi" d="M225 222h7c0-4.719-.02-10.541-2-14.5-.418-.835-.444-5.528-2.5-4.5-2.764 1.382-2.5 16.589-2.5 19Z"/><path fill="#F0483B" id="ZI" d="M249 219c0 7.636 20.662 3 25 3l10-5c0-1.577 1.762-2 3-2l3-3 1-1 5-6c-1.747 0-2-.253-2-2h-3l-4 1-1 1h-1l-1 1h-1l-1 1h-2l-1 1c-9.057 0-17.424 9-27 9h-1l-2 2Z"/><path fill="#8599CC" id="PAL" d="m127 204 1 1-1-1Z"/><path fill="#FF6F80" id="TH" d="m169 204 1 1-1-1ZM287 204l-1 1 1-1Z"/><path fill="#8599CC" id="PAL" d="m298 204-1 1 1-1Z"/><path fill="#A0EE9C" id="EPd" d="M75 229c0 7.736 6.772 2 8 2 0-8.341-3-16.361-3-24l-1-1c-1.423 0-3.544-1.978-5.5-1l-4.5 4v1c0 7.115 6 11.827 6 19Z"/><path fill="#8599CC" id="PAL" d="M161 205v1l-1-1h1Z"/><path fill="#FF6F80" id="TH" d="m172 205 2 2-2-2Z"/><path fill="#FD909C" id="PR" d="m218 219-1 2-10-2-2-2 1-2 1-1 1-1c5.769 0 10.289-8 13-8 0 4.938-3 9.431-3 14ZM238 220l1 1 10-2 2-2v-1l-1-2h-1c-5.966 0-9.646-9-14-9 0 5.059 3 9.486 3 15Z"/><path fill="#FF6F80" id="TH" d="m285 205-1 1 1-1Z"/><path fill="#A0EE9C" id="EPd" d="m382 230-1 1c-3.893 0-7 7.994-7-4 0-7.073 2-13.41 2-20l1-1 1-1c4.691 0 7.12 4 9 4v1c0 5.523-2.713 9.927-5 14.5-.387.774-2.186 4.5 0 4.5v1Z"/><path fill="#7FC0E0" id="CEAm" fill-rule="evenodd" d="M127 225c0 1.672.142 9 2.5 9 .953 0 .42-9-2.5-9m-5 22c2.723 0 5.778 1 9 1 0-8.952 1-19.006 1-27l-1-2v-1l-1-1-3-4-1-1-3-4-1-1h-7c0 1.108 4.281 7.062 5 8.5 2.638 5.276-3 10.715-3 14.5 0 2.101-2.831 5-5 5l6 10 2 1 1 1h1Z"/><path fill="#8599CC" id="PAL" d="M121 207h1l-1-1v1Z"/><path fill="#FF6F80" id="TH" d="m283 206-1 1 1-1Z"/><path fill="#7FC0E0" id="CEAm" fill-rule="evenodd" d="m328 225-1 3v2.5c0 9.227 3.854-5.5 1-5.5m6 22h1l1-1h1l1-1h1c0-1.417 2.383-6 4-6l1-4c-1.758 0-5-3.168-5-5 0-5.278-5.106-11.289-2-17.5l5-5.5h-7l-1 1-1 1-1 1-1 1-2 3-1 1-1 1v1l-1 1-1 1v28c2.097 0 5.293 1 8 1l1-1Z"/><path fill="#80BEE1" id="CEAl" d="M109 210c0 5.832 1.145 20 8 20 0-3.785 5.638-9.224 3-14.5-.719-1.438-5-7.392-5-8.5l-5 2-1 1Z"/><path fill="#97D6F9" id="STR" d="m122 207 1 1-1-1Z"/><path fill="#8599CC" id="PAL" d="m130 207 1 1-1-1Z"/><path fill="#FF6F80" id="TH" d="m176 207 1 1-1-1ZM280 207l-1 1 1-1Z"/><path fill="#97D6F9" id="STR" d="m335 207-1 1 1-1Z"/><path fill="#80BEE1" id="CEAl" d="M347 210c0 5.72-.682 20-8 20 0-5.278-5.106-11.289-2-17.5l5-5.5c1.238 0 5 1.923 5 3Z"/><path fill="#8599CC" id="PAL" d="m326 208-1 1 1-1Z"/><path fill="#97D6F9" id="STR" d="m334 208-1 1 1-1Z"/><path fill="#80BFE0" id="CEAc" d="m110 209-1 1 1-1Z"/><path fill="#CCCACB" id="nst" d="M167 221c1.223 0 1.409 3 5 3 0-2.72-2-3.553-2-6l-4-6-4.5-3c-1.293 0 5.5 10.764 5.5 12ZM289 221c0 1.634-2.634 4-4 4 0-2.486 1-3.725 1-6 1.429 0 4-5.478 4-7l1-1c3.591 0 4-3.445 4 2-1.46 0-6 6.472-6 8Z"/><path fill="#97D6F9" id="STR" d="m333 209-1 1 1-1Z"/><path fill="#C9C8CA" id="ee" d="m74 228 1 1c0-7.173-6-11.885-6-19l-2 1 2 7 2 4v1l2 3v1l1 1Z"/><path fill="#80BFE0" id="CEAc" d="M111 235h1c2.169 0 5-2.899 5-5-6.855 0-8-14.168-8-20-2.133 0-10 2.218-10 5 0 2.873 10 11.006 10 16l2 4Z"/><path fill="#8599CC" id="PAL" d="m132 210 1 1-1-1Z"/><path fill="#97D6F9" id="STR" d="m332 210-1 1 1-1Z"/><path fill="#80BFE0" id="CEAc" d="M344 235h1l3-5 1-1c0-1.465-.109-4 2-4l1-2 1-1 1-2 1-1 2-4c0-3.175-7.813-5-10-5 0 5.72-.682 20-8 20 0 1.832 3.242 5 5 5Z"/><path fill="#C9C8CA" id="ee" d="m383 228-1 1c-2.186 0-.387-3.726 0-4.5 2.287-4.573 5-8.977 5-14.5l2 1c0 3.303-2 5.115-2 8l-1 2-1 2-1 2-1 2v1Z"/><path fill="#6ACAB9" id="PIR" d="M96 276c-.898 0-9.24 19-12 19-2.539 0-11.849-14.198-13-16.5-4.147-8.294-9.88-15.759-14-24-2.767-5.534-3.252-12.504-6-18-1.759-3.517-8-14.061-8-17.5l4-2c4.643 0 9.833-5 15-5l5-1 2 7 1 4 1 1v2l2 2v1c0 1.549 4.672 9 6 9l18 36-1 3Z"/><path fill="#8599CC" id="PAL" d="M170 217v1l-4-6v-1l4 4v2Z"/><path fill="#CCC" d="m291 211-1 1 1-1Z"/><path fill="#6ACAB9" id="PIR" d="M361 276c0 2.605 9.903 19 12 19 2.199 0 10.91-14.32 12-16.5 3.512-7.023 8.384-11.768 12-19 4.256-8.512 5.774-18.548 10-27 1.819-3.638 6-9.391 6-13.5l-4-3-14-4-6-1c0 3.303-2 5.115-2 8l-1 2v2l-1 1v1l-1 2-1 1v1l-1 1-1 1c0 1.417-2.383 6-4 6 0 9.605-17 26.838-17 35l1 4Z"/><path fill="#97D6F9" id="STR" d="m126 212 1 1-1-1Z"/><path fill="#8599CC" id="PAL" d="M286 217v2c1.429 0 4-5.478 4-7l-3 3-1 2Z"/><path fill="#C8CBCC" id="ec" d="M99 215c0 2.873 10 11.006 10 16-3.119 0-6.833-16-14-16l1-2 3 2Z"/><path fill="#FD8E9F" id="SMT" d="m208 213-1 1 1-1Z"/><path fill="#CCC" d="m293 220-4 1c0-1.528 4.54-8 6-8l-2 7Z"/><path fill="#FD8E9F" id="SMT" d="m207 214-1 1v-1h1Z"/><path fill="#97D6F9" id="STR" d="m329 214-1 1 1-1Z"/><path fill="#C8CBCC" id="ec" d="M359 215h2l-1-1-1 1Z"/><path fill="#9DE79B" id="BLAa" d="M99 255h8l6-9v-5c0-2.483-2-4.026-2-6l-2-4c-3.119 0-6.833-16-14-16-10.414 0-8 14.339-8 22v3c.487 0 6.066 15 12 15Z"/><path fill="#E64438" id="HY" d="M170 217h2l-2-2v2ZM284 217h2l1-2c-1.238 0-3 .423-3 2Z"/><path fill="#8599CC" id="PAL" d="m321 215-1 1 1-1Z"/><path fill="#97D6F9" id="STR" d="m328 215-1 1 1-1Z"/><path fill="#C8CBCC" id="ec" d="m359 215-4 4 2-4h2Z"/><path fill="#9DE79B" id="BLAa" d="M358 255h1l2-1 1-1 1-1 1-1 1-2c0-1.238.423-3 2-3v-1l1-2 1-2v-3c0-7.276 3.984-23-8-23h-2l-4 4-1 1-1 2-1 1-1 2-2 4-1 1-3 5-2 4v7l6 8c2.16 0 4.167 2 7 2l2-1Z"/><path fill="#8599CC" id="PAL" d="m155 237 5 1c0-7.391 12-1.167 12-14-3.591 0-3.777-3-5-3l-4-2c0 4.175-2.138 6-6 6 0 13.887-19.304-9-21-9 0 .879 8.715 11.108.5 7l-2.5-2v1l9 9c0-8.893 9.599 6 12 6Z"/><path fill="#FF6F80" id="TH" d="M251 217h1l-1-1v1Z"/><path fill="#8599CC" id="PAL" d="m320 216-1 1 1-1Z"/><path fill="#97D6F9" id="STR" d="m130 217 1 1-1-1Z"/><path fill="#F2483A" id="LHA" d="m174 260 4 1 6-3v-1c-1.247 0-1.675-8.15-1-9.5 2.192-4.384 5.04-6.5 10-6.5 0-9.378-10-17.031-10-19-4.344 0-7.016-5-11-5h-2v1c0 2.447 2 3.28 2 6 0 12.833-12 6.609-12 14l5 10v1l9 11ZM278 261h4l1-1c0-1.247 2.467-5 4-5 0-1.238.423-3 2-3l1-1 1-2c0-1.238.423-3 2-3l1-2 1-1 1-2 1-4c0-4.26-6.809-2.655-9.5-4-2.997-1.498-2.5-5.668-2.5-8 0-2.486 1-3.725 1-6v-2h-2l-10 5-7 6.5c-2.157 4.314-3 7.191-3 12.5 9.294 0 9 7.818 9 16l1 2 4 2Z"/><path fill="#97D6F9" id="STR" d="m327 217-1 1 1-1Z"/><path fill="#A0EE9C" id="EPd" d="M70 222h1l-2-4 1 4Z"/><path fill="#97D6F9" id="STR" d="m326 218-1 1 1-1ZM134 221v1l-2-1-1-2h1l1 1 1 1Z"/><path fill="#8599CC" id="PAL" d="m132 219 1 1-1-1Z"/><path fill="#E64438" id="HY" d="M274 259c-8.219 0-10.671 16-15 16 0-2.985 1.529-6.442 0-9.5-2.418-4.837-14.624-16.938-21.5-13.5l-5.5 5v-10c18.015 0 16.229-12 0-12 0-4.568-3-8.717-3-2h-2c0-6.735-3-2.425-3 2-15.453 0-18.233 12 0 12v10l-4.5-5c-8.365-4.182-19.535 8.571-22.5 14.5v8.5c-3.058 0-6.43-10.93-8.5-13l-4.5-4v-1l3-1c0 3.76 5.538-2.577 6-3.5l-1-4.5c7.853 0 1-4.305 1-7 0-9.378-10-17.031-10-19 4.938 0 24 4.728 24-3l10 2h3c0 6.133 17 4.831 17 0h2l10-2c0 7.636 20.662 3 25 3l-7 6.5c-2.157 4.314-3 7.191-3 12.5-7.593 0 0 7.905 0 8-3.008 0 2.118 7.309 3.5 8l2.5-1c0 1.473 1.952 1 3 1l1 2Z"/><path fill="#FF6F80" id="TH" d="M217 221h2l-1-2-1 2Z"/><path fill="#97D6F9" id="STR" d="m323 221 2 1v-3l-2 2Z"/><path fill="#C8CBCC" id="ec" d="m355 219-1 1 1-1Z"/><path fill="#A0EE9C" id="EPd" d="m387 219-1 2 1-2Z"/><path fill="#FF6F80" id="TH" d="M237 221h2l-1-1-1 1Z"/><path fill="#8599CC" id="PAL" d="M297 237h4c2.053 0 13-14.449 13-6l7-8c-2.312 0-5 .868-5-2-2.279 0-17 15.638-17 4-3.073 0-6-1.482-6-5l-4 1c0 1.634-2.634 4-4 4 0 2.332-.497 6.502 2.5 8 2.691 1.345 9.5-.26 9.5 4ZM317 220l-1 1 1-1Z"/><path fill="#C8CBCC" id="ec" d="m354 220-1 2 1-2Z"/><path fill="#80BFE1" id="MEA" d="m138 287 2 1c5.808 0 17.354-10.208 20-15.5V262l-1-1c0-8.305-8.465-15.43-12-22.5l-3-5.5-1-1v-1l-9-9-2-1c0 7.994-1 18.048-1 27v23l1 2c0 2.044 4.126 14 6 14Z"/><path fill="#FF6F80" id="TH" d="M225 222h7l5-1c0 4.831-17 6.133-17 0l5 1Z"/><path fill="#8599CC" id="PAL" d="m323 221-1 1 1-1Z"/><path fill="#80BFE1" id="MEA" d="M316 288h1c4.863 0 5.085-15 8-15v-51l-2-1-1 1-1 1-7 8-5 7.5c-3.563 7.125-12 15.176-12 23.5v12.5c2.075 4.149 14.859 13.5 19 13.5Z"/><path fill="#A0EE9C" id="EPd" d="M385 223h1v-2l-1 2Z"/><path fill="#8AD987" id="CTXsp" d="M71 222v1l-1-1h1Z"/><path fill="#8599CC" id="PAL" d="m322 222-1 1 1-1Z"/><path fill="#C8CBCC" id="ec" d="m353 222-1 1 1-1Z"/><path fill="#A0EE9C" id="EPd" d="m71 225 2 1-2-3v2Z"/><path fill="#C8CBCC" id="ec" d="m352 223-1 2 1-2Z"/><path fill="#A0EE9C" id="EPd" d="M384 225h1v-2l-1 2Z"/><path fill="#8AD987" id="CTXsp" d="m386 223-1 1v-1h1ZM73 226v1l-2-2 2 1Z"/><path fill="#C7CAC8" id="stc" d="M127 225c0 1.672.142 9 2.5 9 .953 0 .42-9-2.5-9ZM328 225l-1 3v2.5c0 9.227 3.854-5.5 1-5.5Z"/><path fill="#C8CBCC" id="ec" d="M351 225c-2.109 0-2 2.535-2 4l2-4Z"/><path fill="#A0EE9C" id="EPd" d="M383 227h1v-2l-1 2Z"/><path fill="#8AD987" id="CTXsp" d="m385 225-1 2v-2h1Z"/><path fill="#A0EE9C" id="EPd" d="M73 228h1l-1-1v1Z"/><path fill="#8AD987" id="CTXsp" d="m373 234 4 3c1.617 0 4-4.583 4-6-3.893 0-7 7.994-7-4-1.714 0-1 5.594-1 7ZM384 227l-1 1v-1h1ZM84 235c-2.25 0-3.376 2-5 2-1.328 0-6-7.451-6-9h1l1 1c0 7.736 6.772 2 8 2l1 4Z"/><path fill="#CACCCB" id="opt" d="M160 262v1l4.5 2c6.73 3.365.5-11.415.5-12v-1c-2.369 0-6.988-10.476-8-12.5l-2-2.5c-2.401 0-12-14.893-12-6v1l1 1 3 5.5c3.535 7.07 12 14.195 12 22.5l1 1ZM295 264l-2 1c-9.124 0-2-7.026-2-12l1-2 1-1v-1c1.577 0 2-1.762 2-3 1.577 0 2-1.762 2-3 1.617 0 4-4.583 4-6 2.053 0 13-14.449 13-6l-5 7.5c-3.563 7.125-12 15.176-12 23.5l-1 1-1 1Z"/><path fill="#A0EE9C" id="EPd" d="M382 229h1v-1l-1 1Z"/><path fill="#FD5D50" id="PVi" d="M224 272h3v-39c0-6.735-3-2.425-3 2v37ZM229 272l3 1v-38c0-4.568-3-8.717-3-2v39Z"/><path fill="#C8CBCC" id="ec" d="m349 229-1 1 1-1Z"/><path fill="#8AD987" id="CTXsp" d="m383 229-1 1v-1h1ZM382 230l-1 1 1-1Z"/><path fill="#8599CC" id="PAL" d="m143 232 1 1-1-1Z"/><path fill="#A8A9AA" id="V3" d="M227 272c0 1.893-1.065 14 1.5 14l.5-14v-39h-2v39Z"/><path fill="#FE5445" id="DMH" d="M224 235c-15.453 0-18.233 12 0 12v-12ZM232 235c16.229 0 18.015 12 0 12v-12Z"/><path fill="#8AD987" id="CTXsp" d="m373 234-1 1 1-1Z"/><path fill="#A0ED9D" id="EPv" d="M357 273h1l2-1c0-8.162 17-25.395 17-35l-4-3-1 1-1 1-1 1v1c0 1.048.473 3-1 3l-1 2-1 2v1c0 1.238-.423 3-2 3l-1 2-1 1-1 1-1 1-1 1-1 1-1 4c0 4.569-1 8.923-1 13ZM97 273h2v-14l-2-3c0-1.693-10-9.577-10-16v-1l-3-4c-2.25 0-3.376 2-5 2l18 36Z"/><path fill="#97D6F9" id="STR" d="M116 245h2l-6-10h-1c0 1.974 2 3.517 2 6l3 4ZM345 235l-2 4 1-4h1Z"/><path fill="#C8C9CB" id="amc" d="m371 236-1 1 1-1Z"/><path fill="#CAC7CB" id="fiber tracts" fill-rule="evenodd" d="M159 241c0 3.781 3.781 0 0 0m6 7-3.5-4 3.5 8c-2.369 0-6.988-10.476-8-12.5l-2-2.5 5 1 5 10Z"/><path fill="#CAC7CB" id="fiber tracts" d="m296 241 1 2c1.617 0 4-4.583 4-6h-4l-1 4Z"/><path fill="#C8C9CB" id="amc" d="M370 238c0 1.048.473 3-1 3v-3h1Z"/><path fill="#97D6F9" id="STR" d="M339 245h2c0-1.238.423-3 2-3v-3c-1.617 0-4 4.583-4 6Z"/><path fill="#C8C9CB" id="amc" d="M99 255c0 2.787 1.212 1-2 1 0-1.693-10-9.577-10-16 .487 0 6.066 15 12 15Z"/><path fill="#8AD987" id="CTXsp" d="m116 245-3 1v-5l3 4Z"/><path fill="#CCCAC9" id="sup" d="M159 241c0 3.781 3.781 0 0 0Z"/><path fill="#F2463A" id="PeF" d="m187 256-3 1c-1.247 0-1.675-8.15-1-9.5 2.192-4.384 5.04-6.5 10-6.5 0 2.695 6.853 7-1 7-4.433 0-5 4.585-5 8ZM270 256c0 1.473 1.952 1 3 1 0-8.182.294-16-9-16-7.593 0 0 7.905 0 8 3.888 0 6 1.834 6 7Z"/><path fill="#CAC7CB" id="fiber tracts" d="m294 244 1 2c1.577 0 2-1.762 2-3l-1-2-1 2-1 1Z"/><path fill="#CCCAC9" id="sup" d="m296 241 1 2-1-2Z"/><path fill="#C8C9CB" id="amc" d="m369 241-1 2 1-2Z"/><path fill="#8AD987" id="CTXsp" d="m341 245 2 1v-4c-1.577 0-2 1.762-2 3Z"/><path fill="#C8C9CB" id="amc" d="m368 243-1 2 1-2Z"/><path fill="#CCCAC9" id="sup" d="M165 252v1l10.5 14c1.372 0-.692-3.692-1-4-2.699-2.699-9.5-10.324-9.5-14v-1l-3.5-4 3.5 8Z"/><path fill="#CAC7CB" id="fiber tracts" d="M291 249c.839 0 2-1.93 2 0 1.577 0 2-1.762 2-3l-1-2-1 2c-1.577 0-2 1.762-2 3Z"/><path fill="#CCCAC9" id="sup" d="m294 244 1 2-1-2Z"/><path fill="#84EA80" id="BMAa" d="m110 278 3 1c6.155 0 10.912-7 17-7l1-1v-17l-5.5-5-3.5-2h-1l-1-1-2-1h-2l-3 1-6 9-1 5 1 14 3 4Z"/><path fill="#97D6F9" id="STR" d="m338 245-1 1 1-1Z"/><path fill="#84EA80" id="BMAa" d="m347 278-3 1c-6.255 0-11.108-7-17-7l-2-1v-16l2.5-4 5.5-3 1-1h1l1-1h1l1-1h3l2 1 6 8c0 .671 1.328 5 2 5l-2 16-2 3Z"/><path fill="#97D6F9" id="STR" d="m120 246 1 1-1-1ZM336 246l-1 1 1-1Z"/><path fill="#C8C9CB" id="amc" d="M367 246c-1.577 0-2 1.762-2 3 1.577 0 2-1.762 2-3Z"/><path fill="#97D6F9" id="STR" d="M131 248v6l-5.5-5-3.5-2c2.723 0 5.778 1 9 1ZM333 248l-5.5 3-2.5 4v-8c2.097 0 5.293 1 8 1ZM334 247l-1 1 1-1Z"/><path fill="#C7C8CA" id="fx" d="M192 248c-4.433 0-5 4.585-5 8 0 3.76 5.538-2.577 6-3.5l-1-4.5ZM264 249c3.888 0 6 1.834 6 7l-2.5 1c-1.382-.691-6.508-8-3.5-8Z"/><path fill="#CCCAC9" id="sup" d="m293 250-1 1-1-2c.839 0 2-1.93 2 0v1Z"/><path fill="#CAC7CB" id="fiber tracts" d="M177 265c0 5.051 10 16.424 10 18l-8.5-8c-4.051-4.051-12.65-11-18.5-11v-1l4.5 2c6.73 3.365.5-11.415.5-12l10.5 14c1.372 0-.692-3.692-1-4-2.699-2.699-9.5-10.324-9.5-14l9 11 3 5ZM292 251l-1 2-1-2 1-2 1 2Z"/><path fill="#C8C9CB" id="amc" d="m365 249-1 2 1-2Z"/><path fill="#CAC7CB" id="fiber tracts" d="m293 250-1 1 1-1ZM290 251l-1 1 1-1Z"/><path fill="#CCCAC9" id="sup" d="m291 253-2 3.5c-.526 1.053-4.218 3.435-3 1l1-2.5c1.577 0 2-1.762 2-3l1-1 1 2Z"/><path fill="#FF4A3D" id="VMH" d="m216 281-5.5 2-5.5-1c-2.718 0-5.396-5-7-5l-1-1v-9.5c2.965-5.929 14.135-18.682 22.5-14.5l4.5 5v13c-.254 0-5 7.952-5 9-1.238 0-3 .423-3 2ZM251 282l-2 1c-4.535 0-11.643-2.787-14-7.5l-3-6.5v-12l5.5-5c6.876-3.438 19.082 8.663 21.5 13.5 1.529 3.058 0 6.515 0 9.5 0 3.225-5.096 7-8 7Z"/><path fill="#CAC7CB" id="fiber tracts" d="M289 252c-1.577 0-2 1.762-2 3 1.577 0 2-1.762 2-3Z"/><path fill="#C8C9CB" id="amc" d="m363 252-1 1 1-1Z"/><path fill="#CAC7CB" id="fiber tracts" fill-rule="evenodd" d="M279 266c0 4.873-6 8.492-6 13 4.505 0 5.866-7.683 10.5-10 1.373-.686 9.5-2.619 9.5-4-9.124 0-2-7.026-2-12l-2 3.5c-.526 1.053-4.218 3.435-3 1l1-2.5c-1.533 0-4 3.753-4 5v1h-1l-1 3c4.282 0 0 5.195 0 0l-2 2m4-5c0 5.126 3.82-2 2.5-2l-2.5 2Z"/><path fill="#C8C9CB" id="amc" d="m362 253-1 1 1-1Z"/><path fill="#8AD987" id="CTXsp" d="m356 258 2 2 1-4-1-1-2 1c-2.833 0-4.84-2-7-2 0 .671 1.328 5 2 5l2-1c.716 0 3-2.373 3 0Z"/><path fill="#C8C9CB" id="amc" d="M359 255h1l1-1-2 1Z"/><path fill="#8AD987" id="CTXsp" d="M103 258c2.215 0 1.519 2 3 2l1-5h-8c0 2.787 1.212 1-2 1l2 3 2-1c0-1.93 1.161 0 2 0Z"/><path fill="#C8C9CB" id="amc" d="M359 255v1l-1-1h1Z"/><path fill="#8AD987" id="CTXsp" d="m360 255-1 1v-1h1Z"/><path fill="#C8C9CB" id="amc" d="M101 258c.839 0 2 1.93 2 0-.839 0-2-1.93-2 0ZM353 258c.716 0 3-2.373 3 0-.716 0-3 2.373-3 0Z"/><path fill="#9CE79C" id="BLAv" d="M103 277h2c1.577 0 2-1.762 2-3l-1-14c-1.481 0-.785-2-3-2 0 1.93-1.161 0-2 0l-2 1v14l4 4Z"/><path fill="#F24839" id="TU" d="M207 289v1c-6.49 0-11.943-3-16-3l-2-2h-1l-1-1v-1c0-1.576-10-12.949-10-18l1-4 6-3 4.5 4c2.07 2.07 5.442 13 8.5 13v1l1 1c1.604 0 4.282 5 7 5l4 3-2 4ZM248 286l1 4 12.5-1 6.5-4 1-1 1-1 1-1v-1l2-2c0-4.508 6-8.127 6-13l-1-5-4-2c-8.219 0-10.671 16-15 16 0 3.225-5.096 7-8 7l-2 1-1 3Z"/><path fill="#9CE79C" id="BLAv" d="M352 277h1l1-1h1l1-1 1-2c0-4.077 1-8.431 1-13l-2-2c-.716 0-3 2.373-3 0l-2 1-2 16c0 1.577 1.762 2 3 2Z"/><path fill="#CCCAC9" id="sup" d="M283 261c0 5.126 3.82-2 2.5-2l-2.5 2Z"/><path fill="#E64438" id="HY" d="m178 261-1 4-3-5 4 1ZM282 261h1v-1l-1 1Z"/><path fill="#CAC7CB" id="fiber tracts" d="m159 261 1 1-1-1Z"/><path fill="#E64438" id="HY" d="m281 264-2 2-1-5h4l-1 3Z"/><path fill="#CAC7CB" id="fiber tracts" d="M296 263h1v-1l-1 1Z"/><path fill="#CCCAC9" id="sup" d="M281 264c0 5.195 4.282 0 0 0Z"/><path fill="#CAC7CB" id="fiber tracts" d="m296 263-1 1 1-1ZM295 264l-2 1 2-1Z"/><path fill="#E64438" id="HY" d="m249 283-1 3c-3.388 0-9.98-5.48-12.5-8l-3.5-5v-4l3 6.5c2.357 4.713 9.465 7.5 14 7.5ZM224 272c0 2.421-2.642 7-5 7 0-1.048 4.746-9 5-9v2Z"/><path fill="#99D2BD" id="OLF" d="m130 272 2 1-1-2-1 1ZM327 272l-2 1v-2l2 1Z"/><path fill="#60E5B7" id="COAa" d="M118 298h1l1-1c6.164 0 14.698-8 19-8l-1-2c-1.874 0-6-11.956-6-14l-2-1c-6.088 0-10.845 7-17 7l-2 4v3l1 2v1c2.929 0 .879 9 6 9Z"/><path fill="#FF5B4F" id="ARH" d="M239 291h9l1-1-1-4c-3.388 0-9.98-5.48-12.5-8l-3.5-5-3-1-.5 14c-2.565 0-1.5-12.107-1.5-14h-3c0 2.421-2.642 7-5 7 0 1.577-1.762 2-3 2 0 1.948-5.428 4-7 4l-2 4 2 2h24.5c1.549 0 4.5-.958 4.5 0h1Z"/><path fill="#60E5B7" id="COAa" d="M343 293c-1.877 0-1.011 5-5 5-6.606 0-15.822-9-21-9v-1c4.863 0 5.085-15 8-15l2-1c5.892 0 10.745 7 17 7 0 1.564 1 3.876 1 6v3l-1 2c-1.473 0-1 1.952-1 3Z"/><path fill="#99D2BD" id="OLF" d="m357 275 4 1-1-4-2 1-1 2ZM99 275l-3 1 1-3h2v2Z"/><path fill="#8AD987" id="CTXsp" d="m101 276 2 1-4-4v2h1l1 1ZM356 275h1l1-2h-1l-1 2ZM106 278h4l-3-4c0 1.238-.423 3-2 3l1 1Z"/><path fill="#59D9AA" id="PAA" d="m113 300-1 1c-4.637 0-28 1.568-28-6 2.76 0 11.102-19 12-19l3-1h1l1 1 2 1h2l1 1 5 5v3l1 2v1l1 11Z"/><path fill="#99D2BD" id="OLF" d="m100 275 1 1-1-1Z"/><path fill="#8AD987" id="CTXsp" d="M347 278h4l1-1c-1.238 0-3-.423-3-2l-2 3ZM356 275l-1 1 1-1Z"/><path fill="#59D9AA" id="PAA" d="m373 295-3.5 2c-10.593 5.297-13.022 4-24.5 4l-2-1.5V293c1.473 0 1-1.952 1-3l1-2v-3l2-3.5 4-3.5 1-1h1l1-1h1l1-1h1l4 1c0 2.605 9.903 19 12 19Z"/><path fill="#E64438" id="HY" d="m197 276 1 1-1-1Z"/><path fill="#8AD987" id="CTXsp" d="m354 276-1 1 1-1Z"/><path fill="#99D2BD" id="OLF" d="m113 279-2 4-5-5h4l3 1ZM344 279c0 1.564 1 3.876 1 6l2-3.5 4-3.5h-4l-3 1Z"/><path fill="#E64438" id="HY" d="M219 279c-1.238 0-3 .423-3 2 1.238 0 3-.423 3-2Z"/><path fill="#CAC7CB" id="fiber tracts" d="m273 279-2 2c1.747 0 2-.253 2-2Z"/><path fill="#E64438" id="HY" d="m205 282 4 3c1.572 0 7-2.052 7-4l-5.5 2-5.5-1ZM251 282l-2 1 2-1Z"/><path fill="#CAC7CB" id="fiber tracts" d="m271 282-1 1 1-1ZM187 284l1 1-1-1ZM269 284l-1 1 1-1ZM189 285l2 2-2-2Z"/><path fill="#99D2BD" id="OLF" d="m111 286 1 2-1-2ZM140 288l-1 1-1-2 2 1ZM317 288v1l-1-1h1ZM345 288l-1 2 1-2ZM118 298c0 1.014-3.959 2-5 2l-1-11c2.929 0 .879 9 6 9Z"/><path fill="#E64438" id="HY" d="m207 290 2 1-2-2v1Z"/><path fill="#F1473A" id="ME" d="M218 292c3.911 0 9.203 5.649 14.5 3l5.5-3v-1c0-.958-2.951 0-4.5 0H218v1Z"/><path fill="#E64438" id="HY" d="m249 290-1 1 1-1Z"/><path fill="#99D2BD" id="OLF" d="M344 290c-1.473 0-1 1.952-1 3 1.473 0 1-1.952 1-3Z"/><path fill="#E64438" id="HY" d="M218 291v1l-1-1h1ZM239 291l-1 1v-1h1Z"/><path fill="#99D2BD" id="OLF" d="M338 298c0 .886 5.824 3 7 3l-2-1.5V293c-1.877 0-1.011 5-5 5ZM120 297l-1 1 1-1ZM113 300l-1 1 1-1Z"/></svg>