<svg xmlns="http://www.w3.org/2000/svg" viewBox="0 0 456 320"><path fill="#FCFB90" id="CUL4, 5" d="M157 131c7.049 0 15.325-7.15 18-12.5v-13c3.199-6.398 4.744-13.488 8-20 4.461-8.922 17.246-11.873 24.5-15.5 3.408-1.704 8.446-.223 12-2 4.75-2.375 18.193.096 22 2l11 1c12.08 6.04 20.386 13.272 26.5 25.5 5.689 11.378-2.694 23.403 11.5 30.5 2.844 1.422 5.045 4 8.5 4 0-10.518-.046-33.593-4-41.5-2.806-5.611-13-20.023-13-25.5l-1-2v-5c-1.579 0-1-2.855-1-4 0-7.515-12.796-11.648-17.5-14-10.995-5.497-59.971-5.515-71 0-4.68 2.34-8.395 4.395-12 8-1.062 1.062-1.481 6-3.5 6v2c0 1.32.684 6-1 6v3l-1 1c0 6.381-8.192 14.885-11 20.5-6.162 12.325-6 30.781-6 45.5Z"/><path fill="#FDFB8F" id="SIM" d="M137 109c1.728 0 3.305-7.11 4-8.5 3.806-7.612 5.222-16.443 9-24 1.588-3.177-.936-7.782 2.5-9.5 1.582-.79 4.838-8.58 8-7L153 71.5c-4.6 9.2-5.604 25.208-11 36-3.383 6.766 2.361 20.931 7.5 23.5.965.483 7.5 2.19 7.5 0 0-14.719-.162-33.175 6-45.5 2.808-5.615 11-14.119 11-20.5l1-1v-3c0-1.32-.684-6 1-6v-1l-1-1-7.5-6c-8.78-4.39-38.5 12.38-38.5 22l4 6.5v22l4 11.5ZM320 110c-2.045 0-4.174-8.848-5-10.5l-8-20-2-12-9.5-8.5c-2.179 0 5.229 6.958 5.5 7.5l5 14 3 14c6.562 13.125 11.664 36.5-10 36.5 0-10.518-.046-33.593-4-41.5-2.806-5.611-13-20.023-13-25.5l-1-2v-9l7.5-6c9.205-4.602 38.5 12.215 38.5 22 0 1.785-2.878 6.257-4 8.5v22c-1.707 3.414-3 6.352-3 10.5Z"/><path fill="#FEFA90" id="DEC" d="M176 53v1l-1-1h1ZM281 53v4c-1.579 0-1-2.855-1-4h1ZM176 55c-1.684 0-1 4.68-1 6 1.684 0 1-4.68 1-6Z"/><path fill="#CBC9CC" id="arb" fill-rule="evenodd" d="m209 143 .5 9 14-4c5.667-2.834 20.665 5.168 23 4v-9c-.963-.482-19.045 2-23 2-5.447 0-8.862-2-14.5-2m-84 46c0 1.229-8.033 13-2 13 0-4.555 4.034-10.568 6-14.5l8-7.5c0-10.807-10.974-20.552-6-30.5 4.25-8.5 12.51.995 17.5-1.5 3.13-1.565 5.848-3.424 9-5 2.851-1.426 7.01-.505 10-2 1.917-.959 5.443-5.279 8-4 4.074 2.037 1.5 4.449 1.5 7 1.819 0 4.591 1 7 1 0-10.141 20.613-3.274 23 1.5 4.266 8.532-9 11.004-9 12.5 4.334 0 7.01-3 11-3 0-6.12 24.698-6.901 30.5-4l7.5 4 11 3c0-1.35-7.691-3.882-9-6.5-2.267-4.534 3.184-9.842 6.5-11.5 3.193-1.597 12.027-1.486 15 0l2.5 4c2.124 0 4.436-1 6-1 0-2.151-.815-5.843 1.5-7 2.39-1.195 7.091 3.046 9 4 5.992 2.996 12.915 3.957 19 7 4.707 2.353 12.229-7.043 16.5 1.5 5.367 10.734-6 19.557-6 30.5l6 4.5c2.779 5.558 8 10.844 8 17.5 6.141 0-2-12.669-2-14-2.404 0-6-11.748-6-14-1.602 0-1.602-7 0-7 0-7.233 13.194-9 20-9 4.481 0 10.648 2.074 14.5 4l6 5c1.795 0-5.618-9-.5-9 0-4.88 11-1.967 11-6.5 0-.517-10.609 3.5-12 3.5-6.897 0-20.347-4.924-26.5-8l-5.5-3-4-4.5c-9.155-18.31 3.144-14.289 9-26 .951-1.901 5.168-7.663 4-10-.395-.79-6.673 9.587-8.5 10.5-3.448 1.724-12.5 1.111-12.5-4-2.045 0-4.174-8.848-5-10.5l-8-20-2-12-9.5-8.5c-2.179 0 5.229 6.958 5.5 7.5l5 14 3 14c6.562 13.125 11.664 36.5-10 36.5-3.455 0-5.656-2.578-8.5-4-14.194-7.097-5.811-19.122-11.5-30.5-6.114-12.228-14.42-19.46-26.5-25.5l-11-1c-3.807-1.904-17.25-4.375-22-2-3.554 1.777-8.592.296-12 2-7.254 3.627-20.039 6.578-24.5 15.5-3.256 6.512-4.801 13.602-8 20v13c-2.675 5.35-10.951 12.5-18 12.5 0 2.19-6.535.483-7.5 0-5.139-2.569-10.883-16.734-7.5-23.5 5.396-10.792 6.4-26.8 11-36l7.5-11.5c-3.162-1.58-6.418 6.21-8 7-3.436 1.718-.912 6.323-2.5 9.5-3.778 7.557-5.194 16.388-9 24-.695 1.39-2.272 8.5-4 8.5 0 5.716-8.8 6.85-12.5 5-3.7-1.85-4.601-6.601-7-9-.525-.525-1.843-4.815-2.5-3.5-2.391 4.781 14.451 22.901 17 28 1.786 3.573-4.141 14.5-8 14.5l-6 3.5c-1.767 1.767-25.702 8.399-27.5 7.5L78 149.5l3 3c1.772 1.772 11 2.435 11 5.5 3.469 0-2.235 8.632-1.5 9l5-4c4.34-2.17 10.422-5 15.5-5 6.098 0 20-.056 20 9 1.613 0 1.613 8 0 8 0 2.254-3.816 14-6 14m91-48c4.744 0 12.984 4.758 18.5 2l5.5-2 5.5-3c10.423-5.212 21.79-8.081 27.5-19.5 1.196-2.392.837-5.673 2-8 .927-1.854 3.13-7.74 2-10-2.499-4.998-5.462-9.924-8-15-4.648-9.296-19.364-9.432-27.5-13.5-1.238-.619-7.853 1.073-12-1-3.222-1.61-7.709 4.146-12 2-2.147-1.073-5.572-.214-8 1-3.514 1.757-8.454 1.227-12 3-5.794 2.897-13.43 12.36-16.5 18.5-7.382 14.764 7.868 31.684 19.5 37.5 3.029 1.514 12.702 8 15.5 8Z"/><path fill="#FEFA90" id="DEC" d="m281 62 1 2-1-2ZM175 64l-1 1 1-1Z"/><path fill="#FCFC90" id="ANcr1" fill-rule="evenodd" d="M116 87c0 3.183-7.356 7.572-2.5 10l1 2 .5-5.5c.457-.914 3.603-6.5 1-6.5m-42 30c4.373 0 14.907.314 17 4.5 2.954 5.909 3.778 14.139 10.5 17.5 5.406 2.703 12.57 1.285 18 4 1.147.574 4.5-1.064 4.5 1 3.859 0 9.786-10.927 8-14.5-2.549-5.099-19.391-23.219-17-28 .657-1.315 1.975 2.975 2.5 3.5 2.399 2.399 3.3 7.15 7 9 3.7 1.85 12.5.716 12.5-5l-4-11.5v-22l-4-6.5c-4.108 0-8.375-2.062-12.5 0-13.985 6.992-42.5 32.797-42.5 48ZM339 87l2 4.5v9c.924 1.848 7.241-13.5-2-13.5m43 30c-5.653 0-15.108.717-18 6.5-2.215 4.43-1.865 11.682-7.5 14.5-4.363 2.182-19.676 6-24.5 6l-4-4.5c-9.155-18.31 3.144-14.289 9-26 .951-1.901 5.168-7.663 4-10-.395-.79-6.673 9.587-8.5 10.5-3.448 1.724-12.5 1.111-12.5-4 0-4.148 1.293-7.086 3-10.5v-22c1.122-2.243 4-6.715 4-8.5 4.349 0 9.14-2.18 13.5 0 8.294 4.147 25.006 18.513 28.5 25.5l4 3c6.109 6.109 9 10.838 9 19.5Z"/><path fill="#FCFB90" id="CUL4, 5" d="M216 141c-2.798 0-12.471-6.486-15.5-8-11.632-5.816-26.882-22.736-19.5-37.5 3.07-6.14 10.706-15.603 16.5-18.5 3.546-1.773 8.486-1.243 12-3 2.428-1.214 5.853-2.073 8-1 4.291 2.146 8.778-3.61 12-2 4.147 2.073 10.762.381 12 1 8.136 4.068 22.852 4.204 27.5 13.5 2.538 5.076 5.501 10.002 8 15 1.13 2.26-1.073 8.146-2 10-1.163 2.327-.804 5.608-2 8-5.71 11.419-17.077 14.288-27.5 19.5l-5.5 3c0-6.559 6.364-16.772 3-23.5-.914-1.828-13.542-14.479-15.5-13.5-5.648 2.824-11.786 9.072-14.5 14.5-2.93 5.86 3 16.206 3 22.5Z"/><path fill="#CBC9CC" id="arb" d="M116 87c0 3.183-7.356 7.572-2.5 10l1 2 .5-5.5c.457-.914 3.603-6.5 1-6.5ZM339 87l2 4.5v9c.924 1.848 7.241-13.5-2-13.5Z"/><path fill="#FFFC8E" id="CENT3" d="M216 141c4.744 0 12.984 4.758 18.5 2l5.5-2c0-6.559 6.364-16.772 3-23.5-.914-1.828-13.542-14.479-15.5-13.5-5.648 2.824-11.786 9.072-14.5 14.5-2.93 5.86 3 16.206 3 22.5Z"/><path fill="#FCFA91" id="ANcr2" d="m92 158-6.5 3-9.5 6-1.5-2c-10.802-5.401-15.51-23.481-9.5-35.5 1.109-2.217 9-11.233 9-12.5 4.373 0 14.907.314 17 4.5 2.954 5.909 3.778 14.139 10.5 17.5 5.406 2.703 12.57 1.285 18 4 1.147.574 4.5-1.064 4.5 1l-6 3.5c-1.767 1.767-25.702 8.399-27.5 7.5L78 149.5l3 3c1.772 1.772 11 2.435 11 5.5Z"/><path fill="#FCFA91" id="ANcr2" fill-rule="evenodd" d="M376 150c0 2.112 5.567 0 0 0m-11 8 16 9c0-2.076 7.698-5.896 9-8.5 6.4-12.799 2.71-23.58-3-35l-5-6.5c-5.653 0-15.108.717-18 6.5-2.215 4.43-1.865 11.682-7.5 14.5-4.363 2.182-19.676 6-24.5 6l5.5 3c6.153 3.076 19.603 8 26.5 8 1.391 0 12-4.017 12-3.5 0 4.533-11 1.62-11 6.5Z"/><path fill="#FFFDBC" id="IP" d="M156 173c-6.658 0-11.612 7-19 7 0-10.807-10.974-20.552-6-30.5 4.25-8.5 12.51.995 17.5-1.5 3.13-1.565 5.848-3.424 9-5 2.851-1.426 7.01-.505 10-2 1.917-.959 5.443-5.279 8-4 4.074 2.037 1.5 4.449 1.5 7l-2 5v1l-1 1-1 1-1 1-1 1-1 1c-8.203 0-5.588 8.676-8 13.5l-6 4.5ZM301 173c6.083 0 11.271 7 18 7 0-10.943 11.367-19.766 6-30.5-4.271-8.543-11.793.853-16.5-1.5-6.085-3.043-13.008-4.004-19-7-1.909-.954-6.61-5.195-9-4-2.315 1.157-1.5 4.849-1.5 7l3 6 2 2 1 1v1c8.748 0 6.632 9.764 9 14.5l7 4.5Z"/><path fill="#FFFCBC" id="FN" d="M192 161h1l2-1c0-1.473 1.952-1 3-1 0-1.496 13.266-3.968 9-12.5-2.387-4.774-23-11.641-23-1.5 0 1.257-2.111 10-3 10l-1 5c0 4.843 6.173 2 8 2l4-1ZM264 161l4 1c3.416 0 8 3.105 8-3v-2c-1.85 0-3-10.069-3-12l-2.5-4c-2.973-1.486-11.807-1.597-15 0-3.316 1.658-8.767 6.966-6.5 11.5 1.309 2.618 9 5.15 9 6.5h1l4 2h1Z"/><path fill="#CBC8CA" id="cbc" d="m209 143 .5 9 14-4c5.667-2.834 20.665 5.168 23 4v-9c-.963-.482-19.045 2-23 2-5.447 0-8.862-2-14.5-2Z"/><path fill="#F0F080" id="CB" d="M175 149c5.295 0 6-4.31 6 6 .889 0 3-8.743 3-10-2.409 0-5.181-1-7-1l-2 5ZM282 150l-4.5-3c-3.841 0-1.5 8.209-1.5 10-1.85 0-3-10.069-3-12 2.124 0 4.436-1 6-1l3 6Z"/><path fill="#FEB1D8" id="ICB" d="m181 155-1 5c-2.244 0-4.624 3-7.5 3-1.2 0-6.466-2.568-5.5-4.5l3-3.5 1-1 1-1 1-1 1-1 1-1v-1c5.295 0 6-4.31 6 6ZM276 157v2c.048 0 5.16 3.33 6.5 4 2.295 1.147 7.95-2.6 6.5-5.5l-4-3.5v-1l-1-1-2-2-4.5-3c-3.841 0-1.5 8.209-1.5 10Z"/><path fill="#FEFA91" id="LING" d="M209 156h38l-7.5-4c-5.802-2.901-30.5-2.12-30.5 4Z"/><path fill="#F0F080" id="CB" d="m175 150-1 1 1-1Z"/><path fill="#CBC9CC" id="arb" d="M376 150c0 2.112 5.567 0 0 0Z"/><path fill="#F0F080" id="CB" d="m173 152-1 1 1-1ZM284 152l1 1-1-1ZM172 153l-1 1 1-1ZM171 154l-1 1 1-1ZM300 179h2c0-.919-6.765-6-1-6l-7-4.5c-2.368-4.736-.252-14.5-9-14.5l4 3.5c1.45 2.9-4.205 6.647-6.5 5.5-1.34-.67-6.452-4-6.5-4 0 6.105-4.584 3-8 3l-1 1c0 2.618 3 1.651 3 4h3c1.887 0 10 3.79 10 6h2c1.238 0 3 .423 3 2l1 1 11 3ZM155 179h1l11-3 1-1 1-1h1l1-1h2c0-2.775 7.502-5 10-5 0-1.473 1.952-1 3-1l4-4-2-1c-1.827 0-8 2.843-8-2-2.244 0-4.624 3-7.5 3-1.2 0-6.466-2.568-5.5-4.5l3-3.5c-8.203 0-5.588 8.676-8 13.5l-6 4.5c3.408 0-1 5.576-1 6Z"/><path fill="#FDFC8F" id="NOD" d="M264 174h1c0-1.473 1.952-1 3-1l3-1.5-1-4.5c0-2.349-3-1.382-3-4l-3-2h-1l-4-2h-1l-11-3h-38c-3.99 0-6.666 3-11 3 0 1.473-1.952 1-3 1l-2 1h-1l-2 2-4 4c0 5.648 2 5.225 2 6h1c8.797 0 20.981 3.24 28.5 7 6.706 3.353 18.552-1 25.5-1 0-1.951 2.454-.477 3.5-1 5.209-2.605 11.213-4 17.5-4Z"/><path fill="#FFFB8E" id="PRM" d="M107 173c-3.445 0-7 14.169-7 18-1.807 0-7.872 2.314-10.5 1-8.754-4.377-13.5-15.234-13.5-25l9.5-6 6.5-3c3.469 0-2.235 8.632-1.5 9l5-4c4.34-2.17 10.422-5 15.5-5 0 5.067-4 10.264-4 15Z"/><path fill="#FFF990" id="COPY" d="M131 175c0 2.254-3.816 14-6 14 0-3.748-13.908-16-18-16 0-4.736 4-9.933 4-15 6.098 0 20-.056 20 9v8ZM325 174c0 2.252 3.596 14 6 14 0-2.148 15.368-15 18-15 0-5.067-4-10.264-4-15-6.806 0-20 1.767-20 9v7Z"/><path fill="#FFFB8E" id="PRM" d="M349 173c5.099 0 7 13.418 7 18 2.004 0 7.852 2.324 10.5 1 8.488-4.244 14.5-15.563 14.5-25l-16-9c-5.118 0 2.295 9 .5 9l-6-5c-3.852-1.926-10.019-4-14.5-4 0 4.736 4 9.933 4 15Z"/><path fill="#CBC9CC" id="arb" d="M198 159c-1.048 0-3-.473-3 1 1.048 0 3 .473 3-1ZM259 159l4 2-4-2ZM195 160l-2 1 2-1ZM188 162l2 1 2-2-4 1ZM268 162l-1 1-3-2 4 1Z"/><path fill="#F0F080" id="CB" d="M131 167c1.613 0 1.613 8 0 8v-8Z"/><path fill="#AAA9A7" id="V4" d="M183 172c0 1.643 3.765 1 5 1 0-.775-2-.352-2-6-1.048 0-3-.473-3 1v4ZM273 172c0 1.643-3.765 1-5 1l3-1.5-1-4.5h3v5Z"/><path fill="#A9AAA7" id="V4r" d="m273 172 10 1c0-2.21-8.113-6-10-6v5Z"/><path fill="#F0F080" id="CB" d="M325 167c-1.602 0-1.602 7 0 7v-7Z"/><path fill="#A9AAA7" id="V4r" d="m183 172-10 1c0-2.775 7.502-5 10-5v4Z"/><path fill="#A9AAA8" id="chpl" d="M180 178h1l2-1c3.618 0 7.482.509 10.5-1l3.5-.5c0-.929-8-.369-8-2.5h-1c-1.235 0-5 .643-5-1l-10 1h-2l-1 1h-1l-1 1c0 4.804 12-.251 12 3ZM275 178h2c0-1.781 10.176-1 12-1v-1l-1-1-3-2h-2l-10-1c0 1.643-3.765 1-5 1 0 1.473-1.952 1-3 1h-1c0 2.279-5-.03-5 1.5l3.5.5c3.018 1.509 6.882 1 10.5 1l2 1Z"/><path fill="#FFFC8D" id="PFL" d="M113 216h5l5-11v-3c-6.033 0 2-11.771 2-13 0-3.748-13.908-16-18-16-3.445 0-7 14.169-7 18l3 5.5c1.879 3.759 10 15.974 10 19.5Z"/><path fill="#A9AAA7" id="V4r" d="M123 202v3l2-3.5c1.868-3.735 3.089-8.177 5-12 4.272-8.545 16.025-10.5 25-10.5 0-.424 4.408-6 1-6-6.658 0-11.612 7-19 7l-8 7.5c-1.966 3.932-6 9.945-6 14.5ZM171 173l-1 1 1-1Z"/><path fill="#AAA9A7" id="V4" d="M218 193c1.481 0 .785 2 3 2l-10-15.5c.535-1.069 5.439 1.5 7 1.5 2.673 0 25 3.888 25-2-6.948 0-18.794 4.353-25.5 1-7.519-3.76-19.703-7-28.5-7 0 2.131 8 1.571 8 2.5l-3.5.5c-3.018 1.509-6.882 1-10.5 1v1l5 1c11.618 0 20.948-2.604 27 9.5l3 4.5ZM268 173c-1.048 0-3-.473-3 1 1.048 0 3 .473 3-1Z"/><path fill="#A9AAA7" id="V4r" d="M285 173c1.238 0 3 .423 3 2l-3-2Z"/><path fill="#A9AAA7" id="V4r" fill-rule="evenodd" d="m333 218-3 4v4.5c6.558 13.116 12.945-8.5 3-8.5m2 24-2 1v-1l-1-1-2-10-1-1v-3l-3-10c9.872 0 8.196-13.108 5-19.5-6.217-12.434-14.423-18.5-29-18.5 0-.919-6.765-6-1-6 6.083 0 11.271 7 18 7l6 4.5c2.779 5.558 8 10.844 8 17.5l1 4 1 1c0 1.489 1.835 7 3 7l1 1v1c0 1.238.423 3 2 3 0 7.733-6 15.032-6 23Z"/><path fill="#FFFC8D" id="PFL" d="M339 216h5c0-7.728 12-17.955 12-25 0-4.582-1.901-18-7-18-2.632 0-18 12.852-18 15 0 1.331 8.141 14 2 14l1 4 1 1c0 1.489 1.835 7 3 7l1 1v1Z"/><path fill="#A9AAA7" id="V4r" d="m169 174-1 1 1-1Z"/><path fill="#AAA9A7" id="V4" d="M268 179c-5.417 0-11.633-2.433-16.5 0l-8.5 6c0-2.02 4.529-6 0-6 0-1.951 2.454-.477 3.5-1 5.209-2.605 11.213-4 17.5-4 0 2.279-5-.03-5 1.5l3.5.5c3.018 1.509 6.882 1 10.5 1v1l-5 1Z"/><path fill="#A9AAA7" id="V4r" d="M167 176c0 3.316 10.613 2 13 2 0-3.251-12 1.804-12-3l-1 1Z"/><path fill="#FF9BCD" id="MY" d="m156 179 3 3.5-1 4.5 13.5-6c1.515-.757 11.5-1.58 11.5-3h-3c-2.387 0-13 1.316-13-2l-11 3ZM300 179c0 1.162-2 3.355-2 8l-13.5-6c-1.389-.695-11.5-1.956-11.5-3h4c1.824 0 12 .781 12-1v-1l11 3Z"/><path fill="#A9AAA7" id="V4r" d="M181 178h2v-1l-2 1ZM273 178h2l-2-1v1ZM289 177c-1.824 0-12-.781-12 1 1.824 0 12 .781 12-1Z"/><path fill="#FEB1D9" id="SPIV" d="M183 207c-5.176 0-11.544 3-17 3l-5-3c0-4.2.219-8-5-8 0-2.522-2-4.909-2-8l1-1 2-2 1-1 13.5-6c1.515-.757 11.5-1.58 11.5-3l5 1-1 16.5c-1.573 3.147-4 7.872-4 11.5Z"/><path fill="#FFB0D7" id="MV" d="m210 208-3.5 4c-2.161 1.081-4.894-1-6.5-1-1.136 0-13.079-4-17-4 0-3.628 2.427-8.353 4-11.5l1-16.5c11.618 0 20.948-2.604 27 9.5l3 4.5-8 15ZM273 207c-2.25 0-16 1.583-16 4l-7.5 1-3.5-5-7-14 1-4 1-2 1-1 1-1 8.5-6c4.867-2.433 11.083 0 16.5 0 0 10.29 5 19.746 5 28Z"/><path fill="#FEB1D9" id="SPIV" d="M295 207c0 3.232-5 .827-5 3-5.456 0-11.824-3-17-3 0-8.254-5-17.71-5-28l5-1c0 1.044 10.111 2.305 11.5 3l13.5 6 4 4c0 2.345-2 5.468-2 8-4.433 0-5 4.585-5 8Z"/><path fill="#FEA5D1" id="DCO" d="m131 216-1 1c-8.207 0-7-5.251-7-12l2-3.5c1.868-3.735 3.089-8.177 5-12 4.272-8.545 16.025-10.5 25-10.5h1l3 3.5-1 4.5-1 1-2 2-1 1c-1.122 0-7 2.632-7 4-1.238 0-3 .423-3 2l-1 1-1 1c-1.712 0-3 2.571-3 4l-1 2-1 2-1 1-1 2v1l-4 5Z"/><path fill="#A9AAA8" id="chpl" d="m232 200-1 1c-7.098 0-7.784-5-10-5v-1l-10-15.5c.535-1.069 5.439 1.5 7 1.5 2.673 0 25 3.888 25-2 4.529 0 0 3.98 0 6l-1 1-1 1-1 2c-2.004 0-5 5.378-5 7-1.577 0-2 1.762-2 3l-1 1Z"/><path fill="#FEA5D1" id="DCO" d="M321 210c1.097 0 5 5.986 5 7 9.872 0 8.196-13.108 5-19.5-6.217-12.434-14.423-18.5-29-18.5h-2c0 1.162-2 3.355-2 8l4 4c1.572 0 7 2.052 7 4h1c3.591 0 11 10.791 11 14v1Z"/><path fill="#AAA9A7" id="V4" d="m243 185-1 1 1-1ZM242 186l-1 1 1-1Z"/><path fill="#FF9BCD" id="MY" d="m158 187-1 1 1-1Z"/><path fill="#AAA9A7" id="V4" d="m241 187-1 2 1-2ZM239 193l-4 3c0-1.622 2.996-7 5-7l-1 4Z"/><path fill="#FF9BCD" id="MY" d="m155 190-1 1 1-1ZM156 199l-4 2c0-6.889 2.412-6-5-6 0-1.368 5.878-4 7-4 0 3.091 2 5.478 2 8ZM300 199c2.25 0 3.376 2 5 2 0-6.842-4.315-6 4-6 0-1.948-5.428-4-7-4 0 2.345-2 5.468-2 8Z"/><path fill="#FFB3D7" id="PRP" d="m223 210 5.5-2 4.5 2c4.107 0 8.469-1 12-1l1-2-7-14-4 3c0 1.238-.423 3-2 3l-1 1-1 1c0 6.97-10-1.602-10-5v-1c-2.215 0-1.519-2-3-2l-8 15 2 1c2.998 0 7.358 1 11 1Z"/><path fill="#FFFC8D" id="PFL" d="m70 194-7 3.5c-3.439 6.878-4 11.561-4 20 0 7.1 1 14.482 1 21 0 16.044 12.444 26.028 27.5 18.5 5.72-2.86 7.132-11.765 9.5-16.5v-7c10.354-20.708-5.894-39.5-27-39.5Z"/><path fill="#C9C9C8" id="icp" d="M134 272c1.423 0 3.544-1.978 5.5-1l4.5 2-5-4.5c-3.915-3.915-5.762-7.525-8-12-4.268-8.536 5-24.388 5-31.5l1-1v-1l1-2 1-2c0-4.146 8.152-16 12-16v-1l1-1c0-6.889 2.412-6-5-6 0 1.577-1.762 2-3 2l-1 1-1 1c0 1.429-1.288 4-3 4l-1 2-1 2-1 1-1 2v1c0 1.835-4.553 13-6 13v1l-1 2-1 2v2l-1 1-2 11-1 4v8c1.473 0 1 1.952 1 3v1l1 1v1l2 3v1l2 2v1l5 4ZM325 271l-3 1c0-1.684-4.679-1-6-1l3-3.5c1.461-2.922 4.236-6.471 6-10 4.48-8.959-6-30.299-6-35.5 0-3.21-11.345-20-14-20v-1c0-6.842-4.315-6 4-6h1l11 14v1c0 3.897 4.262 10.025 6 13.5.579 1.158-.341 3.5 2 3.5v3l1 1 2 10 1 1v15l-1 2-1 2v1l-1 1-1 2v1l-1 1-1 1-1 1-1 2Z"/><path fill="#FFFC8D" id="PFL" d="M377 194c0 1.951-2.454.477-3.5 1l-9 6c-4.479 2.239-5.527 9.555-7.5 13.5-1.247 2.495.851 12.702 2 15v10c6.752 13.505 10.989 26.756 29.5 17.5 9.204-4.602 8.5-18.676 8.5-27.5 0-19.166 6.059-35.5-20-35.5Z"/><path fill="#FF9BCD" id="MY" d="M147 195c-1.238 0-3 .423-3 2 1.238 0 3-.423 3-2ZM310 195c3.591 0 11 10.791 11 14l-11-14Z"/><path fill="#AAA9A7" id="V4" d="M221 196c2.216 0 2.902 5 10 5 0 6.97-10-1.602-10-5ZM235 196c-1.577 0-2 1.762-2 3 1.577 0 2-1.762 2-3Z"/><path fill="#FF9BCD" id="MY" d="m144 197-1 1 1-1ZM143 198l-1 1 1-1ZM142 199c-1.712 0-3 2.571-3 4 1.712 0 3-2.571 3-4Z"/><path fill="#FFB0D9" id="x" d="M151 203c0 5.923 10 5.793 10 4 0-4.2.219-8-5-8l-4 2-1 1v1Z"/><path fill="#AAA9A7" id="V4" d="m233 199-1 1 1-1Z"/><path fill="#FFB0D9" id="x" d="M305 202c0 7.411-5.352 5-10 5 0-3.415.567-8 5-8 2.25 0 3.376 2 5 2v1Z"/><path fill="#AAA9A7" id="V4" d="m232 200-1 1 1-1Z"/><path fill="#FF9BCD" id="MY" d="m152 201-1 1 1-1ZM319 222l-7-8.5-7.5-5.5c-.817-.409-4.059 1.382-3.5 2.5 2.229 4.458 12 10.424 12 15.5-1.596 0-11.52-11-20-11 0-2.565.236-5-3-5 0-2.173 5 .232 5-3 4.648 0 10 2.411 10-5 2.655 0 14 16.79 14 20ZM139 203l-1 2 1-2ZM139 219l7.5-7c2.108-2.108 3.649-2.824 6-4l2.5 2.5c-1.804 3.608-10 9.561-10 13.5 1.892 0 11.09-9 18-9 0-2.371.017-5 3-5l-5-3c0 1.793-10 1.923-10-4-3.848 0-12 11.854-12 16Z"/><path fill="#A9AAA7" id="V4r" fill-rule="evenodd" d="M121 218c0 1.457-3 1.46-3 4l1 3.5c0 16.768 15.476-7.5 2-7.5m1 25h2l2-11 1-1v-2l1-2 1-2v-1l1-7c-8.207 0-7-5.251-7-12l-5 11c0 1.658-1.461 3-3 3 0 7.637 7 16.042 7 24Z"/><path fill="#FF9BCD" id="MY" d="m138 205-1 2 1-2Z"/><path fill="#F0F080" id="CB" d="m334 206 1 1-1-1Z"/><path fill="#FF9BCD" id="MY" d="m137 207-1 1 1-1Z"/><path fill="#FDA5D1" id="NTS" d="M171 221h2c6.073 0 10.958-4 18-4 0-1.686 6.653-4 8-4l1-2c-1.136 0-13.079-4-17-4-5.176 0-11.544 3-17 3-2.983 0-3 2.629-3 5l5 2 1 1 1 1 1 1v1Z"/><path fill="#FF9BCD" id="MY" d="m257 213-8 2c0-2.489-4-4.809-4-6l1-2 3.5 5 7.5-1v2Z"/><path fill="#FDA5D1" id="NTS" d="m286 220-3 1c-5.656 0-10.428-4-17-4l-1-1-6-2-1-1h-1v-2c0-2.417 13.75-4 16-4 5.176 0 11.544 3 17 3 3.236 0 3 2.435 3 5-1.622 0-7 2.996-7 5Z"/><path fill="#FF9BCD" id="MY" d="m136 208-1 2 1-2Z"/><path fill="#C8CACA" id="sptV" d="M146 274h2c9.863 0-9-9.463-9-13v-1c-1.995 0-2-4.377-2-6v-1c-1.251 0-1.536-4.427-1-5.5 1.223-2.447 2.221-15.5 5-15.5 0-1.424.362-5 2-5 0-1.238.423-3 2-3 0-3.939 8.196-9.892 10-13.5l-2.5-2.5c-2.351 1.176-3.892 1.892-6 4l-7.5 7-1 2-1 2v1l-1 1c0 7.112-9.268 22.964-5 31.5 2.238 4.475 4.085 8.085 8 12l5 4.5h1l1 1Z"/><path fill="#FF9BCD" id="MY" d="M199 213c3.303 0 5.115 2 8 2l1.5-3 3.5-3-2-1-3.5 4c-2.161 1.081-4.894-1-6.5-1l-1 2ZM228 234c0 1.186 1 1.186 1 0l.5-23c3.998-1.999 1.5 8.973 1.5 11l4-1-2-11-4.5-2-5.5 2c0 4.048-2 10.214-2 11l4 1c0-2.548-1.883-12 1.5-12l.5 8.5c0 5.325 1 10.721 1 15.5Z"/><path fill="#C8CACA" id="sptV" d="m313 273-4 1c-10.213 0 2-5.114 2-7l2-1 1-1 1-1 1-1 1-2 1-2 1-2v-2c1.725 0 1-6.052 1-7.5 0-3.418-4.334-20.5-7-20.5v-1c0-5.076-9.771-11.042-12-15.5-.559-1.118 2.683-2.909 3.5-2.5l7.5 5.5 7 8.5c0 5.201 10.48 26.541 6 35.5-1.764 3.529-4.539 7.078-6 10l-3 3.5-2 1-1 1Z"/><path fill="#FCB3D8" id="PGRNd" d="M221 221c-3.962 0-8.688 1-12 1l-1-1v-4l-1-1v-1l1.5-3 3.5-3c2.998 0 7.358 1 11 1 0 4.048-2 10.214-2 11ZM248 221l-1 1c-3.312 0-8.038-1-12-1l-2-11c4.107 0 8.469-1 12-1 0 1.191 4 3.511 4 6 0 1.321.684 6-1 6Z"/><path fill="#CBCBCC" id="mlf" d="M225 222c0 1.964.521 12 3 12 0-4.779-1-10.175-1-15.5l-.5-8.5c-3.383 0-1.5 9.452-1.5 12Z"/><path fill="#FF9BCD" id="MY" d="m326 217 3 10c-2.341 0-1.421-2.342-2-3.5-1.738-3.475-6-9.603-6-13.5 1.097 0 5 5.986 5 7ZM130 217l-1 7c1.447 0 6-11.165 6-13l-4 5-1 1Z"/><path fill="#CBCBCC" id="mlf" d="M231 222c0 2.198.238 12-2 12l.5-23c3.998-1.999 1.5 8.973 1.5 11Z"/><path fill="#FFB2D8" id="IRN" d="M176 263c6.371 0 10.629 2 17 2 0-3.455 2.578-5.656 4-8.5 3.408-6.815 11-26.027 11-33.5v-6l-1-1v-1c-2.885 0-4.697-2-8-2-1.347 0-8 2.314-8 4 0 6.882-20 35.655-20 41 2.96 0 4 2.399 4 5h1ZM281 263c-6.772 0-11.228 2-18 2 0-10.448-15-30.742-15-43v-1c1.684 0 1-4.679 1-6l8-2h1l1 1 6 2 1 1c0 10.369 19 32.9 19 41-2.548 0-4 2.687-4 5Z"/><path fill="#FF9BCD" id="MY" d="m258 213 1 1-1-1Z"/><path fill="#F0F080" id="CB" d="m338 214 1 1-1-1Z"/><path fill="#FFA4D0" id="SPVO" d="M139 261c1.99 0 4.809 6 12 6l4-4.5c1.678-3.356-.49-16.021 4-25 2.95-5.899 12-2.402 12-15.5v-2l-1-1-1-1-1-1-5-2c-6.91 0-16.108 9-18 9 0 1.238-.423 3-2 3 0 1.424-.362 5-2 5 0 7.317-4 13.363-4 21v1c.913 0 2 5.014 2 6v1ZM305 267h6l2-1 1-1 1-1 1-1 1-2 1-2 1-2v-2c0-5.662.354-12.791-2-17.5-1.403-2.806-4-7.305-4-10.5v-1c-1.596 0-11.52-11-20-11-1.622 0-7 2.996-7 5v3c0 13.388 8.594 7.688 13 16.5 2.995 5.99-.907 15.185 2 21l4 6.5Z"/><path fill="#F0F080" id="CB" d="M118 216c0 1.658-1.461 3-3 3l-2-3h5Z"/><path fill="#A9AAA7" id="V4r" d="m131 216-1 1 1-1Z"/><path fill="#FF9BCD" id="MY" d="m207 216 1 1-1-1ZM265 216l1 1-1-1Z"/><path fill="#F0F080" id="CB" d="m344 216-3 3c-1.577 0-2-1.762-2-3h5Z"/><path fill="#FF9BCD" id="MY" d="m168 217 1 1-1-1Z"/><path fill="#FCB3D9" id="PARN" d="M151 267c0 4.358 4.781 4 8 4 0-1.55 6.146-6 8-6l1-1 3-6c0-5.345 20-34.118 20-41-7.042 0-11.927 4-18 4l-2 1c0 13.098-9.05 9.601-12 15.5-4.49 8.979-2.322 21.644-4 25l-4 4.5ZM305 267c0 4.534-4.71 4-8 4 0-1.884-5.963-6-8-6 0-2.83-4-4.54-4-7 0-8.1-19-30.631-19-41 6.572 0 11.344 4 17 4l3 2c0 13.388 8.594 7.688 13 16.5 2.995 5.99-.907 15.185 2 21l4 6.5Z"/><path fill="#A9AAA8" id="chpl" d="M121 218c0 1.457-3 1.46-3 4l1 3.5c0 16.768 15.476-7.5 2-7.5ZM333 218l-3 4v4.5c6.558 13.116 12.945-8.5 3-8.5Z"/><path fill="#FF9BCD" id="MY" d="m139 219-1 2 1-2ZM170 219l1 1-1-1ZM283 221l3 2v-3l-3 1ZM138 221l-1 2 1-2ZM173 221l-2 1v-1h2ZM209 222l-1 1v-2l1 1Z"/><path fill="#FEB0D8" id="GRN" d="m259 277-4 1c0-9.898-12.763-17-20-17 0-3.188-6-18.972-6-11l-2 1c0-9.862-6 7.529-6 10-8.147 0-20 8.053-20 17-1.048 0-3 .473-3-1 0-1.955 8.758-12-5-12 0-3.455 2.578-5.656 4-8.5 3.408-6.815 11-26.027 11-33.5l1-1c3.312 0 8.038-1 12-1l4 1c0 1.964.521 12 3 12 0 1.186 1 1.186 1 0 2.238 0 2-9.802 2-12l4-1c3.962 0 8.688 1 12 1h1c0 12.258 15 32.552 15 43l-3.5 2c-1.262.631-5.999 2.503-4.5 5.5l4 4.5Z"/><path fill="#FF9BCD" id="MY" d="M247 222h1v-1l-1 1ZM137 224l-1 1 1-1ZM145 224c-1.577 0-2 1.762-2 3 1.577 0 2-1.762 2-3ZM129 225l-1 2 1-2ZM128 227l-1 2 1-2ZM143 227c-1.638 0-2 3.576-2 5 1.638 0 2-3.576 2-5ZM313 227c2.666 0 7 17.082 7 20.5 0 1.448.725 7.5-1 7.5 0-5.662.354-12.791-2-17.5-1.403-2.806-4-7.305-4-10.5ZM329 230l1 1-1-1ZM127 231l-1 1 1-1ZM141 232c-2.779 0-3.777 13.053-5 15.5-.536 1.073-.251 5.5 1 5.5 0-7.637 4-13.683 4-21ZM332 241l1 1-1-1ZM333 243v11c.759 0 2-10.821 2-12l-2 1ZM124 243l-1 4c-1.579 0-1-2.855-1-4h2Z"/><path fill="#C8C8CC" id="tspc" d="M227 264c-2.349 0-1.382 3-4 3-2.698 0-2-4.255-2-6 0-2.471 6-19.862 6-10v13ZM229 263l4 4c3.024 0 2-3.574 2-6 0-3.188-6-18.972-6-11v13Z"/><path fill="#FEC6E2" id="RO" d="m227 274 2 1 1-2c0-3.51-1-7.022-1-10v-13l-2 1v13c0 2.723-1 5.778-1 9l1 1Z"/><path fill="#FF9BCD" id="MY" d="M137 254c.913 0 2 5.014 2 6-1.995 0-2-4.377-2-6ZM123 255c1.473 0 1 1.952 1 3-1.473 0-1-1.952-1-3ZM319 257l-1 2 1-2ZM333 257l-1 2 1-2Z"/><path fill="#FEB3D6" id="AMBd" d="m175 264-2.5 2-4.5-1v-1l3-6c2.96 0 4 2.399 4 5v1ZM282 264c0 3.896 5.584 1 7 1 0-2.83-4-4.54-4-7-2.548 0-4 2.687-4 5l1 1Z"/><path fill="#FF9BCD" id="MY" d="m124 259 1 1-1-1ZM318 259l-1 2 1-2ZM332 259l-1 2 1-2Z"/><path fill="#FDB2D9" id="MARN" d="M233 267c0 8.261 22 18.514 22 11 0-9.898-12.763-17-20-17 0 2.426 1.024 6-2 6Z"/><path fill="#FF9BCD" id="MY" d="m125 261 2 3c-1.577 0-2-1.762-2-3ZM209 291l-2 7.5c.808 1.616 5-.846 5 1.5-18.386 0-36.144-6.322-51.5-14l-10-5c-1.119-.559-4.5-.155-4.5-2 1.259 0 11.886 4.272 10 .5l-8-5.5c9.863 0-9-9.463-9-13 1.99 0 4.809 6 12 6 0 4.358 4.781 4 8 4l1 2c0 1.543-4.634 2.231-3 5.5 1.063 2.126 4-1.28 4 2.5-12.079 0 16.151 11.675 17.5 11 1.319-.659-9.5-5.462-9.5-7 2.386 0 6 3.412 6 0 2.85 0 5.784 5.858 9.5 4 2.805-1.402 12.976-12 13.5-12 0 1.473 1.952 1 3 1 1.543 0 2.231 4.634 5.5 3 5.605-2.802 16.5-6.081 16.5-14 2.618 0 1.651-3 4-3 0 2.723-1 5.778-1 9-4.372 0-4.547 9-7.5 9l-1-3c-4.036-2.018-13.941 4.941-16.5 7.5-1.033 1.033-8.798 4.404-8 6 1.173 2.346 4.51-1.5 5.5-1.5.873 0 .592 5.704 4 4 3.89-1.945.066-4 6.5-4Z"/><path fill="#FDB2D9" id="MARN" d="M223 267c0 7.919-10.895 11.198-16.5 14-3.269 1.634-3.957-3-5.5-3 0-8.947 11.853-17 20-17 0 1.745-.698 6 2 6Z"/><path fill="#FF9BCD" id="MY" d="m317 261-1 2 1-2ZM331 262l-1 1 1-1ZM176 263l-1 1v-1h1Z"/><path fill="#FCB2D9" id="PGRNl" d="m172 283 3 2c2.85 0 5.784 5.858 9.5 4 2.805-1.402 12.976-12 13.5-12 0-1.955 8.758-12-5-12-6.371 0-10.629-2-17-2l-1 1-2.5 2-4.5-1h-1c-1.854 0-8 4.45-8 6l1 2c5.423 0 6.732 2.964 9 7.5l2 1.5 1 1Z"/><path fill="#FF9BCD" id="MY" d="M278 293c0 2.729-5.007 1.254-6.5 2-7.036 3.518-18.248 5-26.5 5 0-2.205 3.251-.002 4-1.5 2.318-4.635-4-6.382-4-9.5 6.274 0 4.59 3.545 9.5 6 3.707 1.854 1.691-4 3-4 1.018 0 4.649 3.201 5.5 1.5 1.291-2.582-6.372-4.936-7.5-5.5-3.776-1.888-10.991-10.505-16-8l-2 3c-2.973 0-2.73-9-7.5-9 0-3.51-1-7.022-1-10l4 4c0 8.261 22 18.514 22 11l4-1 4 4.5c13.57 13.57 8.337 4.5 18 4.5 0 3.027 4.088-1 7-1 0 2.183-10 3.533-10 8Z"/><path fill="#FCB2D9" id="PGRNl" d="m282 285-1 1c-9.663 0-4.43 9.07-18-4.5l-4-4.5-4-4.5c-1.499-2.997 3.238-4.869 4.5-5.5l3.5-2c6.772 0 11.228-2 18-2l1 1c0 3.896 5.584 1 7 1 2.037 0 8 4.116 8 6v2c-8.371 0-8.264 10-13 10l-1 1-1 1Z"/><path fill="#FF9BCD" id="MY" d="m281 263 1 1-1-1ZM330 263l-1 2 1-2ZM167 265h1v-1l-1 1ZM315 264l-1 1 1-1ZM127 265l2 2-2-2ZM314 265l-1 1 1-1ZM313 266l-2 1 2-1ZM329 266l-1 1 1-1ZM303 282l-4 2.5c-2.604 2.604-11.2 6.5-15 6.5l3.5-2c3.054-1.527 16.846-8 7.5-8 0-2.73 3.306-1.112 4-2.5 1.27-2.541-2-3.709-2-5.5v-2c3.29 0 8 .534 8-4h6c0 1.886-12.213 7-2 7 0 .396-14.389 8-6 8ZM328 267l-1 1 1-1ZM145 278v1c-3.232 0-16-6.567-16-11l5 4c0 2.065 7.264 5 9 5l1 1h1ZM326 269l-1 2 1-2Z"/><path fill="#C9CACA" id="sctd" d="m145 278 1 1c1.259 0 11.886 4.272 10 .5l-8-5.5h-2l-1-1h-1l-4.5-2c-1.956-.978-4.077 1-5.5 1 0 2.065 7.264 5 9 5l1 1h1Z"/><path fill="#C9C9C8" id="icp" d="m316 271-2 1 2-1Z"/><path fill="#C9CACA" id="sctd" d="m305 281-2 1c-8.389 0 6-7.604 6-8l4-1 1-1 2-1c1.321 0 6-.684 6 1v1l-1 1-1 1h-1l-3 1-1 1h-2l-1 1-2 1c-1.424 0-5 .362-5 2Z"/><path fill="#FF9BCD" id="MY" d="M322 272v1c1.238 0 3-.423 3-2l-3 1Z"/><path fill="#C9C9C8" id="icp" d="m314 272-1 1 1-1ZM145 273l1 1-1-1Z"/><path fill="#C8C8CB" id="rust" d="M169 285c2.386 0 6 3.412 6 0l-3-2-1-1-2-1.5c-2.268-4.536-3.577-7.5-9-7.5 0 1.543-4.634 2.231-3 5.5 1.063 2.126 4-1.28 4 2.5h1c2.124 0 5 2.024 5 4h2Z"/><path fill="#FFB3D8" id="IO" fill-rule="evenodd" d="M207 289c0 1.93 1.93 0 0 0m3 1-1 1c-6.434 0-2.61 2.055-6.5 4-3.408 1.704-3.127-4-4-4-.99 0-4.327 3.846-5.5 1.5-.798-1.596 6.967-4.967 8-6 2.559-2.559 12.464-9.518 16.5-7.5l1 3c2.953 0 3.128-9 7.5-9l1 1v4l-1 1v1l-4.5 5c2.116 1.058 2.898-2 4.5-2v3c-.656 0-4.138 3.319-5.5 4-2.352 1.176-7.5-5.233-7.5-1h-1l-2 1Z"/><path fill="#FFB3D8" id="IO" d="M243 289h2c6.274 0 4.59 3.545 9.5 6 3.707 1.854 1.691-4 3-4 1.018 0 4.649 3.201 5.5 1.5 1.291-2.582-6.372-4.936-7.5-5.5-3.776-1.888-10.991-10.505-16-8l-2 3c-2.973 0-2.73-9-7.5-9l-1 2 1 3v1l1 1v1c8.03 0 0 7.697 0 2-1.473 0-1 1.952-1 3 1.883 0 5.321 4 10 4 0-3.323 3-3.04 3-1Z"/><path fill="#C8C8CB" id="rust" d="M288 285h1l1-1 1-1 2-1 1-1h1c0-2.73 3.306-1.112 4-2.5 1.27-2.541-2-3.709-2-5.5-8.371 0-8.264 10-13 10l-1 1-1 1-1 1c0 3.027 4.088-1 7-1Z"/><path fill="#FF9BCD" id="MY" d="m322 273-1 1 1-1ZM227 277l3 1-1-3-2-1v3ZM321 274l-1 1 1-1ZM316 276v1c1.238 0 3-.423 3-2l-3 1Z"/><path fill="#C9C9C8" id="icp" d="M315 277h1v-1l-1 1ZM143 277l1 1-1-1Z"/><path fill="#FFC6E2" id="RPA" d="M226 286c0 5.564 4 3.865 4 0 0-1.048-.473-3 1-3v-3l-1-1v-1l-3-1v1l-1 1v7Z"/><path fill="#C9C9C8" id="icp" d="M312 278h1v-1l-1 1Z"/><path fill="#FF9BCD" id="MY" d="m315 277-2 1v-1h2Z"/><path fill="#C9C9C8" id="icp" d="M145 279h1l-1-1v1Z"/><path fill="#FF9BCD" id="MY" d="m227 278-1 1 1-1ZM313 278c0 1.473-1.952 1-3 1l2-1h1ZM230 279l1 1-1-1ZM310 279c-1.424 0-5 .362-5 2 1.424 0 5-.362 5-2ZM226 280l-4.5 5c2.116 1.058 2.898-2 4.5-2v-3Z"/><path fill="#CBC7CC" id="sctv" d="M167 285h2c0 1.538 10.819 6.341 9.5 7-1.349.675-29.579-11-17.5-11h1l5 4Z"/><path fill="#FF9BCD" id="MY" d="M162 281c2.124 0 5 2.024 5 4l-5-4ZM231 281c8.03 0 0 7.697 0 2v-2ZM294 281l-1 1 1-1Z"/><path fill="#CBC7CC" id="sctv" d="M278 293h1c0-1.638 3.576-2 5-2l3.5-2c3.054-1.527 16.846-8 7.5-8h-1l-1 1-2 1-1 1-1 1h-1c0 2.183-10 3.533-10 8Z"/><path fill="#FF9BCD" id="MY" d="m305 281-2 1 2-1ZM171 282l1 1-1-1ZM293 282l-2 1 2-1ZM284 283l-1 1 1-1ZM291 283l-1 1 1-1ZM283 284l-1 1 1-1ZM290 284l-1 1 1-1ZM282 285l-1 1 1-1ZM219 299c3.658 0 9.028-7 9.5-7l1 3 8.5 4-5-5.5 7-3.5c-4.679 0-8.117-4-10-4 0 3.865-4 5.564-4 0-.656 0-4.138 3.319-5.5 4-2.352 1.176-7.5-5.233-7.5-1 1.449 0 10.891 3.717 10 5.5l-4 4.5ZM243 289l-3 1c0-3.323 3-3.04 3-1ZM207 289c0 1.93 1.93 0 0 0ZM212 289l-2 1 2-1Z"/><path fill="#C7C9C9" id="py" d="M212 300h1c0-1.579 2.855-1 4-1h2l4-4.5c.891-1.783-8.551-5.5-10-5.5h-1l-2 1-1 1-2 7.5c.808 1.616 5-.846 5 1.5ZM243 300h2c0-2.205 3.251-.002 4-1.5 2.318-4.635-4-6.382-4-9.5h-2l-3 1-7 3.5 5 5.5h2c1.048 0 3-.473 3 1Z"/><path fill="#FF9BCD" id="MY" d="m210 290-1 1 1-1ZM284 291c-1.424 0-5 .362-5 2 1.424 0 5-.362 5-2ZM217 299c-1.145 0-4-.579-4 1 1.145 0 4 .579 4-1ZM240 299c1.048 0 3-.473 3 1-1.048 0-3 .473-3-1Z"/></svg>