<svg xmlns="http://www.w3.org/2000/svg" viewBox="0 0 456 320"><path fill="#098589" id="VISp1" d="M91 75h2l8.5-8 12-10 16-8c1.734-.867 4.161-.08 6-1 3.175-1.588 13.5-1.541 13.5 4 1.602 0 11-6.704 11-8 0-4.375-16.773-6.864-20.5-5-2.442 1.221-5.64.82-8 2-11.985 5.992-24.791 10.791-35 21L86 72c2.666 0 2.482 3 5 3ZM364 75h1c2.364 0 3.053-3 5-3l-11-10.5c-7.684-7.684-18.659-13.58-28.5-18.5-3.949-1.974-8.974-1.987-13-4-3.936-1.968-21.5.643-21.5 6 2.239 0 11 6.184 11 8h1c0-6.136 7.928-7.286 12.5-5 2.112 1.056 4.995-.003 7 1l12 6 14 10L364 75Z"/><path fill="#1BA696" id="RSPagl1" d="M154 64c-5.412 0-7.503 6-11 6 0-5.723 6-10.04 6-17v-1c1.602 0 11-6.704 11-8 11.306 0-5 17.37-5 19l-1 1ZM302 64c6.667 0 11.916 10 15 10 0-3.5-10-12.694-10-21 0-1.816-8.761-8-11-8-7.797 0 1.876 13.252 3 15.5l3 3.5Z"/><path fill="#FF7AFD" id="SCzo" d="M262 60h3l-1-7c-.656 0-4.138-3.32-5.5-4-9.092-4.546-29.5-3.98-29.5 10h3c0-15.146 30-12.717 30 1Z"/><path fill="#0A828C" id="VISp2/3" d="M103 77h2c0-4.012 23-17.876 23-8 1.905 0 16.845-16 21-16v-1c0-5.541-10.325-5.588-13.5-4-1.839.92-4.266.133-6 1l-16 8-12 10-8.5 8c0 3.163 7.871 2 10 2Z"/><path fill="#FF7AFD" id="SCzo" d="M192 60h3c0-14.1 29-15.816 29-1h3c0-10.802-15.219-15.64-24.5-11-2.098 1.05-9.5 1.098-9.5 5 0 1.819-1 4.59-1 7Z"/><path fill="#0A828C" id="VISp2/3" d="M352 77h1c2.161 0 11 .497 11-2l-10.5-10-14-10-12-6c-2.005-1.003-4.888.056-7-1-4.572-2.286-12.5-1.136-12.5 5l21 16c0-10.314 23 5.462 23 8Z"/><path fill="#FF78FF" id="SCsg" d="m224 59-11.5-2c-3.803 1.902-13.329 3-17.5 3 0-14.1 29-15.816 29-1ZM232 59l12.5-2c3.934 1.967 13.119 3 17.5 3 0-13.717-30-16.146-30-1Z"/><path fill="#1AA496" id="RSPagl2/3" d="M135 79c-1.048 0-3-.473-3 1l-7-1h-7l10-10c1.905 0 16.845-16 21-16 0 6.96-6 11.277-6 17l-1 1-1 2-4 4c-1.747 0-2 .253-2 2Z"/><path fill="#FF64FF" id="MB" d="M167 132c0-1.788-11.092-1-13-1-5.146 0-14-7.367-14 2-.682 0-2-6.241-2-7 3.277 0 3-6.231 3-8.5 0-5.29-.263-27.5 6-27.5 0 11.972-12.379 30.561 4.5 39 3.237 1.619 6.105-2 8.5-2 0 6.145 19-.857 19-9 3.894 0 3.759-16.018 5-18.5 3.086-6.171 2-21.037 2-28l1-8-4.5-4.5c-2.542-1.271-5.368 2-7.5 2h-2l4.5-3c.959-.48 15.173-5 15.5-5 0 1.819-1 4.59-1 7v3l-1 5-1 17c-1.808 0-1.739 16 1 16 0 1.622-.461 5 2 5 0 5.968-6 10.597-6 17l-3.5-3c-3.689 0-10.195 12-16.5 12ZM289 132c0-1.784 10.634-1 12.5-1 7.426 0 14.5-7.599 14.5 4 .981 0 2-7.758 2-9-4.131 0-.571-18.642-2-21.5-1.229-2.458-.794-5.587-2-8-2.256-4.511-9-11.385-9-16.5l-2-1c0 3.448 4.484 7.468 6 10.5 4.952 9.903 9.224 33.138-3.5 39.5-3.349 1.675-6.241-2-8.5-2l-2.5 2c-6.656 3.328-17.5-6.539-17.5-12-2.749 0-5-17.462-5-21 0-9.88-3-22.056-3-31.5l4.5-5.5c3.025-1.513 5.87 2 8.5 2h1c0-2.453-2.947-1.447-4-2.5-1.886-1.886-5.333-.417-7.5-1.5l-7.5-4 1 7v8l1 17c1.502 0 2.235 17-1 17l-1 5c0 5.431 6 9.825 6 15l2.5-2c5.512 0 10.424 12 16.5 12Z"/><path fill="#1AA496" id="RSPagl2/3" d="M332 79h6c0-4.472-9-5.794-9-10l-21-16h-1c0 8.306 10 17.5 10 21l3 3 4 3 8-1Z"/><path fill="#FD7AFF" id="SCop" d="M226 63h1v-4h-3l-11.5-2c-3.803 1.902-13.329 3-17.5 3h-3v3c3.996 0 10.044-1.272 13.5-3 6.541-3.27 15.117 3 20.5 3ZM230 63c5.47 0 14.043-6.228 20.5-3 3.689 1.844 10.231 3 14.5 3v-3h-3c-4.381 0-13.566-1.033-17.5-3L232 59h-3c0 1.145-.579 4 1 4Z"/><path fill="#FE79FF" id="ICd" d="M166 86c3.519 0 2.07 6.64 3 8.5 3.387 6.774 10 15.582 10 23.5 3.894 0 3.759-16.018 5-18.5 3.086-6.171 2-21.037 2-28l1-8-4.5-4.5c-2.542-1.271-5.368 2-7.5 2 0 7.32-9 16.156-9 25ZM290 86c-3.005 0-2.1 7.7-3 9.5-2.905 5.81-10 14.907-10 21.5-2.749 0-5-17.462-5-21 0-9.88-3-22.056-3-31.5l4.5-5.5c3.025-1.513 5.87 2 8.5 2 0 8.816 8 15.465 8 25Z"/><path fill="#FF90FF" id="SCig" d="m226 65-26.5 1c-2.614 1.307-5.334 2-8.5 2l1-5c3.996 0 10.044-1.272 13.5-3 6.541-3.27 15.117 3 20.5 3v2ZM230 65l26.5 1c2.329 1.165 5.779 2 8.5 2v-5c-4.269 0-10.811-1.156-14.5-3-6.457-3.228-15.03 3-20.5 3v2Z"/><path fill="#FE79FE" id="ICe" d="M147 90c0 11.972-12.379 30.561 4.5 39 3.237 1.619 6.105-2 8.5-2 0-9.057-2.182-23.136 2-31.5 1.052-2.103-.105-9.5 4-9.5 0-8.844 9-17.68 9-25h-2c-6.054 0-14.505 14-17 14l-1 1v1l-1 1-1 1-1 2-1 1v1c0 1.238-.423 3-2 3l-2 4ZM290 86c3.387 0 5 7.543 5 10.5 0 9.955 2 19.726 2 30.5 2.259 0 5.151 3.675 8.5 2 12.724-6.362 8.452-29.597 3.5-39.5-1.516-3.032-6-7.052-6-10.5v-1l-2-2-1-1-1-1c0-2.945-13.665-13-16-13h-1c0 8.816 8 15.465 8 25Z"/><path fill="#1BA598" id="RSPd1" d="m155 63-1 1 1-1Z"/><path fill="#FF64FF" id="MB" d="M226 65c0 3.007 3 7.7 3 2-2.109 0-2-2.534-2-4h-1v2Z"/><path fill="#1BA598" id="RSPd1" d="m126 99 2 1 6-8.5c2.79-2.79 13.177-18.355 15-22 .964-1.928 5-2.439 5-5.5-5.412 0-7.503 6-11 6l-1 1-1 2-4 4-2 2-6 8-2 4-1 8Z"/><path fill="#FF64FF" id="MB" d="m230 65-1 2c0-1.048-.473-3 1-3v1Z"/><path fill="#1BA598" id="RSPd1" d="m331 99-2 1-6.5-8c-2.297-2.296-2.192-4.885-3.5-7.5-2.838-5.676-9.213-9.425-12-15l-5-5.5c6.667 0 11.916 10 15 10l3 3c0 1.517 5.623 9 7 9v1l1 1 1 2 2 9Z"/><path fill="#FF90FE" id="SCiw" d="M190 85c7.197 0 25.173-16.663 36.5-11l1 2 3-2 16 1L266 85l-1-17c-2.721 0-6.171-.835-8.5-2L230 65l-1 2c0 5.7-3 1.007-3-2l-26.5 1c-2.614 1.307-5.334 2-8.5 2l-1 17Z"/><path fill="#0B848B" id="VISp4" d="M105 77c4.207 0 8.154 2 13 2l10-10c0-9.876-23 3.988-23 8ZM352 77c0 .776-11.039 2-14 2 0-4.472-9-5.794-9-10 0-10.314 23 5.462 23 8Z"/><path fill="#1BA696" id="RSPagl1" d="m143 70-1 1 1-1ZM142 71l-1 2 1-2Z"/><path fill="#0A838A" id="VISpl1" d="M73 95h1c0-6.175 17-14.579 17-20-2.518 0-2.334-3-5-3l-3.5 4C79.206 79.294 71 85.736 71 89c0 2.447 2 3.28 2 6ZM386 89l-3 5-5-4.5c-1.24-1.24-13-13.773-13-14.5 2.364 0 3.053-3 5-3l16 17Z"/><path fill="#FF8FFF" id="SCdg" d="M191 101c0-7.855 7.687-11.093 13.5-14 18.372-9.186 28.658-9.171 47 0 7.127 3.563 13.5 5.692 13.5 15 3.235 0 2.502-17 1-17l-19.5-10-16-1-3 2-1-2c-11.327-5.663-29.303 11-36.5 11-1.808 0-1.739 16 1 16Z"/><path fill="#FF64FF" id="MB" d="m299 74 1 1-1-1Z"/><path fill="#09848C" id="VISpl2/3" d="M77 102h1l6-3c0-1.502 12.488-12 13-12 0-5.23 6-6.188 6-10-2.129 0-10 1.163-10-2h-2c0 5.421-17 13.825-17 20 .427 0 3 6.112 3 7Z"/><path fill="#FF64FF" id="MB" d="m156 75-1 1 1-1Z"/><path fill="#09848C" id="VISpl2/3" d="m374 100 5 2c2.247 0 .847-7 4-7v-1l-5-4.5c-1.24-1.24-13-13.773-13-14.5h-1c0 2.497-8.839 2-11 2 0 3.895 7 5.806 7 10l12 12h1l1 1Z"/><path fill="#FF64FF" id="MB" d="m301 76 2 2-2-2Z"/><path fill="#0B858A" id="VISpl4" d="M118 86c0-13.632-17.929 1-21 1 0-5.23 6-6.188 6-10h2c4.207 0 8.154 2 13 2h7l-7 7Z"/><path fill="#1BA697" id="RSPd2/3" d="M137 77c-1.747 0-2 .253-2 2l2-2Z"/><path fill="#FF64FF" id="MB" d="m155 77-1 1 1-1Z"/><path fill="#1BA697" id="RSPd2/3" d="M324 80c0 1.274 3 2.933 3 6-1.377 0-7-7.483-7-9l4 3Z"/><path fill="#0B858A" id="VISpl4" d="M339 86c0-13.134 16.792 1 21 1 0-4.194-7-6.105-7-10h-1c0 .776-11.039 2-14 2h-6l7 7Z"/><path fill="#FF64FF" id="MB" d="m154 78-1 1 1-1Z"/><path fill="#09848C" id="VISpl2/3" d="m123 99-2 1c-1.883 0-5.321-4-10-4 0-2.07 7-5.889 7-10l7-7 7 1c0 2.232-3 4.03-3 7l-2 4c-1.995 0-4 6.268-4 8Z"/><path fill="#1BA697" id="RSPd2/3" d="M132 80c0 2.232-3 4.03-3 7l6-8c-1.048 0-3-.473-3 1Z"/><path fill="#FF64FF" id="MB" d="M152 80v1l1-2-1 1Z"/><path fill="#09848C" id="VISpl2/3" d="m334 99 1 2c2.156 0 5.037-5 10-5 0-.749-6-4.835-6-10l-7-7-8 1c0 1.274 3 2.933 3 6v1l1 1 1 2c1.587 0 5 7.511 5 9Z"/><path fill="#C9C8C8" id="bic" d="M147 90c-6.263 0-6 22.21-6 27.5 0 2.269.277 8.5-3 8.5 0-18.136-1.176-20.149 7-36.5 1.355-2.71 3.053-9.5 7-9.5v1l-1 1v1c-1.577 0-2 1.762-2 3-2.109 0-2 2.534-2 4Z"/><path fill="#FF8FFE" id="SCdw" d="M193 106c0-3.676 6.162-8.662 9-11.5 12.977-12.977 33.06-11.22 48.5-3.5l10.5 10.5 3 5.5 1-5c0-9.308-6.373-11.437-13.5-15-18.342-9.171-28.628-9.186-47 0-5.813 2.907-13.5 6.145-13.5 14 0 1.622-.461 5 2 5Z"/><path fill="#C9C8C8" id="bic" d="M305 80c2.529 0 5.15 6.8 6 8.5l6 11c2.064 4.128.925 9.851 3 14 .656 1.312-1.4 12.5-2 12.5-4.131 0-.571-18.642-2-21.5-1.229-2.458-.794-5.587-2-8-2.256-4.511-9-11.385-9-16.5Z"/><path fill="#0B838C" id="VISpl5" d="M90 97c-2.447 0-3.28 2-6 2 0-1.502 12.488-12 13-12 3.071 0 21-14.632 21-1 0 4.111-7 7.93-7 10l-21 1Z"/><path fill="#FF64FF" id="MB" d="m152 81-1 1 1-1Z"/><path fill="#0B838C" id="VISpl5" d="m367 97 5 2-12-12c-4.208 0-21-14.134-21-1 0 5.165 6 9.251 6 10l22 1Z"/><path fill="#FF64FF" id="MB" d="M151 83c-1.577 0-2 1.762-2 3 1.577 0 2-1.762 2-3Z"/><path fill="#FC8FFF" id="PAG" fill-rule="evenodd" d="M264 141c0 6.548 5.827 0 0 0m-73 0-1 1.5c-1.861 3.722 6.775-1.5 1-1.5m51 18c0 3.711-8.651 4-10 4l-1-17 1-9c5.384 0 16.765-21.867.5-30l-4-6-7 8c-4.326 2.163-9.319 9.861-6.5 15.5 1.64 3.28 3.184 6.184 6 9l4 4.5c0 2.409 1 5.181 1 7 0 5.56-2 12.321-2 18-2.507 0-10-.667-10-4l-1-4c0-4.644 4.521-6.457 2-11.5-2.507-5.014-12 5.471-12 9.5l-4 1c-5.85 0-7.502-10-12-10 0-2.613-.93-4.36-2-6.5-2.231-4.461 2-10.59 2-14.5 0-6.403 6-11.032 6-17 0-3.676 6.162-8.662 9-11.5 12.977-12.977 33.06-11.22 48.5-3.5l10.5 10.5 3 5.5c0 5.431 6 9.825 6 15v21c-2.849 0-6.258 11-13 11l-4-1c0-3.794-8.636-15.229-12-8.5-2.164 4.328 3 7.353 3 10.5l-2 4Z"/><path fill="#FF64FF" id="MB" d="M149 86c-2.109 0-2 2.534-2 4l2-4Z"/><path fill="#FE7AFE" id="ICc" d="M179 118c0 8.143-19 15.145-19 9 0-9.057-2.182-23.136 2-31.5 1.052-2.103-.105-9.5 4-9.5 3.519 0 2.07 6.64 3 8.5 3.387 6.774 10 15.582 10 23.5ZM277 117c0 5.461 10.844 15.328 17.5 12l2.5-2c0-10.774-2-20.545-2-30.5 0-2.957-1.613-10.5-5-10.5-3.005 0-2.1 7.7-3 9.5-2.905 5.81-10 14.907-10 21.5Z"/><path fill="#1BA697" id="RSPd2/3" d="m327 87 1 1-1-1Z"/><path fill="#09818C" id="VISpor1" d="m61 116-6 2c0-5.817 10.094-29 16-29 0 2.447 2 3.28 2 6 0 3.762-12 11.964-12 20v1ZM395 114c0 1.948 5.428 4 7 4 0-5.045-11.766-29-16-29l-3 5v1c2.776 0 12 15.947 12 19Z"/><path fill="#0A838A" id="VISpl1" d="M331 99h3c0-1.489-3.413-9-5-9l2 9ZM123 99h3l1-8c-1.995 0-4 6.268-4 8Z"/><path fill="#0A8389" id="VISpor2/3" d="M61 115h1c0-3.924 11.561-12 15-12v-1c0-.888-2.573-7-3-7h-1c0 3.762-12 11.964-12 20ZM394 114h1c0-3.053-9.224-19-12-19-3.153 0-1.753 7-4 7v1c2.955 0 15 7.386 15 11Z"/><path fill="#72D568" id="PAR" d="M107 111c0 6.825 2 14.272 2 22l4-7.5c1.735-3.469 11-18.816 11-21.5 0-1.457-3-1.46-3-4-1.883 0-5.321-4-10-4l-21 1v1c6.188 0 17 5.91 17 13ZM349 111l-2 21c-1.186 0-3.454-4.408-4-5.5-.916-1.832-11-22.448-11-22.5 1.658 0 3-1.461 3-3 2.156 0 5.037-5 10-5l22 1-1 1c-6.212 0-17 6.526-17 13Z"/><path fill="#31B723" id="ENTm3" d="m78 102-1 1-6 12.5c-5.035 10.07-11.916 47.792 1.5 54.5 6.822 3.411 8.19-11.88 9.5-14.5 5.384-10.768 8-43.379 8-57.5v-1c-2.447 0-3.28 2-6 2l-6 3ZM379 102v1c0 3.813 4.338 8.176 6 11.5 5.515 11.029 9.876 38.248 4 50-7.887 15.774-12.702-3.404-15-8-2.584-5.168-.512-16.023-3-21-5.169-10.338-5-26.08-5-37.5l1-1 5 2h1l1 1 5 2Z"/><path fill="#30B824" id="ENTm2" d="m62 115-1 1c0 4.437-4.123 25.746-6 29.5-6.178 12.355 9.72 49.39 25.5 41.5 4.798-2.399 4.436-13.373 6.5-17.5 6.226-12.452 4.724-28.448 11-41 1.298-2.596 5.449-17.5 9-17.5 0-7.09-10.812-13-17-13 0 14.121-2.616 46.732-8 57.5-1.31 2.62-2.678 17.911-9.5 14.5-13.416-6.708-6.535-44.43-1.5-54.5l6-12.5c-3.439 0-15 8.076-15 12ZM349 111c4.237 0 8.556 16.612 10 19.5 6.755 13.509 5.273 30.546 12 44 1.714 3.429 1.221 10.36 5.5 12.5 16.288 8.144 30.497-31.506 24.5-43.5-.456-.912-7-28.93-7-29.5 0-3.614-12.045-11-15-11 0 3.813 4.338 8.176 6 11.5 5.515 11.029 9.876 38.248 4 50-7.887 15.774-12.702-3.404-15-8-2.584-5.168-.512-16.023-3-21-5.169-10.338-5-26.08-5-37.5-6.212 0-17 6.526-17 13Z"/><path fill="#33B932" id="APr" d="m128 100-4 4c0-1.457-3-1.46-3-4l2-1h3l2 1ZM335 101c0 1.539-1.342 3-3 3l-3-4 2-1h3l1 2Z"/><path fill="#0B838C" id="VISpl5" d="m373 99 1 1-1-1Z"/><path fill="#A9A9A8" id="AQ" d="M232 137c5.384 0 16.765-21.867.5-30l-4-6-7 8c-4.326 2.163-9.319 9.861-6.5 15.5 1.64 3.28 3.184 6.184 6 9l4 4.5c3.047 0 4.462-1 7-1Z"/><path fill="#30B824" id="ENTm2" d="m78 102-1 1v-1h1Z"/><path fill="#31B625" id="ENTm1" d="M55 118c-1.952 0-.477 2.454-1 3.5-2.08 4.162-.961 9.922-3 14-3.965 7.931-3.822 31.355 0 39 2.695 5.389 7.362 9.723 10 15 6.28 12.561 23.068 10.864 28 1l9-30c3.265-6.53 3.768-14.535 7-21 1.169-2.337 4-3.673 4-6.5 0-7.728-2-15.175-2-22-3.551 0-7.702 14.904-9 17.5-6.276 12.552-4.774 28.548-11 41-2.064 4.127-1.702 15.101-6.5 17.5-15.78 7.89-31.678-29.145-25.5-41.5 1.877-3.754 6-25.063 6-29.5l-6 2ZM402 118c0 13.38 12.047 38.407 5 52.5-4.233 8.465-18.795 33.352-30.5 27.5-2.52-1.26-5.81-1.119-7.5-4.5-5.898-11.796-6.155-26.309-12-38-1.034-2.068-10-22.977-10-23.5l2-21c4.237 0 8.556 16.612 10 19.5 6.755 13.509 5.273 30.546 12 44 1.714 3.429 1.221 10.36 5.5 12.5 16.288 8.144 30.497-31.506 24.5-43.5-.456-.912-7-28.93-7-29.5h1c0 1.948 5.428 4 7 4ZM62 115l-1 1v-1h1Z"/><path fill="#FC90FF" id="CUN" d="m187 144-2.5 3c-5.457 2.728-13.479.24-19 3-2.606 1.303-4.479-3-6.5-3 0-2.048-4.314-4.872-3-7.5 1.632-3.264 11-4.935 11-7.5 6.305 0 12.811-12 16.5-12l3.5 3c0 3.91-4.231 10.039-2 14.5 1.07 2.14 2 3.887 2 6.5ZM270 143l1.5 4h5c1.1.55 15.487 3.256 16 3l4.5-2c0-4.238 4.487-5.526 2-10.5-1.175-2.351-10-2.349-10-5.5-6.076 0-10.988-12-16.5-12l-2.5 2v21Z"/><path fill="#C9C9CB" id="ll" d="m153 163-3 5c-4.576 0-3-5.196-3-9l-1-2v-1c0-7.253-5-12.197-5-20l-1-2v-1c0-9.367 8.854-2 14-2 1.908 0 13-.788 13 1 0 2.565-9.368 4.236-11 7.5-1.314 2.628 3 5.452 3 7.5 0 3.303-2 5.115-2 8l-1 2-1 2-2 4ZM301 159c.966 0 6 8.749 6 9 4.461 0 3-6.767 3-10 0-1.048-.473-3 1-3 0-6.46 4-10.332 4-17l1-2v-1c0-11.599-7.074-4-14.5-4-1.866 0-12.5-.784-12.5 1 0 3.151 8.825 3.149 10 5.5 2.487 4.974-2 6.262-2 10.5 0 2.16 2 4.167 2 7l2 4Z"/><path fill="#FF64FF" id="MB" d="m140 134 1 2-1-2ZM316 136l-1 2 1-2ZM226 145c2.688 0 3.418 1 5 1l1-9c-2.538 0-3.953 1-7 1 0 2.409 1 5.181 1 7Z"/><path fill="#C8C9C8" id="IVn" d="m191 141-1 1.5c-1.861 3.722 6.775-1.5 1-1.5ZM264 141c0 6.548 5.827 0 0 0Z"/><path fill="#FDFB8F" id="SIM" d="M127 149c0 4.414-8 9.178-8 14-11.614 0 8-31.522 8-14Z"/><path fill="#FEC395" id="LDT" d="M203 153c0 6.635 7.482 2 10 2 0-4.644 4.521-6.457 2-11.5-2.507-5.014-12 5.471-12 9.5ZM253 153c0 6.685-6.611 2-9 2 0-3.147-5.164-6.172-3-10.5 3.364-6.729 12 4.706 12 8.5Z"/><path fill="#FF64FF" id="MB" d="m261 156 7.5 1 2.5 3c0-6.173 6.073-7 11-7l3-1c0-1.74 10.09.295 11.5 1l2.5 2c0-2.833-2-4.84-2-7l-4.5 2c-.513.256-14.9-2.45-16-3h-5l-1.5-4c-2.849 0-6.258 11-13 11v3l4-1Z"/><path fill="#FDFB8F" id="SIM" d="M329 149c.352 0 8 12.115 8 14 12.6 0-8-31.26-8-14Z"/><path fill="#FF64FF" id="MB" d="M191 159h1c0-2.747.253-3 3-3h4v-2c-5.85 0-7.502-10-12-10l-2.5 3c-5.457 2.728-13.479.24-19 3-2.606 1.303-4.479-3-6.5-3 0 3.303-2 5.115-2 8 3.298 0 6.216-3 10-3 0-3.301 7.222 1 8 1 7.415 0 10.819 6 11 6 .715 0 5-5.021 5 0Z"/><path fill="#FDA6FF" id="DR" d="M224 163c1.643 0 1 3.765 1 5l1 14.5c.927 1.854 2.282 1.718 3.5.5 2.784-2.784 2.5-16.088 2.5-20l-1-17c-1.582 0-2.312-1-5-1 0 5.56-2 12.321-2 18Z"/><path fill="#FCFB90" id="CUL4, 5" d="M119 163c0 4.62-.42 15 6 15l8.5 3c8.326-4.163 11.5-14.327 11.5-23.5l-2-4.5v-1l-1-1h-1l-2-1h-1c-1.048 0-3 .473-3-1h-8c0 4.414-8 9.178-8 14Z"/><path fill="#F0F080" id="CB" d="M135 149c1.048 0 3-.473 3 1-1.048 0-3 .473-3-1ZM321 149c-1.048 0-3-.473-3 1 1.048 0 3 .473 3-1Z"/><path fill="#FCFB90" id="CUL4, 5" d="m332 178-1 1c-2.875 0-5.295 2-7.5 2-12.192 0-10.5-21.023-10.5-28l1-1 1-1 2-1h1c1.048 0 3 .473 3-1h8c.352 0 8 12.115 8 14 0 3.311 1.199 14-4 14l-1 1Z"/><path fill="#F0F080" id="CB" d="m139 150 2 1-2-1ZM317 150l-2 1 2-1ZM142 151l1 1-1-1Z"/><path fill="#FF9B88" id="P" d="m175 153-1 2c-1.389 0-3.795-3-7-3 0-3.301 7.222 1 8 1ZM306 170l2 6c-2.441 0-4.173-6.845-5-8.5-3.315-6.63-9.672-15.5-18-15.5 0-1.74 10.09.295 11.5 1l2.5 2 2 4 5 10v1ZM153 163v4l10.5-12 3.5-3c-3.784 0-6.702 3-10 3l-1 2-1 2c0 1.465.109 4-2 4Z"/><path fill="#FFAD6D" id="PB" fill-rule="evenodd" d="M164 178c0 1.93 1.93 0 0 0m-10 12 1 1 21-4c2.869 0 3-7.658 3-10l-1-3h-3l-1 1h-1l-1 1h-1l-1 1h-2l-1 1c-4.85 0 2-2.972 2-4l1-1 1-1c0-1.07 2.384-8 3-8v-9c-1.389 0-3.795-3-7-3l-3.5 3-10.5 12c0 1.937-1.553 8-4 8v1l-1 1-1 1-1 3-1 1v3c1.272 0 9 4.405 9 5Z"/><path fill="#FF9B88" id="P" d="m282 153 1 1 2-2-3 1Z"/><path fill="#FFAD6D" id="PB" d="m280 187 22 4c0-1.515 8.167-6 9-6v-2l-2-5-1-1v-1c-2.441 0-4.173-6.845-5-8.5-3.315-6.63-9.672-15.5-18-15.5l-2 2c0 1.984-3.278 3.945-2 6.5 1.042 2.084 2 2.908 2 5.5l3 7c2.209 0 7.593 7.046 5.5 6l-2.5-1-1-1h-1l-1-1h-1l-1-1h-2l-4-1-1 5c0 2.377 3 6.054 3 8Z"/><path fill="#F0F080" id="CB" d="m314 152-1 1 1-1ZM142 183l-3 2c-5.159 0-9.104-3-15-3l1-4 8.5 3c8.326-4.163 11.5-14.327 11.5-23.5l-2-4.5 3 3v1l1 2c0 3.804-1.576 9 3 9v2c-4.202 0-8 9.987-8 13Z"/><path fill="#FFA5FD" id="PPN" d="M174 164c0 2.25 2 3.376 2 5 3.554 0 10-6.446 10-10-.181 0-3.585-6-11-6l-1 2v9Z"/><path fill="#FF9B88" id="P" d="M214 159c-1.477 0-5.699 2-9 2-1.252 0-6-3.892-6-5v-2l4-1c0 6.635 7.482 2 10 2l1 4ZM242 159c2.526 0 5.577 2 9 2 2.773 0 3.67-4 6-4v-3l-4-1c0 6.685-6.611 2-9 2l-2 4Z"/><path fill="#FFA5FD" id="PPN" d="m283 166-2 3c-3.429 0-10-5.554-10-9 0-6.173 6.073-7 11-7l1 1c0 1.984-3.278 3.945-2 6.5 1.042 2.084 2 2.908 2 5.5Z"/><path fill="#F0F080" id="CB" d="M332 182c-5.896 0-9.841 3-15 3l-3-3c0-3.377-3.806-12-8-12v-1l1-1c4.461 0 3-6.767 3-10 1.473 0 1-1.952 1-3l2-2c0 6.977-1.692 28 10.5 28 2.205 0 4.625-2 7.5-2l1 3Z"/><path fill="#CBC9CB" id="scp" d="M168 177h2l1-1h1l1-1h1l1-1c0-1.473 1.952-1 3-1 0-2.321 10.849-7 13-7 4.165 0 15.787 4.074 12-3.5l-8-6.5c-2.747 0-3 .253-3 3 0 3.592-1 4.939-1 0 0-5.021-4.285 0-5 0 0 3.554-6.446 10-10 10l-5 3-1 1-1 1c0 1.028-6.85 4-2 4l1-1Z"/><path fill="#FF8FFD" id="MRN" fill-rule="evenodd" d="m213 173-1 6.5c3.014 6.027 15.355-6.5 1-6.5m5 15h3c0-1.624 2-2.75 2-5-2.275 0-3-6.303-3-8 0-9.475-15-11.983-15-14-1.252 0-6-3.892-6-5h-4l8 6.5c3.787 7.574-7.835 3.5-12 3.5l4 2.5c3.483 6.966.415 13.5-8 13.5 0 4.344 25.838 6 31 6Z"/><path fill="#FF8FFD" id="MRN" d="M235 188h3c5.055 0 31-1.345 31-6-18.431 0-4-15.684-4-16-3.428 0-15.204 3.908-12-2.5l8-7.5-4 1c-2.33 0-3.227 4-6 4 0 2.438-14 4.295-14 12 16.655 0 0 19.067 0 0l-1 2c0 1.775-.069 8-2 8l1 5Z"/><path fill="#CBC9CB" id="scp" fill-rule="evenodd" d="M264 158c0 9.211 2.105 0 0 0m24 19 1 1 2.5 1c2.093 1.046-3.291-6-5.5-6l-5-4c-3.429 0-10-5.554-10-9l-2.5-3-7.5-1-8 7.5c-3.204 6.408 8.572 2.5 12 2.5 2.119 0 14 5.1 14 7 1.238 0 3 .423 3 2h2l1 1h1l1 1h1Z"/><path fill="#FF64FF" id="MB" d="m156 157-1 2 1-2Z"/><path fill="#FF8FFD" id="MRN" d="M264 158c0 9.211 2.105 0 0 0Z"/><path fill="#FF64FF" id="MB" d="m155 159-2 4c2.109 0 2-2.535 2-4Z"/><path fill="#FF8FFD" id="MRN" d="M191 159h1c0 3.592-1 4.939-1 0Z"/><path fill="#FF64FF" id="MB" d="M228 189h1l1-1h5l-1-5c-.402 0-5.193-8 2-8l1-2c0-7.705 14-9.562 14-12-3.423 0-6.474-2-9-2 0 3.711-8.651 4-10 4 0 3.912.284 17.216-2.5 20-1.218 1.218-2.573 1.354-3.5-.5l-1-14.5c0-1.235.643-5-1-5-2.507 0-10-.667-10-4-1.477 0-5.699 2-9 2 0 2.017 15 4.525 15 14l1.5-2c4.664 0 1.5 8.573 1.5 10 0 2.25-2 3.376-2 5h5l1 1h1ZM307 168l-1 1-5-10c.966 0 6 8.749 6 9ZM150 168v1l3-2v-4l-3 5Z"/><path fill="#FF9B88" id="P" d="m176 169-5 3c0-1.07 2.384-8 3-8 0 2.25 2 3.376 2 5Z"/><path fill="#FFA5FD" id="PPN" d="M179 177c.515 0 2.8 5 8 5 8.415 0 11.483-6.534 8-13.5l-4-2.5c-2.151 0-13 4.679-13 7v1l1 3ZM277 179c-2.404 0-4.649 3-8 3-18.431 0-4-15.684-4-16 2.119 0 14 5.1 14 7l-1 1-1 5Z"/><path fill="#FF9B88" id="P" d="m281 169 5 4-3-7-2 3ZM150 170c1.551 0-1 3.592-1 5 2.447 0 4-6.063 4-8l-3 2v1Z"/><path fill="#CBC7CC" id="sctv" d="M142 183c0 2.373 2.284 0 3 0v-1l1-1 1-3 1-1 1-1v-1c0-1.408 2.551-5 1-5-4.202 0-8 9.987-8 13ZM314 182c0 2.845-.959 1-3 1l-2-5-1-1v-1l-2-6c4.194 0 8 8.623 8 12Z"/><path fill="#FF9B88" id="P" d="m170 173-1 1 1-1ZM175 174h3v-1c-1.048 0-3-.473-3 1Z"/><path fill="#FC90FE" id="VTN" d="m213 173-1 6.5c3.014 6.027 15.355-6.5 1-6.5Z"/><path fill="#CBCBCC" id="mlf" d="m220 175 1.5-2c4.664 0 1.5 8.573 1.5 10-2.275 0-3-6.303-3-8Z"/><path fill="#FC90FE" id="VTN" d="M237 173c0 19.067 16.655 0 0 0Z"/><path fill="#FF9B88" id="P" d="m278 174 4 1c0-1.577-1.762-2-3-2l-1 1ZM175 174l-1 1 1-1Z"/><path fill="#CBCBCC" id="mlf" d="M236 175c-7.193 0-2.402 8-2 8 1.931 0 2-6.225 2-8Z"/><path fill="#FF9B88" id="P" d="m173 175-1 1 1-1ZM284 175l1 1-1-1ZM149 176l-1 1 1-1ZM171 176l-1 1 1-1ZM286 176l1 1-1-1ZM148 177l-1 1 1-1ZM168 177l-1 1 1-1ZM216 202c0 1.048-.473 3 1 3 0-5.587 1-12.081 1-17-5.162 0-31-1.656-31-6-5.2 0-7.485-5-8-5 0 2.342-.131 10-3 10 0 1.811 7 1.58 7 5 .982 0 6.244-3.372 7.5-4 5.416-2.708 25.5 7.826 25.5 14ZM288 177l1 1-1-1ZM308 177l1 1-1-1Z"/><path fill="#F0F080" id="CB" d="m333 177-1 1 1-1Z"/><path fill="#CBC9CB" id="scp" d="M164 178c0 1.93 1.93 0 0 0Z"/><path fill="#F0F080" id="CB" d="m332 178-1 1 1-1Z"/><path fill="#FF9B88" id="P" d="m241 202-1 1v-11.5l-2-3.5c5.055 0 31-1.345 31-6 3.351 0 5.596-3 8-3 0 2.377 3 6.054 3 8 0 1.873-6 .648-6 7l-1.5-3-6-3c-5.591-2.796-25.5 7.251-25.5 14Z"/><path fill="#FEF991" id="FL" d="M115 219c-1.238 0-5 1.923-5 3-11.296 0-6.394-32.712-3-39.5 1.544-3.088 12-3.544 12 .5 0 5.636 2.594 12.688 5 17.5 1.539 3.078-2 7.593-2 10.5l-3 3-1 1v1l-1 1h-1l-1 1v1ZM341 218l6 4c1.812 0 4.015.469 5-1.5 2.614-5.229 1.458-31.084-1-36-1.516-3.032-13-7.835-13-1.5 0 4.644-2.977 11.453-5 15.5-2.094 4.188 2 9.505 2 12.5l3 4 1 1v1l2 1Z"/><path fill="#FF9B88" id="P" d="m146 181-1 1 1-1Z"/><path fill="#CCCCCA" id="mcp" d="m139 192-12 16c-1.995 0-2-4.377-2-6 0-7.297-3-11.56-3-19l2-1c5.896 0 9.841 3 15 3v7Z"/><path fill="#FF9B88" id="P" d="M329 217c-5.697 0-6.188 11-10 11 0-6.133 8.327-13.845 5-20.5l-8-10.5c2.864 0 .014-12-5-12v-2c2.041 0 3 1.845 3-1l3 3c0 10.364 12 16.876 12 23v9Z"/><path fill="#CCCCCA" id="mcp" d="M317 185c0 10.364 12 16.876 12 23 2.109 0 2-2.535 2-4 0-6.26 1.449-10.398 4-15.5 1.428-2.856-2-4.553-2-6.5h-1c-5.896 0-9.841 3-15 3Z"/><path fill="#F0F080" id="CB" d="m332 212-3 4v-8c2.109 0 2-2.535 2-4 0-6.26 1.449-10.398 4-15.5 1.428-2.856-2-4.553-2-6.5l5 1c0 4.644-2.977 11.453-5 15.5-2.094 4.188 2 9.505 2 12.5-1.048 0-3-.473-3 1ZM125 213l2 2v-7c-1.995 0-2-4.377-2-6 0-7.297-3-11.56-3-19h-3c0 5.636 2.594 12.688 5 17.5 1.539 3.078-2 7.593-2 10.5 2.003 0 3-.293 3 2Z"/><path fill="#FF9B88" id="P" d="M145 185c-3.867 0-3.572 7-6 7v-7l3-2c0 2.373 2.284 0 3 0v2Z"/><path fill="#FEAD6E" id="KF" d="m151 198-3 1c0-3.865-5.428-2-7-2-2.868 0-2-2.688-2-5 2.428 0 2.133-7 6-7 1.272 0 9 4.405 9 5l1 1c0 2.83-4 4.54-4 7ZM316 197l-4.5-1-3.5 3-3-2-3-6c0-1.515 8.167-6 9-6 5.014 0 7.864 12 5 12Z"/><path fill="#FEBA86" id="SUT" d="M168 199c-2.014 0-5.932-2.284-8.5-1l-5.5 5c-3.236 0-3-2.435-3-5 0-2.46 4-4.17 4-7l21-4c0 1.811 7 1.58 7 5v3l-2 3c-2.78 0-5.268-5.116-9.5-3l-3.5 4ZM288 199l8.5-1c2.389 1.194 4.247 5 6.5 5 3.024 0 2-3.574 2-6l-3-6-22-4c0 1.873-6 .648-6 7v4h1c2.242 0 13-7.599 13 1Z"/><path fill="#FFC295" id="PRNr" d="M183 201c5.092 0 16.2-3.65 21.5-1 2.738 1.369 8.42 2 11.5 2 0-6.174-20.084-16.708-25.5-14-1.256.628-6.518 4-7.5 4v9Z"/><path fill="#FFC393" id="CS" d="M218 213c.558 0 9 12.728 9 2-5.088 0-9.562-26-1-26v-1h-8c0 4.919-1 11.413-1 17l1 8Z"/><path fill="#FF9B88" id="P" d="M226 189h1l-1-1v1ZM229 189h1v-1l-1 1Z"/><path fill="#FFC393" id="CS" d="M238 214c-1.921 0-9 9.954-9 1 5.868 0 10.216-26 1-26v-1h8l2 3.5V203l-1 10-1 1Z"/><path fill="#FFC295" id="PRNr" d="M273 201c-5.092 0-16.2-3.65-21.5-1-2.359 1.179-7.918 2-10.5 2 0-6.749 19.909-16.796 25.5-14l6 3 1.5 3v5l-1 2Z"/><path fill="#FFC294" id="RPO" d="M227 215c2.427 0 .139-9.778 1-11.5.278-.557 1 9.312 1 11.5 5.868 0 10.216-26 1-26h-1c0 1.186-1 1.186-1 0h-2c-8.562 0-4.088 26 1 26Z"/><path fill="#FF9B88" id="P" d="M228 189h1c0 1.186-1 1.186-1 0ZM154 190l1 1-1-1ZM128 217c5.754 0 9 11.727 9 16.5 0 1.448-.725 7.5 1 7.5 0-5.918 1.848-11.803-1-17.5-1.525-3.049-7.02-9.96-5-14 1.499-2.998 3.464-5.927 5-9l4-3.5c-2.868 0-2-2.688-2-5l-12 16v8l1 1Z"/><path fill="#FEB886" id="P5" d="M174 226c0 8.475-.096 5-7 5 0-.308 3.552-9.605 4-10.5 3.426-6.851-3-15.961-3-21.5l3.5-4c4.232-2.116 6.72 3 9.5 3l2 1v2l1 13.5c-1.016 2.031-2 6.247-2 8.5h-3c0-3.798-5-2.997-5 3Z"/><path fill="#FF9B88" id="P" d="m181 198 2 1v-4l-2 3Z"/><path fill="#FEB886" id="P5" d="m282 226-1 4.5c.674 1.347 8 2.691 8 .5l-4-12.5c-3.086-6.172 3-14.046 3-19.5 0-8.599-10.758-1-13-1l-1 1-1 2c0 6.967 1 14.681 1 21l3 1c0-7.14 9.915 3 5 3Z"/><path fill="#FFAE6F" id="PSV" d="M149 254h1c6.167 0 9.919-8.663 7-14.5-4.06-8.121-9-30.895-9-40.5 0-3.865-5.428-2-7-2l-4 3.5c-1.536 3.073-3.501 6.002-5 9-2.02 4.04 3.475 10.951 5 14 2.848 5.697 1 11.582 1 17.5v1c1.473 0 1 1.952 1 3v1l2 2 1 1 1 1 1 1 1 1 3 1 1 1ZM306 254h1l1-1c2.968 0 4.633-4 7-4l1-1 1-1v-1l1-2c0-2.075-.797-15 1-15v-1c0-6.133 8.327-13.845 5-20.5l-8-10.5-4.5-1-3.5 3c0 12.06-3.924 31.349-9 41.5-2.81 5.62 1.565 13.5 7 13.5Z"/><path fill="#FF9B88" id="P" d="M291 281c.716 0 3-2.373 3 0 1.757 0 4.284-6.069 5-7.5.7-1.4 7.297-3.595 6-1-1.151 2.303-4 2.641-4 5.5l8-7.5c3.039-6.078 22-11.058 22-17.5-3.391 0-1.254-6-3.5-6l-2.5 3v1c0 1.238-.423 3-2 3l-1 1c-1.638 0-7.679 5.09-9.5 6-2.76 1.38-15.187 1.874-12.5-3.5l6-3.5c-5.435 0-9.81-7.88-7-13.5 5.076-10.151 9-29.44 9-41.5l-3-2c0 2.426 1.024 6-2 6v1c4.147 0 3.222 5 0 5v3c0 8.585-2.461 15.422-6 22.5-.725 1.45.493 8.496-3.5 6.5-2.605-1.302-2.469-4.438-3.5-6.5l2-3.5h-3c0 2.191-7.326.847-8-.5l1-4.5c-2.554 0-3.688-3-5-3l-3-1c0 5.957 7 16.337 7 26v5c2.36 0 0 3.959 0 5 7.987 0 2.954-11.408 5-15.5 1.848-3.696 4 4.265 4 5.5v5c1.384 0 1.123-3.189 3.5-2 .949.474 11.032 21 3 21-1.591 0 .858-6-1.5-6 0 5.778-4 11.241-4 13v2ZM163 281c-2.115 0-5.248-5.996-6-7.5-1.194-2.387-6.792-3.585-5 0l12 12.5c-3.725 0-4.972-5.736-7.5-7l-14-14c-3.492-1.746-7.645-2.322-11-4l-5.5-7 3.5-7 1.5 2v1c0 1.238.423 3 2 3v1l1 1 9.5 6c3.064 1.532 15.394 2.287 12.5-3.5l-6-3.5c6.167 0 9.919-8.663 7-14.5-4.06-8.121-9-30.895-9-40.5l3-1c0 2.565-.236 5 3 5l-1 1c-2.971 0-2.971 5 0 5l1 3c0 5.024 4.625 39.249 12 24.5 1.27-2.541-2-3.709-2-5.5h3c6.904 0 7 3.475 7-5 1.766 0 5-.607 5-3h3c0 5.957-7 16.337-7 26v3c0 2.409 1 5.181 1 7-7.011 0-4.762-16.131-6.5-17-4.757-2.378-.793 9-3.5 9h-3.5c-1.885.943-.764 4.027-1.5 5.5-2.056 4.111-9.744 14.5 0 14.5 0 1.463 2.995 8 5 8 0 8.994 17.26 7 24 7 0 1.665-4.222 1-5.5 1-5.72 0-12.258.371-17-2-1.416-.708-4.5-8.293-4.5-4Z"/><path fill="#FEB986" id="V" d="M164 231h3c0-.308 3.552-9.605 4-10.5 3.426-6.851-3-15.961-3-21.5-2.014 0-5.932-2.284-8.5-1l-5.5 5-1 1v5l1 3c4.656 0 3.029 19 10 19Z"/><path fill="#FF9B88" id="P" d="m275 198-1 1v-1h1Z"/><path fill="#FEB986" id="V" d="M289 231h3c8.872 0 3.497-19 11-19v-9c-2.253 0-4.111-3.806-6.5-5l-8.5 1c0 5.454-6.086 13.328-3 19.5l4 12.5Z"/><path fill="#FDBA86" id="PRNc" d="m195 269 2 1v-4.5c.582-1.163 19.34-.5 21-.5l1-1 1-1 2-1c0-2.149 5.334-6.832 3-11.5l-6-7c-2.941-5.881-2-15.46-2-22.5-3.304 0-8.151-10.674-5.5-12l6.5 6v-2l-1-8c-1.473 0-1-1.952-1-3-3.08 0-8.762-.631-11.5-2-5.3-2.65-16.408 1-21.5 1l1 13.5c-1.016 2.031-2 6.247-2 8.5 0 5.957-7 16.337-7 26 1.488 0 3.618-5.441 6.5-4 2.468 1.234 5.809 13 1 13-3.082 0-5.875-6-7.5-6 0 2.409 1 5.181 1 7l4 4h1c5.049 0 8.829 6 14 6ZM260 269h1c5.347 0 9.1-6 14-6h2l4-5c0-1.041 2.36-5 0-5-2.198 0-4.917 6.291-7.5 5-3.304-1.652-1.779-11.611 1-13 2.606-1.303 4.479 3 6.5 3 0-9.663-7-20.043-7-26 0-6.319-1-14.033-1-21-5.092 0-16.2-3.65-21.5-1-2.359 1.179-7.918 2-10.5 2l-1 1-1 10 5.5-4c3.309 1.654-.51 6.52-1.5 8.5-.471.942.73 4.5-1.5 4.5l-2.5-1c0 10.155 1.227 20.273-6 27.5l-2 2.5v7l3 4 3 2 2 1c4.438 0 21-3.032 21 4Z"/><path fill="#FF9B88" id="P" d="M222 262h3l1-1v-15.5c2.732-5.464 5 3.33 5 5.5l2-2.5c7.227-7.227 6-17.345 6-27.5v-7h-1c-1.921 0-9 9.954-9 1 0-2.188-.722-12.057-1-11.5-.861 1.722 1.427 11.5-1 11.5 0 10.728-8.442-2-9-2v2l-1 6c0 7.04-.941 16.619 2 22.5l6 7c2.334 4.668-3 9.351-3 11.5Z"/><path fill="#FEB984" id="I5" d="M153 204c-2.971 0-2.971 5 0 5v-5ZM303 204c4.147 0 3.222 5 0 5v-5Z"/><path fill="#C8C8CC" id="tspc" d="m218 215-6.5-6c-2.651 1.326 2.196 12 5.5 12l1-6ZM239 214v7l2.5 1c2.23 0 1.029-3.558 1.5-4.5.99-1.98 4.809-6.846 1.5-8.5l-5.5 4v1Z"/><path fill="#FEA4D2" id="VCO" d="m117 244-2 1-5-6.5c-1.839-3.678 1-10.096 1-13.5l1-1 1-1v-1l1-1 1-1v-1l1-1 1-1 1-1v-1l1-1 3-3c2.003 0 3-.293 3 2 0 4.357-2.109 10.718-4 14.5v7l-3 6.5c-1.473 0-1 1.952-1 3ZM340 245h1l1.5-2c6.834-3.417 3.5-9.937 3.5-16l-1-1v-2l-2-2-1-2-3-3v-1l-1-1-3-4c-1.048 0-3-.473-3 1 0 3.035 2.922 22.345 4 24.5l2 4.5 2 4Z"/><path fill="#FDB986" id="PC5" d="M154 212c4.656 0 3.029 19 10 19 0 1.791 3.27 2.959 2 5.5-7.375 14.749-12-19.476-12-24.5ZM303 212c-7.503 0-2.128 19-11 19l-2 3.5c1.031 2.062.895 5.198 3.5 6.5 3.993 1.996 2.775-5.05 3.5-6.5 3.539-7.078 6-13.915 6-22.5Z"/><path fill="#FF9BCD" id="MY" d="m325 250 2.5-3c2.246 0 .109 6 3.5 6 3.035 0 10-4.391 10-8h-1c-2 0-3.294 6.603-6.5 5-5.361-2.681.585-9 4.5-9l-2-4.5c-1.078-2.155-4-21.465-4-24.5l-3 4v1c3.042 0 2 6.505 2 8.5 0 8.812-6 16.221-6 24.5ZM131 249l-1.5-2-3.5 7c-2.547 0-11-6.318-11-9l2-1c0 2.029 1.191 1.881 2 3.5 3.997 7.994 10.803-6.5-1-6.5l3-6.5v-7c1.891-3.782 4-10.143 4-14.5l2 2v2c-2.048 0-2 6.648-2 8.5 0 8.35 6 15.277 6 23.5Z"/><path fill="#FDBA86" id="PRNc" d="M238 214h1v-1l-1 1Z"/><path fill="#FF9BCD" id="MY" d="m119 214-1 1 1-1ZM338 215l1 1-1-1ZM118 216l-1 1 1-1Z"/><path fill="#F0F080" id="CB" d="M127 217h1l-1-1v1ZM115 218h1v-1l-1 1Z"/><path fill="#FF9BCD" id="MY" d="m117 217-1 1v-1h1Z"/><path fill="#C8CACA" id="sptV" d="m150 254 6 3.5c2.894 5.787-9.436 5.032-12.5 3.5l-9.5-6-1-1v-1c0-1.238-.423-3-2-3v-1c0-8.223-6-15.15-6-23.5 0-1.852-.048-8.5 2-8.5h1c5.754 0 9 11.727 9 16.5 0 1.448-.725 7.5 1 7.5v1c0 1.048-.473 3 1 3v1l2 2 1 1 1 1 1 1 1 1 3 1 1 1h1ZM323 254l-1 1c-1.638 0-7.679 5.09-9.5 6-2.76 1.38-15.187 1.874-12.5-3.5l6-3.5h1l1-1c2.968 0 4.633-4 7-4l1-1 1-1v-1l1-2c1.797 0 1-12.925 1-15v-1c3.812 0 4.303-11 10-11 3.042 0 2 6.505 2 8.5 0 8.812-6 16.221-6 24.5v1c-1.577 0-2 1.762-2 3Z"/><path fill="#FF9BCD" id="MY" d="m341 218 1 2-3-3 2 1ZM116 218l-1 1v-1h1Z"/><path fill="#F0F080" id="CB" d="m347 222-2 1-2-1-1-2-1-2 6 4ZM111 224h1l1-1v-1l1-1 1-1v-1c-1.238 0-5 1.923-5 3l1 2Z"/><path fill="#FF9BCD" id="MY" d="m115 220-1 1 1-1ZM114 221l-1 1 1-1Z"/><path fill="#FDBA85" id="Acs5" d="M179 223c0 2.393-3.234 3-5 3 0-5.997 5-6.798 5-3ZM277 223c1.312 0 2.446 3 5 3 4.915 0-5-10.14-5-3Z"/><path fill="#FF9BCD" id="MY" d="M345 223v1l-2-2 2 1ZM113 223l-1 1 1-1ZM112 224l-1 1v-1h1ZM345 226l1 1-1-1Z"/><path fill="#FF9B88" id="P" d="M319 229c-1.797 0-1 12.925-1 15 1.797 0 1-12.925 1-15Z"/><path fill="#C9CACB" id="vVIIIn" d="M118 241c11.803 0 4.997 14.494 1 6.5-.809-1.619-2-1.471-2-3.5 0-1.048-.473-3 1-3ZM338 241l2 4c-2 0-3.294 6.603-6.5 5-5.361-2.681.585-9 4.5-9Z"/><path fill="#FF9B88" id="P" d="M138 242c1.473 0 1 1.952 1 3-1.473 0-1-1.952-1-3Z"/><path fill="#FEAE6E" id="SOCl" d="m180 276-5.5 4-8.5-1c-2.005 0-5-6.537-5-8 0-7.262 4-11.669 4-16l1-1v-3c2.707 0-1.257-11.378 3.5-9 1.738.869-.511 17 6.5 17l4 4 1 2-1 11ZM277 276c0 6.266 11.13 3 14 3 0-1.759 4-7.222 4-13 0-5.187-5-8.619-5-13v-5c0-1.235-2.152-9.196-4-5.5-2.046 4.092 2.987 15.5-5 15.5l-4 5-1 1c0 3.962 1 8.688 1 12Z"/><path fill="#FFC5E2" id="RM" d="m226 270 4 1v-8l1-2v-10c0-2.17-2.268-10.964-5-5.5V270Z"/><path fill="#FF9B88" id="P" d="m318 244-1 2 1-2Z"/><path fill="#C9C9CB" id="ll" d="M175 249c1.488 0 3.618-5.441 6.5-4 2.468 1.234 5.809 13 1 13-3.082 0-5.875-6-7.5-6v-3ZM281 248c-2.021 0-3.894-4.303-6.5-3-2.779 1.389-4.304 11.348-1 13 2.583 1.291 5.302-5 7.5-5v-5Z"/><path fill="#FF9B88" id="P" d="m139 246 2 2-2-2ZM317 247l-1 1 1-1ZM316 248l-1 1 1-1ZM142 249l1 1-1-1Z"/><path fill="#FF9BCD" id="MY" d="M131 250c1.577 0 2 1.762 2 3-1.577 0-2-1.762-2-3Z"/><path fill="#FF9B88" id="P" d="m144 251 1 1-1-1Z"/><path fill="#C8C8CB" id="rust" d="M165 255c0 4.331-4 8.738-4 16-9.744 0-2.056-10.389 0-14.5.736-1.473-.385-4.557 1.5-5.5h3.5v3l-1 1ZM290 253c1.384 0 1.123-3.189 3.5-2 .949.474 11.032 21 3 21-1.591 0 .858-6-1.5-6 0-5.187-5-8.619-5-13Z"/><path fill="#FF9BCD" id="MY" d="M325 251c-1.577 0-2 1.762-2 3 1.577 0 2-1.762 2-3Z"/><path fill="#FF9B88" id="P" d="m148 253 1 1-1-1ZM308 253l-1 1 1-1Z"/><path fill="#FF9BCD" id="MY" d="m133 254 1 1-1-1Z"/><path fill="#FF9B88" id="P" d="m166 254-1 1 1-1Z"/><path fill="#FF9BCD" id="MY" d="m323 254-1 1 1-1Z"/><path fill="#FF9B88" id="P" d="M231 262h3l-3-4v4Z"/><path fill="#FF9BCD" id="MY" d="m225 262 1 1v-2l-1 1ZM231 262l-1 1 1-2v1Z"/><path fill="#CACCC8" id="ml" d="M219 265c0 2.588-3.501 6.498-2 9.5 1.698 3.396 9-.816 9-4.5v-7l-1-1h-3l-2 1-1 1v1ZM238 265c0 3.084 2 6.705 2 9.5 0 2.824-10-.067-10-3.5v-8l1-1h3l3 2 1 1Z"/><path fill="#FF9B88" id="P" d="M181 263v2l-1-2h1Z"/><path fill="#FFAD6E" id="SOCm" d="m195 279-1 1-4.5 1-9.5-5 1-11v-2c5.049 0 8.829 6 14 6l1 4v2l-1 1v3Z"/><path fill="#FF9B88" id="P" d="m220 263-1 1 1-1Z"/><path fill="#FFAD6E" id="SOCm" d="m261 277 2 3 4.5 1 9.5-5c0-3.312-1-8.038-1-12l-1-1c-4.9 0-8.653 6-14 6v8Z"/><path fill="#FF9B88" id="P" d="m277 263-1 1-1-1h2Z"/><path fill="#CCC7CB" id="tb" d="M235 287h2l-3-3.5c-3.494-6.988 10.863-4.5 13-4.5v-2c0-2.871-4-2.556-4-6l1-1 15 1v-1l1-1c0-7.032-16.562-4-21-4h-1c0 3.084 2 6.705 2 9.5 0 2.824-10-.067-10-3.5l-4-1c0 3.684-7.302 7.896-9 4.5-1.501-3.002 2-6.912 2-9.5h-1c-1.66 0-20.418-.663-21 .5v5.5l16-.5c1.458 2.917-4 4.181-4 6.5v2c1.682 0 17.302-2.105 14 4.5l-4 3.5h2l7.5-3 6.5 3Z"/><path fill="#FF9B88" id="P" d="M218 265h1v-1l-1 1ZM238 265h1l-2-1 1 1ZM197 271l-1 2-1-4 2 1v1Z"/><path fill="#FDBA86" id="PRNc" d="m260 269-1 1 1-1Z"/><path fill="#FF9B88" id="P" d="m259 271 2 3v-5h-1l-1 1v1Z"/><path fill="#FEA3D2" id="NTB" d="M209 277c-2.27 0-3.627 2.064-5.5 3-3.349 1.675-6.241-2-8.5-2v-2l1-1v-2l1-2 16-.5c1.458 2.917-4 4.181-4 6.5Z"/><path fill="#FF9BCD" id="MY" d="m244 270-1 1 1-1Z"/><path fill="#FEA3D2" id="NTB" d="M261 277v2c-1.804 0-5.136 2.182-7.5 1l-6.5-3c0-2.871-4-2.556-4-6l1-1 15 1 2 3v3Z"/><path fill="#CBC7CC" id="sctv" d="M164 286h1v-1l-2-4c-2.115 0-5.248-5.996-6-7.5-1.194-2.387-6.792-3.585-5 0l12 12.5ZM293 285h1l1-1 1-1 1-1 1-1 1-1 1-1 1-1c0-2.859 2.849-3.197 4-5.5 1.297-2.595-5.3-.4-6 1-.716 1.431-3.243 7.5-5 7.5l-3 4 1 1 1-1Z"/><path fill="#FF9B88" id="P" d="m196 275-1 1 1-1Z"/><path fill="#FEAD6F" id="POR" d="M190 286h2l1-1h1l1-1v-4h-1l-4.5 1-9.5-5-5.5 4-8.5-1c0 8.994 17.26 7 24 7ZM265 286h2c6.525 0 13-1 19-1l5-4v-2c-2.87 0-14 3.266-14-3l-9.5 5-4.5-1h-2v3l2 2h1l1 1Z"/><path fill="#FF9BCD" id="MY" d="M195 284v1c2.522 0 4.909-2 8-2l2-1 4-3v-2c-2.27 0-3.627 2.064-5.5 3-3.349 1.675-6.241-2-8.5-2v6ZM261 283v2l-9-3-5-3v-2l6.5 3c2.364 1.182 5.696-1 7.5-1v4Z"/><path fill="#FF9B88" id="P" d="M261 280h2l-2-3v3Z"/><path fill="#C7C9C9" id="py" d="M205 287h14l4-3.5c3.302-6.605-12.318-4.5-14-4.5l-4 3-2 1c0 2.878 1 2.954 1 4h1ZM251 287h2c0-2.413-1-3.51-1-5l-5-3c-2.137 0-16.494-2.488-13 4.5l3 3.5h14Z"/><path fill="#FF9B88" id="P" d="m301 278-1 1 1-1Z"/><path fill="#CCC7CB" id="tb" d="M192 288h2l2-1h8c0-1.046-1-1.122-1-4-3.091 0-5.478 2-8 2h-2l-1 1h-2c0 1.665-4.222 1-5.5 1-5.72 0-12.258.371-17-2-1.416-.708-4.5-8.293-4.5-4l2 4 6.5 3H192Z"/><path fill="#FF9B88" id="P" d="M194 280h1v-1l-1 1ZM300 279l-1 1 1-1Z"/><path fill="#CCC7CB" id="tb" d="M285 288h1c0-1.473 1.952-1 3-1l2-2 3-4c0-2.373-2.284 0-3 0 0 2.96-2.399 4-5 4 0 2.868-12 2-14.5 2-1.19 0-4.5.614-4.5-1h-2l-1-1h-3l-9-3c0 1.49 1 2.587 1 5h8l1 1h23Z"/><path fill="#FF9B88" id="P" d="m299 280-1 1 1-1ZM291 281l-5 4c2.601 0 5-1.04 5-4ZM298 281l-1 1 1-1Z"/><path fill="#CCC7CB" id="tb" d="m205 282-2 1 2-1Z"/><path fill="#FF9B88" id="P" d="m297 282-1 1 1-1ZM261 285h2l-2-2v2ZM296 283l-1 1 1-1ZM194 285h1v-1l-1 1ZM295 284l-1 1 1-1ZM165 286c0 3.355 17.378 3 21 3 1.321 0 6 .684 6-1h-20.5l-6.5-3v1ZM193 285l-1 1 1-1ZM264 285l1 1-1-1ZM286 285c-6 0-12.475 1-19 1 0 1.614 3.31 1 4.5 1 2.5 0 14.5.868 14.5-2ZM292 286c0 1.473-1.952 1-3 1l2-2 1 1ZM293 285l-1 1 1-1ZM194 288h2v-1l-2 1Z"/><path fill="#FF9BCD" id="MY" d="M201 287c0 1.643-3.765 1-5 1v-1h5ZM219 287h2c0 2.329-16 1.768-16 0h14ZM237 287h14c0 1.768-16 2.329-16 0h2ZM261 287v1c-1.321 0-6 .684-6-1h6Z"/><path fill="#FF9B88" id="P" d="M261 288h1l-1-1v1ZM289 287c-1.048 0-3-.473-3 1 1.048 0 3 .473 3-1ZM264 288h21c0 1.803-14.3 1-16.5 1-1.19 0-4.5.614-4.5-1Z"/></svg>