<svg xmlns="http://www.w3.org/2000/svg" viewBox="0 0 456 320"><path fill="#1BA598" id="RSPd1" d="m227 32-4 2c0-12.459-16.139-16-26-16l-1-4c0-2.316 10.303-.598 11.5 0 5.141 2.57 19.5 10.685 19.5 18ZM229 32l4 2c0-2.827 2.831-4.163 4-6.5 4.497-8.994 13.735-9.5 23-9.5l1-4c0-2.316-10.303-.598-11.5 0-4.789 2.395-20.5 10.944-20.5 18Z"/><path fill="#1BA696" id="RSPagl1" d="M197 18c-5.672 0-10.95 2-17 2l-1-5 17-1 1 4ZM260 18c5.666 0 10.844 2 17 2v-5c-5.605 0-10.861-1-16-1l-1 4Z"/><path fill="#187C64" id="SSp-tr1" d="M133 31h1l12.5-5c9.095-4.547 22.686-6 33.5-6l-1-5c-10.248 0-21.917 1.709-30.5 6h-5c-3.592 1.796-10.554 6-14.5 6 0 3.34 4-.12 4 4ZM322 31h1c0-2.018 4-2.564 4-4-1.878 0-12.267-4.883-14.5-6-5.138-2.57-28.595-6-35.5-6v5c11.719 0 23.728 2.114 33.5 7 1.789.895 11.5 1.558 11.5 4Z"/><path fill="#1AA496" id="RSPagl2/3" d="M181 30v1c5.318 0 9.802-4 16-4v-9c-5.672 0-10.95 2-17 2 0 2.978 1 6.49 1 10Z"/><path fill="#1BA697" id="RSPd2/3" d="m223 35-6 2c0-10.384-12.22-10-20-10v-9c9.861 0 26 3.541 26 16v1ZM233 35c2.72 0 3.553 2 6 2 0-10.107 13.775-10 21-10v-9c-9.265 0-18.503.506-23 9.5-1.169 2.337-4 3.673-4 6.5v1Z"/><path fill="#1AA496" id="RSPagl2/3" d="M275 30v1c-5.117 0-9.052-4-15-4v-9c5.666 0 10.844 2 17 2l-2 10Z"/><path fill="#188061" id="SSp-tr2/3" d="M134 31c0 1.761 11 6.837 11 8 12.077 0 23.655-9 36-9 0-3.51-1-7.022-1-10-10.814 0-24.405 1.453-33.5 6L134 31ZM322 31c0 4.124-11 6.505-11 8-11.969 0-23.6-9-36-9l2-10c11.719 0 23.728 2.114 33.5 7 1.789.895 11.5 1.558 11.5 4Z"/><path fill="#197E64" id="SSp-ul1" d="m133 31-4 2c0-2.25-2-3.376-2-5l2-1c0 3.34 4-.12 4 4Z"/><path fill="#1CA697" id="RSPagl5" d="M195 41c-4.91 0-7.351 4-12 4 0-4.252-2-9.018-2-13v-1c5.318 0 9.802-4 16-4 0 4.477-2 8.932-2 13v1Z"/><path fill="#1AA596" id="RSPd5" d="M196 40c5.851 0 11-1.503 11 7 3.42 0 5.891-9 10-9v-1c0-10.384-12.22-10-20-10 0 4.477-2 8.932-2 13h1ZM261 40c-4.647 0-12-1.836-12 6-3.585 0-6.014-8-10-8v-1c0-10.107 13.775-10 21-10 0 4.75 1 7.894 1 13Z"/><path fill="#1CA697" id="RSPagl5" d="m261 40 12 5c0-4.577 2-8.982 2-14-5.117 0-9.052-4-15-4 0 4.75 1 7.894 1 13Z"/><path fill="#197E64" id="SSp-ul1" d="m323 31 4 2c0-1.974 2-3.517 2-6h-2c0 1.436-4 1.982-4 4Z"/><path fill="#1B8062" id="SSp-un1" d="m340 33-2 4c-4.349 0-6.918-4-11-4 0-1.974 2-3.517 2-6 1.441 0 11 4.523 11 6ZM129 33l-10 4c-2.461 0-2-3.378-2-5 3.223 0 6.355-4 10-4 0 1.624 2 2.75 2 5Z"/><path fill="#1B7E62" id="SSp-tr4" d="M151 43h2l28-11v-2c-12.345 0-23.923 9-36 9v1l6 3ZM304 43h2c1.312 0 2.446-3 5-3v-1c-11.969 0-23.6-9-36-9v1c3.958 0 22.528 12 29 12Z"/><path fill="#197F61" id="SSp-ul2/3" d="M131 45h1l13-5v-1c0-1.163-11-6.239-11-8h-1l-4 2c0 3.956 2 7.497 2 12Z"/><path fill="#197F60" id="SSp-tr5" d="M289 51h1c.718 0 14-6.39 14-8-6.472 0-25.042-12-29-12 0 5.018-2 9.423-2 14v1c5.337 0 10.398 5 16 5Z"/><path fill="#197F61" id="SSp-ul2/3" d="m311 40 14 5 2-12-4-2h-1c0 4.124-11 6.505-11 8v1Z"/><path fill="#188060" id="SSp-bfd1" d="M56 87h1c0-3.56 10.057-13.557 13-16.5 9.935-9.935 36.318-32.5 49-32.5v-1c-2.461 0-2-3.378-2-5l-12.5 6C92.529 43.986 69.306 57.888 63 70.5 61.474 73.552 52 81.137 52 84l4 3Z"/><path fill="#197F60" id="SSp-tr5" d="M183 46c-5.271 0-10.322 5-16 5-1.046 0-14-7.365-14-8l28-11c0 3.982 2 8.748 2 13v1Z"/><path fill="#1BA597" id="RSPv1" d="M229 77c0 1.473 1.952 1 3 1l1-43v-1l-4-2c0 1.93-1.161 0-2 0l-4 2v1c0 14.091 1 27.89 1 43 1.048 0 3 .473 3-1 0-3.15 2-3.446 2 0Z"/><path fill="#1C7F63" id="SSp-un2/3" d="M131 45c0 1.29-7.597 4-9 4l-3-11v-1l10-4c0 3.956 2 7.497 2 12ZM325 46l9 3c0-1.747 3.591-11 4-11v-1c-4.349 0-6.918-4-11-4l-2 12v1Z"/><path fill="#188060" id="SSp-bfd1" d="M400 88h1c0-2.618 3-1.65 3-4 0-3.236-11.19-14.69-14-17.5C379.705 56.205 353.67 33 340 33l-2 4v1c4.568 0 9.58 4.04 13.5 6 10.707 5.354 32.649 18.797 38.5 30.5 2.266 4.531 10 8.199 10 13.5Z"/><path fill="#1AA597" id="RSPv2/3" d="M221 77c0 1.473 1.952 1 3 1 0-15.11-1-28.909-1-43l-6 2v1c0 3.812.907 29.313 2 31.5.946 1.892 2 5.372 2 7.5ZM236 77c0 1.58-2.855 1-4 1l1-43c2.72 0 3.553 2 6 2v1c0 13.583-3 26.165-3 39Z"/><path fill="#187F63" id="SSp-bfd2/3" d="M57 87c0 1.852 4.927 8 7 8l3-5.5 12-15c3.141-6.283 36.771-25.5 43-25.5l-3-11c-12.682 0-39.065 22.565-49 32.5-2.943 2.943-13 12.94-13 16.5Z"/><path fill="#1BA498" id="RSPv5" d="M215 75c1.714 0 3.482 2 6 2 0-2.128-1.054-5.608-2-7.5-1.093-2.187-2-27.688-2-31.5-4.109 0-6.58 9-10 9v1c0 8.177 6 18.802 6 25l2 2ZM241 75c-1.624 0-2.75 2-5 2 0-12.835 3-25.417 3-39 3.986 0 6.415 8 10 8v2c0 8.317-4 15.11-4 23l-1 1-3 3Z"/><path fill="#187F63" id="SSp-bfd2/3" d="M392 96h1c0-1.362 5.753-8 7-8 0-5.301-7.734-8.969-10-13.5-5.851-11.703-27.793-25.146-38.5-30.5-3.92-1.96-8.932-6-13.5-6-.409 0-4 9.253-4 11 9.828 0 42.05 20.6 47 30.5 2.72 5.44 11 10.115 11 16.5Z"/><path fill="#1AA697" id="RSPd6a" d="M195 55c2.25 0 3.376 2 5 2l7-9v-1c0-8.503-5.149-7-11-7l-1 1v14ZM261 55h1c0-4.143-1-9.959-1-15-4.647 0-12-1.836-12 6v2l7 9 5-2Z"/><path fill="#1A7F63" id="SSp-ul4" d="M133 51h1c4.465 0 7.401-5 12-5v-1l-1-5-13 5 1 6Z"/><path fill="#1C7F64" id="SSp-ll4" d="M151 43c0 1.638-3.576 2-5 2l-1-5 6 3Z"/><path fill="#1CA597" id="RSPagl6a" d="m196 40-1 1v-1h1ZM270 59h1c0-5.105 2-8.035 2-13v-1l-12-5c0 5.041 1 10.857 1 15l8 4Z"/><path fill="#1C7F64" id="SSp-ll4" d="m306 43 4 2c1.643 0 1-3.766 1-5-2.554 0-3.688 3-5 3Z"/><path fill="#1A7F63" id="SSp-ul4" d="M325 46c-1.014 0-2 3.959-2 5l-12-5-1-1c1.643 0 1-3.766 1-5l14 5v1Z"/><path fill="#1CA597" id="RSPagl6a" d="m191 57-5 1-3-12v-1c4.649 0 7.09-4 12-4v14l-4 2Z"/><path fill="#197C63" id="SSp-ll5" d="m167 52-19 5c0-3.186-2-7.891-2-11v-1c1.424 0 5-.362 5-2h2c0 .635 12.954 8 14 8v1ZM308 57h1c0-3.981 2-8.05 2-11l-1-1-4-2h-2c0 1.61-13.282 8-14 8 0 2.729 5.007 1.254 6.5 2 3.326 1.663 7.592 4 11.5 4Z"/><path fill="#197E61" id="SSp-un4" d="m133 51-8 5-3-7c1.403 0 9-2.71 9-4h1l1 6Z"/><path fill="#187E62" id="SSp-ul5" d="M148 57c-3.802 0-7.776 5-12 5 0-3.378-2-6.922-2-11 4.465 0 7.401-5 12-5 0 3.109 2 7.814 2 11Z"/><path fill="#188063" id="SSp-tr6a" d="m186 59-7 1c-4.164 0-8.171-8-12-8v-1c5.678 0 10.729-5 16-5l3 12v1ZM277 61h1c0-4.799 11-7.163 11-10-5.602 0-10.663-5-16-5 0 4.965-2 7.895-2 13 1.357 0 6 .647 6 2Z"/><path fill="#187E62" id="SSp-ul5" d="M320 63h1c0-4.44 2-7.927 2-11v-1l-12-5c0 2.95-2 7.019-2 11 0 3.083 11 2.375 11 6Z"/><path fill="#197E61" id="SSp-un4" d="M331 56h1l2-7-9-3c-1.014 0-2 3.959-2 5v1l8 4Z"/><path fill="#1AA498" id="RSPv6a" d="m209 69 4 4c0-6.198-6-16.823-6-25l-7 9v1c2.359 0 9 9.026 9 11ZM248 68l-3 3c0-7.89 4-14.683 4-23l7 9v1c-1.577 0-2 1.762-2 3-1.988 0-6 5.237-6 7Z"/><path fill="#197C64" id="SSp-bfd4" d="M69 101h1c0-4.677 8.962-8.424 11-12.5 3.702-7.404 22.022-19.261 30.5-23.5 3.823-1.912 9.181-8 13.5-8v-1l-3-7c-6.229 0-39.859 19.217-43 25.5l-12 15-3 5.5v1c1.657 0 5 3.452 5 5ZM392 96c-1.53 0-3.216 4-6 4 0-3.317-6.032-5.563-7-7.5-4.539-9.078-22.458-22.479-32.5-27.5-2.452-1.226-14.5-5.513-14.5-9l2-7c9.828 0 42.05 20.6 47 30.5 2.72 5.44 11 10.115 11 16.5Z"/><path fill="#197D62" id="SSp-un5" d="m136 63-7 2-4-8v-1l8-5h1c0 4.078 2 7.622 2 11v1Z"/><path fill="#1A7F64" id="SSp-ll6a" d="M278 61c9.465 0 20.27 9 29 9l1-13c-3.908 0-8.174-2.337-11.5-4-1.493-.746-6.5.729-6.5-2h-1c0 2.837-11 5.201-11 10ZM179 61c-8.575 0-22.249 9-29 9 0-3.451-2-8.171-2-13l19-5c3.829 0 7.836 8 12 8v1Z"/><path fill="#197D62" id="SSp-un5" d="M327 66h1c0-3.989 3-6.011 3-10l-8-4c0 3.073-2 6.56-2 11l6 3Z"/><path fill="#1AA598" id="RSPagl6b" d="M191 57h4v-2l-4 2Z"/><path fill="#1BA698" id="RSPd6b" d="M199 58h1v-1c-1.624 0-2.75-2-5-2v2c1.145 0 4-.58 4 1ZM256 58h1l4-1v-2l-5 2v1Z"/><path fill="#1AA598" id="RSPagl6b" d="M261 57c3.736 0 5.264 2 9 2l-8-4h-1v2Z"/><path fill="#1A7D62" id="SSp-bfd5" d="M377 109h1l8-8v-1c0-3.317-6.032-5.563-7-7.5-4.539-9.078-22.458-22.479-32.5-27.5-2.452-1.226-14.5-5.513-14.5-9h-1c0 3.989-3 6.011-3 10l14.5 9c7.541 3.77 34.5 26.192 34.5 34ZM70 101c2.567 0 4.794 7 9 7l10.5-13c8.914-8.914 18.532-16.766 29-22l10.5-7v-1l-4-8c-4.319 0-9.677 6.088-13.5 8-8.478 4.239-26.798 16.096-30.5 23.5-2.038 4.076-11 7.823-11 12.5Z"/><path fill="#197D61" id="SSp-ul6a" d="m150 70-11 5c-.892 0-3-10.544-3-12v-1c4.224 0 8.198-5 12-5 0 4.829 2 9.549 2 13Z"/><path fill="#1AA598" id="RSPagl6b" d="M186 59v1c1.076 0 5-1.523 5-3l-5 1v1Z"/><path fill="#CACCC7" id="cing" d="m213 73 2 2c-7.532 0-15.114-7.807-21.5-11-7.661-3.83-19.273 4-26.5 4l-1 1h-2l-3-1c0-1.951 2.454-.477 3.5-1l12-4 3.5-2c2.124 0 4.436-1 6-1 1.076 0 5-1.523 5-3h4c1.145 0 4-.58 4 1l10 11 4 4ZM244 72l-3 3c7.66 0 15.979-7.74 22.5-11 7.279-3.64 18.552 4 25.5 4l1 1h2l3-1c0-1.951-2.454-.477-3.5-1-3.978-1.989-9.894-5-14.5-5-1.147 0-7-1.733-7-3-3.736 0-5.264-2-9-2l-4 1-3 3c0 1.763-4.012 7-6 7l-3 3-1 1Z"/><path fill="#197D61" id="SSp-ul6a" d="M317 76h1c0-4.929 2-9.328 2-13 0-3.625-11-2.917-11-6h-1l-1 13v1c1.779 0 10 3.465 10 5Z"/><path fill="#1AA497" id="RSPv6b" d="M200 58c2.359 0 9 9.026 9 11l-10-11h1ZM257 58l-3 3c0-1.238.423-3 2-3h1Z"/><path fill="#1A8063" id="SSp-tr6b" d="M179 61h1c2.124 0 4.436-1 6-1v-1l-7 1v1ZM277 61v1c-1.147 0-7-1.733-7-3h1c1.357 0 6 .647 6 2Z"/><path fill="#197F62" id="SSp-ll6b" d="M150 70v2c3.378 0 7.085-4 11-4 0-1.951 2.454-.477 3.5-1l12-4 3.5-2h-1c-8.575 0-22.249 9-29 9Z"/><path fill="#1AA497" id="RSPv6b" d="M254 61c-1.988 0-6 5.237-6 7 1.988 0 6-5.237 6-7Z"/><path fill="#197F62" id="SSp-ll6b" d="M306 71h1v-1c-8.73 0-19.535-9-29-9h-1v1c4.606 0 10.522 3.011 14.5 5 1.046.523 3.5-.951 3.5 1l11 3Z"/><path fill="#1A7F61" id="SSp-un6a" d="M132 80h1l6-4v-1c-.892 0-3-10.544-3-12l-7 2v1c0 5.062 3 8.907 3 14ZM318 76l6 3c0-4.42 3-9.238 3-13l-6-3h-1c0 3.672-2 8.071-2 13Z"/><path fill="#C9C7C9" id="ccb" d="M381 169h4v-2l-1-2v-2l-1-2v-2c-1.3 0-5.974-13.448-7-15.5-4.776-9.553-17.703-32.601-25.5-36.5-11.31-5.655-24.372-21.686-37-28L292 69h-2l-1-1c-6.948 0-18.221-7.64-25.5-4-6.521 3.26-14.84 11-22.5 11-1.624 0-2.75 2-5 2 0 1.58-2.855 1-4 1-1.048 0-3 .473-3-1h-2c0 1.473-1.952 1-3 1s-3 .473-3-1c-2.518 0-4.286-2-6-2-7.532 0-15.114-7.807-21.5-11-7.661-3.83-19.273 4-26.5 4l-1 1h-2l-11 5.5-13.5 6.5c-8.057 4.028-14.006 12.003-22 16-7.55 3.775-26.536 25.572-30.5 33.5-.93 1.86-7.269 14.5-8 14.5l-1 2c0 1.697-.725 8-3 8 0 1.048.473 3-1 3 0 1.048.473 3-1 3v1c0 1.048.473 3-1 3v4h4c0-18.748 14.346-38.846 27-51.5 6.874-6.874 13.232-14.5 23-14.5 0-3.643 14.723-17 18-17l1-1c0-1.617 4.583-4 6-4 0-4.538 10.336-6.418 13.5-8 10.466-5.233 21.383-7.309 32-2 3.155 1.577 12.495 12 16.5 12 5.086 0 13.794 4.353 18.5 2 3.19-1.595 7.707-2 11.5-2h2c0-1.577 1.762-2 3-2 0-1.577 1.762-2 3-2 0-2.177 4.336-4 6-4 0-4.833 9.355-5.428 12.5-7 7.782-3.89 27.007 7.503 34 11 2.198 1.1 8.5 4.56 8.5 7 2.685 0 19 13.838 19 17 8.384 0 9.729 5.615 16.5 9 12.625 6.312 33.5 43.562 33.5 57Z"/><path fill="#198060" id="SSp-bfd6a" d="m96 111-6 7c-3.994 0-6.829-9-11-9v-1l10.5-13c8.914-8.914 18.532-16.766 29-22l10.5-7c0 5.062 3 8.907 3 14-3.231 0-13 8.451-13 11-1.747 0-2 .253-2 2-1.238 0-3 .423-3 2-1.562 0-5 2.189-5 4-1.747 0-2 .253-2 2l-2 2-2 2c-1.763 0-7 4.012-7 6ZM366 119h1l10-10c0-7.808-26.959-30.23-34.5-34L328 66h-1c0 3.762-3 8.58-3 13v1c3.774 0 10.692 7.192 13.5 10 5.915 5.915 28.5 21.427 28.5 29Z"/><path fill="#C7C8CC" id="alv" d="m213 83 4 4c-4.174 0-23.117-14.308-28.5-17-7.847-3.924-23.64 7-30.5 7l-4 3-3 1c0-4.538 10.336-6.418 13.5-8 10.466-5.233 21.383-7.309 32-2 3.155 1.577 12.495 12 16.5 12ZM310 99c-1.573 0-10.27 8-17 8 0-1.845 3.381-1.441 4.5-2 3.981-1.99 11.17-5.84 13.5-10.5 3.859-7.719-8-10.488-8-14.5l-4-2c0-2.535-5.958-2.23-7.5-3-4.433-2.216-17.343-7.829-23-5L257 75c0-4.833 9.355-5.428 12.5-7 7.782-3.89 27.007 7.503 34 11 2.198 1.1 8.5 4.56 8.5 7 0 2.014 2.284 5.932 1 8.5l-3 4.5Z"/><path fill="#C9C9CA" id="scwm" d="m81 137-2 8c.731 0 7.07-12.64 8-14.5 3.964-7.928 22.95-29.725 30.5-33.5 7.994-3.997 13.943-11.972 22-16l13.5-6.5 11-5.5-3-1c-3.915 0-7.622 4-11 4l-11 5-6 4c-5.313 0-9.164 10-14 10 0 1.747-.253 2-2 2 0 1.577-1.762 2-3 2 0 1.811-3.438 4-5 4 0 1.747-.253 2-2 2 0 1.747-.253 2-2 2 0 1.747-.253 2-2 2 0 1.988-5.237 6-7 6 0 1.717-3.453 8-5 8 0 1.72-6.278 12.778-7.5 14l-2.5 4ZM167 68l-1 1 1-1ZM289 68l1 1-1-1ZM365 119c0 4.285 4.616 5.733 6 8.5 3.242 6.484 12 24.67 12 31.5-1.3 0-5.974-13.448-7-15.5-4.776-9.553-17.703-32.601-25.5-36.5-11.31-5.655-24.372-21.686-37-28L292 69l3-1 11 3c0 1.063 9.548 6 11 6 2.46 0 4.17 4 7 4 .99 0 10.635 8.135 12 9.5 5.198 5.198 29 23.538 29 28.5Z"/><path fill="#1C8064" id="SSp-ul6b" d="M139 76v1l11-5v-2l-11 5v1Z"/><path fill="#7ECF4B" id="CA1" d="m218 87 1 1c0 3.148-12.616 3-15.5 3-10.387 0-24.09-5.545-33-10-1.934-.967-12.5-1.309-12.5-4 6.86 0 22.653-10.924 30.5-7 5.383 2.692 24.326 17 28.5 17h1ZM237 88v1c8.531 0 18.784 4.358 27.5 0 7.628-3.814 25.982-11 34.5-11 0-2.535-5.958-2.23-7.5-3-4.433-2.216-17.343-7.829-23-5L257 75c0 2.177-4.336 4-6 4 0 1.577-1.762 2-3 2 0 1.577-1.762 2-3 2 0 1.577-1.762 2-3 2l-1 1-2 1-2 1Z"/><path fill="#1AA498" id="RSPv6a" d="m245 71-1 1 1-1Z"/><path fill="#1C8064" id="SSp-ul6b" d="M317 76v1c-1.452 0-11-4.937-11-6h1c1.779 0 10 3.465 10 5Z"/><path fill="#C7C8CC" id="alv" d="M257 75c-1.664 0-6 1.823-6 4 1.664 0 6-1.823 6-4Z"/><path fill="#1A7D63" id="SSp-un6b" d="M133 80v1l6-4v-1l-6 4ZM324 80v1c-2.83 0-4.54-4-7-4v-1h1l6 3v1Z"/><path fill="#7DCF4B" id="CA2" d="M223 89v1c0 4.174-9.219 2.86-11.5 4-8.931 4.466-34.997-5.998-43-10-1.535-.768-8.046-3-9.5-3-1.235 0-5 .643-5-1l4-3c0 2.691 10.566 3.033 12.5 4 8.91 4.455 22.613 10 33 10 2.884 0 15.5.148 15.5-3l3 1h1ZM233 90v1c2.029 0 1.881 1.19 3.5 2 5.247 2.623 22.738 2.63 28 0 7.272-3.636 30.805-13 38.5-13l-4-2c-8.518 0-26.872 7.186-34.5 11-8.716 4.358-18.969 0-27.5 0h-3l-1 1Z"/><path fill="#C7C8CC" id="alv" d="M251 79c-1.238 0-3 .423-3 2 1.238 0 3-.423 3-2Z"/><path fill="#1A7E61" id="SSp-bfd6b" d="M133 81c-5.313 0-9.164 10-14 10 0-2.549 9.769-11 13-11h1v1Z"/><path fill="#7ECF49" id="CA3" d="M188 113h12c0-2.17 4-4.076 4-8-2.635 0-12 .392-12-3 0-9.026 17.268-5 25-5h1l2-1c0-1.473 1.952-1 3-1l1-1v-4h-1c0 4.174-9.219 2.86-11.5 4-8.931 4.466-34.997-5.998-43-10-1.535-.768-8.046-3-9.5-3-1.235 0-5 .643-5-1l-3 1c0 3.698-9.027 7.445-6 13.5 4.082 8.163 33.833 18.5 42 18.5h1ZM269 113h4c0-2.125 16.896-6 20-6 0-1.845 3.381-1.441 4.5-2 3.981-1.99 11.17-5.84 13.5-10.5 3.859-7.719-8-10.488-8-14.5-7.695 0-31.228 9.364-38.5 13-5.262 2.63-22.753 2.623-28 0-1.619-.81-1.471-2-3.5-2-2.56 0 0 3.334 0 4 1.048 0 3-.473 3 1h1c5.361 0 12.004 1 18 1l6.5-1c1.247.624 5.077 6 2.5 6 0 4.046-9.286 3-12 3 0 3.482 4 5.416 4 8h13Z"/><path fill="#1A7E61" id="SSp-bfd6b" d="M365 119h1c0-7.573-22.585-23.085-28.5-29-2.808-2.808-9.726-10-13.5-10v1c.99 0 10.635 8.135 12 9.5 5.198 5.198 29 23.538 29 28.5Z"/><path fill="#C7C8CC" id="alv" d="M184 114h2l1-1c-8.167 0-37.918-10.337-42-18.5-3.027-6.055 6-9.802 6-13.5-1.417 0-6 2.383-6 4l-1 1-1 7.5 3 5.5 6.5 5 16.5 5.5-1 2.5c2.806 0 16-.155 16 2ZM248 81c-1.238 0-3 .423-3 2 1.238 0 3-.423 3-2Z"/><path fill="#C9CCC9" id="dhc" d="M234 89h1l2-1 2-1 2-1 1-1 1-2c-3.793 0-8.31.405-11.5 2-4.706 2.353-13.414-2-18.5-2l4 4h1l4 2h12Z"/><path fill="#C7C8CC" id="alv" d="M245 83c0 1.577-1.762 2-3 2l1-2h2Z"/><path fill="#1A7E62" id="SSs1" d="m28 159 6 1c0-17.245 3.798-36.095 11-50.5C46.284 106.932 56 88 56 87l-4-3-12 20.5c-7.63 15.259-12 36.339-12 54.5ZM428 159l-5 1c0-16.91-4.871-37.242-12-51.5-1.715-3.431-10-17.726-10-20.5 0-2.618 3-1.65 3-4 1.236 0 8.992 14.484 10 16.5 8.755 17.511 14 37.45 14 58.5Z"/><path fill="#A8AAAA" id="VL" d="m145 85-1 1 1-1Z"/><path fill="#C7C8CC" id="alv" d="m242 85-1 1 1-1Z"/><path fill="#A8AAAA" id="VL" fill-rule="evenodd" d="M135 95c0 3.835-1.928 2.644 0 6.5l-1 11c1.269 2.538 6.381-2.763 7-4 2.52-5.039-.121-13.5-6-13.5m-2 28 1 2c.552 0 2.446-8.392 3-9.5l8-7c1.587-3.174-5.614-9.5 1-9.5l-3-5.5 1-7.5c-3.277 0-18 13.357-18 17 6.06 0 7 14.759 7 20Z"/><path fill="#C7C8CC" id="alv" d="m241 86-2 1 2-1Z"/><path fill="#A8AAAA" id="VL" fill-rule="evenodd" d="M318 95c0 2.42-3 3.71-3 6.5 0 3.087 4.04 17.921 8 10l-2-7 2-7c-1.059-2.117-2.951-2.5-5-2.5m4 32h1c0-6.185.407-24 8-24 0-3.162-16.315-17-19-17 0 2.014 2.284 5.932 1 8.5l-3 4.5c6.697 0-.214 6.072 1 8.5 3.83 7.659 11 9.236 11 19.5Z"/><path fill="#1B8063" id="SSs2/3" d="M41 161h1c0-15.338 6.523-33.545 13-46.5L64 96v-1c-2.073 0-7-6.148-7-8h-1c0 1-9.716 19.932-11 22.5-7.202 14.405-11 33.255-11 50.5l7 1Z"/><path fill="#C7C8CC" id="alv" d="m219 88 3 1-4-2 1 1ZM239 87l-2 1 2-1ZM235 89h2v-1l-2 1Z"/><path fill="#1B8063" id="SSs2/3" d="m423 160-8 1c0-11.968-8.808-37.116-14-47.5-2.297-4.595-8-12.309-8-17.5 0-1.362 5.753-8 7-8h1c0 2.774 8.285 17.069 10 20.5 7.129 14.258 12 34.59 12 51.5Z"/><path fill="#C7C8CC" id="alv" d="M223 90h1v-1h-1v1Z"/><path fill="#7DCD4B" id="HPF" d="M224 94h3c0-2.25-2-3.376-2-5h-1v5ZM229 95h4c0-.666-2.56-4 0-4v-1l-1-1h-1c0 1.974-2 3.517-2 6Z"/><path fill="#C7C8CC" id="alv" d="m234 89-1 1-1-1h2Z"/><path fill="#1A7E61" id="SSp-bfd6b" d="M119 91c-1.747 0-2 .253-2 2 1.747 0 2-.253 2-2ZM117 93c-1.238 0-3 .423-3 2 1.238 0 3-.423 3-2Z"/><path fill="#7DCD4B" id="HPF" d="m224 94-1 1 1-1Z"/><path fill="#7BD04A" id="DG-mo" d="M201 125h2l1-1h2l1-1h2c0-1.988 5.237-6 7-6l1-1c0-1.562 2.189-5 4-5v-1l1-1 1-1v-1l1-1v-1l1-1v-1l1-2v-1l1-1v-5h-3l-1 1c-1.048 0-3-.473-3 1 4.792 0-2.025 7.55-3 9.5-4.512 9.025-13.491 15.004-22.5 10.5-1.428-.714-6.5-.622-6.5-3h-1l-1 1v3c3.207 0 6.277 6 10 6l3 1 2 1ZM254 125h1l2-1h2l1-1c4.015 0 6.81-6 10-6l1-1v-1l-1-1h-1c-10.22 0-10.041 6.73-21.5 1-4.747-2.374-9.439-10.378-11.5-14.5-.387-.774-2.186-4.5 0-4.5 0-1.473-1.952-1-3-1h-4l1 4v1l1 1v2l2 3v1l2 2v1l13 13h1l1 1h2l2 1Z"/><path fill="#1A7E61" id="SSp-bfd6b" d="M114 95c-1.562 0-5 2.189-5 4 1.562 0 5-2.189 5-4Z"/><path fill="#A9AAA8" id="chpl" d="M135 95c0 3.835-1.928 2.644 0 6.5l-1 11c1.269 2.538 6.381-2.763 7-4 2.52-5.039-.121-13.5-6-13.5ZM318 95c0 2.42-3 3.71-3 6.5 0 3.087 4.04 17.921 8 10l-2-7 2-7c-1.059-2.117-2.951-2.5-5-2.5Z"/><path fill="#187C63" id="SSs4" d="M46 163h1c0-14.434 7.83-37.158 14-49.5 1.824-3.648 8-8.353 8-12.5 0-1.548-3.343-5-5-5l-9 18.5c-6.477 12.955-13 31.162-13 46.5l4 2Z"/><path fill="#7BD04A" id="DG-mo" d="M217 97c-7.732 0-25-4.026-25 5 4.202 0 25 2.261 25-5ZM220 96l-2 1 2-1Z"/><path fill="#65A83D" id="DG-sg" d="M188 113h12c4.483 0 6.86-2.36 10-5.5.717-.717 4.474-3.513 2.5-4.5-.652-.326-6.561 2-8.5 2-2.635 0-12 .392-12-3 4.202 0 25 2.261 25-5h1l2-1c4.792 0-2.025 7.55-3 9.5-4.512 9.025-13.491 15.004-22.5 10.5-1.428-.714-6.5-.622-6.5-3ZM269 113v1c-10.22 0-10.041 6.73-21.5 1-4.747-2.374-9.439-10.378-11.5-14.5-.387-.774-2.186-4.5 0-4.5h1l3.5 2c10.777 5.389 11.773 4 23.5 4 0 4.046-9.286 3-12 3-2.45 0-6.774-2.863-8.5-2l2 4c3.219 1.61 5.691 6 10.5 6h13Z"/><path fill="#7BD04A" id="DG-mo" d="M237 96c5.361 0 12.004 1 18 1l6.5-1c1.247.624 5.077 6 2.5 6-11.727 0-12.723 1.389-23.5-4l-3.5-2Z"/><path fill="#187C63" id="SSs4" d="m415 161-5 2-3-10.5-2-14c-3.874-7.748-6.08-16.16-10-24-1.23-2.459-5.38-13.5-9-13.5v-1c2.784 0 4.47-4 6-4h1c0 5.191 5.703 12.905 8 17.5 5.192 10.384 14 35.532 14 47.5Z"/><path fill="#1A7E61" id="SSp-bfd6b" d="M109 99c-1.747 0-2 .253-2 2 1.747 0 2-.253 2-2Z"/><path fill="#CBC8CB" id="fi" d="M134 130c2.561 0 5.324 3 9 3 0-.855 13.399-16 16-16 0-2.109 2.535-2 4-2l5-3 1-2.5-16.5-5.5-6.5-5c-6.614 0 .587 6.326-1 9.5l-8 7c-.554 1.108-2.448 9.5-3 9.5v5Z"/><path fill="#A8A9AA" id="V3" d="M224 107c2.612 0 2.205 4 4.5 4 .748 0 2.104-4 4.5-4v-1c-1.577 0-2-1.762-2-3v-2l-1-1v-1h-3l-1 1v1l-1 2v1l-1 1v2Z"/><path fill="#CBC8CB" id="fi" d="M322 130c0 3.01-6.675 3-9 3 0-4.806-19.716-21-25-21 0-3.989 5-3.123 5-5 6.73 0 15.427-8 17-8 6.697 0-.214 6.072 1 8.5 3.83 7.659 11 9.236 11 19.5v3Z"/><path fill="#1C8063" id="SSs5" d="M47 163c4.636 0 8.92 2 13 2 0-10.443 4.59-29.679 9-38.5 1.439-2.877 10-15.435 10-17.5v-1c-4.206 0-6.433-7-9-7h-1c0 4.147-6.176 8.852-8 12.5-6.17 12.342-14 35.066-14 49.5Z"/><path fill="#1A7E61" id="SSp-bfd6b" d="m107 101-2 2c1.747 0 2-.253 2-2Z"/><path fill="#1C8063" id="SSs5" d="M410 163c-5.333 0-8.527 1-13 1 0-7.597-6.68-31.859-10-38.5-1.634-3.268-9-13.563-9-16.5l8-8c3.62 0 7.77 11.041 9 13.5 3.92 7.84 6.126 16.252 10 24l2 14 3 10.5Z"/><path fill="#1A7E61" id="SSp-bfd6b" d="m105 103-2 2c1.747 0 2-.253 2-2Z"/><path fill="#98D5F9" id="CP" d="m87 209 7 3c5.544 0 21 2.153 21-7.5 0-2.564-2-5.371-2-8.5 0-5.155-4.713-14.073-2-19.5l5-16.5c0-7.652-7.799-29 8-29 2.409 0 5.181-1 7-1l1-1c0-1.564 1-3.876 1-6 0-5.241-.94-20-7-20-9.768 0-16.126 7.626-23 14.5-12.654 12.654-27 32.752-27 51.5 0 8.06-.808 17.883 3 25.5l6 13.5 2 1Z"/><path fill="#7ECE4A" id="DG-po" d="M204 105c1.939 0 7.848-2.326 8.5-2 1.974.987-1.783 3.783-2.5 4.5-3.14 3.14-5.517 5.5-10 5.5 0-2.17 4-4.076 4-8ZM252 105c-2.45 0-6.774-2.863-8.5-2l2 4c3.219 1.61 5.691 6 10.5 6 0-2.584-4-4.518-4-8Z"/><path fill="#98D5F9" id="CP" d="m363 212-1 1c-7.279 0-16.627.245-20-6.5l1-9.5v-2l1-1c0-8.006 2.764-16.972-1-24.5-.84-1.68-.504-9.5-3-9.5 0-3.235 1.684-4.867 3-7.5 2.191-4.382-1.683-19.592-5.5-21.5H333c-2.707 0-5.903-1-8-1l-2-3c0-6.185.407-24 8-24 8.384 0 9.729 5.615 16.5 9 12.625 6.312 33.5 43.562 33.5 57 0 6.595.763 15.974-2 21.5l-8 17.5-1 1-7 3Z"/><path fill="#1A7E61" id="SSp-bfd6b" d="M103 105c-1.763 0-7 4.012-7 6 1.763 0 7-4.012 7-6Z"/><path fill="#A9AAA8" id="chpl" d="m224 125 2.5 5c3.269 1.634 3.957-3 5.5-3v-3l1-1v-2l1-1 1-3c0-3.423-2-6.474-2-9v-1c-2.396 0-3.752 4-4.5 4-2.295 0-1.888-4-4.5-4h-1v2l-1 1-1 2v5l2 3v2l1 1v2Z"/><path fill="#C7C8CC" id="alv" d="m288 112-15 1c0-2.125 16.896-6 20-6 0 1.877-5 1.011-5 5Z"/><path fill="#A8A9AA" id="V3" d="m236 115-1 2c0-3.423-2-6.474-2-9l2 1v1l1 5Z"/><path fill="#197D63" id="SSs6a" d="m60 165 10 1c2.049 0 1.645-15 5-15 0-2.252 3.596-14 6-14 0-7.186 9-12.98 9-18v-1c-3.994 0-6.829-9-11-9 0 2.065-8.561 14.623-10 17.5-4.41 8.821-9 28.057-9 38.5Z"/><path fill="#A8A9AA" id="V3" d="m223 109-1 1v-1h1Z"/><path fill="#197D63" id="SSs6a" d="m397 165-11 1c0-10.058-8.555-28.61-13-37.5-1.818-3.636-6-4.843-6-9.5l10-10h1c0 2.937 7.366 13.232 9 16.5 3.32 6.641 10 30.903 10 38.5v1Z"/><path fill="#A8A9AA" id="V3" d="M221 111v1l1-2h-1v1Z"/><path fill="#1A7E61" id="SSp-bfd6b" d="M90 119h1c1.547 0 5-6.283 5-8l-6 7v1Z"/><path fill="#FF909D" id="LD" d="M167 144c5.896 0 9.38 7 16 7 5.728 0 14-20.304 14-26l-1-2c-3.723 0-6.793-6-10-6-1.618 0-7.764-3.132-9.5-4-3.643-1.821-9.84 2-13.5 2l-4 2c0 3.585-8 6.014-8 10l-1 1 1 5c1.429 0 4 1.288 4 3l1 1c3.971 0 6.693 6 10 6l1 1Z"/><path fill="#A8A9AA" id="V3" d="m220 115 1 1v-3l-1 2Z"/><path fill="#C7C8CC" id="alv" d="M270 114h2l1-1h-4v1h1Z"/><path fill="#FF909D" id="LD" d="M290 143h1l1-1 1-1c2.46 0 4.17-4 7-4l1-1 1-1 3-2c0-.979 1-2.61 1-6l-3-4.5c-1.701-3.402-7.562-6.031-10.5-7.5-8.811-4.405-14.095 1-21.5 1l-1 1c-3.19 0-5.985 6-10 6l-1 1v1c0 4.545 9.398 26 14 26 6.928 0 11.024-8 17-8Z"/><path fill="#7DCD4B" id="HPF" d="M186 114v2l-2-2h2ZM272 114l-1 1-1-1h2Z"/><path fill="#FF8D9F" id="MH" d="M220 135h1l3-2v-10l-1-1v-2c-1.577 0-2-1.762-2-3v-1l-1-1-3 1-1 1-4 7c0 1.998 5.73 11 8 11ZM236 135h1l8-10v-1c-2.625 0-4.428-9-9-9l-1 2-1 3-1 1v2l-1 1v10l4 1Z"/><path fill="#A8A9AA" id="V3" d="m221 117 2 3c-1.577 0-2-1.762-2-3Z"/><path fill="#1A8061" id="SSs6b" d="M91 119c0 1.72-6.278 12.778-7.5 14l-2.5 4c0-7.186 9-12.98 9-18h1ZM385 167h1v-1c0-10.058-8.555-28.61-13-37.5-1.818-3.636-6-4.843-6-9.5h-2c0 4.285 4.616 5.733 6 8.5 3.242 6.484 12 24.67 12 31.5v2l1 2v2l1 2Z"/><path fill="#A8A9AA" id="V3" d="m234 120-1 1 1-1ZM223 122l1 1-1-1Z"/><path fill="#FF6F80" id="TH" d="M201 125c0 1.747-.253 2-2 2 0-1.747-.253-2-2-2l-1-2 3 1 2 1Z"/><path fill="#CCC9C8" id="sm" d="M199 127c0 3.238 3 5.3 3 8 1.962 0 9-8.92 9-11l-2-1h-2l-1 1h-2l-1 1h-2c0 1.747-.253 2-2 2Z"/><path fill="#A8A9AA" id="V3" d="m233 123-1 1 1-1Z"/><path fill="#CCC9C8" id="sm" d="M257 127c0 1.93-.84 8-3 8l-9-10v-1c0-1.473 1.952-1 3-1h1l1 1h2l2 1h1l2 2Z"/><path fill="#FF8F9D" id="LH" d="M218 137h1l1-1v-1c-2.27 0-8-9.002-8-11h-1c0 2.08-7.038 11-9 11v1l5.5 3c3.444 1.722 7.47-2 10.5-2Z"/><path fill="#FF6F80" id="TH" d="M257 125h2v-1h-2v1Z"/><path fill="#FD8F9D" id="CL" d="M187 159h9c0-5.017-1.115-12.27 1-16.5.761-1.522 5-5.784 5-6.5v-1c0-2.7-3-4.762-3-8 0-1.747-.253-2-2-2 0 5.696-8.272 26-14 26 0 1.937 1.553 8 4 8Z"/><path fill="#A8A9AA" id="V3" d="M224 133c0 3.489 8 3.275 8 1v-7c-1.543 0-2.231 4.634-5.5 3l-2.5-5v8Z"/><path fill="#FF8F9D" id="LH" d="M237 137h1c3.101 0 7.402 3.549 10.5 2l5.5-3v-1l-9-10-8 10v2Z"/><path fill="#FF6F80" id="TH" d="M257 125v2l-2-2h2Z"/><path fill="#FD8F9D" id="CL" d="M261 159h8c3.291 0 4-5.683 4-8-4.602 0-14-21.455-14-26h-2v2c0 1.93-.84 8-3 8v1c6.552 0 7 17.442 7 23Z"/><path fill="#FF6F80" id="TH" d="m151 127-1 1 1-1ZM305 133h5l-4-6c0 3.39-1 5.021-1 6ZM146 133h5l-1-5-4 5Z"/><path fill="#97D6F9" id="STR" d="M131 130h1v-1l-1 1ZM125 135h4v-1l1-1 1-3c-1.819 0-4.591 1-7 1 0 1.145-.579 4 1 4Z"/><path fill="#CAC7CB" id="fiber tracts" d="M125 135h4c0 11.844 15.963 2.231 7.5-2H130l1-3h3c2.561 0 5.324 3 9 3l2 1c0 4.32-5.228 11-10 11 0-1.284-10-4.465-10-10Z"/><path fill="#CAC7CB" id="fiber tracts" fill-rule="evenodd" d="M320 133c0 1.465-4.394 1.711-3 4.5 4.721 9.441 19.211-4.5 3-4.5m12 2c0 5.25-11 7.427-11 10-4.137 0-10-7.227-10-11l2-1c2.325 0 9 .01 9-3h3c0 3.616 3.953 5 7 5Z"/><path fill="#97D6F9" id="STR" d="m333 131-1 4c-3.047 0-7-1.384-7-5 2.097 0 5.293 1 8 1Z"/><path fill="#CCC" d="M167 211c-4.08 0-4-3.734-4 2-2.431 0-5.064-5.282-6.5-6-6.717-3.358-16.688-7.688-21.5-12.5l-7-11.5-1-1c0-5.49-3.092-22-11-22 0-7.652-7.799-29 8-29 0 1.145-.579 4 1 4 0 5.535 10 8.716 10 10l-7 6.5c-2.073 4.146-.896 10.209 1 14 5.34 10.68 13.479 20.479 22 29 2.178 2.178 12 6.668 12 10.5l4 4v2ZM290 210c2.6 0 4-2.504 4 2l8.5-7c6.003-3.002 13.493-5.493 18.5-10.5l7-10.5 1-1v-2l1-1c0-5.279 2.78-20 10-20 0-3.235 1.684-4.867 3-7.5 2.191-4.382-1.683-19.592-5.5-21.5H333l-1 4c0 5.25-11 7.427-11 10 0 2.317 12.475 7.549 8 16.5-5.2 10.4-13.749 27.625-25.5 33.5L293 205l-1 1-1 1-1 1v2Z"/><path fill="#CAC7CB" id="fiber tracts" d="m130 133-1 1 1-1Z"/><path fill="#C8CBC7" id="st" d="M129 134v1c0 11.844 15.963 2.231 7.5-2H130l-1 1Z"/><path fill="#FD8F9F" id="RT" d="m172 206 2 2.5c0 4.139-6.478-1.5-7-1.5l-4-2c0-3.832-9.822-8.322-12-10.5-8.521-8.521-16.66-18.32-22-29-1.896-3.791-3.073-9.854-1-14l7-6.5c4.772 0 10-6.68 10-11l1-1h5c1.429 0 4 1.288 4 3v1c0 3.715-4 5.378-4 8-1.999 0-6 .067-6 3-2.041 0-3 .959-3 3l-1 1c-2.337 0-3.108 13.285-2 15.5 4.041 8.082 7.755 19.627 15.5 23.5 1.436.718 4.069 6 6.5 6 3.815 0 3.579 4 7 4 0 1.562 2.189 5 4 5Z"/><path fill="#FE8F9E" id="PVT" d="M224 147h9c0-4.377 5-6.749 5-10h-1l-1-2-4-1c0 2.275-8 2.489-8-1l-3 2-1 1-1 1h-1c0 1.096 6 6.215 6 10Z"/><path fill="#FD8F9F" id="RT" d="m291 207-2 1c-5.391 0-5 4.154-5-2l4-4 1-1c2.33 0 3.227-4 6-4 1.747 0 2-.253 2-2 2.839 0 10-7.161 10-10 1.747 0 2-.253 2-2 1.577 0 2-1.762 2-3 1.577 0 2-1.762 2-3 1.638 0 2-3.576 2-5 2.488 0 2-6.101 2-8 1.265 0 1.604-6.292 1-7.5-2.662-5.323-5.848-11.5-13-11.5 0-2.622-4-4.285-4-8v-1l1-1 3-2h5l1 1c0 3.773 5.863 11 10 11 0 2.317 12.475 7.549 8 16.5-5.2 10.4-13.749 27.625-25.5 33.5L293 205l-1 1-1 1Z"/><path fill="#C8CBC7" id="st" d="M320 133c0 1.465-4.394 1.711-3 4.5 4.721 9.441 19.211-4.5 3-4.5Z"/><path fill="#C7CAC9" id="fr" d="m221 135-1 1v-1h1ZM237 135v2l-1-2h1Z"/><path fill="#FF6F80" id="TH" d="m302 135-1 1 1-1ZM155 137h1l-1-1v1Z"/><path fill="#FD909D" id="MD" d="m222 169-7 4c-6.169 0-19-6.769-19-14 0-5.017-1.115-12.27 1-16.5.761-1.522 5-5.784 5-6.5l5.5 3c3.444 1.722 7.47-2 10.5-2 0 1.096 6 6.215 6 10v17.5l-2 4.5Z"/><path fill="#C7CAC9" id="fr" d="m220 136-1 1 1-1Z"/><path fill="#FD909D" id="MD" d="m234 169 8 4c8.409 0 18.496-14 19-14 0-5.558-.448-23-7-23l-5.5 3c-3.098 1.549-7.399-2-10.5-2 0 3.251-5 5.623-5 10 0 3.613-3.008 11.484-1 15.5l2 6.5Z"/><path fill="#FF6F80" id="TH" d="M300 137h1v-1l-1 1Z"/><path fill="#1A8061" id="SSs6b" d="m78 147-3 4c0-2.252 3.596-14 6-14l-2 8-1 2Z"/><path fill="#FD8084" id="VPL" d="M165 187c0 4.322-3.043 6-7 6l-7-7.5-5-5c-5.809-11.617-5-15.737-5-28.5l1-1 3-3 6-3c0-2.622 4-4.285 4-8h1c3.971 0 6.693 6 10 6v1c0 3.712-8 7.696-8 10-17.274 0-6.324 19.176 0 25.5l7 7.5ZM291 187c0 4.122 3.19 6 7 6l9-8 2-2c0-1.238.423-3 2-3 0-1.238.423-3 2-3 0-1.424.362-5 2-5 0-1.552.566-8 2-8 0-6.481-1.377-9.254-4-14.5l-8-4.5c0-2.622-4-4.285-4-8h-1c-2.83 0-4.54 4-7 4l-1 1-1 1v1c0 4.589 7 6.311 7 10 17.327 0 6.881 18.619.5 25l-6.5 7-1 1Z"/><path fill="#FF8E9C" id="PO" d="m293 141-1 1 1-1ZM166 144h1l-1-1v1Z"/><path fill="#FD7E84" id="VAL" d="M287 202h1l1-1c2.33 0 3.227-4 6-4l2-2 1-2c-3.81 0-7-1.878-7-6-16.685 0-1.335-33 7-33 0-3.689-7-5.411-7-10l-1-1c-5.976 0-10.072 8-17 8 0 2.317-.709 8-4 8 0 6.987-9.696 12.891-12 17.5l-5 3.5v2c2.753 0 3 5.011 3 7 2.3 0 9.422-3.039 11.5-2 5.773 2.886 20.5 5.5 20.5 15Z"/><path fill="#FF8E9C" id="PO" d="M291 143v1l-1-1h1Z"/><path fill="#FD7E84" id="VAL" d="M168 201h1c0-2.183 3.405-3.31 4-4.5 1.562-3.124 15.546-11.477 19.5-9.5 1.802.901 6.594 2 8.5 2 2.102 0 .058-7 3-7v-2c0-1.984-17-14.59-17-21-2.447 0-4-6.063-4-8-6.62 0-10.104-7-16-7h-1c0 3.712-8 7.696-8 10 8.324 0 18.776 22.724 11.5 30-1.463 1.463-2.383 3-4.5 3 0 4.322-3.043 6-7 6 0 2.349 3 1.382 3 4 3.815 0 3.579 4 7 4Z"/><path fill="#C9C9CA" id="scwm" d="m79 145-1 2 1-2Z"/><path fill="#C7CACA" id="em" d="M151 145c-1.999 0-6 .067-6 3l6-3ZM305 145c7.152 0 10.338 6.177 13 11.5.604 1.208.265 7.5-1 7.5 0-6.481-1.377-9.254-4-14.5l-8-4.5Z"/><path fill="#C9C9CA" id="scwm" d="M75 151v4c2.275 0 3-6.303 3-8l-3 4Z"/><path fill="#FE909F" id="IMD" d="M222 169h12l-2-6.5c-2.008-4.016 1-11.887 1-15.5h-9v17.5l-2 4.5Z"/><path fill="#C7CACA" id="em" d="M145 148c-2.041 0-3 .959-3 3l3-3Z"/><path fill="#1A8061" id="SSs6b" d="M71 167h1v-2c0-1.048-.473-3 1-3v-1c0-1.048-.473-3 1-3 0-1.048-.473-3 1-3v-4c-3.355 0-2.951 15-5 15v1h1Z"/><path fill="#C7CACA" id="em" d="m142 151-1 1 1-1ZM158 193c0 2.349 3 1.382 3 4-2.431 0-5.064-5.282-6.5-6-7.745-3.873-11.459-15.418-15.5-23.5-1.108-2.215-.337-15.5 2-15.5 0 12.763-.809 16.883 5 28.5l5 5 7 7.5Z"/><path fill="#FF7E83" id="VPM" d="M158 154c8.324 0 18.776 22.724 11.5 30-1.463 1.463-2.383 3-4.5 3l-7-7.5c-6.324-6.324-17.274-25.5 0-25.5ZM292 186l-1 1c-16.685 0-1.335-33 7-33 17.327 0 6.881 18.619.5 25l-6.5 7Z"/><path fill="#C9C9CA" id="scwm" d="M75 155c-1.473 0-1 1.952-1 3 1.473 0 1-1.952 1-3ZM74 158c-1.473 0-1 1.952-1 3 1.473 0 1-1.952 1-3Z"/><path fill="#12AD83" id="VISC1" d="m36 195-5 1c-2.016 0-3-7.698-3-9.5V159l6 1c0 5.305-4.834 14.831-2 20.5 1.506 3.012 4 10.249 4 13.5v1Z"/><path fill="#FE8D9F" id="PCN" d="m204 180 8 2c0-3.647 3-5.609 3-9-6.169 0-19-6.769-19-14h-9c0 6.41 17 19.016 17 21ZM245 182h1c0-1.579 2.855-1 4-1h1l1-1 5-3.5c2.304-4.609 12-10.513 12-17.5h-8c-.504 0-10.591 14-19 14 0 3.617 3 5.829 3 9Z"/><path fill="#12AD83" id="VISC1" d="m420 195 6 1c0-2.595 1.775-9.049 3-11.5 3.081-6.162-1-19.407-1-25.5l-5 1c0 3.565 2.926 15.648 2 17.5-.87 1.74-5 15.182-5 16.5v1Z"/><path fill="#12AC83" id="VISC2/3" d="m47 193-11 1c0-3.251-2.494-10.488-4-13.5-2.834-5.669 2-15.195 2-20.5l7 1c0 5.463.866 31 6 31v1Z"/><path fill="#8598CC" id="GPe" d="M129 199c0 8.617-2.71 6-9 6-3.884 0-5.381-9-7-9 0-5.155-4.713-14.073-2-19.5l5-16.5c7.908 0 11 16.51 11 22 0 1.048-.473 3 1 3v1c0 1.235-.643 5 1 5v8ZM337 205l-2 1c-4.817 0-8 .404-8-5v-4c1.714 0 1-5.594 1-7v-4c1.473 0 1-1.952 1-3v-2l1-1c0-5.279 2.78-20 10-20 2.496 0 2.16 7.82 3 9.5 3.764 7.528 1 16.494 1 24.5l-1 1v2l-4 6-1 1-1 1Z"/><path fill="#12AC83" id="VISC2/3" d="m409 193 11 1c0-1.318 4.13-14.76 5-16.5.926-1.852-2-13.935-2-17.5l-8 1c0 4.891.235 28-4 28 0 2.003.293 3-2 3v1Z"/><path fill="#11AC82" id="VISC4" d="M46 163c0 5.802-3.964 18.571-1 24.5l2 4.5c-5.134 0-6-25.537-6-31h1l4 2Z"/><path fill="#C9C9CA" id="scwm" d="m383 161 1 2-1-2Z"/><path fill="#11AC82" id="VISC4" d="M410 163c0 1.698 1.195 5.89 2 7.5l-1 18.5c4.235 0 4-23.109 4-28l-5 2Z"/><path fill="#C9C9CA" id="scwm" d="M73 162c-1.473 0-1 1.952-1 3 1.473 0 1-1.952 1-3Z"/><path fill="#12AD82" id="VISC5" d="M47 193h1c1.714 0 13-.852 13-2 0-3.166-.693-5.886-2-8.5-2.218-4.435 1-13.412 1-17.5-4.08 0-8.364-2-13-2h-1c0 5.802-3.964 18.571-1 24.5l2 4.5v1ZM409 192v1c-4.902 0-9.595-2-14-2l2-6.5V164c4.473 0 7.667-1 13-1 0 1.698 1.195 5.89 2 7.5l-1 18.5-2 3Z"/><path fill="#C7CACA" id="em" d="M317 164c-1.434 0-2 6.448-2 8 2.488 0 2-6.101 2-8Z"/><path fill="#11AC83" id="VISC6a" d="M61 191h1c4.371 0 8.019-2 12-2 0-6.45-4-13.092-4-22v-1l-10-1c0 4.088-3.218 13.065-1 17.5 1.307 2.614 2 5.334 2 8.5Z"/><path fill="#C9C9CA" id="scwm" d="m384 165 1 2-1-2Z"/><path fill="#11AC83" id="VISC6a" d="M382 189c4.272 0 8.237 2 13 2l2-6.5V165l-11 1v1c0 4.431.858 10.783-1 14.5-1.035 2.069-3 5.13-3 7.5Z"/><path fill="#11AD82" id="VISC6b" d="M74 189h1c0-7.002-4-12.351-4-20v-2h-1c0 8.908 4 15.55 4 22Z"/><path fill="#C9C9CA" id="scwm" d="M71 169h1v-2h-1v2Z"/><path fill="#11AD82" id="VISC6b" d="M381 189h1c0-2.37 1.965-5.431 3-7.5 1.858-3.717 1-10.069 1-14.5h-1v2c0 7.639-4 13.315-4 20Z"/><path fill="#C8CBCC" id="ec" d="M84 211h2v-1l-1-2-6-13.5c-3.808-7.617-3-17.44-3-25.5h-5c0 7.649 4 12.998 4 20 1.26 0 4 8.632 4 10v1l2 3 1 3 2 5Z"/><path fill="#FD8E9E" id="CM" d="M241 184h1l1-1h1l1-1c0-3.171-3-5.383-3-9l-8-4h-12l-7 4c0 3.391-3 5.353-3 9l3 2h26Z"/><path fill="#C8CBCC" id="ec" d="M371 211h1l2-4v-1l1-1v-1l1-1 1-2v-1l2-4c0-1.623.005-6 2-6v-1c0-6.685 4-12.361 4-20h-4c0 6.595.763 15.974-2 21.5l-8 17.5v3Z"/><path fill="#C7CACA" id="em" d="M315 172c-1.638 0-2 3.576-2 5 1.638 0 2-3.576 2-5ZM313 177c-1.577 0-2 1.762-2 3 1.577 0 2-1.762 2-3Z"/><path fill="#FF6F80" id="TH" d="m212 182 3 2c-3.667 0-7.827-2-11-2v-2l8 2ZM251 181l1 1v-2l-1 1Z"/><path fill="#C7CACA" id="em" d="M311 180c-1.577 0-2 1.762-2 3 1.577 0 2-1.762 2-3Z"/><path fill="#8599CC" id="PAL" d="m330 180-1 1 1-1Z"/><path fill="#FD8E9F" id="SMT" fill-rule="evenodd" d="m206 195-4 6.5c-1.345 2.691 1.307 7.097 4.5 5.5 5.265-2.633 6.905-12-.5-12m12 11c-4.655 0-8.221 6-14 6-1.951 0-.477-2.454-1-3.5-3.577-7.153-2-11.495-2-19.5 2.102 0 .058-7 3-7 3.173 0 7.333 2 11 2h1l2 1c0 2.776 4 7.469 4 11l-4 10Z"/><path fill="#FF6F80" id="TH" d="M250 181c-1.145 0-4-.579-4 1 1.145 0 4 .579 4-1Z"/><path fill="#FD8E9F" id="SMT" d="m255 205-2 7c-5.989 0-13.207-7-15-7l-3-8 1-9.5 3-2.5 2-1h1l1-1h1l2-1c1.145 0 4 .579 4-1h1l1 1c2.753 0 3 5.011 3 7 0 2.23 4.319 15 0 15 0-8.619-14.43-14.36-8-1.5l2.5 4.5c2.541 1.27 3.709-2 5.5-2Z"/><path fill="#8599CC" id="PAL" d="M128 183v2c-1.473 0-1-1.952-1-3l1 1Z"/><path fill="#FF6F80" id="TH" d="m246 182-2 1 1-1h1Z"/><path fill="#8499CC" id="GPi" d="M143 221h1l5.5 4c8.415 4.207 14.5-2.69 14.5-10l-1-2c-2.431 0-5.064-5.282-6.5-6-6.717-3.358-16.688-7.688-21.5-12.5l-7-11.5v3c1.643 0 1 3.765 1 5v8c1.054 0 3.315 9.129 4 10.5 2.012 4.024 10 6.768 10 11.5Z"/><path fill="#FF6F80" id="TH" d="m243 183-1 1 1-1Z"/><path fill="#C7CACA" id="em" d="m309 183-2 2c1.747 0 2-.253 2-2Z"/><path fill="#8599CC" id="PAL" d="M328 184v2c1.473 0 1-1.952 1-3l-1 1Z"/><path fill="#FF6F80" id="TH" d="M218 184v1l-2-1h2Z"/><path fill="#FF8E9E" id="RH" d="M222 196c2.454 0 7.523-2.489 10.5-1l2.5 2 1-9.5 3-2.5v-1h-21v1c0 2.776 4 7.469 4 11Z"/><path fill="#FF6F80" id="TH" d="m241 184-2 1v-1h2Z"/><path fill="#8499CC" id="GPi" d="m314 220-1 1c-2.558 0-4.36 2.93-6.5 4-8.164 4.082-14.5-2.919-14.5-10l2-3 8.5-7c6.003-3.002 13.493-5.493 18.5-10.5l7-10.5v6c-1.714 0-1 5.594-1 7v4c-1.961 0-2.3 6.099-3 7.5-1.593 3.186-7 4.664-7 8.5-1.747 0-2 .253-2 2l-1 1Z"/><path fill="#C7CACA" id="em" d="m298 193-1 2c2.839 0 10-7.161 10-10l-9 8Z"/><path fill="#8599CC" id="PAL" d="M128 186c1.643 0 1 3.765 1 5-1.643 0-1-3.765-1-5Z"/><path fill="#FD7E84" id="VAL" d="m292 186-1 1 1-1Z"/><path fill="#FF7E84" id="VM" d="m204 212-2 3c-6.267 0-20.818-10-28-10l-5-4c0-2.183 3.405-3.31 4-4.5 1.562-3.124 15.546-11.477 19.5-9.5 1.802.901 6.594 2 8.5 2 0 8.005-1.577 12.347 2 19.5.523 1.046-.951 3.5 1 3.5ZM253 212l1 3 28-10 5-3c0-9.5-14.727-12.114-20.5-15-2.078-1.039-9.2 2-11.5 2 0 2.23 4.319 15 0 15v1l-2 7Z"/><path fill="#209766" id="AIp6a" d="M72 211h1c3.062 0 4.764-5 9-5l-1-3c-1.577 0-2-1.762-2-3v-1c-2.063 0-4-8.058-4-10h-1c-3.981 0-7.629 2-12 2 0 5.738 8 13.501 8 21l2-1Z"/><path fill="#219666" id="AIp6b" d="M75 189c1.26 0 4 8.632 4 10-2.063 0-4-8.058-4-10ZM382 189l-1 1v-1h1Z"/><path fill="#209766" id="AIp6a" d="M385 212h1c0-5.798 9-18.027 9-21-4.763 0-8.728-2-13-2l-1 1c0 1.357-.647 6-2 6 0 1.465.109 4-2 4v1l-1 2-1 1v2c2.277 0 8 1.922 8 5l2 1Z"/><path fill="#11AC82" id="VISC4" d="m411 189-2 3c2.293 0 2-.997 2-3Z"/><path fill="#8599CC" id="PAL" d="M328 190c-1.714 0-1 5.594-1 7 1.714 0 1-5.594 1-7Z"/><path fill="#219666" id="AIp6b" d="M381 190c-1.995 0-2 4.377-2 6 1.353 0 2-4.643 2-6Z"/><path fill="#219864" id="AIp5" d="m70 212-7 1-6-4.5c-2.205-4.41-9-9.385-9-15.5 1.714 0 13-.852 13-2h1c0 5.738 8 13.501 8 21ZM386 212l7 1 4-2.5c2.568-5.136 12-10.545 12-17.5-4.902 0-9.595-2-14-2 0 2.973-9 15.202-9 21Z"/><path fill="#209865" id="AIp2/3" d="M63 213c0 1.323-10.453 5-12 5 0-2.591-7.695-8.89-9-11.5L36 195v-1l11-1h1c0 6.115 6.795 11.09 9 15.5l6 4.5ZM393 213c0 1.378 11.28 5 13 5 0-5.166 14-15.575 14-23v-1l-11-1c0 6.955-9.432 12.364-12 17.5l-4 2.5Z"/><path fill="#97D6F9" id="STR" d="m344 194-1 1 1-1Z"/><path fill="#219765" id="AIp1" d="M51 218c-1.076 0-5 1.523-5 3-1.687 0-15-21.48-15-25l5-1 6 11.5c1.305 2.61 9 8.909 9 11.5Z"/><path fill="#C7C9CC" id="mtt" d="m206 195-4 6.5c-1.345 2.691 1.307 7.097 4.5 5.5 5.265-2.633 6.905-12-.5-12Z"/><path fill="#FD909F" id="RE" d="M225 222v-18.5l3.5-3.5c5.18 2.59 2.5 17.211 2.5 22 3.721 0 6.881-2 10-2 0-5.687-3-9.884-3-15l-3-8-2.5-2c-2.977-1.489-8.046 1-10.5 1l-4 10-3 13c.057 0 6.688 3 10 3Z"/><path fill="#C7C9CC" id="mtt" d="M255 204v1c-1.791 0-2.959 3.27-5.5 2l-2.5-4.5c-6.43-12.86 8-7.119 8 1.5Z"/><path fill="#C7CACA" id="em" d="m297 195-2 2c1.747 0 2-.253 2-2Z"/><path fill="#219765" id="AIp1" d="m406 218 4 3c1.543 0 16-21.767 16-25l-6-1c0 7.425-14 17.834-14 23Z"/><path fill="#97D6F9" id="STR" d="m95 214 5 4c0-3.877 6.913-5 10-5l1-1 1-1c1.974 0 3.517-2 6-2h5l-3-4c-3.884 0-5.381-9-7-9 0 3.129 2 5.936 2 8.5 0 9.653-15.456 7.5-21 7.5l1 2Z"/><path fill="#219666" id="AIp6b" d="m379 196-2 4c2.109 0 2-2.535 2-4Z"/><path fill="#97D6F9" id="STR" d="M357 217h2c0-1.747.253-2 2-2l1-2c-7.279 0-16.627.245-20-6.5l1-9.5-4 6-1 1-1 1-2 1-2 3h5c1.647 0 7 1.268 7 3 4.013 0 8.633 5 12 5Z"/><path fill="#8599CC" id="PAL" d="m128 212-1-4.5c.827-1.655 4.252 1.252 5 2l11 11.5c0-4.732-7.988-7.476-10-11.5-.685-1.371-2.946-10.5-4-10.5 0 8.617-2.71 6-9 6l3 4c2.364 0 3.053 3 5 3Z"/><path fill="#219666" id="AIp6b" d="m79 200 2 3c-1.577 0-2-1.762-2-3Z"/><path fill="#FC8F9F" id="Xi" d="M225 222h6c0-4.789 2.68-19.41-2.5-22l-3.5 3.5V222Z"/><path fill="#FF6F80" id="TH" d="m174 205-2 1c-1.811 0-4-3.438-4-5h1l5 4ZM289 201l-1 1 1-1Z"/><path fill="#8599CC" id="PAL" d="M329 211c0-11.355-8.292 6-12 6 0-3.836 5.407-5.314 7-8.5.7-1.401 1.039-7.5 3-7.5 0 5.404 3.183 5 8 5l-2 3-4 2Z"/><path fill="#219666" id="AIp6b" d="m377 201-1 2 1-2Z"/><path fill="#FF6F80" id="TH" d="m282 205 2 1 4-4h-1l-5 3Z"/><path fill="#8599CC" id="PAL" d="m339 203-1 1 1-1Z"/><path fill="#219666" id="AIp6b" d="m376 203-1 1 1-1Z"/><path fill="#8599CC" id="PAL" d="m338 204-1 1 1-1ZM167 207v2l-4-4 4 2Z"/><path fill="#F0483B" id="ZI" d="M211 221c-1.009 0-5.343 2.421-6.5 3l-15.5-2c0-.41-10.622-5-12-5l-4-1-3-2-3-4v-3c.522 0 7 5.639 7 1.5l-2-2.5 2-1c7.182 0 21.733 10 28 10l8 4 1 2Z"/><path fill="#FD909C" id="PR" d="m245 220-4 1v-1c0-5.687-3-9.884-3-15 1.793 0 9.011 7 15 7l1 3-8 4-1 1Z"/><path fill="#F0483B" id="ZI" d="M246 221c.208 0 4.454 2.477 5.5 3l15.5-2c0-.963 7.561-3 9-3l2-1 1-1 4-1 2-1 1-1 1-1 1-1 1-1v-1l1-1v-1h-1c-5.391 0-5 4.154-5-2l-2-1-28 10-8 4v2Z"/><path fill="#8599CC" id="PAL" d="m293 205-1 1 1-1ZM337 205l-2 1 2-1Z"/><path fill="#219666" id="AIp6b" d="M374 206h1v-1l-1 1Z"/><path fill="#A0EE9C" id="EPd" d="m77 229 4.5 4c2.54 1.27 3.709-2 5.5-2 0-6.596-3-13.531-3-20l-2-5c-4.236 0-5.938 5-9 5v2c0 4.415 4.114 8.729 6 12.5l-.5 2.5-3.5-4v2l2 2v1Z"/><path fill="#FD909C" id="PR" d="m212 220 3 1v-2l3-13c-4.655 0-8.221 6-14 6l-2 3 8 4 2 1Z"/><path fill="#8599CC" id="PAL" d="m292 206-1 1 1-1Z"/><path fill="#209766" id="AIp6a" d="m375 206-1 1v-1h1Z"/><path fill="#A0EE9C" id="EPd" d="M379 229c-1.577 0-2 1.762-2 3-3.245 0-7 2.99-7-3l2-18 2-4 1-1c2.277 0 8 1.922 8 5v4c0 1.186-7.699 13-4 13v1Z"/><path fill="#A2B1D7" id="SI" d="M150 237c1.791 0 2.959 3.27 5.5 2l1.5-2v-5l-2.5-3c-2.278-1.139-10.5-4.07-10.5-8h-1l-11-11.5c-.748-.748-4.173-3.655-5-2l1 4.5c2.55 0 16 16.588 16 19l1 2h1l1 1 1 1 2 2Z"/><path fill="#8599CC" id="PAL" d="M289 208h1l1-1-2 1Z"/><path fill="#A2B1D7" id="SI" d="m306 238-1 1c-4.152 0-5-.848-5-5v-2c0-4.937 13-5.698 13-11l1-1 1-1 2-2c3.708 0 12-17.355 12-6 0 2.573-17 14.229-17 20l-1 2-1 1-2 1-1 1-1 2Z"/><path fill="#97D6F9" id="STR" d="m87 209-1 1-1-2 2 1ZM370 209l1 1v-2l-1 1Z"/><path fill="#90EB8D" id="LA" d="M97 219c-3.165 0-8-.595-8 5-.4 0-3-11.764-3-13v-1l1-1 7 3 1 2 2 5Z"/><path fill="#80BEE1" id="CEAl" d="M110 213c0 5.594 3.269 18 10 18 3.283 0 2.082-16.337 1-18.5l-3-3.5c-2.483 0-4.026 2-6 2l-1 1-1 1Z"/><path fill="#7FC0E0" id="CEAm" d="M135 244h1c0-3.728 2.079-11 7-11l1-2c0-2.412-13.45-19-16-19-1.947 0-2.636-3-5-3h-5l3 3.5c1.082 2.163 2.283 18.5-1 18.5 0 2.984-3.248 10-6 10 0 4.54 14.859 8 19 8 0-2.579-3.752-5.997-2-9.5.69-1.38 4 3.554 4 4.5Z"/><path fill="#CCCACB" id="nst" d="M171 220v4c-3.618 0-2.838-9-7-9l-1-2c0-5.734-.08-2 4-2l3 6v2l1 1Z"/><path fill="#8599CC" id="PAL" d="M289 210h1v-1l-1 1Z"/><path fill="#CCCACB" id="nst" d="M285 221v2c4.043 0 4.543-8 7-8l2-3c0-4.504-1.4-2-4-2l-1 1-1 1-1 2c0 1.235.643 5-1 5v1l-1 1Z"/><path fill="#7FC0E0" id="CEAm" d="M335 247c-1.124 0-11 4.183-11 1 0-.786 4.444-9 .5-9l-3.5 5c0-4.157-2.984-11-8-11l-1-2c0-5.771 17-17.427 17-20l4-2h5l-3 4.5c-1.307 2.615-.341 17.5 2 17.5 0 2.651 1.91 10 5 10l-7 6Z"/><path fill="#80BEE1" id="CEAl" d="M345 212c0 5.192.081 19-8 19-2.341 0-3.307-14.885-2-17.5l3-4.5c1.647 0 7 1.268 7 3Z"/><path fill="#90EB8D" id="LA" d="M359 219c4.963 0 8 .144 8 7 3.58 0 .037-15 4-15v-1l-1-1-7 3-1 1-1 2c0 1.747-.253 2-2 2v2Z"/><path fill="#8599CC" id="PAL" d="m171 216-1 1-3-6v-1l3 4 1 2Z"/><path fill="#CCC" d="m290 210-1 1v-1h1Z"/><path fill="#C9C8CA" id="ee" d="M75 223v1l3.5 4 .5-2.5c-1.886-3.771-6-8.085-6-12.5l-1-2-2 1 2 5 1 2 1 1v1l1 2Z"/><path fill="#8AD987" id="CTXsp" d="M73 211v2l-1-2h1Z"/><path fill="#C8C9CB" id="amc" d="M103 255v1l-2-1c-5.138 0-12.425-21-13-21 0-1.048.473-3-1-3 0-6.596-3-13.531-3-20h2c0 1.236 2.6 13 3 13 0 6.93 5.44 31 14 31Z"/><path fill="#80BFE0" id="CEAc" d="m112 211-1 1 1-1Z"/><path fill="#8599CC" id="PAL" d="m289 211-1 1 1-1Z"/><path fill="#C8C9CB" id="amc" d="M368 234c0 1.294-2.793 9-4 9 0-5.938 3-10.424 3-17 3.58 0 .037-15 4-15h1l-2 18c-1.579 0-1 2.855-1 4l-1 1Z"/><path fill="#8AD987" id="CTXsp" d="m385 212-2 3v-4l2 1Z"/><path fill="#6ACAB9" id="PIR" d="M100 275c0 5.048-6.751 12.002-9 16.5l-3 4.5c-3.499 0-9.756-11.012-11-13.5l-4-4c-3.028-6.057-6.898-11.796-10-18-3.585-7.171-6.403-14.806-10-22-2.043-4.086-2.927-8.854-5-13-.465-.93-.817-4.5-2-4.5 0-1.477 3.924-3 5-3 1.547 0 12-3.677 12-5l7-1 2 5 1 2v1c0 1.424.362 5 2 5v1l2 2v1l4 7 2 2c0 10.774 18 23.972 18 35l-1 2Z"/><path fill="#80BFE0" id="CEAc" d="m111 212-1 1 1-1Z"/><path fill="#8599CC" id="PAL" d="M287 213v1l1-2-1 1Z"/><path fill="#80BFE0" id="CEAc" d="M342 241h2l1-1 3-6 1-2c0-1.465-.109-4 2-4 0-1.465-.109-4 2-4 0-1.238.423-3 2-3 0-1.747.253-2 2-2v-2c-3.367 0-7.987-5-12-5 0 5.192.081 19-8 19 0 2.651 1.91 10 5 10Z"/><path fill="#97D6F9" id="STR" d="m363 212-1 1 1-1Z"/><path fill="#C9C8CA" id="ee" d="m382 222-3 6c-3.699 0 4-11.814 4-13l2-3h1l-1 5-1 1-1 2-1 2Z"/><path fill="#6ACAB9" id="PIR" d="m356 275 9 17.5 3 3.5c2.342 0 12.903-14.306 14-16.5l21-42 7-16.5-4-3c-1.72 0-13-3.622-13-5l-7-1-1 5-1 1-1 2v2l-1 2-1 3-1 1-1 1c0 1.238-.423 3-2 3 0 1.238-1.923 5-3 5 0 11.694-18 23.787-18 37v1Z"/><path fill="#80BFE0" id="CEAc" d="m111 239 3 2c2.752 0 6-7.016 6-10-6.731 0-10-12.406-10-18-3.087 0-10 1.123-10 5 0 3.289 9 11.906 9 17v1l1 1 1 2Z"/><path fill="#E64438" id="HY" d="M286 214h1v-1l-1 1Z"/><path fill="#C8CBCC" id="ec" d="M97 219c5.345 0 10.481 16 12 16 0-5.094-9-13.711-9-17l-5-4 2 5Z"/><path fill="#E64438" id="HY" d="M171 216h2l-3-2 1 2ZM286 214l-1 1 1-1Z"/><path fill="#8599CC" id="PAL" d="m285 216 1 3c1.643 0 1-3.765 1-5h-1l-1 1v1ZM171 224c0 8.268-14 4.2-14 8l-2.5-3c-2.278-1.139-10.5-4.07-10.5-8l5.5 4c8.415 4.207 14.5-2.69 14.5-10 4.162 0 3.382 9 7 9Z"/><path fill="#E64438" id="HY" d="M283 216h2v-1l-2 1Z"/><path fill="#8599CC" id="PAL" d="M285 223c0 8.872 8.806 4.653 13.5 7l1.5 2c0-4.937 13-5.698 13-11-2.558 0-4.36 2.93-6.5 4-8.164 4.082-14.5-2.919-14.5-10-2.457 0-2.957 8-7 8Z"/><path fill="#C8CBCC" id="ec" d="M361 215c-1.747 0-2 .253-2 2 1.747 0 2-.253 2-2Z"/><path fill="#F2483A" id="LHA" d="m184 262-1 1c-2.011 0-3.989-1-6-1 0-3.439-16-14.204-16-19l-4-6v-5c0-3.8 14 .268 14-8v-4l-1-1v-2l1-1h2l4 1 12 10 2 4 1 3c-11.955 0-11.356 24-7 24l-1 4ZM273 263h5l3.5-4c1.134-.567 13.5-13.733 13.5-15l1-1c0-1.335 3.145-9 4-9v-2l-1.5-2c-4.694-2.347-13.5 1.872-13.5-7v-2l1-1v-1l-1-3h-2l-4 1-1 1-2 1-8 7-1 1-2 4v3c10.303 0 11.856 24 6 24l2 4v1Z"/><path fill="#8AD987" id="CTXsp" d="m72 217 1 2-1-2Z"/><path fill="#E64438" id="HY" d="M189 222v5l-12-10c1.378 0 12 4.59 12 5ZM279 217l-1 1 1-1Z"/><path fill="#8599CC" id="PAL" d="M317 217c-1.747 0-2 .253-2 2l2-2Z"/><path fill="#C8CBCC" id="ec" d="M357 219h2v-2h-2v2Z"/><path fill="#8AD987" id="CTXsp" d="m385 217-1 1 1-1Z"/><path fill="#9DE79B" id="BLAa" d="M112 247c-2.085 0-5.579 8-9 8-8.56 0-14-24.07-14-31 0-5.595 4.835-5 8-5 5.345 0 10.481 16 12 16v1l1 1 1 2 1 4v4Z"/><path fill="#E64438" id="HY" d="m278 218-2 1 2-1Z"/><path fill="#9DE79B" id="BLAa" d="M353 255h2l1-1 1-1 2-1v-1l1-1 1-1 1-2 1-2 1-2c0-5.938 3-10.424 3-17 0-6.856-3.037-7-8-7h-2c0 1.747-.253 2-2 2 0 1.238-.423 3-2 3l-2 4-2 4-1 2-3 6-1 1v3l1 3v1l2 2 6 5Z"/><path fill="#8AD987" id="CTXsp" d="m384 218-1 2 1-2Z"/><path fill="#A0EE9C" id="EPd" d="M73 220h1l-1-1v1Z"/><path fill="#8599CC" id="PAL" d="m170 219 1 1-1-1Z"/><path fill="#E64438" id="HY" d="m212 220-1 1-1-2 2 1Z"/><path fill="#FF6F80" id="TH" d="M227 225c0-1.399 2-1.399 2 0 1.437 0 12-3.009 12-4v-1c-3.119 0-6.279 2-10 2h-6c-3.312 0-9.943-3-10-3v2c0 .91 10.674 4 12 4Z"/><path fill="#E64438" id="HY" d="m245 220 1 1v-2l-1 1ZM267 222l1 4 8-7c-1.439 0-9 2.037-9 3Z"/><path fill="#8599CC" id="PAL" d="m315 219-1 1 1-1Z"/><path fill="#C8CBCC" id="ec" d="M357 219c-1.747 0-2 .253-2 2 1.747 0 2-.253 2-2Z"/><path fill="#8AD987" id="CTXsp" d="M75 224v1c-1.638 0-2-3.576-2-5h1v1l1 2v1Z"/><path fill="#FF4C3D" id="PVHd" d="M229 235c1.465 0 4-.109 4 2 4.133 0 7.232-4 12-4h2c0-1.579 2.855-1 4-1 4.607 0 10.052-1 14-1l2-4 1-1-1-4-15.5 2c-1.046-.523-5.292-3-5.5-3l-1-1-4 1c0 .991-10.563 4-12 4 0 1.399-2 1.399-2 0-1.326 0-12-3.09-12-4l-3-1-1 1c-1.009 0-5.343 2.421-6.5 3l-15.5-2v5l2 4c4.425 0 9.961 1 15 1 1.145 0 4-.579 4 1h2c4.872 0 7.634 4 12 4 0-1.577 1.762-2 3-2 0-1.145-.579-4 1-4 0-1.186 1-1.186 1 0v4Z"/><path fill="#8599CC" id="PAL" d="m286 220-1 1 1-1ZM314 220l-1 1 1-1Z"/><path fill="#A0EE9C" id="EPd" d="M382 222h1v-2l-1 2ZM74 221l1 2-1-2Z"/><path fill="#C8CBCC" id="ec" d="M355 221c-1.577 0-2 1.762-2 3 1.577 0 2-1.762 2-3Z"/><path fill="#A0EE9C" id="EPd" d="M379 228h1l1-1 1-3v-2l-3 6Z"/><path fill="#8AD987" id="CTXsp" d="m383 222-1 2v-2h1Z"/><path fill="#E64438" id="HY" d="M227 225c0 1.399 2 1.399 2 0s-2-1.399-2 0Z"/><path fill="#C8CBCC" id="ec" d="M353 224c-2.109 0-2 2.535-2 4l2-4Z"/><path fill="#8AD987" id="CTXsp" d="m75 226 2 2-2-2Z"/><path fill="#E64438" id="HY" d="m268 226-1 1 1-1Z"/><path fill="#8AD987" id="CTXsp" d="m381 227-1 1 1-1Z"/><path fill="#C8CBCC" id="ec" d="M351 228c-2.109 0-2 2.535-2 4l2-4Z"/><path fill="#8AD987" id="CTXsp" d="m380 228-1 1v-1h1ZM81 236l2 1c0-3.148 3.913-3 5-3 0-1.048.473-3-1-3-1.791 0-2.96 3.27-5.5 2l-4.5-4 4 7ZM369 233l5 4c1.077 0 3-3.762 3-5-3.245 0-7 2.99-7-3-1.579 0-1 2.855-1 4ZM379 229c-1.577 0-2 1.762-2 3 1.577 0 2-1.762 2-3Z"/><path fill="#E64438" id="HY" d="M228 231h1c0-1.186-1-1.186-1 0Z"/><path fill="#97D6F9" id="STR" d="M143 233h2l-1-2-1 2Z"/><path fill="#E64438" id="HY" d="M192 234c2.124 0 4.436 1 6 1 0-3.274 9.698-2 12-2 0-1.579-2.855-1-4-1-5.039 0-10.575-1-15-1l1 3Z"/><path fill="#A8A9AA" id="V3" d="M229 275c0 2.729-.423 1-2 1v-41c0-1.145-.579-4 1-4h1v44Z"/><path fill="#E64438" id="HY" d="M265 234c-2.124 0-4.436 1-6 1 0-2.983-9.707-2-12-2 0-1.579 2.855-1 4-1 4.607 0 10.052-1 14-1v3Z"/><path fill="#97D6F9" id="STR" d="M311 233h2l-1-2-1 2Z"/><path fill="#C8CBCC" id="ec" d="m349 232-1 2 1-2Z"/><path fill="#A0ED9D" id="EPv" d="m109 275-2 1-6-1v-2c0-11.028-18-24.226-18-35v-1c0-3.148 3.913-3 5-3 .575 0 7.862 21 13 21l2 2c0 2.215 2 1.519 2 3l1 2c0 4.492 3 9.234 3 13Z"/><path fill="#80BFE1" id="MEA" d="M145 287h2c2.451 0 12-6.506 12-9l1-1 1-11v-1l-1-1-3-15-3-5-4-7-2-2-1-1-1-1h-3c-4.921 0-7 7.272-7 11l-1 2v23c1.473 0 1 1.952 1 3 0 5.027 7 10.498 7 15h2Z"/><path fill="#97D6F9" id="STR" d="m146 233 1 1-1-1Z"/><path fill="#FF4B3E" id="AHN" d="M198 235c4.823 0 5.648 8.203 4 11.5l-3 3.5c0 5.614 13.606 1.287 16-3.5 3.674-7.348-3-9.419-3-13.5h-2c-2.302 0-12-1.274-12 2Z"/><path fill="#E64438" id="HY" fill-rule="evenodd" d="M210 255c0 2.042-9 4.286-9 8v9.5c1.736 3.472 4.34 4.92 7.5 6.5 15.77 7.885 18.885-19.058 9-24H210m-1 34 4 1-2-2.5c2.521-5.043 13-6.399 13-12.5v-38c-4.366 0-7.128-4-12-4 0 4.081 6.674 6.152 3 13.5-2.394 4.787-16 9.114-16 3.5-1.53 0-6 4.969-6 0l-4 4c0 2.041-.959 3-3 3l-1 1-1 4 4.5-1c6.004 3.002 5.501 12.251 11 15 3.01 1.505 9.803 5.106 11.5 8.5l-2 4.5ZM238 255c0 1.354-7.003 11.493-4 17.5 11.174 22.349 33.291-7.104 14.5-16.5-2.968-1.484-6.933-1-10.5-1m7 34h2l-1-5.5c1.444-2.888 6.103-4.301 8.5-5.5 6.721-3.361 6.76-13.88 13-17 1.956-.978 4.077 1 5.5 1l-2-4c0-1.539-4-2.187-4-5l-4-4c0 5.884-3.237 1-6 1l-3.5 2c-4.515 2.258-10.286-2.071-12.5-6.5-2.832-5.664 4-11.418 4-12.5-4.768 0-7.867 4-12 4l-1 39c1.725 0 13 11.409 13 13Z"/><path fill="#FF4B3E" id="AHN" d="M259 235c-10.481 0-2 14.259-2 15l-3.5 2c-4.515 2.258-10.286-2.071-12.5-6.5-2.832-5.664 4-11.418 4-12.5h2c2.293 0 12-.983 12 2Z"/><path fill="#97D6F9" id="STR" d="m311 233-1 1 1-1Z"/><path fill="#80BFE1" id="MEA" d="M311 287h2c2.739 0 7-12.624 7-15l1-1v-27c0-4.157-2.984-11-8-11h-2l-1 1-2 1-1 1-1 2-1 1-3 4c0 1.041-.986 5-2 5l-4 17c0 9.004.28 14.89 8.5 19 1.873.936 3.23 3 5.5 3h1Z"/><path fill="#8AD987" id="CTXsp" d="m369 233-1 1 1-1Z"/><path fill="#A0ED9D" id="EPv" d="m355 275-6 1-1-1c0-4.272 2-8.237 2-13l2-3 2-2 1-1v-1h1l1-1v-1l2-1v-1l1-1 1-1 1-2 1-2 1-2c1.207 0 4-7.706 4-9l1-1 5 4c0 11.694-18 23.787-18 37l-1 1Z"/><path fill="#8599CC" id="PAL" d="m147 234 1 1-1-1Z"/><path fill="#F2463A" id="PeF" d="m186 257-1 1c-4.356 0-4.955-24 7-24 2.124 0 4.436 1 6 1 4.823 0 5.648 8.203 4 11.5l-3 3.5c-1.53 0-6 4.969-6 0 0-3.666-3.392-8.716-6-3.5-1.65 3.301 2 6.145 2 7.5 0 2.041-.959 3-3 3ZM267 253c0 2.813 4 3.461 4 5 5.856 0 4.303-24-6-24-2.124 0-4.436 1-6 1-10.481 0-2 14.259-2 15 2.763 0 6 4.884 6-1 0-11.422 12.52 4 4 4Z"/><path fill="#8599CC" id="PAL" d="M296 243h6l3-4c-4.152 0-5-.848-5-5-.855 0-4 7.665-4 9Z"/><path fill="#FD5D50" id="PVi" d="m224 275 3 1v-41c-1.238 0-3 .423-3 2v38ZM229 275l3 1 1-39c0-2.109-2.535-2-4-2v40Z"/><path fill="#8599CC" id="PAL" d="m308 235-1 1 1-1Z"/><path fill="#99D2BD" id="OLF" d="M83 237v1l-2-2 2 1Z"/><path fill="#C8CBCC" id="ec" d="m109 236 1 1-1-1Z"/><path fill="#8599CC" id="PAL" d="M161 243c-2.409 0-5.181 1-7 1l-4-7c1.791 0 2.959 3.27 5.5 2l1.5-2 4 6ZM306 238l-1 1 1-1Z"/><path fill="#97D6F9" id="STR" d="M130 254c2.413 0 3.51 1 5 1v-6h-2c-4.141 0-19-3.46-19-8l-3-2 1 4 2 3c3.352 0 16 3.504 16 8Z"/><path fill="#C7CAC8" id="stc" d="M133 249h2v-5c0-.946-3.31-5.88-4-4.5-1.752 3.503 2 6.921 2 9.5ZM324 248l-3 1v-5l3.5-5c3.944 0-.5 8.214-.5 9Z"/><path fill="#97D6F9" id="STR" d="m345 240-1 1 1-1ZM343 246l-8 1 7-6h2v3l-1 2Z"/><path fill="#8AD987" id="CTXsp" d="m114 246-2 1v-4l2 3Z"/><path fill="#CAC7CB" id="fiber tracts" fill-rule="evenodd" d="M179 269c0 3.294 6 8.087 6 7.5l-6-7.5m3 0c0 4.628 6.624 12.124 10 15.5l6 4.5c-8.75 0-16.021-11.261-23.5-15l-6.5-5c1.254 0 9 4.921 9 1.5 0-7.735-11.569-16.138-14-21-.857-1.714-6-4.268-6-.5l-3-5c1.819 0 4.591-1 7-1 0 4.796 16 15.561 16 19l5 7Z"/><path fill="#8599CC" id="PAL" d="m296 243-1 1 1-1Z"/><path fill="#CAC7CB" id="fiber tracts" d="M272 275c-1.085 0-9 11.352-9 12 1.629 0 22-14.463 22-16l-4.5 1c-2.16-1.08 1.921-7.341 2.5-8.5 2.627-5.254 7.945-13.722 13.5-16.5l3.5 1c1.014 0 2-3.959 2-5h-6l-1 1c0 1.267-12.366 14.433-13.5 15l-3.5 4c0 1.429-1.288 4-3 4l-2 6 4-3.5c.932 1.864-5 10.101-5 5.5Z"/><path fill="#C8C9CB" id="amc" d="m364 243-1 2 1-2Z"/><path fill="#97D6F9" id="STR" d="m136 244-1 2v-2h1Z"/><path fill="#C7C8CA" id="fx" d="m193 250-4 4c0-1.355-3.65-4.199-2-7.5 2.608-5.216 6-.166 6 3.5Z"/><path fill="#8AD987" id="CTXsp" d="m343 246 2 1-1-3-1 2Z"/><path fill="#C7C8CA" id="fx" d="m263 249 4 4c8.52 0-4-15.422-4-4Z"/><path fill="#C8C9CB" id="amc" d="m363 245-1 2 1-2Z"/><path fill="#80BEE2" id="IA" d="m107 259-2 1c0-1.481-2-.785-2-3v-2c3.421 0 6.915-8 9-8l2-1c3.352 0 16 3.504 16 8 0 7.105-17.757 5-23 5ZM349 259h3l2-2-1-1v-1l-6-5-2-2v-1l-2-1-8 1c0 1.268-7.477 6-9 6 0 8.044 16.738 6 23 6Z"/><path fill="#CACCCB" id="opt" d="M166 269h2c1.254 0 9 4.921 9 1.5 0-7.735-11.569-16.138-14-21-.857-1.714-6-4.268-6-.5l3 15 1 1v1l2 1 1 1h1l1 1ZM287 270l-2 1-4.5 1c-2.16-1.08 1.921-7.341 2.5-8.5 2.627-5.254 7.945-13.722 13.5-16.5l3.5 1-4 17-4 3-1 1h-2l-2 1Z"/><path fill="#97D6F9" id="STR" d="M326 253c-2.25 0-3.376 2-5 2v-6l3-1c0 3.183 9.876-1 11-1 0 1.268-7.477 6-9 6Z"/><path fill="#C8C9CB" id="amc" d="m362 247-1 2 1-2Z"/><path fill="#8AD987" id="CTXsp" d="m345 248 2 2-2-2Z"/><path fill="#C8C9CB" id="amc" d="m361 249-1 1 1-1ZM360 250l-1 1 1-1ZM359 252l-2 1 2-1Z"/><path fill="#84EA80" id="BMAa" d="m109 277 5 2c7.117 0 12.616-8 20-8l1-2v-14c-1.49 0-2.587-1-5-1 0 7.105-17.757 5-23 5 0 1.048.473 3-1 3 0 4.492 3 9.234 3 13v2ZM342 279h3l1-1 1-1 1-2c0-4.272 2-8.237 2-13l-1-3c-6.262 0-23 2.044-23-6-2.25 0-3.376 2-5 2v14l2 2 19 8Z"/><path fill="#C8C9CB" id="amc" d="M356 254h1v-1l-1 1ZM355 255h1v-1l-1 1Z"/><path fill="#8AD987" id="CTXsp" d="m357 254-1 1v-1h1ZM103 256v1l-2-2 2 1Z"/><path fill="#FF4A3D" id="VMH" d="M210 255c0 2.042-9 4.286-9 8v9.5c1.736 3.472 4.34 4.92 7.5 6.5 15.77 7.885 18.885-19.058 9-24H210ZM238 255c0 1.354-7.003 11.493-4 17.5 11.174 22.349 33.291-7.104 14.5-16.5-2.968-1.484-6.933-1-10.5-1Z"/><path fill="#C8C9CB" id="amc" d="M353 256h2v-1h-2v1Z"/><path fill="#8AD987" id="CTXsp" d="m355 256-1 1-1-1h2Z"/><path fill="#F2483A" id="LHA" d="m186 257-1 1 1-1Z"/><path fill="#8AD987" id="CTXsp" d="m105 260 1 2c1.473 0 1-1.952 1-3l-2 1ZM352 259l-2 3-1-3h3Z"/><path fill="#F24839" id="TU" d="M198 289h11l2-4.5c-1.697-3.394-8.49-6.995-11.5-8.5-5.499-2.749-4.996-11.998-11-15l-4.5 1-1 1-1 6c0 4.628 6.624 12.124 10 15.5l6 4.5ZM247 289h11c0-1.638 3.576-2 5-2 0-.648 7.915-12 9-12l1-2 2-6-2-4v-1c-1.423 0-3.544-1.978-5.5-1-6.24 3.12-6.279 13.639-13 17-2.397 1.199-7.056 2.612-8.5 5.5l1 5.5Z"/><path fill="#E64438" id="HY" d="m183 263-1 6-5-7c2.011 0 3.989 1 6 1ZM184 262l-1 1 1-1ZM278 263c0 1.429-1.288 4-3 4l-2-4h5Z"/><path fill="#CAC7CB" id="fiber tracts" d="m163 267 1 1-1-1ZM165 268l1 1-1-1ZM292 268l-1 1 1-1Z"/><path fill="#99D2BD" id="OLF" d="m134 271 2 1c0-1.048.473-3-1-3l-1 2Z"/><path fill="#CCCAC9" id="sup" d="M179 269c0 3.294 6 8.087 6 7.5l-6-7.5ZM273 273l4-3.5c.932 1.864-5 10.101-5 5.5l1-2Z"/><path fill="#CAC7CB" id="fiber tracts" d="m289 269-2 1 2-1Z"/><path fill="#99D2BD" id="OLF" d="M321 271h2l-2-2v2Z"/><path fill="#CAC7CB" id="fiber tracts" d="m287 270-2 1 2-1Z"/><path fill="#60E5B7" id="COAa" d="M118 300h1l2-1c8.061 0 19.704-10 23-10l-1-2c0-4.502-7-9.973-7-15l-2-1c-7.384 0-12.883 8-20 8l-1 2c0 6.545 2 12.232 2 18l3 1Z"/><path fill="#99D2BD" id="OLF" d="m321 271-1 1 1-1Z"/><path fill="#60E5B7" id="COAa" d="M337 300h2l2-1c0-3.848 2-11.659 2-18l-1-2-19-8h-2l-1 1c0 2.376-4.261 15-7 15v2c0 3.314 19.411 10 23 10l1 1Z"/><path fill="#99D2BD" id="OLF" d="M100 275h1v-2l-1 2Z"/><path fill="#CAC7CB" id="fiber tracts" d="m273 273-1 2 1-2Z"/><path fill="#99D2BD" id="OLF" d="M355 275h1v-1l-1 1Z"/><path fill="#59D9AA" id="PAA" d="M101 302h8c0-1.579 2.855-1 4-1h1l1-2c0-5.768-2-11.455-2-18l-4-4-2-1-6-1h-1c0 5.048-6.751 12.002-9 16.5l-3 4.5c0 2.715 9.58 5 12 5l1 1Z"/><path fill="#8AD987" id="CTXsp" d="m107 276 2 1v-2l-2 1Z"/><path fill="#FF5B4F" id="ARH" d="M213 290h30l2-1c0-1.591-11.275-13-13-13l-3-1c0 2.729-.423 1-2 1l-3-1c0 6.101-10.479 7.457-13 12.5l2 2.5Z"/><path fill="#8AD987" id="CTXsp" d="m349 276-2 1 1-2 1 1Z"/><path fill="#59D9AA" id="PAA" d="M347 302h8l1-1c2.609 0 12-2.1 12-5l-3-3.5-9-17.5h-1l-6 1-2 1-1 1-1 1-2 2c0 6.341-2 14.152-2 18l2 2h1c1.048 0 3-.473 3 1Z"/><path fill="#99D2BD" id="OLF" d="m114 279-1 2-4-4 5 2Z"/><path fill="#97D6F9" id="STR" d="m160 277-1 1 1-1Z"/><path fill="#99D2BD" id="OLF" d="m347 277-1 1 1-1ZM346 278l-1 1 1-1ZM345 279l-2 2-1-2h3ZM145 288l-1 1-1-2h2v1Z"/><path fill="#97D6F9" id="STR" d="m147 287-2 1v-1h2Z"/><path fill="#CAC7CB" id="fiber tracts" d="M263 287c-1.424 0-5 .362-5 2 1.424 0 5-.362 5-2Z"/><path fill="#97D6F9" id="STR" d="M311 287v1l-1-1h1Z"/><path fill="#99D2BD" id="OLF" d="m311 288 2 1v-2h-2v1Z"/><path fill="#E64438" id="HY" d="m245 289-2 1 2-1Z"/><path fill="#99D2BD" id="OLF" d="M118 300c0 1.579-2.855 1-4 1l1-2 3 1ZM121 299l-2 1 2-1ZM336 299l1 1-1-1ZM339 300c0 1.579 2.855 1 4 1l-2-2-2 1ZM100 301l1 1-1-1ZM113 301c-1.145 0-4-.579-4 1 1.145 0 4 .579 4-1ZM344 301c1.048 0 3-.473 3 1-1.048 0-3 .473-3-1ZM356 301l-1 1 1-1Z"/></svg>