<svg xmlns="http://www.w3.org/2000/svg" viewBox="0 0 456 320"><path fill="#FEFA90" id="DEC" fill-rule="evenodd" d="M275 65c0 1.93 1.93 0 0 0m-95 0c0 1.93 1.93 0 0 0m88 64 7-10.5c2.956-5.912 5.317-21.365 2-28-13.127-26.254-84.782-25.437-98 1-3.9 7.8.648 23.296 4 30 .957 1.913 7 7.51 7 8.5-1.98 0-14-4.68-14-6 0-3.292-3.44-11.38-5-14.5V72c0-.839 1.93-2 0-2 0-5.039-1-10.575-1-15 1.349 0 14.313-6.906 16.5-8 12.548-6.274 35.607-4 51-4h17c7.726 3.863 17.245 4.123 25 8l6.5 4c0 4.933-1 10.73-1 15-1.93 0 0 1.161 0 2v40.5l-5 11.5c0 1.323-10.113 5-12 5Z"/><path fill="#FDFB8F" id="SIM" d="M171 70c-9.276 0-11.331 24-20 24 0-4.466-4.427-26-9-26 0-10.33 21.278-13 28-13 0 4.425 1 9.961 1 15ZM285 70c10.309 0 11.279 23 20 23 0-7.813 9-24.74 9-26 0-9.757-22.117-12-28-12 0 4.933-1 10.73-1 15Z"/><path fill="#CBC9CC" id="arb" d="M180 65c0 1.93 1.93 0 0 0ZM275 65c0 1.93 1.93 0 0 0Z"/><path fill="#FCFC90" id="ANcr1" d="M98 96c16.496 0 15.514 20.014 23.5 28 4.487 4.487 11.662 4.331 17 7 1.538.769 5.5-1.226 5.5 2l2.5-2c10.863-5.431 6.597-24.306 2.5-32.5-.334-.668-16.79-6.42-15-10l5.5 4.5c4.578 2.289 6.958 1 11.5 1 0-4.466-4.427-26-9-26-3.775 0-8.53-.985-12.5 1C121.513 72.993 98 85.727 98 96Z"/><path fill="#FCFC90" id="ANcr1" fill-rule="evenodd" d="m315 93-2 1.5c0 1.806 7.296-1.5 2-1.5m3-2c0 4.136 2.609 0 0 0m4-3c0 .749-3.66 1.92-1.5 3 1.546.773 3.887-3 1.5-3m37 8c-17.535 0-15.612 19.112-24.5 28-4.581 4.581-11.58 4.29-17 7-1.319.659-5.5-.334-5.5 2-10.294 0-8.725-27.05-6-32.5 1.425-2.85 6.304-2.607 7-4 1.18-2.36-8-.23-8-3.5 0-7.813 9-24.74 9-26 9.512 0 45 16.036 45 29Z"/><path fill="#CBC9CC" id="arb" fill-rule="evenodd" d="M154 170c0 1.93 1.93 0 0 0m15-39c0 1.284-3.47 2.561-2 5.5 4.041 8.081 15.436 14.968 22.5 18.5 1.746.873 17.5-7.411 17.5-9.5 0-2.972-6.119-1.81-7.5-2.5l-1-2-8-1c-8.535-4.268-10.905-9-21.5-9m-26 57-2 1c0-5.354 5.692-10.885 8-15.5l7-20 5-4c2.572-5.143 4.425-14.5-4-14.5 0-1.9-4.565-.468-5.5 0-4.888 2.444-8.164 7.582-13 10-10.361 5.181-19.542 12.771-30 18-2.191 1.096-8.73 12.635-10 12-5.84-2.92 12.315-18.315 14-20 .76-.76 5.893-7 2.5-7 0-3.083-5.808-2.154-7.5-3-4.198-2.099-8.938-3-14-3-.669 0-6.5 2.669-6.5 1.5 0-.903 3.394-7.788 4-9l6.5 3.5 10 3c9.329 4.664 23.375-.187 31-4 1.212-.606 5.5-2.24 5.5-4l2.5-2c10.863-5.431 6.597-24.306 2.5-32.5-.334-.668-16.79-6.42-15-10l5.5 4.5c4.578 2.289 6.958 1 11.5 1 8.669 0 10.724-24 20-24 1.93 0 0 1.161 0 2-6.137 0-6.146 11.791-8 15.5-3.583 7.167-7.158 30.671 2.5 35.5l10.5 1c0 1.32 12.02 6 14 6 5.466 0 28.414 6.457 33.5 9 8.058 4.029 33.939-9 43.5-9l1-1c1.887 0 12-3.677 12-5l10.5-1c10.476-5.238 6.294-28.912 2.5-36.5-1.851-3.703-1.627-14.5-8-14.5 0-.839-1.93-2 0-2 10.309 0 11.279 23 20 23 0 3.27 9.18 1.14 8 3.5-.696 1.393-5.575 1.15-7 4-2.725 5.45-4.294 32.5 6 32.5l4.5 4c3.93 1.965 8.162 3.081 12 5 5.133 2.566 25.99-1.995 30-4l6-4 2.5 6.5 4 4c0 1.08-6.722-2.111-7.5-2.5-3.412-1.706-15.142 1.571-18 3l-4.5 3c0 7.217 8.846 13.346 14 18.5 1.078 1.078 6.608 6.946 3.5 8.5l-3.5-2.5c-1.69-3.379-5.509-9.504-9.5-11.5-9.606-4.803-18.453-11.227-28-16l-13-10c-.935-.468-5.5-1.9-5.5 0-4.144 0-8.166 5.168-6 9.5l10 14c1.969 3.938 2.552 11.105 5 16 1.953 3.906 7 8.99 7 13.5-2.473 0-6-3.527-6-6l-10-10.5c-6.206-6.206-31.672-16.5-41-16.5 0-2.031-9.733-4.117-11.5-5-12.787-6.393-25.569-5.216-38 1-1.568.784-9.5 1.924-9.5 4-.835 0-14.838 1.669-15.5 2-6.259 3.13-13.105 10-20.5 10 0-4.143 14-2.807 14-12 0-6.434-2-8.45-2-1 0 1.348-8.111 2.306-9.5 3l-7.5 9.5-3 3 4-.5c0 4.389-10 7.755-10 12l-1 1-2 3-1 1-1 1-1 1m137-33c-2.89 0 .147 5.323 1.5 6 4.452 2.226 9.466 3.733 14 6 .516.258 7.5 5.465 7.5 3.5l-6-5c-5.615-5.615-5.716-10.5-15-10.5 0-.981-1.184-8-2-8-4.58 0-8.588 6.044-12.5 8-2.275 1.137-18.5-8.001-18.5-9.5 0-1.734 10.181-3.841 11.5-4.5l7-2c3.571-1.785 17.701-15.099 22.5-5.5 2.552 5.104-10 9.291-10 13.5v8Z"/><path fill="#FCFB90" id="CUL4, 5" d="M190 130c5.466 0 28.414 6.457 33.5 9 8.058 4.029 33.939-9 43.5-9l1-1 7-10.5c2.956-5.912 5.317-21.365 2-28-13.127-26.254-84.782-25.437-98 1-3.9 7.8.648 23.296 4 30 .957 1.913 7 7.51 7 8.5Z"/><path fill="#FDFB8F" id="SIM" d="M171 72c-6.137 0-6.146 11.791-8 15.5-3.583 7.167-7.158 30.671 2.5 35.5l10.5 1c0-3.292-3.44-11.38-5-14.5V72ZM285 72c6.373 0 6.149 10.797 8 14.5 3.794 7.588 7.976 31.262-2.5 36.5l-10.5 1 5-11.5V72Z"/><path fill="#CBC9CC" id="arb" d="M322 88c0 .749-3.66 1.92-1.5 3 1.546.773 3.887-3 1.5-3ZM318 91c0 4.136 2.609 0 0 0ZM315 93l-2 1.5c0 1.806 7.296-1.5 2-1.5Z"/><path fill="#FCFA91" id="ANcr2" fill-rule="evenodd" d="M86 144c0 1.93 1.93 0 0 0m29 4c-7.195 0-30.05 16-36 16-1.842 0-4.283 1-5.5 1-4.362 0-9.394-16.711-7.5-20.5 1.632-3.264.393-7.786 2-11 5.874-11.748 7.665-25.582 21.5-32.5 2.54-1.27 5.59-5 8.5-5 16.496 0 15.514 20.014 23.5 28 4.487 4.487 11.662 4.331 17 7 1.538.769 5.5-1.226 5.5 2 0 1.76-4.288 3.394-5.5 4-7.625 3.813-21.671 8.664-31 4l-10-3-6.5-3.5c-.606 1.212-4 8.097-4 9 0 1.169 5.831-1.5 6.5-1.5 5.062 0 9.802.901 14 3 1.692.846 7.5-.083 7.5 3Z"/><path fill="#FCFA91" id="ANcr2" d="M341 148c7.75 0 30.409 16 37 16 1.549 0 3.551 1 4.5 1 4.512 0 5.235-6.97 6.5-9.5 4.808-9.617-2.982-30.965-7-39-2.256-4.513-9.254-13.377-13.5-15.5l-9.5-5c-17.535 0-15.612 19.112-24.5 28-4.581 4.581-11.58 4.29-17 7-1.319.659-5.5-.334-5.5 2l4.5 4c3.93 1.965 8.162 3.081 12 5 5.133 2.566 25.99-1.995 30-4l6-4 2.5 6.5 4 4c0 1.08-6.722-2.111-7.5-2.5-3.412-1.706-15.142 1.571-18 3l-4.5 3Z"/><path fill="#FEFA90" id="DEC" d="m268 129-1 1 1-1Z"/><path fill="#FFFCBC" id="FN" d="M169 131c0 1.284-3.47 2.561-2 5.5 4.041 8.081 15.436 14.968 22.5 18.5 1.746.873 17.5-7.411 17.5-9.5 0-2.972-6.119-1.81-7.5-2.5l-1-2-8-1c-8.535-4.268-10.905-9-21.5-9ZM280 147c0-4.209 12.552-8.396 10-13.5-4.799-9.599-18.929 3.715-22.5 5.5l-7 2c-1.319.659-11.5 2.766-11.5 4.5 0 1.499 16.225 10.637 18.5 9.5 3.912-1.956 7.92-8 12.5-8Z"/><path fill="#FFFB8E" id="PRM" d="M113 201c-1.32 0-10 3.135-10 4-12.473 0-21.088-21.676-26-31.5-1.5-3.002 2-6.912 2-9.5 5.95 0 28.805-16 36-16 3.393 0-1.74 6.24-2.5 7-1.685 1.685-19.84 17.08-14 20 1.27.635 7.809-10.904 10-12 10.458-5.229 19.639-12.819 30-18 4.836-2.418 8.112-7.556 13-10 .935-.468 5.5-1.9 5.5 0-3.555 0-6.154 6.327-9.5 8-10.965 5.483-24.5 29.24-24.5 41-.231 0-7.192 17-10 17ZM343 201c1.717 0 10 2.709 10 4 15.32 0 21.592-23.684 27-34.5l-2-2V164c-6.591 0-29.25-16-37-16 0 7.217 8.846 13.346 14 18.5 1.078 1.078 6.608 6.946 3.5 8.5l-3.5-2.5c-1.69-3.379-5.509-9.504-9.5-11.5-9.606-4.803-18.453-11.227-28-16l-13-10c-.935-.468-5.5-1.9-5.5 0 4.566 0 8.519 8.01 12.5 10 9.277 4.638 21.5 27.822 21.5 39 .838 0 7.813 17 10 17Z"/><path fill="#FFF990" id="COPY" d="m141 191-9 10c0-4.905-9-14.955-9-17 0-11.76 13.535-35.517 24.5-41 3.346-1.673 5.945-8 9.5-8 8.425 0 6.572 9.357 4 14.5l-5 4-7 20c-2.308 4.615-8 10.146-8 15.5v2ZM315 188c0 2.574 7.138 13 9 13 0-4.938 9-13.825 9-17 0-11.178-12.223-34.362-21.5-39-3.981-1.99-7.934-10-12.5-10-4.144 0-8.166 5.168-6 9.5l10 14c1.969 3.938 2.552 11.105 5 16 1.953 3.906 7 8.99 7 13.5Z"/><path fill="#CBC9CC" id="arb" d="M86 144c0 1.93 1.93 0 0 0Z"/><path fill="#FFFA8F" id="UVU" d="M199 155c5.68 0 33.288-3.106 35.5-2 5.51 2.755 17.169 2 23.5 2 0-2.031-9.733-4.117-11.5-5-12.787-6.393-25.569-5.216-38 1-1.568.784-9.5 1.924-9.5 4Z"/><path fill="#F0F080" id="CB" d="M280 155h2c0-.981-1.184-8-2-8v8ZM175 154l2 1c0-6.434-2-8.45-2-1Z"/><path fill="#FDFC8F" id="NOD" d="M245 189h1l1-1 1-1h1l2-1h1l1-1h3c0-1.643 3.765-1 5-1h1c0-1.773 9.259-1 11-1 8.007 0 20.605-.552 27.5-4l8.5 3-10-10.5c-6.206-6.206-31.672-16.5-41-16.5-6.331 0-17.99.755-23.5-2-2.212-1.106-29.82 2-35.5 2-.835 0-14.838 1.669-15.5 2-6.259 3.13-13.105 10-20.5 10l-2 1-2 1c0 4.389-10 7.755-10 12 1.735 0 5.516-2.492 6.5-2 6.827 3.413 19.594 4 27.5 4 1.824 0 12-.781 12 1h1c1.145 0 4-.579 4 1h3l1 1h1l2 1 3 1 1 1h1c1.019 0 6.278 2.389 7.5 3 5.812 2.906 17.608-1 23.5-1 0-1.747.253-2 2-2Z"/><path fill="#FFFDBC" id="IP" d="m161 168-2 1-4 .5 3-3 7.5-9.5c1.389-.694 9.5-1.652 9.5-3l2 1c0 9.193-14 7.857-14 12l-2 1ZM280 155h2c9.284 0 9.385 4.885 15 10.5l6 5c0 1.965-6.984-3.242-7.5-3.5-4.534-2.267-9.548-3.774-14-6-1.353-.677-4.39-6-1.5-6Z"/><path fill="#CBC9CC" id="arb" d="m163 167-2 1 2-1ZM161 168l-2 1 2-1Z"/><path fill="#FFFDBC" id="IP" d="M154 170c0 1.93 1.93 0 0 0Z"/><path fill="#A9AAA7" id="V4r" d="M162 192c-3.686 0-6.177 3-10 3 0-3.844 10.251-5.001 12-8.5 1.488-2.976-7.7-6.4-9.5-5.5l-8.5 4 2-3 1-1c1.735 0 5.516-2.492 6.5-2 6.827 3.413 19.594 4 27.5 4v1c-5.102 0-8.712 3-13 3l-1 1-1 1h-1c-1.238 0-3 .423-3 2l-2 1ZM331 232l2.5 3 1.5-2c0-6.836-1-13.704-1-20l-2-5-8-7c-1.862 0-9-10.426-9-13-2.473 0-6-3.527-6-6l-8.5-3c-6.895 3.448-19.493 4-27.5 4v1c6.322 0 11.415 4 15 4 4.461 0 13.73 9 19 9 0-3.36-10.264-6.882-12.5-8l-2.5-3.5c1.644-3.289 3.611-2.055 6.5-3.5 9.463-4.731 17.358 11.215 20.5 17.5l12 11c1.157 2.315 1.521 7.99-1.5 9.5-3.104 1.552-7.821-11-10.5-11 0 3.448 6 6.349 6 10v1c1.577 0 2 1.762 2 3v1c1.577 0 2 1.762 2 3v1c1.577 0 2 1.762 2 3v1Z"/><path fill="#FDFC8F" id="NOD" d="m149 181-1 1 1-1Z"/><path fill="#A9AAA8" id="chpl" d="M133 215c-1.577 0-2 1.762-2 3-1.602 0-2.384 3.058-4.5 2-10.277-5.138 14.5-21.544 14.5-29 1.577 0 2-1.762 2-3l1-1 1-1 1-1 8.5-4c1.8-.9 10.988 2.524 9.5 5.5-1.749 3.499-12 4.656-12 8.5-1.238 0-3 .423-3 2-1.252 0-6 3.892-6 5l-1 1-1 1-1 1-1 1-2 3-1 1-1 1v1c-1.577 0-2 1.762-2 3ZM319 208v1c2.679 0 7.396 12.552 10.5 11 3.021-1.51 2.657-7.185 1.5-9.5l-12-11c-3.142-6.285-11.037-22.231-20.5-17.5-2.889 1.445-4.856.211-6.5 3.5l2.5 3.5c2.236 1.118 12.5 4.64 12.5 8 1.668 0 6 3.099 6 5l1 1 1 1 1 1 1 1 2 2Z"/><path fill="#AAA9A7" id="V4" d="M191 184h4c0-1.781-10.176-1-12-1v1h8ZM266 184h7v-1c-1.741 0-11-.773-11 1h4Z"/><path fill="#FFFC8D" id="PFL" d="M124 208c-2.18 0-5.188 1-7 1l-4-1v-7c2.808 0 9.769-17 10-17 0 2.045 9 12.095 9 17l-7 6-1 1Z"/><path fill="#FEB1D9" id="SPIV" d="M187 203c-3.614 0-6.899 4-11 4-6.442 0-8-5.48-8-11l-1-4v-3h1l1-1 1-1c4.288 0 7.898-3 13-3h8v10.5l-4 8.5Z"/><path fill="#FFB0D7" id="MV" d="m205 205 5 1 4-3 1-1 2-5c0-3.435-5-5.249-5-8h-1l-1-1-3-1-2-1h-1l-1-1h-3c-1.145 0-4 .579-4-1h-5v10.5l-4 8.5c3.113 0 18-.395 18 2Z"/><path fill="#AAA9A7" id="V4" d="M196 184c1.145 0 4-.579 4 1-1.145 0-4 .579-4-1ZM261 184c-1.235 0-5-.643-5 1 1.235 0 5 .643 5-1Z"/><path fill="#FFB0D7" id="MV" d="M252 205c-2.124 0-4.436 1-6 1l-4-3v-1l-1-1-2-4v-2l4-4 2-2h1l1-1 1-1h1l2-1h1l1-1h3c1.235 0 5 .643 5-1h4v1c0 6.952 4 12.202 4 18-2.938 0-17-.209-17 2Z"/><path fill="#FF9BCD" id="MY" d="m266 184-1 1v-1h1Z"/><path fill="#FEB1D9" id="SPIV" d="M269 203c3.826 0 7.744 4 12 4 4.52 0 5.234-1.969 7-5.5.574-1.147-1.064-4.5 1-4.5 0-2.011 1-3.989 1-6l-2-3c-3.585 0-8.678-4-15-4h-7l-1 1c0 6.952 4 12.202 4 18Z"/><path fill="#FFFC8D" id="PFL" d="M340 209h2l1-1c0-1.639 2-2.455 2-3.5s-2-1.861-2-3.5c-2.187 0-9.162-17-10-17 0 3.175-9 12.062-9 17l8 7 7 2 1-1Z"/><path fill="#A9AAA7" id="V4r" d="m146 185-1 1 1-1Z"/><path fill="#AAA9A7" id="V4" d="m203 185 1 1-1-1ZM253 185l-1 1 1-1Z"/><path fill="#A9AAA7" id="V4r" d="m145 186-1 1 1-1Z"/><path fill="#AAA9A7" id="V4" d="m205 186 2 1-2-1ZM251 186l-2 1 2-1Z"/><path fill="#A9AAA7" id="V4r" d="m144 187-1 1 1-1Z"/><path fill="#FF9BCD" id="MY" d="m170 187-1 1 1-1Z"/><path fill="#AAA9A7" id="V4" d="m248 187-1 1 1-1Z"/><path fill="#A9AAA7" id="V4r" d="M141 189v2c1.577 0 2-1.762 2-3l-2 1Z"/><path fill="#FF9BCD" id="MY" d="m169 188-1 1 1-1Z"/><path fill="#AAA9A7" id="V4" d="m210 188 1 1-1-1ZM247 188l-1 1 1-1Z"/><path fill="#FF9BCD" id="MY" d="M285 213c4.101 0 7.281-8.109 13.5-5 2.324 1.162 15.655 10 16.5 10 0-3.948-18-12.516-18-14.5 0-3.941 8 .819 8-1.5l-4-4.5c0-1.513 4.234.367 4.5.5 2.445 1.222 7.5 4.876 7.5 8l4 5c4.018 0 3.982 8 8 8 0-3.651-6-6.552-6-10v-1l-2-2-1-1-1-1-1-1-1-1c0-1.901-4.332-5-6-5-5.27 0-14.539-9-19-9l2 3c4.425 0 11.359 8 5 8 0 10.007-11.601-1-3-1 0-1.473-1.952-1-3-1-2.064 0-.426 3.353-1 4.5-1.766 3.531-2.48 5.5-7 5.5 0 2.33 4 3.227 4 6ZM164 191l3 1v-3c-1.238 0-3 .423-3 2Z"/><path fill="#AAA9A7" id="V4" d="M217 197h2l-1-3.5c.071-.142 21-2.219 21 1.5l4-4c-5.892 0-17.688 3.906-23.5 1-1.222-.611-6.481-3-7.5-3 0 2.751 5 4.565 5 8ZM245 189c-1.747 0-2 .253-2 2l2-2Z"/><path fill="#A9AAA7" id="V4r" d="m125 233-3 1v-21c1.014 0 2-3.959 2-5l1-1 7-6 9-10c0 7.456-24.777 23.862-14.5 29 2.116 1.058 2.898-2 4.5-2v3l-1 1-1 2v1l-1 1-1 1v2l-1 1-1 2v1Z"/><path fill="#FF9BCD" id="MY" d="m164 191-2 1 2-1Z"/><path fill="#FFA2D2" id="ECU" d="m165 198-4 1c-3.544 0 1-6.627 1-7l2-1 3 1 1 4-3 2ZM294 199h1c6.359 0-.575-8-5-8 0 2.011-1 3.989-1 6 1.048 0 3-.473 3 1h1l1 1Z"/><path fill="#FF9BCD" id="MY" d="M131 218v2l4-3c0-2.005 4-7.743 4-6l4-4c0-3.573 10.677-12.147 12-9.5.956 1.911-4 3.533-4 5.5l3.5-1c1.619-.81 5.777-.053 4.5 2.5-1.138 2.276-9 3.44-9 6.5 4.356 0 10.179-5.66 15.5-3l5.5 5c0-3.079 5-4.308 5-6-6.442 0-8-5.48-8-11l-3 2c6.595 0-4 11.359-4 1-3.544 0 1-6.627 1-7-3.686 0-6.177 3-10 3 0 1.577-1.762 2-3 2-1.252 0-6 3.892-6 5l-1 1-1 1-1 1-1 1-2 3-1 1-1 1v1c0 1.238-.423 3-2 3 0 1.238-.423 3-2 3Z"/><path fill="#A9AAA8" id="chpl" d="m232 205-1 1c-6.052 0-7.143-5-10-5v-1l-2-2v-1l-1-3.5c.071-.142 21-2.219 21 1.5l-1 2-1 1-1 2-1 1-1 1-1 1-1 2Z"/><path fill="#A9AAA7" id="V4r" d="M152 195c-1.238 0-3 .423-3 2 1.238 0 3-.423 3-2Z"/><path fill="#AAA9A7" id="V4" d="M238 197h1v-2l-1 2Z"/><path fill="#C9C9C8" id="icp" d="m151 203-8 4c0-3.573 10.677-12.147 12-9.5.956 1.911-4 3.533-4 5.5Z"/><path fill="#FFB3D7" id="PRP" d="m232 205-1 1c0 5.437-10-2.167-10-5v-1l-2-2v-1h-2l-2 5-1 1-1 7.5c3.351 6.703 25.978 8.045 30 0l-1-7.5v-1l-1-1-2-4h-1l-1 1-1 2-1 1-1 1-1 1-1 2Z"/><path fill="#AAA9A7" id="V4" d="m238 197-1 1 1-1Z"/><path fill="#C9C9C8" id="icp" d="M305 202c1.177 0 8 6.389 8 4 0-3.124-5.055-6.778-7.5-8-.266-.133-4.5-2.013-4.5-.5l4 4.5Z"/><path fill="#FFB0D9" id="x" d="M165 198c6.595 0-4 11.359-4 1l4-1Z"/><path fill="#AAA9A7" id="V4" d="m219 198 2 2-2-2Z"/><path fill="#FFB0D9" id="x" d="M294 199h1c0 10.007-11.601-1-3-1h1l1 1Z"/><path fill="#FF9BCD" id="MY" d="m293 198 1 1-1-1Z"/><path fill="#AAA9A7" id="V4" d="m236 200-1 1 1-1Z"/><path fill="#F0F080" id="CB" d="m103 205 10 3v-7c-1.32 0-10 3.135-10 4Z"/><path fill="#AAA9A7" id="V4" d="M221 201c2.857 0 3.948 5 10 5 0 5.437-10-2.167-10-5ZM235 201l-1 1 1-1Z"/><path fill="#FF9BCD" id="MY" d="m241 201 1 1-1-1Z"/><path fill="#F0F080" id="CB" d="m353 205-10 3c0-1.639 2-2.455 2-3.5s-2-1.861-2-3.5c1.717 0 10 2.709 10 4Z"/><path fill="#A9AAA7" id="V4r" d="m143 202-1 1 1-1Z"/><path fill="#C8CACA" id="sptV" d="m139 273 5 2 2.5 1c3.092 0 3.656-2.188 2.5-4.5-.746-1.491-6 .149-6-2.5h-1l-1-1h-1l-3-2-1-1-1-1v-1l-2-2v-1l-1-1v-1l-1-2v-1l-1-2v-1l-1-2v-6c0-1.048-.473-3 1-3v-2c0-1.145-.579-4 1-4v-1l1-2v-1l1-1v-1l1-1 1-1v-1l1-1 1-1 1-1 1-1 1-1 1-2 1-1 1-1c0-1.747.253-2 2-2 0-1.747.253-2 2-2 0-1.577 1.762-2 3-2 0-3.06 7.862-4.224 9-6.5 1.277-2.553-2.881-3.31-4.5-2.5l-3.5 1-8 4-4 4c0 1.417-2.383 6-4 6 0 4.136-6.117 10.735-8 14.5-3.149 6.298-3 13.857-3 21.5v1c1.473 0 1 1.952 1 3v1l2 4v1l2 2v1l1 1 1 1c1.6 0 8 3.116 8 5Z"/><path fill="#FF9BCD" id="MY" d="m215 202-1 1 1-1Z"/><path fill="#AAA9A7" id="V4" d="m234 202-1 1 1-1Z"/><path fill="#C8CACA" id="sptV" d="m312 275-1 1c-1.408 0-5-1.197-5-3l1-1 6-3h2l1-1 1-1h1l1-1 1-1 1-1 1-1 1-2 1-2 1-2v-2l1-1v-1l1-2v-2c1.486 0 1.486-3 0-3v-5c0-1.593-.337-7-2-7v-1c0-1.238-.423-3-2-3v-1l-1-1-1-2-2-2-1-2-3-3v-1c0-3.948-18-12.516-18-14.5 0-3.941 8 .819 8-1.5 1.177 0 8 6.389 8 4l4 5 12 19.5c.826 1.652 2.448 12.5 4 12.5v8c-1.643 0-1 3.765-1 5-1.473 0-1 1.952-1 3l-1 2v1l-1 1v1l-1 1-1 1-1 1-1 1-1 1c-1.717 0-5 1.379-5 3l-2 1-5 2Z"/><path fill="#A9AAA7" id="V4r" d="m313 202 1 1-1-1ZM142 203l-1 1 1-1Z"/><path fill="#FDA5D1" id="NTS" d="M177 221h2c4.783 0 10.26-2 16-2l7-3c0-1.24 2-1.576 2-4-4.988 0-5.315-7 1-7 0-2.395-14.887-2-18-2-3.614 0-6.899 4-11 4 0 1.692-5 2.921-5 6l6 8Z"/><path fill="#FF9BCD" id="MY" d="m227 242 2 1v-21.5c1.504-3.008 2 2.788 2 3.5l3-1c0-8.559 10-10.001 10-1 1.993 0 6.391-7 10-7l-2-4c-5.113 0-6-2.41-6-6l-4-3 1 7.5c-4.022 8.045-26.649 6.703-30 0l1-7.5-4 3c0 4.379.002 6-6 6 0 2.424-2 2.76-2 4 3.832 0 10 4.871 10 9l1-1-1-4.5c1.83-3.66 9.17-3.66 11 0l-1 4.5 3 1c0-.712.496-6.508 2-3.5 2.702 5.404 0 15.152 0 20.5Z"/><path fill="#AAA9A7" id="V4" d="m233 203-1 2 1-2Z"/><path fill="#FDA5D1" id="NTS" d="M278 221h2c0-3.71 5-4.986 5-8 0-2.773-4-3.67-4-6-4.256 0-8.174-4-12-4-2.938 0-17-.209-17 2 6.292 0 5.494 7 0 7l2 4h1l1 1 5 2h1c5.914 0 10.861 2 16 2Z"/><path fill="#A9AAA7" id="V4r" d="m141 204-1 1 1-1ZM315 204l1 1-1-1ZM140 205l-1 1 1-1Z"/><path fill="#FDB1D8" id="DMX" d="M210 206c0 4.379.002 6-6 6-4.988 0-5.315-7 1-7l5 1Z"/><path fill="#AAA9A7" id="V4" d="m232 205-1 1 1-1Z"/><path fill="#FDB1D8" id="DMX" d="M246 206c0 3.59.887 6 6 6 5.494 0 6.292-7 0-7-2.124 0-4.436 1-6 1Z"/><path fill="#A9AAA7" id="V4r" d="m317 206 2 2-2-2Z"/><path fill="#F0F080" id="CB" d="m125 207-1 1 1-1ZM117 209c0 1.811 3.438 4 5 4 1.014 0 2-3.959 2-5-2.18 0-5.188 1-7 1Z"/><path fill="#FDA5D2" id="SPVI" d="M143 269h6c8.955 0 7.163-22.825 10-28.5 3.425-6.85 18-9.659 18-18.5v-1l-6-8-5.5-5c-5.321-2.66-11.144 3-15.5 3 0 1.577-1.762 2-3 2l-2 2-2 2-1 1-1 1-1 2-1 1-1 1-1 1-1 1-1 1v1l-1 1-1 1v1l-1 1v1l-1 2v1c0 1.145.579 4-1 4v2c0 1.048.473 3-1 3v6l1 2v1l1 2v1l1 2v1l1 1v1l2 2v1l1 1 1 1c1.238 0 3 .423 3 2h1l1 1h1ZM313 269h2l1-1 1-1h1l1-1 1-1 1-1 1-1 1-2 1-2 1-2v-2l1-1v-1l1-2v-10c-1.175 0-2-5.704-2-7v-1l-2-3v-1l-1-1-1-2-2-2-1-2-3-3v-1c-.845 0-14.176-8.838-16.5-10-6.219-3.109-9.399 5-13.5 5 0 3.014-5 4.29-5 8v2c0 8.487 14.365 11.231 17 16.5 2.763 5.526 2.047 29.5 10 29.5h6Z"/><path fill="#F0F080" id="CB" d="M339 210c0 1.077-3.762 3-5 3l-2-5 7 2ZM343 208l-1 1 1-1Z"/><path fill="#A9AAA7" id="V4r" d="m137 209-1 1 1-1Z"/><path fill="#F0F080" id="CB" d="m340 209-1 1 1-1Z"/><path fill="#A9AAA7" id="V4r" d="m136 210-1 1 1-1Z"/><path fill="#C9C9C8" id="icp" d="M139 211c0 1.417-2.383 6-4 6 0-2.005 4-7.743 4-6Z"/><path fill="#FF9BCD" id="MY" d="M150 211c-1.238 0-3 .423-3 2 1.238 0 3-.423 3-2Z"/><path fill="#C9C9C8" id="icp" d="M331 232c0 3.62 2 6.768 2 11-1.552 0-3.174-10.848-4-12.5L317 211c4.018 0 3.982 8 8 8v1l2 3v1l2 3v1l2 3v1Z"/><path fill="#A9AAA7" id="V4r" d="M135 212c-1.577 0-2 1.762-2 3 1.577 0 2-1.762 2-3Z"/><path fill="#FF9BCD" id="MY" d="M147 213c-1.747 0-2 .253-2 2l2-2Z"/><path fill="#A9AAA7" id="V4r" d="M133 215c-1.577 0-2 1.762-2 3 1.577 0 2-1.762 2-3Z"/><path fill="#FF9BCD" id="MY" d="M145 215c-1.747 0-2 .253-2 2l2-2Z"/><path fill="#FFB2D8" id="IRN" fill-rule="evenodd" d="M188 245c0 1.465-4.394 1.711-3 4.5 5.077 10.154 24.217-3.5 7-3.5l-4-1m-10 20h5c2.029 0 1.881-1.191 3.5-2 2.364-1.182 5.696 1 7.5 1 0-7.095 18-31.709 18-39 0-4.129-6.168-9-10-9l-7 3c0 2.02-16.477 30.977-18.5 33-1.803 1.803-3.451 9-6.5 9v1h1l2 2 2 1h3ZM266 245c0 2.215-10.592 1.316-9 4.5 5.471 10.941 20.693-4.5 9-4.5m14 20h1l1-1h1l1-1h1l1-1-5-7.5c-2.799-5.598-19-30.856-19-34.5l-1-1-5-2-1-1h-1c-3.609 0-8.007 7-10 7v2c2.029 0 3.233 6.967 4 8.5l15 30.5c1.606 0 4.339-2.081 6.5-1l3.5 2h7Z"/><path fill="#FF9BCD" id="MY" d="m255 216 1 1-1-1Z"/><path fill="#C9C9C8" id="icp" d="M123 253h1c0-7.643-.149-15.202 3-21.5 1.883-3.765 8-10.364 8-14.5l-4 3v1l-1 1-1 2v1l-1 1-1 1v2l-1 1-1 2v1c0 5.624-2 11.494-2 18v2Z"/><path fill="#FF9BCD" id="MY" d="m143 217-1 1 1-1Z"/><path fill="#FCB3D8" id="PGRNd" d="M213 224h9l1-4.5c-1.83-3.66-9.17-3.66-11 0l1 4.5ZM234 224h9l1-1c0-9.001-10-7.559-10 1Z"/><path fill="#FF9BCD" id="MY" d="m142 218-1 1 1-1ZM141 219l-1 2 1-2Z"/><path fill="#FCB3D9" id="PARN" d="M154 275h1c2.25 0 3.376-2 5-2l4-4c-5.28 0 5.006-15.511 6-17.5l3.5-2.5c2.424 1.212-3.5 10.154-3.5 12 3.049 0 4.697-7.197 6.5-9 2.023-2.023 18.5-30.98 18.5-33-5.74 0-11.217 2-16 2l-2 1c0 8.841-14.575 11.65-18 18.5-2.837 5.675-1.045 28.5-10 28.5 0 3.506 5 3.428 5 6Z"/><path fill="#FF9BCD" id="MY" d="M262 219v1l-1-1h1Z"/><path fill="#FCB3D9" id="PARN" d="M301 275h2c0-1.577 1.762-2 3-2l1-1v-3c-7.953 0-7.237-23.974-10-29.5-2.635-5.269-17-8.013-17-16.5l-2-2c-5.139 0-10.086-2-16-2v1c0 3.644 16.201 28.902 19 34.5l5 7.5 2 2 2 2c0-4.408-7-8.236-7-13l-.5-4c2.954-1.477 9.334 12.168 10.5 14.5.468.935 1.9 5.5 0 5.5l3 4 5 2Z"/><path fill="#FF9BCD" id="MY" d="m315 219 3 3-3-3ZM325 220c1.577 0 2 1.762 2 3l-2-3ZM131 221l-1 1 1-1ZM179 221l-2 1v-1h2Z"/><path fill="#CBCBCC" id="mlf" d="M225 225c0 4.107-.722 9.055 1 12.5.052.103 1 7.863 1 4.5 0-5.348 2.702-15.096 0-20.5-1.504-3.008-2 2.788-2 3.5ZM231 225v13.5c0 1.76-2 6.552-2 4.5v-21.5c1.504-3.008 2 2.788 2 3.5Z"/><path fill="#FF9BCD" id="MY" d="M280 221v2l-2-2h2ZM130 222l-1 2 1-2ZM139 222l-1 1 1-1ZM138 223l-1 1 1-1ZM243 224l1 1v-2l-1 1Z"/><path fill="#FEB0D8" id="GRN" fill-rule="evenodd" d="m241 262-1 3.5c1.451 2.902 8.467 10.516 12.5 8.5 6.472-3.236-6.796-12-11.5-12m-30 0c0 1.366-13.941 8.28-6.5 12 4.145 2.073 19.464-12 6.5-12m28 9c5.432 0 10.932 9.784 18.5 6 1.046-.523 3.5.951 3.5-1 0-2.207-5.304-12 2-12l-15-30.5c-.767-1.533-1.971-8.5-4-8.5l-1-1h-9l-3 1v13.5c0 1.76-2 6.552-2 4.5l-2-1c0 3.363-.948-4.397-1-4.5-1.722-3.445-1-8.393-1-12.5l-3-1h-9l-1 1c0 7.291-18 31.905-18 39l3 3.5c1.619 3.237-2 6.105-2 8.5 3.93 0 6.949 3.275 11.5 1 2.261-1.131 8.238-6 10.5-6l1-1c5.924 0 2.144-15 9-15 0-4.907 2-5.671 2 0 6.492 0 3.999 7.498 6 11.5.595 1.19 4 2.317 4 4.5Z"/><path fill="#FF9BCD" id="MY" d="m319 224 2 2-2-2ZM327 224c1.577 0 2 1.762 2 3l-2-3ZM129 225l-1 1 1-1ZM136 225l-1 1 1-1ZM128 226l-1 1 1-1ZM135 227l-1 1 1-1ZM134 228l-1 1 1-1ZM322 228l1 1-1-1ZM329 228c1.577 0 2 1.762 2 3l-2-3ZM127 229l-1 1 1-1ZM126 230l-1 2 1-2ZM133 230l-1 1 1-1ZM323 230c1.577 0 2 1.762 2 3l-2-3ZM132 232l-1 2 1-2ZM333 251v3c1.665 0 1-4.222 1-5.5 0-4.497 1-10.358 1-15.5l-1.5 2-2.5-3c0 3.62 2 6.768 2 11v8ZM122 234v13c0 1.145-.579 4 1 4 0-6.506 2-12.376 2-18l-3 1ZM325 234c1.663 0 2 5.407 2 7-1.175 0-2-5.704-2-7ZM131 235c-1.579 0-1 2.855-1 4 1.579 0 1-2.855 1-4ZM130 241c-1.473 0-1 1.952-1 3 1.473 0 1-1.952 1-3Z"/><path fill="#FFB1D8" id="LIN" d="M188 245c0 1.465-4.394 1.711-3 4.5 5.077 10.154 24.217-3.5 7-3.5l-4-1ZM266 245c0 2.215-10.592 1.316-9 4.5 5.471 10.941 20.693-4.5 9-4.5Z"/><path fill="#FF9BCD" id="MY" d="M327 246c1.486 0 1.486 3 0 3v-3Z"/><path fill="#FFB1D8" id="LIN" d="m165 268-1 1c-5.28 0 5.006-15.511 6-17.5l3.5-2.5c2.424 1.212-3.5 10.154-3.5 12l-1 2-1 1-1 1v1l-1 1-1 1ZM292 269h1c1.9 0 .468-4.565 0-5.5-1.166-2.332-7.546-15.977-10.5-14.5l.5 4c0 4.764 7 8.592 7 13l1 2 1 1Z"/><path fill="#FF9BCD" id="MY" d="m129 250 1 2-1-2Z"/><path fill="#FEC6E2" id="RO" d="m230 267-1 2c-1.747 0-2-.253-2-2v-12c0-4.907 2-5.671 2 0l1 12Z"/><path fill="#FF9BCD" id="MY" d="m327 251-1 2 1-2Z"/><path fill="#C9C9C8" id="icp" d="M332 256h1v-5c-1.643 0-1 3.765-1 5Z"/><path fill="#FF9BCD" id="MY" d="M125 258v2c-1.663 0-2-5.407-2-7h1v1c0 1.048-.473 3 1 3v1ZM130 253l1 2-1-2Z"/><path fill="#C9C9C8" id="icp" d="M124 254c1.473 0 1 1.952 1 3-1.473 0-1-1.952-1-3Z"/><path fill="#FF9BCD" id="MY" d="m326 254-1 1 1-1Z"/><path fill="#C8C8CC" id="tspc" d="m221 274-2 1c-2.109 0-2-2.535-2-4l1-1c5.924 0 2.144-15 9-15v12l-1 2c-1.758 0-5 3.168-5 5ZM236 274l3 1v-4c0-2.183-3.405-3.31-4-4.5-2.001-4.002.492-11.5-6-11.5l1 12 1 2 5 5Z"/><path fill="#FF9BCD" id="MY" d="m131 256 1 2-1-2Z"/><path fill="#C9C9C8" id="icp" d="M331 259h1v-3c-1.473 0-1 1.952-1 3Z"/><path fill="#FF9BCD" id="MY" d="M333 256c0 1.048.473 3-1 3v-3h1ZM325 257l-1 2 1-2Z"/><path fill="#C9C9C8" id="icp" d="m125 261 2 1-2-4v3Z"/><path fill="#FF9BCD" id="MY" d="m132 259 1 1-1-1ZM324 259l-1 2 1-2Z"/><path fill="#C9C9C8" id="icp" d="M330 261h1v-2l-1 2Z"/><path fill="#FF9BCD" id="MY" d="m332 259-1 2v-2h1ZM248 291c-1.423 0-3.544-1.978-5.5-1-1.839.92-4.266.133-6 1-7.481 3.741 15.794 11.912 17.5 8.5l-5-7.5c4.14 0 5.184 9.158 11.5 6 1.523-.762 1.168-4.164.5-5.5l-1.5-2.5 6 5 5.5-.5c0-2.581-8.037-4.768-9.5-5.5-7.863-3.932-13.047-14-22.5-14v-4c5.432 0 10.932 9.784 18.5 6 1.046-.523 3.5.951 3.5-1l4 2c0 3.985 2.396 4.292 4 7.5 4.335 8.67 10.962-.5 16-.5 0 7.137 3.618 1 8 1v1c0 1.728-7.11 3.305-8.5 4-1.749.875-5.919 4.959-2 3 1.718-.859 2.387-1 4.5-1 0 1.432-8.963 4-10.5 4-7.534 0-25.29 7.855-33 4l-13-6-3-2c-5.892 2.946-20.539 12.73-30 8-5.976-2.988-14.106-1.053-20-4-8.797-4.399-18.099-7.55-27-12-6.367-3.184-25.5-15.451-25.5-24l2 1v1l2 2v1l1 1 1 1 4 5 4 4 1 1 11.5 7c.778.389 3.5 1.961 3.5 0h1l2 2h1c0 2.846 25.245 10.372 12.5 4l-3-1-5.5-3 1-1c5.155 0 7 5.404 7-1 6.079 0 8.366 9.134 16.5 1 1.917-1.917 3.5-4.21 3.5-7l4-3c3.93 0 6.949 3.275 11.5 1 2.261-1.131 8.238-6 10.5-6 0 1.465-.109 4 2 4 0 2.203-3.037-.732-6.5 1-7.66 3.83-12.483 10.242-20 14l-7.5 4.5 3.5.5c1.502 0 8.5-3.936 8.5-3.5l-2 2c-3.131 6.263 6.33 3.5 8 3.5 0 10.06 28.558-6 13.5-6l-2.5-1-6 1c0-4.832 7.819-.66 10.5-2l6.5-4c0 6.003 6 6.476 6 0 2.068 0 4.255 2.877 6.5 4 2.877 1.439 10.5-2.906 10.5 2ZM133 261l2 2-2-2Z"/><path fill="#FCB3D9" id="PARN" d="M169 263h1v-2l-1 2Z"/><path fill="#FF9BCD" id="MY" d="m323 261-1 2 1-2ZM330 262v1l1-2h-1v1ZM170 263h1v-1h-1v1Z"/><path fill="#FEB3D6" id="AMBd" d="M171 264h2l-2-2v2Z"/><path fill="#FDB2D9" id="MARN" d="M211 262c0 1.366-13.941 8.28-6.5 12 4.145 2.073 19.464-12 6.5-12ZM241 262l-1 3.5c1.451 2.902 8.467 10.516 12.5 8.5 6.472-3.236-6.796-12-11.5-12Z"/><path fill="#FF9BCD" id="MY" d="m285 263 3 1-2-2-1 1Z"/><path fill="#C9C9C8" id="icp" d="M329 263h1v-1l-1 1ZM127 263l2 2-2-2Z"/><path fill="#FCB3D9" id="PARN" d="m169 263-1 1 1-1Z"/><path fill="#FCB2D9" id="PGRNl" d="M191 279c0 2.79-1.583 5.083-3.5 7-8.134 8.134-10.421-1-16.5-1 0-1.712-5.077-12.211-5.5-12-1.825.912.167 4-3.5 4l-2-4 4-4 1-1 1-1 1-1v-1l1-1 1-1h2v3c0 3.22 5 5.688 5 3l1-1v-1l1-2h5c0 9.727 8 11.853 8 14Z"/><path fill="#FCB3D7" id="LRNm" d="m195 276-4 3c0-2.147-8-4.273-8-14 2.029 0 1.881-1.191 3.5-2 2.364-1.182 5.696 1 7.5 1l3 3.5c1.619 3.237-2 6.105-2 8.5ZM261 276l4 2c2.378 0 7.852-5.205 9-7.5l-1-4.5v-1l-3.5-2c-2.161-1.081-4.894 1-6.5 1-7.304 0-2 9.793-2 12Z"/><path fill="#FF9BCD" id="MY" d="M285 264v1l-2-1 1-1 1 1Z"/><path fill="#FEB3D6" id="AMBd" d="M285 263v1l-1-1h1Z"/><path fill="#FCB2D9" id="PGRNl" d="M265 278c0 3.985 2.396 4.292 4 7.5 4.335 8.67 10.962-.5 16-.5 0-.972 4.926-12 5.5-12l3.5 4c2.109 0 2-2.535 2-4l-3-4h-1l-1-1-1-2-2-2-3-1v4c1.186 0 1.186 1 0 1v1l-1 1c-1.465 0-4 .109-4-2l-2-3h-4l-1 1 1 4.5c-1.148 2.295-6.622 7.5-9 7.5Z"/><path fill="#FF9BCD" id="MY" d="m322 263-1 1 1-1ZM329 264v1l1-2h-1v1ZM135 264l1 1-1-1Z"/><path fill="#FCB3D9" id="PARN" d="m168 264-1 1 1-1Z"/><path fill="#FF9BCD" id="MY" d="m175 265-4 1v-2h2l2 1ZM282 264l-1 1 1-1Z"/><path fill="#FEB3D8" id="AMBv" d="m285 269-1 1c-1.465 0-4 .109-4-2v-3h1l1-1h1l2 1v4Z"/><path fill="#C9C9C8" id="icp" d="M328 265h1v-1l-1 1Z"/><path fill="#FEB3D8" id="AMBv" d="m177 268-1 1c0 2.688-5 .22-5-3l4-1h1l1 2v1Z"/><path fill="#FF9BCD" id="MY" d="m178 265-1 2-1-2h2ZM274 265l-1 1v-1h1ZM280 265v3l-2-3h2ZM320 265l-1 1 1-1ZM321 273v2c2.422 0 8-8.023 8-10h-1l-1 1-1 1-1 1-1 1-3 4Z"/><path fill="#C9C9C8" id="icp" d="m129 266 1 1-1-1Z"/><path fill="#FF9BCD" id="MY" d="M137 266c1.238 0 3 .423 3 2l-3-2Z"/><path fill="#FCB3D9" id="PARN" d="m167 266-1 1 1-1Z"/><path fill="#FF9BCD" id="MY" d="m319 266-1 1 1-1Z"/><path fill="#C9C9C8" id="icp" d="m327 266-1 1 1-1Z"/><path fill="#FCB3D9" id="PARN" d="m166 267-1 1 1-1Z"/><path fill="#FF9BCD" id="MY" d="M227 278h2v-9c-1.747 0-2-.253-2-2l-1 2c2.388 0 1 8.123 1 9ZM229 269h2l-1-2-1 2ZM285 267c1.186 0 1.186 1 0 1v-1ZM317 267l-1 1 1-1Z"/><path fill="#C9C9C8" id="icp" d="m326 267-1 1 1-1ZM135 273h4c0-1.884-6.4-5-8-5l4 5Z"/><path fill="#FF9BCD" id="MY" d="m141 268 1 1-1-1Z"/><path fill="#FCB3D9" id="PARN" d="m165 268-1 1 1-1Z"/><path fill="#FF9BCD" id="MY" d="m177 268-1 1 1-1Z"/><path fill="#FCB3D9" id="PARN" d="m291 268 1 1-1-1Z"/><path fill="#FF9BCD" id="MY" d="m316 268-1 1 1-1Z"/><path fill="#C9C9C8" id="icp" d="m325 268-1 1 1-1Z"/><path fill="#FF9BCD" id="MY" d="M154 275c-2.715 0-3 1.657-3 4-1.572 0-7-2.052-7-4l2.5 1c3.092 0 3.656-2.188 2.5-4.5-.746-1.491-6 .149-6-2.5h6c0 3.506 5 3.428 5 6Z"/><path fill="#FFB3D8" id="IO" fill-rule="evenodd" d="M204 290c0 .317-4.499 5-2.5 5 .93 0 5.384-5 2.5-5m1-1c0 1.93 1.93 0 0 0m1-1c0 1.93 1.93 0 0 0m1-1c0 1.93 1.93 0 0 0m1-1c0 1.93 1.93 0 0 0m1-1c0 1.93 1.93 0 0 0m2-2c0 3.479 3.479 0 0 0m2-1c0 1.93 1.93 0 0 0m1-1c0 1.93 1.93 0 0 0m1-1c0 1.93 1.93 0 0 0m1-1c0 1.93 1.93 0 0 0m1-2c0 3.746 2.091 0 0 0m-13 19-1 1c-1.67 0-11.131 2.763-8-3.5l2-2c0-.436-6.998 3.5-8.5 3.5l-3.5-.5 7.5-4.5c7.517-3.758 12.34-10.17 20-14 3.463-1.732 6.5 1.203 6.5-1l2-1c0-1.832 3.242-5 5-5 2.388 0 1 8.123 1 9 0 2.124-1 4.436-1 6l-1 1-6.5 4c-2.681 1.34-10.5-2.832-10.5 2l-1 1-1 1-1 2-1 1ZM244 283l10.5 12c2.138 0-2.676-4.676-3-5l-7.5-7m-5-4c0 7.453 7.995 0 0 0m9 12 1 1c4.14 0 5.184 9.158 11.5 6 1.523-.762 1.168-4.164.5-5.5l-1.5-2.5 6 5 5.5-.5c0-2.581-8.037-4.768-9.5-5.5-7.863-3.932-13.047-14-22.5-14 0 4.733-3 1.482-3-1l-5-5h-2v9l1 5 1 1v1c2.068 0 4.255 2.877 6.5 4 2.877 1.439 10.5-2.906 10.5 2Z"/><path fill="#FF9BCD" id="MY" d="m285 269-1 1 1-1ZM313 269l-6 3v-3h6Z"/><path fill="#C9C9C8" id="icp" d="m319 272 2 1 3-4c-1.717 0-5 1.379-5 3Z"/><path fill="#FF9BCD" id="MY" d="m218 270-1 1 1-1Z"/><path fill="#C9CACA" id="sctd" d="M151 279c0 2.773 4 3.67 4 6 0 1.961-2.722.389-3.5 0l-11.5-7-1-1-4-4h4l5 2c0 1.948 5.428 4 7 4Z"/><path fill="#FF9BCD" id="MY" d="m307 272-1 1 1-1Z"/><path fill="#C9C9C8" id="icp" d="m319 272-2 1 2-1Z"/><path fill="#C9CACA" id="sctd" d="M301 286h2l2-1 2-1 2-1 2-1 1-1h1l1-1 1-1 2-1 1-1c0-1.577 1.762-2 3-2v-2l-2-1-2 1-5 2-1 1c0 1.077-3.762 3-5 3 0 1.442-3.274 6-5 6v1Z"/><path fill="#FF9BCD" id="MY" d="m162 277-1 1-6-3c2.25 0 3.376-2 5-2l2 4Z"/><path fill="#C8C8CB" id="rust" d="M171 285c0 6.404-1.845 1-7 1 0-3.351-3-5.596-3-8l1-1c3.667 0 1.675-3.088 3.5-4 .423-.211 5.5 10.288 5.5 12ZM285 285c0 7.137 3.618 1 8 1 0-3.309 2-5.533 2-8l-1-1-3.5-4c-.574 0-5.5 11.028-5.5 12Z"/><path fill="#FF9BCD" id="MY" d="m294 277 1 1 6-3-5-2c0 1.465.109 4-2 4ZM311 276c0 1.077-3.762 3-5 3 0-2.061-.902-4-3-4 0-1.577 1.762-2 3-2 0 1.803 3.592 3 5 3ZM221 274l-2 1 2-1ZM236 274l3 1c0 4.733-3 1.482-3-1Z"/><path fill="#FEB0D9" id="LRNp" d="M159 287h4l1-1c0-3.351-3-5.596-3-8l-6-3h-1c-2.715 0-3 1.657-3 4 0 2.773 4 3.67 4 6h1l2 2h1ZM297 287h1l2-1 1-1c1.726 0 5-4.558 5-6 0-2.061-.902-4-3-4h-2l-6 3c0 2.467-2 4.691-2 8v1h4Z"/><path fill="#FF9BCD" id="MY" d="m312 275-1 1 1-1ZM321 275c-1.238 0-3 .423-3 2 1.238 0 3-.423 3-2Z"/><path fill="#C9C9C8" id="icp" d="m139 277 1 1-1-1Z"/><path fill="#FF9BCD" id="MY" d="M217 277c0 3.746 2.091 0 0 0ZM318 277l-1 1 1-1Z"/><path fill="#FFC6E2" id="RPA" d="M225 285c0 6.003 6 6.476 6 0v-1l-1-1-1-5h-2c0 2.124-1 4.436-1 6l-1 1Z"/><path fill="#FF9BCD" id="MY" d="m317 278-2 1 2-1ZM216 279c0 1.93 1.93 0 0 0ZM239 279c0 7.453 7.995 0 0 0ZM315 279l-1 1 1-1ZM215 280c0 1.93 1.93 0 0 0ZM314 280l-1 1 1-1ZM214 281c0 1.93 1.93 0 0 0ZM312 281l-1 1 1-1ZM213 282c0 1.93 1.93 0 0 0ZM311 282l-2 1 2-1ZM211 283c0 3.479 3.479 0 0 0ZM230 283l1 1-1-1ZM244 283l10.5 12c2.138 0-2.676-4.676-3-5l-7.5-7ZM309 283l-2 1 2-1ZM226 284l-1 1 1-1ZM307 284l-2 1 2-1Z"/><path fill="#CBC7CC" id="sctv" d="m156 285 2 2-2-2Z"/><path fill="#FF9BCD" id="MY" d="M209 285c0 1.93 1.93 0 0 0Z"/><path fill="#CBC7CC" id="sctv" d="M300 286h1v-1l-1 1Z"/><path fill="#FF9BCD" id="MY" d="m305 285-2 1 2-1ZM208 286c0 1.93 1.93 0 0 0Z"/><path fill="#CBC7CC" id="sctv" d="m300 286-2 1 2-1Z"/><path fill="#FF9BCD" id="MY" d="M297 287h1l2-1h3c0 1.39-13.426 7-16 7 0-2.886 10-2.153 10-6Z"/><path fill="#CBC7CC" id="sctv" d="M159 287h4l5.5 3 3 1c12.745 6.372-12.5-1.154-12.5-4Z"/><path fill="#FF9BCD" id="MY" d="M207 287c0 1.93 1.93 0 0 0Z"/><path fill="#CBC7CC" id="sctv" d="M297 287c0 3.847-10 3.114-10 6-2.113 0-2.782.141-4.5 1-3.919 1.959.251-2.125 2-3 1.39-.695 8.5-2.272 8.5-4h4Z"/><path fill="#FF9BCD" id="MY" d="M206 288c0 1.93 1.93 0 0 0ZM205 289c0 1.93 1.93 0 0 0ZM204 290c0 .317-4.499 5-2.5 5 .93 0 5.384-5 2.5-5Z"/><path fill="#C7C9C9" id="py" d="m204 296-1 1c0 10.06 28.558-6 13.5-6l-2.5-1-6 1-1 1-1 1-1 2-1 1ZM248 291l1 1 5 7.5c-1.706 3.412-24.981-4.759-17.5-8.5 1.734-.867 4.161-.08 6-1 1.956-.978 4.077 1 5.5 1Z"/><path fill="#FF9BCD" id="MY" d="m208 291-1 1 1-1ZM207 292l-1 1 1-1ZM206 293l-1 2 1-2ZM205 295l-1 1 1-1ZM204 296l-1 1 1-1Z"/></svg>