<svg xmlns="http://www.w3.org/2000/svg" viewBox="0 0 456 320"><path fill="#1BA696" id="RSPagl1" d="M194 17c-4.954 0-10.204 2-16 2v-4c4.664 0 9.63-2 15-2l1 4Z"/><path fill="#1BA598" id="RSPd1" d="M226 29c0 1.577-1.762 2-3 2l-2-3.5-8.5-8.5c-5.333-2.667-12.068-2-18.5-2l-1-4c9.235 0 15.941.22 23.5 4l9.5 12ZM231 29l2 2 8.5-10c7.305-3.652 12.553-4 21.5-4v-4c-11.086 0-22.48-.54-28 10.5l-4 5.5Z"/><path fill="#1BA696" id="RSPagl1" d="M278 19h1v-4c-5.163 0-10.237-2-16-2v4c4.387 0 9.655 2 15 2Z"/><path fill="#187C64" id="SSp-tr1" d="M122 35h2c0-2.832 11.399-4.95 13.5-6 11.587-5.794 26.718-10 40.5-10v-4c-10.904 0-33.887 3.694-42.5 8L119 30c0 2.666 3 2.482 3 5ZM333 35h1c0-1.712 2.571-3 4-3v-1c0-3.487-12.152-4.826-14.5-6-12.946-6.473-28.959-10-44.5-10v4c13.39 0 29.194 4.347 40.5 10 2.11 1.055 13.5 3.231 13.5 6Z"/><path fill="#1AA496" id="RSPagl2/3" d="M179 29v2c4.898 0 9.311-5 15-5l1-1c-1.735 0-1-6.51-1-8-4.954 0-10.204 2-16 2l1 10Z"/><path fill="#1BA697" id="RSPd2/3" d="m223 32-6 3c0-9.747-14.919-10-22-10-1.735 0-1-6.51-1-8 6.432 0 13.167-.667 18.5 2l8.5 8.5 2 3.5v1ZM233 32l6 3 6.5-8c5.522-2.76 10.877-1 16.5-1 0-3.222 1-6.277 1-9-8.947 0-14.195.348-21.5 4L233 31v1Z"/><path fill="#1AA496" id="RSPagl2/3" d="M277 29v2c-3.129 0-9.61-5-15-5 0-3.222 1-6.277 1-9 4.387 0 9.655 2 15 2l-1 10Z"/><path fill="#188061" id="SSp-tr2/3" d="M124 35c0 4.393 9 2.642 9 8l14.5-6c2.811-1.406 28.359-8 31.5-8l-1-10c-13.782 0-28.913 4.206-40.5 10-2.101 1.05-13.5 3.168-13.5 6ZM323 43h1c0-3.917 9-5.057 9-8 0-2.769-11.39-4.945-13.5-6-11.306-5.653-27.11-10-40.5-10h-1l-1 10c4.502 0 33.444 7.972 37.5 10l8.5 4Z"/><path fill="#1AA596" id="RSPd5" d="M194 39c6.2 0 13-3.486 13 6 3.39 0 5.802-9 10-9v-1c0-9.747-14.919-10-22-10l-1 1v13ZM263 39c-4.761 0-14-3.76-14 5-3.741 0-5.783-8-10-8v-1l6.5-8c5.522-2.76 10.877-1 16.5-1 0 5.14 1 8.749 1 13Z"/><path fill="#1CA697" id="RSPagl5" d="m194 39-12 5c0-4.358-3-9.138-3-13 4.898 0 9.311-5 15-5v13ZM263 39l11 5 3-13c-3.129 0-9.61-5-15-5 0 5.14 1 8.749 1 13Z"/><path fill="#1B7E62" id="SSp-tr4" d="M139 47h2c0-2.621 6.858-3.179 8.5-4 2.748-1.374 28.299-12 29.5-12v-2c-3.141 0-28.689 6.594-31.5 8L133 43l1 1c1.26 0 5 1.833 5 3Z"/><path fill="#1BA597" id="RSPv1" d="M229 75h3c0-14.689 1-29.057 1-43v-1l-2-2-2.5 3-2.5-3c0 1.577-1.762 2-3 2v1c0 13.834 1 29.556 1 43 1.048 0 3 .473 3-1 0-6.25 2-4.459 2 1Z"/><path fill="#1B7E62" id="SSp-tr4" d="M316 47h1c0-.854 5-4.147 5-3l1-1-8.5-4c-4.056-2.028-32.998-10-37.5-10v2l30.5 12c1.391.696 8.5 2.391 8.5 4Z"/><path fill="#1B8062" id="SSp-un1" d="m122 35-2 1-2-5 1-1c0 2.666 3 2.482 3 5Z"/><path fill="#188060" id="SSp-bfd1" d="m53 81 4 3c0-1.627 13.57-16.035 15.5-17l5-6c10.157-5.078 31.194-25 42.5-25l-2-5c-13.137 0-41.135 23.636-51.5 34C64.427 67.073 53 79.278 53 81Z"/><path fill="#197F60" id="SSp-tr5" d="m149 51 4 2c10.023 0 19.194-8 29-8v-1c0-4.358-3-9.138-3-13-1.201 0-26.752 10.626-29.5 12-1.642.821-8.5 1.379-8.5 4 0 1.778 6.332 4 8 4ZM303 53h1l3-1c0-1.751 6.499-3 7.5-3l1.5-2c0-1.609-7.109-3.304-8.5-4L277 31l-3 13c5.697 0 20.962 9 29 9Z"/><path fill="#188060" id="SSp-bfd1" d="M403 81c-2.349 0-1.382 3-4 3 0-2.78-10.737-13.237-13.5-16-9.739-9.74-35.028-31-48.5-31v-1l1-4v-1c5.19 0 9.159 3.83 13.5 6 12.678 6.34 34.087 18.674 39.5 29.5 1.838 3.675 12 9.426 12 14.5Z"/><path fill="#1AA597" id="RSPv2/3" d="M221 75h3c0-13.444-1-29.166-1-43l-6 3v1c0 3.227 1.188 28.875 2 30.5 1.307 2.614 2 5.334 2 8.5ZM232 75h4c0-13.011 3-25.452 3-39v-1l-6-3c0 13.943-1 28.311-1 43Z"/><path fill="#1B8062" id="SSp-un1" d="m334 35 3 1 1-4c-1.429 0-4 1.288-4 3Z"/><path fill="#1C7F63" id="SSp-un2/3" d="M124 47h1l8-4c0-5.358-9-3.607-9-8h-2l-2 1 4 11ZM332 47h1c0-.166 1.224-10 4-10v-1l-3-1h-1c0 2.943-9 4.083-9 8l8 4Z"/><path fill="#187F63" id="SSp-bfd2/3" d="M57 85c3.063 0 6.195 7 8 7 0-4.491 8.004-9.507 10-13.5 4.833-9.665 37.284-31.5 49-31.5l-4-11c-11.306 0-32.343 19.922-42.5 25l-5 6C70.57 67.965 57 82.373 57 84v1Z"/><path fill="#1BA498" id="RSPv5" d="m215 72 6 3c0-3.166-.693-5.886-2-8.5-.812-1.625-2-27.273-2-30.5-4.198 0-6.61 9-10 9v1c0 6.592 7 21.236 7 24l1 2ZM241 72l-5 3c0-13.011 3-25.452 3-39 4.217 0 6.259 8 10 8v2c0 8.508-6 17.108-6 24l-1 1-1 1Z"/><path fill="#187F63" id="SSp-bfd2/3" d="M399 85c-3.005 0-5.535 6-8 6l-3-4.5-11-13c-8.046-8.046-33.873-26.5-44-26.5 0-.166 1.224-10 4-10 13.472 0 38.761 21.26 48.5 31 2.763 2.763 13.5 13.22 13.5 16v1Z"/><path fill="#1AA697" id="RSPd6a" d="M200 55h1c0-1.654 4.228-9 6-9v-1c0-9.486-6.8-6-13-6v14c1.745 0 6-.698 6 2ZM256 55h1c0-3.35 4.583-2 6-2V39c-4.761 0-14-3.76-14 5v2c1.947 0 7 7.47 7 9Z"/><path fill="#1CA597" id="RSPagl6a" d="M194 53c-3.071 0-5.362 2-9 2-3.036 0-.797-10-3-10v-1l12-5v14ZM271 56h1l2-12-11-5v14c.778 0 8 2.751 8 3Z"/><path fill="#197E61" id="SSp-un4" d="m135 49-9 5c0-1.819-1-4.59-1-7l8-4 1 1 1 5Z"/><path fill="#1A7F63" id="SSp-ul4" d="m317 47 4 2 1-5c0-1.147-5 2.146-5 3Z"/><path fill="#197E61" id="SSp-un4" d="m321 49 9 4c.913 0 2-5.014 2-6l-8-4h-1l-1 1-1 5Z"/><path fill="#1A7F63" id="SSp-ul4" d="m139 47-4 2-1-5c1.26 0 5 1.833 5 3Z"/><path fill="#188063" id="SSp-tr6a" d="M287 60h2c0-2.814 14-4.877 14-7-8.038 0-23.303-9-29-9l-2 12c3.606 0 6.972 3 10 3 1.235 0 5-.643 5 1ZM169 60h1c0-2.064 3.353-.426 4.5-1 3.274-1.637 6.535-3 10.5-3v-1c-3.036 0-.797-10-3-10-9.806 0-18.977 8-29 8v1c2.365 0 16 5.107 16 6Z"/><path fill="#1AA498" id="RSPv6a" d="M209 66c0 .828 3.748 4 5 4 0-2.764-7-17.408-7-24-1.772 0-6 7.346-6 9 0 4.372 8 6.217 8 11ZM248 65l-5 5c0-6.892 6-15.492 6-24 1.947 0 7 7.47 7 9-1.712 0-3 2.571-3 4-1.901 0-5 4.332-5 6Z"/><path fill="#197C64" id="SSp-bfd4" d="M70 98h1c0-3.933 8.653-10.153 11.5-13 9.36-9.36 18.831-16.415 30-22l13.5-9c0-1.819-1-4.59-1-7h-1c-11.716 0-44.167 21.835-49 31.5-1.996 3.993-10 9.009-10 13.5 1.901 0 5 4.332 5 6Z"/><path fill="#187E62" id="SSp-ul5" d="M150 55c-4.503 0-7.736 4-12 4-.208 0-3-9.153-3-10l4-2h2c0 1.778 6.332 4 8 4l1 4ZM318 59h1l2-10-4-2h-1l-1.5 2c-1.001 0-7.5 1.249-7.5 3v3l11 4Z"/><path fill="#197C64" id="SSp-bfd4" d="m391 93-5 4-11.5-12-14-12c-7.35-3.675-13.724-9.362-21-13l-9.5-6v-1c.913 0 2-5.014 2-6h1c10.127 0 35.954 18.454 44 26.5l11 13 3 4.5v2Z"/><path fill="#197D62" id="SSp-un5" d="M129 63h1l8-3v-1c-.208 0-3-9.153-3-10l-9 5c0 3.083 3 5.545 3 9ZM326 63h1c0-2.774 3-6.035 3-9v-1l-9-4-2 10c0 1.368 5.878 4 7 4Z"/><path fill="#197C63" id="SSp-ll5" d="m153 54-3 1-1-4 4 2v1Z"/><path fill="#1BA698" id="RSPd6b" d="m263 54-6 1c0-3.35 4.583-2 6-2v1Z"/><path fill="#197C63" id="SSp-ll5" d="M304 53c0 1.577 1.762 2 3 2v-3l-3 1Z"/><path fill="#1AA598" id="RSPagl6b" d="M185 56v1c3.679 0 6.067-3 9-3v-1c-3.071 0-5.362 2-9 2v1Z"/><path fill="#1BA698" id="RSPd6b" d="M200 55v1c-1.714 0-3.482-2-6-2v-1c1.745 0 6-.698 6 2Z"/><path fill="#1AA598" id="RSPagl6b" d="M271 56v1c-1.543 0-8-1.71-8-3v-1c.778 0 8 2.751 8 3Z"/><path fill="#1A7F64" id="SSp-ll6a" d="M289 60c0 1.952 2.454.477 3.5 1l12.5 5 2-11c-1.238 0-3-.423-3-2h-1c0 2.123-14 4.186-14 7Z"/><path fill="#1A7D62" id="SSp-bfd5" d="m71 98 8 8c1.674 0 5.279-7.058 6-8.5L101.5 82c3.534-1.767 18.531-11.53 21-14l6.5-5c0-3.455-3-5.917-3-9l-13.5 9c-11.169 5.585-20.64 12.64-30 22C79.653 87.847 71 94.067 71 98Z"/><path fill="#1A7F64" id="SSp-ll6a" d="M169 60c-6.19 0-12.131 6-18 6 0-4.546-1-7.6-1-11l3-1c2.365 0 16 5.107 16 6Z"/><path fill="#CACCC7" id="cing" d="m214 70 1 2c-7.441 0-15.166-7.833-21.5-11-8.077-4.038-20.775 4-28.5 4h-5c0-1.244 9.649-4 11-4l14-4c3.679 0 6.067-3 9-3 2.518 0 4.286 2 6 2 0 1.743 7.841 10 9 10 0 .828 3.748 4 5 4ZM242 71l-1 1c7.831 0 15.647-7.574 22.5-11 7.864-3.932 20.02 4 27.5 4h5c0-2.917-9-1.452-9-4-5.79 0-10.568-4-16-4-1.543 0-8-1.71-8-3l-6 1-1 1c0 1.658-1.461 3-3 3 0 1.668-3.099 6-5 6l-5 5-1 1Z"/><path fill="#1A7D62" id="SSp-bfd5" d="M386 98c-3.448 0-5.78 7-9 7l-4.5-6-16-16-22-15c-1.423-.711-7.5-3.09-7.5-5 0-2.774 3-6.035 3-9l9.5 6c7.276 3.638 13.65 9.325 21 13l14 12L386 97v1Z"/><path fill="#197D61" id="SSp-ul6a" d="m151 66-10 5c-1.751 0-3-10.505-3-11v-1c4.264 0 7.497-4 12-4 0 3.4 1 6.454 1 11Z"/><path fill="#1AA497" id="RSPv6b" d="M200 56c0 1.743 7.841 10 9 10 0-4.783-8-6.628-8-11h-1v1ZM256 56c0 1.658-1.461 3-3 3 0-1.429 1.288-4 3-4v1Z"/><path fill="#1BA698" id="RSPd6b" d="m257 55-1 1v-1h1Z"/><path fill="#197D61" id="SSp-ul6a" d="m305 66 11 5c0-3.956 2-7.497 2-12l-11-4-2 11Z"/><path fill="#1A8063" id="SSp-tr6b" d="m170 60 1 1 14-4v-1c-3.965 0-7.226 1.363-10.5 3-1.147.574-4.5-1.064-4.5 1ZM287 60v1c-5.79 0-10.568-4-16-4v-1h1c3.606 0 6.972 3 10 3 1.235 0 5-.643 5 1Z"/><path fill="#1AA497" id="RSPv6b" d="M253 59c-1.901 0-5 4.332-5 6 1.901 0 5-4.332 5-6Z"/><path fill="#1A7F61" id="SSp-un6a" d="m316 72 7 3c0-4.593 3-8.348 3-12-1.122 0-7-2.632-7-4h-1c0 4.503-2 8.044-2 12v1ZM141 72l-7 3c0-4.033-4-7.512-4-12l8-3c0 .495 1.249 11 3 11v1Z"/><path fill="#197F62" id="SSp-ll6b" d="M151 66v2c3.083 0 5.545-3 9-3 0-1.244 9.649-4 11-4l-1-1h-1c-6.19 0-12.131 6-18 6ZM305 66v1c-3.68 0-5.511-2-9-2 0-2.917-9-1.452-9-4v-1h2c0 1.952 2.454.477 3.5 1l12.5 5Z"/><path fill="#C9C7C9" id="ccb" d="M336 104c5.478 0 10.493 7 13 7 0-4.453-4-7.331-4-11l-7.5-7c-7.719-3.86-13.215-12.108-21-16l-20-10c-1.114-.557-5.5-.41-5.5-2-7.48 0-19.636-7.932-27.5-4-6.853 3.426-14.669 11-22.5 11l-5 3h-7l-2-1c0 1.473-1.952 1-3 1h-3l-6-3c-7.441 0-15.166-7.833-21.5-11-8.077-4.038-20.775 4-28.5 4 0 2.334-4.181 1.34-5.5 2-6.401 3.2-12.563 6.781-19 10L112 99c0 3.895-5 7.266-5 12 2.97 0 7.275-7 13-7 0-1.351 13.779-15 15-15l1-1c0-3.93 7.255-6.754 10-9.5 7.781-7.78 35.035-18.233 46.5-12.5 5.457 2.729 16.79 15 21.5 15l16.5 2c3.699-1.85 8.022-2 12.5-2l4-2c0-1.617 4.583-4 6-4 0-4.647 14.895-10 19-10 10.559 0 20.745 2.623 29.5 7l9 7c2.692 1.346 10.5 6.488 10.5 10 1.663 0 15 13.331 15 15Z"/><path fill="#198060" id="SSp-bfd6a" d="M79 107c3.833 0 7.167 8 11 8l5-6.5c2.804-2.804 18.017-17.5 20-17.5 0-4.269 14.256-14 18-14l1-1v-1c0-4.033-4-7.512-4-12h-1l-6.5 5c-2.469 2.47-17.466 12.233-21 14L85 97.5c-.721 1.442-4.326 8.5-6 8.5v1ZM377 107c-4.049 0-6.309 9-11 9 0-3.537-5.927-8.427-8.5-11-8.573-8.573-17.719-18.86-28-24-2.338-1.169-3.723-5-6.5-5v-1c0-4.593 3-8.348 3-12h1c0 1.91 6.077 4.289 7.5 5l22 15 16 16 4.5 6v2Z"/><path fill="#C9C9CA" id="scwm" d="M85 125c0 7.801-8 14.047-8 22l5-9.5c1.902-3.803 16.677-28.5 21-28.5 0-3.927 4.949-10 9-10l28.5-22c6.437-3.219 12.599-6.8 19-10 1.319-.66 5.5.334 5.5-2h-5c-3.455 0-5.917 3-9 3l-10 5-7 4h-1c0 3.149-11.126 8.813-13.5 10-2.458 1.229-1.773 4-4.5 4 0 3.074-16.02 15.521-19 18.5l-5 6.5c0 2.424-1.706 7-4 7 0 1.747-.253 2-2 2Z"/><path fill="#C7C8CC" id="alv" d="M180 112h3c0-.981-7.758-2-9-2-8.689 0-20.175-1.338-27.5-5-8.942-4.471-11.745-9.01-7.5-17.5l6-6.5 4-3c0-1.935 13.44-5.97 15.5-7 12.304-6.152 22.241-4.88 34 1 3.999 2 14.909 13 18.5 13 0-2.618-3-1.65-3-4-4.71 0-16.043-12.271-21.5-15-11.465-5.733-38.719 4.72-46.5 12.5-2.745 2.746-10 5.57-10 9.5l-1 1v10l4.5 4 8 4c2.951 1.475 12.5-.454 12.5 4 1.657 0 10-.763 10 1h10ZM321 99c0 4.004-12.553 8-16 8 0-.219 16-6.877 16-12.5 0-3.142-6.094-13.5-10-13.5l-4-3c0-2.315-8.754-4.127-10.5-5-5.312-2.656-23.024-9.488-30-6-3.686 1.843-9.351 8-13.5 8 0-4.647 14.895-10 19-10 10.559 0 20.745 2.623 29.5 7l9 7c2.692 1.346 10.5 6.488 10.5 10v10Z"/><path fill="#C9C9CA" id="scwm" d="M365 116c0 4.086 4.293 6.086 6 9.5 3.661 7.322 12 23.439 12 31.5-2.55 0-3.117-8.735-4-10.5l-8-16-9-12-8-9.5c-1.951 0-.477-2.454-1-3.5-.981-1.961-8-6.852-8-5.5l-7.5-7c-7.719-3.86-13.215-12.108-21-16l-20-10c-1.114-.557-5.5-.41-5.5-2h5c3.489 0 5.32 2 9 2l11 6 6 4 7.5 6c9.922 4.961 19.132 15.132 27 23 2.153 2.153 8.5 6.723 8.5 10Z"/><path fill="#1C8064" id="SSp-ul6b" d="M141 72v1l10-5v-2l-10 5v1ZM316 72v1l-11-6v-1l11 5v1Z"/><path fill="#7ECF4B" id="CA1" d="M184 90c12.474 0 22.34 5 35 5 0-2.16 2-4.167 2-7l-3-3h-1c-3.591 0-14.501-11-18.5-13-11.759-5.88-21.696-7.152-34-1-2.06 1.03-15.5 5.065-15.5 7 0 1.59 4.386 1.443 5.5 2 6.271 3.136 13.664 3.832 20 7 1.437.719 9.5 1.343 9.5 3ZM273 90c-12.854 0-22.95 5-36 5l-2-7 2-2 2-1c1.747 0 2-.253 2-2l2-1c1.429 0 4-1.288 4-3 1.664 0 6-1.823 6-4 4.149 0 9.814-6.157 13.5-8 6.976-3.488 24.688 3.344 30 6 1.746.873 10.5 2.685 10.5 5 0 2.162-7.926 2.213-9.5 3l-19 7c-1.114.557-5.5.41-5.5 2Z"/><path fill="#1AA498" id="RSPv6a" d="m243 70-1 1 1-1Z"/><path fill="#1A7D63" id="SSp-un6b" d="M134 76v1l7-4v-1l-7 3v1ZM323 76l-1 1-6-4v-1l7 3v1Z"/><path fill="#C7C8CC" id="alv" d="M253 75c-1.417 0-6 2.383-6 4 1.664 0 6-1.823 6-4Z"/><path fill="#1A7E61" id="SSp-bfd6b" d="M133 77h1v-1l-1 1ZM365 116h1c0-3.537-5.927-8.427-8.5-11-8.573-8.573-17.719-18.86-28-24-2.338-1.169-3.723-5-6.5-5l-1 1 7.5 6c9.922 4.961 19.132 15.132 27 23 2.153 2.153 8.5 6.723 8.5 10ZM133 77c-3.744 0-18 9.731-18 14 2.727 0 2.042-2.771 4.5-4 2.374-1.187 13.5-6.851 13.5-10Z"/><path fill="#7DCF4B" id="CA2" d="m184 90-7 1-19.5-7c-1.529-.764-12.5-1.761-12.5-3l4-3c0 1.59 4.386 1.443 5.5 2 6.271 3.136 13.664 3.832 20 7 1.437.719 9.5 1.343 9.5 3ZM273 90l7 1c3.405 0 17.876-6.188 21.5-8 1.479-.74 9.5-.08 9.5-2l-4-3c0 2.162-7.926 2.213-9.5 3l-19 7c-1.114.557-5.5.41-5.5 2Z"/><path fill="#C7C8CC" id="alv" d="M243 81v1c1.429 0 4-1.288 4-3l-4 2Z"/><path fill="#1A7E62" id="SSs1" d="M27 156h6c0-19.74 6.772-39.044 15-55.5 1.27-2.54 5.63-15.5 9-15.5v-1l-4-3c0 2.07-12.205 19.909-14 23.5-7.264 14.528-12 34.231-12 51.5Z"/><path fill="#7ECF49" id="CA3" d="M185 112c0-2.835 9.035 0 10 0l4-2.5-1-4.5-15-4-3.5-2c-1.777-.889-6.322-1.857-4.5-5.5l2-2.5-19.5-7c-1.529-.764-12.5-1.761-12.5-3l-6 6.5c-4.245 8.49-1.442 13.029 7.5 17.5 7.325 3.662 18.811 5 27.5 5 1.242 0 9 1.019 9 2h2Z"/><path fill="#C9CCC9" id="dhc" d="M232 87h1l4-1 2-1 2-2 2-1v-1c-4.478 0-8.801.15-12.5 2L214 81c0 2.35 3 1.382 3 4h1c1.974 0 3.517 2 6 2h8Z"/><path fill="#7ECF49" id="CA3" d="M271 112h2c0-2.207 5.176-.338 6.5-1 3.054-1.527 21.492-4 25.5-4 0-.219 16-6.877 16-12.5 0-3.142-6.094-13.5-10-13.5 0 1.92-8.021 1.26-9.5 2-3.624 1.812-18.095 8-21.5 8 0 4.784.194 10-7 10l-14 4-1 1c0 5.173 3 4.803 3 6 .965 0 10-2.835 10 0Z"/><path fill="#1A7E62" id="SSs1" d="M429 156c-2.124 0-4.436 1-6 1 0-21.141-6.265-39.029-15-56.5-1.322-2.643-5.101-15.5-9-15.5v-1c2.618 0 1.651-3 4-3 .966 0 9.081 13.663 10 15.5 9.13 18.26 16 37.503 16 59.5Z"/><path fill="#C7C8CC" id="alv" d="m243 82-2 1 2-1ZM241 83l-2 2c1.747 0 2-.253 2-2Z"/><path fill="#1B8063" id="SSs2/3" d="m33 157 8 1c0-13.396 8.255-35.01 14-46.5L65 92c-1.805 0-4.937-7-8-7-3.37 0-7.73 12.96-9 15.5-8.228 16.456-15 35.76-15 55.5v1Z"/><path fill="#C7C8CC" id="alv" d="M221 88h3v-1c-2.483 0-4.026-2-6-2l3 3ZM239 85l-2 1 2-1Z"/><path fill="#1B8063" id="SSs2/3" d="m423 157-8 1c0-17.588-8.631-34.761-16-49.5-1.058-2.116-6.012-15.5-8-15.5v-2c2.465 0 4.995-6 8-6 3.899 0 7.678 12.857 9 15.5 8.735 17.471 15 35.359 15 56.5Z"/><path fill="#C7C8CC" id="alv" d="m233 87 2 1 2-2-4 1Z"/><path fill="#7DCD4B" id="HPF" d="M237 95c-2.124 0-4.436 1-6 1 0-1.947-3.428-3.644-2-6.5l3-2.5h1l2 1 2 7Z"/><path fill="#A8AAAA" id="VL" d="m136 88-1 1 1-1Z"/><path fill="#7DCD4B" id="HPF" d="M225 97h1c0-2.592 3.453-9-2-9h-3c0 2.833-2 4.84-2 7 1.745 0 6-.698 6 2Z"/><path fill="#A8AAAA" id="VL" d="M127 125h1c0-5.396 4.724-9.948 7-14.5.536-1.073.251-5.5-1-5.5 0 2.113-.141 2.782-1 4.5v2c-5.638 11.276-4.44-6.88-6-10l1.5-2.5c2.712-1.356 3.183 2 4.5 2l2-2V89c-1.221 0-15 13.649-15 15 8.456 0 7 14.203 7 21ZM322 106c-1.156 0-1.472 2.555-1 3.5l6 12 2 3.5c0-6.298-.208-21 7-21 0-1.669-13.337-15-15-15v10l3 2c0-1.748 4.168-3.164 5-1.5.496.992 0 10.957 0 12.5l-1.5 3c-3.95 1.975-4.24-9-5.5-9Z"/><path fill="#7BD04A" id="DG-mo" d="M202 123h1l5-1 1-1h1l8-8 3-4v-1l1-1v-1l1-1 1-3 1-1v-4c0-2.698-4.255-2-6-2-12.66 0-22.526-5-35-5l-7 1-2 2.5c-1.822 3.643 2.723 4.611 4.5 5.5l3.5 2c0-4.668 16.656 2 19 2 5.84 0 7.78-1.64 12.5-4 .823-.411 4.902-1.697 5.5-.5 1.526 3.051-3.875 6.749-5 9-5.342 10.684-13.719 10.89-22.5 6.5-1.173-.587-7.5-.619-7.5-2h-1l-2 2v1l10 6h1l1 1h1l1 1h6ZM254 123h6l1-1h1l2-1h1l1-1 8-5v-1l-1-2h-2c0 1.007-8.267 2.383-9.5 3-1.547.773-4.993 4.003-7 3-3.974-1.987-20.355-13.79-17.5-19.5.73-1.46 3.75.125 4.5.5 4.585 2.292 7.359 4 13 4 2.41 0 18.5-6.66 18.5-2 7.194 0 7-5.216 7-10l-7-1c-12.854 0-22.95 5-36 5-2.124 0-4.436 1-6 1v4c1.577 0 2 1.762 2 3v1l1 1v1l1 1v2l7 7.5 7 5.5 5 1Z"/><path fill="#1A7E61" id="SSp-bfd6b" d="M90 116h1l5-6.5c2.98-2.979 19-15.426 19-18.5-1.983 0-17.196 14.696-20 17.5l-5 6.5v1Z"/><path fill="#187C63" id="SSs4" d="M41 159h5l3-9.5 1-9c4.252-8.504 5.706-18.413 10-27L70 98c0-1.668-3.099-6-5-6l-10 19.5c-5.745 11.49-14 33.104-14 46.5v1ZM411 159h4v-1c0-17.588-8.631-34.761-16-49.5-1.058-2.116-6.012-15.5-8-15.5l-5 4v1l11 16.5c4.89 9.781 13 33.275 13 44.5h1Z"/><path fill="#A8A9AA" id="V3" d="M233 104c-2.477 0-2.522 2.011-4.5 3l-3-3-2.5 1 1-3 1-1v-2l1-2c6.846 0 2.6 2 5 2v1l2 3v1Z"/><path fill="#1C8063" id="SSs5" d="m46 159 13 3c0-7.643 6.654-30.808 10-37.5 1.275-2.55 10-16.032 10-17.5v-1l-8-8h-1l-10 15.5c-4.294 8.587-5.748 18.496-10 27l-1 9-3 9.5Z"/><path fill="#65A83D" id="DG-sg" d="M185 112c0-2.835 9.035 0 10 0l5.5 1c13.247-6.624 9.493-8-2.5-8l-15-4c0-4.668 16.656 2 19 2 5.84 0 7.78-1.64 12.5-4 .823-.411 4.902-1.697 5.5-.5 1.526 3.051-3.875 6.749-5 9-5.342 10.684-13.719 10.89-22.5 6.5-1.173-.587-7.5-.619-7.5-2ZM261 112c.965 0 10-2.835 10 0 0 1.007-8.267 2.383-9.5 3-1.547.773-4.993 4.003-7 3-3.974-1.987-20.355-13.79-17.5-19.5.73-1.46 3.75.125 4.5.5 4.585 2.292 7.359 4 13 4 2.41 0 18.5-6.66 18.5-2l-14 4-1 1c-3.423 0-7.744-1-10.5-1-1.824 0 3.194 5.597 4 6 4.047 2.023 5.235 1 9.5 1Z"/><path fill="#1C8063" id="SSs5" d="m410 159-13 3c0-14.709-6.781-31.061-13-43.5-1.05-2.099-3.981-11.5-7-11.5v-2c3.22 0 5.552-7 9-7l11 16.5c4.89 9.781 13 33.275 13 44.5Z"/><path fill="#CBC9C7" id="or" d="m107 111-4 4v-6c0-3.927 4.949-10 9-10 0 3.895-5 7.266-5 12Z"/><path fill="#A9AAA8" id="chpl" d="M133 101c-1.317 0-1.788-3.356-4.5-2l-1.5 2.5c1.56 3.12.362 21.276 6 10v-2c.859-1.718 1-2.387 1-4.5l-1-4Z"/><path fill="#CBC8CB" id="fi" d="M129 130c0 3.421 6.655 3 9 3 0-1.651 5.95-8 7-8 0-3.804 6.215-10 10-10l5-4c0-4.454-9.549-2.525-12.5-4l-8-4-4.5-4-2 2 1 4c1.251 0 1.536 4.427 1 5.5-2.276 4.552-7 9.104-7 14.5l1 5ZM328 130c-.135 0-5.287 3-10 3l-11.5-16c-2.408-1.204-9.5-3.225-9.5-6 0-3.984 8-1.739 8-4 3.447 0 16-3.996 16-8l3 2-2 5c-1.156 0-1.472 2.555-1 3.5l6 12 2 3.5v2c-1.473 0-1 1.952-1 3Z"/><path fill="#A9AAA8" id="chpl" d="m324 101-2 5c1.26 0 1.55 10.975 5.5 9l1.5-3c0-1.543.496-11.508 0-12.5-.832-1.664-5-.248-5 1.5Z"/><path fill="#CBC9C7" id="or" d="m349 111 4 3 1-5c-1.951 0-.477-2.454-1-3.5-.981-1.961-8-6.852-8-5.5 0 3.669 4 6.547 4 11Z"/><path fill="#98D5F9" id="CP" d="M85 205c2.447 0 3.28 2 6 2 23.025 0 17-.959 17-20v-14.5l3-10.5c0-4.968-2-10.81-2-17.5 0-1.21.814-5.5 2-5.5 0-1.851-.867-7 2-7 0-3.893 4.854-1 6-1 2.124 0 4.436-1 6-1l1-1 1-4c0-6.797 1.456-21-7-21-5.725 0-10.03 7-13 7l-4 4-10 11.5c-5.846 11.691-18 25.752-18 39.5 0 6.238-.436 19.627 2 24.5l5 12.5 3 2Z"/><path fill="#A9AAA8" id="chpl" d="M225 125c1.03 0 2.671 1 6 1 0-3.519 2-5.843 2-9l1-1v-1l1-2v-4l-2-4v-1c-2.477 0-2.522 2.011-4.5 3l-3-3-2.5 1v1l-1 2v7l1 1c0 3.489 2 5.32 2 9Z"/><path fill="#98D5F9" id="CP" d="m372 205-6 2c-23.163 0-18 .182-18-20l1-11.5-4-13.5c0-3.44.605-3.711 2-6.5 2.251-4.502-1-13.24-1-17.5 0-1.71-.718-7-3-7 0-2.515-5.014 0-6 0l-6-1-2-3v-2c0-6.298-.208-21 7-21 5.478 0 10.493 7 13 7l4 3 12 14.5c5.798 11.597 16 23.698 16 37.5v16.5c-2.023 4.046-4 11.891-4 16.5-1.577 0-2 1.762-2 3l-1 1-2 2Z"/><path fill="#7ECE4A" id="DG-po" d="M198 105c11.993 0 15.747 1.376 2.5 8l-5.5-1 4-2.5-1-4.5Z"/><path fill="#A8A9AA" id="V3" d="M235 107v2l-2-4h1v1l1 1Z"/><path fill="#7ECE4A" id="DG-po" d="M258 106c-3.423 0-7.744-1-10.5-1-1.824 0 3.194 5.597 4 6 4.047 2.023 5.235 1 9.5 1 0-1.197-3-.827-3-6ZM259 105l-1 1 1-1Z"/><path fill="#A8A9AA" id="V3" d="M222 107v1l1-2h-1v1Z"/><path fill="#197D63" id="SSs6a" d="m59 162 11 2c0-9.444 5.953-21.406 10-29.5.819-1.637 2.844-9.5 5-9.5 0-1.747.253-2 2-2l3-7v-1c-3.833 0-7.167-8-11-8 0 1.468-8.725 14.95-10 17.5-3.346 6.692-10 29.857-10 37.5Z"/><path fill="#C7C8CC" id="alv" d="M281 112h6c0-1.763 8.343-1 10-1 0-3.984 8-1.739 8-4-4.008 0-22.446 2.473-25.5 4-1.324.662-6.5-1.207-6.5 1h8Z"/><path fill="#197D63" id="SSs6a" d="m397 162-11 2c0-12.247-7.764-28.028-13-38.5-1.587-3.175-7-5.79-7-9.5 4.691 0 6.951-9 11-9 3.019 0 5.95 9.401 7 11.5 6.219 12.439 13 28.791 13 43.5Z"/><path fill="#A8A9AA" id="V3" d="m221 113 1 1v-6h-1v5Z"/><path fill="#C9C7C9" id="ccb" d="M71 166h4c0-13.748 12.154-27.809 18-39.5l10-11.5v-6c-4.323 0-19.098 24.697-21 28.5l-5 9.5c0 1.93-.84 8-3 8 0 1.048.473 3-1 3v1c0 1.048.473 3-1 3v1l-1 2v1ZM381 166h4v-3l-1-2v-1l-1-2v-1c-2.55 0-3.117-8.735-4-10.5l-8-16-9-12-8-9.5-1 5 12 14.5c5.798 11.597 16 23.698 16 37.5Z"/><path fill="#A8A9AA" id="V3" d="M235 113h1c0-1.048.473-3-1-3v3Z"/><path fill="#FF909D" id="LD" d="M160 139c5.782 0 13.001 8 22 8 1.998 0 2.337-5.174 3-6.5 2.426-4.852 5.564-9.129 8-14 .978-1.956-1-4.077-1-5.5l-10-6c-.698 0-7-2.714-7-3h-5c-5.896 0-9.841 3-15 3 0 3.285-8 4.931-8 9l-1 1-1 2v1l1 3c1.85 0 5 2.23 5 4h2c2.968 0 4.633 4 7 4Z"/><path fill="#7DCD4B" id="HPF" d="m184 112-2 2-2-2h4ZM274 114h1l2-1v-1h-4l1 2Z"/><path fill="#FF909D" id="LD" d="M296 139c-5.905 0-13.465 8-21 8-2.225 0-2.373-3.873-3.5-5-1.789-1.789-6.937-13.375-8.5-16.5l1-3.5v-1h1l1-1 8-5 1-1 2-1c1.145 0 4 .579 4-1h6c6.1 0 22 3.652 22 12l2 2v1l-1 4c-1.247 0-5 2.467-5 4h-1c-3.44 0-5.253 4-8 4Z"/><path fill="#FF8D9F" id="MH" d="M220 133h2l2-1 1-7c0-3.68-2-5.511-2-9l-1-1v-1l-1-1h-3c0 4.178-6 6.21-6 10 3.311 0 4.212 10 8 10Z"/><path fill="#A8A9AA" id="V3" d="m235 113-1 2 1-2Z"/><path fill="#FF8D9F" id="MH" d="M235 133h2l7-10c0-2.524-5.538-10-8-10h-1l-1 2v1l-1 1c0 3.157-2 5.481-2 9l2 7h2Z"/><path fill="#A8A9AA" id="V3" d="m222 115 1 1-1-1Z"/><path fill="#1A8061" id="SSs6b" d="M91 116c0 2.424-1.706 7-4 7l3-7h1Z"/><path fill="#A8A9AA" id="V3" d="m234 116-1 1 1-1Z"/><path fill="#1A8061" id="SSs6b" d="M385 164h1c0-12.247-7.764-28.028-13-38.5-1.587-3.175-7-5.79-7-9.5h-1c0 4.086 4.293 6.086 6 9.5 3.661 7.322 12 23.439 12 31.5v1l1 2v1l1 2v1Z"/><path fill="#FE909D" id="LP" d="M183 150h1c0-7.313 12-17.688 12-26v-1l-1-1h-1l-1-1h-1c0 1.423 1.978 3.544 1 5.5-2.436 4.871-5.574 9.148-8 14-.663 1.326-1.002 6.5-3 6.5l1 3Z"/><path fill="#C8CCC7" id="hbc" d="m211 123-1 1-1-2v-1h1l1 2ZM245 123l2 1 1-2c-.922 0-3-1.681-3 1Z"/><path fill="#CCC9C8" id="sm" d="m199 126 2 7 9-9-1-2h-1l-5 1-1 1h-1l-2 2ZM257 125c0 3.138-2 5.662-2 8l-8-9 1-2h1l5 1c0 1.577 1.762 2 3 2Z"/><path fill="#FE909D" id="LP" d="M275 147c0 2.215-2 1.519-2 3l-3-5.5c-2.758-5.515-10-14.237-10-20.5v-1l1-1h3l-1 3.5c1.563 3.125 6.711 14.711 8.5 16.5 1.127 1.127 1.275 5 3.5 5Z"/><path fill="#1A8061" id="SSs6b" d="M87 123c-1.747 0-2 .253-2 2 1.747 0 2-.253 2-2Z"/><path fill="#FF6F80" id="TH" d="m201 124-2 2c0-2.293-.997-2-3-2v-1h5v1ZM203 123l-1 1v-1h1Z"/><path fill="#FF8F9D" id="LH" d="M218 137h1l1-4c-3.788 0-4.689-10-8-10h-1l-1 1-9 9v2l5.5 4c3.894 1.947 8.438-2 11.5-2ZM255 135l-5.5 4c-3.775 1.888-8.247-2-11.5-2l-1-4 7-10h1l2 1 8 9v2Z"/><path fill="#FF6F80" id="TH" d="m260 124-3 1c-1.238 0-3-.423-3-2h6v1ZM147 124l-1 1 1-1Z"/><path fill="#FD8F9D" id="CL" d="M187 161h7c0-5.62-1.743-13.015 1-18.5.77-1.541 6-6.935 6-7.5v-2l-2-7c0-2.293-.997-2-3-2 0 8.312-12 18.687-12 26l-1 1c0 2.172 1.377 10 4 10ZM262 161h8c0-3.322 3-6.616 3-11l-3-5.5c-2.758-5.515-10-14.237-10-20.5l-3 1c0 3.138-2 5.662-2 8v2c9.359 0 7 20.566 7 26Z"/><path fill="#FF6F80" id="TH" d="m309 124 2 2-2-2Z"/><path fill="#1A8061" id="SSs6b" d="M70 164h1l1-1v-1c0-1.048-.473-3 1-3v-1c0-1.048-.473-3 1-3 0-1.654 1.198-8 3-8 0-7.953 8-14.199 8-22-2.156 0-4.181 7.863-5 9.5-4.047 8.094-10 20.056-10 29.5Z"/><path fill="#FF6F80" id="TH" d="m146 125-1 2v-2h1Z"/><path fill="#A8A9AA" id="V3" d="M224 132c0 4.663 7.086 1 9 1l-2-7c-3.329 0-4.97-1-6-1l-1 7Z"/><path fill="#FF6F80" id="TH" d="M310 131c2.25 0 3.376 2 5 2l-4-6-1 4ZM146 131l-4 2c0-1.408 1.197-5 3-5l1 3Z"/><path fill="#97D6F9" id="STR" d="M125 130h1v-1l-1 1Z"/><path fill="#CCC" d="M119 134c0 4.331 6 5.511 6 9-5.151 0-12-5.668-12-11 0-3.893 4.854-1 6-1v3Z"/><path fill="#97D6F9" id="STR" d="M119 131v3c2.883 0 6-.409 6-4-1.564 0-3.876 1-6 1Z"/><path fill="#CAC7CB" id="fiber tracts" fill-rule="evenodd" d="M125 133c0 1.791-3.27 2.959-2 5.5 2.95 5.901 19.084.792 6.5-5.5H125m6 11 1 1c3.767 0 8-6.766 8-10l-2-2c-2.345 0-9 .421-9-3h-4c0 3.591-3.117 4-6 4 0 4.331 6 5.511 6 9 2.124 0 4.436 1 6 1Z"/><path fill="#CAC7CB" id="fiber tracts" d="m326 144-1 1c-3.436 0-9-6.893-9-10l2-2c4.713 0 9.865-3 10-3h3c0 3.591 3.117 4 6 4 0 1.664-1.823 6-4 6 0-17.08-23.748 1-1 1l-1 2-5 1Z"/><path fill="#97D6F9" id="STR" d="M337 131v3c-2.883 0-6-.409-6-4l6 1Z"/><path fill="#CCC" d="m332 141-1 2c6.271 0 12-5.768 12-12 0-2.515-5.014 0-6 0v3c0 1.664-1.823 6-4 6l-1 1Z"/><path fill="#FD8F9F" id="RT" d="m163 206 1 1 2-2-2-4-3-2c-10.437 0-22.115-22.729-26-30.5-1.108-2.215-.337-15.5 2-15.5 0-1.465-.109-4 2-4l2-2c0-1.577 1.762-2 3-2 0-1.577 1.762-2 3-2l1-1c2.393 0 3-3.234 3-5v-2c0-1.77-3.15-4-5-4l-4 2-2 2c0 3.234-4.233 10-8 10 0 4.281-12.75 7-9 14.5 5.016 10.032 14.81 30.155 25.5 35.5 4.122 2.061 8.814 10 13.5 10l1 1ZM292 207h1l1-1 1-1 10.5-8c11.134-5.567 22.34-25.179 27.5-35.5 4.389-8.778-8-13.134-8-16.5-3.436 0-9-6.893-9-10l-1-2c-1.624 0-2.75-2-5-2-1.247 0-5 2.467-5 4v1c0 1.738.686 6 3 6 7.713 0 14 12.486 14 19 0 2.154-.567 11-3 11 0 1.424-.362 5-2 5 0 1.664-1.823 6-4 6 0 1.562-2.189 5-4 5l-1 1-1 1-1 1-1 1-1 1c0 1.577-1.762 2-3 2 0 1.747-.253 2-2 2 0 1.577-1.762 2-3 2l-1 1-3 2-1 3 1 2Z"/><path fill="#CBC9C7" id="or" d="m331 143-5 1c0 3.539 13.572 1.964 15.5 1 2.114-1.057 3.346-7 4.5-7 0-1.71-.718-7-3-7 0 6.232-5.729 12-12 12ZM125 143c2.124 0 4.436 1 6 1 0 1.663-5.407 2-7 2-5.129 0-13-.38-13-7 0-1.851-.867-7 2-7 0 5.332 6.849 11 12 11Z"/><path fill="#FE8F9E" id="PVT" d="M233 145c-2.595 0-5.25 1-9 1 0-3.567-6-6.62-6-9h1l3-4 2-1c0 4.663 7.086 1 9 1h2c0 1.429 1.288 4 3 4 0 2.74-5 4.77-5 8Z"/><path fill="#C8CBC7" id="st" d="M125 133c0 1.791-3.27 2.959-2 5.5 2.95 5.901 19.084.792 6.5-5.5H125Z"/><path fill="#C7CAC9" id="fr" d="m222 133-3 4 1-4h2ZM237 133l1 4c-1.712 0-3-2.571-3-4h2Z"/><path fill="#C8CBC7" id="st" d="m333 140-1 1c-22.748 0 1-18.08 1-1Z"/><path fill="#FF6F80" id="TH" d="m153 135-2 2v-2h2Z"/><path fill="#FD8084" id="VPL" d="M166 190c0 2.374-4.224 7-7 7-2.866 0-7.407-5.907-10-8.5-12.101-12.101-12-19.107-12-35.5l2-4c1.747 0 2-.253 2-2 1.238 0 3-.423 3-2 1.238 0 3-.423 3-2l1-1c2.393 0 3-3.234 3-5l2-2c2.968 0 4.633 4 7 4 0 5.521-3 8.525-3 10-30.691 0-1.086 41 9 41Z"/><path fill="#FD909D" id="MD" d="m221 172-6 4c-5.717 0-11.549-4.049-15.5-8l-5.5-7c0-5.62-1.743-13.015 1-18.5.77-1.541 6-6.935 6-7.5l5.5 4c3.894 1.947 8.438-2 11.5-2 0 2.38 6 5.433 6 9v18.5l-2 6.5-1 1ZM234 171l8 5c6.654 0 10.963-6.231 16.5-9l3.5-6c0-5.434 2.359-26-7-26l-5.5 4c-3.775 1.888-8.247-2-11.5-2 0 2.74-5 4.77-5 8 0 4.389-3.337 13.826-1 18.5 1.112 2.225 2 4.846 2 7.5Z"/><path fill="#FD8084" id="VPL" d="M297 197h2l2-2c0-1.577 1.762-2 3-2l1-1 1-1 1-1 1-1 1-1c0-1.562 2.189-5 4-5 0-1.417 2.383-6 4-6 0-1.424.362-5 2-5 0-7.045 3.519-12.461 0-19.5-1.557-3.114-11-8.008-11-10.5-2.314 0-3-4.262-3-6l-1-1c-3.44 0-5.253 4-8 4 0 4.392 3 7.199 3 10 30.649 0 2.201 41-9 41 0 4.049 7 4.887 7 7Z"/><path fill="#FF6F80" id="TH" d="M305 135v1l-1-1h1Z"/><path fill="#CCC" d="M290 211c5.088 0 4-2.964 4 3l9.5-9c7.001-3.5 13.888-7.444 21-11l7-8 .5 5c2.261 0 .297-6.094 1-7.5 2.545-5.09 3.02-21.5 12-21.5 0-3.44.605-3.711 2-6.5 2.251-4.502-1-13.24-1-17.5-1.154 0-2.386 5.943-4.5 7-1.928.964-15.5 2.539-15.5-1l-1 1c0 3.366 12.389 7.722 8 16.5-5.16 10.321-16.366 29.933-27.5 35.5l-10.5 8-1 1-1 1-1 1-1 1-1 2ZM163 216l2 1c0-.799-6.197-8-2.5-8l4.5 3-1-2-2-3-1-1-1-1c-4.686 0-9.378-7.939-13.5-10-10.69-5.345-20.484-25.468-25.5-35.5-3.75-7.5 9-10.219 9-14.5l-1-1c0 1.663-5.407 2-7 2-5.129 0-13-.38-13-7-1.186 0-2 4.29-2 5.5 0 6.69 2 12.532 2 17.5 8.524 0 9.1 13.701 12 19.5.743 1.487-1.308 8.5 1 8.5 0-8.22 9.223 5.861 11.5 7 5.172 2.586 27.5 11.575 27.5 19Z"/><path fill="#FF8E9C" id="PO" d="M187 162c-6.604 0-12.637 12-13 12 0-3.108-13.751-25-17-25 0-1.475 3-4.479 3-10 5.782 0 13.001 8 22 8l1 3v1c0 2.172 1.377 10 4 10v1ZM270 162c5.016 0 11.928 11 12 11l7-12.5 10-11.5c0-2.801-3-5.608-3-10-5.905 0-13.465 8-21 8 0 2.215-2 1.519-2 3 0 4.384-3 7.678-3 11v1Z"/><path fill="#CAC7CB" id="fiber tracts" d="m333 140-1 1 1-1Z"/><path fill="#C7CACA" id="em" d="m148 142-1 1 1-1ZM308 142c7.713 0 14 12.486 14 19 0 2.154-.567 11-3 11 0-7.045 3.519-12.461 0-19.5-1.557-3.114-11-8.008-11-10.5ZM147 143c-1.238 0-3 .423-3 2 1.238 0 3-.423 3-2ZM144 145c-1.238 0-3 .423-3 2 1.238 0 3-.423 3-2Z"/><path fill="#FE909F" id="IMD" d="M222 171h12c0-2.654-.888-5.275-2-7.5-2.337-4.674 1-14.111 1-18.5-2.595 0-5.25 1-9 1v18.5l-2 6.5Z"/><path fill="#C9C9CA" id="scwm" d="M77 147c-1.802 0-3 6.346-3 8 2.16 0 3-6.07 3-8Z"/><path fill="#C7CACA" id="em" d="m141 147-2 2c1.747 0 2-.253 2-2ZM139 149c-2.109 0-2 2.535-2 4l2-4Z"/><path fill="#FF7E83" id="VPM" d="M174 174c0 5.012.666 16-8 16-10.086 0-39.691-41-9-41 3.249 0 17 21.892 17 25ZM282 173c0 6.009.091 17 8 17 11.201 0 39.649-41 9-41l-10 11.5-7 12.5Z"/><path fill="#FD8F9C" id="Eth" d="m184 150-1 1v-1h1Z"/><path fill="#C7CACA" id="em" d="m159 197 2 2c-10.437 0-22.115-22.729-26-30.5-1.108-2.215-.337-15.5 2-15.5 0 16.393-.101 23.399 12 35.5 2.593 2.593 7.134 8.5 10 8.5Z"/><path fill="#C9C9CA" id="scwm" d="M74 155c-1.473 0-1 1.952-1 3 1.473 0 1-1.952 1-3Z"/><path fill="#12AD83" id="VISC1" d="M35 193c0 1.014-3.959 2-5 2-1.454 0-1.433-5.366-2-6.5-4.487-8.974-1-22.207-1-32.5h6v1c0 6.34-5.158 17.185-2 23.5 1.67 3.341 4 8.641 4 12.5ZM421 194l6 1c0-3.23 1.513-10.527 3-13.5l-1-25.5c-2.124 0-4.436 1-6 1 0 6.37 5.467 18.566 2 25.5-1.612 3.223-4 7.729-4 11.5Z"/><path fill="#12AC83" id="VISC2/3" d="m35 193 1 1 10-2v-1c-3.669 0-2.086-5.671-3-7.5-3.365-6.73-2-16.464-2-24.5v-1l-8-1c0 6.34-5.158 17.185-2 23.5 1.67 3.341 4 8.641 4 12.5ZM410 192c3.776 0 7.581 2 11 2 0-3.771 2.388-8.277 4-11.5 3.467-6.934-2-19.13-2-25.5l-8 1v1c0 7.949 1.764 17.973-2 25.5-.746 1.493.729 6.5-2 6.5l-1 1Z"/><path fill="#C9C9CA" id="scwm" d="m383 158 1 2-1-2Z"/><path fill="#11AC82" id="VISC4" d="M46 159c0 5.674-5.117 16.265-2 22.5 1 2.001 2 7.377 2 9.5-3.669 0-2.086-5.671-3-7.5-3.365-6.73-2-16.464-2-24.5h5Z"/><path fill="#12AD82" id="VISC5" d="M46 192h1c3.985 0 9.965-2 14-2l-2-3.5V162l-13-3c0 5.674-5.117 16.265-2 22.5 1 2.001 2 7.377 2 9.5v1Z"/><path fill="#C9C9CA" id="scwm" d="M73 159c-1.473 0-1 1.952-1 3 1.473 0 1-1.952 1-3Z"/><path fill="#12AD82" id="VISC5" d="m411 191-1 1c-4.035 0-10.015-2-14-2 0-2.253.984-6.469 2-8.5 2.481-4.962-1-14.573-1-19.5l13-3h1c0 5.626 4.709 15.082 2 20.5-1.698 3.395-2 7.396-2 11.5Z"/><path fill="#11AC82" id="VISC4" d="M415 159c0 7.949 1.764 17.973-2 25.5-.746 1.493.729 6.5-2 6.5 0-4.104.302-8.105 2-11.5 2.709-5.418-2-14.874-2-20.5h4Z"/><path fill="#FE8D9F" id="PCN" d="M209 183h2c0-2.83 4-4.54 4-7-5.717 0-11.549-4.049-15.5-8l-5.5-7h-7v1c0 3.541 13.545 19 17 19l2 2h3ZM247 183h4l1-1c0-2.672 18-12.908 18-20v-1h-8l-3.5 6c-5.537 2.769-9.846 9-16.5 9l4 7h1Z"/><path fill="#C9C9CA" id="scwm" d="m384 161 1 2-1-2Z"/><path fill="#11AC83" id="VISC6a" d="M61 190v1c4.615 0 7.728-2 13-2l-4-12.5V164l-11-2v24.5l2 3.5Z"/><path fill="#8598CC" id="GPe" d="M124 203h2v-4l-1-6-1-1v-2c-2.308 0-.257-7.013-1-8.5-2.9-5.799-3.476-19.5-12-19.5l-3 10.5V187c1.521 0 6.643 16 10 16h6Z"/><path fill="#FD7E84" id="VAL" d="m164 201 5 2 3-4.5 9.5-7.5c7.144-3.572 12.881-2 20.5-2l2-5v-3c-3.455 0-17-15.459-17-19-6.604 0-12.637 12-13 12 0 5.012.666 16-8 16 0 2.374-4.224 7-7 7l2 2 3 2ZM292 202l-5 1c0-2.519-2.759-4.259-4.5-6-9.4-9.4-16.537-8-28.5-8l-1-4-1-3c0-2.672 18-12.908 18-20 5.016 0 11.928 11 12 11 0 6.009.091 17 8 17 0 4.049 7 4.887 7 7l-1 2-1 1-3 2Z"/><path fill="#8598CC" id="GPe" d="M332 203h6c3.312 0 9.834-16 10-16l1-11.5-4-13.5c-8.98 0-9.455 16.41-12 21.5-.703 1.406 1.261 7.5-1 7.5v2l-1 1v4l-1 1 1 4h1Z"/><path fill="#11AC83" id="VISC6a" d="m396 190-1 1c-4.345 0-7.214-2-12-2v-4c3.12 0 3-17.388 3-21l11-2c0 4.927 3.481 14.538 1 19.5-1.016 2.031-2 6.247-2 8.5Z"/><path fill="#C9C9CA" id="scwm" d="M71 164v1l1-2-1 1Z"/><path fill="#11AD82" id="VISC6b" d="M74 189h1c0-7.384-4-14.437-4-23v-2h-1v12.5l4 12.5ZM385 166c0 6.971-2 12.691-2 19 3.12 0 3-17.388 3-21h-1v2Z"/><path fill="#C8CBCC" id="ec" d="M81 205h2l-1-2-5-12.5c-2.436-4.873-2-18.262-2-24.5h-4c0 8.563 4 15.616 4 23v2c1.193 0 6 12.362 6 14ZM379 198l-2 1c0-4.609 1.977-12.454 4-16.5V166h4c0 6.971-2 12.691-2 19l-2 4v3c-1.995 0-2 4.377-2 6Z"/><path fill="#FD8E9E" id="CM" d="M241 185h2l1-1h1l1-1-4-7-8-5h-12l-1 1-6 4c0 2.46-4 4.17-4 7l1 1h1l1 1h3c0-1.665 4.222-1 5.5-1 5.751 0 12.418 1 17.5 1h1Z"/><path fill="#FE909F" id="IMD" d="m222 171-1 1 1-1Z"/><path fill="#C7CACA" id="em" d="M319 172c-1.638 0-2 3.576-2 5 1.638 0 2-3.576 2-5ZM317 177c-1.617 0-4 4.583-4 6 2.177 0 4-4.336 4-6Z"/><path fill="#FF6F80" id="TH" d="m206 183-2 1v-3l2 2ZM251 183l2 2-1-3-1 1Z"/><path fill="#FD8E9F" id="SMT" d="m204 212 1 1c6.302 0 12.018-7 15-7 0-3.385 4-6.951 4-10 0-3.21-3.033-10-7-10l-1-1h-2l-1-1h-1c-1.048 0-3 .473-3-1h-3l-2 1-2 5c0 3.06-5.156 18-1 18l1.5-4c10.467-10.467 9.117 9 1.5 9Z"/><path fill="#FF6F80" id="TH" d="m211 183 1 1c-1.048 0-3 .473-3-1h2ZM247 183l-2 1 1-1h1Z"/><path fill="#FD8E9F" id="SMT" d="m253 212-2 1c-6.652 0-13.052-8-15-8l-3-8c0-4.595 1.567-11 7-11l1-1h2l1-1h1l2-1h4l2 2 1 4c0 2.481 5.985 19 1 19 0-3.058-5.499-12.503-8-7.5-2.569 5.139.997 11.5 6 11.5Z"/><path fill="#C7CACA" id="em" d="M313 183c-1.811 0-4 3.438-4 5 1.811 0 4-3.438 4-5Z"/><path fill="#FF6F80" id="TH" d="m213 184 1 1-1-1Z"/><path fill="#FF8E9E" id="RH" d="M224 196c3.013 0 6.611 1 9 1 0-4.595 1.567-11 7-11v-1c-5.082 0-11.749-1-17.5-1-1.278 0-5.5-.665-5.5 1v1c3.967 0 7 6.79 7 10Z"/><path fill="#FF6F80" id="TH" d="m244 184-1 1 1-1ZM217 185v1l-1-1h1ZM241 185l-1 1v-1h1Z"/><path fill="#11AD82" id="VISC6b" d="M382 189h1v-4l-2 4h1Z"/><path fill="#8499CC" id="GPi" d="M306 225h1l2-1 1-1h1l1-1 1-1 2-2 2-2 1-1 1-1v-1l1-1 1-1 9-13 1-1v-4l1-1v-2l-.5-5-7 8c-7.112 3.556-13.999 7.5-21 11l-9.5 9-1 1v1c0 5.798 2.102 9 8 9h5Z"/><path fill="#97D6F9" id="STR" d="m96 214 3 1c3.278 0 6.954-4 11-4l1-1 4-2h8l-5-5c-3.357 0-8.479-16-10-16 0 19.041 6.025 20-17 20l5 7Z"/><path fill="#8499CC" id="GPi" d="M150 225h5c6.564 0 8-2.391 8-9 0-7.425-22.328-16.414-27.5-19-2.277-1.139-11.5-15.22-11.5-7v2l1 1 1 6 9 12 1 1v1l3 3v1l6 6h1l3 2h1Z"/><path fill="#97D6F9" id="STR" d="m361 213-4 3c0-2.599-9.169-6-11-6l-5-2c-1.564 0-3.876-1-6-1l3-4c3.312 0 9.834-16 10-16 0 20.182-5.163 20 18 20 0 2.572-5 2.494-5 6Z"/><path fill="#FF7E84" id="VM" d="m205 213-1 3c-9.179 0-16.891-8-26-8l-1-1h-2l-1-1-3-1-1-1h-1v-1l3-4.5 9.5-7.5c7.144-3.572 12.881-2 20.5-2 0 3.06-5.156 18-1 18 0 1.766.607 5 3 5l1 1ZM251 213l1 3c9.172 0 17.062-8 26-8l1-1h2l1-1h1l1-1h2l1-1v-1c0-2.519-2.759-4.259-4.5-6-9.4-9.4-16.537-8-28.5-8 0 2.481 5.985 19 1 19 0 2.424-2 2.76-2 4l-2 1Z"/><path fill="#C7CACA" id="em" d="m309 188-1 1 1-1Z"/><path fill="#209766" id="AIp6a" d="M70 211h1c0-5.151 6.441-5 9-5 0-4.82-5-9.565-5-15v-1l-1-1c-5.272 0-8.385 2-13 2 0 3.17 8 13.082 8 20h1Z"/><path fill="#219666" id="AIp6b" d="M75 189v1l-1-1h1Z"/><path fill="#C7CACA" id="em" d="m308 189-1 1 1-1Z"/><path fill="#219666" id="AIp6b" d="m382 189-1 2v-2h1Z"/><path fill="#209766" id="AIp6a" d="M386 211h1c0-7.064 8-15.153 8-20-4.345 0-7.214-2-12-2h-1l-1 2v1c0 1.623-.005 6-2 6 0 1.424-.362 5-2 5v3c1.278 0 8 .225 8 4l1 1Z"/><path fill="#219864" id="AIp5" d="M68 211h1c0-6.918-8-16.83-8-20v-1c-4.035 0-10.015 2-14 2 0 3.987 4.561 14.031 8.5 16 1.258.629 7.5 3.576 7.5 5l5-2Z"/><path fill="#C7CACA" id="em" d="m307 190-1 1 1-1Z"/><path fill="#219864" id="AIp5" d="m388 211 5 2 6.5-4c4.036-2.018 10.5-13.084 10.5-17-4.035 0-10.015-2-14-2l-1 1c0 4.847-8 12.936-8 20h1Z"/><path fill="#219666" id="AIp6b" d="m80 206 1 1v-2c0-1.638-4.807-14-6-14 0 5.435 5 10.18 5 15Z"/><path fill="#C7CACA" id="em" d="m306 191-1 1 1-1Z"/><path fill="#209865" id="AIp2/3" d="m63 213-14 4c0-2.632-13-15.417-13-23l10-2h1c0 3.987 4.561 14.031 8.5 16 1.258.629 7.5 3.576 7.5 5Z"/><path fill="#CCC" d="m124 192 1 1-1-1Z"/><path fill="#C7CACA" id="em" d="m305 192-1 1 1-1Z"/><path fill="#219666" id="AIp6b" d="M381 192c-1.995 0-2 4.377-2 6 1.995 0 2-4.377 2-6Z"/><path fill="#209865" id="AIp2/3" d="M393 213c5.601 0 9.601 4 15 4 0-2.821 13-17.114 13-23-3.419 0-7.224-2-11-2 0 3.916-6.464 14.982-10.5 17l-6.5 4Z"/><path fill="#219765" id="AIp1" d="m49 217-5 2c-2.586 0-14-20.385-14-24 1.041 0 5-.986 5-2l1 1c0 7.583 13 20.368 13 23Z"/><path fill="#C7CACA" id="em" d="M304 193c-1.238 0-3 .423-3 2 1.238 0 3-.423 3-2Z"/><path fill="#CCC" d="m332 193-1 1 1-1Z"/><path fill="#219765" id="AIp1" d="M408 217c0 1.638 3.576 2 5 2 0-5.448 14-15.765 14-24l-6-1c0 5.886-13 20.179-13 23Z"/><path fill="#C7CACA" id="em" d="m301 195-2 2c1.747 0 2-.253 2-2Z"/><path fill="#FD909F" id="RE" d="M225 222c0-2.589-.506-18.497 2.5-20 2.332-1.166 2.115 2.73 2.5 3.5 2.569 5.138 1 11.399 1 16.5 3.091 0 5.478-2 8-2 0-5.447-3-9.76-3-15l-3-8c-2.389 0-5.987-1-9-1 0 3.049-4 6.615-4 10l-3 14c2.522 0 4.909 2 8 2Z"/><path fill="#C7CACA" id="em" d="M299 197c0 1.577-1.762 2-3 2l1-2h2Z"/><path fill="#8599CC" id="PAL" d="m331 198-1 1 1-1Z"/><path fill="#219666" id="AIp6b" d="M377 199v4c1.638 0 2-3.576 2-5l-2 1Z"/><path fill="#8599CC" id="PAL" d="m153 237 6 2c0-11.193 4.848-3.348 11-9.5.825-.825 3.33-6.5 1-6.5 0 5.49-4.908-6-6-6l-2-1c0 6.609-1.436 9-8 9 0 1.566-5 1.566-5 0h-1c-1.238 0-3-.423-3-2h-1l-6-6v-1l-3-3v-1l-1-1-9-12v4c1.811 0 9.507 12.007 11.5 14 1.427 1.427 11.433 11.783 9 13-2.606 1.303-4.479-3-6.5-3l5 6v1l1 1 2 2 2-1 3 1Z"/><path fill="#C7C9CC" id="mtt" d="M201 207c0 1.766.607 5 3 5 7.617 0 8.967-19.467-1.5-9l-1.5 4ZM255 208c0 2.424-2 2.76-2 4-5.003 0-8.569-6.361-6-11.5 2.501-5.003 8 4.442 8 7.5Z"/><path fill="#C7CACA" id="em" d="m296 199-1 1 1-1Z"/><path fill="#8599CC" id="PAL" d="M321 212v1c4.604 0 5.141-10 10-10l-1-4-9 13Z"/><path fill="#C8CBCC" id="ec" d="M374 205h1l2-2v-4c-1.577 0-2 1.762-2 3l-1 1v2Z"/><path fill="#FF6F80" id="TH" d="m169 204-3 1-2-4 5 2v1Z"/><path fill="#FC8F9F" id="Xi" d="M225 222c1.091 0 6 2.079 6 0 0-5.101 1.569-11.362-1-16.5-.385-.77-.168-4.666-2.5-3.5-3.006 1.503-2.5 17.411-2.5 20Z"/><path fill="#FF6F80" id="TH" d="m287 204 4 1 1-3-5 1v1Z"/><path fill="#97D6F9" id="STR" d="m375 202-1 1 1-1ZM83 205h2l-3-2 1 2Z"/><path fill="#8599CC" id="PAL" d="m123 208 1 1v-6h-6l5 5Z"/><path fill="#A2B1D7" id="SI" d="M137 225c2.215 0 1.519 2 3 2 2.021 0 3.894 4.303 6.5 3 2.433-1.217-7.573-11.573-9-13-1.993-1.993-9.689-14-11.5-14h-2v6c1.914 0 11.204 14 12 14l1 1v1ZM315 228v1l-2.5 1c-1.63.815-4.581-.339-3.5-2.5 1.001-2.002 8-5.048 8-8.5v-1l1-1 1-1c1.577 0 2-1.762 2-3 4.604 0 5.141-10 10-10h1l1 4v1l-1 1-1 1c0 4.696-11 8.845-11 14l-1 1-3 2-1 1Z"/><path fill="#8599CC" id="PAL" d="M333 207h2l3-4h-6l1 4Z"/><path fill="#97D6F9" id="STR" d="M373 205h1v-2l-2 2h1Z"/><path fill="#219666" id="AIp6b" d="m377 206-2 1v-2l2-2v3Z"/><path fill="#F0483B" id="ZI" d="M191 223h1c4.325 0 17 2.195 17-4l-5-3c-9.179 0-16.891-8-26-8l-1-1h-2l-1-1-3-1-1-1h-1l-3 1-2 2 2 3 4 5 2 1 8 4 1 1h1c1.517 0 9 .726 9 2Z"/><path fill="#FF6F80" id="TH" d="m170 204 1 1-1-1ZM287 204l-1 1 1-1Z"/><path fill="#F0483B" id="ZI" d="M264 223h2c0-1.274 7.483-2 9-2l1-1 9-4 1-1 1-1 2-2 1-1 1-2 1-1v-1l-1-2-4-1-1 1h-2l-1 1h-1l-1 1h-2l-1 1c-8.938 0-16.828 8-26 8l-5 3c0 5.968 12.696 4 17 4Z"/><path fill="#A0EE9C" id="EPd" d="M74 228c2.218 0 10 11.998 10 1l-1-17.5-2-4.5-1-1c-2.559 0-9-.151-9 5v1c0 2.109 7.898 17.699 4.5 16l-4.5-9v2l1 2v1l1 1v1l1 1v1Z"/><path fill="#C8C9CB" id="amc" d="M86 235c0 2.676 5.53 16 9 16 0-2.327-8-12.715-8-21-2.144 0-.38-4.262-1-5.5-1.276-2.553-3-16.612-3-19.5h-2v2l2 4.5 1 17.5c.913 0 2 5.014 2 6Z"/><path fill="#90EB8D" id="LA" d="M97 217c-9.357 0-10 2.997-10 13-2.144 0-.38-4.262-1-5.5-1.276-2.553-3-16.612-3-19.5h2c2.447 0 3.28 2 6 2l5 7c-2.276 0 1 2.078 1 3Z"/><path fill="#8599CC" id="PAL" d="m162 205 1 1-1-1Z"/><path fill="#FD909C" id="PR" d="m239 220 1 1c2.833 0 4.84-2 7-2l5-3-1-3c-6.652 0-13.052-8-15-8 0 5.24 3 9.553 3 15Z"/><path fill="#FF6F80" id="TH" d="m284 205-1 1 1-1Z"/><path fill="#8599CC" id="PAL" d="m295 205-1 1 1-1Z"/><path fill="#90EB8D" id="LA" d="M360 216c4.626 0 6.938 1.376 9 5.5.619 1.238-1.144 5.5 1 5.5 0-7.212 3-14.711 3-22h-1l-6 2c0 2.572-5 2.494-5 6l-1 3Z"/><path fill="#C8C9CB" id="amc" d="m371 234-2 3v-5l1-1v-4c0-7.212 3-14.711 3-22h2v2c0 5.45-2 12.911-2 20l-1 1v2l-1 4Z"/><path fill="#A0EE9C" id="EPd" d="m381 230-1 1-4.5 3c-2.531 0-2.014-4-3.5-4v-2l1-1c0-7.089 2-14.55 2-20l2-1c1.278 0 8 .225 8 4l1 1c0 4.974-3.887 10.273-6 14.5-.472.945-.156 3.5 1 3.5v1Z"/><path fill="#FF6F80" id="TH" d="m174 206 1 1-1-1Z"/><path fill="#FD909C" id="PR" d="M217 220v1c-3.303 0-5.115-2-8-2l-5-3 1-3c6.302 0 12.018-7 15-7l-3 14Z"/><path fill="#FF6F80" id="TH" d="m282 206-1 1 1-1Z"/><path fill="#8599CC" id="PAL" d="m294 206-1 1 1-1Z"/><path fill="#7FC0E0" id="CEAm" d="M127 249h1c2.25 0 3.376-2 5-2v-2c-2.446 0-6.34-10.58-3.5-12 2.528-1.264 1.899 8 3.5 8 2.144 0 .381-4.262 1-5.5.579-1.157 3-5.491 3-6.5v-5l-1-1c-.796 0-10.086-14-12-14l-1-1h-8l4 2.5 2 6c2.21 4.42-2 9.93-2 13.5l-1 1h-1c0 2.244-1.725 6-4 6 0 1.458 3.266 7.383 4.5 8l5.5 3h1c1.048 0 3-.473 3 1Z"/><path fill="#FF6F80" id="TH" d="m177 207 1 1-1-1ZM279 207l-1 1 1-1Z"/><path fill="#8599CC" id="PAL" d="m293 207-1 1v-1h1Z"/><path fill="#97D6F9" id="STR" d="m335 207-2 1v-1h2Z"/><path fill="#7FC0E0" id="CEAm" d="M329 249h1c0-1.473 1.952-1 3-1l3-1.5c2.251-2.251 8-5.796 8-9.5-2.405 0-5-3.681-5-6-3.227 0-4.36-13.78-3-16.5.643-1.287 5-6.201 5-6.5-1.564 0-3.876-1-6-1l-2 1-1 1-1 1c0 4.696-11 8.845-11 14l-1 1v4c3.234 0 4 11.241 4 14 2.49 0 .71-10 3.5-10l.5 5c0 4.002-1.553 6-4 6v2c2.165 0 2.546 3 6 3Z"/><path fill="#80BEE1" id="CEAl" d="M117 231h1l1-1c0-3.57 4.21-9.08 2-13.5l-2-6-4-2.5-4 2-1 1c0 3.673 1.268 20 7 20Z"/><path fill="#8599CC" id="PAL" d="m292 208-1 1 1-1ZM333 208l-1 1 1-1Z"/><path fill="#80BEE1" id="CEAl" d="M346 210c0 4.291.124 21-7 21-3.227 0-4.36-13.78-3-16.5.643-1.287 5-6.201 5-6.5l5 2Z"/><path fill="#CCCACB" id="nst" d="M171 220v3c0 5.49-4.908-6-6-6 0-.799-6.197-8-2.5-8l4.5 3v1l1 1 2 3v2l1 1ZM286 219l-1 6c3.97 0 3.411-8 6-8l1-1 1-1 1-1c0-5.964 1.088-3-4-3l-1 1c0 1.176-2.114 7-3 7Z"/><path fill="#8599CC" id="PAL" d="m332 209-1 1 1-1Z"/><path fill="#80BFE0" id="CEAc" d="m111 210-1 1 1-1Z"/><path fill="#8599CC" id="PAL" d="m171 216-1 1-2-3-1-1v-1l-1-2 4 5 1 1Z"/><path fill="#80BFE0" id="CEAc" d="M344 237h1l3-6 1-1c0-1.465-.109-4 2-4 0-1.408 1.197-5 3-5 0-2.364 3-3.053 3-5 0-2.599-9.169-6-11-6 0 4.291.124 21-7 21 0 2.319 2.595 6 5 6Z"/><path fill="#8AD987" id="CTXsp" d="m385 210 1 1-1-1Z"/><path fill="#6ACAB9" id="PIR" d="M97 276c0 5.654-11 15.245-11 20-2.912 0-11.811-14.123-13-16.5l-14-23c-3.447-6.893-4.583-15.166-8-22L44 219l5-2 14-4 5-2 2 6v1l1 1v2l1 2v1l1 1v1l1 1v1c0 1.546 5.45 10 7 10 0 10.985 17 23.718 17 35v2l-1 1Z"/><path fill="#C9C8CA" id="ee" d="M71 218v1l4.5 9c3.398 1.699-4.5-13.891-4.5-16l-1-1h-2l2 6 1 1Z"/><path fill="#8AD987" id="CTXsp" d="M71 211v1l-1-1h1Z"/><path fill="#80BFE0" id="CEAc" d="M111 237h2c2.275 0 4-3.756 4-6-5.732 0-7-16.327-7-20-4.046 0-7.722 4-11 4 0 4.718 9 9.883 9 16l3 6Z"/><path fill="#CCC" d="m135 211 1 1-1-1Z"/><path fill="#8599CC" id="PAL" d="m290 211-1 1 1-1Z"/><path fill="#C9C8CA" id="ee" d="M381 228v1c-1.156 0-1.472-2.555-1-3.5 2.113-4.227 6-9.526 6-14.5h2l-2 7-1 1v1c-1.638 0-2 3.576-2 5-1.577 0-2 1.762-2 3Z"/><path fill="#6ACAB9" id="PIR" d="M359 275c0 2.228 9.855 20 12 20 2.617 0 12.574-14.647 14-17.5 4.929-9.859 10.868-18.736 16-29 1.966-3.932 2.053-9.106 4-13 1.478-2.956 8-13.861 8-16.5-1.424 0-5-.362-5-2-5.399 0-9.399-4-15-4l-5-2-2 7v1l-1 1v3l-1 1v1l-1 1v1l-1 1-1 1v1l-1 1c0 1.334-2.972 6-4 6 0 11.08-18 24.987-18 36l1 2Z"/><path fill="#8599CC" id="PAL" d="M286 217v2c.886 0 3-5.824 3-7l-2 2-1 1v2Z"/><path fill="#CCC" d="M320 213h1v-1l-1 1ZM136 213l3 3-3-3ZM167 213l1 1-1-1ZM320 213l-1 1 1-1Z"/><path fill="#8599CC" id="PAL" d="M319 215v1c1.577 0 2-1.762 2-3h-1l-1 1v1Z"/><path fill="#C8CBCC" id="ec" d="m359 217-5 4c0-2.364 3-3.053 3-5l4-3-1 3-1 1ZM97 217c4.794 0 9.469 14 11 14 0-6.117-9-11.282-9-16l-3-1c-2.276 0 1 2.078 1 3Z"/><path fill="#E64438" id="HY" d="m287 214-1 1 1-1Z"/><path fill="#CCC" d="m294 214-1 1 1-1Z"/><path fill="#E64438" id="HY" d="M171 216h1l-2-1 1 1ZM285 216l1 1v-2l-1 1Z"/><path fill="#CCC" d="M292 216h1v-1l-1 1ZM318 216h1v-1l-1 1Z"/><path fill="#9DE79B" id="BLAa" d="M102 256h1l1-1h2c1.481 0 .785-2 3-2v-1l1-1 1-1c0-2.583 2-3.934 2-7 0-2.483-2-4.026-2-6l-3-6c-1.531 0-6.206-14-11-14-9.357 0-10 2.997-10 13 0 8.285 8 18.673 8 21v1l3 3h1l3 1Z"/><path fill="#F2483A" id="LHA" d="m175 261 5 1 4-3v-1c0-7-3.792-20 8-20v-6c-1.077 0-3-3.762-3-5-1.171 0-7-3.976-7-6h-1l-1-1-8-4h-1l-1 1v2l1 1v3c2.33 0-.175 5.675-1 6.5-6.152 6.152-11-1.693-11 9.5l3.5 5 12.5 17ZM281 261l-4 1-4-3v-1c0-7.248 2.829-20-9-20v-5l1-1 2-4 1-1 7-6 1-1 9-4 1 1v2l-1 6c0 9.563 10.128 3.755 13 9.5l-1 4.5-7 11v1l-1 1-1 1-1 1c-1.577 0-2 1.762-2 3l-3 3-1 1Z"/><path fill="#CCC" d="m292 216-1 1 1-1Z"/><path fill="#8599CC" id="PAL" d="m302 238-5 1 1-4.5c-2.872-5.745-13 .063-13-9.5 3.97 0 3.411-8 6-8l1-1h1c0 5.798 2.102 9 8 9 0 1.566 5 1.566 5 0h1l2-1 1-1h1l1-1 1-1 2-2h2c0 3.452-6.999 6.498-8 8.5-1.081 2.161 1.87 3.315 3.5 2.5l2.5-1v1l-1 1-5 6c-1.137 0-4-2.091-4 0h-2l-1 1Z"/><path fill="#CCC" d="M317 217h1v-1l-1 1Z"/><path fill="#8599CC" id="PAL" d="m319 216-1 1v-1h1Z"/><path fill="#90EB8D" id="LA" d="m360 216-1 1 1-1Z"/><path fill="#9DE79B" id="BLAa" d="M354 256h1l3-1 1-1 1-1 1-1 1-1 1-1v-1l1-1 1-1v-1l2-4c0-1.424.362-5 2-5v-5l1-1v-4c-2.144 0-.381-4.262-1-5.5-2.062-4.124-4.374-5.5-9-5.5l-1 1-5 4c0 1.408-1.197 5-3 5l-2 4-1 1-3 6-2 7 4 8 1 1 3 2 3 1Z"/><path fill="#A0EE9C" id="EPd" d="M70 218h1l-1-1v1Z"/><path fill="#CCC" d="m139 217 6 6-6-6ZM315 219h2v-2l-2 2Z"/><path fill="#8599CC" id="PAL" d="m318 217-1 1v-1h1Z"/><path fill="#8AD987" id="CTXsp" d="M71 218v1l-1-1h1Z"/><path fill="#A0EE9C" id="EPd" d="M385 219h1v-1l-1 1Z"/><path fill="#8599CC" id="PAL" d="m170 219 1 1-1-1Z"/><path fill="#E64438" id="HY" fill-rule="evenodd" d="m221 239-2 3.5c0 7.439 8.797-3.5 2-3.5m-4 42c0 1.562-6.653 5-8 5 0-3.892-4.792-4.292-7-6.5-4.408-4.408-13.373-20.5-18-20.5v-1l3-2c1.78 0 6-1.891 6-6 2.8 0 6-1.875 6-5 1.947 0 3.644 3.428 6.5 2 7.091-3.545 4.658-9.171-1-12-2.652-1.326-6.234 5-7.5 5 0-1.014-3.959-2-5-2v-6l2.5 1c8.081-4.04-2.5-8.257-2.5-10 4.325 0 17 2.195 17-4 2.885 0 4.697 2 8 2l1 1c-3.064 0-13.906 4.797-7.5 8 4.087 2.043 9.773 3 13.5 3v25c-2.468 0-4.685-9.407-13.5-5-7.909 3.954-20.355 20.322-7 27 4.832 2.416 8.363 1 13.5 1Z"/><path fill="#E64438" id="HY" d="M232 260c.265 0 4.524-7.012 6.5-8 7.269-3.634 17.104 9.709 19.5 14.5l-1 10.5c3.536 0 8.683-18 16-18v-1l-4-2c-2.041 0-6-3.974-6-6-1.664 0-6-1.823-6-4l-5.5 1c-16.972-8.486 7.5-16.708 7.5-7l5-2v-5c-3.04 0-6.805-2.89-5-6.5l5-3.5c-4.304 0-17 1.968-17-4-2.16 0-4.167 2-7 2l-1 1c17.601 0 2.318 12-6 12v6c8.983 0 0 9.424 0 1-1.614 0-1 3.31-1 4.5V260Z"/><path fill="#8AD987" id="CTXsp" d="m386 219-1 1v-1h1Z"/><path fill="#E64438" id="HY" d="m180 220 1 1-1-1Z"/><path fill="#FF6F80" id="TH" d="M225 225h6l3-1 1-1h1l2-1h1l1-1-1-1c-2.522 0-4.909 2-8 2 0 2.079-4.909 0-6 0-3.091 0-5.478-2-8-2v1l1 1h1c1.408 0 5 1.197 5 3h1Z"/><path fill="#E64438" id="HY" d="m276 220-1 1 1-1Z"/><path fill="#A0EE9C" id="EPd" d="M383 225h1v-1l1-1v-3c-1.638 0-2 3.576-2 5Z"/><path fill="#8AD987" id="CTXsp" d="m71 221 1 2-1-2Z"/><path fill="#E64438" id="HY" d="M191 223c-2.109 0-2 2.535-2 4-1.171 0-7-3.976-7-6 1.517 0 9 .726 9 2ZM266 223c2.109 0 2 2.535 2 4l7-6c-1.517 0-9 .726-9 2Z"/><path fill="#CCC" d="m313 221-1 1 1-1Z"/><path fill="#C8CBCC" id="ec" d="M354 221c-1.803 0-3 3.592-3 5 1.803 0 3-3.592 3-5Z"/><path fill="#FF4C3D" id="PVHd" d="M227 229c-2.098 0-3 1.939-3 4-3.727 0-9.413-.957-13.5-3-6.406-3.203 4.436-8 7.5-8h1l5 3h1l2 4Z"/><path fill="#E64438" id="HY" d="M219 222c1.408 0 5 1.197 5 3l-5-3ZM238 222l-2 1 2-1Z"/><path fill="#FF4C3D" id="PVHd" d="M230 229c2.393 0 3 3.234 3 5 8.318 0 23.601-12 6-12h-1l-2 1h-1l-1 1-3 1-1 4Z"/><path fill="#CCC" d="m312 222-1 1 1-1Z"/><path fill="#97D6F9" id="STR" d="m136 223 1 1-1-1Z"/><path fill="#CCC" d="m146 223 3 2c-1.238 0-3-.423-3-2Z"/><path fill="#FF4C3D" id="PVHd" d="M189 227c0 1.238 1.923 5 3 5l2.5 1c8.081-4.04-2.5-8.257-2.5-10h-1c-2.109 0-2 2.535-2 4Z"/><path fill="#E64438" id="HY" d="m235 223-1 1 1-1Z"/><path fill="#FF4C3D" id="PVHd" d="m265 232-1 1c-3.04 0-6.805-2.89-5-6.5l5-3.5h2c2.109 0 2 2.535 2 4l-1 1-2 4Z"/><path fill="#CCC" d="m310 223-1 1 1-1Z"/><path fill="#8AD987" id="CTXsp" d="m385 223-1 1 1-1ZM72 224l1 1-1-1Z"/><path fill="#CCC" d="m309 224-2 1 2-1Z"/><path fill="#97D6F9" id="STR" d="m320 224-1 1 1-1ZM137 229c3.715 0 5.378 4 8 4l-5-6c-1.481 0-.785-2-3-2v4Z"/><path fill="#CCC" d="M150 225h5c0 1.566-5 1.566-5 0Z"/><path fill="#E64438" id="HY" d="M227 232h2c0-1.048-.473-3 1-3l1-4h-6l2 4v3Z"/><path fill="#CCC" d="M301 225h5c0 1.566-5 1.566-5 0Z"/><path fill="#97D6F9" id="STR" d="M315 229h4v-4l-3 2-1 1v1Z"/><path fill="#A0EE9C" id="EPd" d="M381 228h1l1-1v-2c-1.577 0-2 1.762-2 3Z"/><path fill="#8AD987" id="CTXsp" d="m384 225-1 1v-1h1ZM73 226l1 1-1-1Z"/><path fill="#C8CBCC" id="ec" d="M351 226c-2.109 0-2 2.535-2 4l2-4Z"/><path fill="#E64438" id="HY" d="m268 227-1 1 1-1Z"/><path fill="#8599CC" id="PAL" d="m316 227-1 1 1-1Z"/><path fill="#8AD987" id="CTXsp" d="m373 227-1 1 1-1ZM383 227l-1 1 1-1ZM86 235c-1.832 0-5-.818-5 3-1.55 0-7-8.454-7-10 2.218 0 10 11.998 10 1 .913 0 2 5.014 2 6ZM382 228l-1 1v-1h1Z"/><path fill="#80BFE1" id="MEA" d="M141 288h2c3.596 0 15.773-11.046 17-13.5V263l-7-18-1-1v-1l-1-1v-1c-1.712 0-3-2.571-3-4l-2-2-1-1v-1c-2.622 0-4.285-4-8-4 0 1.009-2.421 5.343-3 6.5-.619 1.238 1.144 5.5-1 5.5v31c0 2.467 5.067 16 8 16Z"/><path fill="#FD5D50" id="PVi" d="M224 273h3v-44c-2.098 0-3 1.939-3 4v40ZM229 273h3v-27.5c0-1.19-.614-4.5 1-4.5v-7c0-1.766-.607-5-3-5-1.473 0-1 1.952-1 3v41Z"/><path fill="#80BFE1" id="MEA" d="M314 288h1c3.262 0 8-11.848 8-15v-4c0-4.284 1-9.371 1-13 0-3.325-1-7.31-1-10v-3c0-2.759-.766-14-4-14h-4v1l-1 1-5 6-2 2-1 2-1 1v1l-1 1c0 6.411-7 12.23-7 19 0 2.421-2.411 6.678-1 9.5 2.603 5.206 11.612 15.5 18 15.5Z"/><path fill="#80BFE0" id="CEAc" d="m119 230-1 1 1-1Z"/><path fill="#97D6F9" id="STR" d="m315 230-1 1 1-1Z"/><path fill="#C8CBCC" id="ec" d="m349 230-1 1 1-1Z"/><path fill="#8AD987" id="CTXsp" d="M371 234c2.554 0 3.688 3 5 3 1.028 0 4-4.666 4-6l-4.5 3c-2.531 0-2.014-4-3.5-4l-1 4ZM381 230l-1 1 1-1Z"/><path fill="#90EB8D" id="LA" d="m370 231-1 1 1-1Z"/><path fill="#A8A9AA" id="V3" d="M227 273c0 7.877 2 7.877 2 0v-41h-2v41Z"/><path fill="#E64438" id="HY" d="m265 232-1 1 1-1Z"/><path fill="#C7CAC8" id="stc" d="M133 241c-1.601 0-.972-9.264-3.5-8-2.84 1.42 1.054 12 3.5 12v-4ZM323 243c2.49 0 .71-10 3.5-10l.5 5c0 4.002-1.553 6-4 6v-1Z"/><path fill="#A0ED9D" id="EPv" d="m100 275 5 1 2-2-1-6-8-13-3-3v-1c-3.47 0-9-13.324-9-16-1.832 0-5-.818-5 3 0 10.985 17 23.718 17 35l2 2Z"/><path fill="#97D6F9" id="STR" d="m145 234 1 1-1-1Z"/><path fill="#A0ED9D" id="EPv" d="m357 275-5 1c-1.577 0-2-1.762-2-3l1-8c1.617 0 4-4.583 4-6l2-2 1-1v-1l1-1 1-1 1-1 1-1 1-1v-1l1-1 1-1v-1c2.109 0 2-2.535 2-4 1.638 0 2-3.576 2-5l2-3c2.554 0 3.688 3 5 3 0 11.08-18 24.987-18 36l-1 2Z"/><path fill="#FF4B3E" id="AHN" d="M197 240c1.266 0 4.848-6.326 7.5-5 5.658 2.829 8.091 8.455 1 12-2.856 1.428-4.553-2-6.5-2 0-2.567-2-3.913-2-5ZM259 240c0 1.714-2 3.482-2 6l-5.5 1c-16.972-8.486 7.5-16.708 7.5-7Z"/><path fill="#CAC7CB" id="fiber tracts" d="M148 237c0 1.429 1.288 4 3 4l-1-5-2 1Z"/><path fill="#CACCCB" id="opt" d="M165 267h2c10.959 0-6.808-21.116-9-25.5l-5-4.5-3-1 1 5v1l1 1v1l1 1 7 18 1 1 1 1 3 2Z"/><path fill="#CAC7CB" id="fiber tracts" d="m309 237-2 2c0-1.747-.253-2-2-2 0-2.091 2.863 0 4 0Z"/><path fill="#97D6F9" id="STR" d="M117 248h6l-5.5-3c-1.234-.617-4.5-6.542-4.5-8h-2c0 1.974 2 3.517 2 6l4 5Z"/><path fill="#CAC7CB" id="fiber tracts" fill-rule="evenodd" d="m167 253 7 10.5c.417.835 4.256 8.488 5 7l-2-4c-1.099-2.197-7.401-13.5-10-13.5m-2-3c0 3.781 3.781 0 0 0m2 17 5.5 4c3.018 3.018 16.306 16 19.5 16 0-.615-13-13.807-13-21l-4-5-12.5-17-3.5-5-6-2 5 4.5c2.192 4.384 19.959 25.5 9 25.5Z"/><path fill="#CAC7CB" id="fiber tracts" d="m303 237-1 1 1-1Z"/><path fill="#CACCCB" id="opt" d="M290 267h1l2-1h1l1-1 2-2c0-6.77 7-12.589 7-19l1-1v-1l1-1 1-2c0-1.747-.253-2-2-2h-2l-1 1c0 3.923-27.805 29-12 29Z"/><path fill="#97D6F9" id="STR" d="M333 248h6l4-4 2-7h-1c0 3.704-5.749 7.249-8 9.5l-3 1.5Z"/><path fill="#C8C9CB" id="amc" d="M369 237c-1.638 0-2 3.576-2 5 1.638 0 2-3.576 2-5Z"/><path fill="#F2463A" id="PeF" d="m187 256-3 2c0-7-3.792-20 8-20 1.041 0 5 .986 5 2 0 1.087 2 2.433 2 5 0 3.125-3.2 5-6 5 0-4.634-4.898-2.705-6-.5v6.5ZM269 256l4 2c0-7.248 2.829-20-9-20l-5 2c0 1.714-2 3.482-2 6 0 2.177 4.336 4 6 4 0-6.339 5.785-.93 7 1.5l-1 4.5Z"/><path fill="#CAC7CB" id="fiber tracts" fill-rule="evenodd" d="m290 267-5.5 3c-2.704 2.704-14.762 15-17.5 15 0-3.334 10-11.701 10-18l2-1c0-1.238.423-3 2-3v-2l1-1 3-3c0-1.238.423-3 2-3 0 4.451 3.402-1 1-1l1-1c0 2.029 1 .058 1-1 1.186 0 1.186-1 0-1l7-11 5-1c0 3.923-27.805 29-12 29m-11-1c0 .524-1.962 5-.5 5l2.5-5.5-2 .5m2-3c0 5.73 5.068-4 3.5-4l-3.5 4m4-6c0 2.609 4.136 0 0 0Z"/><path fill="#FE5445" id="DMH" d="m221 239-2 3.5c0 7.439 8.797-3.5 2-3.5ZM233 240c8.983 0 0 9.424 0 1v-1Z"/><path fill="#CAC7CB" id="fiber tracts" d="m307 239-1 2 1-2ZM306 241l-1 1 1-1ZM151 242l1 1-1-1Z"/><path fill="#C8C9CB" id="amc" d="m367 242-2 4c2.109 0 2-2.535 2-4Z"/><path fill="#8AD987" id="CTXsp" d="M116 249c0-3.208-4.47 1-5 1 0-2.583 2-3.934 2-7l4 5-1 1Z"/><path fill="#CAC7CB" id="fiber tracts" d="m305 243-1 1 1-1ZM152 244l1 1-1-1Z"/><path fill="#8AD987" id="CTXsp" d="M340 249c0-4.063 6.953 3 7 3l-4-8-4 4 1 1Z"/><path fill="#97D6F9" id="STR" d="m325 255-1 1c0-3.325-1-7.31-1-10 2.165 0 2.546 3 6 3 0 1.548-4 2.767-4 6ZM131 256l2 1v-10c-1.624 0-2.75 2-5 2 0 1.251 3 2.723 3 7Z"/><path fill="#C7C8CA" id="fx" d="M193 250c0 4.109-4.22 6-6 6v-6.5c1.102-2.205 6-4.134 6 .5ZM263 250c0 2.026 3.959 6 6 6l1-4.5c-1.215-2.43-7-7.839-7-1.5Z"/><path fill="#C8C9CB" id="amc" d="m365 247-1 1 1-1Z"/><path fill="#84EA80" id="BMAa" d="m109 278 4 1c6.63 0 11.464-7 18-7l2-2v-13l-2-1c-7.121 0-15 1.705-15-7 0-3.208-4.47 1-5 1l-1 1-1 1v1l-2 3c0 1.048.473 3-1 3v9l1 6 2 4Z"/><path fill="#80BEE2" id="IA" d="M128 249c0 1.251 3 2.723 3 7-7.121 0-15 1.705-15-7l1-1h7c0 1.473 1.952 1 3 1h1Z"/><path fill="#97D6F9" id="STR" d="M124 248c1.048 0 3-.473 3 1-1.048 0-3 .473-3-1ZM333 248c-1.048 0-3-.473-3 1 1.048 0 3 .473 3-1Z"/><path fill="#80BEE2" id="IA" d="M340 249c0 10.921-7.558 6-15 6 0-3.233 4-4.452 4-6h1c1.048 0 3 .473 3-1h6l1 1Z"/><path fill="#84EA80" id="BMAa" d="m347 278-4 1c-6.155 0-10.912-7-17-7l-3-3c0-4.284 1-9.371 1-13l1-1c7.442 0 15 4.921 15-6 0-4.063 6.953 3 7 3l1 1 2 4v2c0 1.564 1 3.876 1 6l-1 8-2 4-1 1Z"/><path fill="#C8C9CB" id="amc" d="m364 248-1 1 1-1Z"/><path fill="#8AD987" id="CTXsp" d="m111 250-1 1 1-1Z"/><path fill="#CCCAC9" id="sup" d="M165 250c0 3.781 3.781 0 0 0ZM290 250c1.186 0 1.186 1 0 1v-1Z"/><path fill="#C8C9CB" id="amc" d="m363 250-1 1 1-1Z"/><path fill="#8AD987" id="CTXsp" d="m110 251-1 1 1-1Z"/><path fill="#CCCAC9" id="sup" d="m290 251-1 1c0 2.029 1 .058 1-1Z"/><path fill="#C8C9CB" id="amc" d="m362 251-1 1 1-1ZM95 252l3 3-3-3Z"/><path fill="#FF4A3D" id="VMH" d="m219 279-2 2c-5.137 0-8.668 1.416-13.5-1-13.355-6.678-.909-23.046 7-27 8.815-4.407 11.032 5 13.5 5v9c-.274 0-3 9.071-3 10l-2 2ZM251 281h1l1-1 1-1 1-1 2-1 1-10.5c-2.396-4.791-12.231-18.134-19.5-14.5-1.976.988-6.235 8-6.5 8v5c2.207 0 .338 5.176 1 6.5l4 7c2.446 4.892 10.037 2.5 14 2.5Z"/><path fill="#C8C9CB" id="amc" d="m361 252-1 1 1-1Z"/><path fill="#8AD987" id="CTXsp" d="m106 255 1 1 2-3c-2.215 0-1.519 2-3 2Z"/><path fill="#CCCAC9" id="sup" d="m167 253 7 10.5c.417.835 4.256 8.488 5 7l-2-4c-1.099-2.197-7.401-13.5-10-13.5Z"/><path fill="#CAC7CB" id="fiber tracts" d="m288 253-1 1 1-1Z"/><path fill="#CCCAC9" id="sup" d="M288 253c2.402 0-1 5.451-1 1l1-1Z"/><path fill="#8AD987" id="CTXsp" d="m351 255-1 2-2-4 3 2Z"/><path fill="#C8C9CB" id="amc" d="m360 253-1 1 1-1ZM359 254l-1 1 1-1Z"/><path fill="#8AD987" id="CTXsp" d="M106 259v9l-8-13h1c0 1.577 1.762 2 3 2 0 3.576.744 2 4 2Z"/><path fill="#C8C9CB" id="amc" d="M102 256v1c-1.238 0-3-.423-3-2l3 1Z"/><path fill="#8AD987" id="CTXsp" d="m104 255-1 1 1-1Z"/><path fill="#80BEE2" id="IA" d="M102 257c0 3.576.744 2 4 2 1.473 0 1-1.952 1-3l-1-1h-2l-1 1h-1v1ZM350 259h5l-1-3-3-1-1 2v2Z"/><path fill="#C8C9CB" id="amc" d="m358 256-1 1-2-1 3-1v1Z"/><path fill="#CCCAC9" id="sup" d="M285 257c0 2.609 4.136 0 0 0Z"/><path fill="#8AD987" id="CTXsp" d="m357 257-2 2-1-3h1l2 1ZM358 256l-1 1 1-1Z"/><path fill="#F24839" id="TU" d="m208 289-1 1c-4.721 0-8.983-2-13-2l-1-1h-1c0-.615-13-13.807-13-21l1-4 4-3c4.627 0 13.592 16.092 18 20.5 2.208 2.208 7 2.608 7 6.5l-1 3ZM261 289l-12 1-1-2-1-2c0-2.741 4-2.75 4-5h1l1-1 1-1 1-1 2-1c3.536 0 8.683-18 16-18l4 3v5c0 6.299-10 14.666-10 18-1.747 0-2 .253-2 2h-1l-1 1h-1l-1 1Z"/><path fill="#CCCAC9" id="sup" d="M281 263c0 5.73 5.068-4 3.5-4l-3.5 4Z"/><path fill="#8AD987" id="CTXsp" d="M355 259c0 1.417-2.383 6-4 6 0-2.124-1-4.436-1-6h5Z"/><path fill="#E64438" id="HY" d="m282 260-1 1 1-1ZM180 262l-1 4-4-5 5 1ZM279 266l-2 1v-5l4-1v2c-1.577 0-2 1.762-2 3Z"/><path fill="#CAC7CB" id="fiber tracts" d="M160 264h1l-1-1v1ZM162 265l3 2c-1.238 0-3-.423-3-2Z"/><path fill="#E64438" id="HY" d="M251 281c0 2.25-4 2.259-4 5-3.117 0-15-9.707-15-13v-8c2.207 0 .338 5.176 1 6.5l4 7c2.446 4.892 10.037 2.5 14 2.5Z"/><path fill="#CCCAC9" id="sup" d="M279 266c0 .524-1.962 5-.5 5l2.5-5.5-2 .5Z"/><path fill="#CAC7CB" id="fiber tracts" d="m295 265-1 1 1-1ZM293 266l-2 1 2-1Z"/><path fill="#E64438" id="HY" d="M224 273c0 2.061-.902 4-3 4 0-.929 2.726-10 3-10v6Z"/><path fill="#99D2BD" id="OLF" d="m326 272-3 1v-4l3 3ZM131 272h2v-2l-2 2Z"/><path fill="#60E5B7" id="COAa" d="M115 299h2c3.486 0 24-8.376 24-10v-1c-2.933 0-8-13.533-8-16h-2c-6.536 0-11.37 7-18 7l-1 3c0 5.384 3 11.443 3 17ZM342 298l-3 1c-6.968 0-20.329-10-24-10v-1c3.262 0 8-11.848 8-15l3-1c6.088 0 10.845 7 17 7l2 2c0 6.361-3 11.23-3 17Z"/><path fill="#99D2BD" id="OLF" d="M98 275h2l-2-2v2Z"/><path fill="#FF5B4F" id="ARH" d="M235 291h1c3.962 0 8.688-1 12-1v-2l-1-2c-3.117 0-15-9.707-15-13h-3c0 7.877-2 7.877-2 0h-3c0 2.061-.902 4-3 4 0 1.747-.253 2-2 2 0 1.747-.253 2-2 2 0 1.562-6.653 5-8 5l-1 3 1 1c0 1.781 10.176 1 12 1h14Z"/><path fill="#8AD987" id="CTXsp" d="M348 277h1c1.048 0 3 .473 3-1-1.577 0-2-1.762-2-3l-2 4Z"/><path fill="#99D2BD" id="OLF" d="M357 275h2l-1-2-1 2Z"/><path fill="#8AD987" id="CTXsp" d="m107 277 2 1-2-4-2 2 2 1Z"/><path fill="#99D2BD" id="OLF" d="m98 275-1 1 1-1Z"/><path fill="#59D9AA" id="PAA" d="M111 301h2l2-2c0-5.557-3-11.616-3-17l-5-5-2-1-5-1h-2l-1 1c0 5.654-11 15.245-11 20 0 4.25 19.482 6 24 6l1-1ZM342 298l1 3c4.639 0 28 1.739 28-6-2.145 0-12-17.772-12-20h-2l-5 1c0 1.473-1.952 1-3 1l-1 1-3 3c0 6.361-3 11.23-3 17Z"/><path fill="#99D2BD" id="OLF" d="m113 279-1 3-5-5 2 1 4 1Z"/><path fill="#E64438" id="HY" d="m221 277-2 2c1.747 0 2-.253 2-2ZM257 277l-2 1 2-1Z"/><path fill="#8AD987" id="CTXsp" d="M347 278h1v-1l-1 1Z"/><path fill="#99D2BD" id="OLF" d="m349 277-1 1v-1h1ZM343 279l2 2 3-3h-1l-4 1Z"/><path fill="#E64438" id="HY" d="m219 279-2 2c1.747 0 2-.253 2-2ZM254 279l-1 1 1-1ZM253 280l-1 1 1-1Z"/><path fill="#CAC7CB" id="fiber tracts" d="M267 285c-1.747 0-2 .253-2 2l2-2ZM193 287l1 1-1-1ZM264 287l-1 1 1-1Z"/><path fill="#99D2BD" id="OLF" d="m143 288-2 1v-1h2Z"/><path fill="#E64438" id="HY" d="M248 290h1l-1-2v2Z"/><path fill="#CAC7CB" id="fiber tracts" d="m262 288-1 1 1-1Z"/><path fill="#99D2BD" id="OLF" d="M315 288v1l-1-1h1Z"/><path fill="#E64438" id="HY" d="M207 290h2l-1-1-1 1Z"/><path fill="#F1473A" id="ME" d="M235 291v1c-1.964 0-14 3.853-14-1h14Z"/><path fill="#E64438" id="HY" d="m236 291-1 1v-1h1Z"/><path fill="#99D2BD" id="OLF" d="m339 299 4 2-1-3-3 1ZM117 299l-4 2 2-2h2ZM111 301l-1 1 1-1Z"/></svg>