<svg xmlns="http://www.w3.org/2000/svg" viewBox="0 0 456 320"><path fill="#1BA696" id="RSPagl1" d="M174 17h1c4.943 0 10.289-2 16-2v-4c-2.992 0-17 .075-17 2v4Z"/><path fill="#1BA598" id="RSPd1" d="m217 27-4 2c0-10.56-13.32-14-22-14v-4c9.168 0 26 4.79 26 16ZM240 27l3 2c0-9.972 13.562-14 22-14l1-4c-9.308 0-26 4.381-26 16Z"/><path fill="#1BA696" id="RSPagl1" d="M266 15c5.763 0 10.837 2 16 2v-5l-16-1-1 4h1Z"/><path fill="#0A8589" id="VISpm1" d="M282 17c5.473 0 10.183 2 15 2l1-4c-1.911 0-12.656-3-16-3v5ZM159 19h1c4.378 0 8.986-2 14-2v-4h-12.5l-3.5 2 1 4Z"/><path fill="#098589" id="VISp1" d="m83 49 3 3 16.5-11c13.841-6.92 41.053-22 56.5-22l-1-4c-17.535 0-42.251 14.375-57.5 22C98.264 38.118 83 47.221 83 49Z"/><path fill="#1AA496" id="RSPagl2/3" d="M175 23v1c4.342 0 8.664-3 14-3l1-1 1-5c-5.711 0-11.057 2-16 2v6Z"/><path fill="#1BA697" id="RSPd2/3" d="m213 29-5 2c0-7.845-12.035-11-18-11l1-5c8.68 0 22 3.44 22 14ZM243 29l6 3c0-10.29 11.021-11 18-11 0-1.564-1-3.876-1-6h-1c-8.438 0-22 4.028-22 14Z"/><path fill="#1AA496" id="RSPagl2/3" d="M282 23v1c-4.812 0-9.327-3-15-3 0-1.564-1-3.876-1-6 5.763 0 10.837 2 16 2v6Z"/><path fill="#098589" id="VISp1" d="m373 49-3 3-15.5-11c-13.879-6.94-42.023-22-57.5-22l1-4c18.225 0 41.795 14.147 57.5 22 2.424 1.212 17.5 9.252 17.5 12Z"/><path fill="#08858B" id="VISpm2/3" d="M161 27h1c4.271 0 8.321-4 13-4v-6h-1c-5.014 0-9.622 2-14 2l1 8ZM294 27h1l2-8c-4.817 0-9.527-2-15-2v6c3.997 0 8.336 4 12 4Z"/><path fill="#0A828C" id="VISp2/3" d="M90 59h1l16.5-10c8.104-4.052 46.599-22 53.5-22l-1-8h-1c-15.447 0-42.659 15.08-56.5 22L86 52v1l4 6ZM370 53c0 1.334-2.972 6-4 6-5.072 0-11.068-6.784-15.5-9-8.946-4.473-47.606-23-55.5-23l2-8c15.477 0 43.621 15.06 57.5 22L370 52v1Z"/><path fill="#1AA596" id="RSPd5" d="m208 32-15 4c0-5.508-.789-5-7-5 0-3.641 3-5.713 3-10l1-1c5.965 0 18 3.155 18 11v1ZM249 32c4.947 0 9.817 4 15 4 0-6.62-1.097-5 7-5 0-3.115-4-6.196-4-10-6.979 0-18 .71-18 11Z"/><path fill="#1CA697" id="RSPagl5" d="M185 31h1c0-3.641 3-5.713 3-10-5.336 0-9.658 3-14 3l-1 1-2 10 13-4ZM272 31c4.046 0 8.434 4 13 4l-3-10v-1c-4.812 0-9.327-3-15-3 0 3.804 4 6.885 4 10h1Z"/><path fill="#09828B" id="VISpm4" d="M162 29h1l11-4 1-1v-1c-4.679 0-8.729 4-13 4v2ZM294 27v2c-4.264 0-7.497-4-12-4v-2c3.997 0 8.336 4 12 4Z"/><path fill="#1AA496" id="RSPagl2/3" d="m175 24-1 1 1-1Z"/><path fill="#088489" id="VISpm5" d="M164 39h1l6-3 1-1 2-10-11 4 1 10ZM285 36c2.607 0 4.913 3 7 3l2-9v-1c-4.264 0-7.497-4-12-4l3 10v1Z"/><path fill="#0B848B" id="VISp4" d="m91 59 3 6 12.5-8 40-20c2.408-1.204 15.5-4.81 15.5-8v-2h-1c-6.901 0-45.396 17.948-53.5 22L91 59Z"/><path fill="#1BA597" id="RSPv1" d="m167 67 4 2c2.33 0 3.227-4 6-4 0-5.517 15.505-10.003 19.5-12 13.958-6.979 20.5-8.005 20.5-26l-4 2v7.5c-3.698 7.397-25.695 16.597-33.5 20.5-2.472 1.236-12.5 6.24-12.5 10ZM289 67c0 1.577-1.762 2-3 2-4.566 0-8.519-8.01-12.5-10-6.713-3.357-24.994-9.994-29.5-14.5-3.233-3.233-5-7.96-5-12.5 0-1.235-.643-5 1-5l3 2c0 15.608 22.057 22.279 33.5 28 2.532 1.266 12.5 5.865 12.5 10Z"/><path fill="#0B848B" id="VISp4" d="M362 65h1c0-1.238 1.923-5 3-5v-1c-5.072 0-11.068-6.784-15.5-9-8.946-4.473-47.606-23-55.5-23h-1v3l52.5 26c1.993.996 15.5 7.55 15.5 9Z"/><path fill="#088389" id="VISp5" d="M98 73h1l13.5-8 36-18c4.072-2.036 10.969-8 15.5-8l-1-10h-1c0 3.19-13.092 6.796-15.5 8l-40 20L94 65l4 8Z"/><path fill="#1AA597" id="RSPv2/3" d="m164 65 3 2c0-3.76 10.028-8.764 12.5-10 7.805-3.903 29.802-13.103 33.5-20.5V29l-5 2v1c0 10.644-19.343 15.422-26.5 19l-8 6c-1.792.896-9.5 5.568-9.5 8ZM293 64c0 .966-2.886 3-4 3 0-4.135-9.968-8.734-12.5-10-11.443-5.721-33.5-12.392-33.5-28l6 3c0 9.105 25.601 20.05 33.5 24 3.675 1.838 6.116 8 10.5 8Z"/><path fill="#088389" id="VISp5" d="M357 73h1l4-8c0-1.45-13.507-8.004-15.5-9L294 30l-2 9c4.944 0 12.101 5.8 16.5 8l36 18 12.5 8Z"/><path fill="#1CA597" id="RSPagl6a" d="M166 47h1c0-5.04 18-11.073 18-16l-13 4-1 1-6 11h1Z"/><path fill="#1AA697" id="RSPd6a" d="M167 47h1c4.908 0 14.653-10 23-10l1-1h1c0-5.508-.789-5-7-5h-1c0 4.927-18 10.96-18 16ZM288 47h2c0-4.479-18-10.998-18-16h-1c-8.097 0-7-1.62-7 5l2 1c7.594 0 16.509 10 22 10Z"/><path fill="#1CA597" id="RSPagl6a" d="M290 47h1c0-4.162-6-7.151-6-11v-1c-4.566 0-8.954-4-13-4 0 5.002 18 11.521 18 16Z"/><path fill="#1BA498" id="RSPv5" d="M161 61c0 1.114 2.034 4 3 4 0-2.432 7.708-7.104 9.5-8l8-6c7.157-3.578 26.5-8.356 26.5-19l-15 4h-1l-1 1c0 2.058-6.918 5.209-8.5 6-1.609.804-21.5 16.568-21.5 18ZM296 61l-3 3c-4.384 0-6.825-6.162-10.5-8-7.899-3.95-33.5-14.895-33.5-24 4.947 0 9.817 4 15 4l2 1 6.5 6c7.132 3.566 12.811 10.405 20 14l3.5 4Z"/><path fill="#1CA697" id="RSPagl5" d="m172 35-1 1 1-1Z"/><path fill="#09858B" id="VISpm6a" d="M164 47h1l6-11-6 3-1 8Z"/><path fill="#1AA498" id="RSPv6a" d="m192 36-1 1 1-1Z"/><path fill="#09858B" id="VISpm6a" d="M291 47h1v-8c-2.087 0-4.393-3-7-3 0 3.849 6 6.838 6 11Z"/><path fill="#1AA498" id="RSPv6a" d="M159 61h2c0-1.432 19.891-17.196 21.5-18 1.582-.791 8.5-3.942 8.5-6-8.347 0-18.092 10-23 10l-1 1c0 2.137-2.822 9-5 9l-1 1-2 3ZM296 61h1l-2-4c-2.561 0-6-6.864-6-9l-1-1c-5.491 0-14.406-10-22-10l6.5 6c7.132 3.566 12.811 10.405 20 14l3.5 4Z"/><path fill="#08858C" id="VISp6a" d="M99 73c0 1.177 2.572 6 4 6l16-8c0-2.236 5.074-3.287 6.5-4 5.266-2.633 13.535-10 19.5-10 0-2.162 11.844-8 14-8 0-1.638 3.576-2 5-2l1-8h-1c-4.531 0-11.428 5.964-15.5 8l-36 18L99 73ZM357 73l-3 6c-3.655 0-7.335-4.417-10.5-6-12.337-6.168-24.631-12.815-37-19-5.009-2.504-8.433-7-14.5-7v-8c4.944 0 12.101 5.8 16.5 8l36 18 12.5 8Z"/><path fill="#08858A" id="VISp6b" d="M159 49h2l3-1v-1c-1.424 0-5 .362-5 2Z"/><path fill="#088589" id="VISpm6b" d="M164 48h1v-1h-1v1Z"/><path fill="#1AA598" id="RSPagl6b" d="M165 48h1v-1h-1v1Z"/><path fill="#1BA698" id="RSPd6b" d="M166 48h1l1-1h-2v1ZM289 48h2v-1h-3l1 1Z"/><path fill="#1AA598" id="RSPagl6b" d="M291 48h1v-1h-1v1Z"/><path fill="#08858A" id="VISp6b" d="m354 80-1 1-7.5-5-26-13c-3.275-1.638-7.801-7-11.5-7l-12-7-4-1v-1c6.067 0 9.491 4.496 14.5 7 12.369 6.185 24.663 12.832 37 19 3.165 1.583 6.845 6 10.5 6v1Z"/><path fill="#CACCC7" id="cing" d="M161 51c1.684 0 1 4.68 1 6 2.178 0 5-6.863 5-9h-3l-3 1v2ZM295 51c-2.515 0 0 5.014 0 6-2.561 0-6-6.864-6-9h3l4 1-1 2Z"/><path fill="#09848A" id="VISl1" d="m64 67 3 2c4.444 0 12.98-16 19-16v-1l-3-3-4.5 4L64 67Z"/><path fill="#08858A" id="VISp6b" d="m149 56-4 1c0-2.162 11.844-8 14-8 0 3.57-10 4.353-10 7Z"/><path fill="#C9C9CA" id="scwm" d="m149 56 2 1c1.04 0 10-5.102 10-6v-2h-2c0 3.57-10 4.353-10 7Z"/><path fill="#FF7AFD" id="SCzo" d="m292 83 2 1-1-3-1-2-1-1-1-2-12.5-12c-9.784-4.892-19.226-10.113-29-15-5.187-2.594-15.177 1.853-17.5 6.5-1.038 2.076-.179 6.5-2.5 6.5l-3.5-7.5c-1.82-3.64-12.038-7.73-16.5-5.5-4.026 2.013-29.524 16-31.5 16 0 1.901-4.332 5-6 5l-1 1-1 1v2l14.5-11c17.795-8.898 43.5-24.699 43.5 10h3c0-4.513-.894-10.711 1-14.5 9.202-18.403 36.614 3.557 46.5 8.5 4.874 2.437 14.5 9.934 14.5 16Z"/><path fill="#C9C9CA" id="scwm" d="m308 56-2 1-11-6 1-2 12 7Z"/><path fill="#09848A" id="VISl1" d="M392 67c-1.481 0-.785 2-3 2-4.192 0-13.165-16-19-16v-1l3-3c3.935 0 11.53 10.03 15 13.5l4 4.5Z"/><path fill="#C8C9CA" id="fp" d="m69 125-2 1c0-1.048.473-3-1-3l1-1c0 2.504 8.237-9 5-9l1-1c0 .885 6.433-6.933 8-8.5 6.093-6.093 11.112-12.806 18.5-16.5 13.409-6.704 25.629-15.314 39-22 2.113-1.056 12.5-5.303 12.5-8 1.04 0 10-5.102 10-6 1.684 0 1 4.68 1 6l-1 1-2 3-8 9 1-4.5c-3.885-7.77-15.927 5.213-20.5 7.5-2.623 1.312-9.5 3.391-9.5 7-1.402 0-6 1.11-6 3-1.424 0-5 .362-5 2l-2 1-2 1-2 1-1 1-2 1-1 1-2 1-1 1-1 1-2 1-1 1-1 1c-1.747 0-2 .253-2 2h-1l-1 1-1 1-1 1-1 1-1 1-1 1-1 1-1 1-1 1-1 1-1 1c-1.577 0-2 1.762-2 3l-1 1-1 1-1 2-1 1v1l-1 1-1 1v1l-1 1-1 1v1Z"/><path fill="#FF78FF" id="SCsg" d="m169 74-4 8c4.722 0 11.312-5.906 15.5-8 9.89-4.945 21.184-7.092 31-12 8.464-4.232 12.62 11 15.5 11 0-34.699-25.705-18.898-43.5-10L169 74ZM230 73c1.295 0 6.732-14.884 14.5-11 10.064 5.032 21.866 6.933 32 12 2.868 1.434 13.249 9 15.5 9 0-6.066-9.626-13.563-14.5-16-9.886-4.943-37.298-26.903-46.5-8.5-1.894 3.789-1 9.987-1 14.5Z"/><path fill="#C8C9CA" id="fp" d="M392 132h1c0-5.962-7.411-12.321-10-17.5-10.124-20.249-31.916-32.208-50.5-41.5-3.191-1.595-26.5-13.802-26.5-16l-11-6c-2.515 0 0 5.014 0 6l2 4c3.622 0 4.368 9 8 9 0-15.485 11.913-1.293 18.5 2 2.879 1.44 10.5 3.87 10.5 8 2.003 0 11 3.1 11 5h1c2.291 0 9 3.93 9 6h1c2.115 0 7 4.212 7 6h1c1.575 0 15 13.344 15 15v1c1.366 0 4 2.366 4 4v1c1.703 0 6 7.441 6 9v1l1 1v1l1 1v1h1Z"/><path fill="#0A8489" id="VISl2/3" d="M72 75h1l17-16-4-6c-6.02 0-14.556 16-19 16v2c1.061 0 5 2.57 5 4ZM383 75h1l5-4v-2c-4.192 0-13.165-16-19-16 0 1.334-2.972 6-4 6v1c1.841 0 17 13.874 17 15Z"/><path fill="#CBC9C7" id="or" d="m74 109-1 3c0 .885 6.433-6.933 8-8.5 6.093-6.093 11.112-12.806 18.5-16.5 13.409-6.704 25.629-15.314 39-22 2.113-1.056 12.5-5.303 12.5-8l-2-1-4 1c0 2.47-5.03 3.265-6.5 4-5.77 2.885-12.8 10-19.5 10 0 3.016-11.25 6.875-13.5 8l-2.5 2c-4.237 0-7.487 8-12 8 0 1.365-2.366 4-4 4l-8 8-2 2c0 2.364-3 3.053-3 5 1.186 0 1.186 1 0 1ZM397 151c1.481 0 .785 2 3 2 0-2.409-1-5.181-1-7 0-2.409-1-5.181-1-7l-1-2v-1c-1.689 0-4-7.573-4-9l-1-1-1-3-2-2v-1l-2-2-5-10-5-7-8-8c-2.973 0-11.761-12-16-12l-7.5-5-26-13c-3.275-1.638-7.801-7-11.5-7l-2 1c0 2.198 23.309 14.405 26.5 16 18.584 9.292 40.376 21.251 50.5 41.5 2.589 5.179 10 11.538 10 17.5 0 4.923 4 10.175 4 16v3Z"/><path fill="#08858A" id="VISp6b" d="M145 57c-5.965 0-14.234 7.367-19.5 10-1.426.713-6.5 1.764-6.5 4 6.7 0 13.73-7.115 19.5-10 1.47-.735 6.5-1.53 6.5-4Z"/><path fill="#CACCC7" id="cing" d="m162 57-1 1 1-1Z"/><path fill="#08828B" id="VISl4" d="M75 79h1c0-1.591 15.532-14 18-14l-3-6h-1L73 75l2 4ZM383 75c0 1.238-.423 3-2 3l-18-13c0-1.238 1.923-5 3-5 1.841 0 17 13.874 17 15Z"/><path fill="#47C83C" id="POST" d="M141 108c-1.048 0-3-.473-3 1l-8-1c0-4.174 7.179-7.857 9-11.5 1.667-3.333 2-8.491 2-12.5 1.577 0 2-1.762 2-3h1l1-1 1-1 1-1 1-2 1-1v-1l1-1 1-1v-2l8-9h2c0 1.114 2.034 4 3 4l3 2 4 2v1l-1 1-1 1v1l-1 1-1 1-1 2-1 1-1 2-1 1v1c-1.948 0-4 5.428-4 7l-1 1-1 1-1 1-1 1v1l-1 1-1 1-1 1-1 1v1c-1.747 0-2 .253-2 2l-8 7ZM326 108l-8 1-3-2c-3.438 0-5.108-6-8-6v-1l-2-2-1-2-5-5v-1l-6-9-1-2-1-1-1-2-4-7c1.238 0 3-.423 3-2 1.114 0 4-2.034 4-3l3-3h1c3.622 0 4.368 9 8 9v1l1 1 2 4 1 1 4 4 2 2c0 3.549.49 9.48 2 12.5 1.897 3.794 9 8.16 9 12.5Z"/><path fill="#FD7AFF" id="SCop" d="M163 87c4.861 0 11.214-5.857 15.5-8l27-10c11.429-5.715 17.518 10 20 10l2-3 4 2 11-10c2.19-1.095 10.064 2.032 12 3 8.442 4.22 18.431 5.715 27 10l12.5 7v-4l-2-1c-2.251 0-12.632-7.566-15.5-9-10.134-5.067-21.936-6.968-32-12-7.768-3.884-13.205 11-14.5 11h-3c-2.88 0-7.036-15.232-15.5-11-9.816 4.908-21.11 7.055-31 12-4.188 2.094-10.778 8-15.5 8l-2 1v4Z"/><path fill="#C9CCC9" id="dhc" d="m133 82 7 1 3-2h1l1-1 1-1 1-1 1-2 1-1v-1l1-1 1-1v-2l1-4.5c-3.885-7.77-15.927 5.213-20.5 7.5-2.623 1.312-9.5 3.391-9.5 7 1.72 0 11 .66 11 2ZM324 82l-8 1-3-2-4-4-1-1-2-4-1-1v-1c0-15.485 11.913-1.293 18.5 2 2.879 1.44 10.5 3.87 10.5 8-1.495 0-10 .84-10 2Z"/><path fill="#0B858B" id="VISl5" d="m76 79 6 7 16-13-4-8c-2.468 0-18 12.409-18 14ZM381 79l-7 7-16-13 4-8h1l18 13v1Z"/><path fill="#0C858C" id="VISli1" d="M59 79h1l7-8v-2l-3-2-8 9 3 3ZM400 76l-3 3-8-8v-2c2.215 0 1.519-2 3-2 1.343 0 8 7.572 8 9Z"/><path fill="#FF90FF" id="SCig" d="M307 127v1c-.785 0-6 1.478-6-1 0-23.098-19.4-31.45-36.5-40-5-2.5-10.125-8-16-8-4.571 0-17.476 10.762-19 10-1.897-.948-2.722.64-4 0-5.246-2.623-10.871-10-17-10-6.317 0-11.668 5.334-17 8-9.308 4.654-26.948 11.396-32.5 22.5l-4 11 1 6.5-4.5 2-4.5-5v-16c2.109 0 2-2.535 2-4 1.577 0 2-1.762 2-3l1-2 1-2c1.747 0 2-.253 2-2l1-1 1-1 1-1 1-1c1.712 0 3-2.571 3-4h1c4.861 0 11.214-5.857 15.5-8l27-10c11.429-5.715 17.518 10 20 10l2-3 4 2 11-10c2.19-1.095 10.064 2.032 12 3 8.442 4.22 18.431 5.715 27 10l12.5 7h1c0 5.5 14 13.551 14 23l1 1v8c-1.643 0-1 3.765-1 5l-1 1-1 1Z"/><path fill="#0A858A" id="VISli2/3" d="M64 85h1l7-10c0-1.43-3.939-4-5-4l-7 8 4 6Z"/><path fill="#08858A" id="VISp6b" d="M103 80v1l2.5-2c2.25-1.125 13.5-4.984 13.5-8l-16 8v1Z"/><path fill="#7DCD4B" id="HPF" d="m305 71 1 1-1-1Z"/><path fill="#0A858A" id="VISli2/3" d="M391 85h2c0-1.061 2.571-5 4-5v-1l-8-8-5 4c0 3.556 7 6.104 7 10Z"/><path fill="#7DCD4B" id="HPF" d="m151 72-1 1 1-1Z"/><path fill="#08848C" id="VISl6a" d="m91 89-4 2-5-4v-1l16-13h1c0 1.177 2.572 6 4 6v1c-2.937 0-12 6.33-12 9Z"/><path fill="#7DCD4B" id="HPF" d="m150 73-1 1 1-1Z"/><path fill="#08848C" id="VISl6a" d="M369 92h1l4-5v-1l-16-13h-1l-3 6v1c1.708 0 15 10.295 15 12Z"/><path fill="#FF7AFD" id="SCzo" d="m165 82-2 1v-2l1-1 1-2 1-1 1-2 1-1h1l-4 8Z"/><path fill="#08828C" id="VISli4" d="m65 85 2 2 8-8-2-4h-1l-7 10Z"/><path fill="#7DCD4B" id="HPF" d="m149 75-1 1 1-1Z"/><path fill="#08828C" id="VISli4" d="M389 88h1l1-3c0-3.896-7-6.444-7-10h-1c0 1.238-.423 3-2 3v1c2.097 0 8 7.148 8 9Z"/><path fill="#15B0B3" id="TEa1" d="M25 149h5c0-19.262 5.13-31.758 13-47.5 2.347-4.694 16-18.82 16-22.5l-3-3-11 14.5-9 13c-7.242 14.485-11 27.839-11 45.5Z"/><path fill="#7DCD4B" id="HPF" d="m308 76 1 1-1-1Z"/><path fill="#15B0B3" id="TEa1" d="M427 149h4c0-17.431-2.872-30.245-10-44.5l-8-12c-.986-1.973-11.634-16.5-13-16.5l-3 3v1c1.146 0 11.078 13.656 12 15.5 10.566 21.132 18 26.853 18 53.5Z"/><path fill="#7DCD4B" id="HPF" d="m147 78-1 1 1-1Z"/><path fill="#16AFB3" id="TEa2/3" d="m37 147-7 2c0-19.262 5.13-31.758 13-47.5 2.347-4.694 16-18.82 16-22.5h1l4 6-17 22.5c-9.045 18.09-10 18.833-10 39.5Z"/><path fill="#0A848A" id="VISli5" d="M74 95h1c0-1.668 6.132-8 7-8v-1l-6-7h-1l-8 8v2c3.22 0 4.481 6 7 6Z"/><path fill="#FF90FE" id="SCiw" d="m156 127 7.5 4H174l3-6c0-6.259 9.629-11.758 12-16.5 3.241-6.481 12.605-16.053 19.5-19.5 5.543-2.772 14.471 2 20 2 3.394 0 6.208-.604 9-2 10.985-5.492 25.621 11.743 29.5 19.5 2.543 5.086 12 9.49 12 16.5l2 2.5c4.662 9.324 15.206-.5 20-.5 0-23.098-19.4-31.45-36.5-40-5-2.5-10.125-8-16-8-4.571 0-17.476 10.762-19 10-1.897-.948-2.722.64-4 0-5.246-2.623-10.871-10-17-10-6.317 0-11.668 5.334-17 8-9.308 4.654-26.948 11.396-32.5 22.5l-4 11 1 6.5Z"/><path fill="#0A848A" id="VISli5" d="M381 95h1l7-7c0-1.852-5.903-9-8-9l-7 7v1c2.073 0 7 6.148 7 8Z"/><path fill="#09858C" id="VISl6b" d="M103 81c-4.237 0-7.487 8-12 8 0-2.67 9.063-9 12-9v1Z"/><path fill="#C7C8CC" id="alv" d="M133 82c-5.909 0-11.579 1-17 1 0-1.89 4.598-3 6-3 1.72 0 11 .66 11 2Z"/><path fill="#7DCD4B" id="HPF" d="m145 80-1 1 1-1Z"/><path fill="#C7C8CC" id="alv" d="M343 85h2c0-1.9-8.997-5-11-5-1.495 0-10 .84-10 2 3.344 0 19 .053 19 3Z"/><path fill="#09858C" id="VISl6b" d="M369 92v1c-2.973 0-11.761-12-16-12l1-1c1.708 0 15 10.295 15 12Z"/><path fill="#16AFB3" id="TEa2/3" d="M419 147c3.091 0 5.478 2 8 2 0-26.647-7.434-32.368-18-53.5-.922-1.844-10.854-15.5-12-15.5-1.429 0-4 3.939-4 5 0 3.984 12.688 15.875 15 20.5 10.523 21.046 11 17.195 11 41.5Z"/><path fill="#7DCD4B" id="HPF" d="m140 83 1 1c1.577 0 2-1.762 2-3l-3 2ZM315 83h1l-3-2 2 2Z"/><path fill="#4FC244" id="SUB" d="m130 108-9 3-7-26 2-2c5.421 0 11.091-1 17-1l7 1 1 1c0 4.009-.333 9.167-2 12.5-1.821 3.643-9 7.326-9 11.5ZM326 108c3.078 0 6.325 3 9 3l6-18.5c.736-1.471-.357-7.5 2-7.5 0-2.947-15.656-3-19-3l-8 1h-1c0 3.549.49 9.48 2 12.5 1.897 3.794 9 8.16 9 12.5Z"/><path fill="#C7C8CC" id="alv" d="M111 85h3l2-2c-1.424 0-5 .362-5 2Z"/><path fill="#FF64FF" id="MB" d="M162 87h1v-3c-1.473 0-1 1.952-1 3Z"/><path fill="#15B0B2" id="TEa4" d="M37 147h2c0-15.829 5.552-24.604 12-37.5l7-9c1.012-2.025 6.44-11.5 9-11.5v-2l-2-2h-1l-17 22.5c-9.045 18.09-10 18.833-10 39.5Z"/><path fill="#C7C8CC" id="alv" d="m111 85-2 1 2-1Z"/><path fill="#57B947" id="ProS" d="M121 111c-3.952 0-7.498 7-11 7 0-9.34-8-16.646-8-27v-1l2-1 1-1 2-1 2-1 2-1h3l7 26ZM335 111c4.477 0 7.709 7 12 7 0-9.8 8-17.022 8-27-1.156 0-9-4.801-9-6h-3c-2.357 0-1.264 6.029-2 7.5l-6 18.5Z"/><path fill="#C7C8CC" id="alv" d="M346 85c2.291 0 9 3.93 9 6-1.156 0-9-4.801-9-6Z"/><path fill="#15B0B2" id="TEa4" d="M418 147h1c0-24.305-.477-20.454-11-41.5-2.312-4.625-15-16.516-15-20.5h-2l-1 3 13 18.5c6.967 13.933 15 23.498 15 40.5Z"/><path fill="#C7C8CC" id="alv" d="m109 86-2 1 2-1Z"/><path fill="#FF64FF" id="MB" d="M294 88h1l-1-2v2Z"/><path fill="#088488" id="VISli6a" d="M78 100h1l8-8v-1l-5-4c-.868 0-7 6.332-7 8l3 5Z"/><path fill="#C7C8CC" id="alv" d="m107 87-2 1 2-1Z"/><path fill="#C7CBCB" id="bsc" d="M159 90v1c1.712 0 3-2.571 3-4l-3 2v1Z"/><path fill="#088488" id="VISli6a" d="M377 100h1c0-2.666 3-2.482 3-5 0-1.852-4.927-8-7-8l-4 5 7 8Z"/><path fill="#C7C8CC" id="alv" d="m105 88-1 1 1-1Z"/><path fill="#C7CBCB" id="bsc" d="m310 117 1 2c1.684 0 1-4.679 1-6l-1-1v-2l-1-2v-1l-1-1v-1l-1-1v-1l-1-1v-1l-2-2v-1l-2-2-1-1-1-1-1-1-1-1v-1l-3-3h-1c0 5.5 14 13.551 14 23l1 1v5Z"/><path fill="#CAC7CB" id="fiber tracts" d="M299 90v1l-3-3 3 2Z"/><path fill="#15AFB3" id="TEa5" d="M417 147h1c0-17.002-8.033-26.567-15-40.5L390 88h-1l-7 7 11 14.5c5.99 11.981 14 23.068 14 37.5h10ZM39 147h11c0-14.58 6.985-25.47 13-37.5 1.68-3.358 11-9.889 11-14.5-2.519 0-3.78-6-7-6-2.56 0-7.988 9.475-9 11.5l-7 9c-6.448 12.896-12 21.671-12 37.5Z"/><path fill="#09858C" id="VISl6b" d="M87 92v1c1.634 0 4-2.635 4-4l-4 2v1Z"/><path fill="#C7C8CC" id="alv" d="m104 89-2 1 2-1Z"/><path fill="#FF8FFF" id="SCdg" d="M177 125c0-6.259 9.629-11.758 12-16.5 3.241-6.481 12.605-16.053 19.5-19.5 5.543-2.772 14.471 2 20 2 3.394 0 6.208-.604 9-2 10.985-5.492 25.621 11.743 29.5 19.5 2.543 5.086 12 9.49 12 16.5l-6.5 2c-2.737-1.369-6.3-.65-9-2l-1.5-2c0-9.964-8.813-21.657-17.5-26l-14-1c-14.059 0-24.726.952-31.5 14.5-2.28 4.561-5 5.87-5 11.5 0 7.434-13.616 3-17 3Z"/><path fill="#C7C8CC" id="alv" d="M101 91h1v-1l-1 1Z"/><path fill="#CAC7CB" id="fiber tracts" d="M158 91h1v-1h-1v1Z"/><path fill="#C7C8CC" id="alv" d="m101 91-2 1 2-1Z"/><path fill="#7ECF4B" id="CA1" d="M108 203c0 2.236-5.074 3.287-6.5 4L81 216c-3.154 0-7.833-11.165-9-13.5-8.44-16.88-12-31.911-12-52.5 1.473 0 1-1.952 1-3v-2c1.58 0 1-2.855 1-4l1-2v-2l1-2 1-2v-1l1-1 1-2v-1c1.577 0 2-1.762 2-3v-1l1-1 1-1v-1l1-1 1-1v-1l1-1 1-2 1-1 1-1c1.577 0 2-1.762 2-3l1-1 1-1 1-1 1-1 1-1 1-1 1-1 1-1 1-1 1-1 1-1h1l2-2 1-1 1-1 2-1 1-1 1-1 2-1h1c0 10.354 8 17.66 8 27l-9 9.5-8 14-3 10c-4.449 8.897 4.644 32.288 8 39l10 12.5Z"/><path fill="#CAC7CB" id="fiber tracts" d="M157 92h1v-1h-1v1Z"/><path fill="#C7CBCB" id="bsc" d="m159 91-1 1v-1h1Z"/><path fill="#7ECF4B" id="CA1" d="M375 217h1l1-2 1-1 1-1 1-2 1-1c0-1.238.423-3 2-3l1-2 1-2 2-4 1-2 1-2c0-1.424.362-5 2-5 0-1.424.362-5 2-5v-1c0-1.775.069-8 2-8 0-1.913.612-13 2-13v-9c-.981 0-2-7.758-2-9v-2c-1.014 0-2-3.959-2-5v-2l-2-4v-1l-1-1v-1l-1-1v-1c-1.703 0-6-7.441-6-9v-1l-4-4v-1l-15-15h-1l-7-6h-1c0 9.978-8 17.2-8 27 0 1.01 11.676 13.852 13 16.5 9.779 19.558 8.543 33.914-1 53-1.51 3.02-7.835 15.5-11 15.5 0 2.373 27 11.866 27 14Z"/><path fill="#C7C8CC" id="alv" d="M356 91c2.115 0 7 4.212 7 6l-7-6Z"/><path fill="#08818B" id="VISli6b" d="M79 100v1l8-8v-1l-8 8Z"/><path fill="#C7C8CC" id="alv" d="m99 92-1 1 1-1Z"/><path fill="#CAC7CB" id="fiber tracts" d="M156 93h1v-1h-1v1Z"/><path fill="#C7CBCB" id="bsc" d="m158 92-1 1v-1h1Z"/><path fill="#CAC7CB" id="fiber tracts" d="m299 92 1 1-1-1Z"/><path fill="#08818B" id="VISli6b" d="M377 100v1l-8-8v-1h1l7 8Z"/><path fill="#C7C8CC" id="alv" d="m98 93-1 1 1-1Z"/><path fill="#CAC7CB" id="fiber tracts" d="M155 94h1v-1h-1v1Z"/><path fill="#C7CBCB" id="bsc" d="m157 93-1 1v-1h1Z"/><path fill="#C7C8CC" id="alv" d="m97 94-2 1 2-1Z"/><path fill="#CAC7CB" id="fiber tracts" d="M154 95h1v-1l-1 1Z"/><path fill="#C7CBCB" id="bsc" d="m156 94-1 1v-1h1Z"/><path fill="#CAC7CB" id="fiber tracts" d="m301 94 1 1-1-1Z"/><path fill="#15AFB2" id="TEa6a" d="M50 147h5v-1c0-12.289 8.816-23.133 14-33.5 1.227-2.455 5.276-9.5 8-9.5l1-3-3-5h-1c0 4.611-9.32 11.142-11 14.5-6.015 12.03-13 22.92-13 37.5Z"/><path fill="#C7C8CC" id="alv" d="m95 95-1 1 1-1Z"/><path fill="#CAC7CB" id="fiber tracts" d="m154 95-1 1 1-1Z"/><path fill="#C7CBCB" id="bsc" d="M153 96v1c1.747 0 2-.253 2-2h-1l-1 1Z"/><path fill="#15AFB2" id="TEa6a" d="M401 146c2.079 0 3.187 1 6 1 0-14.432-8.01-25.519-14-37.5L382 95h-1c0 2.518-3 2.334-3 5l12 15.5c4.448 8.897 11 19.972 11 30.5Z"/><path fill="#C7C8CC" id="alv" d="m94 96-1 1 1-1Z"/><path fill="#FF8FFE" id="SCdw" d="M195 124c1.446 0 5.204-9.908 6-11.5 3.554-7.108 11.298-11.399 17.5-14.5 9.304-4.652 30.296 3.091 34.5 11.5l6 9c.557 1.114.41 5.5 2 5.5l1-1c0-9.964-8.813-21.657-17.5-26l-14-1c-14.059 0-24.726.952-31.5 14.5-2.28 4.561-5 5.87-5 11.5l1 2Z"/><path fill="#CAC7CB" id="fiber tracts" d="m304 96 1 2-2-2h1Z"/><path fill="#C7C8CC" id="alv" d="M93 97c-1.747 0-2 .253-2 2l2-2Z"/><path fill="#C7CBCB" id="bsc" d="M152 98v1l1-2h-1v1Z"/><path fill="#C7C8CC" id="alv" d="M364 97c1.575 0 15 13.344 15 15l-15-15Z"/><path fill="#CAC7CB" id="fiber tracts" d="M151 99h1v-1h-1v1Z"/><path fill="#FC8FFF" id="PAG" d="M231 152h1c0-3.19 4.967-1 6-1l3-1 1-1 1-1c0-4.044 7.246-13.373 10.5-15l5.5-3 1-1 1-5c-1.59 0-1.443-4.386-2-5.5l-6-9c-4.204-8.409-25.196-16.152-34.5-11.5-6.202 3.101-13.946 7.392-17.5 14.5-.796 1.592-4.554 11.5-6 11.5 0 2.25 2 3.376 2 5 0 2.168 16 10.635 16 19l1 1h1l3 2 4.5-1 2.5 2c0-1.048-.473-3 1-3v-2c0-7.694 1-15.926 1-23 0-2.56 4.523 0 2 0 0 7.479 2 14.874 2 23v5Z"/><path fill="#C7C8CC" id="alv" d="m90 99-1 1 1-1Z"/><path fill="#C7CBCB" id="bsc" d="M151 100v1l1-2h-1v1Z"/><path fill="#CAC7CB" id="fiber tracts" d="M307 100v1l-2-2 2 1Z"/><path fill="#16B0B2" id="TEa6b" d="m79 101-2 2 1-3h1v1Z"/><path fill="#C7C8CC" id="alv" d="m89 100-1 1 1-1Z"/><path fill="#CAC7CB" id="fiber tracts" d="M150 101h1v-1l-1 1Z"/><path fill="#16B0B2" id="TEa6b" d="M399 146h2c0-10.528-6.552-21.603-11-30.5L378 100h-1v1l5 7 2 2 1 1 3 5 1 1 3 6 1 1c0 4.264 4 7.497 4 12v1l1 2c0 1.819 1 4.591 1 7Z"/><path fill="#C7C8CC" id="alv" d="m88 101-1 1 1-1Z"/><path fill="#CAC7CB" id="fiber tracts" d="m150 101-1 1v-1h1Z"/><path fill="#C7CBCB" id="bsc" d="M149 103v1c1.577 0 2-1.762 2-3h-1l-1 1v1Z"/><path fill="#C7C8CC" id="alv" d="m87 102-1 1 1-1Z"/><path fill="#CAC7CB" id="fiber tracts" d="m307 102 1 1-1-1Z"/><path fill="#16B0B2" id="TEa6b" d="M55 146h2l1-7 1-1v-1l1-2c0-1.357.647-6 2-6l1-2c0-1.465-.109-4 2-4l1-3 1-1c0-1.417 2.383-6 4-6 0-1.429 1.288-4 3-4v-1c0-1.947 3-2.636 3-5-2.724 0-6.773 7.045-8 9.5-5.184 10.367-14 21.211-14 33.5Z"/><path fill="#C7C8CC" id="alv" d="m86 103-1 1 1-1Z"/><path fill="#CAC7CB" id="fiber tracts" d="M148 104h1v-1l-1 1Z"/><path fill="#C7C8CC" id="alv" d="m85 104-1 1 1-1Z"/><path fill="#C7CBCB" id="bsc" d="M147 107v1c2.109 0 2-2.535 2-4h-1v1l-1 1v1Z"/><path fill="#CAC7CB" id="fiber tracts" d="m308 104 1 1-1-1Z"/><path fill="#C7C8CC" id="alv" d="m84 105-1 1 1-1Z"/><path fill="#CAC7CB" id="fiber tracts" d="m148 105-1 1 1-1Z"/><path fill="#C7C8CC" id="alv" d="m83 106-1 1 1-1Z"/><path fill="#CAC7CB" id="fiber tracts" d="m309 106 1 1-1-1Z"/><path fill="#C7C8CC" id="alv" d="m82 107-1 1 1-1Z"/><path fill="#CAC7CB" id="fiber tracts" d="M146 109h1v-2l-1 2Z"/><path fill="#7DCD4B" id="HPF" d="m318 109-2 3-1-5 3 2Z"/><path fill="#CCC8CA" id="ar" d="M74 108c1.186 0 1.186 1 0 1v-1Z"/><path fill="#C7C8CC" id="alv" d="m81 108-1 1 1-1Z"/><path fill="#7BD04A" id="DG-mo" fill-rule="evenodd" d="m128 115-12.5 9c-9.631 9.631-13.07 18.639-18.5 29.5v7c0 17.59 8.221 31.221 20.5 43.5 2.457 2.457 10.474 15.263 15 13 5.091-2.546 4.556-11.389 2.5-15.5-4.121-8.242-7.825-16.651-12-25-2.77-5.54-3.192-12.383-6-18v-7c-6.092-12.183 8.297-22.594 13-32 1.083-2.165 1.333-4.5-2-4.5m0 109 3 1c6.108 0 14.584-8.332 11-15.5-3.215-6.429-17-47.504-17-53.5v-1c-1.614 0-1-3.31-1-4.5 0-2.73-.345-13.5 3-13.5l1-2c0-6.61 12-12.94 12-24l-2-2-8-1-9 3c-3.952 0-7.498 7-11 7l-9 9.5-8 14-3 10c-4.449 8.897 4.644 32.288 8 39l10 12.5 3.5 4c.477.239 13.5 12.411 13.5 14l3 3Z"/><path fill="#7DCD4B" id="HPF" d="m138 109 2 2c1.473 0 1-1.952 1-3-1.048 0-3-.473-3 1Z"/><path fill="#CAC7CB" id="fiber tracts" d="m310 108 1 2-1-2Z"/><path fill="#7BD04A" id="DG-mo" fill-rule="evenodd" d="m327 115-1 3.5c5.465 10.93 20.288 22.424 13 37v5c-6.768 13.535-11.217 28.435-18 42-1.785 3.57-1.78 12.36 2.5 14.5 4.861 2.43 18.249-17.249 22-21 19.131-19.131 18.465-48.535-.5-67.5-4.464-4.464-11.759-13.5-18-13.5m2 109-3 1c-4.752 0-15.131-7.238-12-13.5 3.965-7.931 5.04-17.081 9-25 1.55-3.099.437-7.875 2-11 2.591-5.182 6-12.424 6-18.5 1.579 0 1-2.855 1-4v-4c0-16.711-16-23.31-16-37l2-3 8-1c3.078 0 6.325 3 9 3 4.477 0 7.709 7 12 7 0 1.01 11.676 13.852 13 16.5 9.779 19.558 8.543 33.914-1 53-1.51 3.02-7.835 15.5-11 15.5l-3.5 4c-3.014 3.014-12.5 9.849-12.5 14l-3 3Z"/><path fill="#CCC8CA" id="ar" d="M393 127c0 1.427 2.311 9 4 9 0-4.503-4-7.736-4-12l-1-1-3-6-1-1-3-5-1-1-2-2 5 10 2 2v1l2 2 1 3 1 1ZM71 113h1l1-1 1-3c-1.712 0-3 2.571-3 4Z"/><path fill="#C7C8CC" id="alv" d="m80 109-1 1 1-1Z"/><path fill="#CAC7CB" id="fiber tracts" d="m146 109-1 2 1-2Z"/><path fill="#C7CBCB" id="bsc" d="M147 121v3l-2-3v-10l1-2h1v3c-1.622 0-1.622 9 0 9Z"/><path fill="#C7C8CC" id="alv" d="M79 110c-1.577 0-2 1.762-2 3 1.577 0 2-1.762 2-3Z"/><path fill="#CBC9C7" id="or" d="m384 110 1 1-1-1Z"/><path fill="#FF64FF" id="MB" d="m309 111 1 1-1-1ZM147 112c-1.622 0-1.622 9 0 9v-9Z"/><path fill="#CAC7CB" id="fiber tracts" d="m311 112 1 1-1-1Z"/><path fill="#CCC8CA" id="ar" d="M67 120h1v-1l1-1 1-2 1-1v-2c-1.617 0-4 4.583-4 6v1Z"/><path fill="#C8C9CA" id="fp" d="m72 113-1 1v-1h1Z"/><path fill="#CBC9C7" id="or" d="M67 121v1c0 2.504 8.237-9 5-9l-1 1v1l-1 1-1 2-1 1v1l-1 1Z"/><path fill="#C7C8CC" id="alv" d="m77 113-1 1 1-1ZM379 113c1.366 0 4 2.366 4 4l-4-4ZM76 114l-1 1 1-1Z"/><path fill="#C8C9CA" id="fp" d="m71 115-1 1 1-1Z"/><path fill="#C7C8CC" id="alv" d="m75 115-1 2 1-2Z"/><path fill="#65A83D" id="DG-sg" fill-rule="evenodd" d="M115 129c0 3.362-6.214 6.929-8 10.5-2.733 5.465-4.303 11.606-7 17-6.338 12.676 13.893 35.785 18 44 1.123 2.246 9.616 12.942 12.5 11.5 4.156-2.078 1.994-10.513.5-13.5-5.618-11.237-10.421-22.843-16-34-1.863-3.726-4.307-18.386-2-23 1.204-2.408 5.731-12.5 2-12.5m13-14-12.5 9c-9.631 9.631-13.07 18.639-18.5 29.5v7c0 17.59 8.221 31.221 20.5 43.5 2.457 2.457 10.474 15.263 15 13 5.091-2.546 4.556-11.389 2.5-15.5-4.121-8.242-7.825-16.651-12-25-2.77-5.54-3.192-12.383-6-18v-7c-6.092-12.183 8.297-22.594 13-32 1.083-2.165 1.333-4.5-2-4.5ZM339 129l4 10.5c4.415 8.83-4.623 34.245-8 41-1.899 3.798-16.514 27.993-9.5 31.5 5.457 2.729 12.45-12.45 15-15 14.667-14.667 19.797-34.906 10.5-53.5-1.791-3.582-6.805-14.5-12-14.5m-12-14-1 3.5c5.465 10.93 20.288 22.424 13 37v5c-6.768 13.535-11.217 28.435-18 42-1.785 3.57-1.78 12.36 2.5 14.5 4.861 2.43 18.249-17.249 22-21 19.131-19.131 18.465-48.535-.5-67.5-4.464-4.464-11.759-13.5-18-13.5Z"/><path fill="#CBC9C7" id="or" d="m388 116 1 1-1-1Z"/><path fill="#C7C8CC" id="alv" d="m74 117-1 1 1-1Z"/><path fill="#FF64FF" id="MB" d="M310 119h1l-1-2v2Z"/><path fill="#C8C9CA" id="fp" d="m69 118-1 1 1-1Z"/><path fill="#C7C8CC" id="alv" d="M383 118c1.703 0 6 7.441 6 9-1.703 0-6-7.441-6-9Z"/><path fill="#C8C9CA" id="fp" d="m387 118 2 2-2-2Z"/><path fill="#CBC9C7" id="or" d="M66 120h1v-1l-1 1Z"/><path fill="#C7C8CC" id="alv" d="m73 119-1 1 1-1Z"/><path fill="#C7CBCB" id="bsc" d="M311 121v2c-1.473 0-1-1.952-1-3v-1h1v2Z"/><path fill="#CCC8CA" id="ar" d="M65 123h1l1-1v-2h-1l-1 3Z"/><path fill="#C8C9CA" id="fp" d="m68 120-1 1v-1h1Z"/><path fill="#C7C8CC" id="alv" d="m72 120-1 1 1-1Z"/><path fill="#FF64FF" id="MB" d="M309 125h2v-2c-1.473 0-1-1.952-1-3-1.643 0-1 3.765-1 5ZM174 131c0 2.144-4.262.381-5.5 1-5.453 2.726-10.938-3.531-16-1l-2.5 2c0-2.317-.709-8-4-8l-2-2 1-2 2 3 4.5 5 4.5-2 7.5 4H174ZM311 123h2l-2-2v2Z"/><path fill="#C8C9CA" id="fp" d="m389 121 2 2-2-2Z"/><path fill="#C7C8CC" id="alv" d="m71 122-1 1 1-1Z"/><path fill="#FF64FF" id="MB" d="M197 129c-8.398 0-15.253 2-23 2l3-6c3.384 0 17 4.434 17-3l1 2c0 2.25 2 3.376 2 5Z"/><path fill="#CCC8CA" id="ar" d="m64 126-1 1c0-1.465-.109-4 2-4v2l-1 1Z"/><path fill="#C8C9CA" id="fp" d="m66 123-1 1v-1h1Z"/><path fill="#CBC9C7" id="or" d="M59 150v2c-2.46 0-2 .454-2-3v-3l1-7 1-1v-1l1-2c1.638 0 2-3.576 2-5l1-1v-2l1-1 1-1v-1l1-1c1.473 0 1 1.952 1 3-1.428 0-4 4.822-4 6 0 3.157-2 5.481-2 9-1.674 0-2 7.241-2 9Z"/><path fill="#C7C8CC" id="alv" d="m70 123-1 1 1-1Z"/><path fill="#C9C8C8" id="bic" d="M137 139h2c0-5.045 6-8.661 6-13l1-1-2-2c-5.481 0-7 11.27-7 15v1Z"/><path fill="#A9A9A8" id="AQ" d="M227 124h2c2.523 0-2-2.56-2 0Z"/><path fill="#FF64FF" id="MB" d="M260 129c8.69 0 22.448.474 29.5 4 4.611 2.306 9.389-4.306 14-2l3.5 2v-5c-.785 0-6 1.478-6-1-4.794 0-15.338 9.824-20 .5l-2-2.5-6.5 2c-2.737-1.369-6.3-.65-9-2l-1.5-2-1 1-1 5Z"/><path fill="#C9C8C8" id="bic" d="m317 138 3 1v-3c-1.149 0-1.473-5.447-2-6.5-.706-1.412-5-5.954-5-6.5h-2v2c0 4.653 6 7.904 6 13Z"/><path fill="#CBC9C7" id="or" d="m392 123 1 1-1-1Z"/><path fill="#FF64FF" id="MB" d="M226 147h5c0-8.126-2-15.521-2-23h-2c0 7.074-1 15.306-1 23Z"/><path fill="#C8C9CA" id="fp" d="m65 125-1 1 1-1Z"/><path fill="#C7C8CC" id="alv" d="M67 126v2c1.577 0 2-1.762 2-3l-2 1Z"/><path fill="#FF64FF" id="MB" d="m146 125-1 1 1-1Z"/><path fill="#FE7AFD" id="NB" d="M138 148v2c6.666 0 7.406-9 8-9v-1l1-1 3-6c0-2.317-.709-8-4-8l-1 1c0 4.339-6 7.955-6 13 0 2.723-1 5.778-1 9Z"/><path fill="#FF64FF" id="MB" d="m309 125-1 1 1-1Z"/><path fill="#FE7AFD" id="NB" d="M319 144v5c-2.312 0-4.124 2.252-6-1.5-.534-1.069-2.17-7.5-3-7.5l-3-7v-6l1-1 1-1h2c0 4.653 6 7.904 6 13l2 6Z"/><path fill="#C8C9CA" id="fp" d="M63 132h2l1-1 1-2v-3c-1.428 0-4 4.822-4 6Z"/><path fill="#FF64FF" id="MB" d="m308 126-1 1 1-1Z"/><path fill="#C8C9CA" id="fp" d="m392 126 1 1-1-1Z"/><path fill="#CCC8CA" id="ar" d="M62 129h1v-2l-1 2Z"/><path fill="#C7C8CC" id="alv" d="m389 128 1 1-1-1Z"/><path fill="#CCC8CA" id="ar" d="M62 130c0 1.424-.362 5-2 5 0-1.357.647-6 2-6v1Z"/><path fill="#C8C9CA" id="fp" d="m63 129-1 1v-1h1Z"/><path fill="#C7C8CC" id="alv" d="m67 129-1 2 1-2Z"/><path fill="#7ECE4A" id="DG-po" d="M115 129c0 3.362-6.214 6.929-8 10.5-2.733 5.465-4.303 11.606-7 17-6.338 12.676 13.893 35.785 18 44 1.123 2.246 9.616 12.942 12.5 11.5 4.156-2.078 1.994-10.513.5-13.5-5.618-11.237-10.421-22.843-16-34-1.863-3.726-4.307-18.386-2-23 1.204-2.408 5.731-12.5 2-12.5Z"/><path fill="#FF8FFD" id="MRN" d="M195 187h4c0-1.338-22.6-10.301-18-19.5 8.22-16.439 36-7.67 36 7.5l4-4v-1l1-1 1-1v-2l1-1v-1l-2-4-3-3v-1l-2-2v-1l-1-2-1-2h-1l-1-1c0-8.365-16-16.832-16-19-8.398 0-15.253 2-23 2 0 2.144-4.262.381-5.5 1-5.453 2.726-10.938-3.531-16-1l-2.5 2-3 6-1 1v1c0 16.374 10.757 42 30 42 0-4.622 13.192-.154 15.5 1l3.5 3Z"/><path fill="#FF64FF" id="MB" d="m260 129-1 1 1-1Z"/><path fill="#FF8FFD" id="MRN" d="M257 187h5c0-3.026 19-9.301 19-4 19.816 0 29-26.7 29-43l-3-7-3.5-2c-4.611-2.306-9.389 4.306-14 2-7.052-3.526-20.81-4-29.5-4l-1 1-5.5 3c-3.254 1.627-10.5 10.956-10.5 15l-1 1-1 1-1 2-1 1v1l-1 1v1l-1 1c0 1.747-.253 2-2 2v1l-1 1-1 1v5l1 1v1l5 5c0-12.365 27.228-24.044 36-6.5 5.167 10.333-18 17.734-18 19.5Z"/><path fill="#7ECE4A" id="DG-po" d="m339 129 4 10.5c4.415 8.83-4.623 34.245-8 41-1.899 3.798-16.514 27.993-9.5 31.5 5.457 2.729 12.45-12.45 15-15 14.667-14.667 19.797-34.906 10.5-53.5-1.791-3.582-6.805-14.5-12-14.5Z"/><path fill="#C7C8CC" id="alv" d="m390 130 1 1-1-1ZM66 131l-1 1 1-1Z"/><path fill="#C8CBCC" id="ec" d="M61 141h1l1-2v-2l1-2 1-2v-1h-2c0 3.157-2 5.481-2 9Z"/><path fill="#FE7F82" id="MGd" d="M125 149c1.791 0 2.959-3.27 5.5-2l2.5 2 2-4c0-1.145-.579-4 1-4v-5c-1.473 0-1-1.952-1-3-3.162 0-5.166 2-7 2l-1 2-2 12ZM332 149v1l-3.5-3-4.5 1-3-2v-12c0-5.345 7.197.894 8 2.5.768 1.537 1.66 12.5 3 12.5Z"/><path fill="#C7C8CC" id="alv" d="m392 132 1 4-2-4h1Z"/><path fill="#C8CBCC" id="ec" d="m395 145 2 3c0-5.825-4-11.077-4-16h-1l1 4v2c1.638 0 2 3.576 2 5v2Z"/><path fill="#C7C8CC" id="alv" d="m65 133-1 2 1-2Z"/><path fill="#FF6F80" id="TH" d="M135 133c1.473 0 1 1.952 1 3-1.473 0-1-1.952-1-3ZM324 159l1 2c-7.899 0-6-7.454-6-12v-5c1.643 0 1-3.765 1-5v-3l1-2v12c-2.572 0 .162 13 3 13Z"/><path fill="#CCC8CA" id="ar" d="m60 135-1 2 1-2Z"/><path fill="#C7C8CC" id="alv" d="m64 135-1 2 1-2Z"/><path fill="#CCC8CA" id="ar" d="m397 137 1 2-1-2ZM59 138l-1 1 1-1Z"/><path fill="#FF6F80" id="TH" d="M133 158v2c5.536 0 5-5.603 5-10v-2c-1.751 0-1-7.426-1-9v-1h-1v7c0 2.759.843 13-3 13Z"/><path fill="#FF64FF" id="MB" d="M320 139c0 1.235.643 5-1 5l-2-6 3 1Z"/><path fill="#C7C8CC" id="alv" d="M393 138c1.638 0 2 3.576 2 5-1.014 0-2-3.959-2-5ZM63 139l-1 2 1-2Z"/><path fill="#FF64FF" id="MB" d="M139 139c0 2.723-1 5.778-1 9-1.751 0-1-7.426-1-9h2ZM147 139l-1 1 1-1Z"/><path fill="#FF64FF" id="MB" fill-rule="evenodd" d="M248 190c0 .015 12.444 12.028 16.5 10 1.173-.587 1.436-6.282 0-7-5.477-2.739-9.797-3-16.5-3m0 33-2 1c0-3.31-2.996-1-4-1v-7c0-1.6-3.116-8-5-8l-2-5c4.51 0 1-9.712 1-12 3.183 0-1-9.876-1-11l2 1 6.5 6c1.63.815 4.581-.339 3.5-2.5l-3-2.5 6 3h1c0 1.577 1.762 2 3 2h8c0 3.196 9.921 12.289 12.5 11 4.184-2.092 6.5-10.221 6.5-15 19.816 0 29-26.7 29-43 .83 0 2.466 6.431 3 7.5 1.876 3.752 3.688 1.5 6 1.5 0 4.546-1.899 12 6 12h2c0 8.226-3.584 15.668-7 22.5-.632 1.265-1.278 6.5-3 6.5 0-1.716 5.902-18.701.5-16-2.828 1.414-2.017 11-3.5 11 0-2.378-.029-3.559-1-5.5-5.531-11.062-12.204 4.5-20 4.5-9.605 0-10-.067-10 11l-2 5-3 5-1 1v1c-1.665 0-8.248 12-2.5 12 .949 0 2.951-1 4.5-1l-10 5c0-2.455 3.041-7-2-7 0-1.791 3.27-2.959 2-5.5-1.65-3.301-14.557-13.972-17.5-12.5-5.599 2.799-3.5 19.977-3.5 25Z"/><path fill="#C8CBCC" id="ec" d="M59 150h1c0-1.048-.473-3 1-3v-6c-1.674 0-2 7.241-2 9Z"/><path fill="#C7C8CC" id="alv" d="M62 141c0 1.145.58 4-1 4v-4h1Z"/><path fill="#FF8E9D" id="SGN" d="M135 145h1v-4c-1.579 0-1 2.855-1 4Z"/><path fill="#FF64FF" id="MB" d="M176 217c0 1.759 11.141 7 13 7 0-1.854-6.358-8 0-8l-2-3.5c-.9-1.801 3.512-6.023 4-7 1.138-2.276 9-3.44 9-6.5-7.238 0-9 5.037-9-6-2.848 0-5.089 3.794-7.5 5-5.323 2.662-7.5-12.146-7.5-15-19.243 0-30-25.626-30-42-.594 0-1.334 9-8 9 0 4.397.536 10-5 10l-1 1h-3c0 11.872 7.946 25.393 13 35.5 1.101 2.202 4.431 10.5 8 10.5 0-1.206-11-14.969-11-20l-3-10.5 2.5-2.5c2.741 1.37 2.154 9 3.5 9 0-19.112 17.847 2 22 2 0-2.168 6.187-3.127 7-1.5 2.139 4.277 2 7.353 2 11.5 0 1.624 2 2.75 2 5 1.948 0 4 5.428 4 7 1.477 0 6.671 8.157 6 9.5-1.78 3.559-6.846.5-9 .5Z"/><path fill="#FD7F83" id="MGm" d="M133 149v9c3.843 0 3-10.241 3-13h-1l-2 4Z"/><path fill="#C7C8CC" id="alv" d="M397 151v3c-.981 0-2-7.758-2-9l2 3v3Z"/><path fill="#0E9F91" id="ECT6a" d="M51 163h4v-16h-5c0 5.172 1 10.365 1 15v1Z"/><path fill="#0E9F90" id="ECT6b" d="M55 162h1c0-1.908-.788-13 1-13v-3h-2v16Z"/><path fill="#FD7F83" id="MGm" d="M324 148v11c-2.838 0-5.572-13-3-13l3 2Z"/><path fill="#0E9F90" id="ECT6b" d="M400 162h1v-16h-2c0 1.819 1 4.591 1 7v9Z"/><path fill="#0E9F91" id="ECT6a" d="m406 162-5 1v-17c2.079 0 3.187 1 6 1l-1 15Z"/><path fill="#0D9F91" id="ECT2/3" d="M35 163h1l7-1c0-5.113-4-9.289-4-15h-2l-7 2c0 4.963 5 10.818 5 14Z"/><path fill="#0D9E90" id="ECT5" d="M43 162h8c0-4.635-1-9.828-1-15H39c0 5.711 4 9.887 4 15Z"/><path fill="#C7C8CC" id="alv" d="M61 147c-1.473 0-1 1.952-1 3 1.473 0 1-1.952 1-3Z"/><path fill="#FE7E83" id="MGv" d="M129 161h3l1-1v-11l-2.5-2c-2.541-1.27-3.709 2-5.5 2v7l4 5Z"/><path fill="#FE8FFC" id="EW" d="M231 153v2c-5.358 0-5 .706-5-6v-2h5v6Z"/><path fill="#FE7E83" id="MGv" d="M325 161h2c2.879 0 1.993-4 4-4 0-1.145-.579-4 1-4v-3l-3.5-3-4.5 1v11l1 2Z"/><path fill="#0D9E90" id="ECT5" d="M406 162h7c0-4.773 4-9.255 4-15h-10l-1 15Z"/><path fill="#0D9F91" id="ECT2/3" d="M420 163h1c0-4.049 6-9.191 6-14-2.522 0-4.909-2-8-2h-2c0 5.745-4 10.227-4 15l7 1Z"/><path fill="#FF64FF" id="MB" d="m213 148 1 1-1-1ZM243 148l-1 1 1-1Z"/><path fill="#0D9F90" id="ECT1" d="m35 163-3 1c-5.093 0-7-11.715-7-15h5c0 4.963 5 10.818 5 14Z"/><path fill="#C8CBCC" id="ec" d="M57 171c1.92 0 1.26 8.021 2 9.5l7 18 6 8c.724 1.448 2.767 6.5 5 6.5 0-1.427-8.729-13.958-10-16.5-6.55-13.1-8-28.657-8-44.5-2.46 0-2 .454-2-3-1.788 0-1 11.092-1 13 1.751 0 1 7.426 1 9Z"/><path fill="#FF64FF" id="MB" d="m217 154 2 1-1-4-3-2 1 2 1 2v1ZM231 164l2 1v-3c-3.614 0-.489-3 2-3v-1c-3.041 0-4 .303-4-3-5.358 0-5 .706-5-6-1.473 0-1 1.952-1 3 0 3.425 1.021 6-3 6 0 1.572 4.072 4 2.5 4l-2.5-2 2 4h1c0-7.904 6-8.427 6 0ZM242 149l-1 1 1-1Z"/><path fill="#0D9F90" id="ECT1" d="m421 163 4 1c0-.222 6-8.322 6-15h-4c0 4.809-6 9.951-6 14Z"/><path fill="#C7C8CC" id="alv" d="M93 231h1c0-5.348-13-9.201-13-15-3.154 0-7.833-11.165-9-13.5-8.44-16.88-12-31.911-12-52.5h-1v2c0 15.843 1.45 31.4 8 44.5 1.271 2.542 10 15.073 10 16.5v1l16 17Z"/><path fill="#FE90FF" id="III" d="M221 158h1c4.021 0 3-2.575 3-6l-2.5-2-4.5 1 1 4v1l2 2ZM236 157l-1 1c-3.041 0-4 .303-4-3v-2l1-1c0-3.19 4.967-1 6-1v3l-1 2-1 1Z"/><path fill="#FF64FF" id="MB" d="M238 154h1v-1l1-1 1-2-3 1v3Z"/><path fill="#CBCBCC" id="mlf" d="m216 151 1 2-1-2Z"/><path fill="#C8CBCC" id="ec" d="M387 199v3c2.47 0 3.265-5.03 4-6.5 3.591-7.182 8-16.016 8-24.5l1-9v-9c-2.215 0-1.519-2-3-2v12c0 2.223.018 13-2 13 0 1.775-.069 8-2 8v1c0 1.424-.362 5-2 5 0 1.424-.362 5-2 5l-1 2-1 2Z"/><path fill="#FF64FF" id="MB" d="m232 152-1 1v-1h1Z"/><path fill="#CBCBCC" id="mlf" d="m240 152-1 1 1-1ZM219 155v1l-2-2 2 1Z"/><path fill="#FF64FF" id="MB" d="M237 156h1v-2l-1 2Z"/><path fill="#CBCBCC" id="mlf" d="m239 154-1 1v-1h1Z"/><path fill="#FF64FF" id="MB" d="m219 157 2 1-2-2v1ZM236 157h1v-1l-1 1Z"/><path fill="#CBCBCC" id="mlf" d="m238 156-1 1v-1h1ZM222 158c0 1.572 4.072 4 2.5 4l-2.5-2-3-3 2 1h1Z"/><path fill="#FEA6FF" id="RL" d="M228 172h1l2-1v-7c0-8.427-6-7.904-6 0v8h3Z"/><path fill="#FF64FF" id="MB" d="m236 157-1 1 1-1Z"/><path fill="#CBCBCC" id="mlf" d="M235 158v1c1.747 0 2-.253 2-2h-1l-1 1Z"/><path fill="#FE90FD" id="RN" d="M199 187h4l2-1 1-1h1l1-1 1-1h1l1-1 2-1c0-1.747.253-2 2-2l1-2 1-1v-1c0-15.17-27.78-23.939-36-7.5-4.6 9.199 18 18.162 18 19.5ZM254 187h3c0-1.766 23.167-9.167 18-19.5-8.772-17.544-36-5.865-36 6.5v1l5.5 6c1.237 1.237 5.5 1.88 5.5 4h1l3 2Z"/><path fill="#CBCBCC" id="mlf" d="m234 161-1 1c-3.614 0-.489-3 2-3v1l-1 1Z"/><path fill="#FF6F80" id="TH" d="m133 160-1 1 1-1Z"/><path fill="#FF64FF" id="MB" d="m235 160-1 1 1-1Z"/><path fill="#0E9583" id="PERI2/3" d="M43 173h4c0-2.989-4-7.749-4-11l-7 1c0 2.014 2.284 5.932 1 8.5l-2 2.5 8-1Z"/><path fill="#0F9684" id="PERI5" d="M47 173h1c0-1.579 2.855-1 4-1l-1-9v-1h-8c0 3.251 4 8.011 4 11Z"/><path fill="#0E9683" id="PERI6b" d="M56 171h1c0-1.574.751-9-1-9h-1v1c1.735 0 1 6.51 1 8ZM399 171h1l1-8v-1h-1l-1 9Z"/><path fill="#0E9684" id="PERI6a" d="M403 171h1l2-9-5 1-1 8h3Z"/><path fill="#0F9684" id="PERI5" d="m408 172 2 1 3-11h-7l-2 9c0 1.579 2.855 1 4 1Z"/><path fill="#0E9583" id="PERI2/3" d="m414 173 7 1-2-3.5 1-7.5-7-1-3 11h4Z"/><path fill="#0E9584" id="PERI1" d="M29 175h5l1-1 2-2.5c1.284-2.568-1-6.486-1-8.5h-1l-3 1c0 5.065-3 8.797-3 11Z"/><path fill="#0E9684" id="PERI6a" d="M52 172h1c0-1.473 1.952-1 3-1 0-1.49.735-8-1-8h-4l1 9Z"/><path fill="#C7C8CC" id="alv" d="M397 163c-1.388 0-2 11.087-2 13 2.018 0 2-10.777 2-13Z"/><path fill="#0E9584" id="PERI1" d="M422 175h6c0-1.186-3.346-5.192-4-6.5l1-4.5-4-1h-1l-1 7.5 2 3.5 1 1Z"/><path fill="#C8C8C8" id="mtg" d="m221 180-2 1 2-10 1-1v-1l1-1v-2l1-1v-1h1v8l-1 1-1 1-2 6ZM235 180l2 1c0-4.428-3-8.026-3-12v-1l-1-1v-2l-2-1v7l2 3 2 5v1Z"/><path fill="#CACAC7" id="dtd" d="m224 165-1 1 1-1Z"/><path fill="#FF64FF" id="MB" d="m233 167 1 1-1-1ZM223 168l-1 1 1-1ZM221 170h1v-1l-1 1Z"/><path fill="#C8C8CC" id="tspc" d="m237 181 6.5 6c1.63.815 4.581-.339 3.5-2.5l-3-2.5c-2.004 0-5-5.378-5-7v-1l-5-5c0 3.974 3 7.572 3 12ZM222 170l-1 1v-1h1Z"/><path fill="#32B824" id="ENTl6a" d="m87 226-6 2c0-6.119-10.32-12.141-13-17.5-6.514-13.027-15-22.671-15-38.5 0-1.473 1.952-1 3-1h1c1.92 0 1.26 8.021 2 9.5l7 18 6 8c.724 1.448 2.767 6.5 5 6.5v1l10 12Z"/><path fill="#C8C8CC" id="tspc" d="m212 182-1 1-2 3.5c1.549 3.098 10-3.295 10-5.5l2-10-4 4v1l-1 1-1 2v1l-1 1h-1l-1 1Z"/><path fill="#CACAC7" id="dtd" d="M229 172c0 2.109 2.535 2 4 2l-2-3-2 1Z"/><path fill="#32B824" id="ENTl6a" d="M370 226c0 1.014 3.959 2 5 2 0-5.483 9.498-10.496 12-15.5 7.319-14.638 16-23.55 16-41.5h-4c0 8.484-4.409 17.318-8 24.5-.735 1.47-1.53 6.5-4 6.5 0 1.238-.423 3-2 3l-1 2-1 1v1l-1 1-1 1-1 2-1 1c0 1.238-.423 3-2 3l-1 1-1 1c0 1.747-.253 2-2 2 0 2.364-3 3.053-3 5Z"/><path fill="#31B824" id="ENTl5" d="m375 228 9 2 17-21.5c7.451-14.902 7-19.963 7-36.5-1.145 0-4 .579-4-1h-1c0 17.95-8.681 26.862-16 41.5-2.502 5.004-12 10.017-12 15.5ZM81 228l-8 1c-3.308 0-10.243-9.986-12-13.5l-8-11c-4.76-9.52-5-19.919-5-31.5 0-1.579 2.855-1 4-1h1c0 15.829 8.486 25.473 15 38.5 2.68 5.359 13 11.381 13 17.5Z"/><path fill="#CACAC7" id="dtd" d="M224 173v1c1.465 0 4 .109 4-2h-3l-1 1Z"/><path fill="#FF64FF" id="MB" d="M235 179c-1.812 0-7.171-4.665-10.5-3l-3.5 4 2-6h1c1.465 0 4 .109 4-2h1c0 2.109 2.535 2 4 2l2 5Z"/><path fill="#32B725" id="ENTl3" d="m384 230 7 3c0-.359 14.568-17.636 16-20.5 1.779-3.558 10.678-25.645 9-29-1.418-2.837-2-7.169-2-10.5h-4l-2-1c0 16.537.451 21.598-7 36.5L384 230Z"/><path fill="#32B825" id="ENTl2" d="M63 233h2c0-.612-12.32-15.139-14-18.5-3.11-6.219-13.884-27.231-10-35l2-6.5-8 1-1 1c0 4.158-3.233 13.034-1 17.5 5.077 10.154 6.952 21.903 12 32 1.805 3.609 4.54 5.079 6 8l4 2.5c3.091 0 5.478-2 8-2Z"/><path fill="#32B725" id="ENTl3" d="m73 230-8 3c0-.612-12.32-15.139-14-18.5-3.11-6.219-13.884-27.231-10-35l2-6.5h5c0 11.581.24 21.98 5 31.5l8 11c1.757 3.514 8.692 13.5 12 13.5v1Z"/><path fill="#C8C8CC" id="tspc" d="M223 174h1v-1l-1 1Z"/><path fill="#32B825" id="ENTl2" d="M393 233c3.071 0 5.362 2 9 2l4.5-4c3.05-3.05 4.689-6.878 6.5-10.5 4.701-9.402 6.27-20.541 11-30 2.39-4.78-2-11.537-2-15.5l-1-1-7-1c0 3.331.582 7.663 2 10.5 1.678 3.355-7.221 25.442-9 29-1.432 2.864-16 20.141-16 20.5h2Z"/><path fill="#CCCAC7" id="cpd" d="M185 234h4c1.996 0 4.985-2 8-2v-1c-2.147 0-8-4.723-8-7-1.859 0-13-5.241-13-7-3.817 0-6.352-2.426-9.5-4l-8-2c-9.376-4.688-16.5-18.234-16.5-28-1.346 0-.759-7.63-3.5-9l-2.5 2.5 3 10.5c0 5.031 11 18.794 11 20h1c2.486 0 22 17.958 22 20v1l1 1 6.5 4c1.147.574 4.5-1.064 4.5 1ZM267 234h4c0-2.144 4.262-.381 5.5-1l5.5-4 1-1 1-1 1-1v-1l2-2 2-2c0-1.747.253-2 2-2 0-1.747.253-2 2-2 0-1.712 2.571-3 4-3l1-1c0-1.577 1.762-2 3-2 0-1.577 1.762-2 3-2l1-1 1-1 1-1 1-1 1-1 1-1 1-1c0-1.238.423-3 2-3 0-1.831 2.183-9 4-9 0-1.716 5.902-18.701.5-16-2.828 1.414-2.017 11-3.5 11 0 9.732-7.819 21.66-16.5 26-2.329 1.165-5.706.853-8 2l-8.5 4-1 1h-1l-10 5-1 1-1 1c0 2.289-6.178 6-8 6v1c1.949 0 8-.991 8 2Z"/><path fill="#32B722" id="ENTl1" d="M54 235h1l-4-2.5c-1.46-2.921-4.195-4.391-6-8-5.048-10.097-6.923-21.846-12-32-2.233-4.466 1-13.342 1-17.5h-5c-3.696 0-1.934 13.632-1 15.5l12 32c.829 1.658 8 12.937 8 13.5 2.124 0 4.436-1 6-1Z"/><path fill="#FF8DFD" id="SNr" d="M179 207c1.477 0 6.671 8.157 6 9.5-1.78 3.559-6.846.5-9 .5-3.817 0-6.352-2.426-9.5-4l-8-2c-9.376-4.688-16.5-18.234-16.5-28 0-19.112 17.847 2 22 2 0 4.111 4.639 10 9 10 0 1.624 2 2.75 2 5-2.658 0-1.187.873-2 2.5-6.21 12.42 6 8.849 6 4.5Z"/><path fill="#FF8FFD" id="MRN" d="m244 182 6 3c0-2.12-4.263-2.763-5.5-4l-5.5-6c0 1.622 2.996 7 5 7Z"/><path fill="#FF8DFD" id="SNr" d="M279 218h1l1-1 8.5-4c2.294-1.147 5.671-.835 8-2 8.681-4.34 16.5-16.268 16.5-26 0-2.378-.029-3.559-1-5.5-5.531-11.062-12.204 4.5-20 4.5 0 4.908-5.039 11-10 11l-2 5c3.41 0 7.007 9.247 3.5 11-2.516 1.258-7.5-1.504-7.5-4-1.665 0-8.248 12-2.5 12 .949 0 2.951-1 4.5-1Z"/><path fill="#32B722" id="ENTl1" d="M402 235c1.564 0 3.876 1 6 1 3.019 0 5.95-9.401 7-11.5 5.761-11.523 8.289-24.579 14-36 .82-1.64.173-13.5-1-13.5h-6c0 3.963 4.39 10.72 2 15.5-4.73 9.459-6.299 20.598-11 30-1.811 3.622-3.45 7.45-6.5 10.5l-4.5 4Z"/><path fill="#FF8FFD" id="MRN" d="m217 176-1 1 1-1Z"/><path fill="#FFA4FF" id="CLI" d="m236 191-1.5 2-5.5-1-1-1-2.5 2c-2.541 1.27-3.709-2-5.5-2 0-3.631 1-7.087 1-11l3.5-4c3.329-1.665 8.688 3 10.5 3v1c0 1.124 4.183 11 1 11Z"/><path fill="#C7C8CC" id="alv" d="M395 176c-1.931 0-2 6.225-2 8 1.931 0 2-6.225 2-8Z"/><path fill="#FF8FFD" id="MRN" d="m216 177-1 2 1-2ZM213 181h1l1-1v-1c-1.747 0-2 .253-2 2Z"/><path fill="#FF64FF" id="MB" d="m215 180-1 1 1-1ZM214 223c-2.878 0-2.954 1-4 1l-2-1 2-4.5c.995-1.989-3.711-19.606-5.5-20.5l-4.5 1c0-5.335 9-8.127 9-8.5l-3.5-.5-11.5 1 1-4h8l2-1 1-1h1l1-1 1-1h2l-2 3.5c1.549 3.098 10-3.295 10-5.5l2-1c0 3.913-1 7.369-1 11 0 1.665-3.356 12 1 12l-2 5c-2.911 0-4 6.752-4 9 0 1.564-1 3.876-1 6Z"/><path fill="#FD8FFF" id="RR" d="M194 191c-1.238 0-3 .423-3 2-2.848 0-5.089 3.794-7.5 5-5.323 2.662-7.5-12.146-7.5-15 0-4.622 13.192-.154 15.5 1l3.5 3-1 4Z"/><path fill="#FF8FFD" id="MRN" d="M211 182h1l1-1-2 1Z"/><path fill="#FD8FFF" id="RR" d="M281 183c0 4.779-2.316 12.908-6.5 15-2.579 1.289-12.5-7.804-12.5-11 0-3.026 19-9.301 19-4Z"/><path fill="#FF8FFD" id="MRN" d="M210 183h1v-1l-1 1Z"/><path fill="#FF64FF" id="MB" d="m212 182-1 1v-1h1Z"/><path fill="#FFA6FD" id="SNc" d="M164 185c0 4.111 4.639 10 9 10 0-4.147.139-7.223-2-11.5-.813-1.627-7-.668-7 1.5Z"/><path fill="#FF8FFD" id="MRN" d="m209 183-1 1 1-1Z"/><path fill="#FFA6FD" id="SNc" d="M293 184c-9.605 0-10-.067-10 11 4.961 0 10-6.092 10-11Z"/><path fill="#FF8FFD" id="MRN" d="m208 184-1 1 1-1ZM206 185l-1 1 1-1ZM251 185l3 2c-1.238 0-3-.423-3-2Z"/><path fill="#C7C8CC" id="alv" d="M393 185c-1.638 0-2 3.576-2 5 1.638 0 2-3.576 2-5Z"/><path fill="#FF8FFD" id="MRN" d="m205 186-2 1 2-1Z"/><path fill="#C8C8CB" id="rust" d="M191 193c0 11.037 1.762 6 9 6 0-5.335 9-8.127 9-8.5l-3.5-.5-11.5 1c0 1.577-1.762 2-3 2ZM248 190c0 .015 12.444 12.028 16.5 10 1.173-.587 1.436-6.282 0-7-5.477-2.739-9.797-3-16.5-3Z"/><path fill="#FF64FF" id="MB" d="M317 190c-1.817 0-4 7.169-4 9 1.817 0 4-7.169 4-9Z"/><path fill="#C7C8CC" id="alv" d="M391 190c-1.638 0-2 3.576-2 5 1.638 0 2-3.576 2-5Z"/><path fill="#FF64FF" id="MB" d="M194 191c-1.238 0-3 .423-3 2 1.238 0 3-.423 3-2Z"/><path fill="#FFA6FF" id="IF" d="m230 201 5 2c4.51 0 1-9.712 1-12l-1.5 2-5.5-1-1-1-2.5 2c-2.541 1.27-3.709-2-5.5-2 0 1.665-3.356 12 1 12l6-2h3Z"/><path fill="#FF64FF" id="MB" d="m228 191 1 1-1-1Z"/><path fill="#C7C8CC" id="alv" d="m389 195-1 2 1-2ZM388 197l-1 2 1-2Z"/><path fill="#FFC295" id="PRNr" d="M189 216c6.297 0 12.066 7 19 7l2-4.5c.995-1.989-3.711-19.606-5.5-20.5l-4.5 1c0 3.06-7.862 4.224-9 6.5-.488.977-4.9 5.199-4 7l2 3.5ZM267 216c-4.92 0-12.463 7-19 7 0-5.023-2.099-22.201 3.5-25 2.943-1.472 15.85 9.199 17.5 12.5 1.27 2.541-2 3.709-2 5.5Z"/><path fill="#FF64FF" id="MB" d="M313 199c-1.577 0-2 1.762-2 3 1.577 0 2-1.762 2-3Z"/><path fill="#C7C8CC" id="alv" d="m387 202-2 1 2-4v3Z"/><path fill="#FFA6FD" id="SNc" d="M175 200c1.948 0 4 5.428 4 7 0 4.349-12.21 7.92-6-4.5.813-1.627-.658-2.5 2-2.5Z"/><path fill="#FEA6FE" id="IPA" d="M223 215h10l2-6c-3.741 0-5-5.023-5-8h-3c0 2.955-2.617 8-6 8 0 2.447 2 3.28 2 6Z"/><path fill="#FFA6FD" id="SNc" d="M277 206v1c0 2.496 4.984 5.258 7.5 4 3.507-1.753-.09-11-3.5-11l-3 5-1 1Z"/><path fill="#FEA4FF" id="IPDM" d="m219 208 2 1c3.383 0 6-5.045 6-8l-6 2-2 5ZM237 208l-2 1c-3.741 0-5-5.023-5-8l5 2 2 5Z"/><path fill="#FF64FF" id="MB" d="m311 202-1 1 1-1Z"/><path fill="#C8CBCC" id="ec" d="M385 203v2c1.577 0 2-1.762 2-3l-2 1Z"/><path fill="#57B947" id="ProS" d="m100 235 2 1c4.155 0 21.202-15 23-15 0-1.589-13.023-13.761-13.5-14l-3.5-4c0 2.236-5.074 3.287-6.5 4L81 216c0 5.799 13 9.652 13 15l1 1c1.429 0 4 1.288 4 3h1Z"/><path fill="#FF64FF" id="MB" d="m310 203-1 1 1-1Z"/><path fill="#57B947" id="ProS" d="M356 235h1l1-1 1-1h1l1-1 1-1 1-1 1-1h1v-1l1-1h1v-1l1-1 1-1 1-1 1-1 1-1h1v-1l1-1 1-1v-1c0-2.134-27-11.627-27-14l-3.5 4c-3.014 3.014-12.5 9.849-12.5 14 0 1.425 20.803 15 23 15l1-1Z"/><path fill="#C7C8CC" id="alv" d="M384 205h1v-2l-1 2Z"/><path fill="#FF8DFD" id="SNr" d="m278 205-1 1 1-1Z"/><path fill="#FF64FF" id="MB" d="m308 205-1 1 1-1Z"/><path fill="#C7C8CC" id="alv" d="M383 207h1v-2l-1 2Z"/><path fill="#C8CBCC" id="ec" d="m385 205-1 2v-2h1Z"/><path fill="#FF64FF" id="MB" d="m307 206-1 1 1-1ZM151 207c2.486 0 22 17.958 22 20-2.128 0-3.74-3.24-5.5-5-3.832-3.832-16.5-11.173-16.5-15ZM306 207l-1 1 1-1Z"/><path fill="#C7C8CC" id="alv" d="M381 210h1l1-1v-2c-1.577 0-2 1.762-2 3Z"/><path fill="#C8CBCC" id="ec" d="m384 207-1 1v-1h1Z"/><path fill="#FDA6FE" id="IPDL" d="M218 217h1l4-1v-1c0-2.72-2-3.553-2-6l-2-1c-2.911 0-4 6.752-4 9h3ZM234 217h4l4-1c0-1.6-3.116-8-5-8l-2 1-2 6 1 2Z"/><path fill="#FF64FF" id="MB" d="m305 208-1 1 1-1ZM304 209c-1.238 0-3 .423-3 2 1.238 0 3-.423 3-2Z"/><path fill="#C8CBCC" id="ec" d="m383 209-1 1 1-1Z"/><path fill="#C7C8CC" id="alv" d="M380 211h1v-1l-1 1Z"/><path fill="#C8CBCC" id="ec" d="m382 210-1 1v-1h1Z"/><path fill="#FF64FF" id="MB" d="M301 211c-1.238 0-3 .423-3 2 1.238 0 3-.423 3-2Z"/><path fill="#C7C8CC" id="alv" d="M379 213h1v-2l-1 2Z"/><path fill="#C8CBCC" id="ec" d="m381 211-1 2v-2h1Z"/><path fill="#FF64FF" id="MB" d="m298 213-1 1 1-1Z"/><path fill="#C7C8CC" id="alv" d="M378 214h1v-1l-1 1Z"/><path fill="#C8CBCC" id="ec" d="m380 213-1 1v-1h1ZM87 226l6 5-16-17 10 12Z"/><path fill="#FF64FF" id="MB" d="M297 214c-1.429 0-4 1.288-4 3 1.429 0 4-1.288 4-3Z"/><path fill="#C7C8CC" id="alv" d="m378 214-1 1 1-1Z"/><path fill="#C8CBCC" id="ec" d="M377 215v2c1.577 0 2-1.762 2-3h-1l-1 1Z"/><path fill="#FFA5FE" id="IPC" d="M229 231h4v-1l1-13-1-2h-10v14l1 2h5Z"/><path fill="#C7C8CC" id="alv" d="M376 217h1v-2l-1 2Z"/><path fill="#CACCC8" id="ml" d="m203 233 8 4c4.534 0 4-.92 4-6 0-3.267-5-5.364-5-7l-2-1c-6.934 0-12.703-7-19-7-6.358 0 0 6.146 0 8 0 2.277 5.853 7 8 7l3 2h3Z"/><path fill="#FEA6FD" id="IPI" d="M222 229h1v-13l-4 1v1c0 4.366 3 7.381 3 11Z"/><path fill="#FEA5FF" id="IPL" d="M234 230v1c3.418 0 8-4.49 8-8v-7l-4 1c0 4.761-4 8.787-4 13Z"/><path fill="#CACCC8" id="ml" d="M253 233h3l3-2c1.822 0 8-3.711 8-6l1-1 1-1c0-2.455 3.041-7-2-7-4.92 0-12.463 7-19 7l-2 1c0 1.604-5 4.282-5 7 0 4.314.139 7 5 7 0-1.097 5.986-5 7-5Z"/><path fill="#FEA5FF" id="IPL" d="M222 229v2c-3.319 0-8-4.645-8-8 0-2.124 1-4.436 1-6h3l1 1c0 4.366 3 7.381 3 11Z"/><path fill="#FFA6FE" id="IPN" d="M219 217v1l-1-1h1Z"/><path fill="#FEA6FD" id="IPI" d="M233 230h1c0-4.213 4-8.239 4-13h-4l-1 13Z"/><path fill="#FF64FF" id="MB" d="m281 217-1 1 1-1ZM293 217c-1.747 0-2 .253-2 2 1.747 0 2-.253 2-2Z"/><path fill="#C7C8CC" id="alv" d="M375 218h1v-1h-1v1Z"/><path fill="#C8CBCC" id="ec" d="m377 217-1 1v-1h1Z"/><path fill="#C7C8CC" id="alv" d="M374 219h1v-1l-1 1Z"/><path fill="#C8CBCC" id="ec" d="m376 218-1 1v-1h1Z"/><path fill="#FF64FF" id="MB" d="M291 219c-1.747 0-2 .253-2 2 1.747 0 2-.253 2-2Z"/><path fill="#C7C8CC" id="alv" d="m374 219-1 1 1-1Z"/><path fill="#C8CBCC" id="ec" d="M373 220v1c1.747 0 2-.253 2-2h-1l-1 1Z"/><path fill="#33B931" id="HATA" d="m118 251 4 1c1.9 0 2.309-6.118 3-7.5 2.463-4.926 4-10.561 4-16.5l-1-4-3-3c-1.798 0-18.845 15-23 15h-1l1 2 2 3 5 3 4 3 5 4Z"/><path fill="#FF64FF" id="MB" d="m289 221-2 2c1.747 0 2-.253 2-2Z"/><path fill="#33B931" id="HATA" d="m338 251-4 1-3-5.5c-2.373-4.746-4-13.999-4-19.5l2-3 3-3c0 1.425 20.803 15 23 15v1l-2 4c-1.408 0-5 1.197-5 3-1.247 0-5 2.467-5 4-1.238 0-5 1.923-5 3Z"/><path fill="#C7C8CC" id="alv" d="m372 221-1 1 1-1Z"/><path fill="#C8CBCC" id="ec" d="m370 226-3 1v-1l1-1 1-1 1-1 1-1 1-1h1c0 2.364-3 3.053-3 5Z"/><path fill="#FF9B88" id="P" d="M163 260h1c0 3.815 12.024 11 15 11 .861 0 4.036 2.427 5 .5 1.161-2.322-6.878-10.756-8-13l-5-17 3-4.5c3.573 0 6.77-3 11-3h4l1 2c-1.71 0-7 .718-7 3l-5.5-1c-6.941 3.471 1.5 22.5 3.5 26.5 2.761 5.522 30.618 9.941 37.5 6.5 6.497-3.249 11.256-35.372 4-39l-7.5-1c0-3.267-5-5.364-5-7 1.046 0 1.122-1 4-1 0 3.355 4.681 8 8 8h5c0 1.919 2 2.488 2 0h5c3.418 0 8-4.49 8-8 1.004 0 4-2.31 4 1 0 1.604-5 4.282-5 7-16.402 0-12.126 35.187-2.5 40h9c11.309 0 23.79 1.921 29.5-9.5 1.394-2.787 7.348-21.076 2.5-23.5l-6.5 1c0-1.89-4.598-3-6-3v-2h4c4.076 0 7.661 3 11 3l3 3.5c1.494 2.987-2.68 14.36-4 17-1.096 2.191-9.95 12.1-9 14 .87 1.741 5.571-.5 7-.5 0 1.995-4.377 2-6 2-4.192 0-10.665 5.418-15.5 3-3.995-1.998-10.117.942-14-1-17.987-8.994-40.904 7.048-59-2-3.901-1.95-21.5-5.027-21.5-13Z"/><path fill="#FF64FF" id="MB" d="m269 223-1 1 1-1ZM287 223l-2 2c1.747 0 2-.253 2-2Z"/><path fill="#C7C8CC" id="alv" d="m370 223-1 1 1-1Z"/><path fill="#7DCD4B" id="HPF" d="m131 225-2 3-1-4 3 1Z"/><path fill="#FF64FF" id="MB" d="m268 224-1 1 1-1Z"/><path fill="#7DCD4B" id="HPF" d="m326 225 1 2 2-3-3 1Z"/><path fill="#C7C8CC" id="alv" d="m368 225-1 1 1-1Z"/><path fill="#32B623" id="ENTm6" d="m102 238 2 3c-4.275 0-23-8.984-23-13l6-2 6 5 1 1h1l1 1 2 2h1l3 3Z"/><path fill="#FF64FF" id="MB" d="m285 226-1 1 1-1Z"/><path fill="#F0F080" id="CB" d="M304 226c0 1.93 1.93 0 0 0Z"/><path fill="#32B623" id="ENTm6" d="m355 237-2 4c4.615 0 22-9.435 22-13-1.041 0-5-.986-5-2l-3 1c0 1.747-.253 2-2 2l-1 1-1 1-1 1-1 1h-1l-1 1-1 1h-1l-1 1-1 1Z"/><path fill="#F0F080" id="CB" d="M163 260h1l-9-19.5c-2.173-4.345 3-7.509 3-10.5-2.863 0-2.843-3-4.5-3l.5 6.5c-1.206 2.411-1.675 4.5-5 4.5 0 2.247 8 10.482 8 15 1.59 0 6 5.662 6 7Z"/><path fill="#FF64FF" id="MB" d="m284 227-1 1 1-1Z"/><path fill="#F0F080" id="CB" d="M303 227c0 1.93 1.93 0 0 0Z"/><path fill="#C7C8CC" id="alv" d="m366 227-1 1 1-1Z"/><path fill="#C8CBCC" id="ec" d="M365 228v1c1.747 0 2-.253 2-2h-1l-1 1Z"/><path fill="#30B724" id="ENTm5" d="m104 241 5 3c-2.128 0-5.608 1.054-7.5 2-4.372 2.186-20.822-7.144-22.5-10.5l-6-5.5v-1l8-1c0 4.016 18.725 13 23 13Z"/><path fill="#FF64FF" id="MB" d="m173 228 1 1-1-1ZM283 228l-1 1 1-1Z"/><path fill="#F0F080" id="CB" d="m298 254-3 3c0-6.02 3.52-9.54 6-14.5 2.381-4.762-3-11.226-3-12.5 0-2.151 1.409.545 2.5 0l2.5-1.5c1.098 2.195-2.64 9.5 4 9.5l-8 15-1 1Z"/><path fill="#30B724" id="ENTm5" d="M353 241c-1.408 0-5 1.197-5 3 2.128 0 5.608 1.054 7.5 2 5.141 2.571 15.995-6.997 20-9l8.5-7-9-2c0 3.565-17.385 13-22 13Z"/><path fill="#CCCCCA" id="mcp" d="m174 237-3 4.5 5 17c1.122 2.244 9.161 10.678 8 13-.964 1.927-4.139-.5-5-.5-2.976 0-15-7.185-15-11l-9-19.5c-2.173-4.345 3-7.509 3-10.5l3-1c0 3.565 11 10.615 11 7l2 1Z"/><path fill="#C9C9CB" id="ll" d="M161 229c2.181 0 11 4.571 11 7 0 3.615-11-3.435-11-7Z"/><path fill="#FFA6FE" id="IPN" d="M222 231h2l-1-2h-1v2Z"/><path fill="#C9C9CB" id="ll" d="m286 234-1 1c0 6.347 11-3.082 11-6-4.728 0-6.519 5-10 5Z"/><path fill="#CCCCCA" id="mcp" d="m281 270-2 1c-1.429 0-6.13 2.241-7 .5-.95-1.9 7.904-11.809 9-14 1.32-2.64 5.494-14.013 4-17l-3-3.5 3-2c0 6.347 11-3.082 11-6l2 1c0 1.274 5.381 7.738 3 12.5-2.48 4.96-6 8.48-6 14.5l-1 1-1 1v1l-1 1-1 1-1 1-1 1-1 1-1 1-1 1c-1.238 0-3 .423-3 2l-2 1Z"/><path fill="#C7C8CC" id="alv" d="M363 230h1v-1l-1 1Z"/><path fill="#C8CBCC" id="ec" d="m365 229-1 1v-1h1Z"/><path fill="#31B723" id="ENTm3" d="m109 244 4 3c0 3.826-11.485 4-14.5 4-9.662 0-21.643-6.643-28.5-13.5l-7-4.5h2l8-3 6 5.5c1.678 3.356 18.128 12.686 22.5 10.5 1.892-.946 5.372-2 7.5-2Z"/><path fill="#FFA6FE" id="IPN" d="M233 231h1v-1h-1v1Z"/><path fill="#C7C8CC" id="alv" d="M362 231h1v-1l-1 1Z"/><path fill="#C8CBCC" id="ec" d="m364 230-1 1v-1h1Z"/><path fill="#31B723" id="ENTm3" d="M348 244c-1.247 0-5 2.467-5 4 4.954 0 12.359 6.07 18.5 3l20-10 11.5-8h-2l-7-3-8.5 7c-4.005 2.003-14.859 11.571-20 9-1.892-.946-5.372-2-7.5-2Z"/><path fill="#7DCD4B" id="HPF" d="M94 231v1l-1-1h1Z"/><path fill="#C8CBCC" id="ec" d="M94 232h1l-1-1v1Z"/><path fill="#FF64FF" id="MB" d="m197 232 3 1-3-2v1Z"/><path fill="#FFB885" id="PG" d="M211 237c0 3.507-18.671 6.914-22.5 5l-5.5-3-5.5-1c-6.941 3.471 1.5 22.5 3.5 26.5 2.761 5.522 30.618 9.941 37.5 6.5 6.497-3.249 11.256-35.372 4-39l-7.5-1c0 5.08.534 6-4 6Z"/><path fill="#FFB885" id="PG" d="m246 238 4.5 3c2.934 1.467 22.5 1.895 22.5-2l6.5-1c4.848 2.424-1.106 20.713-2.5 23.5-5.71 11.421-18.191 9.5-29.5 9.5h-9c-9.626-4.813-13.902-40 2.5-40 0 4.314.139 7 5 7Z"/><path fill="#FF64FF" id="MB" d="M256 233h1l2-1v-1l-3 2Z"/><path fill="#C7C8CC" id="alv" d="M361 232h1v-1l-1 1Z"/><path fill="#C8CBCC" id="ec" d="m363 231-1 1v-1h1Z"/><path fill="#C7C8CC" id="alv" d="M98 235h1c0-1.712-2.571-3-4-3l1 1 2 2Z"/><path fill="#C8C7CC" id="cst" d="m201 234 2 4.5c0 3.392-13 .737-13-2.5l-1-2c1.996 0 4.985-2 8-2l3 1 1 1ZM267 234v2c-1.382 0-10.765 7.971-13 3.5l2-5.5 1-1 2-1c1.949 0 8-.991 8 2Z"/><path fill="#C7C8CC" id="alv" d="M360 233h1v-1l-1 1Z"/><path fill="#C8CBCC" id="ec" d="m362 232-1 1v-1h1Z"/><path fill="#30B824" id="ENTm2" d="m92 256 8.5-3c4.2-2.1 8.969 3 12.5 3l5-5-5-4c0 3.826-11.485 4-14.5 4-9.662 0-21.643-6.643-28.5-13.5l-7-4.5c-2.522 0-4.909 2-8 2h-1l6 4.5c6.992 6.992 15.355 9.427 23.5 13.5 1.479.739 8.5.967 8.5 3Z"/><path fill="#C8CBCC" id="ec" d="m96 233 2 2-2-2Z"/><path fill="#FF9B88" id="P" d="m203 233-2 1-1-1h3Z"/><path fill="#FEBA85" id="TRN" d="M211 237c0 3.507-18.671 6.914-22.5 5l-5.5-3c0-2.282 5.29-3 7-3 0 3.237 13 5.892 13 2.5l-2-4.5 2-1 8 4ZM246 238l4.5 3c2.934 1.467 22.5 1.895 22.5-2 0-1.89-4.598-3-6-3-1.382 0-10.765 7.971-13 3.5l2-5.5c-1.048 0-3 .473-3-1-1.014 0-7 3.903-7 5Z"/><path fill="#FF9B88" id="P" d="m257 233-1 1c-1.048 0-3 .473-3-1h4Z"/><path fill="#C7C8CC" id="alv" d="M358 234h1v-1l-1 1Z"/><path fill="#C8CBCC" id="ec" d="m360 233-1 1v-1h1Z"/><path fill="#30B824" id="ENTm2" d="M344 256c3.406 0 8.261-5.12 12.5-3 2.333 1.167 4.728 3 7.5 3 3.419 0 22.51-9.005 26.5-11l4-4 7.5-6c-3.638 0-5.929-2-9-2l-11.5 8-20 10c-6.141 3.07-13.546-3-18.5-3-1.238 0-5 1.923-5 3l6 5Z"/><path fill="#CCCCCA" id="mcp" d="m286 234-1 1 1-1Z"/><path fill="#C7C8CC" id="alv" d="M357 235h1v-1l-1 1Z"/><path fill="#C8CBCC" id="ec" d="m359 234-1 1v-1h1Z"/><path fill="#31B625" id="ENTm1" d="m92 256-3 3c-11.637 0-20.72-9.11-30.5-14-1.992-.996-10.5-6.248-10.5-9 2.124 0 4.436-1 6-1l6 4.5c6.992 6.992 15.355 9.427 23.5 13.5 1.479.739 8.5.967 8.5 3Z"/><path fill="#7DCD4B" id="HPF" d="m101 236 1 2-3-3h1l1 1Z"/><path fill="#C7C8CC" id="alv" d="M101 236h1l-2-1 1 1ZM355 236h1v-1l-1 1Z"/><path fill="#C8CBCC" id="ec" d="m357 235-1 1v-1h1Z"/><path fill="#31B625" id="ENTm1" d="m364 256 3 3c10.512 0 25.53-8.03 33-15.5l8-7.5c-2.124 0-4.436-1-6-1l-7.5 6-4 4c-3.99 1.995-23.081 11-26.5 11Z"/><path fill="#7DCD4B" id="HPF" d="m356 236-1 1v-1h1Z"/><path fill="#CCCBCA" id="moV" d="M149 238c-5.259 0 .314 15 8 15 0-4.518-8-12.753-8-15ZM307 238c5.776 0-.949 14.224-2.5 15H299l8-15Z"/><path fill="#31B625" id="ENTm1" d="m118 256-3 1-2-1 5-5 4 1c0 1.621-2.379 4-4 4ZM344 256l-3 1-2-1h-1l-1-1-3-3 4-1 6 5Z"/><path fill="#60E6B5" id="COApm" d="m115 258-5.5 4c-3.929 1.964-8.581 5.21-13 3l-7.5-6 3-3 8.5-3c4.2-2.1 8.969 3 12.5 3l2 1v1Z"/><path fill="#FF9B88" id="P" d="m299 253-1 1 1-1Z"/><path fill="#60E6B5" id="COApm" d="M341 258c0 2.062 13.216 9.142 15.5 8 3.447-1.723 5.033-2.033 8-5l2.5-2-3-3c-2.772 0-5.167-1.833-7.5-3-4.239-2.12-9.094 3-12.5 3l-3 1v1Z"/><path fill="#97EC93" id="PA" d="m337 255 1 1-1-1ZM115 257v1c1.238 0 3-.423 3-2l-3 1ZM341 257v1l-2-2 2 1Z"/><path fill="#F0F080" id="CB" d="M294 258h1v-1l-1 1ZM293 259h1v-1l-1 1Z"/><path fill="#FF9B88" id="P" d="m295 258-1 1v-1h1ZM294 259l-1 1v-1h1ZM293 260l-1 1 1-1ZM292 261l-1 1 1-1ZM291 262l-1 1 1-1ZM290 263l-1 1 1-1ZM289 264l-1 1 1-1ZM288 265l-1 1 1-1ZM287 266l-1 1 1-1ZM286 267c-1.238 0-3 .423-3 2 1.238 0 3-.423 3-2ZM283 269l-2 1 2-1ZM281 270l-2 1 2-1Z"/></svg>