<svg xmlns="http://www.w3.org/2000/svg" viewBox="0 0 456 320"><path fill="#FDFB90" id="FOTU" d="m182 127 17.5-6c5.405-2.703 23.67-2 31-2h14c5.903 2.952 14.128 1.064 20 4 2.806 1.403 7.305 4 10.5 4l6-12c0-8.179-10.31-14.905-16.5-18-16.871-8.436-55.137-8.432-72 0-6.436 3.218-17.5 9.877-17.5 18l6 12h1Z"/><path fill="#FFFB8E" id="PRM" d="M148 165h1c0-1.797 2.203-4 4-4l28-34-6-12c-2.848 0-5.498-3.501-8.5-2-14.11 7.055-28.287 18.073-35.5 32.5v5c.605 1.21 2.994.988 4 3 1.986 3.972-1.956 9.772 3.5 12.5.991.495 8.5 2.399 8.5 0l1-1ZM303 160l6 6c19.333 0 8.298-4.095 13-13.5 1.559-3.118 6.453-1.094 3-8-7.007-14.013-22.336-24.918-35.5-31.5l-8.5 2-6 12v1l6 5.5 22 26.5Z"/><path fill="#FBFC91" id="PYR" d="m188 165 7.5-4c3.485-1.743 38.059-4.97 42-3 4.53 2.265 11.582-1.209 16 1 1.711.855 14.507 6 15.5 6 0-8.682-.667-21.165 3-28.5.768-1.537.692-8.5 3-8.5v-1c-3.195 0-7.694-2.597-10.5-4-5.872-2.936-14.097-1.048-20-4h-14c-7.33 0-25.595-.703-31 2l-17.5 6 3 9.5c1.409 2.817 3 24.359 3 28.5Z"/><path fill="#FFF990" id="COPY" d="m149 169-1 8.5c2.066 4.133 10.097 11.701 16.5 8.5l7.5-5c0-2.169 13.448-16 16-16 0-4.141-1.591-25.683-3-28.5l-3-9.5h-1l-28 34-4 8ZM307 168l1 10.5c-1.916 3.831-10.058 10.221-15.5 7.5-2.281-1.14-5.966-5-8.5-5 0-6.133-15-13.085-15-16 0-8.682-.667-21.165 3-28.5.768-1.537.692-8.5 3-8.5l6 5.5 22 26.5 4 8Z"/><path fill="#FFFA8F" id="UVU" fill-rule="evenodd" d="M182 176c0 4.959 12.933 4 17 4h55.5c4.981 0 10.661-1 15-1 1.163 0 5.5.549 5.5-1.5s-4.337-1.5-5.5-1.5l-17.5 1c-23.31 0-46.172-1-70-1m61 25h4c0-2.185 8.871-1.185 10.5-2 9.841-4.921 26.5-2.816 26.5-18 0-6.133-15-13.085-15-16-.993 0-13.789-5.145-15.5-6-4.418-2.209-11.47 1.265-16-1-3.941-1.97-38.515 1.257-42 3l-7.5 4c-2.552 0-16 13.831-16 16 0 14.685 16.831 13.165 26.5 18 1.763.881 10.5-.652 10.5 2h4l17.5 2c3.319-1.66 8.598-2 12.5-2Z"/><path fill="#F0F080" id="CB" d="M309 166c-2.109 0-2-1.162-2 2l-4-8 6 6ZM149 165v4l4-8c-1.797 0-4 2.203-4 4ZM148 165l-1 1 1-1Z"/><path fill="#CBC9CC" id="arb" d="M182 176c0 4.959 12.933 4 17 4h55.5c4.981 0 10.661-1 15-1 1.163 0 5.5.549 5.5-1.5s-4.337-1.5-5.5-1.5l-17.5 1c-23.31 0-46.172-1-70-1Z"/><path fill="#FF9BCD" id="MY" fill-rule="evenodd" d="M163 202c0 2.091 3.746 0 0 0m7-3-5 2.5 3.5.5c4.375 0 13.611-3 5-3H170m-23 21 2-.5-1 3-1 12.5c1.059 0 2-6.743 2-8 0-4.84 4.559-16.03 8.5-18 6.329-3.165 16.319-8.84 24-5l9.5 10c0-.922-1.681-3 1-3l-7-7.5c2.508-5.015 16 .797 16 8.5 3.207 0 .688-2.094 2.5-3 2.161-1.081 4.894 1 6.5 1l-3-3.5 1-4.5c-7.527 0-34.337-7.581-39.5-5-4.871 2.435-9.741 7.87-14 10-3.245 1.623-7.5 8.878-7.5 13ZM310 234c0 7.389 2.111 0 0 0m-29-35-3 1.5 9.5 1.5 5.5.5-3.5-1.5-3.5-2h-5m30 26c3.476 0 1.052 7.603 2 9.5 3.968 7.936 1.607 18.786-2 26-.767 1.535-1.845 8.5-4 8.5 0-3.404 1.488-9.477 3-12.5 3.901-7.803-4.659-44.079-11.5-47.5-4.598-2.299-9.488-3.744-14-6-9.304-4.652-15.028 10-18.5 10l-1-2 6-5.5c1.778-3.556-5.498-4.501-7.5-3.5-1.914.957-8.675 8-9.5 8-1.564 0-3.876-1-6-1 0-2.69 1-4.598 1-7 23.675 0 43.767-15.965 58 12.5 1.631 3.262 4 5.54 4 9.5l-2.5-5c-.863 0 .014 10.527.5 11.5.421.841 3.902.804 3-1-.859-1.718-1-2.387-1-4.5Z"/><path fill="#C8CACA" id="sptV" d="m170 199-5 2.5 3.5.5c4.375 0 13.611-3 5-3H170ZM281 199l-3 1.5 9.5 1.5 5.5.5-3.5-1.5-3.5-2h-5Z"/><path fill="#FF9BCD" id="MY" d="M209 202h4v-1h-4v1ZM243 202h4v-1h-4v1Z"/><path fill="#C8CACA" id="sptV" d="M163 202c0 2.091 3.746 0 0 0Z"/><path fill="#CAC9CC" id="cuf" d="M192 211c1.593 0 9 3.176 9 1 0-7.703-13.492-13.515-16-8.5l7 7.5Z"/><path fill="#FEA3D0" id="GR" d="m218 217 7 1c0-1.714 2-3.482 2-6 0-3.023-3.778-8-7-8l-1-1h-2c-1.048 0-3 .473-3-1h-6l-1 4.5 3 3.5c2.101 0 5 2.831 5 5 1.238 0 3 .423 3 2Z"/><path fill="#FF9BCD" id="MY" d="M214 202c1.048 0 3-.473 3 1-1.048 0-3 .473-3-1ZM243 202c-1.145 0-4-.579-4 1 1.145 0 4 .579 4-1Z"/><path fill="#FEA3D0" id="GR" d="m238 217-7 1-2-4 1-5 1-1c0-2.449 6.154-5 8-5 1.145 0 4 .579 4-1h6c0 2.402-1 4.31-1 7-1.6 0-7 4.129-7 6-1.238 0-3 .423-3 2Z"/><path fill="#CAC9CC" id="cuf" d="M265 211c-3.606 0-6.972 1-10 1l-1-1v-1c.825 0 7.586-7.043 9.5-8 2.002-1.001 9.278-.056 7.5 3.5l-6 5.5Z"/><path fill="#FDA4D0" id="SPVC" d="m151 272 6.5 5 5.5-1c0-1.596 6.773-8.046 8-10.5 2.398-4.795 1.626-11.251 4-16 3.165-6.331 5.851-12.702 9-19 1.134-2.268 6.064-9.5 8-9.5v-4l-1-3-9.5-10c-7.681-3.84-17.671 1.835-24 5-3.941 1.97-8.5 13.16-8.5 18 0 1.257-.941 8-2 8 0 6.553-2.494 21.511 0 26.5l4 9.5v1Z"/><path fill="#FF9BCD" id="MY" d="m219 203 1 1-1-1Z"/><path fill="#FDA4D0" id="SPVC" d="m303 275-4.5 2-5.5-1c0-2.4-6.772-9.045-8-11.5-4.738-9.475-5.226-21.452-10-31L265 221l-1-4 2-4c3.472 0 9.196-14.652 18.5-10 4.512 2.256 9.402 3.701 14 6 6.841 3.421 15.401 39.697 11.5 47.5-1.512 3.023-3 9.096-3 12.5-1.577 0-2 1.762-2 3v1c-1.747 0-2 .253-2 2Z"/><path fill="#FF9BCD" id="MY" d="m231 208-1 1 1-1Z"/><path fill="#FDA5D0" id="CU" d="M215 223c-1.272 0-3.157 3-9 3l-7-3-1-1h-1l-5-5-1-3c0-.922-1.681-3 1-3 1.593 0 9 3.176 9 1 3.207 0 .688-2.094 2.5-3 2.161-1.081 4.894 1 6.5 1 2.101 0 5 2.831 5 5l1 2-1 6Z"/><path fill="#FDA5D0" id="CU" fill-rule="evenodd" d="M253 212c0 1.93 1.93 0 0 0m-12 11c2.311 0 5.087 3 9 3 3.47 0 6.007-4 9-4l5-5 2-4-1-2c-3.606 0-6.972 1-10 1l-1-1v-1c-1.564 0-3.876-1-6-1-1.6 0-7 4.129-7 6 0 1.048.473 3-1 3l1 5Z"/><path fill="#FF9BCD" id="MY" d="m254 211 1 1-1-1ZM225 218c0 3.215 6 3.215 6 0l-2-4-2-2c0 2.518-2 4.286-2 6ZM253 212c0 1.93 1.93 0 0 0ZM216 217h2c0-1.577-1.762-2-3-2l1 2ZM238 217l2 1c1.473 0 1-1.952 1-3-1.238 0-3 .423-3 2ZM192 221l5 1-5-5v4Z"/><path fill="#FDA5D1" id="NTS" d="M229 225h9c1.238 0 3-.423 3-2l-1-5-2-1-7 1c0 3.215-6 3.215-6 0l-7-1h-2l-1 6c0 2.109 2.535 2 4 2h10Z"/><path fill="#FF9BCD" id="MY" d="m265 221-6 1 5-5 1 4Z"/><path fill="#C8CACA" id="sptV" d="M145 226c0 1.517.726 9 2 9l1-12.5 1-3-2 .5c0 1.424-.362 5-2 5v1ZM311 224l-2.5-5c-.863 0 .014 10.527.5 11.5.421.841 3.902.804 3-1-.859-1.718-1-2.387-1-4.5v-1Z"/><path fill="#FF9BCD" id="MY" d="M147 220c-1.638 0-2 3.576-2 5 1.638 0 2-3.576 2-5Z"/><path fill="#FDB1D7" id="MDRNd" d="M165 279h9l4-4c0-4.542 15.598-27.549 20.5-30 2.796-1.398 12.5-8.94 12.5-12 0-3.079-5-5.353-5-7l-7-3-1-1h-1l-5-1c-1.936 0-6.866 7.232-8 9.5-3.149 6.298-5.835 12.669-9 19-2.374 4.749-1.602 11.205-4 16-1.227 2.454-8 8.904-8 10.5l2 3ZM283 279h8c0-1.481 2-.785 2-3 0-2.4-6.772-9.045-8-11.5-4.738-9.475-5.226-21.452-10-31L265 221l-6 1c-2.993 0-5.53 4-9 4 0 2.751-5 4.565-5 8l6.5 6c7.927 3.964 26.5 27.02 26.5 35l5 4Z"/><path fill="#FF9BCD" id="MY" d="m198 222 1 1-1-1Z"/><path fill="#FF9BCD" id="MY" fill-rule="evenodd" d="M286 288c0 4.123 4.123 0 0 0m-117 0c0 3.746 2.091 0 0 0m57-22c0 2.097-1 5.293-1 8l1 4.5-1 5c5.089 10.177 12.212-17.5 1-17.5m-60 23 4.5 4 14-1c5.679 2.84 16.341 1 23 1H261c5.223 0 29 .495 29-4l-1-2c-6.343 0-6-2.253-6-8l-5-4c0 4.045-5.781 1-7 1 0 4.997-12.735 2.618-15.5 4-13.185 6.593-14.997-14.494-18.5-21.5l-6-9c0-2.496 7.595-9.5 10-9.5 0-1.984 1.444-6 4-6 0-3.435 5-5.249 5-8-3.913 0-6.689-3-9-3 0 1.577-1.762 2-3 2 0 4.57.33 5.17-3 8.5-.862.862-5.006 2.987-6 1V225h-2c0 3.306 1.65 6.201 0 9.5-.968 1.936-7.502-1.005-8-2-1.48-2.96 0-4.893 0-7.5-1.465 0-4 .109-4-2-1.272 0-3.157 3-9 3 0 1.647 5 3.921 5 7 1.874 0 5 5.55 5 7l4 3.5 5 5c.867 1.733-1.372 3.744-2 5l-8 16c-1.219 2.438-.503 8.001-3.5 9.5-5.065 2.533-16.545 2.727-22 0l-4.5-3c-1.219 0-7 3.045-7-1l-4 4c0 6.424-.455 8-7 8l-1 2Z"/><path fill="#FDB1D8" id="DMX" d="M219 225h8c0 3.306 1.65 6.201 0 9.5-.968 1.936-7.502-1.005-8-2-1.48-2.96 0-4.893 0-7.5ZM229 225h9c0 4.57.33 5.17-3 8.5-.862.862-5.006 2.987-6 1V225Z"/><path fill="#FF9BCD" id="MY" fill-rule="evenodd" d="M145 236c0 9.211 2.105 0 0 0m2-1c0 6.553-2.494 21.511 0 26.5l4 9.5c-2.47 0-3.265-5.03-4-6.5-4.721-9.441-4-16.029-4-26.5 0-2.083.142-12 2-12 0 1.517.726 9 2 9Z"/><path fill="#FFB2D8" id="IRN" d="M178 275c0 4.045 5.781 1 7 1 0-7.963 23.252-36 31-36 0-1.45-3.126-7-5-7 0 3.06-9.704 10.602-12.5 12-4.902 2.451-20.5 25.458-20.5 30ZM278 275c0 4.045-5.781 1-7 1 0-5.587-11.974-24.237-17.5-27l-12.5-9c0-1.984 1.444-6 4-6l6.5 6c7.927 3.964 26.5 27.02 26.5 35Z"/><path fill="#C8CACA" id="sptV" d="M310 234c0 7.389 2.111 0 0 0ZM145 236c0 9.211 2.105 0 0 0Z"/><path fill="#FFB1D6" id="MDRNv" d="m216 240 4 3.5 5 5c.867 1.733-1.372 3.744-2 5l-8 16c-1.219 2.438-.503 8.001-3.5 9.5-5.065 2.533-16.545 2.727-22 0l-4.5-3c0-7.963 23.252-36 31-36ZM241 240c-2.405 0-10 7.004-10 9.5l6 9c3.503 7.006 5.315 28.093 18.5 21.5 2.765-1.382 15.5.997 15.5-4 0-5.587-11.974-24.237-17.5-27l-12.5-9Z"/><path fill="#C9C7CC" id="pyd" d="M226 266c0 2.097-1 5.293-1 8l1 4.5-1 5c5.089 10.177 12.212-17.5 1-17.5Z"/><path fill="#FF9BCD" id="MY" d="M307 269c-1.577 0-2 1.762-2 3 1.577 0 2-1.762 2-3ZM158 281c0-4.767 5.573 2 6 2 0-1.145-.579-4 1-4l-2-3-5.5 1-6.5-5 7 9ZM305 273c-1.747 0-2 .253-2 2l2-2ZM298 281c0-5.372-4.298 2-6 2 0-1.145.579-4-1-4 0-1.481 2-.785 2-3l5.5 1 4.5-2-5 6Z"/><path fill="#C9CACA" id="sctd" d="m167 287-1 2-5-5-2-2-1-1c0-4.767 5.573 2 6 2l2 2 1 1v1Z"/><path fill="#C8C8CB" id="rust" d="M167 286v1c6.545 0 7-1.576 7-8h-9c-1.579 0-1 2.855-1 4l2 2 1 1ZM290 286l-1 1c-6.343 0-6-2.253-6-8h8c1.579 0 1 2.855 1 4l-2 3Z"/><path fill="#C9CACA" id="sctd" d="m289 287 1 2 5-5 1-1 1-1 1-1c0-5.372-4.298 2-6 2l-2 3-1 1Z"/><path fill="#FF9BCD" id="MY" d="m298 281-1 1 1-1ZM159 282l2 2-2-2ZM296 283l-1 1 1-1ZM166 285l1 1-1-1ZM290 286l-1 1 1-1Z"/><path fill="#CBC7CC" id="sctv" d="M169 288c0 3.746 2.091 0 0 0ZM286 288c0 4.123 4.123 0 0 0Z"/></svg>