<svg xmlns="http://www.w3.org/2000/svg" viewBox="0 0 456 320"><path fill="#1BA696" id="RSPagl1" d="m191 16-16 1v-4h16v3ZM265 16l16 1 1-4h-17v3Z"/><path fill="#0A8589" id="VISpm1" d="m175 17-14 2-1-4c4.537 0 9.554-2 15-2v4Z"/><path fill="#1BA598" id="RSPd1" d="m215 30-4 1c0-10.885-10.277-15-20-15v-3c11.161 0 24 3.881 24 17ZM241 29l4 2c0-10.421 10.943-15 20-15v-3c-10.109 0-24 3.96-24 16Z"/><path fill="#0A8589" id="VISpm1" d="m281 17 14 2 1-4c-4.299 0-8.849-2-14-2l-1 4Z"/><path fill="#098589" id="VISp1" d="m83 50 2 4 18.5-13c14.411-7.206 41.234-22 57.5-22l-1-4c-19.343 0-44.786 15.643-61.5 24C95.463 40.519 83 46.874 83 50ZM373 50c0 1.238-.423 3-2 3-5.128 0-11.921-8.71-16.5-11-16.187-8.093-40.775-23-59.5-23l1-4c20.129 0 43.318 14.409 60.5 23 2.294 1.147 16.5 9.558 16.5 12Z"/><path fill="#1AA496" id="RSPagl2/3" d="M174 24h1l15-3h1v-5l-16 1-1 7Z"/><path fill="#1BA697" id="RSPd2/3" d="M211 31c-1.974 0-3.517 2-6 2 0-7.246-7.382-12-14-12v-5c9.723 0 20 4.115 20 15ZM245 31c1.974 0 3.517 2 6 2 0-6.877 7.581-12 14-12v-5c-9.057 0-20 4.579-20 15Z"/><path fill="#1AA496" id="RSPagl2/3" d="M282 24v1c-4.692 0-10.576-4-16-4h-1v-5l16 1c0 2.538 1 3.953 1 7Z"/><path fill="#08858B" id="VISpm2/3" d="M174 24c-4.06 0-7.303 3-11 3 0-3.091-2-5.478-2-8l14-2-1 7ZM282 24c4.06 0 7.303 3 11 3l2-8-14-2c0 2.538 1 3.953 1 7Z"/><path fill="#0A828C" id="VISp2/3" d="M90 61h1c0-1.927 14.373-8.936 16.5-10 11.007-5.503 44.701-24 55.5-24 0-3.091-2-5.478-2-8-16.266 0-43.089 14.794-57.5 22L85 54v1c1.777 0 5 4.013 5 6ZM366 61h1c0-2.244 1.725-6 4-6v-2c-5.128 0-11.921-8.71-16.5-11-16.187-8.093-40.775-23-59.5-23l-2 8c11.137 0 45.256 18.378 56.5 24 2.014 1.007 16.5 9.046 16.5 10Z"/><path fill="#1CA697" id="RSPagl5" d="M183 33h1c0-2.112 6-7.792 6-12l-15 3-1 2-2 9 11-2Z"/><path fill="#1AA596" id="RSPd5" d="m205 34-18 4c0-2.904 2.055-5-3-5 0-2.112 6-7.792 6-12h1c6.618 0 14 4.754 14 12v1ZM252 34c6.439 0 10.657 4 17 4 0-3.256-.714-5 3-5 0-3.976-6-7.507-6-12h-1c-6.419 0-14 5.123-14 12l1 1Z"/><path fill="#1CA697" id="RSPagl5" d="m273 33 12 2-3-10c-4.692 0-10.576-4-16-4 0 4.493 6 8.024 6 12h1Z"/><path fill="#09828B" id="VISpm4" d="M163 29h1c3.541 0 6.145-3 10-3l1-2h-1c-4.06 0-7.303 3-11 3v2ZM293 27v2l-11-4v-1c4.06 0 7.303 3 11 3Z"/><path fill="#088489" id="VISpm5" d="m286 36 5 2c0-1.552.566-8 2-8v-1l-11-4 3 10 1 1ZM171 36l-6 2c0-3.222-1-6.277-1-9 3.541 0 6.145-3 10-3l-2 9-1 1Z"/><path fill="#0B848B" id="VISp4" d="M93 66h1l14.5-9c13.021-6.51 25.917-13.458 39-20l15.5-8v-2c-10.799 0-44.493 18.497-55.5 24-2.127 1.064-16.5 8.073-16.5 10l2 5ZM366 61l-3 5-13.5-8-38-19c-5.237-2.618-12.482-9-18.5-9v-3c11.137 0 45.256 18.378 56.5 24 2.014 1.007 16.5 9.046 16.5 10Z"/><path fill="#088389" id="VISp5" d="M94 66c0 1.347 3.438 8 5 8l13.5-8 36-19c4.661-2.33 11.153-8 16.5-8v-1c0-3.222-1-6.277-1-9h-1l-15.5 8c-13.083 6.542-25.979 13.49-39 20L94 66Z"/><path fill="#1BA597" id="RSPv1" d="m291 67-2 2c-4.16 0-10.987-9.744-15.5-12-12.959-6.48-32.5-10.088-32.5-28l4 2c0 3.02.774 5.049 2 7.5 1.088 2.177 6.551 3.526 8.5 4.5 8.331 4.166 15.607 9.804 24 14 2.336 1.168 11.5 6.528 11.5 10ZM165 67l3 2 11.5-10c10.362-5.181 20.768-9.884 31-15 2.515-1.258 6.933-14 4.5-14l-4 1c0 9.954-23.822 20.661-32.5 25-2.655 1.327-13.5 6.889-13.5 11Z"/><path fill="#088389" id="VISp5" d="M357 75h1c0-1.738 3.015-8 5-8v-1l-13.5-8-38-19c-5.237-2.618-12.482-9-18.5-9-1.434 0-2 6.448-2 8v1c4.428 0 8.715 4.108 12.5 6 12.703 6.351 25.226 13.613 38 20 1.911.955 15.5 8.831 15.5 10Z"/><path fill="#1AA597" id="RSPv2/3" d="m163 65 2 2c0-4.111 10.845-9.673 13.5-11 8.678-4.339 32.5-15.046 32.5-25-1.974 0-3.517 2-6 2v1c0 3.008-5.218 5.859-7.5 7-9.23 4.615-19.851 9.851-27.5 17.5-1.877 1.877-7 3.657-7 6.5ZM294 65l-3 2c0-3.472-9.164-8.832-11.5-10-8.393-4.196-15.669-9.834-24-14-1.949-.974-7.412-2.323-8.5-4.5-1.226-2.451-2-4.48-2-7.5 1.974 0 3.517 2 6 2l1 1c0 2.09 3.494 5.997 5.5 7 9.327 4.663 17.914 11.457 27 16 1.792.896 9.5 5.568 9.5 8Z"/><path fill="#1CA597" id="RSPagl6a" d="M163 48h1c0-4.734 19-12.16 19-15l-11 2-1 1-6 7-1 2-1 3Z"/><path fill="#1AA697" id="RSPd6a" d="m164 48 1 1 20-10 2-1c0-2.904 2.055-5-3-5h-1c0 2.84-19 10.266-19 15ZM291 49h2v-1c0-3.95-20-12.582-20-15h-1c-3.714 0-3 1.744-3 5l2 1c5.386 0 15.534 10 20 10Z"/><path fill="#1CA597" id="RSPagl6a" d="M293 48h1l-2-4c-1.803 0-6-6.495-6-8l-1-1-12-2c0 2.418 20 11.05 20 15Z"/><path fill="#1BA498" id="RSPv5" d="m159 62 4 3c0-2.843 5.123-4.623 7-6.5 7.649-7.649 18.27-12.885 27.5-17.5 2.282-1.141 7.5-3.992 7.5-7l-18 4-2 1c0 4.474-26 18.036-26 23ZM298 61l-4 4c0-2.432-7.708-7.104-9.5-8-9.086-4.543-17.673-11.337-27-16-2.006-1.003-5.5-4.91-5.5-7 6.439 0 10.657 4 17 4l2 1 6 5.5c2.186 2.186 19.559 16.5 21 16.5Z"/><path fill="#1CA697" id="RSPagl5" d="m172 35-1 1 1-1Z"/><path fill="#09858B" id="VISpm6a" d="M165 39v4l6-7-6 2v1ZM291 39l1 5c-1.803 0-6-6.495-6-8l5 2v1Z"/><path fill="#08858C" id="VISp6a" d="M102 81h1l8-4c0-2.673 11.657-8 14-8 0-1.948 5.428-4 7-4 0-1.577 1.762-2 3-2 0-2.162 11.844-8 14-8 0-1.948 5.428-4 7-4 0-1.89 4.598-3 6-3h1l1-3 1-2v-4c-5.347 0-11.839 5.67-16.5 8l-36 19L99 74v1l3 6Z"/><path fill="#1AA498" id="RSPv6a" d="m157 61 2 1c0-4.964 26-18.526 26-23l-20 10v1l-1 1c0 1.238-.423 3-2 3 0 3.154-5 4.304-5 7ZM298 61h1c0-2.33-4-3.227-4-6-2.109 0-2-2.535-2-4l-2-1v-1c-4.466 0-14.614-10-20-10l6 5.5c2.186 2.186 19.559 16.5 21 16.5Z"/><path fill="#08858C" id="VISp6a" d="M353 81h1l3-6c0-1.169-13.589-9.045-15.5-10-12.774-6.387-25.297-13.649-38-20-3.785-1.892-8.072-6-12.5-6l1 5 2 4h1c5.166 0 10.065 5.783 14.5 8 11.796 5.898 23.234 13.117 35 19l8.5 6Z"/><path fill="#09858B" id="VISpm6a" d="m165 43-1 2 1-2Z"/><path fill="#FF7AFD" id="SCzo" d="M295 82v1l-2-1c0-6.434-12.229-16.365-17.5-19-17.389-8.695-45.5-29.173-45.5 8 0 1.473-1.952 1-3 1 0-2.998-1-7.358-1-11 0-3.025-1.817-5.317-4-7.5-11.099-11.1-29.978 3.24-40.5 8.5-2.949 1.475-4.996 6-8.5 6 0-2.797 7.584-7.042 9.5-8 6.251-3.125 26.544-16.728 34-13l8.5 6.5 3.5 7.5.5-4.5 6.5-6.5c9.698-4.849 17.897-1.552 27 3 7.863 3.931 14.239 10.62 21 14l7.5 8 3 5 1 2Z"/><path fill="#08858A" id="VISp6b" d="m161 50-5 1c0-1.89 4.598-3 6-3v1l-1 1Z"/><path fill="#1AA598" id="RSPagl6b" d="m163 48-1 1v-1h1Z"/><path fill="#1BA698" id="RSPd6b" d="m165 50-1 1-2-2 1-1h1l1 1v1Z"/><path fill="#1AA598" id="RSPagl6b" d="M294 50h1v-2h-2v1l1 1Z"/><path fill="#08858A" id="VISp6b" d="M353 81v1c-8.033 0-36.857-25-45-25 0-2.713-10.684-7-13-7v-2c5.166 0 10.065 5.783 14.5 8 11.796 5.898 23.234 13.117 35 19l8.5 6Z"/><path fill="#CACCC7" id="cing" d="M162 52v2c1.577 0 2-1.762 2-3l-2-2-1 1 1 2Z"/><path fill="#FF78FF" id="SCsg" d="m165 77-1 5 10.5-7c11.566-5.783 24.491-9.246 36-15 8.838-4.42 14.237 12 16.5 12 0-2.998-1-7.358-1-11 0-3.025-1.817-5.317-4-7.5-11.099-11.1-29.978 3.24-40.5 8.5-2.949 1.475-4.996 6-8.5 6l-5 5c0 1.429-1.288 4-3 4ZM230 71c2.249 0 7.061-15.22 15.5-11 2.458 1.23 5.587.794 8 2l26 12 13.5 8c0-6.434-12.229-16.365-17.5-19-17.389-8.695-45.5-29.173-45.5 8Z"/><path fill="#1BA698" id="RSPd6b" d="M293 50h1l-1-1h-2v1h2Z"/><path fill="#09848A" id="VISl1" d="M67 71h1c0-1.314 15.214-16 17-16v-1l-2-4c-1.495 0-18 16.354-18 18l2 3Z"/><path fill="#C9C9CA" id="scwm" d="M148 57h3c3.418 0 7.212-5 11-5l-1-2-5 1c0 1.948-5.428 4-7 4l-1 2Z"/><path fill="#1AA497" id="RSPv6b" d="m165 50-1 1 1-1ZM293 50v1l-2-1h2Z"/><path fill="#CACCC7" id="cing" d="M295 52c-2.373 0 0 2.284 0 3-2.109 0-2-2.535-2-4v-1h2v2Z"/><path fill="#C9C9CA" id="scwm" d="M306 57h2c0-2.713-10.684-7-13-7v2l11 5Z"/><path fill="#09848A" id="VISl1" d="m392 68-3 2c-3.69 0-12.577-15-18-15v-2c1.577 0 2-1.762 2-3 1.631 0 19 16.545 19 18Z"/><path fill="#08858A" id="VISp6b" d="M156 51c-1.572 0-7 2.052-7 4 1.572 0 7-2.052 7-4Z"/><path fill="#C8C9CA" id="fp" d="M68 124h1l2-1 1-2 1-1v-1l1-1 1-1 1-2 1-1 1-1c0-1.429 1.288-4 3-4l2-2 1-1 1-1 2-2 2-1 1-1 1-1 1-1 1-1 2-1 1-1 1-1 2-1 1-1c0-1.577 1.762-2 3-2l2-1 2-1c0-1.751 11.09-6 13-6l1-3.5 5.5-2.5c3.181-1.59 17.255-14.373 20-13 1.969.985 1.5 3.188 1.5 5h1l8-8c0-2.696 5-3.846 5-7v-2c-3.788 0-7.582 5-11 5 0 3.36-10.264 6.882-12.5 8-12.872 6.436-24.23 15.615-37 22-7.732 3.866-14.074 12.074-20 18-1.895 1.895-8.5 9.825-8.5 9l-1 1c2.98 0-3 7.523-3 5l-1 1c2.373 0 0 2.284 0 3ZM388 124l-1 1c0-1.83-5.673-11-8-11v-1c0-3.497-6.655-5.811-8-8.5-2.747-5.494-27.768-21.5-34-21.5 0-3.282-18.002-14.25-21.5-16-1.272-.636-4.379-3.81-6-3-3.027 1.514-.5 3.28-.5 5h-1c-3.165 0-5.138-8-9-8 0-2.33-4-3.227-4-6 0-.716-2.373-3 0-3l11 5c0 2.444 18.162 12.331 21.5 14 11.839 5.92 43.246 23.992 49.5 36.5 2.634 5.267 11 10.383 11 16.5Z"/><path fill="#0A8489" id="VISl2/3" d="M72 77h1c0-2.781 9.225-10.363 12.5-12l4.5-4c0-1.987-3.223-6-5-6-1.786 0-17 14.686-17 16 0 3.103 4 2.75 4 6Z"/><path fill="#08858A" id="VISp6b" d="M148 57c-4.706 0-7.981 6-13 6 0-2.162 11.844-8 14-8l-1 2Z"/><path fill="#0A8489" id="VISl2/3" d="m389 71-5 5-17-15c0-2.244 1.725-6 4-6 5.423 0 14.31 15 18 15v1Z"/><path fill="#CBC9C7" id="or" d="m75 109-2 5c0 .825 6.605-7.105 8.5-9 5.926-5.926 12.268-14.134 20-18 12.77-6.385 24.128-15.564 37-22 2.236-1.118 12.5-4.64 12.5-8h-3c-4.706 0-7.981 6-13 6 0 2.293-.997 2-3 2 0 1.948-5.428 4-7 4 0 2.72-11.589 8-14 8 0 1.55-6.146 6-8 6L87 95l-8 8-2 2v1l-1 1h-1v2ZM397 153h2c0-3.013-1-6.611-1-9l-1-6-2-4v-2l-2-3v-1c-1.428 0-4-4.822-4-6l-1-1v-1l-1-1v-1l-2-2-1-2-1-1-2-4-2-4c-1.577 0-2-1.762-2-3l-8-8c-2.783 0-10.501-7.001-12.5-9l-3.5-3c-8.033 0-36.857-25-45-25h-2c0 2.444 18.162 12.331 21.5 14 11.839 5.92 43.246 23.992 49.5 36.5 2.634 5.267 11 10.383 11 16.5 2.025 0 8 19.172 8 23v1c1.473 0 1 1.952 1 3v2Z"/><path fill="#FD7AFF" id="SCop" d="m162 87 12.5-8c8.278-4.14 17.801-5.9 26-10 2.149-1.074 10.538-4.23 13-3 5.216 2.608 6.236 8.118 12 11l3-2 2 2 10-10c3.665-1.833 14.219.11 18 2 8.833 4.416 18.156 7.578 27 12 2.921 1.46 6.129 6 9.5 6v-4l-2-1-13.5-8-26-12c-2.413-1.206-5.542-.77-8-2-8.439-4.22-13.251 11-15.5 11 0 1.473-1.952 1-3 1-2.263 0-7.662-16.42-16.5-12-11.509 5.754-24.434 9.217-36 15L164 82l-2 1v4Z"/><path fill="#08828B" id="VISl4" d="M75 80h1c0-2.914 17-12.606 17-14l-2-5h-1l-4.5 4C82.225 66.637 73 74.219 73 77l2 3Z"/><path fill="#47C83C" id="POST" d="M127 109h13c2.773 0 3.67-4 6-4l1-2 1-2 1-1 1-1v-1l1-1 1-1 1-1v-1l1-1 1-1 1-1 1-1v-1l1-1 1-1 3-6v-1l1-1v-1l1-1 1-1v-1l1-1 2-5-3-2-2-2-4-3-2-1-8 8-1 1-1 1v2l-1 1v1l-1 1c0 3.23-5 5.26-5 8l-1 1-2 3c0 5.864-10 20.403-10 21ZM316 109h13c0-2.079-9-13.248-9-21-1.577 0-2-1.762-2-3l-1-1-1-1-2-2-1-1-4-9-1-2c-3.165 0-5.138-8-9-8h-1l-4 4-3 2-2 2c0 2.72 2 3.553 2 6l3 5 1 2v1l6 8 2 3 1 1 1 1v1l1 1 1 1v1l2 2v1c2.345 0 3.844 6 7 6Z"/><path fill="#08828B" id="VISl4" d="m384 77-3 2c-6.294 0-11.218-12-18-12v-1l3-5h1l17 15v1Z"/><path fill="#08858A" id="VISp6b" d="M135 63c-1.238 0-3 .423-3 2 2.003 0 3 .293 3-2Z"/><path fill="#C9CCC9" id="dhc" d="M129 86h6l4-1 1-1c0-2.74 5-4.77 5-8l1-1v-1l1-1v-2l1-1v-1c0-1.812.469-4.015-1.5-5-2.745-1.373-16.819 11.41-20 13l-5.5 2.5-1 3.5c1.205 0 9 2.421 9 3ZM321 86h7c0-.963 7.561-3 9-3 0-3.282-18.002-14.25-21.5-16-1.272-.636-4.379-3.81-6-3-3.027 1.514-.5 3.28-.5 5v2l4 9 1 1 2 2 1 1 1 1 3 1Z"/><path fill="#08858A" id="VISp6b" d="M132 65c-1.572 0-7 2.052-7 4 1.572 0 7-2.052 7-4Z"/><path fill="#0B858B" id="VISl5" d="M82 88h1c0-2.031 14.249-13 16-13v-1c-1.562 0-5-6.653-5-8h-1c0 1.394-17 11.086-17 14l6 8Z"/><path fill="#FF90FF" id="SCig" d="m301 122 6 3 3-6v-10l-1-1c0-3.334-11.603-21-14-21-3.371 0-6.579-4.54-9.5-6-8.844-4.422-18.167-7.584-27-12-3.781-1.89-14.335-3.833-18-2l-10 10-2-2-3 2c-5.764-2.882-6.784-8.392-12-11-2.462-1.23-10.851 1.926-13 3-8.199 4.1-17.722 5.86-26 10L162 87h-2l-1 2-1 1-1 1c0 1.747-.253 2-2 2 0 1.238-.423 3-2 3l-1 1-1 2c0 1.238-.423 3-2 3l-1 2-1 2v3l-1 2v2l2 9.5c1.402 2.804 7 2.962 7-.5 0-18.947 17.91-27.705 32.5-35 6.516-3.258 13.308-10 21-10 8.42 0 13.908 11 22 11l3-3c4.816-2.408 9.284-5.642 14-8 2.838-1.419 15.213 6.607 18 8 15.173 7.586 35.5 16.693 35.5 37Z"/><path fill="#0B858B" id="VISl5" d="M381 81c-3.413 0-3.638 6-7 6l-16-12c0-1.738 3.015-8 5-8 6.782 0 11.706 12 18 12v2Z"/><path fill="#0C858C" id="VISli1" d="m56 78 3 3 8-10-2-3c-1.875 0-9 8.374-9 10Z"/><path fill="#FF7AFD" id="SCzo" d="M173 68c-2.362 0-5 2.638-5 5l5-5Z"/><path fill="#0C858C" id="VISli1" d="m401 78-4 3-8-10v-1l3-2 9 10Z"/><path fill="#08858A" id="VISp6b" d="M125 69c-2.343 0-14 5.327-14 8 2.411 0 14-5.28 14-8Z"/><path fill="#7DCD4B" id="HPF" d="m149 69-1 1v-1h1ZM309 69v2l-1-2h1ZM148 70l-1 1 1-1Z"/><path fill="#0A858A" id="VISli2/3" d="M64 87h1c0-1.444 6.043-10 7-10 0-3.25-4-2.897-4-6h-1l-8 10v1l5 5ZM392 87h1c0-1.562 2.189-5 4-5v-1l-8-10-5 5v1l8 10Z"/><path fill="#7DCD4B" id="HPF" d="m147 73-1 1 1-1Z"/><path fill="#FF7AFD" id="SCzo" d="M165 76v1c1.712 0 3-2.571 3-4l-2 1-1 1v1Z"/><path fill="#08848C" id="VISl6a" d="m83 88 4 5 15-12-3-6c-1.751 0-16 10.969-16 13Z"/><path fill="#7DCD4B" id="HPF" d="m146 75-1 1 1-1Z"/><path fill="#08848C" id="VISl6a" d="m374 88-4 5-16-12 3-6h1l16 12v1Z"/><path fill="#08828C" id="VISli4" d="m65 87 2 1 8-8-2-3h-1c-.957 0-7 8.556-7 10Z"/><path fill="#08858A" id="VISp6b" d="M103 81v2c1.854 0 8-4.45 8-6l-8 4Z"/><path fill="#FF7AFD" id="SCzo" d="m164 82-2 1v-3l1-1v-1l1-1h1l-1 5Z"/><path fill="#FF90FE" id="SCiw" d="M173 125c0-7.93 10.244-10.988 14-18.5 3.313-6.627 15.934-16.217 22.5-19.5 5.609-2.804 13.698 3 19 3 11.111 0 22.886-8.728 30.5 6.5l8 8c3 6 17 11.375 17 20.5 2.259 0 5.151 3.675 8.5 2 1.586-.793 7.094-5 8.5-5 0-20.307-20.327-29.414-35.5-37-2.787-1.393-15.162-9.419-18-8-4.716 2.358-9.184 5.592-14 8l-3 3c-8.092 0-13.58-11-22-11-7.692 0-14.484 6.742-21 10-14.59 7.295-32.5 16.053-32.5 35 1.601 0 6.808 4.154 8.5 5 3.56 1.78 6.73-2 9.5-2Z"/><path fill="#08828C" id="VISli4" d="M389 89h1l2-2-8-10-3 2v2c2.427 0 8 5.635 8 8Z"/><path fill="#15B0B3" id="TEa1" d="m31 146-5 1c0-18.132 4.583-30.666 12-45.5l6-8C44.97 91.562 54.558 78 56 78l3 3v1c-2.541 0-8.919 10.338-10 12.5l-10 15c-5.706 11.412-8 22.566-8 36.5ZM426 146l4 1c0-17.919-3.142-28.784-11-44.5-2.324-4.648-18-21.824-18-24.5l-4 3v1c1.617 0 11.071 12.642 12 14.5 8.434 16.867 17 28.905 17 49.5Z"/><path fill="#0A848A" id="VISli5" d="M74 97h1c0-3.22 7-5.552 7-9l-6-8h-1l-8 8v1l7 8Z"/><path fill="#7DCD4B" id="HPF" d="m313 80 1 1-1-1Z"/><path fill="#09858C" id="VISl6b" d="M87 94v1l16-12v-2h-1L87 93v1ZM369 94h1v-1l-16-12h-1v1l3.5 3c1.999 1.999 9.717 9 12.5 9Z"/><path fill="#0A848A" id="VISli5" d="M381 97h1l7-8c0-2.365-5.573-8-8-8-3.413 0-3.638 6-7 6v1c1.072 0 7 7.403 7 9Z"/><path fill="#16AFB3" id="TEa2/3" d="M38 144c0 .682-6.241 2-7 2 0-13.934 2.294-25.088 8-36.5l10-15C50.081 92.338 56.459 82 59 82l5 5c-2.09 0-5.1 6.6-7 8.5-9.177 9.177-13.554 22.107-19 33-.743 1.487-2.218 15.5 0 15.5ZM419 145c2.409 0 5.181 1 7 1 0-20.595-8.566-32.633-17-49.5-.929-1.858-10.383-14.5-12-14.5-1.811 0-4 3.438-4 5l14 18.5c7.51 15.02 12 20.949 12 39.5Z"/><path fill="#C7C8CC" id="alv" d="M107 89h2c4.135 0 12.435-3 20-3 0-.579-7.795-3-9-3-1.91 0-13 4.249-13 6Z"/><path fill="#7DCD4B" id="HPF" d="m316 83 1 1-1-1Z"/><path fill="#C7C8CC" id="alv" d="M367 102c4.573 0 7.954 11 12 11 0-3.497-6.655-5.811-8-8.5-2.747-5.494-27.768-21.5-34-21.5-1.439 0-9 2.037-9 3 7.697 0 15.687 3 20 3 1.639 0 19 12.346 19 13Z"/><path fill="#7DCD4B" id="HPF" d="m140 84-1 1 1-1ZM135 86l2 2 2-3-4 1ZM321 86l-1 2c-1.577 0-2-1.762-2-3l3 1Z"/><path fill="#4FC244" id="SUB" d="m123 113-6 2-2-2.5c-2.492-4.985-6-17.652-6-23.5 4.135 0 12.435-3 20-3h6l2 2c0 5.864-10 20.403-10 21l-4 4Z"/><path fill="#C7CBCB" id="bsc" d="M160 87h2v-1l-2 1ZM312 115v4c-2.715 0 .715-8-2-8v-2l-1-1c0-3.334-11.603-21-14-21v-1l2 1 1 1 1 2 4 4 1 1 1 1v1l1 1 1 1v1l1 2 1 1v1l1 1v1l1 1v2l1 1v5Z"/><path fill="#4FC244" id="SUB" d="m333 113 6 2c1.722 0 2.368-5.235 3-6.5 2.471-4.942 6-13.847 6-19.5-4.313 0-12.303-3-20-3h-7l-1 2c0 7.752 9 18.921 9 21l4 4Z"/><path fill="#15B0B2" id="TEa4" d="M38 144h1c0-16.575 11.126-27.752 18-41.5L67 89v-1l-2-1h-1c-2.09 0-5.1 6.6-7 8.5-9.177 9.177-13.554 22.107-19 33-.743 1.487-2.218 15.5 0 15.5Z"/><path fill="#C7CBCB" id="bsc" d="M159 88v1l1-2h-1v1Z"/><path fill="#FF8FFF" id="SCdg" d="M173 125c0-7.93 10.244-10.988 14-18.5 3.313-6.627 15.934-16.217 22.5-19.5 5.609-2.804 13.698 3 19 3 11.111 0 22.886-8.728 30.5 6.5l8 8c3 6 17 11.375 17 20.5-5.094 0-21 3.907-21-4 1.168 0 .567-4.366 0-5.5-2.481-4.962-7.096-13.798-12.5-16.5l-6-4h-33c-8.024 4.012-18.5 16.215-18.5 26 0 8.086-14.998 4-20 4Z"/><path fill="#CAC7CB" id="fiber tracts" d="m297 87 1 1-1-1Z"/><path fill="#15B0B2" id="TEa4" d="m417 144 2 1c0-18.551-4.49-24.48-12-39.5L393 87h-1l-2 2c0 5.099 8.742 10.984 11 15.5 6.624 13.248 16 23.422 16 39.5Z"/><path fill="#088488" id="VISli6a" d="m77 100 2 1 8-7v-1l-4-5h-1c0 3.448-7 5.78-7 9 0 1.481 2 .785 2 3Z"/><path fill="#CAC7CB" id="fiber tracts" d="M158 89h1v-1h-1v1Z"/><path fill="#088488" id="VISli6a" d="m381 97-3 4-8-7v-1l4-5c1.072 0 7 7.403 7 9Z"/><path fill="#15AFB3" id="TEa5" d="M39 144h12c0-12.325 6.88-22.259 12-32.5L74 97l-7-8-10 13.5c-6.874 13.748-18 24.925-18 41.5Z"/><path fill="#C7C8CC" id="alv" d="m107 89-2 1 2-1Z"/><path fill="#57B947" id="ProS" d="m117 115-12 10.5-3 3.5c0-6.649-6.12-14.738-9-20.5-.663-1.326-1.002-6.5-3-6.5v-1l1-1 1-1 1-1 2-1 1-1 1-1 2-1 1-1c1.238 0 3-.423 3-2l2-1 2-1h2c0 5.848 3.508 18.515 6 23.5l2 2.5Z"/><path fill="#CAC7CB" id="fiber tracts" d="M157 90h1v-1h-1v1Z"/><path fill="#C7CBCB" id="bsc" d="m159 89-1 1v-1h1Z"/><path fill="#57B947" id="ProS" d="m339 115 10.5 8 5.5 6c0-3.538 9.944-27 12-27 0-.654-17.361-13-19-13 0 5.653-3.529 14.558-6 19.5-.632 1.265-1.278 6.5-3 6.5Z"/><path fill="#15AFB3" id="TEa5" d="M417 144c-5.172 0-7.106 1-11 1v-1c0-13.43-9.375-24.249-15-35.5L382 97l7-8h1c0 5.099 8.742 10.984 11 15.5 6.624 13.248 16 23.422 16 39.5Z"/><path fill="#C7C8CC" id="alv" d="m105 90-2 1 2-1Z"/><path fill="#C7CBCB" id="bsc" d="m158 90-1 1v-1h1Z"/><path fill="#CAC7CB" id="fiber tracts" d="m301 91 2 3-4-4 2 1Z"/><path fill="#C7C8CC" id="alv" d="M103 91c-1.238 0-3 .423-3 2 1.238 0 3-.423 3-2Z"/><path fill="#CAC7CB" id="fiber tracts" d="m156 91-1 1 1-1Z"/><path fill="#C7CBCB" id="bsc" d="M155 92v1c1.747 0 2-.253 2-2h-1l-1 1Z"/><path fill="#C7C8CC" id="alv" d="m100 93-1 1 1-1Z"/><path fill="#C7CBCB" id="bsc" d="M153 95v1c1.577 0 2-1.762 2-3h-1l-1 1v1Z"/><path fill="#08818B" id="VISli6b" d="M79 102v1l8-8v-1l-8 7v1Z"/><path fill="#C7C8CC" id="alv" d="m99 94-2 1 2-1Z"/><path fill="#08818B" id="VISli6b" d="M377 102h1v-1l-8-7h-1l8 8Z"/><path fill="#C7C8CC" id="alv" d="m97 95-1 1 1-1Z"/><path fill="#CAC7CB" id="fiber tracts" d="M152 96h1v-1l-1 1Z"/><path fill="#FF8FFE" id="SCdw" d="M261 121h2c1.168 0 .567-4.366 0-5.5-2.481-4.962-7.096-13.798-12.5-16.5l-6-4h-33c-8.024 4.012-18.5 16.215-18.5 26h2l4-8.5c3.304-6.608 10.304-12.402 16.5-15.5h25c3.78 1.89 10.231 4.963 12.5 9.5l6 9c.492.984.851 5.5 2 5.5Z"/><path fill="#C7C8CC" id="alv" d="m96 96-1 1 1-1Z"/><path fill="#CAC7CB" id="fiber tracts" d="M151 97h1v-1l-1 1Z"/><path fill="#C7CBCB" id="bsc" d="m153 96-1 1v-1h1Z"/><path fill="#15AFB2" id="TEa6a" d="M51 144h6c0-11.505 7.207-19.913 12-29.5 1.117-2.234 3.325-7.5 6-7.5 0-1.238.423-3 2-3v-4c0-2.215-2-1.519-2-3h-1l-11 14.5c-5.12 10.241-12 20.175-12 32.5Z"/><path fill="#C7C8CC" id="alv" d="m95 97-2 1 2-1Z"/><path fill="#C7CBCB" id="bsc" d="M151 98v1l1-2h-1v1Z"/><path fill="#FC8FFF" id="PAG" d="M232 150h6l4-1 1-1 1-1 6-9.5 11-9.5v-7c-1.149 0-1.508-4.516-2-5.5l-6-9c-2.269-4.537-8.72-7.61-12.5-9.5h-25c-6.196 3.098-13.196 8.892-16.5 15.5l-4 8.5v7c0 1.869 9.192 7.846 11.5 9 1.98.99 3.548 7.595 4.5 9.5l2 1.5 5 2h6l2-3v-2c0-7.052 1-14.555 1-21 0-3.15 2-3.446 2 0 0 7.014 2 14.259 2 22v4h1Z"/><path fill="#CAC7CB" id="fiber tracts" d="m305 97 1 1-1-1Z"/><path fill="#15AFB2" id="TEa6a" d="M400 144h6c0-13.43-9.375-24.249-15-35.5L382 97h-1l-3 4v1l1 2c2.432 0 7.104 7.708 8 9.5 4.629 9.258 13 19.578 13 30.5Z"/><path fill="#C7C8CC" id="alv" d="m93 98-1 1 1-1Z"/><path fill="#CAC7CB" id="fiber tracts" d="M150 99h1v-1h-1v1Z"/><path fill="#C7C8CC" id="alv" d="m92 99-1 1 1-1Z"/><path fill="#CAC7CB" id="fiber tracts" d="m150 99-1 1 1-1Z"/><path fill="#C7CBCB" id="bsc" d="M149 101v1c1.577 0 2-1.762 2-3h-1l-1 1v1Z"/><path fill="#0C858B" id="VISpor6a" d="m79 102-2 1v-3l2 1v1Z"/><path fill="#C7C8CC" id="alv" d="m91 100-1 1 1-1ZM89 102h1v-1l-1 1Z"/><path fill="#CAC7CB" id="fiber tracts" d="M148 102h1v-1h-1v1Z"/><path fill="#0C848C" id="VISpor6b" d="M77 104v1l2-2v-1l-2 1v1Z"/><path fill="#C7C8CC" id="alv" d="m89 102-2 1 2-1Z"/><path fill="#7ECF4B" id="CA1" d="m63 180 3 6 26-10c0-5.859-3.977-18.547-1-24.5l6-16 5-6.5c0-6.649-6.12-14.738-9-20.5-.663-1.326-1.002-6.5-3-6.5h-1l-2 1c0 1.747-.253 2-2 2l-1 1-1 1c0 1.747-.253 2-2 2 0 1.429-1.288 4-3 4l-1 1-1 1-1 2-1 1-1 1v1l-1 1-1 2c0 1.238-.423 3-2 3v1l-1 1-1 2-1 2-1 2v2l-1 1v1l-1 2v2c0 1.048.473 3-1 3 0 1.048.473 3-1 3v21c1.483 0 2 8.263 2 10v1Z"/><path fill="#C7CBCB" id="bsc" d="M148 103v1l1-2h-1v1Z"/><path fill="#CAC7CB" id="fiber tracts" d="M309 102v1l-1-1h1Z"/><path fill="#7ECF4B" id="CA1" d="M393 181c-1.014 0-2 3.959-2 5l-27-10c0-7.083 4.645-19.211 1-26.5-1.435-2.871-10-18.678-10-20.5 0-3.538 9.944-27 12-27 4.573 0 7.954 11 12 11v1c0 1.433 6.677 11 8 11v1l2 3v1l2 3v1l1 2v1l1 2v1c0 1.357.647 6 2 6v25c-1.484 0-2 8.263-2 10Z"/><path fill="#0C848C" id="VISpor6b" d="M379 104v1c-1.577 0-2-1.762-2-3h1l1 2Z"/><path fill="#C7C8CC" id="alv" d="m87 103-2 2c1.747 0 2-.253 2-2Z"/><path fill="#CAC7CB" id="fiber tracts" d="M147 104h1v-1h-1v1Z"/><path fill="#16B0B2" id="TEa6b" d="M75 107h1l1-1v-2c-1.577 0-2 1.762-2 3Z"/><path fill="#C7CBCB" id="bsc" d="M147 105v1l1-2h-1v1Z"/><path fill="#CAC7CB" id="fiber tracts" d="m309 104 1 1-1-1Z"/><path fill="#16B0B2" id="TEa6b" d="M398 144h2c0-10.922-8.371-21.242-13-30.5-.896-1.792-5.568-9.5-8-9.5v1l2 4c1.941 0 7 6.754 7 9l1 1v1l2 2c0 2.447 2 3.28 2 6v1c1.577 0 2 1.762 2 3v2l2 4 1 6Z"/><path fill="#C7C8CC" id="alv" d="m85 105-1 1 1-1Z"/><path fill="#CAC7CB" id="fiber tracts" d="M146 106h1v-1h-1v1Z"/><path fill="#0C848C" id="VISpor6b" d="m77 106-1 1 1-1Z"/><path fill="#C7C8CC" id="alv" d="m84 106-1 1 1-1Z"/><path fill="#C7CBCB" id="bsc" d="M146 109h1v-3h-1v3Z"/><path fill="#CAC7CB" id="fiber tracts" d="m310 106 1 1-1-1Z"/><path fill="#16B0B2" id="TEa6b" d="M57 144h1l1-5 1-1v-1l1-2v-1l1-2v-1l1-2 1-2 1-2v-2l1-1 1-1c0-1.238.423-3 2-3 0-1.238.423-3 2-3 0-1.417 2.383-6 4-6v-2c-2.675 0-4.883 5.266-6 7.5-4.793 9.587-12 17.995-12 29.5Z"/><path fill="#C7C8CC" id="alv" d="m83 107-2 2c1.747 0 2-.253 2-2Z"/><path fill="#CAC7CB" id="fiber tracts" d="M145 109h1v-2l-1 2Z"/><path fill="#FF64FF" id="MB" d="m309 108 1 1-1-1Z"/><path fill="#CCC8CA" id="ar" d="M71 115h1l1-1 2-5c-1.617 0-4 4.583-4 6Z"/><path fill="#C7C8CC" id="alv" d="M81 109c-1.712 0-3 2.571-3 4 1.712 0 3-2.571 3-4Z"/><path fill="#59B847" id="PRE" d="m137 113-4 1-10-1 4-4h13l-1 2-1 1-1 1Z"/><path fill="#C7CBCB" id="bsc" d="M146 113c-.858 0-1 10.343-1 5v-9h1v4Z"/><path fill="#FF64FF" id="MB" d="m147 109-1 2v-2h1Z"/><path fill="#CAC7CB" id="fiber tracts" d="m311 109 1 1-1-1Z"/><path fill="#59B847" id="PRE" d="M333 113c-3.77 0-7.021 2-10 2l-5-4-2-2h13l4 4Z"/><path fill="#CCC8CA" id="ar" d="M391 122c0 2.447 2 3.28 2 6-1.428 0-4-4.822-4-6l-1-1v-1l-1-1v-1l-2-2-1-2-1-1-2-4c1.941 0 7 6.754 7 9l1 1v1l2 2Z"/><path fill="#7DCD4B" id="HPF" d="m139 111-1 1 1-1Z"/><path fill="#FF64FF" id="MB" d="M311 121h2l-1-2c-2.715 0 .715-8-2-8v8l1 2Z"/><path fill="#7DCD4B" id="HPF" d="M323 115c-1.643 0-1 3.765-1 5-.855 0-4-7.665-4-9l5 4ZM138 112l-1 1 1-1Z"/><path fill="#C7C8CC" id="alv" d="m78 113-1 1 1-1Z"/><path fill="#7BD04A" id="DG-mo" fill-rule="evenodd" d="m119 124-6 5.5-8 10-6 14c-5.943 11.885 10.361 44.931 19.5 49.5 3.531 1.765 5.562 12.219 12 9 3.696-1.848 2.958-10.584 1.5-13.5-6.076-12.152-8.97-25.94-15-38-3.465-6.93-1.03-21.939 2-28 .959-1.917 5.279-5.443 4-8l-4-.5m6 96 4 1c5.335 0 13.918-9.664 11-15.5-4.897-9.793-6.092-21.183-11-31-1.55-3.099-.437-7.875-2-11-2.12-4.239-5.761-16.478-3-22 2.797-5.594 11-17.662 11-23.5l-2-4-10-1-6 2-12 10.5-3 3.5-5 6.5-6 16c-2.977 5.953 1 18.641 1 24.5 1.183 0 1.535 3.57 2 4.5 2.71 5.42 6.266 10.532 9 16 1.664 3.328 20 18.855 20 21.5l2 2Z"/><path fill="#7DCD4B" id="HPF" d="m133 114 2 4c1.638 0 2-3.576 2-5l-4 1Z"/><path fill="#FF64FF" id="MB" d="M195 128c-14.404 0-30.598 1-45 1 0-2.653-.879-6-4-6l-2-2c0-1.048-.473-3 1-3 0 5.343.142-5 1-5l2 9.5c1.402 2.804 7 2.962 7-.5 1.601 0 6.808 4.154 8.5 5 3.56 1.78 6.73-2 9.5-2 5.002 0 20 4.086 20-4h2v7Z"/><path fill="#CAC7CB" id="fiber tracts" d="M312 113c1.399 0 1.399 2 0 2v-2Z"/><path fill="#7BD04A" id="DG-mo" fill-rule="evenodd" d="m333 124 8 18.5c2.212 4.425-4.068 28.135-6 32-2.516 5.031-16.58 33.96-9.5 37.5 6.606 3.303 16.09-14.09 19.5-17.5 6.447-6.447 16.553-26.894 12-36v-7c-2.403-4.807-5.545-9.091-8-14-3.021-6.042-9.402-13.5-16-13.5m-6 97h3l1-1 3-3 11.5-12c5.948-5.948 18.5-20.866 18.5-29 0-7.083 4.645-19.211 1-26.5-1.435-2.871-10-18.678-10-20.5l-5.5-6-10.5-8-6-2c-3.77 0-7.021 2-10 2-1.643 0-1 3.765-1 5 0 1.872 9.239 19.978 11 23.5 1.773 3.546-.644 11.289-2 14-1.55 3.099-.437 7.875-2 11-5.486 10.972-6.505 24.011-12 35-3.368 6.736 3.444 17.5 10 17.5Z"/><path fill="#C8C9CA" id="fp" d="m383 113 1 1-1-1Z"/><path fill="#C7C8CC" id="alv" d="m77 114-1 1 1-1ZM379 114c2.327 0 8 9.17 8 11-1.323 0-8-9.567-8-11Z"/><path fill="#CCC8CA" id="ar" d="M69 118h1l1-3c-1.577 0-2 1.762-2 3Z"/><path fill="#CBC9C7" id="or" d="M69 119v1c0 2.523 5.98-5 3-5h-1l-1 3-1 1Z"/><path fill="#C7C8CC" id="alv" d="m76 115-1 2 1-2Z"/><path fill="#C8C9CA" id="fp" d="m385 116 2 2-2-2Z"/><path fill="#C7C8CC" id="alv" d="m75 117-1 1 1-1Z"/><path fill="#CCC8CA" id="ar" d="M67 121h1l1-1v-2c-1.577 0-2 1.762-2 3Z"/><path fill="#C8C9CA" id="fp" d="m70 118-1 1v-1h1Z"/><path fill="#C7C8CC" id="alv" d="m74 118-1 1 1-1Z"/><path fill="#CBC9C7" id="or" d="m388 118 1 1-1-1Z"/><path fill="#FF64FF" id="MB" d="m311 123-4 2 3-6 1 2v2Z"/><path fill="#C7CBCB" id="bsc" d="m310 119 1 2-1-2Z"/><path fill="#C8C9CA" id="fp" d="m387 119 1 1-1-1Z"/><path fill="#C7C8CC" id="alv" d="m73 120-1 1 1-1Z"/><path fill="#CBC9C7" id="or" d="m389 120 2 2-2-2ZM60 151c-1.481 0-.785 2-3 2l1-9 1-5 1-1v-1l1-2v-1l1-2v-1l1-2 1-2 1-2c1.348 0 3.216-3 1-3l1-1c0 1.186 1 1.186 1 0 2.373 0 0 2.284 0 3 0 4.368-7 13.054-7 21-1.58 0-1 2.855-1 4v2Z"/><path fill="#C8C9CA" id="fp" d="M67 121h1c0 1.186-1 1.186-1 0Z"/><path fill="#C7C8CC" id="alv" d="m72 121-1 2 1-2Z"/><path fill="#C9C8C8" id="bic" d="M134 146v5.5c.797 1.594 3-.477 3-1.5 0-3.972 5.933-27 9-27l-2-2c-4.77 0-9 12.885-9 17 0 1.048.473 3-1 3v5Z"/><path fill="#A9A9A8" id="AQ" d="M227 124h2c0-3.446-2-3.15-2 0Z"/><path fill="#FF64FF" id="MB" d="M261 128c14.411 0 30.657 1 45 1l1-4-6-3c-1.406 0-6.914 4.207-8.5 5-3.349 1.675-6.241-2-8.5-2-5.094 0-21 3.907-21-4h-2v7Z"/><path fill="#C9C8C8" id="bic" d="M323 149v2c0 3.361-3.897-2-4-2 0-5.412-1.653-14.806-4-19.5-1.208-2.416-4-4.216-4-6.5v-2h2c3.884 0 6.762 10.025 8 12.5.574 1.147-1.064 4.5 1 4.5v3c0 1.145-.579 4 1 4v4Z"/><path fill="#C8C9CA" id="fp" d="m388 121 1 1-1-1Z"/><path fill="#CBC9C7" id="or" d="m66 122-1 1 1-1Z"/><path fill="#CCC8CA" id="ar" d="M65 123v2c1.348 0 3.216-3 1-3l-1 1Z"/><path fill="#C7C8CC" id="alv" d="M69 124v2c1.577 0 2-1.762 2-3l-2 1Z"/><path fill="#FE7AFD" id="NB" d="M146 141c-1.149 0-1.508 4.516-2 5.5-1.915 3.831-4.445 3.5-7 3.5 0-3.972 5.933-27 9-27 3.121 0 4 3.347 4 6 0 3.989-3 6.011-3 10l-1 1v1ZM310 140c.83 0 2.466 6.431 3 7.5 1.065 2.13 6 5.836 6 1.5 0-5.412-1.653-14.806-4-19.5-1.208-2.416-4-4.216-4-6.5l-4 2-1 4c0 3.848 4 6.804 4 11Z"/><path fill="#C8CBCC" id="ec" d="M61 145h1c0-1.048-.473-3 1-3v-2l1-2v-1l1-1v-2l1-2 1-2 1-2 1-1v-3h-1c0 4.368-7 13.054-7 21Z"/><path fill="#65A83D" id="DG-sg" fill-rule="evenodd" d="M112 171c0 1.011-3.31 4.12-4 5.5-1.838 3.677 6.419 14.838 8 18 1.238 2.477 9.922 15.155 13 9 1.595-3.19-12.741-32.5-17-32.5m7-47-6 5.5-8 10-6 14c-5.943 11.885 10.361 44.931 19.5 49.5 3.531 1.765 5.562 12.219 12 9 3.696-1.848 2.958-10.584 1.5-13.5-6.076-12.152-8.97-25.94-15-38-3.465-6.93-1.03-21.939 2-28 .959-1.917 5.279-5.443 4-8l-4-.5Z"/><path fill="#FF64FF" id="MB" d="m226 145 5 1c0-7.741-2-14.986-2-22h-2c0 6.445-1 13.948-1 21Z"/><path fill="#65A83D" id="DG-sg" fill-rule="evenodd" d="m342 171-3 3.5c-3.351 6.701-5.649 14.299-9 21-.6 1.199-4.029 8.236-1.5 9.5 5.751 2.875 30.138-34 13.5-34m-9-47 8 18.5c2.212 4.425-4.068 28.135-6 32-2.516 5.031-16.58 33.96-9.5 37.5 6.606 3.303 16.09-14.09 19.5-17.5 6.447-6.447 16.553-26.894 12-36v-7c-2.403-4.807-5.545-9.091-8-14-3.021-6.042-9.402-13.5-16-13.5Z"/><path fill="#C8CBCC" id="ec" d="M395 147h1c0-3.828-5.975-23-8-23l-1 1v1c1.577 0 2 1.762 2 3v1c1.577 0 2 1.762 2 3v1l1 2v1l1 2v1c1.353 0 2 4.643 2 6v1Z"/><path fill="#CCC8CA" id="ar" d="m65 125-1 2 1-2Z"/><path fill="#C7C8CC" id="alv" d="M387 126c1.577 0 2 1.762 2 3l-2-3Z"/><path fill="#CCC8CA" id="ar" d="m64 127-1 2 1-2Z"/><path fill="#C7C8CC" id="alv" d="m69 127-1 1 1-1Z"/><path fill="#FF8FFD" id="MRN" d="M205 183c0 3.274-9.698 2-12 2 0-5.362-20-12.903-20-5-13.187 0-27-27.647-27-39v-1l1-1c0-3.989 3-6.011 3-10 14.402 0 30.596-1 45-1 0 1.869 9.192 7.846 11.5 9 1.98.99 3.548 7.595 4.5 9.5l2 1.5 3 3 1 2v1c0 1.442 3.274 6 5 6l1 4v2l-1 1-7 7c0-4.153-1.97-7.235-5.5-9-2.359-1.18-3.839-4.419-7-6-11.033-5.516-25.639 8.361-14.5 19.5l6.5 3.5c4.376 2.188 6.059 1 10.5 1ZM284 180c0-9.052-15.394 1-19 1 0-2.094 11.446-7.608 8-14.5-6.814-13.628-32-6.341-32 6.5-2.676 0-3.219-6-7-6v-1l-1-1v-3c0-2.741 4-2.268 4-5l1-1 1-1v-1l1-2 2-3 1-1 1-1 6-9.5 11-9.5c14.411 0 30.657 1 45 1 0 3.848 4 6.804 4 11 0 12.003-12.364 40-26 40Z"/><path fill="#C7C8CC" id="alv" d="m68 128-1 2 1-2Z"/><path fill="#CCC8CA" id="ar" d="m63 129-1 2 1-2ZM393 129c1.577 0 2 1.762 2 3l-2-3Z"/><path fill="#C7C8CC" id="alv" d="m67 130-1 2 1-2ZM389 130c1.577 0 2 1.762 2 3l-2-3Z"/><path fill="#CCC8CA" id="ar" d="m62 132-1 2 1-2Z"/><path fill="#C7C8CC" id="alv" d="m66 132-1 2 1-2Z"/><path fill="#FE7F82" id="MGd" d="M126 148c3.725 0 4.371 1 7 1 0-1.048-.473-3 1-3v-8c0-12.518-8 4.549-8 10ZM324 149l3.5-2 3.5 2c0-1.742-1.116-8.732-2-10.5-1.846-3.691-7-7.11-7-.5v3c1.579 0 1 2.855 1 4v4h1Z"/><path fill="#C7C8CC" id="alv" d="m391 134 1 2-1-2Z"/><path fill="#CCC8CA" id="ar" d="m395 134 2 4-2-4ZM61 135l-1 2 1-2Z"/><path fill="#C7C8CC" id="alv" d="m65 136-1 1 1-1ZM392 137l1 2-1-2Z"/><path fill="#CCC8CA" id="ar" d="m60 138-1 1 1-1Z"/><path fill="#C7C8CC" id="alv" d="m64 138-1 2 1-2Z"/><path fill="#FF64FF" id="MB" d="M135 138c0 1.048.473 3-1 3v-3h1ZM147 139l-1 1 1-1Z"/><path fill="#FF64FF" id="MB" fill-rule="evenodd" d="m279 230 5 1c1.81 0 7.653-11 13-11 0-14.88 7.76-10.019 12-18.5 6.486-12.971 18-28.173 18-43.5-2.877 0-3-4.407-3-7h-1c0 3.361-3.897-2-4-2 0 4.336-4.935.63-6-1.5-.534-1.069-2.17-7.5-3-7.5 0 12.003-12.364 40-26 40 0 4.281-3.821 12.16-7.5 14-2.606 1.303-4.479-3-6.5-3 0 8.417.463 6-8 6l3.5 3c3.151 3.151 5.691 5.881 7.5 9.5 1.368 2.737-.495 11.5-4 11.5v6l4.5-4c4.899-2.449 15.07-10.64 9.5.5l-4 6.5m1-25h1v-1c0-3.647 3-6.586 3-10 0-6.457 1.784-8 7-8 5.257 0 11.873-10.814 17.5-8 4.455 2.227 1.983 10.535.5 13.5-7.959 15.919-4.988 11.744-20.5 19.5-2.302 1.151-9.492 7.516-11.5 3.5l2-6.5-4.5 1c-4.532-2.266 1.688-15.125 5.5-7.5v3.5Z"/><path fill="#C7C8CC" id="alv" d="M393 140c1.353 0 2 4.643 2 6-1.353 0-2-4.643-2-6Z"/><path fill="#FF64FF" id="MB" fill-rule="evenodd" d="m177 230-5 1c-1.81 0-7.653-11-13-11l2-2.5c0-8.957-12.625-12.249-16-19-4.653-9.305-16-29.332-16-39.5 3.035 0 4-7.711 4-10 0-1.048-.473-3 1-3v5.5c.797 1.594 3-.477 3-1.5 2.555 0 5.085.331 7-3.5.492-.984.851-5.5 2-5.5 0 11.353 13.813 39 27 39 0 4.352 2.097 11.798 6.5 14 2.606 1.303 4.479-3 6.5-3 0 6.013-1.623 7 7 7 0 1.882-8.422 8.343-10 11.5-1.379 2.759.856 11.5 4 11.5l1 4-1 1c-4.714 0-8.444-6.972-12.5-9l-3.5.5 6 12.5m0-24v-5.5c2.956-5.912 9.82 5.84 4.5 8.5-2.116 1.058-2.898-2-4.5-2 0 2.379 3.292 4.917 2 7.5-1.914 3.828-7.407-1.453-9.5-2.5-10.323-5.162-16.979-7.457-22.5-18.5-1.131-2.261-2.284-14.108.5-15.5 5.655-2.827 12.561 8 17.5 8 4.109 0 8 1.168 8 7l2 10v1l2 2Z"/><path fill="#FF64FF" id="MB" d="M322 141c1.579 0 1 2.855 1 4-1.579 0-1-2.855-1-4Z"/><path fill="#C7C8CC" id="alv" d="M63 142c-1.473 0-1 1.952-1 3 1.473 0 1-1.952 1-3Z"/><path fill="#0D9F91" id="ECT2/3" d="M35 159h8c0-4.749-4-9.907-4-15h-1c0 .682-6.241 2-7 2 0 5.192 3 8.764 3 13h1Z"/><path fill="#0D9E90" id="ECT5" d="M43 159h8v-15H39c0 5.093 4 10.251 4 15Z"/><path fill="#0E9F91" id="ECT6a" d="m56 158-5 1v-15h6c0 4.328-1 9.809-1 14Z"/><path fill="#0E9F90" id="ECT6b" d="M56 158h1v-5l1-9h-1c0 4.328-1 9.809-1 14ZM399 158h2l-1-14h-2c0 2.389 1 5.987 1 9v5Z"/><path fill="#0E9F91" id="ECT6a" d="M401 159h4c0-3.948 1-9.393 1-14v-1h-6l1 14v1Z"/><path fill="#0D9E90" id="ECT5" d="M405 159h8c0-4.708 4-9.433 4-15-5.172 0-7.106 1-11 1 0 4.607-1 10.052-1 14Z"/><path fill="#0D9F91" id="ECT2/3" d="M421 159h1c0-4.213 4-8.239 4-13-1.819 0-4.591-1-7-1l-2-1c0 5.567-4 10.292-4 15h8Z"/><path fill="#C8CBCC" id="ec" d="M60 149h1v-4c-1.58 0-1 2.855-1 4Z"/><path fill="#C7C8CC" id="alv" d="M62 145c0 1.048.473 3-1 3v-3h1Z"/><path fill="#FE8FFC" id="EW" d="M229 155h1l1-1v-8l-5-1v10h1c0-1.399 2-1.399 2 0Z"/><path fill="#0D9F90" id="ECT1" d="m34 159-2 3-3-2.5c-1.704-3.408-3-8.491-3-12.5l5-1c0 5.192 3 8.764 3 13ZM422 159c0 1.658 1.461 3 3 3 0-.412 5-8.753 5-15l-4-1c0 4.761-4 8.787-4 13Z"/><path fill="#FE7E83" id="MGv" d="M133 149c0 2.289-.965 10-4 10l-4-6.5 1-4.5c3.725 0 4.371 1 7 1Z"/><path fill="#FF64FF" id="MB" d="m224 150 2 3v-6l-2 3ZM244 147l-1 1 1-1Z"/><path fill="#FE7E83" id="MGv" d="M324 151c0 2.593.123 7 3 7 4.019 0 4-5.716 4-9l-3.5-2-3.5 2v2Z"/><path fill="#C7C8CC" id="alv" d="M397 153c0 4.284-1 9.371-1 13 0 1.235.643 5-1 5v-24h1v1c0 1.048-.473 3 1 3v2Z"/><path fill="#FF64FF" id="MB" d="m217 154 2 1-1-5-5-2 3 3 1 2v1Z"/><path fill="#C8CBCC" id="ec" d="M396 148c1.473 0 1 1.952 1 3-1.473 0-1-1.952-1-3Z"/><path fill="#C7C8CC" id="alv" d="M60 151c0 2.241-.804 17 1 17v-19h-1v2Z"/><path fill="#FE90FF" id="III" d="M222 158h1l3-1v-4l-2-3h-6l1 5v1l1 1h1l1 1ZM236 157l-3 1c-2.641 0-2-1.823-2-4v-3l1-1h6l1 2v1l-1 2-1 1-1 1Z"/><path fill="#FF64FF" id="MB" d="M239 152h1l2-3-4 1 1 2Z"/><path fill="#FD7F83" id="MGm" d="M323 151h1v-2h-1v2Z"/><path fill="#FF64FF" id="MB" d="m232 150-1 1v-1h1Z"/><path fill="#C8CBCC" id="ec" d="m73 205 2 4c-2.683 0-5.082-7.664-6-9.5-4.815-9.63-11-19.008-11-30.5l-1-11v-5c2.215 0 1.519-2 3-2 0 2.241-.804 17 1 17v1c0 2.049-.342 10 2 10v1c0 3.459 7.394 24 10 24v1Z"/><path fill="#CBCBCC" id="mlf" d="m216 151 1 2-1-2ZM239 153v1l1-2h-1v1Z"/><path fill="#FF64FF" id="MB" d="M238 155h1v-2l-1 2Z"/><path fill="#C8CBCC" id="ec" d="M387 198v2c4.224 0 11-26.143 11-31l1-2v-14h-2c0 4.284-1 9.371-1 13 0 1.235.643 5-1 5 0 1.928-.112 10-2 10 0 1.623-.005 6-2 6v1c0 1.424-.362 5-2 5l-1 2-1 2v1Z"/><path fill="#CBCBCC" id="mlf" d="M226 160v2l-4-2c-1.726 0-5-4.558-5-6l2 1v1l1 1h1l1 1h1l3 2Z"/><path fill="#FF64FF" id="MB" d="M227 155h2c0-1.399-2-1.399-2 0ZM231 164c0-1.93 1.161 0 2 0v-2c-4.78 0 0-3.189 0-4-2.641 0-2-1.823-2-4l-1 1c0 1.574-.751 9 1 9Z"/><path fill="#FEA6FF" id="RL" d="M231 164v2c-1.911 0-5 3.379-5-2v-9h4c0 1.574-.751 9 1 9Z"/><path fill="#FF64FF" id="MB" d="M237 156h1v-1l-1 1Z"/><path fill="#CBCBCC" id="mlf" d="m239 155-1 1v-1h1Z"/><path fill="#FF64FF" id="MB" d="m219 156 1 1-1-1ZM236 157h1v-1l-1 1Z"/><path fill="#CBCBCC" id="mlf" d="m238 156-1 1v-1h1Z"/><path fill="#FF64FF" id="MB" d="m221 157 1 1-1-1ZM223 158l3 2v-3l-3 1Z"/><path fill="#CBCBCC" id="mlf" d="M233 158c0 .811-4.78 4 0 4 0-2.741 4-2.268 4-5h-1l-3 1Z"/><path fill="#0E9684" id="PERI6a" d="M53 169h4l-1-11-5 1 1 10h1Z"/><path fill="#0E9683" id="PERI6b" d="M57 169h1l-1-11h-1l1 11ZM401 159c0 .969-1.147 7-2 7v-8h2v1Z"/><path fill="#0E9584" id="PERI1" d="m35 172-6 1 4-5.5-1-5.5 2-3h1c0 1.009 2.422 5.343 3 6.5l-1 5.5h-1l-1 1Z"/><path fill="#0E9583" id="PERI2/3" d="M37 171h6l4-1-4-11h-8c0 1.009 2.422 5.343 3 6.5l-1 5.5Z"/><path fill="#0F9684" id="PERI5" d="M47 170h2l3-1-1-10h-8l4 11Z"/><path fill="#FE90FD" id="RN" d="M211 179c-1.417 0-6 2.383-6 4-4.441 0-6.124 1.188-10.5-1l-6.5-3.5c-11.139-11.139 3.467-25.016 14.5-19.5 3.161 1.581 4.641 4.82 7 6 3.53 1.765 5.5 4.847 5.5 9v1l-1 1-1 1-2 2ZM242 176c.401 0 10.88 7.19 12.5 8 3.226 1.613 7.482-3 10.5-3 0-2.094 11.446-7.608 8-14.5-6.814-13.628-32-6.341-32 6.5v1l1 1v1Z"/><path fill="#0E9684" id="PERI6a" d="M403 169h1c0-2.69 1-6.675 1-10h-4c0 .969-1.147 7-2 7v3h4Z"/><path fill="#0F9684" id="PERI5" d="M407 170h3l3-11h-8c0 3.325-1 7.31-1 10l3 1Z"/><path fill="#0E9583" id="PERI2/3" d="M413 171h7c0-2.014-2.284-5.932-1-8.5.809-1.619 2-1.471 2-3.5h-8l-3 11c1.048 0 3-.473 3 1Z"/><path fill="#0E9584" id="PERI1" d="m421 171 6 2c0-2.229-1.986-2.471-3-4.5-1.081-2.161 1-4.894 1-6.5-1.539 0-3-1.342-3-3h-1c0 2.029-1.191 1.881-2 3.5-1.284 2.568 1 6.486 1 8.5h1Z"/><path fill="#FF64FF" id="MB" d="M225 164h1v-2l-4-2 1 4c.839 0 2-1.93 2 0Z"/><path fill="#C8C8C8" id="mtg" d="m220 179-2 1c0-4.737 4-8.217 4-13l1-1v-2c.839 0 2-1.93 2 0 0 3.015-2 6.004-2 8l-1 3-1 1v2l-1 1ZM236 179l3 1-5-13v-1l-1-1v-1c-.839 0-2-1.93-2 0v2l2 7 2 3v1l1 1v1Z"/><path fill="#CACAC7" id="dtd" d="M229 173h4l-2-7c-1.911 0-5 3.379-5-2h-1c0 3.015-2 6.004-2 8l1 1h3c0-1.919 2-2.488 2 0Z"/><path fill="#FF64FF" id="MB" d="m233 165 1 1-1-1Z"/><path fill="#C8C8CC" id="tspc" d="m223 166-1 1 1-1ZM210 181l-1 1-2 3.5c-1.953 3.906 4.597 1.951 5.5 1.5l5.5-7c0-4.737 4-8.217 4-13l-7 7v1l-1 1-1 1c0 1.747-.253 2-2 2l-1 2ZM239 180c0 2.449 8.163 11.174 10 7.5 1.29-2.579-2-4.232-2-6.5l-5-5v-1l-1-1v-1c-2.676 0-3.219-6-7-6l5 13Z"/><path fill="#0E9683" id="PERI6b" d="M398 169h1v-2l-1 2Z"/><path fill="#31B824" id="ENTl5" d="M81 227c0 1.995-4.377 2-6 2-4.25 0-11.349-10.197-13-13.5l-7-9c-6.217-12.433-6-22.304-6-36.5l3-1h1c0 15.367 7.632 26.764 14 39.5 2.514 5.029 14 13.413 14 18.5Z"/><path fill="#32B824" id="ENTl6a" d="M81 227h1l4-3-3-4v-1c-1.489 0-8-7.014-8-9v-1c-2.683 0-5.082-7.664-6-9.5-4.815-9.63-11-19.008-11-30.5h-5c0 15.367 7.632 26.764 14 39.5 2.514 5.029 14 13.413 14 18.5Z"/><path fill="#C7C8CC" id="alv" d="M61 169c1.483 0 2 8.263 2 10-2.342 0-2-7.951-2-10Z"/><path fill="#32B824" id="ENTl6a" d="M374 227h1c0-5.412 9.863-11.226 12-15.5 7.292-14.585 16-24.723 16-42.5h-5c0 4.857-6.776 31-11 31 0 1.238-.423 3-2 3l-1 2-1 2-1 1-1 1v1l-1 1-1 1v1l-1 1-1 1-1 2h-1v1l-1 1-1 1-1 1-1 1-1 1v1l4 3Z"/><path fill="#31B824" id="ENTl5" d="M381 230h1c0-1.971 15.191-15.881 17-19.5 9.101-18.202 8-20.378 8-40.5l-3-1h-1c0 17.777-8.708 27.915-16 42.5-2.137 4.274-12 10.088-12 15.5l6 3Z"/><path fill="#32B725" id="ENTl3" d="m75 230-6 3c-3.14 0-10.663-8.826-12-11.5-3.672-7.344-8.371-13.742-12-21-1.828-3.656-2.129-8.257-4-12-2.115-4.23 2-12.638 2-17.5l4-1h2c0 14.196-.217 24.067 6 36.5l7 9c1.651 3.303 8.75 13.5 13 13.5v1ZM382 230l5 3c4.457 0 11.911-9.323 14-13.5l6-9c3.168-6.336 4.796-13.591 8-20 2.729-5.457-2-14.24-2-19.5 0-1.473-1.952-1-3-1h-3c0 20.122 1.101 22.298-8 40.5-1.809 3.619-17 17.529-17 19.5Z"/><path fill="#32B722" id="ENTl1" d="m36 171-1 1 1-1Z"/><path fill="#32B825" id="ENTl2" d="m68 235-7 2c-14.996 0-22.76-36.021-28-46.5-2.741-5.482 2-13.665 2-18.5l1-1h7c0 4.862-4.115 13.27-2 17.5 1.871 3.743 2.172 8.344 4 12 3.629 7.258 8.328 13.656 12 21 1.337 2.674 8.86 11.5 12 11.5l-1 2Z"/><path fill="#7ECE4A" id="DG-po" d="M112 171c0 1.011-3.31 4.12-4 5.5-1.838 3.677 6.419 14.838 8 18 1.238 2.477 9.922 15.155 13 9 1.595-3.19-12.741-32.5-17-32.5Z"/><path fill="#FF64FF" id="MB" d="M227 173h2c0-2.488-2-1.919-2 0Z"/><path fill="#7ECE4A" id="DG-po" d="m342 171-3 3.5c-3.351 6.701-5.649 14.299-9 21-.6 1.199-4.029 8.236-1.5 9.5 5.751 2.875 30.138-34 13.5-34Z"/><path fill="#C7C8CC" id="alv" d="M395 171c-1.484 0-2 8.263-2 10 1.888 0 2-8.072 2-10Z"/><path fill="#32B825" id="ENTl2" d="M388 234c2.722 0 4.53 3 8 3 6.434 0 12.661-9.822 15-14.5 4.831-9.663 7.165-20.33 12-30 3.057-6.115-2-16.226-2-21.5h-8c0 5.26 4.729 14.043 2 19.5-3.204 6.409-4.832 13.664-8 20l-6 9c-2.089 4.177-9.543 13.5-14 13.5l1 1Z"/><path fill="#32B722" id="ENTl1" d="m396 238 7 1c4.344 0 8.699-9.898 10-12.5 5.851-11.702 9.202-24.403 15-36 1.025-2.05 2.533-17.5-1-17.5l-6-2c0 5.274 5.057 15.385 2 21.5-4.835 9.67-7.169 20.337-12 30-2.339 4.678-8.566 14.5-15 14.5v1ZM61 238c-2.41 0-5.181 1-7 1-5.556 0-9.224-9.949-11-13.5-5.978-11.955-9.09-25.179-15-37-2.008-4.016 1-11.887 1-15.5l6-1c0 4.835-4.741 13.018-2 18.5 5.24 10.479 13.004 46.5 28 46.5v1Z"/><path fill="#FF64FF" id="MB" d="m224 173-2 2 1-3 1 1Z"/><path fill="#FFA4FF" id="CLI" d="M229 192h6l2-2.5c1.489-2.977-1-8.046-1-10.5v-1l-1-1v-1c-1.577 0-2-1.762-2-3h-9l-2 2-1 1v2l-1 1-1 9.5 2 3.5h6c0-1.399 2-1.399 2 0Z"/><path fill="#FF64FF" id="MB" d="m233 173 2 3c-1.577 0-2-1.762-2-3Z"/><path fill="#FF8FFD" id="MRN" d="m241 174 1 1-1-1ZM215 175l-1 1 1-1Z"/><path fill="#FF64FF" id="MB" d="m222 175-1 1 1-1Z"/><path fill="#57B947" id="ProS" d="m96 231 3 2c6.753 0 17.757-15 24-15 0-2.645-18.336-18.172-20-21.5-2.734-5.468-6.29-10.58-9-16-.465-.93-.817-4.5-2-4.5l-26 10c0 6.659 7 12.071 7 18v1l6 8v1l4 4v1c1.198 0 6 4.298 6 6l4 4c1.747 0 2 .253 2 2h1Z"/><path fill="#FD8FFF" id="RR" d="m188 190-2 1c-2.021 0-3.894 4.303-6.5 3-4.403-2.202-6.5-9.648-6.5-14 0-7.903 20-.362 20 5v2l-1 1-3 1-1 1Z"/><path fill="#FF8FFD" id="MRN" d="m214 176-1 1 1-1ZM265 181l-2 4h-9.5l-6.5-4-5-5c.401 0 10.88 7.19 12.5 8 3.226 1.613 7.482-3 10.5-3Z"/><path fill="#FD8FFF" id="RR" d="m268 190 2 1c2.021 0 3.894 4.303 6.5 3 3.679-1.84 7.5-9.719 7.5-14 0-9.052-15.394 1-19 1l-2 4 1 3 3 1 1 1Z"/><path fill="#57B947" id="ProS" d="M357 233h1c0-1.577 1.762-2 3-2l1-1 1-1 1-1 1-1 1-1 1-1 1-1 1-1 1-1 1-1 1-1 1-1 1-1 1-1 1-2 1-1 1-1 1-2 1-1 1-1 1-2 1-2 1-2 1-1v-1c0-1.238.423-3 2-3v-1l1-2 1-2c0-1.424.362-5 2-5v-2l-27-10c0 8.134-12.552 23.052-18.5 29L334 217c0 1.493 20.523 16 23 16Z"/><path fill="#FF8FFD" id="MRN" d="m213 177-2 2c1.747 0 2-.253 2-2Z"/><path fill="#FF64FF" id="MB" d="m235 177 1 1-1-1Z"/><path fill="#FF8DFD" id="SNr" d="M177 206v1c0 2.379 3.292 4.917 2 7.5-1.914 3.828-7.407-1.453-9.5-2.5-10.323-5.162-16.979-7.457-22.5-18.5-1.131-2.261-2.284-14.108.5-15.5 5.655-2.827 12.561 8 17.5 8 0 5.628 4.476 7 8 7l2 10c-4.146 0 0 5.996 0 1l2 2Z"/><path fill="#FF64FF" id="MB" d="m221 178-1 1 1-1Z"/><path fill="#FF8DFD" id="SNr" d="M279 207v1l-2 6.5c2.008 4.016 9.198-2.349 11.5-3.5 15.512-7.756 12.541-3.581 20.5-19.5 1.483-2.965 3.955-11.273-.5-13.5-5.627-2.814-12.243 8-17.5 8 0 3.81-2.979 8-7 8 0 3.414-3 6.353-3 10 2.695 0 2.695 1 0 1h-1v1l-1 1Z"/><path fill="#FF8FFD" id="MRN" d="m209 182-4 1c0-1.617 4.583-4 6-4l-1 2-1 1Z"/><path fill="#FF64FF" id="MB" d="m211 214 6 2 2-6 2-4 1-4c-6.007 0-1-8.725-1-10l-2-3.5 1-9.5-2 1-5.5 7c-.903.451-7.453 2.406-5.5-1.5l2-3.5-4 1c0 3.274-9.698 2-12 2v2c1.773 0 9 1.101 9 3.5l-5 4.5c2.63 0 5.475-3.513 8.5-2 1.072.536 5.5 19.113 5.5 21ZM246 215c-2.884 0-6.342 2-7 2 0-3.091-2-5.478-2-8l-1-2-1-5 2-2.5c1.65-3.301-2-6.145-2-7.5l2-2.5c1.489-2.977-1-8.046-1-10.5l3 1c0 2.449 8.163 11.174 10 7.5 1.29-2.579-2-4.232-2-6.5l6.5 4h9.5l1 3c-1.376 0-10-1.579-10 2.5l6 5.5c-2.745 0-4.923-4.789-8.5-3-4.325 2.163-5.5 17.633-5.5 22Z"/><path fill="#C7C8CC" id="alv" d="M66 186c0 6.659 7 12.071 7 18-2.606 0-10-20.541-10-24l3 6Z"/><path fill="#FF64FF" id="MB" d="m210 181-1 1 1-1Z"/><path fill="#C7C8CC" id="alv" d="M391 186v1c1.995 0 2-4.377 2-6-1.014 0-2 3.959-2 5Z"/><path fill="#FFA6FD" id="SNc" d="M165 186c4.109 0 8 1.168 8 7-3.524 0-8-1.372-8-7ZM291 186c-5.216 0-7 1.543-7 8 4.021 0 7-4.19 7-8Z"/><path fill="#FF64FF" id="MB" d="m193 187-1 1 1-1Z"/><path fill="#C8C8CB" id="rust" d="M194 197h1l1-1 1-1 5-4.5c0-2.399-7.227-3.5-9-3.5l-1 1-3 1-1 1-2 1c0 6.013-1.623 7 7 7l1-1ZM260 196l2 1c8.463 0 8 2.417 8-6l-2-1-1-1-3-1c-1.376 0-10-1.579-10 2.5l6 5.5Z"/><path fill="#C7C8CC" id="alv" d="M391 188c-1.638 0-2 3.576-2 5 1.638 0 2-3.576 2-5Z"/><path fill="#FF64FF" id="MB" d="m189 189-1 1 1-1ZM267 189l1 1-1-1ZM227 192h2c0-1.399-2-1.399-2 0Z"/><path fill="#FFA6FF" id="IF" d="m230 199 5 3 2-2.5c1.65-3.301-2-6.145-2-7.5h-14c0 1.275-5.007 10 1 10 0-1.077 3.762-3 5-3h3Z"/><path fill="#FFC295" id="PRNr" d="M187 221c0-1.961 2.722-.389 3.5 0 4.863 2.431 11.906 7 17.5 7l3-2.5V214c0-1.887-4.428-20.464-5.5-21-3.025-1.513-5.87 2-8.5 2l-1 1-1 1h-1l-1 1c0 1.882-8.422 8.343-10 11.5-1.379 2.759.856 11.5 4 11.5ZM269 221c0-1.961-2.722-.389-3.5 0-4.863 2.431-11.906 7-17.5 7l-3-3.5c-1.386-2.772 1-7.269 1-9.5 0-4.367 1.175-19.837 5.5-22 3.577-1.789 5.755 3 8.5 3l2 1 3.5 3c3.151 3.151 5.691 5.881 7.5 9.5 1.368 2.737-.495 11.5-4 11.5Z"/><path fill="#C7C8CC" id="alv" d="m389 193-1 2 1-2ZM388 195l-1 2 1-2Z"/><path fill="#FF64FF" id="MB" d="m196 196-1 1 1-1ZM194 197l-1 1 1-1Z"/><path fill="#C7C8CC" id="alv" d="m387 200-2 1c0-1.238.423-3 2-3v2Z"/><path fill="#C8C8CB" id="rust" d="M177 206v1c1.602 0 2.384 3.058 4.5 2 5.32-2.66-1.544-14.412-4.5-8.5v5.5Z"/><path fill="#FEA4FF" id="IPDM" d="M221 206v1c3.744 0 6-4.86 6-8-1.238 0-5 1.923-5 3l-1 4Z"/><path fill="#FEA6FE" id="IPA" d="M233 212v1l-4.5-2-3 2-2.5-1-1-1-1-1v-3c3.744 0 6-4.86 6-8h3c0 3.153 1.101 8 5 8v3l-1 1-1 1Z"/><path fill="#FEA4FF" id="IPDM" d="M235 207h1l-1-5-5-3c0 3.153 1.101 8 5 8Z"/><path fill="#C8C8CB" id="rust" d="M279 207v1l-4.5 1c-4.532-2.266 1.688-15.125 5.5-7.5v4.5l-1 1Z"/><path fill="#C8CBCC" id="ec" d="M385 202v1c1.577 0 2-1.762 2-3l-2 1v1Z"/><path fill="#C7C8CC" id="alv" d="M384 203h1v-1l-1 1Z"/><path fill="#FFA6FD" id="SNc" d="M175 203c-4.146 0 0 5.996 0 1v-1ZM281 204c2.695 0 2.695 1 0 1v-1Z"/><path fill="#C7C8CC" id="alv" d="M383 205h1v-2l-1 2Z"/><path fill="#C8CBCC" id="ec" d="m385 203-1 2v-2h1Z"/><path fill="#C7C8CC" id="alv" d="m75 210 4 3-6-8 2 4v1ZM382 207h1v-2l-1 2Z"/><path fill="#C8CBCC" id="ec" d="m384 205-1 2v-2h1Z"/><path fill="#FFA6FE" id="IPN" d="m221 209-2 1 2-4v3Z"/><path fill="#FF64FF" id="MB" d="m280 206-1 1 1-1Z"/><path fill="#FFA6FE" id="IPN" d="m237 209-2 1v-3h1l1 2Z"/><path fill="#C7C8CC" id="alv" d="m382 208-1 1 1-2v1Z"/><path fill="#C8CBCC" id="ec" d="m383 207-1 1v-1h1Z"/><path fill="#FDA6FE" id="IPDL" d="M219 217h3l1-1v-4l-1-1-1-1v-1l-2 1-2 6v1h2ZM237 217h2c0-3.091-2-5.478-2-8l-2 1-1 1-1 1v1l1 4h3Z"/><path fill="#C7C8CC" id="alv" d="M380 210h1v-1l-1 1Z"/><path fill="#C8CBCC" id="ec" d="M83 218v1c-1.489 0-8-7.014-8-9l4 3v1l4 4Z"/><path fill="#FFA6FE" id="IPN" d="m221 210 1 1-1-1Z"/><path fill="#C7C8CC" id="alv" d="M379 211h1v-1l-1 1Z"/><path fill="#C8CBCC" id="ec" d="m381 210-1 1v-1h1Z"/><path fill="#FFA6FE" id="IPN" d="M223 216c2.838 0 4.342-1 6.5-1l4.5 2-1-4-4.5-2-3 2-2.5-1v4ZM234 211l-1 1 1-1Z"/><path fill="#C7C8CC" id="alv" d="M378 213h1v-2l-1 2Z"/><path fill="#C8CBCC" id="ec" d="m380 211-1 1v-1h1Z"/><path fill="#C7C8CC" id="alv" d="M377 214h1v-1l-1 1Z"/><path fill="#C8CBCC" id="ec" d="m379 213-1 1v-1h1Z"/><path fill="#C7C8CC" id="alv" d="m79 214 4 4-4-4Z"/><path fill="#FF9B88" id="P" d="M183 275c0 3.816 17.787 3 21 3 11.178 0 23.224-5.638 32.5-1 3.616 1.808 9.273-.864 13 1 2.812 1.406 7.078-.461 10 1 1.554.777 14.5-2.897 14.5-4l-6-.5c0-2.581 5-2.797 5-5.5l-8.5 4-26 1c-10.481-5.241-7.5-25.675-7.5-35 0-7.822 2.842-8 10-8l7-3-3-3.5c-1.386-2.772 1-7.269 1-9.5-2.884 0-6.342 2-7 2v1c1.657 0 1.894 8-1 8l-1 1h-2l-2 1c0 2.835-9.035 0-10 0l-2-1c-5.21 0-4-4.941-4-9v-2l-6-2v11.5l-3 2.5c2.607 0 4.913 3 7 3 7.158 0 10 .178 10 8 0 5.839 3.914 13.672 1 19.5-2.268 4.535-2.894 12.697-8.5 15.5-2.801 1.401-11.667.167-14-1-7.615-3.807-17.915 4.67-26.5-12.5-2.163-4.325-6.605-20.448-.5-23.5l4.5 1c0-2.107 11.496-5 13.5-5 1.278 0 5.5.665 5.5-1l-12-7-1 1 4 4.5-2.5.5c-4.306 2.153-7.356-1-11.5-1l-5 1c0 3.176 4.619 15-3 15 0 6.049 7.603 17.103 12 21.5l7 7-5 .5Z"/><path fill="#C7C8CC" id="alv" d="M376 215h1v-1l-1 1Z"/><path fill="#C8CBCC" id="ec" d="m378 214-1 1v-1h1Z"/><path fill="#FFA5FE" id="IPC" d="M223 228c.965 0 10 2.835 10 0v-1c0-2.69 1-6.675 1-10l-4.5-2c-2.158 0-3.662 1-6.5 1v12Z"/><path fill="#C7C8CC" id="alv" d="M375 217h1v-2l-1 2Z"/><path fill="#C8CBCC" id="ec" d="m377 215-1 2v-2h1Z"/><path fill="#FFA6FE" id="IPN" d="M222 217h1v-1l-1 1Z"/><path fill="#CCCAC7" id="cpd" d="M187 226c-4.714 0-8.444-6.972-12.5-9l-3.5.5 6 12.5c4.144 0 7.194 3.153 11.5 1l2.5-.5-4-4.5Z"/><path fill="#FFA6FE" id="IPN" d="m217 218 2 1v-2h-2v1Z"/><path fill="#FEA6FD" id="IPI" d="M221 227h2v-10h-4v2c0 3.015 2 6.004 2 8ZM235 227h1l2-8-1-2h-3c0 3.325-1 7.31-1 10h2Z"/><path fill="#FFA6FE" id="IPN" d="m239 218-1 1-1-2h2v1Z"/><path fill="#CCCAC7" id="cpd" d="m269 227 4.5-4c4.899-2.449 15.07-10.64 9.5.5l-4 6.5c-3.956 0-6.257 3.122-10.5 1-.655-.328-3.486.473-2.5-1.5l3-2.5Z"/><path fill="#33B931" id="HATA" d="m339 248-4 1c0-7.796-6-15.332-6-24l1-4 1-1 3-3c0 1.493 20.523 16 23 16v1l-4 5c-1.408 0-5 1.197-5 3-1.247 0-5 2.467-5 4l-4 2Z"/><path fill="#C7C8CC" id="alv" d="M374 218h1v-1l-1 1Z"/><path fill="#33B931" id="HATA" d="m118 248 3 1c0-5.163 7-16.834 7-24l-3-5-2-2c-6.243 0-17.247 15-24 15 0 3.086 4 2.914 4 6 2.522 0 6 1.432 6 4l4 2 5 3Z"/><path fill="#FEA5FF" id="IPL" d="M219 219c0 3.015 2 6.004 2 8-5.21 0-4-4.941-4-9l2 1ZM236 227h1l1-1c2.894 0 2.657-8 1-8l-1 1-2 8Z"/><path fill="#C7C8CC" id="alv" d="M373 219h1v-1l-1 1Z"/><path fill="#C8CBCC" id="ec" d="m375 218-1 1v-1h1Z"/><path fill="#C7C8CC" id="alv" d="m83 220 6 5c0-1.702-4.802-6-6-6v1ZM372 220h1v-1l-1 1Z"/><path fill="#C8CBCC" id="ec" d="m374 219-1 1v-1h1ZM92 229h1l-4-4-6-5 3 4 5 4 1 1Z"/><path fill="#7DCD4B" id="HPF" d="m129 221-1 4-3-5 4 1Z"/><path fill="#FF64FF" id="MB" d="m158 220-1 1 1-1Z"/><path fill="#C9C9CB" id="ll" d="M172 231c0 3.176 4.619 15-3 15 0-2.514-15-17.421-15-24l3-1 1-1h1c5.347 0 11.19 11 13 11Z"/><path fill="#CACCC8" id="ml" d="M220 240c0 3.666-5.68 3-8 3 0-1.883-7.696-11-12-11l-12-7-1-4c0-1.961 2.722-.389 3.5 0 4.863 2.431 11.906 7 17.5 7 2.607 0 4.913 3 7 3 0 .65 5 3.932 5 9ZM237 240c0 3.666 5.68 3 8 3 0-4.175 6.881-11 11-11 0-.603 11.562-7 13-7v-4c0-1.961-2.722-.389-3.5 0-4.863 2.431-11.906 7-17.5 7l-7 3c0 .697-4 3.184-4 9Z"/><path fill="#C9C9CB" id="ll" d="M284 231c0 3.393-3.425 15 3 15 2.245 0 15-20.802 15-24l-3-1-1-1h-1c-5.347 0-11.19 11-13 11Z"/><path fill="#FF64FF" id="MB" d="m298 220 1 1-1-1Z"/><path fill="#7DCD4B" id="HPF" d="m331 220-1 1 1-1Z"/><path fill="#C7C8CC" id="alv" d="M371 221h1v-1l-1 1Z"/><path fill="#C8CBCC" id="ec" d="m373 220-1 1v-1h1Z"/><path fill="#F0F080" id="CB" d="M145 235h3l1-9.5 4-3.5c-15.309 0-8 .85-8 13ZM308 235h3c0-4.639 3-9.142 3-11.5 0-2.772-10-3.107-10-.5 5.194 0 4 9.868 4 12Z"/><path fill="#7DCD4B" id="HPF" d="m330 221-1 4-2-4h3Z"/><path fill="#C7C8CC" id="alv" d="M370 222h1v-1l-1 1Z"/><path fill="#C8CBCC" id="ec" d="m372 221-1 1v-1h1Z"/><path fill="#CCCCCA" id="mcp" d="M181 275h2l5-.5-7-7c-4.397-4.397-12-15.451-12-21.5 0-2.514-15-17.421-15-24h-1l-4 3.5-1 9.5 3 3.5v7c1.432 2.864 5 5.055 5 8.5l6 8 3 3 4 4h1l2 2h1c1.238 0 3 .423 3 2h1l4 2ZM274 275h1l2-1 2-1h1l2-1 1-1h1l1-1 2-1 1-1 1-1h1l1-1 1-1 1-1 1-1 1-1 1-1 1-1v-1l4-5c0-1.611 7-17.69 7-19 0-2.132 1.194-12-4-12l-2-1c0 3.198-12.755 24-15 24 0 4.479-10.311 23-14 23 0 2.703-5 2.919-5 5.5l6 .5Z"/><path fill="#C7C8CC" id="alv" d="M369 223h1v-1l-1 1Z"/><path fill="#C8CBCC" id="ec" d="m371 222-1 1v-1h1Z"/><path fill="#C7C8CC" id="alv" d="M368 224h1v-1l-1 1Z"/><path fill="#C8CBCC" id="ec" d="M369 224h1v-1h-1v1Z"/><path fill="#32B623" id="ENTm6" d="M99 233c0 3.086 4 2.914 4 6h-6.5C94 237.75 82 228.101 82 227l4-3 5 4 1 1h1l2 2h1c0 1.577 1.762 2 3 2Z"/><path fill="#C7C8CC" id="alv" d="M367 225h1v-1l-1 1Z"/><path fill="#C8CBCC" id="ec" d="m369 224-1 1v-1h1Z"/><path fill="#32B623" id="ENTm6" d="m357 234-4 5c4.981 0 21-6.041 21-12l-4-3h-1l-1 1-1 1-1 1-1 1-1 1h-1l-1 1-1 1c0 1.577-1.762 2-3 2l-1 1Z"/><path fill="#FF9B88" id="P" d="M287 246c0 4.479-10.311 23-14 23 0-7.274 15.865-12.77 8-28.5l-.5-3.5c-2.541-1.27-3.709 2-5.5 2 0-4.172-15.294-7-19-7 0-.603 11.562-7 13-7v2l-3 2.5c-.986 1.973 1.845 1.172 2.5 1.5 4.243 2.122 6.544-1 10.5-1l5 1c0 3.393-3.425 15 3 15Z"/><path fill="#C7C8CC" id="alv" d="M366 226h1v-1l-1 1Z"/><path fill="#C8CBCC" id="ec" d="m368 225-1 1v-1h1Z"/><path fill="#FFA6FE" id="IPN" d="m238 226-1 1 1-1Z"/><path fill="#C7C8CC" id="alv" d="M365 227h1v-1l-1 1Z"/><path fill="#C8CBCC" id="ec" d="m367 226-1 1v-1h1Z"/><path fill="#30B724" id="ENTm5" d="M103 239c2.522 0 6 1.432 6 4-2.592 0-3.416.958-5.5 2-7.615 3.807-15.592-5.296-21-8l-7.5-7v-1c1.623 0 6-.005 6-2h1c0 1.101 12 10.75 14.5 12h6.5Z"/><path fill="#FFA6FE" id="IPN" d="M223 227v1l-2-1h2ZM235 227l-2 1v-1h2Z"/><path fill="#C7C8CC" id="alv" d="M364 228h1v-1l-1 1Z"/><path fill="#C8CBCC" id="ec" d="m366 227-1 1v-1h1Z"/><path fill="#30B724" id="ENTm5" d="M353 239c-1.408 0-5 1.197-5 3 0 3.015 8.077 3 10.5 3 4.023 0 22.5-10.065 22.5-15l-6-3h-1c0 5.959-16.019 12-21 12Z"/><path fill="#7DCD4B" id="HPF" d="m91 228 1 1-1-1Z"/><path fill="#C7C8CC" id="alv" d="M363 229h1v-1l-1 1Z"/><path fill="#C8CBCC" id="ec" d="m365 228-1 1v-1h1Z"/><path fill="#C7C8CC" id="alv" d="M93 229c1.747 0 2 .253 2 2l-2-2ZM363 229l-1 1 1-1Z"/><path fill="#31B723" id="ENTm3" d="m109 243 4 2c0 3.235-8.533 3.017-10.5 4-11.008 5.504-28.205-14-34.5-14l1-2 6-3 7.5 7c5.408 2.704 13.385 11.807 21 8 2.084-1.042 2.908-2 5.5-2Z"/><path fill="#C7C8CC" id="alv" d="m362 230-1 1 1-1Z"/><path fill="#31B723" id="ENTm3" d="M348 242c-1.247 0-5 2.467-5 4 2.7 0 9.886 2.693 12.5 4 4.591 2.295 19.047-7.024 23-9 1.735-.867 9.5-4.813 9.5-7l-1-1-5-3h-1c0 4.935-18.477 15-22.5 15-2.423 0-10.5.015-10.5-3Z"/><path fill="#C7C8CC" id="alv" d="m96 231 3 2c-1.238 0-3-.423-3-2Z"/><path fill="#FEBA85" id="TRN" d="m225 239-5 1c0-5.068-5-8.35-5-9 7.158 0 10 .178 10 8ZM231 239l6 1c0-5.816 4-8.303 4-9-7.158 0-10 .178-10 8Z"/><path fill="#C7C8CC" id="alv" d="M361 231c-1.238 0-3 .423-3 2 1.238 0 3-.423 3-2Z"/><path fill="#FEBA85" id="TRN" fill-rule="evenodd" d="m195 237-2 4.5c4.12 8.24 17.126 1.813 8.5-2.5h-4l-2.5-2m-14 1c0 10.037 18.475 11.013 24.5 8 1.265-.632 6.5-1.278 6.5-3 0-1.883-7.696-11-12-11 0 1.665-4.222 1-5.5 1-2.004 0-13.5 2.893-13.5 5ZM259 238c0 .482-12.206 3.647-5.5 7 7.608 3.804 14.319-7 5.5-7m16 1c0 11.495-30 8.752-30 4 0-4.175 6.881-11 11-11 3.706 0 19 2.828 19 7Z"/><path fill="#C7C8CC" id="alv" d="m358 233-1 1v-1h1Z"/><path fill="#30B824" id="ENTm2" d="M355 256h3c0-1.183 3.57-1.535 4.5-2l14-5c3.215-1.608 17.283-11 19.5-11v-1c-3.47 0-5.278-3-8-3 0 2.187-7.765 6.133-9.5 7-3.953 1.976-18.409 11.295-23 9-2.614-1.307-9.8-4-12.5-4l-4 2c0 3.863 12.822 8 16 8ZM99 256h3c5.899 0 13.036-8 16-8l-5-3c0 3.235-8.533 3.017-10.5 4-11.008 5.504-28.205-14-34.5-14l-7 2v1c0 2.104 6.951 4.226 8.5 5 7.064 3.532 14.067 6.534 21 10 1.479.739 8.5.967 8.5 3Z"/><path fill="#CCCBCA" id="moV" d="M149 251c.48 0 2.292 3 7 3 0-3.445-3.568-5.636-5-8.5v-7l-3-3.5h-3v4c3.085 0 4 9.318 4 12ZM307 251c-.944 0-6 7.428-6 3 0-1.611 7-17.69 7-19h3v1c0 5.858-4 8.923-4 15Z"/><path fill="#F0F080" id="CB" d="M307 251v3c3.755 0 3.785-11.069 5-13.5.504-1.008.22-4.5-1-4.5 0 5.858-4 8.923-4 15Z"/><path fill="#FFB885" id="PG" d="M220 240c0 3.666-5.68 3-8 3 0 1.722-5.235 2.368-6.5 3-6.025 3.013-24.5 2.037-24.5-8l-4.5-1c-6.105 3.052-1.663 19.175.5 23.5 8.585 17.17 18.885 8.693 26.5 12.5 2.333 1.167 11.199 2.401 14 1 5.606-2.803 6.232-10.965 8.5-15.5 2.914-5.828-1-13.661-1-19.5l-5 1Z"/><path fill="#C8C7CC" id="cst" d="m195 237-2 4.5c4.12 8.24 17.126 1.813 8.5-2.5h-4l-2.5-2Z"/><path fill="#FFB885" id="PG" d="M237 240c0 3.666 5.68 3 8 3 0 4.752 30 7.495 30-4 1.791 0 2.959-3.27 5.5-2l.5 3.5c7.865 15.73-8 21.226-8 28.5l-8.5 4-26 1c-10.481-5.241-7.5-25.675-7.5-35l6 1Z"/><path fill="#31B625" id="ENTm1" d="m99 256-8 2c-10.576 0-20.538-8.519-29.5-13-1.657-.829-7.5-3.415-7.5-6 1.819 0 4.59-1 7-1 0 2.104 6.951 4.226 8.5 5 7.064 3.532 14.067 6.534 21 10 1.479.739 8.5.967 8.5 3Z"/><path fill="#C8C7CC" id="cst" d="M259 238c0 .482-12.206 3.647-5.5 7 7.608 3.804 14.319-7 5.5-7Z"/><path fill="#31B625" id="ENTm1" d="m358 256 7 2c10.576 0 20.538-8.519 29.5-13 1.582-.791 8.5-3.942 8.5-6l-7-1c-2.217 0-16.285 9.392-19.5 11l-14 5c-.93.465-4.5.817-4.5 2Z"/><path fill="#F0F080" id="CB" d="M149 251v2c-3.97 0-4-10.934-4-14 3.085 0 4 9.318 4 12Z"/><path fill="#31B625" id="ENTm1" d="M102 256c0 2.488 6.101 2 8 2 3.024 0 11-5.859 11-9l-3-1c-2.964 0-10.101 8-16 8ZM355 256c0 1.931-6.225 2-8 2-3.175 0-12-5.487-12-9l4-1c0 3.863 12.822 8 16 8Z"/><path fill="#FF9B88" id="P" d="m156 254 6 8-5.5-5c-2.449-1.224-7.5-.092-7.5-4v-2c.48 0 2.292 3 7 3ZM307 254l-10 5 4-5c0 4.428 5.056-3 6-3v3Z"/><path fill="#60E6B5" id="COApm" d="M91 258c0 5.256 19 2.97 19 0-1.899 0-8 .488-8-2h-3l-8 2ZM347 258c0 3.559 18 4.938 18 0l-7-2h-3c0 1.931-6.225 2-8 2Z"/><path fill="#FF9B88" id="P" d="m297 260-1 1 1-1ZM295 262l-1 1 1-1ZM293 264l-1 1 1-1ZM165 265l4 4-4-4ZM291 266l-1 1 1-1ZM289 267l-1 1 1-1ZM288 268l-1 1 1-1ZM170 269l2 2-2-2ZM287 269l-2 1 2-1ZM285 270l-1 1 1-1ZM173 271c1.238 0 3 .423 3 2l-3-2ZM283 271l-1 1 1-1ZM282 272l-2 1 2-1ZM177 273l4 2-4-2ZM279 273l-2 1 2-1ZM277 274l-2 1 2-1Z"/></svg>