<svg xmlns="http://www.w3.org/2000/svg" viewBox="0 0 456 320"><path fill="#1BA696" id="RSPagl1" d="M208 23c-7.781 0-15.793 1-23 1v-5h23v4ZM249 23c7.464 0 15.1 1 22 1l1-5h-23v4Z"/><path fill="#187F60" id="SSp-ll1" d="M135 34h1c0-1.233 7.258-2.379 8.5-3 8.33-4.165 18.533-7 28.5-7 0-1.186 1-1.186 1 0h1l-4-5c-8.529 0-18.317 2.409-25.5 6-1.847.924-10.5 1.09-10.5 4v5Z"/><path fill="#187C64" id="SSp-tr1" d="M175 24h10v-5h-14l4 5Z"/><path fill="#1BA598" id="RSPd1" d="M223 47h10c0-9.455 3.347-23 15-23l1-1v-4c-5.278 0-11.327 2.154-14 7.5l-6.5 8.5-5-6c-4.959-4.959-7.974-10-15.5-10v4c5.283 0 12.683 7.865 15 12.5V47Z"/><path fill="#187C64" id="SSp-tr1" d="M271 24h11c0-1.947 3-2.636 3-5h-13l-1 5Z"/><path fill="#187F60" id="SSp-ll1" d="m322 29-1 5c-3.639 0-9.268-3.384-12.5-5-7.185-3.593-17.935-5-26.5-5 0-1.947 3-2.636 3-5 8.702 0 19.165 2.333 26.5 6 1.765.883 10.5 1.45 10.5 4Z"/><path fill="#187C64" id="SSp-tr1" d="M173 24h1c0-1.186-1-1.186-1 0Z"/><path fill="#1AA496" id="RSPagl2/3" d="M198 28h10v-5c-7.781 0-15.793 1-23 1v5c4.569 0 8.923-1 13-1Z"/><path fill="#1BA697" id="RSPd2/3" d="m223 48-5 2c0-3.513-.581-16-6-16l-4-6v-5c5.283 0 12.683 7.865 15 12.5V48ZM249 23l-1 1 1-1Z"/><path fill="#1AA496" id="RSPagl2/3" d="m259 28 12 1v-5c-6.9 0-14.536-1-22-1l-1 1 1 4h10Z"/><path fill="#187F64" id="SSp-ll2/3" d="M138 47h1l8.5-4c6.516-3.258 24.957-8 32.5-8 0-4.137-6-7.606-6-11h-1c-9.967 0-20.17 2.835-28.5 7-1.242.621-8.5 1.767-8.5 3l2 13Z"/><path fill="#188061" id="SSp-tr2/3" d="M182 35h1c0-2.426-1.024-6 2-6v-5h-11c0 3.394 6 6.863 6 11h2Z"/><path fill="#1BA697" id="RSPd2/3" d="M233 48c2.72 0 3.553 2 6 2 0-3.792-.725-16 5-16l1-1c0-2.813 4-3.461 4-5l-1-4c-11.653 0-15 13.545-15 23v1Z"/><path fill="#188061" id="SSp-tr2/3" d="M275 35h1c0-3.918 6-7.759 6-11h-11v5c2.53 0 3 3.645 3 6h1Z"/><path fill="#187F64" id="SSp-ll2/3" d="M276 35c7.831 0 25.769 4.634 32.5 8 2.922 1.461 6.023 4 9.5 4 0-4.671 3-8.806 3-13-3.639 0-9.268-3.384-12.5-5-7.185-3.593-17.935-5-26.5-5 0 3.241-6 7.082-6 11Z"/><path fill="#1E9D58" id="MOs2/3" d="m259 31-14 2c0-2.813 4-3.461 4-5h10v3Z"/><path fill="#1F9C58" id="MOp2/3" d="m198 31-15 4c0-2.426-1.024-6 2-6 4.569 0 8.923-1 13-1v3Z"/><path fill="#1E9D58" id="MOs2/3" d="M198 31c3.611 0 11.224 3 14 3l-4-6h-10v3Z"/><path fill="#1F9C58" id="MOp2/3" d="M274 35v1c-4.743 0-9.864-5-15-5v-3l12 1c2.53 0 3 3.645 3 6Z"/><path fill="#197E64" id="SSp-ul1" d="m119 35 2 6 14-7v-5c-5.942 0-10.612 6-16 6ZM337 35l-2 5-14-6 1-5c5.143 0 11.018 6 15 6Z"/><path fill="#1E9C5A" id="MOp5" d="M193 47h1l4-16-15 4-1 2-1 16 12-6Z"/><path fill="#1F9D58" id="MOs5" d="M194 47c2.125 0 12-3.56 12 2 2.741 0 2.268-4 5-4l1-2c.44 0 0-6.505 0-9-2.776 0-10.389-3-14-3l-4 16ZM263 47c-2.421 0-6.678-2.411-9.5-1l-3.5 3c-2.741 0-2.268-4-5-4v-1l-1-1c-1.974 0 1.966-1.569 1-3.5-1.399-2.798-1-2.27-1-5.5l1-1 14-2c0 5.606 4 10.887 4 16Z"/><path fill="#1E9C5A" id="MOp5" d="M263 47c4.465 0 7.401 5 12 5 0-4.607-1-10.052-1-14v-2c-4.743 0-9.864-5-15-5 0 5.606 4 10.887 4 16Z"/><path fill="#197F61" id="SSp-ul2/3" d="m138 47-14 7c0-4.553-3-8.75-3-13l14-7h1l2 13Z"/><path fill="#1AA596" id="RSPd5" d="M218 51c-4.071 0-4.832 6-8 6l1-12 1-2c.44 0 0-6.505 0-9 5.419 0 6 12.487 6 16v1ZM239 51c3.414 0 4.207 6 8 6l-2-12v-1l-1-1c-1.974 0 1.966-1.569 1-3.5-1.399-2.798-1-2.27-1-5.5-5.725 0-5 12.208-5 16v1Z"/><path fill="#197F61" id="SSp-ul2/3" d="M318 47c4.679 0 8.635 6 14 6l3-12v-1l-14-6c0 4.194-3 8.329-3 13Z"/><path fill="#1B8062" id="SSp-un1" d="M112 45h1l8-4-2-6-8 4 1 6Z"/><path fill="#1C7F64" id="SSp-ll4" d="m139 47 1 7c8.805 0 32.834-17 41-17v-2h-1c-7.543 0-25.984 4.742-32.5 8l-8.5 4Z"/><path fill="#1B7E62" id="SSp-tr4" d="M181 37h1v-2h-1v2Z"/><path fill="#1F9C58" id="MOp2/3" d="m183 35-1 2v-2h1Z"/><path fill="#1B7E62" id="SSp-tr4" d="M274 37h1v-2h-1v2Z"/><path fill="#1C7F64" id="SSp-ll4" d="M316 54h1l1-7c-3.477 0-6.578-2.539-9.5-4-6.731-3.366-24.669-8-32.5-8h-1v2c4.53 0 27.239 11.37 32.5 14 1.397.699 8.5 1.242 8.5 3Z"/><path fill="#1B8062" id="SSp-un1" d="m335 41 9 4 1-6-8-4-2 5v1Z"/><path fill="#197C63" id="SSp-ll5" d="M140 54c0 4.236 4 8.12 4 12 8.88 0 29.599-13 37-13l1-16h-1c-8.166 0-32.195 17-41 17Z"/><path fill="#197F60" id="SSp-tr5" d="m275 37-1 1v-1h1Z"/><path fill="#197C63" id="SSp-ll5" d="m316 54-3 12c-8.795 0-31.062-13-37-13l-1-1c0-4.607-1-10.052-1-14l1-1c4.53 0 27.239 11.37 32.5 14 1.397.699 8.5 1.242 8.5 3Z"/><path fill="#188060" id="SSp-bfd1" d="M49 96h1l5-1h1c0-3.647 5.783-8.066 7-10.5C69.45 71.6 86.982 58.26 99.5 52c3.549-1.775 8.442-7 12.5-7l-1-6c-4.869 0-10.261 5.88-14.5 8C84.328 53.086 66.59 66.321 60 79.5 57.508 84.484 49 90.299 49 96ZM407 96l-1 1c0-2.278-3.15-2-5-2h-1c0-6.304-8.312-11.124-11-16.5-4.108-8.215-21.64-21.07-30.5-25.5-4.239-2.12-9.631-8-14.5-8l1-6c5.23 0 10.022 5.761 14.5 8 11.579 5.79 28.869 18.238 34.5 29.5 3.089 6.178 13 12.314 13 19.5Z"/><path fill="#1C7F63" id="SSp-un2/3" d="M115 57h1l8-3c0-4.553-3-8.75-3-13l-8 4c0 4.5 2 7.354 2 12ZM332 54l9 3c0-5.114 3-7.584 3-12l-9-4-3 12v1Z"/><path fill="#3EA566" id="ACAd5" d="m212 43-1 2 1-2ZM244 43l1 1-1-1Z"/><path fill="#187F63" id="SSp-bfd2/3" d="M67 95h1c0-8.294 24.51-26.505 31.5-30l15.5-8c0-4.646-2-7.5-2-12h-1c-4.058 0-8.951 5.225-12.5 7C86.982 58.26 69.45 71.6 63 84.5c-1.217 2.434-7 6.853-7 10.5h11Z"/><path fill="#3EA566" id="ACAd5" d="M208 63h1l1-6 1-12c-2.732 0-2.259 4-5 4v1c2.854 0-.854 13 2 13ZM248 63h1c0-4.284 1-9.371 1-13v-1c-2.741 0-2.268-4-5-4l2 12 1 6Z"/><path fill="#187F63" id="SSp-bfd2/3" d="M389 95h11c0-6.304-8.312-11.124-11-16.5-4.108-8.215-21.64-21.07-30.5-25.5-4.239-2.12-9.631-8-14.5-8 0 4.416-3 6.886-3 12v1c8.455 0 36.166 18.832 40 26.5l8 10.5Z"/><path fill="#1D9C5A" id="MOs6a" d="M196 66h1c0-2.602 7.3-16 9-16v-1c0-5.56-9.875-2-12-2h-1c0 6.487-2 11.93-2 19h5ZM260 66h5c1.156 0 1.472-2.556 1-3.5-1.664-3.329-3-11.903-3-15.5-2.421 0-6.678-2.411-9.5-1l-3.5 3v1c2.073 0 10 13.84 10 16Z"/><path fill="#1A7F63" id="SSp-ul4" d="m140 54-14 6c-.675 0-2-5.294-2-6l14-7h1l1 7Z"/><path fill="#1F9B5A" id="MOp6a" d="m187 69-8 2c0-6.444 2-12.389 2-18l12-6c0 6.487-2 11.93-2 19v1c-1.465 0-4-.109-4 2Z"/><path fill="#1BA597" id="RSPv1" d="M229 83h1l3-2V47h-10v34c1.238 0 3 .423 3 2h1c0-3.15 2-3.446 2 0Z"/><path fill="#1F9B5A" id="MOp6a" d="M265 67c4.875 0 8.125 4 13 4 0-5.504-2-11.521-2-18l-1-1c-4.599 0-7.535-5-12-5 0 3.597 1.336 12.171 3 15.5.472.944.156 3.5-1 3.5v1Z"/><path fill="#1A7F63" id="SSp-ul4" d="M330 60h1c0-2.813 1-3.921 1-6v-1c-5.365 0-9.321-6-14-6l-1 7 13 6Z"/><path fill="#1AA597" id="RSPv2/3" d="M219 81h4V48l-5 2v1c0 9.92 1 20.748 1 30ZM233 81h5l1-30v-1c-2.447 0-3.28-2-6-2v33Z"/><path fill="#3FA664" id="ACAd6a" d="m197 66 4 3c2.734 0 4.039-5 7-5v-1c-2.854 0 .854-13-2-13-1.7 0-9 13.398-9 16ZM255 70h1l1-1c0-1.54 1.342-3 3-3 0-2.16-7.927-16-10-16 0 3.629-1 8.716-1 13v1l6 6Z"/><path fill="#1BA498" id="RSPv5" d="M219 81c-2.707 0-5.903 1-8 1 0-5.24-3-10.524-3-16 1.473 0 1-1.952 1-3l1-6c3.168 0 3.929-6 8-6 0 9.92 1 20.748 1 30ZM238 81h7c1.19 0 3-12.645 3-15v-3l-1-6c-3.793 0-4.586-6-8-6l-1 30Z"/><path fill="#1A7F64" id="SSp-ll6a" d="M151 80h1c0-1.15 4.516-1.508 5.5-2 3.04-1.52 18.678-7 21.5-7 0-6.444 2-12.389 2-18-7.401 0-28.12 13-37 13v1c.603 0 7 11.562 7 13ZM278 72c9.149 0 18.152 8 27 8l2-2.5c.917-1.835 3.546-10.5 6-10.5v-1c-8.795 0-31.062-13-37-13 0 6.479 2 12.496 2 18v1Z"/><path fill="#197E61" id="SSp-un4" d="m126 61-8 4c0-3.426-2-4.773-2-8l8-3c0 .706 1.325 6 2 6v1Z"/><path fill="#187E62" id="SSp-ul5" d="M144 67c-5.574 0-9.948 6-15 6l-3-12v-1l14-6c0 4.236 4 8.12 4 12v1ZM313 67c5.266 0 8.809 5 14 5 2.314 0 3-11.103 3-12l-13-6h-1l-3 12v1Z"/><path fill="#197E61" id="SSp-un4" d="M331 60c0 1.343 5.135 5 7 5 1.925 0 .787-7 3-7v-1l-9-3c0 2.079-1 3.187-1 6Z"/><path fill="#197C64" id="SSp-bfd4" d="M68 95h11l2-1 8-7.5c1.209-2.417 25.729-20.5 29-20.5v-1c0-3.426-2-4.773-2-8h-1l-15.5 8C92.51 68.495 68 86.706 68 95ZM377 95h12l-8-10.5c-3.834-7.668-31.545-26.5-40-26.5-2.213 0-1.075 7-3 7l1 2c5.65 0 24.733 15.233 29 19.5 2.206 2.206 8 4.766 8 8.5h1Z"/><path fill="#197D62" id="SSp-un5" d="m327 73 8 4c2.329 0 .317-10 4-10l-1-2c-1.865 0-7-3.657-7-5h-1c0 .897-.686 12-3 12v1ZM129 73l-8 4-3-11v-1l8-4 3 12Z"/><path fill="#3EA666" id="ACAv5" d="M208 64v2c1.473 0 1-1.952 1-3h-1v1ZM248 66h1v-3h-1v3Z"/><path fill="#40A564" id="ACAv6a" d="m201 71 6 6c0-1.741-.773-11 1-11v-2c-2.961 0-4.266 5-7 5v2ZM249 77h2c0-2.919 4-4.243 4-7l-6-6v13Z"/><path fill="#1E9C58" id="MOs6b" d="M191 67h5v-1h-5v1ZM260 67h5v-1h-5v1Z"/><path fill="#1A7D62" id="SSp-bfd5" d="M94 95h2l1-1c0-2.417 4.092-3.296 5.5-4 5.476-2.738 12.213-12 18.5-12v-1l-3-11c-3.271 0-27.791 18.083-29 20.5L81 94c0 1.356 13-.64 13 1Z"/><path fill="#3FA466" id="ACAd6b" d="M201 69v2l-5-4v-1h1l4 3Z"/><path fill="#1AA498" id="RSPv6a" d="M211 82v1l-2-2c0-1.238-.423-3-2-3v-1c0-1.741-.773-11 1-11 0 5.476 3 10.76 3 16ZM245 82l1 1 2-2 1-2V66h-1c0 2.355-1.81 15-3 15v1Z"/><path fill="#3FA466" id="ACAd6b" d="M260 67c0 1.577-1.762 2-3 2 0-1.54 1.342-3 3-3v1Z"/><path fill="#197D61" id="SSp-ul6a" d="M151 80c-5.174 0-13.421 9-17 9l-5-16c5.052 0 9.426-6 15-6 .603 0 7 11.562 7 13Z"/><path fill="#1D9D5A" id="MOp6b" d="M191 67c-1.465 0-4-.109-4 2l4-2Z"/><path fill="#CACCC7" id="cing" d="M211 83v1c-7.402 0-12.585-7.042-18.5-10-6.331-3.166-15.648 4-21.5 4-1.296 0-7 2.322-7 0 0-1.951 2.454-.477 3.5-1 2.928-1.464 8.209-4 11.5-4l8-4 4-2h5l5 4c0 2.07 3.396 8 6 8l2 2 2 2ZM245 83h1l2-2 1-2c1.747 0 2-.253 2-2 1.777 0 5-4.013 5-6l1-2c1.238 0 3-.423 3-2h5c0 1.751 11.09 6 13 6 3.195 0 7.694 2.597 10.5 4 1.147.574 4.5-1.064 4.5 1h-9l-1-1c-5.388 0-13.984-5.758-19.5-3-6.214 3.107-10.988 10-18.5 10v-1Z"/><path fill="#1D9D5A" id="MOp6b" d="M278 72v1c-1.91 0-13-4.249-13-6 4.875 0 8.125 4 13 4v1Z"/><path fill="#197D61" id="SSp-ul6a" d="M305 80c6.537 0 11.941 9 18 9l4-16v-1c-5.191 0-8.734-5-14-5-2.454 0-5.083 8.665-6 10.5l-2 2.5Z"/><path fill="#1A7D62" id="SSp-bfd5" d="M362 95h14c0-3.734-5.794-6.294-8-8.5-4.267-4.267-23.35-19.5-29-19.5-3.683 0-1.671 10-4 10v1c6.942 0 14.44 9.97 20.5 13 1.212.606 5.5 2.24 5.5 4h1Z"/><path fill="#1D9D5A" id="MOp6b" d="M179 71v2l8-4-8 2Z"/><path fill="#3FA466" id="ACAd6b" d="M256 70v1l1-2-1 1Z"/><path fill="#40A465" id="ACAv6b" d="M256 71c0 1.987-3.223 6-5 6 0-2.919 4-4.243 4-7h1v1Z"/><path fill="#197F62" id="SSp-ll6b" d="M152 80v1l12-3c0-1.951 2.454-.477 3.5-1 2.928-1.464 8.209-4 11.5-4v-2c-2.822 0-18.46 5.48-21.5 7-.984.492-5.5.85-5.5 2Z"/><path fill="#40A465" id="ACAv6b" d="M207 78v1c-2.604 0-6-5.93-6-8l6 6v1Z"/><path fill="#197F62" id="SSp-ll6b" d="M305 80v1l-12-3c0-2.064-3.353-.426-4.5-1-2.806-1.403-7.305-4-10.5-4v-1c9.149 0 18.152 8 27 8Z"/><path fill="#1A7F61" id="SSp-un6a" d="M124 95h1c0-1.948 5.428-4 7-4l2-2-5-16-8 4v1c0 5.969 3 10.613 3 17ZM323 90l9 4c2.064 0 .426-3.353 1-4.5 1.483-2.966 2-8.06 2-11.5v-1l-8-4-4 16v1Z"/><path fill="#C9C7C9" id="ccb" d="m382 174-3 1c0-20.131-27.599-60.55-46.5-70l-10-4-7.5 1c0-1.489-5.42-8-8-8h-1l-1-1h-1l-1-1-10.5-5c-.361-.18-13.108-2-13.5-2-1.51 0-22-5.292-22 2-5.035 0-8.238 5-13 5-4.586 0-11.569.034-15.5 2-.67.335-14.075-2-16.5-2l-19.5-9c-4.614-2.307-10.965 2-14.5 2-.321 0-14.208 1.854-14.5 2L151 93l-1 1-1 1h-1c-2.623 0-6 4.646-6 7-4.973 0-9.64-1.43-14.5 1-20.32 10.16-50.5 48.169-50.5 71h-3v-3l1-1v-3c1.995 0 2-4.377 2-6v-1c1.473 0 1-1.952 1-3l1-2v-1l1-1c1.473 0 1-1.952 1-3 1.638 0 2-3.576 2-5 2.702 0 6.915-11.33 8-13.5 3.912-7.824 19.39-24.445 27.5-28.5l40-20c1.951-.975 12.5-2.389 12.5-5 5.852 0 15.169-7.166 21.5-4 5.915 2.958 11.098 10 18.5 10 3.054 0 4.55 3 8 3l4-1h11l3 1c3.238 0 5.3-3 8-3 7.512 0 12.286-6.893 18.5-10 5.516-2.758 14.112 3 19.5 3l1 1h1c0 1.907 10.725 4.112 12.5 5 6.153 3.077 12.902 4.95 19 8 8.327 4.163 15.685 9.842 24 14 12.216 6.108 24.058 23.615 29.5 34.5 1.019 2.037 4.669 13.5 7 13.5v2l2 3v2c0 1.357.647 6 2 6v1l1 2v5Z"/><path fill="#40A465" id="ACAv6b" d="M251 77c0 1.747-.253 2-2 2v-2h2Z"/><path fill="#C9C9CA" id="scwm" d="m283 77 1 1-1-1Z"/><path fill="#198060" id="SSp-bfd6a" d="M121 97c-2.364 0-3.053 3-5 3 0-1.951-2.454-.477-3.5-1-4.767-2.383-10.551-5-15.5-5 0-2.417 4.092-3.296 5.5-4 5.476-2.738 12.213-12 18.5-12 0 5.969 3 10.613 3 17l-3 2Z"/><path fill="#C9C9CA" id="scwm" d="M91 128c0 6.285-8 10.622-8 17 2.702 0 6.915-11.33 8-13.5 3.912-7.824 19.39-24.445 27.5-28.5l40-20c1.951-.975 12.5-2.389 12.5-5-1.296 0-7 2.322-7 0l-12 3c-5.907 0-11.649 9-17 9 0 1.473-1.952 1-3 1 0 1.948-5.428 4-7 4l-1 1c0 1.473-1.952 1-3 1l-4 4-4 2c0 1.634-2.634 4-4 4l-2 2c0 1.747-.253 2-2 2 0 1.747-.253 2-2 2l-8 8c0 1.465.109 4-2 4 0 1.238-.423 3-2 3Z"/><path fill="#1AA497" id="RSPv6b" d="m207 79 2 2c0-1.238-.423-3-2-3v1Z"/><path fill="#C9C9CA" id="scwm" d="M365 127c0 9.42 12 16.051 12 26-2.331 0-5.981-11.463-7-13.5-5.442-10.885-17.284-28.392-29.5-34.5-8.315-4.158-15.673-9.837-24-14-6.098-3.05-12.847-4.923-19-8-1.775-.888-12.5-3.093-12.5-5h8l12 3c0 1.96 6.099 2.3 7.5 3 2.827 1.413 6.239 6 9.5 6 0 1.054 8.699 6 10 6l7 4c0 2.417 4.092 3.296 5.5 4 4.07 2.035 6.629 8.815 11 11 3.609 1.804 6.129 12 9.5 12Z"/><path fill="#198060" id="SSp-bfd6a" d="M340 100h1c0-2.841 17.968-5 20-5 0-1.76-4.288-3.394-5.5-4-6.06-3.03-13.558-13-20.5-13 0 3.44-.517 8.534-2 11.5-.574 1.147 1.064 4.5-1 4.5v1c1.622 0 7 2.996 7 5h1Z"/><path fill="#1AA497" id="RSPv6b" d="m249 79-1 2 1-2Z"/><path fill="#1C8064" id="SSp-ul6b" d="m134 89 1 1c5.351 0 11.093-9 17-9v-1h-1c-5.174 0-13.421 9-17 9ZM322 90h1v-1c-6.059 0-11.463-9-18-9v1c0 1.96 6.099 2.3 7.5 3 2.827 1.413 6.239 6 9.5 6Z"/><path fill="#3EA666" id="ACAv5" d="M211 84c3.054 0 4.55 3 8 3v-6c-2.707 0-5.903 1-8 1v2Z"/><path fill="#3FA566" id="ACAv2/3" d="m223 86-4 1v-6h4v5Z"/><path fill="#40A664" id="ACAv1" d="M223 86h1l2-3c0-1.577-1.762-2-3-2v5ZM232 86h2l-1-5-3 2 2 3Z"/><path fill="#3FA566" id="ACAv2/3" d="m234 86 3 1c0-2.124 1-4.436 1-6h-5l1 5Z"/><path fill="#3EA666" id="ACAv5" d="M245 84c-2.7 0-4.762 3-8 3 0-2.124 1-4.436 1-6h7v3Z"/><path fill="#40A564" id="ACAv6a" d="M245 83h1l-1-1v1Z"/><path fill="#C7C8CC" id="alv" d="m207 109-4 1c-7.387 0-19.109-9-23-9l-3-2.5c-.731-1.462-.218-3.436-1-5-1.619-3.237 2-6.105 2-8.5 3.535 0 9.886-4.307 14.5-2l19.5 9 8 4 1 5h-2v-3.5c-1.511-3.021-7.006-3.253-9.5-4.5-6.146-3.073-18.562-12.22-27-8-11.334 5.667 7.336 22 14 22H211v1l-4 1Z"/><path fill="#7ED04B" id="IG" d="M224 86h8l-2-3h-4l-2 3Z"/><path fill="#C7C8CC" id="alv" d="m249 109 5 1c7.793 0 17.716-9 23-9 0-1.84 2.035-3.57 3-5.5 1.514-3.028-1-7.882-1-10.5-1.51 0-22-5.292-22 2 4.573 0 11.455-4.522 16.5-2 8.521 4.26.297 15.351-5 18-3.977 1.988-13.656 7.672-19 5l-6.5-2 2 2 4 1Z"/><path fill="#A8AAAA" id="VL" fill-rule="evenodd" d="m166 90-4 4.5c-.814 1.628 2.336 7.328 1 10-1.71 3.42-10.083 5.833-8 10 1.842 3.684 6.534-.517 8.5-1.5 9.055-4.528 19.523-23 2.5-23m-20 14c0 2.766 9 12.477 9 19l2.5-4c5.87-2.935 15.253-5.253 20-10 1.325-1.325 1.334-8 2.5-8l-3-2.5c-.731-1.462-.218-3.436-1-5-1.619-3.237 2-6.105 2-8.5-.321 0-14.208 1.854-14.5 2L151 93l-1 1-1 1h-1l-3 3.5c-.978 1.956 1 4.077 1 5.5Z"/><path fill="#7ECF49" id="CA3" d="m213 106-2 1h-14.5c-6.664 0-25.334-16.333-14-22 8.438-4.22 20.854 4.927 27 8 2.494 1.247 7.989 1.479 9.5 4.5v3.5l-3 2-1 1-1 1-1 1ZM242 105l1 1 6.5 2c5.344 2.672 15.023-3.012 19-5 5.297-2.649 13.521-13.74 5-18-5.045-2.522-11.927 2-16.5 2 0 2.51-10.703 6-13 6 0 2.109-2.535 2-4 2 0 2.165-3 2.546-3 6h1l1 1 2 2 1 1Z"/><path fill="#A8AAAA" id="VL" fill-rule="evenodd" d="m286 90-3 2.5-1 8.5c0 5.131 16.07 19.359 19 13.5 2.106-4.212-4.696-5.391-6-8-3.376-6.753 2.095-16.5-9-16.5m25 13c0 1.168-7.945 13.389-9 15.5v8.5c-1.245 0-.967-6.733-3.5-8-8.61-4.305-21.5-6.383-21.5-18 0-1.84 2.035-3.57 3-5.5 1.514-3.028-1-7.882-1-10.5.392 0 13.139 1.82 13.5 2l10.5 5 1 1h1l1 1h1c0 1.74 4 2.814 4 9Z"/><path fill="#C7C8CC" id="alv" d="M244 92v1c2.297 0 13-3.49 13-6-5.035 0-8.238 5-13 5Z"/><path fill="#1A7D63" id="SSp-un6b" d="M135 90c0 1.473-1.952 1-3 1l2-2 1 1Z"/><path fill="#A9AAA8" id="chpl" d="m166 90-4 4.5c-.814 1.628 2.336 7.328 1 10-1.71 3.42-10.083 5.833-8 10 1.842 3.684 6.534-.517 8.5-1.5 9.055-4.528 19.523-23 2.5-23ZM286 90l-3 2.5-1 8.5c0 5.131 16.07 19.359 19 13.5 2.106-4.212-4.696-5.391-6-8-3.376-6.753 2.095-16.5-9-16.5Z"/><path fill="#1A7D63" id="SSp-un6b" d="M332 95v1c-1.301 0-10-4.946-10-6h1l9 4v1ZM132 91c-1.572 0-7 2.052-7 4 1.572 0 7-2.052 7-4Z"/><path fill="#CBC8CC" id="df" d="M220 96h16l4-1 4-2v-1c-4.586 0-11.569.034-15.5 2-.67.335-14.075-2-16.5-2l8 4Z"/><path fill="#AAA8A9" id="SEZ" d="m303 92 1 1-1-1ZM151 93l-1 1 1-1Z"/><path fill="#C7C8CC" id="alv" d="m244 93-4 2c1.465 0 4 .109 4-2Z"/><path fill="#AAA8A9" id="SEZ" d="m305 93 1 1-1-1Z"/><path fill="#1B7F64" id="SSp-n2/3" d="M62 105h1c0-3.974 4-6.315 4-10H55l-1 4 8 6Z"/><path fill="#1A8062" id="SSp-n4" d="M63 105c0 2.568 3.478 4 6 4 0-5.072 10-9.651 10-14H67c0 3.685-4 6.026-4 10Z"/><path fill="#197E62" id="SSp-n5" d="m69 110 9 7c0-6.174 16-17.678 16-22 0-1.64-13 .356-13-1l-2 1c0 4.349-10 8.928-10 14v1Z"/><path fill="#198060" id="SSp-bfd6a" d="m97 94-1 1 1-1Z"/><path fill="#187D62" id="SSp-n6a" d="M90 127h1l2-2 2-4c0-2.635 4.809-8 8-8l2-2c0-1.747.253-2 2-2 0-1.747.253-2 2-2 0-2.226 1.774-4 4-4 0-1.577 1.762-2 3-2v-1c0-1.951-2.454-.477-3.5-1-4.767-2.383-10.551-5-15.5-5l-1 1h-2c0 4.322-16 15.826-16 22l12 10Z"/><path fill="#AAA8A9" id="SEZ" d="m150 94-1 1 1-1ZM315 102l-4 1c0-6.186-4-7.26-4-9 2.58 0 8 6.511 8 8Z"/><path fill="#197E62" id="SSp-n5" d="M378 117h1l9-7v-1l-11-14h-15c0 3.84 16 15.009 16 22Z"/><path fill="#1A8062" id="SSp-n4" d="m394 106-6 3-11-14h12l5 10v1Z"/><path fill="#1B7F64" id="SSp-n2/3" d="M403 99c-4.091 0-5.22 6-9 6l-5-10h12l2 4Z"/><path fill="#197E63" id="SSp-n1" d="M53 99h1l1-4-5 1 3 3Z"/><path fill="#1A7E61" id="SSp-bfd6b" d="M124 96c0 1.473-1.952 1-3 1l3-2v1Z"/><path fill="#1A7D63" id="SSp-un6b" d="m125 95-1 1v-1h1Z"/><path fill="#AAA8A9" id="SEZ" d="m142 102 4 2c0-1.423-1.978-3.544-1-5.5l3-3.5c-2.623 0-6 4.646-6 7Z"/><path fill="#C7C8CC" id="alv" d="M236 101h1c0-3.454 3-3.835 3-6l-4 1v5Z"/><path fill="#1A7E61" id="SSp-bfd6b" d="m332 96 7 4c0-2.004-5.378-5-7-5v1Z"/><path fill="#187D62" id="SSp-n6a" d="M365 127h1l12-10c0-6.991-16-18.16-16-22h-1c-2.032 0-20 2.159-20 5v1c3.63 0 24 22.265 24 26Z"/><path fill="#197E63" id="SSp-n1" d="m406 97-3 2-2-4c1.85 0 5-.278 5 2Z"/><path fill="#1A7E62" id="SSs1" d="m31 168 4 1c0-11.594 5.221-39.942 10-49.5 2.617-5.234 8-14.599 8-20.5l-3-3h-1l-8 16.5c-6.151 12.303-10 40.345-10 55.5ZM426 168l-5 1c0-13.277-4.554-39.608-10-50.5-1.826-3.652-8-15.989-8-19.5l3-2 1-1c2.498 0 6.815 16.131 8 18.5 6.268 12.535 11 38.502 11 53.5Z"/><path fill="#1A7E61" id="SSp-bfd6b" d="M116 101h1l4-4c-2.364 0-3.053 3-5 3v1Z"/><path fill="#1B8063" id="SSs2/3" d="M35 169c2.707 0 5.903 1 8 1 0-9.871 8.757-41.014 13-49.5l6-15.5-8-6h-1c0 5.901-5.383 15.266-8 20.5-4.779 9.558-10 37.906-10 49.5ZM421 169l-8 1c0-12.085-7.885-39.269-13-49.5-.983-1.966-4.137-14.5-6-14.5v-1c3.78 0 4.909-6 9-6 0 3.511 6.174 15.848 8 19.5 5.446 10.892 10 37.223 10 50.5Z"/><path fill="#1B7E64" id="SSp-n6b" d="M341 101c3.63 0 24 22.265 24 26-3.371 0-5.891-10.196-9.5-12-4.371-2.185-6.93-8.965-11-11-1.408-.704-5.5-1.583-5.5-4h1l1 1Z"/><path fill="#1A7E61" id="SSp-bfd6b" d="M341 100v1l-1-1h1Z"/><path fill="#1B7E64" id="SSp-n6b" d="m117 101-4 2c0-1.577 1.762-2 3-2h1Z"/><path fill="#98D5F9" id="CP" d="M112 231h4l4-2.5-2-2c-1.256-2.511 1.579-6.961 4.5-5.5l1 7 3.5-1 1-1 1-3-1-8c0-2.421-8.698-17.105-5-24.5 3.098-6.196.893-14.786 4-21l6-11.5c0-7.398-2.667-23 7-23l8.5 1 3.5-3 1-1 1-2v-1l1-2v-4c0-6.523-9-16.234-9-19l-4-2c-4.973 0-9.64-1.43-14.5 1-20.32 10.16-50.5 48.169-50.5 71 0 12.998 3.695 21.891 9 32.5l8 14.5 18 10Z"/><path fill="#CBC8CB" id="fi" d="m156 137 2 1c6.432 0 8.302-5.401 13.5-8 9.816-4.908 31.5-5.145 31.5-20-7.387 0-19.109-9-23-9-1.166 0-1.175 6.675-2.5 8-4.747 4.747-14.13 7.065-20 10l-2.5 4v4l-1 2v1c0 2.765 2 5.165 2 7Z"/><path fill="#65A83D" id="DG-sg" d="m206 113-4 4c2.67 0 19-13.736 19-15v-1h-2l-3 2-1 1-1 1-1 1-1 1-1 1-4 4-1 1ZM249 111l5 6c-5.926 0-15.302-15-19-15l1-1h2l1 1 2 2 1 1 1 1 2 2c0 .966 2.886 3 4 3Z"/><path fill="#C7C8CC" id="alv" d="m238 101 1 1-1-1Z"/><path fill="#CBC8CB" id="fi" d="M300 137h1l2-5v-1l-1-2v-2c-1.245 0-.967-6.733-3.5-8-8.61-4.305-21.5-6.383-21.5-18-5.284 0-15.207 9-23 9 0 15.457 19.661 14.08 29.5 19 5.496 2.748 8.796 9 15.5 9l1-1Z"/><path fill="#98D5F9" id="CP" d="M340 231h4c0-1.59 4.386-1.443 5.5-2l11.5-7 1-1 1-1 14-27c0-5.624 2-11.494 2-18 0-20.131-27.599-60.55-46.5-70l-10-4-7.5 1-4 1c0 1.168-7.945 13.389-9 15.5V129l1 2 5.5 5 7.5-1c10.425 0 7 15.33 7 23 2.551 0 4.135 7.771 5 9.5 4.974 9.949 5 21.973 5 34 0 2.823-1.973 13.5-5 13.5l-1 7.5 2 3.5v1c.524 0 5 1.962 5 .5 0-1.818-2.8-4.85.5-6.5 2.009-1.004 5.504 2.491 4.5 4.5l-3 3 4 2.5Z"/><path fill="#7BD04A" id="DG-mo" d="m213 120-2 1c-4.146 0-9 1.333-9-4 2.67 0 19-13.736 19-15 3.312 0 1 5.655 1 7l-1 2-7 8-1 1ZM245 121h1c4.673 0 8 1.4 8-4-5.926 0-15.302-15-19-15 0 5.565.314 7.128 3 12.5l7 6.5Z"/><path fill="#1B7E64" id="SSp-n6b" d="M113 103c-2.226 0-4 1.774-4 4 1.366 0 4-2.366 4-4Z"/><path fill="#C7C8CC" id="alv" d="m216 103-1 1 1-1Z"/><path fill="#A8A9AA" id="V3" d="m221 139 6.5 4 7.5-4c0-2.773 4-3.67 4-6-2.029 0-1.881 1.191-3.5 2-2.519 1.259-6.254-.873-8 0-4.952 2.476-16.095-5.309-13.5-10.5 3.311-6.621 11.561 1.5 14.5 1.5l1-2c2.167-1.084 13.5-3.82 13.5 1.5 0 1.595-2 3.255-2 5.5l3 1 1.5-3 1 2c2.579 1.29 4.232-2 6.5-2v-2c0-6.736-7-3.446-7-6h-1c-8.298 0-9.294-13.897-13.5-16-6.048-3.024-5.556 4-9.5 4l-1 2c0 2.904-3.775 8-7 8l-1 1-2 1c0 2.489-8-1.009-8 6 0 4.264 5.384 3 7.5 3l2.5 2c0-3.111 8 3.933 8 7Z"/><path fill="#C7C8CC" id="alv" d="m241 104 1 1-1-1Z"/><path fill="#187C63" id="SSs4" d="M48 171h1c0-13.477 6.243-34.987 12-46.5 1.217-2.434 4.492-14.5 8-14.5v-1c-2.522 0-6-1.432-6-4h-1l-6 15.5c-4.243 8.486-13 39.629-13 49.5l5 1Z"/><path fill="#C7C8CC" id="alv" d="m214 105-1 1 1-1ZM211 107h1l1-1-2 1Z"/><path fill="#187C63" id="SSs4" d="m413 170-5 1c0-7.202-7.846-38.192-11-44.5-1.072-2.145-9-15.451-9-16.5v-1l6-3c1.863 0 5.017 12.534 6 14.5 5.115 10.231 13 37.415 13 49.5Z"/><path fill="#1B7E64" id="SSp-n6b" d="M109 107c-1.747 0-2 .253-2 2l2-2Z"/><path fill="#7DCD4B" id="HPF" d="m212 107-1 1v-1h1ZM207 109v3l4-4-4 1ZM249 109v2c-1.114 0-4-2.034-4-3l4 1Z"/><path fill="#1B7E64" id="SSp-n6b" d="M107 109c-1.747 0-2 .253-2 2 1.747 0 2-.253 2-2Z"/><path fill="#1C8063" id="SSs5" d="M49 171c4.107 0 8.469 1 12 1 0-10.797 5.386-32.272 10-41.5l7-13.5-9-7c-3.508 0-6.783 12.066-8 14.5-5.757 11.513-12 33.023-12 46.5ZM408 171c-4.569 0-8.923 1-13 1 0-9.752-3.905-29.31-8-37.5l-8-17.5 9-7c0 1.049 7.928 14.355 9 16.5 3.154 6.308 11 37.298 11 44.5Z"/><path fill="#1B7E64" id="SSp-n6b" d="m105 111-2 2c1.747 0 2-.253 2-2Z"/><path fill="#7DCD4B" id="HPF" d="m207 112-1 1 1-1Z"/><path fill="#1B7E64" id="SSp-n6b" d="M103 113c-3.191 0-8 5.365-8 8l8-8Z"/><path fill="#197D63" id="SSs6a" d="m61 172 12 1c0-2.049-.342-10 2-10 0-1.623.005-6 2-6 0-2.172 1.377-10 4-10 0-8.316 9-12.498 9-20l-12-10-7 13.5c-4.614 9.228-10 30.703-10 41.5ZM395 172l-11 1c0-11.112-6.267-25.034-11-34.5-1.733-3.466-7-7.511-7-11.5l12-10h1l8 17.5c4.095 8.19 8 27.748 8 37.5Z"/><path fill="#1B7E64" id="SSp-n6b" d="m95 121-2 4c2.109 0 2-2.535 2-4Z"/><path fill="#A9AAA8" id="chpl" d="m240 132-1 1c-2.029 0-1.881 1.191-3.5 2-2.519 1.259-6.254-.873-8 0-4.952 2.476-16.095-5.309-13.5-10.5 3.311-6.621 11.561 1.5 14.5 1.5l1-2c2.167-1.084 13.5-3.82 13.5 1.5 0 1.595-2 3.255-2 5.5l-1 1Z"/><path fill="#1B7E64" id="SSp-n6b" d="M91 127v1c1.577 0 2-1.762 2-3l-2 2Z"/><path fill="#FF8F9E" id="AD" d="m202 153-2 2-12-17-1-8.5 2-2.5c2.395 0 5.263-3.619 8.5-2l4.5 2v16l1 4-1 6ZM255 155h2c0-6.267 12-12.068 12-18 0-3.526-2-8.954-2-10l-2.5-2c-3.379-1.69-6.661 2-9.5 2l-2 2c0 4.567 2 7.869 2 13 0 1.041-.986 5-2 5l2 8Z"/><path fill="#1A8061" id="SSs6b" d="m83 145-2 2c0-8.316 9-12.498 9-20h1v1c0 6.285-8 10.622-8 17Z"/><path fill="#FF909D" id="LD" d="M169 145h1c0-5.581 8.489-12.005 14.5-9l3.5 2-1-8.5 2-2.5c-4.662 0-24 5.343-24 11v3c2.215 0 1.519 2 3 2l1 1v1Z"/><path fill="#CCC9C8" id="sm" d="m202 143 2 3c2.312 0 9-2.847 9-6v-8l-2.5-2c-2.116 0-7.5 1.264-7.5-3h-1v16ZM255 127l-2 2v-2h2Z"/><path fill="#FF909D" id="LD" d="M286 145h1l1-1 3-3v-3c0-6.098-18.53-11-24-11 0 1.046 2 6.474 2 10 6.58 0 17-2.763 17 8Z"/><path fill="#1A8061" id="SSs6b" d="M382 173h2c0-11.112-6.267-25.034-11-34.5-1.733-3.466-7-7.511-7-11.5h-1c0 9.42 12 16.051 12 26v2c1.577 0 2 1.762 2 3v2c1.995 0 2 4.377 2 6v1l1 2v4Z"/><path fill="#CCC9C8" id="sm" d="M255 142c-2.109 0-2 2.535-2 4-4.496 0-6.713-5-9-5v-9l1.5-3 1 2c2.579 1.29 4.232-2 6.5-2 0 4.567 2 7.869 2 13Z"/><path fill="#FF8D9F" id="MH" d="m214 140 5 1 2-2c0-3.067-8-10.111-8-7v7l1 1Z"/><path fill="#A8A9AA" id="V3" d="m241 131-1 1 1-1Z"/><path fill="#FF8D9F" id="MH" d="m242 140-4 1-3-2c0-2.773 4-3.67 4-6l1-1 1-1 3 1v6l-2 2Z"/><path fill="#97D6F9" id="STR" d="m315 139-6 1c0-2.041-.959-3-3-3l-1-1-2-4v-1l5.5 5 7.5-1-1 4ZM153 132l-1 1 1-1ZM142 139h6c0-2.293.997-2 3-2v-1l1-3-3.5 3-8.5-1 2 4Z"/><path fill="#CCC" d="M149 186v1c2.761 0 8.629 16.064 12.5 18 4.863 2.432 3.283-7.934 2.5-9.5-1.128-2.255-7-12.841-7-14.5 0-5.445-7.597-12.694-10-17.5-1.889-3.777 2-7.892 2-10.5l2-2c0-4.087-9-6.628-9-12l-2-4c-9.667 0-7 15.602-7 23 5.524 0 15 21.811 15 27l1 1ZM309 183l-1 2-11.5 19c-11.15 5.575-.72-16.06.5-18.5l2-4.5c0-1.849 9.481-17.462 11-20.5.97-1.94-.824-7.5-3-7.5l-2-2c0-3.906 10-7.225 10-12l1-4c10.425 0 7 15.33 7 23-4.825 0-14 20.723-14 25Z"/><path fill="#CAC7CB" id="fiber tracts" d="M151 151h2c4.654 0 7-5.097 7-9l-2-4-2-1-5-1v1c8.858 0 9.27 17.77-2 6.5-1.333-1.333-1-2.669-1-4.5h-6c0 5.372 9 7.913 9 12Z"/><path fill="#FD909E" id="AV" d="m189 167-1 1c-1.423 0-3.544 1.978-5.5 1-3.886-1.943-7.5-8.202-7.5-12l-1-1v-1l-4-8v-2c0-5.581 8.489-12.005 14.5-9l3.5 2 12 17c0 1.564-1 3.876-1 6l-10 6ZM267 167h1c1.284 0 2.561 3.47 5.5 2 4.139-2.07 8.5-8.043 8.5-13l1-1c0-1.424.362-5 2-5 0-1.048-.473-3 1-3v-2c0-10.763-10.42-8-17-8 0 5.932-12 11.733-12 18v6l10 6Z"/><path fill="#CAC7CB" id="fiber tracts" d="m305 151-1 1c-5.073 0-8-6.706-8-11l3-3 1-1h1l4-1 1 1c-2.029 0-1.881 1.191-3.5 2-12.502 6.251 6.5 12.668 6.5 1l6-1c0 4.775-10 8.094-10 12Z"/><path fill="#C8CBC7" id="st" d="M151 137c8.858 0 9.27 17.77-2 6.5-1.333-1.333-1-2.669-1-4.5 0-2.293.997-2 3-2ZM306 137c2.041 0 3 .959 3 3 0 11.668-19.002 5.251-6.5-1 1.619-.809 1.471-2 3.5-2Z"/><path fill="#FF6F80" id="TH" d="M162 141h3v-3l-3 3Z"/><path fill="#FF8F9D" id="LH" d="m242 140 2 1v-3l-2 2Z"/><path fill="#FF6F80" id="TH" d="M291 141h4l-4-3v3Z"/><path fill="#FF8F9D" id="LH" d="M213 140h1l-1-1v1Z"/><path fill="#FE8F9E" id="PVT" d="M225 165c2.409 0 5.181 1 7 1l2-6c0-7.247 4-15.672 4-19l-3-2-7.5 4-6.5-4-2 2c0 5.651 3 12.194 3 20 2.266 0-.454 4 3 4Z"/><path fill="#FD909D" id="MD" d="M222 161c-.796 0-6.745 5-11 5 0-1.599-9-7.174-9-13l1-6 1-1c2.312 0 9-2.847 9-6h1l5 1c0 5.651 3 12.194 3 20ZM246 165l-1 1c-4.517 0-10.65-6-11-6 0-7.247 4-15.672 4-19l4-1 2 1c2.287 0 4.504 5 9 5v1l2 8c-2.595 0-4.756 10-9 10Z"/><path fill="#FD8F9F" id="RT" d="M177 210h1c7.464 0 15.1-1 22-1v-2l-3-4c-1.715 0-18-13.835-18-15l-5-3c-6.652 0-19.539-26-3-26 1.643 0 1-3.765 1-5l-2-7v-1l-1-1v-1l-1-1c-1.481 0-.785-2-3-2h-3l-2 1c0 3.903-2.346 9-7 9l-4 2c0 2.608-3.889 6.723-2 10.5 2.403 4.806 10 12.055 10 17.5 9.205 0 7.555 29 20 29ZM257 209c6.9 0 14.536 1 22 1 8.274 0 12.788-17.075 16-23.5.704-1.408 1.583-5.5 4-5.5 0-1.849 9.481-17.462 11-20.5.97-1.94-.824-7.5-3-7.5l-3-1c-5.073 0-8-6.706-8-11h-5l-3 3-1 1-1 2c0 1.048.473 3-1 3l-1 5 1 4c16.42 0 5.462 25-2 25l-1 1-4 3c0 .544-17.654 15-19 15 0 1.429-1.288 4-3 4l1 2Z"/><path fill="#FF6F80" id="TH" d="M253 146v1c1.014 0 2-3.959 2-5-2.109 0-2 2.535-2 4ZM168 143l1 1-1-1ZM204 146l-1 1-1-4 2 3ZM288 144l-1 1 1-1Z"/><path fill="#C9C9CA" id="scwm" d="M81 147v3c1.638 0 2-3.576 2-5l-2 2Z"/><path fill="#FF6F80" id="TH" d="M170 145v1l-1-1h1ZM287 145l-1 2v-2h1Z"/><path fill="#1A8061" id="SSs6b" d="M77 157h1l1-2v-1l1-1c0-1.048-.473-3 1-3v-3c-2.623 0-4 7.828-4 10Z"/><path fill="#FF6F80" id="TH" d="m172 154 2 1-4-8 2 7ZM286 147c-1.473 0-1 1.952-1 3 1.473 0 1-1.952 1-3Z"/><path fill="#C9C9CA" id="scwm" d="M81 150c-1.473 0-1 1.952-1 3 1.473 0 1-1.952 1-3Z"/><path fill="#FF6F80" id="TH" d="M283 155h1l1-5c-1.638 0-2 3.576-2 5Z"/><path fill="#8599CC" id="PAL" d="m153 151-4 2 2-2h2ZM304 152l3 1-2-2-1 1Z"/><path fill="#C9C9CA" id="scwm" d="m80 153-1 1 1-1Z"/><path fill="#FC8E9F" id="IAD" d="m220 179-3 3-5-4.5-13-16.5c0-2.124 1-4.436 1-6l2-2c0 5.826 9 11.401 9 13l9 12v1Z"/><path fill="#FD7E84" id="VAL" d="M188 186c-1.048 0-9-1.061-9 2l-5-3c0-1.966-6.477-12.455-8-15.5-1.878-3.755 5-7.222 5-10.5 1.643 0 1-3.765 1-5l2 1v1l1 1c0 3.798 3.614 10.057 7.5 12 1.956.978 4.077-1 5.5-1v18Z"/><path fill="#C9C9CA" id="scwm" d="m79 155-1 2 1-2Z"/><path fill="#FC8E9F" id="IAD" d="m237 179 2 4 4.5-5c3.597-3.597 13.5-13.009 13.5-17v-6h-2c-2.595 0-4.756 10-9 10l-1 1c0 3.959-8 7.584-8 12v1Z"/><path fill="#FF6F80" id="TH" d="m283 155-1 1 1-1Z"/><path fill="#FD7E84" id="VAL" d="M268 186c4.298 0 7.485 2 10 2l4-3 1-1c0-3.608 5.378-9.257 7-12.5 2.92-5.839-5-8.588-5-12.5l-1-4h-1l-1 1c0 4.957-4.361 10.93-8.5 13-2.939 1.47-4.216-2-5.5-2v19Z"/><path fill="#C9C9CA" id="scwm" d="M377 155c1.577 0 2 1.762 2 3l-2-3Z"/><path fill="#FF6F80" id="TH" d="m174 156 1 1-1-1Z"/><path fill="#1A8061" id="SSs6b" d="m77 161-2 2c0-1.623.005-6 2-6v4Z"/><path fill="#C9C9CA" id="scwm" d="M78 157c0 1.048.473 3-1 3v-3h1Z"/><path fill="#8598CC" id="GPe" d="m128 215 5 2c21.987 0 16-13.684 16-30v-1l-1-1c0-5.189-9.476-27-15-27l-6 11.5c-3.107 6.214-.902 14.804-4 21-3.698 7.395 5 22.079 5 24.5ZM328 215l-5 2c-22.997 0-15-16.083-15-32l1-2c0-4.277 9.175-25 14-25 2.551 0 4.135 7.771 5 9.5 4.974 9.949 5 21.973 5 34 0 2.823-1.973 13.5-5 13.5Z"/><path fill="#C7CACA" id="em" d="M171 159c-16.539 0-3.652 26 3 26 0-1.966-6.477-12.455-8-15.5-1.878-3.755 5-7.222 5-10.5ZM285 159c16.42 0 5.462 25-2 25 0-3.608 5.378-9.257 7-12.5 2.92-5.839-5-8.588-5-12.5Z"/><path fill="#FF909F" id="PT" d="M235 178h2c0-4.416 8-8.041 8-12-4.517 0-10.65-6-11-6l-2 6c0 4.002 3 8.304 3 12Z"/><path fill="#C9C9CA" id="scwm" d="M379 160c1.995 0 2 4.377 2 6-1.353 0-2-4.643-2-6ZM75 163v4c1.995 0 2-4.377 2-6l-2 2Z"/><path fill="#FD8D9F" id="AMd" d="M207 192h3l5-2 1-1 1-1v-6l-5-4.5-13-16.5-10 6c0 4.091 18 24.011 18 25Z"/><path fill="#FF909F" id="PT" d="M220 178h2l3-13c-3.454 0-.734-4-3-4-.796 0-6.745 5-11 5l9 12Z"/><path fill="#FD8D9F" id="AMd" d="M247 192h2c1.801 0 18-22.203 18-25l-10-6c0 3.991-9.903 13.403-13.5 17l-4.5 5v5l2 2 6 2Z"/><path fill="#1A8061" id="SSs6b" d="M73 173h1v-2l1-1v-7c-2.342 0-2 7.951-2 10Z"/><path fill="#FD8E9E" id="CM" d="M222 179h12l1-1c0-3.696-3-7.998-3-12-1.819 0-4.591-1-7-1l-3 13v1Z"/><path fill="#FF909F" id="PT" d="m246 165-1 1 1-1Z"/><path fill="#FC909D" id="AMv" d="M198 197h1l6-1 2-4c0-.989-18-20.909-18-25l-1 1v18c1.633 0 4.62 11 10 11ZM257 197h1c3.58 0 10-7.45 10-11v-19h-1c0 2.797-16.199 25-18 25l3 4 5 1Z"/><path fill="#C9C9CA" id="scwm" d="m381 167 1 2-1-2Z"/><path fill="#12AD83" id="VISC1" d="m40 198-6 1-3-9.5c-2.486-4.972 0-16.336 0-21.5l4 1c0 7.857-.25 16.002 3 22.5.557 1.114.41 5.5 2 5.5v1ZM417 197c0 1.638 3.576 2 5 2 1.993 0 1.35-5.2 2-6.5 3.268-6.536 2-16.7 2-24.5l-5 1v14.5l-4 13.5Z"/><path fill="#12AC83" id="VISC2/3" d="m51 195-11 2c-1.59 0-1.443-4.386-2-5.5-3.25-6.498-3-14.643-3-22.5 2.707 0 5.903 1 8 1 0 4.867 2.746 24 8 24v1ZM416 197h1l4-13.5V169l-8 1c0 5.145-2.023 24-7 24l-1 1c4.296 0 7.018 2 11 2Z"/><path fill="#11AC82" id="VISC4" d="M48 171c0 2.824-2.616 8.268-1 11.5 1.124 2.247 4 9.268 4 11.5-5.254 0-8-19.133-8-24l5 1Z"/><path fill="#C9C9CA" id="scwm" d="m75 170-1 1 1-1Z"/><path fill="#11AC82" id="VISC4" d="M408 171c0 3.378 2.904 10.693 1 14.5l-3 8.5c4.977 0 7-18.855 7-24l-5 1Z"/><path fill="#12AD82" id="VISC5" d="M51 194v1l13-2c0-6.719-3-13.409-3-21-3.531 0-7.893-1-12-1h-1c0 2.824-2.616 8.268-1 11.5 1.124 2.247 4 9.268 4 11.5ZM406 194l-1 1-13-2 3-9.5V172c4.077 0 8.431-1 13-1 0 3.378 2.904 10.693 1 14.5l-3 8.5Z"/><path fill="#11AC83" id="VISC6a" d="M64 193h1c0-.745 9.679-3 11-3l-3-6.5c-1.698-3.395 0-7.353 0-10.5l-12-1c0 7.591 3 14.281 3 21ZM381 190l11 3 3-9.5V172l-11 1c0 6.483-3 11.365-3 17Z"/><path fill="#11AD82" id="VISC6b" d="M76 190h1c0-5.568-3-10.584-3-16v-1h-1c0 3.147-1.698 7.105 0 10.5l3 6.5ZM380 190h1c0-5.635 3-10.517 3-17h-2v1c1.579 0 1 2.855 1 4l-4 11 1 1Z"/><path fill="#C8CBCC" id="ec" d="M98 233h1l1-1-6-11-8-14.5c-5.305-10.609-9-19.502-9-32.5h-3c0 5.416 3 10.432 3 16l1 3 5 10 1 3 10 20 1 1v1l3 5ZM377 193h1l1-1v-3l4-11c0-1.145.579-4-1-4l-3 1c0 6.506-2 12.376-2 18Z"/><path fill="#FF6F80" id="TH" d="M220 179h2v-1h-2v1ZM234 179h3v-1h-2l-1 1Z"/><path fill="#FE8E9C" id="IAM" d="m217 188 6.5-3c5.441-2.721 11.236 3 15.5 3v-5l-2-4h-17l-3 3v6Z"/><path fill="#8599CC" id="PAL" fill-rule="evenodd" d="M164 208v3.5c0 8.768 9.471-3.5 0-3.5m-21 15c0-3.83 21-6.784 21 6 4.403 0 4.013-16 11-16l2-2v-1c-12.445 0-10.795-29-20-29 0 1.659 5.872 12.245 7 14.5.783 1.566 2.363 11.932-2.5 9.5-3.871-1.936-9.739-18-12.5-18 0 16.316 5.987 30-16 30l8 6h2ZM290 208l-2 3.5c-4.304 8.608 12.466-3.5 2-3.5m24 15h1l8-6c-22.997 0-15-16.083-15-32l-11.5 19c-11.15 5.575-.72-16.06.5-18.5l2-4.5c-2.417 0-3.296 4.092-4 5.5-3.212 6.425-7.726 23.5-16 23.5v1c1.238 0 3 .423 3 2 5.975 0 6.535 17 11 17 0-7.493 2.605-10 10-10 3.229 0 11-.861 11 3Z"/><path fill="#8599CC" id="PAL" d="m309 183-1 2 1-2Z"/><path fill="#C7CACA" id="em" d="m283 184-1 1 1-1Z"/><path fill="#8599CC" id="PAL" d="m148 185 1 1-1-1Z"/><path fill="#FF7E84" id="VM" d="m198 198-1 5c-1.715 0-18-13.835-18-15 0-3.061 7.952-2 9-2 1.633 0 4.62 11 10 11v1Z"/><path fill="#FF8E9E" id="RH" d="M217 189h22v-1c-4.264 0-10.059-5.721-15.5-3l-6.5 3v1Z"/><path fill="#FF7E84" id="VM" d="M258 198c1.643 0 1 3.765 1 5 1.346 0 19-14.456 19-15-2.515 0-5.702-2-10-2 0 3.55-6.42 11-10 11v1Z"/><path fill="#FF6F80" id="TH" d="M216 189h1v-1l-1 1ZM239 189l2 1-2-2v1ZM216 189l-1 1 1-1Z"/><path fill="#FD909F" id="RE" fill-rule="evenodd" d="M228 217c0-.258 3.355-6.209 4-7.5 7.943-15.885-15.825-17.65-7 0 .771 1.542.465 7.5 3 7.5m16-5-7.5 6c-3.95 1.975-5.194-1-8.5-1 0 4.772-10.986-.486-12.5-2l-3.5-3c0-1.449-5-5.743-5-13 0-2.971 3-4.768 3-7l5-2 1-1h23l2 1 6 2c0 .888 2.573 7 3 7 0 7.107-6 10.982-6 13Z"/><path fill="#219666" id="AIp6b" d="m380 190-1 2v-3l1 1Z"/><path fill="#209766" id="AIp6a" d="M74 213h2c0-4.924 4.982-7 8-7l-1-3c-1.791 0-2.96 3.27-5.5 2-2.183-1.092-4.257-12-.5-12l-1-3c-1.321 0-11 2.255-11 3 0 7.01 8 12.745 8 20h1Z"/><path fill="#219666" id="AIp6b" d="M77 193h1l-1-3h-1l1 3Z"/><path fill="#209766" id="AIp6a" d="M382 213h1l9-20-11-3h-1l-1 2v1c4.007 0 1.935 10.783-.5 12-2.116 1.058-2.898-2-4.5-2l-1 2c2.664 0 8 5.336 8 8h1Z"/><path fill="#FF6F80" id="TH" d="m205 196 2 3c0-2.971 3-4.768 3-7h-3l-2 4ZM252 196l-2 3c-.427 0-3-6.112-3-7h2l3 4Z"/><path fill="#219666" id="AIp6b" d="M378 193h1v-1l-1 1Z"/><path fill="#219864" id="AIp5" d="m73 213-6 3c0-3.078-16-14.647-16-21l13-2h1c0 7.01 8 12.745 8 20Z"/><path fill="#8ADA86" id="CLA" d="m78 193 5 10c-1.791 0-2.96 3.27-5.5 2-2.183-1.092-4.257-12-.5-12h1Z"/><path fill="#C8CBCC" id="ec" d="M358 233h1l2-4v-1l1-1v-1l1-1 9-19 1-1 1-2 2-6 1-1v-3l-14 27-1 1-1 1c0 1.927-2.79 9-5 9v1l2 1Z"/><path fill="#209766" id="AIp6a" d="m378 193-1 1v-1h1Z"/><path fill="#8ADA86" id="CLA" d="m376 197-2 6c1.602 0 2.384 3.058 4.5 2 2.435-1.217 4.507-12 .5-12h-1l-1 1v2l-1 1Z"/><path fill="#219864" id="AIp5" d="m383 213 7 3c0-4.296 15-13.127 15-21l-13-2-9 20Z"/><path fill="#209865" id="AIp2/3" d="M67 216c-3.989 0-6.011 3-10 3-2.852 0-17-17.855-17-21v-1l11-2c0 6.353 16 17.922 16 21ZM390 216c3.645 0 6.777 4 10 4 0-4.816 16-13.668 16-23-3.982 0-6.704-2-11-2 0 7.873-15 16.704-15 21Z"/><path fill="#FD909C" id="PR" d="M200 207c.736 0 12 9.506 12 5 0-1.449-5-5.743-5-13l-2-3-6 1-1 1-1 5 3 4ZM244 212c0 1.643 3.765 1 5 1l7-6c1.712 0 3-2.571 3-4 0-1.235.643-5-1-5l-1-1-5-1-2 3c0 7.107-6 10.982-6 13Z"/><path fill="#209766" id="AIp6a" d="m377 196-1 1 1-1Z"/><path fill="#FF6F80" id="TH" d="m199 197-1 1v-1h1Z"/><path fill="#FC8F9F" id="Xi" d="M228 217c0-.258 3.355-6.209 4-7.5 7.943-15.885-15.825-17.65-7 0 .771 1.542.465 7.5 3 7.5Z"/><path fill="#FF6F80" id="TH" d="M258 197v1l-1-1h1Z"/><path fill="#219765" id="AIp1" d="m400 220 5 2c0-6.102 17-14.188 17-23-1.424 0-5-.362-5-2h-1c0 9.332-16 18.184-16 23ZM57 219l-5 3c-1.876 0-18-20.38-18-23l6-1c0 3.145 14.148 21 17 21Z"/><path fill="#A0EE9C" id="EPd" d="M94 233h1v-6l-1-1-10-20c-3.018 0-8 2.076-8 7 0 4.561 5 7.344 5 12v1h1c0-2.029 1-.058 1 1 0 3.464 8.075 6 11 6Z"/><path fill="#209766" id="AIp6a" d="m373 205-1 1 1-1Z"/><path fill="#A0EE9C" id="EPd" d="M361 233h2c2.688 0 10-2.401 10-6l1-1 1-1 6-12c0-2.664-5.336-8-8-8l-1 1-9 19-1 1v1l-1 1v5Z"/><path fill="#FF6F80" id="TH" d="M229 220h2c3.07 0 18-4.884 18-7-1.235 0-5 .643-5-1l-7.5 6c-3.95 1.975-5.194-1-8.5-1 0 4.772-10.986-.486-12.5-2l-3.5-3c0 4.506-11.264-5-12-5v2l4 3c5.765 0 13.14 8 21 8h2c0-1.399 2-1.399 2 0ZM252 212l-3 1 7-6 1 2-4 2-1 1Z"/><path fill="#CCCACB" id="nst" d="M164 208v3.5c0 8.768 9.471-3.5 0-3.5ZM290 208l-2 3.5c-4.304 8.608 12.466-3.5 2-3.5Z"/><path fill="#F0483B" id="ZI" d="M181 215h1c6.242 0 22 11.092 22-3l-4-3c-6.9 0-14.536 1-22 1l-1 1c0 2.879 4 1.993 4 4ZM274 215h2c0-1.577 1.762-2 3-2v-3c-7.464 0-15.1-1-22-1l-4 2-1 1c0 12.763 14.388 4 21 4l1-1Z"/><path fill="#E64438" id="HY" d="m178 210-1 1v-1h1ZM179 215h2c0-2.007-4-1.121-4-4l-2 2 4 2ZM253 211l-1 1 1-1ZM279 213h3c0-1.577-1.762-2-3-2v2ZM219 240h3c0-.96-11.04-18.42-11-18.5 1.821-3.642 14 1.604 14-1.5-7.86 0-15.235-8-21-8 0 14.092-15.758 3-22 3l2 4c6.331 0 6 11.417 6 16 1.481 0 .785-2 3-2 0-4.279 6.125-11.251 9-5.5 1.314 2.627-3 6.045-3 8.5h1c0-6.846 19-5.944 19 4ZM236 239l1 1c0-4.019 8.165-11.167 12.5-9l7.5 4-3-7.5c3.348-6.696 9 1.596 9 5.5l3 1c0-4.748.972-15 7-15v-3c-6.612 0-21 8.763-21-4l-3 1c0 2.116-14.93 7-18 7 0 3.585 12.608-2.284 14 .5 1.567 3.134-9 13.874-9 18.5Z"/><path fill="#6ACAB9" id="PIR" d="M109 274c0 3.049-10.433 22-13 22-3.389 0-11.146-9.791-13-13.5-7.238-14.475-14.78-28.561-22-43-2.307-4.615-9-12.352-9-17.5l5-3c3.989 0 6.011-3 10-3l6-3h1c0 2.164 4.51 12 7 12v1l2 3c0 1.278 4.421 8 6 8v1c0 4.775 20 26.676 20 33v3Z"/><path fill="#C9C8CA" id="ee" d="M76 213c0 4.561 5 7.344 5 12-2.49 0-7-9.836-7-12h2Z"/><path fill="#F2483A" id="LHA" d="M189 251c0 29.748-16.961 1-28 1v-12l3-11c4.403 0 4.013-16 11-16l4 2c0 1.976 2.876 4 5 4 6.331 0 6 11.417 6 16 0 4.734-1 10.644-1 16Z"/><path fill="#E64438" id="HY" d="M276 215h2l1-2c-1.238 0-3 .423-3 2Z"/><path fill="#F2483A" id="LHA" d="M295 253c-3.531 0-20 9.075-20 12-5.488 0-8-7.85-8-13 0-5.996-1-12.639-1-18 0-4.748.972-15 7-15 1.562 0 5-2.189 5-4l1-2h3c5.975 0 6.535 17 11 17l2 9c0 3.531 1 7.893 1 12l-1 2Z"/><path fill="#C9C8CA" id="ee" d="M375 225h1l1-1 5-11h-1l-6 12Z"/><path fill="#6ACAB9" id="PIR" d="M348 274c0 5.731 12 22.125 12 23l13-13.5c7.879-15.757 16.135-31.27 24-47l8-14.5-5-2c-3.223 0-6.355-4-10-4l-7-3h-1l-5 11-1 1-1 1v1l-1 1-1 2-1 1-1 1c0 1.238-.423 3-2 3 0 1.238-.423 3-2 3 0 5.255-13.161 19.822-16 25.5l-4 7.5 1 3Z"/><path fill="#97D6F9" id="STR" d="M129 223h12l-8-6-5-2 1 8Z"/><path fill="#CCC9C8" id="sm" d="m182 215 2 4c-2.124 0-5-2.024-5-4h3Z"/><path fill="#E64438" id="HY" d="m274 215-1 1 1-1Z"/><path fill="#CCC9C8" id="sm" d="M273 216v3c1.562 0 5-2.189 5-4h-4l-1 1Z"/><path fill="#97D6F9" id="STR" d="m315 223 9.5-1 4.5 4-2-3.5 1-7.5-5 2-8 6Z"/><path fill="#E64438" id="HY" d="M227 220c.839 0 2 1.93 2 0 0-1.399-2-1.399-2 0Z"/><path fill="#A2B1D7" id="SI" d="m151 240 5.5 2 4.5-2 3-11c0-12.784-21-9.83-21-6v1c6.862 0 6 8.743 6 14l2 2Z"/><path fill="#FF5D4F" id="PVH" d="m232 242-3 1-.5-20c-2.041-1.021-1.5 3.062-1.5 4v15l-3-1-2-1c0-.96-11.04-18.42-11-18.5 1.821-3.642 14 1.604 14-1.5h2c.839 0 2 1.93 2 0h2c0 3.585 12.608-2.284 14 .5 1.567 3.134-9 13.874-9 18.5l-4 3Z"/><path fill="#A2B1D7" id="SI" d="m305 240-1 1c-4.209 0-7.957-2-9-2l-2-9c0-7.493 2.605-10 10-10 3.229 0 11-.861 11 3l-1 1c-6.258 0-6 8.576-6 13 0 2.215-2 1.519-2 3Z"/><path fill="#97D6F9" id="STR" d="m363 220-1 1 1-1ZM100 232h1l2-1c0-2.627 5.097 3 6 3 0-2.747.253-3 3-3l-18-10 6 11ZM116 231l7 5c0-2.759 4-5.795 4-9l-3.5 1-1-7c-2.921-1.461-5.756 2.989-4.5 5.5l2 2-4 2.5ZM340 231l-7 5-4-9c.524 0 5 1.962 5 .5 0-1.818-2.8-4.85.5-6.5 2.009-1.004 5.504 2.491 4.5 4.5l-3 3 4 2.5ZM362 221l-1 1 1-1Z"/><path fill="#7FC0E0" id="CEAm" d="M129 244h4l12-1c0-1.302 4-2.641 4-5 0-5.257.862-14-6-14l-1-1h-13l-1 3-1 1c0 3.205-4 6.241-4 9l6 8ZM323 244l5 1c0-3.984 5-6.027 5-9l-4-9v-1l-4.5-4-9.5 1h-1l-1 1c-6.258 0-6 8.576-6 13l4 6 12 1Z"/><path fill="#97D6F9" id="STR" d="M354 231h2c2.21 0 5-7.073 5-9l-11.5 7c-1.114.557-5.5.41-5.5 2 2.747 0 3 .253 3 3 2.571 0 7-7.131 7-3ZM143 223v1l-1-1h1Z"/><path fill="#A8A9AA" id="V3" d="M228 274h1v-31l-.5-20c-2.041-1.021-1.5 3.062-1.5 4v39.5c0 1.448-.725 7.5 1 7.5Z"/><path fill="#97D6F9" id="STR" d="m314 223-1 1 1-1Z"/><path fill="#8AD987" id="CTXsp" d="m377 224-1 1 1-1Z"/><path fill="#C9C8CA" id="ee" d="m82 226 1 1c0-1.058-1-3.029-1-1Z"/><path fill="#C7C8CA" id="fx" d="M193 233c0 1.462.594 7.453 3.5 6l2.5-3c0-2.455 4.314-5.873 3-8.5-2.875-5.751-9 1.221-9 5.5ZM263 233c0 1.231.404 7.452-2.5 6l-3.5-4-3-7.5c3.348-6.696 9 1.596 9 5.5Z"/><path fill="#8AD987" id="CTXsp" d="m363 225-1 1 1-1Z"/><path fill="#C9C8CA" id="ee" d="M374 226h1v-1l-1 1Z"/><path fill="#8AD987" id="CTXsp" d="m376 225-1 1v-1h1ZM89 237v1l5-5c-2.925 0-11-2.536-11-6l-1-1h-1l2 3c1.89 0 6 6.374 6 8ZM94 226l1 1-1-1Z"/><path fill="#97D6F9" id="STR" d="m128 226-1 1 1-1Z"/><path fill="#C9C8CA" id="ee" d="M373 227h1v-1l-1 1Z"/><path fill="#8AD987" id="CTXsp" d="M374 227h1v-1h-1v1ZM362 227l-1 1 1-1ZM369 235l-2 2-4-4c2.688 0 10-2.401 10-6h1v1l-1 2-1 1-1 1c-1.577 0-2 1.762-2 3Z"/><path fill="#99D2BD" id="OLF" d="m375 227-1 1v-1h1Z"/><path fill="#8AD987" id="CTXsp" d="M95 233h3l-3-5v5Z"/><path fill="#99D2BD" id="OLF" d="M83 229c1.89 0 6 6.374 6 8-1.579 0-6-6.722-6-8Z"/><path fill="#C8CBCC" id="ec" d="m343 239 1 1 10-9c0-4.131-4.429 3-7 3 0 2.741-4 2.268-4 5Z"/><path fill="#8AD987" id="CTXsp" d="M359 233h2v-4l-2 4Z"/><path fill="#C8CBCC" id="ec" d="m113 238-1 2-9-9c0-2.627 5.097 3 6 3l4 4Z"/><path fill="#99D2BD" id="OLF" d="m373 230-1 1 1-1Z"/><path fill="#9DE79B" id="BLAa" d="M110 243h1l1-3-9-9-2 1c0 2.878 5.754 11 9 11Z"/><path fill="#80BFE0" id="CEAc" d="m113 238 4 4.5c2.512 5.024 12 14.303 12 1.5l-6-8-7-5h-4c-2.747 0-3 .253-3 3l4 4Z"/><path fill="#FF4B3E" id="AHN" fill-rule="evenodd" d="M209 247c0 8.584 11.425 0 0 0m-18 5c0 8.686 4.482 13.491 11.5 17h5c1.584.792 5.944 2.028 8 1l3.5-3v-27c0-9.944-19-10.846-19-4 0 4.234-4.534 16-9 16ZM243 247l-1 3.5c1.493 2.985 10.103-3.5 1-3.5m22 5c0 8.313-3.203 13.352-10.5 17h-6c-1.455.728-5.073 1.964-7 1l-4.5-4v-26c0-4.019 8.165-11.167 12.5-9l7.5 4-1 4.5c1.168 2.335 5.796 12.5 9 12.5Z"/><path fill="#80BFE0" id="CEAc" d="m343 239-3 2.5c-1.7 3.4-12 16.929-12 3.5 0-3.984 5-6.027 5-9l7-5h4c2.747 0 3 .253 3 3 0 2.741-4 2.268-4 5Z"/><path fill="#9DE79B" id="BLAa" d="m345 242 1 1c5.435 0 6.686-11 10-11v-1h-2l-10 9 1 2Z"/><path fill="#99D2BD" id="OLF" d="m372 231-1 1 1-1Z"/><path fill="#C8C9CB" id="amc" d="M101 237c1.074 0 9 9.344 9 6-3.246 0-9-8.122-9-11h-1l-1 1v2l2 2ZM355 238c-.761 0-9 8.716-9 5 5.435 0 6.686-11 10-11l2 1-1 2-1 1-1 1v1Z"/><path fill="#99D2BD" id="OLF" d="M371 232c-1.577 0-2 1.762-2 3 1.577 0 2-1.762 2-3Z"/><path fill="#A0ED9D" id="EPv" d="M109 271h2c1.747 0 2-.253 2-2v-14l-12-16-2-4v-2h-5l-5 5c0 4.775 20 26.676 20 33Z"/><path fill="#F2463A" id="PeF" d="m189 251 2 1c4.466 0 9-11.766 9-16h-1l-2.5 3c-2.906 1.453-3.5-4.538-3.5-6-2.215 0-1.519 2-3 2 0 4.734-1 10.644-1 16ZM265 252h2c0-5.996-1-12.639-1-18l-3-1c0 1.231.404 7.452-2.5 6l-3.5-4-1 4.5c1.168 2.335 5.796 12.5 9 12.5Z"/><path fill="#A0ED9D" id="EPv" d="M345 271h2l4-7.5c2.839-5.678 16-20.245 16-25.5v-1l-4-4h-5l-1 2v1c0 1.238-.423 3-2 3 0 1.775-8.459 13-10 13 0 1.048.473 3-1 3l-1 6v9l2 1Z"/><path fill="#80BEE2" id="IA" d="M101 237c0 .839 1.93 2 0 2l-2-4 2 2Z"/><path fill="#8AD987" id="CTXsp" d="M356 236h1v-1l-1 1Z"/><path fill="#99D2BD" id="OLF" d="M367 237v1c1.577 0 2-1.762 2-3l-2 2Z"/><path fill="#8AD987" id="CTXsp" d="m356 236-1 1 1-1Z"/><path fill="#80BEE2" id="IA" d="M355 238v1c1.577 0 2-1.762 2-3h-1l-1 1v1Z"/><path fill="#8AD987" id="CTXsp" d="m117 253-3.5-3c-3.097 0-.5 4.453-.5 5l-12-16c1.93 0 0-1.161 0-2 1.074 0 9 9.344 9 6h1c0 4.015 6 6.81 6 10Z"/><path fill="#97D6F9" id="STR" d="m299 250 7.5-1 2.5 2c0-2.298-2.88-8 2-8l-4-6c0 2.215-2 1.519-2 3l-1 1c0 3.584-5 5.328-5 9ZM117 254l1 1 7.5-4c2.161-1.081 4.894 1 6.5 1 0-1.423-1.978-3.544-1-5.5l2-2.5h-4c0 12.803-9.488 3.524-12-1.5l-4-4.5-1 2-1 3c0 4.015 6 6.81 6 10v1ZM149 249c3.423 0 6.474 2 9 2 0-4.4-7-7.24-7-11l-2-2c0 2.359-4 3.698-4 5 3.591 0 4 3.117 4 6Z"/><path fill="#8AD987" id="CTXsp" d="m343 250 2 2c1.541 0 10-11.225 10-13v-1c-.761 0-9 8.716-9 5l-1-1c0 3.303-2 5.115-2 8Z"/><path fill="#FD5547" id="SBPV" d="m232 271 5 1v-32l-1-1-4 3v29Z"/><path fill="#8599CC" id="PAL" d="M296 251v2l3-3c0-3.672 5-5.416 5-9-4.209 0-7.957-2-9-2 0 3.531 1 7.893 1 12Z"/><path fill="#97D6F9" id="STR" d="m340 253-2 2c-3.048 0-7.615-4-13-4 0-2.847-2-6.938-2-7l5 1c0 13.429 10.3-.1 12-3.5l3-2.5 1 1 1 2c0 3.303-2 5.115-2 8l-1 1-2 2Z"/><path fill="#8599CC" id="PAL" d="M161 252v2l-3-3c0-4.4-7-7.24-7-11l5.5 2 4.5-2v12Z"/><path fill="#FD5547" id="SBPV" d="m224 271-5 1v-32h3l2 1v30Z"/><path fill="#8599CC" id="PAL" d="m305 240-1 1 1-1Z"/><path fill="#FF5D50" id="PVa" d="M228 274c0 1.048.473 3-1 3l-3-6v-30l3 1v24.5c0 1.448-.725 7.5 1 7.5ZM229 274c0 1.048-.473 3 1 3l2-6v-29l-3 1v31Z"/><path fill="#80C0E2" id="AAA" d="M147 253c-1.823 0-5.086 2-10 2-2.364 0-3.053-3-5-3 0-1.423-1.978-3.544-1-5.5l2-2.5 12-1c3.591 0 4 3.117 4 6l-1 1-1 3ZM320 255l-1 1c-4.283 0-8.173-4-10-4v-1c0-2.298-2.88-8 2-8l12 1c0 .062 2 4.153 2 7l-5 4Z"/><path fill="#FE5D4E" id="ASO" d="M209 247c0 8.584 11.425 0 0 0ZM243 247l-1 3.5c1.493 2.985 10.103-3.5 1-3.5Z"/><path fill="#97D6F9" id="STR" d="m149 249-1 1 1-1Z"/><path fill="#80BFE1" id="MEA" d="m160 280-3 1c0-2.516.018-12-3-12l-1-2-6-6v-8l1-3 1-1c3.423 0 6.474 2 9 2l3 3v1l1 1c0 3.855 3 6.459 3 10v1c-.274 0-3 9.071-3 10l-1 1v1l-1 1ZM297 281c.839 0 2 1.93 2 0 0-2.119.949-11 3-11l1-1 1-2 1-1c0-1.562 2.189-5 4-5v-10l-2.5-2-7.5 1-3 3-1 1-3 11c0 4.078 2 7.622 2 11l1 1v2l2 2Z"/><path fill="#80BEE2" id="IA" d="M117 255c-1.674 0-2.326 1-4 1v-1c0-.547-2.597-5 .5-5l3.5 3v2Z"/><path fill="#8AD987" id="CTXsp" d="m343 250-1 1 1-1Z"/><path fill="#80BEE2" id="IA" d="M340 253c0 5.261 1.444 2 4 2 0-1.048-.473-3 1-3l-2-2-1 1-2 2Z"/><path fill="#84EA80" id="BMAa" d="m116 274 4 1 11-4 2-2c0-3.29-.534-8 4-8v-6c-2.364 0-3.053-3-5-3-1.606 0-4.339-2.081-6.5-1l-7.5 4h-1c0 1.417-2.383 6-4 6v8l3 5Z"/><path fill="#E64438" id="HY" d="M191 273c0-10.329 21.663 4 28 4v-10l-3.5 3c-2.056 1.028-6.416-.208-8-1h-5c-7.018-3.509-11.5-8.314-11.5-17l-2-1c0 29.748-16.961 1-28 1v3l1 1c0 3.855 3 6.459 3 10 1.845 0 1.441-3.381 2-4.5.671-1.341 6-4.475 6-1l-1 2.5c3.023 0 11 .722 11 5h1l7 5ZM295 253h1v-2l-1 2Z"/><path fill="#84EA80" id="BMAa" d="M336 275h4l1-1 2-4v-9l-5-6c-3.048 0-7.615-4-13-4l-5 4-1 1v4c3.914 0 5 7.325 5 10l1 1c4.193 0 7.454 4 11 4Z"/><path fill="#E64438" id="HY" d="M266 273h1l1-1 1-1 3-2 1-1 1-1h1v-2c-5.488 0-8-7.85-8-13h-2c0 8.313-3.203 13.352-10.5 17h-6c-1.455.728-5.073 1.964-7 1l-4.5-4v6l1 5c4.5 0 28-14.485 28-4Z"/><path fill="#97D6F9" id="STR" d="M315 259h4v-3c-4.283 0-8.173-4-10-4v9c1.974 0 3.517-2 6-2Z"/><path fill="#8AD987" id="CTXsp" d="M345 252c-1.473 0-1 1.952-1 3 1.473 0 1-1.952 1-3Z"/><path fill="#97D6F9" id="STR" d="M146 260h1v-7c-1.823 0-5.086 2-10 2v3h1l3 1 5 1Z"/><path fill="#E64438" id="HY" d="M291 265h1l3-11v-1c-3.531 0-20 9.075-20 12 3.255 0 6.058-2 10-2l-1-2c0-1.755 1.603-2.949 3.5-2l3.5 6Z"/><path fill="#8599CC" id="PAL" d="m296 253-1 1v-1h1Z"/><path fill="#8AD987" id="CTXsp" d="m344 255-1 6-5-6 2-2c0 5.261 1.444 2 4 2ZM117 255h1l-1-1v1ZM113 256v5c1.617 0 4-4.583 4-6-1.674 0-2.326 1-4 1Z"/><path fill="#8599CC" id="PAL" d="m161 255 1 1-1-1Z"/><path fill="#97D6F9" id="STR" d="m320 255-1 1 1-1Z"/><path fill="#99D2BD" id="OLF" d="m138 258-1 1v-1h1Z"/><path fill="#C7CAC8" id="stc" d="M140 267h2l2-3.5-3-4.5-3-1-1 1v2l3 6ZM314 267h2c2.753 0 3-5.011 3-7v-1h-4l-3 5.5 2 2.5Z"/><path fill="#94E4C7" id="NLOT3" d="m142 267 7.5-2 3.5 2-6-6-1-1-5-1 3 4.5-2 3.5Z"/><path fill="#FE5B50" id="SO" d="M168 269h1l3-6 1-2.5c0-3.475-5.329-.341-6 1-.559 1.119-.155 4.5-2 4.5v1c0 3.212 1.288 2 3 2ZM287 269h1c3.626 0 3 .4 3-4l-3.5-6c-1.897-.949-3.5.245-3.5 2l1 2 2 5v1Z"/><path fill="#94E4C7" id="NLOT3" d="M305 266c2.906 0 5.883 1 9 1l-2-2.5 3-5.5c-2.483 0-4.026 2-6 2-1.811 0-4 3.438-4 5Z"/><path fill="#99D2BD" id="OLF" d="M147 260v1l-1-1h1Z"/><path fill="#94E4C7" id="NLOT3" d="M324 272v1l-1.5-3-6.5-3c2.753 0 3-5.011 3-7 3.914 0 5 7.325 5 10v2ZM133 269v2l7-4-3-6c-4.534 0-4 4.71-4 8Z"/><path fill="#CAC7CB" id="fiber tracts" d="M183 268c-2.802 0-5.472-5.014-9.5-3l-4.5 4 3-6c3.023 0 11 .722 11 5ZM275 267c2.203 0 4.569-3.465 7.5-2l4.5 3-2-5c-3.942 0-6.745 2-10 2v2Z"/><path fill="#95E3C8" id="NLOT2" d="m136 282 1 1c12.668 0 17-1.77 17-14l-1-2-3.5-2-7.5 2h-2l-7 4v1c0 2.47-.316 10 3 10Z"/><path fill="#CACCCB" id="opt" d="M199 284v2c-8.52 0-14.526-3.513-21.5-7l-8.5-6-1-2 1-2 4.5-4c4.028-2.014 6.698 3 9.5 3h1c0 2.876 15 11.132 15 16ZM257 284v2c5.896 0 9.841-3 15-3 0-1.577 1.762-2 3-2l8-4c0-1.747.253-2 2-2l1-1 1-1 1-1v-2l-1-1v-1l-4.5-3c-2.931-1.465-5.297 2-7.5 2h-1l-1 1-1 1-3 2-1 1-1 1c0 1.577-1.762 2-3 2l-1 1-1 1c0 1.424-3.98 7-5 7Z"/><path fill="#95E3C8" id="NLOT2" d="M324 273c0 2.474-1.297 10-5 10-9.756 0-17-2.002-17-13l1-1 1-2 1-1c2.906 0 5.883 1 9 1h2l6.5 3 1.5 3Z"/><path fill="#94E4C7" id="NLOT3" d="m305 266-1 1 1-1Z"/><path fill="#CAC7CB" id="fiber tracts" d="m274 267-1 1 1-1ZM217 285c-4.147 0 7.192 1 10 1 0 .987-14.22 2-16 2-16.018 0-16.193.154-30.5-7-2.625-1.312-11.5-3.084-11.5-8l8.5 6c6.974 3.487 12.98 7 21.5 7 11.405 0 11.708-2 0-2 0-4.868-15-13.124-15-16l7 5c0 6.764 16.826 9.163 20.5 11 1.238.619 5.5-1.144 5.5 1ZM273 268l-1 1 1-1Z"/><path fill="#8AD987" id="CTXsp" d="m113 273 3 1-3-5c0 1.747-.253 2-2 2l1 2h1Z"/><path fill="#99D2BD" id="OLF" d="M133 271v1l-2-1 2-2v2Z"/><path fill="#95E4C7" id="NLOT1" d="m147 293-1 1c-3.015 0-6.004-2-8-2l-1-9c12.668 0 17-1.77 17-14 3.018 0 3 9.484 3 12 0 3.137-4 5.591-4 8l-1 1-1 1-1 1-3 1Z"/><path fill="#CAC7CB" id="fiber tracts" d="m169 269-1 2v-2h1Z"/><path fill="#F2483B" id="RCH" d="M217 285h7l1-1c0-2.215-2-1.519-2-3h-1l-1-1c0-1.481-2-.785-2-3-6.337 0-28-14.329-28-4 0 6.764 16.826 9.163 20.5 11 1.238.619 5.5-1.144 5.5 1ZM233 285h6c0-2.261 10.713-1.107 12.5-2 2.184-1.092 8.353-6 10.5-6l1-1 1-1 2-2c0-10.485-23.5 4-28 4l-1 1c0 1.712-2.571 3-4 3l-2 3 2 1Z"/><path fill="#CAC7CB" id="fiber tracts" d="M288 269v1l-1-1h1Z"/><path fill="#95E4C7" id="NLOT1" d="m303 269-1 1 1-1ZM310 294h1c2.409 0 5.181-1 7-1 0-2.978 1-6.49 1-10-9.756 0-17-2.002-17-13-2.051 0-3 8.881-3 11 1.149 0 1.508 4.516 2 5.5l4 4.5h1l2 2h1l1 1Z"/><path fill="#99D2BD" id="OLF" d="m325 271-1 1v-2l1 1Z"/><path fill="#8AD987" id="CTXsp" d="M341 274h1l1-1h1l1-2-2-1-2 4Z"/><path fill="#99D2BD" id="OLF" d="m112 273-3 1v-3h2l1 2Z"/><path fill="#60E5B7" id="COAa" d="M138 292c0 6.44-13.626 5-17 5 0-4.597-3-11.877-3-19l2-3 11-4 2 1c0 2.47-.316 10 3 10l1 1 1 9Z"/><path fill="#FF5545" id="SCH" d="M222 281h1l4-4-3-6-5 1v5c0 2.215 2 1.519 2 3l1 1ZM237 278c0 1.712-2.571 3-4 3-1.712 0-3-2.571-3-4l2-6 5 1 1 5-1 1Z"/><path fill="#CAC7CB" id="fiber tracts" d="m269 271-1 1 1-1Z"/><path fill="#60E5B7" id="COAa" d="M318 293c.427 0 5.19 3.345 6.5 4 2.861 1.43 8.233 0 10.5 0l2-3.5c2.247-4.495 1-11.225 1-15.5l-2-3c-3.546 0-6.807-4-11-4l-1 1v1c0 2.474-1.297 10-5 10 0 3.51-1 7.022-1 10Z"/><path fill="#99D2BD" id="OLF" d="m344 273 4 1-1-3h-2l-1 2Z"/><path fill="#CAC7CB" id="fiber tracts" d="m268 272-1 1 1-1ZM288 272l-1 1 1-1Z"/><path fill="#59D9AA" id="PAA" d="M107 301h9l5-4c0-4.597-3-11.877-3-19l-5-5h-1l-3 1c0 3.049-10.433 22-13 22 0 2.645 6.992 4 9 4l2 1Z"/><path fill="#99D2BD" id="OLF" d="m120 275-2 3-5-5 3 1 4 1Z"/><path fill="#CAC7CB" id="fiber tracts" d="M267 273c0 1.577-1.762 2-3 2l2-2h1ZM287 273l-1 1 1-1Z"/><path fill="#99D2BD" id="OLF" d="m343 273-1 1 1-1Z"/><path fill="#59D9AA" id="PAA" d="M341 301h9l1-1c3.42 0 6.14-3 9-3 0-.875-12-17.269-12-23l-4-1h-1l-1 1h-1l-1 1-2 3c0 4.275 1.247 11.005-1 15.5l-2 3.5 3.5 3c.919.459 2.5-.765 2.5 1Z"/><path fill="#E64438" id="HY" d="M225 284c1.639 0 2.455-2 3.5-2 .63 0 .688 2 2.5 2l2-3c-1.712 0-3-2.571-3-4-1.473 0-1-1.952-1-3h-1c0 1.048.473 3-1 3l-4 4c0 1.481 2 .785 2 3Z"/><path fill="#CAC7CB" id="fiber tracts" d="m286 274-1 1 1-1Z"/><path fill="#99D2BD" id="OLF" d="m341 274-1 1 1-1Z"/><path fill="#CAC7CB" id="fiber tracts" d="m264 275-1 1 1-1ZM285 275c-1.747 0-2 .253-2 2 1.747 0 2-.253 2-2Z"/><path fill="#99D2BD" id="OLF" d="m340 275-2 3-2-3h4Z"/><path fill="#CAC7CB" id="fiber tracts" d="m263 276-1 1 1-1Z"/><path fill="#97D6F9" id="STR" d="m294 276 1 1-1-1ZM162 277l-1 1 1-1Z"/><path fill="#E64438" id="HY" d="m238 277-1 1 1-1Z"/><path fill="#CAC7CB" id="fiber tracts" d="M239 285c4.332 0-6.426 1-9 1 0 2.39 8.856.178 10.5 1 5.025 2.512 31.5 2.004 31.5-4-5.159 0-9.104 3-15 3-1.555 0-10 .588-10-1.5l10-.5c1.02 0 5-5.576 5-7-2.147 0-8.316 4.908-10.5 6-1.787.893-12.5-.261-12.5 2ZM283 277l-8 4c2.652 0 8-1.071 8-4Z"/><path fill="#97D6F9" id="STR" d="m160 280 1 1v-2l-1 1ZM295 281h2l-2-2v2Z"/><path fill="#99D2BD" id="OLF" d="M161 281c0 2.664-5.336 8-8 8 0-2.409 4-4.863 4-8l3-1 1 1Z"/><path fill="#E64438" id="HY" d="m221 280 1 1-1-1Z"/><path fill="#CAC7CB" id="fiber tracts" d="M275 281c-1.238 0-3 .423-3 2 1.238 0 3-.423 3-2Z"/><path fill="#99D2BD" id="OLF" d="M299 281c1.149 0 1.508 4.516 2 5.5l4 4.5c-2.643 0-10-7.304-10-10h2c.839 0 2 1.93 2 0ZM136 282l1 1-1-1Z"/><path fill="#CAC7CB" id="fiber tracts" d="M229 285h4l-2-1c-1.812 0-1.87-2-2.5-2-1.045 0-1.861 2-3.5 2l-1 1c1.048 0 3-.473 3 1l2-1Z"/><path fill="#CBCACC" id="och" d="M199 284c11.708 0 11.405 2 0 2v-2ZM257 284l-10 .5c0 2.088 8.445 1.5 10 1.5v-2Z"/><path fill="#CCCAC9" id="sup" d="M224 285c1.048 0 3-.473 3 1-2.808 0-14.147-1-10-1h7ZM239 285c4.332 0-6.426 1-9 1l-1-1h10Z"/><path fill="#99D2BD" id="OLF" d="m153 289-1 1 1-1ZM152 290l-1 1 1-1ZM151 291l-1 1 1-1ZM306 291l2 2-2-2ZM121 297l-5 4c7.445 0 18.15-1.825 24.5-5 1.114-.557 5.5-.41 5.5-2-3.015 0-6.004-2-8-2 0 6.44-13.626 5-17 5ZM147 293l-1 1 1-1ZM309 293l1 1-1-1ZM335 297l3.5 3c.919.459 2.5-.765 2.5 1-8.149 0-14.718-4-22.5-4-1.503 0-7.5-1.382-7.5-3 2.409 0 5.181-1 7-1 .427 0 5.19 3.345 6.5 4 2.861 1.43 8.233 0 10.5 0ZM105 300l2 1-2-1ZM351 300l-1 1 1-1Z"/></svg>