<svg xmlns="http://www.w3.org/2000/svg" viewBox="0 0 456 320"><path fill="#1BA696" id="RSPagl1" d="M197 18c-5.443 0-10.891 2-17 2v-5c5.909 0 11.579-1 17-1v4Z"/><path fill="#1BA598" id="RSPd1" d="m228 33-5 2c0-12.63-15.942-17-26-17v-4c11.318 0 20.767 2.034 26 12.5 1.169 2.338 5 3.723 5 6.5ZM229 33l4 1c0-10.972 17.186-16 26-16l1-4c-12.079 0-21.335 2.17-27 13.5-1.151 2.303-4 2.641-4 5.5Z"/><path fill="#1BA696" id="RSPagl1" d="M259 18c5.443 0 10.891 2 17 2l1-5c-5.789 0-11.78-1-17-1l-1 4Z"/><path fill="#187C64" id="SSp-tr1" d="M137 30h1c0-2.033 7.021-2.26 8.5-3 9.514-4.757 22.18-7 33.5-7v-5c-11.488 0-28.898 3.2-38.5 8-1.437.719-9.5 1.343-9.5 3l4 4h1ZM319 30h1c0-2.924 4-1.377 4-4 0-1.657-8.063-2.281-9.5-3-9.377-4.688-26.295-8-37.5-8l-1 5c11.446 0 24.865 2.182 34.5 7 1.242.621 8.5 1.767 8.5 3Z"/><path fill="#1AA496" id="RSPagl2/3" d="M182 30v1c5.246 0 9.14-4 15-4v-9c-5.443 0-10.891 2-17 2l2 10Z"/><path fill="#1BA697" id="RSPd2/3" d="m223 35-6 3c0-10.345-11.593-11-20-11v-9c10.058 0 26 4.37 26 17ZM233 35l6 3c0-10.113 12.23-11 20-11v-9c-8.814 0-26 5.028-26 16v1Z"/><path fill="#1AA496" id="RSPagl2/3" d="M275 30v1c-5.755 0-9.641-4-16-4v-9c5.443 0 10.891 2 17 2 0 2.978-1 6.49-1 10Z"/><path fill="#188061" id="SSp-tr2/3" d="m143 35 6 4c5.835 0 24.309-9 33-9l-2-10c-11.32 0-23.986 2.243-33.5 7-1.479.74-8.5.967-8.5 3h-1c0 4.01 6 1.445 6 5ZM307 39h1l5-4c2.38 0 6-4.654 6-5 0-1.233-7.258-2.379-8.5-3-9.635-4.818-23.054-7-34.5-7 0 2.978-1 6.49-1 10 5.955 0 20.184 4.342 25.5 7 1.3.65 6.5.007 6.5 2Z"/><path fill="#197E64" id="SSp-ul1" d="M136 30c-2.7 0-4.762 3-8 3l-1-5c0-.672 4.329-2 5-2l4 4ZM328 33h1v-5c0-1.014-3.959-2-5-2 0 2.623-4 1.076-4 4l8 3Z"/><path fill="#1CA697" id="RSPagl5" d="m195 41-12 5-1-14v-1c5.246 0 9.14-4 15-4 0 4.414-1 9.177-1 13l-1 1Z"/><path fill="#1AA596" id="RSPd5" d="M196 40c5.734 0 11 .074 11 7 3.735 0 6.491-8 10-8v-1c0-10.345-11.593-11-20-11 0 4.414-1 9.177-1 13ZM261 41c-5.237 0-12-2.602-12 6-3.741 0-5.783-8-10-8v-1c0-10.113 12.23-11 20-11 0 4.728 2 9.634 2 14Z"/><path fill="#1CA697" id="RSPagl5" d="M261 41c4.747 0 7.693 5 12 5 0-4.902 2-9.595 2-14v-1c-5.755 0-9.641-4-16-4 0 4.728 2 9.634 2 14Z"/><path fill="#1B8062" id="SSp-un1" d="m128 34-10 4-1-5c0-1.986 8.239-5 10-5l1 5v1ZM338 38h1l1-5c0-1.802-9.131-5-11-5v5c0 1.587 7.512 5 9 5Z"/><path fill="#197F61" id="SSp-ul2/3" d="M131 46h1c0-1.18 11.294-6 13-6l-2-5c0-3.555-6-.99-6-5h-1c-2.7 0-4.762 3-8 3v1c.983 0 3 10.42 3 12Z"/><path fill="#1B7E62" id="SSp-tr4" d="M154 43h2c0-2.378 5.072-2.286 6.5-3 3.999-2 15.434-8 19.5-8v-2c-8.691 0-27.165 9-33 9 0 1.947 5 .719 5 4ZM301 43h2c0-3.244 4-2.352 4-4 0-1.993-5.2-1.35-6.5-2-5.316-2.658-19.545-7-25.5-7v2l19.5 8c1.265.632 6.5 1.278 6.5 3Z"/><path fill="#197F61" id="SSp-ul2/3" d="M312 41c4.806 0 8.764 5 13 5 0-4.492 3-8.296 3-13l-8-3h-1c0 .346-3.62 5-6 5l-1 5v1Z"/><path fill="#197F60" id="SSp-tr5" d="M168 51h1l14-4v-1l-1-14c-4.066 0-15.501 6-19.5 8-1.428.714-6.5.622-6.5 3 .099 0 12 6.57 12 8ZM287 51h1c0-2.462 13-7.377 13-8 0-1.722-5.235-2.368-6.5-3L275 32c0 4.405-2 9.098-2 14l14 5Z"/><path fill="#188060" id="SSp-bfd1" d="m52 85 4 3 3-4.5 12-14c7.926-7.926 37.727-31.5 47-31.5l-1-5c-12.315 0-47.588 26.677-52 35.5-2.501 5.003-13 10.852-13 16.5Z"/><path fill="#1BA597" id="RSPv1" d="M229 78h3l1-43v-1l-4-1h-1l-5 2 1 43h3c0-4.013 2-4.556 2 0Z"/><path fill="#1C7F63" id="SSp-un2/3" d="M334 49h1l3-11c-1.488 0-9-3.413-9-5h-1c0 4.704-3 8.508-3 13 3.083 0 5.545 3 9 3Z"/><path fill="#188060" id="SSp-bfd1" d="m404 85-3 3c-3.06 0-4.224-7.862-6.5-9l-24-23c-8.456-4.228-15.581-10.79-24-15-1.242-.621-7.5-1.64-7.5-3l1-5c4.646 0 9.534 4.017 13.5 6 12.426 6.213 35.473 21.446 41.5 33.5 2.028 4.056 9 7.786 9 12.5Z"/><path fill="#1C7F63" id="SSp-un2/3" d="M122 49h1l8-3c0-1.58-2.017-12-3-12l-10 4 4 11Z"/><path fill="#187F64" id="SSp-ll2/3" d="m149 39-4 1-2-5 6 4Z"/><path fill="#1AA597" id="RSPv2/3" d="M221 78h3l-1-43-6 3v1c0 3.787.915 29.33 2 31.5.946 1.892 2 5.372 2 7.5ZM232 78h4c0-12.753 3-25.456 3-39v-1l-6-3-1 43Z"/><path fill="#187F64" id="SSp-ll2/3" d="m308 39 4 1 1-5-5 4Z"/><path fill="#187F63" id="SSp-bfd2/3" d="m56 89 8 7 9-13.5c6.552-13.103 24.562-21.531 36.5-27.5 3.348-1.674 8.746-6 12.5-6l-4-11c-9.273 0-39.074 23.574-47 31.5l-12 14-3 4.5v1ZM392 96h1c3.015 0 4.215-7 8-7v-1c-3.06 0-4.224-7.862-6.5-9l-24-23c-8.456-4.228-15.581-10.79-24-15-1.242-.621-7.5-1.64-7.5-3h-1l-3 11c0 2.334 4.181 1.34 5.5 2l12 6c11.001 5.5 26.982 16.464 32.5 27.5 1.733 3.466 7 7.511 7 11.5Z"/><path fill="#1C7F64" id="SSp-ll4" d="M145 46h1l8-3c0-3.281-5-2.053-5-4l-4 1v6Z"/><path fill="#1BA498" id="RSPv5" d="M215 76c1.974 0 3.517 2 6 2 0-2.128-1.054-5.608-2-7.5-1.085-2.17-2-27.713-2-31.5-3.509 0-6.265 8-10 8v2c0 8.204 5 16.186 5 24l3 3ZM241 76l-5 2c0-12.753 3-25.456 3-39 4.217 0 6.259 8 10 8v2c0 8.317-4 15.11-4 23l-1 1-3 3Z"/><path fill="#1C7F64" id="SSp-ll4" d="m303 43 8 3c0-1.234-.643-5 1-5v-1l-4-1h-1c0 1.648-4 .756-4 4Z"/><path fill="#1A7F63" id="SSp-ul4" d="m145 46-12 6-1-6c0-1.18 11.294-6 13-6v6Z"/><path fill="#1AA697" id="RSPd6a" d="m195 56 5 2 7-9v-2c0-6.926-5.266-7-11-7l-1 1v15ZM259 57l-3 1c0-2.246-5.059-9-7-9v-2c0-8.602 6.763-6 12-6v15l-2 1Z"/><path fill="#1CA597" id="RSPagl6a" d="m193 57-7 2c0-1.568-1.445-12-3-12v-1l12-5v15l-2 1ZM270 59h1c0-4.908 2-8.486 2-13-4.307 0-7.253-5-12-5v15l9 3Z"/><path fill="#1A7F63" id="SSp-ul4" d="M311 47c4.717 0 8.489 5 13 5l1-6c-4.236 0-8.194-5-13-5-1.643 0-1 3.766-1 5v1Z"/><path fill="#197C63" id="SSp-ll5" d="M168 51c0 2.334-4.181 1.34-5.5 2L147 58l-1-12 8-3h2c.099 0 12 6.57 12 8ZM288 51c0 1.353 4.643 2 6 2 4.763 0 10.066 5 15 5 0-4.44 2-7.927 2-11v-1l-8-3h-2c0 .623-13 5.538-13 8Z"/><path fill="#197E61" id="SSp-un4" d="m133 52-8 4c0-2.097-2-4.903-2-7l8-3h1l1 6Z"/><path fill="#187E62" id="SSp-ul5" d="M147 59c-4.624 0-7.761 4-12 4 0-4.847-2-6.593-2-11l12-6h1l1 12v1Z"/><path fill="#188063" id="SSp-tr6a" d="M275 61h1c0-3.445 11-7.037 11-10l-14-5c0 4.514-2 8.092-2 13l4 2Z"/><path fill="#197E61" id="SSp-un4" d="M331 57h1l2-8c-3.455 0-5.917-3-9-3l-1 6c1.294 0 7 3.609 7 5Z"/><path fill="#188063" id="SSp-tr6a" d="M180 61h2l4-2c0-1.568-1.445-12-3-12l-14 4c0 3.114 11 5.584 11 10Z"/><path fill="#187E62" id="SSp-ul5" d="M309 59c4.872 0 7.634 4 12 4 0-4.18 3-7.249 3-11-4.511 0-8.283-5-13-5 0 3.073-2 6.56-2 11v1Z"/><path fill="#197C64" id="SSp-bfd4" d="M69 101h1l3-4.5L83.5 86c8.97-8.97 18.232-15.616 29-21 3.648-1.824 8.353-8 12.5-8v-1c0-2.097-2-4.903-2-7h-1c-3.754 0-9.152 4.326-12.5 6C97.562 60.969 79.552 69.397 73 82.5L64 96v1l5 4Z"/><path fill="#1AA498" id="RSPv6a" d="m209 70 3 3c0-7.814-5-15.796-5-24l-7 9v1c2.709 0 9 8.9 9 11ZM248 69l-3 3c0-7.89 4-14.683 4-23 1.941 0 7 6.754 7 9v1l-1 2c-1.747 0-2 .253-2 2-1.911 0-5 3.805-5 6Z"/><path fill="#197C64" id="SSp-bfd4" d="M386 101h1c.44 0 5-2.668 5-5 0-3.989-5.267-8.034-7-11.5-5.518-11.036-21.499-22-32.5-27.5l-12-6c-1.319-.66-5.5.334-5.5-2h-1l-2 8c3.236 0 8.497 6.499 11.5 8 9.666 4.833 27.02 14.54 31.5 23.5 2.106 4.212 11 7.614 11 12.5Z"/><path fill="#1A7F64" id="SSp-ll6a" d="m180 61-31 10c0-5.126-2-9.236-2-12v-1l15.5-5c1.319-.66 5.5.334 5.5-2h1c0 3.114 11 5.584 11 10ZM276 61c8.795 0 23.137 10 31 10 0-4.786 2-7.296 2-12v-1c-4.934 0-10.237-5-15-5-1.357 0-6-.647-6-2h-1c0 2.963-11 6.555-11 10Z"/><path fill="#197D62" id="SSp-un5" d="m135 64-7 3c0-3.396-3-6.34-3-10v-1l8-4c0 4.407 2 6.153 2 11v1ZM321 64c2.607 0 4.913 3 7 3 0-3.414 3-6.353 3-10 0-1.391-5.706-5-7-5 0 3.751-3 6.82-3 11v1Z"/><path fill="#1AA598" id="RSPagl6b" d="M193 57h2v-1l-2 1Z"/><path fill="#1BA698" id="RSPd6b" d="M199 59h1v-1l-5-2v1l4 2ZM259 57h2v-1l-2 1Z"/><path fill="#1AA598" id="RSPagl6b" d="M270 59v1c-3.647 0-5.609-3-9-3v-1l9 3Z"/><path fill="#1A7D62" id="SSp-bfd5" d="M70 101c0 2.105 7.198 8 9 8 0-4.582 8.004-8.508 10-12.5 4.686-9.373 21.191-18.846 30.5-23.5l8.5-6c0-3.396-3-6.34-3-10-4.147 0-8.852 6.176-12.5 8-10.768 5.384-20.03 12.03-29 21L73 96.5l-3 4.5Z"/><path fill="#1AA598" id="RSPagl6b" d="m186 59 1 1 6-3-7 2Z"/><path fill="#CACCC7" id="cing" d="m212 73 3 3c-7.505 0-14.159-7.83-20.5-11-8.131-4.066-19.944 4-27.5 4h-6c0-1.014 3.959-2 5-2 5.697 0 10.474-5 16-5 .671 0 5-1.328 5-2l6-3h2l4 2 10 11 3 3Z"/><path fill="#1BA698" id="RSPd6b" d="M256 59h1l2-2-3 1v1Z"/><path fill="#CACCC7" id="cing" d="m244 73-3 3c7.869 0 13.918-7.71 20.5-11 8.463-4.231 20.698 4 28.5 4h5c0-2.729-5.007-1.254-6.5-2-3.505-1.753-9.534-5-13.5-5-.671 0-5-1.328-5-2-3.647 0-5.609-3-9-3h-2l-2 2-2 2-2 2c0 1.668-3.099 6-5 6l-3 3-1 1Z"/><path fill="#1A7D62" id="SSp-bfd5" d="M386 101c0 2.257-6.014 8-8 8-3.578 0-4.784-8.642-7.5-10l-12-12c-8.091-4.045-15.013-11.007-23-15-2.532-1.266-4.524-5-7.5-5 0-3.414 3-6.353 3-10h1c3.236 0 8.497 6.499 11.5 8 9.666 4.833 27.02 14.54 31.5 23.5 2.106 4.212 11 7.614 11 12.5Z"/><path fill="#197D61" id="SSp-ul6a" d="m149 72-11 5c0-4.608-3-9-3-13v-1c4.239 0 7.376-4 12-4 0 2.764 2 6.874 2 12v1Z"/><path fill="#1A8063" id="SSp-tr6b" d="M182 61v1c.671 0 5-1.328 5-2l-1-1-4 2Z"/><path fill="#1AA497" id="RSPv6b" d="M200 59c2.709 0 9 8.9 9 11l-10-11h1ZM257 59l-2 2 1-2h1Z"/><path fill="#1A8063" id="SSp-tr6b" d="M275 61v1c-.671 0-5-1.328-5-2v-1h1l4 2Z"/><path fill="#197D61" id="SSp-ul6a" d="M318 77h1c0-5.483 2-8.364 2-13v-1c-4.366 0-7.128-4-12-4 0 4.704-2 7.214-2 12l11 6Z"/><path fill="#197F62" id="SSp-ll6b" d="m149 72 1 1c3.614 0 6.899-4 11-4 0-1.014 3.959-2 5-2 5.697 0 10.474-5 16-5v-1h-2l-31 10v1Z"/><path fill="#1AA497" id="RSPv6b" d="M255 61c-1.747 0-2 .253-2 2l2-2Z"/><path fill="#197F62" id="SSp-ll6b" d="M307 71v2c-4.366 0-7.128-4-12-4 0-2.729-5.007-1.254-6.5-2-3.505-1.753-9.534-5-13.5-5v-1h1c8.795 0 23.137 10 31 10Z"/><path fill="#1AA497" id="RSPv6b" d="M253 63c-1.911 0-5 3.805-5 6 1.901 0 5-4.332 5-6Z"/><path fill="#1A7F61" id="SSp-un6a" d="m138 77-6 3-2-3.5c0-2.433-2-6.662-2-9.5l7-3c0 4 3 8.392 3 13ZM319 77c0 1.477 3.924 3 5 3 1.032 0 4-11.323 4-13-2.087 0-4.393-3-7-3 0 4.636-2 7.517-2 13Z"/><path fill="#C9C7C9" id="ccb" d="m385 169-4 1c0-17.476-16.506-41.006-28.5-53-6.433-6.433-14.069-15-23.5-15 0-2.963-16.584-17-19-17l-10.5-8c-12.088-6.044-25.343-11.328-38-5-2.044 1.022-12.5 6.58-12.5 9-1.238 0-3 .423-3 2l-3 1c-4.451 0-10.713.107-14.5 2-.248.124-13.165-2-15.5-2 0-1.643-9.727-6.113-11.5-7-10.295-5.148-13.376-13.312-28-6-2.598 1.299-14.5 1.562-14.5 6-2.293 0-12 5.604-12 8-3.035 0-20 13.615-20 17-7.263 0-10.484 5.992-16.5 9-13.737 6.869-34.5 42.833-34.5 59l-4-1v-3c1.58 0 1-2.855 1-4v-1l1-2c2.057 0 4.994-12.488 6-14.5 4.29-8.579 14.906-30.703 24.5-35.5l9-8c11.22-5.61 19.373-16.187 31-22l17-8c1.114-.557 5.5-.41 5.5-2 7.556 0 19.369-8.066 27.5-4 6.341 3.17 12.995 11 20.5 11 1.974 0 3.517 2 6 2h15l5-2c7.869 0 13.918-7.71 20.5-11 8.463-4.231 20.698 4 28.5 4 0 1.722 5.235 2.368 6.5 3l17 8c12.173 6.087 21.612 18.806 34 25 12.037 6.018 24.293 30.086 29.5 40.5 1.043 2.087 3.722 14.5 6 14.5v1c0 1.048-.473 3 1 3v2l1 2v1Z"/><path fill="#198060" id="SSp-bfd6a" d="M90 119h1c0-1.417 2.383-6 4-6 0-2.226 1.774-4 4-4 0-1.747.253-2 2-2 0-3.273 11.186-12 14-12 0-3.082 9.393-10 12-10 0-1.533 3.753-4 5-4v-1l-2-3.5c0-2.433-2-6.662-2-9.5l-8.5 6c-9.309 4.654-25.814 14.127-30.5 23.5-1.996 3.992-10 7.918-10 12.5v1c4.037 0 7.186 9 11 9ZM378 110c-4.066 0-7.249 9-11 9l-9-10.5c-4.906-4.906-28.864-27.5-34-27.5v-1c1.032 0 4-11.323 4-13 2.976 0 4.968 3.734 7.5 5 7.987 3.993 14.909 10.955 23 15l12 12c2.716 1.358 3.922 10 7.5 10v1Z"/><path fill="#C7C8CC" id="alv" d="M215 87h1l-3-3c0-1.643-9.727-6.113-11.5-7-10.295-5.148-13.376-13.312-28-6-2.598 1.299-14.5 1.562-14.5 6h2c6.573 0 20.663-9.918 28.5-6 5.621 2.81 10.328 7.164 16 10l9.5 6ZM286 112l-13 1c0-1.655 5.199-3.349 6.5-4l13-3 12-7c6.785-3.392 4.324-19-3.5-19l-6-3c-6.08 0-20.045-9.728-27.5-6-4.965 2.483-12.896 10-18.5 10 0-2.42 10.456-7.978 12.5-9 12.657-6.328 25.912-1.044 38 5l10.5 8 1 8.5c-.895 1.79-3 3.403-3 5.5l-5.5 4c-4.821 2.411-16.5 4.421-16.5 9Z"/><path fill="#C9C9CA" id="scwm" d="M77 147c0 4.56-3 7.312-3 12 2.057 0 4.994-12.488 6-14.5 4.29-8.579 14.906-30.703 24.5-35.5l9-8c11.22-5.61 19.373-16.187 31-22l17-8c1.114-.557 5.5-.41 5.5-2h-6c-4.101 0-7.386 4-11 4l-11 5-7 4c0 1.077-3.762 3-5 3 0 1.875-9.71 10-12 10l-3 2.5c-2.568 2.568-7.395 9.5-11 9.5 0 1.747-.253 2-2 2 0 1.366-2.366 4-4 4 0 1.984-1.444 6-4 6v1c0 1.238-.423 3-2 3 0 1.849-4.67 10-6 10 0 2.254-3.816 14-6 14ZM365 120c0 3.515 4.514 5.528 6 8.5 3.466 6.932 12 24.001 12 31.5-2.278 0-4.957-12.413-6-14.5-5.207-10.414-17.463-34.482-29.5-40.5-12.388-6.194-21.827-18.913-34-25l-17-8c-1.265-.632-6.5-1.278-6.5-3h5c4.872 0 7.634 4 12 4l11 5c0 1.428 4.822 4 6 4l11.5 9c5.045 5.045 29.5 21.964 29.5 29Z"/><path fill="#7ECF4B" id="CA1" d="M161 77c6.573 0 20.663-9.918 28.5-6 5.621 2.81 10.328 7.164 16 10l9.5 6c0 3.118-11.531 2-14 2-7.968 0-24.556-5.528-31.5-9-1.397-.699-8.5-1.242-8.5-3ZM243 85l-1 2c0 3.088 11.075 2 13.5 2 9.408 0 22.89-4.945 31-9 1.537-.768 8.5-.692 8.5-3-6.08 0-20.045-9.728-27.5-6-4.965 2.483-12.896 10-18.5 10 0 1.577-1.762 2-3 2 0 1.577-1.762 2-3 2Z"/><path fill="#1C8064" id="SSp-ul6b" d="M318 77v1l-11-5v-2l11 6ZM138 77l1 1 11-5-1-1-11 5Z"/><path fill="#1AA498" id="RSPv6a" d="m245 72-1 1 1-1Z"/><path fill="#1A7D63" id="SSp-un6b" d="M132 81v1l7-4-1-1-6 3v1Z"/><path fill="#C7C8CC" id="alv" d="M185 114h2l1-1c-5.729 0-30.035-8.535-34-12.5l-7-8c-1.772-3.544 6.16-12.5 9-12.5l3-3c-2.293 0-12 5.604-12 8 0 2.42-2.411 6.677-1 9.5l3 4.5 4.5 4c4.06 2.03 17.5 4.506 17.5 9 5.151 0 9.701 2 14 2Z"/><path fill="#7DCF4B" id="CA2" d="m217 87 4 2c0 3.079-14.126 4-17.5 4-16.597 0-33.662-13-47.5-13l3-3h2c0 1.758 7.103 2.301 8.5 3 6.944 3.472 23.532 9 31.5 9 2.469 0 14 1.118 14-2h2ZM235 89h1l2-1 1-1h3c0 3.088 11.075 2 13.5 2 9.408 0 22.89-4.945 31-9 1.537-.768 8.5-.692 8.5-3l6 3c-6.434 0-34.201 9.85-40.5 13-7.683 3.842-18.89-3-25.5-3v-1Z"/><path fill="#1A7D63" id="SSp-un6b" d="M324 81v1c-1.178 0-6-2.572-6-4v-1h1c0 1.477 3.924 3 5 3v1Z"/><path fill="#7ECF49" id="CA3" d="M189 113h12l6-8c-2.161 0-11 .497-11-2-2.649 0 .584-3.542 1.5-4 3.317-1.659 14.998-1 18.5-1 1.974 0 3.517-2 6-2l2-1 1-1-1-4-2-1h-1c0 3.079-14.126 4-17.5 4-16.597 0-33.662-13-47.5-13-2.84 0-10.772 8.956-9 12.5l7 8c3.965 3.965 28.271 12.5 34 12.5h1ZM268 113h5c0-1.655 5.199-3.349 6.5-4l13-3 12-7c6.785-3.392 4.324-19-3.5-19-6.434 0-34.201 9.85-40.5 13-7.683 3.842-18.89-3-25.5-3l-3 1v3l3 2 4 1 1 1h1c3.108 0 14.496-.502 17.5 1 .916.458 4.149 4 1.5 4 0 2.789-7.892 2-10 2 0 4.295 5 4.502 5 8h13Z"/><path fill="#1A7E61" id="SSp-bfd6b" d="M132 82c0 1.077-3.762 3-5 3 0-1.533 3.753-4 5-4v1Z"/><path fill="#C7C8CC" id="alv" d="M249 81c-1.238 0-3 .423-3 2 1.238 0 3-.423 3-2Z"/><path fill="#1A7E61" id="SSp-bfd6b" d="M365 120h2v-1l-9-10.5c-4.906-4.906-28.864-27.5-34-27.5v1l11.5 9c5.045 5.045 29.5 21.964 29.5 29Z"/><path fill="#C7C8CC" id="alv" d="M243 84v1c1.238 0 3-.423 3-2l-3 1Z"/><path fill="#C9CCC9" id="dhc" d="M235 89h1l2-1 1-1h1c0-1.577 1.762-2 3-2v-1c-4.451 0-10.713.107-14.5 2-.248.124-13.165-2-15.5-2l3 3h1l4 2h14Z"/><path fill="#1A7E62" id="SSs1" d="m28 159 6 2c0-18.999 5.083-37.666 13-53.5 1.257-2.514 6.289-18.5 9-18.5v-1l-4-3c-1.45 0-8.004 13.507-9 15.5-8.607 17.215-15 37.932-15 58.5Z"/><path fill="#1A7E61" id="SSp-bfd6b" d="M127 85c-2.607 0-12 6.918-12 10 2.29 0 12-8.125 12-10Z"/><path fill="#A8AAAA" id="VL" fill-rule="evenodd" d="m137 94-2 2.5c-1.143 2.285 1.226 3.453 2 5 1.529 3.057-5.328 12.5.5 12.5 5.77 0 11.486-20-.5-20m-2 32v1c1.921 0 1.26-8.021 2-9.5l11-10c1.214-2.428-5.697-8.5 1-8.5l-3-4.5c-1.411-2.823 1-7.08 1-9.5-3.035 0-20 13.615-20 17 0 .676 4.175 1.85 5 3.5 1.423 2.847 3 16.506 3 20.5Z"/><path fill="#C7C8CC" id="alv" d="M240 87h2l1-2c-1.238 0-3 .423-3 2Z"/><path fill="#A8AAAA" id="VL" fill-rule="evenodd" d="m315 94-3 7.5c-1.821 3.641 4.701 12.5 7.5 12.5 4.048 0-.152-7.805-.5-8.5-1.143-2.285 1.226-3.453 2-5 2.397-4.793-2.424-6.5-6-6.5m14 8-4 2.5-4 19.5c-1.454 0-1.433-5.366-2-6.5l-10-9c-1.777-3.554 5.086-9.5-1-9.5 0-2.097 2.105-3.71 3-5.5l-1-8.5c2.416 0 19 14.037 19 17Z"/><path fill="#1A7E62" id="SSs1" d="m428 159-5 2c0-16.726-4.93-37.36-12-51.5-1.322-2.645-10-19.024-10-20.5v-1l3-3c2.377 0 8.844 14.189 10 16.5 8.492 16.983 14 37.157 14 57.5Z"/><path fill="#C7C8CC" id="alv" d="m217 87 4 2-4-2ZM239 87l-1 1 1-1ZM238 88l-2 1 2-1Z"/><path fill="#1B8063" id="SSs2/3" d="m34 161 8 1c0-17.044 7.828-35.156 15-49.5 1.03-2.06 5.065-15.5 7-15.5v-1l-8-7c-2.711 0-7.743 15.986-9 18.5-7.917 15.834-13 34.501-13 53.5Z"/><path fill="#C7C8CC" id="alv" d="M224 89v1l-2-1h2ZM235 90l-3 1v-2h3v1Z"/><path fill="#1B8063" id="SSs2/3" d="m423 161-8 1c0-11.103-9.149-38.799-14-48.5-2.437-4.873-8-11.889-8-17.5 3.015 0 4.215-7 8-7 0 1.476 8.678 17.855 10 20.5 7.07 14.14 12 34.774 12 51.5Z"/><path fill="#7DCD4B" id="HPF" d="M225 94h2c0-1.429-1.288-4-3-4l1 4ZM232 94l-3 1c0-1.408 1.197-5 3-5v4Z"/><path fill="#A9AAA8" id="chpl" d="m137 94-2 2.5c-1.143 2.285 1.226 3.453 2 5 1.529 3.057-5.328 12.5.5 12.5 5.77 0 11.486-20-.5-20Z"/><path fill="#7DCD4B" id="HPF" d="m225 94-1 1 1-1Z"/><path fill="#7BD04A" id="DG-mo" d="M202 125h2l1-1h2l2-1 8-7 1-1 3-4v-1l1-1 1-1 1-1v-1l1-1v-1l1-2v-1l1-1v-6h-2l-1 1-2 1c1.904 0-4.28 8.059-5 9.5-3.631 7.261-12.492 15.004-19.5 11.5-2.288-1.144-8.5-1.064-8.5-4h-1l-1 1v2l2 3c2.46 0 4.17 4 7 4 1.974 0 3.517 2 6 2ZM254 125h3l1-1h2l1-1c1.696 0 8-3.804 8-6l1-2-1-1h-1c-7.126 0-11.094 6.703-18.5 3-4.814-2.407-10.408-10.316-12.5-14.5-.527-1.053-4.04-6.5-2-6.5l-3-2-3 1 1 5v1l1 1v2l1 1v1l1 1v1l2 2v1c2.156 0 12 10.737 12 12h1l2 1h1l1 1h2Z"/><path fill="#A9AAA8" id="chpl" d="m315 94-3 7.5c-1.821 3.641 4.701 12.5 7.5 12.5 4.048 0-.152-7.805-.5-8.5-1.143-2.285 1.226-3.453 2-5 2.397-4.793-2.424-6.5-6-6.5Z"/><path fill="#1A7E61" id="SSp-bfd6b" d="M115 95c-2.814 0-14 8.727-14 12 3.605 0 8.432-6.932 11-9.5l3-2.5Z"/><path fill="#65A83D" id="DG-sg" d="M189 113h12c2.698 0 13.908-6.685 12-10.5-.118-.236-6 1.586-6 2.5-2.161 0-11 .497-11-2 3.869 0 20-1.605 20-5 1.974 0 3.517-2 6-2 1.904 0-4.28 8.059-5 9.5-3.631 7.261-12.492 15.004-19.5 11.5-2.288-1.144-8.5-1.064-8.5-4ZM268 113v1c-7.126 0-11.094 6.703-18.5 3-4.814-2.407-10.408-10.316-12.5-14.5-.527-1.053-4.04-6.5-2-6.5l4 1 1 1h1c0 3.84 15.174 5 19 5 0 2.789-7.892 2-10 2l-6.5-3c-2.071 0 1.727 4.864 2 5 3.166 1.583 4.601 6 9.5 6h13Z"/><path fill="#187C63" id="SSs4" d="M410 163h5v-1c0-11.103-9.149-38.799-14-48.5-2.437-4.873-8-11.889-8-17.5h-1c0 2.332-4.56 5-5 5 0 3.167 8.231 12.963 10 16.5 5.529 11.057 12 32.522 12 45.5h1ZM42 163h5c0-9.355 7.92-36.339 12-44.5 1.88-3.761 10-14.017 10-17.5l-5-4c-1.935 0-5.97 13.44-7 15.5-7.172 14.344-15 32.456-15 49.5v1Z"/><path fill="#7BD04A" id="DG-mo" d="m239 97 1 1-1-1ZM216 98c-3.502 0-15.183-.659-18.5 1-.916.458-4.149 4-1.5 4 3.869 0 20-1.605 20-5ZM241 98c3.108 0 14.496-.502 17.5 1 .916.458 4.149 4 1.5 4-3.826 0-19-1.16-19-5Z"/><path fill="#CBC8CB" id="fi" d="M136 130c0 3.421 6.655 3 9 3l4-4c0-1.747.253-2 2-2 0-6.571 14.581-15 20-15 0-4.494-13.44-6.97-17.5-9l-4.5-4c-6.697 0 .214 6.072-1 8.5l-11 10c-.74 1.479-.079 9.5-2 9.5l1 3Z"/><path fill="#A8A9AA" id="V3" d="m224 107 3.5 4 4.5-4v-2l-1-1v-2l-1-1v-1l-3-1v1l-1 1v1l-1 2v1l-1 1v1Z"/><path fill="#CBC8CB" id="fi" d="M321 130c-1.863 0-5.792 3-10 3 0-5.255-19.2-21-25-21 0-4.579 11.679-6.589 16.5-9l5.5-4c6.086 0-.777 5.946 1 9.5l10 9c.567 1.134.546 6.5 2 6.5v6Z"/><path fill="#1C8063" id="SSs5" d="m47 163 13 2c0-14.138 6.01-30.522 12-42.5 1.05-2.1 4.19-12.5 7-12.5v-1c-1.802 0-9-5.895-9-8h-1c0 3.483-8.12 13.739-10 17.5-4.08 8.161-12 35.145-12 44.5ZM409 163l-12 2c0-7.625-6.662-31.824-10-38.5l-9-16.5v-1c1.986 0 8-5.743 8-8h1c0 3.167 8.231 12.963 10 16.5 5.529 11.057 12 32.522 12 45.5Z"/><path fill="#98D5F9" id="CP" d="m88 210 7 3c9.454 0 20 .85 20-12 0-4.969-5.429-18.643-3-23.5.973-1.946 5-15.87 5-17.5 0-8.563-6.94-29 8-29h7l1-1v-1l1-1 1-2c0-3.994-1.577-17.653-3-20.5-.825-1.65-5-2.824-5-3.5-7.263 0-10.484 5.992-16.5 9-13.737 6.869-34.5 42.833-34.5 59 0 7.462-.58 17.339 3 24.5 1.865 3.729 6 9.214 6 13.5l3 2Z"/><path fill="#7ECE4A" id="DG-po" d="m207 105-6 8c2.698 0 13.908-6.685 12-10.5-.118-.236-6 1.586-6 2.5ZM250 105l-6.5-3c-2.071 0 1.727 4.864 2 5 3.166 1.583 4.601 6 9.5 6 0-3.498-5-3.705-5-8Z"/><path fill="#98D5F9" id="CP" d="m369 210-7 3c-8.115 0-21 1.39-21-11v-2l1-1c0-6.154 5.356-17.788 2-24.5-1.445-2.891-5-11.557-5-14.5 0-8.33 7.77-29-8-29-3.015 0-6.004-2-8-2 0-1.041-.986-5-2-5l4-19.5 4-2.5c9.431 0 17.067 8.567 23.5 15 11.994 11.994 28.5 35.524 28.5 53 0 10.858-1.536 19.573-6 28.5-.873 1.746-2.685 10.5-5 10.5l-1 1Z"/><path fill="#1A7E61" id="SSp-bfd6b" d="M101 107c-1.747 0-2 .253-2 2 1.747 0 2-.253 2-2Z"/><path fill="#A8A9AA" id="V3" d="m224 107-1 1 1-1Z"/><path fill="#A9AAA8" id="chpl" d="m224 126 2.5 5c3.269 1.634 3.957-3 5.5-3v-3l1-1v-2l1-1 1-2v-1l1-1v-2c-1.473 0-1-1.952-1-3v-1l-1-1-1-2v-1h-1l-4.5 4-3.5-4-1 1v1l-1 1-1 2v7l2 2v2l1 1v2Z"/><path fill="#1A7E61" id="SSp-bfd6b" d="M99 109c-2.226 0-4 1.774-4 4 1.634 0 4-2.634 4-4Z"/><path fill="#A8A9AA" id="V3" d="m223 109-1 1v-1h1Z"/><path fill="#197D63" id="SSs6a" d="M70 167h1c0-3.276 3.383-20 6-20 0-2.254 3.816-14 6-14 0-2.332 3.677-10 6-10l1-3v-1c-3.814 0-6.963-9-11-9-2.81 0-5.95 10.4-7 12.5-5.99 11.978-12 28.362-12 42.5l10 2Z"/><path fill="#A8A9AA" id="V3" d="M221 111v1l1-2h-1v1ZM235 110v1l-1-1h1Z"/><path fill="#197D63" id="SSs6a" d="m397 165-11 2c0-11.287-7.174-25.848-12-35.5-1.724-3.448-7-7.492-7-11.5v-1c3.751 0 6.934-9 11-9l9 16.5c3.338 6.676 10 30.875 10 38.5Z"/><path fill="#A8A9AA" id="V3" d="M235 112c1.473 0 1 1.952 1 3-1.473 0-1-1.952-1-3Z"/><path fill="#1A7E61" id="SSp-bfd6b" d="M95 113c-1.617 0-4 4.583-4 6 2.556 0 4-4.016 4-6Z"/><path fill="#A8A9AA" id="V3" d="m220 116 1 1v-4c-1.473 0-1 1.952-1 3Z"/><path fill="#C7C8CC" id="alv" d="M269 114h2l2-1h-5v1h1Z"/><path fill="#FF909D" id="LD" d="M167 144c6.079 0 10.968 9 17 9l5-5.5c3.36-6.72 8-14.446 8-22.5l-1-2c-2.83 0-4.54-4-7-4l-6.5-4c-7.574-3.787-15.829.915-22 4-2.08 1.04-7.5 4.234-7.5 7l-1 1-1 1v1l1 4 4 3 2 2c2.109 0 9 4.404 9 6Z"/><path fill="#7DCD4B" id="HPF" d="M187 114v2l-2-2h2ZM271 114l-1 1-1-1h2Z"/><path fill="#FF909D" id="LD" d="M289 144c-5.715 0-9.862 8-16 8-5.317 0-14-21.959-14-27v-1h1l1-1c1.696 0 8-3.804 8-6 6.628 0 13.94-5.78 21.5-2 4.484 2.242 8.144 5.144 12 9l3.5 5-1 4c-1.429 0-4 1.288-4 3l-1 1-2 1-8 5-1 1Z"/><path fill="#FF8D9F" id="MH" d="M219 136h1l1-1 3-1v-10l-1-1v-2l-2-2v-2l-1-1-2-1-1 1c0 1.424-3.98 7-5 7l-1 3c1.936 0 8 8.398 8 10ZM236 136h1l8-10-1-3c-.005 0-3.847-7-8-7v1l-1 1v1l-1 2-1 1v2l-1 1v10c1.145 0 4-.579 4 1Z"/><path fill="#A8A9AA" id="V3" d="m236 117-1 1 1-1Z"/><path fill="#1A7E61" id="SSp-bfd6b" d="M90 120h1v-1h-1v1Z"/><path fill="#A8A9AA" id="V3" d="m221 119 2 2-2-2ZM235 119l-1 2 1-2Z"/><path fill="#1A8061" id="SSs6b" d="M91 120c0 1.238-.423 3-2 3l1-3h1ZM385 167h1c0-11.287-7.174-25.848-12-35.5-1.724-3.448-7-7.492-7-11.5h-2c0 3.515 4.514 5.528 6 8.5 3.466 6.932 12 24.001 12 31.5v1c1.473 0 1 1.952 1 3v2l1 1Z"/><path fill="#A8A9AA" id="V3" d="m234 121-1 1 1-1Z"/><path fill="#1A8061" id="SSs6b" d="M89 123c-2.323 0-6 7.668-6 10 1.33 0 6-8.151 6-10Z"/><path fill="#FF6F80" id="TH" d="M202 125c0 1.577-1.762 2-3 2 0-1.747-.253-2-2-2l-1-2c1.974 0 3.517 2 6 2Z"/><path fill="#CCC9C8" id="sm" d="M202 136h1c0-3.811 8-7.589 8-10l1-3h-3l-2 1h-2l-1 1h-2c0 1.577-1.762 2-3 2 0 3.455 3 5.917 3 9Z"/><path fill="#A8A9AA" id="V3" d="m223 123 1 1-1-1Z"/><path fill="#CCC9C8" id="sm" d="M257 127c0 3.817-3 6.124-3 9l-9-10-1-3h4l2 1h1l1 1h2c0 1.577 1.762 2 3 2Z"/><path fill="#A8A9AA" id="V3" d="m233 124-1 1 1-1Z"/><path fill="#FF6F80" id="TH" d="M258 125h1v-1h-1v1Z"/><path fill="#FD8F9D" id="CL" d="M196 158c-2.389 0-5.987 1-9 1l-3-6 5-5.5c3.36-6.72 8-14.446 8-22.5 1.747 0 2 .253 2 2 0 3.455 3 5.917 3 9l-5 7.5c-1.858 3.717-1 10.069-1 14.5Z"/><path fill="#FF6F80" id="TH" d="M257 125v2c-1.238 0-3-.423-3-2h3Z"/><path fill="#FD8F9D" id="CL" d="m270 158-1 1c-3.013 0-6.611-1-9-1 0-5.184.029-21-6-21v-1c0-2.876 3-5.183 3-9v-2h2c0 5.041 8.683 27 14 27l-3 6Z"/><path fill="#FF6F80" id="TH" d="m153 126-1 1 1-1Z"/><path fill="#FF8F9D" id="LH" d="M218 137h1v-1c0-1.602-6.064-10-8-10 0 2.411-8 6.189-8 10 0 5.631 13.03 1 15 1Z"/><path fill="#A8A9AA" id="V3" d="M224 134c0 3.49 6.831 1 8 1v-7c-1.543 0-2.231 4.634-5.5 3l-2.5-5v8Z"/><path fill="#FF8F9D" id="LH" d="M238 137c3.101 0 7.402 3.549 10.5 2l5.5-2v-1l-9-10-8 10v1h1Z"/><path fill="#FF6F80" id="TH" d="m152 127-1 1v-1h1Z"/><path fill="#97D6F9" id="STR" d="m134 128-1 1 1-1Z"/><path fill="#FF6F80" id="TH" d="M148 133h4l-1-4h-2l-1 4ZM305 133h4l-3-4-1 4Z"/><path fill="#97D6F9" id="STR" d="m325 134 5 1c1.579 0 1-2.855 1-4-3.015 0-6.004-2-8-2v1l2 3v1ZM133 130l-1 1 1-1Z"/><path fill="#CAC7CB" id="fiber tracts" d="M146 135c-1.951 0-.477 2.454-1 3.5-1 2-5.535 6.5-8 6.5-2.915 0-11-6.818-11-10l5-1c0 16.345 19.565-1 1-1v-2l1-1h3c0 3.421 6.655 3 9 3l1 2ZM330 135c0 2.696-7.357 10-10 10-4.337 0-10-6.987-10-11l1-1c4.208 0 8.137-3 10-3h2l2 3c-18.898 0 0 16.809 0 1l5 1Z"/><path fill="#CCC" d="M167 210c-1.076 0-5-2.669-5 1l-3-2c-.895 0-18.387-10.443-21.5-12l-6.5-8-2-4c0-6.264-3.888-25-12-25 0-8.563-6.94-29 8-29l1 4c0 3.182 8.085 10 11 10 0 3.487-12.333 5.834-9 12.5 6.481 12.961 13.342 31.921 28.5 39.5l7.5 8 3 4v1Z"/><path fill="#97D6F9" id="STR" d="m131 134-5 1-1-4h7v2l-1 1Z"/><path fill="#CCC" d="M294 211h1l2-1c0-2.569 18.717-11.608 21.5-13l6.5-7 2-4v-2l1-1c0-6.902 2.943-23 11-23 0-8.33 7.77-29-8-29 0 1.145.579 4-1 4 0 2.696-7.357 10-10 10l7 6.5c2.568 5.136.235 11.53-2 16-1.998 3.996-15.126 23.813-18.5 25.5-2.632 1.316-13.5 8.2-13.5 12l-1 1-2 4c1.004 0 4-2.31 4 1Z"/><path fill="#1A8061" id="SSs6b" d="M83 133c-2.184 0-6 11.746-6 14 2.184 0 6-11.746 6-14Z"/><path fill="#C8CBC7" id="st" d="M132 133c18.565 0-1 17.345-1 1l1-1Z"/><path fill="#FD8F9F" id="RT" d="m175 207 1 2.5c0 4.294-7.329-1.5-8-1.5l-4-3-7.5-8c-15.158-7.579-22.019-26.539-28.5-39.5-3.333-6.666 9-9.013 9-12.5 2.465 0 7-4.5 8-6.5.523-1.046-.951-3.5 1-3.5l2-2h4l4 3v2c0 2.025-1.233 7-4 7l-1 1c-1.738 0-6 .686-6 3-1.747 0-2 .253-2 2-1.577 0-2 1.762-2 3-2.984 0-1.892 10.715-1 12.5 2.959 5.918 12.361 29.5 22 29.5 3.385 0 4.183 5 7 5 0 1.935 4.065 6 6 6ZM282 207l-1 1.5c-2.645 5.289 7.521-.5 8-.5 0-1.577 1.762-2 3-2l1-1c0-3.8 10.868-10.684 13.5-12 3.374-1.687 16.502-21.504 18.5-25.5 2.235-4.47 4.568-10.864 2-16l-7-6.5c-4.337 0-10-6.987-10-11l-1-1h-4c-1.429 0-4 1.288-4 3l-1 1v1c0 1.522 2.571 7 4 7 14.746 0 14.584 19.332 10 28.5-.97 1.94-2.878 9.5-6 9.5l-1 1c0 2.752-6.248 9-9 9l-1 1-1 1-1 1c-3.827 0-3.958 5-7 5l-6 6Z"/><path fill="#C8CBC7" id="st" d="M325 133c-18.898 0 0 16.809 0 1v-1Z"/><path fill="#FE8F9E" id="PVT" d="m233 147-3.5 2-5.5-1c0-4.134-6-10.004-6-11h1l1-1 1-1 3-1c0 3.49 6.831 1 8 1 1.145 0 4-.579 4 1l1 1h1c0 3.131-5 5.888-5 10Z"/><path fill="#C7CAC9" id="fr" d="m221 135-1 1 1-1Z"/><path fill="#FF6F80" id="TH" d="M156 138h2l-2-2v2Z"/><path fill="#FD909D" id="MD" d="M222 169c-1.572 0-7 2.052-7 4-5.868 0-19-8.128-19-15 0-4.431-.858-10.783 1-14.5l5-7.5h1c0 5.631 13.03 1 15 1 0 .996 6 6.866 6 11v16.5l-2 4.5Z"/><path fill="#C7CAC9" id="fr" d="m220 136-1 1v-1h1ZM237 136v1l-1-1h1Z"/><path fill="#FF6F80" id="TH" d="m301 136-1 1 1-1Z"/><path fill="#FD909D" id="MD" d="M235 169c2.396 0 5.673 4 7 4 6.495 0 18-8.88 18-15 0-5.184.029-21-6-21l-5.5 2c-3.098 1.549-7.399-2-10.5-2 0 3.131-5 5.888-5 10 0 3.701-3.026 11.448-1 15.5.579 1.157 3 5.491 3 6.5Z"/><path fill="#FF6F80" id="TH" d="M298 138h2v-1l-2 1Z"/><path fill="#FD8084" id="VPL" d="M165 185c0 2.528-1.611 8-5 8-3.434 0-8.65-6.801-10-9.5-6.045-12.089-9-14.452-9-29.5 1.577 0 2-1.762 2-3l2-2 6-3 1-1c2.767 0 4-4.975 4-7h2c2.109 0 9 4.404 9 6 0 5.604-8 10.614-8 12-17.708 0 1.246 29 6 29ZM297 193h1l9-9 1-1c0-5.587 11.524-18.452 8-25.5-1.41-2.82-1.861-6.681-5.5-8.5-1.256-.628-6.5-2.273-6.5-4-1.429 0-4-5.478-4-7h-2l-8 5-1 1c0 4.582 8 11.009 8 12 18.51 0-1.494 29-5 29 0 2.335.427 8 5 8Z"/><path fill="#FD7E84" id="VAL" d="m290 143-1 1 1-1ZM162 196c3.385 0 4.183 5 7 5 0-7.85 14.787-11.643 19.5-14 3.503-1.751 9.266 2 12.5 2l3-8v-2c-2.784 0-17-17.422-17-20l-3-6c-6.032 0-10.921-9-17-9 0 5.604-8 10.614-8 12 8.717 0 21.836 29 6 29 0 2.528-1.611 8-5 8l2 3ZM287 201h1c3.042 0 3.173-5 7-5l1-1 1-1v-1c-4.573 0-5-5.665-5-8-16.37 0-3.354-29 5-29 0-.991-8-7.418-8-12-5.715 0-9.862 8-16 8l-3 6-1 1c0 5.967-16 18.132-16 20v3c0 2.16 2 4.167 2 7 9.983 0 13.37-3.065 23.5 2l4 4c1.936.968 4.5 3.397 4.5 6Z"/><path fill="#C7CACA" id="em" d="m152 145-1 1 1-1ZM304 145c14.746 0 14.584 19.332 10 28.5-.97 1.94-2.878 9.5-6 9.5 0-5.587 11.524-18.452 8-25.5-1.41-2.82-1.861-6.681-5.5-8.5-1.256-.628-6.5-2.273-6.5-4ZM151 146c-1.738 0-6 .686-6 3l6-3Z"/><path fill="#1A8061" id="SSs6b" d="M71 167h1v-1c0-1.145-.58-4 1-4v-1l1-2c0-4.688 3-7.44 3-12-2.617 0-6 16.724-6 20Z"/><path fill="#FE909F" id="IMD" d="M222 169h13c0-1.009-2.421-5.343-3-6.5-2.026-4.052 1-11.799 1-15.5l-3.5 2-5.5-1v16.5l-2 4.5Z"/><path fill="#C7CACA" id="em" d="M145 149c-1.747 0-2 .253-2 2l2-2ZM143 151c-1.577 0-2 1.762-2 3 1.577 0 2-1.762 2-3ZM160 193l2 3c-9.639 0-19.041-23.582-22-29.5-.892-1.785-1.984-12.5 1-12.5 0 15.048 2.955 17.411 9 29.5 1.35 2.699 6.566 9.5 10 9.5Z"/><path fill="#FF7E83" id="VPM" d="M159 156c8.717 0 21.836 29 6 29-4.754 0-23.708-29-6-29ZM297 156c18.51 0-1.494 29-5 29-16.37 0-3.354-29 5-29Z"/><path fill="#FE8D9F" id="PCN" d="m208 181 4 1 3-9c-5.868 0-19-8.128-19-15-2.389 0-5.987 1-9 1 0 2.578 14.216 20 17 20l2 2h2ZM244 182h1c0-1.473 1.952-1 3-1h2l3-2c0-1.868 16-14.033 16-20-3.013 0-6.611-1-9-1 0 6.12-11.505 15-18 15l2 9ZM270 158l-1 1 1-1Z"/><path fill="#12AD83" id="VISC1" d="M37 195c-2.483 0-4.026 2-6 2 0-1.098-3.287-14.073-4-15.5l1-22.5 6 2c0 4.575-4.29 12.92-2 17.5.919 1.837 5 15.04 5 16.5Z"/><path fill="#C9C9CA" id="scwm" d="m74 159-1 2 1-2Z"/><path fill="#12AD83" id="VISC1" d="M420 195c1.424 0 5 .362 5 2 2.016 0 3-7.698 3-9.5V159l-5 2 1 21.5c-1.636 3.272-4 8.736-4 12.5Z"/><path fill="#8598CC" id="GPe" d="m131 203-2.5 4c-2.364 1.182-5.696-1-7.5-1l-6-5c0-4.969-5.429-18.643-3-23.5.973-1.946 5-15.87 5-17.5 8.112 0 12 18.736 12 25 0 1.318 1.249 14 2 14v4ZM336 206l-1 1c-14.555 0-8-11.406-8-21v-2l1-1c0-6.902 2.943-23 11-23 0 2.943 3.555 11.609 5 14.5 3.356 6.712-2 18.346-2 24.5l-1 1v2l-5 4Z"/><path fill="#12AC83" id="VISC2/3" d="m47 193-10 2c0-1.46-4.081-14.663-5-16.5-2.29-4.58 2-12.925 2-17.5l8 1v1c0 3.906-.72 29 5 29v1Z"/><path fill="#C9C9CA" id="scwm" d="M383 161c1.473 0 1 1.952 1 3-1.473 0-1-1.952-1-3Z"/><path fill="#12AC83" id="VISC2/3" d="M419 195h1c0-3.764 2.364-9.228 4-12.5l-1-21.5-8 1v1c0 4.645-.334 26-4 26l-1 2-1 1v1c2.128 0 5.608 1.054 7.5 2 1.091.545 2.5-2.151 2.5 0Z"/><path fill="#C9C9CA" id="scwm" d="M73 162c-1.58 0-1 2.855-1 4 1.58 0 1-2.855 1-4Z"/><path fill="#11AC82" id="VISC4" d="M47 163c0 5.577-5.248 17.003-2 23.5 1.042 2.084 2 2.908 2 5.5-5.72 0-5-25.094-5-29h5Z"/><path fill="#12AD82" id="VISC5" d="M47 193h1c4.405 0 8.474-2 13-2 0-3.24-.64-6.781-2-9.5-2.13-4.259 1-12.572 1-16.5l-13-2c0 5.577-5.248 17.003-2 23.5 1.042 2.084 2 2.908 2 5.5v1ZM409 192v1c-5.171 0-9.545-2-14-2 0-2.613.93-4.36 2-6.5V165l12-2h1c0 2.253.984 6.469 2 8.5l-1 17.5-1 2-1 1Z"/><path fill="#11AC82" id="VISC4" d="M415 163c0 4.645-.334 26-4 26l1-17.5c-1.016-2.031-2-6.247-2-8.5h5Z"/><path fill="#11AC83" id="VISC6a" d="M61 191h1c4.656 0 7.78-2 12-2 0-6.09-4-13.092-4-22l-10-2c0 3.928-3.13 12.241-1 16.5 1.36 2.719 2 6.26 2 9.5ZM394 191h1c0-2.613.93-4.36 2-6.5V165l-11 2c0 2.454.827 14-2 14 0 1.357-.647 6-2 6v2c4.475 0 7.225 2 12 2Z"/><path fill="#C9C9CA" id="scwm" d="M385 167v1l-1-2 1 1Z"/><path fill="#11AD82" id="VISC6b" d="M74 189h1v-1c0-6.569-4-11.653-4-19l1-1v-1h-2c0 8.908 4 15.91 4 22ZM385 169l-1 12c2.827 0 2-11.546 2-14h-1v2Z"/><path fill="#C9C9CA" id="scwm" d="M71 169h1v-1l-1 1Z"/><path fill="#FD8E9E" id="CM" d="M239 184h2l2-1 1-1-2-9c-1.327 0-4.604-4-7-4h-13c-1.572 0-7 2.052-7 4l-3 9 1 1h1l4 1h21Z"/><path fill="#C8CBCC" id="ec" d="M85 212h2v-1l-2-3c0-4.286-4.135-9.771-6-13.5-3.58-7.161-3-17.038-3-24.5l-4-1h-1c0 7.347 4 12.431 4 19 .801 0 4 8.763 4 10v1l1 1v1l1 1 2 5 2 5ZM370 212h1l3-6 3-7 1-2 1-2c0-1.357.647-6 2-6l1-2c0-1.623.005-6 2-6l1-12-4 1c0 10.858-1.536 19.573-6 28.5-.873 1.746-2.685 10.5-5 10.5v3Z"/><path fill="#FF6F80" id="TH" d="M204 181h2l-2-2v2ZM250 181l3 1v-3l-3 2Z"/><path fill="#FD8E9F" id="SMT" fill-rule="evenodd" d="M206 194c0 1.186-3.346 5.192-4 6.5-1.256 2.511 1.579 6.961 4.5 5.5 5.403-2.701 6.984-12-.5-12m11 12c-4.093 0-9.031 6-14 6 0-3.712-1.392-9.284-3-12.5l1-10.5 3-8h4c0 1.014 3.959 2 5 2h1c0 1.577 1.762 2 3 2 0 .961 4 6.511 4 11 0 3.8-4 6.579-4 10Z"/><path fill="#FF6F80" id="TH" d="m212 182 1 1c-1.041 0-5-.986-5-2l4 1ZM248 181c-1.048 0-3-.473-3 1 1.048 0 3 .473 3-1Z"/><path fill="#FD8E9F" id="SMT" fill-rule="evenodd" d="M246 194c0 1.423-1.978 3.544-1 5.5 8.373 16.747 14.844-5.5 1-5.5m-7 12c4.518 0 8.856 6 14 6l3-10.5-1-12.5c0-2.833-2-4.84-2-7l-3-1h-2c0 1.473-1.952 1-3 1l-2 1-2 1-2 1c0 3.118-4 6.953-4 11l4 10Z"/><path fill="#11AD82" id="VISC6b" d="M384 181c-1.995 0-2 4.377-2 6 1.353 0 2-4.643 2-6Z"/><path fill="#FF6F80" id="TH" d="m245 182-2 1 1-1h1ZM218 184l-1 1c-1.238 0-3-.423-3-2l4 1ZM243 183l-2 1 2-1Z"/><path fill="#C7CACA" id="em" d="m308 183-1 1 1-1Z"/><path fill="#8599CC" id="PAL" d="m328 183-1 1 1-1Z"/><path fill="#FF8E9E" id="RH" d="M221 196h14c0-4.047 4-7.882 4-11v-1h-21l-1 1c0 .961 4 6.511 4 11Z"/><path fill="#FF6F80" id="TH" d="m241 184-2 1v-1h2Z"/><path fill="#C7CACA" id="em" d="m307 184-9 9c2.752 0 9-6.248 9-9Z"/><path fill="#8599CC" id="PAL" d="M131 189v10c-.751 0-2-12.682-2-14l2 4ZM329 211c0-8.815-9.285 6-12 6 0-3.799 6.35-7.201 8-10.5V190l2-4c0 9.594-6.555 21 8 21l-3 3-3 1Z"/><path fill="#FF7E84" id="VM" d="m203 212-2 2c-6.798 0-16.578-8-24-8l-8-5c0-7.85 14.787-11.643 19.5-14 3.503-1.751 9.266 2 12.5 2l-1 10.5c1.608 3.216 3 8.788 3 12.5ZM253 212l2 2 24-8 8-5c0-2.603-2.564-5.032-4.5-6l-4-4c-10.13-5.065-13.517-2-23.5-2l1 12.5-3 10.5Z"/><path fill="#11AD82" id="VISC6b" d="M381 189h1v-2l-1 2Z"/><path fill="#219666" id="AIp6b" d="M78 198h1c0-1.237-3.199-10-4-10v1l2 8 1 1Z"/><path fill="#209766" id="AIp6a" d="M71 212h1l2-1 6.5-6 2.5 2-2-5-1-1v-1l-1-1v-1h-1c0 2.029-1 .058-1-1l-2-8h-1c-4.22 0-7.344 2-12 2 0 6.823 9 13.826 9 21Z"/><path fill="#8499CC" id="GPi" d="M146 223h1l2.5 2h5.5c7.738 0 9-2.359 9-10l-1-2-4-4c-.895 0-18.387-10.443-21.5-12l-6.5-8v14c0 7.867 15 15.838 15 20Z"/><path fill="#219666" id="AIp6b" d="m382 189-3 6c0-1.357.647-6 2-6h1Z"/><path fill="#209766" id="AIp6a" d="M385 212h1c0-7.485 8-13.972 8-21-4.775 0-7.525-2-12-2l-3 6v2h-1v1c1.186 0 1.186 1 0 1h-1l-3 7c2.528 0 8 1.611 8 5 1.048 0 3-.473 3 1Z"/><path fill="#11AC82" id="VISC4" d="m411 189-1 2 1-2Z"/><path fill="#8499CC" id="GPi" d="m309 224-2 1c-9.061 0-15 .521-15-10l2-3 1-1 2-1c0-2.569 18.717-11.608 21.5-13l6.5-7v16.5c-1.65 3.299-8 6.701-8 10.5-1.747 0-2 .253-2 2h-1l-1 1-1 1-1 1-1 1-1 1Z"/><path fill="#219864" id="AIp5" d="M70 212h1c0-7.174-9-14.177-9-21h-1c-4.526 0-8.595 2-13 2 0 4.959 11.077 20 16 20 2.124 0 4.436-1 6-1ZM386 212c1.819 0 4.591 1 7 1 0-.362 16-13.58 16-20-5.171 0-9.545-2-14-2h-1c0 7.028-8 13.515-8 21Z"/><path fill="#11AC82" id="VISC4" d="m410 191-1 1 1-1Z"/><path fill="#209865" id="AIp2/3" d="M64 213c0 1.673-11.158 5-13 5 0-2.495-14-15.996-14-23l10-2h1c0 4.959 11.077 20 16 20Z"/><path fill="#C7CACA" id="em" d="m298 193-1 1v-1h1Z"/><path fill="#209865" id="AIp2/3" d="M393 213c0 1.644 10.4 5 12 5 0-2.095 14-15.413 14-23 0-2.151-1.409.545-2.5 0-1.892-.946-5.372-2-7.5-2 0 6.42-16 19.638-16 20Z"/><path fill="#C7C9CC" id="mtt" d="M206 194c0 1.186-3.346 5.192-4 6.5-1.256 2.511 1.579 6.961 4.5 5.5 5.403-2.701 6.984-12-.5-12ZM246 194c0 1.423-1.978 3.544-1 5.5 8.373 16.747 14.844-5.5 1-5.5Z"/><path fill="#C7CACA" id="em" d="m297 194-1 1 1-1Z"/><path fill="#219765" id="AIp1" d="m51 218-4 3c-1.48 0-16-20.579-16-24 1.974 0 3.517-2 6-2 0 7.004 14 20.505 14 23Z"/><path fill="#FD909F" id="RE" d="M226 222c0-3.556-4.067-19.716.5-22 7.961-3.981 4.5 19.685 4.5 22 3.721 0 6.881-2 10-2 0-4.706-2-9.251-2-14l-4-10h-14c0 3.8-4 6.579-4 10 0 5.002-2 8.614-2 14 3.451 0 7.022 2 11 2Z"/><path fill="#C7CACA" id="em" d="m296 195-1 1 1-1Z"/><path fill="#219666" id="AIp6b" d="M378 197h1v-2l-1 2Z"/><path fill="#219765" id="AIp1" d="M405 218c0 2.173 5-.232 5 3 1.005 0 15-20.08 15-24 0-1.638-3.576-2-5-2h-1c0 7.587-14 20.905-14 23Z"/><path fill="#8ADA86" id="CLA" d="m77 197 1 1c0 2.029-1 .058-1-1Z"/><path fill="#219666" id="AIp6b" d="M377 199h1v-2l-1 2Z"/><path fill="#8ADA86" id="CLA" d="M378 198c1.186 0 1.186 1 0 1v-1Z"/><path fill="#219666" id="AIp6b" d="m79 199 1 1-1-1Z"/><path fill="#97D6F9" id="STR" d="m342 199-1 1 1-1Z"/><path fill="#FC8F9F" id="Xi" d="M226 222h5c0-2.315 3.461-25.981-4.5-22-4.567 2.284-.5 18.444-.5 22Z"/><path fill="#219666" id="AIp6b" d="m80 201 1 1-1-1Z"/><path fill="#97D6F9" id="STR" d="M95 215c2.618 0 3.094 4 5 4 0-4.123 7.819-6 11-6 0-1.948 5.428-4 7-4l7 1-4-4-6-5c0 12.85-10.546 12-20 12v2Z"/><path fill="#FF6F80" id="TH" d="m177 206-2 1c-1.935 0-6-4.065-6-6l8 5ZM279 206c1.048 0 3-.473 3 1l6-6h-1l-8 5Z"/><path fill="#97D6F9" id="STR" d="m361 215-4 3c0-2.352-8.574-5-11-5-2.584 0-4.518-4-8-4l-1 1h-5l3-3 1-1 5-4c0 12.39 12.885 11 21 11l-1 2Z"/><path fill="#8599CC" id="PAL" d="M127 211c0-8.191 12.871 6.371 15 8.5l4 3.5c0-4.162-15-12.133-15-20l-2.5 4c-2.364 1.182-5.696-1-7.5-1l4 4 2 1Z"/><path fill="#A0EE9C" id="EPd" d="M77 228c1.596 0 10 11.39 10 1l-2-17-2-5-2.5-2-6.5 6v5c0 3.686 8.878 11 3 11v1Z"/><path fill="#8599CC" id="PAL" d="m168 208-1 1-3-4 4 3ZM293 205l-1 1 1-1Z"/><path fill="#F0483B" id="ZI" d="m211 221-5.5 3-15.5-2c0-.221-10.842-5-12-5l-6-2h-1l-4-5v-1l1-1c.671 0 8 5.794 8 1.5l-1-2.5 2-1c7.422 0 17.202 8 24 8 0 1.33 7.619 5 9 5l1 2Z"/><path fill="#FD909C" id="PR" d="M215 220v1l-3-1-2-1c-1.381 0-9-3.67-9-5l2-2c4.969 0 9.907-6 14-6 0 5.002-2 8.614-2 14ZM245 220l-3 1-1-1c0-4.706-2-9.251-2-14 4.518 0 8.856 6 14 6l2 2c0 1.33-7.619 5-9 5l-1 1Z"/><path fill="#F0483B" id="ZI" d="M246 221c0 5.482 17.306 1 20 1 0-.767 9.54-4 11-4l2-1h1l1-1h1l1-1h2l1-1 2-2 1-1v-3c-.479 0-10.645 5.789-8 .5l1-1.5c0-1.473-1.952-1-3-1l-24 8c0 1.33-7.619 5-9 5v2Z"/><path fill="#8599CC" id="PAL" d="M289 210h1l2-4c-1.238 0-3 .423-3 2v2ZM336 206l-1 1 1-1Z"/><path fill="#A0EE9C" id="EPd" d="M369 230c0 6.23 6.132 1 8 1 0-1.747.253-2 2-2v-2c-5.233 0 2.746-10 4-10v-3l-1-3c0-3.389-5.472-5-8-5l-3 6c0 6.522-2 11.671-2 18Z"/><path fill="#97D6F9" id="STR" d="m88 210-1 1-2-3 3 2Z"/><path fill="#A2B1D7" id="SI" d="m152 239 1 1c2.043 0 4-.591 4-3l-1-7c-2.109 0-9-5.383-9-7h-1l-4-3.5c-2.129-2.129-15-16.691-15-8.5 3.67 0 18 17.277 18 21l3 3 3 3 1 1ZM304 239l-1 1c-3.236 0-3-2.435-3-5v-4l7-6 2-1 1-1 1-1 1-1 1-1 1-1h1l2-2c2.715 0 12-14.815 12-6l-6 4.5c-2.254 4.509-12 9.595-12 16.5l-2 2-1 1-4 4Z"/><path fill="#80BEE1" id="CEAl" d="M111 213c0 4.19 1.82 19 9 19 0-2.66 4.605-6.291 3-9.5-1.632-3.264-.393-7.786-2-11l-3-2.5c-1.572 0-7 2.052-7 4Z"/><path fill="#7FC0E0" id="CEAm" d="M135 245h1v-1l1-1c0-3.679 2.5-10 7-10l1-1c0-3.723-14.33-21-18-21l-2-1-7-1 3 2.5c1.607 3.214.368 7.736 2 11 1.605 3.209-3 6.84-3 9.5 0 .599-.583 6.665-1 7.5l-3 3.5c2.01 0 9.038 6 17 6 0-2.203-3.465-4.569-2-7.5 1.168-2.336 4 2.278 4 3.5Z"/><path fill="#8599CC" id="PAL" d="m162 211 1 2-4-4 3 2Z"/><path fill="#CCCACB" id="nst" d="M171 220v3c-3.415 0-2.966-8-7-8l-1-2-1-2c0-3.669 3.924-1 5-1 0 .698 2.714 7 3 7v2l1 1ZM285 221v2c3.285 0 4.096-8 7-8l2-3v-1c0-3.31-2.996-1-4-1l-1 1-1 1c0 .969-1.147 7-2 7v1l-1 1Z"/><path fill="#7FC0E0" id="CEAm" d="m338 209-1 1 1-1Z"/><path fill="#80BEE1" id="CEAl" d="M346 213c0 7.26-3.584 18-10 18-3.206 0-1.953-11.593-1-13.5v-5l2-2.5 1-1c3.482 0 5.416 4 8 4Z"/><path fill="#97D6F9" id="STR" d="m369 210 1 1v-2l-1 1Z"/><path fill="#90EB8D" id="LA" d="M97 219c-5.215 0-7 3.084-7 8-.693 0-3-13.41-3-15v-1l1-1 7 3v2l2 4Z"/><path fill="#8599CC" id="PAL" d="m171 216-1 1c-.286 0-3-6.302-3-7l4 5v1Z"/><path fill="#CCC" d="m290 210-1 1v-1h1Z"/><path fill="#8599CC" id="PAL" d="m297 210-2 1 2-1Z"/><path fill="#7FC0E0" id="CEAm" d="M321 245c0-.859 2.823-5.855 4-3.5l-1 7.5c7.229 0 13.637-6 16-6 0-3.275-4-8.351-4-12-3.206 0-1.953-11.593-1-13.5v-5l2-2.5h-5l-3 1-6 4.5c-2.254 4.509-12 9.595-12 16.5l1 1h1l1 1c4.103 0 6 7.65 6 11h1Z"/><path fill="#90EB8D" id="LA" d="M359 219c6.307 0 7.909 6 8 6 0-1.663 1.639-13 3-13v-1l-1-1-7 3-1 2-2 4Z"/><path fill="#8AD987" id="CTXsp" d="m72 212 2 4v-5l-2 1Z"/><path fill="#8599CC" id="PAL" d="m289 211-1 1 1-1ZM295 211l-1 1v-1h1Z"/><path fill="#8AD987" id="CTXsp" d="m385 212-2 2-1-3c1.048 0 3-.473 3 1Z"/><path fill="#6ACAB9" id="PIR" d="m101 275-3 4.5c-.946 1.893-9 15.889-9 16.5-2.614 0-12.854-14.209-14-16.5l-20-40c-2.52-5.039-8-12.728-8-18.5l4-3c1.842 0 13-3.327 13-5 2.124 0 4.436-1 6-1l2 5 1 1v1l2 4v2l2 2v1l4 7 2 2c0 11.769 18 23.529 18 37v1Z"/><path fill="#C9C8CA" id="ee" d="M77 226v1c5.878 0-3-7.314-3-11l-2-4h-2l2 5 1 1v1l1 1 1 1v2c1.577 0 2 1.762 2 3Z"/><path fill="#C8C9CB" id="amc" d="M89 233c0 1.427 2.311 9 4 9 0-5.258-3-9.36-3-15-.693 0-3-13.41-3-15h-2l2 17 2 4Z"/><path fill="#8599CC" id="PAL" d="m285 216 1 3c.853 0 2-6.031 2-7l-2 2-1 1v1Z"/><path fill="#C8C9CB" id="amc" d="M367 234c0 1.345-1.571 7-3 7 0-5.664 3-9.933 3-16 0-1.663 1.639-13 3-13h1c0 6.522-2 11.671-2 18-1.473 0-1 1.952-1 3l-1 1Z"/><path fill="#C9C8CA" id="ee" d="M383 217h1l1-1 1-4h-1l-2 2v3Z"/><path fill="#6ACAB9" id="PIR" d="M356 275c0 6.167 11 15.792 11 21 4.975 0 12.121-12.742 14-16.5 2.85-5.699 7.15-10.301 10-16 4.385-8.771 7.656-18.313 12-27l7-15.5c0-3.232-5-.827-5-3-1.6 0-12-3.356-12-5-2.409 0-5.181-1-7-1l-1 4-1 1-1 2v1l-1 2v1l-1 2v1l-1 1-1 1v1l-2 2-1 3-1 1v1l-1 1-1 1c0 9.124-18 24.636-18 36l1 1Z"/><path fill="#80BFE0" id="CEAc" d="M111 240c1.947 0 2.636 3 5 3l3-3.5c.417-.835 1-6.901 1-7.5-7.18 0-9-14.81-9-19-3.181 0-11 1.877-11 6 2.663 0 9 13.481 9 16v1l1 1 1 3ZM345 240c-1.947 0-2.636 3-5 3 0-3.275-4-8.351-4-12 6.416 0 10-10.74 10-18 2.426 0 11 2.648 11 5 0 3.19-6 5.985-6 10l-2 4c-1.473 0-1 1.952-1 3l-1 1-2 4Z"/><path fill="#E64438" id="HY" d="m286 214-1 1 1-1Z"/><path fill="#C8CBCC" id="ec" d="M100 219c2.663 0 9 13.481 9 16-2.065 0-6.883-16-12-16l-2-4c2.618 0 3.094 4 5 4Z"/><path fill="#8599CC" id="PAL" d="M171 223c0 6.434-10.217 7-15 7-2.109 0-9-5.383-9-7l2.5 2h5.5c7.738 0 9-2.359 9-10 4.034 0 3.585 8 7 8Z"/><path fill="#E64438" id="HY" d="m172 215-1 1v-1h1Z"/><path fill="#F2483A" id="LHA" d="m178 263 1 1c4.122 0 7-2.767 7-7-4.871 0-4.627-12.246-3-15.5l8-8.5v-3l-1-2-1-1v-1l-11-9-6-2-1 1-1 1v2l1 1v3c0 6.434-10.217 7-15 7l1 7 4 7 2 2 14 16 1 1Z"/><path fill="#E64438" id="HY" d="m283 215-1 1 1-1Z"/><path fill="#F2483A" id="LHA" d="m278 263-1 1c-4.292 0-6-2.641-6-7 7.262 0 2.37-24-6-24v-3l1-1 1-2 10-9 2-1h1l1-1h1l1-1h1l1 1 1 3v1l-1 1v2c0 8.954 15 4.008 15 8v4l-5 10-1 1-1 1-1 1-14 15Z"/><path fill="#E64438" id="HY" d="M285 215v1l-1-1h1Z"/><path fill="#8599CC" id="PAL" d="m307 225-7 6c0-3.992-15 .954-15-8 3.285 0 4.096-8 7-8 0 10.521 5.939 10 15 10Z"/><path fill="#C8CBCC" id="ec" d="M359 219c-4.23 0-4.863 9-8 9 0-4.015 6-6.81 6-10l4-3-2 4Z"/><path fill="#E64438" id="HY" d="m281 216-1 1 1-1Z"/><path fill="#8AD987" id="CTXsp" d="m385 216-1 1 1-1ZM72 217l1 1-1-1Z"/><path fill="#E64438" id="HY" d="M190 222c-1.579 0-1 2.855-1 4l-11-9c1.158 0 12 4.779 12 5ZM279 217l-2 1 2-1Z"/><path fill="#8599CC" id="PAL" d="M317 217c-1.747 0-2 .253-2 2l2-2Z"/><path fill="#C9C8CA" id="ee" d="m381 223-2 4c-5.233 0 2.746-10 4-10v3l-1 1-1 2Z"/><path fill="#8AD987" id="CTXsp" d="m384 217-1 2v-2h1Z"/><path fill="#E64438" id="HY" d="M266 222c3.356 0 1 3.592 1 5l10-9c-1.46 0-11 3.233-11 4Z"/><path fill="#8AD987" id="CTXsp" d="M75 221v2l-2-4 1 1 1 1Z"/><path fill="#9DE79B" id="BLAa" d="M103 254h1c0-2.511 7-3.579 7-7l1-1v-2l-1-4-1-3-1-1v-1c-2.065 0-6.883-16-12-16-5.215 0-7 3.084-7 8 0 5.64 3 9.742 3 15v1c1.944 0 4.772 11 10 11Z"/><path fill="#8599CC" id="PAL" d="m170 219 1 1-1-1Z"/><path fill="#E64438" id="HY" d="m212 220-1 1-1-2 2 1ZM245 220l1 1v-2l-1 1Z"/><path fill="#8599CC" id="PAL" d="m314 219-1 1 1-1Z"/><path fill="#9DE79B" id="BLAa" d="M353 254h2l2-1c0-1.747.253-2 2-2l1-2 1-2 1-2 1-2 1-2c0-5.664 3-9.933 3-16-.091 0-1.693-6-8-6-4.23 0-4.863 9-8 9 0 1.465.109 4-2 4 0 1.048.473 3-1 3l-1 1-2 4-1 5 1 1c0 2.427 5.635 8 8 8Z"/><path fill="#A0EE9C" id="EPd" d="m74 220 1 1-1-1Z"/><path fill="#FF4C3D" id="PVHd" d="M224 237h3c0-6.701 2-8.923 2-1l4 1 10-4 11-1 11-1v-1l1-1 1-2c0-1.408 2.356-5-1-5-2.694 0-20 4.482-20-1l-1-1-3 1-13 4c0 1.399-2 1.399-2 0-1.326 0-12-3.09-12-4l-3-1-1 1-5.5 3-15.5-2c-1.579 0-1 2.855-1 4v1l1 1 1 2c3.437 0 7.626 2 12 2h6l1 1h3c4.082 0 6.651 4 11 4Z"/><path fill="#FF6F80" id="TH" d="M227 225c0-1.399 2-1.399 2 0l13-4-1-1c-3.119 0-6.279 2-10 2h-5c-3.978 0-7.549-2-11-2v1c0 .91 10.674 4 12 4Z"/><path fill="#8599CC" id="PAL" d="m286 220-1 1 1-1Z"/><path fill="#8AD987" id="CTXsp" d="M382 221v1l1-2-1 1Z"/><path fill="#8599CC" id="PAL" d="m312 221-1 1 1-1Z"/><path fill="#A0EE9C" id="EPd" d="M381 223h1v-2l-1 2Z"/><path fill="#8599CC" id="PAL" d="m311 222-1 1 1-1Z"/><path fill="#A0EE9C" id="EPd" d="m75 225 2 1c0-1.238-.423-3-2-3v2Z"/><path fill="#8599CC" id="PAL" d="m310 223-1 1 1-1Z"/><path fill="#A0EE9C" id="EPd" d="M379 227h1l1-1v-3l-2 4Z"/><path fill="#8AD987" id="CTXsp" d="m382 223-1 2v-2h1Z"/><path fill="#E64438" id="HY" d="M227 225c0 1.399 2 1.399 2 0s-2-1.399-2 0Z"/><path fill="#8599CC" id="PAL" d="m309 224-2 1 2-1Z"/><path fill="#8AD987" id="CTXsp" d="M77 226v1l-2-2 2 1ZM381 226l-1 1 1-1Z"/><path fill="#E64438" id="HY" d="m189 227 1 1-1-1Z"/><path fill="#8AD987" id="CTXsp" d="m380 227-1 1v-1h1ZM81 235l2 2c2.33 0 3.227-4 6-4l-2-4c0 10.39-8.404-1-10-1l4 7Z"/><path fill="#C8CBCC" id="ec" d="m351 228-2 4c2.109 0 2-2.535 2-4Z"/><path fill="#E64438" id="HY" d="m266 229-1 1 1-1Z"/><path fill="#8AD987" id="CTXsp" d="M379 229c-1.747 0-2 .253-2 2l2-2Z"/><path fill="#E64438" id="HY" d="m191 233 8 1 4-2c-4.374 0-8.563-2-12-2v3Z"/><path fill="#A8A9AA" id="V3" d="M227 276h2v-40c0-7.923-2-5.701-2 1v39Z"/><path fill="#8AD987" id="CTXsp" d="M373 237h1l1-1v-1l1-1 1-3c-1.868 0-8 5.23-8-1-1.473 0-1 1.952-1 3 1.247 0 5 2.467 5 4Z"/><path fill="#E64438" id="HY" d="M265 233c-2.409 0-5.181 1-7 1l-4-2 11-1v2Z"/><path fill="#97D6F9" id="STR" d="m144 233 4 2-3-3-1 1Z"/><path fill="#FF4B3E" id="AHN" d="m199 234 4 3.5c2.921 5.843-4 10.957-4 13.5 0 4.768 13.444 2.612 16-2.5 5.61-11.22-2-10.832-2-15.5h-3l-1-1h-6l-4 2Z"/><path fill="#E64438" id="HY" d="m209 232 1 1-1-1Z"/><path fill="#FF4B3E" id="AHN" d="M258 234c-1.606 0-2.501 1.501-3 2.5-5.183 10.366 2 8.908 2 14.5 0 4.832-12.339 2.823-14-.5-2.71-5.419-4.893-9.213-2-15 .723-1.445 2-.091 2-2.5l11-1 4 2Z"/><path fill="#97D6F9" id="STR" d="M312 233c0 1.473-1.952 1-3 1l2-2 1 1Z"/><path fill="#C8CBCC" id="ec" d="M349 232c-1.473 0-1 1.952-1 3 1.473 0 1-1.952 1-3Z"/><path fill="#A0ED9D" id="EPv" d="m109 275-1 1-6-1-1-1c0-13.471-18-25.231-18-37 2.33 0 3.227-4 6-4 0 1.427 2.311 9 4 9v1c0 2.677 5.521 12 9 12l1 1c0 1.238.423 3 2 3l2 3c0 4.854 2 8.932 2 13Z"/><path fill="#80BFE1" id="MEA" d="M146 287h1l4-2-1-2.5c0-6.104 5.243-1.5 6-1.5l3-3 1-1c0-3.249 1-7.194 1-11v-2l-1-1-1-8c-1.473 0-1-1.952-1-3v-1c-1.353 0-2-4.643-2-6l-3-5-1-1-1-1-3-3-4-2c-4.5 0-7 6.321-7 10l-1 1v5l-1 5c0 4.285 2 8.941 2 14v4c0 4.822 7 10.508 7 15h2Z"/><path fill="#F2463A" id="PeF" d="M189 253c0 2.343-.285 4-3 4-4.871 0-4.627-12.246-3-15.5l8-8.5 8 1 4 3.5c2.921 5.843-4 10.957-4 13.5-1.402 0-6 2.684-6-1v-3.5c0-9.561-12.216 6.5-4 6.5Z"/><path fill="#E64438" id="HY" fill-rule="evenodd" d="M210 256c0 .596-7.882 5.265-9 7.5-3.464 6.927 9.372 20.064 14.5 17.5 9.801-4.9 10.767-25-5.5-25m-1 33h3c0-6.542 12-6.735 12-13v-39c-4.349 0-6.918-4-11-4 0 4.668 7.61 4.28 2 15.5-2.556 5.112-16 7.268-16 2.5-1.402 0-6 2.684-6-1l-4 3c0 2.343-.285 4-3 4 0 4.233-2.878 7-7 7l4 5c0-1.831-.333-3.167 1-4.5 8.264-8.264 11.267 9.383 17.5 12.5l9.5 6.5c1.27 2.541-2 3.709-2 5.5ZM239 256c0 .983-5 7.707-5 12 0 28.852 36.455-.022 14.5-11-2.745-1.372-6.19-1-9.5-1m5 33h3l-2-4.5c2.564-5.128 10.479-4.958 13-10l7.5-11.5c4.737-2.368 8.5.806 8.5 6 1.077 0 3-3.762 3-5-4.292 0-6-2.641-6-7-2.226 0-4-1.774-4-4l-4-4c0 5.076-2.935 2-6 2 0 4.832-12.339 2.823-14-.5-2.71-5.419-4.893-9.213-2-15 .723-1.445 2-.091 2-2.5l-10 4-1 40c3.434 0 12 9.389 12 12Z"/><path fill="#F2463A" id="PeF" d="M267 253c0 2.226 1.774 4 4 4 7.262 0 2.37-24-6-24-2.409 0-5.181 1-7 1-1.606 0-2.501 1.501-3 2.5-5.183 10.366 2 8.908 2 14.5 3.065 0 6 3.076 6-2v-3.5c3.617-7.233 10.17 7.5 4 7.5Z"/><path fill="#80BFE1" id="MEA" d="M311 287h1c2.329 0 7-12.64 7-15l1-1v-2c0-5.172 1-10.365 1-15v-5c-1.579 0-1-2.855-1-4 0-3.35-1.897-11-6-11l-1-1h-1c0 1.473-1.952 1-3 1l-1 1-4 4-1 1-3 6c0 1.296-.825 7-2 7l-1 8-1 1v2c0 1.048.473 3-1 3l1 9 1 1v1l4 3c0-4.481 6-.423 6 1.5l-2 2.5 4 2h2Z"/><path fill="#97D6F9" id="STR" d="m313 233 1 1-1-1Z"/><path fill="#8AD987" id="CTXsp" d="m368 233-1 1 1-1Z"/><path fill="#A0ED9D" id="EPv" d="M348 276h1l5-1 1-1c0-11.364 18-26.876 18-36v-1c0-1.533-3.753-4-5-4l-1 1c0 1.345-1.571 7-3 7l-1 2-1 2-1 2-1 2-1 2-2 2-1 1-1 1-2 2c0 1.747-.253 2-2 2l-1 3c0 4.492-3 9.234-3 13l1 1Z"/><path fill="#8599CC" id="PAL" d="m309 234-1 1 1-1Z"/><path fill="#99D2BD" id="OLF" d="m376 234-1 1 1-1ZM81 235l2 2-2-2Z"/><path fill="#8599CC" id="PAL" d="M295 245c1.235 0 5-.643 5 1l3-6c-3.236 0-3-2.435-3-5l-5 10Z"/><path fill="#C8CBCC" id="ec" d="m348 235-1 1 1-1ZM109 236l1 1-1-1Z"/><path fill="#FD5D50" id="PVi" d="M229 276c0 1.473 1.952 1 3 1l1-40-4-1v40Z"/><path fill="#99D2BD" id="OLF" d="m375 236-1 1 1-1Z"/><path fill="#8599CC" id="PAL" d="M156 245h5v-1l-4-7c0 2.409-1.957 3-4 3l3 5Z"/><path fill="#FD5D50" id="PVi" d="M224 276c.716 0 3 2.373 3 0v-39h-3v39Z"/><path fill="#99D2BD" id="OLF" d="m374 237-1 1v-1h1Z"/><path fill="#8599CC" id="PAL" d="m151 238 1 1-1-1ZM304 239l-1 1 1-1Z"/><path fill="#97D6F9" id="STR" d="M129 253c2.124 0 4.436 1 6 1l1-5c-.716 0-3 2.373-3 0-7.962 0-14.99-6-17-6-2.364 0-3.053-3-5-3l1 4 1 1c5.944 0 11.59 8 16 8ZM321 254h7c0-3.674 12.222-9 15-9h1l1-5c-1.947 0-2.636 3-5 3-2.363 0-8.771 6-16 6l-3 1v4Z"/><path fill="#C7CAC8" id="stc" d="M133 249c0 2.373 2.284 0 3 0v-3l-1-1c0-1.222-2.832-5.836-4-3.5-1.465 2.931 2 5.297 2 7.5ZM324 249l-3 1v-5c0-.859 2.823-5.855 4-3.5l-1 7.5Z"/><path fill="#C8C9CB" id="amc" d="m364 241-1 2 1-2ZM102 255h1v-1c-5.228 0-8.056-11-10-11 0 2.677 5.521 12 9 12Z"/><path fill="#97D6F9" id="STR" d="m137 243-1 1 1-1Z"/><path fill="#C8C9CB" id="amc" d="m363 243-1 2 1-2Z"/><path fill="#8AD987" id="CTXsp" d="m113 245-1 1v-2l1 1Z"/><path fill="#E64438" id="HY" d="m161 245 2 1-2-2v1Z"/><path fill="#C7C8CA" id="fx" d="m193 250-4 3c-8.216 0 4-16.061 4-6.5v3.5ZM263 249l4 4c6.17 0-.383-14.733-4-7.5v3.5Z"/><path fill="#80BEE2" id="IA" d="M105 259h3c5.219 0 21 3.346 21-6-4.41 0-10.056-8-16-8l-1 1-1 1c0 3.421-7 4.489-7 7l-1 1v1c0 1.238.423 3 2 3Z"/><path fill="#97D6F9" id="STR" d="M136 245v1l-1-1h1Z"/><path fill="#CAC7CB" id="fiber tracts" fill-rule="evenodd" d="M181 272c0 2.861 6 6.868 6 6.5l-6-6.5m2-3c0 6.016 7.436 11.373 10 16.5l6 3.5c-8.527 0-16.203-10.352-23.5-14l-8.5-6c4.463 0 7.462 6.019 11.5 4 1.644-.822-2.938-6.377-3.5-7.5-3.502-7.003-7.123-12.812-14.5-16.5l-2.5 2c-1.353 0-2-4.643-2-6h5l2 1 14 16 1 1 1 1 4 5Z"/><path fill="#8599CC" id="PAL" d="m295 245-1 1 1-1Z"/><path fill="#CAC7CB" id="fiber tracts" d="m270 277-8 10c2.161 0 21-12.567 21-14l-3.5 1c-6.498-3.249 18.5-33.607 18.5-21 1.175 0 2-5.704 2-7 0-1.643-3.765-1-5-1l-1 1-1 1-1 1-14 15-1 1c0 1.238-1.923 5-3 5l-1 1-2 6 4-3.5c.971 1.943-5 8.936-5 4.5Z"/><path fill="#97D6F9" id="STR" d="M321 245v4c-1.579 0-1-2.855-1-4h1Z"/><path fill="#80BEE2" id="IA" d="M348 259h3c1.747 0 2-.253 2-2v-3c-2.365 0-8-5.573-8-8l-2-1c-2.778 0-15 5.326-15 9 0 8.01 15.296 5 20 5Z"/><path fill="#8AD987" id="CTXsp" d="m344 245 1 1-2-1h1Z"/><path fill="#C8C9CB" id="amc" d="m362 245-1 2 1-2Z"/><path fill="#8AD987" id="CTXsp" d="m112 246-1 1 1-1Z"/><path fill="#E64438" id="HY" d="m294 246-1 1 1-1ZM293 247l-1 1 1-1Z"/><path fill="#C8C9CB" id="amc" d="m361 247-1 2 1-2Z"/><path fill="#CACCCB" id="opt" d="M165 269h2c4.463 0 7.462 6.019 11.5 4 1.644-.822-2.938-6.377-3.5-7.5-3.502-7.003-7.123-12.812-14.5-16.5l-2.5 2v1c1.473 0 1 1.952 1 3l1 8 1 1v2l3 2 1 1ZM286 271c-1.238 0-3 .423-3 2l-3.5 1c-6.498-3.249 18.5-33.607 18.5-21l-1 8-1 1v2c-1.473 0-1 1.952-1 3h-1l-1 1-1 1h-3l-1 1-2 1Z"/><path fill="#C8C9CB" id="amc" d="m360 249-1 2 1-2ZM359 251c-1.747 0-2 .253-2 2l2-2Z"/><path fill="#CAC7CB" id="fiber tracts" d="M158 252c1.473 0 1 1.952 1 3-1.473 0-1-1.952-1-3Z"/><path fill="#84EA80" id="BMAa" d="M110 277c1.624 0 2.75 2 5 2 6.46 0 12-8 19-8l3-3c0-5.059-2-9.715-2-14-1.564 0-3.876-1-6-1 0 9.346-15.781 6-21 6l-1 3c0 4.854 2 8.932 2 13l1 2ZM342 279h2l1-1 2-1v-2c0-3.766 3-8.508 3-13l-2-3c-4.704 0-20 3.01-20-5h-7c0 4.635-1 9.828-1 15l2 2c7.327 0 13.13 8 20 8Z"/><path fill="#C8C9CB" id="amc" d="M355 254h1l1-1-2 1Z"/><path fill="#8AD987" id="CTXsp" d="m104 254-1 1v-1h1Z"/><path fill="#C8C9CB" id="amc" d="M353 255h2v-1h-2v1Z"/><path fill="#8AD987" id="CTXsp" d="m356 254-1 1v-1h1ZM103 255v1l-1-1h1ZM355 255l-2 2v-2h2Z"/><path fill="#FF4A3D" id="VMH" d="M210 256c0 .596-7.882 5.265-9 7.5-3.464 6.927 9.372 20.064 14.5 17.5 9.801-4.9 10.767-25-5.5-25ZM239 256c0 .983-5 7.707-5 12 0 28.852 36.455-.022 14.5-11-2.745-1.372-6.19-1-9.5-1Z"/><path fill="#8AD987" id="CTXsp" d="m108 259-1 3-2-3h3ZM351 259l-1 3-2-3h3Z"/><path fill="#CAC7CB" id="fiber tracts" d="m297 261-1 1 1-1Z"/><path fill="#E64438" id="HY" d="m177 262 1 1-1-1Z"/><path fill="#F24839" id="TU" d="M199 289h10c0-1.791 3.27-2.959 2-5.5l-9.5-6.5c-6.233-3.117-9.236-20.764-17.5-12.5-1.333 1.333-1 2.669-1 4.5 0 6.016 7.436 11.373 10 16.5l6 3.5ZM247 289h10c0-1.638 3.576-2 5-2l8-10 1-1 2-6 1-1c0-5.194-3.763-8.368-8.5-6l-7.5 11.5c-2.521 5.042-10.436 4.872-13 10l2 4.5Z"/><path fill="#E64438" id="HY" d="m278 263-1 1 1-1Z"/><path fill="#CAC7CB" id="fiber tracts" d="m294 267-1 1 1-1Z"/><path fill="#99D2BD" id="OLF" d="m134 271 3 1v-4l-3 3Z"/><path fill="#CAC7CB" id="fiber tracts" d="m164 268 1 1-1-1ZM293 268l-1 1 1-1Z"/><path fill="#E64438" id="HY" d="m274 269-1 1 1-1Z"/><path fill="#CAC7CB" id="fiber tracts" d="m289 269-1 1 1-1Z"/><path fill="#99D2BD" id="OLF" d="M320 271h2l-2-2v2Z"/><path fill="#CAC7CB" id="fiber tracts" d="m288 270-2 1 2-1Z"/><path fill="#60E5B7" id="COAa" d="M122 299c-1.048 0-3-.473-3 1l-4-1c0-5.865-2-10.835-2-17l2-3c6.46 0 12-8 19-8l3 1c0 4.822 7 10.508 7 15l1 2c-2.036 0-15.706 10-23 10Z"/><path fill="#CAC7CB" id="fiber tracts" d="M286 271c-1.238 0-3 .423-3 2 1.238 0 3-.423 3-2Z"/><path fill="#99D2BD" id="OLF" d="m320 271-1 1 1-1Z"/><path fill="#60E5B7" id="COAa" d="M337 300h1l3-1c0-5.611 2-11.556 2-18l-1-2c-6.87 0-12.673-8-20-8h-2l-1 1c0 2.36-4.671 15-7 15v2c0 2.867 19.392 10 23 10l2 1Z"/><path fill="#CCCAC9" id="sup" d="M181 272c0 2.861 6 6.868 6 6.5l-6-6.5ZM271 276l4-3.5c.971 1.943-5 8.936-5 4.5l1-1Z"/><path fill="#99D2BD" id="OLF" d="M101 275h1l-1-1v1ZM354 275h2l-1-1-1 1Z"/><path fill="#59D9AA" id="PAA" d="M103 302h6c0-1.579 2.855-1 4-1h1l1-2c0-5.865-2-10.835-2-17 0-2.364-3-3.053-3-5h-1l-1-1-6-1h-1l-3 4.5c-.946 1.893-9 15.889-9 16.5 0 2.715 9.58 5 12 5l2 1Z"/><path fill="#8AD987" id="CTXsp" d="M109 277h1l-1-2-1 1 1 1ZM347 277h1v-1l-1-1v2Z"/><path fill="#59D9AA" id="PAA" d="M348 302h5c0-1.473 1.952-1 3-1 2.459 0 11-1.969 11-5 0-5.208-11-14.833-11-21h-2l-5 1-1 1h-1l-2 1-1 1-1 2c0 6.444-2 12.389-2 18l2.5 2c1.147.574 4.5-1.064 4.5 1Z"/><path fill="#99D2BD" id="OLF" d="m108 276 1 1-1-1Z"/><path fill="#FF5B4F" id="ARH" d="M212 289h32c0-2.611-8.566-12-12-12-1.048 0-3 .473-3-1h-2c0 2.373-2.284 0-3 0 0 6.265-12 6.458-12 13Z"/><path fill="#CAC7CB" id="fiber tracts" d="m271 276-1 1 1-1Z"/><path fill="#97D6F9" id="STR" d="m296 276 1 1-1-1Z"/><path fill="#99D2BD" id="OLF" d="m349 276-1 1v-1h1ZM115 279l-2 3c0-2.364-3-3.053-3-5 1.624 0 2.75 2 5 2Z"/><path fill="#97D6F9" id="STR" d="m160 277-1 1 1-1Z"/><path fill="#99D2BD" id="OLF" d="m347 277-2 1 2-1Z"/><path fill="#97D6F9" id="STR" d="M301 281v1l-4-4 4 3Z"/><path fill="#99D2BD" id="OLF" d="m345 278-1 1 1-1Z"/><path fill="#80BFE2" id="BA" d="M151 285h1l1-1 3-3c-.757 0-6-4.604-6 1.5l1 2.5ZM301 282l4 3 2-2.5c0-1.923-6-5.981-6-1.5v1Z"/><path fill="#99D2BD" id="OLF" d="m344 279-1 2-1-2h2Z"/><path fill="#97D6F9" id="STR" d="m153 284-1 1 1-1Z"/><path fill="#99D2BD" id="OLF" d="m146 288-1 1-1-2h2v1Z"/><path fill="#97D6F9" id="STR" d="m147 287-1 1v-1h1Z"/><path fill="#CAC7CB" id="fiber tracts" d="M262 287c-1.424 0-5 .362-5 2 1.424 0 5-.362 5-2Z"/><path fill="#97D6F9" id="STR" d="m311 287-1 1-1-1h2Z"/><path fill="#99D2BD" id="OLF" d="m310 288 2 1v-2h-1l-1 1ZM119 300c0 1.643-3.765 1-5 1l1-2 4 1ZM122 299c-1.048 0-3-.473-3 1 1.048 0 3 .473 3-1ZM335 299l2 1-2-1ZM338 300c0 1.484 8.263 2 10 2 0-2.064-3.353-.426-4.5-1l-2.5-2-3 1ZM101 301l2 1-2-1ZM113 301c-1.145 0-4-.579-4 1 1.145 0 4 .579 4-1ZM356 301c-1.048 0-3-.473-3 1 1.048 0 3 .473 3-1Z"/></svg>