<svg xmlns="http://www.w3.org/2000/svg" viewBox="0 0 456 320"><path fill="#1BA696" id="RSPagl1" d="m186 13-14 3-1-6c0-.365 13.543-3 15-3v6Z"/><path fill="#1BA598" id="RSPd1" d="M217 19h1l2-2c0-2.464-1.709-3.104-3.5-4l-4-4c-7.067-3.533-18.069-2-26.5-2v6c4.666 0 31-5.045 31 6ZM238 19h1c0-2.632 3.096-3.298 4.5-4 4.031-2.016 14.758-6.621 20-4 2.14 1.07 3.887 2 6.5 2 0-1.564 1-3.876 1-6-7.504 0-35-.954-35 10l2 2Z"/><path fill="#1BA696" id="RSPagl1" d="m270 13 14 3c0-1.564 1-3.876 1-6 0-.384-12.646-3-14-3 0 2.124-1 4.436-1 6Z"/><path fill="#09848B" id="VISam1" d="M141 22h1c8.462 0 19.904-6 30-6l-1-6c-8.174 0-16.163 5-24.5 5-.881 0-7.5 2.552-7.5 3l2 4ZM317 17c0 2.25-2 3.376-2 5-10.167 0-20.093-6-31-6 0-1.564 1-3.876 1-6 10.91 0 21.24 7 32 7Z"/><path fill="#1BA697" id="RSPd2/3" d="M213 23h1l3-4c0-11.046-26.334-6-31-6v8c2.418 0 27-6.596 27 2ZM270 20l-13.5-2c-2.383 1.192-5.725-.137-8 1-1.873.936-3.23 3-5.5 3l-4-3c0-2.632 3.096-3.298 4.5-4 4.031-2.016 14.758-6.621 20-4 2.14 1.07 3.887 2 6.5 2v7Z"/><path fill="#1AA496" id="RSPagl2/3" d="m173 23 1 2c3.933 0 7.365-4 12-4v-8l-14 3c0 1.819 1 4.59 1 7ZM283 23v2c-4.585 0-7.957-4-13-4v-8l14 3-1 7Z"/><path fill="#0B848A" id="VISam2/3" d="m173 23-28 8c0-2.93-3-4.799-3-9 8.462 0 19.904-6 30-6 0 1.819 1 4.59 1 7ZM311 31h1c0-.991 1.535-8 3-8v-1c-10.167 0-20.093-6-31-6l-1 7 28 8Z"/><path fill="#1BA597" id="RSPv1" d="m230 66 2 1V30.5l6-11.5-2-2-7.5 12-8.5-12-2 2c0 .482 6.228 11.957 7 13.5V67l2-1c0-5.723 3-4.813 3 0Z"/><path fill="#019FAC" id="VISa1" d="M335 30h1l1-5c0-2.334-4.181-1.34-5.5-2-2.193-1.096-12.651-6-14.5-6 0 2.25-2 3.376-2 5v1c5.297 0 11.028 2.764 15.5 5 .93.465 4.5.817 4.5 2ZM119 25l2 4c4.896 0 10.348-2.924 14.5-5 1.114-.557 5.5-.41 5.5-2l-2-4c-5.236 0-16.773 7-20 7Z"/><path fill="#1AA596" id="RSPd5" d="M205 32h1c0-3.598 7-5.782 7-9 0-8.596-24.582-2-27-2v11l3.5-2c2.428-1.214 15.5-2.504 15.5 2ZM251 31c3.57 0 9.08-4.21 13.5-2l5.5 3V20l-13.5-2c-2.383 1.192-5.725-.137-8 1-1.873.936-3.23 3-5.5 3v1l8 8Z"/><path fill="#1AA597" id="RSPv2/3" d="m220 66 5 1V32.5c-.772-1.543-7-13.018-7-13.5h-1l-3 4 5 8.5 1 34.5ZM236 66l-4 1V30.5l6-11.5h1l4 3v1c-2.825 0-3.181 5.863-4 7.5-4.448 8.896-3 25.09-3 35.5Z"/><path fill="#1CA697" id="RSPagl5" d="M175 37h1c3.421 0 6.2-4 10-4V21c-4.635 0-8.067 4-12 4l1 12ZM271 33l10 4 2-12c-4.585 0-7.957-4-13-4v11l1 1Z"/><path fill="#009EAB" id="VISa2/3" d="m145 31-21 7-3-8v-1c4.896 0 10.348-2.924 14.5-5 1.114-.557 5.5-.41 5.5-2h1c0 4.201 3 6.07 3 9Z"/><path fill="#09858A" id="VISam4" d="m145 31 1 3c6.412 0 22.378-9 28-9l-1-2-28 8Z"/><path fill="#1BA498" id="RSPv5" d="M218 66h2l-1-34.5-5-8.5h-1c0 3.218-7 5.402-7 9 0 8.269 6 23.024 6 29l6 5ZM236 66h3l6-6c0-6.925 4-13.392 4-21 0-1.623.005-6 2-6v-2l-8-8c-2.825 0-3.181 5.863-4 7.5-4.448 8.896-3 25.09-3 35.5Z"/><path fill="#09858A" id="VISam4" d="M311 31v3c-7.701 0-21.501-9-28-9v-2l28 8Z"/><path fill="#009EAB" id="VISa2/3" d="M312 31c6.44 0 13.672 7 20 7 0-2.7 3-4.762 3-8 0-1.183-3.57-1.535-4.5-2-4.472-2.236-10.203-5-15.5-5-1.465 0-3 7.009-3 8Z"/><path fill="#029FAB" id="VISrl1" d="m89 41 2 3c6.82 0 21.118-14 30-14v-1l-2-4c-7.991 0-15.691 7.596-22.5 11-1.544.772-7.5 2.732-7.5 5Z"/><path fill="#0A848B" id="VISam5" d="M150 43h1c0-.672 4.329-2 5-2 6.772 0 13.045-4 19-4l-1-12c-5.622 0-21.588 9-28 9l4 9ZM281 37c6.874 0 17.889 6 25 6 0-1.962 3.474-8 5-8v-1c-7.701 0-21.501-9-28-9l-2 12Z"/><path fill="#029FAB" id="VISrl1" d="M367 41c0 2.215-2 1.519-2 3-5.955 0-20.893-14-29-14l1-5c7.641 0 14.855 7.177 20.5 10 1.816.908 9.5 3.245 9.5 6Z"/><path fill="#1AA697" id="RSPd6a" d="M197 42h1l7-10c0-4.504-13.072-3.214-15.5-2l-3.5 2v1l1 8h5c0-2.337 5-.219 5 1ZM258 42h1l2-1c0-2.11 6.448 0 8 0 2.48 0 .027-8 2-8l-1-1-5.5-3c-4.42-2.21-9.93 2-13.5 2v2c1.758 0 7 7.424 7 9Z"/><path fill="#029EAC" id="VISrl2/3" d="M97 51h1c0-1.644 4.257-3.379 5.5-4 4.855-2.428 15.118-9 20.5-9l-3-8c-8.882 0-23.18 14-30 14v1c1.198 0 6 4.298 6 6ZM358 51h1l6-6v-1c-5.955 0-20.893-14-29-14h-1c0 3.238-3 5.3-3 8l1 1c6.418 0 12.072 5.286 17.5 8 1.637.819 7.5 1.175 7.5 4Z"/><path fill="#019EAC" id="VISa4" d="m124 38 1 4 21-8-1-3-21 7ZM333 39l-2 3c-7.145 0-12.435-7-20-7v-4h1c6.44 0 13.672 7 20 7l1 1Z"/><path fill="#1AA498" id="RSPv6a" d="m209 58 3 3c0-5.976-6-20.731-6-29h-1l-7 10c0 3.82 11 11.218 11 16Z"/><path fill="#1CA597" id="RSPagl6a" d="M177 45h4c0-1.89 4.598-3 6-3v-1l-1-8c-3.8 0-6.579 4-10 4l1 8Z"/><path fill="#1AA498" id="RSPv6a" d="m248 57-3 3c0-6.925 4-13.392 4-21 0-1.623.005-6 2-6 1.758 0 7 7.424 7 9l-1 3c-2.289 0-6 6.178-6 8-2.098 0-3 1.94-3 4Z"/><path fill="#1CA597" id="RSPagl6a" d="M269 42c3.686 0 6.177 3 10 3l2-8-10-4c-1.973 0 .48 8-2 8v1Z"/><path fill="#019EAB" id="VISa5" d="M150 43c-7.42 0-14.129 7-21 7l-4-7v-1l21-8 4 9ZM327 50h1c0-2.607 3-4.913 3-7v-1c-7.145 0-12.435-7-20-7-1.526 0-5 6.038-5 8 7.77 0 13.982 7 21 7Z"/><path fill="#0A828B" id="VISam6a" d="M177 46c-8.593 0-15.922 2-24 2 0-1.624-2-2.75-2-5 0-.672 4.329-2 5-2 6.772 0 13.045-4 19-4h1l1 8v1ZM279 46c8.965 0 16.466 2 25 2l2-5c-7.111 0-18.126-6-25-6l-2 8v1Z"/><path fill="#019EAA" id="VISrl4" d="M102 55h1c3.051 0 15.327-12 22-12v-1l-1-4c-5.382 0-15.645 6.572-20.5 9-1.243.621-5.5 2.356-5.5 4l4 4ZM358 51c0 1.797-2.203 4-4 4-4.155 0-15.358-12-23-12v-1l2-3c6.418 0 12.072 5.286 17.5 8 1.637.819 7.5 1.175 7.5 4Z"/><path fill="#1BA698" id="RSPd6b" d="m192 41 5 1c0-1.219-5-3.337-5-1ZM269 42v1c-2.885 0-4.697-2-8-2 0-2.11 6.448 0 8 0v1Z"/><path fill="#188060" id="SSp-bfd1" d="m66 59 3 2c4.92 0 15.908-16 22-16v-1l-2-3c-1.745 0-23 16.22-23 18Z"/><path fill="#1BA698" id="RSPd6b" d="M187 42v1c1.424 0 5-.362 5-2h-5v1Z"/><path fill="#CACCC7" id="cing" d="m212 61 6 5c-11.251 0-17.831-12.666-26.5-17-5.449-2.724-21.812 1-29.5 1h-9v-1c8.802 0 15.198-2 24-2l4-2c2.483 0 4.026-2 6-2 1.424 0 5-.362 5-2l5 1c0 .906 11.152 16 12 16l3 3Z"/><path fill="#1BA698" id="RSPd6b" d="M259 42v1l2-2-2 1Z"/><path fill="#CACCC7" id="cing" d="m245 60-6 6c11.158 0 19.279-13.39 28.5-18 2.449-1.224 22.306 2 27.5 2h9v-1c-9.094 0-15.828-2-25-2l-10-4c-2.885 0-4.697-2-8-2l-2 2-2 2c0 2.176-4.188 8-6 8 0 1.429-1.288 4-3 4l-3 3Z"/><path fill="#188060" id="SSp-bfd1" d="M390 59c-1.481 0-.785 2-3 2-4.174 0-15.385-16-22-16v-1c0-1.481 2-.785 2-3 2.406 0 23 15.626 23 18Z"/><path fill="#1AA598" id="RSPagl6b" d="M187 43c-1.974 0-3.517 2-6 2 0-1.89 4.598-3 6-3v1Z"/><path fill="#1AA497" id="RSPv6b" d="M198 42c0 3.82 11 11.218 11 16-.848 0-12-15.094-12-16h1ZM259 43l-2 2 1-3h1v1Z"/><path fill="#1AA598" id="RSPagl6b" d="M279 46v1l-10-4v-1c3.686 0 6.177 3 10 3v1Z"/><path fill="#019DAB" id="VISrl5" d="M103 55c0 1.532 3.897 6 6 6 5.149 0 15.011-11 20-11l-4-7c-6.673 0-18.949 12-22 12Z"/><path fill="#009DAC" id="VISa6a" d="M141 53c-3.455 0-5.917 3-9 3l-3-6c6.871 0 13.58-7 21-7h1c0 2.25 2 3.376 2 5-1.547 0-12 3.677-12 5ZM327 50c0 2.483-2 4.026-2 6-7.041 0-13.388-7-21-7v-1l2-5c7.77 0 13.982 7 21 7Z"/><path fill="#019DAB" id="VISrl5" d="M354 56c-2.696 0-3.847 5-7 5-3.781 0-11.984-6.242-15.5-8l-3.5-3c0-2.607 3-4.913 3-7 7.642 0 18.845 12 23 12v1Z"/><path fill="#187F63" id="SSp-bfd2/3" d="m69 62 6 6 12.5-11c1.647-.823 9.5-3.92 9.5-6 0-1.702-4.802-6-6-6-6.092 0-17.08 16-22 16v1Z"/><path fill="#1AA598" id="RSPagl6b" d="M177 46v1l4-2h-4v1Z"/><path fill="#1AA497" id="RSPv6b" d="M257 45c-2.289 0-6 6.178-6 8 1.812 0 6-5.824 6-8Z"/><path fill="#187F63" id="SSp-bfd2/3" d="m387 62-6 6c0-1.794-13.434-11.467-16.5-13l-5.5-4 6-6c6.615 0 17.826 16 22 16v1Z"/><path fill="#08838A" id="VISam6b" d="M153 48v1c8.802 0 15.198-2 24-2v-1c-8.593 0-15.922 2-24 2ZM304 48v1c-9.094 0-15.828-2-25-2v-1c8.965 0 16.466 2 25 2Z"/><path fill="#029FAC" id="VISa6b" d="M153 50c-4.304 0-7.464 3-12 3 0-1.323 10.453-5 12-5v2Z"/><path fill="#C7CACC" id="ccs" d="M78 135h1v-2l1-1v-2l1-1c0-1.424.362-5 2-5 0-1.623.005-6 2-6 0-1.622-.46-5 2-5 0-1.465-.109-4 2-4 0-1.465-.109-4 2-4l1-2 1-1v-1c0-1.238.423-3 2-3l1-1 1-2c0-1.747.253-2 2-2 0-1.747.253-2 2-2v-1l1-1 1-1 1-1 1-1c0-2.362 2.638-5 5-5l1-1 1-1 1-1 1-1c0-1.577 1.762-2 3-2 0-1.712 2.571-3 4-3l2-1c0-2.275 3.756-4 6-4l2-1 1-1 4-2 2-1 2-1c0-1.638 3.576-2 5-2 0-1.995 4.377-2 6-2 0-1.952 2.454-.477 3.5-1 5.873-2.937 14.605 0 20.5 0 0-1.25 4.427-1.536 5.5-1 4.718 2.359 8.217 7.608 13 10 11.424 5.712 20.632 11 34.5 11 14.871 0 24.266-5.883 36.5-12 4.731-2.365 6.634-6.817 11-9 1.073-.536 5.5-.25 5.5 1 11.002 0 20.552-1.974 30.5 3 1.708.854 8.5 1.133 8.5 4h1c5.923 0 12.312 8.406 17.5 11 15.194 7.597 38.5 44.382 38.5 60l2 3c0-4.187-.381-14.262-2-17.5-1.54-3.081-5-9.101-5-12.5l-1-1v-1l-2-3v-1l-6-6.5c-1.987-3.974-22-21.161-22-23.5l-8.5-6c-6.596-3.298-26.802-14-33.5-14-1.145 0-4 .58-4-1-5.194 0-25.051-3.224-27.5-2-9.221 4.61-17.342 18-28.5 18h-3l-4 1-2-1h-3l-2 1-5-1h-2c-11.251 0-17.831-12.666-26.5-17-5.449-2.724-21.812 1-29.5 1 0 1.643-3.765 1-5 1-5.564 0-23.942 9.221-29.5 12-2.921 1.46-6.129 6-9.5 6l-1 1-1 1-2 1-1 1-1 1-1 1-2 2-3.5 4c-2.842 2.843-7.564 10-10.5 10 0 1.429-1.288 4-3 4 0 1.429-1.288 4-3 4l-1 2-1 1v1l-1 1-1 1-4 9.5c-2.714 5.429-3 14.023-3 20.5Z"/><path fill="#029FAC" id="VISa6b" d="M324 57h1v-1c-7.041 0-13.388-7-21-7v1c7.084 0 13.102 7 20 7Z"/><path fill="#029EAB" id="VISrl6a" d="M115 66h1c0-1.077 3.762-3 5-3 0-2.218 5.144-4 7-4 0-2.109 2.535-2 4-2v-1l-3-6c-4.989 0-14.851 11-20 11v1c1.639 0 6 3.319 6 4Z"/><path fill="#CBC9C7" id="or" d="m71 171 2 1c0-4.4 1.138-9.776 3-13.5l.5-2.5c.675 0 .935 9 3.5 9 0-3.944-1.288-10.076-3-13.5V137l1-1v-1c0-6.477.286-15.071 3-20.5l4-9.5 1-1 1-1v-1l1-1 1-2c0-1.429 1.288-4 3-4 0-1.429 1.288-4 3-4 0-3.176 10.824-14 14-14 0-1.747.253-2 2-2l1-1 1-1 1-1 2-1 1-1 1-1c3.371 0 6.579-4.54 9.5-6 5.558-2.779 23.936-12 29.5-12v-1h-4c-4.304 0-7.464 3-12 3 0 2.216-7.15 4-9 4 0 2.109-2.535 2-4 2 0 1.948-5.428 4-7 4 0 1.533-3.753 4-5 4h-1L93 86c0 4.181-7.18 7.858-9 11.5l-2 3.5-7 12v3l-4 10c1.747 0 2 .253 2 2 0 7.335-4 12.948-4 21l-1 2v12c0 3.138 2 5.662 2 8h1Z"/><path fill="#C9C9CA" id="scwm" d="M162 50c0 1.643-3.765 1-5 1v-1h5ZM299 50v1c-1.145 0-4 .58-4-1h4Z"/><path fill="#CBC9C7" id="or" d="m386 171-3 1c0-4.076-2-7.795-2-11 0-.951-.436-5-1.5-5-1.163 0 .368 8-2.5 8 0-8.666 2-17.461 2-27 0-4.187-.381-14.262-2-17.5-1.54-3.081-5-9.101-5-12.5l-1-1v-1c0-1.238-.423-3-2-3v-1c0-4.02-24.923-30-28-30l-8.5-6c-6.596-3.298-26.802-14-33.5-14v-1h5c7.084 0 13.102 7 20 7 0 2.341 2.342 1.42 3.5 2 3.747 1.874 9.289 8 13.5 8l22 19 12 15 7 15c0 3.686 3 6.177 3 10l-1 1c-1.156 0-1.472 2.555-1 3.5 3.021 6.041 5 13.284 5 20.5l1 15-3 5Z"/><path fill="#029EAB" id="VISrl6a" d="m347 62-6 4c-5.137 0-10.021-9-16-9v-1c0-1.974 2-3.517 2-6h1l3.5 3c3.516 1.758 11.719 8 15.5 8v1Z"/><path fill="#197C64" id="SSp-bfd4" d="M75 69c3.086 0 2.914 4 6 4l4.5-4c1.957-.979 16.5-12.303 16.5-14l-4-4h-1c0 2.08-7.853 5.177-9.5 6L75 68v1ZM381 69l-5 4c-5.434 0-16.902-17-22-17v-1c1.797 0 4-2.203 4-4h1l5.5 4c3.066 1.533 16.5 11.206 16.5 13v1Z"/><path fill="#029FAC" id="VISa6b" d="M132 56v1c1.85 0 9-1.784 9-4-3.455 0-5.917 3-9 3Z"/><path fill="#1AA497" id="RSPv6b" d="M251 53c-2.098 0-3 1.94-3 4 1.712 0 3-2.571 3-4Z"/><path fill="#1A7D62" id="SSp-bfd5" d="m81 74 6 6c2.98 0 15.838-18 22-18v-1c-2.103 0-6-4.468-6-6h-1c0 1.697-14.543 13.021-16.5 14L81 73v1Z"/><path fill="#C7C8CC" id="alv" d="M151 57h24v-1c-5.895 0-14.627-2.937-20.5 0-1.046.523-3.5-.952-3.5 1Z"/><path fill="#C9CCC9" id="dhc" d="M238 83h3c0-1.643 3.765-1 5-1h1l2-1h2l1-1h1l1-1h1l1-1 1-1 2-1 1-1c0-2.165 10.486-12 12-12l1-1c0-1.712 2.571-3 4-3l2-1 2-1v-1c0-1.25-4.427-1.536-5.5-1-4.366 2.183-6.269 6.635-11 9-12.234 6.117-21.629 12-36.5 12-13.868 0-23.076-5.288-34.5-11-4.783-2.392-8.282-7.641-13-10-1.073-.536-5.5-.25-5.5 1v1h1c5.56 0 17.958 14.458 22.5 19l6.5 5h2l2 1h1c1.235 0 5-.643 5 1h3l5-2 5.5-3 5.5 3 3 1 1 1Z"/><path fill="#C7C8CC" id="alv" d="M281 57c4.813 0 14.555-3.473 19.5-1 3.107 1.553 16.612 7 19.5 7 0-2.867-6.792-3.146-8.5-4-9.948-4.974-19.498-3-30.5-3v1Z"/><path fill="#7ECF4B" id="CA1" d="M87 113v2c6.359 0 24.52-14 36-14 0-4.688 5.929-8.215 9.5-10 13.23-6.615 26.405-15.797 42-8 2.205 1.103 17.307 12 17.5 12 .972 0 11 3.725 11 4 1.737 0 10-.516 10-2l-4-15-2-1h-2c-5.56 0-17.958-14.458-22.5-19l-6.5-5h-25c0 1.353-4.643 2-6 2 0 1.638-3.576 2-5 2l-2 1-2 1c0 2.109-2.535 2-4 2l-1 1-2 1c0 1.617-4.583 4-6 4l-2 1c0 1.712-2.571 3-4 3 0 1.577-1.762 2-3 2l-1 1-1 1-1 1-1 1-5 5-1 1-1 1-1 1-1 1v1l-2 2c0 1.747-.253 2-2 2l-1 2-1 1c0 1.238-.423 3-2 3v1l-1 1-1 2-2 4-2 4ZM334 101c8.718 0 20.963 6.231 28.5 10l7.5 5c0-8.498-22.121-36.31-29.5-40-5.184-2.592-9.894-6.447-15-9l-4.5-4h-1c-2.888 0-16.393-5.447-19.5-7-4.945-2.473-14.687 1-19.5 1l-2 1-2 1c0 1.712-2.571 3-4 3l-1 1c0 2.969-9.015 12-12 12l-1 1-2 1-1 1-1 1h-1l-1 1h-1l-1 1h-2l-2 1c0 5.19-4 10.265-4 15 3.119 0 6.279 2 10 2 0-1.274 7.483-2 9-2l1-1c1.069 0 13.937-10.719 16.5-12 18.016-9.008 28.511-.745 44 7 3.889 1.945 10.5 5.288 10.5 10Z"/><path fill="#1A7D62" id="SSp-bfd5" d="M369 80h1l6-6v-1c-5.434 0-16.902-17-22-17-2.696 0-3.847 5-7 5v1c2.734 0 22 16.522 22 18Z"/><path fill="#009DAA" id="VISrl6b" d="M132 57c-1.465 0-4-.109-4 2 1.465 0 4 .109 4-2Z"/><path fill="#C7C8CC" id="alv" d="M151 57c-1.623 0-6 .005-6 2 1.357 0 6-.647 6-2ZM176 57c5.56 0 17.958 14.458 22.5 19l6.5 5c-5.56 0-17.958-14.458-22.5-19l-6.5-5ZM281 57l-2 1 2-1Z"/><path fill="#009DAA" id="VISrl6b" d="M341 66v1c-4.211 0-9.753-6.126-13.5-8-1.158-.58-3.5.341-3.5-2h1c5.979 0 10.863 9 16 9Z"/><path fill="#C7C8CC" id="alv" d="m279 58-2 1 2-1Z"/><path fill="#1A7E62" id="SSs1" d="M57 73h1l11-11v-1l-3-2c-2.513 0-11 8.479-11 11 0 1.481 2 .785 2 3Z"/><path fill="#009DAA" id="VISrl6b" d="M128 59c-1.856 0-7 1.782-7 4 1.572 0 7-2.052 7-4Z"/><path fill="#C7C8CC" id="alv" d="M145 59c-1.424 0-5 .362-5 2 1.424 0 5-.362 5-2ZM277 59c-1.429 0-4 1.288-4 3 1.429 0 4-1.288 4-3Z"/><path fill="#1A7E62" id="SSs1" d="M398 73h1l3-3c0-2.615-9.667-11-12-11-1.481 0-.785 2-3 2v1c2.81 0 11 8.235 11 11Z"/><path fill="#C7C8CC" id="alv" d="m140 61-2 1 2-1Z"/><path fill="#1B8063" id="SSs2/3" d="M64 81h1c0-1.31 7.651-12 10-12v-1l-6-6-11 11 6 8Z"/><path fill="#198060" id="SSp-bfd6a" d="M87 81c2.618 0 3.094 4 5 4 4.748 0 15.81-18 23-18v-1c0-.681-4.361-4-6-4-6.162 0-19.02 18-22 18v1Z"/><path fill="#C7C8CC" id="alv" d="m138 62-2 1 2-1ZM273 62l-1 1 1-1Z"/><path fill="#198060" id="SSp-bfd6a" d="m369 80-5 5c-3.07 0-17.618-19-23-19l6-4c2.734 0 22 16.522 22 18Z"/><path fill="#1B8063" id="SSs2/3" d="M391 81h1l6-8c0-2.765-8.19-11-11-11l-6 6v1c2.787 0 10 9.703 10 12Z"/><path fill="#009DAA" id="VISrl6b" d="M116 66v1c1.247 0 5-2.467 5-4-1.238 0-5 1.923-5 3Z"/><path fill="#C7C8CC" id="alv" d="m136 63-4 2c1.465 0 4 .109 4-2ZM272 63c-1.514 0-12 9.835-12 12 2.985 0 12-9.031 12-12ZM351 155c5.09 0 2.268 14.037 4 17.5l4 4c1.029 2.057 0 2.308 0 4.5l6.5-7c13.935-6.968 11.5-27.192 11.5-40 0-15.618-23.306-52.403-38.5-60-5.188-2.594-11.577-11-17.5-11l4.5 4c5.106 2.553 9.816 6.408 15 9 7.379 3.69 29.5 31.502 29.5 40l3 8c0 6.177 3 12.512 3 19 0 6.979-4.817 31.841-16.5 26l-4.5-12.5c-5.157-10.313-18.467-33.984-29.5-39.5-2.921-1.461-6.129-6-9.5-6v1l1 1h1l1 1h1l1 1c4.592 0 16 13.914 16 18 2.939 0 10 12.548 10 15l1 1v1c1.077 0 3 3.762 3 5ZM132 65l-1 1 1-1Z"/><path fill="#1A7E61" id="SSp-bfd6b" d="M115 67h1v-1h-1v1Z"/><path fill="#C7C8CC" id="alv" d="m131 66-2 1 2-1Z"/><path fill="#1A7E61" id="SSp-bfd6b" d="M363 86h1v-1c-3.07 0-17.618-19-23-19v1l22 19ZM92 86h1l22-19c-7.19 0-18.252 18-23 18v1Z"/><path fill="#C7C8CC" id="alv" d="M129 67c-2.244 0-6 1.725-6 4 1.417 0 6-2.383 6-4Z"/><path fill="#187C63" id="SSs4" d="M65 81c2.35 0 1.382 3 4 3 1.832 0 8.08-10 12-10v-1c-3.086 0-2.914-4-6-4-2.349 0-10 10.69-10 12Z"/><path fill="#C8C9CA" id="fp" d="m118 69-1 1 1-1Z"/><path fill="#187C63" id="SSs4" d="M387 85h1l3-4c0-2.297-7.213-12-10-12l-5 4v1c2.757 0 11 8.983 11 11Z"/><path fill="#039399" id="AUDd1" d="M43 93h1l13-20c0-2.215-2-1.519-2-3-1.684 0-16 17.818-16 19 1.634 0 4 2.635 4 4Z"/><path fill="#C8C9CA" id="fp" d="m117 70-1 1 1-1Z"/><path fill="#039399" id="AUDd1" d="M412 93h1c0-1.365 2.366-4 4-4 0-5.222-15-15.786-15-19l-3 3c0 4.036 13 13.695 13 20Z"/><path fill="#C7C8CC" id="alv" d="m123 71-2 1 2-1Z"/><path fill="#C8C9CA" id="fp" d="M341 71c3.077 0 28 25.98 28 30l-6-6.5c-1.987-3.974-22-21.161-22-23.5ZM114 72l-1 1 1-1Z"/><path fill="#C7C8CC" id="alv" d="M121 72c-1.429 0-4 1.288-4 3 1.429 0 4-1.288 4-3Z"/><path fill="#029397" id="AUDd2/3" d="m44 93 8 5 12-17-6-8h-1L44 93Z"/><path fill="#C8C9CA" id="fp" d="m113 73-1 1 1-1Z"/><path fill="#029397" id="AUDd2/3" d="M404 98h1l7-5c0-6.305-13-15.964-13-20h-1l-6 8 3 3.5 9 13.5Z"/><path fill="#1C8063" id="SSs5" d="M76 93h1c0-1.878 7.745-12 10-12v-1l-6-6c-3.92 0-10.168 10-12 10v1l7 8Z"/><path fill="#C8C9CA" id="fp" d="m112 74-1 1 1-1Z"/><path fill="#1C8063" id="SSs5" d="M387 85c0 1.668-6.132 8-7 8-1.235 0-10-11.823-10-13l6-6c2.757 0 11 8.983 11 11Z"/><path fill="#C8C9CA" id="fp" d="M111 75c-1.747 0-2 .253-2 2l2-2Z"/><path fill="#C7C8CC" id="alv" d="M117 75c-1.238 0-3 .423-3 2 1.238 0 3-.423 3-2ZM260 75l-1 1 1-1ZM259 76l-2 1 2-1Z"/><path fill="#C8C9CA" id="fp" d="M109 77c-3.176 0-14 10.824-14 14 2.936 0 7.658-7.157 10.5-10l3.5-4Z"/><path fill="#C7C8CC" id="alv" d="m114 77-1 1 1-1ZM257 77l-1 1 1-1ZM113 78l-1 1 1-1ZM256 78l-1 1 1-1ZM112 79l-1 1 1-1ZM254 79l-1 1 1-1ZM111 80l-1 1 1-1Z"/><path fill="#7BD04A" id="DG-mo" d="M145 109v1c8.757 0 15.537-3 24-3 0-2.161 11.652-2 14-2 0-1.643 3.765-1 5-1 0-1.463 7-1.494 7-4 0-2.364-3-3.053-3-5-.193 0-15.295-10.897-17.5-12-15.595-7.797-28.77 1.385-42 8-3.571 1.785-9.5 5.312-9.5 10v2l6 1c0-4.341 7.612-5.556 10.5-7 7.565-3.783 21.705-12.647 31-8 1.459.73 20.83 5.085 13 9-6.329 3.165-16.525-1.237-23 2l-15.5 7v2Z"/><path fill="#C7C8CC" id="alv" d="m252 80-1 1 1-1Z"/><path fill="#7BD04A" id="DG-mo" d="m312 109-1 1c-8.266 0-15.073-3-23-3h-1c0-2.064-3.353-.426-4.5-1-3.258-1.629-9.789-2-13.5-2h-1c0-1.44-7-1.431-7-5l1-2 1-1c1.069 0 13.937-10.719 16.5-12 18.016-9.008 28.511-.745 44 7 3.889 1.945 10.5 5.288 10.5 10l-1 2c-1.564 0-3.876 1-6 1 0-4.301-6.675-5.588-9.5-7-7.552-3.776-22.774-12.613-32-8-1.148.574-20.475 5.262-13 9 6.329 3.165 16.525-1.237 23 2 2.074 1.037 14.199 7 15.5 7l1 2Z"/><path fill="#197D63" id="SSs6a" d="m380 94-5 5-2-2.5c-.71-1.42-6.174-10.5-9-10.5v-1l5-5h1c0 1.177 8.765 13 10 13v1Z"/><path fill="#039398" id="AUDd4" d="M52 98c1.481 0 .785 2 3 2 2.276 0 10.224-15 14-15v-1c-2.618 0-1.65-3-4-3h-1L52 98Z"/><path fill="#197D63" id="SSs6a" d="M77 93c0 1.334 2.972 6 4 6l11-13v-1c-1.906 0-2.382-4-5-4-2.255 0-10 10.122-10 12Z"/><path fill="#C7C8CC" id="alv" d="M110 81c-2.362 0-5 2.638-5 5l5-5ZM207 81l2 1-2-1Z"/><path fill="#7ECD4A" id="FC" d="M218 91h1l1-2 1-1v-1c0-1.238.423-3 2-3v-3l-5 2v8ZM235 87l3 4c1.613 0 0-6.225 0-8l-1-1-3-1c0 1.69 1 3.148 1 5v1Z"/><path fill="#C7C8CC" id="alv" d="m249 81-2 1 2-1Z"/><path fill="#039398" id="AUDd4" d="M401 101h1l2-3-9-13.5-3-3.5h-1l-3 4c0 5.46 13 9.859 13 16Z"/><path fill="#4FC244" id="SUB" d="M218 91c0 2.572-2.693 6-5 6l-4-15h1c0 1.643 3.765 1 5 1h3v8Z"/><path fill="#C7C8CC" id="alv" d="M210 82c1.235 0 5-.643 5 1-1.235 0-5 .643-5-1Z"/><path fill="#A8A9AA" id="V3" d="M235 88c-4.552 0-5.005 4-6.5 4-.847 0-.978-3-7.5-3v-2c1.577 0 2-1.762 2-3 2.203 0 4.569-3.466 7.5-2l4.5 4v2Z"/><path fill="#7DCD4B" id="HPF" d="m237 82 1 1-1-1Z"/><path fill="#C7C8CC" id="alv" d="M246 82c-1.235 0-5-.643-5 1 1.235 0 5 .643 5-1Z"/><path fill="#4FC244" id="SUB" d="M238 91c0 1.442 3.274 6 5 6 0-4.735 4-9.81 4-15h-1c0 1.643-3.765 1-5 1h-3c0 1.775 1.613 8 0 8Z"/><path fill="#029398" id="AUDd5" d="M55 101c5.111 0 7.017 8 12 8 0-5.536 9-10.517 9-16l-7-8c-3.776 0-11.724 15-14 15v1ZM389 109h1l11-8c0-6.141-13-10.54-13-16h-1c0 1.668-6.132 8-7 8v1c.821 0 9 13.054 9 15Z"/><path fill="#1A8061" id="SSs6b" d="m81 100 1 1 2-3.5c1.82-3.642 9-7.319 9-11.5h-1L81 99v1Z"/><path fill="#C7C8CC" id="alv" d="m105 86-1 1 1-1Z"/><path fill="#1A8061" id="SSs6b" d="M375 100v1l-12-15h1c2.826 0 8.29 9.08 9 10.5l2 2.5v1Z"/><path fill="#C7C8CC" id="alv" d="m104 87-1 1 1-1ZM103 88l-1 1 1-1Z"/><path fill="#65A83D" id="DG-sg" d="M129 104c0-4.341 7.612-5.556 10.5-7 7.565-3.783 21.705-12.647 31-8 1.459.73 20.83 5.085 13 9-6.329 3.165-16.525-1.237-23 2l-15.5 7 2-4 8.5-5 17.5-3.5c0-2.393-7.525-1.5-9-1.5-4.568 0-25 4.522-25 8-3.641 0-5.885 3-10 3Z"/><path fill="#A9AAA8" id="chpl" d="M219 97c3.459 0 9.123 4.188 13.5 2l4.5-2 1-1-1-5-1-1-1-2c-4.552 0-5.005 4-6.5 4-.847 0-.978-3-7.5-3l-1 1-1 1v6Z"/><path fill="#65A83D" id="DG-sg" d="M327 104c0-4.301-6.675-5.588-9.5-7-7.552-3.776-22.774-12.613-32-8-1.148.574-20.475 5.262-13 9 6.329 3.165 16.525-1.237 23 2 2.074 1.037 14.199 7 15.5 7l-2-4-8.5-5-16.5-3.5c0-2.363 7.068-1.5 8.5-1.5 4.552 0 24.5 4.347 24.5 8 3.541 0 6.145 3 10 3Z"/><path fill="#029297" id="AUDp1" d="M23 131h5c0-8.831 5.225-19.951 9-27.5 1.583-3.165 6-6.845 6-10.5 0-1.365-2.366-4-4-4l-7 11.5c-4.176 8.352-9 20.681-9 30.5Z"/><path fill="#C7C8CC" id="alv" d="m102 89-1 1 1-1Z"/><path fill="#A8A9AA" id="V3" d="m221 89-1 1v-1h1Z"/><path fill="#029297" id="AUDp1" d="m433 131-5 1c0-8.721-3.352-18.203-7-25.5-1.912-3.823-8-9.18-8-13.5 0-1.365 2.366-4 4-4l6 9.5c4.769 9.537 10 21.155 10 32.5Z"/><path fill="#A8A9AA" id="V3" d="m236 90 1 1-1-1Z"/><path fill="#C8C9CA" id="fp" d="M95 91c-1.712 0-3 2.571-3 4 1.712 0 3-2.571 3-4Z"/><path fill="#C7C8CC" id="alv" d="M101 91c-1.747 0-2 .253-2 2l2-2Z"/><path fill="#019298" id="AUDp2/3" d="m28 132 8 1c0-7.603 3.786-16.072 7-22.5L52 98l-8-5h-1c0 3.655-4.417 7.335-6 10.5-3.775 7.549-9 18.669-9 27.5v1Z"/><path fill="#019399" id="AUDd6a" d="m75 113-2 2-6-5v-1c0-5.536 9-10.517 9-16h1c0 1.334 2.972 6 4 6v1c0 4.181-6 7.766-6 13Z"/><path fill="#C7C8CC" id="alv" d="M99 93c-1.747 0-2 .253-2 2 1.747 0 2-.253 2-2Z"/><path fill="#7ECE4A" id="DG-po" d="M139 101c1.775 0 8 .069 8 2l8.5-5 17.5-3.5c0-2.393-7.525-1.5-9-1.5-4.568 0-25 4.522-25 8ZM317 101c-3.091 0-5.478 2-8 2l-8.5-5-16.5-3.5c0-2.363 7.068-1.5 8.5-1.5 4.552 0 24.5 4.347 24.5 8Z"/><path fill="#019298" id="AUDp2/3" d="m428 132-7 1c0-6.058-5.298-18.096-8-23.5L405 98l7-5h1c0 4.32 6.088 9.677 8 13.5 3.648 7.297 7 16.779 7 25.5Z"/><path fill="#019399" id="AUDd6a" d="M389 109c0 1.901-4.332 5-6 5-2.815 0-3.879-14-8-14v-1l5-5c.821 0 9 13.054 9 15Z"/><path fill="#C8C9CA" id="fp" d="M92 95c-1.712 0-3 2.571-3 4 1.712 0 3-2.571 3-4Z"/><path fill="#C7C8CC" id="alv" d="m97 95-1 2 1-2Z"/><path fill="#7DCD4B" id="HPF" d="M203 99c-2.707 0-5.903 1-8 1 0-2.364-3-3.053-3-5 .972 0 11 3.725 11 4Z"/><path fill="#A8A9AA" id="V3" d="m238 96-1 1 1-1Z"/><path fill="#7DCD4B" id="HPF" d="m263 96-1 1 1-1Z"/><path fill="#C7C8CC" id="alv" d="m96 97-1 1 1-1Z"/><path fill="#A8A9AA" id="V3" d="M220 99h17v-2l-4.5 2c-4.377 2.188-10.041-2-13.5-2l1 2Z"/><path fill="#7DCD4B" id="HPF" d="M253 99h8l1-2c-1.517 0-9 .726-9 2Z"/><path fill="#039397" id="AUDp4" d="m36 133 5 1c0-7.025 3.005-16.511 6-22.5l8-10.5v-1c-2.215 0-1.519-2-3-2l-9 12.5c-3.214 6.428-7 14.897-7 22.5Z"/><path fill="#C7C8CC" id="alv" d="M95 98c-1.577 0-2 1.762-2 3 1.577 0 2-1.762 2-3Z"/><path fill="#039397" id="AUDp4" d="m421 133-6 1c0-8.911-3.299-17.098-7-24.5-1.475-2.949-6-4.996-6-8.5l2-3h1l8 11.5c2.702 5.404 8 17.442 8 23.5Z"/><path fill="#C8C9CA" id="fp" d="m89 99-1 2 1-2Z"/><path fill="#C8CCC7" id="hbc" d="M239 107c1.24 0 1.576 2 4 2 0-6.099-6-8.295-6-10h-17c-.498 0-13.539 9-3 9l1-1h21Z"/><path fill="#019398" id="AUDd6b" d="m82 101-7 12c0-5.234 6-8.819 6-13l1 1ZM382 116h1v-2c-2.815 0-3.879-14-8-14v1l7 15Z"/><path fill="#039199" id="AUDp5" d="m41 134 16 3c0-5.661 3.567-18.067 7.5-22l2.5-5v-1c-4.983 0-6.889-8-12-8l-8 10.5c-2.995 5.989-6 15.475-6 22.5Z"/><path fill="#C8C9CA" id="fp" d="m88 101-1 1 1-1Z"/><path fill="#7DCF4B" id="CA2" d="M85 118v4c3.531 0 6.459-5.479 9.5-7 6.974-3.487 20.75-12 28.5-12v-2c-11.48 0-29.641 14-36 14v1l-1 1-1 1Z"/><path fill="#7ECF49" id="CA3" d="m84 123-1 1c0 6.44-2 11.616-2 18.5 0 4.028 1 8.59 1 12 0 5.171 3.823 11.162 8.5 13.5.948.474 5.586 2.327 6.5.5 4.231-8.463 7.729-17.457 12-26l10-13c1.427-2.853 6.244-10.5 10-10.5l1-1c0-1.712 2.571-3 4-3 0-1.577 1.762-2 3-2l2-1 1-1h1l1-1h2l1-1v-2l2-4c0-1.931-6.225-2-8-2-3.641 0-5.885 3-10 3l-6-1c-7.75 0-21.526 8.513-28.5 12-3.041 1.521-5.969 7-9.5 7l-1 1ZM316 111c3.371 0 6.579 4.539 9.5 6 11.033 5.516 24.343 29.187 29.5 39.5l4.5 12.5c11.683 5.841 16.5-19.021 16.5-26 0-6.488-3-12.823-3-19l-9.5-8c-7.81-3.905-21.72-13-30.5-13-1.564 0-3.876 1-6 1-3.855 0-6.459-3-10-3-3.091 0-5.478 2-8 2l2 4 1 2 1 1 3 1Z"/><path fill="#7DCF4B" id="CA2" d="m370 116 3 8-9.5-8c-7.81-3.905-21.72-13-30.5-13l1-2c8.718 0 20.963 6.231 28.5 10l7.5 5Z"/><path fill="#039199" id="AUDp5" d="M399 137h1l15-3c0-8.911-3.299-17.098-7-24.5-1.475-2.949-6-4.996-6-8.5h-1l-11 8c0 7.717 9 17.854 9 28Z"/><path fill="#C7C8CC" id="alv" d="m93 102-1 1 1-1Z"/><path fill="#C8C9CA" id="fp" d="M369 102c1.577 0 2 1.762 2 3l-2-3ZM87 103l-1 1 1-1Z"/><path fill="#C7C8CC" id="alv" d="m92 103-1 2 1-2Z"/><path fill="#C8C9CA" id="fp" d="m86 104-1 1 1-1Z"/><path fill="#FE8EFF" id="APN" d="M181 127c1.114 0 4 2.034 4 3l5.5 2c4.952-2.476 10.688-17.124 7.5-23.5-.535-1.07-3-4.098-3-4.5h-7c0 1.643-3.765 1-5 1 0 1.638-3.576 2-5 2l-1 1-1 1h-1l-1 1v5l8 9.5-1 2.5Z"/><path fill="#FF64FF" id="MB" d="M227 195c0-5.32 2-5.498 2 0l5-2h3l-2-4-2-2c-4.121 0-3-9.734-3-12.5 0-7.26-2.348-22.303 1-29 .857-1.715 7.262-.477 8 1V157c0 1.577 1.762 2 3 2l1-1c0-1.238 1.923-5 3-5 0-10.442 9.06-16 19-16 3.701 0 6-2.027 6-6-3.229 0-4.459 1.52-7.5 0-3.869-1.934-6.522-20.456-4.5-24.5l2-2.5c-7.074 0-12.885 5-18 5 0 3.218-7 5.402-7 9l5 5c3.27 0 10.914 7.673 9 11.5-4.439 8.877-12.722 8.5-20 8.5 0 6.044-3 6.687-3 0-3.929 0-7.454 2.023-11.5 0l-4-4-4.5-3.5c-2.352-4.704 5.806-14.5 11-14.5l1-1 2-1v-1l-2-1.5c-4.384-8.768-14.183-12.5-24-12.5 0 .402 2.465 3.43 3 4.5 3.188 6.376-2.548 21.024-7.5 23.5l-5.5-2c0 3.604 2.298 7 6 7 8.467 0 20 5.027 20 15 0 4.093 6 10.6 6 3 0-3.31-.372-6.755 1-9.5h7c4.096 8.193 2 22.276 2 32 0 3.229-.187 9.5-4 9.5l-2 2v3l1 1h1l4 2Z"/><path fill="#FE8EFF" id="APN" d="m272 129-1 2c-3.229 0-4.459 1.52-7.5 0-3.869-1.934-6.522-20.456-4.5-24.5l2-2.5h8c0 1.312 8.235 3 10 3l2 2 1 1 1 2v2l-1 1c-2.894 0-7 9.251-7 12l-3 2Z"/><path fill="#C7C8CC" id="alv" d="M91 105c-2.109 0-2 2.535-2 4l2-4Z"/><path fill="#A8A9AA" id="V3" d="M223 117h10c3.952 0 6-7.139 6-10h-21l-1 1c0 3.724 6 7.103 6 9Z"/><path fill="#C8C9CA" id="fp" d="m371 106 1 1-1-1Z"/><path fill="#CAC7CB" id="fiber tracts" d="m171 107-2 1v-1h2Z"/><path fill="#C7CBCB" id="bsc" d="M172 110h1l2-1h1l1-1 1-1h-7l-2 1h-2l-2 1c-1.552 0-8 .566-8 2l15-1ZM296 110c1.048 0 3-.473 3 1l-15-1h-1l-2-1-2-2h7l2 1h1l2 1h4l1 1Z"/><path fill="#CAC7CB" id="fiber tracts" d="M288 107v1l-2-1h2ZM167 108l-2 1 2-1Z"/><path fill="#FF64FF" id="MB" d="m177 108-1 1 1-1Z"/><path fill="#CAC7CB" id="fiber tracts" d="m289 108 2 1-2-1Z"/><path fill="#C7C8CC" id="alv" d="M89 109c-2.109 0-2 2.535-2 4l2-4Z"/><path fill="#7DCD4B" id="HPF" d="M144 110h1v-1l-1 1Z"/><path fill="#FF64FF" id="MB" d="M173 110h1l1-1-2 1ZM282 110h1l-2-1 1 1Z"/><path fill="#CAC7CB" id="fiber tracts" d="m295 109 1 1-1-1Z"/><path fill="#7DCD4B" id="HPF" d="M311 110h2l-1-1-1 1Z"/><path fill="#019396" id="AUDp6a" d="M390 138h1l8-1c0-10.146-9-20.283-9-28h-1c0 1.901-4.332 5-6 5v2c0 6.026 7 14.579 7 22ZM57 137l9 1c0-7.624 7-14.728 7-22v-1l-6-5-2.5 5c-3.933 3.933-7.5 16.339-7.5 22Z"/><path fill="#C7C8CC" id="alv" d="m142 110-1 1 1-1Z"/><path fill="#FE909D" id="LP" d="m164 135-14 4c-3.744 0-4-.256-4-4 0-3.09 1.619-8.738 3-11.5l-1-8.5-1-3h4l2-1h4l15-1 1 5c-2.339 0 .585 14 4 14l-2 2c-1.896 0-11 2.08-11 4Z"/><path fill="#FF6F80" id="TH" d="M173 115h1v-5h-2l1 5ZM284 110l-1 2-1-2h2Z"/><path fill="#FE909D" id="LP" d="M311 137c0 2.461-3.378 2-5 2l-13-4c0-1.949-9.971-4-12-4l-2-2c3.785 0 7.737-15 4-15v-2l1-2 15 1h4l2 1h4v2c-1.665 0-1 4.222-1 5.5 0 6.453 3 11.894 3 17.5Z"/><path fill="#C7C8CC" id="alv" d="M139 112h1v-1l-1 1Z"/><path fill="#C7CBCB" id="bsc" d="M147 112h4v-1c-1.321 0-6-.684-6 1h2Z"/><path fill="#CAC7CB" id="fiber tracts" d="m153 111-2 1v-1h2ZM305 111v1l-2-1h2Z"/><path fill="#C7CBCB" id="bsc" d="M309 112h2c0-1.684-4.679-1-6-1v1h4Z"/><path fill="#C7C8CC" id="alv" d="M138 113h1v-1l-2 1h1Z"/><path fill="#CAC7CB" id="fiber tracts" d="M140 113h1v-1h-2v1h1Z"/><path fill="#C7CBCB" id="bsc" d="M141 113h2v-1h-2v1Z"/><path fill="#CAC7CB" id="fiber tracts" d="m144 112-1 1v-1h1Z"/><path fill="#FE8083" id="LGd-sh" d="M121 133v3l2.5 2c1.321 0 6.709-15 11.5-15 0-1.747.253-2 2-2 0-3.166 8.601-6 11-6l-1-3h-3l-1 1h-3l-2 1-1 1-1 1-2 1-1 1-1 1-3 2-2 3-1 1h-1v1l-1 1-1 1v1l-1 1v1l-1 1v1ZM335 132v3c0 7.999-12.671-14.085-16.5-16l-9.5-5v-2h3l1 1h4l4 3 1 1 3 2 6 6v1l1 1 1 2 2 2v1Z"/><path fill="#CAC7CB" id="fiber tracts" d="M313 112v1l-1-1h1Z"/><path fill="#C7CBCB" id="bsc" d="M313 113h2v-1h-2v1Z"/><path fill="#CAC7CB" id="fiber tracts" d="M315 113h2l-1-1h-1v1Z"/><path fill="#019398" id="AUDd6b" d="M73 116h2v-3l-2 2v1Z"/><path fill="#C7C8CC" id="alv" d="m86 117-1 1c0-1.622-.46-5 2-5v3l-1 1ZM134 115h2l1-1v-1c-1.238 0-3 .423-3 2Z"/><path fill="#CAC7CB" id="fiber tracts" d="M137 114h1v-1h-1v1Z"/><path fill="#C7CBCB" id="bsc" d="m140 113-2 1v-1h2ZM335 132l2 1c0-4.086-11.408-18-16-18l-1-1h-1l-1-1h-1l4 3 1 1 3 2 6 6v1l1 1 1 2 2 2v1Z"/><path fill="#CAC7CB" id="fiber tracts" d="m318 113 1 1-1-1Z"/><path fill="#C7CBCB" id="bsc" d="M136 115h1l1-1h-1l-1 1Z"/><path fill="#FF6F80" id="TH" d="m283 114-1 1 1-1Z"/><path fill="#FF8D9D" id="POL" d="m275 127 4 2c3.785 0 7.737-15 4-15l-1 1c-2.894 0-7 9.251-7 12Z"/><path fill="#FE7F84" id="LGd-co" fill-rule="evenodd" d="M312 118c0 1.284-3.47 2.561-2 5.5 8.371 16.743 20.332 3.916 7.5-2.5-1.79-.895-3.403-3-5.5-3m24 19-3 3.5c-1.053 2.106-6.604 10.5-9 10.5 0-1.416-12.178-14-13-14 0-5.606-3-11.047-3-17.5 0-1.278-.665-5.5 1-5.5l9.5 5c3.829 1.915 16.5 23.999 16.5 16l1 2Z"/><path fill="#CAC7CB" id="fiber tracts" d="m320 114 1 1-1-1Z"/><path fill="#C7C8CC" id="alv" d="M130 118h2l1-1 1-2c-1.429 0-4 1.288-4 3Z"/><path fill="#C7CBCB" id="bsc" d="M133 117h1l2-1v-1h-2l-1 2Z"/><path fill="#CAC7CB" id="fiber tracts" d="m137 115-1 1v-1h1Z"/><path fill="#FE7F84" id="LGd-co" d="M120 138c5.447 0 8.147 13 12 13l14-16c0-3.09 1.619-8.738 3-11.5l-1-8.5c-2.399 0-11 2.834-11 6l7.5-3c5.192 0-.189 16.906-8 13-1.318-.659-2.54.419-3.5-1.5-1.428-2.856 2-4.553 2-6.5-4.791 0-10.179 15-11.5 15l-2.5-2-1 2Z"/><path fill="#FF8D9D" id="POL" d="m181 127-4 2c-3.415 0-6.339-14-4-14h1l8 9.5-1 2.5Z"/><path fill="#039198" id="AUDp6b" d="M66 138h1l2-3c0-3.519 2-5.843 2-9l4-10h-2c0 7.272-7 14.376-7 22Z"/><path fill="#7ECF4B" id="CA1" d="m87 116-1 1 1-1Z"/><path fill="#CAC7CB" id="fiber tracts" d="m321 116 1 1-1-1Z"/><path fill="#039198" id="AUDp6b" d="M389 138h1c0-7.421-7-15.974-7-22h-1c0 3.686 3 6.177 3 10 0 3.664 4 8.003 4 12Z"/><path fill="#C7CBCB" id="bsc" d="M132 118h1v-1l-1 1Z"/><path fill="#CAC7CB" id="fiber tracts" d="m134 117-1 1v-1h1Z"/><path fill="#CCCACA" id="pc" d="m234 119 7 4-5-5c-1.048 0-3 .473-3-1h-10v1c3.642 0 8.002 1 11 1Z"/><path fill="#C7C8CC" id="alv" d="m84 123-1 1c0-1.623.005-6 2-6v4l-1 1ZM130 118l-1 1 1-1Z"/><path fill="#C7CBCB" id="bsc" d="m132 119-3 2v-2l1-1h2v1Z"/><path fill="#CAC7CB" id="fiber tracts" d="m133 118-1 1v-1h1Z"/><path fill="#FD8082" id="LGd-ip" d="m137 121 7.5-3c5.192 0-.189 16.906-8 13-1.318-.659-2.54.419-3.5-1.5-1.428-2.856 2-4.553 2-6.5l2-2Z"/><path fill="#CCCACA" id="pc" d="M221 119h1l1-1h-2v1Z"/><path fill="#FF78FE" id="SCO" d="M225 124c1.091 0 6-3.553 6 0 2.6 0 3-2.639 3-5-2.998 0-7.358-1-11-1l-1 1c0 1.408 1.197 5 3 5Z"/><path fill="#FD8082" id="LGd-ip" d="M312 118c0 1.284-3.47 2.561-2 5.5 8.371 16.743 20.332 3.916 7.5-2.5-1.79-.895-3.403-3-5.5-3Z"/><path fill="#C7C8CC" id="alv" d="M105 155c-2.334 0-1.341 4.181-2 5.5-1.893 3.785-.149 9.298-2 13-1.74 3.479-4 3.152-4 7.5l-4.5-6C78.061 167.781 79 149.448 79 135v-2l1-1v-2l1-1c0-1.424.362-5 2-5 0 6.44-2 11.616-2 18.5 0 4.028 1 8.59 1 12 0 5.171 3.823 11.162 8.5 13.5.948.474 5.586 2.327 6.5.5 4.231-8.463 7.729-17.457 12-26l10-13c1.427-2.853 6.244-10.5 10-10.5v2c-2.226 0-4 1.774-4 4l-1 1-1 1-1 2-1 1-1 1c-.501 0-11 16-11 18l-1 2-3 4Z"/><path fill="#CCCACA" id="pc" d="m221 119-2 1 2-1Z"/><path fill="#FE90FE" id="PRC" d="M225 124c0 6.023 2 12.149 2 19-3.929 0-7.454 2.023-11.5 0l-4-4-4.5-3.5c-2.352-4.704 5.806-14.5 11-14.5l1-1 2-1h1c0 1.408 1.197 5 3 5ZM229 143h1c7.278 0 15.561.377 20-8.5 1.914-3.827-5.73-11.5-9-11.5l-7-4c0 2.361-.4 5-3 5 0 6.568-2 11.951-2 19Z"/><path fill="#CAC7CB" id="fiber tracts" d="m325 119 6 6-6-6Z"/><path fill="#CCCACA" id="pc" d="m219 120-1 1 1-1Z"/><path fill="#C7CBCB" id="bsc" d="M125 125h1l1-1 2-3c-2.226 0-4 1.774-4 4Z"/><path fill="#FE7F84" id="LGd-co" d="M137 121c-1.747 0-2 .253-2 2l2-2Z"/><path fill="#7DCF4B" id="CA2" d="m85 122-1 1 1-1Z"/><path fill="#A8A9AA" id="V3" d="M227 143h2c0-7.049 2-12.432 2-19 0-3.553-4.909 0-6 0 0 6.023 2 12.149 2 19Z"/><path fill="#CAC7CB" id="fiber tracts" d="m127 124-1 1 1-1Z"/><path fill="#C7CBCB" id="bsc" d="M124 126h1v-1l-1 1Z"/><path fill="#CCC8CA" id="ar" d="m73 128-4 7c0-3.519 2-5.843 2-9 1.747 0 2 .253 2 2Z"/><path fill="#C7CBCB" id="bsc" d="M123 127h1v-1l-1 1Z"/><path fill="#CAC7CB" id="fiber tracts" d="m125 126-1 1v-1h1ZM331 126l1 1-1-1Z"/><path fill="#CCC8CA" id="ar" d="M391 144v3c-1.59 0-1.443-4.386-2-5.5-1.888-3.776-5-10.183-5-14.5l1-1c0 3.664 4 8.003 4 12l1 5 1 1Z"/><path fill="#C7CBCB" id="bsc" d="M122 129h1v-2l-1 2Z"/><path fill="#CAC7CB" id="fiber tracts" d="m124 127-1 1v-1h1Z"/><path fill="#FF6F80" id="TH" d="M191 137c0 2.073-6 4.975-6 9-1.612 0-10-12.741-10-15l2-2 4-2c1.114 0 4 2.034 4 3 0 3.604 2.298 7 6 7ZM265 137l5 4.5c.465.93.817 4.5 2 4.5 0-4.66 9-8.897 9-15l-2-2-4-2-3 2-1 2c0 3.973-2.299 6-6 6Z"/><path fill="#C8C9CA" id="fp" d="M388 151h3v-4c-1.59 0-1.443-4.386-2-5.5-1.888-3.776-5-10.183-5-14.5-1.156 0-1.472 2.555-1 3.5 3.021 6.041 5 13.284 5 20.5ZM65 151h3l1-2c0-8.052 4-13.665 4-21l-4 7c0 1.623-.005 6-2 6 0 1.145.58 4-1 4v2l-1 2v2Z"/><path fill="#A8AAAA" id="VL" d="m81 129-1 1 1-1Z"/><path fill="#C7CBCB" id="bsc" d="M122 130v1l-1-1 1-1v1Z"/><path fill="#CAC7CB" id="fiber tracts" d="m123 129-1 1v-1h1Z"/><path fill="#FF64FF" id="MB" d="m272 129-1 2 1-2Z"/><path fill="#CAC7CB" id="fiber tracts" d="m333 129 2 2-2-2ZM122 131l-1 1-1-1 1-1 1 1Z"/><path fill="#019099" id="AUDv1" d="M21 151h6c0-6.525 1-13 1-19v-1h-5c0 6.344-2 13.407-2 20Z"/><path fill="#CAC7CB" id="fiber tracts" d="m149 231 2 1-12-13.5c-4.476-8.952-13-17.756-13-28.5v-3c0-2.849-5-5.459-5-9-2.315 0-5.168-6.835-6-8.5-4.927-9.854-6.043-14.915-1-25 .433-.865 2.479-3.5 4-3.5l2-3 1-2v-3l-1-2c-.501 0-11 16-11 18l-1 2c0 11.486 2.281 27.061 7 36.5l4 9.5v2l6 8-6-12.5-4-14c-.538-1.077-3.639-6.43-1.5-7.5 3.349-1.675 6.473 10.445 7.5 12.5 3.25 6.5 4.709 13.418 8 20 .373.747 2.285 5.5-.5 5.5l-3.5-3 9 11c1.852 0 8 4.927 8 7 1.294 0 7 3.609 7 5Z"/><path fill="#C7CBCB" id="bsc" d="M121 132v1l-1-2 1 1Z"/><path fill="#FD8F9C" id="Eth" d="M185 146c0 3.948-1 9.393-1 14-1.765 0-.541-1.581-1-2.5-1.679-3.358-11.911-14.911-14.5-17.5l-4.5-5c0-1.92 9.104-4 11-4 0 2.259 8.388 15 10 15ZM272 146l1 12c4.577 0 15.576-23 20-23 0-1.949-9.971-4-12-4 0 6.103-9 10.34-9 15Z"/><path fill="#019099" id="AUDv1" d="M429 151h6c0-6.914-2-13.644-2-20l-5 1c0 5.572 1 12.756 1 19Z"/><path fill="#029198" id="AUDv2/3" d="M27 151h8c0-5.915 1-12.755 1-18l-8-1c0 6-1 12.475-1 19Z"/><path fill="#A8AAAA" id="VL" d="m80 132-1 1 1-1Z"/><path fill="#CAC7CB" id="fiber tracts" d="m314 226-3 1c0-3.837 6.306-8.111 8-11.5 4.538-9.077 11-15.368 11-26.5v-2c0-1.298 5-4.619 5-9 2.115 0 5.248-5.996 6-7.5 3.618-7.236 10.108-22.196-.5-27.5l-2.5-2-2-4-1-2v-3l2 1c2.939 0 10 12.548 10 15l1 1v1l1 7.5c-2.296 4.592-4 14.307-4 19.5l-2 2c0-20.893-12.377 22.253-13 23.5-.834 1.668-6.224 8.5-1 8.5 0 2.33-4 3.227-4 6l-2 1c0 1.334-8 3.794-8 7l-1 1Z"/><path fill="#029198" id="AUDv2/3" d="M421 151h8c0-6.244-1-13.428-1-19l-7 1v18Z"/><path fill="#029197" id="AUDv4" d="M35 151h4c0-6.156 2-11.334 2-17l-5-1c0 5.245-1 12.085-1 18ZM418 151h3v-18l-6 1c0 4.572 2 11.014 2 17h1Z"/><path fill="#019098" id="AUDv5" d="m39 151 15 1c0-5.069 3-10.554 3-15l-16-3c0 5.666-2 10.844-2 17Z"/><path fill="#A8AAAA" id="VL" fill-rule="evenodd" d="M360 188c0 2.268-4.36 4.221-5 5.5-1.585 3.171-21.608 21.554-25.5 23.5-3.246 1.623-9.06 9.47-4 12 10.114 5.057 31.895-22.289 35.5-29.5 1.046-2.092 3.709-11.5-1-11.5m-46 38 1 3c8.016 0 14.007 3.747 21.5 0 5.129-2.565 15.693-17 20.5-17 0-1.238.423-3 2-3l3-6c0-6.97 9-13.38 9-21 0-2.806-1.51-5.48 0-8.5 1.169-2.338 5-5.905 5-8.5l1-1c0-8.666 2-17.461 2-27l-2-3c0 12.808 2.435 33.032-11.5 40l-6.5 7c0 4.511-14.609 21-19 21 0 1.524-13.011 15-15 15l-2 1c0 1.334-8 3.794-8 7l-1 1Z"/><path fill="#019098" id="AUDv5" d="m417 151-14 1-3-15 15-3c0 4.572 2 11.014 2 17Z"/><path fill="#CCC8CA" id="ar" d="M67 138v3c1.995 0 2-4.377 2-6l-2 3Z"/><path fill="#A8AAAA" id="VL" fill-rule="evenodd" d="M95 188c0 10.192 1.39 12.279 6 21.5 3.252 6.503 13.128 9.255 16 15 1.458 2.915 13.686 7.628 16 3 1.832-3.665-5.242-9.242-7.5-11.5l-22-20c-2.123-2.123-6.19-8-8.5-8m47 38-1 3c-15.123 0-9.946 4.777-25.5-3L98 209.5l-4-6.5c0-7.287-9-13.521-9-21 0-2.589-.757-17-5-17 0-3.944-1.288-10.076-3-13.5V137l1-1v-1h1c0 14.448-.939 32.781 13.5 40l4.5 6c0 4.692 15.132 21 20 21 0 3.063 13.854 17 17 17 1.852 0 8 4.927 8 7Z"/><path fill="#FF6F80" id="TH" d="M132 151v2l9-6c3.311 0 4.81-6 9-6v-2c-3.744 0-4-.256-4-4l-14 16Z"/><path fill="#FF8E9C" id="PO" d="M184 173v2c-7.626 0-13.799-7-16-7l-11-11.5c-1.29-2.58-3.066-15.5-7-15.5v-2l14-4 4.5 5c2.589 2.589 12.821 14.142 14.5 17.5.459.919-.765 2.5 1 2.5v13ZM272 174l1 1c7.514 0 12.901-7 16-7 0-.683 9.857-11.215 11-13.5 1.061-2.122 3.227-13.5 6-13.5v-2l-13-4c-4.424 0-15.423 23-20 23 0 5.259-1 11.406-1 16Z"/><path fill="#C7CACC" id="ccs" d="m78 136-1 1 1-1Z"/><path fill="#019397" id="AUDv6a" d="M54 152c2.723 0 5.778 1 9 1 0-5.543 3-10.195 3-15l-9-1c0 4.446-3 9.931-3 15Z"/><path fill="#FC909E" id="PF" d="m184 173 1.5 2H203c1.623 0 6-.005 6-2s-5.925-17 1-17c0-1.145-.579-4 1-4 0-9.973-11.533-15-20-15 0 2.073-6 4.975-6 9 0 3.948-1 9.393-1 14v13ZM272 174l-1 1h-18.5c-1.532 0-5.5-.173-5.5-2 0-2.738 7.972-17-1-17v-3c0-10.442 9.06-16 19-16l5 4.5c.465.93.817 4.5 2 4.5l1 12c0 5.259-1 11.406-1 16Z"/><path fill="#FF6F80" id="TH" d="M324 151v2c-3.144 0-5.45-6-9-6 0-3.302-6.505-6-9-6v-2c1.622 0 5 .461 5-2 .822 0 13 12.584 13 14Z"/><path fill="#FF909E" id="IGL" d="m324 153 1 6c.992 0 13-16.491 13-18l-2-4-3 3.5c-1.053 2.106-6.604 10.5-9 10.5v2Z"/><path fill="#019397" id="AUDv6a" d="M403 152c-2.978 0-6.49 1-10 1 0-5.721-2-9.761-2-15l8-1h1l3 15Z"/><path fill="#019198" id="AUDv6b" d="M63 153h1v-1l1-2v-3l1-2c0-1.145-.58-4 1-4v-3h-1c0 4.805-3 9.457-3 15Z"/><path fill="#FF909E" id="IGL" d="m132 153-1 5c-3.09 0-9.497-11.495-11-14.5l-2-2.5 2-3c5.447 0 8.147 13 12 13v2Z"/><path fill="#019198" id="AUDv6b" d="M392 153h1c0-5.721-2-9.761-2-15h-2l1 5 1 1v4c1.473 0 1 1.952 1 3v2Z"/><path fill="#CCC8CA" id="ar" d="M67 141c-1.58 0-1 2.855-1 4 1.58 0 1-2.855 1-4Z"/><path fill="#FF8E9F" id="LGv" d="m126 177-5 1c-2.315 0-5.168-6.835-6-8.5-4.927-9.854-6.043-14.915-1-25 .433-.865 2.479-3.5 4-3.5l2 2.5c1.503 3.005 7.91 14.5 11 14.5l2 7c-4.141 0-6.103 12-7 12Z"/><path fill="#FF7E83" id="VPM" d="M168 168c-3.225 0-7 5.096-7 8-5.294 0-8.096-10-13-10 0-2.384-8-5.852-8-10 0-2.675 1-5.922 1-9 3.311 0 4.81-6 9-6 3.934 0 5.71 12.92 7 15.5l11 11.5ZM300 174l-5 2c0-2.885-2.753-8-6-8 0-.683 9.857-11.215 11-13.5 1.061-2.122 3.227-13.5 6-13.5 2.495 0 9 2.698 9 6 0 3.071 2 5.362 2 9 0 1.675-6.062 9-8 9l-1 1-1 1-1 1-1 1-1 1-1 1-1 1-1 1-1 1Z"/><path fill="#FF8E9F" id="LGv" d="M330 177c1.235 0 5-.643 5 1 2.115 0 5.248-5.996 6-7.5 3.618-7.236 10.108-22.196-.5-27.5l-2.5-2c0 1.509-12.008 18-13 18l-1 6c2.656 0 6 10.031 6 12Z"/><path fill="#C9C9CA" id="scwm" d="m390 143 1 1-1-1ZM65 147h1v-2l-1 2Z"/><path fill="#FE7F83" id="SPA" d="m220 185 3 2c3.813 0 4-6.271 4-9.5 0-9.724 2.096-23.807-2-32h-7c-1.372 2.745-1 6.19-1 9.5 2.144 0 .381 4.262 1 5.5 2.274 4.548-1 13.847-1 19.5 0 1.947 3 2.636 3 5ZM236 185c-1.481 0-.785 2-3 2-4.121 0-3-9.734-3-12.5 0-7.26-2.348-22.303 1-29 .857-1.715 7.262-.477 8 1V157c-1.665 0-1 4.222-1 5.5l1 17.5-3 5Z"/><path fill="#CCC8CA" id="ar" d="m66 147-1 2v-2h1ZM136 167h1c0-3.332-1.576-11 3-11 0-2.675 1-5.922 1-9l-9 6-1 5 2 7 3 2ZM319 167h1l4-2 1-6-1-6c-3.144 0-5.45-6-9-6 0 3.071 2 5.362 2 9 5.379 0 2 8.302 2 11Z"/><path fill="#C9C9CA" id="scwm" d="M391 151h1c0-1.048.473-3-1-3v3Z"/><path fill="#CCC8CA" id="ar" d="m69 149-1 2 1-2Z"/><path fill="#C9C9CA" id="scwm" d="M64 152h1v-2l-1 2Z"/><path fill="#15B0B3" id="TEa1" d="m30 173-5 2-2-3.5-2-20.5h6v12.5l3 9.5Z"/><path fill="#16AFB3" id="TEa2/3" d="M39 172c-3.222 0-6.277 1-9 1l-3-9.5V151h8c0 7.675 4 14.123 4 21Z"/><path fill="#15B0B2" id="TEa4" d="M39 172h2l-2-6.5V151h-4c0 7.675 4 14.123 4 21Z"/><path fill="#15AFB3" id="TEa5" d="M41 172h12c0-6.734 1-13.866 1-20l-15-1v14.5l2 6.5Z"/><path fill="#CCC8CA" id="ar" d="M68 163c-2.159 0-.06 4-1.5 4l-1.5-2v-14h3v12ZM389 166h2v-15h-3l1 15Z"/><path fill="#C8CBCC" id="ec" d="M392 153c0 1.824.781 12-1 12v-14h1v2Z"/><path fill="#15AFB3" id="TEa5" d="M403 172h13l2-21h-1l-14 1v20Z"/><path fill="#15B0B2" id="TEa4" d="M416 172h1l2-3.5c2.324-4.649 2-11.906 2-17.5h-3l-2 21Z"/><path fill="#16AFB3" id="TEa2/3" d="M426 173h1c0-2.613.93-4.36 2-6.5V151h-8c0 5.594.324 12.851-2 17.5l-2 3.5c3.222 0 6.277 1 9 1Z"/><path fill="#15B0B3" id="TEa1" d="m427 173 4 2c2.143 0 2-4.797 2-6.5 0-5.54 2-11.628 2-17.5h-6v15.5c-1.07 2.14-2 3.887-2 6.5Z"/><path fill="#15AFB2" id="TEa6a" d="M53 172h12l-2-5.5V153c-3.222 0-6.277-1-9-1 0 6.134-1 13.266-1 20Z"/><path fill="#C8CBCC" id="ec" d="M64 153c0 1.49-.735 8 1 8v-9h-1v1Z"/><path fill="#FF6F80" id="TH" d="m185 184 17.5-1 4.5 4c0-8.379 4.199-7 10-7 0-5.653 3.274-14.952 1-19.5-.619-1.238 1.144-5.5-1-5.5 0 7.6-6 1.093-6-3-1.579 0-1 2.855-1 4 4.875 0 9.167 16.666 4.5 19-2.82 1.41-3.31-2-5.5-2 0 1.995-4.377 2-6 2h-17.5l-1.5-2v2l1 1h14.5c4.274 2.137-7.804 4-9.5 4-2.253 0-6.469.984-8.5 2l-11.5-1c0 2.768 12.447 3 15 3Z"/><path fill="#15AFB2" id="TEa6a" d="M392 172h11v-20c-2.978 0-6.49 1-10 1 0 6.417-1 13.174-1 19Z"/><path fill="#16B0B2" id="TEa6b" d="M65 172h1c0-1.819-1-4.591-1-7v-4c-1.735 0-1-6.51-1-8h-1v13.5l2 5.5Z"/><path fill="#FF6F80" id="TH" d="m246 156-3 2c0-1.238 1.923-5 3-5v3Z"/><path fill="#16B0B2" id="TEa6b" d="M391 172h1c0-5.826 1-12.583 1-19h-1c0 1.824.781 12-1 12v7Z"/><path fill="#CBC8CB" id="fi" d="M119 199c0 2.003.293 3-2 3-4.868 0-20-16.308-20-21 0-4.348 2.26-4.021 4-7.5 1.851-3.702.107-9.215 2-13 .659-1.319-.334-5.5 2-5.5 0 7.648 5.69 24.879 9 31.5.987 1.974 1.896 10.5 5 10.5v2ZM337 199c0 2.041.959 3 3 3 4.391 0 19-16.489 19-21 0-2.192 1.029-2.443 0-4.5l-4-4c-1.732-3.463 1.09-17.5-4-17.5 0 3.952-3.917 22-6 22 0 2.842-2.56 17-6 17l-1 2c0 1.048.473 3-1 3Z"/><path fill="#98D5F9" id="CP" d="M73 172c0 3.262 6.961 9.731 9.5 11l2.5-1c0-2.589-.757-17-5-17-2.565 0-2.825-9-3.5-9l-.5 2.5c-1.862 3.724-3 9.1-3 13.5Z"/><path fill="#FD8084" id="VPL" d="M151 176h5c0-4.217-8-6.259-8-10 0-2.384-8-5.852-8-10-4.576 0-3 7.668-3 11l10 8h1l3 1Z"/><path fill="#C7CAC9" id="fr" d="M210 156c4.875 0 9.167 16.666 4.5 19-2.82 1.41-3.31-2-5.5-2 0-1.995-5.925-17 1-17ZM242 159c0 3.994-4.821 13.339.5 16 2.116 1.058 2.898-2 4.5-2 0-2.738 7.972-17-1-17l-3 2-1 1Z"/><path fill="#FD8084" id="VPL" d="M305 176h2l2-1 2-1 1-1 2-1 1-1 4-4c0-2.698 3.379-11-2-11 0 1.675-6.062 9-8 9l-1 1-1 1-1 1-1 1-1 1-1 1-1 1-1 1-1 1v2h5Z"/><path fill="#98D5F9" id="CP" d="M383 172c0 2.702-5.646 9.573-8.5 11l-3.5-1c0-2.806-1.51-5.48 0-8.5 1.169-2.338 5-5.905 5-8.5l1-1c2.868 0 1.337-8 2.5-8 1.064 0 1.5 4.049 1.5 5 0 3.205 2 6.924 2 11Z"/><path fill="#FF6F80" id="TH" d="m272 184-17.5-1-5.5 4c0-8.989-3.669-7-10-7l-1-17.5c0-1.278-.665-5.5 1-5.5 0 1.577 1.762 2 3 2 0 3.994-4.821 13.339.5 16 2.116 1.058 2.898-2 4.5-2 0 1.827 3.968 2 5.5 2H271v1c-2.059 0-16-1.1-16 1.5 0 1.21 10.92 2.5 12 2.5 1.906 0 6.698 1.099 8.5 2l10.5-1c0 2.832-11.461 3-14 3ZM243 158l-1 1 1-1Z"/><path fill="#C8CBCC" id="ec" d="m70 182-3 1-1-11c0-1.819-1-4.591-1-7l1.5 2c1.44 0-.659-4 1.5-4 0 3.138 2 5.662 2 8v11Z"/><path fill="#CBC9C7" id="or" d="m377 164-1 1 1-1Z"/><path fill="#F0483B" id="ZI" d="M180 206v1c0 12.368-27.755-5.628-30.5-7l-6.5-5-12-8c0-3.651-5-7.045-5-10 .897 0 2.859-12 7-12l3 2c0 2.366 9.119 8 11 8h1l4 3 1 1h1c0 1.772 7.346 6 9 6 0 1.892 16 12.808 16 20l1 1Z"/><path fill="#FF6F80" id="TH" d="m309 165-1 1 1-1Z"/><path fill="#F0483B" id="ZI" d="M309 199c-3.423 0-32 22.646-32 7 0-3.868 12.588-21 17-21l5-4 2-1 1-1h1l1-1h1l1-1 1-1 2-1 2-1 1-1 2-1 1-1c1.562 0 5-2.189 5-4l4-2c2.656 0 6 10.031 6 12l-5 10-1 2c-4.507 0-8.137 7-12 7l-1 1-2 2Z"/><path fill="#FF6F80" id="TH" d="m161 176 8 5-13-5c0-4.217-8-6.259-8-10 4.904 0 7.706 10 13 10ZM308 166l-1 1 1-1Z"/><path fill="#C8CBCC" id="ec" d="m387 182 2 1c.766 0 2-9.884 2-11v-6h-2l-3 5c1.773 0 1 9.259 1 11Z"/><path fill="#FF6F80" id="TH" d="m137 167 10 8c-1.881 0-11-5.634-11-8h1ZM307 167l-1 1 1-1ZM320 167c0 1.811-3.438 4-5 4l4-4h1Z"/><path fill="#FF7F82" id="VPLpc" d="M169 181h1l11.5 1c2.031-1.016 6.247-2 8.5-2 0-1.297-5-2.084-5-4l-1-1c-7.626 0-13.799-7-16-7-3.225 0-7 5.096-7 8l8 5ZM286 181h1l2-1 2-1 4-3c0-2.885-2.753-8-6-8-3.099 0-8.486 7-16 7h-2v1l-4 4c1.906 0 6.698 1.099 8.5 2l10.5-1Z"/><path fill="#FF6F80" id="TH" d="m306 168-1 1 1-1ZM305 169l-1 1 1-1ZM304 170l-1 1 1-1Z"/><path fill="#0D9E90" id="ECT5" d="M58 196h1c0-8.869-6-14.958-6-24H41c0 6.911 5 13.302 5 20l1 1c1.818 0 11 1.6 11 3Z"/><path fill="#97D6F9" id="STR" d="M93 203h1c0-7.287-9-13.521-9-21l-2.5 1c-2.539-1.269-9.5-7.738-9.5-11l-2-1c0 3.013 1 6.611 1 9 7.71 0 17.366 23 21 23Z"/><path fill="#FF6F80" id="TH" d="m303 171-1 1 1-1ZM315 171l-1 1 1-1Z"/><path fill="#97D6F9" id="STR" d="M362 203h2l5-7.5c2.166-4.332 11.698-15.5 16-15.5 0-3.222 1-6.277 1-9l-3 1c0 2.702-5.646 9.573-8.5 11l-3.5-1c0 7.62-9 14.03-9 21Z"/><path fill="#0D9E90" id="ECT5" d="M397 196h1c0-1.329 10.03-3 12-3 0-6.801 6-14.304 6-21h-13c0 9.349-6 15.29-6 24Z"/><path fill="#0D9F91" id="ECT2/3" d="M34 190c4.367 0 7.905 2 12 2 0-6.698-5-13.089-5-20h-2c-3.222 0-6.277 1-9 1l5 8.5-1 8.5Z"/><path fill="#0E9F91" id="ECT6a" d="M59 196h2c0-1.662 4.357-3 6-3 0-7.051-2-13.552-2-21H53c0 9.042 6 15.131 6 24Z"/><path fill="#0E9F90" id="ECT6b" d="M67 193h1l-1-10-1-11h-1c0 7.448 2 13.949 2 21Z"/><path fill="#FF6F80" id="TH" d="m302 172-1 1 1-1ZM314 172l-2 1 2-1Z"/><path fill="#0E9F90" id="ECT6b" d="M389 183v9c1.643 0 1-3.765 1-5l2-15h-1c0 1.116-1.234 11-2 11Z"/><path fill="#0E9F91" id="ECT6a" d="m395 195 2 1c0-8.71 6-14.651 6-24h-11l-2 15c0 1.235.643 5-1 5v1c3.334 0 3.561 2 6 2Z"/><path fill="#0D9F91" id="ECT2/3" d="M422 191c-5.126 0-9.236 2-12 2 0-6.801 6-14.304 6-21h1c3.222 0 6.277 1 9 1 0 3.01-2.749 4.998-4 7.5V191Z"/><path fill="#0D9F90" id="ECT1" d="m27 189 7 1 1-8.5-5-8.5-5 2 3 3.5c1.514 3.028-1 7.882-1 10.5Z"/><path fill="#CACCCB" id="opt" d="M125 207v1l3.5 3c2.785 0 .873-4.753.5-5.5-3.291-6.582-4.75-13.5-8-20-1.027-2.055-4.151-14.175-7.5-12.5-2.139 1.07.962 6.423 1.5 7.5l4 14 6 12.5Z"/><path fill="#FF6F80" id="TH" d="m301 173-1 1 1-1ZM312 173l-1 1 1-1Z"/><path fill="#CACCCB" id="opt" d="M331 208c-1.577 0-2 1.762-2 3-5.224 0 .166-6.832 1-8.5.623-1.247 13-44.393 13-23.5-1.995 0-2 4.377-2 6-1.995 0-2 4.377-2 6-2.184 0-6 11.746-6 14-1.577 0-2 1.762-2 3Z"/><path fill="#0D9F90" id="ECT1" d="m430 189-8 1v-9.5c1.251-2.502 4-4.49 4-7.5h1l4 2c0 2.229-1.986 2.471-3 4.5-1.752 3.503 2 6.921 2 9.5Z"/><path fill="#FF6F80" id="TH" d="M271 175h2l-1-1-1 1ZM300 176c-3.083 0-5.545 3-9 3l4-3 5-2v2ZM311 174l-2 1 2-1ZM153 179h1l-3-3-3-1 4 3 1 1ZM309 175l-2 1 2-1Z"/><path fill="#CACCC8" id="ml" d="M185 184c0 1.007 2 1.422 2 5-9.371 0-18.931-6-24-6l-9-4-3-3h5l13 5h1c0 2.768 12.447 3 15 3Z"/><path fill="#FE8082" id="VPMpc" d="M185 176h14.5c4.274 2.137-7.804 4-9.5 4 0-1.297-5-2.084-5-4ZM271 176c-2.059 0-16-1.1-16 1.5 0 1.21 10.92 2.5 12 2.5l4-4Z"/><path fill="#CACCC8" id="ml" d="M272 184c0 2.4-2-1.846-2 5 8.71 0 17.445-6 23-6l6-2 2-1 1-1h1l1-1 1-1v-1h-5c-3.083 0-5.545 3-9 3l-2 1-2 1h-1c0 2.832-11.461 3-14 3Z"/><path fill="#FF6F80" id="TH" d="M305 177h1l1-1h-2v1Z"/><path fill="#FD8F9E" id="SubG" d="M126 187h5c0-3.651-5-7.045-5-10l-5 1c0 3.541 5 6.151 5 9Z"/><path fill="#FF6F80" id="TH" d="M304 178h1v-1l-1 1Z"/><path fill="#E64438" id="HY" d="m306 177-1 1v-1h1Z"/><path fill="#FD8F9E" id="SubG" d="M325 187h5c0-1.298 5-4.619 5-9 0-1.643-3.765-1-5-1l-5 10Z"/><path fill="#E64438" id="HY" d="m152 178 1 1-1-1ZM304 178l-1 1 1-1ZM163 183v2c-1.654 0-9-4.228-9-6l9 4Z"/><path fill="#FF7F84" id="SPFm" d="M214 194h1l5-1 1-1v-3l-1-4c0-2.364-3-3.053-3-5-5.801 0-10-1.379-10 7v1l1 1c0 1.726 4.558 5 6 5ZM237 193l5 1c3.021 0 7-3.854 7-7 0-8.989-3.669-7-10-7l-3 5c0 1.145.579 4-1 4l2 4Z"/><path fill="#FF6F80" id="TH" d="m291 179-2 1 2-1Z"/><path fill="#E64438" id="HY" d="m302 179-1 1 1-1Z"/><path fill="#CAC7CB" id="fiber tracts" d="M343 179c-1.995 0-2 4.377-2 6 1.995 0 2-4.377 2-6Z"/><path fill="#90EB8D" id="LA" d="m79 229 1 2 3.5-6c4.123-2.062 8.606-6 13.5-6h7c0-5.485-11-10.048-11-16-3.634 0-13.29-23-21-23l-1 2v1c0 15.487 8 26.697 8 40v6Z"/><path fill="#FF6F80" id="TH" d="m289 180-2 1 2-1Z"/><path fill="#E64438" id="HY" d="m301 180-2 1 2-1Z"/><path fill="#90EB8D" id="LA" d="m377 230-1 2c0-6.967-10.835-13-17-13-1.564 0-3.876-1-6-1 0-2.33 4-3.227 4-6 1.577 0 2-1.762 2-3l5-6 5-7.5c2.166-4.332 11.698-15.5 16-15.5l1 2c0 15.708-8 26.727-8 42 0 1.564-1 3.876-1 6Z"/><path fill="#E64438" id="HY" d="m293 183 1 2 5-4-6 2Z"/><path fill="#C8C9CB" id="amc" d="m79 223-2 1c0-6.88-1.142-14.784-4-20.5L68 193l-1-10 3-1 1 1c0 15.487 8 26.697 8 40Z"/><path fill="#8AD987" id="CTXsp" d="M71 182v1l-1-1h1Z"/><path fill="#C8C9CB" id="amc" d="M378 224h1c0-7.878 2.672-17.844 6-24.5.895-1.79 3-3.403 3-5.5l1-2v-9l-2-1h-1c0 15.708-8 26.727-8 42Z"/><path fill="#F24739" id="FF" d="m180 207 5.5 3c2.364 1.182 5.696-1 7.5-1 0-2.197 1.346-5.808 0-8.5l-6-11.5c-9.371 0-18.931-6-24-6v2c0 1.892 16 12.808 16 20l1 1v1Z"/><path fill="#FF64FF" id="MB" d="m208 216-3 5c-12.491 0-12 .386-12-12 0-2.197 1.346-5.808 0-8.5l-6-11.5c0-3.578-2-3.993-2-5l17.5-1 4.5 4v1l1 1c0 1.726 4.558 5 6 5v1c-7.284 0-2 12.786-2 16-1.712 0-3 2.571-3 4l-1 1ZM249 217c2.109 0 2 2.535 2 4 12.174 0 13 1.004 13-12-1.684 0-1-4.679-1-6 0-2.243 4.179-14 7-14 0-6.846 2-2.6 2-5l-17.5-1-5.5 4c0 3.146-3.979 7-7 7 0 .652 3.297 2.095 4 3.5 2.167 4.334-2 9.839-2 13.5 2.098 0 3 1.939 3 4 1.747 0 2 .253 2 2Z"/><path fill="#F24739" id="FF" d="M277 206c-1.186 0-5.192 3.346-6.5 4-2.161 1.081-4.894-1-6.5-1-1.684 0-1-4.679-1-6 0-2.243 4.179-14 7-14 8.71 0 17.445-6 23-6l1 2c-4.412 0-17 17.132-17 21Z"/><path fill="#FF6F80" id="TH" d="m223 187-2 2-1-4 3 2ZM233 187l2 2c1.579 0 1-2.855 1-4-1.481 0-.785 2-3 2Z"/><path fill="#CAC7CB" id="fiber tracts" d="M341 185c-1.995 0-2 4.377-2 6 1.995 0 2-4.377 2-6Z"/><path fill="#FF64FF" id="MB" d="M172 243h3l2-4c0-5.014-4-7.902-4-12-3.419 0-19-16.875-19-19l-11-13-12-8h-5v3c1.423 0 3.544-1.978 5.5-1 9.286 4.643 8.336 15.172 12.5 23.5 5.376 10.753 16.624 14.062 25.5 18.5 6.952 3.476 2.5 7.744 2.5 12ZM324 189h6v-2h-5l-1 2Z"/><path fill="#A9AAA8" id="chpl" d="M95 188c0 10.192 1.39 12.279 6 21.5 3.252 6.503 13.128 9.255 16 15 1.458 2.915 13.686 7.628 16 3 1.832-3.665-5.242-9.242-7.5-11.5l-22-20c-2.123-2.123-6.19-8-8.5-8Z"/><path fill="#FF6F80" id="TH" d="m207 188 1 1-1-1Z"/><path fill="#A9AAA8" id="chpl" d="M360 188c0 2.268-4.36 4.221-5 5.5-1.585 3.171-21.608 21.554-25.5 23.5-3.246 1.623-9.06 9.47-4 12 10.114 5.057 31.895-22.289 35.5-29.5 1.046-2.092 3.709-11.5-1-11.5Z"/><path fill="#0E9584" id="PERI1" d="M35 199c-.706 0-6 1.325-6 2-1.076 0-4.238-12-2-12l7 1c0 3.222 1 6.277 1 9Z"/><path fill="#CCC" d="M170 243h2c0-4.256 4.452-8.524-2.5-12-8.876-4.438-20.124-7.747-25.5-18.5-4.164-8.328-3.214-18.857-12.5-23.5-1.956-.978-4.077 1-5.5 1 0 10.744 8.524 19.548 13 28.5l12 13.5h1l4 3 2 1 1 1h1l2 2h1c1.572 0 7 2.052 7 4Z"/><path fill="#FF64FF" id="MB" d="M281 243h3c0-1.804-2.182-5.136-1-7.5 3.296-6.591 22.424-9.849 28-21l5-10v-7l8-8.5c-4.507 0-8.137 7-12 7l-1 1c0 1.747-.253 2-2 2 0 1.802-4.815 9-7 9 0 2.427-16.339 20-19 20 0 3.669-4 6.547-4 11l2 4Z"/><path fill="#CCC" d="M285 243h2l1-1 2-1 2-1 1-1h1l1-1 2-1h1l1-1 1-1h1l1-1 1-1h1l1-1 1-1h1v-1l2-1c0-1.747.253-2 2-2 0-3.837 6.306-8.111 8-11.5 4.538-9.077 11-15.368 11-26.5h-6l-8 8.5v7l-5 10c-5.576 11.151-24.704 14.409-28 21-1.182 2.364 1 5.696 1 7.5h1Z"/><path fill="#0E9584" id="PERI1" d="m422 199 6 2 2-12-8 1v9Z"/><path fill="#0E9583" id="PERI2/3" d="M35 199h6l8-1c0-1.624-2-2.75-2-5l-1-1c-4.095 0-7.633-2-12-2 0 3.222 1 6.277 1 9Z"/><path fill="#A8A9AA" id="V3" d="M227 195c0 10.888 2 10.888 2 0 0-5.498-2-5.32-2 0Z"/><path fill="#CAC7CB" id="fiber tracts" d="m337 199-4 6c0-2.254 3.816-14 6-14v3l-1 2c-1.473 0-1 1.952-1 3Z"/><path fill="#0E9583" id="PERI2/3" d="M421 199h1v-8c-5.126 0-9.236 2-12 2l-2 5c1.819 0 4.591 1 7 1h6Z"/><path fill="#FF64FF" id="MB" d="M220 193h1v-1l-1 1Z"/><path fill="#E64438" id="HY" d="M221 193h1l-1-1v1Z"/><path fill="#0E9F90" id="ECT6b" d="m389 193-1 1 1-2v1Z"/><path fill="#0F9684" id="PERI5" d="m57 197-8 1c0-1.624-2-2.75-2-5 1.818 0 11 1.6 11 3l-1 1Z"/><path fill="#A0EE9C" id="EPd" d="M76 229c-2.54 0-2.543 3-4 3l-5-8 2 .5c.953-1.905-1.359-2.717-2-4l-3-10c-2.131-4.262 1.118-13.5-3-13.5v-1c0-1.662 4.357-3 6-3h1l5 10.5c2.858 5.716 4 13.62 4 20.5l-1 5Z"/><path fill="#FD4B3C" id="PH" d="M227 233c0-1.919 2-2.488 2 0 4.412 0 9.165-4 13-4 0-1.145-.579-4 1-4v-10l1-4c0-3.661 4.167-9.166 2-13.5-.703-1.405-4-2.848-4-3.5l-5-1h-3c0 .61-3.492 12.484-4 13.5l-1.5 3.5c-2.23 0-1.029-3.558-1.5-4.5l-4-12.5h-3l-5 1-1 1c-7.284 0-2 12.786-2 16 1.473 0 1 1.952 1 3 1.763 0 1 8.343 1 10v3l1 2c0 1.726 10.26 4 12 4Z"/><path fill="#E64438" id="HY" d="M227 195c0 10.888 2 10.888 2 0l5-2c0 .61-3.492 12.484-4 13.5l-1.5 3.5c-2.23 0-1.029-3.558-1.5-4.5l-4-12.5 4 2Z"/><path fill="#A0EE9C" id="EPd" d="M380 229c1.429 0 4 1.288 4 3l5-7c-2.702 0 4-15.327 4-21 0-1.899-.488-8 2-8v-1c-2.439 0-2.666-2-6-2l-1 1c0 2.097-2.105 3.71-3 5.5-3.328 6.656-6 16.622-6 24.5l1 5Z"/><path fill="#0F9684" id="PERI5" d="M407 198h1l2-5c-1.97 0-12 1.671-12 3l1 1c2.707 0 5.903 1 8 1Z"/><path fill="#E64438" id="HY" d="m215 194-1 1v-1h1ZM180 237c0 1.577-1.762 2-3 2 0-5.014-4-7.902-4-12 0-3.271-15.648-19-19-19l-11-13 6.5 5c2.745 1.372 30.5 19.368 30.5 7l5.5 3c2.364 1.182 5.696-1 7.5-1 0 12.386-.491 12 12 12v6l-6-1c0-1.535-4-1.535-4 0l-1 1-2 1c0-6.174-8.599-11-14-11 0-2.969-8.301-7.898-10-4.5l3 4.5c-2.785 0 .649 4.798 1 5.5 2.753 5.507 8 7.837 8 14.5Z"/><path fill="#32B824" id="ENTl6a" d="M399 197c0 1.74-2.274 12-4 12v-14l2 1h1l1 1ZM61 197c0 5.74 2 11.217 2 16-1.986 0-5.242-16-6-16l1-1h3v1Z"/><path fill="#C9C8CA" id="ee" d="M67 223v1l2 .5c.953-1.905-1.359-2.717-2-4l-3-10c-2.131-4.262 1.118-13.5-3-13.5 0 5.74 2 11.217 2 16l1 5 1 1v1l1 1v1l1 1Z"/><path fill="#E64438" id="HY" d="m312 196-1 1 1-1Z"/><path fill="#C9C8CA" id="ee" d="M389 224v1c-2.702 0 4-15.327 4-21 0-1.899-.488-8 2-8v14l-1 2-2 6v1l-1 1v1l-1 1v1l-1 1Z"/><path fill="#31B824" id="ENTl5" d="m64 219-8 1c0-3.6-7-15.665-7-22l8-1c.758 0 4.014 16 6 16l1 5v1Z"/><path fill="#E64438" id="HY" d="m311 197-2 2c1.747 0 2-.253 2-2Z"/><path fill="#31B824" id="ENTl5" d="m393 219 8 1c0-7.319 6-14.092 6-22-2.097 0-5.293-1-8-1 0 1.74-2.274 12-4 12v1l-1 2-2 6 1 1Z"/><path fill="#32B725" id="ENTl3" d="m56 220-8 2-7-23 8-1c0 6.335 7 18.4 7 22ZM401 220l8 2c0-8.02 6-14.939 6-23-2.409 0-5.181-1-7-1h-1c0 7.908-6 14.681-6 22Z"/><path fill="#32B722" id="ENTl1" d="m42 224-3 1c-1.786 0-10-20.468-10-24 0-.675 5.294-2 6-2 0 9.55 7 18.725 7 25Z"/><path fill="#32B825" id="ENTl2" d="m48 222-6 2c0-6.275-7-15.45-7-25h6l7 23Z"/><path fill="#E64438" id="HY" d="m276 237 3 2c0-4.453 4-7.331 4-11 0-2.916 15.365-20 19-20 2.185 0 7-7.198 7-9-3.423 0-32 22.646-32 7-1.186 0-5.192 3.346-6.5 4-2.161 1.081-4.894-1-6.5-1 0 13.004-.826 12-13 12v7c2.16 0 4.167-2 7-2 0-2.118 4-.821 4 1l3 1c0-6.209 8.427-12 14-12 0-2.469 7.789-5.922 9-3.5l-2 4.5c0 5.752-4.701 5.902-7 10.5-.69 1.38-1.55 9.5-3 9.5Z"/><path fill="#32B825" id="ENTl2" d="m409 222 5 2c0-3.564 7-15.024 7-25h-6c0 8.061-6 14.98-6 23Z"/><path fill="#32B722" id="ENTl1" d="m414 224 4 2c0-8.406 10-16.292 10-25l-6-2h-1c0 9.976-7 21.436-7 25Z"/><path fill="#CAC7CB" id="fiber tracts" d="M145 233c-1.464 0-14-3.922-14 1-3.213 0-7.699-1.599-10.5-3-.945-.472-3.5-.156-3.5 1l-4-4-3-3c0-2.274-3.656-6-6-6 0-5.485-11-10.048-11-16h1l4 6.5 17.5 16.5c15.554 7.777 10.377 3 25.5 3l4 4ZM364 203l-5 6 3-6h2Z"/><path fill="#E64438" id="HY" d="m179 205 1 1-1-1Z"/><path fill="#CAC7CB" id="fiber tracts" d="M333 205c-1.577 0-2 1.762-2 3 1.577 0 2-1.762 2-3Z"/><path fill="#F1473B" id="STN" d="M154 208c3.352 0 19 15.729 19 19-3.419 0-19-16.875-19-19ZM302 208c-3.635 0-19 17.084-19 20 2.661 0 19-17.573 19-20Z"/><path fill="#CAC7CB" id="fiber tracts" d="M331 208c-1.577 0-2 1.762-2 3 1.577 0 2-1.762 2-3ZM359 209c-1.577 0-2 1.762-2 3 1.577 0 2-1.762 2-3Z"/><path fill="#32B824" id="ENTl6a" d="m395 210-1 2 1-2Z"/><path fill="#C8C8C8" id="mtg" d="M211 217h1l1-1v-2c0-1.048.473-3-1-3-1.712 0-3 2.571-3 4 1.747 0 2 .253 2 2ZM247 215l-2 1-2-1 1-4c2.098 0 3 1.939 3 4Z"/><path fill="#CCCACB" id="nst" d="M171 217c1.791 0 2.959 3.27 5.5 2l1.5-2c0-2.969-8.301-7.898-10-4.5l3 4.5ZM279 216c0 6.192 4.215 1 7 1l2-4.5c-1.211-2.422-9 1.031-9 3.5Z"/><path fill="#CAC7CB" id="fiber tracts" d="M312 232c3.504 0 8.05-1.725 11.5 0l2.5 2c0-.728 12.336-3 14-3h1l2-2 1-1 1-1 1-2 1-1 5-5 1-1c0-2.33 4-3.227 4-6-4.807 0-15.371 14.435-20.5 17-7.493 3.747-13.484 0-21.5 0l-3 3Z"/><path fill="#E64438" id="HY" d="M212 218c0 .706 1.325 6 2 6 0-1.657.763-10-1-10v2l-1 2Z"/><path fill="#C7C9CC" id="mtt" d="M208 216c0 1.473 1.952 1 3 1 0-1.747-.253-2-2-2l-1 1Z"/><path fill="#FF64FF" id="MB" d="m245 217-1 1-1-1v-2l2 1v1Z"/><path fill="#C7C9CC" id="mtt" d="M245 217h4c0-1.747-.253-2-2-2l-2 1v1Z"/><path fill="#C8CBCA" id="pm" d="M213 229c0 2.109-2.535 2-4 2-2.618 0-1.651-3-4-3v-7l3-5c0 1.473 1.952 1 3 1h1v1c0 .706 1.325 6 2 6v3l-1 2Z"/><path fill="#FF64FF" id="MB" d="M212 217v1l1-2-1 1Z"/><path fill="#F1483A" id="PSTN" d="M265 228c0 4.849 6.686 9 11 9 1.45 0 2.31-8.12 3-9.5 2.299-4.598 7-4.748 7-10.5-2.785 0-7 5.192-7-1-5.573 0-14 5.791-14 12ZM192 228c0 4.6-8.199 9-12 9 0-6.663-5.247-8.993-8-14.5-.351-.702-3.785-5.5-1-5.5 1.791 0 2.959 3.27 5.5 2l1.5-2c5.401 0 14 4.826 14 11Z"/><path fill="#E64438" id="HY" d="m244 218-1 2v-3l1 1Z"/><path fill="#C8CBCA" id="pm" d="m250 230-2 2-4-2-1-5v-5l1-2 1-1h4c2.109 0 2 2.535 2 4v8l-1 1Z"/><path fill="#99D2BD" id="OLF" d="M64 219h1l-1-1v1Z"/><path fill="#9DE79B" id="BLAa" d="M110 227c-2.46 0-4.17 4-7 4-5.958 0-6-8.263-6-12h7c2.344 0 6 3.726 6 6v2Z"/><path fill="#90EB8D" id="LA" d="m353 218-1 1 1-1Z"/><path fill="#9DE79B" id="BLAa" d="M347 227c0 1.69 5.187 4 7 4 5.779 0 5-8.922 5-12-1.564 0-3.876-1-6-1l-1 1-5 5-1 1 1 2Z"/><path fill="#99D2BD" id="OLF" d="M392 219h1l-1-1v1Z"/><path fill="#6ACAB9" id="PIR" d="M81 266c0 7.164-8 13.666-8 19-3.488 0-10.452-10.404-12-13.5-5.573-11.146-22-34.291-22-46.5l3-1 6-2 8-2 8-1h1v1l1 1v1l1 1v1l5 8c0 6.629 2.123 17.746 5 23.5l4 8.5v2Z"/><path fill="#9DE69C" id="BLAp" d="M87 250h2l3-1 3-3.5 8-14.5c-5.958 0-6-8.263-6-12-4.894 0-9.377 3.938-13.5 6l-3.5 6c0 3.97.311 18 6 18l1 1ZM367 250h2l2-1 4-5.5c1.715-3.429 1-8.538 1-11.5 0-6.967-10.835-13-17-13 0 3.078.779 12-5 12 0 1.733 9.446 18 11 18l2 1Z"/><path fill="#99D2BD" id="OLF" d="m392 219-1 1 1-1Z"/><path fill="#6ACAB9" id="PIR" d="M375 265c0 6.415 9 18.012 9 20 2.041 0 8.987-10.487 11-12.5 8.267-8.267 10.849-20.698 16-31 2.003-4.006 7-11.007 7-15.5l-4-2-5-2-8-2-8-1h-1l-1 1v1l-1 1v1l-1 1v1l-5 7c0 8.531-2.407 18.314-6 25.5-.632 1.265-1.278 6.5-3 6.5v1Z"/><path fill="#99D2BD" id="OLF" d="m65 220 1 1-1-1ZM391 221l-1 1 1-1ZM66 222l1 1-1-1Z"/><path fill="#8AD987" id="CTXsp" d="M76 229h3v-6l-2 1-1 5Z"/><path fill="#99D2BD" id="OLF" d="m390 223-1 1 1-1Z"/><path fill="#8AD987" id="CTXsp" d="m347 224-1 1 1-1ZM380 229l-3 1c0-2.124 1-4.436 1-6h1l1 5ZM110 227l3 1-3-3v2Z"/><path fill="#CBCCCB" id="mfb" d="M195 226h4c0-1.535-4-1.535-4 0Z"/><path fill="#E64438" id="HY" d="m242 229 2 1-1-5c-1.579 0-1 2.855-1 4Z"/><path fill="#CBCCCB" id="mfb" d="m258 226 4 1c0-1.821-4-3.118-4-1Z"/><path fill="#8AD987" id="CTXsp" d="M345 227h2l-1-2-1 2Z"/><path fill="#CBCCCB" id="mfb" d="m195 226-1 1 1-1Z"/><path fill="#F2483A" id="LHA" d="M194 249h1l5-4 1-1 1-2 1-1 2-3 1-1 1-2v-2l-2-5v-1l-6-1h-4l-1 1-2 1c0 4.6-8.199 9-12 9 0 1.577-1.762 2-3 2l-2 4v1c0 2.663 1 5.25 1 8 2.454 0 7.523 2.489 10.5 1l7.5-4ZM281 251l-1 1c-2.231 0-6.728 2.386-9.5 1l-7.5-3-2-1-5-4-3-5-4-6v-2l1-2 1-1v-1c2.16 0 4.167-2 7-2l4 1 3 1c0 4.849 6.686 9 11 9l3 2 2 4 1 1-1 7Z"/><path fill="#84E981" id="BMAp" d="m95 265 4 1 5-3c0-4.871 16-16.697 16-23l-1-3v-1l-2-2v-2l-4-4-3-1c-2.46 0-4.17 4-7 4l-8 14.5-3 3.5-1 2 4 14Z"/><path fill="#E64438" id="HY" d="M213 229h2l-1-2-1 2Z"/><path fill="#CAC7CB" id="fiber tracts" d="M311 227c-1.747 0-2 .253-2 2l2-2Z"/><path fill="#8AD987" id="CTXsp" d="m345 227-1 1 1-1Z"/><path fill="#84E981" id="BMAp" d="m362 265-4 1-4-2-1-1h-1c0-5.695-15-16.129-15-23v-3l3-5 1-1 2-2 1-1 1-1h2c0 1.69 5.187 4 7 4 0 1.733 9.446 18 11 18v2c0 4.585-3 8.971-3 14Z"/><path fill="#E64438" id="HY" d="m209 231-2 2-2-5c2.349 0 1.382 3 4 3Z"/><path fill="#8AD987" id="CTXsp" d="m344 228-1 1 1-1Z"/><path fill="#A0ED9D" id="EPv" d="M81 264h2l2-1c0-3.962 1-8.688 1-12v-2c-5.689 0-6-14.03-6-18l-1-2h-3c-2.54 0-2.543 3-4 3 0 6.629 2.123 17.746 5 23.5l4 8.5Z"/><path fill="#FF493D" id="SUM" d="M225 248h7c0-5.969 10.97-12 16-12l1-2v-2h-1l-4-2-2-1c-3.835 0-8.588 4-13 4 0 1.93-1.161 0-2 0-1.74 0-12-2.274-12-4h-2c0 2.109-2.535 2-4 2l-2 2v2l2 1c5.135 0 16 6.611 16 12Z"/><path fill="#E64438" id="HY" d="m251 229-1 1 1-1Z"/><path fill="#CAC7CB" id="fiber tracts" d="m309 229-2 1 2-1Z"/><path fill="#A0ED9D" id="EPv" d="m372 263 3 1c1.722 0 2.368-5.235 3-6.5 3.593-7.186 6-16.969 6-25.5 0-1.712-2.571-3-4-3l-3 1-1 2c0 2.962.715 8.071-1 11.5l-4 5.5v12l1 2Z"/><path fill="#E64438" id="HY" d="M248 232h1l1-2-2 2Z"/><path fill="#C8CBC7" id="st" d="M119 237h5c1.647 0 7-1.268 7-3-3.213 0-7.699-1.599-10.5-3-.945-.472-3.5-.156-3.5 1v2l2 2v1Z"/><path fill="#97EC93" id="PA" d="M104 263c1.574 0 9-.751 9 1l2.5-3c4.797-2.398 9.235-5.617 14-8 9.436-4.718 16.893 9 21.5 9 2.968 0 4.633-4 7-4 0-7.263-9-16.012-9-22l-4-3c-1.464 0-14-3.922-14 1 0 1.732-5.353 3-7 3l-4 3c0 6.303-16 18.129-16 23Z"/><path fill="#C7C8CC" id="alv" d="M158 236v1c-1.063 0-7-4.687-7-2h-2c0-1.137-2.091-4 0-4l2 1h1l4 3 2 1Z"/><path fill="#E64438" id="HY" d="M227 233c.839 0 2 1.93 2 0 0-2.488-2-1.919-2 0Z"/><path fill="#CAC7CB" id="fiber tracts" d="m306 231-1 1 1-1Z"/><path fill="#C7C8CC" id="alv" d="M306 235h2c0-2.343 1.765-4-1-4h-1l-1 1-1 1h-1l-1 1v1c1.137 0 4-2.091 4 0Z"/><path fill="#97EC93" id="PA" d="M343 263h9c0-5.695-15-16.129-15-23l-5-3c-1.738 0-6-.686-6-3l-2.5-2c-3.45-1.725-7.996 0-11.5 0l-1 1-3 2c0 6.297-9 14.698-9 23l7 5 5-5.5c8.635-8.635 18.949-2.775 27.5 1.5 1.19.595 2.317 4 4.5 4Z"/><path fill="#C8CBC7" id="st" d="M332 237h5l3-5v-1c-1.664 0-14 2.272-14 3 0 2.314 4.262 3 6 3Z"/><path fill="#8AD987" id="CTXsp" d="m341 231-1 1v-1h1Z"/><path fill="#CAC7CB" id="fiber tracts" d="m152 232 4 3-4-3ZM305 232l-1 1 1-1ZM312 232l-1 1 1-1ZM303 233l-1 1 1-1Z"/><path fill="#8AD987" id="CTXsp" d="m117 234 2 2-2-2Z"/><path fill="#7ECF49" id="CA3" d="M163 244c0 1.712-2.571 3-4 3-2.003 0-8-9.528-8-12 0-2.687 5.937 2 7 2h1l2 2h2l1 1 1 2-1 1-1 1Z"/><path fill="#E64438" id="HY" d="m248 236 5 4-4-6-1 2Z"/><path fill="#CAC7CB" id="fiber tracts" d="M301 235h1v-1l-1 1Z"/><path fill="#7ECF49" id="CA3" d="m292 243 5 4c2.375 0 8-8.601 8-11l1-1c0-2.091-2.863 0-4 0h-1l-1 1-2 1-1 1h-1l-1 1h-1l-1 1-1 1v2Z"/><path fill="#7DCD4B" id="HPF" d="M161 257c0 .813-3 2.728-3 1 0-7.263-9-16.012-9-22v-1h2c0 2.472 5.997 12 8 12l-1 3c0 2.971 3 4.768 3 7Z"/><path fill="#E64438" id="HY" d="M209 236c0 1.473-1.952 1-3 1l1-2 2 1Z"/><path fill="#CAC7CB" id="fiber tracts" d="M299 236h1v-1l-1 1Z"/><path fill="#C7C8CC" id="alv" d="m301 235-1 1v-1h1ZM306 235l-1 1 1-1Z"/><path fill="#7DCD4B" id="HPF" d="M295 257c0 1.579 2.855 1 4 1 0-8.302 9-16.703 9-23h-2l-1 1c0 2.399-5.625 11-8 11l1 4c0 2.915-3 4.651-3 6Z"/><path fill="#CAC7CB" id="fiber tracts" d="M158 237h1l-1-1v1Z"/><path fill="#FC4C3E" id="PMd" d="M216 257h1c0-.094 6.991-6 7-6l1-3c0-5.389-10.865-12-16-12 0 1.473-1.952 1-3 1l-1 1-2 3-1 1-1 2-1 1-1 4v4c1.457 0 1.46 3 4 3l9.5-1 3.5 2ZM240 257c2.579 0 5.997-3.752 9.5-2l4.5 2c0-1.457 3-1.46 3-4v-4l-1-4-3-5-5-4c-5.03 0-16 6.031-16 12v3l8 6Z"/><path fill="#C7C8CC" id="alv" d="m300 236-2 1 1-1h1Z"/><path fill="#8AD987" id="CTXsp" d="m124 237-4 3-1-3h5Z"/><path fill="#C7C8CC" id="alv" d="m160 237 1 2-2-2h1Z"/><path fill="#CAC7CB" id="fiber tracts" d="M161 239h1l-2-2 1 2Z"/><path fill="#E64438" id="HY" d="m206 237-1 1 1-1Z"/><path fill="#CAC7CB" id="fiber tracts" d="M296 238h1v-1l-2 1h1Z"/><path fill="#C7C8CC" id="alv" d="m298 237-1 1v-1h1Z"/><path fill="#8AD987" id="CTXsp" d="M337 237v3l-5-3h5Z"/><path fill="#CAC7CB" id="fiber tracts" d="M294 239h1v-1l-1 1Z"/><path fill="#C7C8CC" id="alv" d="m296 238-1 1v-1h1Z"/><path fill="#CAC7CB" id="fiber tracts" d="m167 242 3 1c0-1.948-5.428-4-7-4l1 1 2 1 1 1ZM292 240h1v-1l-1 1Z"/><path fill="#C7C8CC" id="alv" d="m294 239-1 1v-1h1ZM165 242h1v-1l-2-1 1 2Z"/><path fill="#CAC7CB" id="fiber tracts" d="M290 241h2v-1l-2 1Z"/><path fill="#C7C8CC" id="alv" d="m293 240-1 1v-1h1Z"/><path fill="#7DCD4B" id="HPF" d="M166 242h1l-1-1v1Z"/><path fill="#E64438" id="HY" d="m203 241-1 1 1-1Z"/><path fill="#CAC7CB" id="fiber tracts" d="M289 242h1v-1l-2 1h1Z"/><path fill="#C7C8CC" id="alv" d="M291 242h1v-1h-2v1h1Z"/><path fill="#65A83D" id="DG-sg" d="m159 247-1 3c3.171 0 9-2.868 9-8h-2l-1 1-1 1c0 1.712-2.571 3-4 3Z"/><path fill="#7BD04A" id="DG-mo" d="M161 257h1c0-1.473 1.952-1 3-1l1-1h1l1-1 1-1 1-1 2-3.5-2-5.5-3-1c0 5.132-5.829 8-9 8 0 2.971 3 4.768 3 7Z"/><path fill="#CAC7CB" id="fiber tracts" d="m288 242-1 1 1-1Z"/><path fill="#7BD04A" id="DG-mo" d="M294 257h1c0-1.349 3-3.085 3-6-3.321 0-9-5.795-9-9h-1l-1 1c0 1.34-5.443 10 1 10l1 1 1 1 1 1h1l2 1Z"/><path fill="#65A83D" id="DG-sg" d="m297 247 1 4c-3.321 0-9-5.795-9-9h2l1 1 5 4Z"/><path fill="#7DCD4B" id="HPF" d="M292 242v1l-1-1h1Z"/><path fill="#7ECE4A" id="DG-po" d="m164 243-1 1 1-1Z"/><path fill="#CAC7CB" id="fiber tracts" d="M175 243v1c-1.048 0-3 .473-3-1h3ZM285 243c0 1.473-1.952 1-3 1l-1-1h4Z"/><path fill="#E64438" id="HY" d="m201 244-1 1 1-1ZM195 249h4l1-4-5 4ZM257 249h4l-5-4 1 4ZM226 254c3.598 0 4.708 1 5 1 0-1.145-.579-4 1-4v-3h-7l-1 3c1.577 0 2 1.762 2 3Z"/><path fill="#8AD987" id="CTXsp" d="m87 250-1 1v-2l1 1ZM89 250l2 1 1-2-3 1Z"/><path fill="#E64438" id="HY" d="m180 260 1.5-1c7.903-3.951 4.908 2 10.5 2 0-4.127 11-2.899 11-5-2.54 0-2.543-3-4-3-4.826 0-5 .112-5-4l-7.5 4c-2.977 1.489-8.046-1-10.5-1l4 8Z"/><path fill="#C7C8CA" id="fx" d="M199 249v4c-4.826 0-5 .112-5-4h5ZM263 250c0 4.021-2.575 3-6 3v-4h4l2 1Z"/><path fill="#8AD987" id="CTXsp" d="m367 250-2 1v-2l2 1ZM369 250l2 1v-2l-2 1Z"/><path fill="#9CE79C" id="BLAv" d="m94 268-1 1c-2.418 0-7-2.324-7-5l-1-1c0-3.962 1-8.688 1-12l1-1h2l2 1 4 14v2l-1 1Z"/><path fill="#E64438" id="HY" d="m277 260-5.5-3-6.5 4c0-2.764-8.761-4-11-4 0-1.457 3-1.46 3-4 3.425 0 6 1.021 6-3l7.5 3c2.772 1.386 7.269-1 9.5-1l-3 8Z"/><path fill="#9CE79C" id="BLAv" d="m362 267 1 2c4.045 0 5.458-5 8-5v-13l-2-1h-2l-2 1c0 4.585-3 8.971-3 14v2Z"/><path fill="#FC4C3D" id="TMd" d="m226 265-9 1v-9c0-.094 6.991-6 7-6 1.577 0 2 1.762 2 3v11ZM231 265l8 1c0-3.013 1-6.611 1-9l-8-6c-1.579 0-1 2.855-1 4v10Z"/><path fill="#E64438" id="HY" d="m281 251-1 1 1-1Z"/><path fill="#7DCD4B" id="HPF" d="m170 252-1 1 1-1Z"/><path fill="#60E6B5" id="COApm" d="M113 264c0 9.084 6 17.181 6 23 3.099 0 21.924-15.424 25-18.5l7-6.5c-4.607 0-12.064-13.718-21.5-9-4.765 2.383-9.203 5.602-14 8l-2.5 3Z"/><path fill="#7DCD4B" id="HPF" d="m169 253-1 1 1-1Z"/><path fill="#A8A9AA" id="V3" d="m226 265 1 3.5v3c0 10.278 3.538-6.5 4-6.5v-10c-.292 0-1.402-1-5-1v11Z"/><path fill="#7DCD4B" id="HPF" d="m288 253 1 1-1-1Z"/><path fill="#60E6B5" id="COApm" d="M343 263c0 7.649-.854 15.208-4 21.5l-2 2.5c-4.664 0-18.844-15.172-24.5-18l-6.5-6 5-5.5c8.635-8.635 18.949-2.775 27.5 1.5 1.19.595 2.317 4 4.5 4Z"/><path fill="#7DCD4B" id="HPF" d="m168 254-1 1 1-1ZM166 255l-1 1 1-1Z"/><path fill="#FF4B3B" id="PMv" d="M203 274c1.835 0 4.235 2 7 2 0-4.116 7-5.218 7-10v-8l-1-1-3.5-2-9.5 1c0 2.101-11 .873-11 5 0 5.243 11 9.814 11 13ZM254 274c-2.16 0-4.167 2-7 2l-8-10c0-3.013 1-6.611 1-9 2.579 0 5.997-3.752 9.5-2l4.5 2c2.239 0 11 1.236 11 4l-11 13Z"/><path fill="#7DCD4B" id="HPF" d="m290 255 1 1-1-1ZM165 256c-1.048 0-3-.473-3 1 1.048 0 3 .473 3-1ZM292 256l2 1-2-1Z"/><path fill="#FF4C3E" id="TMv" d="m203 274-1 3c-4.324 0-22-12.171-22-17l1.5-1c7.903-3.951 4.908 2 10.5 2 0 5.243 11 9.814 11 13Z"/><path fill="#E64438" id="HY" d="M217 257v1l-1-1h1Z"/><path fill="#FF4C3E" id="TMv" d="M254 274v3c3.819 0 23-12.238 23-17l-5.5-3-6.5 4-11 13Z"/><path fill="#8AD987" id="CTXsp" d="M371 263h1l-1-2v2Z"/><path fill="#99D2BD" id="OLF" d="M83 264h2v-1l-2 1Z"/><path fill="#8AD987" id="CTXsp" d="M85 264h1l-1-1v1Z"/><path fill="#5FE6B7" id="COApl" d="M91 291v3c14.533 0 12.301 1.599 25.5-5l2.5-2c0-5.819-6-13.916-6-23 0-1.751-7.426-1-9-1l-5 3-2 1-3 6c0 6.408-3 11.512-3 18ZM366 292l-1 2c-9.662 0-17.911 2.589-25.5-5l-2.5-2 2-2.5c3.146-6.292 4-13.851 4-21.5h10l1 1 4 2 1 1 3 4c0 7.503 4 13.826 4 21Z"/><path fill="#97EC93" id="PA" d="m353 263 1 1-1-1Z"/><path fill="#99D2BD" id="OLF" d="M375 264v1l-4-1v-1h1l3 1ZM83 264l-2 2v-2h2Z"/><path fill="#59D9AA" id="PAA" d="m91 291-1 2c-4.768 0-17-2.437-17-8 0-5.334 8-11.836 8-19l2-2h3c0 2.676 4.582 5 7 5l1 4c0 6.408-3 11.512-3 18ZM366 292l1 1c3.895 0 17-2.625 17-8 0-1.988-9-13.585-9-20l-4-1c-2.542 0-3.955 5-8 5l-1 2c0 7.503 4 13.826 4 21Z"/><path fill="#8AD987" id="CTXsp" d="M95 267h2l2-1-4-1v2Z"/><path fill="#FF5447" id="PVp" d="m209 280 8.5 3c1.9.95 20.119-.059 22-1 1.471-.736 7.5.357 7.5-2v-4l-8-10-8-1c-.462 0-4 16.778-4 6.5v-3l-1-3.5-9 1c0 4.782-7 5.884-7 10l-1 4Z"/><path fill="#8AD987" id="CTXsp" d="M359 267h3v-2l-4 1 1 1ZM95 267l-1 1 1-1Z"/><path fill="#99D2BD" id="OLF" d="m93 269 1 4 3-6h-2l-1 1-1 1ZM363 269l-1 2-3-4h3l1 2Z"/><path fill="#E64438" id="HY" d="m202 277 7 3 1-4c-2.765 0-5.165-2-7-2l-1 3ZM254 277l-7 3v-4c2.833 0 4.84-2 7-2v3Z"/><path fill="#F1473A" id="ME" d="M224 288c0 5.975 9 6.733 9 1.5 0-2.393-7.525-1.5-9-1.5Z"/><path fill="#99D2BD" id="OLF" d="m90 293 1 1v-3l-1 2ZM367 293l-2 1 1-2 1 1Z"/></svg>