<svg xmlns="http://www.w3.org/2000/svg" viewBox="0 0 456 320"><path fill="#1BA696" id="RSPagl1" d="M189 13c-5.678 0-10.727 3-16 3v-5l3.5-2H189v4Z"/><path fill="#1BA598" id="RSPd1" d="m219 23-2 1-7.5-7c-6.199-3.1-12.974-4-20.5-4V9c8.651 0 30 2.425 30 14ZM237 23l3 1c0-7.875 20.638-11 27-11l1-4c-11.156 0-23.503.506-29 11.5l-2 2.5Z"/><path fill="#1BA696" id="RSPagl1" d="M267 13c5.678 0 10.727 3 16 3l1-5-3.5-2H268l-1 4Z"/><path fill="#0A8589" id="VISpm1" d="M173 16c-6.488 0-12.823 3-19 3l-1-4 3.5-2c2.331-1.165 13.375-2 16.5-2v5ZM302 19h1v-4c-3.859 0-13.014-4-19-4l-1 5c6.339 0 13.113 3 19 3Z"/><path fill="#1AA496" id="RSPagl2/3" d="M174 22v1l14-4h1v-6c-5.678 0-10.727 3-16 3 0 1.564 1 3.876 1 6Z"/><path fill="#1BA697" id="RSPd2/3" d="m217 25-5 2c-1.171 0-5.428-4.964-7.5-6-4.582-2.29-9.94-2-15.5-2v-6c7.526 0 14.301.9 20.5 4l7.5 7v1ZM244 27h1c0-6.643 17.914-8 23-8 0-2.486-1-3.725-1-6-6.362 0-27 3.125-27 11v1l4 2Z"/><path fill="#1AA496" id="RSPagl2/3" d="m283 22-1 1-14-4c0-2.486-1-3.725-1-6 5.678 0 10.727 3 16 3v6Z"/><path fill="#098589" id="VISp1" d="M85 45c0 1.465-.109 4 2 4 2.706 0 11.45-7.475 14.5-9 10.09-5.045 42.353-21 52.5-21l-1-4c-13.621 0-41.186 13.843-53.5 20L85 45ZM372 46l-3 3-14.5-9c-9.645-4.823-42.015-21-51.5-21v-4c15.886 0 40.533 14.017 54.5 21 2.449 1.225 14.5 6.803 14.5 10Z"/><path fill="#08858B" id="VISpm2/3" d="M174 22c-6.105 0-11.256 6-17 6 0-3.078-3-6.325-3-9 6.177 0 12.512-3 19-3 0 1.564 1 3.876 1 6ZM283 22c5.587 0 10.139 5 16 5 .951 0 3-6.87 3-8-5.887 0-12.661-3-19-3v6Z"/><path fill="#0A828C" id="VISp2/3" d="M91 56h1l15.5-9c6.864-3.432 43.619-19 49.5-19 0-3.078-3-6.325-3-9-10.147 0-42.41 15.955-52.5 21-3.05 1.525-11.794 9-14.5 9v1c0 2.33 4 3.227 4 6Z"/><path fill="#1CA697" id="RSPagl5" d="m185 30-12 5 1-12 14-4c0 4.033-2 5.933-2 10l-1 1Z"/><path fill="#1AA596" id="RSPd5" d="M186 29c5.208 0 12-3.271 12 5 5.145 0 9.097-6 14-6v-1c-1.171 0-5.428-4.964-7.5-6-4.582-2.29-9.94-2-15.5-2h-1c0 4.033-2 5.933-2 10ZM271 29c-4.756 0-13-3.023-13 5-1.891 0-13-4.887-13-7 0-6.643 17.914-8 23-8l3 10Z"/><path fill="#1CA697" id="RSPagl5" d="M272 30c3.648 0 7.682 5 11 5V24l-1-1-14-4 3 10 1 1Z"/><path fill="#0A828C" id="VISp2/3" d="m369 50-4 6-16.5-9c-7.604-3.802-42.563-19-49.5-19v-1c.951 0 3-6.87 3-8h1c9.485 0 41.855 16.177 51.5 21l14.5 9v1Z"/><path fill="#09828B" id="VISpm4" d="m157 28 1 3 16-8v-1c-6.105 0-11.256 6-17 6ZM298 31h1v-4c-5.861 0-10.413-5-16-5l-1 1 1 1 15 7Z"/><path fill="#088489" id="VISpm5" d="m173 35-12 5c0-3.455-3-5.917-3-9l16-8-1 12Z"/><path fill="#1BA597" id="RSPv1" d="m173 70 2 1c4.193 0 6.106-4 10-4l4-2c0-2.55 22.107-10.303 25.5-12 5.31-2.655 6.067-16.635 8.5-21.5.716-1.431-2.954-8.5-4-8.5l-2 1v1c0 17.663-.675 21.587-17.5 30-3.803 1.901-26.5 10.09-26.5 15ZM283 70l-2 1c-6.367 0-13-7.25-18.5-10-5.841-2.92-19.034-3.568-22.5-10.5-2.849-5.699-3.165-12.33-6-18-2.014-4.028 3-6.698 3-9.5l3 1v1c-1.714 0-1 5.594-1 7 0 5.714 1.677 14.588 6.5 17l30 15c2.42 1.21 7.5 2.576 7.5 6Z"/><path fill="#088489" id="VISpm5" d="m283 35 12 5c0-2.675 3-5.922 3-9l-15-7v11Z"/><path fill="#1AA597" id="RSPv2/3" d="m169 66 4 4c0-4.91 22.697-13.099 26.5-15 16.825-8.413 17.5-12.337 17.5-30l-5 2v1c1.643 0 1 3.765 1 5 0 3.692-1.053 10.276-4.5 12-10.157 5.079-20.916 8.958-31 14-3.186 1.593-4.664 7-8.5 7ZM287 67l-4 3c0-3.424-5.08-4.79-7.5-6l-30-15c-4.823-2.412-6.5-11.286-6.5-17 0-1.406-.714-7 1-7l4 2c0 2.618-2.514 7.472-1 10.5 5.038 10.077 16.391 12.945 25.5 17.5 3.406 1.703 18.5 7.66 18.5 12Z"/><path fill="#1BA498" id="RSPv5" d="M290 63c0 1.429-1.288 4-3 4 0-4.34-15.094-10.297-18.5-12-9.109-4.555-20.462-7.423-25.5-17.5-1.514-3.028 1-7.882 1-10.5h1c0 2.113 11.109 7 13 7 0 8.288 19.491 13.992 24.5 19l7.5 10Z"/><path fill="#0B848B" id="VISp4" d="m92 56 3 5 14.5-8c12.194-6.097 25.817-9.908 38-16 2.498-1.25 7.882-6 10.5-6l-1-3c-5.881 0-42.636 15.568-49.5 19L92 56Z"/><path fill="#1AA697" id="RSPd6a" d="m177 41 1 1c6.599 0 12.934-7 20-7v-1c0-8.271-6.792-5-12-5l-1 1-8 11Z"/><path fill="#1BA498" id="RSPv5" d="m166 63 3 3c3.836 0 5.314-5.407 8.5-7 10.084-5.042 20.843-8.921 31-14 3.447-1.724 4.5-8.308 4.5-12 0-1.235.643-5-1-5-4.903 0-8.855 6-14 6v1c0 5.425-19.596 15.548-24.5 18-3.214 1.607-4.062 10-7.5 10Z"/><path fill="#1AA697" id="RSPd6a" d="M278 42h1v-1c0-4.072-7-6.01-7-11l-1-1c-4.756 0-13-3.023-13 5 6.501 0 13.621 8 20 8Z"/><path fill="#0B848B" id="VISp4" d="m365 57-3 4-15.5-8c-11.025-5.512-22.939-9.47-34-15-2.075-1.037-13.5-4.6-13.5-7v-3c6.937 0 41.896 15.198 49.5 19l16.5 9v1Z"/><path fill="#1CA597" id="RSPagl6a" d="M176 41h1l8-11-12 5v6h3ZM280 41h4l-1-6c-3.318 0-7.352-5-11-5 0 4.99 7 6.928 7 11h1Z"/><path fill="#088389" id="VISp5" d="M99 70h1c0-2.837 10.436-5.968 12.5-7 11.512-5.756 23.631-10.315 35-16 4.199-2.1 8.519-6 13.5-6v-1c0-3.455-3-5.917-3-9-2.618 0-8.002 4.75-10.5 6-12.183 6.092-25.806 9.903-38 16L95 61l4 9ZM362 62c-3.018 0-2.618 7-5 7-4.566 0-9.558-5.03-13.5-7-7.27-3.635-42.673-21-48.5-21v-1c0-2.675 3-5.922 3-9h1c0 2.4 11.425 5.963 13.5 7 11.061 5.53 22.975 9.488 34 15l15.5 8v1Z"/><path fill="#1AA498" id="RSPv6a" d="m291 62-1 1-7.5-10c-5.009-5.008-24.5-10.712-24.5-19 6.501 0 13.621 8 20 8 0 1.429 1.288 4 3 4 0 6.05 10 9.074 10 16Z"/><path fill="#09858B" id="VISpm6a" d="m170 43-6 3-3-5v-1l12-5v6l-1 1-2 1Z"/><path fill="#1AA498" id="RSPv6a" d="m165 61 1 2c3.438 0 4.286-8.393 7.5-10 4.904-2.452 24.5-12.575 24.5-18-7.066 0-13.401 7-20 7 0 1.766-.607 5-3 5-1.191 0-10 12.208-10 14Z"/><path fill="#09858B" id="VISpm6a" d="M292 46h1c0-2.25 2-3.376 2-5v-1l-12-5 1 6 8 5Z"/><path fill="#08858C" id="VISp6a" d="M103 75h2c0-2.297 20.837-12 24-12 0-1.637 11.941-6 14-6l21-11-3-5c-4.981 0-9.301 3.9-13.5 6-11.369 5.685-23.488 10.244-35 16-2.064 1.032-12.5 4.163-12.5 7l3 5Z"/><path fill="#1AA598" id="RSPagl6b" d="m176 42-3 1-1-1 1-1h3v1Z"/><path fill="#1BA698" id="RSPd6b" d="m178 42-2 1v-2h1l1 1ZM280 42v1l-1-1v-1h1v1Z"/><path fill="#1AA598" id="RSPagl6b" d="m280 42 4 1v-2h-4v1Z"/><path fill="#088589" id="VISpm6b" d="M292 46v1l-8-4v-2l8 5Z"/><path fill="#08858C" id="VISp6a" d="M353 75h1c0-2.364 3-3.053 3-5v-1c-4.566 0-9.558-5.03-13.5-7-7.27-3.635-42.673-21-48.5-21 0 1.624-2 2.75-2 5l13.5 7c11.131 5.565 22.907 9.454 34 15l12.5 7Z"/><path fill="#088589" id="VISpm6b" d="M170 43h3l-1-1-2 1Z"/><path fill="#CACCC7" id="cing" d="M165 61v1c-4.359 0 4.934-11-1-11l-1-2 1-2c1.417 0 6-2.383 6-4h3l3-1v1l-1 4c-1.191 0-10 12.208-10 14Z"/><path fill="#1AA497" id="RSPv6b" d="m176 43-1 4c2.393 0 3-3.234 3-5l-2 1ZM280 43l1 3c-1.712 0-3-2.571-3-4h1l1 1Z"/><path fill="#CACCC7" id="cing" d="M291 62h1c0-1.61-2.006-12 1-12l1-1-2-2-8-4-4-1v1l1 3c0 6.05 10 9.074 10 16Z"/><path fill="#088589" id="VISpm6b" d="M164 46v1c1.417 0 6-2.383 6-4l-6 3Z"/><path fill="#09848A" id="VISl1" d="m64 64 3 2c7.164 0 12.58-16 20-16v-1c-2.109 0-2-2.535-2-4l-4.5 4C78.504 49.998 64 62.128 64 64Z"/><path fill="#08858A" id="VISp6b" d="m151 55-8 2 21-11v1l-1 2c-2.043 0-12 3.868-12 6ZM352 76h1v-1l-12.5-7c-11.093-5.546-22.869-9.435-34-15L293 46h-1v1l2 2c2.043 0 12 3.868 12 6 3.219 0 5.108 3 8 3l1 1c7.643 0 32.942 17 37 17Z"/><path fill="#09848A" id="VISl1" d="M389 67h1l2-4c-2.428 0-15.828-17-20-17l-3 3v1c1.941 0 20 14.813 20 17Z"/><path fill="#C9C9CA" id="scwm" d="M151 55v1c4.692 0 8.159-5 13-5l-1-2c-2.043 0-12 3.868-12 6ZM306 55l-1 1-12-6 1-1c2.043 0 12 3.868 12 6Z"/><path fill="#0A8489" id="VISl2/3" d="m67 67 5 5 19-16c0-2.773-4-3.67-4-6-7.42 0-12.836 16-20 16v1Z"/><path fill="#C8C9CA" id="fp" d="M396 143h1l1-1c0-7.447-5.845-14.191-9-20.5-10.204-20.408-27.991-38.245-48.5-48.5-8.542-4.27-17.404-7.702-26-12-2.008-1.004-9.5-1.343-9.5-5l-12-6c-3.006 0-1 10.39-1 12 0 2.1.906 9 4 9 0-1.804-2.182-5.135-1-7.5 3.932-7.865 12.528-.986 17.5 1.5 3.441 1.72 15.5 3.018 15.5 8 2.338 0 13 3.184 13 6h1c1.238 0 3 .423 3 2h1c2.016 0 11 5.45 11 8h1l2 2h1c1.702 0 6 4.802 6 6h1l5 5 1 1 1 1v1c1.59 0 6 5.662 6 7v1c2.7 0 12 17.503 12 20v1l2 4v1c1.473 0 1 1.952 1 3v1Z"/><path fill="#0A8489" id="VISl2/3" d="m389 67-5 5c-3.917 0-13.234-15-19-15v-1l4-6c1.941 0 20 14.813 20 17Z"/><path fill="#C8C9CA" id="fp" d="M59 143h1l1-2v-2l1-2 1-2v-1l1-2 1-2v-1l1-1v-1l1-1v-1l1-1 1-1v-1c0-1.238.423-3 2-3l1-2 1-1v-1l1-1 1-1c0-1.238.423-3 2-3l1-1 1-2 2-2 1-1 1-1 1-1 1-1c0-1.747.253-2 2-2l1-1 1-1 1-1 1-1 2-2h1l1-1 1-1 1-1 2-1 1-1 1-1 2-1 1-1h1l1-1 1-1 2-1 2-1 2-1 2-1c0-2.109 2.535-2 4-2l2-1 2-1h1c0-2.109 2.535-2 4-2 0-4.12 7.708-4.604 10.5-6 10.116-5.058 22.5-15.142 22.5 4 2.053 0 4-7.351 4-9-4.359 0 4.934-11-1-11-4.841 0-8.308 5-13 5 0 4.255-10.416 5.458-13.5 7-8.565 4.282-17.478 7.74-26 12l-20 14c-7.437 3.718-19.031 21.563-22.5 28.5-1.48 2.959-8 13.588-8 13.5l-1 1c3.007 0-1 6.644-1 4l-1 1c1.684 0 1 4.679 1 6Z"/><path fill="#CBC9C7" id="or" d="M61 129v2c0 .088 6.52-10.541 8-13.5 3.469-6.937 15.063-24.782 22.5-28.5l20-14c8.522-4.26 17.435-7.718 26-12 3.084-1.542 13.5-2.745 13.5-7v-1l-8 2c0 2.673-11.46 6-14 6 0 2.203-4.189 2.344-5.5 3L105 75l-2 2c-4.237 0-7.487 8-12 8 0 1.747-.253 2-2 2 0 1.747-.253 2-2 2 0 .857-6.22 8-7 8h-1c0 3.587-6 5.655-6 9 1.186 0 1.186 1 0 1 0 1.417-2.383 6-4 6v2l-1 1-1 2-1 1v1l-1 1v1l-1 1-1 1v2l-1 1-1 2Z"/><path fill="#FF7AFD" id="SCzo" d="M291 86v1l-2-1c0-5.53-10.801-12.65-15.5-15-14.933-7.466-43.5-26.747-43.5 5 0 1.348-3 3.216-3 1 0-2.097-1-5.293-1-8 0-24.734-33.022 0-41 0v-2c1.465 0 4 .109 4-2 5.758 0 23.143-12.178 27.5-10 2.653 1.326 6.85 2.2 8.5 5.5l3.5 6.5.5-3.5c1.578-3.156 9.888-10.306 13.5-8.5 9.021 4.51 18.932 7.466 28 12l11.5 8 1 1 1 1 3 3 2 2v1l2 2v1Z"/><path fill="#CBC9C7" id="or" d="M398 142c0 2.389.541 10 3 10 0-5.345-2-10.613-2-15l-2-4-2-4v-1l-1-1-2-5-1-1v-1l-1-1-1-2-1-1c0-3.759-5-5.874-5-10l-7-10-7-7-16-12-1-1c-4.058 0-29.357-17-37-17l-1-1c-2.892 0-4.781-3-8-3l-1 1c0 3.657 7.492 3.996 9.5 5 8.596 4.298 17.458 7.73 26 12 20.509 10.255 38.296 28.092 48.5 48.5 3.155 6.309 9 13.053 9 20.5Z"/><path fill="#08828B" id="VISl4" d="M75 76h1c0-1.97 17.533-15 19-15l-3-5h-1L72 72v1l3 3Z"/><path fill="#08858A" id="VISp6b" d="M143 57c-2.059 0-14 4.363-14 6 2.54 0 14-3.327 14-6Z"/><path fill="#08828B" id="VISl4" d="m384 73-3 2c-3.899 0-12.383-13-19-13v-1l3-4c5.766 0 15.083 15 19 15v1Z"/><path fill="#FF78FF" id="SCsg" d="M227 77c-4.579 0-5.489-13.005-13.5-9-9.924 4.962-22.055 6.027-32 11-4.199 2.1-8.519 6-13.5 6 0-6.029 17-13.651 17-16 7.978 0 41-24.734 41 0 0 2.707 1 5.903 1 8ZM230 76c4.347 0 6.273-11.613 13.5-8 9.673 4.837 21.301 6.15 31 11 3.867 1.933 10.165 7 14.5 7 0-5.53-10.801-12.65-15.5-15-14.933-7.466-43.5-26.747-43.5 5Z"/><path fill="#C9C9CA" id="scwm" d="m314 58 1 1-1-1Z"/><path fill="#C9CCC9" id="dhc" d="M153 75h2l1-1h1l1-1 3-2c0-19.142-12.384-9.058-22.5-4-2.792 1.396-10.5 1.88-10.5 6 1.488 0 11-2.505 11 0h1c1.145 0 4-.58 4 1h2l1 1h6ZM312 74c-2.723 0-5.778 1-9 1l-3-1-3-2-1-1c0-1.804-2.182-5.135-1-7.5 3.932-7.865 12.528-.986 17.5 1.5 3.441 1.72 15.5 3.018 15.5 8-1.488 0-11-2.505-11 0h-1c-1.145 0-4-.58-4 1Z"/><path fill="#0B858B" id="VISl5" d="M82 83h1c0-2.366 16-12.455 16-13l-4-9c-1.467 0-19 13.03-19 15l6 7Z"/><path fill="#47C83C" id="POST" d="M142 99h7l1-1c5.787 0 11.324-12 15-12l1-1c0-2.33 6.59-10 8-10l1-1v-3l-2-1-4-4-3-3-1-2v1c0 1.649-1.947 9-4 9l-3 2-1 1h-1l-1 1v1c0 7.788-1.366 10.232-5 17.5-1.133 2.265-8 4.563-8 5.5ZM308 99h6c0-1.154-5.943-2.386-7-4.5-2.093-4.186-7-11.223-7-16l2-2.5-2-2-3-2-1-1c-3.094 0-4-6.9-4-9h-1l-1 1c0 1.429-1.288 4-3 4l-4 3-2 1 1 4 1 1 1 1 3 3 2 2v1l2 2v1l9 8.5 6 3.5 2 1Z"/><path fill="#0B858B" id="VISl5" d="M374 83h1c0-3.203 6-4.838 6-7v-1c-3.899 0-12.383-13-19-13-3.018 0-2.618 7-5 7v1c4.318 0 14.251 13 17 13Z"/><path fill="#08858A" id="VISp6b" d="M129 63c-3.163 0-24 9.703-24 12l18.5-9c1.311-.656 5.5-.797 5.5-3Z"/><path fill="#0C858C" id="VISli1" d="M396 76h1c0-1.429 1.288-4 3-4l-8-9-2 4c0 3.726 6 5.376 6 9ZM59 76h1l7-9v-1l-3-2-7 8 2 4Z"/><path fill="#0A858A" id="VISli2/3" d="M60 76c0 1.533 3.753 4 5 4l7-7v-1l-5-5-7 9ZM391 81h1l4-5c0-3.624-6-5.274-6-9h-1l-5 5v1c1.455 0 7 6.64 7 8Z"/><path fill="#FD7AFF" id="SCop" d="m165 91 13.5-6c9.079-4.54 19.942-5.471 29-10 7.614-3.807 11.825 4.413 17 7l3-2 4 2 8-7c3.52-1.76 10.36.68 13 2h4c6.979 3.49 15.081 4.54 22 8l12.5 6v-4l-2-1c-4.335 0-10.633-5.067-14.5-7-9.699-4.85-21.327-6.163-31-11-7.227-3.613-9.153 8-13.5 8 0 1.348-3 3.216-3 1-4.579 0-5.489-13.005-13.5-9-9.924 4.962-22.055 6.027-32 11-4.199 2.1-8.519 6-13.5 6l-1 1-1 1-1 2v2Z"/><path fill="#FF7AFD" id="SCzo" d="m167 86-1 1v-2c0-2.33 6.59-10 8-10l1-1c3.356 0 5.985-5 10-5 0 2.349-17 9.971-17 16l-1 1Z"/><path fill="#08848C" id="VISl6a" d="M86 88h1l2-1c0-1.747.253-2 2-2 0-2.734 9.675-9 12-9v-1l-3-5h-1c0 .545-16 10.634-16 13 0 2.364 3 3.053 3 5ZM374 83l-4 5-16-13c0-2.364 3-3.053 3-5 4.318 0 14.251 13 17 13Z"/><path fill="#7DCD4B" id="HPF" d="m296 71 1 1-1-1Z"/><path fill="#15B0B3" id="TEa1" d="m47 84 3 3c1.374 0 9-8.518 9-11l-2-4c-2.239 0-10 9.886-10 12Z"/><path fill="#C7C8CC" id="alv" d="M124 75h4c0-1.68 9.076-2 11-2 0-2.505-9.512 0-11 0-1.465 0-4-.109-4 2ZM339 78l2 1c0-2.816-10.662-6-13-6-1.488 0-11-2.505-11 0 2.083 0 12 .142 12 2 3.947 0 6.628 3 10 3Z"/><path fill="#15B0B3" id="TEa1" d="M409 83c0 1.717-1.252 4-3 4l-9-11c0-1.429 1.288-4 3-4l9 11Z"/><path fill="#08828C" id="VISli4" d="m65 82 3 1 7-7-3-3-7 7v2Z"/><path fill="#4FC244" id="SUB" d="M133 99h9c0-.937 6.867-3.235 8-5.5 3.634-7.268 5-9.712 5-17.5l-2-1h-6l-1-1h-2c-1.145 0-4 .58-4-1h-1c-1.924 0-11 .32-11 2 0 7.966 5 17.738 5 24Z"/><path fill="#C7C8CC" id="alv" d="M140 73c1.145 0 4-.58 4 1-1.145 0-4 .58-4-1Z"/><path fill="#7DCD4B" id="HPF" d="m158 73-1 1 1-1Z"/><path fill="#C7C8CC" id="alv" d="M316 73c-1.145 0-4-.58-4 1 1.145 0 4 .58 4-1Z"/><path fill="#4FC244" id="SUB" d="M314 99h9c2.273 0 2-5.226 2-7 0-5.136 4-11.539 4-17 0-1.858-9.917-2-12-2h-1c0 1.58-2.855 1-4 1-2.723 0-5.778 1-9 1l-1 1-2 2.5c0 4.777 4.907 11.814 7 16 1.057 2.114 7 3.346 7 4.5Z"/><path fill="#08828C" id="VISli4" d="m391 81-2 2-8-7v-1l3-2c1.455 0 7 6.64 7 8Z"/><path fill="#C7C8CC" id="alv" d="m146 74 1 1-1-1Z"/><path fill="#7DCD4B" id="HPF" d="m156 74-1 1 1-1ZM303 75l-1 1-2-2 3 1Z"/><path fill="#08858A" id="VISp6b" d="M103 76v1l2-2h-2v1Z"/><path fill="#C7C8CC" id="alv" d="m123 75-2 1 2-1Z"/><path fill="#57B947" id="ProS" d="m133 99-10 5c0-6.457-4-12.298-4-19 0-.986-1.087-6-2-6l2-2 2-1 2-1h5c0 7.966 5 17.738 5 24Z"/><path fill="#7DCD4B" id="HPF" d="M155 75v1l-2-1h2Z"/><path fill="#FF90FF" id="SCig" d="M158 132c0-15.732 15.793-28.647 28.5-35 6.206-3.103 11.852-6.926 18-10 6.071-3.035 21.442 5.279 22 5 2.214-1.107 3.028.986 5 0 4.673-2.336 13.47-8.265 20-5 17.983 8.991 46.5 21.02 46.5 45 0 1.37 4.457 1.586 5 .5l3-5.5v-4l1-1v-5l-1-1c0-4.427-4-8.302-4-12l-1-1v-1l-1-1-1-2-1-1-1-2-6-5-12.5-6c-6.919-3.46-15.021-4.51-22-8h-4c-2.64-1.32-9.48-3.76-13-2l-8 7-4-2-3 2c-5.175-2.587-9.386-10.807-17-7-9.058 4.529-19.921 5.46-29 10L165 91l-2 2h-1l-1 1-2 3-1 1-1 1-1 3-1 1v1l-1 1-1 1c0 2.885-2 4.697-2 8l-1 1v8l1 5c0 2.694 7 7.266 7 4Z"/><path fill="#57B947" id="ProS" d="m323 99 10 5c0-7 6-18.11 6-26-3.372 0-6.053-3-10-3 0 5.461-4 11.864-4 17 0 1.774.273 7-2 7Z"/><path fill="#09858C" id="VISl6b" d="M369 89h1v-1l-16-13h-1v2l16 12Z"/><path fill="#16AFB3" id="TEa2/3" d="m50 89 4 5 11-12v-2c-1.247 0-5-2.467-5-4h-1c0 2.482-7.626 11-9 11v2Z"/><path fill="#0A848A" id="VISli5" d="M75 91h1c0-3.517 6-4.95 6-8l-6-7h-1l-7 7v1c1.167 0 7 5.234 7 7Z"/><path fill="#09858C" id="VISl6b" d="M103 77c-4.237 0-7.487 8-12 8 0-2.734 9.675-9 12-9v1Z"/><path fill="#C7C8CC" id="alv" d="m121 76-2 1 2-1Z"/><path fill="#C9C9CA" id="scwm" d="M353 76v1l-1-1h1Z"/><path fill="#0A848A" id="VISli5" d="M381 91h1c0-1.95 5.162-7 7-7v-1l-8-7c0 2.162-6 3.797-6 7 0 2.956 6 4.814 6 8Z"/><path fill="#16AFB3" id="TEa2/3" d="M402 95h1c0-3.827 3-3.959 3-7v-1l-9-11h-1l-4 5c0 5.22 10 8.74 10 14Z"/><path fill="#C7C8CC" id="alv" d="M115 79h2l2-2c-1.465 0-4-.109-4 2Z"/><path fill="#7ECF4B" id="CA1" d="M344 241h1l4-2h1l2-1 1-1h1l1-1 2-1c0-1.577 1.762-2 3-2 0-1.577 1.762-2 3-2l1-1 1-1c0-1.577 1.762-2 3-2l1-1 1-1 1-1 1-1 1-1 1-1c0-1.429 1.288-4 3-4 0-1.429 1.288-4 3-4l1-1c0-1.238.423-3 2-3 0-1.465-.109-4 2-4l1-2 1-2c0-1.238.423-3 2-3v-1l2-4 2-4c0-2.029 2.051-12 4-12v-32l-1-2v-1c-1.473 0-1-1.952-1-3v-1l-2-4v-1l-3-4.5c-.989-1.978-9-14.796-9-15.5v-1c-1.59 0-6-5.662-6-7v-1l-1-1-1-1-5-5h-1c-1.702 0-6-4.802-6-6h-1l-2-2h-1c-1.313 0-11-6.968-11-8h-1l-3-2h-1l-2-1c0 7.89-6 19-6 26l17.5 13c8.356 4.178 24.046 38.407 18.5 49.5-1.229 2.457-.832 5.664-2 8-5.762 11.523-12.162 22.162-21 31-3.89 3.89-20 19.927-20 22.5 0 2.591 15.738 13 18 13Z"/><path fill="#C7C8CC" id="alv" d="m115 79-2 1 2-1Z"/><path fill="#7ECF4B" id="CA1" d="M112 241h1c5.16 0 14.746-12 18-12 0-6.647-14.695-13.89-18-20.5-3.385-6.77-13.681-13.362-18-22-3.637-7.273-4.415-15.83-8-23-6.217-12.435 13.212-40.212 21.5-48.5l14.5-11c0-6.457-4-12.298-4-19 0-.986-1.087-6-2-6h-2l-2 1-2 1-2 1-2 1-1 1-1 1h-1l-1 1-2 1-1 1-1 1-2 1-1 1-1 1-1 1h-1c0 1.747-.253 2-2 2l-1 1-1 1-1 1-1 1-2 2-1 1-1 1-1 1-1 1c0 1.747-.253 2-2 2l-1 2-1 1c0 1.238-.423 3-2 3l-1 1-1 1v1l-1 1-1 2c0 1.238-.423 3-2 3v1l-1 1-1 1v1l-1 1v1l-1 1v1l-1 2-1 2v1l-1 2-1 2v2c0 1.048.473 3-1 3 0 1.048.473 3-1 3v4c0 26.754 2.952 34.403 14 56.5 3.615 7.23 9.433 12.433 15.5 18.5l7.5 7h1l2 2h1l2 2h1c1.238 0 3 .423 3 2h1l4 2h1Z"/><path fill="#C7C8CC" id="alv" d="M342 79c1.238 0 3 .423 3 2l-3-2ZM113 80l-2 1 2-1ZM111 81l-2 1 2-1ZM346 81c2.016 0 11 5.45 11 8-1.313 0-11-6.968-11-8Z"/><path fill="#15B0B2" id="TEa4" d="m402 95-3 3-10-14v-1l2-2h1c0 5.22 10 8.74 10 14ZM54 95l3 3 11-14v-1l-3-1-11 12v1Z"/><path fill="#C7C8CC" id="alv" d="m109 82-2 1 2-1Z"/><path fill="#088488" id="VISli6a" d="M79 95h1l6-7c0-1.947-3-2.636-3-5h-1c0 3.05-6 4.483-6 8l3 4Z"/><path fill="#C7C8CC" id="alv" d="m107 83-1 1 1-1Z"/><path fill="#088488" id="VISli6a" d="m381 91-4 4-7-6v-1l4-5h1c0 2.956 6 4.814 6 8Z"/><path fill="#039299" id="AUDpo1" d="M419 107h1l2-3c0-2.161-11.989-21-13-21 0 1.717-1.252 4-3 4v1c1.58 0 11.851 19 13 19ZM37 108h1c0-2.034 10.535-19 12-19v-2l-3-3-4 4.5-9 15.5 3 3v1Z"/><path fill="#15AFB3" id="TEa5" d="m57 99 6 8 12-16c0-1.766-5.833-7-7-7L57 98c1.186 0 1.186 1 0 1Z"/><path fill="#C7C8CC" id="alv" d="m106 84-1 1 1-1Z"/><path fill="#15AFB3" id="TEa5" d="M393 108h1c0-3.712 5-5.653 5-9v-1l-10-14c-1.838 0-7 5.05-7 7 0 6.243 11 10.636 11 17Z"/><path fill="#09858C" id="VISl6b" d="M91 85c-1.747 0-2 .253-2 2 1.747 0 2-.253 2-2Z"/><path fill="#C7C8CC" id="alv" d="m104 85-1 1 1-1Z"/><path fill="#FF78FF" id="SCsg" d="m168 85-1 1 1-1Z"/><path fill="#C7C8CC" id="alv" d="m103 86-2 1 2-1Z"/><path fill="#FF64FF" id="MB" d="m166 87-1 2v-3h1v1Z"/><path fill="#09858C" id="VISl6b" d="M87 88v1c1.747 0 2-.253 2-2l-2 1Z"/><path fill="#C7C8CC" id="alv" d="m101 87-1 1 1-1Z"/><path fill="#FF90FE" id="SCiw" d="M158 132c0-15.732 15.793-28.647 28.5-35 6.206-3.103 11.852-6.926 18-10 6.071-3.035 21.442 5.279 22 5 2.214-1.107 3.028.986 5 0 4.673-2.336 13.47-8.265 20-5 17.983 8.991 46.5 21.02 46.5 45-5.395 0-14.63 6.935-20.5 4-3.265-1.633-8.498-3.497-10.5-7.5l-3-4.5c0-12.617-8.625-24.563-19.5-30-3.885-1.942-10.888 1-14.5 1l-17.5-1c-11.155 5.577-20.5 16.9-20.5 30 0 2.413-3.713 6.106-5.5 7-1.4.7-2.997 2.998-5 4-7.951 3.976-16.035-3-23.5-3Z"/><path fill="#08818B" id="VISli6b" d="M80 95v2c.78 0 7-7.143 7-8v-1h-1l-6 7Z"/><path fill="#C7C8CC" id="alv" d="m100 88-1 1 1-1Z"/><path fill="#FF64FF" id="MB" d="m294 92 3 4-6-5v-3l3 4Z"/><path fill="#029199" id="AUDpo2/3" d="m419 108-6 3-10-16c0-3.827 3-3.959 3-7 1.58 0 11.851 19 13 19v1ZM43 111h1c0-2.055 9.442-16 10-16v-1l-4-5c-1.465 0-12 16.966-12 19l5 3Z"/><path fill="#C7C8CC" id="alv" d="m99 89-2 1 2-1Z"/><path fill="#FF64FF" id="MB" d="m162 92 1 1 2-2v-2l-3 3Z"/><path fill="#C7C8CC" id="alv" d="m358 89 2 2-2-2Z"/><path fill="#08818B" id="VISli6b" d="M376 96h1v-1l-7-6h-1l7 7Z"/><path fill="#C7C8CC" id="alv" d="m97 90-1 1 1-1Z"/><path fill="#15AFB2" id="TEa6a" d="M66 113h1c0-3.196 9.143-16 12-16v-2l-3-4h-1l-12 16v2l3 4Z"/><path fill="#C7C8CC" id="alv" d="m96 91-1 1 1-1ZM361 91c1.702 0 6 4.802 6 6-1.702 0-6-4.802-6-6Z"/><path fill="#15AFB2" id="TEa6a" d="M389 113h1c0-1.947 3-2.636 3-5 0-6.364-11-10.757-11-17h-1l-4 4v1c1.97 0 12 14.784 12 17Z"/><path fill="#C7C8CC" id="alv" d="m95 92-1 1 1-1Z"/><path fill="#C7CBCB" id="bsc" d="M162 93h1l-1-1v1ZM307 123l4 1c3.746 0 0-.8 0-2l-2-2v-3l-1-1v-1l-1-2v-2l-1-2v-1l-1-1-1-3-1-1v-1l-2-2v-1l-2-2v-1l-1-1-4-3 3 4 1 2 1 1 1 2 1 1v1l1 1c0 3.698 4 7.573 4 12l1 1v6Z"/><path fill="#C7C8CC" id="alv" d="m93 93-2 2c1.747 0 2-.253 2-2Z"/><path fill="#C7CBCB" id="bsc" d="M158 97h1l2-3v-1l-3 3v1Z"/><path fill="#FF64FF" id="MB" d="m162 93-1 1v-1h1Z"/><path fill="#FF8FFF" id="SCdg" d="M200 125c0-1.423-1.978-3.544-1-5.5 3.566-7.131 8.974-14.737 16.5-18.5h25c9.395 4.698 16.5 12.922 16.5 24l7-1c0-12.617-8.625-24.563-19.5-30-3.885-1.942-10.888 1-14.5 1l-17.5-1c-11.155 5.577-20.5 16.9-20.5 30l8 1Z"/><path fill="#039298" id="AUDpo4" d="m44 111 3 2 2-2.5c.972-1.945 5.644-11.5 8-11.5v-1l-3-3c-.558 0-10 13.945-10 16Z"/><path fill="#16B0B2" id="TEa6b" d="M79 97h1v-2h-1v2Z"/><path fill="#C7C8CC" id="alv" d="m91 95-1 1 1-1Z"/><path fill="#CAC7CB" id="fiber tracts" d="m298 95 1 1-1-1Z"/><path fill="#039298" id="AUDpo4" d="M409 113h1l3-2-10-16h-1l-3 3v1c1.736 0 10 12.068 10 14Z"/><path fill="#C7C8CC" id="alv" d="m90 96-1 1 1-1Z"/><path fill="#CAC7CB" id="fiber tracts" d="M157 97h1v-1l-1 1Z"/><path fill="#16B0B2" id="TEa6b" d="m383 106 6 7c0-2.216-10.03-17-12-17h-1l7 10ZM69 113l-2 1v-1c0-3.196 9.143-16 12-16 0 3.587-6 5.655-6 9v1c-2.177 0-4 4.336-4 6Z"/><path fill="#C7C8CC" id="alv" d="m89 97-1 1 1-1Z"/><path fill="#CAC7CB" id="fiber tracts" d="M156 99h1v-2l-1 2Z"/><path fill="#C7CBCB" id="bsc" d="m158 98-1 1v-2h1v1Z"/><path fill="#FF64FF" id="MB" d="m159 97-1 1v-1h1Z"/><path fill="#CAC7CB" id="fiber tracts" d="m299 97 2 2-2-2Z"/><path fill="#C7C8CC" id="alv" d="m368 97 5 5-5-5Z"/><path fill="#019197" id="AUDpo5" d="M57 98c1.186 0 1.186 1 0 1v-1Z"/><path fill="#C7C8CC" id="alv" d="m88 98-1 1 1-1Z"/><path fill="#7DCD4B" id="HPF" d="M149 99v1l1-2-1 1Z"/><path fill="#FF64FF" id="MB" d="m298 98 1 1-1-1Z"/><path fill="#7DCD4B" id="HPF" d="m308 99-1 1-1-2 2 1Z"/><path fill="#019197" id="AUDpo5" d="M56 119h1c0-1.698 4.773-10 6-10v-2l-6-8c-2.356 0-7.028 9.555-8 11.5l-2 2.5v1l9 5Z"/><path fill="#C7C8CC" id="alv" d="M87 99c-1.747 0-2 .253-2 2l2-2Z"/><path fill="#7BD04A" id="DG-mo" d="M135 232v1c4.38 0 10.199-.897 12-4.5.99-1.981 1.552-10.5-2-10.5 0 14.55-12.94 6.62-17-1.5-5.049-10.098-17.472-16.943-23-28-3.223-6.447-6.809-12.618-10-19-1.065-2.131-.518-11.964 0-13 1.514-3.029-.555-7.889 1-11 8.978-17.956 22.717-31.109 41.5-40.5 6.508-3.254 4.803 4.895 3.5 7.5l-10.5 8.5c-4.863 2.432-9.325 12.151-11.5 16.5-10.413 20.825 10 34.757 10 47.5l3 3h1l1-2-1-5v-2c-1.638 0-2-3.576-2-5v-1c-1.442 0-6-12.174-6-14l-1-8v-5l1-1v-4l1-1 1-2c0-1.238.423-3 2-3 0-1.238.423-3 2-3l1-1 1-1 1-1 1-1c0-2.833 7.609-8.055 9.5-9l4.5-7v-1l1-2v-1l1-6.5-2-1.5v-1h-16l-10 5-14.5 11c-8.288 8.288-27.717 36.065-21.5 48.5 3.585 7.17 4.363 15.727 8 23 4.319 8.638 14.615 15.23 18 22 3.305 6.61 18 13.853 18 20.5l3 2 1 1Z"/><path fill="#CAC7CB" id="fiber tracts" d="m156 99-1 1 1-1Z"/><path fill="#C7CBCB" id="bsc" d="M153 105h1l1-1v-1l1-1 1-3h-1l-1 1-1 2-1 1v2Z"/><path fill="#7BD04A" id="DG-mo" d="m322 232-1 1c-4.657 0-9.577-.654-12-5.5-.913-1.826-.004-9.5 2-9.5 0 16.802 14.178 5.143 18-2.5 3.378-6.757 13.832-14.664 16-19l8-10 8-16c1.899-3.797 1.896-14.209 0-18v-5l-8-16c-4.632-9.264-25.936-22.218-34.5-26.5-4.836-2.418-4.628 4.244-3.5 6.5 3.374 6.748 16.545 14.09 22 25 3.965 7.93 3.967 21.065 0 29-2.937 5.874-10 12.637-10 19.5l-2 2-1 1h-1v-7c1.353 0 2-4.643 2-6 1.473 0 1-1.952 1-3 1.473 0 1-1.952 1-3 1.429 0 3-5.655 3-7l1-2 1-9v-7l-1-1v-2c0-8.531-13.349-16.849-19-22.5l-5-7.5v-2c0-2.47-2-4.552-2-6.5l2-2.5 1-1h15l10 5 17.5 13c8.356 4.178 24.046 38.407 18.5 49.5-1.229 2.457-.832 5.664-2 8-5.762 11.523-12.162 22.162-21 31-3.89 3.89-20 19.927-20 22.5l-4 4Z"/><path fill="#019197" id="AUDpo5" d="M409 113c0 1.703-7.441 6-9 6 0-3.936-6-6.717-6-11 0-3.712 5-5.653 5-9 1.736 0 10 12.068 10 14Z"/><path fill="#CAC7CB" id="fiber tracts" d="m301 100 2 2-2-2Z"/><path fill="#C7C8CC" id="alv" d="m85 101-1 1 1-1Z"/><path fill="#FF8FFE" id="SCdw" d="m200 125 7-12.5c3.582-7.163 21.855-13.322 29.5-9.5 6.54 3.27 12.851 7.203 16.5 14.5.737 1.475 1.705 7.5 4 7.5 0-11.078-7.105-19.302-16.5-24h-25c-7.526 3.763-12.934 11.369-16.5 18.5-.978 1.956 1 4.077 1 5.5Z"/><path fill="#FF64FF" id="MB" d="m300 101 1 1-1-1Z"/><path fill="#C7C8CC" id="alv" d="m84 102-1 1 1-1Z"/><path fill="#CAC7CB" id="fiber tracts" d="m154 102-1 1 1-1Z"/><path fill="#FF64FF" id="MB" d="m156 102-1 1 1-1Z"/><path fill="#C7C8CC" id="alv" d="m83 103-1 1 1-1Z"/><path fill="#FC8FFF" id="PAG" d="M226 155c-.707 0-5 6.403-5 1l4-3.5v-6c0-8.243-7.884-1.5-11-1.5 0-5.627-8.251-14-14-14v-6l7-12.5c3.582-7.163 21.855-13.322 29.5-9.5 6.54 3.27 12.851 7.203 16.5 14.5.737 1.475 1.705 7.5 4 7.5 0 2.124-1 4.436-1 6-4.991 0-13 7.98-13 13v1h-1c-1.543 0-4.645-3.928-6.5-3l-4.5 3-2-17c0-2.581-2-4.471-2-1 0 8.141-1 17.261-1 26v2Z"/><path fill="#FF64FF" id="MB" d="m301 103 1 1-1-1Z"/><path fill="#CAC7CB" id="fiber tracts" d="m303 103 1 1-1-1Z"/><path fill="#C7C8CC" id="alv" d="m374 103 1 1-1-1Z"/><path fill="#029297" id="AUDp1" d="m37 107-1.5 2-3.5-1 2-4 3 3Z"/><path fill="#C7C8CC" id="alv" d="m82 104-1 1 1-1Z"/><path fill="#CAC7CB" id="fiber tracts" d="M152 105h1v-1l-1 1Z"/><path fill="#FF64FF" id="MB" d="m155 104-1 1 1-1Z"/><path fill="#029297" id="AUDp1" d="M420 107c0 1.579 2.855 1 4 1l-2-4-2 3Z"/><path fill="#C7C8CC" id="alv" d="m81 105-2 2c1.747 0 2-.253 2-2Z"/><path fill="#65A83D" id="DG-sg" d="M145 217v1c0 14.55-12.94 6.62-17-1.5-5.049-10.098-17.472-16.943-23-28-3.223-6.447-6.809-12.618-10-19-1.065-2.131-.518-11.964 0-13 1.514-3.029-.555-7.889 1-11 8.978-17.956 22.717-31.109 41.5-40.5 6.508-3.254 4.803 4.895 3.5 7.5l-10.5 8.5c-4.863 2.432-9.325 12.151-11.5 16.5-10.413 20.825 10 34.757 10 47.5-3.221 0-6-7.5-7-9.5-7.531-15.062-8-16.384-8-33.5.678 0 4.277-11.054 5-12.5.43-.861 16.496-17.998 9.5-14.5-21.477 10.738-38.994 36.512-27.5 59.5 1.93 3.86 3.619 10.559 7.5 12.5 2.752 1.376 8.89 15 12.5 15v1l3 3 1 2c0 2.462 12.154 20.191 16 12.5l2-3.5h2Z"/><path fill="#CAC7CB" id="fiber tracts" d="m152 105-1 1 1-1Z"/><path fill="#C7CBCB" id="bsc" d="M146 123h3l1-1v-7l1-1c0-3.303 2-5.115 2-8v-1h-1l-1 1v2l-1 1v2l-1 1v3l-1 1v1l-1 2v2l-1 1v1Z"/><path fill="#FF64FF" id="MB" d="m154 105-1 1v-1h1Z"/><path fill="#65A83D" id="DG-sg" d="M313 217h1c0 12.744 15-.53 15-6l1-2 1-1 1-1 1-1 1-2 1-1c1.577 0 2-1.762 2-3l1-1 1-1 1-1 1-1v-1c1.747 0 2-.253 2-2l1-1 1-1c1.577 0 2-1.762 2-3 1.577 0 2-1.762 2-3 4.83 0 10-21.241 10-26 0-18.872-14.522-36.011-30.5-44-.902-.451-3.206.089-2.5 1.5l10 11 5 10c.523 1.046-.951 3.5 1 3.5 0 21.096.219 18.062-9 36.5-1.152 2.303-3.057 7.5-6 7.5 0-6.863 7.063-13.626 10-19.5 3.967-7.935 3.965-21.07 0-29-5.455-10.91-18.626-18.252-22-25-1.128-2.256-1.336-8.918 3.5-6.5 8.564 4.282 29.868 17.236 34.5 26.5l8 16v5c1.896 3.791 1.899 14.203 0 18l-8 16-8 10c-2.168 4.336-12.622 12.243-16 19-3.822 7.643-18 19.302-18 2.5l1-1h1Z"/><path fill="#C7C8CC" id="alv" d="M375 105c1.59 0 6 5.662 6 7-1.59 0-6-5.662-6-7Z"/><path fill="#CCC8CA" id="ar" d="M73 106c1.186 0 1.186 1 0 1v-1ZM399 136v1l-2-4-2-4v-1l-1-1-2-5-1-1v-1l-1-1-1-2-1-1c0-3.759-5-5.874-5-10l6 7 5 10 5 13Z"/><path fill="#019099" id="AUDv1" d="M29 133v1l-5-1c0-7.425 8-20.824 8-25l3.5 1 1.5-2v1c0 6.236-8 17.07-8 25Z"/><path fill="#CCC8CA" id="ar" d="M73 107c-2.177 0-4 4.336-4 6 1.617 0 4-4.583 4-6Z"/><path fill="#C7C8CC" id="alv" d="m79 107-1 2 1-2Z"/><path fill="#CAC7CB" id="fiber tracts" d="m305 107 1 1-1-1Z"/><path fill="#019099" id="AUDv1" d="m432 133-5 1v-1c0-8.204-8-21.08-8-25v-1h1c0 1.579 2.855 1 4 1 2.45 0 8 21.137 8 25Z"/><path fill="#029198" id="AUDv2/3" d="M29 133h6c0-8.653 8-15.968 8-22l-5-3h-1c0 6.236-8 17.07-8 25Z"/><path fill="#CAC7CB" id="fiber tracts" d="m151 108-1 1v-1h1Z"/><path fill="#029399" id="AUDpo6a" d="M395 123h1c0-1.712 2.571-3 4-3v-1c0-3.936-6-6.717-6-11h-1c0 2.364-3 3.053-3 5l5 10Z"/><path fill="#029198" id="AUDv2/3" d="m427 133-5 1c0-7.461-9-19.567-9-23l6-3c0 3.92 8 16.796 8 25Z"/><path fill="#029399" id="AUDpo6a" d="m57 119 4 3 4-5 1-4-3-4c-1.227 0-6 8.302-6 10Z"/><path fill="#C7C8CC" id="alv" d="m78 109-1 1 1-1Z"/><path fill="#CAC7CB" id="fiber tracts" d="M307 109v2l-1-2h1Z"/><path fill="#C7C8CC" id="alv" d="M77 110c-1.577 0-2 1.762-2 3 1.577 0 2-1.762 2-3Z"/><path fill="#029197" id="AUDv4" d="M35 134h3c0-2.793 6.896-20 9-20v-1l-3-2h-1c0 6.032-8 13.347-8 22v1Z"/><path fill="#CAC7CB" id="fiber tracts" d="m150 111-1 1v-1h1Z"/><path fill="#029197" id="AUDv4" d="M418 134h4c0-7.461-9-19.567-9-23l-3 2c0 5.525 8 13.465 8 21Z"/><path fill="#029298" id="AUDpo6b" d="M67 114c0 1.238-.423 3-2 3l1-4h1v1Z"/><path fill="#CCC8CA" id="ar" d="M63 123h1l1-1v-1l1-1v-1l1-1 1-2 1-1v-2l-2 1c0 1.238-.423 3-2 3l-2 6Z"/><path fill="#C7C8CC" id="alv" d="m75 113-1 1 1-1Z"/><path fill="#CAC7CB" id="fiber tracts" d="m307 113 1 2-1-2Z"/><path fill="#C7C8CC" id="alv" d="M381 113c2.7 0 12 17.503 12 20l-3-4.5c-.989-1.978-9-14.796-9-15.5Z"/><path fill="#029298" id="AUDpo6b" d="M394 123h1l-5-10h-1l5 10Z"/><path fill="#019098" id="AUDv5" d="M406 135h1l11-1c0-7.535-8-15.475-8-21h-1c0 1.703-7.441 6-9 6v1c2.232 0 6 12.693 6 15ZM38 134l12 1 6-16-9-5c-2.104 0-9 17.207-9 20Z"/><path fill="#C7C8CC" id="alv" d="m74 114-1 1 1-1Z"/><path fill="#FF64FF" id="MB" d="m151 114-1 1 1-1Z"/><path fill="#C8C9CA" id="fp" d="m69 115-1 1 1-1Z"/><path fill="#7ECE4A" id="DG-po" d="M114 142c.678 0 4.277-11.054 5-12.5.43-.861 16.496-17.998 9.5-14.5-21.477 10.738-38.994 36.512-27.5 59.5 1.93 3.86 3.619 10.559 7.5 12.5 2.752 1.376 8.89 15 12.5 15 0-3.223-6.94-7.381-8-9.5-4.432-8.865-9.635-17.27-14-26-3.538-7.076 3.331-20.662 6-26 2.579-5.158 9-4.275 9 1.5Z"/><path fill="#CAC7CB" id="fiber tracts" d="m149 115-1 1 1-1Z"/><path fill="#7ECE4A" id="DG-po" d="M342 141c-1.951 0-.477-2.454-1-3.5l-5-10-10-11c-.706-1.411 1.598-1.951 2.5-1.5 15.978 7.989 30.5 25.128 30.5 44 0 4.759-5.17 26-10 26 0-7.506 13.183-20.133 8-30.5-2.507-5.015-2.693-10.693-7-15-2.571-2.571-8-3.895-8 1.5Z"/><path fill="#C7C8CC" id="alv" d="m73 116-1 1 1-1Z"/><path fill="#FF64FF" id="MB" d="m306 116 1 1-1-1Z"/><path fill="#CAC7CB" id="fiber tracts" d="m308 116 1 1-1-1Z"/><path fill="#C8C9CA" id="fp" d="m388 116 1 1-1-1Z"/><path fill="#029298" id="AUDpo6b" d="M62 123h1l2-6-4 5v1h1Z"/><path fill="#C7C8CC" id="alv" d="m72 117-1 2 1-2Z"/><path fill="#CAC7CB" id="fiber tracts" d="m148 117-1 2 1-2Z"/><path fill="#C8C9CA" id="fp" d="m67 118-1 1 1-1Z"/><path fill="#019397" id="AUDv6a" d="m57 135-1 1-6-1 6-16h1l4 3v1c0 3.933-4 7.365-4 12Z"/><path fill="#C7C8CC" id="alv" d="M71 119c-1.577 0-2 1.762-2 3 1.577 0 2-1.762 2-3Z"/><path fill="#C8C9CA" id="fp" d="m390 119 1 1-1-1ZM66 120l-1 1 1-1Z"/><path fill="#CAC7CB" id="fiber tracts" d="m309 120 2 2-2-2Z"/><path fill="#019397" id="AUDv6a" d="M400 136h1c0-1.347 4.47-1 5-1 0-2.307-3.768-15-6-15-1.429 0-4 1.288-4 3 0 4.649 4 8.129 4 13Z"/><path fill="#CAC7CB" id="fiber tracts" d="m147 121-1 1 1-1Z"/><path fill="#C8C9CA" id="fp" d="m391 121 1 1-1-1ZM65 122l-1 1 1-1Z"/><path fill="#CAC7CB" id="fiber tracts" d="M145 123h1v-1l-1 1Z"/><path fill="#FF64FF" id="MB" d="M149 123h1v-1l-1 1ZM306 123h1v-1l-1 1Z"/><path fill="#019198" id="AUDv6b" d="m61 127-4 8c0-4.635 4-8.067 4-12h1l-1 4Z"/><path fill="#CCC8CA" id="ar" d="M61 127h1l1-1v-3h-1l-1 4Z"/><path fill="#C8C9CA" id="fp" d="m64 123-1 1v-1h1Z"/><path fill="#C7C8CC" id="alv" d="m69 123-1 1 1-1Z"/><path fill="#C7CBCB" id="bsc" d="m146 123-1 1c-1.186 0-1.186-1 0-1h1Z"/><path fill="#FF8EFF" id="DT" d="m151 128-2 1c-1.766 0-5-.607-5-3l1-2 1-1h4l1 5ZM306 127c0 1.747.253 2 2 2 2.343 0 4-.285 4-3l-1-2-4-1h-1v4Z"/><path fill="#019198" id="AUDv6b" d="M399 136h1c0-4.871-4-8.351-4-13h-2l5 13Z"/><path fill="#C7C8CC" id="alv" d="m68 124-1 1 1-1Z"/><path fill="#FF64FF" id="MB" d="M151 137v3c1.602 0 2.384-3.058 4.5-2 4.517 2.259 12.617 8.191 19 5 8.015-4.007 15.951-12 25.5-12v-6l-8-1c0 2.413-3.713 6.106-5.5 7-1.4.7-2.997 2.998-5 4-7.951 3.976-16.035-3-23.5-3 0 3.266-7-1.306-7-4l-2 1 1 6v1l1 1ZM306 136l-1 3-4.5-1c-4.398 2.199-11.79 8.105-18 5-8.148-4.074-16.794-12-26.5-12 0-1.564 1-3.876 1-6l7-1 3 4.5c2.002 4.003 7.235 5.867 10.5 7.5 5.87 2.935 15.105-4 20.5-4 0 1.37 4.457 1.586 5 .5l3-5.5c0 1.747.253 2 2 2l-2 7Z"/><path fill="#A9A9A8" id="AQ" d="m227 127 2 1c0-2.581-2-4.471-2-1Z"/><path fill="#C8C9CA" id="fp" d="m63 126-1 1 1-1Z"/><path fill="#C7C8CC" id="alv" d="m67 126-1 1 1-1Z"/><path fill="#FF6F80" id="TH" d="m150 135-3 1c0-5.469-3.531-9-9-9 0-1.684 4.679-1 6-1 0 2.393 3.234 3 5 3l1 6ZM309 135l-3 1 2-7c2.343 0 4-.285 4-3 1.321 0 6-.684 6 1-4.25 0-9 3.499-9 8Z"/><path fill="#CCC8CA" id="ar" d="m58 137-1 1v-3l4-8v4l-1 1-1 4-1 1Z"/><path fill="#C8C9CA" id="fp" d="m62 127-1 2v-2h1Z"/><path fill="#FF8E9D" id="SGN" d="m140 145-3 1c0-4.024-4-10.976-4-15v-1l1-1 1-1 3-1c5.469 0 9 3.531 9 9 0 1.974-2 3.517-2 6-1.947 0-2.636 3-5 3Z"/><path fill="#FF64FF" id="MB" d="M231 153v1l-5-1c0-8.739 1-17.859 1-26l2 1 2 17v8Z"/><path fill="#FF8E9D" id="SGN" d="M317 146h2l2-1.5v-10c.809-1.619 2-1.471 2-3.5 0-2.47-2.997-4-5-4-4.25 0-9 3.499-9 8 0 2.439 2 2.666 2 6l6 5Z"/><path fill="#C8C9CA" id="fp" d="m394 127 1 1-1-1Z"/><path fill="#C7C8CC" id="alv" d="m66 128-1 1 1-1Z"/><path fill="#C8C9CA" id="fp" d="m395 129 2 4-2-4Z"/><path fill="#C7C8CC" id="alv" d="m65 130-1 2 1-2Z"/><path fill="#FE7F82" id="MGd" d="m135 148-5.5-1-5.5 4v-5l1-1v-4l1-1 1-2c1.577 0 2-1.762 2-3 1.577 0 2-1.762 2-3l1-1h1c0 4.024 4 10.976 4 15l-2 2Z"/><path fill="#FF8FFD" id="MRN" d="M197 191c-2.707 0-5.903 1-8 1-4.922 0-7.504-1.002-11.5-3-14.387-7.194-25.5-5.883-25.5-27l1-8c0-5.003-2-10.49-2-14 1.602 0 2.384-3.058 4.5-2 4.517 2.259 12.617 8.191 19 5 8.015-4.007 15.951-12 25.5-12 5.749 0 14 8.373 14 14v1l-3.5-3c-10.473 5.236 7.5 21.756 7.5 12h1v2l1 1v1l1 3 2 2.5c1.226 2.452-3.407 15.5-6 15.5 0-20.573-26.556-32.388-38-9.5-6.056 12.112 18 19.359 18 20.5ZM259 191c2.707 0 5.903 1 8 1 7.648 0 13.22-5 20-5l9.5-5c5.769-2.885 8.5-13.478 8.5-19l-1-8-1-7.5c1.164-2.329 2-5.779 2-8.5l-4.5-1c-4.398 2.199-11.79 8.105-18 5-8.148-4.074-16.794-12-26.5-12-4.991 0-13 7.98-13 13l3.5-1c3.928 1.964 1.187 12.406-2 14-1.379.689-6.5 2.122-6.5-1h-1v2c0 1.465.109 4-2 4l-2 3.5c-.778 1.556 3.873 13.5 6 13.5 0-19.425 27.427-30.646 38-9.5 4.508 9.016-6.623 16.561-12.5 19.5-1.319.659-5.5-.334-5.5 2Z"/><path fill="#FE7F82" id="MGd" d="m322 148 4.5-1c1.362.681 4.844 4 5.5 4v-7l-1-1v-2c-2.626 0-3.869-10-8-10 0 2.029-1.191 1.881-2 3.5v10l-2 1.5 3 2Z"/><path fill="#CBC9C7" id="or" d="M60 132c3.007 0-1 6.644-1 4l1-4Z"/><path fill="#C7C8CC" id="alv" d="m64 132-1 2 1-2Z"/><path fill="#15B0B3" id="TEa1" d="m29 155-5 1v-23l5 1v21Z"/><path fill="#16AFB3" id="TEa2/3" d="m36 154-7 1v-22h6v1c0 3.036-2.718 9.064-1 12.5.805 1.61 2 5.802 2 7.5ZM427 155h1c0-6.903-1-14.772-1-21v-1l-5 1c0 6.937-1 13.531-1 20l6 1Z"/><path fill="#15B0B3" id="TEa1" d="m428 155 4 1v-23l-5 1c0 6.228 1 14.097 1 21Z"/><path fill="#15B0B2" id="TEa4" d="m37 153-1 1c0-1.698-1.195-5.89-2-7.5-1.718-3.436 1-9.464 1-12.5h3c0 5.826-1 12.583-1 19Z"/><path fill="#15AFB3" id="TEa5" d="M38 153h10c0-6.406 2-12.21 2-18l-12-1c0 5.826-1 12.583-1 19h1Z"/><path fill="#C7C8CC" id="alv" d="m393 134 2 4-2-4Z"/><path fill="#15AFB3" id="TEa5" d="M409 153c3.325 0 7.31 1 10 1l1-9.5c-1.101-2.203-2-8.154-2-10.5l-11 1c0 6.6 2 11.5 2 18Z"/><path fill="#15B0B2" id="TEa4" d="M419 154h2c0-6.469 1-13.063 1-20h-4c0 2.346.899 8.297 2 10.5l-1 9.5Z"/><path fill="#15AFB2" id="TEa6a" d="M48 153h6c0-6.016 2-11.916 2-17l-6-1c0 5.79-2 11.594-2 18Z"/><path fill="#019198" id="AUDv6b" d="M56 136h1v-1l-1 1Z"/><path fill="#C7C8CC" id="alv" d="m63 135-1 2 1-2Z"/><path fill="#FF8D9D" id="POL" d="M145 142c0 2.353 1.178 11.839 3.5 13l4.5-1c0-5.003-2-10.49-2-14v-3l-1-1v-1l-3 1c0 1.974-2 3.517-2 6ZM311 141c0 5.856.072 14-7 14l-1-7.5c1.164-2.329 2-5.779 2-8.5l1-3 3-1c0 2.439 2 2.666 2 6Z"/><path fill="#15AFB2" id="TEa6a" d="M403 153h6c0-6.5-2-11.4-2-18h-1c-.53 0-5-.347-5 1l1 17h1Z"/><path fill="#16B0B2" id="TEa6b" d="M54 153h1v-1c0-5.04 2-9.869 2-14v-2h-1c0 5.084-2 10.984-2 17Z"/><path fill="#FF6F80" id="TH" d="m150 136 1 1-1-1Z"/><path fill="#16B0B2" id="TEa6b" d="M401 153h1l-1-17h-2v1c0 4.387 2 9.655 2 15v1Z"/><path fill="#CBC9C7" id="or" d="M59 143c-2.411 0-.074 9-4 9 0-5.04 2-9.869 2-14l1-1c1.684 0 1 4.679 1 6Z"/><path fill="#C7C8CC" id="alv" d="m62 137-1 2 1-2Z"/><path fill="#7ECF49" id="CA3" d="M143 215v2c-8.718 0-15.946-9-18-9l-1-2-3-3v-1c0-3.223-6.94-7.381-8-9.5-4.432-8.865-9.635-17.27-14-26-3.538-7.076 3.331-20.662 6-26 2.579-5.158 9-4.275 9 1.5 0 17.116.469 18.438 8 33.5 1 2 3.779 9.5 7 9.5l3 3c0 1.089 4.306 11 5 11v1c0 1.948 4.899 15 6 15ZM329 211c-4.205 0-8.348 6-15 6l1-7 1-2 1-2v-1l1-2 1-2c1.353 0 2-4.643 2-6v-1c1.638 0 2-3.576 2-5l1-1 1-1 2-2c2.943 0 4.848-5.197 6-7.5 9.219-18.438 9-15.404 9-36.5 0-5.395 5.429-4.071 8-1.5 4.307 4.307 4.493 9.985 7 15 5.183 10.367-8 22.994-8 30.5-1.577 0-2 1.762-2 3-1.577 0-2 1.762-2 3l-1 1-1 1-2 2v1l-1 1-1 1-1 1-1 1c-1.577 0-2 1.762-2 3l-1 1-1 2-1 1-1 1-1 1-1 2Z"/><path fill="#C7C8CC" id="alv" d="M395 139c1.473 0 1 1.952 1 3-1.473 0-1-1.952-1-3ZM60 143v1c1.473 0 1-1.952 1-3l-1 2Z"/><path fill="#FF6F80" id="TH" d="m311 171-1 2-5-10-1-8c7.072 0 7-8.144 7-14l6 5c-2.156 0-2 7.077-2 9-9.646 0-4 14.351-4 16ZM146 171l1 2c0-1.662 3.441-11 5-11l1-8-4.5 1c-2.322-1.161-3.5-10.647-3.5-13-1.947 0-2.636 3-5 3l2 10c7.727 0 4 12.086 4 16Z"/><path fill="#FD8FFD" id="ND" d="M219 156h2l4-3.5v-6c0-8.243-7.884-1.5-11-1.5v1l1 3 1 1 1 3 2 2v1ZM235 156h2l1-1 1-2 1-2 1-3 1-1v-2c-1.543 0-4.645-3.928-6.5-3l-4.5 3v8l4 3Z"/><path fill="#C8CBCC" id="ec" d="M385 205v2c3.178 0 11.447-19.394 13-22.5.587-1.173.619-7.5 2-7.5 0-1.235-.643-5 1-5v-20c-2.459 0-3-7.611-3-10l-1 1v6c2.064 0 .426 3.353 1 4.5 2.091 4.183 2.091 15.817 0 20-.523 1.046.951 3.5-1 3.5 0 2.186-1.733 12-4 12 0 1.465.109 4-2 4 0 1.465.109 4-2 4v1c0 1.238-.423 3-2 3l-1 2-1 2ZM89 229l3 2-11-10.5-8-11c-4.472-8.944-8.56-18.122-13-27-2.577-5.154-4.742-19.517-2-25 .662-1.324-1.207-6.5 1-6.5v-4c0-1.048-.473-3 1-3v-1h-1c-2.411 0-.074 9-4 9v17c1.06 0 2 6.743 2 8 0 11.576 9.132 21.764 14 31.5l9 12.5 2 2 7 6Z"/><path fill="#FF90FD" id="INC" d="m217 153 1 2c0 9.756-17.973-6.764-7.5-12l3.5 3 1 3 1 1 1 3ZM238 155v1c0 3.122 5.121 1.689 6.5 1 3.187-1.594 5.928-12.036 2-14l-3.5 1v1l-1 2-1 1-1 3-1 2-1 2Z"/><path fill="#C7C8CC" id="alv" d="M397 143v2l-1-2h1ZM60 144c-1.473 0-1 1.952-1 3 1.473 0 1-1.952 1-3Z"/><path fill="#FD7F83" id="MGm" d="M141 156c0 2.959-2.746 7-6 7v-15l2-2 3-1 2 10-1 1Z"/><path fill="#FF8FFD" id="MRN" d="m243 145-1 2v-2h1Z"/><path fill="#FD7F83" id="MGm" d="M315 155c0 3.81 2.979 8 7 8v-15l-3-2h-2c-2.156 0-2 7.077-2 9Z"/><path fill="#FE7E83" id="MGv" d="m135 163-5 1-2-1-3-4-1-8 5.5-4 5.5 1v15Z"/><path fill="#FF8FFD" id="MRN" d="m242 147-1 1 1-1Z"/><path fill="#FE7E83" id="MGv" d="m328 163-2 1-4-1v-15l4.5-1c1.362.681 4.844 4 5.5 4l-1 9-1 2-2 1Z"/><path fill="#FF8FFD" id="MRN" d="m215 149 1 1-1-1Z"/><path fill="#C7C8CC" id="alv" d="M397 149c2.064 0 .426 3.353 1 4.5 2.091 4.183 2.091 15.817 0 20-.523 1.046.951 3.5-1 3.5v-28ZM93 231l3 2-7.5-7c-6.067-6.067-11.885-11.27-15.5-18.5-11.048-22.097-14-29.746-14-56.5-2.207 0-.338 5.176-1 6.5-2.742 5.483-.577 19.846 2 25 4.44 8.878 8.528 18.056 13 27l8 11L92 231h1Z"/><path fill="#CBCBCC" id="mlf" d="m240 151-1 2 1-2Z"/><path fill="#0D9F91" id="ECT2/3" d="m42 167-8 1c0-4.381-5-7.813-5-13l7-1 1-1h1l4 14Z"/><path fill="#0D9E90" id="ECT5" d="m43 167 7 1c0-4.703-2-9.513-2-15H38l4 14h1Z"/><path fill="#0E9F91" id="ECT6a" d="M51 168h4v-5c-1.763 0-1-8.343-1-10h-6c0 5.487 2 10.297 2 15h1Z"/><path fill="#0E9F90" id="ECT6b" d="M55 153v10c-1.763 0-1-8.343-1-10h1Z"/><path fill="#CBCBCC" id="mlf" d="M218 155h1l-2-2 1 2Z"/><path fill="#FE8FFC" id="EW" d="M226 155c0 9.447 5 12.079 5 3v-4l-5-1v2Z"/><path fill="#FC8FFF" id="PAG" d="M235 156c0 2.109-2.535 2-4 2v-5l4 3Z"/><path fill="#CBCBCC" id="mlf" d="m239 153-1 2 1-2Z"/><path fill="#0E9F90" id="ECT6b" d="M401 168h1l1-15h-2v15Z"/><path fill="#0E9F91" id="ECT6a" d="M402 168h4c0-4.812 3-9.327 3-15h-6l-1 15Z"/><path fill="#0D9E90" id="ECT5" d="m414 167-8 1c0-4.812 3-9.327 3-15 3.325 0 7.31 1 10 1l-5 13Z"/><path fill="#0D9F91" id="ECT2/3" d="M422 168h1c0-4.636 4-7.517 4-13l-6-1h-2l-5 13 8 1Z"/><path fill="#0D9F90" id="ECT1" d="m34 168-3 2c-3.677 0-7-11.053-7-14l5-1c0 5.187 5 8.619 5 13Z"/><path fill="#FF6F80" id="TH" d="m142 155-1 1 1-1Z"/><path fill="#FE8D9E" id="PIL" d="m132 168 5.5 4 8.5-1c0-3.914 3.727-16-4-16l-1 1c0 2.959-2.746 7-6 7l-5 1 2 4Z"/><path fill="#FF64FF" id="MB" d="m252 227-8 4 3-3.5c1.489-2.977-1-8.046-1-10.5 0-6.256-9-11.095-9-14 1.818 0 .548-6.404 0-7.5l-4-2.5c7.274 0 2-3.916 2-8 3.369 0-1-8.058-1-11 0-1.048.473-3-1-3v-2l-1-2h-1c0-2.079-4.47-1-5-1l-1 1-1 1v2l-1 1v1c-1.473 0-1 1.952-1 3 0 1.612-3.391 11-1 11l-2 4c0-1.251-4.427-1.536-5.5-1-1.5.75-8.112 6-8.5 6 0-1.145.579-4-1-4v-1h1l1-1h2l1-1h1l1-1h1l1-1 1-1 1-1 1-1 1-1v-2c2.593 0 7.226-13.048 6-15.5l-2-2.5c1.728 0-.187-3-1-3v-1l-1-1v-1h2c0 5.403 4.293-1 5-1 0 9.447 5 12.079 5 3 1.465 0 4 .109 4-2h2v2l-2 4-2 3.5c-.778 1.556 3.873 13.5 6 13.5v2l1 1 1 2 1 1 2 1 1 1h1c0 1.577 1.762 2 3 2l3 1v1c-1.473 0-1 1.952-1 3-3.616 0-7.615-7.442-12.5-5-1.72.86.1 3.7.5 4.5 2.565 5.131 5.374 9.5 12 9.5 2.147 0 7.689 2 12 2 0 3.811-13.879 2.259-16 6.5-2.538 5.077 5 11.443 5 15.5Z"/><path fill="#CBCBCC" id="mlf" d="M237 156h1v-1l-1 1Z"/><path fill="#FE8D9E" id="PIL" d="m324 169-4.5 3c-2.568 1.284-6.486-1-8.5-1 0-1.649-5.646-16 4-16 0 3.81 2.979 8 7 8l4 1v3l-1 1-1 1Z"/><path fill="#0D9F90" id="ECT1" d="m423 168 3 2c0-2.886 6-7.61 6-14l-4-1h-1c0 5.483-4 8.364-4 13Z"/><path fill="#FE90FD" id="RN" d="M197 191h6l1-1h1l1-1h2l1-1h1l1-1h1l1-1 1-1 1-1 1-1 1-1v-2c0-20.573-26.556-32.388-38-9.5-6.056 12.112 18 19.359 18 20.5Z"/><path fill="#CBCBCC" id="mlf" d="m219 157 1 1-1-1Z"/><path fill="#FE90FD" id="RN" d="M253 191h6c0-2.334 4.181-1.341 5.5-2 5.877-2.939 17.008-10.484 12.5-19.5-10.573-21.146-38-9.925-38 9.5v2l1 1 1 2 1 1 2 1 1 1h1l3 2 3 1 1 1Z"/><path fill="#CBCBCC" id="mlf" d="m237 158-2 4c2.109 0 2-2.535 2-4ZM220 159c.813 0 2.728 3 1 3l-1-3Z"/><path fill="#FF64FF" id="MB" d="m185 210 3 2c0-4.712-5.352-10.204-7-13.5l.5-5.5c1.956-.978 4.077 1 5.5 1l2-2c-4.922 0-7.504-1.002-11.5-3-14.387-7.194-25.5-5.883-25.5-27-1.559 0-5 9.338-5 11 0 5.488-9.028 2-11 2l2 2.5c.574 1.147-1.064 4.5 1 4.5 2.265 0 7.648-5.426 12.5-3 5.382 2.691 24.5 12.63 24.5 20l5 4c0-3.361 5.361 2 2 2l2 5Z"/><path fill="#FF6F80" id="TH" d="M132 168v2l-3-4-1-3 2 1 2 4Z"/><path fill="#FF64FF" id="MB" d="M273 202c1.048 0 3-.473 3 1l4-4c0-6.934 20.332-17.416 25.5-20 5.664-2.832 11.418 4 12.5 4l1-7c-3.063 0-9 .892-9-3l-5-10c0 5.522-2.731 16.115-8.5 19l-9.5 5c-6.78 0-12.352 5-20 5l2 2 2.5-1c6.725-3.362 1.5 8.217 1.5 9Z"/><path fill="#FF6F80" id="TH" d="M326 166h1l1-3-2 1v2Z"/><path fill="#FEA6FF" id="RL" d="M223 183h1l1-1h3c0-1.186 1-1.186 1 0l4 1v-2l-2-14c0-2.079-4.47-1-5-1l-1 1v1l-2 15Z"/><path fill="#FF64FF" id="MB" d="m134 175-1 1-2-2v-1l-2-7 3 4 2 5Z"/><path fill="#CACAC7" id="dtd" d="m226 166-1 1 1-1Z"/><path fill="#FF64FF" id="MB" d="m325 175-2 2v-2l1-4c1.473 0 1-1.952 1-3l1-1v-1h1v3c-1.473 0-1 1.952-1 3-1.473 0-1 1.952-1 3Z"/><path fill="#0E9583" id="PERI2/3" d="m41 179-8 2 3-4.5c1.675-3.349-2-6.241-2-8.5l8-1h1l3 11-5 1Z"/><path fill="#0F9684" id="PERI5" d="M46 178h1l5-1-1-9h-1l-7-1 3 11Z"/><path fill="#CACAC7" id="dtd" d="M224 168h1v-1l-1 1Z"/><path fill="#C8C8C8" id="mtg" d="M235 184v1c3.369 0-1-8.058-1-11-1.473 0-1-1.952-1-3v-2l-1-2h-1l2 14 2 3Z"/><path fill="#CACAC7" id="dtd" d="m232 167 1 2-1-2Z"/><path fill="#FF6F80" id="TH" d="m326 167-1 1 1-1Z"/><path fill="#0F9684" id="PERI5" d="M409 178h1l4-11-8 1-2 9 5 1Z"/><path fill="#0E9583" id="PERI2/3" d="m416 179 7 2-3-5.5c-1.465-2.931 2-5.297 2-7.5l-8-1-4 11 6 1Z"/><path fill="#0E9584" id="PERI1" d="M26 181h7l3-4.5c1.675-3.349-2-6.241-2-8.5l-3 2c0 5.403-5 8.873-5 11Z"/><path fill="#0E9684" id="PERI6a" d="M52 177h3v-9h-4l1 9Z"/><path fill="#FD7F84" id="PP" d="M134 175h2c1.972 0 11 3.488 11-2l-1-2-8.5 1-5.5-4v2l2 5Z"/><path fill="#C8C8C8" id="mtg" d="M221 185v1c-2.391 0 1-9.388 1-11 1.473 0 1-1.952 1-3v-1l1-1v-2h1l-2 15-1 1-1 1Z"/><path fill="#FF6F80" id="TH" d="M324 169v2c1.473 0 1-1.952 1-3l-1 1Z"/><path fill="#0E9683" id="PERI6b" d="m402 168-1 2v-2h1Z"/><path fill="#0E9684" id="PERI6a" d="M401 177h3l2-9h-4l-1 2v7Z"/><path fill="#0E9584" id="PERI1" d="M424 181h6c0-3.203-3.696-3.892-5-6.5l1-4.5-3-2h-1c0 2.203-3.465 4.569-2 7.5l3 5.5h1Z"/><path fill="#0E9683" id="PERI6b" d="M55 177h2c0-1.257-.94-8-2-8v8Z"/><path fill="#FD7F84" id="PP" d="M320 175h3l1-4v-2l-4.5 3c-2.568 1.284-6.486-1-8.5-1l-1 2c0 3.892 5.937 3 9 3l1-1Z"/><path fill="#CACAC7" id="dtd" d="m224 170-1 1 1-1ZM233 171c1.473 0 1 1.952 1 3-1.473 0-1-1.952-1-3ZM223 172c-1.473 0-1 1.952-1 3 1.473 0 1-1.952 1-3Z"/><path fill="#0E9683" id="PERI6b" d="M400 177h1v-5c-1.643 0-1 3.765-1 5Z"/><path fill="#CCCAC7" id="cpd" d="M199 225v3c0 3.13-4.851 3.176-6.5 4-12.293 6.146-22.195-7-29.5-7l-1-1c-8.669 0-19.624-21-23-21v-1c0-1.041-.986-5-2-5v-1l-1-2v-1l-1-2v-1c0-1.759-.326-9-2-9v-5l1-1h2l2 2.5c.574 1.147-1.064 4.5 1 4.5l-1 7.5c2.192 4.385 2.787 9.574 5 14 4.483 8.966 19.722 16.5 30 16.5h1c4.425 0 9.961 1 15 1 0 .041 8.389 3 9 3l1 1Z"/><path fill="#FF64FF" id="MB" d="m320 175-1 1 1-1Z"/><path fill="#CCCAC7" id="cpd" d="M293 225c-4.141 0-12.651 6.076-16.5 8-5.806 2.903-17.529-4-18.5-4l-1-4 1-1 1-1c1.257 0 8-.941 8-2 26.627 0 51-8.589 51-38l1-7 1-1h3v8c-1.434 0-2 6.448-2 8v1c-1.473 0-1 1.952-1 3l-1 2v2l-1 2-1 2c-2.137 0-15.009 21-23 21l-1 1Z"/><path fill="#31B824" id="ENTl5" d="m73 227-6 1c0-3.61-11.822-17.144-14-21.5-4.534-9.069-6-17.411-6-28.5l5-1c0 10.32 6.668 19.837 11 28.5l7 8 7 9.5-2 3-2 1Z"/><path fill="#32B824" id="ENTl6a" d="M77 223h2l1-2-9-12.5c-4.868-9.736-14-19.924-14-31.5h-5c0 10.32 6.668 19.837 11 28.5l7 8 7 9.5Z"/><path fill="#C7C8CC" id="alv" d="M397 177c-1.949 0-4 9.971-4 12 2.267 0 4-9.814 4-12Z"/><path fill="#32B824" id="ENTl6a" d="M377 223h2c2.232 0 8.022-9.544 9-11.5 6.115-12.23 16-19.634 16-34.5h-4c-1.381 0-1.413 6.327-2 7.5-1.553 3.106-9.822 22.5-13 22.5l-1 2-1 2-1 1c0 1.238-.423 3-2 3 0 1.429-1.288 4-3 4l-1 2 1 2Z"/><path fill="#31B824" id="ENTl5" d="m383 227 6 1 12-17.5c6.712-13.423 8-17.407 8-32.5l-5-1c0 14.866-9.885 22.27-16 34.5-.978 1.956-6.768 11.5-9 11.5l2 3 2 1Z"/><path fill="#32B725" id="ENTl3" d="m67 228-8 2-10-14.5-10-27 2-9.5 5-1h1c0 11.089 1.466 19.431 6 28.5 2.178 4.356 14 17.89 14 21.5ZM389 228l9 2c0-4.048 7.163-9.826 9-13.5 4.104-8.208 5.885-17.77 10-26l-1-11.5-6-1h-1c0 15.093-1.288 19.077-8 32.5L389 228Z"/><path fill="#32B825" id="ENTl2" d="m59 230-11 3c0-1.025-6.074-13.648-7-15.5-4.097-8.195-5.846-17.692-10-26-1.84-3.679 2-7.473 2-10.5l8-2-2 9.5 10 27L59 230Z"/><path fill="#FF8DFD" id="SNr" d="M177 208c0 3.784-4 5.29-4 12-10.278 0-25.517-7.534-30-16.5-2.213-4.426-2.808-9.615-5-14l1-7.5c2.265 0 7.648-5.426 12.5-3 5.382 2.691 24.5 12.63 24.5 20-3.162 0 1 8.013 1 9ZM263 217c0 3.591-.519 4 4 4 26.627 0 51-8.589 51-38-1.082 0-6.836-6.832-12.5-4-5.168 2.584-25.5 13.066-25.5 20 3.439 0-1 8.289-1 9 0 3.336 6.826 6.849 5 10.5-.943 1.886-7-5.805-7-7.5l-4.5 4c-.329.164-6.005 3.51-4.5.5l2-4.5h-1l-4 4-1 1-1 1Z"/><path fill="#32B825" id="ENTl2" d="M398 230c3.751 0 6.819 3 11 3l5-11.5c4.562-9.123 6.375-19.75 11-29l-1-11.5h-1l-7-2 1 11.5c-4.115 8.23-5.896 17.792-10 26-1.837 3.674-9 9.452-9 13.5Z"/><path fill="#32B722" id="ENTl1" d="m48 233-4 1c-2.17 0-5.027-11.555-6-13.5-5.752-11.503-12-25.764-12-39.5h7c0 3.027-3.84 6.821-2 10.5 4.154 8.308 5.903 17.805 10 26 .926 1.852 7 14.475 7 15.5Z"/><path fill="#FF64FF" id="MB" d="M228 182h1c0-1.186-1-1.186-1 0ZM233 183l2 1-2-3v2Z"/><path fill="#FF8FFD" id="MRN" d="m239 181 1 1-1-1Z"/><path fill="#32B722" id="ENTl1" d="M409 233c1.048 0 3-.473 3 1 2.929 0 10.195-24.891 12-28.5 2.635-5.27 6-11.775 6-18 0-1.483 1.982-6.5 0-6.5h-6l1 11.5c-4.625 9.25-6.438 19.877-11 29l-5 11.5Z"/><path fill="#FF8FFD" id="MRN" d="m217 182-1 1 1-1Z"/><path fill="#FF64FF" id="MB" d="m225 182-1 1 1-1Z"/><path fill="#CACBC9" id="vtd" d="M223 193h10c7.274 0 2-3.916 2-8v-1l-2-1-4-1h-4l-1 1h-1l-1 1-1 1v1l-2 4c0 2.715 1.657 3 4 3Z"/><path fill="#FF8FFD" id="MRN" d="m216 183-1 1 1-1Z"/><path fill="#FF64FF" id="MB" d="m223 183-1 1 1-1ZM222 184l-1 1 1-1Z"/><path fill="#FF8FFD" id="MRN" d="m241 184 1 1-1-1ZM214 185l-1 1 1-1Z"/><path fill="#7ECE4A" id="DG-po" d="M349 185c-1.577 0-2 1.762-2 3 1.577 0 2-1.762 2-3Z"/><path fill="#7DCD4B" id="HPF" d="m133 188 1 1v-3l-1 2Z"/><path fill="#FF8FFD" id="MRN" d="m213 186-1 1 1-1ZM244 186l1 1-1-1ZM211 187l-1 1 1-1ZM246 187l3 2c-1.238 0-3-.423-3-2Z"/><path fill="#C7C8CC" id="alv" d="m325 187-1 1 1-1ZM137 197v2c-.694 0-5-9.911-5-11h1l1 1 1 1v1l1 2v1l1 2v1Z"/><path fill="#FF8FFD" id="MRN" d="m209 188-1 1 1-1Z"/><path fill="#C7C8CC" id="alv" d="m324 188-1 1v-1h1Z"/><path fill="#7ECE4A" id="DG-po" d="M347 188c-1.577 0-2 1.762-2 3 1.577 0 2-1.762 2-3Z"/><path fill="#FF8FFD" id="MRN" d="m206 189-1 1 1-1Z"/><path fill="#C8C8CB" id="rust" d="M205 195v8c3.983 0 10.387-3.274 12-6.5.567-1.134.546-6.5 2-6.5 0-1.251-4.427-1.536-5.5-1-1.5.75-8.112 6-8.5 6ZM251 194c-3.616 0-7.615-7.442-12.5-5-1.72.86.1 3.7.5 4.5 2.565 5.131 5.374 9.5 12 9.5v-9Z"/><path fill="#C7C8CC" id="alv" d="M321 192v2c1.638 0 2-3.576 2-5l-2 2v1ZM393 189l-2 4c2.109 0 2-2.535 2-4Z"/><path fill="#FF8FFD" id="MRN" d="M203 191h1v-1l-1 1Z"/><path fill="#FF64FF" id="MB" d="m205 227 11 6c0-1.954-5.843-4.186-7-6.5-1.284-2.568 1-6.486 1-8.5l1-1v-2c0-5.575 8-7.312 8-12v-6.5l4-3.5c-2.343 0-4-.285-4-3-1.454 0-1.433 5.366-2 6.5-1.613 3.226-8.017 6.5-12 6.5-.17 0-7.269 2-11 2 0 5.259 13.182 1.864 15 5.5 2.403 4.805-4 13.012-4 16.5Z"/><path fill="#FF8FFD" id="MRN" d="M252 191h1l-1-1v1Z"/><path fill="#FE8DFF" id="VTA" d="M205 203c-.17 0-7.269 2-11 2-3.962 0-7-7.783-7-11l2-2c2.097 0 5.293-1 8-1h7c1.579 0 1 2.855 1 4v8ZM251 203c2.147 0 7.689 2 12 2 3.819 0 6-8.334 6-11l-2-2c-2.097 0-5.293-1-8-1h-7c-1.473 0-1 1.952-1 3v9Z"/><path fill="#7ECE4A" id="DG-po" d="m345 191-1 1 1-1ZM344 192l-1 1 1-1Z"/><path fill="#CACCC8" id="ml" d="M203 227h2c0-3.488 6.403-11.695 4-16.5-1.818-3.636-15-.241-15-5.5-3.962 0-7-7.783-7-11-1.423 0-3.544-1.978-5.5-1l-.5 5.5c1.648 3.296 7 8.788 7 13.5l2 2c2.792 0 8 7.159 8 10l1 1 4 2Z"/><path fill="#FFA6FF" id="IF" d="m237 203-3 1-4-2h-3l-1 1c-2.424 0-2.76 2-4 2l-3-2v-6.5l4-3.5h10l4 2.5c.548 1.096 1.818 7.5 0 7.5Z"/><path fill="#CACCC8" id="ml" d="M252 227h1l4-2 1-1 1-1c0-1.664 1.823-6 4-6l1-1 1-1 4-4 3-7v-1l1-1c0-.783 5.225-12.362-1.5-9l-2.5 1c0 2.666-2.181 11-6 11 0 3.811-13.879 2.259-16 6.5-2.538 5.077 5 11.443 5 15.5Z"/><path fill="#7ECE4A" id="DG-po" d="m343 193-2 2c1.747 0 2-.253 2-2Z"/><path fill="#C7C8CC" id="alv" d="m391 193-2 4c2.109 0 2-2.535 2-4ZM319 199v2c1.353 0 2-4.643 2-6h-1l-1 2v2Z"/><path fill="#7ECE4A" id="DG-po" d="m341 196-1 1 1-1ZM340 197l-1 1 1-1ZM339 198l-1 1 1-1Z"/><path fill="#C7C8CC" id="alv" d="M389 198c-1.577 0-2 1.762-2 3 1.577 0 2-1.762 2-3Z"/><path fill="#FFA6FD" id="SNc" d="m185 210 3 4.5c.451.902-.089 3.206-1.5 2.5l-6.5-6-3-3c0-.987-4.162-9-1-9l5 4c0 1.747.253 2 2 2l2 5ZM270 211l-2 4.5c-1.505 3.01 4.171-.336 4.5-.5l4.5-4c0-1.238.423-3 2-3 0-.711 4.439-9 1-9l-4 4-3 3c0 1.238-1.923 5-3 5Z"/><path fill="#7ECE4A" id="DG-po" d="m338 199-1 1 1-1Z"/><path fill="#C7C8CC" id="alv" d="M143 215h1l-5-12v-1l-2-2c0 1.948 4.899 15 6 15Z"/><path fill="#7ECE4A" id="DG-po" d="M337 200c-1.577 0-2 1.762-2 3 1.577 0 2-1.762 2-3Z"/><path fill="#C7C8CC" id="alv" d="m319 201-1 2v-2h1ZM387 201l-1 2 1-2Z"/><path fill="#C7CCCC" id="IIIn" d="M181 203c0 1.747.253 2 2 2 3.361 0-2-5.361-2-2Z"/><path fill="#FEA4FF" id="IPDM" d="m227 202-1 1 1-1Z"/><path fill="#FFA4FE" id="IPR" d="M221 217c4.705 0 8.679 1 14 1v-8c0-2.036-5-4.317-5-8h-3l-1 1c0 1.884-2.575 7-5 7v7Z"/><path fill="#FEA4FF" id="IPDM" d="M237 208c0 1.747-.253 2-2 2 0-2.036-5-4.317-5-8l4 2 3 4Z"/><path fill="#FF64FF" id="MB" d="m273 202-1 1 1-1Z"/><path fill="#C7CCCC" id="IIIn" d="m272 204 1 2 3-3c0-1.473-1.952-1-3-1l-1 1v1Z"/><path fill="#7ECE4A" id="DG-po" d="m121 203 3 3-3-3Z"/><path fill="#FF8EFE" id="PN" d="M211 215h1l1-1 1-1 5-5 3-3-3-2c0 4.688-8 6.425-8 12Z"/><path fill="#FEA4FF" id="IPDM" d="m219 208 2 2c2.425 0 5-5.116 5-7-2.424 0-2.76 2-4 2l-3 3Z"/><path fill="#FF8EFE" id="PN" d="m245 216 1 1c0-6.256-9-11.095-9-14l-3 1 3 4 5 5 1 1 2 2Z"/><path fill="#C7C8CC" id="alv" d="m318 203-1 2v-2h1Z"/><path fill="#7ECE4A" id="DG-po" d="m335 203-1 1 1-1Z"/><path fill="#C7C8CC" id="alv" d="m386 203-1 2 1-2Z"/><path fill="#FF64FF" id="MB" d="M269 211h1c1.077 0 3-3.762 3-5l-1-2-3 7Z"/><path fill="#C7C8CC" id="alv" d="M383 209h1l1-2v-2c-2.109 0-2 2.535-2 4ZM317 206l-1 2 1-2Z"/><path fill="#7ECE4A" id="DG-po" d="m333 206-1 1 1-1ZM332 207l-1 1 1-1Z"/><path fill="#C8CBCC" id="ec" d="m385 207-1 2 1-2Z"/><path fill="#7ECE4A" id="DG-po" d="M125 208c2.054 0 9.282 9 18 9l-2 3.5c-3.846 7.691-16-10.038-16-12.5Z"/><path fill="#C7CCCC" id="IIIn" d="M173 220h1l6-9-3-3c0 3.784-4 5.29-4 12Z"/><path fill="#FDA6FE" id="IPDL" d="M217 219h4v-9l-2-2-5 5 3 6ZM235 218l5 1 2-6-5-5c0 1.747-.253 2-2 2v8Z"/><path fill="#C7CCCC" id="IIIn" d="M279 208c-1.577 0-2 1.762-2 3 0 1.695 6.057 9.386 7 7.5 1.826-3.651-5-7.164-5-10.5Z"/><path fill="#C7C8CC" id="alv" d="m316 208-1 2 1-2Z"/><path fill="#7ECE4A" id="DG-po" d="m330 209-1 2 1-2Z"/><path fill="#C7C8CC" id="alv" d="M381 212h1l1-1v-2c-1.577 0-2 1.762-2 3Z"/><path fill="#C8CBCC" id="ec" d="m384 209-1 2v-2h1Z"/><path fill="#FF8DFD" id="SNr" d="M174 220c4.425 0 9.961 1 15 1 9.194 0 1-3.46 1-7l-2-2-3-2 3 4.5c.451.902-.089 3.206-1.5 2.5l-6.5-6-6 9Z"/><path fill="#C7C8CC" id="alv" d="M313 217h1l1-7c-1.638 0-2 3.576-2 5v2Z"/><path fill="#7ECE4A" id="DG-po" d="M329 211c-4.205 0-8.348 6-15 6 0 12.744 15-.53 15-6Z"/><path fill="#C8CBCC" id="ec" d="m383 211-1 1 1-1Z"/><path fill="#C7C8CC" id="alv" d="m381 212-1 1 1-1Z"/><path fill="#C8CBCC" id="ec" d="M380 213v2c1.577 0 2-1.762 2-3h-1l-1 1Z"/><path fill="#FEA5FF" id="IPL" d="m218 234 4 1-1-3c-4.337 0-4-9.929-4-13l-3-6-1 1-1 1-1 2-1 1c0 2.014-2.284 5.932-1 8.5 1.157 2.314 7 4.546 7 6.5h1l1 1ZM241 233l-6 2v-2c3.724 0 5-11.222 5-14l2-6 1 1 2 2 1 1c0 2.454 2.489 7.523 1 10.5l-3 3.5h-1l-1 1-1 1Z"/><path fill="#C7C8CC" id="alv" d="m380 215-3 2c0-1.429 1.288-4 3-4v2Z"/><path fill="#FF64FF" id="MB" d="M189 221c0 .041 8.389 3 9 3 0-2.841-5.208-10-8-10 0 3.54 8.194 7-1 7Z"/><path fill="#FFA6FE" id="IPN" d="m213 214-1 1 1-1ZM243 214l2 2-2-2Z"/><path fill="#7DCD4B" id="HPF" d="M143 217h2l-1-2h-1v2Z"/><path fill="#FFA6FE" id="IPN" d="m212 215-1 2v-2h1Z"/><path fill="#FF64FF" id="MB" d="m265 215-1 1 1-1Z"/><path fill="#7DCD4B" id="HPF" d="M312 217h1v-2l-1 2Z"/><path fill="#C8CBCC" id="ec" d="M377 217v2c1.712 0 3-2.571 3-4l-3 2Z"/><path fill="#FF64FF" id="MB" d="m264 216-1 1 1-1Z"/><path fill="#FFA6FE" id="IPN" d="m211 217-1 1 1-1Z"/><path fill="#FFA5FE" id="IPC" d="M222 235h13v-17c-5.321 0-9.295-1-14-1v15l1 3Z"/><path fill="#FF64FF" id="MB" d="M267 221c0 1.059-6.743 2-8 2 0-1.664 1.823-6 4-6 0 3.591-.519 4 4 4Z"/><path fill="#C7C8CC" id="alv" d="M374 221h1l2-2v-2c-1.712 0-3 2.571-3 4Z"/><path fill="#FEA6FD" id="IPI" d="M240 219c0 2.778-1.276 14-5 14v-15l5 1ZM221 219v13c-4.337 0-4-9.929-4-13h4Z"/><path fill="#C8CBCC" id="ec" d="M375 221h1l1-2-2 2Z"/><path fill="#8AD987" id="CTXsp" d="M79 223h3l-2-2-1 2Z"/><path fill="#C7C8CC" id="alv" d="m374 221-1 1 1-1Z"/><path fill="#C8CBCC" id="ec" d="M373 223h2v-2h-1l-1 1v1Z"/><path fill="#8AD987" id="CTXsp" d="M375 223h2l-1-2h-1v2Z"/><path fill="#C7C8CC" id="alv" d="M372 223h1v-1l-1 1Z"/><path fill="#A0ED9D" id="EPv" d="m89 229-1 2c-2.217 0-13-1.36-13-4v-1l2-3h5l7 6Z"/><path fill="#FF64FF" id="MB" d="m259 223-1 1 1-1Z"/><path fill="#C7C8CC" id="alv" d="m372 223-1 1 1-1Z"/><path fill="#C8CBCC" id="ec" d="M371 224v1c1.747 0 2-.253 2-2h-1l-1 1Z"/><path fill="#A0ED9D" id="EPv" d="m368 229 1 2c2.011 0 12-1.62 12-4v-1l-2-3h-6c0 1.747-.253 2-2 2l-1 1-1 1-1 1v1Z"/><path fill="#FF64FF" id="MB" d="m162 224 1 1-1-1ZM258 224l-1 1 1-1ZM294 224l-1 1 1-1Z"/><path fill="#C7C8CC" id="alv" d="M370 225h1v-1l-1 1Z"/><path fill="#FF64FF" id="MB" d="m203 227-4 1v-3l4 2ZM253 227l5 2-1-4-4 2Z"/><path fill="#C7C8CC" id="alv" d="M369 226h1v-1l-1 1Z"/><path fill="#C8CBCC" id="ec" d="m371 225-1 1v-1h1Z"/><path fill="#99D2BD" id="OLF" d="M73 227h2v-1l-2 1Z"/><path fill="#C7C8CC" id="alv" d="M368 227h1v-1l-1 1Z"/><path fill="#C8CBCC" id="ec" d="m370 226-1 1v-1h1Z"/><path fill="#99D2BD" id="OLF" d="M381 227h2l-2-1v1Z"/><path fill="#A8ECD2" id="TR" d="M97 251c-2.809 0-12 10.278-12 13-12.276 0-28.587-9.674-34-20.5-1.367-2.734-7-4.902-7-9.5l4-1 11-3 8-2 6-1h2c0 2.64 10.783 4 13 4l5 1 8 6 1 2c0 3.909-3 7.158-3 10h-1l-1 1Z"/><path fill="#C7C8CC" id="alv" d="M365 229h2l1-1v-1c-1.238 0-3 .423-3 2Z"/><path fill="#C8CBCC" id="ec" d="m369 227-1 1v-1h1Z"/><path fill="#A8ECD2" id="TR" d="M359 251c3.398 0 12 9.858 12 13 11.114 0 41-17.625 41-30 0-1.473-1.952-1-3-1-4.181 0-7.249-3-11-3l-9-2-6-1h-2c0 2.38-9.989 4-12 4h-4l-1 1-1 1h-1l-1 1-1 1h-1l-2 1-1 1-1 1-1 1v1c0 4.973 5 9.017 5 11Z"/><path fill="#33B931" id="HATA" d="m344 243-17 7c0-5.903-6-10.858-6-17l1-1 4-4c0 2.591 15.738 13 18 13v2Z"/><path fill="#C8CBCC" id="ec" d="M367 229h1v-1l-1 1Z"/><path fill="#8AD987" id="CTXsp" d="M93 231v1l-5-1 1-2 3 2h1Z"/><path fill="#33B931" id="HATA" d="M113 243c5.764 0 9.699 6 16 6 1.156 0 6-13.555 6-16v-1l-1-1-3-2c-3.254 0-12.84 12-18 12v2Z"/><path fill="#C7C8CC" id="alv" d="M364 230h1v-1l-1 1Z"/><path fill="#C8CBCC" id="ec" d="m367 229-2 1v-1h2Z"/><path fill="#8AD987" id="CTXsp" d="M365 231h4l-1-2h-1l-2 1v1Z"/><path fill="#C7C8CC" id="alv" d="M363 231h1v-1l-1 1Z"/><path fill="#C8CBCC" id="ec" d="M364 231h1v-1h-1v1ZM111 241v1c-2.607 0-4.913-3-7-3l-3-1-8-6v-1l3 2h1l2 2h1l2 2h1l3 2h1l4 2Z"/><path fill="#7DCD4B" id="HPF" d="m134 231 1 1-1-1Z"/><path fill="#FF64FF" id="MB" d="m243 231-1 1 1-1Z"/><path fill="#C7C8CC" id="alv" d="M361 233h1l1-1v-1c-1.238 0-3 .423-3 2h1Z"/><path fill="#C8CBCC" id="ec" d="M363 232h1v-1h-1v1Z"/><path fill="#8AD987" id="CTXsp" d="m365 231-1 1v-1h1Z"/><path fill="#FF64FF" id="MB" d="m242 232-1 1 1-1Z"/><path fill="#7DCD4B" id="HPF" d="m322 232-1 1 1-1Z"/><path fill="#C8CBCC" id="ec" d="M362 233h1v-1l-1 1Z"/><path fill="#8AD987" id="CTXsp" d="m364 232-1 1v-1h1Z"/><path fill="#C7C8CC" id="alv" d="m97 233 2 2-2-2Z"/><path fill="#FF64FF" id="MB" d="m217 233 1 1-1-1Z"/><path fill="#C7C8CC" id="alv" d="M357 235h2l1-1v-1c-1.238 0-3 .423-3 2Z"/><path fill="#C8CBCC" id="ec" d="M360 234h1v-1h-1v1Z"/><path fill="#8AD987" id="CTXsp" d="m362 233-1 1v-1h1Z"/><path fill="#FF9B88" id="P" fill-rule="evenodd" d="m242 236-6 3.5c-1.858 3.715-3.064 8.873-1 13l6.5 5.5 27-1c2.971-1.485 1.475-3.45 2.5-5.5 4.505-9.009-7.796-14.5-15-14.5-4.351 0-9.131-1-14-1m-59 25c0 3.959 18.781 2 22 2 5.918 0 15.488 1.506 20.5-1 2-1 .764-6 3-6 .149 0 .211 4.606 3 6 4.173 2.087 11.544 1 16.5 1 4 0 25 2.082 25-2-.82 0 2.197-6.895 3-8.5 1.898-3.795-3-8.397-3-11.5-7.105 0-23.581-10.96-33.5-6-4.262 2.131-8.386 6.273-10.5 10.5l-.5 9.5-.5-7.5c-1.587-3.174-3.642-8.571-7.5-10.5-3.212-1.606-23.5-4.757-23.5 0l14.5-1c11.406 0 12.344 10.811 8.5 18.5-1.92 3.84-28.942 4.279-32.5 2.5l-2.5-3.5c-6.668-13.335 12-14.31 12-16.5-5.313 0-9.231 4-14 4 0 3.756-4.321 9.859-2 14.5.938 1.876 5.72 5.5 2 5.5Z"/><path fill="#C8CBCC" id="ec" d="M359 235h1v-1l-1 1Z"/><path fill="#8AD987" id="CTXsp" d="m361 234-1 1v-1h1Z"/><path fill="#C7C8CC" id="alv" d="m100 235 2 2-2-2ZM355 236h2v-1l-2 1Z"/><path fill="#C8CBCC" id="ec" d="m359 235-2 1v-1h2Z"/><path fill="#FFB885" id="PG" d="M197 237c0 2.19-18.668 3.165-12 16.5l2.5 3.5c3.558 1.779 30.58 1.34 32.5-2.5 3.844-7.689 2.906-18.5-8.5-18.5l-14.5 1ZM242 236l-6 3.5c-1.858 3.715-3.064 8.873-1 13l6.5 5.5 27-1c2.971-1.485 1.475-3.45 2.5-5.5 4.505-9.009-7.796-14.5-15-14.5-4.351 0-9.131-1-14-1Z"/><path fill="#C7C8CC" id="alv" d="M354 237h1v-1l-1 1Z"/><path fill="#C8CBCC" id="ec" d="M355 237h1l1-1h-2v1Z"/><path fill="#C7C8CC" id="alv" d="M103 237c1.238 0 3 .423 3 2l-3-2ZM353 237l-1 1 1-1Z"/><path fill="#C8CBCC" id="ec" d="M353 239h1l1-1v-1h-2l-1 1v1h1Z"/><path fill="#8AD987" id="CTXsp" d="m356 237-1 1v-1h1Z"/><path fill="#C7C8CC" id="alv" d="M350 239h2v-1l-2 1Z"/><path fill="#97EC93" id="PA" d="M106 251c8.428 0 15.064 7 19 7 0-2.864 4-5.35 4-9-6.301 0-10.236-6-16-6l-2-1c-2.607 0-4.913-3-7-3l-2 1c0 3.909-3 7.158-3 10l7 1Z"/><path fill="#C7C8CC" id="alv" d="m107 239 4 2-4-2ZM345 241h3l1-2-4 2Z"/><path fill="#C8CBCC" id="ec" d="m352 239-4 2 1-2h3Z"/><path fill="#97EC93" id="PA" d="M351 251h8c0-1.983-5-6.027-5-11l-1-1h-1l-4 2c0 1.473-1.952 1-3 1l-1 1-17 7 5 8c1.534 0 10.693-7 19-7Z"/><path fill="#7DCD4B" id="HPF" d="M113 241v1l-1-1h1Z"/><path fill="#CCCCCA" id="mcp" d="M169 246c0 15.753-.077 15 14 15 3.72 0-1.062-3.624-2-5.5-2.321-4.641 2-10.744 2-14.5-2.979 0-6.23 2-10 2l-1 1-2 1-1 1ZM286 245c4.372 0-.02 13.54-1 15.5-1.813 3.626-9.532.5-12 .5-.82 0 2.197-6.895 3-8.5 1.898-3.795-3-8.397-3-11.5l4 1 1 1c2.409 0 5.181 1 7 1l1 1Z"/><path fill="#7DCD4B" id="HPF" d="M344 242h1v-1h-1v1Z"/><path fill="#C8CBCC" id="ec" d="M348 241c0 1.473-1.952 1-3 1v-1h3Z"/><path fill="#F0F080" id="CB" d="m277 242 1 1-1-1ZM173 243l-1 1 1-1ZM285 244l1 1-1-1ZM170 245l-1 1 1-1Z"/><path fill="#97EC93" id="PA" d="m98 250-1 1 1-1Z"/><path fill="#5FE6B7" id="COApl" d="m85 264 10 7c0-6.584 2.876-9.252 6-15.5l5-4.5-7-1h-1l-1 1c-2.809 0-12 10.278-12 13ZM371 264l-9 6c0-8.11-11-15.442-11-19h8c3.398 0 12 9.858 12 13Z"/><path fill="#60E6B5" id="COApm" d="M125 258c0 5.588-17.576 16-22.5 16-2.137 0-5.73-3-7.5-3 0-6.584 2.876-9.252 6-15.5l5-4.5c8.428 0 15.064 7 19 7ZM332 258c0 6.035 17.842 17.329 22.5 15 1.829-.915 7.5.669 7.5-3 0-8.11-11-15.442-11-19-8.307 0-17.466 7-19 7Z"/></svg>