<svg xmlns="http://www.w3.org/2000/svg" viewBox="0 0 456 320"><path fill="#1BA598" id="RSPd1" d="M220 25h1l1-2c0-2.926-2.565-5.032-4.5-6-4.043-2.022-15.208-11.396-22-8l-6.5 2v4c10.021 0 23.491-3.517 29 7.5l2 2.5ZM236 25h1c0-2.477 2.011-2.522 3-4.5 4.575-9.15 18.531-5.5 27-5.5l1-4c-2.654 0-5.275-.888-7.5-2-5.083-2.541-19.039 5.04-22.5 8.5l-4 5.5 2 2Z"/><path fill="#1BA696" id="RSPagl1" d="m189 16-14 2v-5c5.211 0 8.527-2 14-2v5ZM267 16l14 2 1-5c-5.237 0-8.634-2-14-2l-1 4v1Z"/><path fill="#019FAC" id="VISa1" d="M127 30h1l11.5-5c9.258-4.63 24.601-7 35.5-7v-5c-12.531 0-31.931 4.715-42.5 10-1.765.883-10.5 1.45-10.5 4 1.717 0 5 1.38 5 3ZM334 27c0 .65-5 .977-5 3l-12.5-5c-8.293-4.147-25.494-7-35.5-7l1-5c12.42 0 31.028 4.764 41.5 10 1.92.96 10.5.85 10.5 4Z"/><path fill="#1BA697" id="RSPd2/3" d="M215 29h1l4-4-2-2.5c-5.509-11.017-18.979-7.5-29-7.5v1l1 7c5.433 0 25-3.146 25 6ZM237 25l4 3 6.5-5c5.466-2.733 12.667 0 18.5 0l1-7v-1c-8.469 0-22.425-3.65-27 5.5-.989 1.978-3 2.023-3 4.5Z"/><path fill="#1AA496" id="RSPagl2/3" d="M177 27v1c4.213 0 8.239-4 13-4v-1l-1-7-14 2 2 9ZM280 27v1l-14-5 1-7 14 2-1 9Z"/><path fill="#009EAB" id="VISa2/3" fill-rule="evenodd" d="M131 30c0 2.091 3.746 0 0 0m-3 0c0 1.183 3.57 1.535 4.5 2 2.702 1.35 4.625 4 8.5 4 11.316 0 21.873-8 35-8l1-1-2-9c-10.899 0-26.242 2.37-35.5 7L128 30Z"/><path fill="#009EAB" id="VISa2/3" d="m313 36 3 1c0-1.926 12.121-6 13-6v-1l-12.5-5c-8.293-4.147-25.494-7-35.5-7l-1 9c7.133 0 17.344 2.922 23.5 6 1.437.719 9.5 1.343 9.5 3Z"/><path fill="#1AA596" id="RSPd5" d="M189 36c3.862 0 18-7.861 18 2 1.497 0 8-8.102 8-9 0-9.146-19.567-6-25-6v1c0 3.962-1 8.688-1 12ZM267 36c-3.875 0-9.238-5.13-13.5-3l-4.5 4c-3.087 0-5.569-8-8-8v-1l6.5-5c5.466-2.733 12.667 0 18.5 0 0 4.628 1 7.83 1 13Z"/><path fill="#1BA597" id="RSPv1" d="M230 68h2c0-3.954-.372-34.757 0-35.5l4-7.5-2-2-5.5 8c-2.551 0-3.173-8-6.5-8l-1 2 4 8.5c.748 1.495-.477 2.953-1 4-2.646 5.292 1 24.523 1 30.5h2c0-5.86 3-4.761 3 0Z"/><path fill="#1CA697" id="RSPagl5" d="m267 37 11 4c0-1.496.988-12 2-12v-1l-14-5c0 4.628 1 7.83 1 13v1ZM178 41h1l10-4v-1c0-3.312 1-8.038 1-12-4.761 0-8.787 4-13 4l1 13Z"/><path fill="#1AA597" id="RSPv2/3" d="M223 68h2c0-5.977-3.646-25.208-1-30.5.523-1.047 1.748-2.505 1-4l-4-8.5h-1l-4 4c0 10.856 5 26.51 5 38l2 1ZM232 68h1c1.048 0 3 .473 3-1l3-34.5 2-3.5v-1l-4-3h-1l-4 7.5c-.372.743 0 31.546 0 35.5Z"/><path fill="#187C64" id="SSp-tr1" d="M127 30c0 2.16-6.07 3-8 3l-2-4c1.624 0 2.75-2 5-2 1.717 0 5 1.38 5 3Z"/><path fill="#019EAC" id="VISa4" d="M176 28h1v-1l-1 1ZM313 36c0 3.363-4 1.761-4 3-9.789 0-19.131-10-29-10v-2c7.133 0 17.344 2.922 23.5 6 1.437.719 9.5 1.343 9.5 3Z"/><path fill="#187C64" id="SSp-tr1" d="m329 31 8 2 2-4c0-1.638-3.576-2-5-2 0 .65-5 .977-5 3v1Z"/><path fill="#019EAC" id="VISa4" d="M147 39h1l21.5-8c1.326-.663 6.5-1.002 6.5-3-13.127 0-23.684 8-35 8v1c2.439 0 2.666 2 6 2Z"/><path fill="#019EAB" id="VISa5" d="M161 45h1c5.661 0 10.584-4 16-4l-1-13h-1c0 1.998-5.174 2.337-6.5 3L148 39c0 1.837 11.274 6 13 6Z"/><path fill="#188060" id="SSp-bfd1" d="M61 74h1c0-2.038 10.144-10.644 12-12.5 8.368-8.368 33.365-27.5 45-27.5v-1l-2-4c-9.637 0-38.166 20.666-46 28.5-2.969 2.969-12 9.381-12 13.5l2 3Z"/><path fill="#1BA498" id="RSPv5" d="M217 66c0 1.58 2.855 1 4 1 0-11.49-5-27.144-5-38h-1c0 .898-6.503 9-8 9v1c0 6.701 7 20.684 7 24l3 3ZM240 66l-4 1 3-34.5 2-3.5c2.431 0 4.913 8 8 8v2c0 8.73-6 16.113-6 24l-3 3Z"/><path fill="#019EAB" id="VISa5" d="M294 45h1c.312 0 14-3.623 14-6-9.789 0-19.131-10-29-10-1.012 0-2 10.504-2 12l16 4Z"/><path fill="#188060" id="SSp-bfd1" d="M394 74h1l3-3c0-4.356-8.682-7.864-10-10.5-1.332-2.664-7.391-7.946-10.5-9.5-8.585-4.293-27.862-22-38.5-22l-2 4v1c12.276 0 36.118 18.618 45 27.5 3.056 3.056 12 8.253 12 12.5Z"/><path fill="#188061" id="SSp-tr2/3" d="M123 43h1c5.623 0 10.67-6 17-6v-1c-3.875 0-5.798-2.65-8.5-4-.93-.465-4.5-.817-4.5-2h-1c0 2.16-6.07 3-8 3v1c1.289 0 4 7.597 4 9ZM131 30c0 2.091 3.746 0 0 0ZM316 37c6.142 0 11.097 6 17 6l4-9v-1l-8-2c-.879 0-13 4.074-13 6Z"/><path fill="#1AA697" id="RSPd6a" d="M191 48h10c0-1.549 4.672-9 6-9v-1c0-9.861-14.138-2-18-2v1c.706 0 2 9.958 2 11ZM265 48h1l1-11v-1c-3.875 0-9.238-5.13-13.5-3l-4.5 4v2c2.019 0 6 7.11 6 9h10Z"/><path fill="#187F63" id="SSp-bfd2/3" d="M62 74c0 2.935 5 5.678 5 7.5l2 .5 8-9.5c5.136-10.271 22.97-18.235 33.5-23.5 3.529-1.765 8.469-6 12.5-6 0-1.403-2.711-9-4-9-11.635 0-36.632 19.132-45 27.5-1.856 1.856-12 10.462-12 12.5ZM394 74c0 2.231-5.744 8-7 8 0-3.82-6.753-7.006-8-9.5-3.839-7.677-37.059-29.5-46-29.5l4-9c12.276 0 36.118 18.618 45 27.5 3.056 3.056 12 8.253 12 12.5Z"/><path fill="#1B7E62" id="SSp-tr4" d="M330 49h1c0-2.72 2-3.553 2-6-5.903 0-10.858-6-17-6l-3-1c0 3.363-4 1.761-4 3l21 10ZM124 43c0 2.483 2 4.026 2 6 4.764 0 11.276-5.888 15.5-8 1.319-.66 5.5.334 5.5-2-3.334 0-3.561-2-6-2-6.33 0-11.377 6-17 6Z"/><path fill="#1CA597" id="RSPagl6a" d="m191 48-10 2c0-2.755-2-5.553-2-9l10-4c.706 0 2 9.958 2 11ZM266 48l10 2 2-9-11-4-1 11Z"/><path fill="#197F60" id="SSp-tr5" d="M130 58h1c0-1.802 21.28-9.39 24.5-11 1.114-.557 5.5-.41 5.5-2-1.726 0-13-4.163-13-6h-1c0 2.334-4.181 1.34-5.5 2-4.224 2.112-10.736 8-15.5 8v1l4 8Z"/><path fill="#1AA498" id="RSPv6a" d="m209 59 5 4c0-3.316-7-17.299-7-24-1.328 0-6 7.451-6 9v1c2.115 0 8 8.185 8 10ZM247 59l-4 4c0-7.887 6-15.27 6-24 2.019 0 6 7.11 6 9 0 3.766-7 6.033-7 10l-1 1Z"/><path fill="#197F60" id="SSp-tr5" d="m330 49-4 8c-4.901 0-19.591-7.545-24.5-10-1.3-.65-6.5-.007-6.5-2 .312 0 14-3.623 14-6l21 10Z"/><path fill="#009DAC" id="VISa6a" d="M176 51h1c0-1.58 2.855-1 4-1 0-2.755-2-5.553-2-9h-1c-5.416 0-10.339 4-16 4 0 2.858 11 2.238 11 6h3ZM281 51h2c0-4.027 11-2.892 11-6l-16-4-2 9 5 1Z"/><path fill="#197C64" id="SSp-bfd4" d="M73 89h1l1-1 11-10.5c9.116-9.116 19.763-16.132 30.5-21.5l9.5-6v-1c0-1.974-2-3.517-2-6h-1c-4.031 0-8.971 4.235-12.5 6C99.97 54.265 82.136 62.229 77 72.5L69 82v1c0 2.33 4 3.227 4 6ZM382 89h1c0-2.773 4-3.67 4-6v-1c0-3.82-6.753-7.006-8-9.5-3.839-7.677-37.059-29.5-46-29.5 0 2.447-2 3.28-2 6 0 3.326 10.576 7.538 13.5 9 9.342 4.671 26.344 16.188 30.5 24.5l7 6.5Z"/><path fill="#188063" id="SSp-tr6a" d="M149 59c-5.467 0-9.17 6-14 6l-4-7c0-1.802 21.28-9.39 24.5-11 1.114-.557 5.5-.41 5.5-2h1c0 2.858 11 2.238 11 6-5.224 0-13.916 2.708-18.5 5l-5.5 3ZM321 65h1c0-1.334 2.717-7 4-7v-1c-4.901 0-19.591-7.545-24.5-10-1.3-.65-6.5-.007-6.5-2h-1c0 3.108-11 1.973-11 6 8.099 0 20.484 4.492 27.5 8 2.905 1.453 7.248 6 10.5 6Z"/><path fill="#1BA698" id="RSPd6b" d="M191 49h10v-1h-10v1ZM256 49h9v-1h-9v1Z"/><path fill="#1AA598" id="RSPagl6b" d="M181 50v1c3.702 0 7.27-2 10-2v-1l-10 2Z"/><path fill="#CACCC7" id="cing" d="m214 63 3 3c-8.941 0-15.089-7.295-22.5-11-8.823-4.411-22.395 2-31.5 2h-5c0-1.638 3.576-2 5-2 3.965 0 8.876-3 13-3l1-1h4c3.702 0 7.27-2 10-2h10c0 1.68 6.882 10 8 10l5 4Z"/><path fill="#1AA497" id="RSPv6b" d="M256 49c0 1.675-6.062 9-8 9 0-3.967 7-6.234 7-10h1v1Z"/><path fill="#CACCC7" id="cing" d="m243 63-3 3c8.45 0 14.466-7.483 21.5-11 8.823-4.411 22.395 2 31.5 2h6l-3.5-2c-1.659-.83-12.597-3-14.5-3l-5-1c-4.23 0-7.554-2-11-2h-9c0 1.675-6.062 9-8 9l-1 1-4 4Z"/><path fill="#1AA598" id="RSPagl6b" d="M276 50v1c-4.23 0-7.554-2-11-2v-1h1l10 2Z"/><path fill="#1AA497" id="RSPv6b" d="M201 49c2.115 0 8 8.185 8 10-1.118 0-8-8.32-8-10Z"/><path fill="#1A7D62" id="SSp-bfd5" d="m382 89-7 8-11.5-13c-5.944-5.944-30.391-26-37.5-26v-1l4-8h1c0 3.326 10.576 7.538 13.5 9 9.342 4.671 26.344 16.188 30.5 24.5l7 6.5ZM81 97h1c0-3.972 7.277-7.053 9-10.5 3.28-6.56 20.846-18.173 27.5-21.5 3.466-1.733 7.511-7 11.5-7l-4-8-9.5 6C105.763 61.368 95.116 68.384 86 77.5L75 88v1l6 8Z"/><path fill="#029FAC" id="VISa6b" d="M177 51h4v-1c-1.145 0-4-.58-4 1ZM281 51v1l-5-1v-1l5 1Z"/><path fill="#1A8063" id="SSp-tr6b" d="M158 57c-3.489 0-5.32 2-9 2l5.5-3c4.584-2.292 13.276-5 18.5-5h3v1c-4.124 0-9.035 3-13 3-1.424 0-5 .362-5 2Z"/><path fill="#029FAC" id="VISa6b" d="m177 51-1 1v-1h1Z"/><path fill="#1A8063" id="SSp-tr6b" d="M320 66h1v-1c-3.252 0-7.595-4.547-10.5-6-7.016-3.508-19.401-8-27.5-8h-2v1c1.903 0 12.841 2.17 14.5 3l3.5 2c2.361 0 18 7.03 18 8l3 1Z"/><path fill="#C9C7C9" id="ccb" d="M353 112h2c0-11.287-18.1-31.3-27.5-36L316 67l-11.5-6c-1.687-.844-11.5-2.06-11.5-4-9.105 0-22.677-6.411-31.5-2-7.034 3.517-13.05 11-21.5 11l-4 1c0 1.473-1.952 1-3 1l-4.5 6-5.5-6-2-1c-1.145 0-4 .58-4-1-8.941 0-15.089-7.295-22.5-11-8.823-4.411-22.395 2-31.5 2 0 1.59-4.386 1.443-5.5 2L140 67c-2.936 0-7.555 7.028-9.5 8-11.905 5.953-28.5 23.713-28.5 37h1l2-1c0-2.941 6.853-13 10-13 0-1.238.423-3 2-3 0-2.244 1.725-6 4-6 0-2.839 7.161-10 10-10 0-1.747.253-2 2-2 0-2.737 8.875-7.688 11.5-9 11.857-5.928 31.912-15.044 46-8 4.747 2.374 15.69 15 19.5 15 6.576 0 13.196 4 18.5 4 2.971 0 11.48-4 17.5-4h1l2-1c0-1.712 2.571-3 4-3 0-1.901 4.332-5 6-5l1-1c0-1.577 1.762-2 3-2 0-5.248 21.74-5.88 25.5-4 4.277 2.138 9.775 1.888 14 4 9.582 4.79 26.17 12.84 31.5 23.5 1.824 3.648 8 7.287 8 11.5 1.329 0 11 13.198 11 14Z"/><path fill="#C9C9CA" id="scwm" d="M140 65v2l17.5-8c1.114-.557 5.5-.41 5.5-2h-5c-3.489 0-5.32 2-9 2 0 3.397-9 2.199-9 6ZM317 65l-1 2-11.5-6c-1.687-.844-11.5-2.06-11.5-4h6c2.361 0 18 7.03 18 8Z"/><path fill="#198060" id="SSp-bfd6a" d="M90 107h1c0-1.947 12.754-15.254 15-17.5l5-4.5c0-2.451 21.129-19 24-19v-1l-4-7h-1c-3.989 0-8.034 5.267-11.5 7-6.654 3.327-24.22 14.94-27.5 21.5-1.723 3.447-9 6.528-9 10.5 0 2.038 6.862 10 8 10Z"/><path fill="#C7C8CC" id="alv" d="M133 77c4.154 0 6.978-5.239 10.5-7 6.829-3.414 32.429-14.285 41-10l8 3c4.268 2.134 14.499 14 18.5 14l-1-2c-3.81 0-14.753-12.626-19.5-15-14.088-7.044-34.143 2.072-46 8-2.625 1.312-11.5 6.263-11.5 9Z"/><path fill="#1AA497" id="RSPv6b" d="m248 58-1 1 1-1Z"/><path fill="#C7C8CC" id="alv" d="M303 111c0 1.665 4.222 1 5.5 1 4.674 0 10.241 1 15.5 1h9.5l4.5-3c0-1.095 4-6.757 4-12 0-4.213-6.176-7.852-8-11.5-5.33-10.66-21.918-18.71-31.5-23.5-4.225-2.112-9.723-1.862-14-4-3.76-1.88-25.5-1.248-25.5 4l8.5-3c8.611-4.306 31.29 5.645 38 9 3.62 1.81 9.705 3.91 11.5 7.5 1.35 2.7 10 4.412 10 8.5 1.712 0 3 2.571 3 4 4.809 0 9.014 16.743 2.5 20-9.784 4.892-21.991 2-33.5 2Z"/><path fill="#198060" id="SSp-bfd6a" d="m375 98-9 9-21.5-24L322 65c0-1.334 2.717-7 4-7 7.109 0 31.556 20.056 37.5 26L375 97v1Z"/><path fill="#1A8063" id="SSp-tr6b" d="M135 66v1l5-2c0-3.801 9-2.603 9-6-5.467 0-9.17 6-14 6v1Z"/><path fill="#7ECF4B" id="CA1" d="m218 97-2 1c-9.438 0-26.906-10.703-35.5-15-8.664-4.332-18.773 6-24.5 6-9.925 0-19.384-4-30-4l5-6 2-2c4.154 0 6.978-5.239 10.5-7 6.829-3.414 32.429-14.285 41-10l8 3c4.268 2.134 14.499 14 18.5 14h1l2 2 2 1 5 5c0 5.603-3 7.95-3 12ZM239 97l2 1c7.515 0 28.145-11.323 35.5-15 9.121-4.56 17.314 6 24.5 6 8.527 0 19.243-4 30-4 0-4.088-8.65-5.8-10-8.5-1.795-3.59-7.88-5.69-11.5-7.5-6.71-3.355-29.389-13.306-38-9l-8.5 3c0 1.577-1.762 2-3 2l-1 1c0 1.901-4.332 5-6 5 0 1.712-2.571 3-4 3l-2 1-1 1-1 1-1 1-2 1-1 1-1 1h-1l-1 1-1 1-2 2c0 5.696 4 8.651 4 12Z"/><path fill="#C7C8CC" id="alv" d="M263 63c-1.238 0-3 .423-3 2 1.238 0 3-.423 3-2Z"/><path fill="#CBC9C7" id="or" d="m89 120 1 4 11-11 1-1c0-13.287 16.595-31.047 28.5-37 1.945-.972 6.564-8 9.5-8v-2l-5 2c-5.501 0-19.017 18-24 18 0 8.145-18 14.1-18 22l-2 4-2 9Z"/><path fill="#C7C8CC" id="alv" d="m260 65-1 1 1-1Z"/><path fill="#CBC9C7" id="or" d="M367 119c0 1.145.579 4-1 4l-11-11c0-11.287-18.1-31.3-27.5-36L316 67l1-2 3 1 1 1c5.899 0 28.032 23.532 33 28.5 2.282 2.282 9 8.355 9 11.5l2 2v1c0 3.489 2 5.32 2 9Z"/><path fill="#1A7E61" id="SSp-bfd6b" d="M365 108h1v-1l-21.5-24L322 65h-1v2c5.899 0 28.032 23.532 33 28.5 2.282 2.282 9 8.355 9 11.5l2 1ZM135 67c-5.501 0-19.017 18-24 18 0-2.451 21.129-19 24-19v1Z"/><path fill="#C7C8CC" id="alv" d="M259 66c-1.668 0-6 3.099-6 5 1.668 0 6-3.099 6-5Z"/><path fill="#1A7D63" id="SSp-un6b" d="M321 66v1l-1-1h1Z"/><path fill="#C7CACC" id="ccs" d="M232 68h1l-4.5 6-5.5-6h9Z"/><path fill="#1A7E62" id="SSs1" d="m39 100 4 4c0-7.094 18-25.393 18-30l-2-3c-2.948 0-20 25.222-20 29Z"/><path fill="#C7C8CC" id="alv" d="M253 71c-1.429 0-4 1.288-4 3 1.429 0 4-1.288 4-3Z"/><path fill="#1A7E62" id="SSs1" d="M418 100c-2.741 0-2.268 4-5 4 0-4.941-9.521-17.542-12-22.5l-6-7.5 3-3 5.5 6c2.712 2.712 14.5 19.918 14.5 23Z"/><path fill="#1B8063" id="SSs2/3" d="M49 117h1c0-7.046 10.706-19.912 14-26.5.716-1.431 3.243-7.5 5-7.5v-1l-2-.5c0-1.822-5-4.565-5-7.5h-1c0 4.607-18 22.906-18 30v1c1.61 0 6 9.697 6 12Z"/><path fill="#C7C8CC" id="alv" d="m249 74-2 1 2-1Z"/><path fill="#1B8063" id="SSs2/3" d="M413 105c-1.415 0-4.278 11-6 11-2.295 0-3.263-6.025-4-7.5-1.509-3.019-14.325-25.5-16-25.5v-1c1.256 0 7-5.769 7-8h1l6 7.5c2.479 4.958 12 17.559 12 22.5v1Z"/><path fill="#C9CCC9" id="dhc" d="M229 85h5c0-1.577 1.762-2 3-2l1-1 1-1h1l1-1 1-1 2-1 1-1 1-1v-1c-6.02 0-14.529 4-17.5 4-5.304 0-11.924-4-18.5-4l1 2h1l2 2 2 1 6 5h5c0-1.4 2-1.4 2 0Z"/><path fill="#C7C8CC" id="alv" d="m247 75-1 1v-1h1ZM246 76l-1 1 1-1ZM133 77c-1.747 0-2 .253-2 2l2-2ZM212 77l2 2-2-2ZM245 77l-1 1 1-1ZM121 89h1l4-4 5-6c-2.839 0-10 7.161-10 10ZM242 79l-1 1 1-1ZM221 85h1l-6-5 5 5ZM241 80l-1 1 1-1ZM239 81l-1 1 1-1ZM238 82l-1 1 1-1Z"/><path fill="#187C63" id="SSs4" d="M44 151h1c0-15.189 7.632-29.764 14-42.5 2.063-4.127 14-16.106 14-19.5 0-2.773-4-3.67-4-6-1.757 0-4.284 6.069-5 7.5-3.294 6.588-14 19.454-14 26.5l-1 1v4c0 1.569-2.67 5-4 5v1l-1 1-1 1c0 1.145.58 4-1 4v1l-1 1-2 13 5 2Z"/><path fill="#7BD04A" id="DG-mo" d="M193 118c2.723 0 5.778 1 9 1 3.238 0 5.3-3 8-3 0-1.577 1.762-2 3-2 0-1.251 4.19-8 5-8v-6l-2-2c-9.438 0-26.906-10.703-35.5-15-8.664-4.332-18.773 6-24.5 6l-2 3c0 3.917 2.868 7 8 7 0-3.35 4.254-2.877 6.5-4 11.086-5.543 19.689 1.344 29 6 3.252 1.626 16.5-1.931 16.5 2.5l-5.5 5.5c-10.388 5.194-13.372 4.314-24-1-1.968-.984-12.5.457-12.5-1l-3 2v2l1 1h1l2 1 7 1 1 1h3l1 1h2l1 1h2l2 1h1Z"/><path fill="#C7C8CC" id="alv" d="M234 85h1l2-2c-1.238 0-3 .423-3 2Z"/><path fill="#7BD04A" id="DG-mo" d="M255 119h6c0-1.473 1.952-1 3-1h1l1-1h2l2-1h1l1-1h4l1-1h2l1-1h3l2-1h1l2-1v-1l-3-2c-7.95 0-13.272-.614-20.5 3-6.998 3.499-11.75 1.125-18-2-1.571-.786-5.902-6.549-3-8l12 1c9.657-4.828 20.525-12.737 32-7 3.7 1.85 6.5-.101 6.5 4 4.671 0 9-1.9 9-7-1.577 0-2-1.762-2-3-7.186 0-15.379-10.56-24.5-6-7.355 3.677-27.985 15-35.5 15l-2 1-1 5.5 6 9.5 2 1 2 2 7 2Z"/><path fill="#187C63" id="SSs4" d="m417 149-5 2c0-13.453-9.21-31.919-15-43.5-1.901-3.802-14-15.424-14-18.5 0-2.773 4-3.67 4-6 1.675 0 14.491 22.481 16 25.5.737 1.475 1.705 7.5 4 7.5v2l1 4c0 2.321 4 8.447 4 7l1 2 1 3 1 1c0 5.237 2 8.634 2 14Z"/><path fill="#1A7E61" id="SSp-bfd6b" d="m93 107-2 1v-1c0-1.947 12.754-15.254 15-17.5l5-4.5c0 8.145-18 14.1-18 22Z"/><path fill="#7DCF4B" id="CA2" d="m156 89-2 3c-3.472 0-11.319-1.41-14.5-3H122l4-4c10.616 0 20.075 4 30 4Z"/><path fill="#7ECD4A" id="FC" d="M218 97h3l2-2 1-1 1-1 1-1 1-7h-6c0 5.603-3 7.95-3 12ZM239 97l-1 1-5-3-1-1-1-1v-1c0-1.835-2-4.235-2-7h6c0 5.696 4 8.651 4 12Z"/><path fill="#7DCF4B" id="CA2" d="M334 89c-8.069 0-18.732-1.384-25.5 2-1.238.62-5.5-1.144-5.5 1-1.577 0-2-1.762-2-3 8.527 0 19.243-4 30-4 1.712 0 3 2.571 3 4Z"/><path fill="#187C63" id="SSs4" d="M74 89h1v-1l-1 1Z"/><path fill="#1C8063" id="SSs5" d="M45 151c3.965 0 8.876 3 13 3 0-9.494 8.742-31.984 13-40.5 2.268-4.535 10-11.431 10-16.5l-6-8h-2c0 3.394-11.937 15.373-14 19.5-6.368 12.736-14 27.311-14 42.5Z"/><path fill="#C7C8CC" id="alv" d="M121 89c-2.275 0-4 3.756-4 6 1.617 0 4-4.583 4-6Z"/><path fill="#7ECF49" id="CA3" d="M154 111h5c0-1.714 5.594-1 7-1l3-1 3-2c2.087 0 4.393-3 7-3 0-6.599-7.15-5-12-5h-5c-5.132 0-8-3.083-8-7-3.472 0-11.319-1.41-14.5-3H121c0 1.417-2.383 6-4 6v10.5c5.297 10.593 26.413 5.5 37 5.5ZM298 111h5c11.509 0 23.716 2.892 33.5-2 6.514-3.257 2.309-20-2.5-20-8.069 0-18.732-1.384-25.5 2-1.238.62-5.5-1.144-5.5 1 0 5.1-4.329 7-9 7h-4c-4.89 0-13-1.253-13 5 1.827 0 8 1.284 8 4l3 2h2c1.49 0 8-.735 8 1Z"/><path fill="#1C8063" id="SSs5" d="m412 151-14 3c0-11.716-5.989-27.477-11-37.5L375 98v-1l7-8h1c0 3.076 12.099 14.698 14 18.5 5.79 11.581 15 30.047 15 43.5Z"/><path fill="#A8A9AA" id="V3" d="m236 105-1 1c0-2.022 1.006-11.253-3.5-9-1.197.599-2.023 6.989-4 6-2.452-1.226-.849-6-4.5-6v-2l1-1 1-1 1-1h5v1l1 1 1 1c0 .135 3 5.287 3 10Z"/><path fill="#65A83D" id="DG-sg" d="M179 104c-2.607 0-4.913 3-7 3 0 1.457 10.532.016 12.5 1 10.628 5.314 13.612 6.194 24 1l5.5-5.5c0-4.431-13.248-.874-16.5-2.5-9.311-4.656-17.914-11.543-29-6-2.246 1.123-6.5.65-6.5 4h5c0-1.784 7.653-2 9.5-2 7.547 0 12.785 3.892 19 7l7.5 2.5c0 2.19-5.242 1.5-6.5 1.5-5.791 0-11.02-4-17.5-4ZM277 104c1.827 0 8 1.284 8 4-7.95 0-13.272-.614-20.5 3-6.998 3.499-11.75 1.125-18-2-1.571-.786-5.902-6.549-3-8l12 1c9.657-4.828 20.525-12.737 32-7 3.7 1.85 6.5-.101 6.5 4h-4c0-1.784-7.653-2-9.5-2-8.569 0-14.923 4.461-22 8l-5.5 1.5c0 2.19 5.242 1.5 6.5 1.5 5.791 0 11.02-4 17.5-4Z"/><path fill="#C7C8CC" id="alv" d="m154 112-22 1c-5.945 0-12.584-3-14-3l-3-3.5V98c0-1.238.423-3 2-3v10.5c5.297 10.593 26.413 5.5 37 5.5v1Z"/><path fill="#197D63" id="SSs6a" d="m58 154 11 3c0-4.285 7.708-28 10-28 0-8.709 11-15.233 11-22-1.138 0-8-7.962-8-10h-1c0 5.069-7.732 11.965-10 16.5-4.258 8.516-13 31.006-13 40.5Z"/><path fill="#7ECE4A" id="DG-po" d="M167 99c4.85 0 12-1.599 12 5 6.48 0 11.709 4 17.5 4 1.258 0 6.5.69 6.5-1.5l-7.5-2.5c-6.215-3.108-11.453-7-19-7-1.847 0-9.5.216-9.5 2Z"/><path fill="#7DCD4B" id="HPF" d="m216 98 2 2v-3l-2 1Z"/><path fill="#A8A9AA" id="V3" d="m222 97-1 2v-2h1Z"/><path fill="#A9AAA8" id="chpl" d="M230 116v1l-4-1-4-8-1-1v-8l1-2h1c3.651 0 2.048 4.774 4.5 6 1.977.989 2.803-5.401 4-6 4.506-2.253 3.5 6.978 3.5 9v2l-1 1-1 1-2 5-1 1Z"/><path fill="#7DCD4B" id="HPF" d="m241 98-2 1-1-1 1-1 2 1Z"/><path fill="#7ECE4A" id="DG-po" d="M290 99c-4.89 0-13-1.253-13 5-6.48 0-11.709 4-17.5 4-1.258 0-6.5.69-6.5-1.5l5.5-1.5c7.077-3.539 13.431-8 22-8 1.847 0 9.5.216 9.5 2Z"/><path fill="#A8AAAA" id="VL" d="m115 127-4 1c0-4.226-.251-17-6-17 0-2.941 6.853-13 10-13v8.5l3 3.5-3 1c0-2.407-3.05-2.399-4-.5-1.025 2.05 1.227 5.453 2 7 .658 1.315-2.138 5.725-1 8 .802 1.603 2.153-.5 3-.5v2ZM353 112c-7.793 0-4.05.601-7 6.5-.703 1.406 1.261 7.5-1 7.5 0-1.462.04-16.419 0-16.5-.835-1.669-4 .075-4 1.5l-3-1c0-1.095 4-6.757 4-12 1.329 0 11 13.198 11 14Z"/><path fill="#197D63" id="SSs6a" d="M398 154c-4.37 0-6.659 3-11 3 0-12.875-7.567-26.633-13-37.5l-8-11.5v-1l9-9 12 18.5c5.011 10.023 11 25.784 11 37.5Z"/><path fill="#A8A9AA" id="V3" d="M221 99c-1.566 0-1.566 5 0 5v-5Z"/><path fill="#039399" id="AUDd1" d="m31 117 6 1c0-1.725 4.13-12 6-12v-2l-4-4-2 3.5c-1.796 3.592-6 9.434-6 13.5ZM425 117l-6 1c0-2.082-4.08-13-6-13v-1c2.732 0 2.259-4 5-4 0 5.383 7 11.071 7 17Z"/><path fill="#029397" id="AUDd2/3" d="M47 121v1c-3.385 0-6.951-4-10-4 0-1.725 4.13-12 6-12v-1c1.61 0 6 9.697 6 12v2l-1 1-1 1Z"/><path fill="#FF8D9F" id="MH" d="M223 131h2l2-6.5c1.284-2.568-1-6.486-1-8.5l-4-8-1-1v-1h-3c0 1.296-.825 7-2 7 0 2.607-3 4.913-3 7l9 11h1ZM231 131h3l1-1 8-10c0-1.974-2-3.517-2-6-3.545 0-.26-9-5-9l-1 1v2l-1 1-1 1-2 5-1 1v1l1 14Z"/><path fill="#029397" id="AUDd2/3" d="M409 122h1c0-1.408 7.407-3 9-3v-1c0-2.082-4.08-13-6-13-1.415 0-4.278 11-6 11v2c2.109 0 2 2.535 2 4Z"/><path fill="#1A8061" id="SSs6b" d="M91 111c-3.403 0-11.035 18-12 18 0-8.709 11-15.233 11-22h1v4Z"/><path fill="#C9C9CA" id="scwm" d="M91 108v3l2-4-2 1Z"/><path fill="#A8A9AA" id="V3" d="m221 107 1 1-1-1Z"/><path fill="#C9C9CA" id="scwm" d="M365 108v1l-2-2 2 1Z"/><path fill="#A8A9AA" id="V3" d="m235 108-1 1 1-1Z"/><path fill="#1A8061" id="SSs6b" d="M386 157h1c0-12.875-7.567-26.633-13-37.5l-8-11.5h-1v2c2.651 0 16 26.575 16 30v1l1 1v1l1 1c0 4.492 3 8.296 3 13Z"/><path fill="#A9AAA8" id="chpl" d="M115 111v14c-.847 0-2.198 2.103-3 .5-1.138-2.275 1.658-6.685 1-8-.773-1.547-3.025-4.95-2-7 .95-1.899 4-1.907 4 .5Z"/><path fill="#7DCD4B" id="HPF" d="M166 111h3v-2l-3 1v1Z"/><path fill="#A8A9AA" id="V3" d="m234 109-1 1 1-1Z"/><path fill="#A9AAA8" id="chpl" d="M342 126h3c0-1.462.04-16.419 0-16.5-.835-1.669-4 .075-4 1.5l1 15Z"/><path fill="#CBC8CB" id="fi" d="M115 132c0 6.537 6.096 6 10 6l4-7c0-6.688 3-12.188 3-18-5.945 0-12.584-3-14-3l-3 1v21Z"/><path fill="#C7C8CC" id="alv" d="M159 111h7v-1c-1.406 0-7-.714-7 1Z"/><path fill="#7DCD4B" id="HPF" d="M288 111h2v-1h-2v1Z"/><path fill="#C7C8CC" id="alv" d="M290 111h8c0-1.735-6.51-1-8-1v1Z"/><path fill="#CBC8CB" id="fi" d="M341 132c0 6.557-4.768 6-9 6l-4-5.5c-1.845-3.691-4-16.385-4-19.5h9.5l4.5-3 3 1 1 15v1l-1 5Z"/><path fill="#C9C9CA" id="scwm" d="m378 139 3 1c0-3.425-13.349-30-16-30 0 3.489 2 5.32 2 9 1.463 0 11 17.782 11 20ZM76 139h2c0-1.996 9.628-19 11-19l2-9c-3.403 0-11.035 18-12 18 0 3.823-3 6.314-3 10Z"/><path fill="#A8AAAA" id="VL" d="m105 111-2 1 2-1Z"/><path fill="#98D5F9" id="CP" d="m105 195-4.5 4c-5.408 2.704-10.788-1-15.5-1l-7-7-4-6c0-5.361-1-12.004-1-18v-3c1.643 0 1-3.765 1-5 1.58 0 1-2.855 1-4 1.58 0 1-2.855 1-4 1.473 0 1-1.952 1-3l1-3 12-21 11-11 1-1h1l2-1c5.749 0 6 12.774 6 17v2l-5 1-1-1c0-3.637-5.615 4.731-6 5.5-2.411 4.822-1 10.657-1 15.5l1 5c0 2.312-.379 13 2 13v2c-1.58 0-1 2.855-1 4-1.535 0-1.535 4 0 4v2l1 1c0 4.728 4 8.359 4 13ZM371 198l-1 1c-4.724 0-18 2.73-18-5 0-4.871 4-8.351 4-13 2.765 0 0-8.94 0-10v-2c0-2.723 1-5.778 1-9 1.735 0 1-6.51 1-8v-2l1-1c0-5.861-.583-11.667-3-16.5-.409-.819-5-6.12-5-2.5l-1 1-5-1v-4c2.261 0 .297-6.094 1-7.5 2.95-5.899-.793-6.5 7-6.5h2l11 11c0 1.593 7.748 14.996 9 17.5l3 4.5 1 3c0 1.041.986 5 2 5v1l1 5 1 2v23c-1.504 0-4 5.699-4 7l-8 7Z"/><path fill="#C9C7C9" id="ccb" d="m102 112-1 1 1-1Z"/><path fill="#FE909D" id="LP" d="m156 112-2 1v-1h2Z"/><path fill="#FF909D" id="LD" d="M146 138h2l10.5-3H177c0-6.387 1.05-10.399-2-16.5l-8-6.5h-11l-2 1h-4c0 2.737-.878 11-5 11v4c0 3.325 1 7.31 1 10Z"/><path fill="#FE909D" id="LP" d="m182 141 6 2c0-7.173 10-16.032 10-21l-5-4h-1l-2-1h-2l-1-1h-2l-1-1h-3l-1-1-7-1-2-1h-4l8 6.5c3.05 6.101 2 10.113 2 16.5l5 6ZM274 142l-5 1c-1.59 0-1.443-4.386-2-5.5-1.008-2.016-7.883-15.5-9-15.5l3-3c1.048 0 3 .473 3-1h1l1-1h2l2-1h1l1-1h4l1-1h2l1-1h3l2-1h4l-7 5.5c-3.33 6.66-3 10.364-3 17.5l-4 6-1 1Z"/><path fill="#FF909D" id="LD" d="m311 137-2 1c-3.278 0-7.67-1.585-10.5-3H279c0-7.136-.33-10.84 3-17.5l7-5.5h11c0 1.473 1.952 1 3 1h4v6.5l4 4.5c0 1.048-.473 3 1 3l-1 10Z"/><path fill="#FE909D" id="LP" d="M300 112c1.048 0 3-.473 3 1-1.048 0-3 .473-3-1Z"/><path fill="#FE7F84" id="LGd-co" d="M137 126h2l2-1h2l2-1c4.122 0 5-8.263 5-11-7.251 0-17 3.713-17 12l4 1Z"/><path fill="#C8CCC7" id="hbc" d="m212 119 1 1c0-2.087 3-4.393 3-7-2.215 0-1.519 2-3 2l-1 4ZM245 118c0 1.747-.253 2-2 2 0-1.974-2-3.517-2-6 0-1.93 1.161 0 2 0 0 1.465-.109 4 2 4Z"/><path fill="#FE7F84" id="LGd-co" d="M320 126h4c0-8.266-9.731-13-17-13v6.5l4 4.5 2 1h3l4 1Z"/><path fill="#FF8D9F" id="MH" d="M210 116c0 1.238.423 3 2 3l1-4v-1c-1.238 0-3 .423-3 2ZM247 117l-2 1c-2.109 0-2-2.535-2-4h1l2 1 1 2Z"/><path fill="#A8A9AA" id="V3" d="m231 115-1 1 1-1Z"/><path fill="#FF8F9D" id="LH" d="m201 136 3 3c4.828 0 10.496-1.998 14.5-4l3.5-4-9-11-1-1c-1.577 0-2-1.762-2-3-2.7 0-4.762 3-8 3l-2 2v3c1.384 0 1.123-3.189 3.5-2 1.937.969-2.446 5-3.5 5 0 3.013 1 6.611 1 9Z"/><path fill="#A8A9AA" id="V3" d="M225 131c1.764 0 2.313 2.593 3.5 2l2.5-2-1-14-4-1c0 2.014 2.284 5.932 1 8.5l-2 6.5Z"/><path fill="#019099" id="AUDv1" d="M25 147h6c0-5.099.018-16.535 2-20.5l4-8.5-6-1c0 9.916-6 19.344-6 30Z"/><path fill="#039398" id="AUDd4" d="m50 117-1 1v-1h1Z"/><path fill="#FF8F9D" id="LH" d="m256 135-4 4c-4.233 0-17-4.406-17-9l8-10c1.747 0 2-.253 2-2l2-1h1l7 2 1 2 1 3-3.5-3c-1.766 0 .598 6 3.5 6l-1 8Z"/><path fill="#019099" id="AUDv1" d="M426 147h5c0-6.062-1.67-20.839-4-25.5l-2-4.5-6 1v1c3.528 0 7 23.71 7 28Z"/><path fill="#029198" id="AUDv2/3" d="M31 147h2c0-3.394-.488-4 1.5-4l1-2 1.5 1.5c1.144-2.288-2-2.2-2-3l4.5-1.5 1.5-2c0-2.681-1.68-1 1-1v-1c0-1.145-.58-4 1-4l1-1 1-1v-1c-1.186 0-1.186-1 0-1l2-4c-3.385 0-6.951-4-10-4l-4 8.5c-1.982 3.965-2 15.401-2 20.5Z"/><path fill="#039398" id="AUDd4" d="M408 122h1c0-1.465.109-4-2-4l1 4ZM47 122h2v-3l-1 1-1 1v1Z"/><path fill="#C9C7C9" id="ccb" d="M378 139c0 1.623 1.457 6 0 6l-3-4.5c-1.252-2.504-9-15.907-9-17.5 1.579 0 1-2.855 1-4 1.463 0 11 17.782 11 20Z"/><path fill="#029198" id="AUDv2/3" d="M423 147h3c0-4.29-3.472-28-7-28-1.593 0-9 1.592-9 3l2 7 1 2c2.989 0 1.66 2.821 3 5.5l6 3c0 .8-3.144.712-2 3 .803 1.606 5 .205 5 2 0 .63-2 .688-2 2.5Z"/><path fill="#1B8063" id="SSs2/3" d="m48 120-1 1 1-1Z"/><path fill="#C9C7C9" id="ccb" d="M78 139v6l12-21-1-4c-1.372 0-11 17.004-11 19Z"/><path fill="#FD8F9D" id="CL" d="M190 166c2.16 0 4.167 2 7 2l-2-4.5c-3.092-6.185-.705-17.589 2-23l4-4.5c0-2.389-1-5.987-1-9v-6l-2 1c0 4.968-10 13.827-10 21 0 2.978-1 6.49-1 10 0 5.4 3 10.589 3 13Z"/><path fill="#CCC9C8" id="sm" d="m257 124-3.5-3c-1.766 0 .598 6 3.5 6v-3Z"/><path fill="#FD8F9D" id="CL" d="M266 166c-2.16 0-4.167 2-7 2 0-4.462 6.059-15.382 3-21.5-.782-1.564-.269-3.538-1-5-1.304-2.608-5-3.297-5-6.5l1-8v-3l-1-3 2 1c1.117 0 7.992 13.484 9 15.5.557 1.114.41 5.5 2 5.5v11c0 3.982-2 8.05-2 11l-1 1Z"/><path fill="#029197" id="AUDv4" d="M45 126v1c1.33 0 4-3.431 4-5h-2l-2 4Z"/><path fill="#CCC9C8" id="sm" d="M200 124c1.384 0 1.123-3.189 3.5-2 1.937.969-2.446 5-3.5 5v-3Z"/><path fill="#029197" id="AUDv4" d="m410 122 2 7c0 1.447-4-4.679-4-7h2Z"/><path fill="#FE909D" id="LP" d="m143 125 2 3v-4l-2 1ZM313 125l-1 2c-1.473 0-1-1.952-1-3l2 1Z"/><path fill="#FF8E9F" id="LGv" d="M131 133h2c0-1.539 4-2.187 4-5v-2l-4-1-1 3-1 1v4Z"/><path fill="#FF6F80" id="TH" d="m141 125-2 1 2-1Z"/><path fill="#CBC9C7" id="or" d="M144 141c-3.651 0-5.93 6-9 6 0-3.796 10.271-10.114 2.5-14l-4.5 1v-1c0-1.539 4-2.187 4-5l2-2 2-1h2l2 3c0 3.325 1 7.31 1 10v1l-1 1-1 1ZM322 149h1c0-3.736-14.652-16-1.5-16l3.5 2-1-2-5-5-3-3h-3l-1 2-1 10 1 4c2.83 0 4.54 4 7 4l1 1 1 2 1 1Z"/><path fill="#FF6F80" id="TH" d="m320 126-1 2-3-3 4 1Z"/><path fill="#FF8E9F" id="LGv" d="M326 133v1l-2-1-5-5 1-2h4l1 3 1 4Z"/><path fill="#1B8063" id="SSs2/3" d="M45 126c-1.186 0-1.186 1 0 1v-1Z"/><path fill="#FF6F80" id="TH" d="m139 126-2 2v-2h2Z"/><path fill="#A8AAAA" id="VL" d="m342 127 3 1v-2h-3v1Z"/><path fill="#029197" id="AUDv4" d="m45 128-1 1 1-1Z"/><path fill="#CAC7CB" id="fiber tracts" d="m132 128-1 1 1-1Z"/><path fill="#1A8061" id="SSs6b" d="M69 157h1l4-14 1-1v-2l1-1c0-3.686 3-6.177 3-10-2.292 0-10 23.715-10 28Z"/><path fill="#CBC9C7" id="or" d="M100 155c3.993 0 9.877 4.311 14.5 2l4.5-2c2.171 0 8-11.013 8-13-2.33 0-3.227 4-6 4 0 2.497-10 .781-10-3-1.368 0-4-5.878-4-7l-1-5-1-1c0-3.637-5.615 4.731-6 5.5-2.411 4.822-1 10.657-1 15.5l2 4Z"/><path fill="#CAC7CB" id="fiber tracts" d="M325 129c.914 0 3.246 4 1 4l-1-4Z"/><path fill="#CBC9C7" id="or" d="M356 155c-4.011 0-6.949 2-11.5 2-1.871 0-6.5-1.886-6.5-1-1.046 0-9-13.072-9-15l6 5c0 2.359 10 1.187 10-3 2.762 0 4-4.409 4-7l2-4v-2c0-3.62 4.591 1.681 5 2.5 2.417 4.833 3 10.639 3 16.5l-1 1v2l-2 3Z"/><path fill="#1B8063" id="SSs2/3" d="M43 130c-1.58 0-1 2.855-1 4 1.58 0 1-2.855 1-4Z"/><path fill="#CCC" d="m105 130 1 1-1-1Z"/><path fill="#97D6F9" id="STR" d="M112 131c0 2.904-2.059 5-5 5l-1-5 5-1 1 1Z"/><path fill="#CAC7CB" id="fiber tracts" d="M129 131c0 1.747.253 2 2 2v-3l-2 1Z"/><path fill="#C7CAC9" id="fr" d="M252 139c0 4.205-7.735 1-9 1-3.644 0-9-5.356-9-9l1-1c0 4.594 12.767 9 17 9Z"/><path fill="#97D6F9" id="STR" d="m351 132-2 4c-3.564 0-4-1.868-4-5v-1l5 1 1 1Z"/><path fill="#CCC" d="m350 131 1 1v-2l-1 1Z"/><path fill="#CAC7CB" id="fiber tracts" d="M111 143c.079 0 9.298-6.905 12-1.5 1.058 2.116-2 2.898-2 4.5 2.773 0 3.67-4 6-4v-1l1-1 1-2v-1l-4 1c-3.904 0-10 .537-10-6l-3-1c0 2.904-2.059 5-5 5 0 1.122 2.632 7 4 7Z"/><path fill="#C7CAC9" id="fr" d="M204 139c0 4.205 7.735 1 9 1 3.41 0 10-5.416 10-9h-1l-3.5 4c-4.004 2.002-9.672 4-14.5 4Z"/><path fill="#FE8F9E" id="PVT" d="M223 147h10l10-7c-3.644 0-9-5.356-9-9h-3l-2.5 2c-1.187.593-1.736-2-3.5-2h-2c0 3.584-6.59 9-10 9l10 7Z"/><path fill="#CAC7CB" id="fiber tracts" d="M345 143c0-3.928-10.581-4.338-12-1.5l2 4.5-6-5-2-4 5 1c4.232 0 9 .557 9-6l4-1c0 3.132.436 5 4 5 0 2.591-1.238 7-4 7Z"/><path fill="#1B8063" id="SSs2/3" d="M417 149h4l2-2c0-1.812 2-1.87 2-2.5 0-1.795-4.197-.394-5-2-1.144-2.288 2-2.2 2-3l-6-3c-1.34-2.679-.011-5.5-3-5.5l1 3 1 1c0 5.237 2 8.634 2 14Z"/><path fill="#FF6F80" id="TH" d="M131 135h1l1-1v-1h-2v2Z"/><path fill="#FD8F9F" id="RT" d="m146 192 1 3c-4.307 0-6.632-6-10-6 0-1.329-19.619-20-21-20l-1-6.5 4-7.5c2.171 0 8-11.013 8-13v-1l1-1 1-2 1-1v-1l1-1h1l1-1 4.5-1c7.771 3.886-2.5 10.204-2.5 14l-1 1-1 1v1c-2.109 0-2 2.535-2 4-1.617 0-3.889 9.722-3 11.5 2.826 5.652 7.575 23.5 15 23.5l3 3ZM310 192v3c4.19 0 5.689-6 9-6l1-1 1-1c4.624 0 13.604-18 19-18 0-1.804 2.182-5.136 1-7.5l-3-5.5c-1.046 0-9-13.072-9-15l-2-4-2-2-3.5-2c-13.152 0 1.5 12.264 1.5 16 5.063 0 7.275 29 0 29 0 1.238-.423 3-2 3 0 2.664-5.336 8-8 8l-3 3Z"/><path fill="#FF6F80" id="TH" d="m325 135 2 2-1-3-2-1 1 2Z"/><path fill="#1B8063" id="SSs2/3" d="M42 135c-2.68 0-1-1.681-1 1l1-1Z"/><path fill="#CBC9C7" id="or" d="m133 134-1 1 1-1Z"/><path fill="#029198" id="AUDv2/3" d="m414 134 1 1-1-1Z"/><path fill="#FF6F80" id="TH" d="m131 135-1 1 1-1Z"/><path fill="#FF8E9C" id="PO" d="M195 179c-4.168 0-7.42 3-11 3-2.144 0-8.018-9.536-9-11.5-3.136-6.273-20.358-30.5-26-30.5l-1-1v-1l10.5-3H177l5 6c0 1.791 3.433 12 5 12 0 5.4 3 10.589 3 13 0 4.27 5 9.119 5 13Z"/><path fill="#FD909D" id="MD" d="m235 177 9 5c6.514 0 15-7.12 15-14 0-4.462 6.059-15.382 3-21.5-.782-1.564-.269-3.538-1-5-1.304-2.608-5-3.297-5-6.5l-4 4c0 4.205-7.735 1-9 1l-10 7c0 5.479-3.783 16.934-1 22.5l3 7.5Z"/><path fill="#FF8E9C" id="PO" d="m262 179 11 3c0-3.905 6.34-6.179 8-9.5 3.526-7.052 8.823-16.823 14.5-22.5l8.5-8.5 3-1.5 2-1v-1c-3.278 0-7.67-1.585-10.5-3H279l-4 6-1 1c0 1.791-3.433 12-5 12 0 3.982-2 8.05-2 11l-1 1-4 13Z"/><path fill="#1B8063" id="SSs2/3" d="M35 149h4l2-13-1.5 2-4.5 1.5c0 .8 3.144.712 2 3l-1.5-1.5-1 2c-1.988 0-1.5.606-1.5 4l2 2Z"/><path fill="#FD909D" id="MD" d="M222 177c-1.327 0-9 3.988-9 5-6.283 0-16-7.155-16-14l-2-4.5c-3.092-6.185-.705-17.589 2-23l4-4.5 3 3c0 4.205 7.735 1 9 1l10 7c0 5.291 4.76 14.98 2 20.5l-3 9.5Z"/><path fill="#CBC9C7" id="or" d="m130 137-1 1v-1h1Z"/><path fill="#FF6F80" id="TH" d="M311 141h1l-1-4-2 1v1l2 2ZM146 139h2v-1h-2v1Z"/><path fill="#C9C9CA" id="scwm" d="m76 139-1 1 1-1Z"/><path fill="#CCC8CA" id="ar" d="M73 167c-.816 0-2 7.019-2 8-1.58 0-1-2.855-1-4v-14l4-14 1-1v-2l1-1h2v6l-1 3c-1.473 0-1 1.952-1 3-1.58 0-1 2.855-1 4-1.58 0-1 2.855-1 4-1.643 0-1 3.765-1 5v3Z"/><path fill="#FF6F80" id="TH" d="m146 139-1 1 1-1Z"/><path fill="#FD8084" id="VPL" d="m149 140-4 1v-1l1-1h2l1 1ZM307 140l4 1-2-2-2 1Z"/><path fill="#CCC8CA" id="ar" d="M383 164c2.271 0 .928 11 3 11v-18c0-4.704-3-8.508-3-13l-1-1v-1l-1-1v-1l-3-1c0 1.623 1.457 6 0 6l1 3c1.638 0 2 3.576 2 5v1c1.014 0 2 3.959 2 5v5Z"/><path fill="#C8CBC7" id="st" d="M111 143c.079 0 9.298-6.905 12-1.5 1.058 2.116-2 2.898-2 4.5 0 2.497-10 .781-10-3Z"/><path fill="#CBC9C7" id="or" d="m128 140-1 1 1-1Z"/><path fill="#FF6F80" id="TH" d="M144 141h1v-1l-1 1Z"/><path fill="#FF7E83" id="VPM" d="M184 182c0 10.38-4.767 14-16 14-8.633 0-22.172-22.672-29.5-30l-7.5-9v-3c2.109 0 2-2.535 2-4l1-1 1-1v-1c3.07 0 5.349-6 9-6h1l4-1c5.642 0 22.864 24.227 26 30.5.982 1.964 6.856 11.5 9 11.5ZM273 182c0 1.606-2.081 4.339-1 6.5 3.018 6.035 10.368 7.5 17 7.5 7.424 0 19.029-17.557 22-23.5l7.5-6.5c1.425-1.425 5.671-9 6.5-9 0-3.45-2-4.765-2-8h-1l-1-1-1-2-1-1c-2.46 0-4.17-4-7-4h-1l-4-1-3 1.5-8.5 8.5c-5.677 5.677-10.974 15.448-14.5 22.5-1.66 3.321-8 5.595-8 9.5Z"/><path fill="#C8CBC7" id="st" d="M345 143c0 4.187-10 5.359-10 3l-2-4.5c1.419-2.838 12-2.428 12 1.5Z"/><path fill="#FD8F9C" id="Eth" d="M188 143c0 2.978-1 6.49-1 10-1.567 0-5-10.209-5-12l6 2ZM275 141l-1 1 1-1Z"/><path fill="#C9C9CA" id="scwm" d="m381 141 1 1-1-1ZM75 142l-1 1 1-1Z"/><path fill="#FD8F9C" id="Eth" d="M269 143v11c1.567 0 5-10.209 5-12l-5 1Z"/><path fill="#C9C9CA" id="scwm" d="m382 143 1 1-1-1Z"/><path fill="#C7CACA" id="em" d="m319 145 1 1-1-1Z"/><path fill="#15B0B3" id="TEa1" d="m31 178-6 1v-32h6v31Z"/><path fill="#16AFB3" id="TEa2/3" d="m41 177-10 1v-31h2l2 2c0 .812 1.428 4.645 1 5.5-1.954 3.908-5.25 3.625.5 6.5l2.5 2v2c-2.488 0-1.919 2 0 2l1 2v1c0 2.409 1 5.181 1 7Z"/><path fill="#CBC9C7" id="or" d="M134 148h1v-1l-1 1Z"/><path fill="#FE909F" id="IMD" d="M222 177c2.412 0 5.526-3.487 8.5-2l4.5 2-3-7.5c-2.783-5.566 1-17.021 1-22.5h-10c0 5.291 4.76 14.98 2 20.5l-3 9.5Z"/><path fill="#16AFB3" id="TEa2/3" d="m416 177 10 1v-31h-3l-2 2c0 6.31 4.171 9.164-1.5 12l-1.5 2-1 2c2.488 0 1.919 2 0 2v3l-1 7Z"/><path fill="#15B0B3" id="TEa1" d="m426 178 5 1v-32h-5v31Z"/><path fill="#C9C7C9" id="ccb" d="M77 148c-1.473 0-1 1.952-1 3 1.473 0 1-1.952 1-3Z"/><path fill="#CBC9C7" id="or" d="M133 149h1v-1l-1 1Z"/><path fill="#C7CACA" id="em" d="m135 148-1 1v-1h1ZM321 148l1 1-1-1Z"/><path fill="#C9C7C9" id="ccb" d="M379 148c1.638 0 2 3.576 2 5-1.014 0-2-3.959-2-5Z"/><path fill="#12AC83" id="VISC2/3" d="M39 149v14l-2.5-2c-5.75-2.875-2.454-2.592-.5-6.5.428-.855-1-4.688-1-5.5h4Z"/><path fill="#11AC82" id="VISC4" d="M40 170h3l1-19-5-2v18c2.581 0 4.47 2 1 2v1Z"/><path fill="#C7CACA" id="em" d="m134 149-1 1v-1h1ZM325 157c1.951 0 .477 2.454 1 3.5 3.498 6.995-3 11.279-3 17.5 7.275 0 5.063-29 0-29 0 3.235 2 4.55 2 8Z"/><path fill="#CCC" d="m359 149-1 1 1-1Z"/><path fill="#11AC82" id="VISC4" d="m417 167-3 1-2-17 5-2 1 14-1 2v2Z"/><path fill="#12AC83" id="VISC2/3" d="M421 149c0 6.31 4.171 9.164-1.5 12l-1.5 2-1-14h4Z"/><path fill="#C7CACA" id="em" d="M133 150c-2.109 0-2 2.535-2 4 2.109 0 2-2.535 2-4Z"/><path fill="#12AD82" id="VISC5" d="M59 189c-5.655 0-9.616 1-14 1v-1c0-1.357-.647-6-2-6v-1c2.868 0 2.197-3 0-3v-9l1-19h1c3.965 0 8.876 3 13 3 0 5.194-3.377 21.746-1 26.5 1.164 2.329 2 5.779 2 8.5Z"/><path fill="#C9C7C9" id="ccb" d="M76 151c-1.58 0-1 2.855-1 4 1.58 0 1-2.855 1-4Z"/><path fill="#CCC" d="m100 155-1 1-1-5 2 4Z"/><path fill="#12AD82" id="VISC5" d="M397 189h14l2-4v-3c-2.943 0-1.256-3 0-3v-2l1-2v-4c-1.186 0-1.186-1 0-1v-2l-2-17-14 3c0 5.603 3.56 24.379 1 29.5l-2 5.5Z"/><path fill="#CCC" d="m356 155 1 5c1.735 0 1-6.51 1-8l-2 3Z"/><path fill="#11AC83" id="VISC6a" d="M71 188c-2.832 0-7.57 1-12 1 0-2.721-.836-6.171-2-8.5-2.377-4.754 1-21.306 1-26.5l11 3c0 10.858 2 21.69 2 31Z"/><path fill="#C7CACA" id="em" d="M131 157c0 8.479-.907 13.685 3 21.5l9 10.5c-7.425 0-12.174-17.848-15-23.5-.889-1.778 1.383-11.5 3-11.5v3Z"/><path fill="#C9C7C9" id="ccb" d="M382 159h1c0-1.041-.986-5-2-5l1 5Z"/><path fill="#11AC83" id="VISC6a" d="m385 188 12 1 2-5.5c2.56-5.121-1-23.897-1-29.5-4.37 0-6.659 3-11 3 0 3.144 2.799 9.901 1 13.5-1.875 3.75-3 13.412-3 17.5Z"/><path fill="#C9C7C9" id="ccb" d="M75 155c-1.58 0-1 2.855-1 4 1.58 0 1-2.855 1-4Z"/><path fill="#CCC8CA" id="ar" d="M101 169h15l-1-6.5 4-7.5-4.5 2c-4.623 2.311-10.507-2-14.5-2l-1 1c0 2.312-.379 13 2 13ZM340 169h16c0-2.723 1-5.778 1-9l-1-5c-4.011 0-6.949 2-11.5 2-1.871 0-6.5-1.886-6.5-1l3 5.5c1.182 2.364-1 5.696-1 7.5Z"/><path fill="#11AD82" id="VISC6b" d="M71 188h1l-1-13c-1.58 0-1-2.855-1-4v-14h-1c0 10.858 2 21.69 2 31Z"/><path fill="#FD8084" id="VPL" d="M163 199h4c2.681 0 1-2.078 1-3-8.633 0-22.172-22.672-29.5-30l-7.5-9c0 8.479-.907 13.685 3 21.5l9 10.5 3 3 4 3c3.541 0 6.145 3 10 3l1 1h2ZM294 199h2l1-1c3.727 0 6.314-3 10-3l3-3 3-3 8-8c0-1.238.423-3 2-3 0-6.221 6.498-10.505 3-17.5-.523-1.046.951-3.5-1-3.5-.829 0-5.075 7.575-6.5 9l-7.5 6.5c-2.971 5.943-14.576 23.5-22 23.5v3h5Z"/><path fill="#11AD82" id="VISC6b" d="M384 188h1c0-4.088 1.125-13.75 3-17.5 1.799-3.599-1-10.356-1-13.5h-1v18c0 3.842-2 9.009-2 13Z"/><path fill="#C8CBCC" id="ec" d="M74 159c-1.643 0-1 3.765-1 5 1.643 0 1-3.765 1-5ZM383 159v2l-1-2h1ZM381 192h3v-4c0-3.991 2-9.158 2-13-2.072 0-.729-11-3-11v20l-2 7v1Z"/><path fill="#12AC83" id="VISC2/3" d="M39 165c-2.488 0-1.919 2 0 2v-2Z"/><path fill="#FE8D9F" id="PCN" d="m267 165-1 1 1-1Z"/><path fill="#12AC83" id="VISC2/3" d="M417 165c2.488 0 1.919 2 0 2v-2Z"/><path fill="#FE8D9F" id="PCN" d="M206 189h7l-2-2.5 2-4.5c-6.283 0-16-7.155-16-14-2.833 0-4.84-2-7-2 0 4.27 5 9.119 5 13 0 3.23 5 5.26 5 8l4 1 1 1h1ZM244 189h7l5-2 6-8 4-13c-2.16 0-4.167 2-7 2 0 6.88-8.486 14-15 14v7Z"/><path fill="#15B0B2" id="TEa4" d="M39 167c2.581 0 4.47 2 1 2l-1-2Z"/><path fill="#C8CBCC" id="ec" d="M73 192h2v-1l-1-6c0-5.361-1-12.004-1-18-.816 0-2 7.019-2 8l1 13 1 4Z"/><path fill="#15B0B2" id="TEa4" d="M414 169h3v-2l-3 1v1Z"/><path fill="#CCC" d="m123 197 8 11c3.178 0 19.609 23.555 26.5 27 2.622 1.311 12.18-.14 9.5-5.5-1.846-3.693-8.319-6.909-11.5-8.5-5.736-2.868-10.823-19.146-13.5-24.5l-5-7.5c0-1.329-19.619-20-21-20h-15v3l4.5 5c.741.37 17.5 19.074 17.5 20ZM324 210l-1 1-7 7.5c-3.033 6.065-14.068 14.784-19.5 17.5-2.617 1.308-9.072-3.357-7.5-6.5l10.5-7.5c3.924-3.924 19.5-28.94 19.5-33l1-1 1-1c4.624 0 13.604-18 19-18h16v2l-1 1-5.5 6c-2.467 2.467-15.5 16.63-15.5 19-3.051 0-5.205 10-8 10l-1 1v1l-1 1Z"/><path fill="#11AC82" id="VISC4" d="M414 170h3v-1h-3v1Z"/><path fill="#15B0B2" id="TEa4" d="M41 177h1c0-2.355-2.685-6 1-6v-1h-3c0 2.409 1 5.181 1 7Z"/><path fill="#15AFB3" id="TEa5" d="M414 170c-1.186 0-1.186 1 0 1v-1Z"/><path fill="#15B0B2" id="TEa4" d="M414 177h2l1-7h-3v1c1.535 0 1.535 4 0 4v2Z"/><path fill="#11AC82" id="VISC4" d="M42 177h1v-6c-3.685 0-1 3.645-1 6Z"/><path fill="#97D6F9" id="STR" d="M101 172c0 1.048.473 3-1 3 0-1.145-.58-4 1-4v1ZM355 172c0 2.389 1 5.987 1 9 2.765 0 0-8.94 0-10l-1 1Z"/><path fill="#11AC82" id="VISC4" d="M414 171c1.535 0 1.535 4 0 4v-4Z"/><path fill="#8598CC" id="GPe" d="M123 197c-2.724 0-3.276 1-6 1l-6-1c-2.72 0-3.553-2-6-2 0-4.641-4-8.272-4-13l-1-1v-6c1.473 0 1-1.952 1-3l4.5 5c.741.37 17.5 19.074 17.5 20ZM345 197l-5 1c-2.486 0-3.725-1-6-1 0-2.37 13.033-16.533 15.5-19l5.5-6c0 2.389 1 5.987 1 9 0 4.649-4 8.129-4 13-2.167 0-3.855 3-7 3Z"/><path fill="#97D6F9" id="STR" d="M100 175c-1.535 0-1.535 4 0 4v-4Z"/><path fill="#FD8E9E" id="CM" d="M240 189h4v-7l-9-5-4.5-2c-2.974-1.487-6.088 2-8.5 2-1.327 0-9 3.988-9 5l-2 4.5 2 2.5h3c0-3.529 24-4.06 24 0Z"/><path fill="#11AC82" id="VISC4" d="M413 177h1v-2l-1 2Z"/><path fill="#0D9F91" id="ECT2/3" d="M34 192h1l2-2c0-1.967 4.578-4 6-4v-9h-2l-10 1c0 5.019 3 9.163 3 14ZM419 190l3 1c.449 0 4-11.63 4-13l-10-1h-3v8c1.858 0 6 3.073 6 5Z"/><path fill="#0D9F90" id="ECT1" d="M29 197h3c0-2.312-.868-5 2-5 0-4.837-3-8.981-3-14l-6 1c0 2.332 4 12.927 4 18Z"/><path fill="#C7CACA" id="em" d="M323 178c-1.577 0-2 1.762-2 3 1.577 0 2-1.762 2-3Z"/><path fill="#0D9F90" id="ECT1" d="m425 196 2 1c1.751 0 1-7.426 1-9 0-3.083 3-5.545 3-9l-5-1c0 1.37-3.551 13-4 13v1c3.303 0 3 .959 3 4Z"/><path fill="#0D9E90" id="ECT5" d="M43 179c2.197 0 2.868 3 0 3v-3Z"/><path fill="#FD7E84" id="VAL" d="m167 199 1 2c9.733 0 18.226-14 32-14 0-2.74-5-4.77-5-8-4.168 0-7.42 3-11 3 0 10.38-4.767 14-16 14 0 .922 1.681 3-1 3ZM289 199v2c-11.136 0-19.195-14-33-14l6-8 11 3c0 1.606-2.081 4.339-1 6.5 3.018 6.035 10.368 7.5 17 7.5v3Z"/><path fill="#0D9E90" id="ECT5" d="M413 179c-1.256 0-2.943 3 0 3v-3Z"/><path fill="#97D6F9" id="STR" d="m100 181 1 1-1-1Z"/><path fill="#C7CACA" id="em" d="m321 181-8 8c2.664 0 8-5.336 8-8Z"/><path fill="#11AC82" id="VISC4" d="M43 186c0 2.003-.294 3 2 3 0-1.357-.647-6-2-6v3Z"/><path fill="#97D6F9" id="STR" d="M379 191h2l2-7c-1.504 0-4 5.699-4 7ZM75 191h3l-4-6 1 6Z"/><path fill="#11AC82" id="VISC4" d="m413 185-2 4c2.641 0 2-1.823 2-4Z"/><path fill="#12AC83" id="VISC2/3" d="M411 190h8c0-1.927-4.142-5-6-5 0 2.177.641 4-2 4v1ZM37 190h8v-1c-2.294 0-2-.997-2-3-1.422 0-6 2.033-6 4Z"/><path fill="#FF8E9E" id="RH" d="M221 194h14c0-1.533 3.753-4 5-4v-1c0-4.06-24-3.529-24 0v1c1.247 0 5 2.467 5 4Z"/><path fill="#FF7E84" id="VM" d="M195 215h6c0-4.629 2-6.962 2-7 0-5.789 4-10.486 4-17l-1-2h-1l-1-1-4-1c-13.774 0-22.267 14-32 14v1l1 1 1 1 3 1 2 2h2l2 2h2l2 2h2l3 2h1l4 2h2ZM262 215h2l2-1 1-1h2l1-1h1l1-1h1l1-1h1l1-1h1l1-1h1l1-1h1l1-1 4-2 1-1h1l1-1v-1c-11.136 0-19.195-14-33-14l-5 2-2 2c0 6.173 5 12.408 5 18 3.893 0 1 4.854 1 6h7Z"/><path fill="#CAC7CB" id="fiber tracts" d="m321 187-1 1 1-1Z"/><path fill="#209766" id="AIp6a" d="m74 204-4.5-1-2.5 2-8-16c4.43 0 9.168-1 12-1 0 5.61 3 11.016 3 16Z"/><path fill="#219666" id="AIp6b" d="m74 204 1 1c0-4.449-2-8.01-2-13l-1-4h-1c0 5.61 3 11.016 3 16Z"/><path fill="#FF6F80" id="TH" d="m204 188 1 1-1-1Z"/><path fill="#CAC7CB" id="fiber tracts" d="m320 188-1 1 1-1Z"/><path fill="#219666" id="AIp6b" d="M384 192v4c1.735 0 1-6.51 1-8h-1v4Z"/><path fill="#209766" id="AIp6a" d="m390 204-1 1c-1.714 0-3.482-2-6-2v-2c1.643 0 1-3.765 1-5 1.735 0 1-6.51 1-8l12 1-7 15Z"/><path fill="#219864" id="AIp5" d="M55 209h8c0-1.747.253-2 2-2 0-1.747.253-2 2-2l-8-16c-5.655 0-9.616 1-14 1 0 5.137 10 17.679 10 19Z"/><path fill="#CAC7CB" id="fiber tracts" d="M173 261v1c-3.517 0-9.528-3-13-3v-1l-1-1v-2c10.173 0-4-13.492-4-18 3.327 0 3.795 8 5.5 8 .386 0-5.5-15.381-5.5-9l-20-21-4-7c3.178 0 19.609 23.555 26.5 27 2.622 1.311 12.18-.14 9.5-5.5-1.846-3.693-8.319-6.909-11.5-8.5-5.736-2.868-10.823-19.146-13.5-24.5l-5-7.5c3.368 0 5.693 6 10 6l2 1v2c-1.579 0-1 2.855-1 4 0 8.342 11.658 20 20 20h1l2 3 1 10c0 3.364-8.722 1.944-10 4.5-2.777 5.554 5 10.114 5 14.5l-4-3.5c0 1.752 6 9.18 6 6.5l3 2 1 2Z"/><path fill="#FF6F80" id="TH" d="M216 190c-3.222 0-6.277 1-9 1l-1-2h10v1ZM240 190c3.013 0 6.611 1 9 1l2-2h-11v1Z"/><path fill="#CAC7CB" id="fiber tracts" fill-rule="evenodd" d="M292 250c1.473 0 1 1.952 1 3 1.673 0 6-10.901 6-13l1-2 1-1 1-1 1-1c-1.186 0-1.186-1 0-1l14.5-15 5.5-6v-2l-7 7.5c-3.033 6.065-14.068 14.784-19.5 17.5-2.617 1.308-9.072-3.357-7.5-6.5l10.5-7.5c3.924-3.924 19.5-28.94 19.5-33-3.311 0-4.81 6-9 6l-3 1v1c1.995 0 2 4.377 2 6 0 6.673-14.387 19-21 19l-3 3-1 10c0 3.873 11 .184 11 8 4.369 0 0 1.338 0 1l-3 6m7-10c0-5.296-3.306 2-1.5 2l1.5-2Z"/><path fill="#219864" id="AIp5" d="M394 209h7c0-.42 10-13.327 10-19v-1h-14l-7 15 1 2 3 3Z"/><path fill="#209865" id="AIp2/3" d="M48 210h1l1-1h5c0-1.321-10-13.863-10-19h-8l-2 2c0 3.447 4.345 19 8 19l4-1h1Z"/><path fill="#FD8E9F" id="SMT" d="M203 208c6.493 0 5.855 3 7 3l8-6 1-1c0-3.004 2-6.124 2-10 0-1.533-3.753-4-5-4-3.222 0-6.277 1-9 1 0 6.514-4 11.211-4 17ZM254 209c-3.023 0-7-4.207-7 3l-8-7c0-1.887-4-6.043-4-11 0-1.533 3.753-4 5-4 3.013 0 6.611 1 9 1 0 6.173 5 12.408 5 18Z"/><path fill="#209865" id="AIp2/3" d="m409 210 5 2c0-5.115 8-12.808 8-20v-1l-3-1h-8c0 5.673-10 18.58-10 19h6l2 1Z"/><path fill="#90EB8D" id="LA" d="m86 248 1 1c0-3.93-2.333-29 3-29 0-3.383 1.617-5 5-5l2-2c0-5.728-12-10.756-12-15l-7-7h-3v1c0 7.842 1.725 16.949 5 23.5l1 19 4 11.5v1l1 1ZM369 249h1l1-1v-1l1-2 1-2c0-1.623.005-6 2-6 0-16.144 6-31.113 6-45v-1h-2l-8 7-1 1c0 5.515-11 9.053-11 15 1.577 0 2-1.729 2 1 4.322 0 6 3.043 6 7 5.438 0 2 23.778 2 27Z"/><path fill="#219765" id="AIp1" d="M43 212c-1.424 0-5 .362-5 2l-6-10c2.868 0 2.197-1 0-1l-1-1c3.389 0 2.824-5 1-5 0-2.312-.868-5 2-5h1c0 3.447 4.345 19 8 19v1Z"/><path fill="#C8C9CB" id="amc" d="M81 237c0 1.831 2.183 9 4 9l-4-11.5-1-19c-3.275-6.551-5-15.658-5-23.5h-2c0 4.99 2 8.551 2 13l2 3.5c2.709 5.418 2 15.065 2 21.5.853 0 2 6.031 2 7Z"/><path fill="#FF6F80" id="TH" d="m150 195-1 1-2-1-1-3 4 3ZM310 195l-3 1v-1l3-3v3Z"/><path fill="#C8C9CB" id="amc" d="M375 237h1l1-5c0-4.864.142-18.784 2-22.5l2-4.5 1-1c0-1.048-.473-3 1-3 0-1.235-.643-5 1-5v-4h-3c0 13.887-6 28.856-6 45Z"/><path fill="#219765" id="AIp1" d="M414 212c2.25 0 3.376 2 5 2l5-10c-2.216 0-.348-1 1-1v-1c-3.381 0-1.204-6 0-6 0-3.041.303-4-3-4 0 7.192-8 14.885-8 20Z"/><path fill="#FF6F80" id="TH" d="m235 204 4 1c0-1.887-4-6.043-4-11h-14c0 3.876-2 6.996-2 10h2l3.5-7c5.538-2.769 10.5 1.452 10.5 7Z"/><path fill="#97D6F9" id="STR" d="M358 215h1v-1c0-5.947 11-9.485 11-15-4.724 0-18 2.73-18-5-2.167 0-3.855 3-7 3l-3 6 1 2c1.623 0 6 .005 6 2 3.608 0 9 4.136 9 8ZM98 215h1c0-3.64 4.006-8 8-8 1.835 0 4.235-2 7-2l1-2c0-2.33-4-3.227-4-6-2.72 0-3.553-2-6-2l-4.5 4c-5.408 2.704-10.788-1-15.5-1 0 4.244 12 9.272 12 15v2h1Z"/><path fill="#F0483B" id="ZI" d="m176 219 11 2c2.543 0 11 2.568 11-2.5l-3-3.5h-2l-4-2h-1c-1.238 0-3-.423-3-2h-2l-2-2h-2l-2-2h-2l-2-2-3-1-1-1-1-1c-1.408 0-5-1.197-5-3h-2l-1-1c-3.855 0-6.459-3-10-3l-1 1v2c0 4.888 10 6.175 10 11 1.476 0 8 3.343 8 5l9 5ZM280 219c-3.982 0-6.704 2-11 2-1.964 0-12.98 2.461-10-3.5l3-2.5h2l2-1 1-1h2l1-1h1l1-1h1l1-1h1l1-1h1l1-1h1l1-1h1l1-1 4-2 1-1h1l1-1 5-3h2l1-1c3.727 0 6.314-3 10-3v2c0 3.767-5 5.08-5 8l-1 1-1 1c-1.238 0-3 .423-3 2-3.37 0-6.121 6-9 6l-8 4Z"/><path fill="#FD909F" id="RE" d="M233 219h1l2-1 1-1-2-13c0-5.548-4.962-9.769-10.5-7l-3.5 7c0 4.908-2 8.486-2 13l6 2c0-3.583-.728-14.386 2.5-16 1.595-.798 2.117 2.735 2.5 3.5 1.722 3.445 1 8.393 1 12.5h2Z"/><path fill="#219666" id="AIp6b" d="M384 196c-1.643 0-1 3.765-1 5 1.643 0 1-3.765 1-5Z"/><path fill="#0E9584" id="PERI1" d="M427 197c0 2.25-2 3.376-2 5-3.381 0-1.204-6 0-6l2 1ZM32 197c1.824 0 2.389 5-1 5l-2-5h3Z"/><path fill="#C8CBC7" id="st" d="M118 205c.839 0 2 1.93 2 0l-3-7-6-1c0 2.773 4 3.67 4 6l3 2Z"/><path fill="#8599CC" id="PAL" fill-rule="evenodd" d="M121 199c0 2.066-1.184 2.131 0 4.5.38.76 5 3.469 5 2 0-1.255-3.42-6.5-5-6.5m7 15-1-2c0-7.787 5.312 3 8 3l-4-7-8-11c-2.724 0-3.276 1-6 1l3 7c1.077 0 3 3.762 3 5l2 2 3 2Z"/><path fill="#E64438" id="HY" d="M309 203c-2.46 0-4.17 2-7 2 0-2.92 5-4.233 5-8 1.995 0 2 4.377 2 6Z"/><path fill="#8599CC" id="PAL" fill-rule="evenodd" d="M323 213c3.567 0 6-8.078 6 0l3-1 1-1 3-6v-2l4-5c-2.486 0-3.725-1-6-1-3.051 0-5.205 10-8 10l-1 1v1l-1 1-1 1v2m13-10c0-9.885-5.948 3-4.5 3l4.5-3Z"/><path fill="#C8CBC7" id="st" d="m339 205-1 1-2-1v-2l4-5 5-1-3 6-3 2Z"/><path fill="#E64438" id="HY" d="M148 202c4.531 0 6.677 7 11 7 0-4.825-10-6.112-10-11-1.579 0-1 2.855-1 4Z"/><path fill="#FF6F80" id="TH" d="m160 198 1 1-1-1ZM297 198l-1 1 1-1Z"/><path fill="#97D6F9" id="STR" d="m371 198-1 1 1-1Z"/><path fill="#A2B1D7" id="SI" d="M121 199c0 2.066-1.184 2.131 0 4.5.38.76 5 3.469 5 2 0-1.255-3.42-6.5-5-6.5Z"/><path fill="#FF6F80" id="TH" d="M168 201v1c-1.408 0-5-1.197-5-3h4l1 2ZM289 201v1l5-3h-5v2Z"/><path fill="#A2B1D7" id="SI" d="M336 203c0-9.885-5.948 3-4.5 3l4.5-3Z"/><path fill="#219666" id="AIp6b" d="m383 203-1 1c0-1.048-.473-3 1-3v2Z"/><path fill="#0E9584" id="PERI1" d="M32 203c2.197 0 2.868 1 0 1v-1Z"/><path fill="#F1473B" id="STN" d="M168 221v1c-8.342 0-20-11.658-20-20 4.531 0 6.677 7 11 7 0 4.1 9 6.817 9 12Z"/><path fill="#FF6F80" id="TH" d="m289 202-1 1 1-1Z"/><path fill="#F1473B" id="STN" d="M297 210c0 4.031-9 7.279-9 12 6.613 0 21-12.327 21-19-2.46 0-4.17 2-7 2l-1 1-1 1-3 3Z"/><path fill="#0E9584" id="PERI1" d="M425 203c-1.348 0-3.216 1-1 1l1-1Z"/><path fill="#A0EE9C" id="EPd" d="M72 229c0 4.231 7 5.997 7 1 0-6.435.709-16.082-2-21.5l-2-3.5-1-1-4.5-1-2.5 2v10.5c1.826 3.653 5 9.278 5 13.5Z"/><path fill="#7FC0E0" id="CEAm" d="m128 241-1 1c-5.941 0-7.99-9-14-9l-1-2c2.933 0 3-4.001 3-6l1-1c0-2.516 2.852-19-2-19l1-2 3 2c0 1.795 4.399 10 6 10 0 8.723 4 16.989 4 26Z"/><path fill="#FF6F80" id="TH" d="m169 203 1 1-1-1Z"/><path fill="#FC8F9F" id="Xi" d="M227 221h2l2-2c0-4.107.722-9.055-1-12.5-.383-.765-.905-4.298-2.5-3.5-3.228 1.614-2.5 12.417-2.5 16l2 2Z"/><path fill="#FF6F80" id="TH" d="m287 203-1 1 1-1Z"/><path fill="#7FC0E0" id="CEAm" d="M329 242h1c5.017 0 8.111-9 13-9l1-2c0-2.079-3-3.187-3-6 0-2.096-4.784-20 2-20l-1-2-3 2-1 1-5 9c0 4.164-2.171 10.842-4 14.5V242Z"/><path fill="#A0EE9C" id="EPd" d="m384 231-2.5 2-4.5-1c0-4.864.142-18.784 2-22.5l2-4.5 1-1 1-1c2.518 0 4.286 2 6 2 0 3.554 1.794 8.912 0 12.5-.59 1.181-5.665 9.5-3 9.5v1h-1c-1.186 0-1.186 1 0 1v1l-1 1Z"/><path fill="#FF6F80" id="TH" d="m219 204-1 1 1-1Z"/><path fill="#FD909C" id="PR" d="m219 217-1 1-8-1-1-2 1-4 8-6 1-1h2c0 4.908-2 8.486-2 13ZM246 217c-1.819 0-4.591 1-7 1l-2-1-2-13 4 1 8 7v4l-1 1Z"/><path fill="#219666" id="AIp6b" d="m382 204-1 1 1-1Z"/><path fill="#C9C8CA" id="ee" d="m387 226-1 1c-2.665 0 2.41-8.319 3-9.5 1.794-3.588 0-8.946 0-12.5l1-1 1 2 1 6-1 2c0 3.647-3 6.586-3 10l-1 1v1ZM71 228l1 1c0-4.222-3.174-9.847-5-13.5V205c-1.747 0-2 .253-2 2v6c0 3.855 3 6.459 3 10l1 1v1l2 3Z"/><path fill="#80BEE1" id="CEAl" d="m116 224-1 1c-7.89 0-8-13.271-8-18 1.835 0 4.235-2 7-2 4.852 0 2 16.484 2 19Z"/><path fill="#C7CAC8" id="stc" d="M124 212v3c-1.601 0-6-8.205-6-10 .839 0 2 1.93 2 0 1.077 0 3 3.762 3 5l1 2Z"/><path fill="#FF6F80" id="TH" d="m173 205 2 2-2-2Z"/><path fill="#E64438" id="HY" d="m302 205-1 1 1-1Z"/><path fill="#C7CAC8" id="stc" d="M332 212c0 1.048-.473 3 1 3l5-9-2-1-3 6-1 1ZM339 205l-1 1 1-1Z"/><path fill="#80BEE1" id="CEAl" d="M349 207c0 5.194.853 18-8 18 0-2.096-4.784-20 2-20 1.623 0 6 .005 6 2Z"/><path fill="#FF6F80" id="TH" d="m282 206-1 1 1-1Z"/><path fill="#E64438" id="HY" d="m301 206-1 1 1-1Z"/><path fill="#8AD987" id="CTXsp" d="m394 209-2 3-1-6 3 3ZM63 209l2 4v-6c-1.747 0-2 .253-2 2Z"/><path fill="#80BFE0" id="CEAc" d="M111 231h1c2.933 0 3-4.001 3-6-7.89 0-8-13.271-8-18-3.994 0-8 4.36-8 8l12 14v2Z"/><path fill="#FF6F80" id="TH" d="m177 207 2 2-2-2Z"/><path fill="#C7C9CC" id="mtt" d="M209 215v2c-1.827 0-8 2.843-8-2 0-4.629 2-6.962 2-7 6.493 0 5.855 3 7 3l-1 4ZM255 215c0 5.917-6.146 1-8 1v-4c0-7.207 3.977-3 7-3 3.893 0 1 4.854 1 6Z"/><path fill="#FF6F80" id="TH" d="m280 207-1 1 1-1Z"/><path fill="#E64438" id="HY" d="M297 209v1l3-3c-1.238 0-3 .423-3 2Z"/><path fill="#CAC7CB" id="fiber tracts" d="m326 207-1 1 1-1Z"/><path fill="#80BFE0" id="CEAc" d="M344 231h1l1-1c0-2.003-.293-3 2-3l1-1 1-1c0-1.429 1.288-4 3-4 0-1.238.423-3 2-3l1-1 1-1 1-1c0-3.864-5.392-8-9-8 0 5.194.853 18-8 18 0 2.813 3 3.921 3 6Z"/><path fill="#FF6F80" id="TH" d="m278 208-1 1 1-1Z"/><path fill="#32B725" id="ENTl3" d="m50 209-1 1 1-1Z"/><path fill="#6ACAB9" id="PIR" d="M91 276c-2.3 0-7.677 17-12 17-3.029 0-9.442-13.942-11.5-16-11.927-11.927-13.446-30.391-20.5-44.5-2.297-4.595-8-12.309-8-17.5l4-2c1.465 0 4 .109 4-2l1-1h1l1-1h13l2 4c0 3.855 3 6.459 3 10l1 1v1l1 3 6 10c0 7.552 7.698 17.896 11 24.5l4 7.5v6Z"/><path fill="#CACCCB" id="opt" d="M155 237c0 4.508 14.173 18 4 18 0-6.327-20.125-23.75-24-31.5l-7-9.5-1-2c0-7.787 5.312 3 8 3l20 21v1Z"/><path fill="#CCCACB" id="nst" d="M174 223c-1.481 0-.785 2-3 2l-2-3-1-1c0-5.183-9-7.9-9-12 1.476 0 8 3.343 8 5l6 6 1 3Z"/><path fill="#FF6F80" id="TH" d="m181 209 2 2-2-2ZM276 209l-1 1 1-1Z"/><path fill="#CCCACB" id="nst" d="m283 224 2 1 3-3c0-4.721 9-7.969 9-12v-1c-3.37 0-6.121 6-9 6l-5 5v4Z"/><path fill="#CAC7CB" id="fiber tracts" d="m325 209-1 1 1-1Z"/><path fill="#CACCCB" id="opt" d="m298 254-1 1c-1.465 0-4 .109-4-2 1.673 0 6-10.901 6-13l1-2 1-1 1-1 1-1v-1l14.5-15 5.5-6c3.567 0 6-8.078 6 0v1l-1 1-1 1c0 7.552-29 30.912-29 38Z"/><path fill="#6ACAB9" id="PIR" d="M366 276c0 1.436 9.399 17 11 17 4.502 0 10.222-12.944 12-16.5 3.514-7.028 8.53-13.061 12-20 3.571-7.142 4.442-15.885 8-23l9-18.5c-.671 0-5-1.328-5-2l-4-2-2-2h-13l-2 3-1 2c0 3.647-3 6.586-3 10l-1 1v2l-1 1-1 1v1l-1 1-3 6c0 6.471-8.959 19.417-12 25.5-.695 1.39-2.272 8.5-4 8.5v2l1 3Z"/><path fill="#32B725" id="ENTl3" d="M409 210v1l-2-2 2 1Z"/><path fill="#32B825" id="ENTl2" d="M43 212v1c1.465 0 4 .109 4-2v-1l-4 1v1Z"/><path fill="#32B725" id="ENTl3" d="m48 210-1 1v-1h1Z"/><path fill="#97D6F9" id="STR" d="M124 212h1l-2-2 1 2Z"/><path fill="#FF6F80" id="TH" d="m274 210-1 1 1-1Z"/><path fill="#CAC7CB" id="fiber tracts" d="m324 210-1 1 1-1Z"/><path fill="#32B825" id="ENTl2" d="m414 212-1 1-4-2v-1l5 2Z"/><path fill="#FF6F80" id="TH" d="m185 211 3 2c-1.238 0-3-.423-3-2ZM272 211l-1 1 1-1Z"/><path fill="#97D6F9" id="STR" d="m333 211-1 1 1-1Z"/><path fill="#32B722" id="ENTl1" d="m38 214 1 1 4-2v-1c-1.424 0-5 .362-5 2Z"/><path fill="#80BFE1" id="MEA" d="m135 285 1 1c3.97 0 21.118-12.735 23-16.5l1-10.5v-1l-1-1v-2c0-6.327-20.125-23.75-24-31.5l-7-9.5-3-2h-1v3c0 8.723 4 16.989 4 26v30l1 2 6 12Z"/><path fill="#FF6F80" id="TH" d="m270 212-1 1 1-1Z"/><path fill="#80BFE1" id="MEA" d="m321 285-1 1c-2.99 0-21.2-12.901-23-16.5V255l1-1c0-7.088 29-30.448 29-38l1-1 1-1v-1l3-1c0 1.048-.473 3 1 3 0 4.164-2.171 10.842-4 14.5V242l-1 2v1c0 1.145-.579 4 1 4v3l-1 1v20l-7 12Z"/><path fill="#8AD987" id="CTXsp" d="m392 212-1 2 1-2Z"/><path fill="#32B722" id="ENTl1" d="m419 214-1 1c-.671 0-5-1.328-5-2l1-1c2.25 0 3.376 2 5 2Z"/><path fill="#C8CBCC" id="ec" d="M95 215h2v-2l-2 2Z"/><path fill="#FF6F80" id="TH" d="m189 213 4 2-4-2ZM267 213l-1 1 1-1Z"/><path fill="#C8CBCC" id="ec" d="M359 215h2c0-2.729-.423-1-2-1v1Z"/><path fill="#E64438" id="HY" d="M176 219c-1.048 0-3-.473-3 1l-6-6 9 5Z"/><path fill="#FF6F80" id="TH" d="m266 214-2 1 2-1Z"/><path fill="#8599CC" id="PAL" d="m329 214-1 1 1-1Z"/><path fill="#9DE79B" id="BLAa" d="M102 250h3c3.399 0 7.04-7 9-7v-3l-1-6-1-1-1-1v-2h-1l-12-15h-3c-3.383 0-5 1.617-5 5 0 9.002 12 25.749 12 30Z"/><path fill="#C8CBCC" id="ec" d="m111 229-1 1-12-15h1l12 14Z"/><path fill="#E64438" id="HY" d="m273 257-8 8.5c-.695 1.39-2.272 8.5-4 8.5 0-6.414-3.615-12.058-9.5-15-1.242-.621-8.5-1.767-8.5-3 3.31 0 6.755.372 9.5-1 4.204-2.102 6.445-19.777 2-22-2.635-1.318-15.963-5.518-19-4l-3.5 2c0-4.39-8-3.682-8 0l-2.5-2-17 2c-6.001 3.001-6.974 21.013-1 24l9.5 1c0 .83-6.431 2.466-7.5 3-5.008 2.504-10.5 8.039-10.5 14l-5-9.5-6-6.5c0-1.577 1.762-2 3-2 0 10.744 10.12-4 4-4 0-1.339 4.154-14.193 3-16.5l-3-10-4-3.5c2.543 0 11 2.568 11-2.5l-3-3.5h6c0 4.843 6.173 2 8 2h1l8 1c2.031 0 9 3.654 9 3h2c0 2.654 4-.733 4-2h1l2-1h3c2.409 0 5.181-1 7-1l1-1c1.854 0 8 4.917 8-1h7l-3 2.5c-2.98 5.961 8.036 3.5 10 3.5 0 1.502-5.129 7.757-6 9.5-2.032 4.064 2 18.215 2 20.5-6.787 0 5 14.727 5 4l3 2Z"/><path fill="#FF6F80" id="TH" d="M209 217h1l-1-2v2Z"/><path fill="#E64438" id="HY" d="M280 219c1.048 0 3-.473 3 1l5-5-8 4Z"/><path fill="#8599CC" id="PAL" d="m328 215-1 1 1-1Z"/><path fill="#C8CBCC" id="ec" d="m359 215-2 1 1-1h1Z"/><path fill="#9DE79B" id="BLAa" d="M352 250h2c0-1.454 13-24.172 13-28 0-3.957-1.678-7-6-7h-2l-2 1-1 1-1 1c0 1.238-.423 3-2 3 0 1.429-1.288 4-3 4l-1 1-1 1c0 1.238-.423 3-2 3l-1 1-2 4v4l-1 1v1l1 2c0 2.962 6.336 7 9 7Z"/><path fill="#FF6F80" id="TH" d="m247 216-1 1 1-1Z"/><path fill="#C8CBCC" id="ec" d="m357 216-1 1 1-1Z"/><path fill="#FF6F80" id="TH" d="m225 219 2 2c0 .654-6.969-3-9-3l1-1 6 2ZM236 218h3l-2-1-1 1Z"/><path fill="#C8CBCC" id="ec" d="m356 217-1 1 1-1Z"/><path fill="#FF6F80" id="TH" d="m236 218-2 1 2-1Z"/><path fill="#C8CBCC" id="ec" d="M355 218c-1.577 0-2 1.762-2 3 1.577 0 2-1.762 2-3Z"/><path fill="#F2483A" id="LHA" d="M172 259h1c3.186 0 6.865-2 11-2 0-1.577 1.762-2 3-2 0-2.226 1.774-4 4-4 0-1.339 4.154-14.193 3-16.5l-3-10-4-3.5-11-2c-1.048 0-3-.473-3 1l1 3c0 2.78 3.507 12-2 12 0 3.364-8.722 1.944-10 4.5-2.777 5.554 5 10.114 5 14.5l1 1 1 1v1l3 2Z"/><path fill="#FF6F80" id="TH" d="M233 219c0 1.267-4 4.654-4 2l2-2h2Z"/><path fill="#F2483A" id="LHA" d="M283 259h2l2-1v-1l1-1 1-1 1-2 1-1v-1l1-1 3-6v-1c0-7.816-11-4.127-11-8-3.787 0-4.129-11-1-11v-4c0-1.473-1.952-1-3-1-3.982 0-6.704 2-11 2 0 1.502-5.129 7.757-6 9.5-2.032 4.064 2 18.215 2 20.5 1.562 0 5 2.189 5 4l3 2c3.526 0 8.954 2 10 2Z"/><path fill="#9DE69C" id="BLAp" d="m99 252-6 1-4-1-2-3c0-3.93-2.333-29 3-29 0 9.002 12 25.749 12 30l-3 2Z"/><path fill="#E64438" id="HY" d="M168 222h1l-1-1v1Z"/><path fill="#C8CBCC" id="ec" d="M353 221c-1.712 0-3 2.571-3 4 1.712 0 3-2.571 3-4Z"/><path fill="#9DE69C" id="BLAp" d="M363 253h3l1-1 1-1 1-2c0-3.222 3.438-27-2-27 0 3.828-13 26.546-13 28l3 2 6 1Z"/><path fill="#A0EE9C" id="EPd" d="m68 223 1 1-1-1Z"/><path fill="#F2473A" id="PST" d="m171 225 1 10c5.507 0 2-9.22 2-12-1.481 0-.785 2-3 2Z"/><path fill="#80BFE0" id="CEAc" d="m116 224-1 1 1-1Z"/><path fill="#F2473A" id="PST" d="m285 225-1 10c-3.787 0-4.129-11-1-11l2 1Z"/><path fill="#A0EE9C" id="EPd" d="m388 224-1 1 1-1ZM70 228h1l-2-3 1 3Z"/><path fill="#C8CBCC" id="ec" d="m350 225-1 1 1-1ZM349 226l-1 1 1-1Z"/><path fill="#A0EE9C" id="EPd" d="M386 227h1v-1l-1 1Z"/><path fill="#C8CBCC" id="ec" d="M348 227c-2.293 0-2 .997-2 3 1.577 0 2-1.762 2-3Z"/><path fill="#8AD987" id="CTXsp" d="m387 227-1 1v-1h1ZM81 237c-1.076 0-5-2.669-5 1l-6-10h1l1 1c0 4.231 7 5.997 7 1 .853 0 2 6.031 2 7Z"/><path fill="#FD5D50" id="PVi" d="M227 271v-29c0-1.475-.893-9 1.5-9l.5 38 3-1v-39c0-4.39-8-3.682-8 0v39l3 1Z"/><path fill="#C9C8CA" id="ee" d="M385 228c-1.186 0-1.186 1 0 1v-1Z"/><path fill="#8AD987" id="CTXsp" d="m386 228-1 1v-1h1Z"/><path fill="#97D6F9" id="STR" d="M110 230h1v-1l-1 1Z"/><path fill="#FE5445" id="DMH" d="M218 257h2l4-1v-25l-2.5-2-17 2c-6.001 3.001-6.974 21.013-1 24l9.5 1h4l1 1ZM237 257h1l2-1h3c3.31 0 6.755.372 9.5-1 4.204-2.102 6.445-19.777 2-22-2.635-1.318-15.963-5.518-19-4l-3.5 2v24l5 2Z"/><path fill="#97D6F9" id="STR" d="m346 230-1 1 1-1Z"/><path fill="#8AD987" id="CTXsp" d="m385 230-1 1 1-1Z"/><path fill="#97D6F9" id="STR" d="M113 233v1l-1-1-1-1v-1h1l1 2ZM343 233v2l2-4h-1l-1 2Z"/><path fill="#8AD987" id="CTXsp" d="M376 237h5l3-6-2.5 2-4.5-1-1 5ZM111 232l1 1-1-1Z"/><path fill="#80BEE2" id="IA" d="M125 245h3v-2l-1-1c-5.941 0-7.99-9-14-9v1l1 6 3 3 5 1 1 1h2Z"/><path fill="#A8A9AA" id="V3" d="M225 291h6l1-2-2-3.5-1-14.5-.5-38c-2.393 0-1.5 7.525-1.5 9v29c0 6.809-2 14.333-2 19v1Z"/><path fill="#80BEE2" id="IA" d="M332 245h1l1-1 6-1 2-2v-1l1-1v-6c-4.889 0-7.983 9-13 9l-2 2v1h4Z"/><path fill="#CCCAC9" id="sup" d="M155 236v1c3.327 0 3.795 8 5.5 8 .386 0-5.5-15.381-5.5-9ZM303 234c-1.186 0-1.186 1 0 1v-1Z"/><path fill="#A0ED9D" id="EPv" d="M92 257c0 3.629-1 8.716-1 13l-4-7.5c-3.302-6.604-11-16.948-11-24.5 0-3.669 3.924-1 5-1 0 1.831 2.183 9 4 9v1l1 1 1 1 2 3 2 3 1 2ZM365 257v14c1.728 0 3.305-7.11 4-8.5 3.041-6.083 12-19.029 12-25.5h-6c0 1.623-.005 6-2 6l-1 2-1 2v1l-1 1h-1l-1 2-1 1-1 1-1 2v2Z"/><path fill="#C8C9CB" id="amc" d="M375 237c-1.995 0-2 4.377-2 6 1.995 0 2-4.377 2-6Z"/><path fill="#CCCAC9" id="sup" d="M299 240c0-5.296-3.306 2-1.5 2l1.5-2Z"/><path fill="#8AD987" id="CTXsp" d="m343 239-1 1 1-1ZM114 243h3l-3-3v3Z"/><path fill="#97D6F9" id="STR" d="m127 242 1 1v-2l-1 1Z"/><path fill="#8AD987" id="CTXsp" d="M340 243h3l-1-2-2 2Z"/><path fill="#CCCAC9" id="sup" d="M295 243c4.369 0 0 1.338 0 1v-1Z"/><path fill="#97D6F9" id="STR" d="m330 242-2 2 1-2h1Z"/><path fill="#84E981" id="BMAp" d="m105 254 4 1c5.034 0 9.777-4 16-4l2-2v-1l-1-1-1-2h-2l-1-1-5-1h-3c-1.96 0-5.601 7-9 7v4ZM348 255h2l1-1 1-1v-3c-2.664 0-9-4.038-9-7h-3l-6 1-1 1h-1l-2 3 1 3c6.587 0 11.437 4 17 4Z"/><path fill="#C8C9CB" id="amc" d="m373 243-1 2 1-2Z"/><path fill="#97D6F9" id="STR" d="m122 244 1 1-1-1ZM334 244l-1 1 1-1ZM127 249h1v-4h-3l1 2 1 1v1ZM330 248l-1 1c-1.579 0-1-2.855-1-4h4l-2 3Z"/><path fill="#C8C9CB" id="amc" d="m372 245-1 2 1-2ZM85 247l1 1-1-1Z"/><path fill="#8AD987" id="CTXsp" d="m126 247 1 1-1-1ZM329 251h2l-1-3-1 1v2Z"/><path fill="#C8C9CB" id="amc" d="m371 248-1 1 1-1Z"/><path fill="#8AD987" id="CTXsp" d="m125 251 3 1v-3h-1l-2 2ZM99 252l6 1v-3h-3l-3 2Z"/><path fill="#CCCAC9" id="sup" d="M169 256v1c0 2.68-6-4.748-6-6.5l4 3.5 1 1 1 1Z"/><path fill="#CAC7CB" id="fiber tracts" d="m292 250-1 1 1-1Z"/><path fill="#CCCAC9" id="sup" d="M290 253c0 3.749 1.288 0 3 0 0-1.048.473-3-1-3l-1 1v1l-1 1Z"/><path fill="#8AD987" id="CTXsp" d="m357 252-5 1v-3h2l3 2Z"/><path fill="#84EA80" id="BMAa" d="m119 275-5 1-2-2c0-5.41-4-10.966-4-16l1-3c5.034 0 9.777-4 16-4l3 1v19l-1 1-8 3Z"/><path fill="#C7C8CA" id="fx" d="M191 251c6.12 0-4 14.744-4 4 0-2.226 1.774-4 4-4ZM265 251c1.562 0 5 2.189 5 4 0 10.727-11.787-4-5-4Z"/><path fill="#84EA80" id="BMAa" d="m338 275 5 1 2-2c0-5.687 3-9.884 3-15v-4c-5.563 0-10.413-4-17-4h-2v1l-1 1v17l2 2 8 3Z"/><path fill="#8AD987" id="CTXsp" d="m368 251-1 1 1-1ZM91 255h1l1-2-4-1 2 3Z"/><path fill="#9CE79C" id="BLAv" d="M100 280h4l5-2 1-1h1v-1l1-2c0-5.41-4-10.966-4-16l-3-4v-1l-6-1-6 1-1 2c0 .839 1.93 2 0 2 0 3.629-1 8.716-1 13v2l2 4c2.117 0 4.428 4 7 4Z"/><path fill="#CAC7CB" id="fiber tracts" d="m291 252-1 1 1-1Z"/><path fill="#8AD987" id="CTXsp" d="m329 252-1 1 1-1Z"/><path fill="#9CE79C" id="BLAv" d="M353 280h3c1.522 0 7-2.571 7-4l2-3v-16l-1-2-1-2-6-1-5 1-1 1-1 1-2 4c0 5.116-3 9.313-3 15l1 3 1 1 6 2Z"/><path fill="#8AD987" id="CTXsp" d="m367 252-1 1 1-1Z"/><path fill="#CAC7CB" id="fiber tracts" d="m285 259-1 2c0 4.288 10.737-3 13-3v-3c-1.465 0-4 .109-4-2-1.712 0-3 3.749-3 0l-1 2c2.517 0-.259 3-2 3l-2 1Z"/><path fill="#8AD987" id="CTXsp" d="m352 253-1 1 1-1ZM364 255h1l1-2h-3l1 2ZM109 255l-1 3-3-4 4 1Z"/><path fill="#CAC7CB" id="fiber tracts" d="m298 254-1 1 1-1Z"/><path fill="#8AD987" id="CTXsp" d="m351 254-1 1 1-1Z"/><path fill="#C8C9CB" id="amc" d="M92 255c0 .839 1.93 2 0 2l-1-2h1Z"/><path fill="#CAC7CB" id="fiber tracts" d="m168 255 1 1-1-1Z"/><path fill="#E64438" id="HY" d="m237 257-5 6v-8l5 2Z"/><path fill="#CAC7CB" id="fiber tracts" d="m289 255-1 1 1-1Z"/><path fill="#CCCAC9" id="sup" d="M287 257v1c1.741 0 4.517-3 2-3l-1 1-1 1Z"/><path fill="#8AD987" id="CTXsp" d="m350 255-2 4v-4h2Z"/><path fill="#C8C9CB" id="amc" d="M365 255v2l-1-2h1Z"/><path fill="#FF4A3D" id="VMH" d="M205 283h6c0-1.577 1.762-2 3-2 0-1.577 1.762-2 3-2l1-1 1-1 1-1 1-1 1-1 1-1v-1l1-1v-9l-4-5h-2l-1-1h-4c0 .83-6.431 2.466-7.5 3-5.008 2.504-10.5 8.039-10.5 14v2l1 1c0 3.815 5.712 7 9 7Z"/><path fill="#E64438" id="HY" d="m217 256 1 1-1-1ZM220 257l4 5v-6l-4 1ZM240 256l-2 1 2-1Z"/><path fill="#FF4A3D" id="VMH" d="M240 279c2.523 0 6.805 4 12 4 2.885 0 8-2.753 8-6l1-1v-2c0-6.414-3.615-12.058-9.5-15-1.242-.621-8.5-1.767-8.5-3h-3l-2 1h-1l-5 6v6l1 2 1 2c.782 0 5 5.083 5 6h1Z"/><path fill="#CAC7CB" id="fiber tracts" d="m288 256-1 1 1-1Z"/><path fill="#F24839" id="TU" d="M207 289v1c-16.626 0-22.211-6.921-29-20.5l-5-7.5v-3c3.186 0 6.865-2 11-2l6 6.5 5 9.5v2l1 1c0 3.815 5.712 7 9 7l3 3-1 3ZM249 287v3c18.38 0 22.537-6.574 30-21.5 1.251-2.502 4-4.49 4-7.5v-2c-1.046 0-6.474-2-10-2l-8 8.5c-.695 1.39-2.272 8.5-4 8.5v2l-1 1c0 3.247-5.115 6-8 6 0 2.349-3 1.382-3 4Z"/><path fill="#E64438" id="HY" d="M173 259v2l-1-2h1ZM283 261h1l1-2h-2v2ZM232 270l1 1-1-2v1Z"/><path fill="#FF5B4F" id="ARH" d="M216 291c0-4.796 5.065 0 7 0l2-1c0-4.667 2-12.191 2-19l-3-1v1l-1 1v1l-1 1-1 1-1 1-1 1-1 1-1 1c0 1.577-1.762 2-3 2 0 1.577-1.762 2-3 2l-3 3-1 3 2 2h7ZM233 291c2.114 0 8-4.709 8 0 2.707 0 5.903-1 8-1v-3l-9-8h-1c-1.901 0-5-4.332-5-6l-1-2-1-1-3 1 1 14.5 2 3.5 1 2Z"/><path fill="#99D2BD" id="OLF" d="m330 272-2 1v-3l2 2ZM127 272l2 1-1-2-1 1Z"/><path fill="#E64438" id="HY" d="m224 271-1 1 1-1Z"/><path fill="#99D2BD" id="OLF" d="M91 276h2l-2-4v4Z"/><path fill="#60E5B7" id="COAa" d="M124 292h1l10-5v-2l-6-12-2-1-8 3-2 3c0 2.454 4.249 14 7 14ZM331 292h2c0-4.264 6-8.153 6-13l-1-4-8-3-2 1-7 12v2l10 5Z"/><path fill="#E64438" id="HY" d="m223 273-1 1 1-1ZM234 273c.782 0 5 5.083 5 6-1.901 0-5-4.332-5-6Z"/><path fill="#99D2BD" id="OLF" d="M363 276h3l-1-3-2 3Z"/><path fill="#8AD987" id="CTXsp" d="M111 276h3l-2-2-1 2Z"/><path fill="#E64438" id="HY" d="m222 274-1 1 1-1Z"/><path fill="#8AD987" id="CTXsp" d="M345 277h1l-1-3-2 2 2 1Z"/><path fill="#99D2BD" id="OLF" d="m111 277 6 1 2-3-5 1h-3v1Z"/><path fill="#E64438" id="HY" d="m195 275 1 1-1-1ZM221 275l-1 1 1-1Z"/><path fill="#99D2BD" id="OLF" d="M345 277c-2.518 0-4.286 2-6 2l-1-4 5 1 2 1Z"/><path fill="#59D9AA" id="PAA" d="m104 300-1 1c-4.89 0-24-2.33-24-8 4.323 0 9.7-17 12-17h2c2.117 0 4.428 4 7 4l3 3 1 17Z"/><path fill="#E64438" id="HY" d="m220 276-1 1 1-1ZM261 276l-1 1 1-1Z"/><path fill="#59D9AA" id="PAA" d="M377 293c0 6.361-18.373 8-24 8 0-5.996 1-12.639 1-18l2-3c1.522 0 7-2.571 7-4h3c0 1.436 9.399 17 11 17Z"/><path fill="#99D2BD" id="OLF" d="m110 277-1 1 1-1Z"/><path fill="#5FE6B7" id="COApl" d="M104 300v1c7.567 0 16.18-8 20-8v-1c-2.751 0-7-11.546-7-14l-6-1h-1l-1 1-5 2-1 3 1 17Z"/><path fill="#E64438" id="HY" d="m219 277-1 1 1-1Z"/><path fill="#5FE6B7" id="COApl" d="M333 293c0 2.248 16.765 8 20 8 0-5.996 1-12.639 1-18l-1-3-6-2-1-1h-1c-2.518 0-4.286 2-6 2 0 4.847-6 8.736-6 13v1Z"/><path fill="#99D2BD" id="OLF" d="m346 277 1 1-1-1Z"/><path fill="#E64438" id="HY" d="m218 278-1 1 1-1ZM217 279c-1.238 0-3 .423-3 2 1.238 0 3-.423 3-2ZM252 283c0 2.349-3 1.382-3 4l-9-8c2.523 0 6.805 4 12 4Z"/><path fill="#99D2BD" id="OLF" d="m104 280-1 3-3-3h4ZM356 280l-2 3-1-3h3Z"/><path fill="#E64438" id="HY" d="M214 281c-1.238 0-3 .423-3 2 1.238 0 3-.423 3-2ZM211 283l-3 3-3-3h6Z"/><path fill="#99D2BD" id="OLF" d="m136 286-1 1v-2l1 1ZM320 286l1 1v-2l-1 1Z"/><path fill="#E64438" id="HY" d="m207 290 2 1-2-2v1Z"/><path fill="#F1473A" id="ME" d="M241 291c0 2.658-.873 1.187-2.5 2-8.052 4.026-9.37 6.315-18 2l-4.5-3v-1c0-4.796 5.065 0 7 0h10c2.114 0 8-4.709 8 0Z"/><path fill="#E64438" id="HY" d="M231 291h2l-1-2-1 2ZM223 291h2v-1l-2 1ZM216 291v1l-1-1h1Z"/><path fill="#99D2BD" id="OLF" d="m125 292-1 1v-1h1ZM333 292v1l-2-1h2ZM103 301h1v-1l-1 1Z"/></svg>