<svg xmlns="http://www.w3.org/2000/svg" viewBox="0 0 456 320"><path fill="#1BA696" id="RSPagl1" d="M171 15h1l14-3V7c-5.816 0-9.554 2-15 2v6Z"/><path fill="#1BA598" id="RSPd1" d="m219 16-2 2-7.5-5c-6.95-3.475-16.219-1-23.5-1V7c7.032 0 33-1.266 33 9ZM237 17l2 1 11.5-6c5.544-2.772 13.976 0 19.5 0l1-5c-8.475 0-19.394-1.553-26.5 2l-4 4c-1.791.896-3.5 1.536-3.5 4Z"/><path fill="#1BA696" id="RSPagl1" d="m270 12 15 3 1-6c-5.446 0-9.184-2-15-2l-1 5Z"/><path fill="#09848B" id="VISam1" d="M168 15h3V9l-4 1c0 1.235-.643 5 1 5ZM285 15h4l1-5-4-1-1 6Z"/><path fill="#0A8589" id="VISpm1" d="m139 17 1 5c7.281 0 18.654-6 28-6v-1c-1.643 0-1-3.765-1-5-9.526 0-18.713 7-28 7ZM316 22h1l1-5-28-7-1 5v1c1.881 0 18.342 2.42 19.5 3 2.633 1.317 4.265 3 7.5 3Z"/><path fill="#1BA697" id="RSPd2/3" d="m217 19-4 3c-.881 0-12.049-4.274-13.5-5L186 19v-7c7.281 0 16.55-2.475 23.5 1l7.5 5v1ZM270 19l-12.5-2c-1.707.853-13.267 5-14.5 5 0-.966-2.886-3-4-3v-1l11.5-6c5.544-2.772 13.976 0 19.5 0v7Z"/><path fill="#1AA496" id="RSPagl2/3" d="M172 21c1.473 0 1 1.952 1 3l13-5v-7l-14 3v6ZM283 24h1v-2l1-7-15-3v7l13 5Z"/><path fill="#0B848A" id="VISam2/3" d="m172 21-3 2-1-7v-1h4v6ZM284 22l3 1 2-7v-1h-4l-1 7Z"/><path fill="#08858B" id="VISpm2/3" d="M169 23c-8.771 0-16.921 8-26 8l-3-9c7.281 0 18.654-6 28-6l1 7Z"/><path fill="#1BA597" id="RSPv1" d="M200 85c7.672 0 17.278-.055 21-7.5l7.5-21.5.5 4.5c2.562 5.125 3.474 10.948 6 16 4.227 8.454 12.78 8.5 22 8.5l1-2c0-2.797-9.643-2.072-11.5-3l-9.5-9.5c-3.442-6.885-8.031-31.938-4-40 .959-1.919 3.395-11.5 6-11.5v-1l-2-1-7 8.5-1.5 4.5c-.066 0-7.655-14-9.5-14l-2 2v1c2.683 0 5.082 7.664 6 9.5 3.852 7.704 1.649 30.703-2 38-2.976 5.953-5.418 10.46-11.5 13.5-1.827.913-10.5.072-10.5 3l1 2Z"/><path fill="#08858B" id="VISpm2/3" d="M313 31h1l2-9c-3.235 0-4.867-1.683-7.5-3-1.158-.58-17.619-3-19.5-3l-2 7c8.771 0 16.921 8 26 8Z"/><path fill="#098589" id="VISp1" d="m98 35 3 3c5.415 0 31.511-16 39-16l-1-5c-5.749 0-23.781 9.14-29.5 12-2.191 1.096-11.5 2.322-11.5 6Z"/><path fill="#1AA596" id="RSPd5" d="M185 30c3.661 0 9.166-4.167 13.5-2l5.5 3c3.719 0 5.081-8 9-8v-1c-.881 0-12.049-4.274-13.5-5L186 19l-1 11ZM271 30c-3.57 0-9.08-4.21-13.5-2l-5.5 3-9-8v-1c1.233 0 12.793-4.147 14.5-5l12.5 2c0 2.998 1 7.358 1 11Z"/><path fill="#098589" id="VISp1" d="M355 39h1l2-5c-2.595 0-6.162-3.831-8.5-5-4.716-2.358-27.226-12-31.5-12l-1 5c0 1.36 6.258 2.379 7.5 3 7.501 3.75 15.417 6.208 23 10l7.5 4Z"/><path fill="#1CA697" id="RSPagl5" d="m185 31-10 4c-1.484 0-2-8.262-2-10v-1l13-5-1 11v1Z"/><path fill="#1AA597" id="RSPv2/3" d="M197 83h2c0-2.928 8.673-2.087 10.5-3 6.082-3.04 8.524-7.547 11.5-13.5 3.649-7.297 5.852-30.296 2-38-.918-1.836-3.317-9.5-6-9.5l-4 3v1c6.586 0 6 17.713 6 22.5 0 16.293-5.235 33.5-24 33.5l2 4ZM258 83h1l2-4c-17.922 0-24-17.775-24-33.5 0-4.602.409-22.5 6-22.5v-1c0-.966-2.886-3-4-3-2.605 0-5.041 9.581-6 11.5-4.031 8.062.558 33.115 4 40l9.5 9.5c1.857.928 11.5.203 11.5 3Z"/><path fill="#1CA697" id="RSPagl5" d="M271 31c4.012 0 7.428 5 11 5l1-12-13-5c0 2.998 1 7.358 1 11v1Z"/><path fill="#09858A" id="VISam4" d="M169 26h1c0-1.473 1.952-1 3-1v-1c0-1.048.473-3-1-3l-3 2v3Z"/><path fill="#0A828C" id="VISp2/3" d="M104 46h1c2.871 0 6.924-3.712 9.5-5 7.52-3.76 19.747-9 28.5-9v-1l-3-9c-7.489 0-33.585 16-39 16v1c0 1.812 3 4.82 3 7Z"/><path fill="#09858A" id="VISam4" d="M284 24c0 1.473 1.952 1 3 1v-2l-3-1v2Z"/><path fill="#0A828C" id="VISp2/3" d="m355 39-3 7c-1.253 0-26.69-10.595-29.5-12-1.526-.763-8.5-.84-8.5-3l2-9h1c0 1.36 6.258 2.379 7.5 3 7.501 3.75 15.417 6.208 23 10l7.5 4Z"/><path fill="#09828B" id="VISpm4" d="M144 35h1c8.241 0 15.973-9 24-9v-3c-8.771 0-16.921 8-26 8v1c1.473 0 1 1.952 1 3Z"/><path fill="#1BA498" id="RSPv5" d="M194 79h1c18.765 0 24-17.207 24-33.5 0-4.787.586-22.5-6-22.5-3.919 0-5.281 8-9 8v1c1.784 0 1 10.634 1 12.5 0 4.403-7.635 31.5-13 31.5l2 3ZM263 78l-2 1c-17.922 0-24-17.775-24-33.5 0-4.602.409-22.5 6-22.5l9 8v1c0 11.43-.186 24.128 5 34.5.814 1.629 1.231 3.463 2 5l5 4.5-1 2Z"/><path fill="#09828B" id="VISpm4" d="m313 31-1 4-25-9v-3c8.771 0 16.921 8 26 8Z"/><path fill="#0A848B" id="VISam5" d="m282 36 3 1c0-4.294 2-7.89 2-11v-1c-1.048 0-3 .473-3-1h-1l-1 12ZM171 37h1l3-1v-1c-1.484 0-2-8.262-2-10-1.048 0-3-.473-3 1 0 3.249 1 7.194 1 11Z"/><path fill="#088489" id="VISpm5" d="M171 37c-5.901 0-16.312 7-23 7 0-2.933-3-5.321-3-9 8.241 0 15.973-9 24-9h1c0 3.249 1 7.194 1 11ZM285 37c5.5 0 17.301 7 24 7 0-3.364 3-5.812 3-9l-25-9c0 3.11-2 6.706-2 11Z"/><path fill="#1AA697" id="RSPd6a" d="M192 41h1l11-9v-1l-5.5-3c-4.334-2.167-9.839 2-13.5 2v9c1.774 0 7-.273 7 2ZM264 41h1c0-2.273 5.226-2 7-2l-1-8v-1c-3.57 0-9.08-4.21-13.5-2l-5.5 3v1c4.362 0 7.054 9 11 9h1Z"/><path fill="#1CA597" id="RSPagl6a" d="m181 41-4 1c-1.995 0-2-4.377-2-6v-1l10-4v8l-4 2ZM272 39l8 3 2-6c-3.572 0-6.988-5-11-5l1 8Z"/><path fill="#0B848B" id="VISp4" d="m352 47-3 3c-1.87 0-26.617-9.558-29.5-11l-7.5-4 1-4h1c0 2.16 6.974 2.237 8.5 3 2.81 1.405 28.247 12 29.5 12v1ZM105 46l2 4c5.661 0 20.949-8.224 26.5-11 1.765-.883 10.5-1.45 10.5-4 0-1.048.473-3-1-3-8.753 0-20.98 5.24-28.5 9-2.576 1.288-6.629 5-9.5 5Z"/><path fill="#1AA498" id="RSPv6a" d="M191 72c0 1.145-.579 4 1 4 5.365 0 13-27.097 13-31.5 0-1.866.784-12.5-1-12.5l-11 9c0 1.734 3.4 13-1 13v9l-1 9ZM265 72c0 1.004 2.31 4-1 4l-5-4.5c-.769-1.537-1.186-3.371-2-5-5.186-10.372-5-23.07-5-34.5 4.362 0 7.054 9 11 9 0 4.44-3.094 12 2 12v19Z"/><path fill="#029FAB" id="VISrl1" d="M375 51h1l2-4c-4.874 0-14.507-13-20-13l-2 5c1.97 0 19 10.793 19 12ZM78 48l3 3c4.636 0 13.649-12 20-12v-1l-3-3c-2.28 0-20 12.257-20 13Z"/><path fill="#088389" id="VISp5" d="M111 59h1c0-2.13 6.044-3.272 7.5-4 8.116-4.058 19.034-11 28.5-11 0-2.933-3-5.321-3-9h-1c0 2.55-8.735 3.117-10.5 4-5.551 2.776-20.839 11-26.5 11v1c1.54 0 4 6.3 4 8ZM349 51l-4 7c-8.571 0-24.847-14-36-14 0-3.364 3-5.812 3-9l7.5 4c2.883 1.442 27.63 11 29.5 11v1Z"/><path fill="#0A828B" id="VISam6a" d="m177 43-4 1c-2.357 0-1-4.643-1-7l3-1c0 1.623.005 6 2 6v1ZM280 43l4 1c0-2.153 1-4.722 1-7l-3-1-2 6v1Z"/><path fill="#09858B" id="VISpm6a" d="M149 50h1c7.539 0 15.636-5 23-5v-1c-2.357 0-1-4.643-1-7h-1c-5.901 0-16.312 7-23 7l1 6ZM284 45c7.085 0 15.503 5 23 5 0-2.483 2-4.026 2-6-6.699 0-18.5-7-24-7 0 2.278-1 4.847-1 7v1Z"/><path fill="#029EAC" id="VISrl2/3" d="m81 51 5 6 18-11c0-2.18-3-5.188-3-7-6.351 0-15.364 12-20 12Z"/><path fill="#1AA598" id="RSPagl6b" d="M181 41h4v-2l-4 2Z"/><path fill="#1BA698" id="RSPd6b" d="M192 41v1c-1.819 0-4.591-1-7-1v-2c1.774 0 7-.273 7 2ZM265 41h7v-2c-1.774 0-7-.273-7 2Z"/><path fill="#1AA598" id="RSPagl6b" d="M279 43h1v-1l-8-3v2l7 2Z"/><path fill="#029EAC" id="VISrl2/3" d="M370 57h1c0-2.789 4-3.42 4-6 0-1.207-17.03-12-19-12h-1l-3 7v1c6.432 0 13.697 10 18 10Z"/><path fill="#1AA598" id="RSPagl6b" d="M177 42v1c1.465 0 4 .109 4-2l-4 1Z"/><path fill="#CACCC7" id="cing" d="M192 54v9c-4.25 0-4.045-13.272-7.5-15-6.687-3.344-12.901 3-19.5 3l-4-2c2.386 0 12-1.255 12-4 1.465 0 4 .109 4-2 1.465 0 4 .109 4-2h4c2.409 0 5.181 1 7 1v12Z"/><path fill="#1AA497" id="RSPv6b" d="M192 42v12c4.4 0 1-11.266 1-13h-1v1ZM265 42v11c-5.094 0-2-7.56-2-12h1l1 1Z"/><path fill="#1BA698" id="RSPd6b" d="M265 41v1l-1-1h1Z"/><path fill="#CACCC7" id="cing" d="M265 53v9c2.476 0 4.093-12.797 8.5-15 4.732-2.366 13.453 4 18.5 4l3-2c-2.029 0-12-2.051-12-4l-4-2-7-2h-7v12Z"/><path fill="#08838A" id="VISam6b" d="M173 44v1c1.465 0 4 .109 4-2l-4 1ZM283 45h1v-1l-4-1h-1l4 2Z"/><path fill="#08858C" id="VISp6a" d="M114 64h1l7.5-4c6.013-3.007 19.949-10 26.5-10l-1-6c-9.466 0-20.384 6.942-28.5 11-1.456.728-7.5 1.87-7.5 4l2 5ZM345 59l-3 5c-5.44 0-25.492-14-35-14 0-2.483 2-4.026 2-6 11.153 0 27.429 14 36 14v1Z"/><path fill="#088589" id="VISpm6b" d="M150 51h3c2.885 0 4.697-2 8-2 2.386 0 12-1.255 12-4-7.364 0-15.461 5-23 5v1ZM303 51h4v-1c-7.497 0-15.915-5-23-5h-1c0 1.949 9.971 4 12 4 3.303 0 5.115 2 8 2Z"/><path fill="#019EAA" id="VISrl4" d="m86 58 3 3c4.346 0 11.599-10 18-10v-1l-2-4h-1L86 57v1Z"/><path fill="#C8C9CA" id="fp" d="m67 138-2 3c0-5.557 2.652-11.804 5-16.5 3.627-7.255 5.328-15.655 9-23 9.398-18.797 30.825-30.162 47.5-38.5 6.492-3.246 19.239-10 26.5-10 4.499 0 7.354-2 12-2 6.599 0 12.813-6.344 19.5-3 3.455 1.728 3.25 15 7.5 15l-1 9-4 1c0-1.423 1.978-3.544 1-5.5-3.63-7.26-13.549-8.024-20.5-11.5-2.992-1.496-12.5.066-12.5 3-2.845 0-16 .04-16 3l-2 1h-1l-2 1-2 1h-1l-4 2-2 1-2 1-2 1-1 1h-1l-1 1-2 1-1 1h-1l-1 1h-1l-1 1-1 1h-1l-1 1-1 1-1 1-2 1-1 1-1 1-1 1-1 1h-1l-1 1-1 1-1 1-1 1-1 1-1 1-1 1-1 1-1 2-1 1-1 1-1 1-1 2-1 1c-1.577 0-2 1.762-2 3v1l-1 1-1 1-1 2-1 2-1 2-1 2-1 2-1 2-1 2-1 2-1 2-1 2v1c-2.109 0-2 2.535-2 4-1.353 0-2 4.643-2 6ZM392 145h1c0-5.797-3.498-13.496-6-18.5-4.274-8.548-6.65-18.3-11-27-9.993-19.985-33.449-29.975-50.5-38.5-6.058-3.029-15.514-8-22.5-8-3.982 0-6.704-2-11-2-5.047 0-13.768-6.366-18.5-4-4.407 2.203-6.024 15-8.5 15v10l4 1c0-14.07 10.639-12.07 20.5-17 2.437-1.219 12.5-.15 12.5 3 4.04 0 22 2.344 22 6h1c2.04 0 11 3.508 11 6h1l1 1h1l1 1h1l2 2h1l2 2h1l2 2h1l4 4h1c2.576 0 13 11.644 13 14l1 1 2 2v1l2 2v1c2.683 0 5.082 7.664 6 9.5 4.606 9.212 12 19.552 12 30.5v1h1Z"/><path fill="#019EAA" id="VISrl4" d="M367 61h1l2-4c-4.303 0-11.568-10-18-10l-3 3v1c6.732 0 14.635 10 18 10Z"/><path fill="#0B838B" id="VISal1" d="M393 67h1l3-3-4-3.5c-1.409-2.819-10.021-9.76-13.5-11.5l-1.5-2-2 4c0 2.47 17 12.017 17 16ZM62 67h1l3.5-4L81 51l-3-3c-.856 0-18 15-18 16l2 3Z"/><path fill="#C9C9CA" id="scwm" d="M165 51c-4.646 0-7.501 2-12 2v-2c2.885 0 4.697-2 8-2l4 2ZM303 51v2c-3.982 0-6.704-2-11-2l3-2c3.303 0 5.115 2 8 2Z"/><path fill="#08858A" id="VISp6b" d="M115 64v1c4.556 0 27.159-14 35-14v-1h-1c-6.551 0-20.487 6.993-26.5 10l-7.5 4ZM342 64v1c-3.321 0-18.661-8.08-22.5-10-1.824-.912-12.5-1.632-12.5-4v-1c9.508 0 29.56 14 35 14Z"/><path fill="#098389" id="VISal2/3" d="m63 67 6 6c0-1.262 15.158-15 17-15v-1l-5-6-14.5 12-3.5 4Z"/><path fill="#019DAB" id="VISrl5" d="m89 62 6 6c5.563 0 10.351-9 16-9 0-1.7-2.46-8-4-8-6.401 0-13.654 10-18 10v1Z"/><path fill="#CBC9C7" id="or" d="M64 144c-2.481 0-.98 13.462-2 15.5-1.758 3.516-3-2.568-3-4V151c1.663 0 2-5.407 2-7v-4c1.473 0 1-1.952 1-3v-1l1-1v-4l1-1v-1l1-2c1.995 0 2-4.377 2-6v-1l1-1v-1l1-1v-2l1-1 1-1c1.4 0 1.4-2 0-2l5-9 3-5 2-4 5-5c2.238 0 13-11.69 13-13 2.307 0 12-6.17 12-8 1.238 0 3-.423 3-2h1c4.556 0 27.159-14 35-14h3v2c-7.261 0-20.008 6.754-26.5 10-16.675 8.338-38.102 19.703-47.5 38.5-3.672 7.345-5.373 15.745-9 23-2.348 4.696-5 10.943-5 16.5-1.473 0-1 1.952-1 3ZM393 145c0 2.714 4 23.262 4 11.5V151c0-1.819-1-4.591-1-7-1.579 0-1-2.855-1-4v-2l-1-2v-1l-1-2v-4c-1.577 0-2-1.762-2-3v-1l-2-4v-2l-1-1v-1l-1-1v-1l-2-3c0-3.974-4-6.315-4-10-1.477 0-3-3.924-3-5-.81 0-7-7.43-7-9l-14-13c-1.211 0-15-7.918-15-10-3.321 0-18.661-8.08-22.5-10-1.824-.912-12.5-1.632-12.5-4h-4v2c6.986 0 16.442 4.971 22.5 8 17.051 8.525 40.507 18.515 50.5 38.5 4.35 8.7 6.726 18.452 11 27 2.502 5.004 6 12.703 6 18.5Z"/><path fill="#019DAB" id="VISrl5" d="M361 69h1c0-2.91 5-4.795 5-8-3.365 0-11.268-10-18-10l-4 7v1c2.058 0 16 8.653 16 10Z"/><path fill="#098389" id="VISal2/3" d="M387 73h1l5-6c0-3.983-17-13.53-17-16h-1c0 2.58-4 3.211-4 6 0 4.61 16 9.897 16 16Z"/><path fill="#C9CCC9" id="dhc" d="M184 74h1l2-1c0-1.423 1.978-3.544 1-5.5-3.63-7.26-13.549-8.024-20.5-11.5-2.992-1.496-12.5.066-12.5 3 .706 0 6 1.325 6 2h2c3.395 0 14 6.622 14 10h1l3 2h2l1 1ZM271 74h2l1-1h1l2-1 2-1 2-2c0-1.712 2.571-3 4-3l1-1c0-1.577 1.762-2 3-2h1c0-2.109 2.535-2 4-2h1c0-.682 6.241-2 7-2 0-3.15-10.063-4.219-12.5-3-9.861 4.93-20.5 2.93-20.5 17l2 1Z"/><path fill="#088588" id="VISal4" d="m387 73-2 2c-1.345 0-17-13.176-17-14l2-4h1c0 4.61 16 9.897 16 16ZM69 73c1.481 0 .785 2 3 2 7.138 0 10.062-13 17-13v-1l-3-3c-1.842 0-17 13.738-17 15Z"/><path fill="#029EAB" id="VISrl6a" d="m95 69 4 5c0-1.544 10.276-7 12-7 0-1.577 1.762-2 3-2v-1l-2-5h-1c-5.649 0-10.437 9-16 9v1Z"/><path fill="#C7C8CC" id="alv" d="m161 61-10.5-1c-2.966 1.483-8.06 2-11.5 2 0-2.96 13.155-3 16-3 .706 0 6 1.325 6 2ZM295 61c5.622 0 13.324-2.588 18.5 0l10.5 4c0-3.656-17.96-6-22-6-.759 0-7 1.318-7 2Z"/><path fill="#029EAB" id="VISrl6a" d="M361 69c0 .759-2.441 5-3 5-5.59 0-10.704-10-16-10l3-5c2.058 0 16 8.653 16 10Z"/><path fill="#7ECF4B" id="CA1" d="m138 239-3.5 2-4.5-1-1-1h-1c0-2.031-9.733-4.117-11.5-5-11.004-5.502-22.675-10.675-32-20-4.8-4.801-6.779-9.058-9.5-14.5l-6-9c-6.66-13.319-4-28.345-4-43.5v-1c1.93 0 2-6.225 2-8 1.995 0 2-4.377 2-6l2-4v-1l1-2 1-2 1-2 1-2 1-2 1-2 1-2 1-2 1-2 1-2 1-1 1-1v-1c1.577 0 2-1.762 2-3l1-1 1-2 1-1 1-1 1-1 1-2 1-1 1-1 1-1 1-1 1-1 1-1 1-1 1-1h1l1-1 1-1 1-1 1-1 2-1 1-1 1-1 1-1h1l1-1 1-1h1l1-1h1l1-1 2-1 1-1h1l1-1 2-1 2-1 2-1c1.465 0 4 .109 4-2h1l2-1 2-1h1l2-1c3.44 0 8.534-.517 11.5-2l10.5 1h2l1 1c0 7.782-2 15.666-2 23-15.608 0-22.787 3.143-36.5 10l-12 9-12.5 15.5-3 5.5-9 9.5c-1.516 3.033-4.516 5.032-6 8-5.649 11.297-2.032 32.936 3 43 4.598 9.196 24.266 33.383 32.5 37.5 1.729.865 19.5 15.213 19.5 16ZM326 240l-1 1c-2.833 0-4.84-2-7-2l1-2c6.004 0 10.537-9.518 15.5-12 12.003-6.001 30.484-28.468 36.5-40.5 2.862-5.725 2.147-13.294 5-19 4.384-8.768-4.942-27.942-10-33l-8-7.5c0-4.983-6.862-9.224-9-13.5-6.31-12.62-23.6-19.05-34.5-24.5-3.617-1.808-8.373-1.187-12-3l-8.5 1c0-6.587-2-15.413-2-22l2-2h1c5.622 0 13.324-2.588 18.5 0l10.5 4h1l11 6h1l1 1h1l1 1h1l2 2h1l2 2h1l2 2h1l4 4h1l13 14 1 1 2 2v1l2 2v1l12 22.5 4 13c0 .854 1.157 4.5 2 4.5v1c0 7.913 3.337 28.826 0 35.5-2.196 4.392-12 21.821-12 25.5l-8.5 10c-1.672 1.672-9.5 4.502-9.5 7-1.238 0-3 .423-3 2-1.856 0-7 1.782-7 4l-4 2-4 2c-1.465 0-4-.109-4 2-1.424 0-5 .362-5 2h-1l-2 1c-1.048 0-3-.473-3 1l-2 1Z"/><path fill="#C7C8CC" id="alv" d="M171 67c2.58 0 3.211 4 6 4 0-3.378-10.605-10-14-10l1 1c1.45 0 7 3.126 7 5ZM290 63h2l2-2c-1.465 0-4-.109-4 2Z"/><path fill="#08848B" id="VISal5" d="M376 83h1l8-7v-1c-1.345 0-17-13.176-17-14h-1c0 3.205-5 5.09-5 8 1.729 0 9.996 8.491 11 10.5l3 3.5ZM79 83h1c1.003 0 11.938-14 15-14v-1l-6-6c-6.938 0-9.862 13-17 13v1l7 7Z"/><path fill="#C7C8CC" id="alv" d="m139 62-2 1 2-1Z"/><path fill="#57B947" id="ProS" d="M162 85c3.238 0 5.3 3 8 3l1-21c0-1.874-5.55-5-7-5 0 7.782-2 15.666-2 23Z"/><path fill="#C7C8CC" id="alv" d="m136 63-2 1 2-1ZM289 63c-1.238 0-3 .423-3 2 1.238 0 3-.423 3-2Z"/><path fill="#57B947" id="ProS" d="M294 85c-3.238 0-5.3 3-8 3 0-7.15-1-14.403-1-21v-1l1-1c1.238 0 3-.423 3-2h3c0 6.587 2 15.413 2 22Z"/><path fill="#039399" id="AUDd1" d="M56 75h1c0-3.205 5-5.09 5-8l-2-3c-2.097 0-8 7.148-8 9l3 2h1Z"/><path fill="#009DAA" id="VISrl6b" d="M114 65h1v-1h-1v1Z"/><path fill="#C7C8CC" id="alv" d="m134 64-2 1 2-1Z"/><path fill="#009DAA" id="VISrl6b" d="M357 75h1v-1c-5.59 0-10.704-10-16-10v1c0 2.082 13.789 10 15 10Z"/><path fill="#039399" id="AUDd1" d="M400 75h1l4-2-8-9-3 3 6 8Z"/><path fill="#009DAA" id="VISrl6b" d="M114 65c-1.238 0-3 .423-3 2 1.238 0 3-.423 3-2Z"/><path fill="#C7C8CC" id="alv" d="m131 65-4 2c1.465 0 4 .109 4-2ZM286 65l-1 1 1-1ZM325 65c2.04 0 11 3.508 11 6l-11-6ZM285 67l-4 2c0-1.712 2.571-3 4-3v1Z"/><path fill="#029397" id="AUDd2/3" d="M57 75c0 1.726 4.558 5 6 5l6-7-6-6h-1c0 2.91-5 4.795-5 8Z"/><path fill="#009DAA" id="VISrl6b" d="M99 74v1c2.307 0 12-6.17 12-8-1.724 0-12 5.456-12 7Z"/><path fill="#C7C8CC" id="alv" d="m127 67-2 1 2-1Z"/><path fill="#4FC244" id="SUB" d="M173 90h2l16-1c0-1.473 1.952-1 3-1l1-1h1l1-4-2-4h-1l-9-5h-1l-1-1h-2c-1.238 0-3-.423-3-2h-1c-2.789 0-3.42-4-6-4l-1 21 3 2ZM281 90h3l1-1 1-1c0-7.15-1-14.403-1-21l-4 2c0 1.747-.253 2-2 2l-2 1-2 1h-1l-1 1h-2l-8 4-2 1-2 4 2 4 4 2h1l15 1Z"/><path fill="#029397" id="AUDd2/3" d="m400 75-6 5c-1.871 0-6-5.4-6-7l5-6h1l6 8Z"/><path fill="#C7C8CC" id="alv" d="m125 68-2 1 2-1Z"/><path fill="#09828C" id="VISal6a" d="M85 87h1c0-2.729 10.192-12 13-12v-1l-4-5c-3.062 0-13.997 14-15 14l5 4Z"/><path fill="#C7C8CC" id="alv" d="m123 69-2 1 2-1ZM281 69l-2 2c1.747 0 2-.253 2-2Z"/><path fill="#09828C" id="VISal6a" d="M371 87h1l4-4-3-3.5c-1.004-2.009-9.271-10.5-11-10.5h-1c0 .759-2.441 5-3 5v1c2.246 0 13 9.53 13 12Z"/><path fill="#C7C8CC" id="alv" d="m121 70-1 1 1-1ZM119 71l-1 1 1-1ZM178 71l3 2c-1.238 0-3-.423-3-2ZM279 71l-2 1 2-1ZM337 71l1 1-1-1ZM118 72l-2 1 2-1Z"/><path fill="#7DCD4B" id="HPF" d="m192 76 2 3-9-5 2-1 4-1c0 1.145-.579 4 1 4ZM264 76l-1 2 8-4-2-1-4-1c0 1.004 2.31 4-1 4Z"/><path fill="#C7C8CC" id="alv" d="m277 72-2 1 2-1ZM339 72l1 1-1-1Z"/><path fill="#039299" id="AUDpo1" d="M49 84h1l5-8v-1l-3-2c-2.073 0-7 6.148-7 8l4 3Z"/><path fill="#039398" id="AUDd4" d="m63 81 2 1 7-6v-1c-2.215 0-1.519-2-3-2l-6 7v1Z"/><path fill="#C7C8CC" id="alv" d="m116 73-1 1 1-1ZM183 73l1 1-1-1ZM274 73l-1 1 1-1ZM341 73l2 2-2-2Z"/><path fill="#039398" id="AUDd4" d="m394 81-3 1-6-6v-1l2-2h1c0 1.6 4.129 7 6 7v1Z"/><path fill="#039299" id="AUDpo1" d="m411 81-4 3c0-3.45-6-6.02-6-9l4-2c0 3.05 6 4.483 6 8Z"/><path fill="#C7C8CC" id="alv" d="m114 74-1 1 1-1Z"/><path fill="#029397" id="AUDd2/3" d="m56 75-1 1v-1h1Z"/><path fill="#029199" id="AUDpo2/3" d="M55 89h1c0-2.348 5.124-8 7-8v-1c-1.442 0-6-3.274-6-5h-1l-1 1-5 8 5 5Z"/><path fill="#0B848C" id="VISal6b" d="M86 87v1c2.238 0 13-11.69 13-13-2.808 0-13 9.271-13 12Z"/><path fill="#C7C8CC" id="alv" d="m112 75-1 1 1-1ZM344 75l2 2-2-2Z"/><path fill="#0B848C" id="VISal6b" d="M371 87v1l-14-13h1c2.246 0 13 9.53 13 12Z"/><path fill="#029199" id="AUDpo2/3" d="m407 85-6 3-7-7v-1l6-5h1c0 2.98 6 5.55 6 9v1Z"/><path fill="#029398" id="AUDd5" fill-rule="evenodd" d="M68 85c0 1.93 1.93 0 0 0m5 6h1c0-2.74 5-4.77 5-8l-7-7-7 6v1c2.904 0 4.76 8 8 8Z"/><path fill="#C7C8CC" id="alv" d="m111 76-1 1 1-1Z"/><path fill="#029398" id="AUDd5" d="m391 83-8 8-6-8 8-7 6 6v1Z"/><path fill="#C7C8CC" id="alv" d="m109 77-1 1 1-1ZM347 77l2 2-2-2ZM108 78l-1 1 1-1ZM107 79l-1 1 1-1ZM350 79l4 4-4-4Z"/><path fill="#029297" id="AUDp1" d="M28 127h1c0-9.878 5.826-20.152 10-28.5 2.333-4.665 10-9.617 10-14.5l-4-3c-2.602 0-6.085 7.67-7 9.5-5.411 10.822-15 22.736-15 35.5l5 1Z"/><path fill="#039298" id="AUDpo4" d="m56 89 3 2 6-8v-1l-2-1c-1.876 0-7 5.652-7 8Z"/><path fill="#C7C8CC" id="alv" d="m104 81-1 1 1-1Z"/><path fill="#039298" id="AUDpo4" d="M397 91h1l3-2v-1l-7-7-3 1v1c1.89 0 6 6.374 6 8Z"/><path fill="#029297" id="AUDp1" d="m433 126-5 1c0-12.709-9.656-22.812-15-33.5-.791-1.582-3.942-8.5-6-8.5v-1l4-3c2.982 0 6.702 7.904 8 10.5 5.31 10.621 14 21.911 14 34.5Z"/><path fill="#C7C8CC" id="alv" d="m103 82-1 1 1-1Z"/><path fill="#019197" id="AUDpo5" d="M73 91c0 1.417-2.383 6-4 6-3.97 0-6.693-6-10-6l6-8c2.904 0 4.76 8 8 8Z"/><path fill="#019399" id="AUDd6a" d="M81 93c-1.54 0-3 1.341-3 3-1.43 0-4-3.939-4-5 0-2.74 5-4.77 5-8h1l5 4c0 2.33-4 3.227-4 6Z"/><path fill="#7DCD4B" id="HPF" d="m200 85-4 2 1-4h2l1 2ZM257 85c0 2.109 2.535 2 4 2l-2-4h-1l-1 2Z"/><path fill="#C7C8CC" id="alv" d="M355 83c2.576 0 13 11.644 13 14l-13-14Z"/><path fill="#019399" id="AUDd6a" d="M378 96h1c0-.966 2.886-3 4-3v-2l-6-8h-1l-4 4 6 9Z"/><path fill="#019197" id="AUDpo5" d="M387 98h1l9-7c0-1.626-4.11-8-6-8l-8 8v2c1.533 0 4 3.753 4 5Z"/><path fill="#019298" id="AUDp2/3" d="m29 127 6 1c0-9.833 7.84-19.182 12-27.5L55 89l-5-5h-1c0 4.883-7.667 9.835-10 14.5-4.174 8.348-10 18.622-10 28.5Z"/><path fill="#C7C8CC" id="alv" d="m101 84-1 1 1-1Z"/><path fill="#7BD04A" id="DG-mo" d="m98 125 1 4c3.321 0 14-6.478 14-9-2.7 0-1.151-4.174.5-5l10.5-8.5c4.312-4.312 33.536-19.482 39.5-16.5 1.179.59 2.632 4.184 1 5-8.97 4.485-16.894 11.447-26 16-2.952 1.476-3.94 8-7.5 8v5l4-1 2-2 2-2h1l1-1 2-1 2-2 1-1h1l1-1h1l1-1 1-1h1l1-1 2-1 1-1 1-1h1l1-1 1-1h1l1-1 2-1c0-4.274 10-5.882 10-11l-1-2-3-2c-2.7 0-4.762-3-8-3-15.608 0-22.787 3.143-36.5 10l-12 9-12.5 15.5-3 5.5ZM358 125v3l-4.5 1-9.5-9c2.329 0-.301-3.801-1-4.5-3.937-3.937-8.461-6.461-12-10-5.586-5.585-31.949-18.276-39.5-14.5-1.564.782-.03 3.485 1 4l11 6c5.278 2.639 11.188 7.188 15.5 11.5l6 6.5v5c-5.119 0-8.839-9-14-9l-1-1-4-2-1-1h-1l-2-2h-1c0-4.519-18-9.372-18-18l1-1 1-1 1-1c2.7 0 4.762-3 8-3l8.5-1c3.627 1.813 8.383 1.192 12 3 10.9 5.45 28.19 11.88 34.5 24.5 2.138 4.276 9 8.517 9 13.5Z"/><path fill="#019197" id="AUDpo5" d="M68 85c0 1.93 1.93 0 0 0Z"/><path fill="#C7C8CC" id="alv" d="m99 85-1 1 1-1Z"/><path fill="#019298" id="AUDp2/3" d="M421 129h1c0-1.353 4.643-2 6-2 0-12.709-9.656-22.812-15-33.5-.791-1.582-3.942-8.5-6-8.5l-6 3v1l8 10.5c4.717 9.434 12 18.153 12 29.5Z"/><path fill="#C7C8CC" id="alv" d="m98 86-1 1 1-1Z"/><path fill="#019398" id="AUDd6b" d="m86 88-5 5c0-2.773 4-3.67 4-6h1v1Z"/><path fill="#C7C8CC" id="alv" d="m97 87-1 1 1-1Z"/><path fill="#7DCD4B" id="HPF" d="m195 87-1 1 1-1Z"/><path fill="#FF64FF" id="MB" d="M210 88c0-2.394-13-.409-13 1l12-1h1ZM248 88l11 1c0-1.681-12-3.313-12-1h1Z"/><path fill="#019398" id="AUDd6b" d="M378 96v1c-.81 0-7-7.43-7-9v-1h1l6 9Z"/><path fill="#C7C8CC" id="alv" d="m96 88-1 1 1-1Z"/><path fill="#FF8FFC" id="NOT" d="M167 106v3c4.073 0 9.277-6 17-6l2-1h1l1-1h3l2-1c5.028 0 9.556-5 14-5l2-7-12 1h-6c0 1.292-10.945 3.222-12.5 4l-8.5 8-1 1-1 2-1 2Z"/><path fill="#FF90FC" id="MPT" d="M207 95c0 2.317.709 8 4 8 12.783 0 6-8.708 6-12l-3-2-1-1h-4l-2 7Z"/><path fill="#FF64FF" id="MB" d="m213 88 1 1-1-1Z"/><path fill="#FF90FC" id="MPT" d="M250 95c0 2.467-2.331 8-5 8-5.677 0-8-3.69-8-9l1-1 1-1 1-1 1-1c0-1.995 4.377-2 6-2h1l1 6 1 1Z"/><path fill="#FF8FFC" id="NOT" d="M273 103c7.182 0 11.666 6 16 6 0-3.351-3-5.596-3-8 0-3.76-9.99-8.745-12.5-10-1.303-.652-7.5-.22-7.5-2h-7l-11-1 1 6 1 1c3.884 0 8.405 5 13 5l2 1 6 1 2 1Z"/><path fill="#039397" id="AUDp4" d="M35 129h3c0-9.714 8.867-19.235 13-27.5L59 91l-3-2h-1l-8 11.5c-4.16 8.318-12 17.667-12 27.5v1Z"/><path fill="#C7C8CC" id="alv" d="m95 89-1 1 1-1Z"/><path fill="#7DCD4B" id="HPF" d="m285 89-1 1 1-1Z"/><path fill="#039397" id="AUDp4" d="M418 129h3c0-11.347-7.283-20.066-12-29.5L401 89l-3 2c0 4.482 7.44 9.38 9 12.5 3.854 7.708 11 16.392 11 25.5Z"/><path fill="#C7C8CC" id="alv" d="m94 90-1 1 1-1Z"/><path fill="#65A83D" id="DG-sg" d="M131 119c3.56 0 4.548-6.524 7.5-8 9.106-4.553 17.03-11.515 26-16 1.632-.816.179-4.41-1-5-5.964-2.982-35.188 12.188-39.5 16.5l-10.5 8.5c-1.651.826-3.2 5-.5 5 4.114 0 7.39-9 12-9l6.5-5 18-10c.284-.142 5.5-2.135 5.5-.5l-9 6-6.5 4.5-6.5 7c0 2.447-2 3.28-2 6Z"/><path fill="#7DCD4B" id="HPF" d="m175 90-1 2-1-2h2Z"/><path fill="#FF64FF" id="MB" d="m241 90-1 1 1-1Z"/><path fill="#7DCD4B" id="HPF" d="m284 90-1 1-2-1h3Z"/><path fill="#65A83D" id="DG-sg" d="m325 119-6-6.5c-4.312-4.312-10.222-8.861-15.5-11.5l-11-6c-1.03-.515-2.564-3.218-1-4 7.551-3.776 33.914 8.915 39.5 14.5 3.539 3.539 8.063 6.063 12 10 .699.699 3.329 4.5 1 4.5-4.844 0-7.931-9-13-9 0-2.46-16.941-10.72-19.5-12-.579-.29-10.5-6.167-10.5-3.5l8 5 5.5 3.5 8.5 8c0 2.583 2 3.934 2 7Z"/><path fill="#039199" id="AUDp5" d="M38 129c4.865 0 9.715 4 15 4 1.552 0 3.174-10.848 4-12.5 1.832-3.664 12-19.794 12-22.5v-1c-3.97 0-6.693-6-10-6l-8 10.5c-4.133 8.265-13 17.786-13 27.5Z"/><path fill="#029399" id="AUDpo6a" d="M69 98c2.9 0 2.7 3 6 3l3-4v-1c-1.43 0-4-3.939-4-5h-1c0 1.417-2.383 6-4 6v1Z"/><path fill="#C7C8CC" id="alv" d="m93 91-1 1 1-1Z"/><path fill="#FF64FF" id="MB" d="m216 161-1 1c-3.381 0-1.015-7-4-7 0-3.164-.411-14.044-6.5-11l-2.5 2c0-4.597-9.043-3-11-3l2-17.5c-1.443-2.885-3-10.405-3-13.5 1.423 0 3.544 1.978 5.5 1 3.458-1.729 15.5-5.355 15.5-10 12.783 0 6-8.708 6-12 2.233 0 10 12.033 10 14-1.791 0-2.959-3.27-5.5-2-9.074 4.537-14.362 17.225-18.5 25.5-1.527 3.054-6.017 8.742-.5 11.5 4.494 2.247 7.565-3 10.5-3l2 1v17c0 1.321-.684 6 1 6Z"/><path fill="#039199" id="AUDp5" d="M418 130c-5.491 0-10.296 4-15 4 0-10.832-15-29.584-15-36l9-7h1c0 4.482 7.44 9.38 9 12.5 3.854 7.708 11 16.392 11 25.5v1Z"/><path fill="#C7C8CC" id="alv" d="m92 92-1 1 1-1Z"/><path fill="#FF64FF" id="MB" d="m239 92-1 1 1-1Z"/><path fill="#019398" id="AUDd6b" d="M78 97h1l2-4c-1.54 0-3 1.341-3 3v1Z"/><path fill="#C7C8CC" id="alv" d="m91 93-1 2 1-2Z"/><path fill="#FF64FF" id="MB" d="m238 93-1 1 1-1Z"/><path fill="#029399" id="AUDpo6a" d="M387 98c0 .56-4.241 3-5 3-1.077 0-3-3.762-3-5 0-.966 2.886-3 4-3 1.533 0 4 3.753 4 5Z"/><path fill="#FF64FF" id="MB" d="M246 155c-3.493 0-1.776 7-5 7v-25c.839 0 2 1.93 2 0 3.172 0 6.873 5.313 11.5 3 5.829-2.914.088-9.323-1.5-12.5-3.466-6.932-9.287-20.394-17.5-24.5-3.187-1.594-4.299 2-6.5 2 0-1.559 6.57-11 8-11 0 5.31 2.323 9 8 9 0 4.711 16.315 10 21 10 0 5.503-5.011 15.479-2 21.5.901 1.802 2 6.594 2 8.5-2.134 0-11-1.86-11 3l-2.5-2c-7.342-3.671-6.5 8.393-6.5 11ZM249 94l1 1-1-1Z"/><path fill="#7ECE4A" id="DG-po" d="M125 111c1.949 0 8-.991 8 2l6.5-7 6.5-4.5 9-6c0-1.635-5.216.358-5.5.5l-18 10-6.5 5Z"/><path fill="#FC8FFE" id="PPT" d="m189 109 1 3c1.423 0 3.544 1.978 5.5 1 3.458-1.729 15.5-5.355 15.5-10-3.291 0-4-5.683-4-8-4.444 0-8.972 5-14 5v1c7.443 0 3.431 8-4 8ZM267 109l-1 4c-4.685 0-21-5.289-21-10 2.669 0 5-5.533 5-8 3.884 0 8.405 5 13 5v1l-4 2.5c-1.64 3.28 6.178 5.5 8 5.5Z"/><path fill="#7ECE4A" id="DG-po" d="M331 111c-2.707 0-5.903 1-8 1l-8.5-8-5.5-3.5-8-5c0-2.667 9.921 3.21 10.5 3.5 2.559 1.28 19.5 9.54 19.5 12Z"/><path fill="#C7C8CC" id="alv" d="m89 96-1 1 1-1Z"/><path fill="#029298" id="AUDpo6b" d="M381 102h1v-1c-1.077 0-3-3.762-3-5h-1v1c0 1.076 1.523 5 3 5ZM75 102h1l3-5h-1l-3 4v1Z"/><path fill="#C7C8CC" id="alv" d="m88 97-1 1 1-1Z"/><path fill="#019396" id="AUDp6a" d="M59 136h1c0-2.2 2.723-13 5-13 0-2.826 8.205-21 10-21v-1c-3.3 0-3.1-3-6-3 0 2.706-10.168 18.836-12 22.5-.826 1.652-2.448 12.5-4 12.5v1c.986 0 6 1.087 6 2Z"/><path fill="#C7C8CC" id="alv" d="m87 98-1 2 1-2ZM369 98l2 2-2-2Z"/><path fill="#019396" id="AUDp6a" d="m403 134-6 2c0-7.855-15-29.396-15-34v-1c.759 0 5-2.44 5-3h1c0 6.416 15 25.168 15 36Z"/><path fill="#C7C8CC" id="alv" d="m86 100-1 1 1-1Z"/><path fill="#FF64FF" id="MB" d="M191 101h2v-1l-2 1ZM263 101h2l-2-1v1Z"/><path fill="#C7C8CC" id="alv" d="M85 101c-1.577 0-2 1.762-2 3 1.577 0 2-1.762 2-3Z"/><path fill="#FF64FF" id="MB" d="m170 101-1 1 1-1ZM188 101l-1 1 1-1Z"/><path fill="#FE90FC" id="OP" d="m185 103 4 6c7.431 0 11.443-8 4-8h-5l-1 1h-1l-1 1ZM272 103l-5 6c-1.822 0-9.64-2.22-8-5.5l4-2.5h2l6 1 1 1Z"/><path fill="#FF64FF" id="MB" d="m294 112-1 1-4-4c0-3.351-3-5.596-3-8l3 1c0 3.984 5 6.027 5 9v1Z"/><path fill="#C7C8CC" id="alv" d="m371 101 2 2-2-2Z"/><path fill="#039198" id="AUDp6b" d="m67 121-2 2c0-2.826 8.205-21 10-21h1l-5 9v2l-1 1-1 1v2l-1 1v1l-1 1v1Z"/><path fill="#C7CBCB" id="bsc" d="m124 135-1 2c0 11.06 4.157-10 12-10 0-1.577 1.762-2 3-2l1-1 2-1c0-1.473 1.952-1 3-1l2-1c0-1.577 1.762-2 3-2 0-2.447 6.063-4 8-4 0-1.533 3.753-4 5-4l5-5 1-2v-1h-4l-1 1-1 1h-1l-1 1h-1l-1 1-1 1-1 1h-1l-1 1-1 1-2 1-1 1h-1l-1 1-2 1c0 1.577-1.762 2-3 2l-2 1-1 1h-1c0 1.747-.253 2-2 2 0 1.747-.253 2-2 2l-10 10-1 2Z"/><path fill="#FF64FF" id="MB" d="M168 103v1l1-2-1 1ZM184 103h1l1-1-2 1ZM272 103h1l-2-1 1 1Z"/><path fill="#C7CBCB" id="bsc" d="M318 125h1c6.679 0 11.823 15.161 13.5 16 2.269 1.134.868-3.765.5-4.5l-7-9c-5.128-5.128-11.787-7.787-16.5-12.5-1.237-1.237-5.5-1.88-5.5-4l-2-1-1-1h-1l-1-1-3-2-1-1-6-3c0 3.984 5 6.027 5 9h1l1 1c1.111 0 14 8.211 14 9h1l1 1h1c1.408 0 5 1.197 5 3Z"/><path fill="#039198" id="AUDp6b" d="m397 136-2 1v-1c0-1.424-.362-5-2-5v-2c0-1.238-.423-3-2-3v-1c0-1.465.109-4-2-4v-2l-1-1v-1l-1-1v-1c0-1.238-.423-3-2-3 0-3.974-4-6.315-4-10h1c0 4.604 15 26.145 15 34Z"/><path fill="#FE8EFF" id="APN" d="M163 150c2.224 0 5.291 11 14 11 5.447 0 13-12.242 13-17l1-1 2-17.5c-1.443-2.885-3-10.405-3-13.5l-1-3-4-6h-1c-7.723 0-12.927 6-17 6 0 1.114-2.034 4-3 4l-3 8c1.7 0 1 5.137 1 6.5 0 4.909-1 12.087-1 17.5l1 1v1l1 2v1Z"/><path fill="#FF8DFE" id="NPC" d="M213 136v1c-2.935 0-6.006 5.247-10.5 3-5.517-2.758-1.027-8.446.5-11.5 4.138-8.275 9.426-20.963 18.5-25.5 2.541-1.27 3.709 2 5.5 2 0 2.564 2 2.564 2 0 2.201 0 3.313-3.594 6.5-2 8.213 4.106 14.034 17.568 17.5 24.5 1.588 3.177 7.329 9.586 1.5 12.5-4.627 2.313-8.328-3-11.5-3 0-10.451-14-11.554-14-18 0-1.186-1-1.186-1 0 0 6.63-14 7.445-14 16l-1 1Z"/><path fill="#FE8EFF" id="APN" d="m286 160-7 1c-5.503 0-13-13.668-13-18 0-1.906-1.099-6.698-2-8.5-3.011-6.021 2-15.997 2-21.5l1-4 5-6h1c7.182 0 11.666 6 16 6l4 4c0 2.885 2 4.697 2 8 0 8.554-1 18.784-1 27l-1 2v1l-1 1-1 1v1l-1 1-1 1v1l-1 1-1 1-1 1Z"/><path fill="#CAC7CB" id="fiber tracts" d="m163 104-1 1v-1h1Z"/><path fill="#FF64FF" id="MB" d="m168 104-1 2 1-2Z"/><path fill="#C7C8CC" id="alv" d="M373 104c2.683 0 5.082 7.664 6 9.5 4.606 9.212 12 19.552 12 30.5-.843 0-2-3.646-2-4.5l-4-13-12-22.5ZM83 105l-1 1 1-1Z"/><path fill="#CAC7CB" id="fiber tracts" d="m161 105-1 1v-1h1ZM295 105l1 1-1-1Z"/><path fill="#C7C8CC" id="alv" d="m82 106-1 1 1-1Z"/><path fill="#FF64FF" id="MB" d="M163 113h1c.966 0 3-2.886 3-4v-3l-5 5v1l1 1Z"/><path fill="#C7C8CC" id="alv" d="m81 107-1 2 1-2Z"/><path fill="#CAC7CB" id="fiber tracts" d="m158 107-1 1v-1h1ZM157 108l-1 1v-1h1ZM299 108l1 1-1-1Z"/><path fill="#C7C8CC" id="alv" d="m80 109-1 2 1-2Z"/><path fill="#CAC7CB" id="fiber tracts" d="M302 109v1l-1-1h1ZM154 110l-1 1v-1h1Z"/><path fill="#CCC8CA" id="ar" d="M71 111c1.4 0 1.4 2 0 2v-2Z"/><path fill="#C7C8CC" id="alv" d="m79 111-1 2 1-2Z"/><path fill="#7ECF49" id="CA3" d="m151 247-2 1c0-2.641-4.514-8-7-8l-2-1c0-2.002-11.49-9.99-13.5-12-11.9-11.9-28.122-23.743-35.5-38.5-7.984-15.968-10.35-32.301-2-49 1.453-2.907 6.176-10.5 10-10.5 3.321 0 14-6.478 14-9 4.114 0 7.39-9 12-9 1.949 0 8-.991 8 2 0 2.447-2 3.28-2 6v2l-3 4-1 1v1l-1 2-1 2c-2.95 0-7.726 15.951-9 18.5-7.243 14.485 10.18 38.359 16 50 1.131 2.262 6.25 14.5 9 14.5v1c0 1.338 4.41 7 6 7v1c0 2.242 7.978 9 10 9l1 1 3 4-2 2h-7c-3.335 0-1 6.346-1 8Z"/><path fill="#CAC7CB" id="fiber tracts" d="m153 111-2 1v-1h2ZM157 115h2l1-1h1l1-1v-2c-1.247 0-5 2.467-5 4ZM297 115c4.979 0 8.518 6 13 6 0-.789-12.889-9-14-9l-1-1h-1v1l3 3Z"/><path fill="#FF64FF" id="MB" d="m295 111 1 1-1-1Z"/><path fill="#CAC7CB" id="fiber tracts" d="m339 169-2 2c0-2.256 3.28-16-1-16 0-1.227-3.226-9-4-9v-1l-1-2c0-4.556-5.303-16-11-16l-1-2c6.679 0 11.823 15.161 13.5 16 2.269 1.134.868-3.765.5-4.5l-7-9c-5.128-5.128-11.787-7.787-16.5-12.5-1.237-1.237-5.5-1.88-5.5-4h1l1 1 4 2 1 1c5.161 0 8.881 9 14 9l4 2v1l10 20.5c3.023 6.045 0 15.112 0 21.5Z"/><path fill="#7ECF49" id="CA3" d="m305 247 2 1c0-2.55 5.402-8 8-8l1-1c0-1.577 1.762-2 3-2 0-4.283 13.561-12.061 17-15.5 14.105-14.105 26.558-27.115 35-44 4.365-8.729 1.976-29.047-2-37L358 128l-4.5 1-9.5-9c-4.844 0-7.931-9-13-9-2.707 0-5.903 1-8 1 0 2.583 2 3.934 2 7v2c1.533 0 4 3.753 4 5v1c5.176 0 12 24.922 12 30.5 0 2.248.942 11.5-2 11.5 0 1.622.461 5-2 5 0 2.621-5.158 16-8 16 0 1.465.109 4-2 4l-2 4c0 1.238-.423 3-2 3l-1 2-1 2c0 1.238-.423 3-2 3l-1 2-1 1v1l-1 1-1 2c0 1.238-.423 3-2 3l-1 1-1 1v1l-1 1-1 1-1 1-1 1c0 1.747-.253 2-2 2l-1 1-1 1-1 1-1 1-1 1-1 1-2 2-1 2c0 1.638 3.576 2 5 2h3c4.155 0 1 6.707 1 8Z"/><path fill="#CAC7CB" id="fiber tracts" d="m151 112-1 1v-1h1Z"/><path fill="#CCC8CA" id="ar" d="M385 112c1.577 0 2 1.762 2 3l-2-3ZM71 113l-1 1 1-1Z"/><path fill="#C7C8CC" id="alv" d="m78 113-1 2 1-2Z"/><path fill="#CAC7CB" id="fiber tracts" d="m149 113-1 1v-1h1Z"/><path fill="#FE909D" id="LP" d="m141 134 2 1 9.5 1 5.5-3c0-2.992-.035-12 3-12l3-8h-2l-1 1h-1l-1 1h-2l-8 4c0 1.577-1.762 2-3 2l-1 1-1 1-3 4v7ZM315 134l-1 1-9.5 1-5.5-2c0-3.118-.129-13-4-13 0-3.303-2-5.115-2-8l4 2c4.979 0 8.518 6 13 6l5 6v7Z"/><path fill="#CCC8CA" id="ar" d="m70 114-1 1 1-1Z"/><path fill="#CAC7CB" id="fiber tracts" d="m148 114-2 1v-1h2Z"/><path fill="#C7C8CC" id="alv" d="m77 115-1 2 1-2Z"/><path fill="#CAC7CB" id="fiber tracts" d="M146 115c0 1.577-1.762 2-3 2l2-2h1ZM157 115c-1.937 0-8 1.553-8 4l8-4Z"/><path fill="#CCC8CA" id="ar" d="m387 116 1 1-1-1ZM69 117l-1 1 1-1Z"/><path fill="#C7C8CC" id="alv" d="m76 117-1 2 1-2Z"/><path fill="#CAC7CB" id="fiber tracts" d="m143 117-2 1 2-1ZM141 118l-1 1 1-1Z"/><path fill="#FF64FF" id="MB" d="M228 119h1c0-1.186-1-1.186-1 0Z"/><path fill="#CCC8CA" id="ar" d="m388 118 1 1-1-1ZM68 119l-1 1 1-1Z"/><path fill="#C7C8CC" id="alv" d="m75 119-1 2 1-2Z"/><path fill="#CAC7CB" id="fiber tracts" d="m139 119-2 2c1.747 0 2-.253 2-2ZM149 119c-1.238 0-3 .423-3 2 1.238 0 3-.423 3-2Z"/><path fill="#CCCACA" id="pc" d="M241 137c.839 0 2 1.93 2 0 0-10.451-14-11.554-14-18h-1c0 6.63-14 7.445-14 16l-1 1v1l2 1c0-3.986 7.603-9 11-9 1.004 0 4-2.31 4 1 3.397 0 11 2.174 11 7Z"/><path fill="#CCC8CA" id="ar" d="M65 123v4c1.995 0 2-4.377 2-6l-2 2Z"/><path fill="#C7C8CC" id="alv" d="m74 121-1 2 1-2Z"/><path fill="#7DCD4B" id="HPF" d="M128 125v1l3-2v-3l-3 4Z"/><path fill="#CAC7CB" id="fiber tracts" d="m137 121-2 2c1.747 0 2-.253 2-2ZM144 122h1l1-1-2 1Z"/><path fill="#FF8D9D" id="POL" d="M172 163c0 3.561-.607 3-3 3l-5-4.5c-2.457-4.913-6-11.74-6-17.5v-11c0-2.992-.035-12 3-12 1.7 0 1 5.137 1 6.5 0 4.909-1 12.087-1 17.5l1 1v1l1 2v1c0 1.821 5.134 10 7 10l1 1 1 2ZM285 163c0 1.145-.579 4 1 4 6.298 0 12-18.285 12-23l1-1v-9c0-3.118-.129-13-4-13 0 8.554-1 18.784-1 27l-1 2v1l-1 1-1 1v1l-1 1-1 1v1l-1 1-1 1-1 1-1 3Z"/><path fill="#FF6F80" id="TH" d="M317 127h3l-1-2h-1l-5-3h-1l-1-1h-1l5 6h2Z"/><path fill="#CAC7CB" id="fiber tracts" d="m311 121 1 1-1-1Z"/><path fill="#7DCD4B" id="HPF" d="m325 124 4 2c0-1.247-2.467-5-4-5v3Z"/><path fill="#CCC8CA" id="ar" d="M389 121c2.109 0 2 2.535 2 4l-2-4Z"/><path fill="#CAC7CB" id="fiber tracts" d="M141 123h3v-1c-1.048 0-3-.473-3 1Z"/><path fill="#FF6F80" id="TH" d="m145 122-1 1v-1h1Z"/><path fill="#CAC7CB" id="fiber tracts" d="M313 122c1.408 0 5 1.197 5 3l-5-3Z"/><path fill="#039198" id="AUDp6b" d="m60 136 1 1 1-2c0-1.048-.473-3 1-3v-2l1-1 1-2v-4c-2.277 0-5 10.8-5 13Z"/><path fill="#C7C8CC" id="alv" d="m73 123-1 2 1-2Z"/><path fill="#CAC7CB" id="fiber tracts" d="M125 131v2l10-10-4 1-3 2-1 1-1 2-1 2ZM141 123l-2 1 2-1Z"/><path fill="#FF6F80" id="TH" d="M139 127h2l3-4h-3l-2 1-1 1-1 2h2Z"/><path fill="#CAC7CB" id="fiber tracts" d="m139 124-1 1 1-1Z"/><path fill="#C7C8CC" id="alv" d="m72 125-1 2 1-2Z"/><path fill="#7DCF4B" id="CA2" d="M138 239h2c0-2.002-11.49-9.99-13.5-12-11.9-11.9-28.122-23.743-35.5-38.5-7.984-15.968-10.35-32.301-2-49 1.453-2.907 6.176-10.5 10-10.5l-1-4-9 9.5c-1.516 3.033-4.516 5.032-6 8-5.649 11.297-2.032 32.936 3 43 4.598 9.196 24.266 33.383 32.5 37.5 1.729.865 19.5 15.213 19.5 16Z"/><path fill="#C7C8CC" id="alv" d="M127 126h1v-1l-1 1Z"/><path fill="#CAC7CB" id="fiber tracts" d="M135 127h2l1-2c-1.238 0-3 .423-3 2Z"/><path fill="#7DCF4B" id="CA2" d="m358 128 11 12.5c3.976 7.953 6.365 28.271 2 37-8.442 16.885-20.895 29.895-35 44-3.439 3.439-17 11.217-17 15.5 6.004 0 10.537-9.518 15.5-12 12.003-6.001 30.484-28.468 36.5-40.5 2.862-5.725 2.147-13.294 5-19 4.384-8.768-4.942-27.942-10-33l-8-7.5v3Z"/><path fill="#019099" id="AUDv1" d="M21 147h6c0-6.937 1-13.531 1-20l-5-1-2 21Z"/><path fill="#7DCD4B" id="HPF" d="m128 126-1 1v-1h1Z"/><path fill="#CCC8CA" id="ar" d="M391 126c1.577 0 2 1.762 2 3-1.577 0-2-1.762-2-3Z"/><path fill="#019099" id="AUDv1" d="M429 147h6c0-7.435-2-13.806-2-21l-5 1c0 6.134 1 13.266 1 20Z"/><path fill="#029198" id="AUDv2/3" d="M27 147h6c0-6.406 2-12.21 2-18v-1l-6-1h-1c0 6.469-1 13.063-1 20Z"/><path fill="#CCC8CA" id="ar" d="m65 127-1 2 1-2Z"/><path fill="#C7C8CC" id="alv" d="m127 127-1 2 1-2Z"/><path fill="#CAC7CB" id="fiber tracts" d="M120 155c-3.445 0-1 11.641-1 14-2.488 0-2-6.101-2-8 0-4.708 1.428-24 6-24 0 11.06 4.157-10 12-10 0 3.406-10 9.856-10 18l-5 10Z"/><path fill="#FE8083" id="LGd-sh" d="M128 153h1l1-1 1-1v-1l1-1 1-1v-1c0-1.238.423-3 2-3 0-5.905 4-10.219 4-17h-4c0 3.406-10 9.856-10 18v5l3 3Z"/><path fill="#FE7F84" id="LGd-co" d="m138 140-3 4c0-5.905 4-10.219 4-17h2v7l-1 3-1 1v1l-1 1ZM321 145l2 1c0-4.737-6-10.927-6-19h-2v7l2 4c0 2.46 4 4.17 4 7Z"/><path fill="#FE8083" id="LGd-sh" d="M327 153h1c0-1.577 1.762-2 3-2v-1c0-1.145-.579-4 1-4v-1l-1-2c0-4.556-5.303-16-11-16h-3c0 8.073 6 14.263 6 19v1l1 1 2 4 1 1Z"/><path fill="#C7C8CC" id="alv" d="M329 127c5.176 0 12 24.922 12 30.5 0 2.248.942 11.5-2 11.5 0-6.388 3.023-15.455 0-21.5L329 127Z"/><path fill="#029198" id="AUDv2/3" d="M429 147c-2.124 0-4.436 1-6 1 0-6.525-1-13-1-19 0-1.353 4.643-2 6-2 0 6.134 1 13.266 1 20Z"/><path fill="#C7C8CC" id="alv" d="M71 128c-2.109 0-2 2.535-2 4l2-4Z"/><path fill="#FF78FE" id="SCO" d="M227 131h2l1-1c0-3.31-2.996-1-4-1l1 2Z"/><path fill="#029197" id="AUDv4" d="M33 148h4c0-6.525 1-13 1-19h-3c0 5.79-2 11.594-2 18v1Z"/><path fill="#019098" id="AUDv5" d="M50 149h1c0-5.599 2-9.98 2-15v-1c-5.285 0-10.135-4-15-4 0 6-1 12.475-1 19l13 1Z"/><path fill="#CCC8CA" id="ar" d="M63 130h1v-1l-1 1Z"/><path fill="#C7C8CC" id="alv" d="m126 129-1 2 1-2Z"/><path fill="#FC8FFF" id="PAG" d="M217 169c0 2.876 4.955 13.272 9.5 11l2-2 1 2c5.049 2.524 9.5-7.476 9.5-11-2.722 0-6.558-6.471-3.5-8 1.956-.978 4.077 1 5.5 1v-25c0-4.826-7.603-7-11-7l-1 1v1l-.5 11-1.5-11v-1l-1-2c-3.397 0-11 5.014-11 9v17c0 1.321-.684 6 1 6 9.384 0 5.763 8 1 8Z"/><path fill="#029197" id="AUDv4" d="M420 148h3c0-6.525-1-13-1-19h-4v1c0 5.702 2 11.755 2 18Z"/><path fill="#C9C9CA" id="scwm" d="m64 130-1 1v-1h1Z"/><path fill="#019098" id="AUDv5" d="m420 148-14 1c0-4.939-3-10.486-3-15 4.704 0 9.509-4 15-4 0 5.702 2 11.755 2 18Z"/><path fill="#C7C8CC" id="alv" d="M129 191c0 8.155 12 15.027 12 23-2.75 0-7.869-12.238-9-14.5-5.82-11.641-23.243-35.515-16-50 1.274-2.549 6.05-18.5 9-18.5v2l-1 2-1 2c-4.572 0-6 19.292-6 24 0 1.899-.488 8 2 8v1c0 1.647 1.268 7 3 7l2 4 4 8v1l1 1Z"/><path fill="#FF64FF" id="MB" d="M227 132h2v-1h-2v1Z"/><path fill="#CCC8CA" id="ar" d="M394 136h1c0-1.424-.362-5-2-5v2l1 2v1ZM62 135h1v-3c-1.473 0-1 1.952-1 3Z"/><path fill="#C7C8CC" id="alv" d="M69 132c-1.353 0-2 4.643-2 6 1.995 0 2-4.377 2-6Z"/><path fill="#A9A9A8" id="AQ" d="M227 132h2l-.5 11-1.5-11Z"/><path fill="#CAC7CB" id="fiber tracts" d="m125 133-1 2 1-2Z"/><path fill="#FF8E9D" id="SGN" d="M147 145h3c2.858 0 5.278-1 8-1v-11l-5.5 3-9.5-1-1 2c1.222 0 5 6.549 5 8Z"/><path fill="#C8C9CA" id="fp" d="m393 133 1 2-1-2Z"/><path fill="#019397" id="AUDv6a" d="m51 149 6 1c0-1.923-.156-9 2-9v-5c0-.913-5.014-2-6-2 0 5.02-2 9.401-2 15Z"/><path fill="#FF6F80" id="TH" d="M140 137h2l1-2-2-1-1 3Z"/><path fill="#FF8E9D" id="SGN" d="M306 145h3c0-1.505 4.197-8 6-8l-1-2-9.5 1-5.5-2v10c0 2.113 6.112 1 7 1Z"/><path fill="#FF6F80" id="TH" d="m315 137 2 1-2-4-1 1 1 2Z"/><path fill="#019397" id="AUDv6a" d="m406 149-6 1-3-14 6-2c0 4.514 3 10.061 3 15Z"/><path fill="#CCC8CA" id="ar" d="M61 137h1v-2l-1 2Z"/><path fill="#C8C9CA" id="fp" d="m63 135-1 1v-1h1Z"/><path fill="#CAC7CB" id="fiber tracts" d="m124 135-1 2 1-2Z"/><path fill="#FF64FF" id="MB" d="m214 135-1 1 1-1Z"/><path fill="#019198" id="AUDv6b" d="M59 141h1l1-2v-2l-1-1h-1v5Z"/><path fill="#C8C9CA" id="fp" d="M395 137v1l-1-2h1v1Z"/><path fill="#019198" id="AUDv6b" d="M398 150h2l-3-14-2 1v1l2 4v1l1 7Z"/><path fill="#C8C9CA" id="fp" d="M61 139v1c1.473 0 1-1.952 1-3h-1v2Z"/><path fill="#FF6F80" id="TH" d="m140 137-1 1 1-1Z"/><path fill="#FE7F82" id="MGd" d="m135 146 5.5-1 5.5 2 1-2c0-1.451-3.778-8-5-8h-2l-1 1v1l-1 1-3 4v2ZM321 146c-1.423 0-3.544-1.978-5.5-1l-5.5 2-1-2c0-1.505 4.197-8 6-8l2 1c0 2.46 4 4.17 4 7v1Z"/><path fill="#C7C8CC" id="alv" d="M65 145v1c1.93 0 2-6.225 2-8l-2 3v4Z"/><path fill="#CCC8CA" id="ar" d="m395 140 2 2-2-4v2ZM60 141h1v-2l-1 2Z"/><path fill="#FF6F80" id="TH" d="m139 139-1 1 1-1Z"/><path fill="#C8C9CA" id="fp" d="m397 143-1 1c-1.579 0-1-2.855-1-4l2 2v1Z"/><path fill="#019198" id="AUDv6b" d="M57 150h1l1-9c-2.156 0-2 7.077-2 9Z"/><path fill="#CCC8CA" id="ar" d="M58 151h1c1.663 0 2-5.407 2-7-1.473 0-1-1.952-1-3h-1l-1 9v1Z"/><path fill="#C8C9CA" id="fp" d="M61 141v3c-1.473 0-1-1.952-1-3h1ZM64 144l1 1v-4c-1.473 0-1 1.952-1 3Z"/><path fill="#FF8FFD" id="MRN" d="M174 187c0-1.639-2-2.455-2-3.5 0-2.126 4.789-1.5 6-1.5l12 8c10.83 0 16.512.476 22-10.5l1-6 3-4.5c-2.495 0-2.852-6-1-6v-1c-3.381 0-1.015-7-4-7-10.746 0-9-.329-9-9 0-4.597-9.043-3-11-3l-1 1c0 4.758-7.553 17-13 17l-2 6 3 6c0 5.453.757 6-6 6l-4 3.5c-1.605 3.21 4.065 4.5 6 4.5ZM267 190l-2 1c-14.305 0-15.487-4.473-21-15.5l-4-6.5c0-.671-2.662-5 0-5 0 8.966 5.321-1 1-1v-1c3.224 0 1.507-7 5-7 8.379 0 9-1.988 9-9 0-4.86 8.866-3 11-3 0 4.332 7.497 18 13 18 0 2.583 2 3.934 2 7l-2 5-1 1c0 5.398.948 5 7 5l4 3.5c0 2.982-4.595 4.5-7 4.5l2-3.5c-3.608-7.217-13.842 6.5-17 6.5Z"/><path fill="#FF64FF" id="MB" d="m191 143-1 1 1-1Z"/><path fill="#FF6F80" id="TH" d="M298 144h1v-1l-1 1ZM331 143l1 2-1-2Z"/><path fill="#CCC8CA" id="ar" d="M397 151h1v-1l-1-7-1 1c0 2.409 1 5.181 1 7Z"/><path fill="#C8CBCC" id="ec" d="M69 193c0 4.287 5 7.258 5 11-1.378 0-11-14.292-11-16 0-1.041-.986-5-2-5v-1l-2-16-1-15h1v4.5c0 1.432 1.242 7.516 3 4 1.02-2.038-.481-15.5 2-15.5l1 1v2c-1.583 0-2 8.666-2 10.5v20l5 13.5 1 1v1Z"/><path fill="#FE7F84" id="LGd-co" d="M133 147h1l1-1v-2c-1.577 0-2 1.762-2 3Z"/><path fill="#FF7E82" id="PoT" d="m151 173 2 1c0-3.942 13.834-4 17-4 0-1.674-1-2.326-1-4l-5-4.5c-2.457-4.913-6-11.74-6-17.5-2.722 0-5.142 1-8 1l3 4.5c1.466 2.933 3.536 21.5-2 21.5v2Z"/><path fill="#FD8DFF" id="RPF" d="m202 146 2.5-2c6.089-3.044 6.5 7.836 6.5 11-10.746 0-9-.329-9-9ZM255 146l-2.5-2c-7.342-3.671-6.5 8.393-6.5 11 8.379 0 9-1.988 9-9Z"/><path fill="#FF7E82" id="PoT" d="m306 172-2 1c-5.166 0-10.796-3-17-3l-1-3c6.298 0 12-18.285 12-23h1c0 2.113 6.112 1 7 1 0 2.592-9.845 26 0 26v1Z"/><path fill="#FF6F80" id="TH" d="M120 155h3l2-4v-6l-5 10Z"/><path fill="#FE7E83" id="MGv" d="m132 158 3 5c17.048 0 11-5.314 11-16l-5.5-2-5.5 1-1 1-1 1v1l-1 1v8Z"/><path fill="#FD7F83" id="MGm" d="M147 171h4c5.536 0 3.466-18.567 2-21.5l-3-4.5h-3l-1 2c0 10.686 6.048 16-11 16 0 2.364 3 3.053 3 5 1.345 0 7 1.571 7 3h2Z"/><path fill="#FF64FF" id="MB" d="m161 145 1 1-1-1Z"/><path fill="#FD7F83" id="MGm" d="M309 171h2c0-.733 6.022-3 7-3 0-1.947 3-2.636 3-5-15.524 0-11-4.853-11-16l-1-2h-3c0 2.592-9.845 26 0 26h3Z"/><path fill="#FE7E83" id="MGv" d="m322 162-1 1c-15.524 0-11-4.853-11-16l5.5-2c1.956-.978 4.077 1 5.5 1l2 1v1c0 2.526 2 5.577 2 9v1l-1 1-2 3Z"/><path fill="#FF6F80" id="TH" d="M323 146v1l-2-1v-1l2 1Z"/><path fill="#C7C8CC" id="alv" d="m385 198-6 8c0-3.679 9.804-21.108 12-25.5 3.337-6.674 0-27.587 0-35.5h1c0 5.693 4.362 22.775 2 27.5-2.075 4.149-.936 9.872-3 14-.895 1.79-3 3.403-3 5.5l-1 2-2 4Z"/><path fill="#C8CBCC" id="ec" d="M385 198v3c4.088 0 5.972-13 9-13 0-1.145-.579-4 1-4v-1c0-6.145 2-11.578 2-18 0-1.406 4.098-14 1-14h-1v5.5c0 11.762-4-8.786-4-11.5h-1c0 5.693 4.362 22.775 2 27.5-2.075 4.149-.936 9.872-3 14-.895 1.79-3 3.403-3 5.5l-1 2c0 1.465.109 4-2 4Z"/><path fill="#FF6F80" id="TH" d="m135 146-1 1 1-1ZM333 155h3c0-1.227-3.226-9-4-9-1.579 0-1 2.855-1 4 1.014 0 2 3.959 2 5Z"/><path fill="#15B0B3" id="TEa1" d="m28 167-5 1-2-21h6c0 6.573 1 14.1 1 20Z"/><path fill="#16AFB3" id="TEa2/3" d="m36 165-8 2c0-5.9-1-13.427-1-20h6v1c0 6.324 3 11.103 3 17Z"/><path fill="#C7C8CC" id="alv" d="M127 239h1c0-2.031-9.733-4.117-11.5-5-11.004-5.502-22.675-10.675-32-20-4.8-4.801-6.779-9.058-9.5-14.5l-6-9c-6.66-13.319-4-28.345-4-43.5-1.583 0-2 8.666-2 10.5v20l5 13.5 1 1v1l3 5.5L84 217l26.5 16c1.568.784 9.5 1.924 9.5 4h2l1 1h1l1 1h2Z"/><path fill="#FF6F80" id="TH" d="m134 147-1 1v-1h1Z"/><path fill="#FF64FF" id="MB" d="m162 147 1 2-1-2Z"/><path fill="#FE7F84" id="LGd-co" d="M323 148h1l-1-1v1Z"/><path fill="#16AFB3" id="TEa2/3" d="m420 165 9 2v-20c-2.124 0-4.436 1-6 1 0 6.444-3 11.575-3 17Z"/><path fill="#15B0B3" id="TEa1" d="m429 167 4 1c0-6.76 2-13.841 2-21h-6v20Z"/><path fill="#15B0B2" id="TEa4" d="M36 165h3c0-4.572-2-11.014-2-17h-4c0 6.324 3 11.103 3 17Z"/><path fill="#15AFB3" id="TEa5" d="M39 165h10l1-16-13-1c0 5.986 2 12.428 2 17Z"/><path fill="#FE7F84" id="LGd-co" d="M132 149h1v-1l-1 1Z"/><path fill="#FF64FF" id="MB" d="m294 148-1 2 1-2Z"/><path fill="#FF6F80" id="TH" d="m327 156-2 1c0-3.423-2-6.474-2-9h1l2 4 1 1v3Z"/><path fill="#15AFB3" id="TEa5" d="M417 165h1l2-17-14 1c0 5.139 1 10.395 1 16h10Z"/><path fill="#15B0B2" id="TEa4" d="M418 165c0 1.93 1.161 0 2 0 0-5.425 3-10.556 3-17h-3l-2 17Z"/><path fill="#15AFB2" id="TEa6a" d="M49 165c2.702 0 6.58 1 9 1 0-4.594-1-10.741-1-16l-6-1h-1l-1 16Z"/><path fill="#FE7F84" id="LGd-co" d="M131 150h1v-1l-1 1Z"/><path fill="#FF6F80" id="TH" d="m133 149-1 1v-1h1Z"/><path fill="#15AFB2" id="TEa6a" d="M399 165h8c0-5.605-1-10.861-1-16l-6 1-1 15Z"/><path fill="#16B0B2" id="TEa6b" d="M58 166h1l-1-15v-1h-1c0 5.259 1 11.406 1 16Z"/><path fill="#FE7F84" id="LGd-co" d="m125 151 3 2-3-3v1Z"/><path fill="#FF6F80" id="TH" d="m129 155 3 3v-8h-1v1l-1 1-1 1v2Z"/><path fill="#FF64FF" id="MB" d="m172 163 3 4 2-6c-8.709 0-11.776-11-14-11 0 1.821 5.134 10 7 10l1 1 1 2Z"/><path fill="#FF909E" id="IGL" d="m327 156 1 5 5-6c0-1.041-.986-5-2-5v1c0 1.577-1.762 2-3 2h-1v3Z"/><path fill="#16B0B2" id="TEa6b" d="M399 165v1l-2-1c0-1.406 4.098-14 1-14v-1h2l-1 15Z"/><path fill="#FF909E" id="IGL" d="M129 155c0 1.235.643 5-1 5-2.047 0-2.168-5-5-5l2-4 3 2h1v2Z"/><path fill="#FE7F84" id="LGd-co" d="m131 151-1 1 1-1Z"/><path fill="#FF64FF" id="MB" d="m293 151-1 1 1-1Z"/><path fill="#FE7F84" id="LGd-co" d="M331 151c-1.238 0-3 .423-3 2 1.238 0 3-.423 3-2ZM130 152l-1 1 1-1Z"/><path fill="#FF64FF" id="MB" d="m292 152-1 1 1-1Z"/><path fill="#FE7F84" id="LGd-co" d="m326 152 1 1-1-1Z"/><path fill="#FF64FF" id="MB" d="m291 154-1 1 1-1Z"/><path fill="#FF8E9F" id="LGv" d="m129 171-1 3c-1.384 0-1.123 3.189-3.5 2l-5.5-6v-1c0-2.359-2.445-14 1-14h3c2.832 0 2.953 5 5 5l1 4v7Z"/><path fill="#FE8D9D" id="IntG" d="M129 164c2.665 0 5.362 4 9 4 0-1.947-3-2.636-3-5l-3-5-3-3c0 1.235.643 5-1 5l1 4Z"/><path fill="#FF64FF" id="MB" d="m290 155-1 1 1-1Z"/><path fill="#FF8E9F" id="LGv" d="m328 172 1 3c4.937 0 6.311-4 8-4 0-2.256 3.28-16-1-16h-3l-5 6-1 3 1 8Z"/><path fill="#FE8D9D" id="IntG" d="M327 164c-2.749 0-5.105 4-9 4 0-1.947 3-2.636 3-5l1-1 2-3 1-1v-1l2-1 1 5-1 3Z"/><path fill="#FF64FF" id="MB" d="m289 157-1 1 1-1ZM288 158l-1 1 1-1Z"/><path fill="#FF6F80" id="TH" d="m325 158-1 1 1-1Z"/><path fill="#FF64FF" id="MB" d="m287 159-1 1 1-1Z"/><path fill="#FF6F80" id="TH" d="m170 160 1 1-1-1Z"/><path fill="#FF64FF" id="MB" d="m285 163-4 5c0-3.066-2-4.417-2-7l7-1-1 3Z"/><path fill="#FD8FFD" id="ND" d="M217 168v1c4.763 0 8.384-8-1-8l-1 1v1h1l1 2v3ZM239 169h1c0-.671-2.662-5 0-5l1-1v-1c-1.423 0-3.544-1.978-5.5-1-3.058 1.529.778 8 3.5 8Z"/><path fill="#FD7F83" id="MGm" d="m322 162-1 1 1-1Z"/><path fill="#FF6F80" id="TH" d="m170 170 8 3-3-6-3-4c0 3.561-.607 3-3 3 0 1.674 1 2.326 1 4Z"/><path fill="#FF90FD" id="INC" d="m217 168-1 1c-2.495 0-2.852-6-1-6h1l1 2v3Z"/><path fill="#FF8FFD" id="MRN" d="m216 163 1 2-1-2ZM241 163l-1 1 1-1Z"/><path fill="#FF90FD" id="INC" d="M241 163c4.321 0-1 9.966-1 1l1-1Z"/><path fill="#FF6F80" id="TH" d="M287 170c-2.748 0-5.804 3-8 3l2-5 4-5c0 1.145-.579 4 1 4l1 3ZM147 175l8 2-2-3-2-1c-1.623 0-6-.005-6-2 0-1.429-5.655-3-7-3-3.638 0-6.335-4-9-4v7h2l1-1c6.093 0 9.661 5 15 5Z"/><path fill="#FF6F80" id="TH" fill-rule="evenodd" d="m308 176-7 1c0-1.457 3-1.46 3-4l2-1v-1h3c0 1.399 2 1.399 2 0 0-.733 6.022-3 7-3 3.895 0 6.251-4 9-4l1 8-2-1c-1.423 0-3.544-1.978-5.5-1l-10.5 5-2 1m-2-4c0 2.112 5.567 0 0 0Z"/><path fill="#0D9F91" id="ECT2/3" d="m35 181 9 2c0-6.672-5-11.574-5-18h-3l-8 2c0 5.724 7 8.306 7 14Z"/><path fill="#0D9E90" id="ECT5" d="m45 183 10 3c0-6.589-6-13.756-6-21H39c0 6.426 5 11.328 5 18h1Z"/><path fill="#0E9F91" id="ECT6a" d="M61 188h1l-1-5v-1c-2.144 0-3-13.749-3-16-2.42 0-6.298-1-9-1 0 7.244 6 14.411 6 21v1c1.145 0 4-.579 4 1h2Z"/><path fill="#0E9F90" id="ECT6b" d="M399 166c0 2.07-2.133 17-4 17 0-6.145 2-11.578 2-18l2 1Z"/><path fill="#0E9F91" id="ECT6a" d="M395 188h2l4-1 1-1c0-7.222 5-13.293 5-21h-8v1c0 2.07-2.133 17-4 17v5Z"/><path fill="#0D9E90" id="ECT5" d="M412 183c-3.679 0-6.731 3-10 3 0-7.222 5-13.293 5-21h10c0 6.676-5 11.633-5 18Z"/><path fill="#0D9F91" id="ECT2/3" d="M422 181c-4.067 0-5.967 2-10 2 0-6.367 5-11.324 5-18h1c0 1.93 1.161 0 2 0l9 2c0 5.19-7 7.945-7 14Z"/><path fill="#0E9F90" id="ECT6b" d="m59 166 2 16c-2.144 0-3-13.749-3-16h1Z"/><path fill="#0D9F90" id="ECT1" d="M29 181h6c0-5.694-7-8.276-7-14l-5 1c0 5.652 6 7.245 6 13ZM422 181h6c0-6.097 5-6.867 5-13l-4-1c0 5.19-7 7.945-7 14Z"/><path fill="#FF8FFD" id="MRN" d="M216 169h1v-1l-1 1Z"/><path fill="#FF64FF" id="MB" fill-rule="evenodd" d="M229 205c0 5.456 4.529 0 0 0m-4 0c0 6.072 4.238 0 0 0m-18 21c6.896 0 18.249-12.126 28.5-7l14.5 8c0-3.165-7.541-12 1-12 0-3.54-4.999-13.25.5-16 3.732-1.866 29.5 7.653 29.5 12 3.002 0 17-13.017 17-16h-3l-3.5-2c-8.598-4.299 4.367-12 9.5-12l2-1 1-1h1l1-1 1-1h1v-1l-7 1h-4l-2 1h-5l-1 1h-4l4 3.5c0 2.982-4.595 4.5-7 4.5l-15.5 12c-1.75.875-7.441.382-5.5-3.5l4-4.5c-14.305 0-15.487-4.473-21-15.5l-4-6.5h-1c0 3.524-4.451 13.524-9.5 11l-1-2-2 2c-4.545 2.272-9.5-8.124-9.5-11h-1l-3 4.5-1 6c-5.488 10.976-11.17 10.5-22 10.5l5 5.5c1.929 3.859-3.345 4.578-5.5 3.5L174 187c-1.935 0-7.605-1.29-6-4.5l4-3.5h-5l-1-1h-5l-1-1h-5l-8-2 2 2 1 1 2 1c4.394 0 17.732 7.037 15 12.5-.544 1.088-2.355 2.5-4 2.5l-5 1c0 3.073 13.9 15 17 15l6.5-5c5.439-2.72 22.033-9.433 25.5-2.5 2.096 4.191-2 9.362-2 12.5 7.973 0 2 7.691 2 11m12-28 2.5-1c2.31 1.155-2.5 8.444-2.5 3-2.332 0-2.057 4.722-5.5 3-8.034-4.017 5.5-17.926 5.5-5m18-1c-6.739 0 1 5.889 1 4 1.602 0 2.384 3.058 4.5 2 10.058-5.029-5.5-16.149-5.5-6Z"/><path fill="#C7C8CC" id="alv" d="M337 171v3c2.461 0 2-3.378 2-5l-2 2Z"/><path fill="#CAC7CB" id="fiber tracts" d="M128 187v2l-4-8c0-1.634 1.248-4-2-4-1.732 0-3-5.353-3-7l5.5 6c2.377 1.189 2.116-2 3.5-2v13Z"/><path fill="#FF64FF" id="MB" d="m132 170-1 1 1-1Z"/><path fill="#F0483B" id="ZI" d="m163 194-5 1-7-2-15-9-1-1h-1l-2-2c-3.891 0-1-8.479-1-10l1-1c6.093 0 9.661 5 15 5l2 2 1 1 2 1c0 2.67 11 6.696 11 15Z"/><path fill="#FE8084" id="SPFp" d="M167 179h5c6.757 0 6-.547 6-6l-8-3c-3.166 0-17 .058-17 4l2 3h5l1 1h5l1 1ZM285 179h4l1-1h5l2-1h4c0-1.457 3-1.46 3-4-5.166 0-10.796-3-17-3-2.748 0-5.804 3-8 3l-1 1c0 5.398.948 5 7 5Z"/><path fill="#F0483B" id="ZI" d="M295 195h3c3.45 0 4.765-2 8-2 0-1.845 3.381-1.441 4.5-2l12.5-9 1-1c4.71 0 2-7.925 2-10-1.423 0-3.544-1.978-5.5-1l-10.5 5-1 1-1 1h-1l-1 1-1 1h-1l-1 1-2 1-8 9.5c-1.058 2.116 2 2.898 2 4.5Z"/><path fill="#FF64FF" id="MB" d="M151 194c-7.395 0-10 2.507-10 10-3.056 0 .899-11.702 0-13.5-1.105-2.21-9.229-6.636-11.5-5.5l-1.5 2v-13l1-3h2c0 1.521-2.891 10 1 10l2 2h1l1 1 15 9v1Z"/><path fill="#FE8D9E" id="PIL" d="M151 172v1c-1.623 0-6-.005-6-2h2c0 1.579 2.855 1 4 1Z"/><path fill="#FF6F80" id="TH" d="M151 171v1c-1.145 0-4 .579-4-1h4Z"/><path fill="#FE8D9E" id="PIL" d="M309 171h2c0 1.399-2 1.399-2 0Z"/><path fill="#FF64FF" id="MB" d="m306 194 6.5 1 3.5 5-1-9.5c1.442-2.885 13-8.442 13-2.5h1v-13l-1-3-2-1c0 2.075 2.71 10-2 10l-1 1-12.5 9c-1.119.559-4.5.155-4.5 2v1Z"/><path fill="#CAC7CB" id="fiber tracts" d="m333 181-4 7v-13c4.937 0 6.311-4 8-4v3l-2 3c-2.323 0-4.458 4-2 4Z"/><path fill="#FE8D9E" id="PIL" d="M306 172c0 2.112 5.567 0 0 0Z"/><path fill="#FF6F80" id="TH" d="m279 173-1 1 1-1Z"/><path fill="#C7C8CC" id="alv" d="M329 188v2c2.842 0 8-13.379 8-16l-2 3-1 2-1 1v1l-4 7Z"/><path fill="#FF64FF" id="MB" d="M308 176h1l1-1-2 1Z"/><path fill="#E64438" id="HY" d="m309 176-1 1v-1h1Z"/><path fill="#CACCCB" id="opt" d="M122 177c3.248 0 2 2.366 2 4l-2-4Z"/><path fill="#E64438" id="HY" d="m149 177 1 1-1-1Z"/><path fill="#FF6F80" id="TH" d="m160 177 1 1-1-1ZM297 177l-2 1 2-1Z"/><path fill="#E64438" id="HY" d="m307 177-1 1 1-1Z"/><path fill="#CACCCB" id="opt" d="M333 180v1c-2.458 0-.323-4 2-4l-1 2-1 1Z"/><path fill="#FF6F80" id="TH" d="m166 178 1 1-1-1ZM290 178l-1 1 1-1Z"/><path fill="#E64438" id="HY" d="m306 178-1 1 1-1ZM152 179c4.394 0 17.732 7.037 15 12.5-.544 1.088-2.355 2.5-4 2.5 0-8.304-11-12.33-11-15ZM304 179l-1 1 1-1Z"/><path fill="#CAC7CB" id="fiber tracts" d="m334 179-1 1 1-1Z"/><path fill="#E64438" id="HY" d="m303 180-2 1 2-1Z"/><path fill="#0E9584" id="PERI1" d="M31 192h1l3-11h-6c-.956 0-3 8.198-3 11h5Z"/><path fill="#0E9583" id="PERI2/3" d="M32 192h8l7-1c0-2.885-2-4.697-2-8h-1l-9-2-3 11Z"/><path fill="#E64438" id="HY" d="m132 181 2 2-2-2ZM301 181c-5.133 0-18.098 7.701-9.5 12l3.5 2c0-1.602-3.058-2.384-2-4.5l8-9.5ZM324 181l-1 1 1-1Z"/><path fill="#0E9583" id="PERI2/3" d="M417 192h7l-2-11c-4.067 0-5.967 2-10 2l-3 8 8 1Z"/><path fill="#0E9584" id="PERI1" d="M425 192c1.235 0 5-.643 5 1 3.35 0-2-10.486-2-12h-6l2 11h1Z"/><path fill="#CACCC8" id="ml" d="m174 187 15.5 12c2.155 1.078 7.429.359 5.5-3.5l-5-5.5-12-8c-1.211 0-6-.626-6 1.5 0 1.045 2 1.861 2 3.5ZM267 190l-2 1-4 4.5c-1.941 3.882 3.75 4.375 5.5 3.5l15.5-12 2-3.5c-3.608-7.217-13.842 6.5-17 6.5Z"/><path fill="#0F9684" id="PERI5" d="M55 189c-2.522 0-4.909 2-8 2 0-2.885-2-4.697-2-8l10 3v3Z"/><path fill="#0E9F90" id="ECT6b" d="M62 188h1c0-1.041-.986-5-2-5l1 5Z"/><path fill="#E64438" id="HY" d="m135 183 1 1-1-1Z"/><path fill="#0F9684" id="PERI5" d="m401 189 8 2 3-8c-3.679 0-6.731 3-10 3l-1 1v2Z"/><path fill="#0E9F90" id="ECT6b" d="M394 188h1v-4c-1.579 0-1 2.855-1 4Z"/><path fill="#CCCAC7" id="cpd" d="M167 239c2.846 0 5.382 2 9 2 3.497 0 10.313-1.125 12-4.5.428-.855 2.36-6.5 0-6.5-4.215 0-9.73 6.885-15.5 4-10.243-5.121-31.5-16.111-31.5-30-3.056 0 .899-11.702 0-13.5-1.105-2.21-9.229-6.636-11.5-5.5l-1.5 2v3l1 1c0 8.155 12 15.027 12 23v1l6 7v1c.875 0 10 8.144 10 9l1 1 4 3 1 1h1l2 2h1ZM289 239h1l1-1h1l1-1h1l1-1 2-1c0-1.747.253-2 2-2l1-1 1-1 1-1 1-1 1-1 1-1 2-2 1-1 1-1 1-1 1-1v-1l1-1 1-1c0-1.238.423-3 2-3l1-2 1-1v-1l1-1 1-2c0-1.238.423-3 2-3l1-2 1-2c0-1.238.423-3 2-3 0-1.465-.109-4 2-4l1-4v-2c0-5.942-11.558-.385-13 2.5l1 9.5c0 17.248-18.988 27.744-31.5 34-5.749 2.875-12.856-4-16.5-4-3.558 0 1.881 8.191 3.5 9 1.079.54 8.5 2.335 8.5 3 2.767 0 6.533-3 9-3Z"/><path fill="#0E9684" id="PERI6a" d="m402 186-1 1 1-1ZM59 188c0 1.579-2.855 1-4 1v-2c1.145 0 4-.579 4 1ZM397 188c0 1.579 2.855 1 4 1v-2l-4 1Z"/><path fill="#32B824" id="ENTl6a" d="M69 224h1l3-1h1c0-7.966-7.688-12.877-11-19.5-2.064-4.128-2-10.544-2-15.5h-2c0 1.579-2.855 1-4 1 0 12.602 14 25.763 14 35Z"/><path fill="#A0EE9C" id="EPd" d="M76 223h1l3-5-1-5c0-3.482-5-5.71-5-9-1.378 0-11-14.292-11-16h-2c0 4.956-.064 11.372 2 15.5 3.312 6.623 11 11.534 11 19.5h2Z"/><path fill="#CAC7CB" id="fiber tracts" d="M328 190h1v-2h-1v2Z"/><path fill="#A0EE9C" id="EPd" d="M379 223h2l1-1c0-6.173 8.326-12.153 11-17.5 2.304-4.608 2-10.939 2-16.5h-1c-3.028 0-4.912 13-9 13l-1 1-1 1v1l-1 1-4 5-1 4v3c0 2.518 2 4.286 2 6Z"/><path fill="#32B824" id="ENTl6a" d="M386 224h1c0-7.267 14-21.96 14-35-1.145 0-4 .579-4-1h-2c0 5.561.304 11.892-2 16.5-2.674 5.347-11 11.327-11 17.5l1 1 3 1Z"/><path fill="#31B824" id="ENTl5" d="m69 224-9 1-3-4.5c-3.902-7.805-10-20.435-10-29.5 3.091 0 5.478-2 8-2 0 12.602 14 25.763 14 35ZM387 224l9 1c0-3.609 13-22.686 13-34l-8-2c0 13.04-14 27.733-14 35Z"/><path fill="#FF64FF" id="MB" d="m128 190 1 1-1-1ZM267 190l-2 1 2-1Z"/><path fill="#C7C8CC" id="alv" d="M329 190c0 1.465.109 4-2 4l1-4h1Z"/><path fill="#32B725" id="ENTl3" d="m60 225-10 2c0-10.624-10-23.605-10-35l7-1c0 9.065 6.098 21.695 10 29.5l3 4.5Z"/><path fill="#A8AAAA" id="VL" d="m68 191 1 1-1-1Z"/><path fill="#32B725" id="ENTl3" d="M396 225c4.135 0 7.305 2 11 2 0-1.098 7.443-30.387 8-31.5l2-3.5-8-1c0 11.314-13 30.391-13 34Z"/><path fill="#32B722" id="ENTl1" d="m43 229-3 1c0-7.541-14-26.137-14-38h5c0 12.798 12 24.32 12 37Z"/><path fill="#32B825" id="ENTl2" d="m50 227-7 2c0-12.68-12-24.202-12-37h9c0 11.395 10 24.376 10 35Z"/><path fill="#C7CAC9" id="fr" d="M219 198v2c-2.332 0-2.057 4.722-5.5 3-8.034-4.017 5.5-17.926 5.5-5ZM237 197l1 4c1.602 0 2.384 3.058 4.5 2 10.058-5.029-5.5-16.149-5.5-6Z"/><path fill="#A8AAAA" id="VL" d="m388 192-1 2 1-2Z"/><path fill="#32B825" id="ENTl2" d="m407 227 6 2c0-10.406 12-24.869 12-37h-8l-2 3.5c-.557 1.113-8 30.402-8 31.5Z"/><path fill="#32B722" id="ENTl1" d="m413 229 4 1c0-10.12 13-24.274 13-37 0-1.643-3.765-1-5-1 0 12.131-12 26.594-12 37Z"/><path fill="#A8AAAA" id="VL" d="M79 213c1.539 0 2.187 4 5 4l-12-18.5-3-5.5c0 4.287 5 7.258 5 11 0 3.29 5 5.518 5 9Z"/><path fill="#FFA6FD" id="SNc" d="M190 225h1c0-8.843-16-13.703-16-15-3.1 0-17-11.927-17-15l-7-2v1l6 6.5c5.484 10.968 20.179 24.5 33 24.5ZM281 211c-5.149 0-13.954 7.408-16 11.5l1 2.5c7.713 0 27.283-12.067 31-19.5 1.416-2.832 4.864-11.5 9-11.5v-1c-3.235 0-4.55 2-8 2 0 2.983-13.998 16-17 16Z"/><path fill="#FF8DFD" id="SNr" d="M190 225c0 2.567-2 3.913-2 5-4.215 0-9.73 6.885-15.5 4-10.243-5.121-31.5-16.111-31.5-30 0-7.493 2.605-10 10-10l6 6.5c5.484 10.968 20.179 24.5 33 24.5ZM266 225c0 2.25 2 3.376 2 5 3.644 0 10.751 6.875 16.5 4 12.512-6.256 31.5-16.752 31.5-34l-3.5-5-6.5-1c-4.136 0-7.584 8.668-9 11.5-3.717 7.433-23.287 19.5-31 19.5Z"/><path fill="#C7C8CC" id="alv" d="M327 194c-2.109 0-2 2.535-2 4l2-4Z"/><path fill="#A8AAAA" id="VL" d="m387 194-2 4c2.109 0 2-2.535 2-4Z"/><path fill="#C8C8C8" id="mtg" d="m219 198 2.5-1c2.31 1.155-2.5 8.444-2.5 3v-2ZM237 197c-6.739 0 1 5.889 1 4l-1-4Z"/><path fill="#C7C8CC" id="alv" d="M325 198c-1.577 0-2 1.762-2 3 1.577 0 2-1.762 2-3Z"/><path fill="#A8AAAA" id="VL" d="m379 206-1 4 4-5 1-1v-1l1-1 1-1v-3l-6 8Z"/><path fill="#FE8DFF" id="VTA" d="M203 218c-2.994 0-5.482 7-12 7 0-8.843-16-13.703-16-15l6.5-5c5.439-2.72 22.033-9.433 25.5-2.5 2.096 4.191-2 9.362-2 12.5-1.577 0-2 1.762-2 3ZM253 217c2.225 0 4.571 8 13 8l-1-2.5c2.046-4.092 10.851-11.5 16-11.5 0-4.347-25.768-13.866-29.5-12-5.499 2.75-.5 12.46-.5 16h1l1 1v1Z"/><path fill="#C7C8CC" id="alv" d="m323 201-1 2 1-2Z"/><path fill="#C8CBCC" id="ec" d="m385 201-1 1 1-1ZM384 202l-1 1 1-1Z"/><path fill="#C7C8CC" id="alv" d="m322 203-1 2 1-2Z"/><path fill="#C8CBCC" id="ec" d="m383 204-1 1 1-1Z"/><path fill="#FFA6FF" id="IF" d="M225 205c0 6.072 4.238 0 0 0ZM229 205c0 5.456 4.529 0 0 0Z"/><path fill="#C7C8CC" id="alv" d="M321 205c-1.577 0-2 1.762-2 3 1.577 0 2-1.762 2-3ZM372 217c-3.619 0-6.774 6-11 6 0-2.498 7.828-5.328 9.5-7l8.5-10-1 4-6 7ZM319 208l-1 2 1-2ZM318 210l-1 1 1-1Z"/><path fill="#A8AAAA" id="VL" d="M377 214c-1.947 0-2.636 3-5 3l6-7-1 4Z"/><path fill="#C7C8CC" id="alv" d="m317 212-1 1 1-1ZM316 213l-1 2 1-2ZM141 215l6 7c-1.59 0-6-5.662-6-7Z"/><path fill="#CBCCCB" id="mfb" d="m207 226-1 1c-3.913 0-3-6.556-3-9 0-1.238.423-3 2-3 7.973 0 2 7.691 2 11ZM250 227h1l3-5.5-1-4.5v-1l-1-1h-1c-8.541 0-1 8.835-1 12Z"/><path fill="#FF64FF" id="MB" d="m252 215 1 1-1-1Z"/><path fill="#C7C8CC" id="alv" d="M315 215c-1.577 0-2 1.762-2 3 1.577 0 2-1.762 2-3Z"/><path fill="#FF64FF" id="MB" d="m280 242-9.5 1-2.5 3c0-2.121-1.693-5-4-5l-3-3-1-1-1-1-1-2c0-1.674-2-5.984-2-3-1.247 0-5-2.467-5-4l3-5.5-1-4.5c2.225 0 4.571 8 13 8 0 2.25 2 3.376 2 5-3.558 0 1.881 8.191 3.5 9 1.079.54 8.5 2.335 8.5 3Z"/><path fill="#8AD987" id="CTXsp" d="M366 225h7c0-3.692 4.197-2 6-2 0-1.714-2-3.482-2-6-1.54 0-11 6.054-11 8ZM83 225h8c0-1.656-9.233-7-11-7l-3 5c2.02 0 6-1.525 6 2Z"/><path fill="#FF64FF" id="MB" d="M192 241c-2.854 0-2.448 5-4 5 0-5.448-12-1.545-12-5 3.497 0 10.313-1.125 12-4.5.428-.855 2.36-6.5 0-6.5 0-1.087 2-2.433 2-5h1c6.518 0 9.006-7 12-7 0 2.444-.913 9 3 9l-5 4c0-2.968-3 .57-3 3v1l-1 1-1 1-1 1-1 1-2 2Z"/><path fill="#C7C8CC" id="alv" d="m313 218-1 1 1-1Z"/><path fill="#FF493D" id="SUM" d="M263 241c-2.567 0-3.913 2-5 2-3.431 0-9.794-11-15-11 0-1.043-5.353-2-6.5-2h-18c-.822 0-5.5 1.213-5.5 2-4.273 0-13.035 12-15 12 0-2.715-1.657-3-4-3v-2l1-1 1-1 1-1 1-1 1-1 2-3 5-4 1-1c6.896 0 18.249-12.126 28.5-7l14.5 8h1c0 1.533 3.753 4 5 4l2 3 1 2 1 1 1 1 2 3Z"/><path fill="#C7C8CC" id="alv" d="m312 219-1 1 1-1ZM311 221l-1 1 1-1Z"/><path fill="#A0ED9D" id="EPv" d="m79 244-4 1-1-2c0-5.356-1-11.266-1-16l3-4h1c2.02 0 6-1.525 6 2l-3 18-1 1Z"/><path fill="#C7C8CC" id="alv" d="m310 222-1 1 1-1Z"/><path fill="#A0ED9D" id="EPv" d="m377 244 4 1 2-3v-16c-1.577 0-2-1.762-2-3h-2c-1.803 0-6-1.692-6 2 0 5.516 3 10.99 3 17l1 2Z"/><path fill="#8AD987" id="CTXsp" d="m384 225-1 1c-1.577 0-2-1.762-2-3l1-1 1 1 1 2Z"/><path fill="#99D2BD" id="OLF" d="m70 224 3 2v-3l-3 1Z"/><path fill="#8AD987" id="CTXsp" d="M73 226v1l3-4h-3v3Z"/><path fill="#C7C8CC" id="alv" d="M147 223c.875 0 10 8.144 10 9-2.022 0-10-6.758-10-9ZM309 223l-1 1 1-1ZM361 223c-1.238 0-3 .423-3 2 1.238 0 3-.423 3-2Z"/><path fill="#99D2BD" id="OLF" d="m386 224-2 1-1-2 3 1Z"/><path fill="#6ACAB9" id="PIR" d="M74 246c0 4.771-10 24.7-10 26l-8-8.5c-4.533-4.533-16-27.182-16-33.5l3-1 7-2 10-2 9-1h1l3 2v1c0 4.734 1 10.644 1 16v3Z"/><path fill="#9DE69C" id="BLAp" d="m93 248-4 1-8-4-1-2 3-18h8l11 5 1 3-9 14-1 1Z"/><path fill="#C7C8CC" id="alv" d="m308 224-1 1 1-1Z"/><path fill="#9DE69C" id="BLAp" d="m363 248 4 1c3.44 0 5.253-4 8-4l1-1v-2c0-6.01-3-11.484-3-17h-9l-1 1-7 3-1 1-1 1-1 1 10 16Z"/><path fill="#6ACAB9" id="PIR" d="M383 247c0 6.744 9 20.191 9 25l8-8.5c4.431-4.431 17-27.66 17-33.5l-4-1-6-2c-3.695 0-6.865-2-11-2l-9-1h-1l-2 1-1 2v20Z"/><path fill="#C7C8CC" id="alv" d="m307 225-2 2c1.747 0 2-.253 2-2ZM358 225c-1.856 0-7 1.782-7 4 1.572 0 7-2.052 7-4Z"/><path fill="#8AD987" id="CTXsp" d="m364 225-1 1 1-1Z"/><path fill="#99D2BD" id="OLF" d="M383 226v1l1-2-1 1Z"/><path fill="#C7C8CC" id="alv" d="m305 227-1 1 1-1ZM304 228l-1 1 1-1ZM303 229l-1 1 1-1ZM351 229l-4 2c1.465 0 4 .109 4-2Z"/><path fill="#8AD987" id="CTXsp" d="m356 229-1 1 1-1ZM103 233h4l-5-3 1 3Z"/><path fill="#CCCAC8" id="mp" d="M198 234h1l2-3c0-2.968-3 .57-3 3Z"/><path fill="#FD4A3D" id="Mmd" d="M223 240h11l5-2c0-1.652 2-3.092 2-1 2.461 0 2-3.378 2-5 0-1.043-5.353-2-6.5-2h-18c-.822 0-5.5 1.213-5.5 2 0 1.424.362 5 2 5 .922 0 3-1.681 3 1l5 2Z"/><path fill="#CCCAC8" id="mp" d="m256 231 2 3c0-1.674-2-5.984-2-3Z"/><path fill="#C7C8CC" id="alv" d="m302 230-1 1 1-1Z"/><path fill="#8AD987" id="CTXsp" d="m355 230-1 1 1-1Z"/><path fill="#C7C8CC" id="alv" d="m301 231-1 1 1-1ZM347 231l-4 2c1.465 0 4 .109 4-2Z"/><path fill="#8AD987" id="CTXsp" d="m353 232-3 1c0-2.109 2.535-2 4-2l-1 1Z"/><path fill="#84E981" id="BMAp" d="m94 252 1 1c3.855 0 6.459-3 10-3 0-2.836 6-7.974 6-14v-1h-1l-2-2h-5l-9 14-1 1 1 4Z"/><path fill="#FC4B3E" id="Mml" d="M197 253c0 2.893 9.697 4 12 4 0-6.291 7-12.245 7-18l-1-2c-1.638 0-2-3.576-2-5-4.273 0-13.035 12-15 12 0 2.389-1 5.987-1 9ZM259 254c-3.854 0-7.403 3-12 3 0-6.33-6-11.377-6-17v-3c2.461 0 2-3.378 2-5 5.206 0 11.569 11 15 11l2 10-1 1Z"/><path fill="#C7C8CC" id="alv" d="m300 232-1 1 1-1Z"/><path fill="#84E981" id="BMAp" d="m363 251-2 2c-3.455 0-5.917-3-9-3 0-1.129-7-8.501-7-14v-1h1l1-1h1l1-1h1l3-1 10 16v3Z"/><path fill="#8AD987" id="CTXsp" d="m108 233 2 2-2-2Z"/><path fill="#C7C8CC" id="alv" d="M161 237h1v-1l-4-3 3 4ZM299 233c-1.747 0-2 .253-2 2l2-2ZM343 233c-1.465 0-4-.109-4 2l4-2Z"/><path fill="#8AD987" id="CTXsp" d="m349 233-1 1 1-1Z"/><path fill="#E64438" id="HY" d="m199 234-1 1v-1h1Z"/><path fill="#8AD987" id="CTXsp" d="m347 234-1 1 1-1ZM111 236h3c0-1.473-1.952-1-3-1v1Z"/><path fill="#E64438" id="HY" d="m198 235-1 1 1-1Z"/><path fill="#C7C8CC" id="alv" d="M295 237h1l1-2-2 1v1ZM334 237h3l1-1h1v-1c-1.424 0-5 .362-5 2Z"/><path fill="#8AD987" id="CTXsp" d="M343 236h2v-1l-2 1Z"/><path fill="#97EC93" id="PA" d="m144 253-7 7c0-6.565-20.23-8-24-8l-8-2c0-2.836 6-7.974 6-14h3l6 1h2l1 1h1l1 1h2c0 1.577 1.762 2 3 2l4 2 10 10Z"/><path fill="#E64438" id="HY" d="m197 236-1 1 1-1Z"/><path fill="#C8CBCA" id="pm" d="m218 238-2 1-1-2c.922 0 3-1.681 3 1ZM239 238l2 2v-3c0-2.092-2-.652-2 1Z"/><path fill="#E64438" id="HY" d="m259 236 1 1-1-1Z"/><path fill="#97EC93" id="PA" d="m313 253 6 6c2.438 0 7.619-4.559 10.5-6 4.646-2.323 9.905-1 14.5-1l8-2c0-1.129-7-8.501-7-14h-7l-1 1h-3l-1 1-2 1h-1l-2 1-2 1-1 1-3 1-9 10Z"/><path fill="#7ECE4A" id="DG-po" d="m161 238-2 1 2-2v1Z"/><path fill="#7DCD4B" id="HPF" d="m162 237-1 1v-1h1Z"/><path fill="#65A83D" id="DG-sg" d="M155 239c0 1.535 4 1.535 4 0l2-1 1-1h1v1c0 6.075-11 5.597-11 1h3Z"/><path fill="#7DCD4B" id="HPF" d="M163 238h1v-1h-1v1Z"/><path fill="#E64438" id="HY" d="m196 237-1 1 1-1Z"/><path fill="#65A83D" id="DG-sg" d="M301 239h3c0 4.853-11 5.026-11-1v-1h2c0 2.656 6 4.273 6 2Z"/><path fill="#7ECE4A" id="DG-po" d="M296 237c0 1.638 3.576 2 5 2 0 2.273-6 .656-6-2h1Z"/><path fill="#7DCF4B" id="CA2" d="M316 239h2l1-2c-1.238 0-3 .423-3 2Z"/><path fill="#C7C8CC" id="alv" d="M331 238h2v-1l-2 1Z"/><path fill="#7BD04A" id="DG-mo" d="m151 247 2 1c5.899 0 12.589 2.322 16-4.5 1.058-2.116-2-2.898-2-4.5h-1l-2-1h-1c0 6.075-11 5.597-11 1-3.335 0-1 6.346-1 8Z"/><path fill="#E64438" id="HY" d="m195 238-1 1 1-1Z"/><path fill="#FE4A3C" id="Mmm" d="m209 257 12 1c0-6.145 2-11.578 2-18l-5-2-2 1c0 5.755-7 11.709-7 18ZM247 257l-12 1-1-18 5-2 2 2c0 5.623 6 10.67 6 17Z"/><path fill="#E64438" id="HY" d="M263 241h1l-3-3 2 3Z"/><path fill="#7BD04A" id="DG-mo" d="m305 247-2 1c-4.202 0-16 1.992-16-5.5 0-1.045 2-1.861 2-3.5h1l1-1h2c0 6.026 11 5.853 11 1 4.155 0 1 6.707 1 8Z"/><path fill="#C7C8CC" id="alv" d="M330 239h1v-1c-1.048 0-3-.473-3 1h2ZM129 239l1 1-1-1Z"/><path fill="#7DCD4B" id="HPF" d="m130 241 4 2 8-3-2-1h-2l-3.5 2-4.5-1v1Z"/><path fill="#7ECE4A" id="DG-po" d="M155 239h4c0 1.535-4 1.535-4 0Z"/><path fill="#E64438" id="HY" d="M192 241h2v-2l-2 2Z"/><path fill="#FD4B3E" id="Mmme" d="M221 258c1.67 0 14 2.593 14 0l-1-18h-11c0 6.422-2 11.855-2 18Z"/><path fill="#7DCD4B" id="HPF" d="m325 242-3 1c-2.087 0-4.393-3-7-3l1-1h2c2.16 0 4.167 2 7 2v1Z"/><path fill="#C7C8CC" id="alv" d="M326 240h2v-1l-2 1Z"/><path fill="#33B931" id="HATA" d="m149 250-5 3-10-10 8-3c2.486 0 7 5.359 7 8v2ZM307 250l6 3 9-10c-2.087 0-4.393-3-7-3-2.598 0-8 5.45-8 8v2Z"/><path fill="#C7C8CC" id="alv" d="M325 241h1v-1l-1 1Z"/><path fill="#FF4B3D" id="LM" d="M188 246c0 4.83 4.746 7 9 7 0-3.013 1-6.611 1-9 0-2.715-1.657-3-4-3h-2c-2.854 0-2.448 5-4 5ZM268 246c0 4.599-3.517 7-8 7l-2-10c1.087 0 2.433-2 5-2h1c2.307 0 4 2.879 4 5Z"/><path fill="#8AD987" id="CTXsp" d="M376 244h1l-1-2v2Z"/><path fill="#99D2BD" id="OLF" d="m381 245 2 2v-5l-2 3ZM75 245l-1 1v-3l1 2Z"/><path fill="#8AD987" id="CTXsp" d="m79 244 2 1-1-2-1 1Z"/><path fill="#A8ECD2" id="TR" d="M64 272c0 5.963 20.003 10 25 10 1.777 0 1-9.717 1-11.5 0-5.767 3-10.752 3-15.5l-2-4-2-2-8-4-2-1-4 1-1 1c0 4.771-10 24.7-10 26Z"/><path fill="#8AD987" id="CTXsp" d="m376 244-1 1 1-1Z"/><path fill="#A8ECD2" id="TR" d="M392 272c0 6.863-19.836 10-25 10-2.015 0 0-8.666 0-10.5 0-5.582-3-10.597-3-15.5l1-5 1-1 1-1c3.44 0 5.253-4 8-4l1-1h1l4 1 2 2c0 6.744 9 20.191 9 25Z"/><path fill="#8AD987" id="CTXsp" d="m94 247-1 1 1-1Z"/><path fill="#7DCD4B" id="HPF" d="m153 248-4 2v-2l2-1 2 1ZM307 248v2l-4-2 2-1 2 1Z"/><path fill="#8AD987" id="CTXsp" d="m91 251 3 1-1-4-4 1 2 2ZM363 251h2l1-1 1-1-4-1v3Z"/><path fill="#5FE6B7" id="COApl" d="M89 282c0 1.826 15.032 4.734 18.5 3 1.046-.523 3.5.951 3.5-1-2.665 0-2.255-5.01-3-6.5-5.791-11.582 5-23.115 5-25.5l-8-2c-3.541 0-6.145 3-10 3l-2 2c0 4.748-3 9.733-3 15.5 0 1.783.777 11.5-1 11.5ZM367 282c0 2.67-15.139 4.681-18.5 3-1.046-.523-3.5.951-3.5-1 2.614 0 2.294-4.089 3-5.5 6.773-13.546-4-20.613-4-26.5l8-2c3.083 0 5.545 3 9 3l3 3c0 4.903 3 9.918 3 15.5 0 1.834-2.015 10.5 0 10.5Z"/><path fill="#99D2BD" id="OLF" d="m366 250-1 1 1-1ZM95 253l-2 2-2-4 3 1 1 1Z"/><path fill="#60E6B5" id="COApm" d="M137 260c0 6.244-20.024 24-26 24-2.665 0-2.255-5.01-3-6.5-5.791-11.582 5-23.115 5-25.5 3.77 0 24 1.435 24 8ZM319 259c0 6.493 19.78 25 26 25 2.614 0 2.294-4.089 3-5.5 6.773-13.546-4-20.613-4-26.5-4.595 0-9.854-1.323-14.5 1-2.881 1.441-8.062 6-10.5 6Z"/><path fill="#99D2BD" id="OLF" d="m361 253 3 3 1-5h-2l-2 2Z"/><path fill="#E64438" id="HY" d="m260 253-1 1 1-1Z"/></svg>