<svg xmlns="http://www.w3.org/2000/svg" viewBox="0 0 456 320"><path fill="#098589" id="VISp1" d="m85 69 3 4 13.5-12 24-16 16-6c4.082-2.04 20.5-2.321 20.5 4h1l6-6c0-4.942-17.891-6.805-21.5-5-8.071 4.035-17.858 4.93-26 9-7.376 3.688-14.32 10.66-21 14C98.324 56.088 85 66.562 85 69ZM368 73h1l2-4c0-3.365-9.573-11.036-13.5-13-6.894-3.447-12.177-9.589-19-13-8.042-4.021-17.019-6.01-25-10-4.035-2.018-25.5-2.694-25.5 4l6 6c0-10.023 28.515-1.992 32.5 0 10.863 5.431 20.007 14.504 31 20L368 73Z"/><path fill="#1BA696" id="RSPagl1" d="m175 48-12 5V43l6-6 2.5 2c5.407 2.704 4.5 2.871 4.5 8l-1 1ZM281 48l12 5c0-1.574-.751-9 1-9v-1l-6-6c-7.662 0-7 6.426-7 11Z"/><path fill="#0A828C" id="VISp2/3" d="M93 79h2c0-3.234 5.817-6.317 8.5-9 8.897-8.897 21.367-14.683 32-20 1.868-.934 15.5-2.696 15.5 1 1.007 0 11-6.316 11-8 0-6.321-16.418-6.04-20.5-4l-16 6-24 16L88 73v1l1 2c1.429 0 4 1.288 4 3ZM362 79h1l4-3 1-3-10.5-10c-10.993-5.496-20.137-14.569-31-20-3.985-1.992-32.5-10.023-32.5 0v1c3.781 0 7.674 7 11 7 0-3.706 14.564-1.968 16.5-1 8.294 4.147 29.779 15.057 33.5 22.5l7 6.5Z"/><path fill="#1AA496" id="RSPagl2/3" d="M145 56c2.867 0 2 5.149 2 7 5.152 0 9.312-8 15-8l1-2V43h-1c0 1.684-9.993 8-11 8-2.789 0-3.42 4-6 4v1Z"/><path fill="#FF7AFD" id="SCzo" d="M278 66h1l1-2c0-8.754-29.682-24.41-38.5-20-3.443 1.722-9.386 3.272-11.5 7.5l-1.5 8.5c-1.484 0-1.013-6.525-1.5-7.5-2.61-5.22-8.427-6.464-12.5-8.5-7.927-3.963-37.5 10.531-37.5 19v3l2-1c0-4.054 7.098-10.299 10.5-12 12.579-6.29 36.5-14.91 36.5 9h1c.839 0 2-1.93 2 0h1c0-30.706 48-10.208 48 4Z"/><path fill="#1AA496" id="RSPagl2/3" d="M311 56c-2.867 0-2 5.149-2 7-5.407 0-10.639-9-15-9l-1-1c0-1.574-.751-9 1-9 3.781 0 7.674 7 11 7l6 4v1Z"/><path fill="#FF78FF" id="SCsg" d="M226 62c-5.361 0-10.052-9.724-17.5-6-5.959 2.98-22.892 9-29.5 9 0-4.054 7.098-10.299 10.5-12 12.579-6.29 36.5-14.91 36.5 9ZM230 62c5.638 0 10.714-9.893 18.5-6L278 66c0-14.208-48-34.706-48-4Z"/><path fill="#1BA598" id="RSPd1" d="m176 47-1 1 1-1ZM138 87l3 2c3.183 0 4.864-8.364 6.5-10 6.349-6.349 15.932-14.364 19.5-21.5 1.823-3.646 8-5.938 8-9.5l-12 5-1 2c0 5.607-24 25.156-24 32ZM319 87l-4 2-6.5-10L289 57.5l-8-9.5 12 5 1 1c0 6.381 25 26.945 25 33Z"/><path fill="#0B848B" id="VISp4" d="M99 80h1c0-2.633 10.364-7.932 12.5-9 11.283-5.642 17.605-16 32.5-16 2.58 0 3.211-4 6-4 0-3.696-13.632-1.934-15.5-1-10.633 5.317-23.103 11.103-32 20-2.683 2.683-8.5 5.766-8.5 9l4 1ZM362 79l-5 1-14.5-11c-11.581-5.79-17.228-14-31.5-14l-6-4c0-3.706 14.564-1.968 16.5-1 8.294 4.147 29.779 15.057 33.5 22.5l7 6.5Z"/><path fill="#1BA697" id="RSPd2/3" d="M319 87h4c0-8.715-14-15.07-14-24-5.407 0-10.639-9-15-9 0 6.381 25 26.945 25 33Z"/><path fill="#088389" id="VISp5" d="M100 80c0 1.168 4.366.567 5.5 0 1.16-.58 9.083 0 12.5 0l6.5-6c6.331-3.165 14.608-18 20.5-18v-1c-14.895 0-21.217 10.358-32.5 16-2.136 1.068-12.5 6.367-12.5 9Z"/><path fill="#1BA697" id="RSPd2/3" d="M133 87h5c0-6.844 24-26.393 24-32-5.688 0-9.848 8-15 8 0 8.11-14 17.418-14 24Z"/><path fill="#088389" id="VISp5" d="M357 80v1c-2.245 0-3.905-2-5.5-2-2.875 0-8.947 1-12.5 1l-4-3.5c-1.327-2.654-21.24-20.5-24-20.5v-1c14.272 0 19.919 8.21 31.5 14L357 80Z"/><path fill="#1CA697" id="RSPagl5" d="m130 79-12 1 6.5-6c6.331-3.165 14.608-18 20.5-18 2.867 0 2 5.149 2 7-4.367 0-11.545 16-17 16Z"/><path fill="#FD7AFF" id="SCop" d="M177 66c0 1.048-.473 3 1 3 2.268 0 24.396-8.448 27.5-10 8.276-4.138 15.389 6 21.5 6v-3h-1c-5.361 0-10.052-9.724-17.5-6-5.959 2.98-22.892 9-29.5 9l-2 1ZM279 66c0 1.048.473 3-1 3-1.531 0-24.908-8.704-27.5-10-8.054-4.027-14.747 6-21.5 6v-3h1c5.638 0 10.714-9.893 18.5-6L278 66h1Z"/><path fill="#1CA697" id="RSPagl5" d="m326 79 13 1-4-3.5c-1.327-2.654-21.24-20.5-24-20.5-2.867 0-2 5.149-2 7 1.771 0 10.923 10.423 13 12.5l4 3.5Z"/><path fill="#FF90FF" id="SCig" d="M178 69v5c7.311 0 19.109-3.804 25.5-7 5.773-2.887 17.794 1 23.5 1v-3c-6.111 0-13.224-10.138-21.5-6-3.104 1.552-25.232 10-27.5 10ZM278 69v5c-7.191 0-19.198-3.849-25.5-7-2.999-1.5-20.411 0-23.5 0v-2c6.753 0 13.446-10.027 21.5-6 2.592 1.296 25.969 10 27.5 10Z"/><path fill="#1AA596" id="RSPd5" d="M133 87c-4.638 0-7.92 5-12 5-3.428 0 9-10.135 9-13 5.455 0 12.633-16 17-16 0 8.11-14 17.418-14 24Z"/><path fill="#FF64FF" id="MB" d="m169 133-.5-2-14 2-5-1c-3.195 1.597-1.282 6.063-2.5 8.5l-7.5.5-2.5 4v-18c7.279 0 1.517-22 6-22 0 8.08-1.714 14.072 2 21.5 2.425 4.85 15 5.724 15-.5l3.5 3c3.621 1.811 9.5-6.046 9.5-9l1-1c3.276 0 3-8.932 3-11.5 0-11.657-6-21.34-6-32.5 0-5.59-3.467-2-7-2l13-10v3c0 1.048-.473 3 1 3v5l3 16c0 6.381.096 16 8 16l2 4c0 5.646-4 9.443-4 15-1.947 0-3.644-3.428-6.5-2-4.024 2.012-6.768 10-11.5 10Z"/><path fill="#1AA596" id="RSPd5" d="M323 87c4.999 0 8.955 6 13 6 0-5.061-10-11.03-10-14l-4-3.5c-2.077-2.077-11.229-12.5-13-12.5 0 8.93 14 15.285 14 24Z"/><path fill="#FF64FF" id="MB" d="M292 138c0-2.319-5.458-3.583-4-6.5.819-1.637 9.21.855 10.5 1.5l8-1c3.941 1.971 1.129 4.758 2.5 7.5 1.575 3.151 5.178.339 7.5 1.5l2.5 3v-17c-2.945 0-3-5.408-3-7.5 0-4.673-2.92-24.5-7-24.5l2 4.5c4.415 8.83 4.331 18.339 0 27-.946 1.892-4.105 4.5-6.5 4.5-3.048 0-7.072-5-8.5-5 0 7.538-13-.534-13-7-2.911 0-4-6.752-4-9 0-8.185 1.522-19.544 5-26.5.613-1.227.656-8.5 2-8.5 0-6.743 11.171.842 13 4.5.45.9 9.408 14.5 10 14.5l-8-14c-3.442 0-15.277-16-21-16l-1 2c0 1.048.473 3-1 3v5c0 5.261-3 11.08-3 16 0 6.319.825 16-7 16l-3 4c0 5.995 4 10.237 4 17 2.078 0 2.607-6.446 7.5-4 2.168 1.084 12.295 15 15.5 15Z"/><path fill="#FF90FE" id="SCiw" d="m181 90 30.5-15c3.894-1.947 8.438 2 11.5 2 4.402 0 19.568-2.966 21.5-2L275 90c0-4.92 3-10.739 3-16-7.191 0-19.198-3.849-25.5-7-2.999-1.5-20.411 0-23.5 0 0 1.652-2 3.092-2 1-5.706 0-17.727-3.887-23.5-1-6.391 3.196-18.189 7-25.5 7l3 16Z"/><path fill="#FF64FF" id="MB" d="M229 67c0 1.652-2 3.092-2 1v-1h2Z"/><path fill="#09848A" id="VISl1" d="M83 77h2l1-1 2-2v-1l-3-4-7 7c1.234 0 5-.643 5 1ZM379 76c-1.134 0-6 .3-6 1l-2-1c0-1.481-2-.785-2-3l2-4c1.408 0 8 5.73 8 7Z"/><path fill="#FE79FE" id="ICe" d="M164 108c0 5.658-4 11.865-4 18 0 6.224-12.575 5.35-15 .5-3.714-7.428-2-13.42-2-21.5 1.638 0 2-3.576 2-5 1.473 0 1-1.952 1-3l1-2 1-1v-1l1-1v-1l1-1 1-1v-1l1-1c1.803 0 3-3.592 3-5 1.811 0 4-3.438 4-5 1.747 0 2-.253 2-2 1.238 0 3-.423 3-2 3.533 0 7-3.59 7 2-1.59 0-1.443 4.386-2 5.5-4.056 8.113-5 17.784-5 27.5ZM292 107c0 6.023 4 12.204 4 19 1.428 0 5.452 5 8.5 5 2.395 0 5.554-2.608 6.5-4.5 4.331-8.661 4.415-18.17 0-27l-2-4.5v-1c-.592 0-9.55-13.6-10-14.5-1.829-3.658-13-11.243-13-4.5 0 3.759 3.352 9.204 5 12.5l1 19.5Z"/><path fill="#FF64FF" id="MB" d="M164 73c-1.238 0-3 .423-3 2 1.238 0 3-.423 3-2Z"/><path fill="#0A8489" id="VISl2/3" d="M367 76c1.465 0 4 1.115 4 0 0-1.481-2-.785-2-3h-1l-1 3ZM86 76h3l-1-2-2 2Z"/><path fill="#FF64FF" id="MB" d="m161 75-2 2c1.747 0 2-.253 2-2Z"/><path fill="#FE79FF" id="ICd" d="m164 108 2.5-1c1.719.86 7.5 10.092 7.5 12 3.276 0 3-8.932 3-11.5 0-11.657-6-21.34-6-32.5-1.59 0-1.443 4.386-2 5.5-4.056 8.113-5 17.784-5 27.5Z"/><path fill="#FF8FFF" id="SCdg" d="M189 106c0-4.971 8.223-12.862 12.5-15 2.987-1.493 5.753-4.877 8-6 10.778-5.39 44.535-.43 49.5 9.5 1.664 3.329 9 6.587 9 11.5 7.825 0 7-9.681 7-16l-30.5-15c-1.932-.966-17.098 2-21.5 2-3.062 0-7.606-3.947-11.5-2L181 90c0 6.381.096 16 8 16Z"/><path fill="#FE79FF" id="ICd" d="M292 107c-3.495 0-9 8.192-9 12-2.911 0-4-6.752-4-9 0-8.185 1.522-19.544 5-26.5.613-1.227.656-8.5 2-8.5 0 3.759 3.352 9.204 5 12.5l1 19.5Z"/><path fill="#0A838A" id="VISpl1" d="m70 84 3 4c2.326 0 10-8.894 10-11 0-1.643-3.766-1-5-1l-8 8Z"/><path fill="#0A8489" id="VISl2/3" d="m86 76-1 1 1-1Z"/><path fill="#09848C" id="VISpl2/3" d="m73 89 4 6 16-16c0-1.712-2.571-3-4-3h-3l-1 1h-2c0 2.106-7.674 11-10 11v1ZM383 89c0 2.02-2.189 6-4 6l-16-16 4-3c1.465 0 4 1.115 4 0l2 1 10 12Z"/><path fill="#0A838A" id="VISpl1" d="M383 89h1l2-5-7-8c-1.134 0-6 .3-6 1l10 12Z"/><path fill="#FF64FF" id="MB" d="M155 80v2c1.811 0 4-3.438 4-5l-4 3Z"/><path fill="#0B858A" id="VISpl4" d="M77 98h1c0-4.987 21-16.164 21-18l-4-1h-2L77 95v3Z"/><path fill="#0B838C" id="VISpl5" d="M93 99c-4.393 0-9.184 6-13 6l-2-7c0-4.987 21-16.164 21-18h1c0 1.168 4.366.567 5.5 0 1.16-.58 9.083 0 12.5 0l12-1c0 2.865-12.428 13-9 13 0 1.077-3.762 3-5 3l-13 1c-1.357 0-6 .647-6 2l-4 1ZM363 99c4.796 0 9.664 6 14 6 0-1.593.337-7 2-7v-1c-4.279 0-14.663-16-22-16-2.245 0-3.905-2-5.5-2-2.875 0-8.947 1-12.5 1l-13-1c0 2.97 10 8.939 10 14l4 2 14 1c.986 0 6 1.087 6 2l3 1Z"/><path fill="#0B858A" id="VISpl4" d="M379 95c0 .839 1.93 2 0 2-4.279 0-14.663-16-22-16v-1l5-1h1l16 16Z"/><path fill="#C9C8C8" id="bic" d="M143 105c-4.483 0 1.279 22-6 22 0-16.955 3.1-22.699 10-36.5 1.03-2.06 4.945-10.5 8-10.5v2c-1.803 0-3 3.592-3 5l-1 1v1l-1 1-1 1v1l-1 1v1l-1 1-1 2c-1.473 0-1 1.952-1 3-2.461 0-2 3.378-2 5ZM309 95c4.08 0 7 19.827 7 24.5 0 2.092.055 7.5 3 7.5 0-20.8-1-18.5-10-36.5-1.436-2.871-3.96-10.5-8-10.5l8 14v1Z"/><path fill="#FF64FF" id="MB" d="M155 82c-1.803 0-3 3.592-3 5 1.803 0 3-3.592 3-5Z"/><path fill="#09818C" id="VISpor1" d="m54 121-5 3c0-7.906 2.692-15.884 6-22.5l6-7L70 84l3 4v1l-6 6.5c-6.243 6.243-13 16.682-13 25.5Z"/><path fill="#FF8FFE" id="SCdw" d="M191 110c1.845 0 1.441-3.381 2-4.5 1.753-3.506 6.576-10.538 10.5-12.5l10-6h9.5c13.104 0 22.739-.76 33 9.5 3.337 3.337 9 8.921 9 13.5l3-4c0-4.913-7.336-8.171-9-11.5-4.965-9.93-38.722-14.89-49.5-9.5-2.247 1.123-5.013 4.507-8 6-4.277 2.138-12.5 10.029-12.5 15l2 4Z"/><path fill="#09818C" id="VISpor1" d="M402 121c2.773 0 3.67 4 6 4 0-11.814-6.079-24.579-14.5-33l-7.5-8-2 5 9 10.5c3.281 6.561 9 12.626 9 20.5v1Z"/><path fill="#FC8FFF" id="PAG" d="M242 161c-1.831 0-9 3.771-9 2v-23.5l-2-2.5 1-6 3-3.5 4-9c1.678-3.357-4.515-7.515-6.5-9.5l-4-5c-1.714-.857-2.943 4.471-4 5-4.745 2.373-8.362 6.775-5.5 12.5.961 1.922 2.804 9.5 6 9.5v6l-2 3.5c-.265.531 1 21.109 1 23.5-5.994 0-10.571-7-16-7h-1l-1-1c-4.284 0-7.27-6-12-6l-3-4c5.523 0 0-5.574 0-1l-2-1-3-7.5 1-11.5c0-5.557 4-9.354 4-15 1.845 0 1.441-3.381 2-4.5 1.753-3.506 6.576-10.538 10.5-12.5l10-6h9.5c13.104 0 22.739-.76 33 9.5 3.337 3.337 9 8.921 9 13.5 0 5.995 4 10.237 4 17 0 2.618 2.514 7.472 1 10.5l-2 5.5-2 2c0-4.73-6.455 1-1 1l-3 4-12 6-1 1-2 1-1 1h-1l-2 1-1 1Z"/><path fill="#33B932" id="APr" d="M116 95c0 4.736 11 17.083 11 19 2.236 0 3.287-5.074 4-6.5 2.581-5.162 10-12.605 10-18.5l-3-2h-5c-4.638 0-7.92 5-12 5 0 1.077-3.762 3-5 3Z"/><path fill="#FF64FF" id="MB" d="m152 87-1 1 1-1Z"/><path fill="#33B932" id="APr" d="M340 95c0 2.275-8.587 19-11 19 0-4.18-14-20.202-14-25l4-2h4c4.999 0 8.955 6 13 6l4 2Z"/><path fill="#0A8389" id="VISpor2/3" d="m65 113-11 8c0-8.818 6.757-19.257 13-25.5l6-6.5 4 6v3l-7 11-1 1v1l-3 1-1 1Z"/><path fill="#FF64FF" id="MB" d="m151 89-1 1 1-1Z"/><path fill="#0A8389" id="VISpor2/3" d="M390 112c4.489 0 6.617 8 12 8 0-7.874-5.719-13.939-9-20.5L384 89h-1c0 2.02-2.189 6-4 6 0 .839 1.93 2 0 2v1c0 3.791 8 7.623 8 12l3 2Z"/><path fill="#FF64FF" id="MB" d="m150 90-1 1 1-1ZM149 92l-1 1 1-1ZM148 94l-1 1 1-1Z"/><path fill="#72D568" id="PAR" d="M111 130v21l5-7.5c2.286-2.286 11-26.09 11-29.5 0-1.917-11-14.264-11-19l-13 1v1c0 2.33 4 3.227 4 6 4.5 0 4 22.305 4 27Z"/><path fill="#FF64FF" id="MB" d="m147 95-1 2 1-2Z"/><path fill="#72D568" id="PAR" d="M345 129v21c-2.545 0-3.133-5.633-4.5-7-2.437-2.437-11.5-25.542-11.5-29 2.413 0 11-16.725 11-19l14 1v1c-2.004 0-5 5.378-5 7-3.947 0-4 20.605-4 25Z"/><path fill="#08838C" id="VISpl6a" d="m103 97-6 1c0-1.353 4.643-2 6-2v1ZM354 97c1.564 0 3.876 1 6 1 0-.913-5.014-2-6-2v1Z"/><path fill="#31B723" id="ENTm3" d="M69 111c0 17.747-11 34.038-11 52 0 12.858 18.342 38.815 27 21.5 6.725-13.45 3.29-31.582 10-45l2-12c1.405-2.811 10-22.837 10-24.5 0-2.773-4-3.67-4-6l-6 1-4 1c0 3.705-4.957 42.414-6 44.5-2.35 4.698-4 11.455-4 17 0 3.548-4.29 17.605-10.5 14.5-7.003-3.502-6.5-12.838-6.5-19.5 0-7.656 3.951-32.902 7-39 1.404-2.807 4-6.239 4-9.5l-7 2v1l-1 1Z"/><path fill="#FF64FF" id="MB" d="M146 97c-1.473 0-1 1.952-1 3 1.473 0 1-1.952 1-3Z"/><path fill="#31B723" id="ENTm3" d="M399 161v5c0 10.643-19.36 34.781-28 17.5-1.446-2.893-.581-7.163-2-10-7.315-14.631-4.436-35.872-12-51-1.185-2.369-5.502-18.5-8-18.5 0-1.622 2.996-7 5-7 1.564 0 3.876 1 6 1l3 1c0 3.238 2.514 16.528 4 19.5v12c3.621 7.243 2.356 16.711 6 24v5c1.911 3.822 3.694 19.403 11.5 15.5 5.799-2.9 8.192-16.116 5.5-21.5-2.829-5.658-1.928-25.856-5-32-2.048-4.097-5-9.706-5-14.5l7 3c0 5.23 6.809 34.119 9 38.5.923 1.846.604 12.5 3 12.5Z"/><path fill="#0B838A" id="VISpor5" d="m77 107-7 2 7-11h1l2 7c-1.238 0-3 .423-3 2ZM380 107l7 3c0-4.377-8-8.209-8-12-1.663 0-2 5.407-2 7l3 2Z"/><path fill="#30B724" id="ENTm5" d="M80 105c-1.238 0-3 .423-3 2 0 3.261-2.596 6.693-4 9.5-3.049 6.098-7 31.344-7 39 0 6.662-.503 15.998 6.5 19.5 6.21 3.105 10.5-10.952 10.5-14.5 0-5.545 1.65-12.302 4-17 1.043-2.086 6-40.795 6-44.5-4.393 0-9.184 6-13 6ZM377 105l3 2c0 4.794 2.952 10.403 5 14.5 3.072 6.144 2.171 26.342 5 32 2.692 5.384.299 18.6-5.5 21.5-7.806 3.903-9.589-11.678-11.5-15.5v-5c-3.644-7.289-2.379-16.757-6-24v-12c-1.486-2.972-4-16.262-4-19.5 4.796 0 9.664 6 14 6Z"/><path fill="#FF64FF" id="MB" d="M145 100c-2.461 0-2 3.378-2 5 1.638 0 2-3.576 2-5Z"/><path fill="#30B824" id="ENTm2" d="M53 181v2c2.148 0 7.065 9.63 8 11.5 2.333 4.666 17.97 11.765 24.5 8.5 5.802-2.901 4.269-10.037 6.5-14.5 6.119-12.238 3.577-30.153 10-43 1.432-2.863 4.326-15.5 9-15.5 0-4.695.5-27-4-27 0 1.663-8.595 21.689-10 24.5l-2 12c-6.71 13.418-3.275 31.55-10 45-8.658 17.315-27-8.642-27-21.5h-1c0 4.269-1.156 10.811-3 14.5-.523 1.046.952 3.5-1 3.5Z"/><path fill="#A9A9A8" id="AQ" d="m225 131 3.5 2 3.5-2 3-3.5 4-9c1.678-3.357-4.515-7.515-6.5-9.5l-4-5c-1.714-.857-2.943 4.471-4 5-4.745 2.373-8.362 6.775-5.5 12.5.961 1.922 2.804 9.5 6 9.5Z"/><path fill="#30B824" id="ENTm2" d="M403 182v2c-3.06 0-4.224 7.862-6.5 9-7.66 3.83-15.914 14.543-27 9-4.985-2.493-3.475-11.45-5.5-15.5-2.461-4.923-.843-13.686-3-18-3.999-7.997-3.943-17.887-8-26-1.245-2.49-4.172-13.5-8-13.5 0-4.395.053-25 4-25 2.498 0 6.815 16.131 8 18.5 7.564 15.128 4.685 36.369 12 51 1.419 2.837.554 7.107 2 10 8.64 17.281 28-6.857 28-17.5 1.529 0 4 14.034 4 16Z"/><path fill="#FE7AFE" id="ICc" d="M173 120c0 2.954-5.879 10.811-9.5 9l-3.5-3c0-6.135 4-12.342 4-18l2.5-1c1.719.86 7.5 10.092 7.5 12l-1 1ZM283 119c0 6.466 13 14.538 13 7 0-6.796-4-12.977-4-19-3.495 0-9 8.192-9 12Z"/><path fill="#0B838A" id="VISpor5" d="M69 110h1v-1l-1 1Z"/><path fill="#32B725" id="ENTl3" d="m70 110-1 1v-1h1ZM390 112l5 15.5c2.104 4.208 4 27.275 4 33.5-2.396 0-2.077-10.654-3-12.5-2.191-4.381-9-33.27-9-38.5l3 2ZM57 163h1c0-17.962 11-34.253 11-52l-3 1-1 1c0 5.192-1.786 12.072-4 16.5-1.994 3.988-4 27.913-4 33.5Z"/><path fill="#32B825" id="ENTl2" d="m66 112-1 1 1-1ZM399 166c1.529 0 4 14.034 4 16 3.743 0 2.887-10.274 4-12.5 6.054-12.108-5-35.979-5-48.5v-1c-5.383 0-7.511-8-12-8l5 15.5c2.104 4.208 4 27.275 4 33.5v5ZM57 163c0 4.269-1.156 10.811-3 14.5-.523 1.046.952 3.5-1 3.5-4.276 0-2.736-11.972-4-14.5-4.17-8.339 5-35.178 5-45.5l11-8c0 5.192-1.786 12.072-4 16.5-1.994 3.988-4 27.913-4 33.5Z"/><path fill="#FE79FF" id="ICd" d="m174 119-1 1 1-1Z"/><path fill="#32B722" id="ENTl1" d="m53 183-2 7c-5.24 0-5.528-12.556-7-15.5-7.286-14.572 5-37.139 5-50.5l5-3c0 10.322-9.17 37.161-5 45.5 1.264 2.528-.276 14.5 4 14.5v2ZM403 184l3 6c3.902 0 4.781-11.062 6-13.5 8.198-16.396-4-35.703-4-51.5-2.33 0-3.227-4-6-4 0 12.521 11.054 36.392 5 48.5-1.113 2.226-.257 12.5-4 12.5v2Z"/><path fill="#FC90FF" id="CUN" d="M177 152h2c0-1.951 2.454-.477 3.5-1 2.555-1.277 6.5-3.628 6.5-7l-3-7.5 1-11.5c-1.947 0-3.644-3.428-6.5-2-4.024 2.012-6.768 10-11.5 10 0 1.747-.253 2-2 2 0 1.747-.253 2-2 2l-1 1-1 1c-3.875 0-3 8.397-3 11l4 3 10-1c0-1.486 3-1.486 3 0ZM282 152l11 1 3-2c0-2.858 2.739-13-4-13-3.205 0-13.332-13.916-15.5-15-4.893-2.446-5.422 4-7.5 4 0 2.618 2.514 7.472 1 10.5l-2 5.5c0 3.832 2.226 6.363 5.5 8 1.147.574 4.5-1.064 4.5 1h2c0-1.399 2-1.399 2 0Z"/><path fill="#31B625" id="ENTm1" d="m403 184 3 6-7 8.5c-3.403 6.807-27.166 14.167-34.5 10.5-4.815-2.408-3.608-9.716-5.5-13.5-4.557-9.113-3.492-20.984-8-30-2.003-4.007-6-10.972-6-15.5v-21c3.828 0 6.755 11.01 8 13.5 4.057 8.113 4.001 18.003 8 26 2.157 4.314.539 13.077 3 18 2.025 4.05.515 13.007 5.5 15.5 11.086 5.543 19.34-5.17 27-9 2.276-1.138 3.44-9 6.5-9ZM53 183l-2 7c0 11.28 30.98 23.76 40.5 19 5.996-2.998 4.186-10.872 6.5-15.5 1.208-2.416 13-41.3 13-42.5v-21c-4.674 0-7.568 12.637-9 15.5-6.423 12.847-3.881 30.762-10 43-2.231 4.463-.698 11.599-6.5 14.5-6.53 3.265-22.167-3.834-24.5-8.5-.935-1.87-5.852-11.5-8-11.5Z"/><path fill="#C9C9CB" id="ll" d="m142 182-1 1-2-2c0-3.488 1.322-20.856 0-23.5-2.004-4.008-2-7.611-2-12.5l2.5-4 7.5-.5c1.218-2.437-.695-6.903 2.5-8.5l5 1 14-2 .5 2-2 2-2 2-1 1-1 1c-3.875 0-3 8.397-3 11 0 4.559-2 11.089-2 13l-1 1c0 3.519-2 5.843-2 9v1l-1 1-1 2-2.5 2c-5.901 0-1.5-6.123-1.5-8 0-.535 10.907-10.686 7-18.5-2.335-4.67-8.665-4.67-11 0-2.376 4.752 0 11.029 0 16.5 0 6.295-3 9.933-3 13Z"/><path fill="#FF64FF" id="MB" d="M225 137h6l1-6-3.5 2-3.5-2v6Z"/><path fill="#C9C9CB" id="ll" d="M315 182v1c1.747 0 2-.253 2-2 0-12.77 2-24.166 2-37l-2.5-3c-2.322-1.161-5.925 1.651-7.5-1.5-1.371-2.742 1.441-5.529-2.5-7.5l-8 1c-1.29-.645-9.681-3.137-10.5-1.5-1.458 2.917 4 4.181 4 6.5 6.739 0 4 10.142 4 13 0 4.937 3 11.436 3 12 0 4.811 4 8.818 4 13v1c2.409 0 1.055 1.277 2.5 2l1.5-.5c4.015-4.015 0-3.82 0-7.5 0-1.109-10.479-10.542-7-17.5 2.934-5.869 9.184-5.631 12 0l-1 15.5c0 5.348 3 8.368 3 12l1 1Z"/><path fill="#FF64FF" id="MB" d="m169 133-2 2c1.747 0 2-.253 2-2ZM167 135l-2 2c1.747 0 2-.253 2-2ZM165 137l-1 1 1-1Z"/><path fill="#FDA6FF" id="DR" d="M225 168v3c1.601 0 .972 9.264 3.5 8 2.329-1.165 1.705-12 3.5-12 0-1.145-.579-4 1-4v-23.5l-2-2.5h-6l-2 3.5c-.265.531 1 21.109 1 23.5l1 4Z"/><path fill="#FF64FF" id="MB" d="m164 138-1 1 1-1Z"/><path fill="#C8C9C8" id="IVn" d="M191 145v1c5.523 0 0-5.574 0-1ZM266 145l-1 1c-5.455 0 1-5.73 1-1Z"/><path fill="#FF64FF" id="MB" d="m267 160 1 1c0-5.588 4.719-9 10-9 0-2.064-3.353-.426-4.5-1-3.274-1.637-5.5-4.168-5.5-8l-2 2-1 1-3 4c6.875 0 5 4.928 5 10ZM179 152c5.684 0 8.792 7 10 7 0-4.392-.657-9 5-9l-3-4v-1l-2-1c0 3.372-3.945 5.723-6.5 7-1.046.523-3.5-.951-3.5 1Z"/><path fill="#FC8FFF" id="PAG" d="m266 145-1 1 1-1Z"/><path fill="#FFAC6F" id="NLL" d="m145 169 4 2c0-.535 10.907-10.686 7-18.5-2.335-4.67-8.665-4.67-11 0-2.376 4.752 0 11.029 0 16.5ZM311 169l-4 2c0-1.109-10.479-10.542-7-17.5 2.934-5.869 9.184-5.631 12 0l-1 15.5Z"/><path fill="#FF64FF" id="MB" d="M158 163h3c0-4.713 3-9.865 3-10l-4-3c0 4.559-2 11.089-2 13Z"/><path fill="#FF8FFD" id="MRN" fill-rule="evenodd" d="m213 173-2 5.5c0 15.151 18.703-5.5 2-5.5m2 15h7c0-4.27 1-10.067 1-15-2.282 0-3-5.29-3-7l-12-9h-1l-1-1c-4.284 0-7.27-6-12-6-5.657 0-5 4.608-5 9v1l4.5-1c2.594 1.297 19.396 6.709 17.5 10.5l-16-.5 3.5 2 1.5 4.5c2.873 5.746-12.864 8.5-16 8.5 0 2.496 5-.496 5 2h6c1.048 0 3-.473 3 1h1l16 1ZM239 173c0 2.259-3.675 5.151-2 8.5 4.496 8.993 15.604-8.5 2-8.5m-5 15h7l16-1h1c0-1.579 2.855-1 4-1h5c0-2.496 5 .496 5-2-5.263 0-19.353-2.794-15-11.5l4-3.5-16 .5c-1.836-3.672 14.9-9.2 17.5-10.5l4.5 1c0-5.072 1.875-10-5-10l-12 6-1 1-2 1-1 1h-1l-2 1-1 1-5 5c0 1.347-2.314 8-4 8l1 14Z"/><path fill="#FF64FF" id="MB" d="M174 152h3c0-1.486-3-1.486-3 0ZM280 152h2c0-1.399-2-1.399-2 0ZM296 163h3c0-.564-3-7.063-3-12l-3 2c0 2.844 3 6.268 3 10Z"/><path fill="#FFA5FD" id="PPN" d="m173 183 4.5 2 6.5-1c3.136 0 18.873-2.754 16-8.5l-1.5-4.5-3.5-2c-6.799 0-11.871 5.186-17.5 8l-5.5-.5c0-.786 17-8.726 17-16.5v-1c-1.208 0-4.316-7-10-7h-5l-10 1c0 .135-3 5.287-3 10v5c0 3.345 6 5.413 6 9l6 5v1ZM283 183l-4.5 2-6.5-1c-5.263 0-19.353-2.794-15-11.5l4-3.5c7.676 0 9.214 4.357 14.5 7 .647.324 8.5 1.713 8.5.5 0-2.832-16-7.236-16-15.5 0-5.588 4.719-9 10-9h4l11 1c0 2.844 3 6.268 3 10l-1 5c0 3.331-5 4.796-5 8l-1 1-4 4-1 1-1 1Z"/><path fill="#FF64FF" id="MB" d="m206 156 1 1-1-1ZM250 156l-1 1 1-1ZM220 166l5 2-1-4c-5.994 0-10.571-7-16-7l12 9ZM249 157l-2 1 2-1ZM247 158l-1 1 1-1Z"/><path fill="#CBC9CB" id="scp" d="m189 160 4.5-1c2.594 1.297 19.396 6.709 17.5 10.5l-16-.5c-6.799 0-11.871 5.186-17.5 8l-5.5-.5c0-.786 17-8.726 17-16.5Z"/><path fill="#FF64FF" id="MB" d="m245 159-2 1 2-1Z"/><path fill="#CBC9CB" id="scp" d="M268 161c0 8.264 16 12.668 16 15.5 0 1.213-7.853-.176-8.5-.5-5.286-2.643-6.824-7-14.5-7l-16 .5c-1.836-3.672 14.9-9.2 17.5-10.5l4.5 1 1 1Z"/><path fill="#FF64FF" id="MB" d="m243 160-1 1 1-1ZM237 166l-5 1c0-1.145-.579-4 1-4 0 1.771 7.169-2 9-2l-5 5ZM158 163l-1 1 1-1Z"/><path fill="#FF9B88" id="P" d="M161 168c-3.506 0-3.428 5-6 5 0-3.157 2-5.481 2-9l1-1h3v5ZM295 168c4.762 0 4.728 8 8 8 0-4.182-4-8.189-4-13h-3l-1 5Z"/><path fill="#CBCBCC" id="mlf" d="m225 171-2 2c-2.282 0-3-5.29-3-7l5 2v3ZM232 167c0 2.409 1 5.181 1 7 1.686 0 4-6.653 4-8l-5 1Z"/><path fill="#FF64FF" id="MB" d="M228 189h1l5-1-1-14c0-1.819-1-4.591-1-7-1.795 0-1.171 10.835-3.5 12-2.528 1.264-1.899-8-3.5-8l-2 2c0 4.933-1 10.73-1 15l6 1Z"/><path fill="#FFAD6D" id="PB" d="M151 195h1l1-1 16-5c0-2.437 4-2.375 4-6v-1c-3.949 0-6-1.055-6-5 0-3.587-6-5.655-6-9-3.506 0-3.428 5-6 5v1l-1 1-1 2c0 1.301-2.496 7-4 7l-1 2-1 1v1l-1 1v1l-1 1c0 2.215 2 1.519 2 3h1l3 1ZM308 194h1c0-1.481 2-.785 2-3v-1c-1.577 0-2-1.762-2-3v-1c-1.517 0-6-7.636-6-9v-1c-3.272 0-3.238-8-8-8 0 3.331-5 4.796-5 8l-1 1c0 3.744-.256 4-4 4l-1 1-1 1c0 2.773 4 3.67 4 6l16 5 4 1 1-1Z"/><path fill="#FF9B88" id="P" d="M129 221c4.643 0 7.62 10.739 9 13.5.662 1.324-1.207 6.5 1 6.5 0-5.633-5.915-24.67-5-26.5 1.78-3.559 3.213-7.427 5-11l4-3.5c-4.944 0-1.102-6 4-6 0-1.481-2-.785-2-3-7.484 0 4-16.854 4-7 1.504 0 4-5.699 4-7l-2.5 2c-5.901 0-1.5-6.123-1.5-8l-4-2c0 6.295-3 9.933-3 13l-1 1c0 1.623-.005 6-2 6 0 1.606 2.081 4.339 1 6.5-2.207 4.413-12 17.649-12 21.5l1 4ZM328 221c-3.681 0-7.68 7.86-9 10.5-.662 1.324 1.207 6.5-1 6.5 0-6.545 6.167-21.166 4-25.5l-5-9-4-3.5c5.039 0 1.868-6-4-6 0-1.481 2-.785 2-3 8.567 0-1.233-13.033-3-9.5l1 4.5c-1.517 0-6-7.636-6-9 2.409 0 1.055 1.277 2.5 2l1.5-.5c4.015-4.015 0-3.82 0-7.5l4-2c0 5.348 3 8.368 3 12l1 1v1c0 .986 1.087 6 2 6 0 7.008 1.708 10.916 5 17.5 1.596 3.193 7 6.851 7 10.5l-1 4Z"/><path fill="#FC90FE" id="VTN" d="m213 173-2 5.5c0 15.151 18.703-5.5 2-5.5ZM239 173c0 2.259-3.675 5.151-2 8.5 4.496 8.993 15.604-8.5 2-8.5Z"/><path fill="#FF9B88" id="P" d="m155 174-1 1 1-1ZM154 175l-1 2 1-2ZM290 176l-1 1 1-1ZM167 177l6 5c-3.949 0-6-1.055-6-5ZM289 177l-4 4c3.744 0 4-.256 4-4Z"/><path fill="#F0F080" id="CB" d="M128 186c2.603 0 11-.875 11 3 1.995 0 2-4.377 2-6l-2-2c-2.572 0-11 2.791-11 5Z"/><path fill="#CBC7CC" id="sctv" d="m146 190-1 1c-7.484 0 4-16.854 4-7l-1 2-1 1v1l-1 1v1Z"/><path fill="#FF9B88" id="P" d="m285 181-1 1 1-1Z"/><path fill="#CBC7CC" id="sctv" d="M311 190v1c8.567 0-1.233-13.033-3-9.5l1 4.5v1l2 3Z"/><path fill="#F0F080" id="CB" d="m314 181 1 1-1-1ZM329 186c-4.937 0-11.436 3-12 3-.913 0-2-5.014-2-6 1.747 0 2-.253 2-2 2.441 0 12 3.127 12 5ZM142 182l-1 1 1-1Z"/><path fill="#FF9B88" id="P" d="m284 182-1 1 1-1ZM169 189c3.184 0 10-1.081 10 3l6.5-5c1.046-.523 3.5.951 3.5-1 0-2.496-5 .496-5-2l-6.5 1-4.5-2c0 3.625-4 3.563-4 6ZM287 189c-3.526 0-8.954 2-10 2l-10-5c0-2.496 5 .496 5-2l6.5 1 4.5-2c0 2.773 4 3.67 4 6ZM149 184l-1 2 1-2Z"/><path fill="#F0F080" id="CB" d="m127 186-1 1 1-1Z"/><path fill="#CCCCCA" id="mcp" d="M139 189c0 1.606 2.081 4.339 1 6.5-2.207 4.413-12 17.649-12 21.5l-3-5c0-8.398-2-15.253-2-23l1-1 1-1h1l1-1h1c2.603 0 11-.875 11 3Z"/><path fill="#FF9B88" id="P" d="m148 186-1 1 1-1Z"/><path fill="#FFC295" id="PRNr" d="M214 219c-10.955 0-23.388 1-35 1v-28l6.5-5c1.046-.523 3.5.951 3.5-1h6c0 1.473 1.952 1 3 1h1l10.5 6c5.72 2.86 3.5 9.77 3.5 14-6.827 0 1 9.463 1 12Z"/><path fill="#FF9B88" id="P" d="M195 186c1.048 0 3-.473 3 1-1.048 0-3 .473-3-1ZM262 186c-1.145 0-4-.579-4 1 1.145 0 4 .579 4-1Z"/><path fill="#FFC295" id="PRNr" d="M243 219c10.627 0 22.717 1 34 1v-29l-10-5h-5c0 1.579-2.855 1-4 1h-1l-3.5 2c-3.137 1.569-8.649 4.797-10.5 8.5-1.541 3.082 0 7.36 0 10.5 6.75 0 0 6.839 0 11Z"/><path fill="#CCCCCA" id="mcp" d="M333 197c-3.068 0-.777 20-4 20 0-3.649-5.404-7.307-7-10.5-3.292-6.584-5-10.492-5-17.5.564 0 7.063-3 12-3l4 2v9Z"/><path fill="#F0F080" id="CB" d="m125 187-1 1 1-1Z"/><path fill="#FF9B88" id="P" d="m213 207 3 3c0-6.758-1-14.627-1-22l-16-1 10.5 6c5.72 2.86 3.5 9.77 3.5 14ZM243 208l-2 1v-21l16-1-3.5 2c-3.137 1.569-8.649 4.797-10.5 8.5-1.541 3.082 0 7.36 0 10.5ZM309 187l2 3c-1.577 0-2-1.762-2-3Z"/><path fill="#FEF991" id="FL" d="M120 189c-1.867 0-3.227-1.137-5.5 0-3.161 1.58-4.504 27 1.5 27 14.34 0 4-23.817 4-27Z"/><path fill="#F0F080" id="CB" d="m124 188-1 1 1-1Z"/><path fill="#FF9B88" id="P" d="m147 188-1 1 1-1Z"/><path fill="#FFC393" id="CS" fill-rule="evenodd" d="M223 191v14c0 1.211 1.737 4.882 3.5 4 1.225-.613 1.521-7 2-7 1.493 0-.919 8.46 2 7 4.031-2.016 6.613-15.693 2-18-.851-.425-7.464 0-9.5 0m15 27c-1.062 0-6.964 4.573-8 2.5-.429-.858-1.315-11.5-1.5-11.5-1.931 0-.815 10.131-1.5 11.5-.65 1.3-6.812-1.5-8-1.5 0-3.679-3-6.067-3-9 0-6.758-1-14.627-1-22h7l6 1c0 1.186 1 1.186 1 0l5-1h7v21l-1 2c0 2.16-2 4.167-2 7Z"/><path fill="#F0F080" id="CB" d="m337 189-4 8v-9l4 1Z"/><path fill="#FEF991" id="FL" d="M333 197c0 6.565-1.252 19 8 19 5.747 0 3.916-21.667 2-25.5-.649-1.299-6-3.406-6-1.5l-4 8Z"/><path fill="#F0F080" id="CB" d="M125 221h4l-1-4-3-5c0-8.398-2-15.253-2-23h-3c0 3.183 10.34 27-4 27l1 5 1-1 1-1c0-2.38 4-3.061 4 0l2 2Z"/><path fill="#FEBA86" id="SUT" d="M165 203c-2.216 0-11-1.224-11 2-6.276 0-3-6.202-3-10h1l1-1 16-5c3.184 0 10-1.081 10 3v9h-1c-2.014 0-5.932-2.284-8.5-1l-4.5 3Z"/><path fill="#FF9B88" id="P" d="M228 189h1c0 1.186-1 1.186-1 0Z"/><path fill="#FEBA86" id="SUT" d="M291 203h9.5l2.5 2c4.115 0 4.405-5.69 3-8.5l-3-2.5-16-5c-3.526 0-8.954 2-10 2v10h1l8.5-1 4.5 3Z"/><path fill="#FF9B88" id="P" d="m146 190-1 1 1-1Z"/><path fill="#FFC294" id="RPO" d="M223 191v14c0 1.211 1.737 4.882 3.5 4 1.225-.613 1.521-7 2-7 1.493 0-.919 8.46 2 7 4.031-2.016 6.613-15.693 2-18-.851-.425-7.464 0-9.5 0Z"/><path fill="#FEAD6E" id="KF" d="M143 200h2c4.943 0 3-3.673 3-6h-1c-5.102 0-8.944 6-4 6Z"/><path fill="#FF9B88" id="P" fill-rule="evenodd" d="m160 235-2 3.5c-.664 1.328-.045 7.772 2.5 6.5 3.89-1.945 5.363-10-.5-10m3 45c0-2.299 5.397 4.449 6.5 5 4.715 2.357 9.782 2 15.5 2 1.235 0 5 .643 5-1-6.111 0-24 1.936-24-7l-3-3.5c-.567-1.134-.546-6.5-2-6.5-8.294 0-3.161-14.177-1-18.5l3.5-6.5 2.5 5c0-2.774-.141-5.217 1-7.5 1.234-2.469 4-.582 4 1.5l2-4 2-8c-2.399 0-12 5.406-12-1-1.465 0-4 .109-4-2-5.14 0-4.592-10.683-7-15.5-.715-1.43.722-5.5 2-5.5v-2c-6.276 0-3-6.202-3-10l-3-1c0 2.327 1.943 6-3 6 0 .594 3.26 6.021 4 7.5v5c4.154 8.307 3.838 18.676 8 27 2.628 5.256-.726 12.5-6 12.5 0 2.266 4-.454 4 3 0 8.948-17.846.654-20.5-2-3.377-3.377-5.451-8.401-7.5-12.5-.659-1.319.334-5.5-2-5.5 0 4.287-.025 10-5 10 0 3.944 9.069 8.569 12 11.5l3.5 4.5c4.463 2.232 7.917 1.917 12 6 2.783 2.783 5.922 10 9.5 10l-4-4.5c-1.407-2.814 2.846-3.307 4-1l6 8.5Z"/><path fill="#FF9B88" id="P" d="m153 194-1 1 1-1Z"/><path fill="#FF9B88" id="P" fill-rule="evenodd" d="m295 235-2 2.5v3.5c0 11.682 11.067-6 2-6m-2 46c0-3.387-4.589 4-8 4 0-2.572 5-2.494 5-6l3-2.5c1.643-3.287 2-7.511 2-11.5 2.021 0-.152 5.826 3.5 4 5.843-2.922-7.5-36.286-7.5-19-2.116 0 .424-11.962-3.5-10-2.694 1.347-.303 10-2.5 10 0-3.731-2-10.83-2-11 0-3.679-3-6.067-3-9 2.014 0 13 7.412 13 0l5-1c5.306 0 5-18.955 5-22v-2c4.115 0 4.405-5.69 3-8.5l-3-2.5 4 1c0 2.313 1.452 5 4 5 0 1.654-3.155 6.811-4 8.5v6c-3.557 7.114-3.454 15.907-7 23-2.34 4.679-1.699 14.5 5 14.5 0 2.205-3.251.002-4 1.5-1.932 3.863 5.432 7.034 8.5 5.5 2.784-1.392 9.594-6 12.5-6l1-1 8-16c0 2.802 1.376 10 5 10l-1.5 3c-5.698 2.849-9.673 9.836-14 12-3.067 1.533-6.81 2.405-10 4l-8.5 10 1-2.5c.439-.878-.369-3.5-1.5-3.5l-8.5 12Z"/><path fill="#FF9B88" id="P" d="m308 194-1 1 1-1Z"/><path fill="#FEAD6E" id="KF" d="M311 200h2c5.039 0 1.868-6-4-6h-1l-1 1c0 2.313 1.452 5 4 5Z"/><path fill="#F0F080" id="CB" d="M328 221c1.048 0 3-.473 3 1l2-2c0-6.856 4.78 0 6 0 0-2.424 2-2.76 2-4-9.252 0-8-12.435-8-19-3.068 0-.777 20-4 20l-1 4Z"/><path fill="#FFAE6F" id="PSV" d="M143 248c0 1.778 6.332 4 8 4 5.274 0 8.628-7.244 6-12.5-4.162-8.324-3.846-18.693-8-27v-5c-.74-1.479-4-6.906-4-7.5h-2l-4 3.5c-1.787 3.573-3.22 7.441-5 11-.915 1.83 5 20.867 5 26.5v2l2 3 1 1 1 1Z"/><path fill="#FEB886" id="P5" d="m176 230-1 1c-2.399 0-12 5.406-12-1l4-2.5 2-6c3.021-6.043-4-13.348-4-18.5l4.5-3c2.568-1.284 6.486 1 8.5 1l1 1v18c0 3.519-2 5.843-2 9l-1 1ZM280 230c2.014 0 13 7.412 13 0 0-.299-4.357-5.213-5-6.5-3.291-6.582 3-14.941 3-20.5l-4.5-3-8.5 1-1 1v18l2 8 1 1v1Z"/><path fill="#FFAE6F" id="PSV" d="M315 246c0 3.031-7.622 6-10 6-6.699 0-7.34-9.821-5-14.5 3.546-7.093 3.443-15.886 7-23v-6c.845-1.689 4-6.846 4-8.5h2l4 3.5 5 9c2.167 4.334-4 18.955-4 25.5v2c-1.473 0-1 1.952-1 3v1l-1 1-1 1Z"/><path fill="#FF9B88" id="P" d="M179 201v1l-1-1h1ZM278 201l-1 1v-1h1Z"/><path fill="#FEB986" id="V" d="M159 228c0 2.109 2.535 2 4 2l4-2.5 2-6c3.021-6.043-4-13.348-4-18.5-2.216 0-11-1.224-11 2v2c2.144 0 .381 4.262 1 5.5 1.746 3.492 4 11.67 4 15.5ZM298 229l-5 1c0-.299-4.357-5.213-5-6.5-3.291-6.582 3-14.941 3-20.5h9.5l2.5 2v2c-1.696 0-5 20.24-5 22Z"/><path fill="#FDB986" id="PC5" d="M154 207c2.144 0 .381 4.262 1 5.5 1.746 3.492 4 11.67 4 15.5-5.14 0-4.592-10.683-7-15.5-.715-1.43.722-5.5 2-5.5Z"/><path fill="#C8C8CC" id="tspc" d="m219 219-3 2-2-2c0-2.537-7.827-12-1-12l3 3c0 2.933 3 5.321 3 9ZM243 219l-2 2c-2.041 0-3-.959-3-3 0-2.833 2-4.84 2-7l1-2 2-1c6.75 0 0 6.839 0 11Z"/><path fill="#FDB986" id="PC5" d="M303 207c-1.696 0-5 20.24-5 22 5.306 0 5-18.955 5-22Z"/><path fill="#FF9B88" id="P" d="m233 258-2 1v-17.5l-3.5-1.5c-3.32 1.66-1.5 14.531-1.5 18h-3c0-2.203 3.465-4.569 2-7.5-2.227-4.454-7.747-8.494-11-15l2-14.5 3-2c1.188 0 7.35 2.8 8 1.5.685-1.369-.431-11.5 1.5-11.5.185 0 1.071 10.642 1.5 11.5 1.036 2.073 6.938-2.5 8-2.5 0 2.041.959 3 3 3l1 15.5c-2.347 4.695-7.568 8.136-10 13l1 8.5ZM241 209l-1 2 1-2Z"/><path fill="#FEA4D2" id="VCO" d="M116 223c0 3.69-4.087 9.326-2 13.5l3 3.5c5.042 0 6-16.85 6-21 0-3.061-4-2.38-4 0l-1 1-1 1v1l-1 1ZM340 239l-1 1c-2.32 0-6-17.763-6-20 0-6.856 4.78 0 6 0v2l2 2c0 2.634 4.196 15-1 15Z"/><path fill="#FF9BCD" id="MY" d="m119 219-1 1 1-1ZM117 240l3 5c4.975 0 5-5.713 5-10v-14l-2-2c0 4.15-.958 21-6 21Z"/><path fill="#FDBA86" id="PRNc" d="M194 267h4c0-3.497 13.831-3 17-3l1-1h1c0-1.811 3.438-4 5-4l1-1c0-2.203 3.465-4.569 2-7.5-2.227-4.454-7.747-8.494-11-15l2-14.5-2-2c-10.955 0-23.388 1-35 1 0 3.519-2 5.843-2 9l-1 1-1 1-2 8c2.851 0 2.731-2.384 5.5-1 2.412 1.206 11.041 21 1.5 21v1c2.813 0 14 3.537 14 7ZM259 267h3l1-1c0-3.169 11.288-6 14-6v-1c-1.537 0-6 .037-6-2.5 0-1.879 5.183-17.841 6.5-18.5 2.84-1.42 2.889 1 5.5 1 0-3.679-3-6.067-3-9v-1l-1-1-2-8c-11.283 0-23.373-1-34-1l-2 2 1 15.5c-2.347 4.695-7.568 8.136-10 13l1 8.5c1.606 0 6 2.68 6 4l1 1h1l1 1c3.666 0 16-.932 16 3h1Z"/><path fill="#FF9BCD" id="MY" d="m339 240-3 6c-3.624 0-5-7.198-5-10v-14l2-2c0 2.237 3.68 20 6 20Z"/><path fill="#CACACB" id="sV" d="M143 248c0 1.778 6.332 4 8 4 0 2.266 4-.454 4 3 0 8.948-17.846.654-20.5-2-3.377-3.377-5.451-8.401-7.5-12.5-.659-1.319.334-5.5-2-5.5v-14h4c4.643 0 7.62 10.739 9 13.5.662 1.324-1.207 6.5 1 6.5v2c0 1.238.423 3 2 3l1 1 1 1ZM323 252l-1 1c-2.906 0-9.716 4.608-12.5 6-3.068 1.534-10.432-1.637-8.5-5.5.749-1.498 4 .705 4-1.5 2.378 0 10-2.969 10-6l1-1 1-1v-1c1.473 0 1-1.952 1-3v-2c2.207 0 .338-5.176 1-6.5 1.32-2.64 5.319-10.5 9-10.5 1.048 0 3-.473 3 1v14l-8 16Z"/><path fill="#F0F080" id="CB" d="M339 222h1l-1-1v1ZM117 222l-1 1 1-1Z"/><path fill="#FF9BCD" id="MY" d="m340 222 1 2-2-2h1Z"/><path fill="#FF9B88" id="P" d="m279 228 1 1-1-1ZM177 229l-1 1 1-1ZM176 230l-1 1 1-1Z"/><path fill="#FDB986" id="PC5" d="m160 235-2 3.5c-.664 1.328-.045 7.772 2.5 6.5 3.89-1.945 5.363-10-.5-10ZM295 235l-2 2.5v3.5c0 11.682 11.067-6 2-6Z"/><path fill="#C9C9CB" id="ll" d="M177 259h3c9.541 0 .912-19.794-1.5-21-2.769-1.384-2.649 1-5.5 1l-2 4v7c.675 0 2 5.294 2 6l4 3ZM279 259h1l1-1 1-1c3.348 0 3-4.824 3-7 0-3.731-2-10.83-2-11-2.611 0-2.66-2.42-5.5-1-1.317.659-6.5 16.621-6.5 18.5 0 2.537 4.463 2.5 6 2.5h2Z"/><path fill="#FF9BCD" id="MY" d="m340 239-1 1 1-1Z"/><path fill="#FEAE6E" id="SOCl" d="M178 273c-.684 0-2.411 5.955-4.5 7l-7.5-1-3-3.5c-.567-1.134-.546-6.5-2-6.5v-6l1-1 1-5 1-1v-1l1-1 1-5c0-2.774-.141-5.217 1-7.5 1.234-2.469 4-.582 4 1.5v7c0 1.745-.698 6 2 6l4 3 1 2v12Z"/><path fill="#FFC5E2" id="RM" d="M227 265h2l1-1v-1c0-1.048-.473-3 1-3v-18.5l-3.5-1.5c-3.32 1.66-1.5 14.531-1.5 18v6l1 1Z"/><path fill="#FEAE6E" id="SOCl" d="M279 272c0 8.497 4.962 7 11 7l3-2.5c1.643-3.287 2-7.511 2-11.5v-4l-1-1v-2l-1-1v-1l-1-1-1-5c-2.116 0 .424-11.962-3.5-10-2.694 1.347-.303 10-2.5 10 0 2.176.348 7-3 7l-1 1-1 1h-1v13Z"/><path fill="#FF9B88" id="P" d="M318 240c-1.473 0-1 1.952-1 3 1.473 0 1-1.952 1-3ZM139 243l2 3c-1.577 0-2-1.762-2-3Z"/><path fill="#C8C8CB" id="rust" d="M161 263v6c-8.294 0-3.161-14.177-1-18.5l3.5-6.5 2.5 5-1 5-1 1v1l-1 1-1 5-1 1ZM295 261v4c2.021 0-.152 5.826 3.5 4 5.843-2.922-7.5-36.286-7.5-19l1 5 1 1v1l1 1v2l1 1Z"/><path fill="#FF9B88" id="P" d="m317 244-1 1 1-1ZM316 245l-1 1 1-1ZM142 247l1 1-1-1ZM171 250c.675 0 2 5.294 2 6-2.698 0-2-4.255-2-6Z"/><path fill="#FF9BCD" id="MY" d="m323 252-1 1 1-1Z"/><path fill="#FF9B88" id="P" d="m165 254-1 1 1-1ZM292 255l1 1-1-1ZM164 256l-1 1 1-1ZM282 257l-1 1 1-1ZM293 257l1 1-1-1ZM223 258l-1 1 1-1Z"/><path fill="#CACCC8" id="ml" d="M226 264v1c0 11.189-9 10.295-9-1v-1c0-1.811 3.438-4 5-4l1-1h2l1 2v4Z"/><path fill="#FF9BCD" id="MY" d="M226 258v2l-1-2h1Z"/><path fill="#CACCC8" id="ml" d="M240 264c0 9.87-10 11.779-10 1v-2c1.473 0 1-1.952 1-3v-1l2-1c1.606 0 6 2.68 6 4l1 1v1Z"/><path fill="#FF9B88" id="P" d="m281 258-1 1 1-1ZM180 260l-2 1-1-2h3v1ZM277 260l2 1v-2h-2v1Z"/><path fill="#FFAD6E" id="SOCm" d="m194 276-1 2-4.5 1c-2.261-1.131-8.238-6-10.5-6v-12l2-1c2.813 0 14 3.537 14 7l1 2-1 7Z"/><path fill="#FF9BCD" id="MY" d="M231 260c-1.473 0-1 1.952-1 3 1.473 0 1-1.952 1-3Z"/><path fill="#FFAD6E" id="SOCm" d="M262 275c1.473 0 1 1.952 1 3 1.423 0 3.544 1.978 5.5 1 2.133-1.067 8.486-7 10.5-7v-11l-2-1c-2.712 0-14 2.831-14 6l-1 1v8Z"/><path fill="#FF9B88" id="P" d="m294 260 1 1-1-1ZM162 262l-1 1 1-1ZM239 262l1 1-1-1ZM215 264h1v-1l-1 1Z"/><path fill="#FF9BCD" id="MY" d="M216 264h1v-1h-1v1ZM240 264h1v-1h-1v1Z"/><path fill="#FF9B88" id="P" d="M241 264h1l-1-1v1Z"/><path fill="#CCC7CB" id="tb" d="M239 287h4c0-1.554-6.757-3.014-8-5.5-1.058-2.116 2-2.898 2-4.5 0-2.469 2.787-3.074 4-5.5.523-1.046-.951-3.5 1-3.5l1-1c4.505 0 9.348 1 15 1v-1c0-3.932-12.334-3-16-3h-2c0 9.87-10 11.779-10 1h-4c0 11.189-9 10.295-9-1h-2c-3.169 0-17-.497-17 3l1 1c5.576 0 10.444-1 15-1l5 10c0 1.791 3.27 2.959 2 5.5l-7 4.5h3c4.629 0 6.778-2.139 10.5-4 1.973-.987 8.209 4 11.5 4Z"/><path fill="#FF9BCD" id="MY" d="M226 265h1l-1-1v1ZM229 265h1v-1l-1 1Z"/><path fill="#FEA3D2" id="NTB" d="m194 276 1 2c1.423 0 3.544 1.978 5.5 1 4.901-2.451 13.5-5.721 13.5-12-4.556 0-9.424 1-15 1h-1l-3 1-1 7ZM262 275l-1 3c-1.423 0-3.544 1.978-5.5 1-3.347-1.673-13.5-6.437-13.5-11l1-1c4.505 0 9.348 1 15 1h1c2.215 0 1.519 2 3 2v5Z"/><path fill="#FF9B88" id="P" d="m263 266-1 1 1-1ZM198 268l-3 1-1-2h4v1Z"/><path fill="#FF9BCD" id="MY" d="M198 268h1l-1-1v1ZM201 283l-5 1v-3l-1-2v-1c1.423 0 3.544 1.978 5.5 1 4.901-2.451 13.5-5.721 13.5-12l5 10h-9.5l-7.5 5-1 1ZM243 267l-1 1 1-1ZM258 268h1v-1h-1v1Z"/><path fill="#FF9B88" id="P" d="M259 268c2.215 0 1.519 2 3 2v-3h-3v1Z"/><path fill="#FF9BCD" id="MY" d="m256 283 4 1 1-2v-4c-1.423 0-3.544 1.978-5.5 1-3.347-1.673-13.5-6.437-13.5-11-1.951 0-.477 2.454-1 3.5-1.213 2.426-4 3.031-4 5.5h9.5l9.5 6Z"/><path fill="#CBC7CC" id="sctv" d="M291 285h1l3-2 1-1 1-1v-1l1-1 1-1 1-1 1-1 1-1 1-2.5c.439-.878-.369-3.5-1.5-3.5l-8.5 12-1 1-1 3ZM165 284v1l-2-1-1-1-1-1-4-4v-1l-4-4.5c-1.407-2.814 2.846-3.307 4-1l6 8.5v1l2 2v1Z"/><path fill="#FEAD6F" id="POR" d="M266 286h1c6.102 0 12.479-1 18-1 0-2.572 5-2.494 5-6-6.038 0-11 1.497-11-7-2.014 0-8.367 5.933-10.5 7-1.956.978-4.077-1-5.5-1l-2 1v3l5 4ZM192 285h1l3-4-1-2-2-1-4.5 1c-2.261-1.131-8.238-6-10.5-6-.684 0-2.411 5.955-4.5 7l-7.5-1c0 8.936 17.889 7 24 7l2-1Z"/><path fill="#FF9B88" id="P" d="m263 278-2 1v-1l1-3c1.473 0 1 1.952 1 3ZM302 275l-1 1 1-1ZM195 278v1l-2-1 1-2 1 2ZM301 276l-1 1 1-1Z"/><path fill="#C7C9C9" id="py" d="M206 287h8l7-4.5c1.27-2.541-2-3.709-2-5.5h-9.5l-7.5 5-1 1c0 3.943 4 2.113 4 4h1ZM251 287h1c0-1.648 4-.756 4-4l-9.5-6H237c0 1.602-3.058 2.384-2 4.5 1.243 2.486 8 3.946 8 5.5h8Z"/><path fill="#FF9B88" id="P" d="m300 277-1 1 1-1ZM157 278l4 4-4-4ZM299 278l-1 1 1-1Z"/><path fill="#CCC7CB" id="tb" d="M172 289h21l2-1 1-1h9c0-1.887-4-.057-4-4l-5 1-3 1h-1l-2 1c0 1.643-3.765 1-5 1-5.718 0-10.785.357-15.5-2-1.103-.551-6.5-7.299-6.5-5v1l2 2v1l7 5ZM263 289h21l4-2c0-1.577 1.762-2 3-2l1-3 1-1c0-3.387-4.589 4-8 4 0 3.118-11.531 2-14 2-1.145 0-4 .579-4-1h-1l-6-2-4-1c0 3.244-4 2.352-4 4h8l3 2Z"/><path fill="#FF9B88" id="P" d="m298 279-1 1 1-1ZM163 281l2 2-2-2ZM196 284l-3 1 3-4v3ZM293 281l-1 1 1-1ZM297 281l-1 1 1-1Z"/><path fill="#CCC7CB" id="tb" d="m202 282-1 1 1-1Z"/><path fill="#FF9B88" id="P" d="m260 284 6 2-5-4-1 2ZM296 282l-1 1 1-1ZM162 283l1 1-1-1ZM165 285c0 1.948 5.428 4 7 4l-7-5v1ZM192 285l-2 1 2-1ZM285 285c-5.521 0-11.898 1-18 1 0 1.579 2.855 1 4 1 2.469 0 14 1.118 14-2ZM292 285c0 2.109-2.535 2-4 2 0-1.577 1.762-2 3-2h1ZM195 288h1v-1l-1 1Z"/><path fill="#FF9BCD" id="MY" d="M203 287c0 1.714-5.594 1-7 1v-1h7ZM214 287h3c0 1.634-11 1.634-11 0h8ZM243 287h8c0 1.638-12 1.638-12 0h4ZM260 287v1c-1.321 0-6 .684-6-1h6Z"/><path fill="#FF9B88" id="P" d="m260 288 3 1-3-2v1ZM288 287l-4 2c1.465 0 4 .109 4-2ZM195 288l-2 1 2-1Z"/></svg>