<svg xmlns="http://www.w3.org/2000/svg" viewBox="0 0 456 320"><path fill="#FE79FE" id="ICe" d="M153 71c0 1.884-4.863 15.226-6 17.5v9c0 14.805 9.103 24.5 24 24.5l-6-5.5-2-6v-7c-5.545-11.09 3.223-24.446 8-34 1.354-2.707 4.995-4.99 6-7 1.869-3.739 9.863-12.5 14-12.5 0-3.04 2-2.477 2-5-6.737 0-32 6.352-32 15l-1 1-1 1-1 1-1 1v1l-1 1-1 1-1 2-1 2Z"/><path fill="#FE79FF" id="ICd" d="M219 50c0 16.25-2.858 26.216-10 40.5-1.157 2.315-5.862 13.5-9 13.5 0-2.325-7.509-14.518-9-17.5-1.803-3.607.515-25.031 2-28l-2-8.5c0-3.04 2-2.477 2-5h11c0 1.353 4.643 2 6 2h2l2 1 5 2Z"/><path fill="#FF64FF" id="MB" d="M204 45c1.357 0 6 .647 6 2-1.357 0-6-.647-6-2ZM252 45c-1.357 0-6 .647-6 2 1.623 0 6-.005 6-2Z"/><path fill="#FE79FF" id="ICd" d="M237 51c0 17.036 5.042 28.584 12 42.5.95 1.9 5.812 11.5 8 11.5 0-5.73 5.538-12.575 8-17.5 4.747-9.495-5.088-25.825-1-34l2-3.5-3-5h-11c0 1.995-4.377 2-6 2h-2l-2 1h-1l-1 1c-1.238 0-3 .423-3 2Z"/><path fill="#FE79FE" id="ICe" d="M301 67c0 2.827 2.831 4.163 4 6.5 1.995 3.99 1.975 8.95 4 13v10c0 16.467-7.421 25.5-24 25.5l6-4.5 3-11v-6c5.083-10.165-8.867-32.867-16-40-2.678-2.678-8.29-10.5-12-10.5l-3-5c10.901 0 16.475 3.988 24.5 8 1.448.724 6.5 2.767 6.5 5l3 3v1l4 4v1Z"/><path fill="#FF64FF" id="MB" d="m212 47 2 1-2-1ZM244 47l-2 1 2-1ZM241 48l-1 1 1-1Z"/><path fill="#FE7AFE" id="ICc" d="M179 121h2l1-1h1l1-1h1c0-1.439 8.319-8 10-8l2-2c0-1.747.253-2 2-2l1-3c0-2.325-7.509-14.518-9-17.5-1.803-3.607.515-25.031 2-28l-2-8.5c-4.137 0-12.131 8.761-14 12.5-1.005 2.01-4.646 4.293-6 7-4.777 9.554-13.545 22.91-8 34v7l2 6 6 5.5 8-1Z"/><path fill="#FF64FF" id="MB" d="M267 119h4l-14-14c-2.188 0-7.05-9.6-8-11.5-6.958-13.916-12-25.464-12-42.5-2.978 0-6.787 5.073-8 7.5l-.5 4.5-.5-3.5c-1.273-2.545-5.988-9.5-9-9.5 0 16.25-2.858 26.216-10 40.5-1.157 2.315-5.862 13.5-9 13.5l-1 3c2.195 0 2.41-1.91 4-3.5l8-8c3.998-7.995 1.813-19.657 11.5-24.5 2.764-1.382 4.329 2 6 2 1.015 0 6.209-6.082 10.5 2.5 3.454 6.909 3.891 17.891 9.5 23.5 3.372 3.372 18.5 17.279 18.5 20Z"/><path fill="#FE7AFE" id="ICc" d="m277 121 8 1 6-4.5 3-11v-6c5.083-10.165-8.867-32.867-16-40-2.678-2.678-8.29-10.5-12-10.5l-2 3.5c-4.088 8.175 5.747 24.505 1 34-2.462 4.925-8 11.77-8 17.5l14 14h1l1 1h1l1 1h2Z"/><path fill="#FF64FF" id="MB" d="m294 58 3 3-3-3ZM161 60l-1 1 1-1ZM160 61l-1 1 1-1ZM159 62l-1 1 1-1ZM297 62l4 4-4-4ZM158 63l-1 1 1-1ZM157 65l-1 1 1-1ZM156 66l-1 1 1-1ZM155 67l-1 2 1-2ZM307 121c-3.87 0-5.602 7-9 7l-2.5-3c-2.722-1.361-18.5-.829-18.5-4l8 1c16.579 0 24-9.033 24-25.5v-10c-2.025-4.05-2.005-9.01-4-13-1.169-2.337-4-3.673-4-6.5l4 5 3 5.5c1.586 3.172.439 7.877 2 11 .584 1.168 1.254 4.5 3 4.5v10l-1 1v7c-.913 0-2 5.014-2 6-1.712 0-3 2.571-3 4ZM154 69l-1 2 1-2ZM179 121l-8 1c-14.897 0-24-9.695-24-24.5v-9c1.137-2.274 6-15.616 6-17.5l-2 1c0 .608-4.448 16.395-5 17.5l-3 3.5v6l1 8c1.579 0 1 2.855 1 4 0 2.483 2 4.026 2 6l1 1 1 1v1c3.56 0 7.708 9 10 9 0-8.465 20-2.887 20-8Z"/><path fill="#FC8FFF" id="PAG" d="M265 130h2l1-1 1-7.5-2-2.5c0-2.721-15.128-16.628-18.5-20-5.609-5.609-6.046-16.591-9.5-23.5-4.291-8.582-9.485-2.5-10.5-2.5-1.671 0-3.236-3.382-6-2-9.687 4.843-7.502 16.505-11.5 24.5l-8 8c-1.59 1.59-1.805 3.5-4 3.5 0 1.747-.253 2-2 2 0 1.747-.253 2-2 2 0 .934-4.858 8-6 8 0 2.19-3.41 2.68-2 5.5 1.042 2.084 2 2.908 2 5.5h3c0-2.841 13.602-15 16-15 0-9.019 12.143-19.322 19.5-23 3.927-1.964 21.5 18.57 21.5 23 0 2.158 16 10.285 16 15Z"/><path fill="#C9C8C8" id="bic" d="M151 72c-3.824 0-8 16.723-8 21l3-3.5c.552-1.105 5-16.892 5-17.5ZM305 72c4.92 0 8 16.258 8 21-1.746 0-2.416-3.332-3-4.5-1.561-3.123-.414-7.828-2-11l-3-5.5Z"/><path fill="#FDFB8F" id="SIM" fill-rule="evenodd" d="M117 135c0 1.93 1.93 0 0 0m-14 36 2 1 4-7.5c2.894-5.789 1.086-14.172 4-20l3.5-7.5c1.635 0-.358 5.216-.5 5.5l-6 20c-.793 1.587-.141 6.5 2 6.5l4.5-3 6.5-7.5c4.129-8.258 5.862-17.723 10-26l10-13.5c0-1.145-.579-4 1-4v-8l-1-8c-4.166 0-6.364-10-11.5-10-6.804 0-10.719 7.86-15 10-15.349 7.674-21.5 30.313-21.5 48.5v9l6 11.5 2 2v1Z"/><path fill="#FDFB8F" id="SIM" d="M352 171h1l1-1 1-1c0-3.352 4.527-7.554 6-10.5 4.193-8.386-2.395-35.789-6-43-4.531-9.062-17.148-20.824-26.5-25.5-3.397-1.698-13.5 3.09-13.5 8l-1 1-1 1v3l-1 1v9l1 1v5l6 7.5 6 9 8 22 5.5 7.5c1.212.606 5.5 2.24 5.5 4 6.091 0-1.327-20.154-3-23.5-.499-.999-1.567-8.5-1.5-8.5 2.355 0 2.82 8.139 3.5 9.5 2.106 4.212 4.983 24.5 9 24.5Z"/><path fill="#A9A9A8" id="AQ" d="M208 115c1.911 0 4.611-2 7.5-2h30l3.5 2c0-4.43-17.573-24.964-21.5-23-7.357 3.678-19.5 13.981-19.5 23Z"/><path fill="#F0F080" id="CB" d="m315 98-1 1 1-1ZM314 99l-1 1v-1h1ZM313 103l-1 1 1-1ZM144 111h1c0-1.145.579-4-1-4v4Z"/><path fill="#FF64FF" id="MB" d="M199 107c-1.747 0-2 .253-2 2 1.747 0 2-.253 2-2ZM197 109l-2 2c1.747 0 2-.253 2-2ZM185 119h4c1.142 0 6-7.066 6-8-1.681 0-10 6.561-10 8Z"/><path fill="#FDFA91" id="CENT2" d="m235 146 6 1 11.5-4h9l2.5-2c0-3.249 1-7.194 1-11 0-4.715-16-12.842-16-15l-3.5-2h-30c-2.889 0-5.589 2-7.5 2-2.398 0-16 12.159-16 15 0 1.606-2.081 4.339-1 6.5l2 5.5c7.378 0 16.231 5 22 5 2.124 0 4.436-1 6-1 0-1.644 14-1.644 14 0Z"/><path fill="#F0F080" id="CB" d="m312 113 1 1-1-1ZM145 118l-2 1c0-1.145-.579-4 1-4 0 1.048-.473 3 1 3Z"/><path fill="#FCFB90" id="CUL4, 5" fill-rule="evenodd" d="M139 149c0 5.567 2.112 0 0 0m11 19c0 5.107-8.846 14.807-13 6.5-2.214-4.429-3.331-8.338-1-13 .316-.631 4.604-9.5 2.5-9.5l-1.5 4.5c-1.826 3.652-5.196 10.348-9.5 12.5-1.832.916-15.5 3.911-15.5 0l4.5-3 6.5-7.5c4.129-8.258 5.862-17.723 10-26l10-13.5 2-1 2-1 1 1 1 1v1c0 3.609 10 15.336 10 26-1.993 0-1.35 5.2-2 6.5-2.344 4.688-6 8.838-6 14.5l-1 1Z"/><path fill="#FCFB90" id="CUL4, 5" d="m306 167 3 4.5c3.415 6.829 7.621 8.759 12 0 2.078-4.156-.109-10.217-2-14-.132-.264-3.824-6.5-1.5-6.5l1.5 3.5c1.552 3.104 4.097 10.798 7.5 12.5 4.267 2.133 10.208 5.396 15 3 .919-.459 2.5.765 2.5-1 0-1.76-4.288-3.394-5.5-4l-5.5-7.5-8-22-6-9-6-7.5-2-1-1-1c-1.712 0-3 2.571-3 4 0 4.118-5.636 7.772-7 10.5l-2 15.5c2.064 0 .426 3.353 1 4.5 2.265 4.53 7 10.205 7 15.5Z"/><path fill="#F0F080" id="CB" d="m148 118 1 1-1-1ZM313 118v1l-2-1h2Z"/><path fill="#FF64FF" id="MB" d="m184 119-1 1 1-1Z"/><path fill="#FC90FF" id="CUN" d="m189 130-1 1c0 10.422-29 15.379-29-2 0-8.465 20-2.887 20-8h2l1-1h1l1-1h5c0 2.19-3.41 2.68-2 5.5 1.042 2.084 2 2.908 2 5.5ZM268 129v2l3.5 6c9.38 4.69 26.5 6.069 26.5-9l-2.5-3c-2.722-1.361-18.5-.829-18.5-4h-2l-1-1h-1l-1-1h-5l2 2.5-1 7.5Z"/><path fill="#FF64FF" id="MB" d="m272 119 1 1-1-1Z"/><path fill="#F0F080" id="CB" d="M161 153h2c0-4.208 7.481-8.491 10.5-10 1.131-.566 5.5-2.213 5.5-1h1l1-1h1l1-1h2c0-1.186 1-1.186 1 0h2l1 1 2 2h1l1-1-2-5.5c-1.081-2.161 1-4.894 1-6.5h-3l-1 1c0 10.422-29 15.379-29-2-2.292 0-6.44-9-10-9 0 3.609 10 15.336 10 26 0 2.16 2 4.167 2 7Z"/><path fill="#FF64FF" id="MB" d="m182 120-1 1 1-1ZM274 120l1 1-1-1Z"/><path fill="#F0F080" id="CB" d="M298 147c-2.186 0-3 3.863-3 6l-4-4.5c-2.909-2.909-7.018-4.759-10.5-6.5l-3.5-.5 1 1.5h-1l-2-2h-1l-1-1h-1c0-1.399-2-1.399-2 0h-1l-1 1h-1l-1 1-1 1-1-2c0-3.249 1-7.194 1-11h2l1 1 3.5 6c9.38 4.69 26.5 6.069 26.5-9 3.398 0 5.13-7 9-7 0 4.118-5.636 7.772-7 10.5l-2 15.5Z"/><path fill="#FF64FF" id="MB" d="m267 130 1 1v-2l-1 1ZM189 130l-1 1 1-1Z"/><path fill="#CBC9CC" id="arb" d="M117 135c0 1.93 1.93 0 0 0ZM119 203l-2 2c-3.239 0-3.862 2.681-6.5 4-1.066.533-7.431.362-6.5-1.5.795-1.59 7.8-3.65 9.5-4.5 4.346-2.173 6.522-6.544 8.5-10.5.504-1.008.22-4.5-1-4.5 0-6.646-16-7.92-16-16l4-7.5c2.894-5.789 1.086-14.172 4-20l3.5-7.5c1.635 0-.358 5.216-.5 5.5l-6 20c-.793 1.587-.141 6.5 2 6.5 0 3.911 13.668.916 15.5 0 4.304-2.152 7.674-8.848 9.5-12.5l1.5-4.5c2.104 0-2.184 8.869-2.5 9.5-2.331 4.662-1.214 8.571 1 13 4.154 8.307 13-1.393 13-6.5l1-1c1.564 0 9-10.098 9-12h1l2 2c0 3.891-14 12.757-14 20-3.153 0-4.304 5-7 5h-1l-11.5-11c-1.62 0-10.675 2.851-11.5 4.5-2.689 5.378 9 9.216 9 14.5 0 2.833-2 4.84-2 7l-1 1-1 1-1 1-1 1-1 1-1 1ZM336 202c1.658 0 3 1.461 3 3 4.025 0 7.893 6.304 12.5 4 2.3-1.15-7.846-5.423-9-6-5.751-2.876-7.5-9.734-7.5-14 0-8.547 17-8.172 17-18-4.017 0-6.894-20.288-9-24.5-.68-1.361-1.145-9.5-3.5-9.5-.067 0 1.001 7.501 1.5 8.5 1.673 3.346 9.091 23.5 3 23.5 0 1.765-1.581.541-2.5 1-4.792 2.396-10.733-.867-15-3-3.403-1.702-5.948-9.396-7.5-12.5l-1.5-3.5c-2.324 0 1.368 6.236 1.5 6.5 1.891 3.783 4.078 9.844 2 14-4.379 8.759-8.585 6.829-12 0l-3-4.5c-2.709 0-9-8.899-9-11l-2-2v-1l-4-4.5c-2.909-2.909-7.018-4.759-10.5-6.5l-3.5-.5 1 1.5h1l2 1 2 2c4.168 0 7.23 2.96 9 6.5.443.886 4.675 3.413 2.5 4.5l-5.5-4c0 4.409 19 16.227 19 24 1.637 0 7 4.994 7 6h1c0-3.158 3.151-3.651 5-5.5l5.5-6.5c.805-.402 10.908 3.316 11.5 4.5 2.698 5.396-9 10.425-9 15.5l2 6 3 2 1 1v1l1 1Z"/><path fill="#FF9B88" id="P" d="M185 140h1c0-1.186-1-1.186-1 0ZM270 140h2c0-1.399-2-1.399-2 0ZM183 140l-1 1 1-1Z"/><path fill="#FFAD6D" id="PB" d="M152 179h1c3.855 0 6.566-7.033 10.5-9 8.111-4.056 17.553-8.606 21.5-16.5 1.018-2.036 6-2.349 6 .5l3 1 1-1v-3l-1-3v-1l-2-3-1-1-2-2-1-1h-5l-1 1h-1l-1 1-1 1h-1l-1 1-2 1-1 1-1 1-8 8-1 1-1 1c0 3.891-14 12.757-14 20l3 2Z"/><path fill="#FF9B88" id="P" d="m188 140 1 1-1-1ZM269 140l-1 1 1-1Z"/><path fill="#FFAD6D" id="PB" d="M303 179h1l4-2c0-7.773-19-19.591-19-24l-1-1-1-1-4-4-3-3h-1l-1-1h-1l-2-2h-1l-1-1h-4l-1 1h-1l-1 1-1 1v1l-1 1-1 1-1 3-1 2v2c1.452 0 .486 2 4 2 0-2.475 3.065-4.217 5.5-3 2.097 1.048 2.66 7.33 6 9 6.834 3.417 13.034 8.517 20 12 1.436.718 4.069 6 6.5 6Z"/><path fill="#FF9B88" id="P" d="m273 140 1 1-1-1Z"/><path fill="#CBC9CC" id="arb" d="M173 146h1l1-1 1-1 1-1h2v-1c0-1.213-4.369.434-5.5 1-3.019 1.509-10.5 5.792-10.5 10 3.689 0 5.411-7 10-7Z"/><path fill="#FF9B88" id="P" d="m181 141-1 1 1-1Z"/><path fill="#FC8FFF" id="PAG" d="M260 151h1l1-2c-4.234 0-2.421-3 1-3l1-1 1-1v-1l-1-2-2.5 2h-9l-11.5 4-2 2c3.262 0 18-3.821 18 3l3-1Z"/><path fill="#FF9B88" id="P" d="m267 141-1 1 1-1ZM275 141l2 2-2-2ZM180 142l-1 1v-1h1Z"/><path fill="#FC8FFF" id="PAG" d="m196 151 3 1c0-6.821 14.738-3 18-3l-2-2c-5.769 0-14.622-5-22-5l-1 1v1l2 3c0-4.498 5.465 3.983 1.5 2l-1.5-1 1 3h1Z"/><path fill="#FF9B88" id="P" d="m266 142-1 1 1-1Z"/><path fill="#F0F080" id="CB" d="M176 144h1v-1l-1 1Z"/><path fill="#FF9B88" id="P" d="m178 143-1 1v-1h1ZM192 143v1l-1-1h1ZM279 143v1l-1-1h1Z"/><path fill="#F0F080" id="CB" d="M280 144h1l-2-1v1h1Z"/><path fill="#FF9B88" id="P" d="m177 144-2 1 1-1h1ZM265 144l-1 1 1-1ZM283 146v1l-3-3h1l2 2Z"/><path fill="#A9A9A8" id="AQ" d="M221 146h14c0-1.644-14-1.644-14 0Z"/><path fill="#FFFC8E" id="CENT3" d="M160 155c0 1.902-7.436 12-9 12 0-5.662 3.656-9.812 6-14.5.65-1.3.007-6.5 2-6.5 0 2.16 2 4.167 2 7v1l-1 1Z"/><path fill="#CBC7CC" id="sctv" d="m164 156-1 1-2-2 2-2c3.689 0 5.411-7 10-7v1l-8 8-1 1Z"/><path fill="#FF9B88" id="P" d="m174 146-1 1v-1h1Z"/><path fill="#C8C9C8" id="IVn" d="M194 147v1l1.5 1c3.965 1.983-1.5-6.498-1.5-2Z"/><path fill="#AAA9A7" id="V4" d="M227 155h3c1.473 0 4.605-5 7-5l1-1h1l2-2-6-1h-14c-1.564 0-3.876 1-6 1l2 2h1l1 1 8 5Z"/><path fill="#C8C9C8" id="IVn" d="M263 146c-3.421 0-5.234 3-1 3l1-3Z"/><path fill="#CBC7CC" id="sctv" d="m288 152 1 1 5.5 4c2.175-1.087-2.057-3.614-2.5-4.5-1.77-3.54-4.832-6.5-9-6.5v1l4 4 1 1Z"/><path fill="#FFFC8E" id="CENT3" d="M297 156c0 2.101 6.291 11 9 11 0-5.295-4.735-10.97-7-15.5-.574-1.147 1.064-4.5-1-4.5-2.186 0-3 3.863-3 6v1l2 2Z"/><path fill="#FFBA84" id="PCG" fill-rule="evenodd" d="M207 193c0-7.518 9.167-1.833 13.5-4 3.213-1.607 3.805-16.098 8-14 5.876 2.938 1.505 11.253 7 14 4.414 2.207 13.5-3.822 13.5 4 3.416 0 13.09-12.679 15-16.5 1.022-2.044-1.582-12.5-3-12.5l1 8.5c-1.771 3.541-2.673 1.087-5.5 2.5-10.224 5.112-15.135-21.933-11-24 6.05-3.025 9.288 6 13.5 6l-2-5c0-6.821-14.738-3-18-3h-1l-1 1c-2.395 0-5.527 5-7 5 0 4.813-3 5.723-3 0l-8-5-1-1h-1c-3.262 0-18-3.821-18 3l-2 6c2.293 0 7.814-10.343 14.5-7 3.302 1.651.534 8.431-.5 10.5-1.426 2.851-.505 7.01-2 10-1.997 3.994-11.69 6.619-14 2V165c-2.253 0-2 7.512-2 9.5 0 3.874 9.926 18.5 14 18.5m21-25h1c0 16.296 19.634 6.767 16-.5-2.323-4.645-4.186-14.157-11.5-10.5l-4.5 5.5-.5 3.5c-2.23 0-1.029-3.558-1.5-4.5-3.303-6.606-10.705-6.589-14 0-7.736 15.471 15 22.12 15 6.5Z"/><path fill="#CBC9CC" id="arb" d="M139 149c0 5.567 2.112 0 0 0Z"/><path fill="#FC8FFF" id="PAG" d="m218 149 1 1-1-1ZM238 149l-1 1 1-1Z"/><path fill="#FF79FE" id="MEV" d="m196 151-1 2v-2h1Z"/><path fill="#FF9B88" id="P" d="M277 236c-5.173 0-4.803 3-6 3 0-9.662 1.7-42.4-5.5-46-5.681-2.84-18.548 3.774-23 6l-4.5 5c0-9.073-3.019 1-4 1 0-2.153-1.698-5.401-4.5-4l-1 8c-.694 0-.189-7.094-2-8-4.357-2.178-2.617 4-4.5 4 0-3.839-4-7.719-4-2l-5.5-5c-3.782-1.891-16.304-7.348-21-5l-4.5 3.5c-2.577 5.153-1 38.224-1 46.5-2.064 0-.426-3.353-1-4.5-1.709-3.418-3.504-2.5-6-2.5l-6-8c0-7.317-8-5.331-8-7 2.833 0 4.84-2 7-2 0 2.259 4.367 3.067 6.5 2 3.9-1.95 3.977-6.453 5.5-9.5 2.341-4.682-.991-13.5-6-13.5-1.238 0-3 .423-3 2l-4-3c0-1.997 6.822-1.855 5-5.5-5.237-10.475-26.111 6.5-15 6.5l-3 4c-.847 0-5-4.124-5 1-1.763 0-1-8.343-1-10 7.525 0 2-9.51 2-12h3c0 13.546 11.323 3.089 17.5 0 2.099-1.05 7.248-.996 8.5-3.5 1.818-3.635 2-10.205 2-14.5h3c0 2.681-2.592 8.316-1 11.5.803 1.605 3-3.888 3-4.5l1-1v-1l1-1v-3l2-9 1-1v-1l1-2 3 1-2 6v2l-1 1v1c-1.473 0-1 1.952-1 3-2.253 0-2 7.512-2 9.5 0 3.874 9.926 18.5 14 18.5 0 3.135 6.709 3.104 8.5 4a28.973 28.973 0 0 0 26 0c1.637-.819 7.5-1.175 7.5-4 3.416 0 13.09-12.679 15-16.5 1.022-2.044-1.582-12.5-3-12.5v-1l-1-2v-1l-1-1v-2l-2-5 3-1 1 1v1l3 7.5c.662 1.324-1.207 6.5 1 6.5 0 1.664 3.812 7.876 4 7.5 2.023-4.046 0-7.571 0-11.5h2l2 13.5c2.284 4.569 9.781 4.64 13.5 6.5 6.648 3.324 12.5 11.227 12.5-2h3c0 3.147-3.819 12 3 12 0 3.249-1 7.194-1 11-.358 0-5-7.861-5-1l-3-5c9.07 0-5.357-13.072-13.5-9-6.722 3.361 2.5 6.346 2.5 8l-4 4c0-3.371-5.28-4.941-7-1.5-1.205 2.411-2.448 12.104-1 15 2.02 4.041 11 11.118 11 3.5 2.167 0 3.855 3 7 3 0 1.97-8-.858-8 8l-6 7Z"/><path fill="#FEC395" id="LDT" d="M196 162c0 1.048.473 3-1 3v8.5c2.31 4.619 12.003 1.994 14-2 1.495-2.99.574-7.149 2-10 1.034-2.069 3.802-8.849.5-10.5-6.686-3.343-12.207 7-14.5 7v2l-1 1v1ZM261 163v1l1 8.5c-1.771 3.541-2.673 1.087-5.5 2.5-10.224 5.112-15.135-21.933-11-24 6.05-3.025 9.288 6 13.5 6v2l1 1v1l1 2Z"/><path fill="#FF79FE" id="MEV" d="M261 151v1l-1-1h1Z"/><path fill="#FF9B88" id="P" d="m287 151 1 1-1-1Z"/><path fill="#CBC9CB" id="scp" d="M154 181h3c10.276 0 18.941-18 28-18h3l1-1c0-2.885 2-4.697 2-8 0-2.849-4.982-2.536-6-.5-3.947 7.894-13.389 12.444-21.5 16.5-3.934 1.967-6.645 9-10.5 9v1l1 1ZM299 181h3l1-1v-1c-2.431 0-5.064-5.282-6.5-6-6.966-3.483-13.166-8.583-20-12-3.34-1.67-3.903-7.952-6-9-2.435-1.217-5.5.525-5.5 3l2 7 1 1h3c8.334 0 18.069 18 28 18Z"/><path fill="#CBC9CC" id="arb" d="M161 154v1l2-2h-2v1Z"/><path fill="#FF79FE" id="MEV" d="M267 163c-2.641 0-2 1.823-2 4-2.207 0-.338-5.176-1-6.5l-3-7.5c1.452 0 .486 2 4 2l2 7v1Z"/><path fill="#F0F080" id="CB" d="M160 155h1v-1l-1 1Z"/><path fill="#FF79FE" id="MEV" d="m189 163 3 1 2-9-3-1c0 3.303-2 5.115-2 8v1ZM195 154l-1 1 1-1Z"/><path fill="#F0F080" id="CB" d="m295 154 2 2-2-2Z"/><path fill="#CBC9CC" id="arb" d="m165 155-1 1 1-1Z"/><path fill="#FF9B88" id="P" d="M227 155h3c0 4.813-3 5.723-3 0Z"/><path fill="#CBC9CC" id="arb" d="m164 156-1 1 1-1Z"/><path fill="#FEB985" id="DTN" d="M228 168c0 15.62-22.736 8.971-15-6.5 3.295-6.589 10.697-6.606 14 0 .471.942-.73 4.5 1.5 4.5l.5-3.5 4.5-5.5c7.314-3.657 9.177 5.855 11.5 10.5 3.634 7.267-16 16.796-16 .5 0-1.186-1-1.186-1 0Z"/><path fill="#FFBA84" id="PCG" d="m259 159 1 1-1-1ZM197 160l-1 1 1-1ZM260 161l1 2-1-2Z"/><path fill="#FF9B88" id="P" d="M188 163h1v-1l-1 1Z"/><path fill="#FFBA84" id="PCG" d="M196 162c-1.473 0-1 1.952-1 3 1.473 0 1-1.952 1-3Z"/><path fill="#FF9B88" id="P" d="M267 163h1l-1-1v1Z"/><path fill="#FFAD6D" id="PB" d="M185 163c-9.059 0-17.724 18-28 18 0 13.546 11.323 3.089 17.5 0 2.099-1.05 7.248-.996 8.5-3.5 1.818-3.635 2-10.205 2-14.5ZM191 169l-1 1c0 .612-2.197 6.105-3 4.5-1.592-3.184 1-8.819 1-11.5h1l3 1v3l-1 1v1ZM269 163c0 3.929 2.023 7.454 0 11.5-.188.376-4-5.836-4-7.5 0-2.177-.641-4 2-4h2ZM271 163c8.334 0 18.069 18 28 18 0 13.227-5.852 5.324-12.5 2-3.719-1.86-11.216-1.931-13.5-6.5l-2-13.5Z"/><path fill="#FFFC8E" id="CENT3" d="m151 167-1 1 1-1Z"/><path fill="#FF79FE" id="MEV" d="m192 167-1 1 1-1Z"/><path fill="#FF9B88" id="P" d="M228 168h1c0-1.186-1-1.186-1 0Z"/><path fill="#FFFC8D" id="PFL" d="m101 168 2 2-2-2Z"/><path fill="#FF79FE" id="MEV" d="m191 169-1 1 1-1Z"/><path fill="#FFFC8D" id="PFL" d="m355 169-1 1 1-1ZM354 170l-1 1 1-1ZM121 188c0 1.579-2.855 1-4 1-4.103 0-7.02-2-11.5-2-9.044 0-14.778 6-16.5 6-15.059 0-14.586 30.043-26.5 36-9.17 4.585-17.436-13.782-9-18 13.194-6.597 28.52-19.539 35.5-33.5 1.348-2.695 6.368-5.5 9-5.5 1.234 0 5 .643 5-1l2 1c0 8.08 16 9.354 16 16Z"/><path fill="#CCCCCA" id="mcp" d="m132 191-1 1-4-2c0-5.284-11.689-9.122-9-14.5.825-1.649 9.88-4.5 11.5-4.5l11.5 11-9 9ZM329 191l-4 1-9-9c0-3.158 3.151-3.651 5-5.5l5.5-6.5c.805-.402 10.908 3.316 11.5 4.5 2.698 5.396-9 10.425-9 15.5Z"/><path fill="#FFFC8D" id="PFL" d="M335 189c6.299 0 16.36-5.07 22.5-2 2.342 1.171 7.792 6 9.5 6 15.351 0 15.071 29.286 24.5 34 9.528 4.764 18.193-4.115 13.5-13.5-2.137-4.274-8.573-6.537-12.5-8.5-8.71-4.355-21.507-20.514-25.5-28.5-1.499-2.999-6.887-4.5-10-4.5-1.145 0-4 .579-4-1h-1c0 9.828-17 9.453-17 18Z"/><path fill="#FEC294" id="NI" d="M207 193c0 3.135 6.709 3.104 8.5 4a28.973 28.973 0 0 0 26 0c1.637-.819 7.5-1.175 7.5-4 0-7.822-9.086-1.793-13.5-4-5.495-2.747-1.124-11.062-7-14-4.195-2.098-4.787 12.393-8 14-4.333 2.167-13.5-3.518-13.5 4Z"/><path fill="#FEAD6E" id="KF" d="M139 193c1.019 0 6.278-2.389 7.5-3 2.76-1.38 4.158 3 5.5 3 7.525 0 2-9.51 2-12l-1-1-1-1-3-2c-3.153 0-4.304 5-7 5 0 1.186-3.346 5.192-4 6.5l1 4.5ZM305 193c0-6.915 10.589 0 13 0 0-5.521-3-8.525-3-10 0-1.006-5.363-6-7-6l-4 2-1 1-1 1c0 3.147-3.819 12 3 12Z"/><path fill="#FF9B88" id="P" d="M153 179v1l-1-1h1ZM304 179l-1 1v-1h1ZM130 196c1.577 0 2 1.762 2 3 2.162 0 3.798-6 7-6l-1-4.5c.654-1.308 4-5.314 4-6.5h-1l-9 9-1 1-1 4ZM321 213h1c0-2.293.997-2 3-2l2-3c0-2.479-4.919-12 0-12l-2-4-9-9h-1c0 1.475 3 4.479 3 10l6 6.5c2.345 4.691-3 9.442-3 13.5Z"/><path fill="#FEF991" id="FL" d="m107 227-4 4c-6.767 0-25.06-16.379-21-24.5l7-13.5c1.722 0 7.456-6 16.5-6 4.48 0 7.397 2 11.5 2 1.145 0 4 .579 4-1 1.22 0 1.504 3.492 1 4.5-1.978 3.956-4.154 8.327-8.5 10.5-1.7.85-8.705 2.91-9.5 4.5-.931 1.862 5.434 2.033 6.5 1.5 2.638-1.319 3.261-4 6.5-4v3l-1 1-1 2v1l-1 2v1l-1 1v2l-1 1-1 1v1l-1 1-2 4-1 1ZM349 227l4 4c6.332 0 25.606-16.288 22-23.5-1.176-2.351-8-13.059-8-14.5-1.708 0-7.158-4.829-9.5-6-6.14-3.07-16.201 2-22.5 2 0 4.266 1.749 11.124 7.5 14 1.154.577 11.3 4.85 9 6-4.607 2.304-8.475-4-12.5-4v2c1.577 0 2 1.762 2 3v1l2 4c0 3.047 3 4.462 3 7l1 1v1c1.577 0 2 1.762 2 3Z"/><path fill="#FEBA86" id="SUT" d="M171 197c0-1.997 6.822-1.855 5-5.5-5.237-10.475-26.111 6.5-15 6.5l1-1h9ZM295 198h1c9.07 0-5.357-13.072-13.5-9-6.722 3.361 2.5 6.346 2.5 8h9l1 1Z"/><path fill="#F0F080" id="CB" d="m130 196-5 1c0-2.16 2-4.167 2-7l4 2-1 4Z"/><path fill="#FFAE6F" id="PSV" d="M155 257c-1.162 0-3.355 2-8 2l-3-2-1-1-1-1-1-1-1-2-1-1v-2l-1-1v-9l1-1v-3c1.16 0 2-8.505 2-10 0-8.777-9-14.956-9-24v-2c2.162 0 3.798-6 7-6 1.019 0 6.278-2.389 7.5-3 2.76-1.38 4.158 3 5.5 3 0 1.657-.763 10 1 10 0 6.417 1 13.174 1 19 0 1.657-.763 10 1 10v25ZM309 259h1l1-1 1-1 3-3 1-1 1-1v-1l1-2 1-2v-6l-1-1v-2c-1.473 0-1-1.952-1-3v-2c-1.634 0-1.634-11 0-11 0-2.248 1.089-9 4-9 0-4.058 5.345-8.809 3-13.5l-6-6.5c-2.411 0-13-6.915-13 0 0 3.249-1 7.194-1 11l-1 17c0 2.348.161 14-2 14v21c1.431 0 3.1 4 6 4l2-1Z"/><path fill="#F0F080" id="CB" d="m132 191-1 1 1-1ZM327 196l4 1-2-6-4 1 2 4Z"/><path fill="#FDBA86" id="PRNc" d="M198 272h1l1-1h2l1-1 2-1c0-1.702 4.802-6 6-6 0-3.804 12-10.988 12-19v-3l-4-.5c-.92-1.839-4-16.54-4-18.5 0-1.428-3.47-6.015-1.5-7 6.993-3.496 6.273 12 8.5 12l-1-16.5-2-4.5v-1l-1-1v-1l-5.5-5c-3.782-1.891-16.304-7.348-21-5l-4.5 3.5c-2.577 5.153-1 38.224-1 46.5v19c1.473 0 1 1.952 1 3v1l1 1 2 4c1.835 0 4.235 2 7 2l1-1ZM254 271l4 1 5.5 1 3.5-3 2-4 1-3c0-7.516 1-15.901 1-24 0-9.662 1.7-42.4-5.5-46-5.681-2.84-18.548 3.774-23 6l-4.5 5v1l-1 1v1l-1 1c0 4.635-1 9.828-1 15 2.881 0 1.72-10.89 7.5-8 2.325 1.162-1.005 5.509-1.5 6.5-2.26 4.52-.923 19.5-7 19.5l-1 2c0 10.39 18 20.045 18 26 1.238 0 3 .423 3 2Z"/><path fill="#FEA4D2" id="VCO" d="M114 256v1c3.736 0 3.914 4.293 8.5 2 2.063-1.031.659-8 2.5-8v-2c0-5.572-1-11.524-1-16.5 0-1.278-.665-5.5 1-5.5v-2c0-6.431 4-11.334 4-17 0-1.647 1.268-7 3-7v-2c0-1.238-.423-3-2-3l-5 1-1 1-1 1-1 1-1 1v1l-1 1-1 2-1 2-1 1v1l-1 1v1l-1 1v2l-1 1-1 1v2l-1 1-1 1v1l-1 1-2 4v1l-1 1v7l1 4 1 1v1l1 1c0 3.99 3 6.666 3 11 1.473 0 1 1.952 1 3ZM332 255c1.104 0 2.431 6.534 5.5 5 1.403-.701 5.113-5 5.5-5 0-6.191 5-10.602 5-16l1-1 1-7-1-4-2-3v-1l-1-1c0-2.538-3-3.953-3-7l-1-1-1-1v-2l-1-1v-1l-1-1v-1l-2-2v-1c-1.577 0-2-1.762-2-3v-1l-1-1-3-2-4-1c-4.919 0 0 9.521 0 12 1.616 0 2.306 7.111 3 8.5 4.419 8.837 2 24.049 2 34.5v4Z"/><path fill="#FF9B88" id="P" d="m162 197-1 1 1-1Z"/><path fill="#FEB986" id="V" d="M162 221h3c2.833 0 4.84-2 7-2v-1l1-1v-1l1-1 1-5 1-2v-3l-1-2v-3l-4-3h-9l-1 1-3 4c0 2.992.075 17 2 17l2 2ZM291 221h4l2-2c0-5.458 2-10.709 2-16l-3-5h-1l-1-1h-9l-4 4v11.5l3 5.5c2.167 0 3.855 3 7 3Z"/><path fill="#FF9B88" id="P" d="m294 197 1 1-1-1Z"/><path fill="#FF9BCD" id="MY" d="m124 198-1 1 1-1Z"/><path fill="#FEB886" id="P5" d="M172 218v1c0 2.259 4.367 3.067 6.5 2 3.9-1.95 3.977-6.453 5.5-9.5 2.341-4.682-.991-13.5-6-13.5-1.238 0-3 .423-3 2v3l1 2v3l-1 2-1 5-1 1v1l-1 1ZM281 201v11.5l3 5.5c0 7.618-8.98.541-11-3.5-1.448-2.896-.205-12.589 1-15 1.72-3.441 7-1.871 7 1.5Z"/><path fill="#FF9BCD" id="MY" d="m123 199-1 1 1-1Z"/><path fill="#F0F080" id="CB" d="m334 199 1 1-1-1ZM122 200l-1 1 1-1Z"/><path fill="#FEB984" id="I5" d="m159 222-2 1-3-1c0-5.826-1-12.583-1-19 0-5.124 4.153-1 5-1 0 2.992.075 17 2 17l-1 3Z"/><path fill="#CBCBCC" id="mlf" d="M219 206c2.349 0 1.382 3 4 3l-1-4c0-3.839-4-7.719-4-2v1l1 1v1ZM236 208c-.714 0-2 3.336-2 1v-4c.981 0 4-10.073 4-1v1l-1 1v1l-1 1Z"/><path fill="#FEB984" id="I5" d="m297 222 2 1 4-2 1-17c-.358 0-5-7.861-5-1 0 5.291-2 10.542-2 16v3Z"/><path fill="#F0F080" id="CB" d="M120 202h1v-1l-1 1Z"/><path fill="#FF9B88" id="P" d="M134 213c5.498 0 5 18.173 5 22 1.16 0 2-8.505 2-10 0-8.777-9-14.956-9-24-1.732 0-3 5.353-3 7l2 3c2.715 0 3-1.58 3 2Z"/><path fill="#FFC294" id="RPO" d="M223 209c0 8.091 3.257 4 5.5 4l2 2 3.5-6v-4c0-2.153-1.698-5.401-4.5-4l-1 8c-.694 0-.189-7.094-2-8-4.357-2.178-2.617 4-4.5 4l1 4Z"/><path fill="#FF9BCD" id="MY" d="m336 202 1 2c-1.577 0-2-1.762-2-3l1 1Z"/><path fill="#F0F080" id="CB" d="M119 203h1v-1l-1 1Z"/><path fill="#FF9BCD" id="MY" d="m121 202-1 1v-1h1Z"/><path fill="#F0F080" id="CB" d="M339 205v1l-2-1v-1l-1-2c1.658 0 3 1.461 3 3ZM117 207h1l1-2v-2l-2 2v2Z"/><path fill="#FF9BCD" id="MY" d="m120 203-1 2v-2h1Z"/><path fill="#FF9B88" id="P" d="m175 203 1 2-1-2ZM218 204l1 1-1-1Z"/><path fill="#FF9BCD" id="MY" d="m119 205-1 2 1-2Z"/><path fill="#FF9B88" id="P" d="m238 205-1 1 1-1Z"/><path fill="#FF9BCD" id="MY" d="M339 206v1l-2-2 2 1Z"/><path fill="#FF9B88" id="P" d="m233 243-2.5-1-2 4-3-4-2.5 2v-3l-1-14-1-16.5-2-4.5c2.349 0 1.382 3 4 3 0 8.091 3.257 4 5.5 4l2 2 3.5-6c0 2.336 1.286-1 2-1 0 4.635-1 9.828-1 15 0 4.763-2 8.728-2 13 0 1.235-.643 5 1 5l-1 2Z"/><path fill="#FF9BCD" id="MY" d="m118 207-1 1v-1h1Z"/><path fill="#FF9B88" id="P" d="m237 207-1 1 1-1Z"/><path fill="#F0F080" id="CB" d="M340 210h1c0-1.238-.423-3-2-3v1l1 1v1ZM116 209h1v-1l-1 1Z"/><path fill="#FF9BCD" id="MY" d="M131 211c0 1.441-5.159 14-6 14 0-6.431 4-11.334 4-17l2 3Z"/><path fill="#FF9B88" id="P" d="m176 208-1 2 1-2Z"/><path fill="#FF9BCD" id="MY" d="M325 211c0 2.754 4.375 9.251 6 12.5v9c0 2.566-5.63 8.74-4 12l4 4c.459.919-.765 2.5 1 2.5 0-10.451 2.419-25.663-2-34.5-.694-1.389-1.384-8.5-3-8.5l-2 3ZM339 208l1 1-1-1Z"/><path fill="#F0F080" id="CB" d="M115 211h1v-2l-1 2Z"/><path fill="#FF9BCD" id="MY" d="m117 209-1 1v-1h1Z"/><path fill="#C9CACB" id="vVIIIn" d="M125 251c0 1.793-.904 15.202 3.5 13 2.429-1.214 1.411-12 2.5-12 0-13.794 3-25.775 3-39 0-3.58-.285-2-3-2 0 1.441-5.159 14-6 14v2c0 4.605 5.232 15.036 4 17.5l-2 1-2 3.5v2Z"/><path fill="#FF9BCD" id="MY" d="M341 210v1l-1-1h1ZM116 211l-1 1v-1h1Z"/><path fill="#C9CACB" id="vVIIIn" d="M332 251v4c0 1.302-1.031 10.234-3.5 9-2.772-1.386-1.805-13-3.5-13v-20.5c-2.369-4.739-3-11.882-3-17.5 0-2.293.997-2 3-2 0 2.754 4.375 9.251 6 12.5v9c0 2.566-5.63 8.74-4 12l4 4c.459.919-.765 2.5 1 2.5Z"/><path fill="#F0F080" id="CB" d="m342 214 1 1-2-4v2l1 1ZM114 214h1v-2l-1 2Z"/><path fill="#C8CACA" id="sptV" d="m147 259 6 3c0 8.315-8.787 5.357-13.5 3l-6.5-7.5c-.557-1.114-.41-5.5-2-5.5 0-13.794 3-25.775 3-39 5.498 0 5 18.173 5 22v3l-1 1v3c-1.566 0-1.566 5 0 5v1l1 1v2l1 1 1 2 1 1 1 1 1 1 3 2Z"/><path fill="#FF9B88" id="P" d="M321 213c-2.911 0-4 6.752-4 9 1.289 0 4-7.597 4-9Z"/><path fill="#C8CACA" id="sptV" d="m307 260-4 2c0 13.677 22 .403 22-11v-20.5c-2.369-4.739-3-11.882-3-17.5h-1c0 1.403-2.711 9-4 9v13c1.473 0 1 1.952 1 3v2l1 1v6l-1 2-1 2v1l-1 1-1 1-3 3-1 1-1 1h-1l-2 1Z"/><path fill="#FF9BCD" id="MY" d="m341 213 1 1-1-1ZM115 214l-1 1v-1h1Z"/><path fill="#F0F080" id="CB" d="m114 215-1 1 1-1Z"/><path fill="#FF9B88" id="P" d="m174 215-1 1 1-1Z"/><path fill="#C8C8CC" id="tspc" d="M222 227c-2.227 0-1.507-15.496-8.5-12-1.97.985 1.5 5.572 1.5 7 0 1.96 3.08 16.661 4 18.5l4 .5-1-14ZM235 223c2.881 0 1.72-10.89 7.5-8 2.325 1.162-1.005 5.509-1.5 6.5-2.26 4.52-.923 19.5-7 19.5-1.643 0-1-3.765-1-5 0-4.272 2-8.237 2-13Z"/><path fill="#FF9B88" id="P" d="m173 217-1 1 1-1Z"/><path fill="#FF9BCD" id="MY" d="m113 218-1 1 1-1ZM112 219l-1 1 1-1Z"/><path fill="#FF9B88" id="P" d="m162 221-3 1 1-3 2 2ZM295 221l2 1v-3l-2 2Z"/><path fill="#FF9BCD" id="MY" d="m111 221-1 1 1-1Z"/><path fill="#FCB3D9" id="PARN" d="m155 255 1 1c4.09 0 4.427-8 7-8 0-3.948 4-6.604 4-10l1-1 1-1 1-1 3-7c0-7.317-8-5.331-8-7h-3l-3 1-2 1c0 2.526-2 5.577-2 9v23ZM294 249c2.514 0 2.999 7 7 7v-30.5l-2-2.5-2-1-2-1h-4c0 1.97-8-.858-8 8l6 9 2 4 1 1c0 1.974 2 3.517 2 6Z"/><path fill="#FF9B88" id="P" d="m299 223 2 2.5v9.5c2.161 0 2-11.652 2-14l-4 2ZM157 223c0 2.526-2 5.577-2 9-1.763 0-1-8.343-1-10l3 1ZM317 222c-1.634 0-1.634 11 0 11v-11Z"/><path fill="#FF9BCD" id="MY" d="m346 222 1 1-1-1ZM347 224c1.577 0 2 1.762 2 3l-2-3Z"/><path fill="#F0F080" id="CB" d="M107 227h1v-1l-1 1ZM103 231h4v-4l-4 4Z"/><path fill="#FF9BCD" id="MY" d="m108 227-1 1v-1h1ZM125 227c-1.665 0-1 4.222-1 5.5 0 4.976 1 10.928 1 16.5l2-3.5 2-1c1.232-2.464-4-12.895-4-17.5Z"/><path fill="#F0F080" id="CB" d="M350 231h3l-4-4 1 4Z"/><path fill="#FF9BCD" id="MY" d="M179 236c0 .856-9.125 9-10 9 0-2.959 8.442-10 1-10l3-7 6 8Z"/><path fill="#FF9BCD" id="MY" fill-rule="evenodd" d="M278 284c0 2.111 7.389 0 0 0m9-1h1l1-1h2v-1c0-3.138 4.659-5.817 6-8.5v-7c1.864-3.728 5.074 1.148 6 3 1.29 2.579-2 4.232-2 6.5l2.5-2c4.678-2.339-.5 5.32-.5 6 3.269 0 11.343-5.421 14.5-7 4.075-2.037 9.014 5.507 12 7 9.828 4.914 13.5-18.169 13.5-24-.387 0-4.097 4.299-5.5 5-3.069 1.534-4.396-5-5.5-5 0 1.302-1.031 10.234-3.5 9-2.772-1.386-1.805-13-3.5-13 0 11.403-22 24.677-22 11 0-1.974-2-3.517-2-6-4.001 0-4.486-7-7-7 0 3.661-12.481-10.537-11-13.5 1.653-3.306 5.104 2.5 6 2.5l-6-9-6 7c6.257 0 14 15.09 14 20 0 4.156 7.859 8.782 5 14.5l-6 6.5c0 4.719-3.164 4-7 4 0 1.643-3.765 1-5 1h-1l-2 1h-5c0 1.399-2 1.399-2 0h-1l-4-2v-1l-1-1c-6.326 0-11-2.408-11-8v-1l-4 1h-4c-1.041 0-5-.986-5-2h-1c-2.188 0-6-2.771-6-5-1.714 0-1 5.594-1 7l4.5-1c2.964 1.482 5.632 8 .5 8 0 2.849 12.343 3.921 14.5 5 4.747 2.374.972 6-2.5 6h-11c0 1.665 4.222 1 5.5 1l18-1c10.387 0 24.234.383 33-4 2.148-1.074 10.5-2.268 10.5-6l-12.5 5c-.774.387-4.5 2.186-4.5 0-5.345 0-3.139-1 1-1Z"/><path fill="#FF9BCD" id="MY" d="M107 233c-1.399 0-1.399 2 0 2v-2ZM170 235l-1 1 1-1Z"/><path fill="#CCCCC7" id="VIIn" d="M169 245c-1.274 0-6 8.288-6 3 0-3.948 4-6.604 4-10l1-1 1-1 1-1c7.442 0-1 7.041-1 10Z"/><path fill="#FFB2D8" id="IRN" fill-rule="evenodd" d="M181 251c0 8.293 7.519 0 0 0m5 11-1 1c-3.065 0-13.041-7-20-7 0-4.237 4-6.802 4-11 .875 0 10-8.144 10-9 2.496 0 4.291-.918 6 2.5.574 1.147-1.064 4.5 1 4.5v19ZM272 251c0 8.228 7.124 0 0 0m-2 12h1c3.198 0 12.425-7 20-7 0-4.91-7.743-20-14-20-5.173 0-4.803 3-6 3 0 8.099-1 16.484-1 24Z"/><path fill="#CCCCC7" id="VIIn" d="M292 243c0 1.974 2 3.517 2 6 0 3.661-12.481-10.537-11-13.5 1.653-3.306 5.104 2.5 6 2.5l2 4 1 1Z"/><path fill="#FF9B88" id="P" d="M317 235c1.473 0 1 1.952 1 3-1.473 0-1-1.952-1-3Z"/><path fill="#FF9BCD" id="MY" d="m169 236-1 1 1-1ZM168 237l-1 1 1-1Z"/><path fill="#FF9B88" id="P" d="m139 238-1 1 1-1Z"/><path fill="#FF9BCD" id="MY" d="m349 238-1 1 1-1ZM108 239l1 1-1-1Z"/><path fill="#FF9B88" id="P" d="m318 240 1 1-1-1Z"/><path fill="#FF9BCD" id="MY" d="m109 241 1 1-1-1Z"/><path fill="#FF9B88" id="P" d="M138 242c-1.566 0-1.566 5 0 5v-5Z"/><path fill="#FEB0D8" id="GRN" d="m251 270-4 1c0-8.06-10.277-14.946-13-9.5-1.795 3.589 3 5.044 3 7.5-2.188 0-6-2.771-6-5 0-16.839-5-21.04-5-1-1.482 0-1.576 5-5 5l2-3.5c4.348-8.696-11.63-1.5-12-1.5 0-3.804 12-10.988 12-19l2.5-2 3 4 2-4 2.5 1c0 10.39 18 20.045 18 26v1Z"/><path fill="#FF9BCD" id="MY" d="m291 242 1 1-1-1Z"/><path fill="#FF9BCD" id="MY" fill-rule="evenodd" d="M188 283h2c1.238 0 3-.423 3-2l1-2h1c4.445 0 6.884-2.192 10.5-4 1.057-.529.831-4-.5-4l1-1 3 1h4l2-1h1c1.048 0 3 .473 3-1l2-1c3.424 0 3.518-5 5-5l1 12-1 1c0-16.037-13.995 2-4 2 0 1.951-2.454.477-3.5 1-4.197 2.099-8.889 2.944-13 5-4.434 2.217 1.883 5 4 5H221c0 1.773-9.259 1-11 1-7.701 0-28.273.113-34.5-3-3.906-1.953-9.971.015-14-2-7.564-3.782-14.532-9.266-22-13-5.188-2.594-8.588 5.294-12 7-10.352 5.176-13.5-16.032-13.5-22 3.736 0 3.914 4.293 8.5 2 2.063-1.031.659-8 2.5-8 0 1.793-.904 15.202 3.5 13 2.429-1.214 1.411-12 2.5-12 1.59 0 1.443 4.386 2 5.5l6.5 7.5c4.713 2.357 13.5 5.315 13.5-3 1.014 0 2-3.959 2-5l1-1c4.09 0 4.427-8 7-8 0 5.288 4.726-3 6-3 0 4.198-4 6.763-4 11 0 2.489-11.709 20 1 20 0 6.013 9.791 7 15 7h5c0 1.399 2 1.399 2 0m-18 0c1.961 0 9.241 1.63 8.5 2l-7.5-1c0 2.3-4.696.402-5.5 0-2.559-1.279-23.739-10-10.5-10l-2-5.5c.518-1.036 4.574-6.851 6-4 1.257 2.515-.305 6.391 1 9 1.447 2.894 6 4.429 6 7.5v1h1l2 1h1Z"/><path fill="#FF9B88" id="P" d="m319 247-1 2 1-2ZM138 248l1 1-1-1Z"/><path fill="#FFC5E2" id="RM" d="M227 275h3v-4c0-1.406-.714-7 1-7 0-16.839-5-21.04-5-1l1 12Z"/><path fill="#FF9B88" id="P" d="m318 249-1 2 1-2ZM139 251l1 1-1-1Z"/><path fill="#FDB0D9" id="ACVII" d="M181 251c0 8.293 7.519 0 0 0ZM272 251c0 8.228 7.124 0 0 0Z"/><path fill="#FF9B88" id="P" d="m317 252-1 1 1-1Z"/><path fill="#FF9BCD" id="MY" d="M113 253c1.473 0 1 1.952 1 3-1.473 0-1-1.952-1-3Z"/><path fill="#FF9B88" id="P" d="m316 253-1 1 1-1ZM141 254l1 1-1-1ZM156 256l-1 1v-2l1 1ZM143 256l1 1-1-1Z"/><path fill="#FFB3D6" id="VII" d="M183 277h1c0-2.447 1.998-4 6-4v-2l-2-4-1-1v-1l-2-2c-3.065 0-13.041-7-20-7 0 2.489-11.709 20 1 20h1c1.615 0 13-5.414 13 1h3ZM289 277h1l6-6.5c2.859-5.718-5-10.344-5-14.5-7.575 0-16.802 7-20 7 0 1.238-.423 3-2 3l-2 4v3c2.244 0 6 1.725 6 4h3l1.5-2c2.682-1.341 11.5-2.423 11.5 2Z"/><path fill="#FF9B88" id="P" d="m307 260-4 2c0-1.974-2-3.517-2-6 1.431 0 3.1 4 6 4ZM147 259l6 3c1.014 0 2-3.959 2-5-1.162 0-3.355 2-8 2ZM312 257l-1 1 1-1ZM311 258l-1 1 1-1ZM309 259l-2 1 2-1Z"/><path fill="#FDB2D9" id="MARN" d="M209 271h4l2-1h1c0-1.473 1.952-1 3-1l2-1 2-3.5c4.348-8.696-11.63-1.5-12-1.5 0 2.709-2 4.646-2 8ZM243 271h4c0-8.06-10.277-14.946-13-9.5-1.795 3.589 3 5.044 3 7.5h1c1.424 0 5 .362 5 2Z"/><path fill="#FF9B88" id="P" d="m185 263 2 2c0-1.048.473-3-1-3l-1 1Z"/><path fill="#FEB0D8" id="GRN" d="m206 270 3 1c0-3.354 2-5.291 2-8-1.198 0-6 4.298-6 6l1 1Z"/><path fill="#FF9B88" id="P" d="M271 263c0 1.238-.423 3-2 3l1-3h1Z"/><path fill="#C8C8CB" id="rust" d="M165 281h1c0-3.071-4.553-4.606-6-7.5-1.305-2.609.257-6.485-1-9-1.426-2.851-5.482 2.964-6 4l2 5.5c0 3.21 7.52 7 10 7ZM291 281h1c1.738 0 8-3.015 8-5l1-1c0-2.268 3.29-3.921 2-6.5-.926-1.852-4.136-6.728-6-3v7c-1.341 2.683-6 5.362-6 8.5Z"/><path fill="#FF9B88" id="P" d="m187 266 1 1-1-1Z"/><path fill="#FEB0D8" id="GRN" d="m221 268-2 1 2-1Z"/><path fill="#FF9B88" id="P" d="m206 270-1 1-2-1 2-1 1 1Z"/><path fill="#FEB0D8" id="GRN" d="M219 269c-1.048 0-3-.473-3 1 1.048 0 3 .473 3-1Z"/><path fill="#CACCC8" id="ml" d="M223 278h2l1-2c0-16.037-13.995 2-4 2h1Z"/><path fill="#FEB0D8" id="GRN" d="M238 269c1.424 0 5 .362 5 2-1.041 0-5-.986-5-2Z"/><path fill="#FF9B88" id="P" d="M251 271h3c0-1.577-1.762-2-3-2v2ZM203 270l-1 1 1-1Z"/><path fill="#FCB2D8" id="PPY" d="m194 278 1 1c4.445 0 6.884-2.192 10.5-4 1.057-.529.831-4-.5-4l-2-1-1 1h-2l-1 1h-1l-1 1-3 4v1Z"/><path fill="#FEB0D8" id="GRN" d="m215 270-2 1 2-1Z"/><path fill="#CACCC8" id="ml" d="M233 278h2c5.132 0 2.464-6.518-.5-8l-4.5 1v4l1 3h2Z"/><path fill="#FF9B88" id="P" d="m262 279 1 1c0-5.109 4-6.304 4-7v-3l-3.5 3-5.5-1c0 1.536 4 3.454 4 7ZM197 273l-3 4-4-4v-2c1.835 0 4.235 2 7 2ZM200 271l-1 1 1-1Z"/><path fill="#FCB2D8" id="PPY" d="M258 272c0 1.536 4 3.454 4 7-6.326 0-11-2.408-11-8h3l4 1Z"/><path fill="#FF9B88" id="P" d="m198 272-1 1 1-1Z"/><path fill="#CBC7CC" id="sctv" d="m170 283 1 1c0 2.3-4.696.402-5.5 0-2.559-1.279-23.739-10-10.5-10 0 3.21 7.52 7 10 7l1 1h1l2 1h1Z"/><path fill="#FFAD6E" id="SOCm" d="m189 280 4 1 1-2v-2l-4-4c-4.002 0-6 1.553-6 4l2 2h1l1 1h1ZM266 281h1l1-1 1-1h1l1-1 2-1c0-2.275-3.756-4-6-4 0 .696-4 1.891-4 7v1h3Z"/><path fill="#CBC7CC" id="sctv" d="M287 283h1l1-1h2l1-1c1.738 0 8-3.015 8-5l1-1 2.5-2c4.678-2.339-.5 5.32-.5 6l-12.5 5c-.774.387-4.5 2.186-4.5 0l1-1Z"/><path fill="#FEAE6E" id="SOCl" d="m180 279-1 1c-3.022 0-12 1.385-12-4 1.615 0 13-5.414 13 1v2ZM278 280l5 1c0-2.302 6-.584 6-4 0-4.423-8.818-3.341-11.5-2l-1.5 2v2l2 1Z"/><path fill="#FFC6E2" id="RPA" d="M226 283h4l1-4v-1l-1-3h-3l-1 1-1 2v1l1 4Z"/><path fill="#FF9BCD" id="MY" d="m301 275-1 1 1-1Z"/><path fill="#FF9B88" id="P" d="M179 280c0 2.215 2 1.519 2 3-5.209 0-15-.987-15-7h1c0 5.385 8.978 4 12 4ZM182 277l-2 2v-2h2Z"/><path fill="#FEAD6F" id="POR" d="M188 283h2l-1-3h-1l-1-1h-1l-3-2h-1l-2 2-1 1c0 2.215 2 1.519 2 3h7Z"/><path fill="#FF9B88" id="P" d="m184 277 2 2-3-2h1ZM273 277l-2 1 2-1Z"/><path fill="#FEAD6F" id="POR" d="M270 283h5l2-1h1v-2l-2-1-2-2h-1l-2 1-1 1h-1l-1 1-1 1h-1l1 2h3Z"/><path fill="#FF9B88" id="P" d="M276 277v2l-2-2h2ZM290 277c0 4.719-3.164 4-7 4 0-2.302 6-.584 6-4h1ZM194 279h1l-1-1v1Z"/><path fill="#C7C9C9" id="py" d="m223 288-2 1h-11.5c-2.117 0-8.434-2.783-4-5 4.111-2.056 8.803-2.901 13-5 1.046-.523 3.5.951 3.5-1h1l2 1 1 4c-1.077 0-3 3.762-3 5Z"/><path fill="#FF9BCD" id="MY" d="M225 278v1l-2-1h2ZM233 278l-2 1v-1h2Z"/><path fill="#C7C9C9" id="py" d="M235 289h12c3.472 0 7.247-3.626 2.5-6-2.157-1.079-14.5-2.151-14.5-5h-2l-2 1-1 4 5 6Z"/><path fill="#FF9B88" id="P" d="m271 278-1 1 1-1ZM180 279l-1 1 1-1ZM187 279l1 1-1-1ZM194 279l-1 2 1-2ZM269 279l-1 1 1-1ZM193 281c0 1.577-1.762 2-3 2l-1-3 4 1ZM268 280l-1 1 1-1ZM283 281c0 1.643-3.765 1-5 1v-2l5 1Z"/><path fill="#CCC7CB" id="tb" d="M166 281v1l-1-1h1Z"/><path fill="#FF9B88" id="P" d="m266 281 1 2-4-2h3Z"/><path fill="#CCC7CB" id="tb" d="m292 281-1 1v-1h1ZM167 282l2 1-2-1Z"/><path fill="#FF9B88" id="P" d="m277 282-2 1 2-1Z"/><path fill="#CCC7CB" id="tb" d="m289 282-1 1 1-1ZM170 283c1.961 0 9.241 1.63 8.5 2l-7.5-1-1-1Z"/><path fill="#FF9B88" id="P" d="M186 283h2c0 1.399-2 1.399-2 0Z"/><path fill="#FF9BCD" id="MY" d="m223 288 7.5-1 4.5 2-5-6h-4c-1.077 0-3 3.762-3 5Z"/><path fill="#FF9B88" id="P" d="M268 283h2c0 1.399-2 1.399-2 0Z"/><path fill="#CCC7CB" id="tb" d="M287 283c-4.139 0-6.345 1-1 1l1-1ZM278 284c0 2.111 7.389 0 0 0Z"/><path fill="#FF9BCD" id="MY" d="m223 288-2 1 2-1Z"/></svg>