<svg xmlns="http://www.w3.org/2000/svg" viewBox="0 0 456 320"><path fill="#1BA696" id="RSPagl1" d="M194 17c-4.648 0-10.351 2-16 2v-4l16-2v4Z"/><path fill="#1BA598" id="RSPd1" d="M226 29c0 1.577-1.762 2-3 2-1.399 0-5.842-8.671-8.5-10-7.044-3.522-11.862-4-20.5-4v-4c7.671 0 14.197-.152 20.5 3 2.728 1.364 11.071 13 11.5 13ZM230 30l3 1 8.5-10c6.939-3.47 11.993-4 20.5-4l1-4c-13.204 0-23.717.934-30 13.5l-3 3.5Z"/><path fill="#1BA696" id="RSPagl1" d="M278 19h1v-4l-16-2-1 4c4.648 0 10.351 2 16 2Z"/><path fill="#187C64" id="SSp-tr1" d="m120 30 4 4 14.5-6c10.599-5.3 27.008-9 39.5-9v-4c-15.57 0-31.527 3.513-44.5 10-1.96.98-13.5 2.622-13.5 5ZM331 34h1l4-4c0-2.364-10.623-4.062-12.5-5-12.798-6.4-29.182-10-44.5-10v4c13.239 0 28.324 4.412 39.5 10 1.775.887 12.5 3.01 12.5 5Z"/><path fill="#1AA496" id="RSPagl2/3" d="m179 29 1 2c4.857 0 9.232-5 15-5 0-3.222-1-6.277-1-9-4.648 0-10.351 2-16 2 0 2.69 1 6.674 1 10Z"/><path fill="#1BA697" id="RSPd2/3" d="m223 33-6 3c0-11.364-14.912-10-22-10 0-3.222-1-6.277-1-9 8.638 0 13.456.478 20.5 4 2.658 1.329 7.101 10 8.5 10v2ZM233 33c2.72 0 3.553 2 6 2l6.5-8c4.963-2.482 10.576-1 15.5-1h1v-9c-8.507 0-13.561.53-20.5 4L233 31v2Z"/><path fill="#1AA496" id="RSPagl2/3" d="m277 29-1 1c-4.837 0-8.832-4-14-4v-9c4.648 0 10.351 2 16 2l-1 10Z"/><path fill="#188061" id="SSp-tr2/3" d="m133 41 2 1c4.221 0 25.073-7.787 29.5-10 2.041-1.02 14.5-.305 14.5-3 0-3.326-1-7.31-1-10-12.492 0-28.901 3.7-39.5 9L124 34v1c3.939 0 7.495 6 9 6ZM323 41l-2 1c-4.099 0-8.97-3.235-12.5-5-2.585-1.292-28.657-8-31.5-8l1-10h1c13.239 0 28.324 4.412 39.5 10 1.775.887 12.5 3.01 12.5 5l-8 7Z"/><path fill="#1AA596" id="RSPd5" d="M194 39c5.63 0 13-3.047 13 6 3.741 0 5.783-8 10-8v-1c0-11.364-14.912-10-22-10 0 4.569-1 8.923-1 13ZM262 39c-5.49 0-13-2.99-13 6-3.407 0-5.395-9-10-9v-1l6.5-8c4.963-2.482 10.576-1 15.5-1 0 4.277 1 7.413 1 13Z"/><path fill="#1CA697" id="RSPagl5" d="m194 39-11 5c-1.695 0-3-11.29-3-13 4.857 0 9.232-5 15-5 0 4.569-1 8.923-1 13ZM263 39l11 5c0-4.068 2-8.523 2-13v-1c-4.837 0-8.832-4-14-4h-1c0 4.277 1 7.413 1 13h1Z"/><path fill="#1B7E62" id="SSp-tr4" d="M141 46h2c0-1.9 6.118-2.31 7.5-3 4.174-2.087 26.144-12 29.5-12l-1-2c0 2.695-12.459 1.98-14.5 3-4.427 2.213-25.279 10-29.5 10v1l6 3Z"/><path fill="#1BA597" id="RSPv1" d="M229 75h3c0-14.285 1-28.46 1-42v-2l-3-1-1.5 2-2.5-3c0 1.577-1.762 2-3 2v2c1.763 0 1 8.343 1 10v32h3c0-5.32 2-5.498 2 0Z"/><path fill="#1B7E62" id="SSp-tr4" d="M314 46h1c2.9 0 2.7-3 6-3v-1c-4.099 0-8.97-3.235-12.5-5-2.585-1.292-28.657-8-31.5-8l-1 1v1c1.777 0 29.516 10.508 32.5 12l5.5 3Z"/><path fill="#1B8062" id="SSp-un1" d="m124 35-4 1-2-5 2-1 4 4v1ZM332 34c0 1.014 3.959 2 5 2 0-2.25 2-3.376 2-5l-3-1-4 4Z"/><path fill="#188060" id="SSp-bfd1" d="m53 82 4 2 12.5-15 21-18 24-12 5.5-3-2-5c-11.458 0-42.003 24.503-51.5 34C63.876 67.624 53 79.193 53 82Z"/><path fill="#197F60" id="SSp-tr5" d="M154 53h3c0-1.78 6.197-1.348 7.5-2 4.834-2.417 12.964-6 18.5-6v-1c-1.695 0-3-11.29-3-13-3.356 0-25.326 9.913-29.5 12-1.382.69-7.5 1.1-7.5 3 0 4.262 6 .955 6 4 1.087 0 5 2.018 5 3ZM302 53h1l4-3c1.122 0 7-2.632 7-4l-5.5-3c-2.984-1.492-30.723-12-32.5-12 0 4.477-2 8.932-2 13v1c5.088 0 13.014 3.757 17.5 6 1.471.736 7.5-.357 7.5 2h2c0-1.186 1-1.186 1 0Z"/><path fill="#188060" id="SSp-bfd1" d="M399 85h1l3-3c0-6.013-9.422-10.344-12-15.5-5.272-10.543-27.315-23.408-39.5-29.5-3.445-1.722-8.596-6-12.5-6 0 1.624-2 2.75-2 5v1c14.532 0 29.032 17.766 41.5 24l5 6c3.442 1.721 15.5 14.468 15.5 18Z"/><path fill="#1AA597" id="RSPv2/3" d="M221 75h3V43c0-1.657.763-10-1-10l-6 3v1c0 11.988 4 27.129 4 38ZM232 75h4c0-12.967 3-25.404 3-39v-1c-2.447 0-3.28-2-6-2 0 13.54-1 27.715-1 42Z"/><path fill="#1C7F63" id="SSp-un2/3" d="M332 47h1c0-1.55 2.262-10 4-10v-1c-1.041 0-5-.986-5-2h-1l-8 7v2l9 4ZM123 47h1c1.403 0 9-2.71 9-4v-2c-1.505 0-5.061-6-9-6l-4 1c0 4.503 3 6.23 3 11Z"/><path fill="#187F63" id="SSp-bfd2/3" d="M57 85c2.53 0 4.359 7 8 7 1.117 0 9.555-15.528 12.5-17l8-8c8.27-4.135 29.436-20 37.5-20 0-4.77-3-6.497-3-11l-5.5 3-24 12-21 18L57 84v1Z"/><path fill="#1BA498" id="RSPv5" d="M241 73c-1.624 0-2.75 2-5 2 0-12.967 3-25.404 3-39 4.605 0 6.593 9 10 9v1c0 8.18-5 15.44-5 23l-1 1-2 3ZM215 73c2.447 0 3.28 2 6 2 0-10.871-4-26.012-4-38-4.217 0-6.259 8-10 8v2c0 7.105 7 18.987 7 24l1 2Z"/><path fill="#187F63" id="SSp-bfd2/3" d="M399 85c0 .943-6.778 7-8 7 0-3.537-6.399-8.297-8-11.5-6.552-13.105-24.304-21.402-36.5-27.5-3.746-1.873-9.195-6-13.5-6 0-1.55 2.262-10 4-10 14.532 0 29.032 17.766 41.5 24l5 6c3.442 1.721 15.5 14.468 15.5 18Z"/><path fill="#1AA697" id="RSPd6a" d="M200 55h1c0-2.176 4.188-8 6-8v-2c0-9.047-7.37-6-13-6v14c2.518 0 4.286 2 6 2ZM262 53c-2.483 0-4.026 2-6 2l-7-9v-1c0-8.99 7.51-6 13-6h1c0 4.607-1 10.052-1 14Z"/><path fill="#1CA597" id="RSPagl6a" d="m191 55-6 1c0-3.446-2-6.77-2-11v-1l11-5v14l-3 2ZM271 56h1l2-11v-1l-11-5c0 4.607-1 10.052-1 14 2.99 0 5.717 3 9 3Z"/><path fill="#197F61" id="SSp-ul2/3" d="M134 43h1v-1l-2-1v2h1ZM321 43h2v-2l-2 1v1Z"/><path fill="#197E61" id="SSp-un4" d="M135 50c-3.47 0-6.007 4-9 4l-2-7c1.403 0 9-2.71 9-4h1l1 6v1Z"/><path fill="#1A7F63" id="SSp-ul4" d="m141 46-6 3-1-6h1l6 3ZM315 46l6 3 2-6h-2c-3.3 0-3.1 3-6 3Z"/><path fill="#197E61" id="SSp-un4" d="m321 49 10 5c0-3.797 1-4.036 1-7l-9-4-2 6Z"/><path fill="#188063" id="SSp-tr6a" d="M171 60h1l13-4c0-3.446-2-6.77-2-11-5.536 0-13.666 3.583-18.5 6-1.303.652-7.5.22-7.5 2 0 1.914 14 4.992 14 7ZM285 60h1l13-7c0-2.357-6.029-1.264-7.5-2-4.486-2.243-12.412-6-17.5-6l-2 11c0 .672 11.443 4 13 4Z"/><path fill="#187E62" id="SSp-ul5" d="M137 60h1l11-5v-5c0-3.045-6 .262-6-4h-2l-6 3v1l2 10Z"/><path fill="#1AA498" id="RSPv6a" d="m248 66-4 3c0-7.56 5-14.82 5-23l7 9v1c-2.073 0-7 6.148-7 8l-1 2Z"/><path fill="#187E62" id="SSp-ul5" d="m307 55 12 5 2-11-6-3h-1c0 1.368-5.878 4-7 4v5Z"/><path fill="#197C64" id="SSp-bfd4" d="M70 98h1c0-4.405 8.038-6.576 10-10.5 4.604-9.208 26.129-21.814 35.5-26.5 3.077-1.538 5.884-6 9.5-6v-1l-2-7h-1c-8.064 0-29.23 15.865-37.5 20l-8 8C74.555 76.472 66.117 92 65 92v1l5 5Z"/><path fill="#1AA498" id="RSPv6a" d="m209 66 5 5c0-5.013-7-16.895-7-24-1.812 0-6 5.824-6 8 0 3.881 8 6.41 8 11Z"/><path fill="#197C64" id="SSp-bfd4" d="m391 93-5 5-14-14.5c-8.691-8.69-18.006-15.253-28.5-20.5L331 55v-1c0-3.797 1-4.036 1-7h1c4.305 0 9.754 4.127 13.5 6 12.196 6.098 29.948 14.395 36.5 27.5 1.601 3.203 8 7.963 8 11.5v1Z"/><path fill="#197D62" id="SSp-un5" d="m319 60 8 4c0-.558 2.285-9 4-9v-1l-10-5-2 11ZM137 60l-8 4c0-3.364-3-5.812-3-9v-1c2.993 0 5.53-4 9-4l2 10Z"/><path fill="#197C63" id="SSp-ll5" d="M154 53c0 1.638-3.576 2-5 2v-5c1.087 0 5 2.018 5 3ZM303 53l4 2v-5l-4 3ZM301 53h1c0-1.186-1-1.186-1 0Z"/><path fill="#1A7F64" id="SSp-ll6a" d="M171 60c-6.763 0-13.72 7-20 7 0-4.364-2-8.259-2-12 1.424 0 5-.362 5-2h3c0 1.914 14 4.992 14 7Z"/><path fill="#1AA598" id="RSPagl6b" d="M191 55h3v-2l-3 2Z"/><path fill="#1BA698" id="RSPd6b" d="m200 55-1 1c0-2.802-4.107-1-5-1v-2c2.518 0 4.286 2 6 2ZM256 56h1l5-2v-1c-2.483 0-4.026 2-6 2v1Z"/><path fill="#1AA598" id="RSPagl6b" d="M271 56v1c-1.853 0-9-1.318-9-3v-1c2.99 0 5.717 3 9 3Z"/><path fill="#1A7F64" id="SSp-ll6a" d="M286 60c6.355 0 12.996 7 19 7 0-4.246 2-7.473 2-12l-4-2h-4l-13 7Z"/><path fill="#CACCC7" id="cing" d="m214 71 1 2c-5.3 0-18.099-9.3-23.5-12-4.14-2.07-19.148 4-24.5 4l-1 1h-1l-3-1c0-.567 8.99-4 10-4 2.144 0 13-1.88 13-4 1.745 0 6 .698 6-2h3c.893 0 5-1.802 5 1l10 10 5 5ZM243 70l-2 3c3.629 0 19.97-9.735 24.5-12 3.765-1.882 19.178 4 24.5 4l1 1h1l2-1c0-2.227-9-1.773-9-4-2.404 0-14-1.856-14-4-1.853 0-9-1.318-9-3l-5 2-8 8-1 2-4 3-1 1Z"/><path fill="#1A7D62" id="SSp-bfd5" d="M71 98c0 3.912 8 5.332 8 8l10.5-13c8.29-4.145 29.61-28 39.5-28v-1c0-3.364-3-5.812-3-9-3.616 0-6.423 4.462-9.5 6-9.371 4.686-30.896 17.292-35.5 26.5-1.962 3.924-10 6.095-10 10.5Z"/><path fill="#197D61" id="SSp-ul6a" d="m151 67-11 5c0-4.246-2-7.473-2-12l11-5c0 3.741 2 7.636 2 12Z"/><path fill="#1AA598" id="RSPagl6b" d="M185 56v1c1.745 0 6 .698 6-2l-6 1Z"/><path fill="#1AA497" id="RSPv6b" d="m199 56 10 10c0-4.59-8-7.119-8-11h-1l-1 1Z"/><path fill="#197D61" id="SSp-ul6a" d="M316 73h1c0-4.908 2-8.486 2-13l-12-5c0 4.527-2 7.754-2 12 2.166 0 11 3.416 11 6Z"/><path fill="#1A7D62" id="SSp-bfd5" d="M377 107h1c0-2.509 6.198-8 8-8v-1l-14-14.5c-8.691-8.69-18.006-15.253-28.5-20.5L331 55c-1.715 0-4 8.442-4 9l10.5 7c8.893 4.447 26.847 16.194 31.5 25.5 1.426 2.852 8 6.215 8 10.5Z"/><path fill="#1A8063" id="SSp-tr6b" d="M172 60v1c2.144 0 13-1.88 13-4v-1l-13 4Z"/><path fill="#1AA497" id="RSPv6b" d="m257 56-8 8c0-1.852 4.927-8 7-8h1Z"/><path fill="#1A8063" id="SSp-tr6b" d="M285 60v1c-2.404 0-14-1.856-14-4v-1h1c0 .672 11.443 4 13 4Z"/><path fill="#1A7F61" id="SSp-un6a" d="M133 76h1l6-3v-1c0-4.246-2-7.473-2-12h-1l-8 4v1c3.005 0 4 8.551 4 11Z"/><path fill="#197F62" id="SSp-ll6b" d="M151 67v1l11-3c0-.567 8.99-4 10-4v-1h-1c-6.763 0-13.72 7-20 7ZM305 67v1l-11-3c0-2.227-9-1.773-9-4v-1h1c6.355 0 12.996 7 19 7Z"/><path fill="#1A7F61" id="SSp-un6a" d="m317 73 6 3c0-4.488 4-7.967 4-12l-8-4c0 4.514-2 8.092-2 13Z"/><path fill="#C9C7C9" id="ccb" d="m385 166-4 1c0-16.337-15.247-38.747-27-50.5-5.766-5.766-11.866-13.5-20-13.5 0-2.497-12.975-15-15-15 0-2.751-7.021-7.76-9.5-9l-7-6c-9.44-4.72-26.391-11.304-37-6-3.309 1.654-14.5 5.553-14.5 10-1.984 0-6 1.444-6 4h-2c-3.331 0-7.663.582-10.5 2-5.299 2.65-14.164-2-19.5-2-3.939 0-12.445-9.972-16.5-12-12.885-6.442-25.78-3.11-38 3-3.197 1.599-13.5 4.53-13.5 9-1.852 0-8 4.927-8 7-1.757 0-15 13.241-15 15-7.736 0-14.718 8.218-20 13.5-9.975 9.975-27 36.056-27 50.5l-3-1v-3c1.58 0 1-2.855 1-4v-1c1.638 0 2-3.576 2-5 1.565 0 4-8.408 4-10 2.13 0 3.272-6.044 4-7.5 1.746-3.493 17.608-27.5 21-27.5 0 5.658 3-.031 3-3l9-8.5c8.537-8.537 20.988-18.244 31.5-23.5 4.478-2.24 9.455-3.728 14-6 1.046-.523 3.5.951 3.5-1h1l1-1c5.352 0 20.36-6.07 24.5-4 5.401 2.7 18.2 12 23.5 12 2.447 0 3.28 2 6 2h15c2.25 0 3.376-2 5-2 3.629 0 19.97-9.735 24.5-12 3.765-1.882 19.178 4 24.5 4l1 1h1c0 1.233 7.258 2.379 8.5 3 6.143 3.072 11.901 6.95 18 10 8.011 4.005 15.189 14.595 24 19l6.5 6c0 2.686 3 10.043 3 4l10 10.5 7 9 9 18c.988 1.976 2.289 11.5 5 11.5v1c0 1.048-.473 3 1 3v1l1 2v2Z"/><path fill="#1AA497" id="RSPv6b" d="m249 64-1 2 1-2Z"/><path fill="#198060" id="SSp-bfd6a" d="M377 107c-3.754 0-6.338 9-11 9 0-3.956-5.612-7.112-8-9.5-8.075-8.075-16.527-18.513-24.5-22.5-3.411-1.705-6.496-7-10.5-7v-1c0-4.488 4-7.967 4-12l10.5 7c8.893 4.447 26.847 16.194 31.5 25.5 1.426 2.852 8 6.215 8 10.5ZM93 113c-2.93 0-1.084 3-3 3-4.282 0-7.13-9-11-9v-1l10.5-13c8.29-4.145 29.61-28 39.5-28 3.005 0 4 8.551 4 11l-8 7c-2.269 0-14 9.612-14 12-1.747 0-2 .253-2 2-1.747 0-2 .253-2 2-1.747 0-2 .253-2 2-1.747 0-2 .253-2 2-1.763 0-7 4.012-7 6l-1 1c-1.577 0-2 1.762-2 3Z"/><path fill="#C9C9CA" id="scwm" d="M79 139v4c2.13 0 3.272-6.044 4-7.5 1.746-3.493 17.608-27.5 21-27.5l1-1c0-1.747.253-2 2-2l9-8.5c8.537-8.537 20.988-18.244 31.5-23.5 4.478-2.24 9.455-3.728 14-6 1.046-.523 3.5.951 3.5-1l-3-1-11 3-10 5c0 .994-5.757 4-7 4 0 2.15-6.928 6-9 6 0 .297-12.638 12-14 12 0 1.747-.253 2-2 2 0 1.747-.253 2-2 2 0 1.747-.253 2-2 2 0 1.747-.253 2-2 2 0 1.988-5.237 6-7 6l-1 1c0 2.003.293 3-2 3l-2 4c0 2.862-7.3 14.098-9 17.5l-3 4.5ZM167 65l-1 1 1-1Z"/><path fill="#C7C8CC" id="alv" d="M221 88h3c0-1.826-11-3.78-11-7-3.939 0-12.445-9.972-16.5-12-12.885-6.442-25.78-3.11-38 3-3.197 1.599-13.5 4.53-13.5 9h2c0-1.712 2.571-3 4-3 0-3.299 13.081-5.79 15.5-7 19.141-9.57 24.28-.86 40 7 4.089 2.045 9.953 10 14.5 10ZM320 99c-1.847 0-9.825 8-17 8 0-1.845 3.381-1.441 4.5-2 4.391-2.196 9.335-5.17 11.5-9.5 1.667-3.335-5.206-14.5-9-14.5l-4-3c0-2.315-8.754-4.127-10.5-5-7.074-3.537-21.582-9.209-30-5-4.116 2.058-9.822 9-14.5 9 0-4.447 11.191-8.346 14.5-10 10.609-5.304 27.56 1.28 37 6l7 6c2.479 1.24 9.5 6.249 9.5 9l2 3.5-1 7.5Z"/><path fill="#C9C9CA" id="scwm" d="m290 65 1 1-1-1ZM365 117c0 3.817 4.796 6.091 6 8.5 2.917 5.833 12 25.631 12 31.5-2.711 0-4.012-9.524-5-11.5l-9-18-7-9-10-10.5-3-4-6.5-6c-8.811-4.405-15.989-14.995-24-19-6.099-3.05-11.857-6.928-18-10-1.242-.621-8.5-1.767-8.5-3l2-1 11 3 11 6 7 4c0 2.08 11.473 7.987 13.5 9l7 8c3.882 1.94 21.5 18.707 21.5 22Z"/><path fill="#1C8064" id="SSp-ul6b" d="M140 73h1l10-5v-1l-11 5v1Z"/><path fill="#7ECF4B" id="CA1" d="M185 90c11.867 0 21.612 5 34 5 0-1.835 2-4.235 2-7-4.547 0-10.411-7.955-14.5-10-15.72-7.86-20.859-16.57-40-7-2.419 1.21-15.5 3.701-15.5 7 0 2.162 7.926 2.213 9.5 3l19 7c1.114.557 5.5.41 5.5 2ZM272 90c-12.351 0-22.2 5-35 5 0-2.16-2-4.167-2-7l1-1c1.238 0 3-.423 3-2l2-1 1-1c1.238 0 3-.423 3-2 1.417 0 6-2.383 6-4 4.678 0 10.384-6.942 14.5-9 8.418-4.209 22.926 1.463 30 5 1.746.873 10.5 2.685 10.5 5 0 1.454-5.366 1.433-6.5 2-6.032 3.016-12.933 3.967-19 7-1.479.74-8.5.967-8.5 3Z"/><path fill="#1C8064" id="SSp-ul6b" d="M316 73v1l-11-6v-1c2.166 0 11 3.416 11 6Z"/><path fill="#1AA498" id="RSPv6a" d="m244 69-1 1 1-1Z"/><path fill="#1A7D63" id="SSp-un6b" d="M134 76v1c1.243 0 7-3.006 7-4h-1l-6 3ZM323 77v1l-7-4v-1h1l6 3v1Z"/><path fill="#1A7E61" id="SSp-bfd6b" d="M134 77c0 2.15-6.928 6-9 6l8-7h1v1Z"/><path fill="#C7C8CC" id="alv" d="M251 77c-1.984 0-6 1.444-6 4 1.417 0 6-2.383 6-4Z"/><path fill="#1A7E61" id="SSp-bfd6b" d="M365 117h1v-1c0-3.956-5.612-7.112-8-9.5-8.075-8.075-16.527-18.513-24.5-22.5-3.411-1.705-6.496-7-10.5-7v1c0 2.08 11.473 7.987 13.5 9l7 8c3.882 1.94 21.5 18.707 21.5 22Z"/><path fill="#7DCF4B" id="CA2" d="m185 90-6 1c-9.416 0-21.463-10-32-10 0-1.712 2.571-3 4-3 0 2.162 7.926 2.213 9.5 3l19 7c1.114.557 5.5.41 5.5 2ZM272 90l6 1c6.862 0 22.611-10 32-10l-4-3c0 1.454-5.366 1.433-6.5 2-6.032 3.016-12.933 3.967-19 7-1.479.74-8.5.967-8.5 3Z"/><path fill="#C7C8CC" id="alv" d="M180 112h3c0-2.673-12.455-.978-14.5-2-7.728-3.864-17.137-4.068-25-8-15.408-7.704 1.5-16.493 1.5-21-1.852 0-8 4.927-8 7l-2 7.5 2 3.5c0 5.935 24 8.707 24 12 1.49 0 8-.735 8 1h11Z"/><path fill="#7ECF49" id="CA3" d="M186 112h11c0-1.349 3-3.085 3-6l-16-5c-10.342 0-5-8.905-5-10-9.416 0-21.463-10-32-10h-2c0 4.507-16.908 13.296-1.5 21 7.863 3.932 17.272 4.136 25 8 2.045 1.022 14.5-.673 14.5 2h3Z"/><path fill="#C9CCC9" id="dhc" d="M231 88h1c0-1.58 2.855-1 4-1 0-1.577 1.762-2 3-2l2-1 1-1 1-2c-3.331 0-7.663.582-10.5 2-5.299 2.65-14.164-2-19.5-2 0 3.22 11 5.174 11 7h1c0-1.587 6-1.587 6 0Z"/><path fill="#C7C8CC" id="alv" d="M245 81c0 1.577-1.762 2-3 2l1-2h2Z"/><path fill="#7ECF49" id="CA3" d="M272 112h2c0-.759 5.671-2 6.5-2 7.931 0 13.91-3 21.5-3h1c0-1.845 3.381-1.441 4.5-2 4.391-2.196 9.335-5.17 11.5-9.5 1.667-3.335-5.206-14.5-9-14.5-9.389 0-25.138 10-32 10 0 4.373 1.374 10-6 10l-15 5c0 2.043 2 3.957 2 6h13Z"/><path fill="#1A7E62" id="SSs1" d="m27 156 6 1c0-18.639 7.206-41.911 15-57.5L57 85v-1l-4-2c-1.632 0-8.939 14.377-10 16.5-8.645 17.289-16 36.819-16 57.5ZM429 156l-6 1c0-19.713-5.807-39.114-14-55.5L400 85l3-3c3.339 0 8.72 12.94 10 15.5 8.955 17.909 16 36.968 16 58.5Z"/><path fill="#1A7E61" id="SSp-bfd6b" d="M125 83c-2.269 0-14 9.612-14 12 1.362 0 14-11.703 14-12Z"/><path fill="#C7C8CC" id="alv" d="m242 83-1 1 1-1ZM241 84l-2 1 2-1Z"/><path fill="#1B8063" id="SSs2/3" d="M33 157c3.235 0 4.55 2 8 2 0-13.974 9.962-39.423 16-51.5 1.189-2.378 8-12.768 8-14.5v-1c-3.641 0-5.47-7-8-7l-9 14.5c-7.794 15.589-15 38.861-15 57.5Z"/><path fill="#C7C8CC" id="alv" d="M239 85c-1.238 0-3 .423-3 2 1.238 0 3-.423 3-2Z"/><path fill="#1B8063" id="SSs2/3" d="M423 157c-2.885 0-4.697 2-8 2 0-17.69-8.577-35.654-16-50.5-1.014-2.028-6.571-15.5-8-15.5v-1c1.222 0 8-6.057 8-7h1l9 16.5c8.193 16.386 14 35.787 14 55.5Z"/><path fill="#C7C8CC" id="alv" d="M232 88h3l1-1c-1.145 0-4-.58-4 1Z"/><path fill="#A8AAAA" id="VL" d="M128 125h1c0-6.449 5.326-10.152 8-15.5.715-1.43-.722-5.5-2-5.5 0 3.778-.465 5.431-2 8.5-.443.886-3.143 3.715-4 2l1-10-2-4 2.5-2.5 4.5 3 2-2-2-3.5 2-7.5c-1.757 0-15 13.241-15 15 6.925 0 6 17.067 6 22Z"/><path fill="#7DCD4B" id="HPF" d="M219 95c2.409 0 5.181 1 7 1 0-1.606 2.081-4.338 1-6.5l-2-1.5h-4c0 2.765-2 5.165-2 7ZM237 95c-1.321 0-6-.684-6 1-1.527 0-2.786-4.928-2-6.5l2-1.5h4c0 2.833 2 4.84 2 7Z"/><path fill="#A8AAAA" id="VL" d="M321 105c-1.251 0-1.536 4.427-1 5.5 1.686 3.372 4.115 6.231 6 10l2 3.5 2-18.5 4-2.5c0-2.497-12.975-15-15-15l2 3.5-1 7.5 2 2c1.465 0 1.711-4.394 4.5-3 1.48.74 1.711 24.922-3.5 14.5l-1-3c-.859-1.718-1-2.387-1-4.5Z"/><path fill="#7BD04A" id="DG-mo" d="M199 123h4l5-1 1-1h1c0-1.523 5.842-6 7-6l1-2 3-3v-2l1-1 1-2v-1l1-1 1-2v-1l1-2v-2c-1.819 0-4.591-1-7-1-12.388 0-22.133-5-34-5l-6 1c0 1.095-5.342 10 5 10 0-1.665 4.222-1 5.5-1 4.918 0 9.172 3 14.5 3 5.496 0 8.021-2.76 12.5-5l3.5-.5c1.906 3.813-4.015 8.029-5 10-4.063 8.126-12.204 11.648-20.5 7.5-1.397-.699-8.5-1.242-8.5-3h-1c0 1.481-2 .785-2 3l1 1c2.849 0 5.459 5 9 5l3 2h3ZM260 123h1l1-1h1l1-1c1.559 0 9-4.297 9-6l1-1-2-2h-1c0 1.454-5.366 1.433-6.5 2-10.322 5.161-13.817 3.183-22.5-5.5-1.643-1.643-7.194-7.613-6-10 1.094-2.189 12.646 4.5 17 4.5 5.054 0 9.261-3 14-3 1.235 0 5-.643 5 1 7.374 0 6-5.627 6-10l-6-1c-12.351 0-22.2 5-35 5-1.321 0-6-.684-6 1v4l2 3 2 6 13 13h1l1 1h10Z"/><path fill="#187C63" id="SSs4" d="M46 159h1c0-13.804 6.114-31.728 12-43.5L70 98l-5-5c0 1.732-6.811 12.122-8 14.5-6.038 12.077-16 37.526-16 51.5h5ZM410 159h5c0-17.69-8.577-35.654-16-50.5-1.014-2.028-6.571-15.5-8-15.5l-5 5v1c2.68 0 7.642 10.785 9 13.5 3.786 7.572 6.262 15.524 10 23 1.841 3.682.181 9.362 2 13l3 10.5Z"/><path fill="#1A7E61" id="SSp-bfd6b" d="M111 95c-1.747 0-2 .253-2 2 1.747 0 2-.253 2-2Z"/><path fill="#A8A9AA" id="V3" d="M235 113h1l-1-4-2-6c-1.577 0-2-1.762-2-3v-1l-2.5-3-2.5 2-1 2v1l-1 2v1l4.5 4 3-4c2.107 0 3.5 7.492 3.5 9Z"/><path fill="#1A7E61" id="SSp-bfd6b" d="M109 97c-1.747 0-2 .253-2 2 1.747 0 2-.253 2-2Z"/><path fill="#65A83D" id="DG-sg" d="M186 112h11c0 1.22 3.492 1.504 4.5 1l8.5-6.5c.666-1.332-7.831-.5-10-.5l-16-5c0-1.665 4.222-1 5.5-1 4.918 0 9.172 3 14.5 3 5.496 0 8.021-2.76 12.5-5l3.5-.5c1.906 3.813-4.015 8.029-5 10-4.063 8.126-12.204 11.648-20.5 7.5-1.397-.699-8.5-1.242-8.5-3ZM259 112h12c0 1.454-5.366 1.433-6.5 2-10.322 5.161-13.817 3.183-22.5-5.5-1.643-1.643-7.194-7.613-6-10 1.094-2.189 12.646 4.5 17 4.5 5.054 0 9.261-3 14-3 1.235 0 5-.643 5 1l-15 5-11-.5 8.5 7.5c1.008.504 4.5.22 4.5-1Z"/><path fill="#1C8063" id="SSs5" d="M47 159c3.548 0 7.721 3 12 3 0-7.174 6.835-31.171 10-37.5 1.568-3.136 10-15.022 10-17.5v-1c0-2.668-8-4.088-8-8h-1l-11 17.5c-5.886 11.772-12 29.696-12 43.5Z"/><path fill="#A9AAA8" id="chpl" d="m135 101-4.5-3-2.5 2.5 2 4-1 10c.857 1.715 3.557-1.114 4-2 1.535-3.069 2-4.722 2-8.5v-3ZM322 101c1.465 0 1.711-4.394 4.5-3 1.48.74 1.711 24.922-3.5 14.5l-1-3c-.859-1.718-1-2.387-1-4.5l1-4Z"/><path fill="#1A7E61" id="SSp-bfd6b" d="M107 99c-1.747 0-2 .253-2 2 1.747 0 2-.253 2-2Z"/><path fill="#CBC8CB" id="fi" d="M129 130c1.863 0 5.792 3 10 3 0-3.835 15.032-19 20-19l2-3c0-3.293-24-6.065-24-12l-2 2v3c1.278 0 2.715 4.07 2 5.5-2.674 5.348-8 9.051-8 15.5v5ZM327 130c0 2.54-6.843 3-9 3l-3-2.5c-2.274-4.548-7.136-12.818-12.5-15.5-1.637-.819-7.5-1.175-7.5-4 0-3.684 7-1.768 7-4h1c7.175 0 15.153-8 17-8l2 2-1 4c-1.251 0-1.536 4.427-1 5.5 1.686 3.372 4.115 6.231 6 10l2 3.5v3l-1 3Z"/><path fill="#1C8063" id="SSs5" d="m410 159-13 4c0-10.518-5.513-30.526-10-39.5-2.252-4.503-9-11.433-9-16.5 0-2.509 6.198-8 8-8 2.68 0 7.642 10.785 9 13.5 3.786 7.572 6.262 15.524 10 23 1.841 3.682.181 9.362 2 13l3 10.5Z"/><path fill="#1A7E61" id="SSp-bfd6b" d="M105 101c-1.747 0-2 .253-2 2 1.747 0 2-.253 2-2ZM103 103c-1.763 0-7 4.012-7 6 1.763 0 7-4.012 7-6Z"/><path fill="#98D5F9" id="CP" d="m85 206 6 2c3.748 0 17.301.898 19-2.5l-1-16.5c0-4.891-.235-28 4-28 0-3.034-1.782-4.065-3-6.5-1.506-3.011 1.579-22.539 3.5-23.5 2.93-1.465 3.619 0 6.5 0 2.765 0 5.165-2 7-2l1-4c0-4.933.925-22-6-22-7.736 0-14.718 8.218-20 13.5-9.975 9.975-27 36.056-27 50.5 0 5.906-.302 18.895 2 23.5l5 12.5 1 1v1l2 1ZM371 206l-6 2c-20.602 0-18 .676-18-18 1.473 0 1-1.952 1-3 0-6.345.634-13.232-2-18.5-.65-1.3-.007-6.5-2-6.5 0-4.103.959-5.418 3-9.5 1.676-3.352-1.608-20.054-4.5-21.5-2.702-1.351-3.115 0-5.5 0-3.138 0-5.662-2-8-2l-1-2v-3l2-18.5 4-2.5c8.134 0 14.234 7.734 20 13.5 11.753 11.753 27 34.163 27 50.5 0 7.701 1.237 19.027-2 25.5l-5 11.5-1 1-2 1Z"/><path fill="#A8A9AA" id="V3" d="m224 104-1 1v-1h1Z"/><path fill="#A9AAA8" id="chpl" d="M225 125c1.031 0 3.289 2 6 2 0-4.366 3-7.381 3-11l1-2v-1c0-1.508-1.393-9-3.5-9l-3 4-4.5-4-1 1v2l-1 1c0 3.222 1 6.277 1 9 0 2.885 2 4.697 2 8Z"/><path fill="#CBC9C7" id="or" d="m349 104 3 4c0 6.043-3-1.314-3-4ZM105 107l-1 1c0 5.658 3-.031 3-3-1.747 0-2 .253-2 2Z"/><path fill="#7ECE4A" id="DG-po" d="M200 106c2.169 0 10.666-.832 10 .5l-8.5 6.5c-1.008.504-4.5.22-4.5-1 0-1.349 3-3.085 3-6ZM257 106l-11-.5 8.5 7.5c1.008.504 4.5.22 4.5-1 0-2.043-2-3.957-2-6Z"/><path fill="#197D63" id="SSs6a" d="m71 163-1 2-11-3c0-7.174 6.835-31.171 10-37.5 1.568-3.136 10-15.022 10-17.5 3.87 0 6.718 9 11 9v1c0 5.323-11 13.919-11 22-2.063 0-4 8.058-4 10-1.995 0-2 4.377-2 6-2.488 0-2 6.101-2 8Z"/><path fill="#C9C7C9" id="ccb" d="m105 107-1 1 1-1Z"/><path fill="#A8A9AA" id="V3" d="m223 107-1 1v-1h1Z"/><path fill="#C7C8CC" id="alv" d="M282 112h6c0-1.714 5.594-1 7-1 0-3.684 7-1.768 7-4-7.59 0-13.569 3-21.5 3-.829 0-6.5 1.241-6.5 2h8Z"/><path fill="#197D63" id="SSs6a" d="M397 163c-3.978 0-7.549 2-11 2 0-12.705-7.618-26.737-13-37.5l-7-10.5v-1c4.662 0 7.246-9 11-9h1c0 5.067 6.748 11.997 9 16.5 4.487 8.974 10 28.982 10 39.5Z"/><path fill="#A8A9AA" id="V3" d="m221 113 2 4c0-2.723-1-5.778-1-9h-1v5Z"/><path fill="#1A7E61" id="SSp-bfd6b" d="m96 109-1 1 1-1ZM95 110c-1.577 0-2 1.762-2 3 2.293 0 2-.997 2-3Z"/><path fill="#FF909D" id="LD" d="M161 140c7.435 0 12.599 8 21 8 2.479 0 10.652-22 13-22v-3h-1l-1-1v-1c-3.541 0-6.151-5-9-5l-1-1h-1c-.698 0-7-2.714-7-3h-6l-10 2c0 2.908-11 5.019-11 10l-1 1v1l-1 1c0 2.25 2 3.376 2 5l3 2 2 1c1.717 0 8 3.453 8 5Z"/><path fill="#7DCD4B" id="HPF" d="M182 115h1c0-2.215 2-1.519 2-3h-5l2 3ZM274 114h1l1-2h-4l2 2Z"/><path fill="#FF909D" id="LD" d="M295 140c-6.961 0-12.063 8-20 8-3.41 0-11.019-22-14-22v-3h1l1-1 1-1c1.559 0 9-4.297 9-6h1l1-1c.969 0 7-1.147 7-2h6c5.466 0 21 5.659 21 13 0 1.564 1 3.876 1 6l-1 1c-2.061 0-4 .902-4 3h-2c-2.83 0-4.54 4-7 4l-1 1Z"/><path fill="#1A7E61" id="SSp-bfd6b" d="M90 117h1l2-4c-2.93 0-1.084 3-3 3v1Z"/><path fill="#FF8D9F" id="MH" d="m220 133 1 1 3-2 1-7c0-3.303-2-5.115-2-8l-2-4h-3l-1 2-4 8c0 1.862 4.777 10 7 10ZM237 133l-2 1-2-1-2-6c0-4.366 3-7.381 3-11l1-2v-1h1c2.42 0 8 7.546 8 10 0 1.386-5.764 10-7 10Z"/><path fill="#A8A9AA" id="V3" d="m235 114-1 2 1-2Z"/><path fill="#7DCD4B" id="HPF" d="M273 115h1v-1l-1 1Z"/><path fill="#1A8061" id="SSs6b" d="M91 117c0 2.862-7.3 14.098-9 17.5l-3 4.5c0-8.081 11-16.677 11-22h1ZM385 165h1c0-12.705-7.618-26.737-13-37.5l-7-10.5h-1c0 3.817 4.796 6.091 6 8.5 2.917 5.833 12 25.631 12 31.5v1c1.473 0 1 1.952 1 3v1l1 2v1Z"/><path fill="#C8CCC7" id="hbc" d="m211 123-1 1-1-1v-2h1l1 2Z"/><path fill="#FE909D" id="LP" d="m193 122 1 1-1-1Z"/><path fill="#CCC9C8" id="sm" d="M199 126c0 1.647 1.268 7 3 7l8-9-1-1-1-1-5 1-1 1-3 2Z"/><path fill="#C8CCC7" id="hbc" d="m245 123 1 1 2-2c-1.048 0-3-.473-3 1Z"/><path fill="#CCC9C8" id="sm" d="M257 126c0 2.833-2 4.84-2 7-1.167 0-9-7.086-9-9l2-2h1l1 1h3l1 1h1l2 2Z"/><path fill="#FE909D" id="LP" d="m263 122-1 1v-1h1ZM196 124l-1 2v-3h1v1Z"/><path fill="#FF6F80" id="TH" d="m202 124-3 2c0-2.293-.997-2-3-2v-1h3c0 1.473 1.952 1 3 1Z"/><path fill="#FF8F9D" id="LH" d="M218 137h1l1-4c-2.223 0-7-8.138-7-10h-2l-1 1-8 9v2c0 7.497 13.704 2 16 2ZM255 135l-5.5 4c-3.775 1.888-8.247-2-11.5-2l-1-4c1.236 0 7-8.614 7-10h1l1 1c0 1.914 7.833 9 9 9v2Z"/><path fill="#FF6F80" id="TH" d="M254 123v1l-1-1h1ZM260 124c-1.238 0-3 .423-3 2l-2-2 2-1h3v1Z"/><path fill="#FE909D" id="LP" d="m260 124 1 1v-2h-1v1Z"/><path fill="#FF6F80" id="TH" d="m148 124-1 1 1-1Z"/><path fill="#FD8F9D" id="CL" d="M187 161h8c0-5.692-3.267-26 7-26v-2c-1.732 0-3-5.353-3-7 0-2.293-.997-2-3-2l-1 2c0 6.353-5.324 12.148-8 17.5-.713 1.426-1.764 6.5-4 6.5 0 3.423 2 6.474 2 9l2 2ZM262 161h8l2-2c0-2.978 1-6.49 1-10l-4-4.5c-2.323-4.646-8-13.253-8-18.5v-1l-1-1c-1.238 0-3 .423-3 2 0 2.833-2 4.84-2 7v2c8.903 0 7 21.287 7 26Z"/><path fill="#A8A9AA" id="V3" d="M224 132c0 4.815 7.278 1 9 1l-2-6c-2.711 0-4.969-2-6-2l-1 7Z"/><path fill="#FF6F80" id="TH" d="m310 131 4 2c0-1.347-3.438-8-5-8 0 1.564 1 3.876 1 6ZM147 126l-1 1 1-1Z"/><path fill="#FE909D" id="LP" d="m182 148 1 2c2.236 0 3.287-5.074 4-6.5 2.676-5.352 8-11.147 8-17.5-2.348 0-10.521 22-13 22ZM275 148l-2 1-4-4.5c-2.323-4.646-8-13.253-8-18.5 2.981 0 10.59 22 14 22Z"/><path fill="#FF6F80" id="TH" d="M143 132h5c0-1.624-2-2.75-2-5l-3 5Z"/><path fill="#97D6F9" id="STR" d="M120 131v3c1.6 0 7 .084 7-4v-1c-1.835 0-4.235 2-7 2ZM337 131v3c-7.773 0-5.5-4-8-4v-1c2.338 0 4.862 2 8 2Z"/><path fill="#CCC" fill-rule="evenodd" d="M113 136c0 4.371.565 7.033 4.5 9l8.5-.5c0-.446-7.102-2.102-8-3l-5-5.5m50 80h2c0-.852-7.49-9.995-1.5-7l2.5 2v-1l-1-2-3-3-7.5-6c-10.975-5.487-24.039-23.578-29.5-34.5-2.847-5.694.926-19.5 8-19.5 0-1.454-5.366-1.433-6.5-2-2.762-1.381-6.5-6.2-6.5-9v-3c-2.881 0-3.57-1.465-6.5 0-1.921.961-5.006 20.489-3.5 23.5 1.218 2.435 3 3.466 3 6.5l6 5.5c2.374 4.749 5 12.984 5 18.5 3.456 0 4.111 6.306 7.5 8 4.235 2.117 31.5 17.384 31.5 23Z"/><path fill="#CAC7CB" id="fiber tracts" fill-rule="evenodd" d="M126 133c0 1.791-3.27 2.959-2 5.5 2.818 5.637 18.703.601 6.5-5.5H126m15 2c0 3.067-4.677 10-8 10 0-1.454-5.366-1.433-6.5-2-2.762-1.381-6.5-6.2-6.5-9 1.6 0 7 .084 7-4h2c1.863 0 5.792 3 10 3l2 2ZM331 141c0 3.153-7 1.753-7 4-4.084 0-9-7.472-9-11l3-1c2.157 0 9-.46 9-3h2c2.5 0 .227 4 8 4 0 1.6-4.129 7-6 7m0 0 2-4.5c0-7.022-19.594-2.047-8.5 3.5l1.5 1h5Z"/><path fill="#CCC" fill-rule="evenodd" d="M343 136c0 3.261-7.391 6.946-9.5 8l-3.5.5 4 .5c3.273 0 7.295-.09 9-3.5.468-.935 1.9-5.5 0-5.5m-53 75c4.864 0 4-3.069 4 3l9.5-9c6.312-3.156 13.368-7.184 19-10 2.539-1.27 9.5-12.188 9.5-8 2.261 0 .297-6.094 1-7.5 2.465-4.93 3.375-17.5 11-17.5 0-4.103.959-5.418 3-9.5 1.676-3.352-1.608-20.054-4.5-21.5-2.702-1.351-3.115 0-5.5 0v3c0 1.6-4.129 7-6 7 0 3.153-7 1.753-7 4 0 3.963 12.395 6.709 9 13.5-6.525 13.05-14.86 32.18-29.5 39.5l-9.5 7-1 1-1 1-2 3v1Z"/><path fill="#FD8F9F" id="RT" d="m167 205-2 1-3-1-7.5-6c-10.975-5.487-24.039-23.578-29.5-34.5-2.847-5.694.926-19.5 8-19.5 3.323 0 8-6.933 8-10l2-3h5l3 2 1 2c0 2.025-1.233 7-4 7-1.238 0-3 .423-3 2-1.238 0-3 .423-3 2l-1 1-1 1-1 1c-2.109 0-2 2.535-2 4-2.354 0-2.044 12.412-1 14.5 3.252 6.504 15.293 30.5 25 30.5l4 3 2 3Z"/><path fill="#FF6F80" id="TH" d="m310 131-1 1 1-1Z"/><path fill="#FD8F9F" id="RT" d="M291 206h2l1-1 9.5-7c14.64-7.32 22.975-26.45 29.5-39.5 3.395-6.791-9-9.537-9-13.5-4.084 0-9-7.472-9-11l-1-1-4-2-1 1c-2.061 0-4 .902-4 3v2c0 2.883.409 6 4 6 11.159 0 14.091 20.318 10 28.5-.819 1.637-1.175 7.5-4 7.5l-1 2-1 1c0 1.238-.423 3-2 3 0 1.747-.253 2-2 2 0 1.747-.253 2-2 2 0 1.747-.253 2-2 2 0 1.747-.253 2-2 2l-2 2c0 1.577-1.762 2-3 2l-1 1-2 1-3 2-1 1-1 3 1 1Z"/><path fill="#FE8F9E" id="PVT" d="M224 146h9c0-3.867 5-5.965 5-9l-3-3-2-1c-1.722 0-9 3.815-9-1l-3 2c0 1.238-.423 3-2 3h-1c0 2.38 6 5.433 6 9Z"/><path fill="#C8CBC7" id="st" d="M126 133c0 1.791-3.27 2.959-2 5.5 2.818 5.637 18.703.601 6.5-5.5H126Z"/><path fill="#C7CAC9" id="fr" d="M221 134c0 1.238-.423 3-2 3l1-4 1 1ZM235 134l3 3-1-4-2 1Z"/><path fill="#C8CBC7" id="st" d="m331 141 2-4.5c0-7.022-19.594-2.047-8.5 3.5l1.5 1h5Z"/><path fill="#FF6F80" id="TH" d="m153 135-1 1-1-2 2 1Z"/><path fill="#FD8084" id="VPL" d="M166 189c0 4.314-4.025 7-8 7-3.317 0-5.563-6.032-7.5-7-11.605-5.803-13.5-22.017-13.5-35l2-4 1-1 1-1 1-1c1.238 0 3-.423 3-2 1.238 0 3-.423 3-2 2.767 0 4-4.975 4-7l1-1c1.717 0 8 3.453 8 5 0 5.01-5 9.547-5 10-27.089 0-.807 39 10 39Z"/><path fill="#FD909D" id="MD" d="M222 171c-1.45 0-7 3.126-7 5-5.636 0-20-8.689-20-15 0-5.692-3.267-26 7-26 0 7.497 13.704 2 16 2 0 2.38 6 5.433 6 9v18.5l-2 6.5ZM235 171l7 5c6.777 0 19.954-15 20-15 0-4.713 1.903-26-7-26l-5.5 4c-3.775 1.888-8.247-2-11.5-2 0 3.035-5 5.133-5 9 0 4.088-3.218 13.065-1 17.5l3 7.5Z"/><path fill="#FD8084" id="VPL" d="m301 195-3 1c-4.829 0-7-4.038-7-7 9.779 0 37.025-39 9-39 0-2.156-5-5.037-5-10l1-1c2.46 0 4.17-4 7-4l2 2c0 2.883.409 6 4 6 0 2.58 8.269 7.038 10 10.5 4.655 9.309-4 18.151-4 25.5l-1 2-1 1c-1.577 0-2 1.762-2 3l-2 2-2 2-2 2-2 2c-1.747 0-2 .253-2 2Z"/><path fill="#FF6F80" id="TH" d="M305 135v2l-2-2h2Z"/><path fill="#CBC9C7" id="or" d="M113 136c0 4.371.565 7.033 4.5 9l8.5-.5c0-.446-7.102-2.102-8-3l-5-5.5ZM343 136c0 3.261-7.391 6.946-9.5 8l-3.5.5 4 .5c3.273 0 7.295-.09 9-3.5.468-.935 1.9-5.5 0-5.5Z"/><path fill="#1A8061" id="SSs6b" d="M79 143c-3.004 0-1.483 6-4 6 0-1.942 1.937-10 4-10v4Z"/><path fill="#FF8E9C" id="PO" d="m296 139-1 1 1-1ZM185 159c-5.058 0-11 9.521-11 14-.42 0-11.256-23-18-23 0-.453 5-4.99 5-10 7.435 0 12.599 8 21 8l1 2c0 3.423 2 6.474 2 9ZM272 159c5.58 0 9.037 13 11 13 0-2.897 13.589-22 17-22 0-2.156-5-5.037-5-10-6.961 0-12.063 8-20 8l-2 1c0 3.51-1 7.022-1 10Z"/><path fill="#C9C9CA" id="scwm" d="M75 149v4c1.565 0 4-8.408 4-10-3.004 0-1.483 6-4 6Z"/><path fill="#C7CACA" id="em" d="M148 143c-1.238 0-3 .423-3 2 1.238 0 3-.423 3-2ZM309 143c11.159 0 14.091 20.318 10 28.5-.819 1.637-1.175 7.5-4 7.5 0-7.349 8.655-16.191 4-25.5-1.731-3.462-10-7.92-10-10.5ZM145 145c-1.238 0-3 .423-3 2 1.238 0 3-.423 3-2Z"/><path fill="#FE909F" id="IMD" d="M222 171h13l-3-7.5c-2.218-4.435 1-13.412 1-17.5h-9v18.5l-2 6.5Z"/><path fill="#C7CACA" id="em" d="m142 147-1 1 1-1ZM141 148l-1 1 1-1Z"/><path fill="#1A8061" id="SSs6b" d="m75 153-2 2c0-1.623.005-6 2-6v4Z"/><path fill="#C7CACA" id="em" d="m140 149-1 1 1-1ZM139 150c-2.109 0-2 2.535-2 4l2-4Z"/><path fill="#FF7E83" id="VPM" d="M174 173c0 6.028.253 16-8 16-10.807 0-37.089-39-10-39 6.744 0 17.58 23 18 23ZM283 172c0 6.396-2.123 17 8 17 9.779 0 37.025-39 9-39-3.411 0-17 19.103-17 22Z"/><path fill="#C9C9CA" id="scwm" d="M73 155v3c1.638 0 2-3.576 2-5l-2 2Z"/><path fill="#C7CACA" id="em" d="m158 196 3 3c-9.707 0-21.748-23.996-25-30.5-1.044-2.088-1.354-14.5 1-14.5 0 12.983 1.895 29.197 13.5 35 1.937.968 4.183 7 7.5 7Z"/><path fill="#1A8061" id="SSs6b" d="M71 163h1c0-1.145-.58-4 1-4v-4c-2.488 0-2 6.101-2 8Z"/><path fill="#12AD83" id="VISC1" d="m36 194-6 1c-1.78 0-1.348-6.197-2-7.5-4.256-8.512-1-21.491-1-31.5l6 1c0 6.155-4.928 16.645-2 22.5 1.565 3.129 5 11.186 5 14.5ZM421 194l6 1c0-3.322 1.454-11.408 3-14.5l-1-24.5-6 1c0 6.302 5.308 17.885 2 24.5-1.619 3.237-4 8.791-4 12.5Z"/><path fill="#12AC83" id="VISC2/3" d="M47 192c-3.776 0-7.58 2-11 2 0-3.314-3.435-11.371-5-14.5-2.928-5.855 2-16.345 2-22.5 3.235 0 4.55 2 8 2 0 5.174-.407 30 4 30v1l1 1 1 1ZM410 192c3.492 0 7.709 2 11 2 0-3.709 2.381-9.263 4-12.5 3.308-6.615-2-18.198-2-24.5-2.885 0-4.697 2-8 2 0 5.313.572 31-4 31l-1 2Z"/><path fill="#C9C9CA" id="scwm" d="M383 158c1.473 0 1 1.952 1 3-1.473 0-1-1.952-1-3Z"/><path fill="#11AC82" id="VISC4" d="M46 159c0 2.407-.906 7.311-2 9.5l1 20.5c-4.407 0-4-24.826-4-30h5Z"/><path fill="#12AD82" id="VISC5" d="M61 191c-4.725 0-9.879 1-14 1l-1-1-1-1v-1l-1-20.5c1.094-2.189 2-7.093 2-9.5h1c3.548 0 7.721 3 12 3v23.5l2 4.5v1Z"/><path fill="#C9C9CA" id="scwm" d="M73 159c-1.58 0-1 2.855-1 4 1.58 0 1-2.855 1-4Z"/><path fill="#FD7E84" id="VAL" d="m165 202 5 1c0-3.188 1.781-4.281 4-6.5 9.166-9.166 16.375-7.5 28-7.5l2-6v-2c0-1.751-17-12.123-17-20l-2-2c-5.058 0-11 9.521-11 14 0 6.028.253 16-8 16 0 4.314-4.025 7-8 7l3 3 4 3ZM291 202l-4 1c0-2.603-2.564-5.032-4.5-6l-7-6c-7.144-3.572-12.881-2-20.5-2-1.014 0-2-3.959-2-5l-1-3c3.443 0 18-16.538 18-20l2-2c5.58 0 9.037 13 11 13 0 6.396-2.123 17 8 17 0 2.962 2.171 7 7 7v1l-1 1-2 1-3 2-1 1Z"/><path fill="#12AD82" id="VISC5" d="M409 192h1l1-2c0-4.977 4.359-13.781 2-18.5-1.38-2.76-3-9.507-3-12.5l-13 4c0 3.436 2.502 27-2 27v1c4.725 0 9.879 1 14 1Z"/><path fill="#11AC82" id="VISC4" d="M415 159c0 5.313.572 31-4 31 0-4.977 4.359-13.781 2-18.5-1.38-2.76-3-9.507-3-12.5h5Z"/><path fill="#8598CC" id="GPe" d="M127 201c0 4.129-6.729 2-9 2l-9-14c0-4.891-.235-28 4-28l6 5.5c2.374 4.749 5 12.984 5 18.5v3l1 1 1 9 1 1v2Z"/><path fill="#FE8D9F" id="PCN" d="M210 183h1c0-2.968 4-4.633 4-7-5.636 0-20-8.689-20-15h-8c0 7.877 17 18.249 17 20l3 2h3ZM246 183h3l3-2c3.443 0 18-16.538 18-20h-8c-.046 0-13.223 15-20 15 0 2.538 3 3.953 3 7h1Z"/><path fill="#11AC83" id="VISC6a" d="M74 189c-4.64 0-8.71 1-13 1l-2-4.5V162l11 3v11.5c1.583 3.167 4 8.9 4 12.5Z"/><path fill="#8598CC" id="GPe" d="M330 199c0 5.95 3.916 4 8 4 4.822 0 5.296-13 9-13 0-1.048-.473-3 1-3 0-6.345.634-13.232-2-18.5-.65-1.3-.007-6.5-2-6.5-7.625 0-8.535 12.57-11 17.5-.703 1.406 1.261 7.5-1 7.5l-2 12Z"/><path fill="#C9C9CA" id="scwm" d="m384 162 1 2-1-2Z"/><path fill="#1A8061" id="SSs6b" d="M70 165h1v-2l-1 2Z"/><path fill="#C9C9CA" id="scwm" d="M71 166h1v-3h-1v3Z"/><path fill="#11AC83" id="VISC6a" d="M383 189c4.152 0 8.389 1 12 1 4.502 0 2-23.564 2-27-3.978 0-7.549 2-11 2 0 3.48.038 20-3 20v4Z"/><path fill="#11AD82" id="VISC6b" d="M74 189h1c0-7.626-4-14.292-4-23v-1h-1v11.5c1.583 3.167 4 8.9 4 12.5ZM385 166c0 6.971-2 12.691-2 19 3.038 0 3-16.52 3-20h-1v1Z"/><path fill="#C8CBCC" id="ec" d="M81 207h2v-3l-1-1-5-12.5c-2.302-4.605-2-17.594-2-23.5l-3-1h-1c0 8.708 4 15.374 4 23v2c1.843 0 6 12.832 6 15v1ZM373 207h2l1-2c0-2.118 3.041-13 5-13v-3l2-4c0-6.309 2-12.029 2-19l-4 1c0 7.701 1.237 19.027-2 25.5l-5 11.5-1 1v2Z"/><path fill="#FD8E9E" id="CM" d="M240 185h2l1-1h1l1-1c0-3.047-3-4.462-3-7l-7-5h-13c-1.45 0-7 3.126-7 5 0 2.367-4 4.032-4 7l1 1h1l2 1h2c0-1.579 2.855-1 4-1h13.5c1.19 0 4.5-.614 4.5 1h1Z"/><path fill="#C7CACA" id="em" d="m315 179-1 2 1-2Z"/><path fill="#FF6F80" id="TH" d="M204 183h3l-3-2v2ZM249 183l4 1-1-3-3 2Z"/><path fill="#C7CACA" id="em" d="m314 181-1 1 1-1ZM313 182c-1.577 0-2 1.762-2 3 1.577 0 2-1.762 2-3Z"/><path fill="#FD8E9F" id="SMT" d="m203 211 2 2c6.731 0 13.615-8 15-8l1-1 2-7-1-7.5-5-4.5h-2l-2-1h-1l-2-1h-6l-2 6c0 2.929-5.1 18-1 18 0-2.865 3.956-9.772 7.5-8 5.425 2.713-.851 12-5.5 12Z"/><path fill="#FF6F80" id="TH" d="m211 183 1 1-2-1h1ZM246 183l-2 1 1-1h1Z"/><path fill="#FD8E9F" id="SMT" d="m253 211-1 2c-6.91 0-14.635-8-16-8l-3-9c0-3.098 2.214-10 6-10l1-1h2l1-1h1l2-1h3l4 1c0 1.041.986 5 2 5 0 3.133 3.997 18 0 18 0-2.744-3.488-10.006-7.5-8-2.713 1.356-.577 12 5.5 12Z"/><path fill="#FF6F80" id="TH" d="m213 184 2 1-2-1Z"/><path fill="#FF8E9E" id="RH" d="M233 196c-3.325 0-7.31 1-10 1l-1-7.5-5-4.5c0-1.579 2.855-1 4-1h13.5c1.19 0 4.5-.614 4.5 1v1c-3.786 0-6 6.902-6 10Z"/><path fill="#FF6F80" id="TH" d="m243 184-1 1 1-1Z"/><path fill="#8499CC" id="GPi" d="M127 201c1.61 0 6.239 6.978 7 8.5 4.451 8.903 29 27.811 29 6.5 0-5.616-27.265-20.883-31.5-23-3.389-1.694-4.044-8-7.5-8v3l1 1 1 9 1 1v2Z"/><path fill="#FF6F80" id="TH" d="m240 185-1 1v-1h1Z"/><path fill="#C7CACA" id="em" d="m311 185-2 2c1.747 0 2-.253 2-2Z"/><path fill="#8499CC" id="GPi" d="M293 215v1c0 10.5 9.964 10.768 17.5 7 4.796-2.398 19.401-24 19.5-24l2-12c0-4.188-6.961 6.73-9.5 8-5.632 2.816-12.688 6.844-19 10l-9.5 9-1 1Z"/><path fill="#11AD82" id="VISC6b" d="M382 189h1v-4l-2 4h1Z"/><path fill="#C7CACA" id="em" d="m309 187-2 2c1.747 0 2-.253 2-2Z"/><path fill="#97D6F9" id="STR" d="M348 187c-1.473 0-1 1.952-1 3 1.473 0 1-1.952 1-3Z"/><path fill="#CCC" d="m124 188 1 1-1-1Z"/><path fill="#FF7E84" id="VM" d="m205 213-1 3c-8.628 0-16.272-8-25-8l-1-1-7-2-1-2c0-3.188 1.781-4.281 4-6.5 9.166-9.166 16.375-7.5 28-7.5 0 2.929-5.1 18-1 18l2 4 2 2ZM252 213l1 3c9.461 0 18.264-9 28-9l1-1 3-1 2-1v-1c0-2.603-2.564-5.032-4.5-6l-7-6c-7.144-3.572-12.881-2-20.5-2 0 3.133 3.997 18 0 18 0 1.465.109 4-2 4l-1 2Z"/><path fill="#209766" id="AIp6a" d="M70 211h1c0-1.876 6.008-6 7.5-6l2.5 2v-1c-2.37 0-6-12.67-6-15v-1l-1-1c-4.64 0-8.71 1-13 1v1c0 4.225 9 14.049 9 20Z"/><path fill="#219666" id="AIp6b" d="M75 189v1l-1-1h1Z"/><path fill="#97D6F9" id="STR" d="m96 214 3 1 11-4c1.624 0 2.75-2 5-2 0-4.638 7.952 0 9 0l-6-6-9-14 1 16.5c-1.699 3.398-15.252 2.5-19 2.5 0 1.465 5 3.316 5 6Z"/><path fill="#C7CACA" id="em" d="m307 189-2 2c1.747 0 2-.253 2-2Z"/><path fill="#219666" id="AIp6b" d="m382 189-1 2v-2h1Z"/><path fill="#209766" id="AIp6a" d="M386 211h1c0-7.064 8-15.153 8-20v-1c-3.611 0-7.848-1-12-1h-1l-1 2v1c0 2.2-2.723 13-5 13v1c3.792 0 9 .999 9 5h1Z"/><path fill="#11AC82" id="VISC4" d="m45 190 1 1-1-1Z"/><path fill="#97D6F9" id="STR" d="m361 214-4 2c0-2.656-10.031-6-12-6 0-1.579-2.855-1-4-1 0-1.995-4.377-2-6-2l3-4c4.822 0 5.296-13 9-13 0 18.676-2.602 18 18 18 0 1.53-4 3.216-4 6Z"/><path fill="#219864" id="AIp5" d="m68 212-5 1c0-1.234-7.196-5.348-8.5-6-2.885-1.442-7.5-11.908-7.5-15 4.121 0 9.275-1 14-1 0 4.225 9 14.049 9 20l-2 1Z"/><path fill="#219666" id="AIp6b" d="M75 191c1.843 0 6 12.832 6 15-2.37 0-6-12.67-6-15Z"/><path fill="#C7CACA" id="em" d="m305 191-2 2c1.747 0 2-.253 2-2Z"/><path fill="#219864" id="AIp5" d="m388 211 5 2 7-4.5c4.105-4.105 9-10.77 9-16.5-4.121 0-9.275-1-14-1 0 4.847-8 12.936-8 20h1Z"/><path fill="#209865" id="AIp2/3" d="m63 213-14 4c0-2.624-13-16.268-13-23 3.42 0 7.224-2 11-2 0 3.092 4.615 13.558 7.5 15 1.304.652 8.5 4.766 8.5 6Z"/><path fill="#219666" id="AIp6b" d="M381 192c-1.959 0-5 10.882-5 13 2.277 0 5-10.8 5-13Z"/><path fill="#209865" id="AIp2/3" d="m393 213 14 4c1.782 0 14-20.512 14-23-3.291 0-7.508-2-11-2h-1c0 5.73-4.895 12.395-9 16.5l-7 4.5Z"/><path fill="#C7CACA" id="em" d="M303 193c-1.747 0-2 .253-2 2l2-2Z"/><path fill="#219765" id="AIp1" d="M49 217c0 1.638-3.576 2-5 2-2.586 0-14-20.385-14-24l6-1c0 6.732 13 20.376 13 23ZM407 217c0 1.638 3.576 2 5 2 2.146 0 15-21.051 15-24l-6-1c0 2.488-12.218 23-14 23Z"/><path fill="#C7CACA" id="em" d="M298 196v1c1.238 0 3-.423 3-2l-3 1Z"/><path fill="#FD909F" id="RE" d="M231 222h5c0-1.473 1.952-1 3-1v-1c0-5.682-3-9.767-3-15l-3-9c-3.325 0-7.31 1-10 1l-2 7-1 1c0 5.439-3 9.426-3 15 2.522 0 4.909 2 8 2 0-3.376-1.991-17.754 2.5-20l3.5 3.5c2.191 4.383 0 12.423 0 16.5Z"/><path fill="#C7CACA" id="em" d="m298 197-1 1 1-1Z"/><path fill="#8599CC" id="PAL" d="m126 198 1 1-1-1Z"/><path fill="#C7CACA" id="em" d="m297 198-2 1 2-1Z"/><path fill="#C7C9CC" id="mtt" d="m201 207 2 4c4.649 0 10.925-9.287 5.5-12-3.544-1.772-7.5 5.135-7.5 8ZM255 207c0 1.465.109 4-2 4-6.077 0-8.213-10.644-5.5-12 4.012-2.006 7.5 5.256 7.5 8Z"/><path fill="#8599CC" id="PAL" d="M308 238c-3.58 0-6.832 1-11 1 0-1.423 1.978-3.544 1-5.5-2.467-4.935-13 .844-13-8.5 4.61 0 3.34-9 7-9h1c0 10.5 9.964 10.768 17.5 7 4.796-2.398 19.401-24 19.5-24 0 5.95 3.916 4 8 4l-3 4h-2c0-5.939-6.579-1.341-8 1.5-3.376 6.752-10.402 13.402-16 19-1.682 1.682-8 3.511-8 6 0 2.138 9.827-3.5 12-3.5v1l-2 3-1 1-1 1-1 2ZM149 238c3.264 0 7.593 2 11 2 0-1.984-3.278-3.945-2-6.5 2.195-4.389 13 1.374 13-8.5-1.911 0-6-7.565-6-9h-2c0 21.311-24.549 2.403-29-6.5-.761-1.522-5.39-8.5-7-8.5 0 4.129-6.729 2-9 2l6 6h1l-2-3.5c3.015-6.029 18.287 14.575 20 18 1.219 2.438 12.893 8.214 12 10-1.312 2.624-10.082-4.5-13-4.5l4 5 1 2 2 2Z"/><path fill="#FF6F80" id="TH" d="m292 201-1 1 1-1ZM167 205h4l-1-2-5-1 2 3Z"/><path fill="#FC8F9F" id="Xi" d="M225 222h6c0-4.077 2.191-12.117 0-16.5l-3.5-3.5c-4.491 2.246-2.5 16.624-2.5 20Z"/><path fill="#FF6F80" id="TH" d="m287 204 3 1 1-3-4 1v1Z"/><path fill="#97D6F9" id="STR" d="m82 203 1 1-1-1Z"/><path fill="#A2B1D7" id="SI" d="M139 227c2.215 0 1.519 2 3 2 2.918 0 11.688 7.124 13 4.5.893-1.786-10.781-7.562-12-10-1.713-3.425-16.985-24.029-20-18l2 3.5v1l1 1c2.471 0 10.906 14 12 14l1 1v1Z"/><path fill="#F0483B" id="ZI" d="M191 223h3c4.787 0 15 2.01 15-4l-5-3c-8.628 0-16.272-8-25-8l-1-1-7-2h-4l-2 1v2l1 2 4 4 2 2 7 3 1 1h1c1.35 0 10 2.04 10 3Z"/><path fill="#FD909C" id="PR" d="m221 204-1 1 1-1Z"/><path fill="#FF6F80" id="TH" d="m287 204-2 1 2-1Z"/><path fill="#F0483B" id="ZI" d="M262 223h3c0-.745 9.679-3 11-3l1-1 7-3 2-1 1-1 2-2v-1l1-1 2-3-1-1-1-1-3-1-2 1-3 1-1 1c-9.736 0-18.539 9-28 9l-6 3c0 5.998 10.864 4 15 4Z"/><path fill="#A2B1D7" id="SI" d="m314 229-1 1c-2.173 0-12 5.638-12 3.5 0-2.489 6.318-4.318 8-6 5.598-5.598 12.624-12.248 16-19 1.421-2.841 8-7.439 8-1.5l-1 2-1 1c0 2.888-13 12.265-13 16l-1 1-3 2Z"/><path fill="#97D6F9" id="STR" d="m374 204-1 1 1-1Z"/><path fill="#A0EE9C" id="EPd" d="M75 228v1l4.5 4c4.322 2.161 4.5-3.467 4.5-6l-1-16.5-2-3.5-2.5-2c-1.492 0-7.5 4.124-7.5 6 0 5.084 2.913 8.326 5 12.5.133.266 2.013 4.5.5 4.5-3.144 0-2.276-9-5.5-9v1l1 2v1l1 1v2l2 2Z"/><path fill="#97D6F9" id="STR" d="M83 207h1l1-1-2-1v2Z"/><path fill="#8599CC" id="PAL" d="M165 206v2l-3-3 3 1Z"/><path fill="#FD909C" id="PR" d="M214 221h2l1-1c0-5.574 3-9.561 3-15-1.385 0-8.269 8-15 8l-1 3 5 3 4 2h1ZM242 221h2c0-1.577 1.762-2 3-2l6-3-1-3c-6.91 0-14.635-8-16-8 0 5.233 3 9.318 3 15l1 1h2Z"/><path fill="#8599CC" id="PAL" d="m294 205-1 1 1-1Z"/><path fill="#97D6F9" id="STR" d="m371 206 2 1v-2l-2 1Z"/><path fill="#219666" id="AIp6b" d="m376 206-1 1 1-2v1Z"/><path fill="#90EB8D" id="LA" d="M97 217c-5.262 0-10 1.976-10 9-2.064 0-.426-3.353-1-4.5-1.623-3.246-2-10.896-2-14.5l1-1 6 2c0 1.465 5 3.316 5 6-2.276 0 1 2.078 1 3Z"/><path fill="#FF6F80" id="TH" d="m282 206-1 1 1-1Z"/><path fill="#8599CC" id="PAL" d="m293 206-1 1-1-1h2Z"/><path fill="#90EB8D" id="LA" d="M359 217c7.99 0 10 2.961 10 12 2.064 0 .426-3.353 1-4.5 1.065-2.13 3-15.217 3-17.5l-2-1-6 2c0 1.53-4 3.216-4 6l-2 3Z"/><path fill="#A0EE9C" id="EPd" d="m380 231-1 1c-2.934 0-7 3.367-7-3l1-17.5 2-4.5 1-1c3.792 0 9 .999 9 5v2c0 3.194-8.193 15-4 15v1l-1 2Z"/><path fill="#C8C9CB" id="amc" d="m86 234 3 6c0-4.676-2-8.693-2-14-2.064 0-.426-3.353-1-4.5-1.623-3.246-2-10.896-2-14.5h-3l2 3.5 1 16.5c.853 0 2 6.031 2 7Z"/><path fill="#7FC0E0" id="CEAm" fill-rule="evenodd" d="M126 249h2c2.25 0 3.376-2 5-2v-2c1.643 0 1-3.765 1-5 0-2.774 1.939-10 5-10v-4l-1-1c-1.094 0-9.529-14-12-14l-1-1v-1h-1c-1.048 0-9-4.638-9 0 9.195 0 6.008 22 3 22 0 2.985-3.061 6-6 6 0 3.593 8 7.254 8 10h1l2 1h1l2 1m7-4c0-1.838-.379-11-2.5-11-3.532 0-.598 11 2.5 11Z"/><path fill="#FF6F80" id="TH" d="m178 207 1 1-1-1Z"/><path fill="#8599CC" id="PAL" d="m333 208-1 1 1-2v1Z"/><path fill="#97D6F9" id="STR" d="m335 207-2 1v-1h2Z"/><path fill="#7FC0E0" id="CEAm" d="M329 249h1l2-1h1c0-1.473 1.952-1 3-1 0-2.631 8-6.127 8-10-3.078 0-5-2.853-5-6-4.892 0-5.584-22 2-22 0-1.995-4.377-2-6-2l-2 1-1 1-1 1c0 2.888-13 12.265-13 16l-1 1 1 3c4.716 0 2.888 13 5 13l1-3 1-3.5c3.2-6.4 2.847 8.5-2 8.5v2c1.714 0 3.482 2 6 2Z"/><path fill="#C8C9CB" id="amc" d="m370 235-3 6c0-4.22 2-7.344 2-12 2.064 0 .426-3.353 1-4.5 1.065-2.13 3-15.217 3-17.5h2l-2 4.5-1 17.5c-.913 0-2 5.014-2 6Z"/><path fill="#80BEE1" id="CEAl" d="M110 211c0 4.593 1.158 20 8 20 3.008 0 6.195-22-3-22-2.25 0-3.376 2-5 2Z"/><path fill="#CCCACB" id="nst" d="M171 224v1c-1.911 0-6-7.565-6-9 0-.852-7.49-9.995-1.5-7l2.5 2 4 6v2l1 1v4ZM286 219l-1 6c4.61 0 3.34-9 7-9l1-1 1-1c0-6.069.864-3-4-3l-1 1c0 1.238-.423 3-2 3 0 1.145.579 4-1 4Z"/><path fill="#8599CC" id="PAL" d="m332 209-1 1 1-1Z"/><path fill="#80BEE1" id="CEAl" d="m345 210 2 2.5c1.822 3.644-4.702 18.5-8 18.5-4.892 0-5.584-22 2-22 1.145 0 4-.579 4 1Z"/><path fill="#97D6F9" id="STR" d="m125 210 1 1-1-1Z"/><path fill="#8599CC" id="PAL" d="m171 216-1 1-4-6v-1l4 4 1 2ZM289 211h1v-1l-1 1Z"/><path fill="#80BFE0" id="CEAc" d="M344 237h1l3-5 1-2 2-4c0-1.238.423-3 2-3l1-2c0-2.364 3-3.053 3-5 0-2.656-10.031-6-12-6l2 2.5c1.822 3.644-4.702 18.5-8 18.5 0 3.147 1.922 6 5 6Z"/><path fill="#C9C8CA" id="ee" d="M68 212c.886 0 3 5.824 3 7 3.224 0 2.356 9 5.5 9 1.513 0-.367-4.234-.5-4.5-2.087-4.174-5-7.416-5-12.5h-1l-2 1Z"/><path fill="#80BFE0" id="CEAc" d="M111 237h1c2.939 0 6-3.015 6-6-6.842 0-8-15.407-8-20l-11 4c0 5.512 9 9.838 9 16v1l1 1 2 4Z"/><path fill="#CCC" d="m290 211-1 1v-1h1Z"/><path fill="#8AD987" id="CTXsp" d="m386 211-1 2v-2h1Z"/><path fill="#C9C8CA" id="ee" d="M383 224c-2.109 0-2 2.535-2 4-4.193 0 4-11.806 4-15l1-2h2l-2 6-1 1v1l-1 2c-1.473 0-1 1.952-1 3Z"/><path fill="#6ACAB9" id="PIR" d="M359 276c0 5.492 11 15.572 11 20 2.589 0 12.818-15.136 14-17.5 4.485-8.97 10.53-17.06 15-26l6-17 7-16.5c-1.424 0-5-.362-5-2l-14-4-5-2-2 6v1l-1 1v2l-1 2v1l-1 1-1 3-1 1-1 2-1 1c0 1.417-2.383 6-4 6 0 11.194-17 23.467-17 35l1 3ZM98 275c0 4.548-12 18.599-12 21-1.648 0-11.987-14.474-13-16.5-4.814-9.628-11.199-18.398-16-28-2.767-5.534-3.252-12.504-6-18-1.859-3.717-7-10.392-7-14.5 1.424 0 5-.362 5-2l14-4 5-1c.886 0 3 5.824 3 7v1l1 2v1l1 1v2l2 2v1l6 8c0 11.755 18 25.134 18 37l-1 1Z"/><path fill="#8599CC" id="PAL" d="M287 214v1c1.577 0 2-1.762 2-3l-2 2Z"/><path fill="#C8CBCC" id="ec" d="M97 217c4.603 0 9.236 14 11 14 0-6.162-9-10.488-9-16l-3-1c-2.276 0 1 2.078 1 3Z"/><path fill="#E64438" id="HY" d="M171 216h1l-2-2 1 2ZM286 215h1v-1l-1 1Z"/><path fill="#CCC" d="m294 214-1 1 1-1Z"/><path fill="#C8CBCC" id="ec" d="m359 217-5 4c0-2.364 3-3.053 3-5l4-2-2 3Z"/><path fill="#E64438" id="HY" d="m284 216 2 1v-2l-2 1Z"/><path fill="#8599CC" id="PAL" d="M286 217v2c1.579 0 1-2.855 1-4h-1v2Z"/><path fill="#CCC" d="M292 216h1v-1l-1 1Z"/><path fill="#9DE79B" id="BLAa" d="m106 255-4 1-5-3h-1c0-1.429-1.288-4-3-4v-1l-4-7v-1c0-4.676-2-8.693-2-14 0-7.024 4.738-9 10-9 4.603 0 9.236 14 11 14v1l1 1 2 4c0 1.974 2 3.517 2 6 0 4.116-4 6.343-4 10-1.238 0-3 .423-3 2Z"/><path fill="#F2483A" id="LHA" d="m176 261 4 1 4-3v-1c0-6.061-4.449-21 8-21v-4l-3-6c-1.255 0-8-4.777-8-7h-1l-1-1-7-3h-1l-1 1v2l1 1v4c1.186 0 1.186 1 0 1 0 9.874-10.805 4.111-13 8.5-1.278 2.555 2 4.516 2 6.5 0 1.862 14.872 21 16 21ZM276 262h4l1-1c0-1.634 2.634-4 4-4 0-6.231 12-11.459 12-18 0-1.423 1.978-3.544 1-5.5-2.467-4.935-13 .844-13-8.5l1-6v-2l-2-1-7 3-1 1-8 7-1 1-2 4-1 1v4c6.362 0 10 6.878 10 12.5 0 1.661-.443 8.5-2 8.5v1l4 3Z"/><path fill="#9DE79B" id="BLAa" d="M354 256h2l1-1h1l1-1 1-1 1-1 1-2 1-1 1-2 1-1c0-1.424.362-5 2-5 0-4.22 2-7.344 2-12 0-9.039-2.01-12-10-12l-5 4-1 2c0 1.238-.423 3-2 3 0 1.465.109 4-2 4l-1 2-3 5-2 7c0 3.945 7 7.652 7 11l4 1Z"/><path fill="#A0EE9C" id="EPd" d="M385 218h1v-1l-1 1Z"/><path fill="#8AD987" id="CTXsp" d="m386 218-1 1v-1h1Z"/><path fill="#8599CC" id="PAL" d="m170 219 1 1-1-1Z"/><path fill="#E64438" id="HY" d="m179 219 1 1-1-1ZM217 281c0 1.985-6.262 5-8 5 0-3.794-4.399-5.45-7.5-7-7.789-3.895-9.134-20-17.5-20v-1c1.658 0 3-1.461 3-3 3.704 0 4.862-4 6-4 1.664 0 6-1.823 6-4l7.5 1c4.477-2.239 8.433-9.783 2-13-4.668-2.334-9.351 3-11.5 3l-5-1v-4c2.252 0 8.679-2.142 7-5.5l-5-4.5c4.787 0 15 2.01 15-4l4 2-6 4.5c-2.896 5.792 13.152 8.5 17 8.5v25c-1.311 0-4.625-9.937-12.5-6-10.257 5.128-20.09 20.455-5 28H217ZM251 281c0 1.539-4 2.187-4 5-3.117 0-15-9.707-15-13 0-13.229 1-26.271 1-39 3.824 0 10.214-1.357 13.5-3l3.5-3.5-6-6.5c0-1.577 1.762-2 3-2 0 5.998 10.864 4 15 4l-4 3.5c-1.974 3.948 3.084 6.5 6 6.5v4l-5 2c0-11.221-26.286.607-9.5 9l7.5-1c2.33 0 3.227 4 6 4 2.572 0 2.494 5 6 5l3 2v1c-6.898 0-10.953 18-16 18 0-4.554 3.577-8.346 1-13.5l-5-6c-19.246-19.246-24.6 16.45-14.5 21.5 3.868 1.934 7.888 2 13.5 2ZM277 219l-1 1 1-1Z"/><path fill="#A0EE9C" id="EPd" d="M384 221h1v-2l-1 2Z"/><path fill="#8AD987" id="CTXsp" d="m71 220 1 2-1-2Z"/><path fill="#E64438" id="HY" d="M191 223c-3.97 0-2 2.104-2 4-1.255 0-8-4.777-8-7 1.35 0 10 2.04 10 3Z"/><path fill="#FF6F80" id="TH" d="M226 225h5l5-2v-1h-11c-3.091 0-5.478-2-8-2l-1 1 1 1h2l1 1h2l1 1 3 1ZM239 221h1l-1-1v1Z"/><path fill="#E64438" id="HY" d="M265 223c3.303 0 3 .959 3 4l8-7c-1.321 0-11 2.255-11 3Z"/><path fill="#FF4C3D" id="PVHd" d="M227 230c-2.715 0-3 1.657-3 4-3.848 0-19.896-2.708-17-8.5l6-4.5h1c0 1.473 1.952 1 3 1h2l1 1h2l1 1 3 1c0 1.852 1 3.309 1 5Z"/><path fill="#E64438" id="HY" d="m216 221 1 1c-1.048 0-3 .473-3-1h2Z"/><path fill="#FF6F80" id="TH" d="M237 222h2v-1c-1.048 0-3-.473-3 1h1Z"/><path fill="#E64438" id="HY" d="M242 221c0 1.473-1.952 1-3 1v-1h3Z"/><path fill="#FF4C3D" id="PVHd" d="M229 230c2.226 0 4 1.774 4 4 3.824 0 10.214-1.357 13.5-3l3.5-3.5-6-6.5h-2c0 1.473-1.952 1-3 1h-2l-1 1-5 2c0 1.624-2 2.75-2 5Z"/><path fill="#C8CBCC" id="ec" d="m354 221-1 2 1-2Z"/><path fill="#A0EE9C" id="EPd" d="M383 224h1v-3c-1.473 0-1 1.952-1 3Z"/><path fill="#8AD987" id="CTXsp" d="m385 221-1 2v-2h1Z"/><path fill="#E64438" id="HY" d="m219 222 1 1-1-1ZM237 222l-1 1v-1h1Z"/><path fill="#8AD987" id="CTXsp" d="m72 223 1 1-1-1Z"/><path fill="#FF4C3D" id="PVHd" d="m189 227 3 6c2.252 0 8.679-2.142 7-5.5l-5-4.5h-3c-3.97 0-2 2.104-2 4Z"/><path fill="#E64438" id="HY" d="m222 223 1 1-1-1Z"/><path fill="#FF4C3D" id="PVHd" d="m265 232-1 1c-2.916 0-7.974-2.552-6-6.5l4-3.5h3c3.303 0 3 .959 3 4l-1 1-2 4Z"/><path fill="#C8CBCC" id="ec" d="M353 223c-1.577 0-2 1.762-2 3 1.577 0 2-1.762 2-3Z"/><path fill="#8599CC" id="PAL" d="M171 224c1.186 0 1.186 1 0 1v-1Z"/><path fill="#A0EE9C" id="EPd" d="M381 228h1l1-3v-1c-2.109 0-2 2.535-2 4Z"/><path fill="#8AD987" id="CTXsp" d="m384 224-1 1v-1h1Z"/><path fill="#97D6F9" id="STR" d="m138 225 1 1-1-1Z"/><path fill="#E64438" id="HY" d="M227 232h2v-2c0-2.25 2-3.376 2-5h-5c0 1.852 1 3.309 1 5v2Z"/><path fill="#8AD987" id="CTXsp" d="m73 226 2 2-2-2Z"/><path fill="#97D6F9" id="STR" d="m318 226-1 1 1-1Z"/><path fill="#C8CBCC" id="ec" d="m351 226-2 4c2.109 0 2-2.535 2-4Z"/><path fill="#8AD987" id="CTXsp" d="M86 234c-1.408 0-5 1.197-5 3l-6-8 4.5 4c4.322 2.161 4.5-3.467 4.5-6 .853 0 2 6.031 2 7Z"/><path fill="#97D6F9" id="STR" d="M139 230c2.968 0 4.633 4 7 4l-4-5c-1.481 0-.785-2-3-2v3Z"/><path fill="#E64438" id="HY" d="m268 227-1 1 1-1Z"/><path fill="#97D6F9" id="STR" d="m318 230-5 1v-1l1-1 3-2 1 3Z"/><path fill="#8AD987" id="CTXsp" d="m382 228-1 1v-1h1Z"/><path fill="#8599CC" id="PAL" d="m314 229-1 1 1-1Z"/><path fill="#8AD987" id="CTXsp" d="M370 235c1.832 0 5-.818 5 3 1.617 0 4-4.583 4-6-2.934 0-7 3.367-7-3-.913 0-2 5.014-2 6ZM381 229l-1 2 1-2Z"/><path fill="#80BFE1" id="MEA" d="M141 288h2l4.5-3c9.985-4.992 12.5-9.647 12.5-21l-7-20c-1.428 0-4-4.822-4-6l-2-2-1-2c-2.367 0-4.032-4-7-4-3.061 0-5 7.226-5 10 0 1.235.643 5-1 5v25l1 3c0 2.065 5.571 15 7 15Z"/><path fill="#FD5D50" id="PVi" d="M224 273h3v-43c-2.715 0-3 1.657-3 4v39ZM229 273h3c0-13.229 1-26.271 1-39 0-2.226-1.774-4-4-4v43Z"/><path fill="#80BFE1" id="MEA" d="M313 288h2c2.687 0 8-13.572 8-16v-29c-2.112 0-.284-13-5-13l-5 1-2 3-1 1-1 1-1 2-4 5-1 2c0 6.15-6 11.444-6 18l-1 1v1c0 3.732-.555 8.391 1 11.5.548 1.096 13.85 11.5 16 11.5Z"/><path fill="#C8CBCC" id="ec" d="m349 230-1 2 1-2Z"/><path fill="#8AD987" id="CTXsp" d="m380 231-1 1 1-1Z"/><path fill="#C8CBCC" id="ec" d="m108 232 1 1-1-1Z"/><path fill="#A8A9AA" id="V3" d="M227 273c0 6.828 2 6.828 2 0v-41h-2v41Z"/><path fill="#E64438" id="HY" d="m265 232-1 1 1-1Z"/><path fill="#A0ED9D" id="EPv" d="m107 275-2 1-5-1-1-1c0-11.866-18-25.245-18-37 0-1.803 3.592-3 5-3l3 6v1c0 1.572 2.052 7 4 7v1l3 4h1c0 2.215 2 1.519 2 3l2 2v1l5 7 1 9Z"/><path fill="#C7CAC8" id="stc" d="M133 245c0-1.838-.379-11-2.5-11-3.532 0-.598 11 2.5 11Z"/><path fill="#97D6F9" id="STR" d="m311 234-1 1 1-1Z"/><path fill="#C7CAC8" id="stc" d="M323 243v2c4.847 0 5.2-14.9 2-8.5l-1 3.5-1 3Z"/><path fill="#A0ED9D" id="EPv" d="m357 275-6 1-2-1c0-3.695 2-6.865 2-11 1.429 0 4-3.939 4-5l1-2 1-1 1-1 1-1 1-1 1-1 1-2 1-1 1-2 1-1c1.638 0 2-3.576 2-5l3-6c1.832 0 5-.818 5 3 0 11.194-17 23.467-17 35l-1 2Z"/><path fill="#FF4B3E" id="AHN" d="M197 238c2.149 0 6.832-5.334 11.5-3 6.433 3.217 2.477 10.761-2 13l-7.5-1 1-4.5-3-4.5ZM259 239c-3.289 0-2 6.545-2 8l-7.5 1c-16.786-8.393 9.5-20.221 9.5-9Z"/><path fill="#97D6F9" id="STR" d="m310 235-1 1 1-1ZM147 236l2 2-2-2ZM120 247l-3 1-4-5c0-2.483-2-4.026-2-6h1c0 3.593 8 7.254 8 10Z"/><path fill="#CAC7CB" id="fiber tracts" fill-rule="evenodd" d="m171 258 5 8.5c.2.399 2.087 5.827 3 4 .767-1.533-6.385-12.5-8-12.5m-5 9 6 3.5c3.257 3.257 16.983 16.5 20 16.5 0-1.478-13-14.65-13-21-1.803 0-3-3.592-3-5-1.128 0-16-19.138-16-21-3.407 0-7.736-2-11-2 0 1.178 2.572 6 4 6 0-1.164-2.163-4.168-.5-5 1.892-.946 5.737 2.974 6.5 4.5 1.799 3.598 16.914 21.793 11.5 24.5l-4.5-1Z"/><path fill="#F2463A" id="PeF" d="M187 255c0 1.539-1.342 3-3 3 0-6.061-4.449-21 8-21l5 1 3 4.5-1 4.5c0 2.177-4.336 4-6 4 0-8.865-6-2.465-6 4ZM269 256l3 2c1.557 0 2-6.839 2-8.5 0-5.622-3.638-12.5-10-12.5l-5 2c-3.289 0-2 6.545-2 8 2.33 0 3.227 4 6 4 0-7.197 5.282-2.937 7 .5l-1 4.5Z"/><path fill="#CAC7CB" id="fiber tracts" fill-rule="evenodd" d="M281 263c0 3.746 2.091 0 0 0m1-2c0 3.746 2.091 0 0 0m1-1c0 1.93 1.93 0 0 0m1-1c0 1.93 1.93 0 0 0m-7 10-2 3.5c-1.704 3.409-8 9.541-8 12.5 4.999 0 10.866-10.183 14.5-12 .582-.291 9.5-5.874 9.5-6l-5.5 1c-4.384-2.192 9.692-20.883 11.5-24.5.763-1.526 5.802-5.349 7.5-4.5l-.5 4 4-5c-3.58 0-6.832 1-11 1 0 6.541-12 11.769-12 18-1.366 0-4 2.366-4 4l-1 1-3 5v2m0 0c0 6.404 5.068-4 3.5-4l-3.5 4Z"/><path fill="#97D6F9" id="STR" d="m336 247 3 1 4-4 2-7h-1c0 3.873-8 7.369-8 10Z"/><path fill="#CACCCB" id="opt" d="M164 267h2l4.5 1c5.414-2.707-9.701-20.902-11.5-24.5-.763-1.526-4.608-5.446-6.5-4.5-1.663.832.5 3.836.5 5l7 20 3 2 1 1ZM291 267h2l1-1 1-1h1v-1l1-1c0-6.556 6-11.85 6-18l1-2 .5-4c-1.698-.849-6.737 2.974-7.5 4.5-1.808 3.617-15.884 22.308-11.5 24.5l5.5-1Z"/><path fill="#C8C9CB" id="amc" d="m89 241 4 7c-1.948 0-4-5.428-4-7ZM367 241c-1.638 0-2 3.576-2 5 1.638 0 2-3.576 2-5Z"/><path fill="#8AD987" id="CTXsp" d="M115 250c-3.37 0-3.859 3-6 3 0-3.657 4-5.884 4-10l4 5-2 2Z"/><path fill="#CAC7CB" id="fiber tracts" d="m304 243-1 2 1-2Z"/><path fill="#8AD987" id="CTXsp" d="m350 255-1 1c-2.096 0-3.435-6-8-6l-2-2 4-4c0 3.945 7 7.652 7 11Z"/><path fill="#C8C9CB" id="amc" d="m365 246-1 1 1-1Z"/><path fill="#80BEE2" id="IA" d="M115 250c0 9.779 9.504 6 16 6 0-4.412-3-5.317-3-7h-2l-2-1h-1l-2-1h-1l-3 1-2 2Z"/><path fill="#97D6F9" id="STR" d="m121 247 2 1-2-1ZM131 256h2v-9c-1.624 0-2.75 2-5 2 0 1.683 3 2.588 3 7Z"/><path fill="#C7C8CA" id="fx" d="M193 251c-1.138 0-2.296 4-6 4 0-6.465 6-12.865 6-4ZM263 251c2.572 0 2.494 5 6 5l1-4.5c-1.718-3.437-7-7.697-7-.5Z"/><path fill="#97D6F9" id="STR" d="m325 256-2 1v-10c1.714 0 3.482 2 6 2 0 1.536-4 3.454-4 7ZM336 247c-1.048 0-3-.473-3 1 1.048 0 3 .473 3-1Z"/><path fill="#80BEE2" id="IA" d="M341 250c0 10.519-8.488 6-16 6 0-3.546 4-5.464 4-7h1l2-1h1c1.048 0 3 .473 3-1l3 1 2 2Z"/><path fill="#C8C9CB" id="amc" d="m364 247-1 2 1-2Z"/><path fill="#97D6F9" id="STR" d="m124 248 2 1-2-1ZM332 248l-2 1 2-1Z"/><path fill="#C8C9CB" id="amc" d="M93 249c1.712 0 3 2.571 3 4l-3-4Z"/><path fill="#84EA80" id="BMAa" d="m109 277 4 2c6.63 0 11.464-7 18-7l2-2v-14h-2c-6.496 0-16 3.779-16-6-3.37 0-3.859 3-6 3l-2 4-1 3v6l1 9 2 2ZM343 279h3l1-1 1-1 1-2c0-3.695 2-6.865 2-11l-1-5c-1.473 0-1-1.952-1-3-2.096 0-3.435-6-8-6 0 10.519-8.488 6-16 6l-2 1v13l3 2c6.088 0 10.845 7 17 7Z"/><path fill="#C8C9CB" id="amc" d="m363 249-1 1 1-1ZM362 250l-1 2 1-2Z"/><path fill="#FF4A3D" id="VMH" d="M224 267c-2.144 0-.381 4.262-1 5.5l-6 8.5h-10.5c-15.09-7.545-5.257-22.872 5-28 7.875-3.937 11.189 6 12.5 6v8ZM254 279c-1.238 0-3 .423-3 2-5.612 0-9.632-.066-13.5-2-10.1-5.05-4.746-40.746 14.5-21.5l5 6c2.577 5.154-1 8.946-1 13.5l-1 1-1 1Z"/><path fill="#C8C9CB" id="amc" d="m361 252-1 1 1-1ZM102 256l-1 1-2-1c0-1.481-2-.785-2-3l5 3Z"/><path fill="#8AD987" id="CTXsp" d="m106 255 1 2 2-4c-1.238 0-3 .423-3 2Z"/><path fill="#C8C9CB" id="amc" d="m360 253-1 1 1-1ZM359 254l-1 1 1-1Z"/><path fill="#80BEE2" id="IA" d="m101 259 5 1 1-3-1-2-4 1-1 1v2ZM350 259h5v-2l-1-1-4-1-1 1c0 1.048-.473 3 1 3Z"/><path fill="#C8C9CB" id="amc" d="M356 256h1v-1l-1 1Z"/><path fill="#8AD987" id="CTXsp" d="m358 255-1 1v-1h1ZM101 257v1l-2-2 2 1Z"/><path fill="#C8C9CB" id="amc" d="M355 257h1v-1h-2l1 1Z"/><path fill="#8AD987" id="CTXsp" d="m357 256-1 1v-1h1ZM356 257l-1 2v-2h1Z"/><path fill="#CCCAC9" id="sup" d="m171 258 5 8.5c.2.399 2.087 5.827 3 4 .767-1.533-6.385-12.5-8-12.5Z"/><path fill="#8AD987" id="CTXsp" d="M106 260v6l-5-7 5 1Z"/><path fill="#F24839" id="TU" d="m196 289 11 1 2-2v-2c0-3.794-4.399-5.45-7.5-7-7.789-3.895-9.134-20-17.5-20l-4 3-1 4c0 6.35 13 19.522 13 21h1l1 1h1l1 1ZM261 289l-12 1-1-1-1-3c0-2.813 4-3.461 4-5 1.238 0 3-.423 3-2l1-1 1-1c5.047 0 9.102-18 16-18l4 3 1 5v2l-2 3.5c-1.704 3.409-8 9.541-8 12.5-1.238 0-3 .423-3 2l-2 1-1 1Z"/><path fill="#CCCAC9" id="sup" d="M284 259c0 1.93 1.93 0 0 0Z"/><path fill="#8AD987" id="CTXsp" d="M355 259c0 1.061-2.571 5-4 5l-1-5h5Z"/><path fill="#CCCAC9" id="sup" d="M283 260c0 1.93 1.93 0 0 0Z"/><path fill="#E64438" id="HY" d="m180 262-1 4c-1.803 0-3-3.592-3-5l4 1ZM281 261l-1 1 1-1Z"/><path fill="#CCCAC9" id="sup" d="M282 261c0 3.746 2.091 0 0 0Z"/><path fill="#E64438" id="HY" d="m280 262-3 5-1-5h4Z"/><path fill="#CCCAC9" id="sup" d="M281 263c0 3.746 2.091 0 0 0ZM277 269c0 6.404 5.068-4 3.5-4l-3.5 4Z"/><path fill="#CAC7CB" id="fiber tracts" d="m295 265-1 1 1-1ZM163 266l1 1-1-1ZM294 266l-1 1 1-1Z"/><path fill="#E64438" id="HY" d="M224 273c0 2.904-3.775 8-7 8l6-8.5c.619-1.238-1.144-5.5 1-5.5v6Z"/><path fill="#99D2BD" id="OLF" d="m131 272 3 1-1-3-2 2ZM323 272h3l-3-2v2Z"/><path fill="#60E5B7" id="COAa" d="M115 299h2c3.459 0 24-7.394 24-10v-1c-1.429 0-7-12.935-7-15l-3-1c-6.536 0-11.37 7-18 7l-1 3c0 6.268 3 11.53 3 17ZM342 298l-3 1c-3.446 0-24-7.922-24-10v-1c2.687 0 8-13.572 8-16h3c6.088 0 10.845 7 17 7l2 3c0 5.774-3 10.587-3 16Z"/><path fill="#FF5B4F" id="ARH" d="M233 291h2c3.962 0 8.688-1 12-1l1-1-1-3c-3.117 0-15-9.707-15-13h-3c0 6.828-2 6.828-2 0h-3c0 2.904-3.775 8-7 8 0 1.985-6.262 5-8 5v4c3.823 0 8.586 1 13 1h11Z"/><path fill="#99D2BD" id="OLF" d="m357 275 2 1-1-3-1 2ZM98 275h2l-1-1-1 1Z"/><path fill="#59D9AA" id="PAA" d="M111 301h2l2-2c0-5.47-3-10.732-3-17l-5-5-2-1-5-1h-2c0 4.548-12 18.599-12 21l9.5 5c3.717 1.858 10.069 1 14.5 1l1-1Z"/><path fill="#8AD987" id="CTXsp" d="M107 277h2l-2-2-2 1 2 1ZM348 277h1l2-1-2-1-1 2Z"/><path fill="#59D9AA" id="PAA" d="m345 301 1 1c4.543 0 24-1.331 24-6 0-4.428-11-14.508-11-20l-2-1-6 1-2 1-1 1-2 1-1 3c0 5.774-3 10.587-3 16l1 3h2Z"/><path fill="#99D2BD" id="OLF" d="m113 279-1 3-5-5h2l4 2Z"/><path fill="#E64438" id="HY" d="m256 277-1 1 1-1Z"/><path fill="#8AD987" id="CTXsp" d="M347 278h1v-1l-1 1Z"/><path fill="#99D2BD" id="OLF" d="m349 277-1 1v-1h1Z"/><path fill="#E64438" id="HY" d="m255 278-1 1 1-1Z"/><path fill="#99D2BD" id="OLF" d="m348 278-2 1 1-1h1Z"/><path fill="#E64438" id="HY" d="M254 279c-1.238 0-3 .423-3 2 1.238 0 3-.423 3-2Z"/><path fill="#99D2BD" id="OLF" d="m346 279-1 3-2-3h3Z"/><path fill="#CAC7CB" id="fiber tracts" d="M267 285c-1.238 0-3 .423-3 2 1.238 0 3-.423 3-2ZM193 287l1 1-1-1ZM264 287l-2 1 2-1Z"/><path fill="#99D2BD" id="OLF" d="m143 288-2 1v-1h2Z"/><path fill="#CAC7CB" id="fiber tracts" d="m195 288 1 1-1-1Z"/><path fill="#E64438" id="HY" d="M207 290h2v-2l-2 2Z"/><path fill="#CAC7CB" id="fiber tracts" d="m262 288-1 1 1-1Z"/><path fill="#99D2BD" id="OLF" d="M315 288v1l-2-1h2Z"/><path fill="#E64438" id="HY" d="M247 290h2l-1-1-1 1ZM223 291v1l-1-1h1Z"/><path fill="#F1473A" id="ME" d="M223 292h10v-1h-10v1Z"/><path fill="#E64438" id="HY" d="m235 291-2 1v-1h2Z"/><path fill="#99D2BD" id="OLF" d="m339 299 4 2-1-3-3 1ZM117 299l-4 2 2-2h2ZM111 301l-1 1 1-1ZM345 301l1 1-1-1Z"/></svg>