<svg xmlns="http://www.w3.org/2000/svg" viewBox="0 0 456 320"><path fill="#098589" id="VISp1" d="M86 69h1c0-1.854 13.516-12.008 15.5-13 6.913-3.457 12.121-9.56 19-13 8.809-4.405 18.247-7.623 27-12 2.667-1.333 22.5-1.735 22.5 2h1c0-1.974 2-3.517 2-6-4.26 0-12.998-3.251-17.5-1-5.983 2.991-13.992 1.996-20 5l-27 13-9 7C98.177 52.161 84 62.266 84 65l2 4ZM369 69h1l2-4c0-3.8-10.868-10.684-13.5-12-7.338-3.67-12.741-10.37-20-14-9.861-4.93-21.18-7.09-31-12L288 26c-1.357 0-6 .647-6 2l2 5h1c0-3.464 19.731-3.385 22.5-2 16.186 8.093 35.285 13.285 49 27 2.323 2.323 12.5 6.677 12.5 11Z"/><path fill="#1BA696" id="RSPagl1" d="M186 39c-2.774 0-6.035 3-9 3 0-2.824-.979-9-5-9 0-1.974 2-3.517 2-6 4.024 0 12 7.92 12 12ZM271 38c0 1.714 7.603 5 9 5 0-2.544-.411-10 4-10l-2-5c-4.688 0-11 5.832-11 10Z"/><path fill="#0A828C" id="VISp2/3" d="m87 69 4 6c4.519 0 19.168-15.334 24.5-18 11.514-5.757 22.621-12.31 34-18 4.052-2.026 11.799 1 15.5 1 2.575 0 6-4.58 6-7 0-3.735-19.833-3.333-22.5-2-8.753 4.377-18.191 7.595-27 12-6.879 3.44-12.087 9.543-19 13-1.984.992-15.5 11.146-15.5 13ZM369 69c0 .853-2.992 6-4 6-3.429 0-16.55-13.525-21.5-16-6.675-3.338-12.283-8.641-19-12l-18-8c-4.052-2.026-11.799 1-15.5 1 0-1.562-6-4.286-6-7 0-3.464 19.731-3.385 22.5-2 16.186 8.093 35.285 13.285 49 27 2.323 2.323 12.5 6.677 12.5 11Z"/><path fill="#1AA496" id="RSPagl2/3" d="M161 45c1.429 0 4 1.288 4 3l11-5 1-1c0-2.824-.979-9-5-9h-1c0 2.42-3.425 7-6 7l-4 4v1ZM295 44c0 1.353-3 2.158-3 5-3.964 0-7.401-6-12-6 0-2.544-.411-10 4-10h1c0 2.714 6 5.438 6 7l4 4Z"/><path fill="#1BA598" id="RSPd1" d="m306 77-2 2-6-6.5c-6.637-6.636-15.018-14.037-19-22l-8-9c-.516-1.032-.882-3.5 0-3.5 0 1.714 7.603 5 9 5 0 9.67 13.02 16.54 17 24.5l9 9.5Z"/><path fill="#0B848B" id="VISp4" d="m91 76 3 3c7.598 0 15.687-13.093 21.5-16 16.052-8.026 25.836-19 45.5-19l4-4c-3.701 0-11.448-3.026-15.5-1-11.379 5.69-22.486 12.243-34 18-5.332 2.666-19.981 18-24.5 18v1Z"/><path fill="#1BA598" id="RSPd1" d="m151 77 2 2c0-2.43 5.282-5.064 6-6.5 4.582-9.165 15.781-15.563 20-24 1.792-3.584 7-5.19 7-9.5-2.774 0-6.035 3-9 3l-1 1c0 10.293-25 29.333-25 34Z"/><path fill="#0B848B" id="VISp4" d="m365 76-3 3c-4.852 0-16.374-13.437-21.5-16-16.524-8.262-23.824-19-44.5-19h-1l-4-4c3.701 0 11.448-3.026 15.5-1l18 8c6.717 3.359 12.325 8.662 19 12 4.95 2.475 18.071 16 21.5 16v1Z"/><path fill="#FF7AFD" id="SCzo" d="M227 65h2l1-1c0-19.833 17.851-24.825 33.5-17 6.379 3.19 10.074 9.537 15 12l8.5 12c0-6.002-5.969-8.439-8-12.5-4.616-9.232-26.374-22.063-39.5-15.5-3.723 1.862-8.582 5.665-10.5 9.5l-.5 4.5-2-6c-4.193-2.097-7.744-6.372-13-9-8.888-4.444-26.339 6.34-32 12-2.244 2.244-7.5 5.812-7.5 9l12.5-12c16.692-8.346 39.5-14.084 39.5 13l1 1Z"/><path fill="#1BA697" id="RSPd2/3" d="M147 77h4c0-4.667 25-23.707 25-34l-11 5v1c0 10.006-18 22.495-18 28ZM306 77h4l-7-7.5c-3.552-7.103-11-11.509-11-20.5-3.964 0-7.401-6-12-6 0 9.67 13.02 16.54 17 24.5l9 9.5Z"/><path fill="#088389" id="VISp5" d="M103 85h1l8-7.5c7.085-7.085 19.045-18.5 29-18.5h2c0-2.99 14.022-14 18-14v-1c-19.664 0-29.448 10.974-45.5 19-5.813 2.907-13.902 16-21.5 16v1l1 2c1.495 0 4.137 3 8 3Z"/><path fill="#FF78FF" id="SCsg" d="M226 64c-3.784 0-9.57-14.965-19.5-10-7.275 3.638-15.69 5.345-23 9-3.543 1.771-8.386 8-13.5 8l4-8 12.5-12c16.692-8.346 39.5-14.084 39.5 13ZM287 71v1l-10.5-7c-8.683-4.342-18.411-6.706-27-11-10.131-5.065-15.325 10-19.5 10 0-19.833 17.851-24.825 33.5-17 6.379 3.19 10.074 9.537 15 12l8.5 12Z"/><path fill="#1CA697" id="RSPagl5" d="m314 59-3 3c-6.903 0-11.995-13-19-13 0-2.842 3-3.647 3-5h1c0 3.124 18 11.479 18 15Z"/><path fill="#088389" id="VISp5" d="M352 85h2c3.47 0 5.278-3 8-3v-3c-4.852 0-16.374-13.437-21.5-16-16.524-8.262-23.824-19-44.5-19 0 3.124 18 11.479 18 15h1c12.386 0 19.073 13.286 28.5 18l8.5 8Z"/><path fill="#1CA697" id="RSPagl5" d="M145 62h1c4.438 0 13.357-13 19-13v-1c0-1.712-2.571-3-4-3-3.978 0-18 11.01-18 14 1.577 0 2 1.762 2 3Z"/><path fill="#1AA596" id="RSPd5" d="M147 77c-3.894 0-6.605 2-10 2 0-4.024 9-9.675 9-17 4.438 0 13.357-13 19-13 0 10.006-18 22.495-18 28ZM310 77c3.447 0 6.245 2 9 2 0-4.543-8-8.546-8-16v-1c-6.903 0-11.995-13-19-13 0 8.991 7.448 13.397 11 20.5l7 7.5Z"/><path fill="#FD7AFF" id="SCop" d="M169 72v3c4.319 0 9.677-6.088 13.5-8l19-8c11.341-5.67 19.033 8 25.5 8v-2l-1-1c-3.784 0-9.57-14.965-19.5-10-7.275 3.638-15.69 5.345-23 9-3.543 1.771-8.386 8-13.5 8l-1 1ZM287 72l1 3c-3.655 0-7.335-4.417-10.5-6-7.511-3.756-15.556-6.278-23-10-11.195-5.597-17.964 8-25.5 8v-2l1-1c4.175 0 9.369-15.065 19.5-10 8.589 4.294 18.317 6.658 27 11l10.5 7Z"/><path fill="#FF90FF" id="SCig" d="M166 84c3.994 0 8.976-5.238 12.5-7 7.982-3.99 17.063-6.031 25-10 7.407-3.703 16.732 3.366 22 6l2-2 3 2 11-6c9.397-4.699 36.279 10.14 44 14l4.5 3c4.049 0-2-8.613-2-9-3.655 0-7.335-4.417-10.5-6-7.511-3.756-15.556-6.278-23-10-11.195-5.597-17.964 8-25.5 8h-2c-6.467 0-14.159-13.67-25.5-8l-19 8c-3.823 1.912-9.181 8-13.5 8h-1l-1 1c0 .778-4.301 8-1 8Z"/><path fill="#08858C" id="VISp6a" d="M120 82c-4.802 0-10.919 3-16 3l8-7.5c7.085-7.085 19.045-18.5 29-18.5 0 4.507-21 18.439-21 23Z"/><path fill="#1CA597" id="RSPagl6a" d="m129 81-9 1c0-4.561 21-18.493 21-23h2c1.577 0 2 1.762 2 3l-4.5 5c-2.6 2.6-6.914 14-11.5 14ZM327 81l10 2c0-2.55-22-21.625-22-24h-1l-3 3v1c6.285 0 10.805 18 16 18Z"/><path fill="#08858C" id="VISp6a" d="M337 83h10.5c1.125 0 2.557 2 4.5 2l-8.5-8c-9.427-4.714-16.114-18-28.5-18 0 2.375 22 21.45 22 24Z"/><path fill="#1AA697" id="RSPd6a" d="M129 81v2l8-4c0-4.024 9-9.675 9-17h-1l-4.5 5c-2.6 2.6-6.914 14-11.5 14Z"/><path fill="#FF7AFD" id="SCzo" d="m170 71-1 1c0-2.453 1.762-9 5-9l-4 8Z"/><path fill="#1AA697" id="RSPd6a" d="m327 81 2 3-10-5c0-4.543-8-8.546-8-16 6.285 0 10.805 18 16 18Z"/><path fill="#09848A" id="VISl1" d="m69 81 4 1 13-13-2-4c-1.317 0-15 14.465-15 16ZM388 81l-5 1-13-13 2-4 16 16Z"/><path fill="#FF90FE" id="SCiw" d="M175 96c2.29 0 8.181-5.84 10.5-7l24-12c5.681-2.84 16.001 5 20 3 3.336-1.668 13.751-5.125 18-3 9.042 4.52 18.004 9.502 27 14l7.5 5c0-.256 8-9.07 8-12l-4.5-3c-7.721-3.86-34.603-18.699-44-14l-11 6-3-2-2 2c-5.268-2.634-14.593-9.703-22-6-7.937 3.969-17.018 6.01-25 10-3.524 1.762-8.506 7-12.5 7 0 1.304 6.714 12 9 12Z"/><path fill="#0A8489" id="VISl2/3" d="M83 83h1l7-7v-1l-4-6h-1L73 82v1h1c2.721 0 9-.945 9 0ZM374 83h9v-1l-13-13h-1c0 .853-2.992 6-4 6v1l8 7h1Z"/><path fill="#FF64FF" id="MB" fill-rule="evenodd" d="M307 139c0 15.828 14.911 0 0 0m-4 17c3.726 0 5.329-3.086 9.5-1 2.849 1.424 3.789 10 4.5 10l.5-17 2.5 2v-23c-7.763 0-1.827-18-7-18 0 8.561 3.567 10.367-1 19.5-3.694 7.388-21 1.603-21-11.5l-2.5 2c-3.828 0-6.092-13 2.5-13 0-3.067.765-4.029 2-6.5l2-6c6.138-12.275 16.281 14.5 18 14.5 0-9.157-14-17.772-14-25l-10-7.5c-.559-1.119-.155-4.5-2-4.5v1l1 3c0 .387 6.049 9 2 9 0 2.93-8 11.744-8 12 0 10.842-3.429 14-14 14l-3 3c0 3.331.582 7.663 2 10.5.574 1.147-1.064 4.5 1 4.5 0-11.773 23-5.969 23 3 13.094 0 5 9.501 8 15.5 2.194 4.387 4 4.063 4 9.5Z"/><path fill="#FF64FF" id="MB" d="M168 75h1v-3c-1.473 0-1 1.952-1 3ZM168 75l-1 1 1-1Z"/><path fill="#08828B" id="VISl4" d="M89 83h1l4-3v-1l-3-3-7 7h5Z"/><path fill="#FF64FF" id="MB" fill-rule="evenodd" d="M144 139c0 1.423-1.978 3.544-1 5.5 2.379 4.759 10.641-2.929 5.5-5.5H144m9 17c-1.984 0-3.945-3.278-6.5-2-1.287.643-6.201 5-6.5 5 0-1.643.984-11-1.5-11l-2.5 4v-19c0-1.321-.684-6 1-6 0 3.753 3.765-3.03 4-3.5 1.16-2.321-1.769-14.5 2-14.5 0 5.454-2.655 12.189 0 17.5 6.448 12.896 23 .171 23-9.5 9.109 0 4.108-11.196 2.5-12l-3.5 1c0-4.549-3.441-16-8.5-16-2.925 0-10.621 15-11.5 15 0-8.314 13-15.908 13-22l9-7c0 .778-4.301 8-1 8 0 1.304 6.714 12 9 12 0 10.481.471 14 13 14l3 2c0 5.014-2 9.622-2 14-.867 0-5.939-4.219-7.5-5-4.213-2.106-16.5 5.926-16.5 10-13.094 0-5 9.501-8 15.5-1.963 3.926-4 4.598-4 9.5Z"/><path fill="#08828B" id="VISl4" d="M368 83h5l-8-7-3 3v1l4 3h2Z"/><path fill="#33B932" id="APr" d="M112 93c0 2.985 10.663 19.825 13 24.5.819 1.637 1.175 7.5 4 7.5 2.615 0 8.513-21.526 10-24.5 1.711-3.422 14-19.666 14-21.5l-2-2h-4c-3.894 0-6.605 2-10 2l-8 4-2 2-1 1-14 7Z"/><path fill="#FF8FFF" id="SCdg" d="M188 110c0-5.801 6.962-9.424 9-13.5 6.036-12.072 20.325-10.5 33-10.5l11.5-1 10 5c6.422 3.211 16.5 12.315 16.5 20 10.571 0 14-3.158 14-14l-7.5-5c-8.996-4.498-17.958-9.48-27-14-4.249-2.125-14.664 1.332-18 3-3.999 2-14.319-5.84-20-3l-24 12c-2.319 1.16-8.21 7-10.5 7 0 10.481.471 14 13 14Z"/><path fill="#33B932" id="APr" d="M345 93c0 4.469-4.599 5.697-6 8.5l-7 17c-.737 1.475-3.13 7.5-5 7.5 0-4.572-11.357-28.213-14-33.5-1.962-3.924-9-9.057-9-13.5l2-2h4c3.447 0 6.245 2 9 2l10 5c0 4.28 16 7.597 16 9Z"/><path fill="#0B858B" id="VISl5" d="m95 82-5 1 4-3 1 2ZM362 82l4 1-4-3v2Z"/><path fill="#09818C" id="VISpor1" d="m48 130-5 4c0-16.771 3.92-30.419 16.5-43L69 81l4 1v1c-2.733 0-8.96 9.422-10 11.5l-6 7c-4.77 9.542-8 15.757-8 27.5l-1 1Z"/><path fill="#08838C" id="VISpl6a" d="m90 103-3 1c0-6.573 16-17.752 16-19h1c5.081 0 11.198-3 16-3l9-1v2c-1.747 0-2 .253-2 2l-1 1-14 7c-1.424 0-5 .362-5 2h-1l-2 1c-1.566 0-9 2.79-9 4l-1 1h-1l-1 1h-1l-1 1ZM365 102l7 4c0-4.507-18-19.253-18-21h-2c-1.943 0-3.375-2-4.5-2H337l-10-2 2 3c0 4.28 16 7.597 16 9 2.25 0 3.376 2 5 2h1l1 1c1.955 0 10 2.565 10 5h2l1 1Z"/><path fill="#09818C" id="VISpor1" d="M408 130c2.741 0 2.75 4 5 4 0-14.058-2.282-22.065-8-33.5l-7-8c-1.304-2.607-8.086-11.5-10-11.5l-5 1v1c3.072 0 6.274 6.774 8.5 9 10.056 10.056 16.5 22.721 16.5 37v1Z"/><path fill="#09848C" id="VISpl2/3" d="m83 83-6 5c-1.077 0-3-3.762-3-5 2.721 0 9-.945 9 0Z"/><path fill="#0B838C" id="VISpl5" d="M84 106h1l1-1 1-1c0-6.573 16-17.752 16-19-3.863 0-6.505-3-8-3l-5 1h-1l-10 8v1l4 9.5-1 3 2 1.5Z"/><path fill="#C9C8C8" id="bic" d="M143 109c-3.769 0-.84 12.179-2 14.5-.235.47-4 7.253-4 3.5 0-13.237 4.572-22.643 10-33.5l7.5-9.5c.593-.593 3.5-3.679 3.5-1 0 6.092-13 13.686-13 22-2.109 0-2 2.535-2 4ZM313 109c5.173 0-.763 18 7 18 0-9.102-4.37-25.87-10.5-32-2.153-2.153-6.02-8.54-7.5-11.5-.493-.987-3-2.617-3-.5 0 7.228 14 15.843 14 25v1Z"/><path fill="#0B838C" id="VISpl5" d="M377 92c0 4.35-2 8.515-2 12.5l-3 1.5c0-4.507-18-19.253-18-21 3.47 0 5.278-3 8-3l4 1h2l9 8v1Z"/><path fill="#09848C" id="VISpl2/3" d="m383 83-4 5-5-5h9Z"/><path fill="#0A8389" id="VISpor2/3" d="M58 123c-4.217 0-5.289 6-9 6 0-11.743 3.23-17.958 8-27.5l6-7C64.04 92.422 70.267 83 73 83h1c0 1.238 1.923 5 3 5v1l-6 6.5 2 1.5c0 3.933-13 16.533-13 24l-2 2Z"/><path fill="#0B858A" id="VISpl4" d="m77 89 2 2 10-8h-6l-6 5v1Z"/><path fill="#1AA697" id="RSPd6a" d="M129 83c-1.747 0-2 .253-2 2l2-2Z"/><path fill="#0B858A" id="VISpl4" d="m379 89-2 2-9-8h6l5 5v1Z"/><path fill="#0A8389" id="VISpor2/3" d="m398 122 10 7c0-14.279-6.444-26.944-16.5-37-2.226-2.226-5.428-9-8.5-9l-4 5v1c2.216 0 7.885 8 4 8 0 2.726 14 18.077 14 24l1 1Z"/><path fill="#1AA697" id="RSPd6a" d="m127 85-1 1 1-1Z"/><path fill="#FF8FFE" id="SCdw" d="m191 112 3-6.5c3.529-7.057 8.811-12.655 16.5-16.5 4.015-2.008 32.005-1.998 36 0 7.701 3.85 18.5 14.554 18.5 24l3-3c0-7.685-10.078-16.789-16.5-20l-10-5-11.5 1c-12.675 0-26.964-1.572-33 10.5-2.038 4.076-9 7.699-9 13.5l3 2Z"/><path fill="#FC8FFF" id="PAG" d="m243 155-10 4c0-2.568 2.14-23.22 2-23.5l-4-4.5v-5c0-3.627 7.414-6.672 5-11.5l-3-2c-2.756-5.511-4.867-8.265-8-2l-5 5c-1.586 3.171 5 7.468 5 10.5l1 5c-6.237 0-3 24.297-3 28l-10-4-16-8-3-1-4-3v-1l-1-1v-3l-1-1v-3l1-8c0-4.378 2-8.986 2-14l3-6.5c3.529-7.057 8.811-12.655 16.5-16.5 4.015-2.008 32.005-1.998 36 0 7.701 3.85 18.5 14.554 18.5 24 0 3.331.582 7.663 2 10.5.574 1.147-1.064 4.5 1 4.5 0 1.235-.643 5 1 5v2l-1 2v1l-1 2v2l-1 1-1 1-3 2-2 1c-6.585 0-10.397 8-17 8Z"/><path fill="#0A828A" id="VISpor4" d="m79 92-6 5-2-1.5 6-6.5 2 2v1ZM377 92l6 5c3.885 0-1.784-8-4-8l-2 2v1Z"/><path fill="#FE79FE" id="ICe" d="M143 109c0 5.454-2.655 12.189 0 17.5 6.448 12.896 23 .171 23-9.5 0-3.249-1-7.194-1-11 0-4.549-3.441-16-8.5-16-2.925 0-10.621 15-11.5 15l-2 4ZM313 109c0 8.561 3.567 10.367-1 19.5-3.694 7.388-21 1.603-21-11.5v-11c0-3.067.765-4.029 2-6.5l2-6c6.138-12.275 16.281 14.5 18 14.5v1Z"/><path fill="#0B838A" id="VISpor5" d="m65 120-5 1c0-7.467 13-20.067 13-24l6-5 4 9.5-1 3 2 1.5v1l-3 3c-3.531 0-6.459 5.479-9.5 7l-6.5 3ZM391 120l6 1c0-5.923-14-21.274-14-24l-6-5c0 4.35-2 8.515-2 12.5l-3 1.5v1c1.238 0 3 .423 3 2l6.5 6 9.5 5Z"/><path fill="#72D568" id="PAR" d="M108 174c0 3.771 3 7.478 3 11 2.005 0 3.102-11.704 4-13.5 3.495-6.991 14-39.195 14-46.5-2.825 0-3.181-5.863-4-7.5-2.337-4.675-13-21.515-13-24.5-1.424 0-5 .362-5 2v2l2 2c3.669 0 3 7.518 3 10 1.758 0 1 7.884 1 9.5 0 9.905-4 18.794-4 28.5 0 8.888-1 18.327-1 27ZM349 173c-2.435 0-.688 12-4 12l-18-59c1.87 0 4.263-6.025 5-7.5l7-17c1.401-2.803 6-4.031 6-8.5 2.25 0 3.376 2 5 2l-1 2v1l-1 1c-3.371 0-4 6.666-4 9 0 3.202-2.735 9.03-1 12.5 3.093 6.186 4 18.361 4 25.5l1 1v1l1 25ZM106 95l-2 1 2-1Z"/><path fill="#C8CBCC" id="ec" d="M95 100v1c3.787 0 7.613-3 12-3v-3h-1l-2 1c-1.566 0-9 2.79-9 4ZM350 98c4.268 0 8.136 3 12 3 0-2.435-8.045-5-10-5l-1-1h-1l-1 2 1 1Z"/><path fill="#72D568" id="PAR" d="m351 95 1 1-1-1Z"/><path fill="#7DCD4B" id="HPF" d="M107 99h2l-2-2v2ZM349 98h1l-1-1v1Z"/><path fill="#32B623" id="ENTm6" d="M69 171v1c2.256 0 3.812 7.344 8.5 5 7.047-3.524 4.9-14.3 7.5-19.5 4.852-9.704 3.142-22.284 8-32 2.358-4.716 5.182-26.5 14-26.5v-1c-4.387 0-8.213 3-12 3h-2l-1 1h-1l-1 1-3 1-1 1-1 1-1 1c0 8.458-7.501 40.502-11 47.5-1.13 2.26-1.107 16.5-4 16.5Z"/><path fill="#7DCD4B" id="HPF" d="m349 98-1 1 1-1Z"/><path fill="#30B724" id="ENTm5" d="M391 189v1c-5.422 0-11.968 9.266-18.5 6-6.909-3.454-4.853-12.207-7.5-17.5-5.783-11.566-3.949-27.898-10-40-3.702-7.405-4.226-16.451-8-24-.57-1.139-1.675-6.5-3-6.5 0-2.334.629-9 4-9l1-1h1c0 .053 10.906 16.311 12 18.5 5.117 10.234 4.621 34.243 10 45 2.186 4.373.966 12.733 6.5 15.5 4.823 2.411 5.843-4 8.5-4l4 16Z"/><path fill="#32B623" id="ENTm6" d="M387 170v3c-2.657 0-3.677 6.411-8.5 4-5.534-2.767-4.314-11.127-6.5-15.5-5.379-10.757-4.883-34.766-10-45-1.094-2.189-12-18.447-12-18.5 4.268 0 8.136 3 12 3h2l1 1 7 4v1c0 3.374 7.867 39.234 9 41.5l2 5c0 2.195 2.281 16.5 4 16.5Z"/><path fill="#30B724" id="ENTm5" d="M65 189v1c5.273 0 12.583 8.958 18.5 6 6.474-3.237 4.776-10.052 7.5-15.5 6.04-12.082 3.903-27.805 10-40 3.003-6.006 3.99-16.981 8-25 .663-1.326 1.002-6.5 3-6.5 0-2.482.669-10-3-10h-2c-8.818 0-11.642 21.784-14 26.5-4.858 9.716-3.148 22.296-8 32-2.6 5.2-.453 15.976-7.5 19.5-4.688 2.344-6.244-5-8.5-5 0 3.231-.563 10.626-2 13.5l-2 3.5Z"/><path fill="#7DCD4B" id="HPF" d="M94 101h1v-1l-1 1ZM93 101l-1 1 1-1ZM364 101l1 1-1-1ZM91 102l-1 1 1-1Z"/><path fill="#08838C" id="VISpl6a" d="m87 104-1 1 1-1Z"/><path fill="#FF64FF" id="MB" d="M145 105c-2.109 0-2 2.535-2 4l2-4Z"/><path fill="#FE79FF" id="ICd" d="m165 106 3.5-1c1.608.804 6.609 12-2.5 12 0-3.249-1-7.194-1-11ZM291 106c-8.592 0-6.328 13-2.5 13l2.5-2v-11Z"/><path fill="#0C858B" id="VISpor6a" d="m85 106-1 1v-1h1Z"/><path fill="#A9A9A8" id="AQ" d="M225 126h6c0-3.627 7.414-6.672 5-11.5l-3-2c-2.756-5.511-4.867-8.265-8-2l-5 5c-1.586 3.171 5 7.468 5 10.5Z"/><path fill="#32B824" id="ENTl6a" d="M81 110c0 2.295-8.445 15.39-10 18.5-4.884 9.768-2 31.329-2 42.5 2.893 0 2.87-14.24 4-16.5 3.499-6.998 11-39.042 11-47.5l-3 3ZM375 109c0 2.995 8.239 14.978 10 18.5 1.474 2.948 5.566 31.869 4 35-.805 1.61-2 5.802-2 7.5-1.719 0-4-14.305-4-16.5l-2-5c-1.133-2.266-9-38.126-9-41.5 1.238 0 3 .423 3 2Z"/><path fill="#31B723" id="ENTm3" d="M391 190c0 3.157 2 5.481 2 9-6.077 0-23.155 17.191-30 3.5-6.318-12.636-3.655-29.309-10-42-.932-1.864-2.761-12.5-5-12.5v-1l-1-1c0-7.139-.907-19.314-4-25.5-1.735-3.47 1-9.298 1-12.5 1.325 0 2.43 5.361 3 6.5 3.774 7.549 4.298 16.595 8 24 6.051 12.102 4.217 28.434 10 40 2.647 5.293.591 14.046 7.5 17.5 6.532 3.266 13.078-6 18.5-6ZM65 190c0 3.519-2 5.843-2 9 3.175 0 24.143 14.214 28 6.5 6.938-13.876 5.378-30.756 12-44 .906-1.812 4.283-14.5 6-14.5 0-9.706 4-18.595 4-28.5 0-1.616.758-9.5-1-9.5-1.998 0-2.337 5.174-3 6.5-4.01 8.019-4.997 18.994-8 25-6.097 12.195-3.96 27.918-10 40-2.724 5.448-1.026 12.263-7.5 15.5-5.917 2.958-13.227-6-18.5-6Z"/><path fill="#31B824" id="ENTl5" d="m387 173 4 16c5.212 0 6-14.193 6-18 0-5.364.216-29.069-2-33.5-1.919-3.838-4-13.301-4-17.5l-9.5-5-6.5-6c0 2.995 8.239 14.978 10 18.5 1.474 2.948 5.566 31.869 4 35-.805 1.61-2 5.802-2 7.5v3ZM69 172c0 3.231-.563 10.626-2 13.5l-2 3.5c-4.267 0-3.8-10.1-5-12.5-6.481-12.962 5-43.1 5-56.5l6.5-3c3.041-1.521 5.969-7 9.5-7 0 2.295-8.445 15.39-10 18.5-4.884 9.768-2 31.329-2 42.5v1Z"/><path fill="#32B725" id="ENTl3" d="M65 190c0 3.519-2 5.843-2 9-4.146 0-7.61-13.721-9-16.5-8.057-16.113 4-42.452 4-59.5l2-2 5-1c0 13.4-11.481 43.538-5 56.5 1.2 2.4.733 12.5 5 12.5v1ZM391 190c0 3.157 2 5.481 2 9 3.978 0 6.756-11.012 8-13.5 10.1-20.201-3-42.443-3-63.5l-1-1-6-1c0 4.199 2.081 13.662 4 17.5 2.216 4.431 2 28.136 2 33.5 0 3.807-.788 18-6 18v1Z"/><path fill="#FF8FFD" id="MRN" d="M162 142h3c2.769 0 22-22.702 22-8h1l1-8c-.867 0-5.939-4.219-7.5-5-4.213-2.106-16.5 5.926-16.5 10 5.142 0-3 8.519-3 11ZM291 142h4c0-2.345-9.177-11-4-11 0-8.969-23-14.773-23-3 0 1.235-.643 5 1 5 0-12.251 22 8.691 22 9Z"/><path fill="#32B825" id="ENTl2" d="m393 199 3 8c5.29 0 9.227-10.954 11-14.5 14.009-28.019 1-35.58 1-62.5v-1l-10-7c0 21.057 13.1 43.299 3 63.5-1.244 2.488-4.022 13.5-8 13.5ZM63 199c0 1.07-2.384 8-3 8-3.959 0-9.602-12.704-11-15.5-12.758-25.515-1-35.782-1-61.5l1-1c3.711 0 4.783-6 9-6 0 17.048-12.057 43.387-4 59.5 1.39 2.779 4.854 16.5 9 16.5Z"/><path fill="#FF64FF" id="MB" d="M226 131h5v-5h-6l1 5Z"/><path fill="#FC90FF" id="CUN" d="M163 153h2l15-1h1c0-1.473 1.952-1 3-1 0-1.074 6-2.338 6-8v-1l-1-1v-3l-1-1v-2l-1-1c0-14.702-19.231 8-22 8l-3 5.5 1 5.5ZM291 153h2l1-6.5c-.535-1.07-3-4.098-3-4.5 0-.309-22-21.251-22-9v2l-1 2v1l-1 2v2l-1 1v1c0 4.454 6 4.336 6 7 1.048 0 3-.473 3 1h2l14 1Z"/><path fill="#32B722" id="ENTl1" d="m60 208-3 4-8-7.5c-3.102-6.204-6.575-14.15-10-21v-4c-7.442-14.883 4-30.93 4-45.5l5-4c0 25.718-11.758 35.985 1 61.5 1.398 2.796 7.041 15.5 11 15.5v1ZM396 208l3 4c5.137 0 12.418-15.337 14-18.5 2.998-5.995 9.914-28.173 6-36-2.542-5.083-6-17.617-6-23.5-2.25 0-2.259-4-5-4 0 26.92 13.009 34.481-1 62.5-1.773 3.546-5.71 14.5-11 14.5v1Z"/><path fill="#C9C9CB" id="ll" d="M158 180c0 2.2-1.02 10-4.5 10-1.439 0 .659-4-1.5-4 0-4.145 1.206-9.912 3-13.5 2.515-5.029-2-12.55-2-16.5 0-4.902 2.037-5.574 4-9.5 3-5.999-5.094-15.5 8-15.5 5.142 0-3 8.519-3 11-1.788 0-1 11.092-1 13 0 7.828-2 13.263-2 21-1.579 0-1 2.855-1 4Z"/><path fill="#FDA6FF" id="DR" d="M225 165c.192 0 6 6.321 6 0v-1l1-1 1-2v-2c0-2.568 2.14-23.22 2-23.5l-4-4.5h-5c-6.237 0-3 24.297-3 28l2 4v2Z"/><path fill="#C9C9CB" id="ll" d="M298 179c0 3.766 6 16.395 6 8 0-6.21-.463-10.426-3-15.5-2.428-4.857 2-11.553 2-15.5 0-5.437-1.806-5.113-4-9.5-3-5.999 5.094-15.5-8-15.5-5.177 0 4 8.655 4 11 0 4.925 1 10.521 1 16l1 12c1.751 0 1 7.426 1 9Z"/><path fill="#FF64FF" id="MB" d="M188 134v1l-1-1h1ZM269 135l-1 2 1-2ZM188 137l1 1-1-1ZM268 138l-1 2 1-2Z"/><path fill="#FF7AFE" id="SAG" d="M144 139c0 1.423-1.978 3.544-1 5.5 2.379 4.759 10.641-2.929 5.5-5.5H144ZM307 139c0 15.828 14.911 0 0 0Z"/><path fill="#FF64FF" id="MB" d="m189 141 1 1-1-1ZM163 153l-2 2c0-1.908-.788-13 1-13h3l-3 5.5 1 5.5ZM267 142l-1 1 1-1ZM293 153l3 5c0-5.479-1-11.075-1-16h-4c0 .402 2.465 3.43 3 4.5l-1 6.5Z"/><path fill="#FF8FFD" id="MRN" d="M212 188c0-2.36 3.959 0 5 0v-3c-4.789 0-7.588-7.456-2.5-10 3.09-1.545 3.915 4 5.5 4 2.711 0 2-10.457 2-12-1.428 0-4-4.822-4-6l-1-1c-1.606 0-4.339 2.081-6.5 1-3.14-1.57 1.981-4 3.5-4l-1-2-16-8c0 2.216-3 .348-3-1l-4-3c0 5.662-6 6.926-6 8l1 1c0 2.658 7 6.013 7 11 6.548 0 14.992 1.246 20.5 4 3.429 1.714.965 5.018-1 6H201l1 4.5c-2.672 5.343-13.243 7.5-19 7.5v1h2l11.5-1c2.14 1.07 3.887 2 6.5 2l9 1Z"/><path fill="#FF64FF" id="MB" d="M265 144h1v-1l-1 1Z"/><path fill="#FF8FFD" id="MRN" d="M239 188c1.041 0 5-2.36 5 0l10-1 5.5-2 12.5 1h1v-1c-3.637 0-16.183-1.866-18-5.5-1.081-2.161 1-4.894 1-6.5-4.07 0-9.093.703-12.5-1-1.909-.954-1.616-4.192 0-5 5.677-2.839 14.746-4 21.5-4 0-3.083 2.833-11 7-11v-1c0-2.664-6-2.546-6-7h-1l-3 2c0 1.652-2 3.092-2 1-6.585 0-10.397 8-17 8l-1 2c10.5 0-2 7.86-2 2l-2 2-3 6c0 1.846-1.742 14 2 14 0-12.818 13.844-.672 4.5 4-2.116 1.058-2.898-2-4.5-2l1 2c1.473 0 1 1.952 1 3Z"/><path fill="#C8C9C8" id="IVn" d="m194 146 3 1c0 2.216-3 .348-3-1ZM262 146l-2 1c0 2.092 2 .652 2-1Z"/><path fill="#30B824" id="ENTm2" d="m347 146 1 1-1-1ZM60 207v1c7.304 0 22.308 14.596 33.5 9 8.791-4.395 7.648-24.795 11.5-32.5.877-1.754.444-10.5 3-10.5 0-8.673 1-18.112 1-27-1.717 0-5.094 12.688-6 14.5-6.622 13.244-5.062 30.124-12 44-3.857 7.714-24.825-6.5-28-6.5 0 1.07-2.384 8-3 8Z"/><path fill="#C9C9CB" id="ll" d="m136 193 5 4-1-6-2-3.5c-1.149-2.298 2-23.193 2-28.5 0-1.643.984-11-1.5-11l-2.5 4c0 3.604-.377 11.254-2 14.5-.221.442 1 19.609 1 22.5l1 4ZM320 193c-1.907 0-2.382 4-5 4l1-6c2.143 0 2-4.797 2-6.5l-1-19.5.5-17 2.5 2c0 3.24.641 6.781 2 9.5 2.571 5.141-1 23.826-1 29.5l-1 4Z"/><path fill="#30B824" id="ENTm2" d="M396 207v1c-5.418 0-23.207 13.646-30.5 10-10.594-5.297-7.915-16.329-12.5-25.5v-5c-1.891-3.782-4-10.143-4-14.5l-1-25c2.239 0 4.068 10.636 5 12.5 6.345 12.691 3.682 29.364 10 42 6.845 13.691 23.923-3.5 30-3.5l3 8Z"/><path fill="#FF64FF" id="MB" d="M181 152h4l-1-1c-1.048 0-3-.473-3 1ZM272 152h3c0-1.473-1.952-1-3-1v1ZM180 152l-15 1c0 2.124 15 1.154 15-1Z"/><path fill="#FFA5FD" id="PPN" d="m183 185-1 1c-4.681 0-21 .807-21-6l-2-4c0-7.737 2-13.172 2-21l2-2h2c0 2.124 15 1.154 15-1h5c0 2.658 7 6.013 7 11-2.207 0-.338 5.176-1 6.5l-3 3 13 .5 1 4.5c-2.672 5.343-13.243 7.5-19 7.5ZM273 185l2 1c4.766 0 11.49 1.005 15.5-1l6.5-6v-9l-1-12-3-5h-2c0 2.189-14 1.009-14-1h-5c-4.167 0-7 7.917-7 11 0 3.82 3 8.329 3 9.5l-12 .5c0 1.606-2.081 4.339-1 6.5 1.817 3.634 14.363 5.5 18 5.5Z"/><path fill="#FF64FF" id="MB" d="m277 152 14 1c0 2.189-14 1.009-14-1Z"/><path fill="#FFAC6F" id="NLL" d="M152 186c0 12.084-8.253 5-12 5l-2-3.5c-1.149-2.298 2-23.193 2-28.5.299 0 5.213-4.357 6.5-5 2.555-1.278 4.516 2 6.5 2 0 3.95 4.515 11.471 2 16.5-1.794 3.588-3 9.355-3 13.5ZM304 187c1.076 0 1.46 4.98 3.5 6 3.473 1.736 7.052-2 8.5-2 2.143 0 2-4.797 2-6.5l-1-19.5c-.711 0-1.651-8.576-4.5-10-4.171-2.086-5.774 1-9.5 1 0 3.947-4.428 10.643-2 15.5 2.537 5.074 3 9.29 3 15.5Z"/><path fill="#FF64FF" id="MB" d="M218 161c3.162 0 5.166 2 7 2l-2-4-10-4 1 2 3 3 1 1ZM233 161c1.041 0 5-2.36 5 0l2-2 2-2 1-2-10 4v2Z"/><path fill="#FE8DFE" id="Pa4" d="m214 157 3 3c-1.606 0-4.339 2.081-6.5 1-3.14-1.57 1.981-4 3.5-4ZM242 157c10.5 0-2 7.86-2 2l2-2Z"/><path fill="#CBCBCC" id="mlf" d="M225 165c0 1.577-1.762 2-3 2-1.428 0-4-4.822-4-6 3.162 0 5.166 2 7 2v2ZM231 165c1.24 0 1.576 2 4 2l3-6c0-2.36-3.959 0-5 0l-1 2-1 1v1Z"/><path fill="#FF64FF" id="MB" d="m233 161-1 2 1-2Z"/><path fill="#CBC9CB" id="scp" d="M192 163c6.548 0 14.992 1.246 20.5 4 3.429 1.714.965 5.018-1 6H201l-13-.5 3-3c.662-1.324-1.207-6.5 1-6.5Z"/><path fill="#FF64FF" id="MB" d="m232 163-1 1 1-1Z"/><path fill="#CBC9CB" id="scp" d="M265 163c-6.754 0-15.823 1.161-21.5 4-1.616.808-1.909 4.046 0 5 3.407 1.703 8.43 1 12.5 1l12-.5c0-1.171-3-5.68-3-9.5Z"/><path fill="#FF64FF" id="MB" d="m221 188 7.5 2 6.5-2c0-2.747.253-3 3-3l-1-2v-2c-3.742 0-2-12.154-2-14-2.424 0-2.76-2-4-2 0 6.321-5.808 0-6 0 0 1.577-1.762 2-3 2 0 1.543.711 12-2 12v2l-1 1v2c2.109 0 2 2.535 2 4ZM297 179h1c0-1.574.751-9-1-9v9Z"/><path fill="#31B625" id="ENTm1" d="m396 208 3 4c0 4.062-29.195 15.652-34.5 13-3.004-1.502-7.624-2.747-9.5-6.5-3.506-7.013-10-25.647-10-33.5 3.312 0 1.565-12 4-12 0 4.357 2.109 10.718 4 14.5v5c4.585 9.171 1.906 20.203 12.5 25.5 7.293 3.646 25.082-10 30.5-10ZM60 208l-3 4c0 1.757 6.069 4.284 7.5 5 4.563 2.282 21.478 10.761 27 8 11.821-5.911 19.5-26.696 19.5-40 0-3.522-3-7.229-3-11-2.556 0-2.123 8.746-3 10.5-3.852 7.705-2.709 28.105-11.5 32.5-11.192 5.596-26.196-9-33.5-9Z"/><path fill="#FC90FE" id="VTN" d="m219 184-2 1c-4.789 0-7.588-7.456-2.5-10 3.09-1.545 3.915 4 5.5 4v2l-1 1v2ZM237 181v2c1.602 0 2.384 3.058 4.5 2 9.344-4.672-4.5-16.818-4.5-4Z"/><path fill="#FF64FF" id="MB" d="M158 180h3l-2-4c-1.579 0-1 2.855-1 4Z"/><path fill="#FF9B88" id="P" fill-rule="evenodd" d="m148 194-3 2.5 1 3c4.337 8.674 4.973-5.5 2-5.5m49 89-1 1c-5.367 0-13.362 6.069-19.5 3-3.517-1.758-8.729-8-11.5-8-1.967 0-7.352-16-8.5-16-1.833 0-2.074 6.353-1.5 7.5l6 7.5-14.5-14c-6.189-3.095-20.007-9.513-23.5-16.5l-2-7c-1.904-3.807 1-11.122 1-14.5l2 1c0 3.948-2.047 8.405 0 12.5 4.374 8.749 24.276 28.449 32 13 1.311-2.622-6-.399-6-2.5 10.517 0 2.621-28.259 0-33.5-1.164-2.328-.643-7.071-3.5-8.5-4.74-2.37-11.525 16.45-9.5 20.5l4 13.5c-1.722 0-2.368-5.235-3-6.5l-6-8.5c0-6.329 8.018-19.537 11-25.5l-2-4.5-1-6c3.747 0 12 7.084 12-5 2.159 0 .061 4 1.5 4 3.48 0 4.5-7.8 4.5-10h3c0 6.807 16.319 6 21 6h3c0 .83-6.431 2.466-7.5 3l-5.5 5c0-7.976-32.918 4.791-16.5 13l4.5-1c0 2.694-3 7.442-3 10.5l6.5 14.5c3.473 1.736 7.052-2 8.5-2l1 3c-4.57 0-4 7.119-4 10-4.861 0 .219 3-3 3 0-7.191-7-19.264-7-5-3.933 0-4.858 6 0 6 0 1.902-5.125 15.188-1.5 17 3.443 1.722 3.168-3 5.5-3 0 4.07-.703 9.093 1 12.5l5 5.5c0 10.757 17.764 7.868 23.5 5 4.347-2.173 2.695-7-1.5-7l2-2 2 1 2 8ZM307 194c0 1.475-.893 9 1.5 9 3.454 0 3.736-9-1.5-9m-10 47c5.088 0 1.876 2 4 2 0-9.763 1.969-18.438 6-26.5 1.052-2.103.456-11.022 5.5-8.5 2.29 1.145 1.691 2.882 2.5 4.5 6.513 13.026 2 13.072 2 25.5 1.183 0 1.535-3.57 2-4.5l6-6.5c0-5.234-8.402-18.304-11-23.5l1-6.5 1-6c-1.448 0-5.027 3.736-8.5 2-2.04-1.02-2.424-6-3.5-6 0 8.395-6-4.234-6-8h-1l-6.5 6c-4.01 2.005-10.734 1-15.5 1h-3c0 1.55 6.228 2.364 7.5 3l5.5 6c0-10.147 31.635 4.433 16.5 12l-5.5-1 3 4.5c1.704 3.408-4.33 19.415-6.5 20.5H285l-1 1c2.916 0 4 7.098 4 9l2 1c.888 0 1.998-7.749 4.5-9 1.32-.66 2.5 3.634 2.5 4.5v3.5Z"/><path fill="#FF8FFD" id="MRN" d="m220 181-1 1 1-1ZM219 184l-2 1 2-1Z"/><path fill="#FD90FE" id="AT" d="M217 188c1.137 0 4 2.091 4 0 0-1.465.109-4-2-4l-2 1v3Z"/><path fill="#FF64FF" id="MB" d="M182 186h1v-1l-1 1Z"/><path fill="#FFC295" id="PRNr" d="M207 241c-9.643 0-20.001 1-29 1-2.325 0 .235-10-5-10l-1-3 1-21-1-5v-9l5.5-5c1.069-.534 7.5-2.17 7.5-3l11.5-1c2.14 1.07 3.887 2 6.5 2 0 1.747.253 2 2 2 0 1.999.067 6 3 6 1.353 0 2 4.643 2 6-3.094 0 .451 11.402 1 12.5l3 3.5c0 2.864 3.696 7.108 2 10.5l-3 4.5c-4.525 0-6 4.986-6 9Z"/><path fill="#FD90FE" id="AT" d="M235 188c0 2.56 3.334 0 4 0 0-1.048.473-3-1-3-2.747 0-3 .253-3 3Z"/><path fill="#FFC295" id="PRNr" d="M249 241c10.03 0 20.589 1 30 1 0-3.173.749-10 5-10l1-1c0-8.361-1-16.014-1-24 0-1.048-.473-3 1-3v-9l-5.5-6c-1.272-.636-7.5-1.45-7.5-3l-12.5-1-5.5 2-3 3c0 2.565.236 5-3 5 0 1.564-1 3.876-1 6 0 3.792.725 16-5 16l-2 9.5 3 5.5c4.758 0 6 4.814 6 9Z"/><path fill="#FF64FF" id="MB" d="M273 186h2l-2-1v1Z"/><path fill="#FF9B88" id="P" d="m210 201 3 2-1-15-9-1c0 1.747.253 2 2 2 3.026 0 3 3.41 3 6 1.353 0 2 4.643 2 6Z"/><path fill="#FFC393" id="CS" d="m216 216 3 11.5c.697 1.395 6.152 2.695 7 1 .69-1.381.313-11.5 2.5-11.5.683 0 1.027 11.013 3 12 5.726 2.863 9.5-8.66 9.5-12 0-4.791 2-9.136 2-13l1-16c0-2.36-3.959 0-5 0-.666 0-4 2.56-4 0l-6.5 2-7.5-2c0 2.091-2.863 0-4 0-1.041 0-5-2.36-5 0l1 15c0 4.185 3 8.266 3 13Z"/><path fill="#FF9B88" id="P" d="M247 201c-2.618 0-1.651 3-4 3l1-16 10-1-3 3c0-2.151-3 3.444-3 5 0 1.564-1 3.876-1 6Z"/><path fill="#F0F080" id="CB" d="M320 193c3.526 0 8.954 2 10 2 0-6.371-4.779-6-9-6l-1 4ZM136 193c-3.013 0-6.611 1-9 1 0-5.219 3.8-5 8-5l1 4Z"/><path fill="#C8C8CC" id="tspc" d="M205 189c3.026 0 3 3.41 3 6-2.933 0-3-4.001-3-6ZM251 190c0 2.565.236 5-3 5 0-1.556 3-7.151 3-5Z"/><path fill="#FEBA86" id="SUT" d="M160 206h7c0-1.951 2.454-.477 3.5-1l1.5-2v-9c0-7.976-32.918 4.791-16.5 13l4.5-1ZM290 206h6l5.5 1c15.135-7.567-16.5-22.147-16.5-12v9c.671 0 5 1.328 5 2Z"/><path fill="#CCCCCA" id="mcp" d="m127 226 5 1c0-6.329 8.018-19.537 11-25.5l-2-4.5-5-4c-3.013 0-6.611 1-9 1 0 1.835-2 4.235-2 7 0 8.847 2 17.004 2 25ZM329 226l-4 1c0-5.234-8.402-18.304-11-23.5l1-6.5c2.618 0 3.093-4 5-4 3.526 0 8.954 2 10 2 1.674 0 2 7.241 2 9 0 6.284-3 16.836-3 22Z"/><path fill="#CBC7CC" id="sctv" d="m148 194-3 2.5 1 3c4.337 8.674 4.973-5.5 2-5.5ZM307 194c0 1.475-.893 9 1.5 9 3.454 0 3.736-9-1.5-9Z"/><path fill="#F0F080" id="CB" d="m127 226-3 1-2-1c0-6.11 2-12.524 2-19 0-1.321-.684-6 1-6 0 8.847 2 17.004 2 25Z"/><path fill="#C8C8CC" id="tspc" d="m216 216-2 1-3-3.5c-.549-1.098-4.094-12.5-1-12.5l3 2c0 4.185 3 8.266 3 13ZM241 217h1c5.725 0 5-12.208 5-16-2.618 0-1.651 3-4 3 0 3.864-2 8.209-2 13Z"/><path fill="#FF9B88" id="P" d="M167 206c2.518 0 4.286 2 6 2l-1-5-1.5 2c-1.046.523-3.5-.951-3.5 1ZM290 206c-2.124 0-4.436 1-6 1 0-1.048-.473-3 1-3 .671 0 5 1.328 5 2Z"/><path fill="#F0F080" id="CB" d="m329 226 4 1 1-2c0-4.889-1-10.985-1-16.5 0-1.19.614-4.5-1-4.5 0 6.284-3 16.836-3 22Z"/><path fill="#FEB886" id="P5" d="m173 208-1 21c-1.448 0-5.027 3.736-8.5 2l-6.5-14.5c0-3.058 3-7.806 3-10.5h7c2.518 0 4.286 2 6 2ZM284 207c0 7.986 1 15.639 1 24h7.5c2.17-1.085 8.204-17.092 6.5-20.5l-3-4.5h-6c-2.124 0-4.436 1-6 1Z"/><path fill="#FFAE6F" id="PSV" d="M149 250h1c10.517 0 2.621-28.259 0-33.5-1.164-2.328-.643-7.071-3.5-8.5-4.74-2.37-11.525 16.45-9.5 20.5l4 13.5v1c1.702 0 6 4.802 6 6h1l1 1ZM309 249l-2 1c-4.472 0-6-1.528-6-6v-1c0-9.763 1.969-18.438 6-26.5 1.052-2.103.456-11.022 5.5-8.5 2.29 1.145 1.691 2.882 2.5 4.5 6.513 13.026 2 13.072 2 25.5v1l-1 2-1 2c-1.577 0-2 1.762-2 3-1.429 0-4 1.288-4 3Z"/><path fill="#FF9B88" id="P" d="M231 252c3.645 0 1.427 2 4 2 0-1.219-3.045-7 1-7l-5-5.5c-.748-1.495.477-2.953 1-4 2.796-5.593 3.956-5.5 11-5.5l-3-5.5 2-9.5h-1c0 3.34-3.774 14.863-9.5 12-1.973-.987-2.317-12-3-12-2.187 0-1.81 10.119-2.5 11.5-.848 1.695-6.303.395-7-1l-3-11.5-2 1c0 2.864 3.696 7.108 2 10.5l-3 4.5c5.627 0 16.33 1.84 12 10.5l-5 4.5c1.712 0 3 2.571 3 4h2c0-12.839 6-11.798 6 1ZM299 263c7.126 0 0 9.837 0 12l9.5-10c7.785-3.892 21.24-9.98 25.5-18.5 2.087-4.173 1-11.544 1-16.5 0-1.235.643-5-1-5l-1 2c0 12.6-3.945 22.222-15.5 28-4.115 2.057-13.327 5.845-16.5-.5-2.729-5.458 6-2.067 6-4.5-4.472 0-6-1.528-6-6l-1.5 3-2.5-2 2 4.5V263Z"/><path fill="#CACACB" id="sV" d="M149 250h1c0 2.101 7.311-.122 6 2.5-7.724 15.449-27.626-4.251-32-13-2.047-4.095 0-8.552 0-12.5l3-1 5 1 6 8.5c.632 1.265 1.278 6.5 3 6.5v1c0 2.344 3.726 6 6 6h1l1 1ZM309 249l-2 1c0 2.433-8.729-.958-6 4.5 3.173 6.345 12.385 2.557 16.5.5 11.555-5.778 15.5-15.4 15.5-28l-4-1-4 1-6 6.5c-.465.93-.817 4.5-2 4.5v1l-1 2-1 2c0 1.238-.423 3-2 3 0 1.712-2.571 3-4 3Z"/><path fill="#C9C9CB" id="ll" d="m178 256-2 1-5-1c0-3.718-2-8.855-2-14 0-2.881-.57-10 4-10 5.235 0 2.675 10 5 10l3 12.5-3 1.5Z"/><path fill="#FEBA85" id="TRN" d="M207 241c0 5.579 8.832 6 13 6l5-4.5c4.33-8.66-6.373-10.5-12-10.5-4.525 0-6 4.986-6 9ZM249 241c0 5.753-8.745 6-13 6l-5-5.5c-.748-1.495.477-2.953 1-4 2.796-5.593 3.956-5.5 11-5.5 4.758 0 6 4.814 6 9Z"/><path fill="#C9C9CB" id="ll" d="M281 257h4c0-4.926 3-10.389 3-16 0-1.902-1.084-9-4-9-4.251 0-5 6.827-5 10l-4 12.5c.749 1.498 4-.705 4 1.5l1 1h1Z"/><path fill="#C8C8CB" id="rust" d="M163 257v3c-2.332 0-2.057 4.722-5.5 3-3.625-1.812 1.5-15.098 1.5-17v-6c0-14.264 7-2.191 7 5v5l-1 1v3l-1 1-1 2ZM293 257c1.574 0-.425 6 6 6v-13.5l-2-4.5v-7.5c0-.866-1.18-5.16-2.5-4.5-2.502 1.251-3.612 9-4.5 9v5l1 2 1 6 1 1v1Z"/><path fill="#FF9B88" id="P" d="m317 239-1 2 1-2Z"/><path fill="#FDB986" id="PC5" d="M159 240c-3.933 0-4.858 6 0 6v-6ZM301 244l-1.5 3-2.5-2v-4c5.088 0 1.876 2 4 2v1Z"/><path fill="#FEAE6E" id="SOCl" d="M173 262c0 4.861 4.062 16-4 16l-5-5.5c-1.703-3.407-1-8.43-1-12.5v-3l1-2 1-1v-3l1-1v-5c3.219 0-1.861-3 3-3 0 5.145 2 10.282 2 14l1 4v1l1 1Z"/><path fill="#FDBA86" id="PRNc" d="M212 261h1l2-1c0-1.712 2.571-3 4-3l1-1 1-1 1-1v-1l1-1v-1c0-1.429-1.288-4-3-4-4.168 0-13-.421-13-6-9.643 0-20.001 1-29 1l3 12.5-3 1.5 1 1c4.936 0 9.147 4 12 4l3 1c6.102 0 12.479-1 18-1ZM265 261l-3 1c-5.675 0-11.954-1-17-1h-2l-2-2-4-3-2-1v-1c0-1.219-3.045-7 1-7 4.255 0 13-.247 13-6 10.03 0 20.589 1 30 1l-4 12.5c.749 1.498 4-.705 4 1.5l-2 1c-4.848 0-7.992 4-12 4Z"/><path fill="#FEAE6E" id="SOCl" d="M283 264c0 4.308-2.847 14 4 14 8.694 0 6-16.081 6-21v-1l-1-1-1-6-1-2v-5l-2-1c0 5.611-3 11.074-3 16l-1 2v4l-1 1Z"/><path fill="#FF9B88" id="P" d="m316 241-1 2 1-2Z"/><path fill="#FFC5E2" id="RM" d="M226 259h5v-7c0-12.798-6-13.839-6-1l1 8Z"/><path fill="#FF9B88" id="P" d="M141 243c1.702 0 6 4.802 6 6-2.274 0-6-3.656-6-6ZM315 243c-1.577 0-2 1.762-2 3 1.577 0 2-1.762 2-3ZM313 246c-1.429 0-4 1.288-4 3 1.429 0 4-1.288 4-3ZM290 247l1 2-1-2ZM148 249l1 1-1-1ZM309 249l-2 1 2-1ZM166 250l-1 1 1-1Z"/><path fill="#CACCC8" id="ml" d="M215 260v1c0 11.2 11 9.729 11-2l-1-8h-2v1l-1 1v1l-1 1-1 1-1 1c-1.429 0-4 1.288-4 3ZM241 259v1c0 11.851-10 12.516-10-1v-7c3.645 0 1.427 2 4 2v1l2 1 4 3Z"/><path fill="#FF9B88" id="P" d="m223 252-1 1 1-1ZM165 254l-1 1 1-1ZM222 254l-1 1 1-1ZM164 255l-1 2 1-2ZM221 255l-1 1 1-1ZM235 255l2 1-2-1ZM292 255l1 1-1-1ZM176 259c-1.674 0-2.326 1-4 1l-1-4 5 1v2ZM176 257h3l-1-1-2 1ZM220 256l-1 1 1-1ZM277 257h3l-1-1-2 1Z"/><path fill="#FFAD6E" id="SOCm" d="m193 274-2 2c-6.782 0-15-10.912-15-17v-2h3c4.936 0 9.147 4 12 4l2 3v10ZM264 272c0 2.424 2 2.76 2 4 6.188 0 15-12.708 15-18v-1h-4c-4.848 0-7.992 4-12 4l-1 4v7Z"/><path fill="#FF9B88" id="P" d="m281 258 3 1 1-2h-4v1Z"/><path fill="#FF9B88" id="P" fill-rule="evenodd" d="M285 284c0 1.93 1.93 0 0 0m1-1c0 1.93 1.93 0 0 0m1-1c0 1.93 1.93 0 0 0m1-1c0 1.93 1.93 0 0 0m1-1c0 1.93 1.93 0 0 0m1-1c0 1.93 1.93 0 0 0m-8 6c5.524 0 0 .686 0 3 2.168 0 10-4.225 10-7 0-6.574 7-11.547 7-18-6.425 0-4.426-6-6-6 0 4.919 2.694 21-6 21 0 4.008-5 4.412-5 7Z"/><path fill="#FEAD6F" id="POR" d="M191 276c4.195 0 5.847 4.827 1.5 7-5.736 2.868-23.5 5.757-23.5-5 8.062 0 4-11.139 4-16l-1-1v-1c1.674 0 2.326-1 4-1 0 6.088 8.218 17 15 17ZM287 278c0 4.008-5 4.412-5 7-5.793 0-21 2.577-21-7v-1l5-1c6.188 0 15-12.708 15-18l3 1v4l-1 1c0 4.308-2.847 14 4 14Z"/><path fill="#FF9BCD" id="MY" d="M257 283h3c0-1.235-.643-5 1-5v-3c-4.219 0-17.107-5.715-19-9.5-1.394-2.789 3-3.035 3-4.5h-2l-2-1c0 11.851-10 12.516-10-1h-5c0 11.729-11 13.2-11 2h-3c0 1.791 3.27 2.959 2 5.5-1.418 2.835-15.343 8.5-19 8.5l2 8h3c0-7.512 17-14.801 17-7 .373 0 3.027-4.263 4.5-5h14l3.5 4 2.5-2c5.402-2.701 15.5 5.055 15.5 10Z"/><path fill="#FF9B88" id="P" d="m241 260 2 1-2-2v1ZM213 261h2v-1l-2 1ZM172 261l1 1-1-1ZM194 262l-1 2-2-3 3 1Z"/><path fill="#FEA3D2" id="NTB" d="m193 274 2 1c3.657 0 17.582-5.665 19-8.5 1.27-2.541-2-3.709-2-5.5-5.521 0-11.898 1-18 1l-1 2v10ZM264 272c-1.916 0-.07 3-3 3-4.219 0-17.107-5.715-19-9.5-1.394-2.789 3-3.035 3-4.5 5.046 0 11.325 1 17 1l2 3v7Z"/><path fill="#FF9B88" id="P" d="m262 262 2 3 1-4-3 1Z"/><path fill="#CBC7CC" id="sctv" d="M165 279v1l-3-1-1-1-6-7.5c-.574-1.147-.333-7.5 1.5-7.5 1.148 0 6.533 16 8.5 16Z"/><path fill="#FF9B88" id="P" d="m284 263-1 1 1-1Z"/><path fill="#CBC7CC" id="sctv" d="M292 281h1l1-1 1-1 1-1 1-1c0-1.747.253-2 2-2 0-2.163 7.126-12 0-12 0 6.453-7 11.426-7 18Z"/><path fill="#CCC7CB" id="tb" d="M195 288h1l1-1h5c0-1.801 13.842-1 16-1h2l1-1 6.5-3c2.234-1.117 5.863 3 7.5 3l1 1h2l22 1c6.557 0 14.767 1 22 1 0-2.314 5.524-3 0-3 0 5.242-14.963 0-16.5 0-1.21 0-5.5-.814-5.5-2h-3c-6.621 0-18 2.986-18-8l-3.5-4h-14c-1.473.737-4.127 5-4.5 5 0 10.117-10.839 7-17 7h-3l-1 1c-5.367 0-13.362 6.069-19.5 3-3.517-1.758-8.729-8-11.5-8v1c2.222 0 8.199 6.85 10.5 8H195Z"/><path fill="#FF9B88" id="P" d="m266 276-5 1v-2c2.93 0 1.084-3 3-3 0 2.424 2 2.76 2 4Z"/><path fill="#C7C9C9" id="py" d="M217 276c0 10.117-10.839 7-17 7 0-7.512 17-14.801 17-7ZM239 275l2.5-2c5.402-2.701 15.5 5.055 15.5 10-6.621 0-18 2.986-18-8Z"/><path fill="#FF9B88" id="P" d="M299 275c-1.747 0-2 .253-2 2l2-2ZM297 277l-1 1 1-1ZM260 283c0 1.186 4.29 2 5.5 2 1.537 0 16.5 5.242 16.5 0-5.793 0-21 2.577-21-7-1.643 0-1 3.765-1 5ZM296 278l-1 1 1-1ZM165 280c2.222 0 8.199 6.85 10.5 8H195c0 1.758-7.884 1-9.5 1-5.525 0-23.5-2.889-23.5-10l3 1Z"/><path fill="#CCC7CB" id="tb" d="M290 279c0 1.93 1.93 0 0 0Z"/><path fill="#FF9B88" id="P" d="m295 279-1 1 1-1Z"/><path fill="#CCC7CB" id="tb" d="M289 280c0 1.93 1.93 0 0 0Z"/><path fill="#FF9B88" id="P" d="m294 280-1 1 1-1Z"/><path fill="#CCC7CB" id="tb" d="M288 281c0 1.93 1.93 0 0 0ZM287 282c0 1.93 1.93 0 0 0Z"/><path fill="#FF9BCD" id="MY" d="m197 283-1 1 1-1Z"/><path fill="#CCC7CB" id="tb" d="M286 283c0 1.93 1.93 0 0 0ZM285 284c0 1.93 1.93 0 0 0Z"/><path fill="#FF9BCD" id="MY" d="m221 285-1 1 1-1ZM235 285l1 1-1-1ZM218 286c-2.158 0-16-.801-16 1 2.158 0 16 .801 16-1ZM260 287v1l-17-1c-1.235 0-5 .643-5-1l22 1Z"/><path fill="#FF9B88" id="P" d="M196 288h1v-1l-1 1Z"/><path fill="#FF9BCD" id="MY" d="M202 287c0 1.643-3.765 1-5 1v-1h5Z"/><path fill="#FF9B88" id="P" d="M260 288c4.919 0 11.413 1 17 1 1.235 0 5 .643 5-1-7.233 0-15.443-1-22-1v1Z"/></svg>