<svg xmlns="http://www.w3.org/2000/svg" viewBox="0 0 456 320"><path fill="#1BA696" id="RSPagl1" d="M186 13c-5.501 0-9.38 2-15 2V9c5.794 0 9.329-2 15-2v6Z"/><path fill="#1BA598" id="RSPd1" d="M217 19h1l2-3c0-10.113-26.906-9-34-9v5c6.068 0 31-2.66 31 7ZM236 17l3 1c1.385 0 4.706-4.103 6.5-5 7.139-3.57 16.937-1 24.5-1l1-5c-12.246 0-23.833-1.667-32 6.5l-3 3.5Z"/><path fill="#1BA696" id="RSPagl1" d="M270 13c5.67 0 9.33 2 15 2l1-6c-5.794 0-9.329-2-15-2l-1 5v1Z"/><path fill="#09848B" id="VISam1" d="m140 17 1 5 8.5-3c2.365-1.183 18.087-3 21.5-3V9c-8.093 0-23.262 8-31 8ZM317 17c0 2.25-2 3.376-2 5-7.946 0-21.16-7-30-7l1-6 3.5 2h7c3.921 1.96 16.287 6 20.5 6Z"/><path fill="#1BA697" id="RSPd2/3" d="M213 23h1l3-4c0-9.66-24.932-7-31-7v8c3.419 0 27-5.455 27 3ZM270 20c-4.288 0-11.675-4.413-16.5-2-1.839.92-4.266.133-6 1l-4.5 3-4-3v-1c1.385 0 4.706-4.103 6.5-5 7.139-3.57 16.937-1 24.5-1v8Z"/><path fill="#1AA496" id="RSPagl2/3" d="M173 23v2l13-5v-7c-5.501 0-9.38 2-15 2v1c.853 0 2 6.031 2 7ZM284 23l-1 1c-5.024 0-7.976-4-13-4v-7c5.67 0 9.33 2 15 2l-1 8Z"/><path fill="#0B848A" id="VISam2/3" d="M284 23c10.633 0 20.615 9 31 9 0-2.592.958-3.416 2-5.5l-2-4.5c-7.946 0-21.16-7-30-7l-1 8ZM173 23c-10.707 0-20.564 9-31 9l-2-4.5 1-5.5 8.5-3c2.365-1.183 18.087-3 21.5-3 .853 0 2 6.031 2 7Z"/><path fill="#1BA597" id="RSPv1" d="M236 81h2l-6-14.5v-32c0-3.3 2.821-15.5 7-15.5v-1l-3-1-7.5 12-8.5-13-2 3c2.123 0 5.083 9.667 6 11.5 1.208 2.415 2.314 31.372 1 34-2.19 4.38-6 11.459-6 16.5h2l3.5-6 4-8 .5 2.5 7 11.5Z"/><path fill="#0A8589" id="VISpm1" d="m141 22-8 3-2-5 9-3 1 5ZM315 22l9 3c0-1.947 1-2.636 1-5 0-.616-6.93-3-8-3 0 2.25-2 3.376-2 5Z"/><path fill="#1AA596" id="RSPd5" d="M205 31c-2.498 0-6.783-4.358-9.5-3-1.839.92-4.266.133-6 1l-4.5 3 1-12c3.419 0 27-5.455 27 3l-8 8ZM251 31c2.562 0 7.689-4.405 10.5-3l9.5 3-1-11c-4.288 0-11.675-4.413-16.5-2-1.839.92-4.266.133-6 1l-4.5 3v1l8 8Z"/><path fill="#1AA597" id="RSPv2/3" d="m215 79 4 2c0-5.041 3.81-12.12 6-16.5 1.314-2.628.208-31.585-1-34-.917-1.833-3.877-11.5-6-11.5h-1l-3 4c3.732 0 5 11.386 5 14.5 0 5.407 3.412 22.176 1 27-1.507 3.015-.508 7.016-2 10-1.014 2.028-3 2.27-3 4.5ZM241 80h1v-1c0-1.601-4.154-6.808-5-8.5-1.384-2.769-.282-36.435 1-39 .954-1.909 1.65-8.5 5-8.5v-1l-4-3c-4.179 0-7 12.2-7 15.5v32l6 14.5 3-1Z"/><path fill="#098589" id="VISp1" d="m111 28 2 4c6.972 0 13.046-7 20-7l-2-5c-3.773 0-12.087 3.294-15.5 5l-4.5 3Z"/><path fill="#1CA697" id="RSPagl5" d="m185 32-10 5-2-12 13-5-1 12ZM281 37h1l1-12v-1c-5.024 0-7.976-4-13-4l1 11v1l10 5Z"/><path fill="#098589" id="VISp1" d="M343 33h1l1-5-4-2.5c-1.174-1.174-13.896-5.5-16-5.5 0 2.364-1 3.053-1 5 4.109 0 10.806 4.153 14.5 6 1.119.56 4.5.155 4.5 2Z"/><path fill="#08858B" id="VISpm2/3" d="M135 33h1l6-1-2-4.5 1-5.5-8 3c0 2.885 2 4.697 2 8ZM315 32l6 1 3-8-9-3 2 4.5c-1.042 2.084-2 2.908-2 5.5Z"/><path fill="#09858A" id="VISam4" d="m142 32 1 3c6.126 0 23.605-10 30-10v-2c-10.707 0-20.564 9-31 9Z"/><path fill="#1BA498" id="RSPv5" d="M212 76c1.916 0 .07 3 3 3 0-2.23 1.986-2.472 3-4.5 1.492-2.984.493-6.985 2-10 2.412-4.824-1-21.593-1-27 0-3.114-1.268-14.5-5-14.5h-1l-8 8v1l2 3.5c1.972 3.945.304 19.608 4 27 .697 1.394 1.277 9.5 0 9.5l1 4ZM244 76l-2 3c0-1.601-4.154-6.808-5-8.5-1.384-2.769-.282-36.435 1-39 .954-1.909 1.65-8.5 5-8.5l8 8v1l-2 5.5v13c-2.803 5.606-4 13.845-4 20.5l-1 5Z"/><path fill="#09858A" id="VISam4" d="m315 32-1 3-31-10v-1l1-1c10.633 0 20.615 9 31 9Z"/><path fill="#0A828C" id="VISp2/3" d="M135 33c0 2.334-4.181 1.34-5.5 2-3.53 1.765-8.401 5-12.5 5l-4-7v-1c6.972 0 13.046-7 20-7 0 2.885 2 4.697 2 8Z"/><path fill="#0A848B" id="VISam5" d="M175 37c-9.98 0-20.892 7-31 7l-3-8 2-1c6.126 0 23.605-10 30-10l2 12ZM312 44h1c0-3.303 2-5.115 2-8l-1-1-31-10-1 12c9.43 0 20.444 7 30 7Z"/><path fill="#0A828C" id="VISp2/3" d="M321 34c6.394 0 11.882 6 18 6 1.368 0 4-5.878 4-7 0-1.845-3.381-1.44-4.5-2-3.694-1.847-10.391-6-14.5-6l-3 8v1Z"/><path fill="#029FAB" id="VISrl1" d="M80 52h1c0-2.233 5.052-4.276 6.5-5 7.504-3.752 16.836-14 25.5-14v-1l-2-4c-9.162 0-17.638 11.07-25.5 15-1.582.791-8.5 3.942-8.5 6l3 3Z"/><path fill="#1AA697" id="RSPd6a" d="M187 41c0-2.73 7.987 0 9 0l9-9v-1c-2.498 0-6.783-4.358-9.5-3-1.839.92-4.266.133-6 1l-4.5 3 1 9h1ZM260 42h1l2-1c0-2.768 6.241 0 7 0 0-2.389 1-5.987 1-9v-1l-9.5-3c-2.811-1.405-7.938 3-10.5 3v1c1.875 0 9 8.374 9 10Z"/><path fill="#029FAB" id="VISrl1" d="M379 49c0 1.577-1.762 2-3 2-4.965 0-24.679-18-32-18l1-5c4.5 0 26.276 13.053 28 16.5l6 4.5Z"/><path fill="#09828B" id="VISpm4" d="m141 36-4 1-1-4 6-1 1 3-2 1Z"/><path fill="#1CA597" id="RSPagl6a" d="M186 41c-3.083 0-5.545 3-9 3 0-2.16-2-4.167-2-7l10-5 1 9Z"/><path fill="#1AA498" id="RSPv6a" d="m208 66 3 6c1.277 0 .697-8.106 0-9.5-3.696-7.392-2.028-23.055-4-27l-2-3.5-9 9v1c2.282 0 3 5.29 3 7 0 6.406 9 11.141 9 17ZM248 66l-3 5c0-6.655 1.197-14.894 4-20.5v-13l2-5.5c1.875 0 9 8.374 9 10v1c-1.84 0-3.862 6-2 6 0 6.326-10 11.03-10 17Z"/><path fill="#1CA597" id="RSPagl6a" d="M279 45h1l1-8-10-5c0 3.013-1 6.611-1 9 1.403 0 9 2.71 9 4Z"/><path fill="#09828B" id="VISpm4" d="m315 36 4 1 2-3v-1l-6-1-1 3 1 1Z"/><path fill="#029EAC" id="VISrl2/3" d="M81 52c0 2.896 3.334 5 6 5 3.391 0 22.962-16 30-16v-1l-4-7c-8.664 0-17.996 10.248-25.5 14-1.448.724-6.5 2.767-6.5 5Z"/><path fill="#0B848B" id="VISp4" d="M119 44h1l17-6v-1l-1-4h-1c0 2.334-4.181 1.34-5.5 2-3.53 1.765-8.401 5-12.5 5v1c0 1.063 2-.261 2 3Z"/><path fill="#029EAC" id="VISrl2/3" d="M376 52c-3.09 0-1.885 5-6 5-5.608 0-22.653-16-31-16v-1c1.368 0 4-5.878 4-7h1c7.321 0 27.035 18 32 18v1Z"/><path fill="#0B848B" id="VISp4" d="m339 41-2 3c-6.265 0-11.688-6-18-6v-1l2-3c6.394 0 11.882 6 18 6v1Z"/><path fill="#088489" id="VISpm5" d="M139 46h1c0-1.473 1.952-1 3-1l1-1-3-8-4 1v1c0 2.338 2 4.862 2 8ZM314 45h3l2-7v-1l-4-1c0 2.885-2 4.697-2 8v1h1Z"/><path fill="#0A828B" id="VISam6a" d="M177 45c-10.342 0-22.276 5-32 5 0-1.087-2-2.433-2-5l1-1c10.108 0 21.02-7 31-7 0 2.833 2 4.84 2 7v1ZM314 45c0 2.773-2 3.67-2 6l-7.5-3c-1.076-.538-22.535-3-24.5-3l1-8h1c9.43 0 20.444 7 30 7l1 1h1Z"/><path fill="#088389" id="VISp5" d="m139 46-14 5c-1.584 0-5-4.973-5-7l17-6c0 2.338 2 4.862 2 8ZM317 46c5.345 0 10.223 6 15 6 0-1.72 3.753-7 5-7v-1c-6.265 0-11.688-6-18-6l-2 7v1Z"/><path fill="#1BA698" id="RSPd6b" d="M195 42h1v-1c-1.013 0-9-2.73-9 0v1h8ZM270 41v1c-1.819 0-4.591-1-7-1 0-2.768 6.241 0 7 0Z"/><path fill="#019EAA" id="VISrl4" d="m87 58 4 4c4.365 0 9.385-8.943 13.5-11 1.771-.885 14.5-6.28 14.5-7 0-3.261-2-1.937-2-3-7.038 0-26.609 16-30 16v1Z"/><path fill="#1AA598" id="RSPagl6b" d="M177 45v1l10-4v-1h-1c-3.083 0-5.545 3-9 3v1Z"/><path fill="#CACCC7" id="cing" d="M161 50c4.401 0 26.07-3.215 26.5-3 6.124 3.062 14.2 19 20.5 19 0-5.859-9-10.594-9-17l-4-7h-8l-10 4c-5.275 0-10.776 3-16 3v1Z"/><path fill="#1BA698" id="RSPd6b" d="m263 41-2 1 2-1Z"/><path fill="#CACCC7" id="cing" d="M295 50c-10.007 0-21.381-5.06-29.5-1-5.459 2.73-9.083 17-17.5 17 0-5.97 10-10.674 10-17l2-6 1-1 2-1c2.409 0 5.181 1 7 1 3.158 0 5.283 3 9 3 0 1.422 14.344 4 16 4v1Z"/><path fill="#1AA598" id="RSPagl6b" d="M270 42c3.158 0 5.283 3 9 3 0-1.29-7.597-4-9-4v1Z"/><path fill="#019EAA" id="VISrl4" d="m370 58-5 4-8.5-8c-5.671-2.835-12.842-9-19.5-9v-1l2-3c8.347 0 25.392 16 31 16v1Z"/><path fill="#1AA497" id="RSPv6b" d="M196 42c2.282 0 3 5.29 3 7l-4-7h1ZM261 42l-1 1v-1h1ZM260 43c-1.84 0-3.862 6-2 6l2-6Z"/><path fill="#019DAB" id="VISrl5" d="M98 68h1c0-1.854 23.225-16 26-16v-1c-1.584 0-5-4.973-5-7h-1c0 .72-12.729 6.115-14.5 7-4.115 2.057-9.135 11-13.5 11v1c2.151 0 7 2.323 7 5Z"/><path fill="#09858B" id="VISpm6a" d="m144 44-1 1 1-1ZM313 44v1l-1-1h1ZM142 51h2l1-1c0-1.087-2-2.433-2-5-1.048 0-3-.473-3 1 0 1.041.986 5 2 5Z"/><path fill="#08838A" id="VISam6b" d="M145 51v1l8-3h8c5.224 0 10.725-3 16-3v-1c-10.342 0-22.276 5-32 5v1ZM312 51v1l-9-3h-8c-1.656 0-16-2.578-16-4h1c1.965 0 23.424 2.462 24.5 3l7.5 3Z"/><path fill="#09858B" id="VISpm6a" d="m312 51 3 1c0-2.483 2-4.026 2-6v-1h-3c0 2.773-2 3.67-2 6Z"/><path fill="#019DAB" id="VISrl5" d="M365 63c-3.145 0-3.855 4-7 4-6.699 0-18.379-15-26-15 0-1.72 3.753-7 5-7 6.658 0 13.829 6.165 19.5 9l8.5 8v1Z"/><path fill="#08858C" id="VISp6a" d="M127 57h1c4.944 0 8.624-5 14-5v-1c-1.014 0-2-3.959-2-5h-1l-14 5v1l2 5ZM328 57h1l3-5c-4.777 0-9.655-6-15-6 0 1.974-2 3.517-2 6l13 5Z"/><path fill="#C8C9CA" id="fp" d="M71 142h1l1-2c0-1.896 2.08-11 4-11v-1c0-1.622-.46-5 2-5 0-2.161 1.729-10 4-10 0-1.465-.109-4 2-4l1-2 1-2c0-1.238.423-3 2-3 0-1.238.423-3 2-3l1-2 1-1 1-1 1-2 2-2c0-1.747.253-2 2-2 0-1.747.253-2 2-2 0-2.226 1.774-4 4-4 0-1.747.253-2 2-2 0-1.747.253-2 2-2l2-2 2-1 1-1c0-1.577 1.762-2 3-2l2-1 2-1 1-1 2-1 1-1 2-1 2-1 2-1 2-1 2-1 2-1 2-1h1c0-2.109 2.535-2 4-2h1c0-1.995 4.377-2 6-2h2c0-2.755 12-1.295 12 0h2c0-4.79 12.023-.738 13.5 0 3.837 1.919 23.037 15.574 24.5 18.5l-2 3.5h6l3-3-1-4-3-6c-6.3 0-14.376-15.938-20.5-19-.43-.215-22.099 3-26.5 3 0 1.714-5.594 1-7 1 0 3.134-9.518 3.009-11.5 4l-28 14c-11.878 5.939-27.743 24.985-33.5 36.5-2.984 5.969-3.415 15.83-6 21-2.041 4.082-4 10.772-4 15.5ZM383 139l2 2c0-24.33-21.711-61.106-43.5-72-10.309-5.154-20.817-9.909-31-15-1.655-.827-8.5-.204-8.5-3-1.406 0-7 .714-7-1-10.007 0-21.381-5.06-29.5-1-5.459 2.73-9.083 17-17.5 17l-3 5-1 5 4 3h5c0-2.638-1.476-3.547 0-6.5.271-.542 22.365-15.433 24.5-16.5 2.221-1.11 11.5-2.639 11.5 1h2c0-.964 12-3.363 12 0h2c2.449 0 11 .995 11 4h1c10.526 0 41.76 25.02 47 35.5 2.496 4.992 9 9.62 9 15.5v1c2.157 0 9 19.754 9 23l1 1v2Z"/><path fill="#188060" id="SSp-bfd1" d="M69 61h1c0-1.875 8.374-9 10-9l-3-3-10 8 2 4Z"/><path fill="#CBC9C7" id="or" d="M64 157c0 5.777-2.322 14 5 14v-15c0-1.235-.643-5 1-5v-1c0-1.145-.58-4 1-4v-4c0-4.728 1.959-11.418 4-15.5 2.585-5.17 3.016-15.031 6-21 5.757-11.515 21.622-30.561 33.5-36.5l28-14c1.982-.991 11.5-.866 11.5-4l-1-2-8 3-3 1c-4.922 0-9.462 6-14 6l-13 6c0 1.718-7.862 8-10 8-2.33 0-3.227 4-6 4 0 1.167-5.234 7-7 7 0 1.993-3.339 5-5 5 0 1.429-1.288 4-3 4 0 1.429-1.288 4-3 4l-6 12c0 4.264-4 7.497-4 12 2.072 0-1 5.655-1 7l-1 1v2l-1 2-1 2v1l-1 13c0 .981-1.184 8-2 8Z"/><path fill="#C9C9CA" id="scwm" d="M161 50c0 1.714-5.594 1-7 1l-1-2h8v1ZM295 50c0 1.714 5.594 1 7 1l1-2h-8v1Z"/><path fill="#CBC9C7" id="or" d="M393 168c-1.353 0-2.158 3-5 3-1.773 0-1-9.259-1-11v-10c0-.969-1.147-7-2-7v-2c0-24.33-21.711-61.106-43.5-72-10.309-5.154-20.817-9.909-31-15-1.655-.827-8.5-.204-8.5-3l1-2 9 3 3 1c4.628 0 8.878 6 13 6 7.411 0 16.827 13 23 13l14 13 8 9c0 2.466 5.271 10.771 7 12.5l2 3.5 4 11c-2.643 0 1 7.561 1 9l1 1v1l1 2v1c0 4.902 2 9.595 2 14 0 2.625-1.221 8 2 8v11Z"/><path fill="#188060" id="SSp-bfd1" d="M387 61h1l2-3c0-1.474-9.813-9-11-9 0 1.577-1.762 2-3 2v1c1.738 0 11 7.27 11 9Z"/><path fill="#0A828B" id="VISam6a" d="M144 51h1v-1l-1 1Z"/><path fill="#088589" id="VISpm6b" d="m145 52-3 1v-2h3v1ZM315 52v1l-3-1v-1l3 1Z"/><path fill="#187F63" id="SSp-bfd2/3" d="m70 61 5 6c4.097 0 7.28-9 12-9v-1c-2.666 0-6-2.104-6-5h-1c-1.626 0-10 7.125-10 9Z"/><path fill="#029EAB" id="VISrl6a" d="M104 72h1c0-1.952 8.344-7 10-7 0-3.655 12-4.765 12-8l-2-5c-2.775 0-26 14.146-26 16 1.252 0 5 3.172 5 4Z"/><path fill="#08858A" id="VISp6b" d="M128 57v2c4.538 0 9.078-6 14-6v-1c-5.376 0-9.056 5-14 5ZM328 57v2c-4.122 0-8.372-6-13-6v-1l13 5Z"/><path fill="#029EAB" id="VISrl6a" d="M352 72h1c0-1.533 3.753-4 5-4v-1c-6.699 0-18.379-15-26-15l-3 5 5.5 3L352 72Z"/><path fill="#187F63" id="SSp-bfd2/3" d="m387 61-6 6-11-9v-1c4.115 0 2.91-5 6-5 1.738 0 11 7.27 11 9Z"/><path fill="#C7C8CC" id="alv" d="M153 57h12c0-1.295-12-2.755-12 0Z"/><path fill="#C9CCC9" id="dhc" d="M201 79h2l2-3.5c-1.463-2.926-20.663-16.581-24.5-18.5-1.477-.738-13.5-4.79-13.5 0h1l2 1h1c2.76 0 20 14.23 20 17h1l2 2h1c.986 0 6 1.087 6 2ZM254 79h2c0-1.473 1.952-1 3-1l2-1h1l1-1 2-1c0-1.577 1.762-2 3-2l1-1 1-1 1-1 1-1 1-1 1-1c0-3.16 6.136-8 9-8h1l2-1c0-1.473 1.952-1 3-1 0-3.639-9.279-2.11-11.5-1-2.135 1.067-24.229 15.958-24.5 16.5-1.476 2.953 0 3.862 0 6.5h1Z"/><path fill="#C7C8CC" id="alv" d="M291 57h12c0-3.363-12-.964-12 0Z"/><path fill="#1A7E62" id="SSs1" d="M61 68h1l7-7-2-4-8 8 2 3Z"/><path fill="#009DAA" id="VISrl6b" d="m128 59-13 6c0-3.655 12-4.765 12-8h1v2Z"/><path fill="#C7C8CC" id="alv" d="M151 57c-1.623 0-6 .005-6 2 1.357 0 6-.647 6-2Z"/><path fill="#7ECF4B" id="CA1" d="m77 129-2 8 10-11.5c5.862-5.862 22.329-18.5 30-18.5 0-4.132 6.09-9.295 9.5-11l9-7c7.926-3.963 24.44-11.78 34-7 2.202 1.101 14.241 8 15.5 8 0-6.392 2-12.049 2-19 0-3.05-14-12.314-14-13h-1l-2-1h-17c0 1.353-4.643 2-6 2h-1l-4 2h-1l-2 1-2 1-2 1-2 1-2 1-2 1-2 1-1 1-2 1-1 1-2 1-2 1c0 1.577-1.762 2-3 2l-1 1-2 1c0 1.747-.253 2-2 2l-2 2-2 2-4 4-2 2-2 2c0 1.747-.253 2-2 2l-1 2-1 1-1 1-1 2c0 1.238-.423 3-2 3 0 1.238-.423 3-2 3l-1 2-1 2-2 4c0 1.761-2.307 10-4 10 0 1.424-.362 5-2 5v1Z"/><path fill="#C7C8CC" id="alv" d="m168 57 2 1-2-1ZM289 57c-1.048 0-3-.473-3 1 1.048 0 3 .473 3-1Z"/><path fill="#7ECF4B" id="CA1" d="M373 113c0 8.686 9 16.902 9 26l-9-12.5c-6.317-6.317-23.553-19.5-32-19.5 0-9.765-23.711-20.106-31.5-24h-4c-2.127-1.064-9.444-3.278-12-2-5.053 2.526-10.884 3.442-16 6l-4.5 4c0-7.312-2-12.78-2-20v-1l1-1 1-1 1-1c1.852 0 9-5.903 9-8h1l2-1c1.048 0 3 .473 3-1h16c0 .518 9.761 4 11 4h1l8 4.5c.425.425 23.911 15.706 25.5 16.5 4.901 2.45 15.294 17.087 17.5 21.5.756 1.512 3.037 8.5 5 8.5v1Z"/><path fill="#C7C8CC" id="alv" d="M305 57c2.449 0 11 .995 11 4-1.239 0-11-3.482-11-4Z"/><path fill="#009DAA" id="VISrl6b" d="M351 72h1l-17.5-12-5.5-3h-1v2c7.411 0 16.827 13 23 13Z"/><path fill="#197C64" id="SSp-bfd4" d="M79 72h1c0-1.474 9.813-9 11-9v-1l-4-4c-4.72 0-7.903 9-12 9v2c1.429 0 4 1.288 4 3Z"/><path fill="#C7C8CC" id="alv" d="m185 71 6 4c0-2.77-17.24-17-20-17 0 .686 14 9.95 14 13ZM286 58l-2 1 2-1Z"/><path fill="#197C64" id="SSp-bfd4" d="m381 68-4 4c-4.114 0-7.39-9-12-9v-1l5-4 11 9v1Z"/><path fill="#1A7E62" id="SSs1" d="M397 65c0 1.747-.253 2-2 2-1.645 0-7-4.588-7-6l2-3c2.217 0 7 5.189 7 7Z"/><path fill="#C7C8CC" id="alv" d="M144 59c-1.465 0-4-.109-4 2l4-2ZM283 59c-2.864 0-9 4.84-9 8 1.852 0 9-5.903 9-8Z"/><path fill="#1B8063" id="SSs2/3" d="M67 75h2c0-1.935 4.065-6 6-6v-2l-5-6h-1l-7 7c0 3.493 5 3.727 5 7Z"/><path fill="#C7C8CC" id="alv" d="m139 61-2 1 2-1ZM317 61c10.526 0 41.76 25.02 47 35.5 2.496 4.992 9 9.62 9 15.5-1.963 0-4.244-6.988-5-8.5-2.206-4.413-12.599-19.05-17.5-21.5-1.589-.794-25.075-16.075-25.5-16.5l-8-4.5Z"/><path fill="#1B8063" id="SSs2/3" d="M388 75h1l6-7v-1c-1.645 0-7-4.588-7-6h-1l-6 6v1l7 7Z"/><path fill="#C7C8CC" id="alv" d="m137 62-2 1 2-1Z"/><path fill="#1A7D62" id="SSp-bfd5" d="m80 72 6 6c3.725 0 4.972-5.736 7.5-7l4.5-3c0-2.677-4.849-5-7-5-1.187 0-11 7.526-11 9Z"/><path fill="#C7C8CC" id="alv" d="m135 63-2 1 2-1Z"/><path fill="#1A7D62" id="SSp-bfd5" d="M370 79h1c0-2.311 4.24-6 6-6v-1c-4.114 0-7.39-9-12-9-3.145 0-3.855 4-7 4v1c1.917 0 12 8.831 12 11Z"/><path fill="#C7C8CC" id="alv" d="m133 64-2 1 2-1Z"/><path fill="#039399" id="AUDd1" d="M45 89h1c0-5.712 15-16.709 15-21l-2-3c-1.62 0-18 19.527-18 21l4 3Z"/><path fill="#009DAA" id="VISrl6b" d="M105 72v1c2.138 0 10-6.282 10-8-1.656 0-10 5.048-10 7Z"/><path fill="#C7C8CC" id="alv" d="m131 65-2 1 2-1Z"/><path fill="#039399" id="AUDd1" d="M410 89h1l4-4-5-6.5c-3.829-3.83-8.346-13.5-13-13.5 0 1.747-.253 2-2 2v1c0 3.723 15 15.194 15 21Z"/><path fill="#C7C8CC" id="alv" d="m129 66-2 1 2-1ZM127 67l-2 1 2-1ZM274 67l-1 1 1-1Z"/><path fill="#029397" id="AUDd2/3" d="M46 89c2.46 0 4.17 4 7 4 .733 0 14-16.042 14-18 0-3.273-5-3.507-5-7h-1c0 4.291-15 15.288-15 21Z"/><path fill="#198060" id="SSp-bfd6a" d="m86 79 5 4c3.05 0 4.483-6 8-6l5-5c0-.828-3.748-4-5-4h-1l-4.5 3c-2.528 1.264-3.775 7-7.5 7v1Z"/><path fill="#C7C8CC" id="alv" d="m125 68-1 1 1-1ZM273 68l-1 1 1-1Z"/><path fill="#198060" id="SSp-bfd6a" d="m370 79-5 4-12-11c0-1.533 3.753-4 5-4 1.917 0 12 8.831 12 11Z"/><path fill="#187C63" id="SSs4" d="m388 75-3 3c-3.536 0-4.464-5-8-5v-1l4-4 7 7Z"/><path fill="#029397" id="AUDd2/3" d="M410 89c-2.46 0-4.17 4-7 4l-3.5-4c-2.159-2.159-10.5-10.987-10.5-14l6-7c0 3.723 15 15.194 15 21Z"/><path fill="#187C63" id="SSs4" d="M71 79h1l7-7c0-1.712-2.571-3-4-3-1.935 0-6 4.065-6 6l2 4Z"/><path fill="#C7C8CC" id="alv" d="m124 69-2 1 2-1ZM272 69l-1 1 1-1ZM122 70l-1 1 1-1ZM270 71h1v-1l-1 1ZM121 71l-2 1 2-1Z"/><path fill="#57B947" id="ProS" d="M189 94h1l1-19-6-4c0 6.951-2 12.608-2 19l3 3c1.048 0 3-.473 3 1Z"/><path fill="#C7C8CC" id="alv" d="m270 71-1 1 1-1Z"/><path fill="#57B947" id="ProS" d="M266 94h1c0-1.58 2.855-1 4-1l2-2c0-7.312-2-12.78-2-20h-1l-1 1-1 1c0 1.577-1.762 2-3 2v1l1 18Z"/><path fill="#1C8063" id="SSs5" d="m86 79-7 8-7-8 7-7h1l6 6v1Z"/><path fill="#1A7E61" id="SSp-bfd6b" d="M105 73c-2.33 0-3.227 4-6 4l5-5h1v1Z"/><path fill="#C7C8CC" id="alv" d="m119 72-2 1 2-1ZM269 72l-1 1 1-1Z"/><path fill="#1A7E61" id="SSp-bfd6b" d="M365 84v1l-14-13h2l12 11v1Z"/><path fill="#C7C8CC" id="alv" d="M117 73c-1.238 0-3 .423-3 2 1.238 0 3-.423 3-2ZM268 73c-1.238 0-3 .423-3 2 1.238 0 3-.423 3-2Z"/><path fill="#1C8063" id="SSs5" d="M377 87h1l7-8v-1c-3.536 0-4.464-5-8-5-1.76 0-6 3.689-6 6l6 8Z"/><path fill="#039398" id="AUDd4" d="M56 96h1c0-5.793 14-12.63 14-17l-2-4h-2c0 1.958-13.267 18-14 18v2l3 1Z"/><path fill="#C7C8CC" id="alv" d="m114 75-1 1 1-1Z"/><path fill="#4FC244" id="SUB" d="M218 86c0 14.6-20.91 8-28 8l1-19h1l2 2h1c0 1.995 4.377 2 6 2h2c0 1.587 6 1.587 6 0 4.702 0 9 1.938 9 7Z"/><path fill="#C7C8CC" id="alv" d="m192 75 2 2-2-2Z"/><path fill="#A8A9AA" id="V3" d="M221 86c6.522 0 6.653 3 7.5 3 .701 0 2.664-5.168 5-4l2.5 3c0-13.796-15-17.367-15-2Z"/><path fill="#C7C8CC" id="alv" d="M263 76h2v-1l-2 1Z"/><path fill="#039398" id="AUDd4" d="M399 96h1l3-2v-1l-3.5-4c-2.159-2.159-10.5-10.987-10.5-14h-1l-3 3v1c0 3.87 14 11.135 14 17Z"/><path fill="#C7C8CC" id="alv" d="m113 76-2 1 2-1Z"/><path fill="#7DCD4B" id="HPF" d="m221 81-3 5c0-5.062-4.298-7-9-7l3-3c1.916 0 .07 3 3 3l4 2h2ZM247 79h1l-4-3-2 3v1l5-1Z"/><path fill="#C7C8CC" id="alv" d="m263 76-1 1 1-1Z"/><path fill="#4FC244" id="SUB" d="M239 87c0 13.376 20.439 7 27 7l-1-18h-2l-1 1h-1l-2 1c0 1.473-1.952 1-3 1h-2c0 1.602-7 1.602-7 0l-5 1h-1c0 1.835-2 4.235-2 7Z"/><path fill="#1A7E61" id="SSp-bfd6b" d="M91 84h1c1.766 0 7-5.833 7-7-3.517 0-4.95 6-8 6v1Z"/><path fill="#C7C8CC" id="alv" d="m111 77-2 2c1.747 0 2-.253 2-2ZM195 77c.986 0 6 1.087 6 2-1.623 0-6-.005-6-2ZM261 77l-2 1 2-1ZM259 78c-1.048 0-3-.473-3 1 1.048 0 3 .473 3-1Z"/><path fill="#029398" id="AUDd5" d="M57 96c0 3.845 10 4.995 10 8l12-16v-1l-7-8h-1c0 4.37-14 11.207-14 17Z"/><path fill="#197D63" id="SSs6a" d="M87 89c-2.618 0-1.65 3-4 3l-4-4v-1l7-8 5 4v1c-1.811 0-4 3.438-4 5Z"/><path fill="#C7C8CC" id="alv" d="M109 79c-1.747 0-2 .253-2 2l2-2ZM203 79h6c0 1.587-6 1.587-6 0ZM253 79h1c0 1.602-7 1.602-7 0h6Z"/><path fill="#197D63" id="SSs6a" d="M377 87c0 2.124-2.024 5-4 5l-8-8v-1l5-4h1l6 8Z"/><path fill="#029398" id="AUDd5" d="M399 96c0 2.727-7.634 7-10 7l-3-3.5c-2.005-2.005-8-9.713-8-12.5l7-8c0 3.87 14 11.135 14 17Z"/><path fill="#7DCD4B" id="HPF" d="M236 81h2l3-1c0 1.835-2 4.235-2 7l-3-6Z"/><path fill="#C7C8CC" id="alv" d="M107 81c-1.747 0-2 .253-2 2l2-2Z"/><path fill="#7BD04A" id="DG-mo" d="M143 112h2l1-1h3l2-1h2l2-1h1c0-1.638 3.576-2 5-2 0-1.638 3.576-2 5-2 0-1.473 1.952-1 3-1l2-1h3l2-1c0-2.548 10-2.299 10-7v-2l-3-3c-1.259 0-13.298-6.899-15.5-8-9.56-4.78-26.074 3.037-34 7l-9 7c-3.41 1.705-9.5 6.868-9.5 11l2 2h5c0-6.381 30.679-20 37.5-20 4.639 0 11.1-.95 15 1 1.006.503 4.644 3.678 2 5-4.984 2.492-16.39 2.695-23 6-3.747 1.874-9.289 8-13.5 8-1.473 0-1 1.952-1 3h4ZM316 112h1v-3c-4.304 0-10.648-6.074-14.5-8-3.131-1.565-22.749-5.998-23.5-7.5l2.5-2.5c4.256-2.128 8.319-2 13.5-2 7.582 0 39 12.673 39 20h6l1-2c0-9.765-23.711-20.106-31.5-24h-4c-2.127-1.064-9.444-3.278-12-2-5.053 2.526-10.884 3.442-16 6l-4.5 4-2 2-1 2 3.5 4 6.5 3h1l2 1h2c2.264 0 15 3.476 15 6h1c1.048 0 3-.473 3 1h1l2 1h3l1 1h5Z"/><path fill="#C7C8CC" id="alv" d="M105 83c-2.226 0-4 1.774-4 4l4-4Z"/><path fill="#1A8061" id="SSs6b" d="M92 84c0 1.993-3.339 5-5 5 0-1.562 2.189-5 4-5h1ZM373 93v1l-8-9v-1l8 8v1Z"/><path fill="#A9AAA8" id="chpl" d="M231 95h2l1-1c2.698 0 2-4.255 2-6l-2.5-3c-2.336-1.168-4.299 4-5 4-.847 0-.978-3-7.5-3v3l-1 1v1l1 1v1l1 1 3 1h6Z"/><path fill="#029297" id="AUDp1" d="M429 131h5c0-12.904-7.55-25.6-13-36.5-.898-1.796-4.096-9.5-6-9.5l-4 4c0 2.512 11.11 19.72 13 23.5l4 13c0 1.278-.665 5.5 1 5.5ZM23 131h5c0-7.737 3.68-18.861 7-25.5 2.268-4.535 10-11.431 10-16.5l-4-3c-2.56 0-6.053 8.606-7 10.5-5.276 10.552-11 21.852-11 34.5Z"/><path fill="#C7C8CC" id="alv" d="M101 87c-1.747 0-2 .253-2 2l2-2Z"/><path fill="#019399" id="AUDd6a" d="M382 109h1c0-1.028 4.666-4 6-4v-2l-3-3.5c-2.005-2.005-8-9.713-8-12.5h-1c0 2.124-2.024 5-4 5v1c2.926 0 9 13.369 9 16ZM73 109h1c0-2.164 4.51-12 7-12l2-4v-1l-4-4-12 16v1c1.417 0 6 2.383 6 4Z"/><path fill="#019298" id="AUDp2/3" d="m28 132 7 1c0-11.763 7.089-20.678 12-30.5.752-1.504 3.885-7.5 6-7.5v-2c-2.83 0-4.54-4-7-4h-1c0 5.069-7.732 11.965-10 16.5-3.32 6.639-7 17.763-7 25.5v1Z"/><path fill="#1A8061" id="SSs6b" d="M83 93h1c1.712 0 3-2.571 3-4-2.618 0-1.65 3-4 3v1Z"/><path fill="#C7C8CC" id="alv" d="M99 89c-1.747 0-2 .253-2 2l2-2Z"/><path fill="#65A83D" id="DG-sg" d="M122 109c0-6.381 30.679-20 37.5-20 4.639 0 11.1-.95 15 1 1.006.503 4.644 3.678 2 5-4.984 2.492-16.39 2.695-23 6-3.747 1.874-9.289 8-13.5 8l1-4c2.329 0 4.952-3.726 7.5-5l8-3 8.5-3.5-9-.5c-2.427 0-20 8.49-20 10h-2l-1 1c-3.572 0-6.988 5-11 5Z"/><path fill="#A8A9AA" id="V3" d="m221 89-1 1 1-1Z"/><path fill="#65A83D" id="DG-sg" d="M317 109c-4.304 0-10.648-6.074-14.5-8-3.131-1.565-22.749-5.998-23.5-7.5l2.5-2.5c4.256-2.128 8.319-2 13.5-2 7.582 0 39 12.673 39 20l-11-5-1-1h-1c0-1.218-18.091-10-21-10l-9 .5c0 .418 7.697 3.099 8.5 3.5l7 2 8.5 6 2 4Z"/><path fill="#019298" id="AUDp2/3" d="m429 132-8 1c0-12.481-7.26-21.021-12-30.5-.791-1.582-3.942-8.5-6-8.5v-1c2.83 0 4.54-4 7-4h1c0 2.512 11.11 19.72 13 23.5l4 13c0 1.278-.665 5.5 1 5.5v1Z"/><path fill="#C7C8CC" id="alv" d="m97 91-2 2c1.747 0 2-.253 2-2Z"/><path fill="#A8A9AA" id="V3" d="m220 91 1 1-1-1Z"/><path fill="#019398" id="AUDd6b" d="M84 93c0 1.429-1.288 4-3 4l2-4h1Z"/><path fill="#C7C8CC" id="alv" d="m95 93-1 2 1-2Z"/><path fill="#7ECE4A" id="DG-po" d="M136 103c1.622 0 5-.461 5 2 2.329 0 4.952-3.726 7.5-5l8-3 8.5-3.5-9-.5c-2.427 0-20 8.49-20 10Z"/><path fill="#7DCD4B" id="HPF" d="m189 94-3 1v-2c1.048 0 3-.473 3 1Z"/><path fill="#A8A9AA" id="V3" d="m221 93 1 1-1-1Z"/><path fill="#7DCD4B" id="HPF" d="m267 94 3 1 1-2c-1.145 0-4-.58-4 1Z"/><path fill="#7ECE4A" id="DG-po" d="M321 103c-1.623 0-6 .005-6 2l-8.5-6-7-2c-.803-.401-8.5-3.082-8.5-3.5l9-.5c2.909 0 21 8.782 21 10Z"/><path fill="#019398" id="AUDd6b" d="M382 109v1l-2-3.5c-1.729-1.729-7-10.034-7-12.5v-1c2.926 0 9 13.369 9 16Z"/><path fill="#A8A9AA" id="V3" d="m234 94-1 1 1-1Z"/><path fill="#039397" id="AUDp4" d="m421 133-4 1c0-8.621-4.346-18.192-8-25.5L400 96l3-2c2.058 0 5.209 6.918 6 8.5 4.74 9.479 12 18.019 12 30.5ZM35 133l4 1c0-9.552 5.936-20.372 10-28.5 1.201-2.402 7-5.811 7-9.5l-3-1c-2.115 0-5.248 5.996-6 7.5-4.911 9.822-12 18.737-12 30.5Z"/><path fill="#C7C8CC" id="alv" d="m94 95-1 1 1-1Z"/><path fill="#A8A9AA" id="V3" d="M225 95h6c0 1.587-6 1.587-6 0Z"/><path fill="#039199" id="AUDp5" d="m39 134 16 3c0-9.691 12-24.697 12-32v-1c0-3.005-10-4.155-10-8h-1c0 3.689-5.799 7.098-7 9.5-4.064 8.128-10 18.948-10 28.5Z"/><path fill="#C7C8CC" id="alv" d="m93 96-1 1 1-1Z"/><path fill="#039199" id="AUDp5" d="M417 135c-6.096 0-10.248 2-16 2 0-9.176-12-27.888-12-32v-2c2.366 0 10-4.273 10-7h1l9 12.5c3.654 7.308 8 16.879 8 25.5v1Z"/><path fill="#019398" id="AUDd6b" d="M74 109h1l6-12c-2.49 0-7 9.836-7 12Z"/><path fill="#C7C8CC" id="alv" d="m92 97-1 2 1-2Z"/><path fill="#FF8FFC" id="NOT" d="M185 102c1.06 0 10-2.765 10 0l11-3c0-1.643-3.765-1-5-1-6.023 0-12.964 3-16 3v1ZM261 102h10v-1l-2.5-2-12.5-1c-1.235 0-5-.643-5 1 0 2.12 10 .88 10 3Z"/><path fill="#C7C8CC" id="alv" d="M91 99c-1.577 0-2 1.762-2 3 1.577 0 2-1.762 2-3Z"/><path fill="#FE90FC" id="OP" d="M211 102c0 13.115-12.205 5-14 5 0-2.25-2-3.376-2-5l11-3c1.766 0 5 .607 5 3Z"/><path fill="#A8A9AA" id="V3" d="M226 116h4l3-4.5 4-4c6.205-12.41-23.117-11.234-18-1l7 9.5Z"/><path fill="#FE90FC" id="OP" d="m261 102-2 6c-4.396 0-14 4.986-14-6l1-1c1.624 0 2.75-2 5-2 0 2.12 10 .88 10 3Z"/><path fill="#FF64FF" id="MB" d="M184 102h1v-1l-1 1Z"/><path fill="#FE8EFF" id="APN" d="M171 132c0 4.599 8 8.173 8 12 1.606 0 4.339 2.081 6.5 1 14.021-7.011 11.5-24.14 11.5-38 0-2.25-2-3.376-2-5 0-2.765-8.94 0-10 0h-2l-1 1h-1l-1 1-8 4-1 1-1 1-2 5c.904 0 5 12.024 5 13.5l-2 3.5Z"/><path fill="#FF64FF" id="MB" d="m246 101-1 1 1-1Z"/><path fill="#FE8EFF" id="APN" d="M286 132c0 1.73-6.593 11-8 11-2.099 0-4.383 3.558-7.5 2-13.141-6.57-11.5-23.782-11.5-37l2-6h10l4 1h1l1 1 9 5 1 1 1 5c0 1.664-7.757 17-2 17Z"/><path fill="#FF64FF" id="MB" d="m271 102 4 1-4-2v1Z"/><path fill="#C7C8CC" id="alv" d="M89 102c-1.577 0-2 1.762-2 3 1.577 0 2-1.762 2-3Z"/><path fill="#C7CBCB" id="bsc" d="M149 113h2c0-1.579 2.855-1 4-1l12-2c0-1.473 1.952-1 3-1h1l1-1 8-4v-1l-4-1-2 1h-1l-2 1h-1l-1 1h-2l-1 1h-1l-1 1h-2l-1 1h-1l-1 1h-3l-1 1h-1c0 1.473-1.952 1-3 1h-3l-2 1h-1c0 1.579 2.855 1 4 1Z"/><path fill="#FF64FF" id="MB" d="m183 102-1 1 1-1Z"/><path fill="#FF64FF" id="MB" fill-rule="evenodd" d="M184 227c0 9.091 5.873 0 0 0m-9 16 4 2c0-1.643 1.338-6 3-6l1-1c0-3.304 8.092-9 11-9 0-7.857 12-14.9 12-5h1l1-1c2.723 0 5.778-1 9-1l2-1c0-3.61-3-6.577-3-11-1.602 0-2.384 3.058-4.5 2-2.825-1.413 1.847-7 3.5-7 0-3.869-3.902-16 6-16 0-6.06-3.335-16.169-6-21.5l-2-23 2-5.5-2.5-2c-8.634-4.317 2.5-6.07 2.5-11h-1c-1.766 0-7 5.833-7 7 7.731 0-6 26.081-6 12v-4l2-5c-9.008 0 10.218-27 16-27 0-2.073-6.148-7-8-7 0 13.115-12.205 5-14 5 0 13.86 2.521 30.989-11.5 38-2.161 1.081-4.894-1-6.5-1 0 1.522 2.571 7 4 7 0-8.567 10.835-6.665 14.5-3 5.29 5.29 9.5 16.97 9.5 25l3.5-5c10.149 0 4.122 25.743-1.5 14.5l-2-2.5v-6c-.403 0-3.274 3-8 3-2.962 0-9.376 5-14 5h-4l6.5 3c2.404 1.202 4.205 6 .5 6l5 4.5c2.053 4.106-1.977 13.5-6 13.5 0 5.861-25 2.003-25-2-11.501 0-18.814-20-31-20l-4-1c0 1.574-.751 9 1 9 0-8.319 11.519-3.461 14 1.5 2.849 5.697-5.038 9.731 4.5 14.5l2.5 3-1-5.5c4.799-9.599 14.455 7.477 16.5 8.5l8 4c2.193 1.097 5.775 5.95 4.5 8.5-1.157 2.315-4.849 1.5-7 1.5 0 2.444 7.616 3.731 9 6.5 1.989 3.979-4 3.411-4 5.5ZM270 227c0 9.064 3.605 0 0 0m11 16-4 3c0-3.863-3-6.505-3-8 0-3.337-9.203-9-12-9 0-8.946-11-14.513-11-5l-2-1-10-1-2-2c0-1.564 4-6.033 4-9 9.512 0 1.185-6 1-6 0-5.418 1.915-16-7-16 0-3.08 5.472-22.444 7-25.5l1-21-2-3.5 2.5-2c8.667-4.333-2.5-7.758-2.5-12 .86 0 9 6.852 9 8-4.146 0-1.532 14.484 1.5 16 2.006 1.003 5.046-5.409 4.5-6.5l-3-7.5c9.463 0-10.556-26-15-26 0-2.122 4.877-7 7-7 0 10.986 9.604 6 14 6 0 13.218-1.641 30.43 11.5 37 3.117 1.558 5.401-2 7.5-2 0 1.738-3.015 8-5 8 0-5.178-8.174-7.663-11.5-6-4.533 2.267-12.5 20.836-12.5 26l-3.5-3-3 3c-9.135 9.135 6.5 20.667 6.5 8v-6l2.5 4c2.161 1.081 4.894-1 6.5-1 0 3.979 8.162 5 11 5l1 1h5c0 .16-6.631 3.565-7.5 4-1.484.742-2.258 5 .5 5l-4 4.5c-1.822 3.644.85 13.5 5 13.5 0 5.463 25 2.399 25-2 9.994 0 21.136-20 31-20l5-1c0 1.406.714 7-1 7l-3.5-3c-2.202-1.101-9.653 3.805-10.5 5.5-1.625 3.25 1.86 17.5-7 17.5l1-3.5-3.5-2.5c-6.908-3.454-9.693 8.347-15 11l-7 3c-1.768.884-5.445 6.61-4.5 8.5 1.157 2.315 4.849 1.5 7 1.5 0 2.444-7.616 3.731-9 6.5-1.545 3.09 4 3.915 4 5.5Z"/><path fill="#C7CBCB" id="bsc" d="M305 113h2c1.145 0 4 .579 4-1h-1l-1-1h-4c-1.048 0-3 .473-3-1h-1l-1-1-5-1-1-1h-2l-1-1h-1l-1-1h-2l-1-1h-1l-1-1h-1l-2-1h-1c-1.048 0-3-.473-3 1v1l9 5c1.048 0 3-.473 3 1l13 2c1.048 0 3-.473 3 1Z"/><path fill="#7ECE4A" id="DG-po" d="m134 103-1 1 1-1Z"/><path fill="#7ECF49" id="CA3" d="M161 248c-1.577 0-2 1.762-2 3-1.791 0-2.959 3.27-5.5 2l-.5-5.5c-2.344-4.688-6.496-12.5-13-12.5l-1-1h-1c0-2.489-5.033-2.267-6.5-3l-16-8L88 197l-1-1-1-1c0-3.923-5.272-9.044-7-12.5l-5-16v-7c-6.866-13.731 17.423-37.461 27.5-42.5 4.615-2.308 10.146-8 15.5-8h5c4.012 0 7.428-5 11-5l1-1h2c1.622 0 5-.461 5 2l-1 4c-1.473 0-1 1.952-1 3l-3 3h-1l-1 1-1 1-1 1-1 1c-1.747 0-2 .253-2 2-1.747 0-2 .253-2 2-1.747 0-2 .253-2 2-1.577 0-2 1.762-2 3-1.577 0-2 1.762-2 3-4.954 0-12 23.613-12 29 0 21.763 9.743 38.243 24.5 53l14.5 14 1 1c0 1.028 4.666 4 6 4l1 1 2 2h1l1 1 3 1 3 4-1 2c-1.747 0-2 .253-2 2-2.293 0-2 .997-2 3Z"/><path fill="#CAC7CB" id="fiber tracts" d="m173 103-2 1v-1h2Z"/><path fill="#FF64FF" id="MB" d="m181 103-1 1v-1h1ZM277 103v1l-1-1h1Z"/><path fill="#CAC7CB" id="fiber tracts" d="M285 103v1l-1-1h1Z"/><path fill="#7ECF49" id="CA3" d="M295 247c2.109 0 2 2.535 2 4l5.5 2c2.619-1.309.488-5.476 1.5-7.5 2.17-4.341 8.638-11.5 14-11.5 0-2.893 12.249-4.874 14.5-6 7.28-3.64 26.877-19.254 30.5-26.5l6-5.5 1-1 1-1c0-1.238.423-3 2-3 0-2.807 2.807-5.113 4-7.5l6-20V157c0-18.37-15.948-34.224-31.5-42l-11.5-6h-6l-11-5-1-1h-1c-1.623 0-6 .005-6 2l2 4v3c1.429 0 4 1.288 4 3 4.683 0 14.959 15.418 17 19.5l7 11c6.5 13 1.824 30.353-4 42-2.353 4.706-4.583 13.041-9.5 15.5L318 217l-1 1-1 1-1 1-1 1-1 1-1 1-1 1-1 1-1 1-1 1-1 1-1 1-1 1-2 1-1 1-1 1h-1l-1 1-1 1h-1l-1 1-1 1h-1l-1 1-2 1-1 1v1l4 4 1 2Z"/><path fill="#7ECE4A" id="DG-po" d="m322 103 1 1-1-1Z"/><path fill="#CAC7CB" id="fiber tracts" d="m170 104-1 1v-1h1ZM286 104l1 1-1-1Z"/><path fill="#019396" id="AUDp6a" d="m55 137 8 2c0-10.198 10-19.784 10-30 0-1.617-4.583-4-6-4 0 7.303-12 22.309-12 32Z"/><path fill="#C7C8CC" id="alv" d="m87 105-1 2 1-2Z"/><path fill="#CAC7CB" id="fiber tracts" d="m167 105-1 1v-1h1ZM289 105l1 1-1-1Z"/><path fill="#019396" id="AUDp6a" d="M393 139h1l7-2c0-9.176-12-27.888-12-32-1.334 0-6 2.972-6 4 0 8.88 10 20.093 10 30Z"/><path fill="#CAC7CB" id="fiber tracts" d="m165 106-1 1 1-1ZM291 106l1 1-1-1Z"/><path fill="#C7C8CC" id="alv" d="m86 107-1 2 1-2Z"/><path fill="#7DCF4B" id="CA2" d="M73 142c0 15.198-1.681 28.137 5 41.5 1.252 2.504 5.336 11.5 8 11.5 0-3.923-5.272-9.044-7-12.5l-5-16v-7c-6.866-13.731 17.423-37.461 27.5-42.5 4.615-2.308 10.146-8 15.5-8l-2-2c-7.671 0-24.138 12.638-30 18.5L75 137c0 1.041-.986 5-2 5Z"/><path fill="#CAC7CB" id="fiber tracts" d="m162 107-1 1v-1h1ZM294 107l1 1-1-1Z"/><path fill="#7DCF4B" id="CA2" d="M383 141c0 3.24.641 6.781 2 9.5 3.051 6.103-3.554 26.109-6 31-1.248 2.495-2.753 9.5-6 9.5 0-2.807 2.807-5.113 4-7.5l6-20V157c0-18.37-15.948-34.224-31.5-42l-11.5-6 1-2c8.447 0 25.683 13.183 32 19.5l9 12.5 1 1v1Z"/><path fill="#CAC7CB" id="fiber tracts" d="m160 108-1 1 1-1Z"/><path fill="#FF64FF" id="MB" d="m172 108-1 1 1-1Z"/><path fill="#039198" id="AUDp6b" d="M64 139h1c0-1.623.005-6 2-6 0-1.837 2.52-12 4-12 0-4.503 4-7.736 4-12h-2c0 10.216-10 19.802-10 30h1Z"/><path fill="#C7C8CC" id="alv" d="M85 109c-2.109 0-2 2.535-2 4l2-4Z"/><path fill="#CAC7CB" id="fiber tracts" d="m156 109-1 1v-1h1Z"/><path fill="#FF64FF" id="MB" d="M167 110h3v-1c-1.048 0-3-.473-3 1Z"/><path fill="#FE909D" id="LP" d="m171 109-1 1v-1h1Z"/><path fill="#FF8DFE" id="NPC" d="m204 135-1 1c-9.008 0 10.218-27 16-27v1l2 2 2 4v2l-1 1-7 6-1 1c-1.766 0-7 5.833-7 7l-2 1-1 1Z"/><path fill="#FF64FF" id="MB" d="m238 109-1 1 1-1Z"/><path fill="#FF8DFE" id="NPC" d="m250 133 3 2c9.463 0-10.556-26-15-26l-1 1-2 3-1 1-1 3 1 2c1.338 0 7 4.41 7 6 .86 0 9 6.852 9 8Z"/><path fill="#FF64FF" id="MB" d="M287 110h2c0-1.473-1.952-1-3-1l1 1Z"/><path fill="#CAC7CB" id="fiber tracts" d="M301 109v1l-1-1h1Z"/><path fill="#039198" id="AUDp6b" d="M392 139h1c0-9.907-10-21.12-10-30h-1v1l4 11c0 5.393 5 10.395 5 16v1l1 1Z"/><path fill="#CAC7CB" id="fiber tracts" d="M154 110c0 1.473-1.952 1-3 1v-1h3Z"/><path fill="#FE909D" id="LP" d="M145 145h2c0-1.933 10.099-8 12-8l8-4v-1c0-2.854-1.901-17 1-17l2-5h-3l-12 2c0 1.579-2.855 1-4 1h-2c0 1.579-2.855 1-4 1v5c1.614 0 1 3.31 1 4.5 0 4.718-1 9.287-1 13.5l-1 1c0 2.409 1 5.181 1 7Z"/><path fill="#FF64FF" id="MB" d="m219 110 2 2-2-2Z"/><path fill="#FE909D" id="LP" d="M309 145h3c0-1.423 1.978-3.544 1-5.5l-2-3.5v-17l1-4c0-2.496-5 .496-5-2h-2c-1.048 0-3 .473-3-1l-13-2h-2l1 5c4.167 0 1 14.702 1 17v1l8 4c2.272 0 12 5.067 12 8Z"/><path fill="#CAC7CB" id="fiber tracts" d="M305 110v1c-1.048 0-3 .473-3-1h3ZM148 111l-2 1v-1h2ZM310 111v1l-1-1h1Z"/><path fill="#7DCD4B" id="HPF" d="M137 115h1l1-1 1-1h1v-1h-2l-3 3h1Z"/><path fill="#CAC7CB" id="fiber tracts" d="M149 113c0 1.579-2.855 1-4 1l-2-1v-1h2c0 1.579 2.855 1 4 1ZM155 112c-1.145 0-4-.579-4 1 1.145 0 4 .579 4-1ZM302 112c1.048 0 3-.473 3 1-1.048 0-3 .473-3-1ZM312 115h2c0-.714-3.336-2-1-2v-1h-2c0 1.579-2.855 1-4 1 0 2.496 5-.496 5 2Z"/><path fill="#7DCD4B" id="HPF" d="M319 115h2c0-1.712-2.571-3-4-3h-1v1l2 2h1Z"/><path fill="#C7C8CC" id="alv" d="M83 113c-2.271 0-4 7.839-4 10 1.693 0 4-8.239 4-10Z"/><path fill="#CAC7CB" id="fiber tracts" d="m141 113-1 1v-1h1Z"/><path fill="#C7CBCB" id="bsc" d="M140 115h2c0-1.473 1.952-1 3-1l-2-1h-2l-1 1h-1l1 1Z"/><path fill="#FF64FF" id="MB" d="m235 113-1 1 1-1Z"/><path fill="#C7CBCB" id="bsc" d="M336 139v1c1.473 0 1-1.952 1-3 0-3.085-11.429-20-15-20l-3-2h-1l-3-2h-2c-2.336 0 1 1.286 1 2h2l1 1h1l1 1h1l2 2h1l4 4 2 3 2 2v1l2 2v1c1.577 0 2 1.762 2 3v3l1 1Z"/><path fill="#CAC7CB" id="fiber tracts" d="m316 113 2 2-3-2h1Z"/><path fill="#C7C8CC" id="alv" d="M383 139v1l-1-1c0-9.098-9-17.314-9-26 2.157 0 9 19.754 9 23l1 1v2Z"/><path fill="#CAC7CB" id="fiber tracts" d="m140 115-1 1-1-1 1-1 1 1ZM142 115h3v-1c-1.048 0-3-.473-3 1Z"/><path fill="#C7C8CC" id="alv" d="M134 116h1v-1l-1 1Z"/><path fill="#7DCD4B" id="HPF" d="M135 116h1v-1h-1v1Z"/><path fill="#CAC7CB" id="fiber tracts" d="m137 115-1 1v-1h1Z"/><path fill="#C7CBCB" id="bsc" d="M137 117h1l1-1-1-1h-1l-1 1h-1l2 1Z"/><path fill="#FE8083" id="LGd-sh" d="M121 139v2l2.5 2 9.5-15.5c.942-1.883 12-7.551 12-8.5v-4h-5l-1 1-1 1h-1c0 1.577-1.762 2-3 2l-1 1-1 1-1 1-1 1-1 1-1 1-1 1-1 1v1l-1 1-1 1-1 2v1l-1 2-1 2v2Z"/><path fill="#FF8D9D" id="POL" d="M167 132h4l2-3.5c0-1.476-4.096-13.5-5-13.5-2.901 0-1 14.146-1 17ZM286 132h3c0-2.298 3.167-17-1-17 0 1.664-7.757 17-2 17Z"/><path fill="#FE8083" id="LGd-sh" d="m335 142-1 1c-2.978 0-4.149-5.798-5-7.5-2.156-4.312-13.175-16.5-18-16.5l1-4h4l1 1h1l1 1h1l2 2h1l4 4 2 3 2 2v1l2 2v1l2 3v7Z"/><path fill="#CAC7CB" id="fiber tracts" d="m316 115 1 1-1-1ZM321 115l1 2-3-2h2Z"/><path fill="#C7C8CC" id="alv" d="M321 212c0 1.947-3 2.636-3 5l13.5-14c4.917-2.459 7.147-10.794 9.5-15.5 5.824-11.647 10.5-29 4-42l-7-11c-2.041-4.082-12.317-19.5-17-19.5l1 2c3.571 0 15 16.915 15 20 1.862 0 6 9.957 6 12v1c3.087 0 2.331 18.837 1 21.5-.567 1.134-.546 6.5-2 6.5 0 2.373-5.604 15-7 15 0 1.994-9.585 16-12 16l-1 2-1 1ZM133 117h1v-1l-1 1Z"/><path fill="#CAC7CB" id="fiber tracts" d="M137 117c0 1.577-1.762 2-3 2 0-.839 1.93-2 0-2v-1h1l2 1ZM139 116l-1 1 1-1Z"/><path fill="#FF64FF" id="MB" d="m225 117-2 1v-2l2 1Z"/><path fill="#CCCACA" id="pc" d="M215 125h1l8-4h8l9 4c0-1.59-5.662-6-7-6l-2-2-2-1h-4l-1 1-2 1-1 1-7 6Z"/><path fill="#CAC7CB" id="fiber tracts" d="m318 116 1 1-1-1Z"/><path fill="#C7C8CC" id="alv" d="m133 117-1 1 1-1Z"/><path fill="#C7CBCB" id="bsc" d="M127 125h1l1-1 1-1 1-1 1-1 1-1 1-1c0-.839 1.93-2 0-2h-1l-1 1-1 1-2 2-2 2v2Z"/><path fill="#FF64FF" id="MB" d="m233 117 1 2-2-2h1Z"/><path fill="#CAC7CB" id="fiber tracts" d="m320 117 2 2-2-2Z"/><path fill="#C7C8CC" id="alv" d="m132 118-1 1 1-1Z"/><path fill="#FF64FF" id="MB" d="m223 118-1 1 1-1Z"/><path fill="#C7C8CC" id="alv" d="M131 119c-1.747 0-2 .253-2 2l2-2Z"/><path fill="#CAC7CB" id="fiber tracts" d="m134 119-1 1 1-1Z"/><path fill="#FE7F84" id="LGd-co" fill-rule="evenodd" d="M141 124c0 1.958-14.621 10.439-3.5 16 5.139 2.569 10.604-16 3.5-16m-21 18 12 11 12-15 1-1c0-4.213 1-8.782 1-13.5 0-1.19.614-4.5-1-4.5 0 .949-11.058 6.617-12 8.5l-9.5 15.5-2.5-2-1 1ZM313 124c0 1.804-2.182 5.136-1 7.5.782 1.564.269 3.538 1 5 6.816 13.632 16.686-12.5 0-12.5m21 19-9 10c-3.442 0-11.617-17-14-17v-17c4.825 0 15.844 12.188 18 16.5.851 1.702 2.022 7.5 5 7.5Z"/><path fill="#CAC7CB" id="fiber tracts" d="m323 119 4 4-4-4ZM133 120l-1 1 1-1Z"/><path fill="#FF78FE" id="SCO" d="M226 127c.252 0 4-4.42 4 0 1.995 0 2-4.377 2-6h-8c0 2.483 2 4.026 2 6Z"/><path fill="#CCC8CA" id="ar" d="M67 133h1l1-2v-2l1-1c0-1.345 3.072-7 1-7-1.48 0-4 10.163-4 12Z"/><path fill="#C7C8CC" id="alv" d="M129 121c-1.747 0-2 .253-2 2l2-2Z"/><path fill="#FE90FE" id="PRC" d="M215 139h11l1-1c0-3.806-1-7.751-1-11 0-1.974-2-3.517-2-6l-8 4-1 1c0 4.93-11.134 6.683-2.5 11l2.5 2ZM230 139h11l2.5-2c8.667-4.333-2.5-7.758-2.5-12l-9-4c0 1.623-.005 6-2 6l-1 9c1.473 0 1 1.952 1 3Z"/><path fill="#CCC8CA" id="ar" d="m389 135 2 2c0-5.605-5-10.607-5-16-2.643 0 1 7.561 1 9l1 1v1l1 2v1Z"/><path fill="#CAC7CB" id="fiber tracts" d="m131 122-1 1 1-1Z"/><path fill="#C7C8CC" id="alv" d="M79 123c-2.46 0-2 3.378-2 5 1.638 0 2-3.576 2-5ZM125 125h2v-2c-1.747 0-2 .253-2 2Z"/><path fill="#CAC7CB" id="fiber tracts" d="m129 124-1 1 1-1Z"/><path fill="#FD8082" id="LGd-ip" d="M141 124c0 1.958-14.621 10.439-3.5 16 5.139 2.569 10.604-16 3.5-16ZM313 124c0 1.804-2.182 5.136-1 7.5.782 1.564.269 3.538 1 5 6.816 13.632 16.686-12.5 0-12.5Z"/><path fill="#C7C8CC" id="alv" d="M125 125c-1.577 0-2 1.762-2 3 1.577 0 2-1.762 2-3Z"/><path fill="#C7CBCB" id="bsc" d="M123 130h1l1-1 1-1v-1l1-1v-1h-2c0 1.238-.423 3-2 3v2Z"/><path fill="#CAC7CB" id="fiber tracts" d="m128 125-1 1v-1h1Z"/><path fill="#CCCACA" id="pc" d="M214 126h1v-1l-1 1Z"/><path fill="#FF64FF" id="MB" d="m216 125-1 1v-1h1Z"/><path fill="#A8A9AA" id="V3" d="m227 185 2 2v-51l1-9c0-4.42-3.748 0-4 0 0 3.249 1 7.194 1 11v11c1.793 0 1 12.009 1 14l-1 22Z"/><path fill="#CAC7CB" id="fiber tracts" d="m127 126-1 1 1-1ZM329 126l2 2-2-2Z"/><path fill="#C8C9CA" id="fp" d="m70 128-1 1 1-1Z"/><path fill="#C7C8CC" id="alv" d="m123 130-2 1c0-1.238.423-3 2-3v2Z"/><path fill="#CAC7CB" id="fiber tracts" d="m126 128-1 1 1-1Z"/><path fill="#C7C8CC" id="alv" d="M73 140v2c1.014 0 2-3.959 2-5l2-8c-1.92 0-4 9.104-4 11Z"/><path fill="#CAC7CB" id="fiber tracts" d="m125 129-1 1 1-1ZM331 129l2 2-2-2Z"/><path fill="#C7CBCB" id="bsc" d="M119 138c0 2.729.423 1 2 1v-2l1-2 1-2v-3l-2 1-1 4-1 1v2Z"/><path fill="#CAC7CB" id="fiber tracts" d="m124 130-1 2v-2h1Z"/><path fill="#C8C9CA" id="fp" d="m387 130 1 1-1-1Z"/><path fill="#019099" id="AUDv1" d="M21 151h6c0-6.244 1-13.428 1-19v-1h-5c-1.666 0-1 4.222-1 5.5 0 4.378-1 9.551-1 14.5Z"/><path fill="#C8C9CA" id="fp" d="m69 131-1 2 1-2Z"/><path fill="#C7C8CC" id="alv" d="m136 213 12 14-14.5-14c-14.757-14.757-24.5-31.237-24.5-53 0-5.387 7.046-29 12-29l-1 4-1 1v2c-3.134 0-6 10.351-6 13-2.104 0-3.164 14.172-2 16.5 2.266 4.532 1.748 10.496 4 15 3.246 6.492 9.204 13.409 12 19 .958 1.916 5.203 9.5 8 9.5v1l1 1Z"/><path fill="#019099" id="AUDv1" d="M429 151h6l-1-20h-5v20Z"/><path fill="#029198" id="AUDv2/3" d="M27 151h7c0-6.216 1-12.292 1-18l-7-1c0 5.572-1 12.756-1 19Z"/><path fill="#FF6F80" id="TH" d="M181 171c7.621 0 14.374 4 17 4 0-8.006-15-17.915-15-24-1.429 0-4-5.478-4-7 0-3.827-8-7.401-8-12h-4v1c0 10.589 11.602 14.704 16 23.5 1.93 3.86-3 4.161-3 6.5 2.985 0 1 6.717 1 8ZM275 171c-6.117 0-10.804 3-16 3 0-9.267 14-14.664 14-23 1.985 0 5-6.262 5-8 1.407 0 8-9.27 8-11h3v1c0 11.252-11.284 15.068-16 24.5l3 5.5c0 2.097-1 5.293-1 8Z"/><path fill="#CAC7CB" id="fiber tracts" d="M333 132c1.577 0 2 1.762 2 3l-2-3Z"/><path fill="#C8C9CA" id="fp" d="m388 132 1 2-1-2Z"/><path fill="#029198" id="AUDv2/3" d="M422 151h7v-19l-8 1c0 5.245 1 12.085 1 18Z"/><path fill="#029197" id="AUDv4" d="M34 151h4l1-17-4-1c0 5.708-1 11.784-1 18Z"/><path fill="#CCC8CA" id="ar" d="m67 136-2 3c0-1.623.005-6 2-6v3Z"/><path fill="#C8C9CA" id="fp" d="m68 133-1 2v-2h1Z"/><path fill="#CAC7CB" id="fiber tracts" d="m123 133-1 2 1-2Z"/><path fill="#FD8F9C" id="Eth" d="M159 137c0 6.309 13.777 26 21 26 0-2.339 4.93-2.64 3-6.5-4.398-8.796-16-12.911-16-23.5l-8 4Z"/><path fill="#FD8DFF" id="RPF" d="m204 135-1 1-2 5v4c0 14.081 13.731-12 6-12l-2 1-1 1ZM250 133l3 2 3 7.5c.546 1.091-2.494 7.503-4.5 6.5-3.032-1.516-5.646-16-1.5-16Z"/><path fill="#FD8F9C" id="Eth" d="M297 137c0 7.695-12.044 26-21 26l-3-5.5c4.716-9.432 16-13.248 16-24.5l8 4Z"/><path fill="#029197" id="AUDv4" d="M419 151h3c0-5.915-1-12.755-1-18l-4 1v1c0 5.163 2 10.237 2 16Z"/><path fill="#019098" id="AUDv5" d="m38 151 15 1c0-5.599 2-9.98 2-15l-16-3-1 17Z"/><path fill="#FF64FF" id="MB" d="m205 134-1 1 1-1Z"/><path fill="#CAC7CB" id="fiber tracts" d="m120 135-1 1 1-1ZM122 135l-1 2 1-2Z"/><path fill="#FF64FF" id="MB" d="m204 135-1 1 1-1Z"/><path fill="#C8C9CA" id="fp" d="M393 149h1v-2l-1-2v-2l-1-1v-1c-1.473 0-1-1.952-1-3v-1l-2-2c0 4.902 2 9.595 2 14h2Z"/><path fill="#019098" id="AUDv5" d="m419 151-15 1c0-4.939-3-10.486-3-15 5.752 0 9.904-2 16-2 0 5.163 2 10.237 2 16Z"/><path fill="#C8C9CA" id="fp" d="M63 149h3l1-13-2 3v1c0 1.048.473 3-1 3l-1 2v1l-1 2v1h1Z"/><path fill="#FF64FF" id="MB" d="m230 139-1 2v-5c1.473 0 1 1.952 1 3Z"/><path fill="#FF6F80" id="TH" d="m325 155-2 2c0-5.603-11-7.407-11-12 0-1.423 1.978-3.544 1-5.5l-2-3.5c2.383 0 10.558 17 14 17v2Z"/><path fill="#C7CACC" id="ccs" d="m382 136 1 1-1-1Z"/><path fill="#019397" id="AUDv6a" d="M53 152c2.41 0 5.181 1 7 1 0-4.711 3-9.756 3-14l-8-2c0 5.02-2 9.401-2 15Z"/><path fill="#FF6F80" id="TH" d="m145 137-1 1 1-1Z"/><path fill="#FF7E82" id="PoT" d="m161 175 4 1c0-1.947 13.772-5 16-5 0-1.283 1.985-8-1-8-7.223 0-21-19.691-21-26-1.901 0-12 6.067-12 8 .74 0 6 9.673 6 11 1.577 0 2 1.762 2 3 11.283 0 5 11.524 5 16h1ZM291 176h2l2-1h2c0-2.761-7.844-16 4-16l3-4 5-10c0-2.933-9.728-8-12-8 0 7.695-12.044 26-21 26 0 2.097-1 5.293-1 8 2.228 0 16 3.053 16 5Z"/><path fill="#CAC7CB" id="fiber tracts" d="m337 146 6 3c0-2.043-4.138-12-6-12 0 1.048.473 3-1 3v2c1.579 0 1 2.855 1 4Z"/><path fill="#019397" id="AUDv6a" d="M404 152c-2.707 0-5.903 1-8 1 0-5.156-2-9.202-2-14l7-2c0 4.514 3 10.061 3 15Z"/><path fill="#CAC7CB" id="fiber tracts" d="M119 146c-3.694 0-4.108 5-6 5 0-2.649 2.866-13 6-13 0 2.729.423 1 2 1v2l-1 1-1 4Z"/><path fill="#FF6F80" id="TH" d="M132 156h1l12-11c0-1.819-1-4.591-1-7l-12 15v3Z"/><path fill="#FC8FFF" id="PAG" d="M224 191h1c3.024 0 2-3.574 2-6l1-22c-1.793 0-1-12.009-1-14v-9l-1-1h-11l-2 5.5 2 23c2.665 5.331 6 15.44 6 21.5h1l1 1 1 1Z"/><path fill="#FF64FF" id="MB" d="m226 139 1 1v-2l-1 1Z"/><path fill="#FC8FFF" id="PAG" d="m235 189-3 2c-3.303 0-3-.959-3-4v-46l1-2h11l2 3.5-1 21c-1.528 3.056-7 22.42-7 25.5Z"/><path fill="#CAC7CB" id="fiber tracts" d="M335 139h1l-1-1v1Z"/><path fill="#CCC8CA" id="ar" d="M392 140v1c-1.473 0-1-1.952-1-3l1 1v1Z"/><path fill="#019198" id="AUDv6b" d="M60 153h1l1-4v-1l1-2v-1c0-1.048-.473-3 1-3v-3h-1c0 4.244-3 9.289-3 14Z"/><path fill="#C9C9CA" id="scwm" d="M64 140h1v-1h-1v1Z"/><path fill="#FE7F84" id="LGd-co" d="M335 142h1v-3h-1v3Z"/><path fill="#C7CACC" id="ccs" d="M385 141v2l-2-2v-2l2 2Z"/><path fill="#019198" id="AUDv6b" d="M395 153h1c0-5.156-2-9.202-2-14h-2v1l1 2v3l1 2v1l1 1v4Z"/><path fill="#CCC8CA" id="ar" d="M64 142v1c1.473 0 1-1.952 1-3h-1v2Z"/><path fill="#C7CACC" id="ccs" d="M72 142h1v-2l-1 2Z"/><path fill="#C9C9CA" id="scwm" d="M392 142h1l-1-2v2Z"/><path fill="#C7C8CC" id="alv" d="M318 234h1c7.973 0 16.693-5.597 23.5-9l7.5-6 26-26.5 7-12c1.18-2.36.779-5.558 2-8 .893-1.787-.261-12.5 2-12.5v-7c-1.473 0-1-1.952-1-3v-1l-1-1v-5l-2-2c0 3.24.641 6.781 2 9.5 3.051 6.103-3.554 26.109-6 31-1.248 2.495-2.753 9.5-6 9.5 0 1.238-.423 3-2 3l-1 1-1 1-6 5.5c-3.623 7.246-23.22 22.86-30.5 26.5-2.251 1.126-14.5 3.107-14.5 6Z"/><path fill="#C9C9CA" id="scwm" d="m64 143-1 2c0-1.048-.473-3 1-3v1Z"/><path fill="#C7CACC" id="ccs" d="M72 142c0 1.048.473 3-1 3v-3h1Z"/><path fill="#C7C8CC" id="alv" d="M137 234h1c0-2.489-5.033-2.267-6.5-3l-16-8L88 197l-1-1-1-1c-2.664 0-6.748-8.996-8-11.5-6.681-13.363-5-26.302-5-41.5h-1c0 1.048.473 3-1 3v5l-1 1v5c0 13.249 3.535 23.571 9 34.5 2.286 4.571 7.761 7.522 10 12l17 16.5 7.5 6c6.533 3.267 15.932 9 23.5 9Z"/><path fill="#FF909E" id="IGL" d="m132 156-1 4c-2.017 0-12-11.405-12-14l1-4 12 11v3Z"/><path fill="#FE7F84" id="LGd-co" d="m335 142-1 1 1-1Z"/><path fill="#FF909E" id="IGL" d="M325 155v6c1.121 0 12-13.758 12-15 0-1.145.579-4-1-4h-1l-1 1-9 10v2Z"/><path fill="#CCC8CA" id="ar" d="M393 142v1l-1-1h1Z"/><path fill="#C8C9CA" id="fp" d="M386 150h1c0-.969-1.147-7-2-7v5l1 1v1Z"/><path fill="#FF8FFD" id="MRN" d="m198 175 1 2c4.726 0 7.597-3 8-3v-1c0-8.03-4.21-19.71-9.5-25-3.665-3.665-14.5-5.567-14.5 3 0 6.085 15 15.994 15 24ZM259 174l-1 2c-1.606 0-4.339 2.081-6.5 1l-2.5-4v-2c0-5.164 7.967-23.733 12.5-26 3.326-1.663 11.5.822 11.5 6 0 8.336-14 13.733-14 23Z"/><path fill="#CCC8CA" id="ar" d="m134 158 2 4c1.606 0 4.339 2.081 6.5 1 2.133-1.067 8.486-7 10.5-7 0-1.327-5.26-11-6-11h-2l-12 11v1l1 1ZM320 162l-1 1c-4.566 0-15-2.178-15-8l5-10h3c0 4.593 11 6.397 11 12 0 1.238-1.923 5-3 5Z"/><path fill="#C9C9CA" id="scwm" d="m393 145 1 2-1-2ZM63 146l-1 2 1-2Z"/><path fill="#C8C9CA" id="fp" d="M70 150h1v-4c-1.58 0-1 2.855-1 4Z"/><path fill="#FF8E9F" id="LGv" d="M122 179h5c0-4.466.134-10.768 2-14.5l2-2.5v-2c-2.017 0-12-11.405-12-14-3.694 0-4.108 5-6 5 0 5.401-2.633 12.234 0 17.5l9 10.5ZM330 178c1.145 0 4-.579 4 1l3-3.5 5-5c3.316-6.632 1-13.502 1-20.5v-1l-6-3c0 1.242-10.879 15-12 15v1c1.798 0 5 13.666 5 16Z"/><path fill="#C7CACC" id="ccs" d="m385 148 1 1-1-1Z"/><path fill="#C9C9CA" id="scwm" d="M394 149h1l-1-1v1Z"/><path fill="#C8CBCC" id="ec" d="M76 205c0 1.465 1.115 4 0 4 0-1.97-8.061-16-10-16 0-.701 1.277-4-1-4v-2l-2-17-2-17 1-4h1c0 1.49-.735 8 1 8 0 5.777-2.322 14 5 14v19c0 1.465-.109 4 2 4v1l5 10Z"/><path fill="#CCC8CA" id="ar" d="M66 149c0 .981-1.184 8-2 8-1.735 0-1-6.51-1-8h3Z"/><path fill="#FF64FF" id="MB" d="M227 149c1.793 0 1 12.009 1 14-1.793 0-1-12.009-1-14Z"/><path fill="#CCC8CA" id="ar" d="M393 149v8c-3.221 0-2-5.375-2-8h2Z"/><path fill="#C8CBCC" id="ec" d="M393 157v10c2.161 0 2-11.652 2-14v-4h-2v8ZM71 150l-1 1v-1h1Z"/><path fill="#CAC7CB" id="fiber tracts" d="M335 193c0 1.994-9.585 16-12 16 0-4.387 6-9.525 6-16 1.714 0 1-5.594 1-7 0-2.367 4-4.032 4-7l3-3.5 5-5c3.316-6.632 1-13.502 1-20.5 3.087 0 2.331 18.837 1 21.5-.567 1.134-.546 6.5-2 6.5 0-9.458-8.582 8.664-10 11.5l.5 5.5 2.5-2Z"/><path fill="#C8CBCC" id="ec" d="M387 150v3c-1.473 0-1-1.952-1-3h1Z"/><path fill="#15B0B3" id="TEa1" d="m29 171-6 1-2-21h6v14.5l2 5.5Z"/><path fill="#16AFB3" id="TEa2/3" d="M38 169c0 .695-8.108 2-9 2l-2-5.5V151h7c0 5.99 4 12.42 4 18Z"/><path fill="#15B0B2" id="TEa4" d="M38 169h1l-1-18h-4c0 5.99 4 12.42 4 18Z"/><path fill="#15AFB3" id="TEa5" d="M40 169h12c0-5.587 1-12.081 1-17l-15-1 1 18h1Z"/><path fill="#C8CBCC" id="ec" d="M69 156h1v-5c-1.643 0-1 3.765-1 5Z"/><path fill="#CAC7CB" id="fiber tracts" fill-rule="evenodd" d="M114 175c0 4.267 5.073 12.645 7 16.5l3.5 3.5c2.794-1.397-5.103-20-10.5-20m14 20c0 6.48 7 11.988 7 16-2.797 0-7.042-7.584-8-9.5-2.796-5.591-8.754-12.508-12-19-2.252-4.504-1.734-10.468-4-15-1.164-2.328-.104-16.5 2-16.5 0 5.401-2.633 12.234 0 17.5l9 10.5c0 3.267 5 5.364 5 7 0 1.574-.751 9 1 9Z"/><path fill="#15AFB3" id="TEa5" d="M405 169h12l2-18-15 1 1 17Z"/><path fill="#15B0B2" id="TEa4" d="M417 169h1c1.951 0 .477-2.454 1-3.5 2.186-4.371 3-9.218 3-14.5h-3l-2 18Z"/><path fill="#16AFB3" id="TEa2/3" d="M427 171h1c0-5.998 1-13.358 1-20h-7c0 5.282-.814 10.129-3 14.5-.523 1.046.951 3.5-1 3.5 0 2.756 9-.756 9 2Z"/><path fill="#15B0B3" id="TEa1" d="m428 171 5 1c0-7.034 2-13.66 2-21h-6c0 6.642-1 14.002-1 20Z"/><path fill="#15AFB2" id="TEa6a" d="m52 169 10 1c0-5.368-2-11.041-2-17-1.819 0-4.59-1-7-1 0 4.919-1 11.413-1 17ZM405 169c-3.398 0-5.785 1-10 1l1-17c2.097 0 5.293-1 8-1l1 17Z"/><path fill="#16B0B2" id="TEa6b" d="M62 170h1l-2-17h-1c0 5.959 2 11.632 2 17ZM393 170h2l1-17h-1c0 2.348.161 14-2 14v3Z"/><path fill="#FF6F80" id="TH" d="M304 175h3l1-1c1.767 0 11-5.055 11-7v-4c-4.566 0-15-2.178-15-8l-3 4c3.337 0 2.794 4.647 5.5 6 1.013.506 7.443 1.614 6.5 3.5l-8 4.5-1 2Z"/><path fill="#FE8D9D" id="IntG" d="M319 167h1l1-1 4-4v-7l-2 2c0 1.238-1.923 5-3 5l-1 1v4Z"/><path fill="#A8AAAA" id="VL" d="m93 220 4 1c2.824 0 9 2.194 9-2l-17-16.5c-2.239-4.478-7.714-7.429-10-12-5.465-10.929-9-21.251-9-34.5h-1v34l2 4v1c1.319 0 7 7.901 7 9 2.414 0 7.886 16 15 16Z"/><path fill="#FE8D9D" id="IntG" d="M136 162c0 3.071 4.714 4 0 4l-5-4v-2l1-4h1v1l1 1 2 4Z"/><path fill="#FF6F80" id="TH" d="m150 175 4 1-2-3-3.5-2c-6.218-3.109-3.874-3.563 1-6l5.5-6c0-1.238-.423-3-2-3-2.014 0-8.367 5.933-10.5 7-2.161 1.081-4.894-1-6.5-1 0 3.071 4.714 4 0 4 0 2.166 9.999 8 12 8l1 1h1ZM133 157l1 1-1-1Z"/><path fill="#FD7F83" id="MGm" d="M152 173c2.522 0 4.909 2 8 2 0-4.476 6.283-16-5-16l-5.5 6c-4.874 2.437-7.218 2.891-1 6l3.5 2ZM305 173l-8 2c0-2.761-7.844-16 4-16 3.337 0 2.794 4.647 5.5 6 1.013.506 7.443 1.614 6.5 3.5l-8 4.5Z"/><path fill="#A8AAAA" id="VL" d="M359 221h2l1-1h1c8.085 0 12.124-15 15-15 0-1.987 3.223-6 5-6l1-2 1-2 1-2 1-2v-2l1-2v-16c-1.773 0-1-9.259-1-11-2.261 0-1.107 10.713-2 12.5-1.221 2.442-.82 5.64-2 8l-7 12-26 26.5c0 4.194 6.176 2 9 2Z"/><path fill="#F0483B" id="ZI" d="M177 205c0 5.954-11.888 2-15 2-11.501 0-18.814-20-31-20l-4-8c0-4.466.134-10.768 2-14.5l2-2.5 5 4c0 2.166 9.999 8 12 8l1 1h1l8 6 7.5 6c4.705 2.352 11.5 13.436 11.5 18Z"/><path fill="#FF6F80" id="TH" d="m320 162-1 1 1-1Z"/><path fill="#F0483B" id="ZI" d="M279 205c0 5.954 11.888 2 15 2 9.994 0 21.136-20 31-20l5-9c0-2.334-3.202-16-5-16l-4 4-1 1h-1c0 1.945-9.233 7-11 7l-1 1c0 .81-6.749 5-8 5 0 3.691-19 14.499-19 23l-1 1v1Z"/><path fill="#FF6F80" id="TH" d="m321 166-1 1 1-1Z"/><path fill="#C7CAC9" id="fr" d="m207 173 3.5-5c10.149 0 4.122 25.743-1.5 14.5l-2-2.5v-7ZM249 171l-3.5-3-3 3c-9.135 9.135 6.5 20.667 6.5 8v-8Z"/><path fill="#C8CBCC" id="ec" d="M381 205v1c4.006 0 4.161-13 9-13 0-1.048-.473-3 1-3 0-1.72.659-11 2-11v-11c-1.353 0-2.158 3-5 3v16l-1 2v2l-1 2-1 2-1 2-1 2-2 6Z"/><path fill="#0D9F91" id="ECT2/3" d="M34 187c4.135 0 7.306 2 11 2 0-7.268-5-12.878-5-20h-2c0 .695-8.108 2-9 2 0 3.274 4.605 5.711 6 8.5l-1 7.5Z"/><path fill="#0D9E90" id="ECT5" d="M57 194h1c0-8.57-6-14.894-6-25H40c0 7.122 5 12.732 5 20l1 1 11 4Z"/><path fill="#0E9F91" id="ECT6a" d="M58 194h3c0-1.579 2.855-1 4-1v-6c-1.952 0-.477-2.454-1-3.5-1.728-3.457-2-9.475-2-13.5l-10-1c0 10.106 6 16.43 6 25ZM395 193l3 1c0-8.55 7-15.609 7-25-3.398 0-5.785 1-10 1 0 .822-1.311 8-2 8v1c0 2.072.076 11-2 11v3h4Z"/><path fill="#0D9E90" id="ECT5" d="M398 194h1c3.861 0 7.868-4 12-4v-1c0-6.935 6-13.345 6-20h-12c0 9.391-7 16.45-7 25Z"/><path fill="#0D9F91" id="ECT2/3" d="m422 187-11 2c0-6.935 6-13.345 6-20h1c0 2.756 9-.756 9 2 0 3.29-5 7.571-5 16Z"/><path fill="#0E9F90" id="ECT6b" d="m63 170 2 17c-1.952 0-.477-2.454-1-3.5-1.728-3.457-2-9.475-2-13.5h1ZM395 170c0 .822-1.311 8-2 8v-8h2Z"/><path fill="#0D9F90" id="ECT1" d="M28 186c2.124 0 4.436 1 6 1l1-7.5c-1.395-2.789-6-5.226-6-8.5l-6 1c0 3.234 3.866 3.231 5 5.5v8.5Z"/><path fill="#FE8084" id="SPFp" d="M179 181c1.321 0 6-.684 6 1 4.624 0 11.038-5 14-5l-1-2c-2.626 0-9.379-4-17-4-2.228 0-16 3.053-16 5l1 1c2.84 0 6.715 3 10 3l1 1h2ZM270 182h2c0-1.643 3.765-1 5-1h2l1-1h2l1-1c3.303 0 5.115-2 8-2v-1c0-1.947-13.772-5-16-5-6.117 0-10.804 3-16 3l-1 2c0 3.979 8.162 5 11 5l1 1Z"/><path fill="#0D9F90" id="ECT1" d="M422 187h1c0-1.643 3.765-1 5-1 0-7.46 5-10.895 5-14l-5-1h-1c0 3.29-5 7.571-5 16Z"/><path fill="#CACCC8" id="ml" d="m181 182 6.5 3c2.404 1.202 4.205 6 .5 6-8.679 0-18.679-11-26-11l-1-1h-2c0-1.477-3.924-3-5-3l-2-3c2.522 0 4.909 2 8 2h1c0 1.014 3.959 2 5 2 2.84 0 6.715 3 10 3l1 1h2l2 1ZM275 182c0 .16-6.631 3.565-7.5 4-1.484.742-2.258 5 .5 5 10.001 0 20.414-12 29-12l7-4 1-2-8 2h-2l-2 1-2 1c-2.885 0-4.697 2-8 2l-1 1h-2l-1 1h-2l-2 1Z"/><path fill="#E64438" id="HY" d="m148 174 1 1-1-1ZM308 174l-1 1 1-1Z"/><path fill="#CACCCB" id="opt" d="M342 178c-.905 0-7 12.849-7 15l-2.5 2-.5-5.5c1.418-2.836 10-20.958 10-11.5ZM114 175c0 4.267 5.073 12.645 7 16.5l3.5 3.5c2.794-1.397-5.103-20-10.5-20Z"/><path fill="#E64438" id="HY" d="m159 179-1 2-8-6 4 1c1.076 0 5 1.523 5 3Z"/><path fill="#FF6F80" id="TH" d="m165 176 1 1c-1.041 0-5-.986-5-2l4 1ZM295 175l-2 1 2-1Z"/><path fill="#E64438" id="HY" d="m297 179 2 1c1.251 0 8-4.19 8-5h-3l-7 4Z"/><path fill="#FF6F80" id="TH" d="m293 176-2 1v-1h2Z"/><path fill="#FD8F9E" id="SubG" d="m127 186 4 1-4-8h-5c0 3.267 5 5.364 5 7ZM330 186l-5 1 5-9c1.145 0 4-.579 4 1 0 2.968-4 4.633-4 7Z"/><path fill="#CAC7CB" id="fiber tracts" d="M342 178c-.905 0-7 12.849-7 15 1.396 0 7-12.627 7-15Z"/><path fill="#F24739" id="FF" d="M177 205c3.004 0 5.769 4 10 4 4.023 0 8.053-9.394 6-13.5l-5-4.5c-8.679 0-18.679-11-26-11l-1-1h-2l-1 2 7.5 6c4.705 2.352 11.5 13.436 11.5 18Z"/><path fill="#E64438" id="HY" d="m161 179 1 1-1-1Z"/><path fill="#FF6F80" id="TH" d="m283 179-1 1 1-1Z"/><path fill="#F24739" id="FF" d="M279 205c-2.985 0-6.151 4-10 4-4.15 0-6.822-9.856-5-13.5l4-4.5c10.001 0 20.414-12 29-12l2 1c0 3.691-19 14.499-19 23l-1 1v1Z"/><path fill="#0E9F90" id="ECT6b" d="M393 179c-1.341 0-2 9.28-2 11 2.076 0 2-8.928 2-11Z"/><path fill="#FF6F80" id="TH" d="m176 180 1 1-1-1ZM280 180l-1 1 1-1ZM181 182h4c0-1.684-4.679-1-6-1l2 1ZM269 181l1 1-1-1ZM272 182h3l2-1c-1.235 0-5-.643-5 1Z"/><path fill="#FF64FF" id="MB" d="M227 195h2l1-1 1-1 1-2c-3.303 0-3-.959-3-4l-2-2c0 2.426 1.024 6-2 6v1l1 1 1 1v1Z"/><path fill="#0E9584" id="PERI1" d="M27 197h7v-10c-1.564 0-3.876-1-6-1l-2 4.5 1 6.5ZM423 197h6l1-7.5-2-3.5c-1.235 0-5-.643-5 1v10Z"/><path fill="#0E9583" id="PERI2/3" d="M41 196h7l-2-6-1-1c-3.694 0-6.865-2-11-2v10c1.819 0 4.59-1 7-1ZM415 196l8 1v-10h-1l-11 2v1l-3 6h7Z"/><path fill="#0E9F90" id="ECT6b" d="M65 193h1c0-.701 1.277-4-1-4v4Z"/><path fill="#FD4B3C" id="PH" d="M230 223h3l2-1 2-2c0-1.564 4-6.033 4-9 0-1.321-.684-6 1-6 0-5.418 1.915-16-7-16l-3 2-1 2-1 1-1 1c0 2.488-2 1.919-2 0v-1l-1-1-1-1-1-1-1-1-1-1h-1c-9.902 0-6 12.131-6 16l1 5c0 4.423 3 7.39 3 11l4 2h4c0-3.55 3-2.932 3 0Z"/><path fill="#FF64FF" id="MB" d="m222 189 1 1-1-1Z"/><path fill="#0F9684" id="PERI5" d="M48 196h1c0-1.735 6.51-1 8-1v-1l-11-4 2 6Z"/><path fill="#CCCAC7" id="cpd" d="m172 242 3 1c0-2.089 5.989-1.521 4-5.5-1.384-2.769-9-4.056-9-6.5-3.985 0-21-12.496-21-17l-2.5-3c-9.538-4.769-1.651-8.803-4.5-14.5-2.481-4.961-14-9.819-14-1.5 0 6.48 7 11.988 7 16v1l1 1 12 14 1 1c1.334 0 6 2.972 6 4l1 1 2 2h1l1 1 3 1 5 4h1l3 1ZM283 243h1l1-1 3-1 2-1 1-1 2-1 1-1h1l1-1 1-1h1l1-1 1-1h1l1-1 1-1 2-1 1-1 1-1 1-1 1-1 1-1 1-1 1-1 1-1 1-1 1-1 1-1 1-1 1-1c0-2.364 3-3.053 3-5l1-1 1-2c0-4.387 6-9.525 6-16l-3.5-3c-2.202-1.101-9.653 3.805-10.5 5.5-1.625 3.25 1.86 17.5-7 17.5l-1 1c0 5.015-16.551 17-21 17 0 2.444-7.616 3.731-9 6.5-1.545 3.09 4 3.915 4 5.5h2Z"/><path fill="#0E9F90" id="ECT6b" d="M390 193h1v-3c-1.473 0-1 1.952-1 3Z"/><path fill="#0F9684" id="PERI5" d="M399 195c3.013 0 6.611 1 9 1l3-6c-4.132 0-8.139 4-12 4v1Z"/><path fill="#E64438" id="HY" d="M225 191v1l-1-1h1Z"/><path fill="#7DCF4B" id="CA2" d="M373 191c-1.577 0-2 1.762-2 3 1.577 0 2-1.762 2-3Z"/><path fill="#A0EE9C" id="EPd" d="M72 229h1l4-3c0-2.839 3.69-6.121 2-9.5l-3-7.5c0-1.97-8.061-16-10-16h-1c-1.145 0-4-.579-4 1v11.5l7 14.5 1 4 3 5Z"/><path fill="#E64438" id="HY" d="m226 193 1 1-1-1ZM231 193l-1 1 1-1Z"/><path fill="#A0EE9C" id="EPd" d="M383 229h1l3-4 1-1 1-3c0-5.273 3.788-10.076 6-14.5V193h-5c-4.839 0-4.994 13-9 13v1l-1 2c0 1.4-1.431 8-3 8 0 3.947 3 6.628 3 10l3 2Z"/><path fill="#32B824" id="ENTl6a" d="M389 221h2c0-8.286 8-15.881 8-26v-1h-1l-3-1v13.5c-2.212 4.424-6 9.227-6 14.5ZM68 220l-3 1c0-9.08-8-16.276-8-26v-1h4v11.5l7 14.5Z"/><path fill="#E64438" id="HY" d="m230 194-1 1 1-1Z"/><path fill="#7DCF4B" id="CA2" d="m371 194-1 1 1-1Z"/><path fill="#31B824" id="ENTl5" d="m65 221-8 1c0-6.351-8-16.339-8-26 0-1.735 6.51-1 8-1 0 9.724 8 16.92 8 26Z"/><path fill="#E64438" id="HY" d="M227 195h2c0 2.488-2 1.919-2 0Z"/><path fill="#7DCF4B" id="CA2" d="m370 195-1 1 1-1Z"/><path fill="#31B824" id="ENTl5" d="m391 221 8 1c0-3.813 9-18.52 9-26-2.389 0-5.987-1-9-1 0 10.119-8 17.714-8 26Z"/><path fill="#32B825" id="ENTl2" d="m49 224-6 1c-3.237 0-9-23.357-9-28 1.819 0 4.59-1 7-1 0 8.488 8 22.233 8 28Z"/><path fill="#32B725" id="ENTl3" d="m57 222-8 2c0-5.767-8-19.512-8-28h8c0 9.661 8 19.649 8 26Z"/><path fill="#7DCF4B" id="CA2" d="m87 196 1 1-1-1Z"/><path fill="#32B725" id="ENTl3" d="m399 222 9 2c0-9.405 7-17.846 7-28h-7c0 7.48-9 22.187-9 26Z"/><path fill="#32B825" id="ENTl2" d="m408 224 6 2c0-6.995 9-19.176 9-29l-8-1c0 10.154-7 18.595-7 28Z"/><path fill="#32B722" id="ENTl1" d="M43 225c0 2.109-2.535 2-4 2 0-6.67-12-20.719-12-30h7c0 4.643 5.763 28 9 28ZM414 226l3 1c1.728 0 3.305-7.11 4-8.5 3.211-6.422 8-13.887 8-21.5h-6c0 9.824-9 22.005-9 29Z"/><path fill="#E64438" id="HY" d="m280 203-1 1 1-1Z"/><path fill="#90EB8D" id="LA" d="M80 227v1c.568 0 2.885-4.192 4.5-5 2.968-1.484 6.933-1 10.5-1l-2-2c-7.114 0-12.586-16-15-16v1c0 4.889.95 10.4 3 14.5l-1 7.5Z"/><path fill="#8AD987" id="CTXsp" d="m77 226 3 1 1-7.5c-2.05-4.1-3-9.611-3-14.5h-2c0 1.465 1.115 4 0 4l3 7.5c1.69 3.379-2 6.661-2 9.5Z"/><path fill="#E64438" id="HY" d="M162 207c0 4.003 25 7.861 25 2-4.231 0-6.996-4-10-4 0 5.954-11.888 2-15 2Z"/><path fill="#C8C8C8" id="mtg" d="M215 205c-1.653 0-6.325 5.587-3.5 7 2.116 1.058 2.898-2 4.5-2l-1-5ZM242 205c.185 0 8.512 6-1 6 0-1.321-.684-6 1-6Z"/><path fill="#E64438" id="HY" d="M294 207c0 4.399-25 7.463-25 2 3.849 0 7.015-4 10-4 0 5.954 11.888 2 15 2Z"/><path fill="#90EB8D" id="LA" d="M361 222c3.732 0 8.391-.555 11.5 1l3.5 4c0-1.657-.763-10 1-10 0-4.527 2-7.754 2-12h-1c-2.876 0-6.915 15-15 15l-1 1h-1v1Z"/><path fill="#8AD987" id="CTXsp" d="M380 209c0 1.4-1.431 8-3 8 0-4.527 2-7.754 2-12h2v2l-1 2Z"/><path fill="#FF8DFD" id="SNr" d="M149 214c0 4.504 17.015 17 21 17 2.151 0 5.843.815 7-1.5 1.275-2.55-2.307-7.403-4.5-8.5l-8-4c-2.045-1.023-11.701-18.099-16.5-8.5l1 5.5ZM307 214c0 5.015-16.551 17-21 17-2.151 0-5.843.815-7-1.5-.945-1.89 2.732-7.616 4.5-8.5l7-3c5.307-2.653 8.092-14.454 15-11l3.5 2.5-1 3.5-1 1Z"/><path fill="#C8CBCC" id="ec" d="m381 207-1 2 1-2Z"/><path fill="#CAC7CB" id="fiber tracts" d="m323 209-1 2 1-2ZM322 211l-1 1 1-1ZM135 212l1 1-1-1Z"/><path fill="#FF64FF" id="MB" d="m308 213-1 1 1-1Z"/><path fill="#C7C8CC" id="alv" d="m318 217-1 1 1-1Z"/><path fill="#8AD987" id="CTXsp" d="M376 227h4c0-3.372-3-6.053-3-10-1.763 0-1 8.343-1 10Z"/><path fill="#C7C8CC" id="alv" d="m317 218-1 1 1-1Z"/><path fill="#CBCCCB" id="mfb" d="M194 231c2.25 0 3.376 2 5 2 0-1.852 4.927-8 7-8v-1c0-9.9-12-2.857-12 5v2ZM262 231l-5 2c0-3.642-6-6.106-6-8v-1c0-9.513 11-3.946 11 5v2Z"/><path fill="#C7C8CC" id="alv" d="m316 219-1 1 1-1Z"/><path fill="#99D2BD" id="OLF" d="m65 221 4 3-1-4-3 1Z"/><path fill="#8AD987" id="CTXsp" d="m95 222 4 1-2-2-4-1 2 2Z"/><path fill="#E64438" id="HY" d="M227 223c0 2.373 2.284 0 3 0 0-2.932-3-3.55-3 0ZM235 222h4l-2-2-2 2Z"/><path fill="#C7C8CC" id="alv" d="m315 220-1 1 1-1Z"/><path fill="#8AD987" id="CTXsp" d="m363 220-1 1v-1h1Z"/><path fill="#6ACAB9" id="PIR" d="M79 261c0 7.118-8 17.175-8 21-1.524 0-10.13-10.761-11-12.5-5.355-10.709-21-30.659-21-42.5 1.465 0 4 .109 4-2l6-1 8-2 8-1 4 3 3 5 1 2c0 6.09-.568 15.365 2 20.5l3 8.5 1 1Z"/><path fill="#E64438" id="HY" d="m217 222 6 1-4-2-2 1Z"/><path fill="#C7C8CC" id="alv" d="m314 221-1 1 1-1Z"/><path fill="#8AD987" id="CTXsp" d="M359 222h2v-1h-2v1Z"/><path fill="#99D2BD" id="OLF" d="m391 221-3 3 1-3h2Z"/><path fill="#6ACAB9" id="PIR" d="M378 263c0 6.345 7 14.137 7 19l10.5-11c6.048-6.048 21.5-35.901 21.5-44l-3-1-6-2-9-2-8-1-3 3-1 1-3 4v1c0 5.884-.429 17.358-3 22.5l-3 7.5v3Z"/><path fill="#9DE69C" id="BLAp" d="M87 251h3c4.024 0 10.969-22 14-22l1-1-2-3-2-1-1-1h-1l-4-1c-3.567 0-7.532-.484-10.5 1-1.615.808-3.932 5-4.5 5 0 4.585 1.316 23 7 23Z"/><path fill="#FF493D" id="SUM" d="m264 243-3 2c0-4.119-10.474-11-14-11 0-8.347-7-7.104-7-1-3.695 0-7.429.465-10.5 2l-12.5-2c0-3.007-6.165-7.17-8-3.5l1 4.5c-2.962 0-15 6.187-15 10l-3-1c0-2.263 7-3.353 7-10 0-1.852 4.927-8 7-8l1-1 1-1c2.723 0 5.778-1 9-1l6 1h4c0 2.373 2.284 0 3 0h3l2-1h4l10 1 2 2c0 1.894 6 4.358 6 8 0 5.173 7 6.94 7 10Z"/><path fill="#E64438" id="HY" d="m235 222-2 1 2-1Z"/><path fill="#C7C8CC" id="alv" d="m313 222-1 1 1-1Z"/><path fill="#8AD987" id="CTXsp" d="m359 222-1 1 1-1Z"/><path fill="#9DE69C" id="BLAp" d="M366 251h3c7.542 0 7-19.97 7-24l-3.5-4c-3.109-1.555-7.768-1-11.5-1h-2l-1 1-5 2-1 4c3.459 0 7.467 12.435 9 15.5l5 6.5Z"/><path fill="#8AD987" id="CTXsp" d="m100 223 1 1-1-1Z"/><path fill="#E64438" id="HY" d="m208 223-1 1 1-1ZM251 224v1l-2-2 2 1Z"/><path fill="#C7C8CC" id="alv" d="m312 223-1 1 1-1Z"/><path fill="#E64438" id="HY" d="m207 224-1 1v-1h1Z"/><path fill="#C7C8CC" id="alv" d="m311 224-1 1 1-1Z"/><path fill="#99D2BD" id="OLF" d="m388 224-1 1 1-1Z"/><path fill="#8AD987" id="CTXsp" d="m105 228 4 1c0-1.617-4.583-4-6-4l2 3Z"/><path fill="#C7C8CC" id="alv" d="m310 225-1 1 1-1Z"/><path fill="#8AD987" id="CTXsp" d="m349 228 3 1 1-4c-1.429 0-4 1.288-4 3Z"/><path fill="#A0ED9D" id="EPv" d="m78 260 1 1c4.072 0 4.832-6 8-6v-4c-5.684 0-7-18.415-7-23v-1l-3-1-4 3v2c0 6.09-.568 15.365 2 20.5l3 8.5Z"/><path fill="#C7C8CC" id="alv" d="m309 226-1 1 1-1Z"/><path fill="#A0ED9D" id="EPv" d="m378 260-1 1c-3.351 0-5.107-6-7-6l-1-4c7.542 0 7-19.97 7-24h4l3 2 1 1c0 5.884-.429 17.358-3 22.5l-3 7.5Z"/><path fill="#F1483A" id="PSTN" d="M184 227c0 9.091 5.873 0 0 0ZM270 227c0 9.064 3.605 0 0 0Z"/><path fill="#C7C8CC" id="alv" d="m308 227-1 1 1-1Z"/><path fill="#8AD987" id="CTXsp" d="m105 228-1 1 1-1Z"/><path fill="#84E981" id="BMAp" d="m93 263 2 1 8-6c0-1.197 14-14.738 14-20l-2-4v-1l-1-1-1-1h-1l-1-1-2-1-4-1-1 1c-3.031 0-9.976 22-14 22v5c0 1.71.718 7 3 7Z"/><path fill="#C7C8CC" id="alv" d="M149 228c1.334 0 6 2.972 6 4-1.334 0-6-2.972-6-4Z"/><path fill="#C8CBCA" id="pm" d="m216 234-4 1-2-1-1-4.5c1.835-3.67 8 .493 8 3.5l-1 1ZM247 234l-2 1c-1.145 0-4 .579-4-1l-1-1c0-6.104 7-7.347 7 1Z"/><path fill="#C7C8CC" id="alv" d="m307 228-1 1 1-1Z"/><path fill="#8AD987" id="CTXsp" d="m349 228-2 1 2-1Z"/><path fill="#84E981" id="BMAp" d="m360 263 3 1c0-2.679 4-5.682 4-9l-1-4-5-6.5c-1.533-3.065-5.541-15.5-9-15.5l-3-1-2 1-4 2v1l-1 1-2 2v4c0 5.775 14 17.486 14 20l6 4Z"/><path fill="#8AD987" id="CTXsp" d="M73 229v2l-1-2h1Z"/><path fill="#E64438" id="HY" d="m194 231-11 7c0-3.304 8.092-9 11-9v2ZM262 231l12 7c0-3.337-9.203-9-12-9v2Z"/><path fill="#8AD987" id="CTXsp" d="M384 229v1l-1-1h1ZM111 230l1 1-1-1Z"/><path fill="#C7C8CC" id="alv" d="m305 230-2 1 2-1Z"/><path fill="#CAC7CB" id="fiber tracts" d="M127 236h8c0-1.454-5.366-1.433-6.5-2-4.356-2.178-10.29-3-15.5-3l1 1 1 1v1h1c0-1.947 11 1.323 11 2Z"/><path fill="#F2483A" id="LHA" d="m179 247 2 2c4.631 0 6.967-6 11-6 0-2.263 7-3.353 7-10-1.624 0-2.75-2-5-2l-11 7-1 1c-1.662 0-3 4.357-3 6v2ZM277 247l-2 2c-4.707 0-6.53-6-11-6 0-3.06-7-4.827-7-10l5-2 12 7c0 1.495 3 4.137 3 8v1Z"/><path fill="#C7C8CC" id="alv" d="m303 231-1 1 1-1Z"/><path fill="#CAC7CB" id="fiber tracts" d="M321 236h8c0-2.144 4.262-.381 5.5-1 1.722-.861 5.5-4.105 5.5 0l2-2 1-1v-1c-5.937 0-10.645 3-16 3-.986 0-6 1.087-6 2Z"/><path fill="#8AD987" id="CTXsp" d="m114 232 1 1-1-1Z"/><path fill="#C7C8CC" id="alv" d="m302 232-1 1 1-1Z"/><path fill="#8AD987" id="CTXsp" d="m343 232-1 1 1-1Z"/><path fill="#C8CBC7" id="st" d="M127 236c0 1.751-7.426 1-9 1l-2-3c0-1.947 11 1.323 11 2Z"/><path fill="#C7C8CC" id="alv" d="m156 233 2 2-2-2Z"/><path fill="#FD4B3E" id="Mmme" d="m224 255 2.5 2 5.5-1c0-2.715 1.657-3 4-3 0-5.297-4.563-19 5-19l-1-1c-3.695 0-7.429.465-10.5 2l-12.5-2-1 1c7.413 0 5 14.059 5 19 1.238 0 3 .423 3 2Z"/><path fill="#C7C8CC" id="alv" d="m300 233-1 1 1-1Z"/><path fill="#C8CBC7" id="st" d="m340 236-1 1c-1.657 0-10 .763-10-1 0-2.144 4.262-.381 5.5-1 1.722-.861 5.5-4.105 5.5 0v1Z"/><path fill="#8AD987" id="CTXsp" d="m118 237-1 1-2-4h1l2 3Z"/><path fill="#7DCD4B" id="HPF" d="M161 254c0 .689-7.178 2-8 2 0-6.367-14-15.273-14-19l-2-3h2l1 1c6.504 0 10.656 7.812 13 12.5l.5 5.5c2.541 1.27 3.709-2 5.5-2 0 1.238.423 3 2 3Z"/><path fill="#C7C8CC" id="alv" d="m139 234 1 1-1-1Z"/><path fill="#FC4B3E" id="Mml" d="M196 253c1.24 0 1.576 2 4 2 2.384 0 4.881-3 8-3 0-6.258 4-11.412 4-17l-2-1c-2.962 0-15 6.187-15 10l1 9Z"/><path fill="#FE4A3C" id="Mmm" d="M208 252c2.014 0 5.932-2.284 8.5-1l4.5 2c0-4.941 2.413-19-5-19l-4 1c0 5.588-4 10.742-4 17ZM248 252c-2.014 0-5.932-2.284-8.5-1l-3.5 2c0-5.297-4.563-19 5-19 0 1.579 2.855 1 4 1 0 5.802 3 10.561 3 17Z"/><path fill="#FC4B3E" id="Mml" d="M260 253c0 2.109-2.535 2-4 2 0-2.275-6.303-3-8-3 0-6.439-3-11.198-3-17l2-1c3.526 0 14 6.881 14 11l-1 8Z"/><path fill="#C7C8CC" id="alv" d="m299 234-1 1 1-1Z"/><path fill="#7DCD4B" id="HPF" d="M296 254c0 .689 7.178 2 8 2 0-3.491 11.883-19 14-19l1-3h-1c-5.362 0-11.83 7.159-14 11.5-1.012 2.024 1.119 6.191-1.5 7.5l-5.5-2c0 1.048.473 3-1 3Z"/><path fill="#C7C8CC" id="alv" d="m159 235 1 1-1-1ZM297 235l-1 1 1-1Z"/><path fill="#97EC93" id="PA" d="M113 259c1.297 0 13.237-10.131 21.5-6 2.309 1.154 9.363 8 11.5 8l7-5c0-6.367-14-15.273-14-19l-4-1h-8c0 1.751-7.426 1-9 1l-1 1c0 5.262-14 18.803-14 20 3.51 0 7.022 1 10 1Z"/><path fill="#C7C8CC" id="alv" d="m296 236-1 1 1-1Z"/><path fill="#97EC93" id="PA" d="M343 259h11c0-2.514-14-14.225-14-20l-1-2c-1.657 0-10 .763-10-1h-8l-3 1c-2.117 0-14 15.509-14 19 0 .996 6.15 5 7 5l6.5-6c4.284-2.142 25.5-3.625 25.5 4Z"/><path fill="#8AD987" id="CTXsp" d="m339 237 1 2v-3l-1 1Z"/><path fill="#C7C8CC" id="alv" d="M167 241h1l-5-4 3 4h1ZM294 237l-1 1 1-1Z"/><path fill="#E64438" id="HY" d="m183 238-1 1 1-1Z"/><path fill="#C7C8CC" id="alv" d="m293 238-2 1 2-1ZM291 239l-1 1 1-1ZM288 241h2v-1l-2 1Z"/><path fill="#7ECE4A" id="DG-po" d="m167 241-2 2 1-2h1Z"/><path fill="#65A83D" id="DG-sg" d="M163 245c-2.293 0-2 .997-2 3 3.701 0 8-3.138 8-7h-2l-2 2-2 2Z"/><path fill="#7BD04A" id="DG-mo" d="M164 254h2l1-1c7.192 0 5-7.474 5-11l-3-1c0 3.862-4.299 7-8 7-1.577 0-2 1.762-2 3s.423 3 2 3h3ZM293 254h3c1.473 0 1-1.952 1-3 0-1.465.109-4-2-4 0 2.337-7-2.543-7-6l-3 1-1 1h-1c0 3.506 1.659 10 6 10l1 1h3Z"/><path fill="#65A83D" id="DG-sg" d="m294 245 1 2c0 2.337-7-2.543-7-6h2c0 1.621 2.379 4 4 4Z"/><path fill="#7ECE4A" id="DG-po" d="m290 241 4 4c-1.621 0-4-2.379-4-4ZM165 243c-1.747 0-2 .253-2 2l2-2Z"/><path fill="#FF4B3D" id="LM" d="M182 254c0 1.533 3.753 4 5 4 2.381 0 9-1.584 9-5l-1-9-3-1c-4.033 0-6.369 6-11 6v4l1 1ZM269 258h1l1-1 4-4v-4c-4.707 0-6.53-6-11-6l-3 2-1 8c2.086 0 5.096 5 9 5Z"/><path fill="#E64438" id="HY" d="M181 249v3c-.672 0-2-4.329-2-5l2 2ZM275 249v4c1.995 0 2-4.377 2-6l-2 2Z"/><path fill="#8AD987" id="CTXsp" d="m87 255 3 1v-5h-3v4Z"/><path fill="#FC4C3E" id="PMd" d="M218 261h2l1-1 2-3 1-2c0-1.577-1.762-2-3-2l-4.5-2c-2.568-1.284-6.486 1-8.5 1-3.119 0-5.616 3-8 3 0 3.262 4 3.696 4 5l10 1h4ZM239 261h3l11-1c0-1.353 3-2.158 3-5 0-2.275-6.303-3-8-3-2.014 0-5.932-2.284-8.5-1l-3.5 2c-2.343 0-4 .285-4 3l1 1 2 3h1l1 1h2Z"/><path fill="#8AD987" id="CTXsp" d="M367 255h3l-1-4h-3l1 4Z"/><path fill="#60E6B5" id="COApm" d="m146 261-6.5 7c-2.899 2.899-16.537 16-20.5 16-7.218 0-6-20.858-6-25 1.297 0 13.237-10.131 21.5-6 2.309 1.154 9.363 8 11.5 8Z"/><path fill="#7DCD4B" id="HPF" d="m167 253-1 1 1-1Z"/><path fill="#E64438" id="HY" d="m181 253 1 1-1-1ZM204 260c-3.131 0-7 1.661-7 5l-10-7c2.381 0 9-1.584 9-5 1.24 0 1.576 2 4 2 0 3.262 4 3.696 4 5ZM253 260c1.56 0 7 1.683 7 4 1.882 0 9-4.355 9-6-3.904 0-6.914-5-9-5 0 2.109-2.535 2-4 2 0 2.842-3 3.647-3 5Z"/><path fill="#7DCD4B" id="HPF" d="m289 253 1 1-1-1Z"/><path fill="#60E6B5" id="COApm" d="M311 261c0 1.559 22.208 23 26 23 3.516 0 9.47-17.56 8-20.5l-2-4.5c0-7.625-21.216-6.142-25.5-4l-6.5 6Z"/><path fill="#7DCD4B" id="HPF" d="M163 254h1c0 1.186-1 1.186-1 0ZM292 254h1c0 1.186-1 1.186-1 0Z"/><path fill="#59D9AA" id="PAA" d="m90 287-1 2c-4.032 0-18-1.993-18-7 0-3.825 8-13.882 8-21 4.072 0 4.832-6 8-6l3 1c0 1.71.718 7 3 7 0 1.048-.473 3 1 3v1l-1 1c0 6.708-3 11.962-3 19Z"/><path fill="#E64438" id="HY" d="M231 260v1l-4-1h-2c0-2.003.293-3-2-3l1-2 2.5 2 5.5-1 1 1c-2.293 0-2 .997-2 3Z"/><path fill="#59D9AA" id="PAA" d="m367 288 1 1c4.032 0 17-1.935 17-7 0-4.863-7-12.655-7-19l-1-2c-3.351 0-5.107-6-7-6h-3c0 3.318-4 6.321-4 9v3l4 21Z"/><path fill="#FC4C3D" id="TMd" d="M221 260h4c0-2.003.293-3-2-3l-2 3ZM231 260h4l-2-3c-2.293 0-2 .997-2 3Z"/><path fill="#E64438" id="HY" d="m271 257-1 1 1-1Z"/><path fill="#5FE6B7" id="COApl" d="M90 287v3c12.187 0 12.921 2.789 24.5-3l4.5-3c-7.218 0-6-20.858-6-25-2.978 0-6.49-1-10-1l-8 6-1 2v1l-1 1c0 6.708-3 11.962-3 19ZM367 288v1c0 2.144-4.262.381-5.5 1-4.943 2.471-24.5-1.1-24.5-6 3.516 0 9.47-17.56 8-20.5l-2-4.5h11l6 4 3 4 4 21Z"/><path fill="#99D2BD" id="OLF" d="m78 260 1 1-1-1Z"/><path fill="#FF4B3B" id="PMv" d="M208 269h4l3-6-1-2-10-1c-3.131 0-7 1.661-7 5l2 1 1 1 5 1 1 1h2Z"/><path fill="#FC4C3D" id="TMd" d="m221 260-1 1 1-1Z"/><path fill="#FF5447" id="PVp" d="M213 271c0 2.334 4.181 1.341 5.5 2 5.251 2.625 16.313 2.844 22 0l3.5-2v-2l-3-6-2-2h-2l-1-1h-5v1c0 7.834-5 8.097-5 0v-1h-5l-1 1h-2l-3 2-3 6 1 2Z"/><path fill="#A8A9AA" id="V3" d="M226 261c0 8.097 5 7.834 5 0l-4-1-1 1Z"/><path fill="#E64438" id="HY" d="m236 260 1 1-1-1Z"/><path fill="#FF4B3B" id="PMv" d="M248 269h2l2-1h1l1-1h2l1-1h1l1-1 1-1c0-2.317-5.44-4-7-4l-11 1-1 2 3 6h4Z"/><path fill="#99D2BD" id="OLF" d="m377 261 1 2v-3l-1 1Z"/><path fill="#E64438" id="HY" d="m218 261-3 2-1-2h4ZM242 261l-1 2-2-2h3Z"/><path fill="#99D2BD" id="OLF" d="m95 264-1 2c-1.473 0-1-1.952-1-3l2 1ZM363 264v3l-3-4 3 1Z"/><path fill="#E64438" id="HY" d="m260 264-1 1 1-1ZM259 265l-1 1 1-1ZM199 266l1 1-1-1ZM257 266l-1 1 1-1Z"/><path fill="#99D2BD" id="OLF" d="m94 267-1 1 1-1Z"/><path fill="#E64438" id="HY" d="m254 267-1 1 1-1ZM205 268l1 1-1-1ZM252 268l-2 1 2-1ZM212 269l1 2c-1.041 0-5-.986-5-2h4ZM248 269l-4 2v-2h4Z"/><path fill="#99D2BD" id="OLF" d="m89 289 1 1v-3l-1 2ZM367 289h1l-1-1v1Z"/></svg>