<svg xmlns="http://www.w3.org/2000/svg" viewBox="0 0 456 320"><path fill="#1BA696" id="RSPagl1" d="m187 12-15 3-1-6c6.089 0 9.911-2 16-2v5Z"/><path fill="#1BA598" id="RSPd1" d="M217 20h1l2-2c0-10.144-25.699-11-33-11v5c4.793 0 30 .187 30 8ZM237 18l2 1c2.438 0 7.619-4.56 10.5-6 4.939-2.47 14.328-1 19.5-1V7c-11.557 0-20.76-.74-29 7.5l-3 3.5Z"/><path fill="#1BA696" id="RSPagl1" d="m269 12 16 3V9c-6.089 0-9.911-2-16-2v5Z"/><path fill="#0A8589" id="VISpm1" d="m145 16 2 4c8.336 0 16.412-5 25-5l-1-6c-2.84 0-16.745 3.623-19.5 5-1.053.527-6.5.851-6.5 2ZM309 20h1l1-5c-8.867 0-17.501-6-26-6v6c8.105 0 16.139 5 24 5Z"/><path fill="#1BA697" id="RSPd2/3" d="m217 20-4 3c-3.004 0-11.54-4.52-14.5-6-3.448-1.724-8.443 2-11.5 2v-7c4.793 0 30 .187 30 8ZM243 23h1l4.5-3 9-3c3.549-1.774 9.141 2 12.5 2l-1-7c-5.172 0-14.561-1.47-19.5 1-2.881 1.44-8.062 6-10.5 6v1l4 3Z"/><path fill="#1AA496" id="RSPagl2/3" d="M173 21v2c4.984 0 8.411-4 13-4h1v-7l-15 3 1 6ZM284 21v3l-14-5-1-7 16 3c0 1.564-1 3.876-1 6Z"/><path fill="#08858B" id="VISpm2/3" d="M149 30h1c0-1.59 4.386-1.443 5.5-2l17.5-7-1-6c-8.588 0-16.664 5-25 5l2 10ZM284 21c5.236 0 15.607 8 23 8 0-3.071 2-5.362 2-9-7.861 0-15.895-5-24-5 0 1.564-1 3.876-1 6Z"/><path fill="#098589" id="VISp1" d="M364 44h1l1-4c0-2.23-9.593-6.046-11.5-7-9.995-4.998-20.077-9.039-30-14h-5c-1.949-.974-6.452-4-8.5-4l-1 5c0 1.94 9.813 3.156 11.5 4 10.824 5.412 22.053 9.526 33 15 1.427.713 9.5 3.611 9.5 5ZM90 40l2 4c2.815 0 12.362-7.43 15.5-9 5.956-2.978 34.09-15 39.5-15l-2-4c-10.364 0-32.959 12.23-42.5 17-2.106 1.053-12.5 4.138-12.5 7Z"/><path fill="#1AA596" id="RSPd5" d="M202 32h1l10-8v-1c-3.004 0-11.54-4.52-14.5-6-3.448-1.724-8.443 2-11.5 2h-1l-1 10c3.651 0 17-4.88 17 3ZM272 30c-2.07 0-18-6.75-18 2-1.626 0-10-7.125-10-9l4.5-3 9-3c3.549-1.774 9.141 2 12.5 2 0 3.492 2 7.709 2 11Z"/><path fill="#1BA597" id="RSPv1" d="M275 78v1l-3.5 1c-6.507-3.253-31.69-8.88-34.5-14.5-3.331-6.662-4.638-14.276-8-21l-.5-5.5-1.5 4.5c0 3.705-2.401 9.802-4 13-1.637 3.274-2.38 6.76-4 10l-6 4.5h-1c-7.859 0-17.765 4.633-24.5 8-1.364.682-5.5 1.796-5.5-1l9.5-5c5.507-2.754 12.41-3.205 18-6 9.222-4.611 9.819-17.137 13.5-24.5 4.129-8.257-5-16.305-5-22.5l2-2c.783 0 7 10.658 7 13l1.5 5 .5-6.5c.909-1.817 6.332-11.5 8-11.5l2 1v1c0 3.38-9.527 13.446-6 20.5 3.616 7.232 3.583 21.042 12.5 25.5 5.996 2.998 13.099 4.05 19 7l10.5 5Z"/><path fill="#1CA697" id="RSPagl5" d="M184 31c-4.116 0-6.343 4-10 4 0-3.249-1-7.194-1-11v-1c4.984 0 8.411-4 13-4l-1 10-1 2ZM272 30l11 5c0-3.642 1-8.002 1-11l-14-5c0 3.492 2 7.709 2 11Z"/><path fill="#0A828C" id="VISp2/3" d="M96 51h1l11.5-6c6.712-3.356 33.994-15 40.5-15l-2-10c-5.41 0-33.544 12.022-39.5 15-3.138 1.57-12.685 9-15.5 9 0 2.757 4 4.081 4 7Z"/><path fill="#1AA597" id="RSPv2/3" d="M181 78h1l9.5-5c5.507-2.754 12.41-3.205 18-6 9.222-4.611 9.819-17.137 13.5-24.5 4.129-8.257-5-16.305-5-22.5h-1l-4 3v1c6.541 0 4.825 20.849 3 24.5-9.268 18.535-8.405 12.453-24.5 20.5-3.233 1.616-7.803 5-11.5 5v1l1 2v1ZM276 76l-1 2-10.5-5c-5.901-2.95-13.004-4.002-19-7-8.917-4.458-8.884-18.268-12.5-25.5-3.527-7.054 6-17.12 6-20.5l4 3c0 3.163-7.458 9.585-5 14.5 2.603 5.205 2.368 11.737 5 17 4.116 8.233 25.047 19.5 34 19.5l-1 2Z"/><path fill="#0A828C" id="VISp2/3" d="M359 51h1l4-7c0-1.389-8.073-4.287-9.5-5-10.947-5.474-22.176-9.588-33-15-1.687-.844-11.5-2.06-11.5-4h-1c0 3.638-2 5.929-2 9v1c8.846 0 32.169 10.834 40.5 15 1.945.972 11.5 3.437 11.5 6Z"/><path fill="#09828B" id="VISpm4" d="m150 30 1 4 22-10v-3l-17.5 7c-1.114.557-5.5.41-5.5 2ZM307 30l-2 3c-7.536 0-13.962-9-21-9v-3c5.236 0 15.607 8 23 8v1Z"/><path fill="#1BA498" id="RSPv5" d="m279 71-2 3c-8.953 0-29.884-11.267-34-19.5-2.632-5.263-2.397-11.795-5-17-2.458-4.915 5-11.337 5-14.5h1c0 1.875 8.374 9 10 9v1c-2.482 0 .431 9.363 1 10.5C257.75 49 271.948 70 279 70v1Z"/><path fill="#088489" id="VISpm5" d="M174 35c-6.208 0-13.331 8-20 8l-3-9 22-10c0 3.806 1 7.751 1 11Z"/><path fill="#1BA498" id="RSPv5" d="m178 70 2 4c3.697 0 8.267-3.384 11.5-5 16.095-8.047 15.232-1.965 24.5-20.5 1.825-3.651 3.541-24.5-3-24.5l-10 8c0 12.716-6.5 21-15.5 30-2.238 2.238-6.379 8-9.5 8Z"/><path fill="#088489" id="VISpm5" d="M302 43h1c0-3.68 2-5.511 2-9v-1c-7.536 0-13.962-9-21-9 0 2.998-1 7.358-1 11v1l19 7Z"/><path fill="#1AA697" id="RSPd6a" d="m182 39 5 2c2.666 0 15-5.715 15-9 0-7.88-13.349-3-17-3l-1 2-2 8ZM269 42h1l1-1c0-1.577 1.762-2 3-2 0-3.325-2-6.16-2-9-2.07 0-18-6.75-18 2v1c2.802 0 9.778 5.64 12.5 7l2.5 2Z"/><path fill="#0B848B" id="VISp4" d="M98 55h1l8.5-4c10.049-5.025 21.998-7 32-12l11.5-5-1-4h-1c-6.506 0-33.788 11.644-40.5 15L97 51l1 4Z"/><path fill="#1CA597" id="RSPagl6a" d="m275 39 6 1 2-4v-1l-11-5c0 2.84 2 5.675 2 9h1Z"/><path fill="#0B848B" id="VISp4" d="m359 51-1 4c-10.378 0-41.782-21-53-21v-1l2-3c8.846 0 32.169 10.834 40.5 15 1.945.972 11.5 3.437 11.5 6Z"/><path fill="#1CA597" id="RSPagl6a" d="m182 39-7 1-1-5c3.657 0 5.884-4 10-4l-2 8Z"/><path fill="#1AA498" id="RSPv6a" d="M177 70h1c3.121 0 7.262-5.762 9.5-8 9-9 15.5-17.284 15.5-30h-1c0 3.285-12.334 9-15 9v1c0 2.17 2.601 7-2 7l-6 12-2 9ZM278 61c0 2.723 1 5.778 1 9-7.052 0-21.25-21-24-26.5-.569-1.137-3.482-10.5-1-10.5 2.802 0 9.778 5.64 12.5 7l2.5 2c0 2.529-1.136 7 2 7 3.81 0 4.473 12 7 12Z"/><path fill="#088389" id="VISp5" d="M99 55c0 3.205 4 6.24 4 9 2.911 0 5.96-3.73 8.5-5 6.284-3.142 36.671-16 42.5-16l-3-9-11.5 5c-10.002 5-21.951 6.975-32 12L99 55ZM358 56l-5 8-8.5-5c-7.151-3.575-34.492-16-41.5-16 0-3.68 2-5.511 2-9 11.218 0 42.622 21 53 21v1Z"/><path fill="#09858B" id="VISpm6a" d="m154 43 3 6c7.014 0 12.005-8 18-8v-1l-1-5c-6.208 0-13.331 8-20 8ZM302 43l-2 6c-7.59 0-13.898-8-19-8v-1l2-4 19 7Z"/><path fill="#1AA598" id="RSPagl6b" d="M176 41h6v-2l-7 1v1h1Z"/><path fill="#1BA698" id="RSPd6b" d="M185 42h2v-1l-5-2v2c1.048 0 3-.473 3 1ZM271 41h4v-2h-1c-1.238 0-3 .423-3 2Z"/><path fill="#1AA598" id="RSPagl6b" d="M281 41v1c-1.564 0-3.876-1-6-1v-2l6 1v1Z"/><path fill="#029FAB" id="VISrl1" d="M88 47h1l3-3-2-4-4 3 2 4ZM365 44l3 2c1.577 0 2-1.762 2-3l-4-3-1 4Z"/><path fill="#088589" id="VISpm6b" d="m161 50-4 1v-2c7.014 0 12.005-8 18-8h1c0 2.355-9.508 7.004-11.5 8-1.046.523-3.5-.952-3.5 1Z"/><path fill="#CACCC7" id="cing" d="M164 51c3.411 0 9.431-5.534 12.5-4 5.34 2.67.5 7.232.5 10.5l2 3.5 6-12v-7c0-1.473-1.952-1-3-1h-6c0 2.355-9.508 7.004-11.5 8-1.046.523-3.5-.952-3.5 1 1.048 0 3-.473 3 1Z"/><path fill="#1BA698" id="RSPd6b" d="M270 42h1v-1l-1 1Z"/><path fill="#CACCC7" id="cing" d="m292 51-11.5-4c-3.759 1.88-2.5 10.986-2.5 14-2.527 0-3.19-12-7-12v-8h4c2.124 0 4.436 1 6 1 0 2.061 11.551 7 14 7l-3 2Z"/><path fill="#088589" id="VISpm6b" d="M300 50v1c-2.25 0-3.376-2-5-2-2.449 0-14-4.939-14-7v-1c5.102 0 11.41 8 19 8v1Z"/><path fill="#1AA497" id="RSPv6b" d="M187 42c0 2.17 2.601 7-2 7v-7h2ZM271 42v7c-3.136 0-2-4.471-2-7h2Z"/><path fill="#0B838B" id="VISal1" d="M60 71h1c0-2.41 23.655-24 27-24l-2-4c-3.74 0-18.54 14.04-22 17.5L58 67l2 4Z"/><path fill="#08858C" id="VISp6a" d="m104 66 2 4c3.356 0 5.985-5 10-5 0-1.707 16.131-8 19-8 0-1.995 4.377-2 6-2 0-2.059 13.711-5 16-5v-1l-3-6c-5.829 0-36.216 12.858-42.5 16-2.54 1.27-5.589 5-8.5 5v1l1 1ZM350 70h1l1-3 1-1v-2l-8.5-5c-7.151-3.575-34.492-16-41.5-16h-1l-2 6v1c9.618 0 30.765 9.633 39.5 14 1.7.85 10.5 4.119 10.5 6Z"/><path fill="#0B838B" id="VISal1" d="M395 71h1l2-4-6.5-7c-3.601-3.601-16.933-17-21.5-17 0 1.238-.423 3-2 3v1c2.95 0 27 20.414 27 24Z"/><path fill="#029EAC" id="VISrl2/3" d="M92 53h1l3-2c0-2.919-4-4.243-4-7l-3 3 3 6ZM363 53h1l4-6v-1l-3-2h-1l-4 7 3 2Z"/><path fill="#098389" id="VISal2/3" d="M66 76h1c0-5.373 25-20.86 25-23l-3-6h-1c-3.345 0-27 21.59-27 24l5 5Z"/><path fill="#C8C9CA" id="fp" d="M60 143h1l1-1 1-2v-2c0-1.048-.473-3 1-3l1-2v-1l1-2 1-1v-1l1-2 1-2 1-2 1-1v-1l1-2 1-1v-1l1-1 1-2 1-1v-1l1-1v-1l1-1 1-1 1-2 1-1 1-1 1-1v-1l1-1 1-1 1-1 1-1 1-2 3-3 1-1 2-1 1-1 1-1 1-1 1-1 1-1h1l1-1 1-1 1-1 2-1 1-1 1-1h1l1-1 2-1 2-1 1-1h1c0-1.577 1.762-2 3-2h1c0-1.577 1.762-2 3-2h1c0-1.577 1.762-2 3-2h1l2-1 2-1h1c0-1.638 3.576-2 5-2 0-.913 5.014-2 6-2 0-5.568 12.046-2.273 15.5-4 4.09-2.045 14.14-1.22 16.5 3.5 1.491 2.982 0 5.903 0 8.5h1l1-1 2-9-2-3.5c0-3.268 4.84-7.83-.5-10.5-3.069-1.534-9.089 4-12.5 4-3.027 0-7.494 3-11 3 0 1.984-7.92 3.21-9.5 4-10.219 5.11-21.677 7.838-32 13-6.951 3.475-24.98 16.461-28.5 23.5L73 109c0 7.991-13 23.753-13 34ZM395 143h1c0-7.392-3.923-13.346-7-19.5-2.36-4.72-3.632-10.264-6-15-8.307-16.614-25.063-31.281-41.5-39.5-8.95-4.475-19.101-6.55-28-11-1.736-.868-10.5-1.601-10.5-4-3.506 0-7.973-3-11-3l-11.5-4c-3.759 1.88-2.5 10.986-2.5 14 0 2.723 1 5.778 1 9v1h2c0-15.293 7.301-12 18-12 3.101 0 15 .046 15 4 2.394 0 19 6.134 19 8h1c1.9 0 11 4.127 11 6h1c1.85 0 5 2.23 5 4h1l2 2 1 1c1.334 0 6 2.972 6 4l1 1 9 9v1c2.373 0 8 8.091 8 10v1l2 2v1l2 2v1c2.356 0 8 12.765 8 15v1c1.638 0 2 3.576 2 5v1c1.014 0 2 3.959 2 5Z"/><path fill="#098389" id="VISal2/3" d="M389 76h1l5-5c0-3.586-24.05-24-27-24l-4 6c0 1.905 25 16.607 25 23Z"/><path fill="#C9C9CA" id="scwm" d="m304 53-1 1c-3.506 0-7.973-3-11-3l3-2c1.624 0 2.75 2 5 2l4 2Z"/><path fill="#08858A" id="VISp6b" d="M153 52c-4.04 0-7.361 3-12 3 0-2.059 13.711-5 16-5v1l-4 1Z"/><path fill="#C9C9CA" id="scwm" d="M153 52v2c3.506 0 7.973-3 11-3 0-1.473-1.952-1-3-1l-4 1-4 1Z"/><path fill="#08858A" id="VISp6b" d="M350 70v1c-4.197 0-10.701-6.1-14.5-8-7.277-3.638-23.196-10-31.5-10l-4-2v-1c9.618 0 30.765 9.633 39.5 14 1.7.85 10.5 4.119 10.5 6Z"/><path fill="#019EAA" id="VISrl4" d="M96 57h1l1-2-1-4h-1l-3 2 3 4ZM360 57h1l2-4-3-2h-1l-1 4v1l2 1Z"/><path fill="#CBC9C7" id="or" d="m72 107 1 2 10-14.5c3.52-7.039 21.549-20.025 28.5-23.5 10.323-5.162 21.781-7.89 32-13 1.58-.79 9.5-2.016 9.5-4v-2c-4.04 0-7.361 3-12 3 0 1.995-4.377 2-6 2 0 1.845-3.381 1.44-4.5 2-4.144 2.072-9.663 6-14.5 6 0 1.728-8.413 6-10 6L88 85.5 83 91l-11 14v2Z"/><path fill="#088588" id="VISal4" d="m67 76 2 2 6.5-5c5.248-2.624 14.787-16 20.5-16l-3-4h-1c0 2.14-25 17.627-25 23Z"/><path fill="#CBC9C7" id="or" d="M397 149v1c2.415 0-.134 7 1.5 7 2.175 0 1.5-9.357 1.5-11v-3l-1-1v-1l-1-2-1-5v-1l-2-4v-2l-3-5.5-5-10-4-4 2-.5-1-2-10-14c-1.522 0-20.242-20-24-20-4.197 0-10.701-6.1-14.5-8-7.277-3.638-23.196-10-31.5-10l-1 1c0 2.399 8.764 3.132 10.5 4 8.899 4.45 19.05 6.525 28 11 16.437 8.219 33.193 22.886 41.5 39.5 2.368 4.736 3.64 10.28 6 15 3.077 6.154 7 12.108 7 19.5 1.684 0 1 4.679 1 6Z"/><path fill="#088588" id="VISal4" d="m389 76-1 2-21-16.5-6-4.5 2-4h1c0 1.905 25 16.607 25 23Z"/><path fill="#019DAB" id="VISrl5" d="M97 57c0 1.17 3.976 7 6 7 0-2.76-4-5.795-4-9h-1l-1 2Z"/><path fill="#08858A" id="VISp6b" d="M141 55c-1.623 0-6 .005-6 2 1.623 0 6-.005 6-2Z"/><path fill="#019DAB" id="VISrl5" d="M353 64h1l6-7-2-1-5 8Z"/><path fill="#08848B" id="VISal5" d="m69 79 8 7c1.582 0 17.917-21 26-21v-1c-2.024 0-6-5.83-6-7h-1c-5.713 0-15.252 13.376-20.5 16L69 78v1Z"/><path fill="#08858A" id="VISp6b" d="M135 57c-2.869 0-19 6.293-19 8 4.837 0 10.356-3.928 14.5-6 1.119-.56 4.5-.155 4.5-2Z"/><path fill="#08848B" id="VISal5" d="M388 79c-3.598 0-5.782 7-9 7 0-3.132-22.405-21-25-21v-1l6-7h1l6 4.5L388 78v1Z"/><path fill="#C9CCC9" id="dhc" d="m175 71-3 1-5-1c0-1.52-9.173-6-11-6h-1c0-1.312-10-3.394-10-1h-1l-1-1c0-5.568 12.046-2.273 15.5-4 4.09-2.045 14.14-1.22 16.5 3.5 1.491 2.982 0 5.903 0 8.5ZM290 71l-6 1-3-1c0-15.293 7.301-12 18-12 3.101 0 15 .046 15 4l-2 1h-1c0-1.566-5-1.566-5 0-1.145 0-4-.58-4 1h-1c-1.465 0-4-.109-4 2l-2 1-2 1c-1.238 0-3 .423-3 2Z"/><path fill="#C7C8CC" id="alv" d="M137 65h7v-1l-1-1c-.986 0-6 1.087-6 2ZM145 64l10 1c0-1.312-10-3.394-10-1ZM306 64h5c0-1.566-5-1.566-5 0ZM312 65c8.213 0 15.127 6 21 6 0-1.866-16.606-8-19-8l-2 1v1Z"/><path fill="#57B947" id="ProS" d="M145 89h9c0-8.099 1-16.484 1-24l-10-1h-1v1c1.665 0 1 4.222 1 5.5V89Z"/><path fill="#C7C8CC" id="alv" d="M306 64c-1.145 0-4-.58-4 1 1.145 0 4 .58 4-1Z"/><path fill="#57B947" id="ProS" d="m303 88 9 1V70.5c0-1.532-1.604-5.5 0-5.5v-1h-6c0 1.58-2.855 1-4 1 0 7.62 1 16.035 1 23Z"/><path fill="#029EAB" id="VISrl6a" d="M353 65h1v-1h-1v1Z"/><path fill="#09828C" id="VISal6a" d="M77 87c2.518 0 2.334 3 5 3 2.663 0 17.998-20 24-20l-2-4-1-1c-8.083 0-24.418 21-26 21v1Z"/><path fill="#029EAB" id="VISrl6a" d="m103 65 1 1-1-1Z"/><path fill="#08858A" id="VISp6b" d="M106 70v1c1.587 0 10-4.272 10-6-4.015 0-6.644 5-10 5Z"/><path fill="#C7C8CC" id="alv" d="M137 65c-1.424 0-5 .362-5 2 1.424 0 5-.362 5-2Z"/><path fill="#7ECF4B" id="CA1" d="M139 234c-4.289 0-6.399 8-12 8-5.534 0-12.704-4.602-17.5-7l-20-10C74.494 217.497 59 180.875 59 164v-5c1.714 0 1-5.594 1-7v-3l1-2v-2c1.473 0 1-1.952 1-3l1-2v-2c1.473 0 1-1.952 1-3l1-2v-1l1-2 1-1v-1l1-2 1-2 1-2 1-1v-1l1-2 1-1v-1l1-1 1-2 1-1v-1l1-1v-1l1-1 1-1 1-2 1-1 1-1 1-1v-1l1-1 1-1 1-1 1-1 1-2 3-3 1-1 2-1 1-1 1-1 1-1 1-1 1-1h1l1-1 1-1 1-1 2-1 1-1 1-1h1l1-1 2-1 2-1 1-1h1c1.238 0 3-.423 3-2h1c1.238 0 3-.423 3-2h1c1.238 0 3-.423 3-2h1l2-1 2-1h1c1.424 0 5-.362 5-2h7c1.665 0 1 4.222 1 5.5V89c-7.165 0-14.364 6.932-20.5 10-22.234 11.117-35.5 31.676-35.5 59 0 5.856.803 29 8 29v1l2 2 1 1 1 1c0 3.527 24.313 25.813 28.5 30l8.5 8 1 4Z"/><path fill="#4FC244" id="SUB" d="m166 90-3 1c-3.071 0-5.362-2-9-2 0-8.099 1-16.484 1-24h1c0 1.52 9.173 6 11 6l5 1 2 1c0 1.505 4.197 8 6 8l-1 4-1 1-1 1-11 3Z"/><path fill="#C7C8CC" id="alv" d="M156 65c1.827 0 11 4.48 11 6-1.827 0-11-4.48-11-6ZM301 65c-1.465 0-4-.109-4 2l4-2Z"/><path fill="#4FC244" id="SUB" d="m290 90 3 1c1.167 0 10-2.413 10-3 0-6.965-1-15.38-1-23h-1l-4 2-2 1-2 1c0 1.577-1.762 2-3 2l-6 1-1 1-7 8c0 3.326 4 3.683 4 6 3.541 0 6.145 3 10 3Z"/><path fill="#7ECF4B" id="CA1" d="M329 242h1l5-1 2-1 2-1h1l2-1 2-1h1l2-1 2-1 4-2h1c0-1.577 1.762-2 3-2l2-1 2-1c0-1.577 1.762-2 3-2 0-1.577 1.762-2 3-2 0-1.811 3.438-4 5-4l4-4 1-1c0-1.238.423-3 2-3 0-1.238.423-3 2-3 0-1.238.423-3 2-3 0-1.572 2.052-7 4-7 0-4.444 4.082-9.664 6-13.5 3.948-7.896 4-17.948 4-27.5v-6c-1.579 0-1-2.855-1-4v-1c-1.473 0-1-1.952-1-3v-2c-1.638 0-2-3.576-2-5v-1c-1.638 0-2-3.576-2-5v-1l-8-15v-1l-2-2v-1l-2-2v-1l-8-10v-1l-9-9-1-1c-1.334 0-6-2.972-6-4l-1-1-2-2h-1l-5-4h-1c-1.452 0-11-4.937-11-6h-1c-5.873 0-12.787-6-21-6-1.604 0 0 3.968 0 5.5V89c5.643 0 11.643 5.572 16.5 8 16.112 8.056 28.578 21.657 36.5 37.5 1.922 3.843 1.06 9.12 3 13 .671 1.342-1 9.066-1 11.5 1.263 0 1.57 5.36 1 6.5-1.644 3.289-1.821 19.5-7 19.5l-1 2-1 1-1 1-1 1-1 2-1 1-1 1c0 2.636-6.185 5.87-7 7.5L325.5 223c-2.528 1.264-3.775 7-7.5 7l-1 4c4.16 0 6.631 8 12 8Z"/><path fill="#09828C" id="VISal6a" d="m379 87-4 3-13.5-13-10.5-7 1-3 1-1v-1h1c2.595 0 25 17.868 25 21v1Z"/><path fill="#029EAB" id="VISrl6a" d="m353 66-1 1 1-1Z"/><path fill="#039299" id="AUDpo1" d="m43 85 5 2 12-16-2-4c-1.138 0-15 16.772-15 18Z"/><path fill="#C7C8CC" id="alv" d="m131 67-2 1 2-1ZM297 67l-2 1 2-1Z"/><path fill="#039299" id="AUDpo1" d="M408 87h1l4-2c0-2.005-12.998-18-15-18l-2 4c0 3.87 12 11.197 12 16Z"/><path fill="#C7C8CC" id="alv" d="m129 68-2 1 2-1ZM295 68l-2 1 2-1ZM126 69c-1.238 0-3 .423-3 2 1.238 0 3-.423 3-2ZM293 69c-1.238 0-3 .423-3 2 1.238 0 3-.423 3-2Z"/><path fill="#0B848C" id="VISal6b" d="M82 91h1l5-5.5L106 71v-1c-6.002 0-21.337 20-24 20v1Z"/><path fill="#47C83C" id="POST" d="m181 79-1 2c-1.803 0-6-6.495-6-8l2-2 1-1h1l2 4v1l1 2v2Z"/><path fill="#0B848C" id="VISal6b" d="M374 91h1v-1l-13.5-13-10.5-7h-1v1c3.758 0 22.478 20 24 20Z"/><path fill="#029199" id="AUDpo2/3" d="M53 92h1l12-16-5-5h-1L48 87v1c2.741 0 2.75 4 5 4Z"/><path fill="#C7C8CC" id="alv" d="M122 71c-1.238 0-3 .423-3 2 1.238 0 3-.423 3-2Z"/><path fill="#7DCD4B" id="HPF" d="m172 72 2 1 2-2h-1l-3 1Z"/><path fill="#FF7AFD" id="SCzo" d="M223 82c0 1.93 1.161 0 2 0 0-7.608-4.757-11-12-11h-1c0 3.534-23 7.031-23 10h3c0-1.946 7.983-2.242 9.5-3 6.138-3.07 21.5-7.928 21.5 4ZM269 83h2c0-4.855-11.778-4.64-14.5-6-8.296-4.148-25.5-11.526-25.5 5l2 1c0-12.815 15.344-8.578 22.5-5 1.389.694 8.5 1.385 8.5 3h1l2 1h1l1 1Z"/><path fill="#47C83C" id="POST" d="m275 80 1 1 7-8-2-2h-2l-2 3-1 2-1 2v2Z"/><path fill="#7DCD4B" id="HPF" d="m284 72-1 1-2-2 3 1Z"/><path fill="#C7C8CC" id="alv" d="M334 71c1.9 0 11 4.127 11 6-1.452 0-11-4.937-11-6Z"/><path fill="#029199" id="AUDpo2/3" d="M408 87c0 1.925-3.075 5-5 5l-13-16 5-5h1c0 3.87 12 11.197 12 16Z"/><path fill="#C7C8CC" id="alv" d="M118 73c-1.238 0-3 .423-3 2 1.238 0 3-.423 3-2Z"/><path fill="#FF78FF" id="SCsg" d="M192 81c6.286 0 17.735-5.382 24.5-2 2.355 1.177 3.646 3 6.5 3 0-11.928-15.362-7.07-21.5-4-1.517.758-9.5 1.054-9.5 3ZM264 81c-6 0-16.986-5.257-23.5-2l-7.5 4c0-12.815 15.344-8.578 22.5-5 1.389.694 8.5 1.385 8.5 3Z"/><path fill="#C7C8CC" id="alv" d="m114 75-1 1 1-1Z"/><path fill="#7DCD4B" id="HPF" d="m180 75 1 2-1-2Z"/><path fill="#039298" id="AUDpo4" d="M54 92c0 1.577 1.762 2 3 2 4.867 0 6.337-15 12-15v-1l-2-2h-1L54 92Z"/><path fill="#C7C8CC" id="alv" d="m113 76-2 1 2-1Z"/><path fill="#7DCD4B" id="HPF" d="m276 76-1 2 1-2Z"/><path fill="#039298" id="AUDpo4" d="M399 95h1c0-1.577 1.762-2 3-2v-1l-13-16h-1l-1 2v1l3 3.5c1.992 1.992 8 9.399 8 12.5Z"/><path fill="#C7C8CC" id="alv" d="m111 77-2 1 2-1ZM346 77c1.85 0 5 2.23 5 4l-5-4ZM109 78l-1 1 1-1Z"/><path fill="#019197" id="AUDpo5" d="M66 101h1c0-2.763 5.355-8.855 7-10.5l3-3.5v-1l-8-7c-5.663 0-7.133 15-12 15v1l9 6Z"/><path fill="#C7C8CC" id="alv" d="m107 79-1 1 1-1Z"/><path fill="#7DCD4B" id="HPF" d="M179 85h2l1-1c0-.53 1.079-5-1-5l-1 2-1 4Z"/><path fill="#FD7AFF" id="SCop" d="M215 85c.801 0 10 5.736 10 2v-5c-.839 0-2 1.93-2 0-2.854 0-4.145-1.823-6.5-3-6.765-3.382-18.214 2-24.5 2h-1l-2 1-1 1h-3l-3 2h-1v2c4.499 0 7.354-2 12-2 0-1.684 4.679-1 6-1 2.231 0 6.728-2.386 9.5-1l6.5 2ZM275 85l2 3c-4.833 0-8.736-3-14-3 0-2.144-4.262-.38-5.5-1-5.688-2.844-11.031 1-16.5 1-.733 0-10 5.79-10 2v-5l2 1 7.5-4c6.514-3.257 17.5 2 23.5 2h1l2 1h1l1 1h2l4 2Z"/><path fill="#019197" id="AUDpo5" d="M389 101h1l9-6c0-3.101-6.008-10.508-8-12.5l-3-3.5c-3.598 0-5.782 7-9 7v1c2.831 0 10 11.68 10 14Z"/><path fill="#C7C8CC" id="alv" d="m106 80-1 1 1-1Z"/><path fill="#7DCD4B" id="HPF" d="m278 86 2 1c0-2.317-4-2.674-4-6l-1-1v5l3 1Z"/><path fill="#C7C8CC" id="alv" d="m105 81-2 1 2-1Z"/><path fill="#FF7AFD" id="SCzo" d="M185 83h3l1-1v-1l-4 2Z"/><path fill="#FF78FF" id="SCsg" d="m191 81-2 1v-1h2ZM265 81l2 1-2-1Z"/><path fill="#C7C8CC" id="alv" d="m352 81 2 2-2-2Z"/><path fill="#FF78FF" id="SCsg" d="m189 82-1 1 1-1ZM268 82l1 1-1-1Z"/><path fill="#C7C8CC" id="alv" d="m102 83-1 1 1-1Z"/><path fill="#FF64FF" id="MB" d="M215 85c0 1.643-3.765 1-5 1l-16 2c0-1.62 4.257-3-1-3 0-1.684 4.679-1 6-1 2.231 0 6.728-2.386 9.5-1l6.5 2ZM263 85c-5.257 0-1 1.38-1 3-5.377 0-10.211-2-16-2-1.235 0-5 .643-5-1 5.469 0 10.812-3.844 16.5-1 1.238.62 5.5-1.144 5.5 1Z"/><path fill="#C7C8CC" id="alv" d="m101 84-1 1 1-1Z"/><path fill="#FF64FF" id="MB" d="M181 85h1v-1l-1 1Z"/><path fill="#C7C8CC" id="alv" d="M355 84c1.334 0 6 2.972 6 4-1.334 0-6-2.972-6-4Z"/><path fill="#029297" id="AUDp1" d="M30 121h1c0-9.383 7.07-16.641 11-24.5l6-8.5v-1l-5-2c-2.058 0-5.209 6.918-6 8.5-2.955 5.91-12 20.234-12 26.5l5 1Z"/><path fill="#C7C8CC" id="alv" d="m99 85-1 1 1-1Z"/><path fill="#7DCD4B" id="HPF" d="m179 85-1 1 1-1Z"/><path fill="#FF64FF" id="MB" d="M179 88c0 .994-5.757 4-7 4l5-5 1-1 1-1h2v2l-2 1Z"/><path fill="#FF8FFC" id="NOT" d="M161 110v3c1.725 0 13.047-14 17-14l1-1 1-1 1-1 1-1c0-1.577 1.762-2 3-2l1-1 1-1h1l1-1h1l1-1h1l1-1h1c0-1.62 4.257-3-1-3-4.646 0-7.501 2-12 2l-2 1c0 .994-5.757 4-7 4l-1 1-1 1c0 3.425-7 5.927-7 10l-1 1-1 5Z"/><path fill="#FF90FF" id="SCig" d="M201 103c-5.731 0-9.272 11.386-14.5 14-2.457 1.228-16.5 2.672-16.5-1 0-7.667 13.549-13.049 18-17.5 1.131-1.13 5.668-7.5 1-7.5v-1h1l1-1h1l1-1h1l16-2c1.235 0 5 .643 5-1 .801 0 10 5.736 10 2 2.698 0 2 4.255 2 6l1 4h-15c-1.622 0-5-.46-5 2h-1c-2.244 0-6 1.725-6 4ZM244 97c12.58 0 18.77 16.135 28.5 21 3.057 1.528 13.5 1.248 13.5-3 0-7.202-15.707-11.914-18-16.5-.603-1.205-5.386-7.5-1-7.5l-1-2h-2l-1-1h-1c-5.377 0-10.211-2-16-2-1.235 0-5 .643-5-1-.733 0-10 5.79-10 2-1.353 0-2 4.644-2 6v4h15Z"/><path fill="#FF8FFC" id="NOT" d="M295 110c0 .666 2.56 4 0 4 0-2.174-12.48-14-15-14l-1-1-3-2c0-1.59-5.662-6-7-6h-1l-2-2h-2l-1-1h-1c0-1.62-4.257-3 1-3 5.264 0 9.167 3 14 3l8 5 4 4 1 1 2 3 1 1v1l2 2v5Z"/><path fill="#FF64FF" id="MB" d="m277 88 8 5-7-7-3-1 2 3Z"/><path fill="#029297" id="AUDp1" d="m431 120-5 1c0-10.305-17-27.676-17-34l4-2c2.625 0 3.971 5.47 5.5 7 3.971 3.97 12.5 22.49 12.5 28Z"/><path fill="#C7C8CC" id="alv" d="m98 86-1 1 1-1Z"/><path fill="#029399" id="AUDpo6a" d="M71 104h1c0-2.172 7.279-13 10-13v-1c-2.666 0-2.482-3-5-3l-3 3.5c-1.645 1.645-7 7.737-7 10.5l4 3Z"/><path fill="#C7C8CC" id="alv" d="m97 87-1 1 1-1Z"/><path fill="#FD7AFF" id="SCop" d="m181 87-2 1 2-1Z"/><path fill="#029399" id="AUDpo6a" d="m389 101-4 3c0-1.81-8.333-13-10-13v-1l4-3c2.831 0 10 11.68 10 14Z"/><path fill="#019298" id="AUDp2/3" d="M420 123h1l5-2c0-10.305-17-27.676-17-34h-1c0 1.925-3.075 5-5 5v1c2.76 0 3.193 4.692 4.5 6 4.775 4.775 12.5 17.276 12.5 24ZM31 121l5 2c0-6.997 17-27.573 17-31-2.25 0-2.259-4-5-4l-6 8.5c-3.93 7.859-11 15.117-11 24.5Z"/><path fill="#C7C8CC" id="alv" d="m96 88-1 1 1-1Z"/><path fill="#7BD04A" id="DG-mo" d="M121 165v1c3.235 0-.388-10.723 1-13.5 3.445-6.89 12.471-33.5 23-33.5l1-1 1-1 10-10c0-3.648 7-8.085 7-15l-1-1c-3.071 0-5.362-2-9-2h-9c-7.165 0-14.364 6.932-20.5 10-22.234 11.117-35.5 31.676-35.5 59 1.916 0 .07 3 3 3 0-6.538 8-16.98 8-20 0-20.059 23.527-32.514 38.5-40 2.905-1.453 15.505-11.49 18.5-5.5 1.233 2.465-4.484 6.484-6 8-5.999 5.999-17.805 11.61-22 20-3.59 7.18-14.771 27.457-10 37l2 4.5Z"/><path fill="#FF64FF" id="MB" d="m193 88-1 1 1-1ZM263 88l1 1-1-1Z"/><path fill="#7BD04A" id="DG-mo" d="m367 159-2 2c0-6.915-8-13.532-8-20 0-18.894-24.222-32.861-38.5-40-2.903-1.451-15.611-11.278-18.5-5.5-1.024 2.048 2.711 6.605 4.5 7.5 5.102 2.551 16.512 10.524 19.5 16.5l9 14c2.747 5.494 2.283 12.566 5 18 1.58 3.16-3 10.614-3 13.5-2.077 0 .125-12.25-1-14.5-4.414-8.828-7.176-22.338-17.5-27.5l-4.5-4-2-1-8-8.5c-5.481-5.481-9-9.72-9-17.5v-1c1.167 0 10-2.413 10-3l9 1c5.643 0 11.643 5.572 16.5 8 16.112 8.056 28.578 21.657 36.5 37.5 1.922 3.843 1.06 9.12 3 13 .671 1.342-1 9.066-1 11.5Z"/><path fill="#C7C8CC" id="alv" d="m95 89-1 1 1-1Z"/><path fill="#FF64FF" id="MB" d="m191 89-1 1 1-1ZM267 91h1l-2-2 1 2Z"/><path fill="#C7C8CC" id="alv" d="m362 89 9 9-9-9ZM94 90l-2 1 2-1Z"/><path fill="#7DCD4B" id="HPF" d="m163 91 1 1 2-2-3 1Z"/><path fill="#FF64FF" id="MB" d="M188 91h1v-1l-1 1Z"/><path fill="#7DCD4B" id="HPF" d="M293 91v1l-3-2 3 1Z"/><path fill="#029298" id="AUDpo6b" d="M72 104v1l11-14h-1c-2.721 0-10 10.828-10 13Z"/><path fill="#C7C8CC" id="alv" d="m92 91-1 1 1-1Z"/><path fill="#FF64FF" id="MB" d="M186 92h1v-1l-1 1Z"/><path fill="#FF90FF" id="SCig" d="m188 91-1 1v-1h1Z"/><path fill="#FC8FFE" id="PPT" d="M163 117h5l2-1c0-7.667 13.549-13.049 18-17.5 1.131-1.13 5.668-7.5 1-7.5h-1l-1 1-2 1c0 1.577-1.762 2-3 2l-1 1-1 1-1 1-1 1c-3.953 0-15.275 14-17 14l2 4ZM293 116l-5 1-2-2c0-7.202-15.707-11.914-18-16.5-.603-1.205-5.386-7.5-1-7.5h2c0 1.59 5.662 6 7 6l3 2 1 1c2.52 0 15 11.826 15 14l-2 2Z"/><path fill="#FF90FF" id="SCig" d="M269 91c1.338 0 7 4.41 7 6-1.338 0-7-4.41-7-6Z"/><path fill="#029298" id="AUDpo6b" d="M384 105h1v-1c0-1.81-8.333-13-10-13h-1l10 14Z"/><path fill="#039397" id="AUDp4" d="M36 123h4c0-7.628 8.744-13.988 12-20.5.715-1.431 3.243-7.5 5-7.5v-1c-1.238 0-3-.423-3-2h-1c0 3.427-17 24.003-17 31Z"/><path fill="#FF64FF" id="MB" d="m172 92-1 1 1-1Z"/><path fill="#FF90FF" id="SCig" d="m187 92-2 1 1-1h1Z"/><path fill="#FF64FF" id="MB" d="m171 93-1 1 1-1Z"/><path fill="#FF90FF" id="SCig" d="M185 93c-1.238 0-3 .423-3 2 1.238 0 3-.423 3-2Z"/><path fill="#FF64FF" id="MB" d="M227 104h2V93h-2l1 4-1 7Z"/><path fill="#039397" id="AUDp4" d="M417 123h3c0-6.724-7.725-19.225-12.5-24-1.307-1.308-1.74-6-4.5-6-1.238 0-3 .423-3 2 0 5.062 16 19.384 16 28h1Z"/><path fill="#65A83D" id="DG-sg" d="M120 165h1l-2-4.5c-4.771-9.543 6.41-29.82 10-37 4.195-8.39 16.001-14.001 22-20 1.516-1.516 7.233-5.535 6-8-2.995-5.99-15.595 4.047-18.5 5.5-14.973 7.486-38.5 19.941-38.5 40l3-4.5c1.069-2.139 10-14.415 10-14.5l1-1h1l6.5-6c3.754-1.877 23.444-16.278 26-15 1.476.738-8.834 8.417-10 9-1.543.771-11.221 13-11.5 13 0 7.232-13.518 22.464-9 31.5 1.021 2.043-.314 11.5 3 11.5ZM335 166h1l3-5.5c1.311-2.623 1.326-16.348 0-19-1.455-2.91-9-17.336-9-19.5 0-3.703-12.833-13.333-15.5-16l-5.5-5.5c.7-1.4 7.567 2.567 8.5 3.5 3.068 3.068 23.5 12.948 23.5 17h1l1 1c3.539 0 11.444 19 14 19 0-18.894-24.222-32.861-38.5-40-2.903-1.451-15.611-11.278-18.5-5.5-1.024 2.048 2.711 6.605 4.5 7.5 5.102 2.551 16.512 10.524 19.5 16.5l9 14c2.747 5.494 2.283 12.566 5 18 1.58 3.16-3 10.614-3 13.5v1Z"/><path fill="#039199" id="AUDp5" d="M40 124c4.833 0 8.59 4 13 4 0-8.878 13-19.283 13-27l-9-6c-1.757 0-4.285 6.069-5 7.5-3.256 6.512-12 12.872-12 20.5v1Z"/><path fill="#C7C8CC" id="alv" d="m88 95-1 2 1-2Z"/><path fill="#FF90FF" id="SCig" d="m182 95-1 1 1-1Z"/><path fill="#039199" id="AUDp5" d="M416 123c0 .816-11.451 5-13 5 0-8.265-13-21.503-13-27l9-6h1c0 5.062 16 19.384 16 28Z"/><path fill="#FF90FF" id="SCig" d="m181 96-1 1 1-1Z"/><path fill="#FF90FE" id="SCiw" d="M219 106c-2.364 0-3.053 3-5 3-5.518 0-7.849 9.675-12.5 12-4.064 2.032-7.068-5.365-5.5-8.5 1.526-3.051 5-5.869 5-9.5 1.417 0 6-2.383 6-4h1c1.424 0 5-.362 5-2h15l-1 7c-1.949 0-8-.991-8 2ZM238 106l4 3c5.374 0 7.319 8.909 11.5 11 7.697 3.848 7.74-6.019 5.5-10.5-1.615-3.23-5.18-7.84-8.5-9.5-1.265-.632-6.5-1.278-6.5-3h-15v7c2.04 0 9-1.087 9 2Z"/><path fill="#C7C8CC" id="alv" d="m87 97-1 1 1-1Z"/><path fill="#FF64FF" id="MB" d="M213 97c-1.622 0-5-.46-5 2 1.424 0 5-.362 5-2ZM243 135c2.029 0 1.881-1.191 3.5-2 2.521-1.26 11.794 2.897 14 4l10.5 7c0-5.718-.357-10.785 2-15.5 1.894-3.788 15-10.401 15-11.5l-2-2c0 4.248-10.443 4.528-13.5 3-9.73-4.865-15.92-21-28.5-21 0 1.722 5.235 2.368 6.5 3 3.32 1.66 6.885 6.27 8.5 9.5 2.24 4.481 2.197 14.348-5.5 10.5-4.181-2.091-6.126-11-11.5-11v8c0 1.048.473 3-1 3 0 5.341 2 9.162 2 15ZM289 97l1 1-1-1Z"/><path fill="#C7C8CC" id="alv" d="m86 98-1 1 1-1Z"/><path fill="#FF90FF" id="SCig" d="m179 98-1 1 1-1Z"/><path fill="#C7C8CC" id="alv" d="m85 99-1 1 1-1Z"/><path fill="#FF64FF" id="MB" d="M207 99c-2.244 0-6 1.725-6 4 1.417 0 6-2.383 6-4Z"/><path fill="#FF90FF" id="SCig" d="m279 99 1 1-1-1Z"/><path fill="#C7C8CC" id="alv" d="M371 99c2.373 0 8 8.091 8 10l-8-10ZM84 100l-1 1 1-1Z"/><path fill="#7ECE4A" id="DG-po" d="M115 121c1.735 0 11-2.894 11 1 .279 0 9.957-12.229 11.5-13 1.166-.583 11.476-8.262 10-9-2.556-1.278-22.246 13.123-26 15l-6.5 6ZM341 121l-7.5-1-3.5 2c0-3.703-12.833-13.333-15.5-16l-5.5-5.5c.7-1.4 7.567 2.567 8.5 3.5 3.068 3.068 23.5 12.948 23.5 17Z"/><path fill="#019396" id="AUDp6a" d="m53 128 6 2c0-8.477 12-18.682 12-26l-4-3h-1c0 7.717-13 18.122-13 27Z"/><path fill="#FF64FF" id="MB" d="m292 101 1 1-1-1Z"/><path fill="#019396" id="AUDp6a" d="M397 130h1l5-1v-1c0-8.265-13-21.503-13-27h-1l-4 3v1c1.517 0 12 21.542 12 25Z"/><path fill="#C7C8CC" id="alv" d="m83 102-1 1 1-1ZM82 103l-1 1 1-1Z"/><path fill="#FF64FF" id="MB" d="m213 135-3.5-2c-2.235-1.118-10.99 2.995-13 4l-10.5 7c0-8.18-.625-13.125-6.5-19-1.786-1.786-11.5-6.56-11.5-8l2-1c0 3.672 14.043 2.228 16.5 1 5.228-2.614 8.769-14 14.5-14 0 3.631-3.474 6.449-5 9.5-1.568 3.135 1.436 10.532 5.5 8.5 4.651-2.325 6.982-12 12.5-12 0 1.49-.735 8 1 8 0 2.041-1.845 3 1 3 0 4.767-3 9.247-3 15ZM293 103l2 2-2-2Z"/><path fill="#039198" id="AUDp6b" d="M59 131h1l1-2c0-1.048-.473-3 1-3l1-2v-1l1-1 1-2v-1l1-1 1-2v-1l1-1 1-2c0-1.238.423-3 2-3l1-2v-3h-1c0 7.318-12 17.523-12 26v1Z"/><path fill="#C7C8CC" id="alv" d="m81 104-1 1 1-1Z"/><path fill="#C7CBCB" id="bsc" d="M145 122h1l1-1h3l1-1h1l1-1h1l7-9 1-5v-1l-4 3-1 1v1l-1 1-1 1-1 1-1 1-1 1-1 1-1 1-3 1-1 1-1 1c0 1.712-3.749 3 0 3Z"/><path fill="#FF64FF" id="MB" d="m163 104-1 1v-1h1Z"/><path fill="#C9CBCB" id="csc" d="M229 113h9v-7c0-3.087-6.96-2-9-2h-2c-1.949 0-8-.991-8 2v7h10Z"/><path fill="#C7C8CC" id="alv" d="m80 105-1 2 1-2Z"/><path fill="#C7CBCB" id="bsc" d="m306 121 6 1c1.93 0 0-1.161 0-2l-2-2-2-1-2-2h-1l-4-4v-1l-1-1-1-1-2-2-2-1v5c1.679 0 7 7.689 7 9h1l1 1h1l1 1Z"/><path fill="#039198" id="AUDp6b" d="M397 130v1l-2-2v-2l-10-20-1-2h1c1.517 0 12 21.542 12 25Z"/><path fill="#FF8FFF" id="SCdg" d="m219 113-4 4c-1.735 0-1-6.51-1-8 1.947 0 2.636-3 5-3v7ZM238 113l4 4v-8l-4-3v7Z"/><path fill="#CAC7CB" id="fiber tracts" d="m297 106 2 2-2-2Z"/><path fill="#CCC8CA" id="ar" d="M71 109h2l-1-2-1 2Z"/><path fill="#C7C8CC" id="alv" d="m79 107-1 1 1-1Z"/><path fill="#CAC7CB" id="fiber tracts" d="m158 107-1 1v-1h1Z"/><path fill="#CCC8CA" id="ar" d="m385 107-2 .5 4 4 5 10 3 5.5-10-20Z"/><path fill="#C7C8CC" id="alv" d="m78 108-1 1 1-1Z"/><path fill="#CCC8CA" id="ar" d="M71 109c-1.577 0-2 1.762-2 3 1.577 0 2-1.762 2-3Z"/><path fill="#CBC9C7" id="or" d="M59 152v1c-2.279 0 .03 5-1.5 5l-1.5-9v-2c1.58 0 1-2.855 1-4v-1l1-2 1-2v-4l1-2c1.473 0 1-1.952 1-3 1.473 0 1-1.952 1-3l1-2v-1l1-1 1-2v-1l1-1 1-2v-1l1-1 1-2c1.577 0 2-1.762 2-3h2c0 7.991-13 23.753-13 34 0 2.723-1 5.778-1 9Z"/><path fill="#CAC7CB" id="fiber tracts" d="m157 109-1 1 1-1ZM300 109l1 1-1-1Z"/><path fill="#C7C8CC" id="alv" d="m77 110-1 1 1-1Z"/><path fill="#CAC7CB" id="fiber tracts" d="m156 110-1 1 1-1Z"/><path fill="#FF64FF" id="MB" d="M156 121h1c2.317 0 2.674-4 6-4l-2-4v-3l-7 9c1.747 0 2 .253 2 2ZM299 121h1c0-1.747.253-2 2-2 0-1.311-5.321-9-7-9 0 .666 2.56 4 0 4l-2 2 3 1.5 3 3.5Z"/><path fill="#C7C8CC" id="alv" d="m379 110 2 2-2-2Z"/><path fill="#CAC7CB" id="fiber tracts" d="m155 111-1 1 1-1ZM301 111l4 4-4-4Z"/><path fill="#CCC8CA" id="ar" d="m69 112-1 2 1-2Z"/><path fill="#C7C8CC" id="alv" d="m76 112-1 1 1-1Z"/><path fill="#CAC7CB" id="fiber tracts" d="m154 112-1 1 1-1Z"/><path fill="#C7C8CC" id="alv" d="m75 113-1 2 1-2Z"/><path fill="#CAC7CB" id="fiber tracts" d="m153 113-1 1 1-1Z"/><path fill="#FF8FFE" id="SCdw" d="m218 118-2 2c-2.845 0-1-.959-1-3l4-4h8l-3 2h-2l-1 1-1 1h-1l-1 1Z"/><path fill="#FF64FF" id="MB" d="M224 115c2.382 0 3.967 3 4.5 3 .523 0 .773-3 3.5-3l-3-2h-2l-3 2Z"/><path fill="#FF8FFE" id="SCdw" d="M242 117c0 1.048.473 3-1 3l-4-3-1-1h-1l-1-1h-2l-3-2h9l4 4Z"/><path fill="#C7C8CC" id="alv" d="m381 113 2 2-2-2Z"/><path fill="#CCC8CA" id="ar" d="m68 114-1 1 1-1Z"/><path fill="#CAC7CB" id="fiber tracts" d="m152 114-1 1 1-1Z"/><path fill="#C7C8CC" id="alv" d="m74 115-1 1 1-1Z"/><path fill="#CAC7CB" id="fiber tracts" d="m151 115-1 1 1-1Z"/><path fill="#FF64FF" id="MB" d="m222 115-1 1 1-1Z"/><path fill="#FC8FFF" id="PAG" fill-rule="evenodd" d="m233 168-2 1-2-1-.5-19-.5 19-2 1-3-1v-1l4-5.5c.826-1.653-.405-3.81-1-5-2.959-5.919-1.968-6.5-9-6.5 0-3.912-3-8.813-3-13l-1-1v-1c0-5.753 3-10.233 3-15l2-2 1-1h1l1-1 1-1h2c2.382 0 3.967 3 4.5 3 .523 0 .773-3 3.5-3h2l1 1h1l1 1 4 3c0 5.341 2 9.162 2 15l-3 15-4.5-1c-3.78 1.89-8.246 8.009-5.5 13.5l3 4.5v1m-6-41 1 3v2.5c0 9.206 2.678-5.5 0-5.5 0-1.384 3.189-1.123 2-3.5h-4l1 3.5Z"/><path fill="#FF64FF" id="MB" d="m234 115 1 1-1-1Z"/><path fill="#CAC7CB" id="fiber tracts" d="m306 115 2 2-2-2Z"/><path fill="#CCC8CA" id="ar" d="m67 116-1 2 1-2Z"/><path fill="#FE8EFF" id="APN" d="m163 160 8 6c12.521 0 15-11.044 15-22 0-8.18-.625-13.125-6.5-19-1.786-1.786-11.5-6.56-11.5-8h-5c-3.326 0-3.683 4-6 4v3l1 23.5 3 9.5 1 1 1 2Z"/><path fill="#FF64FF" id="MB" d="m221 116-1 1 1-1ZM236 116l1 1-1-1Z"/><path fill="#FE8EFF" id="APN" d="m291 163-5 2c-14.718 0-15-6.891-15-21 0-5.718-.357-10.785 2-15.5 1.894-3.788 15-10.401 15-11.5l5-1 3 1.5 3 3.5c0 1.048-.473 3 1 3l-1 21.5c-1.516 3.032-4 9.117-4 12.5l-1 1-1 1v1c-1.747 0-2 .253-2 2Z"/><path fill="#C7C8CC" id="alv" d="M383 116c2.356 0 8 12.765 8 15l-8-15ZM73 117l-1 1 1-1Z"/><path fill="#FF64FF" id="MB" d="m219 117-1 1 1-1Z"/><path fill="#CCC8CA" id="ar" d="m66 118-1 1 1-1Z"/><path fill="#C7C8CC" id="alv" d="m72 118-1 2 1-2Z"/><path fill="#CAC7CB" id="fiber tracts" d="M312 119v1l-2-2 2 1ZM153 119l-1 1 1-1ZM303 119l1 1-1-1Z"/><path fill="#019099" id="AUDv1" d="M22 143h5c0-7.997 3-14.752 3-22l-5-1c0 7.627-3 15.109-3 23Z"/><path fill="#CCC8CA" id="ar" d="m65 120-1 2 1-2Z"/><path fill="#7ECF49" id="CA3" d="m153 231-6 2-4-2-5-1-8.5-8c-4.187-4.187-28.5-26.473-28.5-30l-1-1-1-1-2-2v-1c0-2.287-3.886-8.271-5-10.5-2.34-4.681 0-10.917 0-15.5 0-6.538 8-16.98 8-20l3-4.5c1.069-2.139 10-14.415 10-14.5l1-1h1c1.735 0 11-2.894 11 1 0 7.232-13.518 22.464-9 31.5 1.021 2.043-.314 11.5 3 11.5l1 1v1l1 2v1c0 .492 8.961 19.423 10 21.5.632 1.265 1.278 6.5 3 6.5v1l2 4v1c0 1.238.423 3 2 3v1c0 1.238.423 3 2 3v1c0 7.069 12 11.534 12 18v1Z"/><path fill="#CAC7CB" id="fiber tracts" d="M150 121h1v-1l-1 1ZM305 121h1l-1-1v1Z"/><path fill="#7ECF49" id="CA3" d="m313 231-4 2-6-3v-1l1-2c1.712 0 3-2.571 3-4 1.747 0 2-.253 2-2l2-2v-1l1-1 1-1v-1l1-1 1-1v-1l1-1 1-2v-1l1-1 1-2v-1l1-2 1-2v-1c1.638 0 2-3.576 2-5 1.638 0 2-3.576 2-5 1.638 0 2-3.576 2-5v-1l1-1 1-2v-1l1-2 1-2c2.109 0 2-2.535 2-4l1-1 1-1v-2l1-1 3-5.5c1.311-2.623 1.326-16.348 0-19-1.455-2.91-9-17.336-9-19.5l3.5-2 7.5 1h1l1 1c3.539 0 11.444 19 14 19 0 6.468 8 13.085 8 20v13.5l-4 10.5-1 2-1 1-1 1-1 1-1 2-1 1-1 1c0 2.636-6.185 5.87-7 7.5L325.5 223c-2.528 1.264-3.775 7-7.5 7l-5 1Z"/><path fill="#019099" id="AUDv1" d="m429 142 5 1c0-8.014-3-15.58-3-23l-5 1c0 6.203 3 13.306 3 21Z"/><path fill="#029198" id="AUDv2/3" d="M27 143h6c0-7.278 3-13.425 3-20l-5-2h-1c0 7.248-3 14.003-3 22Z"/><path fill="#C7C8CC" id="alv" d="m71 121-1 1 1-1Z"/><path fill="#7ECE4A" id="DG-po" d="m114 121-1 1 1-1Z"/><path fill="#CAC7CB" id="fiber tracts" d="m147 121-1 1 1-1Z"/><path fill="#FE909D" id="LP" d="M137 133h16c0-5.811-1.073-9 4-9v-3h-10l-1 1h-1c0 2.137-10 5.078-10 9 0 1.747.253 2 2 2ZM303 133h17l1-2v-1l-1-1-8-7-6-1h-7c0 1.048-.473 3 1 3 0-2.117 2.507-.487 3 .5v8.5Z"/><path fill="#7ECE4A" id="DG-po" d="m342 121 1 1-1-1Z"/><path fill="#029198" id="AUDv2/3" d="M424 143h5v-1c0-7.694-3-14.797-3-21l-5 2 3 20Z"/><path fill="#CCC8CA" id="ar" d="m64 122-1 1 1-1Z"/><path fill="#C7C8CC" id="alv" d="m70 122-1 2 1-2Z"/><path fill="#029197" id="AUDv4" d="M33 143h3c0-4.835.938-11.375 3-15.5.523-1.046-.952-3.5 1-3.5v-1h-4c0 6.575-3 12.722-3 20Z"/><path fill="#FF8D9D" id="POL" d="M168 167v1l-5-1-6-7.5c-2.687-5.374-4-12.049-4-18.5v-8c0-5.811-1.073-9 4-9l1 23.5 3 9.5 1 1 1 2c0 2.696 5 3.847 5 7Z"/><path fill="#FF78FE" id="SCO" d="M227 127h1c0-1.384 3.189-1.123 2-3.5h-4l1 3.5Z"/><path fill="#FF8D9D" id="POL" d="m288 167 1 1c2.25 0 3.376-2 5-2l6-7.5c2.619-5.238 3-11.137 3-17.5v-16.5c-.493-.987-3-2.617-3-.5l-1 21.5c-1.516 3.032-4 9.117-4 12.5l-1 1-1 1v1l-2 2-3 4Z"/><path fill="#019098" id="AUDv5" d="M421 143c-5.018 0-9.423 2-14 2 0-2.473-1.601-16-4-16v-1c1.549 0 13-4.184 13-5h1l4 20Z"/><path fill="#029197" id="AUDv4" d="M421 143h3l-3-20h-4l4 20Z"/><path fill="#019098" id="AUDv5" d="M36 143c4.636 0 8.92 2 13 2l4-17c-4.41 0-8.167-4-13-4-1.952 0-.477 2.454-1 3.5-2.062 4.125-3 10.665-3 15.5Z"/><path fill="#CCC8CA" id="ar" d="m63 124-1 2 1-2Z"/><path fill="#C7C8CC" id="alv" d="m69 124-1 2 1-2Z"/><path fill="#CCC8CA" id="ar" d="M62 126c-1.473 0-1 1.952-1 3 1.473 0 1-1.952 1-3Z"/><path fill="#C7C8CC" id="alv" d="m68 126-1 2 1-2Z"/><path fill="#A9A9A8" id="AQ" d="M227 127h1c2.678 0 0 14.706 0 5.5V130l-1-3Z"/><path fill="#019397" id="AUDv6a" d="m49 145 6 1c0-2.494 1.453-15 4-15v-1l-6-2-4 17Z"/><path fill="#CCC8CA" id="ar" d="M60 131v1c1.473 0 1-1.952 1-3l-1 2Z"/><path fill="#C7C8CC" id="alv" d="m67 129-1 1 1-1Z"/><path fill="#FF6F80" id="TH" d="m320 129 1 1-1-1Z"/><path fill="#CCC8CA" id="ar" d="M397 131v2l-2-4 2 2Z"/><path fill="#019397" id="AUDv6a" d="m407 145-5 1-4-16 5-1c2.399 0 4 13.527 4 16Z"/><path fill="#C7C8CC" id="alv" d="m66 130-1 2 1-2Z"/><path fill="#019198" id="AUDv6b" d="M401 146h1l-4-16h-1v4c1.014 0 2 3.959 2 5v3l1 1v3h1ZM55 146h1c0-1.048-.473-3 1-3v-3l1-1v-1c0-1.048-.473-3 1-3v-1l1-2v-1h-1c-2.547 0-4 12.506-4 15Z"/><path fill="#FF6F80" id="TH" d="M136 135c-2.25 0-3.376 2-5 2 0-1.417 2.383-6 4-6 0 1.747.253 2 2 2l-1 2ZM320 135c3.145 0 4.833 3 7 3 0-1.338-4.41-7-6-7l-1 2v2Z"/><path fill="#CCC8CA" id="ar" d="m60 132-1 2 1-2Z"/><path fill="#C7C8CC" id="alv" d="M391 132c1.638 0 2 3.576 2 5-1.638 0-2-3.576-2-5ZM65 133l-1 2 1-2Z"/><path fill="#FF8E9D" id="SGN" d="M142 143h4c2.833 0 4.84-2 7-2v-8h-16l-1 2 6 8Z"/><path fill="#FF8FFD" id="MRN" fill-rule="evenodd" d="m191 166-3 1.5c-2.486 2.486-5 4.472-5 8 0 10.189 7.056 20.222 18.5 14.5 12.697-6.349 3.408-24-10.5-24m-10 28-2-5.5c-1.927-3.853 4.395-2.052 5.5-1.5 1.893.947 2.024 7 5.5 7l9-1h1l1-1 4-1 6-4.5c3.529-7.058 10-9.735 10-19.5l-1-1c0 12.595-20.468-12-3-12v-4c0-3.912-3-8.813-3-13l-1-1v-1l-3.5-2c-2.235-1.118-10.99 2.995-13 4l-10.5 7c0 10.956-2.479 22-15 22l-3 1v1c0 3.253-5.997 8-9 8l-1 1h-1c0 14.808 11.56 17 24 17Z"/><path fill="#FF8FFD" id="MRN" d="m255 192 12 2c0-1.683 4-3.701 4-7-2.784 0-8.604 6.948-14.5 4-18.375-9.187 4.691-41.118 17.5-15.5 2.108 4.215-3 8.092-3 11.5l2.5-1c6.592-3.296 1.5 7.269 1.5 8 10.811 0 20.042-1.585 25-11.5l-1-5.5c-4.105 0-10-5.567-10-9l-1-1-2-2c-14.718 0-15-6.891-15-21l-10.5-7c-2.206-1.103-11.479-5.26-14-4-1.619.809-1.471 2-3.5 2l-3 15-1 4c8.343 0 9.658 11.921 3.5 15-3.127 1.563-5.202-2-6.5-2v1c0 6.933 2.174 10.674 7 15.5l8 7.5h2l1 1h1Z"/><path fill="#FF8E9D" id="SGN" d="M310 143h5c0-3.014 5-4.29 5-8v-2h-17v8l7 2Z"/><path fill="#CCC8CA" id="ar" d="M398 139h1c0-1.041-.986-5-2-5l1 5ZM58 138h1v-3c-1.473 0-1 1.952-1 3Z"/><path fill="#C7C8CC" id="alv" d="M64 135c-1.473 0-1 1.952-1 3 1.473 0 1-1.952 1-3Z"/><path fill="#FE7F82" id="MGd" d="M141 147c-3.306 0-6.201-1.65-9.5 0l-6.5 6c0-3.685 1.017-16 6-16 1.624 0 2.75-2 5-2l6 8-1 4ZM315 147c3.306 0 6.201-1.65 9.5 0l6.5 5c0-5.704-4-10.796-4-14-2.167 0-3.855-3-7-3 0 3.71-5 4.986-5 8v4Z"/><path fill="#FF64FF" id="MB" d="m213 136 1 1-1-1Z"/><path fill="#C8C9CA" id="fp" d="M58 139v1l1-2h-1v1Z"/><path fill="#C7C8CC" id="alv" d="M393 138c1.014 0 2 3.959 2 5-1.638 0-2-3.576-2-5Z"/><path fill="#CCC8CA" id="ar" d="M57 140h1v-1l-1 1Z"/><path fill="#C8C9CA" id="fp" d="M399 139v2l-1-2h1ZM58 140l-1 2v-2h1Z"/><path fill="#C7C8CC" id="alv" d="m63 140-1 2 1-2Z"/><path fill="#FF7E82" id="PoT" d="M163 167c0 2.109-2.535 2-4 2l-10-5c0-2.618 2.514-7.472 1-10.5-1.014-2.028-4-8.538-4-10.5 2.833 0 4.84-2 7-2 0 6.451 1.313 13.126 4 18.5l6 7.5ZM294 166c0 2.747.253 3 3 3 3.081 0 7-5 11-5 0-2.579-3.752-5.997-2-9.5l4-11.5-7-2c0 6.363-.381 12.262-3 17.5l-6 7.5Z"/><path fill="#C7C8CC" id="alv" d="M61 143v2c1.473 0 1-1.952 1-3l-1 1Z"/><path fill="#C8CBCC" id="ec" d="m399 142 1 1-1-1Z"/><path fill="#15B0B3" id="TEa1" d="M429 163h4c0-6.134 1-13.266 1-20l-5-1v21ZM23 163h5c0-5.998-1-13.358-1-20h-5l1 20Z"/><path fill="#16AFB3" id="TEa2/3" d="M36 161c0 .689-7.178 2-8 2 0-5.998-1-13.358-1-20h6c0 3.303.182 18 3 18Z"/><path fill="#15B0B2" id="TEa4" d="M36 161h2c0-5.813-2-12.589-2-18h-3c0 3.303.182 18 3 18Z"/><path fill="#15AFB3" id="TEa5" d="M38 161h9c0-5.998 2-10.447 2-16-4.08 0-8.364-2-13-2 0 5.411 2 12.187 2 18Z"/><path fill="#C8CBCC" id="ec" d="M56 146v1c1.58 0 1-2.855 1-4-1.473 0-1 1.952-1 3ZM59 152h1v-3l1-2v-4h-1c0 2.723-1 5.778-1 9Z"/><path fill="#FD7F83" id="MGm" d="M149 164c-.858 0-16 8.622-16 2 7.748 0 14.312-7.876 10-16.5l-2-2.5 1-4h4c0 1.962 2.986 8.472 4 10.5 1.514 3.028-1 7.882-1 10.5ZM308 164l3.5 3c1.607.803 11.5 2.676 11.5-1-8.273 0-13.985-8.53-10-16.5l2-2.5v-4h-5l-4 11.5c-1.752 3.503 2 6.921 2 9.5Z"/><path fill="#C8CBCC" id="ec" d="M396 149h1c0-1.321.684-6-1-6h-1v2c1.473 0 1 1.952 1 3v1Z"/><path fill="#15AFB3" id="TEa5" d="M418 161h1l2-18c-5.018 0-9.423 2-14 2 0 4.954 2 10.204 2 16h9Z"/><path fill="#15B0B2" id="TEa4" d="M419 161h2c0-4.592 3-11.874 3-18h-3l-2 18Z"/><path fill="#16AFB3" id="TEa2/3" d="M421 161c0 .816 7.019 2 8 2v-20h-5c0 6.126-3 13.408-3 18Z"/><path fill="#15AFB2" id="TEa6a" d="M47 161h8v-1c-2.872 0 0-12.72 0-14l-6-1c0 5.553-2 10.002-2 16Z"/><path fill="#C7C8CC" id="alv" d="M395 145c1.473 0 1 1.952 1 3-1.473 0-1-1.952-1-3Z"/><path fill="#15AFB2" id="TEa6a" d="M402 161h7c0-5.796-2-11.046-2-16l-5 1v15Z"/><path fill="#16B0B2" id="TEa6b" d="M56 149c-1.773 0-1 9.259-1 11-2.872 0 0-12.72 0-14h1v3Z"/><path fill="#FE7E83" id="MGv" d="m131 165 2 1c7.748 0 14.312-7.876 10-16.5l-2-2.5c-3.306 0-6.201-1.65-9.5 0l-6.5 6v5c1.762 0 2.441 7 6 7ZM326 165l-3 1c-8.273 0-13.985-8.53-10-16.5l2-2.5c3.306 0 6.201-1.65 9.5 0l6.5 5v7l-5 6Z"/><path fill="#C8CBCC" id="ec" d="m391 198-2 1c0-5.643 9-18.465 9-30 0-1.657.763-10-1-10v-9c2.415 0-.134 7 1.5 7 2.175 0 1.5-9.357 1.5-11h1v15c0 5.669-2 12.129-2 18v1l-2 4-2 7-1 1v1l-1 1v1l-1 2-1 1Z"/><path fill="#16B0B2" id="TEa6b" d="M401 161h1v-15h-1v15Z"/><path fill="#C7C8CC" id="alv" d="m61 147-1 2 1-2Z"/><path fill="#C8CBCC" id="ec" d="M93 229h1l-12.5-10c-4.94-4.94-18.5-24.804-18.5-31 0-1.06-4.23-16.96-5-18.5-.536-1.073-.25-5.5 1-5.5v-11c-2.279 0 .03 5-1.5 5l-1.5-9c-1.773 0-1 9.259-1 11v1c1.58 0 1 2.855 1 4l1 13v1c1.014 0 2 3.959 2 5l3 8 1 1v2l2 2v1l2 2v1l3 3 8 14 7 7h1l5 4h2Z"/><path fill="#FD8FFD" id="ND" d="M221 167h2l4-5.5c.826-1.653-.405-3.81-1-5-2.959-5.919-1.968-6.5-9-6.5v5l1 1 2 10 1 1Z"/><path fill="#FF64FF" id="MB" d="M228 168h1l-.5-19-.5 19Z"/><path fill="#FD8FFD" id="ND" d="M236 167v1l-3-1-3-4.5c-2.746-5.491 1.72-11.61 5.5-13.5l4.5 1-1 4v2l-1 1v1l-1 1-1 8Z"/><path fill="#C7C8CC" id="alv" d="M397 150v3c-1.579 0-1-2.855-1-4h1v1ZM59 153v6c1.714 0 1-5.594 1-7h-1v1Z"/><path fill="#FF90FD" id="INC" d="m218 156 2 10c0 12.595-20.468-12-3-12v1l1 1ZM237 159l-1 8c1.298 0 3.373 3.563 6.5 2 6.158-3.079 4.843-15-3.5-15v2l-1 1v1l-1 1Z"/><path fill="#FF8FFD" id="MRN" d="m217 155 1 1-1-1ZM239 156l-1 1 1-1Z"/><path fill="#FF64FF" id="MB" d="m161 157 1 1-1-1Z"/><path fill="#7DCF4B" id="CA2" d="M92 161c0 4.583-2.34 10.819 0 15.5 1.114 2.229 5 8.213 5 10.5-7.197 0-8-23.144-8-29 1.916 0 .07 3 3 3Z"/><path fill="#FF6F80" id="TH" d="M130 167c-2.878 0-2.954 1-4 1 0-2.69-1-6.675-1-10 1.762 0 2.441 7 6 7l-1 2Z"/><path fill="#FF8FFD" id="MRN" d="m238 158-1 1 1-1Z"/><path fill="#FF64FF" id="MB" d="m295 158-1 1 1-1ZM294 159l-1 1 1-1Z"/><path fill="#FF6F80" id="TH" d="M327 166c2.747 0 3 .253 3 3 1.763 0 1-8.343 1-10l-5 6 1 1Z"/><path fill="#7DCF4B" id="CA2" d="M365 161v13.5l-4 10.5c5.179 0 5.356-16.211 7-19.5.57-1.14.263-6.5-1-6.5l-2 2Z"/><path fill="#C7C8CC" id="alv" d="m389 199-2 1c0-4.444 4.082-9.664 6-13.5 3.948-7.896 4-17.948 4-27.5 1.763 0 1 8.343 1 10 0 11.535-9 24.357-9 30Z"/><path fill="#FF64FF" id="MB" d="m171 166-3 1c0-3.153-5-4.304-5-7l8 6Z"/><path fill="#0D9F91" id="ECT2/3" d="m35 176 8 1c0-5.957-5-10.597-5-16h-2c0 .689-7.178 2-8 2 0 5.054 7 8.727 7 13Z"/><path fill="#0D9E90" id="ECT5" d="m44 177 7 1c0-6.172-4-10.618-4-17h-9c0 5.403 5 10.043 5 16h1Z"/><path fill="#0E9F91" id="ECT6a" d="M57 178v1l-6-1c0-6.172-4-10.618-4-17h8c0 2.938-.209 17 2 17Z"/><path fill="#0E9F90" id="ECT6b" d="M55 161c1.58 0 1 2.855 1 4l1 13c-2.209 0-2-14.062-2-17Z"/><path fill="#FF64FF" id="MB" d="M293 161c-1.747 0-2 .253-2 2l2-2Z"/><path fill="#0E9F90" id="ECT6b" d="M399 179h1l2-18h-1c0 5.669-2 12.129-2 18Z"/><path fill="#0E9F91" id="ECT6a" d="m405 178-5 1 2-18h7c0 6.62-4 11.048-4 17Z"/><path fill="#0D9E90" id="ECT5" d="m413 177-8 1c0-5.952 4-10.38 4-17h9c0 5.778-5 10.222-5 16Z"/><path fill="#0D9F91" id="ECT2/3" d="m422 176-9 1c0-5.778 5-10.222 5-16h3c0 .816 7.019 2 8 2 0 4.875-7 8.412-7 13Z"/><path fill="#0D9F90" id="ECT1" d="m35 176-6 1c0-5.407-6-7.926-6-14h5c0 5.054 7 8.727 7 13Z"/><path fill="#FF64FF" id="MB" d="m286 165 2 2 3-4-5 2Z"/><path fill="#0D9F90" id="ECT1" d="m422 176 5 1c0-4.965 6-6.487 6-14h-4c0 4.875-7 8.412-7 13Z"/><path fill="#C7C8CC" id="alv" d="M124 243h2l1-1c-5.534 0-12.704-4.602-17.5-7l-20-10C74.494 217.497 59 180.875 59 164c-1.25 0-1.536 4.427-1 5.5.77 1.54 5 17.44 5 18.5 0 6.196 13.56 26.06 18.5 31L94 229l15 8h2l1 1h1l1 1h2l3 2h2l1 1h1l1 1Z"/><path fill="#FE8D9E" id="PIL" d="M157 177h1l1-1v-7l-10-5c-.858 0-16 8.622-16 2l-2-1-1 2c0 3.272 15.088 11 18 11 4.234 0 6.087-1 9-1ZM308 178l-1 1-8-2c0-1.996-2-4.985-2-8 3.081 0 7-5 11-5l3.5 3c1.607.803 11.5 2.676 11.5-1l3-1 1 1c0 4.311-15.63 12-19 12Z"/><path fill="#7DCD4B" id="HPF" d="M121 165v1l-1-1h1Z"/><path fill="#FD7F84" id="PP" d="M148 178c0 3.913-2.589 3-7 3-3.569 0-7.109-6-11-6l-1-1-3-6c1.046 0 1.122-1 4-1 0 3.272 15.088 11 18 11Z"/><path fill="#FE90FD" id="RN" d="m191 166-3 1.5c-2.486 2.486-5 4.472-5 8 0 10.189 7.056 20.222 18.5 14.5 12.697-6.349 3.408-24-10.5-24ZM271 187c0-3.408 5.108-7.285 3-11.5-12.809-25.618-35.875 6.313-17.5 15.5 5.896 2.948 11.716-4 14.5-4Z"/><path fill="#FF6F80" id="TH" d="M297 169c0 3.015 2 6.004 2 8-4.105 0-10-5.567-10-9 2.25 0 3.376-2 5-2 0 2.747.253 3 3 3Z"/><path fill="#FD7F84" id="PP" d="m317 180-1 1c-2.04 0-9 1.087-9-2l1-1c3.37 0 19-7.689 19-12 2.747 0 3 .253 3 3l-2 4-2 2c-3.482 0-5.71 5-9 5Z"/><path fill="#7DCD4B" id="HPF" d="m336 166-1 1v-1h1ZM121 167l1 2-1-2Z"/><path fill="#FF6F80" id="TH" d="M159 169v7c3.003 0 9-4.747 9-8l-5-1c0 2.109-2.535 2-4 2Z"/><path fill="#FF64FF" id="MB" d="M261 227c-7.193 0-1 1.711-1 5l-16.5-9c-1.95-.975-8.247 3.124-10 4-1.008.504-4.5.22-4.5-1 1.668 0 8-2.222 8-4l1-1 2-1 1-1 2-1 1-1c2.244 0 5.637 11.931 11.5 9 4.454-2.227-9.685-10-11.5-10 0-2.25-2-3.376-2-5 0-1.57-5-6.952-5-4l-2-1c0-2.271 1.325-3.85 0-6.5l-4-2.5c5.01 0 3-.677 3-4 4.183 0-3-14.824-3-11h-5c0-1.244-2.479-1.541-3-.5-1.227 2.454-2.73 11.5 0 11.5v1c-3.934 0-.912 3 2 3l-4 3.5v5.5l-2 1c0-1.916-4 1.264-4 3l-3 5h-1c0-10.065 7.799-6.903 1-20.5-1.277-2.555-3.726-3.5-7-3.5l6-4.5c3.529-7.058 10-9.735 10-19.5h2v1c0 4.991-4.211 9 3 9 0 5.382 3.168 1 5 1 7.166 0 2-7.678 2-10v-1l3 1c0 6.933 2.174 10.674 7 15.5l8 7.5c-19.551 0-6.133 32 8 32l2 4Z"/><path fill="#FC8EFF" id="MA3" d="M226 169v8c-7.211 0-3-4.009-3-9l3 1Z"/><path fill="#FE8FFC" id="EW" d="M226 177c0 5.382 3.168 1 5 1v-9l-2-1h-1l-2 1v8Z"/><path fill="#FC8EFF" id="MA3" d="M231 169v9c7.166 0 2-7.678 2-10l-2 1Z"/><path fill="#C7C8CC" id="alv" d="m335 169-1 1 1-1ZM129 182c0 5.27 6 10.25 6 16-1.722 0-2.368-5.235-3-6.5-1.039-2.077-10-21.008-10-21.5 3.662 0 3.492 8 6 8l1 4ZM334 170l-1 1 1-1ZM333 171l-2 4c2.109 0 2-2.535 2-4Z"/><path fill="#FF64FF" id="MB" d="M326 175h1l1-2-2 2ZM129 175h1l-1-1v1Z"/><path fill="#FE8FFE" id="LT" d="M133 181c1.827 0 8 3.379 8 0-3.569 0-7.109-6-11-6h-1l-1 3 1 4 4-1ZM327 182h1l1-2v-2l-2-3h-1c-3.482 0-5.71 5-9 5l-1 1c0 3.35 4.545 0 7 0l4 1Z"/><path fill="#C7C8CC" id="alv" d="m331 175-1 2 1-2Z"/><path fill="#0E9584" id="PERI1" d="M25 188h6c0-.959 4-6.486 4-12l-6 1c0 5.032-4 6.551-4 11Z"/><path fill="#0E9583" id="PERI2/3" d="M39 187h8l-3-10h-1l-8-1c0 5.514-4 11.041-4 12l8-1Z"/><path fill="#FF6F80" id="TH" d="m159 176-1 1 1-1Z"/><path fill="#0E9583" id="PERI2/3" d="M418 187c2.409 0 5.181 1 7 1l-4-7.5 1-4.5-9 1c0 2.811-4 7.325-4 10h9Z"/><path fill="#0E9584" id="PERI1" d="M425 188h6c0-5.24-4-5.483-4-11l-5-1-1 4.5 4 7.5Z"/><path fill="#0F9684" id="PERI5" d="m53 185-6 2-3-10 7 1 2 7Z"/><path fill="#FF64FF" id="MB" d="m187 204-4.5-5c-3.862 0 .5 8.104.5 9l-14-8c0-3.745-10.175-11-14-11-3.388 0-8.31-4.095-12.5-2l-3.5 3c0-5.334-6-8.519-6-9 1.827 0 8 3.379 8 0 4.411 0 7 .913 7-3 4.234 0 6.087-1 9-1 0 14.808 11.56 17 24 17 .306 0 8 5.687 8 6l-2 4ZM270 204l4.5-5c3.101 0-.5 6.803-.5 8 4.706 0 7.981-6 13-6 0-4.628 9.847-12 14-12 1.934 0 16-5.493 16 1 2.064 0 .426-3.353 1-4.5l5-4.5c-2.455 0-7 3.35-7 0-2.04 0-9 1.087-9-2l-8-2 1 5.5c-4.958 9.915-14.189 11.5-25 11.5 0 3.662-8 3.492-8 6l3 4Z"/><path fill="#C7C8CC" id="alv" d="M329 178v1l1-2-1 1Z"/><path fill="#0F9684" id="PERI5" d="m404 185 5 2c0-2.675 4-7.189 4-10l-8 1-2 7h1Z"/><path fill="#0E9684" id="PERI6a" d="m58 184-5 1-2-7 6 1 1 5Z"/><path fill="#FF64FF" id="MB" d="m308 178-1 1 1-1Z"/><path fill="#0E9684" id="PERI6a" d="m399 184 4 1 2-7-5 1-1 1v4Z"/><path fill="#0E9683" id="PERI6b" d="M58 184h1c0-1.041-.986-5-2-5l1 5ZM400 179l-1 1v-1h1Z"/><path fill="#FF64FF" id="MB" d="m317 180-1 1 1-1Z"/><path fill="#C7C8CC" id="alv" d="m329 180-1 2 1-2Z"/><path fill="#0E9683" id="PERI6b" d="M397 184h2v-4l-2 4Z"/><path fill="#CCCAC7" id="cpd" d="m197 232-1 1c-5.052 0-13.345 12.078-21.5 8-4.682-2.341-18.484-14-21.5-14l-12-15v-1l-2-3v-1l-2-3v-1l-2-4v-1c0-5.75-6-10.73-6-16l4-1c0 .481 6 3.666 6 9 0 18.071 6.449 27.975 22.5 36l10 3c6.535 3.268 17.711-2 23.5-2 4.833 0 3 .436 3 4l-1 1Z"/><path fill="#C8C8C8" id="mtg" d="M223 192v1c-2.73 0-1.227-9.046 0-11.5.521-1.041 3-.744 3 .5-1.059 0-2 6.743-2 8l-1 2Z"/><path fill="#FEA6FF" id="RL" d="M233 193c0 4.796-10 3.588-10 1v-2l1-2c0-1.257.941-8 2-8h5l1 7 1 1v3Z"/><path fill="#C8C8C8" id="mtg" d="M233 193h1c4.183 0-3-14.824-3-11l1 7 1 1v3Z"/><path fill="#CCCAC7" id="cpd" d="m273 240 1 1c8.354 0 11.742-2.621 18.5-6 3.212-1.606 6.853-8 10.5-8l1-1 3-3 2-2c0-1.747.253-2 2-2v-1l1-1 1-1v-1l1-1 1-1v-1l1-1 1-2v-1l1-1 1-2v-1l1-2 1-2v-1c0-1.424.362-5 2-5 0-1.424.362-5 2-5 0-1.424.362-5 2-5v-2l-4-1-5 4.5c-.574 1.147 1.064 4.5-1 4.5 0 2.421 2.411 6.678 1 9.5l-3 9c-5.932 11.863-19.593 15.547-29.5 20.5-6.771 3.385-18.439-2-24.5-2-7.193 0-1 1.711-1 5l2 2 1 1h1l2 2h1l1 1 3 1 1 1h1Z"/><path fill="#C7C8CC" id="alv" d="m328 182-1 1v-1h1Z"/><path fill="#32B824" id="ENTl6a" d="m77 221-2 2c0-3.597-6.442-6.383-8-9.5-4.402-8.804-14-18.095-14-28.5l5-1h1l3 8 1 1v2l2 2v1l2 2v1l3 3 8 14-1 3Z"/><path fill="#C7C8CC" id="alv" d="M327 184c-1.638 0-2 3.576-2 5 1.638 0 2-3.576 2-5Z"/><path fill="#32B824" id="ENTl6a" d="m379 221 3 2c0-4.788 6.976-7.453 9-11.5 3.37-6.741 13-19.05 13-26.5h-1l-4-1h-2l-2 7-1 1v1l-1 1v1l-1 2-1 1c0 1.238-.423 3-2 3l-1 1-1 1-1 1-1 1v1l-1 1-1 2-5 10 1 2Z"/><path fill="#31B824" id="ENTl5" d="m73 225-10 1-8-12.5c-4.155-8.31-8-17.688-8-26.5l6-2c0 10.405 9.598 19.696 14 28.5 1.558 3.117 8 5.903 8 9.5l-2 2Z"/><path fill="#7DCF4B" id="CA2" d="m361 185-1 2 1-2Z"/><path fill="#31B824" id="ENTl5" d="m383 224 10 2c2.683 0 5.082-7.664 6-9.5 4.633-9.265 11-18.369 11-29.5h-1l-5-2c0 7.45-9.63 19.759-13 26.5-2.024 4.047-9 6.712-9 11.5l1 1Z"/><path fill="#CACCC8" id="ml" d="M195 196c0 .974 6.851 2.202 8 4.5 1.435 2.871-3.187 8.157-6.5 6.5l-7.5-7c0-.313-7.694-6-8-6l-2-5.5c-1.927-3.853 4.395-2.052 5.5-1.5 1.893.947 2.024 7 5.5 7 0 1.014 3.959 2 5 2ZM261 197c-4.351 0-11.773 6.864-5.5 10 5.771 2.885 8.184-7 11.5-7 0-2.508 8-2.338 8-6 0-.731 5.092-11.296-1.5-8l-2.5 1c0 3.299-4 5.317-4 7l-6 3Z"/><path fill="#32B825" id="ENTl2" d="m52 229-7 1-4-7.5c-2.606-5.212-10-28.452-10-34.5l8-1c0 13.727 13 31.619 13 42Z"/><path fill="#32B725" id="ENTl3" d="M63 227c-4.076 0-7.795 2-11 2 0-10.381-13-28.273-13-42h8c0 8.812 3.845 18.19 8 26.5l8 12.5v1Z"/><path fill="#FF8DFD" id="SNr" d="M197 223c0 2.424-2 2.76-2 4-5.789 0-16.965 5.268-23.5 2l-10-3c-16.051-8.025-22.5-17.929-22.5-36l3.5-3c4.19-2.095 9.112 2 12.5 2 0 4.835 14 19.126 14 11l14 8c0 5.22 6.513 12 10 12l4 3ZM259 223l2 4c6.061 0 17.729 5.385 24.5 2 9.907-4.953 23.568-8.637 29.5-20.5l3-9c1.411-2.822-1-7.079-1-9.5 0-6.493-14.066-1-16-1 0 4.306-4.754 10.127-8.5 12-.804.402-5.5 2.3-5.5 0-5.019 0-8.294 6-13 6l-1 1c0 1.995-9 17.135-9 12-2.666 0-2.482 3-5 3Z"/><path fill="#7DCF4B" id="CA2" d="m360 187-1 1 1-1Z"/><path fill="#32B725" id="ENTl3" d="M393 227c4.076 0 7.795 2 11 2 0-2.359 1.987-4.475 3-6.5 2.89-5.78 11-29.327 11-35.5h-8c0 11.131-6.367 20.235-11 29.5-.918 1.836-3.317 9.5-6 9.5v1Z"/><path fill="#32B825" id="ENTl2" d="m404 229 7 1c3.113 0 3.078-7.656 4-9.5 4.829-9.658 10-22.222 10-32.5-1.819 0-4.591-1-7-1 0 6.173-8.11 29.72-11 35.5-1.013 2.025-3 4.141-3 6.5Z"/><path fill="#32B722" id="ENTl1" d="M45 230c0 1.579-2.855 1-4 1-2.076 0-3.216-7.932-4-9.5-4.585-9.17-12-22.817-12-33.5h6c0 6.048 7.394 29.288 10 34.5l4 7.5Z"/><path fill="#7DCF4B" id="CA2" d="m97 188 2 2-2-2Z"/><path fill="#32B722" id="ENTl1" d="M411 230c0 1.643 3.765 1 5 1l3-6.5c3.229-6.458 12-29.47 12-36.5h-6c0 10.278-5.171 22.842-10 32.5-.922 1.844-.887 9.5-4 9.5Z"/><path fill="#FFA6FD" id="SNc" d="M155 189c3.825 0 14 7.255 14 11 0 8.126-14-6.165-14-11Z"/><path fill="#FF64FF" id="MB" d="m232 189 1 1-1-1Z"/><path fill="#FFA6FD" id="SNc" d="M301 189c-4.153 0-14 7.372-14 12 0 2.3 4.696.402 5.5 0 3.746-1.873 8.5-7.694 8.5-12Z"/><path fill="#C7C8CC" id="alv" d="M325 189c-1.638 0-2 3.576-2 5 1.638 0 2-3.576 2-5Z"/><path fill="#7DCF4B" id="CA2" d="m358 189-1 1 1-1Z"/><path fill="#FF64FF" id="MB" d="m224 190-1 2 1-2Z"/><path fill="#7DCF4B" id="CA2" d="m100 191 1 1-1-1Z"/><path fill="#FE8DFF" id="VTA" d="M203 221c-2.72 0-3.553 2-6 2l-4-3-6-16 2-4 7.5 7c3.313 1.657 7.935-3.629 6.5-6.5-1.149-2.298-8-3.526-8-4.5l4-3h1l1-1 4-1c3.274 0 5.723.945 7 3.5 6.799 13.597-1 10.435-1 20.5-1.747 0-2 .253-2 2-1.334 0-6 2.972-6 4ZM264 220c-2.666 0-2.482 3-5 3-14.133 0-27.551-32-8-32h2l1 1h1l6 5c-4.351 0-11.773 6.864-5.5 10 5.771 2.885 8.184-7 11.5-7l3 4c0 4.943-6 10.681-6 16Z"/><path fill="#FF64FF" id="MB" d="m253 191 1 1-1-1Z"/><path fill="#A0EE9C" id="EPd" d="m395 191-1 1 1-1ZM62 192l1 1-1-1Z"/><path fill="#FF64FF" id="MB" d="m201 192-1 1 1-1ZM267 194l-6 3-6-5 12 2Z"/><path fill="#7DCF4B" id="CA2" d="m356 192-1 1 1-1Z"/><path fill="#FF64FF" id="MB" d="M190 194c0 1.014 3.959 2 5 2l4-3-9 1Z"/><path fill="#CACBC9" id="vtd" d="M225 197h6c5.01 0 3-.677 3-4h-1c0 4.796-10 3.588-10 1-3.934 0-.912 3 2 3Z"/><path fill="#7DCF4B" id="CA2" d="m355 193-1 1 1-1Z"/><path fill="#A0EE9C" id="EPd" d="m394 193-1 1 1-1Z"/><path fill="#C7C8CC" id="alv" d="M323 194c-1.638 0-2 3.576-2 5 1.638 0 2-3.576 2-5Z"/><path fill="#A0EE9C" id="EPd" d="m63 195 2 2-2-2ZM393 195l-1 2 1-2Z"/><path fill="#FFA6FF" id="IF" d="M224 207h8l3-1c0-2.271 1.325-3.85 0-6.5l-4-2.5h-6l-4 3.5v5.5l3 1Z"/><path fill="#A0EE9C" id="EPd" d="m392 197-1 1 1-1ZM65 198l2 2-2-2ZM389 199v2c1.577 0 2-1.762 2-3l-2 1Z"/><path fill="#C7C8CC" id="alv" d="m135 199 2 4-2-4Z"/><path fill="#FE8FFF" id="MT" d="M183 208c0 5.22 6.513 12 10 12l-6-16-4.5-5c-3.862 0 .5 8.104.5 9ZM273 208c0 1.995-9 17.135-9 12 0-5.319 6-11.057 6-16l4.5-5c3.101 0-.5 6.803-.5 8l-1 1Z"/><path fill="#C8CBCC" id="ec" d="M387 202h1l1-1v-2l-2 1v2Z"/><path fill="#C7C8CC" id="alv" d="m321 200-1 2 1-2ZM383 207h1l1-1v-1l1-1 1-1v-3c-1.948 0-4 5.428-4 7Z"/><path fill="#A0EE9C" id="EPd" d="m67 201 3 3-3-3ZM389 201l-1 1 1-1Z"/><path fill="#C7C8CC" id="alv" d="m320 202-1 2 1-2Z"/><path fill="#A0EE9C" id="EPd" d="m388 202-1 1v-1h1Z"/><path fill="#C8CBCC" id="ec" d="m387 203-1 1 1-1Z"/><path fill="#C7C8CC" id="alv" d="m137 204 2 3c-1.577 0-2-1.762-2-3Z"/><path fill="#C8CBCC" id="ec" d="m386 204-1 1 1-1Z"/><path fill="#C7C8CC" id="alv" d="m319 205-1 2 1-2Z"/><path fill="#FF8EFE" id="PN" d="M219 207c0 1.712-2.571 3-4 3 0-1.736 4-4.916 4-3Z"/><path fill="#FEA5FE" id="IPRL" d="m213 218 3 1 3-3c0-3.571 5-5.945 5-9l-3-1-2 1c0 1.712-2.571 3-4 3l-3 5v3h1ZM240 219h1l2-1 1-1v-1c0-2.25-2-3.376-2-5l-5-4-2-1-3 1c0 2.973 5 5.016 5 9 1.658 0 3 1.461 3 3Z"/><path fill="#FF8EFE" id="PN" d="m237 207 5 4c0-1.57-5-6.952-5-4Z"/><path fill="#C8CBCC" id="ec" d="m385 206-1 1 1-1Z"/><path fill="#FFA4FE" id="IPR" d="M227 226h2c1.668 0 8-2.222 8-4v-6c0-3.984-5-6.027-5-9h-8c0 3.055-5 5.429-5 9v5l1 2c2.087 0 4.393 3 7 3Z"/><path fill="#FF64FF" id="MB" d="m274 207-1 1 1-1Z"/><path fill="#C7C8CC" id="alv" d="m318 207-1 1 1-1ZM383 209l-2 1c0-1.238.423-3 2-3v2Z"/><path fill="#C8CBCC" id="ec" d="m384 207-1 2v-2h1Z"/><path fill="#C7C8CC" id="alv" d="m139 208 2 3c-1.577 0-2-1.762-2-3ZM317 209l-1 2 1-2Z"/><path fill="#C8CBCC" id="ec" d="M364 229h1l4-2 1-1 1-1 2-1 1-1 1-1 3-3 5-10-2 1c0 1.238-.423 3-2 3 0 1.238-.423 3-2 3l-1 1c0 2.226-1.774 4-4 4 0 1.811-3.438 4-5 4 0 1.577-1.762 2-3 2l-1 2h1Z"/><path fill="#C7C8CC" id="alv" d="M381 210c-1.577 0-2 1.762-2 3 1.577 0 2-1.762 2-3ZM316 211l-1 1 1-1ZM153 230h1v-1l-1-2-12-15c0 7.069 12 11.534 12 18ZM315 213l-1 1 1-1ZM379 213c-1.577 0-2 1.762-2 3 1.577 0 2-1.762 2-3ZM314 214l-1 1 1-1Z"/><path fill="#FF64FF" id="MB" d="M211 215c-1.747 0-2 .253-2 2l2-2Z"/><path fill="#CCCAC8" id="mp" d="M212 218c0 2.164-10.136 11.228-12 7.5-1.394-2.789 3-3.035 3-4.5 1.984 0 6-1.444 6-4l2-2h1v3Z"/><path fill="#FDA6FE" id="IPDL" d="M218 221h1v-5l-3 3v1l2 1ZM237 221h1l2-1v-1c0-1.539-1.342-3-3-3v5Z"/><path fill="#CCCAC8" id="mp" d="M244 216c1.815 0 15.954 7.773 11.5 10-5.863 2.931-9.256-9-11.5-9v-1Z"/><path fill="#C7C8CC" id="alv" d="m313 216-1 1 1-1ZM377 216l-1 1 1-1Z"/><path fill="#FF64FF" id="MB" d="M209 217c-1.334 0-6 2.972-6 4 1.984 0 6-1.444 6-4Z"/><path fill="#C7C8CC" id="alv" d="m312 217-1 1 1-1ZM376 217l-4 4c2.226 0 4-1.774 4-4Z"/><path fill="#8AD987" id="CTXsp" d="m77 221 8 4-7-7-1 3Z"/><path fill="#FF64FF" id="MB" d="M195 227c4.833 0 3 .436 3 4 4.516 0 10.49-5.995 14.5-8 2.557-1.278 7.949 2.974 10 4 1.008.504 4.5.22 4.5-1-2.607 0-4.913-3-7-3l-2-2-2-1-3-2h-1c0 2.164-10.136 11.228-12 7.5-1.394-2.789 3-3.035 3-4.5-2.72 0-3.553 2-6 2 0 2.424-2 2.76-2 4Z"/><path fill="#FEA5FF" id="IPL" d="M216 219v1l-3-2 3 1ZM243 218l-2 1 2-1ZM241 219l-1 1v-1h1Z"/><path fill="#C7C8CC" id="alv" d="M311 219c-1.747 0-2 .253-2 2l2-2Z"/><path fill="#8AD987" id="CTXsp" d="m379 221-4 1 3-3 1 2Z"/><path fill="#A0ED9D" id="EPv" d="m85 234-2 1-8-2c0-1.893-2-4.937-2-8l2-2 2-2 8 4h1l1 4-2 5Z"/><path fill="#FEA6FD" id="IPI" d="m219 221 1 2-2-2h1ZM238 221l-1 1v-1h1Z"/><path fill="#C7C8CC" id="alv" d="m309 221-2 2c1.747 0 2-.253 2-2ZM372 221c-1.562 0-5 2.189-5 4 1.562 0 5-2.189 5-4Z"/><path fill="#A0ED9D" id="EPv" d="M382 233c-3.519 0-5.843 2-9 2l-2-2-2-4v-2l1-1 1-1 2-1 1-1 1-1 4-1 3 2 1 1c0 1.423 1.978 3.544 1 5.5l-2 3.5Z"/><path fill="#8AD987" id="CTXsp" d="m375 222-1 1 1-1Z"/><path fill="#C7C8CC" id="alv" d="M304 226v1c1.712 0 3-2.571 3-4l-3 3Z"/><path fill="#8AD987" id="CTXsp" d="m373 224-2 1 2-1Z"/><path fill="#99D2BD" id="OLF" d="M387 232c0 1.643-3.765 1-5 1l2-3.5c.978-1.956-1-4.077-1-5.5l10 2v1c-3.71 0-6 .914-6 5ZM69 232c0 1.684 4.68 1 6 1 0-1.893-2-4.937-2-8l-10 1v1c2.885 0 8.65 5 6 5Z"/><path fill="#8AD987" id="CTXsp" d="M87 229h4l-5-4 1 4Z"/><path fill="#C7C8CC" id="alv" d="M367 225c-1.238 0-3 .423-3 2 1.238 0 3-.423 3-2Z"/><path fill="#8AD987" id="CTXsp" d="m371 225-1 1 1-1ZM370 226l-1 1 1-1Z"/><path fill="#6ACAB9" id="PIR" d="M69 232c-16.96 0-20-4.495-20 16-2.17 0-8-14.256-8-17 1.145 0 4 .579 4-1l7-1c3.205 0 6.924-2 11-2 2.885 0 8.65 5 6 5Z"/><path fill="#C7C8CC" id="alv" d="m304 227-1 2v-2h1ZM361 229h2l1-2c-1.238 0-3 .423-3 2Z"/><path fill="#8AD987" id="CTXsp" d="M365 229h4v-2l-4 2Z"/><path fill="#6ACAB9" id="PIR" d="M387 232c15.233 0 21-4.687 21 15 2.789 0 8-13.454 8-16-1.235 0-5 .643-5-1l-7-1c-3.205 0-6.924-2-11-2-3.71 0-6 .914-6 5Z"/><path fill="#9DE69C" id="BLAp" d="M95 246h2c0-3.19 6-5.985 6-10v-1l-3-1-1-1-2-1-1-1h-1l-1-1h-1l-1-1h-5l-2 5v1c0 4.071 9 5.225 9 10l1 1Z"/><path fill="#8AD987" id="CTXsp" d="M93 229v1l-1-1h1Z"/><path fill="#7DCD4B" id="HPF" d="M154 230h1l-1-1v1ZM302 230h1v-1l-1 1Z"/><path fill="#C7C8CC" id="alv" d="m361 229-2 1 2-1Z"/><path fill="#8AD987" id="CTXsp" d="m364 229-1 1v-1h1Z"/><path fill="#9DE69C" id="BLAp" d="m362 245-1 1-2-1c-1.703 0-6-7.441-6-9l1-1h1l1-1 6-3 1-1 1-1h5l2 4 1 2-1 1-9 9Z"/><path fill="#8AD987" id="CTXsp" d="m94 230 1 1-1-1Z"/><path fill="#7BD04A" id="DG-mo" d="m146 241 1 1c4.09 0 9.834.833 12-3.5 1.483-2.965-.866-7.5-4-7.5 0 10.032-12 5.128-12 0l-5-1 1 4 7 7Z"/><path fill="#7DCD4B" id="HPF" d="m154 230-1 1v-1h1Z"/><path fill="#65A83D" id="DG-sg" d="M153 231c0 2.362-6 4.531-6 2l-4-2c0 5.128 12 10.032 12 0v-1h-1l-1 1Z"/><path fill="#FD4A3D" id="Mmd" d="M221 244c2.671 0 5.254-2 7.5-2 1.948 0 4.03 2 6.5 2l2-1 6-7-5-4c-2.493 0-6.164-2-8.5-2-2.107 0-7.371 2-10.5 2l-6 4 6 7 2 1Z"/><path fill="#65A83D" id="DG-sg" d="m313 231-4 2c0 2.473-6-.295-6-3h-1l-1 1c0 8.277 12 6.506 12 0Z"/><path fill="#7ECE4A" id="DG-po" d="m303 230 6 3c0 2.473-6-.295-6-3Z"/><path fill="#7BD04A" id="DG-mo" d="m311 241-2 1c-4.09 0-9.834.833-12-3.5-1.237-2.474 1.93-7.5 4-7.5 0 8.277 12 6.506 12 0l5-1-1 4-6 7Z"/><path fill="#C7C8CC" id="alv" d="m359 230-2 1 2-1Z"/><path fill="#8AD987" id="CTXsp" d="m363 230-1 1 1-1Z"/><path fill="#A8ECD2" id="TR" d="M94 249c-3.844 0-8 20.646-8 25-4.43 0-10.783.858-14.5-1-5.618-2.809-22.5-19.847-22.5-25 0-20.495 3.04-16 20-16 0 1.684 4.68 1 6 1l8 2h2c0 4.071 9 5.225 9 10v4Z"/><path fill="#8AD987" id="CTXsp" d="m96 231 1 1-1-1Z"/><path fill="#7ECE4A" id="DG-po" d="m153 231-6 2c0 2.531 6 .362 6-2Z"/><path fill="#FF64FF" id="MB" d="m198 231-1 1 1-1Z"/><path fill="#FF493D" id="SUM" d="M213 236c-4.347 0-6.152 9-10 9 0-5.248 6.359-9.93 10.5-12 .914-.457 5.5-3.104 5.5-1l-6 4ZM243 236c4.223 0 7.341 9 10 9 0-5.296-5.203-9.851-9.5-12-1.233-.617-5.5-1.84-5.5-1l5 4Z"/><path fill="#C7C8CC" id="alv" d="M357 231c-1.238 0-3 .423-3 2 1.238 0 3-.423 3-2Z"/><path fill="#A8ECD2" id="TR" d="M362 249c3.865 0 9 20.993 9 25 14.265 0 25.391-6.283 32-19.5 1.275-2.55 5-4.466 5-7.5 0-19.687-5.767-15-21-15 0 1.643-3.765 1-5 1-3.519 0-5.843 2-9 2h-1l-1 1-9 9v4Z"/><path fill="#FF64FF" id="MB" d="m197 232-1 1 1-1Z"/><path fill="#8AD987" id="CTXsp" d="m99 233 1 1-1-1Z"/><path fill="#C7C8CC" id="alv" d="M349 235h3l1-2-4 2Z"/><path fill="#8AD987" id="CTXsp" d="M372 235h1l-2-2 1 2ZM83 235h2v-1l-2 1Z"/><path fill="#33B931" id="HATA" d="M126 243c0 1.032 9.687 8 11 8l9-9v-1l-7-7c-4.289 0-6.399 8-12 8l-1 1Z"/><path fill="#FF64FF" id="MB" d="m262 234 1 1-1-1Z"/><path fill="#33B931" id="HATA" d="M330 244c-4.182 0-7.548 7-11 7l-8-8v-2l6-7c4.16 0 6.631 8 12 8l1 2Z"/><path fill="#8AD987" id="CTXsp" d="m356 234-1 1 1-1ZM103 236h2l-2-1v1Z"/><path fill="#FF64FF" id="MB" d="m264 235 2 2-2-2Z"/><path fill="#C7C8CC" id="alv" d="M347 236h2v-1l-2 1Z"/><path fill="#8AD987" id="CTXsp" d="M352 236h1l1-1h-2v1ZM372 235l-1 1 1-1Z"/><path fill="#97EC93" id="PA" d="M137 251c0 1.251-4.19 8-5 8-1.31 0-12.923-8-21-8 0-4.037-13.883-2-16-2v-2l2-1c0-3.19 6-5.985 6-10h2l4 1h2l1 1h1l1 1h2c0 1.577 1.762 2 3 2h2l1 1h1l1 1h2c0 1.032 9.687 8 11 8Z"/><path fill="#FC4B3E" id="Mml" d="M219 246c-1.663 0-2 5.407-2 7-5.655 0-14-1.427-14-8 3.848 0 5.653-9 10-9l6 7v3ZM238 247c1.684 0 1 4.679 1 6 5.655 0 14-1.427 14-8-2.659 0-5.777-9-10-9l-6 7 1 4Z"/><path fill="#C7C8CC" id="alv" d="M345 237h2v-1l-2 1Z"/><path fill="#97EC93" id="PA" d="M346 251c-6.035 0-11.543 1.522-16.5 4l-4.5 4-6-8c3.452 0 6.818-7 11-7l1-1 4-1 1-1h1l2-1 2-1h1l1-1h1l1-1h2l2-1h4c0 1.559 4.297 9 6 9l2 2 1 1v1c-2.342 0-16-2.404-16 2Z"/><path fill="#FF64FF" id="MB" d="m267 237 1 1-1-1Z"/><path fill="#C7C8CC" id="alv" d="M343 238h1v-1l-2 1h1ZM341 239h1v-1l-2 1h1Z"/><path fill="#FF64FF" id="MB" d="m271 239 1 1-1-1Z"/><path fill="#C7C8CC" id="alv" d="M337 240h2v-1l-2 1Z"/><path fill="#FF64FF" id="MB" d="m273 240 1 1-1-1Z"/><path fill="#C7C8CC" id="alv" d="M336 241h1v-1l-2 1h1Z"/><path fill="#7DCD4B" id="HPF" d="M146 242h1l-1-1v1ZM309 242l2 1v-2l-2 1Z"/><path fill="#C7C8CC" id="alv" d="m335 242-4 1-1-1 5-1v1Z"/><path fill="#FE493D" id="Mmp" d="M217 253h22c0-1.321.684-6-1-6l-3-3c-2.47 0-4.552-2-6.5-2-2.246 0-4.829 2-7.5 2 0 .641-2 4.374-2 2-1.663 0-2 5.407-2 7Z"/><path fill="#7DCD4B" id="HPF" d="m331 243-1 1-1-2h1l1 1Z"/><path fill="#FE4A3C" id="Mmm" d="M221 244c0 .641-2 4.374-2 2v-3l2 1ZM235 244l3 3-1-4-2 1Z"/><path fill="#99D2BD" id="OLF" d="M94 249h1v-3l-1-1v4Z"/><path fill="#8AD987" id="CTXsp" d="M361 246v1l-2-2 2 1ZM361 246h1v-1l-1 1ZM97 246l-2 1v-1h2Z"/><path fill="#99D2BD" id="OLF" d="m361 247 1 1v-2h-1v1Z"/><path fill="#5FE6B7" id="COApl" d="M86 274c0 1.416 12.305 7 15 7 0-4.946 1.839-30 10-30 0-4.037-13.883-2-16-2h-1c-3.844 0-8 20.646-8 25ZM371 274c-4.997 0-9.238 7-15 7 0-6.611-.257-14.015-3-19.5-1.067-2.133-7-8.486-7-10.5 0-4.404 13.658-2 16-2 3.865 0 9 20.993 9 25Z"/><path fill="#60E6B5" id="COApm" d="M132 259c0 11.121-20.382 22-31 22 0-4.946 1.839-30 10-30 8.077 0 19.69 8 21 8ZM325 259c0 13.321 20.121 22 31 22 0-6.611-.257-14.015-3-19.5-1.067-2.133-7-8.486-7-10.5-6.035 0-11.543 1.522-16.5 4l-4.5 4Z"/></svg>