<svg xmlns="http://www.w3.org/2000/svg" viewBox="0 0 456 320"><path fill="#098589" id="VISp1" d="m82 57 3 3c3.478 0 14.141-11.82 18.5-14 20.719-10.36 40.534-25 65.5-25v-4c-25.136 0-47.528 15.514-68.5 26C98.062 44.219 82 54.524 82 57Z"/><path fill="#0A8589" id="VISpm1" d="M169 21h7v-4h-7v4Z"/><path fill="#1BA696" id="RSPagl1" d="M176 21c5.422 0 14.99 4 17 4l1-5c-5.42 0-12.182-3-18-3v4ZM263 25h1c1.576 0 11.616-4 17-4v-4c-3.711 0-10.242.371-13.5 2-1.147.574-4.5-1.064-4.5 1v5Z"/><path fill="#0A8589" id="VISpm1" d="M281 21h6l1-4h-7v4Z"/><path fill="#098589" id="VISp1" d="M371 61h1l2-4c0-3.15-18.21-14.355-21.5-16-7.311-3.656-13.732-8.366-21-12-6.385-3.192-13.545-4.772-20-8-4.485-2.243-11.59.205-16-2-2.225-1.112-4.846-2-7.5-2l-1 4c20.311 0 34.728 9.614 51.5 18 4.452 2.226 14.363 5.225 16.5 9.5 1.056 2.112 16 9.231 16 12.5Z"/><path fill="#1BA598" id="RSPd1" d="m165 63 2 1 6.5-7 22-15 9.5-5.5c2.956-5.911-4.06-16.5-11-16.5l-1 5c5.282 0 3.081 10.337 2 12.5L172.5 55l-7.5 7v1ZM291 63l-2 1-7.5-7-9-8c-3.795-1.897-19.779-10.057-21.5-13.5-3.392-6.784 6.289-15.5 12-15.5v5c0 5.513-5.698 4.103-1 13.5 2.354 4.709 29 17.497 29 24.5Z"/><path fill="#0A828C" id="VISp2/3" d="m85 61 5 6c4.581 0 16.596-11.548 21.5-14 18.182-9.09 36.717-24 58.5-24l-1-8c-24.966 0-44.781 14.64-65.5 25-4.359 2.18-15.022 14-18.5 14v1Z"/><path fill="#08858B" id="VISpm2/3" d="M171 29h2l1-1 2-7h-7l1 8h1Z"/><path fill="#1AA496" id="RSPagl2/3" d="M185 33h1c0-3.149 7-3.973 7-8-2.01 0-11.578-4-17-4l-2 7-1 1v2c2.836 0 12-4.574 12 2ZM283 31c-1.547 0-12-4.08-12 1-3.072 0-7-4.172-7-7 1.576 0 11.616-4 17-4 0 3.138 2 5.662 2 8v2Z"/><path fill="#08858B" id="VISpm2/3" d="M283 29h3l1-8h-6c0 3.138 2 5.662 2 8Z"/><path fill="#0A828C" id="VISp2/3" d="M366 67h1l4-6c0-3.269-14.944-10.388-16-12.5-2.137-4.275-12.048-7.274-16.5-9.5-16.772-8.386-31.189-18-51.5-18l-1 8c22.701 0 41.576 15.538 60.5 25 3.956 1.978 16.278 13 19.5 13Z"/><path fill="#1BA697" id="RSPd2/3" d="M186 33c0 12.7-21 20.06-21 29l7.5-7L195 37.5c1.081-2.163 3.282-12.5-2-12.5 0 4.027-7 4.851-7 8ZM293 64l2 1c0-2.579-18.9-20.4-22.5-24-.773-.773-4.351-8-1.5-8v-1c-3.072 0-7-4.172-7-7h-1c0 5.513-5.698 4.103-1 13.5 2.354 4.709 29 17.497 29 24.5l1 1h1Z"/><path fill="#09828B" id="VISpm4" d="m174 28-1 1 1-1Z"/><path fill="#0B848B" id="VISp4" d="M93 73h1c0-1.208 15.399-10.95 17.5-12 16.224-8.112 41.01-30 59.5-30v-2h-1c-21.783 0-40.318 14.91-58.5 24-4.904 2.452-16.919 14-21.5 14v1c1.077 0 3 3.762 3 5Z"/><path fill="#09828B" id="VISpm4" d="M171 31h2v-2h-2v2Z"/><path fill="#1CA697" id="RSPagl5" d="M167 42h2l16-9c0-6.574-9.164-2-12-2l-2 2c0 3.414-6 4.207-6 8l2 1ZM289 42c0-2.56 3.334 0 4 0l-7-8c-1.577 0-2-1.762-2-3h-1c-1.547 0-12-4.08-12 1v1l17 9h1Z"/><path fill="#09828B" id="VISpm4" d="M284 31h2v-2h-3v2h1Z"/><path fill="#0B848B" id="VISp4" d="M366 67c0 1.076-1.523 5-3 5-5.471 0-11.67-8.585-16.5-11-15.867-7.933-43.032-30-60.5-30v-2c22.701 0 41.576 15.538 60.5 25 3.956 1.978 16.278 13 19.5 13Z"/><path fill="#088389" id="VISp5" d="m94 73 5 8 12.5-10c12.979-6.49 38.029-29 51.5-29l2-1c0-3.793 6-4.586 6-8v-2c-18.49 0-43.276 21.888-59.5 30C109.399 62.05 94 71.792 94 73Z"/><path fill="#088489" id="VISpm5" d="m173 31-2 2v-2h2ZM286 31v3c-1.577 0-2-1.762-2-3h2Z"/><path fill="#088389" id="VISp5" d="m363 73-6 8-16.5-13c-11.33-5.665-34.985-26-46.5-26h-1l-7-8v-3c17.468 0 44.633 22.067 60.5 30 4.83 2.415 11.029 11 16.5 11v1Z"/><path fill="#1AA596" id="RSPd5" d="M159 67h1l1-1 2-2 2-2c0-8.94 21-16.3 21-29h-1l-16 9 1 3.5c-2.074 4.149-11.239 18.5-16 18.5 0 1.077 3.762 3 5 3ZM296 66l1 1 6-3c-3.177 0-14.233-11.966-16-15.5-.57-1.14-.263-6.5 1-6.5l-17-9c-2.851 0 .727 7.227 1.5 8 3.6 3.6 22.5 21.421 22.5 24l1 1Z"/><path fill="#1CA697" id="RSPagl5" d="m165 41-2 1 2-1Z"/><path fill="#1CA597" id="RSPagl6a" d="M147 60h2c0-5.084 18-16.5 18-18l-2-1-2 1c0 2.095-16 13.307-16 18Z"/><path fill="#FF7AFD" id="SCzo" d="M294 78h1c0-12.078-26.193-29.346-35.5-34-2.99-1.495-9.934-5.033-14-3-3.713 1.857-12.444 5.388-14.5 9.5-1.179 2.357.135 7.5-2.5 7.5l-2.5-6.5c-2.173-4.347-10.611-8.556-14.5-10.5-5.452-2.726-30.5 9.964-30.5 14 5 0 12.019-7.76 16.5-10 10.454-5.227 23.58.66 28.5 10.5V67h4l1-13.5c2.82-5.64 16.052-13.724 22.5-10.5l17 9 7 6c5.495 2.748 16.5 13.856 16.5 20Z"/><path fill="#1CA597" id="RSPagl6a" d="M308 60h1c0-5.298-15-14.405-15-18h-1c-.666 0-4-2.56-4 0l10 7.5 9 10.5Z"/><path fill="#08858C" id="VISp6a" d="M111 83c-2.919 0-4.243 4-7 4l-5-6 12.5-10c12.979-6.49 38.029-29 51.5-29 0 2.095-16 13.307-16 18l-1 1c-2.732 0-15 4.803-15 8-1.417 0-6 2.383-6 4-2.15 0-14 7.559-14 10Z"/><path fill="#1AA697" id="RSPd6a" d="m149 61 5 3c4.761 0 13.926-14.351 16-18.5l-1-3.5h-2c0 1.5-18 12.916-18 18v1ZM308 61l-5 3c-3.177 0-14.233-11.966-16-15.5-.57-1.14-.263-6.5 1-6.5h1l10 7.5 9 10.5v1Z"/><path fill="#08858C" id="VISp6a" d="M357 81c0 2.919-4 4.243-4 7l-8.5-7c-9.096-4.548-25.941-21-35.5-21 0-5.298-15-14.405-15-18 11.515 0 35.17 20.335 46.5 26L357 81Z"/><path fill="#FF78FF" id="SCsg" d="M163 74v3c4.147 0 8.852-6.176 12.5-8l28-14c4.359-2.18 15.498.496 17.5 4.5l5 7.5V55.5c-4.92-9.84-18.046-15.727-28.5-10.5-4.481 2.24-11.5 10-16.5 10 0 1.99-6.266 7-8 7l-3 3-1 1-1 1c0 1.429-1.288 4-3 4l-1 2-1 1ZM230 67c2.825 0 4.155-5.81 5-7.5 1.716-3.433 12.722-6.889 17.5-4.5l32 16 9.5 7c0-6.144-11.005-17.252-16.5-20l-7-6-17-9c-6.448-3.224-19.68 4.86-22.5 10.5L230 67Z"/><path fill="#FF7AFD" id="SCzo" d="M181 55c-2.348 0-8 5.124-8 7 1.734 0 8-5.01 8-7Z"/><path fill="#FD7AFF" id="SCop" d="M161 82c3.7 0 7.286-5.393 10.5-7 9.931-4.966 20.193-9.097 30-14h5.5c13.416 0 9.75 6.625 18.5 11l2-2 3 2 11-11c1.187-.594 2.716-.358 4-1 2.295-1.147 10.953 1.976 13 3 8.157 4.078 17.242 7.62 26 12l10.5 7v-4h-1l-9.5-7-32-16c-4.778-2.389-15.784 1.067-17.5 4.5-.845 1.69-2.175 7.5-5 7.5h-4l-5-7.5c-2.002-4.004-13.141-6.68-17.5-4.5l-28 14c-3.648 1.824-8.353 8-12.5 8l-2 2v3Z"/><path fill="#09848A" id="VISl1" d="M68 77h1c0-2.71 15.294-16 16-16v-1l-3-3c-1.07 0-17 17.199-17 18l3 2ZM388 77h1l2-2c0-1.965-15.662-18-17-18l-2 4 16 16Z"/><path fill="#08858A" id="VISp6b" d="M146 61h1v-1l-1 1Z"/><path fill="#1AA598" id="RSPagl6b" d="M148 61h1v-1h-2v1h1Z"/><path fill="#FF90FF" id="SCig" d="m153 106 3-3.5c5.822-11.645 19.559-18.03 30.5-23.5 6.386-3.193 18.191-13.405 27-9l13 12c2.377-1.189 3.394.303 6-1l10-11c3.682-1.841 11.217.609 14 2 11.456 5.728 25.95 10.95 35.5 20.5 3.259 3.259 11 8.532 11 13.5 4.844 0 3-5.96 3-9l-1-2-1-1-2-4-1-1-3-4-1-1-1-1-1-1-10.5-7c-8.758-4.38-17.843-7.922-26-12-2.047-1.024-10.705-4.147-13-3-1.284.642-2.813.406-4 1l-11 11-3-2-2 2c-8.75-4.375-5.084-11-18.5-11h-5.5c-9.807 4.903-20.069 9.034-30 14-3.214 1.607-6.8 7-10.5 7l-1 1-1 1-1 1-1 1-1 1v1l-1 1v1l-1 1-1 1v1l-1 1-1 1v2c0 2.53-3.03 9 2 9Z"/><path fill="#1AA598" id="RSPagl6b" d="m308 61 2 1-1-2h-1v1Z"/><path fill="#08858A" id="VISp6b" d="M353 88v1c-5.539 0-15.455-14-21-14 0-1.594-19.404-13-22-13l-1-2c9.559 0 26.404 16.452 35.5 21l8.5 7Z"/><path fill="#0A8489" id="VISl2/3" d="M69 77c0 1.661 3.007 5 5 5l16-14v-1l-5-6c-.706 0-16 13.29-16 16Z"/><path fill="#08858A" id="VISp6b" d="M146 62c-5.429 0-9.417 7-15 7 0-3.197 12.268-8 15-8v1Z"/><path fill="#1AA598" id="RSPagl6b" d="m147 61-1 1v-1h1Z"/><path fill="#C9C9CA" id="scwm" d="m125 75 1 1c5.776 0 10.58-9 17-9l2-2 3-2v-2h-1l-1 1c-5.429 0-9.417 7-15 7 0 2.568-3.478 4-6 4v2Z"/><path fill="#33B932" id="APr" d="m163 69-4 6-11-12v-2h1l5 3c0 1.077 3.762 3 5 3l2 1 2 1ZM294 70l3 5 12-12-1-2-5 3-6 3-2 2-1 1Z"/><path fill="#C9C9CA" id="scwm" d="m332 75-1 1-20-11-2-2-1-2 2 1c2.596 0 22 11.406 22 13Z"/><path fill="#0A8489" id="VISl2/3" d="m388 77-5 5-4-3.5c-2.736-2.736-12-8.075-12-11.5l4-6h1l16 16Z"/><path fill="#1BA697" id="RSPd2/3" d="M163 65h1l1-1v-2l-2 2v1Z"/><path fill="#FF7AFD" id="SCzo" d="M173 62c-2.041 0-3 .96-3 3l3-3Z"/><path fill="#47C83C" id="POST" d="m116 109 24 1 5-7.5c2.355-4.71 14-24.018 14-27.5l-11-12-3 2c0 1.747-.253 2-2 2 0 3.351-6 5.108-6 7l-6 7v1l-1 1-1 1-1 3-1 1c0 6.605-11 15.536-11 21Z"/><path fill="#1BA597" id="RSPv1" d="m161 68 2 1 4-5-2-1v1l-1 1h-1c0 1.238-.423 3-2 3ZM295 69l-1 1-5-6 2-1 1 1 1 1 2 4Z"/><path fill="#47C83C" id="POST" d="m340 109-23 1c-2.431 0-3.526-6.026-5-7.5-1.486-1.486-15-25.978-15-27.5l12-12 2 2c0 1.776 6.382 8 8 8l7 9 2 4c0 7.945 12 15.143 12 23Z"/><path fill="#1AA597" id="RSPv2/3" d="M159 67h1l1-1 2-2v1c0 1.238-.423 3-2 3l-2-1Z"/><path fill="#1BA598" id="RSPd1" d="m165 64-1 1 1-1ZM293 64v1l-1-1h1Z"/><path fill="#1AA597" id="RSPv2/3" d="m297 67-2 2-2-4v-1l2 1 1 1 1 1Z"/><path fill="#C8C9CA" id="fp" d="m145 65-2 2c1.747 0 2-.253 2-2Z"/><path fill="#FF7AFD" id="SCzo" d="m170 65-1 1 1-1Z"/><path fill="#C8C9CA" id="fp" d="M354 96h2c0-3.175-25-16.97-25-20l-20-11c0 1.776 6.382 8 8 8 .853 0 6 2.992 6 4 7.622 0 25.249 19 29 19Z"/><path fill="#1BA498" id="RSPv5" d="m161 66-1 1 1-1Z"/><path fill="#FF7AFD" id="SCzo" d="m169 66-1 1 1-1Z"/><path fill="#1BA498" id="RSPv5" d="m296 66 1 1-1-1Z"/><path fill="#C8C9CA" id="fp" d="M101 96h2l6.5-5c6.82-3.41 13.568-14 21.5-14l6-3c0-1.892 6-3.649 6-7-6.42 0-11.224 9-17 9l-5.5 5c-2.924 1.462-19.5 12.864-19.5 15Z"/><path fill="#FF7AFD" id="SCzo" d="M168 67c-1.712 0-3 2.571-3 4 1.712 0 3-2.571 3-4Z"/><path fill="#08828B" id="VISl4" d="M379 86h1l3-3v-1l-4-3.5c-2.736-2.736-12-8.075-12-11.5h-1c0 1.076-1.523 5-3 5v1c.926 0 16 11.853 16 13ZM74 83c1.481 0 .785 2 3 2l16-12c0-1.238-1.923-5-3-5L74 82v1Z"/><path fill="#08858A" id="VISp6b" d="M131 69c-1.417 0-6 2.383-6 4 2.522 0 6-1.432 6-4Z"/><path fill="#FF90FE" id="SCiw" d="M169 112c0-6.409 12.457-13.478 17.5-16 8.15-4.075 12.942-10.97 21-15 5.273-2.637 15.063 2.031 19 4 4.449 2.224 16.161-7.42 23-4l16 12c5.956 2.978 21.5 11.736 21.5 19 2.477 0 16-4.185 16-6 0-4.968-7.741-10.241-11-13.5-9.55-9.55-24.044-14.772-35.5-20.5-2.783-1.391-10.318-3.841-14-2l-10 11c-2.606 1.303-3.623-.189-6 1l-13-12c-8.809-4.405-20.614 5.807-27 9-10.941 5.47-24.678 11.855-30.5 23.5l-3 3.5c3.546 0 10.615 6 16 6Z"/><path fill="#FF7AFD" id="SCzo" d="m165 71-1 2 1-2Z"/><path fill="#0B858B" id="VISl5" d="m77 86 7 8c2.085 0 11.848-13 15-13l-5-8h-1L77 85v1Z"/><path fill="#08858A" id="VISp6b" d="M125 75c-5.192 0-8.808 8-14 8 0-2.441 11.85-10 14-10v2Z"/><path fill="#FF7AFD" id="SCzo" d="m164 73-1 1 1-1Z"/><path fill="#7DCD4B" id="HPF" d="m325 77 1 5-7-9c.853 0 6 2.992 6 4Z"/><path fill="#0B858B" id="VISl5" d="m379 86-6 8c-5.265 0-10.221-13-16-13l6-8c.926 0 16 11.853 16 13Z"/><path fill="#7DCD4B" id="HPF" d="M131 77c2.091 0 0 2.863 0 4l6-7-6 3Z"/><path fill="#FF7AFD" id="SCzo" d="m163 77-2 2c0-1.424.362-5 2-5v3Z"/><path fill="#0C858C" id="VISli1" d="m57 85 3 2c1.032 0 8-8.098 8-10l-3-2-8 10Z"/><path fill="#CBC9C7" id="or" d="M90 107c-3.746 0-5.676 8-9 8 0-4.989 10-8.566 10-13 1.577 0 2-1.762 2-3 1.747 0 2-.253 2-2 1.747 0 2-.253 2-2 1.747 0 2-.253 2-2 1.747 0 2-.253 2-2 1.238 0 3-.423 3-2 2.115 0 7-4.212 7-6 5.192 0 8.808-8 14-8l1 1-5.5 5c-2.924 1.462-19.5 12.864-19.5 15l-11 11ZM365 101c0 5.575 21 19.632 21 28-2.862 0-6.077-6.654-7-8.5-.883-1.767-21.231-24.5-23-24.5 0-3.175-25-16.97-25-20l1-1c5.545 0 15.461 14 21 14 0 2.415 9.585 12 12 12Z"/><path fill="#0C858C" id="VISli1" d="m399 85-2 2c-2.149 0-8-7.502-8-10l2-2c1.782 0 8 8.284 8 10Z"/><path fill="#0A858A" id="VISli2/3" d="M60 88c0 1.533 3.753 4 5 4l9-9v-1c-1.993 0-5-3.339-5-5h-1c0 1.902-6.968 10-8 10v1Z"/><path fill="#C9CCC9" id="dhc" d="m89 110 1 2 6.5-3H108c7.898 0 15.442-21 19-21l1-1 1-3 1-1 1-1v-1c0-1.137 2.091-4 0-4-7.932 0-14.68 10.59-21.5 14l-6.5 5-12 11-1 1-1 2ZM349 109h11.5l5.5 3c4.373 0-1-3.168-1-5l-11-11c-3.751 0-21.378-19-29-19l1 5 2 4c4.084 0 11.338 23 21 23Z"/><path fill="#0A858A" id="VISli2/3" d="M397 88c-2.069 0-3.082 4-6 4l-8-9v-1l5-5h1c0 2.498 5.851 10 8 10v1Z"/><path fill="#08848C" id="VISl6a" d="M90 101h1c0-1.747.253-2 2-2 0-1.747.253-2 2-2 0-1.747.253-2 2-2 0-1.747.253-2 2-2 0-1.747.253-2 2-2l3-3v-1l-5-6c-3.152 0-12.915 13-15 13v1l5 6h1Z"/><path fill="#C7CBCB" id="bsc" d="M159 83h1l1-1v-1l-2 2Z"/><path fill="#FF8FFF" id="SCdg" d="M178 122h3c3.372 0 6.053-3 10-3l-1-11.5 6-7c7.32-14.64 21.922-10.5 35.5-10.5l15-1c8.265 4.133 16.13 10.76 20.5 19.5.627 1.255-1 8.223-1 10.5 3.647 0 6.586 3 10 3l5-1 6-9c0-7.264-15.544-16.022-21.5-19l-16-12c-6.839-3.42-18.551 6.224-23 4-3.937-1.969-13.727-6.637-19-4-8.058 4.03-12.85 10.925-21 15-5.043 2.522-17.5 9.591-17.5 16l6 9h2l1 1Z"/><path fill="#C7CBCB" id="bsc" d="M304 94h1c0-2.324-7.125-13-10-13v1l1 1 1 1 1 1 3 4 1 1 2 4Z"/><path fill="#08848C" id="VISl6a" d="M366 101h1c0-1.635 4.365-6 6-6v-1c-5.265 0-10.221-13-16-13 0 2.919-4 4.243-4 7v1c2.273 0 13 9.507 13 12Z"/><path fill="#7DCD4B" id="HPF" d="m131 82-1 1 1-1Z"/><path fill="#FF64FF" id="MB" d="m295 82 1 1-1-1Z"/><path fill="#08828C" id="VISli4" d="M67 95h1l9-9v-1c-2.215 0-1.519-2-3-2l-9 9v1l2 2Z"/><path fill="#08858A" id="VISp6b" d="M104 88v1c2.115 0 7-4.212 7-6-2.919 0-4.243 4-7 4v1Z"/><path fill="#7DCD4B" id="HPF" d="m130 83-1 1 1-1Z"/><path fill="#C7CBCB" id="bsc" d="m159 84-1 1 1-2v1Z"/><path fill="#FF64FF" id="MB" d="m160 83-1 1v-1h1Z"/><path fill="#08828C" id="VISli4" d="m391 93-2 2-9-9 3-3 8 9v1Z"/><path fill="#FF64FF" id="MB" d="m297 84 1 1-1-1Z"/><path fill="#09818C" id="VISpor1" d="M45 101v7c1.186 0 12.327-20 15-20v-1l-3-2c-.916 0-12 14.536-12 16Z"/><path fill="#C7CBCB" id="bsc" d="m158 85-1 1 1-1Z"/><path fill="#09818C" id="VISpor1" d="M412 101c0 2.151-.506 7-1 7 0-6.916-14-13.387-14-20v-1l2-2c.913 0 13 14.625 13 16Z"/><path fill="#0A848A" id="VISli5" d="M78 101h1c0-1.098 3.23-6 5-6v-1l-7-8-9 9c0 4.588 6.339 6 10 6Z"/><path fill="#C7CBCB" id="bsc" d="m157 86-1 1 1-1Z"/><path fill="#7DCD4B" id="HPF" d="M347 110c-2.124 0-4.436 1-6 1l-1-2c0-7.857-12-15.055-12-23 4.084 0 11.338 23 21 23l-2 1Z"/><path fill="#0A848A" id="VISli5" d="M378 101h1c5.021 0 8.831-5 10-5v-1l-9-9h-1l-6 8v1l5 6Z"/><path fill="#7DCD4B" id="HPF" d="m128 87-1 1 1-1Z"/><path fill="#C7CBCB" id="bsc" d="M155 88h1v-1l-1 1Z"/><path fill="#0A8389" id="VISpor2/3" d="M45 110c0 3.735 2 5.734 2 9.5 0 .507-2.626 3.5 0 3.5 0-4.976 9.561-20.061 13.5-24l4.5-6v-1c-1.247 0-5-2.467-5-4-2.673 0-13.814 20-15 20v2Z"/><path fill="#09858C" id="VISl6b" d="M104 89c0 1.577-1.762 2-3 2l3-3v1Z"/><path fill="#7DCD4B" id="HPF" d="M109 110h6l1-1c0-5.464 11-14.395 11-21-3.558 0-11.102 21-19 21l1 1Z"/><path fill="#FF64FF" id="MB" d="m156 88-1 1v-1h1Z"/><path fill="#0A8389" id="VISpor2/3" d="M409 125h1v-10.5l2-3c0-.538-2.043-1.5 0-1.5l-1-2c0-6.916-14-13.387-14-20-2.069 0-3.082 4-6 4v1l6 7.5c4.065 8.13 12 14.764 12 24.5Z"/><path fill="#C7CBCB" id="bsc" d="M154 90h1v-1l-1 1Z"/><path fill="#FF8FFE" id="SCdw" d="M193 120c0-13.954 8.56-23.53 19.5-29l14 2 18-2c10.733 5.367 19.5 17.153 19.5 29l2-1c0-2.277 1.627-9.245 1-10.5-4.37-8.74-12.235-15.367-20.5-19.5l-15 1c-13.578 0-28.18-4.14-35.5 10.5l-6 7 1 11.5 2 1Z"/><path fill="#FF64FF" id="MB" d="m301 89 1 1-1-1Z"/><path fill="#09858C" id="VISl6b" d="M365 101h1c0-2.493-10.727-12-13-12 0 2.415 9.585 12 12 12Z"/><path fill="#C7CBCB" id="bsc" d="M153 91h1v-1l-1 1Z"/><path fill="#FF64FF" id="MB" d="m155 90-1 1v-1h1Z"/><path fill="#09858C" id="VISl6b" d="M101 91c-1.747 0-2 .253-2 2 1.747 0 2-.253 2-2Z"/><path fill="#FF64FF" id="MB" d="m154 91-1 1v-1h1Z"/><path fill="#FC8FFF" id="PAG" fill-rule="evenodd" d="m220 135-2.5 2c-1.529.765-15.459 6.271-8 10 2.384 1.192 26.185-12 10.5-12m24 14h1l1-1c5.558 0 17-15.926 17-21l1-7c0-11.847-8.767-23.633-19.5-29l-18 2-14-2c-10.94 5.47-19.5 15.046-19.5 29v7c0 4.185 11.906 21 17 21l2 1h1c2.827 0 4.163-2.831 6.5-4 2.352-1.176 4.827-.154 6.5-3.5 1.557-3.115 1-15.298 1-18.5l-3-5.5c2.128-4.255 9-5.572 9 0l-4 6.5c2.896 0 2 8.797 2 11 3.996 0 25.522 6.989 15.5 12-4.343 2.171-11.436-8-15.5-8 0 4.492 8.353 10 13 10Z"/><path fill="#C7CBCB" id="bsc" d="M152 93h1v-1l-1 1Z"/><path fill="#0A828A" id="VISpor4" d="M47 129h1l1-1c0-8.757 18-28.659 18-33l-2-2-4.5 6c-3.939 3.939-13.5 19.024-13.5 24v6Z"/><path fill="#09858C" id="VISl6b" d="M99 93c-1.747 0-2 .253-2 2 1.747 0 2-.253 2-2Z"/><path fill="#C7CBCB" id="bsc" d="m152 94-1 1 1-2v1Z"/><path fill="#FF64FF" id="MB" d="m153 93-1 1v-1h1Z"/><path fill="#0A828A" id="VISpor4" d="m407 128 2 1v-4c0-9.736-7.935-16.37-12-24.5l-6-7.5-2 2v1c2.058 0 5.209 6.918 6 8.5 3.742 7.483 12 14.629 12 23.5Z"/><path fill="#FF64FF" id="MB" d="M305 94v1l-1-1h1Z"/><path fill="#0B838A" id="VISpor5" d="M49 132c0 3.474 8 5.415 8 8 .918 0 1.548-3.595 2-4.5v-4l5-10c1.66-3.321 14-18.933 14-20.5-3.661 0-10-1.412-10-6h-1c0 4.341-18 24.243-18 33v4Z"/><path fill="#088488" id="VISli6a" d="M79 101h10l-5-6c-1.77 0-5 4.902-5 6Z"/><path fill="#09858C" id="VISl6b" d="M97 95c-1.747 0-2 .253-2 2 1.747 0 2-.253 2-2Z"/><path fill="#C7CBCB" id="bsc" d="m305 95 1 2-1-2Z"/><path fill="#088488" id="VISli6a" d="M367 101c2.216 0 11 .237 11 0l-5-6c-1.635 0-6 4.365-6 6Z"/><path fill="#C8CBCC" id="ec" d="M90 107h1l12-11h-2l-11 11Z"/><path fill="#C7CBCB" id="bsc" d="M150 97h1v-1l-1 1Z"/><path fill="#C8CBCC" id="ec" d="M385 176h1c0-2.819 2.631-10.762 4-13.5 3.061-6.121-1-19.495-1-25.5 0-1.93-.84-8-3-8-2.862 0-6.077-6.654-7-8.5-.883-1.767-21.231-24.5-23-24.5h-2l11 11 6.5 7c5.565 5.565 13.5 14.228 13.5 23v4c2.064 0 .426 3.353 1 4.5 2.274 4.548 2.274 18.452 0 23-.574 1.147 1.064 4.5-1 4.5v3Z"/><path fill="#0B838A" id="VISpor5" d="m400 140-1 1c0-10.446-7.596-20.692-12-29.5-1.848-3.697-8-6.119-8-10.5 5.021 0 8.831-5 10-5 2.058 0 5.209 6.918 6 8.5 3.742 7.483 12 14.629 12 23.5l1 3v2l-7 6-1 1Z"/><path fill="#09858C" id="VISl6b" d="M95 97c-1.747 0-2 .253-2 2 1.747 0 2-.253 2-2Z"/><path fill="#C7CBCB" id="bsc" d="m150 97-1 1 1-1Z"/><path fill="#FF64FF" id="MB" d="M176 190c-6.555 0-14.109 5-19 5 0-4.344-6.157-13.828-10.5-16-1.929-.965-1.915 4-3.5 4 0-8.658-2.435-15.37-6-22.5l-1-25.5c1.574 0 2.624 2.252 4-.5v-12c2.439-4.879 6.476-8.951 9-14 2.008-4.016-2.257-3.5-4-3.5 0-2.46 4-4.17 4-7l1-1h1c0 2.53-3.03 9 2 9 3.546 0 10.615 6 16 6l6 9h-9.5l-6 2-3.5 3-1-5c0-2.029-1.191-1.881-2-3.5-5.664-11.328-17.649 10.425-9.5 14.5h9.5v11.5l2 3.5c-3.903 0-9-1.96-9 5l-4.5-4c-9.168 4.584 5.5 25.662 5.5 9 1.32 0 6.994 3.247 8.5 4 2.555 1.278 4.516-2 6.5-2 0 2.643 3.108 7 6 7 0 1.696-7.752 6.005-9 8.5-2.159 4.317 1.806 12.653 5.5 14.5H176v1ZM281 190c6.286 0 12.067 4 18 4l4-7.5 7.5-7.5 2.5 2c0-6.67 3.176-13.852 6-19.5l2-26.5-4 .5c-2.362-4.724.438-12.124-2-17-1.728-3.455-9.17-9.66-7-14l4 1.5-6-9c0 3.04 1.844 9-3 9 0 1.815-13.523 6-16 6l-6 9h9.5l6 2 3.5 3 1.5-6 5-6c5.542-2.771 11.03 15.485 8 17-3.188 1.594-7.681 1-11.5 1 0 1.414 1.208 7.084 1 7.5l-2 6.5c5.412 0 8.941 5 9 5l4.5-3c9.431 4.716-6.5 24.705-6.5 9l-7.5 4-6.5-1-6 7c9.164 0 11.478 18.011 3.5 22H280v1h1Z"/><path fill="#09858C" id="VISl6b" d="M91 101v1c1.577 0 2-1.762 2-3-1.747 0-2 .253-2 2Z"/><path fill="#15B0B3" id="TEa1" d="m37 131-6 2c0-8.565 5.376-17.252 9-24.5.711-1.423 3.09-7.5 5-7.5v9c-1.85 0-8 17.925-8 21Z"/><path fill="#0C858B" id="VISpor6a" d="M57 141h2l5-3 1-1c0-9.867 11.804-18.108 16-26.5l9-9.5H78c0 1.567-12.34 17.179-14 20.5l-5 10v4c-.452.905-1.082 4.5-2 4.5v1Z"/><path fill="#0C848C" id="VISpor6b" d="M65 137h2l3-8 1-1c0-2.987 7.241-13 10-13 0-4.989 10-8.566 10-13v-1h-1l-9 9.5c-4.196 8.392-16 16.633-16 26.5ZM389 137h2c0-9.688-9.947-16.393-14-24.5-2.253-4.505-10-7.45-10-11.5h-2c0 5.575 21 19.632 21 28 2.16 0 3 6.07 3 8Z"/><path fill="#0C858B" id="VISpor6a" d="M398 141h1c0-10.446-7.596-20.692-12-29.5-1.848-3.697-8-6.119-8-10.5h-1c0 .237-8.784 0-11 0 0 4.05 7.747 6.995 10 11.5 4.053 8.107 14 14.812 14 24.5l7 4Z"/><path fill="#15B0B3" id="TEa1" d="M419 131c2.72 0 3.553 2 6 2 0-8.036-3.923-20.423-9.5-26l-3.5-6c0 2.151-.506 7-1 7l1 2c0 4.516 7 13.152 7 21Z"/><path fill="#C9C8C8" id="bic" d="M139 114c0 3.831-2.312 10.124-4 13.5-1.182 2.364 1 5.696 1 7.5 1.574 0 2.624 2.252 4-.5v-12c2.439-4.879 6.476-8.951 9-14 2.008-4.016-2.257-3.5-4-3.5 0 1.156-4.801 9-6 9ZM312 106l-4-1.5c-2.17 4.34 5.272 10.545 7 14 2.438 4.876-.362 12.276 2 17l4-.5c0-7.859-.769-15.038-4-21.5l-5-7.5Z"/><path fill="#C8CBCC" id="ec" d="m81 115-2 5 10-10 1-2v-1c-3.746 0-5.676 8-9 8Z"/><path fill="#7DCD4B" id="HPF" d="m91 107-1 1v-1h1ZM366 112l4.5 3 7.5 8.5c.801 1.601 6.271 13.5 7 13.5 0-8.772-7.935-17.435-13.5-23l-6.5-7c0 1.832 5.373 5 1 5Z"/><path fill="#C7C8CC" id="alv" d="M90 112c0 3.196-9 5.436-9 10 1.18 0 12.17-7.835 14.5-9 1.66-.83 13.5-1.494 13.5-3l-1-1H96.5l-6.5 3Z"/><path fill="#59B847" id="PRE" d="M107 209h7c0-2.302 6.064-23.782 6.5-24l3.5-6v-3c0-1.321-.684-6 1-6v-3l1-1c0-12.964 3.475-30.449 9-41.5.947-1.893 1.016-10.5 4-10.5l1-4-24-1-1 1c0 5.991-5.414 13.328-8 18.5-4.674 9.348-3.343 21.686-8 31-5.005 10.01 8 38.039 8 49.5ZM349 208v1c-2.153 0-4.722-1-7-1 0-1.961-4.137-20.775-5-22.5l-4-5c-.619-1.238 1.144-5.5-1-5.5v-1c0-1.235.643-5-1-5v-4l-1-1c0-7.848-3.858-31.216-7-37.5-2.098-4.196-6-11.775-6-16.5l23-1 1 2 8 16.5c4.541 9.081 3.484 20.969 8 30 5.453 10.905-8 39.952-8 50.5Z"/><path fill="#C7C8CC" id="alv" d="M385 137v3l-3-6.5c-2.348-4.696-5.8-12.65-11.5-15.5-4.621-2.31-9.502-3.751-14-6-1.359-.679-9.5-.436-9.5-2l2-1h11.5l5.5 3 4.5 3 7.5 8.5c.801 1.601 6.271 13.5 7 13.5Z"/><path fill="#16AFB3" id="TEa2/3" d="M46 129c-3.68 0-5.511 2-9 2 0-3.075 6.15-21 8-21 0 3.735 2 5.734 2 9.5 0 .507-2.626 3.5 0 3.5v4l-1 2Z"/><path fill="#7DCD4B" id="HPF" d="M72 135h1l2-4c0-1.465-.109-4 2-4 0-1.562 2.189-5 4-5 0-4.564 9-6.804 9-10l-1-2-10 10-1 1c0 1.429-1.288 4-3 4 0 3.541-3 6.145-3 10Z"/><path fill="#4FC244" id="SUB" d="M91 210c2.98 0 6.23 2 10 2l6-3c0-11.461-13.005-39.49-8-49.5 4.657-9.314 3.326-21.652 8-31 2.586-5.172 8-12.509 8-18.5h-6c0 1.506-11.84 2.17-13.5 3-2.33 1.165-13.32 9-14.5 9 0 1.562-2.189 5-4 5l-2 4c0 1.465.109 4-2 4 0 1.593-.337 7-2 7v1c0 16.377-1.115 30.269 6 44.5 1.868 3.736 14 20.077 14 22.5ZM365 210c-2.755 0-5.553 2-9 2-2.584 0-5.699-4-7-4 0-10.548 13.453-39.595 8-50.5-4.516-9.031-3.459-20.919-8-30l-8-16.5c1.564 0 3.876-1 6-1 0 1.564 8.141 1.321 9.5 2 4.498 2.249 9.379 3.69 14 6 5.7 2.85 9.152 10.804 11.5 15.5l3 6.5v33c-1.616 0-4 9.991-4 12l-4 8c-1.577 0-2 1.762-2 3-1.577 0-2 1.762-2 3l-1 2-1 1v1l-1 1-1 1v1l-1 1-3 3Z"/><path fill="#16AFB3" id="TEa2/3" d="m410 129 9 2c0-7.848-7-16.484-7-21-2.043 0 0 .962 0 1.5l-2 3V129Z"/><path fill="#A9A9A8" id="AQ" d="m227 123 2 1 4-6.5c0-5.572-6.872-4.255-9 0l3 5.5Z"/><path fill="#FE79FE" id="ICe" d="M156 126c0 1.991 1.195 6-3 6h-9.5c-8.149-4.075 3.836-25.828 9.5-14.5.809 1.619 2 1.471 2 3.5l1 5ZM300 126c0 1.999.067 6 3 6 3.819 0 8.312.594 11.5-1 3.03-1.515-2.458-19.771-8-17l-5 6-1.5 6Z"/><path fill="#CBC9C7" id="or" d="M75 125c-2.35 0-1.382 3-4 3 0-2.987 7.241-13 10-13l-2 5-1 1c-1.712 0-3 2.571-3 4Z"/><path fill="#FF64FF" id="MB" d="M181 122c0 .005 10.993 5 12 5v-7l-2-1c-3.947 0-6.628 3-10 3ZM276 122c0 2.064-3.353.426-4.5 1l-8.5 4 1-7 2-1c3.647 0 6.586 3 10 3Z"/><path fill="#C8CBCC" id="ec" d="m79 120-1 1 1-1ZM78 121c-1.712 0-3 2.571-3 4 1.712 0 3-2.571 3-4Z"/><path fill="#FF8FFD" id="MRN" fill-rule="evenodd" d="M201 174c0 3.328 6 3.785 6 .5l-6-.5m-17 13c4.484 0 13.043-4.728 18.5-2l2.5 2 2-2c0-5.92 1.509-13.519 4-18.5.677-1.353 6-4.39 6-1.5 2.314 0 3-4.262 3-6 0-2.079-3-3.187-3-6-1.797 0-4-2.203-4-4h-1l-2-1c-5.094 0-17-16.815-17-21-1.007 0-12-4.995-12-5h-3l-1-1h-11.5l-6 2-3.5 3c0 1.991 1.195 6-3 6v11.5l2 3.5c4.85 0 7 10.041 7 12 0 2.643 3.108 7 6 7l8.5-1c2.638 1.319 14.618 8.264 12.5 12.5l-6 8.5 1 1Z"/><path fill="#FF64FF" id="MB" d="m177 121 1 1-1-1Z"/><path fill="#FF8FFD" id="MRN" fill-rule="evenodd" d="M250 174c0 5.31 9.792 0 0 0m1 13c4.23 0 12.235-4.632 17.5-2l4.5 2v-1l-5-7.5c-2.858-5.717 9.243-11.871 12.5-13.5l8.5 2 6-7-1-4.5c.995-1.991 8-8.515 8-9.5l2-6.5c.208-.416-1-6.086-1-7.5-2.933 0-3-4.001-3-6l-3.5-3-6-2H281l-5 1c0 2.064-3.353.426-4.5 1l-8.5 4c0 5.074-11.442 21-17 21l-1 1h-1l-4 4c0 2.773-4 3.67-4 6l3 6 4.5-1c3.091 1.546 5.5 16.907 5.5 21l2 2Z"/><path fill="#C7C8CC" id="alv" d="M81 122c-1.811 0-4 3.438-4 5 1.811 0 4-3.438 4-5Z"/><path fill="#FF64FF" id="MB" fill-rule="evenodd" d="m218 149-1 2.5c3.284 6.569 8.695-2.5 1-2.5m7 14h7c0-9.569 7-7.124 7-10l-4.5 1c-2.211-1.105 4.5-10.33 4.5-1h1l4-4c-4.647 0-13-5.508-13-10v-4c0-2.203.896-11-2-11l-2-1c0 3.202.557 15.385-1 18.5-1.673 3.346-4.148 2.324-6.5 3.5-2.337 1.169-3.673 4-6.5 4 0 1.797 2.203 4 4 4 4.568 0 8 5.97 8 10Z"/><path fill="#C8CBCC" id="ec" d="M70 175h1c0-7.697-4.852-17.796-1-25.5.662-1.324-1.207-6.5 1-6.5v-1l1-7c0-3.855 3-6.459 3-10-2.35 0-1.382 3-4 3l-1 1-3 8c0 5.255-3.68 16.141-1 21.5.946 1.892 4 14.732 4 16.5Z"/><path fill="#15B0B2" id="TEa4" d="M409 129h1v-4h-1v4ZM46 129h1v-2l-1 2Z"/><path fill="#C7C8CC" id="alv" d="M77 127c-2.109 0-2 2.535-2 4l2-4Z"/><path fill="#0A8389" id="VISpor2/3" d="M48 132h1v-4l-1 1v3Z"/><path fill="#CBC9C7" id="or" d="m71 128-1 1 1-1Z"/><path fill="#0A8389" id="VISpor2/3" d="m409 129-1 2-1-3 2 1Z"/><path fill="#0D9F91" id="ECT2/3" d="M37 142h1l5.5-3 4.5 1v-11h-2c-3.68 0-5.511 2-9 2v11ZM409 140l4.5-1c1.873.936 3.23 3 5.5 3v-11l-9-2h-1l-1 2v2l1 7Z"/><path fill="#0D9F90" id="ECT1" d="M37 142c0 .966-2.886 3-4 3-2.627 0-2-9.736-2-12l6-2v11Z"/><path fill="#C7C8CC" id="alv" d="m75 131-2 4c2.109 0 2-2.535 2-4Z"/><path fill="#0D9F90" id="ECT1" d="M419 143c1.114 0 4 2.034 4 3 3.056 0 2-10.618 2-13-2.447 0-3.28-2-6-2v12Z"/><path fill="#0D9E90" id="ECT5" d="M48 140h9c0-2.585-8-4.526-8-8h-1v8ZM408 140h1l-1-7-7 6c.888 0 7-.425 7 1Z"/><path fill="#C7C8CC" id="alv" d="M73 135c0 1.593-.337 7-2 7l1-7h1Z"/><path fill="#FD90FC" id="Su3" d="m220 135-2.5 2c-1.529.765-15.459 6.271-8 10 2.384 1.192 26.185-12 10.5-12ZM231 135c3.996 0 25.522 6.989 15.5 12-4.343 2.171-11.436-8-15.5-8v-4Z"/><path fill="#0C848C" id="VISpor6b" d="m65 137-1 1 1-1Z"/><path fill="#32B824" id="ENTl6a" d="M90 210c0 3.571-5 5.945-5 9-3.497 0-10.732-10.964-12-13.5-1.005-2.01-4.647-4.293-6-7-3.195-6.391-4.8-13.601-8-20V141l5-3 1-1h2c0 5.255-3.68 16.141-1 21.5.946 1.892 4 14.732 4 16.5 0 2.512 4.039 15 7 15v1l1 1 12 18ZM371 219h1l11.5-13c16.48-16.48 14.5-41.571 14.5-65l-7-4h-2c0 6.005 4.061 19.379 1 25.5-1.369 2.738-4 10.681-4 13.5l-1 2c0 1.424-.362 5-2 5 0 1.465.109 4-2 4v1l-1 1v1l-1 1-2 2c0 1.238-.423 3-2 3 0 1.238-.423 3-2 3l-1 2-1 1v1l-1 1-1 1v1l-1 1c0 1.238-.423 3-2 3l5 9Z"/><path fill="#0E9583" id="PERI2/3" d="M40 151h1l7-3 1-1-1-7-4.5-1-5.5 3c0 3.157 2 5.481 2 9Z"/><path fill="#0F9684" id="PERI5" d="m53 145-4 2-1-7h9v1l-3 3-1 1Z"/><path fill="#0D9E90" id="ECT5" d="m401 139-1 1 1-1Z"/><path fill="#0F9684" id="PERI5" d="m403 145 4 2 1-7c0-1.425-6.112-1-7-1l-1 1-1 1 4 4Z"/><path fill="#0E9583" id="PERI2/3" d="m409 149 7 2c0-1.4 1.431-8 3-8v-1c-2.27 0-3.627-2.064-5.5-3l-4.5 1h-1l-1 7 2 2Z"/><path fill="#31B824" id="ENTl5" d="m85 220-4 5c-5.458 0-12.733-8.965-15-13.5-2.379-4.757-6.657-8.315-9-13l-6-18c-1.259-2.518 2-29.611 2-35.5l1-1 3-3h2v37.5c3.2 6.399 4.805 13.609 8 20 1.353 2.707 4.995 4.99 6 7 1.268 2.536 8.503 13.5 12 13.5v1Z"/><path fill="#C7C8CC" id="alv" d="M385 141c2.064 0 .426 3.353 1 4.5 2.274 4.548 2.274 18.452 0 23-.574 1.147 1.064 4.5-1 4.5v-32Z"/><path fill="#31B824" id="ENTl5" d="m372 219 3 7c5.607 0 8.57-9.035 12.5-11 4.053-2.027 7.453-9.406 9.5-13.5 12.129-24.258 6-30.775 6-56.5l-4-4h-1c0 23.429 1.98 48.52-14.5 65L372 219Z"/><path fill="#0E9584" id="PERI1" d="m40 151-4 4c0-4.048-3-6.597-3-10 1.114 0 4-2.034 4-3h1c0 3.157 2 5.481 2 9Z"/><path fill="#C7C8CC" id="alv" d="M90 210h1c0-2.423-12.132-18.764-14-22.5-7.115-14.231-6-28.123-6-44.5-2.207 0-.338 5.176-1 6.5-3.852 7.704 1 17.803 1 25.5 0 5.201 6 10.158 6 15v1l1 1 12 18Z"/><path fill="#0E9584" id="PERI1" d="M416 152c1.947 0 2.636 3 5 3 0-3.423 2-6.474 2-9 0-.966-2.886-3-4-3-1.569 0-3 6.6-3 8v1Z"/><path fill="#32B725" id="ENTl3" d="m54 144-1 1 1-1ZM81 227l-3 5c-2.894 0-17.42-13.341-19-16.5l-14-28c-3.176-6.352 3-31.958 3-39.5l1-1 4-2c0 5.889-3.259 32.982-2 35.5l6 18c2.343 4.685 6.621 8.243 9 13 2.267 4.535 9.542 13.5 15 13.5v2ZM375 227l3 5c2.151 0 15.911-11.321 17-13.5 2.059-4.118 5.974-6.948 8-11l8-19c3.649-7.298-2-30.146-2-39.5l-2-2-4-2c0 25.725 6.129 32.242-6 56.5-2.047 4.094-5.447 11.473-9.5 13.5-3.93 1.965-6.893 11-12.5 11v1Z"/><path fill="#FF7AFE" id="SAG" d="M147 157c1.32 0 6.994 3.247 8.5 4 2.555 1.278 4.516-2 6.5-2 0-1.959-2.15-12-7-12-3.903 0-9-1.96-9 5v2l1 2v1ZM309 157l-7.5 4-6.5-1-1-4.5c.995-1.991 8-8.515 8-9.5 5.412 0 8.941 5 9 5v1c-1.473 0-1 1.952-1 3l-1 2Z"/><path fill="#32B825" id="ENTl2" d="M75 237h1l2-4v-1c-2.894 0-17.42-13.341-19-16.5l-14-28c-3.176-6.352 3-31.958 3-39.5l-7 3c0 2.068-5.012 24.524-6 26.5-1.255 2.51 2.808 13.617 4 16 1.165 2.329.853 5.706 2 8 7.415 14.829 10.585 23.543 26.5 31.5 2.668 1.334 4.276 4 7.5 4Z"/><path fill="#FF79FD" id="PBG" d="M147 156v1c0 16.662-14.668-4.416-5.5-9l4.5 4v2l1 2Z"/><path fill="#FF64FF" id="MB" d="m210 148 2 1-2-1ZM246 148l-1 1 1-1Z"/><path fill="#FF79FD" id="PBG" d="m310 155-1 2c0 15.705 15.931-4.284 6.5-9l-4.5 3v1c0 1.048.473 3-1 3Z"/><path fill="#FE90FF" id="III" d="m218 149-1 2.5c3.284 6.569 8.695-2.5 1-2.5ZM239 153c0-9.33-6.711-.105-4.5 1l4.5-1Z"/><path fill="#32B825" id="ENTl2" d="m378 233 3 4c3.455 0 5.656-2.578 8.5-4 13.826-6.913 19.12-17.74 25.5-30.5 1.617-3.234 1.372-7.744 3-11 1.894-3.788 5.459-15.082 3-20-2.523-5.045-5-13.653-5-19.5v-1l-7-2c0 9.354 5.649 32.202 2 39.5l-8 19c-2.026 4.052-5.941 6.882-8 11-1.089 2.179-14.849 13.5-17 13.5v1Z"/><path fill="#32B722" id="ENTl1" d="m75 237-1 4c-3.252 0-7.595-4.547-10.5-6-18.167-9.083-22.417-25.334-30.5-41.5-2.206-4.412-.79-10.58-3-15-3.076-6.153 6-18.255 6-23.5l4-4h1c0 2.068-5.012 24.524-6 26.5-1.255 2.51 2.808 13.617 4 16 1.165 2.329.853 5.706 2 8 7.415 14.829 10.585 23.543 26.5 31.5 2.668 1.334 4.276 4 7.5 4Z"/><path fill="#FF64FF" id="MB" d="M311 152c-1.473 0-1 1.952-1 3 1.473 0 1-1.952 1-3Z"/><path fill="#32B722" id="ENTl1" d="M381 238c0 1.481 2 .785 2 3l13.5-8c15.371-7.686 19.603-24.706 26.5-38.5 1.786-3.572 1.199-8.398 3-12 4.589-9.177-5-19.676-5-27.5-2.364 0-3.053-3-5-3 0 5.847 2.477 14.455 5 19.5 2.459 4.918-1.106 16.212-3 20-1.628 3.256-1.383 7.766-3 11-6.38 12.76-11.674 23.587-25.5 30.5-2.844 1.422-5.045 4-8.5 4v1Z"/><path fill="#CBCBCC" id="mlf" d="m224 164-1 1-3-6c0-2.079-3-3.187-3-6 4.568 0 8 5.97 8 10l-1 1ZM234 165h1c0-1.321-.684-6 1-6 0-2.33 4-3.227 4-6h-1c0 2.876-7 .431-7 10l2 2Z"/><path fill="#FF64FF" id="MB" d="m146 154 1 2-1-2ZM310 155l-1 2 1-2ZM243 190h1c0-9.127-5-18.904-5-25l-3-6c-1.684 0-1 4.679-1 6 3.813 0 4 6.271 4 9.5l-.5 4.5-.5-3.5-1-3.5-4 2c0 3.138 4.096 8.309 2 12.5-1.988 3.975-12.037 3.925-14 0-2.426-4.852 3-10.235 3-12.5-2.061 0-4-.902-4-3-2.162 0 .179 9.34-2.5 8-4.193-2.097 3.5-18.127 3.5-12l2-2-3-6c0 1.738-.686 6-3 6 0 8.047-5 16.373-5 25h3c0-3.184 4-5.352 4-1 3.313 0 7.555 5.472 10.5 4 2.942-1.471 3.849-4 7.5-4 0-3.968 5-3.537 5 1h1ZM225 163l-1 1 1-1Z"/><path fill="#FFA4FF" id="CLI" d="m237 172-4 2-4-2c0-1.399-2-1.399-2 0l-3 2c-2.061 0-4-.902-4-3v-2l1-1v-1l2-2 1-1 1-1h7l2 2 1 1v1l1 1 1 4Z"/><path fill="#C8C8CC" id="tspc" d="m211 203-1 2c-4.721 0-3-12.224-3-16v-4c0-5.92 1.509-13.519 4-18.5.677-1.353 6-4.39 6-1.5 0 8.047-5 16.373-5 25v5l-1 1v7ZM246 205h1c3.166 0 3-12.639 3-16l-1-4c0-4.093-2.409-19.454-5.5-21l-4.5 1c0 6.096 5 15.873 5 25v3l1 1 1 11Z"/><path fill="#72D568" id="PAR" d="m330 164 1 1-1-1Z"/><path fill="#FFA5FD" id="PPN" d="M178 189h1l2-1 1-1h1v-1l6-8.5c2.118-4.236-9.862-11.181-12.5-12.5l-8.5 1c0 1.696-7.752 6.005-9 8.5-2.159 4.317 1.806 12.653 5.5 14.5H178Z"/><path fill="#C8C8C8" id="mtg" d="M220 169v2c-2.162 0 .179 9.34-2.5 8-4.193-2.097 3.5-18.127 3.5-12v1l-1 1Z"/><path fill="#FF64FF" id="MB" d="M235 165v1l-1-1h1Z"/><path fill="#C8C8C8" id="mtg" d="m236 168 1 4 1 3.5.5 3.5.5-4.5c0-3.229-.187-9.5-4-9.5v2l1 1Z"/><path fill="#FFA5FD" id="PPN" d="M279 189h13.5c7.978-3.989 5.664-22-3.5-22l-8.5-2c-3.257 1.629-15.358 7.783-12.5 13.5l5 7.5 2 2h1l1 1h2Z"/><path fill="#72D568" id="PAR" d="m126 166-1 1 1-1Z"/><path fill="#FF64FF" id="MB" d="m235 167 1 1-1-1ZM221 168l-1 1 1-1Z"/><path fill="#72D568" id="PAR" d="M331 169c1.643 0 1 3.765 1 5-1.643 0-1-3.765-1-5ZM125 170c-1.684 0-1 4.679-1 6 1.684 0 1-4.679 1-6Z"/><path fill="#FF64FF" id="MB" d="M227 172h2c0-1.399-2-1.399-2 0Z"/><path fill="#CCC7CC" id="dscp" d="M224 174c0 2.265-5.426 7.648-3 12.5 1.963 3.925 12.012 3.975 14 0 2.096-4.191-2-9.362-2-12.5l-4-2h-2l-3 2Z"/><path fill="#C7C8CC" id="alv" d="m383 183-2 2c0-2.009 2.384-12 4-12v5c-1.638 0-2 3.576-2 5Z"/><path fill="#CBC9CB" id="scp" d="M201 174c0 3.328 6 3.785 6 .5l-6-.5ZM250 174c0 5.31 9.792 0 0 0Z"/><path fill="#7DCD4B" id="HPF" d="M71 175c0 5.201 6 10.158 6 15-2.961 0-7-12.488-7-15h1Z"/><path fill="#72D568" id="PAR" d="M337 211h2l3-2v-1c0-1.961-4.137-20.775-5-22.5l-4-5c-.619-1.238 1.144-5.5-1-5.5 0 1.91 2.876 29.252 3 29.5l2 6.5Z"/><path fill="#7DCD4B" id="HPF" d="m386 176-1 2v-2h1ZM385 178c-1.638 0-2 3.576-2 5 1.638 0 2-3.576 2-5Z"/><path fill="#72D568" id="PAR" d="m117 210 2 1c1.306 0 2-6.069 2-7.5l3-24.5-3.5 6c-.436.218-6.5 21.698-6.5 24l3 1Z"/><path fill="#C9C9CB" id="ll" d="M154 229h1v-3l-1-1v-1l-1-1c0-9.704-14.426-11.648-8-24.5 1.238-2.475 1.863-6.5 5.5-6.5 2.29 0 4.521 4 6.5 4v-1c0-4.344-6.157-13.828-10.5-16-1.929-.965-1.915 4-3.5 4 0 7.669-.875 12.25-4 18.5l1 6.5 1.5 3c2.129 1.064 9.5 8.518 9.5 12v1l3 4v1ZM301 229h1l1-1v-1l1-1 1-1v-1l1-1c0-5.225 6.806-8.111 9-12.5l2-3.5c0-9.388-4-16.129-4-26l-2.5-2-7.5 7.5-4 7.5v3l6.5-5c4.598-2.299 9.276 11.948 7.5 15.5-1.914 3.828-8 8.076-8 12.5l-1 1-1 3-1 1v1l-1 1v2Z"/><path fill="#7DCD4B" id="HPF" d="M381 185v2c2.109 0 2-2.535 2-4l-2 2Z"/><path fill="#FFC295" id="PRNr" d="M175 235c.995 0 5.918 14 14 14 0-7.14 15.204-21 22-21l1-1h1v-10l-1-1v-4l-1-1v-3c-1.473 0-1-1.952-1-3-4.721 0-3-12.224-3-16l-2-2-2.5-2c-5.457-2.728-14.016 2-18.5 2h-2l-1 1-2 1h-1l-2 1-5 3.5c-.929 1.858 0 1.893 0 3.5 3.71 0 2.977 8.547 2 10.5l-2 1.5c0 2.824-2.616 8.268-1 11.5l3 9.5v1l1 1v1l1 1v1Z"/><path fill="#FF64FF" id="MB" d="m205 187 2 2v-4l-2 2ZM251 187l-1 2-1-4 2 2Z"/><path fill="#FFC295" id="PRNr" d="m279 240-7.5 9-4.5-1c0-6.746-17.081-21-23-21 0-1.819-1-4.591-1-7v-1l1-2v-2l1-1 1-7 1-2c3.166 0 3-12.639 3-16l1-2c4.23 0 12.235-4.632 17.5-2l4.5 2 2 1h1l1 1h2l1 1h1c0 1.843 5 2.864 5 7-4.386 0-4.386 12 0 12l1 8.5c-1.481 2.963-2 5.891-2 9.5l-1 2-1 2v1l-1 1-1 2v1l-1 1v1l-1 2Z"/><path fill="#C7C8CC" id="alv" d="m379 191-2 2 4-8v3l-1 1v1l-1 1Z"/><path fill="#FF64FF" id="MB" d="M183 187h1l-1-1v1Z"/><path fill="#FD90FE" id="AT" d="M219 189c0 3.416-4 4.154-4 1 0-3.184 4-5.352 4-1ZM237 189c0 3.251 5 4.275 5 1 0-4.537-5-4.968-5-1Z"/><path fill="#FF64FF" id="MB" d="m273 187 2 1-2-2v1ZM182 187l-1 1 1-1ZM181 188l-2 1 2-1ZM276 188l1 1-1-1Z"/><path fill="#7DCD4B" id="HPF" d="m381 188-1 1 1-1Z"/><path fill="#FF9B88" id="P" d="m178 189-2 1v-1h2Z"/><path fill="#FFC393" id="CS" d="m236 229-5 1-2.5-11c-3.319 0 .278 10-3.5 10-2.124 0-4.436-1-6-1l-6-9v-2l-1-1v-4l-1-1v-15l1-1v-3l1-2h2c0 3.154 4 2.416 4-1 3.313 0 7.555 5.472 10.5 4 2.942-1.471 3.849-4 7.5-4 0 3.251 5 4.275 5 1h1l1 1v2l1 1 1 11v2l-1 7-1 1v2l-1 2v1l-6 8-1 1Z"/><path fill="#FF9B88" id="P" d="M280 189v1l-1-1h1ZM171 209c0 2.824-2.616 8.268-1 11.5l3 9.5-4-7.5c-2.763-5.527-11-18.688-11-24.5l-1-1v-2c4.891 0 12.445-5 19-5l-5 3.5c-.929 1.858 0 1.893 0 3.5-11.274 0-7.344 12 0 12ZM213 190l-1 2v-2h1ZM244 190v1l-1-1h1ZM286 209l1 8.5c-1.481 2.963-2 5.891-2 9.5l3-5.5c2.511-5.022 10-17.237 10-22.5l1-1v-4c-5.933 0-11.714-4-18-4 0 1.843 5 2.864 5 7 9.034 0 7.413 12 0 12Z"/><path fill="#7DCD4B" id="HPF" d="m380 190-1 1 1-1ZM77 191l1 1-1-1Z"/><path fill="#FFAC6F" id="NLL" d="M175 234v1l4 12c0 6.75.775 24.138-11.5 18-6.357-3.179-5.301-23.101-8.5-29.5-.821-1.642-1.379-8.5-4-8.5v-1l-1-1v-1l-1-1c0-9.704-14.426-11.648-8-24.5 1.238-2.475 1.863-6.5 5.5-6.5 2.29 0 4.521 4 6.5 4v1l1 1c0 5.812 8.237 18.973 11 24.5l4 7.5v1l1 1v1l1 1ZM280 238l-1 2-2 11.5 1 10c2.031 4.062 10.701 5.598 13 1 3.96-7.92 2.071-18.143 6-26 .807-1.615 1.736-9.5 4-9.5l1-1v-1l1-1 1-3 1-1c0-4.424 6.086-8.672 8-12.5 1.776-3.552-2.902-17.799-7.5-15.5l-6.5 5v1l-1 1c0 5.263-7.489 17.478-10 22.5l-3 5.5-1 2-1 2v1l-1 1-1 2v1l-1 1v1Z"/><path fill="#FF9B88" id="P" d="m244 193 1 1-1-1Z"/><path fill="#C7C8CC" id="alv" d="M377 193c-1.577 0-2 1.762-2 3 1.577 0 2-1.762 2-3Z"/><path fill="#FF9B88" id="P" d="m212 195-1 1 1-1Z"/><path fill="#C7C8CC" id="alv" d="M375 196c-1.577 0-2 1.762-2 3 1.577 0 2-1.762 2-3Z"/><path fill="#C9C9CB" id="ll" d="m157 197 1 1-1-1Z"/><path fill="#C8C8CB" id="rust" d="M171 197c3.71 0 2.977 8.547 2 10.5l-2 1.5c-7.344 0-11.274-12 0-12ZM286 197c9.034 0 7.413 12 0 12-4.386 0-4.386-12 0-12Z"/><path fill="#C9C9CB" id="ll" d="m299 198-1 1 1-1Z"/><path fill="#C7C8CC" id="alv" d="m373 199-1 2 1-2ZM372 201l-1 1 1-1Z"/><path fill="#FF9B88" id="P" d="M210 205c0 1.048-.473 3 1 3v-5l-1 2Z"/><path fill="#C7C8CC" id="alv" d="m371 203-1 1 1-1ZM370 204l-1 1 1-1Z"/><path fill="#FF9B88" id="P" d="m247 205-1 2v-2h1Z"/><path fill="#C7C8CC" id="alv" d="m369 206-1 1 1-1Z"/><path fill="#F0F080" id="CB" d="M140 208c-2.332 0-5 .555-5 5 1.657 0 5-3.452 5-5Z"/><path fill="#CCCCCA" id="mcp" d="M297 249c-1.925 0-1.048 14-.5 14 1.19 0 3.524-6 6.5-6 0-3.776 18-18.72 18-24 0-3.437 2-7.626 2-12v-2c-.913 0-2-5.014-2-6v-1c-2.681 0-4-2.595-4-5l-2 3.5c-2.194 4.389-9 7.275-9 12.5 3.899 0-2.562 9.624-3 10.5l-2 16c-1.159 2.318-4 2.067-4-.5Z"/><path fill="#F0F080" id="CB" d="M317 207c1.77 0 4 3.15 4 5-2.681 0-4-2.595-4-5Z"/><path fill="#C7C8CC" id="alv" d="M365 210h1c1.577 0 2-1.762 2-3l-3 3Z"/><path fill="#CCCCCA" id="mcp" d="M159 243c1.534 0 1 2.402 1 3.5 0 4.569 1 9.529 1 13.5l-.5 5c-.525 0-3.1-8-6.5-8-1.363 0-18-21.423-18-23 0-3.339-3-6.924-3-11 1.684 0 1-4.679 1-6 1.473 0 1-1.952 1-3v-1c1.657 0 5-3.452 5-5l1.5 3c2.129 1.064 9.5 8.518 9.5 12-1.709 0-2.715 3.07-2 4.5 1.451 2.903 3.602 5.204 5 8v10c3.743 7.486 5 5.434 5-2.5Z"/><path fill="#31B723" id="ENTm3" d="M378 232v1c-8.297 0-13.91 6.295-22.5 2-7.195-3.598-7.609-13.718-10.5-19.5-.57-1.139-1.675-6.5-3-6.5v-1c2.278 0 4.847 1 7 1 0 7.392 5.578 27.961 17.5 22l8.5-4 3 5Z"/><path fill="#30B724" id="ENTm5" d="M375 226v1l-8.5 4c-11.922 5.961-17.5-14.608-17.5-22v-1c1.301 0 4.416 4 7 4 0 13.668 15 11.643 15 7h1l3 7ZM81 225v2c3.284 0 6.715 2.608 9.5 4 11.269 5.635 16.5-15.01 16.5-22l-6 3c0 16.165-11.16 8-16 8l-4 5Z"/><path fill="#31B723" id="ENTm3" d="M78 232v1c4.662 0 12.79 6.355 17.5 4 14.223-7.112 9.565-10.63 15.5-22.5.895-1.79 3-3.403 3-5.5h-7c0 6.99-5.231 27.635-16.5 22-2.785-1.392-6.216-4-9.5-4l-3 5Z"/><path fill="#30B824" id="ENTm2" d="m78 233-2 4c0 3.107 20.473 6.013 24.5 4 13.733-6.866 8.88-14.259 13.5-23.5l3-7.5-3-1c0 2.097-2.105 3.71-3 5.5-5.935 11.87-1.277 15.388-15.5 22.5-4.71 2.355-12.838-4-17.5-4ZM381 237v1c-3.423 0-5.68 1.59-8.5 3-7.908 3.954-16.628-.814-23-4-5.166-2.583-5.253-14.006-7.5-18.5-.716-1.433-.838-7.5-3-7.5l3-2c1.325 0 2.43 5.361 3 6.5 2.891 5.782 3.305 15.902 10.5 19.5 8.59 4.295 14.203-2 22.5-2l3 4Z"/><path fill="#32B623" id="ENTm6" d="M85 219v1c4.84 0 16 8.165 16-8-3.77 0-7.02-2-10-2h-1c0 3.571-5 5.945-5 9Z"/><path fill="#31B625" id="ENTm1" d="M75 237h1c0 3.107 20.473 6.013 24.5 4 13.733-6.866 8.88-14.259 13.5-23.5l3-7.5 2 1c0 15.492-6.869 29.184-20.5 36-1.324.662-4.206 1.897-6 1-3.627-1.813-8.383-1.192-12-3l-6.5-4 1-4Z"/><path fill="#32B623" id="ENTm6" d="M356 212c0 13.668 15 11.643 15 7l-5-9h-1c-2.755 0-5.553 2-9 2Z"/><path fill="#FF9B88" id="P" d="m211 211 1 1-1-1Z"/><path fill="#31B625" id="ENTm1" d="M381 238c0 1.481 2 .785 2 3-.966 0-16.656 6.078-18.5 7-1.927.964-5.545-.272-7-1-16.569-8.284-10.047-8.594-16.5-21.5-2.087-4.174-4-9.559-4-14.5h2c2.162 0 2.284 6.067 3 7.5 2.247 4.494 2.334 15.917 7.5 18.5 6.372 3.186 15.092 7.954 23 4 2.82-1.41 5.077-3 8.5-3Z"/><path fill="#F0F080" id="CB" d="M321 213c1.995 0 2 4.377 2 6-.913 0-2-5.014-2-6ZM135 214c-1.473 0-1 1.952-1 3 1.473 0 1-1.952 1-3Z"/><path fill="#FF9B88" id="P" d="m245 214-1 1 1-1ZM212 216l1 1-1-1Z"/><path fill="#F0F080" id="CB" d="M134 217c-1.684 0-1 4.679-1 6 1.684 0 1-4.679 1-6Z"/><path fill="#FF9B88" id="P" d="m244 217-1 2 1-2ZM213 227c2.124 0 4.436 1 6 1l-6-9v8Z"/><path fill="#FF9B88" id="P" d="M151 263c2.756 0 25.058 17.279 30.5 20 7.467 3.734 39.031-.515 46-4 1.526-.763 13.137 2.068 15 3h6c9.495 4.747 21.81 3.595 31-1 6.568-3.284 16.768-10.036 19.5-15.5.702-1.404 6-.582 6-2.5 0-2.439-2-2.666-2-6-2.976 0-5.31 6-6.5 6-.548 0-1.425-14 .5-14v-6l1-5 1-1v-3l1-1v-1l1-1v-4c-2.264 0-3.193 7.885-4 9.5-3.929 7.857-2.04 18.08-6 26-2.299 4.598-10.969 3.062-13-1l-1-10 2-11.5-7.5 9-4.5-1c0 14.167 2.906 21-14 21 0 2.898 5 1.109 5 3.5 0 2.44-10.332 4.584-12.5 3.5-6.565-3.283-15.5-8.512-15.5-17l-1-14.5c1.515-3.03 2-11.226 2-14.5l-2.5-11c-3.319 0 .278 10-3.5 10 0 7.242 2 14.86 2 22.5 0 1.448.725 7.5-1 7.5 0 9.382-8.639 13.569-15.5 17-2.168 1.084-12.5-1.06-12.5-3.5 0-1.762 5-.502 5-3.5-15.456 0-14-5.996-14-20-8.082 0-13.005-14-14-14l4 12c0 6.75.775 24.138-11.5 18-6.357-3.179-5.301-23.101-8.5-29.5-.821-1.642-1.379-8.5-4-8.5v3l1 1v1l1 1v3l1 1v1l1 1v4c1.534 0 1 2.402 1 3.5 0 4.569 1 9.529 1 13.5l-.5 5c-.525 0-3.1-8-6.5-8l-3 6Z"/><path fill="#FF9B88" id="P" d="m244 227-7 1 6-8c0 2.409 1 5.181 1 7ZM305 220l-1 1 1-1Z"/><path fill="#F0F080" id="CB" d="M330 231c-3.618 0-6.154 2-9 2 0-3.437 2-7.626 2-12 1.149 0 1.508 4.516 2 5.5l5 4.5ZM127 231c4.915 0 6.64 3 9 3 0-3.339-3-6.924-3-11-1.183 0-1.535 3.57-2 4.5l-4 3.5Z"/><path fill="#CCCBCA" id="moV" d="M159 242v1c0 7.934-1.257 9.986-5 2.5v-10c-1.398-2.796-3.549-5.097-5-8-.715-1.43.291-4.5 2-4.5v1l3 4v1l1 1v1l2 4v2c0 1.041.986 5 2 5Z"/><path fill="#FF9B88" id="P" d="m153 223 1 1-1-1Z"/><path fill="#CCCCCA" id="mcp" d="m306 223-1 1 1-1Z"/><path fill="#CCCBCA" id="moV" d="M297 243v6c0 2.567 2.841 2.818 4 .5l2-16c.438-.876 6.899-10.5 3-10.5l-1 1v1l-1 1-1 1v1l-1 1-1 2v1l-1 2c0 1.048.473 3-1 3v1c0 1.424-.362 5-2 5Z"/><path fill="#CCCCCA" id="mcp" d="m151 224 3 4-3-4Z"/><path fill="#FF9B88" id="P" d="m303 224-1 1 1-1ZM154 225l1 1-1-1Z"/><path fill="#CCCCCA" id="mcp" d="m305 225-1 1 1-1Z"/><path fill="#FF9B88" id="P" d="m302 226-1 1 1-1Z"/><path fill="#CCCCCA" id="mcp" d="m304 226-1 1 1-1Z"/><path fill="#FF9B88" id="P" d="m212 227-1 1 1-1Z"/><path fill="#FEBA85" id="TRN" fill-rule="evenodd" d="m202 258-5 5.5c4.065 8.131 18.172-2.664 12.5-5.5-.298-.149-6.885 0-7.5 0m17-23-1 6.5c0 3.022 3.765 13.47 7 7 2.643-5.286-.941-13.5-6-13.5m7 24c-11.534 0-14.014 10-23 10-15.456 0-14-5.996-14-20 0-7.14 15.204-21 22-21l1-1h1c2.124 0 4.436 1 6 1s3.876 1 6 1c0 7.242 2 14.86 2 22.5 0 1.448.725 7.5-1 7.5ZM247 258l-1 3.5c3.092 6.184 16.262 6.524 13 0l-2-1c-.445-.891-2.106-2.5-3.5-2.5H247m-13-23-3 5.5c-2.118 4.235.941 10.779 5.5 8.5 5.623-2.811 2.686-14-2.5-14m-4 24c12.875 0 14.807 10 23 10 16.906 0 14-6.833 14-21 0-6.746-17.081-21-23-21l-7 1-1 1-5 1c0 3.274-.485 11.47-2 14.5l1 14.5Z"/><path fill="#FF9B88" id="P" d="m285 227-1 2 1-2ZM237 228l-1 1 1-1Z"/><path fill="#CCCCCA" id="mcp" d="m303 228-1 1 1-1ZM155 229v1l-1-1h1Z"/><path fill="#FF9B88" id="P" d="m284 229-1 2 1-2Z"/><path fill="#CCCCCA" id="mcp" d="m302 229-1 2v-2h1Z"/><path fill="#C9C9CB" id="ll" d="M155 231h1l-1-1v1Z"/><path fill="#F0F080" id="CB" d="m125 231-1 1 1-1Z"/><path fill="#CACACB" id="sV" d="m154 257-3 6-4.5 2c-7.009 3.505-22.436-4.372-25.5-10.5-1.763-3.526-2.84-22.5 3-22.5l1-1h2c4.915 0 6.64 3 9 3 0 1.577 16.637 23 18 23Z"/><path fill="#CCCCCA" id="mcp" d="M157 233v2l-2-4h1v1l1 1Z"/><path fill="#FF9B88" id="P" d="m173 231 1 1-1-1Z"/><path fill="#C9C9CB" id="ll" d="M300 232h1v-1l-1 1Z"/><path fill="#CACACB" id="sV" d="M303 257c0 3.334 2 3.561 2 6 2.592 0 3.416.958 5.5 2 7.478 3.739 22.231-4.962 25.5-11.5 2.548-5.096 2-22.5-6-22.5-3.618 0-6.154 2-9 2 0 5.28-18 20.224-18 24Z"/><path fill="#C9C9CB" id="ll" d="m156 232 1 1-1-1Z"/><path fill="#FF9B88" id="P" d="m283 232-1 1 1-1Z"/><path fill="#CCCCCA" id="mcp" d="M300 233v1l1-2h-1v1Z"/><path fill="#FF9B88" id="P" d="m174 233 1 1-1-1ZM282 233l-1 2 1-2Z"/><path fill="#C9C9CB" id="ll" d="M299 234h1v-1l-1 1Z"/><path fill="#CCCCCA" id="mcp" d="M300 234c0 1.048.473 3-1 3v-3h1Z"/><path fill="#CACCC8" id="ml" d="m219 235-1 6.5c0 3.022 3.765 13.47 7 7 2.643-5.286-.941-13.5-6-13.5ZM234 235l-3 5.5c-2.118 4.235.941 10.779 5.5 8.5 5.623-2.811 2.686-14-2.5-14Z"/><path fill="#C9C9CB" id="ll" d="M157 237h1l-1-1v1Z"/><path fill="#FF9B88" id="P" d="m281 236-1 1 1-1Z"/><path fill="#CCCCCA" id="mcp" d="M159 239v3c-1.014 0-2-3.959-2-5h1v1l1 1Z"/><path fill="#C9C9CB" id="ll" d="M298 238h1v-1l-1 1ZM158 238l1 1-1-1Z"/><path fill="#FF9B88" id="P" d="m280 238-1 2 1-2Z"/><path fill="#CCCCCA" id="mcp" d="M299 238c0 1.424-.362 5-2 5l1-5h1Z"/><path fill="#C8C7CC" id="cst" d="m202 258-5 5.5c4.065 8.131 18.172-2.664 12.5-5.5-.298-.149-6.885 0-7.5 0ZM247 258l-1 3.5c3.092 6.184 16.262 6.524 13 0l-2-1c-.445-.891-2.106-2.5-3.5-2.5H247Z"/><path fill="#FFB885" id="PG" d="M226 259c-11.534 0-14.014 10-23 10 0 2.998-5 1.738-5 3.5 0 2.44 10.332 4.584 12.5 3.5 6.861-3.431 15.5-7.618 15.5-17ZM230 259c12.875 0 14.807 10 23 10 0 2.898 5 1.109 5 3.5 0 2.44-10.332 4.584-12.5 3.5-6.565-3.283-15.5-8.512-15.5-17Z"/></svg>