<svg xmlns="http://www.w3.org/2000/svg" viewBox="0 0 456 320"><path fill="#1BA696" id="RSPagl1" d="M187 12c-5.482 0-10.049 3-16 3V9c5.671 0 9.206-2 15-2l1 5Z"/><path fill="#1BA598" id="RSPd1" d="m220 16-3 2c0-7.95-25.233-6-30-6l-1-5c7.094 0 34-1.113 34 9ZM237 16l2 2 6.5-5c7.11-3.555 17.015-1 24.5-1V7c-7.506 0-33-.95-33 9Z"/><path fill="#1BA696" id="RSPagl1" d="M270 12c5.02 0 9.599 3 15 3l1-6c-6.089 0-9.911-2-16-2v5Z"/><path fill="#09848B" id="VISam1" d="M152 19h1c5.455 0 12.374-4 18-4V9c-4.382 0-10.192 4-14.5 4-1.278 0-5.5-.665-5.5 1l1 5ZM285 15c6.197 0 12.933 4 19 4l1-5c0-2.144-4.262-.38-5.5-1-3.207-1.604-9.962-4-13.5-4l-1 6Z"/><path fill="#1BA697" id="RSPd2/3" d="m217 19-4 3c-1.32 0-6.994-3.247-8.5-4-4.531-2.265-13.118 1-17.5 1v-7c4.767 0 30-1.95 30 6v1ZM270 19c-4.382 0-12.969-3.265-17.5-1-1.798.9-7.829 4-9.5 4 0-.966-2.886-3-4-3v-1l6.5-5c7.11-3.555 17.015-1 24.5-1v7Z"/><path fill="#1AA496" id="RSPagl2/3" d="M173 22v2c4.794 0 8.117-4 13-4l1-1v-7c-5.482 0-10.049 3-16 3l2 7ZM284 23l-1 1c-4.595 0-8.045-4-13-4v-8c5.02 0 9.599 3 15 3l-1 8Z"/><path fill="#0A8589" id="VISpm1" d="M152 19c-6.151 0-11.206 5-17 5l-1-5c5.61 0 11.055-5 17-5l1 5ZM323 19l-2 5c-5.713 0-10.792-5-17-5l1-5c6.303 0 12.158 5 18 5Z"/><path fill="#0B848A" id="VISam2/3" d="M173 22c-6.65 0-13.035 6-20 6v-9c5.455 0 12.374-4 18-4l2 7ZM284 23c7.069 0 12.336 5 19 5 0-3.559 1-5.504 1-9-6.067 0-12.803-4-19-4l-1 8Z"/><path fill="#1BA597" id="RSPv1" d="m243 85-3 1-5-5.5-2.5-5.5-4-9-1.5 2c0 2.173-8.073 17-10 17l-1 1-2-1-1-1c0-.825 7.043-7.586 8-9.5 4.267-8.535 6.627-36.746 2-46-1.248-2.495-2.753-9.5-6-9.5v-1l3-2 3 4.5 2 4c5.948 11.897 7.639-8.5 12-8.5l2 2v1c-3.328 0-4.973 8.447-6 10.5-3.489 6.978-1.113 37.775 2 44l4 7 4 3.5v1Z"/><path fill="#1AA596" id="RSPd5" d="M204 31h1l8-8v-1c-1.32 0-6.994-3.247-8.5-4-4.531-2.265-13.118 1-17.5 1l-1 1c0 3.642-1 8.002-1 11l7.5-3c4.17-2.085 8.381 3 11.5 3ZM252 31c3.368 0 7.97-5.265 12.5-3l6.5 3-1-11v-1c-4.382 0-12.969-3.265-17.5-1-1.798.9-7.829 4-9.5 4v1c3.862 0 5.835 8 9 8Z"/><path fill="#098589" id="VISp1" d="m105 31 3 4c3.688 0 21.293-11 27-11l-1-5c-6.746 0-14.703 5.102-20.5 8-1.642.821-8.5 1.378-8.5 4Z"/><path fill="#08858B" id="VISpm2/3" d="M153 29c-5.505 0-9.992 4-15 4l-3-9c5.794 0 10.849-5 17-5h1v10Z"/><path fill="#1AA597" id="RSPv2/3" d="m210 81 3 3c0-.825 7.043-7.586 8-9.5 4.267-8.535 6.627-36.746 2-46-1.248-2.495-2.753-9.5-6-9.5l-4 3v1c4.626 0 6 10.039 6 14 0 10.905 2.937 23.627-2 33.5-1.225 2.45-4.006 10.5-7 10.5ZM247 81l-4 3-4-3.5-4-7c-3.113-6.225-5.489-37.022-2-44 1.027-2.053 2.672-10.5 6-10.5 1.114 0 4 2.034 4 3v1c-3.514 0-6 9.911-6 12.5 0 10.353-2.377 25.246 2 34 1.275 2.55 3.246 11.5 8 11.5Z"/><path fill="#08858B" id="VISpm2/3" d="M318 33h1c0-3.52 2-5.843 2-9-5.713 0-10.792-5-17-5 0 3.496-1 5.441-1 9v1c5.404 0 10.138 4 15 4Z"/><path fill="#098589" id="VISp1" d="M348 35h1l2-4c0-2.295-6.025-3.263-7.5-4-5.36-2.68-14.392-8-20.5-8l-2 5c6.567 0 23.544 11 27 11Z"/><path fill="#1CA697" id="RSPagl5" d="M185 32c-3.898 0-6.271 4-10 4 0-3.42-2-7.224-2-11v-1c4.794 0 8.117-4 13-4 0 3.642-1 8.002-1 11v1ZM271 31c3.468 0 7.132 5 11 5l1-11v-1c-4.595 0-8.045-4-13-4l1 11Z"/><path fill="#09858A" id="VISam4" d="m153 29 1 2c6.609 0 12.599-6 19-6v-3c-6.65 0-13.035 6-20 6v1Z"/><path fill="#1BA498" id="RSPv5" d="m207 79 3 2c2.994 0 5.775-8.05 7-10.5 4.937-9.873 2-22.595 2-33.5 0-3.961-1.374-14-6-14l-8 8c0 2.799 2.963 27.427 4 29.5 2.76 5.52-2 13.863-2 18.5ZM250 79l-3 2c-4.754 0-6.725-8.95-8-11.5-4.377-8.754-2-23.647-2-34 0-2.589 2.486-12.5 6-12.5 3.862 0 5.835 8 9 8v1c-2.845 0-2 8.344-2 10.5 0 9.392-3 17.357-3 26.5 0 1.853 1.318 9 3 9v1Z"/><path fill="#09858A" id="VISam4" d="M302 31h1v-3c-6.664 0-11.931-5-19-5l-1 1v1c6.699 0 12.208 6 19 6Z"/><path fill="#0A828C" id="VISp2/3" d="M112 43h1l5.5-3c5.375-2.687 13.27-7 19.5-7l-3-9c-5.707 0-23.312 11-27 11l4 8ZM343 43h1l4-8c-3.456 0-20.433-11-27-11 0 3.157-2 5.48-2 9l19 6.5c1.226 1.226 5 1.53 5 3.5Z"/><path fill="#0A848B" id="VISam5" d="M175 37c-6.369 0-11.331 4-18 4l-3-10c6.609 0 12.599-6 19-6 0 3.776 2 7.58 2 11v1ZM282 37c6.132 0 11.333 4 18 4l2-10c-6.792 0-12.301-6-19-6l-1 11v1Z"/><path fill="#1AA697" id="RSPd6a" d="M186 40c3.222 0 6.277 1 9 1 2.072 0 9-8.185 9-10-3.119 0-7.33-5.085-11.5-3l-7.5 3v9h1ZM261 41h2c0-1.735 6.51-1 8-1v-9l-6.5-3c-4.53-2.265-9.132 3-12.5 3v1l9 9Z"/><path fill="#09828B" id="VISpm4" d="M139 37h1c4.115 0 9.563-6 14-6l-1-2c-5.505 0-9.992 4-15 4l1 4ZM318 33l-1 4c-1.41 0-14-5.452-14-6v-2c5.404 0 10.138 4 15 4Z"/><path fill="#029FAB" id="VISrl1" d="M76 54h1l7.5-5c5.886-2.943 16.668-14 23.5-14l-3-4c-8.354 0-27.14 20-31 20l2 3Z"/><path fill="#088489" id="VISpm5" d="m157 41-15 4-2-8c4.115 0 9.563-6 14-6l3 10Z"/><path fill="#1AA498" id="RSPv6a" d="M206 79h1c0-4.637 4.76-12.98 2-18.5-1.037-2.073-4-26.701-4-29.5h-1c0 1.815-6.928 10-9 10v1c2.991 0 2 6.051 2 8 0 6.388 7 10.891 7 17 1.613 0 1.613 8 0 8l2 4Z"/><path fill="#1CA597" id="RSPagl6a" d="M279 44h1c0-.969 1.147-7 2-7v-1c-3.868 0-7.532-5-11-5v10c1.543 0 8 1.71 8 3Z"/><path fill="#088489" id="VISpm5" d="M314 45h1c0-3.303 2-5.115 2-8-1.41 0-14-5.452-14-6h-1l-2 10 14 4Z"/><path fill="#029FAB" id="VISrl1" d="M382 51c0 1.238-.423 3-2 3-3.609 0-24.955-19-31-19l2-4c8.101 0 18.234 10.867 24.5 14l6.5 6Z"/><path fill="#1CA597" id="RSPagl6a" d="M185 41c-3.238 0-5.3 3-8 3 0-2.16-2-4.167-2-7v-1c3.729 0 6.102-4 10-4v9Z"/><path fill="#1AA498" id="RSPv6a" d="M252 75c0 1.238-.423 3-2 3-1.682 0-3-7.147-3-9 0-9.143 3-17.108 3-26.5 0-2.156-.845-10.5 2-10.5l9 9v2c-2.991 0-2 6.051-2 8 0 6.07-7 10.313-7 16v8Z"/><path fill="#0B848B" id="VISp4" d="M114 47h1l5-2.5 19-7.5-1-4c-6.23 0-14.125 4.313-19.5 7l-5.5 3 1 4ZM341 47h1l1-4c0-1.97-3.774-2.274-5-3.5L319 33h-1l-1 4 19 7.5 5 2.5Z"/><path fill="#029EAC" id="VISrl2/3" d="M81 61h1l7.5-6c5.399-2.7 16.819-12 22.5-12l-4-8c-6.832 0-17.614 11.057-23.5 14L77 54c0 3.505 4 3.83 4 7ZM380 55l-5 6-7.5-6c-6.482-3.24-16.06-12-23.5-12l4-8h1c6.045 0 27.391 19 31 19v1Z"/><path fill="#088389" id="VISp5" d="M115 47c0 1.243 3.006 7 4 7 7.739 0 14.82-9 23-9l-2-8h-1l-19 7.5-5 2.5Z"/><path fill="#0A828B" id="VISam6a" d="M167 47c-3.222 0-6.277 1-9 1l-1-7c6.669 0 11.631-4 18-4 0 2.833 2 4.84 2 7l-1 1c-1.242 0-9 1.02-9 2ZM280 44c3.326 0 13.906 4 19 4 0-2.41 1-5.181 1-7-6.667 0-11.868-4-18-4-.853 0-2 6.031-2 7Z"/><path fill="#088389" id="VISp5" d="M337 55h1c0-3.239 3-4.575 3-8l-5-2.5-19-7.5c0 2.885-2 4.697-2 8 5.254 0 11.937 4.719 16.5 7l5.5 3Z"/><path fill="#1AA598" id="RSPagl6b" d="M185 41h1v-1h-1v1Z"/><path fill="#1BA698" id="RSPd6b" d="M194 42h1v-1c-2.723 0-5.778-1-9-1v1c2.707 0 5.903 1 8 1ZM263 41h8v-1c-1.49 0-8-.735-8 1Z"/><path fill="#09858B" id="VISpm6a" d="M153 49c-3.324 0-6.16 2-9 2l-2-6 15-4 1 7c-1.235 0-5-.643-5 1Z"/><path fill="#1AA598" id="RSPagl6b" d="M177 44v1l8-4c-3.238 0-5.3 3-8 3Z"/><path fill="#CACCC7" id="cing" d="M197 50c0 6.388 7 10.891 7 17-8.587 0-9.961-16.23-17.5-20-2.801-1.4-17.295 3-22.5 3-1.048 0-3 .473-3-1 1.623 0 6-.005 6-2 2.04 0 9 1.087 9-2h1l8-4h1c2.707 0 5.903 1 8 1 0 .64 2.856 8 3 8Z"/><path fill="#1BA698" id="RSPd6b" d="M261 42h1l1-1h-2v1Z"/><path fill="#CACCC7" id="cing" d="M259 51c0 6.07-7 10.313-7 16 9.085 0 9.207-15.353 16.5-19 6.595-3.297 15.849 2 23.5 2 1.048 0 3 .473 3-1-5.012 0-11.742-4-16-4l-8-4h-8l-1 1-1 1c0 1.552-.566 8-2 8Z"/><path fill="#1AA598" id="RSPagl6b" d="M279 44v1l-8-4c1.543 0 8 1.71 8 3Z"/><path fill="#09858B" id="VISpm6a" d="M312 51h1l1-6-14-4c0 1.819-1 4.59-1 7 4.824 0 8.915 3 13 3Z"/><path fill="#1AA497" id="RSPv6b" d="M195 42c2.991 0 2 6.051 2 8-.144 0-3-7.36-3-8h1ZM262 42l-1 1v-1h1Z"/><path fill="#019EAA" id="VISrl4" d="M82 61c0 1.429 1.288 4 3 4 7.52 0 18.056-18 29-18l-1-4h-1c-5.681 0-17.101 9.3-22.5 12L82 61Z"/><path fill="#1AA497" id="RSPv6b" d="M261 43c-2.991 0-2 6.051-2 8 1.434 0 2-6.448 2-8Z"/><path fill="#019EAA" id="VISrl4" d="m375 61-4 4c-4.986 0-19.085-18-29-18l1-4h1c7.44 0 17.018 8.76 23.5 12l7.5 6Z"/><path fill="#08838A" id="VISam6b" d="M176 45h1v-1l-1 1ZM295 49h4v-1c-5.094 0-15.674-4-19-4h-1v1c4.258 0 10.988 4 16 4Z"/><path fill="#08858C" id="VISp6a" d="M122 60h1l5.5-3c4.297-2.148 10.524-6 15.5-6l-2-6c-8.18 0-15.261 9-23 9v1l3 5Z"/><path fill="#08838A" id="VISam6b" d="M176 45c-1.242 0-9 1.02-9 2 2.04 0 9 1.087 9-2Z"/><path fill="#08858C" id="VISp6a" d="M337 55c0 2.364-3 3.053-3 5-6.709 0-13.826-9-21-9l1-6h1c5.254 0 11.937 4.719 16.5 7l5.5 3Z"/><path fill="#019DAB" id="VISrl5" d="m85 66 6 7c2.754 0 20.791-18 28-18v-1c-.994 0-4-5.757-4-7h-1c-10.944 0-21.48 18-29 18v1Z"/><path fill="#08838A" id="VISam6b" d="M158 49h3c1.623 0 6-.005 6-2-3.222 0-6.277 1-9 1v1Z"/><path fill="#C8C9CA" id="fp" d="m71 139-2 2c0-25.864 23.42-61.96 47.5-74 8.531-4.265 17.471-7.735 26-12 1.536-.768 11.5-1.451 11.5-3 1.06 0 10-1.223 10-2 5.205 0 19.699-4.4 22.5-3 7.539 3.77 8.913 20 17.5 20 1.613 0 1.613 8 0 8l-6 1 1-3.5c-3.888-7.776-19.092-13.796-26.5-17.5-2.468-1.234-11.5-.458-11.5 2-2.633 0-16-.974-16 2-1.623 0-6 .005-6 2l-2 1-2 1-2 1-2 1h-1l-1 1-2 1h-1c-1.238 0-3 .423-3 2l-2 1-1 1h-1l-1 1-1 1h-1l-1 1-2 1-1 1-1 1h-1l-1 1-1 1c-1.238 0-3 .423-3 2l-2 2-1 1-1 1-1 1-1 1-1 1-1 1-2 2c-1.577 0-2 1.762-2 3l-1 1-1 1c-1.577 0-2 1.762-2 3-1.577 0-2 1.762-2 3-1.577 0-2 1.762-2 3l-2 4-1 2-1 2-1 2-1 2c-1.638 0-2 3.576-2 5v1c-2.109 0-2 2.535-2 4-1.995 0-2 4.377-2 6-1.995 0-2 4.377-2 6ZM388 147h1c0-23.7-21.631-65.566-44.5-77l-28-14c-1.819-.91-13.5-2.142-13.5-4-1.116 0-11-1.234-11-2-7.651 0-16.905-5.297-23.5-2-7.293 3.647-7.415 19-16.5 19v8l6 1c0-9.537 17.275-16.888 25.5-21 1.964-.982 12.5-.536 12.5 2 4.659 0 25 1.722 25 6h1l3 2h1c1.238 0 3 .423 3 2h1c1.238 0 3 .423 3 2h1l2 2h1c2.016 0 11 5.45 11 8h1c2.611 0 24 23.795 24 29v1c2.832 0 4.11 6.719 5 8.5 4.011 8.022 10 20.166 10 29.5Z"/><path fill="#019DAB" id="VISrl5" d="M365 73h1c1.765 0 .541-1.581 1-2.5l4-4.5v-1c-4.986 0-19.085-18-29-18h-1c0 3.425-3 4.761-3 8 2.619 0 27 16.302 27 18Z"/><path fill="#088589" id="VISpm6b" d="M153 49h5v-1c-1.235 0-5-.643-5 1ZM312 51v1l-9-2c0-1.58-2.855-1-4-1v-1c4.824 0 8.915 3 13 3ZM144 51v1l9-2v-1c-3.324 0-6.16 2-9 2Z"/><path fill="#C9C9CA" id="scwm" d="M164 50c0 .777-8.94 2-10 2l-1-2v-1h8c0 1.473 1.952 1 3 1ZM303 50v2c-1.116 0-11-1.234-11-2 1.048 0 3 .473 3-1h4c1.145 0 4-.58 4 1Z"/><path fill="#CBC9C7" id="or" d="M62 156c0 4.177.906 7 4 7 0-1.574-.751-9 1-9v-7c0-.986 1.087-6 2-6 0-25.864 23.42-61.96 47.5-74 8.531-4.265 17.471-7.735 26-12 1.536-.768 11.5-1.451 11.5-3l-1-2-9 2c0 1.15-4.516 1.508-5.5 2L123 61c-6.9 0-20.183 17-26 17l-2 1c0 1.747-.253 2-2 2 0 1.747-.253 2-2 2 0 1.747-.253 2-2 2 0 1.562-2.189 5-4 5 0 1.562-2.189 5-4 5 0 1.827-4.48 11-6 11 0 4.717-5 8.489-5 13 2.246 0-.086 4-1 4 0 3.68-2 5.511-2 9 0 1.513-2.502 15-3 15 0 2.04 1.087 9-2 9ZM390 160v1l1.5 3c2.141 1.071 2.5-6.487 2.5-8-1.274 0-2-7.483-2-9l-2-14v-1l-1-1c0-2.259-3.696-12-3-12 0-4.251-5-8.315-5-12 0-6.378-10-11.295-10-17-1.114 0-6-5.686-6-7l-6-5-1-1-3-2-1-1c0-.598-12.49-7.995-14.5-9l-5.5-4c-5.098 0-9.522-6-15-6l-1-1-6-2-9-2v2c0 1.858 11.681 3.09 13.5 4l28 14c22.869 11.434 44.5 53.3 44.5 77 0 3.823 1 8.586 1 13Z"/><path fill="#0B838B" id="VISal1" d="m63 61 3 2 10-9-2-3-11 10Z"/><path fill="#08858A" id="VISp6b" d="M123 60v1l15.5-7c.984-.492 5.5-.85 5.5-2v-1c-4.976 0-11.203 3.852-15.5 6l-5.5 3ZM334 60v1c-5.098 0-9.522-6-15-6l-1-1-6-2v-1h1c7.174 0 14.291 9 21 9Z"/><path fill="#0B838B" id="VISal1" d="M391 63h1l1-1v-1c0-1.599-8.424-10-11-10 0 1.238-.423 3-2 3v1c4.413 0 6.519 8 11 8Z"/><path fill="#098389" id="VISal2/3" d="M72 70h1l8-9c0-3.17-4-3.495-4-7h-1l-10 9v1l6 6Z"/><path fill="#C9C9CA" id="scwm" d="m318 54 1 1-1-1Z"/><path fill="#029EAB" id="VISrl6a" d="m93 76 3 1c5.839 0 18.527-17 26-17l-3-5c-7.209 0-25.246 18-28 18v1l2 2Z"/><path fill="#C9CCC9" id="dhc" d="M197 76h1l1-3.5c-3.888-7.776-19.092-13.796-26.5-17.5-2.468-1.234-11.5-.458-11.5 2l2 1h2l2 1h1c5.688 0 13.203 7.906 15 11.5l6 4.5h1c1.819 0 4.591 1 7 1ZM260 76h5l2-1 2-1 1-1h1l1-1 1-1 2-2 4-4c0-3.415 7.51-6 10-6h1l2-1h1c0-1.473 1.952-1 3-1 0-2.536-10.536-2.982-12.5-2-8.225 4.112-25.5 11.463-25.5 21h2Z"/><path fill="#029EAB" id="VISrl6a" d="M359 77h2l3-1 1-3c0-1.698-24.381-18-27-18h-1c0 2.364-3 3.053-3 5 2.253 0 25 15.195 25 17Z"/><path fill="#098389" id="VISal2/3" d="M383 70h1c0-1.577 1.762-2 3-2l1-1 1-1 1-1 1-1v-1c-4.481 0-6.587-8-11-8l-5 6c2.097 0 8 7.148 8 9Z"/><path fill="#C7C8CC" id="alv" d="m163 58-18 1c0-2.974 13.367-2 16-2l2 1ZM293 58c5.213 0 13.103-1.199 17.5 1l10.5 4c0-4.278-20.341-6-25-6-1.048 0-3-.473-3 1Z"/><path fill="#7ECF4B" id="CA1" d="M69 148c0 6.653-2.546 22.408 0 27.5 7.237 14.474 11.977 32.739 27.5 40.5 4.768 2.384 15.656 13 20.5 13l-22-22.5c-3.849-7.697-11.812-15.624-16-24-10.329-20.657-4.993-50.754 16.5-61.5 4.802-2.401 9.963-10 15.5-10 0-13.603 28.492-22.496 37.5-27 2.127-1.064 9.444-3.278 12-2 2.112 1.056 4.995-.003 7 1l7.5 4c0-6.89 2-13.566 2-21 0-3.16-9-4.173-9-7h-1l-2-1h-2l-18 1c0 1.353-4.643 2-6 2l-2 1-2 1-2 1-2 1h-1l-1 1-2 1h-1c0 1.577-1.762 2-3 2l-2 1-1 1h-1l-1 1-1 1h-1l-1 1-2 1-1 1-1 1h-1l-1 1-1 1c0 1.577-1.762 2-3 2 0 1.747-.253 2-2 2l-1 1-1 1-1 1-1 1-1 1-1 1c0 1.747-.253 2-2 2 0 1.238-.423 3-2 3l-1 1-1 1c0 1.238-.423 3-2 3 0 1.238-.423 3-2 3 0 1.238-.423 3-2 3 0 1.465.109 4-2 4l-1 2-1 2-1 2-1 2c0 1.424-.362 5-2 5v1l-2 4c0 1.357-.647 6-2 6 0 1.357-.647 6-2 6 0 1.552-.566 8-2 8v1Z"/><path fill="#C7C8CC" id="alv" d="m165 58 2 1-2-1ZM292 58l-2 1 2-1Z"/><path fill="#7ECF4B" id="CA1" d="M363 215c-7.386 0-13.255 12-21 12l7-6.5 16-18 10-15c6.656-13.313 11.037-33.925 4-48-2.853-5.707-11.462-9.924-14-15-2.064-4.129-14.964-13.5-20-13.5 0-10.131-19.223-20.362-26.5-24-2.329-1.165-5.706-.853-8-2-2.548-1.274-10.889-4.555-14-3-2.383 1.192-5.725-.137-8 1l-7.5 4-2-20v-2c1.261 0 10-5.249 10-6h1l2-1h1c5.213 0 13.103-1.199 17.5 1l10.5 4h1c0 1.577 1.762 2 3 2h1l3 2h1l3 2h1l2 2h1c0 1.323 9.567 8 11 8h1c0 4.453 11.651 9.801 14 14.5 1.915 3.83 5.118 7.237 7 11l3 3.5v1l6 12.5c3.532 7.064 13.413 39.175 9 48-2.075 4.149-.936 9.872-3 14l-9 17c-2.138 4.276-13 10.66-13 14.5Z"/><path fill="#C7C8CC" id="alv" d="M145 59c-1.623 0-6 .005-6 2 1.357 0 6-.647 6-2ZM183 72l6 3-6-4.5c-1.797-3.594-9.312-11.5-15-11.5 0 2.827 9 3.84 9 7l6 6ZM289 59c-2.49 0-10 2.585-10 6 1.261 0 10-5.249 10-6Z"/><path fill="#009DAA" id="VISrl6b" d="M96 78h1c5.817 0 19.1-17 26-17v-1h-1c-7.473 0-20.161 17-26 17v1ZM358 77h1c0-1.805-22.747-17-25-17v1l5.5 4c2.01 1.005 14.5 8.402 14.5 9l1 1 3 2Z"/><path fill="#039399" id="AUDd1" d="m43 83 4 3 4-4.5c1.371-2.742 14-16.629 14-17.5l-2-3c-1.558 0-20 20.66-20 22Z"/><path fill="#1A7E62" id="SSs1" d="M65 64h1v-1l-3-2 2 3Z"/><path fill="#088588" id="VISal4" d="M76 73h1l8-7v-1c-1.712 0-3-2.571-3-4h-1l-8 9 3 3Z"/><path fill="#C7C8CC" id="alv" d="m139 61-2 1 2-1Z"/><path fill="#088588" id="VISal4" d="M379 73h1l3-3c0-1.852-5.903-9-8-9l-4 4v1l8 7Z"/><path fill="#039399" id="AUDd1" d="M413 83c0 1.712-2.571 3-4 3-1.65 0-13.011-21-18-21v-2h1l1-1v-1c2.52 0 12.446 11.391 14 14.5 1.45 2.9 6 3.974 6 7.5Z"/><path fill="#C7C8CC" id="alv" d="m137 62-2 1 2-1Z"/><path fill="#1A7E62" id="SSs1" d="m393 62-1 1 1-1Z"/><path fill="#C7C8CC" id="alv" d="m135 63-2 1 2-1ZM322 63l3 2c-1.238 0-3-.423-3-2Z"/><path fill="#029397" id="AUDd2/3" d="M54 91h1c0-5.656 16-15.373 16-20l-5-7h-1c0 .871-12.629 14.758-14 17.5L47 86v1c2.83 0 4.54 4 7 4Z"/><path fill="#1B8063" id="SSs2/3" d="M71 71h1v-1l-6-6 5 7Z"/><path fill="#C7C8CC" id="alv" d="m133 64-2 1 2-1Z"/><path fill="#1B8063" id="SSs2/3" d="M390 65h1v-1l-1 1Z"/><path fill="#C7C8CC" id="alv" d="m130 65-1 1 1-1ZM279 67l-4 2 4-4v2ZM326 65c1.238 0 3 .423 3 2l-3-2Z"/><path fill="#029397" id="AUDd2/3" d="M409 87c-2.46 0-4.17 4-7 4l-17-20 2-3 1-1 1-1 1-1h1c4.989 0 16.35 21 18 21v1Z"/><path fill="#08848B" id="VISal5" d="M84 79h1l6-5v-1l-6-7-8 7 7 6Z"/><path fill="#C7C8CC" id="alv" d="m129 66-2 1 2-1Z"/><path fill="#57B947" id="ProS" d="M181 91h1c0-5.826 1-12.583 1-19l-6-6c0 7.434-2 14.11-2 21l4 3 1 1h1Z"/><path fill="#08848B" id="VISal5" d="M371 79h1c1.884 0 7-4.443 7-6l-8-7-4 4.5c-.459.919.765 2.5-1 2.5l5 6Z"/><path fill="#1B8063" id="SSs2/3" d="m389 66-1 1 1-1Z"/><path fill="#C7C8CC" id="alv" d="M126 67c-1.238 0-3 .423-3 2 1.238 0 3-.423 3-2Z"/><path fill="#57B947" id="ProS" d="M274 91h2l5-4-2-20-4 2c0 1.747-.253 2-2 2v1l1 19Z"/><path fill="#C7C8CC" id="alv" d="M330 67c1.238 0 3 .423 3 2l-3-2Z"/><path fill="#1B8063" id="SSs2/3" d="M384 71h1l2-3c-1.238 0-3 .423-3 2v1Z"/><path fill="#C7C8CC" id="alv" d="m123 69-2 1 2-1ZM275 69l-2 2c1.747 0 2-.253 2-2ZM334 69l2 2-2-2Z"/><path fill="#187C63" id="SSs4" d="M74 75h1l1-2-3-3h-1v1l2 4Z"/><path fill="#C7C8CC" id="alv" d="m121 70-1 1 1-1Z"/><path fill="#187C63" id="SSs4" d="M381 75h1l2-4v-1h-1l-3 3 1 2Z"/><path fill="#039398" id="AUDd4" d="M55 91c0 1.747.253 2 2 2 .749 0 12.894-13.288 14-15.5l3-2.5-2-4h-1c0 4.627-16 14.344-16 20Z"/><path fill="#C7C8CC" id="alv" d="m119 71-1 1 1-1ZM272 72h1v-1l-1 1ZM337 71c2.016 0 11 5.45 11 8-1.433 0-11-6.677-11-8Z"/><path fill="#039398" id="AUDd4" d="m402 92-3 1c-1.861 0-13.695-18-17-18l2-4h1l17 20v1Z"/><path fill="#C7C8CC" id="alv" d="m118 72-1 1 1-1Z"/><path fill="#4FC244" id="SUB" d="m182 91 1 1c5.933 0 18.519 3.99 24.5 1 1.31-.655 6.073-4 6.5-4v-4l-1-1-3-3-3-2h-1l-7-1c-1.488 0-9-.902-9-3h-1l-6-3c0 6.417-1 13.174-1 19Z"/><path fill="#C7C8CC" id="alv" d="m272 72-1 1 1-1Z"/><path fill="#4FC244" id="SUB" d="m274 91-1 1c-5.216 0-31 4.126-31-4l1-3v-1l4-3 3-2 7-1 2-1h1c1.235 0 5 .643 5-1l2-1 2-1 1-1h1l1-1h1l1 19Z"/><path fill="#1C8063" id="SSs5" d="M81 83h1l2-4-7-6h-1l-1 2c1.142 0 6 7.066 6 8Z"/><path fill="#C7C8CC" id="alv" d="m116 73-1 1 1-1ZM270 73l-1 1 1-1Z"/><path fill="#09828C" id="VISal6a" d="m371 79-3 2c0-2.498-.738-5-4-5l1-3h1l5 6Z"/><path fill="#1C8063" id="SSs5" d="m372 79 3 4 6-8-1-2h-1c0 1.557-5.116 6-7 6Z"/><path fill="#09828C" id="VISal6a" d="m85 79 4 2c1.88 0-.71-2.079 0-3.5.945-1.89 4-.04 4-1.5l-2-2-6 5Z"/><path fill="#C7C8CC" id="alv" d="m115 74-2 1 2-1ZM269 74l-2 1 2-1Z"/><path fill="#C9C9CA" id="scwm" d="m354 74 1 1-1-1Z"/><path fill="#029398" id="AUDd5" d="M57 94c4.158 0 6.846 7 11 7l13-18c0-.934-4.858-8-6-8h-1l-3 2.5C69.894 79.712 57.749 93 57 93v1Z"/><path fill="#C7C8CC" id="alv" d="m113 75-1 1 1-1ZM197 76l2 2c-1.488 0-9-.902-9-3 1.819 0 4.591 1 7 1Z"/><path fill="#7DCD4B" id="HPF" d="m199 78 7 1-2-4-6 1h-1l2 2Z"/><path fill="#A8A9AA" id="V3" d="m226 75-4 7c0 2.613-.109 7.696 2.5 9l8.5-.5c3.017-6.034.85-15.5-7-15.5Z"/><path fill="#7DCD4B" id="HPF" d="m257 78-7 1v-1c1.577 0 2-1.762 2-3l6 1h2v1h-1l-2 1Z"/><path fill="#C7C8CC" id="alv" d="m267 75-2 1 2-1Z"/><path fill="#029398" id="AUDd5" d="M399 94c-3.864 0-6.751 7-11 7-.613 0-9.453-17-13-17v-1l6-8h1c3.305 0 15.139 18 17 18v1Z"/><path fill="#198060" id="SSp-bfd6a" d="M90 83h1c0-1.747.253-2 2-2 0-1.747.253-2 2-2l1-1v-1l-3-1c0 1.46-3.055-.39-4 1.5-.71 1.421 1.88 3.5 0 3.5l1 2Z"/><path fill="#C7C8CC" id="alv" d="m112 76-1 1 1-1ZM265 76c0 1.643-3.765 1-5 1v-1h5Z"/><path fill="#198060" id="SSp-bfd6a" d="m368 81-2 1-5-5 3-1c3.262 0 4 2.502 4 5Z"/><path fill="#C7C8CC" id="alv" d="m110 77-1 1 1-1ZM259 77l-2 1 2-1Z"/><path fill="#C9C9CA" id="scwm" d="M359 77v1l-1-1h1Z"/><path fill="#1A7E61" id="SSp-bfd6b" d="M365 83h1v-1l-5-5h-2v1l6 5ZM97 78l-2 1 1-1h1Z"/><path fill="#C7C8CC" id="alv" d="m109 78-1 1 1-1Z"/><path fill="#197D63" id="SSs6a" d="M89 85c-2.618 0-1.65 3-4 3 0-1.947-3-2.636-3-5l2-4h1l4 2 1 2-1 2Z"/><path fill="#1A7E61" id="SSp-bfd6b" d="M95 79c-1.747 0-2 .253-2 2 1.747 0 2-.253 2-2Z"/><path fill="#C7C8CC" id="alv" d="M108 79c-1.238 0-3 .423-3 2 1.238 0 3-.423 3-2ZM349 79c2.611 0 24 23.795 24 29l-3-3.5c-1.882-3.763-5.085-7.17-7-11-2.349-4.699-14-10.047-14-14.5Z"/><path fill="#197D63" id="SSs6a" d="M371 89h1c0-1.408 1.197-5 3-5v-1l-3-4h-1l-3 2-2 1v1c1.77 0 5 4.902 5 6Z"/><path fill="#1A7E61" id="SSp-bfd6b" d="M93 81c-1.747 0-2 .253-2 2 1.747 0 2-.253 2-2Z"/><path fill="#C7C8CC" id="alv" d="m105 81-2 2c1.747 0 2-.253 2-2Z"/><path fill="#7BD04A" id="DG-mo" d="M139 115h2l2-1 2-1h1l1-1h1l1-1h2l2-1 2-1 2-1 2-1c0-2.314 4.262-3 6-3l2-1h1c0-2.051 13-4.405 13-10v-2h-1l-1-1-4-3-7.5-4c-2.005-1.003-4.888.056-7-1-2.556-1.278-9.873.936-12 2-9.008 4.504-37.5 13.397-37.5 27l2 2c1.321 0 6 .684 6-1-2.055 0 1.193-3.693 2-4.5l10.5-6.5c9.386-4.693 18.79-12 30-12 3.554 0 9.588-1.323 11.5 2.5l-2.5 3.5c-3.869 1.934-8.996 1.998-13 4-2.444 1.222-20.046 13-20.5 13v2l2 1ZM320 114l-3 1-3-1-1-1h-2l-1-1h-1l-2-1h-1c0-1.183-3.57-1.535-4.5-2-4.109-2.054-7.566-6-12.5-6h-1c0-2.41-13-4.298-13-11l1-1 5-4 7.5-4c2.275-1.137 5.617.192 8-1 3.111-1.555 11.452 1.726 14 3 2.294 1.147 5.671.835 8 2 7.277 3.638 26.5 13.869 26.5 24l-1 2h-6c0-10.164-28.02-18.26-35.5-22-4.636-2.318-9.883-2-15.5-2-.833 0-4.427 2.645-4 3.5.883 1.767 17.66 7.08 20.5 8.5 3.16 1.58 12.942 10 15.5 10 1.473 0 1 1.952 1 3Z"/><path fill="#029297" id="AUDp1" d="m23 130 5 1c0-9.759 4.867-21.234 9-29.5L47 87v-1l-4-3c-2.058 0-5.209 6.918-6 8.5-6.097 12.194-14 23.865-14 38.5Z"/><path fill="#019399" id="AUDd6a" d="M68 103c2.447 0 3.28 2 6 2 2.647 0 3.43-10 7-10 0-1.417 2.383-6 4-6v-1c0-1.947-3-2.636-3-5h-1l-13 18v2Z"/><path fill="#1A8061" id="SSs6b" d="M91 83c0 1.747-.253 2-2 2l1-2h1Z"/><path fill="#C7C8CC" id="alv" d="m103 83-1 1 1-1Z"/><path fill="#1A8061" id="SSs6b" d="M371 89v1c-1.114 0-6-5.686-6-7h1c1.77 0 5 4.902 5 6Z"/><path fill="#029297" id="AUDp1" d="M428 131h1l4-1c0-13.654-6.332-24.165-12-35.5-1.35-2.699-4.563-11.5-8-11.5 0 1.712-2.571 3-4 3v1l5.5 8c8.025 8.025 13.5 24.529 13.5 36Z"/><path fill="#C7C8CC" id="alv" d="m102 84-1 1 1-1Z"/><path fill="#019399" id="AUDd6a" d="M382 106h1l5-4v-1c-.613 0-9.453-17-13-17-1.803 0-3 3.592-3 5 0 3.349 10 11.947 10 17Z"/><path fill="#1A8061" id="SSs6b" d="M85 89v1c1.811 0 4-3.438 4-5-2.618 0-1.65 3-4 3v1Z"/><path fill="#C7C8CC" id="alv" d="m101 85-1 1 1-1Z"/><path fill="#7DCD4B" id="HPF" d="m216 86-2 3v-4l2 1ZM217 85l-1 1 1-1ZM240 86l2 2 1-3-3 1Z"/><path fill="#C7C8CC" id="alv" d="m100 86-1 1 1-1Z"/><path fill="#019298" id="AUDp2/3" d="m28 131 7 1c0-10.29 5.696-19.891 10-28.5 1.934-3.869 9-8.067 9-12.5-2.46 0-4.17-4-7-4l-10 14.5c-4.133 8.266-9 19.741-9 29.5Z"/><path fill="#C7C8CC" id="alv" d="m99 87-1 1 1-1Z"/><path fill="#019298" id="AUDp2/3" d="m428 131-6 1c0-11.508-8.162-20.824-13-30.5-.915-1.83-4.398-9.5-7-9.5v-1c2.83 0 4.54-4 7-4l5.5 8c8.025 8.025 13.5 24.529 13.5 36Z"/><path fill="#C7C8CC" id="alv" d="m98 88-1 1 1-1Z"/><path fill="#019398" id="AUDd6b" d="M85 90c0 1.562-2.189 5-4 5 0-1.417 2.383-6 4-6v1Z"/><path fill="#C7C8CC" id="alv" d="m97 89-2 2c1.747 0 2-.253 2-2Z"/><path fill="#65A83D" id="DG-sg" d="M119 112c-2.055 0 1.193-3.693 2-4.5l10.5-6.5c9.386-4.693 18.79-12 30-12 3.554 0 9.588-1.323 11.5 2.5l-2.5 3.5c-3.869 1.934-8.996 1.998-13 4-2.444 1.222-20.046 13-20.5 13l1-5 8.5-6 6-3c25.371-12.686-21.5 2.73-21.5 8l-12 6ZM319 111c-2.558 0-12.34-8.42-15.5-10-2.84-1.42-19.617-6.733-20.5-8.5-.427-.855 3.167-3.5 4-3.5 5.617 0 10.864-.318 15.5 2 7.48 3.74 35.5 11.836 35.5 22-4.691 0-8.092-7-13-7 0-5.628-45.785-20.142-21.5-8l7 3 8.5 7v3Z"/><path fill="#019398" id="AUDd6b" d="m382 106-1 1c0-6.378-10-11.295-10-17v-1h1c0 3.349 10 11.947 10 17Z"/><path fill="#7DCD4B" id="HPF" d="m179 90 1 1-1-1Z"/><path fill="#039397" id="AUDp4" d="M35 133h4c0-8.902 4.262-18.023 8-25.5 1.996-3.993 10-9.009 10-13.5v-1c-1.747 0-2-.253-2-2h-1c0 4.433-7.066 8.631-9 12.5-4.304 8.609-10 18.21-10 28.5v1Z"/><path fill="#C7C8CC" id="alv" d="M95 91c-1.577 0-2 1.762-2 3 1.577 0 2-1.762 2-3Z"/><path fill="#7DCD4B" id="HPF" d="m183 92-2 1v-2h1l1 1ZM273 92h2l1-1h-2l-1 1Z"/><path fill="#039397" id="AUDp4" d="m422 132-4 1c0-10.176-6.702-19.903-11-28.5L399 94v-1l3-1c2.602 0 6.085 7.67 7 9.5 4.838 9.676 13 18.992 13 30.5Z"/><path fill="#7ECE4A" id="DG-po" d="M131 106c2.409 0 5.181 1 7 1l8.5-6 6-3c25.371-12.686-21.5 2.73-21.5 8ZM325 106c-2.426 0-6-1.024-6 2l-8.5-7-7-3c-24.285-12.142 21.5 2.372 21.5 8Z"/><path fill="#039199" id="AUDp5" d="M39 133c4.556 0 10.296 4 15 4 0-3.455 7.38-24.88 9.5-27l4.5-7v-2c-4.154 0-6.842-7-11-7 0 4.491-8.004 9.507-10 13.5-3.738 7.477-8 16.598-8 25.5Z"/><path fill="#C7C8CC" id="alv" d="m93 94-1 1 1-1Z"/><path fill="#039199" id="AUDp5" d="M402 137h1l15-4c0-10.176-6.702-19.903-11-28.5L399 94c-3.864 0-6.751 7-11 7v1c2.295 0 4.171 7.842 5 9.5 3.615 7.229 9 17.014 9 25.5Z"/><path fill="#019398" id="AUDd6b" d="M74 106h1c1.52 0 6-9.173 6-11-3.57 0-4.353 10-7 10v1Z"/><path fill="#C7C8CC" id="alv" d="m92 95-1 1 1-1Z"/><path fill="#FF8FFC" id="NOT" d="M193 102c-2.231 0-6.728-2.386-9.5-1l-4.5 2-1-2 9.5-6H210l-1 4c-5.843 0-10.783 3-16 3Z"/><path fill="#FF90FC" id="MPT" d="M216 101c0 2.461-3.378 2-5 2 0-2.177.641-4-2-4l1-4 6 6ZM241 101c0 2.641 1.823 2 4 2 0-2.177-.641-4 2-4v-4c-2.041 0-6 3.974-6 6Z"/><path fill="#FF8FFC" id="NOT" d="M263 102c2.231 0 6.728-2.386 9.5-1 2.084 1.042 2.908 2 5.5 2l-1-3c0-5.878-24.716-5-30-5v4c4.104 0 8.105.302 11.5 2 1.147.574 4.5-1.064 4.5 1Z"/><path fill="#C7C8CC" id="alv" d="M91 96c-1.577 0-2 1.762-2 3 1.577 0 2-1.762 2-3ZM89 99c-1.577 0-2 1.762-2 3 1.577 0 2-1.762 2-3Z"/><path fill="#FE90FC" id="OP" d="m210 105-5.5 4H195c0-2.833-2-4.84-2-7 5.217 0 10.157-3 16-3 2.641 0 2 1.823 2 4l-1 2Z"/><path fill="#A8A9AA" id="V3" d="M233 109c0-2.839 3.69-6.121 2-9.5-.908-1.817-13.099-.801-14 1-1.809 3.617 2.741 6.483 4 9l1.5 3.5c3.947 1.973 3.991-4 6.5-4Z"/><path fill="#FE90FC" id="OP" d="m247 105 4.5 4h9.5l2-7c0-2.064-3.353-.426-4.5-1-3.395-1.698-7.396-2-11.5-2-2.641 0-2 1.823-2 4l2 2Z"/><path fill="#FF64FF" id="MB" d="m278 103 1 1c0-1.747.253-2 2-2l-4-2 1 3ZM179 103l-2 1c0-1.747-.253-2-2-2 0-1.473 1.952-1 3-1l1 2Z"/><path fill="#FE8EFF" id="APN" d="M177 153h3l1-1 4.5-3 4.5-5 5-11.5V109c0-2.833-2-4.84-2-7-2.231 0-6.728-2.386-9.5-1l-4.5 2-2 1-1 1h-1l-1 1-3 1c0 2.215-2 1.519-2 3 0 1.522-4 4.055-4 7 1.262 0 7.462 18 0 18 0 2.665 8.691 18 12 18Z"/><path fill="#FF64FF" id="MB" d="M190 144c3.676 0 6.439 3 9 3 0-3.016 4-6.525 4-9-5.349 0-3.394-5.712-2-8.5 3.125-6.25 12.097-22.5 20-22.5l-5-6c0 2.461-3.378 2-5 2l-1 2c2.817 0-4.795 9.148-6.5 10-3.349 1.675-6.241-2-8.5-2v19.5l-5 11.5ZM267 144c-5.483 0-9.703 4-10 4 0-4.679-4-8.117-4-10 11.762 0-10.469-31-17-31 0-1.668 3.099-6 5-6 0 2.641 1.823 2 4 2l2 2c-4.541 0 3.044 8.772 5.5 10l8.5-1v17.5c1.211 2.422 6 10.156 6 12.5Z"/><path fill="#FE8EFF" id="APN" d="m276 152 3 1c4.93 0 12-13.472 12-19-5.361 0-2-9.971-2-13.5l2-3.5c0-3.047-3-4.462-3-7l-3-3h-1l-1-1-2-1-1-1h-1l-1-1c-2.592 0-3.416-.958-5.5-2-2.772-1.386-7.269 1-9.5 1l-2 7v22.5c1.211 2.422 6 10.156 6 12.5 0 2.097 7.148 8 9 8Z"/><path fill="#C7C8CC" id="alv" d="M87 102c-1.577 0-2 1.762-2 3 1.577 0 2-1.762 2-3Z"/><path fill="#C7CBCB" id="bsc" d="m136 120-2 1-1-2 4-2 2-1 2-1 2-1 2-1h2l2-1 2-1h2l1-1h1l1-1h1l1-1h1l1-1h1l1-1h1l1-1h1l1-1h1l1-1 7-1c1.747 0 2 .253 2 2l-1 1h-1l-1 1-3 1c-1.238 0-5 1.923-5 3l-6 1-1 1c-1.048 0-3-.473-3 1h-2c-1.424 0-5 .362-5 2h-1c-1.048 0-3-.473-3 1-1.048 0-3-.473-3 1h-1l-1 1h-1l-1 1h-1l-1 1ZM335 140c.839 0 2 1.93 2 0 0-6.206-11-14.925-11-18l-3.5-3c-1.879-.939-10.5-3.37-10.5-6h-2c-1.465 0-4 .109-4-2l-7-2-1-1-3-1-1-1-3-1-1-1h-1l-1-1-7-1c-1.747 0-2 .253-2 2h1l1 1 2 1 1 1h1l6 3 5 1 4 2h2c1.424 0 5 .362 5 2h2c1.424 0 5 .362 5 2h2l1 1 4 2 1 1 2 1c1.782 0 7 6.482 7 8v1c1.577 0 2 1.762 2 3v1c1.577 0 2 1.762 2 3v2Z"/><path fill="#019396" id="AUDp6a" d="m402 137-7 2c0-10.519-12-23.21-12-33l5-4c2.295 0 4.171 7.842 5 9.5 3.615 7.229 9 17.014 9 25.5ZM54 137l7 2c0-7.174 13-27.401 13-33v-1c-2.72 0-3.553-2-6-2l-4.5 7c-2.12 2.12-9.5 23.545-9.5 27Z"/><path fill="#CAC7CB" id="fiber tracts" d="m168 103-1 1v-1h1ZM289 103v1l-1-1h1ZM166 104l-1 1v-1h1Z"/><path fill="#FF64FF" id="MB" d="m177 104-1 1 1-1ZM280 104l1 1-1-1Z"/><path fill="#CAC7CB" id="fiber tracts" d="m290 104 1 1-1-1Z"/><path fill="#C7C8CC" id="alv" d="m85 105-2 4c2.109 0 2-2.535 2-4Z"/><path fill="#CAC7CB" id="fiber tracts" d="m164 105-1 1 1-1Z"/><path fill="#FF64FF" id="MB" d="m175 105-1 1 1-1Z"/><path fill="#FC8FFE" id="PPT" d="M195 109v4c2.259 0 5.151 3.675 8.5 2 1.705-.852 9.317-10 6.5-10l-5.5 4H195ZM261 109v5l-8.5 1c-2.456-1.228-10.041-10-5.5-10l4.5 4h9.5Z"/><path fill="#039198" id="AUDp6b" d="M61 139h2l1-2c0-1.048-.473-3 1-3 0-1.896 2.08-11 4-11l1-4c0-4.511 5-8.283 5-13h-1c0 5.599-13 25.826-13 33Z"/><path fill="#7ECF49" id="CA3" d="m158 251-1 1h-5.5c-2.477-1.238-3.554-16-14.5-16l-2-1h-1c0-1.663-5.407-2-7-2l-6-4.5c-3.409-6.817-16.894-11.789-21-20-3.119-6.238-9.846-10.691-13-17-6-12.001-15.157-32.687-8-47 1.797-3.594 5.164-6.328 7-10l8.5-8.5c5.03-2.515 12.842-13 18.5-13 1.321 0 6 .684 6-1l12-6c2.409 0 5.181 1 7 1l-1 5v2c-1.577 0-2 1.762-2 3h-1l-1 1-1 1-1 1c-3.628 0-12.55 16.599-14 19.5-11.195 22.39-3.174 36.652 7 57l7 8c1.038 2.077 12.448 17.5 14 17.5l1 1 1 1 1 1 1 1 1 1 1 1 1 1 2 2 1 1 1 1h1l2 2h1l2 2h1l2 3v1c-1.238 0-3 .423-3 2l-1 1-2 1c0 1.564-1 3.876-1 6Z"/><path fill="#CAC7CB" id="fiber tracts" d="m162 106-1 1 1-1Z"/><path fill="#FF64FF" id="MB" d="m283 106 1 1-1-1Z"/><path fill="#CAC7CB" id="fiber tracts" d="m294 106 1 1-1-1Z"/><path fill="#7ECF49" id="CA3" d="M299 252h1c9.86 0 7.266-16 19-16l2-1h1c0-1.175 5.704-2 7-2l2-1 2-1c0-2.733 14.612-11.724 16-14.5 4.425-8.851 16.85-17.7 22-28 3.511-7.021 4.532-15.064 8-22 4.31-8.621-5.478-33.989-12.5-37.5-3.401-1.701-9.975-6.451-11.5-9.5l-11-6.5h-6c-4.691 0-8.092-7-13-7-2.426 0-6-1.024-6 2v3c1.473 0 1 1.952 1 3l3 4 1 1 1 1c3.462 0 10.71 12.921 12 15.5 12.271 24.542 9.94 31.12-2 55-1.241 2.481-8.884 16.5-12 16.5 0 1.238-.423 3-2 3 0 1.238-.423 3-2 3l-2 2c0 1.238-.423 3-2 3l-1 1-1 1v1l-2 2-1 1-1 1-1 1-1 1-1 1-1 1-2 1-1 1-1 1-1 1-2 1-1 1-2 1-1 1-2 1-1 1v2c1.238 0 5 1.923 5 3l1 1c3.19 0 1 4.967 1 6l1 1Z"/><path fill="#039198" id="AUDp6b" d="M394 139h1c0-10.519-12-23.21-12-33h-1l-1 1c0 3.685 5 7.749 5 12l1.5 3c3.022 3.022 3.587 9.674 5.5 13.5.523 1.046-.951 3.5 1 3.5Z"/><path fill="#CAC7CB" id="fiber tracts" d="m160 107-1 1v-1h1Z"/><path fill="#FF64FF" id="MB" d="M166 110h3c0-1.481 2-.785 2-3-1.238 0-5 1.923-5 3Z"/><path fill="#FF8DFE" id="NPC" d="m207 136-4 2c-5.349 0-3.394-5.712-2-8.5 3.125-6.25 12.097-22.5 20-22.5 0 2.678 6 6.863 6 12 0 6.536-14 4.753-14 12l-6 5ZM249 136l4 2c11.762 0-10.469-31-17-31l-3 2c0 3.757-4 5.09-4 9 0 6.997 14 5.336 14 12l6 6Z"/><path fill="#FF64FF" id="MB" d="M288 110h3l-6-3 3 3Z"/><path fill="#CAC7CB" id="fiber tracts" d="m158 108-1 1v-1h1ZM298 108l1 1-1-1Z"/><path fill="#C7C8CC" id="alv" d="m83 109-1 2 1-2Z"/><path fill="#CAC7CB" id="fiber tracts" d="m156 109-1 1v-1h1Z"/><path fill="#C7C8CC" id="alv" d="M389 177c-1.259 0-3.283 9.067-4 10.5-2.952 5.904-14.207 27.5-22 27.5 0-3.84 10.862-10.224 13-14.5l9-17c2.064-4.128.925-9.851 3-14 4.413-8.825-5.468-40.936-9-48l-6-12.5c2.832 0 4.11 6.719 5 8.5 4.011 8.022 10 20.166 10 29.5 0 1.517 1.036 13 2 13v1c0 5.605-1 10.861-1 16Z"/><path fill="#CAC7CB" id="fiber tracts" d="m154 110-1 1v-1h1Z"/><path fill="#FE909D" id="LP" d="M148 138c0-2.889-3.299 1-4 1v-16l-1-6 2-1c1.048 0 3 .473 3-1h1c1.424 0 5-.362 5-2h2c1.048 0 3 .473 3-1l1-1 6-1h3c0 1.522-4 4.055-4 7l-2 3.5V134l-4 2-6.5 3-4.5-1ZM308 138c2.878 0 2.954 1 4 1v-16c0-1.564 1-3.876 1-6l-4-2h-2c-1.041 0-5-.986-5-2h-2l-4-2-5-1h-3c0 2.538 3 3.953 3 7 3.215 0 2 13.361 2 16l4 3c2.854 0 4.145 1.822 6.5 3l4.5-1Z"/><path fill="#C7C8CC" id="alv" d="m82 111-1 2 1-2Z"/><path fill="#7DCF4B" id="CA2" d="m117 229 10 4-6-4.5c-3.409-6.817-16.894-11.789-21-20-3.119-6.238-9.846-10.691-13-17-6-12.001-15.157-32.687-8-47 1.797-3.594 5.164-6.328 7-10l8.5-8.5c5.03-2.515 12.842-13 18.5-13l-2-2c-5.537 0-10.698 7.599-15.5 10-21.493 10.746-26.829 40.843-16.5 61.5 4.188 8.376 12.151 16.303 16 24l22 22.5Z"/><path fill="#CAC7CB" id="fiber tracts" d="m151 111-2 1v-1h2ZM160 111l-1 1 1-1ZM296 111l4 2-4-2ZM310 112v1c-1.465 0-4 .109-4-2h1l2 1h1Z"/><path fill="#7DCF4B" id="CA2" d="m337 230-4 1c0-2.733 14.612-11.724 16-14.5 4.425-8.851 16.85-17.7 22-28 3.511-7.021 4.532-15.064 8-22 4.31-8.621-5.478-33.989-12.5-37.5-3.401-1.701-9.975-6.451-11.5-9.5l-11-6.5 1-2c5.036 0 17.936 9.371 20 13.5 2.538 5.076 11.147 9.293 14 15 7.037 14.075 2.656 34.687-4 48l-10 15-16 18-7 6.5-2 1-1 1h-1l-1 1Z"/><path fill="#CAC7CB" id="fiber tracts" d="m149 112-2 1v-1h2ZM159 112c-1.048 0-3-.473-3 1 1.048 0 3 .473 3-1Z"/><path fill="#C7C8CC" id="alv" d="m81 113-1 2 1-2Z"/><path fill="#CAC7CB" id="fiber tracts" d="m145 113-2 1 2-1ZM154 113c-1.424 0-5 .362-5 2 1.424 0 5-.362 5-2ZM302 113c1.424 0 5 .362 5 2-1.041 0-5-.986-5-2ZM325 120l1 2-3.5-3c-1.879-.939-10.5-3.37-10.5-6h1l1 1 3 1 6 3 1 1 1 1Z"/><path fill="#7DCD4B" id="HPF" d="M135 117h2l2-1v-1l-2-1c-1.577 0-2 1.762-2 3Z"/><path fill="#CAC7CB" id="fiber tracts" d="m143 114-2 1 2-1Z"/><path fill="#7DCD4B" id="HPF" d="m317 115 6 3-3-4-3 1Z"/><path fill="#C7C8CC" id="alv" d="m80 115-1 2 1-2Z"/><path fill="#CAC7CB" id="fiber tracts" d="m141 115-2 1v-1h2ZM148 115c-1.048 0-3-.473-3 1 1.048 0 3 .473 3-1ZM313 117h1c0-1.638-3.576-2-5-2l4 2ZM139 116l-2 1 2-1ZM142 117h1l2-1c-1.048 0-3-.473-3 1Z"/><path fill="#C7C8CC" id="alv" d="M79 117c-1.638 0-2 3.576-2 5 1.638 0 2-3.576 2-5Z"/><path fill="#7DCD4B" id="HPF" d="m134 117-1 1 1-1Z"/><path fill="#CAC7CB" id="fiber tracts" d="M133 118v1l4-2h-3l-1 1ZM141 117l-1 1 1-1Z"/><path fill="#FE8083" id="LGd-sh" d="m124 147 1 1c2.95 0 5.664-9.829 7-12.5 1.566-3.133 8.991-8.982 9-9l3-3.5-1-6h-2l-1 1h-1l-1 1h-1l-1 1-2 1-1 1-1 1-1 1-1 1-1 1-1 1-1 1-1 2-1 1-1 2-1 2-1 2c0 1.048.473 3-1 3v2c1.077 0 3 3.762 3 5Z"/><path fill="#FF8D9D" id="POL" d="m163 133 2 2c7.462 0 1.262-18 0-18l-2 3.5V133ZM293 133l-2 1c-5.361 0-2-9.971-2-13.5l2-3.5c3.215 0 2 13.361 2 16Z"/><path fill="#FE8083" id="LGd-sh" d="m332 147-1 1c-1.391 0-11.216-25-19-25 0-1.564 1-3.876 1-6h3l1 1 4 2 1 1 2 1 7 8v1c0 1.238.423 3 2 3v1c0 1.238.423 3 2 3v5c-1.577 0-2 1.762-2 3l-1 1Z"/><path fill="#CAC7CB" id="fiber tracts" d="m316 117 1 1-1-1Z"/><path fill="#C7C8CC" id="alv" d="M132 119h1v-1l-1 1Z"/><path fill="#CAC7CB" id="fiber tracts" d="m139 118-1 1 1-1Z"/><path fill="#CCCACA" id="pc" d="M239 130c1.465 0 4 1.115 4 0 0-6.664-14-5.003-14-12l-2 1c0 6.536-14 4.753-14 12l4-1 1-1c2.522 0 4.909-2 8-2h5c1.654 0 8 1.198 8 3Z"/><path fill="#C7C8CC" id="alv" d="m323 118 1 1-1-1Z"/><path fill="#CCC8CA" id="ar" d="M70 119c2.246 0-.086 4-1 4l1-4Z"/><path fill="#C7C8CC" id="alv" d="m132 119-1 1 1-1Z"/><path fill="#CAC7CB" id="fiber tracts" d="m134 121-1 1-2-1v-1l1-1h1l1 2ZM137 119l-1 1 1-1Z"/><path fill="#CCC8CA" id="ar" d="M394 139v3c-2.227 0-1.773-9-4-9v-1l-1-1c0-2.259-3.696-12-3-12l1.5 3c3.022 3.022 3.587 9.674 5.5 13.5.523 1.046-.951 3.5 1 3.5Z"/><path fill="#C7C8CC" id="alv" d="M130 201c0 4.944 15 16.308 15 21-1.552 0-12.962-15.423-14-17.5l-7-8c-10.174-20.348-18.195-34.61-7-57 1.45-2.901 10.372-19.5 14-19.5v1c0 2.33-4 3.227-4 6l-1 1c-1.577 0-2 1.762-2 3l-1 2c-2.109 0-2 2.535-2 4l-2 4c-5.634 0-6.298 24.904-4 29.5.746 1.493-.729 6.5 2 6.5 0 2.72 2 3.553 2 6l1 1 1 3c0 1.573 6.382 12 8 12v1l1 1Z"/><path fill="#CAC7CB" id="fiber tracts" d="m321 120 1 1-1-1Z"/><path fill="#C7C8CC" id="alv" d="M328 198c0 3.379-5 5.61-5 9 3.116 0 10.759-14.019 12-16.5 11.94-23.88 14.271-30.458 2-55-1.29-2.579-8.538-15.5-12-15.5l1 2c0 3.075 11 11.794 11 18 4.4 0 7.422 22.656 5 27.5-.74 1.479-.079 9.5-2 9.5l-3 7-1 1-1 1v1l-1 1v1c0 1.351-4.625 9-6 9Z"/><path fill="#C7CBCB" id="bsc" d="M127 127h1l1-1 1-1 1-1 1-1 1-1-2-1c0 2.33-4 3.227-4 6Z"/><path fill="#CAC7CB" id="fiber tracts" d="m133 122-1 1 1-1ZM324 122c1.782 0 7 6.482 7 8l-7-8Z"/><path fill="#CCC8CA" id="ar" d="m67 132-2 2c0-1.896 2.08-11 4-11 0 3.68-2 5.511-2 9Z"/><path fill="#C7C8CC" id="alv" d="M77 123c-2.109 0-2 2.535-2 4l2-4Z"/><path fill="#FE7F84" id="LGd-co" fill-rule="evenodd" d="m142 127-3 2.5c-.718 1.436-7.04 10.73-3.5 12.5 5.288 2.644 11.518-15 6.5-15m-17 21 7 6 9-13.5 3-3.5v-14l-3 3.5c-.009.018-7.434 5.867-9 9-1.336 2.671-4.05 12.5-7 12.5Z"/><path fill="#FE7F84" id="LGd-co" d="M331 148c0 1.77-4.902 5-6 5-3.077 0-11.271-17-13-17v-6c1.254 0 2.941 14.779 8.5 12 3.985-1.993-2.704-12.852-5-14-3.014-1.507-1.509 1-3.5 1v-6c7.784 0 17.609 25 19 25Z"/><path fill="#CAC7CB" id="fiber tracts" d="m131 124-1 1 1-1ZM130 125l-1 1 1-1ZM129 126l-1 1 1-1Z"/><path fill="#FF78FE" id="SCO" d="M229 131h1l1-4h-5v3h1l2 1Z"/><path fill="#C7C8CC" id="alv" d="M75 127c-1.995 0-2 4.377-2 6 1.353 0 2-4.643 2-6Z"/><path fill="#C7CBCB" id="bsc" d="M126 128h1v-1l-1 1Z"/><path fill="#CAC7CB" id="fiber tracts" d="m128 127-1 1v-1h1Z"/><path fill="#FD8082" id="LGd-ip" d="m142 127-3 2.5c-.718 1.436-7.04 10.73-3.5 12.5 5.288 2.644 11.518-15 6.5-15Z"/><path fill="#FE90FE" id="PRC" d="M226 134c-2.359 0-5.323 1-9 1-3.772 0 0-3.753 0-5l1-1c2.522 0 4.909-2 8-2v7ZM231 133c1.477 0 5.699 2 9 2 0-2.413-1-3.51-1-5 0-1.802-6.346-3-8-3l-1 4 1 2Z"/><path fill="#FD8082" id="LGd-ip" d="M312 129c1.991 0 .486-2.507 3.5-1 2.296 1.148 8.985 12.007 5 14-5.559 2.779-7.246-12-8.5-12v-1Z"/><path fill="#C7CBCB" id="bsc" d="M124 131h1l1-1v-2c-1.577 0-2 1.762-2 3Z"/><path fill="#CAC7CB" id="fiber tracts" d="m127 128-1 2v-2h1Z"/><path fill="#FF64FF" id="MB" d="m218 129-1 1 1-1Z"/><path fill="#019099" id="AUDv1" d="M21 149h6c0-5.996 1-12.639 1-18l-5-1c0 5.889-2 12.3-2 19Z"/><path fill="#CAC7CB" id="fiber tracts" d="m126 130-1 1 1-1Z"/><path fill="#FF64FF" id="MB" fill-rule="evenodd" d="m241 177-1 6.5c0 20.18 19.728-6.5 1-6.5m-30 0-4 7.5c-.961 1.921 4.819 7.84 7.5 6.5 6.061-3.031 2.313-14-3.5-14m63 67 1 1c1.238 0 5-1.923 5-3-9.674 0-4-5.575-4-9l-2-3.5 1-4.5v-3l-3.5 1c-5.457-2.728 7.5-11.241 7.5-5l6-2c3.651 0 5.93-6 9-6 0-2.229-.397-5 4-5 3.262 0 15-12.864 15 3 5.564 0 1.19-11.879 2-13.5 4.262-8.524 11.162-3.5 14-3.5 2.558 0 0-7.758 0-9l-6.5 5c-9.866 4.933-19.737 17-31.5 17 0 1.643-3.765 1-5 1-3.312 0-8.038 1-12 1-10.604 0-6-7.263-6-12-2.762 0-4.005-2.495-2-4.5l11-8.5c-4.311 0-9.853-2-12-2-1.841 0-3.57 2.035-5.5 3-9.003 4.502-16.072-10.355-12.5-17.5l4-7.5c-9.296 0-5.604-21-2-21l-6-6c0 1.115-2.535 0-4 0 0 1.49 1 2.587 1 5l3 5.5c2.869 5.738-1.704 28.409-4 33-2.34 4.679-.424 12.462-6.5 15.5-2.746 1.373-3.407-5-4-5-1.164 0-1.399 6.301-4 5-5.819-2.909-15.42-39.659-11.5-47.5l4-6.5c-3.772 0 0-3.753 0-5l-4 1-6 5c4.587 0 7.131 21-2 21l4 6.5c2.214 4.429.484 16.008-4.5 18.5-4.884 2.442-9.15-3-12.5-3-1.928 0-8.096 2-13 2l10.5 8c.788.788 2.915 4.042 1 5l-3.5-1c0 1.777 9.271 13-4 13-4.414 0-9.177-1-13-1-1.235 0-5 .643-5-1-11.845 0-20.609-12.054-30.5-17l-7.5-6c0 1.824-.781 12 1 12 0-7.175 11.013-3.474 13 .5 1.396 2.792-2.526 15.5 3 15.5 0-12.879 14-8.596 14-3 2.896 0 5-.696 5 4 0 1.803 6.495 6 8 6l6 2c0-6.536 16.963 5 5 5l-1 2c0 1.423 1.978 3.544 1 5.5l-2 2.5 3 2.5c1.393 2.786-1.799 4.65-3.5 5.5l-3.5 1 3 1.5 3 3.5 1-4c0-3.929 10.548-12 14-12 0-13.114 12-21.294 12-8 5.152 0 12.457-7.021 18.5-4 1.746.873 5.481-1.259 8 0 2.911 1.456 9.314 4 12.5 4 0-13.588 11-4.284 11 8 3.911 0 15 8.546 15 13m-35-37c-.434 0-4.87 5.185-6.5 6-2.535 1.267-3.261-2-4-2-1.511 0-2.522 3.239-5 2l-5.5-5c-6.364 0-3.488-5-1-5 0-6.014 1.682-14.909 9.5-11l2 2 3-3c7.544-3.772 7.5 8.913 7.5 12 6.576 0 0 9.425 0 4Z"/><path fill="#FF64FF" id="MB" d="m226 134 1 1v-5h-1v4Z"/><path fill="#A8A9AA" id="V3" d="M227 135c0 3.943 1 8.079 1 12.5l.5 7.5.5-19v-5l-2-1v5Z"/><path fill="#019099" id="AUDv1" d="M429 149h6c0-4.725-1-9.879-1-14 0-1.235.643-5-1-5l-4 1v18Z"/><path fill="#029198" id="AUDv2/3" d="m27 149 7 1c0-2.241-.804-17 1-17v-1l-7-1c0 5.361-1 12.004-1 18Z"/><path fill="#C7CBCB" id="bsc" d="M123 133h1v-2l-1 2Z"/><path fill="#CAC7CB" id="fiber tracts" d="m125 131-1 2v-2h1Z"/><path fill="#FF64FF" id="MB" d="M231 133c0 1.238-.423 3-2 3v-5h1l1 2Z"/><path fill="#CAC7CB" id="fiber tracts" d="M331 131c1.577 0 2 1.762 2 3-1.577 0-2-1.762-2-3Z"/><path fill="#C8C9CA" id="fp" d="m389 131 1 1-1-1Z"/><path fill="#029198" id="AUDv2/3" d="m429 149-6 1c0-6.216-1-12.292-1-18l6-1h1v18Z"/><path fill="#C8C9CA" id="fp" d="M61 147h3c.498 0 3-13.487 3-15l-2 2c0 1.048.473 3-1 3 0 1.048.473 3-1 3v1l-1 2v1l-1 1v2Z"/><path fill="#029197" id="AUDv4" d="M419 150h4c0-6.216-1-12.292-1-18l-4 1c0 5.421 1 11.091 1 17ZM34 150h3c0-5.849 2-11.627 2-17h-4c-1.804 0-1 14.759-1 17Z"/><path fill="#019098" id="AUDv5" d="M37 150c5.32 0 9.062 1 15 1 0-5.018 2-9.423 2-14-4.704 0-10.444-4-15-4 0 5.373-2 11.151-2 17Z"/><path fill="#C7C8CC" id="alv" d="M73 133c-1.995 0-2 4.377-2 6 1.353 0 2-4.643 2-6Z"/><path fill="#C7CBCB" id="bsc" d="M121 137h1l1-2v-2c-2.109 0-2 2.535-2 4Z"/><path fill="#CAC7CB" id="fiber tracts" d="m124 133-1 2v-2h1Z"/><path fill="#FF6F80" id="TH" d="M178 170c5.446 0 10.486 4 14 4 0-6.314-13-11.323-13-18-1.577 0-2-1.762-2-3-3.309 0-12-15.335-12-18l-2-2v1c0 11.506 11.26 15.021 16 24.5 1.782 3.564-1 4.499-1 7.5v4Z"/><path fill="#FC8FFF" id="PAG" d="M227 135c0 3.943 1 8.079 1 12.5l.5 7.5.5-19c1.577 0 2-1.762 2-3 1.477 0 5.699 2 9 2l3 5.5c2.869 5.738-1.704 28.409-4 33-2.34 4.679-.424 12.462-6.5 15.5-2.746 1.373-3.407-5-4-5-1.164 0-1.399 6.301-4 5-5.819-2.909-15.42-39.659-11.5-47.5l4-6.5c3.677 0 6.641-1 9-1l1 1Z"/><path fill="#FF6F80" id="TH" d="M278 170c-4.947 0-8.729 3-13 3l12-16 2-4c4.93 0 12-13.472 12-19l2-1c0 14.145-10.652 15.804-16 26.5-1.563 3.127 2 5.202 2 6.5l-1 4Z"/><path fill="#FD8F9C" id="Eth" d="M297 145c0 6.41-11.147 21-18 21 0-1.298-3.563-3.373-2-6.5 5.348-10.696 16-12.355 16-26.5l4 3v9Z"/><path fill="#C8C9CA" id="fp" d="M392 147h3v-3l-1-2c-2.227 0-1.773-9-4-9l2 14Z"/><path fill="#019098" id="AUDv5" d="M419 150c-4.875 0-8.568 1-14 1 0-4.577-2-8.982-2-14l15-4c0 5.421 1 11.091 1 17Z"/><path fill="#CCC8CA" id="ar" d="M65 134c-1.473 0-1 1.952-1 3 1.473 0 1-1.952 1-3Z"/><path fill="#FD8F9C" id="Eth" d="M159 145c1.59 0 1.443 4.386 2 5.5 2.643 5.286 10.478 15.5 17 15.5 0-3.001 2.782-3.936 1-7.5-4.74-9.479-16-12.994-16-24.5l-4 2c0 1.602 3.058 2.384 2 4.5l-2 4.5Z"/><path fill="#CAC7CB" id="fiber tracts" d="m123 135-1 2 1-2ZM333 135c1.577 0 2 1.762 2 3-1.577 0-2-1.762-2-3Z"/><path fill="#FF8E9D" id="SGN" d="m149 146 2 1c3.303 0 5.115-2 8-2l2-4.5c1.058-2.116-2-2.898-2-4.5l-6.5 3-4.5-1 1 8Z"/><path fill="#FD8DFF" id="RPF" d="M204 157h1c9.131 0 6.587-21 2-21l-4 2c0 2.475-4 5.984-4 9 0 1.654 1.198 8 3 8l2 2ZM257 148c0 3.337-1.993 9-6 9-9.296 0-5.604-21-2-21l4 2c0 1.883 4 5.321 4 10Z"/><path fill="#FF8E9D" id="SGN" d="M306 146h2v-8l-4.5 1c-2.355-1.178-3.646-3-6.5-3v9l8 2 1-1Z"/><path fill="#FF6F80" id="TH" d="M294 179h1c0-2.109 2.535-2 4-2l2-1 6-1 2-1 8-5-1-2.5 9-11.5v-2c-3.077 0-11.271-17-13-17v3c2.711 0 3 6.032 3 7 4.238 0 1 7.632 1 9 2.984 0-1.326 2-3 2h-3c-3.386 0-1.657 5.185-1 6.5l5 3-3 3c-2.451 2.451-7.319 4.5-11 4.5l-4 1-2 2v2Z"/><path fill="#019397" id="AUDv6a" d="m52 151 7 1c0-5.031 2-8.243 2-13l-7-2c0 4.577-2 8.982-2 14Z"/><path fill="#CCC8CA" id="ar" d="M63 139v1c1.473 0 1-1.952 1-3l-1 2Z"/><path fill="#C7CBCB" id="bsc" d="M119 141h2v-4l-2 4Z"/><path fill="#CAC7CB" id="fiber tracts" d="M122 137c0 1.048.473 3-1 3v-3h1Z"/><path fill="#FF6F80" id="TH" d="M162 177v1l-7-2-5-1h-1l-1-1c-1.347 0-8-3.438-8-5 0-1.531-6.05-13-8-13v-2l9-13.5 3-3.5v2c-2.189 0-3 5.066-3 7l-2 2.5 1 6.5c-2.984 0 1.326 2 3 2h3c8.567 0-3.326 9.848-3 10.5 1.905 3.81 10.138 6.5 14 6.5h3l2 3Z"/><path fill="#FE7F82" id="MGd" d="m149 146-2 1c-1.564 0-3.876-1-6-1 0-1.934.811-7 3-7 .701 0 4-3.889 4-1l1 8ZM315 146l-6 1-1-1v-8c2.878 0 2.954 1 4 1 2.711 0 3 6.032 3 7Z"/><path fill="#019397" id="AUDv6a" d="m405 151-7 1-3-13 7-2h1c0 5.018 2 9.423 2 14Z"/><path fill="#019198" id="AUDv6b" d="M59 152h1c0-1.048-.473-3 1-3v-4l1-1v-3l1-1v-1h-2c0 4.757-2 7.969-2 13Z"/><path fill="#C7C8CC" id="alv" d="M69 141v6c1.434 0 2-6.448 2-8l-2 2Z"/><path fill="#019198" id="AUDv6b" d="M396 152h2l-3-13h-1v3l1 2v3c1.643 0 1 3.765 1 5Z"/><path fill="#C9C9CA" id="scwm" d="M62 141h1v-1l-1 1Z"/><path fill="#CAC7CB" id="fiber tracts" d="m329 191-1 7c1.375 0 6-7.649 6-9-5.42 0 1.639-12 6-12 1.921 0 1.26-8.021 2-9.5 2.422-4.844-.6-27.5-5-27.5 0 1.93-1.161 0-2 0v3l1 1 1 4c7.345 0 7.639 23.43-3.5 29l-4.5 4v1c0 1.242 2.558 9 0 9Z"/><path fill="#CCC8CA" id="ar" d="m63 141-1 2v-2h1Z"/><path fill="#C8C9CA" id="fp" d="M67 147h2v-6c-.913 0-2 5.014-2 6Z"/><path fill="#CAC7CB" id="fiber tracts" d="M128 193c0 2.124 1 4.436 1 6-1.618 0-8-10.427-8-12l3 1.5c1.385-2.77-1.901-7.901-3.5-9.5-.657-.657-3.5-4.246-3.5-2-2.729 0-1.254-5.007-2-6.5-2.298-4.596-1.634-29.5 4-29.5h2v4l-2 4c-8.396 0-5.289 23.605 3.5 28l4.5 4c0 1.824-.781 12 1 12Z"/><path fill="#FE7F84" id="LGd-co" d="m121 145 3 2c0-1.238-1.923-5-3-5v3Z"/><path fill="#C9C9CA" id="scwm" d="m394 142 1 2-1-2Z"/><path fill="#FE7F84" id="LGd-co" d="m336 144-3 2c0-1.238.423-3 2-3l1 1Z"/><path fill="#C9C9CA" id="scwm" d="m62 144-1 1 1-1Z"/><path fill="#FF8FFD" id="MRN" d="M192 174v5c3.35 0 7.616 5.442 12.5 3 4.984-2.492 6.714-14.071 4.5-18.5l-4-6.5h-1l-2-2c-1.802 0-3-6.346-3-8-2.561 0-5.324-3-9-3l-4.5 5-4.5 3-1 1-1 3c0 6.677 13 11.686 13 18ZM264 174c0 2.413 1 3.51 1 5-1.841 0-3.57 2.035-5.5 3-9.003 4.502-16.072-10.355-12.5-17.5l4-7.5c4.007 0 6-5.663 6-9 .297 0 4.517-4 10-4 0 2.097 7.148 8 9 8l1 5-12 16-1 1Z"/><path fill="#FF909E" id="IGL" d="m325 155 1 6c3.114 0 5.702-7.202 7.5-9l3.5-4-1-4-3 2-1 1-1 1c0 1.77-4.902 5-6 5v2ZM132 156c-.672 0-2 4.329-2 5-3.68 0-6.646-12-11-12l2-4 3 2 1 1 7 6v2Z"/><path fill="#FF7E82" id="PoT" d="M157 174h3c5.929 0 11.619-4 18-4v-4c-6.522 0-14.357-10.214-17-15.5-.557-1.114-.41-5.5-2-5.5-2.885 0-4.697 2-8 2 0 4.913 5.85 11.2 8 15.5 1.973 3.945-2 8.292-2 11.5ZM300 174l-4 1c0-2.167-15.181-5-18-5l1-4c6.853 0 18-14.59 18-21l8 2c0 5.608-5.577 12.654-8 17.5-1.831 3.661 3 6.626 3 9.5Z"/><path fill="#FE7E83" id="MGv" d="M143 157h3l2-2.5c1.182-2.364-1-5.696-1-7.5-1.564 0-3.876-1-6-1l-2 2.5 1 6.5 3 2Z"/><path fill="#FD7F83" id="MGm" d="M146 157c8.567 0-3.326 9.848-3 10.5 1.905 3.81 10.138 6.5 14 6.5 0-3.208 3.973-7.555 2-11.5-2.15-4.3-8-10.587-8-15.5l-2-1-2 1c0 1.804 2.182 5.136 1 7.5l-2 2.5Z"/><path fill="#FF7E82" id="PoT" d="m306 146-1 1 1-1Z"/><path fill="#FD7F83" id="MGm" d="M310 157c-3.386 0-1.657 5.185-1 6.5l5 3-3 3c-2.451 2.451-7.319 4.5-11 4.5 0-2.874-4.831-5.839-3-9.5 2.423-4.846 8-11.892 8-17.5l1-1h2l1 1-1 5.5 2 4.5Z"/><path fill="#FE7E83" id="MGv" d="M310 157h3l3-2c0-1.368 3.238-9-1-9l-6 1-1 5.5 2 4.5Z"/><path fill="#FE7F84" id="LGd-co" d="m333 146-1 1 1-1Z"/><path fill="#CCC8CA" id="ar" d="M61 149c0 1.406-.714 7 1 7 3.087 0 2-6.96 2-9h-3v2Z"/><path fill="#C8CBCC" id="ec" d="M69 148c-2.592 0 .592 6-2 6v-7h2v1Z"/><path fill="#FE7F84" id="LGd-co" d="m332 147-1 1 1-1Z"/><path fill="#C8CBCC" id="ec" d="M389 147c0 3.823 1 8.586 1 13-.964 0-2-11.483-2-13h1Z"/><path fill="#CCC8CA" id="ar" d="M395 147c0 1.574.751 9-1 9-1.274 0-2-7.483-2-9h3Z"/><path fill="#C8CBCC" id="ec" d="M387 195v1l5-5c0-6.882 3-15.582 3-23l1-16c0-1.235.643-5-1-5 0 1.574.751 9-1 9 0 1.513-.359 9.071-2.5 8l-1.5-3c0 5.605-1 10.861-1 16 0 6.547-2 12.123-2 18Z"/><path fill="#C7C8CC" id="alv" d="M132 235h2c0-1.663-5.407-2-7-2l-10-4c-4.844 0-15.732-10.616-20.5-13-15.523-7.761-20.263-26.026-27.5-40.5-2.546-5.092 0-20.847 0-27.5-2.592 0 .592 6-2 6 0 1.574.751 9-1 9l1 12c.666 0 4.25 12.001 5 13.5 4.66 9.318 10.398 21.449 20.5 26.5l6.5 6c5.111 0 21.589 14 33 14Z"/><path fill="#FF8E9F" id="LGv" d="M326 163c0 5.273 3 10.688 3 18l4.5-4c11.139-5.57 10.845-29 3.5-29l-3.5 4c-1.798 1.798-4.386 9-7.5 9v2Z"/><path fill="#15B0B3" id="TEa1" d="m28 170-5 1c0-7.353-2-14.277-2-22h6c0 7.052 1 14.555 1 21Z"/><path fill="#16AFB3" id="TEa2/3" d="M28 170h1c.892 0 9-1.305 9-2-1.952 0-.477-2.454-1-3.5-2.097-4.195-3-9.487-3-14.5l-7-1c0 7.052 1 14.555 1 21Z"/><path fill="#C8CBCC" id="ec" d="M73 201v1c-.639 0-8-10.064-8-11 0-7.944-3-14.868-3-23 0-5.192-2-10.33-2-16 0-1.048-.473-3 1-3 0 1.406-.714 7 1 7 0 4.177.906 7 4 7l1 12c0 7.049 2 12.432 2 19l1 1v1l3 4v1Z"/><path fill="#FF8E9F" id="LGv" d="M131 163c0 4.307-4 10.87-4 18l-4.5-4c-8.789-4.395-11.896-28-3.5-28 4.354 0 7.32 12 11 12l1 2Z"/><path fill="#16AFB3" id="TEa2/3" d="M419 168c0 .695 8.108 2 9 2 0-6.228 1-14.097 1-21l-6 1c0 6.08-4 12.16-4 18Z"/><path fill="#15B0B3" id="TEa1" d="m428 170 5 1c0-7.214 2-14.278 2-22h-6c0 6.903-1 14.772-1 21Z"/><path fill="#15B0B2" id="TEa4" d="M38 168h1l-2-18h-3c0 5.013.903 10.305 3 14.5.523 1.046-.952 3.5 1 3.5Z"/><path fill="#15AFB3" id="TEa5" d="M39 168h12c0-5.587 1-12.081 1-17-5.938 0-9.68-1-15-1l2 18ZM405 168h12c0-5.877 2-11.453 2-18-4.875 0-8.568 1-14 1v17Z"/><path fill="#15B0B2" id="TEa4" d="M417 168h2c0-5.84 4-11.92 4-18h-4c0 6.547-2 12.123-2 18Z"/><path fill="#15AFB2" id="TEa6a" d="M51 168h9l-1-16-7-1c0 4.919-1 11.413-1 17ZM396 168h9v-17l-7 1-2 16Z"/><path fill="#16B0B2" id="TEa6b" d="M60 168h2c0-5.192-2-10.33-2-16h-1l1 16Z"/><path fill="#FF64FF" id="MB" d="m181 152-1 1 1-1ZM279 153l-2 4-1-5 3 1Z"/><path fill="#16B0B2" id="TEa6b" d="M395 168h1l2-16h-2l-1 16Z"/><path fill="#FF64FF" id="MB" d="m180 153-1 3c-1.577 0-2-1.762-2-3h3Z"/><path fill="#C8CBCC" id="ec" d="M67 154c-1.751 0-1 7.426-1 9 1.751 0 1-7.426 1-9Z"/><path fill="#CCC8CA" id="ar" d="m140 155 3 2c-1.674 0-5.984-2-3-2Z"/><path fill="#FF64FF" id="MB" d="m202 155 2 2-2-2Z"/><path fill="#CCC8CA" id="ar" d="M316 155c2.984 0-1.326 2-3 2l3-2Z"/><path fill="#FE8D9D" id="IntG" d="m326 163-9 6-1-2.5 9-11.5 1 6v2ZM139 169h1c0-1.531-6.05-13-8-13-.672 0-2 4.329-2 5l1 2 7 5 1 1Z"/><path fill="#F0483B" id="ZI" d="M173 201c-1.447 0-4.54 3-8 3-11.845 0-20.609-12.054-30.5-17l-7.5-6c0-7.13 4-13.693 4-18l7 5 1 1h1c0 1.562 6.653 5 8 5l1 1h1c0 1.514 5.537 5 7 5 0 4.11 16 11.597 16 21ZM284 199c0 4.698 3.024 5 7 5 11.763 0 21.634-12.067 31.5-17l6.5-5v-1c0-7.312-3-12.727-3-18l-9 6-8 5-2 1-7 5c0 3.501-16 10.514-16 19Z"/><path fill="#0D9F91" id="ECT2/3" d="M34 185c3.978 0 7.549 2 11 2 0-6.604-6-12.771-6-19h-1c0 .695-8.108 2-9 2 0 4.278 4.252 6.005 6 9.5.978 1.956-1 4.077-1 5.5Z"/><path fill="#0D9E90" id="ECT5" d="M45 187c4.217 0 7.806 4 12 4 0-7.892-6-14.123-6-23H39c0 6.229 6 12.396 6 19Z"/><path fill="#0E9F91" id="ECT6a" d="M61 191h3c0-7.62-4-15.435-4-23h-9c0 8.877 6 15.108 6 23v1l4-1Z"/><path fill="#0E9F90" id="ECT6b" d="M64 191h1c0-7.944-3-14.868-3-23h-2c0 7.565 4 15.38 4 23Z"/><path fill="#FF6F80" id="TH" d="m138 168 1 1-1-1Z"/><path fill="#0E9F90" id="ECT6b" d="M392 191h1c0-7.941 3-15.262 3-23h-1c0 7.418-3 16.118-3 23Z"/><path fill="#0E9F91" id="ECT6a" d="m400 191-1 1-4-1h-2c0-7.941 3-15.262 3-23h9c0 9.074-5 14.828-5 23Z"/><path fill="#0D9E90" id="ECT5" d="M411 187c-4.019 0-7.17 4-11 4 0-8.172 5-13.926 5-23h12l-6 19Z"/><path fill="#0D9F91" id="ECT2/3" d="m422 185-11 2 6-19h2c0 .695 8.108 2 9 2 0 3.266-6 7.037-6 15Z"/><path fill="#0D9F90" id="ECT1" d="m28 184 6 1c0-1.423 1.978-3.544 1-5.5-1.748-3.495-6-5.222-6-9.5h-1l-5 1c0 2.671 5 5.101 5 13Z"/><path fill="#FE8084" id="SPFp" d="M176 180c1.048 0 3-.473 3 1 4.904 0 11.072-2 13-2v-5c-3.514 0-8.554-4-14-4-6.381 0-12.071 4-18 4l2 3h2l2 1h2l1 1h5l1 1h1ZM280 180h1l1-1h5l2-1h2l1-1h2l2-2c0-2.167-15.181-5-18-5-4.947 0-8.729 3-13 3l-1 1c0 2.413 1 3.51 1 5 2.147 0 7.689 2 12 2 0-1.473 1.952-1 3-1Z"/><path fill="#0D9F90" id="ECT1" d="m428 184-6 1c0-7.963 6-11.734 6-15l5 1c0 3.663-5 6.529-5 13Z"/><path fill="#FF6F80" id="TH" d="m265 173-1 1 1-1Z"/><path fill="#E64438" id="HY" d="m148 174 1 1-1-1ZM309 174l-2 1 2-1Z"/><path fill="#A8AAAA" id="VL" d="M93 222h1c1.234 0 5 .643 5-1l-6.5-6c-10.102-5.051-15.84-17.182-20.5-26.5-.75-1.499-4.334-13.5-5-13.5 0 7.049 2 12.432 2 19l1 1v1l3 4v1l8 12v1l1 1c0 4.087 6.741 6 10 6l1 1Z"/><path fill="#E64438" id="HY" d="m159 179-2 1c-1.463 0-7-3.486-7-5l5 1 4 3ZM297 179l3 1 7-5-6 1-2 1-2 2Z"/><path fill="#CACCCB" id="opt" d="m120 184 1 3 3 1.5c1.385-2.77-1.901-7.901-3.5-9.5-.657-.657-3.5-4.246-3.5-2 0 2.72 2 3.553 2 6l1 1Z"/><path fill="#FF64FF" id="MB" d="M159 179h3v-1l-7-2 4 3ZM301 176l-2 1 2-1Z"/><path fill="#CACCC8" id="ml" d="m179 181 10.5 8c.788.788 2.915 4.042 1 5l-3.5-1c-7.057 0-18.363-14-25-14v-2h2l2 1h2l1 1h5l1 1h1c0 1.473 1.952 1 3 1Z"/><path fill="#FF6F80" id="TH" d="m164 177 2 1-2-1Z"/><path fill="#C7CAC9" id="fr" d="m211 177-4 7.5c-.961 1.921 4.819 7.84 7.5 6.5 6.061-3.031 2.313-14-3.5-14ZM241 177l-1 6.5c0 20.18 19.728-6.5 1-6.5Z"/><path fill="#FF6F80" id="TH" d="m292 177-1 1 1-1Z"/><path fill="#CACCC8" id="ml" d="m269 193-1 1c-2.762 0-4.005-2.495-2-4.5l11-8.5c1.048 0 3 .473 3-1h1l1-1h5l2-1h2l1-1h2v2c-4.901 0-18.926 14-25 14Z"/><path fill="#FF64FF" id="MB" d="M295 179h2l2-2c-1.465 0-4-.109-4 2Z"/><path fill="#CACCCB" id="opt" d="M334 188v1c-5.42 0 1.639-12 6-12l-3 7-1 1-1 1v1l-1 1Z"/><path fill="#A8AAAA" id="VL" d="M364 221h3l1-1c2.643 0 7-3.108 7-6l1-1c0-1.429 1.288-4 3-4 0-1.572 2.052-7 4-7v-1l1-1 1-2v-1l1-1 1-1c0-5.877 2-11.453 2-18-1.259 0-3.283 9.067-4 10.5-2.952 5.904-14.207 27.5-22 27.5l-5 6c0 1.643 3.765 1 5 1l1-1Z"/><path fill="#FF6F80" id="TH" d="m168 178 1 1-1-1ZM289 178l-2 1 2-1Z"/><path fill="#F24739" id="FF" d="m173 201 10 5c13.271 0 4-11.223 4-13-7.057 0-18.363-14-25-14h-3l-2 1c0 4.11 16 11.597 16 21Z"/><path fill="#FF6F80" id="TH" d="m174 179 1 1-1-1ZM282 179l-1 1 1-1Z"/><path fill="#F24739" id="FF" d="m284 199-3.5 4-6.5 3c-10.604 0-6-7.263-6-12l1-1c6.074 0 20.099-14 25-14h3l3 1c0 3.501-16 10.514-16 19Z"/><path fill="#FF6F80" id="TH" d="M176 180c1.048 0 3-.473 3 1-1.048 0-3 .473-3-1ZM280 180c-1.048 0-3-.473-3 1 1.048 0 3 .473 3-1Z"/><path fill="#CAC7CB" id="fiber tracts" d="m119 183 1 1-1-1Z"/><path fill="#0E9584" id="PERI1" d="M27 195h6l1-10-6-1c0 2.592-.958 3.416-2 5.5-.978 1.956 1 4.077 1 5.5Z"/><path fill="#CAC7CB" id="fiber tracts" d="m337 184-1 1 1-1Z"/><path fill="#0E9584" id="PERI1" d="M423 195c1.321 0 6-.684 6 1 3.523 0-1-11.118-1-12l-6 1c0 2.69 1 6.675 1 10Z"/><path fill="#0E9583" id="PERI2/3" d="M33 195h8l7-1-3-7c-3.451 0-7.022-2-11-2l-1 10Z"/><path fill="#CAC7CB" id="fiber tracts" d="m336 185-1 1 1-1Z"/><path fill="#0E9583" id="PERI2/3" d="M415 195h8c0-3.325-1-7.31-1-10l-11 2-2 7 6 1Z"/><path fill="#0F9684" id="PERI5" d="m56 193-8 1-3-7c4.217 0 7.806 4 12 4v1l-1 1Z"/><path fill="#CAC7CB" id="fiber tracts" d="m335 187-1 1 1-1Z"/><path fill="#0F9684" id="PERI5" d="M408 194h1l2-7c-4.019 0-7.17 4-11 4l-1 1 1 1 8 1Z"/><path fill="#CCCAC7" id="cpd" d="M172 242h4l3.5-1c1.701-.85 4.893-2.714 3.5-5.5l-3-2.5c-3.456 0-7.197 1.652-10.5 0-6.374-3.187-25.5-15.529-25.5-24-5.526 0-1.604-12.708-3-15.5-1.987-3.974-13-7.675-13-.5 0 2.124 1 4.436 1 6v1l1 1c0 4.944 15 16.308 15 21l1 1 1 1 1 1 1 1 1 1 1 1 1 1 2 2 1 1 1 1h1l2 2h1l2 2h1l4 3h1l1 1 3 1ZM280 242h4l4-1 1-1 2-1 1-1 2-1 1-1 2-1 1-1 2-1 1-1 1-1 1-1 2-1 1-1 1-1 1-1 1-1 1-1 1-1c0-1.747.253-2 2-2v-1l1-1 1-1c0-1.238.423-3 2-3 0-1.747.253-2 2-2 0-1.238.423-3 2-3 0-1.238.423-3 2-3 0-3.39 5-5.621 5-9l1-7c-2.838 0-9.738-5.024-14 3.5-.81 1.621 3.564 13.5-2 13.5 0 7.827-19.314 21.907-25.5 25-3.646 1.823-7.726 0-11.5 0 0 3.425-5.674 9 4 9Z"/><path fill="#32B824" id="ENTl6a" d="M66 223h2l1-1c0-6.556-5.26-12.018-8-17.5V191l-4 1-1 1c0 10.807 10 19.585 10 30Z"/><path fill="#A0EE9C" id="EPd" d="M72 227h2l3-3 2-2.5c1.986-3.973-2-8.553-2-11.5l-3-6-1-1v-1c-.639 0-8-10.064-8-11h-4v13.5c2.74 5.482 8 10.944 8 17.5l1 2 2 3Z"/><path fill="#FD4B3C" id="PH" d="M239 207c-.434 0-4.87 5.185-6.5 6-2.535 1.267-3.261-2-4-2-1.511 0-2.522 3.239-5 2l-5.5-5-1-5c0-6.014 1.682-14.909 9.5-11l2 2 3-3c7.544-3.772 7.5 8.913 7.5 12v4Z"/><path fill="#A0EE9C" id="EPd" d="M382 227h2l2-2 1-1v-2c0-5.918 5.495-11.489 8-16.5 2.104-4.209 0-10.286 0-14.5h-3l-5 5c0 1.238-.423 3-2 3v1l-1 1-1 2v1l-1 1-3 4v2l-1 1c0 2.421-2.411 6.678-1 9.5l2 2.5 3 3Z"/><path fill="#32B824" id="ENTl6a" d="M388 223h3c0-10.861 9-18.886 9-30l-1-1-4-1c0 4.214 2.104 10.291 0 14.5-2.505 5.011-8 10.582-8 16.5l1 1Z"/><path fill="#31B824" id="ENTl5" d="M57 223h9c0-10.415-10-19.193-10-30l-8 1c0 10.444 9 19.109 9 29Z"/><path fill="#FF64FF" id="MB" d="m269 193-1 1 1-1Z"/><path fill="#31B824" id="ENTl5" d="M391 223h8c0-8.65 9-18.51 9-29l-8-1c0 11.114-9 19.139-9 30Z"/><path fill="#32B725" id="ENTl3" d="M57 223c-2.885 0-4.697 2-8 2 0-9.876-8-19.397-8-30l7-1c0 10.444 9 19.109 9 29ZM399 223c2.885 0 4.697 2 8 2 0-8.04 8-19.088 8-30l-6-1h-1c0 10.49-9 20.35-9 29Z"/><path fill="#32B722" id="ENTl1" d="m43 227-4 1c0-7.422-12-21.755-12-33h6c0 10.842 10 25.129 10 32Z"/><path fill="#32B825" id="ENTl2" d="m49 225-6 2c0-6.871-10-21.158-10-32h8c0 10.603 8 20.124 8 30ZM407 225l7 2c0-8.462 9-19.926 9-32h-8c0 10.912-8 21.96-8 30Z"/><path fill="#32B722" id="ENTl1" d="m414 227 3 1c0-6.379 12-20.875 12-32 0-1.684-4.679-1-6-1 0 12.074-9 23.538-9 32Z"/><path fill="#C8CBCC" id="ec" d="M385 198v1c1.577 0 2-1.762 2-3h-1l-1 1v1Z"/><path fill="#E64438" id="HY" d="M291 204c0 1.643-3.765 1-5 1-3.312 0-8.038 1-12 1l6.5-3 3.5-4c0 4.698 3.024 5 7 5Z"/><path fill="#CAC7CB" id="fiber tracts" d="m129 200 1 1-1-1Z"/><path fill="#FF8DFD" id="SNr" d="M181 225c0 1.423 1.978 3.544 1 5.5l-2 2.5c-3.456 0-7.197 1.652-10.5 0-6.374-3.187-25.5-15.529-25.5-24 0-12.879 14-8.596 14-3 0 2.307 2.879 4 5 4 0 1.803 6.495 6 8 6 0 4.673 5.665 9 10 9ZM275 225l-1 4.5 2 3.5c3.774 0 7.854 1.823 11.5 0 6.186-3.093 25.5-17.173 25.5-25 0-15.864-11.738-3-15-3 0 2.601-1.04 5-4 5-3.07 0-5.349 6-9 6 0 4.786-5.514 9-10 9Z"/><path fill="#C8CBCC" id="ec" d="m385 200-1 1v-1h1Z"/><path fill="#E64438" id="HY" d="M165 204c0 1.643 3.765 1 5 1 3.823 0 8.586 1 13 1l-10-5c-1.447 0-4.54 3-8 3Z"/><path fill="#C8CBCC" id="ec" d="M383 202v1l1-2h-1v1ZM73 203l1 1-1-1Z"/><path fill="#C8C8C8" id="mtg" d="M217 203c-2.488 0-5.364 5 1 5l-1-5ZM239 203c6.576 0 0 9.425 0 4v-4Z"/><path fill="#C8CBCC" id="ec" d="m383 204-1 1 1-1Z"/><path fill="#FFA6FD" id="SNc" d="M158 206c2.896 0 5-.696 5 4-2.121 0-5-1.693-5-4ZM298 205c-4.397 0-4 2.771-4 5 2.96 0 4-2.399 4-5Z"/><path fill="#C7C8CC" id="alv" d="M323 207c-1.577 0-2 1.762-2 3 1.577 0 2-1.762 2-3Z"/><path fill="#8AD987" id="CTXsp" d="M81 225h1l1-1c0-3.321 9.1-1 11-1v-1h-1l-1-1c-3.259 0-10-1.913-10-6l-1-1v-1c-2.618 0-1.65-3-4-3 0 2.947 3.986 7.527 2 11.5l-2 2.5c1.145 0 4-.579 4 1Z"/><path fill="#C7C8CC" id="alv" d="M321 210c-1.577 0-2 1.762-2 3 1.577 0 2-1.762 2-3Z"/><path fill="#8AD987" id="CTXsp" d="m379 211-1 1 1-1ZM379 224l-4 1-5.5-3-6.5 1v-1l1-1h3l1-1c2.643 0 7-3.108 7-6l1-1 2-1c0 2.421-2.411 6.678-1 9.5l2 2.5Z"/><path fill="#C7C8CC" id="alv" d="M319 213c-1.747 0-2 .253-2 2l2-2ZM317 215c-1.577 0-2 1.762-2 3 1.577 0 2-1.762 2-3ZM322 235h2c12.316 0 27.33-14 34-14l5-6c-7.386 0-13.255 12-21 12l-2 1-1 1h-1l-1 1-4 1-2 1-2 1c-1.296 0-7 .825-7 2Z"/><path fill="#FFA6FD" id="SNc" d="m182 223-1 2c-4.335 0-10-4.327-10-9l6 2c1.925 0 5 3.075 5 5Z"/><path fill="#FE8DFF" id="VTA" d="M177 218c1.925 0 5 3.075 5 5 11.963 0-5-11.536-5-5Z"/><path fill="#CBCCCB" id="mfb" d="M197 231v1l12-9c0-13.294-12-5.114-12 8ZM259 231v1l-11-9c0-13.588 11-4.284 11 8Z"/><path fill="#FE8DFF" id="VTA" d="m279 218-4 4-3.5 1c-5.457-2.728 7.5-11.241 7.5-5Z"/><path fill="#FFA6FD" id="SNc" d="M275 222v3c4.486 0 10-4.214 10-9l-6 2-4 4Z"/><path fill="#C7C8CC" id="alv" d="m315 218-1 1 1-1Z"/><path fill="#FF493D" id="SUM" d="M265 241c-1.717 0-4 1.252-4 3-3.365 0-10.22-11-16-11 0-3.985-3.223-1-5-1 0-1.579-2.855-1-4-1l-1 1h-14c0-1.643-3.765-1-5-1-2.312 0-5-.868-5 2-5.385 0-11.375 10-15 10l-5-2 6-9 12-9c5.152 0 12.457-7.021 18.5-4 1.746.873 5.481-1.259 8 0 2.911 1.456 9.314 4 12.5 4l11 9c0 3.07 6 5.349 6 9Z"/><path fill="#C7C8CC" id="alv" d="m314 219-1 1 1-1ZM313 221c-1.747 0-2 .253-2 2l2-2Z"/><path fill="#99D2BD" id="OLF" d="m68 223 2 1-1-2-1 1Z"/><path fill="#9DE69C" id="BLAp" d="M85 251h6c0-4.134 12-16.357 12-21v-3l-9-4c-1.9 0-11-2.321-11 1l-1 1h-1c0 3.814-2.17 26 4 26ZM366 251l5 1 3-3.5 2-7c2.129-4.259-1-12.572-1-16.5l-5.5-3-6.5 1-9 4-1 1v1l9 17.5 4 4.5Z"/><path fill="#99D2BD" id="OLF" d="M387 223h1l-1-1v1Z"/><path fill="#6ACAB9" id="PIR" d="m72 279-2 1c-3.489 0-9.78-10.059-11-12.5-4.718-9.436-20-29.127-20-39.5l4-1 6-2c3.303 0 5.115-2 8-2h11l2 1 2 3 1 1 1 18.5 3 9.5v9c-1.995 0-2 4.377-2 6-1.638 0-2 3.576-2 5v1l-1 2Z"/><path fill="#C7C8CC" id="alv" d="m146 223 1 1-1-1ZM311 223l-1 1 1-1Z"/><path fill="#6ACAB9" id="PIR" d="m383 276 3 4c3.157 0 8.884-8.268 10-10.5 5.604-11.209 21-28.697 21-41.5l-3-1-7-2c-3.303 0-5.115-2-8-2h-12v1l-1 1-2 2-1 2c0 9.669-3 19.181-3 26l-1 1v1c0 6.837 4 11.785 4 18v1Z"/><path fill="#A0ED9D" id="EPv" d="M85 254c0 3.937-6.48 2-8 2l-3-9.5-1-18.5 1-1 3-3c1.145 0 4-.579 4 1 0 3.814-2.17 26 4 26v3Z"/><path fill="#90EB8D" id="LA" d="m83 224-1 1 1-1Z"/><path fill="#C7C8CC" id="alv" d="m310 224-1 1 1-1Z"/><path fill="#A0ED9D" id="EPv" d="M379 256v1c-2.833 0-4.84-2-7-2l-1-3 3-3.5 2-7c2.129-4.259-1-12.572-1-16.5l4-1 3 3 1 2c0 9.669-3 19.181-3 26l-1 1Z"/><path fill="#99D2BD" id="OLF" d="m387 224-1 1 1-1Z"/><path fill="#C7C8CC" id="alv" d="m148 225 1 1-1-1ZM309 225l-1 1 1-1ZM308 226l-1 1 1-1Z"/><path fill="#8AD987" id="CTXsp" d="m74 227-1 1-1-1h2ZM105 229l-2 1v-3l2 2Z"/><path fill="#C7C8CC" id="alv" d="m150 227 1 1-1-1ZM307 227l-1 1 1-1Z"/><path fill="#7ECF4B" id="CA1" d="m342 227-2 1 2-1Z"/><path fill="#8AD987" id="CTXsp" d="m354 227-1 1 1-1ZM384 227l-1 2-1-2h2Z"/><path fill="#C7C8CC" id="alv" d="m306 228-1 1 1-1Z"/><path fill="#7ECF4B" id="CA1" d="m340 228-1 1 1-1Z"/><path fill="#8AD987" id="CTXsp" d="M351 229h2v-1l-2 1Z"/><path fill="#84E981" id="BMAp" d="M91 256c0 2.226 1.774 4 4 4 3.712 0 5.653-5 9-5 0-.669 11-12.922 11-18l-3-5-4-2-1-1h-2l-2 1c0 4.643-12 16.866-12 21v5Z"/><path fill="#8AD987" id="CTXsp" d="m107 229 1 1-1-1Z"/><path fill="#C7C8CC" id="alv" d="m152 229 2 2-2-2ZM305 229l-2 1 2-1Z"/><path fill="#7ECF4B" id="CA1" d="m338 229-1 1 1-1Z"/><path fill="#84E981" id="BMAp" d="m365 259-4 1c-2.919 0-4.243-4-7-4l-1-1h-1c0-3.119-10-10.969-10-17l1-5h1l1-1 6-3h2l9 17.5 4 4.5v5l-1 3Z"/><path fill="#E64438" id="HY" d="M191 241c-3.354 0-5.291 2-8 2 0-3.929 10.548-12 14-12v1l-6 9Z"/><path fill="#C8CBCA" id="pm" d="m217 235-4 2-2-4c0-2.868 2.688-2 5-2l1 3v1Z"/><path fill="#FD4A3D" id="Mmd" d="M221 232c0 2.641-1.823 2-4 2l-1-3c1.235 0 5-.643 5 1Z"/><path fill="#FD4B3E" id="Mmme" d="m236 231-1 1 1-1Z"/><path fill="#FD4A3D" id="Mmd" d="m240 232-1 2c-2.177 0-4 .641-4-2l1-1c1.145 0 4-.579 4 1Z"/><path fill="#C8CBCA" id="pm" d="m239 235 4 2 2-4c0-3.985-3.223-1-5-1l-1 2v1Z"/><path fill="#E64438" id="HY" d="M265 241c4.35 0 8.219 3 9 3 0-4.454-11.089-13-15-13v1c0 3.07 6 5.349 6 9Z"/><path fill="#C7C8CC" id="alv" d="m302 231-1 1 1-1Z"/><path fill="#7DCF4B" id="CA2" d="m333 231-2 1 2-1Z"/><path fill="#8AD987" id="CTXsp" d="M115 237h2l1-2c-2.003 0-3 .293-3-2l-3-1 3 5Z"/><path fill="#C7C8CC" id="alv" d="m155 232 1 1-1-1Z"/><path fill="#FD4B3E" id="Mmme" d="M229 261h6c0-6.397-4.093-26 4-26v-1c-2.177 0-4 .641-4-2h-14c0 2.641-1.823 2-4 2v1c9.231 0 4 20.293 4 26h6c0-1.399 2-1.399 2 0Z"/><path fill="#C7C8CC" id="alv" d="m301 232-1 1 1-1Z"/><path fill="#7DCF4B" id="CA2" d="m331 232-2 1 2-1Z"/><path fill="#8AD987" id="CTXsp" d="m345 232-1 1 1-1Z"/><path fill="#CAC7CB" id="fiber tracts" d="M123 237h5c0-1.427-11.185-4-13-4 0 2.293.997 2 3 2 1.424 0 5 .362 5 2Z"/><path fill="#C7C8CC" id="alv" d="m157 233 2 2-2-2Z"/><path fill="#FC4B3E" id="Mml" d="M196 255c.023 0 6.573 5 10 5 0-6.71 7-17.202 7-23l-2-4c-5.385 0-11.375 10-15 10v12ZM260 255c0 3.703-7.526 5-10 5 0-6.168-7-19.769-7-23l2-4c5.78 0 12.635 11 16 11l-1 11Z"/><path fill="#CAC7CB" id="fiber tracts" d="M335 235h4c1.238 0 3-.423 3-2-1.593 0-7 .337-7 2Z"/><path fill="#8AD987" id="CTXsp" d="m339 237 3 1 1-5h-1c0 1.577-1.762 2-3 2v2Z"/><path fill="#C7C8CC" id="alv" d="m298 234-1 1 1-1Z"/><path fill="#C8CBC7" id="st" d="M117 237h6c0-1.638-3.576-2-5-2l-1 2Z"/><path fill="#7DCD4B" id="HPF" d="M157 252c0 .616-6.93 3-8 3 0-6.492-12-12.121-12-15l-1-1h-1c0-2.618-3-1.651-3-4h3l2 1c10.946 0 12.023 14.762 14.5 16h5.5Z"/><path fill="#C7C8CC" id="alv" d="m135 235 2 1-2-1ZM160 235l2 2-2-2Z"/><path fill="#FE4A3C" id="Mmm" d="M219 261h2c0-5.707 5.231-26-4-26l-4 2c0 5.798-7 16.29-7 23 3.629 0 8.716 1 13 1ZM235 261h3c3.962 0 8.688-1 12-1 0-6.168-7-19.769-7-23l-4-2c-8.093 0-4 19.603-4 26Z"/><path fill="#C7C8CC" id="alv" d="m297 235-2 1 2-1ZM321 235l-2 1 2-1Z"/><path fill="#7DCD4B" id="HPF" d="M300 252c0 .286 6.302 3 7 3 0-2.802 9.72-15 13-15l1-1 3-4h-3l-2 1c-11.734 0-9.14 16-19 16Z"/><path fill="#CAC7CB" id="fiber tracts" d="M329 237h5l1-2c-1.623 0-6 .005-6 2Z"/><path fill="#C8CBC7" id="st" d="M334 237h5v-2h-4l-1 2Z"/><path fill="#C7C8CC" id="alv" d="m295 236-1 1 1-1Z"/><path fill="#97EC93" id="PA" d="m113 256 4.5-3h14c1.238.619 11.492 7 11.5 7l6-5c0-6.492-12-12.121-12-15l-1-1h-1c-2.16 0-4.167-2-7-2h-13c0 5.078-11 17.331-11 18 3.013 0 6.611 1 9 1Z"/><path fill="#C7C8CC" id="alv" d="M166 240h1l-4-3 2 3h1Z"/><path fill="#97EC93" id="PA" d="M343 256c0-5.28-29-3.834-29 5-2.162 0-3.798-6-7-6 0-2.802 9.72-15 13-15l1-1c2.709 0 4.646-2 8-2h10l3 1c0 6.031 10 13.881 10 17-3.013 0-6.611 1-9 1Z"/><path fill="#C7C8CC" id="alv" d="m292 238-1 1 1-1ZM290 240h1v-1l-2 1h1Z"/><path fill="#7DCD4B" id="HPF" d="m166 240-1 1v-1h1Z"/><path fill="#65A83D" id="DG-sg" d="m161 244-2 1c2.862 0 9 1.922 9-4v-1h-2l-1 1c0 1.577-1.762 2-3 2l-1 1Z"/><path fill="#7DCD4B" id="HPF" d="M168 241h1l-1-1v1Z"/><path fill="#7BD04A" id="DG-mo" d="m289 240-1 1 1-1Z"/><path fill="#65A83D" id="DG-sg" d="m296 244 1 1c0 2.883-9-.338-9-4l1-1h1l1 1c0 1.803 3.592 3 5 3Z"/><path fill="#7DCD4B" id="HPF" d="M291 240v1l-1-1h1Z"/><path fill="#7ECE4A" id="DG-po" d="M165 241c-1.238 0-3 .423-3 2 1.238 0 3-.423 3-2Z"/><path fill="#7BD04A" id="DG-mo" d="m158 251 1 1c4.612 0 11.672.157 14-4.5.978-1.956-1-4.077-1-5.5l-3-1h-1c0 5.922-6.138 4-9 4 0 1.564-1 3.876-1 6Z"/><path fill="#FF4B3D" id="LM" d="M191 257h1l4-2v-12l-5-2c-3.354 0-5.291 2-8 2l-1 4c0 5.193 2.476 9 8 9l1 1ZM260 255c1.041 0 5 .986 5 2 6.872 0 10-5.702 10-12l-1-1c-.781 0-4.65-3-9-3-1.717 0-4 1.252-4 3l-1 11Z"/><path fill="#7BD04A" id="DG-mo" d="M290 252h7l1-1c0-1.033 2.19-6-1-6 0 2.883-9-.338-9-4l-4 1c0 3.068-1.079 9 5 9l1 1Z"/><path fill="#7ECE4A" id="DG-po" d="M291 241c1.238 0 5 1.923 5 3-1.408 0-5-1.197-5-3ZM162 243l-1 1 1-1Z"/><path fill="#8AD987" id="CTXsp" d="M85 254c2.483 0 4.026 2 6 2v-5h-6v3Z"/><path fill="#7DCD4B" id="HPF" d="M157 252h2l-1-1-1 1ZM289 251l1 1-1-1ZM297 252h2l-1-1-1 1Z"/><path fill="#8AD987" id="CTXsp" d="M366 256h1l1-1c0-2.56 3.334 0 4 0l-1-3-5-1v5Z"/><path fill="#60E6B5" id="COApm" d="M143 260c0 3.216-22.385 24-26 24-3.438 0-8.136-20.228-6-24.5l2-3.5 4.5-3h14c1.238.619 11.492 7 11.5 7ZM314 261c0 3.595 22.695 23 26 23l5-9.5c1.535-3.07 1.402-13.197 0-16l-2-2.5c0-5.28-29-3.834-29 5Z"/><path fill="#99D2BD" id="OLF" d="M77 265c2.15 0 8.565-16.371 13-7.5l1 3c.86 1.718 1 2.387 1 4.5 1.077 0 3-3.762 3-5-2.226 0-4-1.774-4-4-1.974 0-3.517-2-6-2 0 3.937-6.48 2-8 2v9ZM379 257c0 6.837 4 11.785 4 18-2.499 0-4.169-20-15-20 0-2.56 3.334 0 4 0 2.16 0 4.167 2 7 2Z"/><path fill="#59D9AA" id="PAA" d="M89 281c-.675 0-2 5.294-2 6-3.447 0-15-1.414-15-6v-2l1-2v-1c1.638 0 2-3.576 2-5 1.995 0 2-4.377 2-6 2.15 0 8.565-16.371 13-7.5l1 3c.86 1.718 1 2.387 1 4.5l-1 6-1 2v2c-1.58 0-1 2.855-1 4v2Z"/><path fill="#5FE6B7" id="COApl" d="m117 284-3.5 2c-9.195 4.598-15.04 1-24.5 1v-8c1.58 0 1-2.855 1-4v-2l1-2 1-6c1.077 0 3-3.762 3-5 3.712 0 5.653-5 9-5 3.013 0 6.611 1 9 1l-2 3.5c-2.136 4.272 2.562 24.5 6 24.5Z"/><path fill="#E64438" id="HY" d="M219 261c0 1.457-3 1.46-3 4-7.07 0-17.959-8-24-8l4-2c.023 0 6.573 5 10 5 3.629 0 8.716 1 13 1ZM238 261c0 2.349 3 1.382 3 4 6.117 0 18.368-8 24-8 0-1.014-3.959-2-5-2 0 3.703-7.526 5-10 5-3.312 0-8.038 1-12 1Z"/><path fill="#5FE6B7" id="COApl" d="M340 284c0 8.273 23.864 3 27 3v-12l-1-2v-2l-1-1v-3l-4-7c-2.919 0-4.243-4-7-4l-1-1h-1c-3.013 0-6.611 1-9 1l2 2.5c1.402 2.803 1.535 12.93 0 16l-5 9.5Z"/><path fill="#97EC93" id="PA" d="m353 255 1 1-1-1Z"/><path fill="#99D2BD" id="OLF" d="m368 255-1 1 1-1Z"/><path fill="#59D9AA" id="PAA" d="M385 281c0 4.394-12.556 6-16 6 0-.981-1.184-8-2-8v-4l-1-2v-2l-1-1v-11c1.577 0 2-1.762 2-3l1-1c10.831 0 12.501 20 15 20v1l2 5Z"/><path fill="#99D2BD" id="OLF" d="m380 255-1 1 1-1Z"/><path fill="#E64438" id="HY" d="m190 256 1 1-1-1Z"/><path fill="#99D2BD" id="OLF" d="M367 256c0 1.238-.423 3-2 3l1-3h1ZM361 260l4 7v-8l-4 1Z"/><path fill="#E64438" id="HY" d="M227 261h2c0-1.399-2-1.399-2 0Z"/><path fill="#FF5447" id="PVp" d="M216 265c2.723 0 11.792 2.146 13.5 3 2.444 1.222 9.017-3 11.5-3 0-2.618-3-1.651-3-4h-19c0 1.457-3 1.46-3 4Z"/><path fill="#99D2BD" id="OLF" d="M77 265c-1.995 0-2 4.377-2 6 1.995 0 2-4.377 2-6ZM365 270l1 1-1-1ZM75 271c-1.638 0-2 3.576-2 5 1.638 0 2-3.576 2-5ZM91 271l-1 2 1-2ZM366 273l1 2-1-2ZM90 275c-1.58 0-1 2.855-1 4 1.58 0 1-2.855 1-4ZM386 280l-1 1-2-5 3 4ZM73 277l-1 2 1-2ZM70 280l2 1v-2l-2 1ZM367 287h2c0-.981-1.184-8-2-8v8ZM87 287h2v-6c-.675 0-2 5.294-2 6Z"/></svg>