<svg xmlns="http://www.w3.org/2000/svg" viewBox="0 0 456 320"><path fill="#1BA696" id="RSPagl1" d="M200 19c-6.339 0-11.363 2-18 2l-1-5 18-1 1 4Z"/><path fill="#1BA598" id="RSPd1" d="M223 37h10c0-11.74 13.974-18 24-18v-4c-14.783 0-11.399 2.95-21.5 8-1.515.758-4.923 10-7 10-1.012 0-8.946-12.473-10-13-6.716-3.358-11.224-5-19.5-5l1 4c9.914 0 23 6.6 23 18Z"/><path fill="#1BA696" id="RSPagl1" d="M257 19c6.127 0 11.384 2 18 2v-5l-18-1v4Z"/><path fill="#187C64" id="SSp-tr1" d="M147 27h2c0-1.993 5.2-1.35 6.5-2 7.672-3.836 17.269-4 26.5-4l-1-5c-5.333 0-21.521 1.01-25.5 3-2.484 1.242-8.87 4-11.5 4 0 5.248 3-1.317 3 4ZM313 23c0 1.107-5 2.058-5 4-3.414 0-11.31-3.405-14.5-5L275 21v-5c4.381 0 23.657 1.579 26.5 3 2.577 1.288 8.742 4 11.5 4Z"/><path fill="#1AA496" id="RSPagl2/3" d="M183 31v1c5.128 0 9.98-4 16-4 0-2.767 1-6.533 1-9-6.339 0-11.363 2-18 2l1 10Z"/><path fill="#1BA697" id="RSPd2/3" d="m223 37-6 3c0-9.903-9.906-12-18-12 0-2.767 1-6.533 1-9 9.914 0 23 6.6 23 18ZM233 37l6 3c0-9.577 10.043-12 18-12v-9c-10.026 0-24 6.26-24 18Z"/><path fill="#1AA496" id="RSPagl2/3" d="M273 31v1c-4.998 0-10.069-4-16-4v-9c6.127 0 11.384 2 18 2 0 3.894-2 6.605-2 10Z"/><path fill="#188061" id="SSp-tr2/3" d="M160 36h1c7.038 0 14.886-5 22-5l-1-10c-9.231 0-18.828.164-26.5 4-1.3.65-6.5.007-6.5 2 0 1.672 6.185 7.342 7.5 8 1.046.523 3.5-.952 3.5 1ZM273 31l23 5 1.5-2 1 2 2-3c1.504-.752 7.5-3.885 7.5-6-3.414 0-11.31-3.405-14.5-5L275 21c0 3.894-2 6.605-2 10Z"/><path fill="#187F60" id="SSp-ll1" d="m147 27-7 2-1-5 5-1c0 5.248 3-1.317 3 4ZM308 27l8 2 1-5-4-1c0 1.107-5 2.058-5 4Z"/><path fill="#197E64" id="SSp-ul1" d="M126 35h1l13-5v-1l-1-5c-1.632 0-14 5.072-14 6l1 5ZM332 30l-2 5c-4.906 0-8.863-5-14-5v-1l1-5c3.778 0 8.216 3.358 11.5 5 1.046.523 3.5-.951 3.5 1Z"/><path fill="#187F64" id="SSp-ll2/3" d="M160 36c0 1.952-2.454.477-3.5 1L143 42l-3-12v-1l7-2h2c0 1.672 6.185 7.342 7.5 8 1.046.523 3.5-.952 3.5 1ZM296 37c6.196 0 11.506 5 17 5 0-3.513 3-7.652 3-12v-1l-8-2c0 2.115-5.996 5.248-7.5 6l-2 3-1-2-1.5 2v1Z"/><path fill="#1CA697" id="RSPagl5" d="M197 42h1l1-14c-6.02 0-10.872 4-16 4v1l1 14c4.412 0 8.158-5 13-5Z"/><path fill="#1AA596" id="RSPd5" d="M198 42c5.851 0 9 .413 9 8 3.748 0 5.407-9 10-9v-1c0-9.903-9.906-12-18-12l-1 14ZM259 42c-4.754 0-10-.183-10 7-3.741 0-5.783-8-10-8v-1c0-9.577 10.043-12 18-12 0 4.728 2 9.634 2 14Z"/><path fill="#1CA697" id="RSPagl5" d="M259 42c4.727 0 8.893 5 13 5 0-5.227 1-10.791 1-15-4.998 0-10.069-4-16-4 0 4.728 2 9.634 2 14Z"/><path fill="#1B8062" id="SSp-un1" d="M126 35c0 1.29-7.597 4-9 4l-2-5c3.467 0 6.27-4 10-4l1 5Z"/><path fill="#197F61" id="SSp-ul2/3" d="M143 42c-4.582 0-8.087 5-13 5-1.85 0-3-10.07-3-12l13-5 3 12ZM314 43c4.922 0 8.542 5 13 5 0-4.205 3-8.727 3-13-4.906 0-8.863-5-14-5 0 4.348-3 8.487-3 12l1 1Z"/><path fill="#1B8062" id="SSp-un1" d="M339 40h1l1-6c0-.774-7.773-4-9-4l-2 5 9 5Z"/><path fill="#1B7E62" id="SSp-tr4" d="M164 40h1c6.122 0 11.712-7 18-7v-2c-7.114 0-14.962 5-22 5l3 4ZM291 40h1l4-3v-1l-23-5v1c5.797 0 11.869 8 18 8Z"/><path fill="#197F60" id="SSp-tr5" d="M280 51h1c0-2.99 10-8.857 10-11-6.131 0-12.203-8-18-8 0 4.209-1 9.773-1 15l8 4ZM175 51h2l7-4-1-14c-6.288 0-11.878 7-18 7 0 4.27 10 6.253 10 11Z"/><path fill="#188060" id="SSp-bfd1" d="m51 88 4 3 2.5-4L68 73.5c9.297-9.297 37.535-33.5 49-33.5v-1l-2-5c-4.315 0-9.708 5.104-13.5 7C89.904 46.798 67.541 61.417 61 74.5c-2.061 4.122-10 8.814-10 13.5ZM401 92h1c0-2.618 3-1.65 3-4 0-6.744-10.109-11.719-13-17.5-5.539-11.078-27.28-24.89-38.5-30.5L341 34l-1 6c5.463 0 10.812 5.656 15.5 8 11.107 5.553 29.219 16.938 35.5 29.5 2.427 4.855 10 8.793 10 14.5Z"/><path fill="#1C7F63" id="SSp-un2/3" d="M121 51h1l8-3v-1c-1.85 0-3-10.07-3-12h-1c0 1.29-7.597 4-9 4v1c0 3.83 4 6.981 4 11ZM327 48l8 3c0-3.97 4-6.543 4-11l-9-5c0 4.273-3 8.795-3 13Z"/><path fill="#1C7F64" id="SSp-ll4" d="m143 42 1 6 15.5-6c.93-.465 4.5-.817 4.5-2l-3-4h-1c0 1.952-2.454.477-3.5 1L143 42Z"/><path fill="#1BA597" id="RSPv1" d="M229 80h4V37h-10l1 43h3c0-4.013 2-4.556 2 0Z"/><path fill="#1AA597" id="RSPv2/3" d="m224 80-4 1c0-10.153-2-19.73-2-30.5 0-1.616.758-9.5-1-9.5v-1l6-3 1 43ZM233 80c0 1.473 1.952 1 3 1 0-12.999 3-26.146 3-40v-1l-6-3v43Z"/><path fill="#1C7F64" id="SSp-ll4" d="M314 43c-2.496 0 .496 5-2 5l-14.5-6c-1.114-.557-5.5-.41-5.5-2l4-3c6.196 0 11.506 5 17 5l1 1Z"/><path fill="#187F63" id="SSp-bfd2/3" d="M55 93c3.889 0 4.691 5 8 5 2.454 0 1.447-2.947 2.5-4L75 80.5c5.922-11.843 23.672-18.586 33.5-23.5l12.5-6c0-4.019-4-7.17-4-11-11.465 0-39.703 24.203-49 33.5L57.5 87 55 91v2Z"/><path fill="#197C63" id="SSp-ll5" d="M175 51c-9.62 0-19.138 9-29 9l-2-11v-1l15.5-6c.93-.465 4.5-.817 4.5-2h1c0 4.27 10 6.253 10 11ZM310 61h1c0-4.374 2-8.563 2-12l-1-1-14.5-6c-1.114-.557-5.5-.41-5.5-2h-1c0 2.143-10 8.01-10 11l22.5 7c1.265.632 6.5 1.278 6.5 3Z"/><path fill="#187F63" id="SSp-bfd2/3" d="m401 92-8 7c0-5.958-7.46-10.42-10-15.5-6.699-13.399-23.559-20.53-35.5-26.5-3.785-1.892-8.072-6-12.5-6 0-3.97 4-6.543 4-11h1c5.463 0 10.812 5.656 15.5 8 11.107 5.553 29.219 16.938 35.5 29.5 2.427 4.855 10 8.793 10 14.5Z"/><path fill="#1AA697" id="RSPd6a" d="M200 61h1c0-1.755 4.277-10 6-10v-1c0-7.587-3.149-8-9-8h-1l-1 11c1.684 0 1 4.68 1 6 2.215 0 1.519 2 3 2Z"/><path fill="#1BA498" id="RSPv5" d="m214 78 6 3c0-10.153-2-19.73-2-30.5 0-1.616.758-9.5-1-9.5-4.593 0-6.252 9-10 9v1c0 8.058 5 17.119 5 24l2 3ZM242 78l-6 3c0-12.999 3-26.146 3-40 4.217 0 6.259 8 10 8v2c0 8.678-4 15.934-4 24l-3 3Z"/><path fill="#1AA697" id="RSPd6a" d="M256 61h1l2-2c0-2.124 1-4.436 1-6l-1-11c-4.754 0-10-.183-10 7v2c1.549 0 7 8.454 7 10Z"/><path fill="#1A7F63" id="SSp-ul4" d="M144 49c-4.717 0-8.489 5-13 5l-1-6v-1c4.913 0 8.418-5 13-5l1 6v1Z"/><path fill="#1CA597" id="RSPagl6a" d="M192 53h4l1-11c-4.842 0-8.588 5-13 5 0 1.819 1 4.59 1 7l7-1ZM264 53l7 1 1-7c-4.107 0-8.273-5-13-5l1 11h4Z"/><path fill="#1A7F63" id="SSp-ul4" d="M325 54h1c0-2.124 1-4.436 1-6-4.458 0-8.078-5-13-5-2.496 0 .496 5-2 5l1 1 12 5Z"/><path fill="#188063" id="SSp-tr6a" d="m185 54-2 4c-1.59 0-6-5.662-6-7l7-4c0 1.819 1 4.59 1 7ZM271 54c2.641 0 2 1.823 2 4l7-7-8-4-1 7Z"/><path fill="#197E61" id="SSp-un4" d="M123 59h1c0-1.948 5.428-4 7-4v-1l-1-6-8 3 1 8ZM326 54c0 1.429 5.478 4 7 4l2-7-8-3c0 1.564-1 3.876-1 6Z"/><path fill="#187E62" id="SSp-ul5" d="M133 66h1c4.08 0 7.362-5 12-5v-1l-2-11c-4.717 0-8.489 5-13 5v1c0 3.028 2 6.445 2 11ZM322 66h1c0-4.646 2-7.5 2-12l-12-5c0 3.437-2 7.626-2 12 1.637 0 11 3.792 11 5Z"/><path fill="#197C64" id="SSp-bfd4" d="m63 99 6 5 10-11.5c4.636-9.272 22.833-20.667 32.5-25.5l11.5-8-1-8h-1l-12.5 6C98.672 61.914 80.922 68.657 75 80.5L65.5 94c-1.053 1.053-.046 4-2.5 4v1Z"/><path fill="#1A7F64" id="SSp-ll6a" d="M184 63c-10.21 0-26.008 11-35 11-3.084 0-.743-13-3-13v-1c9.862 0 19.38-9 29-9h2c0 1.338 4.41 7 6 7v1l1 1v3Z"/><path fill="#1AA498" id="RSPv6a" d="m209 73 3 2c0-6.881-5-15.942-5-24-1.723 0-6 8.245-6 10 0 4.696 8 7.054 8 12ZM248 72l-3 3c0-8.066 4-15.322 4-24 1.549 0 7 8.454 7 10 0 3.756-8 6.678-8 11Z"/><path fill="#1A7F64" id="SSp-ll6a" d="m273 63 27.5 8c2.139 1.07 5.078 4 7.5 4l2-14c0-1.722-5.235-2.368-6.5-3L281 51h-1l-7 7v5Z"/><path fill="#197C64" id="SSp-bfd4" d="M387 104h1l5-5c0-5.958-7.46-10.42-10-15.5-6.699-13.399-23.559-20.53-35.5-26.5-3.785-1.892-8.072-6-12.5-6l-2 7v1l10.5 7c10.166 5.083 30.045 17.59 35.5 28.5 1.284 2.569 8 5.14 8 9.5Z"/><path fill="#1F9B5A" id="MOp6a" d="m190 61-6 1v-2l-1-1v-1l2-4 7-1v6l-2 2Z"/><path fill="#1D9C5A" id="MOs6a" d="M192 59h5c0-1.32.684-6-1-6h-4v6ZM259 59h5v-6h-4c0 1.564-1 3.876-1 6Z"/><path fill="#1F9B5A" id="MOp6a" d="M272 63h1v-5c0-2.177.641-4-2-4l-7-1v6l8 4Z"/><path fill="#197D62" id="SSp-un5" d="M323 66c0 .886 5.824 3 7 3 0-3.285 3-7.16 3-10v-1c-1.522 0-7-2.571-7-4h-1c0 4.5-2 7.354-2 12ZM133 66l-6 3c-1.646 0-3-7.502-3-10 0-1.948 5.428-4 7-4 0 3.028 2 6.445 2 11Z"/><path fill="#1A7D62" id="SSp-bfd5" d="m69 104 9 8 7.5-11 12-12c6.551-3.275 23.465-19 29.5-19v-1c-1.646 0-3-7.502-3-10h-1l-11.5 8c-9.667 4.833-27.864 16.228-32.5 25.5L69 104Z"/><path fill="#188063" id="SSp-tr6a" d="m183 59 1 1-1-1Z"/><path fill="#1D9D5A" id="MOp6b" d="M193 60c0 1.473-1.952 1-3 1l2-2 1 1Z"/><path fill="#1E9C58" id="MOs6b" d="M193 60h4v-1h-5l1 1Z"/><path fill="#1BA698" id="RSPd6b" d="m200 61-1 1-2-2v-1c2.215 0 1.519 2 3 2ZM257 61v1l2-2v-1l-2 2Z"/><path fill="#1E9C58" id="MOs6b" d="m259 60 5 1v-2h-5v1Z"/><path fill="#1D9D5A" id="MOp6b" d="M272 63v1l-8-3v-2l8 4Z"/><path fill="#1A7D62" id="SSp-bfd5" d="M387 104c-3.109 0-5.318 7-9 7l-12-15.5c-3.106-6.211-22.622-17.561-28.5-20.5l-7.5-5v-1c0-3.285 3-7.16 3-10l10.5 7c10.166 5.083 30.045 17.59 35.5 28.5 1.284 2.569 8 5.14 8 9.5Z"/><path fill="#CACCC7" id="cing" d="m212 75 2 3c-7.332 0-15.234-7.867-21.5-11-4.936-2.468-19.818 5-25.5 5h-7c0-2.064 3.353-.426 4.5-1 5.146-2.573 10.884-3.442 16-6 1.119-.56 4.5-.155 4.5-2 1.424 0 5-.362 5-2 1.048 0 3 .473 3-1h4l2 2 10 11 3 2ZM245 75l-3 3c7.784 0 14.933-7.717 21.5-11 4.553-2.276 17.921 4 23.5 4l1 1h9c0-1.149-5.447-1.473-6.5-2L272 64l-8-3-5-1-2 2-9 10-3 3Z"/><path fill="#197D61" id="SSp-ul6a" d="M149 75c-4.747 0-7.693 5-12 5l-3-14c4.08 0 7.362-5 12-5 2.257 0-.084 13 3 13v1Z"/><path fill="#1D9D5A" id="MOp6b" d="M184 63h1c1.424 0 5-.362 5-2l-6 1v1Z"/><path fill="#1AA497" id="RSPv6b" d="m199 62 10 11c0-4.946-8-7.304-8-12h-1l-1 1ZM257 62l-9 10c0-4.322 8-7.244 8-11h1v1Z"/><path fill="#197D61" id="SSp-ul6a" d="M308 75c4.012 0 7.428 5 11 5 0-3.874 3-9.328 3-14 0-1.208-9.363-5-11-5h-1l-2 14Z"/><path fill="#197F62" id="SSp-ll6b" d="M149 75v1l11-4c0-2.064 3.353-.426 4.5-1 5.146-2.573 10.884-3.442 16-6 1.119-.56 4.5-.155 4.5-2h-1c-10.21 0-26.008 11-35 11v1ZM308 75v1l-11-4c0-1.149-5.447-1.473-6.5-2L272 64v-1h1l27.5 8c2.139 1.07 5.078 4 7.5 4Z"/><path fill="#1A7F61" id="SSp-un6a" d="M130 84h1l2-1 4-3-3-14h-1l-6 3v1c0 4.993 3 8.406 3 14ZM319 80l7 4 4-14v-1c-1.176 0-7-2.114-7-3h-1c0 4.672-3 10.126-3 14Z"/><path fill="#C9C7C9" id="ccb" d="M381 172h4l-1-3v-2l-1-2v-3c-1.693 0-4-8.239-4-10v-1l-8-15.5c-4.709-9.419-23.605-32.053-32.5-36.5-13.068-6.534-25.09-15.545-38-22-1.611-.805-11.5-3.557-11.5-5h-1l-1-1c-5.579 0-18.947-6.276-23.5-4-6.567 3.283-13.716 11-21.5 11l-6 3c-1.048 0-3 .473-3-1h-9l-4 1-6-3c-7.332 0-15.234-7.867-21.5-11-4.936-2.468-19.818 5-25.5 5 0 1.544-11.7 5.1-13.5 6-13.039 6.52-24.824 16.412-38 23-7.708 3.854-22.872 21.244-26.5 28.5-.888 1.776-6.814 13.5-8 13.5 0 1.647-1.268 7-3 7 0 1.048.473 3-1 3 0 1.622.46 5-2 5 0 1.048.473 3-1 3l-1 2v3c0 1.048.473 3-1 3v3h4c0-16.436 21.342-53.421 36.5-61 7.451-3.725 9.898-10 19.5-10 0-5.792 16.895-16 22-16l1-1c0-3.369 9.323-5.911 11.5-7 9.1-4.55 19.44-6.78 29-2 5.488 2.744 12.039 11 18.5 11 3.227 0 12.336 3.082 14.5 2 3.787-1.893 10.049-2 14.5-2l3-1c0-1.948 5.428-4 7-4 0-2.268 5.956-4.228 7.5-5 12.015-6.007 20.346-3.827 32 2 2.716 1.358 10.5 4.115 10.5 8 5.198 0 22 9.005 22 15 11.05 0 14.445 9.473 23.5 14 11.903 5.952 32.5 43.469 32.5 57Z"/><path fill="#198060" id="SSp-bfd6a" d="M94 115h1c0-2.226 1.774-4 4-4 0-1.747.253-2 2-2 0-1.577 1.762-2 3-2 0-3.586 7.691-10 11-10 0-1.812 5.824-6 8-6l7-7c0-5.594-3-9.007-3-14-6.035 0-22.949 15.725-29.5 19l-12 12-7.5 11v1l5 2c2.216 0 11-.237 11 0ZM362 114c3.531 0 7.893 1 12 1l4-2v-2l-12-15.5c-3.106-6.211-22.622-17.561-28.5-20.5l-7.5-5-4 14v1c5.22 0 23.427 19.963 29.5 23l6.5 6Z"/><path fill="#C9C9CA" id="scwm" d="m287 71 1 1-1-1ZM91 121c0 8.197-10 13.501-10 22 1.186 0 7.112-11.724 8-13.5 3.628-7.256 18.792-24.646 26.5-28.5 13.176-6.588 24.961-16.48 38-23 1.8-.9 13.5-4.456 13.5-6h-7l-11 4c0 .678-10.309 5-12 5 0 2.109-2.535 2-4 2 0 1.747-.253 2-2 2 0 2.289-6.178 6-8 6 0 2.158-5.64 6-8 6l-11 10c0 1.577-1.762 2-3 2 0 1.747-.253 2-2 2 0 1.366-2.366 4-4 4 0 1.984-1.444 6-4 6Z"/><path fill="#C7C8CC" id="alv" d="M191 114h3c0-.475-9.35-2.425-10.5-3l-20-10c-9.798-4.899-10.074-22 2.5-22 0-1.995 4.377-2 6-2 0-2.342 7.951-2 10-2 2.796 0 6.42-1.54 9.5 0 4.182 2.091 7.843 4.921 12 7l3.5 2 5 3 9 4c0-2.382-7-1.982-7-5-6.461 0-13.012-8.256-18.5-11-9.56-4.78-19.9-2.55-29 2-2.177 1.089-11.5 3.631-11.5 7l-1 1c0 6.324 3 12.055 3 14 3.075 0 4.405 4.453 7.5 6l13 4c1.243.621 5.5 2.356 5.5 4l6 1h2ZM299 99l-7.5 6-17.5 6c0-3.395 6.643-3.072 8.5-4 5.221-2.61 14.387-7.275 17.5-13.5 3.07-6.14-3.296-14.5-10-14.5 0-2.46-3.378-2-5-2 0-1.557-6.839-2-8.5-2-3.657 0-7.598-1.701-11 0L253 81c0-2.268 5.956-4.228 7.5-5 12.015-6.007 20.346-3.827 32 2 2.716 1.358 10.5 4.115 10.5 8 0 5.778-4 11.24-4 13Z"/><path fill="#C9C9CA" id="scwm" d="M365 122c0 3.889 14 21.021 14 29l-8-15.5c-4.709-9.419-23.605-32.053-32.5-36.5-13.068-6.534-25.09-15.545-38-22-1.611-.805-11.5-3.557-11.5-5h8l11 4 11 5 6 4 6.5 6c6.076 3.038 10.866 8.933 17 12l5 6 7.5 6c0 3.145 4 3.855 4 7Z"/><path fill="#7ECF4B" id="CA1" d="M172 77c4.154 0 8.969 2.234 12.5 4 6.057 3.029 15.243 3 22.5 3l-3.5-2c-4.157-2.079-7.818-4.909-12-7-3.08-1.54-6.704 0-9.5 0-2.049 0-10-.342-10 2ZM253 81l-3 3c6.163 0 17.56-.53 22.5-3 3.806-1.903 7.941-4 12.5-4 0-1.557-6.839-2-8.5-2-3.657 0-7.598-1.701-11 0L253 81Z"/><path fill="#1C8064" id="SSp-ul6b" d="M137 80v1c1.691 0 12-4.322 12-5v-1c-4.747 0-7.693 5-12 5ZM319 80v1l-11-5v-1c4.012 0 7.428 5 11 5Z"/><path fill="#7DCF4B" id="CA2" d="m207 84 5 3c0 1.882-10.442 3.03-12.5 2-6.412-3.206-17.755-2.877-24-6l-9.5-4c0-1.995 4.377-2 6-2 4.154 0 8.969 2.234 12.5 4 6.057 3.029 15.243 3 22.5 3ZM246 85l-2 2c0 1.882 10.442 3.03 12.5 2 7.175-3.587 16.837-2.419 24-6l9.5-4c0-2.46-3.378-2-5-2-4.559 0-8.694 2.097-12.5 4-4.94 2.47-16.337 3-22.5 3l-4 1Z"/><path fill="#7ECF49" id="CA3" d="M203 113c-3.013 0-6.611 1-9 1 0-.475-9.35-2.425-10.5-3l-20-10c-9.798-4.899-10.074-22 2.5-22l9.5 4c6.245 3.123 17.588 2.794 24 6 2.058 1.03 12.5-.118 12.5-2l9 4h1l2 2-1 3c-2.233 0-9 1.484-9 4l-2.5 3c-1.658 1.658-8.5 8.304-8.5 10ZM269 113c-1.406 0-7-.714-7 1-2.097 0-5.293-1-8-1l-3-2.5c-1.228-2.456-4.506-5.013-6-8l-3-2.5c0-2.447-6.063-4-8-4l-1-4 2-1 2-1 2-1h1l1-1 2-1h1c0 1.882 10.442 3.03 12.5 2 7.175-3.587 16.837-2.419 24-6l9.5-4c6.704 0 13.07 8.36 10 14.5-3.113 6.225-12.279 10.89-17.5 13.5-1.857.928-8.5.605-8.5 4-1.424 0-5 .362-5 2Z"/><path fill="#1A7D63" id="SSp-un6b" d="M137 81c0 2.109-2.535 2-4 2l4-3v1ZM325 85h1v-1l-7-4v1l6 4Z"/><path fill="#C7C8CC" id="alv" d="m250 84-4 1c0-1.948 5.428-4 7-4l-3 3Z"/><path fill="#1A7D63" id="SSp-un6b" d="M131 84v1c1.747 0 2-.253 2-2l-2 1Z"/><path fill="#1A7E61" id="SSp-bfd6b" d="M131 85c0 2.289-6.178 6-8 6l7-7h1v1Z"/><path fill="#A8AAAA" id="VL" d="m155 84-1 1 1-1Z"/><path fill="#A8AAAA" id="VL" fill-rule="evenodd" d="M146 91c0 1.543-4 3.101-4 6.5 0 2.018 2.247 5.506 1 8-.982 1.963-4.411 4.178-3 7 1.494 2.987 6.042-2.042 7-3 4.026-4.026 7.411-18.5-1-18.5m-14 10c4.188 0 8 18.773 8 23l4-8.5c3.181-3.181 9.682-3.364 12-8 .737-1.474-2.744-8.5 1-8.5 0-1.945-3-7.676-3-14-5.105 0-22 10.208-22 16Z"/><path fill="#C7C8CC" id="alv" d="M243 87h1l2-2-3 1v1Z"/><path fill="#1A7E61" id="SSp-bfd6b" d="M361 115h1v-1l-6.5-6c-6.073-3.037-24.28-23-29.5-23h-1l6.5 6c6.076 3.038 10.866 8.933 17 12l5 6 7.5 6Z"/><path fill="#C9CCC9" id="dhc" d="M233 91h2l2-1 2-1h1l1-1 2-1v-1c-4.451 0-10.713.107-14.5 2-2.164 1.082-11.273-2-14.5-2 0 3.018 7 2.618 7 5h12Z"/><path fill="#A8AAAA" id="VL" fill-rule="evenodd" d="M308 91c0 2.86-3 5.58-3 9 0 4.711 8.502 18.497 12 11.5.894-1.788-3.27-5.539-4-7-2.206-4.411 7.529-13.5-5-13.5m17 10c-4.041 0-9 16.863-9 21-.937 0-3.235-6.867-5.5-8-3.579-1.79-8.664-3.828-10.5-7.5-.71-1.42 3.418-7.5-1-7.5 0-1.76 4-7.222 4-13 5.198 0 22 9.005 22 15Z"/><path fill="#C7C8CC" id="alv" d="m243 87-2 1 2-1Z"/><path fill="#1A7E62" id="SSs1" d="M34 163h1c0-19.347 3.987-37.474 12-53.5 1.152-2.304 5.44-16.5 8-16.5v-2l-4-3c-1.243 0-7.966 14.432-9 16.5-8.34 16.681-13 37.549-13 57.5l5 1Z"/><path fill="#C7C8CC" id="alv" d="m241 88-1 1 1-1Z"/><path fill="#1A7E62" id="SSs1" d="m427 162-5 1c0-15.683-4.469-38.439-11-51.5L402 92c0-2.618 3-1.65 3-4 2.407 0 8.778 16.056 10 18.5 8.219 16.437 12 35.731 12 55.5Z"/><path fill="#C7C8CC" id="alv" d="m239 89-2 1 2-1ZM237 90l-2 1 2-1Z"/><path fill="#1A7E61" id="SSp-bfd6b" d="M123 91c-2.176 0-8 4.188-8 6 2.36 0 8-3.842 8-6Z"/><path fill="#A9AAA8" id="chpl" d="M146 91c0 1.543-4 3.101-4 6.5 0 2.018 2.247 5.506 1 8-.982 1.963-4.411 4.178-3 7 1.494 2.987 6.042-2.042 7-3 4.026-4.026 7.411-18.5-1-18.5Z"/><path fill="#C7C8CC" id="alv" d="M224 92v1l-2-2h2v1ZM235 91l-2 1v-1h2Z"/><path fill="#A9AAA8" id="chpl" d="M308 91c0 2.86-3 5.58-3 9 0 4.711 8.502 18.497 12 11.5.894-1.788-3.27-5.539-4-7-2.206-4.411 7.529-13.5-5-13.5Z"/><path fill="#7DCD4B" id="HPF" d="m223 96 4 1c0-1.408-1.197-5-3-5v1l-1 3ZM233 96h1l-1-4c-1.712 0-3 2.571-3 4h3Z"/><path fill="#1B8063" id="SSs2/3" d="m422 163-8 2c0-11.733-8.056-39.611-13-49.5-1.478-2.956-8-13.861-8-16.5l8-7h1l9 19.5c6.531 13.061 11 35.817 11 51.5ZM35 163l8 2c0-15.319 5.616-34.733 12-47.5L63 99v-1c-3.309 0-4.111-5-8-5-2.56 0-6.848 14.196-8 16.5-8.013 16.026-12 34.153-12 53.5Z"/><path fill="#65A83D" id="DG-sg" d="M191 114h3c2.389 0 5.987-1 9-1 3.979 0 10.266-7.031 12-10.5.44-.879.028-2.5-1-2.5 0-2.516 6.767-4 9-4 0 5.868-13.217 19.358-18.5 22-4.851 2.425-9.902-3-13.5-3v-1Z"/><path fill="#7BD04A" id="DG-mo" d="M200 125h5l6-3c0-1.712 2.571-3 4-3l1-1 5-6 1-1 1-1v-1l1-1 1-2v-1l1-1v-1l1-1v-5l-4-1c0 5.868-13.217 19.358-18.5 22-4.851 2.425-9.902-3-13.5-3l-2 1 3 5 2 1 1 1 2 1 2 1h1ZM257 125h1l1-1h1l1-1 4-3c0-1.624 2-2.75 2-5h-2c0 2.108-11.125 4.188-13.5 3-4.684-2.342-18.5-16.959-18.5-22h-3l-1 4.5 2 3.5v1l4 6v1l4.5 5c6.664 3.332 9.254 8 17.5 8Z"/><path fill="#65A83D" id="DG-sg" d="M265 114v1c0 2.108-11.125 4.188-13.5 3-4.684-2.342-18.5-16.959-18.5-22h1c1.937 0 8 1.553 8 4-4.197 0 7.896 13 12 13 2.707 0 5.903 1 8 1h3Z"/><path fill="#1A7E61" id="SSp-bfd6b" d="M115 97c-3.309 0-11 6.414-11 10l11-10Z"/><path fill="#187C63" id="SSs4" d="M47 165h1c0-15.773 6.312-35.125 13-48.5l8-12.5-6-5-8 18.5c-6.384 12.767-12 32.181-12 47.5h4Z"/><path fill="#CBC8CB" id="fi" d="M151 133c-1.048 0-3-.473-3 1-1.934 0-7-.811-7-3l-1-5v-2l4-8.5c3.181-3.181 9.682-3.364 12-8 .737-1.474-2.744-8.5 1-8.5 3.075 0 4.405 4.453 7.5 6l13 4c1.243.621 5.5 2.356 5.5 4l-4 3h-1c-1.406 0-7-.714-7 1-5.68 0-18 7.395-18 14-1.747 0-2 .253-2 2ZM316 131c-2.404 0-4.649 3-8 3l-6.5-6c-7.15-7.15-11.632-12-22.5-12h-1l-5-3 1-2 17.5-6 7.5-6c4.418 0 .29 6.08 1 7.5 1.836 3.672 6.921 5.71 10.5 7.5 2.265 1.133 4.563 8 5.5 8v9Z"/><path fill="#187C63" id="SSs4" d="M409 165h5c0-11.733-8.056-39.611-13-49.5-1.478-2.956-8-13.861-8-16.5l-5 5c0 2.647 9.254 17.007 11 20.5 3.411 6.822 10 32.659 10 40.5Z"/><path fill="#7ECE4A" id="DG-po" d="M214 100c1.028 0 1.44 1.621 1 2.5-1.734 3.469-8.021 10.5-12 10.5 0-1.696 6.842-8.342 8.5-10l2.5-3ZM242 100l3 2.5c1.494 2.987 4.772 5.544 6 8l3 2.5c-4.104 0-16.197-13-12-13Z"/><path fill="#98D5F9" id="CP" d="m89 212 4 2c5.266 0 13.052 1.224 17.5-1l7.5-8c0-4.967-5.207-19.086-3-23.5 1.897-3.794.133-9.265 2-13l4-9.5c0-6.534-2.985-15.53 0-21.5.612-1.223 8-9.413 8-5.5 3.423 0 6.474-2 9-2l1-1c0-1.048-.473-3 1-3v-2c0-4.227-3.812-23-8-23-9.602 0-12.049 6.275-19.5 10-15.158 7.579-36.5 44.564-36.5 61 0 9.708 1.005 18.51 5 26.5l6 11.5 2 2ZM364 213l-1 1c-7.74 0-24 1.283-24-10 0-10.602 5.132-23.235 0-33.5-.954-1.909-1.184-11.5-4-11.5 0-6.722 3.179-16.142 0-22.5-.593-1.186-8-8.454-8-4.5-5.483 0-9.703-4-10-4 0-1.235.643-5-1-5v-1c0-4.137 4.959-21 9-21 11.05 0 14.445 9.473 23.5 14 11.903 5.952 32.5 43.469 32.5 57 0 7.677-.811 16.121-4 22.5l-7 14.5-1 1-2 2-3 1Z"/><path fill="#A8A9AA" id="V3" d="M235 111v1l-3.5-2-3 4c-1.861 0-2.957-4-5.5-4v-1l1-1 1-2v-1l1-1v-1l1-1 4 2v1c0 1.664 1.823 6 4 6Z"/><path fill="#1C8063" id="SSs5" d="M48 165c3.741 0 7.636 2 12 2 0-12.683 6.573-31.647 12-42.5l6-11.5v-1l-9-8-8 12.5c-6.688 13.375-13 32.727-13 48.5ZM409 165c-4.017 0-8.279 2-13 2 0-13.812-5.161-29.822-11-41.5-1.02-2.041-4.453-12.5-7-12.5v-2c3.682 0 5.891-7 9-7h1c0 2.647 9.254 17.007 11 20.5 3.411 6.822 10 32.659 10 40.5Z"/><path fill="#1A7E61" id="SSp-bfd6b" d="M104 107c-1.238 0-3 .423-3 2 1.238 0 3-.423 3-2ZM101 109c-1.747 0-2 .253-2 2 1.747 0 2-.253 2-2Z"/><path fill="#A9AAA8" id="chpl" d="M233 126v1c-1.581 0-1.462 8.519-6.5 6l-3.5-7v-1c0-1.238-.423-3-2-3v-1l-1-1v-5l1-1v-1l1-1v-1l1-1c2.543 0 3.639 4 5.5 4l3-4 3.5 2v1l1 1 1 3-1 4-1 1v1c-1.577 0-2 1.762-2 3Z"/><path fill="#1A7E61" id="SSp-bfd6b" d="M99 111c-2.226 0-4 1.774-4 4 1.634 0 4-2.634 4-4Z"/><path fill="#C7C8CC" id="alv" d="M269 113h4l1-2c-1.424 0-5 .362-5 2Z"/><path fill="#A8A9AA" id="V3" d="m222 112-1 1v-1h1Z"/><path fill="#197D63" id="SSs6a" d="M60 167c3.109 0 7.814 2 11 2 0-12.082 6.883-26.266 12-36.5 1.936-3.873 7-6.863 7-11.5-1.314 0-7-4.886-7-6l-5-2-6 11.5c-5.427 10.853-12 29.817-12 42.5Z"/><path fill="#A8A9AA" id="V3" d="m235 113 1 1-1-1Z"/><path fill="#C7C8CC" id="alv" d="M265 114h2l2-1c-1.406 0-7-.714-7 1h3Z"/><path fill="#197D63" id="SSs6a" d="M396 168c-3.51 0-7.022 1-10 1 0-11.637-8.018-25.537-13-35.5-.758-1.515-5.923-11.5-7-11.5v-1l8-6 4-2c2.547 0 5.98 10.459 7 12.5 5.839 11.678 11 27.688 11 41.5v1Z"/><path fill="#187D62" id="SSp-n6a" d="M90 121h1l3-6c0-.237-8.784 0-11 0 0 1.114 5.686 6 7 6Z"/><path fill="#7DCD4B" id="HPF" d="m191 115-2 1v-2h2v1Z"/><path fill="#A8A9AA" id="V3" d="m221 114-1 1 1-1Z"/><path fill="#7DCD4B" id="HPF" d="M265 115h2v-1h-2v1Z"/><path fill="#187D62" id="SSp-n6a" d="m374 115-8 6-4-6v-1c3.531 0 7.893 1 12 1Z"/><path fill="#1B7E64" id="SSp-n6b" d="M95 115c0 1.984-1.444 6-4 6l3-6h1ZM365 122h1v-1l-4-6h-1c0 3.145 4 3.855 4 7Z"/><path fill="#FF909D" id="LD" d="M191 147c-4.015 0-6.644 5-10 5-4.624 0-6.938-7-12-7 0-1.985-6.262-5-8-5l-2-2-4-4v-4c0-4.33 16-12.682 16-13 1.406 0 7 .714 7-1h1c0 2.207 5.176.338 6.5 1l6.5 4 2 1 1 1 2 1 1 1v1c0 8.26-7 13.61-7 21ZM265 147c2.108 0 10 2.78 10 5 4.637 0 7.541-7 12-7l1-1c2.117 0 4.428-4 7-4l2-1c0-1.429 1.288-4 3-4l1-1v-4c0-6.012-12.492-10.996-16.5-13-1.238-.619-5.5 1.144-5.5-1h-1c0 2.261-6.094.297-7.5 1-1.873.936-3.23 3-5.5 3l-4 3-1 1-1 1c0 8.851 6 14.225 6 22Z"/><path fill="#FF8D9F" id="MH" d="m223 135-4 2c-3.047 0-4.551-8-8-8 0-2.833 2-4.84 2-7l2-3 1-1h4v2l1 1v1c0 1.238.423 3 2 3v10ZM233 136l5 1 7-8-1-7c-1.636 0-3.733-5-7-5l-1 4-1 1v1c0 1.238-.423 3-2 3v10Z"/><path fill="#A8A9AA" id="V3" d="m220 120 1 1-1-1Z"/><path fill="#1A8061" id="SSs6b" d="M71 169h1c0-1.048-.473-3 1-3v-3l1-2c0-1.048-.473-3 1-3 0-1.424.362-5 2-5 0-1.048-.473-3 1-3 0-1.647 1.268-7 3-7 0-8.499 10-13.803 10-22h-1c0 4.637-5.064 7.627-7 11.5-5.117 10.234-12 24.418-12 36.5Z"/><path fill="#A8A9AA" id="V3" d="m236 121-1 1 1-1Z"/><path fill="#CCC9C8" id="sm" d="m201 135 2 2 8-8c0-2.833 2-4.84 2-7h-2c0 2.314-4.262 3-6 3l-4 2c0 1.747-.253 2-2 2l1 4 1 1v1Z"/><path fill="#A8A9AA" id="V3" d="M221 122c1.577 0 2 1.762 2 3-1.577 0-2-1.762-2-3Z"/><path fill="#CCC9C8" id="sm" d="M253 137h1l1-1v-1l1-1 1-5-3-3c-4.001 0-6.723-4-10-4l1 7c3.753 0 3.91 8 8 8Z"/><path fill="#1A8061" id="SSs6b" d="M384 169h2c0-11.637-8.018-25.537-13-35.5-.758-1.515-5.923-11.5-7-11.5h-1c0 3.889 14 21.021 14 29v1c1.92 0 4 8.394 4 10v3l1 2v2Z"/><path fill="#A8A9AA" id="V3" d="M235 123c-1.577 0-2 1.762-2 3 1.577 0 2-1.762 2-3Z"/><path fill="#FF6F80" id="TH" d="m260 124-1 1v-1h1ZM201 127c0 1.747-.253 2-2 2 0-1.048.473-3-1-3v-1h2l1 2ZM258 125l-1 1v-1h1Z"/><path fill="#FD8F9D" id="CL" d="M259 157h5l1-10c0-7.775-6-13.149-6-22h-1l-1 1v3l-1 5-1 1v1l-1 1v1c5.182 0 5 14.975 5 19ZM193 157h5c0-4.192-2.52-19 5-19v-1l-2-2v-1l-1-1-1-4c0-1.048.473-3-1-3 0 8.26-7 13.61-7 21l2 10Z"/><path fill="#A8A9AA" id="V3" d="m223 135 5.5 3 4.5-2v-9c-1.581 0-1.462 8.519-6.5 6l-3.5-7v9Z"/><path fill="#FF6F80" id="TH" d="M257 126v3l-3-3h3Z"/><path fill="#97D6F9" id="STR" d="m326 136-1 1-4-1c0-1.238-.423-3-2-3l-1-3-1-2c.297 0 4.517 4 10 4 1.274 0-.004 4-1 4ZM138 130h1v-1l-1 1Z"/><path fill="#FF8F9D" id="LH" d="M203 138h16v-1c-3.047 0-4.551-8-8-8l-8 8v1ZM238 138h15v-1c-4.09 0-4.247-8-8-8l-7 8v1Z"/><path fill="#97D6F9" id="STR" d="M130 136h5l2-3 1-3c-2.526 0-5.577 2-9 2l1 4Z"/><path fill="#CAC7CB" id="fiber tracts" d="M149 136c0 4.562-3.946 11-9 11l-10-11h5c0 7.12 15.349 6.849 6-2.5l-4-.5 1-3h1l2 1c0 2.189 5.066 3 7 3l1 2Z"/><path fill="#FF6F80" id="TH" d="M151 134h4v-4l-2 1-2 2v1ZM301 134h4c0-1.621-2.379-4-4-4v4Z"/><path fill="#CAC7CB" id="fiber tracts" d="M325 137c0 3.325-9 7.771-9 10-5.199 0-9-7.578-9-12l1-1c3.351 0 5.596-3 8-3l2-1 1 3h-3.5c-9.674 4.837 5.5 13.513 5.5 3l4 1Z"/><path fill="#CCC" d="m165 208-2 1-6-1c-6.728 0-12.94-12-20-12l-2-3c0-6.993-6.003-34-14-34 0-6.534-2.985-15.53 0-21.5.612-1.223 8-9.413 8-5.5l1 4 10 11c-6.946 0-9.632 10.237-7 15.5 5.122 10.244 11.784 19.784 20 28 2.032 2.032 12 12.626 12 14.5 0 .716 2.373 3 0 3ZM291 209c.839 0 2-1.93 2 0l6-1 20-12 2-2v-1l1-1c0-6.432 5.091-33 13-33 0-6.722 3.179-16.142 0-22.5-.593-1.186-8-8.454-8-4.5 1.274 0-.004 4-1 4l-1 1c0 3.325-9 7.771-9 10 7.582 0 9.758 10.984 7 16.5l-10 17c-2.653 5.306-11.979 9.959-15 16l-7 9.5v3Z"/><path fill="#C8CBC7" id="st" d="m137 133 4 .5c9.349 9.349-6 9.62-6 2.5l2-3Z"/><path fill="#FF6F80" id="TH" d="m200 133 1 1-1-1Z"/><path fill="#C8CBC7" id="st" d="M319 133c1.577 0 2 1.762 2 3 0 10.513-15.174 1.837-5.5-3h3.5Z"/><path fill="#FD8F9F" id="RT" d="m183 209 2 2.5c0 4.138-11.913-.5-13-.5l-7-6c0-1.874-9.968-12.468-12-14.5-8.216-8.216-14.878-17.756-20-28-2.632-5.263.054-15.5 7-15.5 5.054 0 9-6.438 9-11l2-2h4l4 4v2c0 2.025-1.233 7-4 7l-1 1c-1.408 0-5 1.197-5 3-1.747 0-2 .253-2 2-1.747 0-2 .253-2 2-2.427 0-2.886 7.727-2 9.5 2.803 5.605 11.381 27.5 19 27.5l8 5 5 5 1 1h1c0 1.198 4.298 6 6 6Z"/><path fill="#FF6F80" id="TH" d="m256 134-1 1 1-1ZM301 134l-1 1 1-1Z"/><path fill="#FD8F9F" id="RT" d="m273 209-1 3.5c1.427 2.854 11.066-1.5 13-1.5 0-1.901 4.332-5 6-5l7-9.5c3.021-6.041 12.347-10.694 15-16l10-17c2.758-5.516.582-16.5-7-16.5-5.199 0-9-7.578-9-12l-2-1h-4l-1 1c-1.712 0-3 2.571-3 4v1c0 1.572 2.052 7 4 7 6.098 0 12 7.774 12 13.5 0 1.988.253 9.5-2 9.5 0 1.937-1.553 8-4 8 0 1.238-.423 3-2 3l-2 2c0 1.747-.253 2-2 2 0 2.571-4.429 7-7 7l-8 5-6 6-1 1-2 1c0 1.797-2.203 4-4 4Z"/><path fill="#FF6F80" id="TH" d="m201 135 2 2-2-2Z"/><path fill="#FE8F9E" id="PVT" d="m233 150-1 1-4.5 1-3.5-2c0-4.593-5-8.348-5-12v-1l4-2 5.5 3 4.5-2 5 1v1c0 1.392-5 6.853-5 12Z"/><path fill="#FF6F80" id="TH" d="m255 136-1 1 1-1Z"/><path fill="#CAC7CB" id="fiber tracts" d="m326 136-1 1 1-1Z"/><path fill="#FF6F80" id="TH" d="M253 138h1v-1h-1v1ZM159 140h2l-2-2v2Z"/><path fill="#FD909D" id="MD" d="M209 169c1.974 0 3.517 2 6 2l8-5c0-5.139 1-10.395 1-16 0-4.593-5-8.348-5-12h-16c-7.52 0-5 14.808-5 19 0 5.385 10 8.436 10 12h1ZM244 171h1l1-1 2-1c0-1.577 1.762-2 3-2 0-1.577 1.762-2 3-2l1-1 1-1 1-1 2-5c0-4.025.182-19-5-19h-16c0 1.392-5 6.853-5 12l-1 1c0 5.37 2 10.336 2 15l8 5h2Z"/><path fill="#FF6F80" id="TH" d="M295 140h2v-1l-2 1Z"/><path fill="#FD8084" id="VPL" d="M167 178c0 2.738-3.26 11-7 11l-5.5-6c-8.74-8.74-9.5-16.84-9.5-28l2-2 2-2c1.408 0 5-1.197 5-3l1-1c2.767 0 4-4.975 4-7h2c1.738 0 8 3.015 8 5v17.5l-2 2.5c-5.489 0-3.361 13 0 13ZM301 185l-5 4c-3.607 0-6-8.244-6-11 0-2.546 7.778-13-1-13l-2-4.5V145l1-1c2.117 0 4.428-4 7-4h2c0 1.572 2.052 7 4 7l11 9.5-1 13.5c-1.794 0-4 6.51-4 8-1.577 0-2 1.762-2 3-1.747 0-2 .253-2 2l-2 2Z"/><path fill="#C9C9CA" id="scwm" d="M81 143c-1.732 0-3 5.353-3 7 1.732 0 3-5.353 3-7Z"/><path fill="#FD7E84" id="VAL" d="m288 144-1 1 1-1ZM162 192l8 5c1.749 0 6.697-6.599 9.5-8 6.359-3.18 12.862-1 19.5-1v-1l-2-5.5c-.978-1.956 1-4.077 1-5.5l-1-3v-1l-2-1.5c-.842-1.683-6-9.04-6-10.5-3.161 0-8-4.606-8-8-4.624 0-6.938-7-12-7v17.5l-2 2.5c0 1.173 7.323 13 0 13 0 2.738-3.26 11-7 11l2 3ZM294 192l-8 5-4.5-4c-15.78-7.89-7.53-5-24.5-5v-1c0-3.446 2-6.77 2-11v-3c.504 0 8-11.732 8-13 3.718 0 8-4.223 8-8 4.637 0 7.541-7 12-7v15.5l2 4.5c0 2.413-6.644 13 1 13 0 2.756 2.393 11 6 11l-2 3Z"/><path fill="#C7CACA" id="em" d="m155 147-1 1 1-1Z"/><path fill="#FD909E" id="AV" d="M192 158c0 1.577-1.762 2-3 2-3.161 0-8-4.606-8-8 3.356 0 5.985-5 10-5l2 10-1 1ZM264 159l3 1c3.718 0 8-4.223 8-8 0-2.22-7.892-5-10-5l-1 10v2Z"/><path fill="#C7CACA" id="em" d="M301 147c6.098 0 12 7.774 12 13.5 0 1.988.253 9.5-2 9.5l1-13.5-11-9.5ZM154 148c-1.408 0-5 1.197-5 3 1.408 0 5-1.197 5-3Z"/><path fill="#C9C9CA" id="scwm" d="M78 150c-1.473 0-1 1.952-1 3 1.473 0 1-1.952 1-3Z"/><path fill="#FE909F" id="IMD" d="m223 166 5.5-2 5.5 2c0-4.664-2-9.63-2-15l-4.5 1-3.5-2c0 5.605-1 10.861-1 16ZM233 150l-1 1 1-1Z"/><path fill="#C7CACA" id="em" d="M149 151c-1.747 0-2 .253-2 2l2-2Z"/><path fill="#C9C9CA" id="scwm" d="M379 152c1.92 0 4 8.394 4 10-1.693 0-4-8.239-4-10ZM77 153c-1.638 0-2 3.576-2 5 2.46 0 2-3.378 2-5Z"/><path fill="#C7CACA" id="em" d="M147 153c-1.747 0-2 .253-2 2l2-2ZM160 189l2 3c-7.619 0-16.197-21.895-19-27.5-.886-1.773-.427-9.5 2-9.5 0 11.16.76 19.26 9.5 28l5.5 6Z"/><path fill="#FE8D9F" id="PCN" d="M195 160c5.413 0 7.595 9 13 9 0-3.564-10-6.615-10-12h-5l-1 1 3 2ZM262 160c-2.25 0-3.376 2-5 2l2-5h5v2l-2 1Z"/><path fill="#C9C9CA" id="scwm" d="M75 158c-1.473 0-1 1.952-1 3 1.473 0 1-1.952 1-3Z"/><path fill="#FF6F80" id="TH" d="M195 160c0 4.7 2 7.3 2 12l-2-1.5c-.842-1.683-6-9.04-6-10.5 1.238 0 3-.423 3-2l3 2Z"/><path fill="#8598CC" id="GPe" d="M118 205c1.539 0 2.187 4 5 4 15.598 0 12 .358 12-16 0-6.993-6.003-34-14-34l-4 9.5c-1.867 3.735-.103 9.206-2 13-2.207 4.414 3 18.533 3 23.5Z"/><path fill="#FF6F80" id="TH" d="M259 172v1c.504 0 8-11.732 8-13l-3-1-2 1-3 12Z"/><path fill="#8598CC" id="GPe" d="m333 209-1 1c-13.506 0-11-4.294-11-16v-1l1-1c0-6.432 5.091-33 13-33 2.816 0 3.046 9.591 4 11.5 5.132 10.265 0 22.898 0 33.5-1.692 0-2.921 5-6 5Z"/><path fill="#FC8E9F" id="IAD" d="M215 176c-1.473 0-1 1.952-1 3-6.021 0-10.011-7-17-7 0-4.7-2-7.3-2-12 5.413 0 7.595 9 13 9h1l6 6v1ZM242 175v4c5.944 0 11.33-7 17-7l3-12c-2.25 0-3.376 2-5 2l-1 1-1 1-1 1c0 1.577-1.762 2-3 2 0 1.577-1.762 2-3 2l-2 1-1 1h-1l-2 3v1Z"/><path fill="#C9C9CA" id="scwm" d="m74 161-1 2 1-2Z"/><path fill="#12AD83" id="VISC1" d="M37 196c0 .672-4.33 2-5 2-.963 0-3-7.561-3-9v-27l5 1c0 4.927-3.481 14.538-1 19.5 1.827 3.654 4 9.25 4 13.5Z"/><path fill="#FE8D9F" id="PCN" d="m257 162-1 1 1-1Z"/><path fill="#12AD83" id="VISC1" d="m419 196 6 2c0-3.088 1.585-9.671 3-12.5 2.859-5.719-1-17.935-1-23.5l-5 1c0 5.092 3.65 16.2 1 21.5-1.573 3.147-4 7.872-4 11.5Z"/><path fill="#12AC83" id="VISC2/3" d="M37 196h1c3.378 0 6.922-2 11-2v-1h-1c-5.94 0-5-24.238-5-28l-8-2h-1c0 4.927-3.481 14.538-1 19.5 1.827 3.654 4 9.25 4 13.5Z"/><path fill="#FE8D9F" id="PCN" d="m256 163-1 1 1-1Z"/><path fill="#12AC83" id="VISC2/3" d="M408 194c4.14 0 6.665 2 11 2 0-3.628 2.427-8.353 4-11.5 2.65-5.3-1-16.408-1-21.5l-8 2c0 4.69-.508 27-5 27l-1 2Z"/><path fill="#FD8E9E" id="CM" d="M217 179h22l3-4v-4l-8-5-5.5-2-5.5 2-8 5v5l2 3Z"/><path fill="#FE8D9F" id="PCN" d="m255 164-1 1 1-1Z"/><path fill="#11AC82" id="VISC4" d="M47 165c0 4.948-4.757 12.986-2 18.5l3 9.5c-5.94 0-5-24.238-5-28h4Z"/><path fill="#12AD82" id="VISC5" d="M48 193h1c1.913 0 13-.612 13-2 0-2.128-1.054-5.608-2-7.5V167c-4.364 0-8.259-2-12-2h-1c0 4.948-4.757 12.986-2 18.5l3 9.5Z"/><path fill="#FF7E83" id="VPM" d="M167 165c-5.489 0-3.361 13 0 13 7.323 0 0-11.827 0-13Z"/><path fill="#FE8D9F" id="PCN" d="M254 165c-1.238 0-3 .423-3 2 1.238 0 3-.423 3-2Z"/><path fill="#FF7E83" id="VPM" d="M289 165c8.778 0 1 10.454 1 13-7.644 0-1-10.587-1-13Z"/><path fill="#C9C9CA" id="scwm" d="m383 165 1 2-1-2Z"/><path fill="#12AD82" id="VISC5" d="M407 194h1l1-2c0-2.613.93-4.36 2-6.5 2.949-5.898-2-15.534-2-20.5-4.017 0-8.279 2-13 2v1c0 6.092 1.966 12.568-1 18.5-.574 1.147 1.064 4.5-1 4.5v1c2.088 0 13 .318 13 2Z"/><path fill="#11AC82" id="VISC4" d="M414 165c0 4.69-.508 27-5 27 0-2.613.93-4.36 2-6.5 2.949-5.898-2-15.534-2-20.5h5Z"/><path fill="#C9C9CA" id="scwm" d="M73 166c-1.473 0-1 1.952-1 3 1.473 0 1-1.952 1-3Z"/><path fill="#11AC83" id="VISC6a" d="M62 191h1c4.55 0 8.157-2 12-2l-4-9.5c-1.698-3.395 0-7.353 0-10.5-3.186 0-7.891-2-11-2v16.5c.946 1.892 2 5.372 2 7.5Z"/><path fill="#FE8D9F" id="PCN" d="M251 167c-1.238 0-3 .423-3 2 1.238 0 3-.423 3-2Z"/><path fill="#11AC83" id="VISC6a" d="M382 189c3.437 0 7.626 2 12 2 2.064 0 .426-3.353 1-4.5 2.966-5.932 1-12.408 1-18.5-3.51 0-7.022 1-10 1 0 7.639-4 13.315-4 20Z"/><path fill="#11AD82" id="VISC6b" d="M75 189h1l-4-12.5c0-1.295-1.927-4.5 0-4.5v-3h-1c0 3.147-1.698 7.105 0 10.5l4 9.5Z"/><path fill="#FE8D9F" id="PCN" d="M215 171v4l-6-6c1.974 0 3.517 2 6 2ZM248 169l-2 1 2-1Z"/><path fill="#11AD82" id="VISC6b" d="M381 189h1c0-6.685 4-12.361 4-20h-2l1 3c0 6.219-5 11.381-5 17h1Z"/><path fill="#FE8D9F" id="PCN" d="m246 170-1 1 1-1Z"/><path fill="#C7CACA" id="em" d="M311 170c-1.794 0-4 6.51-4 8 2.447 0 4-6.063 4-8Z"/><path fill="#FE8D9F" id="PCN" d="m244 171-2 3v-3h2Z"/><path fill="#FD8D9F" id="AMd" d="m242 184 5 1c0-2.196 8.041-9 10-9l2-2v-2c-5.67 0-11.056 7-17 7v5Z"/><path fill="#C8CBCC" id="ec" d="m88 213-1 1-4-8-3-5v-2l-1-2v-1l-3-7-4-12.5c0-1.295-1.927-4.5 0-4.5h4c0 9.708 1.005 18.51 5 26.5l6 11.5 1 3Z"/><path fill="#FD8D9F" id="AMd" d="m214 184-5 1c0-2.006-7.07-9-10-9l-2-3v-1c6.989 0 10.979 7 17 7h1l-1 5Z"/><path fill="#C8CBCC" id="ec" d="m368 213 2 1 4-8c0-1.041.986-5 2-5v-1l1-1v-2l1-1v-1l1-1 1-5c0-5.619 5-10.781 5-17h-4c0 7.677-.811 16.121-4 22.5l-7 14.5-1 1-1 3Z"/><path fill="#FF6F80" id="TH" d="M198 176h1l-2-3 1 3ZM257 176h2v-2l-2 2ZM239 179h3v-4l-3 4Z"/><path fill="#FC909D" id="AMv" d="M209 185c0 6.813-6.651 2-10 2l-2-5.5c-.978-1.956 1-4.077 1-5.5h1c2.93 0 10 6.994 10 9Z"/><path fill="#FF6F80" id="TH" d="M215 179h2l-2-3c-1.473 0-1 1.952-1 3h1Z"/><path fill="#FC909D" id="AMv" d="M247 185c0 6.784 7.264 2 10 2 0-3.446 2-6.77 2-11h-2c-1.959 0-10 6.804-10 9Z"/><path fill="#C7CACA" id="em" d="M307 178c-1.577 0-2 1.762-2 3 1.577 0 2-1.762 2-3Z"/><path fill="#FE8E9C" id="IAM" d="M217 186h22c1.238 0 3-.423 3-2v-5h-27l-1 5 3 2Z"/><path fill="#C7CACA" id="em" d="M305 181c-1.747 0-2 .253-2 2l2-2ZM303 183l-2 2c1.747 0 2-.253 2-2Z"/><path fill="#FF6F80" id="TH" d="M206 201c0 1.579-2.855 1-4 1 0-1.713-.09-10.68-1-12.5l-2-1.5v-1c3.349 0 10 4.813 10-2l5-1 3 2-1 3c-3.722 0-2.571 6-5 6 0-12.127-16.341 6-5 6ZM251 201c0 1.579 2.855 1 4 1v-11.5l2-2.5v-1c-2.736 0-10 4.784-10-2l-5-1c0 1.577-1.762 2-3 2l2 3 4 5c0-11.307 16.446 7 6 7Z"/><path fill="#FF8E9E" id="RH" d="M219 194h18c0-1.247 2.467-5 4-5l-2-3h-22l-1 3c0 1.947 3 2.636 3 5Z"/><path fill="#C7CACA" id="em" d="m296 189-2 3c2.571 0 7-4.429 7-7l-5 4Z"/><path fill="#FF7E84" id="VM" d="m203 208-4 4c-4.595 0-8.045-4-13-4l-9-5h-1l-1-1-5-5c1.749 0 6.697-6.599 9.5-8 6.359-3.18 12.862-1 19.5-1l2 1.5c.91 1.82 1 10.787 1 12.5l1 6ZM270 208l-13 4c0-2.54-3-2.543-3-4 0-2.124 1-4.436 1-6v-11.5l2-2.5c16.97 0 8.72-2.89 24.5 5l4.5 4-6 6-1 1-2 1c-1.176 0-7 2.114-7 3Z"/><path fill="#209766" id="AIp6a" d="m73 212-2 1c0-8.172-8-14.295-8-22 4.55 0 8.157-2 12-2l2 6c-.784 0-3.54 6 3 6l3 5c-2.528 0-8 1.611-8 5l-2 1Z"/><path fill="#219666" id="AIp6b" d="m77 195 2 1-3-7h-1l2 6Z"/><path fill="#FD8E9F" id="SMT" d="M213 205c-3.641 0-5.885 3-10 3l-1-6c1.145 0 4 .579 4-1 1.429 0 4-1.288 4-3l1-1v-2c2.429 0 1.278-6 5-6 0 1.947 3 2.636 3 5 0 3.891-6 7.431-6 11ZM243 205c3.854 0 6.486 3 11 3 0-2.124 1-4.436 1-6-1.145 0-4 .579-4-1h-2l-3-3v-1l-1-1v-2l-4-5c-1.533 0-4 3.753-4 5 0 3.988 6 6.942 6 11Z"/><path fill="#219666" id="AIp6b" d="M381 189c0 1.424-.362 5-2 5l1-5h1Z"/><path fill="#209766" id="AIp6a" d="M384 212h1c0-3.917 4.227-11.953 6-15.5l3-4.5v-1c-4.374 0-8.563-2-12-2h-1c0 1.424-.362 5-2 5v1c2.747 0 3.643 6-3 6-1.014 0-2 3.959-2 5 1.253 0 7 1.622 7 5l3 1Z"/><path fill="#219864" id="AIp5" d="m71 213-6 1c0-.284-16-13.037-16-20v-1c1.913 0 13-.612 13-2h1c0 7.705 8 13.828 8 22Z"/><path fill="#C7C9CC" id="mtt" d="M210 198c0 1.712-2.571 3-4 3-11.341 0 5-18.127 5-6v2l-1 1ZM249 201h2c10.446 0-6-18.307-6-7v2l1 1v1l3 3Z"/><path fill="#8599CC" id="PAL" d="m322 192-1 1 1-1Z"/><path fill="#219864" id="AIp5" d="m385 213 7 1c0-2.543 15-11.977 15-20 0-1.682-10.912-2-13-2l-3 4.5c-1.773 3.547-6 11.583-6 15.5v1Z"/><path fill="#8599CC" id="PAL" d="M133 215c0-5.435 5.338 2 7 2 0-1.186-3.346-5.192-4-6.5l1-3V196l-2-3c0 16.358 3.598 16-12 16l3 3 7 3Z"/><path fill="#FD909F" id="RE" d="M227 221c-2.698 0-2-4.255-2-6 0-4.17-3.695-14.402 1.5-17 8.466-4.233 4.5 14.829 4.5 17 0 1.321.684 6-1 6 0 2.676 10.068-2 11-2l3-4.5c1.411-2.822-1-7.079-1-9.5 0-4.058-6-7.012-6-11h-18c0 3.891-6 7.431-6 11l-1 7.5c.579 1.157 3 5.491 3 6.5 1.143 0 12 4.841 12 2Z"/><path fill="#209865" id="AIp2/3" d="m65 214-12 5c0-4.095-15-14.499-15-23 3.378 0 6.922-2 11-2 0 6.963 16 19.716 16 20Z"/><path fill="#8599CC" id="PAL" d="M318 215c3.515 0 5-4.514 5 0l7-3 2-2c-13.506 0-11-4.294-11-16l-2 2v12l1 3.5-2 3.5Z"/><path fill="#219666" id="AIp6b" d="M378 195h1v-1l-1 1Z"/><path fill="#209865" id="AIp2/3" d="M392 214c0 .591 10.751 5 12 5 0-5.015 15-15.848 15-23-4.335 0-6.86-2-11-2h-1c0 8.023-15 17.457-15 20Z"/><path fill="#8ADA86" id="CLA" d="M80 199v2c-6.54 0-3.784-6-3-6l2 1v1l1 2ZM376 200v1c6.643 0 5.747-6 3-6h-1v1l-1 1v2l-1 1Z"/><path fill="#219765" id="AIp1" d="m53 219-5 2c-1.893 0-16-20.069-16-23 .67 0 5-1.328 5-2h1c0 8.501 15 18.905 15 23Z"/><path fill="#8499CC" id="GPi" d="M152 225h1c6.037 0 10-5.297 10-11v-1l-6-5c-6.728 0-12.94-12-20-12v11.5l-1 3c.654 1.308 4 5.314 4 6.5l6 4 1 1 4 2 1 1Z"/><path fill="#FF6F80" id="TH" d="m245 196 1 1-1-1Z"/><path fill="#8499CC" id="GPi" d="M304 225h1l1-1 9-6 1-1 1-1 1-1 2-3.5-1-3.5v-12l-20 12-6 6v1c0 5.617 5.55 10 11 10Z"/><path fill="#209766" id="AIp6a" d="m378 196-1 1 1-1Z"/><path fill="#219765" id="AIp1" d="m404 219 5 2c0-5.639 16-15.59 16-23l-6-2c0 7.152-15 17.985-15 23Z"/><path fill="#209766" id="AIp6a" d="m79 197 1 2-1-2Z"/><path fill="#FF6F80" id="TH" d="m211 197-1 1 1-1Z"/><path fill="#FC8F9F" id="Xi" d="M227 221h3c1.684 0 1-4.679 1-6 0-2.171 3.966-21.233-4.5-17-5.195 2.598-1.5 12.83-1.5 17 0 1.745-.698 6 2 6Z"/><path fill="#FF6F80" id="TH" d="m246 198 3 3-3-3Z"/><path fill="#209766" id="AIp6a" d="m377 199-1 1 1-1Z"/><path fill="#FF6F80" id="TH" d="m175 202 1 1-1-1ZM186 208c-1.048 0-3-.473-3 1-1.702 0-6-4.802-6-6l9 5ZM280 203l-1 1 1-1ZM279 204l-2 1 2-1Z"/><path fill="#97D6F9" id="STR" d="M356 221h1c0-1.747.253-2 2-2 0-1.747.253-2 2-2l2-3c-7.74 0-24 1.283-24-10-1.692 0-2.921 5-6 5l-1 1-2 2h5c0-6.521 10.447 3 11 3 3.642 0 10 1.748 10 6ZM95 216l5 4c0-3.123 8.819-5 11-5 0-6.703 10.286-3 11-3h4l-3-3c-2.813 0-3.461-4-5-4l-7.5 8c-4.448 2.224-12.234 1-17.5 1l2 2Z"/><path fill="#8599CC" id="PAL" d="m153 225 4 4c9.806 0 14-5.557 14-14v-1c0-1.658-2.382-3 1-3l-7-6c0 .716 2.373 3 0 3l4 4.5c.493.986.363 6.432-1.5 5.5l-4.5-4c0 5.703-3.963 11-10 11Z"/><path fill="#FD909C" id="PR" d="M212 220h1l2-1c0-1.009-2.421-5.343-3-6.5l1-7.5c-3.641 0-5.885 3-10 3l-4 4c0 3.399 11 3.549 11 7h1l1 1ZM245 219h1l11-7c0-2.54-3-2.543-3-4-4.514 0-7.146-3-11-3 0 2.421 2.411 6.678 1 9.5l-3 4.5c0 1.473 1.952 1 3 1l1-1Z"/><path fill="#FF6F80" id="TH" d="M270 208c1.048 0 3-.473 3 1 1.797 0 4-2.203 4-4-1.176 0-7 2.114-7 3Z"/><path fill="#A0EE9C" id="EPd" d="M376 228c0 4.19-9 7.629-9 1l3-15 4-8c1.253 0 7 1.622 7 5v6c0 3.984-5 6.656-5 11ZM80 228c0 5.107 9 7.562 9 0l-2-14-4-8c-2.528 0-8 1.611-8 5v5c0 4.276 5 7.23 5 12Z"/><path fill="#8599CC" id="PAL" d="m304 225-5 4c-8.556 0-14-5.46-14-14v-1c0-1.712 3.749-3 0-3 0-1.901 4.332-5 6-5v3c-2.813 0-5.668 9-2.5 9 1.47 0 2.377-3 4.5-3 0 5.617 5.55 10 11 10ZM163 209v4l-6-5 6 1Z"/><path fill="#CCCACB" id="nst" d="M163 213v1l4.5 4c1.863.932 1.993-4.514 1.5-5.5l-4-4.5-2 1v4Z"/><path fill="#F0483B" id="ZI" d="m210 221-2.5 2c-3.846 1.923-11.024-1-14.5-1l-16-6-4-1-2-1c0-1.658-2.382-3 1-3 1.087 0 13 4.638 13 .5l-2-2.5c0-1.473 1.952-1 3-1 4.955 0 8.405 4 13 4 0 3.399 11 3.549 11 7v2ZM246 220c0 5.73 14.495 2 17 2l16-6h1l1-1h3l1-1c0-1.712 3.749-3 0-3-1.934 0-11.573 4.354-13 1.5l1-3.5c0-1.473-1.952-1-3-1l-13 4-11 7v1Z"/><path fill="#CCCACB" id="nst" d="M293 214v1c-2.123 0-3.03 3-4.5 3-3.168 0-.313-9 2.5-9 .839 0 2-1.93 2 0v5Z"/><path fill="#8599CC" id="PAL" d="M293 209v5l6-6-6 1ZM333 209l-1 1 1-1Z"/><path fill="#97D6F9" id="STR" d="m370 209-1 1 1-1ZM88 213h1v-1l-2-2 1 3Z"/><path fill="#80BEE1" id="CEAl" d="M111 215c0 3.953 3.277 18 10 18 6.856 0 1-18.598 1-21-.714 0-11-3.703-11 3ZM346 215c0 5.112-4.424 18-11 18-6.955 0 0-20.01 0-21 0-6.521 10.447 3 11 3Z"/><path fill="#97D6F9" id="STR" d="M367 213h1l1-3-2 2v1Z"/><path fill="#8AD987" id="CTXsp" d="M73 212c0 1.465-.109 4 2 4v-5l-2 1ZM384 212l-3 5v-6l3 1Z"/><path fill="#C9C8CA" id="ee" d="m79 227 1 1c0-4.77-5-7.724-5-12-2.109 0-2-2.535-2-4l-2 1 2 4 1 1v1l1 1v1l1 1 1 1 1 3 1 1Z"/><path fill="#90EB8D" id="LA" d="M98 221c-3.128 0-5.28 2-6 2-.587 0-3-8.833-3-10v-1l4 2 2 2c0 2.364 3 3.053 3 5Z"/><path fill="#7FC0E0" id="CEAm" d="M136 246c-1.712 0-3-1.212-3 2-1.164 0-12 .237-12-2v-13c6.856 0 1-18.598 1-21h4l7 3c2.921 0 15 13.348 15 17l-1 2c-3.655 0-8 5.646-8 9l-3 3ZM335 246c0 2.835-10.528 2-12 2 0-1.747-.253-2-2-2l-3-2c0-2.747-3.859-9-7-9l-2-2c0-9.415 14-14.384 14-18l7-3h5c0 .99-6.955 21 0 21v13Z"/><path fill="#90EB8D" id="LA" d="M359 220c3.694 0 4.108 5 6 5 0-4.646 2-7.501 2-12v-1l-3 1-1 1-2 3c0 1.747-.253 2-2 2v1Z"/><path fill="#C9C8CA" id="ee" d="m378 227-2 1c0-4.344 5-7.016 5-11l3-5h1v1l-2 5-1 1v1l-1 1v1l-1 1-1 1v1l-1 1v1Z"/><path fill="#6ACAB9" id="PIR" d="m103 275-3 4.5c-.946 1.893-9 15.889-9 16.5-3.926 0-12.272-12.045-14-15.5l-22-44-7-15.5 5-2 12-5 6-1 2 4 1 1v1l1 1v1c0 4.982 7 8.476 7 13l3 4c0 9.145 18 23.504 18 35v2Z"/><path fill="#C8C9CB" id="amc" d="M92 234c0 1.874 2.89 11 5 11 0-7.116-5-13.914-5-22-.587 0-3-8.833-3-10h-1l-1 1 2 14 3 6Z"/><path fill="#A2B1D7" id="SI" d="M158 237c-1.481 0-.785 2-3 2 0-1.726-4.558-5-6-5l-1-2c0-3.652-12.079-17-15-17 0-5.435 5.338 2 7 2l6 4 1 1 4 2 1 1h1l4 4 1 8ZM299 237c0 1.747.253 2 2 2l6-5 2-1c0-9.415 14-14.384 14-18 0-4.514-1.485 0-5 0l-1 1-1 1-1 1-9 6-1 1h-1l-5 4v8Z"/><path fill="#97D6F9" id="STR" d="m364 213-1 1 1-1Z"/><path fill="#C8C9CB" id="amc" d="M365 233c0 1.49-2.206 8-4 8l4-16c0-4.646 2-7.501 2-12h1l2 1-3 15-2 4Z"/><path fill="#6ACAB9" id="PIR" d="M354 275c1.183 0 1.535 3.57 2 4.5 1.091 2.182 8.371 16.5 10 16.5 2.298 0 11.946-13.393 13-15.5 5.496-10.992 12.497-20.994 18-32l6-16c1.263-2.527 6-8.946 6-11.5l-5-2c-1.249 0-12-4.409-12-5l-7-1-2 5-1 1v1l-1 1v1l-1 2-1 1v1l-1 1-3 6-1 1-1 1v1l-1 1v1c0 5.643-19 25.875-19 35l1 2Z"/><path fill="#E64438" id="HY" d="M171 215h2l-2-1v1ZM284 215h1v-1l-1 1Z"/><path fill="#80BFE0" id="CEAc" d="M114 245c1.819 0 4.591 1 7 1v-13c-6.723 0-10-14.047-10-18-2.181 0-11 1.877-11 5 0 5.063 11 13.685 11 21l2 4h1Z"/><path fill="#F2483A" id="LHA" d="M187 257c0 3.303-2.395 8-6 8l-13-12-7-7-3-9-1-8c9.806 0 14-5.557 14-14h2l4 1c0 2.065 14 7.332 14 15l-6 6.5c-1.682 3.364-4.865 19.5 2 19.5Z"/><path fill="#E64438" id="HY" d="m281 215-1 1 1-1Z"/><path fill="#F2483A" id="LHA" d="m277 264-1 1c-4.665 0-6-3.485-6-8 4.705 0 4.298-12.903 3-15.5l-4.5-7.5-3.5-3c0-7.02 14-12.222 14-15h1l1-1h4c0 8.54 5.444 14 14 14v8c-1.069 0-3 6.717-3 8l-1 1-4 5-2 1-1 1-1 1-6 6-1 1-1 1-1 1-1 1Z"/><path fill="#8599CC" id="PAL" d="m318 215-1 1 1-1Z"/><path fill="#80BFE0" id="CEAc" d="M335 246h6l2-1c0-1.238.423-3 2-3 0-1.041.986-5 2-5l2-4c0-1.572 2.052-7 4-7 0-1.238.423-3 2-3l1-2c0-4.252-6.358-6-10-6 0 5.112-4.424 18-11 18v13Z"/><path fill="#C8CBCC" id="ec" d="M111 241v1c-.732 0-8.699-21-13-21 0-1.947-3-2.636-3-5l5 4c0 5.063 11 13.685 11 21Z"/><path fill="#E64438" id="HY" d="M209 232c-1.406 0-7-.714-7 1-.17 0-7.269-2-11-2 0-7.668-14-12.935-14-15l16 6c0 9.078 2.153 5.326 9.5 9 1.324.662 6.5-1.207 6.5 1ZM247 232h8c2.978 0 6.49-1 10-1 0-7.02 14-12.222 14-15l-16 6c0 2.093 4.093 4.204-1.5 7-1.676.838-14.5 1.659-14.5 3Z"/><path fill="#8599CC" id="PAL" d="m317 216-1 1 1-1Z"/><path fill="#8AD987" id="CTXsp" d="m73 217 1 1-1-1Z"/><path fill="#8599CC" id="PAL" d="m316 217-1 1 1-1Z"/><path fill="#C8CBCC" id="ec" d="M361 217c-1.747 0-2 .253-2 2 1.747 0 2-.253 2-2Z"/><path fill="#8AD987" id="CTXsp" d="m383 218-1 1 1-1ZM74 219l1 1-1-1Z"/><path fill="#E64438" id="HY" d="m211 220-1 1v-2h1v1Z"/><path fill="#FF6F80" id="TH" d="M211 220h1l-1-1v1ZM225 223h6c2.301 0 13-1.028 13-3-1.048 0-3 .473-3-1-.932 0-11 4.676-11 2h-3c0 2.841-10.857-2-12-2l-2 1c0 2.339 9.67 3 12 3ZM244 220h1v-1l-1 1Z"/><path fill="#E64438" id="HY" d="M245 220h1v-1h-1v1Z"/><path fill="#C8CBCC" id="ec" d="m359 220-2 1c0-1.747.253-2 2-2v1Z"/><path fill="#9DE79B" id="BLAa" d="M104 251h1l6-5v-4c-.732 0-8.699-21-13-21-3.128 0-5.28 2-6 2 0 8.086 5 14.884 5 22v1c2.985 0 3.024 5 7 5Z"/><path fill="#FF4C3D" id="PVHd" d="m214 233 4 2c0-3.513-3.517-4.534-5-7.5-3.212-6.425 10.453-2.5 12-2.5v-2c-2.33 0-12-.661-12-3h-2l-1 1-2.5 2c-3.846 1.923-11.024-1-14.5-1 0 9.078 2.153 5.326 9.5 9 1.324.662 6.5-1.207 6.5 1h3l1 1h1ZM239 234h2l1-1h2l1-1h2c0-1.341 12.824-2.162 14.5-3 5.593-2.796 1.5-4.907 1.5-7-2.505 0-17 3.73-17-2h-2c0 1.972-10.699 3-13 3v2c2.457 0 16.101-4.702 12 3.5-.895 1.789-4 2.387-4 5.5Z"/><path fill="#9DE79B" id="BLAa" d="m355 251-3 1-6-5-1-3v-1c1.995 0 2-4.377 2-6 2.109 0 2-2.535 2-4 1.948 0 4-5.428 4-7 1.577 0 2-1.762 2-3 1.747 0 2-.253 2-2l2-1c3.694 0 4.108 5 6 5l-4 16c-1.014 0-2 3.959-2 5v1l-2 2-2 2Z"/><path fill="#8AD987" id="CTXsp" d="m382 220-1 1 1-1ZM92 234c-4.707 0-6.52 3-7 3l-3-3c0-4.524-7-8.018-7-13l1 1 1 1 1 3 1 1 1 1c0 5.107 9 7.562 9 0l3 6Z"/><path fill="#8599CC" id="PAL" d="m146 221 1 1-1-1Z"/><path fill="#C8CBCC" id="ec" d="M357 221c0 1.747-.253 2-2 2l1-2h1Z"/><path fill="#A0EE9C" id="EPd" d="m76 222 1 1-1-1Z"/><path fill="#8AD987" id="CTXsp" d="M380 223v1l1-2-1 1Z"/><path fill="#FF5D4F" id="PVH" d="M229 239h4l5-4 1-1c0-3.113 3.105-3.711 4-5.5 4.101-8.202-9.543-3.5-12-3.5h-6c-1.547 0-15.212-3.925-12 2.5 1.483 2.966 5 3.987 5 7.5 1.53 0 3.216 4 6 4l3 1c0-3.962 1-8.688 1-12 0-1.186 1-1.186 1 0v11Z"/><path fill="#E64438" id="HY" d="M225 225h6v-2h-6v2Z"/><path fill="#C8CBCC" id="ec" d="M355 223c-1.577 0-2 1.762-2 3 1.577 0 2-1.762 2-3Z"/><path fill="#A0EE9C" id="EPd" d="M379 224h1v-1l-1 1Z"/><path fill="#8599CC" id="PAL" d="m151 224 1 1-1-1ZM306 224l-1 1 1-1Z"/><path fill="#8AD987" id="CTXsp" d="m380 224-1 1v-1h1Z"/><path fill="#A0EE9C" id="EPd" d="M378 226h1v-1l-1 1ZM78 226l1 1-1-1Z"/><path fill="#C8CBCC" id="ec" d="M353 226c-1.948 0-4 5.428-4 7 1.948 0 4-5.428 4-7Z"/><path fill="#8AD987" id="CTXsp" d="m379 226-1 1v-1h1Z"/><path fill="#E64438" id="HY" d="M228 228h1c0-1.186-1-1.186-1 0Z"/><path fill="#8AD987" id="CTXsp" d="M371 237h1l1-1v-1l1-1 1-1 3-6-2 1c0 4.19-9 7.629-9 1l-2 4c1.984 0 6 1.444 6 4Z"/><path fill="#A8A9AA" id="V3" d="M228 275h1v-47h-1c0 3.312-1 8.038-1 12v27c0 1.49-.735 8 1 8Z"/><path fill="#F2463A" id="PeF" d="M190 250c0 1.704 1.603 7-3 7-6.865 0-3.682-16.136-2-19.5l6-6.5c3.731 0 10.83 2 11 2 5.395 0 1.519 20-6 20-2.698 0-2-4.255-2-6v-3.5c0-10.575-12.766 6.5-4 6.5ZM266 250c0 2.421-.511 7 4 7 4.705 0 4.298-12.903 3-15.5l-4.5-7.5-3.5-3c-3.51 0-7.022 1-10 1l-3 3.5c-1.868 3.736 2.966 17.5 8 17.5 3.236 0 3-2.435 3-5 0-1.549-1-3.551-1-4.5 0-10.804 14.002 6.5 4 6.5Z"/><path fill="#97D6F9" id="STR" d="M147 234h2l-1-2-1 2Z"/><path fill="#FF4B3E" id="AHN" d="m214 233 5 5.5c1.827 3.655-.63 11.26-2 14-3.285 6.569-21 7.474-21 .5 7.519 0 11.395-20 6-20 0-1.714 5.594-1 7-1h3l1 1h1Z"/><path fill="#E64438" id="HY" d="m212 232 1 1-1-1ZM245 232l-1 1 1-1Z"/><path fill="#FF4B3E" id="AHN" d="M241 234c0 4.146-7.698 7.104-2 18.5 3.361 6.721 21 7.501 21 .5-5.034 0-9.868-13.764-8-17.5l3-3.5h-10l-1 1h-2l-1 1Z"/><path fill="#A0ED9D" id="EPv" d="m110 274-1 1-5-1-1-1c0-11.496-18-25.855-18-35v-1c.48 0 2.293-3 7-3 0 1.874 2.89 11 5 11v1c0 1.668 3.099 6 5 6l3 3 1 2 1 1v1l1 4 2 11Z"/><path fill="#E64438" id="HY" fill-rule="evenodd" d="M211 260c0 .684-5.955 2.411-7 4.5-4.08 8.16 8.52 15.49 14.5 12.5 5.538-2.769-.393-17-7.5-17m3 29h3l-1-4.5 8-6.5v-39c-2.784 0-4.47-4-6-4l-4-2 5 5.5c1.827 3.655-.63 11.26-2 14-3.285 6.569-21 7.474-21 .5-2.698 0-2-4.255-2-6l-4 3c0 1.704 1.603 7-3 7 0 3.303-2.395 8-6 8 0 1.017 4.062 8 6 8l-1-3.5c4.489-8.978 10.028 3.764 13.5 5.5 3.208 1.604 10.695 4.889 12.5 8.5 1.394 2.789-3 3.035-3 4.5 1.235 0 5-.643 5 1Z"/><path fill="#E64438" id="HY" d="m242 233-1 1 1-1Z"/><path fill="#97D6F9" id="STR" d="m307 234 4 1-2-2-2 1Z"/><path fill="#C8CBCC" id="ec" d="m349 233-2 4c2.109 0 2-2.535 2-4Z"/><path fill="#A0ED9D" id="EPv" d="M353 274c-1.564 0-3.876 1-6 1v-2l1-11c1.473 0 1-1.952 1-3l1-1 1-2 1-1 1-2h1l1-1v-1c1.747 0 2-.253 2-2 1.747 0 2-.253 2-2v-1c2.461 0 2-3.378 2-5 1.794 0 4-6.51 4-8 1.984 0 6 1.444 6 4l1 1c0 5.643-19 25.875-19 35v1Z"/><path fill="#99D2BD" id="OLF" d="m375 233-1 1 1-1ZM85 237v1l-3-4 3 3Z"/><path fill="#80BFE1" id="MEA" d="M159 278h1v-1l1-1v-10l-1-14c-2.064 0-.426-3.353-1-4.5l-4-8.5c0-1.726-4.558-5-6-5h-2c-3.655 0-8 5.646-8 9 0 4.121-1 9.275-1 14 0 3.531 1 7.893 1 12 1.59 0 1.443 4.386 2 5.5.706 1.412 5 5.954 5 6.5l5.5-4c2.364-1.182 5.696 1 7.5 1Z"/><path fill="#FF4C3D" id="PVHd" d="m239 234-1 1 1-1Z"/><path fill="#E64438" id="HY" fill-rule="evenodd" d="M244 260c0 .543-6.027 3.555-7 5.5v4c-7.218 14.436 27.127 7.127 12.5-7.5l-5.5-2m-4 29h3c0-1.579 2.855-1 4-1 0-1.284-3.47-2.561-2-5.5 1.416-2.833 7.05-4.275 9.5-5.5 5.114-2.557 15.5-19.175 15.5-4l6-8c-4.665 0-6-3.485-6-8-4.511 0-4-4.579-4-7l-3-2c0 2.565.236 5-3 5 0 7.001-17.639 6.221-21-.5-5.698-11.396 2-14.354 2-18.5h-2l-1 1-5 4v39c1.351 0 7.305 6.109 8 7.5l-1 3.5Z"/><path fill="#80BFE1" id="MEA" d="m311 280-1 1-4.5-4c-2.364-1.182-5.696 1-7.5 1l-2-1v-2l-1-1v-7c0-5.88 2-10.652 2-16l4-12 6-5 4 1c3.141 0 7 6.253 7 9 0 1.406-.714 7 1 7v5c0 3.843-2 7.451-2 12l-2 7v1c-1.577 0-2 1.762-2 3l-2 1Z"/><path fill="#99D2BD" id="OLF" d="m374 234-1 1 1-1ZM373 236l-1 1 1-1Z"/><path fill="#8599CC" id="PAL" d="M163 250c-1.238 0-3 .423-3 2-2.064 0-.426-3.353-1-4.5l-4-8.5c2.215 0 1.519-2 3-2l3 9 2 4ZM294 250l3 1 4-12c-1.747 0-2-.253-2-2-1.069 0-3 6.717-3 8l-1 1-1 4Z"/><path fill="#C8CBCC" id="ec" d="M345 242v1c1.995 0 2-4.377 2-6-1.014 0-2 3.959-2 5Z"/><path fill="#99D2BD" id="OLF" d="M372 237v1l-1-1h1Z"/><path fill="#FD5D50" id="PVi" d="m224 278 4 1v-4c-1.735 0-1-6.51-1-8v-27l-3-1v39ZM233 278l-4 2v-41h4v39Z"/><path fill="#C7C8CA" id="fx" d="m194 247-4 3c-8.766 0 4-17.075 4-6.5v3.5ZM263 248l3 2c10.002 0-4-17.304-4-6.5 0 .949 1 2.951 1 4.5Z"/><path fill="#97D6F9" id="STR" d="M112 245h1l-2-4v3l1 1Z"/><path fill="#C8C9CB" id="amc" d="M361 241c-1.014 0-2 3.959-2 5 2.461 0 2-3.378 2-5Z"/><path fill="#97D6F9" id="STR" d="M343 245h1l1-1v-2c-1.577 0-2 1.762-2 3ZM136 254l2 3c0-4.725 1-9.879 1-14l-3 3c0 .822 2.798 8 0 8Z"/><path fill="#8AD987" id="CTXsp" d="m112 245-1 1v-2l1 1Z"/><path fill="#97D6F9" id="STR" d="M321 246c0 1.624-2 2.75-2 5-1.714 0-1-5.594-1-7l3 2Z"/><path fill="#8AD987" id="CTXsp" d="m344 245 2 2-1-3-1 1Z"/><path fill="#80BEE2" id="IA" d="m107 259 4 2c5.514 0 14 .284 14-7l-2.5-3c-.914-.457-8.5-4.409-8.5-6h-2l-1 1-6 5-1 2 1 2 1 2 1 1v1Z"/><path fill="#97D6F9" id="STR" d="M134 252c-4.822 0-6.853 2-9 2l-2.5-3c-.914-.457-8.5-4.409-8.5-6 1.819 0 4.591 1 7 1 0 2.237 10.836 2 12 2l1 4Z"/><path fill="#C7CAC8" id="stc" d="m134 252 2 2c2.798 0 0-7.178 0-8-1.712 0-3-1.212-3 2l1 4Z"/><path fill="#E64438" id="HY" d="m296 245-1 1 1-1Z"/><path fill="#97D6F9" id="STR" d="m343 245-2 1 2-1Z"/><path fill="#80BEE2" id="IA" d="m349 259-3 2c-5.188 0-14 .667-14-6 0-4.662 9-6.247 9-9l2-1h1l2 2 6 5v3l-1 1-1 2-1 1Z"/><path fill="#C8C9CB" id="amc" d="m102 252 2 1v-2c-3.976 0-4.015-5-7-5 0 1.668 3.099 6 5 6Z"/><path fill="#E64438" id="HY" d="m163 250 5 3-7-7 2 4ZM294 250l-3 1 4-5-1 4Z"/><path fill="#C7CAC8" id="stc" d="m322 253-1 1-2-1v-2c0-2.25 2-3.376 2-5 1.747 0 2 .253 2 2v4l-1 1Z"/><path fill="#97D6F9" id="STR" d="m323 252 3.5-1c1.362.681 4.844 4 5.5 4 0-4.662 9-6.247 9-9h-6c0 2.835-10.528 2-12 2v4Z"/><path fill="#C8C9CB" id="amc" d="m359 247-2 2c1.747 0 2-.253 2-2ZM357 249l-2 2c1.747 0 2-.253 2-2Z"/><path fill="#CAC7CB" id="fiber tracts" fill-rule="evenodd" d="M187 279c0 1.758 7 6.756 7 5.5 0-1.038-5.728-5.5-7-5.5m22 9c1.235 0 5-.643 5 1-18.659 0-18.528-2.514-33.5-10-2.331-1.165-4.31-1.121-5.5-3.5-.796-1.593-7-1.514-7-4.5 6.245 0 10.701 9 16.5 9 3.086 0-.095-5.691-.5-6.5-2.052-4.105-15.946-20.777-20.5-18.5-6.497 3.248 3.5 15.649 3.5 16-2.684 0-4.535-5-6-5l-1-14c0-1.577 1.762-2 3-2l5 3 13 12c0 1.017 4.062 8 6 8v1l2 2 4 6 1 1 1 2 2 1c3.741 0 7.636 2 12 2ZM264 283c0 1.93 1.93 0 0 0m2-2c0 4.42 1.206 0 0 0m1-2c0 3.479 3.479 0 0 0m-20 9c-1.145 0-4-.579-4 1 16.3 0 16.237-1.368 29.5-8 1.816-.908 9.5-3.245 9.5-6l-10.5 5c-2.994 0 1.049-6.597 1.5-7.5 2.815-5.63 10.721-14.61 16.5-17.5 7.548-3.774 3.5 10.656 3.5 13l2-1c0-5.88 2-10.652 2-16l-3-1-3 1-2 1-1 1-1 1-6 6-1 1-1 1-1 1-1 1-1 1-6 8-1 1-2 3-1 1-4 6-1 1c0 1.186-1 1.186-1 0-2.099 0-8.029 3-13 3Z"/><path fill="#8AD987" id="CTXsp" d="m105 251-1 2v-2h1Z"/><path fill="#84EA80" id="BMAa" d="m112 277 4 1c7.062 0 12.124-7 20-7l3-2c0-4.107-1-8.469-1-12l-2-3-2-2c-4.822 0-6.853 2-9 2 0 7.284-8.486 7-14 7-2.215 0-1.519 2-3 2l2 11 1 2v1h1Z"/><path fill="#E64438" id="HY" d="m291 251-2 1 2-1Z"/><path fill="#84EA80" id="BMAa" d="M340 278h3l2-1v-1l1-1 1-2 1-11-2-1c-5.188 0-14 .667-14-6-.656 0-4.138-3.319-5.5-4l-3.5 1-1 1-1 1-2 2c0 3.843-2 7.451-2 12l4 3c7.47 0 13.315 7 19 7Z"/><path fill="#C8C9CB" id="amc" d="M353 253h1l1-1v-1l-3 1v1h1Z"/><path fill="#8AD987" id="CTXsp" d="m104 253 1 2-3-3 2 1Z"/><path fill="#97D6F9" id="STR" d="m323 252-1 1 1-1Z"/><path fill="#8AD987" id="CTXsp" d="m355 252-1 1 1-1Z"/><path fill="#E64438" id="HY" d="m288 253-1 1 1-1Z"/><path fill="#97D6F9" id="STR" d="m321 254-2 2v-3l2 1Z"/><path fill="#8AD987" id="CTXsp" d="m353 253-1 2v-2h1Z"/><path fill="#CACCCB" id="opt" d="M167 271h1c6.245 0 10.701 9 16.5 9 3.086 0-.095-5.691-.5-6.5-2.052-4.105-15.946-20.777-20.5-18.5-6.497 3.248 3.5 15.649 3.5 16ZM289 271c-2.025 0-7 1.233-7 4l-10.5 5c-2.994 0 1.049-6.597 1.5-7.5 2.815-5.63 10.721-14.61 16.5-17.5 7.548-3.774 3.5 10.656 3.5 13l-1 1-1 1-2 1Z"/><path fill="#8AD987" id="CTXsp" d="m352 255-1 1 1-1ZM106 257l1 1-1-1ZM350 258l-1 1 1-1ZM111 261c-2.215 0-1.519 2-3 2l-1-4 4 2ZM346 261l2 1c1.473 0 1-1.952 1-3l-3 2Z"/><path fill="#FF4A3D" id="VMH" d="M211 260c0 .684-5.955 2.411-7 4.5-4.08 8.16 8.52 15.49 14.5 12.5 5.538-2.769-.393-17-7.5-17ZM244 260c0 .543-6.027 3.555-7 5.5v4c-7.218 14.436 27.127 7.127 12.5-7.5l-5.5-2Z"/><path fill="#E64438" id="HY" d="m281 260-1 1 1-1ZM279 262l-1 1 1-1ZM277 264l-1 1 1-1Z"/><path fill="#F24839" id="TU" d="M197 286c3.741 0 7.636 2 12 2 0-1.465 4.394-1.711 3-4.5-1.805-3.611-9.292-6.896-12.5-8.5-3.472-1.736-9.011-14.478-13.5-5.5l1 3.5v1l2 2 4 6 1 1 1 2 2 1ZM260 285h1l1-1 4-6 1-1 2-3 1-1c0-15.175-10.386 1.443-15.5 4-2.45 1.225-8.084 2.667-9.5 5.5-1.47 2.939 2 4.216 2 5.5 4.971 0 10.901-3 13-3Z"/><path fill="#CAC7CB" id="fiber tracts" d="m293 268-1 1 1-1Z"/><path fill="#99D2BD" id="OLF" d="M321 271c-3.625 0-3.563 4-6 4l2-7 4 3ZM146 281l-1 2c-3.631 0-3.256-12-9-12l3-2c1.59 0 1.443 4.386 2 5.5.706 1.412 5 5.954 5 6.5Z"/><path fill="#CAC7CB" id="fiber tracts" d="m292 269-1 1 1-1ZM291 270l-2 1 2-1Z"/><path fill="#60E5B7" id="COAa" d="M121 300h1c0-1.473 1.952-1 3-1 3.095 0 20-6.507 20-9v-7c-3.631 0-3.256-12-9-12-7.876 0-12.938 7-20 7l-1 3c0 5.675 1 11.954 1 17 1.087 0 2.433 2 5 2Z"/><path fill="#CAC7CB" id="fiber tracts" d="M289 271c-2.025 0-7 1.233-7 4 1.243 0 7-3.006 7-4Z"/><path fill="#60E5B7" id="COAa" d="M334 300h1l5-1c0-5.702 2-11.755 2-18l-2-3c-5.685 0-11.53-7-19-7-3.625 0-3.563 4-6 4v1c0 1.238-.423 3-2 3l-1 5-1 5 1 2 8 4 1 1h1l1 1 4 1 1 1h3c1.048 0 3-.473 3 1Z"/><path fill="#99D2BD" id="OLF" d="m104 274-1 1v-2l1 1Z"/><path fill="#E64438" id="HY" d="m270 273-1 1 1-1Z"/><path fill="#8AD987" id="CTXsp" d="M346 275h1v-2l-1 2Z"/><path fill="#99D2BD" id="OLF" d="m353 274 1 1-1-2v1Z"/><path fill="#59D9AA" id="PAA" d="M114 301h1l1-3c0-5.046-1-11.325-1-17l-3-4h-1l-2-2-5-1-1 1-3 4.5c-.946 1.893-9 15.889-9 16.5 0 2.715 9.58 5 12 5h11Z"/><path fill="#8AD987" id="CTXsp" d="m109 275 2 1-1-2-1 1Z"/><path fill="#E64438" id="HY" d="m187 274 2 2-2-2Z"/><path fill="#97D6F9" id="STR" d="m295 274 1 1-1-1Z"/><path fill="#59D9AA" id="PAA" d="m340 299 2.5 2H354c2.42 0 12-2.285 12-5-1.629 0-8.909-14.318-10-16.5-.465-.93-.817-4.5-2-4.5l-1-1c-1.564 0-3.876 1-6 1l-1 1-1 1-2 1-1 3c0 6.245-2 12.298-2 18Z"/><path fill="#99D2BD" id="OLF" d="M111 276v1l-2-2 2 1Z"/><path fill="#E64438" id="HY" d="m228 279 1 1v-5h-1v4Z"/><path fill="#8AD987" id="CTXsp" d="M345 276h1v-1l-1 1Z"/><path fill="#99D2BD" id="OLF" d="m347 275-1 1v-1h1Z"/><path fill="#97D6F9" id="STR" d="m161 276-1 1 1-1Z"/><path fill="#99D2BD" id="OLF" d="M315 276c-1.577 0-2 1.762-2 3 1.577 0 2-1.762 2-3ZM346 276l-1 1v-1h1ZM116 278l-1 3-3-4 4 1Z"/><path fill="#80BFE2" id="BA" d="M145 289h2l1-1h1l1-1h1l1-1 2-1 1-1 1-1 1-1 1-1 1-1v-2c-1.804 0-5.136-2.182-7.5-1l-5.5 4-1 2v6Z"/><path fill="#E64438" id="HY" d="m267 277-1 1 1-1Z"/><path fill="#97D6F9" id="STR" d="M298 278v3l-2-4 2 1Z"/><path fill="#80BFE2" id="BA" d="m308 288 3 1 1-5-2-3-4.5-4c-2.364-1.182-5.696 1-7.5 1v3l1 1 1 1 1 1 1 1h1l2 2h1l2 1Z"/><path fill="#99D2BD" id="OLF" d="m345 277-2 1 2-1Z"/><path fill="#97D6F9" id="STR" d="m160 278-1 2v-2h1Z"/><path fill="#FF5B4F" id="ARH" d="M217 289h23l1-3.5c-.695-1.391-6.649-7.5-8-7.5l-4 2-1-1-4-1-8 6.5 1 4.5Z"/><path fill="#99D2BD" id="OLF" d="m343 278-1 3-2-3h3Z"/><path fill="#CCCAC9" id="sup" d="M187 279c0 1.758 7 6.756 7 5.5 0-1.038-5.728-5.5-7-5.5ZM267 279c0 3.479 3.479 0 0 0Z"/><path fill="#99D2BD" id="OLF" d="m310 281 2 3 1-5-2 1-1 1Z"/><path fill="#97D6F9" id="STR" d="m159 280-1 1 1-1ZM311 280l-1 1 1-1ZM158 281l-1 1 1-1Z"/><path fill="#CCCAC9" id="sup" d="M266 281c0 4.42 1.206 0 0 0Z"/><path fill="#E64438" id="HY" d="m193 282 1 1-1-1Z"/><path fill="#97D6F9" id="STR" d="m299 282 1 1-1-1ZM156 283l-1 1 1-1Z"/><path fill="#CCCAC9" id="sup" d="M264 283c0 1.93 1.93 0 0 0Z"/><path fill="#97D6F9" id="STR" d="m155 284-1 1 1-1ZM301 284l1 1-1-1Z"/><path fill="#CCCAC9" id="sup" d="m195 285 2 1-2-1ZM260 285h1c0 1.186-1 1.186-1 0Z"/><path fill="#97D6F9" id="STR" d="m303 285 2 2-2-2ZM152 286l-1 1 1-1ZM150 287l-1 1 1-1ZM308 288v1l-2-2 2 1Z"/><path fill="#99D2BD" id="OLF" d="M147 289h1v-1l-1 1Z"/><path fill="#97D6F9" id="STR" d="m149 288-1 1v-1h1Z"/><path fill="#99D2BD" id="OLF" d="m311 289 1 2-4-2v-1l3 1ZM147 289l-2 1v-1h2ZM320 295l1 1-1-1ZM322 296l1 1-1-1ZM121 300c0 1.684-4.679 1-6 1l1-3c1.087 0 2.433 2 5 2ZM327 298l1 1-1-1ZM125 299c-1.048 0-3-.473-3 1 1.048 0 3 .473 3-1ZM331 299c1.048 0 3-.473 3 1-1.048 0-3 .473-3-1ZM335 300c0 1.614 3.31 1 4.5 1 1.389 0 14.5 2.821 14.5 0h-11.5l-2.5-2-5 1ZM103 301h11c0 1.634-11 1.634-11 0Z"/></svg>