<svg xmlns="http://www.w3.org/2000/svg" viewBox="0 0 456 320"><path fill="#FCFB90" id="CUL4, 5" d="M210 43h36c0-1.714-5.594-1-7-1h-21c-1.49 0-8-.735-8 1Z"/><path fill="#FEFA90" id="DEC" d="M277 126h4c0-.528 4.532-18.564 5-19.5 1.861-3.722-1-10.694-1-14V53l-11.5-6c-7.417-3.709-18.622-4-27.5-4h-36c-9.983 0-21.198.849-29.5 5l-9.5 5v60.5c1.313 2.627 5 9.792 5 12.5h3c0-.718-3.262-5.025-4-6.5-3.014-6.029-3.024-24.952 0-31 4.534-9.069 13.639-11.57 21.5-15.5 19.474-9.737 43.526-9.737 63 0 7.593 3.796 16.932 6.364 21.5 15.5 3.951 7.902 4.143 23.715 0 32-.681 1.362-4 4.844-4 5.5Z"/><path fill="#FDFB8F" id="SIM" d="M148 96c5.73 0 11.176-18.852 13-22.5.645-1.289 3.522-5.49 5.5-4.5l-2.5 4.5c-1.83 3.66-2.092 8.184-4 12-4.114 8.228-10.13 35.685 1.5 41.5l14.5-1c0-2.708-3.687-9.873-5-12.5V53c-9.871 0-16.529 1.514-25.5 6-2.092 1.046-5.774 8-6.5 8l6 10.5c2.491 4.982 3 12.543 3 18.5ZM309 96c-7.764 0-10.632-15.764-13-20.5-.828-1.656-3.234-8.133-6.5-6.5l3.5 6.5c1.838 3.676 2.109 8.218 4 12 4.152 8.304 9.295 33.602-2.5 39.5-3.678 1.839-10.096-1-13.5-1 0-.528 4.532-18.564 5-19.5 1.861-3.722-1-10.694-1-14V53l7.5-1c6.11 3.055 24.5 5.207 24.5 15l-6 11.5c-2.414 4.827-2 11.673-2 17.5Z"/><path fill="#FCFB90" id="CUL4, 5" d="M179 126c2.772 0 5.167 1.833 7.5 3 6.089 3.045 15.807-1.096 22 2l9-1c2.958 1.479 9.043 6.979 13 5 2.956-1.478 4.714-3.357 8-5 2.29-1.145 26.611 1.194 31-1 2.333-1.167 4.728-3 7.5-3 0-.656 3.319-4.138 4-5.5 4.143-8.285 3.951-24.098 0-32-4.568-9.136-13.907-11.704-21.5-15.5-19.474-9.737-43.526-9.737-63 0-7.861 3.93-16.966 6.431-21.5 15.5-3.024 6.048-3.014 24.971 0 31 .738 1.475 4 5.782 4 6.5Z"/><path fill="#FCFC90" id="ANcr1" fill-rule="evenodd" d="M130 89c0 8.182 5.474 0 0 0m-1-3c0 3.746 2.091 0 0 0m-36 14c15.817 0 15.838 14.176 21 24.5 2.353 4.707 22.11 10.5 27 10.5 7.752 0 9.956-22.587 7-28.5-2.234-4.467-5.208-6.354-9.5-8.5-1.102-.551-5.5-1.186-5.5-3.5l5.5 2.5c1.811.905 9.5 3.449 9.5-1 0-5.957-.509-13.518-3-18.5L139 67c-12.394 0-46 18.844-46 33ZM325 90c0 .235-3.372 4-1.5 4 .941 0 4.131-4 1.5-4m1-3c0 5.567 2.112 0 0 0m1-1c0 1.93 1.93 0 0 0m37 14c-11.349 0-14.689 6.878-19 15.5-1.509 3.018-.777 9.638-4.5 11.5-5.983 2.991-13.181 3.091-19 6-1.321.66-5.5.951-5.5 3-8.101 0-10.786-22.927-8-28.5 2.197-4.395 5.105-7.303 9.5-9.5.966-.483 5.5-.519 5.5-2.5l-2.5-.5c-1.755.878-11.5 7.278-11.5 1 0-5.827-.414-12.673 2-17.5l6-11.5c12.792 0 47 19.662 47 33Z"/><path fill="#CBC9CC" id="arb" d="M143 186c-2.813 0-3.461 4-5 4 0-4.777 4.854-13.208 7-17.5 1.929-3.858 1.665-12.331 4-17 .438-.876 1.778-12.5.5-12.5l-13.5 5-1 1-7.5 4-14 4-8 6c-1.53.765-8.107 12.947-10 12-1.613-.807.094-4.688.5-5.5l13-14c.713-.713 4.019-5.5 1-5.5 0-3.005-7.7-2.1-9.5-3-3.615-1.807-6.575-2-11-2l-5.5.5 3-5v-5l4.5 3.5c3.266 1.633 6.75 2.375 10 4 7.351 3.675 24.507 1.246 31-2 2.026-1.013 8.5-2.25 8.5-6 7.752 0 9.956-22.587 7-28.5-2.234-4.467-5.208-6.354-9.5-8.5-1.102-.551-5.5-1.186-5.5-3.5l5.5 2.5c1.811.905 9.5 3.449 9.5-1 5.73 0 11.176-18.852 13-22.5.645-1.289 3.522-5.49 5.5-4.5l-2.5 4.5c-1.83 3.66-2.092 8.184-4 12-4.114 8.228-10.13 35.685 1.5 41.5l14.5-1h3c2.772 0 5.167 1.833 7.5 3 6.089 3.045 15.807-1.096 22 2l9-1c2.958 1.479 9.043 6.979 13 5 2.956-1.478 4.714-3.357 8-5 2.29-1.145 26.611 1.194 31-1 2.333-1.167 4.728-3 7.5-3h4c3.404 0 9.822 2.839 13.5 1 11.795-5.898 6.652-31.196 2.5-39.5-1.891-3.782-2.162-8.324-4-12l-3.5-6.5c3.266-1.633 5.672 4.844 6.5 6.5 2.368 4.736 5.236 20.5 13 20.5 0 6.278 9.745-.122 11.5-1l2.5.5c0 1.981-4.534 2.017-5.5 2.5-4.395 2.197-7.303 5.105-9.5 9.5-2.786 5.573-.101 28.5 8 28.5 0 3.168 6.668 4.084 8.5 5 6.548 3.274 23.569 5.715 31 2 3.251-1.625 6.734-2.367 10-4l3.5-3.5v4l4 6c0 1.308-4.791-.5-5.5-.5-4.739 0-8.12.06-12 2-1.68.84-9.5.504-9.5 3-3.171 0 1.247 5.747 2 6.5 3.86 3.86 8.545 7.09 11 12 .487.973 4.139 5.181 1.5 6.5l-3-3c-2.607-2.607-4.464-6.464-7.5-9.5-2.483-2.483-26.148-13.5-28-13.5h-1l-1-1-13.5-5c-2.683 1.342.798 11.097 1.5 12.5l5 22 5 11.5-9-8-2-4c2.334 0 3.1-5.3 2-7.5-2.105-4.211-8.278-7.557-10-11l-2.5-6.5c-4.501-2.251-6.168 1.084-10 3l-4.5-3-1-6c0-2.917 8.996-7.507 7-11.5-1.474-2.948-4.368-.434-6.5-1.5-4.942-2.471-12.448 3.724-17 6h-5l-4 6-4.5 2.5 4.5 4.5c2.649 2.649 13.834 8.083 18 6 3.041-1.521-3.816-8 2.5-8 0 1.242 1.019 9 2 9 0 4.857 10 2.212 10 6-5.291 0-24.691-5.595-29.5-8-3.876-1.938-9.053-7-13.5-7 0-2.153-7.075-3-9-3l-5.5-2c-3.131-1.566-12.386 1.693-15 3-.93.465-4.5.817-4.5 2-3.596 0-5.515 3.507-8.5 5-8.079 4.04-18.891 8-28.5 8 0-.059 5-3.588 5-9l2-3c4.531 0-1.027 5.237 2.5 7 3.429 1.714 8.492-1.746 11-3 3.682-1.841 8.692-2.885 10.5-6.5l-5.5-5.5c-4.477-4.477-11.887-6.943-18-10-1.234-.617-11.748-1.005-12.5.5-3.091 6.181 7 9.193 7 13.5-1.643 0-1 3.765-1 5l-4.5 3c-3.984-1.992-6.308-5.346-11-3-.387.193-2.158 5.816-2.5 6.5-1.107 2.213-18.569 18.5-7 18.5l-3 4-3 4-1 1ZM129 86c0 3.746 2.091 0 0 0ZM327 86c0 1.93 1.93 0 0 0ZM326 87c0 5.567 2.112 0 0 0ZM130 89c0 8.182 5.474 0 0 0ZM325 90c0 .235-3.372 4-1.5 4 .941 0 4.131-4 1.5-4Z"/><path fill="#FCFA91" id="ANcr2" fill-rule="evenodd" d="M83 146c0 1.93 1.93 0 0 0m27 4-33 15c-11.242 0-12-11.544-12-22 0-15.076 8.946-33.223 22.5-40 1.79-.895 3.403-3 5.5-3 15.817 0 15.838 14.176 21 24.5 2.353 4.707 22.11 10.5 27 10.5 0 3.75-6.474 4.987-8.5 6-6.493 3.246-23.649 5.675-31 2-3.25-1.625-6.734-2.367-10-4l-4.5-3.5v5l-3 5 5.5-.5c4.425 0 7.385.193 11 2 1.8.9 9.5-.005 9.5 3Z"/><path fill="#FCFA91" id="ANcr2" d="M346 150c3.758 0 20.253 8.876 24.5 11 1.39.695 8.5 2.272 8.5 4 11.735 0 12-10.902 12-21.5 0-14.97-7.401-33.45-21.5-40.5l-5.5-3c-11.349 0-14.689 6.878-19 15.5-1.509 3.018-.777 9.638-4.5 11.5-5.983 2.991-13.181 3.091-19 6-1.321.66-5.5.951-5.5 3 0 3.168 6.668 4.084 8.5 5 6.548 3.274 23.569 5.715 31 2 3.251-1.625 6.734-2.367 10-4l3.5-3.5v4l4 6c0 1.308-4.791-.5-5.5-.5-4.739 0-8.12.06-12 2-1.68.84-9.5.504-9.5 3Z"/><path fill="#FFFCBC" id="FN" d="M176 147c1.061 0 5 2.571 5 4 4.531 0-1.027 5.237 2.5 7 3.429 1.714 8.492-1.746 11-3 3.682-1.841 8.692-2.885 10.5-6.5l-5.5-5.5c-4.477-4.477-11.887-6.943-18-10-1.234-.617-11.748-1.005-12.5.5-3.091 6.181 7 9.193 7 13.5ZM281 146l-5 4c-6.316 0 .541 6.479-2.5 8-4.166 2.083-15.351-3.351-18-6l-4.5-4.5 4.5-2.5 4-6h5c4.552-2.276 12.058-8.471 17-6 2.132 1.066 5.026-1.448 6.5 1.5 1.996 3.993-7 8.583-7 11.5Z"/><path fill="#FFF990" id="COPY" d="m138 190-5 8c-2.252 0-7.039-15-12-15 0-8.714 4.335-18.171 8-25.5l6-8.5 1-1 13.5-5c1.278 0-.062 11.624-.5 12.5-2.335 4.669-2.071 13.142-4 17-2.146 4.292-7 12.723-7 17.5ZM318 189c0 1.955 3.574 9 6 9 0-3.813 11-14.261 11-16 0-12.262-13-28.199-13-33h-1l-1-1-13.5-5c-2.683 1.342.798 11.097 1.5 12.5l5 22 5 11.5Z"/><path fill="#FFFA8F" id="UVU" d="M211 150h34c0-2.153-7.075-3-9-3l-5.5-2c-3.131-1.566-12.386 1.693-15 3-.93.465-4.5.817-4.5 2Z"/><path fill="#CBC9CC" id="arb" d="M83 146c0 1.93 1.93 0 0 0Z"/><path fill="#F0F080" id="CB" d="M282 152c-4.719 0-4 3.164-4 7-.981 0-2-7.758-2-9l5-4 1 6ZM175 152l4 2 2-3c0-1.429-3.939-4-5-4-1.643 0-1 3.765-1 5Z"/><path fill="#FFFB8E" id="PRM" d="m136 148-1 1 1-1ZM320 148l1 1-1-1ZM110 201c-1.543 0-8 1.709-8 3-15.633 0-25-25.388-25-39l33-15c3.019 0-.287 4.787-1 5.5l-13 14c-.406.812-2.113 4.693-.5 5.5 1.893.947 8.47-11.235 10-12l8-6 14-4 7.5-4-6 8.5c-3.665 7.329-8 16.786-8 25.5-2.214 0-9.549 18-11 18Z"/><path fill="#FDFC8F" id="NOD" d="m244 188-1 1c-5.933 0-18.519 3.99-24.5 1-2.342-1.171-8.062-5-10.5-5h-2l-2-1h-1l-2-1h-4c0-1.539-11.907-2-14-2l-24-2h-1c0-5.421-9.673 2-11 2l3-4 16-11 1-1h2c1.041 0 5-.986 5-2 9.609 0 20.421-3.96 28.5-8 2.985-1.493 4.904-5 8.5-5h34c4.447 0 9.624 5.062 13.5 7 4.809 2.405 24.209 8 29.5 8h1l1 1h1l1 1c5.496 0 9.279 10 15 10l2 4c-1.04 0-10-7.736-10-2h-2l-24 2c-2.093 0-14 .461-14 2h-4l-2 1h-1l-1 1h-2l-1 1h-1l-1 1h-1l-1 1Z"/><path fill="#FFFB8E" id="PRM" d="M347 201c1.336 0 8 2.177 8 3 15.514 0 19.468-20.435 25-31.5.208-.416-1-6.086-1-7.5 0-1.728-7.11-3.305-8.5-4-4.247-2.124-20.742-11-24.5-11-3.171 0 1.247 5.747 2 6.5 3.86 3.86 8.545 7.09 11 12 .487.973 4.139 5.181 1.5 6.5l-3-3c-2.607-2.607-4.464-6.464-7.5-9.5-2.483-2.483-26.148-13.5-28-13.5 0 4.801 13 20.738 13 33 2.224 0 9.585 19 12 19Z"/><path fill="#FFFDBC" id="IP" d="m166 166-16 11c-11.569 0 5.893-16.287 7-18.5.342-.684 2.113-6.307 2.5-6.5 4.692-2.346 7.016 1.008 11 3l4.5-3 4 2c0 5.412-5 8.941-5 9-1.622 0-5-.461-5 2h-2l-1 1ZM292 167c5.496 0 9.279 10 15 10 2.334 0 3.1-5.3 2-7.5-2.105-4.211-8.278-7.557-10-11l-2.5-6.5c-4.501-2.251-6.168 1.084-10 3l-4.5-3c-4.719 0-4 3.164-4 7 0 4.857 10 2.212 10 6h1l1 1h1l1 1Z"/><path fill="#CBC9CC" id="arb" d="M174 163c-1.622 0-5-.461-5 2 1.041 0 5-.986 5-2ZM167 165l-1 1 1-1ZM289 165l1 1-1-1ZM291 166l1 1-1-1Z"/><path fill="#A9AAA7" id="V4r" d="m147 181-3 4c4.996 0 8.163-6 14-6 0-5.421-9.673 2-11 2ZM331 234c2.349 0 1.382 3 4 3v-23c0-2.83-4-4.54-4-7 0-3.622-7-5.534-7-9-2.426 0-6-7.045-6-9l-9-8c-1.04 0-10-7.736-10-2 15.899 0 22.757 22.257 32.5 32 3.051 3.051.671 8.841 2.5 12.5l-.5 3.5c-3.936 1.968-10.784-18-14.5-18l6 11v1l2 3v1l1 1v1l1 1v1l2 3v2Z"/><path fill="#A9AAA8" id="chpl" d="M133 215c-2.109 0-2 2.535-2 4-2.452 0-4.611 9.444-7.5 8l-.5-12c0-6.457 20-22.7 20-29l1-1c4.996 0 8.163-6 14-6h1c0 1.641 9.736 2.028 8 5.5l-10 8.5c-1.424 0-5 .362-5 2h-1l-2 1-1 1-5 5-1 1-1 1-1 1-2 3-1 1c-1.577 0-2 1.762-2 3-1.577 0-2 1.762-2 3Z"/><path fill="#A9AAA7" id="V4r" d="M163 191c-2.447 0-3.28 2-6 2l10-8.5c1.736-3.472-8-3.859-8-5.5l24 2v1c-7.375 0-16.677 9-20 9ZM293 191l15 6c0-2.482-15.092-6.684-17-10.5-3.271-6.541 6-3.989 6-7.5l-24 2v1c3.319 0 20 6.691 20 9Z"/><path fill="#A9AAA8" id="chpl" d="M319 208v1c3.716 0 10.564 19.968 14.5 18l.5-3.5c-1.829-3.659.551-9.449-2.5-12.5-9.743-9.743-16.601-32-32.5-32h-2c0 3.511-9.271.959-6 7.5 1.908 3.816 17 8.018 17 10.5 1.494 0 9 7.054 9 9l2 2Z"/><path fill="#AAA9A7" id="V4" d="M191 183h6c0-1.539-11.907-2-14-2v1l7 1h1ZM259 183h7l7-1v-1c-2.093 0-14 .461-14 2Z"/><path fill="#FEB1D9" id="SPIV" d="M167 205c1.996 0 4.985 2 8 2l11-3v-1c0-4.982 5-12.062 5-19l-1-1-7-1c-7.375 0-16.677 9-20 9l1 5c5.499 0 3 6.24 3 9ZM289 204c0 3.661-5.072 3-8 3-3.647 0-6.586-3-10-3l-1-1c0-5.194-4-12.017-4-20l7-1c3.319 0 20 6.691 20 9 0 1.691-1 3.148-1 5-4.002 0-3 5.059-3 8Z"/><path fill="#FFFC8D" id="PFL" d="m345 208-5 3c-5.219 0-6.279-4-9-4 0-3.622-7-5.534-7-9 0-3.813 11-14.261 11-16 2.224 0 9.585 19 12 19v5l-1 1-1 1ZM124 209c-2.583 0-3.934 2-7 2-2.02 0-6-2.189-6-4 0-1.03-1-2.671-1-6 1.451 0 8.786-18 11-18 4.961 0 9.748 15 12 15l-9 11Z"/><path fill="#FF9BCD" id="MY" d="M191 183v1l-1-1h1Z"/><path fill="#FFB0D7" id="MV" d="M207 208h4l1-1 1-1 4-10c0-4.663-9-9.881-9-11h-2l-2-1h-1l-2-1h-10v1c0 6.938-5 14.018-5 19l1 1 14 1 6 3Z"/><path fill="#AAA9A7" id="V4" d="m201 183 2 1-2-1ZM255 183l-2 1 2-1Z"/><path fill="#FFB0D7" id="MV" d="M245 208h4l1-1 5-2 15-1v-1c0-5.194-4-12.017-4-20h-11l-2 1h-1l-1 1h-2l-1 1h-1l-1 1h-1l-1 1-1 1-4 7 6 12Z"/><path fill="#AAA9A7" id="V4" d="m204 184 2 1-2-1ZM252 184l-1 1 1-1Z"/><path fill="#A9AAA7" id="V4r" d="m144 185-1 1 1-1Z"/><path fill="#AAA9A7" id="V4" d="M238 196h1l4-7c-5.933 0-18.519 3.99-24.5 1-2.342-1.171-8.062-5-10.5-5 0 1.119 9 6.337 9 11l4 3-4-7.5 21.5-.5c1.663.832-.5 3.836-.5 5ZM249 185l-1 1 1-1Z"/><path fill="#A9AAA7" id="V4r" d="m125 235-4 2v-23l3-5 9-11 5-8c1.539 0 2.187-4 5-4 0 6.3-20 22.543-20 29l.5 12c2.889 1.444 5.048-8 7.5-8v3l-1 1v1l-1 1v1l-1 1-1 2v1l-1 1v1l-1 1v2Z"/><path fill="#AAA9A7" id="V4" d="m247 186-1 1 1-1ZM245 187l-1 1 1-1ZM244 188l-1 1 1-1Z"/><path fill="#FF9BCD" id="MY" d="M169 213c-3.267 0-7.336-5.082-11.5-3-3.29 1.645-11.062 8-14.5 8 0-3.507 16-11.143 16-13.5 0-4.2-8 1.549-8-1.5l4-5.5c-.86-1.72-3.7.1-4.5.5-2.949 1.475-10.5 7.039-10.5 11l-3 2v-2l1-1 2-3 1-1 1-1 1-1 5-5 1-1 2-1h1c1.424 0 5-.362 5-2 2.72 0 3.553-2 6-2l1 5c-9.332 0-6.826 9 3 9 1.996 0 4.985 2 8 2 0 2.097-6 2.205-6 6Z"/><path fill="#A9AAA8" id="chpl" d="m232 204-1 1c-7.098 0-7.784-5-10-5v-1l-4-7.5 21.5-.5c1.663.832-.5 3.836-.5 5l-1 1v1l-1 1-1 1-1 1-1 2-1 1Z"/><path fill="#FF9BCD" id="MY" d="m319 209 6 11c-.709 0-13.053-18.776-17.5-21-.963-.482-5.968-3.564-6.5-2.5l5 7.5c0 .343-5.815-1-8-1 0-4.595-1.001-7-6-7 0-1.852 1-3.309 1-5l15 6c1.494 0 9 7.054 9 9l2 2v1Z"/><path fill="#A9AAA7" id="V4r" d="M157 193c-1.424 0-5 .362-5 2 1.424 0 5-.362 5-2ZM151 195l-2 1 2-1ZM149 196l-1 1 1-1Z"/><path fill="#FFB0D9" id="x" d="M164 196c5.499 0 3 6.24 3 9-9.826 0-12.332-9-3-9Z"/><path fill="#FFB3D7" id="PRP" d="M234 215h10l2-2.5-1-4.5-6-12h-1l-1 1v1l-1 1-1 1-1 1-1 2-1 1-1 1c0 5.841-10-1.598-10-5v-1l-4-3-4 10-1 1-1 1-1 4.5 3 2.5h21Z"/><path fill="#AAA9A7" id="V4" d="m238 196-1 1 1-1Z"/><path fill="#FFB0D9" id="x" d="m298 203-3.5 2c-1.956.978-4.077-1-5.5-1 0-2.941-1.002-8 3-8 4.999 0 6 2.405 6 7Z"/><path fill="#C9C9C8" id="icp" d="M322 273h1c0-1.562 2.189-5 4-5 0-1.238.423-3 2-3 0-1.238.423-3 2-3v-1l1-2c0-1.048-.473-3 1-3v-2c0-7.089-2-14.55-2-20v-2c-1.577 0-2-1.762-2-3v-1l-1-1v-1l-1-1v-1c-1.577 0-2-1.762-2-3v-1c-.709 0-13.053-18.776-17.5-21-.963-.482-5.968-3.564-6.5-2.5l5 7.5 3.5 3c2.047 1.023 6.254 1.008 7.5 3.5 5.013 10.026 20.017 33.967 14 46-2.877 5.754-8.903 10.805-10 13-.781 1.562-5 .937-5 3.5 1.357 0 6-2.112 6 0ZM151 203c-3.291 0-6.672 6-11 6 0-3.961 7.551-9.525 10.5-11 .8-.4 3.64-2.22 4.5-.5l-4 5.5Z"/><path fill="#AAA9A7" id="V4" d="m237 198-1 1 1-1ZM236 199l-1 1 1-1ZM221 200c2.216 0 2.902 5 10 5 0 5.841-10-1.598-10-5ZM235 200l-1 1 1-1Z"/><path fill="#F0F080" id="CB" d="M102 204c3.647 0 5.609 3 9 3 0-1.03-1-2.671-1-6-1.543 0-8 1.709-8 3Z"/><path fill="#AAA9A7" id="V4" d="m234 201-1 2 1-2Z"/><path fill="#F0F080" id="CB" d="M355 204c-3.303 0-5.115 2-8 2v-5c1.336 0 8 2.177 8 3Z"/><path fill="#A9AAA7" id="V4r" d="m143 202-1 1 1-1Z"/><path fill="#C8CACA" id="sptV" d="m141 273 5 2c11.094 0-2-4.45-2-6h-1l-1-1h-1l-3-3-1-1c-1.533 0-4-3.753-4-5v-1c-1.014 0-2-3.959-2-5v-2c-1.622 0-1.622-9 0-9v-2c0-1.623.005-6 2-6v-1c0-1.238.423-3 2-3l1-2 1-1 1-2 1-1v-1l1-1 1-1 1-2 1-1c0-3.507 16-11.143 16-13.5 0-4.2-8 1.549-8-1.5-3.291 0-6.672 6-11 6 0 4.853-4.953 8.406-7 12.5-3.445 6.889-4.565 15.129-8 22-2.725 5.45 1.864 21.182 6.5 23.5 1.665.832 8.5 3.685 8.5 6h1Z"/><path fill="#FF9BCD" id="MY" d="M186 204h1l-1-1v1Z"/><path fill="#AAA9A7" id="V4" d="m233 203-1 1 1-1Z"/><path fill="#FF9BCD" id="MY" d="M270 204h1l-1-1v1ZM287 213l6.5-3c5.518-2.759 13.933 4.966 18 7 4.926 2.463 9.316 12.131 11.5 16.5.492.984.851 5.5 2 5.5 0-7.556-8.881-22.19-16.5-26-3.484-1.742-10.5-5.801-10.5-10l-3.5 2c-1.956.978-4.077-1-5.5-1 0 3.661-5.072 3-8 3 0 2.097 6 2.205 6 6Z"/><path fill="#C8CACA" id="sptV" d="M312 275h1l1-1 1-1h1c0-2.563 4.219-1.938 5-3.5 1.097-2.195 7.123-7.246 10-13 6.017-12.033-8.987-35.974-14-46-1.246-2.492-5.453-2.477-7.5-3.5l-3.5-3c0 .343-5.815-1-8-1 0 4.199 7.016 8.258 10.5 10 7.619 3.81 16.5 18.444 16.5 26v1c1.638 0 1.638 12 0 12v2c0 1.048.473 3-1 3l-1 1v2l-1 1-1 1-1 2-1 1-1 1-1 1h-1l-1 1-2 1h-1c0 1.638-3.576 2-5 2l-1 1c0 3.714 1.744 3 5 3h1Z"/><path fill="#A9AAA7" id="V4r" d="m141 204-1 1 1-1Z"/><path fill="#FDA5D1" id="NTS" d="m175 220 3 1c4.537 0 9.554-2 15-2l8-3c0-1.457 3-1.46 3-4-1.935 0-7.605-1.29-6-4.5l3-2.5-14-1h-1l-11 3c0 2.097-6 2.205-6 6 0 3.291 6 3.675 6 7Z"/><path fill="#AAA9A7" id="V4" d="m232 204-1 1 1-1Z"/><path fill="#FDA5D1" id="NTS" d="M279 221h2c0-3.517 6-4.95 6-8 0-3.795-6-3.903-6-6-3.647 0-6.586-3-10-3h-1l-15 1 4 2.5c1.514 3.028-5.305 4.5-7 4.5l3 4 6 2 1 1h1c5.914 0 10.861 2 16 2Z"/><path fill="#FDB1D8" id="DMX" d="M207 208c0 2.343-.285 4-3 4-1.935 0-7.605-1.29-6-4.5l3-2.5 6 3ZM249 208c0 2.343.285 4 3 4 1.695 0 8.514-1.472 7-4.5l-4-2.5-5 2-1 1Z"/><path fill="#FF9BCD" id="MY" d="m213 206-1 1 1-1Z"/><path fill="#A9AAA7" id="V4r" d="m317 206 2 2-2-2Z"/><path fill="#F0F080" id="CB" d="m347 206-1 1 1-1Z"/><path fill="#FF9BCD" id="MY" d="m212 207-1 1 1-1ZM250 207l-1 1 1-1Z"/><path fill="#F0F080" id="CB" d="M340 211c0 2.393-3.234 3-5 3 0-2.83-4-4.54-4-7 2.721 0 3.781 4 9 4ZM346 207l-1 1 1-1Z"/><path fill="#A9AAA7" id="V4r" d="m138 208-1 1 1-1Z"/><path fill="#FF9BCD" id="MY" d="M201 216c4.117 0 6.901 4 10 4 0-1.622-.461-5 2-5l-3-2.5 1-4.5h-4c0 2.343-.285 4-3 4 0 2.54-3 2.543-3 4ZM255 216c-3.584 0-7.225 4-9 4 0-1.424-.362-5-2-5l2-2.5-1-4.5h4c0 2.343.285 4 3 4l3 4Z"/><path fill="#F0F080" id="CB" d="M117 211c0 1.712 2.571 3 4 3l3-5c-2.583 0-3.934 2-7 2Z"/><path fill="#A9AAA7" id="V4r" d="m137 211-2 1c0-1.238.423-3 2-3v2Z"/><path fill="#C9C9C8" id="icp" d="m134 272 6 1c0-2.315-6.835-5.168-8.5-6-4.636-2.318-9.225-18.05-6.5-23.5 3.435-6.871 4.555-15.111 8-22 2.047-4.094 7-7.647 7-12.5l-3 2c0 1.572-2.052 7-4 7 0 1.238-.423 3-2 3v1l-1 1v1l-1 1v1l-1 1-1 2v1l-1 1v1l-1 1v2c0 5.348-2 10.12-2 16v2c1.175 0 2 5.704 2 7v1c2.548 0 5.28 11 9 11Z"/><path fill="#FDA5D2" id="SPVI" d="M144 269h5c8.837 0 7.131-23.763 10-29.5 2.788-5.575 16-7.559 16-16.5v-3c0-3.325-6-3.709-6-7-3.267 0-7.336-5.082-11.5-3-3.29 1.645-11.062 8-14.5 8l-1 1-1 2-1 1-1 1v1l-1 1-1 2-1 1-1 2c0 1.238-.423 3-2 3v1c0 1.357-.647 6-2 6v13c1.638 0 2 3.576 2 5v1l4 5 1 1 3 3h1l1 1h1ZM312 269h1l2-1 1-1h1l1-1 1-1 1-1 1-2 1-1 1-1v-2l1-1c0-1.048-.473-3 1-3v-15c-1.149 0-1.508-4.516-2-5.5-2.184-4.369-6.574-14.037-11.5-16.5-4.067-2.034-12.482-9.759-18-7l-6.5 3c0 3.05-6 4.483-6 8v2c0 6.749 14.521 13.541 18 20.5 2.442 4.885-.66 25.5 8 25.5h5Z"/><path fill="#FF9BCD" id="MY" d="M133 215v3c1.948 0 4-5.428 4-7l-2 1c0 1.238-.423 3-2 3Z"/><path fill="#A9AAA7" id="V4r" d="M135 212c-1.577 0-2 1.762-2 3 1.577 0 2-1.762 2-3Z"/><path fill="#FF9BCD" id="MY" d="m227 240 2 1v-22.5c1.217-2.434 2 4.771 2 5.5l4-1-2-3.5 1-4.5h-11l-1 8h3c0-.704.843-6.813 2-4.5 2.628 5.256 0 16.505 0 21.5Z"/><path fill="#A9AAA7" id="V4r" d="m133 218-2 1c0-1.465-.109-4 2-4v3Z"/><path fill="#FCB3D8" id="PGRNd" d="M212 223h10l1-8h-10c-2.461 0-2 3.378-2 5v2l1 1ZM235 223h9l1-1 1-2c0-1.424-.362-5-2-5h-10l-1 4.5 2 3.5Z"/><path fill="#FFB2D8" id="IRN" d="M192 265h1c0-8.658 18-30.203 18-42v-3c-3.099 0-5.883-4-10-4l-8 3c0 9.134-12 15.428-12 24 4.952 0 22.35 4.575 11.5 10-4.802 2.401-9.775-8-12.5-8l-2 3.5c-1.702 3.404-7 8.67-7 12.5v1l2 1 4 2h6c2.268 0 3.921-3.29 6.5-2l2.5 2ZM279 265h2l2-1c0-1.747.253-2 2-2v-1l-8-16c-3.268 0-8.595 10.452-13.5 8-9.912-4.956 7.891-10 11.5-10l-12-24h-1l-1-1-6-2c-3.584 0-7.225 4-9 4l-1 2v1c0 9.13 18 34.417 18 42h2c0-4.391 6.952 0 8 0h6Z"/><path fill="#FF9BCD" id="MY" d="M131 219v2c1.577 0 2-1.762 2-3l-2 1ZM143 218l-1 1 1-1Z"/><path fill="#CBCBCC" id="mlf" d="M225 223c0 2.992.075 17 2 17 0-4.995 2.628-16.244 0-21.5-1.157-2.313-2 3.796-2 4.5ZM231 224c0 2.724 1.253 17-2 17v-22.5c1.217-2.434 2 4.771 2 5.5Z"/><path fill="#FF9BCD" id="MY" d="m261 218 1 1-1-1ZM142 219l-1 2 1-2Z"/><path fill="#FCB3D9" id="PARN" d="M149 269c0 6.02 7.958 4 11 4 0-3.005 5-3.171 5-6-5.75 0 7.516-23.508 10.5-25l5.5 1c0-8.572 12-14.866 12-24-5.446 0-10.463 2-15 2l-3 2c0 8.941-13.212 10.925-16 16.5-2.869 5.737-1.163 29.5-10 29.5ZM306 272l-3.5 2-6.5-1c0-3.761-7-4.213-7-8l-2-2-1-1-1-1-8-16c0-1.615 3.437.374 4 1.5 1.387 2.773 8.721 22.39 12.5 20.5 1.865-.932-2.884-8.267-3.5-9.5-1.956-3.912-5.077-13.289-9.5-15.5l-5.5 1-12-24c5.914 0 10.861 2 16 2l2 2c0 6.749 14.521 13.541 18 20.5 2.442 4.885-.66 25.5 8 25.5v2l-1 1Z"/><path fill="#FF9BCD" id="MY" d="m178 221-3 2v-3l3 1ZM141 221l-1 1 1-1ZM281 221v2l-2-2h2ZM325 221l2 3c-1.577 0-2-1.762-2-3ZM131 222l-1 1 1-1ZM140 222l-1 1 1-1ZM211 223h1l-1-1v1Z"/><path fill="#FEB0D8" id="GRN" d="M248 275c0 5.705 12.433 1 14 1 0-1.293-3.155-8 1-8v-3c0-7.583-18-32.87-18-42h-10l-4 1c0 2.724 1.253 17-2 17l-2-1c-1.925 0-2-14.008-2-17h-14c0 11.797-18 33.342-18 42v3c4.952 0 2 5.341 2 8 0 3.3 14 2.199 14-1l-4.5 1c-9.919-4.959 11.323-20.853 14.5-14.5 3.03 6.06-6 7.784-6 11.5 2.25 0 3.376-2 5-2l1-1c0-1.691 6.112-16 8-16 0-3.625 2-4.77 2 0 6.981 0 4.001 16 9 16 2.849 0 5.459 5 9 5 0-.927-8.356-7.856-9.5-9v-5c8.106-4.053 27.175 14 10.5 14Z"/><path fill="#FF9BCD" id="MY" d="M244 223h1v-1l-1 1ZM130 224l-1 1 1-1ZM139 224l-1 1 1-1ZM138 225l-1 2 1-2ZM327 225l1 1-1-1ZM129 226l-1 1 1-1ZM128 227l-1 2 1-2ZM137 227l-1 1 1-1ZM328 227l1 1-1-1ZM136 228l-1 2 1-2ZM329 229l2 3c-1.577 0-2-1.762-2-3ZM127 230l-1 1 1-1ZM135 230c-1.577 0-2 1.762-2 3 1.577 0 2-1.762 2-3ZM126 232l-1 1 1-1ZM133 234c-1.995 0-2 4.377-2 6 1.353 0 2-4.643 2-6ZM335 237c0 4.341-1 8.695-1 12.5 0 1.19.614 4.5-1 4.5 0-7.089-2-14.55-2-20 2.349 0 1.382 3 4 3ZM121 237c0 1.727.918 14 2 14 0-5.88 2-10.652 2-16l-4 2ZM325 240c1.638 0 1.638 12 0 12v-12ZM131 242c-1.622 0-1.622 9 0 9v-9Z"/><path fill="#FFB1D8" id="LIN" d="m167 265-2 2c-5.75 0 7.516-23.508 10.5-25l5.5 1c4.952 0 22.35 4.575 11.5 10-4.802 2.401-9.775-8-12.5-8 0-3.388-5.568 3.637-6 4.5-1.877 3.755-7 11.333-7 15.5ZM275 243l5.5-1c4.423 2.211 7.544 11.588 9.5 15.5.616 1.233 5.365 8.568 3.5 9.5-3.779 1.89-11.113-17.727-12.5-20.5-.563-1.126-4-3.115-4-1.5-3.268 0-8.595 10.452-13.5 8-9.912-4.956 7.891-10 11.5-10Z"/><path fill="#FCB3D9" id="PARN" d="m169 264-2 1c0-4.167 5.123-11.745 7-15.5.432-.863 6-7.888 6-4.5l-2 3.5c-1.702 3.404-7 8.67-7 12.5l-1 1-1 1v1Z"/><path fill="#FEC6E2" id="RO" d="m230 268-1 2c-2.293 0-2-.997-2-3v-13c0-3.625 2-4.77 2 0l1 14Z"/><path fill="#FF9BCD" id="MY" d="M123 253c1.175 0 2 5.704 2 7-2.273 0-2-5.226-2-7ZM131 253c1.638 0 2 3.576 2 5-1.014 0-2-3.959-2-5Z"/><path fill="#C8C8CC" id="tspc" d="m221 274-1 1c-2.109 0-2-2.535-2-4l1-1c0-1.691 6.112-16 8-16v13l-1 2-4 4-1 1ZM235 274l3 1v-5c-4.999 0-2.019-16-9-16l1 14 1 2 4 4Z"/><path fill="#FF9BCD" id="MY" d="M325 254c-1.473 0-1 1.952-1 3 1.473 0 1-1.952 1-3ZM333 256c-1.473 0-1 1.952-1 3 1.473 0 1-1.952 1-3ZM324 257l-1 1 1-1ZM133 259l4 5c-1.533 0-4-3.753-4-5ZM332 259l-1 2 1-2Z"/><path fill="#FDB2D9" id="MARN" d="m213 273-4 2-4.5 1c-9.919-4.959 11.323-20.853 14.5-14.5 3.03 6.06-6 7.784-6 11.5ZM247 275h1c16.675 0-2.394-18.053-10.5-14v5c1.144 1.144 9.5 8.073 9.5 9Z"/><path fill="#FF9BCD" id="MY" d="m323 260-1 1 1-1ZM134 272l1 3c-3.174 0-10-11.51-10-14 2.548 0 5.28 11 9 11ZM170 262h1v-1l-1 1ZM285 262h1l-1-1v1ZM322 261l-1 1 1-1ZM170 262l-1 1 1-1Z"/><path fill="#FEB3D6" id="AMBd" d="M171 265h2v-2l-2-1h-1l-1 1v1l2 1ZM284 265h1l2-1v-1l-1-1h-1c-1.747 0-2 .253-2 2l1 1Z"/><path fill="#FF9BCD" id="MY" d="M331 262c-1.577 0-2 1.762-2 3 1.577 0 2-1.762 2-3ZM177 265l-1 2c0-1.577-1.762-2-3-2v-2l4 2Z"/><path fill="#FCB3D7" id="LRNm" d="m192 265-1 4c0 1.88-8 6.687-8-4 2.268 0 3.921-3.29 6.5-2l2.5 2ZM273 266l1 3.5c-2.582 5.164-6.184-.5-9-.5v-4c0-4.391 6.952 0 8 0v1Z"/><path fill="#FF9BCD" id="MY" d="m287 264 2 1-2-2v1Z"/><path fill="#FCB2D9" id="PGRNl" d="m195 276-2 3.5-8.5 9.5c-5.174 2.587-8.817-4-12.5-4-1.311 0-3.513-11.006-5.5-12-1.354-.677-3.656 3-5.5 3l-1-3c0-3.005 5-3.171 5-6 1.747 0 2-.253 2-2l2-1 2 1c0 5.633 5 4.846 5 2l1-2h6c0 10.687 8 5.88 8 4l2-1c4.952 0 2 5.341 2 8ZM295 276l-4.5-3-6.5 12-5.5 4c-6.383 3.192-16.5-7.728-16.5-13 0-1.293-3.155-8 1-8l2 1c2.816 0 6.418 5.664 9 .5l-1-3.5 1-1h5l2 2c0 2.547 4 2.775 4 1 1.399 0 1.399-2 0-2v-1l2-1 2 1c0 3.787 7 4.239 7 8l-1 3Z"/><path fill="#FF9BCD" id="MY" d="M281 265h3l-1-1-2 1ZM320 264l-1 1 1-1ZM138 265l3 3-3-3Z"/><path fill="#FCB3D9" id="PARN" d="m167 265-2 2c1.747 0 2-.253 2-2Z"/><path fill="#FEB3D8" id="AMBv" d="M173 265c1.238 0 3 .423 3 2 0 2.846-5 3.633-5-2h2Z"/><path fill="#FF9BCD" id="MY" d="m193 268-2 1 1-4h1v3ZM263 268l2 1v-4h-2v3ZM274 265l-1 1v-1h1ZM281 265v2l-2-2h2Z"/><path fill="#FEB3D8" id="AMBv" d="M281 267c0 2.547 4 2.775 4 1v-3h-4v2Z"/><path fill="#FF9BCD" id="MY" d="m319 265-1 1 1-1ZM329 265c-1.577 0-2 1.762-2 3 1.577 0 2-1.762 2-3ZM285 266c1.399 0 1.399 2 0 2v-2ZM318 266l-1 1 1-1ZM227 278h2v-8c-2.293 0-2-.997-2-3l-1 2c0 2.389 1 5.987 1 9ZM316 267l-1 1 1-1ZM142 268l1 1-1-1ZM229 270h2l-1-2-1 2ZM315 268l-2 1 2-1ZM327 268c-1.811 0-4 3.438-4 5 1.811 0 4-3.438 4-5ZM161 277c-3.476 0-11-5.705-11 2l-4-2v-2c11.094 0-2-4.45-2-6h5c0 6.02 7.958 4 11 4l1 3v1Z"/><path fill="#FFB3D8" id="IO" fill-rule="evenodd" d="M195 291c0 1.93 1.93 0 0 0m1-1c0 1.93 1.93 0 0 0m9-1c0 3.479 3.479 0 0 0m-8 0c0 1.93 1.93 0 0 0m2-1c0 1.93 1.93 0 0 0m14-1c0 1.93 1.93 0 0 0m-6 0c0 3.479 3.479 0 0 0m-7 0c0 1.93 1.93 0 0 0m14-1c0 1.93 1.93 0 0 0m-5 0c0 1.93 1.93 0 0 0m-7 0c0 1.93 1.93 0 0 0m13-1c0 2.091 3.746 0 0 0m-5 0c0 1.93 1.93 0 0 0m-7 0c0 1.93 1.93 0 0 0m14-1c0 1.93 1.93 0 0 0m-6 0c0 2.091 3.746 0 0 0m-6 0c0 1.93 1.93 0 0 0m1-1c0 1.93 1.93 0 0 0m8-1c0 1.93 1.93 0 0 0m-6 0c0 1.93 1.93 0 0 0m1-1c0 1.93 1.93 0 0 0m9-4c0 3.746 2.091 0 0 0m-11 16c-2.409 0-1.055-1.277-2.5-2l-3.5 3.5c1.354 2.708 4-4.339 4 .5-2.249 0-7.468 6.564-10 1.5v-4l-2.5 1.5c-.337.168-6.5 2.192-6.5.5 0-2.212 5.313-3.907 6.5-4.5l18-13c6.603-3.302 7.632 0 9 0l.5-2 1-1 1-1 4-4c0 2.389 1 5.987 1 9v2c-1.186 0-1.186 1 0 1v2l-1 1v1l-5.5 4c-3.489 1.745-11.5-3.642-11.5 2-1.747 0-2 .253-2 2Z"/><path fill="#FF9BCD" id="MY" d="M312 269c0 1.638-3.576 2-5 2v-2h5ZM219 270l-1 1 1-1Z"/><path fill="#FFB3D8" id="IO" fill-rule="evenodd" d="m253 286 6.5 5s-3.929-5-6.5-5m-15-2c0 1.93 1.93 0 0 0m8-3c0 1.164 4.514 4 5.5 4 .447 0-3.924-4-5.5-4m-5 0c0 2.425 6.743 7.243 9 9.5.378.378 6 6.786 6 4L241 281m-10 4v1c3.323 0 6.873 5.313 11.5 3 1.904-.952-5.506-5.753 0-3 5.204 2.602 11.215 15.393 18 12 2.607-1.304-.325-5.337 1-6 1.771-.885 4.653 4.674 8 3 2.634-1.317-8.001-6.501-9-7-8.079-4.04-12.689-13-22.5-13l1 3.5c0 .623-4-3.32-4-4.5l-4-4h-2v8c0 1.564 1 3.876 1 6l1 1Z"/><path fill="#FF9BCD" id="MY" fill-rule="evenodd" d="M243 290c0 2.012-6.773.046-8 2.5-2.494 4.987 11.297 7.5 14 7.5 1.004 0 6.065.63 5-1.5l-4-4c-1.649-3.298-3.16-4.5-7-4.5m42 3c0 2.442-9.711 3.105-11.5 4-3.253 1.627-7.853.426-11 2-12.827 6.413-24.284-1.142-34-6l-2 2c-3.186 1.593-6.689 4-10.5 4l5-4.5c2.544-5.089-10.975-3.5-12-3.5 0-5.642 8.011-.255 11.5-2l5.5-4c0 4.704 5 5.649 5 1 3.323 0 6.873 5.313 11.5 3 1.904-.952-5.506-5.753 0-3 5.204 2.602 11.215 15.393 18 12 2.607-1.304-.325-5.337 1-6 1.771-.885 4.653 4.674 8 3 2.634-1.317-8.001-6.501-9-7-8.079-4.04-12.689-13-22.5-13v-5c2.849 0 5.459 5 9 5h1c0 5.705 12.433 1 14 1 0 5.272 10.117 16.192 16.5 13l5.5-4c0 6.141 5.379 0 9 0v1c-3.496 0-6.524 3.512-9.5 5-5.113 2.557-4.349 2 1.5 2Z"/><path fill="#FF9BCD" id="MY" d="M205 295c0 2.123-3 3.03-3 4.5l3.5.5 10.5-1c0 3.253-14.276 2-17 2l-4.5-2h-6c-8.125-4.063-17.774-4.887-26-9l-9.5-5h2l4 1 1 1h1c0 2.049 17.56 8.621 16 5.5l-4-2-3.5-1.5-6.5-3 1-1c4.279 0 8 5.757 8 0 3.683 0 7.326 6.587 12.5 4l8.5-9.5 2-3.5c0 3.3 14 2.199 14-1 1.465 0 4 .109 4-2 2.25 0 3.376-2 5-2 0 1.465-.109 4 2 4l-.5 2c-1.368 0-2.397-3.302-9 0l-18 13c-1.187.593-6.5 2.288-6.5 4.5 0 1.692 6.163-.332 6.5-.5l2.5-1.5v4c2.532 5.064 7.751-1.5 10-1.5ZM307 271l-1 1 1-1Z"/><path fill="#C9CACA" id="sctd" d="M153 285h2l-5-6-4-2-5-4h-1l-6-1 1 3h1l3 2 1 1 4 3h1l3 2h1c1.238 0 3 .423 3 2h1Z"/><path fill="#FF9BCD" id="MY" d="M296 277c3.405 0 10-5.622 10 2l5-3v-1c-3.256 0-5 .714-5-3l-3.5 2-6.5-1-1 3 1 1Z"/><path fill="#C9CACA" id="sctd" d="M304 285h1l1-1 2-1h1l1-1h1l1-1h1c0-1.747.253-2 2-2l2-1 1-1h1l1-1 1-1 1-1v-1c0-2.112-4.643 0-6 0h-1l-1 1-1 1h-1l-1 1-5 3c0 3.11-5 3.662-5 6h3Z"/><path fill="#C9C9C8" id="icp" d="M146 275v2l-5-4 5 2Z"/><path fill="#C8C8CB" id="rust" d="M164 285c4.279 0 8 5.757 8 0-1.311 0-3.513-11.006-5.5-12-1.354-.677-3.656 3-5.5 3v1c0 2.666 3 4.031 3 8Z"/><path fill="#FEB0D8" id="GRN" d="m213 273-4 2c1.465 0 4 .109 4-2Z"/><path fill="#FF9BCD" id="MY" d="m222 273-1 1 1-1Z"/><path fill="#C8C8CB" id="rust" d="M284 285c0 6.141 5.379 0 9 0 0-3.283 3-6.297 3-8l-1-1-4.5-3-6.5 12Z"/><path fill="#C9C9C8" id="icp" d="m315 273-1 1 1-1Z"/><path fill="#FF9BCD" id="MY" d="m323 273-1 1v-1h1ZM221 274l-1 1 1-1ZM235 274l3 1 1 3.5c0 .623-4-3.32-4-4.5Z"/><path fill="#C9C9C8" id="icp" d="m314 274-1 1 1-1Z"/><path fill="#FF9BCD" id="MY" d="m322 274-1 1 1-1ZM140 278l4 3c-1.696 0-8-3.804-8-6l3 2 1 1Z"/><path fill="#FEB0D9" id="LRNp" d="M160 287h1l2-1 1-1c0-3.969-3-5.334-3-8-3.476 0-11-5.705-11 2l5 6 4 1 1 1ZM298 286l-2 1-3-1v-1c0-3.283 3-6.297 3-8 3.405 0 10-5.622 10 2 0 3.11-5 3.662-5 6l-3 1Z"/><path fill="#C9C9C8" id="icp" d="m312 275-1 1v-1h1Z"/><path fill="#FF9BCD" id="MY" d="m321 275-1 1 1-1ZM320 276l-1 1 1-1Z"/><path fill="#C9C9C8" id="icp" d="m139 277 1 1-1-1Z"/><path fill="#FF9BCD" id="MY" d="M218 277c0 3.746 2.091 0 0 0ZM318 277l-1 1 1-1Z"/><path fill="#FFC6E2" id="RPA" d="M231 285v1c0 4.649-5 3.704-5-1v-1l1-1v-5h2c0 1.564 1 3.876 1 6l1 1Z"/><path fill="#FF9BCD" id="MY" d="m317 278-2 1 2-1ZM315 279c-1.747 0-2 .253-2 2l2-2ZM227 280c-1.186 0-1.186 1 0 1v-1ZM145 281l3 2c-1.238 0-3-.423-3-2ZM209 281c0 1.93 1.93 0 0 0ZM241 281c0 2.425 6.743 7.243 9 9.5.378.378 6 6.786 6 4L241 281ZM246 281c0 1.164 4.514 4 5.5 4 .447 0-3.924-4-5.5-4ZM312 281l-1 1 1-1ZM208 282c0 1.93 1.93 0 0 0ZM214 282c0 1.93 1.93 0 0 0ZM310 282l-1 1 1-1ZM149 283c1.238 0 3 .423 3 2-1.238 0-3-.423-3-2ZM206 283c0 1.93 1.93 0 0 0ZM227 283l-1 1 1-1ZM308 283l-2 1 2-1ZM205 284c0 1.93 1.93 0 0 0ZM211 284c0 2.091 3.746 0 0 0ZM217 284c0 1.93 1.93 0 0 0ZM230 284l1 1-1-1ZM238 284c0 1.93 1.93 0 0 0ZM306 284l-1 1 1-1ZM203 285c0 1.93 1.93 0 0 0ZM210 285c0 1.93 1.93 0 0 0ZM215 285c0 2.091 3.746 0 0 0ZM296 287l-11 6c5.662 0 9.812-3.656 14.5-6 1.119-.559 4.5-.155 4.5-2h-3l-3 1-2 1Z"/><path fill="#CBC7CC" id="sctv" d="m159 286 1 1-1-1ZM163 286l6.5 3 3.5 1.5 4 2c1.56 3.121-16-3.451-16-5.5l2-1Z"/><path fill="#FF9BCD" id="MY" d="M202 286c0 1.93 1.93 0 0 0ZM209 286c0 1.93 1.93 0 0 0ZM214 286c0 1.93 1.93 0 0 0ZM253 286l6.5 5s-3.929-5-6.5-5Z"/><path fill="#CBC7CC" id="sctv" d="m296 287-11 6c-5.849 0-6.613.557-1.5-2 2.976-1.488 6.004-5 9.5-5l3 1ZM298 286l-2 1 2-1Z"/><path fill="#FF9BCD" id="MY" d="M200 287c0 1.93 1.93 0 0 0ZM207 287c0 3.479 3.479 0 0 0ZM213 287c0 1.93 1.93 0 0 0ZM199 288c0 1.93 1.93 0 0 0ZM197 289c0 1.93 1.93 0 0 0ZM205 289c0 3.479 3.479 0 0 0ZM196 290c0 1.93 1.93 0 0 0Z"/><path fill="#C7C9C9" id="py" d="M205 295c0 2.123-3 3.03-3 4.5l3.5.5 10.5-1 5-4.5c2.544-5.089-10.975-3.5-12-3.5l-2 2-2 2ZM243 290c0 2.012-6.773.046-8 2.5-2.494 4.987 11.297 7.5 14 7.5 1.004 0 6.065.63 5-1.5l-4-4c-1.649-3.298-3.16-4.5-7-4.5Z"/><path fill="#FF9BCD" id="MY" d="M195 291c0 1.93 1.93 0 0 0ZM207 293c-2.409 0-1.055-1.277-2.5-2l-3.5 3.5c1.354 2.708 4-4.339 4 .5l2-2ZM209 291c-1.747 0-2 .253-2 2l2-2Z"/></svg>