<svg xmlns="http://www.w3.org/2000/svg" viewBox="0 0 456 320"><path fill="#1BA598" id="RSPd1" d="m224 26-2 2-3-3.5c-2.747-2.747-4.781-5.64-8.5-7.5-5.493-2.747-12.771-1-18.5-1l-1-4c9.678 0 23.705-2.09 29 8.5l4 5.5ZM233 26l2 2 4-5.5c3.22-3.22 15.905-9.798 20.5-7.5l5.5 2v-5c0-1.214-10.006-1.747-11.5-1-5.861 2.93-20.5 5.086-20.5 15Z"/><path fill="#1BA696" id="RSPagl1" d="m192 17-15 2v-6c4.725 0 9.879-1 14-1l1 4v1ZM265 17l14 2 1-6c-5.039 0-10.575-1-15-1v5Z"/><path fill="#019FAC" id="VISa1" d="M166 19h11v-6c-4.587 0-7.552 2-12.5 2-1.098 0-3.5-.534-3.5 1 0 .498 3 .848 3 4l2-1ZM291 20h1l3-4c0-.104-13.838-3-15-3l-1 6c1.824 0 12-.781 12 1Z"/><path fill="#1BA697" id="RSPd2/3" d="M222 29c-2.364 0-3.053 3-5 3l-7.5-7c-5.239-2.62-12.219 0-17.5 0v-9c5.729 0 13.007-1.747 18.5 1 3.719 1.86 5.753 4.753 8.5 7.5l3 3.5v1ZM235 29c1.947 0 2.636 3 5 3 0-1.606 1.501-2.5 2.5-3 12.563-6.281 7.419-4 21.5-4 0-2.097 1-5.293 1-8l-5.5-2c-4.595-2.298-17.28 4.28-20.5 7.5l-4 5.5v1Z"/><path fill="#187C64" id="SSp-tr1" d="M119 35h1c2.422 0 5.361-2.93 7.5-4 7.989-3.994 27.441-11 36.5-11 0-3.152-3-3.502-3-4-5.992 0-28.196 6.348-33.5 9-2.856 1.428-7.294 5-10.5 5 0 1.539 2 2.187 2 5ZM339 30l-2 5c-4.189 0-8.871-4.186-12.5-6-6.656-3.328-24.948-9-32.5-9l3-4c7.971 0 27.444 6.472 34.5 10 1.472.736 9.5 2.483 9.5 4Z"/><path fill="#1AA496" id="RSPagl2/3" d="M192 25c-4.661 0-8.553 4-13 4l-2-10 15-2v8ZM278 29v1c-4.089 0-8.422-5-13-5h-1c0-2.097 1-5.293 1-8l14 2-1 10Z"/><path fill="#188061" id="SSp-tr2/3" d="M124 45h1l13.5-6c8.091-4.046 24.98-9 34.5-9v-1c-2.254 0-7-7.858-7-10l-2 1c-9.059 0-28.511 7.006-36.5 11-2.139 1.07-5.078 4-7.5 4 0 3.556 4 6.366 4 10Z"/><path fill="#009EAB" id="VISa2/3" d="M173 29h6l-2-10h-11c0 2.142 4.746 10 7 10ZM278 29h5c1.264 0 8-7.39 8-9 0-1.781-10.176-1-12-1l-1 10Z"/><path fill="#188061" id="SSp-tr2/3" d="M332 45h1c0-4.079 4-6.766 4-10-4.189 0-8.871-4.186-12.5-6-6.656-3.328-24.948-9-32.5-9h-1c0 1.61-6.736 9-8 9v1c8.34 0 28.497 5.498 35.5 9 3.475 1.737 9.603 6 13.5 6Z"/><path fill="#1AA596" id="RSPd5" d="M192 38c4.427 0 15-6.237 15 4 4.593 0 5.015-9 10-9v-1l-7.5-7c-5.239-2.62-12.219 0-17.5 0v13ZM265 38c-4.55 0-16-6.024-16 4-3.351 0-5.032-9-9-9v-1c0-1.606 1.501-2.5 2.5-3 12.563-6.281 7.419-4 21.5-4h1v13Z"/><path fill="#1CA697" id="RSPagl5" d="m192 38-12 5-1-7v-7c4.447 0 8.339-4 13-4v13ZM265 38l11 5 1-7 1-1v-5c-4.089 0-8.422-5-13-5v13Z"/><path fill="#1BA597" id="RSPv1" d="M229 72h3V39c0-2.342.131-10 3-10v-1l-2-2c-2.435 0-4.093 6-4.5 6l-4.5-6-2 2v1l2 3.5c.797 1.594 1 35.533 1 39.5l2-1c0-5.288 2-3.391 2 1Z"/><path fill="#019EAC" id="VISa4" d="M175 31h1l3-1v-1h-6v1l1 1c0-1.186 1-1.186 1 0Z"/><path fill="#1AA597" id="RSPv2/3" d="M221 72h4c0-3.967-.203-37.906-1-39.5l-2-3.5c-2.364 0-3.053 3-5 3v1c0 12.908 4 26.47 4 39ZM232 72h4l3-29.5c0-1.616-.758-9.5 1-9.5v-1c-2.364 0-3.053-3-5-3-2.869 0-3 7.658-3 10v33Z"/><path fill="#019EAC" id="VISa4" d="M282 31h1v-2h-5v1l2 1c0-1.186 1-1.186 1 0h1Z"/><path fill="#188060" id="SSp-bfd1" d="m55 77 4 3 8-9.5c3.906-7.812 25.969-23.234 34.5-27.5l12-6c1.319-.66 5.5.334 5.5-2 0-2.813-2-3.461-2-5-4.335 0-10.633 5.067-14.5 7C92.07 42.215 70.582 54.337 65 65.5L55 77Z"/><path fill="#1B7E62" id="SSp-tr4" d="M127 50h2c.824 0 32.456-13.478 35.5-15 1.799-.9 9.5-1.083 9.5-4l-1-1c-9.52 0-26.409 4.954-34.5 9L125 45c0 1.041.986 5 2 5ZM174 31h1c0-1.186-1-1.186-1 0Z"/><path fill="#019EAB" id="VISa5" d="M176 31c0 1.408 1.197 5 3 5v-6l-3 1ZM282 31c0 1.712-2.571 3-4 3v-4l2 1h2Z"/><path fill="#1B7E62" id="SSp-tr4" d="M280 31h1c0-1.186-1-1.186-1 0ZM327 51h1l1-1 1-1 2-4c-3.897 0-10.025-4.263-13.5-6-7.003-3.502-27.16-9-35.5-9v1c0 3.113 7.656 3.078 9.5 4 8.862 4.431 18.082 7.541 27 12 1.35.675 7.5 2.239 7.5 4Z"/><path fill="#188060" id="SSp-bfd1" d="m401 77-3 3-11.5-13-16-14-8-6c-6.193-3.097-12.85-5.925-19-9l-6.5-3 2-5c4.753 0 10.363 4.931 14.5 7 12.868 6.434 23.665 13.665 34.5 24.5 3.358 3.358 13 11.79 13 15.5Z"/><path fill="#197F60" id="SSp-tr5" d="M139 57h1l1-1 11.5-5c7.156-3.578 16.853-2.427 24-6l3.5-2-1-7c-1.803 0-3-3.592-3-5h-2c0 2.917-7.701 3.1-9.5 4-3.044 1.522-34.676 15-35.5 15v1c1.8 0 10 4.067 10 6ZM316 57h1c0-1.673 8.485-6 10-6 0-1.761-6.15-3.325-7.5-4-8.918-4.459-18.138-7.569-27-12-1.844-.922-9.5-.887-9.5-4h-1c0 1.712-2.571 3-4 3v1l-1 1-1 7c4.763 0 25.685 7.593 30.5 10 1.662.831 9.5 1.515 9.5 4Z"/><path fill="#1BA498" id="RSPv5" d="m215 69 6 3c0-12.53-4-26.092-4-39-4.985 0-5.407 9-10 9v2c0 6.174 8 21.336 8 24v1ZM241 69l-5 3 3-29.5c0-1.616-.758-9.5 1-9.5 3.968 0 5.649 9 9 9v1c0 8.559-6 16.041-6 24l-2 2Z"/><path fill="#187F63" id="SSp-bfd2/3" d="M59 81c3.48 0 4.328 7 8 7 0-5.865 9.254-10.008 12-15.5 3.573-7.146 36.484-27.5 45-27.5 0-3.634-4-6.444-4-10h-1c0 2.334-4.181 1.34-5.5 2l-12 6C92.969 47.266 70.906 62.688 67 70.5L59 80v1Z"/><path fill="#019EAB" id="VISa5" d="m278 35-1 1 1-1Z"/><path fill="#187F63" id="SSp-bfd2/3" d="M389 88h1c2.619 0 4.532-7 8-7v-1l-11.5-13-16-14-8-6c-6.193-3.097-12.85-5.925-19-9l-6.5-3c0 3.234-4 5.921-4 10 4.265 0 8.818 4.16 12.5 6 11.549 5.775 29.578 13.656 35.5 25.5 1.974 3.948 8 6.832 8 11.5Z"/><path fill="#1AA697" id="RSPd6a" d="m193 50 8 1 6-7v-2c0-10.237-10.573-4-15-4l1 12ZM255 52h1l2-1c0-1.643 3.765-1 5-1 1.858 0 2-9.917 2-12-4.55 0-16-6.024-16 4v1c1.067 0 6 7.571 6 9Z"/><path fill="#1CA597" id="RSPagl6a" d="M193 51c-3.395 0-6.106 2-10 2l-3-10 12-5 1 12v1ZM273 53h1l2-10-11-5c0 2.083-.142 12-2 12v1l10 2Z"/><path fill="#188063" id="SSp-tr6a" d="M153 61h1c9.717 0 18.624-8 29-8l-3-10-3.5 2c-7.147 3.573-16.844 2.422-24 6L141 56c0 1.44 8.707 5 12 5Z"/><path fill="#1AA498" id="RSPv6a" d="m247 63-4 4c0-7.959 6-15.441 6-24 1.067 0 6 7.571 6 9v1c-1.976 0-4 2.876-4 5-1.712 0-3 2.571-3 4l-1 1Z"/><path fill="#188063" id="SSp-tr6a" d="M302 61h1c4.377 0 7.886-4 13-4 0-2.485-7.838-3.169-9.5-4-4.815-2.407-25.737-10-30.5-10l-2 10c9.771 0 18.808 8 28 8Z"/><path fill="#1AA498" id="RSPv6a" d="m209 62 6 6c0-2.664-8-17.826-8-24l-6 7v1c1.574 0 8 8.019 8 10Z"/><path fill="#197C64" id="SSp-bfd4" d="m67 89 5 5 12.5-13c5.703-2.851 8.132-9.066 14-12 6.115-3.057 11.971-6.985 18-10l10.5-7v-2c-1.014 0-2-3.959-2-5h-1c-8.516 0-41.427 20.354-45 27.5-2.746 5.492-12 9.635-12 15.5v1ZM389 88c0 3.207-4 3.855-4 6l-15-14.5c-9.946-9.946-21.82-16.66-33.5-22.5-2.55-1.275-4.466-5-7.5-5v-2l1-1 2-4h1c4.265 0 8.818 4.16 12.5 6 11.549 5.775 29.578 13.656 35.5 25.5 1.974 3.948 8 6.832 8 11.5Z"/><path fill="#197E61" id="SSp-un4" d="m330 49-1 1 1-1ZM127 51h2v-1h-2v1Z"/><path fill="#1BA698" id="RSPd6b" d="M201 52v1c-2.709 0-4.646-2-8-2v-1l8 1v1ZM258 51h5v-1c-1.235 0-5-.643-5 1Z"/><path fill="#197E61" id="SSp-un4" d="M328 51h1v-1l-1 1Z"/><path fill="#197D62" id="SSp-un5" d="m139 57-8 3c0-1.49-2.206-8-4-8v-1h2c1.8 0 10 4.067 10 6Z"/><path fill="#1AA598" id="RSPagl6b" d="M183 53v2c1.785 0 10-1.719 10-4-3.395 0-6.106 2-10 2Z"/><path fill="#CACCC7" id="cing" d="M215 68v1c-7.66 0-15.979-7.74-22.5-11-6.251-3.126-22.732 4-29.5 4l-2-1c0-1.59 4.386-1.443 5.5-2 4.792-2.396 10.759-4 16.5-4 1.785 0 10-1.719 10-4 3.354 0 5.291 2 8 2 0 1.675 6.062 9 8 9l6 6Z"/><path fill="#1BA698" id="RSPd6b" d="M256 52v1l2-2-2 1Z"/><path fill="#CACCC7" id="cing" d="m243 67-2 2c7.815 0 15.869-7.685 22.5-11 6.668-3.334 22.687 4 29.5 4l2-1c0-2.037-18.382-6-22-6-1.503 0-10-2.502-10-4h-5l-2 2h-1c0 1.562-2.189 5-4 5 0 1.429-1.288 4-3 4l-1 1-4 4Z"/><path fill="#1AA598" id="RSPagl6b" d="M273 53v2c-1.503 0-10-2.502-10-4l10 2Z"/><path fill="#197D62" id="SSp-un5" d="m317 57 8 3 4-8v-1h-2c-1.515 0-10 4.327-10 6Z"/><path fill="#1A7D62" id="SSp-bfd5" d="M80 103h1c0-8.75 29.139-30.32 36.5-34 4.071-2.035 8.799-8 13.5-8v-1c0-1.49-2.206-8-4-8l-10.5 7c-6.029 3.015-11.885 6.943-18 10-5.868 2.934-8.297 9.149-14 12L72 94v1l8 8Z"/><path fill="#1AA497" id="RSPv6b" d="M201 53c0 1.675 6.062 9 8 9 0-1.981-6.426-10-8-10v1ZM255 53h1v-1h-1v1Z"/><path fill="#1A7D62" id="SSp-bfd5" d="M385 95c-4.184 0-4.819 7-9 7l-12-14.5c-4.902-4.902-33.132-26.5-39-26.5v-1l4-8c3.034 0 4.95 3.725 7.5 5 11.68 5.84 23.554 12.554 33.5 22.5L385 94v1Z"/><path fill="#1A8063" id="SSp-tr6b" d="m161 61-6 1-1-1c9.717 0 18.624-8 29-8v2c-5.741 0-11.708 1.604-16.5 4-1.114.557-5.5.41-5.5 2Z"/><path fill="#1AA497" id="RSPv6b" d="M255 53c-1.976 0-4 2.876-4 5 1.811 0 4-3.438 4-5Z"/><path fill="#1A8063" id="SSp-tr6b" d="m302 61-1 1-6-1c0-2.037-18.382-6-22-6v-2h1c9.771 0 18.808 8 28 8Z"/><path fill="#197D61" id="SSp-ul6a" d="M142 67h1c0-2.048 8.151-5 10-5v-1c-3.293 0-12-3.56-12-5l-1 1 2 10Z"/><path fill="#1A7F61" id="SSp-un6a" d="M134 71h1c2.46 0 4.17-4 7-4l-2-10h-1l-8 3v1c0 3.026 3 5.824 3 10Z"/><path fill="#197D61" id="SSp-ul6a" d="M303 62c4.391 0 8.074 5 12 5 0-3.77 2-7.02 2-10h-1c-5.114 0-8.623 4-13 4v1Z"/><path fill="#1A7F61" id="SSp-un6a" d="m315 67 7 4c0-3.269 3-6.32 3-10v-1l-8-3c0 2.98-2 6.23-2 10Z"/><path fill="#C9C7C9" id="ccb" d="M341 106c3.119 0 5.616 3 8 3 0-7.732-11.473-20.487-18.5-24l-6.5-6c-.849 0-14.132-9.816-16.5-11l-11-5c-1.046-.523-3.5.952-3.5-1-6.813 0-22.832-7.334-29.5-4-6.631 3.315-14.685 11-22.5 11l-5 3h-7l-2-1-2 1h-4l-6-3c-7.66 0-15.979-7.74-22.5-11-6.251-3.126-22.732 4-29.5 4 0 1.196-10.918 4.209-12.5 5-3.575 1.787-9.559 8-13.5 8l-2 2h-1l-1 1-1 1-7.5 7c-6.234 6.234-16.5 13.281-16.5 23 2.087 0 4.393-3 7-3 0-2.89 8.729-13 11-13 0-2.775 5.947-10 9-10 0-1.747.253-2 2-2 0-2.726 11.088-8.794 13.5-10 10.001-5 28.389-14.306 41-8L212 78c3.899 0 10.1 1.3 13.5 3 3.779 1.89 12.787-2 17.5-2l1-1 3-1c0-3.61 17.397-12.448 20.5-14 11.612-5.806 46.492 7.484 51.5 17.5 2.151 4.301 11 5.948 11 12.5 3.675 0 11 9.835 11 13Z"/><path fill="#1AA497" id="RSPv6b" d="M251 58c-1.712 0-3 2.571-3 4 1.712 0 3-2.571 3-4Z"/><path fill="#198060" id="SSp-bfd6a" d="M90 113h1c0-2.78 3.433-8 6-8l8-8 6-6c0-2.473 3.527-6 6-6 0-3.6 17-11.415 17-14 0-4.176-3-6.974-3-10-4.701 0-9.429 5.965-13.5 8-7.361 3.68-36.5 25.25-36.5 34l9 10Z"/><path fill="#197F62" id="SSp-ll6b" d="m155 62-2 1v-2h1l1 1Z"/><path fill="#C9C9CA" id="scwm" d="M140 70c2.388 0-3 3.913-3 5 3.941 0 9.925-6.213 13.5-8 1.582-.791 12.5-3.804 12.5-5l-2-1-6 1-2 1c-3.115 0-6.196 4-10 4l-1 1-2 2ZM317 70c-2.89 0 7 7.681 7 9-.849 0-14.132-9.816-16.5-11l-11-5c-1.046-.523-3.5.952-3.5-1l2-1 6 1 2 1c4.04 0 7.639 5 12 5l2 2Z"/><path fill="#197F62" id="SSp-ll6b" d="M303 62v1l-2-1 1-1h1v1Z"/><path fill="#198060" id="SSp-bfd6a" d="M376 103c0 1.459-8.663 9-10 9l-7.5-9c-8.445-4.222-13.072-16.536-24-22-3.962-1.981-7.933-9-12.5-9v-1c0-3.269 3-6.32 3-10 5.868 0 34.098 21.598 39 26.5l12 14.5v1Z"/><path fill="#1C8064" id="SSp-ul6b" d="M153 63c-3.115 0-6.196 4-10 4 0-2.048 8.151-5 10-5v1Z"/><path fill="#C7C8CC" id="alv" d="m140 80-3 1c0-2.726 11.088-8.794 13.5-10 10.001-5 28.389-14.306 41-8L212 78l5 5-25.5-18c-10.563-5.282-28.373 1.687-37 6-2.495 1.247-14.5 5.46-14.5 9Z"/><path fill="#1AA497" id="RSPv6b" d="m248 62-1 1 1-1Z"/><path fill="#C7C8CC" id="alv" d="M294 111h15c3.039 0 12.638-3.569 15.5-5l5.5-6v-7c0-6.552-8.849-8.199-11-12.5-5.008-10.016-39.888-23.306-51.5-17.5-3.103 1.552-20.5 10.39-20.5 14 5.665 0 13.444-9.472 18.5-12 10.53-5.265 28.401 1.7 37 6 2.29 1.145 14.5 6.314 14.5 9l4 4c4.084 0 9.829 10.841 8 14.5-2.177 4.354-6.5 6.5-10.5 8.5-6.85 3.425-18.897 3-27 3-1.532 0-8.5-.743-8.5 1h11Z"/><path fill="#1C8064" id="SSp-ul6b" d="M315 67v1c-4.361 0-7.96-5-12-5v-1c4.391 0 8.074 5 12 5Z"/><path fill="#7ECF4B" id="CA1" d="m219 95-1 1c-10.189 0-21.847-4.674-30.5-9-5.485-2.743-13.953 2-18.5 2 0-2.334-4.181-1.34-5.5-2-5.852-2.926-16.875-7-23.5-7 0-3.54 12.005-7.753 14.5-9 8.627-4.313 26.437-11.282 37-6L217 83h1l3 4c0 3.303-2 5.115-2 8ZM237 94l2 1c11.156 0 21.238-3.369 30.5-8 5.277-2.639 13.157 2 17.5 2 0-1.59 4.386-1.443 5.5-2 6.275-3.138 17.314-7 24.5-7 0-2.686-12.21-7.855-14.5-9-8.599-4.3-26.47-11.265-37-6-5.056 2.528-12.835 12-18.5 12 0 1.577-1.762 2-3 2l-1 1-2 1-1 1-1 1c0 1.577-1.762 2-3 2l-1 2 2 7Z"/><path fill="#1A7D63" id="SSp-un6b" d="M135 71v2l5-3 2-2v-1c-2.83 0-4.54 4-7 4Z"/><path fill="#1C8064" id="SSp-ul6b" d="m143 67-1 1v-1h1Z"/><path fill="#1A7D63" id="SSp-un6b" d="M321 72h1v-1l-7-4v1l2 2 4 2Z"/><path fill="#CBC9C7" id="or" d="M97 113v6l11-10c0-9.719 10.266-16.766 16.5-23l7.5-7 1-1 1-1h1c0-1.747.253-2 2-2 0-1.087 5.388-5 3-5l-5 3-17 12-1 1-5 5-1 1c0 1.901-4.332 5-6 5 0 3.153-5 4.304-5 7l-1 1c0 2.885-2 4.697-2 8ZM360 114v5l-11-10c0-7.732-11.473-20.487-18.5-24l-6.5-6c0-1.319-9.89-9-7-9l4 2 15 11 1 1 19 19 1 1v1c0 2.675 3 5.922 3 9Z"/><path fill="#1A7E61" id="SSp-bfd6b" d="M117 85h1l17-12v-2h-1c0 2.585-17 10.4-17 14ZM365 113h1v-1l-7.5-9c-8.445-4.222-13.072-16.536-24-22-3.962-1.981-7.933-9-12.5-9h-1l15 11 1 1 19 19 1 1v1c1.856 0 8 6.003 8 8Z"/><path fill="#C9C9CA" id="scwm" d="M137 75c-1.747 0-2 .253-2 2l2-2Z"/><path fill="#1A7E62" id="SSs1" d="m26 152 6 1c0-20.819 8.348-39.196 17-56.5C50.268 93.965 56.29 81 59 81v-1l-4-3c0 1.73-13.275 19.05-15 22.5-7.435 14.87-14 34.87-14 52.5Z"/><path fill="#C9C9CA" id="scwm" d="m134 77-1 1 1-1Z"/><path fill="#C7C8CC" id="alv" d="M244 78v1c1.238 0 3-.423 3-2l-3 1Z"/><path fill="#1A7E62" id="SSs1" d="m430 152-6 1c0-21.13-7.287-38.074-16-55.5-1.061-2.123-8.368-16.5-10-16.5v-1l3-3c2.857 0 8.81 12.12 10 14.5 9.747 19.494 19 36.903 19 60.5Z"/><path fill="#C9C9CA" id="scwm" d="m133 78-1 1 1-1Z"/><path fill="#C9CCC9" id="dhc" d="M230 86h4l2-1c0-1.577 1.762-2 3-2l1-1 1-1 2-1v-1c-4.713 0-13.721 3.89-17.5 2-3.4-1.7-9.601-3-13.5-3l5 5h1l4 3h5c0-2.373 2.284 0 3 0ZM243 79h1v-1l-1 1Z"/><path fill="#C7C8CC" id="alv" d="m244 79-1 1v-1h1Z"/><path fill="#7DCF4B" id="CA2" d="m169 89-2 2c-2.972 0-7.839-2.67-10.5-4-5.549-2.775-14.916-3-21.5-3v-1c1.747 0 2-.253 2-2l3-1c6.625 0 17.648 4.074 23.5 7 1.319.66 5.5-.334 5.5 2Z"/><path fill="#C7C8CC" id="alv" d="m243 80-2 1 2-1Z"/><path fill="#7DCF4B" id="CA2" d="m287 89 2 2c2.972 0 7.839-2.67 10.5-4 4.38-2.19 16.007-3 21.5-3l-4-4c-7.186 0-18.225 3.862-24.5 7-1.114.557-5.5.41-5.5 2Z"/><path fill="#1B8063" id="SSs2/3" d="M32 153c3.39 0 3.894 2 8 2 0-17.482 10.612-35.724 18-50.5 1.291-2.583 5.446-15.5 9-15.5v-1c-3.672 0-4.52-7-8-7-2.71 0-8.732 12.965-10 15.5-8.652 17.304-17 35.681-17 56.5Z"/><path fill="#C7C8CC" id="alv" d="M137 81c-1.747 0-2 .253-2 2 1.747 0 2-.253 2-2ZM241 81l-1 1 1-1Z"/><path fill="#1B8063" id="SSs2/3" d="M424 153c-2.709 0-4.646 2-8 2 0-16.689-8.973-34.445-16-48.5L390 88c2.619 0 4.532-7 8-7 1.632 0 8.939 14.377 10 16.5 8.713 17.426 16 34.37 16 55.5Z"/><path fill="#C7C8CC" id="alv" d="m240 82-1 1 1-1ZM171 111h3c0-1.751-7.426-1-9-1-7.121 0-21.843-.171-27.5-3-10.797-5.399-11.486-8.528-6.5-18.5l4-4.5v-1c-3.053 0-9 7.225-9 10v6l4.5 6 7 4h7l2.5 2h24ZM222 86l-1 1-3-4 4 3ZM239 83c-1.238 0-3 .423-3 2 1.238 0 3-.423 3-2Z"/><path fill="#C9C9CA" id="scwm" d="m336 83 1 1-1-1Z"/><path fill="#7ECF49" id="CA3" d="M174 111h1l1-1h4c0-2.156 7.077-2 9-2 6.583 0-4-6.248-4-7l-10-2c-6.257 0-8-2.052-8-8-2.972 0-7.839-2.67-10.5-4-5.549-2.775-14.916-3-21.5-3l-4 4.5c-4.986 9.972-4.297 13.101 6.5 18.5 5.657 2.829 20.379 3 27.5 3 1.574 0 9-.751 9 1ZM282 111h1c0-1.743 6.968-1 8.5-1 8.103 0 20.15.425 27-3 4-2 8.323-4.146 10.5-8.5 1.829-3.659-3.916-14.5-8-14.5-5.493 0-17.12.81-21.5 3-2.661 1.33-7.528 4-10.5 4 0 5.416-1.011 8-7 8l-11 2-6 5.5 2 2.5h9l2 1h3l1 1Z"/><path fill="#1A7E61" id="SSp-bfd6b" d="M111 91h1l5-5v-1c-2.473 0-6 3.527-6 6Z"/><path fill="#C9C9CA" id="scwm" d="m118 85-1 1v-1h1Z"/><path fill="#C7C8CC" id="alv" d="m234 86 1 1 1-2-2 1Z"/><path fill="#7ECD4A" id="FC" d="M223 97h1l1-1c0-3.004 2-6.124 2-10h-5l-1 1c0 3.303-2 5.115-2 8v1l3 1h1ZM233 97h1l4-1-1-2-2-7-1-1h-4c0 1.987-1.582 11 3 11Z"/><path fill="#7BD04A" id="DG-mo" d="M202 122h1l1-1h3l1-1 1-1h1l1-1 2-1c0-1.797 2.203-4 4-4l1-2 1-1c0-1.238.423-3 2-3 0-1.145-.579-4 1-4v-1l1-1v-3l-1-1-3-1h-1c-10.189 0-21.847-4.674-30.5-9-5.485-2.743-13.953 2-18.5 2l-2 2c0 5.948 1.743 8 8 8 0-3.226 3.962-1.231 5.5-2 5.33-2.665 14.15 2.575 19 5 4.728 2.364 16.242-4.016 17.5-1.5 2.421 4.841-14.324 17.588-18.5 15.5-5.415-2.708-12.093-6-18.5-6h-1l-2 2v1l5 2 1 1 3 1 3 2h2l1 1h1l1 1h1l7 1ZM261 121h1l1-1h1l1-1h3l1-1 8-4 1-1h1v-1l-1-2-2-1c0 4.127-5.044.772-7.5 2-11.572 5.786-9.336 6.332-20 1-2.092-1.046-4.597-2.695-5.5-4.5-.618-1.235-5.38-3.241-4-6 2.392-4.784 12.203 3.148 17.5.5 2.922-1.461 25.5-10.026 25.5-3 5.989 0 7-2.584 7-8l-2-2c-4.343 0-12.223-4.639-17.5-2-9.262 4.631-19.344 8-30.5 8l-1 1-4 1v5l1 2v1l3 5.5 6 6.5 2 2h1l1 1h1l1 1 4 1 7-1Z"/><path fill="#187C63" id="SSs4" d="M411 156h5v-1c0-16.689-8.973-34.445-16-48.5L390 88h-1c0 3.207-4 3.855-4 6v1c2.069 0 7.059 9.618 8 11.5 6.501 13.002 18 34.328 18 49.5ZM40 156h5l4-12.5c2.614-5.228 1.356-12.712 4-18 3.08-6.161 6.867-11.735 10-18 1.148-2.295 5.796-12.5 9-12.5v-1l-5-5c-3.554 0-7.709 12.917-9 15.5-7.388 14.776-18 33.018-18 50.5v1Z"/><path fill="#1A7E61" id="SSp-bfd6b" d="M111 92c0 1.901-4.332 5-6 5l6-6v1Z"/><path fill="#C9C9CA" id="scwm" d="m112 91-1 1v-1h1Z"/><path fill="#A8AAAA" id="VL" d="M115 106c6.897 0 3.401 11 6 11v-11.5c0-.911.003-3.5 1.5-3.5l2.5 1 1-4v-6c-2.271 0-11 10.11-11 13ZM333 124l2 1c0-4.044.734-19 6-19 0-3.165-7.325-13-11-13v7c1.473 0 1 1.952 1 3 1.535 0 3.999-1.503 5 .5l-2 6 1 8-3 .5 1 6Z"/><path fill="#A8A9AA" id="V3" d="M223 101c3.169 0 2.687 3.094 4.5 4 1.458.729 4.151-4 6.5-4v-1l-5.5-6-3.5 2-1 1-1 2v2Z"/><path fill="#7DCD4B" id="HPF" d="m239 95-1 1-1-2 2 1Z"/><path fill="#1C8063" id="SSs5" d="m45 156 14 3c0-12.448 5.687-28.874 11-39.5L80 103l-8-8c-3.204 0-7.852 10.205-9 12.5-3.133 6.265-6.92 11.839-10 18-2.644 5.288-1.386 12.772-4 18L45 156Z"/><path fill="#7DCD4B" id="HPF" d="M218 96h1v-1l-1 1Z"/><path fill="#1C8063" id="SSs5" d="m411 156-14 3c0-15.88-7.344-31.188-14-44.5-.966-1.932-4.636-11.5-7-11.5v-1c4.181 0 4.816-7 9-7 2.069 0 7.059 9.618 8 11.5 6.501 13.002 18 34.328 18 49.5Z"/><path fill="#65A83D" id="DG-sg" d="M189 108c-1.923 0-9-.156-9 2 6.407 0 13.085 3.292 18.5 6 4.176 2.088 20.921-10.659 18.5-15.5-1.258-2.516-12.772 3.864-17.5 1.5-4.85-2.425-13.67-7.665-19-5-1.538.769-5.5-1.226-5.5 2l10 2c5.044 0 11.21 2.855 15.5 5 .917.458 7.76-1.021 6.5 1.5-2.906 5.811-18 1.978-18 .5ZM267 109h9c0 4.127-5.044.772-7.5 2-11.572 5.786-9.336 6.332-20 1-2.092-1.046-4.597-2.695-5.5-4.5-.618-1.235-5.38-3.241-4-6 2.392-4.784 12.203 3.148 17.5.5 2.922-1.461 25.5-10.026 25.5-3l-11 2c-4.594 0-6.761 2.13-10.5 4l-11.5 1.5c0 7.213 15.356 2.5 18 2.5Z"/><path fill="#1A7E61" id="SSp-bfd6b" d="M97 105h2l1-1c0-2.696 5-3.847 5-7l-8 8Z"/><path fill="#7DCD4B" id="HPF" d="M223 97v1l-1-1h1ZM234 97v1l-1-1h1Z"/><path fill="#CBC8CB" id="fi" d="M123 131c2.311 0 5.087 3 9 3l5-4.5c1.004-2.008.976-4.952 2-7 2.306-4.611 8-5.944 8-11.5l-2.5-2h-7l-7-4-4.5-6-1 4c0 1.856 2.404 6.693 2 7.5l-2 6.5c0 2.885-2 4.697-2 8v6ZM333 131c-2.547 0-5.453 3-8 3l-5-3.5-1-5c-2.207-4.413-10-9.424-10-14.5 3.039 0 12.638-3.569 15.5-5l5.5-6c1.473 0 1 1.952 1 3l-1 9.5 2 5.5 1 6v7Z"/><path fill="#7ECE4A" id="DG-po" d="M185 101c5.044 0 11.21 2.855 15.5 5 .917.458 7.76-1.021 6.5 1.5-2.906 5.811-18 1.978-18 .5 6.583 0-4-6.248-4-7Z"/><path fill="#A8A9AA" id="V3" d="m223 101-1 1 1-1Z"/><path fill="#A9AAA8" id="chpl" d="m226 121 2.5 2 2.5-2v-3l1-1 1-4 1-1v-1l1-2v-5l-1-2v-1c-2.349 0-5.042 4.729-6.5 4-1.813-.906-1.331-4-4.5-4l-1 1v9l1 2 2 6 1 1v1Z"/><path fill="#7ECE4A" id="DG-po" d="M271 101c-4.594 0-6.761 2.13-10.5 4l-11.5 1.5c0 7.213 15.356 2.5 18 2.5l-2-2.5 6-5.5Z"/><path fill="#A9AAA8" id="chpl" d="m125 117-4 1v-12.5c0-.911.003-3.5 1.5-3.5l2.5 1c0 1.856 2.404 6.693 2 7.5l-2 6.5Z"/><path fill="#A8A9AA" id="V3" d="m234 102 1 2-1-2Z"/><path fill="#A9AAA8" id="chpl" d="M331 103c1.535 0 3.999-1.503 5 .5l-2 6 1 8-3 .5-2-5.5 1-9.5Z"/><path fill="#197D63" id="SSs6a" d="m59 159 11 2c0-1.926.84-10 3-10 0-1.623.005-6 2-6 0-1.942 1.937-10 4-10 0-8.258 11-16.382 11-22l-9-10h-1l-10 16.5c-5.313 10.626-11 27.052-11 39.5Z"/><path fill="#A8A9AA" id="V3" d="m221 109 1 1v-7c-1.579 0-1 2.855-1 4v2Z"/><path fill="#C9C9CA" id="scwm" d="m356 103 1 1-1-1Z"/><path fill="#197D63" id="SSs6a" d="M386 161h1l10-2c0-15.88-7.344-31.188-14-44.5-.966-1.932-4.636-11.5-7-11.5 0 1.459-8.663 9-10 9v1c1.775 0 6.136 9.772 7 11.5 5.413 10.826 13 23.652 13 36.5Z"/><path fill="#C9C9CA" id="scwm" d="m100 104-1 1 1-1Z"/><path fill="#1A7E61" id="SSp-bfd6b" d="M97 105c-2.567 0-6 5.22-6 8 1.582 0 6-5.874 6-8Z"/><path fill="#C9C9CA" id="scwm" d="M73 151v3c2.4 0 3.199-6.897 4-8.5 4.267-8.534 9.838-16.677 14-25l6-7.5c0-3.303 2-5.115 2-8h-2c0 2.126-4.418 8-6 8 0 2.237-7.425 14.35-9 17.5l-3 4.5c0 2.161-1.729 10-4 10 0 1.623-.005 6-2 6ZM360 114c2.232 0 4.276 5.052 5 6.5l5 6 9 18c.767 1.535 1.845 8.5 4 8.5 0-7.289-8.605-24.711-12-31.5-1.384-2.767-6-4.215-6-8.5 0-1.997-6.144-8-8-8 0 2.675 3 5.922 3 9Z"/><path fill="#98D5F9" id="CP" d="m81 199 5 2c4.048 0 17.935 3.631 21-2.5 1.74-3.479-2.506-15.011-4-18-.536-1.073-.251-5.5 1-5.5l2-10-2-15c0-1.235-.643-5 1-5 0-4.845-.469-13.516 4.5-16 3.443-1.722 3.168 3 5.5 3l4-1 1-1 1-5v-8c-2.599 0 .897-11-6-11-2.607 0-4.913 3-7 3l-11 10-10 13.5c-4.397 8.794-12 20.159-12 30.5v21.5c1.307 2.614 2 5.334 2 8.5l1 1v1c1.712 0 3 2.571 3 4ZM375 199l-4 2-5.5 2c-2.122 1.061-15.34-2.18-16.5-4.5-.75-1.499 4-17.595 4-21.5 0-4.475-2-7.225-2-12l1-23-2-9.5c-.899-1.799-7-6.072-7-1.5l-1 1-5-1-2-6c0-4.044.734-19 6-19 3.119 0 5.616 3 8 3l11 10c0 4.479 7.058 8.617 9 12.5 4.605 9.211 12 20.591 12 31.5 0 3.701 3.026 11.448 1 15.5-1.664 3.329-3 11.903-3 15.5l-1 1-1 2-2 2Z"/><path fill="#A8A9AA" id="V3" d="M235 109h1l-1-2v2Z"/><path fill="#FF8D9F" id="MH" d="m225 131-2 1-2-1c-1.734 0-8-7.793-8-9l3-6c1.473 0 1-1.952 1-3l1-2 1-1 2-1 1 1v1l1 2 2 6 1 1v1l-1 10Z"/><path fill="#A8A9AA" id="V3" d="m235 109-1 2 1-2Z"/><path fill="#FF8D9F" id="MH" d="M234 132h1c0-2.503 8-6.809 8-11 0-1.624-2-2.75-2-5-2.735 0-2.373-7-5-7h-1l-1 2v1l-1 1-1 4-1 1v3c0 1.657-.763 10 1 10l2 1Z"/><path fill="#C7C8CC" id="alv" d="M175 111h1v-1l-1 1Z"/><path fill="#7DCD4B" id="HPF" d="m176 111 1 1 2-2h-3v1ZM279 112h2v-2h-3l1 2Z"/><path fill="#C7C8CC" id="alv" d="M281 111h1l-1-1v1Z"/><path fill="#FF909D" id="LD" d="M156 137c8.335 0 16.126 4 24 4 1.183 0 1.535-3.57 2-4.5l7-17.5c-1.238 0-3-.423-3-2l-3-1-1-1-5-2c-.986 0-6-1.087-6-2h-8c0 1.643-3.765 1-5 1-2.212 0-9 3.008-9 5 0 1.991-2.904 6-5 6 0 1.564-1 3.876-1 6l3 4 4 3c3.329 0 4.97 1 6 1Z"/><path fill="#A8A9AA" id="V3" d="m222 111 1 2-1-2Z"/><path fill="#FF909D" id="LD" d="M300 137c-8.089 0-14.708 5-23 5 0-4.306-9-17.035-9-23l1-1 8-4 1-1h1l2-1c1.235 0 5 .643 5-1h8c0 .905 14 2.403 14 6 0 2.538 2.152 6 5 6l1 6-1 2-2 1-1 1-1 2-3 1c-3.329 0-4.97 1-6 1Z"/><path fill="#A8A9AA" id="V3" d="m234 112-1 1 1-1Z"/><path fill="#1A8061" id="SSs6b" d="M91 113c0 2.237-7.425 14.35-9 17.5l-3 4.5c0-8.258 11-16.382 11-22h1Z"/><path fill="#C9C7C9" id="ccb" d="M71 163h4c0-10.341 7.603-21.706 12-30.5L97 119v-6l-6 7.5c-4.162 8.323-9.733 16.466-14 25-.801 1.603-1.6 8.5-4 8.5v1c0 1.048.473 3-1 3v1l-1 2v2Z"/><path fill="#1A8061" id="SSs6b" d="m386 161-1 1v-2c0-1.357-.647-6-2-6v-1c0-7.289-8.605-24.711-12-31.5-1.384-2.767-6-4.215-6-8.5h1c1.775 0 6.136 9.772 7 11.5 5.413 10.826 13 23.652 13 36.5Z"/><path fill="#C9C7C9" id="ccb" d="M381 163h4v-3c-1.353 0-2-4.643-2-6v-1c-2.155 0-3.233-6.965-4-8.5l-9-18-5-6c-.724-1.448-2.768-6.5-5-6.5v5c0 4.479 7.058 8.617 9 12.5 4.605 9.211 12 20.591 12 31.5Z"/><path fill="#C8CCC7" id="hbc" d="M245 119c0 5.647 3.647 2-2 2 0-1.624-2-2.75-2-5 0-2.336 1.286 1 2 1l2 2ZM211 119c0 3.942-2.953 3 2 3l3-6-3 1-2 2Z"/><path fill="#A8AAAA" id="VL" d="M121 125h2c0-3.303 2-5.115 2-8l-4 1v7Z"/><path fill="#FE7F84" id="LGd-co" d="M144 121v2c2.096 0 5-4.009 5-6-1.429 0-4 1.288-4 3l-1 1Z"/><path fill="#FF8D9F" id="MH" d="M211 118v1l2-2-2 1Z"/><path fill="#A8A9AA" id="V3" d="m232 117-1 1 1-1Z"/><path fill="#FF8D9F" id="MH" d="M245 119h1l-2-2h-1l2 2Z"/><path fill="#FE7F84" id="LGd-co" d="M313 122v1c-2.848 0-5-3.462-5-6l3 2 2 2v1Z"/><path fill="#FE909D" id="LP" d="m183 146 3 1c0-6.717 11-19.656 11-24l-2-2h-1l-1-1h-1l-1-1h-2l-7 17.5c-.465.93-.817 4.5-2 4.5 0 1.766.607 5 3 5Z"/><path fill="#FF8F9D" id="LH" d="M217 137c-1.465 0-4-.109-4 2h-7.5l-4.5-4v-5c3.447 0 7-6.426 7-9v-1l1-1h2c0 3.942-2.953 3 2 3 0 1.207 6.266 9 8 9v2c-1.124 0-4 3.189-4 4Z"/><path fill="#A8A9AA" id="V3" d="m225 119 1 1-1-1Z"/><path fill="#FF8F9D" id="LH" d="m255 135-4.5 4H243c0-.063-7.854-7-8-7 0-2.503 8-6.809 8-11 5.647 0 2 3.647 2-2h2l1 1h1v1c0 5.61 6 6.034 6 10v4Z"/><path fill="#FE909D" id="LP" d="M270 147h3l1-1 3-4c0-4.306-9-17.035-9-23h-3l-1 1h-1l-1 1h-1l-2 2c0 2.804 11 17.186 11 24Z"/><path fill="#FF6F80" id="TH" d="m311 119 2 2-2-2ZM145 120l-1 1 1-1ZM141 131l-3 1 1-2c1.348 0 3.216-3 1-3l4-6v2c0 1.564-1 3.876-1 6l-2 2Z"/><path fill="#CCC9C8" id="sm" d="m199 125 2 5c3.447 0 7-6.426 7-9h-4l-1 1h-1l-1 1-2 2Z"/><path fill="#A8A9AA" id="V3" d="M225 131c0 4.024 7 3.129 7 0-1.763 0-1-8.343-1-10l-2.5 2-2.5-2-1 10Z"/><path fill="#CCC9C8" id="sm" d="M257 124c0 1.593-.337 7-2 7 0-3.966-6-4.39-6-10h1l4 1 1 1 2 1Z"/><path fill="#FF6F80" id="TH" d="m317 132 2 1-2-4-1-2c0-1.408-1.197-5-3-5v1l1 6 1 2h1l1 1Z"/><path fill="#FD8F9D" id="CL" d="M188 163h7c0-5.318-4.018-12.465-1-18.5l3-6 4-3.5v-5l-2-5-1-2h-1c0 4.344-11 17.283-11 24v6l2 10Z"/><path fill="#FF6F80" id="TH" d="m201 123-2 2-1-2h3ZM258 123l-1 1-2-1h3Z"/><path fill="#FD8F9D" id="CL" d="M262 163h6c0-3.548 3-7.721 3-12l-1-4c0-6.814-11-21.196-11-24h-1l-1 1c0 1.593-.337 7-2 7v4c9.866 0 7 22.145 7 28Z"/><path fill="#FF8E9F" id="LGv" d="M140 127c2.216 0 .348 3-1 3l1-3ZM316 127l1 2-1-2Z"/><path fill="#CBC9C7" id="or" d="m105 145 5.5 6c4.195 2.098 8.427 0 12.5 0 2.678 0 12-10.926 12-14-2.51 0-3.687 4-7 4l-1 1c-1.07 0-8 1.444-8-1-2.447 0-4-6.063-4-8v-1c-2.332 0-2.057-4.722-5.5-3-4.969 2.484-4.5 11.155-4.5 16ZM141 131c2.25 0 3.376 2 5 2l-3-4-2 2ZM313 131h2l-1-2-1 2ZM352 142c-.721 0-4.192 7.846-6.5 9-4.195 2.098-8.427 0-12.5 0-3.936 0-12-11.809-12-15 2.414 0 4.258 6 8 6 3.831 0 6.646-1 9-1l4-8v-1l1-1c0-4.572 6.101-.299 7 1.5l2 9.5Z"/><path fill="#97D6F9" id="STR" d="M119 131h1v-1l-1 1ZM115 132v1c1.634 0 4 1.248 4-2l-4 1Z"/><path fill="#CAC7CB" id="fiber tracts" d="M119 141c0-5.168 6.951-9.598 10-3.5l-1 3.5c3.313 0 4.49-4 7-4v-2l-3-1c-3.913 0-6.689-3-9-3h-4c0 3.248-2.366 2-4 2 0 1.937 1.553 8 4 8Z"/><path fill="#FD8F9F" id="RT" d="M157 204h1l2-2c-1.457 0-1.46-3-4-3-8.615 0-20.674-23.849-24-30.5-1.38-2.759.243-16.5 3-16.5 0-1.238.423-3 2-3 0-2.473 3.527-6 6-6l1-1 1-1 2-2.5c.978-1.956-1-4.077-1-5.5-1.624 0-2.75-2-5-2l-3 1-1 2-1 1-1 1v1c0 3.074-9.322 14-12 14 0 2.802-5.014 5.472-3 9.5 4.347 8.693 10.802 15.604 15 24 2.139 4.278 22 19.228 22 19.5Z"/><path fill="#C7CAC9" id="fr" d="m223 132-2 1v-2l2 1Z"/><path fill="#FE8F9E" id="PVT" d="m224 145 4.5 2c1.125 0 2.557-2 4.5-2 0-1.338 4.41-7 6-7 0-1.465-5-3.316-5-6l-2-1c0 3.129-7 4.024-7 0l-2 1-2 1c0 3.115-.885 4-4 4v1l7 7Z"/><path fill="#CBC9C7" id="or" d="m313 131-2 1 2-1Z"/><path fill="#FD8F9F" id="RT" d="m300 203-1 1c-1.577 0-2-1.762-2-3l2-2h1l1-1c1.429 0 4-1.288 4-3 1.747 0 2-.253 2-2 2.473 0 6-3.527 6-6 1.747 0 2-.253 2-2 1.712 0 3-2.571 3-4l1-2c1.577 0 2-1.762 2-3 3.084 0 2.133-6.767 3-8.5 3.06-6.12-4.049-25.5-12-25.5l-3-7 1-2 1-1 2-1h3l1 1 2 1 2 2v1c0 3.191 8.064 15 12 15l4 7.5c0 6.862-18.891 32.195-25.5 35.5-3.662 1.831-7.128 9-11.5 9Z"/><path fill="#CBC9C7" id="or" d="m316 131 1 1-1-1Z"/><path fill="#CAC7CB" id="fiber tracts" d="M338 141c0-5.335-8.011-9.477-11-3.5-1.058 2.116 2 2.898 2 4.5-3.742 0-5.586-6-8-6v-1l4-1c2.547 0 5.453-3 8-3h4c0 2.461 3.378 2 5 2l-4 8Z"/><path fill="#97D6F9" id="STR" d="M342 132v1c-1.622 0-5 .461-5-2l5 1ZM343 131l-1 1 1-1Z"/><path fill="#C7CAC9" id="fr" d="m239 138 4 1c0-.063-7.854-7-8-7h-1c0 2.684 5 4.535 5 6Z"/><path fill="#FF6F80" id="TH" d="M150 136c0 2.101-2.831 5-5 5l2-2.5c.978-1.956-1-4.077-1-5.5l4 3Z"/><path fill="#C7CAC9" id="fr" d="M221 133c-1.124 0-4 3.189-4 4 3.115 0 4-.885 4-4Z"/><path fill="#FF6F80" id="TH" d="m310 133-1 2 1-2Z"/><path fill="#CBC9C7" id="or" d="m137 134-1 1 1-1Z"/><path fill="#1A8061" id="SSs6b" d="M79 135c-2.063 0-4 8.058-4 10 2.271 0 4-7.839 4-10Z"/><path fill="#C8CBC7" id="st" d="m128 141-1 1c-1.07 0-8 1.444-8-1 0-5.168 6.951-9.598 10-3.5l-1 3.5Z"/><path fill="#CBC9C7" id="or" d="m136 135-1 1v-1h1Z"/><path fill="#FD8084" id="VPL" d="M155 145c-5.62 0-9.499 2-15 2l3-4 1-1 1-1c2.169 0 5-2.899 5-5 3.329 0 4.97 1 6 1 0 2.502-1 5.498-1 8Z"/><path fill="#FD909D" id="MD" d="M221 174c-2.909 0-4.795 5-8 5-6.095 0-18-10.266-18-16 0-5.318-4.018-12.465-1-18.5l3-6 4-3.5 4.5 4h7.5l4-1 7 7 1 18.5-4 10.5ZM235 174l8 5c5.095 0 11.838-6.338 15.5-10l3.5-6c0-5.855 2.866-28-7-28l-4.5 4H243l-4-1c-1.59 0-6 5.662-6 7 0 4.857-3.545 15.409-1 20.5l3 8.5Z"/><path fill="#FD8084" id="VPL" d="m301 145 15.5 2c1.445.723.091 2 2.5 2l-7-7c-2.154 0-6-3.846-6-6-3.329 0-4.97 1-6 1l1 8Z"/><path fill="#FF6F80" id="TH" d="M306 136c0 2.154 3.846 6 6 6l-3-7-3 1Z"/><path fill="#C8CBC7" id="st" d="M338 141c-2.354 0-5.169 1-9 1 0-1.602-3.058-2.384-2-4.5 2.989-5.977 11-1.835 11 3.5Z"/><path fill="#FF8E9C" id="PO" d="M190 171c-5.137 0-9.322 6-12 6 0-10.199-10.756-16.012-15-24.5l-8-7.5c0-2.502 1-5.498 1-8 8.335 0 16.126 4 24 4 0 1.766.607 5 3 5 0 1.489 1.835 7 3 7l2 10 2 8Z"/><path fill="#C7CAC9" id="fr" d="m217 138-4 1c0-2.109 2.535-2 4-2v1Z"/><path fill="#FF8E9C" id="PO" d="M266 171c5.83 0 11.305 7 13 7 0-12.339 10.95-17.401 16-27.5l6-5.5-1-8c-8.089 0-14.708 5-23 5l-3 4-1 1-2 4c0 4.279-3 8.452-3 12l-2 8Z"/><path fill="#CAC7CB" id="fiber tracts" d="m128 141-1 1 1-1Z"/><path fill="#FF6F80" id="TH" d="m145 141-1 1 1-1Z"/><path fill="#C7CACA" id="em" d="m144 142-1 1 1-1ZM321 154c1.827 0 2 3.968 2 5.5 0 6.062-2 11.242-2 16.5 3.084 0 2.133-6.767 3-8.5 3.06-6.12-4.049-25.5-12-25.5l7 7v1c1.577 0 2 1.762 2 3v1Z"/><path fill="#CCC" fill-rule="evenodd" d="M295 209c0 1.93 1.93 0 0 0m26 6c-4.229 0-23 28.34-23 10 12.676 0 17.07-5.641 22-15.5.618-1.235 2.485-9.508.5-10.5l-17 6-8.5 8c0-2.003.293-3-2-3l6-6 1-1c4.372 0 7.838-7.169 11.5-9 6.609-3.305 25.5-28.638 25.5-35.5l-4-7.5c4.073 0 8.305 2.098 12.5 0 2.308-1.154 5.779-9 6.5-9l-1 23c-7.165 0-18 28.064-18 34l-1 1-1 1-5 7-1 1-1 1v1l-1 1-1 1-1 2Z"/><path fill="#C7CACA" id="em" d="M137 149h1l1-1 1-1 3-4c-2.473 0-6 3.527-6 6Z"/><path fill="#1A8061" id="SSs6b" d="M75 145c-1.995 0-2 4.377-2 6 1.995 0 2-4.377 2-6Z"/><path fill="#CCC" d="M163 217c0-6.147-23.029-19.735-26.5-18-3.784 1.892-.619 10.261.5 12.5 4.798 9.597 9.928 13.5 21 13.5 0 15.322-16.887-6.193-20.5-8l-4.5-5v-1l-2-2v-1l-1-1c-.828 0-4-3.748-4-5l-3-4c0-5.606-10.818-33-17-33l-2-15c0-1.235-.643-5 1-5l5.5 6c4.195 2.098 8.427 0 12.5 0 0 2.802-5.014 5.472-3 9.5 4.347 8.693 10.802 15.604 15 24 2.139 4.278 22 19.228 22 19.5l1 1 6 5v1l-2.5-2c-2.134 0 2.5 6.542 2.5 7l-1 1Z"/><path fill="#FF7E83" id="VPM" d="M178 177c0 6.946-2.428 16-11 16-7.228 0-22.738-23.238-29-29.5-1.241-1.241-1.881-8.5-3-8.5v-1l1-2 1-1v-1l1-1 1-1 1-1c5.501 0 9.38-2 15-2l8 7.5c4.244 8.488 15 14.301 15 24.5Z"/><path fill="#FE909F" id="IMD" d="M221 174c2.839 0 6.121-3.69 9.5-2l4.5 2-3-8.5c-2.545-5.091 1-15.643 1-20.5-1.943 0-3.375 2-4.5 2l-4.5-2 1 18.5-4 10.5Z"/><path fill="#FF7E83" id="VPM" d="M279 178c0 6.908 2.104 15 10 15 8.611 0 17.66-14.821 21-21.5l8-7c1.616-3.232 3-6.578 3-10.5v-1l-2-3v-1c-2.409 0-1.055-1.277-2.5-2l-15.5-2-6 5.5c-5.05 10.099-16 15.161-16 27.5Z"/><path fill="#FD8F9C" id="Eth" d="M186 147v6c-1.165 0-3-5.511-3-7l3 1ZM274 146l-1 1 1-1Z"/><path fill="#FD8084" id="VPL" d="m140 147-1 1 1-1Z"/><path fill="#FD8F9C" id="Eth" d="m273 147-2 4-1-4h3Z"/><path fill="#FD8084" id="VPL" d="m139 148-1 1 1-1Z"/><path fill="#C7CACA" id="em" d="M135 152h1l1-1v-2c-1.577 0-2 1.762-2 3Z"/><path fill="#FD8084" id="VPL" d="m138 149-1 1v-1h1ZM319 150c1.577 0 2 1.762 2 3l-2-3Z"/><path fill="#1A8061" id="SSs6b" d="M70 162h1v-1l1-2v-1c0-1.048-.473-3 1-3v-4c-2.16 0-3 8.074-3 10v1Z"/><path fill="#FD8084" id="VPL" d="m137 151-1 1 1-1Z"/><path fill="#12AD83" id="VISC1" d="m35 192-6 1c0-2.022-2.97-15.439-4-17.5-.396-.792 1-20.25 1-23.5l6 1c0 5.706-3.512 23.476-1 28.5l4 10.5Z"/><path fill="#C7CACA" id="em" d="M156 198v1c-8.615 0-20.674-23.849-24-30.5-1.38-2.759.243-16.5 3-16.5v3c-1.765 0-.541 1.581-1 2.5-2.183 4.365-1.031 12.938 1 17 3.91 7.82 12.712 13.424 16 20l5 3.5Z"/><path fill="#FD8084" id="VPL" d="m136 152-1 2v-2h1Z"/><path fill="#12AD83" id="VISC1" d="m422 192 5 1c2.357 0 1.264-6.029 2-7.5 4.632-9.264 1-22.91 1-33.5l-6 1c0 6.388 5.271 17.958 2 24.5l-4 14.5Z"/><path fill="#12AC83" id="VISC2/3" d="M45 191c-4.215 0-6.602 1-10 1l-4-10.5c-2.512-5.024 1-22.794 1-28.5 3.39 0 3.894 2 8 2v1c0 7.89-1.318 18.863 2 25.5.827 1.655.204 8.5 3 8.5v1ZM421 192h1l4-14.5c3.271-6.542-2-18.112-2-24.5-2.709 0-4.646 2-8 2v1c0 4.944.655 34-5 34v1c4.283 0 6.715 1 10 1Z"/><path fill="#FD8084" id="VPL" d="M296 199h3l1-1h1c0-1.712 2.571-3 4-3l2-2 6-6 2-2c0-1.429 1.288-4 3-4l1-2c0-1.238.423-3 2-3 0-5.258 2-10.438 2-16.5 0-1.532-.173-5.5-2-5.5 0 3.922-1.384 7.268-3 10.5l-8 7c-3.34 6.679-12.389 21.5-21 21.5 0 4.487 7 3.461 7 6Z"/><path fill="#C9C9CA" id="scwm" d="M383 154c1.353 0 2 4.643 2 6-1.353 0-2-4.643-2-6ZM73 155c-1.473 0-1 1.952-1 3 1.473 0 1-1.952 1-3Z"/><path fill="#FD8084" id="VPL" d="m156 198 4 1c2.354 0 7-3.377 7-6-7.228 0-22.738-23.238-29-29.5-1.241-1.241-1.881-8.5-3-8.5-1.765 0-.541 1.581-1 2.5-2.183 4.365-1.031 12.938 1 17 3.91 7.82 12.712 13.424 16 20l5 3.5Z"/><path fill="#11AC82" id="VISC4" d="M45 156c0 6.458-5.219 18.063-2 24.5 1.481 2.963 2 5.891 2 9.5-2.796 0-2.173-6.845-3-8.5-3.318-6.637-2-17.61-2-25.5h5Z"/><path fill="#12AD82" id="VISC5" d="M45 191h1l14-1c0-2.253-.984-6.469-2-8.5-2.783-5.566 1-17.021 1-22.5l-14-3c0 6.458-5.219 18.063-2 24.5 1.481 2.963 2 5.891 2 9.5v1ZM411 190v1l-15-1c0-2.595 1.775-9.049 3-11.5 2.749-5.499-2-14.499-2-19.5l14-3c0 6.699 5.573 19.355 2 26.5-1.112 2.225-2 4.846-2 7.5Z"/><path fill="#11AC82" id="VISC4" d="M416 156c0 4.944.655 34-5 34 0-2.654.888-5.275 2-7.5 3.573-7.145-2-19.801-2-26.5h5Z"/><path fill="#11AC83" id="VISC6a" d="M60 190h1c4.01 0 8.3-2 12-2 0-3.836-2.253-12.006-4-15.5-1.489-2.977 1-8.046 1-10.5v-1l-11-2c0 5.479-3.783 16.934-1 22.5 1.016 2.031 2 6.247 2 8.5Z"/><path fill="#C9C9CA" id="scwm" d="m72 159-1 2 1-2Z"/><path fill="#11AC83" id="VISC6a" d="M384 188c3.7 0 7.99 2 12 2 0-2.595 1.775-9.049 3-11.5 2.749-5.499-2-14.499-2-19.5l-10 2c0 9.836-3 18.021-3 27Z"/><path fill="#11AD82" id="VISC6b" d="M383 188h1c0-8.979 3-17.164 3-27h-1l-1 1v1c0 3.842 2.063 10.373 0 14.5l-3 10.5h1ZM73 188h1c0-4.455-1.998-13.496-4-17.5l1-7.5v-1h-1c0 2.454-2.489 7.523-1 10.5 1.747 3.494 4 11.664 4 15.5Z"/><path fill="#C8CBCC" id="ec" d="M77 200h2l-1-5v-1l-1-1c0-3.166-.693-5.886-2-8.5V163h-4l-1 7.5c2.002 4.004 4 13.045 4 17.5 0 3.974 3 7.572 3 12Z"/><path fill="#FE8D9F" id="PCN" d="M204 184c.979 0 2.61 1 6 1l3-6c-6.095 0-18-10.266-18-16h-7l2 8 14 13ZM246 185h6l14-14 2-8h-6l-3.5 6c-3.662 3.662-10.405 10-15.5 10 0 2.141 3 2.63 3 6Z"/><path fill="#C8CBCC" id="ec" d="M377 200h2c0-1.424.362-5 2-5l1-7 3-10.5c2.063-4.127 0-10.658 0-14.5h-4c0 3.701 3.026 11.448 1 15.5-1.664 3.329-3 11.903-3 15.5l-1 1-1 2v3Z"/><path fill="#8598CC" id="GPe" d="M117 203h1l3-1 3-2-1-2c0-5.606-10.818-33-17-33l-2 10c0 4.52 7.37 27 12 27l1 1ZM340 202l-1 1-4-1-2-2v-1c0-5.936 10.835-34 18-34 0 4.775 2 7.525 2 12-1.781 0-1.348 6.197-2 7.5-1.825 3.65-6.401 17.5-11 17.5Z"/><path fill="#FD7E84" id="VAL" d="m161 201 8 3c0-3.124 5.311-5.906 7.5-7l4-4c7.697-3.849 13.045-5 22.5-5l1-4-14-13c-5.137 0-9.322 6-12 6 0 6.946-2.428 16-11 16 0 2.623-4.646 6-7 6l1 2ZM287 204h1l1-1 6-2 1-2c0-2.539-7-1.513-7-6-7.896 0-10-8.092-10-15-1.695 0-7.17-7-13-7l-14 14c0 1.238.423 3 2 3h11.5c4.187 2.094 21.5 10.36 21.5 16Z"/><path fill="#FD8E9E" id="CM" d="M216 186c0-1.684 4.679-1 6-1 6.244 0 13.428 1 19 1l5-1c0-3.37-3-3.859-3-6l-8-5-4.5-2c-3.379-1.69-6.661 2-9.5 2-2.909 0-4.795 5-8 5l-3 6c1.564 0 3.876 1 6 1Z"/><path fill="#97D6F9" id="STR" d="m96 213 3 2c0-3.01 7.865-6 10-6l1-1 4-1c0-3.354 6.082 0 7 0v-1l-3-3h-1l-1-1c-4.63 0-12-22.48-12-27-1.251 0-1.536 4.427-1 5.5 1.494 2.989 5.74 14.521 4 18-3.065 6.131-16.952 2.5-21 2.5 0 5.228 10 6.498 10 12Z"/><path fill="#C7CACA" id="em" d="M321 176c-1.577 0-2 1.762-2 3 1.577 0 2-1.762 2-3Z"/><path fill="#97D6F9" id="STR" d="M357 215h2l2-2c0-6.063 10-7.366 10-12l-5.5 2c-2.122 1.061-15.34-2.18-16.5-4.5-.75-1.499 4-17.595 4-21.5-1.781 0-1.348 6.197-2 7.5-1.825 3.65-6.401 17.5-11 17.5l-1 1-3 2v1c1.045 0 6-1.245 6 1 1.622 0 5-.461 5 2 2.702 0 10 3.168 10 6Z"/><path fill="#C7CACA" id="em" d="m319 179-1 2 1-2ZM318 181c-1.712 0-3 2.571-3 4 1.712 0 3-2.571 3-4Z"/><path fill="#FF6F80" id="TH" d="M203 188v1l2.5-2H216v-1c-2.124 0-4.436-1-6-1-3.39 0-5.021-1-6-1l-1 4Z"/><path fill="#FF8E9E" id="RH" d="M232 196c-2.707 0-5.903 1-8 1 0-5.027-2.461-10-8-10v-1c0-1.684 4.679-1 6-1 6.244 0 13.428 1 19 1v1c-4.473 0-9 4.45-9 9Z"/><path fill="#FF6F80" id="TH" d="m254 188-1 1c0-3.274-9.698-2-12-2v-1l5-1h6c0 1.238.423 3 2 3Z"/><path fill="#C7CACA" id="em" d="m315 185-2 2c1.747 0 2-.253 2-2Z"/><path fill="#FD8E9F" id="SMT" d="M201 208c0-3.542 6.225-6.051 8-2.5 1.599 3.198 0 4.389 0 7.5 5.133 0 11.865-10 13-10l1-1 1-5c0-5.027-2.461-10-8-10h-10.5l-2.5 2c0 4.125-1.227 9.953-3 13.5-.536 1.073-.251 5.5 1 5.5ZM256 208l-5.5-5c-1.763-.882-3.5 2.789-3.5 4 0 3.015 2 6.004 2 8-5.64 0-9.585-10-14-10v-1l-1-1-2-7c0-4.55 4.527-9 9-9 2.302 0 12-1.274 12 2 0 6.248 3 13.234 3 19Z"/><path fill="#C7CACA" id="em" d="m313 187-6 6c2.473 0 6-3.527 6-6Z"/><path fill="#209766" id="AIp6a" d="M77 205c-4.691 0-7.12 4-9 4 0-7.475-7-12.424-7-19 4.01 0 8.3-2 12-2 0 1.858 2.188 12 4 12v5Z"/><path fill="#219666" id="AIp6b" d="M74 188c0 3.974 3 7.572 3 12-1.812 0-4-10.142-4-12h1Z"/><path fill="#FF7E84" id="VM" d="m205 216-1 1c-11.04 0-20.552-10-30-10l-1-1-3-1-1-1c0-3.124 5.311-5.906 7.5-7l4-4c7.697-3.849 13.045-5 22.5-5v1c0 4.125-1.227 9.953-3 13.5-.536 1.073-.251 5.5 1 5.5 0 2.361-.943 8 4 8ZM252 216v1c10.069 0 16.733-8 26-8l1-1h1l1-1 3-1 1-1 2-1c0-5.64-17.313-13.906-21.5-16H254l-1 1c0 6.248 3 13.234 3 19l-1 6.5-3 1.5Z"/><path fill="#219666" id="AIp6b" d="M383 188c0 1.774.273 7-2 7l1-7h1Z"/><path fill="#209766" id="AIp6a" d="M379 205c4.691 0 7.12 4 9 4 0-7.163 8-12.749 8-19-4.01 0-8.3-2-12-2h-1c0 1.774.273 7-2 7 0 1.623-.005 6-2 6v4Z"/><path fill="#219864" id="AIp5" d="M67 210c-1.564 0-3.876 1-6 1-6.988 0-15-13.857-15-20l14-1h1c0 6.576 7 11.525 7 19l-1 1ZM390 211h6c5.27 0 15-15.633 15-20l-15-1c0 6.251-8 11.837-8 19l2 2Z"/><path fill="#209865" id="AIp2/3" d="M61 211c0 .827-13.424 5-15 5 0-6.67-11-14.884-11-24 3.398 0 5.785-1 10-1h1c0 6.143 8.012 20 15 20ZM396 211c0 .546 12.706 5 14 5 0-4.897 11-14.476 11-24-3.285 0-5.717-1-10-1 0 4.367-9.73 20-15 20Z"/><path fill="#219765" id="AIp1" d="m46 216-4 2c-2.61 0-13-21.122-13-25l6-1c0 9.116 11 17.33 11 24ZM410 216l5 2c0-7.148 12-14.503 12-25l-5-1h-1c0 9.524-11 19.103-11 24Z"/><path fill="#97D6F9" id="STR" d="m77 193 1 1-1-1Z"/><path fill="#C7CACA" id="em" d="m307 193-2 2c1.747 0 2-.253 2-2Z"/><path fill="#97D6F9" id="STR" d="m379 194-1 1 1-1ZM79 200h1l1-1c0-1.429-1.288-4-3-4l1 5Z"/><path fill="#C7CACA" id="em" d="M305 195c-1.429 0-4 1.288-4 3 1.429 0 4-1.288 4-3Z"/><path fill="#97D6F9" id="STR" d="m378 195-1 2 1-2Z"/><path fill="#219666" id="AIp6b" d="M379 200v1c1.995 0 2-4.377 2-6-1.638 0-2 3.576-2 5Z"/><path fill="#FD909F" id="RE" d="M235 221h2l1-2c0-4.739-3-8.946-3-14v-1l-1-1-2-7c-2.707 0-5.903 1-8 1l-1 5-1 1c0 5.68-3 10.141-3 16l1 2h1l4 1c0-1.914-.091-19 3.5-19l1.5 4.5c1.824 3.649 2 9.174 2 13.5h3Z"/><path fill="#97D6F9" id="STR" d="m375 199 2 1v-3l-2 2Z"/><path fill="#8599CC" id="PAL" d="m124 200 2 2-3-4 1 2Z"/><path fill="#FF6F80" id="TH" d="m161 201-1 1c-1.457 0-1.46-3-4-3v-1l4 1 1 2ZM299 199h1v-1l-1 1Z"/><path fill="#C7CACA" id="em" d="m301 198-1 1v-1h1Z"/><path fill="#90EB8D" id="LA" d="m85 238 2 1c0-7.868-2.651-24 8-24l1-2c0-5.502-10-6.772-10-12l-5-2-1 1c0 11.299 5 25.228 5 37v1Z"/><path fill="#8499CC" id="GPi" d="M163 217c0 3.163.661 8-5 8-11.072 0-16.202-3.903-21-13.5-1.119-2.239-4.284-10.608-.5-12.5 3.471-1.735 26.5 11.853 26.5 18Z"/><path fill="#FF6F80" id="TH" d="M295 201h2l2-2h-3l-1 2Z"/><path fill="#8499CC" id="GPi" d="M293 217c0 3.982.585 8 5 8 12.676 0 17.07-5.641 22-15.5.618-1.235 2.485-9.508.5-10.5l-17 6-8.5 8c0 1.238-.423 3-2 3v1Z"/><path fill="#8599CC" id="PAL" d="M332 200h1v-1l-1 1Z"/><path fill="#90EB8D" id="LA" d="M369 241h1v-1l1-1v-1c0-1.296.825-7 2-7v-15.5c1.747-3.494 4-11.664 4-15.5l-2-1-4 2c0 4.634-10 5.937-10 12v2c12.168 0 8 18.105 8 26Z"/><path fill="#C8C9CB" id="amc" d="m83 235 2 2c0-11.772-5-25.701-5-37h-3v1c1.638 0 2 3.576 2 5 0 7.506 3 15.727 3 24 1.643 0 1 3.765 1 5Z"/><path fill="#A2B1D7" id="SI" d="m127 214 2 2 3.5 3c7.559 3.779.5-5.41.5-7v-1l-2-2v-1l-1-1c-.828 0-4-3.748-4-5l-2-2-3 2v5h1l1 1v1l2 2 1 1 1 2Z"/><path fill="#8599CC" id="PAL" d="m332 200-1 1 1-1Z"/><path fill="#A2B1D7" id="SI" d="m324 219-1 1c-4.273 0-2-2.687-2-5l1-2 1-1 1-1v-1l1-1 1-1 5-7 1-1h1l2 2 1 3-1 1v1l-1 1-1 1-2 3-1 1-1 1v1h-1l-1 1-1 1-1 1-1 1Z"/><path fill="#C8C9CB" id="amc" d="m375 227-2 4v-15.5c1.747-3.494 4-11.664 4-15.5h2v2l-2 4v1c0 6.405-2 12.817-2 20Z"/><path fill="#219666" id="AIp6b" d="m77 205 2 1c0-1.424-.362-5-2-5v4Z"/><path fill="#F0483B" id="ZI" d="M206 219c0 7.555-18.853 3-23 3-4.114 0-7.172-5-11-5l-4-3-4-4-6-5v-1l2-2 1-1 8 3 1 1 3 1 1 1c9.448 0 18.96 10 30 10l1 1 1 1ZM273 222h1l1-1c3.681 0 5.758-4 9-4l3-2 1-1 1-1h1l1-1 1-1 1-1 6-6c-1.577 0-2-1.762-2-3h-2l-6 2-1 1h-1l-2 1-1 1-3 1-1 1h-1l-1 1c-9.267 0-15.931 8-26 8l-2 2c0 7.555 18.853 3 23 3Z"/><path fill="#8599CC" id="PAL" d="m116 202 1 1-1-1ZM118 203l3 3v-4l-3 1Z"/><path fill="#FD909C" id="PR" d="m223 202-1 1 1-1Z"/><path fill="#8599CC" id="PAL" d="m339 203-3 2-1-3 4 1ZM340 202l-1 1 1-1Z"/><path fill="#219666" id="AIp6b" d="M377 206h1l1-1v-3l-2 4Z"/><path fill="#C7C9CC" id="mtt" d="M206 215h1l1-1 1-1c0-3.111 1.599-4.302 0-7.5-1.775-3.551-8-1.042-8 2.5 0 2.361-.943 8 4 8l1-1Z"/><path fill="#FD909C" id="PR" d="m219 219-2 2-10-2v-4l1-1 1-1c5.133 0 11.865-10 13-10 0 5.68-3 10.141-3 16Z"/><path fill="#FC8F9F" id="Xi" d="M232 221c0 3.59-5.706 1-7 1 0-1.914-.091-19 3.5-19l1.5 4.5c1.824 3.649 2 9.174 2 13.5Z"/><path fill="#FD909C" id="PR" d="m234 203 1 1-1-1Z"/><path fill="#C7C9CC" id="mtt" d="M251 216h1l3-1.5 1-6.5-5.5-5c-1.763-.882-3.5 2.789-3.5 4 0 3.015 2 6.004 2 8h1l1 1Z"/><path fill="#FF6F80" id="TH" d="m289 203-1 1 1-1Z"/><path fill="#8599CC" id="PAL" d="m300 203-1 1 1-1ZM158 204v1l-1-1h1Z"/><path fill="#FF6F80" id="TH" d="m169 204 1 1-1-1Z"/><path fill="#A0EE9C" id="EPd" d="M74 229c0 4.269 8 6.182 8 1 0-8.273-3-16.494-3-24l-2-1c-4.691 0-7.12 4-9 4 0 4.669 3.005 9.509 5 13.5.558 1.115 2.598 6.5 1 6.5Z"/><path fill="#7FC0E0" id="CEAm" fill-rule="evenodd" d="M126 218v4.5l1 3v3c1.198 2.397 3.224-10.5-1-10.5m5 28c-1.624 0-2.75 2-5 2l-7-3c0-2.443-7-7.168-7-11 1.548 0 5-3.343 5-5 0-2.706 5.881-22-3-22 0-3.354 6.082 0 7 0h1l1 1v1l2 2 1 1 1 2 2 5c0 8.652 2 17.503 2 27Z"/><path fill="#FD909C" id="PR" d="m249 219-10 2-1-2c0-4.739-3-8.946-3-14 4.415 0 8.36 10 14 10h1v1l-1 3Z"/><path fill="#FF6F80" id="TH" d="m285 205-1 1 1-1Z"/><path fill="#8599CC" id="PAL" d="M335 206h1v-1l-1 1Z"/><path fill="#7FC0E0" id="CEAm" d="M330 248h1l1-1c2.72 0 3.553-2 6-2l1-1c0-1.178 2.572-6 4-6l1-2 1-1v-1c-2.868 0-5-2.132-5-5-4.575 0-3.665-22 2-22 0-2.245-4.955-1-6-1l-1 1-1 1-1 1-2 3-1 1-1 1v1l-1 1-1 3v6l3.5-7c2.588 0-3.5 18.491-3.5 7-1.643 0-1 3.765-1 5v17l4 1Z"/><path fill="#A0EE9C" id="EPd" d="m382 231-1 1c-5.237 0-6 4.378-6-5 0-7.183 2-13.595 2-20l1-1 1-1c4.691 0 7.12 4 9 4 0 5.821-2.603 9.707-5 14.5-.472.945-.156 3.5 1 3.5v1h-1c0-2.029-1-.058-1 1v2Z"/><path fill="#FF6F80" id="TH" d="m173 206 1 1-1-1Z"/><path fill="#97D6F9" id="STR" d="m336 206-1 1v-1h1Z"/><path fill="#80BEE1" id="CEAl" d="M109 209c0 5.613-.064 20 8 20 0-2.706 5.881-22-3-22l-4 1-1 1Z"/><path fill="#8599CC" id="PAL" d="m122 207 1 1-1-1ZM130 207l1 1-1-1Z"/><path fill="#FF6F80" id="TH" d="m281 207-1 1 1-1Z"/><path fill="#97D6F9" id="STR" d="m335 207-1 1 1-1Z"/><path fill="#80BEE1" id="CEAl" d="M347 209c0 5.059.86 20-7 20-4.575 0-3.665-22 2-22 1.622 0 5-.461 5 2Z"/><path fill="#80BFE0" id="CEAc" d="m110 208-1 1 1-1Z"/><path fill="#FF6F80" id="TH" d="m279 208-1 1 1-1Z"/><path fill="#8599CC" id="PAL" d="m326 208-1 1 1-1Z"/><path fill="#97D6F9" id="STR" d="m334 208-1 1 1-1Z"/><path fill="#C9C8CA" id="ee" d="M73 229h1c1.598 0-.442-5.385-1-6.5-1.995-3.991-5-8.831-5-13.5l-1 1 1 7 1 1v2l2 3v2l1 1 1 2v1Z"/><path fill="#80BFE0" id="CEAc" d="M111 234h1c1.548 0 5-3.343 5-5-8.064 0-8-14.387-8-20-2.135 0-10 2.99-10 6 0 2.883 10 10.553 10 15l2 4Z"/><path fill="#97D6F9" id="STR" d="m123 209 2 2-2-2Z"/><path fill="#8599CC" id="PAL" d="m131 209 2 2-2-2Z"/><path fill="#CCCACB" id="nst" d="M170 218c0 2.16 2 4.167 2 7-5.164 0-4.172-9-8-9 0-.458-4.634-7-2.5-7l2.5 2 6 7ZM295 209c0 1.93 1.93 0 0 0Z"/><path fill="#8599CC" id="PAL" d="m325 209-1 1 1-1Z"/><path fill="#80BFE0" id="CEAc" d="m347 231-2 3c-2.868 0-5-2.132-5-5 7.86 0 7-14.941 7-20 2.702 0 10 3.168 10 6v1l-1 1-1 1v1c-1.747 0-2 .253-2 2l-1 2c-2.177 0-4 4.336-4 6l-1 2Z"/><path fill="#C9C8CA" id="ee" d="m385 225-1 2c-1.156 0-1.472-2.555-1-3.5 2.397-4.793 5-8.679 5-14.5l2 2-2 7-1 1v2l-1 2-1 2Z"/><path fill="#6ACAB9" id="PIR" d="m95 276-8.5 15-3.5 4c-2.794 0-11.767-15.034-13-17.5-3.825-7.65-9.204-14.409-13-22-3.12-6.24-3.903-13.807-7-20L42 218l4-2c1.576 0 15-4.173 15-5 2.124 0 4.436-1 6-1l1 7 1 1v2l1 3 1 2v1l2 2v1c0 1.351 4.625 9 6 9 0 10.902 16 23.802 16 34v4Z"/><path fill="#8599CC" id="PAL" d="M170 217v1l-6-7v-1l4 4 2 3Z"/><path fill="#CCC" d="m293 210-1 1 1-1Z"/><path fill="#CCCACB" id="nst" d="M287 218c0 1.834-2 3.838-2 7 3.926 0 3.614-8 7-8l1-1c0-1.238.423-3 2-3 0-2.003.293-3-2-3l-1 1-1 1-1 1c0 1.429-1.288 4-3 4v1Z"/><path fill="#8599CC" id="PAL" d="m125 211 1 1-1-1ZM324 211l-1 1 1-1Z"/><path fill="#6ACAB9" id="PIR" d="M361 276c1.659 0 10.015 19 12 19 4.37 0 10.4-12.3 12-15.5 4.373-8.745 10.675-16.35 15-25l7-20c1.239-2.477 8-14.711 8-16.5l-5-2c-1.294 0-14-4.454-14-5h-6l-2 7-1 1v2l-1 2-1 2v2l-1 1-1 1-1 2-1 1-3 6-17 34v4Z"/><path fill="#8599CC" id="PAL" d="m157 237 3 1c0-4.861 12-.8 12-13-5.164 0-4.172-9-8-9l-1 1c0 3.163.661 8-5 8 0 15.322-16.887-6.193-20.5-8l-4.5-5c0 1.59 7.059 10.779-.5 7l-3.5-3 2 3 8 7c0-6.6 12.193 8 14 8 0-2.153 4 1.962 4 3ZM291 212l-1 1 1-1ZM323 212l-1 1 1-1Z"/><path fill="#97D6F9" id="STR" d="m331 212-1 1 1-1Z"/><path fill="#C8CBCC" id="ec" d="M99 215c0 2.883 10 10.553 10 15-3.474 0-6.708-15-14-15l1-2 3 2Z"/><path fill="#FD8E9F" id="SMT" d="m209 213-1 1 1-1Z"/><path fill="#E64438" id="HY" d="m289 213-1 1 1-1Z"/><path fill="#8599CC" id="PAL" d="M287 215v2c1.712 0 3-2.571 3-4h-1l-1 1-1 1Z"/><path fill="#CCC" d="M295 213c-1.577 0-2 1.762-2 3 1.577 0 2-1.762 2-3Z"/><path fill="#8599CC" id="PAL" d="m322 213-1 2 1-2Z"/><path fill="#97D6F9" id="STR" d="m330 213-1 1 1-1Z"/><path fill="#C8CBCC" id="ec" d="M359 215h2v-2l-2 2Z"/><path fill="#97D6F9" id="STR" d="M129 219h2l-2-3-2-2 2 5Z"/><path fill="#E64438" id="HY" d="M170 217h2l-4-3 2 3Z"/><path fill="#FD8E9F" id="SMT" d="m208 214-1 1 1-1Z"/><path fill="#E64438" id="HY" d="m288 214-1 1 1-1Z"/><path fill="#9DE79B" id="BLAa" d="M101 256h2c0-1.473 1.952-1 3-1l1-1 6-8 1-1v-3l-3-8-2-4c-3.474 0-6.708-15-14-15-10.651 0-8 16.132-8 24v4c1.577 0 2 1.762 2 3v1l1 1 1 2 2 2v1l3 1 1 1h1l3 1Z"/><path fill="#FF7E84" id="VM" d="M205 216h1v-1l-1 1Z"/><path fill="#FD8E9F" id="SMT" d="M206 216h1v-1h-1v1Z"/><path fill="#FF7E84" id="VM" d="M250 216h1l-1-1v1Z"/><path fill="#E64438" id="HY" d="M286 217h1v-2l-3 2h2Z"/><path fill="#8599CC" id="PAL" d="M299 237h1l1-1c0-1.186 1-1.186 1 0l1-1 2.5-3c1.77-1.77 12.5-11.67 12.5-6l5-6c-4.273 0-2-2.687-2-5-4.229 0-23 28.34-23 10-4.415 0-5-4.018-5-8h-1c-3.386 0-3.074 8-7 8-2.481 0 .065 7.283 1.5 8 2.67 1.335 9.5 1.063 9.5 5l3-1ZM327 216h1v-1l-1 1Z"/><path fill="#97D6F9" id="STR" d="m329 215-1 1v-1h1Z"/><path fill="#C8CBCC" id="ec" d="m359 215-2 1v-1h2Z"/><path fill="#9DE79B" id="BLAa" d="M353 256h3c0-1.473 1.952-1 3-1h1c0-1.577 1.762-2 3-2l1-1 1-1v-1l1-1 1-1v-1l1-2 1-2v-2c0-7.895 4.168-26-8-26h-2l-2 1-1 1-1 1v1l-2 2-1 2c0 1.664-1.823 6-4 6l-1 2-2 3v1l-1 1-1 2v8l7 9c1.048 0 3-.473 3 1Z"/><path fill="#FF6F80" id="TH" d="M206 219h1v-3h-2l-1 1 1 1 1 1ZM249 219h1l2-2v-1h-2l-1 3Z"/><path fill="#CCC" d="M292 217h1v-1l-1 1Z"/><path fill="#97D6F9" id="STR" d="M325 219h2l1-3h-1l-1 1-1 1v1Z"/><path fill="#C8CBCC" id="ec" d="m357 216-1 1 1-1Z"/><path fill="#A0EE9C" id="EPd" d="m68 217 1 1-1-1Z"/><path fill="#F2483A" id="LHA" d="m173 260 4 1 6-3 1-1c0-5.766-1.169-14 8-14 3.058 0-.47-11.44-1-12.5l-8-8.5c-4.114 0-7.172-5-11-5h-2v1c0 2.16 2 4.167 2 7 0 12.2-12 8.139-12 13 0 6.532 13 17.178 13 22ZM279 261h1l3-1 1-1 5-6 1-2 1-1v-1l1-1 1-2c0-1.238.423-3 2-3v-1l1-4c0-3.937-6.83-3.665-9.5-5-1.435-.717-3.981-8-1.5-8 0-3.162 2-5.166 2-7l-1-1h-2c-3.242 0-5.319 4-9 4l-1 1h-1l-6 6.5c-2.463 4.925-3 8.454-3 14.5 8.218 0 9 6.38 9 14v1l5 2 1 1Z"/><path fill="#8599CC" id="PAL" d="M287 217v1l-1-1h1ZM326 217l-1 1 1-1Z"/><path fill="#C8CBCC" id="ec" d="m356 217-1 1 1-1Z"/><path fill="#C7CAC8" id="stc" d="M126 218v4.5l1 3v3c1.198 2.397 3.224-10.5-1-10.5Z"/><path fill="#8599CC" id="PAL" d="M324 219h1v-1l-1 1Z"/><path fill="#C7CAC8" id="stc" d="M327 225c0 11.491 6.088-7 3.5-7l-3.5 7Z"/><path fill="#A0EE9C" id="EPd" d="m388 218-1 1 1-1Z"/><path fill="#80BFE1" id="MEA" d="M138 288h1c2.22 0 19.216-11.932 20-13.5 1.555-3.109 1-7.768 1-11.5l-1-3c0-9.591-20-26.787-20-34l-8-7h-2c0 8.652 2 17.503 2 27v27c0 4.394 7 12.271 7 15Z"/><path fill="#E64438" id="HY" d="M273 258c-5.177 0-11.007 17-13 17 0-3.459.437-7.627-1-10.5-2.22-4.441-15.769-15.366-21.5-12.5l-5.5 5v-9c6.528 0 14.183 2.159 20.5-1 2.49-1.245 2.634-8.683 0-10-6.532-3.266-13.75-4-20.5-4 0-3.982-3-4.727-3 0h-1c0-4.69-4-4.151-4 0-6.689 0-13.998.749-20.5 4-3.654 1.827-.833 9.584 2 11 5.249 2.624 13.321 0 18.5 0v8l-5.5-4c-6.764-3.382-18.872 8.244-21.5 13.5-1.774 3.549 0 7.255 0 10.5-2.741 0-7.881-18-14-18l1-1 3-1c0 7.484 10.002-7 5-7v-6c3.058 0-.47-11.44-1-12.5l-8-8.5c4.147 0 23 4.555 23-3h1l10 2h4c0 4.78 14 6.303 14 0h4l10-2h1c0 7.555 18.853 3 23 3l-6 6.5c-2.463 4.925-3 8.454-3 14.5v6c0 7.857 6 11.68 6 7l3 1v1Z"/><path fill="#FF6F80" id="TH" d="M217 221h3l-1-2-2 2ZM237 221h2l-1-2-1 2Z"/><path fill="#8599CC" id="PAL" d="m324 219-1 1 1-1Z"/><path fill="#80BFE1" id="MEA" d="M317 288h2c0-4.9 6-9.47 6-15l1-2v-41c0-1.235-.643-5 1-5v-6h-3l-1 1-5 6-7 9.5c-3.661 7.323-14 17.051-14 25.5v12.5c1.384 2.769 17.782 14.5 20 14.5Z"/><path fill="#C8CBCC" id="ec" d="M355 219c-1.747 0-2 .253-2 2l2-2Z"/><path fill="#A0EE9C" id="EPd" d="M70 223h1l-2-3 1 3Z"/><path fill="#FF6F80" id="TH" d="M232 221h3c0 6.303-14 4.78-14 0l4 1c1.294 0 7 2.59 7-1Z"/><path fill="#E64438" id="HY" d="m275 221-1 1 1-1Z"/><path fill="#C8CBCC" id="ec" d="m353 221-1 2 1-2Z"/><path fill="#A0EE9C" id="EPd" d="m387 221-1 2 1-2Z"/><path fill="#8AD987" id="CTXsp" d="M71 223v2l-1-2h1Z"/><path fill="#C8CBCC" id="ec" d="M352 223c-2.177 0-4 4.336-4 6 2.177 0 4-4.336 4-6Z"/><path fill="#A0EE9C" id="EPd" d="m386 223-1 2 1-2Z"/><path fill="#CACCCB" id="opt" d="M154 236c0 3.311 18.639 23.431 11.5 27-3.86 1.93-4.161-3-6.5-3 0-9.591-20-26.787-20-34 0-6.6 12.193 8 14 8v1l1 1ZM297 261l-1 1c-9.647 0-5 .656-5-8l1-2 1-2c1.577 0 2-1.762 2-3l1-2 1-2c1.803 0 3-3.592 3-5l1-1 1-1 1-1 2.5-3c1.77-1.77 12.5-11.67 12.5-6l-7 9.5c-3.661 7.323-14 17.051-14 25.5Z"/><path fill="#A0EE9C" id="EPd" d="M71 226h1l-1-1v1ZM384 227h1v-2l-1 2Z"/><path fill="#8AD987" id="CTXsp" d="m72 226 1 2-2-2h1ZM373 235c2.554 0 3.688 3 5 3l3-6c-5.237 0-6 4.378-6-5l-2 4v4Z"/><path fill="#C9C8CA" id="ee" d="M382 229h1v-1c0-2.029-1-.058-1 1Z"/><path fill="#8AD987" id="CTXsp" d="m385 227-1 1v-1h1ZM384 228l-1 1v-1h1ZM83 235c-1.429 0-4 1.288-4 3-1.375 0-6-7.649-6-9h1c0 4.269 8 6.182 8 1 1.643 0 1 3.765 1 5Z"/><path fill="#FD5D50" id="PVi" d="M224 272h3v-30c0-1.574-.751-9 1-9 0-4.69-4-4.151-4 0v39ZM229 271l3 1v-39c0-3.982-3-4.727-3 0v38Z"/><path fill="#C8CBCC" id="ec" d="m348 229-1 2 1-2Z"/><path fill="#8AD987" id="CTXsp" d="m383 229-1 2v-2h1Z"/><path fill="#C8C9CB" id="amc" d="m373 235-2 3c0-1.296.825-7 2-7v4Z"/><path fill="#8AD987" id="CTXsp" d="m382 231-1 1 1-1Z"/><path fill="#FE5445" id="DMH" d="M224 233c-6.689 0-13.998.749-20.5 4-3.654 1.827-.833 9.584 2 11 5.249 2.624 13.321 0 18.5 0v-15ZM232 233c6.75 0 13.968.734 20.5 4 2.634 1.317 2.49 8.755 0 10-6.317 3.159-13.972 1-20.5 1v-15Z"/><path fill="#CCCAC9" id="sup" d="m155 236 2 1c0-1.038-4-5.153-4-3v1l2 1Z"/><path fill="#A8A9AA" id="V3" d="m229 271-.5 18c-1.689 0-1.5-3.011-1.5-4v-43c0-1.574-.751-9 1-9h1v38Z"/><path fill="#97D6F9" id="STR" d="M117 245h2c0-2.443-7-7.168-7-11h-1l3 8 3 3Z"/><path fill="#A0ED9D" id="EPv" d="M96 272h1v-14l-1-2-3-3v-1l-2-2-1-2-1-1v-1c-1.577 0-2-1.762-2-3v-2l-2-3v-1l-2-2c-1.429 0-4 1.288-4 3 0 10.902 16 23.802 16 34h1Z"/><path fill="#8599CC" id="PAL" d="M154 236h1l-2-1 1 1Z"/><path fill="#CCCAC9" id="sup" d="M301 236h1c0-1.186-1-1.186-1 0Z"/><path fill="#97D6F9" id="STR" d="m345 235-1 1 1-1Z"/><path fill="#A0ED9D" id="EPv" d="M360 272h1l17-34c-1.312 0-2.446-3-5-3l-2 3v1l-1 1v1l-1 1v1l-1 2-1 2v1l-1 1-1 1v1l-1 1-1 1-2 2-1 1-1 2v14h1Z"/><path fill="#CAC7CB" id="fiber tracts" fill-rule="evenodd" d="M157 238c0 3.781 3.781 0 0 0m20 28 1 4c-2.67 0-15.46-7-18-7l-1-3c2.339 0 2.64 4.93 6.5 3 7.139-3.569-11.5-23.689-11.5-27h1l2 1 3 1c0 6.532 13 17.178 13 22l2 3c-3.937 0-13.975-22-15.5-22-.854 0 4.045 7.589 4.5 8.5 2.335 4.67 6.628 14.5 11 14.5h1v1l1 1Z"/><path fill="#CCCAC9" id="sup" d="M300 237h1v-1l-1 1Z"/><path fill="#CAC7CB" id="fiber tracts" d="m302 236-1 1v-1h1Z"/><path fill="#97D6F9" id="STR" d="m344 236-1 2 1-2Z"/><path fill="#CAC7CB" id="fiber tracts" fill-rule="evenodd" d="M297 239c0 3.746 2.091 0 0 0m1-1c0 1.93 1.93 0 0 0m-3 4c1.577 0 2-1.729 2 1 1.803 0 3-3.592 3-5l-1-1-3 1-1 4Z"/><path fill="#CCCAC9" id="sup" d="M300 237v1l-1-1h1Z"/><path fill="#CAC7CB" id="fiber tracts" d="m301 237-1 1v-1h1Z"/><path fill="#C8C9CB" id="amc" d="M87 239v2l-2-3 2 1Z"/><path fill="#CCCAC9" id="sup" d="M157 238c0 3.781 3.781 0 0 0ZM298 238c0 1.93 1.93 0 0 0Z"/><path fill="#97D6F9" id="STR" d="m343 242-4 2c0-1.178 2.572-6 4-6v4Z"/><path fill="#CCCAC9" id="sup" d="M297 239c0 3.746 2.091 0 0 0Z"/><path fill="#C8C9CB" id="amc" d="m371 239-1 1 1-1Z"/><path fill="#CCCAC9" id="sup" d="M175 263c-3.937 0-13.975-22-15.5-22-.854 0 4.045 7.589 4.5 8.5 2.335 4.67 6.628 14.5 11 14.5v-1ZM297 243l-1 2-1-2v-1c1.577 0 2-1.729 2 1Z"/><path fill="#C8C9CB" id="amc" d="m370 241-1 1v-1h1Z"/><path fill="#8AD987" id="CTXsp" d="M114 245h3l-3-3v3ZM339 245l4 1v-4l-4 2v1Z"/><path fill="#C8C9CB" id="amc" d="M87 243c1.577 0 2 1.762 2 3-1.577 0-2-1.762-2-3Z"/><path fill="#F2463A" id="PeF" d="m187 256-3 1c0-5.766-1.169-14 8-14v6c-4.333 0-5 2.936-5 7ZM270 256l3 1c0-7.62-.782-14-9-14v6c3.897 0 6 3.442 6 7Z"/><path fill="#CAC7CB" id="fiber tracts" d="M293 246c1.577 0 2-1.729 2 1l1-2-1-2c-1.577 0-2 1.762-2 3ZM297 243l-1 2 1-2Z"/><path fill="#C8C9CB" id="amc" d="m369 243-1 2 1-2Z"/><path fill="#97D6F9" id="STR" d="M338 245h1v-1l-1 1Z"/><path fill="#8AD987" id="CTXsp" d="m114 245-1 1 1-1Z"/><path fill="#84EA80" id="BMAa" d="M111 278h3c5.876 0 9.507-6 15-6l2-2v-17l-5-5-7-3h-5l-1 1-6 8-1 1v2c0 6.597 3 13.498 3 20l2 1Z"/><path fill="#CCCAC9" id="sup" d="M293 246c1.577 0 2-1.729 2 1-1.577 0-2 1.729-2-1Z"/><path fill="#84EA80" id="BMAa" d="M343 278h3l1-1c0-5.887 3-12.661 3-19v-3l-7-9-4-1h-1c-2.447 0-3.28 2-6 2l-1 1h-1l-4 4v19l1 1c5.646 0 9.891 6 16 6Z"/><path fill="#C8C9CB" id="amc" d="m368 245-1 2 1-2Z"/><path fill="#97D6F9" id="STR" d="m126 248 5 5v-7c-1.624 0-2.75 2-5 2Z"/><path fill="#CAC7CB" id="fiber tracts" d="m292 248 1 2c1.577 0 2-1.762 2-3-1.577 0-2 1.729-2-1l-1 2Z"/><path fill="#C8C9CB" id="amc" d="m89 247 1 1-1-1Z"/><path fill="#97D6F9" id="STR" d="m330 248-4 4v-5l4 1ZM332 247l-1 1 1-1Z"/><path fill="#CAC7CB" id="fiber tracts" d="m292 248-1 1 1-1Z"/><path fill="#CCCAC9" id="sup" d="M289 253c0 2.729.423 1 2 1l1-2 1-2-1-2-1 1v1l-1 1-1 2Z"/><path fill="#C8C9CB" id="amc" d="m367 248-1 1 1-1Z"/><path fill="#C7C8CA" id="fx" d="M192 249c5.002 0-5 14.484-5 7 0-4.064.667-7 5-7ZM264 249c3.897 0 6 3.442 6 7 0 4.68-6 .857-6-7Z"/><path fill="#C8C9CB" id="amc" d="m366 249-1 1 1-1ZM91 250l2 2-2-2Z"/><path fill="#CAC7CB" id="fiber tracts" d="m291 250-1 1 1-1ZM293 250l-1 2 1-2ZM290 251l-1 2 1-2Z"/><path fill="#C8C9CB" id="amc" d="m365 251-1 1 1-1Z"/><path fill="#FF4A3D" id="VMH" d="M216 281c-3.157 0-5.481 2-9 2-3.25 0-10-2.935-10-7 0-3.245-1.774-6.951 0-10.5 2.628-5.256 14.736-16.882 21.5-13.5l5.5 4v15l-8 10ZM250 283h1l1-1c2.837 0 8-3.91 8-7 0-3.459.437-7.627-1-10.5-2.22-4.441-15.769-15.366-21.5-12.5l-5.5 5v13l4 6.5c4.326 4.326 7.914 6.5 14 6.5Z"/><path fill="#CAC7CB" id="fiber tracts" d="m292 252-1 2 1-2Z"/><path fill="#C8C9CB" id="amc" d="m364 252-1 1 1-1ZM98 257h1l-1-2h-1l-1-1-3-1 3 3 2 1Z"/><path fill="#CAC7CB" id="fiber tracts" fill-rule="evenodd" d="M288 255c0 5.512.634 0 0 0m-8 10-1 4c3.224 0 17-3.516 17-7-9.647 0-5 .656-5-8-1.577 0-2 1.729-2-1l-5 6v1l2.5-2c1.252 0-4.5 10.707-4.5 5l-2 2Z"/><path fill="#C8C9CB" id="amc" d="M360 255h1l2-2c-1.238 0-3 .423-3 2Z"/><path fill="#8AD987" id="CTXsp" d="m96 254 1 1-1-1ZM107 254l-1 1 1-1ZM101 256l-2 1-1-2 3 1ZM103 256l3 1v-2c-1.048 0-3-.473-3 1Z"/><path fill="#CCCAC9" id="sup" d="M288 255c0 5.512.634 0 0 0Z"/><path fill="#8AD987" id="CTXsp" d="m353 256-3 2v-3c1.048 0 3-.473 3 1ZM358 257l1 1 1-2-1-1c-1.048 0-3-.473-3 1l1 1c0-2.373 3.336 0 1 0Z"/><path fill="#C8C9CB" id="amc" d="M360 255v1l-1-1h1Z"/><path fill="#8AD987" id="CTXsp" d="m361 255-1 1v-1h1ZM98 257l-1 1-1-2 2 1Z"/><path fill="#9CE79C" id="BLAv" d="M105 279h3l1-1v-1c0-6.502-3-13.403-3-20l-3-1h-2l-2 1h-1l-1 1v14l1 2 1 2 6 3ZM349 279h2c1.643 0 6-1.338 6-3l2-3v-15l-1-1h-1l-1-1h-3l-3 2c0 6.339-3 13.113-3 19l2 2Z"/><path fill="#C8C9CB" id="amc" d="M357 257h1c2.336 0-1-2.373-1 0Z"/><path fill="#F24839" id="TU" d="M207 289v2c-12.001 0-20.706-5.913-26-16.5l-3-4.5-1-4-1-1v-1l1-3 6-3c6.119 0 11.259 18 14 18 0 4.065 6.75 7 10 7l1 3-1 3ZM249 290v1c13.411 0 21.5-6.5 27-17.5l3-4.5 1-4v-4h-1l-1-1-5-2c-5.177 0-11.007 17-13 17 0 3.09-5.163 7-8 7l-1 1h-1l-2 3 1 4Z"/><path fill="#CCCAC9" id="sup" d="m283 261-1 2c0 5.707 5.752-5 4.5-5l-2.5 2-1 1Z"/><path fill="#E64438" id="HY" d="M283 260h1v-1l-1 1ZM175 264h1l1-3-4-1 2 3v1ZM278 260l1 1-1-1ZM282 263l-2 2v-4l3-1v1l-1 2Z"/><path fill="#CAC7CB" id="fiber tracts" d="m284 260-1 1v-1h1ZM283 261l-1 2 1-2ZM296 262h1v-1l-1 1Z"/><path fill="#E64438" id="HY" d="m176 265 1 1-1-1Z"/><path fill="#99D2BD" id="OLF" d="m129 272 2 1v-3l-2 2Z"/><path fill="#E64438" id="HY" d="m250 283-2 3c-3.279 0-16-10.445-16-14v-2l4 6.5c4.326 4.326 7.914 6.5 14 6.5ZM224 272c0 3.054-4.64 9-8 9l8-10v1Z"/><path fill="#FF5B4F" id="ARH" d="M240 291h8l1-1-1-4c-3.279 0-16-10.445-16-14l-3-1-.5 18c-1.689 0-1.5-3.011-1.5-4v-13h-3c0 3.054-4.64 9-8 9 0 1.155-6.844 5-8 5l-1 3 1 2h9c0-1.068 8.839 0 11 0 0-1.186 1-1.186 1 0 2.108 0 10-.716 10 0h1Z"/><path fill="#99D2BD" id="OLF" d="m327 272-2 1 1-2 1 1ZM95 276h4l-1-2-2-2h-1v4Z"/><path fill="#8AD987" id="CTXsp" d="m97 272 1 2-2-2h1Z"/><path fill="#60E5B7" id="COAa" d="m116 296 3 1c4.657 0 10.47-3.985 14.5-6l3.5-2 1-1c0-2.729-7-10.606-7-15l-2-1c-5.493 0-9.124 6-15 6 0 .956-2 3.596-2 8v1l1 1v1l1 1v1l1 1 1 4ZM336 297h2l2-1 1-3 1-1v-1l1-1v-1l1-2 1-2v-1c0-2.518-2-4.286-2-6-6.109 0-10.354-6-16-6l-2 1c0 5.53-6 10.1-6 15v1c3.427 0 10.959 7 16 7l1 1Z"/><path fill="#8AD987" id="CTXsp" d="m360 272-1 1v-1h1Z"/><path fill="#99D2BD" id="OLF" d="M357 276h4v-4h-1l-1 1-2 3Z"/><path fill="#59D9AA" id="PAA" d="m111 300-1 1c-4.362 0-27 .849-27-6l3.5-4 8.5-15h4l6 3 4 5c0 5.348 2 10.12 2 16ZM345 299l1 2c4.447 0 27 1.353 27-6-1.985 0-10.341-19-12-19h-4c0 1.662-4.357 3-6 3l-4 5-2 15Z"/><path fill="#8AD987" id="CTXsp" d="M109 278h2l-2-1v1ZM346 278l3 1-2-2-1 1ZM109 278l-1 1 1-1Z"/><path fill="#99D2BD" id="OLF" d="M109 284c2.215 0 1.519 2 3 2 0-4.404 2-7.044 2-8h-5l-1 1h-3l4 5ZM345 284c.839 0 2-1.93 2 0l4-5h-2l-3-1h-3c0 1.714 2 3.482 2 6Z"/><path fill="#E64438" id="HY" d="m207 283 1 3c1.156 0 8-3.845 8-5-3.157 0-5.481 2-9 2ZM252 282l-1 1 1-1Z"/><path fill="#5FE6B7" id="COApl" d="M343 300h1l1-1 2-15c0-1.93-1.161 0-2 0v1l-1 2-1 2v1l-1 1v1l-1 1-1 3 1 3h1l1 1ZM112 300h1l1-1h1l1-3-1-4-1-1v-1l-1-1v-1l-1-1v-1c-1.481 0-.785-2-3-2 0 5.348 2 10.12 2 16h1Z"/><path fill="#99D2BD" id="OLF" d="m345 285-1 2 1-2ZM112 287l1 1-1-1ZM344 287l-1 2 1-2ZM139 288l-2 1 1-1h1ZM319 288v1l-2-1h2ZM113 289l1 1-1-1Z"/><path fill="#E64438" id="HY" d="M207 291h1l-1-2v2Z"/><path fill="#F1473A" id="ME" d="M239 291v1c-7.53 0-5.06 8.22-19.5 1l-2.5-2c0-1.068 8.839 0 11 0h1c2.108 0 10-.716 10 0Z"/><path fill="#E64438" id="HY" d="M228 291h1c0-1.186-1-1.186-1 0ZM248 291h1v-1l-1 1Z"/><path fill="#99D2BD" id="OLF" d="m343 290-1 1 1-1ZM114 291l1 1-1-1Z"/><path fill="#E64438" id="HY" d="m240 291-1 1v-1h1Z"/><path fill="#99D2BD" id="OLF" d="m342 292-1 1 1-1ZM119 297l-4 2 1-3 3 1ZM335 296l1 1-1-1ZM338 297c0 1.577 1.762 2 3 2l-1-3-2 1ZM114 299l-1 1 1-1ZM342 299l1 1-1-1ZM344 300l2 1-1-2-1 1ZM112 300l-2 1 1-1h1Z"/></svg>