<svg xmlns="http://www.w3.org/2000/svg" viewBox="0 0 456 320"><path fill="#FCFB90" id="CUL4, 5" fill-rule="evenodd" d="M161 104c0 9.211 2.105 0 0 0m69-54c0 6.302 12.125 0 0 0m-9 0c0 6.43 10.676 0 2.5 0H221m74 77c0-2.723 1-5.778 1-9 0-3.08-.631-8.762-2-11.5l.5-3.5.5 3.5c1.563 3.126 2 6.188 2 10 0 9.355 4.157 24.5 16 24.5 0-19.79-3.879-45.259-12-61.5-2.341-4.682-13-18.367-13-22.5-4.985 0-10.856-9.678-15.5-12-15.249-7.624-28.859-9-47.5-9h-16.5c-3.627 1.813-8.383 1.191-12 3-6.431 3.215-12.586 6.793-19 10-3.216 1.608-4.636 8-9.5 8 0 3.88-10.689 19.878-13 24.5-8.43 16.86-12 39.369-12 59.5 8.265 0 16-10.183 16-18 0-3.618-.509-7.482 1-10.5l.5-3.5.5 18c7.573 0 15.171-25.842 18-31.5 5.647-11.294 19.841-16.67 29.5-21.5 3.496-1.748 8.461-.23 12-2 3.046-1.523 13.421-.29 16 1 3.78 1.89 12.326.663 17 3 11.263 5.631 21.763 15.025 27.5 26.5 2.656 5.312 6.442 24.5 14 24.5Z"/><path fill="#FDFB8F" id="SIM" d="m123 132 6-17.5c4.7-9.399 4.26-21.52 9-31 1.473-2.945.382-16.5 6.5-16.5 1.08 0-2.111 6.722-2.5 7.5l-3 11c-1.678 3.356-.298 8.595-2 12-4.889 9.778-13.724 43.5 6 43.5 0-20.131 3.57-42.64 12-59.5 2.311-4.622 13-20.62 13-24.5 0-5.922-10.92-10.79-16.5-8-8.743 4.372-38.5 11.684-38.5 25 0 1.176 3.249 13.999 4 15.5.667 1.334-1.269 9.537-2 11-2.624 5.247 2 13.13 2 18 0 1.861 4.859 13.5 6 13.5ZM334 132c-2.847 0-3.887-13.274-5-15.5-5.562-11.125-5.472-24.944-11-36-1.593-3.186-.531-13.5-6.5-13.5-.905 0 3.049 7.597 3.5 8.5 2.058 4.116.92 9.84 3 14l3 14c5.367 10.733 10.396 37.5-8 37.5 0-19.79-3.879-45.259-12-61.5-2.341-4.682-13-18.367-13-22.5 0-5.758 10.992-10.754 16.5-8 12.839 6.42 29.99 7.48 37.5 22.5l2 2.5c-4.852 0-3 22.132-3 25.5 0 6.889.877 16.247-2 22-1.644 3.289-5 6.59-5 10.5Z"/><path fill="#CBC9CC" id="arb" d="M221 50c0 6.43 10.676 0 2.5 0H221ZM230 50c0 6.302 12.125 0 0 0Z"/><path fill="#CBC9CC" id="arb" fill-rule="evenodd" d="M327 155c0 1.798-11.027 5.447-9 9.5l5 5c0 1.959-3.259 4.482-2 7l5 5c2.099 2.099 7.244 8.128 10.5 6.5 5.117-2.559 4.628-33-9.5-33m-206 38-2 1v-4c0-1.22-3.492-1.504-4.5-1-5.193 2.597-6.762 6.381-12 9-2.267 1.134-4.358 4.179-6 5-4.084 2.042-15.218 3.935-17.5 8.5-1.972 3.945-3.738 9.476-6 14l-.5 8.5c-1.978 0-1.5-7.536-1.5-9 0-7.472-1.378-18.061 6.5-22l19-6c4.353-2.176 4.637-8.319 8-10 2.135-1.068 9.5-.912 9.5-5 2.376 0 .61-10.279 0-11.5-3.54-7.079-8.766-7.5-15-7.5l-15 2c0-.496 8.025-4 9-4 5.472 0 17.688-8.123 14-15.5-1.834-3.668-6.859-6.718-9-11l-4-12c-.718-1.437-6-7.916-6-9l6.5-13.5.5 3.5c-1.738 3.476-2 6.239-2 10.5 0 5.974 5.433 13.367 8 18.5 3.735 7.47 12.785 15.429 18 5 .604-1.207 4-3.339 4-5.5l6-17.5c4.7-9.399 4.26-21.52 9-31 1.473-2.945.382-16.5 6.5-16.5 1.08 0-2.111 6.722-2.5 7.5l-3 11c-1.678 3.356-.298 8.595-2 12-4.889 9.778-13.724 43.5 6 43.5 8.265 0 16-10.183 16-18 0-3.618-.509-7.482 1-10.5l.5-3.5.5 18c0 6.438 11.098 3.201 13.5 2 6.595-3.298 9.148-14.074 17-18h4c5.286-2.643 10.812-4.406 16-7h10l6.5-2c11.286 0 22.98 4.24 32.5 9l6 1c6.587 3.294 9.495 14.248 15 17 3.023 1.512 13.5 4.349 13.5-2 0-2.723 1-5.778 1-9 0-3.08-.631-8.762-2-11.5l.5-3.5.5 3.5c1.563 3.126 2 6.188 2 10 0 9.355 4.157 24.5 16 24.5 18.396 0 13.367-26.767 8-37.5l-3-14c-2.08-4.16-.942-9.884-3-14-.451-.903-4.405-8.5-3.5-8.5 5.969 0 4.907 10.314 6.5 13.5 5.528 11.056 5.438 24.875 11 36 1.113 2.226 2.153 15.5 5 15.5 0 3.935 7.692 13.404 12.5 11 4.067-2.033 11.301-14.102 13.5-18.5 2.857-5.715 3-11.066 3-17 0-.753-3.283-8.5-1.5-8.5l1.5 3.5c1.118 2.236 6.312 9.377 5 12l-4 4c-3.172 6.343-4.781 13.562-8 20l-7 7c-3.481 6.962 8.817 15.5 14 15.5.975 0 9 3.504 9 4l-14-2c-6.122 0-11.602-.297-15 6.5-.737 1.475-4.486 12.5 0 12.5 0 4.116 6.818 3.659 9.5 5 2.326 1.163 3.264 8.132 7 10 6.547 3.273 14.401 3.7 21 7 5.086 2.543 6.662 17.176 4.5 21.5l-.5 8.5c-1.455 0-1.5-7.599-1.5-9 0-4.166-2.258-8.017-4-11.5-4.032-8.064-16.984-7.984-23-14-4.132-4.132-8.622-8.061-13.5-10.5-1.008-.504-4.5-.22-4.5 1-1.473 0-1 1.952-1 3-2.349 0-1.382-3-4-3l-1-1-1-1-1-1-2-2c-1.045 0-6-3.836-6-1l-3-6c0-1.495-.84-10-2-10 0-4.286 5.03-13.735 2.5-15-1.269-.634-6.067 3.467-9 2-3.229-1.615-28.5-13.161-28.5-5-5.285 0-13-6.542-13 3-5.625 0-13 1.728-13 8 0 1.399 2 1.399 2 0 3.646 0 5.957-5 11-5 0 5.256-7 3.667-7 7 0 2.197-10.783 1-12 1v-1c4.199 0 5.974-10.263 2.5-12-6.093-3.046-15.732 1.134-22-2-1.794-.897-4.676.338-6 1-5.787 2.893-15.3-1.85-21 1-2.963 1.481-1.312 12 2.5 12l1 1c-4.351 0-8.727-1-13-1 0-3.067-6-.444-6-7 4.708 0 7.06 5 11 5 0 1.186 1 1.186 1 0 0-6.677-7.658-8-13-8 0-9.525-7.657-3-13-3 0-8.307-24.344 3.422-27.5 5-4.01 2.005-7.893-2.553-11-1v3c3.682 1.841 3.5 6.69 3.5 11-.886 0-2 9.728-2 11l-2 5-3-1-1 1-3 1h-1l7-6.5c1.924-3.847-.26-8.48 0-9l4-4c2.268-4.536-8.731-12.385-12.5-10.5-6.093 3.046-11.62 24.259-8.5 30.5 1.789 3.578 5.23 1.5 8 1.5v1l-1 1-1 1-1 1-1 2m64-63c-11.141 0 8.23-14.73 9.5-16 9.035-9.035 22.924-8 34.5-8l4.5-1c6.395 3.197 15.551.775 22 4l9 7c1.811.905 15.006 14 7.5 14 0 1.176-12.761 6.13-14.5 7-18.434 9.217-38.212 10.394-57 1l-15.5-8Z"/><path fill="#FFFC8E" id="CENT3" d="M161 127c7.573 0 15.171-25.842 18-31.5 5.647-11.294 19.841-16.67 29.5-21.5 3.496-1.748 8.461-.23 12-2 3.046-1.523 13.421-.29 16 1 3.78 1.89 12.326.663 17 3 11.263 5.631 21.763 15.025 27.5 26.5 2.656 5.312 6.442 24.5 14 24.5 0 6.349-10.477 3.512-13.5 2-5.505-2.752-8.413-13.706-15-17l-6-1c-9.52-4.76-21.214-9-32.5-9l-6.5 2h-10c-5.188 2.594-10.714 4.357-16 7h-4c-7.852 3.926-10.405 14.702-17 18-2.402 1.201-13.5 4.438-13.5-2Z"/><path fill="#FCFC90" id="ANcr1" fill-rule="evenodd" d="M95 99c0 1.93 1.93 0 0 0m-18 55c4.942 0 7.48 2.99 11.5 5 1.119.559 4.5.155 4.5 2 5.472 0 17.688-8.123 14-15.5-1.834-3.668-6.859-6.718-9-11l-4-12c-.718-1.437-6-7.916-6-9l6.5-13.5.5 3.5c-1.738 3.476-2 6.239-2 10.5 0 5.974 5.433 13.367 8 18.5 3.735 7.47 12.785 15.429 18 5 .604-1.207 4-3.339 4-5.5-1.141 0-6-11.639-6-13.5 0-4.87-4.624-12.753-2-18 .731-1.463 2.667-9.666 2-11-.751-1.501-4-14.324-4-15.5-1.842 0-4.283-1-5.5-1-9.14 0-22.525 13.55-26.5 21.5-1.722 3.443-7.895 6.789-10 11-2.743 5.486-6.295 10.591-9 16-5.233 10.466 1.37 24.935 10.5 29.5l4.5 3Z"/><path fill="#FCFC90" id="ANcr1" d="M379 154c-4.143 0-8.008 3.254-11.5 5-1.119.559-4.5.155-4.5 2-5.183 0-17.481-8.538-14-15.5l7-7c3.219-6.438 4.828-13.657 8-20l4-4c1.312-2.623-3.882-9.764-5-12l-1.5-3.5c-1.783 0 1.5 7.747 1.5 8.5 0 5.934-.143 11.285-3 17-2.199 4.398-9.433 16.467-13.5 18.5-4.808 2.404-12.5-7.065-12.5-11 0-3.91 3.356-7.211 5-10.5 2.877-5.753 2-15.111 2-22 0-3.368-1.852-25.5 3-25.5 23.099 0 41.807 31.114 51 49.5 4.716 9.432-6.328 30.5-16 30.5Z"/><path fill="#CBC9CC" id="arb" d="M95 99c0 1.93 1.93 0 0 0ZM161 104c0 9.211 2.105 0 0 0Z"/><path fill="#FFFC8E" id="CENT3" d="M185 130c9.337 0 17.717 5.108 25.5 9h35c7.968-3.984 16.95-9 26.5-9 7.506 0-5.689-13.095-7.5-14l-9-7c-6.449-3.225-15.605-.803-22-4l-4.5 1c-11.576 0-25.465-1.035-34.5 8-1.27 1.27-20.641 16-9.5 16Z"/><path fill="#FDFA91" id="CENT2" d="M185 130c9.337 0 17.717 5.108 25.5 9h35c7.968-3.984 16.95-9 26.5-9 0 1.176-12.761 6.13-14.5 7-18.434 9.217-38.212 10.394-57 1l-15.5-8Z"/><path fill="#FFFDBC" id="IP" d="M163 160c-6.14 0-13.186 7.343-18.5 10l-5.5-2c0-4.31.182-9.159-3.5-11v-3c3.107-1.553 6.99 3.005 11 1 3.156-1.578 27.5-13.307 27.5-5 0 3.74-4 4.682-4 7h-1l-1 1h-1l-1 1h-2l-1 1ZM292 159c5.811 0 12.455 7.477 17.5 10 1.447.723 7.5 1.784 7.5-1 0-4.286 5.03-13.735 2.5-15-1.269-.634-6.067 3.467-9 2-3.229-1.615-28.5-13.161-28.5-5 0 2.572 4 4.883 4 7h1l2 1 3 1Z"/><path fill="#F0F080" id="CB" d="M178 164c0-8.216 13-5.853 13 3l3-4c0-3.067-6-.444-6-7-5.694 0-7.961-3-1-3 0-9.525-7.657-3-13-3 0 3.74-4 4.682-4 7 0 1.728-1 3.991-1 6h6l3 1ZM282 163h5c0-1.564-1-3.876-1-6 0-2.117-4-4.428-4-7-5.285 0-13-6.542-13 3 6.58 0 6.436 3 0 3 0 5.256-7 3.667-7 7l3 3c0-7.19 15-9.413 15-3h2Z"/><path fill="#FDFA91" id="CENT2" d="M206 163c-3.812 0-5.463-10.519-2.5-12 5.7-2.85 15.213 1.893 21-1 1.324-.662 4.206-1.897 6-1 6.268 3.134 15.907-1.046 22 2 3.474 1.737 1.699 12-2.5 12 0-1.758-7.884-1-9.5-1h-26c-1.532 0-8.5-.743-8.5 1Z"/><path fill="#CBC9C8" id="uf" d="M199 161h1c0-6.677-7.658-8-13-8-6.961 0-4.694 3 1 3 4.708 0 7.06 5 11 5ZM256 161h2c3.646 0 5.957-5 11-5 6.436 0 6.58-3 0-3-5.625 0-13 1.728-13 8Z"/><path fill="#FCFA91" id="ANcr2" d="M84 165v1c-5.975 0-7-7.551-7-12 4.942 0 7.48 2.99 11.5 5 1.119.559 4.5.155 4.5 2-.975 0-9 3.504-9 4ZM372 165v1c6.47 0 7-6.903 7-12-4.143 0-8.008 3.254-11.5 5-1.119.559-4.5.155-4.5 2 .975 0 9 3.504 9 4Z"/><path fill="#FFFDBB" id="DN" d="m126 186-1 1c-2.77 0-6.211 2.078-8-1.5-3.12-6.241 2.407-27.454 8.5-30.5 3.769-1.885 14.768 5.964 12.5 10.5l-4 4c-.26.52 1.924 5.153 0 9l-7 6.5-1 1ZM327 155c0 1.798-11.027 5.447-9 9.5l5 5c0 1.959-3.259 4.482-2 7l5 5c2.099 2.099 7.244 8.128 10.5 6.5 5.117-2.559 4.628-33-9.5-33Z"/><path fill="#F0F080" id="CB" d="m169 157-1 1 1-1Z"/><path fill="#CBC9CB" id="scp" d="M156 169h1l1-1 1-1h1l1-1 1-1h2l1-1h1l1-1h2c0-2.009 1-4.272 1-6h-1l-1 1h-1l-1 1h-2l-1 1c0 1.719-17.941 10-9 10l1-1h1ZM300 169h1l4.5 1c1.579-.79-8.429-8.215-10-9l-3.5-2-3-1-2-1h-1c0 2.124 1 4.436 1 6h2l1 1h1l1 1h2l2 2h1l1 1h1l1 1Z"/><path fill="#F0F080" id="CB" d="m287 157 2 1-2-1ZM167 158l-1 1 1-1ZM164 159l-1 1 1-1Z"/><path fill="#FEFDBC" id="VeCB" d="m189 169-6 1c0-2.666-2.104-6-5-6 0-8.216 13-5.853 13 3l-1 1-1 1ZM268 169l5 1c0-2.77 4.23-7 7-7 0-6.413-15-4.19-15 3l1 1 1 1 1 1Z"/><path fill="#F0F080" id="CB" d="m301 169 18 9c0-1.495-.84-10-2-10 0 2.784-6.053 1.723-7.5 1-5.045-2.523-11.689-10-17.5-10l3.5 2c1.571.785 11.579 8.21 10 9l-4.5-1ZM153 171h1v-1c-8.941 0 9-8.281 9-10-6.14 0-13.186 7.343-18.5 10l-5.5-2c-.886 0-2 9.728-2 11 2.929 0 11.449-8 16-8ZM199 161h1c0 1.186-1 1.186-1 0ZM256 161h2c0 1.399-2 1.399-2 0Z"/><path fill="#FFF990" id="COPY" d="M98 165c0 .258 16 13.128 16 17 2.376 0 .61-10.279 0-11.5-3.54-7.079-8.766-7.5-15-7.5l-1 2Z"/><path fill="#FEFA91" id="LING" d="M207 164c0 6.127 29.953 7.773 35.5 5l7.5-5v-1c0-1.758-7.884-1-9.5-1h-26c-1.532 0-8.5-.743-8.5 1l1 1Z"/><path fill="#FFF990" id="COPY" d="M358 165c0 1.236-15 12.301-15 17-4.486 0-.737-11.025 0-12.5 3.398-6.797 8.878-6.5 15-6.5v2Z"/><path fill="#FFFB8E" id="PRM" d="m84 166 4 2c3.134 0 5.948-3 10-3l1-2-15 2v1Z"/><path fill="#F0F080" id="CB" d="M166 164h1v-1l-1 1Z"/><path fill="#FF9BCD" id="MY" d="m169 163-2 1v-1h2Z"/><path fill="#FDB3D6" id="SUV" d="m153 185 1 1c5.457 0 11.108 1.696 16.5-1l5.5-5 1-1c0-2.968 4-4.633 4-7 0-6.143-6-8.061-6-9h-6l-2 1-2 1h-1l-2 1-1 1h-1l-1 1-1 1h-2l-1 1-1 1h-1l-3 6c2.16 0 3 6.07 3 8Z"/><path fill="#FF9BCD" id="MY" d="M181 172h6l-4-2c0-2.666-2.104-6-5-6l-3-1c0 .939 6 2.857 6 9Z"/><path fill="#AAA9A7" id="V4" d="M227 204h2c0-3.219 7.249-13 11-13 0-5.17 12.925-13.713 17.5-16 1.233-.617 9.5-1.993 9.5-3l1-3-1-1-1-1-1-1-3-3c0 2.197-10.783 1-12 1l-7.5 5c-5.547 2.773-35.5 1.127-35.5-5-4.351 0-8.727-1-13-1l-3 4-1 1-1 1v3c0 1.381 6.327 1.413 7.5 2 4.016 2.008 19.5 10.229 19.5 16 3.538 0 11 10.051 11 14Z"/><path fill="#FF9BCD" id="MY" d="m272 171 4 2-1-4.5 7-5.5h-2c-2.77 0-7 4.23-7 7l-1 1Z"/><path fill="#FDB3D6" id="SUV" d="m303 185-1 1c-3.847 0-21 1.627-21-6l-2-2c0-1.238-1.923-5-3-5l-1-4.5 7-5.5h5l2 1h1l1 1h2l2 2h1l1 1h1l1 1h1c0 2.766 6 3.652 6 8 0 2.7-3 4.762-3 8Z"/><path fill="#FF9BCD" id="MY" d="M289 163v1l-2-1h2Z"/><path fill="#F0F080" id="CB" d="M289 164h1l-1-1v1Z"/><path fill="#FFFB8E" id="PRM" d="m372 166-4 2c-3.134 0-5.948-3-10-3v-2l14 2v1Z"/><path fill="#F0F080" id="CB" d="M164 165h1v-1l-1 1Z"/><path fill="#FF9BCD" id="MY" d="m167 164-2 1v-1h2ZM291 164v1l-1-1h1Z"/><path fill="#F0F080" id="CB" d="M291 165h1l-1-1v1Z"/><path fill="#FFFC8D" id="PFL" d="M119 190c-3.965 0-4.927 7.354-6 9.5-3.947 7.894-14.752 15.504-19 24-1.138 2.276 3.32 15.5 5 15.5l-2 4.5c-1.488 2.976-1.468 6.936-3 10-7.394 14.787-23.352 15.648-34.5 4.5l-6.5-6.5c-2.641-5.283-2.414-11.828-5-17v-19c-3.361-6.722.704-24.102 7.5-27.5 2.267-1.134 4.358-4.179 6-5l10-4c4.14-2.07 10.999 6.001 15 4 3.488-1.744-4.182-15 1.5-15 3.134 0 5.948-3 10-3 0 .258 16 13.128 16 17 0 4.088-7.365 3.932-9.5 5-3.363 1.681-3.647 7.824-8 10l-19 6c-7.878 3.939-6.5 14.528-6.5 22 0 1.464-.478 9 1.5 9l.5-8.5c2.262-4.524 4.028-10.055 6-14 2.282-4.565 13.416-6.458 17.5-8.5 1.642-.821 3.733-3.866 6-5 5.238-2.619 6.807-6.403 12-9 1.008-.504 4.5-.22 4.5 1Z"/><path fill="#F0F080" id="CB" d="M161 166h1v-1l-1 1Z"/><path fill="#FF9BCD" id="MY" d="m164 165-2 1v-1h2ZM294 165l1 2-2-2h1Z"/><path fill="#F0F080" id="CB" d="M295 167h1l-2-2 1 2Z"/><path fill="#FFFC8D" id="PFL" d="M338 190c2.549 0 4.175 6.851 5 8.5 3.847 7.693 10.404 12.808 14 20l5 4c1.862 3.725-2.489 16.5-5 16.5 0 2.596 2.813 7.125 4 9.5 6.55 13.1 15.127 22.687 31.5 14.5l4.5-5.5c1.645-3.291 6.11-5.219 8-9 4.971-9.942 4-24.589 4-36.5 0-8.76-1.611-21.556-10.5-26-5.621-2.81-9.665-7-16.5-7-2.585 0-8.788 5.356-11.5 4-4.884-2.442 4.89-15-2.5-15-3.134 0-5.948-3-10-3 0 1.236-15 12.301-15 17 0 4.116 6.818 3.659 9.5 5 2.326 1.163 3.264 8.132 7 10 6.547 3.273 14.401 3.7 21 7 5.086 2.543 6.662 17.176 4.5 21.5l-.5 8.5c-1.455 0-1.5-7.599-1.5-9 0-4.166-2.258-8.017-4-11.5-4.032-8.064-16.984-7.984-23-14-4.132-4.132-8.622-8.061-13.5-10.5-1.008-.504-4.5-.22-4.5 1Z"/><path fill="#F0F080" id="CB" d="M160 167h1v-1l-1 1Z"/><path fill="#FF9BCD" id="MY" d="m162 166-1 1v-1h1Z"/><path fill="#F0F080" id="CB" d="M158 168h1v-1l-1 1Z"/><path fill="#FF9BCD" id="MY" d="m160 167-1 1v-1h1Z"/><path fill="#F0F080" id="CB" d="m191 167-1 1 1-1ZM266 167l1 1-1-1Z"/><path fill="#FF9BCD" id="MY" d="M297 167v1l-1-1h1Z"/><path fill="#F0F080" id="CB" d="M297 168h1l-1-1v1ZM157 169h1v-1l-1 1Z"/><path fill="#FF9BCD" id="MY" d="m159 168-1 1v-1h1Z"/><path fill="#F0F080" id="CB" d="m190 168-1 1 1-1Z"/><path fill="#FF9BCD" id="MY" d="M299 168v1l-1-1h1Z"/><path fill="#F0F080" id="CB" d="M299 169h1l-1-1v1ZM154 170h1v-1l-1 1Z"/><path fill="#FF9BCD" id="MY" d="m156 169-1 1v-1h1Z"/><path fill="#F0F080" id="CB" d="M187 172h2v-3l-6 1 4 2ZM267 172h2l2-1h1l1-1-5-1-1 3Z"/><path fill="#FF9BCD" id="MY" d="M315 258c3.494 0 3-10.335 3-13 0-8.316-6.431-18.361-10-25.5-.953-1.906-3.488-7.006-.5-8.5 4.856-2.428 8.488 10.477 9.5 12.5 2.635 5.269 11.212 25.575 8 32-.73 1.46-7 15.187-7 15.5 7.325 0 17-18.901 17-25-1.918 0-2.927 5.287-5.5 4-3.789-1.894-3.448-17.395-5.5-21.5-.703-1.406 1.261-7.5-1-7.5-3.187 0-4.745-6.991-6-9.5-3.517-7.034-16.365-26.567-4.5-32.5 6.396-3.198 7.961 9.422 9.5 12.5.574 1.147-1.064 4.5 1 4.5l-1-12-3-6-18-9h-1c0 2.766 6 3.652 6 8 6.558 0-1 7.636-1 9 2.461 0 2 3.378 2 5 0 4.695 4.304 12.891 2 17.5-2.432 4.863-14.194 2.5-18 2.5 0 3.163-7.871 2-10 2l4 3c0-1.587 6-1.587 6 0 2.132 0 4.958-3.271 7.5-2 12.039 6.02 12.284 19.069 17.5 29.5 1.923 3.846-1 11.024-1 14.5ZM155 170l-1 1v-1h1ZM135 187l4.5-8c5.979-2.989 9.5 5.872 9.5 10l3-3c0-1.712-8.564-9-2-9l3-6c-4.551 0-13.071 8-16 8l-2 5v3ZM271 171l-2 1 2-1Z"/><path fill="#FFB0D7" id="MV" d="M272 213h9c2.129 0 10 1.163 10-2 0-8.021-13-13.153-13-20l-1-1c-2.889 0 1-3.299 1-4l1-1 1-5-1-2c0-1.238-1.923-5-3-5l-4-2h-1l-2 1h-2c0 1.007-8.267 2.383-9.5 3-4.575 2.287-17.5 10.83-17.5 16 1.638 0 9 11.041 9 13l9.5 8c1.876.938 13.5-1.497 13.5 1ZM175 213h9c0-2.497 11.624-.062 13.5-1 2.736-1.368 7.761-9 10.5-9 0-4.68 8-8.271 8-13 0-5.771-15.484-13.992-19.5-16-1.173-.587-7.5-.619-7.5-2h-8c0 2.367-4 4.032-4 7l-1 1 1 5c1.82 0 4.663 5 2 5 0 4.106-6 6.05-6 10l-1 1-7 10c0 2.789 7.892 2 10 2Z"/><path fill="#FDB2D7" id="y" d="M152 186h1v-1c0-1.93-.84-8-3-8-6.564 0 2 7.288 2 9ZM304 186h1c0-1.364 7.558-9 1-9 0 2.7-3 4.762-3 8l1 1Z"/><path fill="#FF9BCD" id="MY" d="M280 180h1l-2-2 1 2Z"/><path fill="#C9C9C8" id="icp" d="M133 213v8c2.816 0 12.164-19.828 14-23.5.736-1.471-.357-7.5 2-7.5v-1c0-4.128-3.521-12.989-9.5-10l-4.5 8c0 8.845-2 16.745-2 26Z"/><path fill="#FF9BCD" id="MY" d="m177 179-1 1 1-1Z"/><path fill="#C9C9C8" id="icp" d="M323 214v7c-3.187 0-4.745-6.991-6-9.5-3.517-7.034-16.365-26.567-4.5-32.5 6.396-3.198 7.961 9.422 9.5 12.5.574 1.147-1.064 4.5 1 4.5v18Z"/><path fill="#FEB3D7" id="LAV" d="m172 201-7 10c-3.806 0-15.568 2.363-18-2.5-2.134-4.267 2-13.428 2-18.5v-1l3-3h2c5.457 0 11.108 1.696 16.5-1l5.5-5 1 5c-2.663 0 .18 5 2 5 0 4.106-6 6.05-6 10l-1 1ZM278 191c0 6.847 13 11.979 13 20 3.806 0 15.568 2.363 18-2.5 2.304-4.609-2-12.805-2-17.5 0-1.622.461-5-2-5h-3c-3.847 0-21 1.627-21-6h-1l-1 5c4.417 0-1 3.913-1 5v1Z"/><path fill="#F0F080" id="CB" d="m132 183-1 1 1-1Z"/><path fill="#FEA5D1" id="DCO" d="M115 221c1.735 0 1 6.51 1 8 9.315 0 6.827-19 16-19 0-6.062-.555-14.391 2-19.5.523-1.046-.951-3.5 1-3.5v-3l-3-1-1 1-3 1-1 1-1 1-1 1-1 1-1 1-1 1-1 2c0 1.238-.423 3-2 3 0 5.832-4 11.33-4 17v8ZM341 225l-1 4c-7.768 0-8.05-19-15-19 0-1.517-1.036-13-2-13v-1l-1-12c0-2.836 4.955 1 6 1l2 2 1 1 1 1 1 1 4 5.5c3.64 7.279 4 16.695 4 25.5v4Z"/><path fill="#CBC9CC" id="arb" d="M126 186h1v-1l-1 1Z"/><path fill="#A9AAA7" id="V4r" d="m128 185-1 1v-1h1Z"/><path fill="#FF9BCD" id="MY" d="M153 186h1l-1-1v1Z"/><path fill="#CCCBC8" id="das" d="M177 185c1.82 0 4.663 5 2 5-1.82 0-4.663-5-2-5Z"/><path fill="#FF9BCD" id="MY" d="m279 185-1 1 1-1Z"/><path fill="#CCCBC8" id="das" d="M277 190h1c0-1.087 5.417-5 1-5l-1 1c0 .701-3.889 4-1 4Z"/><path fill="#FF9BCD" id="MY" d="M302 186h2l-1-1-1 1Z"/><path fill="#A9AAA7" id="V4r" d="m328 185 2 2-2-2Z"/><path fill="#CBC9CC" id="arb" d="M125 187h1v-1l-1 1Z"/><path fill="#A9AAA7" id="V4r" d="m127 186-1 1v-1h1ZM126 187l-1 1v-1h1Z"/><path fill="#FF9BCD" id="MY" d="M132 210c0 1.048-.473 3 1 3 0-9.255 2-17.155 2-26-1.951 0-.477 2.454-1 3.5-2.555 5.109-2 13.438-2 19.5Z"/><path fill="#A9AAA7" id="V4r" d="m125 188-1 1 1-1ZM331 188l1 1-1-1ZM124 189l-1 1 1-1Z"/><path fill="#FEF991" id="FL" d="M105 230c0 1.936-4.51 9-6 9-1.68 0-6.138-13.224-5-15.5 4.248-8.496 15.053-16.106 19-24 1.073-2.146 2.035-9.5 6-9.5v5l-1 1-7 18c-2.131 0-5 10.157-5 12l-1 4Z"/><path fill="#A9AAA7" id="V4r" d="m123 190-1 1 1-1Z"/><path fill="#FF9BCD" id="MY" d="M153 276c-3.208 0 1 4.47 1 5l-9.5-6c-7.582-3.791-15.362-8.223-19.5-16.5l-2-9-2-4.5 5.5 5c3.056-1.528 6.5-24.769 6.5-29 2.816 0 12.164-19.828 14-23.5.736-1.471-.357-7.5 2-7.5 0 5.072-4.134 14.233-2 18.5 2.432 4.863 14.194 2.5 18 2.5 0 2.789 7.892 2 10 2l-4 4c0-4.14-4.16-1-6-1 0-1.951-2.454-.477-3.5-1-4.802-2.401-8.42 2.42-12 6l-6.5 12c0-4.217 8.615-19.271 8-20.5-2.254-4.508-8.843 2.687-10 5-3.125 6.251-12.884 32.233-9 40 2.506 5.011 3.027 12.264 9.5 15.5 1.527.763 9.5 3.633 9.5 0l2 3Z"/><path fill="#FFB3D7" id="PRP" d="M217 206h2c.822 0 8-1.311 8-2 0-3.949-7.462-14-11-14 0 4.729-8 8.32-8 13 0 2.93 3 1.084 3 3h6Z"/><path fill="#FF9BCD" id="MY" d="M278 190v1l-1-1h1Z"/><path fill="#A9AAA7" id="V4r" d="M340 229h1c3.015 0 6.004-2 8-2h1c0-11.359-11-19.209-11-30l-1-1-1-3c-2.349 0-1.382-3-4-3l4 5.5c3.64 7.279 4 16.695 4 25.5 2.771 0-.963-9 2.5-9 1.78 0 6.645 16 0 16l-2.5-3-1 4Z"/><path fill="#FEF991" id="FL" d="M352 231c0 1.347 3.438 8 5 8 2.511 0 6.862-12.775 5-16.5l-5-4c-3.596-7.192-10.153-12.307-14-20-.825-1.649-2.451-8.5-5-8.5-1.473 0-1 1.952-1 3l1 3 1 1c0 10.791 11 18.641 11 30l1 2v1l1 1Z"/><path fill="#A9AAA7" id="V4r" d="m122 191-1 2 1-2Z"/><path fill="#FFB3D7" id="PRP" d="M243 206h2l4-2c0-1.959-7.362-13-9-13-3.751 0-11 9.781-11 13 0 .689 7.178 2 8 2h6Z"/><path fill="#A9AAA7" id="V4r" d="M119 195v1c1.577 0 2-1.762 2-3l-2 1v1Z"/><path fill="#F0F080" id="CB" d="M118 196h1v-1l-1 1Z"/><path fill="#A9AAA7" id="V4r" d="M115 213c-1.674 0-2.326 1-4 1l7-18h1c0 5.832-4 11.33-4 17Z"/><path fill="#F0F080" id="CB" d="m338 196 1 1-1-1Z"/><path fill="#FF9BCD" id="MY" d="m325 210-2 4v-17c.964 0 2 11.483 2 13ZM173 200l-1 1 1-1ZM206 221l-3 1c0-8.884-7.73-8-15-8l-4-1c0-2.497 11.624-.062 13.5-1 2.736-1.368 7.761-9 10.5-9 0 2.93 3 1.084 3 3 0 .235-5.213 3.926-6 5.5-1.386 2.772 1 7.269 1 9.5ZM227 224c.839 0 2 1.93 2 0v-14.5c.93-1.861 4-4.387 4-.5l4-3c-.822 0-8-1.311-8-2h-2c0 .689-7.178 2-8 2l4 3.5c1.842 3.683 0 8.032 0 11.5h3c0-1.025-.393-8.286-1-9.5l-2-4 1.5-.5c3.708-1.854 2.5 13.453 2.5 17ZM250 221h3c0-8.024 8.685-7 15-7l4-1c0-2.497-11.624-.062-13.5-1l-9.5-8-4 2c9.99 0 5 11.741 5 15Z"/><path fill="#FCB3D8" id="PGRNd" d="M206 221h17c0-3.468 1.842-7.817 0-11.5l-4-3.5h-2c0 1.535-4 1.535-4 0h-2c0 .235-5.213 3.926-6 5.5-1.386 2.772 1 7.269 1 9.5Z"/><path fill="#FF9BCD" id="MY" d="M213 206h4c0 1.535-4 1.535-4 0Z"/><path fill="#CBCBCC" id="mlf" d="M226 221c0 1.048-.473 3 1 3 0-3.547 1.208-18.854-2.5-17l-1.5.5 2 4c.607 1.214 1 8.475 1 9.5Z"/><path fill="#FCB3D8" id="PGRNd" d="M233 221h17c0-3.259 4.99-15-5-15h-2c0 1.535-4 1.535-4 0h-2l-4 3v12Z"/><path fill="#FF9BCD" id="MY" d="M239 206h4c0 1.535-4 1.535-4 0Z"/><path fill="#CBCBCC" id="mlf" d="M231 221c0 2.003.293 3-2 3v-14.5c.93-1.861 4-4.387 4-.5-1.858 0-2 9.917-2 12Z"/><path fill="#FF9BCD" id="MY" d="M231 221h2v-12c-1.858 0-2 9.917-2 12Z"/><path fill="#FEA4D2" id="VCO" d="M121 244v1l5.5 5c3.056-1.528 6.5-24.769 6.5-29v-8c-1.473 0-1-1.952-1-3-9.173 0-6.685 19-16 19 0 5.642 4 9.026 4 14l1 1ZM335 245v1c-1.918 0-2.927 5.287-5.5 4-3.789-1.894-3.448-17.395-5.5-21.5-.703-1.406 1.261-7.5-1-7.5v-7l2-4c6.95 0 7.232 19 15 19v4l-4 11-1 1Z"/><path fill="#C8CACA" id="sptV" d="M151 269v4c0 3.633-7.973.763-9.5 0-6.473-3.236-6.994-10.489-9.5-15.5-3.884-7.767 5.875-33.749 9-40 1.157-2.313 7.746-9.508 10-5 .615 1.229-8 16.283-8 20.5-3.299 0-6.403 24-2 24l1 3 1 1v1l8 7ZM305 273c1.602 0 2.384 3.058 4.5 2 2.084-1.042 2.908-2 5.5-2 0-1.577 1.762-2 3-2 0-.313 6.27-14.04 7-15.5 3.212-6.425-5.365-26.731-8-32-1.012-2.023-4.644-14.928-9.5-12.5-2.988 1.494-.453 6.594.5 8.5 3.569 7.139 10 17.184 10 25.5 0 2.665.494 13-3 13l-1 3-1 1-1 1c0 3.337-4.647 2.794-6 5.5-.459.919.765 2.5-1 2.5v2Z"/><path fill="#A9AAA8" id="chpl" d="M111 214c0 2.984-3.528 6.443-2 9.5 3.197 6.395 6 3.059 6-2.5v-8c-1.674 0-2.326 1-4 1ZM341 221c2.771 0-.963-9 2.5-9 1.78 0 6.645 16 0 16l-2.5-3v-4Z"/><path fill="#FCB3D9" id="PARN" d="M156 265h1c0-2.289 6.178-6 8-6l10-12.5c4.468-8.936 13-22.098 13-32.5l-4-1h-9l-4 4v2c0 2.177.641 4-2 4 0 7.113-9.314 10.128-12 15.5-1.335 2.67-4 21.276-4 24.5l2 2h1ZM300 265h2l2-2-3-7.5c-2.377-4.754.466-12.069-2-17-2.515-5.029-12-8.926-12-15.5-2.109 0-2-2.535-2-4v-3l-4-3h-9l-4 1c0 8.106 12.058 28.616 16 36.5l7 8.5c4.37 0 5.876 6 9 6Z"/><path fill="#A9AAA7" id="V4r" d="M107 227c2.526 0 5.577 2 9 2 0-1.49.735-8-1-8 0 5.559-2.803 8.895-6 2.5-1.528-3.057 2-6.516 2-9.5-2.131 0-5 10.157-5 12l1 1Z"/><path fill="#FFA4D0" id="SPVO" d="m143 262 3.5 2 6.5-1c0-3.224 2.665-21.83 4-24.5 2.686-5.372 12-8.387 12-15.5-3.97 0-2-2.104-2-4v-1l-2-2c0-1.951-2.454-.477-3.5-1-4.802-2.401-8.42 2.42-12 6l-6.5 12c0 3.712-1.392 9.284-3 12.5l1 11.5 1 3 1 1v1Z"/><path fill="#FFB2D8" id="IRN" d="m192 267-1 1-7.5-7c-5.333-2.667-12.068-2-18.5-2l10-12.5c4.468-8.936 13-22.098 13-32.5 7.27 0 15-.884 15 8l-2 5.5c-2.08 4.16.1 10.801-2 15-2.441 4.882-7 19.066-7 24.5ZM265 268h1l7.5-7c5.174-2.587 11.249-2 17.5-2l-7-8.5c-3.942-7.884-16-28.394-16-36.5-6.315 0-15-1.024-15 7 0 2.487 6.9 33.301 8 35.5 1.761 3.521 4 7.298 4 11.5Z"/><path fill="#FFA4D0" id="SPVO" d="M304 263h8l1-1 1-1 1-3c0-3.476 2.923-10.654 1-14.5-5.216-10.431-5.461-23.48-17.5-29.5-2.542-1.271-5.368 2-7.5 2l-1 1-1 1v1c0 2.6 2.504 4-2 4 0 6.574 9.485 10.471 12 15.5 2.466 4.931-.377 12.246 2 17l3 7.5Z"/><path fill="#FDA5D1" id="NTS" d="m171 217-4 1-2-2c1.84 0 6-3.14 6 1ZM290 217l-1 1-4-1v-1c0-1.587 6-1.587 6 0l-1 1Z"/><path fill="#FF9BCD" id="MY" d="M167 219h4v-2l-4 1v1ZM285 219h4v-1l-4-1v2ZM290 217l-1 1 1-1Z"/><path fill="#FFB2D9" id="ISN" d="M171 219c0 2.177.641 4-2 4-3.97 0-2-2.104-2-4h4ZM289 219c0 2.6 2.504 4-2 4-2.109 0-2-2.535-2-4h4Z"/><path fill="#FEB0D8" id="GRN" fill-rule="evenodd" d="M229 231v13.5c0 1.908 2.531 9.938 5 5 2.41-4.82.141-18.5-5-18.5m-4 0c0 1.835-2 4.235-2 7v9c0 3.37 1.756 5.987 4 1.5 1.445-2.889.433-17.5-2-17.5m-22 42h1c2.084 0 6.758-8.629 9.5-10 1.589-.795 11.5-3.811 11.5 0h1c0-.421 1.051-15.398 3-11.5v5l2 6.5 2.5-2c3.186-1.593 9.571 2.785 12 4l7.5 8c0-6.881 7.042-4 11-4h1v-1c0-4.202-2.239-7.979-4-11.5-1.1-2.199-8-33.013-8-35.5h-22c0 2.003.293 3-2 3 0 1.93-1.161 0-2 0-1.473 0-1-1.952-1-3h-20l-3 1-2 5.5c-2.08 4.16.1 10.801-2 15-2.441 4.882-7 19.066-7 24.5l1 2c4.456 0 10-3.025 10 4Z"/><path fill="#F0F080" id="CB" d="M107 227c0 1.238-.423 3-2 3l1-4 1 1ZM350 227l1 2c-1.747 0-2-.253-2-2h1Z"/><path fill="#FF9BCD" id="MY" d="M341 229c0 1.145.579 4-1 4v-4h1Z"/><path fill="#F0F080" id="CB" d="m351 230 1 1-1-1Z"/><path fill="#C8C8CC" id="tspc" d="M225 231c0 1.835-2 4.235-2 7v9c0 3.37 1.756 5.987 4 1.5 1.445-2.889.433-17.5-2-17.5ZM229 231v13.5c0 1.908 2.531 9.938 5 5 2.41-4.82.141-18.5-5-18.5Z"/><path fill="#FF9BCD" id="MY" d="M143 233c-3.299 0-6.403 24-2 24l-1-11.5c1.608-3.216 3-8.788 3-12.5ZM120 243l1 1-1-1ZM336 244l-1 1 1-1Z"/><path fill="#FFC5E2" id="RM" d="M226 283h4c0-1.908-.788-13 1-13v-7l-2-6.5v-5c-1.949-3.898-3 11.079-3 11.5l-1 2v4c1.735 0 1 6.51 1 8v6Z"/><path fill="#FFB3D6" id="VII" d="M170 285c5 0 8.687 2 13 2 1.235 0 5 .643 5-1 0-5.244 4-9.193 4-15-1.473 0-1-1.952-1-3l-7.5-7c-5.333-2.667-12.068-2-18.5-2-1.822 0-8 3.711-8 6l-1 1c0 2.978-1 6.49-1 10l2 2 7 4 1 1h2l1 1 2 1ZM287 284c-3.332 0-8.578 1.539-11.5 3-2.364 1.182-5.696-1-7.5-1 0-4.919-3-8.35-3-14v-3l1-1 7.5-7c5.174-2.587 11.249-2 17.5-2 4.37 0 5.876 6 9 6 0 7.86 3.075 11.712-5.5 16-2.333 1.167-4.728 3-7.5 3Z"/><path fill="#FF9BCD" id="MY" d="m142 260 1 1-1-1Z"/><path fill="#FDB2D9" id="MARN" d="M201 280c0 2.043.591 4 3 4 7.026 0 21-6.722 21-15v-6c0-3.811-9.911-.795-11.5 0-2.742 1.371-7.416 10-9.5 10l-1 1-1 2-1 1v3ZM255 281c0 2.215-2 1.519-2 3-6.261 0-22-6.257-22-14v-7l2.5-2c3.186-1.593 9.571 2.785 12 4l7.5 8v1l2 2v5Z"/><path fill="#FF9BCD" id="MY" d="m314 261-1 1 1-1ZM155 265l-4 4-8-7 3.5 2 6.5-1 2 2ZM313 262l-1 1 1-1ZM226 263l-1 2v-2h1ZM302 265c0 2.165 3 2.546 3 6 1.765 0 .541-1.581 1-2.5 1.353-2.706 6-2.163 6-5.5h-8l-2 2Z"/><path fill="#C8C8CB" id="rust" d="M168 285h2l-2-1-1-1h-2l-1-1-7-4-2-2c0-3.51 1-7.022 1-10v-1h-1l-4 4v4l2 3c0 4.532 11.744 9 15 9Z"/><path fill="#FF9BCD" id="MY" d="m157 265-1 1v-1h1Z"/><path fill="#C8C8CB" id="rust" d="m287 284 1 1c6.351 0 13.868-9 16-9l1-3v-2c0-3.454-3-3.835-3-6h-2c0 7.86 3.075 11.712-5.5 16-2.333 1.167-4.728 3-7.5 3Z"/><path fill="#FF9BCD" id="MY" d="m193 269-1 2c-1.473 0-1-1.952-1-3l1-1 1 2Z"/><path fill="#FCB2D9" id="PGRNl" d="m191 285-3 1c0-5.244 4-9.193 4-15l1-2c4.456 0 10-3.025 10 4v1l-1 2-1 1v1l-2 2-8 5ZM265 285l3 1c0-4.919-3-8.35-3-14-1.473 0-1-1.952-1-3-3.958 0-11-2.881-11 4v1l2 2v1l3 3 7 5Z"/><path fill="#FF9BCD" id="MY" d="m266 268-1 1v-1h1ZM217 297c5.06 0 10.028-6 11.5-6l2 3c3.043 1.522 4.734 3 8.5 3 0-1.298-8-5.118-8-9l-2.5 2c-3.813 1.906-2.5-6.373-2.5-7v-1l-4.5 1c-2.504-1.252.324-8 3-8l1.5 2c0-1.49.735-8-1-8 0 8.278-13.974 15-21 15 0 5.831-13 10.508-13 1l-3 1c0 1.643-3.765 1-5 1-4.313 0-8-2-13-2h-2c0 .984 12.927 4 5 4 0 1.781 6.197 1.348 7.5 2 7.961 3.981 21.201 6 30.5 6 0-1.979-7.373-1.754-6-4.5 2.107-4.213 17.576-9.848 20-5 2.634 5.269-8 7.925-8 9.5ZM265 269v3c-1.473 0-1-1.952-1-3h1Z"/><path fill="#FF9BCD" id="MY" fill-rule="evenodd" d="m232 275-1 3.5c0 12.446 9.691-3.5 1-3.5m49 15c-3.003 0-5.953 1.727-8.5 3-4.678 2.339-21.795 4-27.5 4 0-1.918 5.298-1.096 6-2.5 1.393-2.786-1.799-4.65-3.5-5.5-2.8-1.4-9.245-4.877-13-3l-3.5 2-1-5c0-1.908-.788-13 1-13 0 7.743 15.739 14 22 14 0 5.334 12 11.463 12 1l3 1c1.804 0 5.136 2.182 7.5 1 2.922-1.461 8.168-3 11.5-3l1 1c0 3.516-7-.706-7 5Z"/><path fill="#FF9BCD" id="MY" d="M318 271c-1.238 0-3 .423-3 2 1.238 0 3-.423 3-2ZM204 273l-1 1v-1h1ZM304 276c0 1.674-1 2.326-1 4 1.674 0 12-5.501 12-7-2.592 0-3.416.958-5.5 2-2.116 1.058-2.898-2-4.5-2l-1 3ZM253 274l2 2-2-2Z"/><path fill="#CACCC8" id="ml" d="m226 277-1.5-2c-2.676 0-5.504 6.748-3 8l4.5-1v-5ZM232 275l-1 3.5c0 12.446 9.691-3.5 1-3.5Z"/><path fill="#CBC7CC" id="sctv" d="M171 289h2c7.927 0-5-3.016-5-4-3.256 0-15-4.468-15-9-3.208 0 1 4.47 1 5h1l2 2h1l3 2h1l3 2h2l4 2Z"/><path fill="#FF9BCD" id="MY" d="m155 276 2 2-2-2ZM202 276l-1 1 1-1Z"/><path fill="#CBC7CC" id="sctv" d="M281 290h1l1-1h2l2-1c0-1.473 1.952-1 3-1h1l2-1 2-1h1l1-1 2-1 2-1 1-1 1-1c0-1.674 1-2.326 1-4-2.132 0-9.649 9-16 9 0 3.516-7-.706-7 5Z"/><path fill="#FF9BCD" id="MY" d="m258 280-3 1v-4l3 3ZM199 280h2v-2l-2 2Z"/><path fill="#FCB2D8" id="PPY" d="M204 284c0 5.831-13 10.508-13 1l8-5h2c0 2.043.591 4 3 4ZM253 284c0 5.334 12 11.463 12 1l-7-5-3 1c0 2.215-2 1.519-2 3Z"/><path fill="#FF9BCD" id="MY" d="m303 280-1 1 1-1ZM155 281l2 2-2-2ZM302 281l-1 1 1-1ZM164 282l1 1-1-1ZM301 282l-2 1 2-1ZM158 283l3 2c-1.238 0-3-.423-3-2ZM167 283l1 1-1-1Z"/><path fill="#FFC6E2" id="RPA" d="m230 283 1 5-2.5 2c-3.813 1.906-2.5-6.373-2.5-7h4Z"/><path fill="#FF9BCD" id="MY" d="m299 283-2 1 2-1ZM297 284l-1 1 1-1ZM162 285l3 2c-1.238 0-3-.423-3-2ZM295 285l-2 1 2-1Z"/><path fill="#C7C9C9" id="py" d="M211 297h6c0-1.575 10.634-4.231 8-9.5-2.424-4.848-17.893.787-20 5-1.373 2.746 6 2.521 6 4.5ZM239 297h6c0-1.918 5.298-1.096 6-2.5 1.393-2.786-1.799-4.65-3.5-5.5-2.8-1.4-9.245-4.877-13-3l-3.5 2c0 3.882 8 7.702 8 9Z"/><path fill="#FF9BCD" id="MY" d="m293 286-2 1 2-1ZM167 287l4 2-4-2ZM290 287c-1.048 0-3-.473-3 1 1.048 0 3 .473 3-1ZM287 288l-2 1 2-1ZM283 289l-1 1 1-1Z"/></svg>