<svg xmlns="http://www.w3.org/2000/svg" viewBox="0 0 456 320"><path fill="#1BA696" id="RSPagl1" d="m187 12-15 3c0-1.564-1-3.876-1-6 5.927 0 9.84-2 16-2v5Z"/><path fill="#1BA598" id="RSPd1" d="M219 17c0 1.747-.253 2-2 2l-9.5-6c-5.262-2.631-14.964-1-20.5-1V7c7.027 0 32-.081 32 10ZM237 18l2 1c2.438 0 7.619-4.56 10.5-6 6.122-3.06 14.02-1 20.5-1V7c-7.716 0-17.057-1.222-23.5 2l-6 5c-.865.433-3.5 2.48-3.5 4Z"/><path fill="#1BA696" id="RSPagl1" d="m270 12 15 3 1-6c-6.089 0-9.911-2-16-2v5Z"/><path fill="#0A8589" id="VISpm1" d="m145 16 1 4c8.918 0 16.925-5 26-5 0-1.564-1-3.876-1-6-3.254 0-16.454 3.477-19.5 5-1.053.527-6.5.851-6.5 2ZM312 16l-1 4-26-5 1-6c3.118 0 16.55 3.525 19.5 5 1.053.527 6.5.851 6.5 2Z"/><path fill="#1BA697" id="RSPd2/3" d="M217 20c-2.349 0-1.382 3-4 3l-4.5-3-10-3c-3.448-1.724-8.443 2-11.5 2v-7c5.536 0 15.238-1.631 20.5 1l9.5 6v1ZM243 23h1l4.5-3 9-3c3.549-1.774 9.141 2 12.5 2v-7c-6.48 0-14.378-2.06-20.5 1-2.881 1.44-8.062 6-10.5 6v1l4 3Z"/><path fill="#1AA496" id="RSPagl2/3" d="M173 21v2c5.321 0 8.857-4 14-4v-7l-15 3 1 6ZM284 21l-1 2c-4.728 0-8.359-4-13-4v-7l15 3c0 1.564-1 3.876-1 6Z"/><path fill="#08858B" id="VISpm2/3" d="M173 21c-7.778 0-16.097 9-24 9 0-.987-2.58-9-3-9v-1c8.918 0 16.925-5 26-5l1 6ZM307 30h1c0-1.67 1.131-9 3-9v-1l-26-5c0 1.564-1 3.876-1 6 2.157 0 14.89 5.695 17.5 7 .984.492 5.5.85 5.5 2Z"/><path fill="#098589" id="VISp1" d="m91 39 2 4c4.625 0 10.419-5.96 14.5-8 8.468-4.234 29.249-14 38.5-14v-1l-1-4c-7.616 0-34.081 11.29-41.5 15L91 39ZM363 43h1l2-4c-4.625 0-9.722-6.111-13.5-8-6.831-3.416-33.76-15-40.5-15l-1 4v1c6.796 0 30.734 10.617 37.5 14 3.799 1.9 10.303 8 14.5 8Z"/><path fill="#1AA596" id="RSPd5" d="M185 30c2.75 0 6.442-4.529 9.5-3 1.506.753 7.18 4 8.5 4 3.574 0 5.719-7 10-7v-1l-4.5-3-10-3c-3.448-1.724-8.443 2-11.5 2 0 3.378-2 6.922-2 11Z"/><path fill="#1BA597" id="RSPv1" d="M273 78c0 1.238-.423 3-2 3-5.248 0-17.375-8-26-8h-1l-5-2.5c-2.18-4.36-3.833-8.666-6-13-1.006-2.012-4-9.496-4-11.5l-.5-5-1.5 4.5c0 3.782-2.366 9.733-4 13l-6 12c-.694 1.388-4-.23-4 2.5h-2c-8.114 0-20.538 8-26 8l-2-3c2.359 0 4.475-1.987 6.5-3 6.444-3.222 14.447-3.724 21-7 7.038-3.519 8.632-13.764 11.5-19.5 2.408-4.816 1.544-28.5-5-28.5v-1c1.747 0 2-.253 2-2 2.013 0 7.052 9.604 8 11.5.429.857-.075 5.5 1.5 5.5l.5-4.5c.996-1.992 5.645-11.5 8-11.5l2 1v1c0 2.089-4.894 9.288-6 11.5-1.992 3.983.471 12.941 2 16 2.485 4.97 3.458 10.916 6 16 2.104 4.209 27.59 14.5 32 14.5Z"/><path fill="#1AA596" id="RSPd5" d="M253 32h1c0-9.113 14.796-2 18-2l-2-11c-3.359 0-8.951-3.774-12.5-2l-9 3-4.5 3 9 9Z"/><path fill="#1CA697" id="RSPagl5" d="M184 31c-4.116 0-6.343 4-10 4l-1-11v-1c5.321 0 8.857-4 14-4 0 3.378-2 6.922-2 11l-1 1ZM282 35h1V23c-4.728 0-8.359-4-13-4l2 11 10 5Z"/><path fill="#1AA597" id="RSPv2/3" d="m181 75 2 3c2.359 0 4.475-1.987 6.5-3 6.444-3.222 14.447-3.724 21-7 7.038-3.519 8.632-13.764 11.5-19.5 2.408-4.816 1.544-28.5-5-28.5-2.349 0-1.382 3-4 3v1c5.952 0 5.915 19.67 4 23.5-4.964 9.927-8.006 16.253-18.5 21.5l-8 2c-2.807 1.404-6.239 4-9.5 4ZM275 77l-2 1c-4.41 0-29.896-10.291-32-14.5-2.542-5.084-3.515-11.03-6-16-1.529-3.059-3.992-12.017-2-16 1.106-2.212 6-9.411 6-11.5l4 3c0 4.863-8.314 10.871-5 17.5 2.447 4.894 4.183 19.841 9.5 22.5 5.897 2.948 12.219 5.11 18 8l9.5 4v2Z"/><path fill="#0A828C" id="VISp2/3" d="M93 44c0 .853 2.992 6 4 6l14.5-7c5.486-2.743 32.217-13 37.5-13 0-.987-2.58-9-3-9-9.251 0-30.032 9.766-38.5 14-4.081 2.04-9.875 8-14.5 8v1Z"/><path fill="#09828B" id="VISpm4" d="M149 30c0 2.003-.293 3 2 3 8.021 0 14.355-9 22-9v-3c-7.778 0-16.097 9-24 9ZM307 30l-1 4-23-10v-1l1-2c2.157 0 14.89 5.695 17.5 7 .984.492 5.5.85 5.5 2Z"/><path fill="#0A828C" id="VISp2/3" d="M359 51h1l3-8c-4.197 0-10.701-6.1-14.5-8-6.766-3.383-30.704-14-37.5-14-1.869 0-3 7.33-3 9 6.989 0 32.435 11.467 39.5 15 2.009 1.005 11.5 3.015 11.5 6Z"/><path fill="#1BA498" id="RSPv5" d="m277 73-2 2-9.5-4c-5.781-2.89-12.103-5.052-18-8-5.317-2.659-7.053-17.606-9.5-22.5-3.314-6.629 5-12.637 5-17.5h1l9 9c0 12.36 5.759 22.26 14.5 31 2.08 2.08 6.658 8 9.5 8v2Z"/><path fill="#088489" id="VISpm5" d="M153 43h1c4.78 0 16.679-8 20-8l-1-11c-7.645 0-13.979 9-22 9v1c0 3.489 2 5.32 2 9Z"/><path fill="#1BA498" id="RSPv5" d="m180 74 1 1c3.261 0 6.693-2.596 9.5-4l8-2c10.494-5.247 13.536-11.573 18.5-21.5 1.915-3.83 1.952-23.5-4-23.5-4.281 0-6.426 7-10 7v1c0 13.038-5.289 21.79-14.5 31-2.08 2.08-6.658 8-9.5 8l1 3Z"/><path fill="#088489" id="VISpm5" d="m283 35 4 2.5 16 5.5 3-9-23-10v11Z"/><path fill="#1AA697" id="RSPd6a" d="M187 42h1l7.5-4 7.5-6v-1c-1.32 0-6.994-3.247-8.5-4-3.058-1.529-6.75 3-9.5 3l-1 1-2 8c1.766 0 5 .607 5 3ZM268 42h1c0-1.803 3.592-3 5-3l-2-9c-3.204 0-18-7.113-18 2 0 4.35 14 6.417 14 10Z"/><path fill="#0B848B" id="VISp4" d="M99 55h1c0-2.03 9.733-4.117 11.5-5 6.832-3.416 33.104-16 39.5-16v-1c-2.293 0-2-.997-2-3-5.283 0-32.014 10.257-37.5 13L97 50v1l2 4Z"/><path fill="#1CA597" id="RSPagl6a" d="m185 30-1 1 1-1ZM280 41h1l1-6-10-5 2 9c1.623 0 6 .005 6 2Z"/><path fill="#0B848B" id="VISp4" d="m359 51-2 4-5.5-3c-10.708-5.354-23.335-7.667-34-13L306 34l1-4h1c6.989 0 32.435 11.467 39.5 15 2.009 1.005 11.5 3.015 11.5 6Z"/><path fill="#1CA597" id="RSPagl6a" d="M175 41h1c0-1.995 4.377-2 6-2l2-8c-4.116 0-6.343 4-10 4l1 6Z"/><path fill="#1AA498" id="RSPv6a" d="M181 60c0 3.205-2 6.924-2 11 2.842 0 7.42-5.92 9.5-8 9.211-9.21 14.5-17.962 14.5-31l-7.5 6-7.5 4c0 2.533 2.357 8-3 8 0 3.421-4 6.2-4 10ZM277 71h1c0-4.135-2-7.306-2-11l-5-10c-3.661 0-3-5.072-3-8 0-3.583-14-5.65-14-10h-1c0 12.36 5.759 22.26 14.5 31 2.08 2.08 6.658 8 9.5 8Z"/><path fill="#088389" id="VISp5" d="m100 55 4 8 7.5-4c6.364-3.182 35.6-16 41.5-16 0-3.68-2-5.511-2-9-6.396 0-32.668 12.584-39.5 16-1.767.883-11.5 2.97-11.5 5ZM352 63h1l4-8-5.5-3c-10.708-5.354-23.335-7.667-34-13L306 34l-3 9c6.366 0 34.811 12.655 41.5 16l7.5 4Z"/><path fill="#09858B" id="VISpm6a" d="M173 43c-5.603 0-10.465 6-17 6-.913 0-2-5.014-2-6 4.78 0 16.679-8 20-8l1 6-2 2ZM300 50h1l2-7-16-5.5-4-2.5h-1l-1 6c3.616 0 6.423 4.462 9.5 6 1.517.758 9.5 1.054 9.5 3Z"/><path fill="#029FAB" id="VISrl1" d="m93 44-6 3-3-3 7-5 2 4v1Z"/><path fill="#1AA598" id="RSPagl6b" d="M182 41c-2.124 0-4.436 1-6 1v-1c0-1.995 4.377-2 6-2v2Z"/><path fill="#1BA698" id="RSPd6b" d="M186 42h1c0-2.393-3.234-3-5-3v2c1.145 0 4-.58 4 1ZM269 42h1l4-1v-2c-1.408 0-5 1.197-5 3Z"/><path fill="#1AA598" id="RSPagl6b" d="M274 41h6c0-1.995-4.377-2-6-2v2Z"/><path fill="#029FAB" id="VISrl1" d="M369 47h1l2-3-6-5-2 4 5 4Z"/><path fill="#088589" id="VISpm6b" d="m176 42-3 1 2-2h1v1Z"/><path fill="#CACCC7" id="cing" d="M164 51c5.357 0 9.367-5.567 14.5-3 3.376 1.688-2.341 12 2.5 12 0-3.8 4-6.579 4-10l2-3.5-1-4.5c0-1.58-2.855-1-4-1-2.124 0-4.436 1-6 1l-3 1c0 3.354-9.269 6-12 6l3 2ZM293 51c-10.839 0-17-11.353-17 9l-5-10-2-3.5 1-4.5 4-1h6c0 3.629 11.887 8 15 8l-2 2Z"/><path fill="#088589" id="VISpm6b" d="M300 50v1l-5-2c-3.113 0-15-4.371-15-8h1c3.616 0 6.423 4.462 9.5 6 1.517.758 9.5 1.054 9.5 3Z"/><path fill="#1AA497" id="RSPv6b" d="M188 42c0 2.533 2.357 8-3 8l2-3.5-1-4.5h2ZM270 42l-1 4.5 2 3.5c-3.661 0-3-5.072-3-8h2Z"/><path fill="#08858C" id="VISp6a" d="M106 69h1l5-2c0-2.657 9.714-6 12-6 0-2.46 3.378-2 5-2 0-2.162 6.067-2.284 7.5-3 5.305-2.652 13.307-6 19.5-6v-1c-.913 0-2-5.014-2-6h-1c-5.9 0-35.136 12.818-41.5 16l-7.5 4v1c1.014 0 2 3.959 2 5Z"/><path fill="#088589" id="VISpm6b" d="M156 50v1l5-2c2.731 0 12-2.646 12-6-5.603 0-10.465 6-17 6v1Z"/><path fill="#08858C" id="VISp6a" d="M349 69h1l2-6-7.5-4c-6.689-3.345-35.134-16-41.5-16l-2 7c8.99 0 27.45 7.975 35.5 12l12.5 7Z"/><path fill="#029EAC" id="VISrl2/3" d="M364 53h1l4-6-5-4h-1l-3 8 4 2Z"/><path fill="#0B838B" id="VISal1" d="m58 67 3 3c0-2.08 23.703-22 26-22v-1l-3-3c-1.564 0-26 20.902-26 23Z"/><path fill="#029EAC" id="VISrl2/3" d="m97 51-5 2-5-5v-1l6-3c0 .853 2.992 6 4 6v1Z"/><path fill="#0B838B" id="VISal1" d="M395 70h1l2-3c0-2.72-24.385-23-26-23l-2 3c0 2.668 25 17.534 25 23Z"/><path fill="#C8C9CA" id="fp" d="m63 141-2 2c0-12.241 12-24.229 12-34 1.96 0 5.739-9.239 7.5-11 8.524-8.524 15.49-19.245 27-25 11.41-5.705 23.745-9.373 35-15 1.537-.769 10.5-2.456 10.5-4 3.506 0 7.973-3 11-3 5.357 0 9.367-5.567 14.5-3 3.376 1.688-2.341 12 2.5 12 0 3.205-2 6.924-2 11h-2c0-10.977-10.381-17.06-20.5-12-2.864 1.432-13.5-1.903-13.5 4-1.357 0-6 .647-6 2h-1c-1.424 0-5 .362-5 2-1.424 0-5 .362-5 2h-1l-1 1-1 1h-2l-1 1-2 1h-1c-1.238 0-3 .423-3 2-1.238 0-3 .423-3 2h-1l-1 1-2 1-1 1-1 1-2 1-1 1-1 1-1 1h-1l-1 1-1 1-1 1-1 1-1 1-2 1-1 1-3 3-1 2-1 1-1 1-1 1-1 1v1l-1 1-1 1-1 1-1 2-1 2-1 1v1l-1 1-1 1-1 2-1 1v2l-1 1-1 1v1c-1.577 0-2 1.762-2 3v1c-2.109 0-2 2.535-2 4l-1 2-1 2v1c-1.638 0-2 3.576-2 5v2ZM395 143h1c0-6.556-4.209-13.918-7-19.5-3.555-7.11-6.421-14.843-10-22-5.598-11.195-25.63-27.065-36.5-32.5-9.614-4.807-20.391-7.196-30-12-1.574-.787-9.5-.838-9.5-3-1.426 0-10-1.288-10-3-10.839 0-17-11.353-17 9 0 3.694 2 6.865 2 11h2c0-1.423-1.978-3.544-1-5.5 3.18-6.36 13.163-10.169 20.5-6.5 3.406 1.703 13.5-1.951 13.5 4 1.623 0 6 .005 6 2h1c1.424 0 5 .362 5 2h1l4 2h1c1.238 0 3 .423 3 2h1c1.238 0 3 .423 3 2h1c1.238 0 3 .423 3 2h1l2 2h1l5 3 1 1 2 2h1l4 4h1l9 9 1 1 1 1v1l4 4v1l2 2v1l2 2v1l2 2v1l1 1v1l1 1v1l2 2v1c1.577 0 2 1.762 2 3v1c1.794 0 4 6.51 4 8v1c1.638 0 2 3.576 2 5v1l2 4Z"/><path fill="#098389" id="VISal2/3" d="M389 76h1l5-6c0-5.466-25-20.332-25-23h-1l-4 6c0 3.533 24 15.93 24 23ZM61 71c2.58 0 3.211 4 6 4l6-6.5C75.8 65.7 88.931 54 92 54v-1l-5-5c-2.297 0-26 19.92-26 22v1Z"/><path fill="#C9C9CA" id="scwm" d="M153 52v2c3.506 0 7.973-3 11-3l-3-2-5 2-3 1ZM304 52l-1 2c-1.426 0-10-1.288-10-3l2-2 5 2 4 1Z"/><path fill="#08858A" id="VISp6b" d="M153 52c-8.256 0-15.516 7-24 7 0-2.162 6.067-2.284 7.5-3 5.305-2.652 13.307-6 19.5-6v1l-3 1ZM349 69v1c-3.288 0-5.71-3.605-8.5-5-5.282-2.64-31.467-13-36.5-13l-4-1v-1h1c8.99 0 27.45 7.975 35.5 12l12.5 7Z"/><path fill="#019EAA" id="VISrl4" d="m99 55-4 2-3-3v-1l5-2 2 4ZM357 55l4 2c0-2.35 3-1.383 3-4l-4-2h-1l-2 4Z"/><path fill="#CBC9C7" id="or" d="m72 107 1 2c1.96 0 5.739-9.239 7.5-11 8.524-8.524 15.49-19.245 27-25 11.41-5.705 23.745-9.373 35-15 1.537-.769 10.5-2.456 10.5-4v-2c-8.256 0-15.516 7-24 7 0 1.638-3.576 2-5 2 0 2.132-9.957 6-12 6 0 1.803-3.592 3-5 3l-1 1h-1c0 1.397-14.366 11.866-17 14.5L83 91l-10 13-1 3ZM397 151v1c2.415 0-.134 7 1.5 7 1.325 0 1.5-9.457 1.5-11v-1c-1.579 0-1-2.855-1-4l-1-1v-4l-1-1v-3c-1.014 0-2-3.959-2-5v-1l-2-4v-1l-2-3v-1c-.966 0-9.298-12-6-12l-2-3-9-13c-.462 0-14.869-14.184-18.5-16l-4.5-4-2-1c-3.288 0-5.71-3.605-8.5-5-5.282-2.64-31.467-13-36.5-13l-1 2c0 2.162 7.926 2.213 9.5 3 9.609 4.804 20.386 7.193 30 12 10.87 5.435 30.902 21.305 36.5 32.5 3.579 7.157 6.445 14.89 10 22 2.791 5.582 7 12.944 7 19.5 0 2.097 1 5.293 1 8Z"/><path fill="#088588" id="VISal4" d="m389 76-2 1c-6.065 0-19.183-20-26-20 0-2.35 3-1.383 3-4h1c0 3.533 24 15.93 24 23ZM67 76l2 1c6.05 0 18.256-19 26-19v-1l-3-3c-3.069 0-16.2 11.7-19 14.5L67 75v1Z"/><path fill="#019DAB" id="VISrl5" d="M101 65h1l2-1v-1l-4-8h-1l-4 2v1c1.59 0 6 5.662 6 7ZM354 65h2c0-3.205 5-5.09 5-8l-4-2-4 8 1 2Z"/><path fill="#08848B" id="VISal5" d="M387 78c0 1.503-6.461 7-8 7l-8.5-9-10-8c-1.185-.592-4.5-1.012-4.5-3 0-3.205 5-5.09 5-8 6.817 0 19.935 20 26 20v1ZM77 86h1c0-2.948 20.55-21 23-21 0-1.338-4.41-7-6-7-7.744 0-19.95 19-26 19v1l8 8Z"/><path fill="#C9CCC9" id="dhc" d="m177 71-4 1-5-1c0-1.428-4.822-4-6-4h-1c0-1.577-1.762-2-3-2h-1c0-3.118-11.531-2-14-2 0-5.903 10.636-2.568 13.5-4 10.119-5.06 20.5 1.023 20.5 12ZM288 71l-5 1-3-1c0-1.423-1.978-3.544-1-5.5 3.18-6.36 13.163-10.169 20.5-6.5 3.406 1.703 13.5-1.951 13.5 4-1.741 0-11-.773-11 1h-1l-2 1h-1c-1.238 0-3 .423-3 2l-2 1-1 1h-1l-1 1-2 1Z"/><path fill="#08858A" id="VISp6b" d="M129 59c-1.622 0-5-.46-5 2 1.424 0 5-.362 5-2ZM124 61c-2.286 0-12 3.343-12 6 2.043 0 12-3.868 12-6Z"/><path fill="#C7C8CC" id="alv" d="M156 65h1c0-3.118-11.531-2-14-2-1.357 0-6 .647-6 2l10-1c3.013 0 6.611 1 9 1ZM310 64l9 1c0-1.995-4.377-2-6-2-1.741 0-11-.773-11 1h8Z"/><path fill="#029EAB" id="VISrl6a" d="m350 69 1 1c0-1.312 3-2.446 3-5l-1-2h-1l-2 6ZM105 70h1v-1c0-1.041-.986-5-2-5l-2 1 3 5Z"/><path fill="#7ECF4B" id="CA1" d="M128 242h1c4.72 0 7.101-8 11-8l-1-3h-1l-2-2-1-1-1-1-5-4c-3.787 0-8.263-8.881-10.5-10-4.107-2.053-20.616-18.731-23.5-24.5-2.874-5.749-4.178-12.356-7-18-1.828-3.655-.595-17.809 1-21 .62-1.238-1.144-5.5 1-5.5 0-26.546 29.762-43.131 49.5-53 2.069-1.034 5.13-3 7.5-3V64l-10 1h-1c0 1.638-3.576 2-5 2 0 1.638-3.576 2-5 2h-1l-1 1-1 1h-2l-1 1-2 1h-1c0 1.577-1.762 2-3 2 0 1.577-1.762 2-3 2h-1l-1 1-2 1-1 1-1 1-2 1-1 1-1 1-1 1h-1l-1 1-1 1-1 1-1 1-1 1-2 1-1 1-3 3-1 2-1 1-1 1-1 1-1 1v1l-1 1-1 1-1 1-1 2-1 2-1 1v1l-1 1-1 1-1 2-1 1v2l-1 1-1 1v1c0 1.238-.423 3-2 3v1l-2 4-1 2-1 2v1c0 1.424-.362 5-2 5v2c0 1.357-.647 6-2 6v1c0 1.235.643 5-1 5v1c0 24.825 2.84 29.178 13 49.5 2.945 5.89 8.286 16.393 14.5 19.5 6.383 3.191 12.734 6.867 19 10 5.989 2.994 14.593 9 21.5 9Z"/><path fill="#57B947" id="ProS" d="M147 88h9V65c-2.389 0-5.987-1-9-1v24Z"/><path fill="#C7C8CC" id="alv" d="M299 65h1l1-1-2 1Z"/><path fill="#57B947" id="ProS" d="M301 88h9V64h-9l-1 1c0 7.354 1 15.129 1 23Z"/><path fill="#7ECF4B" id="CA1" d="M329 242h2l2-1h1c0-2.109 2.535-2 4-2 0-1.473 1.952-1 3-1l2-1c0-1.638 3.576-2 5-2 0-1.638 3.576-2 5-2 0-2.109 2.535-2 4-2 0-1.577 1.762-2 3-2 0-1.577 1.762-2 3-2l2-1c0-1.712 2.571-3 4-3 0-1.811 3.438-4 5-4l1-1c0-2.15 7.903-15 10-15 0-5.218 5.712-11.924 8-16.5 2.926-5.853 4-16.659 4-23.5v-5c-1.714 0-1-5.594-1-7v-1c-1.579 0-1-2.855-1-4v-1c-1.353 0-2-4.643-2-6v-1c-1.014 0-2-3.959-2-5v-1l-4-8v-1c-1.577 0-2-1.762-2-3v-1l-2-2v-1l-1-1v-1l-1-1v-1l-2-2v-1l-2-2v-1l-2-2v-1l-4-4v-1l-1-1-1-1-9-9h-1l-4-4h-1l-2-2-1-1c-1.408 0-5-1.197-5-3h-1l-2-2h-1c-1.238 0-3-.423-3-2h-1l-3-2h-1l-3-2h-1l-4-2h-1c-1.041 0-5-.986-5-2h-1l-9-1v24c0 1.007 8.267 2.383 9.5 3 4.872 2.436 9.178 5.589 14 8 16.669 8.335 33.5 29.668 33.5 48 1.788 0 1 11.092 1 13 0 13.297-1.568 16.635-7 27.5-.829 1.658-3.415 7.5-6 7.5 0 1.747-.253 2-2 2 0 1.562-2.189 5-4 5l-1 1-1 1-1 1-1 1-1 1-1 1-1 1-1 1-1 1-1 1-1 1-1 1-1 1-1 1-1 1-1 1-1 1-2 1-1 1-1 1-1 1-1 1-1 1-1 1-1 1-5 4-1 1v2c0 3.621 8.152 8 11 8h1Z"/><path fill="#09828C" id="VISal6a" d="M82 90h1c0-3.388 18.865-19 22-19v-1l-3-5h-1c-2.45 0-23 18.052-23 21l4 4Z"/><path fill="#C7C8CC" id="alv" d="M136 65c-1.424 0-5 .362-5 2 1.424 0 5-.362 5-2Z"/><path fill="#4FC244" id="SUB" d="M163 90h4c4.722 0 7.555-3 12-3l1-1 1-1c0-1.778 4.542-9-2-9l-3-2-3-2-5-1c-1.417 0-6-2.383-6-4h-1l-3-2h-2v23l7 2Z"/><path fill="#C7C8CC" id="alv" d="M158 65c1.238 0 3 .423 3 2l-3-2ZM298 65c-1.238 0-3 .423-3 2 1.238 0 3-.423 3-2Z"/><path fill="#4FC244" id="SUB" d="M289 90h4l8-2c0-7.871-1-15.646-1-23h-2c0 1.577-1.762 2-3 2l-2 1-1 1h-1l-1 1-2 1-5 1-2 1-4 3-2 1v8c4.576 0 8.844 5 14 5Z"/><path fill="#C7C8CC" id="alv" d="M320 65c1.424 0 5 .362 5 2-1.041 0-5-.986-5-2Z"/><path fill="#09828C" id="VISal6a" d="M374 90h1l4-4v-1l-8.5-9-10-8c-1.185-.592-4.5-1.012-4.5-3h-2c0 2.554-3 3.688-3 5v1c3.641 0 23 16.304 23 19Z"/><path fill="#039299" id="AUDpo1" d="M48 87h1c0-2.06 10.465-16 12-16v-1l-3-3c-.73 0-14 14.863-14 16l4 4Z"/><path fill="#08858A" id="VISp6b" d="M107 69v1c1.408 0 5-1.197 5-3l-5 2Z"/><path fill="#C7C8CC" id="alv" d="M131 67c-1.424 0-5 .362-5 2 1.424 0 5-.362 5-2ZM162 67c1.178 0 6 2.572 6 4-1.417 0-6-2.383-6-4ZM295 67l-2 1 2-1ZM326 67l4 2-4-2Z"/><path fill="#039299" id="AUDpo1" d="M408 87h1c0-2.618 3-1.65 3-4 0-1.392-11.965-16-14-16l-2 3c0 6.185 12 10.733 12 17Z"/><path fill="#C7C8CC" id="alv" d="m293 68-1 1 1-1Z"/><path fill="#009DAA" id="VISrl6b" d="m107 70-1 1v-2h1v1Z"/><path fill="#C7C8CC" id="alv" d="m125 69-1 1 1-1ZM291 69l-1 1 1-1ZM331 69c1.238 0 3 .423 3 2l-3-2Z"/><path fill="#009DAA" id="VISrl6b" d="M351 70v1l-2-1v-1h1l1 1Z"/><path fill="#0B848C" id="VISal6b" d="M105 71h1v-1h-1v1Z"/><path fill="#C7C8CC" id="alv" d="m124 70-1 1 1-1ZM290 70l-2 1 2-1Z"/><path fill="#029199" id="AUDpo2/3" d="M408 87c-2.741 0-2.268 4-5 4l-13-15 5-6h1c0 6.185 12 10.733 12 17ZM49 87l4 4 14-15v-1c-2.789 0-3.42-4-6-4-1.535 0-12 13.94-12 16Z"/><path fill="#0B848C" id="VISal6b" d="M83 90v1l5-5.5c2.634-2.634 17-13.103 17-14.5-3.135 0-22 15.612-22 19Z"/><path fill="#C7C8CC" id="alv" d="m121 71-1 1 1-1Z"/><path fill="#7DCD4B" id="HPF" d="m173 72 3 2 1-3-4 1Z"/><path fill="#47C83C" id="POST" d="m180 74-1 2-3-2 1-3h2l1 3ZM281 73l-4 3v-5h2l2 2Z"/><path fill="#7DCD4B" id="HPF" d="m283 72-2 1-2-2h1l3 1Z"/><path fill="#C7C8CC" id="alv" d="M335 71c1.238 0 3 .423 3 2l-3-2Z"/><path fill="#0B848C" id="VISal6b" d="M374 90v1c-.462 0-14.869-14.184-18.5-16l-4.5-4c3.641 0 23 16.304 23 19Z"/><path fill="#C7C8CC" id="alv" d="m120 72-2 1 2-1ZM117 73c-1.238 0-3 .423-3 2 1.238 0 3-.423 3-2Z"/><path fill="#FF7AFD" id="SCzo" d="m221 81 3 2c0-7.504-4.048-10-11-10h-2l-12 6h6c0-1.951 2.454-.477 3.5-1 4.045-2.022 12.5-3.874 12.5 3ZM235 82l-2 1c0-7.887 3.49-10 11-10h1c0 3.54 16 4.095 16 7l-9-1c0-1.043-5.353-2-6.5-2-4.642 0-10.5-2.336-10.5 5Z"/><path fill="#7DCD4B" id="HPF" d="m277 76-2 1v-2l2-2v3Z"/><path fill="#C7C8CC" id="alv" d="M339 73c1.238 0 3 .423 3 2-1.238 0-3-.423-3-2Z"/><path fill="#7DCD4B" id="HPF" d="M181 85h1l4-2-1-2-2-3-2-3-1-1-1 2c6.542 0 2 7.222 2 9Z"/><path fill="#C7C8CC" id="alv" d="M114 75c-1.238 0-3 .423-3 2 1.238 0 3-.423 3-2ZM343 75l2 2-2-2Z"/><path fill="#039298" id="AUDpo4" d="m53 92 4 1c.678 0 12-14.048 12-15v-1l-2-1-14 15v1Z"/><path fill="#FF78FF" id="SCsg" d="M205 79c6.035 0 10.652 2 16 2 0-6.874-8.455-5.022-12.5-3-1.046.523-3.5-.951-3.5 1ZM252 79h-10.5l-6.5 3c0-7.336 5.858-5 10.5-5 1.147 0 6.5.957 6.5 2Z"/><path fill="#039298" id="AUDpo4" d="m403 92-4 2c0-2.508-7.858-12.18-9.5-13l-2.5-3v-1l2-1h1l13 15v1Z"/><path fill="#C7C8CC" id="alv" d="m110 77-1 1 1-1Z"/><path fill="#7DCD4B" id="HPF" d="m271 83 4 2v-8l-2 1c0 1.238-.423 3-2 3v2Z"/><path fill="#C7C8CC" id="alv" d="m346 77 5 3c-1.408 0-5-1.197-5-3Z"/><path fill="#019197" id="AUDpo5" d="m57 94 10 6 3-3.5c1.224-2.448 7-7.496 7-10.5l-8-8c0 .952-11.322 15-12 15v1Z"/><path fill="#C7C8CC" id="alv" d="m109 78-2 1 2-1Z"/><path fill="#019197" id="AUDpo5" d="m399 95-10 5-10-14v-1c1.539 0 8-5.497 8-7l2.5 3c1.642.82 9.5 10.492 9.5 13v1Z"/><path fill="#C7C8CC" id="alv" d="m107 79-1 1 1-1Z"/><path fill="#FF7AFD" id="SCzo" d="M199 79c-1.048 0-3-.473-3 1 1.048 0 3 .473 3-1Z"/><path fill="#FD7AFF" id="SCop" d="M215 86c3.641 0 5.885 3 10 3l-1-6-3-2c-5.348 0-9.965-2-16-2h-6c0 1.473-1.952 1-3 1l-9 3c0 1.747.253 2 2 2h2c0-1.58 2.855-1 4-1h2c2.241 0 18-1.113 18 2ZM232 87v1c0 3.213 7.802-2 9-2 0-3.15 16.525-2 19-2h1c1.145 0 4-.58 4 1h2c3.162 0 2 .109 2-2l-8-3-9-1h-10.5l-6.5 3-2 1c-1.579 0-1 2.855-1 4Z"/><path fill="#C7C8CC" id="alv" d="m106 80-1 1 1-1ZM105 81l-2 1 2-1ZM352 81l2 2-2-2ZM103 82l-1 1 1-1Z"/><path fill="#029297" id="AUDp1" d="m31 121-1 1-5-1c0-10.991 9.332-21.164 14-30.5l5-7.5 4 4-7 9.5c-3.65 7.301-10 15.848-10 24.5Z"/><path fill="#C7C8CC" id="alv" d="m102 83-1 1 1-1Z"/><path fill="#FF64FF" id="MB" d="m179 87-1 2c1.351 0 11-2.756 11-4-1.747 0-2-.253-2-2h-1l-4 2-1 1-2 1ZM215 86c0 1.615-3.31 1-4.5 1-5.761 0-10.356 2-15.5 2 0-1.007 2-1.422 2-5 2.241 0 18-1.113 18 2ZM263 91h3c0-1.991-6-.538-6-7-2.475 0-19-1.15-19 2 0 1.665 4.222 1 5.5 1 3.052 0 16.5 1.35 16.5 4ZM275 85l7 6c-2.422 0-5.361-2.93-7.5-4h-4l-3.5-2c3.162 0 2 .109 2-2h2l4 2Z"/><path fill="#C7C8CC" id="alv" d="m355 83 4 4-4-4Z"/><path fill="#029297" id="AUDp1" d="M426 121h5c0-10.235-7.677-19.854-12-28.5-1.075-2.15-4.894-9.5-7-9.5 0 2.35-3 1.382-3 4 0 4.795 17 24.019 17 34Z"/><path fill="#C7C8CC" id="alv" d="m101 84-1 1 1-1Z"/><path fill="#FF64FF" id="MB" d="M195 84c-1.145 0-4-.58-4 1 1.145 0 4 .58 4-1Z"/><path fill="#FF8FFC" id="NOT" d="M161 115h1l1-1c0-2.33 17.584-18 19-18l1-1c2.747 0 4.56-4 8-4 0-2.109 2.535-2 4-2 0-1.007 2-1.422 2-5h-2c0 1.58-2.855 1-4 1h-2c0 1.244-9.649 4-11 4h-1l-2 2h-1l-1 1c-2.933 0-10 9.578-10 12l-1 1-1 6v4ZM295 110c0 2.6 2.504 4-2 4v-3.5c-.977-1.955-25.276-19.5-27-19.5 0-1.991-6-.538-6-7h1c0 1.58 2.855 1 4 1h2l3.5 2h4c2.139 1.07 5.078 4 7.5 4 2.52 0 12 11.701 12 14l1 2v3Z"/><path fill="#FF64FF" id="MB" d="M261 84c1.145 0 4-.58 4 1-1.145 0-4 .58-4-1Z"/><path fill="#C7C8CC" id="alv" d="m99 85-1 1 1-1Z"/><path fill="#7DCD4B" id="HPF" d="M180 86h1v-1l-1 1Z"/><path fill="#029399" id="AUDpo6a" d="m67 101 5 2 10-13-4-4h-1c0 3.004-5.776 8.052-7 10.5l-3 3.5v1Z"/><path fill="#C7C8CC" id="alv" d="m98 86-1 1 1-1Z"/><path fill="#FF90FF" id="SCig" d="M221 97h6v-3c0-1.622.461-5-2-5-4.115 0-6.359-3-10-3 0 1.615-3.31 1-4.5 1-5.761 0-10.356 2-15.5 2l-2 2c14.305 0-11.881 15.381-13.5 17l-5.5 6c0 4.191 10.264 3.118 12.5 2 15.246-7.623 9.526-19 34.5-19ZM235 97c23.756 0 20.062 11.781 36.5 20 4.023 2.011 8.411-2 11.5-2 0-3.986-14.285-11.785-18.5-16-3.15-3.15-8.826-8-1.5-8 0-2.65-13.448-4-16.5-4-1.278 0-5.5.665-5.5-1-1.198 0-9 5.213-9 2h-1l-1 4-1 1v4h6Z"/><path fill="#029399" id="AUDpo6a" d="M384 104h1l4-3v-1l-10-14-4 4c0 4.776 9 8.674 9 14Z"/><path fill="#019298" id="AUDp2/3" d="M31 121c0 1.638 3.576 2 5 2 0-8.168 17-26.307 17-31v-1l-4-4h-1l-7 9.5c-3.65 7.301-10 15.848-10 24.5Z"/><path fill="#C7C8CC" id="alv" d="m97 87-1 1 1-1Z"/><path fill="#FF64FF" id="MB" d="M231 88h1v-1l-1 1Z"/><path fill="#C7C8CC" id="alv" d="m360 87 9 9-9-9Z"/><path fill="#019298" id="AUDp2/3" d="M420 123h1l5-1v-1c0-9.981-17-29.205-17-34h-1c-2.741 0-2.268 4-5 4v1c0 2.697 17 22.558 17 31Z"/><path fill="#C7C8CC" id="alv" d="m96 88-1 1 1-1Z"/><path fill="#7BD04A" id="DG-mo" d="M119 161h1c1.34 0 1.283-10.067 2-11.5 2.42-4.84 12.781-27.5 19-27.5l1-1 1-1 1-1h1l1-1 1-1 1-1 1-1 8-8c0-3.354 8-8.507 8-16l-2-1-7-2h-9c-2.37 0-5.431 1.966-7.5 3-19.738 9.869-49.5 26.454-49.5 53 0 1.774-.273 7 2 7 1.55 0 9-12.059 9-14 0-17.376 27.713-31.606 40.5-38 3.542-1.771 13.297-9.906 16.5-3.5.565 1.13-2.877 5.188-3.5 5.5-6.87 3.435-13.362 9.362-19 15-11.954 11.954-16.5 26.917-16.5 44v1ZM336 161h1c0-16.8-2.763-31.263-14.5-43-6.169-6.169-13.246-10.246-18.5-15.5-1.786-1.786-6.533-4.934-5-8 2.603-5.207 15.644 4.072 18.5 5.5 12.923 6.461 37.5 19.414 37.5 37l2 2.5c.981 1.963 5.527 11.5 8 11.5l2-4c0-18.332-16.831-39.665-33.5-48-4.822-2.411-9.128-5.564-14-8-1.233-.617-9.5-1.993-9.5-3h-9l-8 2-2 3c0 8.392 17 18.66 17 23l1 1h1l10 8.5c8.923 8.923 16 22.809 16 35.5Z"/><path fill="#C7C8CC" id="alv" d="m95 89-1 1 1-1Z"/><path fill="#FF64FF" id="MB" d="M177 89c-1.747 0-2 .253-2 2l2-2ZM191 91h2l2-2c-1.465 0-4-.109-4 2Z"/><path fill="#029298" id="AUDpo6b" d="M72 104h1l10-13v-1h-1l-10 13v1Z"/><path fill="#C7C8CC" id="alv" d="m94 90-2 1 2-1Z"/><path fill="#7DCD4B" id="HPF" d="m167 90-2 1-2-1h4ZM293 90l-2 3c0-2.215-2-1.519-2-3h4Z"/><path fill="#029298" id="AUDpo6b" d="M383 104h1c0-5.326-9-9.224-9-14h-1v1l9 13Z"/><path fill="#C7C8CC" id="alv" d="m92 91-1 1 1-1Z"/><path fill="#FF64FF" id="MB" d="m174 91-1 1 1-1Z"/><path fill="#FC8FFE" id="PPT" d="m174 114-3 1-8-1c0-2.33 17.584-18 19-18l1-1c2.747 0 4.56-4 8-4h2c14.305 0-11.881 15.381-13.5 17l-5.5 6ZM283 115h2l8-1v-3.5c-.977-1.955-25.276-19.5-27-19.5h-3c-7.326 0-1.65 4.85 1.5 8 4.215 4.215 18.5 12.014 18.5 16Z"/><path fill="#039397" id="AUDp4" d="M39 124h1c0-9.36 17-25.129 17-30v-1l-4-1c0 4.693-17 22.832-17 31l3 1Z"/><path fill="#FF64FF" id="MB" d="m230 92-1 1 1-1Z"/><path fill="#039397" id="AUDp4" d="m420 123-3 1c0-4.972-9.578-19.078-13.5-23-1.307-1.308-1.74-6-4.5-6v-1l4-2c0 2.697 17 22.558 17 31Z"/><path fill="#65A83D" id="DG-sg" d="M101 137c0-17.376 27.713-31.606 40.5-38 3.542-1.771 13.297-9.906 16.5-3.5.565 1.13-2.877 5.188-3.5 5.5-6.87 3.435-13.362 9.362-19 15-11.954 11.954-16.5 26.917-16.5 44-2.845 0-2-8.344-2-10.5 0-6.714 3.138-16.275 6-22 1.334-2.668 4-4.276 4-7.5l9-9.5 5.5-4.5 7.5-6.5c0-1.385-5.977 1.239-6.5 1.5-6.665 3.333-12.374 8.687-19 12l-6.5 6-2 1-4 3.5c-1.478 2.955-6.717 13.5-10 13.5ZM337 161h1c0-4.158 3.233-13.034 1-17.5-.952-1.904-10-23.181-10-23.5l-12.5-13c-1.163-.581-10.165-7.417-9-8 2.557-1.279 6.083 3.041 8 4 3.54 1.77 25.5 14.859 25.5 17 3.949 0 11.523 17 14 17 0-17.586-24.577-30.539-37.5-37-2.856-1.428-15.897-10.707-18.5-5.5-1.533 3.066 3.214 6.214 5 8 5.254 5.254 12.331 9.331 18.5 15.5 11.737 11.737 14.5 26.2 14.5 43Z"/><path fill="#039199" id="AUDp5" d="M40 124c0 .176 11.858 5 13 5 0-6.966 6.983-15.466 10-21.5l4-6.5v-1l-10-6c0 4.871-17 20.64-17 30Z"/><path fill="#FF64FF" id="MB" d="M214 137c-3.843 0-5.487-4.507-10.5-2-2.496 1.248-14.817 8-16.5 8 0-6.95-.157-11.815-3-17.5l-9.5-8.5-3.5-2 3-1c0 4.191 10.264 3.118 12.5 2 15.246-7.623 9.526-19 34.5-19 0 2.729-5.007 1.254-6.5 2l-13 7c-2.734 1.367-3.552 16.276 3 13 5-2.5 5.637-10 13.5-10 0 2.522-2 4.909-2 8l-1 2.5c0 1.855 5.996-3.248 6.5-3.5 2.904-1.452 5.5.084 5.5-4l-1-2c1.788 0 1-11.092 1-13v-3h2v3c0 4.284 1 9.371 1 13v2c-3.682 0 11 11.476 11 5l-2-8c5.566 0 11.844 11 14.5 11 3.702 0 3.648-12.676 1-14-4.083-2.041-7.451-4.725-12-7-1.471-.736-7.5.357-7.5-2 23.756 0 20.062 11.781 36.5 20 4.023 2.011 8.411-2 11.5-2h2l-11 8.5c-4.782 9.564-4 10.137-4 20.5-.377 0-10.111-6.305-11.5-7l-11-3-4.5 2v-1c0-3.909 1.691-10-3-10-3.997 0-5.713-6.607-8.5-8-3.707-1.854-1.691 4-3 4-.873 0-.592-5.704-4-4l-8.5 9c0-1.244-2.479-1.541-3-.5-.711 1.422-.232 10.5 1 10.5v1Z"/><path fill="#C7C8CC" id="alv" d="m88 95-1 2 1-2Z"/><path fill="#FF64FF" id="MB" d="m183 95-1 1 1-1Z"/><path fill="#039199" id="AUDp5" d="M403 129h1c0-1.639 11.202-5 13-5 0-4.972-9.578-19.078-13.5-23-1.307-1.308-1.74-6-4.5-6l-10 5v1c2.379 0 14 24.36 14 28Z"/><path fill="#C7C8CC" id="alv" d="m87 97-1 1 1-1Z"/><path fill="#FF90FE" id="SCiw" d="M218 109c1.293 0 8-3.155 8 1 1.788 0 1-11.092 1-13h-6c0 2.729-5.007 1.254-6.5 2l-13 7c-2.734 1.367-3.552 16.276 3 13 5-2.5 5.637-10 13.5-10ZM239 109c-1.804 0-5.136-2.182-7.5-1l-1.5 2c0-3.629-1-8.716-1-13h6c0 2.357 6.029 1.264 7.5 2 4.549 2.275 7.917 4.959 12 7 2.648 1.324 2.702 14-1 14-2.656 0-8.934-11-14.5-11Z"/><path fill="#C7C8CC" id="alv" d="m370 97 1 1-1-1ZM86 98l-1 1 1-1ZM85 99l-1 1 1-1Z"/><path fill="#7ECE4A" id="DG-po" d="M117 119c3.325 0 7.31 1 10 1l9-9.5 5.5-4.5 7.5-6.5c0-1.385-5.977 1.239-6.5 1.5-6.665 3.333-12.374 8.687-19 12l-6.5 6ZM329 120h12c0-2.141-21.96-15.23-25.5-17-1.917-.959-5.443-5.279-8-4-1.165.583 7.837 7.419 9 8l12.5 13Z"/><path fill="#C7C8CC" id="alv" d="m371 99 4 4-4-4ZM84 100l-1 1 1-1Z"/><path fill="#019396" id="AUDp6a" d="m53 129 6 2c0-7.766 6.706-14.912 10-21.5l3-5.5v-1l-5-2-4 6.5c-3.017 6.034-10 14.534-10 21.5ZM403 129l-5 2c0-8.287-13-19.82-13-27l4-3c2.379 0 14 24.36 14 28Z"/><path fill="#C7C8CC" id="alv" d="m83 102-1 1 1-1ZM82 103l-1 1 1-1Z"/><path fill="#039198" id="AUDp6b" d="M59 132h1l1-2v-1l1-2 1-2v-1l1-2 1-1v-2l1-1 1-2 1-2 1-1v-1l1-1 2-4 1-3h-1l-3 5.5c-3.294 6.588-10 13.734-10 21.5v1Z"/><path fill="#C7C8CC" id="alv" d="m81 104-1 1 1-1Z"/><path fill="#C7CBCB" id="bsc" d="M143 123h1l1-1h1l1-1h3l1-1 1-1c1.238 0 3-.423 3-2 0-1.702 4.802-6 6-6l1-6v-1l-4 3-1 1-2 3-1 1-1 1-1 1-2 1-1 1-1 1h-1l-1 1-1 1-1 1h-1l-1 1-1 1 2 1Z"/><path fill="#FF64FF" id="MB" d="m163 104-1 1v-1h1Z"/><path fill="#C7C8CC" id="alv" d="m375 104 2 2-2-2Z"/><path fill="#039198" id="AUDp6b" d="M397 131h1c0-8.287-13-19.82-13-27h-2l2 3 6 12v1c1.577 0 2 1.762 2 3v1l2 4v1l2 2Z"/><path fill="#C7C8CC" id="alv" d="m80 105-1 2 1-2Z"/><path fill="#FF64FF" id="MB" d="M295 105v2l-1-2h1Z"/><path fill="#C7CBCB" id="bsc" d="M312 123h1c4.807 0-3-4.012-3-6h-1l-1-1h-1l-1-1-1-1-1-1-1-1-1-1-1-1-2-2-1-1-1-1-2-1v5l7 8 1 1h1l3 2h2l1 1h1l1 1Z"/><path fill="#CAC7CB" id="fiber tracts" d="m297 106 1 1-1-1Z"/><path fill="#CCC8CA" id="ar" d="m73 109-3 2 2-4 1 2Z"/><path fill="#C7C8CC" id="alv" d="m79 107-1 2 1-2Z"/><path fill="#CAC7CB" id="fiber tracts" d="m158 107-1 1v-1h1Z"/><path fill="#C7C8CC" id="alv" d="m377 107 2 2-2-2Z"/><path fill="#CCC8CA" id="ar" d="M385 107c-3.298 0 5.034 12 6 12l-6-12Z"/><path fill="#FF8FFF" id="SCdg" d="M227 112c-3.441 0-10.744 5-11 5 0-3.091 2-5.478 2-8 1.293 0 8-3.155 8 1l1 2ZM230 112c0 2.207 5.176.338 6.5 1 1.19.595 2.317 4 4.5 4l-2-8c-1.804 0-5.136-2.182-7.5-1l-1.5 2v2Z"/><path fill="#CAC7CB" id="fiber tracts" d="m299 108 2 2-2-2Z"/><path fill="#CBC9C7" id="or" d="M59 154v4c-3.459 0-2-9.152-2-14v-1l1-1c1.473 0 1-1.952 1-3v-4l1-2c1.473 0 1-1.952 1-3v-1l1-2 1-2v-1l1-2 1-1v-2l1-1 1-2 1-2 1-1v-1l1-1 3-2c0 9.771-12 21.759-12 34-2.076 0-2 8.928-2 11Z"/><path fill="#C7C8CC" id="alv" d="m78 109-1 1 1-1Z"/><path fill="#FF64FF" id="MB" d="M302 118c-1.712 0-3-1.212-3 2l-6-6c4.504 0 2-1.4 2-4l7 8Z"/><path fill="#C7C8CC" id="alv" d="m379 110 2 2-2-2Z"/><path fill="#CCC8CA" id="ar" d="m70 111-1 1 1-1Z"/><path fill="#C7C8CC" id="alv" d="m77 111-1 1 1-1Z"/><path fill="#CAC7CB" id="fiber tracts" d="m155 111-1 1 1-1Z"/><path fill="#FF64FF" id="MB" d="M157 120h1c0-2.666 3-2.482 3-5v-4c-1.198 0-6 4.298-6 6 1.577 0 2 1.762 2 3Z"/><path fill="#CAC7CB" id="fiber tracts" d="m302 111 1 1-1-1Z"/><path fill="#C7C8CC" id="alv" d="m76 112-1 1 1-1Z"/><path fill="#CAC7CB" id="fiber tracts" d="m154 112-1 1 1-1Z"/><path fill="#FF8FFE" id="SCdw" d="M227 112c-3.441 0-10.744 5-11 5l-1 2.5c0 1.855 5.996-3.248 6.5-3.5 2.904-1.452 5.5.084 5.5-4ZM230 112c-3.682 0 11 11.476 11 5-2.183 0-3.31-3.405-4.5-4-1.324-.662-6.5 1.207-6.5-1Z"/><path fill="#CCC8CA" id="ar" d="m69 113-1 1 1-1Z"/><path fill="#C7C8CC" id="alv" d="m75 113-1 2 1-2Z"/><path fill="#CAC7CB" id="fiber tracts" d="m153 113-1 1 1-1ZM304 113l1 1-1-1Z"/><path fill="#C7C8CC" id="alv" d="m381 113 1 1-1-1Z"/><path fill="#CCC8CA" id="ar" d="m68 114-1 2 1-2Z"/><path fill="#FF64FF" id="MB" d="m163 114-1 1 1-1Z"/><path fill="#FE8EFF" id="APN" d="M163 159c3.311 0 4.81 6 9 6 11.88 0 15-10.316 15-22 0-6.95-.157-11.815-3-17.5l-9.5-8.5-3.5-2-8-1-1 1h-1c0 2.518-3 2.334-3 5l-1 2c0 6.232-.403 23.694 2 28.5l4 8.5ZM290 163l-5 2c-12.548 0-15-8.721-15-21 0-10.363-.782-10.936 4-20.5l11-8.5 8-1 6 6v2l-1 25.5c-1.135 2.27-4 8.15-4 10.5l-1 1v1l-1 1-1 1-1 1Z"/><path fill="#C7C8CC" id="alv" d="m74 115-1 1 1-1Z"/><path fill="#CAC7CB" id="fiber tracts" d="m150 115-1 1v-1h1ZM306 115l1 1-1-1Z"/><path fill="#C7C8CC" id="alv" d="m382 115 1 1-1-1Z"/><path fill="#CCC8CA" id="ar" d="m67 116-1 2 1-2Z"/><path fill="#CAC7CB" id="fiber tracts" d="m149 116-1 1v-1h1ZM308 116l1 1-1-1ZM147 117l-1 1 1-1Z"/><path fill="#FC8FFF" id="PAG" fill-rule="evenodd" d="m227 128 1 3v2.5c0 8.282 3.373-5.5-1-5.5m0-5-1 2.5c2.186 4.371 7.449-2.5 1-2.5m6 46-3 1-1-1c0-10.298-1-10.298-1 0l-2 1-3-1v-1l4-5.5c1.314-2.627-1.214-10.357-3.5-11.5-2.65-1.325-4.229 0-6.5 0l-3-14v-1l2-10 8.5-9c3.408-1.704 3.127 4 4 4 1.309 0-.707-5.854 3-4 2.787 1.393 4.503 8 8.5 8 0 1.698 1.069 10 3 10v1l-3 15-4.5-1c-3.865 1.933-8.001 8.498-5.5 13.5l3 4.5v1Z"/><path fill="#C7C8CC" id="alv" d="m383 117 2 2-2-2Z"/><path fill="#CCC8CA" id="ar" d="m66 118-1 1 1-1Z"/><path fill="#C7C8CC" id="alv" d="m73 118-1 1 1-1Z"/><path fill="#CAC7CB" id="fiber tracts" d="m146 118-1 1 1-1ZM302 118l1 1-1-1Z"/><path fill="#C7C8CC" id="alv" d="m72 119-1 1 1-1Z"/><path fill="#7ECE4A" id="DG-po" d="m117 119-2 1 2-1Z"/><path fill="#7ECF49" id="CA3" d="m144 232 3 1c2.765 0 5.165-2 7-2 0-6.356-17-17.583-17-27v-1c-2.621 0-3.179-6.858-4-8.5-1.644-3.289-12-24.6-12-26.5v-1l-1-1-1-5v-1c-2.845 0-2-8.344-2-10.5 0-6.714 3.138-16.275 6-22 1.334-2.668 4-4.276 4-7.5-2.69 0-6.675-1-10-1l-2 1-4 3.5c-1.478 2.955-6.717 13.5-10 13.5 0 1.941-7.45 14-9 14 0 5.523-3.85 17.801-1 23.5l6 14 8 10 24 24.5 5 4 1 1 1 1 2 2h1l5 1Z"/><path fill="#CAC7CB" id="fiber tracts" d="m145 119-1 1v-1h1ZM151 120h1v-1l-1 1ZM304 120l3 1-3-2v1Z"/><path fill="#7ECF49" id="CA3" d="m312 232-3 1c-1.745 0-6 .698-6-2l1-4 1-1 1-1 1-1c1.577 0 2-1.762 2-3l1-1 1-1 1-2 1-1v-1l1-1 1-1v-1l1-1 1-2 1-2 1-2v-1c2.109 0 2-2.535 2-4 1.638 0 2-3.576 2-5 1.638 0 2-3.576 2-5 1.638 0 2-3.576 2-5l2-4v-1l2-4c2.109 0 2-2.535 2-4 1.577 0 2-1.762 2-3v-1l1-1v-1l1-1 1-4c0-4.158 3.233-13.034 1-17.5-.952-1.904-10-23.181-10-23.5h12c3.949 0 11.523 17 14 17l2 2.5c.981 1.963 5.527 11.5 8 11.5 0 6.33 2.307 20.887 0 25.5-1.4 2.8-10 16.799-10 18.5-1.747 0-2 .253-2 2-1.811 0-4 3.438-4 5l-1 1-1 1-1 1-1 1-1 1-1 1-1 1-1 1-1 1-1 1-1 1-1 1-1 1-1 1-1 1-1 1-1 1-2 1-1 1-1 1-1 1-1 1-1 1-1 1-1 1-5 4h-1l-5 1Z"/><path fill="#CAC7CB" id="fiber tracts" d="m151 120-1 1 1-1Z"/><path fill="#FE909D" id="LP" d="M137 133h16c0-3.003.532-11 4-11l1-2h-7l-1 1h-3l-1 1h-1l-1 1h-1l-4 4-1 1-1 1-1 1-1 1 2 2ZM303 133h16c3.431 0 1-1.939 1-4l-7-6h-1l-1-1h-1l-1-1h-2l-3-1h-5v2c4.3 0 4 7.607 4 11Z"/><path fill="#C7C8CC" id="alv" d="M385 120c1.577 0 2 1.762 2 3-1.577 0-2-1.762-2-3Z"/><path fill="#CCC8CA" id="ar" d="M391 120c1.577 0 2 1.762 2 3l-2-3Z"/><path fill="#019099" id="AUDv1" d="M22 143h5c0-7.673 3-14.29 3-21l-5-1c0 7.093-3 14.394-3 22Z"/><path fill="#029198" id="AUDv2/3" d="m27 143 6 1c0-7.651 3-14.14 3-21-1.424 0-5-.362-5-2l-1 1c0 6.71-3 13.327-3 21Z"/><path fill="#CCC8CA" id="ar" d="m65 121-1 1 1-1Z"/><path fill="#C7C8CC" id="alv" d="M71 121c-1.577 0-2 1.762-2 3 1.577 0 2-1.762 2-3Z"/><path fill="#CAC7CB" id="fiber tracts" d="m147 121-1 1 1-1ZM309 121l1 1-1-1Z"/><path fill="#019099" id="AUDv1" d="M429 143h5c0-7.743-3-15.034-3-22h-5v1l2 4.5 1 16.5Z"/><path fill="#CCC8CA" id="ar" d="m64 122-1 2 1-2Z"/><path fill="#CAC7CB" id="fiber tracts" d="m145 122-1 1 1-1Z"/><path fill="#FF8D9D" id="POL" d="M169 167v2l-5-2c-4.916 0-8.213-14.925-10-18.5-.662-1.324 1.207-6.5-1-6.5v-9c0-3.003.532-11 4-11 0 6.232-.403 23.694 2 28.5l4 8.5 6 8ZM293 167c-2.486 0-3.725 1-6 1v-1l3-4 1-1 1-1 1-1v-1l1-1c0-2.35 2.865-8.23 4-10.5l1-25.5c4.3 0 4 7.607 4 11v9c0 5.969-1.5 12.5-4 17.5l-6 7.5Z"/><path fill="#029198" id="AUDv2/3" d="m429 143-5 1-3-21 5-1 2 4.5 1 16.5Z"/><path fill="#029197" id="AUDv4" d="M35 144h1c0-7.055 3-13.204 3-20l-3-1c0 6.86-3 13.349-3 21h2Z"/><path fill="#FF78FE" id="SCO" d="m227 123-1 2.5c2.186 4.371 7.449-2.5 1-2.5Z"/><path fill="#029197" id="AUDv4" d="M421 144h3l-3-21h-1l-3 1c0 6.308 4 13.569 4 20Z"/><path fill="#019098" id="AUDv5" d="m36 144 13 1 4-16c-1.142 0-13-4.824-13-5h-1c0 6.796-3 12.945-3 20Z"/><path fill="#C7C8CC" id="alv" d="M387 124c1.794 0 4 6.51 4 8l-4-8Z"/><path fill="#CCC8CA" id="ar" d="m393 124 2 4-2-4Z"/><path fill="#019098" id="AUDv5" d="M421 144c-4.504 0-9.733 2-14 2 0-6.138-3-11.081-3-17 0-1.639 11.202-5 13-5 0 6.308 4 13.569 4 20Z"/><path fill="#CCC8CA" id="ar" d="m63 125-1 2 1-2Z"/><path fill="#C7C8CC" id="alv" d="M69 125c-2.109 0-2 2.535-2 4l2-4Z"/><path fill="#CCCACA" id="pc" d="m216 126-2 10c-1.232 0-1.711-9.078-1-10.5.521-1.041 3-.744 3 .5ZM240 125c4.691 0 3 6.091 3 10-1.931 0-3-8.302-3-10Z"/><path fill="#CCC8CA" id="ar" d="m62 127-1 2 1-2Z"/><path fill="#FF6F80" id="TH" d="m139 127-1 1 1-1ZM138 128l-1 1 1-1Z"/><path fill="#A9A9A8" id="AQ" d="m227 128 1 3v2.5c0 8.282 3.373-5.5-1-5.5Z"/><path fill="#019397" id="AUDv6a" d="M49 146c2.124 0 4.436 1 6 1 0-2.494 1.453-15 4-15v-1l-6-2-4 16v1Z"/><path fill="#C7C8CC" id="alv" d="m67 129-1 2 1-2Z"/><path fill="#FF6F80" id="TH" d="m137 129-1 1 1-1ZM320 135c3.767 0 5.08 5 8 5 0-2.186-6.548-11-8-11 0 2.061 2.431 4-1 4l1 2Z"/><path fill="#CCC8CA" id="ar" d="M397 131v3c-1.014 0-2-3.959-2-5l2 2Z"/><path fill="#019397" id="AUDv6a" d="m407 146-5 1-4-16 5-2h1c0 5.919 3 10.862 3 17Z"/><path fill="#CCC8CA" id="ar" d="M60 132v1c1.473 0 1-1.952 1-3l-1 2Z"/><path fill="#FF6F80" id="TH" d="m136 130-1 1 1-1Z"/><path fill="#C7C8CC" id="alv" d="m66 131-1 2 1-2Z"/><path fill="#FF6F80" id="TH" d="M137 135c-2.72 0-3.553 2-6 2 0-1.417 2.383-6 4-6l2 2v2Z"/><path fill="#019198" id="AUDv6b" d="M400 147h2l-4-16h-1v4l1 2v1l1 2v3c1.579 0 1 2.855 1 4ZM55 147h1c0-1.048-.473-3 1-3v-3l1-2c0-1.048-.473-3 1-3v-1l1-2v-1h-1c-2.547 0-4 12.506-4 15Z"/><path fill="#CCC8CA" id="ar" d="m60 133-1 2 1-2Z"/><path fill="#FF8E9D" id="SGN" d="M143 143h4l6-1v-9h-16v2c0 3.374 6 5.875 6 8ZM310 143h4l6-8-1-2h-16v9l7 1Z"/><path fill="#C7C8CC" id="alv" d="M391 133c1.638 0 2 3.576 2 5-1.014 0-2-3.959-2-5ZM65 134c-1.638 0-2 3.576-2 5 1.638 0 2-3.576 2-5Z"/><path fill="#FF8FFD" id="MRN" fill-rule="evenodd" d="m191 168-3.5 2c-2.168 2.168-3.5 4.479-3.5 7.5 0 20.983 27.938 13.876 21 0-1.349-2.699-.913-6.707-4.5-8.5l-9.5-1m-10 26-2-4.5c-5.764-11.529 7.425.425 9 2l3 2.5 12-2 9.5-7c4.616-4.616 8.5-8.766 8.5-17l-1-2c0 13.745-20.531-11-3-11v-4l-3-14c-3.843 0-5.487-4.507-10.5-2-2.496 1.248-14.817 8-16.5 8 0 11.684-3.12 22-15 22 0 1.577-1.762 2-3 2v2c0 4.358-7.415 8-11 8 0 1.804-2.182 5.136-1 7.5 4.513 9.026 15.848 9.5 24 9.5ZM259 168c0 .086-7.078 5.656-8 7.5-3.464 6.927 4.767 19.367 12.5 15.5 12.92-6.46 11.722-23-4.5-23m7 26c3.769 0 3.94-6.72 6.5-8 4.493-2.247 6.747.007 4.5 4.5l-2 3.5c11.94 0 24-1.779 24-17-4.805 0-12-3.765-12-9v-1l-2-2c-12.548 0-15-8.721-15-21-.377 0-10.111-6.305-11.5-7l-11-3-4.5 2-3 15-1 4c6.983 0 10.926 10.287 3.5 14-3.739 1.87-3.444-1-6.5-1v1c0 15.01 16.317 25 30 25Z"/><path fill="#FE7F82" id="MGd" d="M125 148v5l6.5-6c3.76-1.88 6.887 0 10.5 0l1-4c0-2.125-6-4.626-6-8-2.72 0-3.553 2-6 2l-1 1-1 1v1l-1 1-1 1v2l-1 1v1l-1 2ZM315 147c3.613 0 6.74-1.88 10.5 0l5.5 6v-7l-1-1v-1l-1-1v-1l-1-1v-1c-2.92 0-4.233-5-8-5l-6 8 1 4Z"/><path fill="#CCC8CA" id="ar" d="M397 137h1l-1-2v2ZM58 139h1v-3c-1.473 0-1 1.952-1 3Z"/><path fill="#FF6F80" id="TH" d="m131 137-1 1 1-1Z"/><path fill="#C8C9CA" id="fp" d="M398 137v1l-1-1h1Z"/><path fill="#FF6F80" id="TH" d="m130 138-1 1 1-1Z"/><path fill="#CCC8CA" id="ar" d="M398 140h1l-1-2v2ZM58 139l-1 2 1-2Z"/><path fill="#C8C9CA" id="fp" d="M57 142h1c1.473 0 1-1.952 1-3h-1l-1 2v1Z"/><path fill="#C7C8CC" id="alv" d="M395 143v2c-1.353 0-2-4.643-2-6l2 4Z"/><path fill="#FF6F80" id="TH" d="m129 140-1 1 1-1Z"/><path fill="#C8C9CA" id="fp" d="M398 142h1v-2h-1v2Z"/><path fill="#C7C8CC" id="alv" d="M61 143v4c1.353 0 2-4.643 2-6l-2 2Z"/><path fill="#FF6F80" id="TH" d="m128 141-1 1 1-1ZM328 141l1 1-1-1Z"/><path fill="#CCC8CA" id="ar" d="m58 142-1 1v-1h1Z"/><path fill="#FF7E82" id="PoT" d="M164 167c0 2.393-3.234 3-5 3 0-1.804-8.268-5-10-5 0-2.947 3.986-7.527 2-11.5l-4-10.5 6-1c2.207 0 .338 5.176 1 6.5 1.787 3.575 5.084 18.5 10 18.5ZM293 167c0 2.098 1.939 3 4 3l10-5c0-2.839-3.69-6.121-2-9.5 1.221-2.442.82-5.64 2-8l3-4.5-7-1c0 5.969-1.5 12.5-4 17.5l-6 7.5Z"/><path fill="#CCC8CA" id="ar" d="M399 142v1l-1-1h1Z"/><path fill="#15B0B3" id="TEa1" d="m28 163-5 1c0-6.761-1-13.753-1-21h5c0 6.573 1 14.1 1 20Z"/><path fill="#16AFB3" id="TEa2/3" d="m35 162-7 1c0-5.9-1-13.427-1-20l6 1c0 6.506 2 12.376 2 18Z"/><path fill="#C8CBCC" id="ec" d="M59 154h1v-1c0-1.235-.643-5 1-5v-5c-2.076 0-2 8.928-2 11Z"/><path fill="#FD7F83" id="MGm" d="M149 165c-4.251 0-6.693 5.403-11.5 3-1.119-.559-4.5-.155-4.5-2h6.5c3.669-1.835 6.475-11.55 4.5-15.5l-2-3.5 1-4h4l4 10.5c1.986 3.973-2 8.553-2 11.5ZM307 165c.689 0 16 8.212 16 1-9.013 0-7.758-3.015-11-9.5-.752-1.503 1.167-9.5 3-9.5l-1-4h-4l-3 4.5c-1.18 2.36-.779 5.558-2 8-1.69 3.379 2 6.661 2 9.5Z"/><path fill="#FF6F80" id="TH" d="m329 143 1 1-1-1Z"/><path fill="#C8CBCC" id="ec" d="M396 151h1c0-2.707-1-5.903-1-8h-1v3c1.579 0 1 2.855 1 4v1ZM399 143c1.579 0 1 2.855 1 4-1.579 0-1-2.855-1-4Z"/><path fill="#16AFB3" id="TEa2/3" d="m421 162 8 1v-20l-5 1c0 6.187-3 12.416-3 18Z"/><path fill="#15B0B3" id="TEa1" d="m429 163 4 1c0-6.445 1-13.948 1-21h-5v20Z"/><path fill="#15B0B2" id="TEa4" d="M35 162h3l-3-18h-2c0 6.506 2 12.376 2 18Z"/><path fill="#15AFB3" id="TEa5" d="m47 161-9 1-3-18h1l13 1v1c0 5.297-2 9.474-2 15Z"/><path fill="#C8CBCC" id="ec" d="m63 194 8 10-10-19.5c-3.5-6.999-2-18.144-2-26.5-3.459 0-2-9.152-2-14-1.473 0-1 1.952-1 3v15l1 14v1c1.473 0 1 1.952 1 3l1 5c1.638 0 2 3.576 2 5l1 1v1l1 1v1Z"/><path fill="#7DCF4B" id="CA2" d="M92 151c0 5.523-3.85 17.801-1 23.5l6 14 8 10 24 24.5c-3.787 0-8.263-8.881-10.5-10-4.107-2.053-20.616-18.731-23.5-24.5-2.874-5.749-4.178-12.356-7-18-1.828-3.655-.595-17.809 1-21 .62-1.238-1.144-5.5 1-5.5 0 1.774-.273 7 2 7Z"/><path fill="#FF6F80" id="TH" d="m127 144-1 1 1-1Z"/><path fill="#15AFB3" id="TEa5" d="M418 162h1c0-6.522 2-11.671 2-18-4.504 0-9.733 2-14 2 0 4.703 2 9.513 2 15l9 1Z"/><path fill="#15B0B2" id="TEa4" d="M419 162h2c0-5.584 3-11.813 3-18h-3c0 6.329-2 11.478-2 18Z"/><path fill="#FF6F80" id="TH" d="m330 145 1 1-1-1Z"/><path fill="#15AFB2" id="TEa6a" d="m47 161 8 1v-15c-1.564 0-3.876-1-6-1 0 5.297-2 9.474-2 15Z"/><path fill="#FF6F80" id="TH" d="m126 146-1 2 1-2Z"/><path fill="#FE7E83" id="MGv" d="m131 165 2 1h6.5c3.669-1.835 6.475-11.55 4.5-15.5l-2-3.5c-3.613 0-6.74-1.88-10.5 0l-6.5 6v1c1.947 0 .959 11 6 11ZM325 165l-2 1c-9.013 0-7.758-3.015-11-9.5-.752-1.503 1.167-9.5 3-9.5 3.613 0 6.74-1.88 10.5 0l5.5 6v5c-1.762 0-2.441 7-6 7Z"/><path fill="#C7C8CC" id="alv" d="M395 146c1.579 0 1 2.855 1 4-1.579 0-1-2.855-1-4Z"/><path fill="#15AFB2" id="TEa6a" d="M409 161c-2.278 0-4.847 1-7 1v-15l5-1c0 4.703 2 9.513 2 15Z"/><path fill="#16B0B2" id="TEa6b" d="M55 162h1v-15h-1v15Z"/><path fill="#7DCF4B" id="CA2" d="M365 151c0 6.33 2.307 20.887 0 25.5-1.4 2.8-10 16.799-10 18.5 2.585 0 5.171-5.842 6-7.5 5.432-10.865 7-14.203 7-27.5 0-1.908.788-13-1-13l-2 4Z"/><path fill="#16B0B2" id="TEa6b" d="m401 161 1 1v-15h-2v1c1.788 0 1 11.092 1 13Z"/><path fill="#C7C8CC" id="alv" d="M61 148c-1.643 0-1 3.765-1 5 1.643 0 1-3.765 1-5Z"/><path fill="#C8CBCC" id="ec" d="m393 195-4 4c0-4.238 4.15-9.8 6-13.5 1.942-3.884 1.048-9.096 3-13 .675-1.35.247-9.5-1-9.5v-11c2.415 0-.134 7 1.5 7 1.325 0 1.5-9.457 1.5-11 1.788 0 1 11.092 1 13-1.614 0-1 3.31-1 4.5l-1 13.5-1 1v1l-1 4c0 1.974-2 3.517-2 6l-1 1v1l-1 2Z"/><path fill="#FD8FFD" id="ND" d="M221 168h2l4-5.5c1.314-2.627-1.214-10.357-3.5-11.5-2.65-1.325-4.229 0-6.5 0v5l1 1v1l1 1 1 7 1 2ZM236 168v1l-3-1-3-4.5c-2.501-5.002 1.635-11.567 5.5-13.5l4.5 1-1 4-1 4-1 1-1 8Z"/><path fill="#C7C8CC" id="alv" d="M397 152v6c-1.714 0-1-5.594-1-7h1v1ZM127 243h1v-1c-6.907 0-15.511-6.006-21.5-9-6.266-3.133-12.617-6.809-19-10-6.214-3.107-11.555-13.61-14.5-19.5-10.16-20.322-13-24.675-13-49.5h-1v4c0 8.356-1.5 19.501 2 26.5L71 204v1l2 2v1l7.5 10 10.5 9c1.697 0 14 6.588 14 8h1l2 1h1l1 1 7 2 1 1h1l1 1h2l1 1h1l1 1h2Z"/><path fill="#FF6F80" id="TH" d="M130 167c-2.983 0-3-1.321-3 3-3.215 0-2-13.361-2-16 1.947 0 .959 11 6 11l-1 2Z"/><path fill="#FF90FD" id="INC" d="m219 159 1 7c0 13.745-20.531-11-3-11v1l1 1v1l1 1ZM237 160l-1 8c3.056 0 2.761 2.87 6.5 1 7.426-3.713 3.483-14-3.5-14l-1 4-1 1Z"/><path fill="#FF8FFD" id="MRN" d="m217 156 1 1-1-1ZM218 158l1 1-1-1Z"/><path fill="#FF64FF" id="MB" d="m294 158-1 1 1-1Z"/><path fill="#FF6F80" id="TH" d="M326 167c2.6 0 4-2.504 4 2 1.773 0 1-9.259 1-11-1.762 0-2.441 7-6 7l1 2Z"/><path fill="#FF64FF" id="MB" d="M172 165c0 1.577-1.762 2-3 2l-6-8c3.311 0 4.81 6 9 6Z"/><path fill="#FF8FFD" id="MRN" d="m238 159-1 1 1-1Z"/><path fill="#FF64FF" id="MB" d="M228 169c0 1.186 1 1.186 1 0 0-10.298-1-10.298-1 0ZM293 160l-1 1 1-1Z"/><path fill="#0D9E90" id="ECT5" d="m44 178 8 1c0-5.903-5-11.533-5-18l-9 1 6 16Z"/><path fill="#0E9F91" id="ECT6a" d="m52 179 5 1v-4c-2.5 0-2-11.582-2-14l-8-1c0 6.467 5 12.097 5 18Z"/><path fill="#7DCD4B" id="HPF" d="M120 166h1l-1-5h-1l1 5Z"/><path fill="#FF64FF" id="MB" d="m292 161-1 1 1-1Z"/><path fill="#7DCD4B" id="HPF" d="M336 165h1l1-4h-2v4Z"/><path fill="#0E9F90" id="ECT6b" d="M402 162c0 2.974-.637 9.775-2 12.5-.574 1.147 1.064 4.5-1 4.5l1-13.5c0-1.19-.614-4.5 1-4.5l1 1Z"/><path fill="#0E9F91" id="ECT6a" d="m405 179-6 1v-1c2.064 0 .426-3.353 1-4.5 1.363-2.725 2-9.526 2-12.5 2.153 0 4.722-1 7-1 0 7.013-4 11.451-4 18Z"/><path fill="#0D9E90" id="ECT5" d="m412 178-7 1c0-6.549 4-10.987 4-18l9 1-5 15-1 1Z"/><path fill="#0D9F91" id="ECT2/3" d="M35 177c3.222 0 6.277 1 9 1l-6-16h-3l-7 1c0 5.733 7 9.122 7 14Z"/><path fill="#0E9F90" id="ECT6b" d="m56 162 1 14c-2.5 0-2-11.582-2-14h1Z"/><path fill="#FF64FF" id="MB" d="m291 162-1 1 1-1Z"/><path fill="#0D9F91" id="ECT2/3" d="M421 177h1l7-14-8-1h-3l-5 15h8Z"/><path fill="#0D9F90" id="ECT1" d="M29 177h6c0-4.878-7-8.267-7-14l-5 1c0 6.308 6 7.749 6 13Z"/><path fill="#FF64FF" id="MB" d="m285 165 2 2 3-4-5 2Z"/><path fill="#C7C8CC" id="alv" d="M385 203h1l1-1c0-1.238.423-3 2-3 0-4.238 4.15-9.8 6-13.5 1.942-3.884 1.048-9.096 3-13 .675-1.35.247-9.5-1-9.5 0 6.841-1.074 17.647-4 23.5-2.288 4.576-8 11.282-8 16.5Z"/><path fill="#0D9F90" id="ECT1" d="M422 177h5c0-4.062 6-6.253 6-13l-4-1-7 14Z"/><path fill="#FE8D9E" id="PIL" d="m158 177-10 1c-2.514 0-18-8.161-18-11l1-2 2 1c0 1.845 3.381 1.441 4.5 2 4.807 2.403 7.249-3 11.5-3 1.732 0 10 3.196 10 5 0 2.573-1 4.472-1 7ZM299 177c2.723 0 5.778 1 9 1 2.836 0 18-7.295 18-11l-1-2-2 1c0 7.212-15.311-1-16-1l-10 5c0 2.765 2 5.165 2 7Z"/><path fill="#C7C8CC" id="alv" d="m337 165-1 1v-1h1ZM121 166v1l-1-1h1Z"/><path fill="#FD7F84" id="PP" d="M148 178c0 3.919-4.114 3-7 3 0-1.677-9.306-7-11-7l-1-1-2-3c0-4.321.017-3 3-3 0 2.839 15.486 11 18 11ZM316 180l-1 1c-2.886 0-7 .919-7-3 2.836 0 18-7.295 18-11 2.6 0 4-2.504 4 2l-2 4-2 1-10 6Z"/><path fill="#FF6F80" id="TH" d="M159 170c0 2.573-1 4.472-1 7 3.585 0 11-3.642 11-8l-5-2c0 2.393-3.234 3-5 3ZM297 170c0 2.765 2 5.165 2 7-4.805 0-12-3.765-12-9 2.275 0 3.514-1 6-1 0 2.098 1.939 3 4 3Z"/><path fill="#C7C8CC" id="alv" d="m336 167-1 1 1-1ZM129 182l8 21c-2.621 0-3.179-6.858-4-8.5-1.644-3.289-12-24.6-12-26.5 3.762 0 3.901 11 7 11 0 1.048-.473 3 1 3Z"/><path fill="#FE90FD" id="RN" d="m191 168-3.5 2c-2.168 2.168-3.5 4.479-3.5 7.5 0 20.983 27.938 13.876 21 0-1.349-2.699-.913-6.707-4.5-8.5l-9.5-1Z"/><path fill="#FF64FF" id="MB" fill-rule="evenodd" d="M196 233c6.177 0 12.251-5.375 17.5-8 2.05-1.025 5.453 1.227 7 2 1.843.921 10.686 0 13 0l10-2c4.497 2.248 18.347 12 22.5 12l-7-6.5 2-3.5-2-2-4.5-4c-8.967-4.484-16.587-15.326-11.5-25.5 2.545-5.09 17-3.28 17 1.5l6-3c-13.683 0-30-9.99-30-25l-3-1v1c0 2.405 5.593 10-2 10-.985 0-5 4.826-5-1-7.572 0-3-3.905-3-9v-1h-2c0 8.234-3.884 12.384-8.5 17l-9.5 7c15.046 0 12.666 13.168 8 22.5l-4 4.5c2.123 0 3.03-3 4.5-3 1.513 0-.367 4.234-.5 4.5-2.211 4.422-11 9.971-11 2.5-1.481 0-.785 2-3 2l-1 2v6m23-13c0 6.338 18 7.495 18 0l2-1c2.25 0 3.376-2 5-2 0-5.135-4.82-10-10-10 0-1.606 2.081-4.339 1-6.5-2.595-5.19-12.212-2.576-14 1-.978 1.956 1 4.077 1 5.5-5.818 0-14.08 12-5 12l2 1m25-3c0 3.982 11.309 12.882 13 9.5 1.382-2.764-11.238-9.5-13-9.5m-11-24c0 5.823-10 5.78-10 1-3.505 0-.948-11 3-11h5c0-2.104 8.244 10 2 10Z"/><path fill="#FE90FD" id="RN" d="M259 168c0 .086-7.078 5.656-8 7.5-3.464 6.927 4.767 19.367 12.5 15.5 12.92-6.46 11.722-23-4.5-23Z"/><path fill="#FC8EFF" id="MA3" d="M226 170v8c-7.572 0-3-3.905-3-9l3 1Z"/><path fill="#FE8FFC" id="EW" d="M226 178c0 5.826 4.015 1 5 1 0-3.013-1-6.611-1-9l-1-1c0 1.186-1 1.186-1 0l-2 1v8Z"/><path fill="#FC8EFF" id="MA3" d="M230 170c0 2.389 1 5.987 1 9 7.593 0 2-7.595 2-10l-3 1Z"/><path fill="#C7C8CC" id="alv" d="M335 169c-1.577 0-2 1.762-2 3 1.577 0 2-1.762 2-3ZM333 172c-2.109 0-2 2.535-2 4 2.109 0 2-2.535 2-4Z"/><path fill="#FF64FF" id="MB" d="M129 174h1l-1-1v1ZM326 174l2 1v-2l-2 1Z"/><path fill="#FE8FFE" id="LT" d="M129 182h5c2.593 0 7 2.552 7-1 0-1.677-9.306-7-11-7h-1l-1 5c0 1.048-.473 3 1 3ZM323 182h4l2-1v-4l-1-2-2-1-10 6-1 1c0 3.399 5.211 1 8 1Z"/><path fill="#C7C8CC" id="alv" d="M329 177v3l2-4-2 1Z"/><path fill="#0E9584" id="PERI1" d="M31 188h1c0-3.322 3-6.616 3-11h-6c0 6.693-4 6.01-4 11h6Z"/><path fill="#0E9583" id="PERI2/3" d="M32 188h7c2.707 0 5.903-1 8-1 0-2.675-3-5.922-3-9-2.723 0-5.778-1-9-1 0 4.384-3 7.678-3 11Z"/><path fill="#0E9F90" id="ECT6b" d="M57 180h1c0-1.048.473-3-1-3v3Z"/><path fill="#FF64FF" id="MB" d="m180 207 4 3c0-.356-2.5-8.5.5-7l2.5 2 3-4c0-1.679-7.689-7-9-7-8.152 0-19.487-.474-24-9.5-1.182-2.364 1-5.696 1-7.5l-10 1c0 3.919-4.114 3-7 3 0 3.552-4.407 1-7 1 0 .562 5 4.361 5 9l3.5-3c2.667-1.333 5.057 0 7.5 0 0-9.903 20 12.631 20 14l8 4 2 1ZM277 207l-4 2c0-1.332 2.498-7.999-1.5-6-1.445.723-.091 2-2.5 2 0-1.114-2.034-4-3-4l9-7c11.94 0 24-1.779 24-17 2.723 0 5.778 1 9 1 0 3.919 4.114 3 7 3 0 3.399 5.211 1 8 1l-4 2.5-2 6.5c-.9 0-4.523-3-10-3 0-9.935-20 11.033-20 14l-8 4h-1l-1 1Z"/><path fill="#0E9583" id="PERI2/3" d="M418 188h7c0-3.118-4-6.953-4-11h-8l-1 1-2 9v1h8Z"/><path fill="#0E9584" id="PERI1" d="M425 188h6c0-4.449-4-5.968-4-11h-6c0 4.047 4 7.882 4 11Z"/><path fill="#0F9684" id="PERI5" d="m53 186-6 1c0-2.675-3-5.922-3-9l8 1 1 6v1ZM404 186l6 1 2-9-7 1-2 6 1 1Z"/><path fill="#0E9684" id="PERI6a" d="M53 185h5l-1-5-5-1 1 6Z"/><path fill="#0E9683" id="PERI6b" d="M398 180h1v-1l-1 1Z"/><path fill="#0E9684" id="PERI6a" d="M398 185h5l2-6-6 1v1l-1 4Z"/><path fill="#0E9683" id="PERI6b" d="M58 185h1l-1-5h-1l1 5Z"/><path fill="#FF64FF" id="MB" d="m316 180-1 1 1-1Z"/><path fill="#0E9F90" id="ECT6b" d="M398 181h1v-1h-1v1Z"/><path fill="#C7C8CC" id="alv" d="M327 182v3l2-4-2 1Z"/><path fill="#0E9683" id="PERI6b" d="M397 185h1l1-4h-1l-1 4Z"/><path fill="#CCCAC7" id="cpd" d="M184 240h1l1-1h1l1-1h1l1-1h1l1-1 1-1 2-1 1-1v-6h-2c-4.898 0-13.783 5.859-19.5 3-3.627-1.813-8.383-1.192-12-3-15.808-7.904-23.5-17.977-23.5-36 0-4.639-5-8.438-5-9h-5l8 21v1l7 12.5 9 10.5 10.5 8c7.146 3.573 10.667 6 19.5 6l1-1Z"/><path fill="#C8C8C8" id="mtg" d="M223 193v1c-3.505 0-.948-11 3-11l-2 8-1 2ZM233 191v2c6.244 0-2-12.104-2-10l1 7 1 1Z"/><path fill="#CCCAC7" id="cpd" d="m273 240 1 1c13.514 0 19.993-10 25-10l3-3 2-1 1-1 1-1 1-1c0-1.238.423-3 2-3l1-1 1-1 1-2 1-1v-1l1-1 1-1v-1l1-1 1-2 1-2 1-2v-1l2-4c0-1.424.362-5 2-5 0-1.424.362-5 2-5 0-1.424.362-5 2-5v-3h-4l-4 2.5-2 6.5c0 2.997 1.742 10.017 0 13.5-4.779 9.558-12.854 17.677-22.5 22.5-3.572 1.786-8.398 1.199-12 3-6.047 3.024-15.33-3-20.5-3h-1l-2 3.5 7 6.5h1l2 2h2l1 1h1Z"/><path fill="#FEA6FF" id="RL" d="M233 193c0 5.823-10 5.78-10 1v-1l1-2 2-8h5l1 7 1 1v2Z"/><path fill="#32B824" id="ENTl6a" d="M77 221c0 1.577-1.762 2-3 2 0-4.567-6.104-6.709-8-10.5-4.017-8.034-13-17.07-13-26.5v-1h6c1.638 0 2 3.576 2 5l1 1v1l1 1v1c0 3.764 4.724 11 8 11v1l1 1h1v1l4 9v4Z"/><path fill="#FFA6FD" id="SNc" d="M150 188c5.653 0 8.251 11.376 13.5 14 1.282.641 6.5 3.701 6.5 0 0-1.369-20-23.903-20-14Z"/><path fill="#CACCC8" id="ml" d="M196 197c6.357 0 7.799 6.351 2.5 9-3.538 1.769-5.776-5-8.5-5 0-1.679-7.689-7-9-7l-2-4.5c-5.764-11.529 7.425.425 9 2l3 2.5 5 3ZM260 197c-4.855 0-7.972 6.264-2.5 9 3.378 1.689 6.71-5 8.5-5l9-7 2-3.5c2.247-4.493-.007-6.747-4.5-4.5-2.56 1.28-2.731 8-6.5 8l-6 3Z"/><path fill="#FFA6FD" id="SNc" d="M307 188c-5.968 0-8.732 11.116-12.5 13-1.877.939-7.5 5.044-7.5 1 0-2.967 20-23.935 20-14Z"/><path fill="#C7C8CC" id="alv" d="M327 185c-1.638 0-2 3.576-2 5 1.638 0 2-3.576 2-5Z"/><path fill="#32B824" id="ENTl6a" d="m379 221 3 2c0-3.519 5.885-6.269 7-8.5 2.924-5.848 15-22.081 15-28.5l-1-1h-6c0 1.974-2 3.517-2 6l-1 1v1l-1 2c0 2.48-3.79 10-7 10l-1 1-1 1-1 1v1c0 1.238-.423 3-2 3 0 2.25-2 3.376-2 5v4Z"/><path fill="#31B824" id="ENTl5" d="M63 226h4c0-.675 5.294-2 6-2l1-1c0-4.567-6.104-6.709-8-10.5-4.017-8.034-13-17.07-13-26.5l-6 1c0 10.409 5.188 19.876 10 29.5.823 1.647 3.92 9.5 6 9.5ZM389 226h5l6-9.5c4.154-8.308 10-18.633 10-28.5v-1l-6-1c0 6.419-12.076 22.652-15 28.5-1.115 2.231-7 4.981-7 8.5l1 1c.986 0 6 1.087 6 2Z"/><path fill="#32B725" id="ENTl3" d="M63 226c0 .886-9.728 2-11 2-1.233 0-2.379-7.258-3-8.5-4.32-8.64-10-21.391-10-31.5 2.707 0 5.903-1 8-1 0 10.409 5.188 19.876 10 29.5.823 1.647 3.92 9.5 6 9.5Z"/><path fill="#FF8DFD" id="SNr" d="M184 210c0 5.936 10 11.656 10 17-4.898 0-13.783 5.859-19.5 3-3.627-1.813-8.383-1.192-12-3-15.808-7.904-23.5-17.977-23.5-36l3.5-3c2.667-1.333 5.057 0 7.5 0 5.653 0 8.251 11.376 13.5 14 1.282.641 6.5 3.701 6.5 0l8 4c-8.13 0 2 7.902 2 1l4 3ZM272 210c0 5.628-10 13.479-10 17 5.17 0 14.453 6.024 20.5 3 3.602-1.801 8.428-1.214 12-3 9.646-4.823 17.721-12.942 22.5-22.5 1.742-3.483 0-10.503 0-13.5-.9 0-4.523-3-10-3-5.968 0-8.732 11.116-12.5 13-1.877.939-7.5 5.044-7.5 1l-8 4c6.765 0-2 8.494-2 1l-4 2-1 1Z"/><path fill="#32B722" id="ENTl1" d="M45 230c0 1.579-2.855 1-4 1-2.076 0-3.216-7.932-4-9.5-4.694-9.387-12-22.51-12-33.5h6c0 6.14 7.345 29.191 10 34.5l4 7.5Z"/><path fill="#32B825" id="ENTl2" d="M52 228c0 .853-6.031 2-7 2l-4-7.5c-2.655-5.309-10-28.36-10-34.5h8c0 10.109 5.68 22.86 10 31.5.621 1.242 1.767 8.5 3 8.5Z"/><path fill="#32B725" id="ENTl3" d="M394 226c0 .11 10.166 3 11 3 0-11.997 13-28.316 13-41h-8c0 9.867-5.846 20.192-10 28.5l-6 9.5Z"/><path fill="#32B825" id="ENTl2" d="m405 229 7 1 3-6.5c3.157-6.315 10-27.976 10-35.5h-7c0 12.684-13 29.003-13 41Z"/><path fill="#32B722" id="ENTl1" d="M412 230c0 1.579 2.855 1 4 1l3-6.5c3.751-7.502 12-28.128 12-36.5h-6c0 7.524-6.843 29.185-10 35.5l-3 6.5Z"/><path fill="#A0EE9C" id="EPd" d="m61 190 1 1-1-1Z"/><path fill="#FF64FF" id="MB" d="m232 190 1 1-1-1Z"/><path fill="#C7C8CC" id="alv" d="M325 190c-1.638 0-2 3.576-2 5 1.638 0 2-3.576 2-5Z"/><path fill="#FF64FF" id="MB" d="m224 191-1 2 1-2Z"/><path fill="#A0EE9C" id="EPd" d="m395 191-1 1 1-1ZM62 192l1 1-1-1Z"/><path fill="#FF64FF" id="MB" d="m191 194 5 3c0-3.018 7-2.618 7-5l-12 2Z"/><path fill="#FE8DFF" id="VTA" d="M200 223h1c0-1.811 3.98-4 6-4l4-4.5c4.666-9.332 7.046-22.5-8-22.5 0 2.382-7 1.982-7 5 6.357 0 7.799 6.351 2.5 9-3.538 1.769-5.776-5-8.5-5l-3 4c0 2.171 8.49 20 10 20 2.215 0 1.519-2 3-2ZM269 205c0 2.714-7.656 20-10 20l-4.5-4c-8.967-4.484-16.587-15.326-11.5-25.5 2.545-5.09 17-3.28 17 1.5-4.855 0-7.972 6.264-2.5 9 3.378 1.689 6.71-5 8.5-5 .966 0 3 2.886 3 4Z"/><path fill="#A0EE9C" id="EPd" d="m394 193-1 2 1-2ZM71 204v1c-3.276 0-8-7.236-8-11l8 10Z"/><path fill="#C7C8CC" id="alv" d="M323 195c-1.638 0-2 3.576-2 5 1.638 0 2-3.576 2-5Z"/><path fill="#7DCF4B" id="CA2" d="M355 195c-1.747 0-2 .253-2 2 1.747 0 2-.253 2-2Z"/><path fill="#A0EE9C" id="EPd" d="M386 203v2c3.21 0 7-7.52 7-10l-4 4c0 1.238-.423 3-2 3l-1 1Z"/><path fill="#7DCF4B" id="CA2" d="M353 197c-1.811 0-4 3.438-4 5 1.811 0 4-3.438 4-5Z"/><path fill="#FFA6FF" id="IF" d="M232 208c-1.819 0-4.591 1-7 1 0-1.577-1.762-2-3-2 0-1.423-1.978-3.544-1-5.5 1.788-3.576 11.405-6.19 14-1 1.081 2.161-1 4.894-1 6.5l-2 1Z"/><path fill="#C8CBCC" id="ec" d="M389 199c-1.577 0-2 1.762-2 3 1.577 0 2-1.762 2-3Z"/><path fill="#C7C8CC" id="alv" d="m321 200-2 4c2.109 0 2-2.535 2-4Z"/><path fill="#7DCF4B" id="CA2" d="m349 202-1 1 1-1Z"/><path fill="#C8CBCC" id="ec" d="m387 202-1 1 1-1Z"/><path fill="#FE8FFF" id="MT" d="M194 227h2l1-2c-1.51 0-10-17.829-10-20l-2.5-2c-3-1.5-.5 6.644-.5 7 0 5.936 10 11.656 10 17ZM261 227h1c0-3.521 10-11.372 10-17l1-1c0-1.332 2.498-7.999-1.5-6-1.445.723-.091 2-2.5 2 0 2.714-7.656 20-10 20l2 2Z"/><path fill="#7DCF4B" id="CA2" d="m348 203-1 1 1-1Z"/><path fill="#C7C8CC" id="alv" d="m381 212-6 6c0-2.15 7.903-15 10-15v2l-1 2-1 1v1c-1.577 0-2 1.762-2 3Z"/><path fill="#C8CBCC" id="ec" d="M385 205h1v-2h-1v2Z"/><path fill="#C7C8CC" id="alv" d="M154 231h1l-2-4-9-10.5-7-12.5c0 9.417 17 20.644 17 27Z"/><path fill="#7DCF4B" id="CA2" d="m347 204-1 1 1-1Z"/><path fill="#C8CBCC" id="ec" d="M72 207h1l-2-2v1l1 1Z"/><path fill="#C7C8CC" id="alv" d="m319 205-1 2 1-2Z"/><path fill="#7DCF4B" id="CA2" d="m346 205-1 1 1-1Z"/><path fill="#C8CBCC" id="ec" d="m385 206-1 1 1-2v1Z"/><path fill="#A0EE9C" id="EPd" d="m386 205-1 1v-1h1ZM71 206l1 1-1-1Z"/><path fill="#FFA6FD" id="SNc" d="m178 206 2 1c0 6.902-10.13-1-2-1Z"/><path fill="#FF8DFD" id="SNr" d="m278 206-1 1 1-1Z"/><path fill="#FFA6FD" id="SNc" d="M279 206c6.765 0-2 8.494-2 1l1-1h1Z"/><path fill="#7DCF4B" id="CA2" d="m345 206-1 1 1-1Z"/><path fill="#FEA5FE" id="IPRL" d="m219 218-2 1c-9.08 0-.818-12 5-12 1.238 0 3 .423 3 2-2.409 0-6 6.558-6 9ZM244 217c-1.624 0-2.75 2-5 2l-2-2c0-3.307-5-6.211-5-9l2-1c5.18 0 10 4.865 10 10Z"/><path fill="#C7C8CC" id="alv" d="m318 207-1 2 1-2Z"/><path fill="#7DCF4B" id="CA2" d="m344 207-1 1 1-1Z"/><path fill="#C8CBCC" id="ec" d="m384 207-1 1 1-1ZM90 227h1l-10.5-9-7.5-10 4 9 8 8h1l2 1 1 1h1Z"/><path fill="#FFA4FE" id="IPR" d="M219 220c0 6.338 18 7.495 18 0v-3c0-3.307-5-6.211-5-9-1.819 0-4.591 1-7 1s-6 6.558-6 9v2Z"/><path fill="#7DCF4B" id="CA2" d="m343 208-1 1 1-1Z"/><path fill="#FF64FF" id="MB" d="m273 209-1 1 1-1Z"/><path fill="#C7C8CC" id="alv" d="m317 209-1 2 1-2Z"/><path fill="#7DCF4B" id="CA2" d="m342 209-1 1 1-1Z"/><path fill="#C8CBCC" id="ec" d="M383 209c-1.577 0-2 1.762-2 3 1.577 0 2-1.762 2-3Z"/><path fill="#7DCF4B" id="CA2" d="m341 210-1 1 1-1Z"/><path fill="#C7C8CC" id="alv" d="m316 211-1 1 1-1Z"/><path fill="#7DCF4B" id="CA2" d="m340 211-1 1 1-1ZM339 212l-1 1 1-1Z"/><path fill="#C8CBCC" id="ec" d="M365 227h1l5-2 2-2 1-1 5-5c0-1.624 2-2.75 2-5l-6 6-1 1c0 1.811-3.438 4-5 4 0 1.712-2.571 3-4 3v1Z"/><path fill="#C7C8CC" id="alv" d="m315 213-1 1 1-1Z"/><path fill="#7DCF4B" id="CA2" d="m338 213-1 1 1-1Z"/><path fill="#C7C8CC" id="alv" d="m314 214-1 1 1-1Z"/><path fill="#7DCF4B" id="CA2" d="m337 214-1 1 1-1ZM336 215l-1 1 1-1Z"/><path fill="#CCCAC8" id="mp" d="M200 223h1c2.024 0 6-1.886 6-4 2.123 0 3.03-3 4.5-3 1.513 0-.367 4.234-.5 4.5-2.211 4.422-11 9.971-11 2.5Z"/><path fill="#C7C8CC" id="alv" d="m313 216-1 1 1-1Z"/><path fill="#7DCF4B" id="CA2" d="m335 216-1 1 1-1Z"/><path fill="#8AD987" id="CTXsp" d="m77 221 8 4-8-8v4Z"/><path fill="#FDA6FE" id="IPDL" d="m239 219-2 1v-3l2 2Z"/><path fill="#CCCAC8" id="mp" d="M244 217c0 3.982 11.309 12.882 13 9.5 1.382-2.764-11.238-9.5-13-9.5Z"/><path fill="#C7C8CC" id="alv" d="m312 217-1 2 1-2Z"/><path fill="#8AD987" id="CTXsp" d="M374 222v1l5-2v-4l-5 5Z"/><path fill="#FDA6FE" id="IPDL" d="m217 219 2 1v-2l-2 1Z"/><path fill="#7DCF4B" id="CA2" d="m333 218-1 1 1-1Z"/><path fill="#C7C8CC" id="alv" d="m375 218-1 1 1-1Z"/><path fill="#FF64FF" id="MB" d="M207 219c-2.02 0-6 2.189-6 4 2.024 0 6-1.886 6-4Z"/><path fill="#C7C8CC" id="alv" d="m311 219-1 1 1-1ZM374 219c-1.562 0-5 2.189-5 4 1.562 0 5-2.189 5-4ZM310 220l-1 1 1-1Z"/><path fill="#7DCF4B" id="CA2" d="m330 220-1 1 1-1Z"/><path fill="#A0ED9D" id="EPv" d="M82 235h2l3-6-1-4h-1l-8-4c0 1.577-1.762 2-3 2l-1 1c0 3.526 2 8.954 2 10l7 1Z"/><path fill="#C7C8CC" id="alv" d="M309 221c-1.577 0-2 1.762-2 3 1.577 0 2-1.762 2-3Z"/><path fill="#7DCF4B" id="CA2" d="m329 221-1 1 1-1Z"/><path fill="#A0ED9D" id="EPv" d="M373 235h1l7-1c0-.402 2.465-3.43 3-4.5.978-1.956-1-4.077-1-5.5l-1-1-3-2-5 2h-1c0 1.747-.253 2-2 2l-2 3 4 7Z"/><path fill="#7DCF4B" id="CA2" d="m328 222-1 1 1-1ZM327 223l-1 1 1-1Z"/><path fill="#C7C8CC" id="alv" d="M369 223c-1.429 0-4 1.288-4 3 1.429 0 4-1.288 4-3Z"/><path fill="#8AD987" id="CTXsp" d="m373 223-2 2c1.747 0 2-.253 2-2Z"/><path fill="#99D2BD" id="OLF" d="M71 234h4c0-1.046-2-6.474-2-10-.706 0-6 1.325-6 2 5.231 0 4 5.435 4 8Z"/><path fill="#C7C8CC" id="alv" d="m307 224-1 1 1-1Z"/><path fill="#7DCF4B" id="CA2" d="m326 224-1 1 1-1Z"/><path fill="#99D2BD" id="OLF" d="M381 234h4c0-2.531.248-8 4-8 0-.913-5.014-2-6-2 0 1.423 1.978 3.544 1 5.5-.535 1.07-3 4.098-3 4.5Z"/><path fill="#8AD987" id="CTXsp" d="M87 229h5l-2-2h-1l-1-1-2-1 1 4Z"/><path fill="#C7C8CC" id="alv" d="m306 225-1 1 1-1Z"/><path fill="#7DCF4B" id="CA2" d="m325 225-1 1 1-1Z"/><path fill="#8AD987" id="CTXsp" d="M366 228h3l2-3-5 2v1Z"/><path fill="#6ACAB9" id="PIR" d="M71 234c-6.284 0-13.154 5.809-16 11.5-.636 1.272-1.45 7.5-3 7.5-2.72 0-11-18.587-11-22 1.145 0 4 .579 4-1 .969 0 7-1.147 7-2 1.272 0 11-1.114 11-2h4c5.231 0 4 5.435 4 8Z"/><path fill="#C7C8CC" id="alv" d="m305 226-1 1 1-1Z"/><path fill="#7DCF4B" id="CA2" d="m324 226-1 1 1-1Z"/><path fill="#C7C8CC" id="alv" d="M363 227h2v-1l-2 1Z"/><path fill="#6ACAB9" id="PIR" d="M385 234c9.291 0 19 10.625 19 20 1.663 0 12-20.049 12-23-1.145 0-4 .579-4-1l-7-1c-.834 0-11-2.89-11-3h-5c-3.752 0-4 5.469-4 8Z"/><path fill="#7DCF4B" id="CA2" d="m134 227 1 1-1-1Z"/><path fill="#C7C8CC" id="alv" d="M302 231h1l1-4-2 1-1 3h1ZM363 227c-1.238 0-3 .423-3 2 1.238 0 3-.423 3-2Z"/><path fill="#9DE69C" id="BLAp" d="M95 247h1l1-1 1-1c2.178 0 5-6.863 5-9v-1h-1l-2-2-6-3-1-1h-6l-3 6v1c0 3.756 9 5.144 9 10l2 1Z"/><path fill="#8AD987" id="CTXsp" d="m366 228-1 1 1-1Z"/><path fill="#9DE69C" id="BLAp" d="m363 246-2 1-2-1c0-3.46-6-6.405-6-11h1l1-1 4-3h2l1-1 3-1 1-1h3l4 7v1l-1 1c-1.987 0-9 7.101-9 9Z"/><path fill="#8AD987" id="CTXsp" d="m93 229 1 1-1-1Z"/><path fill="#7DCF4B" id="CA2" d="m136 229 2 2-2-2Z"/><path fill="#FF493D" id="SUM" d="m213 235-8 6.5-3 5.5c0-13.931 10.967-18 25-18 0 2.064-3.353.426-4.5 1l-9.5 5Z"/><path fill="#FD4A3D" id="Mmd" d="M223 244h11l3-1c0-1.934 6-4.669 6-8 0-3.793-13-3.716-13-6h-3c0 2.064-3.353.426-4.5 1l-9.5 5c0 3.517 6 4.95 6 8l4 1Z"/><path fill="#FF493D" id="SUM" d="M243 235c2.894 0 11 8.127 11 11 1.156 0 1.472-2.555 1-3.5-1.461-2.922-2.929-7.715-6.5-9.5-5.887-2.944-11.298-4-18.5-4 0 2.284 13 2.207 13 6Z"/><path fill="#C7C8CC" id="alv" d="M357 231h2l1-2c-1.238 0-3 .423-3 2Z"/><path fill="#8AD987" id="CTXsp" d="m362 230-1 1 1-1Z"/><path fill="#7BD04A" id="DG-mo" d="m146 241 3 2c3.019 0 9.55.4 11-2.5 1.239-2.477-1.05-9.5-4-9.5 0 10.4-12 5.681-12 1l-5-1 1 3 6 7Z"/><path fill="#7ECE4A" id="DG-po" d="M154 232c0 3.582-7 3.726-7 1 2.765 0 5.165-2 7-2v1Z"/><path fill="#7DCD4B" id="HPF" d="m155 231-1 1v-1h1Z"/><path fill="#65A83D" id="DG-sg" d="M154 232c0 3.582-7 3.726-7 1l-3-1c0 4.681 12 9.4 12-1h-1l-1 1Z"/><path fill="#7BD04A" id="DG-mo" d="m310 241-2 2c-20.401 0-9-6.424-9-12h2c0 11.749 11 4.66 11 1l5-1v3l-7 7Z"/><path fill="#65A83D" id="DG-sg" d="m312 232-3 1c0 4.12-7 .971-7-2h-1c0 11.749 11 4.66 11 1Z"/><path fill="#7ECE4A" id="DG-po" d="M303 231c0 2.698 4.255 2 6 2 0 4.12-7 .971-7-2h1Z"/><path fill="#7DCF4B" id="CA2" d="m318 231-1 1v-1h1Z"/><path fill="#C7C8CC" id="alv" d="M357 231c-1.465 0-4-.109-4 2l4-2Z"/><path fill="#8AD987" id="CTXsp" d="m100 233 2 2-2-2Z"/><path fill="#FF64FF" id="MB" d="m196 233-1 1 1-1Z"/><path fill="#C7C8CC" id="alv" d="M348 235h3l2-2c-1.424 0-5 .362-5 2Z"/><path fill="#A8ECD2" id="TR" d="M52 253c0 6.697 17.21 19.355 22.5 22H87c0-5.016 2.142-26 7-26l-1-3c0-4.856-9-6.244-9-10l-2-1-7-1h-4c-6.284 0-13.154 5.809-16 11.5-.636 1.272-1.45 7.5-3 7.5Z"/><path fill="#33B931" id="HATA" d="m146 243-8 8c-1.605 0-11-6.532-11-8h1l1-1c4.72 0 7.101-8 11-8l6 7v2Z"/><path fill="#FF64FF" id="MB" d="m195 234-2 1 2-1Z"/><path fill="#33B931" id="HATA" d="m329 244-10 7c-1.301 0-9-6.333-9-8v-2l7-7c0 3.621 8.152 8 11 8l1 2Z"/><path fill="#8AD987" id="CTXsp" d="m355 234-1 1 1-1Z"/><path fill="#A8ECD2" id="TR" d="m404 254-4 5.5c-6.156 12.313-17.446 15.5-30 15.5 0-5.269-.709-14.918-3-19.5-1.169-2.337-4-3.673-4-6.5v-3c0-1.899 7.013-9 9-9l1-1 1-1 7-1h4c9.291 0 19 10.625 19 20Z"/><path fill="#8AD987" id="CTXsp" d="M84 235v1l-2-1h2ZM104 235l-1 1v-1h1Z"/><path fill="#97EC93" id="PA" d="M138 251c0 3.396-5 5.177-5 8-2.513 0-12.639-8-22-8 0-4.037-13.883-2-16-2v-1l1-1 1-1 1-1c2.178 0 5-6.863 5-9l1-1h1l1 1h3l1 1 7 2 1 1h1l1 1h2l1 1h1l1 1h2c0 1.468 9.395 8 11 8Z"/><path fill="#8AD987" id="CTXsp" d="M106 235v1l-1-1h1Z"/><path fill="#FF64FF" id="MB" d="m193 235-1 1 1-1Z"/><path fill="#FC4B3E" id="Mml" d="M217 251v2c-4.326 0-15-.254-15-6l3-5.5 8-6.5c0 3.517 6 4.95 6 8-2.488 0-2 6.101-2 8ZM239 251l1 2c5.081 0 14-.623 14-7 0-2.873-8.106-11-11-11 0 3.331-6 6.066-6 8 2.991 0 2 6.051 2 8Z"/><path fill="#C7C8CC" id="alv" d="M344 237h2l1-1h1v-1c-1.424 0-5 .362-5 2h1Z"/><path fill="#97EC93" id="PA" d="M345 251c-8.077 0-19.69 8-21 8-1.222 0-5-6.549-5-8l10-7 1-1h1l2-1 1-1h2l2-1 1-1h2l1-1h1l1-1h2l1-1h1c1.048 0 3 .473 3-1h2c0 4.595 6 7.54 6 11l2 1v2c-2.117 0-16-2.037-16 2Z"/><path fill="#8AD987" id="CTXsp" d="m374 235-1 1v-1h1Z"/><path fill="#FF64FF" id="MB" d="m192 236-1 1 1-1Z"/><path fill="#8AD987" id="CTXsp" d="m373 236-1 1 1-1Z"/><path fill="#FF64FF" id="MB" d="m190 237-1 1 1-1ZM267 237l2 2-2-2Z"/><path fill="#C7C8CC" id="alv" d="M342 238h1v-1l-2 1h1Z"/><path fill="#FF64FF" id="MB" d="m188 238-1 1 1-1Z"/><path fill="#C7C8CC" id="alv" d="M339 239h2v-1c-1.048 0-3-.473-3 1h1Z"/><path fill="#FF64FF" id="MB" d="m186 239-1 1 1-1ZM271 239l1 1-1-1Z"/><path fill="#C7C8CC" id="alv" d="M334 241h2l2-1v-1c-1.465 0-4-.109-4 2Z"/><path fill="#FF64FF" id="MB" d="m184 240-1 1 1-1ZM273 240l1 1-1-1Z"/><path fill="#7DCD4B" id="HPF" d="M146 243h3l-3-2v2ZM308 243h2v-2l-2 2Z"/><path fill="#C7C8CC" id="alv" d="M331 242h2v-1l-2 1Z"/><path fill="#7DCD4B" id="HPF" d="m129 242-1 1v-1h1ZM330 243l-1 1-1-2h1l1 1Z"/><path fill="#C7C8CC" id="alv" d="M330 243h1v-1h-2l1 1Z"/><path fill="#FE4A3C" id="Mmm" d="M223 244c0 1.338-4.41 7-6 7 0-1.899-.488-8 2-8l4 1Z"/><path fill="#FE493D" id="Mmp" d="M217 253c3.307 0 12.319 3.091 14.5 2 2.329-1.164 5.779-2 8.5-2l-1-2c-1.874 0-5-5.55-5-7h-11c0 1.338-4.41 7-6 7v2Z"/><path fill="#FE4A3C" id="Mmm" d="M234 244c0 1.45 3.126 7 5 7 0-1.949.991-8-2-8l-3 1Z"/><path fill="#8AD987" id="CTXsp" d="m98 245-1 1 1-1Z"/><path fill="#99D2BD" id="OLF" d="M94 249h1v-2l-2-1 1 3Z"/><path fill="#8AD987" id="CTXsp" d="m97 246-1 1 1-1ZM359 246l2 1-2-1Z"/><path fill="#99D2BD" id="OLF" d="M361 249h2v-3l-2 1v2Z"/><path fill="#8AD987" id="CTXsp" d="m96 247-1 1v-1h1Z"/><path fill="#5FE6B7" id="COApl" d="M87 275c0 2.131 13.103 7 16 7l-2-1.5c-1.632-3.265.649-14.298 2-17l5-10 3-2.5c0-4.037-13.883-2-16-2h-1c-4.858 0-7 20.984-7 26ZM370 275c-3.363 0-9.818 7-16 7 0-12.243.588-15.324-5-26.5l-4-4.5c0-4.037 13.883-2 16-2h2c0 2.827 2.831 4.163 4 6.5 2.291 4.582 3 14.231 3 19.5Z"/><path fill="#60E6B5" id="COApm" d="M133 259c0 8.875-21.076 23-30 23l-2-1.5c-1.632-3.265.649-14.298 2-17l5-10 3-2.5c9.361 0 19.487 8 22 8ZM324 259c0 10.568 20.531 23 30 23 0-12.243.588-15.324-5-26.5l-4-4.5c-8.077 0-19.69 8-21 8Z"/></svg>