<svg xmlns="http://www.w3.org/2000/svg" viewBox="0 0 456 320"><path fill="#FEFA90" id="DEC" d="M200 104c7.146 0 5.314-12.128 7-15.5.989-1.978 5.702-2.601 7.5-3.5 4.033-2.016 34.215.93 35.5 3.5 2.051 4.102-.81 15.5 7 15.5 8.963 0 17.764-6 26-6l1-1 6-16-12.5-8c-5.711-2.855-11.234-6.117-17-9-2.7-1.35-6.263-.631-9-2-3.412-1.706-16.054-.473-19 1-2.308 1.154-8.163-.082-10-1-4.416-2.208-25.493 1.246-29 3-3.442 1.721-26.053 16-26.5 16 0 6.486 6 10.913 6 17 7.844 0 17.738 6 27 6Z"/><path fill="#FCFC90" id="ANcr1" d="M144 85c7.469 0 13.372.936 19.5 4l9.5 9c0-6.087-6-10.514-6-17-4.818 0-23-1.945-23 4ZM313 85c-7.819 0-14.091.795-20.5 4l-8.5 8 6-16c4.176 0 23-1.15 23 4Z"/><path fill="#FCFA91" id="ANcr2" fill-rule="evenodd" d="m143 111-2 1.5c0 1.478 11.96-1.5 4-1.5h-2m29 4-16.5 8c-14.797 7.399-29.163 16.581-44 24-5.24 2.62-11.353 8-17.5 8-5.442 0-11.231-11.037-9-15.5l7-14c10.059-20.117 27.757-40.5 52-40.5 7.469 0 13.372.936 19.5 4l9.5 9c0 3.839 6 9.597 6 14-2.607 0-4.913 3-7 3Z"/><path fill="#CBC9CC" id="arb" fill-rule="evenodd" d="M226 91c0 10.63 10.63 0 0 0m51 24c3.21 0 5.738 4.619 8.5 6 10.081 5.041 21.725 19.725 29 27l12.5 14.5c.46.921 4 2.014 4 0 0-3.965-6.302-6.604-8-10-4.301-8.601-19.735-18.735-27.5-26.5-2.772-2.772-10.5-6.603-10.5-11-1.812 0-4.82-3-7-3-2.798 0-21-5.316-21-8-7.81 0-4.949-11.398-7-15.5-1.285-2.57-31.467-5.516-35.5-3.5-1.798.899-6.511 1.522-7.5 3.5-1.686 3.372.146 15.5-7 15.5 0 2.117-18.365 8-21 8-2.607 0-4.913 3-7 3l-37 35.5c-2.593 2.593-11.054 9.892-9 14l4-3 10.5-12.5c8.317-8.317 19.408-21.704 28-26 3.948-1.974 6.832-8 11.5-8 0-1.186 4.29-2 5.5-2H204c5.828 0 25.105-3.698 28.5-2 10.125 5.062 33.328-1.836 41 2l3.5 2Z"/><path fill="#FCFA91" id="ANcr2" fill-rule="evenodd" d="M308 111c0 1.511 8 2.848 8 1.5 0-1.24-6.734-1.5-8-1.5m-23 4c4.624 0 11.368 5.934 15.5 8 14.757 7.379 29.169 16.584 44 24 4.912 2.456 11.83 8 17.5 8 12.921 0 8.537-18.427 5-25.5-10.479-20.958-28.302-44.5-54-44.5-7.819 0-14.091.795-20.5 4l-8.5 8-1 1c0 4.444-5 8.972-5 14 2.18 0 5.188 3 7 3Z"/><path fill="#FEFA90" id="DEC" d="M226 91c0 10.63 10.63 0 0 0Z"/><path fill="#FCFC90" id="ANcr1" d="m284 97-1 1 1-1Z"/><path fill="#FDFB90" id="FOTU" d="M200 104c0 2.117-18.365 8-21 8 0-4.403-6-10.161-6-14 7.844 0 17.738 6 27 6ZM257 104c0 2.684 18.202 8 21 8 0-5.028 5-9.556 5-14-8.236 0-17.037 6-26 6Z"/><path fill="#CBC9CC" id="arb" d="m143 111-2 1.5c0 1.478 11.96-1.5 4-1.5h-2Z"/><path fill="#FDFB90" id="FOTU" d="m182 131 16.5-6c5.368-2.684 24.64-2 32-2h14c6.816 3.408 16.141 1.571 23 5l7.5 4c0-6.109 2-11.557 2-17l-3.5-2c-7.672-3.836-30.875 3.062-41-2-3.395-1.698-22.672 2-28.5 2h-18.5c-1.21 0-5.5.814-5.5 2l2 16Z"/><path fill="#CBC9CC" id="arb" d="M308 111c0 1.511 8 2.848 8 1.5 0-1.24-6.734-1.5-8-1.5Z"/><path fill="#FFFB8E" id="PRM" d="M125 197h1l7-7c0-6.473 7.292-10.084 10-15.5 3.921-7.842 17.624-23.624 24.5-30.5 3.227-3.227 10.074-12 14.5-12v-1l-2-16c-4.668 0-7.552 6.026-11.5 8-8.592 4.296-19.683 17.683-28 26L130 161.5l-4 3c-2.054-4.108 6.407-11.407 9-14l37-35.5-16.5 8c-14.797 7.399-29.163 16.581-44 24-5.24 2.62-11.353 8-17.5 8 0 3.022-5.58 9.34-3 14.5 5.68 11.36 17.184 28.5 33 28.5l1-1ZM324 190l6 7 8.5 1c10.751-5.376 21.281-17.062 26.5-27.5v-12l-3-3.5c-5.67 0-12.588-5.544-17.5-8-14.831-7.416-29.243-16.621-44-24-4.132-2.066-10.876-8-15.5-8 0 4.397 7.728 8.228 10.5 11 7.765 7.765 23.199 17.899 27.5 26.5 1.698 3.396 8 6.035 8 10 0 2.014-3.54.921-4 0L314.5 148c-7.275-7.275-18.919-21.959-29-27-2.762-1.381-5.29-6-8.5-6 0 5.443-2 10.891-2 17v1c4.556 0 7.476 6.488 10.5 8 4.213 2.106 26.467 29.434 29.5 35.5 2.169 4.338 9 8.447 9 13.5Z"/><path fill="#FBFC91" id="PYR" d="M183 144c3.034 0 4.95-3.725 7.5-5 6.437-3.218 14.635-2.818 21-6H224c12.418 0 27.158-1.171 37.5 4l11.5 7c2.815 0-.815-11 2-11v-1l-7.5-4c-6.859-3.429-16.184-1.592-23-5h-14c-7.36 0-26.632-.684-32 2l-16.5 6v1l1 12Z"/><path fill="#FFF990" id="COPY" fill-rule="evenodd" d="M151 182c0 1.93 1.93 0 0 0m1-1c0 1.93 1.93 0 0 0m1-1c0 2.091 3.746 0 0 0m2-1c0 1.93 1.93 0 0 0m-8 18h1l1-1 14.5-10 4.5-4 2-1c0-3.138 2-5.662 2-8 0-2.877 4.521-8 7-8 0-2.83 4-4.54 4-7v-9c-2.268 0-4.228 5.956-5 7.5-1.313 2.625-12.321 15.41-14.5 16.5l-7 6 9-11c1.798-1.798 17.5-23.471 17.5-24l-1-12c-4.426 0-11.273 8.773-14.5 12-6.876 6.876-20.579 22.658-24.5 30.5-2.708 5.416-10 9.027-10 15.5 0 11.99 7.977 7 14 7Z"/><path fill="#CBC9CC" id="arb" d="M183 149c0-6.819 13.917-8.209 17.5-10 12.037-6.019 43.962-6.019 56 0 4.397 2.198 16.5 3.741 16.5 10 2.481 0 7.073 8.646 8 10.5 1.508 3.016 20.027 23.5 23.5 23.5L294 171.5 273 144l-11.5-7c-10.342-5.171-25.082-4-37.5-4h-12.5c-6.365 3.182-14.563 2.782-21 6-2.55 1.275-4.466 5-7.5 5 0 .529-15.702 22.202-17.5 24l-9 11 7-6c2.179-1.09 13.187-13.875 14.5-16.5.772-1.544 2.732-7.5 5-7.5Z"/><path fill="#FFF990" id="COPY" d="M324 190c-.641 0-4.281 7.89-6.5 9-3.209 1.605-6.84-3-9.5-3-4.941 0-16.632-14-20-14l-1-1c0-1.93-.84-8-3-8 0-2.287-3.22-8-6-8 0-3.396-5-5.177-5-8v-8c2.481 0 7.073 8.646 8 10.5 1.508 3.016 20.027 23.5 23.5 23.5L294 171.5 273 144c2.815 0-.815-11 2-11 4.556 0 7.476 6.488 10.5 8 4.213 2.106 26.467 29.434 29.5 35.5 2.169 4.338 9 8.447 9 13.5Z"/><path fill="#FBFC91" id="PYR" d="m273 157-11.5-6c-9.898-4.949-26.215-3-38-3h-13c-5.965 2.982-13.937 1.969-20 5l-7.5 5v-9c0-6.819 13.917-8.209 17.5-10 12.037-6.019 43.962-6.019 56 0 4.397 2.198 16.5 3.741 16.5 10v8Z"/><path fill="#FFFA8F" id="UVU" d="M179 165c16.012 0 31.933-2 49-2h18.5c6.372 3.186 24.111 2 31.5 2 0-3.396-5-5.177-5-8l-11.5-6c-9.898-4.949-26.215-3-38-3h-13c-5.965 2.982-13.937 1.969-20 5l-7.5 5c0 2.46-4 4.17-4 7Z"/><path fill="#CBC9CC" id="arb" d="M172 173c3.466 0 6.575-2.538 9.5-4 3.08-1.54 7.809.595 11-1 2.576-1.288 26.041 1.48 33-2 2.502-1.251 11.764.882 14 2 3.088 1.544 22.1-.95 24 0 3.191 1.595 7.92-.54 11 1l9.5 4c0-2.287-3.22-8-6-8-7.389 0-25.128 1.186-31.5-2H228c-17.067 0-32.988 2-49 2-2.479 0-7 5.123-7 8Z"/><path fill="#FFFA8F" id="UVU" d="M235 194h2c12.521 0 26.072-2.786 36.5-8 2.039-1.02 12.5-1.042 12.5-4l1-1c0-1.93-.84-8-3-8l-9.5-4c-3.08-1.54-7.809.595-11-1-1.9-.95-20.912 1.544-24 0-2.236-1.118-11.498-3.251-14-2-6.959 3.48-30.424.712-33 2-3.191 1.595-7.92-.54-11 1-2.925 1.462-6.034 4-9.5 4 0 2.338-2 4.862-2 8l1 2 4.5 2 12 2c9.458 4.729 20.068 7 31.5 7h4c0-1.473 1.952-1 3-1h4c1.048 0 3-.473 3 1h2Z"/><path fill="#CBC9CC" id="arb" d="M155 179c0 1.93 1.93 0 0 0ZM153 180c0 2.091 3.746 0 0 0ZM152 181c0 1.93 1.93 0 0 0Z"/><path fill="#F0F080" id="CB" d="m168 182 3 1-1-2-2 1ZM286 182h2l-1-1-1 1Z"/><path fill="#CBC9CC" id="arb" d="M151 182c0 1.93 1.93 0 0 0Z"/><path fill="#FF9BCD" id="MY" d="m171 187-1 1 1-1Z"/><path fill="#FFA2D2" id="ECU" d="M189 192c0 4.237-7.328 9-11 9 0-2.032-8.889-3.194-10.5-4-3.125-1.562-.5-6.126-.5-8h1l1-1h1l1-1h8l1 1 8 3 1 1Z"/><path fill="#FF9BCD" id="MY" d="m179 187 1 1-1-1Z"/><path fill="#FFA2D2" id="ECU" d="M268 192c0 4.361 5.889 9 10 9 0-2.409 11.262-3.023 13-6.5 2.397-4.793-6-5.267-6-7.5-3.51 0-7.022 1-10 1l-1 1h-2l-1 1h-1l-1 1h-1v1Z"/><path fill="#FF9BCD" id="MY" d="M281 216c-1.423 0-3.544-1.978-5.5-1-3.341 1.671-8.641 4-12.5 4 0-2.19 3.41-2.68 2-5.5l-3-4.5h1l1.5 2c2.16 1.08 9.158-3.079 11-4 1.098-.549 6.153-6 2.5-6 0-2.409 11.262-3.023 13-6.5 2.397-4.793-6-5.267-6-7.5 11.806 0 34.741 23.982 40 34.5l4 12c2.867 5.734-2.922 33.5-8 33.5 0-2.023 4.802-15.104 6-17.5V243c0-12.629-1.904-14.308-7-24.5l-8-9.5-1-1-2-2c0-3.078-5.723-5-8-5 0-3.439-12.525-4.449-14-1.5l2 2.5c-5.281 0-10 3.412-10 9l2 5ZM169 188l-1 1 1-1ZM275 188l-1 1 1-1Z"/><path fill="#FF9BCD" id="MY" fill-rule="evenodd" d="M239 286c0 1.488-5.441 3.618-4 6.5 1.917 3.834 17 6.479 17 3 0-2.976-9.372-9.5-13-9.5m-26 0-9 9.5c0 2.049 4.337 1.5 5.5 1.5 5.591 0 17.848-5.076 8-10-1.718-.859-2.387-1-4.5-1m32-4c0 5.793 13.537 16.425 16 11.5.971-1.942-13.304-11.5-16-11.5m-36 0c0 3.919-16.1 7.3-14 11.5 3.238 6.476 22.844-11.5 14-11.5m21 13c5.146 0 9.253 1.877 13.5 4l29.5-1c2.24 0 14-.165 14-2-5.604 0 0-1.338 0-3-2.606 0-2.4.95-4.5 2-8.881 4.44-15.5-7.374-15.5-14-14.456 0-25.902-23.305-31-33.5-1.823-3.645 3-5.849 3-7.5l-1-2-8.5 1c-3.116-1.558.687-14.873 1.5-16.5 1.02-2.04 6-2.424 6-3.5-1.145 0-4 .579-4-1-.666 0-4 2.56-4 0h-6c0 1.473-1.952 1-3 1l5 2.5c.734 1.469 5.396 16.052 2.5 17.5l-8.5-1-1 2c0 2.108 4.182 4.137 3 6.5-4.88 9.76-17.44 34.5-31 34.5 0 5.967-7.505 17.998-15.5 14l-7.5-4 6 4.5-3.5.5c-2.723-1.362-10.5-4.699-10.5-8l-2-2c0 5.107-10-7.864-10-10-5.942 0-9.949-8.398-12-12.5-6.105-12.21-8.937-26.125-2-40 1.189-2.378 6.539-12.5 10-12.5 0-1.747.253-2 2-2v-1l1-1c2.553 0 4.41-6 9-6 0-3.935 15-4.374 15-.5l-3 1.5c5.878 0 10 2.734 10 9l-1 4c8.322 0 15.607 6 21 6l-6-5.5 4-6.5h-2c0 5.936-15.166-3.832-16-5.5l1-2.5c0-2.032-8.889-3.194-10.5-4-3.125-1.562-.5-6.126-.5-8-8.257 0-13.51 10.505-20.5 14-3.22 1.61-5.644 5.788-7.5 9.5l-8 10c-4.26 8.52-6.663 25.673-2 35l8 13 10 9c7.28 14.56 17.815 13.158 28.5 18.5h16c3.191 1.595 17.345 2.828 21 1 4.585-2.292 8.908-4 14.5-4 0-2.097-1-5.293-1-8-2.089 0-7.487-3.994-9.5-5l-1.5-2.5 4-4.5c-8.109 0 7.79-16 8-16 0-11.874 2-8.994 2 1l1.5-1 3 5c2.942 2.942 10.084 10 2.5 10l5 5.5-.5 2.5-5 1c-1.19.595-2.317 4-4.5 4l-1 8Z"/><path fill="#FF9BCD" id="MY" d="m272 189-1 1 1-1Z"/><path fill="#F0F080" id="CB" d="M126 197h4.5l3 3c2.505 1.253 13.5.26 13.5-3-6.023 0-14 4.99-14-7l-7 7Z"/><path fill="#FF9BCD" id="MY" d="m270 190-1 1 1-1Z"/><path fill="#F0F080" id="CB" d="M308 196c0 8.502 19.981 1 22 1l-6-7c-.641 0-4.281 7.89-6.5 9-3.209 1.605-6.84-3-9.5-3Z"/><path fill="#FF9BCD" id="MY" d="m189 192 6 1c0-2.273-5.226-2-7-2l1 1ZM264 192h4v-1c-1.145 0-4-.579-4 1Z"/><path fill="#FDA5D0" id="CU" d="M202 201c-2.864 0-9 4.841-9 8 0 5.936-15.166-3.832-16-5.5l1-2.5c3.672 0 11-4.763 11-9l6 1h2l6 3.5c1.399 2.799-1 2.108-1 4.5Z"/><path fill="#FF9BCD" id="MY" d="M264 192c-1.048 0-3-.473-3 1 1.048 0 3 .473 3-1Z"/><path fill="#FDA5D0" id="CU" d="M278 201c3.653 0-1.402 5.451-2.5 6-1.842.921-8.84 5.08-11 4l-1.5-2c0-3.159-6.136-8-9-8 0-3.329 1-4.97 1-6h1l1-1h1l1-1h2c1.048 0 3 .473 3-1h4c0 4.361 5.889 9 10 9Z"/><path fill="#FF9BCD" id="MY" d="M202 201h2l9-5c-5.611 0-11.074-3-16-3l6 3.5c1.399 2.799-1 2.108-1 4.5ZM223 194h3v-1c-1.048 0-3-.473-3 1ZM230 194h3c0-1.473-1.952-1-3-1v1ZM259 193l-1 1 1-1ZM221 194l-2 1v-1h2Z"/><path fill="#FFA5D0" id="AP" d="M217 196c0 4.752 7.047 7.595 9 11.5l1.5 3.5 3.5-3.5 9-11.5-1-1h-2l-2-1h-14l-2 1h-1l-1 1Z"/><path fill="#FF9BCD" id="MY" d="M237 194v1l-2-1h2ZM257 194l-1 1 1-1ZM218 195l-1 1 1-1ZM239 195l1 1-1-1ZM253 201h1c0-3.329 1-4.97 1-6l-12 1 10 5Z"/><path fill="#F0F080" id="CB" d="m149 196-1 1 1-1Z"/><path fill="#FDA5D1" id="NTS" fill-rule="evenodd" d="m252 205-1 2.5c0 5.618 8.675-2.5 1-2.5m-50 0c0 9.855 5.703 0 0 0m56 16h1l2-1 2-1c0-2.19 3.41-2.68 2-5.5l-3-4.5c-2.748 0-9-5.113-9-8l-10-5h-3l-9 11.5-3.5 3.5-1.5-3.5c-1.953-3.905-9-6.748-9-11.5h-4l-9 5c0 2.158-7.062 8-9 8l-4 6.5 6 5.5h1c2.519 0 6-1.083 6-4 0-10.546 19-11.371 19 1h5c0-1.186 1-1.186 1 0 0 2.56 3.334 0 4 0 0-13.118 19-10.568 19-1 1.548 0 2.767 4 6 4Z"/><path fill="#F0F080" id="CB" d="m125 197-1 1 1-1Z"/><path fill="#C8CACA" id="sptV" d="M161 203h1c0-1.473 1.952-1 3-1h2l3-1.5c0-3.874-15-3.435-15 .5 2.244 0 6-2.079 6 2ZM291 202l5 1c0-4.273 2.687-2 5-2 0-3.439-12.525-4.449-14-1.5l2 2.5h2Z"/><path fill="#FDA3D1" id="Pa5" d="M146 213h1l2-1 6-1 1-1h1l1-1 1-1v-1l1-1v-1l1-1v-1c0-4.079-3.756-2-6-2-4.59 0-6.447 6-9 6l-1 1v1l-2 2c0 3.947.591 2 3 2ZM307 212h2c6.13 0 3 3.809 3-3l-1-1-2-2c0-3.078-5.723-5-8-5-2.313 0-5-2.273-5 2l1 3 2 4h1l1 1 6 1Z"/><path fill="#FFB2D6" id="PAS" d="M193 209h2c1.938 0 9-5.842 9-8h-2c-2.864 0-9 4.841-9 8ZM262 209h1c0-3.159-6.136-8-9-8h-1c0 2.887 6.252 8 9 8Z"/><path fill="#FF9BCD" id="MY" d="M165 202c-1.048 0-3-.473-3 1 1.048 0 3 .473 3-1Z"/><path fill="#FDA5D2" id="SPVI" d="m159 209 4.5-2c3.902 1.951 8.884 4 13.5 4 0-6.266-4.122-9-10-9h-2c0 1.473-1.952 1-3 1l-1 1-1 1v1l-1 1v2ZM299 210l-5.5-3c-3.659 0-9.594 4-14.5 4 0-5.588 4.719-9 10-9h2l6 4 2 4Z"/><path fill="#FF9BCD" id="MY" d="m296 203 1 3-6-4 5 1ZM162 203l-1 1v-1h1ZM161 204l-1 1 1-1Z"/><path fill="#C8CAC7" id="ts" d="M202 205c0 9.855 5.703 0 0 0ZM252 205l-1 2.5c0 5.618 8.675-2.5 1-2.5Z"/><path fill="#FF9BCD" id="MY" d="m160 206-1 1 1-1Z"/><path fill="#C8CACA" id="sptV" d="m309 206 2 2-2-2ZM146 207l-1 1 1-1Z"/><path fill="#FDA4D0" id="SPVC" d="M148 270h2l3.5 1c11.682-5.841 10.056-31.611 15.5-42.5 1.835-3.669 7-9.38 7-13.5l1-4c-4.616 0-9.598-2.049-13.5-4l-4.5 2h-1l-1 1h-1l-1 1-6 1-1 1-1 1-1 1-1 2c0 2.807-2.807 5.113-4 7.5-2.479 4.959-.518 12.037-3 17-2.733 5.466 7 25.42 7 27.5h1l2 1ZM307 270h1l2-1h1l1-1 1-1c0-7.91 9.787-19.927 5-29.5-2.086-4.171-.917-9.835-3-14-1.685-3.37-6-6.446-6-10.5l-2-1-6-1-1-1h-1l-5.5-3c-3.659 0-9.594 4-14.5 4l2 5 6 11.5c6.191 12.382 2.889 36.694 16.5 43.5l3.5-1Z"/><path fill="#FF9BCD" id="MY" d="M158 209h1v-1l-1 1Z"/><path fill="#FDB1D8" id="DMX" d="M217 219h3c1.048 0 3 .473 3-1 0-12.371-19-11.546-19-1 1.199 0 13 1.285 13 2ZM237 219h3c0-.711 10.88-2 12-2 0-9.568-19-12.118-19 1 0 1.579 2.855 1 4 1Z"/><path fill="#C8CACA" id="sptV" d="M145 209c-1.747 0-2 .253-2 2l2-2Z"/><path fill="#FDA5D2" id="SPVI" d="m158 209-1 1 1-1Z"/><path fill="#C8CACA" id="sptV" d="M308 276h1l7-3 1-1c0-1.562 2.189-5 4-5 0-2.023 4.802-15.104 6-17.5V243c0-12.629-1.904-14.308-7-24.5l-8-9.5c0 6.809 3.13 3-3 3v1l1 1 3 3 2 3 1 1 1 1 1 1 3 5c2.461 0 2 3.378 2 5v6c2.168 0 3.178 10 0 10v1c0 1.048.473 3-1 3v1l-1 2-1 5-1 1v1l-1 1-2 2-1 1-2 1-1 1c0 2.968-4 4.633-4 7Z"/><path fill="#FF9BCD" id="MY" d="m156 210-1 1 1-1ZM300 210l1 1-1-1Z"/><path fill="#C8CACA" id="sptV" d="M147 276h1c0-2.232-3-4.029-3-7h-1l-2-2-2-1-2-2-1-3-1-1v-1l-1-1v-3c-2.528 0-4.533-16-2-16v-5c0-1.048-.473-3 1-3l1-2 1-3 1-1 2-3 1-1 1-1 1-1 1-1 1-1 1-2h1v-2c-2.409 0-3 1.947-3-2-3.461 0-8.811 10.122-10 12.5-6.937 13.875-4.105 27.79 2 40 2.051 4.102 6.058 12.5 12 12.5Z"/><path fill="#FF9BCD" id="MY" d="M147 213h1l1-1-2 1ZM309 212v1l-2-1h2ZM146 214h1v-1h-1v1Z"/><path fill="#FDA5D2" id="SPVI" d="m148 213-1 1v-1h1ZM313 267h2l1-1 2-2 1-1v-1l1-1 1-5 1-2v-1c0-1.048-.473-3 1-3v-17c-1.014 0-2-3.959-2-5l-3-5-1-1-1-1-1-1-2-3-3-3-1-1c0 4.054 4.315 7.13 6 10.5 2.083 4.165.914 9.829 3 14 4.787 9.573-5 21.59-5 29.5ZM147 214l-1 1v-1h1Z"/><path fill="#FF9BCD" id="MY" d="m310 214 3 3-3-3ZM144 217h1v-2l-1 2Z"/><path fill="#FDA5D2" id="SPVI" d="m146 215-1 2v-2h1Z"/><path fill="#FDB1D7" id="MDRNd" d="M164 278h1l2-1c0-3.031 4.653-6.805 6-9.5 5.218-10.435 13.745-19.49 19-30 2.064-4.129 9-7.663 9-12.5l-3-4h-1c-5.393 0-12.678-6-21-6 0 4.12-5.165 9.831-7 13.5-5.444 10.889-3.818 36.659-15.5 42.5l-3.5-1c0 3.26 3.787 7 7 7h6l1 1ZM294 277h5c3.22 0 8-3.477 8-7l-3.5 1c-13.611-6.806-10.309-31.118-16.5-43.5l-6-11.5c-1.423 0-3.544-1.978-5.5-1-3.341 1.671-8.641 4-12.5 4l-2 1-2 1h-1l-2 4c0 5.605 7.613 9.726 10 14.5 3.836 7.673 23 31.046 23 37.5h5Z"/><path fill="#FDA5D2" id="SPVI" d="M144 269h1c0-2.08-9.733-22.034-7-27.5 2.482-4.963.521-12.041 3-17 1.193-2.387 4-4.693 4-7.5h-1l-1 1-1 1-1 1-1 1-1 1-2 3-1 1-1 3-1 2c0 1.048.473 3-1 3v5c0 5.914 2 10.861 2 16v3l1 1v1l1 1 1 3 2 2 2 1 2 2Z"/><path fill="#FF9BCD" id="MY" d="M211 233h1c0-8.508-10.108-14 5-14 0-.715-11.801-2-13-2 0 2.917-3.481 4-6 4l3 4c0-2.186 3.726-.387 4.5 0 2.082 1.041 5.5 5.996 5.5 8Z"/><path fill="#A7AAA9" id="c" d="M228 218h1c0-1.186-1-1.186-1 0Z"/><path fill="#FF9BCD" id="MY" d="m245 232 1 1c0-6.261 5.946-8 10-8l2-4c-3.233 0-4.452-4-6-4-1.12 0-12 1.289-12 2 12.671 0 5 5.153 5 13ZM143 218l-1 1 1-1Z"/><path fill="#FEB1D7" id="XII" d="M212 233c1.636 0 3.733 5 7 5l8.5 1c2.896-1.448-1.766-16.031-2.5-17.5l-5-2.5h-3c-15.108 0-5 5.492-5 14Z"/><path fill="#FEB1D7" id="XII" d="M245 232c-2.465 0-3.564 6-7 6l-8.5 1c-3.116-1.558.687-14.873 1.5-16.5 1.02-2.04 6-2.424 6-3.5h3c12.671 0 5 5.153 5 13Z"/><path fill="#FF9BCD" id="MY" d="m263 219-2 1 2-1ZM141 220l-1 1 1-1ZM261 220l-2 1 2-1ZM315 220l1 1-1-1ZM140 221l-1 1 1-1ZM317 222l1 1-1-1Z"/><path fill="#FFB2D8" id="IRN" fill-rule="evenodd" d="m175 268-1 3.5c2.035 4.069 11.212-.144 4.5-3.5H175m-8 9v1c4.77 0 8.737-2 14-2 0-7.979 15.943-26.387 20-34.5 1.847-3.693 4.926-6.5 9-6.5l1-2c0-2.004-3.418-6.959-5.5-8-.774-.387-4.5-2.186-4.5 0 0 4.837-6.936 8.371-9 12.5-5.255 10.51-13.782 19.565-19 30-1.347 2.695-6 6.469-6 9.5ZM277 268c0 12.655 11.561 0 0 0m12 9v1c-4.77 0-8.737-2-14-2 0-5.375-15.262-30.881-19.5-33-3.641-1.82-2.618-8-8.5-8l-1-1v-1c0-6.261 5.946-8 10-8 0 5.605 7.613 9.726 10 14.5 3.836 7.673 23 31.046 23 37.5Z"/><path fill="#FF9BCD" id="MY" d="m137 225-1 1 1-1ZM321 228c2.461 0 2 3.378 2 5-1.014 0-2-3.959-2-5ZM135 229l-1 2 1-2ZM134 231c-1.473 0-1 1.952-1 3 1.473 0 1-1.952 1-3Z"/><path fill="#FFB1D9" id="NR" d="m238 238 1 2 7-5v-2l-1-1c-2.465 0-3.564 6-7 6Z"/><path fill="#FF9BCD" id="MY" d="M210 235h1v-2l-1 2Z"/><path fill="#FFB1D9" id="NR" d="m219 238-1 2c-3.153 0-4.304-5-7-5v-2h1c1.636 0 3.733 5 7 5Z"/><path fill="#FF9BCD" id="MY" d="M246 235h1l-1-1v1Z"/><path fill="#FFB1D6" id="MDRNv" d="M181 276c3.238 0 9 .865 9 5 13.56 0 26.12-24.74 31-34.5 1.182-2.363-3-4.392-3-6.5-3.153 0-4.304-5-7-5h-1c-4.074 0-7.153 2.807-9 6.5-4.057 8.113-20 26.521-20 34.5ZM275 276c-3.224 0-8 .939-8 5-14.456 0-25.902-23.305-31-33.5-1.823-3.645 3-5.849 3-7.5l7-5h1c5.882 0 4.859 6.18 8.5 8 4.238 2.119 19.5 27.625 19.5 33Z"/><path fill="#FF9BCD" id="MY" d="M133 239c-2.533 0-.528 16 2 16 0-5.139-2-10.086-2-16ZM323 239c2.168 0 3.178 10 0 10v-10Z"/><path fill="#FEC6E2" id="RO" d="M227 265h2v-5c0-9.994-2-12.874-2-1v6Z"/><path fill="#FF9BCD" id="MY" d="M323 250c-1.473 0-1 1.952-1 3 1.473 0 1-1.952 1-3ZM322 254l-1 2 1-2ZM135 258l1 1-1-1Z"/><path fill="#C8C8CC" id="tspc" d="M227 264c-4.25 0-2.855 11-8 11-8.109 0 7.79-16 8-16v5ZM230 264c0 1.144 4.758 10 6 10 7.584 0 .442-7.058-2.5-10l-3-5-1.5 1v3l1 1Z"/><path fill="#FF9BCD" id="MY" d="m136 260 1 1-1-1ZM320 261l-1 1 1-1ZM229 264h1l-1-1v1ZM319 263l-1 1 1-1ZM138 264l2 2-2-2Z"/><path fill="#FFB3D8" id="IO" d="m227 279-1 8c-2.089 0-7.487-3.994-9.5-5l-1.5-2.5 4-4.5c5.145 0 3.75-11 8-11v15ZM229 277c0 1.928.112 10 2 10 2.183 0 3.31-3.405 4.5-4l5-1 .5-2.5-5-5.5c-1.242 0-6-8.856-6-10h-1v13Z"/><path fill="#FF9BCD" id="MY" d="m229 277-2 2v-14h2v12ZM316 266l-1 1 1-1ZM142 267l2 2-2-2Z"/><path fill="#FDA5D2" id="SPVI" d="M312 268h1v-1l-1 1Z"/><path fill="#FF9BCD" id="MY" d="m315 267-2 1v-1h2ZM321 267c-1.811 0-4 3.438-4 5 1.811 0 4-3.438 4-5Z"/><path fill="#FF9BCD" id="MY" fill-rule="evenodd" d="M177 269c0 3.746 2.091 0 0 0m-2-1-1 3.5c2.035 4.069 11.212-.144 4.5-3.5H175ZM279 270c0 1.93 1.93 0 0 0m-2-2c0 12.655 11.561 0 0 0Z"/><path fill="#FDA5D2" id="SPVI" d="M311 269h1v-1l-1 1Z"/><path fill="#FF9BCD" id="MY" d="m313 268-1 1v-1h1ZM157 278c-1.048 0-3-.473-3 1-2.079 0-3.187-3-6-3 0-2.232-3-4.029-3-7h1l2 1h2c0 3.26 3.787 7 7 7v1Z"/><path fill="#FDA5D2" id="SPVI" d="m146 269 2 1-2-1Z"/><path fill="#FEB3D8" id="AMBv" d="M177 269c0 3.746 2.091 0 0 0Z"/><path fill="#FDA5D2" id="SPVI" d="m310 269-2 1 2-1Z"/><path fill="#FF9BCD" id="MY" d="m303 278-4 1v-2c3.22 0 8-3.477 8-7h1l2-1h2c0 2.968-4 4.633-4 7l-5 2Z"/><path fill="#FEB3D8" id="AMBv" d="M279 270c0 1.93 1.93 0 0 0Z"/><path fill="#FF9BCD" id="MY" d="m317 272-1 1 1-1ZM309 276c0 3.752-4 4.619-4 8l11-11-7 3Z"/><path fill="#C9CACA" id="sctd" d="M154 279c0 2.232 3 4.029 3 7 0 5.107-10-7.864-10-10h1c2.813 0 3.921 3 6 3Z"/><path fill="#FCB3D7" id="LRNm" d="M166 291h1l7.5 4c7.995 3.998 15.5-8.033 15.5-14 0-4.135-5.762-5-9-5-5.263 0-9.23 2-14 2h-3l-1-1h-6v1c0 3.794 6 6.572 6 10l3 3ZM290 291c-1.238 0-3 .423-3 2-2.606 0-2.4.95-4.5 2-8.881 4.44-15.5-7.374-15.5-14 0-4.061 4.776-5 8-5 5.263 0 9.23 2 14 2 1.235 0 5 .643 5-1h5v2c0 3.519-6 6.853-6 9l-3 3Z"/><path fill="#C9CACA" id="sctd" d="M305 284c-.752 0-6 5.07-6 2 0-3.555 4-4.955 4-8l5-2h1c0 3.752-4 4.619-4 8Z"/><path fill="#FF9BCD" id="MY" d="m163 277 1 1-1-1ZM165 278h2v-1l-2 1Z"/><path fill="#FFC6E2" id="RPA" d="M227 295h3l1-8c-1.888 0-2-8.072-2-10l-2 2-1 8c0 2.707 1 5.903 1 8Z"/><path fill="#FF9BCD" id="MY" d="M294 277c0 1.643-3.765 1-5 1v-1h5Z"/><path fill="#C8C8CB" id="rust" d="M163 288v1l-4-1-2-2c0-2.971-3-4.768-3-7 0-1.473 1.952-1 3-1 0 3.794 6 6.572 6 10ZM297 288l-4 1v-1c0-2.147 6-5.481 6-9l4-1c0 3.045-4 4.445-4 8l-2 2Z"/><path fill="#FFB3D8" id="IO" d="M209 282c0 3.919-16.1 7.3-14 11.5 3.238 6.476 22.844-11.5 14-11.5ZM245 282c0 5.793 13.537 16.425 16 11.5.971-1.942-13.304-11.5-16-11.5Z"/><path fill="#FF9BCD" id="MY" d="M297 288c0 4.7-10 5.036-10 8 4.798 0 18-5.826 18-12-.752 0-6 5.07-6 2l-2 2Z"/><path fill="#C7C9C9" id="py" d="m213 286-9 9.5c0 2.049 4.337 1.5 5.5 1.5 5.591 0 17.848-5.076 8-10-1.718-.859-2.387-1-4.5-1ZM239 286c0 1.488-5.441 3.618-4 6.5 1.917 3.834 17 6.479 17 3 0-2.976-9.372-9.5-13-9.5Z"/><path fill="#CBC7CC" id="sctv" d="M166 291h1l6 4.5-3.5.5c-2.723-1.362-10.5-4.699-10.5-8l4 1 3 2Z"/><path fill="#FF9BCD" id="MY" d="m163 289 3 2-3-3v1ZM293 289c0 1.577-1.762 2-3 2l3-3v1Z"/><path fill="#CBC7CC" id="sctv" d="M287 293c0 1.662-5.604 3 0 3 0-2.964 10-3.3 10-8l-4 1c0 1.577-1.762 2-3 2 0 1.577-1.762 2-3 2Z"/><path fill="#FF9BCD" id="MY" d="M290 291c-1.238 0-3 .423-3 2 1.238 0 3-.423 3-2Z"/></svg>