<svg xmlns="http://www.w3.org/2000/svg" viewBox="0 0 456 320"><path fill="#FCFB90" id="CUL4, 5" d="M155 132c6.123 0 15.268-9.036 18-14.5l1-20c1.91-3.82 3.084-8.168 5-12 4.173-8.345 15.049-14.775 22.5-18.5 5.318-2.659 12.551-1.276 18-4 2.958-1.479 8.485 2.257 9 2l1-2c3.87-1.935 12.035 1.518 15 3h7c8.398 4.2 19.968 8.436 24.5 17.5 2.615 5.23 4.412 10.825 7 16 1.138 2.275-1.658 6.685-1 8 1.645 3.29.368 7.735 2 11 2.233 4.465 11.366 13.5 17 13.5 0-12.53-.874-36.248-6-46.5-5.194-10.388-13-19.936-13-32.5-3.196 0-5.363-8.431-8.5-10-6.587-3.293-29.435-12.282-38-8-9.985 4.992-27.733-3.634-39 2-4.924 2.462-10.033 4.517-15 7l-7.5 9c0 13.227-7.564 22.628-13 33.5-3.83 7.66-6 35.717-6 45.5Z"/><path fill="#FDFB8F" id="SIM" d="M135 112c2.603 0 4.076-8.652 5-10.5l8-23 2-11c.977-1.954 8.325-9.588 10.5-8.5l-4 5-5.5 8.5-2 12-8 22c-3.687 7.374 1.413 16.826 4 22 .87 1.741 10 6.714 10 3.5 0-9.783 2.17-37.84 6-45.5 5.436-10.872 13-20.273 13-33.5l-5.5-6C158.229 41.865 127 60.285 127 69l4 6.5 1 27c1.324 2.647 3 6.4 3 9.5ZM322 113c-2.751 0-4.07-8.64-5-10.5-3.359-6.719-4.625-14.25-8-21l-2-13c-.8-1.6-9.403-10.049-10.5-9.5l8.5 12.5c1.586 3.172.439 7.877 2 11 3.6 7.2 4.372 15.745 8 23 2.592 5.185 1.404 17.596-2.5 21.5-.865.865-11.5 9.993-11.5 5 0-12.53-.874-36.248-6-46.5-5.194-10.388-13-19.936-13-32.5l6.5-6c9.421-4.71 40.5 12.364 40.5 22 0 1.654-3.155 6.81-4 8.5v22c-1.956 3.911-3 8.81-3 13.5Z"/><path fill="#CBC9CC" id="arb" fill-rule="evenodd" d="M209 143c0 2.431-.891 8.804 1.5 10l3-2c3.644-1.822 8.372-1.186 12-3 6.354-3.177 14.883 5 20 5 2.046 0 2.247-9.376 1-10-1.939-.97-6.434 1.217-8 2h-15c-5.558 0-9.13-2-14.5-2m139 16c5.316 0 10.104 1.802 14.5 4l4 3c1.215-.607-2.453-7 .5-7 0-2.898 5-1.109 5-3.5l-10.5.5c-3.513-1.756-24.5-6.344-24.5-10-10.559 0-13.31-20.595-.5-27 .784-.392 3.1-4.301 2.5-5.5l-6.5 5.5c-2.162 1.081-10.5-3.299-10.5-6-2.751 0-4.07-8.64-5-10.5-3.359-6.719-4.625-14.25-8-21l-2-13c-.8-1.6-9.403-10.049-10.5-9.5l8.5 12.5c1.586 3.172.439 7.877 2 11 3.6 7.2 4.372 15.745 8 23 2.592 5.185 1.404 17.596-2.5 21.5-.865.865-11.5 9.993-11.5 5-5.634 0-14.767-9.035-17-13.5-1.632-3.265-.355-7.71-2-11-.658-1.315 2.138-5.725 1-8-2.588-5.175-4.385-10.77-7-16-4.532-9.064-16.102-13.3-24.5-17.5h-7c-2.965-1.482-11.13-4.935-15-3l-1 2c-.515.257-6.042-3.479-9-2-5.449 2.724-12.682 1.341-18 4-7.451 3.725-18.327 10.155-22.5 18.5-1.916 3.832-3.09 8.18-5 12l-1 20c-2.732 5.464-11.877 14.5-18 14.5 0 3.214-9.13-1.759-10-3.5-2.587-5.174-7.687-14.626-4-22l8-22 2-12 5.5-8.5 4-5c-2.175-1.088-9.523 6.546-10.5 8.5l-2 11-8 23c-.924 1.848-2.397 10.5-5 10.5 0 3.101-8.638 8.431-11.5 7-2.651-1.326-7.805-10.89-8.5-9.5l4 8 4.5 3.5c7.453 7.453 5.54 12.421 1.5 20.5-.418.836-3.467 4.5-5 4.5l-7.5 5c-5.419 2.71-12.49 2.245-18 5-2.927 1.464-13.264-2.972-13.5-2.5-.786 1.572 8 2.966 8 5.5 4.429 0-.318 7 1.5 7 .303 0 11.54-7 18.5-7h11.5c1.794.897 5.115 5 6.5 5 5.545 0 2-2.359 2-5 0-23.508 12.93-7.715 19.5-11 3.13-1.565 5.848-3.424 9-5h4c2.743-1.372 11.812-7.594 15-6 4.366 2.183 1.5 4.546 1.5 8h7l3.5-4c5.794-2.897 23.491 3.518 19.5 11.5-1.072 2.144-7 5.111-7 6.5l6-1 5.5-3c9.169-4.584 17.155-6.923 27-2 1.529.765 9.5 3.162 9.5 5l12 3c0-2.665-17.025-3.451-12-13.5 2.679-5.359 22-10.735 22-2.5h7c0-3.159-2.213-6.143 1.5-8 1.774-.887 23.059 8.53 26 10 5.427 2.713 11.381-3.81 17-1 4.524 2.262 4.5 8.596 4.5 13 0 2.313-2.273 5 2 5l7.5-5H348m-141-22c7.465 0 17.654 10.423 26.5 6 3.692-1.846 11.467-6 15.5-6 9.001 0 22.094-11.689 26-19.5l5-4c2.255-4.51 1.069-12.863-1-17-5.033-10.066-14.498-19.5-24.5-24.5l-8-1c-2.063-1.031-18.044-3.978-20-3-3.727 1.864-9.384-.808-13 1-9.953 4.977-24.049 5.598-30.5 18.5-1.517 3.035-9.67 15.66-8 19 .92 1.839.133 4.266 1 6 3.531 7.063 22.218 24.5 31 24.5Z"/><path fill="#FCFC90" id="ANcr1" fill-rule="evenodd" d="M114 87c0 3.03-6 5.98-6 8.5l5 6 1.5 5.5c1.632 0-1.5-8.642-1.5-9.5 0-2.001 2.708-10.5 1-10.5m-43 33c5.107 0 16.355.21 19 5.5 2.638 5.276 3.535 12.517 9.5 15.5 5.079 2.539 11.899 1.45 17 4 1.046.523 3.5-.951 3.5 1 1.533 0 4.582-3.664 5-4.5 4.04-8.079 5.953-13.047-1.5-20.5l-4.5-3.5-4-8c.695-1.39 5.849 8.174 8.5 9.5 2.862 1.431 11.5-3.899 11.5-7 0-3.1-1.676-6.853-3-9.5l-1-27-4-6.5c-6.089 0-10.713-.893-16.5 2-9.631 4.816-34.7 32.9-39.5 42.5v6.5Z"/><path fill="#FCFB90" id="CUL4, 5" d="M207 137c-8.782 0-27.469-17.437-31-24.5-.867-1.734-.08-4.161-1-6-1.67-3.34 6.483-15.965 8-19 6.451-12.902 20.547-13.523 30.5-18.5 3.616-1.808 9.273.864 13-1 1.956-.978 17.937 1.969 20 3l8 1c10.002 5 19.467 14.434 24.5 24.5 2.069 4.137 3.255 12.49 1 17l-5 4c-3.906 7.811-16.999 19.5-26 19.5 0-12.251 9.319-18.861 3-31.5-3.299-6.598-11.54-3.02-16.5-5.5-7.218-3.609-28.071-1.358-32.5 7.5-5.059 10.118 4 19.843 4 29.5Z"/><path fill="#FCFC90" id="ANcr1" fill-rule="evenodd" d="m340 109-1 1.5c-2.688 5.375 5.521-1.5 1-1.5m2-7-1 2.5c-2.881 5.762 5.959-2.5 1-2.5m-1-15 2 5.5v9l5-5c.416-.832-5.67-9.5-7-9.5m44 33c-4.028 0-15.983.466-18 4.5-2.132 4.264-3.423 12.961-8.5 15.5-4.408 2.204-11.325 4-16.5 4-.671 0-5 1.328-5 2-10.559 0-13.31-20.595-.5-27 .784-.392 3.1-4.301 2.5-5.5l-6.5 5.5c-2.162 1.081-10.5-3.299-10.5-6 0-4.69 1.044-9.589 3-13.5v-22c.845-1.69 4-6.846 4-8.5 4.108 0 8.375-2.062 12.5 0 15.717 7.858 36.869 31.238 44.5 46.5l-1 4.5Z"/><path fill="#CBC9CC" id="arb" d="M114 87c0 3.03-6 5.98-6 8.5l5 6 1.5 5.5c1.632 0-1.5-8.642-1.5-9.5 0-2.001 2.708-10.5 1-10.5ZM341 87l2 5.5v9l5-5c.416-.832-5.67-9.5-7-9.5Z"/><path fill="#FFFC8E" id="CENT3" d="M207 137c7.465 0 17.654 10.423 26.5 6 3.692-1.846 11.467-6 15.5-6 0-12.251 9.319-18.861 3-31.5-3.299-6.598-11.54-3.02-16.5-5.5-7.218-3.609-28.071-1.358-32.5 7.5-5.059 10.118 4 19.843 4 29.5Z"/><path fill="#CBC9CC" id="arb" d="m342 102-1 2.5c-2.881 5.762 5.959-2.5 1-2.5ZM340 109l-1 1.5c-2.688 5.375 5.521-1.5 1-1.5Z"/><path fill="#FCFA91" id="ANcr2" d="m89 159-13 8c-.842 0-5.54-4.581-6-5.5-2.89-5.78-11.008-15.984-7-24 2.067-4.135 8-13.644 8-17.5 5.107 0 16.355.21 19 5.5 2.638 5.276 3.535 12.517 9.5 15.5 5.079 2.539 11.899 1.45 17 4 1.046.523 3.5-.951 3.5 1l-7.5 5c-5.419 2.71-12.49 2.245-18 5-2.927 1.464-13.264-2.972-13.5-2.5-.786 1.572 8 2.966 8 5.5Z"/><path fill="#FCFA91" id="ANcr2" fill-rule="evenodd" d="m374 153-1.5 2c1.95.975 3.675-2 1.5-2m-7 6c1.636 0 13 6.451 13 8 3.621 0 7.763-7.026 9-9.5 3.86-7.72 6.288-18.425 2-27-1.779-3.559-6-6.248-6-10.5-4.028 0-15.983.466-18 4.5-2.132 4.264-3.423 12.961-8.5 15.5-4.408 2.204-11.325 4-16.5 4-.671 0-5 1.328-5 2 0 3.656 20.987 8.244 24.5 10l10.5-.5c0 2.391-5 .602-5 3.5Z"/><path fill="#FFFDBC" id="IP" d="m135 178 2 2 13-5 1-1h1c0-1.662 4.357-3 6-3 0-2.109 2.535-2 4-2 0-4.61 1.255-14 7-14l2-1 4-4 1-1 2-4c0-3.454 2.866-5.817-1.5-8-3.188-1.594-12.257 4.628-15 6h-4c-3.152 1.576-5.87 3.435-9 5-6.57 3.285-19.5-12.508-19.5 11 3.631 0 8 13.09 8 15.5 0 .392-2 1.56-2 3.5ZM322 178l-3 2-13-5c0-1.823-9.17-6-11-6h-1c0-5.487-1.536-16-9-16h-1l-1-1-1-1-4-6c0-3.159-2.213-6.143 1.5-8 1.774-.887 23.059 8.53 26 10 5.427 2.713 11.381-3.81 17-1 4.524 2.262 4.5 8.596 4.5 13-3.614 0-8.182 13.136-7 15.5l2 3.5Z"/><path fill="#FFFCBC" id="FN" d="M188 163h2c0-1.638 3.576-2 5-2 0-1.353 4.643-2 6-2 0-1.389 5.928-4.356 7-6.5 3.991-7.982-13.706-14.397-19.5-11.5l-3.5 4c0 1.32-3.135 10-4 10v2l-1 1v2l1 2 4 2 3-1ZM275 163l-4 1-3-1h-2c0-2.109-2.535-2-4-2h-1c0-2.665-17.025-3.451-12-13.5 2.679-5.359 22-10.735 22-2.5 0 1.207 4.448 12 5 12v2l-1 4Z"/><path fill="#CBC8CA" id="cbc" d="M209 143c0 2.431-.891 8.804 1.5 10l3-2c3.644-1.822 8.372-1.186 12-3 6.354-3.177 14.883 5 20 5 2.046 0 2.247-9.376 1-10-1.939-.97-6.434 1.217-8 2h-15c-5.558 0-9.13-2-14.5-2Z"/><path fill="#F0F080" id="CB" d="M176 149c5.051 0 5 .036 5 6 .865 0 4-8.68 4-10h-7l-2 4ZM282 151l-2.5-2c-5.828-2.914-3.5 4.96-3.5 8-.552 0-5-10.793-5-12h7l4 6Z"/><path fill="#FEB1D8" id="ICB" d="m180 160-3 3c-3.372 0-13.268 1.037-10-5.5l2-2.5 2-1 4-4 1-1c5.051 0 5 .036 5 6v2l-1 1v2ZM276 157v2l4.5 4c2.418 1.209 11.588-.324 9.5-4.5l-5-5.5h-1l-1-1-1-1-2.5-2c-5.828-2.914-3.5 4.96-3.5 8Z"/><path fill="#F0F080" id="CB" d="m176 149-1 1 1-1Z"/><path fill="#FEFA91" id="LING" d="M207 158c3.322 0 11.408 1.454 14.5 3 7.685 3.843 20.472-3 27.5-3 0-1.838-7.971-4.235-9.5-5-9.845-4.923-17.831-2.584-27 2l-5.5 3Z"/><path fill="#F0F080" id="CB" d="m283 152 1 1-1-1ZM288 170h1c0-1.643 3.765-1 5-1 0-5.487-1.536-16-9-16l5 5.5c2.088 4.176-7.082 5.709-9.5 4.5l-4.5-4-1 4c6.14 0 11.472 7 13 7Z"/><path fill="#CBC9CC" id="arb" d="m374 153-1.5 2c1.95.975 3.675-2 1.5-2Z"/><path fill="#F0F080" id="CB" d="m171 154-2 1 2-1ZM162 169l7 1c0-3.514 8-5.009 8-7-3.372 0-13.268 1.037-10-5.5l2-2.5c-5.745 0-7 9.39-7 14ZM181 157l-1 1 1-1Z"/><path fill="#FDFC8F" id="NOD" d="M244 177h3l2-1h1l2-1h2l1-1h3l1-1h4c0-2.37 2-3.455 2-7v-3l-3-2h-1l-12-3c-7.028 0-19.815 6.843-27.5 3-3.092-1.546-11.178-3-14.5-3l-6 1c0 1.995-4.377 2-6 2l-4 2v4c0 2.72 2 3.553 2 6l8 1 2 1h2l2 1h1l2 1h2l15.5 3c2.517-1.258 12.495-3 16.5-3Z"/><path fill="#FFFB8E" id="PRM" d="M105 173c-5.536 0-6 11.677-6 15-1.643 0-10.66 1.42-11.5 1-7.008-3.504-11.5-14.566-11.5-22l13-8c4.429 0-.318 7 1.5 7 .303 0 11.54-7 18.5-7 0 4.25-3 8.447-3 13l-1 1Z"/><path fill="#FFF990" id="COPY" d="m129 177-5 10c-3.137 0-11.269-15-18-15 0-4.553 3-8.75 3-13h11.5c1.794.897 5.115 5 6.5 5 0 2.846 2 5.382 2 9v4Z"/><path fill="#FFFDBB" id="DN" d="m130 176 5 2c0-1.94 2-3.108 2-3.5 0-2.41-4.369-15.5-8-15.5 0 2.641 3.545 5-2 5 0 2.846 2 5.382 2 9 1.473 0 1 1.952 1 3Z"/><path fill="#CBC9CC" id="arb" d="M201 159c-1.357 0-6 .647-6 2 1.623 0 6-.005 6-2Z"/><path fill="#FFFDBB" id="DN" d="m326 176-4 2-2-3.5c-1.182-2.364 3.386-15.5 7-15.5 0 2.313-2.273 5 2 5 0 3.911-2 6.607-2 11l-1 1Z"/><path fill="#FFF990" id="COPY" d="M327 176c0 1.575 4.409 12 6 12 0-4.591 13.271-16 18-16 0-4.25-3-8.447-3-13h-11.5l-7.5 5c0 3.911-2 6.607-2 11v1Z"/><path fill="#FFFB8E" id="PRM" d="M351 172c0 .966 7 8.2 7 16 1.845 0 8.263 2.119 10.5 1 7.722-3.861 11.5-13.907 11.5-22 0-1.549-11.364-8-13-8-2.953 0 .715 6.393-.5 7l-4-3c-4.396-2.198-9.184-4-14.5-4 0 4.553 3 8.75 3 13Z"/><path fill="#F0F080" id="CB" d="M181 162c0 1.579-2.855 1-4 1l3-3 1 2Z"/><path fill="#CBC9CC" id="arb" d="M190 163h1l4-2c-1.424 0-5 .362-5 2ZM265 163h1c0-2.109-2.535-2-4-2l3 2Z"/><path fill="#FEFDBC" id="VeCB" d="M170 174h1c0-.886 5.824-3 7-3l2-1 1-1h1c0-1.223 3-1.409 3-5l-4-2c0 1.579-2.855 1-4 1 0 1.991-8 3.486-8 7v2l1 1v1Z"/><path fill="#F0F080" id="CB" d="M182 169h1l8-2v-4h-1c0 1.399-2 1.399-2 0l-3 1c0 3.591-3 3.777-3 5Z"/><path fill="#CBC9CC" id="arb" d="M188 163h2c0 1.399-2 1.399-2 0Z"/><path fill="#F0F080" id="CB" d="M273 169h1c0-2.297-3-1.849-3-5l-3-1c0 1.186-1 1.186-1 0h-2v3l8 3Z"/><path fill="#CBC9CC" id="arb" d="M267 163h1c0 1.186-1 1.186-1 0Z"/><path fill="#FEFDBC" id="VeCB" d="M286 173h1l1-2v-1c-1.528 0-6.86-7-13-7l-4 1c0 3.151 3 2.703 3 5h1c1.238 0 3 .423 3 2h1l7 2Z"/><path fill="#AAA9A7" id="V4" d="M273 171c-2.978 0-7.022 2-10 2 0-2.37 2-3.455 2-7l8 3v2ZM183 171c2.978 0 7.022 2 10 2 0-2.447-2-3.28-2-6l-8 2v2Z"/><path fill="#F0F080" id="CB" d="M158 171h2l1-1h1v-1c-1.465 0-4-.109-4 2Z"/><path fill="#FF9BCD" id="MY" d="M169 170v1l-7-1v-1l7 1Z"/><path fill="#F0F080" id="CB" d="m181 169-1 1 1-1Z"/><path fill="#A9AAA7" id="V4r" d="M180 171h3v-2h-2l-1 1v1ZM283 176c-1.564 0-3.876 1-6 1 0-2.006 5.505-6-4-6v-2h2l3 2h1l4 5Z"/><path fill="#F0F080" id="CB" d="M275 169c1.238 0 3 .423 3 2l-3-2Z"/><path fill="#FF9BCD" id="MY" d="m289 170 8 1-2-2h-1c-1.235 0-5-.643-5 1Z"/><path fill="#F0F080" id="CB" d="M302 177h1c0-4.258-.956-2 3-2 0-1.823-9.17-6-11-6l2 2c2.393 0 3 3.234 3 5l2 1Z"/><path fill="#FF9BCD" id="MY" d="m161 170-1 1 1-1Z"/><path fill="#FDB3D6" id="SUV" d="M170 174c0 14.172-13.093 3-14 3 0-2.483 2-4.026 2-6h2l1-1h1l7 1v1l1 1v1Z"/><path fill="#F0F080" id="CB" d="M178 171h2v-1l-2 1Z"/><path fill="#A9AAA8" id="chpl" d="m233 198-1 1c-1.791 0-2.959 3.27-5.5 2l-3.5-3v-1l-5-6.5c-7.512-15.025-17.916-13.5-32-13.5h-7c0-1.24-2-1.576-2-4 1.238 0 3-.423 3-2h3c2.978 0 7.022 2 10 2l8 1 2 1h2l2 1h1l2 1h2c0 5.286 23.11 4.195 27.5 2 1.119-.559 4.5-.155 4.5-2h3l2-1h1l2-1h2l1-1h3l1-1h4c2.978 0 7.022-2 10-2 9.505 0 4 3.994 4 6h-6c-6.337 0-28-3.53-28 8-1.747 0-2 .253-2 2-1.617 0-4 4.583-4 6l-2 2v1l-1 1-1 1Z"/><path fill="#FF9BCD" id="MY" d="m289 170-1 1v-1h1Z"/><path fill="#FDB3D6" id="SUV" d="m300 176-1 3c-5.781 0-12 6.239-12-6l1-2 1-1 8 1c2.393 0 3 3.234 3 5Z"/><path fill="#F0F080" id="CB" d="M155 177h1c0-2.483 2-4.026 2-6-1.643 0-6 1.338-6 3 3.382 0 1 1.342 1 3h2ZM171 174l2 2c0-1.712 2.571-3 4-3l1-2c-1.176 0-7 2.114-7 3Z"/><path fill="#A9AAA7" id="V4r" d="M180 171c0 1.577-1.762 2-3 2l1-2h2Z"/><path fill="#F0F080" id="CB" d="M286 173c0 2.041-.959 3-3 3l-4-5 7 2Z"/><path fill="#FFF990" id="COPY" d="m106 172-1 1 1-1Z"/><path fill="#FFFC8D" id="PFL" d="M112 217h5c1.936 0 2.904-13 5-13v-2l-2-2.5c-3.041-6.082 4-7.133 4-12.5-3.137 0-11.269-15-18-15l-1 1c-5.536 0-6 11.677-6 15 0 3.339 8.071 17.643 10 21.5.846 1.692-.083 7.5 3 7.5Z"/><path fill="#FF9BCD" id="MY" d="m169 172 1 1-1-1Z"/><path fill="#FFFC8D" id="PFL" d="M339 217h6l2-2.5 2-10c2.183-4.366 9-11.64 9-16.5 0-7.8-7-15.034-7-16-4.729 0-18 11.409-18 16 0 4.918 5.791 5.918 3 11.5-.459.919.765 2.5-1 2.5v5c1.693 0 4 8.239 4 10Z"/><path fill="#F0F080" id="CB" d="m130 176-1 1v-4c1.473 0 1 1.952 1 3Z"/><path fill="#A9AAA7" id="V4r" d="M173 176c1.564 0 3.876 1 6 1 0-1.24-2-1.576-2-4-1.429 0-4 1.288-4 3Z"/><path fill="#AAA9A7" id="V4" d="m259 173-1 1 1-1Z"/><path fill="#FF9BCD" id="MY" d="M302 188v1c-4.226 0-19.607-11-31-11v-1h6c2.124 0 4.436-1 6-1 2.041 0 3-.959 3-3h1c0 12.239 6.219 6 12 6 0 1.732-1.516 8 2 8l1 1Z"/><path fill="#F0F080" id="CB" d="m151 174-1 1 1-1Z"/><path fill="#A9AAA7" id="V4r" d="M137 180c-3.748 0-10 7.36-10 11l5.5-6c6.386-3.193 11.794-7 19.5-7l1-1c0-1.658 2.382-3-1-3h-1l-1 1-13 5Z"/><path fill="#FF9BCD" id="MY" d="M186 178c-11.178 0-22.282 9-29 9l1-5.5-3-4.5h1c.907 0 14 11.172 14-3h1l2 2c1.564 0 3.876 1 6 1h7v1Z"/><path fill="#AAA9A7" id="V4" d="m201 174 2 1-2-1ZM255 174l-1 1 1-1Z"/><path fill="#A9AAA7" id="V4r" d="M335 202v4c-.832 0-5.167-12.833-6-14.5-4.501-9.002-15.74-13.5-25-13.5l-1-1c0-4.258-.956-2 3-2l13 5c5.761 0 16 17.023 16 22Z"/><path fill="#AAA9A7" id="V4" d="m205 175 2 1-2-1ZM252 175l-2 1 2-1Z"/><path fill="#F0F080" id="CB" d="M326 176h1v-1l-1 1Z"/><path fill="#CBC9CC" id="arb" d="m123 200-1 2-2-2.5c-3.041-6.082 4-7.133 4-12.5l5-10 1-1 5 2 2 2c-3.748 0-10 7.36-10 11-2.911 0-4 6.752-4 9Z"/><path fill="#AAA9A7" id="V4" d="M218 193c2.741 0 2.268 4 5 4l-5-6.5c-7.512-15.025-17.916-13.5-32-13.5v1h3c11.385 0 20.181-1.138 26 10.5l3 4.5ZM208 176l2 1-2-1ZM249 176l-2 1 2-1ZM269 178h2v-1c-6.337 0-28-3.53-28 8l7.5-6c5.599-2.8 11.029-1 17.5-1h1Z"/><path fill="#FF9BCD" id="MY" d="M302 177c0 1.577-1.762 2-3 2l1-3 2 1Z"/><path fill="#CBC9CC" id="arb" d="M333 188c0 4.918 5.791 5.918 3 11.5-.459.919.765 2.5-1 2.5 0-4.977-10.239-22-16-22l3-2 4-2h1c0 1.575 4.409 12 6 12Z"/><path fill="#F0F080" id="CB" d="m153 177-1 1 1-1Z"/><path fill="#FEA5D1" id="DCO" d="m128 219-1 1c-6.994 0-5-11.364-5-16 1.579 0 1-2.855 1-4 1.289 0 4-7.597 4-9l5.5-6c6.386-3.193 11.794-7 19.5-7l1-1h2l3 4.5-1 5.5h-2c-1.058 0-3.029 1-1 1v1h-1v1c-1.347 0-8 3.438-8 5-2.226 0-4 1.774-4 4-2.275 0-4 3.756-4 6-2.177 0-4 4.336-4 6-3.114 0-4 4.168-4 7l-1 1Z"/><path fill="#FFB0D7" id="MV" d="m209 209-3.5 3c-2.364 1.182-5.696-1-7.5-1-2.952 0-10.766-3-15-3v-1c0-8.517 5-17.39 5-28l1-1c11.385 0 20.181-1.138 26 10.5l3 4.5-8 14-1 2Z"/><path fill="#AAA9A7" id="V4" d="m212 177 15.5 3c2.517-1.258 12.495-3 16.5-3 0 1.845-3.381 1.441-4.5 2-4.39 2.195-27.5 3.286-27.5-2Z"/><path fill="#FFB0D7" id="MV" d="M274 208c-4.06 0-12.296 3-15 3-2.524 0-12 3.372-12-3l-8-15 2-6 2-2 7.5-6c5.599-2.8 11.029-1 17.5-1v1c0 10.249 6 20.207 6 28v1Z"/><path fill="#FEA5D1" id="DCO" d="m328 219 1 1c6.595 0 6-7.895 6-13v-1c-.832 0-5.167-12.833-6-14.5-4.501-9.002-15.74-13.5-25-13.5l-1-1h-1c0 1.577-1.762 2-3 2 0 1.732-1.516 8 2 8 2.434 0 3.962 1 1 1v1l1 1c5.523 0 13.469 7.438 16 12.5l5 8.5c2.716 0 4 6.173 4 8Z"/><path fill="#FF9BCD" id="MY" d="m303 177 1 1-1-1Z"/><path fill="#FEB1D9" id="SPIV" d="M181 208c-5.192 0-10.33 2-16 2l-4-2c0-3.354-2.011-8-6-8l-2-4v-6l1-1 1-1 2-1c6.718 0 17.822-9 29-9h2v1c0 10.61-5 19.483-5 28l-2 1Z"/><path fill="#FF9BCD" id="MY" d="m189 178-1 1v-1h1ZM269 178l-1 1v-1h1Z"/><path fill="#FEB1D9" id="SPIV" d="M275 208c5.501 0 11.062 2 17 2 1.658 0 3-1.461 3-3 0-2.421 3.425-7 6-7 0-1.171 2-6.459 2-10l-1-1c-4.226 0-19.607-11-31-11h-2l-1 1c0 10.249 6 20.207 6 28l1 1Z"/><path fill="#AAA9A7" id="V4" d="M243 185c-1.747 0-2 .253-2 2l2-2Z"/><path fill="#CCCBC8" id="das" d="M154 188h1v-1c-1.058 0-3.029 1-1 1Z"/><path fill="#FF9BCD" id="MY" d="m157 187-2 1v-1h2Z"/><path fill="#AAA9A7" id="V4" d="M237 193h2l2-6c-1.617 0-4 4.583-4 6Z"/><path fill="#CCCBC8" id="das" d="M301 187c2.434 0 3.962 1 1 1l-1-1Z"/><path fill="#FF9BCD" id="MY" d="m155 188-1 1v-1h1ZM154 189l-1 1v-1h1ZM145 195h8v-5c-1.347 0-8 3.438-8 5ZM321 228c0-7.607-7.053-19.777-13.5-23l-1.5-3.5c-5.584-11.168 5.878-8.244 8-4l13 26c.721 1.442 2.276 9.5 4 9.5 0-3.991-2-9.158-2-13l-1-1c-2.944 0-4-5.939-4-8l-5-8.5c-2.531-5.062-10.477-12.5-16-12.5 0 3.541-2 8.829-2 10 2.625 0 6.624 3.252 5 6.5l-4 2.5c6.129 0 12.323 6.147 15 11.5l4 7.5Z"/><path fill="#FFFC8D" id="PFL" d="m70 191-9 6.5c-3.3 6.6-4 10.892-4 19 0 7.195-1.046 17.907 2 24 1.695 3.39.25 8.499 2 12 5.116 10.233 18.6 9.45 26.5 5.5l3.5-1.5c11.597-23.194 19.245-65.5-21-65.5Z"/><path fill="#A9AAA7" id="V4r" d="M127 191c-2.911 0-4 6.752-4 9 1.289 0 4-7.597 4-9Z"/><path fill="#FFFC8D" id="PFL" d="M380 191c0 1.259-9.067 3.283-10.5 4-7.389 3.694-11.226 11.951-14.5 18.5-.943 1.886 2.88 22.76 4 25v4l7 14c3.701 7.402 23.66 5.68 27-1l4-7c1.951-3.903 3.706-41.589 2-45-3.942-7.883-10.023-12.5-19-12.5Z"/><path fill="#FFB3D7" id="PRP" d="M234 209h12l1-1-8-15h-2c0 1.747-.253 2-2 2v1l-1 1-1 1-1 1c0 6.633-9 3.639-9-1v-1c-2.732 0-2.259-4-5-4l-8 14v2h17c0-2.296 4.212 0 7 0Z"/><path fill="#AAA9A7" id="V4" d="m237 193-2 2c1.747 0 2-.253 2-2Z"/><path fill="#C9C9C8" id="icp" d="M135 272c0-2.768 6.241 0 7 0 0-2.472-7.728-8.955-9-11.5-3.413-6.826-1-14.157-1-21.5l1-2v-3l1-2c0-1.048-.473-3 1-3 0-1.424.362-5 2-5 0-4.043 10.225-22 14-22v-1l2-5v-1h-8l-4 4c0 1.417-2.383 6-4 6 0 5.673-5.497 14.495-8 19.5-.663 1.326-1.002 6.5-3 6.5l-1 9-1 1v1c0 1.406.714 7-1 7v5c1.473 0 1 1.952 1 3v1l1 1v1c1.012 0 5 7.673 5 9l1 1 4 2ZM322 272h1l1-1 1-1 1-1 1-1v-1l2-2 1-2 1-2v-1l1-1v-1l1-2v-4l-1-11-1-8c-1.724 0-3.279-8.058-4-9.5l-13-26c-2.122-4.244-13.584-7.168-8 4l1.5 3.5c6.447 3.223 13.5 15.393 13.5 23v1l2 4v2l1 1c0 5.141 3.586 15.328 1 20.5-.879 1.757-9 14.187-9 14.5 2.124 0 4.436 1 6 1Z"/><path fill="#FF9BCD" id="MY" d="M145 195c-2.226 0-4 1.774-4 4l4-4ZM155 200l-4 1 2-5 2 4Z"/><path fill="#AAA9A7" id="V4" d="m235 196-1 1 1-1ZM234 197l-1 1 1-1ZM223 198l3.5 3c2.541 1.27 3.709-2 5.5-2 0 6.633-9 3.639-9-1ZM233 198l-1 1 1-1Z"/><path fill="#FF9BCD" id="MY" d="M141 199c-2.275 0-4 3.756-4 6 1.617 0 4-4.583 4-6Z"/><path fill="#A9AAA7" id="V4r" d="M122 202v2c1.579 0 1-2.855 1-4l-1 2Z"/><path fill="#FFB0D9" id="x" d="M151 202c0 8.943 3.364 6 10 6 0-3.354-2.011-8-6-8l-4 1v1ZM295 207c1.835 0 4.235 2 7 2l4-2.5c1.624-3.248-2.375-6.5-5-6.5-2.575 0-6 4.579-6 7Z"/><path fill="#FF9BCD" id="MY" d="M137 224c.422 0 7.463-11.482 10.5-13 4.172-2.086 8.611-2.722 5.5 3.5-1.764 3.528-8 6.369-8 10.5 1.669 0 10.353-10 18-10 0-2.567 2-3.913 2-5l-4-2c-6.636 0-10 2.943-10-6-3.775 0-14 17.957-14 22Z"/><path fill="#A9AAA7" id="V4r" fill-rule="evenodd" d="M118 219c0 2.448-1.324 1.851 0 4.5l1 5c4.708 9.417 10.32-9.5-1-9.5m6 22v1l-2-1c0-6.423-7-13.736-7-20l2-4c1.936 0 2.904-13 5-13 0 4.636-1.994 16 5 16l-1 11-1 9-1 1Z"/><path fill="#FF9BCD" id="MY" d="m127 220-1 11c1.998 0 2.337-5.174 3-6.5 2.503-5.005 8-13.827 8-19.5-2.177 0-4 4.336-4 6 0 1.572-2.052 7-4 7l-1 1-1 1ZM181 208h2v-1l-2 1ZM209 209h1v-2l-1 2ZM228 233c0 2.212 1 2.212 1 0l.5-23c3.418-1.709 1.5 10.197 1.5 12l4-1-2-3.5c-.307-.614 1-7.988 1-8.5-2.788 0-7-2.296-7 0 0 7.946 1 16.711 1 24ZM274 208h1l-1-1v1ZM293 215c6.059 0 9.54 3.52 14.5 6l5.5 6c0-6.566-11-10.61-11-18-2.765 0-5.165-2-7-2 0 1.539-1.342 3-3 3 0 1.49 1 2.587 1 5Z"/><path fill="#A9AAA7" id="V4r" fill-rule="evenodd" d="m335 219-4 7.5c-.742 1.484 2.486 5.507 4.5 4.5 3.502-1.751 5.659-12-.5-12m-3 22h3c0-7.024 6-13.243 6-20l-2-4c0-1.761-2.307-10-4-10 0 5.105.595 13-6 13 0 3.842 2 9.009 2 13l1 8Z"/><path fill="#FDA5D1" id="NTS" d="M172 221h2l1-1c4.587 0 9.821-4 15-4h1c0-1.429 5.655-3 7-3v-2c-2.952 0-10.766-3-15-3h-2c-5.192 0-10.33 2-16 2 0 1.087-2 2.433-2 5 1.622 0 7 2.996 7 5l2 1Z"/><path fill="#FF9BCD" id="MY" d="M259 213c-3.423 0-6.474 2-9 2-1.773 0-.513-6-4-6l1-1c0 6.372 9.476 3 12 3v2Z"/><path fill="#FDA5D1" id="NTS" d="m286 220-2 1c-5.817 0-11.472-5-18-5l-1-1-6-2v-2c2.704 0 10.94-3 15-3h1c5.501 0 11.062 2 17 2 0 1.49 1 2.587 1 5l-4 2-1 1-2 2Z"/><path fill="#C8CACA" id="sptV" d="m144 273 5 1c8.763 0-8-8.622-8-11v-1c-7.774 0-2.427-33 2-33v-1c0-1.238.423-3 2-3 0-4.131 6.236-6.972 8-10.5 3.111-6.222-1.328-5.586-5.5-3.5-3.037 1.518-10.078 13-10.5 13 0 1.424-.362 5-2 5 0 1.048.473 3-1 3l-1 2v3l-1 2c0 7.343-2.413 14.674 1 21.5 1.272 2.545 9 9.028 9 11.5h1l1 1Z"/><path fill="#FF9BCD" id="MY" d="M198 213c3.447 0 6.245 2 9 2l2-6-3.5 3c-2.364 1.182-5.696-1-7.5-1v2Z"/><path fill="#FCB3D8" id="PGRNd" d="M221 221c-4.414 0-9.177 1-13 1l-1-1v-6l2-6h14c0 2.036.425 8.649 0 9.5l-2 2.5Z"/><path fill="#FF9BCD" id="MY" d="m221 221 4 1c0-1.926-1.379-9.743-1-10.5l2-2.5h-3c0 2.036.425 8.649 0 9.5l-2 2.5Z"/><path fill="#CBCBCC" id="mlf" d="M225 222c0 1.948.504 11 3 11 0-7.289-1-16.054-1-24h-1l-2 2.5c-.379.757 1 8.574 1 10.5Z"/><path fill="#FCB3D8" id="PGRNd" d="m249 221-1 1c-3.629 0-8.716-1-13-1l-2-3.5c-.307-.614 1-7.988 1-8.5h12c3.487 0 2.227 6 4 6 0 1.564-1 3.876-1 6Z"/><path fill="#C8CACA" id="sptV" d="m314 272-6 2c-8.104 0 2-5.27 2-7l2-1 1-1 1-1 1-1 1-2 1-1v-1l1-2c1.725 0 1-6.052 1-7.5 0-3.963-3.092-21.5-6-21.5v-1c0-6.566-11-10.61-11-18 6.129 0 12.323 6.147 15 11.5l4 7.5v1l2 4v2l1 1c0 5.141 3.586 15.328 1 20.5-.879 1.757-9 14.187-9 14.5h-1l-1 1Z"/><path fill="#CBCBCC" id="mlf" d="M231 222c0 2.072.076 11-2 11l.5-23c3.418-1.709 1.5 10.197 1.5 12Z"/><path fill="#FEA4D2" id="VCO" d="M133 211c-3.114 0-4 4.168-4 7 1.948 0 4-5.428 4-7ZM324 211c2.716 0 4 6.173 4 8-2.944 0-4-5.939-4-8Z"/><path fill="#FFB2D8" id="IRN" d="M175 263c7.67 0 10.71 2 18 2 0-3.455 2.578-5.656 4-8.5 3.592-7.184 10-25.321 10-33.5v-8c-2.755 0-5.553-2-9-2-1.345 0-7 1.571-7 3l-1 1c0 10.022-19 33.332-19 41 2.96 0 4 2.399 4 5ZM281 263c-7.304 0-11.074 2-18 2 0-8.74-14-30.499-14-42v-2c0-2.124 1-4.436 1-6 2.526 0 5.577-2 9-2l6 2 1 1c0 5.715 13.711 31.922 17 38.5l3 4.5c-2.641 0-5-.497-5 4Z"/><path fill="#FFA4D0" id="SPVO" d="M141 263c3.099 0 5.883 4 10 4l4-5.5c2.901-5.803-.982-15.035 2-21 3.99-7.979 13-6.369 13-17.5l1-1-1-2c0-2.004-5.378-5-7-5-7.647 0-16.331 10-18 10 0 1.238-.423 3-2 3v1c0 1.303-4.282 19.064-5 20.5-2.12 4.239 3 9.094 3 12.5v1Z"/><path fill="#FF9BCD" id="MY" d="m265 215 1 1-1-1Z"/><path fill="#FFA4D0" id="SPVO" d="m312 266-2 1-5-1c-5.387 0-3.143-19.786-5-23.5-4.836-9.671-14-8.484-14-20.5v-2l2-2 1-1 4-2c6.059 0 9.54 3.52 14.5 6l5.5 6v1c0 3.859 2.329 9.159 4 12.5l1 16.5-1 2v1l-1 1-1 2-1 1-1 1-1 1Z"/><path fill="#FCB3D9" id="PARN" d="M151 267c.447 0 3.935 4 8 4 0-2.274 5.9-6 8-6v-1l4-6c0-7.668 19-30.978 19-41v-1c-5.179 0-10.413 4-15 4l-1 1h-2l-1 1-1 1c0 11.131-9.01 9.521-13 17.5-2.982 5.965.901 15.197-2 21l-4 5.5Z"/><path fill="#FF9BCD" id="MY" d="m191 216-1 1v-1h1Z"/><path fill="#FCB3D9" id="PARN" d="M305 266c0 4.433-4.585 5-8 5 0-2.569-6.28-6-8-6l-3-6-3-4.5c-3.289-6.578-17-32.785-17-38.5 6.528 0 12.183 5 18 5l2 1c0 12.016 9.164 10.829 14 20.5 1.857 3.714-.387 23.5 5 23.5Z"/><path fill="#F0F080" id="CB" d="m117 217-2 4-3-4h5Z"/><path fill="#FF9BCD" id="MY" d="m289 217-1 1 1-1Z"/><path fill="#F0F080" id="CB" d="m345 217-4 4-2-4h6Z"/><path fill="#FEA4D2" id="VCO" d="m129 218-1 1 1-1Z"/><path fill="#A9AAA8" id="chpl" d="M118 219c0 2.448-1.324 1.851 0 4.5l1 5c4.708 9.417 10.32-9.5-1-9.5ZM335 219l-4 7.5c-.742 1.484 2.486 5.507 4.5 4.5 3.502-1.751 5.659-12-.5-12Z"/><path fill="#FF9BCD" id="MY" d="m172 221-1 1-1-2 2 1ZM175 220l-1 1 1-1ZM284 221l2 1v-2l-2 1ZM208 222l-1 1v-2l1 1Z"/><path fill="#FEB0D8" id="GRN" d="M255 277h3c0-2.456-4.795-3.911-3-7.5 1.195-2.39 8-3.012 8-4.5 0-8.74-14-30.499-14-42l-1-1c-3.629 0-8.716-1-13-1l-4 1c0 2.072.076 11-2 11 0 2.212-1 2.212-1 0-2.496 0-3-9.052-3-11l-4-1c-4.414 0-9.177 1-13 1l-1 1c0 8.179-6.408 26.316-10 33.5-1.422 2.844-4 5.045-4 8.5l3.5 2h2c6.597 3.298.5 6.019.5 10h2c0-6.751 13.249-16 20-16 0-4.464 6-21.922 6-10h2c0-12.867 6 5.5 6 10 7.333 0 20 7.628 20 16Z"/><path fill="#FF9BCD" id="MY" d="m248 222 1 1v-2l-1 1ZM171 222l-1 1 1-1ZM137 224c-1.638 0-2 3.576-2 5 1.638 0 2-3.576 2-5ZM145 225c-1.577 0-2 1.762-2 3 1.577 0 2-1.762 2-3ZM313 228c2.908 0 6 17.537 6 21.5 0 1.448.725 7.5-1 7.5l-1-16.5c-1.671-3.341-4-8.641-4-12.5ZM135 229c-1.473 0-1 1.952-1 3 1.473 0 1-1.952 1-3ZM143 229c-4.427 0-9.774 33-2 33 0-3.406-5.12-8.261-3-12.5.718-1.436 5-19.197 5-20.5ZM321 229l2 4-2-4ZM134 232l-1 2 1-2ZM323 235l1 1-1-1ZM133 237l-1 2 1-2ZM125 240l-1 1 1-1ZM124 242c0 1.406.714 7-1 7l-1-8 2 1ZM335 241c0 1.116-1.234 11-2 11l-1-11h3Z"/><path fill="#C8C8CC" id="tspc" d="m225 265-2 1c-2.461 0-2-3.378-2-5 0-4.464 6-21.922 6-10v12l-1 1-1 1ZM231 264l2 2c2.461 0 2-3.378 2-5 0-4.5-6-22.867-6-10v10l1 2 1 1Z"/><path fill="#FEC6E2" id="RO" d="M227 275h2l1-1-1-13v-10h-2v12l-1 10 1 2Z"/><path fill="#FF9BCD" id="MY" d="M123 254c1.473 0 1 1.952 1 3-1.473 0-1-1.952-1-3ZM333 256l-1 2 1-2ZM318 257l-1 2 1-2ZM124 258l1 1-1-1Z"/><path fill="#FEB3D6" id="AMBd" d="m167 264 1 1c1.851 0 7 .867 7-2 0-2.601-1.04-5-4-5l-4 6ZM282 264c0 1.714 5.594 1 7 1l-3-6c-2.641 0-5-.497-5 4l1 1Z"/><path fill="#FF9BCD" id="MY" d="m332 259-1 1 1-1ZM125 260c1.012 0 5 7.673 5 9-1.681 0-5-7.278-5-9ZM317 260l-1 1 1-1Z"/><path fill="#FDB2D9" id="MARN" d="M223 266c0 2.271 1.325 3.85 0 6.5-1.362 2.724-22 15.033-22 4.5 0-6.751 13.249-16 20-16 0 1.622-.461 5 2 5Z"/><path fill="#FF9BCD" id="MY" d="M277 293c0 2.334-4.181 1.341-5.5 2-6.936 3.468-16.119 1.56-23 5-1.279.639-8.5.258-8.5-1h5c8.262 0 0-9.311 0-10 4.084 0 4.645 2.072 8.5 4l3-2c1.063-.532 3.471 2.559 4.5.5l-4-4-14.5-7.5c-2.478-1.239-3.489 2-5 2-1.603 0-2.836-8-7.5-8l-1-13 1 2 1 1 2 2v5.5c2.201 4.402 22 15.4 22 5.5h3l4 4.5 9.5 7.5c3.716 1.858 6.65-4 9.5-4 0 1.048-.473 3 1 3 0 1.482-5 1.576-5 5Z"/><path fill="#FDB2D9" id="MARN" d="M233 266v5.5c2.201 4.402 22 15.4 22 5.5 0-8.372-12.667-16-20-16 0 1.622.461 5-2 5Z"/><path fill="#FF9BCD" id="MY" d="m316 261-1 2 1-2ZM331 261l-1 2 1-2ZM210 290l-2 2.5 1 2.5c0 5.029 2.452 4 8 4 0 1.665-4.222 1-5.5 1l-16-2c-5.997-2.998-14.015-2.007-20-5l-24-12c-2.159-1.08-13.5-3.16-13.5-6h2l1 1c3.639 0 9.268 3.384 12.5 5 .902.451 3.206-.089 2.5-1.5-.986-1.971-7-3.761-7-5.5 8.763 0-8-8.622-8-11 3.099 0 5.883 4 10 4 .447 0 3.935 4 8 4l1 2c-2.286 0-4.17 3.16-3 5.5.749 1.498 4-.705 4 1.5-11.943 0 16.181 13.16 18.5 12 1.319-.659-9.5-5.462-9.5-7 .611 0 6.298 3.095 5 .5l-2-2.5c3.529 0 6.707 8.397 11.5 6 3.601-1.801 11.106-12 14.5-12h2c0 10.533 20.638-1.776 22-4.5 1.325-2.65 0-4.229 0-6.5l2-1 1-1 1-1-1 10c-3.955 0-4.673 10-7.5 10l-2-3c-2.984-1.492-12.507 4.507-14.5 6.5-.963.963-7.711 3.578-7 5 .872 1.743 3.493-.5 4.5-.5l3 2c3.671-1.835 3.92-3 7.5-3Z"/><path fill="#FCB2D9" id="PGRNl" d="M172 283h1c3.529 0 6.707 8.397 11.5 6 3.601-1.801 11.106-12 14.5-12 0-3.981 6.097-6.702-.5-10h-2l-3.5-2c-7.29 0-10.33-2-18-2 0 2.867-5.149 2-7 2h-1c-2.1 0-8 3.726-8 6l1 2c3.103 0 11 6.228 11 9l1 1Z"/><path fill="#FEB0D8" id="GRN" d="m230 263 1 1-1-1Z"/><path fill="#FCB2D9" id="PGRNl" d="M281 285h1l1-1 1-1 1-1 1-1c3.762 0 4.741-8 10-8l1-2c0-2.569-6.28-6-8-6-1.406 0-7 .714-7-1l-1-1c-7.304 0-11.074 2-18 2 0 1.488-6.805 2.11-8 4.5-1.795 3.589 3 5.044 3 7.5l4 4.5 9.5 7.5c3.716 1.858 6.65-4 9.5-4Z"/><path fill="#FF9BCD" id="MY" d="m281 263 1 1-1-1ZM315 263l-1 1 1-1ZM330 263l-1 2 1-2ZM167 265h1l-1-1v1Z"/><path fill="#FEB0D8" id="GRN" d="m226 264-1 1 1-1Z"/><path fill="#FF9BCD" id="MY" d="m314 264-1 1 1-1ZM313 265l-1 1 1-1ZM329 265l-2 2c1.747 0 2-.253 2-2ZM304 281c0 2.295-6.025 3.263-7.5 4-5.799 2.899-11.586 8-18.5 8 0-1.183 3.57-1.535 4.5-2 3.361-1.68 9.976-3.976 12.5-6.5.632-.632 5.882-3.309 3.5-4.5l-3.5 1c0-.127 9.017-8 1-8l1-2c3.415 0 8-.567 8-5l5 1c0 1.73-10.104 7-2 7 0 .42-13.131 7-4 7ZM312 266l-2 1 2-1ZM327 268l-1 1 1-1ZM326 269l-1 1 1-1ZM135 272l2 3-6-5 4 2Z"/><path fill="#C9CACA" id="sctd" d="m140 275 1 1c3.639 0 9.268 3.384 12.5 5 .902.451 3.206-.089 2.5-1.5-.986-1.971-7-3.761-7-5.5l-5-1-1-1h-1c-.759 0-7-2.768-7 0l2 3h3Z"/><path fill="#C9C9C8" id="icp" d="m315 271-1 1 1-1Z"/><path fill="#C9CACA" id="sctd" d="M309 279c-1.424 0-5 .362-5 2-9.131 0 4-6.58 4-7l6-2 1-1h1c2.124 0 4.436 1 6 1v1l-1 1-2 1-4 1-1 1h-2l-1 1-2 1Z"/><path fill="#FF9BCD" id="MY" d="m324 271-1 1 1-1Z"/><path fill="#C9C9C8" id="icp" d="m143 272 1 1-1-1Z"/><path fill="#FF9BCD" id="MY" d="m323 272-1 1v-1h1Z"/><path fill="#C8C8CB" id="rust" d="M169 285h1c.611 0 6.298 3.095 5 .5l-2-2.5h-1l-1-1c0-2.772-7.897-9-11-9-2.286 0-4.17 3.16-3 5.5.749 1.498 4-.705 4 1.5l2 1c1.429 0 4 1.288 4 3h1l1 1Z"/><path fill="#FFB3D8" id="IO" d="M212 289h1c0-2.129 7.06 1.72 10.5 0 3.145-1.572-4.343-8 1.5-8l1-1v-1l1-1v-3l-1-2c-3.955 0-4.673 10-7.5 10l-2-3c-2.984-1.492-12.507 4.507-14.5 6.5-.963.963-7.711 3.578-7 5 .872 1.743 3.493-.5 4.5-.5l3 2c3.671-1.835 3.92-3 7.5-3l2-1ZM243 289h2c4.084 0 4.645 2.072 8.5 4l3-2c1.063-.532 3.471 2.559 4.5.5l-4-4-14.5-7.5c-2.478-1.239-3.489 2-5 2-1.603 0-2.836-8-7.5-8l-1 1c0 4.184 9.622 11 2 11v1c2.404 0 4.649 3 8 3l1-1c0-1.486 3-1.486 3 0Z"/><path fill="#C8C8CB" id="rust" d="m283 287-1 1c-1.473 0-1-1.952-1-3h1l1-1 1-1 1-1 1-1c3.762 0 4.741-8 10-8 8.017 0-1 7.873-1 8h-1c-1.238 0-3 .423-3 2h-1l-1 1-1 1h-1l-2 1-2 1Z"/><path fill="#FF9BCD" id="MY" d="m322 273-1 1 1-1ZM321 274l-2 1 2-1Z"/><path fill="#C9C9C8" id="icp" d="m140 275 1 1-1-1Z"/><path fill="#FF9BCD" id="MY" d="M227 277c3.626 0 4 5.878 4 9 7.622 0-2-6.816-2-11h-2v2ZM315 276v1l4-2-4 1Z"/><path fill="#C9C9C8" id="icp" d="M314 277h1v-1l-1 1Z"/><path fill="#FFC6E2" id="RPA" d="M231 286v1c0 2.289-3.564 4.372-5 1.5l-1-7.5 1-1v-1l1-1v-1c3.626 0 4 5.878 4 9Z"/><path fill="#C9C9C8" id="icp" d="M311 278h1v-1l-1 1Z"/><path fill="#FF9BCD" id="MY" d="m314 277-2 1v-1h2ZM227 278l-1 1 1-1ZM312 278c0 1.473-1.952 1-3 1l2-1h1ZM309 279c-1.424 0-5 .362-5 2 1.424 0 5-.362 5-2Z"/><path fill="#CBC7CC" id="sctv" d="M169 285h1c0 1.538 10.819 6.341 9.5 7-2.319 1.16-30.443-12-18.5-12l2 1 4 3h1l1 1Z"/><path fill="#FF9BCD" id="MY" d="m226 280-1 1 1-1Z"/><path fill="#CBC7CC" id="sctv" d="M277 293h1c0-1.183 3.57-1.535 4.5-2 3.361-1.68 9.976-3.976 12.5-6.5.632-.632 5.882-3.309 3.5-4.5l-3.5 1h-1c0 1.577-1.762 2-3 2h-1l-1 1-1 1h-1l-2 1-2 1-1 1c0 1.482-5 1.576-5 5Z"/><path fill="#FF9BCD" id="MY" d="M163 281c1.429 0 4 1.288 4 3l-4-3ZM219 299c3.658 0 9.028-7 9.5-7l2.5 3.5c1.917 1.917 4.21 3.5 7 3.5l-5-5.5 6-3.5c-3.351 0-5.596-3-8-3 0 2.289-3.564 4.372-5 1.5l-1-7.5c-5.843 0 1.645 6.428-1.5 8-3.44 1.72-10.5-2.129-10.5 0 1.475 0 11.299 2.903 10 5.5l-4 4.5ZM286 281l-1 1 1-1ZM294 281c-1.238 0-3 .423-3 2 1.238 0 3-.423 3-2ZM171 282l1 1-1-1ZM285 282l-1 1 1-1ZM284 283l-1 1 1-1ZM290 283l-1 1 1-1ZM168 284l1 1-1-1ZM283 284l-1 1 1-1ZM289 284l-1 1 1-1ZM287 285l-2 1 2-1ZM285 286l-2 1 2-1ZM283 287l-1 1 1-1ZM240 289h3c0-1.486-3-1.486-3 0ZM212 289l-2 1 2-1Z"/><path fill="#C7C9C9" id="py" d="M217 299h2l4-4.5c1.299-2.597-8.525-5.5-10-5.5h-1l-2 1-2 2.5 1 2.5c0 5.029 2.452 4 8 4Z"/><path fill="#FF9BCD" id="MY" d="m240 289-1 1 1-1Z"/><path fill="#C7C9C9" id="py" d="M238 299h7c8.262 0 0-9.311 0-10h-5l-1 1-6 3.5 5 5.5Z"/></svg>