<svg xmlns="http://www.w3.org/2000/svg" viewBox="0 0 456 320"><path fill="#1BA696" id="RSPagl1" d="M188 13c-5.743 0-9.5 2-15 2l-1-5c4.594 0 10.741-1 16-1v4Z"/><path fill="#1BA598" id="RSPd1" d="m219 21-2 1-2.5-3-7-4c-5.381-2.69-13.026-2-19.5-2V9c8.796 0 31 .305 31 12ZM239 23h1c0-9.105 21.059-10 28-10h1V9c-11.104 0-24.509-1.482-30 9.5l-2 2.5c1.747 0 2 .253 2 2Z"/><path fill="#1BA696" id="RSPagl1" d="M269 13c5.28 0 8.97 2 14 2l1-5c0-1.797-12.925-1-15-1v4Z"/><path fill="#0A8589" id="VISpm1" d="M173 15c-6.59 0-14.27 4-21 4l-1-4c4.147 0 15.805-5 21-5l1 5ZM304 19h1v-4c-4.048 0-15.262-5-21-5l-1 5c6.609 0 14.355 4 21 4Z"/><path fill="#1AA496" id="RSPagl2/3" d="m174 21-1 2 14-4 1-6c-5.743 0-9.5 2-15 2l1 6Z"/><path fill="#1BA697" id="RSPd2/3" d="m217 24-4 1-11.5-6c-4.331-2.165-9.737 0-14.5 0l1-6c6.474 0 14.119-.69 19.5 2l7 4 2.5 3v2ZM243 26h1c0-7.559 20.518-7 25-7 0-2.124-1-4.436-1-6-6.941 0-28 .895-28 10l3 3Z"/><path fill="#1AA496" id="RSPagl2/3" d="M283 21v2l-14-4c0-2.124-1-4.436-1-6h1c5.28 0 8.97 2 14 2 0 1.745-.632 6 0 6Z"/><path fill="#098589" id="VISp1" d="M88 48h1c0-3.444 12.038-7.77 14.5-9 10.017-5.008 38.234-20 48.5-20l-1-4c-13.066 0-38.663 14.081-50.5 20C97.977 36.261 85 41.654 85 45c1.54 0 3 1.342 3 3Z"/><path fill="#08858B" id="VISpm2/3" d="M174 21c-6.453 0-12.339 7-19 7l-3-9c6.73 0 14.41-4 21-4l1 6ZM301 28h1l2-9c-6.645 0-14.391-4-21-4 0 1.745-.632 6 0 6l18 7Z"/><path fill="#098589" id="VISp1" d="M368 48h1c0-1.238.423-3 2-3 0-3.764-11.333-8.416-14.5-10-11.564-5.782-38.886-20-51.5-20v4c8.612 0 38.58 15.54 47.5 20 2.087 1.043 15.5 6.968 15.5 9Z"/><path fill="#1AA596" id="RSPd5" d="M185 29c3.876 0 15-4.57 15 4 4.77 0 8.713-7 13-7v-1l-11.5-6c-4.331-2.165-9.737 0-14.5 0 0 3.942-2 6.745-2 10ZM271 29c-3.556 0-15-4.413-15 4-1.724 0-12-5.456-12-7 0-7.559 20.518-7 25-7l2 10Z"/><path fill="#0A828C" id="VISp2/3" d="M92 55h1c0-1.507 12.621-7.06 14.5-8 8.885-4.442 38.485-18 47.5-18v-1l-3-9c-10.266 0-38.483 14.992-48.5 20-2.462 1.23-14.5 5.556-14.5 9 0 3.264 3 4.067 3 7Z"/><path fill="#1CA697" id="RSPagl5" d="m184 30-11 5V23l14-4c0 3.942-2 6.745-2 10l-1 1ZM271 29l12 6V23l-14-4 2 10Z"/><path fill="#0A828C" id="VISp2/3" d="m368 48-4 7-9.5-6-28-12c-6.224-3.112-13.732-3.866-20-7-.93-.465-4.5-.817-4.5-2l2-9h1c8.612 0 38.58 15.54 47.5 20 2.087 1.043 15.5 6.968 15.5 9Z"/><path fill="#09828B" id="VISpm4" d="m155 29 1 3 17-8v-1l1-2c-6.453 0-12.339 7-19 7v1Z"/><path fill="#1BA597" id="RSPv1" d="m181 73-3 1-2-2c0-2.647 5.981-4.48 7.5-6 2.607-2.607 22.062-10.53 27-13 6.176-3.088 9.5-14.007 9.5-20 0-1.95-.433-9-3-9v-2l2-1c2.966 0 6 8.456 6 11 0 4.063-7.399 23.95-11.5 26-7.693 3.846-16.219 6.11-24 10-1.781.89-8.5 2.168-8.5 5ZM280 72l-1 2c-3.337 0-9.391-5.445-12.5-7-5.501-2.75-24.786-7.072-27.5-12.5-3.477-6.955-4.499-14.998-8-22-2.289-4.578 6-7.84 6-11.5 1.747 0 2 .253 2 2l-2 4.5c-3.459 6.918 3.495 22.997 8.5 25.5 9.03 4.515 18.039 8.52 27 13 2.249 1.124 7.5 3.01 7.5 6Z"/><path fill="#09828B" id="VISpm4" d="m301 28-1 4c-5.683 0-10.929-8-17-8v-3l18 7Z"/><path fill="#1AA597" id="RSPv2/3" d="m284 69-4 3c0-2.99-5.251-4.876-7.5-6-8.961-4.48-17.97-8.485-27-13-5.005-2.503-11.959-18.582-8.5-25.5l2-4.5h1l3 3c0 3.202-2.735 9.03-1 12.5 8.175 16.35 15.728 14.114 30.5 21.5 2.682 1.341 10.784 9 11.5 9Z"/><path fill="#088489" id="VISpm5" d="M159 41h1l13-6V24l-17 8c0 2.86 3 5.58 3 9Z"/><path fill="#1AA597" id="RSPv2/3" d="m173 69 3 3c0-2.647 5.981-4.48 7.5-6 2.607-2.607 22.062-10.53 27-13 6.176-3.088 9.5-14.007 9.5-20 0-1.95-.433-9-3-9l-4 1v1c0 2.86 3.813 6.874 2 10.5-1.584 3.167-2.417 6.835-4 10-3.077 6.154-21.21 10.355-27.5 13.5-2.567 1.283-8.482 9-10.5 9Z"/><path fill="#088489" id="VISpm5" d="m283 35 14 6 3-9c-5.683 0-10.929-8-17-8v11Z"/><path fill="#1BA498" id="RSPv5" d="M169 66c0 1.712 2.571 3 4 3 2.018 0 7.933-7.717 10.5-9 6.29-3.145 24.423-7.346 27.5-13.5 1.583-3.165 2.416-6.833 4-10 1.813-3.626-2-7.64-2-10.5-4.287 0-8.23 7-13 7v1c0 10.143-17.324 17.412-24.5 21-2.695 1.348-3.278 11-6.5 11ZM287 66l-3 3c-.716 0-8.818-7.659-11.5-9-14.772-7.386-22.325-5.15-30.5-21.5-1.735-3.47 1-9.298 1-12.5h1c0 1.544 10.276 7 12 7v1c0 9.772 15.907 15.704 22.5 19 3.575 1.788 4.787 7.074 6.5 10.5l2 2.5Z"/><path fill="#1AA697" id="RSPd6a" d="m179 40 2 1c6.77 0 12.589-7 19-7v-1c0-8.57-11.124-4-15-4l-1 1c0 1.955-2.593 9-5 9v1ZM276 41h1v-1c0-3.914-6-7.264-6-11-3.556 0-15-4.413-15 4v1c7.024 0 12.853 7 20 7Z"/><path fill="#0B848B" id="VISp4" d="m364 55-3 4-12.5-6c-12.466-6.233-26.582-9.791-39-16l-9.5-5 1-4h1c0 1.183 3.57 1.535 4.5 2 6.268 3.134 13.776 3.888 20 7l28 12 9.5 6ZM93 55l2 4 12.5-6c11.126-5.563 23.913-8.457 35-14l13.5-7-1-3c-9.015 0-38.615 13.558-47.5 18-1.879.94-14.5 6.493-14.5 8Z"/><path fill="#1CA597" id="RSPagl6a" d="M282 40h1v-5l-12-6c0 3.736 6 7.086 6 11h1c0-2.56 3.334 0 4 0ZM179 39l-5 1-1-5 11-5c0 1.955-2.593 9-5 9Z"/><path fill="#088389" id="VISp5" d="m95 60 5 8 12.5-7c10.884-5.442 23.18-8.59 34-14l12.5-6c0-3.42-3-6.14-3-9l-13.5 7c-11.087 5.543-23.874 8.437-35 14L95 59v1ZM356 68h1l4-8v-1l-12.5-6c-12.466-6.233-26.582-9.791-39-16l-9.5-5-3 9 12.5 6c11.052 5.526 23.896 8.448 35 14 3.275 1.638 7.801 7 11.5 7Z"/><path fill="#1AA498" id="RSPv6a" d="m168 65 1 1c3.222 0 3.805-9.652 6.5-11 7.176-3.588 24.5-10.857 24.5-21-6.411 0-12.23 7-19 7v1l-2 3-11 16v4ZM289 64l-2 2-2-2.5c-1.713-3.426-2.925-8.712-6.5-10.5-6.593-3.296-22.5-9.228-22.5-19 7.024 0 12.853 7 20 7v1c0 1.238.423 3 2 3 0 6.132 10 10.354 10 17l1 2Z"/><path fill="#09858B" id="VISpm6a" d="m167 45-5 2-2-6 13-6 1 5c-1.45 0-7 3.126-7 5ZM294 47h1l2-6-14-6v5l11 7Z"/><path fill="#1AA598" id="RSPagl6b" d="M174 41h5v-2l-5 1v1ZM278 41h4v-1c-.666 0-4-2.56-4 0v1Z"/><path fill="#088589" id="VISpm6b" d="M174 41c0 1.504-5.699 4-7 4 0-1.874 5.55-5 7-5v1Z"/><path fill="#1BA698" id="RSPd6b" d="M179 42h2v-1l-2-1v2ZM277 41h1v-1h-1v1Z"/><path fill="#088589" id="VISpm6b" d="M294 47v2l-12-8v-1h1l11 7Z"/><path fill="#08858C" id="VISp6a" d="M103 74h1c0-1.077 3.762-3 5-3l4-2 4-2c0-2.184 11.746-6 14-6 0-1.722 5.235-2.368 6.5-3 5.041-2.52 19.358-10 24.5-10v-1l-2-6h-1l-12.5 6c-10.82 5.41-23.116 8.558-34 14L100 68v1c2.393 0 3 3.234 3 5Z"/><path fill="#CACCC7" id="cing" d="M164 50c5.582 0 6.319.861 4 5.5-.402.804-2.3 5.5 0 5.5l11-16v-4h-5c0 1.504-5.699 4-7 4 0 1.712-2.571 3-4 3v1l1 1Z"/><path fill="#1BA698" id="RSPd6b" d="M276 42h1v-1h-1v1Z"/><path fill="#CACCC7" id="cing" d="M292 50c-6.298 0-5.285 1.93-3 6.5.536 1.073.251 5.5-1 5.5 0-6.646-10-10.868-10-17l-1-3v-1h5l12 8-2 1Z"/><path fill="#08858C" id="VISp6a" d="m356 68-3 5c-5.066 0-11.081-5.79-15.5-8-9.597-4.798-20.362-7.181-30-12-1.959-.98-12.5-3.523-12.5-6l2-6 12.5 6c11.052 5.526 23.896 8.448 35 14 3.275 1.638 7.801 7 11.5 7Z"/><path fill="#1AA497" id="RSPv6b" d="m181 42-2 3v-3h2ZM277 42l1 3c-1.577 0-2-1.762-2-3h1Z"/><path fill="#09848A" id="VISl1" d="M73 55c0 2.773-2 3.67-2 6 3.86 0 13.078-13 17-13 0-1.658-1.46-3-3-3-2.132 0-12 7.433-12 10Z"/><path fill="#088589" id="VISpm6b" d="M162 48h1c1.429 0 4-1.288 4-3l-5 2v1Z"/><path fill="#09848A" id="VISl1" d="M384 55v5l-15-12c0-1.238.423-3 2-3 2.129 0 13 9.099 13 10Z"/><path fill="#08858A" id="VISp6b" d="m353 74-1 1c-2.46 0-4.17-4-7-4l-1-1c-4.768 0-29.738-15-37-15 0-1.508-11.079-6-13-6v-2h1c0 2.477 10.541 5.02 12.5 6 9.638 4.819 20.403 7.202 30 12 4.419 2.21 10.434 8 15.5 8v1Z"/><path fill="#0A8489" id="VISl2/3" d="M72 71h1c0-1.178 17.953-16 19-16 0-2.933-3-3.736-3-7h-1c-3.922 0-13.14 13-17 13v1c1.03 0 0 7.708 0 9h1Z"/><path fill="#08858A" id="VISp6b" d="M150 55c-6.877 0-11.893 6-19 6 0-1.722 5.235-2.368 6.5-3 5.041-2.52 19.358-10 24.5-10h1v1c-1.921 0-13 4.492-13 6Z"/><path fill="#0A8489" id="VISl2/3" d="M383 71h2c0-1.148-.568-9 0-9l-1-2-15-12h-1l-4 7c2.145 0 19 14.436 19 16Z"/><path fill="#C9C9CA" id="scwm" d="m150 55 2 1c1.455 0 12-4.612 12-6l-1-1c-1.921 0-13 4.492-13 6ZM307 55l-2 1c-1.706 0-13-4.82-13-6l2-1c1.921 0 13 4.492 13 6Z"/><path fill="#C8C9CA" id="fp" d="M59 143h1l1-2v-2l1-2v-1l1-1v-2l1-1v-1l1-1v-1l1-2 1-1v-1l1-1v-1l1-1v-1l1-1 1-1v-1l1-1 1-2c0-1.238.423-3 2-3l1-1 1-1v-1l1-1 1-1 1-2 1-1 1-1 1-1 1-1 1-1 1-1 1-2h1l1-1 1-1 1-1 1-1 1-1 1-1h1l1-1 1-1 2-1 1-1 1-1 1-1h1l1-1 1-1 2-1 1-1h1l1-1 2-1 2-1 1-1h1c0-1.577 1.762-2 3-2h1l2-1 2-1 2-1c0-1.473 1.952-1 3-1h1c0-1.014 3.959-2 5-2 0-5.03 9.323-4.412 12.5-6 11.552-5.776 17.5-6.426 17.5 8 2.314 0 3-4.262 3-6v-4c-2.3 0-.402-4.696 0-5.5 2.319-4.639 1.582-5.5-4-5.5 0 1.388-10.545 6-12 6l-9.5 5c-8.171 4.086-17.77 5.885-26 10-10.36 5.18-18.555 14.777-29 20L76 104.5c-1.17 1.171-.774 4.5-3 4.5 0 7.841-14 20.905-14 34ZM397 143h1c0-9.57-6.984-17.468-11-25.5-9.325-18.65-23.929-34.715-43.5-44.5-9.741-4.87-20.278-8.139-30-13-1.533-.767-8.5-1.971-8.5-4-1.706 0-13-4.82-13-6-6.298 0-5.285 1.93-3 6.5.536 1.073.251 5.5-1 5.5l1 2c0 1.851-.867 7 2 7 0-15.427 8.47-13.015 18.5-8 2.388 1.194 12.5 1.864 12.5 6 1.503 0 10 2.502 10 4h1l3 2h1c1.572 0 7 2.052 7 4h1c1.622 0 7 2.996 7 5h1c1.683 0 11 7.067 11 9h1l10 10v1c1.726 0 5 4.558 5 6l1 2 2 2v1l2 2v1c1.428 0 4 4.822 4 6v1l1 1v1l1 1v1l1 1v1l1 1v2l1 1v1l1 1v2l2 4Z"/><path fill="#0B838B" id="VISal1" d="M60 74h1c0-4.54 10-8.867 10-12v-1c0-2.33 2-3.227 2-6-3.343 0-16 12.657-16 16l3 3Z"/><path fill="#08828B" id="VISl4" d="M75 75h1c0-1.988 17.028-15 19-15v-1l-2-4h-1c-1.047 0-19 14.822-19 16l2 4Z"/><path fill="#CBC9C7" id="or" d="M73 105c2.091 0 0 2.863 0 4 2.226 0 1.83-3.329 3-4.5L87.5 91c10.445-5.223 18.64-14.82 29-20 8.23-4.115 17.829-5.914 26-10l9.5-5-2-1c-6.877 0-11.893 6-19 6 0 2.404-11.748 6-14 6 0 2.109-2.535 2-4 2 0 2.109-2.535 2-4 2 0 1.77-3.15 4-5 4h-1c0 1.617-4.583 4-6 4 0 1.369-8.038 9-10 9l-2 1c0 1.747-.253 2-2 2 0 1.238-.423 3-2 3 0 1.338-4.41 7-6 7l-2 4ZM398 143c0 2.368 3 13.642 3 6 0-3.013-1-6.611-1-9v-2l-1-1-1-1-5-13-1-1-1-3-1-1c0-4.662-7-7.803-7-13 0-3.928-7-6.566-7-10-1.27 0-7-6.593-7-8-6.019 0-10.828-12-17-12-2.46 0-4.17-4-7-4l-1-1c-4.768 0-29.738-15-37-15l-2 1c0 2.029 6.967 3.233 8.5 4 9.722 4.861 20.259 8.13 30 13 19.571 9.785 34.175 25.85 43.5 44.5 4.016 8.032 11 15.93 11 25.5Z"/><path fill="#08828B" id="VISl4" d="M383 71c0 1.238-.423 3-2 3-3.788 0-14.642-14-20-14v-1l3-4c2.145 0 19 14.436 19 16Z"/><path fill="#0B838B" id="VISal1" d="m399 70-3 3-11-11-1-2v-5l15 15Z"/><path fill="#C9CCC9" id="dhc" d="M160 73h2l1-1h1l1-1c0-14.426-5.948-13.776-17.5-8-3.177 1.588-12.5.97-12.5 6 1.574 0 9-.751 9 1h1c1.048 0 3-.473 3 1h1l2 1h1l1 1h7Z"/><path fill="#FF7AFD" id="SCzo" d="m287 84 1 3-11.5-11c-13.137-6.569-46.5-27.835-46.5 2 0 1.348-3 3.216-3 1 0-26.116-24.804-14.848-38.5-8-3.823 1.912-9.181 8-13.5 8v-1l1-1 1-1c1.429 0 4-1.288 4-3 2.106 0 30.804-12.152 34.5-14 4.086-2.043 10.096 5.692 11.5 8.5l1.5 3.5.5-3.5c1.424-2.848 7.581-10.46 11.5-8.5 9.131 4.566 19.81 6.405 29 11l10.5 7 7 7Z"/><path fill="#C9CCC9" id="dhc" d="M297 73h6l1-1h1l2-1h2c0-1.473 1.952-1 3-1 0-1.763 8.343-1 10-1 0-4.136-10.112-4.806-12.5-6-10.03-5.015-18.5-7.427-18.5 8h1l2 2h3Z"/><path fill="#0B858B" id="VISl5" d="M82 82h1c0-2.072 14.778-13 17-13v-1l-5-8c-1.972 0-19 13.012-19 15l6 7ZM381 75l-7 6c-4.43 0-8.605-8.053-12.5-10l-4.5-3 4-8c5.358 0 16.212 14 20 14v1Z"/><path fill="#08858A" id="VISp6b" d="M131 61c-2.254 0-14 3.816-14 6 2.252 0 14-3.596 14-6Z"/><path fill="#098389" id="VISal2/3" d="M65 77c0-1.93 1.161 0 2 0l2-2c-1.186 0-1.186-1 0-1 0-1.238.423-3 2-3 0-1.292 1.03-9 0-9 0 3.133-10 7.46-10 12 0 1.712 2.571 3 4 3Z"/><path fill="#FF78FF" id="SCsg" d="M169 86v1c3.008 0 38.004-13.752 42.5-16 8.074-4.037 11.661 8 15.5 8 0-26.116-24.804-14.848-38.5-8-3.823 1.912-9.181 8-13.5 8 0 1.747-.253 2-2 2 0 1.747-.253 2-2 2 0 1.238-.423 3-2 3ZM288 87v1l-10.5-5-32-12c-7.865-3.932-10.712 7-15.5 7 0-29.835 33.363-8.569 46.5-2L288 87Z"/><path fill="#098389" id="VISal2/3" d="M389 77h3l4-3v-1l-11-11c-.568 0 0 7.852 0 9 1.038 0 5.153 4 3 4v1l1 1Z"/><path fill="#47C83C" id="POST" d="M308 95c0 1.473-1.952 1-3 1 0-1.58-2.855-1-4-1l-9-6-1-1-4-4-7-7-1-3 1-2 4-3 3-3 2-2c0 1.851-.867 7 2 7h1l2 2h2v1l-3 4.5c-4.086 8.172 8.945 16.5 15 16.5ZM155 95h1l1-1 8-6 1-1h1c0-1.238.423-3 2-3l1-1 1-1 1-1 1-1 1-1 1-1 1-1 1-1 1-2-2-2-3-3c-1.429 0-4-1.288-4-3l-1-1c0 1.738-.686 6-3 6l-1 1h-1l-1 1h-2v1c3.654 0 4.141 9.217 3 11.5l-6.5 7.5c-1.119.56-4.5.155-4.5 2h3Z"/><path fill="#08858A" id="VISp6b" d="m117 67-4 2c1.465 0 4 .109 4-2Z"/><path fill="#08848C" id="VISl6a" d="M369 87h1l4-5v-1c-4.43 0-8.605-8.053-12.5-10l-4.5-3h-1l-3 5v1c3.146 0 16 10.206 16 13ZM86 87h1c0-2.422 8.023-8 10-8 0-2.177 4.336-4 6-4v-1c0-1.766-.607-5-3-5-2.222 0-17 10.928-17 13l3 5Z"/><path fill="#08858A" id="VISp6b" d="m113 69-4 2c1.465 0 4 .109 4-2Z"/><path fill="#C7C8CC" id="alv" d="M136 70h8c0-1.751-7.426-1-9-1-1.041 0-5 .986-5 2l6-1ZM321 70l11 3c0-1.498-8.497-4-10-4-1.657 0-10-.763-10 1h9Z"/><path fill="#57B947" id="ProS" d="M138 95c0 .855-7.665 4-9 4l-5-25v-1l2-1c1.048 0 3 .473 3-1h1l6-1c0 7.71 2 16.73 2 25Z"/><path fill="#4FC244" id="SUB" d="M149 95h3c0-1.845 3.381-1.44 4.5-2l6.5-7.5c1.141-2.283.654-11.5-3-11.5l-1-1h-6l-1-1h-1l-2-1h-1c-1.048 0-3 .473-3-1h-9c0 7.71 2 16.73 2 25h11Z"/><path fill="#C7C8CC" id="alv" d="M145 70c1.048 0 3-.473 3 1-1.048 0-3 .473-3-1ZM312 70c-1.048 0-3-.473-3 1 1.048 0 3 .473 3-1Z"/><path fill="#4FC244" id="SUB" d="M308 95h10c0-8.19 3-16.176 3-25h-9c0 1.473-1.952 1-3 1h-2l-2 1h-1l-1 1h-6l-1 1-3 4.5c-4.086 8.172 8.945 16.5 15 16.5Z"/><path fill="#57B947" id="ProS" d="M318 95c0 .986 8.513 4 10 4l4-26-11-3c0 8.824-3 16.81-3 25Z"/><path fill="#C9C9CA" id="scwm" d="m344 70 1 1-1-1Z"/><path fill="#15B0B3" id="TEa1" d="M403 75c0 1.041-.986 5-2 5l-5-6v-1l3-3c1.429 0 4 3.939 4 5ZM53 75l2 5c1.26 0 5-4.768 5-6l-3-3c-1.365 0-4 2.366-4 4Z"/><path fill="#0A858A" id="VISli2/3" d="m72 71-3 3c0-1.238.423-3 2-3h1Z"/><path fill="#08828C" id="VISli4" d="m66 79 2 2 7-6-2-4h-1l-3 3v1l-2 2-1 2Z"/><path fill="#08858A" id="VISp6b" d="M104 74v1c1.85 0 5-2.23 5-4-1.238 0-5 1.923-5 3Z"/><path fill="#C7C8CC" id="alv" d="M129 71c-1.048 0-3-.473-3 1 1.048 0 3 .473 3-1ZM149 71l2 1-2-1Z"/><path fill="#7DCD4B" id="HPF" d="m165 71-1 1 1-1Z"/><path fill="#FD7AFF" id="SCop" d="m168 93 6.5-4c5.47-2.735 36.2-13.9 42-11 3.525 1.763 11.556 8.222 16 6l5-5c3.43-1.715 12.528-1.736 16 0l28 10 7.5 4-1-5-10.5-5-32-12c-7.865-3.932-10.712 7-15.5 7 0 1.348-3 3.216-3 1-3.839 0-7.426-12.037-15.5-8-4.496 2.248-39.492 16-42.5 16l-1 1v5Z"/><path fill="#7DCD4B" id="HPF" d="m292 71 2 2-2-2Z"/><path fill="#C7C8CC" id="alv" d="m307 71-2 1 2-1Z"/><path fill="#08828C" id="VISli4" d="m390 79-2 2c-2.162 0-3.798-6-7-6v-1c1.577 0 2-1.762 2-3h2c0 1.429 1.288 4 3 4v1l1 1 1 2Z"/><path fill="#0A858A" id="VISli2/3" d="M385 71c1.038 0 5.153 4 3 4-1.712 0-3-2.571-3-4Z"/><path fill="#C7C8CC" id="alv" d="m126 72-2 1 2-1ZM152 72l1 1-1-1Z"/><path fill="#7DCD4B" id="HPF" d="m163 72-1 1 1-1Z"/><path fill="#C7C8CC" id="alv" d="m304 72-1 1 1-1ZM122 74h2v-1l-2 1Z"/><path fill="#7DCD4B" id="HPF" d="M160 73v1l-1-1h1ZM297 73l-1 1v-1h1Z"/><path fill="#7ECF4B" id="CA1" d="M339 242h2l2-1h1c0-2.109 2.535-2 4-2l2-1 2-1 2-1 2-1 1-1 2-1c0-1.577 1.762-2 3-2l1-1 2-1 2-2c0-1.577 1.762-2 3-2l1-1 1-1 1-1 1-1c0-1.429 1.288-4 3-4l1-1 1-1 1-2 1-1c0-1.238.423-3 2-3l1-2 1-2 1-2 1-1v-1l1-1 1-2c0-1.465-.109-4 2-4v-1l2-4c0-2.009 2.384-12 4-12v-32c-1.353 0-2-4.643-2-6v-2l-1-1v-1l-1-1v-2l-1-1v-1l-1-1v-1l-1-1v-1l-1-1v-1c-1.428 0-4-4.822-4-6v-1l-2-2v-1l-2-2-1-2-5-6v-1c-1.916 0-10-7.728-10-10h-1c-1.443 0-11-7.535-11-9h-1c-1.294 0-7-3.609-7-5h-1l-7-4h-1c-1.238 0-3-.423-3-2h-1l-4 26c0 2.562 11.83 7.33 14 9.5 7.307 7.307 16.421 13.841 21 23 2.189 4.379 2.829 9.658 5 14 .817 1.633 2.716 11.568 2 13-2.346 4.692-.652 11.304-3 16-3.572 7.145-8.393 13.786-12 21-5.396 10.792-20.751 17.502-26 28-1.531 3.062-6 4.509-6 7.5 3.085 0 11.318 11 16 11Z"/><path fill="#C7C8CC" id="alv" d="m333 73 3 2c-1.238 0-3-.423-3-2Z"/><path fill="#16AFB3" id="TEa2/3" d="m55 81 4 5c2.024 0 6-5.83 6-7v-2c-1.429 0-4-1.288-4-3h-1c0 1.232-3.74 6-5 6v1Z"/><path fill="#0A858A" id="VISli2/3" d="M69 74c-1.186 0-1.186 1 0 1v-1Z"/><path fill="#09858C" id="VISl6b" d="M103 75h1v-1h-1v1Z"/><path fill="#C7C8CC" id="alv" d="m122 74-2 1 2-1Z"/><path fill="#7ECF4B" id="CA1" d="m114 241 3 1c6.494 0 11.136-11 17-11 0-2.178-15.371-17.871-18-20.5-10.546-10.546-19.832-21.663-26-34-1.525-3.05-1.438-6.875-3-10v-7c0-18.93 4.998-20.995 12-35 1.496-2.992 5.009-8.755 8.5-10.5 3.51-1.755 13.916-8.916 16.5-11.5l5-3.5-5-25h-2l-2 1h-1c0 1.577-1.762 2-3 2h-1l-1 1-2 1-2 1-1 1h-1l-1 1-2 1-1 1-1 1h-1l-1 1-1 1-1 1-2 1-1 1-1 1h-1l-1 1-1 1-1 1-1 1-1 1-1 1h-1l-1 2-1 1-1 1-1 1-1 1-1 1-1 1-1 2-1 1-1 1v1l-1 1-1 1c0 1.238-.423 3-2 3l-1 2-1 1v1l-1 1-1 1v1l-1 1v1l-1 1v1l-1 1-1 2v1l-1 1v1l-1 1v2l-1 1v1l-1 2v2l-1 2v1c0 1.048.473 3-1 3v29c1.646 0 1.466 4.966 2.5 6l6.5 16.5 3 5.5v1l4 4.5c1.473 2.946 16 19.115 16 19.5h1l2 2h1c1.156 0 9 4.801 9 6h1c1.238 0 3 .423 3 2h1l4 2h1Z"/><path fill="#09858C" id="VISl6b" d="M352 75c6.172 0 10.981 12 17 12 0-2.794-12.854-13-16-13l-1 1Z"/><path fill="#16AFB3" id="TEa2/3" d="M401 81c0 1.85-2.23 5-4 5-1.114 0-6-5.686-6-7l1-2 4-3 5 6v1Z"/><path fill="#039299" id="AUDpo1" d="M41 99h1c0-1.341 11.742-18 13-18v-1l-2-5c-1.183 0-15 19.06-15 21l3 3Z"/><path fill="#0A848A" id="VISli5" d="M82 82c0 1.766-5.833 7-7 7l-7-7v-1l7-6h1l6 7Z"/><path fill="#09858C" id="VISl6b" d="M103 75c-1.664 0-6 1.823-6 4 1.417 0 6-2.383 6-4Z"/><path fill="#C7C8CC" id="alv" d="M119 75c-1.238 0-3 .423-3 2 1.238 0 3-.423 3-2ZM337 75c1.572 0 7 2.052 7 4l-7-4Z"/><path fill="#0A848A" id="VISli5" d="m388 82-7 7-7-7v-1l7-6c3.202 0 4.838 6 7 6v1Z"/><path fill="#039299" id="AUDpo1" d="M414 99h1l3-4c0-2.226-13.452-20-15-20 0 1.041-.986 5-2 5v1c2.265 0 13 15.909 13 18Z"/><path fill="#0A858A" id="VISli2/3" d="M65 79h1l1-2c-.839 0-2-1.93-2 0v2Z"/><path fill="#088588" id="VISal4" d="m388 76 1 1-1-1Z"/><path fill="#C7C8CC" id="alv" d="m115 77-1 1 1-1Z"/><path fill="#0A858A" id="VISli2/3" d="M390 79h1l1-2h-3l1 2Z"/><path fill="#C7C8CC" id="alv" d="m114 78-2 1 2-1Z"/><path fill="#FF90FF" id="SCig" d="m165 133 2-4.5c1.934-3.869 1.998-8.996 4-13 6.789-13.579 24.416-19.458 36.5-25.5 4.857-2.428 18.285 4.357 19 4 1.897-.948 2.722.64 4 0 3.798-1.899 12.922-6.539 18-4 18.056 9.028 42.5 18.7 42.5 43 6.821 0 12 2.57 12-7v-11l-1-2v-1l-1-2v-1l-2-3v-1l-2-3v-1l-2-2v-1l-6-5-7.5-4-28-10c-3.472-1.736-12.57-1.715-16 0l-5 5c-4.444 2.222-12.475-4.237-16-6-5.8-2.9-36.53 8.265-42 11l-6.5 4-5 3v1l-1 1-1 1-2 4-1 1-1 1v2l-1 1-1 2v1l-1 2v1c0 1.048.473 3-1 3v10c0 8.458 6.732 6 12 6Z"/><path fill="#15B0B2" id="TEa4" d="M59 88c3.696 0 .24 3 2 3l7-9v-1l-2-2h-1c0 1.17-3.976 7-6 7v2Z"/><path fill="#09858C" id="VISl6b" d="M87 87v1c1.962 0 10-7.631 10-9-1.977 0-10 5.578-10 8Z"/><path fill="#C7C8CC" id="alv" d="m112 79-2 1 2-1Z"/><path fill="#FF7AFD" id="SCzo" d="M173 80v1c1.747 0 2-.253 2-2h-1l-1 1Z"/><path fill="#C7C8CC" id="alv" d="M345 79c1.622 0 7 2.996 7 5-1.294 0-7-3.609-7-5Z"/><path fill="#15B0B2" id="TEa4" d="M398 88c-3.324 0 .394 3-3 3l-7-9v-1l2-2h1c0 1.314 4.886 7 6 7l1 2Z"/><path fill="#C7C8CC" id="alv" d="m110 80-1 1 1-1Z"/><path fill="#029199" id="AUDpo2/3" d="M46 105h1c0-2.395 10.762-17 12-17v-2l-4-5c-1.258 0-13 16.659-13 18 0 2.789 4 3.42 4 6Z"/><path fill="#C7C8CC" id="alv" d="m108 81-1 1 1-1Z"/><path fill="#FF7AFD" id="SCzo" d="M171 82v1c1.747 0 2-.253 2-2h-1l-1 1Z"/><path fill="#029199" id="AUDpo2/3" d="M414 99c0 1.061-2.571 5-4 5l-12-16-1-2c1.77 0 4-3.15 4-5 2.265 0 13 15.909 13 18Z"/><path fill="#15AFB3" id="TEa5" d="M61 92c0 .77 5.934 7 7 7l7-9v-1l-7-7-7 9v1Z"/><path fill="#088488" id="VISli6a" d="m83 91-3 2c-2.364 0-3.053-3-5-3v-1c1.167 0 7-5.234 7-7h1l3 5-1 2c-1.747 0-2 .253-2 2Z"/><path fill="#C7C8CC" id="alv" d="m107 82-2 1 2-1Z"/><path fill="#088488" id="VISli6a" d="M376 94h1l4-4v-1l-7-7-4 5c1.871 0 6 5.4 6 7Z"/><path fill="#15AFB3" id="TEa5" d="M388 100h1l6-8v-1l-7-9-7 7v1c0 2.35 7 6.444 7 10Z"/><path fill="#C7C8CC" id="alv" d="m105 83-1 1 1-1Z"/><path fill="#FF7AFD" id="SCzo" d="M169 84v2c1.577 0 2-1.762 2-3h-1l-1 1Z"/><path fill="#C7C8CC" id="alv" d="m104 84-1 1 1-1ZM353 84c1.683 0 11 7.067 11 9-1.443 0-11-7.535-11-9ZM102 85l-1 1 1-1ZM101 86l-1 1 1-1Z"/><path fill="#08818B" id="VISli6b" d="m87 88-2 1 1-2h1v1Z"/><path fill="#7DCD4B" id="HPF" d="m166 87-1 1 1-1Z"/><path fill="#FF64FF" id="MB" d="M163 95v1l5-3v-6h-1l-4 8Z"/><path fill="#FF7AFD" id="SCzo" d="m169 87-1 1v-1h1Z"/><path fill="#FF64FF" id="MB" d="m293 94 2 4-6-5-1-5v-1l5 7Z"/><path fill="#08818B" id="VISli6b" d="M376 94v1c-1.27 0-7-6.593-7-8h1c1.871 0 6 5.4 6 7Z"/><path fill="#039298" id="AUDpo4" d="M50 107h1c0-2.15 7.903-15 10-15v-1c-1.76 0 1.696-3-2-3-1.238 0-12 14.605-12 17l3 2Z"/><path fill="#C7C8CC" id="alv" d="m99 88-2 1 2-1Z"/><path fill="#7DCD4B" id="HPF" d="m291 88 1 1-1-1Z"/><path fill="#039298" id="AUDpo4" d="M406 107h1c0-1.577 1.762-2 3-2v-1l-12-16c-3.324 0 .394 3-3 3v1l2.5 3c1.557.778 8.5 9.624 8.5 12Z"/><path fill="#08818B" id="VISli6b" d="M85 89c-1.747 0-2 .253-2 2 1.747 0 2-.253 2-2Z"/><path fill="#C7C8CC" id="alv" d="m97 89-1 1 1-1Z"/><path fill="#15AFB2" id="TEa6a" d="M75 101c-1.54 0-3 1.342-3 3-1.457 0-1.46-3-4-3v-2l7-9c1.947 0 2.636 3 5 3v1c-1.514 0-5 5.537-5 7Z"/><path fill="#C7C8CC" id="alv" d="m96 90-1 1 1-1Z"/><path fill="#FF90FE" id="SCiw" d="m165 133 2-4.5c1.934-3.869 1.998-8.996 4-13 6.789-13.579 24.416-19.458 36.5-25.5 4.857-2.428 18.285 4.357 19 4 1.897-.948 2.722.64 4 0 3.798-1.899 12.922-6.539 18-4 18.056 9.028 42.5 18.7 42.5 43l-2.5 2c-4.792 2.396-14.633 1.184-19-1-3.721-1.86-10.691-17-11.5-17l-1-5-1-1c0-12.768-14.15-14-24.5-14-16.264 0-32.5-.891-32.5 20-2.652 0-7.39 14.445-10.5 16-4.996 2.498-14.249 4.875-20 2-1.619-.809-1.471-2-3.5-2Z"/><path fill="#15AFB2" id="TEa6a" d="m388 100-3 4-8-10 4-4c0 2.35 7 6.444 7 10Z"/><path fill="#08818B" id="VISli6b" d="M80 94h1c1.577 0 2-1.762 2-3l-3 2v1Z"/><path fill="#C7C8CC" id="alv" d="m94 91-1 1 1-1Z"/><path fill="#019197" id="AUDpo5" d="M58 115h1c0-2.097 6.487-14 9-14v-2c-1.066 0-7-6.23-7-7-2.097 0-10 12.85-10 15 0 3.501 7 4.585 7 8ZM406 107c-2.66 0-3.857 7-8 7-1.738 0-9-12.086-9-14l6-8 2.5 3c1.557.778 8.5 9.624 8.5 12Z"/><path fill="#C7C8CC" id="alv" d="m92 93-1 1 1-1ZM365 93l10 10c-1.916 0-10-7.728-10-10Z"/><path fill="#16B0B2" id="TEa6b" d="M81 94c0 1.338-4.41 7-6 7 0-1.463 3.486-7 5-7h1Z"/><path fill="#C7C8CC" id="alv" d="m91 94-1 1 1-1Z"/><path fill="#7DCD4B" id="HPF" d="m157 94-1 1 1-1Z"/><path fill="#C7CBCB" id="bsc" d="M311 124h3l-4-3-3-3v-1l-2-2v-2l-2-4v-1l-1-1v-1l-1-1v-1c-1.428 0-4-4.823-4-6l-1-1-1-1-2-2 2 4v1l2 2v1c1.577 0 2 1.762 2 3v1c1.577 0 2 1.762 2 3v1l1 2v1l1 2v2l2 4 4 3h2Z"/><path fill="#16B0B2" id="TEa6b" d="M384 105h1v-1l-8-10h-1v1c0 3.434 7 6.072 7 10h1Z"/><path fill="#7BD04A" id="DG-mo" d="m138 235 1 1c2.714 0 8.725-.95 10-3.5.876-1.752 3.896-9.5-1-9.5 0 14.615-13.88 1.74-17-4.5-.51-1.02-3.734-5.5-2-5.5l-8-10c-5.01 0-8.322-11.911-12.5-14-4.437-2.219-7.351-9.202-9.5-13.5-10.88-21.759.081-49.791 21.5-60.5 3.734-1.867 23.559-18.381 26.5-12.5 1.113 2.225-3.668 9.584-5.5 10.5-7.573 3.787-16.338 13.176-20.5 21.5-3.806 7.612-6.157 20.686-2 29 2.036 4.071 7 8.739 7 13.5l2 2c1.481 0 .785 2 3 2v-6l-1-1v-1c-.963 0-3-7.561-3-9v-1l-1-1v-1l-1-1-1-8 1-10 1-1v-1l1-1v-1l1-1 1-2 2-2c0-1.747.253-2 2-2 0-1.429 1.288-4 3-4l1-1 1-1h1c0-2.861 7.342-6.185 9-9.5l3-2.5 1-2 1-2v-1c0-3.68 1-6.216 1-10l-2-2c-1.048 0-3 .473-3-1h-11c0 .855-7.665 4-9 4l-5 3.5c-2.584 2.584-12.99 9.745-16.5 11.5-3.491 1.745-7.004 7.508-8.5 10.5-7.002 14.005-12 16.07-12 35v7c1.563 3.125 1.475 6.95 3 10 6.168 12.337 15.454 23.454 26 34 2.629 2.629 18 18.322 18 20.5l2 2 1 1 1 1Z"/><path fill="#47C83C" id="POST" d="M152 95v1c-1.048 0-3 .473-3-1h3Z"/><path fill="#7DCD4B" id="HPF" d="m152 96 2 2 1-3h-3v1Z"/><path fill="#C7CBCB" id="bsc" d="M145 124h2l5-3 1-2v-2c0-1.048-.473-3 1-3v-1l1-2v-1l1-2 1-1v-2l1-1 1-1 2-4 1-1 1-1v-2c-2.215 0-1.519 2-3 2l-1 1v1l-1 1-1 1v1l-1 1v1l-1 1v1l-1 1v1l-1 1-1 2v2l-1 1v1l-1 2-1 1-1 1-1 1c0 2.007-4 1.121-4 4h2Z"/><path fill="#7DCD4B" id="HPF" d="m305 96-2 1-2-2c1.145 0 4-.58 4 1Z"/><path fill="#7BD04A" id="DG-mo" d="m319 235-2 1c-3.981 0-8.94-1.381-11-5.5-.837-1.673.274-7.5 2-7.5 0 17.444 20-2.521 20-10l1-1c0-1.935 5.843-9 7-9 1.712 0 3-2.571 3-4 3.238 0 14.55-16.599 16-19.5 1.904-3.808 4.104-7.208 6-11v-4c8.654-17.307-14.122-44.811-27.5-51.5-3.221-1.611-19.404-13.298-22-12-4.852 2.426-.477 7.523 2 10 8.618 8.618 18.222 15.943 23.5 26.5 3.239 6.479 3.231 20.537 0 27-.773 1.546-8.471 12.5-6 12.5l-2 2-1 1-1 1h-1v-7c1.408 0 3-7.407 3-9l1-2 1-2 2-8-1-9-1-1v-2l-1-1v-1l-1-1v-1c0-1.634-2.634-4-4-4v-1l-20-20v-1l-1-1v-1l-1-1v-1c0-2.606-.95-2.4-2-4.5l2-5.5 2-1c1.048 0 3 .473 3-1h10c0 .986 8.513 4 10 4 0 2.562 11.83 7.33 14 9.5 7.307 7.307 16.421 13.841 21 23 2.189 4.379 2.829 9.658 5 14 .817 1.633 2.716 11.568 2 13-2.346 4.692-.652 11.304-3 16-3.572 7.145-8.393 13.786-12 21-5.396 10.792-20.751 17.502-26 28-1.531 3.062-6 4.509-6 7.5l-4 4Z"/><path fill="#029297" id="AUDp1" d="m427 112-5 1-7-14 3-4 2 3.5c1.888 3.777 7 9.186 7 13.5ZM34 113h1l6-14-3-3-3 3.5-6 12.5 5 1Z"/><path fill="#C7C8CC" id="alv" d="m89 96-1 1 1-1Z"/><path fill="#CAC7CB" id="fiber tracts" d="m295 96 1 1-1-1Z"/><path fill="#C7C8CC" id="alv" d="m87 97-1 2 1-2Z"/><path fill="#CAC7CB" id="fiber tracts" d="m160 97-1 1 1-1Z"/><path fill="#FF64FF" id="MB" d="m163 97-1 1 1-1Z"/><path fill="#FF8FFF" id="SCdg" d="M202 122c0-25.84 52-26.144 52 0l4-5-1-5-1-1c0-12.768-14.15-14-24.5-14-16.264 0-32.5-.891-32.5 20 0 1.408 1.197 5 3 5Z"/><path fill="#FF64FF" id="MB" d="m162 98-1 1 1-1Z"/><path fill="#CAC7CB" id="fiber tracts" d="M297 98c1.428 0 4 4.822 4 6-1.428 0-4-4.823-4-6Z"/><path fill="#019298" id="AUDp2/3" d="M40 115h1l5-10c0-2.58-4-3.211-4-6h-1l-6 14 5 2Z"/><path fill="#C7C8CC" id="alv" d="m86 99-1 1 1-1Z"/><path fill="#CAC7CB" id="fiber tracts" d="m159 99-1 1 1-1Z"/><path fill="#FF64FF" id="MB" d="m295 99 2 2-2-2Z"/><path fill="#019298" id="AUDp2/3" d="M422 113c-2.926 0-2.469 2-6 2l-6-10v-1c1.429 0 4-3.939 4-5h1l7 14Z"/><path fill="#C7C8CC" id="alv" d="m85 100-1 1 1-1Z"/><path fill="#CAC7CB" id="fiber tracts" d="m158 100-1 1 1-1Z"/><path fill="#029399" id="AUDpo6a" d="M398 115c-2.735 0-1.913 3-5 3l-8-13v-1l3-4h1c0 1.914 7.262 14 9 14v1ZM59 115c2.617 0 1.65 3 4 3l4-5c0-1.846 2.551-8 5-8v-1c-1.457 0-1.46-3-4-3-2.513 0-9 11.903-9 14Z"/><path fill="#16B0B2" id="TEa6b" d="M72 105h1l2-4c-1.54 0-3 1.342-3 3v1Z"/><path fill="#C7C8CC" id="alv" d="m84 101-1 1 1-1Z"/><path fill="#65A83D" id="DG-sg" d="M126 177c0-4.761-4.964-9.429-7-13.5-4.157-8.314-1.806-21.388 2-29 4.162-8.324 12.927-17.713 20.5-21.5 1.832-.916 6.613-8.275 5.5-10.5-2.941-5.881-22.766 10.633-26.5 12.5-21.419 10.709-32.38 38.741-21.5 60.5 2.149 4.298 5.063 11.281 9.5 13.5 4.178 2.089 7.49 14 12.5 14l-13-16.5c-7.556-15.111-10-18.113-10-35.5l1-2v-1c0-1.424.362-5 2-5 0-10.92 16.771-23.636 25.5-28l10-6c1.895.947-1.32 3.32-2 4l-9.5 9.5c-1.614 3.229-4.422 8.422-7 11l-2 3.5c0 15.437-5.226 15.047 3 31.5 1.193 2.385 4.168 8.5 7 8.5ZM331 177c-2.471 0 5.227-10.954 6-12.5 3.231-6.463 3.239-20.521 0-27-5.278-10.557-14.882-17.882-23.5-26.5-2.477-2.477-6.852-7.574-2-10 2.596-1.298 18.779 10.389 22 12 13.378 6.689 36.154 34.193 27.5 51.5v4c-1.896 3.792-4.096 7.192-6 11-1.45 2.901-12.762 19.5-16 19.5 0-5.37 9.612-11.723 12-16.5 4.854-9.707 8-17.608 8-29.5 0-14.06-14.135-29.817-26.5-36-1.838-.919-11.688-8.656-13-8-1.776.888.855 2.855 1.5 3.5l8 7 8 11 3 6.5 2 6.5c3.761 7.521-2.225 20.45-5 26-.752 1.504-3.885 7.5-6 7.5Z"/><path fill="#C7C8CC" id="alv" d="m83 102-1 1 1-1Z"/><path fill="#CAC7CB" id="fiber tracts" d="m157 102-1 1 1-1Z"/><path fill="#FF64FF" id="MB" d="M297 102c1.577 0 2 1.762 2 3l-2-3Z"/><path fill="#C7C8CC" id="alv" d="m82 103-1 1 1-1Z"/><path fill="#FF64FF" id="MB" d="m159 103-1 1 1-1Z"/><path fill="#FF8FFE" id="SCdw" d="m204 123 7.5-11c4.948-4.948 9.568-3.284 15-6 5.36-2.68 19.905 5.311 22.5 10.5l3 6.5 2-1c0-26.144-52-25.84-52 0l2 1Z"/><path fill="#C7C8CC" id="alv" d="m81 104-1 1 1-1Z"/><path fill="#CAC7CB" id="fiber tracts" d="m156 104-1 1 1-1Z"/><path fill="#FF64FF" id="MB" d="m158 104-1 1 1-1Z"/><path fill="#C7C8CC" id="alv" d="M375 104c1.726 0 5 4.558 5 6l-5-6Z"/><path fill="#039397" id="AUDp4" d="M44 116h1c0-3.541 5-6.151 5-9l-3-2h-1l-5 10 3 1Z"/><path fill="#029298" id="AUDpo6b" d="m71 109-4 4c0-1.846 2.551-8 5-8h1l-2 4Z"/><path fill="#CCC8CA" id="ar" d="M71 109h2c0-1.137 2.091-4 0-4l-2 4Z"/><path fill="#C7C8CC" id="alv" d="m80 105-1 2 1-2Z"/><path fill="#CAC7CB" id="fiber tracts" d="m301 105 1 1-1-1Z"/><path fill="#CCC8CA" id="ar" d="M398 136h1l-5-15-1-2c-1.618 0-8-10.427-8-12l-1-1v-1h-1c0 5.197 7 8.338 7 13l1 1 1 3 1 1 5 13Z"/><path fill="#029298" id="AUDpo6b" d="M393 118v1c-1.618 0-8-10.427-8-12l-1-1v-1h1l8 13Z"/><path fill="#039397" id="AUDp4" d="m416 115-4 1c0-3.29-5-5.518-5-9 0-1.577 1.762-2 3-2l6 10Z"/><path fill="#CAC7CB" id="fiber tracts" d="m155 106-1 1 1-1Z"/><path fill="#FC8FFF" id="PAG" d="M242 144c-3.982 0-8.05 2-11 2l-2-15c0-5.045-1-8.087-1-2-2.144 0-.381 4.262-1 5.5-1.829 3.658-1 9.15-1 13.5l-4.5-4H214c0-4.428-6.008-13-11-13 0-3.079 1-4.921 1-8l7.5-11c4.948-4.948 9.568-3.284 15-6 5.36-2.68 19.905 5.311 22.5 10.5l3 6.5 2 3.5-1 4.5c-4.458 0-11 8.98-11 13Z"/><path fill="#FF64FF" id="MB" d="M299 106c1.577 0 2 1.762 2 3l-2-3Z"/><path fill="#CBC9C7" id="or" d="m384 106 1 1-1-1Z"/><path fill="#039199" id="AUDp5" d="M45 116c4.198 0 6.69 3 11 3l2-4c0-3.415-7-4.499-7-8h-1c0 2.849-5 5.459-5 9Z"/><path fill="#C7C8CC" id="alv" d="m79 107-1 1 1-1Z"/><path fill="#FF64FF" id="MB" d="m157 107-1 1 1-1Z"/><path fill="#CAC7CB" id="fiber tracts" d="M303 107v1l-1-1h1Z"/><path fill="#039199" id="AUDp5" d="M412 116c-4.335 0-7.178 3-11 3l-3-4v-1c4.143 0 5.34-7 8-7h1c0 3.482 5 5.71 5 9Z"/><path fill="#C7C8CC" id="alv" d="m78 108-1 1 1-1Z"/><path fill="#CAC7CB" id="fiber tracts" d="m154 108-1 1v-1h1Z"/><path fill="#FF64FF" id="MB" d="m156 108-1 2 1-2Z"/><path fill="#CCC8CA" id="ar" d="m68 115-3 4 2-6 4-4-2 5-1 1Z"/><path fill="#CBC9C7" id="or" d="M59 143c-2.259 0 .408 8-4 8 0-3.806 1-7.751 1-11l1-2 1-1v-1l1-1v-3c1.638 0 2-3.576 2-5l3-5 1-1v-2l3-4 1-1 2-5h2c0 7.841-14 20.905-14 34Z"/><path fill="#7ECE4A" id="DG-po" d="m116 137 2-3.5c2.578-2.578 5.386-7.771 7-11l9.5-9.5c.68-.68 3.895-3.053 2-4l-10 6c-8.729 4.364-25.5 17.08-25.5 28l6.5-9c2.859-1.429 8.5-1.687 8.5 3Z"/><path fill="#CAC7CB" id="fiber tracts" d="M305 112v1l-2-4h1v1l1 1v1Z"/><path fill="#7ECE4A" id="DG-po" d="M340 137c1.932 0 3.305-6.098 7.5-4 4.705 2.353 7.486 10.473 9.5 14.5.659 1.319-.334 5.5 2 5.5 0-14.06-14.135-29.817-26.5-36-1.838-.919-11.688-8.656-13-8-1.776.888.855 2.855 1.5 3.5l8 7 8 11 3 6.5Z"/><path fill="#C7C8CC" id="alv" d="m77 110-1 1 1-1Z"/><path fill="#FF64FF" id="MB" d="m301 110 1 2-1-2Z"/><path fill="#C7C8CC" id="alv" d="m76 111-1 1 1-1Z"/><path fill="#FF64FF" id="MB" d="m155 111-1 2 1-2ZM256 111l1 1-1-1Z"/><path fill="#019099" id="AUDv1" d="M23 137h5c0-8.65 6-15.916 6-24l-5-1c0 7.997-6 16.479-6 25Z"/><path fill="#C7C8CC" id="alv" d="M75 112c-1.577 0-2 1.762-2 3 1.577 0 2-1.762 2-3ZM381 112l2 2-2-2Z"/><path fill="#019099" id="AUDv1" d="M428 137h5c0-7.738-6-20.187-6-25l-5 1c0 6.985 6 15.027 6 24Z"/><path fill="#029198" id="AUDv2/3" d="M28 137h6c0-8.479 6-16.515 6-22l-5-2h-1c0 8.084-6 15.35-6 24Z"/><path fill="#029298" id="AUDpo6b" d="m65 119-2 1v-2l4-5-2 6Z"/><path fill="#CAC7CB" id="fiber tracts" d="m152 113-1 1v-1h1Z"/><path fill="#FF64FF" id="MB" d="m302 113 1 2-1-2Z"/><path fill="#029198" id="AUDv2/3" d="M423 137h5c0-8.973-6-17.015-6-24-2.926 0-2.469 2-6 2 0 1.964 7 15.684 7 22Z"/><path fill="#C8C9CA" id="fp" d="m69 114-1 1 1-1Z"/><path fill="#FF64FF" id="MB" d="M154 114c-1.473 0-1 1.952-1 3 1.473 0 1-1.952 1-3Z"/><path fill="#029197" id="AUDv4" d="M34 137h3c0-7.383 7-14.215 7-21l-3-1h-1c0 5.485-6 13.521-6 22Z"/><path fill="#019396" id="AUDp6a" d="m56 120 5 1 2-2v-1c-2.35 0-1.383-3-4-3h-1l-2 4v1Z"/><path fill="#C7C8CC" id="alv" d="m73 115-1 2 1-2Z"/><path fill="#CAC7CB" id="fiber tracts" d="m151 115-1 2 1-2ZM305 115l2 2-2-2Z"/><path fill="#C7C8CC" id="alv" d="m383 115 2 2-2-2Z"/><path fill="#019396" id="AUDp6a" d="m401 120-6 1-2-2v-1c3.087 0 2.265-3 5-3l3 4v1Z"/><path fill="#029197" id="AUDv4" d="M419 137h4c0-6.316-7-20.036-7-22l-4 1c0 4.17 7 13.374 7 21Z"/><path fill="#019098" id="AUDv5" d="M37 137c4.01 0 8.3 2 12 2l5-15.5 2-3.5v-1c-4.31 0-6.802-3-11-3h-1c0 6.785-7 13.617-7 21ZM419 137l-12 2c0-6.81-6-12.867-6-19v-1c3.822 0 6.665-3 11-3 0 4.17 7 13.374 7 21Z"/><path fill="#C7C8CC" id="alv" d="m72 117-1 1 1-1Z"/><path fill="#CAC7CB" id="fiber tracts" d="m150 117-1 1 1-1Z"/><path fill="#FF64FF" id="MB" d="M166 147h6c9.393 0 19.811-16 31-16 0-3.079 1-4.921 1-8l-2-1c-1.803 0-3-3.592-3-5-2.652 0-7.39 14.445-10.5 16-4.996 2.498-14.249 4.875-20 2-1.619-.809-1.471-2-3.5-2-5.268 0-12 2.458-12-6l-2 1 1 5c0 1.577 1.973 13 3 13 0-4.709 9.202 1 11 1ZM291 148c0-2.576 10-7.403 10 0 2.603 0 .886-14 4-14 0-2.124 1-4.436 1-6l-3-2c0 9.57-5.179 7-12 7l-2.5 2c-4.792 2.396-14.633 1.184-19-1-3.721-1.86-10.691-17-11.5-17l-4 5-2 1 2 3.5-1 4.5c9.118 0 14.87 8.185 22.5 12l8.5 5 4.5-2 2.5 2ZM305 121l-2 1v-5l2 4Z"/><path fill="#CAC7CB" id="fiber tracts" d="m307 118 3 3-3-3Z"/><path fill="#C7C8CC" id="alv" d="M385 118c1.428 0 4 4.822 4 6-1.428 0-4-4.822-4-6Z"/><path fill="#C8C9CA" id="fp" d="m390 118 1 1-1-1Z"/><path fill="#039198" id="AUDp6b" d="M61 122h1l1-2v-1l-2 2v1Z"/><path fill="#CCC8CA" id="ar" d="m64 122-3 5 1-5 1-2 2-1v2l-1 1Z"/><path fill="#C7C8CC" id="alv" d="m71 119-1 1 1-1Z"/><path fill="#CAC7CB" id="fiber tracts" d="m148 119-1 1 1-1Z"/><path fill="#FF64FF" id="MB" d="m152 121 1 1v-3l-1 2Z"/><path fill="#039198" id="AUDp6b" d="M394 121h1l-2-2 1 2Z"/><path fill="#019397" id="AUDv6a" d="M49 139c2.124 0 4.436 1 6 1 0-1.424.362-5 2-5 0-1.623.005-6 2-6 0-2.833 2-4.84 2-7v-1l-5-1-2 3.5-5 15.5Z"/><path fill="#C7C8CC" id="alv" d="m70 120-1 1 1-1Z"/><path fill="#019397" id="AUDv6a" d="M401 140h1l5-1c0-6.81-6-12.867-6-19l-6 1c0 6.125 6 11.923 6 19Z"/><path fill="#C8C9CA" id="fp" d="m65 121-1 1 1-1Z"/><path fill="#FF8EFF" id="DT" d="m153 127-2 1-4-3v-1l5-3 1 1v5ZM303 126l3 2 3-3v-1l-4-3-2 1v4Z"/><path fill="#019198" id="AUDv6b" d="M400 140h1c0-7.077-6-12.875-6-19h-1l5 15v1l1 1v2ZM61 127l-2 2c0-2.833 2-4.84 2-7h1l-1 5Z"/><path fill="#C7C8CC" id="alv" d="m69 122-1 1 1-1Z"/><path fill="#C8C9CA" id="fp" d="m392 122 1 1-1-1Z"/><path fill="#C7C8CC" id="alv" d="m68 124-1 1 1-1Z"/><path fill="#FF6F80" id="TH" d="m152 133-2 1c0-3.165-4-2.508-4-5 0-5.092-7.098-2-9-2v-1l1-1h1l4-1h2l2 1 4 3 1 5Z"/><path fill="#FF64FF" id="MB" d="M147 124v1l-2-1h2ZM311 124l-2 1v-1h2Z"/><path fill="#FF6F80" id="TH" d="M305 134h1c0-1.548 3.343-5 5-5 0-4.039 9-4.239 9 0h1c0-2.285-5.296-5-7-5h-3l-2 1-3 3c0 1.564-1 3.876-1 6Z"/><path fill="#A9A9A8" id="AQ" d="m228 129 1 2c0-5.045-1-8.087-1-2Z"/><path fill="#C7C8CC" id="alv" d="m389 125 1 1-1-1ZM67 126l-1 1 1-1Z"/><path fill="#FE909D" id="LP" d="M137 128c0 1.751 7.426 1 9 1 0-5.092-7.098-2-9-2v1ZM311 129h9c0-4.239-9-4.039-9 0Z"/><path fill="#CCC8CA" id="ar" d="M59 129v3c1.638 0 2-3.576 2-5l-2 2Z"/><path fill="#C7C8CC" id="alv" d="m66 127-1 2 1-2Z"/><path fill="#FF6F80" id="TH" d="M136 128h1v-1h-1v1Z"/><path fill="#C7C8CC" id="alv" d="m390 127 1 1-1-1Z"/><path fill="#FF8E9D" id="SGN" d="M138 144h3l7-3 2-7c0-3.165-4-2.508-4-5-1.574 0-9 .751-9-1h-1l-2 3c0 4.412 4 9.165 4 13Z"/><path fill="#019198" id="AUDv6b" d="M57 135h1c0-1.048-.473-3 1-3v-3c-1.995 0-2 4.377-2 6Z"/><path fill="#FF64FF" id="MB" d="m226 157 5 1v-12l-2-15-1-2c-2.144 0-.381 4.262-1 5.5-1.829 3.658-1 9.15-1 13.5v9Z"/><path fill="#FF8E9D" id="SGN" d="M316 144h2c2.431 0 4-10.726 4-13l-1-2h-10c-1.657 0-5 3.452-5 5 1.663 0 2 5.407 2 7 3.054 0 4.55 3 8 3Z"/><path fill="#C7C8CC" id="alv" d="m391 129 1 1-1-1ZM65 130l-1 1 1-1Z"/><path fill="#FE7F82" id="MGd" d="m136 148-4.5-1c-1.524.762-6.116 5-7.5 5l1-10 1-1v-1l1-1v-1l1-1 1-2c1.747 0 2-.253 2-2l2-2h1c0 4.412 4 9.165 4 13l-2 4Z"/><path fill="#FF8FFD" id="MRN" d="M188 193h4l2-1c-2.359 0-4.475-1.987-6.5-3-13.718-6.859-9.271-23.864 3-30 9.307-4.654 14.204 5.602 19 8 5.832 2.916 5.5 9.671 5.5 16 1.655 0 7-14.875 7-18-2.109 0-2-2.535-2-4v-2h-1c0 8.407-18.103-8.698-7.5-14l3.5 2-1-3c0-4.428-6.008-13-11-13-11.189 0-21.607 16-31 16l1 3.5c-1.448 2.897-5.75 5.499-8 1l1-4.5c-1.798 0-11-5.709-11-1 0 5.115 2 8.304 2 13l-3 8c0 12.05 8.451 23 21 23 0-2.026 2 .104 2 1h3c3.354 0 5.291 2 8 2ZM265 193h4c1.835 0 4.235-2 7-2h3c.714 0 2-3.336 2-1 5.051 0 9.407-5 14-5 0-1.586 8-8.968 8-15l-3-11c-1.244 0 1-8.683 1-11 0-7.403-10-2.576-10 0 0 7.495-7 7.504-7 0l-8.5-5c-7.63-3.815-13.382-12-22.5-12-4.458 0-11 8.98-11 13l-1 4c2.24 0 1.703-4.399 4.5-3 5.85 2.925-.743 14.371-4 16l-4.5-1c0 1.424-.362 5-2 5l-1 3.5 7 13.5c0-5.593.029-9.529 4-13.5 4.125-4.125 5.705-7.103 10.5-9.5h6c20.081 0 21.567 33 .5 33 0 1.473 1.952 1 3 1Z"/><path fill="#FE7F82" id="MGd" d="m321 148 4.5-1c1.792.896 6.323 6 7.5 6l-1-9-1-1v-2l-1-1v-1l-1-1v-1c-1.366 0-4-2.366-4-4v-1l-3-1c0 2.274-1.569 13-4 13l3 4Z"/><path fill="#C7C8CC" id="alv" d="m392 131 1 1-1-1Z"/><path fill="#CCC8CA" id="ar" d="M58 135h1v-3c-1.473 0-1 1.952-1 3Z"/><path fill="#C7C8CC" id="alv" d="m64 132-1 1 1-1Z"/><path fill="#7ECF49" id="CA3" d="m135 221 5.5 2 5.5-1c0-9.688-11-17.105-11-27v-1c-1.638 0-2-3.576-2-5v-1l-4-6-1-3-2-2c-2.832 0-5.807-6.115-7-8.5-8.226-16.453-3-16.063-3-31.5 0-4.687-5.641-4.429-8.5-3l-6.5 9c0 1.424-.362 5-2 5v1l-1 2c0 17.387 2.444 20.389 10 35.5l13 16.5 8 10 5 6 1 1v1Z"/><path fill="#FF8D9D" id="POL" d="M152 157c1.624 0 2.75 2 5 2 0-4.696-2-7.885-2-13-1.027 0-3-11.423-3-13l-2 1-2 7c0 3.285-.287 16 4 16Z"/><path fill="#7ECF49" id="CA3" d="m321 221-4.5 2c-1.956.978-4.077-1-5.5-1v-5c1.577 0 2-1.762 2-3v-1l1-1 1-2 1-2 1-2c1.638 0 2-3.576 2-5 1.638 0 2-3.576 2-5v-1l1-2c1.473 0 1-1.952 1-3v-1l1-2 1-2 1-2 1-2 1-1 1-1 2-2c2.115 0 5.248-5.996 6-7.5 2.775-5.55 8.761-18.479 5-26l-2-6.5c1.932 0 3.305-6.098 7.5-4 4.705 2.353 7.486 10.473 9.5 14.5.659 1.319-.334 5.5 2 5.5 0 11.892-3.146 19.793-8 29.5-2.388 4.777-12 11.13-12 16.5-1.712 0-3 2.571-3 4-1.157 0-7 7.065-7 9l-1 1c-1.604 0-6 5.73-6 7l-1 1Z"/><path fill="#FF8D9D" id="POL" d="M304 157c-1.24 0-1.576 2-4 2-1.244 0 1-8.683 1-11 2.603 0 .886-14 4-14h1c1.663 0 2 5.407 2 7 0 2.91 1.142 16-4 16Z"/><path fill="#C7C8CC" id="alv" d="m393 134 1 1-1-1Z"/><path fill="#019198" id="AUDv6b" d="M55 140h1l1-2v-3c-1.638 0-2 3.576-2 5Z"/><path fill="#CCC8CA" id="ar" d="M57 137h1v-2h-1v2Z"/><path fill="#C8C9CA" id="fp" d="m59 135-1 1v-1h1Z"/><path fill="#C7C8CC" id="alv" d="m63 135-1 1 1-1ZM394 136l1 1-1-1Z"/><path fill="#C8C9CA" id="fp" d="M399 136v1l-1-1h1Z"/><path fill="#15B0B3" id="TEa1" d="M24 158h4v-21h-5c0 6.967 1 14.681 1 21Z"/><path fill="#16AFB3" id="TEa2/3" d="M28 158h1c0-2.662 7 .662 7-2-3.661 0-2-16.555-2-19h-6v21Z"/><path fill="#15B0B2" id="TEa4" d="M36 156h2l-2-6.5 1-12.5h-3c0 2.445-1.661 19 2 19Z"/><path fill="#15AFB3" id="TEa5" d="M38 156h9c0-6.165 2-11.135 2-17-3.7 0-7.99-2-12-2l-1 12.5 2 6.5Z"/><path fill="#C8C9CA" id="fp" d="m58 137-1 1v-1h1Z"/><path fill="#C7C8CC" id="alv" d="m62 137-1 2 1-2Z"/><path fill="#CCC8CA" id="ar" d="m399 137 1 1-1-1Z"/><path fill="#15AFB3" id="TEa5" d="M409 156h10v-19l-12 2c0 5.208 2 10.899 2 17Z"/><path fill="#15B0B2" id="TEa4" d="M419 156h2l2-5.5V137h-4v19Z"/><path fill="#16AFB3" id="TEa2/3" d="M421 156c0 .682 6.241 2 7 2v-21h-5v13.5l-2 5.5Z"/><path fill="#15B0B3" id="TEa1" d="M428 158h4c0-6.228 1-14.097 1-21h-5v21Z"/><path fill="#15AFB2" id="TEa6a" d="M47 156h6c0-5.574 2-10.949 2-16-1.564 0-3.876-1-6-1 0 5.865-2 10.835-2 17Z"/><path fill="#C7C8CC" id="alv" d="M397 143v2c-1.353 0-2-4.643-2-6l2 4Z"/><path fill="#15AFB2" id="TEa6a" d="M403 156h6c0-6.101-2-11.792-2-17l-5 1 1 16Z"/><path fill="#16B0B2" id="TEa6b" d="M53 156h2v-5c0-3.806 1-7.751 1-11h-1c0 5.051-2 10.426-2 16ZM402 156h1l-1-16h-2c0 2.389 1 5.987 1 9 1.714 0 1 5.594 1 7Z"/><path fill="#C7C8CC" id="alv" d="m61 141-1 2 1-2Z"/><path fill="#FF7E82" id="PoT" d="M152 157c0 3.323 2.01 4-3 4-1.302 0-2.641-4-5-4 0-4.873-3-9.123-3-13l7-3c0 3.285-.287 16 4 16ZM313 157c-2.773 0-3.67 4-6 4-3.303 0-3-.959-3-4 5.142 0 4-13.09 4-16 3.054 0 4.55 3 8 3l-3 4.5c-1.188 2.377 0 6.787 0 8.5Z"/><path fill="#C8CBCC" id="ec" d="M114 242v1c-3.614 0-6.899-4-11-4l-2-2-3-2h-1l-8-6-7-6-3-3-8-11.5c-4.505-9.009-14-18.845-14-29.5 0-.981-1.184-8-2-8v-20c4.408 0 1.741-8 4-8h1v1c-1.473 0-1 1.952-1 3v3c-2.989 0-1 16.73-1 19 0 1.321-.684 6 1 6v1c0 4.014 9.401 28 12 28v1c0 4.173 17.678 24 20 24h1l2 2h1c0 2.171 7.276 6 9 6h1c0 1.577 1.762 2 3 2h1l4 2h1v1Z"/><path fill="#7ECE4A" id="DG-po" d="M101 143c-1.638 0-2 3.576-2 5 1.638 0 2-3.576 2-5Z"/><path fill="#C8CBCC" id="ec" d="M385 205v2c3.731 0 14-23.634 14-28 0-.671 1.328-5 2-5v-3c0-5.172 1-10.365 1-15 0-1.406.714-7-1-7 0 7.642-3-3.632-3-6h-1v5c1.951 0 .477 2.454 1 3.5 2.468 4.935 1 13.691 1 19.5 0 .986-1.087 6-2 6 0 2.186-1.733 12-4 12 0 1.465.109 4-2 4v1l-2 4-1 2-1 1v1l-1 1-1 2Z"/><path fill="#C7C8CC" id="alv" d="M60 144c-1.473 0-1 1.952-1 3 1.473 0 1-1.952 1-3Z"/><path fill="#FD7F83" id="MGm" d="M144 157c0 5.799-7.202 8-12 8l5-2.5c2.683-5.367-1-9.953-1-14.5l2-4h3c0 3.877 3 8.127 3 13Z"/><path fill="#FD8FFD" id="ND" d="M220 159h2l1-1 2-1c0-1.048-.473-3 1-3v-6l-4.5-4H214l1 3v1l1 1v1l1 1v1c1.577 0 2 1.762 2 3v1c1.473 0 1 1.952 1 3ZM237 158l-1 1-3-1-2-2v-10c2.95 0 7.018-2 11-2l-1 4v1l-1 1v1l-1 1v1l-1 1-1 1v3Z"/><path fill="#FD7F83" id="MGm" d="M313 157c0 5.941 6.005 8 11 8l-5-3.5c-3.004-6.008 2-12.046 2-13.5l-3-4h-2l-3 4.5c-1.188 2.377 0 6.787 0 8.5Z"/><path fill="#FF90FD" id="INC" d="M219 156v3c0 8.407-18.103-8.698-7.5-14l3.5 2v1l1 1v1l1 1v1c0 1.238.423 3 2 3v1ZM237 158v2l4.5 1c3.257-1.629 9.85-13.075 4-16-2.797-1.399-2.26 3-4.5 3v1l-1 1v2l-1 1-1 1v1l-1 1v2Z"/><path fill="#FE8EFF" id="APN" d="M166 147h6l1 3.5c-1.448 2.897-5.75 5.499-8 1l1-4.5ZM284 148l4.5-2 2.5 2c0 7.495-7 7.504-7 0Z"/><path fill="#FE7E83" id="MGv" d="m129 164 3 1 5-2.5c2.683-5.367-1-9.953-1-14.5l-4.5-1c-1.524.762-6.116 5-7.5 5l1 8 1 1v1l1 1 2 1ZM327 164l-3 1-5-3.5c-3.004-6.008 2-12.046 2-13.5l4.5-1c1.792.896 6.323 6 7.5 6l-2 8-1 1-1 1-2 1Z"/><path fill="#FF8FFD" id="MRN" d="m215 148 1 1-1-1Z"/><path fill="#C7C8CC" id="alv" d="M397 148c1.951 0 .477 2.454 1 3.5 2.468 4.935 1 13.691 1 19.5 0 .986-1.087 6-2 6v-29Z"/><path fill="#7ECE4A" id="DG-po" d="m99 149-1 2 1-2Z"/><path fill="#FF8FFD" id="MRN" d="m241 149-1 1 1-1Z"/><path fill="#C7C8CC" id="alv" d="M59 150c-2.989 0-1 16.73-1 19 0 1.321-.684 6 1 6v-25Z"/><path fill="#FF8FFD" id="MRN" d="m216 150 1 1-1-1ZM239 152h1v-1l-1 1Z"/><path fill="#CBCBCC" id="mlf" d="M217 152c1.577 0 2 1.762 2 3-1.577 0-2-1.762-2-3ZM240 152l-1 1v-1h1ZM239 153l-1 1 1-1Z"/><path fill="#FC8FFF" id="PAG" d="M225 157h1v-3c-1.473 0-1 1.952-1 3Z"/><path fill="#CBCBCC" id="mlf" d="M237 155h1v-1l-1 1Z"/><path fill="#FF8FFD" id="MRN" d="m238 155-1 1v-1h1Z"/><path fill="#0D9F91" id="ECT2/3" d="M35 171h8c0-5.229-5-9.663-5-15h-2c0 2.662-7-.662-7 2 0 5.501 5 8.316 5 13h1Z"/><path fill="#0D9E90" id="ECT5" d="M43 171h7c0-5.116-3-9.313-3-15h-9c0 5.337 5 9.771 5 15Z"/><path fill="#0E9F91" id="ECT6a" d="M51 171h4v-3c-1.012 0-2-10.504-2-12h-6c0 5.687 3 9.884 3 15h1Z"/><path fill="#0E9F90" id="ECT6b" d="M55 156v12c-1.012 0-2-10.504-2-12h2Z"/><path fill="#CBCBCC" id="mlf" d="M219 159h1c0-1.048.473-3-1-3v3Z"/><path fill="#FC8FFF" id="PAG" d="m233 159-2 1v-4l2 2v1Z"/><path fill="#0E9F90" id="ECT6b" d="M401 171h1l1-15h-1c0 4.635-1 9.828-1 15Z"/><path fill="#0E9F91" id="ECT6a" d="M402 171h4c0-4.573 3-9.331 3-15h-6l-1 15Z"/><path fill="#0D9E90" id="ECT5" d="M406 171h7l6-15h-10c0 5.669-3 10.427-3 15Z"/><path fill="#0D9F91" id="ECT2/3" d="M421 171h1c0-4.044 6-8.085 6-13-.759 0-7-1.318-7-2h-2l-6 15h8Z"/><path fill="#FE8D9E" id="PIL" d="M152 171c0 1.238-.423 3-2 3l-11.5-1-8.5-6h-1v-3l3 1c4.798 0 12-2.201 12-8 2.359 0 3.698 4 5 4 0 3.403 3 5.952 3 10Z"/><path fill="#FF6F80" id="TH" d="m154 167-2 4c0-4.048-3-6.597-3-10 5.01 0 3-.677 3-4 1.624 0 2.75 2 5 2l-3 8Z"/><path fill="#FC8FFF" id="PAG" d="m223 159 2 1v-3l-2 1v1Z"/><path fill="#FF64FF" id="MB" d="m225 160 1 2v-5h-1v3Z"/><path fill="#FE8FFC" id="EW" d="M226 164c0 6.899 3.159 1 5 1v-7l-5-1v7Z"/><path fill="#FF6F80" id="TH" d="M303 170h1l3-9c-3.303 0-3-.959-3-4-1.24 0-1.576 2-4 2l3 11Z"/><path fill="#FE8D9E" id="PIL" d="M304 170c0 1.429 1.288 4 3 4 9.349 0 18.766-7 20-7v-3l-3 1c-4.995 0-11-2.059-11-8-2.773 0-3.67 4-6 4l-3 9Z"/><path fill="#0D9F90" id="ECT1" d="m34 171-4 1c0-2.092-6-5.607-6-14h5c0 5.501 5 8.316 5 13Z"/><path fill="#FF64FF" id="MB" d="M222 159h1v-1l-1 1ZM236 159l-1 2-2-2v-1l3 1Z"/><path fill="#CBCBCC" id="mlf" d="M235 161v4c1.638 0 2-3.576 2-5v-2l-1 1-1 2Z"/><path fill="#0D9F90" id="ECT1" d="m422 171 4 1c4.66 0 6-10.389 6-14h-4c0 4.915-6 8.956-6 13Z"/><path fill="#FE90FD" id="RN" d="M209 189c-2.751 0-8.774 3-15 3-2.359 0-4.475-1.987-6.5-3-13.718-6.859-9.271-23.864 3-30 9.307-4.654 14.204 5.602 19 8 5.832 2.916 5.5 9.671 5.5 16v1l-1 1-1 1-3 2-1 1Z"/><path fill="#FF64FF" id="MB" d="M246 189c-2.229 0 1 4.707 1 6-3.354 0-6.009-6-11-6 0-3.232-5-.827-5-3l2-1 2.5 2c1.007 0-1.5-8.885-1.5-10 0-1.145.579-4-1-4v-1c0-1.741-3-4.517-3-2h-3c0-2.216-3-.348-3 1l-1 2c0 5.4-2 8.6-2 14l-1 2c-4.818 0-8.736 6-10 6 0-1.623 1.457-6 0-6v-1l3-2 1-1 1-1v-1c1.655 0 7-14.875 7-18l-2-4v-2h2c0 8.526 2.695 5 4 5 0 6.899 3.159 1 5 1 4.01 0 1.578-4 4-4v4l-1 3.5 7 13.5v1l1 2 1 1 1 1 2 1v1Z"/><path fill="#FC8EFF" id="MA3" d="M226 162v2c-1.305 0-4 3.526-4-5h1l2 1 1 2ZM235 161c-2.422 0 .01 4-4 4v-5l2-1 2 2Z"/><path fill="#FE90FD" id="RN" d="M247 189c4.718 0 9.234 3 15 3 21.067 0 19.581-33-.5-33h-6c-4.795 2.397-6.375 5.375-10.5 9.5-3.971 3.971-4 7.907-4 13.5v1l1 2 1 1 1 1 2 1 1 1Z"/><path fill="#CBCBCC" id="mlf" d="m220 161 2 4c-2.109 0-2-2.535-2-4Z"/><path fill="#FF6F80" id="TH" d="M329 163h1v-1l-1 1ZM129 164v2l-2-2v-1l2 1ZM329 165l-2 2v-3l2-1v2ZM130 167v2l-1-2h1Z"/><path fill="#FD7F84" id="PP" d="M133 177h3c3.375 0 14 3.989 14-3l-11.5-1-8.5-6v4c1.473 0 1 1.952 1 3v1l2 2Z"/><path fill="#FF64FF" id="MB" d="m185 204-1 2-4-3-5-5.5-14.5-12.5c-3.431-1.715-12.492-7.254-17-5l-5.5 5c0-3.138-2-5.662-2-8 3.375 0 14 3.989 14-3 1.577 0 2-1.762 2-3l2-4c0 12.05 8.451 23 21 23 0 4.216 2.99 8 6 8 1.428 0 4 4.822 4 6Z"/><path fill="#FD7F84" id="PP" d="M320 177h3l2-2 1-2 1-6c-1.234 0-10.651 7-20 7 0 7.188 9.009 3 13 3Z"/><path fill="#CACAC7" id="dtd" d="M224 171h1l2-1c0-2.216-3-.348-3 1ZM231 171l2 1c0-1.741-3-4.517-3-2l1 1Z"/><path fill="#FEA6FF" id="RL" d="M229 186h2l2-1-2-14-1-1h-3l-2 1-1 11-1 1v2l2 1h3c0-1.186 1-1.186 1 0Z"/><path fill="#FF64FF" id="MB" d="M318 184c-2.234 0-5.75-6.375-10.5-4-3.156 1.578-8.957 5-12.5 5 0-1.586 8-8.968 8-15h1c0 1.429 1.288 4 3 4 0 7.188 9.009 3 13 3l-2 7Z"/><path fill="#0E9584" id="PERI1" d="M32 183h1l3-5.5-1-6.5h-1l-4 1c0 5.663-4 7.664-4 11h6Z"/><path fill="#0E9583" id="PERI2/3" d="M40 182c-1.819 0-4.59 1-7 1l3-5.5-1-6.5h8c0 1.318 2.393 9 4 9v1l-7 1Z"/><path fill="#0F9684" id="PERI5" d="m52 179-5 1c-1.607 0-4-7.682-4-9h8l1 8Z"/><path fill="#0E9684" id="PERI6a" d="M52 179h4c0-2.097-1-5.293-1-8h-4l1 8Z"/><path fill="#0E9683" id="PERI6b" d="M56 179h1c0-.981-1.184-8-2-8 0 2.707 1 5.903 1 8Z"/><path fill="#FF64FF" id="MB" d="M130 174h1c0-1.048.473-3-1-3v3Z"/><path fill="#CACAC7" id="dtd" d="m224 171-1 2 1-2Z"/><path fill="#C8C8C8" id="mtg" d="M221 187h1l1-2v-2l1-1 1-11h-1l-1 2c0 5.4-2 8.6-2 14ZM234 177c0 1.115 2.507 10 1.5 10l-2.5-2-2-14 2 1v1c0 1.145-.579 4 1 4Z"/><path fill="#0E9683" id="PERI6b" d="m402 171-1 2v-2h1Z"/><path fill="#0E9684" id="PERI6a" d="M404 179h1c0-2.707 1-5.903 1-8h-4l-1 2v6h3Z"/><path fill="#0F9684" id="PERI5" d="M405 179c0 .672 4.329 2 5 2l3-10h-7c0 2.097-1 5.293-1 8Z"/><path fill="#0E9583" id="PERI2/3" d="M417 183h6l-3-6.5 1-5.5h-8l-3 10c1.593 0 7 .337 7 2Z"/><path fill="#0E9584" id="PERI1" d="M425 183h6c0-2.672-5-4.621-5-11l-4-1h-1l-1 5.5 3 6.5h2Z"/><path fill="#CACAC7" id="dtd" d="M233 173c1.579 0 1 2.855 1 4-1.579 0-1-2.855-1-4Z"/><path fill="#FF64FF" id="MB" d="M325 175h1v-2l-1 2Z"/><path fill="#0E9683" id="PERI6b" d="M399 179h2v-5c-.672 0-2 4.329-2 5Z"/><path fill="#FF64FF" id="MB" d="M131 179h1l1-2-2-2v4ZM323 177l1 5c1.714 0 1-5.594 1-7l-2 2Z"/><path fill="#C7C8CC" id="alv" d="M59 176c1.646 0 1.466 4.966 2.5 6l6.5 16.5 3 5.5c-2.599 0-12-23.986-12-28Z"/><path fill="#CCCAC7" id="cpd" d="M197 223c2.881 0 4 1.292 4 4 0 6.438-26.542 8.479-31.5 6-7.687-3.843-12.648-8.648-19.5-15.5l-8-7.5c0-2.461-3.798-10.096-5-12.5l-2-2.5v-1l-1-5-1-2v-3l-1-2v-3l1-2h3c0 2.338 2 4.862 2 8 0 4.461-1.305 10.891 1 15.5 6.319 12.639 21.629 21.5 36 21.5h1c6.445 0 13.948 1 21 1ZM260 223c-1.766 0-5 .607-5 3 0 7.414 26.311 9.595 31.5 7 4.536-2.268 26.216-21 26.5-21l1-2 1-1 1-1 1-2c0-1.424.362-5 2-5 0-1.424.362-5 2-5v-1l1-2v-3l1-1v-4l1-2v-1l-1-5h-3l-2 7c0 2.618 2.514 7.472 1 10.5-8.044 16.088-17.365 27.5-38 27.5h-1c-5.998 0-13.358 1-20 1Z"/><path fill="#C7C8CC" id="alv" d="M397 177c-1.616 0-4 9.991-4 12 2.267 0 4-9.814 4-12Z"/><path fill="#31B824" id="ENTl5" d="M65 227h6l2-1 1-1 2-2c0-5.281-8.574-9.648-11-14.5-4.733-9.466-13-18.175-13-29.5l-5 1v1c0 12.066 3.084 19.668 8 29.5 2.437 4.874 10 10.901 10 16.5Z"/><path fill="#32B824" id="ENTl6a" d="m79 222-3 1c0-5.281-8.574-9.648-11-14.5-4.733-9.466-13-18.175-13-29.5h5c0 10.655 9.495 20.491 14 29.5l8 11.5v2Z"/><path fill="#7DCD4B" id="HPF" d="m129 182 2 1v-2c-2.215 0-1.519-2-3-2l1 3ZM329 179l-1 1 1-1Z"/><path fill="#32B824" id="ENTl6a" d="m378 222 2 1c0-5.056 8.845-9.189 11-13.5 5.005-10.011 13-18.424 13-30.5h-5c0 4.366-10.269 28-14 28l-1 2-1 2c0 2.36-3.842 8-6 8v2l1 1Z"/><path fill="#31B824" id="ENTl5" d="M386 227h5c0-4.424 6.086-8.672 8-12.5 5.611-11.221 11-19.772 11-33.5-.671 0-5-1.328-5-2h-1c0 12.076-7.995 20.489-13 30.5-2.155 4.311-11 8.444-11 13.5l3 3c1.048 0 3-.473 3 1Z"/><path fill="#FF8DFD" id="SNr" d="M181 211c-2.533 0-6 8.635-6 11-14.371 0-29.681-8.861-36-21.5-2.305-4.609-1-11.039-1-15.5l5.5-5c4.508-2.254 13.569 3.285 17 5l14.5 12.5 5 5.5-1 4.5 2 3.5ZM275 211c3.473 0 6 9.567 6 11 20.635 0 29.956-11.412 38-27.5 1.514-3.028-1-7.882-1-10.5-2.234 0-5.75-6.375-10.5-4-3.156 1.578-8.957 5-12.5 5 0 3.006-18 13.344-18 18 0 3.015-2 6.004-2 8Z"/><path fill="#7DCD4B" id="HPF" d="m328 180-1 1 1-1Z"/><path fill="#32B725" id="ENTl3" d="M65 227c0 1.139-7.742 3-9 3 0-5.075-6.716-12.932-9-17.5-5.133-10.265-7-19.235-7-30.5l7-1c0 12.066 3.084 19.668 8 29.5 2.437 4.874 10 10.901 10 16.5Z"/><path fill="#7DCD4B" id="HPF" d="m327 181-1 2v-2h1Z"/><path fill="#32B725" id="ENTl3" d="M391 227c0 1.674 7.241 2 9 2l6-10.5c5.511-11.022 11-22.153 11-35.5 0-1.663-5.407-2-7-2 0 13.728-5.389 22.279-11 33.5-1.914 3.828-8 8.076-8 12.5Z"/><path fill="#32B825" id="ENTl2" d="m56 230-10 2c0-7.068-11.449-32.398-15-39.5-1.411-2.822 1-7.079 1-9.5h1c2.41 0 5.181-1 7-1 0 11.265 1.867 20.235 7 30.5 2.284 4.568 9 12.425 9 17.5Z"/><path fill="#C7C8CC" id="alv" d="M133 187v1l-4-6 2 1 2 2v2Z"/><path fill="#FF64FF" id="MB" d="m132 182 1 2-1-2ZM224 182l-1 1 1-1Z"/><path fill="#32B722" id="ENTl1" d="M46 232c0 1.473-1.952 1-3 1-2.621 0-3.179-6.858-4-8.5-3.334-6.667-4.688-14.375-8-21-2.164-4.328-5-9.908-5-15 0-1.532-1.604-5.5 0-5.5h6c0 2.421-2.411 6.678-1 9.5 3.551 7.102 15 32.432 15 39.5Z"/><path fill="#FF8FFD" id="MRN" d="m241 183 1 2-1-2Z"/><path fill="#FF64FF" id="MB" d="M323 185h1v-2l-1 2Z"/><path fill="#C7C8CC" id="alv" d="m326 183-1 2 1-2Z"/><path fill="#32B825" id="ENTl2" d="M400 229c0 2.16 8.074 3 10 3l5-11.5 2-9c4.774-9.548 8-16.774 8-28.5h-8c0 13.347-5.489 24.478-11 35.5l-6 10.5Z"/><path fill="#32B722" id="ENTl1" d="M410 232c0 1.579 2.855 1 4 1 2.378 0 4.02-11.54 5-13.5 5.358-10.715 12-23.747 12-36.5h-6c0 11.726-3.226 18.952-8 28.5l-2 9-5 11.5Z"/><path fill="#FF8FFD" id="MRN" d="m215 184-1 1 1-1ZM214 185l-1 1 1-1Z"/><path fill="#FF64FF" id="MB" d="M225 186c0 1.473-1.952 1-3 1l1-2 2 1ZM228 186h1c0-1.186-1-1.186-1 0ZM271 204l1 2c1.947 0 2.636-3 5-3 0-4.656 18-14.994 18-18-4.593 0-8.949 5-14 5 0 2.74-5 11.251-5 7l-5 7Z"/><path fill="#C7C8CC" id="alv" d="m325 185-1 2v-2h1Z"/><path fill="#CACBC9" id="vtd" d="M220 197c3.253 0 7.725-3.888 11.5-2l4.5 2c1.579 0 1-2.855 1-4l-1-4c0-3.232-5-.827-5-3h-6c0 1.473-1.952 1-3 1h-1l-1 2c0 1.819-1 4.591-1 7l1 1Z"/><path fill="#FF8FFD" id="MRN" d="m243 186 1 1-1-1Z"/><path fill="#FF64FF" id="MB" d="M133 189h1l-1-2v2Z"/><path fill="#C7C8CC" id="alv" d="m324 187-1 2v-2h1Z"/><path fill="#FF8FFD" id="MRN" d="M209 189h1v-1l-1 1ZM246 189h1l-1-1v1Z"/><path fill="#C7C8CC" id="alv" d="m134 189 1 5c-1.638 0-2-3.576-2-5h1Z"/><path fill="#FE8FFF" id="MT" d="M181 197v1c-3.01 0-6-3.784-6-8 0-2.026 2 .104 2 1l4 6Z"/><path fill="#FE8DFF" id="VTA" d="m213 209-5 2c0-4.432-18-9.816-18-16l2-2 2-1c6.226 0 12.249-3 15-3h1c1.457 0 0 4.377 0 6-.213 0-6.072 6 3 6v8Z"/><path fill="#C8C8CB" id="rust" d="M219 196c-1.27 0-.341 5-6 5-9.072 0-3.213-6-3-6 1.264 0 5.182-6 10-6 0 1.819-1 4.591-1 7ZM247 195c0 5.497 2.204 6-4 6-7.095 0-3.993-8-6-8l-1-4c4.991 0 7.646 6 11 6Z"/><path fill="#FE8DFF" id="VTA" d="M243 201c0 6.072.334 9 6 9 0-3.018 17-8.226 17-15l-1-2c-1.048 0-3 .473-3-1-5.766 0-10.282-3-15-3h-1c-2.229 0 1 4.707 1 6 0 5.497 2.204 6-4 6Z"/><path fill="#FE8FFF" id="MT" d="M276 196v1c0 4.251 5-4.26 5-7 0-2.336-1.286 1-2 1 0 1.238-1.923 5-3 5Z"/><path fill="#FF64FF" id="MB" d="M322 190h1v-1l-1 1Z"/><path fill="#C7C8CC" id="alv" d="m393 189-2 4c2.109 0 2-2.535 2-4ZM323 190c0 1.048.473 3-1 3v-3h1Z"/><path fill="#FF64FF" id="MB" d="m180 191 1 6-4-6h3Z"/><path fill="#CACCC8" id="ml" d="M199 216c1.564 0 3.876 1 6 1l3-6c0-4.432-18-9.816-18-16l-2-2c-2.709 0-4.646-2-8-2l1 6v1c1.428 0 4 4.822 4 6l1 1 13 11ZM257 216c-1.564 0-3.876 1-6 1 0-2.583-2-3.934-2-7 0-3.018 17-8.226 17-15 1.238 0 3-.423 3-2 1.835 0 4.235-2 7-2v6l-5 7-14 12Z"/><path fill="#FF64FF" id="MB" d="M279 191c0 1.238-1.923 5-3 5v-5h3ZM192 193l-2 2-2-2h4ZM255 226l-4.5-1-3.5 2 2-4.5c0-1.045-2-1.861-2-3.5 0-4.39-4.943-15-10-15 0-2.573-1-4.472-1-7 1.579 0 1-2.855 1-4 2.007 0-1.095 8 6 8 0 6.072.334 9 6 9 0 3.066 2 4.417 2 7-3.481 0-3.841 2.33-.5 4l8.5-1 1 3c-1.766 0-5 .607-5 3ZM269 193c0 1.577-1.762 2-3 2l-1-2h4Z"/><path fill="#C7C8CC" id="alv" d="m322 193-1 2 1-2ZM391 194c-2.109 0-2 2.535-2 4l2-4ZM146 222h1v-1c0-4.288-5-7.107-5-11 0-2.461-3.798-10.096-5-12.5l-2-2.5c0 9.895 11 17.312 11 27Z"/><path fill="#FFA6FF" id="IF" d="m237 204-2 1-4-2c-.671 0-5-2.662-5 0l-5 2-2-1 1-7c3.253 0 7.725-3.888 11.5-2l4.5 2c0 2.528 1 4.427 1 7Z"/><path fill="#FF64FF" id="MB" d="m219 204-6 5v-8c5.659 0 4.73-5 6-5l1 1-1 7Z"/><path fill="#C7C8CC" id="alv" d="M321 196c-1.638 0-2 3.576-2 5 1.638 0 2-3.576 2-5ZM389 198l-1 2 1-2Z"/><path fill="#65A83D" id="DG-sg" d="M339 199c-1.712 0-3 2.571-3 4 1.712 0 3-2.571 3-4Z"/><path fill="#C7C8CC" id="alv" d="m388 200-1 1 1-1ZM319 201c-1.638 0-2 3.576-2 5 1.638 0 2-3.576 2-5Z"/><path fill="#FFA4FE" id="IPR" d="M221 221h14v-1l2-5.5-1-5.5c-1.901 0-5-4.332-5-6-.671 0-5-2.662-5 0 0 1.442-3.274 6-5 6v12Z"/><path fill="#C7C8CC" id="alv" d="m387 202-1 1 1-1Z"/><path fill="#FFA6FD" id="SNc" d="m188 212 3 3.5c.929 1.859-1.641 4.429-3.5 3.5l-5.5-6-1-2-2-3.5 1-4.5 4 3 1 1c0 2.364 3 3.053 3 5Z"/><path fill="#FEA4FF" id="IPDM" d="M219 209h2c1.726 0 5-4.558 5-6l-5 2v1l-1 1-1 1v1ZM236 209h1v-1l-2-3-4-2c0 1.668 3.099 6 5 6Z"/><path fill="#FFA6FD" id="SNc" d="M267 213c0 1.747-.253 2-2 2 0 11.166 9.06-3 10-3v-1c0-1.996 2-4.985 2-8-2.364 0-3.053 3-5 3l-1 1-2 4-1 1-1 1Z"/><path fill="#C7C8CC" id="alv" d="m386 203-1 2 1-2Z"/><path fill="#C7CCCC" id="IIIn" d="m184 206 1 1 1-2-1-1-1 2Z"/><path fill="#FF8EFE" id="PN" d="M209 218v2l5-6 1-2 1-1 1-1 1-1 1-1 1-1 1-1v-1l-2-1-6 5-4 8v1ZM243 215l4 4c0-4.39-4.943-15-10-15l-2 1 2 3 3 3 3 4Z"/><path fill="#FF64FF" id="MB" d="M257 216h6l2-1 2-2 1-1 1-1 2-4v-3l-14 12Z"/><path fill="#C7CCCC" id="IIIn" d="m272 206-1 1v-3l1 2Z"/><path fill="#C7C8CC" id="alv" d="m71 205 4 4.5c1.473 2.946 16 19.115 16 19.5-2.322 0-20-19.827-20-24Z"/><path fill="#FF64FF" id="MB" d="M199 216c-1.235 0-5-.643-5 1l-6-5c0-1.947-3-2.636-3-5l1-2 13 11Z"/><path fill="#C7C8CC" id="alv" d="M384 207h1v-2l-1 2Z"/><path fill="#FEA5FE" id="IPRL" d="m221 206-1 1 1-1Z"/><path fill="#C7C8CC" id="alv" d="m317 206-1 2 1-2Z"/><path fill="#FEA5FE" id="IPRL" d="m220 207-1 1 1-1Z"/><path fill="#C7C8CC" id="alv" d="M383 209h1v-2l-1 2Z"/><path fill="#C8CBCC" id="ec" d="m385 207-1 2v-2h1Z"/><path fill="#FEA5FE" id="IPRL" d="M218 209h1v-1l-1 1ZM237 209l3 2-3-3v1Z"/><path fill="#C7C8CC" id="alv" d="M315 209v1l1-2-1 1Z"/><path fill="#FF64FF" id="MB" d="M205 217h4l4-8-5 2-3 6Z"/><path fill="#FEA5FE" id="IPRL" d="m218 209-1 1 1-1Z"/><path fill="#FDA6FE" id="IPDL" d="M215 220h6v-11h-3l-1 1-1 1-1 1-1 2 1 6ZM235 220l6 1 2-6-3-4-3-2h-1l1 5.5-2 5.5Z"/><path fill="#C7C8CC" id="alv" d="m383 211-2 1c0-1.238.423-3 2-3v2Z"/><path fill="#C8CBCC" id="ec" d="m384 209-1 2v-2h1Z"/><path fill="#C7C8CC" id="alv" d="m315 210-1 2v-2h1Z"/><path fill="#C7CCCC" id="IIIn" d="M175 222h1l6-9-1-2c-2.533 0-6 8.635-6 11Z"/><path fill="#FEA5FE" id="IPRL" d="m216 211-1 1 1-1Z"/><path fill="#FF8DFD" id="SNr" d="m269 211-1 1 1-1Z"/><path fill="#C7CCCC" id="IIIn" d="M280 222h1c0-1.433-2.527-11-6-11v1l5 10Z"/><path fill="#C8CBCC" id="ec" d="M377 217v2c2.158 0 6-5.64 6-8l-2 1-1 1-1 2-1 1-1 1Z"/><path fill="#FF8DFD" id="SNr" d="M176 222c6.445 0 13.948 1 21 1v-3l-3-3-6-5 3 3.5c.929 1.859-1.641 4.429-3.5 3.5l-5.5-6-6 9ZM268 212l-1 1 1-1ZM280 222c-5.998 0-13.358 1-20 1l-1-3 1-1 3-3 2-1c0 11.166 9.06-3 10-3l5 10Z"/><path fill="#C7C8CC" id="alv" d="m314 212-1 1v-1h1Z"/><path fill="#65A83D" id="DG-sg" d="m329 212-1 1 1-1Z"/><path fill="#C7C8CC" id="alv" d="m381 212-1 1 1-1Z"/><path fill="#65A83D" id="DG-sg" d="M148 222v1c0 14.615-13.88 1.74-17-4.5-.51-1.02-3.734-5.5-2-5.5l5 6 1 1v1c0 5.39 11 8.615 11 1h2Z"/><path fill="#FF8DFD" id="SNr" d="m267 213-2 2c1.747 0 2-.253 2-2Z"/><path fill="#65A83D" id="DG-sg" d="M310 222h1c0 7.548 10 4.566 10-1l1-1c0-1.27 4.396-7 6-7 0 7.479-20 27.444-20 10l1-1h1Z"/><path fill="#C7C8CC" id="alv" d="m380 213-1 2 1-2Z"/><path fill="#FEA5FF" id="IPL" d="M221 233v1l-3-1-5-4h-1l-2-2-1-1v-6l5-6 1 6c0 3.539 1.93 13 6 13Z"/><path fill="#C7C8CC" id="alv" d="M313 214c-1.577 0-2 1.762-2 3 1.577 0 2-1.762 2-3Z"/><path fill="#FEA5FF" id="IPL" d="M237 233h2l1-1 1-1 2-1 1-1 1-1 1-1h1l2-4.5c0-1.045-2-1.861-2-3.5l-4-4-2 6c0 4.532-4 9.294-4 12Z"/><path fill="#C7C8CC" id="alv" d="m379 215-1 1 1-1Z"/><path fill="#CCCAC8" id="mp" d="m209 218-3.5 3-8.5-1-3-3c0-1.643 3.765-1 5-1 1.564 0 3.876 1 6 1h4v1ZM260 219l-1 1-8.5 1c-3.341-1.67-2.981-4 .5-4 2.124 0 4.436-1 6-1h6l-3 3Z"/><path fill="#C7C8CC" id="alv" d="m378 216-1 1 1-1ZM310 222h1v-5l-2 4 1 1ZM374 221h1l2-2v-2c-1.712 0-3 2.571-3 4Z"/><path fill="#FF64FF" id="MB" d="m209 226-5.5-1-2.5 2c0-2.708-1.119-4-4-4v-3l8.5 1 3.5-3v8Z"/><path fill="#7ECE4A" id="DG-po" d="m134 219 1 1-1-1Z"/><path fill="#FF64FF" id="MB" d="m260 219-1 1 1-1Z"/><path fill="#C8CBCC" id="ec" d="M375 221h2v-2l-2 2Z"/><path fill="#8AD987" id="CTXsp" d="m79 222 3 1-3-3v2Z"/><path fill="#FEA6FD" id="IPI" d="M221 221v12c-4.07 0-6-9.461-6-13h6v1ZM236 233h1c0-2.706 4-7.468 4-12l-6-1v1c0 3.312 1 8.038 1 12Z"/><path fill="#7ECE4A" id="DG-po" d="m322 220-1 1 1-1ZM135 221l5.5 2 5.5-1c0 7.615-11 4.39-11-1Z"/><path fill="#7DCD4B" id="HPF" d="M147 222h1l-1-1v1Z"/><path fill="#FFA5FE" id="IPC" d="M221 234c0 2.877 13.639 0 15 0v-1c0-3.962-1-8.688-1-12h-14v13Z"/><path fill="#7DCD4B" id="HPF" d="M309 222h1l-1-1v1Z"/><path fill="#7ECE4A" id="DG-po" d="m321 221-4.5 2c-1.956.978-4.077-1-5.5-1 0 7.548 10 4.566 10-1Z"/><path fill="#C7C8CC" id="alv" d="m374 221-1 1 1-1Z"/><path fill="#C8CBCC" id="ec" d="m375 222-2 1v-1l1-1h1v1Z"/><path fill="#8AD987" id="CTXsp" d="M375 222h3l-1-1h-2v1Z"/><path fill="#A0ED9D" id="EPv" d="M89 229v2c-6.434 0-15.306-4-16-4v-1l1-1 2-2 3-1 3 1 7 6Z"/><path fill="#7DCD4B" id="HPF" d="m309 222-1 1 1-1Z"/><path fill="#C7C8CC" id="alv" d="M372 223h1v-1l-1 1Z"/><path fill="#A0ED9D" id="EPv" d="m367 229 1 2c3.102 0 15-.241 15-4v-1l-3-3-2-1h-3l-2 1c0 1.747-.253 2-2 2l-1 1-1 1-2 2Z"/><path fill="#C7C8CC" id="alv" d="m372 223-1 1 1-1Z"/><path fill="#C8CBCC" id="ec" d="M371 224v1c1.747 0 2-.253 2-2h-1l-1 1Z"/><path fill="#C7C8CC" id="alv" d="M370 225h1v-1l-1 1Z"/><path fill="#99D2BD" id="OLF" d="m74 225-1 1 1-1Z"/><path fill="#C7C8CC" id="alv" d="M367 227h2l1-1v-1c-1.238 0-3 .423-3 2Z"/><path fill="#C8CBCC" id="ec" d="m371 225-1 1v-1h1Z"/><path fill="#99D2BD" id="OLF" d="M71 227h2v-1l-2 1Z"/><path fill="#C8CBCC" id="ec" d="m370 226-1 1 1-1Z"/><path fill="#99D2BD" id="OLF" d="M383 227h3c0-1.473-1.952-1-3-1v1Z"/><path fill="#A8ECD2" id="TR" d="M96 250c-5.42 0-11 13.141-11 17-2.87 0-14.784-2.642-17.5-4-6.488-3.244-24.5-23.816-24.5-30 1.048 0 3 .473 3-1l10-2c1.258 0 9-1.861 9-3h8c.694 0 9.566 4 16 4l8 4h1l3 3v1c0 4.714-4 9.2-4 10l-1 1Z"/><path fill="#FF64FF" id="MB" d="m210 227 2 2-2-2ZM246 227l-1 1 1-1Z"/><path fill="#C7C8CC" id="alv" d="M366 229h1v-2l-2 2h1Z"/><path fill="#C8CBCC" id="ec" d="m369 227-2 2v-2h2Z"/><path fill="#A8ECD2" id="TR" d="M359 249c4.637 0 12 13.132 12 18l4.5-2h9c7.774-3.887 15.509-9.517 19.5-17.5 2.504-5.009 10-8.574 10-14.5-1.145 0-4 .579-4-1-1.926 0-10-.84-10-3-1.759 0-9-.326-9-2h-8c0 3.759-11.898 4-15 4l-5 2h-1l-1 1-1 1h-1l-1 1-1 1-2 2c0 4.679 4 8.117 4 10Z"/><path fill="#FF64FF" id="MB" d="m245 228-1 1 1-1Z"/><path fill="#8AD987" id="CTXsp" d="m89 231 8 4-8-6v2Z"/><path fill="#C7C8CC" id="alv" d="m92 229 2 2-2-2Z"/><path fill="#FF64FF" id="MB" d="m213 229 5 4c-1.247 0-5-2.467-5-4ZM244 229l-1 1 1-1Z"/><path fill="#C7C8CC" id="alv" d="M363 230h2v-1l-2 1Z"/><path fill="#C8CBCC" id="ec" d="m366 229-1 1v-1h1Z"/><path fill="#8AD987" id="CTXsp" d="m368 231-5 2 2-3 1-1h1l1 2Z"/><path fill="#FF64FF" id="MB" d="m243 230-2 1 2-1Z"/><path fill="#C7C8CC" id="alv" d="m363 230-1 1 1-1Z"/><path fill="#C8CBCC" id="ec" d="M362 233h1l2-3h-2l-1 1-1 2h1Z"/><path fill="#C7C8CC" id="alv" d="M95 231c1.156 0 9 4.801 9 6-1.724 0-9-3.829-9-6Z"/><path fill="#33B931" id="HATA" d="m117 243 14 7c1.517 0 7-11.14 7-13v-2l-1-1-1-1-2-2c-5.864 0-10.506 11-17 11v1Z"/><path fill="#FF64FF" id="MB" d="m241 231-1 1 1-1Z"/><path fill="#33B931" id="HATA" d="M339 243c0 1.637-11.941 6-14 6-1.487 0-7-11.176-7-13l1-1 4-4c3.085 0 11.318 11 16 11v1Z"/><path fill="#C7C8CC" id="alv" d="M359 233h2l1-2c-1.238 0-3 .423-3 2Z"/><path fill="#FF64FF" id="MB" d="m240 232-1 1 1-1Z"/><path fill="#7DCD4B" id="HPF" d="m136 233 1 1-1-1Z"/><path fill="#FEA5FF" id="IPL" d="m237 233-1 1v-1h1Z"/><path fill="#C7C8CC" id="alv" d="m359 233-2 1 2-1Z"/><path fill="#C8CBCC" id="ec" d="M355 237h2l1-1 1-1h1l1-1v-1h-2l-2 1-1 1-2 1v1h1Z"/><path fill="#8AD987" id="CTXsp" d="m362 233-1 1v-1h1Z"/><path fill="#C7C8CC" id="alv" d="m357 234-1 1 1-1Z"/><path fill="#8AD987" id="CTXsp" d="m361 234-1 1 1-1ZM101 237v1l-3-3 3 2Z"/><path fill="#7DCD4B" id="HPF" d="m139 236-1 1v-2l1 1ZM317 236h1l1-1-2 1Z"/><path fill="#C7C8CC" id="alv" d="m356 235-2 1 2-1Z"/><path fill="#8AD987" id="CTXsp" d="m359 235-1 1 1-1Z"/><path fill="#C7C8CC" id="alv" d="M352 237h2v-1l-2 1Z"/><path fill="#8AD987" id="CTXsp" d="m358 236-1 1 1-1Z"/><path fill="#C7C8CC" id="alv" d="M105 237c1.238 0 3 .423 3 2-1.238 0-3-.423-3-2ZM352 237l-2 1 2-1Z"/><path fill="#C8CBCC" id="ec" d="m353 239-7 2 2-2 2-1 2-1h2l-1 2Z"/><path fill="#8AD987" id="CTXsp" d="m357 237-2 2v-2h2Z"/><path fill="#C7C8CC" id="alv" d="m350 238-2 1 2-1Z"/><path fill="#97EC93" id="PA" d="M108 251c8.297 0 15.244 7 19 7l4-8-14-7h-3c-3.614 0-6.899-4-11-4h-2c0 4.714-4 9.2-4 10 2.161 0 11-.497 11 2Z"/><path fill="#C7C8CC" id="alv" d="m109 239 4 2-4-2Z"/><path fill="#FF9B88" id="P" d="M201 239c0 .986-15.087 5.326-11 13.5 1.444 2.889 25.135 6.682 29.5 4.5 4.546-2.273 1.823-12.089-2-14l-6-2c-3.644-1.822-6.033-2-10.5-2ZM248 239c0 .697-18.113 5.274-13 15.5 2.013 4.026 25.42 2.54 29.5.5 4.112-2.056 2.639-10.18-1-12-1.542-.771-3.51-1.255-5-2-3.644-1.822-6.033-2-10.5-2Z"/><path fill="#C7C8CC" id="alv" d="M345 241h1l2-2c-1.465 0-4-.109-4 2h1Z"/><path fill="#97EC93" id="PA" d="M349 251c-8.749 0-15.971 7-20 7l-4-9c2.059 0 14-4.363 14-6h3l1-1 2-1h1l7-2h2c0 4.679 4 8.117 4 10-2.108 0-10-.789-10 2Z"/><path fill="#C7C8CC" id="alv" d="M115 243h2v-1l-3-1v1l1 1ZM342 242h1v-1l-2 1h1Z"/><path fill="#C8CBCC" id="ec" d="m345 241-2 1v-1h2Z"/><path fill="#C7C8CC" id="alv" d="M339 243h2v-1h-2v1Z"/><path fill="#C8CBCC" id="ec" d="m343 242-1 1v-1h1Z"/><path fill="#97EC93" id="PA" d="m97 249-1 1 1-1Z"/><path fill="#5FE6B7" id="COApl" d="M85 267c3.428 0 6.206 6 10 6 0-3.552 8.934-22 13-22 0-2.497-8.839-2-11-2l-1 1c-5.42 0-11 13.141-11 17ZM371 267c-3.524 0-5.962 6-10 6 0-5.686-3.633-10.767-6-15.5l-6-6.5c0-2.789 7.892-2 10-2 4.637 0 12 13.132 12 18Z"/><path fill="#60E6B5" id="COApm" d="M127 258c0 8.326-14.936 15.218-20.5 18-2.189 1.094-11.5-.644-11.5-3 0-3.552 8.934-22 13-22 8.297 0 15.244 7 19 7ZM329 258c0 7.954 16.264 15.382 21.5 18 2.201 1.101 10.5-.507 10.5-3 0-5.686-3.633-10.767-6-15.5l-6-6.5c-8.749 0-15.971 7-20 7Z"/></svg>