<svg xmlns="http://www.w3.org/2000/svg" viewBox="0 0 456 320"><path fill="#1BA696" id="RSPagl1" d="M174 17h1l16-2v-3l-17 1v4Z"/><path fill="#1BA598" id="RSPd1" d="m216 29-4 1c0-9.81-12.398-15-21-15v-3c10.266 0 25 4.713 25 17ZM241 29l4 1c0-10.064 11.303-15 20-15v-3c-10.47 0-24 4.926-24 17Z"/><path fill="#1BA696" id="RSPagl1" d="m265 15 17 2v-4l-17-1v3Z"/><path fill="#0A8589" id="VISpm1" d="M160 19h1l13-2v-4c-5.446 0-10.463 2-15 2l1 4ZM282 17l14 2 1-4c-3.228 0-9.486-2-15-2v4Z"/><path fill="#098589" id="VISp1" d="M85 53h1l15.5-11c15.606-7.803 40.589-23 58.5-23l-1-4c-18.233 0-43.652 15.076-59.5 23C97.206 39.147 83 47.558 83 50c1.577 0 2 1.762 2 3Z"/><path fill="#1AA496" id="RSPagl2/3" d="M174 24v1c4.997 0 9.997-4 16-4h1v-6l-16 2c0 2.41-1 5.181-1 7Z"/><path fill="#1BA697" id="RSPd2/3" d="M212 31c-2.483 0-4.026 2-6 2 0-8.28-7.664-12-15-12v-6c8.602 0 21 5.19 21 15v1ZM245 31l5 2c0-8.685 8.448-12 16-12l-1-6c-8.697 0-20 4.936-20 15v1Z"/><path fill="#1AA496" id="RSPagl2/3" d="M267 21c5.514 0 9.941 3 15 3v-7l-17-2 1 6h1Z"/><path fill="#098589" id="VISp1" d="m373 49-2 4c-2.915 0-13.016-9.258-16.5-11-15.944-7.972-40.085-23-58.5-23l1-4c18.6 0 43.459 13.98 59.5 22L373 49Z"/><path fill="#08858B" id="VISpm2/3" d="M174 24c-3.901 0-7.543 3-11 3 0-2.885-2-4.697-2-8l13-2h1c0 2.41-1 5.181-1 7ZM293 27h1l2-8-14-2v7c4.076 0 7.661 3 11 3Z"/><path fill="#0A828C" id="VISp2/3" d="M86 53c0 2.572 4 4.883 4 7l17.5-10c10.341-5.17 45.511-23 55.5-23 0-2.885-2-4.697-2-8h-1c-17.911 0-42.894 15.197-58.5 23L86 53ZM371 54l-5 6c-4.749 0-10.315-6.907-14.5-9-9.666-4.833-48.77-24-57.5-24l2-8c18.415 0 42.556 15.028 58.5 23 3.484 1.742 13.585 11 16.5 11v1Z"/><path fill="#1CA697" id="RSPagl5" d="M183 33c-4.296 0-7.018 2-11 2l2-10c4.997 0 9.997-4 16-4 0 4.012-5 7.428-5 11h-1l-1 1Z"/><path fill="#1AA596" id="RSPd5" d="M206 33c-5.875 0-10.701 4-16 4 0-4.322.776-5-5-5 0-3.572 5-6.988 5-11h1c7.336 0 15 3.72 15 12ZM251 33c5.316 0 9.9 4 16 4l-2-2.5c-1.541-3.083 5.724-2.5 7-2.5 0-1.23-5-6.407-5-11h-1c-7.552 0-16 3.315-16 12h1Z"/><path fill="#1CA697" id="RSPagl5" d="M272 32c4.522 0 8.202 3 13 3 0-1.174-4.072-9-2-9l-1-2c-5.059 0-9.486-3-15-3 0 4.593 5 9.77 5 11Z"/><path fill="#09828B" id="VISpm4" d="M163 27v2l11-4v-1c-3.901 0-7.543 3-11 3ZM293 27v2c-3.541 0-6.145-3-10-3l-1-2c4.076 0 7.661 3 11 3Z"/><path fill="#088489" id="VISpm5" d="m171 36-6 2-2-8v-1l11-4-2 10-1 1ZM291 39h1c0-3.403 1-5.952 1-10-3.541 0-6.145-3-10-3-2.072 0 2 7.826 2 9l1 1c1.076 0 5 1.523 5 3Z"/><path fill="#0B848B" id="VISp4" d="m90 61 4 4c4.32 0 9.677-6.088 13.5-8 13.539-6.77 27.451-13.226 41-20 4.1-2.05 9.8-7 14.5-7v-3c-9.989 0-45.159 17.83-55.5 23L90 60v1ZM366 60l-3 5c-4.994 0-10.191-5.845-14.5-8-13.551-6.776-27.456-13.228-41-20-2.822-1.41-11.993-8-14.5-8v-2h1c8.73 0 47.834 19.167 57.5 24 4.185 2.093 9.751 9 14.5 9Z"/><path fill="#1BA597" id="RSPv1" d="M166 67c0 1.577 1.762 2 3 2 2.33 0 3.227-4 6-4 0-4.143 9.852-8.176 13.5-10 12.727-6.363 27.5-8.673 27.5-26l-4 1v1c0 12.5-16.849 15.675-25.5 20l-9 6c-2.336 1.168-11.5 6.528-11.5 10ZM290 67l-2 2c-4.593 0-9.418-8.959-13.5-11-9.2-4.6-18.858-8.429-28-13-5.446-2.723-3.537-7.573-5.5-11.5-.374-.747-2.422-4.5 0-4.5l4 1v1c0 2.774-.141 5.217 1 7.5.75 1.5 28.841 16.67 32.5 18.5 2.902 1.45 11.5 6.053 11.5 10Z"/><path fill="#088389" id="VISp5" d="M357 74h1l5-8v-1c-4.994 0-10.191-5.845-14.5-8-13.551-6.776-27.456-13.228-41-20-2.822-1.41-11.993-8-14.5-8 0 4.048-1 6.597-1 10 3.805 0 8.174 4.337 11.5 6 12.702 6.35 25.183 13.591 38 20 1.913.957 15.5 7.818 15.5 9ZM94 66c0 1.294 3.609 7 5 7 4.665 0 8.537-5.018 12.5-7l37-19c4.661-2.33 11.153-8 16.5-8v-1l-2-8c-4.7 0-10.4 4.95-14.5 7-13.549 6.774-27.461 13.23-41 20-3.823 1.912-9.18 8-13.5 8v1Z"/><path fill="#1AA597" id="RSPv2/3" d="m163 65 3 2c0-3.472 9.164-8.832 11.5-10l9-6c8.651-4.325 25.5-7.5 25.5-20-2.483 0-4.026 2-6 2 0 8.5-16.81 13.155-22.5 16l-11 8c-1.792.896-9.5 5.568-9.5 8ZM293 65l-3 2c0-3.947-8.598-8.55-11.5-10-3.659-1.83-31.75-17-32.5-18.5-1.141-2.283-1-4.726-1-7.5l5 2h1c0 9.002 27.506 18.006 34.5 25 2.093 2.093 7.5 4.157 7.5 7Z"/><path fill="#1CA597" id="RSPagl6a" d="m184 32-1 1 1-1Z"/><path fill="#1AA697" id="RSPd6a" d="m165 48 1 1c3.868 0 12.813-10 20-10l4-2c0-4.322.776-5-5-5h-1l-1 1-4 3.5-14 9.5v2ZM290 49h1l1-1c0-5.069-20-12.297-20-16-1.276 0-8.541-.583-7 2.5l2 2.5 2 1c2.845 0 21 9.848 21 11Z"/><path fill="#1CA597" id="RSPagl6a" d="M292 48h1v-2c-1.814 0-7-8.25-7-10l-1-1c-4.798 0-8.478-3-13-3 0 3.703 20 10.931 20 16ZM171 36c0 3.428-6 6.206-6 10l14-9.5 4-3.5c-4.296 0-7.018 2-11 2l-1 1Z"/><path fill="#1BA498" id="RSPv5" d="m159 61 4 4c0-2.432 7.708-7.104 9.5-8l11-8c5.69-2.845 22.5-7.5 22.5-16-5.875 0-10.701 4-16 4l-4 2-6 5.5c-2.352 2.352-20.63 16.5-21 16.5ZM297 61c0 1.365-2.366 4-4 4 0-2.843-5.407-4.907-7.5-7-6.994-6.994-34.5-15.998-34.5-25 5.316 0 9.9 4 16 4l2 1c0 1.093 19.186 15.843 21.5 17l6.5 6Z"/><path fill="#1CA697" id="RSPagl5" d="m172 35-1 1 1-1Z"/><path fill="#09858B" id="VISpm6a" d="M164 46h1c0-3.794 6-6.572 6-10l-6 2v1l-1 7ZM291 39l2 7c-1.814 0-7-8.25-7-10 1.076 0 5 1.523 5 3Z"/><path fill="#1AA498" id="RSPv6a" d="M297 61h1l-3-5c-1.617 0-4-4.583-4-6l-1-1c0-1.152-18.155-11-21-11 0 1.093 19.186 15.843 21.5 17l6.5 6Z"/><path fill="#08858C" id="VISp6a" d="M99 74c0 1.177 2.572 6 4 6l14-7c0-1.205 15.745-10 18-10 0-1.948 5.428-4 7-4 0-1.948 5.428-4 7-4 0-3.258 11.134-7 14-7v-1l1-1 1-7c-5.347 0-11.839 5.67-16.5 8l-37 19c-3.963 1.982-7.835 7-12.5 7v1Z"/><path fill="#1AA498" id="RSPv6a" d="M158 61h1c.37 0 18.648-14.148 21-16.5l6-5.5c-7.187 0-16.132 10-20 10l-1 2c0 1.429-1.288 4-3 4l-4 6Z"/><path fill="#08858C" id="VISp6a" d="M353 81h1l3-7c0-1.182-13.587-8.043-15.5-9-12.817-6.409-25.298-13.65-38-20-3.326-1.663-7.695-6-11.5-6h-1l2 7v1c4.101 0 7.978 4.239 11.5 6L340 72.5c2.134 2.134 13 4.942 13 8.5Z"/><path fill="#09858B" id="VISpm6a" d="m164 46-1 1 1-1Z"/><path fill="#1CA597" id="RSPagl6a" d="M164 48h1v-2h-1l-1 1v1h1Z"/><path fill="#FF7AFD" id="SCzo" d="M293 83h1v-2l-4-7c-3.631 0-8.943-9.721-11.5-11-7.442-3.721-14.513-8.257-22-12-3.957-1.978-9.029-2.015-13-4-4.405-2.202-11.786 7.786-14 10l-1 4-1.5-4.5c-1.465-2.93-11.433-11.033-14.5-9.5-8.331 4.166-17.575 6.787-26 11-3.436 1.718-7.554 7-11.5 7 0 1.159-6.162 8-8 8l-1 2-1 1v2l13.5-13c17.399-8.7 48.5-31.367 48.5 7 0 2.373 2.284 0 3 0 0-4.513-.894-10.711 1-14.5 8.951-17.902 34.62 1.56 44.5 6.5 5.279 2.64 17.5 12.505 17.5 19Z"/><path fill="#08858A" id="VISp6b" d="M307 56c6.593 0 38.829 25 46 25 0-3.558-10.866-6.366-13-8.5L304.5 53c-3.522-1.761-7.399-6-11.5-6v2h3l11 7ZM161 49h2v-1c-2.866 0-14 3.742-14 7l12-6Z"/><path fill="#1AA598" id="RSPagl6b" d="M163 49h1v-1h-1v1Z"/><path fill="#1BA698" id="RSPd6b" d="M165 49h1l-1-1h-1v1h1ZM293 49l-2 1v-1l1-1h1v1Z"/><path fill="#C9C9CA" id="scwm" d="m149 56 2 1c1.04 0 10-5.102 10-6v-2l-12 6v1Z"/><path fill="#CACCC7" id="cing" d="M165 51c0 1.429-1.288 4-3 4 0-1.145.579-4-1-4v-2h4v2Z"/><path fill="#1AA497" id="RSPv6b" d="m166 49-1 2v-2h1ZM291 49v1l-1-1h1Z"/><path fill="#CACCC7" id="cing" d="M295 52c-2.091 0 0 2.863 0 4-1.617 0-4-4.583-4-6l2-1h3l-1 3Z"/><path fill="#C9C9CA" id="scwm" d="m307 56-1 1-11-5 1-3 11 7Z"/><path fill="#09848A" id="VISl1" d="m392 68-3 2c-3.704 0-12.742-16-18-16v-1l2-4 4.5 4c1.698.85 14.5 13.27 14.5 15ZM67 70h1l17-17c0-1.238-.423-3-2-3-1.47 0-19 16.817-19 18l3 2Z"/><path fill="#FF78FF" id="SCsg" d="M165 78v3l13.5-7c10.013-5.007 21.062-8.03 31-13 10.185-5.092 14.257 11 17.5 11 0-38.367-31.101-15.7-48.5-7L165 78ZM230 72c2.147 0 6.993-15.754 16.5-11 10.864 5.432 23.06 8.53 34 14l12.5 8c0-6.495-12.221-16.36-17.5-19-9.88-4.94-35.549-24.402-44.5-6.5-1.894 3.789-1 9.987-1 14.5Z"/><path fill="#C8C9CA" id="fp" d="M67 127h1l1-1v-1l1-1 1-1v-1l1-1 1-2c0-1.238.423-3 2-3l1-1 1-1v-1l2-2 1-1 1-1c0-1.747.253-2 2-2 0-1.747.253-2 2-2 0-1.747.253-2 2-2l1-1 1-1 2-2 2-1 1-1 1-1 1-1h1l1-1 1-1 2-1 1-1 2-1 1-1 4-2c0-1.896 10.103-5 12-5 0-3.45 24.107-19.696 27.5-18l.5 5h1l8-8 4-6c0-1.145.579-4-1-4 0 .898-8.96 6-10 6 0 2.755-7.684 5.092-9.5 6-10.74 5.37-20.374 12.687-31 18-9.759 4.88-18.624 15.812-27 20-2.661 1.331-4.778 10-8.5 10 0 1.258-2 4.206-2 2l-1 1c2.89 0-1 4.605-1 2l-1 1c2.184 0-3 8.38-3 10ZM389 127h1c0-5.041-6.805-10.111-9-14.5-9.336-18.672-34.298-32.4-52.5-41.5-2.914-1.457-22.5-11.285-22.5-14l-11-5c-2.091 0 0 2.863 0 4l3 5c3.915 0 4.944 8 9 8l.5-5c3.438-1.719 27.5 14.61 27.5 17 7.39 0 30.45 16.95 36.5 23 2.481 2.481 9.5 7.988 9.5 11v1l2 2v1l2 2v1l4 5Z"/><path fill="#0A8489" id="VISl2/3" d="M68 70c0 2.101 2.831 5 5 5 3.935 0 12.093-14 17-14v-1c0-2.117-4-4.428-4-7h-1L68 70ZM389 71l-5 4c-4.923 0-13.976-15-18-15l5-6c5.258 0 14.296 16 18 16v1Z"/><path fill="#08858A" id="VISp6b" d="M149 56c-2.538 0-3.953 3-7 3 0-1.948 5.428-4 7-4v1Z"/><path fill="#CBC9C7" id="or" d="m74 109 1 2c3.722 0 5.839-8.669 8.5-10 8.376-4.188 17.241-15.12 27-20 10.626-5.313 20.26-12.63 31-18 1.816-.908 9.5-3.245 9.5-6l-2-1c-2.538 0-3.953 3-7 3 0 1.948-5.428 4-7 4 0 1.335-15.844 10-18 10 0 1.859-12.177 9-14 9L87 94l-8 8-5 7ZM397 152c.839 0 2 1.93 2 0v-7l-2-8c-2.109 0-2-2.535-2-4v-1l-2-4v-1l-1-1-1-1v-1l-2-2v-1l-2-2c0-4.206-6-6.794-6-11 0-3.145-4-3.855-4-7-2.09 0-8-5.91-8-8-4.285 0-7.648-6.574-10.5-8-1.408-.704-5.5-1.583-5.5-4-7.171 0-39.407-25-46-25l-1 1c0 2.715 19.586 12.543 22.5 14 18.202 9.1 43.164 22.828 52.5 41.5 2.195 4.389 9 9.459 9 14.5l3 4.5 4 17.5v3Z"/><path fill="#08858A" id="VISp6b" d="M142 59c-1.572 0-7 2.052-7 4 1.572 0 7-2.052 7-4Z"/><path fill="#08828B" id="VISl4" d="m384 77-3 2c-6.19 0-11.354-13-18-13v-1l3-5c4.024 0 13.077 15 18 15v2ZM75 79h1c2.445 0 12.927-13 18-13v-1l-4-4c-4.907 0-13.065 14-17 14v1l2 3Z"/><path fill="#47C83C" id="POST" d="M139 109h1c2.714 0 5.438-6 7-6l1-1 1-1v-1l1-1 1-1 1-2 1-1 1-1 1-1v-1l1-1h1v-1l1-1 1-2c0-1.238 1.923-5 3-5v-1l1-1 1-2 1-1v-1l1-1 1-2 2-4c-1.238 0-3-.423-3-2l-3-2-4-4h-1l-8 8-1 1v1l-1 1-2 5-1 1-1 2-1 1-1 1-1 1-1 1-1 1c0 8.949-10 18.221-10 24h10Z"/><path fill="#FD7AFF" id="SCop" d="M162 87c1.239 0 27.902-14.201 31.5-16 4.98-2.49 17.63-5.685 23-3l8 9c2.258 1.129 2.003-1.501 3-2 1.722-.86 1.453 3.273 4 2l10-10c3.158-1.579 8.664.832 11 2l10 2 20 9 11.5 7v-4h-1l-12.5-8c-10.94-5.47-23.136-8.568-34-14-9.507-4.754-14.353 11-16.5 11-.716 0-3 2.373-3 0-3.243 0-7.315-16.092-17.5-11-9.938 4.97-20.987 7.993-31 13L165 81l-1 1-2 1v4Z"/><path fill="#47C83C" id="POST" d="M317 109h11c0-4.832-10-13.532-10-22l-2-4c-3.469 0-8-9.454-8-12l-1-1v-1c-4.056 0-5.085-8-9-8h-1c0 1.365-2.366 4-4 4l-3 2-2 2 2 5 4 7 5 8v1l4 4 2 3 1 1 1 2 2 2v1c3.05 0 4.483 6 8 6Z"/><path fill="#08858A" id="VISp6b" d="M135 63c-2.255 0-18 8.795-18 10 2.156 0 18-8.665 18-10Z"/><path fill="#C9CCC9" id="dhc" d="M132 85h6l2-1 1-1 1-1 1-1 1-1 1-2 1-1 2-5 1-1v-2l-.5-5c-3.393-1.696-27.5 14.55-27.5 18 1.548 0 11 1.504 11 3ZM319 85h6c0-1.473 1.952-1 3-1 0-2.102 7-.058 7-3 0-2.39-24.062-18.719-27.5-17l-.5 5v1l1 1c0 2.546 4.531 12 8 12l3 2Z"/><path fill="#0B858B" id="VISl5" d="M82 87h1c0-.824 15.059-13 16-13v-1c-1.391 0-5-5.706-5-7-5.073 0-15.555 13-18 13 0 3.517 6 4.95 6 8ZM373 87h1l7-7v-1c-6.19 0-11.354-13-18-13l-5 8c0 1.502 15 9.27 15 13Z"/><path fill="#FF90FF" id="SCig" d="M301 124c1.564 0 3.876 1 6 1l3-5v-10l-1-1c0-8.164-14-17.456-14-22h-1l-11.5-7-20-9-10-2c-2.336-1.168-7.842-3.579-11-2l-10 10c-2.547 1.273-2.278-2.86-4-2-.997.499-.742 3.129-3 2l-8-9c-5.37-2.685-18.02.51-23 3-3.598 1.799-30.261 16-31.5 16h-1l-1 1-1 1-1 2-1 1-1 1-1 1-1 1-1 1c0 1.238-.423 3-2 3l-1 2-1 2-2 4v15.5c.886 1.772 8 4.331 8 1.5 0-20.078 17.768-29.134 33.5-37 3.562-1.781 17.032-10.984 21-9 5.474 2.737 10.396 7.198 16 10 1.278.64 2.103-.948 4 0 2.501 1.25 14.563-12.218 19-10 1.839.92 4.266.133 6 1 9.965 4.982 38.11 18.719 43.5 29.5 2.378 4.755 3 9.699 3 15.5Z"/><path fill="#0C858C" id="VISli1" d="m56 77 3 3c2.451 0 8-7.99 8-10l-3-2-8 9ZM400 77c-.9 0-.12 3-3 3l-8-9v-1l3-2c1.739 0 8 7.568 8 9Z"/><path fill="#7DCD4B" id="HPF" d="m150 69-1 1v-1h1Z"/><path fill="#0A858A" id="VISli2/3" d="M64 86h1c0-1.62 6.607-10 8-10v-1c-2.169 0-5-2.899-5-5h-1c0 2.01-5.549 10-8 10v1c2.833 0 2.953 5 5 5Z"/><path fill="#7DCD4B" id="HPF" d="m307 70 1 1-1-1ZM149 71l-1 1 1-1Z"/><path fill="#0A858A" id="VISli2/3" d="M392 86h1c0-.992 3.159-5 4-5v-1l-8-9-5 4v2l8 9Z"/><path fill="#08858A" id="VISp6b" d="M103 81v1c1.823 0 14-7.141 14-9l-14 7v1Z"/><path fill="#08848C" id="VISl6a" d="M83 87c0 1.562 2.189 5 4 5 5.725 0 9.782-11 16-11v-1c-1.428 0-4-4.823-4-6-.941 0-16 12.176-16 13ZM369 93h1l3-6c0-3.73-15-11.498-15-13h-1l-3 7c2.254 0 15 9.337 15 12Z"/><path fill="#08828C" id="VISli4" d="m65 86 2 2 8-9-2-3c-1.393 0-8 8.38-8 10Z"/><path fill="#15B0B3" id="TEa1" d="m30 147-4 1c0-16.266 2.856-29.213 10-43.5l9-13C45.839 89.822 55.18 77 56 77l3 3v1L46 97.5c-8.151 16.303-16 29.656-16 49.5Z"/><path fill="#7DCD4B" id="HPF" d="m146 77-1 1 1-1Z"/><path fill="#08828C" id="VISli4" d="M389 89h1c0-2.215 2-1.519 2-3l-8-9-3 2v1c2.158 0 8 7.062 8 9Z"/><path fill="#15B0B3" id="TEa1" d="m426 147 5 1c0-16.328-3.297-29.095-10-42.5-2.362-4.723-6.621-8.243-9-13-.997-1.995-10.211-15.5-12-15.5-.9 0-.12 3-3 3v1c1.415 0 11.034 13.568 12 15.5 10.068 20.137 17 25.173 17 50.5Z"/><path fill="#FF7AFD" id="SCzo" d="m164 82-2 1v-2l1-1 1-2h1v3l-1 1Z"/><path fill="#FF90FE" id="SCiw" d="M174 125c0-7.265 12.287-16.787 17.5-22 6.661-6.66 12.385-12.192 20-16 4.824-2.412 12.878 6.061 17 4 6.212-3.106 15.542-5.229 22-2l15 15c6.113 3.057 16.5 15.824 16.5 21 2.175 0 4.886 6.807 10.5 4 1.586-.793 7.094-5 8.5-5 0-5.801-.622-10.745-3-15.5-5.39-10.781-33.535-24.518-43.5-29.5-1.734-.867-4.161-.08-6-1-4.437-2.218-16.499 11.25-19 10-1.897-.948-2.722.64-4 0-5.604-2.802-10.526-7.263-16-10-3.968-1.984-17.438 7.219-21 9-15.732 7.866-33.5 16.922-33.5 37l9.5 5c4.903 2.452 7.319-4 9.5-4Z"/><path fill="#0A848A" id="VISli5" d="M74 96h1l7-9c0-3.05-6-4.483-6-8h-1l-8 9v1c0 2.2 7 3.543 7 7Z"/><path fill="#7DCD4B" id="HPF" d="m144 80-1 1 1-1Z"/><path fill="#0A848A" id="VISli5" d="m389 89-7 7-8-9 7-7c2.158 0 8 7.062 8 9Z"/><path fill="#16AFB3" id="TEa2/3" d="m37 146-7 1c0-19.844 7.849-33.197 16-49.5L59 81c2.833 0 2.953 5 5 5l-15 19.5c-7.702 15.403-12 21.503-12 40.5Z"/><path fill="#09858C" id="VISl6b" d="M87 93v1l16-12v-1c-6.218 0-10.275 11-16 11v1Z"/><path fill="#7DCD4B" id="HPF" d="m143 81-1 1 1-1Z"/><path fill="#FF78FF" id="SCsg" d="m165 81-1 1 1-1Z"/><path fill="#C7C8CC" id="alv" d="M361 97c5.672 0 16.508 18 20 18 0-3.012-7.019-8.519-9.5-11-6.05-6.05-29.11-23-36.5-23 0 2.942-7 .898-7 3 6.616 0 12.123 3 18 3 1.375 0 15 8.968 15 10Z"/><path fill="#09858C" id="VISl6b" d="M354 81c2.254 0 15 9.337 15 12-4.285 0-7.648-6.574-10.5-8-1.408-.704-5.5-1.583-5.5-4h1Z"/><path fill="#16AFB3" id="TEa2/3" d="m419 146 7 1c0-25.327-6.932-30.363-17-50.5-.966-1.932-10.585-15.5-12-15.5-.841 0-4 4.008-4 5 0 3.742 12.718 15.937 15 20.5 8.862 17.725 11 18.885 11 39.5Z"/><path fill="#C7C8CC" id="alv" d="M109 87h2l10.5-3 10.5 1c0-1.496-9.452-3-11-3-1.897 0-12 3.104-12 5Z"/><path fill="#7DCD4B" id="HPF" d="m142 82-1 1 1-1ZM141 83l-1 1 1-1ZM319 85l-1 2-2-4 3 2Z"/><path fill="#4FC244" id="SUB" d="m127 111-8 2c-2.334 0-1.341-4.181-2-5.5-2.665-5.331-6-14.35-6-20.5l10.5-3 10.5 1h7c0 8.949-10 18.221-10 24l-2 2Z"/><path fill="#7DCD4B" id="HPF" d="M138 85h1l1-1-2 1Z"/><path fill="#FF64FF" id="MB" d="M294 87h1c0-1.048.473-3-1-3v3Z"/><path fill="#C7C8CC" id="alv" d="M328 84c-1.048 0-3-.473-3 1 1.048 0 3 .473 3-1Z"/><path fill="#4FC244" id="SUB" d="M329 111c3.68 0 5.511 2 9 2l8-26c-5.877 0-11.384-3-18-3 0 1.473-1.952 1-3 1h-6l-1 2c0 8.468 10 17.168 10 22l1 2Z"/><path fill="#15B0B2" id="TEa4" d="M37 146h2v-1c0-16.593 9.177-26.855 16-40.5 2.286-4.573 11-10.312 11-15.5l1-1-2-2h-1l-15 19.5c-7.702 15.403-12 21.503-12 40.5ZM417 145l2 1c0-20.615-2.138-21.775-11-39.5-2.282-4.563-15-16.758-15-20.5h-1c0 1.481-2 .785-2 3l12 16.5c6.768 13.537 15 22.965 15 39.5Z"/><path fill="#088488" id="VISli6a" d="M75 96c0 1.365 2.366 4 4 4l8-7v-1c-1.811 0-4-3.438-4-5h-1l-7 9Z"/><path fill="#C7C8CC" id="alv" d="m109 87-4 2c1.465 0 4 .109 4-2Z"/><path fill="#57B947" id="ProS" d="m119 113-14 11c0-9.849-10-17.58-10-27v-1l1-1h1l1-1 1-1 2-1 1-1 2-1 1-1c1.465 0 4 .109 4-2h2c0 6.15 3.335 15.169 6 20.5.659 1.319-.334 5.5 2 5.5Z"/><path fill="#CAC7CB" id="fiber tracts" d="M159 88h1v-1h-1v1Z"/><path fill="#C7CBCB" id="bsc" d="m161 87-1 1v-1h1Z"/><path fill="#FF8FFF" id="SCdg" d="M174 125c0-7.265 12.287-16.787 17.5-22 6.661-6.66 12.385-12.192 20-16 4.824-2.412 12.878 6.061 17 4 6.212-3.106 15.542-5.229 22-2l15 15c6.113 3.057 16.5 15.824 16.5 21-3.404 0-9.822 2.839-13.5 1-1.564-.782-3.538-.269-5-1l-1.5-3c0-37.7-68-36.525-68 0l-1.5 3c-1.462.731-3.436.218-5 1-3.678 1.839-10.096-1-13.5-1Z"/><path fill="#C7CBCB" id="bsc" d="M310 112c2.662 0-.662 7 2 7v-8l-1-1v-2l-1-1v-1l-1-1v-2l-2-2v-1l-2-2v-1l-3-3-3-4-2-2-2-1c0 4.544 14 13.836 14 22l1 1v2Z"/><path fill="#57B947" id="ProS" d="M338 113c0 1.594 11.917 10 13 10 0-9.091 10-16.629 10-26 0-1.032-13.625-10-15-10l-8 26Z"/><path fill="#088488" id="VISli6a" d="M377 101h1l4-4v-1l-8-9h-1l-3 6c1.27 0 7 6.593 7 8Z"/><path fill="#08828C" id="VISli4" d="M66 89h1v-1l-1 1Z"/><path fill="#C7CBCB" id="bsc" d="m160 88-1 1v-1h1Z"/><path fill="#CAC7CB" id="fiber tracts" d="M299 89v1l-2-2 2 1Z"/><path fill="#15AFB3" id="TEa5" d="M39 145h11c0-12.276 7.837-24.174 13-34.5 2.156-4.313 11-10.419 11-14.5 0-3.457-7-4.8-7-7h-1c0 5.188-8.714 10.927-11 15.5-6.823 13.645-16 23.907-16 40.5Z"/><path fill="#C7C8CC" id="alv" d="m105 89-1 1 1-1Z"/><path fill="#C7CBCB" id="bsc" d="M158 90v1l1-2h-1v1Z"/><path fill="#15AFB3" id="TEa5" d="M406 145h11c0-16.535-8.232-25.963-15-39.5L390 89h-1l-7 7v1c3.081 0 7.783 9.065 9 11.5 6.082 12.164 15 21.81 15 36.5Z"/><path fill="#C7C8CC" id="alv" d="m104 90-2 1 2-1Z"/><path fill="#CAC7CB" id="fiber tracts" d="M157 91h1v-1h-1v1Z"/><path fill="#C7C8CC" id="alv" d="m102 91-1 1 1-1Z"/><path fill="#CAC7CB" id="fiber tracts" d="M156 92h1v-1h-1v1Z"/><path fill="#C7CBCB" id="bsc" d="m158 91-1 1v-1h1Z"/><path fill="#C7C8CC" id="alv" d="m101 92-2 1 2-1Z"/><path fill="#CAC7CB" id="fiber tracts" d="M155 93h1v-1h-1v1Z"/><path fill="#C7CBCB" id="bsc" d="m157 92-1 1v-1h1Z"/><path fill="#08818B" id="VISli6b" d="M79 101v1l8-8v-1l-8 7v1Z"/><path fill="#C7C8CC" id="alv" d="m99 93-1 1 1-1Z"/><path fill="#CAC7CB" id="fiber tracts" d="M154 94h1v-1l-1 1Z"/><path fill="#C7CBCB" id="bsc" d="m156 93-1 1v-1h1Z"/><path fill="#08818B" id="VISli6b" d="M370 93c1.27 0 7 6.593 7 8-2.09 0-8-5.91-8-8h1Z"/><path fill="#C7C8CC" id="alv" d="m98 94-1 1 1-1Z"/><path fill="#CAC7CB" id="fiber tracts" d="M153 95h1v-1l-1 1Z"/><path fill="#C7CBCB" id="bsc" d="m155 94-1 1v-1h1Z"/><path fill="#CAC7CB" id="fiber tracts" d="m303 94 2 3-3-3h1Z"/><path fill="#C7C8CC" id="alv" d="m96 95-1 1 1-1Z"/><path fill="#C7CBCB" id="bsc" d="m154 95-1 1v-1h1Z"/><path fill="#FF8FFE" id="SCdw" d="m262 122-1 1c-1.454 0-1.433-5.366-2-6.5l-6-9c-4.938-9.876-13.679-7.09-20.5-10.5-8.509-4.254-27.525 5.55-31.5 13.5l-6 11.5h-1c0-36.525 68-37.7 68 0Z"/><path fill="#15AFB2" id="TEa6a" d="M50 145h6c0-10.039 6.756-20.013 11-28.5 1.117-2.234 3.325-7.5 6-7.5 0-1.626 4.11-8 6-8v-1c-1.634 0-4-2.635-4-4h-1c0 4.081-8.844 10.187-11 14.5-5.163 10.326-13 22.224-13 34.5Z"/><path fill="#C7C8CC" id="alv" d="M94 97h1v-1l-1 1Z"/><path fill="#C7CBCB" id="bsc" d="M151 98v1c1.577 0 2-1.762 2-3h-1l-1 2Z"/><path fill="#C7C8CC" id="alv" d="m94 97-1 1 1-1Z"/><path fill="#7ECF4B" id="CA1" d="M97 189c-5.316 0-18.684 10-26 10-2.76 0-4.025-9.55-5-11.5-5.744-11.487-5-25.619-5-39.5v-1c1.58 0 1-2.855 1-4l1-2v-2l1-2 1-2v-2l1-2 1-1v-1l1-2 1-1v-1l1-1 1-1v-1l1-1 1-2c1.577 0 2-1.762 2-3l1-1 1-1v-1c1.747 0 2-.253 2-2l1-1 1-1 2-2 2-2 2-2 1-1 1-1c1.747 0 2-.253 2-2l2-1 1-1h1c0 9.42 10 17.151 10 27l-6 7.5-8 18c-2.714 5.428-.451 26.097 2 31 1.49 2.98 4 4.87 4 8.5Z"/><path fill="#FC8FFF" id="PAG" d="m231 151 5.5-2 2.5 2 2-1 1-1 1-1 1-1 4-7.5c1.234-2.468 9.851-10.5 13-10.5v-6c-1.454 0-1.433-5.366-2-6.5l-6-9c-4.938-9.876-13.679-7.09-20.5-10.5-8.509-4.254-27.525 5.55-31.5 13.5l-6 11.5c0 2.409 1 5.181 1 7 3.042 0 17 14.634 17 19l5 3 3.5-2 3.5 2c0-1.048-.473-3 1-3v-2c0-7.373 1-15.242 1-22 0-2.564 2-2.564 2 0 0 7.37 2 14.947 2 23v4Z"/><path fill="#7ECF4B" id="CA1" d="m387 198-2 2-5.5-3c-1.697-.849-19.805-8-20.5-8l4-8.5c2.739-5.477 5.081-26.838 2-33l-7-15c-1.659-3.318-7-6.378-7-9.5 0-9.091 10-16.629 10-26 5.672 0 16.508 18 20 18v1l2 2v1l2 2v1c0 1.178 2.572 6 4 6v1l3 6v1l1 1v2c0 1.357.647 6 2 6v2l1 16.5c-2.196 4.392-3 13.495-3 18.5v1c-1.995 0-2 4.377-2 6-1.638 0-2 3.576-2 5l-2 4Z"/><path fill="#15AFB2" id="TEa6a" d="M400 145h6c0-14.69-8.918-24.336-15-36.5-1.217-2.435-5.919-11.5-9-11.5l-4 4c1.818 0 6.172 7.844 7 9.5 5.723 11.446 15 20.733 15 34.5Z"/><path fill="#C7C8CC" id="alv" d="m93 98-2 1 2-1Z"/><path fill="#CAC7CB" id="fiber tracts" d="m306 98 1 2-2-2h1Z"/><path fill="#C7C8CC" id="alv" d="m91 99-2 2c1.747 0 2-.253 2-2Z"/><path fill="#C7CBCB" id="bsc" d="M150 100v1l1-2h-1v1Z"/><path fill="#CAC7CB" id="fiber tracts" d="M149 101h1v-1h-1v1Z"/><path fill="#16B0B2" id="TEa6b" d="M73 109h1l5-7v-1c-1.89 0-6 6.374-6 8Z"/><path fill="#C7C8CC" id="alv" d="m89 101-1 1 1-1Z"/><path fill="#C7CBCB" id="bsc" d="M149 102v1l1-2h-1v1Z"/><path fill="#CAC7CB" id="fiber tracts" d="M309 102v1l-2-2 2 1Z"/><path fill="#16B0B2" id="TEa6b" d="M399 145h1c0-13.767-9.277-23.054-15-34.5-.828-1.656-5.182-9.5-7-9.5h-1c0 3.145 4 3.855 4 7 1.629 0 7 7.117 7 9l1 1 4 9v1c2.109 0 2 2.535 2 4v1l2 4 2 8Z"/><path fill="#C7C8CC" id="alv" d="m88 102-1 1 1-1Z"/><path fill="#CAC7CB" id="fiber tracts" d="M148 103h1v-1h-1v1Z"/><path fill="#C7C8CC" id="alv" d="M87 103c-1.747 0-2 .253-2 2l2-2Z"/><path fill="#CAC7CB" id="fiber tracts" d="m148 103-1 1v-1h1Z"/><path fill="#C7CBCB" id="bsc" d="M147 106v1l2-4h-1l-1 1v2Z"/><path fill="#C7C8CC" id="alv" d="M85 105c-1.747 0-2 .253-2 2l2-2Z"/><path fill="#CAC7CB" id="fiber tracts" d="m309 105 1 1-1-1ZM146 107h1v-1l-1 1Z"/><path fill="#C7C8CC" id="alv" d="M83 107c-1.747 0-2 .253-2 2l2-2Z"/><path fill="#C7CBCB" id="bsc" d="M144 116h1c0-.986 1.087-6 2-6v-3h-1v1l-1 1v2l-1 2v3Z"/><path fill="#CAC7CB" id="fiber tracts" d="m310 107 1 1-1-1ZM146 108l-1 1 1-1Z"/><path fill="#CCC8CA" id="ar" d="m392 126 1 1-4-9-1-1c0-1.883-5.371-9-7-9 0 4.206 6 6.794 6 11l2 2v1l2 2v1l1 1Z"/><path fill="#16B0B2" id="TEa6b" d="M56 145h1c.675 0 2-5.294 2-6l1-2c0-1.048-.473-3 1-3v-1l1-2c0-1.048-.473-3 1-3l2-4 1-3 1-1v-1l1-1 1-1 4-8c-2.675 0-4.883 5.266-6 7.5-4.244 8.487-11 18.461-11 28.5Z"/><path fill="#CCC8CA" id="ar" d="M69 117h1l1-1 1-2 1-1 2-2-1-2h-1l-4 8Z"/><path fill="#C7C8CC" id="alv" d="m81 109-1 1 1-1Z"/><path fill="#59B847" id="PRE" d="m127 111 8 1 4-2v-1h-10l-2 2Z"/><path fill="#7DCD4B" id="HPF" d="m140 109-1 1v-1h1Z"/><path fill="#FF64FF" id="MB" d="m309 109 1 1-1-1Z"/><path fill="#59B847" id="PRE" d="m329 111-8 1-4-2v-1h11l1 2Z"/><path fill="#C7C8CC" id="alv" d="m80 110-1 1 1-1Z"/><path fill="#7DCD4B" id="HPF" d="M135 112c0 1.481 2 .785 2 3 1.638 0 2-3.576 2-5l-4 2Z"/><path fill="#FF64FF" id="MB" d="M196 129c-8.709 0-24.464-2.018-32.5 2-2.289 1.144-6.892-3.554-10-2l-3.5 2c0-3.814-.68-7-5-7 0-1.747-.253-2-2-2l2-2c0 2.523 2.56-2 0-2v-2c0-.986 1.087-6 2-6v12.5c.886 1.772 8 4.331 8 1.5l9.5 5c4.903 2.452 7.319-4 9.5-4 3.404 0 9.822 2.839 13.5 1 1.564-.782 3.538-.269 5-1l1.5-3h1c0 2.409 1 5.181 1 7Z"/><path fill="#CAC7CB" id="fiber tracts" d="m311 110 1 1-1-1Z"/><path fill="#7DCD4B" id="HPF" d="m321 112-2 2-2-4 4 2Z"/><path fill="#CBC9C7" id="or" d="m75 111-2 2c0 2.206 2-.742 2-2Z"/><path fill="#C7C8CC" id="alv" d="m79 111-2 2c1.747 0 2-.253 2-2Z"/><path fill="#7BD04A" id="DG-mo" fill-rule="evenodd" d="m124 120-5.5 3c-3.844 1.922-12.039 11.579-13.5 14.5-7.79 15.581-10.14 30.719-2 47 2.805 5.61 9.158 9.317 12 15 2.457 4.914 10.106 15.5 15.5 15.5 5.07 0 3.678-14.143 2.5-16.5l-12-26c-2.102-4.203-1.862-9.724-4-14-3.748-7.496-.162-20.675 3-27 .685-1.37 9.471-11.5 4-11.5m2 101 3 2c5.247 0 15.156-9.188 12-15.5-6.58-13.159-8.003-32.007-14-44-2.091-4.183-5.7-16.6-3-22 3.918-7.835 13-17.259 13-26.5 0-2.215-2-1.519-2-3l-8-1-8 2-14 11-6 7.5-8 18c-2.714 5.428-.451 26.097 2 31 1.49 2.98 4 4.87 4 8.5l4.5 6c1.719.86 21.5 23.172 21.5 24 2.215 0 1.519 2 3 2Z"/><path fill="#CAC7CB" id="fiber tracts" d="m145 111-1 2 1-2Z"/><path fill="#7BD04A" id="DG-mo" fill-rule="evenodd" d="M331 120c0 5.688 5.122 11.745 8 17.5 4.659 9.317.276 26.448-4 35l-12 27c-.867 1.734-.08 4.161-1 6-.945 1.891 2.008 9.5 4.5 9.5 3.532 0 14.705-13.91 16.5-17.5l8-9c5.079-10.159 11.967-25.065 6-37v-4c-2.359-4.718-6.614-8.227-9-13-2.471-4.942-11.004-14.5-17-14.5m-4 103h2l1-2 3-2c0-.642 16.995-19.495 20-22.5l6-7.5 4-8.5c2.739-5.477 5.081-26.838 2-33l-7-15c-1.659-3.318-7-6.378-7-9.5-1.083 0-13-8.406-13-10-3.489 0-5.32-2-9-2l-8 1-2 2c0 9.349 7.17 13.84 11 21.5l3 10c1.431 2.861-2.726 16.452-4 19l-2 10c-5.382 10.763-6.614 23.228-12 34-2.631 5.261 7.426 14.5 12 14.5Z"/><path fill="#FF64FF" id="MB" d="M311 122h2l-1-3c-2.662 0 .662-7-2-7v8l1 2Z"/><path fill="#CBC9C7" id="or" d="M72 114c2.89 0-1 4.605-1 2l1-2Z"/><path fill="#C7C8CC" id="alv" d="m77 114-1 1 1-1ZM76 115l-1 1 1-1ZM75 116c-1.577 0-2 1.762-2 3 1.577 0 2-1.762 2-3Z"/><path fill="#CAC7CB" id="fiber tracts" d="M145 116v1l-1-1h1Z"/><path fill="#C7C8CC" id="alv" d="m381 116 2 2-2-2Z"/><path fill="#CCC8CA" id="ar" d="M68 119h1v-2l-1 1v1Z"/><path fill="#C8C9CA" id="fp" d="m70 117-1 1v-1h1Z"/><path fill="#CBC9C7" id="or" d="M57 153h2v-1c0-1.145-.58-4 1-4 0-1.145-.58-4 1-4v-1c0-2.383 1.535-12 4-12 0-1.465-.109-4 2-4 0-1.62 5.184-10 3-10l-1 1v1l-1 1c0 1.186-1 1.186-1 0l-1 1c2.373 0 0 2.284 0 3l-1 1c0 1.238-.423 3-2 3 0 1.048.473 3-1 3l-1 2v1c0 1.048.473 3-1 3l-1 2c0 .706-1.325 6-2 6v8ZM388 117l1 1-1-1Z"/><path fill="#CBC9C7" id="or" d="M67 119h1v-1l-1 1Z"/><path fill="#C7CBCB" id="bsc" d="M145 118c2.56 0 0 4.523 0 2v-2Z"/><path fill="#CCC8CA" id="ar" d="M67 120c0 1.186 1 1.186 1 0v-1h-1v1Z"/><path fill="#C8C9CA" id="fp" d="m69 119-1 1v-1h1Z"/><path fill="#C7C8CC" id="alv" d="m73 119-1 2 1-2ZM383 119l2 2-2-2Z"/><path fill="#C8C9CA" id="fp" d="m387 119 2 2-2-2Z"/><path fill="#65A83D" id="DG-sg" fill-rule="evenodd" d="M109 141c0 .798-6.13 16.76-7 18.5-3.976 7.952 7.885 26.771 11 33l10.5 13.5c.801.801 4.583 4.334 5.5 2.5 4.002-8.004-10.062-34.124-14-42-2.077-4.154-2.131-25.5-6-25.5m15-21-5.5 3c-3.844 1.922-12.039 11.579-13.5 14.5-7.79 15.581-10.14 30.719-2 47 2.805 5.61 9.158 9.317 12 15 2.457 4.914 10.106 15.5 15.5 15.5 5.07 0 3.678-14.143 2.5-16.5l-12-26c-2.102-4.203-1.862-9.724-4-14-3.748-7.496-.162-20.675 3-27 .685-1.37 9.471-11.5 4-11.5Z"/><path fill="#FF64FF" id="MB" d="m311 124-4 1 3-5c0 1.048-.473 3 1 3v1Z"/><path fill="#C7CBCB" id="bsc" d="M311 122v1c-1.473 0-1-1.952-1-3l1 2Z"/><path fill="#65A83D" id="DG-sg" fill-rule="evenodd" d="M345 141c0 20.226-7.658 35.816-16 52.5-1.604 3.209-5.413 13.043-.5 15.5 2.525 1.263 9.324-10.324 11-12 7.67-7.67 19.208-30.084 13.5-41.5-1.829-3.657-1.844-14.5-8-14.5m-14-21c0 5.688 5.122 11.745 8 17.5 4.659 9.317.276 26.448-4 35l-12 27c-.867 1.734-.08 4.161-1 6-.945 1.891 2.008 9.5 4.5 9.5 3.532 0 14.705-13.91 16.5-17.5l8-9c5.079-10.159 11.967-25.065 6-37v-4c-2.359-4.718-6.614-8.227-9-13-2.471-4.942-11.004-14.5-17-14.5Z"/><path fill="#CCC8CA" id="ar" d="M65 124h1c0-.716 2.373-3 0-3l-1 3Z"/><path fill="#C7C8CC" id="alv" d="m72 121-1 1 1-1Z"/><path fill="#C9C8C8" id="bic" d="m137 150-3 1v-3c0-3.531 1-7.893 1-12 1.361 0 2.379-6.258 3-7.5l5-6.5c1.747 0 2 .253 2 2 0 4.276-7 13.645-7 21l-1 1v4Z"/><path fill="#A9A9A8" id="AQ" d="M227 124h2c0-2.564-2-2.564-2 0Z"/><path fill="#FF64FF" id="MB" d="M261 129c15.179 0 30.721 1 45 1l1-5c-2.124 0-4.436-1-6-1-1.406 0-6.914 4.207-8.5 5-5.614 2.807-8.325-4-10.5-4-3.404 0-9.822 2.839-13.5 1-1.564-.782-3.538-.269-5-1l-1.5-3-1 1v6Z"/><path fill="#C9C8C8" id="bic" d="M319 149c1.481 0 .785 2 3 2v-4l-1-12c-2.614 0-2.646-13-8-13h-2v2l4 6.5c2.388 4.775 4 12.913 4 18.5Z"/><path fill="#C7C8CC" id="alv" d="M389 127v1c-1.428 0-4-4.822-4-6l4 5Z"/><path fill="#C8C9CA" id="fp" d="m389 122 2 2-2-2Z"/><path fill="#C7C8CC" id="alv" d="m71 123-1 1 1-1Z"/><path fill="#CCC8CA" id="ar" d="M65 125c0 1.238-.423 3-2 3l2-4v1Z"/><path fill="#C8C9CA" id="fp" d="m66 124-1 1v-1h1Z"/><path fill="#C7C8CC" id="alv" d="m70 124-1 1 1-1Z"/><path fill="#FE7AFD" id="NB" d="M137 146v4c0 2.89 5.323-.147 6-1.5.534-1.069 2.17-7.5 3-7.5l4-10c0-3.814-.68-7-5-7 0 4.276-7 13.645-7 21l-1 1Z"/><path fill="#FF64FF" id="MB" d="m226 146 5 1c0-8.053-2-15.63-2-23h-2c0 6.758-1 14.627-1 22Z"/><path fill="#FE7AFD" id="NB" d="M310 140c.83 0 2.466 6.431 3 7.5 1.019 2.038 6 6.226 6 1.5 0-5.587-1.612-13.725-4-18.5l-4-6.5-4 1-1 5 4 10Z"/><path fill="#C8C9CA" id="fp" d="m391 125 1 1-1-1Z"/><path fill="#C7C8CC" id="alv" d="m69 126-1 1 1-1Z"/><path fill="#C8CBCC" id="ec" d="M65 131h1l1-1v-3c-2.109 0-2 2.535-2 4Z"/><path fill="#C7C8CC" id="alv" d="m68 127-1 2v-2h1Z"/><path fill="#C8CBCC" id="ec" d="m395 147 2 2-4-17.5-3-4.5h-1v2l3 6v1l1 1v2c1.353 0 2 4.643 2 6v2Z"/><path fill="#CCC8CA" id="ar" d="M63 128c-1.473 0-1 1.952-1 3 1.473 0 1-1.952 1-3Z"/><path fill="#FF8FFD" id="MRN" d="M194 185c.892 0 9 2.819 9 0-5.153 0-7.328-1.914-11.5-4-21.781-10.89 2.148-32.852 19-16 2.881 2.881 5.5 4.902 5.5 9l6-7 1-2-1-5c-1.726 0-5-4.558-5-6v-1l-1-2-3-3c0-4.366-13.958-19-17-19-8.709 0-24.464-2.018-32.5 2-2.289 1.144-6.892-3.554-10-2l-3.5 2-4 10c0 12.185 12.585 40 27 40 0-6.528 15.336-.082 17.5 1l3.5 3ZM267 181c3.285 0 16-6.622 16 0 16.706 0 27-26.269 27-41l-4-10c-14.279 0-29.821-1-45-1-3.149 0-11.766 8.032-13 10.5l-4 7.5-1 1-1 1-1 1-1 2-1 2v1l-1 1-1 1c0 1.366-2.366 4-4 4v5l1 1c3.424 0 4.702 8 7 8 0-12.634 24.388-24.724 32-9.5 4.537 9.074-6 10.564-6 15.5Z"/><path fill="#CCC8CA" id="ar" d="M393 128c2.109 0 2 2.535 2 4l-2-4Z"/><path fill="#C7C8CC" id="alv" d="m389 129 3 6-3-6ZM67 130l-1 1 1-1Z"/><path fill="#CCC8CA" id="ar" d="m62 131-1 2 1-2Z"/><path fill="#C8CBCC" id="ec" d="M61 143h1l1-2v-2l1-2 1-2v-4c-2.465 0-4 9.617-4 12Z"/><path fill="#C7C8CC" id="alv" d="m66 131-1 2v-2h1Z"/><path fill="#FE7F82" id="MGd" d="m125 149 5.5-2 2.5 2 1-1c0-3.531 1-7.893 1-12 0-3.257-4.673-4.155-6-1.5-1.809 3.618-4 10.369-4 14.5ZM331 148l-4.5-1-2.5 2-2-2-1-12c1.317 0 1.788-3.356 4.5-2 3.663 1.831 5.5 11.353 5.5 15Z"/><path fill="#CCC8CA" id="ar" d="m395 133 2 4c-2.109 0-2-2.535-2-4ZM61 134c-1.473 0-1 1.952-1 3 1.473 0 1-1.952 1-3Z"/><path fill="#C7C8CC" id="alv" d="m65 135-1 2 1-2ZM392 136l1 1-1-1Z"/><path fill="#CCC8CA" id="ar" d="m60 137-1 2 1-2Z"/><path fill="#C7C8CC" id="alv" d="m64 137-1 2 1-2ZM393 139c1.353 0 2 4.643 2 6-1.353 0-2-4.643-2-6Z"/><path fill="#FF64FF" id="MB" d="m281 230 4 1c.857 0 8-6.221 8-7-3.975 0-.922-4.578.5-6l15-15c6.366-6.366 18.5-33.907 18.5-43l-2-2c-1.577 0-2-1.762-2-3v-1l-1-2v-1c-2.215 0-1.519-2-3-2 0 4.726-4.981.538-6-1.5-.534-1.069-2.17-7.5-3-7.5 0 14.731-10.294 41-27 41 0 3.065-4.257 16.622-9.5 14l-5.5-4 1 3.5c0 9.532-9.257.5-12 .5l12 10.5c.841 1.681 6.456 12.5 0 12.5l2 2.5-2 4.5c1.574 0 12-6.64 12-8-10.549 0-3-4.095-3-10l-2.5 2c-2.932 0-.099-8 2-8l1.5 3h1l2-4c0-1.041.986-5 2-5 0-8.757-1.648-10 8-10 4.465 0 11.464-6.982 15.5-9 2.675-1.338 4.5 4.329 4.5 6 0 7.407-1.971 12.443-5 18.5-3.256 6.512-10.806 8.653-16.5 11.5l-5.5 3c5.838 0-4 12.53-4 15Z"/><path fill="#C7C8CC" id="alv" d="m63 141-1 2 1-2Z"/><path fill="#7ECE4A" id="DG-po" d="M109 141c0 .798-6.13 16.76-7 18.5-3.976 7.952 7.885 26.771 11 33l10.5 13.5c.801.801 4.583 4.334 5.5 2.5 4.002-8.004-10.062-34.124-14-42-2.077-4.154-2.131-25.5-6-25.5Z"/><path fill="#FF64FF" id="MB" d="M176 230c-2.343 0-4 .285-4 3l-9-9c7.654 0-9.854-18.677-14.5-21-6.039-3.02-19.5-35.378-19.5-43l2-1 1-1 1-3 1-2v-2l3-1c0 2.89 5.323-.147 6-1.5.534-1.069 2.17-7.5 3-7.5 0 12.185 12.585 40 27 40 0 3.261 3.96 12.73 6.5 14 2.978 1.489 5.043-2 7.5-2 0 7.124 4.184 5 9 5l-9 7.5c-.709 1.418-4.744 12.5 0 12.5v7l-2.5-2c-1.923-.961-12.5-5.908-12.5-8l3.5 2h2.5c8.482 0 0-6.748 0-10l3.5 2c1.849 0-3.5-13.566-3.5-3h-1v-2l-1-1-1-3-2-5c0-7.79-1.343-10-8-10-5.201 0-11.947-6.723-16.5-9-2.093-1.046-4.5 4.863-4.5 6 0 6.501 2.288 13.076 5 18.5 3.026 6.052 11.517 9.008 16.5 11.5 1.311.656 5.5.797 5.5 3-5.449 0 5 13.3 5 15Z"/><path fill="#7ECE4A" id="DG-po" d="M345 141c0 20.226-7.658 35.816-16 52.5-1.604 3.209-5.413 13.043-.5 15.5 2.525 1.263 9.324-10.324 11-12 7.67-7.67 19.208-30.084 13.5-41.5-1.829-3.657-1.844-14.5-8-14.5Z"/><path fill="#C7C8CC" id="alv" d="M61 144v3c1.58 0 1-2.855 1-4h-1v1Z"/><path fill="#C8CBCC" id="ec" d="M60 148h1v-4c-1.58 0-1 2.855-1 4Z"/><path fill="#0D9E90" id="ECT5" d="m43 159 8 1-1-15H39v1c0 4.566 4 8.954 4 13Z"/><path fill="#0E9F91" id="ECT6a" d="M51 160h4l1-15h-6l1 15Z"/><path fill="#0E9F90" id="ECT6b" d="m57 159-2 1 1-15h1v14Z"/><path fill="#FF64FF" id="MB" d="m138 145-1 1 1-1Z"/><path fill="#0E9F90" id="ECT6b" d="M400 160h1c0-5.039-1-10.575-1-15h-1v7c1.735 0 1 6.51 1 8Z"/><path fill="#0E9F91" id="ECT6a" d="M405 160h1v-15h-6c0 4.425 1 9.961 1 15h4Z"/><path fill="#0D9E90" id="ECT5" d="M413 159h1c0-4.875 3-8.568 3-14h-11v15l7-1Z"/><path fill="#0D9F91" id="ECT2/3" d="M421 161h1c0-4.684 4-8.643 4-14l-7-1-2-1c0 5.432-3 9.125-3 14l7 2ZM35 161h1c2.16 0 4.167-2 7-2 0-4.046-4-8.434-4-13h-2l-7 1c0 4.389 5 11.202 5 14Z"/><path fill="#FE8FFC" id="EW" d="M229 155h2v-8l-5-1v9h3Z"/><path fill="#0D9F90" id="ECT1" d="m35 161-3 2-5-5.5-1-9.5 4-1c0 4.389 5 11.202 5 14Z"/><path fill="#FE7E83" id="MGv" d="m131 159-2 1c0-.945-4-6.223-4-11l5.5-2 2.5 2v6l-1 3-1 1Z"/><path fill="#FF64FF" id="MB" d="m244 147-1 1 1-1Z"/><path fill="#FD7F83" id="MGm" d="M323 155h1v-6l-2-2v5l1 2v1Z"/><path fill="#FE7E83" id="MGv" d="m325 158 2 2c4.405 0 4-8.969 4-12l-4.5-1-2.5 2v6l1 3Z"/><path fill="#C7C8CC" id="alv" d="M397 152c0 7.25 1.032 16.435-2 22.5-.736 1.471.357 7.5-2 7.5 0-5.005.804-14.108 3-18.5l-1-16.5 2 2v3Z"/><path fill="#0D9F90" id="ECT1" d="M422 161c0 1.577 1.762 2 3 2 0-2.727 2.771-2.042 4-4.5l2-10.5-5-1c0 5.357-4 9.316-4 14Z"/><path fill="#C8CBCC" id="ec" d="M60 148c-1.58 0-1 2.855-1 4 1.58 0 1-2.855 1-4Z"/><path fill="#C7C8CC" id="alv" d="m94 231 3 2-8.5-9c-6.056-6.056-17.5-16.588-17.5-25-2.76 0-4.025-9.55-5-11.5-5.744-11.487-5-25.619-5-39.5h-1c0 1.145.58 4-1 4v1c0 21.373 6.198 37.895 15 55.5 2.054 4.108 20 20.565 20 22.5Z"/><path fill="#FD7F83" id="MGm" d="M133 153h1v-5l-1 1v4Z"/><path fill="#FF64FF" id="MB" d="m217 154 2 1-1-4-5-3 3 3 1 2v1ZM225 151l1 2v-5c-1.473 0-1 1.952-1 3ZM243 148l-1 1 1-1Z"/><path fill="#FE90FF" id="III" d="m226 157-3 1-3-1-1-1v-1l-1-4 3.5-2 3.5 2 1 2v4ZM234 158h1l1-1 1-1 1-1c0-1.048-.473-3 1-3v-1l-2.5-2-5.5 2v4c0 2.747.253 3 3 3Z"/><path fill="#FF64FF" id="MB" d="m242 149-1 1 1-1ZM239 152h1l1-2-2 1v1Z"/><path fill="#CBCBCC" id="mlf" d="m216 151 1 2-1-2Z"/><path fill="#FF64FF" id="MB" d="M238 155h1v-3c-1.473 0-1 1.952-1 3Z"/><path fill="#CBCBCC" id="mlf" d="m240 152-1 2v-2h1Z"/><path fill="#FF6F80" id="TH" d="m322 152 1 2-1-2Z"/><path fill="#C8CBCC" id="ec" d="M387 198v3c2.47 0 3.265-5.03 4-6.5 3.544-7.087 8-17.241 8-25.5v-1c0-1.49-.735-8 1-8 0-1.49.735-8-1-8 0 1.93-1.161 0-2 0 0 7.25 1.032 16.435-2 22.5-.736 1.471.357 7.5-2 7.5v1c0 1.357-.647 6-2 6 0 1.424-.362 5-2 5 0 1.465.109 4-2 4ZM86 225l8 6c0-1.935-17.946-18.392-20-22.5-8.802-17.605-15-34.127-15-55.5h-2v15l1 2c0 14.612 8.915 26.329 15 38.5 2.339 4.678 13 11.347 13 16.5Z"/><path fill="#FF6F80" id="TH" d="m134 153-1 2v-2h1Z"/><path fill="#CBCBCC" id="mlf" d="M223 158c0 1.424 2.924 4 1.5 4l-2.5-2c-1.726 0-5-4.558-5-6l2 1v1l1 1 3 1Z"/><path fill="#FF64FF" id="MB" d="m227 155-1 1v-1h1Z"/><path fill="#FEA6FF" id="RL" d="M225 166c3.207 0 .688 2.094 2.5 3l3.5-3v-3c-.689 0-2-7.178-2-8h-2l-1 1v1c0 1.406.714 7-1 7v2Z"/><path fill="#FF64FF" id="MB" d="m231 163 2 1v-3c-5.173 0 1-.827 1-3-2.747 0-3-.253-3-3h-2c0 .822 1.311 8 2 8ZM237 156h1v-1l-1 1Z"/><path fill="#CBCBCC" id="mlf" d="m239 155-1 1v-1h1Z"/><path fill="#FF6F80" id="TH" d="m324 155 1 3c-1.577 0-2-1.762-2-3h1Z"/><path fill="#FF64FF" id="MB" d="m219 156 1 1-1-1ZM236 157h1v-1l-1 1Z"/><path fill="#CBCBCC" id="mlf" d="m238 156-1 1v-1h1Z"/><path fill="#FF64FF" id="MB" d="M225 164c0-2.336-1.286 1-2 1l-1-5 2.5 2c1.424 0-1.5-2.576-1.5-4l3-1c0 1.406.714 7-1 7ZM236 157l-1 1 1-1Z"/><path fill="#CBCBCC" id="mlf" d="M234 158h1l1-1h1c0 1.366-2.366 4-4 4-5.173 0 1-.827 1-3Z"/><path fill="#FF6F80" id="TH" d="m132 158-1 1 1-1Z"/><path fill="#0E9583" id="PERI2/3" d="m43 172-8 1 2-2.5c1.386-2.772-1-7.269-1-9.5 2.16 0 4.167-2 7-2l3 12c-1.048 0-3-.473-3 1Z"/><path fill="#0F9684" id="PERI5" d="M46 171h3l3-1-1-10-8-1 3 12Z"/><path fill="#0E9683" id="PERI6b" d="M55 160c0 .706 1.325 6 2 6v-7l-2 1Z"/><path fill="#FE90FD" id="RN" d="m207 183-4 2c-5.153 0-7.328-1.914-11.5-4-21.781-10.89 2.148-32.852 19-16 2.881 2.881 5.5 4.902 5.5 9v1l-1 1v1c-1.747 0-2 .253-2 2-1.238 0-3 .423-3 2-1.238 0-3 .423-3 2ZM247 181c3.449 0 6.731 6.384 11.5 4 2.844-1.422 5.045-4 8.5-4 0-4.936 10.537-6.426 6-15.5-7.612-15.224-32-3.134-32 9.5v1l5 5h1Z"/><path fill="#0F9684" id="PERI5" d="M408 171h2c0-4.091 3-7.605 3-12l-7 1h-1c0 3.325-1 7.31-1 10l4 1Z"/><path fill="#0E9583" id="PERI2/3" d="m413 172 8 1-2-2.5c-1.784-3.567 2-7.072 2-9.5l-7-2h-1c0 4.395-3 7.909-3 12 1.048 0 3-.473 3 1Z"/><path fill="#0E9684" id="PERI6a" d="M52 170h1l4-1v-3c-.675 0-2-5.294-2-6h-4l1 10Z"/><path fill="#0E9683" id="PERI6b" d="M401 160c0 .981-1.184 8-2 8 0-1.49-.735-8 1-8h1Z"/><path fill="#0E9684" id="PERI6a" d="M403 170h1c0-2.69 1-6.675 1-10h-4c0 .981-1.184 8-2 8v1l4 1Z"/><path fill="#0E9584" id="PERI1" d="m35 173-6 1 4-6.5-1-4.5 3-2h1c0 2.231 2.386 6.728 1 9.5l-2 2.5ZM421 173l7 1-4-5.5c-.978-1.956 1-4.077 1-5.5-1.238 0-3-.423-3-2h-1c0 2.428-3.784 5.933-2 9.5l2 2.5Z"/><path fill="#C8C8C8" id="mtg" d="m221 179-3 2c0-4.837 4-8.832 4-14l1-2c.714 0 2-3.336 2-1v2c0 2.765-2 5.165-2 7v2l-1 1-1 1v2ZM236 180l2 1-4-14-1-1v-2l-2-1v3c0 3.066 2 4.417 2 7l2 4v1l1 1v1Z"/><path fill="#CACAC7" id="dtd" d="M231 173h2c0-2.583-2-3.934-2-7l-3.5 3c-1.812-.906.707-3-2.5-3 0 2.765-2 5.165-2 7h8Z"/><path fill="#FF64FF" id="MB" d="m233 166 1 1-1-1Z"/><path fill="#C8C8CC" id="tspc" d="m210 182-1 1-1 2.5c0 7.455 9.707-4.5 10-4.5 0-4.837 4-8.832 4-14l-6 7v1l-1 1v1l-2 2-2 2-1 1ZM247 182l1 1c0 12.255-6.021-2-10-2l-4-14c3.424 0 4.702 8 7 8v1l2 3c0 1.712 2.571 3 4 3Z"/><path fill="#0E9683" id="PERI6b" d="m57 169 1 1-1-2v1Z"/><path fill="#32B824" id="ENTl6a" d="M81 227h1l4-2c0-5.153-10.661-11.822-13-16.5-6.085-12.171-15-23.888-15-38.5l-1-1-4 1c0 15.377 7.65 25.802 14 38.5 2.166 4.332 14 14.557 14 18.5ZM370 225l5 2 16-20.5c6.013-12.025 12-21.868 12-36.5l-4-1c0 8.259-4.456 18.413-8 25.5-.735 1.47-1.53 6.5-4 6.5 0 1.238-.423 3-2 3l-1 2-1 1v1l-1 1-1 1v1l-1 1-1 1c0 1.238-.423 3-2 3l-1 1-1 1v1l-2 2-2 2-1 2Z"/><path fill="#31B824" id="ENTl5" d="M81 227c0 2.273-5.226 2-7 2-4.29 0-6.315-8.408-9.5-10-2.015-1.008-2.344-3.344-4-5C48.199 201.699 49 187.293 49 171l3-1h1c0 15.377 7.65 25.802 14 38.5 2.166 4.332 14 14.557 14 18.5ZM382 230h1c0-1.896 16.068-18.635 18-22.5 6.788-13.576 7-21.171 7-36.5l-4-1h-1c0 14.632-5.987 24.475-12 36.5L375 227v1c1.296 0 7 .825 7 2Z"/><path fill="#32B725" id="ENTl3" d="m74 230-7 3c0-.493-12.28-12.061-14-15.5-4.543-9.086-7.479-18.958-12-28-2.53-5.059 2-12.551 2-17.5 0-1.473 1.952-1 3-1h3c0 16.293-.801 30.699 11.5 43 1.656 1.656 1.985 3.992 4 5 3.185 1.592 5.21 10 9.5 10v1ZM383 230l6 3c0-1.76 4.288-3.394 5.5-4l8.5-10.5 12-27c2.795-5.591-2-14.541-2-19.5 0-1.473-1.952-1-3-1h-2c0 15.329-.212 22.924-7 36.5-1.932 3.865-18 20.604-18 22.5Z"/><path fill="#32B825" id="ENTl2" d="m67 234-8 2c-7.488 0-11.44-9.379-14-14.5-4.839-9.677-7.184-20.369-12-30-2.74-5.481 2-13.849 2-18.5l8-1c0 4.949-4.53 12.441-2 17.5 4.521 9.042 7.457 18.914 12 28 1.72 3.439 14 15.007 14 15.5v1Z"/><path fill="#FF64FF" id="MB" d="M230 173c0 1.238-5.44 2-7 2v-2h7Z"/><path fill="#32B825" id="ENTl2" d="m389 234 8 2c13.476 0 21.341-33.182 26-42.5 1.003-2.005-.056-4.888 1-7 2.157-4.313-3-9.958-3-13.5l-8-1c0 4.959 4.795 13.909 2 19.5l-12 27-8.5 10.5c-1.212.606-5.5 2.24-5.5 4v1Z"/><path fill="#32B722" id="ENTl1" d="m59 237-8 1-8-9.5c-6.193-12.386-8.83-26.66-15-39-.992-1.985-2.128-15.5 1-15.5l6-1c0 4.651-4.74 13.019-2 18.5 4.816 9.631 7.161 20.323 12 30 2.56 5.121 6.512 14.5 14 14.5v1Z"/><path fill="#FFA4FF" id="CLI" d="M229 192c.986 0 6 2.515 6 0l2-1.5c1.514-3.028-1-7.882-1-10.5v-1l-1-1v-1l-4-4h-1c0 1.238-5.44 2-7 2l-1 1-1 1v2c0 3.027-3.839 6.821-2 10.5l2 2.5h6c0-1.399 2-1.399 2 0Z"/><path fill="#FF64FF" id="MB" d="m233 173 2 4-4-4h2Z"/><path fill="#32B722" id="ENTl1" d="M397 237c2.707 0 5.903 1 8 1 4.386 0 8.61-11.719 10-14.5 5.763-11.526 8.29-24.58 14-36 1.799-3.599-1-10.356-1-13.5l-7-1c0 3.542 5.157 9.187 3 13.5-1.056 2.112.003 4.995-1 7-4.659 9.318-12.524 42.5-26 42.5v1Z"/><path fill="#FF8FFD" id="MRN" d="m216 175-1 1 1-1Z"/><path fill="#FF64FF" id="MB" d="m223 175-1 1 1-1Z"/><path fill="#FF8DFD" id="SNr" d="M171 215h1l3.5 2h2.5c8.482 0 0-6.748 0-10v-1h-1c0 2.229-9.244 6.988-4-3.5l2-2.5-2-5c-5.796 0-8-6.502-8-10-5.201 0-11.947-6.723-16.5-9-2.093-1.046-4.5 4.863-4.5 6 0 6.501 2.288 13.076 5 18.5 3.026 6.052 11.517 9.008 16.5 11.5 1.311.656 5.5.797 5.5 3Z"/><path fill="#FF64FF" id="MB" d="m222 176-1 1 1-1Z"/><path fill="#FF8FFD" id="MRN" d="m243 179 3 2-5-5 2 3Z"/><path fill="#FF8DFD" id="SNr" d="m283 216-2 1c-10.549 0-3-4.095-3-10 1.473 0 1-1.952 1-3h1v3c0 1.748 4.168 3.164 5 1.5.968-1.937-1.388-8.5-3-8.5 0-1.041.986-5 2-5 4.286 0 8-6.052 8-10 4.465 0 11.464-6.982 15.5-9 2.675-1.338 4.5 4.329 4.5 6 0 7.407-1.971 12.443-5 18.5-3.256 6.512-10.806 8.653-16.5 11.5l-5.5 3-2 1Z"/><path fill="#FF8FFD" id="MRN" d="M215 177c-1.747 0-2 .253-2 2l2-2Z"/><path fill="#FD8FFF" id="RR" d="m188 192-1 1c-2.457 0-4.522 3.489-7.5 2-2.54-1.27-6.5-10.739-6.5-14 0-6.528 15.336-.082 17.5 1l3.5 3-1 4-2 1-1 1h-1l-1 1Z"/><path fill="#FF64FF" id="MB" d="m235 178 1 1-1-1Z"/><path fill="#FD8FFF" id="RR" d="M267 191h1l5.5 4c5.243 2.622 9.5-10.935 9.5-14 0-6.622-12.715 0-16 0l-4 4c0 4.629 4 4.723 4 6Z"/><path fill="#FF8FFD" id="MRN" d="M210 181h1l2-2c-1.238 0-3 .423-3 2Z"/><path fill="#FF64FF" id="MB" d="m216 217-1 2c0-2.109-2.535-2-4-2 0-3.066-4.049-21.775-6.5-23l-4.5 1c0-2.677 5-3.465 5-4.5 0-1.482-10.339-1.5-12-1.5l1-4c.892 0 9 2.819 9 0 1.465 0 4 .109 4-2h2l-1 2.5c0 7.455 9.707-4.5 10-4.5l3-2c0 3.027-3.839 6.821-2 10.5l2 2.5c-5.243 0 0 9.901 0 11l-1 4-1 1-3 9ZM247 181v1c-1.429 0-4-1.288-4-3l3 2h1Z"/><path fill="#FF64FF" id="MB" d="M241 218h5c0-2.895 3.091-22.296 4.5-23 2.579-1.289 2.906 0 5.5 0 0-2.396-4-3.752-4-4.5l2.5-.5c5.037-2.518 7.963 1 12.5 1 0-1.277-4-1.371-4-6-2.421 0-6.678 2.411-9.5 1l-5.5-3c0 12.255-6.021-2-10-2l-2-1c0 2.618 2.514 7.472 1 10.5l-2 1.5c3.45 0 2.522 11 0 11l2 5 4 9v1Z"/><path fill="#FF8FFD" id="MRN" d="M207 183h2l1-1v-1c-1.238 0-3 .423-3 2Z"/><path fill="#FF64FF" id="MB" d="m211 181-1 1v-1h1Z"/><path fill="#FF8FFD" id="MRN" d="m248 183 5.5 3c2.822 1.411 7.079-1 9.5-1l4-4c-3.455 0-5.656 2.578-8.5 4-4.769 2.384-8.051-4-11.5-4v1l1 1Z"/><path fill="#FF64FF" id="MB" d="m210 182-1 1 1-1Z"/><path fill="#FF8FFD" id="MRN" d="m207 183-4 2c1.465 0 4 .109 4-2Z"/><path fill="#C7C8CC" id="alv" d="M393 183c-1.995 0-2 4.377-2 6 1.353 0 2-4.643 2-6Z"/><path fill="#FFA6FD" id="SNc" d="M165 185c6.657 0 8 2.21 8 10-5.796 0-8-6.502-8-10ZM292 185c-9.648 0-8 1.243-8 10 4.286 0 8-6.052 8-10Z"/><path fill="#57B947" id="ProS" d="m98 233 3 1 17.5-11 4.5-4c0-.828-19.781-23.14-21.5-24l-4.5-6c-5.316 0-18.684 10-26 10 0 8.412 11.444 18.944 17.5 25l8.5 9h1Z"/><path fill="#FF64FF" id="MB" d="m193 189-2 1 2-1Z"/><path fill="#C8C8CB" id="rust" d="m197 197-1 1c-4.816 0-9 2.124-9-5l1-1 1-1h1l1-1 2-1c1.661 0 12 .018 12 1.5 0 1.035-5 1.823-5 4.5-1.238 0-3 .423-3 2ZM256 195h1c2.743 0 12 9.032 12-.5l-1-3.5h-1c-4.537 0-7.463-3.518-12.5-1l-2.5.5c0 .748 4 2.104 4 4.5Z"/><path fill="#57B947" id="ProS" d="M356 234h1l2-1 2-2 2-1 1-1 1-1 1-1 1-1 1-1 1-1 1-1 1-1 1-1 1-1v-1l2-2 1-1 1-1v-1l1-1 1-1 1-1 1-2c0-1.238.423-3 2-3l1-2 1-2v-2l-5.5-3c-1.697-.849-19.805-8-20.5-8l-6 7.5c-3.005 3.005-20 21.858-20 22.5 5.134 0 16.637 15 23 15Z"/><path fill="#C7C8CC" id="alv" d="M391 189c-1.638 0-2 3.576-2 5 1.638 0 2-3.576 2-5Z"/><path fill="#FF64FF" id="MB" d="m191 190-1 1 1-1ZM189 191l-1 1 1-1ZM227 192h2c0-1.399-2-1.399-2 0ZM188 192l-1 1 1-1Z"/><path fill="#FFA6FF" id="IF" d="m230 200 5 3c2.522 0 3.45-11 0-11 0 2.515-5.014 0-6 0h-8c-5.243 0 0 9.901 0 11l6-3h3Z"/><path fill="#FFC295" id="PRNr" d="M187 218c7.339 0 14.055 8 22 8 0-2.526 2-5.577 2-9 0-3.066-4.049-21.775-6.5-23l-4.5 1c0 1.577-1.762 2-3 2l-1 1-9 7.5c-.709 1.418-4.744 12.5 0 12.5ZM269 218c-6.057 0-13.695 8-21 8-3.461 0-2-6.912-2-8 0-2.895 3.091-22.296 4.5-23 2.579-1.289 2.906 0 5.5 0h1l12 10.5c.841 1.681 6.456 12.5 0 12.5Z"/><path fill="#C7C8CC" id="alv" d="m389 194-2 4c2.109 0 2-2.535 2-4Z"/><path fill="#FF64FF" id="MB" d="M200 195c-1.238 0-3 .423-3 2 1.238 0 3-.423 3-2ZM197 197l-1 1 1-1Z"/><path fill="#C7C8CC" id="alv" d="m387 201-2 1v-2l2-2v3Z"/><path fill="#FFA6FD" id="SNc" d="M177 204v2c0 2.229-9.244 6.988-4-3.5l2-2.5 1 3 1 1Z"/><path fill="#FEA4FF" id="IPDM" d="M220 208h1c3.744 0 6-4.86 6-8l-6 3-1 4v1Z"/><path fill="#FEA6FE" id="IPA" d="M224 215h9l2-7c-3.899 0-5-4.847-5-8h-3c0 3.14-2.256 8-6 8l2 7h1Z"/><path fill="#FEA4FF" id="IPDM" d="M235 208h2l-2-5-5-3c0 3.153 1.101 8 5 8Z"/><path fill="#FFA6FD" id="SNc" d="M282 200c1.612 0 3.968 6.563 3 8.5-.832 1.664-5 .248-5-1.5v-3l2-4Z"/><path fill="#C8C8CB" id="rust" d="m279 204-1.5-3c-2.099 0-4.932 8-2 8l2.5-2c1.473 0 1-1.952 1-3Z"/><path fill="#C8CBCC" id="ec" d="M385 202v2c1.577 0 2-1.762 2-3l-2 1Z"/><path fill="#C8C8CB" id="rust" d="M178 206v1l3.5 2c1.849 0-3.5-13.566-3.5-3Z"/><path fill="#C7C8CC" id="alv" d="M384 204h1v-2l-1 2Z"/><path fill="#FF8DFD" id="SNr" d="m176 203 1 1-1-1Z"/><path fill="#C7C8CC" id="alv" d="M383 206h1v-2l-1 2Z"/><path fill="#C8CBCC" id="ec" d="m385 204-1 2v-2h1Z"/><path fill="#C7C8CC" id="alv" d="M381 209h1l1-1v-2c-1.577 0-2 1.762-2 3Z"/><path fill="#C8CBCC" id="ec" d="m384 206-1 1v-1h1Z"/><path fill="#FFA6FE" id="IPN" d="M219 208h1v-1l-1 1Z"/><path fill="#FDA6FE" id="IPDL" d="M218 218h1c0-1.579 2.855-1 4-1v-2l-2-7h-2l-3 9 2 1ZM240 217h1l-4-9h-2l-2 7 1 2 4 1 2-1Z"/><path fill="#C8CBCC" id="ec" d="m383 208-1 1 1-1Z"/><path fill="#C7C8CC" id="alv" d="M380 211h1v-2l-1 2Z"/><path fill="#C8CBCC" id="ec" d="m382 209-1 1v-1h1Z"/><path fill="#C7C8CC" id="alv" d="M379 212h1v-1l-1 1Z"/><path fill="#C8CBCC" id="ec" d="m381 211-1 1v-1h1Z"/><path fill="#C7C8CC" id="alv" d="M378 213h1v-1l-1 1Z"/><path fill="#C8CBCC" id="ec" d="m380 212-1 1v-1h1Z"/><path fill="#C7C8CC" id="alv" d="m378 213-1 1 1-1Z"/><path fill="#C8CBCC" id="ec" d="M377 215v1c1.577 0 2-1.762 2-3h-1l-1 1v1Z"/><path fill="#CCCAC7" id="cpd" d="M194 230c0 4.43-7.71 2-12 2-2.483 0-4.026-2-6-2 0-1.7-10.449-15-5-15h1c0 2.092 10.577 7.039 12.5 8l2.5 2h1l1 1 1 1 2 2h1l1 1Z"/><path fill="#FFA6FE" id="IPN" d="m224 215-1 1v-1h1Z"/><path fill="#FFA5FE" id="IPC" d="M228 230h1c1.145 0 4 .579 4-1v-1l1-11-1-2h-9l-1 1v11l1 3h4Z"/><path fill="#FF64FF" id="MB" d="m285 215-2 1 2-1Z"/><path fill="#CCCAC7" id="cpd" d="M261 231c0 3.133 11.423 1 13 1l7-2c0-2.47 9.838-15 4-15l-2 1-2 1c0 1.36-10.426 8-12 8l-1 1-1 1h-1l-1 1-1 1h-1l-1 1-1 1Z"/><path fill="#C7C8CC" id="alv" d="M376 216h1v-1l-1 1Z"/><path fill="#FF64FF" id="MB" d="m283 216-2 1 2-1Z"/><path fill="#C7C8CC" id="alv" d="M375 217h1v-1l-1 1Z"/><path fill="#C8CBCC" id="ec" d="m377 216-1 1v-1h1Z"/><path fill="#FF9B88" id="P" d="M179 273c0 2.46 13.866 4 17 4h17.5c.717-.358 14.772-4 15-4l3 2 18 2H266c1.041 0 5-.986 5-2-4.476 0 8-10.707 8-14l-3 3.5c-1.562 3.124-6.791 6.145-9.5 7.5l-12 1h-16c-10.515-5.257-7.5-27.332-7.5-37 0-5.404 6.167-5 10-5l3.5-4c1.046-.523 3.5.951 3.5-1-3.461 0-2-6.912-2-8h-5c0 4.175-.208 11-6 11h-2c0 1.579-2.855 1-4 1 0 1.186-1 1.186-1 0h-4l-2-1c-5.464 0-7-5.414-7-10 0-2.109-2.535-2-4-2 0 3.423-2 6.474-2 9l7 5c5.1 0 9 .381 9 6 0 17.841 1.758 19.984-6 35.5l-9.5.5c-7.818 0-23.522 1.456-27.5-6.5-3.889-7.777-11.31-16.38-7-25 .827-1.655-.882-3.309 1.5-4.5 2.116-1.058 2.898 2 4.5 2 0-2.711 8.459-5 11-5 0-1.486 3-1.486 3 0l5-1-6-3c0 4.43-7.71 2-12 2 0 .695-8.108 2-9 2 0 3.447.876 9-4 9 0 6.47 9.025 18.551 12 24.5 1.134 2.267 7.478 4.044 6 7-.614 1.227-6.67-1.5-8-1.5Z"/><path fill="#FEA5FF" id="IPL" d="M222 227v2c-5.464 0-7-5.414-7-10l1-2 2 1 1 1c0 1.93.84 8 3 8Z"/><path fill="#FEA6FD" id="IPI" d="M222 227h1v-10c-1.145 0-4-.579-4 1v1c0 1.93.84 8 3 8ZM235 227l-2 1 1-11 4 1c0 3.078-3 6.325-3 9Z"/><path fill="#FEA5FF" id="IPL" d="M235 227v2c5.792 0 6-6.825 6-11l-1-1-2 1c0 3.078-3 6.325-3 9Z"/><path fill="#FFA6FE" id="IPN" d="M241 217v1l-1-1h1Z"/><path fill="#C7C8CC" id="alv" d="M373 219h2v-2l-2 2Z"/><path fill="#C8CBCC" id="ec" d="m376 217-1 1v-1h1Z"/><path fill="#CACCC8" id="ml" d="M219 238c0 3.746-4.21 3-7 3-4.844 0-5.302-8-12-8l-6-3-1-1h-1l-2-2-1-1-1-1h-1v-7c7.339 0 14.055 8 22 8l7 5c0 2.933 3 3.735 3 7Z"/><path fill="#FFA6FE" id="IPN" d="M219 218v1l-1-1h1Z"/><path fill="#CACCC8" id="ml" d="M237 238c0 3.348 4.824 3 7 3 4.995 0 6.334-8 13-8l4-2 1-1 1-1h1l1-1 1-1h1l1-1 1-1 2-4.5-2-2.5c-6.057 0-13.695 8-21 8 0 1.951-2.454.477-3.5 1l-3.5 4c0 2.51-4 3.687-4 7Z"/><path fill="#33B931" id="HATA" d="M118 249c1.048 0 3-.473 3 1 2.452 0 7-20.261 7-24l-2-5c-1.481 0-.785-2-3-2l-4.5 4-17.5 11-1 1 5 5 4 3 5 4c1.465 0 4-.109 4 2ZM335 249h3l5-3c1.947 0 2.636-3 5-3l3-3 5-5v-1c-6.363 0-17.866-15-23-15l-3 2-1 2-1 2c0 6.236 2.343 14.186 5 19.5.685 1.37-.871 4.5 2 4.5Z"/><path fill="#C8CBCC" id="ec" d="M373 220v1l2-2h-2v1Z"/><path fill="#C7C8CC" id="alv" d="M372 221h1v-1l-1 1Z"/><path fill="#7DCD4B" id="HPF" d="M129 223c0 1.048.473 3-1 3l-2-5 3 2ZM330 221l-1 2 1-2Z"/><path fill="#C8CBCC" id="ec" d="M371 222v1l2-2h-1l-1 1Z"/><path fill="#C7C8CC" id="alv" d="M370 223h1v-1l-1 1Z"/><path fill="#F0F080" id="CB" d="m147 235 3 2 1-8.5 4-3.5c-2.606 0-2.4-.95-4.5-2-9.35-4.675-3.5 7.747-3.5 12Z"/><path fill="#C9C9CB" id="ll" d="M173 234c0 3.447.876 9-4 9-1.553 0-13-15.737-13-18 0-2.719 7-2.745 7-1l9 9 1 1ZM283 235c0 3.148-.063 8 4 8 4.256 0 11.68-17 14-17v-1l-1.5-2c-2.161-1.081-4.894 1-6.5 1 0 .779-7.143 7-8 7l-1 3-1 1Z"/><path fill="#F0F080" id="CB" d="m310 235-3 2c-1.914 0-.087-11-6-11v-1c.669 0 12-3.772 12-1.5 0 .955-3.414 5.829-4 7l1 4.5Z"/><path fill="#7DCD4B" id="HPF" d="m329 223-1 2-1-2h2Z"/><path fill="#C8CBCC" id="ec" d="M369 225h1l1-2h-1l-1 1v1Z"/><path fill="#C7C8CC" id="alv" d="M368 225h1v-1l-1 1Z"/><path fill="#32B623" id="ENTm6" d="m100 235 5 5c-5.593 0-23-6.682-23-13l4-2 8 6 3 2 1 1 2 1Z"/><path fill="#CCCCCA" id="mcp" d="M178 273h1c1.33 0 7.386 2.727 8 1.5 1.478-2.956-4.866-4.733-6-7-2.975-5.949-12-18.03-12-24.5-1.553 0-13-15.737-13-18h-1l-4 3.5-1 8.5c0 6.028 6 14.198 6 16l1 1 2 3v1l4 4 1 1 1 1 1 1 1 1 1 1 2 2h1l1 1 3 1 3 2Z"/><path fill="#FF64FF" id="MB" d="m188 225 1 1-1-1ZM269 225l-1 1 1-1Z"/><path fill="#C8CBCC" id="ec" d="M367 226v1l2-2h-1l-1 1Z"/><path fill="#32B623" id="ENTm6" d="M356 235h1l1-1 1-1c1.747 0 2-.253 2-2l2-1 1-1h1l2-2 2-2h1l5 2v1l-8.5 7c-5.657 2.828-8.505 5-15.5 5l5-5Z"/><path fill="#FF64FF" id="MB" d="m268 226-1 1 1-1Z"/><path fill="#CCCCCA" id="mcp" d="M275 274c-1.145 0-4-.579-4 1-4.476 0 8-10.707 8-14 2.341 0 1.421-2.342 2-3.5l6-14.5c4.256 0 11.68-17 14-17 5.913 0 4.086 11 6 11 0 3.502-7 16.288-7 17l-1 1-1 1v1l-1 1-1 1-1 1-7 7-1 1-1 1h-1l-1 1-1 1h-1l-1 1h-1l-1 1h-2l-2 1Z"/><path fill="#C7C8CC" id="alv" d="M366 227h1v-1l-1 1Z"/><path fill="#30B724" id="ENTm5" d="m105 240 4 3c-3.756 0-9.859 4.321-14.5 2-5.267-2.633-9.573-7.286-15-10l-5.5-5v-1c1.774 0 7 .273 7-2h1c0 6.318 17.407 13 23 13Z"/><path fill="#FF64FF" id="MB" d="m190 227 2 2-2-2Z"/><path fill="#FFA6FE" id="IPN" d="m222 229 2 1-1-3h-1v2ZM233 229h2v-2l-2 1v1Z"/><path fill="#FF64FF" id="MB" d="m266 227-1 1 1-1Z"/><path fill="#C8CBCC" id="ec" d="M365 228v1l2-2h-1l-1 1Z"/><path fill="#FF64FF" id="MB" d="m265 228-1 1 1-1Z"/><path fill="#C7C8CC" id="alv" d="M364 229h1v-1l-1 1Z"/><path fill="#30B724" id="ENTm5" d="m351 240-3 3c3.535 0 9.886 4.307 14.5 2 4.275-2.138 7.61-5.805 12-8l7.5-7c0-1.175-5.704-2-7-2l-8.5 7c-5.657 2.828-8.505 5-15.5 5Z"/><path fill="#FF64FF" id="MB" d="m193 229 1 1-1-1ZM263 229l-1 1 1-1Z"/><path fill="#C8CBCC" id="ec" d="m364 229-1 1 1-1Z"/><path fill="#31B723" id="ENTm3" d="m109 243 5 4c-5.168 0-12.445 6.028-18.5 3-4.112-2.056-8.887-2.944-13-5l-8-6-7.5-5v-1l7-3 5.5 5c5.427 2.714 9.733 7.367 15 10 4.641 2.321 10.744-2 14.5-2Z"/><path fill="#FF9B88" id="P" d="m262 230-1 1 1-1Z"/><path fill="#C7C8CC" id="alv" d="m363 230-2 1 2-1Z"/><path fill="#31B723" id="ENTm3" d="M348 243c-2.364 0-3.053 3-5 3 0 2.637 10.471 4 13 4 9.179 0 20.081-4.581 26.5-11l6.5-5v-1l-6-3h-1l-7.5 7c-4.39 2.195-7.725 5.862-12 8-4.614 2.307-10.965-2-14.5-2Z"/><path fill="#FEBA85" id="TRN" d="m225 237-6 1c0-3.265-3-4.067-3-7 5.1 0 9 .381 9 6ZM231 236l6 2c0-3.313 4-4.49 4-7-3.833 0-10-.404-10 5Z"/><path fill="#FF9B88" id="P" d="m287 243-6 14.5c-.579 1.158.341 3.5-2 3.5 0-5.127 8.385-20.057.5-24-2.116-1.058-2.898 2-4.5 2 0-3.391-7.039-4-10-4 0-2.547-4-2.775-4-1l-4-1 4-2c0 3.133 11.423 1 13 1 0 2.756 9-.756 9 2v1c0 3.148-.063 8 4 8Z"/><path fill="#C7C8CC" id="alv" d="m361 231-2 2c1.747 0 2-.253 2-2Z"/><path fill="#7DCD4B" id="HPF" d="M98 233v1l-1-1h1Z"/><path fill="#C7C8CC" id="alv" d="m101 234-1 1-2-1v-1l3 1Z"/><path fill="#CCCCCA" id="mcp" d="m172 233 1 1-1-1Z"/><path fill="#C8C7CC" id="cst" d="M192 234c0 4.149 8.306 14.887 12 7.5 1.713-3.425-9-4.327-9-7.5 0-1.486-3-1.486-3 0Z"/><path fill="#FEBA85" id="TRN" d="m181 239 5.5 5c3.742 1.871 25.5 1.485 25.5-3-4.844 0-5.302-8-12-8l-5 1c0 3.173 10.713 4.075 9 7.5-3.694 7.387-12-3.351-12-7.5-2.541 0-11 2.289-11 5ZM275 239c0 9.371-31 6.336-31 2 4.995 0 6.334-8 13-8l4 1c0 3.916-6.71 2.921-8 5.5-1.972 3.944 5.158 4.671 7.5 3.5 2.179-1.089 2.042-8 4.5-8 2.961 0 10 .609 10 4Z"/><path fill="#C8C7CC" id="cst" d="M261 234c0 3.916-6.71 2.921-8 5.5-1.972 3.944 5.158 4.671 7.5 3.5 2.179-1.089 2.042-8 4.5-8 0-2.547-4-2.775-4-1Z"/><path fill="#C7C8CC" id="alv" d="M357 234h1l1-1-2 1Z"/><path fill="#30B824" id="ENTm2" d="m96 256 6.5-1c2.084 1.042 2.908 2 5.5 2l10-8c0-2.109-2.535-2-4-2-5.168 0-12.445 6.028-18.5 3-4.112-2.056-8.887-2.944-13-5l-8-6-7.5-5-8 2v1c0 3.955 25.55 14.025 29.5 16 1.382.691 7.5 1.1 7.5 3Z"/><path fill="#CCCCCA" id="mcp" d="m284 234-1 1v-1h1Z"/><path fill="#C7C8CC" id="alv" d="M356 235h1v-1h-1v1Z"/><path fill="#7DCD4B" id="HPF" d="m358 234-1 1v-1h1Z"/><path fill="#30B824" id="ENTm2" d="m361 256-7.5-1c-2.084 1.042-2.908 2-5.5 2l-10-8 5-3c0 2.637 10.471 4 13 4 9.179 0 20.081-4.581 26.5-11l6.5-5 8 2v1c0 3.566-22.929 13.215-26.5 15-1.706.853-9.5 1.49-9.5 4Z"/><path fill="#CCCBCA" id="moV" d="M152 255h3l1-1v-1c0-1.802-6-9.972-6-16l-3-2c-2.109 0-2 2.535-2 4 1.555 0 4 9.133 4 11v1l1 1 1 2 1 1ZM305 254c0 1.473-1.952 1-3 1l-2-1c0-.712 7-13.498 7-17l3-2c0 1.564 1 3.876 1 6l-1 2-1 2c-1.353 0-2 4.643-2 6l-1 2-1 1Z"/><path fill="#FFB885" id="PG" d="M275 239c1.602 0 2.384-3.058 4.5-2 7.885 3.943-.5 18.873-.5 24l-3 3.5c-1.562 3.124-6.791 6.145-9.5 7.5l-12 1h-16c-10.515-5.257-7.5-27.332-7.5-37l6 2c0 3.348 4.824 3 7 3 0 4.336 31 7.371 31-2Z"/><path fill="#31B625" id="ENTm1" d="M96 256c-1.777 0-5 1.1-5 3-9.918 0-21.915-9.708-30.5-14-1.656-.828-9.5-5.182-9.5-7l8-1c0 3.955 25.55 14.025 29.5 16 1.382.691 7.5 1.1 7.5 3Z"/><path fill="#FFB885" id="PG" d="m181 239 5.5 5c3.742 1.871 25.5 1.485 25.5-3 2.79 0 7 .746 7-3l6-1c0 17.841 1.758 19.984-6 35.5l-9.5.5c-7.818 0-23.522 1.456-27.5-6.5-3.889-7.777-11.31-16.38-7-25 .827-1.655-.882-3.309 1.5-4.5 2.116-1.058 2.898 2 4.5 2Z"/><path fill="#31B625" id="ENTm1" d="M361 256c0 2.173 5-.232 5 3l3.5-2c2.553-1.276 6.384-.692 9-2 6.574-3.287 12.336-7.668 19-11 1.743-.872 7.5-4.446 7.5-6-2.097 0-5.293-1-8-1 0 3.566-22.929 13.215-26.5 15-1.706.853-9.5 1.49-9.5 4Z"/><path fill="#F0F080" id="CB" d="M145 239c1.555 0 4 9.133 4 11-1.92 0-4-9.104-4-11ZM311 241l-1 2 1-2ZM310 243l-1 2 1-2ZM309 245c-1.353 0-2 4.643-2 6 1.995 0 2-4.377 2-6Z"/><path fill="#31B625" id="ENTm1" d="M108 257h5c2.695 0 8-4.034 8-7 0-1.473-1.952-1-3-1l-10 8ZM348 257c-1.145 0-4-.579-4 1-3.243 0-9-5.911-9-9h3l10 8Z"/><path fill="#F0F080" id="CB" d="m149 251 1 1-1-1ZM156 254h1l-1-1v1Z"/><path fill="#FF9B88" id="P" d="m306 253-1 1 1-1ZM151 254l1 1-1-1ZM155 255l4 2-2-3h-1l-1 1ZM298 256v1l4-2-2-1-1 1-1 1Z"/><path fill="#60E6B5" id="COApm" d="M113 257c0 2.341-2.342 1.421-3.5 2-3.384 1.692-8.176 6.412-13 4l-5.5-4c0-1.9 3.223-3 5-3l6.5-1c2.084 1.042 2.908 2 5.5 2h5Z"/><path fill="#F0F080" id="CB" d="m299 255-1 1 1-1Z"/><path fill="#60E6B5" id="COApm" d="m344 258 9.5 5c5.119 2.56 8.489-4 12.5-4 0-3.232-5-.827-5-3l-7.5-1c-2.084 1.042-2.908 2-5.5 2-1.145 0-4-.579-4 1Z"/><path fill="#FF9B88" id="P" d="m298 257-1 1 1-1ZM159 258l4 4-4-4ZM297 258l-1 1 1-1ZM296 259l-1 1 1-1ZM164 263l1 1-1-1ZM166 265l1 1-1-1ZM168 267l2 2-2-2ZM288 267l-1 1 1-1ZM287 268l-1 1 1-1ZM171 269l1 1-1-1ZM285 269l-1 1 1-1ZM284 270l-1 1 1-1ZM175 271l3 2c-1.238 0-3-.423-3-2ZM282 271l-1 1 1-1ZM280 272l-1 1 1-1ZM277 273l-2 1 2-1ZM275 274c-1.145 0-4-.579-4 1 1.145 0 4 .579 4-1Z"/></svg>