<svg xmlns="http://www.w3.org/2000/svg" viewBox="0 0 456 320"><path fill="#1BA696" id="RSPagl1" d="M173 16h1c4.664 0 9.63-2 15-2V9c-5.796 0-11.046 2-16 2v5Z"/><path fill="#1BA598" id="RSPd1" d="m219 24-3 1c0-9.5-19.996-11-27-11V9c8.75 0 30 4.544 30 15ZM240 25h1c0-9.744 19.104-11 26-11V9c-8.882 0-16.175 2.337-23.5 6l-5.5 8c0 1.747.253 2 2 2Z"/><path fill="#1BA696" id="RSPagl1" d="M267 14c5.763 0 10.837 2 16 2v-5c-4.954 0-10.204-2-16-2v5Z"/><path fill="#0A8589" id="VISpm1" d="M173 16c-5.786 0-12.428 3-18 3v-4l4-2c5.4 0 8.6-2 14-2v5ZM283 16c5.895 0 12.47 3 18 3l1-4c-3.859 0-13.014-4-19-4v5Z"/><path fill="#1AA496" id="RSPagl2/3" d="M174 22v1l15-4v-5c-5.37 0-10.336 2-15 2v6Z"/><path fill="#1BA697" id="RSPd2/3" d="M216 25c-1.295 0-2.89 2-5 2l-6.5-5c-4.995-2.498-9.384-3-15.5-3v-5c7.004 0 27 1.5 27 11ZM241 25c0 2.109 2.535 2 4 2l6.5-5c4.995-2.498 9.384-3 15.5-3v-5c-6.896 0-26 1.256-26 11Z"/><path fill="#1AA496" id="RSPagl2/3" d="M282 22v1l-15-4v-5c5.763 0 10.837 2 16 2l-1 6Z"/><path fill="#098589" id="VISp1" d="M85 46c0 1.238.423 3 2 3 5.069 0 11.965-7.732 16.5-10 10.83-5.415 40.048-20 51.5-20v-4c-16.731 0-41.887 14.693-56.5 22-2.315 1.157-13.5 5.862-13.5 9ZM369 50h1l2-4c0-.942-13.66-9.08-15.5-10-14.136-7.068-38.36-21-54.5-21l-1 4c13.267 0 40.312 14.906 52.5 21 1.901.95 15.5 8.702 15.5 10Z"/><path fill="#08858B" id="VISpm2/3" d="M174 22c-5.454 0-10.23 5-16 5l-3-8c5.572 0 12.214-3 18-3h1v6ZM282 22c5.526 0 10.303 5 16 5 1.069 0 3-6.717 3-8-5.53 0-12.105-3-18-3l-1 6Z"/><path fill="#0A828C" id="VISp2/3" d="M91 57h1c0-1.658 13.437-7.968 15.5-9 8.551-4.276 42.448-20 50.5-20v-1l-3-8c-11.452 0-40.67 14.585-51.5 20-4.535 2.268-11.431 10-16.5 10v2c1.008 0 4 5.147 4 6Z"/><path fill="#1CA697" id="RSPagl5" d="M184 31c-4.101 0-7.386 4-11 4l1-11v-1l15-4-3 10-1 1-1 1Z"/><path fill="#1AA596" id="RSPd5" d="M211 29c-4.952 0-9.313 6-14 6 0-8.163-4.898-6-11-6l3-10c6.116 0 10.505.502 15.5 3l6.5 5v2ZM270 29c-4.529 0-11-2.326-11 5-5.026 0-8.887-5-14-5v-2l6.5-5c4.995-2.498 9.384-3 15.5-3l3 10Z"/><path fill="#1CA697" id="RSPagl5" d="M271 30c4.051 0 8.378 5 12 5V24l-1-1-15-4 3 10 1 1Z"/><path fill="#0A828C" id="VISp2/3" d="M369 50c0 1.178-2.572 6-4 6-4.853 0-8.406-4.953-12.5-7-8.657-4.328-46.457-21-54.5-21v-1c1.069 0 3-6.717 3-8 13.267 0 40.312 14.906 52.5 21 1.901.95 15.5 8.702 15.5 10Z"/><path fill="#09828B" id="VISpm4" d="m158 28 1 3c4.777 0 9.756-7 15-7v-2c-5.454 0-10.23 5-16 5v1ZM298 28l-1 3-14-7-1-1v-1c5.526 0 10.303 5 16 5v1Z"/><path fill="#1BA597" id="RSPv1" d="M285 69c0 1.577-1.762 2-3 2l-12.5-8c-7.852-3.926-26.539-8.578-30.5-16.5-2.116-4.232-4-12.654-4-17.5l3-6c0 1.747.253 2 2 2 0 23.066 6.38 22.44 25.5 32 2.99 1.495 19.5 7.738 19.5 12Z"/><path fill="#088489" id="VISpm5" d="M162 40h1l10-5 1-11c-5.244 0-10.223 7-15 7 0 2.675 3 5.922 3 9Z"/><path fill="#1BA597" id="RSPv1" d="m171 68 3 3c5.323 0 9.344-8 15-8 0-3.025 19.539-8.52 22.5-10 4.592-2.296 11.854-20.791 9.5-25.5l-2-3.5-3 1c0 2.681 2.592 8.316 1 11.5-6.841 13.682-19.702 16.1-32.5 22.5L171 68Z"/><path fill="#088489" id="VISpm5" d="m284 35 10 5 3-9-14-7v11h1Z"/><path fill="#1AA597" id="RSPv2/3" d="m168 66 3 2 13.5-9c12.798-6.4 25.659-8.818 32.5-22.5 1.592-3.184-1-8.819-1-11.5-1.295 0-2.89 2-5 2v2c1.258 0 1.639 7.221 1 8.5-2.005 4.01-6.626 7.563-10.5 9.5-8.224 4.112-16.687 7.843-25 12l-8.5 7ZM288 66l-3 3c0-4.262-16.51-10.505-19.5-12-19.12-9.56-25.5-8.934-25.5-32h1c0 2.109 2.535 2 4 2v2l-1 7.5c4.896 9.792 18.312 13.906 27.5 18.5 3.294 1.647 16.5 6.549 16.5 11Z"/><path fill="#0B848B" id="VISp4" d="M94 62h1c0-2.352 11.465-5.983 13.5-7 11.519-5.76 23.6-10.3 35-16 3.983-1.992 11.11-8 15.5-8l-1-3c-8.052 0-41.949 15.724-50.5 20-2.063 1.032-15.5 7.342-15.5 9l2 5Z"/><path fill="#1AA697" id="RSPd6a" d="M175 43h1c3.826 0 14.932-8 21-8 0-8.163-4.898-6-11-6l-1 1-1 1c0 5.242-9 7.596-9 11v1ZM280 43h1v-1l-10-12-1-1c-4.529 0-11-2.326-11 5l1 1c5.58 0 16.411 8 20 8Z"/><path fill="#0B848B" id="VISp4" d="M362 62h1l2-5v-1c-4.853 0-8.406-4.953-12.5-7-8.657-4.328-46.457-21-54.5-21l-1 3 16.5 8 34 15 14.5 8Z"/><path fill="#1AA596" id="RSPd5" d="m186 29-1 1 1-1Z"/><path fill="#1BA498" id="RSPv5" d="M165 62c0 1.429 1.288 4 3 4l8.5-7c8.313-4.157 16.776-7.888 25-12 3.874-1.937 8.495-5.49 10.5-9.5.639-1.279.258-8.5-1-8.5-4.952 0-9.313 6-14 6 0 5.748-19.902 13.402-24.5 18l-7.5 9ZM291 62c0 1.429-1.288 4-3 4 0-4.451-13.206-9.353-16.5-11-9.188-4.594-22.604-8.708-27.5-18.5l1-7.5c5.113 0 8.974 5 14 5l1 1c0 8.977 31 15.814 31 27Z"/><path fill="#1CA597" id="RSPagl6a" d="m185 30-1 1 1-1ZM282 42h3l-1-7h-1c-3.622 0-7.949-5-12-5l10 12h1Z"/><path fill="#088389" id="VISp5" d="m95 62 4 8c4.795 0 10.327-5.914 14.5-8 10.968-5.484 23.026-9.513 34-15 3.879-1.94 10.142-7 14.5-7 0-3.078-3-6.325-3-9-4.39 0-11.517 6.008-15.5 8-11.4 5.7-23.481 10.24-35 16-2.035 1.017-13.5 4.648-13.5 7Z"/><path fill="#1CA597" id="RSPagl6a" d="M171 42h4c0-3.404 9-5.758 9-11-4.101 0-7.386 4-11 4l-2 7Z"/><path fill="#088389" id="VISp5" d="M362 62c0 1.734-4.671 8-5 8l-14.5-8c-12.363-6.181-25.675-10.838-38-17-3.027-1.513-7.028-5-10.5-5l3-9 16.5 8 34 15 14.5 8Z"/><path fill="#09858B" id="VISpm6a" d="M164 45h1c1.974 0 3.517-2 6-2v-1l2-7-10 5 1 5Z"/><path fill="#1AA498" id="RSPv6a" d="m164 61 1 1 7.5-9c4.598-4.598 24.5-12.252 24.5-18-6.068 0-17.174 8-21 8l-1 2-1 1c0 5.436-10 9.2-10 15ZM292 61l-1 1c0-11.186-31-18.023-31-27 5.58 0 16.411 8 20 8 0 1.238.423 3 2 3 .435 0 10 13.053 10 15Z"/><path fill="#09858B" id="VISpm6a" d="m285 43 7 2c.672 0 2-4.33 2-5l-10-5 1 7v1Z"/><path fill="#08858C" id="VISp6a" d="m99 71 4 5 14-7c0-.885 15.647-8 18-8l28-14 1-2-1-5h-1c-4.358 0-10.621 5.06-14.5 7-10.974 5.487-23.032 9.516-34 15-4.173 2.086-9.705 8-14.5 8v1ZM353 76h1l3-5v-1l-14.5-8c-12.363-6.181-25.675-10.838-38-17-3.027-1.513-7.028-5-10.5-5 0 .67-1.328 5-2 5v1l13.5 7c11.231 5.615 22.732 10.366 34 16 1.943.971 13.5 4.896 13.5 7Z"/><path fill="#1AA598" id="RSPagl6b" d="M174 43h1v-1h-4v1h3Z"/><path fill="#1BA698" id="RSPd6b" d="M281 43h1v-1h-1v1Z"/><path fill="#1AA598" id="RSPagl6b" d="M282 43h3v-1h-3v1Z"/><path fill="#088589" id="VISpm6b" d="M165 45v1c1.402 0 6-1.11 6-3-2.483 0-4.026 2-6 2Z"/><path fill="#CACCC7" id="cing" d="m164 61-1 1c0-2.724 2.883-11 0-11l-1-2 1-2 2-1c1.402 0 6-1.11 6-3h3l1 1v1l-1 1c0 5.436-10 9.2-10 15Z"/><path fill="#1BA698" id="RSPd6b" d="M175 43v1l-1-1h1Z"/><path fill="#1AA497" id="RSPv6b" d="M175 44v1l1-2h-1v1ZM282 43v3c-1.577 0-2-1.762-2-3h2Z"/><path fill="#CACCC7" id="cing" d="M292 61h1c0-.717-1.49-10 0-10l2-2-4-3-6-3h-3v3c.435 0 10 13.053 10 15Z"/><path fill="#088589" id="VISpm6b" d="M291 46h1v-1l-7-2 6 3Z"/><path fill="#08858A" id="VISp6b" d="m165 46-2 1 1-2h1v1Z"/><path fill="#1AA497" id="RSPv6b" d="m175 45-1 1 1-1Z"/><path fill="#09848A" id="VISl1" d="m64 65 3 2c4.256 0 13.602-16 20-16v-2c-1.577 0-2-1.762-2-3-1.423 0-21 16.958-21 19Z"/><path fill="#08858A" id="VISp6b" d="M353 76v1l-12-6-1-1-17-7-1-1-13-6-1-1h-2c0-1.649-9.36-6-11-6l-4-3h1l13.5 7c11.231 5.615 22.732 10.366 34 16 1.943.971 13.5 4.896 13.5 7Z"/><path fill="#09848A" id="VISl1" d="M392 65c-1.481 0-.785 2-3 2l-19-17 2-4 3.5 3c3.524 1.762 16.5 12.66 16.5 16Z"/><path fill="#08858A" id="VISp6b" d="M151 55c-5.994 0-9.732 6-16 6l28-14-1 2c-1.64 0-11 4.351-11 6Z"/><path fill="#C9C9CA" id="scwm" d="M151 55v2l12-6-1-2c-1.64 0-11 4.351-11 6ZM306 55l-1 1-12-5 2-2c1.64 0 11 4.351 11 6Z"/><path fill="#0A8489" id="VISl2/3" d="M384 73h1c0-1.061 2.571-5 4-5v-1l-19-17h-1c0 1.178-2.572 6-4 6v1c3.571 0 11.262 8.762 14.5 12l4.5 4ZM72 73h1c0-1.65 17.176-16 18-16 0-.853-2.992-6-4-6-6.398 0-15.744 16-20 16v1l5 5Z"/><path fill="#C8C9CA" id="fp" d="M71 117h1l1-1 1-1 1-2 1-1 1-1 1-2 1-1 1-1 1-1 1-1 1-2 2-2 2-2 2-1 1-1 1-1 1-1 1-1 1-1h1c0-1.747.253-2 2-2l1-1 1-1h1l1-1 1-1 2-1 1-1 2-1 2-1c0-1.577 1.762-2 3-2h1l1-1 2-1c0-1.638 3.576-2 5-2l6-3c0-4.255 10.416-5.458 13.5-7 8.462-4.231 18.5-14.62 18.5 3 2.447 0 4-6.063 4-8 0-2.724 2.883-11 0-11l-12 6c0 1.851-22.364 10.432-25.5 12-12.546 6.273-37.447 18.394-44.5 32.5-2.66 5.319-10 9.182-10 15.5ZM396 142h1c0-4.518-3.634-9 0-9v-1l-2-2c0 .354-6.647-8.794-8-11.5-3.1-6.199-13.354-22.927-18.5-25.5-7.163-3.582-14.116-12.058-22-16L320 64.5c-2.483-2.483-15-3.976-15-8.5l-12-5c-1.49 0 0 9.283 0 10 0 2.013 2.179 10 5 10l-1-7.5c4.047-8.094 14.345.922 19.5 3.5 2.956 1.478 12.5 2.938 12.5 7l6 3h1c1.465 0 4-.109 4 2h1l3 2h1l2 2h1c1.998 0 11 5.73 11 8h1l4 4h1c2.409 0 11 9.811 11 12h1l6 8v1l2 2v1l2 2v1c1.577 0 2 1.762 2 3v1c1.948 0 4 5.428 4 7v2l1 1v1l1 2v1l1 2Z"/><path fill="#FF7AFD" id="SCzo" d="M290 86h1v-1l-1-3-1-1v-1l-2-2-1-1-1-1-1-1-12.5-9c-8.832-4.416-18.246-7.623-27-12-4.264-2.132-11.607 1.714-13.5 5.5-1.038 2.076-.179 6.5-2.5 6.5l-1.5-4.5-8.5-7.5c-7.411-3.705-22.212 9-29.5 9 0 2.489-10.792 7.646-13.5 9l-2.5 2-1 1-1 1-3 4v1l11.5-10c16.893-8.446 47.5-29.903 47.5 5 0 2.216 3 .348 3-1 0-34.237 29.815-11.842 45.5-4 5.039 2.52 14.5 8.851 14.5 15Z"/><path fill="#CBC9C7" id="or" d="M61 130v1c0 4.711 5.462-11 8-11 0-1.238.423-3 2-3 0-6.318 7.34-10.181 10-15.5 7.053-14.106 31.954-26.227 44.5-32.5 3.136-1.568 25.5-10.149 25.5-12v-2c-5.994 0-9.732 6-16 6 0 1.336-15.435 8-18 8 0 2.43-11.783 8-14 8 0 2.177-4.336 4-6 4 0 1.369-8.038 9-10 9 0 1.712-2.571 3-4 3 0 1.429-1.288 4-3 4l-6 9-5 10-1 1-1 1v1l-1 1-1 1v1l-1 1v1l-1 1v1l-1 1v1l-1 2ZM395 129v1c0 .354-6.647-8.794-8-11.5-3.1-6.199-13.354-22.927-18.5-25.5-7.163-3.582-14.116-12.058-22-16L320 64.5c-2.483-2.483-15-3.976-15-8.5l1-1h2l1 1 13 6 1 1 17 7 1 1 12 6 16 13 7 7c0 3.434 7 6.072 7 10l4 8 2 2v1l2 2v2l2 2v1l1 1v1l1 2Z"/><path fill="#C9C9CA" id="scwm" d="m308 55 1 1-1-1Z"/><path fill="#FF78FF" id="SCsg" d="m168 81-1 4 14.5-7c8.936-4.468 19.022-6.51 28-11 9.68-4.84 15.011 9 17.5 9 0-34.903-30.607-13.446-47.5-5L168 81ZM230 75c3.072 0 7.642-12.429 16.5-8 9.874 4.937 21.17 7.085 31 12 2.954 1.477 9.398 7 12.5 7 0-6.149-9.461-12.48-14.5-15-15.685-7.842-45.5-30.237-45.5 4Z"/><path fill="#08828B" id="VISl4" d="M73 73c0 2.215 2 1.519 2 3 1.457 0 12.332-9.416 15.5-11l3.5-3-2-5h-1c-.824 0-18 14.35-18 16ZM384 73l-3 3-18-14 2-5c3.571 0 11.262 8.762 14.5 12l4.5 4Z"/><path fill="#C9CCC9" id="dhc" d="m143 76 6 1 4-2c1.562 0 5-2.189 5-4l1-1c0-17.62-10.038-7.231-18.5-3-3.084 1.542-13.5 2.745-13.5 7 1.824 0 12-.781 12 1h2l2 1ZM313 76l-6 1-4-2h-1l-2-2-1-1-1-1-1-7.5c4.047-8.094 14.345.922 19.5 3.5 2.956 1.478 12.5 2.938 12.5 7-1.824 0-12-.781-12 1h-1c-1.048 0-3-.473-3 1Z"/><path fill="#08858A" id="VISp6b" d="M135 61c-2.353 0-18 7.115-18 8 2.565 0 18-6.664 18-8Z"/><path fill="#47C83C" id="POST" d="M139 101h6l3-2c3.571 0 5.945-5 9-5l1-1 1-1c0-1.763 4.012-7 6-7v-1l1-1 1-2 1-1 3-4 1-1 1-1 1-3-3-3-3-2c-1.712 0-3-2.571-3-4l-1-1-1 1c0 1.937-1.553 8-4 8l-1 1c0 1.811-3.438 4-5 4l-1 2c0 6.65-2.769 13.038-6 19.5l-7 4.5ZM311 101h6l-8-6.5c-3.009-6.018-4-11.245-4-17.5l-2-2h-1l-2-2-1-1-1-1c-2.821 0-5-7.987-5-10h-1l-1 1c0 1.429-1.288 4-3 4l-3 3c0 1.577-1.762 2-3 2l2 4 1 1 1 1 1 1 2 2v1l1 1 1 3h1c2.253 0 9.919 14 16 14l3 2Z"/><path fill="#0B858B" id="VISl5" d="M75 77c1.167 0 7 5.234 7 7 3.421 0 12.02-13 17-13v-1l-4-8h-1l-3.5 3C87.332 66.584 76.457 76 75 76v1Z"/><path fill="#C9C9CA" id="scwm" d="m322 62 1 1-1-1Z"/><path fill="#0B858B" id="VISl5" d="M374 84h1c0-1.6 4.129-7 6-7v-1l-18-14h-1c0 1.734-4.671 8-5 8v1c1.727 0 17 11.945 17 13Z"/><path fill="#0C858C" id="VISli1" d="M59 77h1l7-9v-1l-3-2c-2.073 0-7 6.148-7 8l2 4ZM400 73l-3 3-8-8v-1c2.215 0 1.519-2 3-2 1.158 0 8 6.162 8 8Z"/><path fill="#FD7AFF" id="SCop" d="m165 90 14.5-7 29-10c7.155-3.578 11.12 5.56 16 8 2.258 1.129 2.003-1.501 3-2 1.68-.84 2.764 3.118 5 2l8-8c3.158-1.579 8.664.832 11 2 9.237 4.619 20.689 5.345 30 10 2.576 1.288 6.629 5 9.5 5v-4h-1c-3.102 0-9.546-5.523-12.5-7-9.83-4.915-21.126-7.063-31-12-8.858-4.429-13.428 8-16.5 8 0 1.348-3 3.216-3 1-2.489 0-7.82-13.84-17.5-9-8.978 4.49-19.064 6.532-28 11L167 85l-1 1-1 1v3Z"/><path fill="#0A858A" id="VISli2/3" d="m60 77 5 4 7-8-5-5-7 9ZM397 77c-3.444 0-3.129 4-6 4-1.46 0-6-6.472-6-8 0-1.061 2.571-5 4-5l8 8v1Z"/><path fill="#08858A" id="VISp6b" d="M103 76v1c2.217 0 14-5.57 14-8l-14 7Z"/><path fill="#C8C9CA" id="fp" d="m159 70-1 1 1-1Z"/><path fill="#C9C9CA" id="scwm" d="m340 70 1 1-1-1Z"/><path fill="#08848C" id="VISl6a" d="M86 89h1c0-2.115 8.185-8 10-8 0-2.177 4.336-4 6-4v-1l-4-5c-4.98 0-13.579 13-17 13v1l4 4Z"/><path fill="#7DCD4B" id="HPF" d="m298 71 1 1-1-1Z"/><path fill="#08848C" id="VISl6a" d="M370 89h1c0-2.518 3-2.334 3-5 0-1.055-15.273-13-17-13l-3 5 16 13Z"/><path fill="#15B0B3" id="TEa1" d="m45 88 3 3 11-14-2-4c-2.91 0-12 11.79-12 15Z"/><path fill="#08828C" id="VISli4" d="m65 82 3 2 7-7v-1c0-1.481-2-.785-2-3h-1l-7 8v1Z"/><path fill="#FF90FF" id="SCig" d="M158 132c0-4.257-.783-9.934 1-13.5 8.696-17.393 30.747-25.624 46.5-33.5 6.4-3.2 18.579 7.21 21 6 2.336-1.168 3.629 1.186 6 0 4.509-2.254 11.66-9.17 18-6 20.233 10.117 48.5 20.263 48.5 47 2.269 0 7 .631 7-4l1-4v-8c0-7.902-4.746-12.993-8-19.5l-5-5.5-3-1c-2.871 0-6.924-3.712-9.5-5-9.311-4.655-20.763-5.381-30-10-2.336-1.168-7.842-3.579-11-2l-8 8c-2.236 1.118-3.32-2.84-5-2-.997.499-.742 3.129-3 2-4.88-2.44-8.845-11.578-16-8l-29 10-14.5 7-3 2-1 1h-1l-1 1c0 1.238-.423 3-2 3 0 1.429-1.288 4-3 4l-1 2c0 5.318-4 9.802-4 16v4l1 4 4.5 6 3.5-1Z"/><path fill="#7DCD4B" id="HPF" d="m300 73 2 2-2-2Z"/><path fill="#08828C" id="VISli4" d="m391 82-2 2c-3.287 0-4.332-7-8-7v-1l3-3h1c0 1.528 4.54 8 6 8v1Z"/><path fill="#15B0B3" id="TEa1" d="M408 91h1l2-4c0-2.674-9.315-14-11-14l-3 3v1l11 14Z"/><path fill="#C7C8CC" id="alv" d="M121 77h3c0-2.09 12.324-2 15-2 0-1.781-10.176-1-12-1l-6 3ZM332 77h3l-6-3c-1.824 0-12-.781-12 1 2.676 0 15-.09 15 2Z"/><path fill="#4FC244" id="SUB" d="M130 102h1l1-1h7l7-4.5c3.231-6.462 6-12.85 6-19.5h-3l-6-1-2-1h-2c-2.676 0-15-.09-15 2 2.144 0 .381 4.262 1 5.5 2.281 4.561 5 14.405 5 19.5Z"/><path fill="#C7C8CC" id="alv" d="m141 75 2 1-2-1Z"/><path fill="#7DCD4B" id="HPF" d="M149 77h3l1-2-4 2ZM305 77h2l-4-2 2 2Z"/><path fill="#C7C8CC" id="alv" d="M316 75c-1.048 0-3-.473-3 1 1.048 0 3 .473 3-1Z"/><path fill="#4FC244" id="SUB" d="M317 101c3.51 0 7.022 1 10 1 0-8.644 5-16.522 5-25 0-2.09-12.324-2-15-2h-1c0 1.473-1.952 1-3 1l-6 1h-2c0 6.255.991 11.482 4 17.5l8 6.5Z"/><path fill="#09858C" id="VISl6b" d="m370 89-1 1-16-13v-1h1l16 13Z"/><path fill="#16AFB3" id="TEa2/3" d="m48 92 4 6 13-16v-1l-5-4h-1L48 91v1Z"/><path fill="#0A848A" id="VISli5" d="m82 85-7 6c-2.96 0-3.754-6-7-6v-1l7-7c1.167 0 7 5.234 7 7v1Z"/><path fill="#09858C" id="VISl6b" d="M103 77c-1.664 0-6 1.823-6 4 1.664 0 6-1.823 6-4Z"/><path fill="#C7C8CC" id="alv" d="M121 77c-1.424 0-5 .362-5 2 1.424 0 5-.362 5-2Z"/><path fill="#57B947" id="ProS" d="m130 102-10 5c0-8.801-6-17.612-6-26v-1l2-1c1.424 0 5-.362 5-2h3c2.144 0 .381 4.262 1 5.5 2.281 4.561 5 14.405 5 19.5ZM327 102l9 5 6-26-1-2h-1l-4-2h-4c0 8.478-5 16.356-5 25Z"/><path fill="#C7C8CC" id="alv" d="M336 77c1.465 0 4-.109 4 2l-4-2Z"/><path fill="#0A848A" id="VISli5" d="M389 85c-4.261 0-3.739 6-8 6l-6-7c0-1.6 4.129-7 6-7 3.668 0 4.713 7 8 7v1Z"/><path fill="#16AFB3" id="TEa2/3" d="M404 98h1c1.906 0 3-6.295 3-7l-11-14c-3.444 0-3.129 4-6 4v1c.688 0 13 14.64 13 16Z"/><path fill="#C7C8CC" id="alv" d="m116 79-2 1 2-1ZM342 81h2l-3-2 1 2ZM113 81h1v-1l-1 1Z"/><path fill="#09858C" id="VISl6b" d="M87 89v1c1.962 0 10-7.631 10-9-1.815 0-10 5.885-10 8Z"/><path fill="#C7C8CC" id="alv" d="M112 81c-1.238 0-3 .423-3 2 1.238 0 3-.423 3-2Z"/><path fill="#7ECF4B" id="CA1" d="M110 241h1c0-3.037 18-9.995 18-14 0-6.647-14.695-13.89-18-20.5-3.079-6.158-12.238-12.477-16-20-3.144-6.288-3.896-13.792-7-20-6.064-12.128 9.31-39.31 16.5-46.5l11-10 4.5-3c0-8.801-6-17.612-6-26h-2c0 1.577-1.762 2-3 2l-2 1-2 1-1 1-2 1-1 1-1 1h-1l-1 1-1 1-2 2h-1l-1 1-1 1-1 1-1 1-1 1-2 1c0 1.747-.253 2-2 2 0 1.747-.253 2-2 2l-1 2-1 1-1 1-1 1-1 1-1 2-1 1-1 1-1 2-1 1-1 1-1 2c0 1.238-.423 3-2 3v1l-1 1-1 1v2l-1 1-1 2v1l-1 1-1 2v2l-1 1v1l-1 2v2l-1 2v1l-1 2v6c0 8.556-1.589 20.322 2 27.5 1.698 3.395 8 16.381 8 19.5v1c2.47 0 3.265 5.03 4 6.5 3.06 6.12 8.905 11.905 14 17l15.5 12.5c1.456.728 7.5 1.87 7.5 4Z"/><path fill="#FF7AFD" id="SCzo" d="m166 86-1 1v-3l1-1 1-2h1l-1 4-1 1Z"/><path fill="#7ECF4B" id="CA1" d="M346 240h1l3-1h1c0-1.577 1.762-2 3-2h1l1-1 1-1 2-1 1-1c0-1.577 1.762-2 3-2l1-1 1-1c0-1.811 3.438-4 5-4l1-1 1-1 1-1c0-1.562 2.189-5 4-5 0-1.429 1.288-4 3-4l1-1c0-1.238.423-3 2-3 0-1.465-.109-4 2-4l1-2 1-2 1-2 1-2 2-4c0-3.487 2.425-11.349 4-14.5l2-3.5 1-17v-2c-1.684 0-1-4.679-1-6v-5c-1.638 0-2-3.576-2-5v-1l-1-2v-1l-1-1v-2l-4-7v-1l-2-3v-1l-2-2v-1l-2-2v-1c-1.89 0-6-6.374-6-8h-1l-11-12h-1l-4-4h-1c-1.433 0-11-6.677-11-8h-1l-2-2h-3l-6 26c3.05 0 13.52 11.02 16.5 14 12.465 12.465 22.036 38.427 13.5 55.5l-10 18-7 8-22 24.5c0 1.652 16.885 13 19 13Z"/><path fill="#C7C8CC" id="alv" d="m345 81 2 2-2-2Z"/><path fill="#15B0B2" id="TEa4" d="m52 99 2 4c1.393 0 11.468-18 14-18v-1l-3-2-13 16v1ZM402 103h1c1.759 0-1.696-3 2-3v-1l-1-1c0-1.36-12.312-16-13-16l-2 2v1c0 6.269 13 11.449 13 18Z"/><path fill="#C7C8CC" id="alv" d="m109 83-2 1 2-1ZM348 83c1.998 0 11 5.73 11 8-1.433 0-11-6.677-11-8ZM107 84l-2 1 2-1Z"/><path fill="#088488" id="VISli6a" d="m381 92-4 4c0-2.259-6-4.261-6-7 0-2.518 3-2.334 3-5h1l6 7v1Z"/><path fill="#15AFB3" id="TEa5" d="m54 104 2 1.5c0 1.535.42 7.5 4 7.5.385 0 12.017-20 15-20v-2c-2.96 0-3.754-6-7-6-2.532 0-12.607 18-14 18v1Z"/><path fill="#088488" id="VISli6a" d="m83 93-4 3c0-.966-2.886-3-4-3v-2l7-6 4 4c0 2.35-3 1.382-3 4Z"/><path fill="#C7C8CC" id="alv" d="m105 85-1 1 1-1Z"/><path fill="#FF78FF" id="SCsg" d="m167 85-1 1 1-1Z"/><path fill="#FF90FE" id="SCiw" d="M158 132c0-4.257-.783-9.934 1-13.5 8.696-17.393 30.747-25.624 46.5-33.5 6.4-3.2 18.579 7.21 21 6 2.336-1.168 3.629 1.186 6 0 4.509-2.254 11.66-9.17 18-6 20.233 10.117 48.5 20.263 48.5 47-6.234 0-15.959 6.27-22.5 3-2.349-1.175-6.819-8-8.5-8 0-11.86-10.808-28.654-21.5-34-4.448-2.224-10.797 1-15.5 1-6.185 0-15.377-3.562-20.5-1-10.984 5.492-22.5 22.019-22.5 34-.763 0-6.493 6.997-8.5 8-6.364 3.182-15.534-3-21.5-3Z"/><path fill="#FF64FF" id="MB" d="m291 90 3 1-2-6h-1v5Z"/><path fill="#15AFB3" id="TEa5" d="M403 105c-1.014 0-6 7.26-6 8l-16-21v-1c4.261 0 3.739-6 8-6 0 6.269 13 11.449 13 18l1 1v1Z"/><path fill="#C7C8CC" id="alv" d="m104 86-2 1 2-1ZM102 87l-1 1 1-1Z"/><path fill="#FF64FF" id="MB" d="M162 91v1l3-2v-3l-3 4Z"/><path fill="#039299" id="AUDpo1" d="m423 107-4 2c0-6.165-10-11.705-10-18l2-4c1.579 0 12 17.557 12 20ZM37 109h1c0-1.831 9.396-17 10-17v-1l-3-3c-1.766 0-11 15.724-11 18l3 3Z"/><path fill="#C7C8CC" id="alv" d="m101 88-1 1 1-1Z"/><path fill="#08818B" id="VISli6b" d="M87 90c0 1.712-2.571 3-4 3 0-2.618 3-1.65 3-4h1v1Z"/><path fill="#C7C8CC" id="alv" d="m99 89-1 1 1-1Z"/><path fill="#08818B" id="VISli6b" d="M376 97h1v-1c0-2.259-6-4.261-6-7h-1l-1 1 7 7Z"/><path fill="#C7C8CC" id="alv" d="m98 90-1 1 1-1ZM97 91c-1.747 0-2 .253-2 2l2-2Z"/><path fill="#C7CBCB" id="bsc" d="M161 92h1v-1l-1 1ZM308 123l3 1v-2l-1-1v-1c-1.473 0-1-1.952-1-3v-4l-1-1v-1l-1-2v-2l-1-1v-1l-1-1v-1l-2-2v-1l-2-2-1-2-2-2c0-1.712-2.571-3-4-3l5 5.5c3.254 6.507 8 11.598 8 19.5 1.714 0 1 5.594 1 7Z"/><path fill="#C7C8CC" id="alv" d="m360 91 4 4-4-4Z"/><path fill="#029199" id="AUDpo2/3" d="M413 113h1c1.947 0 2.636-3 5-3v-1c0-6.165-10-11.705-10-18h-1c0 .705-1.094 7-3 7v2c2.486 0 8 10.709 8 13ZM42 113h1c0-1.997 7.187-14 9-14v-1l-4-6c-.604 0-10 15.169-10 17l4 4Z"/><path fill="#CAC7CB" id="fiber tracts" d="M159 93h1v-1h-1v1Z"/><path fill="#C7CBCB" id="bsc" d="M160 93h1v-1h-1v1Z"/><path fill="#FF64FF" id="MB" d="m162 92-1 1v-1h1Z"/><path fill="#FF8FFF" id="SCdg" d="M188 127c0-11.981 11.516-28.508 22.5-34 5.123-2.562 14.315 1 20.5 1 4.703 0 11.052-3.224 15.5-1 10.692 5.346 21.5 22.14 21.5 34l-9-2c0-35.095-61-35.296-61 0l-10 2Z"/><path fill="#15AFB2" id="TEa6a" d="M397 115c-.697 0-3 4.976-3 5-.782 0-12.875-23-17-23v-1l4-4 16 21v2ZM59 115c4.417 0-.945 5 4 5 0-1.654 4.228-9 6-9 0-2.403 7.337-14 10-14v-1c0-.966-2.886-3-4-3-2.983 0-14.615 20-15 20l-1 2Z"/><path fill="#08818B" id="VISli6b" d="M79 97h1c1.712 0 3-2.571 3-4l-4 3v1Z"/><path fill="#C7C8CC" id="alv" d="m94 93-1 1 1-1Z"/><path fill="#CAC7CB" id="fiber tracts" d="M158 94h1v-1h-1v1Z"/><path fill="#C7CBCB" id="bsc" d="m160 93-1 1v-1h1Z"/><path fill="#C7C8CC" id="alv" d="m93 94-1 1 1-1Z"/><path fill="#CAC7CB" id="fiber tracts" d="m158 94-1 1v-1h1Z"/><path fill="#C7CBCB" id="bsc" d="M157 96v1c1.577 0 2-1.762 2-3h-1l-1 1v1Z"/><path fill="#CAC7CB" id="fiber tracts" d="m298 94 2 2-2-2Z"/><path fill="#C7C8CC" id="alv" d="m92 95-1 1 1-1ZM365 95c2.409 0 11 9.811 11 12l-11-12ZM91 96l-1 1 1-1Z"/><path fill="#CAC7CB" id="fiber tracts" d="M156 97h1v-1l-1 1Z"/><path fill="#16B0B2" id="TEa6b" d="m74 106-5 5c0-2.403 7.337-14 10-14h1l-6 9Z"/><path fill="#CAC7CB" id="fiber tracts" d="m156 97-1 1 1-1Z"/><path fill="#C7CBCB" id="bsc" d="M154 100v1c1.712 0 3-2.571 3-4h-1l-1 1-1 2Z"/><path fill="#16B0B2" id="TEa6b" d="M394 121v2c-1.159 0-8.279-16-11-16 0-3.928-7-6.566-7-10h1c4.125 0 16.218 23 17 23v1Z"/><path fill="#C7C8CC" id="alv" d="m89 98-2 1 2-1Z"/><path fill="#CAC7CB" id="fiber tracts" d="m301 98 2 2-2-2Z"/><path fill="#039298" id="AUDpo4" d="M405 98v1l-1-1h1ZM46 115h1c0-1.877 5.457-11 7-11v-1l-2-4c-1.813 0-9 12.003-9 14l3 2Z"/><path fill="#C7C8CC" id="alv" d="m87 99-2 2c1.747 0 2-.253 2-2Z"/><path fill="#7DCD4B" id="HPF" d="m145 101 2 1 1-3-3 2Z"/><path fill="#FF8FFE" id="SCdw" d="M258 125h1c0-35.095-61-35.296-61 0h1l4-7.5c7.08-14.159 24.321-21.09 39.5-13.5 5.197 2.598 10.265 11.03 12.5 15.5.608 1.216 1.184 5.5 3 5.5Z"/><path fill="#7DCD4B" id="HPF" d="m311 101-2 1-1-3 3 2Z"/><path fill="#CAC7CB" id="fiber tracts" d="M153 101h1v-1l-1 1Z"/><path fill="#039298" id="AUDpo4" d="M410 115h1l2-2c0-2.291-5.514-13-8-13-3.696 0-.241 3-2 3v2l7 10Z"/><path fill="#C7C8CC" id="alv" d="m85 101-2 2c1.747 0 2-.253 2-2Z"/><path fill="#47C83C" id="POST" d="m132 101-1 1 1-1Z"/><path fill="#7BD04A" id="DG-mo" d="m132 229 3 2c20.263 0 8-14.657 8-18h-1c0 6.078 4.663 4.837-1.5 11-.912.912-3.604 1.698-5 1-3.339-1.669-13.554-15.609-15.5-19.5-3.529-7.058-16.09-16.18-21-26-15.159-30.317 10.676-59.588 36.5-72.5 4.476-2.238 5.99 2.519 4.5 5.5l-15 14-7 13c-9.071 18.143 12 35.039 12 48.5l4 5h1v-7c-1.212 0-4-10.357-4-12v-1c-1.442 0-6-12.174-6-14v-4l-1-2v-7l1-2v-2l1-2 1-2v-1l1-1 1-1v-1l1-1 1-1c0-4.171 9.408-10.908 12-13.5l4-4.5v-12l-2-1h-13l-1 1h-1l-10 5-4.5 3-11 10c-7.19 7.19-22.564 34.372-16.5 46.5 3.104 6.208 3.856 13.712 7 20 3.762 7.523 12.921 13.842 16 20 3.305 6.61 18 13.853 18 20.5l3 2Z"/><path fill="#C7CBCB" id="bsc" d="M153 102v1l1-2h-1v1Z"/><path fill="#CAC7CB" id="fiber tracts" d="m303 101 2 2-2-2Z"/><path fill="#7BD04A" id="DG-mo" d="M322 231h1l1-1 3-3 22-24.5 7-8 10-18c8.536-17.073-1.035-43.035-13.5-55.5-2.98-2.98-13.45-14-16.5-14l-9-5c-2.978 0-6.49-1-10-1h-6l-2 1v11l5.5 7c5.103 5.103 16.5 13.315 16.5 21v1l1 2v12l-1 1v2l-1 2-1 2c0 1.623-.005 6-2 6 0 1.048.473 3-1 3l-1 2v1l-1 2-1 2v2c0 1.048.473 3-1 3v1c0 1.048.473 3-1 3v6h1c0-2.959 5-3.952 5-6-3.717 0 4.427-11.354 5-12.5 2.618-5.235 11.321-23.358 8-30-5.102-10.204-5.006-15.006-14.5-24.5l-9.5-9.5c-.516-1.032-.126-5.5 1.5-5.5 7.651 0 14.436 9.718 21 13 21.553 10.776 28.218 42.063 18.5 61.5-4.194 8.388-15.033 15.065-19 23-2.327 4.654-12.744 19.122-17.5 21.5-6.494 3.247-7.5-6.222-7.5-10-2.673 0-4.097 7.305-3 9.5 2.501 5.002 6.496 6.5 12 6.5Z"/><path fill="#CAC7CB" id="fiber tracts" d="M152 103h1v-1l-1 1Z"/><path fill="#FC8FFF" id="PAG" d="m226 153-2.5 5c-1.763.882-3.5-2.789-3.5-4 5.235 0 7.385-9.558 2.5-12-3.143-1.571-5.926 3-8.5 3l-4-7.5c-1.411-2.821-8.313-6.5-11-6.5v-6l4-7.5c7.08-14.159 24.321-21.09 39.5-13.5 5.197 2.598 10.265 11.03 12.5 15.5.608 1.216 1.184 5.5 3 5.5l-1 6c-5.683 0-14 8.289-14 14l-6.5-3c-2.76-1.38-4.158 3-5.5 3 0-6.206-2-12.193-2-18 0-3.446-2-3.15-2 0 0 7.391-1 15.983-1 24v2Z"/><path fill="#C7C8CC" id="alv" d="m83 103-1 2 1-2Z"/><path fill="#CAC7CB" id="fiber tracts" d="m152 103-1 1 1-1Z"/><path fill="#C7CBCB" id="bsc" d="M148 123c0 1.473-1.952 1-3 1l1-2c1.473 0 1-1.952 1-3v-4l1-2v-1l1-1v-3l1-1v-1l1-1v-1l1-1h1c0 5.318-4 9.802-4 16-1.579 0-1 2.855-1 4Z"/><path fill="#019197" id="AUDpo5" d="M403 103v1l-1-1h1ZM55 121h1l3-6 1-2c-3.58 0-4-5.965-4-7.5l-2-1.5c-1.543 0-7 9.123-7 11l8 6Z"/><path fill="#CAC7CB" id="fiber tracts" d="m305 104 1 1-1-1ZM151 105l-1 1 1-1Z"/><path fill="#019197" id="AUDpo5" d="M410 115c0 1.199-7.844 6-9 6l-4-6v-2c0-.74 4.986-8 6-8l7 10Z"/><path fill="#019099" id="AUDv1" d="M25 131h5c0-7.601 7-15.853 7-22l-3-3c-2.444 0-9 21.239-9 25Z"/><path fill="#CCC8CA" id="ar" d="M67 117h1l1-1 5-10-5 5-2 6Z"/><path fill="#C7C8CC" id="alv" d="m81 106-1 1 1-1Z"/><path fill="#CAC7CB" id="fiber tracts" d="m306 106 1 1-1-1Z"/><path fill="#65A83D" id="DG-sg" d="m314 214-1 1c0 3.778 1.006 13.247 7.5 10 4.756-2.378 15.173-16.846 17.5-21.5 3.967-7.935 14.806-14.612 19-23 9.718-19.437 3.053-50.724-18.5-61.5-6.564-3.282-13.349-13-21-13-1.626 0-2.016 4.468-1.5 5.5l9.5 9.5c9.494 9.494 9.398 14.296 14.5 24.5 3.321 6.642-5.382 24.765-8 30-.573 1.146-8.717 12.5-5 12.5 2.56 0 6.053-8.606 7-10.5 5.909-11.818 9-19.975 9-34.5-1.229 0-3.262-10.024-4-11.5l-11-14 2.5-.5 9.5 7.5c11.998 11.998 12.471 15.941 19 29 5.17 10.34-8.148 29.295-12 37-2.055 4.11-9.952 8.904-12 13-2.266 4.532-8.505 15.002-13.5 17.5-3.805 1.902-5.5-5.906-5.5-8h-2v1Z"/><path fill="#C7C8CC" id="alv" d="m80 107-1 1 1-1Z"/><path fill="#65A83D" id="DG-sg" d="M141 213h1c0 6.078 4.663 4.837-1.5 11-.912.912-3.604 1.698-5 1-3.339-1.669-13.554-15.609-15.5-19.5-3.529-7.058-16.09-16.18-21-26-15.159-30.317 10.676-59.588 36.5-72.5 4.476-2.238 5.99 2.519 4.5 5.5l-15 14-7 13c-9.071 18.143 12 35.039 12 48.5-3.775 0-5.671-6.842-7-9.5-8.394-16.788-9-16.327-9-35.5 0-7.294 5.939-13.379 9-19.5.418-.837 5.933-4.135 5-6-.901-1.802-3.294.294-4 1l-10 8c-5.995 5.995-21.845 27.31-17 37 2.991 5.982 3.968 12.936 7 19 5.045 10.09 16.323 17.647 21 27 3.509 7.018 16 17.693 16 3.5Z"/><path fill="#CAC7CB" id="fiber tracts" d="m150 107-1 1 1-1Z"/><path fill="#C7C8CC" id="alv" d="m377 107 6 8c-1.89 0-6-6.374-6-8Z"/><path fill="#CCC8CA" id="ar" d="M397 130v2l-2-2v-1l-1-2v-1l-1-1v-1l-2-2v-2l-2-2v-1l-2-2-4-8c2.721 0 9.841 16 11 16v1l1 1 2 5Z"/><path fill="#019099" id="AUDv1" d="M427 131h4c0-3.82-5.49-24-8-24l-4 2v1c0 2.883 8 15.807 8 21Z"/><path fill="#C7C8CC" id="alv" d="m79 108-1 1 1-1Z"/><path fill="#029198" id="AUDv2/3" d="M30 132h5c0-6.938 7-12.577 7-19l-4-4h-1c0 6.147-7 14.399-7 22v1Z"/><path fill="#C7C8CC" id="alv" d="m78 109-1 2 1-2Z"/><path fill="#CAC7CB" id="fiber tracts" d="m307 109 1 2-1-2Z"/><path fill="#029198" id="AUDv2/3" d="M427 131c-2.813 0-3.921 1-6 1v-1c0-6.666-7-12.191-7-18 1.947 0 2.636-3 5-3 0 2.883 8 15.807 8 21Z"/><path fill="#16B0B2" id="TEa6b" d="m65 120-2 1v-1c0-1.654 4.228-9 6-9l-2 6c-1.577 0-2 1.762-2 3Z"/><path fill="#C7C8CC" id="alv" d="m77 111-1 1 1-1Z"/><path fill="#CAC7CB" id="fiber tracts" d="m149 111-1 1 1-1Z"/><path fill="#C7C8CC" id="alv" d="m76 112-1 1 1-1Z"/><path fill="#CAC7CB" id="fiber tracts" d="M309 112v1l-1-1h1Z"/><path fill="#029197" id="AUDv4" d="m39 131-4 1c0-6.938 7-12.577 7-19h1l3 2c0 3.814-7 11.103-7 16Z"/><path fill="#C7C8CC" id="alv" d="m75 113-1 2 1-2Z"/><path fill="#CAC7CB" id="fiber tracts" d="M147 114v1l1-2h-1v1Z"/><path fill="#029197" id="AUDv4" d="M417 131h4c0-6.666-7-12.191-7-18h-1l-2 2c0 5.583 6 10.054 6 16Z"/><path fill="#019098" id="AUDv5" d="M39 131c3.312 0 8.038 1 12 1l4-11-8-6h-1c0 3.814-7 11.103-7 16Z"/><path fill="#029399" id="AUDpo6a" d="M60 125h1c0-1.465-.109-4 2-4v-1c-4.945 0 .417-5-4-5l-3 6 4 4Z"/><path fill="#C7C8CC" id="alv" d="m74 115-1 1 1-1Z"/><path fill="#C8C9CA" id="fp" d="m387 115 2 2-2-2Z"/><path fill="#029399" id="AUDpo6a" d="M401 122c-2.364 0-3.053 3-5 3l-2-4v-1c0-.024 2.303-5 3-5l4 6v1Z"/><path fill="#019098" id="AUDv5" d="M417 131c-3.312 0-8.038 1-12 1 0-3.804-4-6.885-4-10v-1c1.156 0 9-4.801 9-6h1c0 5.583 6 10.054 6 16Z"/><path fill="#C8C9CA" id="fp" d="m69 116-1 1 1-1Z"/><path fill="#C7C8CC" id="alv" d="m73 116-1 1 1-1Z"/><path fill="#FF64FF" id="MB" d="m308 123-1 1v-8c1.714 0 1 5.594 1 7Z"/><path fill="#C7C8CC" id="alv" d="m383 116 2 2-2-2Z"/><path fill="#CCC8CA" id="ar" d="M65 120h1l1-1v-2c-1.577 0-2 1.762-2 3Z"/><path fill="#C8C9CA" id="fp" d="m68 117-1 1v-1h1ZM71 119l-2 1c0-1.238.423-3 2-3v2Z"/><path fill="#C7C8CC" id="alv" d="m72 117-1 2v-2h1Z"/><path fill="#7ECE4A" id="DG-po" d="M114 143c-1.184 0-1.695-5.402-4.5-4-8.562 4.281-8.5 17.183-8.5 25.5 0 14.475 24.457 48.5 40 48.5 0 14.193-12.491 3.518-16-3.5-4.677-9.353-15.955-16.91-21-27-3.032-6.064-4.009-13.018-7-19-4.845-9.69 11.005-31.005 17-37l10-8c.706-.706 3.099-2.802 4-1 .933 1.865-4.582 5.163-5 6-3.061 6.121-9 12.206-9 19.5Z"/><path fill="#CAC7CB" id="fiber tracts" d="M309 117c1.473 0 1 1.952 1 3-1.473 0-1-1.952-1-3Z"/><path fill="#7ECE4A" id="DG-po" d="M343 143c-1.229 0-3.262-10.024-4-11.5l-11-14 2.5-.5 9.5 7.5c11.998 11.998 12.471 15.941 19 29 5.17 10.34-8.148 29.295-12 37-2.055 4.11-9.952 8.904-12 13-2.266 4.532-8.505 15.002-13.5 17.5-3.805 1.902-5.5-5.906-5.5-8 15.176 0 31.188-26.875 37-38.5l3-10c2.702-5.404-2.899-17.799-5-22-1.943-3.886-8-4.907-8 .5Z"/><path fill="#C8C9CA" id="fp" d="m389 118 2 2-2-2ZM67 119l-1 1 1-1Z"/><path fill="#C7C8CC" id="alv" d="M69 120v2c1.577 0 2-1.762 2-3l-2 1Z"/><path fill="#CAC7CB" id="fiber tracts" d="M147 119c-1.473 0-1 1.952-1 3 1.473 0 1-1.952 1-3Z"/><path fill="#FF64FF" id="MB" d="M148 123h1v-4c-1.579 0-1 2.855-1 4Z"/><path fill="#C7C8CC" id="alv" d="m385 119 2 2-2-2Z"/><path fill="#CCC8CA" id="ar" d="M63 124h1v-1l1-1v-2l-2 1v3Z"/><path fill="#C8C9CA" id="fp" d="m66 120-1 1v-1h1ZM60 142h1v-2l1-2v-1l1-1v-2l1-2 1-1v-1l1-2 1-1v-2l1-1 1-1v-3c-2.538 0-8 15.711-8 11l-1 2c2.176 0-1 7.407-1 9h1Z"/><path fill="#019397" id="AUDv6a" d="M51 132h6l3-7-4-4h-1l-4 11Z"/><path fill="#029298" id="AUDpo6b" d="m62 124-1 1c0-1.465-.109-4 2-4v2l-1 1Z"/><path fill="#CAC7CB" id="fiber tracts" d="m310 121 1 1-1-1Z"/><path fill="#029298" id="AUDpo6b" d="M395 125h1l-2-4v3l1 1Z"/><path fill="#C8C9CA" id="fp" d="m65 122-1 1 1-1Z"/><path fill="#C7C8CC" id="alv" d="M387 122c1.577 0 2 1.762 2 3l-2-3Z"/><path fill="#C8C9CA" id="fp" d="m391 122 2 2-2-2Z"/><path fill="#019397" id="AUDv6a" d="M399 132h6c0-3.804-4-6.885-4-10-2.364 0-3.053 3-5 3l2 5v1l1 1Z"/><path fill="#16B0B2" id="TEa6b" d="M62 124h1v-1l-1 1Z"/><path fill="#C7C8CC" id="alv" d="m69 123-1 1 1-1Z"/><path fill="#FF8EFF" id="DT" d="m143 128 2 1c2.312 0 5 .868 5-2l-1-4h-1c0 1.473-1.952 1-3 1l-2 4ZM311 129h1l1-1c0-1.048.473-3-1-3l-1-1-3-1-1 1-1 4 5 1Z"/><path fill="#CCC8CA" id="ar" d="M61 128h1v-1l1-1v-2h-1l-1 1v3Z"/><path fill="#C8C9CA" id="fp" d="m64 124-1 1v-1h1Z"/><path fill="#C7C8CC" id="alv" d="m68 124-1 1 1-1Z"/><path fill="#A9A9A8" id="AQ" d="M227 127h2c0-3.446-2-3.15-2 0Z"/><path fill="#FF64FF" id="MB" d="m311 124 1 1-1-1Z"/><path fill="#16B0B2" id="TEa6b" d="m394 124 1 1-1-1Z"/><path fill="#019198" id="AUDv6b" d="M57 132h2l2-4v-3h-1l-3 7Z"/><path fill="#FF64FF" id="MB" d="m149 137 1 2c1.355 0 4.199-3.65 7.5-2 3.959 1.98 10.41 6.795 16 4 7.938-3.969 15.959-10 25.5-10v-6h-1l-10 2c-.763 0-6.493 6.997-8.5 8-6.364 3.182-15.534-3-21.5-3l-3.5 1-4.5-6c0 2.868-2.688 2-5 2 0 2.747 4 4.56 4 8ZM307 137v2c-2.259 0-5.151-3.675-8.5-2-3.78 1.89-9.641 6.679-15 4-8.224-4.112-16.584-10-26.5-10l1-6h1l9 2c1.681 0 6.151 6.825 8.5 8 6.541 3.27 16.266-3 22.5-3 2.269 0 7 .631 7-4l5 1-4 8Z"/><path fill="#C8C9CA" id="fp" d="m393 125 1 1-1-1Z"/><path fill="#019198" id="AUDv6b" d="M397 130h1l-2-5h-1l2 5Z"/><path fill="#C8C9CA" id="fp" d="m63 126-1 1 1-1Z"/><path fill="#C7C8CC" id="alv" d="M389 126c1.948 0 4 5.428 4 7l-4-7ZM67 127l-1 1 1-1Z"/><path fill="#FF8E9D" id="SGN" d="M136 146h3l5-5 1-4c0-6.101-5-9.956-5-10-2.294 0-7 .793-7 4 0 2.306 3 11.543 3 15Z"/><path fill="#FF6F80" id="TH" d="M145 137h4c0-3.44-4-5.253-4-8l-2-1-3-1c0 .044 5 3.899 5 10Z"/><path fill="#FF64FF" id="MB" d="m226 151 5 1v-7c0-6.206-2-12.193-2-18h-2c0 7.391-1 15.983-1 24Z"/><path fill="#FF6F80" id="TH" d="m316 127-1 1 1-1Z"/><path fill="#FF8E9D" id="SGN" d="M317 146h4v-11.5c.809-1.619 2-1.471 2-3.5 0-3.207-4.706-4-7-4l-1 1-2 1c0 2.709-2 4.646-2 8l1 4 5 5Z"/><path fill="#C8C9CA" id="fp" d="m394 127 1 2-1-2Z"/><path fill="#CCC8CA" id="ar" d="M59 133h1l1-2v-3l-2 4v1Z"/><path fill="#C8C9CA" id="fp" d="m62 128-1 2v-2h1Z"/><path fill="#C7C8CC" id="alv" d="m66 128-1 2 1-2Z"/><path fill="#FF64FF" id="MB" d="M312 129h1v-1l-1 1Z"/><path fill="#FF6F80" id="TH" d="m315 128-2 1v-1h2ZM307 137h4c0-3.354 2-5.291 2-8h-2l-4 8Z"/><path fill="#16B0B2" id="TEa6b" d="M401 152h1c0-7.321-3-13.738-3-20l-1-1v-1h-1v3l2 4v1c0 4.131 2 8.96 2 14Z"/><path fill="#15B0B3" id="TEa1" d="m29 154-4 1v-24h5v1c-1.643 0-1 3.765-1 5v17Z"/><path fill="#16AFB3" id="TEa2/3" d="M36 152c0 1.714-5.594 1-7 1v-16c0-1.235-.643-5 1-5h5c0 6.642 1 14.002 1 20Z"/><path fill="#15B0B2" id="TEa4" d="M36 152h2c0-2.681-2.592-8.316-1-11.5 1.225-2.451 2-6.684 2-9.5l-4 1c0 6.642 1 14.002 1 20Z"/><path fill="#15AFB3" id="TEa5" d="M38 152h10c0-7.031 3-13.541 3-20-3.962 0-8.688-1-12-1 0 2.816-.775 7.049-2 9.5-1.592 3.184 1 8.819 1 11.5Z"/><path fill="#C7C8CC" id="alv" d="m65 131-1 1 1-1Z"/><path fill="#FE7F82" id="MGd" d="m134 148-4.5-1c-1.362.681-4.844 4-5.5 4v-5l1-2v-2l1-2 1-2v-1l1-1 1-1v-1l1-1 1-1 2-1c0 2.306 3 11.543 3 15l-2 2Z"/><path fill="#FF8FFD" id="MRN" d="M201 190v1l-10-1c-2.707 0-5.903 1-8 1 0-1.14-9.467-4-11-4-1.197 0-.827-3-6-3-10.67 0-15-16.954-15-26v-4c0-4.699-1-10.111-1-15 1.355 0 4.199-3.65 7.5-2 3.959 1.98 10.41 6.795 16 4 7.938-3.969 15.959-10 25.5-10 2.687 0 9.589 3.679 11 6.5l4 7.5 1 3-4.5-3c-7.513 3.757 6.5 16.043 6.5 9l2 2v1l1 1v1l1 2c0 1.714 2 3.482 2 6v2l-1 2v1l-1 2-2 4h-1c0-5.776-5.021-7.543-7-11.5-11.479-22.958-50.815 4.342-20.5 19.5 3.432 1.716 6.353 4 10.5 4ZM265 190h8l12-3c0-3.148 3.913-3 5-3 9.914 0 16-16.188 16-24 0-2.124-1-4.436-1-6 0-5.325 2-12.038 2-15-2.259 0-5.151-3.675-8.5-2-3.78 1.89-9.641 6.679-15 4-8.224-4.112-16.584-10-26.5-10-5.683 0-14 8.289-14 14v1l3.5-1c3.075 1.537-1.052 10.026-3 11-1.008.504-4.5.22-4.5-1h-1l-1 2v1l-1 1c0 1.238-.423 3-2 3l-1 4v2l2 4v1l1 1 1 3 2 2c0-18.947 27.189-31.123 38-9.5 4.028 8.056-6.418 14.959-11.5 17.5-1.326.663-6.5 1.002-6.5 3h6Z"/><path fill="#FE7F82" id="MGd" d="m322 148 5.5-1 4.5 3v-6l-1-2v-1c-2.52 0-3.609-10-8-10 0 2.029-1.191 1.881-2 3.5V146l1 2Z"/><path fill="#019198" id="AUDv6b" d="m398 131 1 1-1-1Z"/><path fill="#15AFB3" id="TEa5" d="M408 152h11v-14.5l-2-6.5c-3.312 0-8.038 1-12 1 0 4.331 3 12.805 3 20Z"/><path fill="#15B0B2" id="TEa4" d="M419 152h2v-21h-4l2 6.5V152Z"/><path fill="#16AFB3" id="TEa2/3" d="M421 152c0 1.684 4.679 1 6 1v-22c-2.813 0-3.921 1-6 1v20Z"/><path fill="#15B0B3" id="TEa1" d="m427 154 5 1c0-7.895-1-16.783-1-24h-4v23Z"/><path fill="#15AFB2" id="TEa6a" d="M48 152h6c0-7.411 3-13.427 3-20h-6c0 6.459-3 12.969-3 20Z"/><path fill="#16B0B2" id="TEa6b" d="M54 152h1v-1c0-4.364 2-8.259 2-12 0-1.048-.473-3 1-3 0-1.048-.473-3 1-3v-1h-2c0 6.573-3 12.589-3 20Z"/><path fill="#C7C8CC" id="alv" d="m64 132-1 2 1-2Z"/><path fill="#CBC9C7" id="or" d="M397 142c3.011 0 .047 10 4 10 0-5.04-2-9.869-2-14l-1-1v-1l-1-1v-2c-3.634 0 0 4.482 0 9Z"/><path fill="#15AFB2" id="TEa6a" d="M402 152h6c0-7.195-3-15.669-3-20h-6c0 6.262 3 12.679 3 20Z"/><path fill="#CCC8CA" id="ar" d="M58 136h1v-3c-1.473 0-1 1.952-1 3Z"/><path fill="#C8C9CA" id="fp" d="m60 133-1 1v-1h1Z"/><path fill="#CBC9C7" id="or" d="M59 142c0 4.103-1.145 9-4 9 0-4.364 2-8.259 2-12l1-2 1-1v-2l1-1c2.176 0-1 7.407-1 9Z"/><path fill="#CCC8CA" id="ar" d="M398 137h1l-2-4v2l1 1v1Z"/><path fill="#C7C8CC" id="alv" d="m393 135 1 1-1-1Z"/><path fill="#C8C9CA" id="fp" d="m397 135 1 1-1-1Z"/><path fill="#CCC8CA" id="ar" d="m58 137-1 2c0-1.048-.473-3 1-3v1Z"/><path fill="#C8C9CA" id="fp" d="m59 136-1 1v-1h1Z"/><path fill="#C7C8CC" id="alv" d="m63 136-1 1 1-1Z"/><path fill="#FF8D9D" id="POL" d="M144 141c0 6.441.849 13 7 13 0-4.699-1-10.111-1-15l-1-2h-4l-1 4ZM312 141c0 3.641-.095 12.297-3.5 14l-3.5-1c0-5.325 2-12.038 2-15v-2h4l1 4Z"/><path fill="#C7C8CC" id="alv" d="m394 137 1 2-1-2Z"/><path fill="#C8C9CA" id="fp" d="M399 137v1l-1-1h1Z"/><path fill="#C7C8CC" id="alv" d="m62 138-1 2 1-2Z"/><path fill="#7ECF49" id="CA3" d="M141 211v2c-15.543 0-40-34.025-40-48.5 0-8.317-.062-21.219 8.5-25.5 2.805-1.402 3.316 4 4.5 4 0 19.173.606 18.712 9 35.5 1.329 2.658 3.225 9.5 7 9.5l4 5 1 3 1 1v1l1 2v1c0 1.32 3.135 10 4 10ZM317 206l-1 7c15.176 0 31.188-26.875 37-38.5l3-10c2.702-5.404-2.899-17.799-5-22-1.943-3.886-8-4.907-8 .5 0 14.525-3.091 22.682-9 34.5-.947 1.894-4.44 10.5-7 10.5 0 2.048-5 3.041-5 6l-1 1v2l-1 2-1 2c0 1.424-.362 5-2 5Z"/><path fill="#C7C8CC" id="alv" d="m396 142 1 3c-1.638 0-2-3.576-2-5l1 2Z"/><path fill="#FF6F80" id="TH" d="m144 170 1 2c0-1.41 5.452-14 6-14v-4c-6.151 0-7-6.559-7-13l-5 5c1.059 0 2 6.743 2 8 8.06 0 3 12.705 3 16ZM313 171l-1 2-6-13c0-2.124-1-4.436-1-6l3.5 1c3.405-1.703 3.5-10.359 3.5-14l5 5c0 2.723-1 5.778-1 9-9.998 0-3 11.364-3 16Z"/><path fill="#C8CBCC" id="ec" d="m82 223 5 4c0-4.408-18-17.569-18-26v-1c-2.236 0-3.287-5.074-4-6.5-3.952-7.904-8-18.69-8-28 0-1.607.92-12.5 2-12.5v-6l1-2v-3h-1c0 4.103-1.145 9-4 9v16c.816 0 2 7.019 2 8 0 12.489 8.777 23.054 14 33.5L81 222l1 1Z"/><path fill="#C7C8CC" id="alv" d="m61 142-1 2v-2h1Z"/><path fill="#FD8FFD" id="ND" d="M219 154h1c5.235 0 7.385-9.558 2.5-12-3.143-1.571-5.926 3-8.5 3l1 3v2l1 1 1 1v1l2 1ZM237 154h1l1-1 1-2 1-1v-1l1-1 1-2v-1l-6.5-3c-2.76-1.38-4.158 3-5.5 3v5c2.317 0 2.674 4 6 4Z"/><path fill="#C8CBCC" id="ec" d="M385 205v2c4.427 0 14-26.131 14-31l1-1c0-1.235-.643-5 1-5v-18c-3.953 0-.989-10-4-10h-1l1 3v5c1.684 0 1 4.679 1 6v2c2.001 0 1.404 17-1 17 0 3.127-3.35 18-6 18 0 1.465.109 4-2 4l-1 2-1 2-1 2-1 2Z"/><path fill="#C7C8CC" id="alv" d="m60 145-1 2 1-2Z"/><path fill="#FF90FD" id="INC" d="M217 153v1c0 7.043-14.013-5.243-6.5-9l4.5 3v2l1 1 1 1v1ZM239 153v2c0 1.22 3.492 1.504 4.5 1 1.948-.974 6.075-9.463 3-11l-3.5 1-1 2-1 1v1l-1 1-1 2Z"/><path fill="#FD7F83" id="MGm" d="M141 154c0 3.282-4.759 9-8 9l2-4.5c1.489-2.977-1-8.046-1-10.5l2-2h3c1.059 0 2 6.743 2 8Z"/><path fill="#FF8FFD" id="MRN" d="m243 146-1 2 1-2Z"/><path fill="#FD7F83" id="MGm" d="M316 155c0 2.904 3.775 8 7 8l-2-6.5c-1.284-2.568 1-6.486 1-8.5l-1-2h-4c0 2.723-1 5.778-1 9Z"/><path fill="#FE7E83" id="MGv" d="m133 163-2 1-2-1-4-4v-4l-1-2v-2c.656 0 4.138-3.319 5.5-4l4.5 1c0 2.454 2.489 7.523 1 10.5l-2 4.5ZM325 164h2l1-1h1l1-2 1-2v-2l1-1v-6l-4.5-3-5.5 1c0 2.014-2.284 5.932-1 8.5l2 6.5 2 1Z"/><path fill="#FF8FFD" id="MRN" d="m242 148-1 1 1-1ZM215 150l1 1-1-1Z"/><path fill="#FC8FFF" id="PAG" d="m237 155-3.5 4-2.5-2v-7c2.317 0 2.674 4 6 4v1Z"/><path fill="#FF8FFD" id="MRN" d="m241 150-1 1 1-1Z"/><path fill="#C7C8CC" id="alv" d="M397 150c1.684 0 1 4.679 1 6-1.684 0-1-4.679-1-6Z"/><path fill="#0D9E90" id="ECT5" d="m43 166 7 1c0-5.078-2-9.472-2-15H38c0 5.127 5 9.327 5 14Z"/><path fill="#CBCBCC" id="mlf" d="m216 151 1 1-1-1Z"/><path fill="#FE8FFC" id="EW" d="M226 153c0 6.844 5 13.251 5 4v-5l-5-1v2Z"/><path fill="#CBCBCC" id="mlf" d="m240 151-1 2 1-2Z"/><path fill="#0D9E90" id="ECT5" d="M413 166h1l5-14h-11c0 4.206-2 10.368-2 15l7-1Z"/><path fill="#0D9F91" id="ECT2/3" d="M34 167h1l8-1c0-4.673-5-8.873-5-14h-2c0 1.714-5.594 1-7 1v1c0 5.187 5 8.619 5 13Z"/><path fill="#0E9F91" id="ECT6a" d="M51 167h4v-6c-1.751 0-1-7.426-1-9h-6c0 5.528 2 9.922 2 15h1Z"/><path fill="#0E9F90" id="ECT6b" d="M55 152v9c-1.751 0-1-7.426-1-9h1ZM401 167h1v-15h-1v15Z"/><path fill="#0E9F91" id="ECT6a" d="M402 167h4c0-4.632 2-10.794 2-15h-6v15Z"/><path fill="#0D9F91" id="ECT2/3" d="M421 167h2c0-4.608 4-7.675 4-13v-1c-1.321 0-6 .684-6-1h-2l-5 14 7 1Z"/><path fill="#C7C8CC" id="alv" d="M59 153c-1.08 0-2 10.893-2 12.5 0 9.31 4.048 20.096 8 28 .713 1.426 1.764 6.5 4 6.5 0-3.119-6.302-16.105-8-19.5-3.589-7.178-2-18.944-2-27.5Z"/><path fill="#CBCBCC" id="mlf" d="M219 154v2l-2-2v-1l2 1Z"/><path fill="#FF64FF" id="MB" d="M223 167h1l1-1c0-2.495 6-2.852 6-1l2 1 1-4c0-1.238.423-3 2-3l1-1v-3l-3.5 4-2.5-2c0 9.251-5 2.844-5-4l-2.5 5c-1.763.882-3.5-2.789-3.5-4h-1v3l1 1v1c.896 0 3.026 2 1 2 0 1.714 2 3.482 2 6Z"/><path fill="#CBCBCC" id="mlf" d="M238 155h1v-2l-1 1v1Z"/><path fill="#0D9F90" id="ECT1" d="m34 167-3 2c0-1.43-6-7.121-6-14l4-1c0 5.187 5 8.619 5 13Z"/><path fill="#FE8D9E" id="PIL" d="m134 169 3.5 3c2.555 1.278 4.516-2 6.5-2 0-3.295 5.06-16-3-16 0 3.282-4.759 9-8 9l-2 1v2l3 3Z"/><path fill="#FF64FF" id="MB" d="M237 155h1v-1h-1v1Z"/><path fill="#FE8D9E" id="PIL" d="m322 170-3.5 2-5.5-1c0-4.636-6.998-16 3-16 0 2.904 3.775 8 7 8l2 1v3c-1.747 0-2 .253-2 2l-1 1Z"/><path fill="#0D9F90" id="ECT1" d="m423 167 2 2c3.953 0 7-10.873 7-14l-5-1c0 5.325-4 8.392-4 13Z"/><path fill="#CBCBCC" id="mlf" d="m238 155-1 2v-2h1Z"/><path fill="#FE90FD" id="RN" d="M201 190h2l1-1h2l1-1h1l1-1h1l1-1h1l1-1 1-1c1.712 0 3-2.571 3-4l1-2c0-5.776-5.021-7.543-7-11.5-11.479-22.958-50.815 4.342-20.5 19.5 3.432 1.716 6.353 4 10.5 4Z"/><path fill="#CBCBCC" id="mlf" d="m219 157 1 1-1-1Z"/><path fill="#FE90FD" id="RN" d="M255 190h4c0-1.998 5.174-2.337 6.5-3 5.082-2.541 15.528-9.444 11.5-17.5-10.811-21.623-38-9.447-38 9.5l1 3 3 3h1l2 2h1l2 1 3 1 1 1h2Z"/><path fill="#FF64FF" id="MB" d="M166 184v3c-.663 0-14.541-8.021-16.5-9-5.217-2.609-7.742 4-10.5 4l-2-7c3.013 0 8 1.144 8-3 0-1.41 5.452-14 6-14 0 9.046 4.33 26 15 26Z"/><path fill="#CBCBCC" id="mlf" d="m237 158-1 1 1-1Z"/><path fill="#C7C8CC" id="alv" d="M398 158c2.001 0 1.404 17-1 17l1-17Z"/><path fill="#CBCBCC" id="mlf" d="M220 159c.896 0 3.026 2 1 2l-1-2ZM236 159c-1.577 0-2 1.762-2 3 1.577 0 2-1.762 2-3Z"/><path fill="#FF64FF" id="MB" d="m290 184 1 2c1.828 0 26-16.71 26-3 .816 0 2-7.019 2-8-1.851 0-7 .867-7-2l-6-13c0 7.812-6.086 24-16 24Z"/><path fill="#FF6F80" id="TH" d="M129 165h2v-1l-2-1v2ZM328 163l-1 1 1-1Z"/><path fill="#FEA6FF" id="RL" d="M233 180v1l-4-1c0-1.399-2-1.399-2 0l-4 1v-3l1-1 1-10v-1c0-2.495 6-2.852 6-1v1l2 14Z"/><path fill="#FF6F80" id="TH" d="m327 165-2 1v-2h2v1Z"/><path fill="#FF64FF" id="MB" d="M133 175h3l-2-4c-1.077 0-3-3.762-3-5v-1h-2l2 8v1l2 1Z"/><path fill="#CACAC7" id="dtd" d="M233 166v2l-2-2v-1l2 1Z"/><path fill="#FF64FF" id="MB" d="M323 177h1l1-2v-1l1-2c0-1.048-.473-3 1-3v-4l-2 1v1l-2 2-1 2-1 4c1.747 0 2 .253 2 2Z"/><path fill="#0E9583" id="PERI2/3" d="m41 178-7 1 3-6.5-2-5.5 8-1 3 11-5 1Z"/><path fill="#0F9684" id="PERI5" d="M46 177h1l5-1-1-9h-1l-7-1 3 11Z"/><path fill="#FF6F80" id="TH" d="M134 169v2c-1.077 0-3-3.762-3-5l3 3Z"/><path fill="#CACAC7" id="dtd" d="M224 167h1v-1l-1 1Z"/><path fill="#C8C8C8" id="mtg" d="m237 183-2 1v-1l-1-1v-1l-1-1-2-14 2 2v3l1 2v1c0 1.105 2.294 9 3 9Z"/><path fill="#0F9684" id="PERI5" d="M409 177h1c0-3.58 3-6.832 3-11l-7 1-2 9 5 1Z"/><path fill="#0E9583" id="PERI2/3" d="M416 178c1.564 0 3.876 1 6 1l-2-4.5 1-7.5-7-1h-1c0 4.168-3 7.42-3 11l6 1Z"/><path fill="#0E9584" id="PERI1" d="M33 179h1l3-6.5-2-5.5h-1l-3 2c0 5.663-4 7.664-4 11l6-1Z"/><path fill="#0E9684" id="PERI6a" d="m55 175-3 1-1-9h4v8Z"/><path fill="#0E9683" id="PERI6b" d="M55 175h2c0-.981-1.184-8-2-8v8Z"/><path fill="#CACAC7" id="dtd" d="M223 169v1c1.473 0 1-1.952 1-3h-1v2Z"/><path fill="#C8C8C8" id="mtg" d="M221 184v1l-1-2 2-9c1.473 0 1-1.952 1-3v-1c1.473 0 1-1.952 1-3h1l-1 10-1 1v3l-1 1v1l-1 1Z"/><path fill="#FF6F80" id="TH" d="M325 167c-1.747 0-2 .253-2 2l2-2Z"/><path fill="#0E9683" id="PERI6b" d="m402 167-1 1v-1h1Z"/><path fill="#0E9684" id="PERI6a" d="m401 175 3 1 2-9h-4l-1 1v7Z"/><path fill="#0E9584" id="PERI1" d="m423 179 7 1c0-2.909-5-4.821-5-11l-2-2h-2l-1 7.5 2 4.5h1Z"/><path fill="#FF64FF" id="MB" d="m233 171 2 1-2-4v3Z"/><path fill="#FD7F84" id="PP" d="M136 175h1c3.013 0 8 1.144 8-3l-1-2c-1.984 0-3.945 3.278-6.5 2l-3.5-3v2l2 4Z"/><path fill="#FF64FF" id="MB" d="M222 171h1v-2l-1 2Z"/><path fill="#FF6F80" id="TH" d="M322 170v1l1-2-1 1Z"/><path fill="#FD7F84" id="PP" d="M319 175h2l1-4v-1l-3.5 2-5.5-1-1 2c0 2.867 5.149 2 7 2Z"/><path fill="#0E9683" id="PERI6b" d="M400 175h1v-5c-1.643 0-1 3.765-1 5Z"/><path fill="#CACAC7" id="dtd" d="M222 172v2c1.473 0 1-1.952 1-3h-1v1ZM234 173h1v-1l-2-1 1 2Z"/><path fill="#FF64FF" id="MB" d="M221 174h1v-2l-1 2ZM234 174h2l-1-1h-1v1Z"/><path fill="#C8C8CC" id="tspc" d="M218 180c0 2.003-.293 3 2 3l2-9h-1l-2 4-1 2ZM237 177c0 2.386 3.412 6 0 6-.706 0-3-7.895-3-9h2l1 3Z"/><path fill="#32B824" id="ENTl6a" d="m81 223-4 1c0-5.176-7.602-8.705-10-13.5-5.635-11.27-15-20.952-15-34.5l3-1h2c0 12.489 8.777 23.054 14 33.5L81 222v1Z"/><path fill="#CCCAC7" id="cpd" d="m198 227-1 4-4.5 2c-3.873 1.936-13.998-.499-17-2l-13.5-9-1-1h-1c0-1.577-1.762-2-3-2-6.319 0-16.505-17.511-19-22.5-.763-1.526-.84-8.5-3-8.5v-2l-2-11h4l2 7c0 28.312 24.411 39 50 39 0 1.353 4.643 2 6 2l3 4ZM259 227v3c0 2.54 6.843 3 9 3 11.935 0 21.45-10 25-10l1-1 1-1 3-1 1-1c7.188 0 16.324-15.148 19-20.5.759-1.517 1.054-9.5 3-9.5v-4l1-1v-3l1-1v-3c0-1.747-.253-2-2-2h-2c0 .981-1.184 8-2 8 0 28.19-24.173 38-50 38 0 1.353-4.643 2-6 2l-2 4Z"/><path fill="#C7C8CC" id="alv" d="m397 175-2 3.5c-1.575 3.151-4 11.013-4 14.5 2.65 0 6-14.873 6-18Z"/><path fill="#0E9683" id="PERI6b" d="m400 175-1 1 1-1Z"/><path fill="#32B824" id="ENTl6a" d="m375 223 4 1c0-5.301 9.947-11.395 12-15.5 5.308-10.616 13-19.679 13-32.5l-3-1h-1l-1 1c0 4.869-9.573 31-14 31l-1 2-1 1v1l-1 1-1 1-1 2-1 1c0 1.238-.423 3-2 3l-1 1-1 1v2Z"/><path fill="#31B824" id="ENTl5" d="m75 227-7 1-13-18.5c-5.418-10.836-8-19.202-8-32.5l5-1c0 13.548 9.365 23.23 15 34.5 2.398 4.795 10 8.324 10 13.5l-1 2-1 1ZM382 227l6 1 9-12.5c7.606-15.213 12-19.616 12-38.5l-5-1c0 12.821-7.692 21.884-13 32.5-2.053 4.105-12 10.199-12 15.5l1 1 2 2Z"/><path fill="#32B725" id="ENTl3" d="M68 228c0 1.059-6.743 2-8 2-1.546 0-6.22-7.94-7-9.5-4.786-9.572-8.276-19.552-13-29l1-13.5 5-1h1c0 13.298 2.582 21.664 8 32.5L68 228Z"/><path fill="#FF64FF" id="MB" d="m224 177-1 1 1-1Z"/><path fill="#FF64FF" id="MB" fill-rule="evenodd" d="M239 189v4.5c.86 1.72 11.887 10.306 13.5 9.5 1.827-.914-.026-5.552-.5-6.5-3.003-6.006-5.355-7.5-13-7.5m11 41c-3.157 0-5.481 2-9 2l5-4.5c2.202-4.404-2-10.166-2-13.5 0-4.96-7-6.795-7-11 0-2.903 1.614-5.272 0-8.5l-4-3.5c2.867 0 2-5.149 2-7l2-1c3.412 0 0-3.614 0-6l2 2 1 3 3 3h1l2 2h1l2 1 3 1 1 1h2v1c0 2.896.236 10.868 4.5 13 2.841 1.42 10.5-1.7 10.5-5 4.318 0 8.205-4 2-4l1-5 12-3v6l-5 6c-1.452 0-8 8.814-8 11h-1c0-1.549 1-3.551 1-4.5 0-7.584-8.117 2.309-10.5 3.5-4.323 2.161-11.767-2.966-14.5 2.5-3.047 6.095 3 13.715 3 18.5Z"/><path fill="#32B725" id="ENTl3" d="M388 228c0 .041 8.389 3 9 3 0-4.974 7.792-11.084 10-15.5 4.104-8.208 5.885-17.77 10-26l-1-11.5-6-1h-1c0 18.884-4.394 23.287-12 38.5l-9 12.5Z"/><path fill="#32B825" id="ENTl2" d="M60 230c0 1.4-9.182 3-11 3l-3-3.5-3-7c-5.024-10.048-6.928-21.855-12-32l2-11.5h1l7-1-1 13.5c4.724 9.448 8.214 19.428 13 29 .78 1.56 5.454 9.5 7 9.5Z"/><path fill="#FF8DFD" id="SNr" d="M192 219c0 1.577-1.762 2-3 2-25.589 0-50-10.688-50-39 2.758 0 5.283-6.609 10.5-4 1.959.979 15.837 9 16.5 9 1.886 0 2.556 6 6 6l4 6c-1.579 0-1 2.855-1 4 0 5.059 10 14.736 10 8 2.073 0 7 6.148 7 8Z"/><path fill="#FF8FFD" id="MRN" d="M217 180h1v-2l-1 2Z"/><path fill="#FF64FF" id="MB" d="m219 178-1 2v-2h1Z"/><path fill="#FF8DFD" id="SNr" d="m264 219 3 2c25.827 0 50-9.81 50-38 0-13.71-24.172 3-26 3 0 1.338-4.41 7-6 7l-5 6c7.51 0-8 22.12-8 11h-1c0 3.598-7 5.782-7 9Z"/><path fill="#32B825" id="ENTl2" d="M397 231c3.982 0 6.704 2 11 2l5-9.5c4.899-9.799 7.035-21.069 12-31 2.087-4.174-2-9.81-2-13.5h-1c-2.124 0-4.436-1-6-1l1 11.5c-4.115 8.23-5.896 17.792-10 26-2.208 4.416-10 10.526-10 15.5Z"/><path fill="#32B722" id="ENTl1" d="m49 233-4 1c-3.523 0-4.895-10.291-6-12.5l-12-29c-.774-1.548-1.448-12.5 0-12.5l6-1-2 11.5c5.072 10.145 6.976 21.952 12 32l3 7 3 3.5Z"/><path fill="#FF64FF" id="MB" d="M227 180h2c0-1.399-2-1.399-2 0Z"/><path fill="#32B722" id="ENTl1" d="m408 233 4 1 6-11.5c5.793-11.585 12-28.629 12-42.5l-7-1c0 3.69 4.087 9.326 2 13.5-4.965 9.931-7.101 21.201-12 31l-5 9.5Z"/><path fill="#FF64FF" id="MB" fill-rule="evenodd" d="M210 189c0 2.016-9.408 6.685-6 13.5 1.149 2.297 4.216-1.216 5-2 2.935-2.935 9-5.375 9-10 0-2.329-6.61-1.5-8-1.5m5 44h2c0-.765-6.059-4.618-7-6.5l1-10.5 1-1 1-1v-1c0-4.897 6-6.064 6-10v-7.5l4-4.5c0-1.714-2-3.482-2-6l-1-2c-2.293 0-2-.997-2-3h-1c0 1.429-1.288 4-3 4l-1 1-1 1h-1l-1 1h-1l-1 1h-1l-1 1h-2l-1 1h-2v1c1.156 0 1.472 2.555 1 3.5-1.623 3.246-2.226 7.863-5.5 9.5-4.822 2.411-8.109-5-10.5-5 0 2.195-10.282-4-1-4l-2-4c0-1.14-9.467-4-11-4v6l4 6c1.758 0 7 7.424 7 9l2 1c0-11.085 4.597-2.951 10.5 0 3.283 1.642 11.544-2.412 13.5 1.5 2.834 5.668-2 14.702-2 19.5 1.131 0 8 2.049 8 3Z"/><path fill="#CACBC9" id="vtd" d="M223 191h10c2.867 0 2-5.149 2-7v-1l-1-1v-1h-1l-4-1h-2l-4 1-1 1v1l-1 1v1c0 2.518 2 4.286 2 6Z"/><path fill="#FF64FF" id="MB" d="M233 181h1l-1-1v1ZM322 181h1v-1l-1 1ZM223 181l-1 1 1-1ZM234 182l1 1-1-1Z"/><path fill="#FF8FFD" id="MRN" d="m240 182 3 3-3-3Z"/><path fill="#FFA6FD" id="SNc" d="M172 187v6c-3.444 0-4.114-6-6-6v-3c5.173 0 4.803 3 6 3Z"/><path fill="#FF64FF" id="MB" d="m222 183-1 1 1-1Z"/><path fill="#FFA6FD" id="SNc" d="M285 187v6c1.59 0 6-5.662 6-7l-1-2c-1.087 0-5-.148-5 3Z"/><path fill="#FF8FFD" id="MRN" d="m214 184-1 1 1-1Z"/><path fill="#FF64FF" id="MB" d="M321 185h1v-1l-1 1Z"/><path fill="#FF8FFD" id="MRN" d="m213 185-1 1 1-1ZM244 185l2 2-2-2ZM211 186l-1 1 1-1ZM209 187l-1 1 1-1ZM247 187l2 1-2-1ZM207 188l-1 1 1-1ZM204 189l-1 1 1-1Z"/><path fill="#C8C8CB" id="rust" d="M210 189c0 2.016-9.408 6.685-6 13.5 1.149 2.297 4.216-1.216 5-2 2.935-2.935 9-5.375 9-10 0-2.329-6.61-1.5-8-1.5ZM239 189v4.5c.86 1.72 11.887 10.306 13.5 9.5 1.827-.914-.026-5.552-.5-6.5-3.003-6.006-5.355-7.5-13-7.5Z"/><path fill="#FF8FFD" id="MRN" d="m252 189 1 1-1-1Z"/><path fill="#FD8FFF" id="RR" d="m185 195 1 1c4.683 0 5-1.809 5-6-2.707 0-5.903 1-8 1l2 4Z"/><path fill="#FE8DFF" id="VTA" d="M186 196v3c2.391 0 5.678 7.411 10.5 5 3.274-1.637 3.877-6.254 5.5-9.5.472-.945.156-3.5-1-3.5l-10-1c0 4.191-.317 6-5 6Z"/><path fill="#FF8FFD" id="MRN" d="M259 190c0 1.579-2.855 1-4 1v-1h4Z"/><path fill="#FE8DFF" id="VTA" d="M270 197v2c0 3.3-7.659 6.42-10.5 5-4.264-2.132-4.5-10.104-4.5-13 1.145 0 4 .579 4-1h6c0 2.205.563 7 5 7Z"/><path fill="#FD8FFF" id="RR" d="m271 196-1 1c-4.437 0-5-4.795-5-7h8l-1 5-1 1Z"/><path fill="#FFA6FF" id="IF" d="m237 203-3 1-4-2h-3l-5 2-3-1v-7.5l4-4.5h10l4 3.5c1.614 3.228 0 5.597 0 8.5Z"/><path fill="#7DCD4B" id="HPF" d="M135 196h1c0-1.048.473-3-1-3h-1l1 3Z"/><path fill="#C7C8CC" id="alv" d="m391 193-2 4c2.109 0 2-2.535 2-4Z"/><path fill="#7DCD4B" id="HPF" d="m322 194-1 1v-1h1Z"/><path fill="#CACCC8" id="ml" d="M186 196v3c0 2.195-10.282-4-1-4l1 1ZM270 197v2c4.318 0 8.205-4 2-4l-1 1-1 1Z"/><path fill="#7DCD4B" id="HPF" d="M320 197h1v-2l-1 2Z"/><path fill="#C7C8CC" id="alv" d="M136 196v1l-1-1h1Z"/><path fill="#FE8DFF" id="VTA" d="m271 196-1 1 1-1Z"/><path fill="#C7C8CC" id="alv" d="m321 197-1 2v-2h1ZM389 197l-1 2 1-2ZM136 198l1 2-1-2Z"/><path fill="#FFA6FD" id="SNc" d="M185 210v1c0 6.736-10-2.941-10-8 0-1.145-.579-4 1-4 1.758 0 7 7.424 7 9l2 2ZM280 199c7.51 0-8 22.12-8 11 0-2.186 6.548-11 8-11Z"/><path fill="#C7C8CC" id="alv" d="m320 199-1 2 1-2ZM388 199l-1 2 1-2ZM109 241h1c0-2.13-6.044-3.272-7.5-4L87 224.5c-5.095-5.095-10.94-10.88-14-17-.735-1.47-1.53-6.5-4-6.5 0 8.431 18 21.592 18 26h1l4 4h1l4 4h1l10 6h1ZM137 201c2.271 0 4 7.839 4 10-.865 0-4-8.68-4-10Z"/><path fill="#FEA6FE" id="IPA" fill-rule="evenodd" d="M230 209c0 11.122 5.845 0 0 0m-5 0-2 2.5c-3.439 6.878 8.317-2.5 2-2.5m-3 7h13v-6c-3.389 0-5-5.472-5-8h-3c0 2.312-2.847 9-6 9l1 5Z"/><path fill="#C7C8CC" id="alv" d="M319 201c-1.638 0-2 3.576-2 5 1.638 0 2-3.576 2-5ZM387 201l-1 2 1-2Z"/><path fill="#CACCC8" id="ml" d="m201 229 6 1c0-4.798 4.834-13.832 2-19.5-1.956-3.912-10.217.142-13.5-1.5-5.903-2.951-10.5-11.085-10.5 0v2c2.073 0 7 6.148 7 8 1.712 0 3 2.571 3 4l3 4 3 2Z"/><path fill="#FEA4FF" id="IPDM" d="m219 208 2 3c3.153 0 6-6.688 6-9l-5 2-3 4ZM237 208c0 1.747-.253 2-2 2-3.389 0-5-5.472-5-8l4 2 3 4Z"/><path fill="#CACCC8" id="ml" d="m255 229-5 1c0-4.785-6.047-12.405-3-18.5 2.733-5.466 10.177-.339 14.5-2.5 2.383-1.191 10.5-11.084 10.5-3.5 0 .949-1 2.951-1 4.5 0 3.598-7 5.782-7 9l-3 4-2 4-4 2Z"/><path fill="#FF8EFE" id="PN" d="M213 213h1l5-5 3-4-3-1c0 3.936-6 5.103-6 10ZM242 213l2 1c0-4.96-7-6.795-7-11l-3 1 3 4 5 5Z"/><path fill="#C7C8CC" id="alv" d="m386 203-1 2 1-2ZM383 209h1l1-2v-2c-2.109 0-2 2.535-2 4ZM315 213h1l1-7c-1.014 0-2 3.959-2 5v2Z"/><path fill="#C8CBCC" id="ec" d="m385 207-1 2 1-2Z"/><path fill="#FF8DFD" id="SNr" d="M185 209v1l-2-2 2 1Z"/><path fill="#FDA6FE" id="IPDL" d="m222 217-5 1-3-5 5-5 2 3 1 5v1ZM235 217l4 1 3-5-5-5c0 1.747-.253 2-2 2v7Z"/><path fill="#FFA4FE" id="IPR" d="m225 209-2 2.5c-3.439 6.878 8.317-2.5 2-2.5ZM230 209c0 11.122 5.845 0 0 0Z"/><path fill="#C7C8CC" id="alv" d="M381 212h1l1-1v-2c-1.577 0-2 1.762-2 3Z"/><path fill="#C8CBCC" id="ec" d="m384 209-1 1v-1h1Z"/><path fill="#7DCD4B" id="HPF" d="M142 213h1l-2-2v2h1ZM314 213h1v-2l-1 2Z"/><path fill="#C8CBCC" id="ec" d="m383 211-1 1 1-1Z"/><path fill="#C7C8CC" id="alv" d="M380 213h1v-1l-1 1Z"/><path fill="#C8CBCC" id="ec" d="m382 212-1 1v-1h1Z"/><path fill="#FEA5FF" id="IPL" d="m220 234 3 1-1-2c0-2.323-5-9.185-5-15l-3-5h-1v1l-1 1-1 1-1 10.5c.941 1.882 7 5.735 7 6.5h2l1 1ZM234 234h3l2-1 2-1 5-4.5c2.202-4.404-2-10.166-2-13.5l-2-1-3 5c0 3.161-.992 15-5 15v1Z"/><path fill="#7DCD4B" id="HPF" d="M313 214h1v-1l-1 1Z"/><path fill="#C7C8CC" id="alv" d="m379 216-2 1c0-1.429 1.288-4 3-4v2l-1 1Z"/><path fill="#C8CBCC" id="ec" d="m381 213-1 2v-2h1Z"/><path fill="#FFA6FE" id="IPN" d="m213 214-1 1 1-1Z"/><path fill="#7BD04A" id="DG-mo" d="m314 214-1 1v-1h1Z"/><path fill="#FFA6FE" id="IPN" d="m212 215-1 1 1-1Z"/><path fill="#C8CBCC" id="ec" d="m380 215-1 1 1-1Z"/><path fill="#FFA5FE" id="IPC" d="M223 235h10l1-1v-1c0-4.183 1-11.584 1-16v-1h-13v1c0 4.706-1.28 7.941 1 12.5.472.945.156 3.5-1 3.5l1 2Z"/><path fill="#C8CBCC" id="ec" d="M377 217v2c1.577 0 2-1.762 2-3l-2 1Z"/><path fill="#FEA6FD" id="IPI" d="M217 218c0 5.815 5 12.677 5 15 1.156 0 1.472-2.555 1-3.5-2.28-4.559-1-7.794-1-12.5l-5 1ZM239 218c0 3.161-.992 15-5 15 0-4.183 1-11.584 1-16l4 1Z"/><path fill="#C7C8CC" id="alv" d="M373 222h1l1-1 1-1 1-1v-2c-1.811 0-4 3.438-4 5Z"/><path fill="#FF64FF" id="MB" d="M157 219c1.238 0 3 .423 3 2l-3-2ZM189 221c0 1.353 4.643 2 6 2 0-1.429-1.288-4-3-4 0 1.577-1.762 2-3 2ZM267 221c0 1.353-4.643 2-6 2l3-4 3 2ZM299 219l-1 1 1-1Z"/><path fill="#C8CBCC" id="ec" d="m377 219-1 1 1-1ZM376 220l-1 1 1-1Z"/><path fill="#FF64FF" id="MB" d="m161 221 1 1-1-1ZM295 221l-1 1 1-1Z"/><path fill="#C8CBCC" id="ec" d="M374 222h1v-1l-1 1Z"/><path fill="#8AD987" id="CTXsp" d="M81 223h1l-1-1v1Z"/><path fill="#FF64FF" id="MB" d="m294 222-1 1 1-1Z"/><path fill="#C7C8CC" id="alv" d="M372 223h1v-1l-1 1Z"/><path fill="#C8CBCC" id="ec" d="M373 223h1v-1h-1v1Z"/><path fill="#8AD987" id="CTXsp" d="M374 223h1v-1h-1v1Z"/><path fill="#A0ED9D" id="EPv" d="m89 229-2 1c-1.928 0-10-.112-10-2l-1-2 1-2 4-1h1l5 4h1l1 2Z"/><path fill="#C7C8CC" id="alv" d="M371 224h1v-1l-1 1Z"/><path fill="#C8CBCC" id="ec" d="m373 223-1 1v-1h1Z"/><path fill="#A0ED9D" id="EPv" d="m368 229 1 1c4.078 0 7.622-2 11-2v-3l-1-1-4-1h-2l-1 1-1 1-1 1-1 1-1 1v1Z"/><path fill="#C7C8CC" id="alv" d="M370 225h1v-1l-1 1Z"/><path fill="#C8CBCC" id="ec" d="m372 224-1 1v-1h1Z"/><path fill="#C7C8CC" id="alv" d="M366 229h1l1-1 1-1 1-1v-1c-1.562 0-5 2.189-5 4h1Z"/><path fill="#C8CBCC" id="ec" d="m371 225-1 1v-1h1Z"/><path fill="#99D2BD" id="OLF" d="m382 227-2 1v-3l2 2ZM75 227l2 1-1-2-1 1Z"/><path fill="#C8CBCC" id="ec" d="m370 226-1 1 1-1Z"/><path fill="#A8ECD2" id="TR" d="M99 251c-6.997 0-7.86 11-14 11-10.304 0-27.066-7.632-32-17.5-1.943-3.886-8-5.838-8-10.5l4-1c1.818 0 11-1.6 11-3 1.257 0 8-.941 8-2l7-1 2 1c0 1.888 8.072 2 10 2 0 1.579 2.855 1 4 1h1l1 1 4 3h1l4 4 1 1c0 4.468-4 8.028-4 11Z"/><path fill="#C8CBCC" id="ec" d="M91 231h1l-4-4 1 2 2 2Z"/><path fill="#33B931" id="HATA" d="M111 243c6.005 0 10.767 7 17 7l6-17-2-4-3-2c0 4.005-18 10.963-18 14v2Z"/><path fill="#FF64FF" id="MB" d="m201 229-4 2 1-4 3 2ZM255 229l4 1v-3l-4 2Z"/><path fill="#33B931" id="HATA" d="m345 243-16 7c-1.296 0-6-14.973-6-18v-1l1-1 3-3c0 1.652 16.885 13 19 13v2l-1 1Z"/><path fill="#C8CBCC" id="ec" d="m369 227-1 1 1-1Z"/><path fill="#A8ECD2" id="TR" d="M358 251c5.777 0 7.833 11 13 11 12.943 0 23.232-7.732 32.5-17 2.573-2.573 8.5-7.463 8.5-11l-4-1c-4.296 0-7.018-2-11-2-.611 0-9-2.959-9-3l-6-1-2 1c-3.378 0-6.922 2-11 2 0 1.579-2.855 1-4 1l-1 1h-1l-1 1h-1l-1 1-1 1-2 1-1 1h-1v1l-1 1v1c0 4.687 4 9.06 4 11Z"/><path fill="#C8CBCC" id="ec" d="M367 229h1v-1l-1 1Z"/><path fill="#8AD987" id="CTXsp" d="M87 230c0 1.579 2.855 1 4 1l-2-2-2 1Z"/><path fill="#7DCD4B" id="HPF" d="m135 231-1 2-2-4 3 2Z"/><path fill="#C7C8CC" id="alv" d="M364 230h1v-1l-1 1Z"/><path fill="#C8CBCC" id="ec" d="m366 229-1 1v-1h1Z"/><path fill="#8AD987" id="CTXsp" d="M369 230c0 1.579-2.855 1-4 1v-1l1-1h2l1 1Z"/><path fill="#7DCD4B" id="HPF" d="m324 230-1 1 1-1Z"/><path fill="#C7C8CC" id="alv" d="M363 231h1v-1l-1 1Z"/><path fill="#C8CBCC" id="ec" d="M364 231h1v-1h-1v1Z"/><path fill="#8AD987" id="CTXsp" d="M93 231v1l-1-1h1Z"/><path fill="#C8CBCC" id="ec" d="m93 232 4 3-4-4v1Z"/><path fill="#7DCD4B" id="HPF" d="M323 231v1l-1-1h1Z"/><path fill="#C7C8CC" id="alv" d="M361 233h1l1-1v-1c-1.238 0-3 .423-3 2h1Z"/><path fill="#C8CBCC" id="ec" d="M363 232h1v-1h-1v1Z"/><path fill="#8AD987" id="CTXsp" d="m365 231-1 1v-1h1Z"/><path fill="#FF64FF" id="MB" d="M240 233h1v-1l-2 1h1Z"/><path fill="#C8CBCC" id="ec" d="m363 232-1 1 1-1Z"/><path fill="#FF9B88" id="P" d="M184 267c13.481 0 31.313 2.093 43.5-4 .667-.334 7.849 3 9.5 3 12.481 0 23.005 1 35 1l-1-2.5 4-3 3-7c2.638-5.276-3-10.715-3-14.5l-7.5-3c-5.179-2.589-20.105-4-26.5-4h-1v1c5.866 0 11.632.566 16.5 3 4.687 2.343 11.214 1.607 16 4 4.958 2.479 2.306 18.847-2 21-4.035 2.018-33.981-.463-35.5-3.5-2.354-4.708-4.663-13.673-2-19l4-4.5c-4.317 0-6.454 9-8.5 9l-5-7-6.5-4h-2c-1.235 0-5-.643-5 1 20.019 0 16.16 23.17 8.5 27-3.983 1.991-30 2-34 0-3.556-1.778-3.873-18.063 0-20 5.959-2.98 13.068-3.034 19-6 1.238-.619 5.5 1.144 5.5-1-6.961 0-20.776 2.138-26.5 5l-2.5 2c0 3.461-4.034 8.432-2 12.5 1.343 2.686 1.697 5.697 4 8l4 4-2 1.5Z"/><path fill="#FF64FF" id="MB" d="m219 233 1 1-1-1Z"/><path fill="#C7C8CC" id="alv" d="M359 234h1v-1l-1 1Z"/><path fill="#C8CBCC" id="ec" d="m361 233-1 1v-1h1Z"/><path fill="#FFB885" id="PG" d="M209 234h1c20.019 0 16.16 23.17 8.5 27-3.983 1.991-30 2-34 0-3.556-1.778-3.873-18.063 0-20 5.959-2.98 13.068-3.034 19-6 1.238-.619 5.5 1.144 5.5-1Z"/><path fill="#FEA5FF" id="IPL" d="m234 234-1 1 1-1Z"/><path fill="#FF9B88" id="P" d="M240 234c0 1.473-1.952 1-3 1v-1h3Z"/><path fill="#FFB885" id="PG" d="M240 234c5.866 0 11.632.566 16.5 3 4.687 2.343 11.214 1.607 16 4 4.958 2.479 2.306 18.847-2 21-4.035 2.018-33.981-.463-35.5-3.5-2.354-4.708-4.663-13.673-2-19l4-4.5c1.048 0 3 .473 3-1Z"/><path fill="#C7C8CC" id="alv" d="M357 235h2v-1l-2 1Z"/><path fill="#C8CBCC" id="ec" d="m360 234-1 1v-1h1ZM106 241h2l-10-6 4 4 2 1h1l1 1Z"/><path fill="#C7C8CC" id="alv" d="M356 236h1v-1l-1 1Z"/><path fill="#C8CBCC" id="ec" d="m359 235-2 1v-1h2Z"/><path fill="#C7C8CC" id="alv" d="M355 237h1v-1l-1 1Z"/><path fill="#C8CBCC" id="ec" d="m357 236-1 1v-1h1Z"/><path fill="#C7C8CC" id="alv" d="M352 239h1l1-1v-1c-1.238 0-3 .423-3 2h1Z"/><path fill="#C8CBCC" id="ec" d="M354 238h1v-1h-1v1ZM353 239h1v-1l-1 1Z"/><path fill="#C7C8CC" id="alv" d="M348 241h1l1-2-3 1v1h1Z"/><path fill="#C8CBCC" id="ec" d="m352 240-3 1 1-2h2v1Z"/><path fill="#97EC93" id="PA" d="m105 252 4.5-1 13.5 7c1.884 0 5-6.4 5-8-6.233 0-10.995-7-17-7l-2-2h-3l-1-1h-2c0 4.468-4 8.028-4 11 1.321 0 6-.684 6 1Z"/><path fill="#CCCCCA" id="mcp" d="M289 254c0 9.572-8.529 13-17 13l-1-2.5 4-3 3-7c2.638-5.276-3-10.715-3-14.5 1.564 0 3.876 1 6 1 0 1.684 4.679 1 6 1h1l1 1 1 1v8l-1 2Z"/><path fill="#7DCD4B" id="HPF" d="M346 241h1v-1h-1v1Z"/><path fill="#97EC93" id="PA" d="M351 252c-8.252 0-14.834 6-18 6 0-1.718-4-4.558-4-8l16-7 1-1h1l1-1h1l3-1h2c0 4.687 4 9.06 4 11-1.406 0-7-.714-7 1Z"/><path fill="#7DCD4B" id="HPF" d="M111 241v1l-1-1h1Z"/><path fill="#F0F080" id="CB" d="M175 241c-1.321 0-6-.684-6 1 1.321 0 6 .684 6-1Z"/><path fill="#CCCCCA" id="mcp" d="M168 256c0 8.659 8.675 11 16 11l2-1.5-4-4c-2.303-2.303-2.657-5.314-4-8-2.034-4.068 2-9.039 2-12.5h-5c0 1.684-4.679 1-6 1h-1l-1 1-1 2 1 8v2l1 1Z"/><path fill="#F0F080" id="CB" d="M281 241c1.321 0 6-.684 6 1-1.321 0-6 .684-6-1Z"/><path fill="#C8CBCC" id="ec" d="m348 241-1 1v-1h1Z"/><path fill="#F0F080" id="CB" d="m168 242-1 1 1-1ZM288 242l1 1-1-1ZM167 243l-1 2 1-2ZM290 244c1.602 0 1.602 7 0 7v-7ZM166 245c-2.32 0 .039 8 1 8l-1-8Z"/><path fill="#5FE6B7" id="COApl" d="m85 262 9 7c0-4.876 4.776-17 11-17 0-1.684-4.679-1-6-1-6.997 0-7.86 11-14 11Z"/><path fill="#60E6B5" id="COApm" d="m123 258-5 5.5c-3.873 3.873-12.176 11.662-18.5 8.5l-5.5-3c0-4.876 4.776-17 11-17l4.5-1 13.5 7ZM333 258c0 3.845 15.721 14 20 14 2.279 0 10-1.309 10-4 0-4.39-6.595-16-12-16-8.252 0-14.834 6-18 6Z"/><path fill="#5FE6B7" id="COApl" d="m371 262-8 6c0-4.39-6.595-16-12-16 0-1.714 5.594-1 7-1 5.777 0 7.833 11 13 11Z"/><path fill="#F0F080" id="CB" d="m290 252-1 2 1-2ZM167 255l1 1-1-1Z"/></svg>