<svg xmlns="http://www.w3.org/2000/svg" viewBox="0 0 456 320"><path fill="#FEFA90" id="DEC" d="M203 92h51c0-5.8-5.828-6.164-9.5-8-2.801-1.4-11.667-.167-14 1-5.195 2.597-27.5-7.542-27.5 7Z"/><path fill="#FDFB90" id="FOTU" d="M182 129h1c0-4.052 15.677-5.589 18.5-7 6.722-3.361 37.153-4.423 44-1l12 1 16.5 6c.613 0 6.769-16 9-16 0-7.379-22.602-20-29-20h-51c-7.523 0-30 13.081-30 20 1.592 0 9 14.96 9 17Z"/><path fill="#FFFB8E" id="PRM" d="m145 171-1 1c-2.762 0-6.755 3.873-10.5 2-13.464-6.732-5.097-26.306-.5-35.5 1.517-3.033.801-4.602 2-7 4.859-9.718 23.703-16.101 32.5-20.5 1.956-.978 4.077 1 5.5 1 1.592 0 9 14.96 9 17l-8.5 8c-3.324 3.324-23.5 26.966-23.5 29l-1 1-4 4ZM307 167c1.797 0 4 2.203 4 4 3.172 0 6.873 5.313 11.5 3 12.217-6.109 6.904-21.692 2.5-30.5-2.01-4.021-2.016-9.033-4-13-4.437-8.873-24.641-15.57-32.5-19.5-1.956-.978-4.077 1-5.5 1-2.231 0-8.387 16-9 16v1c1.293 0 23.852 24.203 25 26.5l7 9.5 1 1v1Z"/><path fill="#FBFC91" id="PYR" fill-rule="evenodd" d="M203 140c0 2.091 3.746 0 0 0m44-1c0 .601 4.994 2.253 5.5 2 1.606-.803-4.304-2-5.5-2m-42 0c0 2.105 9.211 0 0 0m26-2c0 3.227 9 2.071 9 1.5 0-1.978-7.536-1.5-9-1.5m-13 0-2 1.5c0 2.401 15.969-1.5 7-1.5h-5m-31 28 6.5-4c4.696-2.348 11.308-.654 16-3 2.741-1.37 35.465-.268 38 1h9c2.422 1.211 10.156 6 12.5 6l2-25.5 3-10.5v-1l-16.5-6-12-1c-6.847-3.423-37.278-2.361-44 1-2.823 1.411-18.5 2.948-18.5 7 0 11.854 4 23.169 4 36Z"/><path fill="#FFF990" id="COPY" d="M147 172c0 12.375 3.551 21.975 17.5 15l7.5-5c0-5.379 15-15.069 15-17 0-12.831-4-24.146-4-36h-1l-8.5 8c-3.324 3.324-23.5 26.966-23.5 29l-1 1c0 1.424-.362 5-2 5ZM309 176c0 13.95-8.539 15.48-19.5 10l-5.5-4c0-2.851-12.335-17-15-17l2-25.5 3-10.5c1.293 0 23.852 24.203 25 26.5l7 9.5 1 1v1c0 3.071 2 5.362 2 9Z"/><path fill="#CBC9CC" id="arb" d="m218 137-2 1.5c0 2.401 15.969-1.5 7-1.5h-5ZM231 137c0 3.227 9 2.071 9 1.5 0-1.978-7.536-1.5-9-1.5ZM205 139c0 2.105 9.211 0 0 0ZM247 139c0 .601 4.994 2.253 5.5 2 1.606-.803-4.304-2-5.5-2ZM203 140c0 2.091 3.746 0 0 0Z"/><path fill="#FFFA8F" id="UVU" fill-rule="evenodd" d="m181 175-1 2.5c1.577 3.154 15.51 1.5 19 1.5h56c3.379 0 20.966.568 22-1.5 1.574-3.148-6.198-2.5-7.5-2.5-6.265 0-18.869 4.066-25 1-5.749-2.875-15.152 1.924-19 0-3.608-1.804-37.462-1-44.5-1m62 25h2c0-1.483 10.039-1.269 11.5-2 9.595-4.797 27.5-1.68 27.5-16 0-2.851-12.335-17-15-17-2.344 0-10.078-4.789-12.5-6h-9c-2.535-1.268-35.259-2.37-38-1-4.692 2.346-11.304.652-16 3l-6.5 4c0 1.931-15 11.621-15 17 0 13.738 19.067 11.784 27.5 16 1.461.731 11.5.517 11.5 2h32Z"/><path fill="#F0F080" id="CB" d="m306 165 1 1-1-1ZM150 166l-1 1 1-1ZM145 171l2 1c1.638 0 2-3.576 2-5l-4 4ZM311 171c-2.496 0 .496 5-2 5 0-3.638-2-5.929-2-9 1.797 0 4 2.203 4 4ZM145 171l-1 1 1-1Z"/><path fill="#CBC9CC" id="arb" d="m181 175-1 2.5c1.577 3.154 15.51 1.5 19 1.5h56c3.379 0 20.966.568 22-1.5 1.574-3.148-6.198-2.5-7.5-2.5-6.265 0-18.869 4.066-25 1-5.749-2.875-15.152 1.924-19 0-3.608-1.804-37.462-1-44.5-1Z"/><path fill="#FF9BCD" id="MY" fill-rule="evenodd" d="M225 263v17.5c0 3.582-1.247 8.5 3.5 8.5l3.5-1.5-1-8.5c0-7.706 4.541-16-6-16m-78-45c0 5.567 2.112 0 0 0m1-2c0 3.746 2.091 0 0 0m1-2c0 1.93 1.93 0 0 0m1-2c0 3.746 2.091 0 0 0m1-1c0 1.93 1.93 0 0 0m1-1c0 1.93 1.93 0 0 0m2-2c0 1.93 1.93 0 0 0m1-1c0 1.93 1.93 0 0 0m16-9c0 1.722-10 1.236-10 4.5l4.5-.5c2.767 0 21.191-3 8.5-3l-3-1m6 98c12.816 0 27.035 1 40.5 1 3.317 0 8.822-4.589 12-3 13.55 6.775 34.47 2 49.5 2 0-2.397 4.344-5.922 6.5-7l2.5.5-5 5.5c1.89 0 9-3.981 9-6-1.747 0-2-.253-2-2-5.744 0-7-2.409-7-8l-4-4c0 5.302-6.361 0-7 0 0 4.272-14.555 6.973-18.5 5-11.852-5.926-9.191-8.882-14.5-19.5l-8-11c-.903-1.806 8.19-10.5 10-10.5l4-6c0-4.016 7-6.816 7-9-2.765 0-5.165-2-7-2 0 5.196-3.139 2-6 2 0 7.954-10 14.323-10 2h-2c0 13.705-10 4.589-10-1-2.426 0-6 1.024-6-2l-6 1c0 2.553 6 4.41 6 9 2.177 0 4 4.336 4 6 2.158 0 11.344 7.813 10 10.5-1.388 2.775-15.648 28.074-16.5 28.5-3.809 1.904-16.835 3.082-21 1l-3.5-3c-.759 0-7 2.768-7 0l-4 3c0 5.658.031 8-6 8 0 4.589-10.629-6.242-10-7.5 1.055-2.109 4.62 1.5 6 1.5l1-2-2-3c-3.583 0-8.558 1.383-11-3.5-.696-1.391-2.391-8.5-4-8.5 0 2.76-4.237-5-1-5l-1-2c0 2.084-3-4.346-3-6l1-15.5c0-1.186.384-7.5 1.5-7.5l.5 9c1.516 0 2-10.083 2-12 1.636 0 3.271-8.043 4-9.5l7-8.5c-4.66 0 1.654-4.423 2.5-4 2.237 1.118-2.5 2.715-2.5 4 3.622 0 14.75-6.875 18.5-5 2.565 1.282 7.347 3.193 8.5 5.5l4 4.5c0-1.747.253-2 2-2l-6-4.5c-2.121-4.243 3.623-6.439 7.5-4.5l5.5 5c0-4.152.848-5 5-5 0-2.652-8.737-1.119-10.5-2-8.265-4.132-22.989-4.005-31 0-13.612 6.806-14.561 19.622-20.5 31.5v9c-1.105 2.21-2.339 10.321-1 13 4.952 9.904 6.771 18.771 15.5 27.5 4.049 4.049 10.671 15 17.5 15 0-2.703-5-2.919-5-5.5l1.5-1.5c2.478 0 7.5 6.094 7.5 8m-30-71c0-9.766-3.085 3-1.5 3l1.5-3ZM307 216c0 5.455 4.304 0 0 0m-4-7c0 1.457 4 5.171 4 4.5l-4-4.5m-24-10c0 4.918 6.308-.096 10.5 2 3.398 1.699 6.536 4.268 10 6l2 2c1.338 0-4.979-5.979-6-7-4.046-4.046-10.774-3-16.5-3m14 83 3.5-3c5.36-2.68-2.5 7.269-2.5 8 4.173 0 15.275-18.05 17-21.5 11.758-23.516 3.671-56.415-20.5-68.5-5.836-2.918-21.527-.736-27 2-1.765.882-9.5-.935-9.5 2 4.295 0 4 2.357 4 6l6.5-6c4.591-2.295 8.582 1.336 6.5 5.5l-6 3.5c1.238 0 3 .423 3 2l3-3.5c3.43-3.43 5.75-4.625 9.5-6.5 3.62-1.81 13.025 3.513 16 5 16.029 8.015 14.5 32.301 14.5 50 1.714 0 1-5.594 1-7 0-7.957-1-15.495-1-23 0-.464-3.282-7-1.5-7 1.46 0 1.994 7.489 2.5 8.5 2.931 5.862 2 15.006 2 22 0 2.926-3 11.705-3 7.5-1.473 0-1 1.952-1 3 2.36 0 0 5.422 0 1l-1 2c1.186 0 1.186 1 0 1-1.817 0-3.754 8.627-6.5 10-6.826 3.413-3.587 0-8.5 0l-1 4v3Z"/><path fill="#C8CACA" id="sptV" d="M171 198c0 1.722-10 1.236-10 4.5l4.5-.5c2.767 0 21.191-3 8.5-3l-3-1ZM279 199c0 4.918 6.308-.096 10.5 2 3.398 1.699 6.536 4.268 10 6l2 2c1.338 0-4.979-5.979-6-7-4.046-4.046-10.774-3-16.5-3Z"/><path fill="#FF9BCD" id="MY" d="M208 201h6v-1h-3c-1.048 0-3-.473-3 1ZM243 201h6c0-1.579-2.855-1-4-1h-2v1Z"/><path fill="#CAC9CC" id="cuf" d="m198 206-5.5-5c-3.877-1.939-9.621.257-7.5 4.5l6 4.5c7.25 0 7 4.604 7-4Z"/><path fill="#FDA5D0" id="CU" d="M204 224h1l6-1c0-2.917 4-4.016 4-8v-1c0-4.56-9-6.919-9-11l-2-2h-1c-4.152 0-5 .848-5 5 0 8.604.25 4-7 4-1.747 0-2 .253-2 2l2 5c1.261 0 10 5.249 10 6h1l2 1Z"/><path fill="#FF9BCD" id="MY" d="M206 201v2l-2-2h2Z"/><path fill="#FEA3D0" id="GR" d="M217 215h8v-8l-2-2-1-1-4-2-2-1h-10v2c0 4.081 9 6.44 9 11l2 1Z"/><path fill="#FF9BCD" id="MY" d="m216 201 2 1-2-1ZM241 201l-2 1 2-1Z"/><path fill="#FEA3D0" id="GR" d="M231 215h9l2-2c0-4.362 9-7.054 9-11l-1-1h-9l-2 1h-1l-1 1-4 2-1 1-1 1v1l-1 1 1 6Z"/><path fill="#FF9BCD" id="MY" d="m253 201-2 1-1-1h3Z"/><path fill="#FDA5D0" id="CU" d="M252 224h1l1-1h1l2-1c0-.809 7.335-5 8-5l3-5c0-1.577-1.762-2-3-2-6.026 0-7 4.564-7-3 0-3.643.295-6-4-6h-1l-2 1c0 3.946-9 6.638-9 11v2c0 3.145 3 4.833 3 7 1.835 0 4.235 2 7 2Z"/><path fill="#CAC9CC" id="cuf" d="m258 207 6.5-6c4.591-2.295 8.582 1.336 6.5 5.5l-6 3.5c-6.026 0-7 4.564-7-3Z"/><path fill="#FDA4D0" id="SPVC" d="M147 264c1.609 0 3.304 7.109 4 8.5 2.442 4.883 7.417 3.5 11 3.5 0-.206 8.176-10.852 9-12.5l2-10c3.063-6.126 4.897-12.793 8-19 2.046-4.093 3.947-13.5 10-13.5v-4l-2-5-4-4.5c-1.153-2.307-5.935-4.218-8.5-5.5-3.75-1.875-14.878 5-18.5 5l-7 8.5c-.729 1.457-2.364 9.5-4 9.5 0 1.917-.484 12-2 12v20l1 2v1c1.473 0 1 1.952 1 3v1Z"/><path fill="#FF9BCD" id="MY" d="m238 202-1 1 1-1Z"/><path fill="#FDA4D0" id="SPVC" d="M309 265c-1.817 0-3.754 8.627-6.5 10-6.826 3.413-3.587 0-8.5 0-3.246 0-5.923-7.345-7-9.5-5.072-10.144-6.866-21.733-12-32-1.36-2.72-4.005-12.5-9-12.5l-1-4 3-5 3-3.5c3.43-3.43 5.75-4.625 9.5-6.5 3.62-1.81 13.025 3.513 16 5 16.029 8.015 14.5 32.301 14.5 50v1c-1.473 0-1 1.952-1 3v1l-1 2v1Z"/><path fill="#C8CACA" id="sptV" d="M158 207c0-1.285 4.737-2.882 2.5-4-.846-.423-7.16 4-2.5 4Z"/><path fill="#FF9BCD" id="MY" d="m222 204 1 1-1-1ZM233 205l-1 1 1-1ZM232 206l-1 1 1-1Z"/><path fill="#C8CACA" id="sptV" d="M155 207c0 1.93 1.93 0 0 0Z"/><path fill="#FF9BCD" id="MY" d="m225 215 3.5 2 2.5-2-1-6-1.5 3c-2.391 0-.602-5-3.5-5v8Z"/><path fill="#C8CACA" id="sptV" d="M154 208c0 1.93 1.93 0 0 0Z"/><path fill="#FF9BCD" id="MY" d="m231 208-1 1 1-1Z"/><path fill="#C8CACA" id="sptV" d="M303 209c0 1.457 4 5.171 4 4.5l-4-4.5ZM152 210c0 1.93 1.93 0 0 0ZM151 211c0 1.93 1.93 0 0 0ZM150 212c0 3.746 2.091 0 0 0Z"/><path fill="#FF9BCD" id="MY" d="M240 215h2v-2l-2 2Z"/><path fill="#C8CACA" id="sptV" d="M149 214c0 1.93 1.93 0 0 0Z"/><path fill="#FF9BCD" id="MY" d="M215 215h2l-2-1v1Z"/><path fill="#FDA5D1" id="NTS" d="M227 226h2l3.5-3c2.161-1.081 4.894 1 6.5 1 2.861 0 6 3.196 6-2 0-2.167-3-3.855-3-7h-11l-2.5 2-3.5-2h-10c0 3.984-4 5.083-4 8 0 3.024 3.574 2 6 2 0-3.415 10-2.832 10 1Z"/><path fill="#C8CACA" id="sptV" d="M148 216c0 3.746 2.091 0 0 0ZM307 216c0 5.455 4.304 0 0 0Z"/><path fill="#FF9BCD" id="MY" d="m191 221 10 2c0-.751-8.739-6-10-6v4ZM266 221l-9 1c0-.809 7.335-5 8-5l1 4Z"/><path fill="#C8CACA" id="sptV" d="M147 218c0 5.567 2.112 0 0 0ZM311 257c1.714 0 1-5.594 1-7 0-7.957-1-15.495-1-23 0-.464-3.282-7-1.5-7 1.46 0 1.994 7.489 2.5 8.5 2.931 5.862 2 15.006 2 22 0 2.926-3 11.705-3 7.5v-1ZM147 225c0-9.766-3.085 3-1.5 3l1.5-3Z"/><path fill="#FDB1D7" id="MDRNd" d="M164 279h9l4-3c0-7.86 18.932-31.716 25.5-35 1.845-.923 5.633-8 8.5-8 0-4.59-6-6.447-6-9h-1l-2-1h-1l-10-2c-6.053 0-7.954 9.407-10 13.5-3.103 6.207-4.937 12.874-8 19l-2 10c-.824 1.648-9 12.294-9 12.5l2 3ZM283 279h10l1-4c-3.246 0-5.923-7.345-7-9.5-5.072-10.144-6.866-21.733-12-32-1.36-2.72-4.005-12.5-9-12.5l-9 1-2 1h-1l-1 1h-1c0 2.184-7 4.984-7 9 2.431 0 5.064 5.282 6.5 6 7.836 3.918 27.5 28.091 27.5 36l4 4Z"/><path fill="#FF9BCD" id="MY" d="m257 222-2 1 2-1ZM202 223l2 1-2-1Z"/><path fill="#FDB1D8" id="DMX" d="M217 225c0 5.589 10 14.705 10 1 0-3.832-10-4.415-10-1ZM239 224c-1.606 0-4.339-2.081-6.5-1l-3.5 3c0 12.323 10 5.954 10-2Z"/><path fill="#FF9BCD" id="MY" d="m254 223-1 1 1-1Z"/><path fill="#C8CACA" id="sptV" d="M145 253v4c0 2.084-3-4.346-3-6l1-15.5c0-1.186.384-7.5 1.5-7.5l.5 9v2c-1.644 0-1.644 14 0 14Z"/><path fill="#FFB2D8" id="IRN" d="M177 276c0 2.768 6.241 0 7 0 0-12.977 16.819-22.139 21-30.5l10-6.5c0-1.664-1.823-6-4-6-2.867 0-6.655 7.077-8.5 8-6.568 3.284-25.5 27.14-25.5 35ZM272 275c.639 0 7 5.302 7 0 0-7.909-19.664-32.082-27.5-36-1.436-.718-4.069-6-6.5-6l-4 6c7.582 0 31 28.193 31 36Z"/><path fill="#FF9BCD" id="MY" d="M145 239c-1.644 0-1.644 14 0 14v-14Z"/><path fill="#FFB1D6" id="MDRNv" d="M215 239c2.158 0 11.344 7.813 10 10.5-1.388 2.775-15.648 28.074-16.5 28.5-3.809 1.904-16.835 3.082-21 1l-3.5-3c0-12.977 16.819-22.139 21-30.5l10-6.5ZM241 239c7.582 0 31 28.193 31 36 0 4.272-14.555 6.973-18.5 5-11.852-5.926-9.191-8.882-14.5-19.5l-8-11c-.903-1.806 8.19-10.5 10-10.5Z"/><path fill="#C8CACA" id="sptV" d="M147 263v1c0 2.76-4.237-5-1-5v1c0 1.048-.473 3 1 3Z"/><path fill="#FF9BCD" id="MY" d="M146 260c1.473 0 1 1.952 1 3-1.473 0-1-1.952-1-3Z"/><path fill="#C8CACA" id="sptV" d="M310 261c2.36 0 0 5.422 0 1v-1Z"/><path fill="#C9C7CC" id="pyd" d="M225 263v17.5c0 3.582-1.247 8.5 3.5 8.5l3.5-1.5-1-8.5c0-7.706 4.541-16-6-16Z"/><path fill="#C8CACA" id="sptV" d="M309 264c1.186 0 1.186 1 0 1v-1Z"/><path fill="#C9CACA" id="sctd" d="m164 283 3 4c0 4.589-10.629-6.242-10-7.5 1.055-2.109 4.62 1.5 6 1.5v1l1 1Z"/><path fill="#C8C8CB" id="rust" d="m164 283 3 4c6.031 0 6-2.342 6-8h-9l-1 2v1l1 1ZM293 282l-3 5c-5.744 0-7-2.409-7-8h10v3Z"/><path fill="#C9CACA" id="sctd" d="m293 288-1 1c-1.747 0-2-.253-2-2l3-5 3.5-3c5.36-2.68-2.5 7.269-2.5 8l-1 1Z"/><path fill="#FF9BCD" id="MY" d="m163 282 1 1-1-1ZM294 287l-1 1 1-1Z"/><path fill="#CBC7CC" id="sctv" d="M175 296c.839 0 2 1.93 2 0 0-1.906-5.022-8-7.5-8l-1.5 1.5c0 2.581 5 2.797 5 5.5h1l1 1Z"/><path fill="#FF9BCD" id="MY" d="m293 288-1 1 1-1Z"/><path fill="#CBC7CC" id="sctv" d="M279 296c0 1.399 2 1.399 2 0l1-1h1l5-5.5-2.5-.5c-2.156 1.078-6.5 4.603-6.5 7Z"/><path fill="#FF9BCD" id="MY" d="m174 295 1 1-1-1ZM282 295l-1 1 1-1Z"/></svg>