<svg xmlns="http://www.w3.org/2000/svg" viewBox="0 0 456 320"><path fill="#098589" id="VISp1" d="M83 63c1.54 0 3 1.341 3 3 2.636 0 5.87-6.185 7.5-7 8.557-4.279 15.002-11.5 24-16 9.621-4.81 19.435-9.217 29-14 4.71-2.355 11.287-.643 16-3l11.5 2 1-4c0-1.7-5.137-1-6.5-1-4.643 0-17.71.355-21 2-11.922 5.96-24.961 9.98-37 16l-14 10C94.048 52.226 83 59.725 83 63ZM373 63c-1.577 0-2 1.762-2 3-3.06 0-20.48-16.49-25.5-19-11.745-5.873-23.333-12.167-35-18-4.959-2.48-12.037-.518-17-3-3.026-1.513-7.754 2-10.5 2h-1l-1-4c0-1.7 5.137-1 6.5-1 4.643 0 17.71.355 21 2 10.882 5.441 23.033 8.517 34 14 6.062 3.03 11.684 9.342 17 12 3.928 1.964 13.5 8.217 13.5 12Z"/><path fill="#1BA696" id="RSPagl1" d="m191 33-8 4c0-3.58-5.474-9-9-9l1-4c4.374 0 16 3.53 16 9ZM265 32l9 6c0-4.13 3.297-10 8-10l-1-4c-3.236 0-16 3.727-16 8Z"/><path fill="#0A828C" id="VISp2/3" d="M86 67c1.777 0 5 4.013 5 6l15.5-12c14.168-7.084 26.908-16.954 41-24 4.542-2.271 10.493-2 16-2 1.278 0 5.5-.666 5.5 1 1.884 0 5-6.4 5-8l-11.5-2c-4.713 2.357-11.29.645-16 3-9.565 4.783-19.379 9.19-29 14-8.998 4.5-15.443 11.721-24 16-1.63.815-4.864 7-7.5 7v1ZM365 73h1c0-2.538 2.152-6 5-6v-1c-3.06 0-20.48-16.49-25.5-19-11.745-5.873-23.333-12.167-35-18-4.959-2.48-12.037-.518-17-3-3.026-1.513-7.754 2-10.5 2 0 2.591 1.238 7 4 7h16.5c10.349 5.174 20.59 10.795 31 16l14 10c1.956.978 16.5 10.976 16.5 12Z"/><path fill="#1AA496" id="RSPagl2/3" d="M166 40c1.766 0 5 .607 5 3 3.35 0 7.045-4 11-4l1-1v-1c0-3.58-5.474-9-9-9 0 1.6-3.116 8-5 8l-3 4ZM285 43h1c0-2.6 2.639-3 5-3 0-1.907-4-2.382-4-5-2.762 0-4-4.409-4-7h-1c-4.703 0-8 5.87-8 10 1.464 0 11 3.827 11 5Z"/><path fill="#1BA598" id="RSPd1" d="M298 73h1c0-8.193-25-24.281-25-35l-9-6c0 12.4 12.838 15.177 18 25.5l5 4c1.124 2.248 7.617 11.5 10 11.5ZM157 73h2l22-25.5 9.5-8.5c.73-.73 2.964-6 .5-6l-8 4v1l-1 1c0 9.438-25 27.012-25 34Z"/><path fill="#0B848B" id="VISp4" d="m91 73 3 4c4.684 0 10.171-8.336 13.5-10 5.794-2.897 10.084-9.042 16-12 7.409-3.704 14.558-8.28 22-12l14-4c1.073-.536 5.5-.25 5.5 1h1l3-4c0-1.666-4.222-1-5.5-1-5.507 0-11.458-.271-16 2-14.092 7.046-26.832 16.916-41 24L91 73ZM365 73l-2 4c-7.143 0-20.459-16.48-27.5-20-16.076-8.038-25.9-17-44.5-17 0-1.907-4-2.382-4-5h16.5c10.349 5.174 20.59 10.795 31 16l14 10c1.956.978 16.5 10.976 16.5 12Z"/><path fill="#1BA697" id="RSPd2/3" d="m183 38-1 1 1-1ZM299 73h4c0-2.43-5.282-5.064-6-6.5-3.784-7.569-12-14.435-12-23.5 0-1.173-9.536-5-11-5 0 10.719 25 26.807 25 35Z"/><path fill="#088389" id="VISp5" d="M98 86h1l11-9.5c7.609-7.609 29.787-24.5 40-24.5h1l14-12c0-1.25-4.427-1.536-5.5-1l-14 4c-7.442 3.72-14.591 8.296-22 12-5.916 2.958-10.206 9.103-16 12-3.329 1.664-8.816 10-13.5 10v1l4 8Z"/><path fill="#1BA697" id="RSPd2/3" d="M153 73h4c0-6.988 25-24.562 25-34-3.955 0-7.65 4-11 4 0 8.812-6.376 14.253-10 21.5-.923 1.845-8 5.633-8 8.5Z"/><path fill="#088389" id="VISp5" d="M363 78c-1.562 0-5 6.653-5 8-4.695 0-9.347-8.924-13.5-11-11.848-5.924-23.453-23-38.5-23h-1l-14-12c18.6 0 28.424 8.962 44.5 17 7.041 3.52 20.357 20 27.5 20v1Z"/><path fill="#1CA697" id="RSPagl5" d="M151 52c1.145 0 4-.58 4 1l16-10c0-2.393-3.234-3-5-3h-1l-14 12ZM301 53h1c0-1.473 1.952-1 3-1l-14-12c-2.361 0-5 .4-5 3l15 10Z"/><path fill="#FF7AFD" id="SCzo" d="M228 67h1l1-2c0-31.638 31.567-23.933 47-8.5l10 11c.606 1.212 2.24 5.5 4 5.5 0-5.995-6.437-7.373-9-12.5-5.392-10.783-28.387-24.556-40.5-18.5-3.34 1.67-9.11 4.72-10.5 7.5-1.179 2.357.135 7.5-2.5 7.5l-2-6c-4.395-2.197-9.022-7.51-14-10-6.039-3.02-27.5 5.055-27.5 10 1.6 0 14.065-6.783 16.5-8 7.786-3.893 20.719 3.937 23.5 9.5 1.67 3.34 1 8.503 1 12.5l2 2Z"/><path fill="#1AA596" id="RSPd5" d="M147 73h6c0-2.867 7.077-6.655 8-8.5 3.624-7.247 10-12.688 10-21.5l-16 10v1c1.9 0 .468 4.565 0 5.5-2.035 4.071-8 8.8-8 13.5Z"/><path fill="#FF78FF" id="SCsg" d="m169 67-2 6c5.695 0 11.557-7.529 16.5-10l14-7c3.837-1.919 9.102-1.051 13-3 7.719-3.86 10.994 12 15.5 12 0-3.997.67-9.16-1-12.5-2.781-5.563-15.714-13.393-23.5-9.5-2.435 1.217-14.9 8-16.5 8l-14 14c0 1.747-.253 2-2 2ZM291 74v1l-11.5-8c-9.245-4.623-18.89-8.445-28-13-12.585-6.293-17.069 11-21.5 11 0-31.638 31.567-23.933 47-8.5l10 11c.606 1.212 2.24 5.5 4 5.5v1Z"/><path fill="#1AA596" id="RSPd5" d="M303 73h7c0-5.729-9-10.972-9-20l-15-10h-1c0 9.065 8.216 15.931 12 23.5.718 1.436 6 4.07 6 6.5Z"/><path fill="#FF7AFD" id="SCzo" d="M185 51c-3.548 0-14 10.452-14 14l14-14Z"/><path fill="#08858C" id="VISp6a" d="M121 86c-4.054 0-9.936 2.218-13.5 4-3.658 1.83-5.906-3-8.5-3v-1l11-9.5c7.609-7.609 29.787-24.5 40-24.5l-7 6.5c-3.969 7.939-12.445 14.89-16 22l-6 5.5Z"/><path fill="#1CA597" id="RSPagl6a" d="M121 86h2c4.63 0 8.186-9 13-9l2-2c0-5.608 12.034-21 17-21v-1c0-1.58-2.855-1-4-1h-1l-7 6.5c-3.969 7.939-12.445 14.89-16 22l-6 5.5ZM334 86h1l-7-7.5c-5.598-5.598-7.814-12.814-13.5-18.5l-8.5-8h-1c-1.048 0-3-.473-3 1 0 4.862 17 12.091 17 22l2 2c4.12 0 8.145 9 13 9Z"/><path fill="#08858C" id="VISp6a" d="M358 86v1c-2.594 0-4.842 4.83-8.5 3-3.576-1.788-10.463-4-14.5-4l-7-7.5c-5.598-5.598-7.814-12.814-13.5-18.5l-8.5-8c15.047 0 26.652 17.076 38.5 23 4.153 2.076 8.805 11 13.5 11Z"/><path fill="#FD7AFF" id="SCop" d="M165 77v1c4.31 0 6.524-5.012 10.5-7 4.745-2.372 9.189-5.594 14-8l12-4c4.733-2.366 14.486.486 17.5 3.5.737.737 9 8.947 9 4.5l-2-2c-4.506 0-7.781-15.86-15.5-12-3.898 1.949-9.163 1.081-13 3l-14 7c-4.943 2.471-10.805 10-16.5 10l-1 1-1 1v2ZM292 78v1l-11.5-8c-5.016-2.508-8.71-5.355-14-8l-12-4c-5.096-2.548-13.752.752-17 4-.709.71-8.5 8.347-8.5 4l1-2c4.431 0 8.915-17.293 21.5-11 9.11 4.555 18.755 8.377 28 13l11.5 8h1v3Z"/><path fill="#1AA697" id="RSPd6a" d="M310 73c3.618 0 6.154 2 9 2 0-9.909-17-17.138-17-22h-1c0 9.028 9 14.271 9 20ZM147 73c-3.301 0-7.523 2-9 2 0-5.608 12.034-21 17-21 1.9 0 .468 4.565 0 5.5-2.035 4.071-8 8.8-8 13.5Z"/><path fill="#FF90FF" id="SCig" d="M160 92c0-2.813 19.271-13.385 22.5-15 6.702-3.35 22.978-14.511 32-10 4.421 2.21 11.22 11.39 16 9l12-9c7.283-3.641 18.649 3.324 24 6 3.944 1.972 29.5 14.568 29.5 19 5.674 0-.854-13-4-13l-11.5-8c-5.016-2.508-8.71-5.355-14-8l-12-4c-5.096-2.548-13.752.752-17 4-.709.71-8.5 8.347-8.5 4h-1c0 4.447-8.263-3.763-9-4.5-3.014-3.014-12.767-5.866-17.5-3.5l-12 4c-4.811 2.406-9.255 5.628-14 8-3.976 1.988-6.19 7-10.5 7l-1 1c0 4.701-7.892 4.715-5 10.5.459.919-.765 2.5 1 2.5Z"/><path fill="#09848A" id="VISl1" d="m67 80 3 2c0-1.095 15.198-15 16-15v-1c0-1.659-1.46-3-3-3-1.268 0-16 15.649-16 17ZM386 82h1c0-1.481 2-.785 2-3 0-2.183-3.405-3.31-4-4.5-1.256-2.511-8.985-11.5-12-11.5-1.577 0-2 1.762-2 3v1c.588 0 15 14.338 15 15Z"/><path fill="#FF7AFD" id="SCzo" d="M171 65c-1.747 0-2 .253-2 2 1.747 0 2-.253 2-2Z"/><path fill="#0A8489" id="VISl2/3" d="M75 87h1l11-10.5 4-3.5c0-1.987-3.223-6-5-6-.802 0-16 13.905-16 15v1c1.712 0 3 2.571 3 4h2Z"/><path fill="#FF7AFD" id="SCzo" d="m166 74-1 1c0-2.202 1.226-8 4-8l-2 6-1 1Z"/><path fill="#FF90FE" id="SCiw" d="m170 101 35.5-22c8.648-4.324 21.107 3.946 23 3 2.457-1.228 13.447-6.277 16-5 2.175 1.088 4.925.962 7 2 8.07 4.035 15.035 10.017 23 14l10 6 2.5 3 6-8.5 3-1.5c0-4.432-25.556-17.028-29.5-19-5.351-2.676-16.717-9.641-24-6l-12 9c-4.78 2.39-11.579-6.79-16-9-9.022-4.511-25.298 6.65-32 10-3.229 1.615-22.5 12.187-22.5 15 5.421 0 5.394 9 10 9Z"/><path fill="#0A8489" id="VISl2/3" d="M381 87h2l3-5c0-.662-14.412-15-15-15-2.848 0-5 3.462-5 6l14 14h1Z"/><path fill="#08828B" id="VISl4" d="M79 88h1l2-1 12-9v-1l-3-4-4 3.5L76 87c1.048 0 3-.473 3 1Z"/><path fill="#33B932" id="APr" d="M136 77c0 4.437 5.089 8.678 7 12.5.579 1.159-.341 3.5 2 3.5l14-20h-12c-3.301 0-7.523 2-9 2l-2 2Z"/><path fill="#FF78FF" id="SCsg" d="m167 73-1 1 1-1Z"/><path fill="#33B932" id="APr" d="m321 77-2 3.5c-1.804 3.607-7 9.443-7 13.5l-3-4.5c-2.328-4.656-11-11.278-11-16.5h12c3.618 0 6.154 2 9 2l2 2Z"/><path fill="#08828B" id="VISl4" d="M376 88h1c0-1.473 1.952-1 3-1l-14-14h-1l-2 4v1c0 3.39 12 5.138 12 10h1Z"/><path fill="#FF7AFD" id="SCzo" d="M291 75h1l-1-1v1Z"/><path fill="#47C83C" id="POST" d="M114 109h24l7-16c-2.341 0-1.421-2.341-2-3.5-1.911-3.822-7-8.063-7-12.5-4.814 0-8.37 9-13 9l-6 3v2c0 6.913-4 11.187-4 18h1Z"/><path fill="#FF64FF" id="MB" d="M164 78h1v-1l-1 1Z"/><path fill="#FF8FFF" id="SCdg" d="M189 112c0-12.113 10.787-20.144 20.5-25 4.377-2.188 11.245 0 16.5 0h12l3.5-1c11.958 5.979 25.5 10.154 25.5 26 10.473 0 12.142 4.216 18-7.5l2-2.5-2.5-3-10-6c-7.965-3.983-14.93-9.965-23-14-2.075-1.038-4.825-.912-7-2-2.553-1.277-13.543 3.772-16 5-1.893.946-14.352-7.324-23-3L170 101c0 13.416 10.83 11 19 11Z"/><path fill="#47C83C" id="POST" d="M343 109h1v-2c-1.951 0-.477-2.454-1-3.5-1.903-3.806-4-7.941-4-12.5v-2c-1.238 0-5-1.923-5-3-4.855 0-8.88-9-13-9l-2 3.5c-1.804 3.607-7 9.443-7 13.5 0 3.693 3.417 7.333 5 10.5.559 1.119.155 4.5 2 4.5h24Z"/><path fill="#0B858B" id="VISl5" d="m98 87-2 1c-2.914 0-14 .42-14-1l12-9 4 8v1Z"/><path fill="#FD7AFF" id="SCop" d="m165 78-1 1v-1h1Z"/><path fill="#FF64FF" id="MB" d="M265 125c2.389 0 11.549-9.975 19.5-6l8.5 6c0-7.682 1.828-14.156 5-20.5.781-1.562 2.841-6.83 5.5-5.5 4.304 2.152 7.674 8.848 9.5 12.5.559 1.119.155 4.5 2 4.5 0-10.819-13-18.348-13-28l-10-10v1c3.146 0 9.674 13 4 13l-3 1.5-6 8.5-2 2.5c-5.858 11.716-7.527 7.5-18 7.5 0 1.949.991 8-2 8v5Z"/><path fill="#0B858B" id="VISl5" d="M361 88h14c0-4.862-12-6.61-12-10-1.562 0-5 6.653-5 8v1l3 1Z"/><path fill="#FF64FF" id="MB" d="M191 124c-4.243 0-11.36-8.57-18.5-5-1.5.75-8.112 6-8.5 6 0-4.101-5.715-28.892-11.5-26-2.859 1.429-8.802 13-9.5 13 0-9.488 12-14.49 12-24 0-2.51 6.43-9 9-9 0 4.701-7.892 4.715-5 10.5.459.919-.765 2.5 1 2.5 5.421 0 5.394 9 10 9 0 13.416 10.83 11 19 11 0 .981 1.184 8 2 8v4Z"/><path fill="#0C858C" id="VISli1" d="M396 87c0 1.643-3.765 1-5 1l-4-6c0-1.481 2-.785 2-3l7 8ZM65 87h1l4-4v-1l-3-2c-2.024 0-6 5.83-6 7 0 2.56 3.334 0 4 0Z"/><path fill="#0A858A" id="VISli2/3" d="M383 87c3.119 0 5.616 1 8 1l-4-6h-1l-3 5ZM66 87c0 1.857 6.392 0 7 0 0-1.429-1.288-4-3-4l-4 4Z"/><path fill="#08848C" id="VISl6a" d="M98 87h1v-1h-1v1Z"/><path fill="#08838C" id="VISpl6a" d="M86 107h1l1-1 1-1c0-2.473 3.527-6 6-6 0-1.617 4.583-4 6-4 0-4.05 12.725-6 16-6l6-3h-2c-4.054 0-9.936 2.218-13.5 4-3.658 1.83-5.906-3-8.5-3h-1l-2 1-11 12v2c1.7 0 1 3.3 1 5Z"/><path fill="#FF8FFE" id="SCdw" d="M191 120c0-13.943 8.177-24.839 20.5-31h34c12.307 6.153 19.5 16.358 19.5 31 2.991 0 2-6.051 2-8 0-15.846-13.542-20.021-25.5-26l-3.5 1h-12c-5.255 0-12.123-2.188-16.5 0-9.713 4.856-20.5 12.887-20.5 25 0 .981 1.184 8 2 8Z"/><path fill="#08838C" id="VISpl6a" d="m369 106 1 1c0-4.042 1.404.692 2-.5.149-.298-1-5.127-1-5.5v-1l-10-12-3-1c-2.594 0-4.842 4.83-8.5 3-3.576-1.788-10.463-4-14.5-4h-1c0 1.077 3.762 3 5 3 5.96 0 28 8.64 28 15v1h1l1 1Z"/><path fill="#09818C" id="VISpor1" d="m45 136-5 5c0-15.829-1.023-21.454 6-35.5l7-9c.958-1.916 5.203-9.5 8-9.5 0 2.56 3.334 0 4 0 0 3.647-11.84 15.181-14 19.5-4.703 9.406-6 16.962-6 28.5v1Z"/><path fill="#0A8389" id="VISpor2/3" d="M54 130c-3.29 0-5.518 5-9 5 0-11.538 1.297-19.094 6-28.5 2.16-4.319 14-15.853 14-19.5h1c0 1.857 6.392 0 7 0h2c0 2.572-20.864 22-12 22 0 4.039-8 12.083-8 20l-1 1Z"/><path fill="#0A828A" id="VISpor4" d="M79 89c0 1.8-16 14.39-16 20-8.864 0 12-19.428 12-22h1c1.048 0 3-.473 3 1v1Z"/><path fill="#0B838C" id="VISpl5" d="M80 89c0 3.604 5 6.807 5 11l11-12c-2.914 0-14 .42-14-1l-2 1v1ZM376 89l-5 11-10-12h15v1Z"/><path fill="#0A828A" id="VISpor4" d="M377 89c4.678 0 15.752 20 17 20 3.12 0 .665-4.17 0-5.5L381 87h-1c-1.048 0-3-.473-3 1v1Z"/><path fill="#0A8389" id="VISpor2/3" d="m402 130 9 5c0-11.906-1.144-19.788-6-29.5L391 88c-2.384 0-4.881-1-8-1h-2l13 16.5c.665 1.33 3.12 5.5 0 5.5 0 6.899 8 12.551 8 20v1Z"/><path fill="#09818C" id="VISpor1" d="M411 136c3.165 0 2.508 4 5 4 0-14.578 1.589-20.322-5-33.5l-6-8c-1.196-2.391-6.907-11.5-9-11.5 0 1.643-3.765 1-5 1l14 17.5c4.856 9.712 6 17.594 6 29.5v1Z"/><path fill="#0B858A" id="VISpl4" d="M79 89h1v-1h-1v1Z"/><path fill="#C9C8C8" id="bic" d="M141 120c-2.308 0-.257 7.013-1 8.5-.995 1.989-3-.086-3-1.5 0-8.755 8.658-39 18-39 0 9.51-12 14.512-12 24-1.995 0-2 4.377-2 6v2ZM315 117c3.267 0-2.485 12 5 12 0-11.87-4.13-19.759-9-29.5-1.555-3.11-4.22-11.5-9-11.5 0 9.652 13 17.181 13 28v1Z"/><path fill="#0B858A" id="VISpl4" d="M376 89h1v-1h-1v1Z"/><path fill="#0B838A" id="VISpor5" d="m61 128-6 1c0-7.917 8-15.961 8-20 0-5.61 16-18.2 16-20h1c0 3.604 5 6.807 5 11v2c-1.258 0-15 18.208-15 20l-1 1v1l-8 4Z"/><path fill="#08848A" id="VISpl6b" d="M117 90c-5.901 0-10.575 5-16 5 0-4.05 12.725-6 16-6v1Z"/><path fill="#FC8FFF" id="PAG" d="M234 153h1c0-3.418 7-7.076 7-2l3 1c3.576 0 5.53-2.515 8.5-4 12.683-6.341 11.5-8.889 11.5-23v-5c0-14.642-7.193-24.847-19.5-31h-34c-12.323 6.161-20.5 17.057-20.5 31v4c0 12.715-1.578 16.961 10.5 23 3.377 1.688 5.419 5 9.5 5l3-1c0-3.852 7-2.042 7 1h2v-18.5l3-3.5v-5c0-8.124-10.274-4.226-.5-14l2-4c1.467-.733 8.611 9.278 7.5 11.5l-5 6.5c1.643 0 1 3.765 1 5 0 1.009 2.421 5.343 3 6.5.176.352 0 15.031 0 16.5Z"/><path fill="#08848A" id="VISpl6b" d="M339 90c6.373 0 12.178 3.339 17.5 6l10.5 8c0-6.36-22.04-15-28-15v1Z"/><path fill="#0B838A" id="VISpor5" d="M395 127c2.16 0 4.167 2 7 2 0-7.449-8-13.101-8-20-1.248 0-12.322-20-17-20h-1l-5 11v1l4.5 5c3.083 3.083 11.5 12.783 11.5 17l8 4Z"/><path fill="#C8CBCC" id="ec" d="m88 106-1 1c0 .853.018 2.741 1.5 2l8-8c5.904-2.952 12.238-5.12 18-8l2.5-2v-1c-5.901 0-10.575 5-16 5 0 2.177-4.336 4-6 4 0 1.198-4.298 6-6 6l-1 1ZM371 110v1c-3.975 0-5.94-6.72-8.5-8-5.896-2.948-17.034-12-23.5-12v-1c6.373 0 12.178 3.339 17.5 6l10.5 8v1l4 5Z"/><path fill="#7DCD4B" id="HPF" d="M86 111c0 3.948-1 9.393-1 14 1.951 0 .477-2.454 1-3.5l5-12c2.196-4.393 20-10.854 20-2.5l2 2c0-6.813 4-11.087 4-18l-2.5 2c-5.762 2.88-12.096 5.048-18 8l-8 8c-1.482.741-1.5-1.147-1.5-2h-1l-1 2h1c1.4 0 1.4 2 0 2ZM371 111l1 17c-1.381 0-1.413-6.327-2-7.5-1.788-3.576-3.181-7.362-5-11-2.38-4.76-20-10.491-20-2.5h-1c-1.951 0-.477-2.454-1-3.5-1.903-3.806-4-7.941-4-12.5 6.466 0 17.604 9.052 23.5 12 2.56 1.28 4.525 8 8.5 8Z"/><path fill="#08848A" id="VISpl6b" d="M101 95c-1.417 0-6 2.383-6 4 1.664 0 6-1.823 6-4ZM95 99c-2.473 0-6 3.527-6 6 1.702 0 6-4.802 6-6Z"/><path fill="#FE79FE" id="ICe" d="M164 125c0 1.935-2.716 6-5 6-9.433 0-18 1.29-18-11v-2c1.353 0 2-4.643 2-6 .698 0 6.641-11.571 9.5-13 5.785-2.892 11.5 21.899 11.5 26ZM293 125c0 2.666 2.104 6 5 6 12.651 0 17 1.531 17-14v-1c-1.845 0-1.441-3.381-2-4.5-1.826-3.652-5.196-10.348-9.5-12.5-2.659-1.33-4.719 3.938-5.5 5.5-3.172 6.344-5 12.818-5 20.5Z"/><path fill="#0C858B" id="VISpor6a" d="M371 109c6.248 0 10.237 14 16 14 0-4.217-8.417-13.917-11.5-17l-4.5-5c0 .373 1.149 5.202 1 5.5-.596 1.192-2-3.542-2 .5l1 2ZM85 109c-6.08 0-8.61 13-15 13 0-1.792 13.742-20 15-20 1.7 0 1 3.3 1 5l-1 2Z"/><path fill="#32B623" id="ENTm6" d="M81 142c0 14.201-6 33.349-6 47 2.588 0 6.498 3.501 9.5 2 5.72-2.86 3.323-10.145 5.5-14.5 2.259-4.518-.336-9.328 2-14 4.967-9.934 3-22.998 8-33 1.482-2.965 7.591-22.5 11-22.5 0-8.354-17.804-1.893-20 2.5l-5 12c-.523 1.046.951 3.5-1 3.5v1c0 1.145.58 4-1 4v2l-1 1-1 8-1 1ZM375 140c0 16.023 6 32.741 6 49l-8.5 2c-8.929-4.464-4.303-17.106-7.5-23.5-4.964-9.928-3.167-27.334-9-39-1.511-3.023-6.998-21.5-11-21.5 0-7.991 17.62-2.26 20 2.5 1.819 3.638 3.212 7.424 5 11 .587 1.173.619 7.5 2 7.5v1l1 2 1 8 1 1Z"/><path fill="#08848A" id="VISpl6b" d="m89 105-1 1 1-1Z"/><path fill="#7DCD4B" id="HPF" d="M371 109v1l-4-5h1l1 1 1 1 1 2Z"/><path fill="#08848A" id="VISpl6b" d="m368 105 1 1-1-1Z"/><path fill="#7DCD4B" id="HPF" d="m88 106-1 1 1-1Z"/><path fill="#30B724" id="ENTm5" d="m75 189-2 14 5.5 4c8.798 4.399 14.593-.686 18.5-8.5 2.944-5.887 2.072-25.144 6-33 .813-1.625-.67-8.5 2-8.5v-3l1-2c0-8.701 3.263-21.025 7-28.5V109l-2-2c-3.409 0-9.518 19.535-11 22.5-5 10.002-3.033 23.066-8 33-2.336 4.672.259 9.482-2 14-2.177 4.355.22 11.64-5.5 14.5-3.002 1.501-6.912-2-9.5-2Z"/><path fill="#A9A9A8" id="AQ" d="M226 125h4l5-6.5c1.111-2.222-6.033-12.233-7.5-11.5l-2 4c-9.774 9.774.5 5.876.5 14Z"/><path fill="#30B724" id="ENTm5" d="m381 189 3 14c-5.67 0-16.136 13.228-23-.5-5.161-10.323-1.841-24.682-7-35-.928-1.857-.495-12.5-3-12.5 0-8.868-3.181-21.861-7-29.5-2.372-4.745 0-11.584 0-16.5v-2h1c4.002 0 9.489 18.477 11 21.5 5.833 11.666 4.036 29.072 9 39 3.197 6.394-1.429 19.036 7.5 23.5l8.5-2Z"/><path fill="#32B824" id="ENTl6a" d="M81 142c0 14.201-6 33.349-6 47-3.338 0-6.827-11.155-8-13.5-8.041-16.082 2-34.692 2-51.5v-1l1-1c6.39 0 8.92-13 15-13h1v2c0 3.948-1 9.393-1 14v1c-1.58 0-1 2.855-1 4v2l-1 1-1 8-1 1Z"/><path fill="#C8CBCC" id="ec" d="M86 109c1.4 0 1.4 2 0 2v-2Z"/><path fill="#72D568" id="PAR" d="m109 196 3 6c1.743 0 2.992-13.483 4-15.5 3.682-7.363 3.307-16.615 7-24l2-14c2.155-4.31 5-11.538 5-16.5-1.852 0-16-20.282-16-23h-1v14.5c-3.737 7.475-7 19.799-7 28.5l-1 2v3l-1 20.5c1.269 2.539 2 8.728 2 11.5.886 0 3 5.824 3 7Z"/><path fill="#59B847" id="PRE" d="m138 109-6 18.5c-.465.93-.817 4.5-2 4.5-1.852 0-16-20.282-16-23h24ZM343 109c0 2.283-15.279 23-17 23 0-6.278-7-15.79-7-23h24Z"/><path fill="#72D568" id="PAR" d="M347 197c-1.995 0-2 4.377-2 6-2.025 0-3.833-15.166-5-17.5-5.15-10.301-3.844-23.689-9-34v-4l-5-15.5c1.721 0 17-20.717 17-23h1c0 4.916-2.372 11.755 0 16.5 3.819 7.639 7 20.632 7 29.5 0 5.307 3.438 22.624 1 27.5-.946 1.892-2 5.372-2 7.5l-3 7Z"/><path fill="#32B824" id="ENTl6a" d="M375 140c0 16.023 6 32.741 6 49 3.679 0 6.832-10.163 8-12.5 8.514-17.029-2-35.378-2-53.5-5.763 0-9.752-14-16-14v2l1 17v1l1 2 1 8 1 1Z"/><path fill="#FF64FF" id="MB" d="M143 112c-1.995 0-2 4.377-2 6 1.353 0 2-4.643 2-6Z"/><path fill="#FF64FF" id="MB" fill-rule="evenodd" d="M297 162c6.418 0 1.663 11 6 11 0-7.388-.068-10.716 6.5-14l3-1 3.5 3c0-1.259-.15-7 1.5-7l2.5 3v-28c-7.485 0-1.733-12-5-12 0 15.531-4.349 14-17 14 0 4.576 2.327 9.846 0 14.5l-9 7.5c3.818 0 8 5.488 8 9m16-15c1.571 0 .911-7.294 3.5-6 2.391 1.196 2.391 8.804 0 10-2.377 1.189-2.116-2-3.5-2-2.594 0-4.842 4.829-8.5 3-12.892-6.446 8.5-21.402 8.5-5Z"/><path fill="#FF8FFD" id="MRN" d="M209 187h4c0-4.492-.893-10 5-10v-1c-2.105 0 .709-8 3-8l-1-3v-4c-1.577 0-2-1.762-2-3h-1c0 9.705-13.549-4-4-4l-2-2c-4.081 0-6.123-3.312-9.5-5-12.078-6.039-10.5-10.285-10.5-23-4.243 0-11.36-8.57-18.5-5-1.5.75-8.112 6-8.5 6 0 1.935-2.716 6-5 6 0 6.311-4.493 6.514 0 15.5 1.309 2.618 9 5.15 9 6.5 5.169 0 12.269-2.615 17.5 0l4 6c1.747.874 4.5 4.576 4.5 7 3.581 0 14.333-1.083 18.5 1 1.477.738 2.715 7.143 1 8-3.188 1.594-7.681 1-11.5 1 0 8.484-15 5.853-15 9h11.5l4.5 2h2c0-3.701 4-3.701 4 0ZM252 187h1l4.5-2c4.112-2.056 11.536 1 15.5 1v-1c-5.133 0-19-2.75-19-9-3.732 0-8.391.555-11.5-1v-7c5.176-2.588 15.661-2 20.5-2 0-3.428 1.576-5.076 4-7.5 10.347-10.347 9.217-5.5 22-5.5l9-7.5c2.327-4.654 0-9.924 0-14.5-2.896 0-5-3.334-5-6l-8.5-6c-7.951-3.975-17.111 6-19.5 6 0 14.111 1.183 16.659-11.5 23-2.97 1.485-4.924 4-8.5 4l-2 2c3.312 0 4.583 5.458 1.5 7-2.541 1.27-3.709-2-5.5-2l-3 2v7c2.954 0 3 6.821 3 9 5.029 0 4 6.457 4 10h4c0-6.921 4.784 0 5 0Z"/><path fill="#FF64FF" id="MB" fill-rule="evenodd" d="m140 163 3.5-5 3 1c8.965 4.482 6.5 6.065 6.5 15 4.401 0 .018-12 6-12 1.117 0 3.019-9 9-9 0-1.35-7.691-3.882-9-6.5-4.493-8.986 0-9.189 0-15.5-9.433 0-18 1.29-18-11-2.308 0-.257 7.013-1 8.5-.995 1.989-3-.086-3-1.5-1.714 0-1 5.594-1 7v24l2.5-4c2.393 0 1.5 7.525 1.5 9m3-19c1.759 0 3.909-6.796 7.5-5 9.542 4.771 4.042 16.521-3 13-1.87-.935-3.984-7-4.5-7v3.5c0 8.198-9.712-4.394-3.5-7.5l3.5 3Z"/><path fill="#0C858B" id="VISpor6a" d="m70 122-1 1 1-1Z"/><path fill="#31B824" id="ENTl5" d="m381 189 3 14c4.098 0 10.391-10.282 12-13.5 4.259-8.517 7.753-23.495 3-33-1.406-2.812.461-7.078-1-10l-1-14-2-5.5-8-4c0 18.122 10.514 36.471 2 53.5-1.168 2.337-4.321 12.5-8 12.5ZM75 189l-2 14c-4.231 0-9.45-8.398-11-11.5-1.459-2.917-3.58-5.159-5-8-2.407-4.814-1.272-29.456 1-34l1-15c1.07-2.14 2-3.887 2-6.5l8-4c0 16.808-10.041 35.418-2 51.5 1.173 2.345 4.662 13.5 8 13.5Z"/><path fill="#FF64FF" id="MB" d="M226 130h5c0-1.235.643-5-1-5h-4v5Z"/><path fill="#7DCD4B" id="HPF" d="M85 126c-1.58 0-1 2.855-1 4 1.58 0 1-2.855 1-4Z"/><path fill="#32B725" id="ENTl3" d="m384 203 2 12c2.006 0 11.87-13.241 13-15.5 15.924-31.847 3-38.245 3-69.5v-1c-2.833 0-4.84-2-7-2l2 5.5 1 14c1.461 2.922-.406 7.188 1 10 4.753 9.505 1.259 24.483-3 33-1.609 3.218-7.902 13.5-12 13.5ZM70 215h1c0-4.411 2-8.371 2-12-4.231 0-9.45-8.398-11-11.5-1.459-2.917-3.58-5.159-5-8-2.407-4.814-1.272-29.456 1-34l1-15c1.07-2.14 2-3.887 2-6.5l-6 1-1 1c0 27.146-11.323 40.853 2 67.5 1.135 2.27 12.07 17.5 14 17.5Z"/><path fill="#7DCD4B" id="HPF" d="m372 129 1 2-1-2Z"/><path fill="#32B825" id="ENTl2" d="m70 215-1 7c-4.846 0-16.878-13.257-19-17.5-3.749-7.497-15.846-32.308-11-42 4.294-8.588 6-17.225 6-26.5v-1c3.482 0 5.71-5 9-5 0 27.146-11.323 40.853 2 67.5 1.135 2.27 12.07 17.5 14 17.5Z"/><path fill="#FDA6FF" id="DR" d="M231 163v1l-3.5 2-2.5-3v-2c0-2.526-2-5.577-2-9v-18.5l3-3.5h5c0 1.009 2.421 5.343 3 6.5.176.352 0 15.031 0 16.5l-1 6-1 1v1l-1 2Z"/><path fill="#32B825" id="ENTl2" d="m386 215 1 7c5.808 0 17.579-13.659 20-18.5 2.712-5.424 14.055-29.889 11-36-3.709-7.417-7-22.374-7-31.5v-1l-9-5c0 31.255 12.924 37.653-3 69.5-1.13 2.259-10.994 15.5-13 15.5Z"/><path fill="#7DCD4B" id="HPF" d="m84 132-1 1 1-1Z"/><path fill="#32B722" id="ENTl1" d="M69 222v5c-6.29 0-10.065-7.782-14.5-10-10.069-5.034-25.004-40.493-19.5-51.5v-7c2.838-5.677 5-10.581 5-17.5l5-5c0 9.275-1.706 17.912-6 26.5-4.846 9.692 7.251 34.503 11 42 2.122 4.243 14.154 17.5 19 17.5ZM387 223l1 4c4.588 0 8.391-6.446 11.5-8 12.642-6.321 15.196-21.891 20.5-32.5l1-7c1.29-2.579 2.523-12.954 1-16-2.582-5.163-6-17.457-6-23.5-2.492 0-1.835-4-5-4 0 9.126 3.291 24.083 7 31.5 3.055 6.111-8.288 30.576-11 36-2.421 4.841-14.192 18.5-20 18.5v1Z"/><path fill="#FF7AFE" id="SAG" d="M143 144c1.759 0 3.909-6.796 7.5-5 9.542 4.771 4.042 16.521-3 13-1.87-.935-3.984-7-4.5-7v-1ZM313 147v2c-2.594 0-4.842 4.829-8.5 3-12.892-6.446 8.5-21.402 8.5-5Z"/><path fill="#7DCD4B" id="HPF" d="m374 139 1 1-1-1ZM82 141l-1 1 1-1Z"/><path fill="#FF79FD" id="PBG" d="m143 144-3.5-3c-6.212 3.106 3.5 15.698 3.5 7.5V144ZM313 147c1.571 0 .911-7.294 3.5-6 2.391 1.196 2.391 8.804 0 10-2.377 1.189-2.116-2-3.5-2v-2Z"/><path fill="#FD90FF" id="IV" d="m241 154-1 1c-2.313 0-5 2.273-5-2 0-3.418 7-7.076 7-2l-1 3ZM214 151c0 4.332 7 7.73 7 1 0-3.042-7-4.852-7-1Z"/><path fill="#FF64FF" id="MB" d="M218 158c0-4.063 6.953 3 7 3 0-2.526-2-5.577-2-9h-2c0 6.73-7 3.332-7-1l-3 1 2 2c2.226 0 4 1.774 4 4h1ZM241 154h2l2-2-3-1-1 3Z"/><path fill="#31B723" id="ENTm3" d="m106 152-1 2 1-2Z"/><path fill="#FFA5FD" id="PPN" d="M167 187h14l2-1c0-1.579 2.855-1 4-1 0-3.147 15-.516 15-9-2.112 0-8.868-1.236-10-3.5-.68-1.359.989-6.5 2-6.5 0-2.424-2.753-6.126-4.5-7l-4-6c-5.231-2.615-12.331 0-17.5 0-5.981 0-7.883 9-9 9 0 1.423 1.978 3.544 1 5.5l-2 3.5-1 1c0 3.078 3 6.325 3 9l1 1v1l6 4ZM274 186c2.128 0 5.608 1.054 7.5 2l8.5-1 5-4 1-1 3-6.5c1.707-3.414-1.814-6.627-3-9l1-4.5c0-3.512-4.182-9-8-9-12.783 0-11.653-4.847-22 5.5-2.424 2.424-4 4.072-4 7.5 0 6.894 4.352 10-9 10 0 6.25 13.867 9 19 9l1 1Z"/><path fill="#FF64FF" id="MB" d="M239 158c-3.329 0-4.97 1-6 1l1-6h1c0 4.273 2.687 2 5 2l-1 3Z"/><path fill="#C9C9CB" id="ll" d="m141 199 2 4c-3.066 0-5.187-5-7-5l-1-3c0-5.631-3.565-24.37-1-29.5 1.112-2.225 2-4.846 2-7.5l2.5-4c2.393 0 1.5 7.525 1.5 9 0 6.527-5.225 24.05-3 28.5l4 7.5Z"/><path fill="#FE8DFE" id="Pa4" d="M213 154c2.226 0 4 1.774 4 4 0 9.705-13.549-4-4-4Z"/><path fill="#FF64FF" id="MB" d="m241 154-1 1 1-1Z"/><path fill="#FE8DFE" id="Pa4" d="M239 158v1c1.791 0 2.959 3.27 5.5 2 3.083-1.542 1.812-7-1.5-7h-2l-1 1-1 3Z"/><path fill="#C9C9CB" id="ll" d="m315 199-1 4 6-5 2-4c0-4.935 3.561-15.378 1-20.5-1.759-3.518-3-12.689-3-16.5l-2.5-3c-1.65 0-1.5 5.741-1.5 7 0 7.221 5.844 25.813 3 31.5l-3 5.5-1 1Z"/><path fill="#31B723" id="ENTm3" d="m384 203 2 12c-13.905 0-9.488 8.506-26.5 0-3.141-1.571-5.749-15.998-7.5-19.5-.557-1.114-.41-5.5-2-5.5 0-2.128 1.054-5.608 2-7.5 2.438-4.876-1-22.193-1-27.5 2.505 0 2.072 10.643 3 12.5 5.159 10.318 1.839 24.677 7 35 6.864 13.728 17.33.5 23 .5ZM73 203c0 3.629-2 7.589-2 12 5.723 0 13.534 7.483 20.5 4 7.256-3.628 14.5-22.369 14.5-30 0-2.772-.731-8.961-2-11.5l1-20.5c-2.67 0-1.187 6.875-2 8.5-3.928 7.856-3.056 27.113-6 33-3.907 7.814-9.702 12.899-18.5 8.5l-5.5-4Z"/><path fill="#CBCBCC" id="mlf" d="M220 164v1c1.85 0 5 1.798 5-2v-2c-.047 0-7-7.063-7-3 0 1.238.423 3 2 3 1.486 0 1.486 3 0 3ZM231 164c1.624 0 2.75 2 5 2v-3c-1.399 0-1.399-2 0-2l3-2v-1c-3.329 0-4.97 1-6 1l-1 1v1l-1 2v1Z"/><path fill="#FFAC6F" id="NLL" d="M147 203h4l3-5-1-24c0-8.935 2.465-10.518-6.5-15l-3-1-3.5 5c0 6.527-5.225 24.05-3 28.5l4 7.5c2.33 0 3.227 4 6 4ZM305 203h4c2.773 0 3.67-4 6-4l1-1 3-5.5c2.844-5.687-3-24.279-3-31.5l-3.5-3-3 1c-6.568 3.284-6.5 6.612-6.5 14v24c0 2.518 2 4.286 2 6Z"/><path fill="#FF64FF" id="MB" d="m233 159-1 1 1-1ZM220 161c1.486 0 1.486 3 0 3v-3ZM232 161l-1 2 1-2ZM236 161c-1.399 0-1.399 2 0 2v-2Z"/><path fill="#C9C9CB" id="ll" d="M161 187c0 3.892-.718 11.109-4.5 13l-2.5-2-1-24c4.401 0 .018-12 6-12 0 1.423 1.978 3.544 1 5.5l-2 3.5-1 1c0 3.078 3 6.325 3 9l1 1v5ZM295 187c0 2.641 1.513 13 5.5 13l2.5-3v-24c-4.337 0 .418-11-6-11l-1 4.5c1.186 2.373 4.707 5.586 3 9l-3 6.5-1 1v4Z"/><path fill="#FF64FF" id="MB" fill-rule="evenodd" d="M227 170c0 .402-2.465 3.43-3 4.5-1.517 3.034 3.525 6.988 6.5 5.5 4.455-2.227.874-10-3.5-10m-4 19c1.772 0 5.385 2.057 5.5 2 1.959-.979 1.231-2 4.5-2 0-2.605 1.386-12 5-12 0-2.84-2-5.676-2-9v-2c-2.25 0-3.376-2-5-2l-3.5 2-2.5-3c0 3.798-3.15 2-5 2l1 3c0 1.4-1.431 8-3 8v1c4.152 0 5 9.098 5 12Z"/><path fill="#CBC9CB" id="scp" d="M194 166c3.581 0 14.333-1.083 18.5 1 1.477.738 2.715 7.143 1 8-3.188 1.594-7.681 1-11.5 1-2.112 0-8.868-1.236-10-3.5-.68-1.359.989-6.5 2-6.5ZM263 166c-4.839 0-15.324-.588-20.5 2v7c3.109 1.555 7.768 1 11.5 1 13.352 0 9-3.106 9-10Z"/><path fill="#C8C8C8" id="mtg" d="M221 168c-2.291 0-5.105 8-3 8 1.569 0 3-6.6 3-8ZM238 177h1c0-2.179-.046-9-3-9 0 3.324 2 6.16 2 9Z"/><path fill="#CCC7CC" id="dscp" d="M227 170c0 .402-2.465 3.43-3 4.5-1.517 3.034 3.525 6.988 6.5 5.5 4.455-2.227.874-10-3.5-10Z"/><path fill="#FF64FF" id="MB" d="m158 171-1 1 1-1Z"/><path fill="#FD90FE" id="AT" d="M214 188c0 3.474 9 6.762 9 1 0-2.902-.848-12-5-12-5.893 0-5 5.508-5 10l1 1ZM243 188c-.864 0-10 9.264-10 1 0-2.605 1.386-12 5-12h1c5.029 0 4 6.457 4 10v1Z"/><path fill="#FF64FF" id="MB" d="m160 181 1 1-1-1ZM296 182l-1 1 1-1ZM161 187h6l-6-4v4ZM290 187h5v-4l-5 4Z"/><path fill="#C8C8CC" id="tspc" d="m212 197 1 17c-2.922 0-8-22.17-8-26v-1c0-3.701 4-3.701 4 0v1c0 .877 2.665 9 3 9ZM243 213l1 1c2.569 0 7-21.854 7-25l1-1v-1c-.216 0-5-6.921-5 0v1c0 1.419-2.339 12-3 12l-1 13Z"/><path fill="#FF8FFD" id="MRN" d="M183 186h1c1.048 0 3 .473 3-1-1.145 0-4-.579-4 1Z"/><path fill="#FFC295" id="PRNr" d="M177 253h29v-1c-7.453 0-1.659-22 7-22 0-1.714 2-3.482 2-6v-4l-1-1v-2c-1.473 0-1-1.952-1-3-2.922 0-8-22.17-8-26l-2-1-4.5-2H187c0 1.473-1.952 1-3 1 0 1.473-1.952 1-3 1 0 1.59-4.386 1.443-5.5 2-3.982 1.991-12.118 2.736-14.5 7.5-1.143 2.285 1.226 3.453 2 5l4 12c1.346 2.692-2.466 17.5 2 17.5 8.033 0 8 15.117 8 22ZM250 253h29v-1c0-7.504.232-21 9-21 1.614 0 1-3.31 1-4.5l1-15c1.416-2.832 6.645-12.709 5-16-2.037-4.074-13.68-5.59-17.5-7.5-.93-.465-4.5-.817-4.5-2-3.964 0-11.388-3.056-15.5-1l-4.5 2-1 1-1 1c0 3.146-4.431 25-7 25l-1 1v2l-1 2v1l-1 2v3l2 5c8.662 0 13.318 14.865 10 21.5l-3 1.5Z"/><path fill="#FF64FF" id="MB" d="M273 186h1l-1-1v1Z"/><path fill="#FF9B88" id="P" d="M184 186c0 1.473-1.952 1-3 1l2-1h1Z"/><path fill="#FF9B88" id="P" fill-rule="evenodd" d="M289 277c0 3.746 2.091 0 0 0m11-38c0 5.567 2.112 0 0 0m10-24c0 .035-6.383 13.265-7 14.5l-1 8.5c0 22.611 19.223-1.054 12-15.5-.808-1.616-1.352-7.5-4-7.5m-27 70-2 1c0-1.473-1.952-1-3-1 0-.491 9-4.828 9-12l3-3.5c1.14-2.28 3.577-6.845 2-10-.882-1.763-5-4.04-5-.5l-2-4 3-4.5c1.574-3.147.373-7.747 2-11 1.675-3.349-2-6.241-2-8.5 1.614 0 1-3.31 1-4.5l1-15c1.416-2.832 6.645-12.709 5-16-2.037-4.074-13.68-5.59-17.5-7.5-.93-.465-4.5-.817-4.5-2h1c2.128 0 5.608 1.054 7.5 2l8.5-1h5c0 2.641 1.513 13 5.5 13l2.5-3c0 2.518 2 4.286 2 6 0 .529-2.475 12-.5 12 2.923 0 4.5-10.07 4.5-12 2.773 0 3.67-4 6-4l-1 4-1 1c0 2.099-3.558 4.383-2 7.5 3.931 7.862 9 13.087 9 21.5l-3 3.5c-5.081 10.163-3.187 11.5-15 11.5 0-4.452-2.023-5-5-5v-28c0-1.887-.8-15.901-4-9.5-1.568 3.137-3.915 29.169-2 33 .901 1.801 3.058.5 4 .5 0 8.236 2.53 22.44-1 29.5-.57 1.14-.263 6.5 1 6.5 0 2.643-6.719 8-10 8l-2 2Z"/><path fill="#FF9B88" id="P" d="M155 245v4c-10.141 0-10.511-2.522-15-11.5l-3-3.5c0-11.478 4.004-13.508 9-23.5l-1-4.5-2-2v-1l-2-4c2.33 0 3.227 4 6 4 0 1.444 2.844 12 4.5 12 1.129 0 1.258-12-.5-12l3-5 2.5 2c3.782-1.891 4.5-9.108 4.5-13h20c0 1.59-4.386 1.443-5.5 2-3.982 1.991-12.118 2.736-14.5 7.5-1.143 2.285 1.226 3.453 2 5l4 12c1.346 2.692-2.466 17.5 2 17.5l-3 4-1-25c0-.943-2.587-6.457-3.5-6-5.178 2.589-1.5 25.11-1.5 30-1.735 0-1 6.51-1 8l-2-1c0-2.729-.423-1-2-1 0-7.108-3.01-14.52-6-20.5l-2.5-4.5c-3.255 0-7.349 18.802-5.5 22.5 1.346 2.692 6.471 12.515 10.5 10.5l3.5-3ZM205 187v1l-2-1h2Z"/><path fill="#FF64FF" id="MB" d="M212 188h2l-1-1h-4v1h3ZM244 188h3v-1h-4v1h1Z"/><path fill="#FF9B88" id="P" d="m253 187-1 1v-1h1ZM212 188v9c-.335 0-3-8.123-3-9h3Z"/><path fill="#FFC393" id="CS" d="M225 232c3.484 0 .369-11.935 2.5-13 2.335-1.168 1.516 13 4.5 13l3-1 6-6v-3l1-2v-1l1-2v-4l1-13v-12h-1c-.864 0-10 9.264-10 1-3.269 0-2.541 1.021-4.5 2-.115.057-3.728-2-5.5-2 0 5.762-9 2.474-9-1h-2v9l1 17c1.473 0 1 1.952 1 3v2l1 1v4l6 7 4 1Z"/><path fill="#FF9B88" id="P" d="M247 188c0 1.419-2.339 12-3 12v-12h3ZM252 188l-1 1 1-1Z"/><path fill="#30B824" id="ENTm2" d="M70 215h1c5.723 0 13.534 7.483 20.5 4 7.256-3.628 14.5-22.369 14.5-30 .886 0 3 5.824 3 7l-2 4.5v4c-5.994 11.988-2.628 16.564-16.5 23.5-4.5 2.25-17.38-6-21.5-6l1-7ZM387 222v1c-11.571 0-15.841 8.33-28.5 2-4.195-2.097-8.5-14.828-8.5-19 0-1.671-1.131-9-3-9l3-7c1.59 0 1.443 4.386 2 5.5 1.751 3.502 4.359 17.929 7.5 19.5 17.012 8.506 12.595 0 26.5 0l1 7Z"/><path fill="#F0F080" id="CB" d="M136 198c0 .733-6.022 3-7 3 0-5.278 2.179-6 6-6l1 3ZM320 198l7 3.5 2 3.5c0-3.314-2.719-11-7-11l-2 4Z"/><path fill="#31B625" id="ENTm1" d="M69 222v5c0 3.851 21.963 8.269 26.5 6 8.944-4.472 16.5-21.185 16.5-31l-3-6-2 4.5v4c-5.994 11.988-2.628 16.564-16.5 23.5-4.5 2.25-17.38-6-21.5-6ZM387 223l1 4c0 3.379-21.89 8.305-26.5 6-10.149-5.074-16.5-19.009-16.5-30 0-1.623.005-6 2-6 1.869 0 3 7.329 3 9 0 4.172 4.305 16.903 8.5 19 12.659 6.33 16.929-2 28.5-2Z"/><path fill="#CCCCCA" id="mcp" d="M129 227c0 1.782 6.482 7 8 7 0-11.478 4.004-13.508 9-23.5l-1-4.5-2-2v-1c-3.066 0-5.187-5-7-5 0 .733-6.022 3-7 3l-1 2v1c0 1.048.473 3-1 3v4c0 5.88 2 10.652 2 16Z"/><path fill="#FF9B88" id="P" d="m316 198-1 1 1-1Z"/><path fill="#CCCCCA" id="mcp" d="M327 228c0 1.343-5.135 5-7 5 0-8.413-5.069-13.638-9-21.5-1.558-3.117 2-5.401 2-7.5l1-1 6-5 7 3.5 2 3.5v3c0 7.067-2 13.852-2 20Z"/><path fill="#F0F080" id="CB" d="m129 201-1 2 1-2Z"/><path fill="#CBC7CC" id="sctv" d="M147 203h4c1.758 0 1.629 12 .5 12-1.656 0-4.5-10.556-4.5-12ZM305 203h4c0 1.93-1.577 12-4.5 12-1.975 0 .5-11.471.5-12Z"/><path fill="#C9C9CB" id="ll" d="m314 203-1 1 1-1Z"/><path fill="#F0F080" id="CB" d="M128 204c-1.473 0-1 1.952-1 3 1.473 0 1-1.952 1-3Z"/><path fill="#C9C9CB" id="ll" d="m143 204 2 2-2-2Z"/><path fill="#C8C8CB" id="rust" d="M161 237v2c5.597 0 3.477-4 5-4l-1-25c0-.943-2.587-6.457-3.5-6-5.178 2.589-1.5 25.11-1.5 30v2l1 1ZM296 238l-1 1c-.942 0-3.099 1.301-4-.5-1.915-3.831.432-29.863 2-33 3.2-6.401 4 7.613 4 9.5v20c-1.473 0-1 1.952-1 3Z"/><path fill="#F0F080" id="CB" d="M327 228h6c0-3.597-1.336-12.171-3-15.5-.574-1.147 1.064-4.5-1-4.5 0 7.067-2 13.852-2 20ZM129 227l-5 1-1-1 2-3.5c.951-1.903-.656-12.5 2-12.5 0 5.88 2 10.652 2 16Z"/><path fill="#FF9B88" id="P" d="m244 214-1 1v-2l1 1ZM213 214c1.473 0 1 1.952 1 3-1.473 0-1-1.952-1-3Z"/><path fill="#FFAE6F" id="PSV" d="M155 244v1l-3.5 3c-4.029 2.015-9.154-7.808-10.5-10.5-1.849-3.698 2.245-22.5 5.5-22.5l2.5 4.5c2.99 5.98 6 13.392 6 20.5v4ZM310 215c0 .035-6.383 13.265-7 14.5l-1 8.5c0 22.611 19.223-1.054 12-15.5-.808-1.616-1.352-7.5-4-7.5Z"/><path fill="#FF9B88" id="P" d="m243 217-1 2 1-2ZM214 219l1 1-1-1ZM226 260h5v-9c-1.614 0-1-3.31-1-4.5 0-5.103 2-9.935 2-14.5-2.984 0-2.165-14.168-4.5-13-2.131 1.065.984 13-2.5 13l2 12.5c0 1.19.614 4.5-1 4.5v11ZM242 220l-1 2 1-2ZM213 230l8 1-6-7c0 2.518-2 4.286-2 6ZM243 230l-8 1 6-6 2 5ZM124 228l-1 1v-2l1 1Z"/><path fill="#CACACB" id="sV" d="m155 249 1 4c-.373 0-3.027 4.263-4.5 5-1.794.897-4.676-.338-6-1h-8c-9.293-4.647-15.5-12.767-15.5-24v-2l1-2 1-1 5-1c0 1.782 6.482 7 8 7l3 3.5c4.489 8.978 4.859 11.5 15 11.5ZM301 249l-1 4 4.5 5c1.927.964 5.545-.272 7-1h8c11.544-5.772 14.5-14.187 14.5-26v-1l-1-2h-6c0 1.343-5.135 5-7 5l-3 3.5c-5.081 10.163-3.187 11.5-15 11.5l-1 1Z"/><path fill="#FF9B88" id="P" d="m333 228 1 2-1-2ZM123 229l-1 2 1-2Z"/><path fill="#FEBA85" id="TRN" d="m206 252 6.5 2c2.364 1.182 5.696-1 7.5-1 2.318 0-.517-8 3.5-8l2.5 4c1.614 0 1-3.31 1-4.5l-2-12.5-4-1-8-1c-8.659 0-14.453 22-7 22ZM249 253h1l3-1.5c3.318-6.635-1.338-21.5-10-21.5l-8 1-3 1c0 4.565-2 9.397-2 14.5 0 1.19-.614 4.5 1 4.5 0-9.301 5-4.189 5 2h13Z"/><path fill="#C9C9CB" id="ll" d="M171 255h3c0-1.577 1.762-2 3-2 0-6.883.033-22-8-22l-3 4c0 2.772 1.874 15.248 3 17.5.723 1.445 2 .091 2 2.5ZM282 255h3l3-4.5c1.574-3.147.373-7.747 2-11 1.675-3.349-2-6.241-2-8.5-8.768 0-9 13.496-9 21l3 3Z"/><path fill="#FF9B88" id="P" d="M297 253c.476 0 3 3.803 3 0l4.5 5c1.927.964 5.545-.272 7-1h8c11.544-5.772 14.5-14.187 14.5-26 1.614 0 1 3.31 1 4.5 0 5.153.119 9.761-2 14-3.173 6.345-21.413 13.457-27.5 16.5-3.747 1.873-6.063 9-10.5 9 0-2.481 5-5.368 5-8.5 0-4.445-3-8.357-3-13.5Z"/><path fill="#FF9B88" id="P" fill-rule="evenodd" d="M166 277c0 1.93 1.93 0 0 0m15 8c0 2.9-10-3.166-10-2.5 0 1.889 8 3.497 8 4.5-8.435 0-11.549-8.525-18.5-12l-11-10c-4.592-2.296-9.462-3.731-14-6-2.225-1.113-5.102-4.551-8-6-4.822-2.411-6.5-9.435-6.5-14 0-1.321-.684-6 1-6 0 11.233 6.207 19.353 15.5 24h8c1.324.662 4.206 1.897 6 1 1.473-.737 4.127-5 4.5-5l1.5 2c2.393 0 1.5-7.525 1.5-9 1.725 0 1 6.052 1 7.5 0 2.605-7.208 21.5 1.5 21.5 2.076 0 .5-6.734.5-8.5 0-9.296-1-18.769-1-27.5 5.597 0 3.477-4 5-4 0 2.772 1.874 15.248 3 17.5.723 1.445 2 .091 2 2.5l-1 5c-2.433 0 .02-4.26-4.5-2-4.516 2.258.372 15 4.5 15 0 5.471 3.661 12 11 12Z"/><path fill="#CBC7CC" id="sctv" d="M159 242v4c1.725 0 1 6.052 1 7.5 0 2.605-7.208 21.5 1.5 21.5 2.076 0 .5-6.734.5-8.5 0-9.296-1-18.769-1-27.5v-2l-1-1v-2c-1.735 0-1 6.51-1 8ZM297 253c0 5.143 3 9.055 3 13.5 0 3.132-5 6.019-5 8.5-1.263 0-1.57-5.36-1-6.5 3.53-7.06 1-21.264 1-29.5l1-1c0-1.048-.473-3 1-3v18Z"/><path fill="#FF9B88" id="P" d="m160 236 1 1-1-1ZM296 238l-1 1 1-1Z"/><path fill="#CCCBCA" id="moV" d="M155 241h2c0-2.729-.423-1-2-1v1ZM300 239c0 5.567 2.112 0 0 0Z"/><path fill="#FF9B88" id="P" d="m157 241-2 3v-3h2Z"/><path fill="#FDB986" id="PC5" d="m155 249 1 4 1.5 2c2.393 0 1.5-7.525 1.5-9v-4l-2-1-2 3v5ZM297 253c.476 0 3 3.803 3 0l1-4 1-1c0-4.452-2.023-5-5-5v10Z"/><path fill="#CACCC8" id="ml" d="M215 260c0 9.001 11 8.148 11 0v-11l-2.5-4c-4.017 0-1.182 8-3.5 8 0 3.943-5 3.319-5 7ZM231 260c0 8.494 10 8.799 10 0 0-3.681-5-3.057-5-7 0-6.189-5-11.301-5-2v9Z"/><path fill="#FF9B88" id="P" d="m302 248-1 1 1-1ZM215 260l-4 1c-1.179 0-12-1.241-12-2 3.981 0 13.809-.691 10-4.5l-3-1.5v-1l6.5 2c2.364 1.182 5.696-1 7.5-1 0 3.943-5 3.319-5 7ZM282 255l-2 1-2-1 1-2v-1l3 3ZM179 255l-2 1-3-1c0-1.577 1.762-2 3-2l2 2Z"/><path fill="#FDBA86" id="PRNc" d="m199 259-7 1c0-1.473-1.952-1-3-1-3.099 0-5.883-4-10-4l-2-2h29l3 1.5c3.809 3.809-6.019 4.5-10 4.5Z"/><path fill="#FF9B88" id="P" d="m241 260 4 1c1.179 0 12-1.241 12-2-1.881 0-12.354-.793-11-3.5l3-2.5h-13c0 3.943 5 3.319 5 7Z"/><path fill="#FDBA86" id="PRNc" d="m267 259-2 1-8-1c-1.881 0-12.354-.793-11-3.5l3-2.5h30l-1 2c-4.515 0-7.701 4-11 4Z"/><path fill="#FEAD6F" id="POR" d="M181 285h3c0-.974 6.851-2.202 8-4.5 2.118-4.236-1-5.563-1-9.5-5.345 0-14-9.407-14-15l-3-1h-3l-1 5v13c0 5.471 3.661 12 11 12Z"/><path fill="#FFAD6E" id="SOCm" d="M191 268v3c-5.345 0-14-9.407-14-15l2-1c4.117 0 6.901 4 10 4l2 3v6ZM265 269l1 2c4.749 0 14-10.605 14-15l-2-1c-4.515 0-7.701 4-11 4l-2 4v6Z"/><path fill="#FEAD6F" id="POR" d="M277 285h1c0-.491 9-4.828 9-12-4.966 0 0-12.267 0-14l-2-4h-3l-2 1c0 4.395-9.251 15-14 15 0 2.181-4.237 5.025-3 7.5 1.274 2.548 10 6.08 10 6.5h4Z"/><path fill="#FEAE6E" id="SOCl" d="M170 260c-2.433 0 .02-4.26-4.5-2-4.516 2.258.372 15 4.5 15v-13ZM287 259c0 1.733-4.966 14 0 14l3-3.5c1.14-2.28 3.577-6.845 2-10-.882-1.763-5-4.04-5-.5Z"/><path fill="#FF9B88" id="P" d="m192 260-1 2-2-3c1.048 0 3-.473 3 1Z"/><path fill="#FEA3D2" id="NTB" d="M191 268c2.559 0 .864 5 5 5l12-7.5 3-1c.929-1.858 0-1.893 0-3.5-1.179 0-12-1.241-12-2l-7 1-1 2v6ZM265 269c-1.97 0-1.478 4-5 4 0-3.108-15-5.856-15-12 1.179 0 12-1.241 12-2l8 1v9Z"/><path fill="#FF9B88" id="P" d="M265 260v3l2-4-2 1Z"/><path fill="#FF9BCD" id="MY" d="M211 281c7.195 0 12.795-12.352 21.5-8 4.986 2.493 7.498 8 13.5 8l-5-4.5c-1.094-2.189-.134-9.817 4.5-7.5 3.691 1.845 6.187 3.187 9.5 6.5l3 3.5 2-6c0-3.108-15-5.856-15-12l-4-1c0 8.799-10 8.494-10 0h-5c0 8.148-11 9.001-11 0l-4 1c0 1.607.929 1.642 0 3.5l-3 1-12 7.5c0 .698 2.714 7 3 7 0-4.824 13.173-16.153 17-8.5 2.15 4.3-5 6.375-5 9.5Z"/><path fill="#FF9B88" id="P" d="M198 283c-4.77 0-8.737 2-14 2 0-.974 6.851-2.202 8-4.5 2.118-4.236-1-5.563-1-9.5v-3c2.559 0 .864 5 5 5 0 .698 2.714 7 3 7v1l-1 2Z"/><path fill="#C7C9C9" id="py" d="M202 283h2l1-1h3l1-1h2c0-3.125 7.15-5.2 5-9.5-3.827-7.653-17 3.676-17 8.5v1l3 2ZM252 283h3l3-2v-2l-3-3.5c-3.313-3.313-5.809-4.655-9.5-6.5-4.634-2.317-5.594 5.311-4.5 7.5l5 4.5h1l1 1h3l1 1Z"/><path fill="#FF9B88" id="P" d="M258 283c5.02 0 9.401 2 15 2 0-.42-8.726-3.952-10-6.5-1.237-2.475 3-5.319 3-7.5l-1-2c-1.97 0-1.478 4-5 4l-2 6v4Z"/><path fill="#CCC7CB" id="tb" d="M261 288h2c0-1.793 12.009-1 14-1l-2-2h-2c-5.599 0-9.98-2-15-2h-6l-1-1h-3l-1-1h-1c-6.002 0-8.514-5.507-13.5-8-8.705-4.352-14.305 8-21.5 8h-2l-1 1h-3l-1 1h-6c-4.77 0-8.737 2-14 2h-3c0 2.9-10-3.166-10-2.5 0 1.889 8 3.497 8 4.5h1c1.991 0 14-.793 14 1h2l1-1h4c0-1.778 12.312-2 15-2h3l1-1 1-1c2.839 0 6.121-3.69 9.5-2l4.5 2 1 1h1l1 1h2c7.374 0 13.175 2 20 2l1 1ZM166 277c0 1.93 1.93 0 0 0ZM289 277c0 3.746 2.091 0 0 0Z"/><path fill="#FF9BCD" id="MY" d="M198 283h4l-3-2-1 2ZM209 281l-1 1 1-1ZM247 281l1 1-1-1ZM255 283h3v-2l-3 2ZM205 282l-1 1 1-1ZM251 282l1 1-1-1ZM221 283l-1 1 1-1ZM235 283l1 1-1-1ZM220 284l-1 1 1-1ZM237 284l1 1-1-1ZM216 285c-2.688 0-15 .222-15 2 2.1 0 15-.576 15-2ZM260 287v1l-15-2c-1.235 0-5 .643-5-1 7.374 0 13.175 2 20 2Z"/><path fill="#FF9B88" id="P" d="M281 286c0 1.579-2.855 1-4 1l-2-2h2c0 1.579 2.855 1 4 1Z"/><path fill="#CCC7CB" id="tb" d="M278 285c1.048 0 3-.473 3 1-1.145 0-4 .579-4-1h1Z"/><path fill="#FF9B88" id="P" d="M180 287c1.991 0 14-.793 14 1-1.991 0-14 .793-14-1ZM196 288h1v-1l-1 1Z"/><path fill="#FF9BCD" id="MY" d="M201 287c0 1.579-2.855 1-4 1v-1h4Z"/><path fill="#FF9B88" id="P" d="M260 288h1l-1-1v1ZM277 287c-1.991 0-14-.793-14 1 1.991 0 14 .793 14-1Z"/></svg>