<svg xmlns="http://www.w3.org/2000/svg" viewBox="0 0 456 320"><path fill="#1BA696" id="RSPagl1" d="m186 13-14 3-1-6c0-.365 13.543-3 15-3v6Z"/><path fill="#1BA598" id="RSPd1" d="M217 19h1l3-2c0-2.924-5.738-5.119-7.5-6-10.491-5.246-14.434-4-27.5-4v6c4.666 0 31-5.045 31 6ZM238 19h1c0-2.632 3.096-3.298 4.5-4 4.031-2.016 14.758-6.621 20-4l6.5 2c0-1.564 1-3.876 1-6-7.504 0-35-.954-35 10l2 2Z"/><path fill="#1BA696" id="RSPagl1" d="M270 13c4.902 0 9.334 3 14 3 0-1.564 1-3.876 1-6 0-.481-12.51-3-14-3 0 2.124-1 4.436-1 6Z"/><path fill="#09848B" id="VISam1" d="M140 23h1c0-1.59 4.386-1.443 5.5-2 6.684-3.342 17.66-5 25.5-5l-1-6c-2.863 0-23.265 3.883-25.5 5-2.069 1.035-5.13 3-7.5 3l2 5ZM319 19l-3 4-3.5-2c-5.692-2.846-21.586-5-28.5-5 0-1.564 1-3.876 1-6 5.874 0 21.405 3.453 26.5 6 1.538.77 7.5.476 7.5 3Z"/><path fill="#1BA697" id="RSPd2/3" d="M213 23h1l3-4c0-11.046-26.334-6-31-6v7c3.776 0 27-4.51 27 3ZM242 23h1c0-7.332 23.375-3 27-3v-7l-6.5-2c-5.242-2.621-15.969 1.984-20 4-1.404.702-4.5 1.368-4.5 4l3 4Z"/><path fill="#1AA496" id="RSPagl2/3" d="M173 25h1c3.933 0 7.365-4 12-4v-8l-14 3c0 1.819 1 4.59 1 7v2ZM283 23v2c-4.608 0-7.675-4-13-4v-8c4.902 0 9.334 3 14 3l-1 7Z"/><path fill="#0B848A" id="VISam2/3" d="M143 31h1c10.217 0 19.154-8 29-8 0-2.41-1-5.181-1-7-7.84 0-18.816 1.658-25.5 5-1.114.557-5.5.41-5.5 2 0 3.45 2 4.765 2 8ZM312 31h1l3-8-3.5-2c-5.692-2.846-21.586-5-28.5-5l-1 7c9.854 0 18.821 8 29 8Z"/><path fill="#1BA597" id="RSPv1" d="M230 67h2V30.5l6-11.5-2-2-7.5 12c-1.477 0-7.5-10.557-7.5-12l-3 2c0 .482 6.228 11.957 7 13.5V67h2c0-5.668 3-5.078 3 0Z"/><path fill="#019FAC" id="VISa1" d="m119 25 2 4c6.858 0 12.359-6 19-6l-2-5c-5.516 0-15.324 7-19 7Z"/><path fill="#1AA596" id="RSPd5" d="M205 32h1c0-3.466 7-5.378 7-9 0-7.51-23.224-3-27-3v12l3.5-2c2.428-1.214 15.5-2.504 15.5 2ZM251 31c3.441 0 9.054-4.223 13.5-2l6.5 3-1-11v-1c-3.625 0-27-4.332-27 3l8 8Z"/><path fill="#1AA597" id="RSPv2/3" d="M220 67h5V32.5c-.772-1.543-7-13.018-7-13.5h-1l-3 4 5 8.5 1 35.5ZM232 67h4l1-33.5 5-10.5-3-4h-1l-6 11.5V67Z"/><path fill="#019FAC" id="VISa1" d="M335 30h1l1-5c0-1.33-15.115-6-18-6l-3 4c4.896 0 10.348 2.924 14.5 5 .93.465 4.5.817 4.5 2Z"/><path fill="#1CA697" id="RSPagl5" d="M186 33c-4.349 0-6.918 4-11 4l-1-12c3.933 0 7.365-4 12-4v12ZM271 33l10 4 2-12c-4.608 0-7.675-4-13-4l1 11v1Z"/><path fill="#009EAB" id="VISa2/3" d="M143 31c0 2.334-4.181 1.34-5.5 2L124 38l-3-8v-1c6.858 0 12.359-6 19-6h1c0 3.45 2 4.765 2 8Z"/><path fill="#09858A" id="VISam4" d="m144 31 1 3c7.701 0 21.501-9 28-9v-2c-9.846 0-18.783 8-29 8Z"/><path fill="#1BA498" id="RSPv5" d="M219 67h1l-1-35.5-5-8.5h-1c0 3.622-7 5.534-7 9 0 2.977 1.795 19.09 3 21.5l3 7.5 5 5h1l1 1ZM236 67h1l1-1h1l5-4 1-1c0-7.273 4-13.642 4-21.5 0-1.703-.143-6.5 2-6.5v-2l-8-8h-1l-5 10.5-1 33.5Z"/><path fill="#09858A" id="VISam4" d="M311 34h1v-3c-10.179 0-19.146-8-29-8v2c6.454 0 20.622 9 28 9Z"/><path fill="#009EAB" id="VISa2/3" d="M313 31c0 1.428 3.205 2 4.5 2 5.01 0 9.773 5 14.5 5 0-2.7 3-4.762 3-8 0-1.183-3.57-1.535-4.5-2-4.152-2.076-9.604-5-14.5-5l-3 8Z"/><path fill="#029FAB" id="VISrl1" d="M88 41c0 2.04.96 3 3 3 6.988 0 20.846-14 30-14v-1l-2-4c-8.258 0-27.66 16-31 16Z"/><path fill="#0A848B" id="VISam5" d="M148 43h1c7.626 0 18.917-6 26-6l-1-12h-1c-6.499 0-20.299 9-28 9v1c1.117 0 3 5.927 3 8ZM281 37c6.859 0 19.324 6 27 6 0-3.283 3-6.01 3-9-7.378 0-21.546-9-28-9l-2 12Z"/><path fill="#029FAB" id="VISrl1" d="M365 45h2c0-1.238.423-3 2-3l-7.5-5c-7.58-3.79-15.579-12-24.5-12l-1 5c7.509 0 16 7.75 22.5 11 1.47.735 6.5 1.53 6.5 4Z"/><path fill="#1AA697" id="RSPd6a" d="M197 42h1l7-10c0-4.504-13.072-3.214-15.5-2l-3.5 2v1l1 8c1.926 0 10-2.539 10 1ZM258 42h1l2-1c0-2.11 6.448 0 8 0 .816 0 2-7.019 2-8v-1l-6.5-3c-4.446-2.223-10.059 2-13.5 2v2c2.12 0 7 7.287 7 9Z"/><path fill="#029EAC" id="VISrl2/3" d="M91 45c2.131 0 3.14 6 6 6 5.078 0 20.606-13 27-13l-3-8c-9.154 0-23.012 14-30 14v1ZM365 45l-5 6c-7.447 0-19.699-13-28-13 0-2.7 3-4.762 3-8h1c7.509 0 16 7.75 22.5 11 1.47.735 6.5 1.53 6.5 4Z"/><path fill="#019EAC" id="VISa4" d="m124 38 2 4c6.335 0 12.214-7 19-7v-1l-1-3h-1c0 2.334-4.181 1.34-5.5 2L124 38ZM330 42h1l1-4c-4.727 0-9.49-5-14.5-5-1.295 0-4.5-.572-4.5-2h-1v3c0 1.183 3.57 1.535 4.5 2l13.5 6Z"/><path fill="#1AA498" id="RSPv6a" d="M209 58c0 1.54 1.342 3 3 3l-3-7.5c-1.205-2.41-3-18.523-3-21.5h-1l-7 10c0 6.159 11 10.051 11 16Z"/><path fill="#1CA597" id="RSPagl6a" d="m185 43-8 2-2-8c4.082 0 6.651-4 11-4l1 8v1l-2 1Z"/><path fill="#1AA498" id="RSPv6a" d="M248 57c0 1.429-1.288 4-3 4 0-7.273 4-13.642 4-21.5 0-1.703-.143-6.5 2-6.5 2.12 0 7 7.287 7 9 0 3.347-5 5.288-5 9-1.901 0-5 4.332-5 6Z"/><path fill="#1CA597" id="RSPagl6a" d="M269 42c3.686 0 6.177 3 10 3 0-2.885 2-4.697 2-8l-10-4c0 .981-1.184 8-2 8v1Z"/><path fill="#019EAB" id="VISa5" d="M327 50h1l2-8-13.5-6c-.93-.465-4.5-.817-4.5-2h-1c0 2.99-3 5.717-3 9 4.314 0 9.77 3.135 13.5 5 1.114.557 5.5.41 5.5 2ZM148 43l-19 7-3-8c6.335 0 12.214-7 19-7 1.117 0 3 5.927 3 8Z"/><path fill="#0A828B" id="VISam6a" d="M177 46c-9.223 0-17.78 3-26 3l-2-6c7.626 0 18.917-6 26-6l2 8v1ZM305 49h1c0-2.483 2-4.026 2-6-7.676 0-20.141-6-27-6 0 3.303-2 5.115-2 8v1c9.223 0 17.78 3 26 3Z"/><path fill="#019EAA" id="VISrl4" d="m97 52 4 4c2.816 0 18.711-14 25-14l-2-4c-6.394 0-21.922 13-27 13v1ZM355 56h1l4-4v-1c-7.447 0-19.699-13-28-13l-1 4c0 1.55 6.228 2.364 7.5 3L355 56Z"/><path fill="#1BA698" id="RSPd6b" d="M197 42c-3.511 0-6.489 1-10 1v-2c1.926 0 10-2.539 10 1ZM269 42v1c-2.885 0-4.697-2-8-2 0-2.11 6.448 0 8 0v1Z"/><path fill="#188060" id="SSp-bfd1" d="m66 59 3 2c4.348 0 16.004-16 22-16v-1c-2.04 0-3-.96-3-3-1.018 0-22 16.458-22 18Z"/><path fill="#CACCC7" id="cing" d="m212 61 5 5c-9.193 0-21.553-16-25-16 0-1.802-5.811-2-7.5-2-7.173 0-14.552 2-22.5 2h-9c0-1.7 5.137-1 6.5-1 6.094 0 11.659-2 18.5-2 1.122 0 7-2.632 7-4h2c3.511 0 6.489-1 10-1 0 1.362 10.319 16 12 16 0 1.54 1.342 3 3 3Z"/><path fill="#1BA698" id="RSPd6b" d="M259 42v1l2-2-2 1Z"/><path fill="#CACCC7" id="cing" d="m244 62-5 4c10.504 0 19.59-16 26-16 0-2.388 5.661-2 7.5-2 6.978 0 14.63 2 22.5 2h9c0-1.7-5.137-1-6.5-1-6.094 0-11.659-2-18.5-2l-10-4c-2.885 0-4.697-2-8-2l-2 2-6 8c0 1.668-3.099 6-5 6 0 1.429-1.288 4-3 4l-1 1Z"/><path fill="#019DAB" id="VISrl5" d="m101 57 7 5 21-12-3-8c-6.289 0-22.184 14-25 14v1Z"/><path fill="#1AA598" id="RSPagl6b" d="M185 43h2v-1l-2 1Z"/><path fill="#1AA497" id="RSPv6b" d="M198 42c0 6.159 11 10.051 11 16-1.681 0-12-14.638-12-16h1ZM259 43l-6 8c0-3.712 5-5.653 5-9h1v1Z"/><path fill="#1AA598" id="RSPagl6b" d="M279 46v1l-10-4v-1c3.686 0 6.177 3 10 3v1Z"/><path fill="#019DAB" id="VISrl5" d="M348 62h1l6-6-16.5-11c-1.272-.636-7.5-1.45-7.5-3h-1l-2 8 20 12Z"/><path fill="#188060" id="SSp-bfd1" d="M390 59c-1.481 0-.785 2-3 2l-20-16c0-1.238.423-3 2-3 2.299 0 21 15.097 21 17Z"/><path fill="#009DAC" id="VISa6a" d="M131 56h1c2.933 0 5.321-3 9-3 0-1.693 8.239-4 10-4l-2-6h-1l-19 7c0 2.447 2 3.28 2 6Z"/><path fill="#1AA598" id="RSPagl6b" d="m177 46 1 1c1.122 0 7-2.632 7-4l-8 2v1Z"/><path fill="#009DAC" id="VISa6a" d="M324 56h1l2-6c0-1.59-4.386-1.443-5.5-2-3.73-1.865-9.186-5-13.5-5 0 1.974-2 3.517-2 6 6.183 0 12.257 7 18 7Z"/><path fill="#187F63" id="SSp-bfd2/3" d="m69 62 6 6c2.788 0 15.255-16 22-16v-1c-2.86 0-3.869-6-6-6-5.996 0-17.652 16-22 16v1ZM387 62l-6 6c0-1.423-18.372-16-21-16v-1l5-6h2l20 16v1Z"/><path fill="#08838A" id="VISam6b" d="M151 50h2c0-1.7 5.137-1 6.5-1 6.094 0 11.659-2 18.5-2l-1-1c-9.223 0-17.78 3-26 3v1ZM304 50h1v-1c-8.22 0-16.777-3-26-3v1c6.841 0 12.406 2 18.5 2 1.363 0 6.5-.7 6.5 1Z"/><path fill="#C8C9CA" id="fp" d="M101 88c-4.808 0-15.756 21-18 21 0-9.224 12.076-15.651 16-23.5 2.088-4.176 7.443-8.472 11.5-10.5 6.383-3.191 12.911-10.456 20-14 6.114-3.057 12.869-4.935 19-8h4l3.5-2c1.235 0 5 .643 5-1 7.948 0 15.327-2 22.5-2 1.689 0 7.5.198 7.5 2 0 6.66 8.101 15.3 13.5 18 2.728 1.364 10.5 3.386 10.5 7-10.907 0-19.347-9.424-28.5-14l-3-4c-.874-.437-9.5-4.104-9.5-1-5.959 0-14.597-2.952-20.5 0-1.046.523-3.5-.952-3.5 1-1.623 0-6 .005-6 2-1.424 0-5 .362-5 2l-2 1-2 1-2 1-2 1c-1.238 0-3 .423-3 2l-2 1-2 1c-1.238 0-3 .423-3 2l-1 1-2 1-2 1-1 1h-1l-1 1-1 1h-1l-1 1-1 1-1 1-1 1c-2.362 0-5 2.638-5 5l-1 1-1 1ZM340 74c4.257 0 25.748 22.995 28 27.5l7 11.5c0-16.431-35.729-45.115-49.5-52l-18-8c-1.471-.736-7.5.357-7.5-2-1.235 0-5 .643-5-1-7.87 0-15.522-2-22.5-2-1.839 0-7.5-.388-7.5 2 0 6.043-10.05 16.275-15.5 19-2.063 1.032-9.5 2.434-9.5 6 9.996 0 18.13-7.815 26.5-12l6-6c1.777-.889 8.5-4.55 8.5 0h1c0-3.304 17.18-2.16 19.5-1 1.046.523 3.5-.952 3.5 1h1c2.172 0 10 1.377 10 4h1c1.238 0 3 .423 3 2h1c1.417 0 6 2.383 6 4h1c4.477 0 7.709 7 12 7Z"/><path fill="#029FAC" id="VISa6b" d="M151 50c0 1.312-8.235 3-10 3 0-1.693 8.239-4 10-4v1ZM324 56v1l-19-7v-1h1c6.183 0 12.257 7 18 7Z"/><path fill="#029EAB" id="VISrl6a" d="M113 67h1c0-1.6 8.205-6 10-6 0-3.018 7-2.618 7-5 0-2.72-2-3.553-2-6l-21 12v1c2.124 0 5 2.023 5 4Z"/><path fill="#CBC9C7" id="or" d="M76 172c0-7.885 2-4.582 2 1 1.356 0 3.891-1.718 3-3.5-4.433-8.865-5-16.684-5-27.5l1-2v-3c0-8.471 4-15.548 4-23l1-1v-1l1-2v-1c0-9.224 12.076-15.651 16-23.5 2.088-4.176 7.443-8.472 11.5-10.5 6.383-3.191 12.911-10.456 20-14 6.114-3.057 12.869-4.935 19-8h4l3.5-2v-1h-6c0 1.312-8.235 3-10 3 0 1.444-7.394 4-9 4 0 1.995-6.268 4-8 4 0 1.772-7.346 6-9 6 0 1.617-4.583 4-6 4 0 2.719-11.71 12-14 12 0 1.238-.423 3-2 3 0 1.461-6.306 9-8 9 0 1.238-1.923 5-3 5 0 5.066-7 9.536-7 15l-4 10 2 2c0 1.357-.647 6-2 6 0 5.684-3 12.001-3 18l-1 14c0 1.999.067 6 3 6l1 1h5Z"/><path fill="#C9C9CA" id="scwm" d="M162 50c0 1.643-3.765 1-5 1v-1h5Z"/><path fill="#C7CACC" id="ccs" d="M225 78h7l2-2 1-1h5c0-3.566 7.437-4.968 9.5-6 5.45-2.725 15.5-12.957 15.5-19-6.41 0-15.496 16-26 16h-1l-1 1h-18l-1-1h-1c-9.193 0-21.553-16-25-16 0 6.66 8.101 15.3 13.5 18 2.728 1.364 10.5 3.386 10.5 7h5l2 1 2 2Z"/><path fill="#C9C9CA" id="scwm" d="M300 50v1c-1.235 0-5 .643-5-1h5Z"/><path fill="#CBC9C7" id="or" d="M381 172h5l1-1c2.698 0 2-4.255 2-6 0-4.725-1-9.879-1-14 0-8.44-4-15.346-4-23 0-1.048-.473-3 1-3 0-3.823-3-6.314-3-10-1.006 0-2.452-6.404-3-7.5l-5-7.5c0-5.155-11-9.304-11-14l-4-3.5c-.976-1.951-14.872-14.5-17-14.5l-18-11-19-7h-5v1c0 2.357 6.029 1.264 7.5 2l18 8c13.771 6.885 49.5 35.569 49.5 52 0 5.887 5 17.496 5 26 0 6.968 2.265 17.969-1 24.5-.673 1.346-4 5.717-4 7l3 2.5c1.263 0 3-11.192 3-1Z"/><path fill="#029EAB" id="VISrl6a" d="M342 67h1l5-5-20-12h-1l-2 6c0 1.086 17 8.215 17 11Z"/><path fill="#1AA497" id="RSPv6b" d="M253 51c-1.901 0-5 4.332-5 6 1.901 0 5-4.332 5-6Z"/><path fill="#197C64" id="SSp-bfd4" d="M80 73h1c3.585 0 16.284-16 20-16v-1l-4-4c-6.745 0-19.212 16-22 16v1c2.618 0 3.094 4 5 4ZM381 69l-5 4-16-12.5-4-4.5 4-4c2.628 0 21 14.577 21 16v1Z"/><path fill="#029FAC" id="VISa6b" d="M132 56v1c1.606 0 9-2.556 9-4-3.679 0-6.067 3-9 3Z"/><path fill="#C7C8CC" id="alv" d="M151 57c8.311 0 17.782-2.859 25.5 1 6.619 3.31 18.071 21 24.5 21l-18.5-18-7.5-5c-5.959 0-14.597-2.952-20.5 0-1.046.523-3.5-.952-3.5 1Z"/><path fill="#C9CCC9" id="dhc" d="M218 82h1l4-1c0-2.215 2-1.519 2-3l-2-2-2-1h-5c-10.907 0-19.347-9.424-28.5-14l-3-4c-.874-.437-9.5-4.104-9.5-1l7.5 5L201 79h1l3 2h2l2 1h9ZM245 82h2c0-1.473 1.952-1 3-1h1l2-1 2-1 2-1 1-1c0-1.577 1.762-2 3-2 0-1.747.253-2 2-2 0-1.747.253-2 2-2 0-1.747.253-2 2-2 0-2.664 5.336-8 8-8 0-1.577 1.762-2 3-2l2-1 1-1c0-4.55-6.723-.889-8.5 0l-6 6c-8.37 4.185-16.504 12-26.5 12h-5l-1 1-2 2 1 2 1 1 3 1h8Z"/><path fill="#C7C8CC" id="alv" d="M282 57h23c0-1.952-2.454-.477-3.5-1-2.32-1.16-19.5-2.304-19.5 1Z"/><path fill="#009DAA" id="VISrl6b" d="M132 57c0 1.995-6.268 4-8 4 0-3.018 7-2.618 7-5h1v1Z"/><path fill="#7ECF4B" id="CA1" d="m87 112-1 5c3.616 0 6.423-4.461 9.5-6 7.339-3.67 17.896-9 26.5-9 0-5.512 6.353-8.927 10.5-11 13.157-6.578 26.506-15.747 42-8 2.486 1.243 16.851 12 17.5 12 .698 0 7 2.714 7 3h6c2.409 0 5.181-1 7-1 0-3.677-5-12.276-5-15l-1-1h-1c-1.238 0-3-.423-3-2h-1c-6.429 0-17.881-17.69-24.5-21-7.718-3.859-17.189-1-25.5-1 0 1.353-4.643 2-6 2 0 1.638-3.576 2-5 2l-2 1-2 1-2 1-2 1c0 1.577-1.762 2-3 2l-2 1-2 1c0 1.577-1.762 2-3 2l-1 1-2 1-2 2-2 1-1 1c0 1.811-3.438 4-5 4 0 1.747-.253 2-2 2 0 1.747-.253 2-2 2 0 1.747-.253 2-2 2 0 1.238-.423 3-2 3l-1 1-1 1c0 1.238-.423 3-2 3 0 1.238-.423 3-2 3l-1 1-1 2c0 1.238-.423 3-2 3 0 1.238-.423 3-2 3 0 1.424-.362 5-2 5ZM334 101c8.855 0 33.516 16 37 16 0-7.808-21.389-36.444-28.5-40-2.304-1.152-14.5-7.345-14.5-10h-1c-1.178 0-6-2.572-6-4h-1c-1.238 0-3-.423-3-2h-1c-1.32 0-10-3.135-10-4h-25l-1 1-2 1c0 1.577-1.762 2-3 2 0 1.838-6.842 8-8 8l-2 2-2 2c0 1.747-.253 2-2 2 0 1.577-1.762 2-3 2l-1 1-2 1-2 1-2 1-1 1h-1c0 4.572-5 10.403-5 15 1.819 0 4.591 1 7 1h6c0-.249 7.222-3 8-3 .506 0 13.921-10.71 16.5-12 15.775-7.888 29.521 1.76 42 8 3.677 1.838 10.5 5.022 10.5 10Z"/><path fill="#009DAA" id="VISrl6b" d="M342 67v1l-18-11v-1h1c0 1.086 17 8.215 17 11Z"/><path fill="#1A7D62" id="SSp-bfd5" d="M369 80h1l6-6v-1l-16-12.5-4-4.5h-1l-6 6c0 2.437 20 13.4 20 18ZM81 73c0 1.935 4.065 6 6 6 4.463 0 13.735-16 21-16v-1l-7-5c-3.716 0-16.415 16-20 16Z"/><path fill="#C7C8CC" id="alv" d="M151 57c-1.623 0-6 .005-6 2 1.357 0 6-.647 6-2ZM281 57l-1 1 1-1ZM306 57c2.172 0 10 1.377 10 4-1.32 0-10-3.135-10-4ZM280 58l-2 1 2-1Z"/><path fill="#1A7E62" id="SSs1" d="M57 73h1l11-11v-1l-3-2c-2.736 0-11 8.239-11 11 1.577 0 2 1.762 2 3Z"/><path fill="#C7C8CC" id="alv" d="M145 59c-1.424 0-5 .362-5 2 1.424 0 5-.362 5-2ZM278 59c-1.238 0-3 .423-3 2 1.238 0 3-.423 3-2Z"/><path fill="#1A7E62" id="SSs1" d="M398 73h1l2-4c0-2.594-8.184-10-11-10-1.481 0-.785 2-3 2v1c2.894 0 11 8.127 11 11Z"/><path fill="#009DAA" id="VISrl6b" d="M114 67h1c1.654 0 9-4.228 9-6-1.795 0-10 4.4-10 6Z"/><path fill="#C7C8CC" id="alv" d="m140 61-2 1 2-1Z"/><path fill="#1AA498" id="RSPv6a" d="m245 61-1 1 1-1Z"/><path fill="#C7C8CC" id="alv" d="M275 61c-2.664 0-8 5.336-8 8 1.158 0 8-6.162 8-8ZM317 61c1.238 0 3 .423 3 2-1.238 0-3-.423-3-2Z"/><path fill="#1B8063" id="SSs2/3" d="m58 73 7 6 10-10v-1l-6-6-11 11Z"/><path fill="#C7C8CC" id="alv" d="m138 62-2 1 2-1Z"/><path fill="#198060" id="SSp-bfd6a" d="M364 85h1c0-2.732 4-2.259 4-5 0-4.6-20-15.563-20-18h-1l-5 5c3.579 0 14.646 10.792 16 13.5l5 4.5Z"/><path fill="#1B8063" id="SSs2/3" d="M398 73c-2.259 0-4.261 6-7 6l-10-10v-1l6-6c2.894 0 11 8.127 11 11Z"/><path fill="#198060" id="SSp-bfd6a" d="M95 83c-2.215 0-1.519 2-3 2 0-1.43-3.939-4-5-4v-2c4.463 0 13.735-16 21-16 2.124 0 5 2.023 5 4l-4 4c-2.798 0-14 9.72-14 12Z"/><path fill="#C7C8CC" id="alv" d="m136 63-2 1 2-1ZM321 63c1.417 0 6 2.383 6 4-1.178 0-6-2.572-6-4ZM134 64l-2 1 2-1ZM132 65c-1.238 0-3 .423-3 2 1.238 0 3-.423 3-2Z"/><path fill="#CACCC7" id="cing" d="m218 66 1 1-1-1ZM238 66l-1 1 1-1Z"/><path fill="#1A7E61" id="SSp-bfd6b" d="M115 67c0 1.617-4.583 4-6 4l4-4h2Z"/><path fill="#C7C8CC" id="alv" d="m129 67-2 1 2-1ZM351 157c3.049 0 2 16.908 2 20 0 9.018 6 4.38 6 8l6.5-8c12.601-6.301 13.5-25.261 13.5-38v-2l-1-2c0-11.264-11.981-29.462-17-39.5-1.886-3.772-6.162-6.324-8-10L340 74c-4.291 0-7.523-7-12-7 0 2.655 12.196 8.848 14.5 10 7.111 3.556 28.5 32.192 28.5 40l3 9c0 6.478 3 12.79 3 20 0 9.463-4.469 17.438-8 24.5-1.107 2.214-9.423 4.153-11 1-3.891-7.782-5.074-17.148-9-25-3.926-7.851-12.431-14.862-16-22-2.139-4.278-11.88-13.5-17-13.5v1l1 1h1l1 1h1l1 1c3.991 0 14 11.791 14 15l2 2v1c1.697 0 11 16.684 11 19l1 2v1l2 2Z"/><path fill="#1A7E61" id="SSp-bfd6b" d="m364 85-1 1-4-3.5c-.976-1.951-14.872-14.5-17-14.5v-1h1c3.579 0 14.646 10.792 16 13.5l5 4.5Z"/><path fill="#C7C8CC" id="alv" d="m127 68-2 1 2-1Z"/><path fill="#187C63" id="SSs4" d="M65 81c2.618 0 1.65 3 4 3l11-11c-1.906 0-2.382-4-5-4L65 79v2Z"/><path fill="#C7C8CC" id="alv" d="M125 69c-1.238 0-3 .423-3 2 1.238 0 3-.423 3-2ZM267 69c-1.747 0-2 .253-2 2l2-2Z"/><path fill="#187C63" id="SSs4" d="m391 80-4 4c0-2.456-9.407-10-11-10v-1l5-4 10 10v1Z"/><path fill="#039399" id="AUDd1" d="M417 89c-2.518 0-2.334 3-5 3 0-4.7-13-15.514-13-19l2-4c1.62 0 16 18.703 16 20ZM44 92h1c0-5.597 12-14.583 12-19 0-1.238-.423-3-2-3-1.684 0-16 17.818-16 19 1.238 0 5 1.923 5 3Z"/><path fill="#1A7E61" id="SSp-bfd6b" d="M109 71c-2.798 0-14 9.72-14 12 2.29 0 14-9.281 14-12Z"/><path fill="#C7C8CC" id="alv" d="m122 71-1 1 1-1ZM265 71c-1.747 0-2 .253-2 2l2-2ZM121 72l-2 1 2-1Z"/><path fill="#029397" id="AUDd2/3" d="M51 98h1c0-1.34 11.675-17 13-17v-2l-7-6h-1c0 4.417-12 13.403-12 19l6 6Z"/><path fill="#1C8063" id="SSs5" d="M76 93h1c0-2.645 7.803-12 10-12v-2c-1.935 0-6-4.065-6-6h-1L69 84v1c2.356 0 7 5.721 7 8Z"/><path fill="#C7C8CC" id="alv" d="M117 74v1l2-2-2 1ZM263 73c-1.747 0-2 .253-2 2 1.747 0 2-.253 2-2Z"/><path fill="#029397" id="AUDd2/3" d="M412 93c-3.145 0-3.855 4-7 4-3.734 0-10.527-17-14-17v-1c2.739 0 4.741-6 7-6h1c0 3.486 13 14.3 13 19v1Z"/><path fill="#C7CACC" id="ccs" d="M116 75h1v-1l-1 1ZM379 139h1c0-8.504-5-20.113-5-26l-7-11.5c-2.252-4.505-23.743-27.5-28-27.5l13 11.5c1.838 3.676 6.114 6.228 8 10 5.019 10.038 17 28.236 17 39.5l1 2v2Z"/><path fill="#1C8063" id="SSs5" d="M379 93h1l7-8v-1c0-2.456-9.407-10-11-10l-6 6c0 4.51 9 7.979 9 13Z"/><path fill="#C7CACC" id="ccs" d="M114 76h1v-1l-1 1Z"/><path fill="#C7C8CC" id="alv" d="m117 75-2 1v-1h2Z"/><path fill="#C8C9CA" id="fp" d="m221 75 2 1-2-1ZM235 75l-1 1 1-1Z"/><path fill="#C7C8CC" id="alv" d="M261 75c-1.238 0-3 .423-3 2 1.238 0 3-.423 3-2Z"/><path fill="#C7CACC" id="ccs" d="M113 77h1v-1l-1 1Z"/><path fill="#C7C8CC" id="alv" d="m115 76-1 1v-1h1Z"/><path fill="#C7CACC" id="ccs" d="m112 77-1 1 1-1Z"/><path fill="#C7C8CC" id="alv" d="M109 80v1c1.562 0 5-2.189 5-4h-2l-1 1-1 1-1 1ZM258 77l-1 1 1-1Z"/><path fill="#C7CACC" id="ccs" d="m111 78-1 1 1-1Z"/><path fill="#C7C8CC" id="alv" d="m257 78-2 1 2-1Z"/><path fill="#C7CACC" id="ccs" d="m110 79-1 1 1-1Z"/><path fill="#C7C8CC" id="alv" d="m202 79 3 2c-1.238 0-3-.423-3-2ZM255 79l-2 1 2-1Z"/><path fill="#C7CACC" id="ccs" d="M108 81h1v-1l-1 1Z"/><path fill="#7BD04A" id="DG-mo" d="m144 109 1 1c7.908 0 14.465-3 22-3 0-1.951 2.454-.477 3.5-1 4.615-2.308 13.146-3 18.5-3l5-4-2-4c-.649 0-15.014-10.757-17.5-12-15.494-7.747-28.843 1.422-42 8-4.147 2.073-10.5 5.488-10.5 11l1 2 6 1c0-7.762 24.641-13.57 31.5-17l7.5 1c4.325 0 10.754 2.127 14.5 4 .886.443 3.715 3.143 2 4-5.692 2.846-18.506-.247-25 3-2.379 1.189-12.666 7-14.5 7l-1 2Z"/><path fill="#7DCD4B" id="HPF" d="m233 80 1 1-1-1Z"/><path fill="#C7C8CC" id="alv" d="m253 80-2 1 2-1Z"/><path fill="#7BD04A" id="DG-mo" d="m313 109-1 1c-13.048 0-24.031-6-36.5-6-2.248 0-12.5-1.382-12.5-4 0-2.25 2-3.376 2-5 .506 0 13.921-10.71 16.5-12 15.775-7.888 29.521 1.76 42 8 3.677 1.838 10.5 5.022 10.5 10l-1 3-5 1c0-4.661-5.188-5.344-8.5-7-12.061-6.03-17.283-9-31-9-4.252 0-11.282 2.141-15 4-1.03.515-2.564 3.218-1 4 5.465 2.732 17.711-.144 24 3 3.642 1.821 11.553 7 15.5 7l1 2Z"/><path fill="#197D63" id="SSs6a" d="M379 93c0 1.061-2.571 5-4 5-1.541 0-10-11.225-10-13 0-2.732 4-2.259 4-5h1c0 4.51 9 7.979 9 13Z"/><path fill="#039398" id="AUDd4" d="m405 98-4 1c-2.472 0-9.952-14-14-14v-1l4-4c3.473 0 10.266 17 14 17v1ZM52 98l3 2c4.445 0 8.134-15 14-15v-1c-2.35 0-1.382-3-4-3-1.325 0-13 15.66-13 17Z"/><path fill="#197D63" id="SSs6a" d="M85 95c-2.618 0-1.65 3-4 3l-4-5c0-2.645 7.803-12 10-12 1.061 0 5 2.57 5 4v1c-2.185 0-7 7.198-7 9Z"/><path fill="#C7CACC" id="ccs" d="m105 85-2 1c0-2.362 2.638-5 5-5l-1 2-2 2Z"/><path fill="#C7C8CC" id="alv" d="M109 81c0 1.747-.253 2-2 2l1-2h1Z"/><path fill="#57B947" id="ProS" d="M207 81v1l-1-1h1Z"/><path fill="#C7C8CC" id="alv" d="M207 82h2l-2-1v1Z"/><path fill="#7ECD4A" id="FC" d="m220 89-1 1c-.71 0-1-6.022-1-7l1-1 4-1-1 4-1 2-1 2Z"/><path fill="#A8A9AA" id="V3" d="M221 88c4.985 0 6.388 4 7.5 4l4-5 4.5 3-2-3v-1c-.978 0-4.968-4.234-6.5-5-2.21-1.105-4.626 4-6.5 4l-1 2v1Z"/><path fill="#7ECD4A" id="FC" d="m235 87 3 2c.632 0 0-4.255 0-6l-1-1-3-1 1 5v1Z"/><path fill="#C7C8CC" id="alv" d="M249 82h1v-1c-1.048 0-3-.473-3 1h2Z"/><path fill="#57B947" id="ProS" d="m251 81-1 1v-1h1Z"/><path fill="#4FC244" id="SUB" d="M219 91c-2.676 0-3.219 6-7 6 0-3.677-5-12.276-5-15h4c0 1.566 5 1.566 5 0h2v1c0 .978.29 7 1 7v1Z"/><path fill="#C7C8CC" id="alv" d="M211 82h5c0 1.566-5 1.566-5 0Z"/><path fill="#7DCD4B" id="HPF" d="m219 82-1 1v-1h1ZM239 82l-1 1-1-1h2Z"/><path fill="#4FC244" id="SUB" d="M238 89c0 2.695 2.899 8 6 8 0-4.597 5-10.428 5-15h-4c0 1.535-4 1.535-4 0h-2l-1 1c0 1.745.632 6 0 6Z"/><path fill="#C7C8CC" id="alv" d="M241 82h4c0 1.535-4 1.535-4 0Z"/><path fill="#1A7E61" id="SSp-bfd6b" d="M92 86h1c1.577 0 2-1.762 2-3-2.215 0-1.519 2-3 2v1Z"/><path fill="#C7C8CC" id="alv" d="m107 83-2 2c1.747 0 2-.253 2-2Z"/><path fill="#029398" id="AUDd5" d="M66 109h1c0-5.688 9-10.53 9-16 0-2.279-4.644-8-7-8-5.866 0-9.555 15-14 15v1c2.071 0 11 5.409 11 8Z"/><path fill="#C7C8CC" id="alv" d="M103 86v1c1.747 0 2-.253 2-2l-2 1Z"/><path fill="#1A8061" id="SSs6b" d="m375 99-1 1c0-5.155-11-9.304-11-14l1-1h1c0 1.775 8.459 13 10 13v1Z"/><path fill="#029398" id="AUDd5" d="M401 100c-4.081 0-7.406 8-12 8l-9-15 7-8c4.048 0 11.528 14 14 14v1Z"/><path fill="#1A8061" id="SSs6b" d="M93 86c0 1.461-6.306 9-8 9 0-1.802 4.815-9 7-9h1Z"/><path fill="#C7CACC" id="ccs" d="M102 87h1v-1l-1 1ZM102 87l-1 1 1-1Z"/><path fill="#C7C8CC" id="alv" d="M101 88v2c1.577 0 2-1.762 2-3h-1l-1 1Z"/><path fill="#A9AAA8" id="chpl" d="M237 97c-.986 0-6 1.087-6 2-4.503 0-8.044-2-12-2v-6l1-1v-1l1-1c4.985 0 6.388 4 7.5 4l4-5 4.5 3v7Z"/><path fill="#C7CACC" id="ccs" d="M77 137h1c0-2.224 2.807-14 5-14v-1c0-1.424.362-5 2-5 0-1.424.362-5 2-5 0-1.424.362-5 2-5 0-1.238.423-3 2-3 0-1.238.423-3 2-3l1-2 1-1c0-1.238.423-3 2-3 0-1.238.423-3 2-3l1-1 1-1v-2c-4.808 0-15.756 21-18 21v1l-1 2v1l-1 1c0 7.452-4 14.529-4 23Z"/><path fill="#65A83D" id="DG-sg" d="M129 105c0-7.762 24.641-13.57 31.5-17l7.5 1c4.325 0 10.754 2.127 14.5 4 .886.443 3.715 3.143 2 4-5.692 2.846-18.506-.247-25 3-2.379 1.189-12.666 7-14.5 7l2-4c0-3.111 16.689-6.595 19.5-8l5.5-.5c0-2.363-7.068-1.5-8.5-1.5-4.552 0-24.5 4.347-24.5 8l-10 4ZM328 105c0-4.661-5.188-5.344-8.5-7-12.061-6.03-17.283-9-31-9-4.252 0-11.282 2.141-15 4-1.03.515-2.564 3.218-1 4 5.465 2.732 17.711-.144 24 3 3.642 1.821 11.553 7 15.5 7l-2-4-8.5-5-9.5-2c-1.012 0-7.667-1.165-7-2.5 2.258-4.516 24.411 3.456 26.5 4.5l5.5 3 11 4Z"/><path fill="#029297" id="AUDp1" d="m23 131 5 1c0-10.289 5.644-21.788 10-30.5l6-9.5c0-1.077-3.762-3-5-3l-7 11.5c-4.26 8.521-9 20.459-9 30.5ZM428 132h1l4-1c0-11.555-5.159-22.817-10-32.5-.764-1.528-4.342-9.5-6-9.5-2.518 0-2.334 3-5 3v1c2.825 0 4.155 5.81 5 7.5 5.068 10.136 11 19.257 11 31.5Z"/><path fill="#C7C8CC" id="alv" d="m101 90-1 1 1-1Z"/><path fill="#A8A9AA" id="V3" d="m220 90-1 1v-1h1Z"/><path fill="#C7C8CC" id="alv" d="m100 91-1 1 1-1Z"/><path fill="#019298" id="AUDp2/3" d="m28 132 8 1c0-8.477 4.425-17.351 8-24.5 1.641-3.283 7-6.698 7-10.5l-6-6h-1l-6 9.5c-4.356 8.712-10 20.211-10 30.5Z"/><path fill="#C7C8CC" id="alv" d="M99 92c-1.577 0-2 1.762-2 3 1.577 0 2-1.762 2-3Z"/><path fill="#019399" id="AUDd6a" d="m67 109 6 5 8-15v-1l-4-5h-1c0 5.47-9 10.312-9 16Z"/><path fill="#7ECE4A" id="DG-po" d="m139 101 8 2c0-3.111 16.689-6.595 19.5-8l5.5-.5c0-2.363-7.068-1.5-8.5-1.5-4.552 0-24.5 4.347-24.5 8ZM317 101l-7 2-8.5-5-9.5-2c-1.012 0-7.667-1.165-7-2.5 2.258-4.516 24.411 3.456 26.5 4.5l5.5 3Z"/><path fill="#019399" id="AUDd6a" d="M389 109c-2.33 0-3.227 4-6 4l-8-14v-1c1.429 0 4-3.939 4-5h1l9 15v1Z"/><path fill="#019298" id="AUDp2/3" d="m428 132-7 1c0-7.281-4.856-17.211-8-23.5L405 98v-1c3.145 0 3.855-4 7-4 2.825 0 4.155 5.81 5 7.5 5.068 10.136 11 19.257 11 31.5Z"/><path fill="#1A8061" id="SSs6b" d="m81 99 1 1c1.077 0 3-3.762 3-5-2.618 0-1.65 3-4 3v1Z"/><path fill="#C7C8CC" id="alv" d="M97 95c-1.577 0-2 1.762-2 3 1.577 0 2-1.762 2-3Z"/><path fill="#7DCD4B" id="HPF" d="m199 98-5 1-2-4c.698 0 7 2.714 7 3ZM257 98c2.483 0 4.026 2 6 2 0-2.25 2-3.376 2-5-.778 0-8 2.751-8 3Z"/><path fill="#A8A9AA" id="V3" d="M221 99c1.495 0 10 2.412 10 0-4.503 0-8.044-2-12-2l2 2ZM231 99h5l1-2c-.986 0-6 1.087-6 2Z"/><path fill="#039397" id="AUDp4" d="m36 133 5 1c0-8.496 3.437-17.374 7-24.5l5-5 2-3.5v-1l-3-2h-1c0 3.802-5.359 7.217-7 10.5-3.575 7.149-8 16.023-8 24.5Z"/><path fill="#C7C8CC" id="alv" d="m95 98-1 1 1-1Z"/><path fill="#7DCD4B" id="HPF" d="M201 98h4c0 1.535-4 1.535-4 0ZM251 98h4c0 1.535-4 1.535-4 0Z"/><path fill="#039397" id="AUDp4" d="m421 133-5 1c0-7.289-3.871-17.242-7-23.5l-8-10.5v-1l4-1 8 11.5c3.144 6.289 8 16.219 8 23.5Z"/><path fill="#019398" id="AUDd6b" d="M73 115h2c0-5.464 7-9.934 7-15l-1-1-8 15v1Z"/><path fill="#C7C8CC" id="alv" d="m94 99-1 2 1-2Z"/><path fill="#C8CCC7" id="hbc" d="m239 107 4 1c0-3.338-3.179-9-7-9h-5c0 2.412-8.505 0-10 0-1.887 0-10.552 7.474-7.5 9l3.5-1 1-1c5.538 0 9.977-1 15.5-1 1.21 0 5.5.814 5.5 2Z"/><path fill="#019398" id="AUDd6b" d="M382 115h1v-2l-8-14-1 1 5 7.5c.548 1.096 1.994 7.5 3 7.5Z"/><path fill="#039199" id="AUDp5" d="M416 134c-5.261 0-11.079 3-16 3 0-6.843-5.025-16.551-8-22.5-.656-1.311-.797-5.5-3-5.5v-1c4.594 0 7.919-8 12-8l8 10.5c3.129 6.258 7 16.211 7 23.5ZM56 137h1c0-10.143 9-18.473 9-28 0-2.591-8.929-8-11-8l-2 3.5-5 5c-3.563 7.126-7 16.004-7 24.5l15 3Z"/><path fill="#C7C8CC" id="alv" d="M93 101c-1.577 0-2 1.762-2 3 1.577 0 2-1.762 2-3Z"/><path fill="#7ECF49" id="CA3" d="M125 123c-2.976 0-8.599 9.697-10 12.5-2.845 5.69-7.194 10.388-10 16-3.246 6.492-3.76 14.521-7 21-1.039 2.077-7.007-.007-8-1-4.044-4.045-9-8.599-9-15L79 144c0-6.291 4-13.226 4-19 3.555 0 6.154-6.327 9.5-8 9.027-4.514 19.863-13 30.5-13l6 1 10-4 8 2-2 4-1 2-1 1h-1l-1 1h-1l-1 1-2 1c-1.822 0-8 3.711-8 6-1.747 0-2 .253-2 2-1.747 0-2 .253-2 2ZM316 111c5.12 0 14.861 9.222 17 13.5 3.569 7.138 12.074 14.149 16 22 3.926 7.852 5.109 17.218 9 25 1.577 3.153 9.893 1.214 11-1 3.531-7.062 8-15.037 8-24.5 0-7.21-3-13.522-3-20l-11.5-10c-8.585-4.292-19.392-12-29.5-12l-5 1-11-4-7 2 2 4 1 2v1l3 1Z"/><path fill="#7DCF4B" id="CA2" d="m371 117 3 9-11.5-10c-8.585-4.292-19.392-12-29.5-12l1-3c8.855 0 33.516 16 37 16ZM83 123v2c3.555 0 6.154-6.327 9.5-8 9.027-4.514 19.863-13 30.5-13l-1-2c-8.604 0-19.161 5.33-26.5 9-3.077 1.539-5.884 6-9.5 6l-1 1-2 4v1Z"/><path fill="#FE8EFF" id="APN" d="m180 128 5 5c2.975 0 4.677 1.412 7.5 0 3.407-1.704 7.62-21.26 5.5-25.5l-3-4.5h-6c0 .567-8.99 4-10 4h-1l-2 1-1 1h-1l-1 1v4c0 4.695 7 8.143 7 14Z"/><path fill="#FF64FF" id="MB" fill-rule="evenodd" d="M239 115c0 2.987 6.198 11 9.5 11 1.513 0-.367-4.234-.5-4.5-1.869-3.739-4.607-6.5-9-6.5m-26 0-6 9.5c.901 1.802 3.294-.294 4-1 2.098-2.098 10.987-8.5 2-8.5m14 80c0-7.995 2-8.385 2 0l4-2 1-1 2-1c0-2.355-.229-10 3-10l1-8c0-7.454 1.479-15 8-15 0-9.452 3.024-15.762 11.5-20l7.5 1c2.177 0 4-4.336 4-6-2.975 0-4.677 1.412-7.5 0-1.953-.977-6.727-19.045-5.5-21.5.661-1.323 3-7.409 3-8.5-7.007 0-12.022 5-18 5l-8 10c1.442 0 6 3.274 6 5 2.969 0 10.524 8.451 9 11.5-3.834 7.669-12.484 9.5-20 9.5h-2c0 2.212-1 2.212-1 0v-1c-6.724 0-15.905.689-20-7.5-2.08-4.16 8.07-14.5 11-14.5l1-1 2-2c0-8.324-18.935-15-26-15l3 4.5c2.12 4.24-2.093 23.796-5.5 25.5-2.823 1.412-4.525 0-7.5 0 0 1.417 2.383 6 4 6 15.319 0 19 3.143 19 20l2.5-2c5.281 2.64 5.5 10.841 5.5 16 1.714 0 1 5.594 1 7 0 1.182 3 6.389 3 11l2 1 5 3Z"/><path fill="#FE8EFF" id="APN" d="m272 132-1 1c-2.975 0-4.677 1.412-7.5 0-1.953-.977-6.727-19.045-5.5-21.5.661-1.323 3-7.409 3-8.5 6.361 0 11.6 4 17 4l4 2 2 3v2l-1 1c0 4.13-7 7.084-7 12l-4 5Z"/><path fill="#C7C8CC" id="alv" d="M91 104c-1.577 0-2 1.762-2 3 1.577 0 2-1.762 2-3Z"/><path fill="#A8A9AA" id="V3" d="M223 117h10c0-1.553 6-4.646 6-10 0-1.186-4.29-2-5.5-2-5.523 0-9.962 1-15.5 1l-1 1c0 4.015 6 6.81 6 10Z"/><path fill="#CAC7CB" id="fiber tracts" d="m174 106-2 1 2-1Z"/><path fill="#C7CBCB" id="bsc" d="m172 110-15 1 2-1 1-1h4l2-1h1l2-1h3l2-1h4v1l-2 1-1 1h-2l-1 1Z"/><path fill="#FF64FF" id="MB" d="M178 107h1l-1-1v1Z"/><path fill="#C7CBCB" id="bsc" d="M297 110c1.048 0 3-.473 3 1l-15-1h-1l-1-1h-1l-4-2c0-1.579 2.855-1 4-1l2 1h3l2 1h2l2 1h3l1 1Z"/><path fill="#CAC7CB" id="fiber tracts" d="m282 106 2 1-2-1Z"/><path fill="#C7C8CC" id="alv" d="M89 107c-1.638 0-2 3.576-2 5 1.638 0 2-3.576 2-5Z"/><path fill="#CAC7CB" id="fiber tracts" d="m169 107-2 1v-1h2ZM287 107l2 1-2-1ZM166 108l-2 1 2-1Z"/><path fill="#FF64FF" id="MB" d="m176 108-1 1 1-1Z"/><path fill="#CAC7CB" id="fiber tracts" d="m291 108 2 1-2-1Z"/><path fill="#019396" id="AUDp6a" d="m57 137 8 1c1.993 0 1.35-5.2 2-6.5 2.099-4.197 6-11.765 6-16.5v-1l-6-5h-1c0 9.527-9 17.857-9 28Z"/><path fill="#7DCD4B" id="HPF" d="M143 110h2l-1-1-1 1Z"/><path fill="#CAC7CB" id="fiber tracts" d="m160 109-1 1 1-1Z"/><path fill="#FF64FF" id="MB" d="M172 110h1v-1l-1 1Z"/><path fill="#FF6F80" id="TH" d="m174 109-1 1v-1h1ZM285 110l-1 2-2-3h1l1 1h1Z"/><path fill="#FF64FF" id="MB" d="m283 109 1 1-1-1Z"/><path fill="#CAC7CB" id="fiber tracts" d="m296 109 1 1-1-1Z"/><path fill="#7DCD4B" id="HPF" d="M312 110h1v-1l-1 1Z"/><path fill="#019396" id="AUDp6a" d="m400 137-9 1c0-6.918-8-16.814-8-23v-2c2.773 0 3.67-4 6-4 2.203 0 2.344 4.189 3 5.5 2.975 5.949 8 15.657 8 22.5Z"/><path fill="#C8C9CA" id="fp" d="m83 110-1 2 1-2Z"/><path fill="#C7C8CC" id="alv" d="m142 110-1 1 1-1Z"/><path fill="#FE909D" id="LP" d="M145 137c0 3.626 3.26 3 6 3 0-1.357 11.489-5 13-5 3.614 0 6.899-4 11-4l1-2c-5.389 0-4-12.581-4-15v-4l-15 1h-4c0 1.684-4.679 1-6 1l1 3c0 2.777 1 6.38 1 8.5 0 3.417-3 7.787-3 11.5l-1 2Z"/><path fill="#FF6F80" id="TH" d="M172 114h1v-4h-1v4Z"/><path fill="#FE909D" id="LP" d="m305 139 1 1c2.565 0 5 .236 5-3l-3-10.5c-1.592-3.184 1-8.819 1-11.5l1-2v-1h-6l-1-1h-3l-15-1-1 2v2c1.643 0 1 3.765 1 5 0 2.774-1.939 10-5 10l2 2 11 4c3.664 0 8.003 4 12 4Z"/><path fill="#C7C8CC" id="alv" d="M139 112h1v-1l-1 1Z"/><path fill="#C7CBCB" id="bsc" d="M146 112h1c1.321 0 6 .684 6-1-1.49 0-8-.735-8 1h1Z"/><path fill="#CAC7CB" id="fiber tracts" d="M304 111v1l-1-1h1Z"/><path fill="#C7CBCB" id="bsc" d="M304 112h6l1-1h-7v1Z"/><path fill="#CAC7CB" id="fiber tracts" d="M310 113h2v-1l-1-1-1 1v1Z"/><path fill="#C7C8CC" id="alv" d="M85 117h1l1-5c-1.638 0-2 3.576-2 5ZM137 113h2v-1l-2 1Z"/><path fill="#CAC7CB" id="fiber tracts" d="M140 113h1v-1h-2v1h1Z"/><path fill="#C7CBCB" id="bsc" d="M141 113h3v-1h-3v1Z"/><path fill="#CAC7CB" id="fiber tracts" d="m146 112-2 1v-1h2Z"/><path fill="#FE8083" id="LGd-sh" d="M121 133v4l2.5 2 1.5-3.5c1.315-2.63 5.024-10.5 8-10.5 0-1.747.253-2 2-2l1-1 1-1c0-2.492 8.96-6 11-6l-1-3h-1l-2 1h-4l-1 1-2 1-1 1-1 1h-1l-1 1-1 1h-1v1l-1 1h-1v1l-1 1h-1v1l-1 1-1 1-1 2-1 1v1l-1 1-1 1v1Z"/><path fill="#C7CBCB" id="bsc" d="M312 113h3v-1h-3v1Z"/><path fill="#CAC7CB" id="fiber tracts" d="M316 113h1l-1-1h-1v1h1Z"/><path fill="#C8C9CA" id="fp" d="m82 113-1 1 1-1Z"/><path fill="#C7C8CC" id="alv" d="M129 119h2l1-1 1-1 2-1 1-1 1-1v-1c-1.822 0-8 3.711-8 6Z"/><path fill="#CAC7CB" id="fiber tracts" d="M137 114h2v-1h-2v1Z"/><path fill="#C7CBCB" id="bsc" d="m140 113-1 1v-1h1Z"/><path fill="#FE8083" id="LGd-sh" d="m335 135-1 4c-2.719 0-5.094-7.689-6-9.5-2.713-5.427-12.798-14.5-19-14.5l1-2h6l7 5 1 1 5 5 1 1 1 1 2 2v1l1 1 1 3v2Z"/><path fill="#C7CBCB" id="bsc" d="M335 133h2v-1l-2-2c0-3.209-10.009-15-14-15l-1-1h-1l-1-1h-2l7 5 1 1 5 5 1 1 1 1 2 2v1l1 1 1 3Z"/><path fill="#CAC7CB" id="fiber tracts" d="m318 113 1 1-1-1ZM137 115l-1 1v-1l1-1v1Z"/><path fill="#C7CBCB" id="bsc" d="m139 114-2 1v-1h2Z"/><path fill="#FF8D9D" id="POL" d="m180 128-4 1c-5.389 0-4-12.581-4-15h1c0 4.695 7 8.143 7 14Z"/><path fill="#FF6F80" id="TH" d="m284 114-1 1 1-1Z"/><path fill="#FF8D9D" id="POL" d="M276 127c1.24 0 1.576 2 4 2 3.061 0 5-7.226 5-10 0-1.235.643-5-1-5l-1 1c0 4.13-7 7.084-7 12Z"/><path fill="#CAC7CB" id="fiber tracts" d="m320 114 1 1-1-1Z"/><path fill="#039198" id="AUDp6b" d="M65 139h2l4-14 4-10h-2c0 4.735-3.901 12.303-6 16.5-.65 1.3-.007 6.5-2 6.5v1Z"/><path fill="#C7CBCB" id="bsc" d="M135 116h1v-1l-1 1Z"/><path fill="#FE7F84" id="LGd-co" d="m120 138 12 13 13-14 1-2c0-3.713 3-8.083 3-11.5 0-2.12-1-5.723-1-8.5-2.04 0-11 3.508-11 6 2.63 0 5.475-3.513 8.5-2 1.575.788-1.111 16.944-9 13l-3.5-1.5V125c-2.976 0-6.685 7.87-8 10.5l-1.5 3.5-2.5-2-1 1Z"/><path fill="#FF8DFE" id="NPC" d="m213 115-6 9.5c.901 1.802 3.294-.294 4-1 2.098-2.098 10.987-8.5 2-8.5ZM239 115c0 2.987 6.198 11 9.5 11 1.513 0-.367-4.234-.5-4.5-1.869-3.739-4.607-6.5-9-6.5Z"/><path fill="#FE7F84" id="LGd-co" fill-rule="evenodd" d="M311 119v6.5l2 3c5.227 10.453 17.507-.996 4.5-7.5-2.471-1.235-3.433-2-6.5-2m23 20c0 1.995-7.683 12-10 12l-13-14-3-10.5c-1.592-3.184 1-8.819 1-11.5 6.202 0 16.287 9.073 19 14.5.906 1.811 3.281 9.5 6 9.5Z"/><path fill="#039198" id="AUDp6b" d="M389 138h2c0-6.918-8-16.814-8-23h-1c0 3.686 3 6.177 3 10 0 4.046 4 8.434 4 13Z"/><path fill="#C7CBCB" id="bsc" d="M134 117h1v-1l-2 1h1Z"/><path fill="#CAC7CB" id="fiber tracts" d="m136 116-1 1v-1h1Z"/><path fill="#C7C8CC" id="alv" d="m85 118-2 4c0-1.424.362-5 2-5v1Z"/><path fill="#7ECF4B" id="CA1" d="m86 117-1 1v-1h1Z"/><path fill="#C7CBCB" id="bsc" d="M132 118h1v-1l-1 1Z"/><path fill="#CAC7CB" id="fiber tracts" d="m134 117-1 1v-1h1Z"/><path fill="#CCCACA" id="pc" d="m234 119 7 4c0-1.726-4.558-5-6-5l-2-1h-10v1c3.642 0 8.002 1 11 1Z"/><path fill="#C7CBCB" id="bsc" d="M131 119h1v-1l-1 1Z"/><path fill="#CAC7CB" id="fiber tracts" d="m133 118-1 1v-1h1Z"/><path fill="#CCCACA" id="pc" d="m222 119-3 1 2-2h2l-1 1Z"/><path fill="#FF78FE" id="SCO" d="M225 123c1.293 0 6-1.962 6 1 2.393 0 3-3.234 3-5-2.998 0-7.358-1-11-1l-1 1c0 2.061.902 4 3 4Z"/><path fill="#CAC7CB" id="fiber tracts" d="m323 118 1 1-1-1Z"/><path fill="#C7C8CC" id="alv" d="M127 121h2v-2c-1.747 0-2 .253-2 2Z"/><path fill="#C7CBCB" id="bsc" d="M129 121h1l1-1v-1h-2v2Z"/><path fill="#FD8082" id="LGd-ip" d="M135 123c0 1.747-.253 2-2 2v5.5l3.5 1.5c7.889 3.944 10.575-12.212 9-13-3.025-1.513-5.87 2-8.5 2l-1 1-1 1Z"/><path fill="#FE90FE" id="PRC" d="M225 123c0 6.281 2 12.845 2 20-6.724 0-15.905.689-20-7.5-2.08-4.16 8.07-14.5 11-14.5l1-1 3-1c0 2.061.902 4 3 4ZM229 143l1 1c7.516 0 16.166-1.831 20-9.5 1.524-3.049-6.031-11.5-9-11.5l-7-4c0 1.766-.607 5-3 5 0 6.392-2 12.049-2 19Z"/><path fill="#FD8082" id="LGd-ip" d="M311 119v6.5l2 3c5.227 10.453 17.507-.996 4.5-7.5-2.471-1.235-3.433-2-6.5-2Z"/><path fill="#CAC7CB" id="fiber tracts" d="m131 120-1 1 1-1Z"/><path fill="#CCCACA" id="pc" d="m219 120-1 1 1-1Z"/><path fill="#C7C8CC" id="alv" d="M125 123h2v-2c-1.747 0-2 .253-2 2Z"/><path fill="#C7CBCB" id="bsc" d="M127 123h1l1-1v-1h-2v2Z"/><path fill="#FE7F84" id="LGd-co" d="m137 121-1 1 1-1Z"/><path fill="#CAC7CB" id="fiber tracts" d="m129 122-1 1 1-1Z"/><path fill="#FE7F84" id="LGd-co" d="m136 122-1 1 1-1Z"/><path fill="#A8A9AA" id="V3" d="M228 144h1v-1c0-6.951 2-12.608 2-19 0-2.962-4.707-1-6-1 0 6.281 2 12.845 2 20v1h1Z"/><path fill="#C7C8CC" id="alv" d="M105 158c0-1.279-2 8.836-2 12.5v12c-1.943 3.886-5-2.255-5 3.5l-7.5-9c-9.703-4.852-13.5-23.295-13.5-35v-3l1-2c0-2.224 2.807-14 5-14v2c0 5.774-4 12.709-4 19l2 12.5c0 6.401 4.956 10.955 9 15 .993.993 6.961 3.077 8 1 3.24-6.479 3.754-14.508 7-21 2.806-5.612 7.155-10.31 10-16 1.401-2.803 7.024-12.5 10-12.5v2c-1.577 0-2 1.762-2 3-1.577 0-2 1.762-2 3l-1 1c-1.077 0-12 18.56-12 21l-3 5Z"/><path fill="#C7CBCB" id="bsc" d="M125 125h1l1-1v-1h-2v2Z"/><path fill="#FE7F84" id="LGd-co" d="M135 123c-1.747 0-2 .253-2 2 1.747 0 2-.253 2-2Z"/><path fill="#CAC7CB" id="fiber tracts" d="m127 124-1 1 1-1ZM329 124l1 1-1-1Z"/><path fill="#CCC8CA" id="ar" d="m67 139-1 5c2.541 0 2.006-11 5-11 0-1.623.005-6 2-6l-2-2-4 14Z"/><path fill="#C7CBCB" id="bsc" d="M123 128h1l1-2v-1c-1.577 0-2 1.762-2 3Z"/><path fill="#CAC7CB" id="fiber tracts" d="m126 125-1 1v-1h1Z"/><path fill="#CCC8CA" id="ar" d="M389 138c0 2.522 2 4.909 2 8-.578 0-5.953-18-7-18 0-1.048-.473-3 1-3 0 4.046 4 8.434 4 13Z"/><path fill="#CAC7CB" id="fiber tracts" d="m331 126 2 2-2-2Z"/><path fill="#C8C9CA" id="fp" d="M73 127c-1.995 0-2 4.377-2 6 1.353 0 2-4.643 2-6Z"/><path fill="#FF6F80" id="TH" d="M267 139c0 2.751 5 4.565 5 8 1.798 0 10-13.555 10-16l-2-2c-2.424 0-2.76-2-4-2l-4 5-1 1c0 1.664-1.823 6-4 6Z"/><path fill="#C7CBCB" id="bsc" d="M121 131h1l1-1v-2c-1.577 0-2 1.762-2 3Z"/><path fill="#CAC7CB" id="fiber tracts" d="m124 128-1 1v-1h1Z"/><path fill="#FF6F80" id="TH" d="m189 139-4 4.5c-.523 1.046.951 3.5-1 3.5 0-4.613-9-8.407-9-16l1-2 4-1 5 5c0 1.417 2.383 6 4 6Z"/><path fill="#C8C9CA" id="fp" d="M391 151h1v-1c-1.473 0-1-1.952-1-3v-1c-.578 0-5.953-18-7-18 0 7.654 4 14.56 4 23h3Z"/><path fill="#CAC7CB" id="fiber tracts" d="m333 129 1 1-1-1ZM123 130l-1 1 1-1ZM335 130l2 2-2-2Z"/><path fill="#019099" id="AUDv1" d="M21 151h6c0-6.417 1-13.174 1-19l-5-1c0 6.45-2 13.119-2 20Z"/><path fill="#C7CBCB" id="bsc" d="M121 132v1l-1-1 1-1v1Z"/><path fill="#CAC7CB" id="fiber tracts" d="m122 131-1 1v-1h1Z"/><path fill="#FD8F9C" id="Eth" d="M184 147v14l-5-7.5c-1.552-3.103-15-13.87-15-18.5 3.614 0 6.899-4 11-4 0 7.593 9 11.387 9 16ZM272 147c0 3.531 1 7.893 1 12 1.748 0 14.918-17.337 16-19.5l4-4.5-11-4c0 2.445-8.202 16-10 16Z"/><path fill="#019099" id="AUDv1" d="M429 151h6c0-6.986-2-13.672-2-20l-4 1v19Z"/><path fill="#029198" id="AUDv2/3" d="M27 151h8c0-5.915 1-12.755 1-18l-8-1c0 5.826-1 12.583-1 19Z"/><path fill="#CAC7CB" id="fiber tracts" fill-rule="evenodd" d="M114 173c0 8.42 3.987 17.474 8 25.5 1.438 2.877 1.552 6.552 4 9 .628.628 4 4.11 4 1l-4-7c-3.237-6.475-3.696-14.393-7-21-.845-1.69-2.175-7.5-5-7.5m29 53 5 3-9-10.5c-4.864-9.728-12-17.867-12-28.5-1.473 0-1-1.952-1-3 0-2.795-5-5.331-5-9l-5-6.5-5-8c-2.614-5.229-1.012-21.5 7-21.5l2-4 1-1v-4l-1-1c-1.077 0-12 18.56-12 21 0 18.938 7.124 36.747 15 52.5l13 14.5 2 1 5 5Z"/><path fill="#FF64FF" id="MB" d="m272 132-1 1 1-1Z"/><path fill="#029198" id="AUDv2/3" d="M421 151h8v-19h-1l-7 1v18Z"/><path fill="#029197" id="AUDv4" d="M35 151h4c0-6.023 2-11.684 2-17l-5-1c0 5.245-1 12.085-1 18Z"/><path fill="#C8C9CA" id="fp" d="M65 151h3c0-5.999 3-12.316 3-18-2.994 0-2.459 11-5 11v1l-1 2v4Z"/><path fill="#CAC7CB" id="fiber tracts" d="m339 175 2.5-2c2.167-1.084 1.5 4.918 1.5 6 2.334 0 1.341-4.181 2-5.5 2.534-5.067 4-12.547 4-18.5v-1l-1-2c0-2.316-9.303-19-11-19h-2v2c1.473 0 1 1.952 1 3l2 4c2.209 0 4.143 1.787 5 3.5 2.583 5.167 5.043 12.914 2 19-1.473 2.946-6 7.148-6 10.5Z"/><path fill="#029197" id="AUDv4" d="M418 151h3v-18l-5 1 2 17Z"/><path fill="#019098" id="AUDv5" d="m39 151 15 1 2-15-15-3c0 5.316-2 10.977-2 17ZM418 151l-15 1-3-15c4.921 0 10.739-3 16-3l2 17Z"/><path fill="#FF6F80" id="TH" d="m146 135-1 2 1-2Z"/><path fill="#FF8E9C" id="PO" d="m184 173-1 2c-5.826 0-13.835-7-16-7l-9-9.5c-1.189-2.379-7-14.546-7-16.5v-2c0-1.357 11.489-5 13-5 0 4.63 13.448 15.397 15 18.5l5 7.5v12ZM272 174l1 1c5.899 0 14.64-7 16-7l10-10.5c1.157-2.314 4.13-15.5 7-15.5v-2l-1-1c-3.997 0-8.336-4-12-4l-4 4.5c-1.082 2.163-14.252 19.5-16 19.5 0 4.933-1 10.73-1 15Z"/><path fill="#FE7F84" id="LGd-co" d="m336 138-2 1 1-4c1.473 0 1 1.952 1 3Z"/><path fill="#A8AAAA" id="VL" d="m378 135 1 2-1-2Z"/><path fill="#019397" id="AUDv6a" d="m54 152 9 1c0-5.386 2-8.998 2-14v-1l-8-1h-1l-2 15Z"/><path fill="#A8AAAA" id="VL" d="m78 137-1 2v-2h1Z"/><path fill="#FF6F80" id="TH" d="M132 151v2c3.95 0 5.894-6 10-6l1-1c0-2.879 6.843-4 8-4v-2c-2.74 0-6 .626-6-3l-13 14ZM324 151v2c-3.837 0-6.92-7-11-7 0-2.06-4.74-4-7-4v-2c2.565 0 5 .236 5-3l13 14Z"/><path fill="#019397" id="AUDv6a" d="m403 152-10 1c0-5.613-2-10.094-2-15l9-1 3 15Z"/><path fill="#FF909E" id="IGL" d="M132 153c0 1.321.684 6-1 6-3.077 0-11.271-17-13-17l2-4 12 13v2Z"/><path fill="#FC909E" id="PF" d="M207 171c0 4.318-16.534 5.983-20.5 4l-2.5-2v-26c1.951 0 .477-2.454 1-3.5l4-4.5c15.319 0 19 3.143 19 20 0 3.312-1 8.038-1 12ZM249 171c.276 0 4.357 3.429 5.5 4 4.466 2.233 13.342-1 17.5-1 0-4.27 1-10.067 1-15 0-4.107-1-8.469-1-12 0-3.435-5-5.249-5-8l-7.5-1c-8.476 4.238-11.5 10.548-11.5 20 0 2.95 2 7.018 2 11l-1 1v1Z"/><path fill="#FF909E" id="IGL" d="m324 153 1 6c3.283 0 8.522-10.545 10-13.5.614-1.228 3-1.276 3-3.5l-2-4-2 1c0 1.995-7.683 12-10 12v2Z"/><path fill="#019198" id="AUDv6b" d="M392 153h1c0-5.613-2-10.094-2-15h-2c0 2.522 2 4.909 2 8v1c1.473 0 1 1.952 1 3v3ZM63 153h1v-2c0-1.048-.473-3 1-3v-3l1-1 1-5h-2c0 5.002-2 8.614-2 14Z"/><path fill="#FF7E82" id="PoT" d="m305 139 1 1-1-1Z"/><path fill="#A8AAAA" id="VL" fill-rule="evenodd" d="M361 190c0 7.32-26.153 25.327-31.5 28-1.787.894-9.855 9.073-6 11 9.804 4.902 32.192-15.884 36.5-24.5 1.082-2.164 5.855-14.5 1-14.5m-47 37 2 3c8.484 0 14.831 2.834 22.5-1 4.835-2.417 15.872-18 20.5-18l1-1 1-1v-1l1-1 1-1v-1l1-1 1-1 1-3 1-1c0-8.396 10-15.029 10-23l1-3-3-2.5c0-1.283 3.327-5.654 4-7 3.265-6.531 1-17.532 1-24.5h-1c0 12.739-.899 31.699-13.5 38l-6.5 8c0 3.039-15.465 17-18 17 0 2.367-15.268 17-19 17h-1l-1 1-4 3-1 1v1l-1 1v1Z"/><path fill="#FF7E83" id="VPM" d="M167 168c-3.061 0-6 4.266-6 7-5.906 0-9.655-12-16-12 0-1.747-.253-2-2-2v-1l-2-2v-1c0-3.51 1-7.022 1-10l1-1c0-2.879 6.843-4 8-4 0 1.954 5.811 14.121 7 16.5l9 9.5Z"/><path fill="#A8AAAA" id="VL" fill-rule="evenodd" d="M94 190c0 16.064 7.107 19.607 18 30.5 5.575 5.575 12.369 12.565 20.5 8.5 2.419-1.21-.172-7.086-2-8-6.585-3.293-13.754-10.377-21-14-4.027-2.014-12.8-17-15.5-17m44 31 4 4.5c1.356 2.712-2 3.183-2 4.5-7.61 0-15.374 2.563-22.5-1-3.4-1.7-20.434-21-22.5-21v-1l-3-4-1-1v-1l-12-25-1-3c1.356 0 3.891-1.718 3-3.5-4.433-8.865-5-16.684-5-27.5h1c0 11.705 3.797 30.148 13.5 35l7.5 9c0 2.76 14.818 16 18 16 0 3.945 16.136 18 20 18l2 1Z"/><path fill="#FF8E9F" id="LGv" d="m126 177-5 1-5-6.5-5-8c-2.614-5.229-1.012-21.5 7-21.5 1.729 0 9.923 17 13 17l2 5c-3.873 0-5.97 13-7 13Z"/><path fill="#FF7E83" id="VPM" d="M289 168c3.526 0 6 3.543 6 7 6.212 0 9.975-12 16-12l1-1 1-1 1-2 1-1 1-1v-1c0-3.909-3-7.158-3-10 0-2.06-4.74-4-7-4-2.87 0-5.843 13.186-7 15.5L289 168Z"/><path fill="#FF8E9F" id="LGv" d="m330 177 5 1 4-3c0-3.352 4.527-7.554 6-10.5 3.043-6.086.583-13.833-2-19-.857-1.713-2.791-3.5-5-3.5 0 2.224-2.386 2.272-3 3.5-1.478 2.955-6.717 13.5-10 13.5 0 2.25-2 3.376-2 5 3.523 0 7 9.934 7 13Z"/><path fill="#C9C9CA" id="scwm" d="M65 145h1v-1l-1 1Z"/><path fill="#CCC8CA" id="ar" d="m66 145-1 2v-2h1ZM143 146l-1 1 1-1ZM318 167h2l3-3c0-1.624 2-2.75 2-5l-1-6c-3.837 0-6.92-7-11-7 0 2.842 3 6.091 3 10 5.75 0 2 8.346 2 11ZM137 167h1c0-5.346-4.565-10 3-10 0-3.51 1-7.022 1-10-4.106 0-6.05 6-10 6 0 1.321.684 6-1 6l2 5c2.349 0 1.382 3 4 3Z"/><path fill="#C9C9CA" id="scwm" d="M391 147c1.473 0 1 1.952 1 3-1.473 0-1-1.952-1-3ZM64 151h1v-3c-1.473 0-1 1.952-1 3Z"/><path fill="#15B0B3" id="TEa1" d="m30 173-5 1c-1.995 0-2-4.377-2-6l-2-17h6c0 5.259 1 10.826 1 15.5 0 1.21.814 5.5 2 5.5v1Z"/><path fill="#16AFB3" id="TEa2/3" d="M39 171c-2.389 0-5.987 1-9 1-1.186 0-2-4.29-2-5.5 0-4.674-1-10.241-1-15.5h8c0 7.283 4 13.76 4 20Z"/><path fill="#15B0B2" id="TEa4" d="M39 171h1c0-6.296-1-13.164-1-20h-4c0 7.283 4 13.76 4 20Z"/><path fill="#15AFB3" id="TEa5" d="M41 171c3.962 0 8.688 1 12 1 0-6.573 1-14.1 1-20l-15-1c0 6.836 1 13.704 1 20h1Z"/><path fill="#C8CBCC" id="ec" d="m70 183-3 1c0-3.459-2-8.607-2-12l-1-19v-2h1c0 3.15-1.464 14 2 14 0 1.999.067 6 3 6v12Z"/><path fill="#CCC8CA" id="ar" d="m68 151-1 14c-3.464 0-2-10.85-2-14h3ZM392 160c-2.527 0 .826 5-3 5 0-4.725-1-9.879-1-14h3l1 2v7Z"/><path fill="#C8CBCC" id="ec" d="M392 151v2l-1-2h1Z"/><path fill="#15AFB3" id="TEa5" d="M416 171c-4.414 0-9.177 1-13 1v-20l15-1c0 6.983-2 13.545-2 20Z"/><path fill="#15B0B2" id="TEa4" d="M416 171h2c0-6.561 3-12.547 3-20h-3c0 6.983-2 13.545-2 20Z"/><path fill="#16AFB3" id="TEa2/3" d="M426 173h1c0-2.613.93-4.36 2-6.5V151h-8c0 7.453-3 13.439-3 20 .822 0 8 1.311 8 2Z"/><path fill="#15B0B3" id="TEa1" d="m427 173 5 1c0-7.162 3-15.257 3-23h-6v15.5c-1.07 2.14-2 3.887-2 6.5Z"/><path fill="#15AFB2" id="TEa6a" d="M53 172h11c0-5.826-1-12.583-1-19l-9-1c0 5.9-1 13.427-1 20ZM393 171c3.269 0 6.321 1 10 1v-20l-10 1v18Z"/><path fill="#16B0B2" id="TEa6b" d="M64 172h1l-1-19h-1c0 6.417 1 13.174 1 19ZM391 172h1l1-1v-18h-1v7l-1 12Z"/><path fill="#FD8084" id="VPL" d="M151 175h5l-11-12-2-2v-1l-2-2v-1c-7.565 0-3 4.654-3 10 2.52 0 8.348 8 13 8ZM301 175h5l7-3c0-1.712 2.571-3 4-3l1-2c0-2.654 3.75-11-2-11v1l-1 1-1 1-1 2-1 1-1 1c0 4.419-10 7.1-10 12Z"/><path fill="#CBC8CB" id="fi" d="M98 186c0 2.76 14.818 16 18 16 4.463 0 2.163-5.174 1-7.5-4.42-8.841-12-26.413-12-36.5 0-1.279-2 8.836-2 12.5v12c-1.943 3.886-5-2.255-5 3.5Z"/><path fill="#C7CAC9" id="fr" d="m207 171 4.5 6 4.5-4c0-5.159-.219-13.36-5.5-16l-2.5 2c0 3.312-1 8.038-1 12ZM249 171c0 1.035-4.031 6.734-5.5 6l-3.5-4c0-7.454 1.479-15 8-15 0 2.95 2 7.018 2 11l-1 1v1Z"/><path fill="#CCC8CA" id="ar" d="m316 157-1 1 1-1Z"/><path fill="#CBC8CB" id="fi" d="M359 185c0 3.039-15.465 17-18 17-6.019 0-1.142-8.216 0-10.5 4.991-9.982 10-22.584 10-34.5 3.049 0 2 16.908 2 20 0 9.018 6 4.38 6 8Z"/><path fill="#CCC8CA" id="ar" d="m141 158 2 2-2-2ZM314 159l-1 2 1-2Z"/><path fill="#C8CBCC" id="ec" d="m387 183 2 2c1.148 0 2-11.286 2-13l1-12c-2.527 0 .826 5-3 5 0 1.745.698 6-2 6v12Z"/><path fill="#CCC8CA" id="ar" d="M143 161c1.747 0 2 .253 2 2l-2-2ZM313 161l-1 1 1-1Z"/><path fill="#FF6F80" id="TH" d="m312 162-1 1 1-1Z"/><path fill="#FF6F80" id="TH" fill-rule="evenodd" d="M193 177c0 2.111 7.389 0 0 0m15 4c-5.149 0-10.33-.585-15.5 2-1.324.662-6.5-1.207-6.5 1-8.18 0-16.646-2.573-23.5-6-1.265-.632-6.5-1.278-6.5-3l-11-12c6.345 0 10.094 12 16 12 0 2.825 5.863 3.181 7.5 4 3.374 1.687 13.678 4.161 18 2 5.826-2.913 1.204-6-3.5-6l1-2 2.5 2c3.966 1.983 20.5.318 20.5-4l4.5 6 4.5-4c1.714 0 1 5.594 1 7l-6.5-1-2.5 2Z"/><path fill="#FF6F80" id="TH" d="M301 175c-3.614 0-6.899 4-11 4l5-4c6.212 0 9.975-12 16-12 0 4.419-10 7.1-10 12Z"/><path fill="#F0483B" id="ZI" d="m144 196 5.5 4c3.959 1.98 29.5 19.194 29.5 6 0-8.375-17-19.446-17-22-1.628 0-11-5.952-11-7h-1l-1-1c-2.498 0-12-6.899-12-9-2.618 0-1.651-3-4-3-3.873 0-5.97 13-7 13 0 2.955 5 6.349 5 10l13 9ZM309 199c-2.827 0-4.163 2.831-6.5 4-3.181 1.591-25.5 13.925-25.5 4 0-4.405 11.908-22 17-22l8-6 2-1 1-1h1l1-1c1.178 0 6-2.572 6-4 2.061 0 4-.902 4-3 1.238 0 3-.423 3-2l3-3c3.523 0 7 9.934 7 13 0 3.304-5 7.142-5 11l-1 1c-4.507 0-8.137 7-12 7l-1 1-1 1-1 1Z"/><path fill="#98D5F9" id="CP" d="m78 173 1 3c-1.712 0-3-2.571-3-4 0-7.885 2-4.582 2 1Z"/><path fill="#FF6F80" id="TH" d="M150 177h1v-2c-4.652 0-10.48-8-13-8h-1c0 2.101 9.502 9 12 9l1 1ZM320 167c0 1.577-1.762 2-3 2l1-2h2Z"/><path fill="#98D5F9" id="CP" d="m378 173-1 3c1.923 0 4-2.104 4-4 0-10.192-1.737 1-3 1Z"/><path fill="#FF7F82" id="VPLpc" d="M161 175c0 2.825 5.863 3.181 7.5 4 3.374 1.687 13.678 4.161 18 2 5.826-2.913 1.204-6-3.5-6-5.826 0-13.835-7-16-7-3.061 0-6 4.266-6 7ZM290 179c-1.424 0-5 .362-5 2h-14.5c-5.93-2.965-3.182-6 2.5-6 5.899 0 14.64-7 16-7 3.526 0 6 3.543 6 7l-5 4Z"/><path fill="#FF6F80" id="TH" d="m250 169-1 1 1-1ZM317 169c-1.429 0-4 1.288-4 3 2.061 0 4-.902 4-3Z"/><path fill="#0D9F91" id="ECT2/3" d="m34 190 12 2c0-7.156-5-13.49-5-21h-2c-2.389 0-5.987 1-9 1v1l5 7.5-1 9.5Z"/><path fill="#0D9E90" id="ECT5" d="M46 192c4.383 0 8.202 3 13 3 0-8.379-6-14.191-6-23-3.312 0-8.038-1-12-1 0 7.51 5 13.844 5 21Z"/><path fill="#0E9F91" id="ECT6a" d="M59 195h2c2.447 0 3.28-2 6-2 0-6.724-3-14.294-3-21H53c0 8.809 6 14.621 6 23Z"/><path fill="#FF6F80" id="TH" fill-rule="evenodd" d="M259 177c0 2.111 7.389 0 0 0m-10 5c0-4.784 12.92 1 15.5 1 1.363 0 6.5-.7 6.5 1 1.789 0 14-1.224 14-3h-14.5c-5.93-2.965-3.182-6 2.5-6l-1-1c-4.158 0-13.034 3.233-17.5 1-1.143-.571-5.224-4-5.5-4 0 1.035-4.031 6.734-5.5 6l-3.5-4-1 8c2.099 0 4.383-3.558 7.5-2l2.5 3Z"/><path fill="#15AFB2" id="TEa6a" d="m393 171-1 1 1-1Z"/><path fill="#0E9F91" id="ECT6a" d="M395 195h2c0-8.019 6-13.978 6-23-3.679 0-6.731-1-10-1l-1 1c0 4.586-.034 11.569-2 15.5-.574 1.147 1.064 4.5-1 4.5v1c3.334 0 3.561 2 6 2Z"/><path fill="#0D9E90" id="ECT5" d="M410 192c-4.277 0-8.115 3-13 3 0-8.019 6-13.978 6-23 3.823 0 8.586-1 13-1l-6 21Z"/><path fill="#0D9F91" id="ECT2/3" d="m422 190-12 2 6-21h2c.822 0 8 1.311 8 2 0 3.239-2.681 3.862-4 6.5V190Z"/><path fill="#0E9F90" id="ECT6b" d="M67 193h1l-1-9c0-3.459-2-8.607-2-12h-1c0 6.706 3 14.276 3 21Z"/><path fill="#97D6F9" id="STR" d="M73 181c5.658 0 15.121 20 18 20l-12-25c-1.712 0-3-2.571-3-4h-5l2 9Z"/><path fill="#FF6F80" id="TH" d="M306 176h1c1.178 0 6-2.572 6-4l-7 3v1Z"/><path fill="#97D6F9" id="STR" d="M383 181c-5.662 0-12.802 18-16 18 0-8.396 10-15.029 10-23 1.923 0 4-2.104 4-4h5l-3 9Z"/><path fill="#0E9F90" id="ECT6b" d="M389 185v7c2.064 0 .426-3.353 1-4.5 1.966-3.931 2-10.914 2-15.5h-1c0 1.714-.852 13-2 13Z"/><path fill="#0D9F90" id="ECT1" d="m27 189 7 1 1-9.5-5-7.5-5 1c0 2.477 2.01 2.522 3 4.5 1.514 3.028-1 7.882-1 10.5Z"/><path fill="#CACCCB" id="opt" d="M114 173c0 8.42 3.987 17.474 8 25.5 1.438 2.877 1.552 6.552 4 9 .628.628 4 4.11 4 1l-4-7c-3.237-6.475-3.696-14.393-7-21-.845-1.69-2.175-7.5-5-7.5ZM330 209l-1 1c-4.675 0 .099-6.698 1-8.5.95-1.9 9-25.557 9-26.5l2.5-2c2.167-1.084 1.5 4.918 1.5 6-1.722 0-2.368 5.235-3 6.5l-8 20.5-1 1v1l-1 1Z"/><path fill="#0D9F90" id="ECT1" d="M429 188c0 .853-6.031 2-7 2v-10.5c1.319-2.638 4-3.261 4-6.5h1l5 1-4 5.5 1 8.5Z"/><path fill="#CACCC8" id="ml" d="M186 184c4.523 0 1 3.913 1 5-9.433 0-16.43-6-25-6 0-1.823-9.17-6-11-6v-2h5c0 1.722 5.235 2.368 6.5 3 6.854 3.427 15.32 6 23.5 6ZM271 184c-4.258 0-2 3.133-2 5 9.518 0 16.473-6 25-6l8-4 1-1 1-1h1l1-1v-1h-5c-3.614 0-6.899 4-11 4 0 1.638-3.576 2-5 2 0 1.776-12.211 3-14 3Z"/><path fill="#CAC7CB" id="fiber tracts" d="m313 226-4 2 8-9.5c4.679-9.358 13-17.186 13-28.5v-3c0-1.298 5-4.619 5-9l4-3c0 .943-8.05 24.6-9 26.5-.901 1.802-5.675 8.5-1 8.5 0 3.87-7 5.602-7 9h-1l-1 1-4 3-1 1v1l-2 1Z"/><path fill="#E64438" id="HY" d="m149 176 1 1-1-1Z"/><path fill="#FF6F80" id="TH" d="M305 177h1v-1l-1 1Z"/><path fill="#E64438" id="HY" d="m307 176-1 1v-1h1Z"/><path fill="#FD8F9E" id="SubG" d="M126 187h5c0-3.651-5-7.045-5-10l-5 1c0 3.669 5 6.205 5 9Z"/><path fill="#E64438" id="HY" d="M162 183v1c-1.628 0-11-5.952-11-7 1.83 0 11 4.177 11 6Z"/><path fill="#FE8084" id="SPFp" d="M193 177c0 2.111 7.389 0 0 0ZM259 177c0 2.111 7.389 0 0 0Z"/><path fill="#FF6F80" id="TH" d="M303 178h1v-1l-1 1Z"/><path fill="#E64438" id="HY" d="m305 177-1 1v-1h1Z"/><path fill="#FD8F9E" id="SubG" d="m330 187-5 1c0-3.858 5-7.696 5-11l5 1c0 4.381-5 7.702-5 9Z"/><path fill="#E64438" id="HY" d="m304 178-2 1 1-1h1Z"/><path fill="#FF7F84" id="SPFm" d="M220 191c-1.087 0-2.433 2-5 2-6.57 0-7-6.878-7-12l2.5-2 6.5 1c0 1.182 3 6.389 3 11ZM236 191c1.624 0 2.75 2 5 2 6.094 0 8-5.646 8-11l-2.5-3c-3.117-1.558-5.401 2-7.5 2-3.229 0-3 7.645-3 10Z"/><path fill="#FF6F80" id="TH" d="M290 179c-1.424 0-5 .362-5 2 1.424 0 5-.362 5-2Z"/><path fill="#E64438" id="HY" d="M294 183v2l8-6-8 4Z"/><path fill="#CAC7CB" id="fiber tracts" d="M343 179c-1.722 0-2.368 5.235-3 6.5l-8 20.5c2.647 0 11-23.184 11-27Z"/><path fill="#FF64FF" id="MB" d="M211 220c-2.413 0-3.51 1-5 1l-4.5 2c-9.417 4.709-9.5-8.779-9.5-13l1-1c0-3.002-.93-20-6-20 0-1.087 3.523-5-1-5 0-2.207 5.176-.338 6.5-1 5.17-2.585 10.351-2 15.5-2 0 5.122.43 12 7 12l-4 3.5c-2.202 4.404 2 10.166 2 13.5-9.147 0 0 13.318 0 2 1.579 0 1 2.855 1 4l-3 4ZM245 220c2.688 0 3.418 1 5 1l5.5 2c1.653.826 3.81-.405 5-1 6.481-3.241 3.5-6.709 3.5-12 0-2.231-2.386-6.728-1-9.5l6-11.5c0-1.867-2.258-5 2-5 0-1.7-5.137-1-6.5-1-2.58 0-15.5-5.784-15.5-1 0 5.354-1.906 11-8 11 0 .387 4.299 4.097 5 5.5 1.888 3.775-2 8.247-2 11.5 2.548 0 4.998 5.751 2.5 7l-3.5-2v3l2 2Z"/><path fill="#90EB8D" id="LA" d="m79 229 1 2c0-6.871 11.27-11 17-11 0-3.19 4.967-1 6-1 0-4.239-8-6.4-8-11v-1c-1.712 0-3-2.571-3-4l-1-1v-1c-2.879 0-12.342-20-18-20-1.577 0-2 1.762-2 3 0 14.441 8 24.471 8 38v7ZM377 229v3c-.161 0-4.33-6.83-5.5-8-3.008-3.008-8.141-4-12.5-4 0-2.962-4.707-1-6-1 0-3.05 6-4.483 6-8l1-1 1-1v-1l1-1 1-1v-1l1-1 1-1 1-3 1-1c3.198 0 10.338-18 16-18l2 2 1 1c0 9.25-5 16.52-5 25-2.832 0-3 11.461-3 14 0 1.564-1 3.876-1 6Z"/><path fill="#C8C9CB" id="amc" d="m79 222-2 1c0-12.489-9-24.234-9-30l-1-9 3-1 1 1c0 14.441 8 24.471 8 38Z"/><path fill="#F24739" id="FF" d="m193 209-1 1h-7.5l-5.5-4c0-8.375-17-19.446-17-22v-1c8.57 0 15.567 6 25 6 5.07 0 6 16.998 6 20ZM277 207c-2.362 0-7.057 3-13 3 0-2.231-2.386-6.728-1-9.5l6-11.5c9.518 0 16.473-6 25-6v2c-5.092 0-17 17.595-17 22Z"/><path fill="#8AD987" id="CTXsp" d="M386 183v1l-1-1h1Z"/><path fill="#C8C9CB" id="amc" d="M388 194c0 2.461-3.798 10.096-5 12.5l-2 2.5c0-8.48 5-15.75 5-25v-1h1l2 2v7l-1 2Z"/><path fill="#FF64FF" id="MB" d="M172 243h3l2-3c0-16.564-17.257-21.015-24-34.5-1.037-2.074-9-6.388-9-9.5l-13-9h-5c0 1.048-.473 3 1 3 0-1.22 3.492-1.504 4.5-1l9.5 8.5-1 7 4 8c6.384 12.769 26.75 16.5 30 23 1.558 3.117-2 5.401-2 7.5ZM324 189c2.124 0 4.436 1 6 1v-3l-5 1-1 1Z"/><path fill="#A8A9AA" id="V3" d="M227 195c0 7.877 2 7.877 2 0 0-8.385-2-7.995-2 0Z"/><path fill="#0E9584" id="PERI1" d="m422 199 6 1c0-1.397 3.774-12 1-12 0 .853-6.031 2-7 2v9ZM35 199l-7 1c0-1.548-3.074-11-1-11l7 1c0 3.222 1 6.277 1 9Z"/><path fill="#CCC" d="M171 243h1c0-2.099 3.558-4.383 2-7.5-3.25-6.5-23.616-10.231-30-23l-4-8 1-7-9.5-8.5c-1.008-.504-4.5-.22-4.5 1 0 10.633 7.136 18.772 12 28.5l9 10.5 1 1 1 1h1l2 2h1l2 2h1l1 1 2 1 1 1h1l1 1h1l3 2h1l3 2Z"/><path fill="#FF64FF" id="MB" d="M281 243h3c0-1.984-3.278-3.945-2-6.5 4.084-8.168 22.998-9.995 29-22l5-8c1.529-3.058-.579-7.841 1-11l7-6.5c-4.507 0-8.137 7-12 7l-1 1-1 1-1 1c0 3.012-7.019 8.519-9.5 11-8.269 8.269-20.5 17.193-20.5 29l2 4Z"/><path fill="#CCC" d="M284 243h2l1-1 2-1 2-1 2-1h1l1-1 1-1h1l1-1h1l2-1v-1l2-1 1-1 2-1 1-1 1-1 1-1 8-9.5c4.679-9.358 13-17.186 13-28.5-1.564 0-3.876-1-6-1l-7 6.5c-1.579 3.159.529 7.942-1 11l-5 8c-6.002 12.005-24.916 13.832-29 22-1.278 2.555 2 4.516 2 6.5Z"/><path fill="#0E9583" id="PERI2/3" d="M35 199h6l8-1v-1c-1.477 0-3-3.924-3-5l-12-2c0 3.222 1 6.277 1 9Z"/><path fill="#A9AAA8" id="chpl" d="M94 190c0 16.064 7.107 19.607 18 30.5 5.575 5.575 12.369 12.565 20.5 8.5 2.419-1.21-.172-7.086-2-8-6.585-3.293-13.754-10.377-21-14-4.027-2.014-12.8-17-15.5-17ZM361 190c0 7.32-26.153 25.327-31.5 28-1.787.894-9.855 9.073-6 11 9.804 4.902 32.192-15.884 36.5-24.5 1.082-2.164 5.855-14.5 1-14.5Z"/><path fill="#0E9583" id="PERI2/3" d="M415 199h7v-9l-12 2-2 6 7 1Z"/><path fill="#FD4B3C" id="PH" d="M227 231c.839 0 2-1.93 2 0 2.516 0 12 .018 12-3l2-10v-3c-1.186 0-1.186-1 0-1l1-4c0-3.253 3.888-7.725 2-11.5-.701-1.403-5-5.113-5-5.5-2.25 0-3.376-2-5-2l-2 1-1 1-4.5 16-1.5-4.5c-1.313-2.627-5-9.792-5-12.5l-2-1c-1.087 0-2.433 2-5 2l-4 3.5c-2.202 4.404 2 10.166 2 13.5v2c1.579 0 1 2.855 1 4v10l1 2c3.605 0 7.368 3 12 3Z"/><path fill="#0F9684" id="PERI5" d="M57 196c-2.097 0-5.293 1-8 1-1.477 0-3-3.924-3-5 4.383 0 8.202 3 13 3l-2 1Z"/><path fill="#E64438" id="HY" d="M227 195c0 7.877 2 7.877 2 0l4-2-4.5 16-1.5-4.5c-1.313-2.627-5-9.792-5-12.5l5 3ZM234 192l-1 1 1-1Z"/><path fill="#0E9F90" id="ECT6b" d="m389 193-1 1 1-2v1Z"/><path fill="#0F9684" id="PERI5" d="M407 198h1l2-6c-4.277 0-8.115 3-13 3l2 1c.981 0 8 1.184 8 2Z"/><path fill="#A0EE9C" id="EPd" d="M76 229c-2.54 0-2.543 3-4 3l-5-8c.193 0 3 2.06 3 .5l-4-7c-1.802-3.604-1.18-8.361-3-12-1.28-2.558 2.237-8.5-2-8.5v-2c2.447 0 3.28-2 6-2h1c0 5.766 9 17.511 9 30 0 2.124-1 4.436-1 6ZM381 229c1.539 0 3 1.342 3 3 .483 0 4-5.903 4-7-1.273 0 3.104-10.708 4-12.5 1.139-2.278-.106-16.5 3-16.5v-1c-2.439 0-2.666-2-6-2l-1 1c0 2.461-3.798 10.096-5 12.5l-2 2.5c0 5.03-2 8.72-2 14 0 2.518 2 4.286 2 6Z"/><path fill="#32B824" id="ENTl6a" d="M61 197c0 5.74 2 11.217 2 16-1.845 0-1.44-3.381-2-4.5L57 196l2-1h2v2ZM399 196c0 1.995-1.996 13-4 13v-14h2l2 1Z"/><path fill="#31B824" id="ENTl5" d="m65 219-9 1c0-3.6-7-15.665-7-22v-1c2.707 0 5.903-1 8-1l4 12.5c.56 1.119.155 4.5 2 4.5 0 2.483 2 4.026 2 6Z"/><path fill="#E64438" id="HY" d="m181 237-4 3c0-16.564-17.257-21.015-24-34.5-1.037-2.074-9-6.388-9-9.5l5.5 4c3.959 1.98 29.5 19.194 29.5 6l5.5 4h7.5c0 4.221.083 17.709 9.5 13l4.5-2v7l-1 1-4-2c0-2.899-7-2.899-7 0l-1 1-1 1c0-6.371-8.19-12-14-12 0-3.07-7.678-7.144-9-4.5-1.284 2.569 3 3.509 3 5.5-2.13 0 9 15.183 9 19ZM312 196l-1 1 1-1Z"/><path fill="#C9C8CA" id="ee" d="m389 224-1 1c-1.273 0 3.104-10.708 4-12.5 1.139-2.278-.106-16.5 3-16.5v14l-1 2-2 7-1 1v1l-1 1v1l-1 1Z"/><path fill="#31B824" id="ENTl5" d="m392 219 9 1c0-7.319 6-14.092 6-22 0-.816-7.019-2-8-2 0 1.995-1.996 13-4 13v1l-1 2-2 7Z"/><path fill="#C9C8CA" id="ee" d="M67 223v1c.193 0 3 2.06 3 .5l-4-7c-1.802-3.604-1.18-8.361-3-12-1.28-2.558 2.237-8.5-2-8.5 0 5.74 2 11.217 2 16 0 2.483 2 4.026 2 6v1l1 1v1l1 1Z"/><path fill="#E64438" id="HY" d="m311 197-1 1 1-1Z"/><path fill="#32B725" id="ENTl3" d="m56 220-8 2-7-23 8-1c0 6.335 7 18.4 7 22Z"/><path fill="#E64438" id="HY" d="m310 198-1 1 1-1Z"/><path fill="#32B725" id="ENTl3" d="m401 220 8 2 6-23-7-1h-1c0 7.908-6 14.681-6 22Z"/><path fill="#32B722" id="ENTl1" d="m42 224-3 2c0-3.87-11-19.635-11-26l7-1c0 7.344 1.974 13.449 5 19.5.492.984.85 5.5 2 5.5Z"/><path fill="#32B825" id="ENTl2" d="m48 222-6 2c-1.15 0-1.508-4.516-2-5.5-3.026-6.051-5-12.156-5-19.5h6l7 23Z"/><path fill="#E64438" id="HY" d="M276 237c0 1.577 1.762 2 3 2 0-11.807 12.231-20.731 20.5-29 2.481-2.481 9.5-7.988 9.5-11-2.827 0-4.163 2.831-6.5 4-3.181 1.591-25.5 13.925-25.5 4-2.362 0-7.057 3-13 3 0 5.291 2.981 8.759-3.5 12-1.19.595-3.347 1.826-5 1l-5.5-2 1 8 5-2c0-3.276 7-2.711 7 0l2 2c0-6.777 7.794-12 14-12l.5-4c1.349-.674 8.5-1.04 8.5.5l-3 3.5c0 7.526-9 11.854-9 20Z"/><path fill="#97D6F9" id="STR" d="m367 199-1 1 1-1Z"/><path fill="#32B825" id="ENTl2" d="M409 222c0 .913 5.014 2 6 2 0-8.271 7-16.124 7-25h-7l-6 23Z"/><path fill="#32B722" id="ENTl1" d="M415 224c0 1.481 2 .785 2 3l3-5.5c1.987-1.987 8-18.369 8-21.5l-6-1c0 8.876-7 16.729-7 25Z"/><path fill="#97D6F9" id="STR" d="m91 202 1 1-1-1Z"/><path fill="#CAC7CB" id="fiber tracts" d="m92 203 3 4c-1.712 0-3-2.571-3-4ZM365 203l-1 1 1-1ZM364 204l-1 1 1-1ZM332 206l-1 1 1-1ZM363 206l-1 1 1-1ZM362 207l-1 1 1-1ZM144 233l-8.5-1-4.5 2-15-3h-1l-2-2-3-4c-1.893 0-3.649-6-7-6 0-4.239-8-6.4-8-11 2.066 0 19.1 19.3 22.5 21 7.126 3.563 14.89 1 22.5 1l4 3ZM331 208l-1 1 1-1Z"/><path fill="#E64438" id="HY" d="m193 209-1 1 1-1Z"/><path fill="#CAC7CB" id="fiber tracts" d="m330 209-1 1 1-1ZM361 209l-1 1 1-1Z"/><path fill="#C8C9CB" id="amc" d="M378 223h1c0-5.28 2-8.97 2-14-2.832 0-3 11.461-3 14Z"/><path fill="#C8C8C8" id="mtg" d="M213 210c-9.147 0 0 13.318 0 2v-2ZM243 214v1l3.5 2c2.498-1.249.048-7-2.5-7l-1 4Z"/><path fill="#CAC7CB" id="fiber tracts" d="m360 210-1 1 1-1Z"/><path fill="#32B824" id="ENTl6a" d="m395 210-1 2 1-2Z"/><path fill="#CAC7CB" id="fiber tracts" d="m313 233 7.5-1 5.5 3c0-2.276 9.126-2.813 11.5-4 .879-.44 2.5-.028 2.5 1l2-2 1-1 1-1 3-3c0-1.532 3.897-6 6-6 0-3.05 6-4.483 6-8-4.628 0-15.665 15.583-20.5 18-7.669 3.834-14.016 1-22.5 1l-3 3Z"/><path fill="#CCCACB" id="nst" d="m178 217-1.5 2-4.5-1c0-1.991-4.284-2.931-3-5.5 1.322-2.644 9 1.43 9 4.5ZM279 217c0 4.714 5.147 0 6 0l3-3.5c0-1.54-7.151-1.174-8.5-.5l-.5 4Z"/><path fill="#E64438" id="HY" d="M243 214c-1.186 0-1.186 1 0 1v-1ZM211 220c3.232 0 .827 5 3 5v-9l-3 4Z"/><path fill="#F1483A" id="PSTN" d="M192 229c-2.498 0-6.427 8-11 8 0-3.817-11.13-19-9-19l4.5 1 1.5-2c5.81 0 14 5.629 14 12ZM265 229c0 4.234 7.504 8 11 8 0-8.146 9-12.474 9-20-.853 0-6 4.714-6 0-6.206 0-14 5.223-14 12Z"/><path fill="#9DE79B" id="BLAa" d="m108 228-6 3c-3.615 0-5-8.3-5-11 0-3.19 4.967-1 6-1 3.351 0 5.107 6 7 6l-1 2-1 1Z"/><path fill="#E64438" id="HY" d="M241 228h2c0-3.015 2-6.004 2-8l-2-2-2 10Z"/><path fill="#9DE79B" id="BLAa" d="m348 228 6 3c4.384 0 5-9.337 5-11 0-2.962-4.707-1-6-1-2.103 0-6 4.468-6 6l1 3Z"/><path fill="#6ACAB9" id="PIR" d="M81 265c0 6.415-9 18.012-9 20l-11-13.5c-4.92-9.84-22-35.143-22-45.5l3-2 6-2 8-2 9-1v1l1 1v1l1 1v1l5 8c0 6.847 2.03 18.56 5 24.5l4 7.5v1Z"/><path fill="#C8CBCA" id="pm" d="M206 228c0 5.177 8 5.177 8 0v-3c-2.173 0 .232-5-3-5-2.413 0-3.51 1-5 1v7ZM243 228c0 8.232 6.683 1 8 1l-1-8c-1.582 0-2.312-1-5-1 0 1.996-2 4.985-2 8Z"/><path fill="#99D2BD" id="OLF" d="m392 219-1 1 1-1Z"/><path fill="#6ACAB9" id="PIR" d="M375 266c0 5.757 9 14.516 9 19 2.777 0 7.945-9.445 10.5-12 5.619-5.619 22.5-38.043 22.5-46 0-2.215-2-1.519-2-3-.986 0-6-1.087-6-2l-8-2-9-1-1 1v1l-1 1v1l-1 1-1 1c0 1.097-3.517 7-4 7 0 4.255-1.272 16.044-3 19.5-1.765 3.53-5 8.401-5 12.5l-1 2Z"/><path fill="#99D2BD" id="OLF" d="m65 220 1 1-1-1Z"/><path fill="#9DE69C" id="BLAp" d="m92 249-1 1-5-1c-5.689 0-6-14.03-6-18 0-6.871 11.27-11 17-11 0 2.7 1.385 11 5 11 0 2.237-9.2 18-10 18ZM365 249h6c0-.657 6-11.196 6-17-.161 0-4.33-6.83-5.5-8-3.008-3.008-8.141-4-12.5-4 0 1.663-.616 11-5 11 0 1.534 9.756 18 11 18Z"/><path fill="#99D2BD" id="OLF" d="m391 221-1 1 1-1ZM66 222l1 1-1-1Z"/><path fill="#8AD987" id="CTXsp" d="M76 229h3v-7l-2 1c0 2.124-1 4.436-1 6ZM377 229h4c0-1.714-2-3.482-2-6h-1c0 1.564-1 3.876-1 6Z"/><path fill="#99D2BD" id="OLF" d="m390 223-1 1 1-1Z"/><path fill="#A0EE9C" id="EPd" d="m389 224-1 1 1-1Z"/><path fill="#8AD987" id="CTXsp" d="m109 227 4 2-3-4-1 2Z"/><path fill="#CBCCCB" id="mfb" d="M194 227h7c0-2.899-7-2.899-7 0ZM256 227h7c0-2.711-7-3.276-7 0Z"/><path fill="#8AD987" id="CTXsp" d="M344 228h4l-1-3-3 3Z"/><path fill="#C7C8CC" id="alv" d="M149 235c0-4.655 4.197 0 6 0l-1-2h-1l-2-2h-1l-1-1-1-1-5-3c0 3.555 4 4.955 4 8l2 1Z"/><path fill="#E64438" id="HY" d="M214 228h1l-1-2v2Z"/><path fill="#C7C8CC" id="alv" d="M307 235h2c0-1.451 3.778-8 5-8v-1h-1l-4 2-1 1-1 1-1 1-2 1v1c2.003 0 3-.293 3 2Z"/><path fill="#8AD987" id="CTXsp" d="m109 227-1 1 1-1Z"/><path fill="#84E981" id="BMAp" d="M97 266h1l5-3c0-3.81 16-16.843 16-23v-3l-3-5-1-1-2-2-4-2-1 1-6 3c0 2.237-9.2 18-10 18l-1 1v1c0 4.514 2 8.092 2 13l3 2h1Z"/><path fill="#CBCCCB" id="mfb" d="m194 227-1 1 1-1Z"/><path fill="#F2483A" id="LHA" d="m195 249-10.5 4c-3.349 1.675-6.241-2-8.5-2 0-2.097-1-5.293-1-8l2-3 4-3c4.573 0 8.502-8 11-8l1-1 1-1h7l4 2c0 2.009 1 4.272 1 6l-1 4-1 1-1 1-1 1-1 1v1l-6 5ZM262 249l10.5 4c3.117 1.558 5.401-2 7.5-2 1.735 0 1-6.51 1-8l-2-4c-1.238 0-3-.423-3-2-3.496 0-11-3.766-11-8l-2-2h-7l-5 2-1 6 3 5v1l8 8h1Z"/><path fill="#84E981" id="BMAp" d="M359 266h1l3-1 2-13v-3c-1.244 0-11-16.466-11-18l-6-3h-4l-1 1-1 1-2 2-2 4-1 1v2c0 5.404 16 21.051 16 24l5 3h1Z"/><path fill="#FF493D" id="SUM" d="M225 248c2.275 0 3.514 1 6 1 0-8.389 11.053-12 18-12l1-2 1-6c-1.317 0-8 7.232-8-1h-2c0 3.018-9.484 3-12 3 0 1.399-2 1.399-2 0-4.632 0-8.395-3-12-3h-1c0 5.177-8 5.177-8 0l-1 1c0 2.009 1 4.272 1 6l2 2c5.998 0 17 3.551 17 11Z"/><path fill="#CAC7CB" id="fiber tracts" d="m309 228-1 1 1-1Z"/><path fill="#8AD987" id="CTXsp" d="m344 228-1 1 1-1Z"/><path fill="#A0ED9D" id="EPv" d="M81 264h1l2-1 1-3c0-3.222 1-6.277 1-9v-2c-5.689 0-6-14.03-6-18l-1-2h-3c-2.54 0-2.543 3-4 3 0 6.847 2.03 18.56 5 24.5l4 7.5Z"/><path fill="#CAC7CB" id="fiber tracts" d="m308 229-1 1 1-1Z"/><path fill="#8AD987" id="CTXsp" d="m343 229-1 1 1-1Z"/><path fill="#A0ED9D" id="EPv" d="m373 263 3 1c0-4.099 3.235-8.97 5-12.5 1.728-3.456 3-15.245 3-19.5 0-1.658-1.461-3-3-3h-4v3c0 5.804-6 16.343-6 17l-1 2c0 2.69 1 6.675 1 10l1 2h1Z"/><path fill="#CAC7CB" id="fiber tracts" d="m149 230 1 1-1-1Z"/><path fill="#E64438" id="HY" d="M227 231c.839 0 2-1.93 2 0 0 1.399-2 1.399-2 0Z"/><path fill="#CAC7CB" id="fiber tracts" d="m307 230-1 1 1-1Z"/><path fill="#8AD987" id="CTXsp" d="M116 231v1l-1-1h1Z"/><path fill="#C8CBC7" id="st" d="M119 237h4c1.93 0 8-.84 8-3l-15-3v1l3 5Z"/><path fill="#CAC7CB" id="fiber tracts" d="m151 231 2 2-2-2Z"/><path fill="#C8CBC7" id="st" d="M333 237h4l1-1 2-4c0-1.028-1.621-1.44-2.5-1-2.374 1.187-11.5 1.724-11.5 4 2.16 0 4.167 2 7 2Z"/><path fill="#97EC93" id="PA" d="m113 263 7.5-6c9.1-4.55 17.868-6.132 26 2l3.5 4 7-5c0-7.723-9-15.935-9-22l-4-3-8.5-1-4.5 2c0 2.16-6.07 3-8 3l-4 3c0 6.157-16 19.19-16 23h10Z"/><path fill="#CAC7CB" id="fiber tracts" d="M303 233h1v-1l-1 1Z"/><path fill="#97EC93" id="PA" d="M343 263h10c0-2.949-16-18.596-16-24l-4-2c-2.833 0-4.84-2-7-2l-5.5-3-7.5 1-4 2c0 4.387-10 16.587-10 23l7 4c4.607 0 12.064-13.718 21.5-9l11 6 4.5 4Z"/><path fill="#7ECF49" id="CA3" d="m163 245-4 3c-4.905 0-5.147-13-10-13 0-4.655 4.197 0 6 0h1l4 3h1l1 1h1l2 3-1 1-1 2Z"/><path fill="#CAC7CB" id="fiber tracts" d="M155 235h1l-2-2 1 2ZM301 234h2v-1l-2 1Z"/><path fill="#C7C8CC" id="alv" d="m304 233-1 1v-1h1Z"/><path fill="#7ECF49" id="CA3" d="m293 244 4 4c1.318 0 9-10.81 9-12l1-1c0-2.293-.997-2-3-2l-1 1-2 1-2 1-1 1h-1l-1 1-1 1h-2l-1 1-1 1v1l2 2Z"/><path fill="#7DCD4B" id="HPF" d="m161 257-4 1c0-7.723-9-15.935-9-22l-1-2 2 1c4.853 0 5.095 13 10 13l-1 3c0 2.569 3 4.765 3 6Z"/><path fill="#C7C8CC" id="alv" d="m303 234-2 1v-1h2ZM160 237v1l-4-3h1l1 1 2 1Z"/><path fill="#CAC7CB" id="fiber tracts" d="m157 235 1 1-1-1Z"/><path fill="#E64438" id="HY" d="m208 237-3 2 1-4 2 2ZM249 237l4 3-3-5-1 2Z"/><path fill="#C7C8CC" id="alv" d="m301 235-2 1 2-1ZM307 235l-1 1 1-1Z"/><path fill="#7DCD4B" id="HPF" d="m295 257 4 1c0-6.413 10-18.613 10-23h-2l-1 1c0 1.19-7.682 12-9 12l1 3c0 3.067-3 4.726-3 6Z"/><path fill="#CAC7CB" id="fiber tracts" d="M297 237h1v-1l-1 1Z"/><path fill="#C7C8CC" id="alv" d="m299 236-1 1v-1h1Z"/><path fill="#8AD987" id="CTXsp" d="m338 236-1 1 1-1ZM123 237l-4 3v-3h4Z"/><path fill="#CAC7CB" id="fiber tracts" d="M160 238h1l-1-1v1Z"/><path fill="#FC4C3E" id="PMd" d="M216 257h1c1.424 0 7-3.98 7-5l1-4c0-7.449-11.002-11-17-11l-3 2-1 1-1 1-1 1-1 1v1c0 .986-1.087 6-2 6v3l2 4h15ZM241 257h14l2-4v-4l-4-8v-1l-4-3c-6.947 0-18 3.611-18 12l1 3c2.74 0 4.77 5 8 5h1Z"/><path fill="#CAC7CB" id="fiber tracts" d="M295 238h1v-1l-1 1Z"/><path fill="#C7C8CC" id="alv" d="m297 237-1 1v-1h1Z"/><path fill="#8AD987" id="CTXsp" d="M337 237v2l-4-2h4Z"/><path fill="#C7C8CC" id="alv" d="M162 238v1l-1-1h1Z"/><path fill="#CAC7CB" id="fiber tracts" d="M162 239h1l-1-1v1ZM294 239h1v-1l-1 1Z"/><path fill="#C7C8CC" id="alv" d="m296 238-1 1v-1h1ZM165 242h1v-1l-2-2h-1l2 3Z"/><path fill="#CAC7CB" id="fiber tracts" d="M166 241h1l-3-2 2 2Z"/><path fill="#E64438" id="HY" d="m205 239-1 1 1-1Z"/><path fill="#CAC7CB" id="fiber tracts" d="M291 240h1l1-1-2 1Z"/><path fill="#E64438" id="HY" d="m204 240-1 1 1-1Z"/><path fill="#CAC7CB" id="fiber tracts" d="M289 241h2v-1l-2 1Z"/><path fill="#C7C8CC" id="alv" d="m292 240-1 1v-1h1Z"/><path fill="#7DCD4B" id="HPF" d="M166 242h2v-1h-2v1Z"/><path fill="#CAC7CB" id="fiber tracts" d="M170 243h1l-3-2v1l2 1Z"/><path fill="#E64438" id="HY" d="m203 241-1 1 1-1ZM257 249h4l-8-8 4 8Z"/><path fill="#CAC7CB" id="fiber tracts" d="M287 242h2v-1l-2 1Z"/><path fill="#7DCD4B" id="HPF" d="M289 242h2v-1h-2v1Z"/><path fill="#65A83D" id="DG-sg" d="m159 248-1 3c2.981 0 10-5.76 10-9h-3l-1 1-1 2-4 3Z"/><path fill="#7BD04A" id="DG-mo" d="M161 257h2l2-1 1-1h1l1-1 1-1 1-1 2-2.5c1.428-2.856-2-4.553-2-6.5l-2-1c0 3.24-7.019 9-10 9 0 2.569 3 4.765 3 6Z"/><path fill="#E64438" id="HY" d="m202 242-1 1 1-1Z"/><path fill="#CAC7CB" id="fiber tracts" d="m287 242-1 1 1-1Z"/><path fill="#7BD04A" id="DG-mo" d="M293 257h2c0-1.274 3-2.933 3-6-3.698 0-9-5.243-9-9h-2l-1 1c0 1.88-3.961 12 4 12l1 1h1l1 1Z"/><path fill="#65A83D" id="DG-sg" d="m297 248 1 3c-3.698 0-9-5.243-9-9h2l2 2 4 4Z"/><path fill="#7ECE4A" id="DG-po" d="m291 242 2 2-2-2ZM164 243l-1 2 1-2Z"/><path fill="#E64438" id="HY" d="M195 249c1.145 0 4-.579 4 1 .913 0 2-5.014 2-6l-6 5ZM226 256c0-4.369 4.091 0 5 0 0-1.145-.579-4 1-4l-1-3c-2.486 0-3.725-1-6-1l-1 4 2 4Z"/><path fill="#8AD987" id="CTXsp" d="M86 251h5v-1l-5-1v2ZM92 249l-1 1 1-1Z"/><path fill="#E64438" id="HY" d="M181 260c0-6.493 11.516 2 12 2 0-2.981 5.004-5 8-5l-2-4c-4.703 0-4-.649-4-4l-10.5 4c-3.349 1.675-6.241-2-8.5-2 0 1.488 3.413 9 5 9Z"/><path fill="#C7C8CA" id="fx" d="M199 250v3c-4.703 0-4-.649-4-4 1.145 0 4-.579 4 1ZM262 249c0 4.306-.938 4-5 4v-4h5Z"/><path fill="#E64438" id="HY" d="M276 260c-1.984 0-3.945-3.278-6.5-2-1.873.936-3.23 3-5.5 3 0-1.689-7.573-4-9-4l2-4c4.062 0 5 .306 5-4l10.5 4c3.117 1.558 5.401-2 7.5-2l-4 9Z"/><path fill="#8AD987" id="CTXsp" d="m370 251-5 1v-3h6l-1 2Z"/><path fill="#9CE79C" id="BLAv" d="M92 267h1v-3c0-4.908-2-8.486-2-13h-5c0 2.723-1 5.778-1 9 1.473 0 1 1.952 1 3 1.431 0 3.1 4 6 4ZM363 265l1 2c1.984 0 6-1.444 6-4l1-2c0-3.325-1-7.31-1-10l-5 1-2 13Z"/><path fill="#7DCD4B" id="HPF" d="m170 252-1 1 1-1Z"/><path fill="#FC4C3D" id="TMd" d="M218 265h8v-9l-2-4c0 1.02-5.576 5-7 5v1l1 7ZM231 265h8c0-2.409 1-5.181 1-7v-1c-3.23 0-5.26-5-8-5-1.579 0-1 2.855-1 4v9Z"/><path fill="#60E6B5" id="COApm" d="M150 263c-2.846 0-26.153 24-31 24l-4-8.5c-2.064-4.128-2-10.544-2-15.5l7.5-6c9.1-4.55 17.868-6.132 26 2l3.5 4Z"/><path fill="#7DCD4B" id="HPF" d="m169 253-1 1 1-1Z"/><path fill="#60E6B5" id="COApm" d="M343 263c0 7.649-.854 15.208-4 21.5l-2 2.5-24-18.5-7-6.5c4.607 0 12.064-13.718 21.5-9l11 6 4.5 4Z"/><path fill="#7DCD4B" id="HPF" d="m168 254-1 1 1-1Z"/><path fill="#A8A9AA" id="V3" d="m226 265 1 3v2.5c0 10.09 3.584-5.5 4-5.5v-9c-.909 0-5-4.369-5 0v9Z"/><path fill="#7DCD4B" id="HPF" d="m166 255-1 1 1-1ZM290 255l1 1-1-1ZM165 256l-2 1 2-1Z"/><path fill="#FF4B3B" id="PMv" d="M201 273c2.958 0 3.621 2 9 2l8-10-1-7-1-1h-15c-2.996 0-8 2.019-8 5 0 4.322 8 8.134 8 11ZM255 273c-2.958 0-3.621 2-9 2 0-3.26-7-6.165-7-10 0-2.409 1-5.181 1-7l1-1h14c1.427 0 9 2.311 9 4 0 2.205-6.069 12-9 12Z"/><path fill="#7DCD4B" id="HPF" d="m292 256 1 1-1-1Z"/><path fill="#E64438" id="HY" d="M217 257v1l-1-1h1ZM241 257l-1 1v-1h1Z"/><path fill="#FF4C3E" id="TMv" d="M199 275h2v-2c0-2.866-8-6.678-8-11-.484 0-12-8.493-12-2 0 2.908 13.437 14 17 14l1 1ZM256 275h1l1-1h1l1-1c2.241 0 16-10.216 16-13-1.984 0-3.945-3.278-6.5-2-1.873.936-3.23 3-5.5 3 0 2.205-6.069 12-9 12l1 2Z"/><path fill="#8AD987" id="CTXsp" d="M84 263h2c0-1.048.473-3-1-3l-1 3ZM370 263h2l-1-2-1 2Z"/><path fill="#59D9AA" id="PAA" d="m91 291-2 2c-6.458 0-16.223-8-17-8 0-1.988 9-13.585 9-20l1-1 2-1h2c1.431 0 3.1 4 6 4l1 1 1 4c0 6.961-3 11.816-3 19Z"/><path fill="#5FE6B7" id="COApl" d="M91 291v2c3.928 0 12.241 3.129 16.5 1l11.5-7-4-8.5c-2.064-4.128-2-10.544-2-15.5h-10l-5 3-1 1-3 5c0 6.961-3 11.816-3 19ZM366 291v2c-4.158 0-13.034 3.233-17.5 1l-11.5-7 2-2.5c3.146-6.292 4-13.851 4-21.5h10l5 3 1 1 3 4 4 20Z"/><path fill="#59D9AA" id="PAA" d="m366 291 1 2c3.364 0 17-4.587 17-8 0-4.484-9-13.243-9-19l-2-3h-3c0 2.556-4.016 4-6 4l-1 1c0 1.048.473 3-1 3l4 20Z"/><path fill="#99D2BD" id="OLF" d="m376 264-1 2-2-3 3 1ZM82 264l-1 1v-1h1Z"/><path fill="#8AD987" id="CTXsp" d="M96 266c0 1.473-1.952 1-3 1v-3l3 2Z"/><path fill="#FF5447" id="PVp" d="m247 279-1 1c-5.318 0-23.721 4.389-28.5 2-1.323-.661-7.409-3-8.5-3l1-4 8-10h8l1 3v2.5c0 10.09 3.584-5.5 4-5.5h8c0 3.835 7 6.74 7 10l1 4Z"/><path fill="#8AD987" id="CTXsp" d="m364 267-1 1-3-2 3-1 1 2Z"/><path fill="#99D2BD" id="OLF" d="m93 268 1 4 3-5v-1h-1c0 1.473-1.952 1-3 1v1Z"/><path fill="#8AD987" id="CTXsp" d="m98 266-1 1v-1h1ZM359 266v1l-1-1h1Z"/><path fill="#99D2BD" id="OLF" d="M363 268c0 1.048.473 3-1 3l-3-4v-1h1l3 2Z"/><path fill="#8AD987" id="CTXsp" d="M93 267v1l-1-1h1Z"/><path fill="#E64438" id="HY" d="m210 275-1 4-8-4v-2c2.958 0 3.621 2 9 2ZM256 275c0 .855-7.665 4-9 4l-1-4c5.379 0 6.042-2 9-2l1 2ZM260 273l-1 1 1-1ZM198 274l1 1-1-1ZM258 274l-1 1 1-1ZM247 279l-1 1 1-1Z"/><path fill="#99D2BD" id="OLF" d="M89 293h2v-2l-2 2ZM366 293h1l-1-2v2Z"/></svg>