<svg xmlns="http://www.w3.org/2000/svg" viewBox="0 0 456 320"><path fill="#1BA696" id="RSPagl1" d="M189 15c-5.296 0-9.35 2-15 2v-4c3.784 0 10.216-4 14-4 0 1.564 1 3.876 1 6Z"/><path fill="#1BA598" id="RSPd1" d="M219 23h1l1-2c0-12.08-23.955-12-33-12 0 1.564 1 3.876 1 6l6.5-2c7.074-3.537 15.773 3.886 20 6 .865.433 3.5 2.48 3.5 4ZM235 21l2 2 3.5-4c9.789-9.789 17.076-4 27.5-4l1-5c0-1.773-9.259-1-11-1-6.945 0-23 3.572-23 12Z"/><path fill="#1BA696" id="RSPagl1" d="M268 15c4.77 0 8.737 2 14 2l1-4c-4.096 0-9.512-3-14-3l-1 5Z"/><path fill="#019FAC" id="VISa1" d="m116 29 2 4c5.699 0 14.457-5.479 19.5-8 5.583-2.791 28.886-8 35.5-8l-1-4c-12.618 0-30.897 4.699-41.5 10-2.348 1.174-14.5 2.513-14.5 6Z"/><path fill="#09848B" id="VISam1" d="M173 17h1v-4h-2l1 4Z"/><path fill="#1BA697" id="RSPd2/3" d="m219 23-4 3-9.5-5c-4.978-2.489-12.17 2-16.5 2v-8l6.5-2c7.074-3.537 15.773 3.886 20 6 .865.433 3.5 2.48 3.5 4ZM241 27h1c0-9.588 21.398-4 25-4 0-2.707 1-5.903 1-8-10.424 0-17.711-5.789-27.5 4l-3.5 4c1.634 0 4 2.634 4 4Z"/><path fill="#09848B" id="VISam1" d="M282 17h2l1-4h-2l-1 4Z"/><path fill="#019FAC" id="VISa1" d="M338 33h1l2-4c0-2.351-13.522-5.011-15.5-6-10.318-5.159-28.274-10-40.5-10l-1 4v1c10.619 0 31.755 4.627 40.5 9 3.898 1.949 8.99 6 13.5 6Z"/><path fill="#1AA496" id="RSPagl2/3" d="M175 27h1c4.447 0 8.339-4 13-4v-8c-5.296 0-9.35 2-15 2l1 4v6ZM267 23l14 4c0-2.124 1-4.436 1-6v-4c-5.263 0-9.23-2-14-2 0 2.097-1 5.293-1 8Z"/><path fill="#009EAB" id="VISa2/3" d="M122 42h1l11.5-5c6.778-3.39 32.361-10 40.5-10v-6l-2-4c-6.614 0-29.917 5.209-35.5 8-5.043 2.521-13.801 8-19.5 8v1l4 8Z"/><path fill="#0B848A" id="VISam2/3" d="m174 17 1 4-2-4h1ZM284 18l-2 3v-4h2v1Z"/><path fill="#009EAB" id="VISa2/3" d="M338 33c0 3.47-4 6.007-4 9-4.099 0-8.97-3.235-12.5-5-7.068-3.534-31.997-10-40.5-10 0-2.124 1-4.436 1-6l2-3c10.619 0 31.755 4.627 40.5 9 3.898 1.949 8.99 6 13.5 6Z"/><path fill="#1AA596" id="RSPd5" d="M189 35c3.105 0 18-7.775 18 1 3.423 0 4.896-9 8-9v-1l-9.5-5c-4.978-2.489-12.17 2-16.5 2v12Z"/><path fill="#1BA597" id="RSPv1" d="M230 66h2V32.5l5-9.5-2-2-6 7.5-.5 2.5-7.5-10-1 2 5 10.5c.748 1.495-.477 2.953-1 4-2.504 5.009 1 23.01 1 28.5h2c0-5.86 3-4.761 3 0Z"/><path fill="#1AA596" id="RSPd5" d="m249 35 3.5-3c5.107-2.553 11.197 3 15.5 3l-1-12c-3.602 0-25-5.588-25 4l7 8Z"/><path fill="#1CA697" id="RSPagl5" d="M177 40h1c0-.507 9.906-5 11-5V23c-4.661 0-8.553 4-13 4l1 13Z"/><path fill="#1AA597" id="RSPv2/3" d="m221 65 4 1c0-5.49-3.504-23.491-1-28.5.523-1.047 1.748-2.505 1-4L220 23h-1l-4 3v1c0 1.598 2.177 6.853 3 8.5.882 1.765 3 26.618 3 29.5ZM236 65l-4 1V32.5l5-9.5c1.634 0 4 2.634 4 4l-3 10.5-2 27.5Z"/><path fill="#1CA697" id="RSPagl5" d="m268 36 11 4c0-4.993 2-7.586 2-12v-1l-14-4 1 12v1Z"/><path fill="#019EAC" id="VISa4" d="M127 47h1c0-1.727 7.11-3.305 8.5-4 9.475-4.737 19.594-7.297 29-12 1.752-.876 9.5-1.293 9.5-4-8.139 0-33.722 6.61-40.5 10L123 42l2 5h1c0-1.186 1-1.186 1 0Z"/><path fill="#019EAB" id="VISa5" d="M140 51h2c0-1.492 7.916-4 9.5-4 6.362 0 17.898-7 25.5-7l-1-13h-1c0 2.707-7.748 3.124-9.5 4-9.406 4.703-19.525 7.263-29 12-1.39.695-8.5 2.273-8.5 4 1.94 0 3.108 2 3.5 2l1-2c.178 0 2.681 3 4 3 .425 0 3.5-1.123 3.5 1Z"/><path fill="#1BA498" id="RSPv5" d="M218 65h3c0-2.882-2.118-27.735-3-29.5-.823-1.647-3-6.902-3-8.5-3.104 0-4.577 9-8 9v1c0 6.967 6 18.49 6 23l5 5ZM236 65h3l4-4c0-4.835 6-15.318 6-24v-2l-7-8h-1l-3 10.5-2 27.5Z"/><path fill="#019EAC" id="VISa4" d="M329 46h2l3-4c-4.099 0-8.97-3.235-12.5-5-7.068-3.534-31.997-10-40.5-10v1l32.5 11c4.53 2.265 10.205 7 15.5 7Z"/><path fill="#019EAB" id="VISa5" d="m314 50 2 1 3.5-2c3.196 0 5.33-2 9.5-2v-1c-5.295 0-10.97-4.735-15.5-7L281 28c0 4.414-2 7.007-2 12 10.353 0 26.676 10 35 10Z"/><path fill="#188060" id="SSp-bfd1" d="M63 71h1c0-4.247 8.68-9.18 11.5-12 7.648-7.648 31.371-25 42.5-25v-1l-2-4c-10.126 0-35.754 18.254-43.5 26L61 67l2 4ZM395 67l-2 3-8.5-8-20-16c-6.735-3.368-13.239-7.62-20-11-1.319-.66-5.5.334-5.5-2l2-4c4.655 0 8.571 4.036 12.5 6 10.156 5.078 28.722 13.943 33.5 23.5 1.496 2.992 8 4.567 8 8.5Z"/><path fill="#1AA697" id="RSPd6a" d="M200 47h1c0-2.12 3.623-10 6-10v-1c0-8.775-14.895-1-18-1 0 4.107 1 8.469 1 12h1c0-2.749 9-2.749 9 0ZM266 47h1l1-11v-1c-4.303 0-10.393-5.553-15.5-3l-3.5 3v2c1.757 0 7 7.85 7 10h1c0-3.09 9-2.05 9 0Z"/><path fill="#187F63" id="SSp-bfd2/3" d="M386 79h1c0-3.753 6-3.91 6-8v-1l-8.5-8-20-16c-6.735-3.368-13.239-7.62-20-11-1.319-.66-5.5.334-5.5-2h-1c0 3.47-4 6.007-4 9 7.749 0 35.047 18.547 41.5 25L386 79ZM70 79h1c0-3.526 4.55-4.6 6-7.5 4.792-9.584 20.665-18.083 29.5-22.5l12-6c1.046-.523 3.5.952 3.5-1l-4-8c-11.129 0-34.852 17.352-42.5 25C72.68 61.82 64 66.753 64 71c0 1.414 5.252 8 6 8Z"/><path fill="#1CA597" id="RSPagl6a" d="m190 47-11 1-1-8c0-.507 9.906-5 11-5 0 4.107 1 8.469 1 12ZM267 47l10 1 2-8-11-4-1 11Z"/><path fill="#1AA498" id="RSPv6a" d="M209 57c0 1.712 2.571 3 4 3 0-4.51-6-16.033-6-23-2.377 0-6 7.88-6 10 0 4.282 8 6.288 8 10ZM247 57c0 1.365-2.366 4-4 4 0-4.835 6-15.318 6-24 1.757 0 7 7.85 7 10-1.712 0-3 2.571-3 4-1.747 0-2 .253-2 2l-2 2-2 2Z"/><path fill="#009DAC" id="VISa6a" d="M153 54h2c0-1.15 4.516-1.508 5.5-2 4.669-2.335 13.103-4 18.5-4l-1-8h-1c-7.602 0-19.138 7-25.5 7-1.584 0-9.5 2.508-9.5 4 .821 0 11 1.49 11 3ZM302 54h2c0-2.441 10-2.026 10-4-8.324 0-24.647-10-35-10l-2 8c5.397 0 13.831 1.665 18.5 4 1.134.567 6.5.546 6.5 2Z"/><path fill="#197C64" id="SSp-bfd4" d="M71 79c0 1.098 3.23 6 5 6l22.5-20c4.847-2.423 16.969-8.969 20.5-12.5l6-4.5v-1l-2-5h-1c0 1.952-2.454.477-3.5 1l-12 6C97.665 53.417 81.792 61.916 77 71.5c-1.45 2.9-6 3.974-6 7.5ZM380 85h1l5-6-10.5-12c-6.453-6.453-33.751-25-41.5-25l-3 4v3c6.659 0 29.179 20.34 36.5 24L380 85Z"/><path fill="#1BA698" id="RSPd6b" d="M200 47v1c-2.389 0-5.987-1-9-1 0-2.749 9-2.749 9 0ZM257 47h9c0-2.05-9-3.09-9 0Z"/><path fill="#1B7E62" id="SSp-tr4" d="M126 47h1c0-1.186-1-1.186-1 0ZM329 47l2 1v-2h-2v1ZM125 48h1v-1h-1v1Z"/><path fill="#197F60" id="SSp-tr5" d="m140 51-10 5-4-8v-1h2c1.94 0 3.108 2 3.5 2l1-2c.178 0 2.681 3 4 3 .425 0 3.5-1.123 3.5 1Z"/><path fill="#1AA598" id="RSPagl6b" d="M190 48c-3.249 0-7.194 1-11 1v-1l11-1v1Z"/><path fill="#1BA698" id="RSPd6b" d="m191 47-1 1v-1h1Z"/><path fill="#CACCC7" id="cing" d="m213 60 5 5c-9.427 0-17.61-8.055-25.5-12-6.248-3.124-24.625 2-31.5 2l-2-1c6.35 0 13.512-5 20-5 3.806 0 7.751-1 11-1l1-1c3.013 0 6.611 1 9 1l9 9c0 1.712 2.571 3 4 3Z"/><path fill="#1AA497" id="RSPv6b" d="m200 48 9 9c0-3.712-8-5.718-8-10h-1v1ZM257 47l-4 4c0-1.429 1.288-4 3-4h1Z"/><path fill="#CACCC7" id="cing" d="m243 61-4 4c8.722 0 17.118-8.309 24.5-12 6.248-3.124 24.625 2 31.5 2l2-1c0-2.144-4.262-.38-5.5-1-3.729-1.864-10.251-4-14.5-4-2.203 0-11 .896-11-2h-9l-4 4c0 1.747-.253 2-2 2 0 1.747-.253 2-2 2 0 1.747-.253 2-2 2 0 1.365-2.366 4-4 4Z"/><path fill="#1AA598" id="RSPagl6b" d="M277 48v1c-2.203 0-11 .896-11-2h1l10 1Z"/><path fill="#197F60" id="SSp-tr5" d="M326 56h1c0-1.856 1.782-7 4-7v-1l-2-1c-4.17 0-6.304 2-9.5 2l-3.5 2 10 5Z"/><path fill="#1A7D62" id="SSp-bfd5" d="M82 94h1c0-4.331 8.117-7.735 10-11.5 3.152-6.305 21.933-18.216 28.5-21.5 2.338-1.169 5.905-5 8.5-5l-4-8h-1l-6 4.5c-3.531 3.531-15.653 10.077-20.5 12.5L76 85v1c1.803 0 6 6.495 6 8Z"/><path fill="#029FAC" id="VISa6b" d="m159 54-3 1-1-1c0-1.15 4.516-1.508 5.5-2 4.669-2.335 13.103-4 18.5-4v1c-6.488 0-13.65 5-20 5ZM302 54v1l-5-1c0-2.144-4.262-.38-5.5-1-3.729-1.864-10.251-4-14.5-4v-1c5.397 0 13.831 1.665 18.5 4 1.134.567 6.5.546 6.5 2Z"/><path fill="#1A7D62" id="SSp-bfd5" d="M373 94h1l6-9-12.5-12c-7.321-3.66-29.841-24-36.5-24-2.218 0-4 5.144-4 7 0 1.9 10.68 6.09 12.5 7 6.974 3.487 24.785 18.07 27.5 23.5 1.45 2.9 6 3.974 6 7.5Z"/><path fill="#188063" id="SSp-tr6a" d="m326 56-3 7-19-9c0-2.441 10-2.026 10-4l2 1 10 5ZM133 63h1l19-9c0-1.51-10.179-3-11-3h-2l-10 5 3 7Z"/><path fill="#1AA497" id="RSPv6b" d="M253 51c-1.747 0-2 .253-2 2 1.747 0 2-.253 2-2Z"/><path fill="#C7CACC" id="ccs" d="M358 115h1c0-7.892-4.733-22.116-12.5-26l-5.5-4.5-4.5-5.5-16-11-4.5-4-15.5-7c-1.319-.66-5.5.334-5.5-2-6.875 0-25.252-5.124-31.5-2-7.382 3.691-15.778 12-24.5 12h-3l-4 1h-7l-4-1h-3c-9.427 0-17.61-8.055-25.5-12-6.248-3.124-24.625 2-31.5 2 0 2.334-4.181 1.34-5.5 2-3.978 1.989-9.922 6-14.5 6 0 1.278-16.405 12.953-18.5 14-10.484 5.242-25.5 27.343-25.5 38h2c0-3.045 5.861-16 10-16l4-5c0-1.238.423-3 2-3 0-1.429 1.288-4 3-4 0-2.04.959-3 3-3l1-1c0-2.565 6.455-8 9-8 0-3.055 8.441-6.97 10.5-8 12.246-6.123 22.544-10 37.5-10 3.922 0 17 3.011 17 8h2c5.778 0 23.701 16.9 33.5 12 5.351-2.676 11.561-3.28 17-6 1.32-.66 9.5-7.16 9.5-5h1l1-1 1-1 1-1h1c0-1.747.253-2 2-2l2-1 2-1c0-1.827 3.968-2 5.5-2 5.594 0 14.27-1.365 19 1l15 5c8.558 4.279 25.9 15.3 30.5 24.5 1.947 3.894 8 7.77 8 11.5 3.492 0 11 12.064 11 16Z"/><path fill="#1AA497" id="RSPv6b" d="m251 53-2 2c1.747 0 2-.253 2-2Z"/><path fill="#1A8063" id="SSp-tr6b" d="M134 63v2l6-3c0-.87 13.761-7 16-7l-1-1h-2l-19 9Z"/><path fill="#C9C9CA" id="scwm" d="m140 62 1 1c4.578 0 10.522-4.011 14.5-6 1.319-.66 5.5.334 5.5-2l-2-1-3 1c-2.239 0-16 6.13-16 7ZM316 62v2l-15.5-7c-1.319-.66-5.5.334-5.5-2l2-1 5 1c1.982 0 14 5.053 14 7Z"/><path fill="#1A8063" id="SSp-tr6b" d="M322 64h1v-1l-19-9h-2v1c1.982 0 14 5.053 14 7l6 2Z"/><path fill="#1AA497" id="RSPv6b" d="m249 55-2 2c1.747 0 2-.253 2-2Z"/><path fill="#198060" id="SSp-bfd6a" d="M90 104h1c0-1.247 2.467-5 4-5 0-3.168 22.678-26 26-26 0-1.46 6.472-6 8-6l4-4-3-7c-2.595 0-6.162 3.831-8.5 5-6.567 3.284-25.348 15.195-28.5 21.5-1.883 3.765-10 7.169-10 11.5 0 3.556 7 6.104 7 10ZM365 103h1c1.183 0 7-7.453 7-9 0-3.526-4.55-4.6-6-7.5-2.715-5.43-20.526-20.013-27.5-23.5-1.82-.91-12.5-5.1-12.5-7h-1l-3 7v1c4.153 0 6.965 5.233 10.5 7 6.978 3.49 18.878 14.256 22.5 21.5 1.723 3.447 9 6.528 9 10.5Z"/><path fill="#C7C8CC" id="alv" d="m196 65-9.5-6c-4.249-2.125-17.746-2.127-22 0-6.67 3.335-14.293 4.647-21 8-3.828 1.914-8.076 8-12.5 8 0-3.055 8.441-6.97 10.5-8 12.246-6.123 22.544-10 37.5-10 3.922 0 17 3.011 17 8ZM323 115c3.519 0 5.843 2 9 2h9.5l5.5-5V99c0-3.73-6.053-7.606-8-11.5-4.6-9.2-21.942-20.221-30.5-24.5l-15-5c-4.73-2.365-13.406-1-19-1-1.532 0-5.5.173-5.5 2 22.588 0 27.393-.054 47.5 10l7 6c2.629 1.315 14.5 9.492 14.5 13l3 4c0 3.503 8.092 10.316 5 16.5-6.808 13.616-29.572 2.5-42 2.5v1h5c4.488 0 9.904 3 14 3Z"/><path fill="#7ECF4B" id="CA1" d="M214 100h1l1-1 2-2c0-4.049 3-7.132 3-12l-4-4h-1l-1-1-1-1c-1.247 0-5-2.467-5-4h-1c-3.237 0-11-7.828-11-10h-1l-9.5-6c-4.249-2.125-17.746-2.127-22 0-6.67 3.335-14.293 4.647-21 8-3.828 1.914-8.076 8-12.5 8 0 1.837-6.658 8-9 8l-1 1-3 3v1c7.052 0 15.771 1 23.5 1 .829 0 6.5 1.241 6.5 2 3.079 0 19.56-13.97 27.5-10 5.359 2.68 35.224 19 38.5 19ZM239 98l3 2c3.733 0 32.86-16.18 38.5-19 9.861-4.93 19.517 9 27.5 9 9.384 0 20.71-2 30-2 0-3.508-11.871-11.685-14.5-13l-7-6c-20.107-10.054-24.912-10-47.5-10l-2 1-2 1-2 2h-1l-1 1-1 1-1 1-1 1-1 1c0 1.712-2.571 3-4 3l-1 1-1 1c0 1.577-1.762 2-3 2l-1 1-1 1h-1l-1 1-1 1h-1l-1 1-1 1h-1l-1 1-1 1-2 2c0 5.014 4 7.902 4 12v1Z"/><path fill="#C7C8CC" id="alv" d="m269 59-2 1 2-1ZM267 60l-2 1 2-1ZM265 61c-1.747 0-2 .253-2 2l2-2Z"/><path fill="#CBC9C7" id="or" d="m85 123 1 4 11-12c0-10.657 15.016-32.758 25.5-38 2.095-1.047 18.5-12.722 18.5-14l-1-1-6 3c-1.624 0-2.75 2-5 2 0 2.604-5.93 6-8 6 0 2.822-4.612 4.112-6.5 6-3.557 3.557-17.349 20-19.5 20 0 1.664-1.823 6-4 6l-2 5-1 1-1 2-2 10ZM371 123c0 1.145.579 4-1 4l-11-12c0-7.892-4.733-22.116-12.5-26l-5.5-4.5-4.5-5.5-16-11-4.5-4v-2l6 2c0 2.14 19.517 12.533 21 15.5l22 24.5 3 7c0 3.854 3 7.403 3 12Z"/><path fill="#1A7E61" id="SSp-bfd6b" d="M134 65c-1.624 0-2.75 2-5 2l4-4h1v2Z"/><path fill="#C7C8CC" id="alv" d="m262 63-1 1 1-1ZM261 64l-1 1 1-1Z"/><path fill="#1A7E61" id="SSp-bfd6b" d="M365 103v1l-22-24.5c-1.483-2.967-21-13.36-21-15.5h1c4.153 0 6.965 5.233 10.5 7 6.978 3.49 18.878 14.256 22.5 21.5 1.723 3.447 9 6.528 9 10.5Z"/><path fill="#C7C8CC" id="alv" d="m198 65 10 10c-3.237 0-11-7.828-11-10h1Z"/><path fill="#C9CCC9" id="dhc" d="M229 84h6l2-1 1-1 1-1h1l1-1 1-1h1l1-1 1-1h1l1-1 1-1c0-1.577 1.762-2 3-2l1-1 1-1c0-1.712 2.571-3 4-3l1-1v-1c0-2.16-8.18 4.34-9.5 5-5.439 2.72-11.649 3.324-17 6-9.799 4.9-27.722-12-33.5-12l10 10h1l5 4 1 1 1 1h1l5 3h5c.839 0 2-1.93 2 0Z"/><path fill="#C7C8CC" id="alv" d="m260 65-1 1 1-1ZM259 66l-1 1v-1h1Z"/><path fill="#1A7E62" id="SSs1" d="m42 91 4 4 7-11.5L63 71l-2-4c-1.67 0-19 22.55-19 24Z"/><path fill="#1A7E61" id="SSp-bfd6b" d="M129 67c-1.528 0-8 4.54-8 6 2.07 0 8-3.396 8-6Z"/><path fill="#C7C8CC" id="alv" d="m258 67-1 1 1-1Z"/><path fill="#1A7E62" id="SSs1" d="M410 96h1l3-5c0-3.224-17.08-24-19-24l-2 3v1c1.452 0 17 22.61 17 25Z"/><path fill="#C7C8CC" id="alv" d="M257 68c-1.429 0-4 1.288-4 3 1.429 0 4-1.288 4-3Z"/><path fill="#1B8063" id="SSs2/3" d="M54 105h1c0-8.424 15-19.284 15-26-.748 0-6-6.586-6-8h-1L53 83.5 46 95v2l8 6.5h-2l2 1.5Z"/><path fill="#C7C8CC" id="alv" d="m253 71-1 1 1-1Z"/><path fill="#1B8063" id="SSs2/3" d="M410 96c0 3.925-6 5.667-6 8.5l-2 .5c0-7.344-15-19.182-15-26 0-3.753 6-3.91 6-8 1.452 0 17 22.61 17 25Z"/><path fill="#C7C8CC" id="alv" d="m252 72-1 1 1-1Z"/><path fill="#1A7E61" id="SSp-bfd6b" d="M121 73c-3.322 0-26 22.832-26 26 2.151 0 15.943-16.443 19.5-20 1.888-1.888 6.5-3.178 6.5-6Z"/><path fill="#C7C8CC" id="alv" d="M251 73c-1.238 0-3 .423-3 2 1.238 0 3-.423 3-2ZM131 75c-2.545 0-9 5.435-9 8 2.342 0 9-6.163 9-8ZM209 75l5 4c-1.247 0-5-2.467-5-4ZM248 75l-1 1 1-1ZM247 76l-1 1 1-1ZM245 77l-1 1 1-1ZM244 78l-1 1 1-1Z"/><path fill="#187C63" id="SSs4" d="m55 105 2 4c0-2.183 3.405-3.31 4-4.5C62.588 101.324 72.926 86 76 86v-1c-1.77 0-5-4.902-5-6h-1c0 6.716-15 17.576-15 26Z"/><path fill="#C7C8CC" id="alv" d="m242 79-1 1 1-1Z"/><path fill="#187C63" id="SSs4" d="M399 109h1l2-3v-1c0-7.344-15-19.182-15-26h-1l-5 6c0 4.223 18 18.648 18 24Z"/><path fill="#C7C8CC" id="alv" d="m215 80 1 1-1-1ZM241 80l-1 1 1-1Z"/><path fill="#7BD04A" id="DG-mo" d="M195 117h8l6-2 1-1 3-3c0-2.962 2-5.441 2-10l-1-1c-3.276 0-33.141-16.32-38.5-19-7.94-3.97-24.421 10-27.5 10l-1 2c0 3.981 4.403 6 8 6 0-4.138 7.697-4.598 10.5-6 11.946-5.973 22.063 3.031 32 8 3.388 1.694 8.698-.651 12 1 5.229 2.614-3.077 8.038-5 9-4.402 2.201-14.648-1.324-18-3-7.9-3.95-12.201-1-20.5-1l-3 2 1 2c5.377 0 10.211 2 16 2l1 1h3l1 1h4l1 1h1l2 1h2Z"/><path fill="#C7C8CC" id="alv" d="m222 84-1 1-4-4 5 3ZM239 81l-1 1 1-1Z"/><path fill="#7BD04A" id="DG-mo" d="M261 117h2l2-1 6-1 2-1h2l2-1 16-2v-2l-2-2c-7.052 0-11.086-3.207-17.5 0-3.989 1.994-16.86 6.57-22 4-2.078-1.039-7.04-4.419-5.5-7.5 1.512-3.024 9.836-1.168 12.5-2.5 10.101-5.05 20.848-14.076 33-8 2.702 1.35 9.5 1.958 9.5 6 2.76 0 9-1.605 9-5l-2-4c-7.983 0-17.639-13.93-27.5-9-5.64 2.82-34.767 19-38.5 19l-1 1c0 3.942 2 6.745 2 10h1l1 1 1 1 2 2h1l1 1h1l1 1h9Z"/><path fill="#C7C8CC" id="alv" d="m238 82-1 1 1-1ZM122 83l-1 1 1-1ZM235 84v1l2-2-2 1ZM121 84c-2.041 0-3 .96-3 3l3-3Z"/><path fill="#7ECD4A" id="FC" d="m221 96-3 1c0-4.049 3-7.132 3-12l1-1h5v5l-1 1-1 1v1l-1 1-2 2-1 1ZM235 85c0 5.014 4 7.902 4 12-5.291 0-10-8.358-10-13h6v1Z"/><path fill="#1C8063" id="SSs5" d="M390 123h1c0-4.964 8-10.522 8-14 0-5.352-18-19.777-18-24h-1l-6 9c0 4.618 16 20.223 16 29ZM57 109c1.874 0 6.94 8.381 8 10.5.523 1.046-.951 3.5 1 3.5 0-8.026 16-23.804 16-29 0-1.505-4.197-8-6-8-3.074 0-13.412 15.324-15 18.5-.595 1.19-4 2.317-4 4.5Z"/><path fill="#C7C8CC" id="alv" d="m118 88-3 3c0-1.429 1.288-4 3-4v1Z"/><path fill="#7DCF4B" id="CA2" d="M115 92c10.935 0 21.536 1 32 1l1-2c0-.759-5.671-2-6.5-2-7.729 0-16.448-1-23.5-1l-3 3v1ZM341 92c-6.781 0-17.714-1.893-23.5 1-1.406.703-7.5-1.26-7.5 1l-2-4c9.384 0 20.71-2 30-2l3 4Z"/><path fill="#A8A9AA" id="V3" d="M222 96c4.732 0 2.723 3.611 5.5 5 2.382 1.191 2.923-4.461 4-5 2.116-1.058 2.898 2 4.5 2 0-2.025-7.193-9-9-9l-1 1-1 1v1l-1 1c0 1.747-.253 2-2 2v1Z"/><path fill="#039399" id="AUDd1" d="M31 115c1.087 0 2.433 2 5 2l10-20v-2l-4-4c0 4.293-11 16.948-11 24Z"/><path fill="#C7C8CC" id="alv" d="m115 92-2 2c0-1.238.423-3 2-3v1Z"/><path fill="#65A83D" id="DG-sg" d="M174 102c-1.908 0-8 2.239-8 5 8.299 0 12.6-2.95 20.5 1 3.352 1.676 13.598 5.201 18 3 1.923-.962 10.229-6.386 5-9-3.302-1.651-8.612.694-12-1-9.937-4.969-20.054-13.973-32-8-2.803 1.402-10.5 1.862-10.5 6h4c0-1.946 7.983-2.242 9.5-3 5.181-2.59 28.514 5.528 30.5 9.5 1.593 3.187-11.373-.937-12.5-1.5-3.699-1.849-8.022-2-12.5-2ZM283 102c0 1.548 8 1.808 8 5-7.052 0-11.086-3.207-17.5 0-3.989 1.994-16.86 6.57-22 4-2.078-1.039-7.04-4.419-5.5-7.5 1.512-3.024 9.836-1.168 12.5-2.5 10.101-5.05 20.848-14.076 33-8 2.702 1.35 9.5 1.958 9.5 6h-4c0-1.758-7.103-2.301-8.5-3-5.406-2.703-29.497 5.495-31.5 9.5-.844 1.687 2.604 1.948 3.5 1.5 3.1-1.55 7-1.5 10-3 3.699-1.849 8.022-2 12.5-2Z"/><path fill="#039399" id="AUDd1" d="M420 117h1c2.177 0 4 .641 4-2 0-3.49-9.61-24-11-24l-3 5c0 7.392 9 13.449 9 21Z"/><path fill="#7ECF49" id="CA3" d="M137 113h1c0-1.778 12.312-2 15-2h2c0-1.643 3.765-1 5-1h2l1-1 3-2c0-2.761 6.092-5 8-5 0-4.845-11.318-3-15-3h-4c-3.597 0-8-2.019-8-6-10.464 0-21.065-1-32-1l-2 2c0 2.737-1.789 7.078-3 9.5l1 5c0 11.926 20.454 4.5 26 4.5ZM302 111h2c12.428 0 35.192 11.116 42-2.5 3.092-6.184-5-12.997-5-16.5-6.781 0-17.714-1.893-23.5 1-1.406.703-7.5-1.26-7.5 1 0 3.395-6.24 5-9 5h-4c-3.611 0-14-1.822-14 3 0 1.548 8 1.808 8 5l2 2 1 1h2c1.321 0 6-.684 6 1Z"/><path fill="#197D63" id="SSs6a" d="m59 151 9 3c0-10.37 7.531-23.562 12-32.5.827-1.655 2.559-8.5 5-8.5 0-3.39 5-5.621 5-9 0-3.896-7-6.444-7-10h-1c0 5.196-16 20.974-16 29v1l-1 2v2c0 3.865.107 4-2 4v1l-1 2-1 1v4l-1 1-2 10h1Z"/><path fill="#C7C8CC" id="alv" d="m133 115-8 2c-3.819 0-8.312.594-11.5-1l-4.5-5V99l4-5c0 2.737-1.789 7.078-3 9.5l1 5c0 11.926 20.454 4.5 26 4.5l-4 2Z"/><path fill="#197D63" id="SSs6a" d="m398 151-10 3c0-12.621-8.611-27.722-14-38.5-2.041-4.083-8-7.66-8-12.5 1.183 0 7-7.453 7-9h1c0 4.618 16 20.223 16 29l1 2v3c0 1.732 2.005 8 4 8 0 1.048-.473 3 1 3l2 12Z"/><path fill="#7ECE4A" id="DG-po" d="M159 99c3.682 0 15-1.845 15 3 4.478 0 8.801.151 12.5 2 1.127.563 14.093 4.687 12.5 1.5-1.986-3.972-25.319-12.09-30.5-9.5-1.517.758-9.5 1.054-9.5 3ZM297 99c-3.611 0-14-1.822-14 3-4.478 0-8.801.151-12.5 2-3 1.5-6.9 1.45-10 3-.896.448-4.344.187-3.5-1.5 2.003-4.005 26.094-12.203 31.5-9.5 1.397.699 8.5 1.242 8.5 3Z"/><path fill="#A8A9AA" id="V3" d="m222 96-1 1v-1h1Z"/><path fill="#A9AAA8" id="chpl" d="M225 113h6l1-2 1-1 1-2 1-1 1-8v-1c-1.602 0-2.384-3.058-4.5-2-1.077.539-1.618 6.191-4 5-2.777-1.389-.768-5-5.5-5l-1 1v1l-1 1v6l1 1v1l2 2v1l2 2v1Z"/><path fill="#029397" id="AUDd2/3" d="M420 117c0 1.289-7.597 4-9 4l-2-2.5c-1.003-2.005-4.425-12.5-7-12.5v-1l2-.5c0-2.833 6-4.575 6-8.5h1c0 7.392 9 13.449 9 21ZM45 121h1l8-16-2-1.5h2L46 97l-10 20v1c3.078 0 6.325 3 9 3Z"/><path fill="#A8A9AA" id="V3" d="m221 98-1 1 1-1Z"/><path fill="#7DCD4B" id="HPF" d="m242 100-1 1-2-3 3 2Z"/><path fill="#1A7E61" id="SSp-bfd6b" d="M91 104v1c2.177 0 4-4.336 4-6-1.533 0-4 3.753-4 5Z"/><path fill="#A8AAAA" id="VL" d="M105 131h2c0-1.954-3.417-15 1-15l1-5V99c-4.139 0-10 12.955-10 16 7.802 0 4 8.118 4 13l2 3Z"/><path fill="#7DCD4B" id="HPF" d="m216 99-1 1 1-1Z"/><path fill="#A8A9AA" id="V3" d="M237 104c0 1.238-.423 3-2 3l1-8c1.643 0 1 3.765 1 5Z"/><path fill="#A8AAAA" id="VL" d="M349 131h2l2-4c0-4.863-2.62-12 5-12 0-3.936-7.508-16-11-16v13c1.579 0 1 2.855 1 4 6.709 0 1 12.177 1 15Z"/><path fill="#7DCD4B" id="HPF" d="M215 100v1l-1-1h1Z"/><path fill="#FF8D9F" id="MH" d="M223 131h2l2-5.5c2.095-4.19-2-9.112-2-12.5v-1l-2-2v-1l-2-2v-1l-1-1-2.5-2c-1.885.943 1.122 8-1.5 8 0 2.748-3 5.804-3 8l8 10 1 1 1 1ZM234 130v1l-3-1v-17l1-2 1-1 1-2 1-1c1.577 0 2-1.762 2-3 4.942 0-.408 6 3 6 0 3.283 3 6.01 3 9 0 4.336-8 7.081-8 10l-1 1Z"/><path fill="#1A8061" id="SSs6b" d="M387 154h1c0-12.621-8.611-27.722-14-38.5-2.041-4.083-8-7.66-8-12.5h-1v1l3 7c2.395 0 13 22.028 13 25v1l1 1c0 4.972 5 10.671 5 16ZM85 113h2l1-2 1-1 2-5v-1h-1c0 3.379-5 5.61-5 9Z"/><path fill="#039398" id="AUDd4" d="M50 123h1c0-4.922 6-9.462 6-14l-2-4h-1l-8 16 4 2Z"/><path fill="#A8A9AA" id="V3" d="m220 105 1 1-1-1Z"/><path fill="#039398" id="AUDd4" d="m411 121-5 1c-1.212 0-6-11.256-6-13l2-3c2.575 0 5.997 10.495 7 12.5l2 2.5Z"/><path fill="#A8A9AA" id="V3" d="m221 107 2 2-2-2ZM235 107l-1 1 1-1Z"/><path fill="#029398" id="AUDd5" d="m65 127-1 1-13-5c0-4.922 6-9.462 6-14 1.874 0 6.94 8.381 8 10.5.523 1.046-.951 3.5 1 3.5v1l-1 2v1Z"/><path fill="#7DCD4B" id="HPF" d="M163 111h1l-1-2-1 1 1 1Z"/><path fill="#C8CCC7" id="hbc" d="m212 117 1 2c0-2.196 3-5.252 3-8 0-3.219-2-1.082-2 1l-2 5ZM245 117l-2 2c0-2.99-3-5.717-3-9 0-2.276 2.078 1 3 1 0 1.623.005 6 2 6Z"/><path fill="#7DCD4B" id="HPF" d="M293 111h1v-1l-1-1v2Z"/><path fill="#029398" id="AUDd5" d="m391 126 1 2 14-5v-1c-1.212 0-6-11.256-6-13h-1c0 3.478-8 9.036-8 14v3Z"/><path fill="#C9C9CA" id="scwm" d="m89 110-1 1 1-1Z"/><path fill="#C7C8CC" id="alv" d="M157 111h3v-1c-1.235 0-5-.643-5 1h2Z"/><path fill="#A8A9AA" id="V3" d="m223 110 2 2-2-2ZM233 110l-1 1 1-1Z"/><path fill="#C7C8CC" id="alv" d="M300 111h2c0-1.684-4.679-1-6-1v1h4Z"/><path fill="#C9C9CA" id="scwm" d="m88 111-1 2 1-2Z"/><path fill="#CBC8CB" id="fi" d="M120 141h1c0-1.946 3-5.623 3-8v-2l1-14c-3.819 0-8.312.594-11.5-1l-4.5-5-1 5c0 4.594 1 10.741 1 16 0 9.122 2.517 10 10 10l1-1Z"/><path fill="#C7C8CC" id="alv" d="M151 112h2v-1c-2.688 0-15 .222-15 2l10-1h3Z"/><path fill="#FE909D" id="LP" d="m181 139 7 2 11-21-4-3h-2l-2-1h-1l-1-1h-4l-1-1h-3l-1-1c-5.789 0-10.623-2-16-2h-7c0 1.579-2.855 1-4 1h-2l-1 1-1 9.5-3 2.5c0 1.145.579 4-1 4l1 8h1c1.808 0 33-12.075 33 0l1 1v1Z"/><path fill="#FF8D9F" id="MH" d="M210 115c0 1.747.253 2 2 2l2-5-1-1-3 3v1Z"/><path fill="#A8A9AA" id="V3" d="m232 111-1 2 1-2Z"/><path fill="#FF8D9F" id="MH" d="m247 115-2 2c-1.995 0-2-4.377-2-6h1l1 1 1 1 1 2Z"/><path fill="#FE909D" id="LP" d="m275 139-7 2c0-4.27-11-19.123-11-21l4-3h2l2-1 6-1 2-1h2l2-1 16-2h7c0 1.579 2.855 1 4 1h2l1 1c0 3.142-1.126 12 4 12v11l-2 1c-3.375 0-33-12.878-33 1l-1 1Z"/><path fill="#C9C9CA" id="scwm" d="m378 135 3 1c0-2.972-10.605-25-13-25 0 3.854 3 7.403 3 12 2.511 0 7 10.036 7 12Z"/><path fill="#FE7F84" id="LGd-co" d="M135 129h2l2-1 4-1c0-1.577 1.762-2 3-2l3-2.5 1-9.5-2-1-10 1h-1l-4 2c0 1.253-5 5.746-5 12l7 2ZM328 127c-2.447 0-3.28 2-6 2-2.483 0-4.026-2-6-2h-2l-3-2c-5.126 0-4-8.858-4-12l2-1c4.488 0 9.904 3 14 3l6 7.5-1 4.5Z"/><path fill="#CBC8CB" id="fi" d="M347 133c0 14.292-4.883 8-12 8l-2-2.5c-2.121-4.241-1-17.192-1-21.5h9.5l5.5-5c1.579 0 1 2.855 1 4l-1 15v2Z"/><path fill="#1A8061" id="SSs6b" d="m68 154 1 1c2.064 0 .426-3.353 1-4.5l4-11.5 1-1v-1c0-8.51 10-15.604 10-24-2.441 0-4.173 6.845-5 8.5-4.469 8.938-12 22.13-12 32.5Z"/><path fill="#C9C9CA" id="scwm" d="m78 135-3 2c0-8.51 10-15.604 10-24h2l-2 10c-3.912 0-4.063 12-7 12Z"/><path fill="#A8A9AA" id="V3" d="M231 130c0 3.921-4.251 1-6 1l2-5.5c2.095-4.19-2-9.112-2-12.5h6v17Z"/><path fill="#019099" id="AUDv1" d="M24 149h6c0-7.953-.309-16.882 3-23.5.69-1.382 1.1-7.5 3-7.5v-1c-2.567 0-3.913-2-5-2l-4 11.5c-2.179 4.357-3 17.053-3 22.5Z"/><path fill="#98D5F9" id="CP" d="M103 195c-1.598 0-6.853 2.177-8.5 3-2.568 1.284-6.486-1-8.5-1-3.05 0-12-11.448-12-14l-1-1v-24l1-2 1-3v-3l1-1v-2c1.732 0 3-5.353 3-7l1-1 6-12 11-12h2c7.802 0 4 8.118 4 13l-3 1c-7.042 0-5 21.852-5 26l3 14 1 1v3c-2.375 0-.161 7 1 7l3 3.5 1 10.5-1 1Z"/><path fill="#FF8F9D" id="LH" d="m201 136 4 3c4.803 0 15.685-7 16-7v-3l-8-10-1-2c-1.747 0-2-.253-2-2h-1l-6 2c0 1.539-1.342 3-3 3l-2 6.5 3 9.5ZM255 136c-2.349 0-1.382 3-4 3-3.882 0-16-4.282-16-9v-1c0-2.919 8-5.664 8-10l2-2 2-2h2l1 1h1l1 1h1l2 2c0 2.72 4.855 5.79 3 9.5l-3 7.5Z"/><path fill="#98D5F9" id="CP" d="M353 194c0 4.916 15.373 3 18 3l3.5-3 8.5-11c0-1.235-.643-5 1-5 0-7.627-2-15.384-2-22v-2c-1.473 0-1-1.952-1-3l-4-11v-1c-1.465 0-7-10.367-7-12l-11-12h-1c-7.62 0-5 7.137-5 12l3 2c3.15 0 8.497 17.506 7 20.5l-2 5.5-2 12-1 1v4c0 1.406.714 7-1 7 0 2.469-2.787 3.074-4 5.5-1.383 2.766 0 7.283 0 9.5Z"/><path fill="#019099" id="AUDv1" d="M427 149h5c0-8.292-.542-17.584-4-24.5-.848-1.695-.339-9.5-3-9.5 0 2.641-1.823 2-4 2 0 2.912 1.8 5.099 3 7.5 2.523 5.047 3 18.177 3 24.5Z"/><path fill="#A9AAA8" id="chpl" d="m107 131 2 1c0-5.259-1-11.406-1-16-4.417 0-1 13.046-1 15ZM349 131l-1 1-1-1 1-15c6.709 0 1 12.177 1 15Z"/><path fill="#029198" id="AUDv2/3" d="M418 149h9c0-6.323-.477-19.453-3-24.5-1.2-2.401-3-4.588-3-7.5h-1c0 1.289-7.597 4-9 4 0 5.559 7 17.753 7 28ZM30 149h8c0-9.94 7-20.368 7-28-2.675 0-5.922-3-9-3-1.9 0-2.31 6.118-3 7.5-3.309 6.618-3 15.547-3 23.5Z"/><path fill="#FD8F9D" id="CL" d="m265 167-6 1 2-4.5c2.442-4.883-.716-27.5-6-27.5l3-7.5c1.855-3.71-3-6.78-3-9.5l2 1c0 1.877 11 16.73 11 21l1 13c0 4.279-3 8.452-3 12l-1 1ZM190 165c2.232 0 4.029 3 7 3 0-3.922-5.929-32 4-32l-3-9.5 2-6.5h-1l-11 21v15c0 1.759.326 9 2 9Z"/><path fill="#029197" id="AUDv4" d="M43 149h1c0-9.466 6-17.363 6-26l-4-2h-1c0 7.632-7 18.06-7 28h5ZM413 149h5c0-10.247-7-22.441-7-28l-5 1v1c0 7.39 7 17.461 7 26Z"/><path fill="#019098" id="AUDv5" d="m44 149 12 1-2-2.5h3c.923-1.845-.619-6.5 3-6.5v-1c-2.026 0 .104-2 1-2v-1c-1.186 0-1.186-1 0-1l1-1 1-2v-1l1-4-13-5h-1c0 8.637-6 16.534-6 26Z"/><path fill="#C7CACC" id="ccs" d="m78 135 2 4 6-12-1-4c-3.912 0-4.063 12-7 12ZM378 135l-1 4c-1.465 0-7-10.367-7-12 1.579 0 1-2.855 1-4 2.511 0 7 10.036 7 12Z"/><path fill="#019399" id="AUDd6a" d="M391 123v2l-1-2h1Z"/><path fill="#019098" id="AUDv5" d="m413 149-13 1c0-1.292-2.025-11-4-11-1.473 0-1-1.952-1-3l-3-8 14-5c0 7.39 7 17.461 7 26Z"/><path fill="#019399" id="AUDd6a" d="m66 124-1 2 1-2Z"/><path fill="#FF6F80" id="TH" d="M143 127c1.747 0 2 .253 2 2 1.579 0 1-2.855 1-4-1.238 0-3 .423-3 2ZM314 127l-3 1v-3l3 2Z"/><path fill="#019399" id="AUDd6a" d="M391 128h1l-1-2v2ZM64 128h1v-1l-1 1Z"/><path fill="#FF8E9F" id="LGv" d="M126 139h1l1-1 1-1 6-6v-2l-7-2-1 2c0 1.552-.566 8-2 8l1 2Z"/><path fill="#CBC9C7" id="or" d="m135 147-2 2c0-6.788 10.539-12-4-12l6-6 2-2 2-1 4-1c1.747 0 2 .253 2 2l1 8-1 2c-1.39 0-9 5.408-9 7l-1 1ZM322 148l3 3c0-2.623-3.769-8.039-5-10.5-.757-1.513 2.987-5.257 4.5-4.5l4.5 3-6-7c-1.014 0-7-3.903-7-5h-2l-3 1v11c2.327 0 11 6.168 11 9Z"/><path fill="#FF6F80" id="TH" d="m322 129 1 3c-1.014 0-7-3.903-7-5 1.974 0 3.517 2 6 2Z"/><path fill="#FF8E9F" id="LGv" d="M329 139h2v-4l-2-6-1-2c-2.447 0-3.28 2-6 2l1 3 6 7Z"/><path fill="#97D6F9" id="STR" d="m354 136-1 1c-4.723 0-2-3.614-2-6l2-4 3 2-2 7Z"/><path fill="#019397" id="AUDv6a" d="M65 128c0 3.865.107 4-2 4l1-4h1Z"/><path fill="#97D6F9" id="STR" d="M103 136v1c5.196 0 2-3.139 2-6l-2-3-3 1 2 6 1 1Z"/><path fill="#FF6F80" id="TH" d="m139 128-2 1 2-1Z"/><path fill="#019397" id="AUDv6a" d="m392 128 3 8c-1.995 0-4-6.268-4-8h1Z"/><path fill="#CBC9C7" id="or" d="m95 155 8.5 4c5.691 2.846 10.941-4 15.5-4l3-6h-2l-1 1c0 1.858-10 1.899-10-2-3.166 0-6-8.601-6-11v-1l-1-1-2-6c-7.042 0-5 21.852-5 26Z"/><path fill="#CAC7CB" id="fiber tracts" d="M124 133c1.579 0 1 2.855 1 4 1.434 0 2-6.448 2-8-2.215 0-1.519 2-3 2v2Z"/><path fill="#FF6F80" id="TH" d="m137 129-2 2v-2h2ZM221 130h1l-1-1v1ZM234 130h1v-1l-1 1Z"/><path fill="#CAC7CB" id="fiber tracts" d="M329 129c3.325 0 4.103 6 2 6l-2-6Z"/><path fill="#CBC9C7" id="or" d="M337 155c4.559 0 9.809 6.846 15.5 4l8.5-4 2-5.5c1.497-2.994-3.85-20.5-7-20.5l-2 7-1 1c0 2.731-2.646 12-6 12 0 2.656-6.992 2-9 2l-5-4 4 8Z"/><path fill="#C7CAC9" id="fr" d="m223 131-2 1v-2h1l1 1Z"/><path fill="#FE8F9E" id="PVT" d="M222 149c2.47 0 4.552 2 6.5 2 1.595 0 3.255-2 5.5-2 1.587 0 10-4.273 10-6 0-3.343-10-6.984-10-12l-3-1c0 3.921-4.251 1-6 1h-2l-2 1c0 3.551-4.974 11-9 11 0 1.673 8.485 6 10 6Z"/><path fill="#C7CAC9" id="fr" d="M251 139c0 4.727-1.622 4-7 4 0-3.343-10-6.984-10-12v-1h1c0 4.718 12.118 9 16 9Z"/><path fill="#CAC7CB" id="fiber tracts" d="M120 149h2l1-1 2-6 1-1v-2l-5 2h-1l-1 1c-7.483 0-10-.878-10-10l-2-1h-2c0 2.861 3.196 6-2 6 0 2.399 2.834 11 6 11 1.052 0 11-8.842 11 1ZM347 149c0-4.241-9.132-6.237-11-2.5l2 4.5-5-4-2-6v-2l4 2c7.117 0 12 6.292 12-8l1-1 1-1h2c0 2.386-2.723 6 2 6 0 2.731-2.646 12-6 12Z"/><path fill="#FF8E9C" id="PO" d="M195 188h1l2-1 2-1c0-2.503-10-14.3-10-21-1.674 0-2-7.241-2-9-1.183 0-1.535-3.57-2-4.5l-5-12.5v-1l-1-1c0-12.075-31.192 0-33 0v1c7.454 0 24.056 27.611 28 35.5 2.961 5.923 12 6.836 12 14.5h1c.759 0 7-2.768 7 0Z"/><path fill="#C7CAC9" id="fr" d="M205 139c0 4.727 1.622 4 7 4 4.026 0 9-7.449 9-11-.315 0-11.197 7-16 7Z"/><path fill="#FF8E9C" id="PO" d="M268 188h1c0-5.755 7.976-10.476 12-14.5 5.754-5.754 18.385-35.5 28-35.5v-1c-3.375 0-33-12.878-33 1l-1 1c0 2.168-4.157 15-6 15 0 4.279-3 8.452-3 12l-1 1c0 8.965-9 16.131-9 19l2 1h3c1.406 0 7-.714 7 1Z"/><path fill="#019397" id="AUDv6a" d="m63 133-1 2 1-2Z"/><path fill="#CCC8CA" id="ar" d="m69 169 1 7c2.203 0 .138-17 3-17v-3c0-1.048-.473-3 1-3v-1l1-1v-2l1-2c0-1.71.718-7 3-7l1-1-2-4-3 2v1l-1 1-4 11.5c-.574 1.147 1.064 4.5-1 4.5v14Z"/><path fill="#CAC7CB" id="fiber tracts" d="m102 135 1 1-1-1Z"/><path fill="#CCC8CA" id="ar" d="M386 176h1v-22c0-5.329-5-11.028-5-16l-1-1v-1l-3-1-1 4v1c2.467 0 5 9.043 5 11v1c1.579 0 1 2.855 1 4 0 3.599 2 7.325 2 11.5 0 1.532-.743 8.5 1 8.5Z"/><path fill="#1C8063" id="SSs5" d="M61 136c-1.186 0-1.186 1 0 1v-1Z"/><path fill="#FD8F9F" id="RT" d="M139 185v3c-3.984 0-6.027-5-9-5-3.05 0-7.045-8-14-8 0-2.048-4.314-4.872-3-7.5l6-12.5 3-6 1-1 2-6 1-1 1-2 1-1 1-1c14.539 0 4 5.212 4 12l-1 1-1 1c0 10.755-10.737 15.763 3 29.5 1.684 1.684 2.411 4.5 5 4.5Z"/><path fill="#FD909D" id="MD" d="m220 179-7 4c-6.554 0-16-7.733-16-15 0-3.922-5.929-32 4-32l4 3c0 4.727 1.622 4 7 4 0 1.673 8.485 6 10 6 0 4.798 4.834 13.832 2 19.5l-4 10.5ZM237 179l6 4c7.001 0 16-7.63 16-15l2-4.5c2.442-4.883-.716-27.5-6-27.5-2.349 0-1.382 3-4 3 0 4.727-1.622 4-7 4 0 1.727-8.413 6-10 6 0 4.601-4.492 12.516-2 17.5 1.229 2.458.794 5.587 2 8l3 4.5Z"/><path fill="#FF6F80" id="TH" d="m309 138 2 1v-3l-2 1v1Z"/><path fill="#FD8F9F" id="RT" d="m324 185-6 3v-3c1.901 0 5-4.332 5-6l2.5-3c5.01-5.01 4.448-16.603 1.5-22.5l-2-2.5c0-2.623-3.769-8.039-5-10.5-.757-1.513 2.987-5.257 4.5-4.5l4.5 3 2 2 2 6 4 8 6 11.5c1.558 3.117-2 5.401-2 7.5-6.014 0-9.986 9-15 9l-1 1-1 1Z"/><path fill="#CAC7CB" id="fiber tracts" d="m354 136-1 1 1-1Z"/><path fill="#CBC9C7" id="or" d="m129 137-1 1 1-1Z"/><path fill="#FF6F80" id="TH" d="m147 138-2 1 1-2h1v1Z"/><path fill="#FD8F9C" id="Eth" d="m180 137 1 1-1-1Z"/><path fill="#C9C9CA" id="scwm" d="m381 137 1 1-1-1Z"/><path fill="#1C8063" id="SSs5" d="M60 140h1v-2c-.896 0-3.026 2-1 2Z"/><path fill="#C9C9CA" id="scwm" d="m75 138-1 1 1-1Z"/><path fill="#FF6F80" id="TH" d="m128 138-1 1 1-1Z"/><path fill="#FF7E83" id="VPM" d="m179 195-2 1-7.5 1-5.5-2-8-6.5c-4.509-9.019-11.22-16.22-19-24l-6-7.5 2-7v-1l2-2 1-1c0-1.592 7.61-7 9-7l2-1c7.454 0 24.056 27.611 28 35.5 2.961 5.923 12 6.836 12 14.5l-1 3-1 1-2 1-2 1-2 1Z"/><path fill="#FD8F9C" id="Eth" d="m276 138-1 1 1-1Z"/><path fill="#FF7E83" id="VPM" d="m292 195-1 1c-4.787 0-22-.102-22-8 0-5.755 7.976-10.476 12-14.5 5.754-5.754 18.385-35.5 28-35.5l2 1c2.327 0 11 6.168 11 9 0 2.7 3 4.762 3 8 0 7.903-14.56 14.62-18 21.5l-6 10-9 7.5Z"/><path fill="#FF6F80" id="TH" d="m127 139-1 2v-2h1Z"/><path fill="#FD8F9C" id="Eth" d="M188 141v15c-1.183 0-1.535-3.57-2-4.5l-5-12.5 7 2ZM268 141l1 13c1.843 0 6-12.832 6-15l-7 2Z"/><path fill="#FF6F80" id="TH" d="M331 139v2l-2-2h2Z"/><path fill="#1C8063" id="SSs5" d="M398 151h1l1-1c0-1.292-2.025-11-4-11l2 12Z"/><path fill="#019397" id="AUDv6a" d="m61 140-1 1v-1h1Z"/><path fill="#C7CACC" id="ccs" d="M79 140c-2.282 0-3 5.29-3 7 1.732 0 3-5.353 3-7ZM381 151h1c0-1.957-2.533-11-5-11l4 11Z"/><path fill="#1C8063" id="SSs5" d="m56 150 2 1 2-10c-3.619 0-2.077 4.655-3 6.5h-3l2 2.5Z"/><path fill="#FF6F80" id="TH" d="m126 141-1 1 1-1Z"/><path fill="#C8CBC7" id="st" d="m120 149-1 1c0 1.858-10 1.899-10-2 1.052 0 11-8.842 11 1ZM347 149c0 2.656-6.992 2-9 2l-2-4.5c1.868-3.737 11-1.741 11 2.5Z"/><path fill="#C7CACA" id="em" d="m136 146-1 1 1-1Z"/><path fill="#C7CACC" id="ccs" d="M75 149h1v-2l-1 2Z"/><path fill="#CBC9C7" id="or" d="m123 148-1 1 1-1Z"/><path fill="#C7CACA" id="em" d="M325 156c1.995 0 2 4.377 2 6 0 8.284-4 13.355-4 17l2.5-3c5.01-5.01 4.448-16.603 1.5-22.5l-2-2.5-3-3c0 2.7 3 4.762 3 8Z"/><path fill="#15B0B3" id="TEa1" d="m31 178-6 1-1-30h6c0 9.59 1 20.076 1 29Z"/><path fill="#16AFB3" id="TEa2/3" d="m40 177-9 1c0-8.924-1-19.41-1-29h8c0 9.976 2 18.747 2 28Z"/><path fill="#15B0B2" id="TEa4" d="M40 177h3v-28h-5c0 9.976 2 18.747 2 28Z"/><path fill="#15AFB3" id="TEa5" d="M43 177h14c0-8.488 1-17.466 1-26l-2-1-12-1h-1v28Z"/><path fill="#C9C7C9" id="ccb" d="m76 149-1 1v-1h1Z"/><path fill="#CAC7CB" id="fiber tracts" d="m120 149-1 1 1-1Z"/><path fill="#CBC9C7" id="or" d="M132 150h1v-1l-1 1Z"/><path fill="#FE909F" id="IMD" d="M220 179c3.208 0 7.555-3.973 11.5-2l5.5 2-3-4.5c-1.206-2.413-.771-5.542-2-8-2.492-4.984 2-12.899 2-17.5-2.245 0-3.905 2-5.5 2-1.948 0-4.03-2-6.5-2 0 4.798 4.834 13.832 2 19.5l-4 10.5Z"/><path fill="#15AFB3" id="TEa5" d="M413 177h1l-1-28-13 1-1 1 1 26h13Z"/><path fill="#15B0B2" id="TEa4" d="M414 177h2c0-4.165 1.185-10.869 3-14.5 1.799-3.599-1-10.356-1-13.5h-5l1 28Z"/><path fill="#16AFB3" id="TEa2/3" d="m416 177 10 1 1-29h-9c0 3.144 2.799 9.901 1 13.5-1.815 3.631-3 10.335-3 14.5Z"/><path fill="#15B0B3" id="TEa1" d="m426 178 5 1c0-7.733 2-15.192 2-22.5 0-1.448.725-7.5-1-7.5h-5l-1 29Z"/><path fill="#CBC9C7" id="or" d="m132 150-1 1 1-1Z"/><path fill="#C7CACA" id="em" d="M131 157c-1.792 0-2.993 9.515-2 11.5l6 12c.595 1.19 4 2.317 4 4.5-2.589 0-3.316-2.816-5-4.5-13.737-13.737-3-18.745-3-29.5l1-1h1l-2 7Z"/><path fill="#15AFB2" id="TEa6a" d="m69 176-12 1c0-8.488 1-17.466 1-26h1c0 1.716-.305 6.89 0 7.5l9 8.5v2c0 2.409 1 5.181 1 7Z"/><path fill="#11AC83" id="VISC6a" d="M68 154v13l-9-8.5c-.305-.61 0-5.784 0-7.5l9 3Z"/><path fill="#C7CACC" id="ccs" d="M74 152h1v-1l-1 1Z"/><path fill="#C9C7C9" id="ccb" d="M382 152v2c-1.473 0-1-1.952-1-3h1v1Z"/><path fill="#11AC83" id="VISC6a" d="m388 154 1 11c5.352 0 9-10.455 9-14l-10 3Z"/><path fill="#15AFB2" id="TEa6a" d="m388 176 12 1-1-26h-1c0 3.545-3.648 14-9 14v4c0 1.819-1 4.591-1 7Z"/><path fill="#C9C7C9" id="ccb" d="M74 153h1v-1h-1v1Z"/><path fill="#C7CACC" id="ccs" d="M382 156h1c0-1.145.579-4-1-4v4ZM73 156h1l1-3h-1c-1.473 0-1 1.952-1 3Z"/><path fill="#11AD82" id="VISC6b" d="M68 167h1v-12l-1-1v13ZM387 167h2v-2l-1-11h-1v13Z"/><path fill="#CCC8CA" id="ar" d="M116 175c-5.411 0-9.349 2-14 2l-1-2-2-3v-2l-1-1-3-14 8.5 4c5.691 2.846 10.941-4 15.5-4l-6 12.5c-1.314 2.628 3 5.452 3 7.5ZM356 175l-2 2c-1.194 0-13-.953-13-3 0-2.099 3.558-4.383 2-7.5l-6-11.5c4.559 0 9.809 6.846 15.5 4l8.5-4-2 12-1 1v3l-1 1v1l-1 1v1Z"/><path fill="#C8CBCC" id="ec" d="m74 156-1 2v-2h1Z"/><path fill="#FD8084" id="VPL" d="M291 196c0 3.431 1.939 1 4 1 7.358 0 12.262-8 19-8l3-4 6-6c0-3.645 4-8.716 4-17 0-1.623-.005-6-2-6 0 7.903-14.56 14.62-18 21.5l-6 10-9 7.5-1 1Z"/><path fill="#C8CBCC" id="ec" d="m384 186 2 1v-11c-1.743 0-1-6.968-1-8.5 0-4.175-2-7.901-2-11.5h-1c0 6.616 2 14.373 2 22v8Z"/><path fill="#FD8084" id="VPL" d="M164 195c0 4.032 1.23 2-3 2-6.844 0-11.972-8-18-8l-4-4c0-2.183-3.405-3.31-4-4.5l-6-12c-.993-1.985.208-11.5 2-11.5l6 7.5c7.78 7.78 14.491 14.981 19 24l8 6.5Z"/><path fill="#C8CBCC" id="ec" d="m73 186-3 1v-11c2.203 0 .138-17 3-17v27Z"/><path fill="#FE8D9F" id="PCN" d="M201 187c3.998 0 7.473 3 12 3v-7c-6.554 0-16-7.733-16-15-2.971 0-4.768-3-7-3 0 6.7 10 18.497 10 21l1 1ZM266 166l-1 1 1-1Z"/><path fill="#16B0B2" id="TEa6b" d="M68 168h1v-1h-1v1Z"/><path fill="#FE8D9F" id="PCN" d="M255 187c-3.998 0-7.473 3-12 3v-7c7.001 0 16-7.63 16-15l6-1c0 8.965-9 16.131-9 19l-1 1Z"/><path fill="#CCC" d="m359 167-1 1 1-1Z"/><path fill="#16B0B2" id="TEa6b" d="M387 168h2v-1h-2v1Z"/><path fill="#11AD82" id="VISC6b" d="M68 169h1v-1h-1v1ZM387 169h2v-1h-2v1Z"/><path fill="#16B0B2" id="TEa6b" d="M69 176h1l-1-7h-1c0 2.409 1 5.181 1 7Z"/><path fill="#CCC" d="m98 169 1 1-1-1Z"/><path fill="#16B0B2" id="TEa6b" d="M387 176h1c0-2.409 1-5.181 1-7h-2v7Z"/><path fill="#CCC" d="M357 172h1v-1l-1 1ZM100 175h1l-2-3v1l1 2Z"/><path fill="#97D6F9" id="STR" d="M356 175c1.579 0 1 2.855 1 4 1.714 0 1-5.594 1-7h-1v1l-1 1v1ZM100 175v5c-1.161 0-3.375-7-1-7l1 2Z"/><path fill="#CCC" d="m357 173-1 1 1-1ZM335 196l-6 6.5c-2.541 2.541-18 20.117-18 22.5-3.037 0-11.446 11.473-16.5 14l-4-2c-4.255-2.127-1.104-6.292.5-9.5l18-17 8-16c1.521-3.041 7-5.968 7-9.5l1-1 1-1c5.014 0 8.986-9 15-9 0 2.047 11.806 3 13 3l-1 3c-3.205 0-5.091 5-8 5l-1 1-4 4-1 1-1 1-1 1c-1.577 0-2 1.762-2 3Z"/><path fill="#8598CC" id="GPe" d="M105 191c0 1.048.473 3-1 3l-1-10.5-3-3.5v-5h1l1 2 1 2c0 3.231 2.636 5.772 4 8.5l-2 3.5Z"/><path fill="#CCC" d="m111 185 7 6 9 11.5 23.5 26.5c2.304 2.304 9.425 11.787 13 10 2.083-1.042 6.046-4.407 4.5-7.5l-19-19-10-19-9-10.5c-3.05 0-7.045-8-14-8-5.411 0-9.349 2-14 2l1 2 6 4 2 2Z"/><path fill="#8598CC" id="GPe" d="m351 193 2 1c0-2.217-1.383-6.734 0-9.5 1.213-2.426 4-3.031 4-5.5 0-1.145.579-4-1-4l-2 2-1 3-3 6.5 1 4.5v2Z"/><path fill="#0E9F91" id="ECT6a" d="M59 189h1l9-7v-6l-12 1c0 4.549 2 8.157 2 12Z"/><path fill="#0E9F90" id="ECT6b" d="M69 181h1v-5h-1v5ZM386 181h1l1-5h-2v5Z"/><path fill="#0E9F91" id="ECT6a" d="M387 181c2.654 0 5.814 7 10 7 1.496 0 3-9.452 3-11l-12-1-1 5Z"/><path fill="#0D9F91" id="ECT2/3" d="M46 194c0 .434-8.494 1-11 1 0-6.102-4-11.172-4-17l9-1h3c0 6.214 3 11.271 3 17Z"/><path fill="#0D9E90" id="ECT5" d="M47 194c2.009 0 4.272 1 6 1 0-2.284 4.066-5 6-5v-1c0-3.843-2-7.451-2-12H43c0 6.214 3 11.271 3 17h1Z"/><path fill="#FD8E9E" id="CM" d="M238 191h4l1-1v-7l-6-4-5.5-2c-3.945-1.973-8.292 2-11.5 2l-7 4v7h1l1 1h3c3.718 0 8.53-2 10.5-2l2 2h7.5Z"/><path fill="#0D9E90" id="ECT5" d="M403 195h6l1-1c0-5.347 3-10.706 3-17h-13c0 1.548-1.504 11-3 11v1c1.091 0 6 4.019 6 6Z"/><path fill="#0D9F91" id="ECT2/3" d="M410 195h11c0-5.456 5-11.792 5-17l-10-1h-3c0 6.294-3 11.653-3 17v1Z"/><path fill="#0D9F90" id="ECT1" d="M35 195c-1.32 0-6-.684-6 1-3.576 0-1-7.329-1-9 0-3.238-3-5.3-3-8l6-1c0 5.828 4 10.898 4 17Z"/><path fill="#97D6F9" id="STR" d="m383 183 1 2v-7c-1.643 0-1 3.765-1 5Z"/><path fill="#0D9F90" id="ECT1" d="M421 195c2.409 0 5.181 1 7 1 0-1.29-.456-9.588 0-10.5l3-6.5-5-1c0 5.208-5 11.544-5 17Z"/><path fill="#8599CC" id="PAL" d="M125 204c-4.045 0-2 .35-2 4-2.544 0-.761-5-4-5v-1l-1-1v-1l-1-1c0-2.216-2.232-6.866-4.5-8-.804-.402-5.5-2.3-5.5 0h-2l2-3.5c-1.364-2.728-4-5.269-4-8.5l6 4 2 2 7 6c0 4.45 7 8.294 7 13Z"/><path fill="#C7CACA" id="em" d="M317 185h1c1.901 0 5-4.332 5-6l-6 6Z"/><path fill="#8599CC" id="PAL" d="m337 203-2 1-3-1 3-7c1.577 0 2-1.762 2-3l1-1 1-1 1-1 4-4 1-1c2.909 0 4.795-5 8-5l-3 6.5 1 4.5-2-1c-5.49 0-10 4.367-10 10l-1 1v1l-1 1Z"/><path fill="#11AD82" id="VISC6b" d="M69 189h1v-8h-1v8ZM386 189h1v-8h-1v8Z"/><path fill="#11AC83" id="VISC6a" d="M387 189h10v-1c-4.186 0-7.346-7-10-7v8ZM60 189h9v-7l-9 7Z"/><path fill="#97D6F9" id="STR" d="M73 183h1l-1-1v1Z"/><path fill="#90EB8D" id="LA" d="m83 245 4 5-2-3.5c-3.287-6.574 1.567-18.134 4-23l2-3.5c0-5.861 5.333-3 8-3v-3c-2.454 0-1.447-2.947-2.5-4-2.629-2.629-10.5-9.189-10.5-13-3.05 0-12-11.448-12-14h-1v3c0 16.553 6 28.203 6 45v2c1.434 0 2 6.448 2 8v1l1 1v1l1 1Z"/><path fill="#CAC7CB" id="fiber tracts" d="m109 183 2 2-2-2ZM164 251c0 2.409-1.957 3-4 3l-4-8c4.886 0-.153-8.653-3-11.5-6.777-6.777-17.727-16.455-22-25l-6-5.5c0-4.706-7-8.55-7-13l9 11.5 23.5 26.5c2.304 2.304 9.425 11.787 13 10 2.083-1.042 6.046-4.407 4.5-7.5l-19-19-10-19-9-10.5c2.973 0 5.016 5 9 5l2 1 2 4c0 1.93.84 8 3 8 0 6.746 17.139 25 24 25l2 2v10l-9 4.5 1 8.5ZM326 183l-1 1 1-1Z"/><path fill="#90EB8D" id="LA" d="m374 244-3 4c0-4.061.83-27-5-27 0-6.374-5.314-4-9-4l1-4 13-16 3.5-3 8.5-11 1 2v1c0 17.12-7 30.26-7 48v1c-1.175 0-2 5.704-2 7v1l-1 1Z"/><path fill="#FF6F80" id="TH" d="M141 189h2l-4-4v3l2 1ZM314 189h1l3-1v-3h-1l-3 4Z"/><path fill="#CAC7CB" id="fiber tracts" d="M293 250c0 5.01.677 3 4 3l3-7c-3.034 0-1.955-3.589-1-5.5 2.179-4.357 12-10.694 12-15.5-3.037 0-11.446 11.473-16.5 14l-4-2c-4.255-2.127-1.104-6.292.5-9.5l18-17 8-16c1.521-3.041 7-5.968 7-9.5l-6 3-3 1-2 4c0 3.138-2 5.662-2 8 0 5.967-18.742 25-24 25l-2 1-1 11c0 1.032 8.718 2.935 10 5.5l-1 6.5ZM345 185l-1 1 1-1Z"/><path fill="#C8C9CB" id="amc" d="M78 231h1c0-16.797-6-28.447-6-45l-3 1v6c.208 0 3 9.153 3 10l3 8.5 2 19.5Z"/><path fill="#FF6F80" id="TH" d="M198 187h3l-1-1-2 1ZM255 187h3l-2-1-1 1Z"/><path fill="#C8C9CB" id="amc" d="M378 230c0 1.145.579 4-1 4 0-17.74 7-30.88 7-48l2 1v2c0 4.763-2 8.728-2 13l-3 6.5c-1.754 3.507-3 17.193-3 21.5Z"/><path fill="#FD7E84" id="VAL" d="m195 189-7 1v-2c.759 0 7-2.768 7 0v1Z"/><path fill="#FF6F80" id="TH" d="m198 187-2 1 2-1Z"/><path fill="#FE8082" id="VPMpc" d="m218 191 3 2.5c2.286 4.571-6.589 2.5-7 2.5-.367 0-10.385-7-19-7v-1h1l2-1h3c3.998 0 7.473 3 12 3h1l1 1h3ZM238 191h4l1-1c4.527 0 8.002-3 12-3h4l2 1v1c-9.1 0-19.144 8-20 8-1.462 0-7.453-.594-6-3.5l3-2.5Z"/><path fill="#FF6F80" id="TH" d="M261 187v1l-2-1h2Z"/><path fill="#FD7E84" id="VAL" d="M261 189c2.409 0 5.181 1 7 1v-2c0-1.714-5.594-1-7-1v2Z"/><path fill="#FF6F80" id="TH" d="m188 190-2 1 1-3h1v2ZM295 197c0 1.155-6.844 5-8 5 0-3.458-19-9.263-19-12v-2h1c0 7.898 17.213 8 22 8 0 3.431 1.939 1 4 1Z"/><path fill="#209766" id="AIp6a" d="M64 201h2l1-1 4 1-1-8v-1c-1.473 0-1-1.952-1-3H59v1c0 3.29 5 7.678 5 11Z"/><path fill="#219666" id="AIp6b" d="M70 189v3c-1.473 0-1-1.952-1-3h1Z"/><path fill="#F0483B" id="ZI" d="M177 219h10c7.972 0 7 1.685 7-5 0-1.233-7.258-2.379-8.5-3l-14.5-8-10-6c-6.844 0-11.972-8-18-8h-2l2 4c2.855 0 9.82 9.32 12.5 12l3.5 4c4.858 0 7.709 7 12 7l6 3Z"/><path fill="#FF7E84" id="VM" d="M194 214h7c0-6.482 4.273-4 8-4 10.583 0 5-10.076 5-14-.367 0-10.385-7-19-7l-7 1-2 1-1 1-2 1-2 1-2 1-2 1c0 2.996-8 2.803-8 4.5l2 2.5 14.5 8c1.242.621 8.5 1.767 8.5 3Z"/><path fill="#FF6F80" id="TH" fill-rule="evenodd" d="M223 197c0 3.208-3.973 7.555-2 11.5 3.781 7.562 4.513-.5 7.5-.5.873 0 .592 5.704 4 4 3.903-1.951 3.903-13.049 0-15-1.742-.871-7.111 0-9.5 0m-13 16c5.61 0 10.784 1.642 15.5 4l3-2 2 2 5-3c2.973-1.486 9.155 0 11.5 0l1-4c-7.698 0-7-6.915-7-13-1.462 0-7.453-.594-6-3.5l3-2.5h-7.5l-2-2c-1.97 0-6.782 2-10.5 2l3 2.5c2.286 4.571-6.589 2.5-7 2.5 0 3.924 5.583 14-5 14 0 1.048-.473 3 1 3Z"/><path fill="#FF7E84" id="VM" d="M256 214h6l13-5 1-1 11-6c0-3.458-19-9.263-19-12-1.819 0-4.591-1-7-1-9.1 0-19.144 8-20 8 0 6.085-.698 13 7 13 3.362 0 8-1.98 8 4Z"/><path fill="#F0483B" id="ZI" d="M269 219h10l7-3 1-1c3.207 0 6.277-6 10-6l2-2 2-2h1l1-1 1-1 9-10 2-4h-1c-6.738 0-11.642 8-19 8 0 1.155-6.844 5-8 5l-11 6-1 1-13 5c0 5.657.924 5 7 5Z"/><path fill="#219666" id="AIp6b" d="m386 200-2 2c0-4.272 2-8.237 2-13h1l-1 11Z"/><path fill="#209766" id="AIp6a" d="M392 201h1l4-12h-10l-1 11h4l2 1Z"/><path fill="#219864" id="AIp5" d="m395 203 10 1 2-2v-2c-1.77 0-4-3.15-4-5 0-1.981-4.909-6-6-6l-4 12 2 2ZM61 203l-10 1-2-3v-1c1.77 0 4-3.15 4-5 0-2.284 4.066-5 6-5 0 3.29 5 7.678 5 11v1l-3 1Z"/><path fill="#C8CBC7" id="st" d="m120 207-1 2-5-5-6-8-1-1v-4c0-2.3 4.696-.402 5.5 0 2.268 1.134 4.5 5.784 4.5 8l1 1v1l1 1v1l1 4Z"/><path fill="#FF6F80" id="TH" d="m214 190 1 1-1-1ZM243 190l-1 1 1-1Z"/><path fill="#CAC7CB" id="fiber tracts" d="m340 190-1 1 1-1Z"/><path fill="#C8CBC7" id="st" d="M337 207v2l5-4 1-1c0-3.587 6-5.655 6-9l1-1v-1l-1-3c-5.49 0-10 4.367-10 10l-1 1v1l-1 1v4Z"/><path fill="#CAC7CB" id="fiber tracts" d="M350 193h1v-2l-2-1 1 3Z"/><path fill="#97D6F9" id="STR" d="M106 207c-3.213 0-7 3.74-7 7-2.454 0-1.447-2.947-2.5-4-2.629-2.629-10.5-9.189-10.5-13 2.014 0 5.932 2.284 8.5 1 1.647-.823 6.902-3 8.5-3l1-1c1.473 0 1-1.952 1-3h1c0 1.048-.473 3 1 3v1l1 1 6 8-1 1c-2.765 0-5.165 2-7 2Z"/><path fill="#CAC7CB" id="fiber tracts" d="M107 191v3c-1.473 0-1-1.952-1-3h1Z"/><path fill="#FF6F80" id="TH" d="m186 191-1 1 1-1Z"/><path fill="#CAC7CB" id="fiber tracts" d="m339 191-1 1 1-1Z"/><path fill="#FF6F80" id="TH" d="m185 192-2 1 2-1Z"/><path fill="#CAC7CB" id="fiber tracts" d="m338 192-1 1 1-1Z"/><path fill="#219666" id="AIp6b" d="m71 201 2 2c0-.847-2.792-10-3-10l1 8Z"/><path fill="#E64438" id="HY" d="M146 201c0-1.945 2.66.58 3.5 1 1.997.999 7.213 7 9.5 7l-3.5-4c-2.68-2.68-9.645-12-12.5-12 0 1.93.84 8 3 8Z"/><path fill="#FF6F80" id="TH" d="m183 193-2 1 2-1Z"/><path fill="#E64438" id="HY" d="M311 201c-2.46 0-4.17 2-7 2l9-10c0 3.138-2 5.662-2 8Z"/><path fill="#CAC7CB" id="fiber tracts" d="M337 193c-1.577 0-2 1.762-2 3 1.577 0 2-1.762 2-3Z"/><path fill="#97D6F9" id="STR" d="m349 206 7.5 4 1.5 3 13-16c-2.627 0-18 1.916-18-3l-2-1h-1v1l-1 1c0 3.345-6 5.413-6 9v1c2.124 0 4.436 1 6 1Z"/><path fill="#0E9583" id="PERI2/3" d="M39 208h1l5-1 2-1 2-5v-1c0-1.974-2-3.517-2-6h-1c0 .434-8.494 1-11 1l4 13Z"/><path fill="#0F9684" id="PERI5" d="M53 195c0 1.85-2.23 5-4 5 0-1.974-2-3.517-2-6 2.009 0 4.272 1 6 1Z"/><path fill="#8598CC" id="GPe" d="m104 194-1 1 1-1Z"/><path fill="#FF6F80" id="TH" d="m181 194-2 1 2-1Z"/><path fill="#CAC7CB" id="fiber tracts" d="m350 194-1 1 1-1Z"/><path fill="#0F9684" id="PERI5" d="M409 195c0 1.424-.362 5-2 5-1.77 0-4-3.15-4-5h6ZM409 195h1v-1l-1 1Z"/><path fill="#0E9583" id="PERI2/3" d="m411 207 6 1c0-4.119 4-8.112 4-13h-12c0 1.424-.362 5-2 5v1c1.186 0 1.186 1 0 1 0 1.24 2 1.576 2 4l2 1Z"/><path fill="#0E9584" id="PERI1" d="m39 208-4 2c0-4.645-6-8.383-6-14 0-1.684 4.68-1 6-1l4 13Z"/><path fill="#CAC7CB" id="fiber tracts" d="m107 195 1 1-1-1Z"/><path fill="#FF6F80" id="TH" d="m161 197 10 6-2-2.5c0-1.697 8-1.504 8-4.5l-7.5 1-5.5-2c0 4.032 1.23 2-3 2ZM179 195l-2 1 2-1ZM292 195l-1 1 1-1Z"/><path fill="#0E9584" id="PERI1" d="m417 209 4 1c2.398 0 7-11.682 7-14-1.819 0-4.591-1-7-1 0 4.888-4 8.881-4 13v1Z"/><path fill="#CAC7CB" id="fiber tracts" d="m332 203-5 4.5c-1.871 3.743-13.699 17.5-16 17.5 0-2.383 15.459-19.959 18-22.5l6-6.5-3 7Z"/><path fill="#FD909F" id="RE" d="M223 197c0 3.208-3.973 7.555-2 11.5 3.781 7.562 4.513-.5 7.5-.5.873 0 .592 5.704 4 4 3.903-1.951 3.903-13.049 0-15-1.742-.871-7.111 0-9.5 0Z"/><path fill="#CAC7CB" id="fiber tracts" d="m117 199 1 1-1-1Z"/><path fill="#A0EE9C" id="EPd" d="M71 231c1.791 0 2.96 3.27 5.5 2l1.5-2-2-19.5-3-8.5-2-2-4-1-1 1c0 4.755-1.27 12.959 1 17.5.451.903 4.63 9.5 3.5 9.5l-2.5-3 3 6Z"/><path fill="#F1473B" id="STN" d="m171 225-1 1c-6.861 0-24-18.254-24-25 0-1.945 2.66.58 3.5 1 1.997.999 7.213 7 9.5 7 0 3.095 12 10.645 12 16ZM286 224l1 2c5.258 0 24-19.033 24-25-2.46 0-4.17 2-7 2l-1 1-1 1h-1c0 1.747-.253 2-2 2 0 1.747-.253 2-2 2 0 4.989-11 8.237-11 15Z"/><path fill="#CAC7CB" id="fiber tracts" d="m339 200-1 1 1-1Z"/><path fill="#A0EE9C" id="EPd" fill-rule="evenodd" d="M385 227c0 1.93 1.93 0 0 0m0 5-1 1c-3.067 0-4.726-3-6-3 0-4.307 1.246-17.993 3-21.5l3-6.5 2-2h3l1 1c0 5.12 2.176 11.147 0 15.5l-3 8 2-.5c0 1.238-.423 3-2 3l-2 5Z"/><path fill="#C9C8CA" id="ee" d="m392 214-3 10-2 .5 3-8c2.176-4.353 0-10.38 0-15.5v-1l2 1 1 8v4l-1 1Z"/><path fill="#209865" id="AIp2/3" d="m51 205-4 1 2-5 2 3v1Z"/><path fill="#C9C8CA" id="ee" d="M68 224v1l2.5 3c1.13 0-3.049-8.597-3.5-9.5-2.27-4.541-1-12.745-1-17.5h-2v12l3 10 1 1Z"/><path fill="#CAC7CB" id="fiber tracts" d="m118 201 1 1-1-1Z"/><path fill="#32B824" id="ENTl6a" d="M393 209h1l1-6-2-2h-1l1 8Z"/><path fill="#209865" id="AIp2/3" d="M407 201c1.186 0 1.186 1 0 1v-1Z"/><path fill="#32B824" id="ENTl6a" d="m64 208-2 1-1-6 3-1v6Z"/><path fill="#CAC7CB" id="fiber tracts" d="m338 202-1 1 1-1Z"/><path fill="#209865" id="AIp2/3" d="m405 205 4 1c0-2.424-2-2.76-2-4l-2 2v1Z"/><path fill="#31B824" id="ENTl5" d="M62 209c-1.714 0-3.482 2-6 2-3.354 0-2.568-6-5-6v-1l10-1 1 6Z"/><path fill="#CAC7CB" id="fiber tracts" d="M123 208v1c-1.238 0-3-.423-3-2l-1-4c3.239 0 1.456 5 4 5Z"/><path fill="#CACCCB" id="opt" d="m126 214 7 7.5c2.865 5.73 23 20.69 23 24.5 4.886 0-.153-8.653-3-11.5-6.777-6.777-17.727-16.455-22-25l-6-5.5c-4.045 0-2 .35-2 4v1l2 3 1 2Z"/><path fill="#E64438" id="HY" d="m304 203-1 1 1-1Z"/><path fill="#CACCCB" id="opt" d="M311 225c0 4.806-9.821 11.143-12 15.5-.955 1.911-2.034 5.5 1 5.5l7-7.5c3.561-3.561 22-20.591 22-23.5l1-1 1-1v-1l1-1 1-1v-1l1-2 1-2v-1l-3-1-5 4.5c-1.871 3.743-13.699 17.5-16 17.5Z"/><path fill="#CAC7CB" id="fiber tracts" d="m337 207-3 2v-2l1-2v-1l2-1v4Z"/><path fill="#31B824" id="ENTl5" d="M394 209c2.16 0 4.167 2 7 2 1.428 0 4-4.822 4-6v-1l-10-1-1 6Z"/><path fill="#7FC0E0" id="CEAm" d="M126 235c0 2.041-.959 3-3 3 0-1.827-7.592-8-10-8l-1-2c2.393 0 3-3.234 3-5l1-1c0-2.287.982-17-3-17l1-1 5 5 3 4c0 7.885 4 14.058 4 22Z"/><path fill="#E64438" id="HY" d="m303 204-1 1 1-1Z"/><path fill="#7FC0E0" id="CEAm" d="M342 205h1v-1l-1 1Z"/><path fill="#32B725" id="ENTl3" d="M56 211c0 .335-8.123 3-9 3l-2-7 2-1 4-1c2.432 0 1.646 6 5 6Z"/><path fill="#80BEE1" id="CEAl" d="m116 222-1 1c-7.184 0-9-8.769-9-16 1.835 0 4.235-2 7-2 3.982 0 3 14.713 3 17Z"/><path fill="#E64438" id="HY" d="m301 205-2 2c1.747 0 2-.253 2-2Z"/><path fill="#8599CC" id="PAL" d="m335 205-1 2 1-2Z"/><path fill="#7FC0E0" id="CEAm" d="m330 237 3 1c3.741 0 5.783-8 10-8l1-1-3-6c0-2.618-2.514-7.472-1-10.5.946-1.892 2-5.372 2-7.5l-5 4-2 3c0 8.586-5 16.09-5 25Z"/><path fill="#80BEE1" id="CEAl" d="m349 206 2 2.5c2.481 4.962-5.998 14.5-10 14.5 0-2.618-2.514-7.472-1-10.5.946-1.892 2-5.372 2-7.5h1c2.124 0 4.436 1 6 1Z"/><path fill="#32B725" id="ENTl3" d="M401 211c0 .504 7.078 3 8 3l2-7-2-1-4-1c0 1.178-2.572 6-4 6Z"/><path fill="#80BFE0" id="CEAc" d="M344 229h1l1-1 1-1c0-1.747.253-2 2-2 0-1.747.253-2 2-2 0-2.473 3.527-6 6-6l1-4-1.5-3-7.5-4 2 2.5c2.481 4.962-5.998 14.5-10 14.5l3 6Z"/><path fill="#32B825" id="ENTl2" d="M47 214c0 1.579-2.855 1-4 1-2.282 0-3-5.29-3-7l5-1 2 7Z"/><path fill="#80BFE0" id="CEAc" d="m110 227 2 1c2.393 0 3-3.234 3-5-7.184 0-9-8.769-9-16-3.213 0-7 3.74-7 7v3h1l10 10Z"/><path fill="#97D6F9" id="STR" d="M122 213c0-4.316 2.189 1 4 1l-1-2c-1.577 0-2-1.762-2-3-1.238 0-3-.423-3-2l-1 2 3 4Z"/><path fill="#E64438" id="HY" d="m299 207-2 2c1.747 0 2-.253 2-2Z"/><path fill="#8599CC" id="PAL" d="M333 209h1v-2l-1 2Z"/><path fill="#97D6F9" id="STR" d="m333 211 2 1 2-3v-2l-3 2-1 1v1Z"/><path fill="#32B825" id="ENTl2" d="m409 214 5 1 3-6v-1l-6-1-2 7Z"/><path fill="#32B722" id="ENTl1" d="m43 215-4 2c-.994 0-4-5.757-4-7l4-2h1c0 1.71.718 7 3 7Z"/><path fill="#8AD987" id="CTXsp" d="m62 209 2 4v-5l-2 1Z"/><path fill="#FF6F80" id="TH" d="m276 208-1 1 1-1Z"/><path fill="#6ACAB9" id="PIR" d="m88 276-7 13.5-3 3.5c-3.19 0-9.582-12.665-11-15.5-3.512-7.024-8.523-13.046-12-20-3.442-6.884-4.578-15.157-8-22-2.49-4.981-8-12.804-8-18.5l4-2c1.145 0 4 .579 4-1 .877 0 9-2.665 9-3 2.518 0 4.286-2 6-2l2 4 3 10 1 1v1l3 6 3 6c0 5.812 8.237 18.973 11 24.5l3 6.5v1l1 2v2l-1 3Z"/><path fill="#8599CC" id="PAL" d="m123 209 2 3c-1.577 0-2-1.762-2-3Z"/><path fill="#CCCACB" id="nst" d="M175 221c0 2.881-1.292 4-4 4 0-5.355-12-12.905-12-16 4.858 0 7.709 7 12 7 0 1.562 2.189 5 4 5Z"/><path fill="#C7C9CC" id="mtt" d="M209 217c0 1.577-1.762 2-3 2-3.383 0-5-1.617-5-5 0-6.482 4.273-4 8-4 0 1.048-.473 3 1 3l-1 4ZM248 218l3 1c2.708 0 4-1.119 4-4l1-1c0-5.98-4.638-4-8-4l-1 4 1 4Z"/><path fill="#CCCACB" id="nst" d="m286 224-1 1c-2.715 0-3-1.657-3-4l4-5 1-1c3.207 0 6.277-6 10-6 0 4.989-11 8.237-11 15Z"/><path fill="#CAC7CB" id="fiber tracts" d="m334 209-1 1v-1h1Z"/><path fill="#8AD987" id="CTXsp" d="m394 209-1 2v-2h1Z"/><path fill="#6ACAB9" id="PIR" d="M369 276c0 5.998 9 11.339 9 17 2.889 0 9.511-13.011 12-15.5 10.183-10.183 14.752-33.504 21-46l7-14.5-4-2-5-1c-.922 0-8-2.496-8-3-2.833 0-4.84-2-7-2l-1 2v2l-1 1-3 10c0 1.238-.423 3-2 3l-2 5-1 1-2 4c0 10.088-13 21.684-13 31l-1 1v1c0 2.124 1 4.436 1 6Z"/><path fill="#32B722" id="ENTl1" d="m414 215 4 2c0-2.538 3-3.953 3-7l-4-1-3 6Z"/><path fill="#8599CC" id="PAL" d="M332 211h1v-1l-1 1Z"/><path fill="#80BFE1" id="MEA" d="M135 284h1c2.899 0 21.276-13.053 23-16.5l1-13.5-4-8c0-3.81-20.135-18.77-23-24.5l-7-7.5c-1.811 0-4-5.316-4-1 0 7.885 4 14.058 4 22 1.684 0 1 4.679 1 6l1 4v24l1 4 1 2 1 1v1l1 1 1 2 1 1 1 3Z"/><path fill="#8599CC" id="PAL" d="M331 212h1v-1l-1 1Z"/><path fill="#97D6F9" id="STR" d="m333 211-1 1v-1h1Z"/><path fill="#80BFE1" id="MEA" d="M327 273c0 4.058-6 7.012-6 11-3.971 0-21.768-13.035-24-17.5V253l3-7 7-7.5c3.561-3.561 22-20.591 22-23.5l1-1 1-1 1-1 1-1 2 1c0 8.586-5 16.09-5 25-1.643 0-1 3.765-1 5v13c0 3.823-1 8.586-1 13v4l-1 1Z"/><path fill="#97D6F9" id="STR" d="m332 212-1 1v-1h1Z"/><path fill="#E64438" id="HY" d="M225 225h6c0-10.126 11.399-7 17-7l-1-4c-2.345 0-8.527-1.486-11.5 0l-5 3-2-2-3 2c-4.716-2.358-9.89-4-15.5-4l-1 4c5.787 0 16-.89 16 8Z"/><path fill="#8599CC" id="PAL" d="m331 213-1 1 1-1Z"/><path fill="#8AD987" id="CTXsp" d="m393 213-1 1 1-1Z"/><path fill="#E64438" id="HY" d="M210 261c-6.183 0-14 6.6-14 13-1.59 0-1.443-4.386-2-5.5-1.926-3.852-5.619-11.5-11-11.5l4-2c0 5.546 6 4.403 6-4 0-3.684 4.428-18.645 3-21.5-1.179-2.357-1.702-7.101-4.5-8.5-.93-.465-4.5-.817-4.5-2 7.972 0 7 1.685 7-5h7c0 3.383 1.617 5 5 5l-6 5.5c-2.271 4.541-1.598 12.5 5 12.5l-2 2.5v15l2.5 4.5c.93.465 4.5.817 4.5 2Z"/><path fill="#FF6F80" id="TH" d="m256 214-1 1 1-1Z"/><path fill="#E64438" id="HY" d="M246 261c7.093 0 14 6.898 14 14 1.59 0 1.443-4.386 2-5.5 1.703-3.405 6.009-12.5 11-12.5l-3-2c0 3.496-5.638 4.224-7 1.5-.978-1.956 1-4.077 1-5.5 0-6.449-6.785-17.931-3-25.5 1.046-2.092 8-5.774 8-6.5-6.076 0-7 .657-7-5h-6l-1 1c0 2.881-1.292 4-4 4l6 6.5c2.145 4.29-.255 11.5-5 11.5 0 3.963 4.39 10.72 2 15.5l-3.5 6.5c-.93.465-4.5.817-4.5 2Z"/><path fill="#8599CC" id="PAL" d="m330 214-1 1 1-1Z"/><path fill="#E64438" id="HY" d="m287 215-1 1 1-1Z"/><path fill="#9DE79B" id="BLAa" d="M113 239c-3.604 0-6.409 6-11 6 0-5.062-11-15.977-11-25 0-5.861 5.333-3 8-3h1c0 2.343 5.793 7.147 7.5 8l2.5 3 1 2 1 1v1l1 1v6Z"/><path fill="#E64438" id="HY" d="m175 221 2 1v-3l-6-3c0 1.562 2.189 5 4 5Z"/><path fill="#FD4B3C" id="PH" d="M222 235h-12.5l-4.5 2c-6.598 0-7.271-7.959-5-12.5l6-5.5c1.238 0 3-.423 3-2 5.787 0 16-.89 16 8l-1 8-2 2Z"/><path fill="#E64438" id="HY" d="m282 221-2 1-1-3 7-3-4 5Z"/><path fill="#9DE79B" id="BLAa" d="M343 239c3.782 0 6.509 6 11 6l3.5-5c1.548-1.548 8.5-16.768 8.5-19 0-6.374-5.314-4-9-4l-6 6-2 2-2 2-1 1-1 1v2l-1 1v1l-1 1v5Z"/><path fill="#C8CBCC" id="ec" d="M110 227v1l-2.5-3c-1.707-.853-7.5-5.657-7.5-8l10 10Z"/><path fill="#FD4B3C" id="PH" d="M235 235c6.086 0 12.285 2 17 2 4.745 0 7.145-7.21 5-11.5l-6-6.5-3-1c-5.601 0-17-3.126-17 7l1 8 3 2Z"/><path fill="#C8CBCC" id="ec" d="M357 217c-2.473 0-6 3.527-6 6l6-6Z"/><path fill="#F2483A" id="LHA" d="M171 259h2c1.046 0 6.474-2 10-2l4-2c0-3.591 3.117-4 6-4 0-3.684 4.428-18.645 3-21.5-1.179-2.357-1.702-7.101-4.5-8.5-.93-.465-4.5-.817-4.5-2h-10v3c0 4.791 5.365 16-5 16l-9 4.5 1 8.5 7 8ZM283 259h2c3.714 0 5.958-9 8-9l1-6.5c-1.282-2.565-10-4.468-10-5.5-11.037 0-4-12.404-4-16l-1-3h-10c0 .726-6.954 4.408-8 6.5-3.785 7.569 3 19.051 3 25.5 2.522 0 6 1.432 6 4l3 2c3.526 0 8.954 2 10 2Z"/><path fill="#9DE69C" id="BLAp" d="M88 252h3l6-2 2-1 1-1 2-3c0-5.062-11-15.977-11-25l-2 3.5c-2.433 4.866-7.287 16.426-4 23l2 3.5 1 2Z"/><path fill="#F2473A" id="PST" d="M172 228v10c10.365 0 5-11.209 5-16l-2-1c0 2.881-1.292 4-4 4l1 3ZM285 227l-1 11c-11.037 0-4-12.404-4-16l2-1c0 2.343.285 4 3 4v2Z"/><path fill="#9DE69C" id="BLAp" d="M365 252h3l1-1 1-1v-1l1-1c0-4.061.83-27-5-27 0 2.232-6.952 17.452-8.5 19l-3.5 5 3 4 2 1 6 2Z"/><path fill="#80BFE0" id="CEAc" d="m116 222-1 1 1-1Z"/><path fill="#A0EE9C" id="EPd" d="m67 223 1 1-1-1Z"/><path fill="#C8CBCC" id="ec" d="M351 223c-1.747 0-2 .253-2 2l2-2Z"/><path fill="#FD5D50" id="PVi" d="M229 270h3v-37l-1-8h-6l-1 8v37h3l.5-38c2.151-1.075 1.5 7.196 1.5 8.5V270Z"/><path fill="#E64438" id="HY" d="m287 226-2 1v-2l1-1 1 2ZM170 226l2 2-1-3-1 1Z"/><path fill="#C8CBCC" id="ec" d="M349 225c-1.747 0-2 .253-2 2l2-2Z"/><path fill="#97D6F9" id="STR" d="M112 232h1v-2l-1-2-2-1v1l1 2 1 1v1ZM347 227l-1 1 1-1Z"/><path fill="#C9C8CA" id="ee" d="M385 227c0 1.93 1.93 0 0 0Z"/><path fill="#97D6F9" id="STR" d="m346 228-1 1 1-1ZM344 231h1v-2h-1l-1 1 1 1Z"/><path fill="#8AD987" id="CTXsp" d="m111 230 1 1-1-1Z"/><path fill="#80BEE2" id="IA" d="m128 245-2 1c-1.767 0-11-5.055-11-7l-2-3v-6c2.408 0 10 6.173 10 8 0 .966 2.886 3 4 3l1 4ZM329 246h1c3.923 0 7.462-6 11-6l1-1 1-2v-3l1-1v-2l-1-1c-4.217 0-6.259 8-10 8l-4 4v4Z"/><path fill="#8AD987" id="CTXsp" d="M377 237h5l2-4c-3.067 0-4.726-3-6-3 0 1.145.579 4-1 4v3ZM79 236l-5 1-3-6c1.791 0 2.96 3.27 5.5 2l1.5-2h1v5ZM345 231l-1 1v-1h1ZM113 232v1l-1-1h1Z"/><path fill="#A8A9AA" id="V3" d="M225 291h7v-2c0-2.029-1.191-1.881-2-3.5l-1-15.5v-29.5c0-1.304.651-9.575-1.5-8.5l-.5 38v12.5c-.579 1.157-3 5.491-3 6.5l1 2Z"/><path fill="#8AD987" id="CTXsp" d="m385 232-1 1 1-1Z"/><path fill="#C8C9CB" id="amc" d="M79 236c0 1.424.362 5 2 5 0-1.552-.566-8-2-8v3Z"/><path fill="#E64438" id="HY" d="M222 235h2v-2l-2 2ZM235 235l-3 1v-3l3 2Z"/><path fill="#8AD987" id="CTXsp" d="m344 233-1 1 1-1Z"/><path fill="#97D6F9" id="STR" d="M123 238c0 .966 2.886 3 4 3 0-1.321.684-6-1-6 0 2.041-.959 3-3 3Z"/><path fill="#FE5445" id="DMH" d="M219 262h5v-27h-14.5l-4.5 2-2 2.5v15l2.5 4.5c.93.465 4.5.817 4.5 2 3.222 0 6.277 1 9 1ZM246 261c-2.707 0-5.903 1-8 1-2.124 0-4.436-1-6-1v-25l3-1c6.086 0 12.285 2 17 2 0 3.963 4.39 10.72 2 15.5l-3.5 6.5c-.93.465-4.5.817-4.5 2Z"/><path fill="#C8C9CB" id="amc" d="M377 237c0 1.424-.362 5-2 5 0-1.296.825-7 2-7v2Z"/><path fill="#A0ED9D" id="EPv" d="M88 268h1v-13l-1-3-1-2-4-5-1-1v-1l-1-1v-1c-1.638 0-2-3.576-2-5l-5 1c0 5.812 8.237 18.973 11 24.5l3 6.5Z"/><path fill="#8AD987" id="CTXsp" d="M113 239h2l-2-3v3Z"/><path fill="#A0ED9D" id="EPv" d="M368 268h1c0-9.316 13-20.912 13-31h-5c0 1.424-.362 5-2 5v1l-1 1-3 4-1 1v1l-1 1-1 1-1 2v14h1Z"/><path fill="#97D6F9" id="STR" d="m333 238-4 4c0-1.235-.643-5 1-5l3 1Z"/><path fill="#8AD987" id="CTXsp" d="M342 239h1v-2l-1 2Z"/><path fill="#84E981" id="BMAp" d="M109 263h3c3.232 0 9.055-9 14-9l2-3v-2l-2-3c-1.767 0-11-5.055-11-7h-2c-3.604 0-6.409 6-11 6l-2 3-1 1 1 2c0 3.974 9 7.453 9 12Z"/><path fill="#8AD987" id="CTXsp" d="m342 239-1 1 1-1Z"/><path fill="#84E981" id="BMAp" d="M345 263h2c0-1.77 8.062-12 10-12v-2l-3-4c-4.491 0-7.218-6-11-6h-1l-1 1c-3.538 0-7.077 6-11 6l-1 1v6l2 1 6.5 3 7.5 6Z"/><path fill="#C8C9CB" id="amc" d="m81 242 1 1-1-1ZM375 243l-1 1 1-1ZM82 244l1 1-1-1Z"/><path fill="#97D6F9" id="STR" d="m126 246 2 3v-4l-2 1ZM330 246l-1 1v-1h1Z"/><path fill="#8AD987" id="CTXsp" d="m100 248-1 1 1-1Z"/><path fill="#90EB8D" id="LA" d="m371 248-1 1 1-1Z"/><path fill="#8AD987" id="CTXsp" d="m97 250 3 1-1-2-2 1ZM359 250l-2 1v-2l2 1Z"/><path fill="#9CE79C" id="BLAv" d="M97 279h4l8-5c0-1.24 2-1.576 2-4v-5l-2-2c0-4.547-9-8.026-9-12l-3-1-6 2-2 3v18l1 2c2.367 0 4.032 4 7 4ZM355 279h4c3.299 0 5.317-4 7-4l1-5v-16l-2-2-6-2-2 1c-1.938 0-10 10.23-10 12l-2 4v4l3 4c2.83 0 4.54 4 7 4Z"/><path fill="#90EB8D" id="LA" d="m370 250-1 1 1-1Z"/><path fill="#8AD987" id="CTXsp" d="m126 254 2 2v-5l-2 3Z"/><path fill="#C7C8CA" id="fx" d="M193 251c-2.883 0-6 .409-6 4 0 5.546 6 4.403 6-4ZM264 251c2.522 0 6 1.432 6 4 0 3.496-5.638 4.224-7 1.5-.978-1.956 1-4.077 1-5.5Z"/><path fill="#8AD987" id="CTXsp" d="m369 251-1 1 1-1ZM91 252l-2 3-1-3h3ZM368 252l-1 2-2-2h3ZM331 254l-2 1v-2l2 1Z"/><path fill="#84EA80" id="BMAa" d="M115 273h4l7-2 2-2v-13l-2-2c-4.945 0-10.768 9-14 9l-1 2v5c2.349 0 1.382 3 4 3ZM338 273h3l4-2v-8l-7.5-6-6.5-3-2 1c0 3.823-1 8.586-1 13l2 3h2l1 1 5 1Z"/><path fill="#F24839" id="TU" d="m208 288-1 1c-18.575 0-20.533-4.565-28-19.5-1.469-2.937-6-5.783-6-8.5v-2c1.046 0 6.474-2 10-2 5.381 0 9.074 7.648 11 11.5.557 1.114.41 5.5 2 5.5 0 4.226 4.979 10 9 10l3 2v2ZM249 287v2c19.176 0 20.382-4.263 28-19.5l6-7.5 1-1-1-2c-1.046 0-6.474-2-10-2-4.991 0-9.297 9.095-11 12.5-.557 1.114-.41 5.5-2 5.5 0 2.904-3.775 8-7 8l-1 1h-1c0 1.481-2 .785-2 3Z"/><path fill="#E64438" id="HY" d="M173 259v2l-2-2h2ZM285 259l-1 2-1-2h2Z"/><path fill="#FF4A3D" id="VMH" d="m213 281-8 3c-4.021 0-9-5.774-9-10 0-6.4 7.817-13 14-13 3.222 0 6.277 1 9 1l3 5.5-1 5.5-2 2-2 2-1 1-1 1-1 1-1 1Z"/><path fill="#E64438" id="HY" d="M251 284c0 1.481-2 .785-2 3l-17-17v-9c1.564 0 3.876 1 6 1 0 2.78-5.116 5.268-3 9.5 2.567 5.134 10.344 12.5 16 12.5Z"/><path fill="#FF4A3D" id="VMH" d="M251 284h1l1-1c3.225 0 7-5.096 7-8 0-7.102-6.907-14-14-14-2.707 0-5.903 1-8 1 0 2.78-5.116 5.268-3 9.5 2.567 5.134 10.344 12.5 16 12.5Z"/><path fill="#E64438" id="HY" d="m284 261-1 1 1-1ZM224 270c0 1.658-1.461 3-3 3l1-5.5-3-5.5h5v8Z"/><path fill="#8AD987" id="CTXsp" d="m112 263-1 2-2-2h3ZM347 263l-2 4v-4h2ZM88 269h1v-1h-1v1Z"/><path fill="#99D2BD" id="OLF" d="m330 271-2 1v-4l2 3Z"/><path fill="#8AD987" id="CTXsp" d="M367 270h1v-2h-1v2Z"/><path fill="#99D2BD" id="OLF" d="m369 268-1 1v-1h1ZM89 269v2l-1-2h1ZM126 271l3 2-1-4-2 2Z"/><path fill="#8AD987" id="CTXsp" d="M109 274h6v-1c-2.618 0-1.651-3-4-3 0 2.424-2 2.76-2 4Z"/><path fill="#FF5B4F" id="ARH" d="M217 291c0-4.969 4.47 0 6 0l1-2c0-1.009 2.421-5.343 3-6.5V270h-3c0 1.658-1.461 3-3 3 0 1.747-.253 2-2 2 0 1.747-.253 2-2 2l-1 1-1 1-1 1-1 1-5 5v2l1 2c1.819 0 4.591 1 7 1h1ZM240 291h1l7-1 1-1v-2l-17-17h-3l1 15.5c.809 1.619 2 1.471 2 3.5l2 2c1.53 0 6-4.969 6 0Z"/><path fill="#99D2BD" id="OLF" d="m366 275 3 1c0-1.564-1-3.876-1-6h-1l-1 5Z"/><path fill="#60E6B5" id="COApm" d="M135 285c-4.007 0-7.847 7-12 7l-2-3.5c0-5.017-4-8.678-4-13.5l2-2 7-2 3 2 1 2 1 1v1l1 1 1 2 1 1 1 3v1ZM321 284l12 8c1.313 0 6-14.624 6-17l-1-2-5-1-1-1h-2l-2 1-1 1c0 4.058-6 7.012-6 11Z"/><path fill="#99D2BD" id="OLF" d="m332 271 1 1-1-1Z"/><path fill="#8AD987" id="CTXsp" d="M341 274c2.409 0 5.181 1 7 1l-3-4-4 2v1Z"/><path fill="#99D2BD" id="OLF" d="m328 272-1 1 1-1ZM90 275l-2 1 1-3 1 2ZM115 274l2 1 2-2h-4v1Z"/><path fill="#E64438" id="HY" d="m221 273-2 2c1.747 0 2-.253 2-2Z"/><path fill="#99D2BD" id="OLF" d="m341 274-2 1-1-2h3v1Z"/><path fill="#5FE6B7" id="COApl" d="M99 300v1c4.47 0 24-4.715 24-9l-2-3.5c0-5.017-4-8.678-4-13.5l-2-1h-6l-8 5-2 3v18ZM357 300v1c-4.391 0-24-5.124-24-9 1.313 0 6-14.624 6-17l2-1c2.409 0 5.181 1 7 1 2.83 0 4.54 4 7 4l2 2v19Z"/><path fill="#59D9AA" id="PAA" d="m99 300-1 1c-6.649 0-18.151-8-20-8l3-3.5 7-13.5 2-1c2.367 0 4.032 4 7 4l2 3v18Z"/><path fill="#99D2BD" id="OLF" d="m130 275 1 1-1-1Z"/><path fill="#E64438" id="HY" d="m219 275-2 2c1.747 0 2-.253 2-2Z"/><path fill="#59D9AA" id="PAA" d="m357 300 2 1c2.924 0 19-5.123 19-8 0-5.661-9-11.002-9-17l-3-1c-1.683 0-3.701 4-7 4l-2 2v19Z"/><path fill="#99D2BD" id="OLF" d="m131 277 1 1-1-1Z"/><path fill="#E64438" id="HY" d="m217 277-1 1 1-1ZM216 278l-1 1 1-1Z"/><path fill="#99D2BD" id="OLF" d="m101 279-2 3-2-3h4Z"/><path fill="#E64438" id="HY" d="m215 279-1 1 1-1Z"/><path fill="#99D2BD" id="OLF" d="m359 279-2 2-2-2h4ZM133 280l1 1-1-1Z"/><path fill="#E64438" id="HY" d="m214 280-1 1 1-1ZM205 284l3 2 5-5-8 3ZM253 283l-1 1 1-1Z"/><path fill="#99D2BD" id="OLF" d="m136 284-1 1v-1h1Z"/><path fill="#E64438" id="HY" d="m207 289 2 1-1-2-1 1Z"/><path fill="#F1473A" id="ME" d="M217 292c0 6.087 14.613 6.444 17.5 5l5.5-5v-1c0-4.969-4.47 0-6 0h-11c-1.53 0-6-4.969-6 0v1Z"/><path fill="#E64438" id="HY" d="M223 291h2l-1-2-1 2ZM232 291h2l-2-2v2ZM249 289l-1 1 1-1ZM217 291v1l-1-1h1ZM241 291l-1 1v-1h1Z"/><path fill="#99D2BD" id="OLF" d="M98 301h1v-1l-1 1ZM357 301h2l-2-1v1Z"/></svg>