<svg xmlns="http://www.w3.org/2000/svg" viewBox="0 0 456 320"><path fill="#098589" id="VISp1" d="M85 62h1c0-2.798 17.689-13.594 20.5-15 21.758-10.88 38.052-25 64.5-25v-3c-27.371 0-45.954 12.727-68.5 24C99.889 44.306 83 55.257 83 58l2 4Z"/><path fill="#0A8589" id="VISpm1" d="M171 23h4l1-4h-5v4Z"/><path fill="#1BA696" id="RSPagl1" d="M194 23c0 1.408-1.197 5-3 5-.179 0-9.099-5-16-5l1-4 12.5 1 5.5 3ZM265 29h1c0-5.494 10.697-6 15-6v-4c-4.864 0-12.379-.06-16.5 2l-2.5 2 3 6Z"/><path fill="#0A8589" id="VISpm1" d="M281 23h4v-1l1-3h-5v4Z"/><path fill="#098589" id="VISp1" d="M374 58c0 1.658-1.461 3-3 3-4.113 0-14.934-12.217-18.5-14-21.695-10.848-41.25-25-67.5-25l1-3c27.701 0 46.661 13.58 69.5 25 2.16 1.08 18.5 12.482 18.5 14Z"/><path fill="#0A828C" id="VISp2/3" d="M90 69h1c0-1.029 15.452-10.976 17.5-12 21.187-10.594 37.83-27 63.5-27l-1-7v-1c-26.448 0-42.742 14.12-64.5 25C103.689 48.406 86 59.202 86 62c0 2.83 4 4.54 4 7ZM365 69h1l5-6v-2c-4.113 0-14.934-12.217-18.5-14-21.695-10.848-41.25-25-67.5-25v1l-1 7c25.982 0 42.095 16.298 63.5 27 2.187 1.093 17.5 10.32 17.5 12Z"/><path fill="#08858B" id="VISpm2/3" d="M172 30h1c2.273 0 2-5.226 2-7h-4l1 7Z"/><path fill="#1AA496" id="RSPagl2/3" d="M172 33c2.142 0 10-3.155 10 2 3.519 0 6.853-6 9-6v-1c-.179 0-9.099-5-16-5 0 1.774.273 7-2 7l-1 2v1Z"/><path fill="#1BA598" id="RSPd1" d="M160 70h2l11-12.5c5.506-5.506 25.413-16.825 28-22 2.13-4.26-1.61-12.5-7-12.5 0 1.408-1.197 5-3 5v1c4.328 0 .634 8.232 0 9.5-1.423 2.846-18.919 16.92-22.5 20.5l-7.5 8-1 3ZM295 70h1c0-3.689-5.799-7.098-7-9.5-4.503-9.005-20.771-15.542-25-24-1.182-2.364 1-5.696 1-7.5l-3-6c-4.013 0-9.03 8.44-7 12.5 2.13 4.26 25.618 18.618 31 24 2.068 2.068 5.429 10.5 9 10.5Z"/><path fill="#1AA496" id="RSPagl2/3" d="M274 35h1c0-4.891 6.289-2 9-2v-2l-1-1-2-7c-4.303 0-15 .506-15 6 2.393 0 4.038 6 8 6Z"/><path fill="#08858B" id="VISpm2/3" d="M283 30h1l1-7h-4l2 7Z"/><path fill="#1BA697" id="RSPd2/3" d="M182 35c0 12.356-21 23.195-21 32l7.5-8c3.581-3.58 21.077-17.654 22.5-20.5.634-1.268 4.328-9.5 0-9.5-2.147 0-5.481 6-9 6ZM298 69l-2 1c0-3.689-5.799-7.098-7-9.5-4.503-9.005-20.771-15.542-25-24-1.182-2.364 1-5.696 1-7.5h1c2.393 0 4.038 6 8 6 0 10.359 12.671 16.842 17 25.5l7 8.5Z"/><path fill="#0B848B" id="VISp4" d="M93 74h1c0-.505 14.679-10.09 16.5-11l10-8c15.817-7.909 31.598-22 50.5-22h1v-3c-25.67 0-42.313 16.406-63.5 27C106.452 58.024 91 67.971 91 69l2 5Z"/><path fill="#09828B" id="VISpm4" d="m173 30-1 2v-2h1ZM284 30v1l-1-1h1Z"/><path fill="#0B848B" id="VISp4" d="M362 74h1c0-1.624 2-2.75 2-5 0-1.68-15.313-10.907-17.5-12-21.405-10.702-37.518-27-63.5-27v3h1c18.41 0 34.102 13.301 49.5 21l9 7c2.22 1.11 18.5 12.517 18.5 13Z"/><path fill="#1CA697" id="RSPagl5" d="M161 44h4l17-9c0-5.155-7.858-2-10-2h-1c0 3.409-10 8.668-10 11ZM292 44h3l-10-11h-1c-2.711 0-9-2.891-9 2 0 1.43 16 7.885 16 9h1Z"/><path fill="#088389" id="VISp5" d="m94 74 5 8c4.818 0 8.536-8.018 12.5-10 11.787-5.893 35.233-28 48.5-28h1c0-2.332 10-7.591 10-11-18.902 0-34.683 14.091-50.5 22l-10 8c-1.821.91-16.5 10.495-16.5 11ZM362 74l-5 8-13.5-11c-12.7-6.35-33.794-27-47.5-27h-1l-10-11c18.41 0 34.102 13.301 49.5 21l9 7c2.22 1.11 18.5 12.517 18.5 13Z"/><path fill="#1AA596" id="RSPd5" d="M161 67c-1.747 0-2 .253-2 2l-7-2 12-12.5c.608-1.217 5.894-9.5 1-9.5v-1l17-9c0 12.356-21 23.195-21 32ZM305 67l-7 2-7-8.5c-4.329-8.658-17-15.141-17-25.5h1c0 1.43 16 7.885 16 9 0 11.14 1.232 6.965 6 16.5l8 6.5Z"/><path fill="#FF7AFD" id="SCzo" d="m293 77 2 1c0-12.855-26.895-30.197-36.5-35-2.907-1.453-10.15-3.925-14-2-5.018 2.51-9.753 5.753-14 10l-2 6-3.5-7.5c-1.836-3.671-10.137-6.818-13.5-8.5-6.279-3.14-28.5 7.451-28.5 12 2.076 0 15.481-8.49 18.5-10 3.717-1.858 10.223.612 13 2 9.509 4.754 12.5 11.283 12.5 22h3l1-13.5c3.05-6.1 16.634-14.433 24.5-10.5 5.482 2.741 11.156 7.578 16 10 3.589 1.795 9.804 6.109 11.5 9.5 2.268 4.535 10 8.05 10 14.5Z"/><path fill="#FF78FF" id="SCsg" d="m165 71-2 6c3.921 0 10.261-7.88 14.5-10 6.408-3.204 12.565-6.782 19-10 3.284-1.642 7.667-1.334 11-3 9.473-4.737 16.417 13 19.5 13 0-10.717-2.991-17.246-12.5-22-2.777-1.388-9.283-3.858-13-2-3.019 1.51-16.424 10-18.5 10l-15 14c0 1.429-1.288 4-3 4ZM230 67c2.206 0 9.288-18.106 19.5-13l15 5c4.822 2.411 9.174 5.587 14 8L293 77c0-6.45-7.732-9.965-10-14.5-1.696-3.391-7.911-7.705-11.5-9.5-4.844-2.422-10.518-7.259-16-10-7.866-3.933-21.45 4.4-24.5 10.5L230 67Z"/><path fill="#08858C" id="VISp6a" d="m107 87-4 2c0-.78-3.19-6-4-6v-1c4.818 0 8.536-8.018 12.5-10 11.787-5.893 35.233-28 48.5-28l-15 16.5-4 4.5c-1.838 0-11 3.879-11 6-1.238 0-3 .423-3 2-1.417 0-6 2.383-6 4-2.293 0-14 7.424-14 10Z"/><path fill="#1CA597" id="RSPagl6a" d="M141 66h2c0-3.147 18.789-21 22-21v-1h-5l-15 16.5-4 4.5v1Z"/><path fill="#1AA697" id="RSPd6a" d="M311 66h2c0-6.297-21-19.89-21-22h-1c0 11.14 1.232 6.965 6 16.5l8 6.5 6-1Z"/><path fill="#1CA597" id="RSPagl6a" d="M313 66h2v-1c0-5.265-19-18.41-19-21h-4c0 2.11 21 15.703 21 22Z"/><path fill="#08858C" id="VISp6a" d="m357 83-4 6-7.5-6c-8.286-4.143-21.191-18-30.5-18 0-5.265-19-18.41-19-21 13.706 0 34.8 20.65 47.5 27L357 82v1Z"/><path fill="#1AA697" id="RSPd6a" d="m145 66 7 1 12-12.5c.608-1.217 5.894-9.5 1-9.5-3.211 0-22 17.853-22 21h2Z"/><path fill="#FF7AFD" id="SCzo" d="M183 53c-3.642 0-15 10.094-15 14l15-14Z"/><path fill="#FD7AFF" id="SCop" d="M162 81c4.424 0 8.672-6.086 12.5-8 8.323-4.161 16.777-7.888 25-12 14.2-7.1 17.791 6.395 25 10 2.104 1.052 2.67-2 4-2 .8 0 .712 3.144 3 2 5.145-2.573 6.929-8.465 12-11 13.162-6.58 45.1 21 51.5 21v-3l-2-1-14.5-10c-4.826-2.413-9.178-5.589-14-8l-15-5c-10.212-5.106-17.294 13-19.5 13h-3c-3.083 0-10.027-17.737-19.5-13-3.333 1.666-7.716 1.358-11 3-6.435 3.218-12.592 6.796-19 10-4.239 2.12-10.579 10-14.5 10l-2 1v2l1 1Z"/><path fill="#09848A" id="VISl1" d="m66 76 3 2 16-16-2-4-4.5 4C75.257 65.243 66 72.248 66 76ZM391 76l-3 2c-6.098 0-10.417-15-17-15v-2c1.539 0 3-1.342 3-3l12.5 13 4.5 5Z"/><path fill="#FF90FF" id="SCig" d="M155 103c0-10.954 34.848-27.174 44.5-32 2.922-1.461 11.164-3.918 15-2 7.108 3.554 6.523 12 16 12l12-12c8.493-4.246 20.821 4.91 27 8 6.499 3.25 32.5 18.362 32.5 26 4.873 0 1-9.131 1-11v-1l-1-1-1-1v-1l-1-1-5-6c-6.4 0-38.338-27.58-51.5-21-5.071 2.535-6.855 8.427-12 11-2.288 1.144-2.2-2-3-2-1.33 0-1.896 3.052-4 2-7.209-3.605-10.8-17.1-25-10-8.223 4.112-16.677 7.839-25 12-3.828 1.914-8.076 8-12.5 8l-1 1-1 1h-1v1l-1 1h-1v1l-1 1v1l-1 1v1l-1 1-1 1c0 2.831-3.289 11 2 11Z"/><path fill="#0A8489" id="VISl2/3" d="m69 79 5 4 16-14c0-2.46-4-4.17-4-7h-1L69 78v1ZM382 84h1c0-1.654 3.74-5 5-5v-1c-6.098 0-10.417-15-17-15l-5 6c.583 0 16 14.034 16 15Z"/><path fill="#08858A" id="VISp6b" d="M141 67c-4.237 0-6.802 4-11 4 0-2.121 9.162-6 11-6v2ZM352 90h1v-1l-7.5-6c-8.286-4.143-21.191-18-30.5-18v2c6.946 0 18.656 8.156 23.5 13l6.5 5 7 5Z"/><path fill="#47C83C" id="POST" d="M115 109c8.099 0 16.484 1 24 1l4-7.5c2.485-4.97 13-18.866 13-23.5-2.354 0-8.331-10.162-9-11.5l-2-1.5h-4v1l-3 4c0 1.442-3.274 6-5 6 0 4.274-18 25.735-18 32Z"/><path fill="#33B932" id="APr" d="m162 70-6 9c-2.354 0-8.331-10.162-9-11.5l-2-1.5 7 1 7 2 1 1h2ZM295 70h1l2-1 7-2 6-1c0 4.647-10 8.951-10 14-1.727 0-6-8.413-6-10Z"/><path fill="#47C83C" id="POST" d="M341 109c-8.186 0-16.344 1-24 1l-16-30c0-5.049 10-9.353 10-14h4v1l2 3 1 1h1c0 1.417 2.383 6 4 6l8 10.5c1.889 3.778 10 18.233 10 21.5Z"/><path fill="#C9C9CA" id="scwm" d="M112 85h2l1-1c6.058 0 16.447-13 23-13l3-4c-4.237 0-6.802 4-11 4 0 1.577-1.762 2-3 2 0 2.177-4.336 4-6 4 0 3.972-9 4.382-9 8Z"/><path fill="#1BA697" id="RSPd2/3" d="m159 69 1 1 1-3c-1.747 0-2 .253-2 2Z"/><path fill="#FF7AFD" id="SCzo" d="M168 67c-1.712 0-3 2.571-3 4 1.712 0 3-2.571 3-4Z"/><path fill="#C9C9CA" id="scwm" d="m341 84 4 1-6.5-5c-4.844-4.844-16.554-13-23.5-13l2 3 1 1h1l22 13Z"/><path fill="#08828B" id="VISl4" d="M74 85c2.215 0 1.519 2 3 2l4.5-4c1.43-.715 11.5-6.385 11.5-9l-2-5h-1L74 83v2Z"/><path fill="#FF90FE" id="SCiw" d="M169 110c0-7.072 13.292-13.896 19.5-17 7.491-3.746 13.577-10.288 21-14 4.317-2.158 13.633 3.317 17 5 6.049 3.025 13.64-8.18 20-5 6.335 3.168 11.565 8.782 18 12 6.212 3.106 22.5 11.055 22.5 19 5.79 0 11.812-7 15-7 0-7.638-26.001-22.75-32.5-26-6.179-3.09-18.507-12.246-27-8l-12 12c-9.477 0-8.892-8.446-16-12-3.836-1.918-12.078.539-15 2-9.652 4.826-44.5 21.046-44.5 32 0 2.889 11.366 7 14 7Z"/><path fill="#08828B" id="VISl4" d="M379 87h1l2-3c0-.966-15.417-15-16-15h-1c0 2.25-2 3.376-2 5l16 13Z"/><path fill="#C8C9CA" id="fp" d="m317 70 1 1-1-1Z"/><path fill="#08858A" id="VISp6b" d="M130 71c-1.238 0-3 .423-3 2 1.238 0 3-.423 3-2Z"/><path fill="#C8C9CA" id="fp" d="m114 86 1 1 8-4 1-1h1l8-5c1.726 0 5-4.558 5-6-6.553 0-16.942 13-23 13l-1 1v1Z"/><path fill="#FF7AFD" id="SCzo" d="m163 77-2 1c0-1.572 2.052-7 4-7l-2 6Z"/><path fill="#C8C9CA" id="fp" d="M342 87h1c0-2.215-2-1.519-2-3l-22-13c0 1.417 2.383 6 4 6 1.417 0 10 4.685 10 6l3 1 1 1 5 2Z"/><path fill="#08858A" id="VISp6b" d="M127 73c-1.417 0-6 2.383-6 4 1.664 0 6-1.823 6-4Z"/><path fill="#0B858B" id="VISl5" d="m77 88 7 7c5.111 0 9.243-12 15-12v-1l-5-8h-1c0 2.615-10.07 8.285-11.5 9L77 87v1ZM372 96h1c0-3.986 6-5.718 6-9l-16-13h-1l-5 8v1c2.704 0 15 9.808 15 13Z"/><path fill="#0C858C" id="VISli1" d="M60 89h1c0-1.716 6.218-10 8-10v-1l-3-2c-1.393 0-8 8.38-8 10l2 3ZM396 89h1c0-1.747.253-2 2-2 0-4.322-8-7.244-8-11l-3 2v1l8 10Z"/><path fill="#08858A" id="VISp6b" d="m112 85-5 2c0-2.576 11.707-10 14-10 0 3.972-9 4.382-9 8Z"/><path fill="#7DCD4B" id="HPF" d="M71 132c0 14.913-2.67 32.158 4 45.5.97 1.94 2.878 9.5 6 9.5 0-2.604-6.46-18.42-8-21.5-1.645-3.29-.412-15.176 1-18l1-8c8-16 6.838-19.5 26-19.5 2.707 0 5.903 1 8 1 0-2.286 3.343-12 6-12 0-6.265 18-27.726 18-32l-8 5c3.713 0-3.773 9.046-5 11.5-5.257 10.513-10.839 17.17-21.5 22.5-4.21 2.105-13.5 5.682-13.5-1h-1l-1 1-1 1-1 1-1 1-1 2c0 .872-7.664 11-8 11ZM386 135c0 12.144 2.1 28.3-3 38.5-1.038 2.076-2.804 11.5-6 11.5 0-5.162 3.741-12.982 6-17.5 4.837-9.675-4.551-42.025-13.5-46.5-5.039-2.52-9.008-1-14.5-1h-7c0-2.363-4.895-11-7-11 0-3.267-8.111-17.722-10-21.5L323 77c1.417 0 10 4.685 10 6-.088 0-4-2.236-4-.5l6 8c5.514 11.029 10.87 19.685 22.5 25.5 4.21 2.105 13.5 5.682 13.5-1 4.356 0 11.854 16 14 16v2l1 2Z"/><path fill="#0A858A" id="VISli2/3" d="M61 89c0 1.247 2.467 5 4 5l9-9v-2l-5-4c-1.782 0-8 8.284-8 10Z"/><path fill="#FF8FFF" id="SCdg" d="M278 120h1c0-2.441 8-6.085 8-10 0-7.945-16.288-15.894-22.5-19-6.435-3.218-11.665-8.832-18-12-6.36-3.18-13.951 8.025-20 5-3.367-1.683-12.683-7.158-17-5-7.423 3.712-13.509 10.254-21 14-6.208 3.104-19.5 9.928-19.5 17l8 10h1c4.494 0 8.381-3 12-3l-1-8.5c4.065-8.13 11.895-16.198 20.5-20.5l20.5 1 16.5-1c7.992 3.996 16.329 11.157 20.5 19.5l-1 9.5c3.821 0 7.372 3 12 3Z"/><path fill="#0A858A" id="VISli2/3" d="m396 89-5 5-8-10c0-1.654 3.74-5 5-5l8 10Z"/><path fill="#FF64FF" id="MB" d="M161 81h1l-1-1v1Z"/><path fill="#C7CBCB" id="bsc" d="M160 82h1v-1l-1 1Z"/><path fill="#FD7AFF" id="SCop" d="m162 81-1 1v-1h1Z"/><path fill="#C7CBCB" id="bsc" d="M300 87h1c0-1.702-4.802-6-6-6l5 6Z"/><path fill="#7DCD4B" id="HPF" d="m124 82-1 1 1-1Z"/><path fill="#C9CCC9" id="dhc" d="m86 112-1 3c0 6.682 9.29 3.105 13.5 1 10.661-5.33 16.243-11.987 21.5-22.5 1.227-2.454 8.713-11.5 5-11.5h-1l-1 1-8 4-4 2c0 2.158-5.64 6-8 6 0 1.747-.253 2-2 2 0 1.977-2.876 4-5 4l-1 1-1 1-1 1-1 1-1 1-1 1-1 1v1l-1 1-1 1-1 1Z"/><path fill="#C7CBCB" id="bsc" d="M159 83h1v-1l-1 1Z"/><path fill="#FF64FF" id="MB" d="m161 82-1 1v-1h1Z"/><path fill="#C9CCC9" id="dhc" d="m369 111 2 4c0 6.682-9.29 3.105-13.5 1-11.63-5.815-16.986-14.471-22.5-25.5l-6-8c0-1.736 3.912.5 4 .5l3 1 1 1 5 2 21 17.5 6 5.5v1Z"/><path fill="#08848C" id="VISl6a" d="M93 99h1l9-9v-1c0-.78-3.19-6-4-6-5.757 0-9.889 12-15 12v1c1.71 0 7 .718 7 3h2Z"/><path fill="#C7CBCB" id="bsc" d="M158 84h1v-1l-1 1Z"/><path fill="#08848C" id="VISl6a" d="M364 99h1l1-1 6-2c0-3.192-12.296-13-15-13l-4 6v1c2.022 0 10 6.758 10 9h1Z"/><path fill="#CBC9C7" id="or" d="m115 84-1 1 1-1Z"/><path fill="#C7CBCB" id="bsc" d="M157 85h1v-1l-1 1Z"/><path fill="#FF64FF" id="MB" d="m159 84-1 1v-1h1Z"/><path fill="#7DCD4B" id="HPF" d="m336 84 1 1-1-1Z"/><path fill="#CBC9C7" id="or" d="M369 111c4.206 0 5.363 10 10 10 0-5.087-15-15.395-15-20l-2-2-10-9-7-5-4-1c0 1.481 2 .785 2 3 1.983 0 26 20.808 26 23v1Z"/><path fill="#08828C" id="VISli4" d="m391 95-2 1-9-9 2-3h1l8 10v1ZM67 97h1c0-2.51 6.43-9 9-9v-1c-1.481 0-.785-2-3-2l-9 9v1c1.747 0 2 .253 2 2Z"/><path fill="#CBC9C7" id="or" d="M79 119h1l1-1 1-1 1-1 1-1c0-1.238.423-3 2-3l1-1 1-1 1-1v-1l1-1 1-1 1-1 1-1 1-1 1-1 1-1c0-1.811 3.438-4 5-4 0-1.747.253-2 2-2 0-1.89 6.374-6 8-6 0-1.54 1.342-3 3-3v-1h-2l-5 2c0 1.54-1.342 3-3 3l-9 9-1 1-1 1c0 1.838-6.841 8-8 8 0 1.822-3.711 8-6 8v2Z"/><path fill="#09818C" id="VISpor1" d="m39 114 1 8 8-16.5L60 89l-2-3c-2.557 0-19 24.845-19 28Z"/><path fill="#C8CBCC" id="ec" d="m115 87-4 2c0-1.54 1.342-3 3-3l1 1Z"/><path fill="#C7CBCB" id="bsc" d="m157 86-1 1 1-1Z"/><path fill="#08858A" id="VISp6b" d="M103 90h1c1.658 0 3-1.46 3-3l-4 2v1Z"/><path fill="#C7CBCB" id="bsc" d="M155 88h1v-1l-1 1Z"/><path fill="#FF64FF" id="MB" d="M301 87v1l-1-1h1Z"/><path fill="#C8CBCC" id="ec" d="M343 87c1.983 0 26 20.808 26 23l-6-5.5L342 87h1Z"/><path fill="#0A848A" id="VISli5" d="M389 96v1l-7.5 1c-1.802-.901-6.594-2-8.5-2 0-3.986 6-5.718 6-9h1l9 9Z"/><path fill="#09818C" id="VISpor1" d="M418 115c0 .754-.758 8-2 8 0-11.042-19-28.001-19-34 0-1.747.253-2 2-2 2.75 0 19 24.287 19 28Z"/><path fill="#0A848A" id="VISli5" d="M68 97h15l1-1v-1l-7-7c-2.57 0-9 6.49-9 9Z"/><path fill="#C7CBCB" id="bsc" d="M154 90h1v-2l-1 2Z"/><path fill="#FF64FF" id="MB" d="m156 88-1 1v-1h1Z"/><path fill="#FF8FFE" id="SCdw" d="M192 120c0-14.574 9.278-23.89 21.5-30 2.244-1.122 11.674 2 14.5 2l15.5-2c12.344 6.172 20.5 15.095 20.5 30 2.293 0 2-.997 2-3l1-9.5c-4.171-8.343-12.508-15.504-20.5-19.5L230 89l-20.5-1c-8.605 4.302-16.435 12.37-20.5 20.5l1 8.5c0 2.003-.293 3 2 3Z"/><path fill="#C7CBCB" id="bsc" d="m302 90 1 1c0-1.238-.423-3-2-3v1l1 1Z"/><path fill="#0A8389" id="VISpor2/3" d="m47 136 3 1c0-6.257 5-17.879 5-20-8.957 0 9.953-22 10-22v-1c-1.533 0-4-3.753-4-5h-1l-12 16.5-8 16.5v1c1.186 0 1.186 1 0 1v1c1.186 0 1.186 1 0 1v1l1.5 3 3.5 3.5-1 1.5h1l2 1Z"/><path fill="#C8CBCC" id="ec" d="M111 89c-1.626 0-8 4.11-8 6 2.36 0 8-3.842 8-6Z"/><path fill="#FF64FF" id="MB" d="m301 89 1 1-1-1Z"/><path fill="#0A8389" id="VISpor2/3" d="m410 136-4 2c0-8.412-4-16.618-4-21 7.773 0-9.629-22-11-22v-1l5-5h1c0 5.999 19 22.958 19 34v1l1 2v1c-1.657 0-5 6.524-5 8h-1l-1 1Z"/><path fill="#09858C" id="VISl6b" d="M94 99h1l9-9h-1l-9 9Z"/><path fill="#C7CBCB" id="bsc" d="M153 91h1v-1l-1 1Z"/><path fill="#FF64FF" id="MB" d="m155 90-1 1v-1h1Z"/><path fill="#FC8FFF" id="PAG" fill-rule="evenodd" d="M236 139c0 8.533 17.903 5.702 10.5 2l-4.5-1.5-6-.5m-21 0c0 2.903-7 .737-7 4.5 0 1.955 3.889 1.5 5 1.5 3.017 0 13.582-6 2-6m17 4c4.529 0 7.794 6 13 6 6.858 0 13.118-6.736 16-12.5v-5c.809-1.619 2-1.471 2-3.5l1-1v-7c0-14.905-8.156-23.828-20.5-30L228 92c-2.826 0-12.256-3.122-14.5-2-12.222 6.11-21.5 15.426-21.5 30l1 7c0 8.736 8.61 22 18 22 5.564 0 8.974-6 14-6 0-4.107 1-8.469 1-12 0-2.409 1-5.181 1-7 0-2.637-3.245-3.99-4-5.5-.953-1.905 1.358-2.717 2-4 5.32-10.639 11.643 8.5 4 8.5 0 1.477 2 5.699 2 9l1 11Z"/><path fill="#09858C" id="VISl6b" d="M362 99h1c0-2.242-7.978-9-10-9h-1l10 9Z"/><path fill="#FF64FF" id="MB" d="m154 91-1 1v-1h1ZM141 121c1.687 0 4.504-9.502 7.5-11 4.777-2.389 10.5 11.794 10.5 15l6.5-4 11.5-1-8-10c-2.634 0-14-4.111-14-7-5.289 0-2-8.169-2-11l-5 8c5.672 0-7 16.145-7 21ZM285 189c0 .669 12.657 4 14 4 0-3.194 11.16-21.83 13.5-23 4.075-2.037 2.752 5 4.5 5 0-8.356.514-18.528 4-25.5l-1-16.5-2.5 1-.5-5c0-4.11-.29-9.081-2-12.5-.913-1.825-12.989-16.5-7-16.5 0-1.347-3.438-8-5-8 0 1.869 3.873 11-1 11-3.188 0-9.21 7-15 7 0 3.915-8 7.559-8 10 4.039 0 18-.158 18 6 2.374 0 3.611-19.445 10.5-16 4.11 2.055 11.702 18.149 6 21-4.354 2.177-9.326 0-13.5 0l2 5.5-1 7.5c4.261 0 10-.842 10 6 2.714 0 1.637-6.931 5.5-5l.5 2.5c3.941 7.881-6 17.172-6 5.5l-3.5 4-6 2c-3.349 1.675-6.241-2-8.5-2 0 2.226-1.774 4-4 4l10 10.5c2.472 4.944-2.499 15.5-6.5 17.5H285Z"/><path fill="#0A828A" id="VISpor4" d="M67 97c0 5.845-12 13.033-12 20-8.957 0 9.953-22 10-22 1.747 0 2 .253 2 2Z"/><path fill="#C8CBCC" id="ec" d="M103 95c-1.747 0-2 .253-2 2 1.747 0 2-.253 2-2Z"/><path fill="#0A828A" id="VISpor4" d="m389 97 13 20c7.773 0-9.629-22-11-22l-2 1v1Z"/><path fill="#0B838A" id="VISpor5" d="m84 96-1 1 1-1Z"/><path fill="#0C858B" id="VISpor6a" d="M59 137h2l8-5 3-5 1-2c0-1.238.423-3 2-3 0-2.124 2.023-5 4-5 0-2.36 3.842-8 6-8 0-1.852 4.927-8 7-8v-1l-1-1c0-2.282-5.29-3-7-3l-1 1-10 12.5c-3.967 7.934-14 18.319-14 27.5ZM396 137h1c0-11.29-11.217-20.934-16-30.5-1.764-3.528-8-6.369-8-10.5h-1l-6 2-1 1v1l8 9.5c2.542 5.084 15 18.825 15 23.5l8 4Z"/><path fill="#0B838A" id="VISpor5" d="m406 139-1 2-4-2-4-2c0-11.29-11.217-20.934-16-30.5-1.764-3.528-8-6.369-8-10.5 1.906 0 6.698 1.099 8.5 2l7.5-1 13 20c0 4.382 4 12.588 4 21v1ZM51 140h1l3-1 4-2c0-9.181 10.033-19.566 14-27.5L83 97H67c0 5.845-12 13.033-12 20 0 2.121-5 13.743-5 20v1l1 1v1Z"/><path fill="#C8CBCC" id="ec" d="M101 97c-1.562 0-5 2.189-5 4 2.124 0 5-2.023 5-4Z"/><path fill="#08838C" id="VISpl6a" d="m366 98-1 1 1-1ZM92 100h1v-1h-2l1 1Z"/><path fill="#09858C" id="VISl6b" d="M93 100h1v-1h-1v1Z"/><path fill="#08848A" id="VISpl6b" d="m95 99-1 1v-1h1ZM364 100v1l-2-2h2v1Z"/><path fill="#08838C" id="VISpl6a" d="M364 100h1v-1h-1v1Z"/><path fill="#08848A" id="VISpl6b" d="M92 101h1l1-1h-2v1Z"/><path fill="#C9C8C8" id="bic" d="M141 121c-2.427 0-.139 9.778-1 11.5-1.376 2.752-2.426.5-4 .5l1-15c1.638 0 2-3.576 2-5l4-7.5 5-5.5c5.672 0-7 16.145-7 21ZM321 132l-1 1-2.5 1-.5-5c0-4.11-.29-9.081-2-12.5-.913-1.825-12.989-16.5-7-16.5 6.505 0 13 26.156 13 32Z"/><path fill="#0C848C" id="VISpor6b" d="m385 132 3 1c0-4.675-12.458-18.416-15-23.5l-8-9.5h-1v1c0 4.605 15 14.913 15 20 2.641 0 6 7.983 6 10v1ZM93 101c0 1.838-6.841 8-8 8 0-1.852 4.927-8 7-8h1Z"/><path fill="#C8CBCC" id="ec" d="m96 101-1 1 1-1ZM95 102l-1 1 1-1ZM94 103l-1 1 1-1ZM93 104l-1 1 1-1ZM92 105l-1 1 1-1ZM90 107l-1 1 1-1Z"/><path fill="#0C848C" id="VISpor6b" d="M85 109c-2.158 0-6 5.64-6 8 2.289 0 6-6.178 6-8Z"/><path fill="#C8CBCC" id="ec" d="m89 109-1 1 1-1Z"/><path fill="#59B847" id="PRE" d="M127 156c-3.887 0-10.487-7.007-14.5-5-4.337 2.169-5.5 26.455-5.5 32 0 1.174-1.217 11-2.5 11l-1.5-3v-43.5c1.487-2.974 6-23.263 6-26.5 0-2.286 3.343-12 6-12 8.099 0 16.484 1 24 1v3c-1.638 0-2 3.576-2 5-2.16 0-2.237 6.974-3 8.5-2.926 5.852-7 22.771-7 29.5ZM329 156c2.25 0 14.834-6.831 16-4.5 4.836 9.671.668 24.337 5 33l1.5 9.5 1.5-4c0-7.679 2.54-39.419 0-44.5-2.522-5.043-5-19.538-5-25.5 0-2.363-4.895-11-7-11-8.186 0-16.344 1-24 1 0 3.466 2.538 6.575 4 9.5 2.174 4.347 8 31.081 8 36.5Z"/><path fill="#C8CBCC" id="ec" d="m88 110-1 1 1-1Z"/><path fill="#FE79FE" id="ICe" d="M159 125c0 3.205-3 5.611-3 7-11.447 0-15 1.756-15-11 1.687 0 4.504-9.502 7.5-11 4.777-2.389 10.5 11.794 10.5 15ZM297 126c2.374 0 3.611-19.445 10.5-16 4.11 2.055 11.702 18.149 6 21-4.354 2.177-9.326 0-13.5 0-1.477 0-3-3.924-3-5Z"/><path fill="#C8CBCC" id="ec" d="m87 111-1 1 1-1Z"/><path fill="#A9A9A8" id="AQ" d="M229 123c7.643 0 1.32-19.139-4-8.5-.642 1.283-2.953 2.095-2 4 .755 1.51 4 2.863 4 5.5l2-1Z"/><path fill="#C8CBCC" id="ec" d="M379 121c2.641 0 6 7.983 6 10-2.146 0-9.644-16-14-16l-2-4c4.206 0 5.363 10 10 10ZM84 115h1l1-3c-1.577 0-2 1.762-2 3Z"/><path fill="#15B0B3" id="TEa1" d="M39 127c-1.974 0-3.517 2-6 2 0-2.122 3.95-15 6-15l1 8c-1.186 0-1.186 1 0 1v3l-1 1Z"/><path fill="#C8CBCC" id="ec" d="m84 115-1 1 1-1Z"/><path fill="#15B0B3" id="TEa1" d="m417 127 6 2c0-2.333-2.586-14-5-14 0 .754-.758 8-2 8v1l1 2v1Z"/><path fill="#C8CBCC" id="ec" d="m83 116-1 1 1-1Z"/><path fill="#0C848C" id="VISpor6b" d="m77 121-2 1c0-2.124 2.023-5 4-5v2l-2 2Z"/><path fill="#C8CBCC" id="ec" d="m82 117-1 1 1-1Z"/><path fill="#FF64FF" id="MB" d="m192 120 1 7-5.5-4c-1.437-.719-9.5-1.342-9.5-3 4.494 0 8.381-3 12-3 0 2.003-.293 3 2 3ZM278 120c0 2.033-7.021 2.261-8.5 3l-5.5 4v-7c2.293 0 2-.997 2-3 3.821 0 7.372 3 12 3Z"/><path fill="#CBC9C7" id="or" d="M77 121h2v-2l-2 2Z"/><path fill="#C8CBCC" id="ec" d="m80 119-1 2v-2h1Z"/><path fill="#C7C8CC" id="alv" d="m84 189-1 1-2-2v-1c0-2.604-6.46-18.42-8-21.5-1.645-3.29-.412-15.176 1-18l1-8c8-16 6.838-19.5 26-19.5 0 1.658-8.063 2.281-9.5 3-7.319 3.659-11.136 9.773-14.5 16.5-3.07 6.14-3.064 27.872 0 34l7 15.5ZM373 189l1 1 1-2c0-1.238.423-3 2-3 0-5.162 3.741-12.982 6-17.5 4.837-9.675-4.551-42.025-13.5-46.5-5.039-2.52-9.008-1-14.5-1 0 1.951 2.454.477 3.5 1 3.274 1.637 6.761 2.38 10 4 6.178 3.089 8.987 11.474 11.5 16.5 3.223 6.446 2.074 26.853-1 33l-6 14.5Z"/><path fill="#4FC244" id="SUB" d="m102 196-2 1c-6.962 0-13.981-8-16-8l-7-15.5c-3.064-6.128-3.07-27.86 0-34 3.364-6.727 7.181-12.841 14.5-16.5 1.437-.719 9.5-1.342 9.5-3 2.707 0 5.903 1 8 1 0 3.237-4.513 23.526-6 26.5V191l-1 5Z"/><path fill="#FF8FFD" id="MRN" d="M184 186c4.26 0 12.998-3.251 17.5-1 1.619.809 1.471 2 3.5 2l3-12c-1.602 0-2.384 3.058-4.5 2-9.652-4.826.9-6 6.5-6 0-2.107 6-8.992 6-4 3.291 0 4-5.683 4-8l-3-3c0 7.405-9.561-4-3.5-4l1.5 1-4-4c-9.39 0-18-13.264-18-22l-5.5-4c-1.437-.719-9.5-1.342-9.5-3h-1l-11.5 1-6.5 4c0 3.205-3 5.611-3 7 0 3.312-1 8.038-1 12 0 .931 8 7.341 8 14 2.349 0 1.382 3 4 3 3.208 0 7.555-3.973 11.5-2 3.823 1.911 19.056 13.387 16.5 18.5l-11 8.5ZM252 187c3.95 0 11.471-4.515 16.5-2l4.5 2c0-3.248-9.984-6.468-12-10.5-1.845-3.689 13.179-15.839 16.5-17.5 3.945-1.973 8.292 2 11.5 2 2.226 0 4-1.774 4-4 0-6.184 8-10.734 8-13l1-7.5-2-5.5c-1.477 0-3-3.924-3-5 0-6.158-13.961-6-18-6h-1c0 2.033-7.021 2.261-8.5 3l-5.5 4-1 1c0 2.029-1.191 1.881-2 3.5v5c-2.882 5.764-9.142 12.5-16 12.5l-3 3c4.261 0 5.408 5-3 5-1.238 0-3 .423-3 2 0 3.27 1.729 8 5 8 0-6.215 5.556 4 6 4 4.053 0 15.789 1.355 6.5 6-2.541 1.27-3.709-2-5.5-2 0 4.091 3 7.605 3 12h1Z"/><path fill="#4FC244" id="SUB" d="m355 196 1 1c7.589 0 12.442-8 17-8l6-14.5c3.074-6.147 4.223-26.554 1-33-2.513-5.026-5.322-13.411-11.5-16.5-3.239-1.62-6.726-2.363-10-4-1.046-.523-3.5.951-3.5-1h-7c0 5.962 2.478 20.457 5 25.5 2.54 5.081 0 36.821 0 44.5.675 0 2 5.294 2 6Z"/><path fill="#C8CBCC" id="ec" d="m72 127-1 5c.336 0 8-10.128 8-11h-2l-2 1c0 1.238-.423 3-2 3l-1 2Z"/><path fill="#FF64FF" id="MB" fill-rule="evenodd" d="m140 145-2 5.5c.92 1.839.133 4.266 1 6 5.476 10.953 9.937-11.5 1-11.5m31 44c0 .584-11.736 4-13 4-.416 0-2.547-6.594-3-7.5L143.5 170c-2.377-1.189-2.116 2-3.5 2 0-5.616-1.668-10.837-4-15.5V133c1.574 0 2.624 2.252 4-.5.861-1.722-1.427-11.5 1-11.5 0 12.756 3.553 11 15 11 0 3.312-1 8.038-1 12l-4.5-1c-3.842 1.921-7.851 11.074-2 14 4.885 2.443 9.586 1 14.5 1 2.349 0 1.382 3 4 3l-8 7.5c-4.552 9.103.824 20.5 12 20.5Z"/><path fill="#09818C" id="VISpor1" d="M40 122c-1.186 0-1.186 1 0 1v-1Z"/><path fill="#0C848C" id="VISpor6b" d="M75 122c-1.577 0-2 1.762-2 3 1.577 0 2-1.762 2-3Z"/><path fill="#16AFB3" id="TEa2/3" d="M40 123c1.186 0 1.186 1 0 1v-1Z"/><path fill="#FF64FF" id="MB" d="M226 131c3.598 0 4.708 1 5 1 0-3.301-2-7.523-2-9l-2 1c0 1.819-1 4.591-1 7Z"/><path fill="#16AFB3" id="TEa2/3" d="m416 124 1 2-1-2ZM40 125c1.186 0 1.186 1 0 1v-1Z"/><path fill="#0C848C" id="VISpor6b" d="m73 125-1 2 1-2Z"/><path fill="#16AFB3" id="TEa2/3" d="M39 127h1v-1l-1 1Z"/><path fill="#0D9F90" id="ECT1" d="M39 139c-2.06 0-4 .902-4 3-3.316 0-2-10.613-2-13 2.483 0 4.026-2 6-2v12Z"/><path fill="#0D9F91" id="ECT2/3" d="M44 135c-1.054 0-2.931 3-5 3v-11h1l1.5 3 3.5 3.5-1 1.5Z"/><path fill="#0C848C" id="VISpor6b" d="M69 132h2l1-5-3 5Z"/><path fill="#FF64FF" id="MB" d="m264 127-1 1 1-1Z"/><path fill="#0D9F91" id="ECT2/3" d="M412 135c1.054 0 2.931 3 5 3v-11c-1.657 0-5 6.524-5 8Z"/><path fill="#0D9F90" id="ECT1" d="M417 139c2.554 0 3.688 3 5 3 0-3.629 1-8.716 1-13l-6-2v12Z"/><path fill="#FDA6FF" id="DR" d="M225 143c0 2.378.029 3.559 1 5.5l1 6c1.591 3.182 4.928-11.5 5-11.5l-1-11c-.292 0-1.402-1-5-1 0 3.531-1 7.893-1 12Z"/><path fill="#32B824" id="ENTl6a" d="M82 191c0 5.805 3 10.428 3 16 0 1.357-.647 6-2 6-.516 0-11.24-12.981-12-14.5-2.442-4.884-5.58-9.161-8-14-6.503-13.006-2-33.042-2-47.5l8-5h2c0 14.913-2.67 32.158 4 45.5.97 1.94 2.878 9.5 6 9.5v1l1 3Z"/><path fill="#FF64FF" id="MB" d="m321 132-1 1 1-1Z"/><path fill="#32B824" id="ENTl6a" d="M374 190c0 5.699-.649 10.797-3 15.5l2 7.5c3.852 0 5.574-8.537 8.5-10 2.581-1.29 4.156-4.812 5.5-7.5 2.586-5.172 5.453-9.906 8-15 3.403-6.805 1-34.286 1-43.5l-8-4-3-1v1l1 2c0 12.144 2.1 28.3-3 38.5-1.038 2.076-2.804 11.5-6 11.5 0 1.238-.423 3-2 3l-1 2Z"/><path fill="#C8CBCC" id="ec" d="m385 133 1 2-1-2Z"/><path fill="#0E9583" id="PERI2/3" d="M41 147h1c0-1.504 5.699-4 7-4l1-1 1-1v-2l-1-1v-1l-3-1-2-1h-1c-1.054 0-2.931 3-5 3v1c1.93 0 2 6.225 2 8Z"/><path fill="#0D9F91" id="ECT2/3" d="m45 135 2 1-2-1ZM411 135l-1 1 1-1Z"/><path fill="#0E9583" id="PERI2/3" d="m407 143 8 4c0-3.091 2-5.478 2-8v-1c-2.069 0-3.946-3-5-3h-1l-1 1-4 2v3l1 2Z"/><path fill="#31B824" id="ENTl5" d="M83 214c0 3.519-2 5.843-2 9-4.945 0-14.186-12.872-16-16.5-3.786-7.572-8.277-14.554-12-22-3.835-7.67 2-35.322 2-45.5l4-2h2c0 14.458-4.503 34.494 2 47.5 2.42 4.839 5.558 9.116 8 14 .76 1.519 11.484 14.5 12 14.5v1ZM373 214c0 3.157 2 5.481 2 9 5.157 0 15.021-13.542 17-17.5l12-24c2.783-5.565-3-34.975-3-42.5l-4-2h-1c0 9.214 2.403 36.695-1 43.5-2.547 5.094-5.414 9.828-8 15-1.344 2.688-2.919 6.21-5.5 7.5-2.926 1.463-4.648 10-8.5 10v1Z"/><path fill="#0F9684" id="PERI5" d="m50 138 1 1-1-1Z"/><path fill="#0E9584" id="PERI1" d="m41 147-4 4c0-3.519-2-5.843-2-9 0-2.098 1.94-3 4-3 1.93 0 2 6.225 2 8Z"/><path fill="#32B725" id="ENTl3" d="M81 223c0 .986-1.087 6-2 6-3.792 0-18.082-12.663-20-16.5-3.935-7.869-8.135-15.27-12-23-5.4-10.801 2-34.599 2-46.5l1-1 1-1 1-1 3-1c0 10.178-5.835 37.83-2 45.5 3.723 7.446 8.214 14.428 12 22 1.814 3.628 11.055 16.5 16 16.5Z"/><path fill="#FD90FC" id="Su3" d="M215 139c0 2.903-7 .737-7 4.5 0 1.955 3.889 1.5 5 1.5 3.017 0 13.582-6 2-6ZM236 139c0 8.533 17.903 5.702 10.5 2l-4.5-1.5-6-.5Z"/><path fill="#32B725" id="ENTl3" d="m375 223 2 7c2.527 0 12.373-9.936 14.5-11 4.181-2.09 8.151-8.803 10.5-13.5 15.274-30.548 5-32.788 5-62.5l-1-2h-1l-4-2c0 7.525 5.783 36.935 3 42.5l-12 24c-1.979 3.958-11.843 17.5-17 17.5Z"/><path fill="#0F9684" id="PERI5" d="M405 141h1v-2l-1 2Z"/><path fill="#0E9584" id="PERI1" d="m415 148 4 3c0-3.078 3-6.325 3-9-1.312 0-2.446-3-5-3 0 2.522-2 4.909-2 8v1Z"/><path fill="#0F9684" id="PERI5" d="m52 140-1 1v-1h1Z"/><path fill="#32B825" id="ENTl2" d="m50 142-1 1 1-1ZM79 230c0 2.483-2 4.026-2 6-3.758 0-6.344-3.422-9.5-5-14.963-7.481-19.69-19.879-26.5-33.5l-2-9c-1.674-3.348-5.167-12.666-3-17 2.32-4.639 6-19.213 6-24.5 0-1.504 5.699-4 7-4 0 11.901-7.4 35.699-2 46.5 3.865 7.73 8.065 15.131 12 23 1.918 3.837 16.208 16.5 20 16.5v1Z"/><path fill="#FF7AFE" id="SAG" d="m155 144-4.5-1c-3.842 1.921-7.851 11.074-2 14 4.885 2.443 9.586 1 14.5 1 0-6.659-8-13.069-8-14Z"/><path fill="#FF64FF" id="MB" fill-rule="evenodd" d="m227 171-6 4.5c-5.005 10.009 7.635 12.433 13.5 9.5 3.905-1.952-1.01-14-7.5-14m9-6c0 2.786.351 7.201 2 10.5l.5 3.5.5-3.5c0-2.256-.377-10.5-3-10.5m9 24-2 1c0-10.333-8-8.377-8-1-2.705 0-4.602 4-6.5 4-2.333 0-4.29-4-7.5-4 0-8.51-8-6.887-8 1l-2-1c0-3.894 2-6.605 2-10 1.473 0 1-1.952 1-3v-1l1-2v-5l1-1c3.291 0 4-5.683 4-8 1.684 0 1 4.679 1 6-5.277 0-3.585 16.671-2 13.5v-7c1.042-2.084 2-2.908 2-5.5 6.089 0 5.286-11-4-11l-2-2-4-4c5.564 0 8.974-6 14-6 0 2.378.029 3.559 1 5.5l1 6c1.591 3.182 4.928-11.5 5-11.5 4.529 0 7.794 6 13 6l-3 3-1 1-1 1-1 1c-4.608 0-11.732 6.884-5.5 10 2.622 1.311.399-6 2.5-6 0 3.27 1.729 8 5 8l1 8c0 1.048-.473 3 1 3 0 3.205 2 6.924 2 11Z"/><path fill="#FF7AFE" id="SAG" d="m311 153-3.5 4-6 2c-3.349 1.675-6.241-2-8.5-2 0-6.184 8-10.734 8-13 4.261 0 10-.842 10 6v3Z"/><path fill="#32B825" id="ENTl2" d="m377 230 2 6c5.74 0 9.672-5.586 14.5-8 12.246-6.123 16.145-18.79 21.5-29.5l2-9c2.073-4.147 5.732-15.536 3-21-2.882-5.763-5-13.637-5-20.5v-1l-8-4c0 29.712 10.274 31.952-5 62.5-2.349 4.697-6.319 11.41-10.5 13.5-2.127 1.064-11.973 11-14.5 11Z"/><path fill="#FF79FD" id="PBG" d="m140 145-2 5.5c.92 1.839.133 4.266 1 6 5.476 10.953 9.937-11.5 1-11.5ZM311 150c2.714 0 1.637-6.931 5.5-5l.5 2.5c3.941 7.881-6 17.172-6 5.5v-3Z"/><path fill="#32B722" id="ENTl1" d="M77 236c0 1.048.473 3-1 3-4.034 0-8.053-4.277-11.5-6-18.278-9.139-23.323-26.146-31.5-42.5-1.18-2.36-.779-5.558-2-8-4.557-9.114 6-23.716 6-31.5l4-4h1c0 5.287-3.68 19.861-6 24.5-2.167 4.334 1.326 13.652 3 17l2 9c6.81 13.621 11.537 26.019 26.5 33.5 3.156 1.578 5.742 5 9.5 5ZM379 236l1 4 11.5-7c22.424-11.212 23.411-28.323 33.5-48.5 5.12-10.24-6-25.654-6-33.5l-4-3c0 6.863 2.118 14.737 5 20.5 2.732 5.464-.927 16.853-3 21l-2 9c-5.355 10.71-9.254 23.377-21.5 29.5-4.828 2.414-8.76 8-14.5 8Z"/><path fill="#72D568" id="PAR" d="m113 213 3 1 5-17.5v-8c2.234-4.468 6-27.005 6-32.5-3.887 0-10.487-7.007-14.5-5-4.337 2.169-5.5 26.455-5.5 32 0 1.174-1.217 11-2.5 11l-1.5-3-1 5 5 10 3 4 3 3ZM343 213l-3 1-3-9.5c-2.635-5.271.612-13.776-2-19-1.746-3.492-6-25.404-6-29.5 2.25 0 14.834-6.831 16-4.5 4.836 9.671.668 24.337 5 33l1.5 9.5 1.5-4c.675 0 2 5.294 2 6-2.048 0-5 8.151-5 10l-4 4-3 3Z"/><path fill="#FE8DFE" id="Pa4" d="M217 155v1c0 7.405-9.561-4-3.5-4l1.5 1 2 2Z"/><path fill="#FF8FFD" id="MRN" d="m242 152-1 1 1-1Z"/><path fill="#FE8DFE" id="Pa4" d="M239 155v2c8.408 0 7.261-5 3-5l-1 1-1 1-1 1Z"/><path fill="#FF8FFD" id="MRN" d="m240 154-1 1 1-1Z"/><path fill="#CBCBCC" id="mlf" d="M221 165v1c6.089 0 5.286-11-4-11v1l3 3c1.684 0 1 4.679 1 6ZM239 157c-1.238 0-3 .423-3 2-2.101 0 .122 7.311-2.5 6-6.232-3.116.892-10 5.5-10v2Z"/><path fill="#FFA5FD" id="PPN" d="M171 189h5l7-2 1-1 11-8.5c2.556-5.113-12.677-16.589-16.5-18.5-3.945-1.973-8.292 2-11.5 2l-8 7.5c-4.552 9.103.824 20.5 12 20.5ZM281 189h11.5c4.001-2 8.972-12.556 6.5-17.5L289 161c-3.208 0-7.555-3.973-11.5-2-3.321 1.661-18.345 13.811-16.5 17.5 2.016 4.032 12 7.252 12 10.5h2l1 1 5 1Z"/><path fill="#C8C8CC" id="tspc" d="m211 207-1 1c-3.226 0-4-16.382-4-19l-1-1v-1l3-12 2-4c0-2.107 6-8.992 6-4l-1 1v5l-1 2v1c-1.473 0-1 1.952-1 3 0 3.395-2 6.106-2 10l1 3-1 15Z"/><path fill="#C8C8C8" id="mtg" d="M221 165c-5.277 0-3.585 16.671-2 13.5v-7c1.042-2.084 2-2.908 2-5.5v-1ZM236 165c0 2.786.351 7.201 2 10.5l.5 3.5.5-3.5c0-2.256-.377-10.5-3-10.5Z"/><path fill="#C8C8CC" id="tspc" d="m245 206 1 1c1.344 0 1.883 1.735 3-.5v-13c1.042-2.084 2-2.908 2-5.5v-1c0-4.395-3-7.909-3-12l-1-4c-.444 0-6-10.215-6-4l1 8c1.473 0 1 1.952 1 3 0 3.205 2 6.924 2 11v17Z"/><path fill="#FF8FFD" id="MRN" d="m216 167-1 1 1-1Z"/><path fill="#C9C9CB" id="ll" d="m149 220 2 1-2-5v-1l-1-1-3-3.5-4-9c-2.01-4.021 1.232-20.634 7.5-17.5 4.567 2.283 4.355 6.355 7.5 9.5l2 3.5v-4c-.416 0-2.547-6.594-3-7.5L143.5 170c-2.377-1.189-2.116 2-3.5 2 0 5.723-.591 12.682-3 17.5-2.026 4.052 1 11.799 1 15.5l1 1c0 5.157 10 7.795 10 13v1ZM307 216v2c1.816 0 10.28-12 11-12v-1l2-9.5c-2.671-5.342-3-14.186-3-20.5-1.748 0-.425-7.037-4.5-5-2.34 1.17-13.5 19.806-13.5 23v2c1.768 0 5.957-9.728 8.5-11 7.147-3.573 9.728 14.044 7.5 18.5-1.092 2.184-6 8.353-6 10.5l-1 1-1 2Z"/><path fill="#CBC9CB" id="scp" d="M210 171c-5.6 0-16.152 1.174-6.5 6 2.116 1.058 2.898-2 4.5-2l2-4Z"/><path fill="#CCC7CC" id="dscp" d="m227 171-6 4.5c-5.005 10.009 7.635 12.433 13.5 9.5 3.905-1.952-1.01-14-7.5-14Z"/><path fill="#CBC9CB" id="scp" d="M247 171c4.053 0 15.789 1.355 6.5 6-2.541 1.27-3.709-2-5.5-2l-1-4ZM215 173l-1 2 1-2ZM242 175c1.473 0 1 1.952 1 3-1.473 0-1-1.952-1-3ZM214 176c-1.473 0-1 1.952-1 3 1.473 0 1-1.952 1-3Z"/><path fill="#FD90FE" id="AT" d="M221 189c0 10.039-5.426 1-8 1 0-7.887 8-9.51 8-1ZM243 190v1c-2.581 0-8 8.554-8-2 0-7.377 8-9.333 8 1Z"/><path fill="#FFAC6F" id="NLL" d="M173 253c0 3.731-2 10.83-2 11-15.044 0-5.799-18.098-10-26.5l-5-11c-.947-1.894-4.44-10.5-7-10.5v-1l-1-1-3-3.5-4-9c-2.01-4.021 1.232-20.634 7.5-17.5 4.567 2.283 4.355 6.355 7.5 9.5l2 3.5v2l1 1v5l1 2v1c0 14.977 13 24.795 13 40v5ZM283 252c0 2.203-.896 11 2 11 2.638 0 3.547 1.476 6.5 0 2.115-1.058 1.573-6.645 2.5-8.5 1.73-3.459-.674-8.652 1-12 2.667-5.334 3.252-11.503 6-17 .823-1.647 3.92-9.5 6-9.5l1-2 1-1c0-2.147 4.908-8.316 6-10.5 2.228-4.456-.353-22.073-7.5-18.5-2.543 1.272-6.732 11-8.5 11 0 1.145.579 4-1 4v2l-1 2v4c0 1.357-.647 6-2 6 0 12.806-12 21.801-12 35v4Z"/><path fill="#FFC295" id="PRNr" d="m177 244 2 3.5 6.5 7.5c4.362 2.181 5.021-2 7.5-2v-7.5c2.203-4.406 13.359-17.5 19-17.5l2-3.5-1-5.5-1-7c-1.473 0-1-1.952-1-3v-1h-1c-3.226 0-4-16.382-4-19l-1-1v-1c-2.029 0-1.881-1.191-3.5-2-4.502-2.251-13.24 1-17.5 1l-1 1-7 2c0 1.694-11 1.645-11 8 10.248 0 4 11.583 4 16l-1 1c0 5.02-.093 11.314 2 15.5l3 5.5v1l1 1 1 3 1 1 1 3ZM273 253l-4.5 3c-2.116 1.058-2.898-2-4.5-2 0-9.193-9.633-26-20-26 0-1.819-1-4.591-1-7l1-8 1-1v-3l1-2c1.344 0 1.883 1.735 3-.5v-13c1.042-2.084 2-2.908 2-5.5l1-1c3.95 0 11.471-4.515 16.5-2l4.5 2h2l1 1 5 1c0 2.101 10 1.519 10 8-10.974 0-3 14.169-3 17l-1 15-1 2-1 2-1 2-1 1v1l-1 1-3 7c-1.617 0-4 4.583-4 6l-1 1-1 1Z"/><path fill="#7DCD4B" id="HPF" d="M377 185c-1.577 0-2 1.762-2 3 1.577 0 2-1.762 2-3Z"/><path fill="#FF8FFD" id="MRN" d="m184 186-1 1 1-1Z"/><path fill="#FF64FF" id="MB" d="m252 187-1 1v-1h1ZM275 187l1 1-1-1Z"/><path fill="#7DCD4B" id="HPF" d="m83 190-1 1-1-3 2 2Z"/><path fill="#FF9B88" id="P" d="m205 188 1 1-1-1Z"/><path fill="#7DCD4B" id="HPF" d="m375 188-1 2 1-2Z"/><path fill="#32B623" id="ENTm6" d="M83 213v1c3.265 0 6.814 4.843 10.5 3 6.607-3.303 6.5-12.993 6.5-20-6.962 0-13.981-8-16-8l-1 1-1 1c0 5.805 3 10.428 3 16 0 1.357-.647 6-2 6Z"/><path fill="#FF9B88" id="P" d="M168 214c0 5.02-.093 11.314 2 15.5l3 5.5c-1.422 0-9.654-17.808-11-20.5-.567-1.134-.546-6.5-2-6.5v-1l-1-2v-5l-1-1v-6c1.264 0 13-3.416 13-4h5c0 1.694-11 1.645-11 8-5.186 0-1.403 17 3 17ZM213 190l-1 2-1-3 2 1Z"/><path fill="#FFC393" id="CS" d="M231 230c-1.93 0-1.488-11-2.5-11-1.588 0-2.5 10.791-2.5 12-1.812 0-4.82-3-7-3l-6-9-1-7c0-1.048.473-3-1-3v-2l1-15 1-2c2.574 0 8 9.039 8-1 3.21 0 5.167 4 7.5 4 1.898 0 3.795-4 6.5-4 0 10.554 5.419 2 8 2l2 4v17l-1 1-1 8-6 7c0 .675-5.294 2-6 2Z"/><path fill="#FF9B88" id="P" d="m243 191 2 4v-6l-2 1v1ZM288 214l-1 15 8-16c0-1.623.005-6 2-6v-4l1-2v-2c0-1.145-.579-4 1-4v-2c-1.343 0-14-3.331-14-4h-4c0 2.101 10 1.519 10 8 6.23 0 1.726 17-3 17Z"/><path fill="#32B623" id="ENTm6" d="M373 213v1c-2.66 0-6.291 4.605-9.5 3-6.63-3.315-7.5-12.51-7.5-20 7.589 0 12.442-8 17-8l1 1c0 5.699-.649 10.797-3 15.5l2 7.5Z"/><path fill="#C9C9CB" id="ll" d="M299 195c-1.579 0-1 2.855-1 4 1.579 0 1-2.855 1-4Z"/><path fill="#30B724" id="ENTm5" d="M83 214c0 3.519-2 5.843-2 9 5.453 0 9.336 5.082 15.5 2 4.948-2.474 6.484-9.467 8.5-13.5.659-1.319-.334-5.5 2-5.5l-5-10-2 1c0 7.007.107 16.697-6.5 20-3.686 1.843-7.235-3-10.5-3ZM373 214c0 3.157 2 5.481 2 9-3.365 0-7.719 4.89-11.5 3-6.894-3.447-13.5-11.107-13.5-20 0-1.849 2.952-10 5-10l1 1c0 7.49.87 16.685 7.5 20 3.209 1.605 6.84-3 9.5-3Z"/><path fill="#C8C8CB" id="rust" d="m169 213-1 1c-4.403 0-8.186-17-3-17 10.248 0 4 11.583 4 16ZM291 197c6.23 0 1.726 17-3 17 0-2.831-7.974-17 3-17Z"/><path fill="#C9C9CB" id="ll" d="m158 199 1 1-1-1ZM298 201l-1 2 1-2Z"/><path fill="#F0F080" id="CB" d="m139 206-4 2c0-2.747.253-3 3-3l1 1Z"/><path fill="#C9C9CB" id="ll" d="m159 205 1 2-1-2Z"/><path fill="#F0F080" id="CB" d="m318 206 4 3c0-2.881-1.292-4-4-4v1Z"/><path fill="#31B723" id="ENTm3" d="M79 229v1c4.21 0 10.735 5.383 15.5 3 7.936-3.968 15.5-13.655 15.5-23l-3-4c-2.334 0-1.341 4.181-2 5.5-2.016 4.033-3.552 11.026-8.5 13.5-6.164 3.082-10.047-2-15.5-2 0 .986-1.087 6-2 6Z"/><path fill="#CCCCCA" id="mcp" d="M158 247c0 6.249 2.024 10-3 10 0-3.963-22-21.363-22-26l-2-4.5 1-12.5c1.473 0 1-1.952 1-3v-1l1-1 1-1 4-2c0 5.157 10 7.795 10 13-4.972 0 3.194 10.888 4 12.5 1.303 2.605.81 16.655 2.5 17.5l2.5-2Z"/><path fill="#FF9B88" id="P" d="m246 207-1 2v-3l1 1Z"/><path fill="#CCCCCA" id="mcp" d="m299 248-.5 11 3.5-3c0-1.272 21-21.947 21-24l1-1c0-4.121 1-9.275 1-14v-1c-1.473 0-1-1.952-1-3v-1l-1-1-1-2-4-3c-.72 0-9.184 12-11 12v2c5.336 0-2.286 9.071-4 12.5-1.969 3.939.923 10.155-1 14-1.314 2.628-1.005 1.5-3 1.5Z"/><path fill="#31B723" id="ENTm3" d="m375 223 2 7c-4.32 0-10.463 5.518-15.5 3-6.947-3.474-15.5-15.191-15.5-23l4-4c0 8.893 6.606 16.553 13.5 20 3.781 1.89 8.135-3 11.5-3Z"/><path fill="#FF9B88" id="P" d="M210 208h1v-1l-1 1Z"/><path fill="#C9C9CB" id="ll" d="M297 207c-1.995 0-2 4.377-2 6 1.353 0 2-4.643 2-6Z"/><path fill="#F0F080" id="CB" d="m135 208-1 1 1-1Z"/><path fill="#C9C9CB" id="ll" d="M177 244c0 5.38-.091 4-4 4 0-15.205-13-25.023-13-40 1.454 0 1.433 5.366 2 6.5 1.346 2.692 9.578 20.5 11 20.5v1l1 1 1 3 1 1 1 3Z"/><path fill="#F0F080" id="CB" d="m134 209-1 1 1-1Z"/><path fill="#FF9B88" id="P" d="M211 209c1.473 0 1 1.952 1 3-1.473 0-1-1.952-1-3Z"/><path fill="#30B824" id="ENTm2" d="M79 230c0 2.483-2 4.026-2 6 5.367 0 13.362 6.069 19.5 3 8.704-4.352 16.5-15.781 16.5-26l-3-3c0 9.345-7.564 19.032-15.5 23-4.765 2.383-11.29-3-15.5-3ZM377 230l2 6c-5.367 0-13.362 6.069-19.5 3-7.992-3.996-16.5-17.263-16.5-26l3-3c0 7.809 8.553 19.526 15.5 23 5.037 2.518 11.18-3 15.5-3Z"/><path fill="#F0F080" id="CB" d="M133 211c-1.473 0-1 1.952-1 3 1.473 0 1-1.952 1-3ZM323 211l1 1-1-1Z"/><path fill="#FF9B88" id="P" d="m245 212-1 1 1-1Z"/><path fill="#31B625" id="ENTm1" d="M77 236c0 1.048.473 3-1 3 0 3.622 20.13 5.685 23.5 4 9.462-4.731 16.5-19.308 16.5-29l-3-1c0 10.219-7.796 21.648-16.5 26-6.138 3.069-14.133-3-19.5-3Z"/><path fill="#FF9B88" id="P" d="m169 213-1 1 1-1Z"/><path fill="#C9C9CB" id="ll" d="M279 245c0 5.01.677 3 4 3 0-13.199 12-22.194 12-35l-8 16-1 2-1 2-1 2-1 1v1l-1 1-3 7Z"/><path fill="#FF9B88" id="P" d="m309 213-1 1 1-1Z"/><path fill="#F0F080" id="CB" d="M324 213c1.473 0 1 1.952 1 3-1.473 0-1-1.952-1-3Z"/><path fill="#31B625" id="ENTm1" d="m379 236 1 4c-5.029 0-13.545 6.977-19.5 4-14.763-7.381-11.259-9.018-17.5-21.5l-3-8.5 3-1c0 8.737 8.508 22.004 16.5 26 6.138 3.069 14.133-3 19.5-3Z"/><path fill="#F0F080" id="CB" d="m124 230 9 1-2-4.5 1-12.5c-1.45 0-2.31 8.12-3 9.5l-5 6.5Z"/><path fill="#FF9B88" id="P" d="m148 214 1 1-1-1ZM263 286c-4.422 0 1-2.36 1 0 14.274 0 20.821-9.161 32.5-15l3-4 11.5-6c-3.588 0-9-.202-9-5l-3.5 3 .5-11v-1c-1.587 0-1.587-6 0-6v-3l1-2v-1l1-1v-2l1-2v-1l1-1v-2l1-1v-1l1-1v-1l2-4v-2c-2.08 0-5.177 7.853-6 9.5-2.748 5.497-3.333 11.666-6 17-1.674 3.348.73 8.541-1 12-.927 1.855-.385 7.442-2.5 8.5-2.953 1.476-3.862 0-6.5 0 0 2.457 3.489 4.522 2 7.5-4.729 9.458-13.063 14.874-19 3-3.838-7.677 5-14.489 5-20.5l-4.5 3c-2.116 1.058-2.898-2-4.5-2 0 4.403-.622 10-6 10 0 12.918-13 11.89-13-1 0-2.614-13.546-.592-15-3.5-4.141-8.282 1-20.976 1-29.5-1.93 0-1.488-11-2.5-11-1.588 0-2.5 10.791-2.5 12 0 5.482 3.236 27.632-1.5 30l-13.5 1c0 14.729-13 15.125-13 2-6.218 0-5-6.344-5-11-2.479 0-3.138 4.181-7.5 2l-6.5-7.5-2-3.5c0 5.38-.091 4-4 4v5c1.514 0 3.238-4.631 6.5-3 2.669 1.335 4.398 5.296 5.5 7.5 9.232 18.465-4.7 34.599-15 14-1.894-3.789 1-4.226 1-7.5-15.044 0-5.799-18.098-10-26.5l-5-11c-.947-1.894-4.44-10.5-7-10.5l2 5v1c1.577 0 2 1.762 2 3v2l1 1 1 3v2l1 1v1l1 1v3l1 2v6c0 6.249 2.024 10-3 10-.297 0-4.517 4-10 4 0 1.586 8.945 4.223 10.5 5l8 8c9.906 4.953 16.431 12 28.5 12 0-2.56 4.523 0 2 0 0 1.579 2.855 1 4 1l1-1c12.01 0 26.157-10.671 37.5-5 6.755 3.377 15.233 2.616 22 6 1.008.504 4.5.22 4.5-1Z"/><path fill="#F0F080" id="CB" d="m332 230-8 1c0-4.121 1-9.275 1-14 1.59 0 1.443 4.386 2 5.5l5 7.5Z"/><path fill="#C9C9CB" id="ll" d="M305 222h1l1-1v-3l-2 4Z"/><path fill="#CCCBCA" id="moV" d="M158 241v6l-2.5 2c-1.69-.845-1.197-14.895-2.5-17.5-.806-1.612-8.972-12.5-4-12.5v1l2 2v1l2 4v1l2 3v2l1 1v1l1 1v3l1 2Z"/><path fill="#FF9B88" id="P" d="M212 228h7l-6-9 1 5.5-2 3.5Z"/><path fill="#CCCBCA" id="moV" d="M299 247v1c1.995 0 1.686 1.128 3-1.5 1.923-3.845-.969-10.061 1-14 1.714-3.429 9.336-12.5 4-12.5v1l-1 1-1 1v1l-1 1v1l-1 1v2l-1 1-1 2v2l-1 1v1l-1 2v9Z"/><path fill="#CCCCCA" id="mcp" d="M151 221v1l-2-2 2 1Z"/><path fill="#FF9B88" id="P" d="M237 228h7c0-1.819-1-4.591-1-7l-6 7Z"/><path fill="#CCCCCA" id="mcp" d="m307 221-1 1 1-1Z"/><path fill="#C9C9CB" id="ll" d="m151 223 2 2c0-1.238-.423-3-2-3v1Z"/><path fill="#CCCCCA" id="mcp" d="m306 222-1 1v-1h1ZM153 225v2l-2-4 2 2Z"/><path fill="#C9C9CB" id="ll" d="M304 224h1v-1l-1 1Z"/><path fill="#CCCCCA" id="mcp" d="m305 224-1 1v-1h1Z"/><path fill="#C9C9CB" id="ll" d="M303 226h1v-1l-1 1Z"/><path fill="#CCCCCA" id="mcp" d="m304 226-1 1v-1h1Z"/><path fill="#C9C9CB" id="ll" d="M153 228h1l-1-1v1Z"/><path fill="#CCCCCA" id="mcp" d="m154 228 1 3-2-3h1Z"/><path fill="#FEBA85" id="TRN" fill-rule="evenodd" d="m220 236-2 7 1 4c0 1.629 4.01 9.479 6 5.5 1.752-3.503 1.033-16.5-5-16.5m-9 26-8.5-1-4.5 3c-6.218 0-5-6.344-5-11v-7.5c2.203-4.406 13.359-17.5 19-17.5h7c2.18 0 5.188 3 7 3 0 5.482 3.236 27.632-1.5 30l-13.5 1ZM235 236l-4 4.5v9c0 13.737 14.197-13.5 4-13.5m10 27c2.259 0 5.151-3.675 8.5-2l4.5 3c5.378 0 6-5.597 6-10 0-9.193-9.633-26-20-26h-7c0 .675-5.294 2-6 2 0 8.524-5.141 21.218-1 29.5 1.454 2.908 15 .886 15 3.5Z"/><path fill="#C9C9CB" id="ll" d="M302 229h1v-1l-1 1Z"/><path fill="#FF9B88" id="P" d="m287 229-1 2 1-2Z"/><path fill="#CCCCCA" id="mcp" d="m303 229-1 1v-1h1Z"/><path fill="#CACACB" id="sV" d="M155 257c-.297 0-4.517 4-10 4-11.057 0-25-3.772-25-18.5v-7l4-5.5 9 1c0 4.637 22 22.037 22 26Z"/><path fill="#CCCCCA" id="mcp" d="m302 230-1 2 1-2Z"/><path fill="#CACACB" id="sV" d="M302 256c0 4.798 5.412 5 9 5 11.726 0 19.888-2.276 26-14.5 1.641-3.283-1.204-16.5-5-16.5l-8 1-1 1c0 2.053-21 22.728-21 24Z"/><path fill="#FF9B88" id="P" d="m286 231-1 2 1-2Z"/><path fill="#F0F080" id="CB" d="m324 231-1 1 1-1Z"/><path fill="#CCCCCA" id="mcp" d="m155 233 1 1-1-1Z"/><path fill="#FF9B88" id="P" d="m285 233-1 2 1-2Z"/><path fill="#CCCCCA" id="mcp" d="m301 234-1 1 1-1ZM156 235l1 1-1-1Z"/><path fill="#FF9B88" id="P" d="m284 235-1 1 1-1ZM173 236l1 1-1-1Z"/><path fill="#CACCC8" id="ml" d="m220 236-2 7 1 4c0 1.629 4.01 9.479 6 5.5 1.752-3.503 1.033-16.5-5-16.5ZM235 236l-4 4.5v9c0 13.737 14.197-13.5 4-13.5Z"/><path fill="#CCCCCA" id="mcp" d="m300 236-1 2 1-2Z"/><path fill="#FF9B88" id="P" d="m283 237-1 1 1-1Z"/><path fill="#CCCCCA" id="mcp" d="m157 239 1 2-1-2Z"/><path fill="#FF9B88" id="P" d="m175 240 1 1-1-1Z"/><path fill="#CCCCCA" id="mcp" d="M299 241c-1.587 0-1.587 6 0 6v-6Z"/><path fill="#FF9B88" id="P" d="M275 251c1.423 0 3.544-1.978 5.5-1l2.5 2v-4c-3.323 0-4 2.01-4-3-1.617 0-4 4.583-4 6Z"/><path fill="#FEAD6F" id="POR" d="M173 253c1.514 0 3.238-4.631 6.5-3 2.669 1.335 4.398 5.296 5.5 7.5 9.232 18.465-4.7 34.599-15 14-1.894-3.789 1-4.226 1-7.5 0-.17 2-7.269 2-11ZM273 253c0 6.011-8.838 12.823-5 20.5 5.937 11.874 14.271 6.458 19-3 1.489-2.978-2-5.043-2-7.5-2.896 0-2-8.797-2-11l-2.5-2c-1.956-.978-4.077 1-5.5 1l-1 1-1 1Z"/><path fill="#FF9B88" id="P" d="m275 251-1 1 1-1ZM274 252l-1 1 1-1Z"/><path fill="#C8C7CC" id="cst" d="m211 262-8.5-1-4.5 3c0 13.125 13 12.729 13-2ZM245 263c2.259 0 5.151-3.675 8.5-2l4.5 3c0 12.918-13 11.89-13-1Z"/><path fill="#CCC7CB" id="tb" d="M192 286h2c2.523 0-2-2.56-2 0ZM263 286h1c0-2.36-5.422 0-1 0Z"/><path fill="#FF9BCD" id="MY" d="m199 286-1 1 1-1Z"/></svg>