<svg xmlns="http://www.w3.org/2000/svg" viewBox="0 0 456 320"><path fill="#FEFA90" id="DEC" fill-rule="evenodd" d="M221 81c0 1.799-8.997 1.248-10.5 2-6.861 3.43-15.432 4.364-19.5 12.5-4.893 9.786 7.543 21.021 14.5 24.5 5.723 2.862 11.413 5.207 17 8 9.94 4.97 37.428-11.356 40.5-17.5 6.974-13.949-3.532-27.5-19-27.5-7.213 0-14.886-2-23-2m-30-15-5 2.5c0 2.338 13.587-2.5 5-2.5m43-6-1 1.5c0 1.858 6.354-1.5 1-1.5m-13 0-1 1.5c0 2.246 5.83-1.5 1-1.5m-50 53c0 7.189 13.802 13.651 18.5 16 20.886 10.443 50.654 12.673 72 2 6.215-3.108 23.5-7.852 23.5-18V81c0-5.055-11.526-10.013-15.5-12-.204-.102-9.752-1.124-6-3 1.967-.984 6.664 3 8.5 3 .856 0 5.501 2.5 6.5 3 2.42 1.21 4.311 5 7.5 5l1-18-6.5-4c-6.93-3.465-15.024-4.512-22-8-3.1-1.55-17.888-2.556-21-1-3.412 1.706-16.054.473-19-1-3.682-1.84-20.845 2.422-24 4-4.003 2.002-25.5 6.61-25.5 11 0 2.267.443 16 2 16 4.405 0 8.706-5.103 12.5-7l2.5.5c0 .988-15 6.806-15 12.5v31Z"/><path fill="#FDFB8F" id="SIM" d="m171 76-2 1.5c-1.305 2.61-6.126 11.5-9 11.5 0-3.076-7.479-20-10-20 0-7.75 14.153-9 19-9 0 2.267.443 16 2 16ZM286 77c3.704 0 5.6 11 10 11 0-2.35 9.363-19 10-19 0-6.621-13.755-10-19-10l-1 18Z"/><path fill="#CBC9CC" id="arb" d="m221 60-1 1.5c0 2.246 5.83-1.5 1-1.5ZM234 60l-1 1.5c0 1.858 6.354-1.5 1-1.5ZM191 66l-5 2.5c0 2.338 13.587-2.5 5-2.5Z"/><path fill="#CBC9CC" id="arb" d="m148 186-1 1c-2.96 0 3.396-8.896 5.5-11l22.5-36 2.5 2c8.027 4.013 14.695 11.653 24 7l5.5-4.5c1.222-2.445-4.108-5.196-5.5-4.5-3.346 1.673-9.328 5.336-14 3l-10-12c-1.625-.812-8.5-1.484-8.5 1.5l4 4.5-7-3c0-1.916-10.89-3.305-13.5-2-10.531 5.266-26.195 19.195-34.5 27.5-4.149 4.149-8.573 8.145-11 13-.443.886-3.143 3.715-4 2-3.55-7.1 21-20.693 21-30.5 0-2.284-5.988-3.244-7.5-4-2.936-1.468-12.249-3.876-16-2-.674.337-6.5 2.535-6.5 1.5l3-3c1.204-2.407.848-5.695 2-8 .66-1.321 5.052 3.776 6.5 4.5 4.567 2.284 10.384 1.692 15 4 8.539 4.27 18.15-2.575 25-6 1.918-.959 8.5-2.734 8.5-6 1.615 0 3.36-5.22 4-6.5 2.478-4.957 3.683-17.635 1-23l-3-4 4-2.5c2.874 0 7.695-8.89 9-11.5l2-1.5c4.405 0 8.706-5.103 12.5-7l2.5.5c0 .988-15 6.806-15 12.5-6.366 0-3.705 22.09-2 25.5.659 1.319-.334 5.5 2 5.5 0 7.189 13.802 13.651 18.5 16 20.886 10.443 50.654 12.673 72 2 6.215-3.108 23.5-7.852 23.5-18 4.707 0 7.189-32 0-32 0-5.055-11.526-10.013-15.5-12-.204-.102-9.752-1.124-6-3 1.967-.984 6.664 3 8.5 3 .856 0 5.501 2.5 6.5 3 2.42 1.21 4.311 5 7.5 5 3.704 0 5.6 11 10 11l4 3.5-3 5c-2.126 4.252.239 28.5 6 28.5 0 4.532 9.78 7.14 13.5 9 7.828 3.914 14.767 5.116 23 1 3.341-1.671 8.585-.292 12-2l5-5c1.46 0 1.994 7.489 2.5 8.5l5 4-8.5-2.5c-4.186-2.093-23.5 3.794-23.5 6 0 9.306 25.095 22.31 21 30.5-1.032 2.064-2.845-1.845-3.5-2.5l-9-11-34-28c-2.345-1.172-15.5-3.1-15.5 1-1.572 0-7 3.52-7 2l3-4.5c-1.237-2.475-2.962-1.269-4.5-.5h-3c-3.809 1.904-8.171 11.086-10 12-5.438 2.719-11.122-3-15-3-1.064 0-6.429 2.642-5.5 4.5 9.147 18.293 27.657-5.5 33-5.5 0 6.291 18.254 29.009 22 36.5 2.086 4.171 10.05 11.5 5 11.5 0-1.635-4.365-6-6-6 0-3.811-7.689-14-12-14 0-1.322-16.213-10.857-18.5-12h-11c-12.535-6.267-36.924-10.538-50-4-3.798 1.899-11.936 1.468-17 4h-10c-3.118 1.559-18.5 9.339-18.5 12-4.088 0-13 9.589-13 14l-5 5Z"/><path fill="#FCFC90" id="ANcr1" d="M107 92c16.842 0 20.807 21.153 26.5 24 5.309 2.655 10.743 4.372 16 7 1.119.559 4.5.155 4.5 2 1.615 0 3.36-5.22 4-6.5 2.478-4.957 3.683-17.635 1-23l-3-4 4-2.5c0-3.076-7.479-20-10-20l-8.5-1c-8.219 4.11-34.5 11.183-34.5 24ZM349 92c-16.666 0-19.662 21.081-27.5 25-4.866 2.433-10.161 3.58-15 6-1.158.579-3.5-.341-3.5 2-5.761 0-8.126-24.248-6-28.5l3-5-4-3.5c0-2.35 9.363-19 10-19l8.5-1c8.416 4.208 34.5 10.378 34.5 24Z"/><path fill="#FCFB90" id="CUL4, 5" d="M221 81c0 1.799-8.997 1.248-10.5 2-6.861 3.43-15.432 4.364-19.5 12.5-4.893 9.786 7.543 21.021 14.5 24.5 5.723 2.862 11.413 5.207 17 8 9.94 4.97 37.428-11.356 40.5-17.5 6.974-13.949-3.532-27.5-19-27.5-7.213 0-14.886-2-23-2Z"/><path fill="#FDFB8F" id="SIM" d="M285 81c7.189 0 4.707 32 0 32V81ZM171 82c-6.366 0-3.705 22.09-2 25.5.659 1.319-.334 5.5 2 5.5V82Z"/><path fill="#FCFA91" id="ANcr2" fill-rule="evenodd" d="M93 140c0 1.93 1.93 0 0 0m31 4c-2.085 0-36.395 14.948-40.5 17l-2.5 2c-11.026 0-15.613-14.274-11-23.5 2.602-5.203 2.434-11.868 5-17C80.344 111.812 93.334 92 107 92c16.842 0 20.807 21.153 26.5 24 5.309 2.655 10.743 4.372 16 7 1.119.559 4.5.155 4.5 2 0 3.266-6.582 5.041-8.5 6-6.85 3.425-16.461 10.27-25 6-4.616-2.308-10.433-1.716-15-4-1.448-.724-5.84-5.821-6.5-4.5-1.152 2.305-.796 5.593-2 8l-3 3c0 1.035 5.826-1.163 6.5-1.5 3.751-1.876 13.064.532 16 2 1.512.756 7.5 1.716 7.5 4Z"/><path fill="#FCFA91" id="ANcr2" d="M332 144c5.216 0 26.772 11.136 32.5 14 1.648.824 10.5 3.156 10.5 5h6.5c4.976-2.488 8.204-16.093 5.5-21.5-7.965-15.93-7.567-35.033-26.5-44.5-3.886-1.943-6.835-5-11.5-5-16.666 0-19.662 21.081-27.5 25-4.866 2.433-10.161 3.58-15 6-1.158.579-3.5-.341-3.5 2 0 4.532 9.78 7.14 13.5 9 7.828 3.914 14.767 5.116 23 1 3.341-1.671 8.585-.292 12-2l5-5c1.46 0 1.994 7.489 2.5 8.5l5 4-8.5-2.5c-4.186-2.093-23.5 3.794-23.5 6Z"/><path fill="#FFFCBC" id="FN" d="M173 137c1.577 0 2 1.762 2 3l2.5 2c8.027 4.013 14.695 11.653 24 7l5.5-4.5c1.222-2.445-4.108-5.196-5.5-4.5-3.346 1.673-9.328 5.336-14 3l-10-12c-1.625-.812-8.5-1.484-8.5 1.5l4 4.5ZM284 136l-2 3c-5.343 0-23.853 23.793-33 5.5-.929-1.858 4.436-4.5 5.5-4.5 3.878 0 9.562 5.719 15 3 1.829-.914 6.191-10.096 10-12h3c1.538-.769 3.263-1.975 4.5.5l-3 4.5Z"/><path fill="#FFFB8E" id="PRM" d="m122 198-13 7c-12.322 0-24.626-20.753-30-31.5-1.9-3.799 2-7.574 2-10.5l2.5-2c4.105-2.052 38.415-17 40.5-17 0 9.807-24.55 23.4-21 30.5.857 1.715 3.557-1.114 4-2 2.427-4.855 6.851-8.851 11-13 8.305-8.305 23.969-22.234 34.5-27.5 2.61-1.305 13.5.084 13.5 2l-4.5 3-13 11c-8.333 8.333-12.668 16.836-17.5 26.5-1.165 2.329-.853 5.706-2 8l-4 7.5c-1.802 0-3 6.346-3 8ZM335 199l13 6c13.421 0 24.873-24.246 30-34.5 1.531-3.062-3-5.022-3-7.5 0-1.844-8.852-4.176-10.5-5-5.728-2.864-27.284-14-32.5-14 0 9.306 25.095 22.31 21 30.5-1.032 2.064-2.845-1.845-3.5-2.5l-9-11-34-28c-2.345-1.172-15.5-3.1-15.5 1l17.5 14c13.218 13.218 13.368 24.235 20.5 38.5l2 2.5c1.693 0 4 8.239 4 10Z"/><path fill="#FFF990" id="COPY" d="M125 190c2.546 0 6 10.964 6 13 6.611 0 16-9.429 16-16-2.96 0 3.396-8.896 5.5-11l22.5-36c0-1.238-.423-3-2-3l-7-3-4.5 3-13 11c-8.333 8.333-12.668 16.836-17.5 26.5-1.165 2.329-.853 5.706-2 8l-4 7.5ZM331 189c0 2.827-2.831 4.163-4 6.5-.736 1.471.357 7.5-2 7.5-5.706 0-16-10.319-16-16 5.05 0-2.914-7.329-5-11.5-3.746-7.491-22-30.209-22-36.5l2-3c0 1.52 5.428-2 7-2l17.5 14c13.218 13.218 13.368 24.235 20.5 38.5l2 2.5Z"/><path fill="#CBC9CC" id="arb" d="M93 140c0 1.93 1.93 0 0 0Z"/><path fill="#FFFA8F" id="UVU" d="M166 167c5.721 0 12.656-2.578 17.5-5 4.261-2.131 22.425 0 29 0 2.663 0 12.65-1.675 14-1 5.813 2.906 35.728-1.136 38 0 3.148 1.574 22.8 6 26.5 6 0-1.322-16.213-10.857-18.5-12h-11c-12.535-6.267-36.924-10.538-50-4-3.798 1.899-11.936 1.468-17 4h-10c-3.118 1.559-18.5 9.339-18.5 12Z"/><path fill="#FDFC8F" id="NOD" d="M247 191h1c0-2.109 2.535-2 4-2 0-2.156 7.077-2 9-2h1c0-2.497 8.839-2 11-2 9.948 0 20.437-4 30-4 0-3.811-7.689-14-12-14-3.7 0-23.352-4.426-26.5-6-2.272-1.136-32.187 2.906-38 0-1.35-.675-11.337 1-14 1-6.575 0-24.739-2.131-29 0-4.844 2.422-11.779 5-17.5 5-4.088 0-13 9.589-13 14 9.625 0 20.061 4 30 4 4.11 0 25 2.487 25 6h1l5.5 2h27l5.5-2Z"/><path fill="#A9AAA7" id="V4r" d="M126 224h2l1-1 1-2v-1l1-1 4-8c-4.115 0-5.173 9.154-9 1.5-1.103-2.205 4.045-5.773 5.5-6.5 3.221-1.611 10.03-4.56 11.5-7.5 2.428-4.856 6.955-15.773 13.5-12.5 1.455.727-.82 3.82-1.5 4.5L144 201l15-8 1-1 1-1c2.384 0 4.881-3 8-3l2-1h3c2.723 0 5.778-1 9-1v-1c-9.939 0-20.375-4-30-4l-5 5-1 1c0 6.571-9.389 16-16 16 0 1.579-2.855 1-4 1l-2 6c0 4.869 1 9.649 1 14ZM327 222l4 2v-14c0-2.483-2-4.026-2-6-1.145 0-4 .579-4-1-5.706 0-16-10.319-16-16 0-1.635-4.365-6-6-6-9.563 0-20.052 4-30 4v1c3.222 0 6.277 1 9 1h4l2 1c3.45 0 4.946 3 8 3 3.708 0 21.046 16 23 16 0-1.618-16.134-15.317-17.5-16-1.778-.889-2.109-4.946 0-6 2.396-1.198 6.645 3.789 7.5 5.5 3.549 7.098 9.749 12.625 17.5 16.5 1.837.918 4.612 4.276 3.5 6.5-3.919 7.838-7.438-5.5-11-5.5l7 11v1l1 1v1Z"/><path fill="#A9AAA8" id="chpl" d="M137 208c-1.577 0-2 1.762-2 3-4.115 0-5.173 9.154-9 1.5-1.103-2.205 4.045-5.773 5.5-6.5 3.221-1.611 10.03-4.56 11.5-7.5 2.428-4.856 6.955-15.773 13.5-12.5 1.455.727-.82 3.82-1.5 4.5L144 201c-1.562 0-5 2.189-5 4v1l-1 1-1 1Z"/><path fill="#AAA9A7" id="V4" d="M194 187c4.705 0 9.618 4 14 4 0-3.513-20.89-6-25-6v1l10 1h1ZM262 187h1l10-1v-1c-2.161 0-11-.497-11 2Z"/><path fill="#A9AAA8" id="chpl" d="M319 207v1c3.562 0 7.081 13.338 11 5.5 1.112-2.224-1.663-5.582-3.5-6.5-7.751-3.875-13.951-9.402-17.5-16.5-.855-1.711-5.104-6.698-7.5-5.5-2.109 1.054-1.778 5.111 0 6 1.366.683 17.5 14.382 17.5 16Z"/><path fill="#FFF990" id="COPY" d="m148 186-1 1 1-1Z"/><path fill="#FEB1D9" id="SPIV" d="M189 202c0 1.567-7.487 4-9 4-5.045 0-7-3.252-7-8l2-3.5c.978-1.956-1-4.077-1-5.5v-2c2.723 0 5.778-1 9-1l10 1v1c0 5.102-3 8.712-3 13l-1 1ZM267 202c0 1.928 8.228 4 10 4 5.964 0 6-3.827 6-9 0-1.088-4.86-8 0-8l-1-2c-2.723 0-5.778-1-9-1l-10 1v1c0 4.871 4 9.501 4 14Z"/><path fill="#F0F080" id="CB" d="M169 188h2v-1l-2 1Z"/><path fill="#FF9BCD" id="MY" d="M171 188c0 1.473 1.952 1 3 1v-2h-3v1ZM194 187l-1 1v-1h1Z"/><path fill="#FFB0D7" id="MV" d="M190 201v1c8.022 0 14.888-3 22-3l1-1 2-1v-1l-1-1-5-4h-1c-4.382 0-9.295-4-14-4l-1 1c0 5.102-3 8.712-3 13Z"/><path fill="#AAA9A7" id="V4" d="M261 187c-1.923 0-9-.156-9 2 1.517 0 9-.726 9-2Z"/><path fill="#FFB0D7" id="MV" d="M245 199c7.088 0 13.914 3 22 3 0-4.499-4-9.129-4-14l-1-1h-1c0 1.274-7.483 2-9 2l-4 2h-1l-5 5 3 3Z"/><path fill="#FF9BCD" id="MY" d="M263 187v1l-1-1h1ZM286 188l-3 1-1-2h4v1Z"/><path fill="#F0F080" id="CB" d="M286 188h2l-2-1v1Z"/><path fill="#FFA2D2" id="ECU" d="M159 193c0 10.832 7.945 5 14 5l2-3.5c.978-1.956-1-4.077-1-5.5-1.048 0-3 .473-3-1h-2c-3.119 0-5.616 3-8 3l-1 1-1 1ZM296 191c0 6.358.204 13.352-10.5 8l-2.5-2c0-1.088-4.86-8 0-8l3-1h2c3.45 0 4.946 3 8 3Z"/><path fill="#AAA9A7" id="V4" d="M252 189c-1.465 0-4-.109-4 2l4-2Z"/><path fill="#FFFC8D" id="PFL" d="M325 203c0 1.579 2.855 1 4 1 3.694 0 4.108-5 6-5 0-1.761-2.307-10-4-10 0 2.827-2.831 4.163-4 6.5-.736 1.471.357 7.5-2 7.5ZM131 203c0 1.579-2.855 1-4 1-2.695 0-5-3.673-5-6 0-1.654 1.198-8 3-8 2.546 0 6 10.964 6 13Z"/><path fill="#FF9BCD" id="MY" d="m161 191-1 1 1-1Z"/><path fill="#AAA9A7" id="V4" fill-rule="evenodd" d="m223 206 3.5 3c2.579 1.29 4.232-2 6.5-2v-2l7-6c0-1.238.423-3 2-3l5-5-5.5 2h-27l-5.5-2 5 4 1 1v1l2 2 6 7m10-1c0-3.557 6-5.255 6-8.5 0-1.838-3.446-1.5-4.5-1.5h-16c-2.516 1.258 2.06 6.06 3 7l4 4 7.5-1Z"/><path fill="#FF9BCD" id="MY" d="M324 219h2l-7-11v-1c-1.954 0-19.292-16-23-16 0 6.358.204 13.352-10.5 8l-2.5-2c0 5.173-.036 9-6 9 0 2.247 5 3.288 5 7 .943 0 8.427-7.963 10.5-9 4.431-2.215 9.027 5 12.5 5 0-3.411-17.116-9-4.5-9h3.5c0-1.186 1-1.186 1 0 2.406 0 16 13.75 16 16l1 1 2 2ZM160 192l-1 1 1-1ZM131 219h1l9-9c0-1.747.253-2 2-2 0-2.336 4.71-8 8-8 0-1.399 2-1.399 2 0 1.39 0 8-.829 8 1.5l-4 3.5c3.899 0 6.84-1.83 10.5 0l6.5 8 2-3.5 4-3.5c-5.045 0-7-3.252-7-8-6.055 0-14 5.832-14-5l-15 8c0 1.811-3.438 4-5 4v1l-1 1-1 1c0 1.238-.423 3-2 3l-4 8ZM214 195l1 1-1-1Z"/><path fill="#A9AAA8" id="chpl" d="M233 205c0-3.557 6-5.255 6-8.5 0-1.838-3.446-1.5-4.5-1.5h-16c-2.516 1.258 2.06 6.06 3 7l4 4 7.5-1Z"/><path fill="#FF9BCD" id="MY" d="M240 199h5l-3-3c-1.577 0-2 1.762-2 3ZM213 198l4 1-2-2-2 1Z"/><path fill="#F0F080" id="CB" d="M109 205c0 2.064 3.353.426 4.5 1 3.047 1.524 9.289 4 11.5 4l2-6c-2.695 0-5-3.673-5-6l-13 7Z"/><path fill="#FF9BCD" id="MY" d="m213 198-1 1 1-1Z"/><path fill="#FDA5D1" id="NTS" d="m178 220 2 1c5.318 0 11.901-2 17-2h1l5-2 2-4c-1.278 0-2.715-4.07-2-5.5 1.87-3.74 13-8.191 13-.5 3.945 0 7 4.716 7-1l-6-7-4-1-1 1c-7.112 0-13.978 3-22 3h-1c0 1.567-7.487 4-9 4l-4 3.5-2 3.5 4 7ZM278 220l-1 1c-5.848 0-12.499-2-18-2h-1l-4-2-2-4c0-3.617 2.806-7.347-2.5-10-2.679-1.34-8.5.267-8.5 3-1.727 0-8 6.277-8 1v-2l7-6h5c7.088 0 13.914 3 22 3 0 1.928 8.228 4 10 4 0 2.247 5 3.288 5 7 0 1.097-3.517 7-4 7Z"/><path fill="#C9C9C8" id="icp" d="M151 200h2c0-1.399-2-1.399-2 0ZM304 200h1c0-1.186-1-1.186-1 0Z"/><path fill="#F0F080" id="CB" d="M348 205c0 1.484-8.263 2-10 2-2.538 0-3.953 3-7 3 0-2.483-2-4.026-2-6 3.694 0 4.108-5 6-5l13 6Z"/><path fill="#C8CACA" id="sptV" d="M147 211h1l1-1 1-1h1l1-1 1-1h1c0-1.577 1.762-2 3-2l4-3.5c0-2.329-6.61-1.5-8-1.5h-2c-3.29 0-8 5.664-8 8 1.203 0 8.133-3.765 7-1.5l-4 4.5h1Z"/><path fill="#C8CACA" id="sptV" fill-rule="evenodd" d="m307 205-1 1.5 10.5 8.5c3.015-1.508-7.293-10-9.5-10m12 68c-3.895 0-6.251 4-9 4l-2-3.5c1.057-2.114 7-3.346 7-4.5 1.664 0 6-1.823 6-4l1-1 1-1v-1l1-1 1-2v-1l1-1v-1l1-2v-1l1-2 1-2-1-13-1-1v-4l-1-1-2-3-1-1v-1l-2-2-6-6-2-2-1-1c0-1.726-4.558-5-6-5h-1c0-3.411-17.116-9-4.5-9h4.5c2.406 0 16 13.75 16 16l1 1 2 2 3 3v1l2 3v1l2 3v1l1 2v1l1 2v17l-1 2v2l-1 1v2l-1 1v2l-1 1v1c-1.747 0-2 .253-2 2l-6 5-2 1Z"/><path fill="#A9AAA7" id="V4r" d="M144 201c-1.562 0-5 2.189-5 4 1.562 0 5-2.189 5-4Z"/><path fill="#FF9BCD" id="MY" d="M189 202h1v-1l-1 1Z"/><path fill="#FDB1D8" id="DMX" d="M216 207c0 3.521-8.512 6-11 6-1.278 0-2.715-4.07-2-5.5 1.87-3.74 13-8.191 13-.5ZM241 206c0 4.892 6.666 7 11 7 0-3.617 2.806-7.347-2.5-10-2.679-1.34-8.5.267-8.5 3Z"/><path fill="#FDA5D2" id="SPVI" d="M142 269h6c11.107 0 7.462-20.423 11-27.5 3.696-7.392 19-9.758 19-18.5v-3l-4-7-6.5-8c-3.66-1.83-6.601 0-10.5 0 0 1.577-1.762 2-3 2h-1l-1 1-1 1h-1l-1 1-1 1h-1c0 1.747-.253 2-2 2l-1 1-1 1-2 3-1 1-1 1-1 1-1 1-1 1-1 1-1 1-1 1-1 1-1 1v1l-1 2-1 2-1 11v6l1 2v1l2 4v2c1.577 0 2 1.762 2 3v1c1.539 0 3 1.342 3 3l3 2 1 1h2ZM308 269h7c1.664 0 6-1.823 6-4l1-1 1-1v-1l1-1 1-2v-1l1-1v-1l1-2v-1l1-2 1-2-1-13-1-1v-4l-1-1-2-3-1-1v-1l-2-2-6-6-2-2-1-1-6-5h-1c-3.473 0-8.069-7.215-12.5-5-2.073 1.037-9.557 9-10.5 9 0 1.097-3.517 7-4 7l1 4c0 8.599 14.65 9.801 18 16.5 3.182 6.365.878 28.5 11 28.5Z"/><path fill="#FDA3D1" id="Pa5" d="m146 211-1 1c-.605 0-7.54 4.581-6 1.5.809-1.619 2-1.471 2-3.5l2-2c1.203 0 8.133-3.765 7-1.5l-4 4.5Z"/><path fill="#FF9BCD" id="MY" d="M157 205c-1.238 0-3 .423-3 2 1.238 0 3-.423 3-2Z"/><path fill="#FDA3D1" id="Pa5" d="m307 205-1 1.5 10.5 8.5c3.015-1.508-7.293-10-9.5-10Z"/><path fill="#A9AAA7" id="V4r" d="m139 206-1 1 1-1Z"/><path fill="#FF9BCD" id="MY" d="m227 245 2 2v-19.5l2 1.5 4-1v-3c-12.334 0 3.391-22.719 11-7.5l-1 5.5 9-6-2-4c-4.334 0-11-2.108-11-7-1.727 0-8 6.277-8 1-2.268 0-3.921 3.29-6.5 2l-3.5-3c0 5.716-3.055 1-7 1 0 3.521-8.512 6-11 6l-2 4 9 7v-1c-.618 0-2.309-3.883-2-4.5 1.649-3.299 8.661-7.42 12.5-5.5 4.081 2.04 4.907 12-1.5 12v3l4 2 1.5-2 1.5 4-1 13Z"/><path fill="#A9AAA7" id="V4r" d="m138 207-1 1 1-1Z"/><path fill="#FF9BCD" id="MY" d="m153 207-1 1 1-1Z"/><path fill="#A9AAA7" id="V4r" d="M137 208c-1.577 0-2 1.762-2 3 1.577 0 2-1.762 2-3Z"/><path fill="#C8CACA" id="sptV" d="M143 208c-1.747 0-2 .253-2 2l2-2Z"/><path fill="#FF9BCD" id="MY" d="m152 208-1 1 1-1ZM150 209l-1 1 1-1ZM306 209c1.442 0 6 3.274 6 5l-6-5Z"/><path fill="#C8CACA" id="sptV" d="M137 273c4.117 0 6.901 4 10 4 0-1.812 2-1.87 2-2.5 0-2.675-7-4.269-7-5.5h-2l-1-1-3-2-3-3v-1l-2-3v-2l-2-4v-1l-1-2v-1c-1.566 0-1.566-5 0-5l1-11 1-2 1-2v-1l1-1 1-1 1-1 1-1 1-1 1-1 1-1 1-1 1-1 1-1 2-3 1-1 1-1v-1c-.605 0-7.54 4.581-6 1.5.809-1.619 2-1.471 2-3.5l-9 9-1 1-1 1-1 2-1 2-1 2-1 2-1 2v2l-1 2v1l-1 2v13c1.473 0 1 1.952 1 3v1l1 2v2l1 1v1l1 1v2c3.138 0 4.967 8 9 8l1 1Z"/><path fill="#FF9BCD" id="MY" d="m149 210-1 1 1-1Z"/><path fill="#C8CACA" id="sptV" d="m146 211-1 1 1-1Z"/><path fill="#FF9BCD" id="MY" d="M145 212v1c1.747 0 2-.253 2-2h-1l-1 1ZM145 213l-1 1 1-1Z"/><path fill="#FEB1D7" id="XII" d="M212 223c1.477 0 5.699 2 9 2 6.407 0 5.581-9.96 1.5-12-3.839-1.92-10.851 2.201-12.5 5.5-.309.617 1.382 4.5 2 4.5ZM245 223c-1.046 0-6.474 2-10 2-12.334 0 3.391-22.719 11-7.5l-1 5.5Z"/><path fill="#FF9BCD" id="MY" d="m144 214-1 1 1-1ZM313 215l2 2-2-2Z"/><path fill="#C9C9C8" id="icp" d="m321 216 1 1-1-1Z"/><path fill="#FFB2D8" id="IRN" d="M183 266h1c3.118 0 6.953-4 11-4l17-32 1-1-1-5-9-7-5 2-1 1c0 4.164-7.121 9.741-9 13.5-3.9 7.801-9.104 15.207-13 23l-5 6.5c0 2.496 5-.496 5 2h2c1.048 0 3-.473 3 1h3ZM273 266h3c0-1.473 1.952-1 3-1h2c0-1.643 3.765-1 5-1v-1l-21-34.5-6-8.5-1-1-4-2-9 6-1 5v1c0 7.546 17 24.955 17 33 2.04 0 11 1.72 11 4h1Z"/><path fill="#FF9BCD" id="MY" d="m141 218-1 1 1-1ZM130 220h1v-1l-1 1Z"/><path fill="#C9C9C8" id="icp" d="m132 219-1 1v-1h1Z"/><path fill="#FCB3D9" id="PARN" d="M164 270c-3.045 0-10 1.209-10 5-2.805 0-6-3.261-6-6 11.107 0 7.462-20.423 11-27.5 3.696-7.392 19-9.758 19-18.5l2-2c5.318 0 11.901-2 17-2v1c0 4.164-7.121 9.741-9 13.5-3.9 7.801-9.104 15.207-13 23l-5 6.5-1 1-4 5-1 1Z"/><path fill="#FF9BCD" id="MY" d="m198 219-1 1v-1h1ZM259 219v1l-1-1h1Z"/><path fill="#FCB3D9" id="PARN" d="M293 270c2.099 0 9 .906 9 4 2.51 0 6-.856 6-5-10.122 0-7.818-22.135-11-28.5-3.35-6.699-18-7.901-18-16.5-1.577 0-2-1.762-2-3-5.848 0-12.499-2-18-2v1l6 8.5 21 34.5 2 2 3 4 2 1Z"/><path fill="#C9C9C8" id="icp" d="M327 221v1l-3-3h2v1l1 1ZM131 220l-1 1v-1h1Z"/><path fill="#FF9BCD" id="MY" d="m139 220-1 1 1-1ZM180 221l-2 2v-3l2 1ZM277 221c0 1.238.423 3 2 3l-1-4-1 1ZM326 220l1 1-1-1Z"/><path fill="#C9C9C8" id="icp" d="m130 221-1 2 1-2Z"/><path fill="#FF9BCD" id="MY" d="m137 222-1 1 1-1ZM333 241h1c0-6.183-3-14.12-3-17l-4-2v1c1.577 0 2 1.762 2 3v1c1.577 0 2 1.762 2 3v1l1 2v1l1 2v5Z"/><path fill="#C9C9C8" id="icp" d="M128 224v1l1-2-1 1Z"/><path fill="#FFB1D9" id="NR" d="M221 228c0 1.735-6.51 1-8 1l-1-5v-1c1.477 0 5.699 2 9 2v3ZM244 228l-1 1c-2.707 0-5.903-1-8-1v-3c3.526 0 8.954-2 10-2l-1 5Z"/><path fill="#FF9BCD" id="MY" d="m321 223 2 2-2-2Z"/><path fill="#C9C9C8" id="icp" d="M327 223c1.577 0 2 1.762 2 3l-2-3Z"/><path fill="#FF9BCD" id="MY" d="M123 236h1v-1l1-2v-2l1-2 1-2 1-2v-1h-2c-3.392 0-3 9.365-3 12ZM135 224l-1 1 1-1Z"/><path fill="#C9C9C8" id="icp" d="m128 225-1 2 1-2Z"/><path fill="#FF9BCD" id="MY" d="m133 226-1 1 1-1ZM323 226l1 1-1-1Z"/><path fill="#C9C9C8" id="icp" d="m127 227-1 2 1-2Z"/><path fill="#FF9BCD" id="MY" d="m132 227-1 1 1-1Z"/><path fill="#CBCBCC" id="mlf" d="M231 229c0 2.807 1.45 18-2 18v-19.5l2 1.5Z"/><path fill="#C9C9C8" id="icp" d="M329 227c1.577 0 2 1.762 2 3l-2-3Z"/><path fill="#FEB0D8" id="GRN" d="m240 271 11.5 6c2.161 1.081 4.894-1 6.5-1 0-2.412-3.487-5.526-2-8.5l5-5.5c0-8.045-17-25.454-17-33h-1c-2.707 0-5.903-1-8-1l-4 1c0 2.807 1.45 18-2 18l-2-2c0 4.38-2-11.168-2-15l-4-2c0 1.735-6.51 1-8 1l-1 1-17 32c0 .434 5.185 4.87 6 6.5 1.237 2.475-3 5.319-3 7.5 1.606 0 4.339 2.081 6.5 1l11.5-6 1-1c0-2.389 7.547-15 10-15 0-4.907 2-5.671 2 0h3.5l1.5 5.5 6 10.5Z"/><path fill="#CBCBCC" id="mlf" d="m225 230 1.5-2 1.5 4-1 13c0 4.38-2-11.168-2-15Z"/><path fill="#FF9BCD" id="MY" d="M243 229h1v-1l-1 1Z"/><path fill="#C9C9C8" id="icp" d="m126 229-1 2 1-2Z"/><path fill="#FF9BCD" id="MY" d="m131 229-1 2 1-2ZM213 229l-1 1 1-1ZM326 230l1 1-1-1ZM130 231l-1 2 1-2Z"/><path fill="#C9C9C8" id="icp" d="m331 231 1 2-1-2ZM125 233l-1 2 1-2ZM332 234l1 2-1-2Z"/><path fill="#FF9BCD" id="MY" d="m327 235 1 1-1-1Z"/><path fill="#C9C9C8" id="icp" d="M123 237v1l1-2h-1v1Z"/><path fill="#FF9BCD" id="MY" d="M123 238v13c-1.644 0-1.644-14 0-14v1Z"/><path fill="#C9C9C8" id="icp" d="M333 249h1v-8h-1v8Z"/><path fill="#FF9BCD" id="MY" d="M128 244c-1.566 0-1.566 5 0 5v-5ZM334 245c1.186 0 1.186 1 0 1v-1ZM329 249l-1 2 1-2ZM333 253v1c1.643 0 1-3.765 1-5h-1v4ZM128 250l1 2-1-2Z"/><path fill="#FEC6E2" id="RO" d="M227 263c0 7.108 1.402 1 3 1l-1-9c0-5.671-2-4.907-2 0v8Z"/><path fill="#C9C9C8" id="icp" d="M123 254h1c0-1.048.473-3-1-3v3Z"/><path fill="#FF9BCD" id="MY" d="m328 251-1 2 1-2ZM129 253l2 4-2-4Z"/><path fill="#C9C9C8" id="icp" d="M332 255h1v-2l-1 2Z"/><path fill="#FF9BCD" id="MY" d="M125 257v2c-1.638 0-2-3.576-2-5h1v1l1 2ZM327 254l-1 2 1-2Z"/><path fill="#C9C9C8" id="icp" d="m124 255 1 2-1-2Z"/><path fill="#C8C8CC" id="tspc" d="M216 271c0 2.041.959 3 3 3l6-8 2-3v-8c-2.453 0-10 12.611-10 15l-1 1ZM240 271c0 3.212-1.288 2-3 2-1.985 0-2.696-7-6-7l-1-2-1-9h3.5l1.5 5.5 6 10.5Z"/><path fill="#FF9BCD" id="MY" d="M332 257v1c1.473 0 1-1.952 1-3h-1v2ZM326 257l-1 1 1-1Z"/><path fill="#C9C9C8" id="icp" d="M331 258h1v-1l-1 1Z"/><path fill="#FF9BCD" id="MY" d="m332 258-1 2v-2h1Z"/><path fill="#C9C9C8" id="icp" d="M125 260h1l-1-1v1Z"/><path fill="#FF9BCD" id="MY" d="M131 259c1.577 0 2 1.762 2 3l-2-3ZM325 259l-1 2 1-2ZM127 262v1c-1.577 0-2-1.762-2-3h1v1l1 1Z"/><path fill="#C9C9C8" id="icp" d="M330 261h1v-1l-1 1ZM126 261l1 1-1-1Z"/><path fill="#FF9BCD" id="MY" d="m324 261-1 1 1-1ZM331 261l-1 2v-2h1Z"/><path fill="#FCB3D7" id="LRNm" d="M198 276c-2.593 0-6.889 10-17 10-13.226 0 2-15.259 2-19l1-1c3.118 0 6.953-4 11-4 0 .434 5.185 4.87 6 6.5 1.237 2.475-3 5.319-3 7.5ZM258 276c3.746 0 9.686 11 17 11 0-2.369 8.106-3.288 6-7.5-2.124-4.247-8-7.414-8-12.5l-1-1c0-2.28-8.96-4-11-4l-5 5.5c-1.487 2.974 2 6.088 2 8.5Z"/><path fill="#FF9BCD" id="MY" d="M133 263c1.539 0 3 1.342 3 3l-3-3ZM175 265c-5.844 0-1 4.142-1 6-5.063 0-1.067-7-5-7l1-1c0 2.496 5-.496 5 2ZM228 277h1c0-2.203-.896-11 2-11l-1-2c-1.598 0-3 6.108-3-1l-2 3c2.311 0 3 9.252 3 11ZM286 264l2 1-2-2v1ZM323 263l-1 1 1-1ZM330 263l-1 1 1-1Z"/><path fill="#FF9BCD" id="MY" fill-rule="evenodd" d="M237 290c0 9.914 16.068 10.364 17 8.5l-2-3c-5.206-5.206-7.056-5.5-15-5.5m-28 0h5.5c18.12 0-9.793 13.915-12.5 8.5-.677-1.354 3-3.656 3-5.5-1.236 0-7.033 7.435-9 3.5l1-4c-.643-1.285-12 6.233-12 2 0-2.383 8.963-4.731 10.5-5.5 6.645-3.322 10.541-8.77 17-12 2.547-1.273 2.278 2.861 4 2l2.5-5c-2.041 0-3-.959-3-3l-11.5 6c-2.161 1.081-4.894-1-6.5-1-2.593 0-6.889 10-17 10 0 5.064-9.702 0-11 0 0 6.241-2.633 1-8 1 0 3.456 12 4.046 12 6.5l-3.5.5c-3.151-1.575-13.5-3.842-13.5-8l-2-1c0 4.933-18-8.928-18-12l-1-1c-4.033 0-5.862-8-9-8 0 3.633 12.639 15.069 16.5 17l8 6 22 10c4.537 2.268 11.575-.213 16 2 3.726 1.863 17.39 4.305 22 2 4.812-2.406 10.23-3.615 15-6l2-3 2 3c4.808 2.404 10.198 3.599 15 6 6.466 3.233 34.595-3.297 40-6 1.844-.922 9.5-.887 9.5-4-2.592 0-3.416.958-5.5 2-.476.238-7.5 1.973-7.5.5l13-6.5h-1c-3.298 0-8 4.821-8-1l-4.5 2c-2.161 1.081-4.894-1-6.5-1-7.314 0-13.254-11-17-11-1.606 0-4.339 2.081-6.5 1l-11.5-6c0 3.212-1.288 2-3 2 0 2.385 13.478 17 15.5 17l-2.5-3.5c-.819-.819-10.479-8.01-7.5-9.5 1.596-.798 5.032 2.032 6 3 4.683 4.683 12.327 6.327 16.5 10.5l6 4c0 3.442-9.089-1.089-10-2l-2.5-2.5c-.552 0 3.144 5.928 1 7-4.933 2.467-6.023-4.512-9-6-1.262-.631-19.29-7-19.5-7 0 4.36-2.719 11.062-6 4.5l1-5.5c-1.657 0-7.694 4.097-9.5 5-1.303.652-7.5.219-7.5 2Z"/><path fill="#FCB2D9" id="PGRNl" d="M170 286c1.298 0 11 5.064 11 0-13.226 0 2-15.259 2-19v-1h-3l-2 3-1 1c0 1.473-1.952 1-3 1-5.063 0-1.067-7-5-7l-4 5 1 2v8l1 1c0 1.349 3 3.085 3 6Z"/><path fill="#FF9BCD" id="MY" d="M281 265c3.714 0 3 1.744 3 5 .675 0 2-5.294 2-6-1.235 0-5-.643-5 1Z"/><path fill="#FCB2D9" id="PGRNl" d="m286 286-4.5 2c-2.161 1.081-4.894-1-6.5-1 0-2.369 8.106-3.288 6-7.5-2.124-4.247-8-7.414-8-12.5v-1h3l3 3v1l1 1h2l2-1c.675 0 2-5.294 2-6l2 1 3 4v1l-2 5.5 2 3.5-1 1c-1.967 0-4 4.578-4 6Z"/><path fill="#FF9BCD" id="MY" d="m322 264-1 1 1-1Z"/><path fill="#FEB3D8" id="AMBv" d="M177 270c0 1.473-1.952 1-3 1 0-1.858-4.844-6 1-6h2l1 4-1 1Z"/><path fill="#FF9BCD" id="MY" d="m180 266-2 3-1-4c1.048 0 3-.473 3 1ZM276 266l3 3v-4c-1.048 0-3-.473-3 1Z"/><path fill="#FEB3D8" id="AMBv" d="M280 271h2l2-1c0-3.256.714-5-3-5h-2v5l1 1Z"/><path fill="#FF9BCD" id="MY" d="M329 265c-1.747 0-2 .253-2 2l2-2ZM184 266l-1 1v-1h1Z"/><path fill="#FFB3D8" id="IO" fill-rule="evenodd" d="M197 291c0 1.93 1.93 0 0 0m1-1c0 1.93 1.93 0 0 0m5-1c0 1.93 1.93 0 0 0m2-2c0 2.091 3.746 0 0 0m2-2c0 3.479 3.479 0 0 0m2-1c0 1.93 1.93 0 0 0m1-1c0 1.93 1.93 0 0 0m2-2c0 4.42 1.206 0 0 0m2-2c0 4.42 1.206 0 0 0m-7 12c-1.747 0-2 .253-2 2-1.236 0-7.033 7.435-9 3.5l1-4c-.643-1.285-12 6.233-12 2 0-2.383 8.963-4.731 10.5-5.5 6.645-3.322 10.541-8.77 17-12 2.547-1.273 2.278 2.861 4 2l2.5-5 6-8c2.311 0 3 9.252 3 11l-1 1-1 5c-1.657 0-7.694 4.097-9.5 5-1.303.652-7.5.219-7.5 2l-2 1Z"/><path fill="#FFB3D8" id="IO" d="M229 277c0 2.833 2 4.84 2 7 .21 0 18.238 6.369 19.5 7 2.977 1.488 4.067 8.467 9 6 2.144-1.072-1.552-7-1-7l2.5 2.5c.911.911 10 5.442 10 2l-6-4c-4.173-4.173-11.817-5.817-16.5-10.5-.968-.968-4.404-3.798-6-3-2.979 1.49 6.681 8.681 7.5 9.5l2.5 3.5c-2.022 0-15.5-14.615-15.5-17-1.985 0-2.696-7-6-7-2.896 0-2 8.797-2 11Z"/><path fill="#FF9BCD" id="MY" d="M273 266v1l-1-1h1ZM320 273c0 3.005-5 3.171-5 6 3.009 0 12-8.991 12-12l-6 5-1 1ZM139 268l1 1-1-1ZM155 278c-2.293 0-2 .997-2 3-1.334 0-6-2.972-6-4 0-1.812 2-1.87 2-2.5 0-2.675-7-4.269-7-5.5h6c0 2.739 3.195 6 6 6l1 3ZM164 270l2 1-1-2-1 1ZM178 269l-1 1 1-1ZM291 270h2l-2-1v1ZM301 278c2.293 0 2 .997 2 3 2.83 0 4.54-4 7-4l-2-3.5c1.057-2.114 7-3.346 7-4.5h-7c0 4.144-3.49 5-6 5l-1 4Z"/><path fill="#FCB3D7" id="LRNm" d="m165 280-4 1-6-3-1-3c0-3.791 6.955-5 10-5l2 1v8l-1 1Z"/><path fill="#FF9BCD" id="MY" d="m217 270-1 1 1-1ZM279 270l1 1-1-1ZM284 270l-2 1 2-1Z"/><path fill="#FCB3D7" id="LRNm" d="m291 280 4 1 6-3 1-4c0-3.094-6.901-4-9-4h-2l-2 5.5 2 3.5v1Z"/><path fill="#C9C9C8" id="icp" d="m136 272 1 1-1-1ZM319 273h1l1-1-2 1Z"/><path fill="#C9CACA" id="sctd" d="m153 281 2 4c0 4.933-18-8.928-18-12 4.117 0 6.901 4 10 4 0 1.028 4.666 4 6 4ZM305 286l-2 1-2-2 2-4c2.83 0 4.54-4 7-4 2.749 0 5.105-4 9-4h1c0 3.005-5 3.171-5 6-1.429 0-4 1.288-4 3-1.664 0-6 1.823-6 4Z"/><path fill="#FF9BCD" id="MY" d="m228 277-1 1 1-1Z"/><path fill="#FFC6E2" id="RPA" d="m226 283-1 5.5c3.281 6.562 6-.14 6-4.5 0-2.16-2-4.167-2-7h-1l-1 1-1 5Z"/><path fill="#FEB0D9" id="LRNp" d="m157 286 5 1c0-3.329-1-4.97-1-6l-6-3c-2.293 0-2 .997-2 3l2 4 2 1ZM294 287h1l4-1 2-1 2-4c0-2.003.293-3-2-3l-6 3c0 1.03-1 2.671-1 6Z"/><path fill="#FF9BCD" id="MY" d="M165 280h2l-1-1-1 1ZM214 279c0 4.42 1.206 0 0 0ZM290 280h1v-1l-1 1ZM315 279c-1.429 0-4 1.288-4 3 1.429 0 4-1.288 4-3Z"/><path fill="#C8C8CB" id="rust" d="M170 286c0 6.241-2.633 1-8 1 0-3.329-1-4.97-1-6l4-1h2c0 1.349 3 3.085 3 6ZM286 286c0 5.821 4.702 1 8 1 0-3.329 1-4.97 1-6l-4-1h-1c-1.967 0-4 4.578-4 6Z"/><path fill="#FF9BCD" id="MY" d="M212 281c0 4.42 1.206 0 0 0ZM311 282c-1.664 0-6 1.823-6 4 1.664 0 6-1.823 6-4ZM210 283c0 1.93 1.93 0 0 0ZM209 284c0 1.93 1.93 0 0 0ZM207 285c0 3.479 3.479 0 0 0ZM303 287l-8 4c0-1.34 6.32-5 4-5l2-1 2 2Z"/><path fill="#CBC7CC" id="sctv" d="m157 286 5 1c0 3.456 12 4.046 12 6.5l-3.5.5c-3.151-1.575-13.5-3.842-13.5-8ZM295 287l-13 6.5c0 1.473 7.024-.262 7.5-.5 2.084-1.042 2.908-2 5.5-2 0-1.34 6.32-5 4-5l-4 1Z"/><path fill="#FF9BCD" id="MY" d="m305 286-2 1 2-1ZM205 287c0 2.091 3.746 0 0 0ZM203 289c0 1.93 1.93 0 0 0ZM198 290c0 1.93 1.93 0 0 0ZM209 290l-2 1 2-1Z"/><path fill="#C7C9C9" id="py" d="M207 291c0 1.747-.253 2-2 2 0 1.844-3.677 4.146-3 5.5 2.707 5.415 30.62-8.5 12.5-8.5H209l-2 1ZM237 290c0 9.914 16.068 10.364 17 8.5l-2-3c-5.206-5.206-7.056-5.5-15-5.5Z"/><path fill="#FF9BCD" id="MY" d="M197 291c0 1.93 1.93 0 0 0ZM207 291c-1.747 0-2 .253-2 2 1.747 0 2-.253 2-2Z"/></svg>