<svg xmlns="http://www.w3.org/2000/svg" viewBox="0 0 456 320"><path fill="#FEFA90" id="DEC" d="M179 105c6.372 0 .185-17.842 4.5-20l12-1 8-5c2.373-1.187 27.391-4.305 30-3 2.922 1.461 7.188-.406 10 1 5.562 2.781 12.029 4.015 18 7 3.029 1.514 7.889-.555 11 1 5.024 2.512.013 21 5.5 21 0-11.109 13-20.894 13-32-1.903 0-17.346-10.423-20.5-12-15.065-7.532-29.065-6-46.5-6-4.04 0-12.204-3.148-16.5-1-2.981 1.49-7.108.554-10 2-5.877 2.938-12.156 5.078-18 8L165 74c0 5.192 8.419 19.339 11 24.5.632 1.265 1.278 6.5 3 6.5Z"/><path fill="#FCFC90" id="ANcr1" d="M179 105c0 1.505-4.197 8-6 8-2.84 0-10.018-14.76-14.5-17-9.588-4.794-19.996-9-31.5-9 0-15.615 25.767-13 38-13 0 5.192 8.419 19.339 11 24.5.632 1.265 1.278 6.5 3 6.5ZM278 106c0 1.6 4.129 7 6 7l7-8.5c6.43-12.86 25.27-17.5 39-17.5 0-15.13-28.814-13-39-13 0 11.106-13 20.891-13 32Z"/><path fill="#CBC9CC" id="arb" fill-rule="evenodd" d="M224 78c0 2.497-11.624.062-13.5 1-9.592 4.796-18.116 6.732-23.5 17.5-.826 1.653.405 3.81 1 5l1 7c2.682 5.364 9.247 7.373 13.5 9.5 12.995 6.497 29.117 9.942 43 3 3.647-1.824 11.743-1.985 13.5-5.5l2.5-.5c4.548-2.274 10.166-15.167 7.5-20.5L258.5 84l-7.5-1.5c-2.707-5.413-20.763-4.5-27-4.5m-60 95c.805 0 13.536-8.018 15.5-9 11.824-5.912 33.03.985 45-5 3.358-1.679 10.442.721 13 2 5.174 2.587 32.669-.666 42 4 2.036 1.018 11.984 8 12.5 8 3.664 0 12.809 13 17.5 13l-3.5-3.5-7-6c-3.331-6.662-11.973-13.945-16-22-2.026-4.052-9-6.507-9-10.5l-9.5-6c-4.698-2.349-13.708-7-19-7-.865 0-6.155-1.191-5.5-2.5l4.5-.5c2.092-1.046 1.958-3 5.5-3 0-2.871 3.13-1.315 4.5-2 13.699-6.85 6.479-5 21.5-5 12.81 0 36.906 24.406 45.5 33l13 15 4 5 1.5-2.5c2.314-4.628-7.711-9.421-9-12L300 125c-1.076 0-1.46-4.98-3.5-6-2.465-1.232-12.5-1.535-12.5-6-1.871 0-6-5.4-6-7-5.487 0-.476-18.488-5.5-21-3.111-1.555-7.971.514-11-1-5.971-2.985-12.438-4.219-18-7-2.812-1.406-7.078.461-10-1-2.609-1.305-27.627 1.813-30 3l-8 5-12 1c-4.315 2.158 1.872 20-4.5 20 0 1.505-4.197 8-6 8 0 3.549-10.248 4.874-12.5 6-6.521 3.26-37.575-2.351-41.5 5.5l-8 6c0 1.501 6.369-2.369 7-3 2.432-2.432 6.55-3.025 9.5-4.5.6-.3 28.905-2.047 29-2 1.899.95 1.907 4-.5 4l-1 1-32 32.5c-1.279 2.558-8.428 6.145-6 11 .857 1.715 3.557-1.114 4-2 2.958-5.917 9.007-11.007 14-16 9.667-9.667 31.816-33.5 45-33.5 15.286 0 8.424-1.538 21.5 5 1.37.685 4.5-.871 4.5 2 1.731 0 10.233 4.033 10 4.5l-6.5 1.5c-3.818 1.909-8.294 2.147-12 4-3.706 1.853-10.422 8-14.5 8 0 2.991-4.469 4.438-6 7.5-1.869 3.737-10.001 15.001-13.5 18.5l-10 12 9.5-6 1-2m14-14c6.511 0 32.322-.411 37.5-3l3.5 1h13c15.397 0 31.017 2 46 2 1.634 0-2.13-10-5-10 0-5.973-11.258-7.879-15.5-10-9.602-4.801-46.125-5.937-56-1-3.298 1.649-18.5 5.007-18.5 11-2.407 0-5 7.045-5 9-1.186 0-1.186 1 0 1Z"/><path fill="#FEFA90" id="DEC" d="M224 78c0 2.497-11.624.062-13.5 1-9.592 4.796-18.116 6.732-23.5 17.5-.826 1.653.405 3.81 1 5l1 7c2.682 5.364 9.247 7.373 13.5 9.5 12.995 6.497 29.117 9.942 43 3 3.647-1.824 11.743-1.985 13.5-5.5l2.5-.5c4.548-2.274 10.166-15.167 7.5-20.5L258.5 84l-7.5-1.5c-2.707-5.413-20.763-4.5-27-4.5Z"/><path fill="#FCFA91" id="ANcr2" d="m155 126-14.5 7-40 20c-3.348 1.674-8.746 6-12.5 6-12.705 0-10.819-15.862-7-23.5l6-11c1.288-2.576.65-6.301 2-9 6.188-12.376 24.016-28.5 38-28.5 11.504 0 21.912 4.206 31.5 9 4.482 2.24 11.66 17 14.5 17 0 3.549-10.248 4.874-12.5 6-6.521 3.26-37.575-2.351-41.5 5.5l-8 6c0 1.501 6.369-2.369 7-3 2.432-2.432 6.55-3.025 9.5-4.5.6-.3 28.905-2.047 29-2 1.899.95 1.907 4-.5 4l-1 1Z"/><path fill="#FCFA91" id="ANcr2" fill-rule="evenodd" d="M299 119c0 2.716 24.276 4 29 4 3.141 0 15.937 8.281 16.5 8l-2.5-3.5-9.5-7.5-10.5 1-23-2m1 6c4.39 0 11.517 6.008 15.5 8l36 18c4.125 2.063 11.982 8 16.5 8 13.326 0 10.885-16.729 7-24.5-9.997-19.995-11.473-31.986-34.5-43.5-3.128-1.564-6.841-4-10.5-4-13.73 0-32.57 4.64-39 17.5l-7 8.5c0 4.465 10.035 4.768 12.5 6 2.04 1.02 2.424 6 3.5 6Z"/><path fill="#FDFB90" id="FOTU" d="M206 125c-9.022 0-19.102 6-24 6l-2-13c15.286 0 8.424-1.538 21.5 5 1.37.685 4.5-.871 4.5 2ZM250 125c9.491 0 18.33 6 25 6l1-13c-15.021 0-7.801-1.85-21.5 5-1.37.685-4.5-.871-4.5 2Z"/><path fill="#FFFB8E" id="PRM" d="M121 201h1l8-8c0-6.006 4.523-8.546 7-13.5 2.584-5.169 26.814-37.157 31.5-39.5 4.197-2.099 8.66-9 13.5-9l-2-13c-13.184 0-35.333 23.833-45 33.5-4.993 4.993-11.042 10.083-14 16-.443.886-3.143 3.715-4 2-2.428-4.855 4.721-8.442 6-11l32-32.5-14.5 7-40 20c-3.348 1.674-8.746 6-12.5 6 0 2.395-3.619 5.263-2 8.5l3 10c5.587 11.175 18.136 24.5 31 24.5l1-1ZM336 201l1 1c14.822 0 26.2-16.9 32-28.5 1.323-2.645.643-6.286 2-9l-3-5.5c-4.518 0-12.375-5.937-16.5-8l-36-18c-3.983-1.992-11.11-8-15.5-8l31 31.5c1.289 2.579 11.314 7.372 9 12l-1.5 2.5-4-5-13-15c-8.594-8.594-32.69-33-45.5-33l-1 13v1c10.741 0 29.629 25.758 34 34.5l10 12c2.305 4.609 8 9.074 8 14.5l7 8h2Z"/><path fill="#CBC9CC" id="arb" d="M299 119c0 2.716 24.276 4 29 4 3.141 0 15.937 8.281 16.5 8l-2.5-3.5-9.5-7.5-10.5 1-23-2Z"/><path fill="#FFFB8E" id="PRM" d="m156 125-1 1 1-1Z"/><path fill="#FBFC91" id="PYR" d="m182 131 1 12c4.078 0 10.794-6.147 14.5-8 3.706-1.853 8.182-2.091 12-4l6.5-1.5c.233-.467-8.269-4.5-10-4.5-9.022 0-19.102 6-24 6ZM275 132c0 3.312-1 8.038-1 12l-9.5-6c-4.698-2.349-13.708-7-19-7-.865 0-6.155-1.191-5.5-2.5l4.5-.5c2.092-1.046 1.958-3 5.5-3 9.491 0 18.33 6 25 6v1Z"/><path fill="#FFF990" id="COPY" fill-rule="evenodd" d="M147 185c0 1.93 1.93 0 0 0m4-4-2.5 4c.846.423 7.16-4 2.5-4m-7 18h1l1-1 1-1 17-15v-1c0-1.564-1-3.876-1-6l-9.5 6 10-12c3.499-3.499 11.631-14.763 13.5-18.5 1.531-3.062 6-4.509 6-7.5l-1-12c-4.84 0-9.303 6.901-13.5 9-4.686 2.343-28.916 34.331-31.5 39.5-2.477 4.954-7 7.494-7 13.5.353 0 4.439 6.969 6.5 8 2.583 1.292 5.121-2 7.5-2Z"/><path fill="#FFF990" id="COPY" d="m327 193-6.5 8c-4.577 2.289-8.73-5-12.5-5l-4.5-4-10.5-10v-1l1-4.5-2-3.5c3.664 0 12.809 13 17.5 13l-3.5-3.5-7-6c-3.331-6.662-11.973-13.945-16-22-2.026-4.052-9-6.507-9-10.5 0-3.962 1-8.688 1-12 10.741 0 29.629 25.758 34 34.5l10 12c2.305 4.609 8 9.074 8 14.5Z"/><path fill="#FBFC91" id="PYR" d="m183 153 6.5-4c4.515-2.258 10.439-1.719 15-4h14c11.074 0 33.169-2.416 42 2 2.491 1.246 10.067 6 12.5 6v-4c0-5.973-11.258-7.879-15.5-10-9.602-4.801-46.125-5.937-56-1-3.298 1.649-18.5 5.007-18.5 11v4Z"/><path fill="#FFFA8F" id="UVU" d="M178 159c6.511 0 32.322-.411 37.5-3l3.5 1h13c15.397 0 31.017 2 46 2 0-2.684-5-4.535-5-6-2.433 0-10.009-4.754-12.5-6-8.831-4.416-30.926-2-42-2h-14c-4.561 2.281-10.485 1.742-15 4l-6.5 4-5 5v1Z"/><path fill="#FFF990" id="COPY" d="m183 153-5 5c0-1.955 2.593-9 5-9v4ZM273 153c0 1.465 5 3.316 5 6 1.634 0-2.13-10-5-10v4ZM178 158c-1.186 0-1.186 1 0 1v-1Z"/><path fill="#FFFA8F" id="UVU" d="M291 181h2l1-4.5-2-3.5c-.516 0-10.464-6.982-12.5-8-9.331-4.666-36.826-1.413-42-4-2.558-1.279-9.642-3.679-13-2-11.97 5.985-33.176-.912-45 5-1.964.982-14.695 9-15.5 9l-1 2c0 2.124 1 4.436 1 6h1c9.995 0 36.286 6.893 44.5 11h17c6.319 0 21.088 1.456 26-1 9.405-4.703 21.276-9 32.5-9l1-1h5Z"/><path fill="#FFF990" id="COPY" d="m164 173-1 2 1-2Z"/><path fill="#CBC9CC" id="arb" d="m151 181-2.5 4c.846.423 7.16-4 2.5-4Z"/><path fill="#F0F080" id="CB" d="m165 181-1 1v-1h1ZM286 181l-1 1 1-1ZM293 181v1l-2-1h2Z"/><path fill="#CBC9CC" id="arb" d="M147 185c0 1.93 1.93 0 0 0Z"/><path fill="#FF9BCD" id="MY" d="m167 187-1 1 1-1Z"/><path fill="#FFA2D2" id="ECU" d="M185 191c0 3.741-5.517 8-9 8-12.221 0-13 .551-13-10h1l1-1h1l1-1h9l1 1h2l2 1h1c0 1.577 1.762 2 3 2Z"/><path fill="#FF9BCD" id="MY" d="m176 187 1 1-1-1ZM281 187l-2 1 2-1Z"/><path fill="#FFA2D2" id="ECU" d="M281 199h8l6-4.5-2-5.5h-1l-3-2h-8l-2 1h-2l-1 1h-2l-2 2c0 4.501 4.75 8 9 8Z"/><path fill="#FF9BCD" id="MY" d="M289 187c1.238 0 3 .423 3 2l-3-2ZM165 188l-1 1 1-1ZM179 188l2 1-2-1ZM277 188l-1 1 1-1ZM179 216h4c0-6.493 3-5.855 3-7l-1-2c-7.088 0-9-2.295-9-8-12.221 0-13 .551-13-10-4.079 0-18 10.81-18 14 3.541 0 6.145-3 10-3 0-2.992 10.983-2.534 12-.5 1.078 2.156-3 .79-3 2.5 7.07 0 15 6.543 15 14ZM197 198c1.235 0 5-.643 5 1 .755 0 9-3.711 9-4l-29-6c0 1.577 1.762 2 3 2 3.978 0 12 2.839 12 7ZM255 199c0-2.662 4.329 0 5 0 0-4.894 6.164-8 12-8l2-2-29 6c0 .184 9.096 4 10 4ZM301 200c6.601 0 13.915 9 17 9 0-3.213-22.015-20-25-20l2 5.5-6 4.5c1.781 0 12-3.003 12 1Z"/><path fill="#FDA5D0" id="CU" d="M196 199c-2.743 0-11 4.846-11 8-7.088 0-9-2.295-9-8 3.483 0 9-4.259 9-8 3.978 0 12 2.839 12 7l-1 1ZM281 199c0 5.982-4.04 8-10 8 0-3.19-8.196-8-11-8 0-4.894 6.164-8 12-8 0 4.501 4.75 8 9 8Z"/><path fill="#F0F080" id="CB" d="M144 199c0 6.946-17.98 2-22 2l8-8c.353 0 4.439 6.969 6.5 8 2.583 1.292 5.121-2 7.5-2Z"/><path fill="#FF9BCD" id="MY" d="M223 194h3c0-1.486-3-1.486-3 0Z"/><path fill="#FFA5D0" id="AP" d="M235 198h1l2-2v-1l-4-1h-11l-5 1v1l4 3c0-1.788 11.092-1 13-1Z"/><path fill="#FF9BCD" id="MY" d="M231 194h3c0-1.486-3-1.486-3 0Z"/><path fill="#F0F080" id="CB" d="m308 196 3 2.5c7.417 7.417 13.68 2.5 23 2.5l-7-8-6.5 8c-4.577 2.289-8.73-5-12.5-5Z"/><path fill="#FDA5D1" id="NTS" d="M204 216c-.4 0-3.573 4-8 4l-13-4c0-6.493 3-5.855 3-7 4.377 0 6.749-5 10-5 0 1.914 2.861 3.779 4 1.5l-1-3.5 3-3c.755 0 9-3.711 9-4h6l1 1 4 3c0 4.055 5 8.683 5 13 0 6.14-3.455 1-6 1 0-12.679-17-7.279-17 3Z"/><path fill="#FF9BCD" id="MY" d="M218 195v1l-1-1h1ZM239 195l-1 1v-1h1Z"/><path fill="#FDA5D1" id="NTS" d="M261 220h1l1-1c3.489 0 5.32-2 9-2l1-1 1-4.5-3-2.5c-3.154 0-10-1.884-10-5l-3.5 3c-2.202 0-.5-4.596-.5-5 0-1.481-2-.785-2-3-.904 0-10-3.816-10-4h-6l-1 1-2 2-1 1c0 3.557-6 9.05-6 13 0 5.196 3.139 2 6 2 0-15.428 18-6.684 18 2 0 4.358 4.781 4 8 4Z"/><path fill="#F0F080" id="CB" d="m147 197-1 1 1-1ZM146 198l-1 1 1-1Z"/><path fill="#C8CACA" id="sptV" d="M160 203h2l1-1h1c0-1.71 4.078-.344 3-2.5-1.017-2.034-12-2.492-12 .5 4.059 0 5-.348 5 3Z"/><path fill="#FF9BCD" id="MY" d="m197 198-1 1 1-1Z"/><path fill="#FFB2D6" id="PAS" d="m185 207 1 2c4.377 0 6.749-5 10-5 0-1.577 1.762-2 3-2l3-3c0-1.643-3.765-1-5-1l-1 1c-2.743 0-11 4.846-11 8Z"/><path fill="#AAA9A7" id="V4" d="M227 212h2c0-3.95 6-9.443 6-13v-1c-1.908 0-13-.788-13 1 0 4.055 5 8.683 5 13Z"/><path fill="#FF9BCD" id="MY" d="m236 198-1 1v-1h1Z"/><path fill="#FFB2D6" id="PAS" d="M271 207v2c-3.154 0-10-1.884-10-5l-4-2c0-1.481-2-.785-2-3 0-2.662 4.329 0 5 0 2.804 0 11 4.81 11 8Z"/><path fill="#C8CACA" id="sptV" d="M295 203h2c0-3.416-.596-3 4-3 0-4.003-10.219-1-12-1 0 3.583 6 .976 6 4Z"/><path fill="#FF9BCD" id="MY" d="M273 216h4c0-4.727 6.299-11.9 10.5-14l7.5 1c0-3.024-6-.417-6-4h-8c0 5.982-4.04 8-10 8v2l3 2.5-1 4.5Z"/><path fill="#FDA3D1" id="Pa5" d="M134 214c0 1.048-.473 3 1 3 2.853 0 6.931-4 10-4l1-1 1-1 1-1h1l1-1 2-1 1-1 4-2 1-1 2-1c0-3.348-.941-3-5-3-3.855 0-6.459 3-10 3 0 1.577-1.762 2-3 2l-1 1-1 1-1 1-3 4-1 1-1 1ZM321 213c0 .701 3.889 4 1 4-3.96 0-11.493-7-14-7-3.29 0-5.518-5-9-5l-2-2c0-3.416-.596-3 4-3 6.601 0 13.915 9 17 9l3 4Z"/><path fill="#F0F080" id="CB" d="m121 201-1 1 1-1ZM336 201l1 1-1-1Z"/><path fill="#FF9BCD" id="MY" d="m163 202-1 1 1-1Z"/><path fill="#FDA5D2" id="SPVI" d="M143 269h6c1.145 0 4 .579 4-1l-3-3.5-3-8c-2.886-5.771 4.583-29.542 8.5-31.5 5.109-2.555 6.855 0 11.5 0 5.852 0 12-2.081 12-9 0-7.457-7.93-14-15-14h-1l-1 1h-2l-2 1-1 1-4 2-1 1-2 1-1 1-1 1h-1v1l-1 1h-1v1l-1 1-9 8-1 1-1 1-1 2-1 1v2l-1 1-1 12v6l1 1v1l1 2v2l1 1v1l1 2v1l1 1v1l1 1c0 1.429 1.288 4 3 4l2 2h3Z"/><path fill="#C8CAC7" id="ts" d="M199 202c-1.238 0-3 .423-3 2 0 1.914 2.861 3.779 4 1.5l-1-3.5ZM257 202l4 2-3.5 3c-2.202 0-.5-4.596-.5-5Z"/><path fill="#FDA5D2" id="SPVI" d="M313 269h3l1-1 1-1h1l1-1 1-2 1-1 1-2v-2l1-1v-1l1-1v-2l1-1v-2l1-1v-10c0-5.336-3-9.658-3-14l-1-1v-1l-1-1c-.765 0-14-11.915-14-13-3.29 0-5.518-5-9-5l-2-2h-2l-7.5-1c-4.201 2.1-10.5 9.273-10.5 14 0 6.693 7.529 9 13 9 0-1.765 1.581-.541 2.5-1 3.493-1.747 9.466.433 11.5 4.5 2.429 4.858 10.596 38.5-1 38.5 0 2.461 3.378 2 5 2h5Z"/><path fill="#FF9BCD" id="MY" d="M145 203c-1.238 0-3 .423-3 2 1.238 0 3-.423 3-2ZM297 203l2 2-2-2ZM158 204l-1 1 1-1ZM142 205l-1 1 1-1Z"/><path fill="#FDB1D8" id="DMX" d="M221 213c0 2.49-14.224 3-17 3 0-10.279 17-15.679 17-3ZM235 214c0 1.579 2.855 1 4 1l14 1c0-8.684-18-17.428-18-2Z"/><path fill="#FF9BCD" id="MY" d="m141 206-1 1 1-1ZM140 207l-1 1 1-1ZM153 207l-1 1 1-1ZM150 209l-1 1 1-1Z"/><path fill="#C8CACA" id="sptV" d="M147 211h1v-1l-1 1Z"/><path fill="#FF9BCD" id="MY" d="m149 210-1 1v-1h1Z"/><path fill="#C8CACA" id="sptV" d="m312 274 2 1 5-2c0-1.747.253-2 2-2 0-1.747.253-2 2-2v-1l1-1 1-1 1-2 1-2c0-1.048-.473-3 1-3l1-2c0-6.409 2-14.802 2-23v-1l-1-2-2-7-1-1v-1l-5-5c-3.96 0-11.493-7-14-7 0 1.085 13.235 13 14 13l1 1v1l1 1c0 4.342 3 8.664 3 14 1.622 0 1.622 9 0 9v1l-1 1v2l-1 1v2l-1 1v1l-1 1v2l-1 2-1 1-1 2-1 1h-1l-1 1-1 1h-3l-1 5ZM146 212h1v-1l-1 1Z"/><path fill="#FF9BCD" id="MY" d="m136 212-1 1 1-1Z"/><path fill="#C8CACA" id="sptV" d="M145 213h1v-1l-1 1Z"/><path fill="#FF9BCD" id="MY" d="m147 212-1 1v-1h1Z"/><path fill="#FF9BCD" id="MY" fill-rule="evenodd" d="m239 287-4 4.5c0 3.606 15.741 7.879 18.5 6.5 2.026-1.013-2.244-4.244-3-5-3.677-3.677-5.525-6-11.5-6m-27 0c0 2.835-11.133 6.234-9 10.5l5.5.5c6.342-3.171 17.349-1.651 8.5-10.5l-5-.5m17 8c6.202 0 14.248 2.374 19.5 5 5.613 2.807 17.288-2 23-2 2.407 0 14.5.227 14.5-2-7.684 0 7-4.388 7-7h-2c-2.827 0-4.163 2.831-6.5 4-9.492 4.746-14.07-2.64-17.5-9.5-.895-1.79-3-3.403-3-5.5-14.59 0-22.44-21.379-28-32.5-1.811-3.622 3-4.894 3-6.5-2.098 0-3-1.939-3-4h-6.5c-2.418-1.209.867-16.933 3-18 2.745-1.372 6.19-1 9.5-1 1.812 0 4.015-.469 5 1.5 2.034 4.068-2 9.039-2 12.5h1l7.5-9c2.712-1.356 3.183 2 4.5 2l3-3c-3.219 0-8 .358-8-4l-14-1c-1.145 0-4 .579-4-1-2.861 0-6 3.196-6-2h-2c0 6.14-3.455 1-6 1 0 2.49-14.224 3-17 3-.4 0-3.573 4-8 4l2 3c1.791 0 2.959-3.27 5.5-2 1.706.853 6.5 8.195 6.5 10l2-1c0-3.51-5.268-7.963-3-12.5 1.033-2.065 11.378-2.561 13.5-1.5 2.869 1.434 8.272 17.364 5 19H220c0 1.465.109 4-2 4l3 5.5c-3.812 7.625-5.516 16.516-12 23L196.5 278c-.778.389-3.5 1.961-3.5 0-.981 0-6.064 13.782-8.5 15-9.044 4.522-13.238-4-18.5-4h-3l11 6.5-3.5.5c-3.028-1.514-11.5-3.736-11.5-8 0-1.366-2.366-4-4-4l1 1.5c0 6.524-5.982-3.741-7.5-4.5l-6.5-6c-12.197 0-17-29.84-17-39-1.579 0-1 2.855-1 4l1 13.5c4.803 9.606 15.258 27.879 26.5 33.5 18.014 9.007 21.357 12 43.5 12l12.5 1c3.263-1.631 15.697-5 19.5-5l-2-2.5 1-6.5c-6.898 0-13.197-2.303-19 3.5l-6.5 5.5c-1.315.658-6.66-.18-5.5-2.5 2.244-4.487 26-15.927 26-19.5-10.126 0 5.512-17 6-17 0-5.554 2-6.953 2 0 2.356 0 15.121 17 7 17 0 4.201 22.538 14.576 25 19.5.997 1.994-3.193 3.153-4.5 2.5l-7-6c-8.271-4.136-10.822-3-19.5-3l1 6.5-2 2.5Z"/><path fill="#FF9BCD" id="MY" d="m135 213-1 1 1-1Z"/><path fill="#C8CACA" id="sptV" d="M145 274c-1.048 0-3-.473-3 1-12.197 0-17-29.84-17-39v-1c1.473 0 1-1.952 1-3v-1l1-1 2-7 6-6c2.853 0 6.931-4 10-4v1l-1 1-9 8-1 1-1 1-1 2-1 1v2l-1 1-1 12c-1.399 0-1.399 2 0 2v4l1 1v1l1 2v2l1 1v1l1 2v1l1 1v1l1 1c0 1.429 1.288 4 3 4l2 2h3c0 1.624 2 2.75 2 5Z"/><path fill="#FF9BCD" id="MY" d="m322 217 5 5c0-2.442-3.591-9-6-9 0 .701 3.889 4 1 4ZM135 217l-6 6c0-1.722 3.319-9 5-9 0 1.048-.473 3 1 3ZM145 214l-1 1 1-1Z"/><path fill="#FDB1D7" id="MDRNd" d="M156 274h8c0-3.424 7.807-9.114 9-11.5l18-28c1.884-3.768 7-7.044 7-11.5l-2-3-13-4h-4c0 6.919-6.148 9-12 9 0 1.238-7.447 33.394-8 34.5-.739 1.478-4.504 8.5-6 8.5 0 1.579-2.855 1-4 1 0 4.698 3.024 5 7 5Z"/><path fill="#FEB1D7" id="XII" d="M212 230c0 3.078 5.723 5 8 5h7.5c3.272-1.636-2.131-17.566-5-19-2.122-1.061-12.467-.565-13.5 1.5-2.268 4.537 3 8.99 3 12.5Z"/><path fill="#FEB1D7" id="XII" d="M245 230c-1.298 0-4.619 5-9 5h-6.5c-2.418-1.209.867-16.933 3-18 2.745-1.372 6.19-1 9.5-1 1.812 0 4.015-.469 5 1.5 2.034 4.068-2 9.039-2 12.5Z"/><path fill="#FF9BCD" id="MY" d="m273 216-1 1 1-1Z"/><path fill="#FDB1D7" id="MDRNd" d="m293 273 7 1c3.891 0 8-.474 8-5-1.622 0-5 .461-5-2-1.655 0-5.249-6.998-6-8.5-.486-.971-7-31.71-7-33.5-5.471 0-13-2.307-13-9h-4l-1 1c-3.68 0-5.511 2-9 2l-1 1h-1l-3 3c0 3.649 5.404 7.307 7 10.5 4.718 9.436 11.259 21.259 19 29 2.64 2.64 4.498 10.5 9 10.5Z"/><path fill="#FF9BCD" id="MY" d="m263 219-1 1 1-1Z"/><path fill="#FFB2D8" id="IRN" fill-rule="evenodd" d="M164 274c2.772 0 5.167 1.833 7.5 3 3.73 1.865 8.276-3 11.5-3 0-8.152 14.157-21.813 18-29.5l4.5-7.5 4.5-1 1-1-1-4c0-1.805-4.794-9.147-6.5-10-2.541-1.27-3.709 2-5.5 2 0 4.456-5.116 7.732-7 11.5l-18 28c-1.193 2.386-9 8.076-9 11.5m11-7c0-2.805 11.857 1.821 3.5 6-5.71 2.855-9.039-6-3.5-6ZM293 273c0 5.43-16.054 2-18 2l-6-9.5c-2.724-5.448-16.167-29.5-22-29.5l-1-1v-5l7.5-9c2.712-1.356 3.183 2 4.5 2 0 3.649 5.404 7.307 7 10.5 4.718 9.436 11.259 21.259 19 29 2.64 2.64 4.498 10.5 9 10.5m-16-6c0-2.866 8 .673 8 3.5 0 8.61-15.543-3.5-8-3.5Z"/><path fill="#FF9BCD" id="MY" d="m135 223-1 1 1-1Z"/><path fill="#FDA4D0" id="SPVC" d="M167 225c-4.645 0-6.391-2.555-11.5 0-3.917 1.958-11.386 25.729-8.5 31.5l3 8 3 3.5c1.496 0 5.261-7.022 6-8.5.553-1.106 8-33.262 8-34.5ZM290 225c0 1.79 6.514 32.529 7 33.5.751 1.502 4.345 8.5 6 8.5 11.596 0 3.429-33.642 1-38.5-2.034-4.067-8.007-6.247-11.5-4.5-.919.459-2.5-.765-2.5 1Z"/><path fill="#FF9BCD" id="MY" d="m322 223 1 1-1-1ZM327 223l1 1-1-1ZM134 224l-1 1 1-1ZM323 225l1 1-1-1ZM132 227l-1 1 1-1ZM127 230l-1 1 1-1ZM131 230l-1 1 1-1Z"/><path fill="#FFB1D9" id="NR" d="M211 236c2.232 0 4.029 3 7 3 2.109 0 2-2.535 2-4-2.277 0-8-1.922-8-5l-2 1 1 4v1ZM245 236c-2.079 0-3.187 3-6 3-2.098 0-3-1.939-3-4 4.381 0 7.702-5 9-5h1v5l-1 1Z"/><path fill="#FF9BCD" id="MY" d="m330 231 1 2-1-2ZM126 232c-1.473 0-1 1.952-1 3 1.473 0 1-1.952 1-3ZM331 234c1.665 0 1 4.222 1 5.5 0 3.191.054 17.5-3 17.5 0-6.409 2-14.802 2-23ZM210 236h1v-1l-1 1ZM245 236h2l-1-1-1 1Z"/><path fill="#FFB1D6" id="MDRNv" d="M183 274c4.614 0 10-3.71 10 4 0 1.961 2.722.389 3.5 0l12.5-10.5c6.484-6.484 8.188-15.375 12-23l-3-5.5c-2.971 0-4.768-3-7-3h-1l-4.5 1-4.5 7.5c-3.843 7.687-18 21.348-18 29.5ZM275 275c-4.33 0-11-6.035-11 3-14.59 0-22.44-21.379-28-32.5-1.811-3.622 3-4.894 3-6.5 2.813 0 3.921-3 6-3h2c5.833 0 19.276 24.052 22 29.5l6 9.5Z"/><path fill="#FF9BCD" id="MY" d="M327 240c1.622 0 1.622 9 0 9v-9ZM129 243c-1.399 0-1.399 2 0 2v-2ZM129 249l1 1-1-1Z"/><path fill="#FEC6E2" id="RO" d="M229 263v1l-2-1v-7c0-5.554 2-6.953 2 0v7Z"/><path fill="#FF9BCD" id="MY" d="m327 250-1 1 1-1ZM130 251l1 2-1-2ZM326 253l-1 1 1-1ZM131 255l1 1-1-1Z"/><path fill="#C8C8CC" id="tspc" d="M227 263c-1.915 0-6 7.746-6 10-10.126 0 5.512-17 6-17v7ZM230 263l6 10c8.121 0-4.644-17-7-17v6l1 1Z"/><path fill="#FF9BCD" id="MY" d="m325 256-1 1 1-1ZM132 257l1 2-1-2ZM329 257l-1 2 1-2ZM324 258l-1 1 1-1ZM328 259c-1.473 0-1 1.952-1 3 1.473 0 1-1.952 1-3ZM133 260l1 1-1-1ZM323 261l-1 2 1-2ZM134 262l1 1-1-1ZM229 263h1l-1-1v1ZM327 262l-1 2 1-2Z"/><path fill="#FFB3D8" id="IO" d="m227 285-1 1c-6.898 0-13.197-2.303-19 3.5l-6.5 5.5c-1.315.658-6.66-.18-5.5-2.5 2.244-4.487 26-15.927 26-19.5 0-2.254 4.085-10 6-10v22Z"/><path fill="#FF9BCD" id="MY" d="m229 277-2 2v-16l2 1v13Z"/><path fill="#FFB3D8" id="IO" d="M230 285v1c8.678 0 11.229-1.136 19.5 3l7 6c1.307.653 5.497-.506 4.5-2.5-2.462-4.924-25-15.299-25-19.5l-6-10h-1v21l1 1Z"/><path fill="#FF9BCD" id="MY" d="m322 263-1 1 1-1ZM326 264l-1 2 1-2Z"/><path fill="#FF9BCD" id="MY" fill-rule="evenodd" d="M175 267c0 8.477 9.489 0 0 0m0 0c0-2.805 11.857 1.821 3.5 6-5.71 2.855-9.039-6-3.5-6ZM277 267c0 8.527 9.104 0 0 0m0 0c0-2.866 8 .673 8 3.5 0 8.61-15.543-3.5-8-3.5Z"/><path fill="#FF9BCD" id="MY" d="m320 266-1 1 1-1ZM325 266l-1 1 1-1ZM138 267l2 2-2-2Z"/><path fill="#FEB3D8" id="AMBv" d="M175 267c0 8.477 9.489 0 0 0ZM277 267c0 8.527 9.104 0 0 0Z"/><path fill="#FF9BCD" id="MY" d="m318 267-1 1 1-1ZM324 267l-1 1 1-1ZM317 268l-1 1 1-1ZM156 281l-1 2-5-5.5-5-3.5c0-2.25-2-3.376-2-5h6c0 4.698 3.024 5 7 5v7ZM300 281l2 1c2.245 0 6.058-8 10-8l1-5h-5c0 4.526-4.109 5-8 5l2 3.5-2 3.5ZM323 269c-1.747 0-2 .253-2 2l2-2ZM321 271c-1.747 0-2 .253-2 2l2-2Z"/><path fill="#FCB3D7" id="LRNm" d="m156 281 10 8c5.262 0 9.456 8.522 18.5 4 2.436-1.218 7.519-15 8.5-15 0-7.71-5.386-4-10-4-3.224 0-7.77 4.865-11.5 3-2.333-1.167-4.728-3-7.5-3h-8v7ZM298 283c-1.662 0-7 4.775-7 6-2.827 0-4.163 2.831-6.5 4-9.492 4.746-14.07-2.64-17.5-9.5-.895-1.79-3-3.403-3-5.5 0-9.035 6.67-3 11-3 1.946 0 18 3.43 18-2l7 1 2 3.5-2 3.5-1 1-1 1Z"/><path fill="#FF9BCD" id="MY" d="M314 275c0 3.741-8 5.783-8 10 2.168 0 13-9.594 13-12l-5 2Z"/><path fill="#C9CACA" id="sctd" d="M155 283v1l1 1.5c0 6.524-5.982-3.741-7.5-4.5l-6.5-6c0-1.473 1.952-1 3-1l5 3.5 5 5.5ZM303 287h1l1-1 1-1c0-4.217 8-6.259 8-10l-2-1c-3.942 0-7.755 8-10 8l-1 1v1c0 2.003-.293 3 2 3Z"/><path fill="#FFC6E2" id="RPA" d="M227 295h2l2-2.5-1-6.5v-1l-1-1v-7l-2 2v6l-1 1-1 6.5 2 2.5Z"/><path fill="#C8C8CB" id="rust" d="M163 289h3l-10-8-1 2v1c1.634 0 4 2.634 4 4l4 1ZM291 289h2l4-1 4-4v-1l1-1-2-1-1 1-1 1c-1.662 0-7 4.775-7 6Z"/><path fill="#FF9BCD" id="MY" d="m299 282-1 1 1-1ZM302 282l-1 1 1-1ZM229 284l1 1-1-1ZM297 288c3.596 0-7 6.343-7 7 2.572 0 13-4.738 13-8-2.293 0-2-.997-2-3l-4 4ZM227 285l-1 1 1-1ZM306 285l-1 1 1-1ZM305 286l-1 1 1-1Z"/><path fill="#C7C9C9" id="py" d="M212 287c0 2.835-11.133 6.234-9 10.5l5.5.5c6.342-3.171 17.349-1.651 8.5-10.5l-5-.5ZM239 287l-4 4.5c0 3.606 15.741 7.879 18.5 6.5 2.026-1.013-2.244-4.244-3-5-3.677-3.677-5.525-6-11.5-6Z"/><path fill="#CBC7CC" id="sctv" d="m159 288 4 1 11 6.5-3.5.5c-3.028-1.514-11.5-3.736-11.5-8ZM286 296h1l2-1h1c0-.657 10.596-7 7-7l-4 1c0 2.612-14.684 7-7 7Z"/><path fill="#FF9BCD" id="MY" d="m289 295-2 1 2-1Z"/></svg>