<svg xmlns="http://www.w3.org/2000/svg" viewBox="0 0 456 320"><path fill="#098589" id="VISp1" d="m82 57 3 4c2.342 0 19.873-15.687 24.5-18 18.476-9.238 37.314-22 59.5-22v-3c-23.141 0-43.243 11.372-62.5 21-3.907 1.953-22.85 18-24.5 18Z"/><path fill="#0A8589" id="VISpm1" d="M170 21h6v-3h-7v3h1Z"/><path fill="#1BA696" id="RSPagl1" d="m194 21-1 5c-3.183 0-12.672-5-17-5v-3c2.499 0 12.051-.224 14.5 1l3.5 2ZM281 21c-4.319 0-14.312 5-17 5-.672 0-2-4.33-2-5l3.5-2c2.795-1.398 12.553-1 15.5-1v3Z"/><path fill="#0A8589" id="VISpm1" d="M286 21h1v-3h-6v3h5Z"/><path fill="#098589" id="VISp1" d="M371 61h1l2-4c-.816 0-19.298-15.9-23.5-18-19.418-9.71-40.173-21-63.5-21v3c25.294 0 45.47 15.485 66.5 26L371 61Z"/><path fill="#0A828C" id="VISp2/3" d="M85 62c1.726 0 5 4.558 5 6l22.5-15c18.336-9.168 36.507-24 58.5-24l-1-8h-1c-22.186 0-41.024 12.762-59.5 22-4.627 2.313-22.158 18-24.5 18v1Z"/><path fill="#08858B" id="VISpm2/3" d="M171 29h2c1.446 0 3-6.754 3-8h-6l1 8Z"/><path fill="#1AA496" id="RSPagl2/3" d="M184 33h1l8-6v-1c-3.183 0-12.672-5-17-5 0 1.246-1.554 8-3 8v2c2.449 0 11-2.092 11 2Z"/><path fill="#1BA598" id="RSPd1" d="M162 69h1l6.5-8c8.12-4.06 16.466-15.233 26-20 2.985-1.493 7.618-2.737 9.5-6.5 2.463-4.927-6.762-13.5-11-13.5l-1 5v1c0 2.428 3.784 5.933 2 9.5L172.5 55l-7.5 7c0 2.83-4 4.54-4 7h1ZM293 69h2c0-3.817-4.417-5.333-6-8.5-3.398-6.797-17.711-17.606-25.5-21.5-2.655-1.328-4.079-12 .5-12v-1c-.672 0-2-4.33-2-5-6.812 0-11.759 9.981-9 15.5l7.5 4.5c7.349 3.674 14.702 12.851 21 16 2.989 1.494 11.5 8.838 11.5 12Z"/><path fill="#1AA496" id="RSPagl2/3" d="M272 33h1c0-3.709 7.604-2 10-2v-2c-1.931 0-2-6.225-2-8-4.319 0-14.312 5-17 5v1c2.125 0 4.626 6 8 6Z"/><path fill="#08858B" id="VISpm2/3" d="M283 29h2l1-8h-5c0 1.775.069 8 2 8Z"/><path fill="#0A828C" id="VISp2/3" d="M366 68h1c0-2.83 4-4.54 4-7l-17.5-14c-21.03-10.515-41.206-26-66.5-26h-1l-1 8c24.42 0 42.21 16.855 62.5 27 2.085 1.043 18.5 11.195 18.5 12Z"/><path fill="#1BA697" id="RSPd2/3" d="M185 33c0 11.964-20 20.125-20 29l7.5-7L195 36.5c1.784-3.567-2-7.072-2-9.5l-8 6ZM297 68l-2 1c0-3.817-4.417-5.333-6-8.5-3.398-6.797-17.711-17.606-25.5-21.5-2.655-1.328-4.079-12 .5-12 2.125 0 4.626 6 8 6 0 12.229 13.974 17.448 19 27.5l6 7.5Z"/><path fill="#0B848B" id="VISp4" d="M93 73h1c2.45 0 21.361-15.93 25.5-18 15.8-7.9 32.716-23 51.5-23v-3c-21.993 0-40.164 14.832-58.5 24L90 68v1c1.712 0 3 2.571 3 4Z"/><path fill="#09828B" id="VISpm4" d="M171 32h1l1-1v-2h-2v3ZM284 31h1v-2h-2v2h1Z"/><path fill="#0B848B" id="VISp4" d="M362 73h1l3-5c0-.805-16.415-10.957-18.5-12-20.29-10.145-38.08-27-62.5-27v3c22.842 0 40.363 19.431 59.5 29 2.048 1.024 17.5 10.971 17.5 12Z"/><path fill="#1CA697" id="RSPagl5" d="M166 43h1c0-1.675 17-7.513 17-10 0-4.092-8.551-2-11-2l-1 1-1 1c0 3.8-8 6.435-8 10 .716 0 3-2.373 3 0ZM291 43c0-2.373 2.284 0 3 0 0-4.13-9-5.969-9-11l-1-1h-1c-2.396 0-10-1.709-10 2 0 3.155 16 7.778 16 10h2Z"/><path fill="#088489" id="VISpm5" d="m173 31-1 1 1-1ZM285 31v1l-1-1h1Z"/><path fill="#088389" id="VISp5" d="M94 73c0 1.25 4.19 8 5 8 4.844 0 10.197-8.849 14.5-11 11.956-5.978 35.102-27 47.5-27h2c0-3.565 8-6.2 8-10v-1c-18.784 0-35.7 15.1-51.5 23-4.139 2.07-23.05 18-25.5 18Z"/><path fill="#088489" id="VISpm5" d="m172 32-1 1v-1h1Z"/><path fill="#088389" id="VISp5" d="M362 73c0 1.738-3.015 8-5 8l-12.5-10c-12.538-6.269-36.474-28-49.5-28h-1c0-4.13-9-5.969-9-11 22.842 0 40.363 19.431 59.5 29 2.048 1.024 17.5 10.971 17.5 12Z"/><path fill="#1AA596" id="RSPd5" d="m153 65 6 3 6-6c0-8.875 20-17.036 20-29h-1c0 2.487-17 8.325-17 10 3.386 0 1.657 5.185 1 6.5-1.776 3.552-10.493 15.5-15 15.5ZM303 65l-6 3-6-7.5c-5.026-10.052-19-15.271-19-27.5h1c0 3.155 16 7.778 16 10-2.388 0-.46 6.58 0 7.5 1.436 2.871 12.002 14.5 14 14.5Z"/><path fill="#FF7AFD" id="SCzo" d="M294 78h1c0-13.646-28.575-30.537-37.5-35-2.711-1.355-9.364-3.818-13-2-3.36 1.68-11.719 5.938-13.5 9.5-1.179 2.357.135 7.5-2.5 7.5-.448 0-3.136-7.772-3.5-8.5L211.5 41c-4.325-2.162-22.5 4.229-22.5 8l13.5-6c6.238-3.119 19.866 4.231 22.5 9.5 1.894 3.789 1 9.987 1 14.5h4c0-36.691 33.457-24.043 50.5-7 4.481 4.48 13.5 11.763 13.5 18Z"/><path fill="#1CA597" id="RSPagl6a" d="M146 61h1c1.988 0 14.487-18 19-18 0-2.373-2.284 0-3 0h-2c0 3.853-15 12.674-15 18ZM311 61l-1 1c-2.563 0-1.938-4.219-3.5-5l-10-10c-1.212-.606-5.5-2.24-5.5-4 0-2.373 2.284 0 3 0h1c0 3.67 16 13.75 16 18Z"/><path fill="#08858C" id="VISp6a" d="m109 85-6 3c0-1.177-2.572-6-4-6v-1c4.844 0 10.197-8.849 14.5-11 11.956-5.978 35.102-27 47.5-27 0 3.853-15 12.674-15 18l-1 1c-1.402 0-6 1.11-6 3-1.969 0-10 3.732-10 6-1.664 0-6 1.823-6 4-1.417 0-6 2.383-6 4-1.626 0-8 4.11-8 6Z"/><path fill="#1AA697" id="RSPd6a" d="m147 63 6 2c4.507 0 13.224-11.948 15-15.5.657-1.315 2.386-6.5-1-6.5h-1c-4.513 0-17.012 18-19 18v2Z"/><path fill="#FF78FF" id="SCsg" d="M163 74v3c3.504 0 5.551-4.525 8.5-6l32-16c4.806-2.403 14.866-.769 17.5 4.5l5 7.5c0-4.513.894-10.711-1-14.5-2.634-5.269-16.262-12.619-22.5-9.5L189 49l-19 16-1 1-1 1c0 1.429-1.288 4-3 4 0 1.238-.423 3-2 3ZM230 67c2.825 0 4.155-5.81 5-7.5 2.626-5.252 13.56-6.97 18.5-4.5l28 14 12.5 9c0-6.237-9.019-13.52-13.5-18-17.043-17.043-50.5-29.691-50.5 7Z"/><path fill="#1AA697" id="RSPd6a" d="m310 63-7 2c-1.998 0-12.564-11.629-14-14.5-.46-.92-2.388-7.5 0-7.5h2c0 1.76 4.288 3.394 5.5 4l10 10c1.562.781.937 5 3.5 5v1Z"/><path fill="#08858C" id="VISp6a" d="m357 82-4 6-10.5-8c-7.631-3.816-22.581-18-30.5-18l-1-1c0-4.25-16-14.33-16-18 13.026 0 36.962 21.731 49.5 28L357 81v1Z"/><path fill="#FF7AFD" id="SCzo" d="M189 49c-4.074 0-19 11.37-19 16l19-16Z"/><path fill="#FD7AFF" id="SCop" d="M161 82c3.7 0 7.286-5.393 10.5-7 6.543-3.272 32.585-18.707 40-15 5.651 2.826 14.295 13.852 20 11 7.363-3.682 10.336-14.832 20-10h5c8.252 4.126 16.679 7.84 25 12l13.5 9v-4h-1l-12.5-9-28-14c-4.94-2.47-15.874-.752-18.5 4.5-.845 1.69-2.175 7.5-5 7.5h-4l-5-7.5c-2.634-5.269-12.694-6.903-17.5-4.5l-32 16c-2.949 1.475-4.996 6-8.5 6l-2 2v3Z"/><path fill="#09848A" id="VISl1" d="M68 78h1c0-3.332 12.672-16 16-16v-1l-3-4-3.5 4C76.426 62.037 66 71.086 66 75l2 3ZM391 75l-3 2-16-16 2-4 13 13.5 4 4.5Z"/><path fill="#FF90FF" id="SCig" d="M154 105c0-10.308 30.539-26.02 38.5-30 3.585-1.792 12.387-8.307 17-6 3.256 1.628 15.327 12 16.5 12 9.033 0 9.278-7.389 16.5-11 9.115-4.558 19.674 4.337 27 8 6.569 3.284 33.5 18.224 33.5 27 4.71 0 2-7.925 2-10l-3-5-1-1c0-1.338-4.41-7-6-7l-13.5-9c-8.321-4.16-16.748-7.874-25-12h-5c-9.664-4.832-12.637 6.318-20 10-5.705 2.852-14.349-8.174-20-11-7.415-3.707-33.457 11.728-40 15-3.214 1.607-6.8 7-10.5 7l-1 1-1 1-1 1-1 1-1 1v1l-1 1v1l-1 1-1 1-1 2-1 1v1c0 3.127-1.32 9 3 9Z"/><path fill="#1AA598" id="RSPagl6b" d="M145 63h2v-2h-1l-1 1v1ZM311 64h2l-1-2-1-1-1 1v1l1 1Z"/><path fill="#0A8489" id="VISl2/3" d="M382 83h1l5-5v-1l-16-16h-1c0 2.46-4 4.17-4 7l15 15ZM73 83h1c2.102 0 11.292-14 16-14v-1c0-1.442-3.274-6-5-6-3.328 0-16 12.668-16 16l4 5Z"/><path fill="#08858A" id="VISp6b" d="m144 64-5 1c0-1.89 4.598-3 6-3v1l-1 1Z"/><path fill="#1BA697" id="RSPd2/3" d="m159 68 2 1c0-2.46 4-4.17 4-7l-6 6Z"/><path fill="#08858A" id="VISp6b" d="M352 89h1v-1l-10.5-8c-7.631-3.816-22.581-18-30.5-18l1 2c2.786 0 23 13.235 23 14l16 11Z"/><path fill="#1AA598" id="RSPagl6b" d="M144 64h1v-1l-1 1Z"/><path fill="#33B932" id="APr" d="m162 70-4 7c-3.757 0-7.137-13-13-13v-1h2l6 2 6 3 2 1h1v1ZM294 70c0 1.294 3.609 7 5 7 0-2.778 9.122-13 12-13l-1-1-7 2-6 3-2 1-1 1Z"/><path fill="#C9C9CA" id="scwm" d="M121 78h2c4.97 0 13.202-10 19-10l1-1c1.577 0 2-1.762 2-3h-1l-5 1c0 2.268-8.031 6-10 6 0 1.81-3.98 4-6 4 0 2.215-2 1.519-2 3Z"/><path fill="#47C83C" id="POST" d="m116 109 24 1c0-7.792 18-26.036 18-33-3.757 0-7.137-13-13-13 0 1.238-.423 3-2 3l-1 1-5 6-1 1h-1c0 1.463-3.486 7-5 7l-1 1-1 2-1 2-11 22ZM341 109c-8.269 0-16.199 1-24 1-2.295 0-3.263-6.025-4-7.5-3.564-7.129-14-17.375-14-25.5 0-2.778 9.122-13 12-13l2 3 8 8c0 .934 4.858 8 6 8v1c0 3.502 14 21.559 14 25Z"/><path fill="#C9C9CA" id="scwm" d="M333 78h3c0-.765-20.214-14-23-14h-2l2 3c5.97 0 15.073 11 20 11Z"/><path fill="#08858A" id="VISp6b" d="M139 65c-1.969 0-10 3.732-10 6 1.969 0 10-3.732 10-6Z"/><path fill="#FF7AFD" id="SCzo" d="m170 65-1 1 1-1ZM169 66l-1 1 1-1Z"/><path fill="#C8C9CA" id="fp" d="m143 67-1 1 1-1Z"/><path fill="#FF7AFD" id="SCzo" d="M168 67c-1.712 0-3 2.571-3 4 1.712 0 3-2.571 3-4Z"/><path fill="#C8C9CA" id="fp" d="M348 91h1c0-2.998-16-10.134-16-13-4.927 0-14.03-11-20-11l8 8c1.243 0 7 3.006 7 4 6.026 0 15.206 12 20 12ZM129 79l-16 8 10-9c4.97 0 13.202-10 19-10l-5 6-1 1h-1c-1.178 0-6 2.572-6 4Z"/><path fill="#08828B" id="VISl4" d="m382 83-2 3-13-9.5-4-3.5 3-5h1l15 15ZM74 83l3 3c0-4.834 16-7.731 16-13 0-1.429-1.288-4-3-4-4.708 0-13.898 14-16 14Z"/><path fill="#1BA597" id="RSPv1" d="m163 69-1 1v-1h1Z"/><path fill="#FF90FE" id="SCiw" d="M169 111c0-5.148 18.793-17.647 23.5-20 6.302-3.15 11.865-7.933 18-11 5.16-2.58 15.732 6.634 19 5 5.638-2.819 14.243-7.379 21-4l16 12c5.693 2.846 20.5 11.373 20.5 18 6.301 0 11.992-6 16-6 0-8.776-26.931-23.716-33.5-27-7.326-3.663-17.885-12.558-27-8-7.222 3.611-7.467 11-16.5 11-1.173 0-13.244-10.372-16.5-12-4.613-2.307-13.415 4.208-17 6-7.961 3.98-38.5 19.692-38.5 30 3.431 0 9.094 6 15 6Z"/><path fill="#1BA597" id="RSPv1" d="m295 69-1 1-1-1h2Z"/><path fill="#08858A" id="VISp6b" d="M129 71c-1.664 0-6 1.823-6 4 2.02 0 6-2.19 6-4Z"/><path fill="#FF7AFD" id="SCzo" d="M165 71c-1.577 0-2 1.762-2 3 1.577 0 2-1.762 2-3Z"/><path fill="#0B858B" id="VISl5" d="M83 95h1c0-1.029 13.385-13 15-13v-1c-.81 0-5-6.75-5-8h-1c0 5.269-16 8.166-16 13v1c0 2.125 6 4.626 6 8ZM372 95h1c0-1.682 5.602-8 7-8v-1l-13-9.5-4-3.5h-1c0 1.738-3.015 8-5 8v1c2.704 0 15 9.808 15 13Z"/><path fill="#7DCD4B" id="HPF" d="m137 74-1 1 1-1Z"/><path fill="#FF7AFD" id="SCzo" d="m163 77-2 2c0-1.424.362-5 2-5v3Z"/><path fill="#0C858C" id="VISli1" d="M59 89h1l8-11-2-3c-1.931 0-9 8.96-9 11 1.577 0 2 1.762 2 3Z"/><path fill="#08858A" id="VISp6b" d="m121 78-4 1c0-1.617 4.583-4 6-4 0 2.215-2 1.519-2 3Z"/><path fill="#7DCD4B" id="HPF" d="M129 79c1.473 0 1 1.952 1 3 1.514 0 5-5.537 5-7-1.178 0-6 2.572-6 4ZM328 79c-3.431 0-1 1.94-1 4-1.142 0-6-7.066-6-8 1.243 0 7 3.006 7 4Z"/><path fill="#0C858C" id="VISli1" d="M399 85c0 2.215-2 1.519-2 3l-9-10v-1l3-2 8 10Z"/><path fill="#0A858A" id="VISli2/3" d="M65 93h1c0-4.026 7-5.891 7-10l-4-5h-1l-8 11 5 4Z"/><path fill="#CBC9C7" id="or" d="M77 121h2l1-2 1-1c0-1.562 2.189-5 4-5 0-1.747.253-2 2-2 0-1.429 1.288-4 3-4l1-1 1-1 1-1 1-1 1-1 1-1c0-1.988 5.237-6 7-6 0-1.365 2.366-4 4-4 0-1.028 4.666-4 6-4l10-9h-2l-4 1c0 2.158-5.64 6-8 6 0 1.26-3.346 5-5 5l-12 11c0 7.19-15 12.302-15 20ZM383 125c0 2.729-.423 1-2 1v-1l-2-2v-1l-6-7.5c-1.877-3.754-21.522-23.5-24-23.5 0-2.998-16-10.134-16-13h3l16 11 12 12c0 5.022 19 17.831 19 24Z"/><path fill="#0A858A" id="VISli2/3" d="M397 89c-2.773 0-3.67 4-6 4l-8-10 5-5 9 10v1Z"/><path fill="#08858A" id="VISp6b" d="M117 79c-1.626 0-8 4.11-8 6 2.36 0 8-3.842 8-6Z"/><path fill="#C9CCC9" id="dhc" d="m104 113-7.5-1-7.5 3c-2.293 0-2-.997-2-3v-1c1.712 0 3-2.571 3-4l1-1 1-1 1-1 1-1 1-1 1-1c2.672 0 7-3.815 7-6 1.334 0 6-2.972 6-4 1.634 0 4-2.635 4-4l16-8c1.473 0 1 1.952 1 3l-1 1-1 2-1 2c-3.583 0-10.309 14.118-12 17.5l-6.5 6.5c-1.119.559-4.5.155-4.5 2ZM352 113l8.5-1 6.5 3c3.947 0 2-.591 2-3v-1l-1-1-20-19c-4.794 0-13.974-12-20-12-3.431 0-1 1.94-1 4v1c3.623 0 10.623 14.747 12 17.5l9 9c1.053 1.053 4 .047 4 2.5Z"/><path fill="#FF8FFF" id="SCdg" d="M277 121h2c0-2.364 8-6.018 8-10 0-6.627-14.807-15.154-20.5-18l-16-12c-6.757-3.379-15.362 1.181-21 4-3.268 1.634-13.84-7.58-19-5-6.135 3.067-11.698 7.85-18 11-4.707 2.353-23.5 14.852-23.5 20 0 3.484 8 7.683 8 10h3l11-3c0-5.783-2.555-8.39 0-13.5 3.712-7.425 11.977-12.239 18.5-15.5l22.5 1c3.964 0 11.388-3.056 15.5-1 7.108 3.554 15.76 11.019 19.5 18.5l-1 10.5c3.751 0 6.819 3 11 3Z"/><path fill="#C7CBCB" id="bsc" d="M159 83h1l1-1v-1l-2 2ZM302 90l3 5c0-2.879-6.207-14-10-14v1c1.59 0 6 5.662 6 7l1 1Z"/><path fill="#08848C" id="VISl6a" d="m87 99 4 1 12-11v-1c0-1.177-2.572-6-4-6-1.615 0-15 11.971-15 13l3 4Z"/><path fill="#7DCD4B" id="HPF" d="m130 82-1 1 1-1Z"/><path fill="#08848C" id="VISl6a" d="m370 99-5 1-12-11v-1l4-6c2.704 0 15 9.808 15 13l-2 4Z"/><path fill="#08828C" id="VISli4" d="M67 96h1c0-2.191 6.23-9 9-9v-1l-3-3h-1c0 4.109-7 5.974-7 10l1 3Z"/><path fill="#C7CBCB" id="bsc" d="m159 84-1 1 1-2v1Z"/><path fill="#FF64FF" id="MB" d="m160 83-1 1v-1h1Z"/><path fill="#08828C" id="VISli4" d="m391 94-2 1-9-8v-1l2-3h1l8 10v1Z"/><path fill="#7DCD4B" id="HPF" d="M350 113h2c0-2.453-2.947-1.447-4-2.5l-9-9c-1.377-2.753-8.377-17.5-12-17.5 0 3.502 14 21.559 14 25l3 5c1.564 0 3.876-1 6-1Z"/><path fill="#08858A" id="VISp6b" d="m103 89 1 1c1.654 0 5-3.74 5-5l-6 3v1Z"/><path fill="#7DCD4B" id="HPF" d="m128 85-1 2 1-2Z"/><path fill="#C7CBCB" id="bsc" d="m158 85-1 1 1-1Z"/><path fill="#09818C" id="VISpor1" d="M415 106c-.306 0-1.172 7-2 7 0-6.876-16-19.664-16-24v-1c0-1.481 2-.785 2-3l4 5.5c1.914 3.829 12 10.289 12 15.5ZM43 113h1c0-7.827 15-18.663 15-24 0-1.238-.423-3-2-3-1.236 0-15 18.468-15 20l1 7Z"/><path fill="#C7CBCB" id="bsc" d="m157 86-1 1 1-1Z"/><path fill="#0A848A" id="VISli5" d="M80 99h1l2-4c0-3.374-6-5.875-6-8-2.77 0-9 6.809-9 9 0 5.429 9.585 3 12 3Z"/><path fill="#C8C9CA" id="fp" d="M107 91h2c1.634 0 4-2.635 4-4-1.334 0-6 2.972-6 4Z"/><path fill="#7DCD4B" id="HPF" d="M107 113h5l4-4 11-22c-3.583 0-10.309 14.118-12 17.5l-6.5 6.5c-1.119.559-4.5.155-4.5 2h3Z"/><path fill="#C7CBCB" id="bsc" d="M155 88h1v-1l-1 1Z"/><path fill="#0A848A" id="VISli5" d="M375 99h1c1.804 0 5.136 2.182 7.5 1 2.177-1.089 2.822-3 5.5-3v-2l-9-8c-1.398 0-7 6.318-7 8l2 4Z"/><path fill="#C7CBCB" id="bsc" d="M154 90h1v-2l-1 2Z"/><path fill="#FF64FF" id="MB" d="m156 88-1 1v-1h1Z"/><path fill="#0A8389" id="VISpor2/3" d="m50 128-1 6c-3.729 0-2.435-6-5-6 0-2.234-.788-13-1-13v-1l1-1c0-7.827 15-18.663 15-24h1l5 4-5 6.5c-1.684 3.368-18.458 28.5-10 28.5Z"/><path fill="#09858C" id="VISl6b" d="M91 101h1l12-11-1-1-12 11v1Z"/><path fill="#FF8FFE" id="SCdw" d="M193 120c0-11.808 6.207-23.353 17.5-29l15 1 20-1c10.808 5.404 18.5 17.047 18.5 29 1.747 0 2-.253 2-2l1-10.5c-3.74-7.481-12.392-14.946-19.5-18.5-4.112-2.056-11.536 1-15.5 1l-22.5-1c-6.523 3.261-14.788 8.075-18.5 15.5-2.555 5.11 0 7.717 0 13.5 0 1.747.253 2 2 2Z"/><path fill="#FF64FF" id="MB" d="m301 89 1 1-1-1Z"/><path fill="#09858C" id="VISl6b" d="M364 101h1v-1l-12-11h-1l12 12Z"/><path fill="#0A8389" id="VISpor2/3" d="M412 128c0 1.72-3.753 7-5 7v-7c0-1.384 3.189-1.123 2-3.5l-11-22c-.859-1.718-4.511-8.5-7-8.5v-1c2.33 0 3.227-4 6-4 0 4.336 16 17.124 16 24l1 2c-1.472 0-2 10.471-2 13Z"/><path fill="#C7CBCB" id="bsc" d="M153 91h1v-1l-1 1Z"/><path fill="#FF64FF" id="MB" d="m155 90-1 1v-1h1Z"/><path fill="#C8CBCC" id="ec" d="M109 91c0 1.028-4.666 4-6 4 0-1.365 2.366-4 4-4h2Z"/><path fill="#FF64FF" id="MB" d="m154 91-1 1v-1h1Z"/><path fill="#FC8FFF" id="PAG" fill-rule="evenodd" d="M222 135c0 2.398-16.887 3.725-14 9.5 3.506 7.011 23.369-9.5 14-9.5m22 14h2l1-1c7.023 0 16-15.244 16-21l1-7c0-11.953-7.692-23.596-18.5-29l-20 1-15-1c-11.293 5.647-17.5 17.192-17.5 29v7c0 4.668 11.432 22 17 22 0-1.186 1-1.186 1 0h1c3.188 0 2.952-1.726 5.5-3l5-1c4.913-2.457 4.5-17.351 4.5-22-3.107 0-4.044-8.728.5-11 4.112-2.056 8.196 11 1.5 11l2 2.5V137l2.5-2 11 4c2.432 1.216 6.271 8 1 8l-14.5-8c0 4.414 8.458 10 13 10Z"/><path fill="#C8CBCC" id="ec" d="m369 112 10 10-6-7.5c-1.877-3.754-21.522-23.5-24-23.5h-1l20 19 1 1v1Z"/><path fill="#C7CBCB" id="bsc" d="M152 93v1l1-2-1 1Z"/><path fill="#0A828A" id="VISpor4" d="M67 96c0 3.857-17 22.323-17 32-8.458 0 8.316-25.132 10-28.5l5-6.5h1l1 3Z"/><path fill="#FF64FF" id="MB" d="M151 94h1v-1l-1 1Z"/><path fill="#C7CBCB" id="bsc" d="m152 94-1 1v-1h1Z"/><path fill="#0A828A" id="VISpor4" d="M389 97c2.082 0 14.516 21.532 16 24.5.65 1.3.007 6.5 2 6.5 0-1.384 3.189-1.123 2-3.5l-11-22c-.859-1.718-4.511-8.5-7-8.5l-2 1v2Z"/><path fill="#088488" id="VISli6a" d="M81 99h6l-3-4h-1l-2 4Z"/><path fill="#C8CBCC" id="ec" d="M103 95c-1.763 0-7 4.012-7 6 2.672 0 7-3.815 7-6Z"/><path fill="#FF64FF" id="MB" d="M282 189c0 1.951 2.454.477 3.5 1 3.456 1.728 9.504 3 13.5 3 1.183 0 1.535-3.57 2-4.5l8.5-10.5c3.269-1.634 3.957 3 5.5 3 0-9.05 1.26-18.019 5-25.5.844-1.688 1-20.02 1-22.5-.517 0-2.73 4.04-4 1.5-2.358-4.716.425-12.15-2-17-2.008-4.015-8-7.966-8-13 0-2.812 3.483-.5 4-.5l-6-9c0 2.075 2.71 10-2 10-4.008 0-9.699 6-16 6 0 3.982-8 7.636-8 10h12.5l7.5 4 2-4.5c.745-1.49 1.229-3.458 2-5 5.822-11.644 16.379 13.061 11.5 15.5-3.407 1.703-8.43 1-12.5 1v13c3.29 0 9 .71 9 5 1.991 0 2.931-4.284 5.5-3l.5 2.5c4.913 9.827-8 16.492-8 7.5-1.009 0-5.343 2.421-6.5 3l-8.5-1c0 1.832-3.242 5-5 5l8 7.5c2.438 4.875.706 14.897-4.5 17.5H282Z"/><path fill="#088488" id="VISli6a" d="M370 99h5l-2-4h-1l-2 4Z"/><path fill="#0B838A" id="VISpor5" d="m59 139-3 1-3-2-2-1h-1l-1-2v-1l1-6c0-9.677 17-28.143 17-32h1c0 5.429 9.585 3 12 3 0 4.789-6.933 7.366-9 11.5-4.583 9.166-12 17.454-12 28.5Z"/><path fill="#FF64FF" id="MB" d="M174 189c0 1.951-2.454.477-3.5 1l-13.5 4c0-4.574-5.997-13.749-10.5-16-2.712-1.356-3.183 2-4.5 2 0-7.188-1.998-14.496-5-20.5l-1-25.5c.833 0 3.1 2.301 4 .5v-13c2.439-4.879 6.476-8.951 9-14 1.442-2.884-.567-4.5-3-4.5l3-3.5 2-3.5c0 3.127-1.32 9 3 9 3.431 0 9.094 6 15 6 0 3.484 8 7.683 8 10h-11.5c-1.586.793-7.094 5-8.5 5 0-3.067-.765-4.029-2-6.5-9.389-18.779-18.102 9.199-11.5 12.5H155c0 1.87-2 5.671-2 7.5l2 5.5c-4.434 0-9 .579-9 6-2.664 0-2.572-5.464-5.5-4-5.83 2.915 1.982 21.536 6.5 12.5l-1-4.5 4.5 4c3.801 1.901 7.966 0 11.5 0l5 6c-4.162 0-11.361 10.778-9 15.5 4.067 8.134 7.072 8.5 16 8.5Z"/><path fill="#0B838A" id="VISpor5" d="m398 139 2 1 3-2 2-1h1l1-2v-7c-1.993 0-1.35-5.2-2-6.5-1.484-2.968-13.918-24.5-16-24.5-2.678 0-3.323 1.911-5.5 3-2.364 1.182-5.696-1-7.5-1l10 12.5c4.221 8.443 12 17.466 12 27.5Z"/><path fill="#0C858B" id="VISpor6a" d="m66 136-7 3c0-11.046 7.417-19.334 12-28.5 2.067-4.134 9-6.711 9-11.5h7l4 1v1c-1.907 0-20 23.327-20 26-2.064 0-5 7.264-5 9ZM397 139h1c0-10.034-7.779-19.057-12-27.5L376 99h-6l-5 1v1l7.5 8c4.503 4.503 18.5 21.013 18.5 27l6 3Z"/><path fill="#0C848C" id="VISpor6b" d="m73 126-2 1c0-2.673 18.093-26 20-26h1c0 7.19-15 12.302-15 20-1.811 0-4 3.438-4 5Z"/><path fill="#C8CBCC" id="ec" d="m96 101-1 1 1-1Z"/><path fill="#0C848C" id="VISpor6b" d="M388 136h3c0-5.987-13.997-22.497-18.5-27l-7.5-8h-1c0 5.022 19 17.831 19 24 2.402 0 5 8.939 5 11Z"/><path fill="#C8CBCC" id="ec" d="m95 102-1 1 1-1ZM94 103l-1 1 1-1Z"/><path fill="#FF64FF" id="MB" d="m146 103-1 1 1-1Z"/><path fill="#C9C8C8" id="bic" d="M139 114c0 5.651-3 12.194-3 20 .833 0 3.1 2.301 4 .5v-13c2.439-4.879 6.476-8.951 9-14 1.442-2.884-.567-4.5-3-4.5l-1 1-6 10ZM311 104c-.517 0-4-2.312-4 .5 0 5.034 5.992 8.985 8 13 2.425 4.85-.358 12.284 2 17 1.27 2.54 3.483-1.5 4-1.5 0-7.106-1.069-13.637-4-19.5l-6-9.5Z"/><path fill="#C8CBCC" id="ec" d="m93 104-1 1 1-1ZM92 105l-1 1 1-1Z"/><path fill="#15B0B3" id="TEa1" d="M38 129c-2.33 0-3.227 2-6 2 0-3.865 7.85-25 10-25l1 7v2c-2.022 0-5 11.857-5 14Z"/><path fill="#C8CBCC" id="ec" d="m91 106-1 1 1-1Z"/><path fill="#15B0B3" id="TEa1" d="m419 130 5 1c0-9.12-9-19.742-9-25-.306 0-1.172 7-2 7l1 2c0 4.692 5 10.026 5 15Z"/><path fill="#C8CBCC" id="ec" d="M90 107c-1.712 0-3 2.571-3 4 1.712 0 3-2.571 3-4Z"/><path fill="#59B847" id="PRE" d="M107 208h1c0-1.787 3.1-6.7 4-8.5 5.802-11.605-3.335-27.082 11.5-34.5l2.5-2v-1l1-1c0-11.784 3.017-26.533 8-36.5.983-1.967.765-10.5 4-10.5l1-4-24-1-4 4c0 4.453-6.817 25.134-9 29.5-2.597 5.193-.391 12.782-3 18-1.278 2.556-.043 9.914 1 12v10c3.664 7.329 4 15.596 4 24.5l2 1ZM348 207l1 1 2-2c0-10.252 9.205-40.09 5-48.5-3.656-7.311-1.348-17.696-5-25l-7-18.5-3-5c-8.269 0-16.199 1-24 1 0 3.817 2.426 6.352 4 9.5 2.393 4.786 9 36.309 9 42.5l2.5 3c12.479 6.24 6.354 17.209 11.5 27.5v5c.766 1.533 4 8.245 4 9.5Z"/><path fill="#7DCD4B" id="HPF" d="m368 110 1 1-1-1Z"/><path fill="#C8CBCC" id="ec" d="m87 112-2 1c0-1.747.253-2 2-2v1Z"/><path fill="#7DCD4B" id="HPF" d="M75 126c0 2.062-4 10.319-4 17l2-3.5c1.819-3.637 2.142-8.284 4-12L89 115c-2.293 0-2-.997-2-3l-2 1c0 1.562-2.189 5-4 5l-1 1-1 2-2 2-1 1-1 2Z"/><path fill="#C7C8CC" id="alv" d="M88 202v3l-8-13-1-1v-1l-2-2v-1c0-4.585-4-7.957-4-13l-2-4.5V143l2-3.5c1.819-3.637 2.142-8.284 4-12L89 115l7.5-3 7.5 1h3l-3.5 2c-3.229 1.615-10.13 1.065-14 3-9.972 4.986-12.232 14.964-16.5 23.5-4.963 9.926 1.856 37.713 6 46l9 14.5Z"/><path fill="#A9A9A8" id="AQ" d="M227 123h2c6.696 0 2.612-13.056-1.5-11-4.544 2.272-3.607 11-.5 11Z"/><path fill="#C7C8CC" id="alv" d="M375 194c0 1.247-2.467 5-4 5 0-4.473 6.024-10.547 8-14.5 4.816-9.633 9.414-29.172 4-40v-5c-3.884-7.769-8.444-17.972-17.5-22.5-1.995-.998-15.5-1.776-15.5-4h2l8.5-1 6.5 3 12 12.5c.828 1.656 5.013 13.5 6 13.5l1 23.5c-1.225 2.451-2 6.684-2 9.5 0 3.414-3 6.353-3 10l-1 2-1 1v2l-1 1-1 1v1l-1 1-1 1Z"/><path fill="#7DCD4B" id="HPF" d="M381 126c0 1.228 4 8.707 4 15-.987 0-5.172-11.844-6-13.5L367 115c3.947 0 2-.591 2-3l10 10v1l2 2v1Z"/><path fill="#16AFB3" id="TEa2/3" d="m44 113-1 1v-1h1Z"/><path fill="#C8CBCC" id="ec" d="M85 113c-1.811 0-4 3.438-4 5 1.811 0 4-3.438 4-5Z"/><path fill="#4FC244" id="SUB" d="m105 207-4 1-4.5 1-8.5-7-9-14.5c-4.144-8.287-10.963-36.074-6-46 4.268-8.536 6.528-18.514 16.5-23.5 3.87-1.935 10.771-1.385 14-3l3.5-2h5c0 4.453-6.817 25.134-9 29.5-2.597 5.193-.391 12.782-3 18-1.278 2.556-.043 9.914 1 12v10c3.664 7.329 4 15.596 4 24.5Z"/><path fill="#FE79FE" id="ICe" d="M157 126c0 2.711-2 4.969-2 6h-11.5c-6.602-3.301 2.111-31.279 11.5-12.5 1.235 2.471 2 3.433 2 6.5ZM299 125c0 2.176-.348 7 3 7 4.07 0 9.093.703 12.5-1 4.879-2.439-5.678-27.144-11.5-15.5-.771 1.542-1.255 3.51-2 5l-2 4.5Z"/><path fill="#4FC244" id="SUB" d="m351 206 4 2c1.423 0 3.544 1.978 5.5 1l8.5-7c0-1.238.423-3 2-3 0-4.473 6.024-10.547 8-14.5 4.816-9.633 9.414-29.172 4-40v-5c-3.884-7.769-8.444-17.972-17.5-22.5-1.995-.998-15.5-1.776-15.5-4-2.124 0-4.436 1-6 1l7 18.5c3.652 7.304 1.344 17.689 5 25 4.205 8.41-5 38.248-5 48.5Z"/><path fill="#16AFB3" id="TEa2/3" d="m44 128-6 1c0-2.143 2.978-14 5-14 .212 0 1 10.766 1 13ZM412 128l7 2c0-4.974-5-10.308-5-15-1.472 0-2 10.471-2 13Z"/><path fill="#C8CBCC" id="ec" d="m81 118-1 1 1-1Z"/><path fill="#FF64FF" id="MB" d="m180 121 2.5 2h4c2.245 1.123 4.432 4 6.5 4v-7c-1.747 0-2-.253-2-2l-11 3ZM277 121l-2.5 2h-4l-7.5 4 1-7c1.747 0 2-.253 2-2 3.751 0 6.819 3 11 3Z"/><path fill="#C8CBCC" id="ec" d="m80 119-1 2 1-2Z"/><path fill="#CBC9C7" id="or" d="M73 126h2l1-2 1-1v-2c-1.811 0-4 3.438-4 5Z"/><path fill="#C8CBCC" id="ec" d="m79 121-2 2v-2h2Z"/><path fill="#FF8FFD" id="MRN" d="m206 186-1 1-3.5-2c-4.502-2.251-13.24 1-17.5 1l7-7.5c3.244-6.487-9.618-13.559-13.5-15.5-3.745-1.873-7.738 2-10.5 2l-5-6c0-8.786-7-11.938-7-14l-2-5.5c0-1.829 2-5.63 2-7.5 0-1.031 2-3.289 2-6 1.406 0 6.914-4.207 8.5-5H180l2.5 2h4c2.245 1.123 4.432 4 6.5 4 0 4.668 11.432 22 17 22h2l5 5c0 2.364 3 3.053 3 5 0 1.738-.686 6-3 6-4.604 0-8 1.803-8 8-3.426 0-12.592.454-5.5 4l4.5-2c0 3.492-2 7.709-2 11ZM251 187c4.23 0 12.235-4.632 17.5-2l4.5 2c0-2.736-6.463-6.426-8-9.5-2.854-5.708 10.665-12.583 14.5-14.5l9.5 1c1.758 0 5-3.168 5-5 0-2.643 2.313-14 8-14v-13c-3.348 0-3-4.824-3-7l-7.5-4H277l-2.5 2h-4l-7.5 4c0 5.756-8.977 21-16 21l-1 1h-2l-5 5c0 2.364-3 3.053-3 5l3 6c4.896 0 8 1.327 8 8 1.881 0 13.197.651 6.5 4-2.569 1.284-3.509-3-5.5-3l2 12 1 1Z"/><path fill="#C8CBCC" id="ec" d="m77 123-1 1 1-1Z"/><path fill="#FF64FF" id="MB" fill-rule="evenodd" d="M243 190h2l-2-12-1-2c0-3.901-3-7.543-3-11l-3-6c-1.684 0-1 4.679-1 6h-2l2 3c0 12.234-12.144-5-3-5 0-3.485 1.395-9 7-9l5-5c-4.542 0-13-5.586-13-10v-13.5l-2-2.5h-2c0 4.649.413 19.543-4.5 22l-5 1c-2.548 1.274-2.312 3-5.5 3l5 5c5.075 0 8 4.222 8 9 7.054 0 0 8.182 0 9-2.343 0-4-.285-4-3-2.94 0-1.304 11.098-3.5 10-2.941-1.47.612-14 3.5-14 0-1.643 1.513-6-1-6 0 1.738-.686 6-3 6 0 6.321-5 15.841-5 25h2c0-5.759 6-6.896 6-1 3.651 0 4.558 2.529 7.5 4 1.838.919 5.903-4 8.5-4 0-5.869 7-5.025 7 1m-18-18c0 2.671-6.823 7.855-4 13.5 1.916 3.831 12.054 4.891 14 1 4.144-8.289-2.99-14.5-10-14.5m10-7 2 5.5 1.5 8.5.5-4.5c0-3.229-.187-9.5-4-9.5Z"/><path fill="#C8CBCC" id="ec" d="m379 123 2 2-2-2ZM384 174h1c0-1.468 3.161-13.823 4-15.5 2.755-5.509-1-17.172-1-22.5 0-2.061-2.598-11-5-11 0 2.729-.423 1-2 1 0 1.228 4 8.707 4 15l1 23.5c-1.225 2.451-2 6.684-2 9.5ZM71 174h2l-2-4.5V143c0-6.681 4-14.938 4-17h-2l-2 1-3 9c0 6.187-2.785 19.931 0 25.5 1.335 2.669 3 9.662 3 12.5Z"/><path fill="#0C848C" id="VISpor6b" d="M66 136h2l3-9c-2.064 0-5 7.264-5 9Z"/><path fill="#0D9F91" id="ECT2/3" d="M38 141h1c2.39 0-.94-2 .5-2 4.57 0 3.84-2 9.5-2v-3c-3.729 0-2.435-6-5-6l-6 1v12Z"/><path fill="#0D9F91" id="ECT2/3" fill-rule="evenodd" d="M412 137c0 1.93 1.93 0 0 0m-5 0c2.575 0 10.2 4 11 4 0-2.998 1-7.358 1-11l-7-2c0 1.72-3.753 7-5 7v2Z"/><path fill="#0D9F90" id="ECT1" d="m38 141-4 4c-3.118 0-2-11.531-2-14 2.773 0 3.67-2 6-2v12ZM418 141c1.896 0 4 2.077 4 4 3.299 0 4.197-14 2-14l-5-1c0 3.642-1 8.002-1 11Z"/><path fill="#0D9E90" id="ECT5" d="M49 137h1l-1-2v2Z"/><path fill="#FD90FC" id="Su3" d="M222 135c0 2.398-16.887 3.725-14 9.5 3.506 7.011 23.369-9.5 14-9.5ZM231 137l2.5-2 11 4c2.432 1.216 6.271 8 1 8l-14.5-8v-2Z"/><path fill="#0D9E90" id="ECT5" d="M406 137h1v-2l-1 2Z"/><path fill="#32B824" id="ENTl6a" d="M88 205c0 4.012-3 8.592-3 12-3.396 0-12.364-12.228-14-15.5-2.318-4.636-5.712-8.423-8-13-6.647-13.294-4-33.615-4-49.5l7-3h2c0 6.187-2.785 19.931 0 25.5 1.335 2.669 3 9.662 3 12.5 0 2.172 4.018 13 6 13v1l2 2v1l1 1 8 13ZM369 203c0 2.869-.774 14 3 14 1.11 0 10.055-10.611 11-12.5 2.059-4.118 5.974-6.948 8-11 2.046-4.092 2.935-8.87 5-13 3.672-7.345 1-31.977 1-41.5l-6-3h-3c0 5.328 3.755 16.991 1 22.5-.839 1.677-4 14.032-4 15.5 0 2.161-1.729 10-4 10l-1 2-1 1v2l-1 1-1 1v1l-1 1-1 1c0 1.247-2.467 5-4 5 0 1.465.109 4-2 4Z"/><path fill="#0E9583" id="PERI2/3" d="m48 146-7 3-2-8c2.39 0-.94-2 .5-2 4.57 0 3.84-2 9.5-2l1 8-2 1Z"/><path fill="#0F9684" id="PERI5" d="m54 142-4 3-1-8h2l2 1 3 2-2 2Z"/><path fill="#0D9E90" id="ECT5" d="m51 137 2 1-2-1ZM405 137l-2 1 2-1Z"/><path fill="#0F9684" id="PERI5" d="m402 142 5 3v-8h-2l-2 1-3 2 2 2Z"/><path fill="#0E9583" id="PERI2/3" d="m408 146 7 3c.951 0 3-6.869 3-8-.8 0-8.425-4-11-4v8l1 1ZM412 137c0 1.93 1.93 0 0 0Z"/><path fill="#31B824" id="ENTl5" d="M81 225h1c0-1.345 1.57-7 3-7v-1c-3.396 0-12.364-12.228-14-15.5-2.318-4.636-5.712-8.423-8-13-6.647-13.294-4-33.615-4-49.5l-3 1-2 2c0 7.173-4.553 36.394-2 41.5 3.139 6.277 5.8 12.602 9 19 1.705 3.41 4.148 8.824 7.5 10.5 3.683 1.842 7.286 12 12.5 12ZM372 218l3 7c5.086 0 13.944-11.388 16-15.5l8-12 6-16c2.301-4.602-3-32.673-3-39.5l-2-2-2-1h-1c0 9.523 2.672 34.155-1 41.5-2.065 4.13-2.954 8.908-5 13-2.026 4.052-5.941 6.882-8 11-.945 1.889-9.89 12.5-11 12.5v1Z"/><path fill="#0E9584" id="PERI1" d="m41 150-5 4c0-2.008.656-9-2-9l4-4h1l2 8v1ZM415 150l5 4c0-3.324 2-6.16 2-9 0-1.923-2.104-4-4-4 0 1.131-2.049 8-3 8v1Z"/><path fill="#32B725" id="ENTl3" d="M81 225c0 2.483-2 4.026-2 6-3.605 0-18.141-12.782-20-16.5-2.308-4.615-5.727-8.455-8-13l-6-16c-3.46-6.919 3-30.896 3-39.5l2-1 4-3c0 7.173-4.553 36.394-2 41.5 3.139 6.277 5.8 12.602 9 19 1.705 3.41 4.148 8.824 7.5 10.5 3.683 1.842 7.286 12 12.5 12ZM375 225l3 6c5.409 0 12.066-10.283 15.5-12 3.62-1.81 5.736-6.972 7.5-10.5 3.674-7.348 6.406-14.813 10-22 3.355-6.711-3-32.712-3-40.5l-1-1-5-3c0 6.827 5.301 34.898 3 39.5l-6 16-8 12c-2.056 4.112-10.914 15.5-16 15.5Z"/><path fill="#FF7AFE" id="SAG" d="m146 155 4.5 4c3.801 1.901 7.966 0 11.5 0 0-8.786-7-11.938-7-14-4.434 0-9 .579-9 6v4ZM309 157c-1.009 0-5.343 2.421-6.5 3l-8.5-1c0-2.643 2.313-14 8-14 3.29 0 9 .71 9 5v3l-1 2-1 2Z"/><path fill="#32B825" id="ENTl2" d="M76 237h1c0-1.041.986-5 2-5v-1c-3.605 0-18.141-12.782-20-16.5-2.308-4.615-5.727-8.455-8-13l-6-16c-3.46-6.919 3-30.896 3-39.5l-7 3v1c0 5.891-2.469 14.437-5 19.5-2.7 5.4.909 17.817 3 22l2 8c7.972 15.943 10.559 25.029 27.5 33.5 2.668 1.334 4.276 4 7.5 4ZM378 232l2 5c4.548 0 7.695-4.098 11.5-6 19.854-9.927 17.376-22.252 25.5-38.5 1.832-3.665 6.331-14.339 4-19-1.959-3.919-6-19.211-6-23.5v-1l-7-3c0 7.788 6.355 33.789 3 40.5-3.594 7.187-6.326 14.652-10 22-1.764 3.528-3.88 8.69-7.5 10.5-3.434 1.717-10.091 12-15.5 12v1Z"/><path fill="#FF79FD" id="PBG" d="M146 151c-2.664 0-2.572-5.464-5.5-4-5.83 2.915 1.982 21.536 6.5 12.5l-1-4.5v-4ZM310 155l-1 2c0 8.992 12.913 2.327 8-7.5l-.5-2.5c-2.569-1.284-3.509 3-5.5 3v3l-1 2Z"/><path fill="#FF64FF" id="MB" d="M210 149h1c0-1.186-1-1.186-1 0ZM247 148l-1 1 1-1Z"/><path fill="#32B722" id="ENTl1" d="m76 237-1 3c-3.758 0-6.344-3.422-9.5-5-24.055-12.028-24.167-28.834-34.5-49.5-4.68-9.36 5-24.271 5-31.5l5-4c0 5.891-2.469 14.437-5 19.5-2.7 5.4.909 17.817 3 22l2 8c7.972 15.943 10.559 25.029 27.5 33.5 2.668 1.334 4.276 4 7.5 4ZM380 237l2 3c3.983 0 8.978-5.239 12.5-7 17.592-8.796 21.31-26.119 29.5-42.5 1.632-3.265.355-7.71 2-11 3.568-7.137-6-19.675-6-25.5l-5-4c0 4.289 4.041 19.581 6 23.5 2.331 4.661-2.168 15.335-4 19-8.124 16.248-5.646 28.573-25.5 38.5-3.805 1.902-6.952 6-11.5 6Z"/><path fill="#FF64FF" id="MB" d="m311 153-1 2 1-2Z"/><path fill="#CBCBCC" id="mlf" d="M221 166h1l1-1 1-1 1-1c0-4.778-2.925-9-8-9 0 2.364 3 3.053 3 5 2.513 0 1 4.357 1 6v1ZM233 165h2c0-1.321-.684-6 1-6 0-1.947 3-2.636 3-5-5.605 0-7 5.515-7 9l1 2Z"/><path fill="#FF64FF" id="MB" d="m310 155-1 2 1-2Z"/><path fill="#72D568" id="PAR" d="m127 161-1 1 1-1ZM341 212l-3 1c0-3.341-1.539-8.578-3-11.5v-9c-2.829-5.657-5-23.718-5-30.5l2.5 3c12.479 6.24 6.354 17.209 11.5 27.5v5c.766 1.533 4 8.245 4 9.5 0 2.54-3 2.543-3 4l-4 1ZM115 212l3 1c.983 0 3-10.42 3-12 0-12.992 5-25.146 5-38l-2.5 2c-14.835 7.418-5.698 22.895-11.5 34.5-.9 1.8-4 6.713-4 8.5l4 3 3 1Z"/><path fill="#FFA5FD" id="PPN" d="M177 189h2l1-1h1l1-1h1l1-1 7-7.5c3.244-6.487-9.618-13.559-13.5-15.5-3.745-1.873-7.738 2-10.5 2-4.162 0-11.361 10.778-9 15.5 4.067 8.134 7.072 8.5 16 8.5h3Z"/><path fill="#FF64FF" id="MB" d="m225 163-1 1 1-1Z"/><path fill="#FFA4FF" id="CLI" d="M221 169c0 2.715 1.657 3 4 3 0-.818 7.054-9 0-9l-1 1-1 1-1 1-1 1v2Z"/><path fill="#FFA4FF" id="CLI" d="M232 163c-9.144 0 3 17.234 3 5l-2-3-1-2Z"/><path fill="#FFA5FD" id="PPN" d="M279 189h13.5c5.206-2.603 6.938-12.625 4.5-17.5l-8-7.5-9.5-1c-3.835 1.917-17.354 8.792-14.5 14.5 1.537 3.074 8 6.764 8 9.5l6 2Z"/><path fill="#C8C8CC" id="tspc" d="m211 205-1 1c-4.933 0-3-12.213-3-16l-1-1v-3c0-3.291 2-7.508 2-11l1-2c0-6.197 3.396-8 8-8 0 6.321-5 15.841-5 25v6l-1 1v8Z"/><path fill="#FF64FF" id="MB" d="m224 164-1 1 1-1Z"/><path fill="#C8C8CC" id="tspc" d="M246 206h1c2.757 0 3-13.893 3-17v-3l-2-12-1-1c0-6.673-3.104-8-8-8 0 3.457 3 7.099 3 11l1 2 2 12-1 1v2l1 2c0 3.806 1 7.751 1 11Z"/><path fill="#C8C8C8" id="mtg" d="M221 167v2c-2.94 0-1.304 11.098-3.5 10-2.941-1.47.612-14 3.5-14v2Z"/><path fill="#FF64FF" id="MB" d="m223 165-1 1 1-1Z"/><path fill="#C8C8C8" id="mtg" d="m235 165 2 5.5 1.5 8.5.5-4.5c0-3.229-.187-9.5-4-9.5Z"/><path fill="#FF64FF" id="MB" d="m222 166-1 1v-1h1Z"/><path fill="#CCC7CC" id="dscp" d="M225 172c0 2.671-6.823 7.855-4 13.5 1.916 3.831 12.054 4.891 14 1 4.144-8.289-2.99-14.5-10-14.5Z"/><path fill="#CBC9CB" id="scp" d="M209 173c-3.426 0-12.592.454-5.5 4l4.5-2 1-2ZM247 173c1.881 0 13.197.651 6.5 4-2.569 1.284-3.509-3-5.5-3l-1-1Z"/><path fill="#7DCD4B" id="HPF" d="M73 174c0 5.043 4 8.415 4 13-1.982 0-6-10.828-6-13h2ZM385 174c0 2.161-1.729 10-4 10 0-3.647 3-6.586 3-10h1Z"/><path fill="#CBC9CB" id="scp" d="m242 176 1 2-1-2Z"/><path fill="#C9C9CB" id="ll" d="m151 224 4 5-2-6v-1l-1-1v-1l-1-1v-1l-2-2-6-8.5c-2.175-4.349 1.724-21.388 7.5-18.5l7.5 8-1-3c0-4.574-5.997-13.749-10.5-16-2.712-1.356-3.183 2-4.5 2 0 8.712-3 16.868-3 26v1l2.5 4c2.405 1.203 9.5 8.119 9.5 12v1ZM303 226h1l1-2 1-2 1-1c0-2.37 7.801-13 10-13v-1c0-8.75-2-16.578-2-26-1.543 0-2.231-4.634-5.5-3l-8.5 10.5c-.465.93-.817 4.5-2 4.5v3l6.5-7c5.372-2.686 10.229 12.042 8.5 15.5-1.567 3.134-8 10.194-8 13.5l-1 1v1l-1 1v1l-1 1v3Z"/><path fill="#7DCD4B" id="HPF" d="m381 184-1 2 1-2Z"/><path fill="#FFC295" id="PRNr" d="m175 237 4 7.5c2.816 5.632 6.288 6.5 11 6.5 0-8.368 13.597-23 22-23l1-1v-11l-1-1v-3l-1-1v-3l-1-2c-4.933 0-3-12.213-3-16l-1-1v-1l-1-1-3.5-2c-4.502-2.251-13.24 1-17.5 1l-1 1h-1l-1 1h-1l-1 1h-2c0 1.897-8 1.437-8 8 6.01 0 4.494 13 1 13l-1 1c0 6.236 2 11.483 2 17v1l2 3v1l2 3v1Z"/><path fill="#FD90FE" id="AT" d="M220 189c0 4.767-6 5.491-6 1 0-5.759 6-6.896 6-1ZM236 189c0 8.122 5.417 1 7 1 0-6.025-7-6.869-7-1Z"/><path fill="#FFC295" id="PRNr" d="M280 240c-2.484 0-6.147 10.323-9.5 12l-4.5-1c0-8.276-12.598-23-21-23 0-1.996-2-4.985-2-8v-2l1-1 1-8 1-2 1-1c2.757 0 3-13.893 3-17l1-1v-1c4.23 0 12.235-4.632 17.5-2l4.5 2 6 2c0 .569 8 1.604 8 8-7.733 0 0 12.78 0 14 0 6.506-2 12.376-2 18v1l-1 1-1 2v1l-1 1v1l-1 1v1l-1 2Z"/><path fill="#FF8FFD" id="MRN" d="m184 186-1 1 1-1Z"/><path fill="#FF64FF" id="MB" d="m205 187 1 1v-2l-1 1ZM250 188h1v-1l-1-1v2Z"/><path fill="#7DCD4B" id="HPF" d="m380 186-1 1 1-1Z"/><path fill="#FF64FF" id="MB" d="m182 187-1 1 1-1Z"/><path fill="#7DCD4B" id="HPF" d="m77 188 2 2-2-2Z"/><path fill="#FF64FF" id="MB" d="m180 188-1 1 1-1Z"/><path fill="#FF9B88" id="P" d="m251 188-1 1v-1h1Z"/><path fill="#FFAC6F" id="NLL" d="M174 265h1l1-1 1-1 1-1v-1l1-2v-1c0-8.393-4-15.356-4-21v-1c-1.577 0-2-1.762-2-3v-1c-1.577 0-2-1.762-2-3v-1c-2.825 0-3.181-5.863-4-7.5-3.332-6.663-9-15.743-9-23.5l-7.5-8c-5.776-2.888-9.675 14.151-7.5 18.5l6 8.5 2 2v1l1 1v1l1 1v1c2.816 0 4.968 10.436 6 12.5 5.268 10.537-1.811 29.5 15 29.5Z"/><path fill="#FF9B88" id="P" d="M169 211c0 6.236 2 11.483 2 17-2.825 0-3.181-5.863-4-7.5-3.332-6.663-9-15.743-9-23.5l-1-3 13.5-4c1.046-.523 3.5.951 3.5-1h3c0 1.897-8 1.437-8 8-11.417 0-3.515 14 0 14ZM206 189l1 1-1-1Z"/><path fill="#FFC393" id="CS" d="M225 230c2.935 0 1.118-7.735 2-9.5 1.513-3.026 4 7.347 4 9.5.706 0 6-1.325 6-2l6-8v-2l1-1 1-8 1-2v-1c0-3.249-1-7.194-1-11l-1-2v-2l-1-1c-1.583 0-7 7.122-7-1-2.597 0-6.662 4.919-8.5 4-2.942-1.471-3.849-4-7.5-4 0 4.767-6 5.491-6 1h-1l-1 2v4l-1 1v14l1 1v3l1 1v3l6 9c.706 0 6 1.325 6 2Z"/><path fill="#FF9B88" id="P" d="M287 211c0 6.506-2 12.376-2 18 1.761 0 3.325-6.15 4-7.5 3.371-6.742 9-15.608 9-23.5l1-1v-4c-3.996 0-10.044-1.272-13.5-3-1.046-.523-3.5.951-3.5-1h-3c0 .569 8 1.604 8 8 10.413 0 5.372 14 0 14Z"/><path fill="#FFAC6F" id="NLL" d="M279 262c0 1.712 2.571 3 4 3 15.891 0 8.978-18.456 14-28.5 1.105-2.209 2.477-12.5 6-12.5v-1l1-1v-1l1-1v-1l1-1c0-3.306 6.433-10.366 8-13.5 1.729-3.458-3.128-18.186-8.5-15.5l-6.5 7v1l-1 1c0 7.892-5.629 16.758-9 23.5-.675 1.35-2.239 7.5-4 7.5v1l-1 1-1 2v1l-1 1v1l-1 1v1l-1 2c0 6.281-2 12.845-2 20v1l1 1Z"/><path fill="#7DCD4B" id="HPF" d="m379 189-1 1 1-1Z"/><path fill="#FF9B88" id="P" d="m213 190-1 2v-2h1ZM245 190l-1 1-1-1h2Z"/><path fill="#7DCD4B" id="HPF" d="m378 190-1 1 1-1ZM79 191l1 1-1-1ZM377 192l-1 1 1-1Z"/><path fill="#FF9B88" id="P" d="m244 193 1 2-1-2Z"/><path fill="#7DCD4B" id="HPF" d="m376 193-1 1 1-1Z"/><path fill="#FF9B88" id="P" d="m212 196-1 1 1-1Z"/><path fill="#C8C8CB" id="rust" d="m170 210-1 1c-3.515 0-11.417-14 0-14 6.01 0 4.494 13 1 13ZM287 197c10.413 0 5.372 14 0 14 0-1.22-7.733-14 0-14Z"/><path fill="#C9C9CB" id="ll" d="m299 197-1 1 1-1Z"/><path fill="#C7C8CC" id="alv" d="M369 202v1c2.109 0 2-2.535 2-4-1.577 0-2 1.762-2 3Z"/><path fill="#32B623" id="ENTm6" d="M85 217v1c0 .909 6.92 3.79 8.5 3 4.561-2.281 7.5-8.025 7.5-13l-4.5 1-8.5-7v3c0 4.012-3 8.592-3 12ZM372 217v1c-4.116 0-10.431 6.637-14-.5l-1-5-2-4.5c1.423 0 3.544 1.978 5.5 1l8.5-7v1c0 2.869-.774 14 3 14Z"/><path fill="#FF9B88" id="P" d="m210 206 1 2v-3l-1 1Z"/><path fill="#F0F080" id="CB" d="M139 207c0 2.098-1.939 3-4 3 0-1.634 2.634-4 4-4v1Z"/><path fill="#FF9B88" id="P" d="m247 206-1 1v-1h1Z"/><path fill="#F0F080" id="CB" d="m317 208 4 2c0-3.195-2.467-3-4-3v1Z"/><path fill="#30B724" id="ENTm5" d="m372 218 3 7-7.5 4c-10.855 5.427-18.5-13.974-18.5-21l2-2 4 2 2 4.5 1 5c3.569 7.137 9.884.5 14 .5ZM85 218c-1.43 0-3 5.655-3 7 0 2.527 11.688 5.406 14.5 4 6.656-3.328 10.5-14.019 10.5-21l-2-1-4 1c0 4.975-2.939 10.719-7.5 13-1.58.79-8.5-2.091-8.5-3Z"/><path fill="#CCCCCA" id="mcp" d="m159 249-.5 11c-1.47 0-2.377-3-4.5-3 0-3.26-19-19.42-19-24l-2-3.5V215l1-2v-1l1-1v-1c2.061 0 4-.902 4-3l2.5 4c2.405 1.203 9.5 8.119 9.5 12l-2.5-1c-2.121 1.061 4.695 11.89 5.5 13.5 1.915 3.829-2.277 13.111 2.5 15.5l2.5-2Z"/><path fill="#FF9B88" id="P" d="m246 207-1 2 1-2Z"/><path fill="#31B723" id="ENTm3" d="M378 231v1c-5.051 0-12.643 5.929-18.5 3-7.618-3.809-14.5-15.611-14.5-24 0-1.457 3-1.46 3-4l1 1c0 7.026 7.645 26.427 18.5 21l7.5-4 3 6ZM79 231v1c4.79 0 11.802 5.849 17.5 3 9.285-4.642 8.371-9.243 12.5-17.5l3-6.5-4-3h-1c0 6.981-3.844 17.672-10.5 21-2.812 1.406-14.5-1.473-14.5-4h-1c0 2.483-2 4.026-2 6Z"/><path fill="#CCCCCA" id="mcp" d="M298 241c-1.579 0-1 2.855-1 4v14.5l6-2.5c0-2.835 3.038-2.575 4-4.5l10-14 5-5.5 2-5.5-1-11.5v-2l-1-2-1-2-4-2c-2.199 0-10 10.63-10 13 1.22 0 1.504 3.492 1 4.5-1.892 3.783-4.143 7.286-6 11-.987 1.975 1.196 14.5-2.5 14.5-2.444 0-1.5-8.441-1.5-10Z"/><path fill="#FF9B88" id="P" d="m170 210-1 1 1-1Z"/><path fill="#30B824" id="ENTm2" d="M79 232c-1.014 0-2 3.959-2 5 5.697 0 13.408 7.546 20.5 4 9.962-4.981 17.5-17.743 17.5-29l-3-1-3 6.5c-4.129 8.257-3.215 12.858-12.5 17.5-5.698 2.849-12.71-3-17.5-3Z"/><path fill="#F0F080" id="CB" d="m135 211-1 1 1-1Z"/><path fill="#FF9B88" id="P" d="m211 211 1 1-1-1Z"/><path fill="#30B824" id="ENTm2" d="m378 232 2 5c-5.723 0-13.534 7.483-20.5 4-10.029-5.015-11.726-10.952-16.5-20.5v-4l-2-4.5 4-1c0 8.389 6.882 20.191 14.5 24 5.857 2.929 13.449-3 18.5-3Z"/><path fill="#31B625" id="ENTm1" d="M76 237h1c5.697 0 13.408 7.546 20.5 4 9.962-4.981 17.5-17.743 17.5-29l3 1c0 13.539-8.263 27.882-20.5 34-3.331 1.666-22.5-4.823-22.5-7l1-3Z"/><path fill="#F0F080" id="CB" d="m322 212 1 2-1-2Z"/><path fill="#31B625" id="ENTm1" d="m380 237 2 3c0 1.884-19.372 8.564-22.5 7-7.368-3.684-12.675-7.85-16.5-15.5l-2-10c-1.273-2.547-3-5.497-3-8.5l3-1 2 4.5v4c4.774 9.548 6.471 15.485 16.5 20.5 6.966 3.483 14.777-4 20.5-4Z"/><path fill="#F0F080" id="CB" d="m134 213-1 2 1-2Z"/><path fill="#FF9B88" id="P" d="m212 215 1 1-1-1ZM149 216l2 2-2-2Z"/><path fill="#F0F080" id="CB" d="M331 231c-3.301 0-7.523 2-9 2l2-5.5-1-11.5c2.357 0 1.264 6.029 2 7.5 1.269 2.537 6 5.816 6 7.5ZM125 231c4.368 0 8.475 2 10 2l-2-3.5V217c-1.781 0-1.348 6.197-2 7.5l-6 6.5Z"/><path fill="#FF9B88" id="P" d="m244 217-1 1 1-1ZM306 218l-1 1 1-1ZM151 219l1 1-1-1ZM213 227l6 1-6-9v8Z"/><path fill="#FF9B88" id="P" fill-rule="evenodd" d="M159 261c0 1.93 1.93 0 0 0m90 6c2.099 0 4.383 3.558 7.5 2l2.5-2c8.029 0 7-10.171 7-16l4.5 1c3.353-1.677 7.016-12 9.5-12 0 6.281-2 12.845-2 20-1.658 0-1.45-6-2.5-6-2.574 0-2.887 5.274-3.5 6.5-4.948 9.897 5.66 25.679 13 11 1.428-2.856-2-4.553-2-6.5 15.891 0 8.978-18.456 14-28.5 1.105-2.209 2.477-12.5 6-12.5v2l-1 2v1l-1 1v2l-1 1v1l-1 1v3c-1.473 0-1 1.952-1 3-1.579 0-1 2.855-1 4v14.5l6-2.5c0 3.817 5 4.633 5 6-7.503 0-9.356 6.928-15.5 10-7.509 3.755-14.64 8.32-22 12-6.026 3.013-25.568-1.284-31-4-7.217-3.608-32.806 1.403-40 5-2.056 1.028-6.416-.208-8-1-2.061-1.03-11.639-1.819-16-4-8.539-4.27-17.971-18-26.5-18 0-1.674 5-2.662 5-6 2.123 0 3.03 3 4.5 3l.5-11v-6c0-1.357-.647-6-2-6v-3l-1-1v-1l-1-1v-2l-2-6c2.816 0 4.968 10.436 6 12.5 5.268 10.537-1.811 29.5 15 29.5 0 2.332-4.722 2.057-3 5.5 11.757 23.513 18.388-12.056 11.5-15.5-3.107-1.553-1.777 3-3.5 3 0-8.393-4-15.356-4-21l4 7.5c2.816 5.632 6.288 6.5 11 6.5 0 6.411-.059 16 8 16 1.298 0 3.373 3.563 6.5 2l5.5-4 1-1h2c0 2.984-3.528 6.443-2 9.5.86 1.72 3.7-.1 4.5-.5 4.874-2.437 9.5-7.422 9.5-13 2.933 0 2-5.599 2-7.5 0-7.688-2-15.32-2-22.5 2.935 0 1.118-7.735 2-9.5 1.513-3.026 4 7.347 4 9.5 0 7.242-2 14.86-2 22.5 0 1.689.198 7.5 2 7.5 0 5.96 4.815 8.315 8 11.5.969.969 5.644 4.713 7 2 1.292-2.584-3-6.689-3-9.5l3 1 2 1 1 1Z"/><path fill="#FF9B88" id="P" d="M237 228h8c0-1.996-2-4.985-2-8l-6 8ZM305 220l-1 1 1-1ZM152 221l1 1-1-1Z"/><path fill="#CCCCCA" id="mcp" d="m307 221-1 1 1-1Z"/><path fill="#CCCBCA" id="moV" d="M299 238c0 1.048.473 3-1 3 0 1.559-.944 10 1.5 10 3.696 0 1.513-12.525 2.5-14.5 1.857-3.714 4.108-7.217 6-11 .504-1.008.22-4.5-1-4.5l-1 1-1 2-1 2-1 1v1l-1 2-1 1v2l-1 2-1 2v1ZM159 243v6l-2.5 2c-4.777-2.389-.585-11.671-2.5-15.5-.805-1.61-7.621-12.439-5.5-13.5l2.5 1v1l4 7v1l1 1v1l1 2v1c0 1.357.647 6 2 6Z"/><path fill="#FF9B88" id="P" d="m304 222-1 1 1-1Z"/><path fill="#CCCCCA" id="mcp" d="M155 229v2l-4-7 4 5ZM305 224l-1 2 1-2Z"/><path fill="#C9C9CB" id="ll" d="M302 228h1v-2l-1 2Z"/><path fill="#CCCCCA" id="mcp" d="m304 226-1 1v-1h1Z"/><path fill="#FF9B88" id="P" d="m213 227-1 1 1-1Z"/><path fill="#FEBA85" id="TRN" fill-rule="evenodd" d="m219 235-1 6.5v5c6.744 13.487 11.873-11.5 1-11.5m-8 29h2c2.12 0 7.968-4 12-4 2.933 0 2-5.599 2-7.5 0-7.688-2-15.32-2-22.5 0-.675-5.294-2-6-2l-6-1-1 1c-8.403 0-22 14.632-22 23 0 6.411-.059 16 8 16l-1-3.5c2.655-5.31 14-6.468 14 .5ZM235 235l-4 5.5c-.904 1.809-.012 12.256 3.5 10.5 4.718-2.359 6.603-16 .5-16m11 30c0-9.453 13-6.469 13 2 8.029 0 7-10.171 7-16 0-8.276-12.598-23-21-23h-8c0 .675-5.294 2-6 2 0 7.242-2 14.86-2 22.5 0 1.689.198 7.5 2 7.5 2.131 0 12 1.529 12 4l3 1Z"/><path fill="#CCCCCA" id="mcp" d="M302 229v1l1-2h-1v1Z"/><path fill="#FF9B88" id="P" d="m171 229 2 3c-1.577 0-2-1.762-2-3Z"/><path fill="#C9C9CB" id="ll" d="M301 230h1v-1l-1 1Z"/><path fill="#FF9B88" id="P" d="m285 230-1 1 1-1Z"/><path fill="#CCCCCA" id="mcp" d="m302 230-1 1v-1h1Z"/><path fill="#CACACB" id="sV" d="M154 257c0 3.338-5 4.326-5 6-10.809 0-23.257-.015-29-11.5-1.868-3.736-.684-20.5 5-20.5 4.368 0 8.475 2 10 2 0 4.58 19 20.74 19 24Z"/><path fill="#C9C9CB" id="ll" d="M155 232h1l-1-1v1Z"/><path fill="#FF9B88" id="P" d="m284 231-1 2 1-2Z"/><path fill="#CACACB" id="sV" d="M303 257c0 3.817 5 4.633 5 6 9.245 0 21.733 1.034 27-9.5 2.207-4.413 4.459-22.5-4-22.5-3.301 0-7.523 2-9 2l-5 5.5-10 14c-.962 1.925-4 1.665-4 4.5Z"/><path fill="#CCCCCA" id="mcp" d="M156 232v1l-1-1h1Z"/><path fill="#C9C9CB" id="ll" d="M300 233h1v-1l-1 1ZM156 234h1l-1-1v1Z"/><path fill="#FF9B88" id="P" d="m173 233 2 3c-1.577 0-2-1.762-2-3Z"/><path fill="#CCCCCA" id="mcp" d="M300 234v1l1-2h-1v1ZM157 234v2l-1-2h1Z"/><path fill="#FF9B88" id="P" d="m283 234-1 1 1-1Z"/><path fill="#C9C9CB" id="ll" d="M299 235h1v-1l-1 1Z"/><path fill="#CACCC8" id="ml" d="m219 235-1 6.5v5c6.744 13.487 11.873-11.5 1-11.5ZM235 235l-4 5.5c-.904 1.809-.012 12.256 3.5 10.5 4.718-2.359 6.603-16 .5-16Z"/><path fill="#CCCCCA" id="mcp" d="m300 235-1 2v-2h1Z"/><path fill="#FF9B88" id="P" d="m282 236-1 1 1-1Z"/><path fill="#CCCCCA" id="mcp" d="M157 237c1.353 0 2 4.643 2 6-1.353 0-2-4.643-2-6Z"/><path fill="#FF9B88" id="P" d="m281 238-1 2 1-2Z"/><path fill="#CCCCCA" id="mcp" d="M299 238c-1.473 0-1 1.952-1 3 1.473 0 1-1.952 1-3Z"/><path fill="#FEAD6F" id="POR" d="M279 262c0 1.712 2.571 3 4 3 0 1.947 3.428 3.644 2 6.5-7.34 14.679-17.948-1.103-13-11 .613-1.226.926-6.5 3.5-6.5 1.05 0 .842 6 2.5 6v1l1 1ZM174 265h1l1-1 1-1 1-1v-1l1-2v-1c1.723 0 .393-4.553 3.5-3 6.888 3.444.257 39.013-11.5 15.5-1.722-3.443 3-3.168 3-5.5Z"/><path fill="#FF9B88" id="P" d="m179 259-1 2 1-2Z"/><path fill="#C8C7CC" id="cst" d="m210 265-5.5 4c-3.127 1.563-5.202-2-6.5-2l-1-3.5c2.655-5.31 14-6.468 14 .5l-1 1ZM249 267c2.099 0 4.383 3.558 7.5 2l2.5-2c0-8.469-13-11.453-13-2l2 1 1 1Z"/><path fill="#FFB885" id="PG" d="M225 260c-4.032 0-9.88 4-12 4 0 2.984-3.528 6.443-2 9.5.86 1.72 3.7-.1 4.5-.5 4.874-2.437 9.5-7.422 9.5-13ZM231 260c2.131 0 12 1.529 12 4 0 2.811 4.292 6.916 3 9.5-1.356 2.713-6.031-1.031-7-2-3.185-3.185-8-5.54-8-11.5Z"/><path fill="#CCCCCA" id="mcp" d="M159 261c0 1.93 1.93 0 0 0Z"/><path fill="#FF9B88" id="P" d="m278 261 1 1-1-1ZM178 262l-1 1 1-1ZM176 264l-1 1 1-1Z"/><path fill="#FEBA85" id="TRN" d="m211 264-1 1 1-1ZM248 266l1 1-1-1Z"/></svg>