<svg xmlns="http://www.w3.org/2000/svg" viewBox="0 0 456 320"><path fill="#1BA696" id="RSPagl1" d="M171 15h1c5.366 0 8.763-2 14-2l-1-6c-5.211 0-8.527 2-14 2v6Z"/><path fill="#1BA598" id="RSPd1" d="M217 19h1l2-3c0-10.27-27.784-9-35-9l1 6 5.5-2c4.8-2.4 25.5 2.835 25.5 8ZM236 17l3 1 2.5-3 9-3c6.6-3.3 14.398 1 20.5 1V7c-12.246 0-23.833-1.667-32 6.5l-3 3.5Z"/><path fill="#1BA696" id="RSPagl1" d="M271 13c5.237 0 8.634 2 14 2l1-6c-5.794 0-9.329-2-15-2v6Z"/><path fill="#09848B" id="VISam1" d="m136 19 1 4c8.498 0 16.597-6 25.5-6 1.392 0 8.5-.833 8.5-2V9c-3.498 0-24.208 5.354-27.5 7-1.401.7-7.5 1.04-7.5 3ZM321 19l-2 4c-4.154 0-8.969-2.234-12.5-4-2.833-1.417-17.567-3-21.5-3v-1l1-6c1.761 0 25.594 6.047 27.5 7 1.401.7 7.5 1.04 7.5 3Z"/><path fill="#1BA697" id="RSPd2/3" d="M213 23h1l3-4c0-5.165-20.7-10.4-25.5-8l-5.5 2v7c3.494 0 27-5.195 27 3ZM271 20c-4.564 0-12.71-4.395-17.5-2-1.839.92-4.266.133-6 1l-4.5 3-4-3v-1l2.5-3 9-3c6.6-3.3 14.398 1 20.5 1v7Z"/><path fill="#1AA496" id="RSPagl2/3" d="M173 23v2l13-5v-7c-5.237 0-8.634 2-14 2l1 8ZM284 23l-1 2c-3.908 0-7.837-5-12-5v-7c5.237 0 8.634 2 14 2v1l-1 7Z"/><path fill="#0B848A" id="VISam2/3" d="M138 33h1c9.525 0 23.684-10 34-10l-1-8h-1c0 1.167-7.108 2-8.5 2-8.903 0-17.002 6-25.5 6v1c1.934 0-1 1.323-1 2.5l2 6.5Z"/><path fill="#1BA597" id="RSPv1" d="M235 80h2l-5-13.5c-1.356-2.713-.253-34.495 1-37 1.027-2.053 2.672-10.5 6-10.5v-1l-3-1-7.5 12-8.5-13-2 3c1.838 0 4.235 7.97 5 9.5 1.878 3.757 4.15 32.7 2 37L219 80h2l1-1 6.5-13 1.5 5.5 5 8.5Z"/><path fill="#0B848A" id="VISam2/3" d="m319 24 2 1.5-3 7.5-34-10 1-7c3.933 0 18.667 1.583 21.5 3 3.531 1.766 8.346 4 12.5 4v1Z"/><path fill="#1AA596" id="RSPd5" d="M205 31c-2.498 0-6.783-4.358-9.5-3-1.839.92-4.266.133-6 1l-4.5 3 1-12c3.494 0 27-5.195 27 3l-8 8ZM251 31c1.908 0 6.651-2.076 8.5-3 2.444-1.222 9.017 3 11.5 3V20c-4.564 0-12.71-4.395-17.5-2-1.839.92-4.266.133-6 1l-4.5 3v1l8 8Z"/><path fill="#0A8589" id="VISpm1" d="m137 24-4 1-2-5 5-1 1 4v1Z"/><path fill="#1AA597" id="RSPv2/3" d="m215 78 4 2 6-14.5c2.15-4.3-.122-33.243-2-37-.765-1.53-3.162-9.5-5-9.5h-1l-3 4c3.541 0 5 11.009 5 14 0 5.706 3.512 23.476 1 28.5-1.369 2.737-.65 6.3-2 9l-3 3.5ZM241 78l-4 2-5-13.5c-1.356-2.713-.253-34.495 1-37 1.027-2.053 2.672-10.5 6-10.5l4 3v1c-4.158 0-6 10.94-6 14 0 7.816-2.753 27.993 0 33.5l4 7.5Z"/><path fill="#0A8589" id="VISpm1" d="M323 25h1l1-5c0-1.58-2.855-1-4-1l-2 4v1c1.145 0 4-.58 4 1Z"/><path fill="#098589" id="VISp1" d="m112 27 2 5c6.322 0 12.456-7 19-7l-2-5c-6.469 0-12.771 7-19 7Z"/><path fill="#1CA697" id="RSPagl5" d="m185 32-10 5-2-12 13-5-1 12ZM281 37h1l1-12c-3.908 0-7.837-5-12-5v12l10 5Z"/><path fill="#098589" id="VISp1" d="M342 32h1c0-1.465-.109-4 2-4l-4-2.5c-1.174-1.174-13.896-5.5-16-5.5l-1 5c5.821 0 12.295 7 18 7Z"/><path fill="#09858A" id="VISam4" d="M138 37h1l7.5-4c1.788-.894 25.292-8 26.5-8v-2c-10.316 0-24.475 10-34 10l-1 4Z"/><path fill="#1BA498" id="RSPv5" d="m213 77 2 1 3-3.5c1.35-2.7.631-6.263 2-9 2.512-5.024-1-22.794-1-28.5 0-2.991-1.459-14-5-14h-1l-8 8v2c3.087 0 2 6.96 2 9 0 9.86 5 18.373 5 28l1 7ZM243 77l-2 1-4-7.5c-2.753-5.507 0-25.684 0-33.5 0-3.06 1.842-14 6-14l8 8v1l-2 4.5v13c-2.482 4.965-4 12.659-4 18.5-1.473 0-1 1.952-1 3l-1 6Z"/><path fill="#09858A" id="VISam4" d="M318 33v4c-5.145 0-28.106-12-35-12l1-2 34 10Z"/><path fill="#08858B" id="VISpm2/3" d="M135 33h3l-2-6.5c0-1.177 2.934-2.5 1-2.5l-4 1c0 3.303 2 5.115 2 8ZM318 33h3c0-2.532 2-5.655 2-8 0-1.58-2.855-1-4-1l2 1.5-3 7.5Z"/><path fill="#0A828C" id="VISp2/3" d="M118 40h1c0-1.183 3.57-1.535 4.5-2 3.24-1.62 7.708-4 11.5-4v-1c0-2.885-2-4.697-2-8-6.544 0-12.678 7-19 7 0 2.409 4 4.863 4 8Z"/><path fill="#0A848B" id="VISam5" d="m138 43 1 3 7.5-3c1.686-.843 26.651-6 28.5-6l-2-12c-1.208 0-24.712 7.106-26.5 8l-7.5 4c0 2.59 2.192 6-1 6ZM318 43l-1 2c-10.709 0-24.581-8-35-8l1-12c6.894 0 29.855 12 35 12 0 .986-2.515 6 0 6Z"/><path fill="#0A828C" id="VISp2/3" d="M337 40h1l4-8c-5.705 0-12.179-7-18-7h-1c0 2.345-2 5.468-2 8v1c3.792 0 8.26 2.38 11.5 4 .93.465 4.5.817 4.5 2Z"/><path fill="#029FAB" id="VISrl1" d="M81 51h1l7-5.5c2.287-2.287 22.294-13.5 25-13.5l-2-5c-6.476 0-29.532 20-33 20l2 4Z"/><path fill="#1AA697" id="RSPd6a" d="M196 42h1c0-2.428 6.112-9 8-9v-2c-2.498 0-6.783-4.358-9.5-3-1.839.92-4.266.133-6 1l-4.5 3 1 9h2c0-2.1 8-1.1 8 1ZM260 41h10c0-2.389 1-5.987 1-9v-1c-2.483 0-9.056-4.222-11.5-3-1.849.924-6.592 3-8.5 3v1l9 9Z"/><path fill="#029FAB" id="VISrl1" d="M374 51h1l2-4-7.5-6c-5.581-2.79-17.44-13-24.5-13-2.109 0-2 2.535-2 4l7.5 4c3.197 1.599 23.5 12.745 23.5 15Z"/><path fill="#029EAC" id="VISrl2/3" d="M82 51c3.101 0 2.544 5 6 5 5.231 0 23.353-16 30-16 0-3.137-4-5.591-4-8-2.706 0-22.713 11.213-25 13.5L82 51Z"/><path fill="#1CA597" id="RSPagl6a" d="M177 45h1c0-1.638 3.576-2 5-2l3-2-1-9-10 5c0 3.091 2 5.478 2 8Z"/><path fill="#1AA498" id="RSPv6a" d="m247 66-2 2c0-5.841 1.518-13.535 4-18.5v-13l2-4.5 9 9v1l-1 2c-1.638 0-2 3.576-2 5l-1 2c0 5.622-9 9.911-9 15Z"/><path fill="#1CA597" id="RSPagl6a" d="m270 41 9 3c2.273 0 2-5.226 2-7l-10-5c0 3.013-1 6.611-1 9Z"/><path fill="#029EAC" id="VISrl2/3" d="M368 56h1l5-5c0-2.255-20.303-13.401-23.5-15l-7.5-4h-1l-4 8c6.527 0 25.617 16 30 16Z"/><path fill="#09828B" id="VISpm4" d="M137 37h1l1-4h-4v1l2 3Z"/><path fill="#1AA498" id="RSPv6a" d="m209 66 3 4c0-9.627-5-18.14-5-28 0-2.04 1.087-9-2-9-1.888 0-8 6.572-8 9 0 1.38 5.245 9 3 9 0 5.29 9 9.526 9 15Z"/><path fill="#09828B" id="VISpm4" d="M318 37h2l1-3v-1h-3v4Z"/><path fill="#0B848B" id="VISp4" d="m119 40 2 4c5.218 0 10.444-6 16-6v-1l-2-3c-3.792 0-8.26 2.38-11.5 4-.93.465-4.5.817-4.5 2ZM337 40c0 1.238-.423 3-2 3-5.499 0-9.745-5-15-5v-1l1-3c3.792 0 8.26 2.38 11.5 4 .93.465 4.5.817 4.5 2Z"/><path fill="#088489" id="VISpm5" d="m137 38 1 5c3.192 0 1-3.41 1-6h-2v1Z"/><path fill="#0A828B" id="VISam6a" d="M141 52h1c0-1.758 7.103-2.301 8.5-3 6.102-3.051 19.58-4 26.5-4 0-2.522-2-4.909-2-8-1.849 0-26.814 5.157-28.5 6l-7.5 3c0 1.974 2 3.517 2 6ZM316 51l-1 1-10.5-4-25.5-3v-1c2.273 0 2-5.226 2-7h1c10.419 0 24.291 8 35 8v1l-1 5Z"/><path fill="#088489" id="VISpm5" d="m320 38-2 5c-2.515 0 0-5.014 0-6h2v1Z"/><path fill="#088389" id="VISp5" d="M125 51h1c4.089 0 8.422-5 13-5l-1-3-1-5c-5.556 0-10.782 6-16 6 0 1.554 4 4.235 4 7ZM330 51h1c0-2.541 5-5.022 5-7l-1-1c-5.499 0-9.745-5-15-5l-2 5-1 2v1c4.578 0 8.911 5 13 5Z"/><path fill="#019EAA" id="VISrl4" d="m88 57 5 4 8.5-8c5.141-2.57 13.638-9 19.5-9l-2-4h-1c-6.647 0-24.769 16-30 16v1Z"/><path fill="#1BA698" id="RSPd6b" d="M196 42v1c-1.996 0-4.985-2-8-2 0-2.1 8-1.1 8 1ZM261 42h9v-1h-10v1h1Z"/><path fill="#019EAA" id="VISrl4" d="M363 61h1c.828 0 4-3.748 4-5-4.383 0-23.473-16-30-16h-1c0 1.238-.423 3-2 3l1 1c6.877 0 15.507 8.004 21.5 11l5.5 6Z"/><path fill="#1AA598" id="RSPagl6b" d="M187 42c0 1.58-2.855 1-4 1l3-2h1v1Z"/><path fill="#1BA698" id="RSPd6b" d="m188 41-1 1v-1h1Z"/><path fill="#CACCC7" id="cing" d="M200 51c0 5.29 9 9.526 9 15-6.809 0-14.443-15.471-21.5-19-1.557-.779-21.568 3-26.5 3v-1c5.017 0 10.848-3 16-3l1-1c1.424 0 5-.362 5-2 1.145 0 4 .58 4-1l1-1c3.015 0 6.004 2 8 2l4 8ZM256 51c0 5.622-9 9.911-9 15 8.37 0 12.574-14.037 18.5-17 7.924-3.962 19.608 1 29.5 1l1-1c-.835 0-14.838-1.67-15.5-2l-1.5-2c-1.853 0-9-1.318-9-3h-9l-2 2c0 1.424-.362 5-2 5l-1 2Z"/><path fill="#1AA598" id="RSPagl6b" d="M279 44v1c-1.853 0-9-1.318-9-3v-1l9 3Z"/><path fill="#1AA497" id="RSPv6b" d="m196 43 4 8c2.245 0-3-7.62-3-9h-1v1ZM261 42l-2 2 1-2h1Z"/><path fill="#1AA598" id="RSPagl6b" d="M183 43c-1.424 0-5 .362-5 2 1.424 0 5-.362 5-2Z"/><path fill="#019DAB" id="VISrl5" d="M99 67h2c0-3.63 24-14.88 24-16 0-2.765-4-5.446-4-7-5.862 0-14.359 6.43-19.5 9L93 61v1c1.723 0 6 3.538 6 5Z"/><path fill="#1AA497" id="RSPv6b" d="M259 44c-1.638 0-2 3.576-2 5 1.638 0 2-3.576 2-5Z"/><path fill="#019DAB" id="VISrl5" d="M356 67h1l6-6-5.5-6c-5.993-2.996-14.623-11-21.5-11 0 1.978-5 4.459-5 7 0 .845 25 13.317 25 16Z"/><path fill="#08838A" id="VISam6b" d="M142 52v1l11-4h8c5.017 0 10.848-3 16-3v-1c-6.92 0-20.398.949-26.5 4-1.397.699-8.5 1.242-8.5 3Z"/><path fill="#1AA598" id="RSPagl6b" d="m178 45-1 1v-1h1Z"/><path fill="#08838A" id="VISam6b" d="M315 52v1l-12-4h-7c-.835 0-14.838-1.67-15.5-2l-1.5-2 25.5 3 10.5 4Z"/><path fill="#08858C" id="VISp6a" d="M129 57h1c0-1.802 9.131-5 11-5 0-2.483-2-4.026-2-6-4.578 0-8.911 5-13 5l3 6ZM326 57h1l3-6c-4.089 0-8.422-5-13-5l-1 5v1l10 5Z"/><path fill="#188060" id="SSp-bfd1" d="M69 61h1c0-4.416 11-6.886 11-10l-2-4-12 10 2 4Z"/><path fill="#C8C9CA" id="fp" d="M73 137h1v-1l1-2v-2l1-1 1-1c0-1.623.005-6 2-6 0-1.622-.46-5 2-5 0-1.424.362-5 2-5 0-1.465-.109-4 2-4 0-1.465-.109-4 2-4 0-1.238.423-3 2-3l1-2 1-2c0-1.747.253-2 2-2l1-2 1-1 1-1c0-1.429 1.288-4 3-4l1-1 1-1c0-1.747.253-2 2-2l1-1 1-1 1-1 1-1 2-2 2-1 1-1 1-1 2-1 1-1 1-1h1l1-1 2-1c0-1.577 1.762-2 3-2 0-1.577 1.762-2 3-2l2-1 2-1 2-1 2-1 2-1 2-1h1c0-2.109 2.535-2 4-2h1c0-1.995 4.377-2 6-2h1c0-2.669 15-2.669 15 0h2c0-4.591 9.523-.989 11.5 0 6.204 3.102 10.87 8.935 17 12l5.5 2.5c1.375 2.75 2 4.105 2 7.5h6l2-2-1-7-3-4c-6.809 0-14.443-15.471-21.5-19-1.557-.779-21.568 3-26.5 3 0 1.684-4.679 1-6 1 0 2.44-7.862 2.18-9.5 3-8.898 4.45-18.025 8.513-27 13C95.083 78.709 73 111.725 73 137ZM381 133l2 2c0-24.178-23.614-57.557-44.5-68-9.199-4.6-18.872-8.436-28-13-1.655-.827-8.5-.204-8.5-3-1.406 0-7 .714-7-1-9.892 0-21.576-4.962-29.5-1-5.926 2.963-10.13 17-18.5 17l-2 2c0 1.048.473 3-1 3l-1 6 2 2h7c0-9.255 8.247-11.874 16.5-16l9-7c1.559-.78 10.5-2.704 10.5 1h1c0-1.956 15-3.351 15 0h1c2.449 0 11 .995 11 4h1c5.885 0 12.399 6.45 17.5 9 24.226 12.113 31.608 30.715 42.5 52.5 1.403 2.806 4 7.305 4 10.5Z"/><path fill="#188060" id="SSp-bfd1" d="M387 61h1l2-3-10.5-9-2.5-2-2 4 12 10Z"/><path fill="#CBC9C7" id="or" d="M64 158c0 5.555-1.603 13 5 13 3.01 0 1-10.493 1-14v-4l1-2v-3l1-9 1-1v-1c0-25.275 22.083-58.291 45.5-70 8.975-4.487 18.102-8.55 27-13 1.638-.82 9.5-.56 9.5-3l-2-2-11 4h-1l-11 5-4 1c0 1.948-5.428 4-7 4 0 1.807-9.943 8-12 8 0 2.422-8.023 8-10 8 0 1.63-4.37 6-6 6 0 1.747-.253 2-2 2 0 1.463-3.486 7-5 7l-9 16-2 3c0 3.303-2 5.115-2 8 1.473 0 1 1.952 1 3l-1 1v2l-1 1v1l-1 1v2l-1 2c0 1.048.473 3-1 3 0 4.414-1 9.177-1 13 0 1.775-.07 8-2 8Z"/><path fill="#C9C9CA" id="scwm" d="M161 50c0 1.684-4.679 1-6 1l-2-2h8v1Z"/><path fill="#1AA497" id="RSPv6b" d="m257 49-1 2 1-2Z"/><path fill="#C9C9CA" id="scwm" d="M295 50c0 1.714 5.594 1 7 1l1-2h-7l-1 1Z"/><path fill="#CBC9C7" id="or" d="M392 158c0 4.018 1.814 14-4 14 0-1.448-3.736-5.027-2-8.5.446-.893 2.453-6.5 0-6.5v-7l-1-2v-3c0-2.124-1-4.436-1-6 0-1.048.473-3-1-3v-1c0-24.178-23.614-57.557-44.5-68-9.199-4.6-18.872-8.436-28-13-1.655-.827-8.5-.204-8.5-3l1-2 12 4 3 1 1 1 7 2c0 1.186 4.408 3.454 5.5 4 3.061 1.53 15.541 10 17.5 10l16 14c0 1.125 5.835 9 8 9l9 17c0 3.522 3 6.079 3 10v5l1 1v1l1 1v2l2 4v1l1 14c0 .822 1.311 8 2 8Z"/><path fill="#187F63" id="SSp-bfd2/3" d="M75 67h1c0-2.538 9.905-10 12-10v-1c-3.456 0-2.899-5-6-5h-1c0 3.114-11 5.584-11 10l5 6Z"/><path fill="#029EAB" id="VISrl6a" d="M105 71h1c0-.503 10.897-8 13-8 0-1.948 5.428-4 7-4 0-1.577 1.762-2 3-2l-3-6h-1c0 1.12-24 12.37-24 16 0 3.234 4 .959 4 4Z"/><path fill="#009DAC" id="VISa6a" d="M315 52h1v-1l-1 1Z"/><path fill="#029EAB" id="VISrl6a" d="M350 71h2l4-4c0-2.683-25-15.155-25-16h-1l-3 6c2.6 0 23 12.538 23 14Z"/><path fill="#187F63" id="SSp-bfd2/3" d="m387 61-6 6-12-11 5-5h1l12 10Z"/><path fill="#08858A" id="VISp6b" d="M130 57v1l11-5v-1c-1.869 0-11 3.198-11 5Z"/><path fill="#029FAC" id="VISa6b" d="M141 53h1v-1h-1v1Z"/><path fill="#08858A" id="VISp6b" d="m319 55 7 2-10-5h-1v1l3 1 1 1Z"/><path fill="#C9C9CA" id="scwm" d="m318 54 1 1-1-1Z"/><path fill="#C7C8CC" id="alv" d="M152 57h15c0-2.669-15-2.669-15 0Z"/><path fill="#C9CCC9" id="dhc" d="M202 79h3c0-3.395-.625-4.75-2-7.5l-5.5-2.5c-6.13-3.065-10.796-8.898-17-12-1.977-.989-11.5-4.591-11.5 0l4 2h1c4.989 0 13.597 10.695 15 13.5l6 4.5h1l4 2h2ZM255 79h2l2-1 2-1h1l1-1 1-1h1c0-1.747.253-2 2-2l2-2 2-2 2-2c0-2.356 5.721-7 8-7l2-1 2-1 2-1h1c0-3.704-8.941-1.78-10.5-1l-9 7c-8.253 4.126-16.5 6.745-16.5 16h3Z"/><path fill="#C7C8CC" id="alv" d="M289 57h15c0-3.351-15-1.956-15 0Z"/><path fill="#197C64" id="SSp-bfd4" d="M376 72h1l4-4v-1l-12-11h-1c0 1.252-3.172 5-4 5l12 11Z"/><path fill="#1A7E62" id="SSs1" d="m58 66 3 2 8-7-2-4-9 9Z"/><path fill="#197C64" id="SSp-bfd4" d="M79 72h1c5.006 0 7.566-10 13-10v-1l-5-4c-2.095 0-12 7.462-12 10 0 2.364 3 3.053 3 5Z"/><path fill="#009DAA" id="VISrl6b" d="m130 58-4 1c0-1.577 1.762-2 3-2h1v1Z"/><path fill="#C7C8CC" id="alv" d="M151 57c-1.623 0-6 .005-6 2 1.357 0 6-.647 6-2Z"/><path fill="#7ECF4B" id="CA1" d="M77 131v2c.567 0 8.805-10.652 11.5-12 8.485-4.242 17.543-15 27.5-15 0-4.953 6.019-7.52 9-10.5 5.617-5.617 30.936-18.782 39.5-14.5 1.879.94 20.383 10 20.5 10l2-19-13-13h-1l-4-2h-18c0 1.353-4.643 2-6 2h-1l-4 2h-1l-2 1-2 1-2 1-2 1-2 1-2 1c0 1.577-1.762 2-3 2 0 1.577-1.762 2-3 2l-2 1-1 1h-1l-1 1-1 1-2 1-1 1-1 1-2 1c0 1.747-.253 2-2 2l-1 1-1 1-1 1-1 1-2 2-1 1-1 1c0 1.429-1.288 4-3 4l-1 1-1 1-1 2-2 2-1 2-1 2c0 1.238-.423 3-2 3l-2 4c0 1.465.109 4-2 4 0 1.424-.362 5-2 5 0 1.424-.362 5-2 5 0 1.357-.647 6-2 6v1Z"/><path fill="#C7C8CC" id="alv" d="m169 57 4 2-4-2ZM287 57l-2 1 2-1Z"/><path fill="#7ECF4B" id="CA1" d="M340 106c12.167 0 22.973 14.237 32.5 19l7.5 9c0-12.69-23.564-51.032-35.5-57l-20-12-7.5-4h-1c-1.239 0-11-3.482-11-4h-18l-2 1-2 1-2 1c0 2.073-6.148 7-8 7 0 1.747-.253 2-2 2 0 1.747-.253 2-2 2v2c0 5.832 3 12.253 3 18 .333 0 14.705-8.102 16.5-9 12.412-6.206 29.276 6.138 39 11 4.085 2.043 12.5 7.512 12.5 13Z"/><path fill="#C7C8CC" id="alv" d="M305 57c2.449 0 11 .995 11 4-1.239 0-11-3.482-11-4Z"/><path fill="#009DAA" id="VISrl6b" d="M349 71h1c0-1.462-20.4-14-23-14h-1c0 1.186 4.408 3.454 5.5 4 3.061 1.53 15.541 10 17.5 10Z"/><path fill="#C7C8CC" id="alv" d="m285 58-2 1 2-1Z"/><path fill="#1A7E62" id="SSs1" d="m398 65-3 3-7-7 2-3c3.713 0 5.227 7 8 7Z"/><path fill="#009DAA" id="VISrl6b" d="M126 59c-1.572 0-7 2.052-7 4 1.572 0 7-2.052 7-4Z"/><path fill="#C7C8CC" id="alv" d="M144 59c-1.465 0-4-.109-4 2l4-2ZM193 77h2l-6-4.5c-1.403-2.805-10.011-13.5-15-13.5l13 13 6 5ZM283 59l-2 1 2-1ZM281 60c-2.279 0-8 4.644-8 7 1.852 0 8-4.927 8-7Z"/><path fill="#1B8063" id="SSs2/3" d="M61 69c2 0 3.16 6 7 6 1.27 0 7-6.593 7-8l-5-6h-1l-8 7v1Z"/><path fill="#C7C8CC" id="alv" d="m139 61-2 1 2-1ZM346 221c-1.461 0-17.532 12-27 12 0-2.201 18.123-6.746 20-10.5l9.5-9.5 11-12c13.568-6.784 23.5-24.613 23.5-40 1.638 0 1.638-12 0-12v-2c0-4.885-3-8.723-3-13 0-12.69-23.564-51.032-35.5-57l-20-12-7.5-4c5.885 0 12.399 6.45 17.5 9 24.226 12.113 31.608 30.715 42.5 52.5 1.403 2.806 4 7.305 4 10.5 0 1.041.986 5 2 5v1c0 1.357.647 6 2 6v5l1 1v6c0 15.605-6.904 30.404-18 41.5-3.49 3.49-22 19.614-22 22.5Z"/><path fill="#1A7D62" id="SSp-bfd5" d="M376 72c0 1.901-4.099 6-6 6-2.101 0-8.163-6.663-10-8.5l-3-2.5 6-6h1l12 11Z"/><path fill="#1B8063" id="SSs2/3" d="m395 69-6 6-8-7v-1l6-6h1l7 7v1Z"/><path fill="#1A7D62" id="SSp-bfd5" d="M86 79h1c0-4.917 12-7.462 12-12 0-1.462-4.277-5-6-5-5.434 0-7.994 10-13 10l6 7Z"/><path fill="#C7C8CC" id="alv" d="m137 62-2 1 2-1Z"/><path fill="#009DAA" id="VISrl6b" d="M106 71h1c2.057 0 12-6.193 12-8-2.103 0-13 7.497-13 8Z"/><path fill="#C7C8CC" id="alv" d="m135 63-2 1 2-1ZM133 64l-2 1 2-1ZM131 65l-2 1 2-1Z"/><path fill="#039399" id="AUDd1" d="M410 89h1l4-3c0-3.946-10.506-15.503-13.5-17l-3.5-4-3 3v1c1.966 0 15 18.326 15 20ZM45 89h1c0-1.852 13.764-20 15-20v-1l-3-2c-1.5 0-17 18.564-17 20 1.717 0 4 1.252 4 3Z"/><path fill="#C7C8CC" id="alv" d="m129 66-2 1 2-1Z"/><path fill="#187C63" id="SSs4" d="m68 76 3 3c1.518 0 8-5.218 8-7 0-1.947-3-2.636-3-5h-1c0 1.407-5.73 8-7 8v1Z"/><path fill="#198060" id="SSp-bfd6a" d="M97 79c-2.773 0-3.67 4-6 4-1.634 0-4-2.635-4-4 0-4.917 12-7.462 12-12h2c0 3.234 4 .959 4 4l-8 8Z"/><path fill="#C7C8CC" id="alv" d="M127 67c-1.238 0-3 .423-3 2 1.238 0 3-.423 3-2ZM273 67l-2 2c1.747 0 2-.253 2-2Z"/><path fill="#198060" id="SSp-bfd6a" d="M365 84h1l4-5v-1c-2.101 0-8.163-6.663-10-8.5l-3-2.5h-1l-4 4 13 13Z"/><path fill="#1AA498" id="RSPv6a" d="M245 68c-1.473 0-1 1.952-1 3 1.473 0 1-1.952 1-3Z"/><path fill="#187C63" id="SSs4" d="M389 76c-2.618 0-1.651 3-4 3l-8-7 4-4 8 7v1Z"/><path fill="#029397" id="AUDd2/3" d="M46 89c0 1.097 5.986 5 7 5l4-4.5C58.177 87.147 65.075 76 68 76v-1c-3.84 0-5-6-7-6-1.236 0-15 18.148-15 20Z"/><path fill="#C7C8CC" id="alv" d="M124 69c-1.238 0-3 .423-3 2 1.238 0 3-.423 3-2ZM271 69l-2 2c1.747 0 2-.253 2-2Z"/><path fill="#029397" id="AUDd2/3" d="M410 89c0 1.514-5.537 5-7 5 0-4.511-14-14.571-14-18v-1l6-6c1.966 0 15 18.326 15 20Z"/><path fill="#1A7E61" id="SSp-bfd6b" d="M107 71c0 2.422-8.023 8-10 8l8-8h2Z"/><path fill="#C7C8CC" id="alv" d="m121 71-2 1 2-1ZM267 73h2v-2l-2 2Z"/><path fill="#1A7E61" id="SSp-bfd6b" d="M365 84v1l-16-14h3l13 13Z"/><path fill="#1C8063" id="SSs5" d="M78 88h1l7-9-6-7h-1c0 1.782-6.482 7-8 7v1l7 8Z"/><path fill="#C7C8CC" id="alv" d="m119 72-1 1 1-1Z"/><path fill="#57B947" id="ProS" d="M191 95h1l1-18-6-5-2 19v1l1 1h1l4 2Z"/><path fill="#1C8063" id="SSs5" d="M377 88h1l7-8v-1l-8-7h-1c0 1.901-4.099 6-6 6v1c1.821 0 7 7.338 7 9Z"/><path fill="#C7C8CC" id="alv" d="m117 73-1 1 1-1ZM267 73c-1.747 0-2 .253-2 2l2-2Z"/><path fill="#57B947" id="ProS" d="M265 95h1l4-2 2-2c0-5.747-3-12.168-3-18h-2l-2 2h-1l-1 1v1c0 5.669 2 12.129 2 18Z"/><path fill="#C7C8CC" id="alv" d="m116 74-1 1 1-1ZM115 75l-2 1 2-1ZM264 75l-1 1 1-1Z"/><path fill="#039398" id="AUDd4" d="m53 95 3 1 3.5-4L71 80v-1l-3-3c-2.925 0-9.823 11.147-11 13.5L53 94v1Z"/><path fill="#C7C8CC" id="alv" d="m113 76-1 1 1-1ZM262 77h1v-1l-1 1Z"/><path fill="#039398" id="AUDd4" d="m403 95-3 1c-1.184 0-12.879-16-15-16v-1c2.349 0 1.382-3 4-3 0 3.429 14 13.489 14 18v1Z"/><path fill="#C7C8CC" id="alv" d="m112 77-1 1 1-1Z"/><path fill="#4FC244" id="SUB" d="M218 87c0 12.013-18.397 8-26 8l1-18h3c0 2.109 2.535 2 4 2h2c0 1.763 8.343 1 10 1 5.156 0 6 2.214 6 7Z"/><path fill="#C7C8CC" id="alv" d="m196 77 4 2c-1.465 0-4 .109-4-2Z"/><path fill="#7DCD4B" id="HPF" d="M221 80c0 1.489-1.835 7-3 7 0-4.786-.844-7-6-7l-1-1 2-2 2 1 4 2h2Z"/><path fill="#A8A9AA" id="V3" d="M221 86c4.024 0 4.042 1.77 6.5 3l4-3 4.5 1c0-11.19-15-13.411-15-1Z"/><path fill="#7DCD4B" id="HPF" d="M245 80c-4.466 0-7 1.18-7 6l-3-6h2l4-2 2-1 2 2v1Z"/><path fill="#C7C8CC" id="alv" d="m261 77-2 1 2-1Z"/><path fill="#4FC244" id="SUB" d="M238 86c0 13.617 19.381 9 27 9 0-5.871-2-12.331-2-18h-2l-2 1-2 1h-2c0 1.763-8.343 1-10 1-4.466 0-7 1.18-7 6Z"/><path fill="#C7C8CC" id="alv" d="m111 78-2 1 2-1ZM259 78l-2 1 2-1Z"/><path fill="#197D63" id="SSs6a" d="M79 88c0 1.562 2.189 5 4 5l6-6c0-1.747.253-2 2-2v-2c-1.634 0-4-2.635-4-4h-1l-7 9Z"/><path fill="#1A7E61" id="SSp-bfd6b" d="M91 83v2c1.63 0 6-4.37 6-6-2.773 0-3.67 4-6 4Z"/><path fill="#C7C8CC" id="alv" d="m109 79-2 2c1.747 0 2-.253 2-2ZM211 79l1 1c-1.657 0-10 .763-10-1h9Z"/><path fill="#7DCD4B" id="HPF" d="m222 79-1 1 1-1Z"/><path fill="#C7C8CC" id="alv" d="M255 79c0 1.763-8.343 1-10 1v-1h10Z"/><path fill="#197D63" id="SSs6a" d="M373 93h1c1.077 0 3-3.762 3-5 0-1.662-5.179-9-7-9l-4 5 7 9Z"/><path fill="#029398" id="AUDd5" d="M67 105h1c0-6.326 10-11.03 10-17l-7-8-11.5 12-3.5 4v1l11 8ZM400 97c-4.215 0-6.379 7-11 7-2.092 0-7.039-10.577-8-12.5l-3-3.5 7-8c2.121 0 13.816 16 15 16v1Z"/><path fill="#C7C8CC" id="alv" d="m107 81-1 1 1-1Z"/><path fill="#7BD04A" id="DG-mo" d="M143 112h1l1-1h4l1-1h3c0-1.473 1.952-1 3-1 0-1.92 9.104-4 11-4 0-1.473 1.952-1 3-1h1l2-1h2c0-2.773 12-2.174 12-8v-2h-1l-1-1v-1c-.117 0-18.621-9.06-20.5-10-8.564-4.282-33.883 8.883-39.5 14.5-2.981 2.98-9 5.547-9 10.5l2 2h5c0-4.845 8.322-7.411 11.5-9 9.533-4.766 24.829-15.086 37-9 2.072 1.036 5.091-.317 6.5 2.5 1.149 2.298-2.21 2.855-3.5 3.5h-6l-15 5c-2.029 1.015-12.5 7.79-12.5 7-1.473 0-1 1.952-1 3l1 1h2ZM314 112h2v-3l-13.5-8c-5.461-2.73-12.44-5-19-5-1.114 0-5.5-.89-5.5-2.5 0-5.06 12.202-4.5 16-4.5 12.249 0 21.37 6.935 31.5 12 2.451 1.226 8.5 3.687 8.5 7h5l1-2c0-5.488-8.415-10.957-12.5-13-9.724-4.862-26.588-17.206-39-11-1.795.898-16.167 9-16.5 9l-2 2-1 2v1l1 1 3.5 3c1.433.716 7.5.838 7.5 3h3c2.099 0 16 5.133 16 6h1c1.048 0 3-.473 3 1h2l1 1h4l1 1h2Z"/><path fill="#C7C8CC" id="alv" d="m106 82-1 1 1-1ZM105 83l-1 1 1-1ZM104 84l-1 1 1-1Z"/><path fill="#1A8061" id="SSs6b" d="M373 93v1c-2.165 0-8-7.875-8-9v-1h1l7 9ZM91 85c-1.747 0-2 .253-2 2 1.747 0 2-.253 2-2Z"/><path fill="#C7C8CC" id="alv" d="M103 85c-1.747 0-2 .253-2 2l2-2Z"/><path fill="#029297" id="AUDp1" d="m23 131 5 1c0-8.311 3.464-19.428 7-26.5 2.346-4.691 10-11.192 10-16.5 0-1.748-2.283-3-4-3-2.403 0-6.072 8.643-7 10.5-5.276 10.552-11 21.852-11 34.5Z"/><path fill="#A9AAA8" id="chpl" d="m233 95-2 1-8-1c-5.623 0-2-6.162-2-9 4.024 0 4.042 1.77 6.5 3l4-3 4.5 1c0 2.809 2.77 8-3 8Z"/><path fill="#029297" id="AUDp1" d="m434 131-5 1c0-9.795-5.807-22.114-10-30.5-1.824-3.648-8-8.353-8-12.5l4-3c2.315 0 5.168 6.835 6 8.5 5.417 10.835 13 23.693 13 36.5Z"/><path fill="#1A8061" id="SSs6b" d="M83 94h1c1.514 0 5-5.537 5-7l-6 6v1Z"/><path fill="#C7C8CC" id="alv" d="m101 87-1 1 1-1Z"/><path fill="#019399" id="AUDd6a" d="M68 105c0 1.617 4.583 4 6 4 0-1.796 7.914-15 9-15v-1c-1.811 0-4-3.438-4-5h-1c0 5.97-10 10.674-10 17Z"/><path fill="#C7C8CC" id="alv" d="m100 88-1 1 1-1Z"/><path fill="#019399" id="AUDd6a" d="m389 106-6 3-2-3.5c-1.746-3.492-7-8.527-7-12.5 1.077 0 3-3.762 3-5h1l3 3.5c.961 1.923 5.908 12.5 8 12.5v2Z"/><path fill="#019298" id="AUDp2/3" d="m28 132 7 1c0-9.672 5.64-24.139 12.5-31l5.5-7v-1c-1.014 0-7-3.903-7-5h-1c0 5.308-7.654 11.809-10 16.5-3.536 7.072-7 18.189-7 26.5Z"/><path fill="#C7C8CC" id="alv" d="M99 89c-1.712 0-3 2.571-3 4 1.712 0 3-2.571 3-4Z"/><path fill="#65A83D" id="DG-sg" d="M123 108c0-4.845 8.322-7.411 11.5-9 9.533-4.766 24.829-15.086 37-9 2.072 1.036 5.091-.317 6.5 2.5 1.149 2.298-2.21 2.855-3.5 3.5h-6l-15 5c-2.029 1.015-12.5 7.79-12.5 7l1-3 8.5-6 6-2 9.5-3.5-9-.5c-2.84 0-21 8.023-21 10-5.004 0-7.681 5-13 5ZM334 108c0-3.313-6.049-5.774-8.5-7-10.13-5.065-19.251-12-31.5-12-3.798 0-16-.56-16 4.5 0 1.61 4.386 2.5 5.5 2.5 6.56 0 13.539 2.27 19 5l13.5 8-2-5-7.5-5-7-2-9.5-3.5 9-.5c3.311 0 22 8.178 22 10 4.779 0 7.819 5 13 5Z"/><path fill="#019298" id="AUDp2/3" d="m429 132-8 1c0-12.193-6.945-20.389-12-30.5-1.117-2.234-3.325-7.5-6-7.5v-1c1.463 0 7-3.486 7-5h1c0 4.147 6.176 8.852 8 12.5 4.193 8.386 10 20.705 10 30.5Z"/><path fill="#7DCD4B" id="HPF" d="m185 92 1 1-1-1Z"/><path fill="#C7C8CC" id="alv" d="m96 93-1 1 1-1Z"/><path fill="#7ECE4A" id="DG-po" d="M136 103c1.745 0 6-.698 6 2l8.5-6 6-2 9.5-3.5-9-.5c-2.84 0-21 8.023-21 10Z"/><path fill="#7DCD4B" id="HPF" d="M187 95h4l-4-2v2ZM266 95h3l1-2-4 2Z"/><path fill="#7ECE4A" id="DG-po" d="M321 103c-2.409 0-5.181 1-7 1l-7.5-5-7-2-9.5-3.5 9-.5c3.311 0 22 8.178 22 10Z"/><path fill="#019398" id="AUDd6b" d="m383 110-1 1-9-17v-1h1c0 3.973 5.254 9.008 7 12.5l2 3.5v1ZM74 110h1l9-16h-1c-1.086 0-9 13.204-9 15v1Z"/><path fill="#C7C8CC" id="alv" d="m95 94-1 1 1-1Z"/><path fill="#039397" id="AUDp4" d="M35 134h4c0-10.944 7.383-20.267 12-29.5l5-7.5v-1l-3-1-5.5 7c-6.86 6.861-12.5 21.328-12.5 31v1Z"/><path fill="#C7C8CC" id="alv" d="m94 95-1 2 1-2Z"/><path fill="#A8A9AA" id="V3" d="m223 95 8 1c0 2.1-8 1.1-8-1ZM233 95l-2 1 2-1Z"/><path fill="#039397" id="AUDp4" d="M417 134h4v-1c0-12.193-6.945-20.389-12-30.5-1.117-2.234-3.325-7.5-6-7.5l-3 1v1l5.5 7c6.49 6.49 11.5 20.829 11.5 30Z"/><path fill="#7DCD4B" id="HPF" d="m269 96 1 1-1-1Z"/><path fill="#039199" id="AUDp5" d="m39 134 16 3c0-9.435 12-24.233 12-32l-11-8-5 7.5c-4.617 9.233-12 18.556-12 29.5Z"/><path fill="#C7C8CC" id="alv" d="M93 97c-1.747 0-2 .253-2 2l2-2Z"/><path fill="#039199" id="AUDp5" d="m417 134-16 3c0-7.441-4.823-16.147-8-22.5-.767-1.535-1.845-8.5-4-8.5v-2c4.621 0 6.785-7 11-7l5.5 7c6.49 6.49 11.5 20.829 11.5 30Z"/><path fill="#C7C8CC" id="alv" d="m91 99-1 2 1-2Z"/><path fill="#FF8FFC" id="NOT" d="M195 102h1c0-1.679 9.076-2 11-2 0-1.58-2.855-1-4-1-2.554 0-15-1.17-15 2 1.406 0 7-.714 7 1Z"/><path fill="#A8A9AA" id="V3" d="M225 116h6c0-4.285 9.511-7.479 7-12.5-2.163-4.325-15.992-8.017-19-2-3.175 6.351 6 9.659 6 14.5Z"/><path fill="#FF8FFC" id="NOT" d="M268 101c-2.409 0-5.181 1-7 1-3.741 0-7.636-2-12-2 0-1.58 2.855-1 4-1 2.556 0 15-1.382 15 2Z"/><path fill="#FE90FC" id="OP" d="m196 103 1 4c5.164 0 13 8.146 13-5 0-1.577-1.762-2-3-2-1.924 0-11 .321-11 2v1ZM261 102l-2 5c-4.115 0-13 8.138-13-5l1-1 2-1c4.364 0 8.259 2 12 2Z"/><path fill="#C7C8CC" id="alv" d="m90 101-1 2 1-2Z"/><path fill="#FF64FF" id="MB" d="M185 102h1v-1l-1 1Z"/><path fill="#FF8FFC" id="NOT" d="m188 101-2 1v-1h2Z"/><path fill="#FE8EFF" id="APN" d="m172 132 6 9c2.048 0 4.872 4.314 7.5 3 13.746-6.873 11.5-23 11.5-37l-1-4-1-1c0-1.714-5.594-1-7-1l-2 1h-1l-2 1h-2l-1 1-9 5-1 1-1 5 4 9.5c1.182 2.364-1 5.696-1 7.5Z"/><path fill="#FF64FF" id="MB" d="m247 101-1 1 1-1Z"/><path fill="#FE8EFF" id="APN" d="m278 142-1 1-5.5 1c-14.49-7.245-12.5-22.098-12.5-37l2-5c1.819 0 4.591-1 7-1h1l1 1h2l1 1h2l2 1 7 4 1 1 3 6c-1.692 0-7.914 16-3 16 0 4.391-7 6.888-7 11Z"/><path fill="#FF8FFC" id="NOT" d="M270 101v1l-1-1h1Z"/><path fill="#FF64FF" id="MB" d="M270 102h1l-1-1v1ZM185 102l-2 1 2-1ZM196 102v1l-1-1h1ZM175 243l4 2c0-2.518 2-4.286 2-6l1-1 1-1 2-4-3-9.5c.915-1.83 4.517 2.034 5 3 .898 1.796 0 3.154 0 4.5l7-2c0-8.939 11-12.954 11-5l3-1 8-1 1-2-2-9-2.5 2c-3.514 0-.308-8 1.5-8 0-8.876-2.378-15 9-15l-3-4.5c-2.861-5.723-2.071-13.143-5-19-2.877-5.754 0-20.362 0-26.5 0-1.271-6-2.795-6-9l-2 1c0 2.19 2.108 15-3.5 15-4.004 0 .5-12.008.5-13l-2.5 1c-2.139-1.07.962-6.423 1.5-7.5 1.241-2.482 12.051-18.5 13.5-18.5l2.5 1c0-2.097-7.148-8-9-8 0 13.146-7.836 5-13 5 0 14 2.246 30.127-11.5 37-2.628 1.314-5.452-3-7.5-3l6 9c0-6.72 9.807-4.346 12.5-3 2.598 1.299 10.5 20.329 10.5 24 1.585 0 1.571-4.965 3.5-4 14.988 7.494-3.5 31.34-3.5 5-.203 0-2.165 3-8 3 0 3.078-2.853 5-6 5l-1 1h-3l-2 1h-5c0 .937 6.867 3.235 8 5.5 1.212 2.423-1.477 2.5-3 2.5 0 1.213 5.155 3.811 6 5.5 1.696 3.392-.692 13.5-4 13.5 0 8.673-28 3.546-28-2-8.592 0-20.553-20-30-20l-4-1c0 1.574-.751 9 1 9 0-5.282 8.958-5.585 11-1.5l3 4-1 8 10 10.5-2-5.5c.951-1.901 4.395-3.552 6.5-2.5l9.5 10.5c1.923 1.923 21.454 11.5 4 11.5 0 3.438 8.393 4.286 10 7.5 1.545 3.09-4 3.915-4 5.5Z"/><path fill="#FF64FF" id="MB" fill-rule="evenodd" d="M245 167c0 .273-4.336 6.171-5 7.5-1.078 2.157 1.542 10.979 4.5 9.5 4.437-2.219 8.06-17 .5-17m36 76-3 2-2-5-4-7 2-9.5c-.857-1.715-3.557 1.114-4 2-1.476 2.953 0 3.862 0 6.5l-7-3c0-15.407-9.622-6-12-6h-3l-8-1-1-1c0-3.395 2-6.106 2-10l3.5 2c3.197-1.599.254-8-2.5-8 0-5.388 2.575-16-7-16 0-4.457 3.956-17.412 6-21.5l2-24-2-4.5c3.079 0 5.353-5 7-5 0 4.208 3.041 17.418 7 9.5 1.952-3.904-5-8.415-5-11.5l4.5 3c1.716 0-.297-7.094-.5-7.5-1.483-2.967-12.561-18.5-15-18.5 0-2.481 4.579-7 7-7 0 13.138 8.885 5 13 5 0 14.902-1.99 29.755 12.5 37l5.5-1c0 2.83-4 4.54-4 7-2.836 0-5.47-7.515-10.5-5-6.147 3.074-17.699 26.651-9 31l3.5-1c0 2.226 1.774 4 4 4l1 1 6 1 1 1h6c0 1.013-6.985 2.47-8 4.5-1.377 2.754.065 3.5 3 3.5 0 .193-6.15 4.799-7 6.5-1.497 2.994 1.913 12.5 5 12.5 0 9.013 27 3.466 27-2 9.003 0 20.846-20 30-20l5-1c0 2.707-1 5.903-1 8-1.296 0-8.787-8.926-15 3.5-2.742 5.484 5.299 4.701-4.5 14.5l-3.5 3 1-5.5c-4.217-8.433-12.869 7.684-14.5 8.5-5.237 2.618-21.505 12-4.5 12 0 2.083-8.514 4.529-10 7.5-1.634 3.269 3 3.957 3 5.5Z"/><path fill="#FF64FF" id="MB" d="m272 102 1 1-1-1Z"/><path fill="#C7C8CC" id="alv" d="M89 103c-1.577 0-2 1.762-2 3 1.577 0 2-1.762 2-3Z"/><path fill="#7ECF49" id="CA3" d="M161 248c-1.577 0-2 1.762-2 3l-3.5 2c-2.972 0-1.81-6.119-2.5-7.5-1.867-3.734-6.839-10.5-12-10.5l-1-1h-1c0-2.643-21.717-8.934-24-13.5-5.901-11.801-28.883-23.767-34-34-6.016-12.032-8-22.794-8-37.5 1.59 0 1.443-4.386 2-5.5l6-10c3.689-7.377 30.207-25.5 37-25.5h5c5.319 0 7.996-5 13-5 1.745 0 6-.698 6 2l-1 3c-1.473 0-1 1.952-1 3l-1 1-3 2-1 1-1 1-1 1c-1.747 0-2 .253-2 2-2.473 0-6 3.527-6 6-3.36 0-12.488 19.475-14 22.5-11.282 22.564 5.672 49.672 21.5 65.5l17.5 16h1l4 4h1l2 2h1l2 2h1l4 4v1l-1 1-1 1-1 1c-1.577 0-2 1.762-2 3Z"/><path fill="#CAC7CB" id="fiber tracts" d="m174 103-1 1v-1h1Z"/><path fill="#C7CBCB" id="bsc" d="M148 113h3c0-1.473 1.952-1 3-1l14-2c0-1.473 1.952-1 3-1l9-5v-1h-6l-1 1h-2l-1 1h-2l-1 1h-1l-1 1h-2l-1 1h-2l-1 1h-2l-1 1h-2c0 1.579-2.855 1-4 1h-3l-2 1h-1c0 1.579 2.855 1 4 1Z"/><path fill="#FF64FF" id="MB" d="m181 103-1 1v-1h1ZM277 103v1l-2-1h2Z"/><path fill="#C7CBCB" id="bsc" d="M306 113h2c1.145 0 4 .579 4-1h-1l-1-1h-4c-1.145 0-4 .579-4-1h-1l-1-1h-3l-1-1h-1l-1-1h-3l-1-1h-1l-1-1h-2l-1-1h-1l-1-1h-6v1l7 4 1 1h1c1.048 0 3-.473 3 1l14 2c1.048 0 3-.473 3 1Z"/><path fill="#CAC7CB" id="fiber tracts" d="M284 103v1l-1-1h1Z"/><path fill="#7ECF49" id="CA3" d="m296 248 1 3c2.851 0 2.731 2.384 5.5 1l.5-5.5c1.893-3.785 7.018-11.5 12-11.5l1-1h1l2-1c0-2.201 18.123-6.746 20-10.5l9.5-9.5 11-12c13.568-6.784 23.5-24.613 23.5-40v-14l-4-7.5c-2.131-4.263-7.695-13.098-12.5-15.5l-16-11c-1.483-.742-11.5-3.905-11.5-5h-5c-5.181 0-8.221-5-13-5-2.409 0-5.181 1-7 1l2 5v1l4 4c4.197 0 14.995 14.49 17 18.5 2.984 5.968 7.056 11.111 10 17v5c7.077 14.155-7.517 42.517-17 52-1.708 1.708-13.11 14.5-15 14.5l-2 2-2 2-2 2h-1l-1 1-1 1-1 1-1 1h-1l-1 1-1 1-2 1-1 1h-1l-1 1-1 1h-1l-1 1-1 1h-1l-1 1v1c.966 0 3 2.886 3 4 1.539 0 3 1.342 3 3Z"/><path fill="#CAC7CB" id="fiber tracts" d="m171 104-1 1v-1h1ZM285 104l1 1-1-1Z"/><path fill="#019396" id="AUDp6a" d="m55 137 8 2 7-19.5c.663-1.326 1.002-6.5 3-6.5 0-1.048-.473-3 1-3v-1c-1.417 0-6-2.383-6-4h-1c0 7.767-12 22.565-12 32Z"/><path fill="#CAC7CB" id="fiber tracts" d="m168 105-1 1v-1h1ZM288 105l1 1-1-1Z"/><path fill="#C7C8CC" id="alv" d="M87 106c-2.109 0-2 2.535-2 4l2-4Z"/><path fill="#7DCF4B" id="CA2" d="M76 135c0 4.833-3 8.736-3 14 1.59 0 1.443-4.386 2-5.5l6-10c3.689-7.377 30.207-25.5 37-25.5l-2-2c-9.957 0-19.015 10.758-27.5 15-2.695 1.348-10.933 12-11.5 12v1l-1 1Z"/><path fill="#CAC7CB" id="fiber tracts" d="m166 106-1 1 1-1ZM290 106l1 1-1-1Z"/><path fill="#7DCF4B" id="CA2" d="M380 134c0 4.277 3 8.115 3 13l-4-7.5c-2.131-4.263-7.695-13.098-12.5-15.5l-16-11c-1.483-.742-11.5-3.905-11.5-5l1-2c12.167 0 22.973 14.237 32.5 19l7.5 9Z"/><path fill="#019396" id="AUDp6a" d="m401 137-8 2-10-29v-1l6-3c2.155 0 3.233 6.965 4 8.5 3.177 6.353 8 15.059 8 22.5Z"/><path fill="#CAC7CB" id="fiber tracts" d="m163 107-1 1 1-1ZM294 107l1 1-1-1ZM160 108l-1 1 1-1Z"/><path fill="#FF64FF" id="MB" d="m284 108 1 1-1-1Z"/><path fill="#CAC7CB" id="fiber tracts" d="m296 108 1 1-1-1ZM157 109l-1 1v-1h1Z"/><path fill="#FF64FF" id="MB" d="M168 110h2l1-1c-1.048 0-3-.473-3 1Z"/><path fill="#FF8DFE" id="NPC" d="m205 133-1 1-2.5 1c-2.139-1.07.962-6.423 1.5-7.5 1.241-2.482 12.051-18.5 13.5-18.5l2.5 1v1l3 3v4l-1 1-4 4-2 1v1c-1.747 0-2 .253-2 2-1.747 0-2 .253-2 2-1.747 0-2 .253-2 2l-2 1-2 1Z"/><path fill="#FF64FF" id="MB" d="m239 109-1 1 1-1Z"/><path fill="#FF8DFE" id="NPC" d="M249 132h1l4.5 3c1.716 0-.297-7.094-.5-7.5-1.483-2.967-12.561-18.5-15-18.5l-1 1-1 1-1 2-2 3 1 3c1.338 0 7 4.41 7 6l7 7Z"/><path fill="#FE909D" id="LP" d="M310 145h1l2-2.5c1.278-2.555-2-4.516-2-6.5l-1-13.5c0-1.19-.614-4.5 1-4.5l1-4c-1.145 0-4 .579-4-1h-2c-1.048 0-3 .473-3-1l-14-2c-1.048 0-3 .473-3-1h-1l3 6c1.176 0 2.714 16-1 16l1 2 8 4c2.411 0 14 5.279 14 8Z"/><path fill="#FF64FF" id="MB" d="M286 109c1.048 0 3-.473 3 1-1.048 0-3 .473-3-1Z"/><path fill="#CAC7CB" id="fiber tracts" d="M301 109v1l-1-1h1Z"/><path fill="#039198" id="AUDp6b" d="m75 110-2 3c0-1.048-.473-3 1-3h1Z"/><path fill="#C7C8CC" id="alv" d="M85 110c-2.109 0-2 2.535-2 4 2.109 0 2-2.535 2-4Z"/><path fill="#CAC7CB" id="fiber tracts" d="M154 110c0 1.579-2.855 1-4 1v-1h4Z"/><path fill="#FE909D" id="LP" d="m147 144-2 1c0-1.819-1-4.591-1-7l1-1c0-2.253.984-6.469 2-8.5l-1-9.5-2-5c1.145 0 4 .579 4-1h3c1.048 0 3 .473 3-1l14-2h2l-1 5c-3.839 0-2.335 16 0 16l-1 2-8 4c-4.982 0-8.476 7-13 7Z"/><path fill="#FF64FF" id="MB" d="m238 110-1 1 1-1Z"/><path fill="#CAC7CB" id="fiber tracts" d="M306 110v1c-1.145 0-4 .579-4-1h4Z"/><path fill="#7DCD4B" id="HPF" d="M319 115h1v-1l-4-4v2l1 1v1h1l1 1Z"/><path fill="#039198" id="AUDp6b" d="M392 139h1l-10-29-1 1c0 3.522 3 6.079 3 10 1.116 0 6.535 18 7 18Z"/><path fill="#7DCD4B" id="HPF" d="M139 112h2l-1-1-1 1Z"/><path fill="#CAC7CB" id="fiber tracts" d="m147 111-2 1v-1h2Z"/><path fill="#FF64FF" id="MB" d="m219 111 3 3-3-3ZM237 111l-1 2 1-2Z"/><path fill="#CAC7CB" id="fiber tracts" d="M311 111v1l-1-1h1Z"/><path fill="#7DCD4B" id="HPF" d="M136 115h2l1-1v-2l-3 2v1Z"/><path fill="#CAC7CB" id="fiber tracts" d="M148 113c0 1.579-2.855 1-4 1l-1-1v-1h1c0 1.579 2.855 1 4 1ZM154 112c-1.048 0-3-.473-3 1 1.048 0 3 .473 3-1ZM303 112c1.048 0 3-.473 3 1-1.048 0-3 .473-3-1ZM312 114l3 1c0-.714-3.336-2-1-2v-1h-2c0 1.579-2.855 1-4 1 0 1.579 2.855 1 4 1Z"/><path fill="#039198" id="AUDp6b" d="M63 139h2l1-2c0-1.048-.473-3 1-3 0-4.679 4-8.729 4-13 0-2.885 2-4.697 2-8-1.998 0-2.337 5.174-3 6.5L63 139Z"/><path fill="#CAC7CB" id="fiber tracts" d="m140 113-1 1v-1h1Z"/><path fill="#C7CBCB" id="bsc" d="M139 115h2l2-1h1l-1-1h-3l-1 1v1ZM335 137c1.2 0 2 3.746 2 0v-2l-1-1c0-3.84-9.758-17-14-17l-2-2h-1l-1-1h-1l-1-1h-2c-2.336 0 1 1.286 1 2h2l1 1 2 1c2.059 0 11 7.71 11 10v1c1.948 0 4 5.428 4 7v2Z"/><path fill="#CAC7CB" id="fiber tracts" d="M317 113v1l-1-1h1Z"/><path fill="#C7C8CC" id="alv" d="M83 114c-1.638 0-2 3.576-2 5 1.638 0 2-3.576 2-5ZM135 115h1v-1l-1 1Z"/><path fill="#CAC7CB" id="fiber tracts" d="M138 115h1v-1l-1 1ZM143 114l-2 1 2-1Z"/><path fill="#FE8083" id="LGd-sh" d="M121 139v1l2.5 2c4.384-2.192 10.285-23 22.5-23l-2-5h-1l-2 1h-2l-1 1-1 1h-1l-1 1-1 1-3 2-1 2-1 1-1 1-1 1-1 1-1 1v1l-1 1-1 1v1l-1 2-1 2v3ZM335 137v2c0 10.037-11.473-13.487-14.5-15-1.647-.823-9.5-3.92-9.5-6l1-4 3 1h2l1 1 2 1c0 1.175 10.101 10 11 10v1l4 7v2Z"/><path fill="#CAC7CB" id="fiber tracts" d="m318 114 1 1-1-1Z"/><path fill="#C7C8CC" id="alv" d="M321 212c0 3.345-6 5.413-6 9 1.89 0 13.292-12.792 15-14.5 9.483-9.483 24.077-37.845 17-52v-5c-2.944-5.889-7.016-11.032-10-17-2.005-4.01-12.803-18.5-17-18.5v1l2 2c4.242 0 14 13.16 14 17l1 1v2c2.634 0 8 15.001 8 18v2c1.614 0 1 3.31 1 4.5 0 2.281-.801 14.5-3 14.5v1c0 7.391-8.944 24.722-15.5 28l-5.5 6-1 1ZM134 116h1v-1l-1 1Z"/><path fill="#CAC7CB" id="fiber tracts" d="m136 115-1 1v-1h1Z"/><path fill="#C7CBCB" id="bsc" d="M136 117h1l1-1 1-1h-3l-1 1 1 1Z"/><path fill="#FF8D9D" id="POL" d="m169 131 3 1c0-1.804 2.182-5.136 1-7.5l-4-9.5c-3.839 0-2.335 16 0 16Z"/><path fill="#FF64FF" id="MB" d="m224 117-2 1v-3l2 2Z"/><path fill="#FF8D9D" id="POL" d="M285 131h2c3.714 0 2.176-16 1-16-1.692 0-7.914 16-3 16Z"/><path fill="#CAC7CB" id="fiber tracts" d="m317 115 1 1-1-1ZM320 115l2 2-2-2Z"/><path fill="#C7C8CC" id="alv" d="M133 117h1v-1l-1 1Z"/><path fill="#CAC7CB" id="fiber tracts" d="m136 117-1 1-1-1v-1h1l1 1ZM138 116l-1 1 1-1Z"/><path fill="#CCCACA" id="pc" d="m240 124 2 1c0-1.59-5.662-6-7-6l-2-2-2-1h-6l-1 1-2 1-1 1-4 4 7-3h8l8 4Z"/><path fill="#FF64FF" id="MB" d="m233 117 2 2-1-3-1 1Z"/><path fill="#C7C8CC" id="alv" d="M133 117c-1.747 0-2 .253-2 2l2-2Z"/><path fill="#C7CBCB" id="bsc" d="M130 121h1l3-2 1-1-1-1h-1l-2 2-1 2Z"/><path fill="#CAC7CB" id="fiber tracts" d="M320 117c2.059 0 11 7.71 11 10-.899 0-11-8.825-11-10ZM135 118l-1 1 1-1Z"/><path fill="#FF64FF" id="MB" d="m222 118-1 1 1-1Z"/><path fill="#FE7F84" id="LGd-co" fill-rule="evenodd" d="m312 123 .5 8c2.206 2.206-1.051 5.974 3 8 9.055 4.528 9.983-16-3.5-16m24 18-11 12c-2.99 0-11.91-17-14-17l-1-13.5c0-1.19-.614-4.5 1-4.5 0 2.08 7.853 5.177 9.5 6 3.027 1.513 14.5 25.037 14.5 15l1 2Z"/><path fill="#C7C8CC" id="alv" d="M81 119c-2.46 0-2 3.378-2 5 1.638 0 2-3.576 2-5ZM130 121l-5 4c0-2.473 3.527-6 6-6l-1 2Z"/><path fill="#FE7F84" id="LGd-co" fill-rule="evenodd" d="M141 123c0 2.153-14.675 10.413-3.5 16 5.629 2.815 11.394-16 3.5-16m-21 18 12 12 12-15 1-1c0-2.253.984-6.469 2-8.5l-1-9.5c-12.215 0-18.116 20.808-22.5 23l-2.5-2-1 1Z"/><path fill="#FF78FE" id="SCO" d="M226 125h4c3.798 0 2-3.15 2-5h-8c0 1.622-.461 5 2 5Z"/><path fill="#FE90FE" id="PRC" d="M215 140h11l1-1-1-14c-2.461 0-2-3.378-2-5l-7 3-1 1-1 1-2 2-2 2-2 2c0 6.205 6 7.729 6 9ZM241 139c-4.275 0-7.621 1-11 1 0-1.048.473-3-1-3l1-12c3.798 0 2-3.15 2-5l8 4c0 3.585 8 6.014 8 10-1.647 0-3.921 5-7 5Z"/><path fill="#CCC8CA" id="ar" d="M67 134h1l1-2v-2l1-1v-1l1-1v-2l1-1c0-1.048.473-3-1-3 0 4.271-4 8.321-4 13Z"/><path fill="#C7CBCB" id="bsc" d="M125 127h1l1-1 1-1 1-1 1-1v-2l-5 4v2Z"/><path fill="#CAC7CB" id="fiber tracts" d="m131 121-1 2v-2h1Z"/><path fill="#CCC8CA" id="ar" d="M392 141v1l-3-6v-1l-2-4v-2l-1-1v-1l-1-1v-5c1.116 0 6.535 18 7 18v2Z"/><path fill="#FD8082" id="LGd-ip" d="M141 123c0 2.153-14.675 10.413-3.5 16 5.629 2.815 11.394-16 3.5-16Z"/><path fill="#CCCACA" id="pc" d="M215 124h1l1-1-2 1Z"/><path fill="#FD8082" id="LGd-ip" d="m312 123 .5 8c2.206 2.206-1.051 5.974 3 8 9.055 4.528 9.983-16-3.5-16Z"/><path fill="#C8C9CA" id="fp" d="m72 124-1 1 1-1Z"/><path fill="#C7C8CC" id="alv" d="M79 124c-1.995 0-2 4.377-2 6 1.353 0 2-4.643 2-6Z"/><path fill="#CAC7CB" id="fiber tracts" d="m129 124-1 1 1-1Z"/><path fill="#FF64FF" id="MB" d="m216 124-1 1v-1h1Z"/><path fill="#A8A9AA" id="V3" d="m227 187 2 3v-53l1-12h-4l1 14v12c1.579 0 1 2.855 1 4v14c0 1.235.643 5-1 5v13Z"/><path fill="#FF64FF" id="MB" d="m249 132-1 2c0-3.986-8-6.415-8-10l2 1 7 7Z"/><path fill="#C7C8CC" id="alv" d="m135 212 15 17-17.5-16c-15.828-15.828-32.782-42.936-21.5-65.5 1.512-3.025 10.64-22.5 14-22.5v2c-1.577 0-2 1.762-2 3-2.109 0-2 2.535-2 4-1.577 0-2 1.762-2 3-1.788 0-6 10.062-6 12v1c-3.317 0-2 16.108-2 19 0 10.785 8.373 26.873 16 34.5l8 8.5Z"/><path fill="#FF64FF" id="MB" d="M215 125c-1.747 0-2 .253-2 2l2-2Z"/><path fill="#CAC7CB" id="fiber tracts" d="m127 126-1 1 1-1Z"/><path fill="#C8C9CA" id="fp" d="m385 126 1 1-1-1ZM71 127l-1 1 1-1Z"/><path fill="#C7CBCB" id="bsc" d="M123 130h1l1-1v-2c-1.577 0-2 1.762-2 3Z"/><path fill="#CAC7CB" id="fiber tracts" d="m126 127-1 1v-1h1Z"/><path fill="#FF64FF" id="MB" d="M213 127c-1.747 0-2 .253-2 2l2-2Z"/><path fill="#CAC7CB" id="fiber tracts" d="M331 128c1.948 0 4 5.428 4 7l-4-7Z"/><path fill="#C8C9CA" id="fp" d="m386 128 1 1-1-1ZM70 129l-1 1 1-1Z"/><path fill="#CAC7CB" id="fiber tracts" d="m125 129-1 1 1-1Z"/><path fill="#FF64FF" id="MB" d="M211 129c-1.747 0-2 .253-2 2l2-2Z"/><path fill="#C7CACC" id="ccs" d="M76 131h1v-1l-1 1Z"/><path fill="#C7CBCB" id="bsc" d="M121 134h1l1-2v-2c-2.109 0-2 2.535-2 4Z"/><path fill="#CAC7CB" id="fiber tracts" d="m124 130-1 1v-1h1Z"/><path fill="#019099" id="AUDv1" d="M21 151h6c0-6.244 1-13.428 1-19l-5-1c-1.666 0-1 4.222-1 5.5 0 4.378-1 9.551-1 14.5Z"/><path fill="#C7CACC" id="ccs" d="m76 131-1 1 1-1Z"/><path fill="#C7C8CC" id="alv" d="m110 220 11.5 9c2.107 1.054 15.523 5 17.5 5 0-2.643-21.717-8.934-24-13.5-5.901-11.801-28.883-23.767-34-34-6.016-12.032-8-22.794-8-37.5 0-5.264 3-9.167 3-14l1-1v-3h-1l-1 1v2l-1 2v1l-1 2c0 1.517-.726 9-2 9v3l-1 2v4c1.483 0 1.27 10.039 2 11.5 2.957 5.914 3.978 12.955 7 19 3.717 7.434 15.625 16.625 22.5 23.5l8.5 9Z"/><path fill="#FF6F80" id="TH" d="M182 171c6.507 0 11.555 4 17 4 0-6.11-15-22.429-15-25l-6-9-6-9-3-1-1 2c0 9.474 11.031 14.562 15 22.5.793 1.587.141 6.5-2 6.5l1 9ZM275 171c-6.766 0-12.325 4-17 4l7-16.5c1.393-2.787 8-4.503 8-8.5 0-2.46 4-4.17 4-7l1-1c0-4.112 7-6.609 7-11h2l1 2c0 9.967-9.89 13.28-14 21.5-1.183 2.366-2.138 7.5 2 7.5 0 2.354-1 5.169-1 9Z"/><path fill="#C8C9CA" id="fp" d="m387 131 2 4-2-4Z"/><path fill="#019099" id="AUDv1" d="M429 151h6l-1-20-5 1v19Z"/><path fill="#029198" id="AUDv2/3" d="M27 151h7c0-5.909 1-11.579 1-17v-1l-7-1c0 5.572-1 12.756-1 19Z"/><path fill="#C8C9CA" id="fp" d="m69 132-1 2 1-2Z"/><path fill="#CAC7CB" id="fiber tracts" d="m123 132-1 2 1-2Z"/><path fill="#FD8DFF" id="RPF" d="m205 133-1 1c0 .992-4.504 13-.5 13 5.608 0 3.5-12.81 3.5-15l-2 1ZM250 132c0 3.085 6.952 7.596 5 11.5-3.959 7.918-7-5.292-7-9.5l1-2h1Z"/><path fill="#029198" id="AUDv2/3" d="M422 151h7v-19l-8 1v1c0 4.919 1 11.413 1 17Z"/><path fill="#FD8F9C" id="Eth" d="M160 137c0 7.988 12.552 25 21 25 2.141 0 2.793-4.913 2-6.5-3.969-7.938-15-13.026-15-22.5l-8 4Z"/><path fill="#FF64FF" id="MB" d="m205 133-1 1 1-1Z"/><path fill="#FD8F9C" id="Eth" d="M296 137c0 8.27-12.019 25-20 25-4.138 0-3.183-5.134-2-7.5 4.11-8.22 14-11.533 14-21.5l8 4Z"/><path fill="#C7CACC" id="ccs" d="M383 136v2c-1.014 0-2-3.959-2-5l2 2v1Z"/><path fill="#029197" id="AUDv4" d="M35 151h3l1-17h-4c0 5.421-1 11.091-1 17h1Z"/><path fill="#019098" id="AUDv5" d="m38 151 15 1c0-5.65 2-9.704 2-15l-16-3-1 17Z"/><path fill="#CCC8CA" id="ar" d="M66 137h1v-3c-1.473 0-1 1.952-1 3Z"/><path fill="#C8C9CA" id="fp" d="M68 134c0 1.048.473 3-1 3v-3h1Z"/><path fill="#C7CACC" id="ccs" d="m75 134-1 2 1-2Z"/><path fill="#7ECF4B" id="CA1" d="m77 134-1 1 1-1Z"/><path fill="#C7CBCB" id="bsc" d="M119 137c0 1.747.253 2 2 2v-5c-1.577 0-2 1.762-2 3Z"/><path fill="#CAC7CB" id="fiber tracts" d="m122 134-1 2v-2h1ZM336 134l1 1-1-1Z"/><path fill="#019098" id="AUDv5" d="m419 151-15 1-3-15 16-3 2 17Z"/><path fill="#029197" id="AUDv4" d="M419 151h3c0-5.587-1-12.081-1-17h-4l2 17Z"/><path fill="#FF6F80" id="TH" d="m325 155-2 2c0-3.78-9.04-12-12-12l2-2.5c1.278-2.555-2-4.516-2-6.5 2.09 0 11.01 17 14 17v2Z"/><path fill="#C8C9CA" id="fp" d="M383 139h1c0-1.048.473-3-1-3v3ZM393 149h1v-1l-1-2v-1c-1.473 0-1-1.952-1-3l-3-6 1 14 3-1Z"/><path fill="#019397" id="AUDv6a" d="M53 152c2.41 0 5.181 1 7 1l3-14-8-2c0 5.296-2 9.35-2 15Z"/><path fill="#CCC8CA" id="ar" d="M65 139v1c1.473 0 1-1.952 1-3l-1 2Z"/><path fill="#C8C9CA" id="fp" d="m63 149 3 1c0-3.823 1-8.586 1-13h-1c0 1.048.473 3-1 3v2l-1 1c0 1.048.473 3-1 3v3Z"/><path fill="#C7CACC" id="ccs" d="M73 138v1l1-2h-1v1Z"/><path fill="#CAC7CB" id="fiber tracts" d="M119 145c-2.773 0-3.67 4-6 4 0-1.938 4.212-12 6-12 0 1.747.253 2 2 2v1l-1 1-1 4Z"/><path fill="#FF6F80" id="TH" d="m145 137-1 1 1-1Z"/><path fill="#FF7E82" id="PoT" fill-rule="evenodd" d="M160 150c0 2.739-1.688 4.906 2.5 7 .736.368 7.5 5.162 7.5 1.5 0-2.985-7.342-8.5-10-8.5m4 26h3c0-1.391 13.079-5 15-5l-1-9c-8.448 0-21-17.012-21-25-4.982 0-8.476 7-13 7l6 11 3 4c10.852 0 5 12.21 5 16l2 1h1Z"/><path fill="#FF64FF" id="MB" d="M230 140c0 1.048.473 3-1 3v-6c1.473 0 1 1.952 1 3Z"/><path fill="#FF7E82" id="PoT" fill-rule="evenodd" d="M294 150c0 1.697-9.959 8.27-6.5 10 3.043 1.521 15.149-10 6.5-10m-4 26h3l2-1h1c0-1.6-7.206-16 4-16l3-3c0-1.694 5.323-11 7-11 0-2.721-11.589-8-14-8 0 8.27-12.019 25-20 25 0 2.354-1 5.169-1 9 4.794 0 10.396 5 15 5Z"/><path fill="#CAC7CB" id="fiber tracts" d="M337 145c5.885 0 7.531 10 8 10 0-2.999-5.366-18-8-18 0 3.746-.8 0-2 0v2l1 2c1.579 0 1 2.855 1 4Z"/><path fill="#019397" id="AUDv6a" d="M404 152c-2.707 0-5.903 1-8 1 0-5.051-3-9.683-3-14l8-2 3 15Z"/><path fill="#C8C9CA" id="fp" d="M72 139h1v-1l-1 1Z"/><path fill="#FF6F80" id="TH" d="M132 157h1c0-3.222 8.997-12 12-12 0-1.819-1-4.591-1-7l-12 15v4Z"/><path fill="#019198" id="AUDv6b" d="M60 153h2v-4l1-1v-2c0-1.048-.473-3 1-3v-1l1-2v-1h-2l-3 14Z"/><path fill="#C7CACC" id="ccs" d="M73 139c0 1.517-.726 9-2 9l1-9h1Z"/><path fill="#FC8FFF" id="PAG" d="M224 191h1c2.641 0 2-1.823 2-4v-46l-1-1h-11c0 6.138-2.877 20.746 0 26.5 2.929 5.857 2.139 13.277 5 19l3 4.5 1 1Z"/><path fill="#FF64FF" id="MB" d="m226 140 1 1v-2l-1 1Z"/><path fill="#FC8FFF" id="PAG" d="M232 191h1l2-2c0-4.457 3.956-17.412 6-21.5l2-24-2-4.5c-4.275 0-7.621 1-11 1 0 1.048.473 3-1 3v8c1.535 0 1.535 4 0 4v35c0 1.473 1.952 1 3 1Z"/><path fill="#C7CACC" id="ccs" d="M384 139c0 1.564 1 3.876 1 6-1.353 0-2-4.643-2-6h1Z"/><path fill="#019198" id="AUDv6b" d="M395 153h1c0-5.051-3-9.683-3-14h-1v2c1.579 0 1 2.855 1 4v1l1 2v1l1 4Z"/><path fill="#C9C9CA" id="scwm" d="M64 142h1v-2l-1 2Z"/><path fill="#FF909E" id="IGL" d="M132 157c-1.473 0-1 1.952-1 3-2.168 0-12-11.955-12-15l1-4 12 12v4ZM325 155v6c1.759 0 12-14.122 12-16 0-1.145.579-4-1-4l-11 12v2Z"/><path fill="#C9C9CA" id="scwm" d="M392 142c0 1.048-.473 3 1 3 0-1.145.579-4-1-4v1Z"/><path fill="#CCC8CA" id="ar" d="m65 142-1 1v-1h1Z"/><path fill="#FF64FF" id="MB" d="m278 142-1 1 1-1Z"/><path fill="#C9C9CA" id="scwm" d="M64 143c-1.473 0-1 1.952-1 3 1.473 0 1-1.952 1-3Z"/><path fill="#CCC8CA" id="ar" d="M133 157c0 2.945 4 5.478 4 7 4.374 0 16-3.531 16-9l-6-11-2 1c-3.003 0-12 8.778-12 12Z"/><path fill="#FF8E9F" id="LGv" d="M126 178c-1.145 0-4-.579-4 1l-3-3.5-5-5c-3.316-6.632-1-13.502-1-20.5v-1c2.33 0 3.227-4 6-4 0 3.045 9.832 15 12 15v2c0 .731-3.428 9.355-4 10.5-.619 1.238 1.144 5.5-1 5.5Z"/><path fill="#FF8FFD" id="MRN" d="M207 172c-.203 0-2.165 3-8 3 0-6.11-15-22.429-15-25 0-6.72 9.807-4.346 12.5-3 2.598 1.299 10.5 20.329 10.5 24v1ZM257 175h1l7-16.5c1.393-2.787 8-4.503 8-8.5-2.836 0-5.47-7.515-10.5-5-6.147 3.074-17.699 26.651-9 31l3.5-1Z"/><path fill="#CCC8CA" id="ar" d="m320 163-1 1c-6.031 0-15.31-8-16-8 0-1.694 5.323-11 7-11h1c2.96 0 12 8.22 12 12 0 1.643-1.338 6-3 6Z"/><path fill="#FF8E9F" id="LGv" d="m330 178 5 1c0-3.059 6.352-6.204 8-9.5 1.804-3.608 2-8.117 2-12.5v-2c-.469 0-2.115-10-8-10 0 1.878-10.241 16-12 16v1c2.471 0 5 13.706 5 16Z"/><path fill="#C9C9CA" id="scwm" d="m393 146 1 2-1-2ZM62 149h1v-1l-1 1Z"/><path fill="#C7CACC" id="ccs" d="M385 150h1l-1-2v2Z"/><path fill="#C8CBCC" id="ec" d="M76 206v2c-1.325 0-2.43-5.361-3-6.5l-6-8.5c0-1.041-.986-5-2-5v-2l-2-16-1-17v-4h1c0 3.013 1 6.611 1 9 0 5.555-1.603 13 5 13v18c0 4.847 6 8.736 6 13l1 4Z"/><path fill="#CCC8CA" id="ar" d="M66 150c0 1.775-.07 8-2 8 0-2.389-1-5.987-1-9l3 1Z"/><path fill="#7DCF4B" id="CA2" d="M383 149c1.638 0 1.638 12 0 12v-12Z"/><path fill="#CCC8CA" id="ar" d="M390 150c0 .822 1.311 8 2 8 1.751 0 1-7.426 1-9l-3 1Z"/><path fill="#C8CBCC" id="ec" d="M380 207v2c.932 0 7.034-16 10-16 0-1.145-.579-4 1-4l2-19c0-5.865 2-10.835 2-17l-1-4h-1c0 1.574.751 9-1 9 0 4.018 1.814 14-4 14v13c0 1.145.579 4-1 4v1c0 1.465.109 4-2 4 0 1.732-2.005 8-4 8v1l-1 2v2Z"/><path fill="#CAC7CB" id="fiber tracts" fill-rule="evenodd" d="M114 175c0 4.966 4.817 13.134 7 17.5.47.939 2.291 5.104 3.5 4.5 2.938-1.469-4.89-22-10.5-22m14 20c0 6.81 7 11.081 7 17l-8-8.5c-7.627-7.627-16-23.715-16-34.5 0-2.892-1.317-19 2-19 0 6.998-2.316 13.868 1 20.5l5 5 3 3.5c0 1.884 2.575 7 5 7 0 1.574-.751 9 1 9Z"/><path fill="#FF8E9C" id="PO" d="M160 150c0 2.739-1.688 4.906 2.5 7 .736.368 7.5 5.162 7.5 1.5 0-2.985-7.342-8.5-10-8.5ZM294 150c0 1.697-9.959 8.27-6.5 10 3.043 1.521 15.149-10 6.5-10Z"/><path fill="#C8CBCC" id="ec" d="M386 150v1l-1-1h1Z"/><path fill="#15B0B3" id="TEa1" d="m29 171-5 2c-2.144 0-.38-4.262-1-5.5-2.122-4.244-2-11.515-2-16.5h6v14.5l2 5.5Z"/><path fill="#16AFB3" id="TEa2/3" d="M39 169c0 .926-8.751 2-10 2l-2-5.5V151h8c0 3.326 1.12 18 4 18Z"/><path fill="#15B0B2" id="TEa4" d="m38 151 1 18c-2.88 0-4-14.674-4-18h3Z"/><path fill="#15AFB3" id="TEa5" d="M40 170h12c0-5.996 1-12.639 1-18l-15-1 1 18 1 1Z"/><path fill="#C8CBCC" id="ec" d="m71 151-1 2 1-2Z"/><path fill="#FF64FF" id="MB" d="M227 151c1.579 0 1 2.855 1 4v14c0 1.235.643 5-1 5v-23ZM229 151c1.535 0 1.535 4 0 4v-4Z"/><path fill="#15AFB3" id="TEa5" d="M405 170h11l1-1 2-18-15 1 1 18Z"/><path fill="#15B0B2" id="TEa4" d="M417 169h1c1.951 0 .477-2.454 1-3.5 2.098-4.195 3-9.487 3-14.5h-3l-2 18Z"/><path fill="#16AFB3" id="TEa2/3" d="M427 171h1c0-6.134 1-13.266 1-20h-7c0 5.013-.902 10.305-3 14.5-.523 1.046.951 3.5-1 3.5 0 .981 7.758 2 9 2Z"/><path fill="#15B0B3" id="TEa1" d="m428 171 5 2 2-22h-6c0 6.734-1 13.866-1 20Z"/><path fill="#15AFB2" id="TEa6a" d="M52 170h10l-2-17c-1.819 0-4.59-1-7-1 0 5.361-1 12.004-1 18ZM394 170h11l-1-18c-2.707 0-5.903 1-8 1 0 6.023-2 11.684-2 17Z"/><path fill="#16B0B2" id="TEa6b" d="M62 170h1l-1-17h-2l2 17ZM393 170h1c0-5.316 2-10.977 2-17h-1c0 6.165-2 11.135-2 17Z"/><path fill="#FF6F80" id="TH" d="M150 175h2l-1-2-7-4.5c-1.217-2.435 5.523-3.012 6.5-3.5l5.5-6-3-4c0 5.469-11.626 9-16 9 0 2.729-.423 1-2 1 0 2.618 10.777 9 13 9l1 1h1Z"/><path fill="#FE8D9D" id="IntG" d="M319 164c0 1.747.253 2 2 2l4-4v-7l-2 2c0 1.643-1.338 6-3 6l-1 1Z"/><path fill="#FF6F80" id="TH" d="M305 175h2l1-1c1.88 0 13-6.371 13-8-1.747 0-2-.253-2-2-6.031 0-15.31-8-16-8l-3 3c3.567 0 4.22 5.36 7.5 7 .906.453 6.73.041 5.5 2.5l-8 4.5v2Z"/><path fill="#A8AAAA" id="VL" fill-rule="evenodd" d="M95 212c0 5.369 6.369 0 0 0m2 9h1c4.004 0 7.217.359 10.5 2l2.5-.5-1-2.5-8.5-9c-6.875-6.875-18.783-16.066-22.5-23.5-3.022-6.045-4.043-13.086-7-19-.73-1.461-.517-11.5-2-11.5 0 3.507 2.01 14-1 14v18l7 11c7.638 0 8.132 19 18 19l1 1h1l1 1Z"/><path fill="#FE8D9D" id="IntG" d="M137 164c0 2.729-.423 1-2 1l-4-3v-2c0-1.048-.473-3 1-3h1c0 2.945 4 5.478 4 7Z"/><path fill="#CAC7CB" id="fiber tracts" d="M329 194c0 6.837-7 10.989-7 17l5.5-6c6.556-3.278 15.5-20.609 15.5-28l-10.5 20c-3.074 0-.5-4.791-.5-5.5 0-4.604 4.034-10.068 6-14 .763-1.526 5-5.225 5-1.5 2.199 0 3-12.219 3-14.5 0-1.19.614-4.5-1-4.5 0 4.383-.196 8.892-2 12.5-1.648 3.296-8 6.441-8 9.5 0 1.45-3.126 7-5 7 0 2.707-1 5.903-1 8Z"/><path fill="#A8AAAA" id="VL" fill-rule="evenodd" d="M360 212c0 .749-3.66 1.92-1.5 3 1.546.773 3.887-3 1.5-3m-2 9h1l2-1h1l1-1c7.394 0 12.256-19 17-19l5-6 2-4v-1c0-1.145-.579-4 1-4v-13c0-1.448-3.736-5.027-2-8.5.446-.893 2.453-6.5 0-6.5 0 15.605-6.904 30.404-18 41.5-3.49 3.49-22 19.614-22 22.5 0 3.54 8.827 0 12 0Z"/><path fill="#FD7F83" id="MGm" d="M151 173c3.395 0 6.106 2 10 2 0-3.79 5.852-16-5-16l-5.5 6c-.977.488-7.717 1.065-6.5 3.5l7 4.5ZM305 173c-3.071 0-5.362 2-9 2 0-1.6-7.206-16 4-16 3.567 0 4.22 5.36 7.5 7 .906.453 6.73.041 5.5 2.5l-8 4.5Z"/><path fill="#F0483B" id="ZI" d="M178 205c0 8.057-13.507 2-17 2-8.592 0-20.553-20-30-20 0-3.541-5-6.151-5-9 2.144 0 .381-4.262 1-5.5.572-1.145 4-9.769 4-10.5l4 3c0 2.618 10.777 9 13 9l1 1h1l9 7 6.5 5c3.171 1.586 12.5 15.318 12.5 18ZM279 205c0 8.139 11.881 2 16 2 9.003 0 20.846-20 30-20 0-3.014 5-6.414 5-9 0-2.294-2.529-16-5-16l-4 4c0 1.629-11.12 8-13 8l-1 1-9 6c0 2.631-19 14.587-19 24Z"/><path fill="#FF6F80" id="TH" d="m320 163-1 1 1-1Z"/><path fill="#C7CAC9" id="fr" d="M207 171c1.585 0 1.571-4.965 3.5-4 14.988 7.494-3.5 31.34-3.5 5v-1ZM245 167c0 .273-4.336 6.171-5 7.5-1.078 2.157 1.542 10.979 4.5 9.5 4.437-2.219 8.06-17 .5-17Z"/><path fill="#0D9F91" id="ECT2/3" d="m34 187 12 3-6-20-1-1c0 .926-8.751 2-10 2 0 3.504 4.525 5.551 6 8.5l-1 7.5Z"/><path fill="#0D9E90" id="ECT5" d="m58 194-1 1c0-1.13-9.524-5-11-5l-6-20h12c0 9.146 6 15.412 6 24ZM399 195h1c0-2.246 8.003-4 10-4l1-1c0-7.214 5-12.824 5-20h-11c0 8.686-7 15.758-7 24l1 1Z"/><path fill="#0D9F91" id="ECT2/3" d="M411 190v1c.34 0 8.526-4 11-4 0-8.429 5-12.71 5-16-1.242 0-9-1.019-9-2h-1l-1 1c0 7.176-5 12.786-5 20Z"/><path fill="#0E9F91" id="ECT6a" d="M58 194h3l4-1v-7c-1.952 0-.477-2.454-1-3.5-1.45-2.899-2-9.259-2-12.5H52c0 9.146 6 15.412 6 24Z"/><path fill="#0E9F90" id="ECT6b" d="m63 170 2 16c-1.952 0-.477-2.454-1-3.5-1.45-2.899-2-9.259-2-12.5h1ZM394 170c0 4.848.049 11.401-2 15.5-.523 1.046.951 3.5-1 3.5l2-19h1Z"/><path fill="#0E9F91" id="ECT6a" d="M395 194h3c0-8.242 7-15.314 7-24h-11c0 4.848.049 11.401-2 15.5-.523 1.046.951 3.5-1 3.5v4l4 1Z"/><path fill="#0D9F90" id="ECT1" d="m28 186 6 1 1-7.5c-1.475-2.949-6-4.996-6-8.5l-5 2c0 2.296 4 5.122 4 13Z"/><path fill="#FE8084" id="SPFp" d="M184 182h3l2-1h3l1-1c3.147 0 6-1.922 6-5-5.445 0-10.493-4-17-4-1.921 0-15 3.609-15 5l1 2 5 1 1 1h2l1 1h2c1.235 0 5-.643 5 1ZM269 182h3c0-1.643 3.765-1 5-1h3l1-1c3.078 0 6.325-3 9-3v-1c-4.604 0-10.206-5-15-5-6.766 0-12.325 4-17 4h-1c0 2.226 1.774 4 4 4l1 1 6 1 1 1Z"/><path fill="#0D9F90" id="ECT1" d="M428 186c-1.564 0-3.876 1-6 1 0-8.429 5-12.71 5-16h1l5 2c0 .586-5 5.934-5 13Z"/><path fill="#CACCC8" id="ml" d="M182 182c0 .937 6.867 3.235 8 5.5 1.212 2.423-1.477 2.5-3 2.5-9.68 0-17.169-10-26-10l-9-5-1-2c3.395 0 6.106 2 10 2l2 1h1l4 2 5 1 1 1h2l1 1h2c0 1.473 1.952 1 3 1ZM275 182c0 1.013-6.985 2.47-8 4.5-1.377 2.754.065 3.5 3 3.5 9.298 0 16.444-10 25-10l10-5v-2c-3.071 0-5.362 2-9 2h-1l-2 1c0 1.473-1.952 1-3 1-2.675 0-5.922 3-9 3l-1 1h-3l-2 1Z"/><path fill="#E64438" id="HY" d="m148 174 1 1-1-1ZM308 174l-1 1 1-1Z"/><path fill="#CACCCB" id="opt" d="M343 176v1l-10.5 20c-3.074 0-.5-4.791-.5-5.5 0-4.604 4.034-10.068 6-14 .763-1.526 5-5.225 5-1.5ZM114 175c0 4.966 4.817 13.134 7 17.5.47.939 2.291 5.104 3.5 4.5 2.938-1.469-4.89-22-10.5-22Z"/><path fill="#E64438" id="HY" d="M161 180c-3.162 0-2-.109-2 2l-9-7h2l9 5Z"/><path fill="#FF6F80" id="TH" d="m161 175 2 1-2-1ZM295 175l-2 1 2-1Z"/><path fill="#E64438" id="HY" d="M295 180c1.048 0 3-.473 3 1l9-6h-2l-10 5Z"/><path fill="#FF6F80" id="TH" d="m167 176 1 2-4-2h3ZM293 176c0 1.473-1.952 1-3 1v-1h3Z"/><path fill="#FD8F9E" id="SubG" d="m127 186 4 1c0-3.541-5-6.151-5-9-1.145 0-4-.579-4 1 0 1.884 2.575 7 5 7ZM330 186l-5 1c0-3.014 5-6.414 5-9l5 1c0 1.45-3.126 7-5 7Z"/><path fill="#FF6F80" id="TH" d="m173 179 1 1-1-1ZM261 179l1 1-1-1Z"/><path fill="#F24739" id="FF" d="M178 205c.945 0 6.223 4 11 4 3.308 0 5.696-10.108 4-13.5-.845-1.689-6-4.287-6-5.5-9.68 0-17.169-10-26-10-3.162 0-2-.109-2 2l6.5 5c3.171 1.586 12.5 15.318 12.5 18Z"/><path fill="#FF6F80" id="TH" d="m176 180 1 1-1-1ZM193 180l-1 1 1-1ZM281 180l-1 1 1-1Z"/><path fill="#F24739" id="FF" d="M279 205c-3.299 0-6.485 4-11 4-3.087 0-6.497-9.506-5-12.5.85-1.701 7-6.307 7-6.5 9.298 0 16.444-10 25-10 1.048 0 3-.473 3 1 0 2.631-19 14.587-19 24Z"/><path fill="#FF6F80" id="TH" d="M182 182h2c0-1.643-3.765-1-5-1 0 1.473 1.952 1 3 1ZM189 181l-2 1 2-1ZM268 181l1 1-1-1ZM272 182h3l2-1c-1.235 0-5-.643-5 1Z"/><path fill="#0E9584" id="PERI1" d="m34 197-7 1c0-3.962 1-8.688 1-12l6 1v10ZM423 197c2.124 0 4.436 1 6 1l1-8.5-2-3.5c-1.564 0-3.876 1-6 1v10h1Z"/><path fill="#0E9583" id="PERI2/3" d="M34 197h7l7-1-2-6-12-3v10Z"/><path fill="#FF64FF" id="MB" d="M231 193c-1.577 0-2 1.762-2 3-1.429 0-4-3.939-4-5 2.641 0 2-1.823 2-4l2 3c0 1.473 1.952 1 3 1v1l-1 1Z"/><path fill="#0E9583" id="PERI2/3" d="M415 197h7v-10c-2.474 0-10.66 4-11 4h-1l-2 5 7 1Z"/><path fill="#0E9F90" id="ECT6b" d="M65 193h2c0-1.041-.986-5-2-5v5Z"/><path fill="#FD4B3C" id="PH" d="M227 224c0-1.919 2-2.488 2 0l8-1 1-1 1-1c0-3.395 2-6.106 2-10l1-6c0-5.388 2.575-16-7-16l-2 2-1 1-1 1c0 1.238-.423 3-2 3 0 4.24-5-3.1-5-5l-1-1c-11.378 0-9 6.124-9 15 0 1.564 1 3.876 1 6l2 9c1.577 0 2 1.762 2 3l8 1Z"/><path fill="#0E9F90" id="ECT6b" d="M390 193h1v-4c-1.579 0-1 2.855-1 4Z"/><path fill="#0F9684" id="PERI5" d="M48 196h1c2.097 0 5.293-1 8-1 0-1.13-9.524-5-11-5l2 6ZM410 191h1v-1l-1 1Z"/><path fill="#CCCAC7" id="cpd" d="m171 242 4 1c0-1.585 5.545-2.41 4-5.5-1.607-3.214-10-4.062-10-7.5h-1l-1-1c-3.083 0-16-12.508-16-13l-10-10.5 1-8-3-4c-2.042-4.085-11-3.782-11 1.5 0 6.81 7 11.081 7 17l15 17h1l4 4h1l2 2h1l2 2h1c1.178 0 6 2.572 6 4h1l2 1Z"/><path fill="#E64438" id="HY" d="M225 191c0 1.061 2.571 5 4 5 0 4.24-5-3.1-5-5h1ZM233 191l-1 1v-1h1Z"/><path fill="#CCCAC7" id="cpd" d="M281 243h3l1-1 3-1h1l1-1 1-1h1l1-1 1-1h1l1-1 1-1h1l1-1 2-1 1-1 1-1h1l1-1 1-1 1-1 1-1h1c0-1.747.253-2 2-2 0-1.747.253-2 2-2 0-1.747.253-2 2-2 0-3.587 6-5.655 6-9l1-1c0-6.011 7-10.163 7-17-1.296 0-8.787-8.926-15 3.5-2.742 5.484 5.299 4.701-4.5 14.5l-3.5 3-1 1c0 2.436-13.623 13-16 13l-1 1c0 2.083-8.514 4.529-10 7.5-1.634 3.269 3 3.957 3 5.5Z"/><path fill="#0F9684" id="PERI5" d="m400 195 8 1 2-5c-1.997 0-10 1.754-10 4Z"/><path fill="#E64438" id="HY" d="m232 192-1 1 1-1Z"/><path fill="#A0EE9C" id="EPd" d="M72 230h1c0-1.712 2.571-3 4-3l2-8v-2c-1.87 0-3-7.329-3-9-1.325 0-2.43-5.361-3-6.5l-6-8.5h-2l-4 1v11.5c2.423 4.846 6 10.947 6 15.5l1 2 4 7Z"/><path fill="#E64438" id="HY" d="M231 193c-1.577 0-2 1.762-2 3 1.577 0 2-1.762 2-3Z"/><path fill="#A0EE9C" id="EPd" d="m380 227 4 3 4-6 1-1v-2c0-4.837 3.928-10.356 6-14.5V194l-4-1h-1c-2.966 0-9.068 16-10 16 0 1.257-.941 8-2 8 0 3.77 2 7.021 2 10Z"/><path fill="#32B824" id="ENTl6a" d="M65 221h2c0-4.553-3.577-10.654-6-15.5V194h-3l-1 1c0 9.543 8 16.977 8 26ZM389 221h2c0-8.286 8-15.881 8-26l-1-1h-3v12.5c-2.072 4.144-6 9.663-6 14.5Z"/><path fill="#31B824" id="ENTl5" d="m65 221-8 1c0-6.351-8-16.339-8-26 2.097 0 5.293-1 8-1 0 9.543 8 16.977 8 26ZM391 221l8 1c0-3.813 9-18.52 9-26l-8-1h-1c0 10.119-8 17.714-8 26Z"/><path fill="#32B725" id="ENTl3" d="m57 222-9 1c0-8.62-7-17.111-7-26l7-1h1c0 9.661 8 19.649 8 26ZM399 222l9 1c0-7.734 7-16.904 7-26l-7-1c0 7.48-9 22.187-9 26Z"/><path fill="#32B722" id="ENTl1" d="m43 225-4 2c0-6.2-12-20.862-12-29l7-1c0 4.565 5.805 28 9 28Z"/><path fill="#32B825" id="ENTl2" d="M48 223c0 2.461-3.378 2-5 2-3.195 0-9-23.435-9-28h7c0 8.889 7 17.38 7 26ZM408 223c0 1.995 4.377 2 6 2 1.59 0 1.443-4.386 2-5.5 3.224-6.449 7-14.907 7-22.5h-8c0 9.096-7 18.266-7 26Z"/><path fill="#32B722" id="ENTl1" d="M414 225c0 1.577 1.762 2 3 2 1.728 0 3.305-7.11 4-8.5 2.958-5.917 8-13.568 8-20.5-1.564 0-3.876-1-6-1 0 7.593-3.776 16.051-7 22.5-.557 1.114-.41 5.5-2 5.5Z"/><path fill="#90EB8D" id="LA" d="M80 227v1c.568 0 2.885-4.192 4.5-5 3.407-1.703 8.43-1 12.5-1v-1h-1l-1-1-1-1c-9.868 0-10.362-19-18-19v2l1 4c0 3.982 2 6.704 2 11v2c1.735 0 1 6.51 1 8ZM377 227l-1 1c0-6.997-11.176-6-16-6v-1l1-1h1l1-1c7.394 0 12.256-19 17-19l1 2v1l-1 2v1l-1 1-1 8c-1.781 0-1 10.176-1 12Z"/><path fill="#8AD987" id="CTXsp" d="M76 206h1l-1-4h-1l1 4ZM381 203l-1 2 1-2Z"/><path fill="#E64438" id="HY" d="M161 207c0 5.546 28 10.673 28 2-4.777 0-10.055-4-11-4 0 8.057-13.507 2-17 2Z"/><path fill="#C8C8C8" id="mtg" d="M214 205c-1.808 0-5.014 8-1.5 8l2.5-2c0-2.124-1-4.436-1-6ZM242 205c2.754 0 5.697 6.401 2.5 8l-3.5-2 1-6Z"/><path fill="#E64438" id="HY" d="M295 207c0 5.466-27 11.013-27 2 4.515 0 7.701-4 11-4 0 8.139 11.881 2 16 2Z"/><path fill="#C8C9CB" id="amc" d="M76 208c0 1.671 1.13 9 3 9 0-4.296-2-7.018-2-11h-1v2Z"/><path fill="#8AD987" id="CTXsp" d="M379 207h1v-1l-1 1Z"/><path fill="#C8C9CB" id="amc" d="M378 215v2c1.059 0 2-6.743 2-8v-2h-1l-1 8Z"/><path fill="#FF8DFD" id="SNr" d="M168 230h1c17.454 0-2.077-9.577-4-11.5l-9.5-10.5c-2.105-1.052-5.549.599-6.5 2.5l2 5.5c0 .492 12.917 13 16 13l1 1ZM289 229l-1 1c-17.005 0-.737-9.382 4.5-12 1.631-.816 10.283-16.933 14.5-8.5l-1 5.5-1 1c0 2.436-13.623 13-16 13Z"/><path fill="#CAC7CB" id="fiber tracts" d="m322 211-1 1 1-1Z"/><path fill="#A9AAA8" id="chpl" d="M95 212c0 5.369 6.369 0 0 0ZM360 212c0 .749-3.66 1.92-1.5 3 1.546.773 3.887-3 1.5-3Z"/><path fill="#FF64FF" id="MB" d="m306 215-1 1 1-1Z"/><path fill="#8AD987" id="CTXsp" d="M377 227h3c0-2.979-2-6.23-2-10v-2c-1.781 0-1 10.176-1 12ZM77 227h3c0-1.49.735-8-1-8l-2 8ZM363 219l-1 1 1-1ZM96 220v1l-1-1h1Z"/><path fill="#CBCCCB" id="mfb" d="M194 231c1.235 0 5-.643 5 1l6-7v-1c0-7.954-11-3.939-11 5v2Z"/><path fill="#E64438" id="HY" d="m216 222 3 1c0-1.238-.423-3-2-3l-1 2Z"/><path fill="#CBCCCB" id="mfb" d="M263 231c-2.124 0-4.436 1-6 1 0-2.714-6-5.438-6-7v-2c2.378 0 12-9.407 12 6v2Z"/><path fill="#6ACAB9" id="PIR" d="M79 262c0 6.274-8 18.771-8 20-3.489 0-9.78-10.059-11-12.5-4.737-9.475-21-32.321-21-42.5l4-2c1.622 0 5 .461 5-2l9-1 8-1c0 1.577 1.762 2 3 2l4 7 1 1c0 6.09-.568 15.365 2 20.5l4 9.5v1Z"/><path fill="#99D2BD" id="OLF" d="m67 221 1 2c-1.238 0-3-.423-3-2h2Z"/><path fill="#8AD987" id="CTXsp" d="m97 222 3 1-2-2h-1v1Z"/><path fill="#E64438" id="HY" d="M238 222h2l-1-1-1 1Z"/><path fill="#C7C8CC" id="alv" d="M315 221c-1.747 0-2 .253-2 2l2-2Z"/><path fill="#8AD987" id="CTXsp" d="M358 222h2v-1h-2v1Z"/><path fill="#99D2BD" id="OLF" d="m391 221-2 2v-2h2Z"/><path fill="#6ACAB9" id="PIR" d="M377 262c0 6.092 8 16.324 8 20l10.5-11c5.905-5.905 21.5-36.206 21.5-44-1.238 0-3-.423-3-2-1.623 0-6-.005-6-2l-9-1-8-1-2 2-1 1-4 6c0 5.884-.429 17.358-3 22.5l-3 8.5-1 1Z"/><path fill="#9DE69C" id="BLAp" d="M87 251h3l1-1c0-.182 14-21.796 14-22l-1-3-4-2-3-1c-4.07 0-9.093-.703-12.5 1-1.615.808-3.932 5-4.5 5l1 14.5c.969 1.937 6 7.405 6 8.5Z"/><path fill="#FF493D" id="SUM" d="M263 244h1c0-1.204-7-2.311-7-12 0-2.714-6-5.438-6-7l-3-2-8-1h-2l-1 1-8 1c0 1.399-2 1.399-2 0l-8-1-3-1-8 1c0 1.577-1.762 2-3 2l-6 7v7l10-5c0-7.466 7-8.688 7-1 4.639 0 12.246 4.627 17.5 2l6.5-2c0-4.506 7-11.901 7 1 2.635 0 14 6.623 14 10h2Z"/><path fill="#E64438" id="HY" d="M227 224c0 1.399 2 1.399 2 0 0-2.488-2-1.919-2 0ZM238 222l-1 1 1-1Z"/><path fill="#8AD987" id="CTXsp" d="m358 222-1 1 1-1Z"/><path fill="#9DE69C" id="BLAp" d="M366 251h3c7.3 0 7-19.181 7-23 0-6.997-11.176-6-16-6h-2l-1 1-5 2-1 1 1 3c3.459 0 7.467 12.435 9 15.5l5 6.5Z"/><path fill="#F1483A" id="PSTN" d="m187 231-2 2-3-9.5c.915-1.83 4.517 2.034 5 3 .898 1.796 0 3.154 0 4.5Z"/><path fill="#E64438" id="HY" d="M205 224v1c1.238 0 3-.423 3-2l-3 1ZM251 223v2l-3-2h3Z"/><path fill="#F1483A" id="PSTN" d="m270 232 2 1 2-9.5c-.857-1.715-3.557 1.114-4 2-1.476 2.953 0 3.862 0 6.5Z"/><path fill="#C7C8CC" id="alv" d="M313 223c-1.747 0-2 .253-2 2l2-2Z"/><path fill="#99D2BD" id="OLF" d="m389 223-1 1 1-1Z"/><path fill="#8AD987" id="CTXsp" d="m105 228 5 1c0-1.617-4.583-4-6-4l1 3Z"/><path fill="#C7C8CC" id="alv" d="M311 225c-1.747 0-2 .253-2 2l2-2Z"/><path fill="#8AD987" id="CTXsp" d="m352 225-1 1 1-1ZM348 228l4 1-1-3c-1.238 0-3 .423-3 2Z"/><path fill="#A0ED9D" id="EPv" d="M79 261h1c1.668 0 6-3.099 6-5l1-1v-4c0-1.095-5.031-6.563-6-8.5L80 228v-1h-3c-1.429 0-4 1.288-4 3v1c0 6.09-.568 15.365 2 20.5l4 9.5Z"/><path fill="#C8CBCA" id="pm" d="M215 234c0 1.579-2.855 1-4 1l-2-1c0-7.466 7-8.688 7-1l-1 1ZM247 234l-2 1-4-1-1-1c0-4.506 7-11.901 7 1Z"/><path fill="#C7C8CC" id="alv" d="m308 227-1 1 1-1Z"/><path fill="#A0ED9D" id="EPv" d="M377 261h1l3-8.5c2.571-5.142 3-16.616 3-22.5l-4-3h-3l-1 1c0 3.819.3 23-7 23l1 4c0 2.863 4.368 6 7 6Z"/><path fill="#84E981" id="BMAp" d="M93 264h3l7-5c0-3.656 14-14.315 14-21l-1-3v-1l-3-3-3-2-5-1c0 .204-14 21.818-14 22l-1 1v6c0 2.607 3 4.913 3 7Z"/><path fill="#C7C8CC" id="alv" d="m307 228-1 1 1-1Z"/><path fill="#8AD987" id="CTXsp" d="m348 228-1 1 1-1Z"/><path fill="#84E981" id="BMAp" d="m363 264-2 1-8-6c0-3.381-14-15.13-14-21 1.473 0 1-1.952 1-3l1-1v-1l2-2h1l1-1 2-1 1-1 4 1c3.459 0 7.467 12.435 9 15.5l5 6.5 1 5c0 1.347-2.314 8-4 8Z"/><path fill="#C7C8CC" id="alv" d="m151 229 4 4-4-4Z"/><path fill="#FF64FF" id="MB" d="m167 229 1 1-1-1Z"/><path fill="#E64438" id="HY" d="m185 233-2 4c4.058 0 7.012-6 11-6v-2l-7 2-2 2ZM272 233l4 7-13-9v-2l7 3 2 1Z"/><path fill="#FF64FF" id="MB" d="m289 229-1 1 1-1Z"/><path fill="#C7C8CC" id="alv" d="m306 229-1 1 1-1Z"/><path fill="#8AD987" id="CTXsp" d="M73 230v1l-1-1h1Z"/><path fill="#C7C8CC" id="alv" d="m305 230-1 1 1-1Z"/><path fill="#8AD987" id="CTXsp" d="m345 230-1 1 1-1ZM116 233v1l-3-3h1l2 2Z"/><path fill="#CAC7CB" id="fiber tracts" d="M133 235c0 1.643-3.765 1-5 1 0-1.485-10.13-3-12-3l-2-2c5.263 0 9.23 2 14 2 1.041 0 5 .986 5 2Z"/><path fill="#F2483A" id="LHA" d="m179 248 2 1c4.814 0 7.163-5 11-5 0-1.077 3.762-3 5-3l2-2v-7c0-1.643-3.765-1-5-1-3.988 0-6.942 6-11 6l-1 1-1 1c0 1.714-2 3.482-2 6v3ZM275 249h2l1-4-2-5-13-9c-2.124 0-4.436 1-6 1 0 9.689 7 10.796 7 12 4.046 0 6.277 5 11 5Z"/><path fill="#C7C8CC" id="alv" d="m303 231-1 1 1-1Z"/><path fill="#CAC7CB" id="fiber tracts" d="M323 235c1.564 0 3.876 1 6 1 0-1.485 10.13-3 12-3l2-2c-5.388 0-9.76 2-14.5 2-1.21 0-5.5.814-5.5 2Z"/><path fill="#C7C8CC" id="alv" d="m302 232-1 1 1-1Z"/><path fill="#C8CBC7" id="st" d="M128 236c-2.389 0-5.987 1-9 1l-3-2v-2c1.87 0 12 1.515 12 3Z"/><path fill="#C7C8CC" id="alv" d="m156 233 2 2-2-2Z"/><path fill="#FD4B3E" id="Mmme" d="M225 255h6c0-2.96 2.399-4 5-4 0-4.957-3.754-17 5-17l-1-1-6.5 2c-5.254 2.627-12.861-2-17.5-2l-1 1c8.204 0 6 11.225 6 17 2.881 0 4 1.292 4 4Z"/><path fill="#C7C8CC" id="alv" d="m301 233-2 1 2-1ZM317 234h1l1-1-2 1Z"/><path fill="#C8CBC7" id="st" d="M329 236c0 1.751 7.426 1 9 1l2-2 1-1v-1c-1.87 0-12 1.515-12 3Z"/><path fill="#7DCD4B" id="HPF" d="m160 255-7 1c0-2.783-11.994-20-14-20v-2h1l1 1c5.161 0 10.133 6.766 12 10.5.69 1.381-.472 7.5 2.5 7.5l3.5-2 1 4Z"/><path fill="#C7C8CC" id="alv" d="m140 234 1 1-1-1Z"/><path fill="#FC4B3E" id="Mml" d="m196 253 4 1c2.7 0 4.762-3 8-3l3-16-2-1-10 5c0 1.747-.253 2-2 2l-1 2-1 1v1l1 8Z"/><path fill="#FE4A3C" id="Mmm" d="M208 251h13c0-5.775 2.204-17-6-17 0 1.579-2.855 1-4 1l-3 16ZM236 251h12c0-5.937-3-10.645-3-16l-4-1c-8.754 0-5 12.043-5 17Z"/><path fill="#FC4B3E" id="Mml" d="M260 252c0 2.109-2.535 2-4 2-2.7 0-4.762-3-8-3 0-5.937-3-10.645-3-16l2-1c2.635 0 14 6.623 14 10l1 1-2 7Z"/><path fill="#C7C8CC" id="alv" d="m299 234-1 1 1-1ZM316 234l-1 1 1-1Z"/><path fill="#7DCD4B" id="HPF" d="m296 255 7 1c0-7.064 14-14.845 14-20l1-2h-2l-1 1c-4.982 0-10.107 7.715-12 11.5l-.5 5.5c-2.769 1.384-2.649-1-5.5-1l-1 4Z"/><path fill="#8AD987" id="CTXsp" d="m341 234-1 1 1-1ZM119 237l-2 1-1-3 3 2Z"/><path fill="#97EC93" id="PA" d="m113 259 7.5-5c6.464-3.232 25.5.706 25.5 8l7-6c0-2.783-11.994-20-14-20l-6-1c0 1.643-3.765 1-5 1-2.389 0-5.987 1-9 1l-2 1c0 6.685-14 17.344-14 21h10Z"/><path fill="#C7C8CC" id="alv" d="m159 235 2 2-2-2ZM297 235l-1 1 1-1Z"/><path fill="#97EC93" id="PA" d="M343 259h10c0-3.381-14-15.13-14-21l-1-1c-1.574 0-9 .751-9-1-2.124 0-4.436-1-6-1l-6 1c0 5.155-14 12.936-14 20l7 5c2.137 0 9.191-6.846 11.5-8 8.202-4.101 18.464 6 21.5 6Z"/><path fill="#8AD987" id="CTXsp" d="m338 237 1 1c1.473 0 1-1.952 1-3l-2 2Z"/><path fill="#C7C8CC" id="alv" d="m296 236-1 1 1-1ZM167 241h1c0-1.428-4.822-4-6-4l4 4h1Z"/><path fill="#E64438" id="HY" d="m183 237-1 1 1-1Z"/><path fill="#C7C8CC" id="alv" d="m294 237-1 1 1-1Z"/><path fill="#E64438" id="HY" d="m182 238-1 1 1-1Z"/><path fill="#C7C8CC" id="alv" d="m293 238-1 1 1-1Z"/><path fill="#FF493D" id="SUM" d="m199 239-2 2c1.747 0 2-.253 2-2Z"/><path fill="#C7C8CC" id="alv" d="m291 239-1 1 1-1ZM289 241h1v-1l-1 1Z"/><path fill="#7ECE4A" id="DG-po" d="m167 241-1 1v-1h1Z"/><path fill="#65A83D" id="DG-sg" d="M163 245c-1.577 0-2 1.762-2 3 0 1.953 8-3.451 8-7h-2l-1 1-1 1-1 1-1 1Z"/><path fill="#7BD04A" id="DG-mo" d="M160 255h4l2-1c3.551 0 8.942-6.616 7-10.5l-2-1.5-2-1c0 3.549-8 8.953-8 7-1.577 0-2 1.762-2 3l1 4Z"/><path fill="#FF493D" id="SUM" d="M194 244h1l1-1 1-2c-1.238 0-5 1.923-5 3h2Z"/><path fill="#7BD04A" id="DG-mo" d="M292 255h4l1-4-1-3c-3.189 0-8-1.852-8-7l-3 1-1 1c0 3.044-.948 10 5 10l3 2Z"/><path fill="#65A83D" id="DG-sg" d="M293 245c1.539 0 3 1.342 3 3-3.189 0-8-1.852-8-7h2c0 1.429 1.288 4 3 4Z"/><path fill="#7ECE4A" id="DG-po" d="M290 241c.966 0 3 2.886 3 4-1.712 0-3-2.571-3-4ZM166 242l-1 1 1-1ZM165 243l-1 1 1-1Z"/><path fill="#E64438" id="HY" d="m196 243-1 1 1-1Z"/><path fill="#7ECE4A" id="DG-po" d="m164 244-1 1 1-1Z"/><path fill="#FF4B3D" id="LM" d="m184 257 2 1c4.364 0 7.74-5 10-5l-1-8-1-1h-2c-3.837 0-6.186 5-11 5v5l1 1 1 1 1 1Z"/><path fill="#E64438" id="HY" d="M195 244v1l-1-1h1ZM263 244l-1 1-1-1h2Z"/><path fill="#FF4B3D" id="LM" d="m272 257-1 1c-5.013 0-10.378-6-11-6l2-7 1-1h1c4.046 0 6.277 5 11 5l1 3-1 1-1 2-1 1-1 1Z"/><path fill="#E64438" id="HY" d="M181 249v4c-1.638 0-2-3.576-2-5l2 1ZM277 249c0 1.048.473 3-1 3l-1-3h2Z"/><path fill="#8AD987" id="CTXsp" d="m91 250-1 1 1-1Z"/><path fill="#FC4C3E" id="PMd" d="M217 261h2l5-5 1-1c0-2.708-1.119-4-4-4h-13c-3.238 0-5.3 3-8 3 0 3.566 4 4.833 4 6l11 1h2ZM239 261h2l11-1c0-.686 4-1.016 4-6-2.7 0-4.762-3-8-3h-12c-2.601 0-5 1.04-5 4l1 1c2.696 0 3.847 5 7 5Z"/><path fill="#8AD987" id="CTXsp" d="m87 255 3 2v-6h-3v4ZM370 255l-3 1-1-5h3l1 4Z"/><path fill="#E64438" id="HY" d="M252 260c5.613 0 8 .635 8 5 1.693 0 11-5.616 11-7-5.013 0-10.378-6-11-6 0 2.109-2.535 2-4 2 0 4.984-4 5.314-4 6ZM276 252l-1 1 1-1Z"/><path fill="#60E6B5" id="COApm" d="m146 262-6 6.5c-2.207 2.207-19.086 16.5-21 16.5 0-2.262-4.869-8.239-6-10.5-2.285-4.57 0-11.061 0-15.5l7.5-5c6.464-3.232 25.5.706 25.5 8Z"/><path fill="#E64438" id="HY" d="M204 260c-2.06 0-9.888.723-8 4.5l2 2.5-12-9c4.364 0 7.74-5 10-5l4 1c0 3.566 4 4.833 4 6Z"/><path fill="#7DCD4B" id="HPF" d="m289 253 3 2c-1.238 0-3-.423-3-2Z"/><path fill="#60E6B5" id="COApm" d="M310 261c0 2.245 24.178 23 27 23 7.865 0 6-20.077 6-25-3.036 0-13.298-10.101-21.5-6-2.309 1.154-9.363 8-11.5 8Z"/><path fill="#7DCD4B" id="HPF" d="m166 254-2 1 2-1Z"/><path fill="#E64438" id="HY" d="m181 254 1 1-1-1Z"/><path fill="#8AD987" id="CTXsp" d="m87 255-1 1 1-1Z"/><path fill="#59D9AA" id="PAA" d="m90 287-3 3c-3.352 0-16-3.504-16-8 0-1.229 8-13.726 8-20l1-1c1.668 0 6-3.099 6-5l1-1 3 2c0 2.607 3 4.913 3 7l1 3c0 6.541-4 13.002-4 20Z"/><path fill="#E64438" id="HY" d="M225 260h6l1-4-1-1h-6l-1 1c1.579 0 1 2.855 1 4ZM274 255l-1 1 1-1Z"/><path fill="#59D9AA" id="PAA" d="m367 289 2 1c3.733 0 16-2.507 16-8 0-3.676-8-13.908-8-20v-1c-2.632 0-7-3.137-7-6l-3 1c0 1.347-2.314 8-4 8v4l4 21Z"/><path fill="#E64438" id="HY" d="m183 256 1 1-1-1Z"/><path fill="#FC4C3D" id="TMd" d="M219 261h6v-1c0-1.145.579-4-1-4l-5 5ZM239 261v1l-8-1v-1l1-4c2.696 0 3.847 5 7 5Z"/><path fill="#E64438" id="HY" d="m272 257-1 1 1-1Z"/><path fill="#5FE6B7" id="COApl" d="M90 287v3l15.5 2 13.5-7c0-2.262-4.869-8.239-6-10.5-2.285-4.57 0-11.061 0-15.5h-10l-7 5-2 3c0 6.541-4 13.002-4 20Z"/><path fill="#A8A9AA" id="V3" d="M225 261c0 8.388 6 9.434 6 0v-1h-6v1Z"/><path fill="#5FE6B7" id="COApl" d="M367 289v1c-13.738 0-11.737 3.881-25.5-3l-4.5-3c7.865 0 6-20.077 6-25h10l8 6 2 3 4 21Z"/><path fill="#FF4B3B" id="PMv" d="m204 269 8 1 4-7-1-2-11-1c-2.06 0-9.888.723-8 4.5l2 2.5h1l4 2h1ZM244 270h7l2-1 2-1h1l1-1h1l1-1 1-1c0-4.365-2.387-5-8-5l-11 1v2l3 7Z"/><path fill="#99D2BD" id="OLF" d="m80 261-1 1v-1h1Z"/><path fill="#E64438" id="HY" d="m217 262-1 1-1-2h2v1Z"/><path fill="#FC4C3D" id="TMd" d="m219 261-2 1v-1h2Z"/><path fill="#FF5447" id="PVp" d="M213 273c2.895 0 10.746 4.377 13.5 3 .69-.345 14.651-3 16.5-3l1-3-3-7-2-1-8-1c0 9.434-6 8.388-6 0h-6l-2 1-1 1-4 7 1 3Z"/><path fill="#E64438" id="HY" d="m239 262 2 1v-2h-2v1Z"/><path fill="#99D2BD" id="OLF" d="m378 261-1 1v-1h1ZM96 264l-2 3-1-3h3ZM361 265l2 3v-4l-2 1Z"/><path fill="#E64438" id="HY" d="m260 265-1 1 1-1ZM259 266l-1 1 1-1ZM199 267l4 2-4-2ZM257 267l-1 1 1-1ZM255 268l-2 1 2-1ZM212 270l1 3c-1.048 0-9-3.08-9-4l8 1ZM253 269l-2 1 2-1ZM251 270c0 .616-6.93 3-8 3l1-3h7Z"/><path fill="#99D2BD" id="OLF" d="M87 290h3v-3l-3 3ZM367 290h2l-2-1v1Z"/></svg>