<svg xmlns="http://www.w3.org/2000/svg" viewBox="0 0 456 320"><path fill="#FF64FF" id="MB" d="M269 120c2.971 0 4.768 3 7 3 0-3.425-7-5.927-7-10-2.676 0-10.388-23.277-12-26.5-3.149-6.297-12.607-31.446-4.5-35.5 7.443-3.721 13.907 0 21.5 0 0-2.729-5.007-1.254-6.5-2-7.24-3.62-23.615.808-30 4-4.474 2.237-4.309 6.31-7.5 9.5l-1.5 3.5-2.5-4.5c-1.632-3.263-4.158-6.83-7.5-8.5-5.607-2.804-23.653-7.174-30-4-1.3.65-6.5.007-6.5 2 11.347 0 13.269-3.615 24.5 2 3.1 1.55.5 6.688.5 9 0 7.539-4.705 18.91-8 25.5-1.618 3.237-8.654 25.5-12 25.5l-4 8 4-1c0-5.518 13.155-21.81 16-27.5l6-6.5c-1.156 0-1.472-2.555-1-3.5l8.5-7.5c9.097-4.549 27.719-1.063 32.5 8.5l-1 3.5 6.5 7c3.483 3.483 14.5 21.697 14.5 26Z"/><path fill="#FE79FF" id="ICd" d="M181 58c0 7.132-7.921 22.658-4 30.5 1.168 2.337 10 23.483 10 24.5 3.346 0 10.382-22.263 12-25.5 3.295-6.59 8-17.961 8-25.5 0-2.312 2.6-7.45-.5-9-11.231-5.615-13.153-2-24.5-2l-1 1v6ZM276 58c0 8.25 6.939 25.621 3 33.5-1.201 2.401-10 20.45-10 21.5-2.676 0-10.388-23.277-12-26.5-3.149-6.297-12.607-31.446-4.5-35.5 7.443-3.721 13.907 0 21.5 0h1v1l1 6Z"/><path fill="#FF64FF" id="MB" d="M179 52h2l1-1c-1.048 0-3-.473-3 1ZM275 52h2l-2-1v1Z"/><path fill="#FE79FE" id="ICe" d="M147 85c0 13.42-6.824 21.853 0 35.5 1.242 2.484 6.959 6.5 10.5 6.5 1.278 0 5.5.665 5.5-1 0-1.618-3.132-7.764-4-9.5-5.2-10.4 6.061-37.123 10-45 2.09-4.18 6.28-13.5 12-13.5v-6h-2c-5.283 0-15.788 11-17 11l-1 1-1 1-1 1-1 1-1 1-1 2-1 1-1 1-1 2-1 1-1 2-2 4-2 4ZM303 74l6 11.5c1.588 3.176.451 7.901 2 11 7.006 14.011-2.312 30.5-18 30.5 0-1.654 3.155-6.811 4-8.5 5.136-10.273-5.087-38.174-9-46-1.827-3.653-6.546-14.5-12-14.5l-1-6h2c3.104 0 18 8.76 18 12l1 1 1 1 2 2 1 1 1 1 2 4Z"/><path fill="#098589" id="VISp1" d="M117 79h2c0-5.655 25-19.269 25-24 0-1.701-12.286-3.107-14.5-2l-14 4c-4.654 2.327-8.263 6.632-13 9L95 73c1.511 0 11 1.188 11 3h1c0-2.672 11.909-8.682 14-4.5l-4 7.5ZM338 79h2c0-2.377-5.552-4.397-4-7.5 1.816-3.631 13 1.09 13 4.5h1c0-2.682 11-.905 11-3 0-3.285-9.224-8.862-11.5-10-6.584-3.292-23.152-14.424-32-10l-5.5 2c0 3.381 26 19.549 26 24Z"/><path fill="#1BA696" id="RSPagl1" d="M119 79c3.874 0 6.35 2 10 2 2.615 0 23.981-26 15-26 0 4.731-25 18.345-25 24ZM338 79c-4.847 0-6.593 2-11 2l-5-5.5c-2.538-2.538-17.175-20.5-10-20.5 0 3.381 26 19.549 26 24Z"/><path fill="#FE7AFE" id="ICc" d="M163 126c2.389 0 5.987 1 9 1 0-1.638 3.576-2 5-2 0-1.577 1.762-2 3-2l1-1 1-1h1l4-8c0-1.017-8.832-22.163-10-24.5-3.921-7.842 4-23.368 4-30.5-5.72 0-9.91 9.32-12 13.5-3.939 7.877-15.2 34.6-10 45 .868 1.736 4 7.882 4 9.5ZM277 123l7.5 4h8.5c0-1.654 3.155-6.811 4-8.5 5.136-10.273-5.087-38.174-9-46-1.827-3.653-6.546-14.5-12-14.5 0 8.25 6.939 25.621 3 33.5-1.201 2.401-10 20.45-10 21.5 0 4.073 7 6.575 7 10h1Z"/><path fill="#FF64FF" id="MB" d="m162 63-1 1 1-1ZM295 64l1 1-1-1ZM160 65l-1 1 1-1ZM297 66l2 2-2-2ZM158 67l-1 1 1-1ZM300 69l1 1-1-1Z"/><path fill="#0A828C" id="VISp2/3" d="M116 79h1l4-7.5c-2.091-4.182-14 1.828-14 4.5 1.378 0 9 1.769 9 3Z"/><path fill="#FF64FF" id="MB" d="m156 70-1 1 1-1Z"/><path fill="#0A828C" id="VISp2/3" d="M340 79h1c0-.95 6.869-3 8-3 0-3.41-11.184-8.131-13-4.5-1.552 3.103 4 5.123 4 7.5Z"/><path fill="#FF64FF" id="MB" d="m155 71-1 1 1-1Z"/><path fill="#0A838A" id="VISpl1" d="m81 99-7 3-1-5c0-2.09 14.224-16.724 16.5-19l5.5-5c1.511 0 11 1.188 11 3 0 2.795-24 17.053-24 22l-1 1ZM375 99l8 3c0-.53-1.079-5 1-5l-23-24c0 2.095-11 .318-11 3 1.021 0 20.398 17.296 21 18.5l4 4.5Z"/><path fill="#FF64FF" id="MB" d="m153 74-1 1 1-1Z"/><path fill="#CBC9C9" id="cic" d="M209 86c3.38 0 15.756-9.872 19.5-8 4.385 2.192 9.574 2.787 14 5l5.5 4 1-3.5c-4.781-9.563-23.403-13.049-32.5-8.5l-8.5 7.5c-.472.945-.156 3.5 1 3.5Z"/><path fill="#FF64FF" id="MB" d="M305 130c2.59 0 6-2.192 6 1 2.542 0 5-10.637 5-13 0-7.03.062-20.376-3-26.5-1.239-2.477-8-14.711-8-16.5l-2-1 6 11.5c1.588 3.176.451 7.901 2 11 7.006 14.011-2.312 30.5-18 30.5h-8.5l-7.5-4c0 5.064 23.362 7 28 7Z"/><path fill="#C9C8C8" id="bic" d="m151 77-2 1c0-2.003-.293-3 2-3v2Z"/><path fill="#FF64FF" id="MB" d="m152 75-1 2v-2h1Z"/><path fill="#C9C8C8" id="bic" d="M305 75c5.127 0 13 24.873 13 30.5 0 2.256.311 12.5-2 12.5 0-7.03.062-20.376-3-26.5-1.239-2.477-8-14.711-8-16.5Z"/><path fill="#09848C" id="VISpl2/3" d="M99 97c-5.79 0-11.78 1-17 1 0-4.947 24-19.205 24-22h1c1.378 0 9 1.769 9 3l-4 4.5c-1.836 1.836-13 11.511-13 13.5ZM357 97h13.5l4.5 2-4-4.5c-.602-1.204-19.979-18.5-21-18.5h-1c-1.131 0-8 2.05-8 3 0 4.522 16 13.026 16 18Z"/><path fill="#FF64FF" id="MB" d="M149 78v3l2-4-2 1Z"/><path fill="#C9C8C8" id="bic" d="M147 85c-3.122 0-6 20.728-6 25 0 1.49.735 8-1 8 0-13.219-2.093-19.313 4-31.5.89-1.78 2.168-8.5 5-8.5v3c-2.109 0-2 2.534-2 4Z"/><path fill="#FC8FFF" id="PAG" fill-rule="evenodd" d="M264 142c0 5.395 3.807 0 0 0m-73 0c0 6.072 4.238 0 0 0m33 17h1v-4c0-3.806-1-7.751-1-11-3.317 0-5.563-6.032-7.5-7-12.455-6.228-5.282-27.359 4-32l8-8 12.5 13.5c2.064 4.128 8.835 11.33 6 17-2.674 5.347-4.921 7.921-9.5 12.5l-5.5 5c0 2.723-1 5.778-1 9v1l1 2v2l2-1 1-1 5-3-1-5c0-11.816 10.679-1.911 14.5 0l3.5 4h4l6-6.5 4-6.5c0-7.091-2-13.635-2-20 0-4.303-11.017-22.517-14.5-26l-6.5-7-5.5-4c-4.426-2.213-9.615-2.808-14-5-3.744-1.872-16.12 8-19.5 8l-6 6.5c-2.845 5.69-16 21.982-16 27.5 0 6.793-2 12.016-2 19l3 5.5 7 8.5h4c2.732 0 9.707-8.604 12.5-10 1.971-.986 7.448 3.604 6.5 5.5-.971 1.941-1 3.122-1 5.5l4 3h1l1 1 1 1Z"/><path fill="#0A838A" id="VISpl1" d="M99 97h15l3.5-4c2.535-1.268 11.5-8.44 11.5-12-3.65 0-6.126-2-10-2h-3l-4 4.5c-1.836 1.836-13 11.511-13 13.5ZM342 97h15c0-4.974-16-13.478-16-18h-3c-4.847 0-6.593 2-11 2 0 4.08 15 12.715 15 16Z"/><path fill="#FF64FF" id="MB" d="M149 81c-2.109 0-2 2.534-2 4l2-4ZM152 130c-10.271 0-5-2.443-5 4-3.098 0-7-13.377-7-16 1.735 0 1-6.51 1-8 0-4.272 2.878-25 6-25 0 13.42-6.824 21.853 0 35.5 1.242 2.484 6.959 6.5 10.5 6.5 1.278 0 5.5.665 5.5-1 2.389 0 5.987 1 9 1l-4 2c-5.259 0-11.406 1-16 1Z"/><path fill="#09818C" id="VISpor1" d="m70 107-5 4c0-2.573 4.819-14 8-14l1 5-4 5Z"/><path fill="#72D568" id="PAR" d="m77 106-7 1 4-5 7-3 1-1c5.22 0 11.21-1 17-1h15l-7.5 14-2.5 4c0-7.05-8.518-10-15-10-1.825 0-12-.781-12 1Z"/><path fill="#A9A9A8" id="AQ" d="M224 144c2.097 0 5.293 1 8 1l5.5-5c4.579-4.579 6.826-7.153 9.5-12.5 2.835-5.67-3.936-12.872-6-17L228.5 97l-8 8c-9.282 4.641-16.455 25.772-4 32 1.937.968 4.183 7 7.5 7Z"/><path fill="#72D568" id="PAR" d="m379 105 7 2c0-2.364-3-3.053-3-5l-8-3-4.5-2H342l11 19c0-8.178 7.392-11 15-11h11Z"/><path fill="#09818C" id="VISpor1" d="m386 107 7 5-2-2.5c-1.053-2.106-4.138-12.5-7-12.5-2.079 0-1 4.47-1 5 0 1.947 3 2.636 3 5Z"/><path fill="#09848C" id="VISpl2/3" d="m82 98-1 1 1-1Z"/><path fill="#30B824" id="ENTm2" d="M89 105c-1.825 0-12-.781-12 1l-6 8.5c-2.79 5.578-9.612 27.776-6 35 6.056 12.113 10.93 12.14 17 0 4.046-8.093 7-34.434 7-44.5Z"/><path fill="#31B625" id="ENTm1" d="M64 112c0 1.112-4.2 11.9-5 13.5-2.796 5.592-3.684 29.631-1 35l5 7c1.453 2.906 4.101 8.801 7.5 10.5 6.42 3.21 10.976-4.453 13.5-9.5 5.595-11.19 7.489-28.978 13-40 1.727-3.453 7-9.658 7-13.5 0-7.05-8.518-10-15-10 0 10.066-2.954 36.407-7 44.5-6.07 12.14-10.944 12.113-17 0-3.612-7.224 3.21-29.422 6-35l6-8.5-7 1-5 4-1 1ZM393 112c0 3.291 2.536 8.572 4 11.5 1.314 2.629 4.515 27.969 3 31l-3 9-6 7c-1.323 2.645-3.155 6.827-6.5 8.5-5.704 2.852-10.924-8.348-12.5-11.5-5.538-11.076-7.542-29.085-13-40l-6-11.5c0-8.178 7.392-11 15-11 0 11.531.133 26.767 5 36.5v5c5.001 10.001 10.285 19.429 18 4 3.784-7.569-1.718-28.436-5-35l-7-10.5 7 2 7 5Z"/><path fill="#30B824" id="ENTm2" d="M368 105h11l7 10.5c3.282 6.564 8.784 27.431 5 35-7.715 15.429-12.999 6.001-18-4v-5c-4.867-9.733-5-24.969-5-36.5Z"/><path fill="#09818C" id="VISpor1" d="m65 111-1 1 1-1Z"/><path fill="#FDFB8F" id="SIM" d="M137 132c-2.206 0-10.56 19.62-12 22.5-2.476 4.953-4.579 8.579-8.5 12.5l-5.5 4c-3.316 0-9.795-11.91-8-15.5 5.23-10.46 7.797-24.797 16.5-33.5l8-7c3.051-1.525 8.5 3.241 8.5 6l1 1v10ZM319 132c2.74 0 10.559 18.618 12 21.5 2.273 4.545 6.064 9.129 8 13l6 4.5c5.297 0 10.214-13.073 8-17.5l-12-26c-1.515-3.03-6.481-6.962-8-10-4.071-8.143-12.217 2.434-14 6v8.5Z"/><path fill="#FC90FF" id="CUN" d="M172 145h5l1-1h4l2-1c1.579 0 1-2.855 1-4 0-6.984 2-12.207 2-19l-4 1h-1l-1 1-1 1c0 1.577-1.762 2-3 2 0 1.638-3.576 2-5 2l-4 2c-5.259 0-11.406 1-16 1 0 1.947-3.428 3.644-2 6.5l2 4.5h1c4.236 0 9.339 5 16 5l2-1h1ZM284 145h2c1.606 0 4.339 2.081 6.5 1 2.016-1.008 8.563-5 10.5-5h1l1-1 2-5.5-2-4.5c-4.638 0-28-1.936-28-7h-1c-2.232 0-4.029-3-7-3 0 6.365 2 12.909 2 20l1 3 2 1h4l1 1h5Z"/><path fill="#F0F080" id="CB" d="m136 121 1 1-1-1Z"/><path fill="#FF64FF" id="MB" d="m182 121-1 1 1-1ZM181 122l-1 1 1-1ZM180 123c-1.238 0-3 .423-3 2 1.238 0 3-.423 3-2ZM177 125c-1.424 0-5 .362-5 2 1.424 0 5-.362 5-2Z"/><path fill="#C9C9CB" id="ll" d="m148 137 4 4-2-4.5c-1.428-2.856 2-4.553 2-6.5-10.271 0-5-2.443-5 4v2l1 1ZM305 140h2c0-1.238.423-3 2-3v-2l1-1v-1l1-2c0-3.192-3.41-1-6-1l2 4.5-2 5.5Z"/><path fill="#F0F080" id="CB" d="m137 132 2 1-2-2v1Z"/><path fill="#FF64FF" id="MB" d="m311 131-1 2 1-2Z"/><path fill="#FCFB90" id="CUL4, 5" fill-rule="evenodd" d="M127 172c0 1.93 1.93 0 0 0m14 9-1 1c-4.044 0-7.66-5-11-5 0-3.884-11.013-2-15-2-.966 0-3-2.886-3-4l5.5-4c3.921-3.921 6.024-7.547 8.5-12.5 1.44-2.88 9.794-22.5 12-22.5l2 1c1.745 0 6-.698 6 2 0 1.638 5.09 7.679 6 9.5 3.957 7.914-4 18.48-4 25.5v1l-1 1-1 4-1 1-3 4Z"/><path fill="#F0F080" id="CB" d="m319 132-2 1 2-1Z"/><path fill="#FCFB90" id="CUL4, 5" d="M327 178c-4.295 0-7.829 3-12 3-1.477 0-3-3.924-3-5l-1-1v-2l-1-1v-1l-1-1v-1c0-4.487-2.073-10.646-4-14.5-2.311-4.623 2-10.507 2-14.5 1.577 0 2-1.762 2-3 1.747 0 2-.253 2-2l1-1c0-1.643 3.765-1 5-1l2-1c2.74 0 10.559 18.618 12 21.5 2.273 4.545 6.064 9.129 8 13l6 4.5-2 4h-11.5l-2-2 .5 1.5c0 1.802-3 1.05-3 3.5Z"/><path fill="#FF64FF" id="MB" d="M309 135h1v-1l-1 1Z"/><path fill="#F0F080" id="CB" d="m312 134-1 1 1-1ZM147 170h1l2-4 1-1v-1l1-1 1-1v-1l1-1c0-2.313 1.452-5 4-5 0-4.059-5-9.588-5-14h-1l-4-4-1-1v-1h-2c0 1.638 5.09 7.679 6 9.5 3.957 7.914-4 18.48-4 25.5ZM309 136v1c1.747 0 2-.253 2-2h-1l-1 1Z"/><path fill="#FF64FF" id="MB" d="m147 136 1 1-1-1Z"/><path fill="#F0F080" id="CB" d="M309 137c-1.577 0-2 1.762-2 3 1.577 0 2-1.762 2-3Z"/><path fill="#FF64FF" id="MB" d="M189 164c0 1.514 1.762 0 3 0 0-6.317-4.971-10 3-10v-1l-7-8.5-3-5.5c0 1.145.579 4-1 4v1l2 2c1.684 0 1 4.679 1 6 0 3.956 2 7.497 2 12ZM265 164c1.238 0 3 1.514 3 0l1-12c0-1.048-.473-3 1-3v-2l1-2 1-1v-1l-1-3-4 6.5-6 6.5 1 1c7.495 0 3 2.431 3 9v1Z"/><path fill="#C9C9CB" id="ll" d="m305 140-1 1 1-1Z"/><path fill="#F0F080" id="CB" d="m307 168 2 1c0-4.487-2.073-10.646-4-14.5-2.311-4.623 2-10.507 2-14.5h-2l-1 1h-1l-4 14c1.312 0 7 8.054 7 10v1l1 1v1Z"/><path fill="#FF64FF" id="MB" d="M158 157h1l1-2 1-1 1-1 1-1v-1l1-1 1-1h1l1-1 1-1h1v-1c-6.661 0-11.764-5-16-5 0 4.412 5 9.941 5 14v2ZM299 155l-1 1-3-2v-1l-5-5-3-1-1-2c1.606 0 4.339 2.081 6.5 1 2.016-1.008 8.563-5 10.5-5l-4 14Z"/><path fill="#C8C9C8" id="IVn" d="M191 142c0 6.072 4.238 0 0 0ZM264 142c0 5.395 3.807 0 0 0Z"/><path fill="#FF9B88" id="P" d="M182 144h2v-1l-2 1Z"/><path fill="#FEC395" id="LDT" d="M213 163c-1.411 0-7 8.612-7 10-8.438 0-12.502 3.504-7-7.5 1.204-2.407 0-10.149 0-12.5 2.732 0 9.707-8.604 12.5-10 1.971-.986 7.448 3.604 6.5 5.5-.971 1.941-1 3.122-1 5.5-1.638 0-2 3.576-2 5-2.109 0-2 2.535-2 4ZM240 154c0 3.952 11 17.736 11 19 9.988 0 11.424 2.348 6-8.5-.802-1.603 0-9.597 0-11.5l-3.5-4c-3.821-1.911-14.5-11.816-14.5 0l1 5Z"/><path fill="#FF9B88" id="P" d="M272 144h2l-2-1v1ZM178 144l-1 1 1-1Z"/><path fill="#FFAD6D" id="PB" d="M177 185c-6.886 0-12.663 2-20 2 0-2.944-8.421-8-11-8v-1c0-2.849 5-5.459 5-9 1.811 0 4-3.438 4-5l1-2 1-1v-1l1-1v-1l1-1 1-2 1-1 1-1 1-1v-1l1-1 1-1h1l1-1 1-1h1l1-1h1l1-1h5l1-1h6l2 2v6l-1 5-1 1v1l-1 1c-2.065 0-10 4.583-10 7l-1 1-12.5 9c-.679.339-2.7 4-1 4 5.438 0 21.163-16 27.5-16 0 4.641 3.558 8.384 1 13.5-1.373 2.746-10 4.683-10 6.5Z"/><path fill="#FF64FF" id="MB" d="m231 154-3.5-2-2.5 3c0-3.806-1-7.751-1-11 2.097 0 5.293 1 8 1 0 2.723-1 5.778-1 9Z"/><path fill="#FF9B88" id="P" d="m272 144-1 1 1-1Z"/><path fill="#FFAD6D" id="PB" d="M280 185c6.615 0 12.007 2 19 2 0-2.571 8.666-8 11-8v-2l-3-2.5c-1.254-2.507-7-9.974-7-12.5v-1l-1-2-4-5v-1l-5-5-3-1-3-2h-5l-1-1h-6l-1 1-1 2v2l1 3c0 2.124 1 4.436 1 6 2.052 0 11 7.49 11 9h1l1 1 11.5 9c.68.68 3.895 3.053 2 4-1.788.894-5.539-3.27-7-4-4.273-2.137-16.624-12-20.5-12l-2 2.5c-3.372 6.744.448 11.974 5.5 14.5l5.5 3Z"/><path fill="#FF9B88" id="P" d="m278 144 1 1-1-1Z"/><path fill="#FF64FF" id="MB" d="M170 146h1v-1l-2 1h1Z"/><path fill="#FF9B88" id="P" d="m172 145-1 1v-1h1ZM271 145l-1 2 1-2ZM286 145l1 2-3-2h2ZM170 146l-1 1v-1h1ZM186 152h1c0-1.321.684-6-1-6v6ZM168 147l-1 1 1-1ZM167 148l-1 1 1-1ZM290 148l5 5-5-5ZM165 149l-1 1 1-1ZM269 152h2l-1-3c-1.473 0-1 1.952-1 3ZM164 150l-1 1 1-1ZM163 152l-1 1 1-1Z"/><path fill="#CBC9CB" id="scp" d="m173 167-1 1-12.5 9c-.679.339-2.7 4-1 4 5.438 0 21.163-16 27.5-16l3-1c0-4.503-2-8.044-2-12h-1l-1 5-1 1v1l-1 1c0 2.727-7.634 7-10 7Z"/><path fill="#FDA6FF" id="DR" d="M225 175c0 13.881 6 14.971 6 0 0-1.496-2.576-12 0-12v-9l-3.5-2-2.5 3v4c1.473 0 1 1.952 1 3v3c1.613 0 0 6.225 0 8l-1 2Z"/><path fill="#CBC9CB" id="scp" d="m284 167 1 1 11.5 9c.68.68 3.895 3.053 2 4-1.788.894-5.539-3.27-7-4-4.273-2.137-16.624-12-20.5-12l-3-1 1-12h2c0 2.124 1 4.436 1 6 0 3.246 8.122 9 11 9h1Z"/><path fill="#FF9B88" id="P" d="m162 153-1 1 1-1Z"/><path fill="#CBC9CB" id="scp" d="M195 154c-7.971 0-3 3.683-3 10 10.527 0 3-4.378 3-10Z"/><path fill="#FF9B88" id="P" fill-rule="evenodd" d="m235 187 .5 11c1.442 0 2.836-11-.5-11m14-10c0 1.773-11.828 4.844-10 8.5 3.231 6.462 30.051-8.5 14.5-8.5H249m-49 0c0 2.791-2.683 2.135-1 5.5l3.5.5 3 3 11.5-.5c2.51-5.019-13.236-8.5-17-8.5m26 87-4 1c0-2.922 5.649-10.203 3-15.5-2.285-4.571-5-9.048-5-14.5v-3c0-6.199 2.099-32.201-3.5-35l-19-8c-5.783-2.891-13.461 4-13.5 4-2.205 0-.002-3.251-1.5-4l-5.5-4c0-1.817 8.627-3.754 10-6.5 2.558-5.116-1-8.859-1-13.5l3-1c0 1.514 1.762 0 3 0 10.527 0 3-4.378 3-10v-1h4c0 2.351 1.204 10.093 0 12.5-5.502 11.004-1.438 7.5 7 7.5l8.5 5c4.104 2.052 7.534-3 10.5-3 0 13.881 6 14.971 6 0 2.966 0 6.396 5.052 10.5 3l9.5-5c9.988 0 11.424 2.348 6-8.5-.802-1.603 0-9.597 0-11.5h4l1 1c0 2.372-6.529 8.486-1.5 11l3.5-1h1c1.238 0 3 1.514 3 0l3 1-2 2.5c-3.372 6.744.448 11.974 5.5 14.5l5.5 3c0 .73-6.026 3.551-7 5.5v6.5l-1 1c0-2.774.141-5.217-1-7.5-2.785-5.57-29.96 3.919-32 8-4.707 9.414-2 19.665-2 30.5v4c-1.643 0-1 3.765-1 5 0 2.136-2.886 13-5 13 0-2.064-3.255-5.991-5-2.5V264m-4-73 4.5-1 2 2c.743 0 2.273-3.363 5-2 2.439 1.22 1.046 23.977-3 26-1.994.997-1.5-10.8-1.5-12.5l-.5-3.5-.5 3.5c0 1.768 1.03 12.5-1.5 12.5-5.561 0-4.5-14.535-4.5-18-6.248 0 0-15.984 0-7Z"/><path fill="#CBC9CB" id="scp" d="m265 163-1 1-3.5 1c-5.029-2.514 1.5-8.628 1.5-11 7.495 0 3 2.431 3 9Z"/><path fill="#FF9B88" id="P" d="m161 154-1 1 1-1Z"/><path fill="#FFBA84" id="PCG" d="M221 157c-2.483 0-4.026 2-6 2 0-1.424.362-5 2-5l4 3ZM251 173l-9.5 5c-4.104 2.052-7.534-3-10.5-3 0-1.496-2.576-12 0-12 0 9.683 15.302 7.105 11-1.5-1.649-3.298-3.16-4.5-7-4.5l5-3c0 3.952 11 17.736 11 19Z"/><path fill="#FF9B88" id="P" d="m298 156 1 3-4-5 3 2Z"/><path fill="#CBC9CC" id="arb" d="M157 159h1v-4c-2.548 0-4 2.687-4 5l3-1Z"/><path fill="#FF9B88" id="P" d="m160 155-1 2 1-2Z"/><path fill="#FF64FF" id="MB" d="M231 157h1l-1-2v2Z"/><path fill="#CBC9CC" id="arb" d="M300 161c0-5.008 4.11 4 6 4 0-1.946-5.688-10-7-10l-1 1 1 3 1 2Z"/><path fill="#FF9B88" id="P" d="m159 157-1 1v-1h1ZM185 157l-1 1 1-1Z"/><path fill="#FEB985" id="DTN" d="M213 163c0 7.661 13 8.218 13 2v-3l-1-2-1-1-1-1-1-1h-1c-2.483 0-4.026 2-6 2l-2 4Z"/><path fill="#FFBA84" id="PCG" d="m222 157 1 1-1-1Z"/><path fill="#FF9B88" id="P" d="M231 160h1v-3h-1v3Z"/><path fill="#FFBA84" id="PCG" d="m235 157-1 1 1-1Z"/><path fill="#FEB985" id="DTN" d="M231 161v2c0 9.683 15.302 7.105 11-1.5-1.649-3.298-3.16-4.5-7-4.5l-1 1-2 1v1l-1 1Z"/><path fill="#FF9B88" id="P" d="M272 158c2.052 0 11 7.49 11 9-2.878 0-11-5.754-11-9Z"/><path fill="#CBC7CC" id="sctv" d="M147 171v1c0 2.479 3.008-3 4-3 0-1.562 2.189-5 4-5l1-2 1-1v-2l-3 1-1 1v1l-1 1-1 1v1l-1 1-2 4-1 1Z"/><path fill="#FF9B88" id="P" d="m158 159-1 1v-1h1ZM184 159l-1 1 1-1Z"/><path fill="#FFBA84" id="PCG" d="M215 159c-2.109 0-2 2.535-2 4l2-4ZM225 159v1l-1-1h1Z"/><path fill="#FF9B88" id="P" d="m225 160 1 2c0-1.048.473-3-1-3v1Z"/><path fill="#CBC7CC" id="sctv" d="M309 170v1c0 4.573-6.056-9-9-9v-1c0-5.008 4.11 4 6 4v1l1 1v1l2 2Z"/><path fill="#CBC9CC" id="arb" d="m154 160-1 1 1-1Z"/><path fill="#FF9B88" id="P" d="M183 160c-2.065 0-10 4.583-10 7 2.366 0 10-4.273 10-7Z"/><path fill="#FFBA84" id="PCG" d="m232 160-1 1v-1h1Z"/><path fill="#CBC9CC" id="arb" d="m157 161-1 1 1-1ZM153 162l-1 1 1-1ZM156 162l-1 2 1-2ZM314 182h1v-1c-1.477 0-3-3.924-3-5l-1-1v-2l-1-1v-1h-1c0 4.573-6.056-9-9-9 0 2.526 5.746 9.993 7 12.5l3 2.5 1 2 3 3ZM152 163l-1 1 1-1Z"/><path fill="#FFBA84" id="PCG" d="m226 173-1 2c-2.966 0-6.396 5.052-10.5 3l-8.5-5c0-1.388 5.589-10 7-10 0 7.661 13 8.218 13 2 1.613 0 0 6.225 0 8Z"/><path fill="#FF8FFD" id="MRN" d="M264 164h1v-1l-1 1Z"/><path fill="#CBC9CC" id="arb" d="M155 164c-1.811 0-4 3.438-4 5 1.811 0 4-3.438 4-5ZM151 165l-1 1 1-1ZM306 166l1 1-1-1Z"/><path fill="#FF9B88" id="P" d="m173 167-1 1 1-1ZM284 167l1 1-1-1Z"/><path fill="#CBC9CC" id="arb" d="M309 169v1l-2-2 2 1ZM141 182h2l1-1 1-1 1-2c0-2.849 5-5.459 5-9-.992 0-4 5.479-4 3h-1l-1 4-1 1-3 4v1ZM148 170l-1 1v-1h1Z"/><path fill="#F0F080" id="CB" d="M309 171h1l-1-1v1ZM146 172h1v-1l-1 1Z"/><path fill="#CBC9CC" id="arb" d="M127 172c0 1.93 1.93 0 0 0Z"/><path fill="#F0F080" id="CB" d="m310 172 1 1-1-1Z"/><path fill="#FF9B88" id="P" d="m226 173-1 2 1-2Z"/><path fill="#CBC9CC" id="arb" d="M333 190c0 5.101 3 5.812 3 10 2.872 0 2-8.59 2-12l1-1 1-4 3-7-1-1h-10.5l-2-2 .5 1.5c0 1.802-3 1.05-3 3.5l1 1c3.134 0 11.927-1.355 9 4.5l-4 6.5Z"/><path fill="#FFFC8D" id="PFL" d="M103 181c4.942 0 8.889 2 13 2l-2-7c-3.957 0-11-4.471-11 5Z"/><path fill="#CBC9CC" id="arb" d="M123 190c0 3.618-2 6.154-2 9 0 2.117-2.507.487-3-.5l2-6-2-5.5-1-1c0-1.048.473-3-1-3l-2-7v-1c3.987 0 15-1.884 15 2v2c-2.078 0-12.32-1.141-10 3.5l4 7.5Z"/><path fill="#FFFC8D" id="PFL" d="M353 181c-4.942 0-8.889 2-13 2l3-7v-1c4.525 0 10-.877 10 6Z"/><path fill="#F0F080" id="CB" d="m311 175 1 1-1-1ZM145 176l-1 1 1-1ZM140 182v1c-2.443 0-11-1.304-11-4v-2c3.34 0 6.956 5 11 5Z"/><path fill="#FF8FFD" id="MRN" d="M200 177c0 2.791-2.683 2.135-1 5.5l3.5.5 3 3 11.5-.5c2.51-5.019-13.236-8.5-17-8.5ZM249 177c0 1.773-11.828 4.844-10 8.5 3.231 6.462 30.051-8.5 14.5-8.5H249Z"/><path fill="#FF9B88" id="P" d="M310 179h1l-1-2v2ZM146 179l-1 1 1-2v1Z"/><path fill="#F0F080" id="CB" d="m315 182 2 1c4.453 0 7.331-4 11-4l-1-1c-4.295 0-7.829 3-12 3v1Z"/><path fill="#CCCCCA" id="mcp" d="M123 190c4.037 0 .164 10 5 10l11-12v-1l1-1v-3c-2.443 0-11-1.304-11-4-2.078 0-12.32-1.141-10 3.5l4 7.5Z"/><path fill="#FEAD6E" id="KF" d="M139 194c2.909 0 10-7.653 10 1 2.25 0 3.376-2 5-2 0-2.079 3-3.187 3-6 0-2.944-8.421-8-11-8l-1 1-1 1-1 1-3 3v1l-1 1v7ZM303 194l4 1c0-7.412 7.363-2 10-2 3.282 0-3-9.94-3-11l-3-3h-1c-2.334 0-11 5.429-11 8 0 2.83 4 4.54 4 7Z"/><path fill="#CCCCCA" id="mcp" d="M333 190c-3.982 0 .211 10-4 10-.946 0-11.113-11.727-12-13.5-.389-.778-1.961-3.5 0-3.5 4.453 0 7.331-4 11-4 3.134 0 11.927-1.355 9 4.5l-4 6.5Z"/><path fill="#FF9B88" id="P" d="m145 180-1 1 1-1Z"/><path fill="#FEF991" id="FL" d="M109 225c-2.215 0-1.519 2-3 2-11.302 0-15.437-26.625-11-35.5l4.5-7.5 3.5-3c4.942 0 8.889 2 13 2 1.473 0 1 1.952 1 3l1 1 2 5.5-2 6c.493.987 3 2.617 3 .5 2.641 0 2 1.823 2 4l-1 1v1l-1 2-1 1-3 6-1 1-1 1-2 4-1 1-1 1-2 3Z"/><path fill="#F0F080" id="CB" d="M140 182h1v-1l-1 1Z"/><path fill="#FEF991" id="FL" d="m348 225 2 2c14.915 0 14.988-29.524 10-39.5-.945-1.89-7-6.019-7-6.5-4.942 0-8.889 2-13 2l-1 4-1 1c0 3.41.872 12-2 12-5.969 0-1 .949-1 5l2 5 2 2c0 3.723 6 6.793 6 10l2 2 1 1Z"/><path fill="#FF9B88" id="P" d="M140 183v2l3-3h-3v1ZM328 213c-4.51 0-6.276 11-9 11 0-5.972 10.153-13.194 7-19.5-1.505-3.011-9-9.087-9-11.5 3.282 0-3-9.94-3-11h1l2 1c-1.961 0-.389 2.722 0 3.5.887 1.773 11.054 13.5 12 13.5l1 4c0 1.564-1 3.876-1 6 0 1.048.473 3-1 3Z"/><path fill="#FEBA86" id="SUT" d="M155 201h1c1.647 0 6.164-6 9.5-6 2.082 0 5.221 2 7.5 2 0-4.535 8.632 0 10 0l1-2v-2c-2.205 0-.002-3.251-1.5-4l-5.5-4c-6.886 0-12.663 2-20 2 0 2.813-3 3.921-3 6v7l1 1ZM303 200l-2 1c-.689 0-5.914-4.207-7.5-5-2.772-1.386-7.269 1-9.5 1l-2.5-2-8.5 2v-6.5c.974-1.949 7-4.77 7-5.5 6.615 0 12.007 2 19 2 0 2.83 4 4.54 4 7v6Z"/><path fill="#FFFC8D" id="PFL" d="m117 186 1 1-1-1Z"/><path fill="#FF9B88" id="P" d="m140 186-1 1 1-1Z"/><path fill="#CBCBCC" id="mlf" d="m235 187 .5 11c1.442 0 2.836-11-.5-11Z"/><path fill="#FFFC8D" id="PFL" d="m339 187-1 1 1-1Z"/><path fill="#FF9B88" id="P" d="M128 213c7.666 0 10 18.422 10 24 1.725 0 1-6.052 1-7.5 0-7.304-4.961-12.922-8-19-4.188-8.376 8-14.158 8-16.5v-6l-11 12-1 5v6l1 2Z"/><path fill="#CBCBCC" id="mlf" d="M222 191v7c-6.248 0 0-15.984 0-7Z"/><path fill="#FDBA86" id="PRNc" d="M199 273h2c0-1.829 16.793-6 19-6l1-1 1-1c0-2.922 5.649-10.203 3-15.5-2.285-4.571-5-9.048-5-14.5-5.41 0-5.245-11.99-7-15.5-.503-1.006-3.332-5.584-1.5-6.5 6.842-3.421 5.493 19 8.5 19 0-6.199 2.099-32.201-3.5-35l-19-8c-5.783-2.891-13.461 4-13.5 4v2l1 3v22c0 4.43-4.143 25.787-6 29.5-1.909 3.818 2 15.141 2 16.5l1 1 1 1c4.282 0 12.47 5 13 5h3ZM257 273h4c0-2.807 9.644-5 12-5l2-1 2-2v-18.5c-2.82-5.639-5-19.747-5-26.5v-22c0-2.774.141-5.217-1-7.5-2.785-5.57-29.96 3.919-32 8-4.707 9.414-2 19.665-2 30.5 3.429 0 .656-19.422 7.5-16 1.779.889-.063 4.625-.5 5.5-.166.332-7 25.181-7 14.5-1.643 0-1 3.765-1 5 0 2.136-2.886 13-5 13v9l3 5 1 1 2 1 14.5 4c1.37.685 4.5-.871 4.5 2h1Z"/><path fill="#F0F080" id="CB" d="m124 203 3 2 1-5c-4.836 0-.963-10-5-10 0 3.618-2 6.154-2 9 2.641 0 2 1.823 2 4h1Z"/><path fill="#FFC294" id="RPO" d="m222 191 4.5-1 2 2c.743 0 2.273-3.363 5-2 2.439 1.22 1.046 23.977-3 26-1.994.997-1.5-10.8-1.5-12.5l-.5-3.5-.5 3.5c0 1.768 1.03 12.5-1.5 12.5-5.561 0-4.5-14.535-4.5-18v-7Z"/><path fill="#F0F080" id="CB" d="M330 204c2.413 0 3.51 1 5 1 0-4.051-4.969-5 1-5 0-4.188-3-4.899-3-10-3.982 0 .211 10-4 10l1 4Z"/><path fill="#FFAE6F" id="PSV" d="M149 257h2c0-.372 5.164-3.828 6-5.5 2.773-5.546-5-24.665-5-32.5l-1-14c-.926 0-2-8.751-2-10 0-8.653-7.091-1-10-1 0 2.342-12.188 8.124-8 16.5 3.039 6.078 8 11.696 8 19 0 1.448.725 7.5-1 7.5v10l7 8 3 1 1 1ZM306 257h1l2-1 2-1 2-1 1-1 1-1 1-1 1-2 1-2 1-2v-4c-1.65 0-1.65-17 0-17 0-5.972 10.153-13.194 7-19.5-1.505-3.011-9-9.087-9-11.5-2.637 0-10-5.412-10 2 0 2.24-.165 14-2 14v7c0 7.891-13.017 41 1 41Z"/><path fill="#FF9B88" id="P" d="M154 200c-3.236 0-3 2.435-3 5-.926 0-2-8.751-2-10 2.25 0 3.376-2 5-2v7ZM303 200c3.286 0 2 6.284 2 9 1.835 0 2-11.76 2-14l-4-1v6Z"/><path fill="#FEB986" id="V" d="M169 229c0 2.109-2.535 2-4 2 0-3.424-6.576-10-10-10 0-6.525 1-13 1-19v-1c1.647 0 6.164-6 9.5-6 2.082 0 5.221 2 7.5 2 0 4.176 4.429 10.643 2 15.5-2.323 4.647-6 11.04-6 16.5Z"/><path fill="#FEB886" id="P5" d="M175 225c0 3.351-3.25 4-6 4 0-5.46 3.677-11.853 6-16.5 2.429-4.857-2-11.324-2-15.5 0-4.535 8.632 0 10 0l2 1v22h-4c-3.511 0-6 1.125-6 5Z"/><path fill="#FF9B88" id="P" d="m183 197 2 1-1-3-1 2Z"/><path fill="#FEB886" id="P5" d="M281 225c1.82 0 2.097 4 6 4 0-6.06-3.432-13.363-6-18.5-2.446-4.892 3-9.527 3-13.5l-2.5-2-8.5 2-1 1v22h3c3.71 0 6 .914 6 5Z"/><path fill="#FEB986" id="V" d="M291 229v2l-4-2c0-6.06-3.432-13.363-6-18.5-2.446-4.892 3-9.527 3-13.5 2.231 0 6.728-2.386 9.5-1 1.586.793 6.811 5 7.5 5v20c-3.517 0-4.95 6-8 6l-1 1-1 1Z"/><path fill="#FEB984" id="I5" d="M155 221v1c-2.93 0-1.084-3-3-3l-1-14c0-2.565-.236-5 3-5l1 1 1 1c0 6-1 12.475-1 19ZM301 221v2c4.042 0 1.976-7 4-7v-7c0-2.716 1.286-9-2-9l-2 1v20Z"/><path fill="#FF9B88" id="P" d="M156 201v1l-1-1h1Z"/><path fill="#F0F080" id="CB" d="M122 204h1v-1l-1 1Z"/><path fill="#FF9BCD" id="MY" d="m124 203-1 1v-1h1Z"/><path fill="#FEA4D2" id="VCO" d="M108 239c0 5.133 7 10.213 7 15 5.901 0 4-7.492 4-12 0-1.235-.643-5 1-5l1-2c0-5.986 1.491-12.481 4-17.5.746-1.493-.729-6.5 2-6.5v-6l-3-2-1 1-1 1-1 2-1 1-3 6-1 1-1 1-2 4-1 1-1 1-2 3-2 3v3l-1 1v2l1 1v3l1 1ZM337 242c0 3.827-1.577 12 4 12 3.108 0 9-20.107 9-24-1.014 0-2-3.959-2-5l-1-1-2-2c0-3.207-6-6.277-6-10l-2-2-2-5c-1.49 0-2.587-1-5-1 0 1.564-1 3.876-1 6 2.729 0 1.254 5.007 2 6.5 2.768 5.536 5 12.95 5 19.5v1l1 1v4Z"/><path fill="#FF9BCD" id="MY" d="m123 204-1 1v-1h1ZM121 207l-1 1 1-1ZM336 236l-4.5-1-3.5 2v-24c1.473 0 1-1.952 1-3 2.729 0 1.254 5.007 2 6.5 2.768 5.536 5 12.95 5 19.5ZM337 210l2 2-2-2ZM121 235c2.833 0 4.84 2 7 2v-24l-1-2c-2.729 0-1.254 5.007-2 6.5-2.509 5.019-4 11.514-4 17.5Z"/><path fill="#C8CACA" id="sptV" d="m151 257 3 2.5c1.099 2.199-4.686 4.5-6 4.5-3.878 0-6.864-3-10-3 0-.871-5.145-5.789-6-7.5-.757-1.515-1.58-11.5-3-11.5 0-1.235.643-5-1-5v-24c7.666 0 10 18.422 10 24-1.622 0-1.622 9 0 9v1c0 2.279 4.644 8 7 8l3 1 1 1h2Z"/><path fill="#C8C8CC" id="tspc" d="M220 232c-3.007 0-1.658-22.421-8.5-19-1.832.916.997 5.494 1.5 6.5 1.755 3.51 1.59 15.5 7 15.5v-3ZM237 229c3.429 0 .656-19.422 7.5-16 1.779.889-.063 4.625-.5 5.5-.166.332-7 25.181-7 14.5v-4Z"/><path fill="#C8CACA" id="sptV" d="M306 257h1l2-1 2-1 2-1 1-1 1-1 1-1 1-2 1-2 1-2v-21c2.724 0 4.49-11 9-11v24c-1.684 0-1 4.679-1 6 0 5.62-8 17.298-8 18-4.409 0-11.74 7.02-15 .5l-2-2 4-2.5Z"/><path fill="#FF9BCD" id="MY" d="m117 214-1 1 1-1ZM116 215l-1 1 1-1Z"/><path fill="#FF9B88" id="P" fill-rule="evenodd" d="M293 248c0 1.997 2.027 11.737 5.5 10 3.864-1.932-2.736-10-5.5-10m6 27c1.755 0 7-6.817 7 0 5.072 0 9.535-10 17-10 0-1.366-2.366-4-4-4-4.409 0-11.74 7.02-15 .5l-2-2 4-2.5c-14.017 0-1-33.109-1-41-2.024 0 .042 7-4 7 0 3.45-10 14.778-10 8l-4-2c-3.903 0-4.18-4-6-4-.461 0-11.298 4.096-8-2.5l2-2.5h-3c0 6.753 2.18 20.861 5 26.5V265l10.5-7c2.569-1.284 3.509 3 5.5 3 0-6.525 5.183-1.133 7 2.5 2.42 4.84-1 7.325-1 11.5ZM162 248c0 .518-8.818 7.841-4.5 10 3.255 1.628 9.423-10 4.5-10m11 37c-6.943 0 2 .941 2 2-3.251 0-15 .519-15-4 2.16 0 4.167 2 7 2 4.648 0-4-4.945-4-4-1.001 0-16.182-14.864-12-6.5l8 8.5c-4 0-16.571-18-26-18 0-1.811 3.438-4 5-4 3.136 0 6.122 3 10 3 1.314 0 7.099-2.301 6-4.5l-3-2.5c0-.372 5.164-3.828 6-5.5 2.773-5.546-5-24.665-5-32.5 1.916 0 .07 3 3 3 0 3.496 10 14.617 10 9 1.465 0 4 .109 4-2 2.75 0 6-.649 6-4 1.483 0 11.96 4.421 8-3.5l-2-1.5h4c0 4.43-4.143 25.787-6 29.5-1.909 3.818 2 15.141 2 16.5-3.791 0-8.135-6.317-11.5-8-2.606-1.303-4.479 3-6.5 3 0-8.189-8 3.717-8 8 0 3.017 8 11.141 8 7 2.349 0 1.382 3 4 3 0 5.093 6 4.728 6 6Z"/><path fill="#F0F080" id="CB" d="m113 220-1 1 1-1Z"/><path fill="#FDBA85" id="Acs5" d="M181 220c-3.511 0-6 1.125-6 5 1.483 0 11.96 4.421 8-3.5l-2-1.5ZM275 220c3.71 0 6 .914 6 5-.461 0-11.298 4.096-8-2.5l2-2.5Z"/><path fill="#FF9BCD" id="MY" d="m112 221-1 1 1-1Z"/><path fill="#FDB986" id="PC5" d="M155 222c0 3.496 10 14.617 10 9 0-3.424-6.576-10-10-10v1ZM291 229v2c0 6.778 10-4.55 10-8v-2c-3.517 0-4.95 6-8 6l-1 1-1 1Z"/><path fill="#FF9BCD" id="MY" d="m345 222 2 2-2-2Z"/><path fill="#FF9B88" id="P" d="M319 224c-1.65 0-1.65 17 0 17v-17Z"/><path fill="#F0F080" id="CB" d="m106 227 1 1 2-3c-2.215 0-1.519 2-3 2ZM350 227v3c-1.014 0-2-3.959-2-5l2 2Z"/><path fill="#FF9B88" id="P" d="m293 227-1 1 1-1ZM292 228l-1 1 1-1Z"/><path fill="#FF9BCD" id="MY" d="m107 231-1 1 1-1ZM106 234l1 1-1-1ZM121 235l-1 2 1-2Z"/><path fill="#C9CACB" id="vVIIIn" d="M128 237c1.643 0 1 3.765 1 5 0 3.34-9 2.64-9-5l1-2c2.833 0 4.84 2 7 2ZM337 242c-3.511 0-6.489 1-10 1 0-1.321-.684-6 1-6l3.5-2 4.5 1v1l1 1v4Z"/><path fill="#FF9BCD" id="MY" fill-rule="evenodd" d="M122 251c0 1.575-3 4.214-3 4.5l2 5 2 3c6.498 6.498 3.235-12.5-1-12.5m16 10c-1.562 0-5 2.189-5 4l-8.5 1c-3.108-1.554-9.5-8.88-9.5-12 5.901 0 4-7.492 4-12 0-1.235-.643-5 1-5 0 7.64 9 8.34 9 5 1.42 0 2.243 9.985 3 11.5.855 1.711 6 6.629 6 7.5Z"/><path fill="#FF9B88" id="P" d="M138 237c-1.622 0-1.622 9 0 9v-9Z"/><path fill="#FF9BCD" id="MY" d="m336 237 1 1-1-1ZM107 238l1 1-1-1Z"/><path fill="#FF9BCD" id="MY" fill-rule="evenodd" d="M333 251c0 2.772-1.833 5.167-3 7.5-5.236 10.473 10.207 5.414 5-5-.813-1.627.658-2.5-2-2.5m-14 10c1.634 0 4 2.634 4 4 8.531 0 11.719 1.063 16-7.5.809-1.619 2-1.471 2-3.5-5.577 0-4-8.173-4-12-3.511 0-6.489 1-10 1 0 5.62-8 17.298-8 18Z"/><path fill="#FF9B88" id="P" d="m319 245-1 2 1-2ZM138 247l7 8c-2.356 0-7-5.721-7-8Z"/><path fill="#FFC5E2" id="RM" d="M226 271c2.124 0-1.088 2 4 2v-10l1-3v-9c0-2.064-3.255-5.991-5-2.5V271Z"/><path fill="#FF9B88" id="P" d="m318 247-1 2 1-2Z"/><path fill="#CCCCC7" id="VIIn" d="M162 248c0 .518-8.818 7.841-4.5 10 3.255 1.628 9.423-10 4.5-10ZM293 248c0 1.997 2.027 11.737 5.5 10 3.864-1.932-2.736-10-5.5-10Z"/><path fill="#FF9B88" id="P" d="m317 249-1 2 1-2Z"/><path fill="#C9CACB" id="vVIIIn" d="M122 251c0 1.575-3 4.214-3 4.5l2 5 2 3c6.498 6.498 3.235-12.5-1-12.5ZM333 251c0 2.772-1.833 5.167-3 7.5-5.236 10.473 10.207 5.414 5-5-.813-1.627.658-2.5-2-2.5Z"/><path fill="#FF9B88" id="P" d="m315 252-1 1 1-1ZM314 253l-1 1 1-1ZM313 254l-2 1 2-1ZM148 256l1 1-1-1ZM309 256l-2 1 2-1Z"/><path fill="#C8C8CB" id="rust" d="M163 261v15c0 4.141-8-3.983-8-7 0-4.283 8-16.189 8-8ZM293 277h4c0-1.747.253-2 2-2 0-4.175 3.42-6.66 1-11.5-1.817-3.633-7-9.025-7-2.5 0 2.379 3.292 4.917 2 7.5-1.307 2.614-2 5.334-2 8.5Z"/><path fill="#FEAE6E" id="SOCl" d="m181 277-4.5 3c-2.822 1.411-7.079-1-9.5-1-2.618 0-1.651-3-4-3v-15c2.021 0 3.894-4.303 6.5-3 3.365 1.683 7.709 8 11.5 8l1 1v1l-1 9ZM293 277l-3 2c-2.618 0-7.472 2.514-10.5 1l-4.5-3v-10l2-2 10.5-7c2.569-1.284 3.509 3 5.5 3 0 2.379 3.292 4.917 2 7.5-1.307 2.614-2 5.334-2 8.5Z"/><path fill="#FF9B88" id="P" d="m230 263 4 2-3-5-1 3Z"/><path fill="#FF9BCD" id="MY" d="M231 266h4l-1-1-4-2v3h1ZM225 266h1v-2l-4 1v1h3Z"/><path fill="#FF9B88" id="P" d="M221 266h1v-1l-1 1ZM220 267h1v-1l-1 1Z"/><path fill="#FF9BCD" id="MY" d="m222 266-1 1v-1h1Z"/><path fill="#CACCC8" id="ml" d="M226 267v4c0 3.77-6.616 9.269-9 4.5-1.774-3.549 4-5.75 4-8.5l1-1h3l1 1Z"/><path fill="#CCC7CB" id="tb" d="M226 266v1l-1-1h1ZM231 266l-1 1v-1h1Z"/><path fill="#CACCC8" id="ml" d="m236 267 4 7.5c0 4.425-10 2.279-10-1.5v-6l1-1h4l1 1Z"/><path fill="#FF9B88" id="P" d="M236 267h1l-2-1 1 1ZM182 268h1l-1-1v1Z"/><path fill="#CCC7CB" id="tb" d="m222 287 6.5-2c2.14 1.07 3.887 2 6.5 2l-3-4.5c-2.771-5.543 13.234-2.5 14-2.5l1-2c0-1.07-4.019-2.462-3-4.5.81-1.619 9.948-.5 12-.5 0-2.871-3.13-1.315-4.5-2l-14.5-4h-1l4 7.5c0 4.425-10 2.279-10-1.5-5.088 0-1.876-2-4-2 0 3.77-6.616 9.269-9 4.5-1.774-3.549 4-5.75 4-8.5h-1c-2.207 0-19 4.171-19 6 1.811 0 10.141-1.219 11 .5 1.058 2.116-2 2.898-2 4.5v2c1.96 0 17.568-3.636 14 3.5-.809 1.619-2 1.471-2 3.5Z"/><path fill="#FF9B88" id="P" d="m273 268 2 1v-2l-2 1Z"/><path fill="#FFAD6E" id="SOCm" d="m195 280-1 1c-5.898 0-10.738-4-13-4l1-9h1c4.282 0 12.47 5 13 5v5l-1 1v1ZM261 280l1 1c5.778 0 11.241-4 13-4v-8l-2-1c-2.356 0-12 2.193-12 5v7Z"/><path fill="#CBC7CC" id="sctv" d="M164 283c1.238 0 3 .423 3 2-2.833 0-4.84-2-7-2h-1l-8-8.5c-4.182-8.364 10.999 6.5 12 6.5v1l1 1Z"/><path fill="#FEA3D2" id="NTB" d="M197 277c0 10.234 8.667 1 13 1 0-1.602 3.058-2.384 2-4.5-.859-1.719-9.189-.5-11-.5h-2l-2 4ZM247 278c2.513 0 13 9.009 13 0v-1l-1-1-2-3h-1c-2.052 0-11.19-1.119-12 .5-1.019 2.038 3 3.43 3 4.5Z"/><path fill="#CBC7CC" id="sctv" d="M289 285h4l2-1 2-1 1-1 1-1 2-2h1l1-1 1-1 1-1 1-1c0-6.817-5.245 0-7 0 0 1.747-.253 2-2 2 0 1.429-1.288 4-3 4l-1 1-4 2v1Z"/><path fill="#FF9B88" id="P" d="M196 277h1l2-4h-3v4ZM260 278h1v-5h-4l2 3 1 1v1ZM299 275c-1.747 0-2 .253-2 2 1.747 0 2-.253 2-2ZM306 275l-1 1 1-1Z"/><path fill="#FF9BCD" id="MY" d="m259 276 1 1-1-1Z"/><path fill="#FF9B88" id="P" d="m305 276-1 1 1-1Z"/><path fill="#FEAD6F" id="POR" d="M190 286h1l2-1h1l1-1v-2l-1-1c-5.898 0-10.738-4-13-4l-4.5 3c-2.822 1.411-7.079-1-9.5-1 0 5.093 6 4.728 6 6h2c1.235 0 5-.643 5 1h10Z"/><path fill="#FF9BCD" id="MY" d="M195 284v1c3.697 0 6.94-3 11-3l4-2v-2c-4.333 0-13 9.234-13-1h-1v1l-1 1v5Z"/><path fill="#FEAD6F" id="POR" d="M269 286h8c0-1.579 2.855-1 4-1h3c0-1.638 3.576-2 5-2l1-4c-2.618 0-7.472 2.514-10.5 1l-4.5-3c-1.759 0-7.222 4-13 4l-1 1v2l1 1h1l2 1h4Z"/><path fill="#FF9B88" id="P" d="M293 282c0-2.889-3.299 1-4 1l1-4 3-2h4c0 1.429-1.288 4-3 4l-1 1ZM304 277l-1 1 1-1ZM196 278l-1 1 1-1Z"/><path fill="#FF9BCD" id="MY" d="M261 284v1c-3.697 0-6.94-3-11-3l-4-2 1-2c2.513 0 13 9.009 13 0h1v6Z"/><path fill="#FF9B88" id="P" d="m303 278-1 1 1-1Z"/><path fill="#C7C9C9" id="py" d="M221 287h1c0-2.029 1.191-1.881 2-3.5 3.568-7.136-12.04-3.5-14-3.5l-4 2c0 1.49-1 2.587-1 5h16ZM235 287h17c0-3.578-2-3.993-2-5l-4-2c-.766 0-16.771-3.043-14 2.5l3 4.5Z"/><path fill="#FF9B88" id="P" d="m301 279-2 2c1.747 0 2-.253 2-2Z"/><path fill="#CCC7CB" id="tb" d="M164 283c1.238 0 3 .423 3 2 4.648 0-4-4.945-4-4v1l1 1Z"/><path fill="#FF9B88" id="P" d="m194 281 1 1v-2l-1 1ZM262 281l-1 1v-2l1 1Z"/><path fill="#CCC7CB" id="tb" d="M289 283v1l4-2c0-2.889-3.299 1-4 1Z"/><path fill="#FF9B88" id="P" d="m299 281-1 1 1-1ZM163 282l1 1-1-1Z"/><path fill="#CCC7CB" id="tb" d="M201 287h4c0-2.413 1-3.51 1-5-4.06 0-7.303 3-11 3h-2l-2 1h-1c0 1.579 2.855 1 4 1h7ZM262 287h1c1.048 0 3 .473 3-1h-1l-2-1h-2c-3.697 0-6.94-3-11-3 0 1.007 2 1.422 2 5h10Z"/><path fill="#FF9B88" id="P" d="m298 282-1 1 1-1ZM277 286c1.145 0 4-.579 4 1 2.293 0 12 .983 12-2h-4c-2.212 0-2.212-1 0-1v-1c-1.424 0-5 .362-5 2 5.132 0-3 2.614-3 0-1.145 0-4-.579-4 1ZM297 283l-2 1 2-1ZM194 285h1v-1l-1 1ZM261 285h1l-1-1v1Z"/><path fill="#CCC7CB" id="tb" d="M289 284c-2.212 0-2.212 1 0 1v-1Z"/><path fill="#FF9B88" id="P" d="m295 284-2 1 2-1Z"/><path fill="#CCC7CB" id="tb" d="M175 287h6c1.406 0 7 .714 7-1h-8c-1.235 0-5 .643-5-1h-2c-6.943 0 2 .941 2 2Z"/><path fill="#FF9B88" id="P" d="M175 285c1.235 0 5-.643 5 1-1.235 0-5 .643-5-1ZM193 285l-2 1 2-1ZM263 285l2 1-2-1Z"/><path fill="#CCC7CB" id="tb" d="M281 285h3c5.132 0-3 2.614-3 0Z"/><path fill="#FF9B88" id="P" d="M194 287v1c-1.908 0-13 .788-13-1 1.406 0 7 .714 7-1h2c0 1.579 2.855 1 4 1ZM275 287c0 1.781-10.176 1-12 1v-1c1.048 0 3 .473 3-1h3c0 1.684 4.679 1 6 1Z"/><path fill="#CCC7CB" id="tb" d="M275 287h6c0-1.579-2.855-1-4-1h-8c0 1.684 4.679 1 6 1Z"/><path fill="#FF9BCD" id="MY" d="m195 287-1 1v-1h1ZM205 287h16c0 3.641-12.035 2.233-14.5 1-1.238-.619-5.5 1.144-5.5-1h4ZM252 287h4c0 1.643-3.765 1-5 1-1.956 0-16 3.493-16-1h17ZM263 287v1l-1-1h1Z"/></svg>