<svg xmlns="http://www.w3.org/2000/svg" viewBox="0 0 456 320"><path fill="#FCFB90" id="CUL4, 5" d="M165 130c5.135 0 8.262-2.881 12.5-5 13.47-6.735 4.837-22.174 10.5-33.5 4.753-9.507 18.38-8.44 26.5-12.5h7c1.195-.597 11.666-1.667 13-1 7.719 3.86 27.878 2.255 32.5 11.5 6.937 13.874-2.857 28.322 13.5 36.5 3.432 1.716 6.353 4 10.5 4 0-7.062 3.047-28.406 0-34.5L283 77c-1.507 0-21.569-16.361-20-19.5 1.58-3.16 6-6.81 6-10.5 0-5.519-11.54-6.52-14.5-8-6.146-3.073-46.822-3.089-53 0-3.42 1.71-13.5 2.415-13.5 8 0 4.416 7.185 9.13 5 13.5-1.333 2.666-19.001 16.5-20 16.5 0 4.533-4.961 12.421-7 16.5-4.058 8.117-1 27.474-1 36.5Z"/><path fill="#FEFA90" id="DEC" d="M173 51v26c.999 0 18.667-13.834 20-16.5 2.185-4.37-5-9.084-5-13.5-5.298 0-9.925 4-15 4ZM283 51v26c-1.507 0-21.569-16.361-20-19.5 1.58-3.16 6-6.81 6-10.5 4.486 0 9.734 4 14 4Z"/><path fill="#FDFB8F" id="SIM" d="M141 103c2.755 0 5.092-7.684 6-9.5l6-12c1.563-3.125.45-7.901 2-11 .691-1.381 5.163-8.669 7.5-7.5 2.38 1.19-2.982 5.465-3.5 6.5l-3 11c-7.234 14.469-18.951 49.5 9 49.5 0-9.026-3.058-28.383 1-36.5 2.039-4.079 7-11.967 7-16.5V51c-2.445 0-9.458-4.021-13.5-2-7.199 3.6-25.5 8.006-25.5 19l4 9.5c.666 1.332 3 23.426 3 25.5ZM316 104l-3.5-5c-8.449-4.224-7.635-21.77-11.5-29.5-.798-1.596-5.12-7.69-7.5-6.5-2.175 1.087 2.057 3.614 2.5 4.5 1.752 3.504 2.269 7.538 4 11 7.302 14.604 20.081 51.5-9 51.5 0-7.062 3.047-28.406 0-34.5L283 77V51c3.629 0 9.847-4.326 14.5-2 6.497 3.248 25.5 8.769 25.5 19l-4 5.5-3 30.5Z"/><path fill="#CBC9CC" id="arb" fill-rule="evenodd" d="M233 145c0 .18 12.68 3.41 13.5 3 3.742-1.871-2.879-3-4-3H233m-24 0c0 4.271 5.39 2.555 8.5 1l5.5-.5-14-.5m17-62c0 4.535-9.581.54-12.5 2-9.619 4.81-16.836 3.172-22.5 14.5-1.791 3.581.678 9.356 2 12 7.598 15.195 3.718 15.109 20.5 23.5 5.065 2.533 11.746 10.627 19 7 3.239-1.619 23.431-12.362 24.5-14.5 2.275-4.55 11.671-21.658 9-27-6.176-12.352-13.635-10.567-23.5-15.5h-11c-2.48-1.24-2.437-2-5.5-2m-27 74c5.992 0 25.394-11.553 30.5-9 4.805 2.403 11.208 1.604 16 4 5.002 2.501 10.592 7 16.5 7 0-.804-15.299-4.902-11-13.5 2.734-5.468 26.705-14.59 30-8 1.29 2.579-2 4.232-2 6.5l3 3 3.5-5c2.437 0 1.921 4.461 3 5 2.275 1.138 6.685-1.658 8-1 2.942 1.471 5.965 2.483 9 4 4.94 2.47 9.865-5.567 15-3 3.938 1.969 4.5 6.207 4.5 10l11-1c9.053 0 13.145 3.322 20.5 7l8.5 8.5c.144-.288-8-12.91-8-16.5 0-5.685 22.337-2.826 18-11.5l-4.5 2.5-9 3c-6.739 3.37-25.844-2.422-31-5-1.544-.772-7.5-2.732-7.5-5-4.264 0-8.127-15.246-6-19.5l5-10c3.522-7.044 15-9.738 15-19l-3-5c-.804-1.607-1.289 1.423-1 2l2 2-2 7-10.5 10.5c-1.751.876-6.5-1.728-6.5-3l-3.5-5c-8.449-4.224-7.635-21.77-11.5-29.5-.798-1.596-5.12-7.69-7.5-6.5-2.175 1.087 2.057 3.614 2.5 4.5 1.752 3.504 2.269 7.538 4 11 7.302 14.604 20.081 51.5-9 51.5-4.147 0-7.068-2.284-10.5-4-16.357-8.178-6.563-22.626-13.5-36.5-4.622-9.245-24.781-7.64-32.5-11.5-1.334-.667-11.805.403-13 1h-7c-8.12 4.06-21.747 2.993-26.5 12.5-5.663 11.326 2.97 26.765-10.5 33.5-4.238 2.119-7.365 5-12.5 5-27.951 0-16.234-35.031-9-49.5l3-11c.518-1.035 5.88-5.31 3.5-6.5-2.337-1.169-6.809 6.119-7.5 7.5-1.55 3.099-.437 7.875-2 11l-6 12c-.908 1.816-3.245 9.5-6 9.5 0 5.755-9.736 4.028-11 1.5l-8-11 .5-7.5-2.5 2.5c-1.156 2.312 2.114 9.115 3.5 10.5 7.211 7.211 21.285 17.93 14.5 31.5-1.133 2.266-.421 9.5-5 9.5l-10.5 6c-5.837 2.918-13.435 3-20.5 3-4.569 0-10.685-.092-14.5-2-1.06-.53-5.528-5.445-6.5-3.5-4.267 8.534 18 5.12 18 11.5 3.351 0-5.36 11.218-6 12.5-.133.266-2.013 4.5-.5 4.5l7-9c7.205-3.602 11.636-7 20.5-7l12 1c0-2.911-.689-7.906 3.5-10 4.946-2.473 10.425 5.288 15 3 3.011-1.505 6.049-2.525 9-4l8 1 3-5c2.066-1.033 2.736 6 4.5 6 0-3.561.607-3 3-3 0-2.895-4.504-4.491-3-7.5 3.156-6.313 27.724 2.449 30 7 4.095 8.189-6 10.74-6 12.5Z"/><path fill="#FCFC90" id="ANcr1" fill-rule="evenodd" d="M123 85c0 1.93 1.93 0 0 0m-41 23c9.303 0 15.107 3.713 19 11.5 2.213 4.425.577 10.539 6.5 13.5 6.085 3.043 13.954 1.977 20 5 1.319.659 5.5-.334 5.5 2 4.579 0 3.867-7.234 5-9.5 6.785-13.57-7.289-24.289-14.5-31.5-1.386-1.385-4.656-8.188-3.5-10.5l2.5-2.5-.5 7.5 8 11c1.264 2.528 11 4.255 11-1.5 0-2.074-2.334-24.168-3-25.5l-4-9.5-5.5-1C117.304 72.598 96.429 81.642 90 94.5c-2.252 4.504-8 8.174-8 13.5Z"/><path fill="#FCFC90" id="ANcr1" d="M374 108c-18.111 0-15.28 10.059-21 21.5-2.23 4.46-25.026 9.5-30 9.5-4.264 0-8.127-15.246-6-19.5l5-10c3.522-7.044 15-9.738 15-19l-3-5c-.804-1.607-1.289 1.423-1 2l2 2-2 7-10.5 10.5c-1.751.876-6.5-1.728-6.5-3l3-30.5 4-5.5 5.5-1 14 6c8.16 4.08 31.5 25.326 31.5 35Z"/><path fill="#FCFB90" id="CUL4, 5" d="M226 83c0 4.535-9.581.54-12.5 2-9.619 4.81-16.836 3.172-22.5 14.5-1.791 3.581.678 9.356 2 12 7.598 15.195 3.718 15.109 20.5 23.5 5.065 2.533 11.746 10.627 19 7 3.239-1.619 23.431-12.362 24.5-14.5 2.275-4.55 11.671-21.658 9-27-6.176-12.352-13.635-10.567-23.5-15.5h-11c-2.48-1.24-2.437-2-5.5-2Z"/><path fill="#CBC9CC" id="arb" d="M123 85c0 1.93 1.93 0 0 0Z"/><path fill="#FCFA91" id="ANcr2" d="M99 155c-5.047 0-21.335 12-23 12 0-3.613-7.242-1.984-9-5.5-2.12-4.242-6.765-16.469-4-22 3.447-6.893 4.48-14.959 8-22l11-9.5c9.303 0 15.107 3.713 19 11.5 2.213 4.425.577 10.539 6.5 13.5 6.085 3.043 13.954 1.977 20 5 1.319.659 5.5-.334 5.5 2l-10.5 6c-5.837 2.918-13.435 3-20.5 3-4.569 0-10.685-.092-14.5-2-1.06-.53-5.528-5.445-6.5-3.5-4.267 8.534 18 5.12 18 11.5ZM357 155c2.707 0 23 10.207 23 12l3.5-3 3 1c2.813-1.407 3.124-5.747 4.5-8.5 6.48-12.96-.6-27.2-6-38-1.373-2.747-7.22-10.5-11-10.5-18.111 0-15.28 10.059-21 21.5-2.23 4.46-25.026 9.5-30 9.5 0 2.268 5.956 4.228 7.5 5 5.156 2.578 24.261 8.37 31 5l9-3 4.5-2.5c4.337 8.674-18 5.815-18 11.5Z"/><path fill="#FFFCBC" id="FN" d="M186 161h1c0-1.579 2.855-1 4-1 0-1.473 1.952-1 3-1 0-1.473 1.952-1 3-1l2-1c0-1.76 10.095-4.311 6-12.5-2.276-4.551-26.844-13.313-30-7-1.504 3.009 3 4.605 3 7.5 5.776 0 3 13.804 3 16h5ZM270 161h5c0-2.329-1.376-16 3-16l1-1c0-2.268 3.29-3.921 2-6.5-3.295-6.59-27.266 2.532-30 8-4.299 8.598 11 12.696 11 13.5h1c.986 0 6 1.087 6 2h1Z"/><path fill="#FFFDBC" id="IP" d="M155 175c-4.843 0-8.264 6-14 6-6.941 0 7.815-17-3-17l-6-7c0-2.911-.689-7.906 3.5-10 4.946-2.473 10.425 5.288 15 3 3.011-1.505 6.049-2.525 9-4l8 1 3-5c2.066-1.033 2.736 6 4.5 6 0 .873 7.59 4.32 4 11.5-1.75 3.499-14 5.077-14 9.5l-2 1-1 1-6 3-1 1ZM300 174c4.997 0 9.238 7 15 7 7.709 0-7.91-17 4-17 0-1.338 4.41-7 6-7 0-3.793-.562-8.031-4.5-10-5.135-2.567-10.06 5.47-15 3-3.035-1.517-6.058-2.529-9-4-1.315-.658-5.725 2.138-8 1-1.079-.539-.563-5-3-5l-3.5 5c0 2.096-8.881 3.738-4 13.5 1.785 3.57 17 5.662 17 10.5l2 1 1 1h1l1 1Z"/><path fill="#F0F080" id="CB" d="M165 169h3c0-2.611 10.567-6 13-6v-2c0-2.196 2.776-16-3-16-2.393 0-3-.561-3 3 0 .873 7.59 4.32 4 11.5-1.75 3.499-14 5.077-14 9.5Z"/><path fill="#CBC9CC" id="arb" d="m279 144-1 1 1-1Z"/><path fill="#F0F080" id="CB" d="m289 169 6 2c0-4.838-15.215-6.93-17-10.5-4.881-9.762 4-11.404 4-13.5l-3-3-1 1c-4.376 0-3 13.671-3 16v2c2.189 0 14 4.724 14 6Z"/><path fill="#CBC8CA" id="cbc" d="M209 145c0 4.271 5.39 2.555 8.5 1l5.5-.5-14-.5ZM233 145c0 .18 12.68 3.41 13.5 3 3.742-1.871-2.879-3-4-3H233Z"/><path fill="#FDFC8F" id="NOD" d="m248 182-2 1c-5.923 0-23.181 5.159-29.5 2-9.844-4.922-21.725-8-33.5-8 0-2.238-9.802-2-12-2h-3l-3-2.5 3-3.5c0-2.611 10.567-6 13-6h1l1-1c1.048 0 3 .473 3-1h1c1.145 0 4 .579 4-1 1.048 0 3 .473 3-1 1.048 0 3 .473 3-1l2-1c5.992 0 25.394-11.553 30.5-9 4.805 2.403 11.208 1.604 16 4 5.002 2.501 10.592 7 16.5 7h1c0 1.995 4.377 2 6 2h1c0 .672 4.329 2 5 2 2.189 0 14 4.724 14 6l2 3.5-2 2.5h-3c-2.312 0-13-.379-13 2-5.662 0-14.632.566-19.5 3-1.319.659-5.5-.334-5.5 2Z"/><path fill="#FFFB8E" id="PRM" d="M103 198c0-1.93 1.161 0 2 0 0-2.933 2.819-14.138 4-16.5.681-1.362 4-4.844 4-5.5 0-7.138 7-12.849 7-20-8.864 0-13.295 3.398-20.5 7l-7 9c-1.513 0 .367-4.234.5-4.5.64-1.282 9.351-12.5 6-12.5-5.047 0-21.335 12-23 12 0 9.565 5.055 26.778 15.5 32 4.424 2.212 7.394-1 11.5-1ZM351 198h3l7.5 2c12.484-6.242 18.5-19.044 18.5-33 0-1.793-20.293-12-23-12 0 3.59 8.144 16.212 8 16.5l-8.5-8.5c-7.355-3.678-11.447-7-20.5-7 0 6.961 7 12.643 7 20l4 4.5c1.328 2.655 4 14.149 4 17.5Z"/><path fill="#FFF990" id="COPY" d="M113 176c7.489 0 11.271 16 18 16 0-7.512 7-17.544 7-28l-6-7-12-1c0 7.151-7 12.862-7 20ZM325 192h1l3-1.5c.996-1.992 12.148-14.5 14-14.5 0-7.357-7-13.039-7-20l-11 1c-1.59 0-6 5.662-6 7 0 5.404-.259 12.982 2 17.5l4 9.5v1Z"/><path fill="#CBC9CC" id="arb" d="m199 157-2 1 2-1ZM197 158c-1.048 0-3-.473-3 1 1.048 0 3 .473 3-1ZM194 159c-1.048 0-3-.473-3 1 1.048 0 3 .473 3-1ZM263 159c.986 0 6 1.087 6 2-1.623 0-6-.005-6-2ZM191 160c-1.145 0-4-.579-4 1 1.145 0 4 .579 4-1ZM181 163h1l1-1c1.048 0 3 .473 3-1h-5v2ZM275 161v2c-.671 0-5-1.328-5-2h5Z"/><path fill="#F0F080" id="CB" d="m183 162-1 1 1-1Z"/><path fill="#CBC9CC" id="arb" d="M141 181c0 1.169-7.006 7.512-8 9.5l-2 1.5c0-7.512 7-17.544 7-28 10.815 0-3.941 17 3 17ZM315 181l10 10-4-9.5c-2.259-4.518-2-12.096-2-17.5-11.91 0 3.709 17-4 17Z"/><path fill="#F0F080" id="CB" d="m165 169-2 1 2-1Z"/><path fill="#A9AAA7" id="V4r" fill-rule="evenodd" d="m128 209-5 4.5c-.847 1.694-6.187 15.157-1.5 17.5l4.5-2.5c1.316-2.633 9.475-19.5 2-19.5m-4 31-2 1-3-6.5c-.884-1.769-2-16.14-2-18.5 1.577 0 2-1.762 2-3 2.979 0 12-17.873 12-21l2-1.5c.994-1.988 8-8.331 8-9.5 5.736 0 9.157-6 14-6l1-1 6-3 1-1 2-1h3l-3 3.5 3 2.5-5.5-2c-13.965 6.983-14.83 12 2.5 12v1l-4 2-1 1-6 1c0-9.86-13.323-2.589-16.5-1-1.934.967-3.385 5.271-4.5 7.5-1.475 2.951.774 8.5 4 8.5 0 4.875-4 8.125-4 13l-1 2-1 1v2l-1 1v1l-1 1-1 3-1 1v2l-1 1v1l-1 1v3l-1 1v1ZM327 209c0 3.468-3.121 4.258-1 8.5 1.385 2.77 1.657 6.314 3 9 7.305 14.611 12.43-17.5-2-17.5m5 30c1.481 0 .785 2 3 2 0-6.793 4-16.762 4-25l-2-3c-1.747 0-2-.253-2-2l-1-1c-1.918 0-7-12.945-7-15l-1-1v-1l-1-1v-1l-10-10c-5.762 0-10.003-7-15-7l-1-1h-1l-1-1-2-1-6-2 2 3.5-2 2.5c3.383 0 3.024-2.738 6.5-1l5 2c6.386 3.193 4.4 6.8 0 9-5.304 2.652-15.748-2.748-19-6l-2.5-1.5c0-3.197 7 .067 7-2.5-2.312 0-13-.379-13 2v3h4l1 1c6.508 0 12.769 7 17 7l1 1h1l6 1c0-8.869 14.975-4.55 18 1.5.82 1.639 3.963 8.075 3 10l-4 3.5c0 6.826 6 11.825 6 18v1l1 1 2 6 1 1 2 7Z"/><path fill="#F0F080" id="CB" d="m163 170-1 1 1-1ZM297 172l1 1-1-1Z"/><path fill="#A9AAA8" id="chpl" d="M169 183c-1.465 0-4-.109-4 2-17.33 0-16.465-5.017-2.5-12l5.5 2h3c0 2.101 7.311-.122 6 2.5l-8 5.5ZM286 175h3c3.383 0 3.024-2.738 6.5-1l5 2c6.386 3.193 4.4 6.8 0 9-5.304 2.652-15.748-2.748-19-6l-2.5-1.5c0-3.197 7 .067 7-2.5Z"/><path fill="#F0F080" id="CB" d="m299 173 1 1-1-1ZM156 174l-1 1 1-1Z"/><path fill="#A9AAA7" id="V4r" d="m174 182-5 1 8-5.5c1.311-2.622-6-.399-6-2.5 2.198 0 12-.238 12 2v3l-8 1-1 1Z"/><path fill="#FFFC8D" id="PFL" d="M115 213h4c2.979 0 12-17.873 12-21-6.729 0-10.511-16-18-16 0 .656-3.319 4.138-4 5.5-1.181 2.362-4 13.567-4 16.5v2c0 1.981 7.03 13 10 13ZM337 213h5c1.358 0 9-9.77 9-12v-3c0-3.351-2.672-14.845-4-17.5l-4-4.5c-1.852 0-13.004 12.508-14 14.5l-3 1.5v2l1 1c0 2.055 5.082 15 7 15l1 1c0 1.747.253 2 2 2Z"/><path fill="#AAA9A7" id="V4" d="m217 194 4 3c0-2.845-6.683-7.135-5-10.5l4.5-.5c3.741 1.871 17.599-1.2 20 0 1.422.711-1.5 4.656-1.5 6 .651 0 7-8.675 7-9-5.923 0-23.181 5.159-29.5 2-9.844-4.922-21.725-8-33.5-8v3h5c10.464 0 29-.114 29 14ZM269 180h4v-3c-5.662 0-14.632.566-19.5 3-1.319.659-5.5-.334-5.5 2 6.405 0 12.817-2 20-2h1Z"/><path fill="#FEB1D9" id="SPIV" d="M185 205c-5.761 0-10.717 4-17 4-1.634 0-4-2.634-4-4 1.04 0 4.088-9-4-9v-7l1-1 4-2 1-1c1.238 0 3-.423 3-2l5-1 1-1 8-1h5l1 10.5-4 14.5Z"/><path fill="#FFB0D7" id="MV" d="M203 210h7c0-5.224 7-10.354 7-16 0-14.114-18.536-14-29-14l1 10.5-4 14.5c2.711 0 18 2.75 18 5ZM246 209l1.5 2c1.956.978 4.077-1 5.5-1 0-2.224 15.289-5 18-5 0-4.752-1.901-13.302-4-17.5l1-6.5v-1c-7.183 0-13.595 2-20 2l-2 1c0 .325-6.349 9-7 9v3l7 14Z"/><path fill="#FF9BCD" id="MY" d="m269 180-1 1v-1h1Z"/><path fill="#FEB1D9" id="SPIV" d="m293 206-4 3c-6.907 0-11.624-4-18-4 0-4.752-1.901-13.302-4-17.5l1-6.5 1-1h8l1 1c6.508 0 12.769 7 17 7l1 1h1v7c-11.009 0-4 6.152-4 10Z"/><path fill="#FF9BCD" id="MY" d="m277 180 1 1-1-1ZM175 181l-1 1 1-1Z"/><path fill="#AAA9A7" id="V4" d="m248 182-2 1 2-1Z"/><path fill="#A9AAA7" id="V4r" d="M165 185h1c1.238 0 3-.423 3-2-1.465 0-4-.109-4 2Z"/><path fill="#FEA5D1" id="DCO" d="m154 190-2.5 3c-2.395 1.197-14.5 10.212-14.5 12-3.226 0-5.475-5.549-4-8.5 1.115-2.229 2.566-6.533 4.5-7.5 3.177-1.589 16.5-8.86 16.5 1Z"/><path fill="#FF9BCD" id="MY" d="m166 185-1 1v-1h1Z"/><path fill="#FEA5D1" id="DCO" d="m303 190 17 15 4-3.5c.963-1.925-2.18-8.361-3-10-3.025-6.05-18-10.369-18-1.5Z"/><path fill="#A9AAA8" id="chpl" d="M233 201c-1.747 0-2 .253-2 2-5.397 0-7.726-5-10-5v-1c0-2.845-6.683-7.135-5-10.5l4.5-.5c3.741 1.871 17.599-1.2 20 0 1.422.711-1.5 4.656-1.5 6-1.577 0-2 1.762-2 3l-1 2-1 1-1 1-1 1v1Z"/><path fill="#FF9BCD" id="MY" d="m161 188-1 1 1-1ZM295 188l1 1-1-1ZM151 278c0-6.424 6.98 0 9 0l1-4-2-2c-2.583 0-9 1.15-9-4-10.204 0-19.821-16.857-15-26.5 6.666-13.333 11.887-27.5 30-27.5 0-2.364 3-3.053 3-5-1.634 0-4-2.634-4-4-3.959 0-4.036 2.232-8.5 0-4.358-2.179 1.569-9 4.5-9v-7l-6 1-2.5 3c-2.395 1.197-14.5 10.212-14.5 12 0 4.875-4 8.125-4 13 2.226 0 1.829-3.329 3-4.5 2.736-2.736 7.488-10.976 9-14 .419-.837 12.44-7.88 10-3-.813 1.625-9 12.358-9 12.5 1.159 0 11-5.643 11-1.5l-14 14-6 10c-1.964 3.928-2.018 9.035-4 13-3.019 6.037 4.283 20.391 8.5 22.5 2.311 1.156 10.5 3.258 10.5 6.5 0 2.575-5.48.5-6 .5v1l5 3ZM291 214c18.08 0 23.326 13.152 30 26.5 1.406 2.812-.461 7.078 1 10l-2 8.5c6.298 0 1.207-23.085 0-25.5-3.343-6.686-6.59-11.59-12.5-17.5-1.189-1.189-9.991-8.505-7-10 3.627-1.813 7.402 4 10.5 4l-10-13.5c-.844-1.687 2.604-1.948 3.5-1.5 3.137 1.569 8.649 4.797 10.5 8.5l11 19.5c0-6.175-6-11.174-6-18l-17-15-6-1v7l6 6.5c0 4.62-8.236 3.5-10 3.5l-4 3c0 1.624 2 2.75 2 5Z"/><path fill="#AAA9A7" id="V4" d="M237 195h2v-3c-1.577 0-2 1.762-2 3Z"/><path fill="#CBC9CC" id="arb" d="M326 192v1l-1-1h1Z"/><path fill="#FFB3D7" id="PRP" d="M223 212h10l11-1c1.747 0 2-.253 2-2l-7-14h-2l-1 2-1 1-1 1-1 1v1l-2 2c0 7.082-10-1.831-10-5v-1l-4-3c0 5.646-7 10.776-7 16l2 1 11 1Z"/><path fill="#F0F080" id="CB" d="m326 194 1 1-1-1Z"/><path fill="#C9C9C8" id="icp" d="M146 274v1c-4.288 0-7.898-3-13-3l-6-6v-1l-2-3v-1l-2-4v-4c0-4.569 1-8.923 1-13v-1l1-1v-3l1-1v-1l1-1v-2l1-1 1-3 1-1v-1l1-1v-2l1-1 1-2c2.226 0 1.829-3.329 3-4.5 2.736-2.736 7.488-10.976 9-14 .419-.837 12.44-7.88 10-3-.813 1.625-9 12.358-9 12.5l-1 1c-5.404 0-8.279 11.057-10 14.5-4.782 9.564-9.431 27.137-4 38l4 3c1.381 2.761 7.602 8.5 11 8.5Z"/><path fill="#AAA9A7" id="V4" d="m237 195-1 2 1-2Z"/><path fill="#C9C9C8" id="icp" d="m323 272-9 1 11-10.5c5.893-11.786 1.401-27.198-4-38-2.054-4.107-3.938-14.5-10-14.5l-10-13.5c-.844-1.687 2.604-1.948 3.5-1.5 3.137 1.569 8.649 4.797 10.5 8.5l11 19.5v1l1 1 2 6 1 1 2 7c0 5.046 1 11.325 1 17v1c-1.473 0-1 1.952-1 3l-1 2v1l-1 2-1 1v1c-1.747 0-2 .253-2 2l-2 2-2 1Z"/><path fill="#FFB0D9" id="x" d="M160 196c8.088 0 5.04 9 4 9-3.959 0-4.036 2.232-8.5 0-4.358-2.179 1.569-9 4.5-9ZM297 196c-11.009 0-4 6.152-4 10 1.764 0 10 1.12 10-3.5l-6-6.5Z"/><path fill="#F0F080" id="CB" d="M105 198v2l-2-2c0-1.93 1.161 0 2 0Z"/><path fill="#AAA9A7" id="V4" d="m236 197-1 1 1-1ZM221 198c2.274 0 4.603 5 10 5 0 7.082-10-1.831-10-5ZM235 198l-1 1 1-1Z"/><path fill="#F0F080" id="CB" d="m354 198-3 3v-3h3Z"/><path fill="#AAA9A7" id="V4" d="m234 199-1 1 1-1Z"/><path fill="#FFFC8D" id="PFL" d="m73 201-8 8.5c-1.941 3.883.998 10.005-1 14-4.693 9.386 5.518 35.991 18.5 29.5 9.874-4.937 15.419-26.662 10.5-36.5v-5c-3.19-6.379-13.153-10.5-20-10.5Z"/><path fill="#AAA9A7" id="V4" d="M233 201c-1.747 0-2 .253-2 2l2-2Z"/><path fill="#FFFC8D" id="PFL" d="M379 201c0 2.162-6.067 2.284-7.5 3l-8.5 8.5c-1.724 3.448-1.614 13.773 0 17 1.066 2.133 1.283 13.567 4 19 3.409 6.818 18.58 5.84 22-1 2.388-4.775 4.89-33.221 2-39-2.314-4.629-7.12-7.5-12-7.5Z"/><path fill="#FDA5D1" id="NTS" d="M192 217h1c3.171 0 5.383-3 9-3 0-1.674 1-2.326 1-4 0-2.25-15.289-5-18-5-5.761 0-10.717 4-17 4 0 1.947-3 2.636-3 5l4 3c2.33 0 3.227 4 6 4l17-4ZM279 221h2c2.424 0 2.76-2 4-2l1-1 1-1c1.429 0 4-1.288 4-3 0-2.25-2-3.376-2-5-6.907 0-11.624-4-18-4-2.711 0-18 2.776-18 5l1 4c3.855 0 6.459 3 10 3l14 3 1 1Z"/><path fill="#C8CACA" id="sptV" d="M145 210c-5.404 0-8.279 11.057-10 14.5-4.782 9.564-9.431 27.137-4 38l4 3c1.381 2.761 7.602 8.5 11 8.5.52 0 6 2.075 6-.5 0-3.242-8.189-5.344-10.5-6.5-4.217-2.109-11.519-16.463-8.5-22.5 1.982-3.965 2.036-9.072 4-13l6-10 14-14c0-4.143-9.841 1.5-11 1.5l-1 1ZM314 273l-3 1-2.5 1c-1.258.629-4.277-.946-3.5-2.5l6-4.5 2-1c1.238 0 3-.423 3-2 1.712 0 3-2.571 3-4l1-2c6.298 0 1.207-23.085 0-25.5-3.343-6.686-6.59-11.59-12.5-17.5-1.189-1.189-9.991-8.505-7-10 3.627-1.813 7.402 4 10.5 4 6.062 0 7.946 10.393 10 14.5 5.401 10.802 9.893 26.214 4 38L314 273Z"/><path fill="#A9AAA8" id="chpl" d="m128 209-5 4.5c-.847 1.694-6.187 15.157-1.5 17.5l4.5-2.5c1.316-2.633 9.475-19.5 2-19.5Z"/><path fill="#FF9BCD" id="MY" d="m146 209-1 1 1-1ZM254 214l-6 3c0-2.9-4-4.569-4-6 1.747 0 2-.253 2-2l1.5 2c1.956.978 4.077-1 5.5-1l1 4Z"/><path fill="#A9AAA8" id="chpl" d="M327 209c0 3.468-3.121 4.258-1 8.5 1.385 2.77 1.657 6.314 3 9 7.305 14.611 12.43-17.5-2-17.5Z"/><path fill="#FF9BCD" id="MY" d="m202 214 7 3c0-3.067 3-4.726 3-6l-2-1h-7c0 1.674-1 2.326-1 4Z"/><path fill="#F0F080" id="CB" d="m334 210 1 1-1-1Z"/><path fill="#FCB3D8" id="PGRNd" d="m222 221-12 1-1-1v-4c0-3.067 3-4.726 3-6l11 1 1 2c-1.175 0-2 5.704-2 7Z"/><path fill="#FF9BCD" id="MY" d="M227 236c0 1.919 2 2.488 2 0l.5-23c3.964-1.982 1.5 9.013 1.5 10l4-2c0-2.84-2-5.676-2-9h-10l1 2 2.5-1 .5 14c0 1.517 2.286 9 0 9Z"/><path fill="#FCB3D8" id="PGRNd" d="m235 221 12 1 1-5c0-2.9-4-4.569-4-6l-11 1c0 3.324 2 6.16 2 9Z"/><path fill="#F0F080" id="CB" d="M119 213c0 1.238-.423 3-2 3s-2-1.762-2-3h4Z"/><path fill="#CBCBCC" id="mlf" d="M225 222c0 5.04 2 9.869 2 14 2.286 0 0-7.483 0-9l-.5-14-2.5 1 1 8ZM231 223c0 2.382 1.056 13-2 13l.5-23c3.964-1.982 1.5 9.013 1.5 10Z"/><path fill="#F0F080" id="CB" d="m342 213-3 3-2-3h5Z"/><path fill="#FDA5D2" id="SPVI" d="M171 224c0 10.134-10.284 9.069-14 16.5-3.089 6.178 1.023 15.954-2 22l-5 5.5c-10.204 0-19.821-16.857-15-26.5 6.666-13.333 11.887-27.5 30-27.5l4 3c0 1.835 2 4.235 2 7Z"/><path fill="#FFB2D8" id="IRN" d="M176 264c6.34 0 10.327 1 17 1 0-8.321 16-29.403 16-42v-6l-7-3c-3.617 0-5.829 3-9 3l-1 1c0 6.649-7.137 13.774-10 19.5l-3 5.5v1l-8 15c2.96 0 4 2.399 4 5h1Z"/><path fill="#FF9BCD" id="MY" d="M222 221c0 1.473 1.952 1 3 1l-1-8c-1.175 0-2 5.704-2 7Z"/><path fill="#FFB2D8" id="IRN" d="M281 264c-6.152 0-11.249 1-18 1 0-9.735-16-29.991-16-43l1-5 6-3c3.855 0 6.459 3 10 3 0 6.159 6.343 13.186 9 18.5l4 6.5 1 2 7 15c-2.098 0-3 1.939-3 4l-1 1Z"/><path fill="#FDA5D2" id="SPVI" d="M307 268h4l2-1c0-1.577 1.762-2 3-2 0-1.429 1.288-4 3-4l1-2 2-8.5c-1.461-2.922.406-7.188-1-10-6.674-13.348-11.92-26.5-30-26.5 0 1.712-2.571 3-4 3l-1 1-1 1v5c0 10.5 10.935 9.371 14 15.5 3.11 6.22-1.03 15.94 2 22l6 6.5Z"/><path fill="#FF9BCD" id="MY" d="m175 221-4 3c0-2.765-2-5.165-2-7 2.33 0 3.227 4 6 4Z"/><path fill="#FCB3D9" id="PARN" d="M150 268c0 5.15 6.417 4 9 4l8-7 1-1 3-5 8-15c-2.171 0-7.706 4.088-8 3.5-2.166-4.332 8-9.071 8-4.5l3-5.5c2.863-5.726 10-12.851 10-19.5v-1l-17 4-4 3c0 10.134-10.284 9.069-14 16.5-3.089 6.178 1.023 15.954-2 22l-5 5.5Z"/><path fill="#FF9BCD" id="MY" d="m193 217-1 1v-1h1Z"/><path fill="#FCB3D9" id="PARN" d="M307 268c0 4.833-8.066 4-10 4l-6-5-1-1-1-1-4-6-7-15c2.279 0 4.867 4 6.5 4 2.136 0-1.414-6.707-2-7l-5.5 1-4-6.5c-2.657-5.314-9-12.341-9-18.5l14 3 1 1h2l4 3c0 10.5 10.935 9.371 14 15.5 3.11 6.22-1.03 15.94 2 22l6 6.5Z"/><path fill="#FF9BCD" id="MY" d="m287 217-1 1 1-1ZM133 218l-1 2 1-2ZM286 218l-1 1 1-1ZM281 221l4 3v-5c-1.24 0-1.576 2-4 2ZM132 220l-1 1 1-1ZM278 220l1 1-1-1ZM210 222l-1 1v-2l1 1Z"/><path fill="#FEB0D8" id="GRN" d="M254 277c0 1.587 6 1.587 6 0 0-2.111-7.9-12 3-12 0-9.735-16-29.991-16-43l-12-1-4 2c0 2.382 1.056 13-2 13 0 2.488-2 1.919-2 0 0-4.131-2-8.96-2-14-1.048 0-3 .473-3-1l-12 1-1 1c0 12.597-16 33.679-16 42 12.107 0 3 9.481 3 12 .706 0 6 2.726 6 0 0-7.083 5.221-12.861 11.5-16 1.406-.703 7.5-2.329 7.5 1 1.781 0 1.348-6.197 2-7.5.325-.651 4-5.781 4-2.5.714 0 2-3.336 2-1 3.533 0 6 6.655 6 10 10.201 0 19 5.853 19 16Z"/><path fill="#FF9BCD" id="MY" d="m131 223-1 1 1-1ZM326 224l1 1-1-1ZM130 225l-1 1 1-1ZM128 229l-1 1 1-1ZM329 231l1 1-1-1ZM127 232l-1 1 1-1ZM126 234l-1 1 1-1ZM125 238l-1 1 1-1ZM335 241c0 1.749-.97 15-2 15 0-5.675-1-11.954-1-17 1.481 0 .785 2 3 2ZM122 241c-.381 0-.585 12 1 12 0-4.569 1-8.923 1-13l-2 1Z"/><path fill="#FFB1D8" id="LIN" d="M179 243v1c-2.171 0-7.706 4.088-8 3.5-2.166-4.332 8-9.071 8-4.5ZM277 242l5.5-1c.586.293 4.136 7 2 7-1.633 0-4.221-4-6.5-4l-1-2Z"/><path fill="#FEC6E2" id="RO" d="M229 272v1c-2.393 0-3-3.234-3-5v-1l1-1v-14c.714 0 2-3.336 2-1 0 5.605 1 10.861 1 16v4l-1 1Z"/><path fill="#C8C8CC" id="tspc" d="M219 272c0 2.56 3.334 0 4 0l3-4v-1l1-1v-14c0-3.281-3.675 1.849-4 2.5-.652 1.303-.219 7.5-2 7.5 0 3.721-2 6.881-2 10ZM230 267c.021 0 7 9.284 7 5l-2-11c0-3.345-2.467-10-6-10 0 5.605 1 10.861 1 16Z"/><path fill="#FF9BCD" id="MY" d="m123 257 2 4-2-4ZM333 257c-1.473 0-1 1.952-1 3 1.473 0 1-1.952 1-3Z"/><path fill="#FEB3D6" id="AMBd" d="M171 266h1l2-1 1-1c0-2.601-1.04-5-4-5l-3 5v1l3 1ZM285 266h1l3-1-4-6c-2.098 0-3 1.939-3 4v2l3 1Z"/><path fill="#FF9BCD" id="MY" d="m320 259-1 2 1-2Z"/><path fill="#FDB2D9" id="MARN" d="m219 272-11.5 6c-1.956.978-4.077-1-5.5-1 0-7.083 5.221-12.861 11.5-16 1.406-.703 7.5-2.329 7.5 1 0 3.721-2 6.881-2 10ZM237 272l12.5 6 4.5-1c0-10.147-8.799-16-19-16l2 11Z"/><path fill="#FF9BCD" id="MY" d="m332 260-1 2 1-2ZM319 261c-1.712 0-3 2.571-3 4 1.712 0 3-2.571 3-4ZM125 262l2 3c-1.577 0-2-1.762-2-3Z"/><path fill="#FCB2D9" id="PGRNl" d="M196 277c-.002 0-9.016 10.758-11.5 12-4.668 2.334-7.721-4-11.5-4l-8.5-12-3.5 1-2-2 8-7h1l3 1 1 1c0 3.513 3 2.044 3-1l1-2c6.34 0 10.327 1 17 1 12.107 0 3 9.481 3 12ZM284 284l-1 1c-3.449 0-6.731 6.384-11.5 4L260 277c0-2.111-7.9-12 3-12 6.751 0 11.848-1 18-1l1 1c0 4.628 3 5.476 3 2l1-1 3-1 1 1 1 1 6 5-2 2c0-1.156-2.555-1.472-3.5-1-.369.185-7.5 10.569-7.5 11Z"/><path fill="#FF9BCD" id="MY" d="m281 264 1 1v-2l-1 1ZM331 263l-1 2 1-2ZM167 265h1v-1l-1 1ZM174 265l1 1 1-2h-1l-1 1Z"/><path fill="#FEB3D8" id="AMBv" d="M175 266c0 3.044-3 4.513-3 1v-1l2-1 1 1ZM285 266v1c0 3.476-3 2.628-3-2l3 1Z"/><path fill="#FF9BCD" id="MY" d="M316 265c-1.238 0-3 .423-3 2 1.238 0 3-.423 3-2ZM330 265l-1 1 1-1ZM133 272l2 3c-1.938 0-8-7.325-8-9l6 6ZM172 266v1l-1-1h1ZM227 266l-1 1 1-1ZM286 266l-1 1v-1h1ZM290 266l1 1-1-1ZM281 293c0 3.873-21.493 4.497-24.5 6-7.741 3.87-16.916 1.542-24-2l-3.5-2.5-.5-2.5c-.655 0-5.883 7-10.5 7 0-1.918 5.287-2.927 4-5.5l-9-4.5c0-1.135 3-2.954 3-1.5 0 1.346-.261 4.381 3.5 2.5 1.308-.654 5.314-4 6.5-4 0 4.718 4 3.365 4 0l6.5 4c3.694 1.847 4.284-3 5-3l2.5 2-4.5 3h-4c-7.558 3.779 13.846 10.809 15.5 7.5 2.578-5.155-6-6.783-6-10.5l7.5 5c.4-.2-6.076-7-5-7l7.5 6.5c.903 1.805-4.134 1.683-.5 3.5l5.5-.5c.823-1.647-1.341-5.5.5-5.5 1.692 0 4.854 5.073 7 4 1.71-.855-6.706-7.353-8-8-6.508-3.254-12.626-7.813-19-11-2.104-1.052-2.67 2-4 2-2.54 0-2.351-7-6.5-7v-4c.021 0 7 9.284 7 5l12.5 6 4.5-1c0 1.587 6 1.587 6 0l11.5 12c4.769 2.384 8.051-4 11.5-4 0 3.756 4.409 0 7 0 0 2.551-17.661 8-9 8ZM313 267l-2 1 2-1ZM329 267c-1.747 0-2 .253-2 2l2-2Z"/><path fill="#FF9BCD" id="MY" d="M227 277h2v-4c-2.393 0-3-3.234-3-5l-3 4c4.112 0 4 .174 4 5ZM297 277c2.415 0 8-4.333 8 1l6-3v-1l-2.5 1c-1.258.629-4.277-.946-3.5-2.5l6-4.5h-4c0 4.833-8.066 4-10 4l-2 2 2 3ZM327 269l-2 2c1.747 0 2-.253 2-2Z"/><path fill="#FFB3D8" id="IO" fill-rule="evenodd" d="M195 292c0 1.93 1.93 0 0 0m1-1c0 1.93 1.93 0 0 0m10-2c0 4.42 1.206 0 0 0m2-2c0 4.136 2.609 0 0 0m8-1c0 1.93 1.93 0 0 0m-6 0c0 1.93 1.93 0 0 0m1-1c0 1.93 1.93 0 0 0m-3 7-1 1c-1.812 0-1.87-2-2.5-2-3.836 0-.986 5.493-2 6-4.477 2.238-5.773-2.886-8-4-.478-.239-7.87 4.24-5.5-.5.887-1.774 23.348-14.924 26.5-16.5 2.71-1.355 3.094 3 4 3l3.5-7c4.112 0 4 .174 4 5l-1 2c-1.354 0-5.588 2 0 2v1l1 1-1 3c-1.186 0-5.192 3.346-6.5 4-3.761 1.881-3.5-1.154-3.5-2.5 0-1.454-3 .365-3 1.5h-1l-1 1-2 1-1 1Z"/><path fill="#FF9BCD" id="MY" d="m230 271-1 1 1-1Z"/><path fill="#FFB3D8" id="IO" fill-rule="evenodd" d="M239 286c0 1.93 1.93 0 0 0m5-1c0 3.781 3.781 0 0 0m0 4h1l7.5 5c.4-.2-6.076-7-5-7l7.5 6.5c.903 1.805-4.134 1.683-.5 3.5l5.5-.5c.823-1.647-1.341-5.5.5-5.5 1.692 0 4.854 5.073 7 4 1.71-.855-6.706-7.353-8-8-6.508-3.254-12.626-7.813-19-11-2.104-1.052-2.67 2-4 2-2.54 0-2.351-7-6.5-7l-1 1v5l1 1 1 1v1c2.913 0 1.456 2-1 2v4l6.5 4c3.694 1.847 4.284-3 5-3l2.5 2Z"/><path fill="#FF9BCD" id="MY" d="M323 272v1c1.747 0 2-.253 2-2l-2 1Z"/><path fill="#C9CACA" id="sctd" d="M152 283c1.238 0 3 1.514 3 0-1.811 0-4-3.438-4-5l-5-3c-4.288 0-7.898-3-13-3l2 3h1l6 3 1 1 8 4h1Z"/><path fill="#FF9BCD" id="MY" fill-rule="evenodd" d="M203 294c0 1.93 1.93 0 0 0m1-1c0 1.93 1.93 0 0 0m3 0c0 2.029-1.191 1.881-2 3.5-2.822 5.645 10.52 2.5 12 2.5 0 3.193-14.458 2.021-16.5 1-3.539-1.769-8.504-.252-12-2-8.241-4.121-17.642-5.821-26-10-1.555-.777-10.5-3.414-10.5-5 1.238 0 3 1.514 3 0h1l1 1h1l15.5 8c.75.375 3.77 1.959 4.5.5.958-1.916-11-4.375-11-7.5 2.244 0 6 4.057 6 0 3.779 0 6.832 6.334 11.5 4 2.484-1.242 11.498-12 11.5-12 .706 0 6 2.726 6 0 1.423 0 3.544 1.978 5.5 1l11.5-6c0 2.56 3.334 0 4 0l-3.5 7c-.906 0-1.29-4.355-4-3-3.152 1.576-25.613 14.726-26.5 16.5-2.37 4.74 5.022.261 5.5.5 2.227 1.114 3.523 6.238 8 4 1.014-.507-1.836-6 2-6 .63 0 .688 2 2.5 2Z"/><path fill="#C9CACA" id="sctd" d="M302 284h1l1-1h1l2-1 2-1h1l1-1 2-1h1c0-1.577 1.762-2 3-2h1l1-1 2-1 1-1 1-1v-1l-9 1c0 1.577-1.762 2-3 2l-6 3c0 2.003-1.53 5-4 5l1 1Z"/><path fill="#C8C8CB" id="rust" d="M167 285c2.244 0 6 4.057 6 0l-8.5-12-3.5 1-1 4c1.803 0 3 3.592 3 5 1.238 0 3 .423 3 2h1ZM290 285h1l1-1 2-1c0-2.813 3-3.921 3-6l-2-3c0-1.156-2.555-1.472-3.5-1-.369.185-7.5 10.569-7.5 11l-1 1c0 3.756 4.409 0 7 0Z"/><path fill="#C9C9C8" id="icp" d="M311 274v1c1.238 0 3-.423 3-2l-3 1Z"/><path fill="#FF9BCD" id="MY" d="m322 274-1 1 1-1ZM142 278v1c-1.178 0-6-2.572-6-4l6 3Z"/><path fill="#FEB0D9" id="LRNp" d="M158 284h4l1-1c0-1.408-1.197-5-3-5-2.02 0-9-6.424-9 0 0 1.562 2.189 5 4 5h1l1 1h1ZM294 284h5l2-1c2.47 0 4-2.997 4-5 0-5.333-5.585-1-8-1 0 2.079-3 3.187-3 6v1Z"/><path fill="#FF9BCD" id="MY" d="m321 275-2 1 2-1ZM319 276l-1 1 1-1Z"/><path fill="#FFC6E2" id="RPA" d="M226 286c0 4.718 4 3.365 4 0v-4l1-2v-1l-1-1-1-1h-2l-1 2v3l1 1-1 3Z"/><path fill="#FF9BCD" id="MY" d="M317 277c-1.238 0-3 .423-3 2 1.238 0 3-.423 3-2Z"/><path fill="#C9C9C8" id="icp" d="M142 279h1l-1-1v1Z"/><path fill="#FF9BCD" id="MY" d="m230 278 1 1-1-1ZM143 279l8 4-8-4ZM226 279c-1.354 0-5.588 2 0 2v-2ZM313 279l-2 1 2-1ZM231 280c2.913 0 1.456 2-1 2l1-2ZM311 280l-1 1 1-1ZM309 281l-2 1 2-1ZM226 282l1 1-1-1ZM307 282l-2 1 2-1Z"/><path fill="#CBC7CC" id="sctv" d="m156 283 1 1-1-1Z"/><path fill="#FF9BCD" id="MY" d="m162 284 4 1c0-1.577-1.762-2-3-2l-1 1ZM292 284h2v-1l-2 1ZM302 284c0 1.473-1.952 1-3 1v-1l2-1 1 1ZM304 283l-1 1 1-1Z"/><path fill="#CBC7CC" id="sctv" d="M166 285h1c0 3.125 11.958 5.584 11 7.5-.73 1.459-3.75-.125-4.5-.5l-15.5-8h4l4 1Z"/><path fill="#FF9BCD" id="MY" d="m284 284-1 1 1-1ZM292 284l-1 1 1-1Z"/><path fill="#CBC7CC" id="sctv" d="M281 293h1c0-1.817 7.169-4 9-4 0-2.109 2.535-2 4-2 0-2.109 2.535-2 4-2v-1h-7l-1 1h-1c0 2.551-17.661 8-9 8Z"/><path fill="#FF9BCD" id="MY" d="M211 285c0 1.93 1.93 0 0 0ZM244 285c0 3.781 3.781 0 0 0ZM299 285c-1.465 0-4-.109-4 2l4-2ZM210 286c0 1.93 1.93 0 0 0ZM216 286c0 1.93 1.93 0 0 0ZM239 286c0 1.93 1.93 0 0 0ZM208 287c0 4.136 2.609 0 0 0ZM295 287c-1.465 0-4-.109-4 2l4-2ZM206 289c0 4.42 1.206 0 0 0ZM212 289l-1 1 1-1Z"/><path fill="#C7C9C9" id="py" d="M217 299h1c0-1.918 5.287-2.927 4-5.5l-9-4.5h-1l-1 1-2 1-1 1-1 1c0 2.029-1.191 1.881-2 3.5-2.822 5.645 10.52 2.5 12 2.5ZM244 289h1c0 3.717 8.578 5.345 6 10.5-1.654 3.309-23.058-3.721-15.5-7.5h4l4.5-3Z"/><path fill="#FF9BCD" id="MY" d="M291 289c-1.831 0-9 2.183-9 4 1.831 0 9-2.183 9-4ZM211 290l-2 1 2-1ZM196 291c0 1.93 1.93 0 0 0ZM209 291l-1 1 1-1ZM195 292c0 1.93 1.93 0 0 0ZM208 292l-1 1 1-1Z"/><path fill="#FFB3D8" id="IO" d="M204 293c0 1.93 1.93 0 0 0ZM203 294c0 1.93 1.93 0 0 0Z"/></svg>