<svg xmlns="http://www.w3.org/2000/svg" viewBox="0 0 456 320"><path fill="#FEFA90" id="DEC" d="m179 107 3-3.5c.985-1.971 3.724-4.448 5-7 1.535-3.07-5.296-7.102-.5-9.5 6.17-3.085 14.271-4.636 21-8 4.49-2.245 11.411.295 16-2 6.759-3.38 32.397 5.198 38 8 2.357 1.179 8.089.677 9.5 3.5l-1 11 5 5 2 2.5c1.361 0 2.379-6.258 3-7.5 2.586-5.172 11-19.326 11-24.5-2.615 0-8.888-6.694-11.5-8-7.722-3.861-16.329-6.164-24-10H240c-13.345 0-35.14-3.68-46.5 2l-22 11-5.5 5c0 9.418 13 23.517 13 32Z"/><path fill="#FCFC90" id="ANcr1" d="M179 107c0 1.657-3.452 5-5 5l-7-8.5C160.241 89.981 141.65 87 128 87c0-3.212 2.053-3.553 4-5.5 10.7-10.7 19.779-6.5 34-6.5 0 9.418 13 23.517 13 32ZM277 107l5 5 7-7.5c6.912-13.823 24.402-17.5 39-17.5 0-2.957-2.14-4.82-4.5-6l-.5-2.5-6.5-3.5c-6.109-3.055-18.814 0-25.5 0 0 5.174-8.414 19.328-11 24.5-.621 1.242-1.639 7.5-3 7.5Z"/><path fill="#CBC9CC" id="arb" fill-rule="evenodd" d="M225 79c0 2.497-11.624.062-13.5 1-5.445 2.723-19.971 9.442-22.5 14.5-2.11 4.22 9.249 18.874 12.5 20.5h3c1.936.968 4.353 3.677 7 5l9 1c10.971 5.485 22.469-1.734 31-6 2.925-1.463 5.899-1.298 7.5-4.5l4-3v-4c1.2-2.4 6.344-5.311 4-10-3.057-6.113-13.954-8.727-19.5-11.5-5.978-2.989-15.484-3-22.5-3m-13 45c5.757 0 17.449 4.525 22.5 2 3.536-1.768 5.155-2 9.5-2 0-2.099 7.032-1.266 8.5-2 8-4 13.671-5 23.5-5 10.923 0 36.457 25.957 45 34.5 3.071 3.071 16.381 20.238 18 17 2.229-4.458-6.101-10.101-8.5-12.5L297 123c-.676 0-1.85-4.175-3.5-5-2.275-1.137-11.5-2.142-11.5-6l-5-5-2-2.5-5-5 1-11c-1.411-2.823-7.143-2.321-9.5-3.5-5.603-2.802-31.241-11.38-38-8-4.589 2.295-11.51-.245-16 2-6.729 3.364-14.83 4.915-21 8-4.796 2.398 2.035 6.43.5 9.5-1.276 2.552-4.015 5.029-5 7l-3 3.5c0 1.657-3.452 5-5 5 0 5.712-15 3.634-15 12l-2 1c0 2.31-5.877 6.377-8 8.5l-22 22c-2.694 2.694-11.771 7.459-9 13 .983 1.967 4.683-1.366 5-2 3.219-6.437 7.24-10.24 12-15 7.788-7.788 34.22-34.5 45-34.5 10.027 0 16.333.916 24.5 5 1.303.652 7.5.219 7.5 2Z"/><path fill="#FEFA90" id="DEC" d="M225 79c0 2.497-11.624.062-13.5 1-5.445 2.723-19.971 9.442-22.5 14.5-2.11 4.22 9.249 18.874 12.5 20.5h3c1.936.968 4.353 3.677 7 5l9 1c10.971 5.485 22.469-1.734 31-6 2.925-1.463 5.899-1.298 7.5-4.5l4-3v-4c1.2-2.4 6.344-5.311 4-10-3.057-6.113-13.954-8.727-19.5-11.5-5.978-2.989-15.484-3-22.5-3Z"/><path fill="#FCFA91" id="ANcr2" fill-rule="evenodd" d="M113 129c0 2.091 3.746 0 0 0m2-2c0 4.123 4.123 0 0 0m11-9-9 8.5c0 1.568 5.954-2.227 6.5-2.5 3.618-1.809 8.298-1.149 12-3 2.795-1.397 13.094-1 16-1l5.5-.5c0-1.833-6.353-2.074-7.5-1.5-6.612 3.306-16.595 0-23.5 0m31 7c-5.701 0-11.611 5.555-16.5 8-9.417 4.709-43.297 25-51.5 25-12.688 0-11.317-14.866-7-23.5 2.085-4.171 4.892-7.784 7-12 1.308-2.616.724-6.447 2-9 5.696-11.392 23.76-26.5 37-26.5 13.65 0 32.241 2.981 39 16.5l7 8.5c0 5.712-15 3.634-15 12l-2 1ZM300 118c0 4.479 17.194 1.347 20.5 3 4.648 2.324 10.373 1.687 15 4l8 6c2.343 0-3.681-3.841-4-4l-8-8c-3.141-1.57-26.059-1-31.5-1m-3 5 15.5 8c13.007 6.503 26.06 13.53 39 20 4.283 2.141 10.611 7 15.5 7 12.414 0 11.603-15.294 7-24.5-4.224-8.449-7.202-16.403-11-24-4.405-8.81-25.348-22.5-35-22.5-14.598 0-32.088 3.677-39 17.5l-7 7.5c0 3.858 9.225 4.863 11.5 6 1.65.825 2.824 5 3.5 5Z"/><path fill="#FFFB8E" id="PRM" d="m123 200-1 1c-17.272 0-28.267-16.034-35-29.5-2.223-4.446 2-10.059 2-13.5 8.203 0 42.083-20.291 51.5-25 4.889-2.445 10.799-8 16.5-8 0 2.31-5.877 6.377-8 8.5l-22 22c-2.694 2.694-11.771 7.459-9 13 .983 1.967 4.683-1.366 5-2 3.219-6.437 7.24-10.24 12-15 7.788-7.788 34.22-34.5 45-34.5l2 14c-3.371 0-6.579 4.539-9.5 6-5.86 2.93-28.41 31.319-31.5 37.5-3.217 6.434-11 10.789-11 18.5l-7 7Z"/><path fill="#FDFB90" id="FOTU" d="M212 124c-5.763 0-15.546.523-20.5 3l-9.5 4-2-14c10.027 0 16.333.916 24.5 5 1.303.652 7.5.219 7.5 2ZM244 124c5.763 0 15.546.523 20.5 3l10.5 4 1-14c-9.829 0-15.5 1-23.5 5-1.468.734-8.5-.099-8.5 2Z"/><path fill="#FFFB8E" id="PRM" d="m327 193 7 8c14.493 0 27.153-11.807 33-23.5l3-10c1.855-3.71-3-6.78-3-9.5-4.889 0-11.217-4.859-15.5-7-12.94-6.47-25.993-13.497-39-20l-15.5-8 33.5 33c2.399 2.399 10.729 8.042 8.5 12.5-1.619 3.238-14.929-13.929-18-17-8.543-8.543-34.077-34.5-45-34.5l-1 14v1c5.543 0 8.834 6.667 13.5 9 3.906 1.953 26.43 31.361 28.5 35.5 2.663 5.326 10 10.241 10 16.5Z"/><path fill="#CBC9CC" id="arb" d="m126 118-9 8.5c0 1.568 5.954-2.227 6.5-2.5 3.618-1.809 8.298-1.149 12-3 2.795-1.397 13.094-1 16-1l5.5-.5c0-1.833-6.353-2.074-7.5-1.5-6.612 3.306-16.595 0-23.5 0ZM300 118c0 4.479 17.194 1.347 20.5 3 4.648 2.324 10.373 1.687 15 4l8 6c2.343 0-3.681-3.841-4-4l-8-8c-3.141-1.57-26.059-1-31.5-1Z"/><path fill="#FFFB8E" id="PRM" d="m159 124-2 1 2-1Z"/><path fill="#FBFC91" id="PYR" d="M183 143c4.3 0 10.635-6.067 14.5-8 8.813-4.406 21.026-3 30.5-3 2.681 0 8.316-2.592 11.5-1 5.609 2.804 13.395 1.197 19 4l15.5 9c0-3.962 1-8.688 1-12v-1l-10.5-4c-4.954-2.477-14.737-3-20.5-3-4.345 0-5.964.232-9.5 2-5.051 2.525-16.743-2-22.5-2-5.763 0-15.546.523-20.5 3l-9.5 4 1 12Z"/><path fill="#CBC9CC" id="arb" d="M115 127c0 4.123 4.123 0 0 0ZM113 129c0 2.091 3.746 0 0 0Z"/><path fill="#FFF990" id="COPY" fill-rule="evenodd" d="M147 185c0 1.93 1.93 0 0 0m4-4-2.5 4c.846.423 7.16-4 2.5-4m-4 16-1 1-8.5 3c-2.042-1.021-6.743-8-7.5-8 0-7.711 7.783-12.066 11-18.5 3.09-6.181 25.64-34.57 31.5-37.5 2.921-1.461 6.129-6 9.5-6l1 12c0 3.27-17.466 22.431-20 27.5l-9.5 10.5c1.168.584 9.963-8 11.5-8v8l-4 4.5-14 11.5Z"/><path fill="#CBC9CC" id="arb" fill-rule="evenodd" d="M291 172v1c3.98 0 14.891 13.304 17.5 12 .242-.121-10.426-8.352-11.5-10.5L274 144l-15.5-9c-5.605-2.803-13.391-1.196-19-4-3.184-1.592-8.819 1-11.5 1-9.474 0-21.687-1.406-30.5 3-3.865 1.933-10.2 8-14.5 8 0 3.27-17.466 22.431-20 27.5l-9.5 10.5c1.168.584 9.963-8 11.5-8l1-1 1-1c4.106 0 11.775-5.137 15.5-7 7.288-3.644 29.544 1.228 36-2 2.459-1.229 9.86-3.57 13-2 8.564 4.282 32.379.189 38 3 1.83.915 19.751 8 20.5 8l1 1m-112-13c9.985 0 41.373-4.064 47.5-1l17-1c5.782 2.891 27.295 3 34.5 3l2.5 1c1.016-.508-5.601-12-7.5-12 0-6.428-11.631-8.065-15.5-10-11.483-5.742-47.501-5.75-59 0-3.201 1.601-15.5 4.1-15.5 10-.64 0-9.898 11-5 11l1-1Z"/><path fill="#FFF990" id="COPY" d="M327 193c-1.959 0-5.575 6.538-8.5 8-2.511 1.256-8.022-5-10.5-5l-15-13-1-2 1-4.5-2-3.5c3.98 0 14.891 13.304 17.5 12 .242-.121-10.426-8.352-11.5-10.5L274 144c0-3.962 1-8.688 1-12 5.543 0 8.834 6.667 13.5 9 3.906 1.953 26.43 31.361 28.5 35.5 2.663 5.326 10 10.241 10 16.5Z"/><path fill="#FBFC91" id="PYR" d="m183 153 14.5-6c8.023-4.011 28.388-2 38.5-2h12.5c3.25 1.625 7.827.414 11 2l13.5 6v-4c0-6.428-11.631-8.065-15.5-10-11.483-5.742-47.501-5.75-59 0-3.201 1.601-15.5 4.1-15.5 10v4Z"/><path fill="#FFFA8F" id="UVU" d="M179 159c9.985 0 41.373-4.064 47.5-1l17-1c5.782 2.891 27.295 3 34.5 3l-5-7-13.5-6c-3.173-1.586-7.75-.375-11-2H236c-10.112 0-30.477-2.011-38.5 2l-14.5 6c0 3.086-4 2.914-4 6Z"/><path fill="#FFF990" id="COPY" d="m179 159-1 1c-4.898 0 4.36-11 5-11v4c0 3.086-4 2.914-4 6ZM273 153l5 7 2.5 1c1.016-.508-5.601-12-7.5-12v4Z"/><path fill="#FFFA8F" id="UVU" d="m179 159-1 1 1-1ZM233 193h2c18.894 0 32.902-11 51-11l1-1h5l1-4.5-2-3.5v-1l-1-1c-.749 0-18.67-7.085-20.5-8-5.621-2.811-29.436 1.282-38-3-3.14-1.57-10.541.771-13 2-6.456 3.228-28.712-1.644-36 2-3.725 1.863-11.394 7-15.5 7l-1 1-1 1v8c20.092 0 35.506 12 56 12h12Z"/><path fill="#FFF990" id="COPY" d="m167 171-1 1 1-1ZM290 171l1 1-1-1ZM166 172l-1 1 1-1Z"/><path fill="#CBC9CC" id="arb" d="m151 181-2.5 4c.846.423 7.16-4 2.5-4Z"/><path fill="#F0F080" id="CB" d="m287 181-1 1 1-1ZM292 181l1 2-2-2h1Z"/><path fill="#CBC9CC" id="arb" d="M147 185c0 1.93 1.93 0 0 0Z"/><path fill="#FF9BCD" id="MY" d="m167 187-1 1 1-1Z"/><path fill="#FFA2D2" id="ECU" d="M185 191c0 4.51-4.835 8-9 8-3.296 0-16.871-.759-14-6.5l2-3.5 2-1 1-1h10l1 1h2l1 1h2l2 2Z"/><path fill="#FF9BCD" id="MY" d="m177 187 1 1-1-1ZM279 187l-1 1 1-1Z"/><path fill="#FFA2D2" id="ECU" d="M271 191c0 4.134 5.083 8 9 8 10.935 0 13 .133 13-10h-1l-1-1h-1l-1-1h-10l-1 1h-1l-2 1h-2l-2 2Z"/><path fill="#FF9BCD" id="MY" d="m289 187 1 1-1-1ZM180 188l1 1-1-1ZM277 188l-2 1 2-1ZM291 188l1 1-1-1ZM179 215l5 1-1-4.5 4-2.5-2-2c-7.088 0-9-2.295-9-8-3.296 0-16.871-.759-14-6.5l2-3.5c-2.453 0-19 11.282-19 14 3.541 0 6.145-3 10-3 0-1.939 10.693-3.113 12-.5l-2 2.5c6.477 0 14 6.222 14 13ZM197 199h5c.904 0 10-3.816 10-4-10.097 0-19.266-6-29-6l2 2c6.068 0 12 2.872 12 8ZM268 191h3l2-2c-1.041 0-5 .986-5 2ZM277 215l-5 1 2-3.5-5-3.5c1.747 0 2-.253 2-2 8.345 0 9-1.968 9-8 10.935 0 13 .133 13-10 2.631 0 24 16.572 24 19-3.154 0-9.824-8-16-8 0-2.513-10.887-2.725-12-.5-1.078 2.156 3 .79 3 2.5-6.076 0-15 6.458-15 13Z"/><path fill="#FDA5D0" id="CU" d="M197 199c-2.075 0-12 5.236-12 8-7.088 0-9-2.295-9-8 4.165 0 9-3.49 9-8 6.068 0 12 2.872 12 8Z"/><path fill="#FF9BCD" id="MY" d="M255 199c0-2.56 3.334 0 4 0 0-7.243 9-5.731 9-8-8.3 0-14.972 4-23 4 0 .629 8.915 4 10 4Z"/><path fill="#FDA5D0" id="CU" d="M280 199c0 6.032-.655 8-9 8 0-2.875-8.666-8-12-8 0-7.243 9-5.731 9-8h3c0 4.134 5.083 8 9 8Z"/><path fill="#F0F080" id="CB" d="M146 198c0 8.778-19.158 2-23 2l7-7c.757 0 5.458 6.979 7.5 8l8.5-3Z"/><path fill="#FF9BCD" id="MY" d="m223 193-2 1v-1h2Z"/><path fill="#FFA5D0" id="AP" d="M234 199h1l4-3-1-1h-1l-1-1h-1l-2-1h-4c0 1.186-1 1.186-1 0h-5l-2 1-3 1v1c0 1.712 2.571 3 4 3h12Z"/><path fill="#FF9BCD" id="MY" d="M235 193v1l-2-1h2Z"/><path fill="#F0F080" id="CB" d="m308 196 2.5 2 5 5c.195.098 16.254-2 18.5-2l-7-8c-1.959 0-5.575 6.538-8.5 8-2.511 1.256-8.022-5-10.5-5Z"/><path fill="#FF9BCD" id="MY" d="m236 194 1 1-1-1Z"/><path fill="#FDA5D1" id="NTS" d="M195 220h1c4.427 0 7.6-4 8-4 0-11.522 18-14.125 18-1 2.313 0 5 2.273 5-2 0-4.852-5-10.763-5-14-1.429 0-4-1.288-4-3l-1-1h-5c0 .184-9.096 4-10 4l-3 4c5.869 0-2 7.178-2 1-3.251 0-5.623 5-10 5l-4 2.5 1 4.5h1l2 1 7 2 1 1Z"/><path fill="#FF9BCD" id="MY" d="M218 195v1l-1-1h1ZM239 195v1l-1-1h1Z"/><path fill="#FDA5D1" id="NTS" d="M261 220h1l1-1 7-2 1-1h1l2-3.5-5-3.5c-2.375 0-9-2.589-9-5l-3.5 3c-1.057-.529-.831-4 .5-4l-2-4c-1.085 0-10-3.371-10-4h-6v1l-4 3-1 1-1 2-1 1-3 10c0 5.508 3.888 1 6 1 0-14.699 18-6.74 18 2 0 4.534 4.71 4 8 4Z"/><path fill="#F0F080" id="CB" d="m147 197-1 1 1-1Z"/><path fill="#C8CACA" id="sptV" d="M160 203h2l1-1h2l2-2.5c-1.307-2.613-12-1.439-12 .5 4.812 0 5-.746 5 3Z"/><path fill="#FFB2D6" id="PAS" d="m185 207 2 2c4.377 0 6.749-5 10-5l2-1 3-4h-5c-2.075 0-12 5.236-12 8ZM271 207c0 1.747-.253 2-2 2-2.375 0-9-2.589-9-5 0-1.473-1.952-1-3-1l-2-4c0-2.56 3.334 0 4 0 3.334 0 12 5.125 12 8Z"/><path fill="#C8CACA" id="sptV" d="M294 203h2c0-3.746.188-3 5-3 0-2.513-10.887-2.725-12-.5-1.078 2.156 3 .79 3 2.5h1l1 1Z"/><path fill="#AAA9A7" id="V4" d="M227 213h2l3-10 1-1 1-2v-1h-12c0 3.237 5 9.148 5 14Z"/><path fill="#FF9BCD" id="MY" d="m235 199-1 1v-1h1Z"/><path fill="#F0F080" id="CB" d="m123 200-1 1 1-1Z"/><path fill="#FDA3D1" id="Pa5" d="m134 215 1 2c2.853 0 6.931-4 10-4l2-2h1l1-1 1-1c3.165 0 5.574-5 9-5l1-1c0-3.746-.188-3-5-3-3.855 0-6.459 3-10 3l-2 2-4 4-4 5-1 1ZM320 212c0 1.624 2 2.75 2 5-3.394 0-12.478-7-14-7h-1c0-1.222-6.549-5-8-5l-1-1-2-1c0-3.746.188-3 5-3 6.176 0 12.846 8 16 8l3 4Z"/><path fill="#FF9BCD" id="MY" d="m163 202-1 1 1-1Z"/><path fill="#FDA5D2" id="SPVI" d="M143 269h6c1.145 0 4 .579 4-1-4.941 0-9.468-19.565-7-24.5 4.928-9.856 2.223-17.862 13.5-23.5l8.5 2c4.428 0 11 .489 11-7 0-6.778-7.523-13-14-13h-2l-1 1h-2l-1 1c-3.426 0-5.835 5-9 5l-1 1-1 1-1 1-2 1c0 1.369-5.734 8-8 8l-1 1-1 1-1 1-1 2-1 1-1 4-1 2-1 14 1 2v1l1 2v2l1 1v1l1 2v1l2 4v1l4 4h1l1 1h2Z"/><path fill="#FF9BCD" id="MY" d="m233 202-1 1 1-1Z"/><path fill="#FDA5D2" id="SPVI" d="M308 269h5l4-1 1-1c1.712 0 3-2.571 3-4l1-1 1-2v-1l1-2 1-2v-2l1-1v-1l1-2v-7c0-6.444-4-15.017-4-17l-1-1-4-4-1-1-7-6-1-1-1-1-1-1c0-1.222-6.549-5-8-5l-1-1-2-1h-2l-1-1h-1c-6.076 0-15 6.458-15 13 0 5.614 6.263 8 11 8 0-6.631 13.934-.566 16.5 2 5.139 5.139 7.802 26.895 4.5 33.5-1.495 2.99-.754 9.5-6 9.5 0 1.643 3.765 1 5 1Z"/><path fill="#FF9BCD" id="MY" d="m293 202 1 1-1-1ZM145 203c-1.747 0-2 .253-2 2l2-2ZM160 203l-1 1 1-1Z"/><path fill="#C8CAC7" id="ts" d="M199 203c5.869 0-2 7.178-2 1l2-1ZM257 203c1.048 0 3-.473 3 1l-3.5 3c-1.057-.529-.831-4 .5-4Z"/><path fill="#FF9BCD" id="MY" d="m298 204 1 1-1-1ZM143 205c-2.226 0-4 1.774-4 4l4-4Z"/><path fill="#FDB1D8" id="DMX" d="M217 216h2l3-1c0-13.125-18-10.522-18 1 1.714 0 13-2.459 13 0ZM240 216c0-2.231 11.087 0 13 0 0-8.74-18-16.699-18-2 0 1.747.253 2 2 2h3Z"/><path fill="#FF9BCD" id="MY" d="m150 209-1 1 1-1ZM149 210l-1 1 1-1ZM308 210v1l-1-1h1Z"/><path fill="#C8CACA" id="sptV" d="m312 274 2 1 8-6 1-1 1-1 1-2 2-4c0-1.424.362-5 2-5 0-6.499 2-12.821 2-20v-1c-1.473 0-1-1.952-1-3v-1l-1-1-1-5-1-1v-1l-5-6c-3.394 0-12.478-7-14-7v1l1 1 1 1 7 6 1 1 4 4 1 1c0 1.983 4 10.556 4 17 1.566 0 1.566 5 0 5v2l-1 2v1l-1 1v2l-1 2-1 2v1l-1 2-1 1c0 1.429-1.288 4-3 4l-1 1-4 1-1 5ZM147 212l-2 1 2-2v1Z"/><path fill="#FF9BCD" id="MY" d="m148 211-1 1v-1h1ZM309 212l1 1-1-1ZM322 217l5 6c0-2.209-4.239-11-7-11 0 1.624 2 2.75 2 5Z"/><path fill="#C8CACA" id="sptV" d="m145 274-2 1c-11.357 0-18-27.182-18-36 1.684 0 1-4.679 1-6l1-2v-3l1-1v-1l1-1v-1l6-7c2.853 0 6.931-4 10-4 0 1.369-5.734 8-8 8l-1 1-1 1-1 1-1 2-1 1-1 4-1 2-1 14 1 2v1l1 2v2l1 1v1l1 2v1l2 4v1l4 4h1l1 1h2c0 1.624 2 2.75 2 5Z"/><path fill="#FF9BCD" id="MY" fill-rule="evenodd" d="m239 287-4 4.5c0 3.227 15.288 7.606 17.5 6.5 4.327-2.164-7.317-11-13.5-11m-27 0c0 2.404-11.029 6.442-9 10.5.87 1.741 5.571-.5 7-.5 2.586 0 13.015-2.47 11-6.5l-4-3-5-.5m18 8c2.154 0 18.635 4.067 20.5 5l22-2c2.31 0 14.5-.093 14.5-2-9.974 0 6-3.886 6-7h-2l-11.5 6c-5.98 2.99-14.5-11.682-14.5-16-14.654 0-23.94-23.38-29-33.5-1.631-3.262 3-4.986 3-6.5-3.248 0-2-2.366-2-4l-7.5 1c-3.116-1.558.687-14.873 1.5-16.5 1.02-2.04 6-2.424 6-3.5-1.747 0-2-.253-2-2-2.112 0-6 4.508-6-1h-2c0 4.273-2.687 2-5 2l-3 1c0 1.779 4.928.357 6 2.5 1.297 2.593 6.389 15.056 1.5 17.5l-7.5-1c0 1.004 2.31 4-1 4l3 5.5c-5.012 10.025-14.934 34.5-29 34.5-1.951 0-.477 2.454-1 3.5-1.819 3.637-5.037 9.768-8.5 11.5-7.277 3.639-11.221-5-17.5-5h-2l11 6.5-3.5.5c-3.028-1.514-11.5-3.736-11.5-8l-3-3c0 7.32-13-8.861-13-10-11.357 0-18-27.182-18-36-1.246 0-.838 11.824 0 13.5 5.064 10.129 15.109 28.804 26.5 34.5 17.678 8.839 21.251 12 43 12l12 1c2.419-1.21 17.569-5 20.5-5l-2-2.5c-1.292-2.583 2-5.121 2-7.5l-3 2c-6.89 0-10.25-4.25-16.5 2l-8 6c-1.307.653-5.497-.506-4.5-2.5 2.244-4.487 26-15.927 26-19.5-10.348 0 5.9-17 6-17 0-5.554 2-6.953 2 0 3.274 0 14.428 17 7 17 0 3.499 22.822 15.144 25 19.5v1.5c0 5.423-11.01-4.755-11.5-5-9.644-4.822-9.583-3-19.5-3v9Z"/><path fill="#FF9BCD" id="MY" d="m135 214-1 1 1-1ZM135 217l-6 7c0-1.927 2.79-9 5-9l1 2Z"/><path fill="#FDB1D7" id="MDRNd" d="M157 274h7c3.84 0 5.897-8.397 8.5-11 7.766-7.766 14.739-19.978 19.5-29.5 1.64-3.279 6-5.608 6-9.5l-2-4h-1l-1-1-7-2-2-1h-1l-5-1c0 7.489-6.572 7-11 7 0 4.287-7.084 32.668-9 36.5-.961 1.922-2.804 9.5-6 9.5 0 1.579-2.855 1-4 1 0 3.386 2.639 6 6 6l2-1Z"/><path fill="#FF9BCD" id="MY" d="M210 231h2c0-7.073-10.493-15 5-15 0-2.459-11.286 0-13 0-.4 0-3.573 4-8 4l2 4 2.5-3c2.975-1.488 9.5 7.833 9.5 10ZM245 231h1l7.5-10c2.116-1.058 2.898 2 4.5 2l3-3c-3.29 0-8 .534-8-4-1.913 0-13-2.231-13 0 11.666 0 5 8.05 5 15Z"/><path fill="#FDB1D7" id="MDRNd" d="M292 274h7c3.483 0 9 .637 9-5-1.235 0-5 .643-5-1l-6-7.5c-1.98-3.96-.051-10.102-2-14-2.939-5.878-7-16.785-7-23.5-4.737 0-11-2.386-11-8l-5 1h-1l-1 1-7 2-1 1h-1l-3 3c0 4.456 5.116 7.732 7 11.5l18.5 28.5c2.082 2.082 5.438 11 8.5 11Z"/><path fill="#FF9BCD" id="MY" d="m185 216 2 1-2-1Z"/><path fill="#FEB1D7" id="XII" d="M212 231c1.683 0 3.701 4 7 4l7.5 1c4.889-2.444-.203-14.907-1.5-17.5-1.072-2.143-6-.721-6-2.5h-2c-15.493 0-5 7.927-5 15Z"/><path fill="#FEB1D7" id="XII" d="M245 231c-2.622 0-4.285 4-8 4l-7.5 1c-3.116-1.558.687-14.873 1.5-16.5 1.02-2.04 6-2.424 6-3.5h3c11.666 0 5 8.05 5 15Z"/><path fill="#FF9BCD" id="MY" d="m271 216-1 1 1-1ZM194 219l1 1-1-1ZM263 219l-1 1 1-1ZM317 219l1 1-1-1Z"/><path fill="#FDA4D0" id="SPVC" d="m168 222-8.5-2c-11.277 5.638-8.572 13.644-13.5 23.5-2.468 4.935 2.059 24.5 7 24.5 3.196 0 5.039-7.578 6-9.5 1.916-3.832 9-32.213 9-36.5ZM288 223c0 6.715 4.061 17.622 7 23.5 1.949 3.898.02 10.04 2 14l6 7.5c5.246 0 4.505-6.51 6-9.5 3.302-6.605.639-28.361-4.5-33.5-2.566-2.566-16.5-8.631-16.5-2Z"/><path fill="#FF9BCD" id="MY" d="m137 221-1 1 1-1Z"/><path fill="#FFB2D8" id="IRN" fill-rule="evenodd" d="M164 274c0 4.394 15.855 1 18 1 0-8.214 14.994-24.487 19-32.5 1.599-3.198 5.179-7.5 9-7.5v-4c0-2.167-6.525-11.488-9.5-10l-2.5 3c0 3.892-4.36 6.221-6 9.5-4.761 9.522-11.734 21.734-19.5 29.5-2.603 2.603-4.66 11-8.5 11m12-7c0-2.191 4.559-.382 5 .5 1.953 3.907-4.445 7.027-7.5 5.5-3.627-1.814-.265-6 2.5-6ZM277 266l-2 3.5c0 4.709 11.829 5.658 8-2l-2.5-.5-3.5-1m15 8c0 4.689-15.369 1-17 1 0-4.811-16.879-27.258-20-33.5-1.466-2.932-5.955-6.5-9-6.5v-4l7.5-10c2.116-1.058 2.898 2 4.5 2 0 4.456 5.116 7.732 7 11.5l18.5 28.5c2.082 2.082 5.438 11 8.5 11Z"/><path fill="#FF9BCD" id="MY" d="m136 222-1 1 1-1ZM135 223l-1 1 1-1ZM322 224l1 1-1-1ZM327 224l1 1-1-1ZM129 225l-1 1 1-1ZM133 226l-1 1 1-1ZM128 227l-1 1 1-1ZM329 230l1 1-1-1ZM127 231l-1 2 1-2ZM131 231l-1 2 1-2Z"/><path fill="#FFB1D9" id="NR" d="M219 235c0 1.004 2.31 4-1 4-1.856 0-7-1.782-7-4l-1-1v-3h2c1.683 0 3.701 4 7 4ZM246 235c-2.367 0-4.032 4-7 4-3.248 0-2-2.366-2-4 3.715 0 5.378-4 8-4h1v4Z"/><path fill="#FF9BCD" id="MY" d="M330 232c1.473 0 1 1.952 1 3-1.473 0-1-1.952-1-3ZM126 233c-1.684 0-1 4.679-1 6 1.684 0 1-4.679 1-6ZM210 235h1l-1-1v1Z"/><path fill="#FFB1D6" id="MDRNv" d="M182 275c4.614 0 10-3.71 10 4 14.066 0 23.988-24.475 29-34.5l-3-5.5c-1.856 0-7-1.782-7-4h-1c-3.821 0-7.401 4.302-9 7.5-4.006 8.013-19 24.286-19 32.5ZM275 275c-4.712 0-10-3.672-10 4-14.654 0-23.94-23.38-29-33.5-1.631-3.262 3-4.986 3-6.5 2.968 0 4.633-4 7-4 3.045 0 7.534 3.568 9 6.5 3.121 6.242 20 28.689 20 33.5Z"/><path fill="#FF9BCD" id="MY" d="M331 236c1.643 0 1 3.765 1 5 0 2.702.021 15-3 15 0-6.499 2-12.821 2-20ZM327 242c1.566 0 1.566 5 0 5v-5ZM129 247l1 2-1-2ZM327 249l-1 2 1-2ZM130 250l1 2-1-2Z"/><path fill="#FEC6E2" id="RO" d="M229 263v1l-2-1v-7c0-5.554 2-6.953 2 0v7Z"/><path fill="#FF9BCD" id="MY" d="m326 252-1 1 1-1ZM131 254l1 1-1-1ZM325 255l-1 2 1-2ZM132 256l1 2-1-2Z"/><path fill="#C8C8CC" id="tspc" d="M227 263c-1.997 0-6 8.316-6 10-10.348 0 5.9-17 6-17v7ZM230 263l6 10c7.428 0-3.726-17-7-17v6l1 1Z"/><path fill="#FF9BCD" id="MY" d="M329 256c-1.638 0-2 3.576-2 5 1.638 0 2-3.576 2-5ZM324 257l-1 2 1-2ZM133 259l2 4-2-4ZM323 260l-1 2 1-2ZM327 261l-2 4c2.109 0 2-2.535 2-4ZM229 263h1l-1-1v1ZM322 262l-1 1 1-1Z"/><path fill="#FFB3D8" id="IO" d="M227 279v6l-3 2c-6.89 0-10.25-4.25-16.5 2l-8 6c-1.307.653-5.497-.506-4.5-2.5 2.244-4.487 26-15.927 26-19.5 0-1.684 4.003-10 6-10v16Z"/><path fill="#FF9BCD" id="MY" d="m229 277-2 2v-16l2 1v13Z"/><path fill="#FFB3D8" id="IO" d="M230 285v1c9.917 0 9.856-1.822 19.5 3 .49.245 11.5 10.423 11.5 5v-1.5c-2.178-4.356-25-16.001-25-19.5l-6-10h-1v21l1 1Z"/><path fill="#FF9BCD" id="MY" d="m135 264 4 4-4-4ZM325 265l-1 2 1-2Z"/><path fill="#FF9BCD" id="MY" fill-rule="evenodd" d="m176 267-1 3.5c1.416 2.832 8.113-3.5 1-3.5m0 0c0-2.191 4.559-.382 5 .5 1.953 3.907-4.445 7.027-7.5 5.5-3.627-1.814-.265-6 2.5-6ZM278 267l-1 3.5c1.625 3.251 7.689-3.5 1-3.5m-1-1-2 3.5c0 4.709 11.829 5.658 8-2l-2.5-.5-3.5-1Z"/><path fill="#FEB3D8" id="AMBv" d="m176 267-1 3.5c1.416 2.832 8.113-3.5 1-3.5ZM278 267l-1 3.5c1.625 3.251 7.689-3.5 1-3.5Z"/><path fill="#FF9BCD" id="MY" d="m318 267-1 1 1-1ZM324 267l-1 1 1-1ZM140 268l1 1-1-1ZM323 268l-1 1 1-1ZM156 280l-1 2-4.5-5-5.5-3c0-2.25-2-3.376-2-5h6c0 3.386 2.639 6 6 6l1 5ZM301 280l1 2c2.35 0 5.827-8 10-8l1-5h-5c0 5.637-5.517 5-9 5 0 1.031 2 3.289 2 6ZM314 275c0 3.741-8 5.783-8 10 1.092 0 16-14.448 16-16l-8 6Z"/><path fill="#C9CACA" id="sctd" d="m155 282 1 3c0 7.32-13-8.861-13-10l2-1 5.5 3 4.5 5Z"/><path fill="#FF9BCD" id="MY" d="m157 274-2 1 2-1Z"/><path fill="#FCB3D7" id="LRNm" d="M156 280c0 3.304 9 5.247 9 9 6.279 0 10.223 8.639 17.5 5 3.463-1.732 6.681-7.863 8.5-11.5.523-1.046-.951-3.5 1-3.5 0-7.71-5.386-4-10-4-2.145 0-18 3.394-18-1h-7l-2 1 1 5ZM300 281l-9 8-11.5 6c-5.98 2.99-14.5-11.682-14.5-16 0-7.672 5.288-4 10-4 1.631 0 17 3.689 17-1h7c0 1.031 2 3.289 2 6l-1 1Z"/><path fill="#C9CACA" id="sctd" d="m305 286-2 1c-2.293 0-2-.997-2-3v-1l1-1c2.35 0 5.827-8 10-8l2 1c0 3.741-8 5.783-8 10l-1 1Z"/><path fill="#FFC6E2" id="RPA" d="M227 295h3v-10l-1-1v-7l-2 2v6c0 2.379-3.292 4.917-2 7.5l2 2.5Z"/><path fill="#C8C8CB" id="rust" d="M163 289h2c0-3.753-9-5.696-9-9l-1 2 1 3 3 3 4 1Z"/><path fill="#FF9BCD" id="MY" d="m301 280-1 1 1-1Z"/><path fill="#C8C8CB" id="rust" d="M291 289h2l4-1 4-4v-1l1-1-1-2-1 1-9 8Z"/><path fill="#FF9BCD" id="MY" d="m302 282-1 1 1-1ZM229 284l1 1-1-1ZM297 288c3.596 0-7 6.343-7 7 2.816 0 13-4.524 13-8-2.293 0-2-.997-2-3l-4 4ZM306 285l-1 1 1-1ZM305 286l-2 1 2-1Z"/><path fill="#C7C9C9" id="py" d="M212 287c0 2.404-11.029 6.442-9 10.5.87 1.741 5.571-.5 7-.5 2.586 0 13.015-2.47 11-6.5l-4-3-5-.5ZM239 287l-4 4.5c0 3.227 15.288 7.606 17.5 6.5 4.327-2.164-7.317-11-13.5-11Z"/><path fill="#CBC7CC" id="sctv" d="m159 288 4 1 11 6.5-3.5.5c-3.028-1.514-11.5-3.736-11.5-8ZM289 295h1c0-.657 10.596-7 7-7l-4 1c0 3.114-15.974 7-6 7l2-1Z"/><path fill="#FF9BCD" id="MY" d="m289 295-2 1 2-1Z"/></svg>