<svg xmlns="http://www.w3.org/2000/svg" viewBox="0 0 456 320"><path fill="#FEFA90" id="DEC" d="M188 93c13.807 0 27.228 2 41.5 2h15c5.569-2.785 18.166-2 24.5-2 0-11.727-7.957-9.729-16.5-14-10.268-5.134-44.465-2.767-54 2-3.489 1.744-9.731 2.962-11.5 6.5-1.443 2.886 1 3.262 1 5.5Z"/><path fill="#FDFB90" id="FOTU" fill-rule="evenodd" d="M249 109c0 2.105 9.211 0 0 0m-46 0c0 2.105 9.211 0 0 0m10-1c0 1.665 4.222 1 5.5 1h18l6.5-.5-30-.5m-31 23 10.5-6c8.115-4.057 21.45-1.225 29-5 5.13-2.565 37.568 2.784 42 5 2.261 1.131 8.238 6 10.5 6 0-6.109 4.354-14.208 7-19.5.559-1.119.155-4.5 2-4.5v-5c-.843 0-9.142-9-14-9-6.334 0-18.931-.785-24.5 2h-15c-14.272 0-27.693-2-41.5-2-6.737 0-12.659 9-15 9v4c1.722 0 2.368 5.235 3 6.5 2.527 5.054 6 12.613 6 18.5Z"/><path fill="#FCFA91" id="ANcr2" d="m131 130-1 1-7.5 4c-1.595.798-2.117-2.735-2.5-3.5-1.236-2.472-.278-5.445 1-8l18-18-3-1c0-3.314 25.412-10.044 30.5-7.5 1.667.834 5.289 5 6.5 5v4c0 1.639-8.94 4.22-10.5 5L131 130ZM283 107c8.328 0 23.665 12.082 31.5 16l10.5 7 9.5 5c6.858 0-.937-13.374-1.5-14.5-2.639-5.278-16-9.132-16-15l4-1c0-1.626-6.437-2.969-7.5-3.5-4.782-2.39-17.69-7.155-24-4l-6.5 5v5Z"/><path fill="#FFFB8E" id="PRM" d="M143 177c-1.366 0-4 2.366-4 4-5.182 0-7.875 2.812-13.5 0-14.011-7.005-5.435-22.371-9.5-30.5-.523-1.047-1.748-2.505-1-4l15-15.5 1-1 31.5-19c1.56-.78 10.5-3.361 10.5-5 1.722 0 2.368 5.235 3 6.5 2.527 5.054 6 12.613 6 18.5l-9.5 10c-5.969 2.984-17.316 17.133-20.5 23.5l-7 9.5-1 1-1 2ZM311 173l7 8c2.203 0 4.569 3.465 7.5 2 13.945-6.973 14.5-13.7 14.5-28 0-3.981 2.824-5.852 1-9.5L325 130l-10.5-7c-7.835-3.918-23.172-16-31.5-16-1.845 0-1.441 3.381-2 4.5-2.646 5.292-7 13.391-7 19.5l10 9.5c6.89 6.89 16.819 16.639 21 25l6 7.5Z"/><path fill="#CBC9CC" id="arb" d="M213 108c0 1.665 4.222 1 5.5 1h18l6.5-.5-30-.5ZM203 109c0 2.105 9.211 0 0 0ZM249 109c0 2.105 9.211 0 0 0Z"/><path fill="#FBFC91" id="PYR" d="M185 146c.008 0 10.262-6.381 11.5-7 4.692-2.346 38.21-6.895 44-4 6.561 3.28 15.4 1.7 22 5 2.194 1.097 8.162 7 9.5 7 0-5.789 2-10.623 2-16-2.262 0-8.239-4.869-10.5-6-4.432-2.216-36.87-7.565-42-5-7.55 3.775-20.885.943-29 5l-10.5 6 3 15Z"/><path fill="#FFF990" id="COPY" fill-rule="evenodd" d="M167 167c0 3.746 2.091 0 0 0m1-1c0 1.93 1.93 0 0 0m2-3c0 5.512.634 0 0 0m-29 18c0 25.14 26.718 2 31 2l1-3 1-1 1-1 2-3 2-2 7-9c0-4.635-1-9.828-1-15-3.811 0-8.525 10.513-11.5 12l-2 2c-1.974-.987 1.783-3.783 2.5-4.5l11-12.5-3-15-9.5 10c-5.969 2.984-17.316 17.133-20.5 23.5l-7 9.5-1 1-1 2-2 4Z"/><path fill="#FFF990" id="COPY" d="M284 183c4.346 0 31 21.793 31 0 0-3.974-4-6.315-4-10l-6-7.5c-4.181-8.361-14.11-18.11-21-25l-10-9.5c0 5.377-2 10.211-2 16 1.11 0 10.055 10.611 11 12.5.431.862 7.964 9.5 6.5 9.5-2.299 0-14.787-20-18.5-20v16l10 12v1c1.803 0 3 3.592 3 5Z"/><path fill="#CBC9CC" id="arb" d="M185 149c0-5.003 12.606-6.553 15.5-8 10.954-5.477 44.046-5.477 55 0 3.039 1.519 15.5 2.419 15.5 8 3.713 0 16.201 20 18.5 20 1.464 0-6.069-8.638-6.5-9.5-.945-1.889-9.89-12.5-11-12.5-1.338 0-7.306-5.903-9.5-7-6.6-3.3-15.439-1.72-22-5-5.79-2.895-39.308 1.654-44 4-1.238.619-11.492 7-11.5 7l-11 12.5c-.717.717-4.474 3.513-2.5 4.5l2-2c2.975-1.487 7.689-12 11.5-12Z"/><path fill="#FBFC91" id="PYR" d="m186 164 8.5-5c3.97-1.985 37.431-6.285 42-4 7.511 3.755 18.456.228 26 4l8.5 6v-16c0-5.581-12.461-6.481-15.5-8-10.954-5.477-44.046-5.477-55 0-2.894 1.447-15.5 2.997-15.5 8 0 5.172 1 10.365 1 15Z"/><path fill="#FFFA8F" id="UVU" d="M179 173h48.5c6.174 0 15.746-1.627 21 1 4.6 2.3 23.832-3.084 26-2l6.5 5-10-12-8.5-6c-7.544-3.772-18.489-.245-26-4-4.569-2.285-38.03 2.015-42 4l-8.5 5-7 9Z"/><path fill="#CBC9CC" id="arb" d="M170 163c0 5.512.634 0 0 0ZM168 166c0 1.93 1.93 0 0 0ZM167 167c0 3.746 2.091 0 0 0ZM175 178c13.471 0 28.376-1 42.5-1 3.707 0 9.913-3.544 13-2 9.033 4.517 39.244 3 50.5 3v-1l-6.5-5c-2.168-1.084-21.4 4.3-26 2-5.254-2.627-14.826-1-21-1H179c0 1.747-.253 2-2 2l-2 3Z"/><path fill="#FFFA8F" id="UVU" d="m179 173-2 2c1.747 0 2-.253 2-2Z"/><path fill="#F0F080" id="CB" d="M318 181c-2.215 0-1.519 2-3 2 0-3.974-4-6.315-4-10l7 8ZM145 174l-1 1 1-1ZM144 175l-1 2 1-2Z"/><path fill="#FFFA8F" id="UVU" d="M172 183c0 9.871 14.414 6.957 20.5 10 14.205 7.102 56.787 7.106 71 0 5.363-2.681 20.5.157 20.5-10 0-1.408-1.197-5-3-5-11.256 0-41.467 1.517-50.5-3-3.087-1.544-9.293 2-13 2-14.124 0-29.029 1-42.5 1l-1 1-1 1-1 3Z"/><path fill="#F0F080" id="CB" d="M139 181h2l2-4c-1.366 0-4 2.366-4 4Z"/><path fill="#CBC9CC" id="arb" d="m174 179-1 1 1-1Z"/><path fill="#FF9BCD" id="MY" d="m187 206-2 2.5 2 3.5-8.5-9c-4.068-2.034-7.398 0-11.5 0v-2l7-1 3 .5c1.421-2.841-7.6-4.45-9.5-3.5l-10.5 4c0-4.47 15.088-7 18.5-7 1.483 0 6.5-1.982 6.5 0-6.555 0-1.717 8 2 8 0 2.54 3 2.543 3 4ZM270 206l1 4 7.5-7c4.013-2.007 7.27 0 11.5 0v-2c-2.462 0-11.287-.927-11-1.5l3.5-1.5c10.049-5.024 26.502 9.504 30.5 17.5 2.457 4.914 7.101 32.798 4 39l-4 12.5c3.256 0 4.855-14.21 6-16.5 1.721-3.442 0-5.314 0-9 0-18.089-5.828-34.164-22.5-42.5-5.465-2.733-10.396-5-17-5-1.21 0-5.5-2.239-5.5 0 9.522 0-1 6.535-1 8l-3 4Z"/><path fill="#FFA2D2" id="ECU" d="M184 202h2l4-1v-2l-1-4h-2c-1.145 0-4 .579-4-1h-1c-6.555 0-1.717 8 2 8Z"/><path fill="#FF9BCD" id="MY" d="M183 194c1.145 0 4-.579 4 1-1.145 0-4 .579-4-1ZM273 194c-1.145 0-4-.579-4 1 1.145 0 4 .579 4-1Z"/><path fill="#FFA2D2" id="ECU" d="M271 202h2c0-1.465 10.522-8 1-8h-1c0 1.579-2.855 1-4 1h-1l-2 3v3l5 1Z"/><path fill="#FF9BCD" id="MY" d="M199 197h-7.5l-1.5 2-1-4c1.249 0 10 1.074 10 2ZM257 197c3.013 0 6.611 1 9 1l2-3c-1.488 0-11 .924-11 2Z"/><path fill="#C8CACA" id="sptV" d="M152 275h1c0 9.434-11.417-13.335-12-14.5-2.37-4.739-3.546-28.908-1-34l3-10.5c1.577 0 2-1.762 2-3 1.901 0 5-4.332 5-6 2.27 0 7-4.119 7-6l10.5-4c1.9-.95 10.921.659 9.5 3.5l-3-.5-7 1c-5.458 0-8.863 4-10 4l-2 2c-1.747 0-2 .253-2 2-2.226 0-4 1.774-4 4-3.031 0-6 10.488-6 13v3c-1.579 0-1 2.855-1 4v4c-1.65 0-1.65 17 0 17v3l1 1 2 7 1 1v1l1 1v1l2 2v1l1 1 1 1 1 1Z"/><path fill="#FDA5D0" id="CU" d="m207 215-2 2c-2.268 0-3.921 3.29-6.5 2-2.212-1.106-9.411-6-11.5-6v-1l-2-3.5 2-2.5 1-1c2.109 0 2-2.535 2-4v-2l1.5-2h9.5l5 3 5 10v1l-3 3-1 1Z"/><path fill="#FF9BCD" id="MY" d="m208 198-2 2-5-3 7 1ZM255 197l-2 1 2-1Z"/><path fill="#FDA5D0" id="CU" d="m269 213-4.5 4-6 2c-2.555 1.278-4.516-2-6.5-2l-5-4-2-3c0-3.619 6-6.774 6-11l2-1 2-1h2c3.013 0 6.611 1 9 1v3l2 4 2 1 1 4-1 2-1 1Z"/><path fill="#C8CACA" id="sptV" d="m305 274-1 1c0 5.483 1.829-2 5-2l1-1c0-1.238.423-3 2-3l1-2 4-12.5c3.101-6.202-1.543-34.086-4-39-3.998-7.996-20.451-22.524-30.5-17.5l-3.5 1.5c-.287.573 8.538 1.5 11 1.5 2.473 0 9 .728 9 4 6.74 0 14 14.744 14 20v1c1.473 0 1 1.952 1 3v3c1.643 0 1 3.765 1 5v16c0 1.048.473 3-1 3l-1 6-1 1-1 2v1l-1 1-1 2-1 2-2 2-1 1Z"/><path fill="#FEA3D0" id="GR" d="m211 210 2 1c2.075 0 10 2.71 10-2v-4l-4-4h-1l-1-1h-1l-1-1h-2l-2-1h-3l-2 2 5 10Z"/><path fill="#FF9BCD" id="MY" d="m211 198 2 1-2-1ZM245 198l-1 1 1-1Z"/><path fill="#FEA3D0" id="GR" d="m245 210-1 1-7.5 1-3.5-3v-3l4-5 7-2 1-1h3c0 1.473 1.952 1 3 1 0 4.226-6 7.381-6 11Z"/><path fill="#FF9BCD" id="MY" d="m253 198-2 1c-1.048 0-3 .473-3-1h5ZM215 199l1 1-1-1ZM217 200l1 1-1-1ZM157 201c-1.763 0-7 4.012-7 6 2.27 0 7-4.119 7-6Z"/><path fill="#FDA3D1" id="Pa5" d="M157 205v1l10-3v-2c-5.458 0-8.863 4-10 4Z"/><path fill="#FF9BCD" id="MY" d="m186 202 2 3c2.109 0 2-2.535 2-4l-4 1ZM227 204l-4 1-4-4c1.283 0 8 1.931 8 3ZM230 204c2.003 0 3-.293 3 2l4-5c-1.345 0-7 1.571-7 3ZM271 202l-3 3-2-4 5 1Z"/><path fill="#FDA3D1" id="Pa5" d="M299 205v1c-3.078 0-6.325-3-9-3v-2c2.473 0 9 .728 9 4Z"/><path fill="#FDA4D0" id="SPVC" d="M153 275h6c2.676 0 7.018-7.535 8-9.5 4.276-8.552 3.728-19.456 8-28 1.483-2.967 8-12.832 8-15.5l2-1c0-2.73 2-4.537 2-8v-1l-8.5-9c-4.068-2.034-7.398 0-11.5 0l-10 3-2 1-2 2-4 4c0 1.675-4.802 13-6 13v3c0 1.145.579 4-1 4v24l1 1 2 7 1 1v1l1 1v1l2 2v1l1 1 1 1 1 1h1Z"/><path fill="#CAC9CC" id="cuf" d="m188 205-1 1c0-1.457-3-1.46-3-4h2l2 3ZM268 205l2 1 3-4h-2l-3 3Z"/><path fill="#FDA4D0" id="SPVC" d="M297 275h7l1-1 1-1 2-2 1-2 1-2 1-1v-1l1-2 1-1 1-6c0-1.048-.473-3 1-3v-16c-1.643 0-1-3.765-1-5v-3c-1.473 0-1-1.952-1-3v-1l-6-11.5-8-7.5c-3.078 0-6.325-3-9-3-4.23 0-7.487-2.007-11.5 0l-7.5 7-1 2-1 1c0 4.691 4 7.12 4 9 2.469 0 4.127 7.754 5 9.5l7 16c2.63 5.261 1.343 12.686 4 18l8 9.5Z"/><path fill="#FFA5D0" id="AP" d="m224 209 4.5 3 3.5-3 1-1v-2c0-2.293-.997-2-3-2h-3l-4 1v2l1 2Z"/><path fill="#FF9BCD" id="MY" d="m157 206-2 1 2-2v1ZM299 206l8 7.5 6 11.5c0-5.256-7.26-20-14-20v1ZM150 207c-1.901 0-5 4.332-5 6 1.901 0 5-4.332 5-6ZM155 207c-1.747 0-2 .253-2 2l2-2ZM223 209h1l-1-2v2ZM232 209h1v-1l-1 1ZM153 209c-2.226 0-4 1.774-4 4l4-4Z"/><path fill="#FDA5D1" id="NTS" fill-rule="evenodd" d="M243 216c0 7.975 4.275 0 0 0m-32 0c0 7.975 4.275 0 0 0m15 11c0 3.985 3.223 1 5 1 0-3.464-.449-7.526 2.5-9 3.268-1.634 10.5 1.82 10.5 5 7.231 0 8 .204 8-7l-5-4-3-2-7.5 1-3.5-3h-1l-3.5 3-4.5-3h-1c0 4.71-7.925 2-10 2h-2l-3 3-1 1-2 2c0 4.668-1.534 4.483 3.5 7l2 1 2.5-2c0-4.549 13-7.068 13 4Z"/><path fill="#FF9BCD" id="MY" d="M211 211h2l-2-1v1ZM244 211l3 2-2-3-1 1ZM270 212l-1 1 1-1ZM145 213c-1.577 0-2 1.762-2 3 1.577 0 2-1.762 2-3ZM149 213c-3.031 0-6 10.488-6 13 1.198 0 6-11.325 6-13Z"/><path fill="#FF9BCD" id="MY" fill-rule="evenodd" d="M228 230c0 3.746 2.091 0 0 0m12 11c0-1.84 6.883-17.691-2.5-13l-3 1-6 7c-.311 0-11.043-14.413-15.5-5.5-1.32 2.641 5 9.255 5 11.5-1.947 0-2.636-3-5-3 0-2.955-.333-8-4-8 0-8.856-17.741-10-24-10 0-2.73 2-4.537 2-8 2.089 0 9.288 4.894 11.5 6 2.579 1.29 4.232-2 6.5-2 0 4.668-1.534 4.483 3.5 7l2 1 2.5-2c0 2.649 8.963 6 11.5 6l1.5-2c0 3.985 3.223 1 5 1 3.748 0 9.046-4 13-4 7.231 0 8 .204 8-7 1.984 0 3.945 3.278 6.5 2l6-2 4.5-4c0 4.691 4 7.12 4 9-6.617 0-25-2.132-25 9-4.627 0-4 4.095-4 8l-4 2Z"/><path fill="#FF9BCD" id="MY" d="m208 214-1 1 1-1ZM165 289c0 4.296 8 4.7 8 8-6.528 0-15.244-9.987-18-15.5l-6-5c-5.787-11.574-12-17.766-12-32 0-5.162 1.473-28.5 6-28.5l-3 10.5c-2.546 5.092-1.37 29.261 1 34 .583 1.165 12 23.934 12 14.5h6c0 2.041.959 3 3 3l-1 3-5.5-3v3c2.814 1.407 5.541 8 9.5 8Z"/><path fill="#C8CAC7" id="ts" d="M211 216c0 7.975 4.275 0 0 0ZM243 216c0 7.975 4.275 0 0 0Z"/><path fill="#FDB1D8" id="DMX" d="M213 223c0 2.649 8.963 6 11.5 6l1.5-2c0-11.068-13-8.549-13-4ZM244 224c-3.954 0-9.252 4-13 4 0-3.464-.449-7.526 2.5-9 3.268-1.634 10.5 1.82 10.5 5Z"/><path fill="#FF9BCD" id="MY" d="m185 221-2 1 2-1Z"/><path fill="#FDB1D7" id="MDRNd" d="M162 278c3.222 0 6.277 1 9 1l4-3c0-7.796 20.18-34.34 25.5-37l8.5-8c0-8.856-17.741-10-24-10l-2 1c0 2.668-6.517 12.533-8 15.5-4.272 8.544-3.724 19.448-8 28-.982 1.965-5.324 9.5-8 9.5 0 2.041.959 3 3 3ZM295 278l-10 1-3-2c0-6.798-16.147-28.647-21-33.5L248 231c0-11.132 18.383-9 25-9 2.469 0 4.127 7.754 5 9.5l7 16c2.63 5.261 1.343 12.686 4 18l8 9.5c0 2.003.293 3-2 3Z"/><path fill="#FF9BCD" id="MY" d="M313 226c1.473 0 1 1.952 1 3-1.473 0-1-1.952-1-3Z"/><path fill="#FEB1D7" id="XII" d="M233 244h1l2-1h1l1-1 2-1c0-1.84 6.883-17.691-2.5-13l-3 1-6 7c-.311 0-11.043-14.413-15.5-5.5-1.32 2.641 5 9.255 5 11.5l3 1c4.348 0 7.573 1 12 1Z"/><path fill="#FF9BCD" id="MY" d="M143 229c-1.579 0-1 2.855-1 4 1.579 0 1-2.855 1-4Z"/><path fill="#A7AAA9" id="c" d="M228 230c0 3.746 2.091 0 0 0Z"/><path fill="#FFB2D8" id="IRN" d="M177 279h1l3-1c0-7.179 23.658-39 32-39 0-2.955-.333-8-4-8l-8.5 8c-5.32 2.66-25.5 29.204-25.5 37 0 1.238.423 3 2 3ZM278 279h1l3-2c0-6.798-16.147-28.647-21-33.5L248 231c-4.627 0-4 4.095-4 8 8.127 0 31 31.549 31 39l3 1Z"/><path fill="#FF9BCD" id="MY" d="M314 232c1.643 0 1 3.765 1 5-1.643 0-1-3.765-1-5ZM142 237c-1.65 0-1.65 17 0 17v-17Z"/><path fill="#FFB1D6" id="MDRNv" d="M221 243c0 1.585 4.965 1.571 4 3.5-2.753 5.506-13.434 26.967-18.5 29.5-4.493 2.246-9.566 2.783-14 5-4.81 2.405-10.961-3-11.5-3 0-7.179 23.658-39 32-39 2.364 0 3.053 3 5 3l3 1ZM233 244h1l2-1h1l1-1 2-1 4-2c8.127 0 31 31.549 31 39 0 7.167-21.3.1-23.5-1-4.249-2.125-17.811-25.122-20.5-30.5l2-2.5Z"/><path fill="#FF9BCD" id="MY" d="m238 242-1 1 1-1ZM214 300c0-5.692 5.09-7.68 7-11.5 1.038-2.075.912-4.825 2-7l2.5-22.5c1.6-.8 5.713-.073 6.5 1.5l1 19c1.934 3.868 9 17.376 9 20.5 6.973 0 25.99.755 31.5-2 1.406-.703 7.5 1.261 7.5-1-4.312 0 2.977-3.239 4.5-4l5-4c2.323 1.161-3.5 4.714-3.5 6 2.991 0 22-18.808 22-22-3.171 0-5 7.483-5 2h-7c0 2.003.293 3-2 3l1 2c.693 0 6-4.042 6-.5 0 1.934-11 11.696-11 7.5-4.479 0-6-4.095-6-8l-3-2-3 2c0 1.803 7.984 3.531 6 7.5-2.486 4.971-15.667 2.335-13-3l6-4.5-3-1c0 7.167-21.3.1-23.5-1-4.249-2.125-17.811-25.122-20.5-30.5l2-2.5c-4.427 0-7.652-1-12-1 0 1.585 4.965 1.571 4 3.5-2.753 5.506-13.434 26.967-18.5 29.5-4.493 2.246-9.566 2.783-14 5-4.81 2.405-10.961-3-11.5-3l-3 1c0 .73 6.026 3.551 7 5.5 1.625 3.25-11.287 7.426-14 2-1.493-2.986 6-5.967 6-7.5-1.577 0-2-1.762-2-3l-4 3c0 4.841-.912 8-6 8v2c4.129 0 11 6.745 11 9 13.083 0 25.251 2 38 2ZM236 243l-2 1 2-1ZM315 253c-1.473 0-1 1.952-1 3 1.473 0 1-1.952 1-3ZM142 257l1 1-1-1Z"/><path fill="#C9C7CC" id="pyd" d="M214 300c0-5.692 5.09-7.68 7-11.5 1.038-2.075.912-4.825 2-7l2.5-22.5c1.6-.8 5.713-.073 6.5 1.5l1 19c1.934 3.868 9 17.376 9 20.5 0 1.263-5.36 1.57-6.5 1l-6.5-7c0-2.488-2-1.919-2 0 0 2.478-6.364 7-8.5 7-1.19 0-4.5.614-4.5-1Z"/><path fill="#FF9BCD" id="MY" d="m313 262-1 1 1-1ZM312 263l-1 2 1-2ZM145 265l1 1-1-1ZM311 266l-1 1 1-1ZM146 267l1 1-1-1ZM310 267l-1 2 1-2ZM313 267l-1 2 1-2ZM147 269l2 2-2-2ZM309 269l-1 2 1-2ZM312 269c-1.577 0-2 1.762-2 3 1.577 0 2-1.762 2-3ZM149 272l1 1-1-1ZM310 272l-1 1 1-1ZM306 273l-1 1 1-1ZM151 274l1 1-1-1ZM305 274l-1 1 1-1Z"/><path fill="#C9CACA" id="sctd" d="M165 287v2c-3.959 0-6.686-6.593-9.5-8v-3l5.5 3c0 2.33 4 3.227 4 6Z"/><path fill="#C8C8CB" id="rust" d="M161 281c0 2.33 4 3.227 4 6 5.088 0 6-3.159 6-8-2.723 0-5.778-1-9-1l-1 3ZM296 280l-5 7c-4.479 0-6-4.095-6-8l10-1 1 2Z"/><path fill="#C9CACA" id="sctd" d="M296 280c.693 0 6-4.042 6-.5 0 1.934-11 11.696-11 7.5l5-7Z"/><path fill="#FCB3D7" id="LRNm" d="M177 279h1c0 .73 6.026 3.551 7 5.5 1.625 3.25-11.287 7.426-14 2-1.493-2.986 6-5.967 6-7.5ZM278 279h1c0 1.803 7.984 3.531 6 7.5-2.486 4.971-15.667 2.335-13-3l6-4.5Z"/><path fill="#CBC7CC" id="sctv" d="m173 297 3 1c0-2.255-6.871-9-11-9 0 4.296 8 4.7 8 8ZM281 297h2l1-1h1l1-1h1c0-1.286 5.823-4.839 3.5-6l-5 4c-1.523.761-8.812 4-4.5 4Z"/><path fill="#FF9BCD" id="MY" d="M227 294h2c0-2.488-2-1.919-2 0ZM286 295l-1 1 1-1ZM284 296l-1 1 1-1Z"/></svg>