<svg xmlns="http://www.w3.org/2000/svg" viewBox="0 0 456 320"><path fill="#1BA696" id="RSPagl1" d="M189 15c-5.297 0-9.474 2-15 2v-4c0-1.242 12.613-4 14-4 0 2.124 1 4.436 1 6Z"/><path fill="#1BA598" id="RSPd1" d="M219 23h1l2-2-2-2.5C214.454 7.408 199.329 9 188 9c0 2.124 1 4.436 1 6l4.5-2c6.906-3.453 25.5 3.268 25.5 10ZM235 21l2 1 4.5-5 9-4c5.233-2.617 13.122 2 17.5 2l1-6c-8.673 0-34-.55-34 12Z"/><path fill="#1BA696" id="RSPagl1" d="M268 15c5.03 0 8.72 2 14 2 0-1.145-.579-4 1-4 0-.937-12.655-4-14-4l-1 6Z"/><path fill="#019FAC" id="VISa1" d="M117 33h1c5.095 0 12.042-4.77 16.5-7 7.592-3.796 27.256-8 36.5-8v-1l-1-4c-9.641 0-34.429 5.965-42.5 10L116 28l1 5Z"/><path fill="#09848B" id="VISam1" d="M171 17h3v-4h-4l1 4Z"/><path fill="#1BA697" id="RSPd2/3" d="m219 23-4 3-8.5-5c-5.233-2.617-13.122 2-17.5 2v-8l4.5-2c6.906-3.453 25.5 3.268 25.5 10ZM241 27h1c0-8.695 20.539-5 25-5l1-7c-4.378 0-12.267-4.617-17.5-2l-9 4-4.5 5v1c1.634 0 4 2.634 4 4Z"/><path fill="#09848B" id="VISam1" d="M282 17h4l1-4h-4c-1.579 0-1 2.855-1 4Z"/><path fill="#019FAC" id="VISa1" d="M341 29c-2.109 0-2 2.535-2 4-6.059 0-14.226-5.363-19.5-8-4.552-2.276-27.489-7-33.5-7v-1l1-4c11.453 0 29.77 5.135 39.5 10 2.292 1.146 14.5 2.688 14.5 6Z"/><path fill="#1AA496" id="RSPagl2/3" d="M175 26v1c5.204 0 8.575-4 14-4v-8c-5.297 0-9.474 2-15 2 0 2.097 1 5.293 1 8v1ZM281 26v1c-4.799 0-8.786-4-14-4v-1l1-7c5.03 0 8.72 2 14 2l-1 9Z"/><path fill="#0B848A" id="VISam2/3" d="M171 18c2.247 0 .847 7 4 7 0-2.707-1-5.903-1-8h-3v1ZM281 26h1c0-1.665 2.86-8 4-8v-1h-4l-1 9Z"/><path fill="#009EAB" id="VISa2/3" d="M122 42h1l10.5-5c5.147-2.574 35.729-11 41.5-11v-1c-3.153 0-1.753-7-4-7-9.244 0-28.908 4.204-36.5 8-4.458 2.23-11.405 7-16.5 7v1l4 8ZM338 35l-4 7c-3.69 0-8.294-3.397-11.5-5-4.956-2.478-35.059-11-40.5-11 0-1.665 2.86-8 4-8 6.011 0 28.948 4.724 33.5 7 5.274 2.637 13.441 8 19.5 8v1l-1 1Z"/><path fill="#1AA596" id="RSPd5" d="M207 34c-2.048 0-4.872-4.314-7.5-3L189 35V23c4.378 0 12.267-4.617 17.5-2l8.5 5v1l-8 7Z"/><path fill="#1BA597" id="RSPv1" d="M230 65h2V31.5l5-8.5v-1l-2-1-6 7.5-.5 2.5-3.5-5.5-3-4.5-2 2 5 10.5c.748 1.495-.477 2.953-1 4-2.438 4.876 1 22.193 1 27.5h2c0-4.734 3-3.817 3 0Z"/><path fill="#1AA596" id="RSPd5" d="m249 35 5.5-4c3.394-1.697 10.336 4 13.5 4 0-4.463-1-8.333-1-12v-1c-4.461 0-25-3.695-25 5l7 8Z"/><path fill="#1CA697" id="RSPagl5" d="M189 35c-3.933 0-7.365 4-12 4 0-1.923-.321-11-2-11v-1c5.204 0 8.575-4 14-4v12Z"/><path fill="#1AA597" id="RSPv2/3" d="M221 65h4c0-5.307-3.438-22.624-1-27.5.523-1.047 1.748-2.505 1-4L220 23h-1l-4 3v1c0 .523 3.483 11.465 4 12.5v15c1.418 2.837 2 7.17 2 10.5ZM232 65h4l2-27.5 3-10.5c0-1.366-2.366-4-4-4l-5 8.5V65Z"/><path fill="#1CA697" id="RSPagl5" d="M268 35c3.35 0 7.045 4 11 4 0-4.246 2-7.473 2-12-4.799 0-8.786-4-14-4 0 3.667 1 7.537 1 12Z"/><path fill="#019EAC" id="VISa4" d="M123 42c0 1.238 1.923 5 3 5 3.638 0 8.288-4.394 11.5-6L175 28v-2c-5.771 0-36.353 8.426-41.5 11L123 42Z"/><path fill="#09858A" id="VISam4" d="M281 27h1v-1h-1v1Z"/><path fill="#019EAC" id="VISa4" d="M334 42c0 1.238-1.923 5-3 5l-14.5-7c-7.59-3.795-16.319-5.16-24-9-1.975-.987-10.5-.661-10.5-4v-1c5.441 0 35.544 8.522 40.5 11 3.206 1.603 7.81 5 11.5 5Z"/><path fill="#1BA498" id="RSPv5" d="M218 65h3c0-3.33-.582-7.663-2-10.5v-15c-.517-1.035-4-11.977-4-12.5l-8 7v3c0 6.865 6 18.493 6 23l5 5ZM236 65h2l5-5 1-1c0-7.578 5-14.457 5-23v-1l-7-8h-1l-3 10.5-2 27.5Z"/><path fill="#019EAB" id="VISa5" d="M319 52h1c1.783 0 9-2.603 9-2l2-2v-1l-14.5-7c-7.59-3.795-16.319-5.16-24-9-1.975-.987-10.5-.661-10.5-4h-1c0 4.527-2 7.754-2 12v1c6.753 0 23.687 4.093 29.5 7l10.5 5Z"/><path fill="#029FAB" id="VISrl1" d="m114 29 3 4-1-5-2 1Z"/><path fill="#019EAB" id="VISa5" d="M127 49c3.538 0 6.548 3 10 3l11.5-5c5.552-2.776 22.112-7 28.5-7v-1c0-1.923-.321-11-2-11l-37.5 13c-3.212 1.606-7.862 6-11.5 6v1l1 1Z"/><path fill="#188060" id="SSp-bfd1" d="M61 67c2.215 0 1.519 2 3 2l15.5-14c10.695-5.348 25.397-21 37.5-21v-1l-3-4c-7.165 0-35.767 20.267-42 26.5-3.218 3.218-11 7.754-11 11.5Z"/><path fill="#029FAB" id="VISrl1" d="M342 29c0 1.429-1.288 4-3 4 0-1.465-.109-4 2-4h1Z"/><path fill="#188060" id="SSp-bfd1" d="m395 66-3 3c-1.497 0-10.148-10.824-12.5-12-11.948-5.974-26.722-23-40.5-23v-1c1.712 0 3-2.571 3-4 3.813 0 8.176 4.338 11.5 6 8.854 4.427 27.204 12.909 31.5 21.5l10 9.5Z"/><path fill="#1AA697" id="RSPd6a" d="M190 46h10c2.978 0 3.245-9 7-9v-3c-2.048 0-4.872-4.314-7.5-3L189 35c0 3.651 1 7.295 1 11ZM256 46h11l1-11c-3.164 0-10.106-5.697-13.5-4l-5.5 4v1c1.549 0 7 8.454 7 10Z"/><path fill="#029EAC" id="VISrl2/3" d="M117 34h1v-1h-1v1Z"/><path fill="#187F63" id="SSp-bfd2/3" d="M64 70c3.73 0 3.556 8 7 8l10.5-12c6.006-6.006 33.142-24 40.5-24l-4-8h-1c-12.103 0-26.805 15.652-37.5 21L64 69v1Z"/><path fill="#029EAC" id="VISrl2/3" d="m339 34-1 1 1-1Z"/><path fill="#187F63" id="SSp-bfd2/3" d="M385 78h1l6-8v-1c-1.497 0-10.148-10.824-12.5-12-11.948-5.974-26.722-23-40.5-23l-1 1-4 7c7.551 0 39.524 19.548 43 26.5 1.247 2.494 8 5.68 8 9.5Z"/><path fill="#1CA597" id="RSPagl6a" d="m189 47-10 1c0-1.257-.941-8-2-8v-1c4.635 0 8.067-4 12-4 0 3.651 1 7.295 1 11l-1 1ZM267 47l10 1 2-8v-1c-3.955 0-7.65-4-11-4l-1 11v1Z"/><path fill="#1AA498" id="RSPv6a" d="M247 57c0 1.577-1.762 2-3 2 0-7.578 5-14.457 5-23 1.549 0 7 8.454 7 10v1l-1 1c-1.811 0-4 3.438-4 5-1.747 0-2 .253-2 2l-1 1-1 1ZM209 57l4 3c0-4.507-6-16.135-6-23-3.755 0-4.022 9-7 9v1c2.527 0 9 7.41 9 10Z"/><path fill="#009DAC" id="VISa6a" d="M150 55h1c0-1.995 4.377-2 6-2 0-1.993 5.2-1.35 6.5-2 4.372-2.186 10.304-3 15.5-3 0-1.257-.941-8-2-8-6.388 0-22.948 4.224-28.5 7L137 52v1c4.872 0 6.534 2 11 2h2ZM306 55h3c0-1.212 10-.885 10-3l-10.5-5c-5.813-2.907-22.747-7-29.5-7l-2 8c7.815 0 16.931 1.716 23.5 5 1.114.557 5.5.41 5.5 2Z"/><path fill="#197C64" id="SSp-bfd4" d="M76 85h1c0-2.936 7.157-7.657 10-10.5 9.024-9.024 20.757-16.128 31.5-21.5 2.532-1.266 4.524-5 7.5-5v-1c-1.077 0-3-3.762-3-5h-1c-7.358 0-34.494 17.994-40.5 24L71 78v1c0 .45 5 4.91 5 6ZM380 85h1c0-2.785 4-3.54 4-7 0-3.82-6.753-7.006-8-9.5-3.476-6.952-35.449-26.5-43-26.5 0 1.238-1.923 5-3 5v1l7.5 5c11.038 5.52 21.61 12.61 31 22L380 85Z"/><path fill="#1BA698" id="RSPd6b" d="M190 47h10v-1h-10v1ZM257 47h10v-1h-11v1h1Z"/><path fill="#1AA598" id="RSPagl6b" d="M189 47h1v-1l-1 1Z"/><path fill="#CACCC7" id="cing" d="m213 60 5 5c-8.772 0-17.089-8.295-24.5-12-5.806-2.903-23.113 1-30.5 1h-6v-1c7.878 0 14.243-4 22-4 2.108 0 10 .789 10-2h11c0 1.626 7.125 10 9 10l4 3ZM243 60l-5 5c9.358 0 16.67-8.085 24.5-12 5.654-2.827 23.242 1 30.5 1h6c0-2.064-3.353-.426-4.5-1-4.762-2.381-11.899-4-17.5-4-2.108 0-10 .789-10-2h-10l-2 1c0 1.562-2.189 5-4 5 0 1.747-.253 2-2 2l-1 1-1 1c0 1.577-1.762 2-3 2l-1 1Z"/><path fill="#1AA598" id="RSPagl6b" d="M179 48v1c2.108 0 10 .789 10-2l-10 1Z"/><path fill="#1AA497" id="RSPv6b" d="M200 47c2.527 0 9 7.41 9 10-1.875 0-9-8.374-9-10ZM257 47l-2 1 1-1h1Z"/><path fill="#1AA598" id="RSPagl6b" d="M277 48v1c-2.108 0-10 .789-10-2l10 1Z"/><path fill="#1A7D62" id="SSp-bfd5" d="M77 85c0 .934 4.858 8 6 8l10-11.5c5.49-5.49 29.658-25.5 37-25.5v-1l-3-4v-2l-1-1c-2.976 0-4.968 3.734-7.5 5-10.743 5.372-22.476 12.476-31.5 21.5-2.843 2.843-10 7.564-10 10.5Z"/><path fill="#029FAC" id="VISa6b" d="M179 49c-7.757 0-14.122 4-22 4 0-1.993 5.2-1.35 6.5-2 4.372-2.186 10.304-3 15.5-3v1Z"/><path fill="#1AA497" id="RSPv6b" d="M255 48c-1.811 0-4 3.438-4 5 1.811 0 4-3.438 4-5Z"/><path fill="#029FAC" id="VISa6b" d="M305 55h1c0-1.59-4.386-1.443-5.5-2-6.569-3.284-15.685-5-23.5-5v1c5.601 0 12.738 1.619 17.5 4 1.147.574 4.5-1.064 4.5 1l6 1Z"/><path fill="#1A7D62" id="SSp-bfd5" d="M373 93h1l6-8-10.5-10c-9.39-9.39-19.962-16.48-31-22l-7.5-5-2 2c0 3.04-2 2.477-2 5v1c5.614 0 31.161 20.66 36 25.5 2.597 2.597 10 8.366 10 11.5Z"/><path fill="#197F60" id="SSp-tr5" d="m137 53-7 2-3-4c1.186 0 1.186-1 0-1v-1c3.538 0 6.548 3 10 3v1ZM320 52c0 1.732 5.353 3 7 3 0-2.523 2-1.96 2-5 0-.603-7.217 2-9 2Z"/><path fill="#019EAB" id="VISa5" d="M127 50c1.186 0 1.186 1 0 1v-1Z"/><path fill="#188063" id="SSp-tr6a" d="M133 63h1l14-8c-4.466 0-6.128-2-11-2l-7 2v1l3 7Z"/><path fill="#C7CACC" id="ccs" d="M359 116h2c0-12.096-16.882-35.191-28.5-41-1.829-.914-16.5-11.3-16.5-12l-17.5-7c-.984-.492-5.5-.85-5.5-2-7.258 0-24.846-3.827-30.5-1-7.83 3.915-15.142 12-24.5 12h-20c-8.772 0-17.089-8.295-24.5-12-5.806-2.903-23.113 1-30.5 1 0 1.59-4.386 1.443-5.5 2-2.566 1.283-14.391 7-16.5 7-.824 0-11.046 8.773-13.5 10C113.388 80.056 96 99.806 96 116h1c0-3.292 9.085-17 11-17l1-1c0-1.621 2.996-7 5-7 0-1.429 1.288-4 3-4 0-1.747.253-2 2-2 0-1.747.253-2 2-2 0-1.747.253-2 2-2 0-2.96 18.506-16 22-16 0-2.76 9.55-4.025 11.5-5 7.57-3.785 22.939-6.03 31-2l8.5 6c4.456 0 7.732 5.116 11.5 7 5.705 2.852 12.385 3.192 18 6 8.776 4.388 29.68-13 34.5-13h1l1-1h1c0-1.747.253-2 2-2l2-1 2-1c0-3.83 23.153-2.673 26.5-1l10 3c10.141 5.07 29.77 16.04 35.5 27.5 1.732 3.464 8 7.541 8 11.5 3.83 0 10 13.083 10 16Z"/><path fill="#188063" id="SSp-tr6a" d="m327 56-4 7-2.5-2c-1.845-.923-11.5-3.7-11.5-6 0-1.212 10-.885 10-3h1c0 1.732 5.353 3 7 3v1Z"/><path fill="#029FAC" id="VISa6b" d="m157 54-6 1c0-1.995 4.377-2 6-2v1Z"/><path fill="#1AA497" id="RSPv6b" d="M251 53c-1.747 0-2 .253-2 2 1.747 0 2-.253 2-2Z"/><path fill="#C9C9CA" id="scwm" d="m140 61 1 2c2.109 0 13.934-5.717 16.5-7 1.114-.557 5.5-.41 5.5-2h-6l-6 1-1 1-10 5ZM316 61v2l-17.5-7c-.984-.492-5.5-.85-5.5-2h6l6 1 11 6Z"/><path fill="#1A8063" id="SSp-tr6b" d="M134 63v1l6-3 10-5-1-1h-1l-14 8Z"/><path fill="#029FAC" id="VISa6b" d="M150 55v1l-1-1h1Z"/><path fill="#1A8063" id="SSp-tr6b" d="m151 55-1 1v-1h1Z"/><path fill="#1AA497" id="RSPv6b" d="m249 55-1 1 1-1Z"/><path fill="#1A8063" id="SSp-tr6b" d="M323 63v1l-7-3-11-6h4c0 2.3 9.655 5.077 11.5 6l2.5 2Z"/><path fill="#198060" id="SSp-bfd6a" d="M90 103h1c0-2.482 9.009-14 12-14 0-1.747.253-2 2-2 0-2.839 7.161-10 10-10 0-2.158 5.64-6 8-6 0-2.237 8.241-8 10-8l-3-7c-7.342 0-31.51 20.01-37 25.5L83 93v1c1.68 0 7 7.041 7 9Z"/><path fill="#C7C8CC" id="alv" d="M145 65c8.283 0 28.358-12.07 38.5-7 2.908 1.454 6.074 2.537 9 4l5.5 5-2-3-8.5-6c-8.061-4.03-23.43-1.785-31 2-1.95.975-11.5 2.24-11.5 5Z"/><path fill="#1AA497" id="RSPv6b" d="m248 56-1 1 1-1Z"/><path fill="#C7C8CC" id="alv" d="m323 115 11 3c6.368 0 10.271.959 13-4.5l2-2.5v-11c0-3.959-6.268-8.036-8-11.5-5.73-11.46-25.359-22.43-35.5-27.5l-10-3c-3.347-1.673-26.5-2.83-26.5 1 15.348 0 28.03-.735 41.5 6 5.105 2.553 8.811 7.405 14 10 1.877.939 15.5 11.97 15.5 14l3 4c0 2.155 5 9.343 5 13.5 0 18.614-31.531 4.5-43 4.5v1h1c1.406 0 7-.714 7 1h2c3.303 0 5.115 2 8 2Z"/><path fill="#198060" id="SSp-bfd6a" d="M365 103h1c0-3.973 7-5.436 7-10 0-3.134-7.403-8.903-10-11.5-4.839-4.84-30.386-25.5-36-25.5l-4 7c2.906 0 6.664 5.082 8.5 6 8.801 4.4 23.628 17.755 27.5 25.5 1.204 2.409 6 4.683 6 8.5Z"/><path fill="#7ECF4B" id="CA1" d="M213 100h2l1-1 2-2c0-4.049 3-7.132 3-12l-4-4h-1l-2-2-2-1c-3.214 0-13-8.708-13-11h-1l-5.5-5c-2.926-1.463-6.092-2.546-9-4-10.142-5.07-30.217 7-38.5 7l-4.5 4c-3.408 1.704-15.091 12-17.5 12 0 1.747-.253 2-2 2l-2 2c0 1.747-.253 2-2 2v2c10.036 0 19.858 2 29 2 4.115 0 20.702-14.9 30.5-10l36.5 19ZM241 100h2l36.5-19c9.773-4.887 26.633 10 30.5 10 9.508 0 19.593-2 30-2 0-2.03-13.623-13.061-15.5-14-5.189-2.595-8.895-7.447-14-10-13.47-6.735-26.152-6-41.5-6l-2 1-2 1-2 2h-1l-1 1-1 1-1 1-1 1-1 1-1 1c0 1.577-1.762 2-3 2 0 1.747-.253 2-2 2l-2 2h-1l-1 1-1 1h-1l-1 1-1 1h-1l-1 1-1 1-1 1-2 1-2 2c0 5.014 4 7.902 4 12l2 3Z"/><path fill="#1AA498" id="RSPv6a" d="m244 59-1 1 1-1Z"/><path fill="#C7C8CC" id="alv" d="m269 59-2 1 2-1ZM267 60l-2 1 2-1Z"/><path fill="#CBC9C7" id="or" d="m83 125 2 4 6-8.5 5-4.5c0-16.194 17.388-35.944 31.5-43 2.454-1.227 12.676-10 13.5-10l-1-2-6 3c0 .875-9.684 7-11 7 0 2.289-6.178 6-8 6 0 1.9-8.099 10-10 10 0 1.747-.253 2-2 2 0 1.191-11.336 15-12 15l-2 5-1 1-1 1v1l-4 13Z"/><path fill="#C7C8CC" id="alv" d="M265 61c-1.747 0-2 .253-2 2l2-2Z"/><path fill="#CBC9C7" id="or" d="m373 125-1 5-11-14c0-12.096-16.882-35.191-28.5-41-1.829-.914-16.5-11.3-16.5-12v-2l7 3 8.5 7c6.713 3.357 20.143 13.785 23.5 20.5 1.259 2.518 7.717 11.5 10 11.5l3 7c0 4.616 5 9.681 5 15Z"/><path fill="#1A7E61" id="SSp-bfd6b" d="M134 64c0 .875-9.684 7-11 7 0-2.237 8.241-8 10-8h1v1Z"/><path fill="#C7C8CC" id="alv" d="m262 63-1 1 1-1Z"/><path fill="#1A7E61" id="SSp-bfd6b" d="m323 64 8.5 7c6.713 3.357 20.143 13.785 23.5 20.5 1.259 2.518 7.717 11.5 10 11.5 0-3.817-4.796-6.091-6-8.5-3.872-7.745-18.699-21.1-27.5-25.5-1.836-.918-5.594-6-8.5-6v1Z"/><path fill="#C9CCC9" id="dhc" d="M229 84h6l2-1 2-1 1-1 1-1 1-1h1l1-1 1-1h1l1-1 1-1h1c0-1.747.253-2 2-2l2-2c0-1.577 1.762-2 3-2l1-1 1-1 1-1 1-1v-1c-4.82 0-25.724 17.388-34.5 13-5.615-2.808-12.295-3.148-18-6-3.768-1.884-7.044-7-11.5-7l2 3h1l13 11 2 1 2 2h1l5 3h5c0-1.4 2-1.4 2 0Z"/><path fill="#C7C8CC" id="alv" d="m261 64-1 1v-1h1ZM145 65c-3.494 0-22 13.04-22 16 2.409 0 14.092-10.296 17.5-12l4.5-4ZM260 65l-1 1 1-1ZM259 66l-1 1 1-1Z"/><path fill="#1A7E62" id="SSs1" d="M409 94h1c0-3.087 3-2.265 3-5 0-1.984-11.85-17.175-13.5-18l-4.5-5-3 3v1c2.511 0 17 21.287 17 24ZM43 90l4 3c.748 0 14.008-23 17-23v-1c-1.481 0-.785-2-3-2-2.147 0-18 21.008-18 23Z"/><path fill="#C7C8CC" id="alv" d="m199 67 13 11c-3.214 0-13-8.708-13-11ZM258 67l-1 1 1-1ZM257 68l-1 1 1-1ZM256 69c-1.238 0-3 .423-3 2 1.238 0 3-.423 3-2Z"/><path fill="#1B8063" id="SSs2/3" d="m47 94 8 9c0-2.022 14.514-24 16-24v-1c-3.444 0-3.27-8-7-8-2.992 0-16.252 23-17 23v1ZM409 94c0 1.986-6.511 9-8 9 0-7.811-15-18.346-15-25l6-8c2.511 0 17 21.287 17 24Z"/><path fill="#1A7E61" id="SSp-bfd6b" d="M123 71c-2.36 0-8 3.842-8 6 1.822 0 8-3.711 8-6Z"/><path fill="#C7C8CC" id="alv" d="m253 71-2 2c1.747 0 2-.253 2-2ZM251 73c-1.747 0-2 .253-2 2l2-2ZM248 75l-1 1 1-1ZM247 76l-1 1 1-1Z"/><path fill="#1A7E61" id="SSp-bfd6b" d="M115 77c-2.839 0-10 7.161-10 10 1.901 0 10-8.1 10-10Z"/><path fill="#C7C8CC" id="alv" d="m245 77-1 1 1-1ZM244 78l-1 1 1-1Z"/><path fill="#187C63" id="SSs4" d="M398 107h1c1.692 0-.989-3 2-3v-1c0-7.811-15-18.346-15-25h-1c0 3.46-4 4.215-4 7 0 3.776 17 16.841 17 22ZM58 107h1c0-2.431 15.992-22 17-22 0-1.09-5-5.55-5-6-1.486 0-16 21.978-16 24v1l3 3Z"/><path fill="#C7C8CC" id="alv" d="m214 79 2 2-2-2ZM242 79l-1 1 1-1ZM241 80l-1 1 1-1ZM123 81c-1.747 0-2 .253-2 2 1.747 0 2-.253 2-2Z"/><path fill="#7BD04A" id="DG-mo" d="M196 117h7l1-1 4-1 1-1 1-1 1-1 1-1 1-1c0-2.885 2-4.697 2-8l-2-2-36.5-19c-9.798-4.9-26.385 10-30.5 10l-1 3c0 3.18 5.328 5 8 5 0-4.425 10.369-5.435 13.5-7 10.871-5.435 21.698 4.35 31 9l11 1c4.973 2.486-1.73 7.865-4 9-4.939 2.469-16.211-2.105-20-4-7.54-3.77-12.824 0-20.5 0l-2 2 1 2 18 2 2 1h2l1 1h4l1 1h1c1.048 0 3-.473 3 1h1Z"/><path fill="#C7C8CC" id="alv" d="m222 84-1 1-4-4 5 3Z"/><path fill="#7BD04A" id="DG-mo" d="M260 117h1c0-1.473 1.952-1 3-1h1l1-1h4l1-1h2c0-1.473 1.952-1 3-1l18-2 1-1-3-3c-7.517 0-12.165-3.668-19.5 0-3.526 1.763-15.552 6.224-20 4-2.894-1.447-9.63-6.185-4-9l10-1c11.023-5.512 21.57-14.215 34-8 2.803 1.402 10.5 1.862 10.5 6 3.428 0 8-1.264 8-5l-1-3c-3.867 0-20.727-14.887-30.5-10L243 100l-1 1c0 4.823 2 6.458 2 10l3 3 2 1h1l1 1h1c2.097 0 5.293 1 8 1Z"/><path fill="#C7C8CC" id="alv" d="m239 82-2 1 2-1ZM121 83c-1.747 0-2 .253-2 2l2-2ZM235 84v1l2-2-2 1Z"/><path fill="#7ECD4A" id="FC" d="m221 96-3 1c0-4.049 3-7.132 3-12l1-1h5c0 3.066-2 4.417-2 7-1.577 0-2 1.762-2 3l-1 1-1 1ZM231 91c3.05 0 4.483 6 8 6 0-4.098-4-6.986-4-12v-1h-6c0 2.483 2 4.026 2 6v1Z"/><path fill="#1C8063" id="SSs5" d="M59 107c0 4.844 8 6.448 8 11 .532 0 13-24 16-24v-1c-1.142 0-6-7.066-6-8h-1c-1.008 0-17 19.569-17 22Z"/><path fill="#C7C8CC" id="alv" d="M119 85c-1.747 0-2 .253-2 2 1.747 0 2-.253 2-2Z"/><path fill="#1C8063" id="SSs5" d="M398 107c-.504 0-8.126 12-9 12 0-7.817-15-19.504-15-26l6-8h1c0 3.776 17 16.841 17 22Z"/><path fill="#1A7E61" id="SSp-bfd6b" d="M105 87c-1.747 0-2 .253-2 2 1.747 0 2-.253 2-2Z"/><path fill="#C7C8CC" id="alv" d="m117 89-3 2c0-1.429 1.288-4 3-4v2Z"/><path fill="#1A7E61" id="SSp-bfd6b" d="M91 103v1c.664 0 12-13.809 12-15-2.991 0-12 11.518-12 14Z"/><path fill="#7DCF4B" id="CA2" d="M114 93c10.25 0 21.419 1 31 1l1-3c-9.142 0-18.964-2-29-2l-3 2v2Z"/><path fill="#A8A9AA" id="V3" d="M223 95c3.651 0 2.048 4.774 4.5 6 2.05 1.025 2.61-6 5-6l3.5 3-5-7v-1c-3.329 0-4.97 1-6 1 0 1.238-.423 3-2 3v1Z"/><path fill="#7DCF4B" id="CA2" d="M343 93c-10.581 0-22.09 1-32 1l-1-3c9.508 0 19.593-2 30-2l3 4Z"/><path fill="#039399" id="AUDd1" d="m426 115-5 2c0-4.908-11-17.797-11-23 0-3.087 3-2.265 3-5 1.761 0 3.325 6.15 4 7.5 2.666 5.332 9 12.357 9 18.5ZM35 117h1c0-7.172 11-17.048 11-23v-1l-4-3c-1.726 0-12 21.635-12 25l4 2Z"/><path fill="#65A83D" id="DG-sg" d="M172 102c-1.738 0-8 3.015-8 5 7.676 0 12.96-3.77 20.5 0 3.789 1.895 15.061 6.469 20 4 2.27-1.135 8.973-6.514 4-9l-11-1c-9.302-4.65-20.129-14.435-31-9-3.131 1.565-13.5 2.575-13.5 7h4c0-1.946 7.983-2.242 9.5-3 8.042-4.02 15.778 1.39 23 5 1.284.642 9.823 4.589 9 5-3.97 1.985-11.22-3-15.5-3-2.998 0-7.358-1-11-1ZM284 102c2.053 0 8 2.129 8 5-7.517 0-12.165-3.668-19.5 0-3.526 1.763-15.552 6.224-20 4-2.894-1.447-9.63-6.185-4-9l10-1c11.023-5.512 21.57-14.215 34-8 2.803 1.402 10.5 1.862 10.5 6h-4c0-1.758-7.103-2.301-8.5-3-8.332-4.166-15.612 1.306-23 5-1.387.693-9.5 2.173-9.5 4.5l4.5.5c3.341-1.67 7.761-1.381 11-3 3.018-1.509 6.882-1 10.5-1Z"/><path fill="#C7C8CC" id="alv" d="M131 115c0 1.446-6.754 3-8 3h-10.5l-5.5-7 1-12 1-1c0-1.621 2.996-7 5-7v2c-4.493 0-5.844 15.812-4 19.5 4.025 8.05 14.918 2.5 21 2.5Z"/><path fill="#7ECF49" id="CA3" d="M137 113c-1.623 0-6 .005-6 2-6.082 0-16.975 5.55-21-2.5-1.844-3.688-.493-19.5 4-19.5 10.25 0 21.419 1 31 1 0 3.18 5.328 5 8 5h4c3.7 0 15-1.881 15 3-1.738 0-8 3.015-8 5l-2 2-1 1h-2c-1.321 0-6-.684-6 1h-2c-2.348 0-14-.161-14 2ZM303 111h2c11.469 0 43 14.114 43-4.5 0-4.157-5-11.345-5-13.5-10.581 0-22.09 1-32 1 0 3.736-4.572 5-8 5h-4c-3.7 0-15-1.881-15 3 2.053 0 8 2.129 8 5l3 3h2c1.321 0 6-.684 6 1Z"/><path fill="#197D63" id="SSs6a" fill-rule="evenodd" d="M392 144c0 1.93 1.93 0 0 0m-2-4c0 1.93 1.93 0 0 0m3 12-5 1c0-12.736-8.574-27.647-14-38.5l-8-11.5c0-3.973 7-5.436 7-10h1c0 6.496 15 18.183 15 26v2c-1.993 0-2 4.895-2 8 0 4.836 3.074 8.648 5 12.5l4 2-2 1 1 6.5-2 1Z"/><path fill="#029397" id="AUDd2/3" d="M36 117c2.5 0 6.34 4 9 4l10-17v-1l-8-9c0 5.952-11 15.828-11 23Z"/><path fill="#197D63" id="SSs6a" fill-rule="evenodd" d="M64 144c0 1.93 1.93 0 0 0m0 8 4 1c0-3.01 5.509-20 7-20 0-9.642 15-24.626 15-30 0-1.959-5.32-9-7-9-3 0-15.468 24-16 24v3c3.254 0 2 5.238 2 8 0 2.11-3 3.945-3 4.5l3 1-4 3 1 3h-2l-1.5 3.5c-.85 0-2.5-1.35-2.5-.5l2 3c.754 1.508-1 .918-1 4.5l3 1Z"/><path fill="#7ECE4A" id="DG-po" d="M157 99c3.7 0 15-1.881 15 3 3.642 0 8.002 1 11 1 4.28 0 11.53 4.985 15.5 3 .823-.411-7.716-4.358-9-5-7.222-3.61-14.958-9.02-23-5-1.517.758-9.5 1.054-9.5 3ZM299 99c-3.7 0-15-1.881-15 3-3.618 0-7.482-.509-10.5 1-3.239 1.619-7.659 1.33-11 3l-4.5-.5c0-2.327 8.113-3.807 9.5-4.5 7.388-3.694 14.668-9.166 23-5 1.397.699 8.5 1.242 8.5 3Z"/><path fill="#029397" id="AUDd2/3" d="M421 117c-2.662 0-6.054 3-10 3l-2-2.5c-1.066-2.131-5.281-13.5-8-13.5v-1c1.489 0 8-7.014 8-9h1c0 5.203 11 18.092 11 23Z"/><path fill="#A8A9AA" id="V3" d="m223 95-1 1v-1h1Z"/><path fill="#A9AAA8" id="chpl" d="M233 110c-1.577 0-2 1.762-2 3-6.838 0-8.988-8-11-8v-6l1-1v-1l1-1 1-1c3.651 0 2.048 4.774 4.5 6 2.05 1.025 2.61-6 5-6l3.5 3v1l1 2v2l-2 4-2 2v1Z"/><path fill="#A8A9AA" id="V3" d="m222 96-1 1v-1h1Z"/><path fill="#A8AAAA" id="VL" d="m109 98-1 1 1-1Z"/><path fill="#A8A9AA" id="V3" d="m221 98-1 1 1-1Z"/><path fill="#A8AAAA" id="VL" d="m103 131 2 1c0-2.956-2.664-15 2-15v-6l1-12c-1.915 0-11 13.708-11 17 8.67 0 5.322 11 4 11 0 1.465-.109 4 2 4Z"/><path fill="#7DCD4B" id="HPF" d="m216 99-1 1 1-1Z"/><path fill="#A8A9AA" id="V3" d="m236 99 1 2-1-2Z"/><path fill="#7DCD4B" id="HPF" d="M215 100v2l-2-2h2ZM243 100l-1 1-1-1h2Z"/><path fill="#A8AAAA" id="VL" d="M351 132h2c0-1.624 2-2.75 2-5 0-4.61-3.32-11 4-11 0-2.917-6.17-16-10-16v11c1.714 0 1 5.594 1 7 4.377 0 1 12.106 1 14Z"/><path fill="#1A8061" id="SSs6b" d="M87 112c-3.017 0-10.404 21-12 21 0-9.642 15-24.626 15-30h1v1l-2 5-1 1-1 1v1Z"/><path fill="#FF8D9F" id="MH" d="m225 130-2 1-3-3-7-9c0-3.843 4-6.746 4-11l.5-5 2.5 3c0 .377 6.305 10.111 7 11.5 2.01 4.021-2 9.168-2 12.5Z"/><path fill="#A8A9AA" id="V3" d="m237 105-2 2 2-4v2Z"/><path fill="#FF8D9F" id="MH" d="M232 131h2l2-3c1.735 0 8-8.345 8-10-2.232 0-4-6.302-4-8-2.415 0 .134-7-1.5-7l-1.5 2-2 2c0 1.747-.253 2-2 2v1c0 1.238-.423 3-2 3 0 3.404-2.839 9.822-1 13.5l2 4.5Z"/><path fill="#1A8061" id="SSs6b" d="M387 153h1c0-12.736-8.574-27.647-14-38.5l-8-11.5h-1l3 7c2.395 0 13 22.028 13 25v1l1 1v1l1 1 4 14Z"/><path fill="#039398" id="AUDd4" d="m45 121 5 1 8-15-3-3-10 17ZM411 121l-5 1-7-15c1.692 0-.989-3 2-3 2.719 0 6.934 11.369 8 13.5l2 2.5v1Z"/><path fill="#A8A9AA" id="V3" d="M225 130c0 4.544 5.021 1 7 1l-2-4.5c-1.839-3.678 1-10.096 1-13.5-6.838 0-8.988-8-11-8v1c0 .377 6.305 10.111 7 11.5 2.01 4.021-2 9.168-2 12.5Z"/><path fill="#029398" id="AUDd5" d="M50 123c4.995 0 9.462 5 14 5 0-1.147 1.733-7 3-7v-3c0-4.552-8-6.156-8-11h-1l-8 15v1Z"/><path fill="#A8A9AA" id="V3" d="m235 107-2 2c1.747 0 2-.253 2-2Z"/><path fill="#029398" id="AUDd5" d="M392 128h1c0-1.739 11.065-5 13-5v-1l-7-15h-1c-.504 0-8.126 12-9 12v2c1.732 0 3 5.353 3 7Z"/><path fill="#C8CCC7" id="hbc" d="m212 117 1 2c0-3.843 4-6.746 4-11-2.215 0-1.519 2-3 2l-2 7ZM245 117l-1 1c-2.232 0-4-6.302-4-8 0-2.488 2-1.919 2 0 0 2.607 3 4.913 3 7Z"/><path fill="#C9C9CA" id="scwm" d="m89 109-1 1 1-1Z"/><path fill="#7DCD4B" id="HPF" d="M162 111h1l-1-2-1 1 1 1Z"/><path fill="#C9C9CA" id="scwm" d="m88 110-1 1 1-1Z"/><path fill="#C7C8CC" id="alv" d="M156 111h3v-1c-1.321 0-6-.684-6 1h3Z"/><path fill="#FF8D9F" id="MH" d="m209 115 3 2 2-7h-1l-1 1-1 1-1 1-1 1v1Z"/><path fill="#A8A9AA" id="V3" d="M233 110c-1.577 0-2 1.762-2 3 1.577 0 2-1.762 2-3Z"/><path fill="#FF8D9F" id="MH" d="m247 115-2 2c0-2.087-3-4.393-3-7l2 1 3 3v1Z"/><path fill="#7DCD4B" id="HPF" d="M294 111h1v-1l-1 1Z"/><path fill="#C7C8CC" id="alv" d="M301 111h2c0-1.684-4.679-1-6-1v1h4Z"/><path fill="#C9C9CA" id="scwm" d="M378 135h3c0-2.972-10.605-25-13-25 0 4.616 5 9.681 5 15 1.767 0 5 8.37 5 10Z"/><path fill="#CBC8CB" id="fi" d="m121 141-1 1c-6.608 0-12 8.669-12-8l-1-17v-6l5.5 7H123v20c-1.577 0-2 1.762-2 3Z"/><path fill="#C7C8CC" id="alv" d="M142 113h1c0-1.714 5.594-1 7-1h1v-1c-2.348 0-14-.161-14 2h5Z"/><path fill="#FE909D" id="LP" d="m180 137 8 4 11-21-3-3h-1c-1.048 0-3 .473-3-1h-1l-1-1h-4l-1-1h-2l-2-1-18-2h-7c0 1.643-3.765 1-5 1h-1c0 4.707-3 11.449-3 13l-1 4v8h1c2.719 0 33-12.436 33 0ZM309 137h2v-8c-1.579 0-1-2.855-1-4-3.105 0-4-10.274-4-13h-1c-1.145 0-4 .579-4-1h-7l-18 2c0 1.473-1.952 1-3 1h-2l-1 1h-4l-1 1h-1c0 1.473-1.952 1-3 1h-1c0 1.577-1.762 2-3 2l11 22 8-4 1-1c0-3.527 6.059-4 8.5-4l14 1 9.5 4Z"/><path fill="#CBC8CB" id="fi" d="m336 141 1 1c0 2.806 8.542 3.416 10 .5.679-1.359.436-9.5 2-9.5 0-2.075-.797-15 1-15 0-1.406.714-7-1-7l-2 2.5c-2.729 5.459-6.632 4.5-13 4.5 0 2.998-1 7.358-1 11v4c.816 0 2 7.019 2 8h1Z"/><path fill="#C9C9CA" id="scwm" d="m78 135-3 1v-3c1.596 0 8.983-21 12-21l-4 13-5 10Z"/><path fill="#FE7F84" id="LGd-co" d="M134 131h1l1-1c2.7 0 4.762-3 8-3 0-1.577 1.762-2 3-2 0-1.551 3-8.293 3-13-1.406 0-7-.714-7 1 9.452 0-5 6.331-5 3.5l4-3.5h-5l-4 2c0 .237-6 4.676-6 13l7 3ZM322 131h1l6-3h1l-1-7.5-6-5.5c-2.885 0-4.697-2-8-2l3 3.5c-1.702 3.404-12.561-3.5-5-3.5 0-1.714-5.594-1-7-1 0 2.726.895 13 4 13l3 2 9 4Z"/><path fill="#C7C8CC" id="alv" d="M131 115h2l4-2c-1.623 0-6 .005-6 2Z"/><path fill="#FD8082" id="LGd-ip" d="M142 113h1c9.452 0-5 6.331-5 3.5l4-3.5ZM313 113h2l3 3.5c-1.702 3.404-12.561-3.5-5-3.5Z"/><path fill="#019099" id="AUDv1" d="M24 149h5c0-6.456.214-17.928 3-23.5 1.2-2.4 3-5.689 3-8.5l-4-2c-1.993 0-1.35 5.2-2 6.5-3.876 7.752-5 18.238-5 27.5Z"/><path fill="#FF8F9D" id="LH" d="m201 136 4 4c3.241 0 15.965-8 16-8v-1l-1-3-7-9-1-2-3-2h-1l-4 1-1 1-2 2-1 1-2 6.5 3 9.5ZM255 136l-3 4c-2.01 0-16-6.332-16-8v-4c1.735 0 8-8.345 8-10l1-1 2-2h3l1 1h1l3 3c0 2.72 4.855 5.79 3 9.5l-3 7.5Z"/><path fill="#019099" id="AUDv1" d="M427 149h6l-4-25.5c-1.161-2.322-3-5.836-3-8.5l-5 2 3 6.5c3.306 6.612 3 17.632 3 25.5Z"/><path fill="#98D5F9" id="CP" d="M104 193c0 5.534-15.238 4-18 4-3.35 0-12-12.318-12-15l-1-1v-24l1-2c1.643 0 1-3.765 1-5l1-2c0-6.629 9-12.804 9-19l6-8.5 5-4.5h1c8.67 0 5.322 11 4 11l-2 2c-8.474 0-4 26.346-4 30l1 2 1 7 1 1v4c0 1.774-.273 7 2 7l2 2 1 1v2l1 3v5ZM352 189c0 10.398 11.031 8 18 8 1.781 0 13-13.147 13-15 0-1.048-.473-3 1-3v-17.5l-2-6.5-1-5v-2l-9-18-11-14h-2c-7.32 0-4 6.39-4 11 1.747 0 2 .253 2 2 9.266 0 4 26.165 4 30v3c0 2.16-2 4.167-2 7l-1 1v3c2.292 0 .543 6-1 6l-2 2-1 2-1 1v3l-1 2Z"/><path fill="#029198" id="AUDv2/3" d="M29 149h9c0-6.4 1.268-16.036 4-21.5l3-6.5c-2.66 0-6.5-4-9-4h-1c0 2.811-1.8 6.1-3 8.5-2.786 5.572-3 17.044-3 23.5Z"/><path fill="#A9AAA8" id="chpl" d="M105 132c0 1.577 1.762 2 3 2l-1-17c-4.664 0-2 12.044-2 15Z"/><path fill="#029198" id="AUDv2/3" d="M419 149h8c0-7.868.306-18.888-3-25.5l-3-6.5c-2.662 0-6.054 3-10 3v1c0 3.723 8 19.968 8 28Z"/><path fill="#A9AAA8" id="chpl" d="M351 132c0 1.557-2 4.436-2 1 0-2.075-.797-15 1-15 4.377 0 1 12.106 1 14Z"/><path fill="#FD8F9D" id="CL" d="m201 119-1 1 1-1ZM266 165c-2.232 0-4.029 3-7 3 0-4.831 6.166-32-4-32l3-7.5c1.855-3.71-3-6.78-3-9.5h2l11 22v16c0 1.899.488 8-2 8ZM190 165l7 3c0-4.241-5.589-32 4-32l-3-9.5 2-6.5h-1l-11 21v15c0 3.447 2 6.245 2 9Z"/><path fill="#029197" id="AUDv4" d="M38 149h5c0-8.432 7-18.684 7-26v-1l-5-1-3 6.5c-2.732 5.464-4 15.1-4 21.5Z"/><path fill="#019399" id="AUDd6a" d="m64 128 5 1c0-2.762 1.254-8-2-8-1.267 0-3 5.853-3 7ZM392 128l-5 1c0-3.105.007-8 2-8 1.732 0 3 5.353 3 7Z"/><path fill="#029197" id="AUDv4" d="M413 149h6c0-8.032-8-24.277-8-28l-5 1v1c1.59 0 1.443 4.386 2 5.5 2.863 5.727 5 13.707 5 20.5Z"/><path fill="#019098" id="AUDv5" d="M57 151h1c0-8.177 6-15.624 6-23-4.538 0-9.005-5-14-5 0 7.316-7 17.568-7 26l14 2ZM413 149c-4.26 0-9.871 2-14 2l-6-23c0-1.739 11.065-5 13-5 1.59 0 1.443 4.386 2 5.5 2.863 5.727 5 13.707 5 20.5Z"/><path fill="#C7CACC" id="ccs" d="M78 135c0 3.641-1.043 6.586-3 10.5-.44.879-.028 2.5 1 2.5 0-6.629 9-12.804 9-19l-2-4-5 10Z"/><path fill="#FF6F80" id="TH" d="m144 127 2 2 1-4c-1.238 0-3 .423-3 2ZM313 127l-2 2c-1.579 0-1-2.855-1-4l3 2Z"/><path fill="#C7CACC" id="ccs" d="M378 135c0 5.069 3 8.001 3 13l-9-18 1-5c1.767 0 5 8.37 5 10Z"/><path fill="#97D6F9" id="STR" d="M103 131c0 4.251 4.294 5-2 5l-2-7 2-2c0 1.465-.109 4 2 4Z"/><path fill="#CBC9C7" id="or" d="m134 148-1 1c0-4.015 5.782-12-3-12l4-6h1l1-1c2.7 0 4.762-3 8-3l2 2v8l-1 2c-1.662 0-9 5.179-9 7l-1 1-1 1ZM322 148l3 3c0-5.683-10.884-13 2-13 0-2.773-4-3.67-4-6l-1-1-9-4-2 2v9c0 2.753 11 5.64 11 10Z"/><path fill="#97D6F9" id="STR" d="M353 132c0 3.383-2.269 4 2 4 0-2.16 2-4.167 2-7 0-1.747-.253-2-2-2 0 2.25-2 3.376-2 5Z"/><path fill="#019397" id="AUDv6a" d="M58 151h3c0-3.582 1.754-2.992 1-4.5l-2-3c0-.85 1.65.5 2.5.5l1.5-3.5h2l-1-3 4-3-3-1c0-.555 3-2.39 3-4.5l-5-1c0 7.376-6 14.823-6 23Z"/><path fill="#CAC7CB" id="fiber tracts" d="M123 138h1c.208 0 3-9.153 3-10l-4 1v9Z"/><path fill="#FF8E9F" id="LGv" d="m128 139-3 3c0-1.048.473-3-1-3v-1c.208 0 3-9.153 3-10l7 3-4 6-1 1-1 1Z"/><path fill="#FF6F80" id="TH" d="M221 131h2l-3-3 1 3ZM235 132h1v-4l-2 3 1 1Z"/><path fill="#FF8E9F" id="LGv" d="M331 141h1c0-4.707-3-11.449-3-13l-6 3v1c0 2.33 4 3.227 4 6l4 3Z"/><path fill="#CAC7CB" id="fiber tracts" d="M347 150c0-.68-9-10.167-9 1l-4-3-1-3-1-1v-3c0-4.707-3-11.449-3-13h1l3 1v4c0 1.949-.991 8 2 8h1l1 1c0 2.806 8.542 3.416 10 .5.679-1.359.436-9.5 2-9.5 0 3.436 2 .557 2-1h2c0 3.383-2.269 4 2 4 0 2.85-4.145 14-8 14Z"/><path fill="#019397" id="AUDv6a" fill-rule="evenodd" d="M396 148c0 1.93 1.93 0 0 0m-7-15c0 1.93 1.93 0 0 0m6 18h4l-6-23h-1l-5 1c0 4.836 3.074 8.648 5 12.5l4 2-2 1 1 6.5Z"/><path fill="#CBC9C7" id="or" d="m95 159 1 2 2.5-2c1.299-.65 11.299 1.851 15 0l5.5-4c1.89 0 3-4.598 3-6l-3 2c-1.614 0-10 4.762-10-2-3.219 0-8-9.887-8-13l-2-7c-8.474 0-4 26.346-4 30ZM361 159l-1 1c-2.575 0-11.352 1.574-14.5 0l-8.5-5c-1.429 0-3-5.655-3-7l4 3c0 3.094 9 2.394 9-1 3.855 0 8-11.15 8-14 0-2.16 2-4.167 2-7 9.266 0 4 26.165 4 30Z"/><path fill="#FF6F80" id="TH" d="m136 130-1 1 1-1Z"/><path fill="#FE8F9E" id="PVT" d="M223 151c0-.728 9.913 0 11 0 .273 0 10-5.92 10-7 0-2.153-9-6.481-9-12l-1-1h-2c-1.979 0-7 3.544-7-1l-2 1h-2v1c0 2.995-5.253 12-9 12 0 1.295 9.689 7 11 7Z"/><path fill="#CAC7CB" id="fiber tracts" d="m122 149-3 2c0-9.942-5.439-2-10-2-3.219 0-8-9.887-8-13 6.294 0 2-.749 2-5l2 1c0 1.577 1.762 2 3 2 0 16.669 5.392 8 12 8l1-1 3-2c1.473 0 1 1.952 1 3v1l-1 1-1 4-1 1Z"/><path fill="#FF6F80" id="TH" d="M323 131v1l-1-1h1Z"/><path fill="#FF8E9C" id="PO" d="M194 187h5l1-1h1l-6-6.5-5-14.5c0-2.755-2-5.553-2-9-1.183 0-1.535-3.57-2-4.5l-6-14.5c0-12.436-30.281 0-33 0v1c11.168 0 22.579 34.54 33.5 40l7.5 9h6Z"/><path fill="#C7CAC9" id="fr" d="M205 140c0 3.745 2.492 4 7 4 3.747 0 9-9.005 9-12-.035 0-12.759 8-16 8ZM252 140c0 3.752-3.415 4-8 4 0-2.153-9-6.481-9-12h1c0 1.668 13.99 8 16 8Z"/><path fill="#FF8E9C" id="PO" d="M263 187h6c0-5.839 8.085-6.67 10-10.5 3.422-6.843 13.964-23.964 20-30 2.927-2.927 6.151-8.5 10-8.5v-1l-9.5-4-14-1c-2.441 0-8.5.473-8.5 4l-1 1-6 15.5c-.465.93-.817 4.5-2 4.5 0 1.899.488 8-2 8 0 8.49-10 19.042-10 21l1 1h6Z"/><path fill="#1A8061" id="SSs6b" d="M68 153h1c1.951 0 .477-2.454 1-3.5l4-11.5 1-1v-4c-1.491 0-7 16.99-7 20Z"/><path fill="#197D63" id="SSs6a" d="M389 133c0 1.93 1.93 0 0 0Z"/><path fill="#CCC8CA" id="ar" d="m69 175 1 1c1.368 0 1.13-12.759 2-14.5.574-1.147-1.064-4.5 1-4.5v-2c0-1.424.362-5 2-5l1-2c-1.028 0-1.44-1.621-1-2.5 1.957-3.914 3-6.859 3-10.5l-3 1v1l-1 1-4 11.5c-.523 1.046.951 3.5-1 3.5v22ZM386 177h1v-1l1-15c0-2.097-1-5.293-1-8l-4-14-1-1v-1l-1-1v-1h-3c0 5.069 3 8.001 3 13v2c2.461 0 2 3.378 2 5 1.951 0 .477 2.454 1 3.5 1.96 3.92 2 14.198 2 18.5Z"/><path fill="#FD909D" id="MD" d="m220 179-6 4c-6.919 0-17-7.492-17-15 0-4.241-5.589-32 4-32l4 4c0 3.745 2.492 4 7 4 0 1.295 9.689 7 11 7l1 16.5-4 11.5ZM237 179l6 4c6.948 0 16-7.649 16-15 0-4.831 6.166-32-4-32l-3 4c0 3.752-3.415 4-8 4 0 1.08-9.727 7-10 7 0 6.059-4.223 14.054-1 20.5l4 7.5Z"/><path fill="#FD8F9C" id="Eth" d="m277 136-1 1 1-1Z"/><path fill="#C9C9CA" id="scwm" d="m381 136 1 1-1-1ZM75 137l-1 1 1-1Z"/><path fill="#CBC9C7" id="or" d="m130 137-1 1 1-1Z"/><path fill="#FD8F9F" id="RT" d="m137 184 1 3c-5.446 0-6.914-6-11-6-2.248 0-6.353-6-12-6l-2-5.5 6-14.5c1.89 0 3-4.598 3-6l1-1 1-4 1-1v-1l3-3 1-1 1-1c8.782 0 3 7.985 3 12l-1 1-1 1c0 4.823-6.923 10.654-4 16.5l6 13 4 3.5Z"/><path fill="#FF6F80" id="TH" d="m147 138-2 1 1-2h1v1Z"/><path fill="#FD8F9C" id="Eth" d="M188 141v15c-1.183 0-1.535-3.57-2-4.5l-6-14.5 8 4ZM268 141v16c1.183 0 1.535-3.57 2-4.5l6-15.5-8 4Z"/><path fill="#FF6F80" id="TH" d="M309 138h2v-1h-2v1Z"/><path fill="#FD8F9F" id="RT" d="M325 185c-2.447 0-3.28 2-6 2v-4c2.226 0 4-1.774 4-4 2.468 0 2.11-1.721 3-3.5 3.273-6.547 4.489-15.023 1-22l-2-2.5c0-5.683-10.884-13 2-13l4 3 1 2v1l1 1 1 3c0 1.345 1.571 7 3 7l6 12.5c1.558 3.117-2 5.401-2 7.5-6.011 0-10.434 7-13 7l-1 1-1 1-1 1Z"/><path fill="#CBC9C7" id="or" d="m129 138-1 1 1-1Z"/><path fill="#FF7E83" id="VPM" d="m179 195-2 1c-4.869 0-9.649-1-14-1l-8-8.5c-3.766-7.532-11.369-18.435-17.5-21.5l-6.5-8 2-7v-1l1-1 1-1 1-1c0-1.821 7.338-7 9-7l2-1c11.168 0 22.579 34.54 33.5 40l7.5 9-1 4-2 1-1 1h-1l-2 1-2 1ZM269 187c0 6.123 14.556 11.972 20.5 9l4.5-2 7-6.5c3.031-6.062 24-28.765 24-31.5 0-3.238-3-5.3-3-8 0-4.36-11-7.247-11-10h-2c-3.849 0-7.073 5.573-10 8.5-6.036 6.036-16.578 23.157-20 30-1.915 3.83-10 4.661-10 10.5Z"/><path fill="#C9C9CA" id="scwm" d="m382 138 1 1-1-1Z"/><path fill="#019397" id="AUDv6a" d="M390 140c0 1.93 1.93 0 0 0Z"/><path fill="#FF6F80" id="TH" d="M332 141v2l-1-2h1ZM125 143l-1 1 1-1Z"/><path fill="#019397" id="AUDv6a" d="M64 144c0 1.93 1.93 0 0 0Z"/><path fill="#FF6F80" id="TH" d="m332 144 1 1-1-1Z"/><path fill="#019397" id="AUDv6a" d="M392 144c0 1.93 1.93 0 0 0Z"/><path fill="#C8CBC7" id="st" d="M109 149c4.561 0 10-7.942 10 2-1.614 0-10 4.762-10-2Z"/><path fill="#C7CACA" id="em" d="m136 146-1 1 1-1Z"/><path fill="#C8CBC7" id="st" d="M347 150c0 3.394-9 4.094-9 1 0-11.167 9-1.68 9-1Z"/><path fill="#C7CACA" id="em" d="m135 147-1 1 1-1Z"/><path fill="#CBC9C7" id="or" d="m123 148-1 1 1-1Z"/><path fill="#C7CACA" id="em" d="M325 156c1.995 0 2 4.377 2 6 0 8.284-4 13.355-4 17 2.468 0 2.11-1.721 3-3.5 3.273-6.547 4.489-15.023 1-22l-2-2.5-3-3c0 2.7 3 4.762 3 8Z"/><path fill="#197D63" id="SSs6a" d="M396 148c0 1.93 1.93 0 0 0Z"/><path fill="#15B0B3" id="TEa1" d="m31 178-6 1c0-10.336-1-20.325-1-30h5c0 9.462 2 19.769 2 29Z"/><path fill="#16AFB3" id="TEa2/3" d="M40 177c-3.222 0-6.277 1-9 1 0-9.231-2-19.538-2-29h9l-1 11.5c2.274 4.548 3 11.086 3 16.5Z"/><path fill="#15B0B2" id="TEa4" d="M40 177h3v-28h-5l-1 11.5c2.274 4.548 3 11.086 3 16.5Z"/><path fill="#15AFB3" id="TEa5" d="M43 177h14v-26l-14-2v28Z"/><path fill="#CBC9C7" id="or" d="M132 150h1v-1l-1 1Z"/><path fill="#15AFB3" id="TEa5" d="M413 177h1c0-9.53-1-18.992-1-28-4.26 0-9.871 2-14 2 0 8.533 1 17.029 1 26h13Z"/><path fill="#15B0B2" id="TEa4" d="M414 177h2c0-9.074 3-17.948 3-28h-6c0 9.008 1 18.47 1 28Z"/><path fill="#16AFB3" id="TEa2/3" d="m416 177 10 1 1-29h-8c0 10.052-3 18.926-3 28Z"/><path fill="#15B0B3" id="TEa1" d="m426 178 5 1c0-10.415 2-19.339 2-30h-6l-1 29Z"/><path fill="#C7CACC" id="ccs" d="M73 155h1c1.643 0 1-3.765 1-5-1.638 0-2 3.576-2 5Z"/><path fill="#CBC9C7" id="or" d="m132 150-1 1 1-1Z"/><path fill="#C7CACA" id="em" d="M137 184h1c0-.776-7.755-12.011-9-14.5-1.011-2.021-.232-12.5 2-12.5l2-7h-1l-1 1c0 4.823-6.923 10.654-4 16.5l6 13 4 3.5Z"/><path fill="#FE909F" id="IMD" d="M220 179c3.225 0 7.035-3.733 10.5-2 2.14 1.07 3.887 2 6.5 2l-4-7.5c-3.223-6.446 1-14.441 1-20.5-1.087 0-11-.728-11 0l1 16.5-4 11.5Z"/><path fill="#C7CACC" id="ccs" d="M382 155h1c0-1.622.461-5-2-5l1 5Z"/><path fill="#15AFB2" id="TEa6a" d="m68 176-11 1v-26h4l3 1c0 1.707 2.199 8 3 8v1l1 15ZM388 176l12 1c0-8.971-1-17.467-1-26h-4l-2 1c0 1.743-2.98 8-4 8v1c0 4.933-1 10.73-1 15Z"/><path fill="#11AC83" id="VISC6a" d="m68 153-1 7c-.801 0-3-6.293-3-8l4 1ZM388 153l1 7c1.02 0 4-6.257 4-8l-5 1Z"/><path fill="#11AD82" id="VISC6b" d="m67 161 2 1v-9h-1l-1 7v1ZM388 161h1v-1l-1-7h-1c0 2.707 1 5.903 1 8Z"/><path fill="#C8CBCC" id="ec" d="m74 155-1 2v-2h1Z"/><path fill="#CCC8CA" id="ar" d="M101 176v1l2.5 2c2.064 1.032 11.5-2.495 11.5-4l-2-5.5 6-14.5-5.5 4c-3.701 1.851-13.701-.65-15 0l-2.5 2 1 7 1 1v2l2 3 1 2ZM353 179h1l1-1v-1l1-2 1-1v-1l1-1v-2l1-1c0-2.833 2-4.84 2-7l-1-2c-2.575 0-11.352 1.574-14.5 0l-8.5-5 6 12.5c1.558 3.117-2 5.401-2 7.5 0 1.806 9.79 4 12 4Z"/><path fill="#C8CBCC" id="ec" d="M384 185h2v-8c0-4.302-.04-14.58-2-18.5-.523-1.046.951-3.5-1-3.5h-1l2 6.5V185Z"/><path fill="#FD8084" id="VPL" d="M294 194c0 2.293.997 2 3 2 7.021 0 12.671-9 19-9l2-3 1-1 4-4c0-3.645 4-8.716 4-17 0-1.623-.005-6-2-6 0 2.735-20.969 25.438-24 31.5l-7 6.5Z"/><path fill="#C8CBCC" id="ec" d="m72 185-2 1v-10c1.368 0 1.13-12.759 2-14.5.574-1.147-1.064-4.5 1-4.5v25c0 1.048.473 3-1 3Z"/><path fill="#FD8084" id="VPL" d="m163 195-4 1c-6.211 0-13.534-9-18-9l-3-3c0-.776-7.755-12.011-9-14.5-1.011-2.021-.232-12.5 2-12.5l6.5 8c6.131 3.065 13.734 13.968 17.5 21.5l8 8.5Z"/><path fill="#CCC" d="m95 159 1 2-1-2ZM360 160l1 2v-3l-1 1Z"/><path fill="#16B0B2" id="TEa6b" d="M68 176h1v-14l-2-1 1 15ZM387 176h1c0-4.27 1-10.067 1-15h-1l-1 15Z"/><path fill="#FE8D9F" id="PCN" d="M201 186c3.842 0 7.264 3 12 3l1-6c-6.919 0-17-7.492-17-15l-7-3 5 14.5 6 6.5ZM256 186c-4.104 0-8.018 3-13 3v-6c6.948 0 16-7.649 16-15 2.971 0 4.768-3 7-3 0 8.49-10 19.042-10 21Z"/><path fill="#CCC" d="m97 168 1 1-1-1ZM359 169l-1 1 1-1ZM98 173l2 1-2-3v2ZM357 173h1v-1l-1 1Z"/><path fill="#97D6F9" id="STR" d="M101 176c-1.58 0-1 2.855-1 4-2.273 0-2-5.226-2-7l2 1 1 2ZM355 177c1.747 0 2 .253 2 2 1.543 0 3.292-6 1-6h-1v1l-1 1-1 2Z"/><path fill="#CCC" d="m357 174-1 1 1-1Z"/><path fill="#0E9F90" id="ECT6b" d="M69 186h1v-10l-1-1v11Z"/><path fill="#CCC" d="M115 188v1c3.547 0 6.802 7.302 9.5 10 6.471 6.471 18.497 26.249 26 30 3.928 1.964 8.202 13.399 15 10 5.639-2.82.609-12.196-3-14-11.374-5.687-19.896-22.292-25.5-33.5L127 181c-2.248 0-6.353-6-12-6 0 1.505-9.436 5.032-11.5 4l-2.5-2v1l1 1 5 3 1 1h1c1.797 0 4 2.203 4 4h1l1 1ZM339 191c-1.747 0-2 .253-2 2l-8 9.5c-2.901 5.801-19.19 24.345-23.5 26.5-3.569 1.785-7.719 13.141-14 10-8.191-4.095.775-11.775 4.5-15.5 10.007-10.007 13.17-14.34 19-26l10-12.5 1-1 1-1 1-1c2.566 0 6.989-7 13-7 0 1.806 9.79 4 12 4l-4 3-1 1h-1l-2 2-1 1-1 1-1 1-1 1-1 1-1 1Z"/><path fill="#0E9F91" id="ECT6a" d="M65 189c-2.523 0-1.96 2-5 2-1.568 0-3-11.345-3-14l11-1h1v10c-2.06 0-4 .902-4 3Z"/><path fill="#8598CC" id="GPe" d="M102 180v2l-2-2c0-1.145-.58-4 1-4v2l1 1v1Z"/><path fill="#0E9F90" id="ECT6b" d="m388 176-1 1v-1h1Z"/><path fill="#0E9F91" id="ECT6a" d="M396 191h1l3-14-12-1-1 1v9c1.408 0 5 1.197 5 3l4 2Z"/><path fill="#0D9F91" id="ECT2/3" d="M35 195h12c0-4.363-4-11.511-4-18h-3c-3.222 0-6.277 1-9 1l4 16v1Z"/><path fill="#0D9E90" id="ECT5" d="M47 195h10l3-3v-1c-1.568 0-3-11.345-3-14H43c0 6.489 4 13.637 4 18Z"/><path fill="#FD8E9E" id="CM" d="M221 191c2.873 0 5.537-2 7.5-2 .622 0 4.834 2 7.5 2 2.833 0 4.84-2 7-2v-6l-6-4c-2.613 0-4.36-.93-6.5-2-3.465-1.733-7.275 2-10.5 2l-6 4-1 6c2.522 0 4.909 2 8 2Z"/><path fill="#8598CC" id="GPe" d="m357 179-2 2v-4c1.747 0 2 .253 2 2Z"/><path fill="#0E9F90" id="ECT6b" d="M386 186h1v-9h-1v9Z"/><path fill="#0D9E90" id="ECT5" d="M409 195h1c0-5.903 3-11.297 3-18h-13l-3 14c0 1.429 1.288 4 3 4h9Z"/><path fill="#0D9F91" id="ECT2/3" d="M410 195h11l1-1c0-5.931 4-11.002 4-16l-10-1h-3c0 6.703-3 12.097-3 18Z"/><path fill="#0D9F90" id="ECT1" d="M35 194c-1.819 0-4.59 1-7 1 0-1.979 1.12-9.261 0-11.5l-3-4.5 6-1 4 16Z"/><path fill="#97D6F9" id="STR" d="m101 178 1 1-1-1Z"/><path fill="#CCC" d="M354 179h1v-1l-1 1Z"/><path fill="#0D9F90" id="ECT1" d="M422 194c0 1.684 4.679 1 6 1 2.448 0 .484-6.532 0-7.5-1.6-3.2 3-5.712 3-8.5l-5-1c0 4.998-4 10.069-4 16Z"/><path fill="#8599CC" id="PAL" d="m118 201 3 1c0-7.821-6-11.109-6-13v-1l-1-1h-1l-4-4h-1l-1-1-5-3v1c1.473 0 1 1.952 1 3v2l2.5 3c1.147.574 4.5-1.064 4.5 1 3.492 0 7 7.046 7 10l1 1v1Z"/><path fill="#C7CACA" id="em" d="m323 179-4 4c2.226 0 4-1.774 4-4Z"/><path fill="#8599CC" id="PAL" d="m339 200-1 1c-8.646 0-1-3.063-1-8l2-2 1-1 1-1 1-1 1-1 1-1 1-1c1.747 0 2-.253 2-2h1l1-1 4-3h1v4l-1 1v2l-1 1c-.671 0-5 1.328-5 2h-2l-1 1-1 1-3 6-1 1v2Z"/><path fill="#97D6F9" id="STR" d="M354 181h1v-2h-1v2ZM383 182h1v-3c-1.473 0-1 1.952-1 3ZM102 182l1 1c0-1.048.473-3-1-3v2ZM73 182h1l-1-1v1Z"/><path fill="#CAC7CB" id="fiber tracts" d="M163 249c0 2.343-.285 4-3 4 0-2.892-3-4.781-3-8v-5.5c-2.254-4.509-21.913-26.707-25.5-28.5-3.7-1.85-4.995-9-10.5-9 0-7.821-6-11.109-6-13 3.547 0 6.802 7.302 9.5 10 6.471 6.471 18.497 26.249 26 30 3.928 1.964 8.202 13.399 15 10 5.639-2.82.609-12.196-3-14-11.374-5.687-19.896-22.292-25.5-33.5L127 181c4.086 0 5.554 6 11 6l1 1 3 4c0 1.671 2.012 9 4 9 0 6.658 18.022 26 24 26l2 2v10c-6.035 0-9 4.596-9 10Z"/><path fill="#8598CC" id="GPe" d="m355 181-1 2v-2h1Z"/><path fill="#90EB8D" id="LA" d="m82 244 3 3c0-4.168-.8-26 6-26 0-5.707 5.86-4 9-4l-1-4-3.5-4c-1.702-1.702-9.5-8.884-9.5-12-3.35 0-12-12.318-12-15h-1c0 1.048.473 3-1 3 0 17.336 7 30.182 7 48v2c1.175 0 2 5.704 2 7v1l1 1Z"/><path fill="#CAC7CB" id="fiber tracts" d="m107 182 1 1-1-1ZM328 182l-1 1 1-1ZM349 182l-1 1 1-1Z"/><path fill="#90EB8D" id="LA" d="m375 243-4 5c0-4.633 1.59-28-6-28 0-5.265-5.328-3-8-3l1-4 2.5-4c2.876-2.876 9.5-8.067 9.5-12 1.781 0 13-13.147 13-15h1v3c0 18.289-7 32.381-7 51v1c-1.579 0-1 2.855-1 4l-1 2Z"/><path fill="#CAC7CB" id="fiber tracts" d="M109 183c1.797 0 4 2.203 4 4l-4-4Z"/><path fill="#C7CACA" id="em" d="M318 184h1v-1l-1 1Z"/><path fill="#CAC7CB" id="fiber tracts" d="m327 183-1 1 1-1ZM347 183l-2 2c1.747 0 2-.253 2-2Z"/><path fill="#97D6F9" id="STR" d="m354 183-1 1 1-1Z"/><path fill="#FF6F80" id="TH" d="m141 187-2 1-1-1-1-3h1l3 3ZM319 187l-2 1-1-1 2-3h1v3Z"/><path fill="#CAC7CB" id="fiber tracts" d="m326 184-1 1 1-1Z"/><path fill="#C8C9CB" id="amc" d="M78 230c0 1.048-.473 3 1 3 0-17.818-7-30.664-7-48l-2 1v3c0 4.364 2 8.259 2 12l3 7.5c2.451 4.903 3 15.896 3 21.5Z"/><path fill="#CAC7CB" id="fiber tracts" d="M105 192h1c0-2.715 1.657-3 4-3 0-2.064-3.353-.426-4.5-1l-2.5-3 1 3c1.473 0 1 1.952 1 3v1ZM293 250c0 3.702 2.379 2 4 2l3-7c-1.22 0-1.504-3.492-1-4.5l12-14 18-21c.317-.634 7-5.822 7-2l-3 6.5 4-3 1-6c-8.646 0-1-3.063-1-8l-8 9.5c-2.901 5.801-19.19 24.345-23.5 26.5-3.569 1.785-7.719 13.141-14 10-8.191-4.095.775-11.775 4.5-15.5 10.007-10.007 13.17-14.34 19-26l10-12.5c-2.447 0-3.28 2-6 2l-2 1-3 5-1 1c0 1.745.698 6-2 6 0 6.596-18.072 27-25 27l-1 1c0 3.249-1 7.194-1 11 6.901 0 9 4.753 9 11ZM345 185l-1 1 1-1Z"/><path fill="#C8C9CB" id="amc" d="M377 236h1v-1c0-1.145-.579-4 1-4 0-5.731-.25-17.001 2-21.5 1.035-2.069 3-5.13 3-7.5l1-1 1-12v-4h-2c0 18.289-7 32.381-7 51Z"/><path fill="#11AC83" id="VISC6a" d="M65 189h4v-3c-2.06 0-4 .902-4 3Z"/><path fill="#11AD82" id="VISC6b" d="M69 189h1v-3h-1v3Z"/><path fill="#FF6F80" id="TH" d="m200 186-1 1 1-1Z"/><path fill="#FE8082" id="VPMpc" d="M221 191c0 5.912-.147 6-7 6-1.065 0-13.344-8-21-8l1-2h5l1-1h1c3.842 0 7.264 3 12 3 2.522 0 4.909 2 8 2ZM236 191c0 5.302-.818 6 6 6 1.189 0 14.112-8 22-8l-1-2h-6l-1-1c-4.104 0-8.018 3-13 3-2.16 0-4.167 2-7 2Z"/><path fill="#FF6F80" id="TH" d="m256 186 1 1-1-1Z"/><path fill="#CAC7CB" id="fiber tracts" d="m344 186-1 1 1-1ZM352 187h1v-1l-1 1Z"/><path fill="#11AD82" id="VISC6b" d="M386 189h1v-3h-1v3Z"/><path fill="#11AC83" id="VISC6a" d="M387 189h5c0-1.803-3.592-3-5-3v3Z"/><path fill="#CAC7CB" id="fiber tracts" d="m114 187 1 1-1-1Z"/><path fill="#F0483B" id="ZI" d="M179 219h10c4.789 0 5-1.546 5-6-7.976 0-17.662-11-24-11l-11-6c-6.211 0-13.534-9-18-9l-2 1 3 4 17 17c4.51 0 6.912 6 11 6 2.759 0 5.795 4 9 4Z"/><path fill="#FF6F80" id="TH" d="m193 189-6 2 1-4h6l-1 2ZM297 196l-10 5-5-2.5c-2.878-2.878-14.033-9.5-18-9.5l-1-2h6c0 6.123 14.556 11.972 20.5 9l4.5-2c0 2.293.997 2 3 2Z"/><path fill="#F0483B" id="ZI" d="M267 219h11l7-3c4.307 0 7.259-7 12-7l1-1 1-1 1-1 1-1h1l1-1 1-1 1-1 8-8 1-1 3-5-1-1c-6.329 0-11.979 9-19 9l-10 5-1 1c-4.113 0-16.419 11-23 11 0 3.916-2.09 6 4 6Z"/><path fill="#CAC7CB" id="fiber tracts" d="m343 187-1 1 1-1ZM352 189l-1 2c-1.24 0-1.576-2-4-2 0-.672 4.329-2 5-2v2Z"/><path fill="#97D6F9" id="STR" d="m353 187-1 2v-2h1ZM104 191h1c0-1.048.473-3-1-3v3Z"/><path fill="#CAC7CB" id="fiber tracts" d="m342 188-1 1 1-1Z"/><path fill="#209766" id="AIp6a" d="M63 201h1l2-1 4-1-1-10h-4c-2.523 0-1.96 2-5 2v1c.963 0 3 7.561 3 9Z"/><path fill="#219666" id="AIp6b" d="m70 199 2 2c0-3.741-2-7.636-2-12h-1l1 10Z"/><path fill="#C8CBC7" id="st" d="m120 208-1 1c-2.732 0-2.259-4-5-4 0-4.69-8-7.804-8-13 0-2.715 1.657-3 4-3 3.492 0 7 7.046 7 10l1 1v1l2 7Z"/><path fill="#FF7E84" id="VM" d="M194 213c1.819 0 4.591 1 7 1 0-7.295 4.961-3 8-3 0-.979 5.079-3.658 6-5.5 1.284-2.568-1-6.486-1-8.5-1.065 0-13.344-8-21-8l-6 2-2 1-1 1h-1l-2 1-2 1-2 1c0 2.986-7 2.02-7 6 6.338 0 16.024 11 24 11Z"/><path fill="#FF6F80" id="TH" fill-rule="evenodd" d="M223 197c0 2.617-3.646 5.208-2 8.5.538 1.076 4.428 6.144 6 3l1.5-3.5c.873 0 .592 5.704 4 4 3.731-1.865 3.731-10.135 0-12-2.535-1.267-3.261 2-4 2-1.231 0-3.306-2-5.5-2m-13 16c4.372 0 9.872-.314 14.5 2 2.104 1.052 2.67-2 4-2 .739 0 1.465 3.267 4 2 4.803-2.401 9.816-2 14.5-2l1-3c-8.452 0-6-7.656-6-13-6.818 0-6-.698-6-6-2.666 0-6.878-2-7.5-2-1.963 0-4.627 2-7.5 2 0 5.912-.147 6-7 6 0 2.014 2.284 5.932 1 8.5-.921 1.842-6 4.521-6 5.5l1 2Z"/><path fill="#FF7E84" id="VM" d="m263 213-7 1c0-5.621-5.254-4-8-4-8.452 0-6-7.656-6-13 1.189 0 14.112-8 22-8 3.967 0 15.122 6.622 18 9.5l5 2.5-1 1c-4.113 0-16.419 11-23 11Z"/><path fill="#CAC7CB" id="fiber tracts" d="m341 189-1 1 1-1ZM345 189l-1 1 1-1Z"/><path fill="#C8CBC7" id="st" d="m341 207-4 2v-2l1-6 1-1v-2l1-1 3-6 1-1 1-1h2c2.424 0 2.76 2 4 2 0 5.219-9 10.672-9 14l-1 2Z"/><path fill="#97D6F9" id="STR" d="M351 207c3.248 0 5.962 6 7 6l2.5-4c2.876-2.876 9.5-8.067 9.5-12-6.969 0-18 2.398-18-8l-1 2c0 5.219-9 10.672-9 14h1c1.321 0 6-.684 6 1l1 1h1Z"/><path fill="#219666" id="AIp6b" d="m386 199-1 2 1-12h1c0 3.325-1 7.31-1 10Z"/><path fill="#209766" id="AIp6a" d="M390 200h3c0-2.675 3-5.922 3-9l-4-2h-5c0 3.325-1 7.31-1 10h3l1 1Z"/><path fill="#CAC7CB" id="fiber tracts" d="m340 190-1 1 1-1ZM344 190l-1 1 1-1Z"/><path fill="#8598CC" id="GPe" d="m105 192-1 1v-2h1v1Z"/><path fill="#FF6F80" id="TH" d="m187 191-2 1 2-1Z"/><path fill="#CAC7CB" id="fiber tracts" d="M339 191c-1.747 0-2 .253-2 2l2-2Z"/><path fill="#219864" id="AIp5" d="M405 204h1v-1c-1.885 0-6-5.428-6-8-1.712 0-3-2.571-3-4h-1c0 3.078-3 6.325-3 9v1l3 1 9 2ZM51 203v1l10-2 2-1c0-1.439-2.037-9-3-9l-3 3-6 8Z"/><path fill="#97D6F9" id="STR" d="M106 207c-2.734 0-7 2.939-7 6l-3.5-4c-1.702-1.702-9.5-8.884-9.5-12 2.762 0 18 1.534 18-4l1-1h1c0 5.196 8 8.31 8 13-3.015 0-6.004 2-8 2Z"/><path fill="#E64438" id="HY" d="M146 201c0-2.896 2.925.713 3.5 1 1.898.949 7.705 7 9.5 7l-17-17c0 1.671 2.012 9 4 9Z"/><path fill="#FF6F80" id="TH" d="m185 192-1 1 1-1ZM183 193l-2 1 2-1Z"/><path fill="#E64438" id="HY" d="m314 193-1 1 1-1Z"/><path fill="#0E9584" id="PERI1" d="m39 208-4 2c-.615 0-7-12.786-7-15 2.41 0 5.181-1 7-1v1l4 13Z"/><path fill="#0E9583" id="PERI2/3" d="m45 206-6 2-4-13h12l3 8v2l-5 1Z"/><path fill="#FF6F80" id="TH" d="m181 194-2 1 2-1Z"/><path fill="#E64438" id="HY" d="m311 200-6 2 8-8c0 1.745.698 6-2 6Z"/><path fill="#0E9583" id="PERI2/3" d="M412 207h5c2.267 0 4-9.814 4-12h-12c0 3.238-3 5.3-3 8 1.186 0 1.186 1 0 1l6 3Z"/><path fill="#0E9584" id="PERI1" d="m417 208 5 1c2.313 0 6-11.657 6-14-1.321 0-6 .684-6-1l-1 1c0 2.186-1.733 12-4 12v1Z"/><path fill="#0F9684" id="PERI5" d="M50 203h1l6-8H47l3 8Z"/><path fill="#FF6F80" id="TH" d="M177 196c0 2.986-7 2.02-7 6l-11-6 4-1c4.351 0 9.131 1 14 1ZM179 195l-2 1 2-1Z"/><path fill="#0F9684" id="PERI5" d="M409 195c0 3.238-3 5.3-3 8-1.885 0-6-5.428-6-8h9Z"/><path fill="#FD909F" id="RE" d="M223 197c0 2.617-3.646 5.208-2 8.5.538 1.076 4.428 6.144 6 3l1.5-3.5c.873 0 .592 5.704 4 4 3.731-1.865 3.731-10.135 0-12-2.535-1.267-3.261 2-4 2-1.231 0-3.306-2-5.5-2Z"/><path fill="#CAC7CB" id="fiber tracts" d="m340 197-1 1 1-1Z"/><path fill="#A0EE9C" id="EPd" d="m78 230-2.5 3-4.5-1-4-9 3.5 5c1.13 0-3.049-8.597-3.5-9.5-2.31-4.62-1-13.033-1-18.5l4-1 2 2 3 7.5c2.451 4.903 3 15.896 3 21.5Z"/><path fill="#CAC7CB" id="fiber tracts" d="m117 199 1 1-1-1Z"/><path fill="#A0EE9C" id="EPd" fill-rule="evenodd" d="M385 227c0 1.93 1.93 0 0 0m1-2c0 3.746 2.091 0 0 0m-1 7-1 1c-1.622 0-5 .461-5-2 0-5.731-.25-17.001 2-21.5 1.035-2.069 3-5.13 3-7.5l1-1 1-2h3l1 1c0 4.449 2.416 11.668 0 16.5-1.71 3.419-4.266 7.5-1 7.5l-4 8Z"/><path fill="#C9C8CA" id="ee" d="M64 213c0 3.855 3 6.459 3 10l3.5 5c1.13 0-3.049-8.597-3.5-9.5-2.31-4.62-1-13.033-1-18.5l-2 1v12Z"/><path fill="#F1473B" id="STN" d="m171 226-1 1c-5.978 0-24-19.342-24-26 0-2.896 2.925.713 3.5 1 1.898.949 7.705 7 9.5 7 0 3.095 12 10.645 12 16v1ZM285 227h1c6.928 0 25-20.404 25-27l-6 2-1 1-1 1-1 1h-1l-1 1-1 1-1 1-1 1c0 5.649-12 8.471-12 16v2Z"/><path fill="#CAC7CB" id="fiber tracts" d="m339 200-1 1 1-1Z"/><path fill="#C9C8CA" id="ee" d="M389 223v1c-3.266 0-.71-4.081 1-7.5 2.416-4.832 0-12.051 0-16.5h3v14l-1 1-2 7-1 1Z"/><path fill="#32B824" id="ENTl6a" d="M62 209h2v-8h-1l-2 1 1 7Z"/><path fill="#CAC7CB" id="fiber tracts" d="m120 208 5 4c0-3.234-4-5.921-4-10l-3-1 2 7Z"/><path fill="#FF6F80" id="TH" d="m287 201-1 1 1-1Z"/><path fill="#219666" id="AIp6b" d="m385 201-1 1 1-1Z"/><path fill="#32B824" id="ENTl6a" d="M393 209h1l2-7-3-1v8Z"/><path fill="#31B824" id="ENTl5" d="m62 210-7 2-4-7v-1l10-2 1 7v1Z"/><path fill="#CACCCB" id="opt" d="m126 214 8 8.5 16 16 7 6.5v-5.5c-2.254-4.509-21.913-26.707-25.5-28.5-3.7-1.85-4.995-9-10.5-9 0 4.079 4 6.766 4 10l1 2Z"/><path fill="#E64438" id="HY" d="m305 202-1 1 1-1Z"/><path fill="#CACCCB" id="opt" d="M331 213c0 1.695-21.174 22.837-23.5 24l-7.5 8c-1.22 0-1.504-3.492-1-4.5l12-14 18-21c.317-.634 7-5.822 7-2l-3 6.5-1 1v1l-1 1Z"/><path fill="#31B824" id="ENTl5" d="m394 210 8 2 3-8-9-2-2 7v1Z"/><path fill="#209865" id="AIp2/3" d="M50 205h1v-2h-1v2Z"/><path fill="#E64438" id="HY" d="m304 203-1 1 1-1Z"/><path fill="#209865" id="AIp2/3" d="M406 203c1.186 0 1.186 1 0 1v-1Z"/><path fill="#E64438" id="HY" d="m303 204-1 1 1-1Z"/><path fill="#32B725" id="ENTl3" d="M402 212c0 1.175 5.704 2 7 2 0-.698 2.714-7 3-7l-6-3h-1l-3 8ZM55 212l-8 3c0-3.489-2-5.32-2-9l5-1h1l4 7Z"/><path fill="#80BEE1" id="CEAl" d="M106 207c0 5.252 1.02 16 9 16 0-2.824 2.616-8.268 1-11.5l-2-6.5c-3.015 0-6.004 2-8 2Z"/><path fill="#7FC0E0" id="CEAm" d="m126 236-3 1c-3.741 0-5.783-8-10-8l-1-1c1.803 0 3-3.592 3-5 0-2.824 2.616-8.268 1-11.5l-2-6.5c2.741 0 2.268 4 5 4l2 2c0 8.792 5 16.057 5 25Z"/><path fill="#E64438" id="HY" d="m301 205-1 1 1-1Z"/><path fill="#7FC0E0" id="CEAm" d="m343 205-2 2 1-2h1Z"/><path fill="#80BEE1" id="CEAl" d="M351 207c0 6.288-2.622 16-10 16v-16l2-2c1.321 0 6-.684 6 1l1 1h1Z"/><path fill="#32B825" id="ENTl2" d="m47 215-5 1-3-8 6-2c0 3.68 2 5.511 2 9Z"/><path fill="#E64438" id="HY" d="m300 206-1 1 1-1Z"/><path fill="#80BFE0" id="CEAc" d="m349 206 1 1-1-1ZM110 227l2 1c1.803 0 3-3.592 3-5-7.98 0-9-10.748-9-16-2.734 0-7 2.939-7 6l1 4 10 10Z"/><path fill="#E64438" id="HY" d="m299 207-1 1 1-1Z"/><path fill="#97D6F9" id="STR" d="m333 211 2 1 2-3v-2l-4 3v1Z"/><path fill="#7FC0E0" id="CEAm" d="M330 235c1.481 0 .785 2 3 2 4.18 0 5.37-8 10-8l1-1-3-5v-16l-4 2-2 3c0 8.167-5 15.154-5 23Z"/><path fill="#80BFE0" id="CEAc" d="m346 227-2 1-3-5c7.378 0 10-9.712 10-16 3.248 0 5.962 6 7 6l-1 4c-1.747 0-2 .253-2 2-1.238 0-3 .423-3 2l-1 1-3 3-1 1-1 1Z"/><path fill="#32B825" id="ENTl2" d="M409 214c0 1.638 3.576 2 5 2 1.069 0 3-6.717 3-8v-1h-5c-.286 0-3 6.302-3 7Z"/><path fill="#32B722" id="ENTl1" d="m42 216-3 2-4-8 4-2 3 8Z"/><path fill="#97D6F9" id="STR" d="m125 212 1 2c-1.947 0-2.636-3-5-3l-2-2 1-1 5 4Z"/><path fill="#E64438" id="HY" d="m298 208-1 1 1-1Z"/><path fill="#32B722" id="ENTl1" d="M414 216c0 1.579 2.855 1 4 1l4-8-5-1c0 1.283-1.931 8-3 8Z"/><path fill="#8AD987" id="CTXsp" d="m62 210 2 3v-4h-2v1Z"/><path fill="#CCCACB" id="nst" d="M174 220c0 2.904 2.055 5-3 5 0-5.355-12-12.905-12-16 4.51 0 6.912 6 11 6l4 5Z"/><path fill="#C7C9CC" id="mtt" d="M209 217c0 2.393-3.234 3-5 3 0-2.079-3-3.187-3-6 0-7.295 4.961-3 8-3l1 2-1 4ZM247 217c1.312 0 2.446 3 5 3 2.96 0 2.124-6 4-6 0-5.621-5.254-4-8-4l-1 3v4Z"/><path fill="#CCCACB" id="nst" d="M282 221c0 2.343.285 4 3 4 0-7.529 12-10.351 12-16-4.741 0-7.693 7-12 7 0 2.364-3 3.053-3 5Z"/><path fill="#8AD987" id="CTXsp" d="m394 210-1 1v-2h1v1Z"/><path fill="#6ACAB9" id="PIR" d="m88 275-2.5 4c-1.634 1.634-7.5 11.78-7.5 14-3.584 0-9.097-12.597-12-15.5-10.099-10.099-14.69-33.379-21-46-1.832-3.664-6-9.317-6-13.5l3-2 5-1 8-3 7-2 2 3c0 3.855 3 6.459 3 10l4 9 3 5c0 8.659 13 23.025 13 30v1l1 1v6Z"/><path fill="#CAC7CB" id="fiber tracts" d="M332 211h1v-1l-1 1Z"/><path fill="#6ACAB9" id="PIR" d="M369 275c0 1.909 8.578 17 10 17 2.363 0 10.861-14.222 12-16.5 3.657-7.313 8.385-13.771 12-21l8-22c2.076-4.153 7-10.775 7-15.5-1.145 0-4 .579-4-1-1.424 0-5-.362-5-2-1.296 0-7-.825-7-2l-8-2-1 1v3l-1 1-2 7-1 1v1l-4 8-1 1-1 4c0 4.819-7.645 16.791-10 21.5-.695 1.39-2.272 8.5-4 8.5v8Z"/><path fill="#80BFE1" id="MEA" d="M129 271c0 1.529 6.047 12 7 12 3.655 0 7.335-4.417 10.5-6 10.161-5.08 13.5-12.159 13.5-24 0-2.892-3-4.781-3-8l-7-6.5-16-16-8-8.5c-1.947 0-2.636-3-5-3 0 8.792 5 16.057 5 25 1.643 0 1 3.765 1 5l1 4v4l-1 5c1.579 0 1 2.855 1 4v10l1 3Z"/><path fill="#97D6F9" id="STR" d="m333 211-1 1v-1h1Z"/><path fill="#80BFE1" id="MEA" d="m328 271-8 12c-7.135 0-21.145-14.789-24-20.5-1.514-3.028 1-7.882 1-10.5l3-7 7.5-8c2.326-1.163 23.5-22.305 23.5-24l1-1 1-1 2 1c0 8.167-5 15.154-5 23l-1 7v17c-1.735 0-1 6.51-1 8v4Z"/><path fill="#E64438" id="HY" d="M225 224h6c0-4.159 8.301-11.099 12.5-9l3.5 2v-4c-4.684 0-9.697-.401-14.5 2-2.535 1.267-3.261-2-4-2-1.33 0-1.896 3.052-4 2-4.628-2.314-10.128-2-14.5-2l-1 4 3.5-2c4.001-2 12.5 4.499 12.5 9Z"/><path fill="#CAC7CB" id="fiber tracts" d="m332 212-1 1 1-1Z"/><path fill="#E64438" id="HY" d="M210 262c0 .83-6.431 2.466-7.5 3-4.066 2.033-5.5 5.46-5.5 10-1.248 0-5.293-18-14-18l4-2c0 5.495 6 4.802 6-4 0-3.765 5.544-19.413 4-22.5-1.327-2.654-2.934-4.867-4-7l-4-2.5c4.789 0 5-1.546 5-6 1.819 0 4.591 1 7 1 0 2.813 3 3.921 3 6l-5 5.5c-1.015 2.03-1.839 12.33.5 13.5 2.424 1.212 4.576 0 7.5 0 0 4.273-6.99 9.52-4 15.5l4.5 6.5c.919.459 2.5-.765 2.5 1ZM246 262c5.604 0 14 5.822 14 12 .835 0 5.148-17 13-17l-3-2c0 3.312-5.458 4.583-7 1.5-1.42-2.84 1-2.889 1-5.5-1.353 0-2-4.643-2-6 0-4.822-4.551-13.398-2-18.5l7-7.5c-6.09 0-4-2.084-4-6l-7 1c-1.876 0-1.04 6-4 6l5 4.5c2.201 4.402 1.973 13.263-2.5 15.5l-4.5-1c0 4.283 5.889 10.722 3 16.5l-2.5 4.5c-.93.465-4.5.817-4.5 2Z"/><path fill="#8AD987" id="CTXsp" d="m393 214-1 1 1-1Z"/><path fill="#E64438" id="HY" d="m174 220 3 1 2-2c-3.205 0-6.241-4-9-4l4 5Z"/><path fill="#FD4B3C" id="PH" d="M221 237c-5.145 0-10.282 2-14 2-2.924 0-5.076 1.212-7.5 0-2.339-1.17-1.515-11.47-.5-13.5l5-5.5c1.766 0 5-.607 5-3l3.5-2c4.001-2 12.5 4.499 12.5 9l-1 11-3 2ZM235 237c5.574 0 10.26 2 15 2l4.5 1c4.473-2.237 4.701-11.098 2.5-15.5l-5-4.5c-2.554 0-3.688-3-5-3l-3.5-2c-4.199-2.099-12.5 4.841-12.5 9 0 2.978 1 6.49 1 10l3 3Z"/><path fill="#9DE79B" id="BLAa" d="M112 239c-3.242 0-5.319 4-9 4-2.908 0-12-18.546-12-22 0-5.707 5.86-4 9-4l10 10 1 3 2 3v2l-1 4Z"/><path fill="#E64438" id="HY" d="m282 221-3 1-1-3 7-3c0 2.364-3 3.053-3 5Z"/><path fill="#9DE79B" id="BLAa" d="M344 239c3.657 0 5.884 4 10 4 3.389 0 11-19.952 11-23 0-5.265-5.328-3-8-3l-2 2c0 1.577-1.762 2-3 2l-1 1c0 2.041-.959 3-3 3l-1 1-1 1-2 4v2l-1 1v3l1 2Z"/><path fill="#C8CBCC" id="ec" d="m100 217 10 10-10-10ZM357 217c-1.747 0-2 .253-2 2l2-2Z"/><path fill="#F2483A" id="LHA" d="M171 259h2c2.73 0 6.298-2 10-2l4-2c0-3.591 3.117-4 6-4 0-3.765 5.544-19.413 4-22.5-1.327-2.654-2.934-4.867-4-7l-4-2.5h-10l-2 2c0 4.937 5.922 18-5 18-6.035 0-9 4.596-9 10 2.626 0 3.869 10 8 10ZM283 259h2c4.061 0 4.667-9 8-9 0-6.247-2.099-11-9-11-10.322 0-5-12.263-5-17l-1-3h-11l-7 7.5c-2.551 5.102 2 13.678 2 18.5 0 1.357.647 6 2 6 2.653 0 6 .879 6 4l3 2c3.526 0 8.954 2 10 2Z"/><path fill="#C8CBCC" id="ec" d="M355 219c-1.238 0-3 .423-3 2 1.238 0 3-.423 3-2Z"/><path fill="#F1483A" id="PSTN" d="M172 229v10c10.922 0 5-13.063 5-18l-3-1c0 2.904 2.055 5-3 5v1c1.473 0 1 1.952 1 3Z"/><path fill="#9DE69C" id="BLAp" d="M366 252h2l2-2 1-1v-1c0-4.633 1.59-28-6-28 0 3.048-7.611 23-11 23 0 2.364 3 3.053 3 5l3 2 6 2ZM87 251l3 1c2.483 0 4.026-2 6-2l3-2 4-5c-2.908 0-12-18.546-12-22-6.8 0-6 21.832-6 26v1l1 1 1 2Z"/><path fill="#F1483A" id="PSTN" d="M285 228c0 3.249-1 7.194-1 11-10.322 0-5-12.263-5-17l3-1c0 2.343.285 4 3 4v3Z"/><path fill="#C8CBCC" id="ec" d="m352 221-1 1 1-1ZM351 222l-3 3c2.041 0 3-.959 3-3Z"/><path fill="#A0EE9C" id="EPd" d="m390 222-1 1 1-1Z"/><path fill="#FD5D50" id="PVi" d="M229 270h3v-36c0-3.51-1-7.022-1-10h-6l-1 11v34l3 1c0-12.876 1-26.809 1-39 0-1.186 1-1.186 1 0v39Z"/><path fill="#C8CBCC" id="ec" d="m348 225-1 1 1-1Z"/><path fill="#C9C8CA" id="ee" d="M386 225c0 3.746 2.091 0 0 0Z"/><path fill="#E64438" id="HY" d="m170 227 2 2c0-1.048.473-3-1-3l-1 1Z"/><path fill="#97D6F9" id="STR" d="m111 230 2 1v-2l-1-1-2-1 1 3Z"/><path fill="#E64438" id="HY" d="m286 227-1 1v-1h1Z"/><path fill="#97D6F9" id="STR" d="m343 229 1 2 2-4-2 1-1 1Z"/><path fill="#C9C8CA" id="ee" d="M385 227c0 1.93 1.93 0 0 0Z"/><path fill="#80BEE2" id="IA" d="M125 245h3l-1-4c-1.366 0-4-2.366-4-4-3.741 0-5.783-8-10-8v6l2 4c3.095 0 6.225 6 10 6ZM329 245h2c1.969 0 10-3.732 10-6l2-2v-3l1-1v-2l-1-2c-4.63 0-5.82 8-10 8 0 1.562-2.189 5-4 5v3Z"/><path fill="#8AD987" id="CTXsp" d="M79 236c-3.597 0-4.708 1-5 1l-3-5 4.5 1 2.5-3c0 1.048-.473 3 1 3v3ZM113 231v2l-2-3 2 1Z"/><path fill="#E64438" id="HY" d="M228 231h1c0-1.186-1-1.186-1 0Z"/><path fill="#A8A9AA" id="V3" d="M225 291h7v-2l-2-3.5-1-15.5v-39h-1c0 12.191-1 26.124-1 39v13.5l-3 5.5 1 2Z"/><path fill="#8AD987" id="CTXsp" d="M378 235c2.25 0 3.376 2 5 2l1-4c-1.622 0-5 .461-5-2-1.579 0-1 2.855-1 4ZM385 232l-1 1 1-1ZM344 233l-1 1 1-1Z"/><path fill="#E64438" id="HY" d="m235 237-3 1v-4l3 3Z"/><path fill="#A0ED9D" id="EPv" d="M87 267h1l1-14-2-2-1-2-1-1v-1l-3-3-1-1v-1c-1.353 0-2-4.643-2-6-3.597 0-4.708 1-5 1 0 8.659 13 23.025 13 30Z"/><path fill="#C8C9CB" id="amc" d="M79 236c0 1.357.647 6 2 6 0-1.296-.825-7-2-7v1Z"/><path fill="#8AD987" id="CTXsp" d="M112 239h3l-2-4-1 4Z"/><path fill="#E64438" id="HY" d="M221 237h3v-2l-3 2Z"/><path fill="#97D6F9" id="STR" d="M333 237c0 1.562-2.189 5-4 5l1-7c1.481 0 .785 2 3 2Z"/><path fill="#A0ED9D" id="EPv" d="M368 267h1c1.728 0 3.305-7.11 4-8.5 2.355-4.709 10-16.681 10-21.5-1.624 0-2.75-2-5-2v1l-1 1c0 1.145.579 4-1 4l-1 2-4 5v1l-1 1-2 2-1 2c0 3.629 1 8.716 1 13Z"/><path fill="#97D6F9" id="STR" d="M123 237c0 1.634 2.634 4 4 4 0-1.235.643-5-1-5l-3 1Z"/><path fill="#8AD987" id="CTXsp" d="m378 236-1 1v-1h1Z"/><path fill="#FE5445" id="DMH" d="M219 264h5v-27h-3c-5.145 0-10.282 2-14 2 0 4.273-6.99 9.52-4 15.5l4.5 6.5c.919.459 2.5-.765 2.5 1 3.447 0 6.245 2 9 2ZM232 263c1.564 0 3.876 1 6 1 2.338 0 4.862-2 8-2 0-1.183 3.57-1.535 4.5-2l2.5-4.5c2.889-5.778-3-12.217-3-16.5-4.74 0-9.426-2-15-2l-3 1v25Z"/><path fill="#8AD987" id="CTXsp" d="M341 239h3l-1-2-2 2Z"/><path fill="#C8C9CB" id="amc" d="M377 237c-1.579 0-1 2.855-1 4 1.579 0 1-2.855 1-4Z"/><path fill="#84E981" id="BMAp" d="M109 264h3c2.819 0 10.037-9 14-9l1-1 1-5-3-4c-3.775 0-6.905-6-10-6h-3c-3.242 0-5.319 4-9 4l-4 5v3c1.737 0 10 11.105 10 13ZM344 264l3 1c0-5.008 10-10.78 10-14v-3c0-1.947-3-2.636-3-5-4.116 0-6.343-4-10-4h-3c0 2.268-8.031 6-10 6l-2 2v7l1 1c4.268 0 11.749 9 14 9Z"/><path fill="#C8C9CB" id="amc" d="m376 241-1 2 1-2ZM81 243l1 1-1-1Z"/><path fill="#97D6F9" id="STR" d="M128 245v4l-3-4h3ZM331 245l-2 2v-2h2Z"/><path fill="#90EB8D" id="LA" d="m85 248 1 1-1-1Z"/><path fill="#8AD987" id="CTXsp" d="m96 250 3 1v-3l-3 2ZM360 250l-3 1v-3l3 2Z"/><path fill="#90EB8D" id="LA" d="m371 249-1 1 1-1Z"/><path fill="#9CE79C" id="BLAv" d="M97 279h3c3.428 0 6.206-6 10-6l1-5v-1l-2-3c0-1.895-8.263-13-10-13l-3-1c-1.974 0-3.517 2-6 2l-1 1-1 14v2l1 1 1 5c2.367 0 4.032 4 7 4ZM357 279h2c3.984 0 5.083-4 8-4l1-6v-2c0-4.284-1-9.371-1-13l-1-2-6-2-3 1c0 3.22-10 8.992-10 14v8c3.448 0 6.349 6 10 6Z"/><path fill="#8AD987" id="CTXsp" d="m90 252-1 1-2-2 3 1Z"/><path fill="#C7C8CA" id="fx" d="M193 251c-2.883 0-6 .409-6 4 0 5.495 6 4.802 6-4ZM264 251c2.653 0 6 .879 6 4 0 3.312-5.458 4.583-7 1.5-1.42-2.84 1-2.889 1-5.5Z"/><path fill="#8AD987" id="CTXsp" d="m368 252-1 2-1-2h2ZM126 255l2 3c0-1.145.579-4-1-4l-1 1ZM330 255l-1 1v-2l1 1Z"/><path fill="#84EA80" id="BMAa" d="M117 272h1l8-2 1-2 1-1v-9l-2-3c-3.963 0-11.181 9-14 9 0 1.048.473 3-1 3v1c1.82 0 2.097 4 6 4ZM338 272h1c6.752 0 5-3.663 5-8-2.251 0-9.732-9-14-9l-1 1v11c0 2.215 2 1.519 2 3l7 2Z"/><path fill="#F24839" id="TU" d="m208 288-1 1c-17.194 0-19.093-3.686-26-17.5l-8-10.5v-2c2.73 0 6.298-2 10-2 8.707 0 12.752 18 14 18 0 4.203 3.619 9 8 9l3 3v1ZM251 284h1l1-1c3.941 0 7-5.66 7-9 .835 0 5.148-17 13-17 3.526 0 8.954 2 10 2l1 1-7 9.5c-7.414 14.827-9.623 19.5-28 19.5 0-2.567 2-3.913 2-5Z"/><path fill="#E64438" id="HY" d="M173 259v2l-2-2h2ZM285 259l-1 1-1-1h2Z"/><path fill="#8AD987" id="CTXsp" d="M328 267h1v-8c-1.735 0-1 6.51-1 8Z"/><path fill="#FF4A3D" id="VMH" d="m210 283-5 1c-4.381 0-8-4.797-8-9 0-4.54 1.434-7.967 5.5-10 1.069-.534 7.5-2.17 7.5-3 3.447 0 6.245 2 9 2l2 5.5-2 5.5c-1.747 0-2 .253-2 2-1.747 0-2 .253-2 2-1.747 0-2 .253-2 2-1.238 0-3 .423-3 2ZM251 284h1l1-1c3.941 0 7-5.66 7-9 0-6.178-8.396-12-14-12-3.138 0-5.662 2-8 2 0 2.099-3.558 4.383-2 7.5 2.251 4.503 9.832 12.5 15 12.5Z"/><path fill="#E64438" id="HY" d="M248 289h1c0-2.567 2-3.913 2-5-5.168 0-12.749-7.997-15-12.5-1.558-3.117 2-5.401 2-7.5-2.124 0-4.436-1-6-1v7c1.71 0 16 15.57 16 19Z"/><path fill="#8AD987" id="CTXsp" d="M112 264c0 1.048.473 3-1 3l-2-3h3Z"/><path fill="#E64438" id="HY" d="M224 269c0 1.668-3.099 6-5 6l2-5.5-2-5.5h5v5Z"/><path fill="#8AD987" id="CTXsp" d="M341 273h6v-8l-3-1c0 4.337 1.752 8-5 8l2 1ZM87 268h1v-1h-1v1ZM127 268h1v-1l-1 1Z"/><path fill="#99D2BD" id="OLF" d="m331 270-3 1v-4h1c0 2.215 2 1.519 2 3Z"/><path fill="#8AD987" id="CTXsp" d="M368 269h1v-2h-1v2Z"/><path fill="#99D2BD" id="OLF" d="M88 268v1l-1-1h1Z"/><path fill="#8AD987" id="CTXsp" d="M115 273h2v-1c-3.903 0-4.18-4-6-4l-1 5h5Z"/><path fill="#99D2BD" id="OLF" d="m126 270 3 1-1-3h-1l-1 2Z"/><path fill="#8AD987" id="CTXsp" d="M88 270h1l-1-1v1Z"/><path fill="#FF5B4F" id="ARH" d="M216 291h1c0-3.984 3.93-1 6-1l1-1 3-5.5V270l-3-1c0 1.668-3.099 6-5 6l-2 2-2 2-2 2c0 1.577-1.762 2-3 2l-2 4v2c2.338 0 4.862 2 8 2Z"/><path fill="#99D2BD" id="OLF" d="M367 275h2v-6h-1l-1 6ZM88 275h2l-1-5h-1v5Z"/><path fill="#60E6B5" id="COApm" d="M136 283c0 1.711-11.205 9-13 9-2.048 0-6-14.651-6-18v-1l1-1 8-2 3 1c0 1.529 6.047 12 7 12Z"/><path fill="#FF5B4F" id="ARH" d="m247 290-7 1c0-3.893-4.854-1-6-1l-2-1-2-3.5-1-15.5h3c1.71 0 16 15.57 16 19l-1 1Z"/><path fill="#60E6B5" id="COApm" d="M320 283c0 2.049 9 6.25 10.5 7l2.5 2c3.067 0 7-14.521 7-18l-2-2-7-2-3 1-8 12Z"/><path fill="#99D2BD" id="OLF" d="m118 272-1 1v-1h1ZM341 273l-1 1-2-2h1l2 1Z"/><path fill="#5FE6B7" id="COApl" d="M98 300v1c4.589 0 25-4.811 25-9-2.048 0-6-14.651-6-18l-2-1h-5c-3.794 0-6.572 6-10 6l-1 2c0 6.244-1 13.428-1 19Z"/><path fill="#99D2BD" id="OLF" d="M117 273v1l-2-1h2Z"/><path fill="#5FE6B7" id="COApl" d="m359 300-1 1c-4.469 0-25-5.531-25-9 3.067 0 7-14.521 7-18l1-1h6c3.448 0 6.349 6 10 6v18.5l2 2.5Z"/><path fill="#59D9AA" id="PAA" d="M96 301h1l1-1c0-5.572 1-12.756 1-19l-2-2c-2.968 0-4.633-4-7-4h-2l-2.5 4c-1.634 1.634-7.5 11.78-7.5 14 1.562 0 10.831 7 17 7l1 1Z"/><path fill="#E64438" id="HY" d="M219 275c-1.747 0-2 .253-2 2l2-2Z"/><path fill="#59D9AA" id="PAA" d="m359 300 1 1c2.857 0 19-5.799 19-9-1.422 0-10-15.091-10-17h-2c-2.917 0-4.016 4-8 4l-2 4v14.5l2 2.5Z"/><path fill="#E64438" id="HY" d="M217 277c-1.747 0-2 .253-2 2l2-2Z"/><path fill="#99D2BD" id="OLF" d="m100 279-1 2-2-2h3Z"/><path fill="#E64438" id="HY" d="M215 279c-1.747 0-2 .253-2 2l2-2Z"/><path fill="#99D2BD" id="OLF" d="m359 279-2 4v-4h2Z"/><path fill="#E64438" id="HY" d="M213 281c-1.238 0-3 .423-3 2 1.238 0 3-.423 3-2ZM205 284l3 3 2-4-5 1ZM253 283l-1 1 1-1ZM207 289h1v-1l-1 1Z"/><path fill="#F1473A" id="ME" d="M240 291c0 8.394-23 7.738-23 1v-1c0-3.984 3.93-1 6-1l2 1h7l2-1c1.146 0 6-2.893 6 1Z"/><path fill="#E64438" id="HY" d="m223 290 2 1-1-2-1 1ZM234 290l-2 1v-2l2 1ZM248 289l-1 1 1-1ZM217 291v1l-1-1h1Z"/><path fill="#99D2BD" id="OLF" d="m95 300 1 1-1-1ZM97 301h1v-1l-1 1ZM358 301h2l-1-1-1 1Z"/></svg>