<svg xmlns="http://www.w3.org/2000/svg" viewBox="0 0 456 320"><path fill="#FEFA90" id="DEC" d="M175 97c1.982 0 0-5.017 0-6.5 0-4.737.441-5.47 4.5-7.5l23-8c.469 0 8.5-3.689 8.5-1.5l-6.5 2.5c-5.932 2.966-12.962 3.98-19 7l-2.5 4.5-4 5c-4.269 8.538 5.315 20.629 8 26 2.4 4.799 13.342 4.421 17.5 6.5 7.312 3.656 15.722 4.361 23 8 1.061.53 21.766-6.883 24-8 5.586-2.793 14.296-1.092 17.5-7.5l4-3c2.292-4.583 7.056-16.888 4-23-6.284-12.567-20.544-13.022-31.5-18.5-3.802-1.901-11.176 1.412-14 0-2.16-1.08-12.279 0-15.5 0l-5-.5 22.5-1.5c3.459 1.73 8.652-.674 12 1 7.603 3.802 16.314 5.157 24 9 3.018 1.509 9.638.777 11.5 4.5 2.132 4.264 0 8.72 0 13.5l2-3.5c1.203-2.405 4-10.002 4-12.5l1-1c0-1.735 1.012-11 3-11 0-3.54-19.401-10.45-22.5-12-19.534-9.767-61.443-9.779-81 0-2.701 1.35-21.5 8.898-21.5 11l3 13v1l1 1c0 1.398 3.973 12 5 12Z"/><path fill="#FDFB8F" id="SIM" d="M162 73c3.28 0 4.271 10 7 10l-3-13-4 3Z"/><path fill="#FCFC90" id="ANcr1" d="M175 97c0 4.69-2.466 19-8 19l-12.5-11c-10.266-5.133-20.226-17-33.5-17 0-3.515 2.57-5.07 5-7.5 4.579-4.579 22.466-13.017 29.5-9.5l6.5 2c3.28 0 4.271 10 7 10v1l1 1c0 1.398 3.973 12 5 12Z"/><path fill="#CBC9CC" id="arb" fill-rule="evenodd" d="m296 176 1 2 13.5 9-12.5-12.5-16-23-8-7.5c-.721 0-21.548-10.976-13.5-15 1.619-.809 1.471-2 3.5-2 0-2.764 8.761-4 11-4 20.879 0 34.001 13.501 49 28.5 4.439 4.439 12.63 11.26 15 16 .667 1.334.935 4.717 2.5 5.5.859.429 3.948-3.605 3.5-4.5l-27-29c-1.517-3.034-8-4.423-8-8.5-5.199 0 3.638-5.931 7.5-4 5.39 2.695 13.703-.648 19 2 1.908.954 13.247 3.995 12.5 2.5l-4-3c-.884-1.769-1.487-6.494-3.5-7.5-1.062-.531-7.333 3.167-9 4-5.488 2.744-24.732.134-29-2-2.417-1.209-14.5-3.486-14.5-7-3.82 0-8-14.089-8-17 0-4.78 2.132-9.236 0-13.5-1.862-3.723-8.482-2.991-11.5-4.5-7.686-3.843-16.397-5.198-24-9-3.348-1.674-8.541.73-12-1L211 72.5l5 .5c3.221 0 13.34-1.08 15.5 0 2.824 1.412 10.198-1.901 14 0 10.956 5.478 25.216 5.933 31.5 18.5 3.056 6.112-1.708 18.417-4 23l-4 3c-3.204 6.408-11.914 4.707-17.5 7.5-2.234 1.117-22.939 8.53-24 8-7.278-3.639-15.688-4.344-23-8-4.158-2.079-15.1-1.701-17.5-6.5-2.685-5.371-12.269-17.462-8-26l4-5 2.5-4.5c6.038-3.02 13.068-4.034 19-7l6.5-2.5c0-2.189-8.031 1.5-8.5 1.5l-23 8c-4.059 2.03-4.5 2.763-4.5 7.5 0 1.483 1.982 6.5 0 6.5 0 4.69-2.466 19-8 19 0 4.447-11.836 5.668-14.5 7-4.382 2.191-23.316 4.842-29 2l-8-4c-2.456 1.228-3.675 6.675-6 9l-2.5 2.5c0 .301 11.175-2.838 12.5-3.5 2.625-1.313 25.834-2.083 28-1 1.603.802-.5 2.153-.5 3l-26.5 28c-2.217 2.217-10.317 7.866-8.5 11.5l2.5 2.5 4.5-7.5 14-15c13.906-13.906 27.862-27.5 48-27.5 2.239 0 11 1.236 11 4 2.893 0 1.781 1.14 3.5 2 7.983 3.992-9.688 14-12.5 14l-8.5 9c-6.124 6.124-10.006 16.006-16.5 22.5l-8.5 9.5c1.207.603 7.043-5 9.5-5 0-1.238.423-3 2-3 0-5.741 14.799-13.149 18.5-15h4c4.736-2.368 11.47.265 16-2 6.47-3.235 16.585 1.207 23-2l7-2c4.028 2.014 9.042 1.021 13 3 6.211 3.106 21.073-1.463 28 2l6 1c3.312 1.656 19.5 11.59 19.5 15m-114-23c0 2.337 13.285 3.108 15.5 2 5.149-2.574 41.49-3.755 47-1 4.15 2.075 10.737-1.131 15 1 2.096 1.048 14.5.562 14.5-2 2.216 0 .348-3-1-3 0-9.167-14.619-8.559-19.5-11-8.844-4.422-46.518-3.241-55 1-4.165 2.082-15.5 3.541-15.5 11l-1 2Z"/><path fill="#FDFB8F" id="SIM" d="M294 72c0 1.508-4.661 10-6 10 0-1.735 1.012-11 3-11l3 1Z"/><path fill="#FCFC90" id="ANcr1" d="M281 99c0 2.911 4.18 17 8 17l12.5-11c11.023-5.512 20.311-17 33.5-17 0-3.202-.63-5.065-4.5-7l-5-5c-10.318-5.16-21.147-4-31.5-4 0 1.508-4.661 10-6 10l-1 1c0 2.498-2.797 10.095-4 12.5l-2 3.5Z"/><path fill="#FDFB8F" id="SIM" d="m288 82-1 1 1-1ZM169 84l1 1-1-1Z"/><path fill="#FCFA91" id="ANcr2" fill-rule="evenodd" d="M105 133c0 2.091 3.746 0 0 0m42-2-46.5 23c-1.8.9-13.5 4.456-13.5 6-1.55 0-3.55 1-4.5 1-8.41 0-7.493-19.513-5.5-23.5 8.361-16.722 12.858-35.179 31.5-44.5 3.917-1.959 7.85-5 12.5-5 13.274 0 23.234 11.867 33.5 17l12.5 11c0 4.447-11.836 5.668-14.5 7-4.382 2.191-23.316 4.842-29 2l-8-4c-2.456 1.228-3.675 6.675-6 9l-2.5 2.5c0 .301 11.175-2.838 12.5-3.5 2.625-1.313 25.834-2.083 28-1 1.603.802-.5 2.153-.5 3ZM350 133c0 1.93 1.93 0 0 0m-40-2 13.5 7c10.486 5.243 21.57 9.785 32 15 3.867 1.933 10.165 7 14.5 7l3.5 1c8.815 0 7.925-19.65 5.5-24.5-10.248-20.495-12.723-34.112-35.5-45.5-2.547-1.273-5.497-3-8.5-3-13.189 0-22.477 11.488-33.5 17L289 116c0 3.514 12.083 5.791 14.5 7 4.268 2.134 23.512 4.744 29 2 1.667-.833 7.938-4.531 9-4 2.013 1.006 2.616 5.731 3.5 7.5l4 3c.747 1.495-10.592-1.546-12.5-2.5-5.297-2.648-13.61.695-19-2-3.862-1.931-12.699 4-7.5 4Z"/><path fill="#FFFB8E" id="PRM" d="M128 194c-.462 0-10 8.839-10 9-9.058 0-24.636-11.771-29-20.5-2.41-4.821-3.614-10.227-6-15-1.522-3.044 4-5.993 4-7.5 0-1.544 11.7-5.1 13.5-6l46.5-23-26.5 28c-2.217 2.217-10.317 7.866-8.5 11.5l2.5 2.5 4.5-7.5 14-15c13.906-13.906 27.862-27.5 48-27.5l1 8c-14.833 0-39.017 34.533-45 46.5-2.694 5.389-9 10.155-9 16.5ZM328 194l11 9c17.352 0 27.763-21.026 34-33.5 2.014-4.028-3-6.698-3-9.5-4.335 0-10.633-5.067-14.5-7-10.43-5.215-21.514-9.757-32-15l-13.5-7c0 4.077 6.483 5.466 8 8.5l27 29c.448.895-2.641 4.929-3.5 4.5-1.565-.783-1.833-4.166-2.5-5.5-2.37-4.74-10.561-11.561-15-16-14.999-14.999-28.121-28.5-49-28.5v8c6.494 0 11.007 7.253 16.5 10 7.446 3.723 24.571 28.643 29.5 38.5 2.312 4.623 7 9.037 7 14.5Z"/><path fill="#FDFB90" id="FOTU" d="m192 127-10 4-1-8c2.239 0 11 1.236 11 4ZM264 127l11 4v-8c-2.239 0-11 1.236-11 4Z"/><path fill="#FBFC91" id="PYR" d="m182 131 1 12c2.812 0 20.483-10.008 12.5-14-1.719-.86-.607-2-3.5-2l-10 4ZM275 131c0 3.823-1 8.586-1 13-.721 0-21.548-10.976-13.5-15 1.619-.809 1.471-2 3.5-2l11 4Z"/><path fill="#FFF990" id="COPY" fill-rule="evenodd" d="M145 186c0 1.93 1.93 0 0 0m1-1c0 1.93 1.93 0 0 0m1-1c0 2.091 3.746 0 0 0m-4 15h1l1-1 1-1c1.57 0 13-13.539 13-14l1-2-1-2c-2.457 0-8.293 5.603-9.5 5l8.5-9.5c6.494-6.494 10.376-16.376 16.5-22.5l8.5-9-1-12c-14.833 0-39.017 34.533-45 46.5-2.694 5.389-9 10.155-9 16.5l5.5 7h7.5l2-2Z"/><path fill="#FFF990" id="COPY" d="M328 194c-.435 0-3.652 6.076-5.5 7-3.503 1.752-6.921-2-9.5-2-4.297 0-14.364-16-16-16v-5l13.5 9-12.5-12.5-16-23-8-7.5c0-4.414 1-9.177 1-13 6.494 0 11.007 7.253 16.5 10 7.446 3.723 24.571 28.643 29.5 38.5 2.312 4.623 7 9.037 7 14.5Z"/><path fill="#CBC9CC" id="arb" d="M105 133c0 2.091 3.746 0 0 0ZM350 133c0 1.93 1.93 0 0 0Z"/><path fill="#FBFC91" id="PYR" d="m183 151 7.5-4c4.823-2.412 11.163-1.582 16-4H220c8.938 0 34.219-1.14 40.5 2 3.182 1.591 9.815 6 12.5 6v-1c0-9.167-14.619-8.559-19.5-11-8.844-4.422-46.518-3.241-55 1-4.165 2.082-15.5 3.541-15.5 11Z"/><path fill="#FFFA8F" id="UVU" d="M182 153c0 2.337 13.285 3.108 15.5 2 5.149-2.574 41.49-3.755 47-1 4.15 2.075 10.737-1.131 15 1 2.096 1.048 14.5.562 14.5-2l-1-2c-2.685 0-9.318-4.409-12.5-6-6.281-3.14-31.562-2-40.5-2h-13.5c-4.837 2.418-11.177 1.588-16 4l-7.5 4-1 2Z"/><path fill="#FFF990" id="COPY" d="m273 151 1 2c2.216 0 .348-3-1-3v1ZM183 151l-1 2 1-2Z"/><path fill="#FFFA8F" id="UVU" d="M205 189c7.396 0 29.244 5.628 36.5 2 2.719-1.359 6.26-2 9.5-2 0-13.018 25.196-15.652 34.5-11 3.465 1.733 7.275-2 10.5-2 0-3.41-16.188-13.344-19.5-15l-6-1c-6.927-3.463-21.789 1.106-28-2-3.958-1.979-8.972-.986-13-3l-7 2c-6.415 3.207-16.53-1.235-23 2-4.53 2.265-11.264-.368-16 2h-4c-3.701 1.851-18.5 9.259-18.5 15 2.776 0 6.446 3.527 9.5 2 9.828-4.914 34.5-2.222 34.5 11Z"/><path fill="#FDFC8F" id="NOD" d="M161 182c3.824 0 11.409-3.045 15.5-1 3.799 1.899 24.638 8 28.5 8 0-13.222-24.672-15.914-34.5-11-3.054 1.527-6.724-2-9.5-2-1.577 0-2 1.762-2 3l1 2 1 1ZM295 182c-3.701 0-11.448-3.026-15.5-1-5.551 2.775-22.38 8-28.5 8 0-13.018 25.196-15.652 34.5-11 3.465 1.733 7.275-2 10.5-2l1 2v3l-2 1Z"/><path fill="#F0F080" id="CB" d="m161 182-2 1 1-2 1 1ZM295 182l2 1v-2l-2 1Z"/><path fill="#CBC9CC" id="arb" d="M147 184c0 2.091 3.746 0 0 0ZM146 185c0 1.93 1.93 0 0 0ZM145 186c0 1.93 1.93 0 0 0Z"/><path fill="#FF9BCD" id="MY" d="m166 187-1 1 1-1Z"/><path fill="#FFA2D2" id="ECU" d="M181 192c0 2.959-2.746 7-6 7-11.897 0-13 1.468-13-10h1l1-1h1l1-1h6c0 1.997 9 2.015 9 5Z"/><path fill="#FF9BCD" id="MY" d="M202 198c0-4.651-10.156 2-12 2l2-3 3-.5 2-1c1.907-3.814-9-4.511-9-2.5l-7-1c0-2.985-9-3.003-9-5 8.557 0 24.389 2.445 31.5 6 1.625.813 8.5-.67 8.5 2 0 .586-8.833 3-10 3ZM254 198c0-4.594 11.03 2 13 2l-3-3h-2.5c-8.144-4.072 7.5-6.864 7.5-4l6-1 10-5c-9.959 0-23.085 1.793-31.5 6-1.777.888-8.5-1.281-8.5 2 0 .795 7.779 3 9 3Z"/><path fill="#FFA2D2" id="ECU" d="M282 199h9c0-.974 4.219-2.937 5-4.5 1.27-2.541-2-3.709-2-5.5h-1l-2-2h-6l-10 5c0 2.934 3.548 7 7 7Z"/><path fill="#FF9BCD" id="MY" d="m291 187 2 2-2-2ZM164 188l-1 1 1-1ZM134 217l-5 4c0-6.73 25.96-32 33-32 0 11.468 1.103 10 13 10 0 6.645 3.02 6 9 6l1 2c0 2.356-6 4.469-6 8-.959 0-7.174-13-16-13l3-1.5c0-3.28-12-3.616-12-.5-6.791 0-20 9.268-20 17ZM322 217l6 5c0-7.203-26.18-33-34-33 0 1.791 3.27 2.959 2 5.5-.781 1.563-5 3.526-5 4.5 1.735 0 11-2.894 11 1h1l1 1c7.782 0 11.436 7.468 16.5 10 .869.434 3.532 6 1.5 6Z"/><path fill="#FDA5D0" id="CU" d="M189 201c-2.813 0-3.461 4-5 4-5.98 0-9 .645-9-6 3.254 0 6-4.041 6-7l7 1 4 4-2 3-1 1Z"/><path fill="#FEB1D9" id="SPIV" d="m188 193 4 4 3-.5 2-1c1.907-3.814-9-4.511-9-2.5ZM269 193l-5 4h-2.5c-8.144-4.072 7.5-6.864 7.5-4Z"/><path fill="#FDA5D0" id="CU" d="m267 200 6 6c5.076 0 9-1.361 9-7-3.452 0-7-4.066-7-7l-6 1-5 4 3 3Z"/><path fill="#F0F080" id="CB" d="M141 201c0 5.634-17.364 2-23 2 0-.161 9.538-9 10-9l5.5 7h7.5ZM313 199c0 8.061 20.097 4 26 4l-11-9c-.435 0-3.652 6.076-5.5 7-3.503 1.752-6.921-2-9.5-2Z"/><path fill="#FDA5D1" id="NTS" d="M199 220h1c0-1.302 4-2.641 4-5 0-10.836 17-15.439 17-3 1.84 0 6 3.14 6-1 0-4.566-8-10.087-8-14l-1-1h-1l-1-1h-4c0 .586-8.833 3-10 3 0 .908-14.518 9-17 9 0 2.356-6 4.469-6 8v1l1 1v2l4 1h15Z"/><path fill="#FF9BCD" id="MY" d="m216 195 1 1-1-1ZM241 195l-2 1 2-1Z"/><path fill="#FDA5D1" id="NTS" d="M258 220h15l3-1 1-1v-3c0-4.078-6-7.703-6-8-6.764 0-11.017-9-17-9-1.221 0-9-2.205-9-3h-4l-2 1-2 1c0 3.328-8 12.293-8 14 0 4.249 5.092 1 7 1 0-12.229 16-8.012 16 3l4 5h2Z"/><path fill="#FFB2D6" id="PAS" d="m184 205 1 2c2.482 0 17-8.092 17-9 0-4.651-10.156 2-12 2l-1 1c-2.813 0-3.461 4-5 4Z"/><path fill="#FF9BCD" id="MY" d="m218 196 1 1-1-1ZM239 196l-2 1 2-1Z"/><path fill="#FFB2D6" id="PAS" d="m273 206-2 1c-6.764 0-11.017-9-17-9 0-4.594 11.03 2 13 2l6 6Z"/><path fill="#F0F080" id="CB" d="m146 197-1 1 1-1Z"/><path fill="#AAA9A7" id="V4" d="M227 211h2c0-1.707 8-10.672 8-14h-18c0 3.913 8 9.434 8 14Z"/><path fill="#F0F080" id="CB" d="m145 198-1 1 1-1Z"/><path fill="#C8CACA" id="sptV" d="M157 204h1l3-1 2-1 3-1.5c0-3.28-12-3.616-12-.5 7.674 0 3 1.539 3 4ZM298 204l6 3c0-2.048-11.658-7-2-7 0-3.894-9.265-1-11-1 0 3.239 5 1.456 5 4h1l1 1Z"/><path fill="#F0F080" id="CB" d="m143 199-2 2c1.747 0 2-.253 2-2Z"/><path fill="#FF9BCD" id="MY" d="M271 207c0 .297 6 3.922 6 8l8.5-11c4.373-2.186 5.912-1 10.5-1 0-2.544-5-.761-5-4h-9c0 5.639-3.924 7-9 7l-2 1Z"/><path fill="#FDA3D1" id="Pa5" d="M147 211c-4.729 0-8.441 6-13 6 0-7.732 13.209-17 20-17 7.674 0 3 1.539 3 4l-1 1h-1l-1 1-1 1h-1l-1 1-1 1h-1l-1 1-1 1Z"/><path fill="#FF9BCD" id="MY" d="m190 200-1 1 1-1Z"/><path fill="#FDA3D1" id="Pa5" d="M308 209c2.764 0 9.082 8 14 8 2.032 0-.631-5.566-1.5-6-5.064-2.532-8.718-10-16.5-10l-1-1h-1c-9.658 0 2 4.952 2 7l2 1 1 1h1Z"/><path fill="#C8CACA" id="sptV" d="m303 200 1 1-1-1Z"/><path fill="#FF9BCD" id="MY" d="m163 202-2 1 2-1Z"/><path fill="#FDA5D2" id="SPVI" d="M142 269h7c7.755 0 6.954-22.408 10-28.5 3.944-7.889 21-8.664 21-18.5v-5l-1-1v-1c-.959 0-7.174-13-16-13l-2 1-3 1-1 1h-2l-1 1-1 1h-1l-1 1-1 1h-1l-1 1-1 1c0 2.192-9.058 10-11 10l-1 1-1 1-1 1-1 2-1 1v1l-1 1v1l-1 1-1 12v4l1 5 1 1 1 5 1 1v1l1 1v1c1.577 0 2 1.762 2 3l2 2 1 1 4 1ZM314 269h3l1-1 4-4 1-1v-1l1-1v-1l1-1 1-5 1-1v-2l1-1v-2l1-1v-6l-1-1-1-10-1-1-1-3-2-2-1-1-1-1-10-9-4-4h-1l-2-2-6-3-1-1h-1c-4.588 0-6.127-1.186-10.5 1l-8.5 11v3l-1 1 1 4c0 6.04 18.434 13.369 22 20.5 3.368 6.735-1.674 25.5 9 25.5h6Z"/><path fill="#FF9BCD" id="MY" d="m297 203 1 1-1-1Z"/><path fill="#C8CACA" id="sptV" d="M156 205h1v-1l-1 1Z"/><path fill="#FF9BCD" id="MY" d="m158 204-1 1v-1h1Z"/><path fill="#FDB1D8" id="DMX" d="M214 214h1c0-.675 5.294-2 6-2 0-12.439-17-7.836-17 3l10-1ZM243 214l9 1c0-11.012-16-15.229-16-3 0 2.496 5-.496 5 2h2Z"/><path fill="#C8CACA" id="sptV" d="m155 205-1 1 1-1Z"/><path fill="#FF9BCD" id="MY" d="m154 206-1 1 1-1ZM152 207l-1 1 1-1ZM306 208v1l-2-2 2 1ZM151 208l-1 1 1-1Z"/><path fill="#C8CACA" id="sptV" d="M306 209h1l-1-1v1ZM149 209l-1 1 1-1Z"/><path fill="#FF9BCD" id="MY" d="m308 209 3 4-4-4h1Z"/><path fill="#C8CACA" id="sptV" d="M312 274c1.004 0 4-2.31 4 1 1.947 0 2.636-3 5-3l1-1 1-1 1-1 1-1c0-1.238.423-3 2-3v-1l1-1 1-2v-1l1-2c0-1.048-.473-3 1-3l1-10v-7l-1-8v-1l-2-4v-1l-1-1v-1l-6-5c-4.918 0-11.236-8-14-8l3 4 10 9 1 1 1 1 2 2 1 3 1 1 1 10 1 1v6l-1 1v2l-1 1v2l-1 1-1 5-1 1v1l-1 1v1l-1 1-4 4-1 1h-3c0 1.087-2 2.433-2 5ZM148 210l-1 1 1-1ZM145 274c-2.061 0-4-2.431-4 1-4.99 0-13.418-15-14-15v-1c0-5.655-3-13.68-3-22l1-2v-5l1-2 1-2v-1l1-2 1-2 5-4c4.559 0 8.271-6 13-6 0 2.192-9.058 10-11 10l-1 1-1 1-1 1-1 2-1 1v1l-1 1v1l-1 1-1 12c-1.535 0-1.535 4 0 4l1 5 1 1 1 5 1 1v1l1 1v1l2 3 2 2 1 1 4 1c0 1.353 3 2.158 3 5Z"/><path fill="#FF9BCD" id="MY" fill-rule="evenodd" d="M241 287c0 1.468-6.847 1.806-5 5.5 2.166 4.331 9.251 5.5 13.5 5.5 1.163 0 5.5.549 5.5-1.5 0-1.129-11.824-9.5-14-9.5m-15-48 .5 8c.605 0 1.327-8-.5-8m3-1v6c0 8.862 4.656-6 0-6m0 55c0 2.816 7.178 2.839 9.5 4 6.83 3.415 26.687 4.656 34 1 2.015-1.008 12.5 1.084 12.5-2-10.329 0 8-4.459 8-7h-4c-10.013 0-12.538 13.425-22-5.5l-6-7.5c-15.025 0-20.15-20.8-25-30.5-2.202-4.404 3-6.153 3-8.5-2.708 0-4-1.119-4-4h-5.5l-.5-7.5c0-8.046 4.179-11.5 12-11.5 0-2.496-5 .496-5-2-1.908 0-7 3.249-7-1h-2c0 4.14-4.16 1-6 1-.706 0-6 1.325-6 2 3.047 0 5.982-.259 8.5 1 2.986 1.493 10.39 18-2.5 18 0 2.343-.285 4-3 4 0 2.456 4.795 3.911 3 7.5-4.978 9.956-10.674 31.5-26 31.5l-4 5.5c-10.849 21.698-12.023 7.5-24 7.5h-3c0 4.071 11 3.117 11 6.5 0 1.349-6.036-.268-6.5-.5-3.329-1.664-9.5-4.13-9.5-8 0-1.811-5.316-4-1-4 0-1.366-3-3.095-3-9-3.313 0-6-1.457-6-5h-7c0 1.353 3 2.158 3 5 0 3.205 12.703 7.093 10 12.5-.594 1.188-2.811-.155-3.5-.5L141 275c-4.99 0-13.418-15-14-15 0 5.694 8.442 14.471 13.5 17l6 6c6.705 3.353 12.381 8.69 19 12 9.172 4.586 23.551.775 32 5 6.248 3.124 19.284-1.642 24-4 1.428-.714 6.5-.622 6.5-3-4.788 0-2-5.558-2-8l-4.5 2c-2.059 0-12.5-3.335-12.5 2-3.138 0-5.817 4.659-8.5 6-1.102.551-6.123-1.254-5.5-2.5 1.743-3.486 25-14.458 25-19.5-7.527 0 1.592-9.685 3-12.5l1-5 3-.5c2.279 0-.03-5 1.5-5l.5 6 2.5-1c1.919.96.841 2.182 1.5 3.5l7 13c0 1.689-3.011 1.5-4 1.5 0 5.539 22.625 14.75 25 19.5.623 1.246-4.398 3.051-5.5 2.5l-5.5-4.5c-7.978-7.978-12.7-2.1-15.5-3.5l-4.5-2c0 1.293 3.155 8-1 8m-20-4-7 8.5c3.375 6.75 30.901-10.5 12.5-10.5l-5.5 2Z"/><path fill="#FF9BCD" id="MY" d="m211 228-1 2c0-4.346-5.981-10-10-10 0-1.302 4-2.641 4-5l10-1-5 2.5c-1.973 3.945 2 8.292 2 11.5Z"/><path fill="#FEB1D7" id="XII" d="M211 228c1.291 0 5.074 5 10 5 12.89 0 5.486-16.507 2.5-18-2.518-1.259-5.453-1-8.5-1h-1l-5 2.5c-1.973 3.945 2 8.292 2 11.5Z"/><path fill="#FEB1D7" id="XII" d="M245 229c-3.099 0-5.883 4-10 4h-5.5l-.5-7.5c0-8.046 4.179-11.5 12-11.5h2c0 2.205 3.251.002 4 1.5 2.21 4.42-2 9.93-2 13.5Z"/><path fill="#FF9BCD" id="MY" d="M245 229h1c3.255 0 4.624-9 10-9l-4-5-9-1c0 2.205 3.251.002 4 1.5 2.21 4.42-2 9.93-2 13.5ZM179 216l1 1-1-1ZM277 218l-1 1 1-1ZM184 220l-4 2v-3l4 1Z"/><path fill="#FCB3D9" id="PARN" d="M165 271c-2.342 0-10 .131-10 3-3.313 0-6-1.457-6-5 7.755 0 6.954-22.408 10-28.5 3.944-7.889 21-8.664 21-18.5l4-2h15v1l-1 1-23 36.5c-2.115 4.229-10 7.555-10 12.5ZM292 271c2.157 0 9 .46 9 3 2.818 0 7-1.699 7-5-10.674 0-5.632-18.765-9-25.5-3.566-7.131-22-14.46-22-20.5l-4-3h-15v1c0 4.313 5.196 6.891 7 10.5 5.013 10.027 12.958 18.915 18 29 1.212 2.423 9 6.913 9 10.5Z"/><path fill="#FF9BCD" id="MY" d="m273 220 4 3-1-4-3 1ZM200 220l-1 1v-1h1Z"/><path fill="#FFB2D8" id="IRN" fill-rule="evenodd" d="M179 271c0 3.772-9.387 1.273-8-1.5 6.081-12.163 14.159 1.5 8 1.5m-14 0 3 2.5c9.838 9.838 10.512-2.5 17-2.5l1-1 1-1 6-6.5c2.554-5.108 8.714-17.107 13.5-19.5l4.5-6v-3l-1-4c0-4.346-5.981-10-10-10l-1 1-1 1-23 36.5c-2.115 4.229-10 7.555-10 12.5ZM269 269c4.924 0 8.797 11.352 15.5 8l3-3 4.5-3c0-3.587-7.788-8.077-9-10.5-5.042-10.085-12.987-18.973-18-29-1.804-3.609-7-6.187-7-10.5l-1-1h-1c-5.376 0-6.745 9-10 9l-1 6v2c1.915 0 16.584 21.668 18 24.5l6 7.5m8-3c0-2.735 10.554.392 8 5.5-3.193 6.385-14.628-5.5-8-5.5Z"/><path fill="#FF9BCD" id="MY" d="M258 220v1l-1-1h1ZM129 221l-1 2 1-2ZM136 221l-1 1 1-1ZM199 221l-1 1 1-1ZM321 222l1 1-1-1ZM128 223l-1 2 1-2ZM134 223l-1 1 1-1ZM328 223l1 1-1-1ZM323 224l2 2-2-2ZM329 225l2 4-2-4ZM127 226l-1 2 1-2ZM132 226l-1 1 1-1ZM126 228l-1 2 1-2ZM131 228l-1 1 1-1Z"/><path fill="#FFB1D9" id="NR" d="M215 237h3c2.715 0 3-1.657 3-4-4.926 0-8.709-5-10-5l-1 2 1 4 4 3ZM239 237h3c0-1.577 1.762-2 3-2l1-6h-1c-3.099 0-5.883 4-10 4 0 2.881 1.292 4 4 4Z"/><path fill="#FF9BCD" id="MY" d="m326 229 1 1-1-1ZM130 230l-1 1 1-1ZM332 238h1c0-1.775-.069-8-2-8l1 8ZM124 235h1v-4c-1.579 0-1 2.855-1 4ZM211 237h4l-4-3v3Z"/><path fill="#C9C9C8" id="icp" d="M124 236v1l1-2h-1v1Z"/><path fill="#FF9BCD" id="MY" d="M242 237h3v-2c-1.238 0-3 .423-3 2ZM124 237c0 8.32 3 16.345 3 22-2.858 0-4-14.251-4-17.5 0-1.278-.665-5.5 1-5.5v1Z"/><path fill="#FFB1D6" id="MDRNv" d="M187 269c8.6 0 8-2.602 8 7 15.326 0 21.022-21.544 26-31.5 1.795-3.589-3-5.044-3-7.5h-7l-4.5 6c-4.786 2.393-10.946 14.392-13.5 19.5l-6 6.5ZM269 269c-6.564 0-8-1.282-8 7-15.025 0-20.15-20.8-25-30.5-2.202-4.404 3-6.153 3-8.5h6c1.915 0 16.584 21.668 18 24.5l6 7.5Z"/><path fill="#CBCBCC" id="mlf" d="M229 238v6c0 8.862 4.656-6 0-6Z"/><path fill="#C9C9C8" id="icp" d="M332 245h1v-7h-1v7Z"/><path fill="#CBCBCC" id="mlf" d="m226 239 .5 8c.605 0 1.327-8-.5-8Z"/><path fill="#FF9BCD" id="MY" d="m328 240 1 1-1-1ZM128 243c-1.535 0-1.535 4 0 4v-4ZM333 245c0 2.108.789 10-2 10l1-10h1ZM329 247l-1 1 1-1Z"/><path fill="#FEC6E2" id="RO" d="M228 264h1v-8l-.5-6c-1.53 0 .779 5-1.5 5v8l1 1Z"/><path fill="#FF9BCD" id="MY" d="m328 250-1 1 1-1ZM129 252l1 1-1-1ZM327 253l-1 1 1-1Z"/><path fill="#C8C8CC" id="tspc" d="M227 263c-4.504 0-3.798 10-7 10-7.527 0 1.592-9.685 3-12.5l1-5 3-.5v8ZM230 263c2.932 0 4.093 10 6 10 .989 0 4 .189 4-1.5l-7-13c-.659-1.318.419-2.54-1.5-3.5l-2.5 1v6l1 1Z"/><path fill="#FF9BCD" id="MY" d="M331 255c-1.473 0-1 1.952-1 3 1.473 0 1-1.952 1-3ZM131 258l1 1-1-1ZM330 258l-1 2 1-2ZM325 259l-1 1 1-1ZM132 260l1 1-1-1ZM324 261l-1 1 1-1ZM329 261l-1 2 1-2ZM133 262c1.577 0 2 1.762 2 3l-2-3ZM229 263h1l-1-1v1Z"/><path fill="#FFB3D8" id="IO" d="m226 285-4.5 2c-2.059 0-12.5-3.335-12.5 2-3.138 0-5.817 4.659-8.5 6-1.102.551-6.123-1.254-5.5-2.5 1.743-3.486 25-14.458 25-19.5 3.202 0 2.496-10 7-10l1 1v14l-1 1v5l-1 1ZM230 284v1l4.5 2c2.8 1.4 7.522-4.478 15.5 3.5l5.5 4.5c1.102.551 6.123-1.254 5.5-2.5-2.375-4.75-25-13.961-25-19.5-1.907 0-3.068-10-6-10h-1v20l1 1Z"/><path fill="#FF9BCD" id="MY" d="m323 263-1 1 1-1ZM328 263l-1 1 1-1ZM228 277h1v-13h-1v13Z"/><path fill="#FF9BCD" id="MY" fill-rule="evenodd" d="M179 271c0 3.772-9.387 1.273-8-1.5 6.081-12.163 14.159 1.5 8 1.5m0 0 1-3.5c0-1.435-3.531-1.984-4.5-1.5-4.456 2.228.72 5 3.5 5ZM277 266c0 10.54 10.54 0 0 0m0 0c0-2.735 10.554.392 8 5.5-3.193 6.385-14.628-5.5-8-5.5Z"/><path fill="#FF9BCD" id="MY" d="M327 265c-1.577 0-2 1.762-2 3 1.577 0 2-1.762 2-3Z"/><path fill="#FEB3D8" id="AMBv" d="m179 271 1-3.5c0-1.435-3.531-1.984-4.5-1.5-4.456 2.228.72 5 3.5 5ZM277 266c0 10.54 10.54 0 0 0Z"/><path fill="#FF9BCD" id="MY" d="m137 267 1 1-1-1Z"/><path fill="#FCB3D7" id="LRNm" d="M160 284c1.45 0 7 3.126 7 5 11.977 0 13.151 14.198 24-7.5l4-5.5c0-9.602.6-7-8-7l-1 1-1 1c-6.488 0-7.162 12.338-17 2.5l-3-2.5c-2.342 0-10 .131-10 3 0 5.905 3 7.634 3 9h1l1 1ZM297 284c-1.738 0-8 3.015-8 5-10.013 0-12.538 13.425-22-5.5l-6-7.5c0-8.282 1.436-7 8-7 4.924 0 8.797 11.352 15.5 8l3-3 4.5-3c2.157 0 9 .46 9 3l1 4.5c-1.014 2.029-3 2.271-3 4.5h-1l-1 1Z"/><path fill="#FF9BCD" id="MY" d="m318 268-1 1 1-1ZM325 268l-1 1 1-1Z"/><path fill="#FFB1D6" id="MDRNv" d="m187 269-1 1 1-1Z"/><path fill="#FF9BCD" id="MY" d="m299 283 2 1c3.435 0 6.802-10 11-10 0-2.567 2-3.913 2-5h-6c0 3.301-4.182 5-7 5l1 4.5c-1.014 2.029-3 2.271-3 4.5ZM324 269l-1 1 1-1Z"/><path fill="#FFB1D6" id="MDRNv" d="m186 270-1 1 1-1Z"/><path fill="#FF9BCD" id="MY" d="m323 270-1 1 1-1ZM322 271l-1 1 1-1ZM316 275c-1.098 0-5 4.251-5 6 2.022 0 10-6.758 10-9-2.364 0-3.053 3-5 3Z"/><path fill="#C9CACA" id="sctd" d="M145 274c-2.061 0-4-2.431-4 1l10.5 11c.689.345 2.906 1.688 3.5.5 2.703-5.407-10-9.295-10-12.5ZM303 287h1l1-1 1-1c0-1.811 3.438-4 5-4 0-1.749 3.902-6 5-6 0-3.31-2.996-1-4-1-4.198 0-7.565 10-11 10 0 2.003-.293 3 2 3Z"/><path fill="#FFC6E2" id="RPA" d="M228 293h1c4.155 0 1-6.707 1-8v-1l-1-1v-6h-1v1l-1 1v5l-1 1c0 2.442-2.788 8 2 8Z"/><path fill="#FF9BCD" id="MY" d="m228 278-1 1 1-1ZM311 281c-1.562 0-5 2.189-5 4 1.562 0 5-2.189 5-4Z"/><path fill="#C8C8CB" id="rust" d="M164 289h3c0-1.874-5.55-5-7-5l-1-1h-1c-4.316 0 1 2.189 1 4 1.624 0 2.75 2 5 2Z"/><path fill="#FF9BCD" id="MY" d="m159 283 1 1-1-1ZM229 283l1 1-1-1ZM298 283l-1 1 1-1Z"/><path fill="#C8C8CB" id="rust" d="M289 289h4l4-2c1.457 0 1.46-3 4-3l-2-1h-1l-1 1c-1.738 0-8 3.015-8 5Z"/><path fill="#FF9BCD" id="MY" d="m227 284-1 1 1-1ZM303 287c0 2.377-7.879 6-10 6 0-2.372 4-1.606 4-6 1.457 0 1.46-3 4-3 0 2.003-.293 3 2 3ZM306 285l-1 1 1-1ZM305 286l-1 1 1-1Z"/><path fill="#CBC7CC" id="sctv" d="M159 287c1.624 0 2.75 2 5 2 0 4.071 11 3.117 11 6.5 0 1.349-6.036-.268-6.5-.5-3.329-1.664-9.5-4.13-9.5-8Z"/><path fill="#C7C9C9" id="py" d="m209 289-7 8.5c3.375 6.75 30.901-10.5 12.5-10.5l-5.5 2ZM241 287c0 1.468-6.847 1.806-5 5.5 2.166 4.331 9.251 5.5 13.5 5.5 1.163 0 5.5.549 5.5-1.5 0-1.129-11.824-9.5-14-9.5Z"/><path fill="#CBC7CC" id="sctv" d="M288 295h1c0-2.109 2.535-2 4-2 0-2.372 4-1.606 4-6l-4 2c0 2.541-18.329 7-8 7 0-1.473 1.952-1 3-1Z"/><path fill="#FF9BCD" id="MY" d="M293 293c-1.465 0-4-.109-4 2l4-2ZM288 295c-1.048 0-3-.473-3 1 1.048 0 3 .473 3-1Z"/></svg>