<svg xmlns="http://www.w3.org/2000/svg" viewBox="0 0 456 320"><path fill="#187C64" id="SSp-tr1" d="M166 23h18v-6c-7.768 0-13.499 2-21 2 0 2.06.902 4 3 4Z"/><path fill="#1BA696" id="RSPagl1" d="M204 21h1l-1-4h-20v6c6.91 0 12.831-2 20-2Z"/><path fill="#1BA598" id="RSPd1" d="M223 43h10c0-10.371 7.941-22 19-22l1-4c-6.409 0-14.69 1.88-18 8.5l-5.5 6.5-1 3-1.5-3.5c-1.282-2.564-5.249-4.498-7-8-2.482-4.964-11.032-6.5-16-6.5l1 4c6.176 0 15.175 7.85 18 13.5V43Z"/><path fill="#1BA696" id="RSPagl1" d="M252 21c7.268 0 13.086 2 20 2l1-6h-20l-1 4Z"/><path fill="#187C64" id="SSp-tr1" d="M272 23h19l1-4c-6.568 0-11.951-2-19-2l-1 6Z"/><path fill="#187F60" id="SSp-ll1" d="m136 27 1 5c9.941 0 18.238-8 29-8v-1c-2.098 0-3-1.94-3-4-7.343 0-21.598 8-27 8ZM320 27l-1 5c-8.662 0-18.024-8-28-8v-1l1-4c3.537 0 22.606 4.553 25.5 6l2.5 2Z"/><path fill="#1AA496" id="RSPagl2/3" d="M204 31c-2.014 0-5.932-2.284-8.5-1L185 33c0-3.51-1-7.022-1-10 6.91 0 12.831-2 20-2v10Z"/><path fill="#1BA697" id="RSPd2/3" d="M223 43c-2.523 0-1.959 2-5 2 0-8.39-5.473-14-14-14V21h1c6.176 0 15.175 7.85 18 13.5V43ZM233 43l6 3c0-9.8 3.877-15 14-15v-1c-1.751 0-1-7.426-1-9-11.059 0-19 11.629-19 22Z"/><path fill="#1AA496" id="RSPagl2/3" d="M272 33v1l-5.5-3-13.5-1c-1.751 0-1-7.426-1-9 7.268 0 13.086 2 20 2v10Z"/><path fill="#188061" id="SSp-tr2/3" d="M174 35h1l10-2c0-3.51-1-7.022-1-10h-18v1c0 4.59 8 6.857 8 11ZM281 35h2c0-2.172 5.578-11 8-11v-1h-19v10c3.519 0 5.843 2 9 2Z"/><path fill="#187F64" id="SSp-ll2/3" d="M174 35c-10.249 0-27.087 10-34 10 0-3.862-3-8.51-3-12v-1c9.941 0 18.238-8 29-8 0 4.59 8 6.857 8 11ZM316 45h1c0-3.282 2-7.976 2-12v-1c-8.662 0-18.024-8-28-8-2.422 0-8 8.828-8 11 10.14 0 25.543 10 33 10Z"/><path fill="#197E64" id="SSp-ul1" d="M137 33c-5.22 0-9.091 5-14 5l-2-5 15-6 1 5v1ZM335 33c0 1.041-.986 5-2 5-5.04 0-8.556-5-14-5v-1l1-5c5.143 0 11.018 6 15 6Z"/><path fill="#1CA697" id="RSPagl5" d="M195 39h7l2-8c-2.014 0-5.932-2.284-8.5-1L185 33v7l10-1ZM261 39l11 1v-6l-5.5-3-13.5-1v1l1 8h7Z"/><path fill="#1AA596" id="RSPd5" d="M218 46c-4.198 0-7.565 10-11 10 0-2.603.875-11-3-11 0-2.066.942-6-2-6l2-8c8.527 0 14 5.61 14 14v1ZM251 47c-2.488 0-2 6.1-2 8-3.631 0-5.436-8-10-8v-1c0-9.8 3.877-15 14-15l1 8c0 1.03-2 3.29-2 6l-1 1v1Z"/><path fill="#1B8062" id="SSp-un1" d="m123 39-8 3c0-1.624-2-2.75-2-5l8-4 2 5v1Z"/><path fill="#197F61" id="SSp-ul2/3" d="M126 51h1c4.762 0 7.965-5 13-5v-1c0-3.862-3-8.51-3-12-5.22 0-9.091 5-14 5v1c0 3.49 3 8.138 3 12Z"/><path fill="#1B7E62" id="SSp-tr4" d="M176 38h1l8-4v-1l-10 2 1 3ZM279 38h1l1-3c-3.157 0-5.481-2-9-2v1l7 4Z"/><path fill="#197F61" id="SSp-ul2/3" d="M317 45c0 1.92 10.918 6 13 6 .573 0 3-10.704 3-12v-1c-5.04 0-8.556-5-14-5 0 4.024-2 8.718-2 12Z"/><path fill="#1B8062" id="SSp-un1" d="M341 43h1l1-6-8-4c0 1.041-.986 5-2 5v1l8 4Z"/><path fill="#197F60" id="SSp-tr5" d="M185 40c-2.015 0-3 4.16-3 6l-5-8 8-4v6ZM272 40c1.663 0 2 5.407 2 7 1.015 0 5-8.318 5-9l-7-4v6Z"/><path fill="#1C7F64" id="SSp-ll4" d="M140 46c0 1.564 1 3.876 1 6 8.298 0 26.002-14 35-14l-1-3h-1c-10.249 0-27.087 10-34 10v1ZM316 45l-1 7c-8.317 0-25.477-14-35-14l1-3h2c10.14 0 25.543 10 33 10Z"/><path fill="#188060" id="SSp-bfd1" d="M50 93c1.24 0 1.576 2 4 2 2.225 0 2.373-3.873 3.5-5L69 74.5c3.414-6.828 26.333-21.917 33.5-25.5 3.521-1.76 7.382-6 11.5-6l1-1c0-1.624-2-2.75-2-5-4.51 0-9.594 5.047-13.5 7C86.084 50.708 66.36 64.78 59 79.5c-2.14 4.28-9 8.53-9 13.5ZM407 93l-4 3-3.5-4c-2.477-2.477-6.778-10.057-8.5-13.5-5.123-10.247-26.619-24.06-35.5-28.5-4.254-2.127-8.479-7-13.5-7l1-6c5.573 0 10.742 5.62 15.5 8 12.685 6.342 30.09 18.68 36.5 31.5 1.888 3.775 12 12.852 12 16.5Z"/><path fill="#197C63" id="SSp-ll5" d="m141 52 3 12c8.75 0 31.279-13 38-13v-5l-5-8h-1c-8.998 0-26.702 14-35 14Z"/><path fill="#1F9D58" id="MOs5" d="M194 45h10c0-2.066.942-6-2-6h-7l-1 6ZM252 45h10l-1-6h-7c0 1.03-2 3.29-2 6Z"/><path fill="#197C63" id="SSp-ll5" d="M315 52c0 .701-1.756 12-3 12-7.531 0-31.588-13-37-13l-1-4c1.015 0 5-8.318 5-9h1c9.523 0 26.683 14 35 14Z"/><path fill="#1C7F63" id="SSp-un2/3" d="m126 51-8 4-3-12v-1l8-3c0 3.49 3 8.138 3 12Z"/><path fill="#1E9C5A" id="MOp5" d="M182 46v5l12-6 1-6-10 1c-2.015 0-3 4.16-3 6ZM274 51h1l-1-4c0-1.593-.337-7-2-7l-11-1 1 6 1 1c4.06 0 7.493 5 11 5Z"/><path fill="#1C7F63" id="SSp-un2/3" d="m330 52 8 2c1.648 0 3-8.958 3-11l-8-4c0 1.296-2.427 12-3 12v1Z"/><path fill="#1B8062" id="SSp-un1" d="M114 43h1v-1l-1 1Z"/><path fill="#1BA597" id="RSPv1" d="M229 83h1l3-1V43h-10v39l4 1c0-4.013 2-4.556 2 0Z"/><path fill="#187F63" id="SSp-bfd2/3" d="M62 103h1c0-5.7 17.273-28.887 23.5-32 6.346-3.173 12.65-6.825 19-10l12.5-6-3-12h-1c-4.118 0-7.979 4.24-11.5 6-7.167 3.583-30.086 18.672-33.5 25.5L57.5 90c-1.127 1.127-1.275 5-3.5 5v2l8 6Z"/><path fill="#1AA597" id="RSPv2/3" d="m219 81 4 1V43c-2.523 0-1.959 2-5 2v1c0 11.833 1 23.71 1 35ZM237 81l-4 1V43l6 3v1c0 11.713-2 22.851-2 34Z"/><path fill="#187F63" id="SSp-bfd2/3" d="M403 97c-3.726 0-5.376 6-9 6 0-5.251-6.737-9.974-9-14.5-6.955-13.91-22.298-21.399-34.5-27.5-3.929-1.964-7.845-6-12.5-6v-1c1.648 0 3-8.958 3-11h1c5.021 0 9.246 4.873 13.5 7 8.881 4.44 30.377 18.253 35.5 28.5 1.722 3.443 6.023 11.023 8.5 13.5l3.5 4v1Z"/><path fill="#1D9C5A" id="MOs6a" d="M191 64h1c0-1.643 3.765-1 5-1l6-10 1-2c.632 0 0-4.255 0-6h-10c0 6.281-3 12.113-3 19ZM259 63h6c0-6.332-2-11.194-2-17l-1-1h-10l-1 1v1c1.717 0 2 4.666 2 6 2.054 0 6 8.24 6 10Z"/><path fill="#1F9B5A" id="MOp6a" d="m185 67-4 1c0-5.866 1-10.244 1-17l12-6c0 6.281-3 12.113-3 19l-6 3Z"/><path fill="#1AA697" id="RSPd6a" d="M207 58c-2.349 0-1.382 3-4 3v-8l1-2c.632 0 0-4.255 0-6 3.875 0 3 8.397 3 11v2ZM252 45l-1 1 1-1Z"/><path fill="#1A7F63" id="SSp-ul4" d="M328 58h1l1-6v-1c-2.082 0-13-4.08-13-6h-1l-1 7 13 6ZM141 52l-13 6c0-1.819-1-4.59-1-7 4.762 0 7.965-5 13-5 0 1.564 1 3.876 1 6Z"/><path fill="#1BA498" id="RSPv5" d="M213 81h6c0-11.29-1-23.167-1-35-4.198 0-7.565 10-11 10v2l4 21 2 2Z"/><path fill="#1F9B5A" id="MOp6a" d="m265 64 10 4c0-7.054-1-11.756-1-17-3.507 0-6.94-5-11-5 0 5.806 2 10.668 2 17v1Z"/><path fill="#1BA498" id="RSPv5" d="M237 81h6l2-1c0-7.627 4-14.832 4-23v-2c-3.631 0-5.436-8-10-8 0 11.713-2 22.851-2 34Z"/><path fill="#1AA697" id="RSPd6a" d="m249 57 5 6-1-10c0-1.334-.283-6-2-6-2.488 0-2 6.1-2 8v2Z"/><path fill="#197E61" id="SSp-un4" d="M120 63h1c0-1.391 5.706-5 7-5 0-1.819-1-4.59-1-7h-1l-8 4 2 8Z"/><path fill="#1A7F64" id="SSp-ll6a" d="m155 77-6 1-5-13v-1c8.75 0 31.279-13 38-13 0 6.756-1 11.134-1 17-2.301 0-17.854 5.677-20.5 7-1.114.557-5.5.41-5.5 2Z"/><path fill="#3FA664" id="ACAd6a" d="m204 51-1 2 1-2Z"/><path fill="#1A7F64" id="SSp-ll6a" d="m275 68 32 10c0-4.243 5-8.271 5-13v-1c-7.531 0-31.588-13-37-13h-1c0 5.244 1 9.946 1 17Z"/><path fill="#187E62" id="SSp-ul5" d="M144 65c-5.035 0-8.238 5-13 5-1.087 0-3-9.36-3-12l13-6 3 12v1ZM325 70h1c0-4.922 2-8.523 2-12l-13-6c0 .701-1.756 12-3 12v1c4.922 0 8.542 5 13 5Z"/><path fill="#197E61" id="SSp-un4" d="m329 58 7 5c0-2.885 2-4.697 2-8v-1l-8-2-1 6Z"/><path fill="#3FA664" id="ACAd6a" d="m197 63 4 4c1.353 0 2-4.644 2-6v-8l-6 10ZM258 65l-3 2c-1.579 0-1-2.855-1-4l-1-10c2.054 0 6 8.24 6 10v1l-1 1Z"/><path fill="#197C64" id="SSp-bfd4" d="M71 103h1c0-3.972 7.277-7.053 9-10.5 4.337-8.675 18.96-17.23 27.5-21.5l11.5-8-2-8-12.5 6c-6.35 3.175-12.654 6.827-19 10C80.273 74.113 63 97.3 63 103h8ZM393 103h1c0-5.251-6.737-9.974-9-14.5-6.955-13.91-22.298-21.399-34.5-27.5-3.929-1.964-7.845-6-12.5-6 0 3.303-2 5.115-2 8l8.5 6c10.104 5.052 19.896 11.896 28.5 20.5l11 12.5c2.876 0 5.183 1 9 1Z"/><path fill="#1AA498" id="RSPv6a" d="m248 77-3 3c0-7.627 4-14.832 4-23l5 6c0 1.145-.579 4 1 4v1c-1.577 0-2 1.762-2 3-1.901 0-5 4.332-5 6Z"/><path fill="#197D62" id="SSp-un5" d="M131 71c-3.425 0-4.761 3-8 3l-2-11c0-1.391 5.706-5 7-5 0 2.64 1.913 12 3 12v1Z"/><path fill="#1AA498" id="RSPv6a" d="m209 78 2 1-4-21c-2.349 0-1.382 3-4 3 0 1.356-.647 6-2 6v1c2.115 0 8 8.185 8 10Z"/><path fill="#197D62" id="SSp-un5" d="M326 70c0 1.284 5.666 4 7 4 0-3.355 3-7.47 3-11l-7-5h-1c0 3.477-2 7.078-2 12Z"/><path fill="#1A7D62" id="SSp-bfd5" d="M87 102c-5.876 0-8.419 1-15 1 0-3.972 7.277-7.053 9-10.5 4.337-8.675 18.96-17.23 27.5-21.5l11.5-8h1l2 11v1c-3.623 0-25.282 15.782-28 18.5l-8 8.5Z"/><path fill="#1E9C58" id="MOs6b" d="m197 64-5 1v-1c0-1.643 3.765-1 5-1v1Z"/><path fill="#3FA466" id="ACAd6b" d="M201 67v1l-4-4v-1l4 4Z"/><path fill="#1E9C58" id="MOs6b" d="M265 64v1l-5-1h-1v-1h6v1Z"/><path fill="#1A7D62" id="SSp-bfd5" d="M371 103c0-2.578 2.58.46 3.5 0 2.89-1.445 6.069 0 9.5 0v-1l-11-12.5c-8.604-8.604-18.396-15.448-28.5-20.5l-8.5-6c0 3.53-3 7.645-3 11v1c5.551 0 23.111 15.806 29.5 19l6.5 8 2 1Z"/><path fill="#1D9D5A" id="MOp6b" d="M192 65c-2.16 0-4.167 2-7 2l6-3h1v1Z"/><path fill="#CACCC7" id="cing" d="M213 81v1c-7.978 0-14.621-7.56-21.5-11-3.815-1.908-16.938 5-21.5 5h-8c0-2.064 3.353-.426 4.5-1 2.032-1.016 14.5-4.065 14.5-6 1.465 0 4 .109 4-2 2.833 0 4.84-2 7-2l5-1 4 4c0 2.01 5.549 10 8 10l2 1 2 2Z"/><path fill="#3FA466" id="ACAd6b" d="m260 64-2 1 1-1h1Z"/><path fill="#CACCC7" id="cing" d="M243 81v1c7.845 0 15.856-7.678 22.5-11l19.5 4c2.389 0 5.987 1 9 1 0-1.266-19-5.098-19-7-1.368 0-10-2.74-10-4l-5-1-2 1c0 1.429-1.288 4-3 4 0 1.747-.253 2-2 2 0 1.668-3.099 6-5 6l-3 3-2 1Z"/><path fill="#1D9D5A" id="MOp6b" d="M275 68v1c-1.368 0-10-2.74-10-4v-1l10 4Z"/><path fill="#197D61" id="SSp-ul6a" d="M134 85h1c1.974 0 3.517-2 6-2 0-2.447 6.063-4 8-4v-1l-5-13c-5.035 0-8.238 5-13 5v1c0 4.957 3 8.809 3 14Z"/><path fill="#3FA466" id="ACAd6b" d="M255 68v1c1.712 0 3-2.571 3-4l-3 2v1Z"/><path fill="#197D61" id="SSp-ul6a" d="M307 79c5.601 0 9.763 6 15 6 0-5.711 3-9.42 3-15-4.458 0-8.078-5-13-5 0 4.729-5 8.757-5 13v1Z"/><path fill="#1D9D5A" id="MOp6b" d="M181 68v1c1.465 0 4 .109 4-2l-4 1Z"/><path fill="#197F62" id="SSp-ll6b" d="m162 76-7 1c0-1.59 4.386-1.443 5.5-2 2.646-1.323 18.199-7 20.5-7v1c0 1.935-12.468 4.984-14.5 6-1.147.574-4.5-1.064-4.5 1Z"/><path fill="#1AA497" id="RSPv6b" d="M201 68c2.115 0 8 8.185 8 10-2.451 0-8-7.99-8-10ZM255 69c0 1.747-.253 2-2 2 0-1.238.423-3 2-3v1Z"/><path fill="#197F62" id="SSp-ll6b" d="M307 79v1c-4.067 0-8.47-4-13-4 0-1.266-19-5.098-19-7v-1l32 10v1Z"/><path fill="#1A7F61" id="SSp-un6a" d="m322 86 7 5 4-16v-1c-1.334 0-7-2.716-7-4h-1c0 5.58-3 9.289-3 15v1ZM127 91h2c0-2.338 5-2.89 5-6 0-5.191-3-9.043-3-14-3.425 0-4.761 3-8 3v1c0 5.207 4 10.32 4 16Z"/><path fill="#C9C7C9" id="ccb" d="m384 174-4 1c0-25.068-34.478-74-62-74-1.712 0-3.252-8-7-8-7.785 0-15.693-9-24-9 0-2.489-5.033-2.267-6.5-3-10.108-5.054-17.648-.676-27 4-1.426.713-6.5 1.764-6.5 4l-4 1c-4.719 0-10.541.02-14.5 2-1.995.998-11.24-2-14.5-2-3.47 0-19.406-8.953-23.5-11-8.197-4.098-16.695 5-21.5 5-6.85 0-17.652 9-23 9l-1 1-2 1c-1.712 0-3 2.571-3 4l-2 2c-14.984 0-16.043 8.271-27.5 14-13.172 6.586-33.5 42.899-33.5 60l-4-1v-5l1-2v-1c1.473 0 1-1.952 1-3 1.995 0 2-4.377 2-6 1.473 0 1-1.952 1-3l1-2v-1c2.109 0 2-2.535 2-4l2-4c1.91 0 6-9.045 6-11l7.5-10c8.355-8.355 16.142-18.071 26-23 11.725-5.863 23.351-12.175 35-18 1.775-.888 12.5-3.093 12.5-5 4.562 0 17.685-6.908 21.5-5 6.879 3.44 13.522 11 21.5 11l7 3c1.048 0 3 .473 3-1 1.145 0 4 .58 4-1h3c0 1.473 1.952 1 3 1 0 1.535 4 1.535 4 0 1.623 0 6-.005 6-2 7.845 0 15.856-7.678 22.5-11l19.5 4c0 2.84 11.341 4.92 13.5 6l22 10c6.717 3.359 12.325 8.662 19 12 12.279 6.14 25.91 25.321 31.5 36.5l8 15.5v1c0 2.091 1.913 11 4 11v4l1 2v1Z"/><path fill="#1AA497" id="RSPv6b" d="M253 71c-1.901 0-5 4.332-5 6 1.901 0 5-4.332 5-6Z"/><path fill="#198060" id="SSp-bfd6a" d="m111 103-2 1c0-1.949-9.02-1-9.5-1l-2-2c-5.608 0-6.805 2-10.5 2v-1l8-8.5c2.718-2.718 24.377-18.5 28-18.5 0 5.207 4 10.32 4 16v1c-1.6 0-8 3.116-8 5-1.528 0-8 4.54-8 6Z"/><path fill="#C9C9CA" id="scwm" d="M365 125c0 8.29 14 20.283 14 30l-8-15.5c-5.59-11.179-19.221-30.36-31.5-36.5-6.675-3.338-12.283-8.641-19-12l-22-10c-2.159-1.08-13.5-3.16-13.5-6 2.389 0 5.987 1 9 1 4.53 0 8.933 4 13 4l14 6c0 2.604 5.93 6 8 6 0 2.232 16 9.228 16 12l1 1h1c0 2.291 12.204 11.909 14 15.5l4 4.5Z"/><path fill="#198060" id="SSp-bfd6a" d="M369 102c0 1.521-6.606-.447-7.5 0-2.012 1.006-11.097 2-14.5 2l-4-3.5-14-9.5 4-16c5.551 0 23.111 15.806 29.5 19l6.5 8Z"/><path fill="#C9C9CA" id="scwm" d="M89 129v3l7.5-10c8.355-8.355 16.142-18.071 26-23 11.725-5.863 23.351-12.175 35-18 1.775-.888 12.5-3.093 12.5-5h-8l-7 1-6 3c-2.892 0-4.781 3-8 3l-6 4c0 2.177-4.336 4-6 4l-2 2c0 1.54-6.3 4-8 4 0 2.423-5.418 6-8 6 0 1.747-.253 2-2 2 0 1.747-.253 2-2 2 0 1.747-.253 2-2 2 0 1.747-.253 2-2 2 0 1.988-5.237 6-7 6l-1 2c0 1.813-2.31 7-4 7 0 1.238-.423 3-2 3Z"/><path fill="#197F62" id="SSp-ll6b" d="M149 79v1l6-3-6 1v1Z"/><path fill="#C7C8CC" id="alv" d="M172 100c3.31 0 11.38 9 17 9 0-4.462-24.64-10.22-18-23.5 6.497-12.994 28.678-.41 36.5 3.5 3.996 1.998 13.5 3.595 13.5 9h1l1-1-1-3-8-4c-3.47 0-19.406-8.953-23.5-11-8.197-4.098-16.695 5-21.5 5l-1 8.5 4 7.5ZM284 100c-3.034 0-11.064 9-17 9l6.5-4c3.921-1.96 9.532-6.564 11.5-10.5 7.789-15.577-18.599-15.45-26.5-11.5-3.642 1.821-7.209 6-11.5 6 0-2.236 5.074-3.287 6.5-4 9.352-4.676 16.892-9.054 27-4 1.467.733 6.5.511 6.5 3 0 2.42 2.411 6.677 1 9.5-.654 1.308-4 5.314-4 6.5Z"/><path fill="#1C8064" id="SSp-ul6b" d="M149 80c-2.892 0-4.781 3-8 3 0-2.447 6.063-4 8-4v1ZM321 86h1v-1c-5.237 0-9.399-6-15-6v1l14 6Z"/><path fill="#7ECF49" id="CA3" d="M202 113h2l1-1 1-1h1l1-1 1-1 12-11c0-5.405-9.504-7.002-13.5-9-7.822-3.91-30.003-16.494-36.5-3.5-6.64 13.28 18 19.038 18 23.5h2c1.253 0 11 3.166 11 4ZM254 113h1c0-.885 9.683-4 11-4h1l6.5-4c3.921-1.96 9.532-6.564 11.5-10.5 7.789-15.577-18.599-15.45-26.5-11.5-3.642 1.821-7.209 6-11.5 6l-4 2-4 2-4 2v3c1.6 0 7 4.129 7 6l5 5 3 2 1 1 1 1h2Z"/><path fill="#3EA666" id="ACAv5" d="m213 82 7 3-1-4h-6v1Z"/><path fill="#3FA566" id="ACAv2/3" d="M223 84c0 1.473-1.952 1-3 1l-1-4 4 1v2ZM233 84c0 1.535 4 1.535 4 0v-3l-4 1v2Z"/><path fill="#3EA666" id="ACAv5" d="M243 82c0 1.995-4.377 2-6 2v-3h6v1Z"/><path fill="#40A664" id="ACAv1" d="M227 83c0 1.58-2.855 1-4 1v-2l4 1ZM230 83c0 1.473 1.952 1 3 1v-2l-3 1Z"/><path fill="#1C8064" id="SSp-ul6b" d="M135 85v2l6-4c-2.483 0-4.026 2-6 2Z"/><path fill="#A8AAAA" id="VL" fill-rule="evenodd" d="m159 90-5 3.5c-1.674 3.348 3.829 6.342 2 10-1.192 2.384-10.391 9.054-5.5 11.5 6.662 3.331 25.334-25 8.5-25m-18 13 4 4.5c2.498 4.995 4 11.469 4 17.5.643 0 2.149-6.824 4.5-8 2.714-1.357 15.365-7.23 16.5-9.5.821-1.642-1.106-7.5 2-7.5l-4-7.5 1-8.5c-6.85 0-17.652 9-23 9l-1 1-2 1c0 1.429-1.288 4-3 4l1 4ZM295 90l-4 3.5v6c0 4.655 12.95 20.1 16 14 2.146-4.291-4.816-5.632-6-8-2.789-5.578 7.561-15.5-6-15.5m21 13c-3.38 0-9 17.088-9 20-1.951 0-.477-2.454-1-3.5l-5.5-4.5c-2.793-1.397-12.036-3.571-13.5-6.5-1.46-2.92 1.308-8.5-3-8.5 0-1.186 3.346-5.192 4-6.5 1.411-2.823-1-7.08-1-9.5 8.307 0 16.215 9 24 9 0 2.156 5 5.037 5 10Z"/><path fill="#1A7D63" id="SSp-un6b" d="M135 87c0 2.177-4.336 4-6 4 0-2.338 5-2.89 5-6h1v2ZM329 91v1c-2.07 0-8-3.396-8-6h1l7 5Z"/><path fill="#C7C8CC" id="alv" d="M243 90v1l4-2-4 1Z"/><path fill="#A9AAA8" id="chpl" d="m159 90-5 3.5c-1.674 3.348 3.829 6.342 2 10-1.192 2.384-10.391 9.054-5.5 11.5 6.662 3.331 25.334-25 8.5-25Z"/><path fill="#CBC8CC" id="df" d="M222 94h13l4-1c0-2.109 2.535-2 4-2v-1c-4.719 0-10.541.02-14.5 2-1.995.998-11.24-2-14.5-2l8 4Z"/><path fill="#A9AAA8" id="chpl" d="m295 90-4 3.5v6c0 4.655 12.95 20.1 16 14 2.146-4.291-4.816-5.632-6-8-2.789-5.578 7.561-15.5-6-15.5Z"/><path fill="#1A7D63" id="SSp-un6b" d="M127 92v1l2-2h-2v1Z"/><path fill="#C7C8CC" id="alv" d="M243 91c-1.465 0-4-.109-4 2l4-2Z"/><path fill="#1A7E61" id="SSp-bfd6b" d="M346 105h1v-1l-4-3.5-14-9.5v1c0 2.232 16 9.228 16 12l1 1ZM127 93c0 1.54-6.3 4-8 4 0-1.884 6.4-5 8-5v1Z"/><path fill="#1A7E62" id="SSs1" d="m30 166 5 1c0-17.916 4.472-38.444 12-53.5 1.062-2.124 5.285-16.5 7-16.5v-2c-2.424 0-2.76-2-4-2-1.788 0-6.941 14.383-8 16.5-7.922 15.844-12 37.67-12 56.5Z"/><path fill="#AAA8A9" id="SEZ" d="m146 93-1 1 1-1Z"/><path fill="#C7C8CC" id="alv" d="M235 94v1l4-2-4 1Z"/><path fill="#AAA8A9" id="SEZ" d="m318 101-2 2c0-4.963-5-7.844-5-10 3.748 0 5.288 8 7 8Z"/><path fill="#1A7E62" id="SSs1" d="M426 166c0 1.643-3.765 1-5 1 0-14.013-4.359-40.218-10-51.5-2.28-4.559-8-13.466-8-18.5v-1l4-3c0 2.774 8.285 17.069 10 20.5 4.962 9.925 9 39.764 9 52.5Z"/><path fill="#AAA8A9" id="SEZ" d="m145 94-2 1 2-1ZM143 95c-1.712 0-3 2.571-3 4 1.712 0 3-2.571 3-4Z"/><path fill="#C7C8CC" id="alv" d="m234 96 1 1v-2l-1 1Z"/><path fill="#7DCD4B" id="HPF" d="M232 99h1l2-1v-1l-1-1c-1.577 0-2 1.762-2 3Z"/><path fill="#1B8063" id="SSs2/3" d="m35 167 8 1c0-10.516 7.6-38.701 12-47.5 2.357-4.715 7-12.093 7-17.5l-8-6c-1.715 0-5.938 14.376-7 16.5-7.528 15.056-12 35.584-12 53.5Z"/><path fill="#1A7E61" id="SSp-bfd6b" d="M119 97c-1.528 0-8 4.54-8 6 2.582 0 8-3.577 8-6Z"/><path fill="#7DCD4B" id="HPF" d="M223 99h2l-2-2-1 1 1 1Z"/><path fill="#1B8063" id="SSs2/3" d="m421 167-8 1c0-11.348-7.347-39.194-12-48.5l-7-16.5c3.624 0 5.274-6 9-6 0 5.034 5.72 13.941 8 18.5 5.641 11.282 10 37.487 10 51.5Z"/><path fill="#65A83D" id="DG-sg" d="m199 114-2 3c3.175 0 6.029 1.736 9.5 0 3.614-1.807 16.5-16.101 16.5-18l-1-1h-1l-12 11-1 1-1 1h-1l-1 1-1 1h-2c0 1.473-1.952 1-3 1ZM258 115l1 2c-2.903 0-5.272 1.614-8.5 0-2.691-1.346-17.5-16.235-17.5-18l2-1c1.6 0 7 4.129 7 6l5 5 3 2 1 1 1 1h2l4 2Z"/><path fill="#AAA8A9" id="SEZ" d="m138 101 3 2-1-4-2 2Z"/><path fill="#7BD04A" id="DG-mo" d="m218 117-1 1c-4.02 0-20 14.981-20-1 3.175 0 6.029 1.736 9.5 0 3.614-1.807 16.5-16.101 16.5-18h2l1 5-1 1v2l-1 1-2 3-1 2-1 1-1 1v1l-1 1ZM236 114l7.5 7 8 3c5.099 2.549 9.927-7 7.5-7-2.903 0-5.272 1.614-8.5 0-2.691-1.346-17.5-16.235-17.5-18h-1c-2.459 0-1 3.762-1 5v2l1 1v1l1 1v1l2 2 1 2Z"/><path fill="#CBC8CB" id="fi" d="M152 136h1l6-1 4-4.5c7.038-14.076 30-2.384 30-18.5l-2-3h-2c-5.62 0-13.69-9-17-9-3.106 0-1.179 5.858-2 7.5-1.135 2.27-13.786 8.143-16.5 9.5-2.351 1.176-3.857 8-4.5 8v3l-1 2 2 5h1l1 1ZM305 135h1c0-1.974 2-3.517 2-6v-1l-1-1v-4c-1.951 0-.477-2.454-1-3.5l-5.5-4.5c-2.793-1.397-12.036-3.571-13.5-6.5-1.46-2.92 1.308-8.5-3-8.5-3.034 0-11.064 9-17 9h-1l-3 3c0 3.673.705 7.102 4.5 9 4.448 2.224 11.447-.276 16 2 7.526 3.763 11.431 13 20.5 13l1-1Z"/><path fill="#187D62" id="SSp-n6a" d="M90 125h1c0-1.417 2.383-6 4-6l1-2c0-1.988 5.237-6 7-6l2-2 2-2c0-1.747.253-2 2-2v-1c0-1.949-9.02-1-9.5-1l-2-2c-5.608 0-6.805 2-10.5 2-2.397 0-9 10.035-9 12l12 10Z"/><path fill="#98D5F9" id="CP" d="m113 218-1 1c-4.089 0-7.597 3.451-12.5 1-3.141-1.571-7.706-7-10.5-7v-1l-1-1c0-2.871-3.712-6.924-5-9.5-4.229-8.457-6-16.141-6-26.5 0-17.101 20.328-53.414 33.5-60 11.457-5.729 12.516-14 27.5-14l3 2 4 4.5c2.498 4.995 4 11.469 4 17.5v3l-1 2-1 1c-.17 0-7.269 2-11 2-11.644 0-7 17.626-7 25-2.399 0-3.199 6.897-4 8.5-6.105 12.21-4 26.824-4 40.5 0 2.518-2 4.286-2 6l-1 1-2 1-1 1-1 1-1 1ZM340 215l2 1c3.78 0 5.82 7.84 11.5 5 1.677-.838 13.124-8 13.5-8l4-6c0-5.807 5.474-13.447 8-18.5l1-13.5c0-25.068-34.478-74-62-74l-2 2c-3.38 0-9 17.088-9 20v4l1 1v1l1 2c2.409 0 1.055 1.277 2.5 2h9.5c10.512 0 7 19.584 7 25 0 1.764 5.821 14.143 7 16.5 2.816 5.631 0 25.951 0 32.5 2.064 0 .426 3.353 1 4.5l4 3.5Z"/><path fill="#197E62" id="SSp-n5" d="m69 108 9 7c0-1.965 6.603-12 9-12v-1c-5.876 0-8.419 1-15 1h-1l-2 4v1Z"/><path fill="#187D62" id="SSp-n6a" d="m378 115-12 10c0-3.277-16.35-20-19-20v-1c3.403 0 12.488-.994 14.5-2 .894-.447 7.5 1.521 7.5 0l2 1c0 4.297 7 7.759 7 12Z"/><path fill="#197E62" id="SSp-n5" d="M378 115h1c3.767 0 5.331-7 9-7v-1l-4-4c-3.431 0-6.61-1.445-9.5 0-.92.46-3.5-2.578-3.5 0 0 4.297 7 7.759 7 12Z"/><path fill="#1A8062" id="SSp-n4" d="M393 103c0 1.009-3.52 4-5 4l-4-4v-1c2.876 0 5.183 1 9 1Z"/><path fill="#187C63" id="SSs4" d="m43 168 5 1c0-10.732 8.283-37.066 13-46.5 1.273-2.546 4.094-14.5 8-14.5v-1c-1.334 0-6-2.972-6-4h-1c0 5.407-4.643 12.785-7 17.5-4.4 8.799-12 36.984-12 47.5Z"/><path fill="#1A8062" id="SSp-n4" d="m71 103-2 4c-1.334 0-6-2.972-6-4h8Z"/><path fill="#1A7E61" id="SSp-bfd6b" d="M109 104v1c1.747 0 2-.253 2-2l-2 1Z"/><path fill="#A8A9AA" id="V3" d="m242 122-3 2c0-2.937-2.219-10.14-6.5-8l-4 4-5-4-5.5 2v-1l1-1v-1l1-1 1-1 1-2 2-3 1-1v-2l1-1h5v2l1 1v1l1 1v1l2 2 1 2 6 8Z"/><path fill="#187C63" id="SSs4" d="m413 168-4 1-2-3.5-2-16c-3.999-7.998-4.007-18.014-8-26-.982-1.964-9-14.695-9-15.5v-1c1.48 0 5-2.991 5-4h1l7 16.5c4.653 9.306 12 37.152 12 48.5Z"/><path fill="#7ECE4A" id="DG-po" d="m242 104 5 5-5-5Z"/><path fill="#1B7E64" id="SSp-n6b" d="m345 104 1 1-1-1ZM109 105c-1.747 0-2 .253-2 2 1.747 0 2-.253 2-2ZM365 125h1c0-3.277-16.35-20-19-20 0 2.291 12.204 11.909 14 15.5l4 4.5ZM107 107l-2 2c1.747 0 2-.253 2-2Z"/><path fill="#1C8063" id="SSs5" d="m48 169 13 1c0-11.718 5.045-31.591 10-41.5 1.246-2.492 7-11.346 7-13.5l-9-7c-3.906 0-6.727 11.954-8 14.5-4.717 9.434-13 35.768-13 46.5ZM409 169l-14 1c0-11.91-2.962-27.424-8-37.5-2.297-4.595-8-12.309-8-17.5 3.767 0 5.331-7 9-7 0 .805 8.018 13.536 9 15.5 3.993 7.986 4.001 18.002 8 26l2 16 2 3.5Z"/><path fill="#1B7E64" id="SSp-n6b" d="m105 109-2 2c1.747 0 2-.253 2-2Z"/><path fill="#C7C8CC" id="alv" d="M199 113h3c0-.834-9.747-4-11-4l2 3 6 1Z"/><path fill="#7ECE4A" id="DG-po" d="m209 109-1 1 1-1Z"/><path fill="#C7C8CC" id="alv" d="M255 113h2l6-1 3-3c-1.317 0-11 3.115-11 4Z"/><path fill="#7ECE4A" id="DG-po" d="m208 110-1 1 1-1Z"/><path fill="#1B7E64" id="SSp-n6b" d="M103 111c-1.763 0-7 4.012-7 6 1.763 0 7-4.012 7-6Z"/><path fill="#7ECE4A" id="DG-po" d="m206 111-1 1 1-1ZM250 111l1 1-1-1ZM205 112l-1 1 1-1Z"/><path fill="#7DCD4B" id="HPF" d="m251 112 1 1-1-1ZM202 113c0 1.473-1.952 1-3 1v-1h3ZM257 113l1 2-4-2h3Z"/><path fill="#197D63" id="SSs6a" d="M61 170c2.69 0 6.674 1 10 1 0-1.496 2.585-12 4-12 0-2.172 1.377-10 4-10 0-2.541 3.545-14 6-14 0-1.334 2.972-6 4-6l1-4-12-10c0 2.154-5.754 11.008-7 13.5-4.955 9.909-10 29.782-10 41.5ZM385 171h10v-1c0-11.91-2.962-27.424-8-37.5-2.297-4.595-8-12.309-8-17.5h-1l-12 10c0 3.911 5.303 8.107 7 11.5 4.787 9.574 12 23.288 12 34.5Z"/><path fill="#A9AAA8" id="chpl" d="m237 127-1 1-5.5 7c-5.582 2.791-11.634-8.767-13.5-12.5l1-4.5 5.5-2 5 4 4-4c4.281-2.14 6.5 5.063 6.5 8l-1 1-1 2Z"/><path fill="#1B7E64" id="SSp-n6b" d="m96 117-1 2 1-2Z"/><path fill="#A8A9AA" id="V3" d="m222 137 6.5 4c1.567 0 3.271-3 5.5-3l2-10-5.5 7c-5.582 2.791-11.634-8.767-13.5-12.5l1-4.5h-1l-2 4c0 2.763 7 8.246 7 15Z"/><path fill="#1B7E64" id="SSp-n6b" d="M91 125v1c1.69 0 4-5.187 4-7-1.617 0-4 4.583-4 6Z"/><path fill="#FF909D" id="LD" d="m165 142 10 8c0-8.643 6.733-9 14-9 0-4.453-2.222-9.055 0-13.5l5-4.5c-14.544 0-13.46-.52-26.5 6l-5.5 5-1 1 1 3 3 4Z"/><path fill="#FF8D9F" id="MH" d="M217 140h2c1.658 0 3-1.461 3-3 0-6.754-7-12.237-7-15l-4 2c0 3.806 1 7.751 1 11l5 5ZM237 140h2l1-1h1c0-1.061 2.571-5 4-5v-10l-3-2-3 2-1 1-1 2-1 1-2 10 3 2Z"/><path fill="#FF909D" id="LD" d="m290 143-8 6c0-7.874-9.114-8-15-8 0-2.776 3.527-6.446 2-9.5l-6-8.5c7.108 0 13.8-1.35 20.5 2l8 6c.865.433 3.5 2.479 3.5 4v2l-5 6Z"/><path fill="#FF8F9E" id="AD" d="m195 148 4 2c0-1.996 2-4.985 2-8v-4c0-4.366 1-7.381 1-11l-8-4-5 4.5c-2.222 4.445 0 9.047 0 13.5l5 5 1 1v1ZM261 148l-4 2c0-2.522-2-4.909-2-8v-3c0-4.819-1-8.292-1-12l9-4 6 8.5c1.527 3.054-2 6.724-2 9.5-1.59 0-6 5.662-6 7Z"/><path fill="#CCC9C8" id="sm" d="M209 140c0 1.684-4.679 1-6 1 0-1.238-.423-3-2-3 0-4.366 1-7.381 1-11 3.898 0 5.539-3 9-3 0 3.806 1 7.751 1 11-1.951 0-.477 2.454-1 3.5l-2 1.5Z"/><path fill="#A8A9AA" id="V3" d="m239 124-1 1 1-1Z"/><path fill="#CCC9C8" id="sm" d="M247 140c0 1.684 4.679 1 6 1 0-1.747.253-2 2-2 0-4.819-1-8.292-1-12-3.898 0-5.539-3-9-3v10c0 2.518 2 4.286 2 6Z"/><path fill="#1A8061" id="SSs6b" d="M91 126c0 1.238-.423 3-2 3l1-4h1v1Z"/><path fill="#A8A9AA" id="V3" d="m238 125-1 2 1-2Z"/><path fill="#1A8061" id="SSs6b" d="M384 172h1v-1c0-11.212-7.213-24.926-12-34.5-1.697-3.393-7-7.589-7-11.5h-1c0 8.29 14 20.283 14 30v1c1.502 0 4 9.434 4 11v4l1 1Z"/><path fill="#A8A9AA" id="V3" d="m237 127-1 1 1-1Z"/><path fill="#1A8061" id="SSs6b" d="m89 132-4 3c0-1.334 2.972-6 4-6v3Z"/><path fill="#97D6F9" id="STR" d="M138 138h5l2-3 1-1 1-3c-.17 0-7.269 2-11 2l2 5ZM313 137c1.49 0 2.587 1 5 1l3-5h-9.5c-1.445-.723-.091-2-2.5-2l2 3v1l2 2Z"/><path fill="#C9C9CA" id="scwm" d="m85 135-2 8c1.91 0 6-9.045 6-11l-4 3Z"/><path fill="#CCC" d="m142 184 18.5 23c6.117 3.059 2.281-8.937 1.5-10.5l-5-9.5c0-2.722-3.621-3.742-5-6.5-2.488-4.977-18.946-22.777-9.5-27.5 1.79-.895 3.403-3 5.5-3v-1c-1.565 0-10-8.562-10-11l-2-5c-11.644 0-7 17.626-7 25 4.835 0 13 21.491 13 26ZM314 184c-.555 0-13.975 20.738-18.5 23-5.157 2.579-1.36-10.779-.5-12.5 1.334-2.668 4-4.276 4-7.5l6.5-8c5.107-5.107 19.452-29 2.5-29v-1c2.749 0 10-8.406 10-11l3-5c10.512 0 7 19.584 7 25-5.252 0-14 21.51-14 26Z"/><path fill="#CAC7CB" id="fiber tracts" d="M148 149h1c6.103 0 6-5.257 6-10l-2-3h-1l-1-1h-1l-4-1-1 1c2.811 0 4.978 1.455 6 3.5 4.477 8.953-8 7.78-8-.5h-5c0 2.438 8.435 11 10 11Z"/><path fill="#FF6F80" id="TH" d="m162 134-1 1 1-1Z"/><path fill="#FF8F9D" id="LH" d="m241 139 6 1c0-1.714-2-3.482-2-6-1.429 0-4 3.939-4 5Z"/><path fill="#CAC7CB" id="fiber tracts" d="M307 149h1c2.749 0 10-8.406 10-11-2.413 0-3.51-1-5-1l-.5 4c-10.817 10.817-10.965-6-1.5-6v-1l-5 1h-1l-1 1-3 3c0 4.012.96 10 6 10Z"/><path fill="#1A8061" id="SSs6b" d="m81 147-2 2c0-2.541 3.545-14 6-14l-2 8c-2.109 0-2 2.535-2 4Z"/><path fill="#C8CBC7" id="st" d="M145 135c2.811 0 4.978 1.455 6 3.5 4.477 8.953-8 7.78-8-.5l2-3Z"/><path fill="#FF6F80" id="TH" d="m159 137 3 1-1-3h-2v2Z"/><path fill="#FF8F9D" id="LH" d="M209 140h8l-5-5c-1.951 0-.477 2.454-1 3.5l-2 1.5Z"/><path fill="#FF6F80" id="TH" d="M295 137h3c0-1.577-1.762-2-3-2v2Z"/><path fill="#C8CBC7" id="st" d="m311 135 2 2-.5 4c-10.817 10.817-10.965-6-1.5-6Z"/><path fill="#FD8F9F" id="RT" d="M197 210c0 4.099-16.286 2-20 2 0-2.064-3.353-.426-4.5-1l-5.5-6.5c-1.855-3.71-4.972-17.5-10-17.5 0-2.722-3.621-3.742-5-6.5-2.488-4.977-18.946-22.777-9.5-27.5 1.79-.895 3.403-3 5.5-3l1-1c6.103 0 6-5.257 6-10l4-2 3 1 3 4 2 3.5-1 5.5-4 4c0-2.297-4.459.419-5 1.5-1.381 2.761-3 5.141-3 8.5 0 6.615 6.813 22 15 22 2.773 0 3.67 4 6 4 0 1.243 19.631 17 21 17l1 2Z"/><path fill="#FE8F9E" id="PVT" d="M223 158c2.245 0 3.905 2 5.5 2l4.5-2c0-6.84 4-13.752 4-18l-3-2c-2.229 0-3.933 3-5.5 3l-6.5-4c0 1.539-1.342 3-3 3 0 1.654 3.155 6.811 4 8.5v9.5Z"/><path fill="#FD8F9F" id="RT" d="M260 209c0 6.492 15.409 3 20 3 0-2.064 3.353-.426 4.5-1l4.5-5.5c1.37-2.739 6.618-18.5 10-18.5l6.5-8c5.107-5.107 19.452-29 2.5-29l-1-1c-5.04 0-6-5.988-6-10l-3-2h-3l-5 6v8c1.539 0 2.187 4 5 4 0-3.292 6.487 4.474 7 5.5v5.5c0 7.054-7.108 21-15 21-2.518 0-2.334 3-5 3 0 4.642-21 16.781-21 18l-1 1Z"/><path fill="#FF6F80" id="TH" d="m203 141-2 1v-4c1.577 0 2 1.762 2 3Z"/><path fill="#FD909D" id="MD" d="M218 167h1l1-1 1-1c0-2.16 2-4.167 2-7v-9.5c-.845-1.689-4-6.846-4-8.5h-10c0 1.684-4.679 1-6 1l-2 1c0 3.015-2 6.004-2 8 0 5.466 7.652 17 14 17h5Z"/><path fill="#FF8F9D" id="LH" d="m240 139-1 1 1-1Z"/><path fill="#FD909D" id="MD" d="m240 167 2 1c7.094 0 15-11.592 15-18 0-2.522-2-4.909-2-8l-2-1c-1.321 0-6 .684-6-1l-6-1h-1l-1 1h-2c0 4.248-4 11.16-4 18l2 7 1 1 2 1h2Z"/><path fill="#FF6F80" id="TH" d="m253 141 2 1v-3c-1.747 0-2 .253-2 2Z"/><path fill="#FD909E" id="AV" d="M197 162c-2.7 0-4.762 3-8 3-7.345 0-14-7.823-14-15 0-8.643 6.733-9 14-9l5 5 1 1v1l2 3.5V162ZM259 161c2.747 0 4.56 4 8 4 7.918 0 15-8.447 15-16 0-7.874-9.114-8-15-8-1.59 0-6 5.662-6 7 0 4.272-2 8.237-2 13Z"/><path fill="#FD7E84" id="VAL" d="M169 187c2.773 0 3.67 4 6 4 0-5.014 11.727-5 16-5v-14l-2-7c-7.345 0-14-7.823-14-15l-10-8 2 3.5-1 5.5c1.714 0 1 5.594 1 7 0 5.82.432 13.637-2 18.5l-2 3.5c0 3.246 6 4.04 6 7Z"/><path fill="#C9C9CA" id="scwm" d="M83 143c-2.109 0-2 2.535-2 4l2-4Z"/><path fill="#FD7E84" id="VAL" d="M287 187c-2.518 0-2.334 3-5 3l-7.5-4H265c0-1.199 2.865-13 0-13l2-8c7.918 0 15-8.447 15-16l8-6v8c0 3.51-1.399 28 4 28 0 3.921-7 4.384-7 8Z"/><path fill="#FF909D" id="LD" d="m194 146 1 1-1-1Z"/><path fill="#C9C9CA" id="scwm" d="M79 149v2c2.109 0 2-2.535 2-4l-2 2Z"/><path fill="#FC8E9F" id="IAD" d="m218 177-2 3c-2.176 0-14.262-13.024-15-14.5l-4-3.5v-10.5l-2-3.5 4 2c0 5.466 7.652 17 14 17l3 3 2 7ZM238 177c2.109 0 2 2.535 2 4l4.5-4c3.369-3.369 14.5-11.372 14.5-16 0-4.763 2-8.728 2-13l-4 2c0 6.408-7.906 18-15 18l-2 2-2 7Z"/><path fill="#1A8061" id="SSs6b" d="m77 157-2 2c0-2.172 1.377-10 4-10v3l-1 2c-1.473 0-1 1.952-1 3Z"/><path fill="#8599CC" id="PAL" d="m149 149-1 1v-1h1ZM308 149v1l-1-1h1Z"/><path fill="#FD8084" id="VPL" d="m162 155-5 6.5c-1.92 3.841 1.898 18.5 6 18.5l2-3.5c2.432-4.863 2-12.68 2-18.5 0-1.406.714-7-1-7l-4 4ZM295 155c0 2.469 2.787 3.074 4 5.5 1.708 3.417-1.431 18.5-5 18.5-5.399 0-4-24.49-4-28 1.539 0 2.187 4 5 4Z"/><path fill="#C9C9CA" id="scwm" d="m79 152-1 2 1-2ZM78 154c-1.473 0-1 1.952-1 3 1.473 0 1-1.952 1-3Z"/><path fill="#C7CACA" id="em" d="M163 180c0 3.246 6 4.04 6 7-8.187 0-15-15.385-15-22 0-3.359 1.619-5.739 3-8.5.541-1.081 5-3.797 5-1.5l-5 6.5c-1.92 3.841 1.898 18.5 6 18.5ZM294 179c0 3.921-7 4.384-7 8 7.892 0 15-13.946 15-21v-5.5c-.513-1.026-7-8.792-7-5.5 0 2.469 2.787 3.074 4 5.5 1.708 3.417-1.431 18.5-5 18.5Z"/><path fill="#C9C9CA" id="scwm" d="M379 156c1.502 0 4 9.434 4 11-2.087 0-4-8.909-4-11ZM75 159v4c1.995 0 2-4.377 2-6l-2 2Z"/><path fill="#8598CC" id="GPe" d="M129 215h1c4.223 0 7.055-.278 10.5-2l2.5-3c0-8.557-1-18.122-1-26 0-4.509-8.165-26-13-26-2.399 0-3.199 6.897-4 8.5-6.105 12.21-4 26.824-4 40.5 2.225 0 3.358 7 7 7l1 1Z"/><path fill="#FE909F" id="IMD" d="M221 165c1.841 0 3.57-2.035 5.5-3 3.233-1.616 6.074 3 8.5 3l-2-7-4.5 2c-1.595 0-3.255-2-5.5-2 0 2.833-2 4.84-2 7Z"/><path fill="#8598CC" id="GPe" d="M327 215h1l1-1c1.59 0 6-5.662 6-7 0-6.549 2.816-26.869 0-32.5-1.179-2.357-7-14.736-7-16.5-5.252 0-14 21.51-14 26 0 14.411-7.764 31 13 31Z"/><path fill="#1A8061" id="SSs6b" d="M71 172h2v-3l1-2v-1c0-1.048-.473-3 1-3v-4c-1.415 0-4 10.504-4 12v1Z"/><path fill="#FD8D9F" id="AMd" d="M240 188c2.021 0 3.894 4.303 6.5 3l4.5-3c0-3.896 11.77-15 14-15l2-8c-3.44 0-5.253-4-8-4 0 4.628-11.131 12.631-14.5 16l-4.5 4v7ZM217 188l-2 1-5.5 2-3.5-3-4-4.5-11-11.5-2-7c3.238 0 5.3-3 8-3l4 3.5c.738 1.476 12.824 14.5 15 14.5 0 3.47 1 5.278 1 8Z"/><path fill="#FD8E9E" id="CM" d="M218 177h20l2-7-1-2-1-1-2-1-1-1c-2.426 0-5.267-4.616-8.5-3-1.93.965-3.659 3-5.5 3l-1 1-1 1h-1l-1 1-1 2 2 7Z"/><path fill="#C9C9CA" id="scwm" d="M75 163c-1.473 0-1 1.952-1 3 1.473 0 1-1.952 1-3Z"/><path fill="#FF909F" id="PT" d="m221 165-1 1 1-1ZM235 165l1 1-1-1Z"/><path fill="#12AD83" id="VISC1" d="M39 197c-2.72 0-3.553 2-6 2 0-3.875-2.213-12.925-4-16.5l1-16.5 5 1c0 5.55-2.62 13.261 0 18.5l4 11.5Z"/><path fill="#FF909F" id="PT" d="m220 166-1 1 1-1Z"/><path fill="#12AD83" id="VISC1" d="m418 197 5 2 2-3.5c2.709-5.418 2-15.065 2-21.5 0-1.49.735-8-1-8 0 1.643-3.765 1-5 1 0 3.144 2.799 9.901 1 13.5-1.869 3.738-4 12.369-4 16.5Z"/><path fill="#12AC83" id="VISC2/3" d="M50 195c-4.296 0-7.018 2-11 2l-4-11.5c-2.62-5.239 0-12.95 0-18.5l8 1c0 6.657 2 12.623 2 18.5 0 1.768 4 8.254 4 6.5l1 1v1Z"/><path fill="#C9C9CA" id="scwm" d="m74 167-1 2 1-2Z"/><path fill="#FF6F80" id="TH" d="m217 168-1 2-3-3h4v1Z"/><path fill="#FF909F" id="PT" d="m218 167-1 1v-1h1ZM240 167l-1 1-1-1h2Z"/><path fill="#FF6F80" id="TH" d="m242 168-2 2-1-2 1-1 2 1Z"/><path fill="#12AC83" id="VISC2/3" d="M417 197h1c0-4.131 2.131-12.762 4-16.5 1.799-3.599-1-10.356-1-13.5l-8 1c0 4.925-.716 26-6 26 0 .586 8.833 3 10 3Z"/><path fill="#11AC82" id="VISC4" d="M48 169c0 4.088-3.218 13.065-1 17.5l2 6.5c0 1.754-4-4.732-4-6.5 0-5.877-2-11.843-2-18.5l5 1ZM409 169l1 12.5c-1.415 2.829-3 9.412-3 12.5 5.284 0 6-21.075 6-26l-4 1Z"/><path fill="#12AD82" id="VISC5" d="m49 193 1 1c1.913 0 13-.612 13-2 0-2.613-.93-4.36-2-6.5V170l-13-1c0 4.088-3.218 13.065-1 17.5l2 6.5ZM406 194h1c0-3.088 1.585-9.671 3-12.5l-1-12.5-14 1v1c0 3.223 1.878 11.744 0 15.5l-2 5.5c3.982 0 8.748 2 13 2Z"/><path fill="#11AC83" id="VISC6a" d="M63 192h1c4.135 0 7.305-2 11-2 0-6.067-4-11.294-4-18v-1c-3.326 0-7.31-1-10-1v15.5c1.07 2.14 2 3.887 2 6.5Z"/><path fill="#C9C9CA" id="scwm" d="M384 172v1l-1-2 1 1Z"/><path fill="#11AC83" id="VISC6a" d="M381 190c3.981 0 7.629 2 12 2l2-5.5c1.878-3.756 0-12.277 0-15.5h-10v1c0 6.684-4 12.276-4 18Z"/><path fill="#11AD82" id="VISC6b" d="M75 190h1v-1c0-5.154-3-9.23-3-15v-2h-2c0 6.706 4 11.933 4 18Z"/><path fill="#FC909D" id="AMv" d="M206 188c0 2.269-3.521 7-6 7-2.937 0-9-5.909-9-9v-14l11 11.5 4 4.5Z"/><path fill="#11AD82" id="VISC6b" d="M380 190h1c0-5.724 4-11.316 4-18h-1v2l-4 16Z"/><path fill="#FC909D" id="AMv" d="M251 188c0 1.884 2.575 7 5 7 3.574 0 9-5.464 9-9 0-1.199 2.865-13 0-13-2.23 0-14 11.104-14 15Z"/><path fill="#C8CBCC" id="ec" d="M93 225h2v-2c-.898 0-6-8.96-6-10v-1l-1-1c0-2.871-3.712-6.924-5-9.5-4.229-8.457-6-16.141-6-26.5l-4-1c0 5.77 3 9.846 3 15l2 4 1 3 1 1 1 4 3 5 7 14.5c.56 1.119.155 4.5 2 4.5ZM373 206l-2 1c0-5.807 5.474-13.447 8-18.5l1-13.5 4-1-4 16c-1.473 0-1 1.952-1 3l-1 1c0 2.7-3 4.762-3 8l-2 4Z"/><path fill="#FE8E9C" id="IAM" d="M217 188c4.382 0 9.503-5.498 14.5-3 2.82 1.41 5.077 3 8.5 3v-7c0-1.465.109-4-2-4h-20l-2 3c0 3.47 1 5.278 1 8Z"/><path fill="#8599CC" id="PAL" fill-rule="evenodd" d="M164 208c0 1.33-1.894 1.606-.5 3l1.5 3.5c3.43 6.861 6-6.5-1-6.5m-18 11c0 1.781 6.197 1.348 7.5 2 3.62 1.81 7.5 4.315 7.5 9 8.042 0 7.6-17 13-17l1-1h2c0-2.064-3.353-.426-4.5-1l-5.5-6.5c-1.855-3.71-4.972-17.5-10-17.5l5 9.5c.781 1.563 4.617 13.559-1.5 10.5L142 184c0 7.878 1 17.443 1 26l5.5-7c1.788 0 12.922 9.657 11.5 12.5-2.655 5.31-9.506 3.5-14 3.5ZM290 208l-2 3.5c-5.143 10.286 12.94-3.5 2-3.5m27 12h1l2-1 7-4c-20.764 0-13-16.589-13-31-.555 0-13.975 20.738-18.5 23-5.157 2.579-1.36-10.779-.5-12.5 1.334-2.668 4-4.276 4-7.5-3.382 0-8.63 15.761-10 18.5l-4.5 5.5c-1.147.574-4.5-1.064-4.5 1h1l1 1c6.976 0 3.469 16 13 16 0-5.061 8.258-7.379 11.5-9 1.147-.574 4.5 1.064 4.5-1-1.414 0-7.084 1.208-7.5 1-2.821-1.411-6.105-2.709-7.5-5.5-1.295-2.59 10.733-11.384 12.5-10.5l4.5 5.5c1.784 3.567-2 7.072-2 9.5 1.321 0 6-.684 6 1Z"/><path fill="#FF8E9E" id="RH" d="M215 191h26l-1-3c-3.423 0-5.68-1.59-8.5-3-4.997-2.498-10.118 3-14.5 3l-2 1v2Z"/><path fill="#FF7E84" id="VM" d="M196 208h1c0-2.025 1.233-7 4-7 0-2.124-1-4.436-1-6-2.937 0-9-5.909-9-9-4.273 0-16-.014-16 5 0 1.243 19.631 17 21 17ZM259 208h2c0-1.219 21-13.358 21-18l-7.5-4H265c0 3.536-5.426 9-9 9l-1 6c3.207 0 4 4.706 4 7Z"/><path fill="#FF6F80" id="TH" d="m207 200-6 1c0-2.124-1-4.436-1-6 2.479 0 6-4.731 6-7l3.5 3 5.5-2v2c0 1.789-8 5.278-8 9ZM217 188l-2 1 2-1ZM249 201h6l1-6c-2.425 0-5-5.116-5-7l-4.5 3c-2.606 1.303-4.479-3-6.5-3l1 3c3.558 0 8 6.94 8 10Z"/><path fill="#219666" id="AIp6b" d="M77 193h1l-2-4v1l1 3Z"/><path fill="#209766" id="AIp6a" d="M73 213h2l1-1c0-4.765 5.45-6 8-6l-3-5c0 2.289-3.564 4.372-5 1.5-2.177-4.355 1-6.044 1-9.5l-1-3h-1c-3.695 0-6.865 2-11 2 0 7.256 9 13.909 9 21Z"/><path fill="#FD909F" id="RE" d="M227 219c0-5.008-6.707-14.086-4-19.5 1.678-3.357 7.531-5.938 10-1 3.332 6.664-4 14.94-4 20.5 0 1.277 8.106.697 9.5 0l4.5-4c0-1.43 6-7.121 6-14 0-3.06-4.442-10-8-10h-26c0 1.789-8 5.278-8 9 0 7.626 7 13.799 7 16 .772 0 13 6.868 13 3Z"/><path fill="#219666" id="AIp6b" d="M379 193h1l1-3h-1c-1.473 0-1 1.952-1 3Z"/><path fill="#209766" id="AIp6a" d="M383 213h1c0-7.464 9-14.16 9-21-4.371 0-8.019-2-12-2l-1 3c0 3.519 1.819 5.861 0 9.5-1.052 2.103-5 1.319-5-.5l-2 4c2.105 0 8 1.807 8 6l1 1h1Z"/><path fill="#219864" id="AIp5" d="M73 213c-2.522 0-4.909 2-8 2 0-3.738-6.079-4.657-8-8.5-.665-1.33-6.58-11.5-7-11.5v-1c1.913 0 13-.612 13-2h1c0 7.256 9 13.909 9 21ZM384 213l7 2c0-3.938 15-13.087 15-21-4.252 0-9.018-2-13-2 0 6.84-9 13.536-9 21Z"/><path fill="#8ADA86" id="CLA" d="m80 197 1 4c0 2.289-3.564 4.372-5 1.5-2.177-4.355 1-6.044 1-9.5h1l1 3 1 1Z"/><path fill="#219666" id="AIp6b" d="m379 193-1 1 1-1Z"/><path fill="#8ADA86" id="CLA" d="M378 194c0 2.7-3 4.762-3 8 0 1.819 3.948 2.603 5 .5 1.819-3.639 0-5.981 0-9.5h-1l-1 1Z"/><path fill="#209865" id="AIp2/3" d="m391 215 10 4c2.564 0 16-19.156 16-22-1.167 0-10-2.414-10-3h-1c0 7.913-15 17.062-15 21ZM65 215c0 .986-8.513 4-10 4-1.884 0-16-19.648-16-22 3.982 0 6.704-2 11-2 .42 0 6.335 10.17 7 11.5 1.921 3.843 8 4.762 8 8.5Z"/><path fill="#209766" id="AIp6a" d="m79 196 1 1-1-1Z"/><path fill="#FC8F9F" id="Xi" d="M227 219h2c0-5.56 7.332-13.836 4-20.5-2.469-4.938-8.322-2.357-10 1-2.707 5.414 4 14.492 4 19.5Z"/><path fill="#219765" id="AIp1" d="m55 219-4 3c-1.313 0-18-19.685-18-23 2.447 0 3.28-2 6-2 0 2.352 14.116 22 16 22ZM401 219l5 3c0-5.071 17-14.1 17-23l-5-2h-1c0 2.844-13.436 22-16 22Z"/><path fill="#FD909C" id="PR" d="M211 217h1l2-1c0-2.201-7-8.374-7-16l-6 1c-2.767 0-4 4.975-4 7l2 2 7 4 1 1h1l1 1h1l1 1ZM244 217h1l2-1 1-1h1l9-5 1-1v-1c0-2.294-.793-7-4-7h-6c0 6.879-6 12.57-6 14l1 2Z"/><path fill="#8499CC" id="GPi" d="M145 219h1c4.494 0 11.345 1.81 14-3.5 1.422-2.843-9.712-12.5-11.5-12.5l-5.5 7c0 3.618 2 6.154 2 9ZM311 219c0-2.428 3.784-5.933 2-9.5l-4.5-5.5c-1.767-.884-13.795 7.91-12.5 10.5 1.395 2.791 4.679 4.089 7.5 5.5.416.208 6.086-1 7.5-1Z"/><path fill="#A0EE9C" id="EPd" d="M92 233h1v-8c-1.845 0-1.44-3.381-2-4.5L84 206c-2.55 0-8 1.235-8 6l-1 1 7 14c0 4.066 7.116 6 10 6ZM375 227c-2.397 0-12 12.953-12 2l1-4c0-6.231 7-11.432 7-18l2-1c2.105 0 8 1.807 8 6v1c0 5.171-6 8.951-6 14Z"/><path fill="#97D6F9" id="STR" d="M126 219h10c0-2.517-6-.996-6-4h-1l-1-1c-3.642 0-4.775-7-7-7 0 2.518-2 4.286-2 6 2.864 0 7 2.928 7 6ZM331 218c-3.339 0-6.924 1-11 1l7-4h1l1-1c1.59 0 6-5.662 6-7 2.064 0 .426 3.353 1 4.5l4 3.5c-2.51 0-9-3.778-9 3Z"/><path fill="#C8CBCC" id="ec" d="M361 225h3c0-6.231 7-11.432 7-18l-4 6c0 1.457-4.631 11-6 11v1Z"/><path fill="#CCCACB" id="nst" d="M164 208c0 1.33-1.894 1.606-.5 3l1.5 3.5c3.43 6.861 6-6.5-1-6.5Z"/><path fill="#FF6F80" id="TH" d="M197 210h2l-2-2h-1l1 2ZM259 209h1l1-1h-2v1Z"/><path fill="#CCCACB" id="nst" d="m290 208-2 3.5c-5.143 10.286 12.94-3.5 2-3.5Z"/><path fill="#FF6F80" id="TH" d="m259 209-1 1 1-1Z"/><path fill="#F0483B" id="ZI" d="m276 216-2 1c-4.554 0-26 10.473-26-1l1-1 9-5 1-1h1c0 6.492 15.409 3 20 3h1v1l-2 2c-1.048 0-3-.473-3 1Z"/><path fill="#8599CC" id="PAL" d="M145 219c-1.321 0-6-.684-6 1l-2-1h-1c0-2.517-6-.996-6-4 4.223 0 7.055-.278 10.5-2l2.5-3c0 3.618 2 6.154 2 9Z"/><path fill="#F0483B" id="ZI" d="M178 215c4.409 0 26.78 11.94 31 3.5l-2-3.5-1-1-7-4h-2c0 4.099-16.286 2-20 2h-2v1l3 2Z"/><path fill="#97D6F9" id="STR" d="m88 211 1 1-1-1Z"/><path fill="#8AD987" id="CTXsp" d="m76 212-1 1 1-1Z"/><path fill="#E64438" id="HY" d="M174 213h1v-1l-1 1ZM281 213h1l-1-1v1Z"/><path fill="#8AD987" id="CTXsp" d="M381 213h1l-1-1v1Z"/><path fill="#6ACAB9" id="PIR" d="M106 274c0 2.86-9.4 22-12 22-3.622 0-11.334-12.834-14-15.5-4.865-4.865-6.084-13.169-9-19-4.552-9.104-9.525-18.051-14-27-1.852-3.704-6-8.16-6-12.5l4-3c1.487 0 10-3.014 10-4 3.091 0 5.478-2 8-2l5 10 1 1v1l3 5 6 9c0 5.301 19 25.733 19 34l-1 1Z"/><path fill="#C9C8CA" id="ee" d="m79 225 3 2-7-14h-2l5 10 1 1v1Z"/><path fill="#97D6F9" id="STR" d="m112 221-1.5 2c-.729.364-10.011-2.522-7.5 2.5l2 3.5c-1.88 0-10-9.306-10-8v2c-.898 0-6-8.96-6-10 2.794 0 7.359 5.429 10.5 7 4.903 2.451 8.411-1 12.5-1v2ZM119 213l-1 1 1-1Z"/><path fill="#80BEE1" id="CEAl" d="M112 221c0 5.57 5.148 12 11 12 3.774 0 3-11.131 3-14 0-3.072-4.136-6-7-6l-1 1-2 1-1 1-1 1-1 1-1 1v2Z"/><path fill="#F2483A" id="LHA" d="M161 250c9.987 0 27 31.48 27 3-3.642 0-.994-16.512 0-18.5l3-3.5c0-4.271-2.881-12-8-12-1.766 0-5-.607-5-3v-1l-3-2h-1c-5.4 0-4.958 17-13 17l-2 9c0 4.296 2 7.018 2 11ZM277 263c-1.747 0-2 .253-2 2l-2.5 1c-2.109 0-4.5-11.242-4.5-13 3.644 0 2.005-15.49 1-17.5l-3-4.5c0-4.024 1.553-12 7-12 1.766 0 5-.607 5-3l1-1 2-2h1c6.976 0 3.469 16 13 16 0 3.395 2 6.106 2 10l-1 10-3.5 3c-2.172 1.086-15.5 8.685-15.5 11Z"/><path fill="#80BEE1" id="CEAl" d="M345 222c0 5.23-6.808 11-12 11 0-1.009-2.421-5.343-3-6.5l1-8.5c0-6.778 6.49-3 9-3l2 1 3 6Z"/><path fill="#97D6F9" id="STR" d="M353 227h2l1-1 1-1 2-2c0-1.652 2-3.092 2-1v2c1.369 0 6-9.543 6-11-.376 0-11.823 7.162-13.5 8-5.68 2.84-7.72-5-11.5-5l3 6c4.109 0 8-.349 8 5Z"/><path fill="#C9C8CA" id="ee" d="M375 227h1l1-1v-1l1-1c0-3.572 5-6.988 5-11h-2c0 5.171-6 8.951-6 14Z"/><path fill="#6ACAB9" id="PIR" d="M350 274c0 3.169 10.433 22 13 22l5.5-5 8.5-11.5 20-40c2.23-4.461 9-12.589 9-17.5l-5-3-10-4-7-2h-1c0 4.012-5 7.428-5 11l-1 1v1l-1 1-1 2-1 1-1 2-1 1-1 1c0 1.238-.423 3-2 3v1c0 7.209-19 24.122-19 34v2Z"/><path fill="#8599CC" id="PAL" d="m128 214 1 1-1-1Z"/><path fill="#FF6F80" id="TH" d="m206 214 1 1-1-1Z"/><path fill="#8599CC" id="PAL" d="m329 214-1 1 1-1Z"/><path fill="#97D6F9" id="STR" d="m116 215-1 1 1-1Z"/><path fill="#E64438" id="HY" d="M204 232c1.606 0 4.339-2.081 6.5-1l8.5 6-7-11.5c-1.461-2.921 2.989-5.756 5.5-4.5 1.941.971 3.122 1 5.5 1 0-1.992-11-2.238-11-5h-1l-1-1h-1l-1-1h-1l2 3.5c-4.22 8.44-26.591-3.5-31-3.5v1c2.361 0 5 .4 5 3 5.119 0 8 7.729 8 12h7c2.124 0 4.436 1 6 1Z"/><path fill="#FF6F80" id="TH" d="m208 215 1 1-1-1ZM230 222h3c0-2.339 11-1.325 11-5l-1-2-4.5 4c-1.394.697-9.5 1.277-9.5 0h-2c0 3.868-12.228-3-13-3l-2 1c0 2.762 11 3.008 11 5h3c0-1.509 4-2.711 4 0ZM247 216h1v-1l-1 1Z"/><path fill="#E64438" id="HY" d="m249 215-1 1v-1h1ZM276 216h2l1-1c-1.048 0-3-.473-3 1Z"/><path fill="#97D6F9" id="STR" d="m115 216-1 1 1-1Z"/><path fill="#CCC9C8" id="sm" d="M178 216c2.361 0 5 .4 5 3-1.766 0-5-.607-5-3Z"/><path fill="#FF6F80" id="TH" d="m210 216 1 1-1-1ZM247 216l-2 1 2-1Z"/><path fill="#E64438" id="HY" d="m253 232-7.5-1-6.5 4c0-3.352 4.527-7.554 6-10.5 1.239-2.479-4.759-4.371-6.5-3.5-1.941.971-3.122 1-5.5 1 0-2.339 11-1.325 11-5h1l2-1h1c0 11.473 21.446 1 26 1l-1 2c-5.447 0-7 7.976-7 12h-8c-1.235 0-5-.643-5 1ZM276 216l-2 1 2-1Z"/><path fill="#CCC9C8" id="sm" d="m274 217-1 2c1.766 0 5-.607 5-3h-2l-2 1Z"/><path fill="#97D6F9" id="STR" d="m113 218-1 1 1-1Z"/><path fill="#7FC0E0" id="CEAm" d="M144 243c-4.875 0-10.731 4-16 4 0-5.725-5-8.723-5-14 3.774 0 3-11.131 3-14h11l2 2c3.855 0 9.341 5.182 11 8.5l-1 4.5-2 6-1 1-1 1-1 1ZM311 242c5.294 0 11.193 5 17 5 0-5.675 5-8.347 5-14 0-1.009-2.421-5.343-3-6.5l1-8.5c-3.339 0-6.924 1-11 1l-2 1-1 1c-7.538 0-10 7.752-10 14l4 6v1Z"/><path fill="#97D6F9" id="STR" d="M139 220v1l-2-2 2 1Z"/><path fill="#A2B1D7" id="SI" d="M154 239h5l2-9c0-4.685-3.88-7.19-7.5-9-1.303-.652-7.5-.219-7.5-2h-1c-1.321 0-6-.684-6 1v1c3.855 0 9.341 5.182 11 8.5l-1 4.5 4 5h1ZM302 239h1l1-1h1l2-3c0-6.248 2.462-14 10-14v-1c0-1.684-4.679-1-6-1 0 2.064-3.353.426-4.5 1-3.242 1.621-11.5 3.939-11.5 9 0 3.395 2 6.106 2 10h5Z"/><path fill="#97D6F9" id="STR" d="m320 219-2 1 2-1Z"/><path fill="#C8CBCC" id="ec" d="M113 243c0 2.729-.423 1-2 1 0-3.392-9.05-19-13-19l-3-4c0-1.306 8.12 8 10 8v1l2 2c0 3.735 6 6.153 6 11Z"/><path fill="#E64438" id="HY" d="M226 222h4c0-2.711-4-1.509-4 0Z"/><path fill="#97D6F9" id="STR" d="m318 220-1 1v-1h1Z"/><path fill="#90EB8D" id="LA" d="M96 225h2l-3-4v4h1Z"/><path fill="#80BFE0" id="CEAc" d="m113 243 4.5 6c2.179 1.09 10.5 3.677 10.5-2 0-5.725-5-8.723-5-14-5.852 0-11-6.43-11-12l-1.5 2c-.729.364-10.011-2.522-7.5 2.5l2 3.5v1l2 2c0 3.735 6 6.153 6 11Z"/><path fill="#FF5D4F" id="PVH" d="m227 243 .5-18c2.041-1.021 1.5 3.062 1.5 4v14l4-2 2-1 2-1v-1l1-1 1-2c0-3.352 4.527-7.554 6-10.5 1.239-2.479-4.759-4.371-6.5-3.5-1.941.971-3.122 1-5.5 1h-10c-2.378 0-3.559-.029-5.5-1-2.511-1.256-6.961 1.579-5.5 4.5l7 11.5v1l2 2c1.238 0 3 .423 3 2l3 1Z"/><path fill="#C8CBCC" id="ec" d="m361 222-2 1c0-1.652 2-3.092 2-1Z"/><path fill="#80BFE0" id="CEAc" d="M343 244c0 2.55-8.275 8.112-10.5 7l-4.5-4c0-5.675 5-8.347 5-14 5.192 0 12-5.77 12-11 4.109 0 8-.349 8 5l-1 2-1 1c0 3.452-8 7.866-8 14Z"/><path fill="#90EB8D" id="LA" d="M359 225h2v-3l-2 1v2Z"/><path fill="#8AD987" id="CTXsp" d="m78 223 1 1-1-1Z"/><path fill="#C8CBCC" id="ec" d="M357 225h2v-2l-2 2Z"/><path fill="#8AD987" id="CTXsp" d="m378 224-1 1 1-1ZM92 233l-4 4-6-7-3-5 3 2c0 4.066 7.116 6 10 6Z"/><path fill="#C8C9CB" id="amc" d="M100 241h1c0-5.089-5-10.129-5-16h-3v2c1.353 0 2 4.643 2 6l5 8Z"/><path fill="#9DE79B" id="BLAa" d="M109 247h1l1-2v-1c0-3.392-9.05-19-13-19h-2c0 5.871 5 10.911 5 16v1l5 5h3Z"/><path fill="#A8A9AA" id="V3" d="M228 275h1v-46c0-.938.541-5.021-1.5-4l-.5 18v24.5c0 1.448-.725 7.5 1 7.5Z"/><path fill="#C8CBCC" id="ec" d="m357 225-1 1 1-1Z"/><path fill="#9DE79B" id="BLAa" d="m352 246-1 1c-2.518 0-4.286-2-6-2 0-6.788 8-10.284 8-16l2-2 1-1 1-1h4l-4 14c-1.577 0-2 1.762-2 3v1l-1 1-1 1-1 1Z"/><path fill="#C8C9CB" id="amc" d="m361 233-4 6 4-14h3l-1 4-2 4Z"/><path fill="#C8CBCC" id="ec" d="m356 226-1 1 1-1Z"/><path fill="#8AD987" id="CTXsp" d="m377 226-1 1 1-1ZM93 233h2c0-1.357-.647-6-2-6v6Z"/><path fill="#97D6F9" id="STR" d="M352 229h1v-2l-1 2Z"/><path fill="#C8CBCC" id="ec" d="m355 227-2 2v-2h2Z"/><path fill="#8AD987" id="CTXsp" d="M369 237v1c-1.846 0-4.35-5-8-5l2-4c0 10.953 9.603-2 12-2h1l-1 2-1 1-1 2-1 1-1 1c-1.577 0-2 1.762-2 3Z"/><path fill="#97D6F9" id="STR" d="m352 229-1 1 1-1Z"/><path fill="#C8CBCC" id="ec" d="m343 244 2 1c0-6.788 8-10.284 8-16h-1l-1 1c0 3.452-8 7.866-8 14Z"/><path fill="#99D2BD" id="OLF" d="m375 229-1 1 1-1ZM88 237v2l-6-9 6 7Z"/><path fill="#97D6F9" id="STR" d="m105 230 2 2-2-2Z"/><path fill="#C7C8CA" id="fx" d="M194 231h4c0 3.083.696 6.108-1 9.5-.65 1.3-4.875 4.249-6 2-2.22-4.439 3-8.164 3-11.5Z"/><path fill="#F2463A" id="PeF" d="M188 253h4c9.067 0 12-15.301 12-21-1.564 0-3.876-1-6-1 0 3.083.696 6.108-1 9.5-.65 1.3-4.875 4.249-6 2-2.22-4.439 3-8.164 3-11.5h-3l-3 3.5c-.994 1.988-3.642 18.5 0 18.5Z"/><path fill="#FF4B3E" id="AHN" fill-rule="evenodd" d="M209 246c0 11.603 12.459 0 0 0m-17 7c0 8.031 14.043 18.229 22.5 14 3.454-1.727 4.5-5.633 4.5-9 0-1.145-.579-4 1-4l-1-13v-4l-8.5-6c-2.161-1.081-4.894 1-6.5 1 0 5.699-2.933 21-12 21ZM244 246l-3 1.5c-4.741 9.482 15.981-1.5 3-1.5m21 7c0 13.136-28 21.903-28 4v-19l1-1 1-2 6.5-4 7.5 1c0 1.606-2.081 4.339-1 6.5 2.725 5.45 5.712 14.5 13 14.5Z"/><path fill="#F2463A" id="PeF" d="M265 253h3c3.644 0 2.005-15.49 1-17.5l-3-4.5h-3l3 8.5c0 5.336-5.258 3.485-7 0l-1-8.5c-1.235 0-5-.643-5 1 0 1.606-2.081 4.339-1 6.5 2.725 5.45 5.712 14.5 13 14.5Z"/><path fill="#C7C8CA" id="fx" d="M258 231h5l3 8.5c0 5.336-5.258 3.485-7 0l-1-8.5Z"/><path fill="#99D2BD" id="OLF" d="m373 232-1 1 1-1Z"/><path fill="#A0ED9D" id="EPv" d="M110 273h1l1-2-1-8v-4l-1-1v-2l-1-1v-2l-4-5c0-2.33-4-3.227-4-6l-1-1-5-8h-3l-4 4v2c0 5.301 19 25.733 19 34h3ZM347 273h1l2-1c0-9.878 19-26.791 19-34-1.846 0-4.35-5-8-5l-4 6c0 1.238-.423 3-2 3v1l-1 1-1 1-1 1-1 1-3 6-1 1-1 5-1 1v11l1 2h1Z"/><path fill="#99D2BD" id="OLF" d="m372 233-1 1 1-1Z"/><path fill="#97D6F9" id="STR" d="M153 239c-2.011 0-3.989 1-6 1l2-6 4 5Z"/><path fill="#99D2BD" id="OLF" d="M371 234c-1.577 0-2 1.762-2 3 1.577 0 2-1.762 2-3Z"/><path fill="#E64438" id="HY" d="m239 235-1 2 1-2Z"/><path fill="#97D6F9" id="STR" d="m305 238 6 3-4-6-2 3Z"/><path fill="#E64438" id="HY" d="m238 237-1 1 1-1Z"/><path fill="#80BFE1" id="MEA" d="m161 278-1 1-1.5 2-3.5-5c0-1.622.461-5-2-5l-2-4-6-6c0-1.009-2.421-5.343-3-6.5-1.749-3.497 2-8.3 2-11.5l1-1 1-1 1-1c2.011 0 3.989-1 6-1h1l7 12 2 9v4c0 5.433-2 9.088-2 14Z"/><path fill="#E64438" id="HY" d="m221 240-2 1v-3l2 2Z"/><path fill="#97D6F9" id="STR" d="m304 238-1 1 1-1Z"/><path fill="#80BFE1" id="MEA" d="M301 278c-1.49 0-2.587 1-5 1l-1-2c0-4.242-2-6.596-2-11v-5c0-3.157 2-5.481 2-9l1-1v-1l2-4 1-1c0-2.364 3-3.053 3-5l1-1 1-1h1l6 3v1l3 5.5c2.21 4.42-2 9.93-2 13.5l-6 5-2 3c-2.54 0-3 6.843-3 9Z"/><path fill="#8599CC" id="PAL" d="M161 250v1l-7-12h5c0 4.296 2 7.018 2 11Z"/><path fill="#E64438" id="HY" d="M235 240h2v-1l-2 1Z"/><path fill="#8599CC" id="PAL" d="M296 249v1l2-4 1-1c0-2.364 3-3.053 3-5v-1h-5l-1 10Z"/><path fill="#97D6F9" id="STR" d="m303 239-1 1v-1h1Z"/><path fill="#C8C9CB" id="amc" d="M357 239c-1.577 0-2 1.762-2 3 1.577 0 2-1.762 2-3Z"/><path fill="#97D6F9" id="STR" d="m147 240-1 1 1-1Z"/><path fill="#FD5547" id="SBPV" d="M220 254c0 1.649.308 10 2.5 10l1.5-3v-19c0-1.577-1.762-2-3-2l-2 1 1 13ZM237 257c-2.232 0-.316 7-4 7v-23l2-1h2v17Z"/><path fill="#8AD987" id="CTXsp" d="M101 241v1l-1-1h1Z"/><path fill="#97D6F9" id="STR" d="m146 241-1 1 1-1Z"/><path fill="#FD5D50" id="PVi" d="M233 264v9.5c-1.147 2.293-4 7.427-4 1.5v-32l4-2v23Z"/><path fill="#C8C9CB" id="amc" d="m106 247-1 1c0-2.33-4-3.227-4-6l5 5Z"/><path fill="#97D6F9" id="STR" d="m145 242-1 1 1-1Z"/><path fill="#FD5D50" id="PVi" d="M224 261v14.5c1.366 2.732 4 2.513 4-.5-1.725 0-1-6.052-1-7.5V243l-3-1v19Z"/><path fill="#97D6F9" id="STR" fill-rule="evenodd" d="M315 246c0 9.616 10.925 0 0 0m-3 15h2c0-1.643 3.765-1 5-1v-1c-2.771 0-4.312-5 2-5 0-5.95 11.573-1.963 13.5-1l3.5 3c0-3.487 1.622-9 6-9l1-2-2-1c0 2.55-8.275 8.112-10.5 7l-4.5-4c-5.807 0-11.706-5-17-5l3 5.5c2.21 4.42-2 9.93-2 13.5ZM139 246l-3 1.5c-3.803 7.605 12.795-1.5 3-1.5m3 15h3c0-1.009-2.421-5.343-3-6.5-1.749-3.497 2-8.3 2-11.5-4.875 0-10.731 4-16 4 0 5.677-8.321 3.09-10.5 2l-4.5-6c0 2.729-.423 1-2 1v1l1 2c3.225 0 7 5.096 7 8l6.5-4c4.494-2.247 7.565 3 10.5 3 6.971 0 2.688 5 2 5l4 2Z"/><path fill="#C8C9CB" id="amc" d="m355 243-1 1 1-1ZM354 244l-1 1 1-1Z"/><path fill="#8AD987" id="CTXsp" d="M110 247h2l-1-2-1 2Z"/><path fill="#97D6F9" id="STR" d="m299 245-1 1 1-1Z"/><path fill="#8AD987" id="CTXsp" d="m351 247-3 6c0-3.643.295-6-4-6l1-2c1.714 0 3.482 2 6 2Z"/><path fill="#C8C9CB" id="amc" d="m353 245-1 1 1-1Z"/><path fill="#80C0E2" id="AAA" d="m139 246-3 1.5c-3.803 7.605 12.795-1.5 3-1.5Z"/><path fill="#FE5D4E" id="ASO" d="M209 246c0 11.603 12.459 0 0 0ZM244 246l-3 1.5c-4.741 9.482 15.981-1.5 3-1.5Z"/><path fill="#80C0E2" id="AAA" d="M315 246c0 9.616 10.925 0 0 0Z"/><path fill="#C8C9CB" id="amc" d="m352 246-1 1 1-1Z"/><path fill="#8AD987" id="CTXsp" d="m105 248 4 5v-6h-3l-1 1Z"/><path fill="#80BEE2" id="IA" d="m111 260 2 1c2.154 0 6-3.846 6-6 0-2.904-3.775-8-7-8h-3v8l1 1v2l1 1v1ZM342 260h3l1-1 1-5 1-1c0-3.643.295-6-4-6-4.378 0-6 5.513-6 9 0 1.896 2.077 4 4 4Z"/><path fill="#E64438" id="HY" d="M277 263h2c0-7.144 12.695-2 14-2 0-3.157 2-5.481 2-9l1-1v-2l-3.5 3c-2.172 1.086-15.5 8.685-15.5 11ZM228 283h1c0-3.417 7.565-3.033 9.5-4 3.191-1.595 25.865-11.068 28-10l.5 4 4-2v-1l1-1 1-1 1-1 1-1v-1l-2.5 1c-2.109 0-4.5-11.242-4.5-13h-3c0 13.136-28 21.903-28 4-2.232 0-.316 7-4 7v9.5c-1.147 2.293-4 7.427-4 1.5h-1c0 3.013-2.634 3.232-4 .5V261l-1.5 3c-2.192 0-2.5-8.351-2.5-10-1.579 0-1 2.855-1 4 0 3.367-1.046 7.273-4.5 9-8.457 4.229-22.5-5.969-22.5-14h-4c0 28.48-17.013-3-27-3v1l2 9c9.445 0 4.819-1.84 14.5 3l4.5 4 1 1 7 6-1-4.5c1.594-3.188 9.198 1.849 10.5 2.5 6.798 3.399 15.305 3.653 22 7l6.5 4Z"/><path fill="#84EA80" id="BMAa" d="M113 274c0 1.077 3.762 3 5 3 4.86 0 9.286-6 15-6l1-2c0-3.119 3-5.616 3-8v-2c-1.643 0-1-3.765-1-5-2.935 0-6.006-5.247-10.5-3l-6.5 4c0 2.154-3.846 6-6 6l-2 2 1 8 1 3Z"/><path fill="#8599CC" id="PAL" d="m296 251-1 1 1-1Z"/><path fill="#84EA80" id="BMAa" d="M339 277h2l1-1 1-1 2-4v-9l-3-2c-1.923 0-4-2.104-4-4l-3.5-3c-1.927-.963-13.5-4.95-13.5 1 0 1.622.461 5-2 5v1l1 2c0 2.16 2 4.167 2 7l2 2c5.435 0 10.093 6 15 6Z"/><path fill="#C7CAC8" id="stc" d="M137 259h1c.688 0 4.971-5-2-5 0 1.235-.643 5 1 5ZM321 254c-6.312 0-4.771 5-2 5 2.461 0 2-3.378 2-5Z"/><path fill="#8AD987" id="CTXsp" d="m348 253-1 1 1-1ZM109 255l1 1-1-1ZM110 258l1 1-1-1Z"/><path fill="#99D2BD" id="OLF" d="M137 261h5l-4-2h-1v2Z"/><path fill="#CAC7CB" id="fiber tracts" d="m182 267-5.5-4c-6.959-3.48-9.5.75-9.5 8l-4-7v-4c9.445 0 4.819-1.84 14.5 3l4.5 4ZM293 266l-4 5c0-12.781-1.652-8-10-8 0-7.144 12.695-2 14-2v5Z"/><path fill="#8AD987" id="CTXsp" d="m346 259-1 1 1-1ZM113 261l-2 2v-3l2 1Z"/><path fill="#99D2BD" id="OLF" d="M314 261c2.124 0 4.436 1 6 1l-1-2c-1.235 0-5-.643-5 1Z"/><path fill="#8AD987" id="CTXsp" d="M345 260v2l-3-2h3Z"/><path fill="#94E4C7" id="NLOT3" d="m134 272 1 2c0-8.343 11.146-7 16-7l-6-6h-8c0 2.384-3 4.881-3 8v3Z"/><path fill="#CACCCB" id="opt" d="m167 271 1 1c3.01 0 18.47 10.985 22.5 13 2.351 1.175 5.943-.614 4.5-3.5L183 268l-1-1-5.5-4c-6.959-3.48-9.5.75-9.5 8ZM261 281c0 7.289 6.207 2 10 2 0-1.944 10.115-7 12-7 0-1.712 2.571-3 4-3h1l1-1v-1c0-12.781-1.652-8-10-8 0 1.577-1.762 2-3 2l-1 1-1 1-1 1-1 1-1 1v1l-6 6-2 2-1 1-1 1Z"/><path fill="#94E4C7" id="NLOT3" d="M322 269v3l-2.5-3c-4.181-2.091-8.411-3-13.5-3l6-5h2c2.124 0 4.436 1 6 1 0 2.16 2 4.167 2 7Z"/><path fill="#E64438" id="HY" d="M275 265h1l1-2c-1.747 0-2 .253-2 2Z"/><path fill="#CAC7CB" id="fiber tracts" d="M279 263c0 1.577-1.762 2-3 2l1-2h2ZM276 265l-1 1v-1h1Z"/><path fill="#95E3C8" id="NLOT2" d="M135 274c0 4.427 4 7.6 4 8 7.734 0 14-2.571 14-11l-2-4c-4.854 0-16-1.343-16 7Z"/><path fill="#CAC7CB" id="fiber tracts" d="m275 266-1 1 1-1Z"/><path fill="#95E3C8" id="NLOT2" d="M322 273c0 3.133-1.262 9-5 9-9.783 0-13-4.703-13-13l2-3c5.089 0 9.319.909 13.5 3l2.5 3v1Z"/><path fill="#CAC7CB" id="fiber tracts" d="m274 267-1 1 1-1ZM219 287h2c0 1.03-13.251 2-15 2-12.018 0-18.695-5.097-28.5-10-1.858-.929-9.5-4.143-9.5-7 3.01 0 18.47 10.985 22.5 13 2.351 1.175 5.943-.614 4.5-3.5L183 268l7 6 7.5 9c1.3.65 6.5.007 6.5 2-7.67 0 11.312 2 15 2ZM273 268l-1 1 1-1Z"/><path fill="#99D2BD" id="OLF" d="m133 271 1 1v-3l-1 2Z"/><path fill="#F2483B" id="RCH" d="M221 287h5l2-4-6.5-4c-6.695-3.347-15.202-3.601-22-7-1.302-.651-8.906-5.688-10.5-2.5l1 4.5 7.5 9c1.3.65 6.5.007 6.5 2h3c1.145 0 4-.579 4 1 1.49 0 8-.735 8 1h2ZM236 287h2c0-1.714 5.594-1 7-1 0-1.643 3.765-1 5-1h2c0-1.951 2.454-.477 3.5-1l5.5-3 1-1 1-1c0-1.747.253-2 2-2l2-4-.5-4c-2.135-1.068-24.809 8.405-28 10-1.935.967-9.5.583-9.5 4l1 4h6Z"/><path fill="#CAC7CB" id="fiber tracts" d="m272 269-1 1 1-1Z"/><path fill="#95E4C7" id="NLOT1" d="M317 282c0 3.817-3 6.124-3 9-8.223 0-13-4.777-13-13 0-2.157.46-9 3-9 0 8.297 3.217 13 13 13Z"/><path fill="#99D2BD" id="OLF" d="M322 272v1l2-2-2-2v3Z"/><path fill="#8AD987" id="CTXsp" d="M112 274h1l-1-3-1 2v1h1Z"/><path fill="#60E5B7" id="COAa" d="M119 298c2.097 0 5.293 1 8 1 0-1.175 5.704-2 7-2 0-1.353 4.643-2 6-2 0-1.457 3-1.46 3-4 0-2.665-4-5.362-4-9 0-.4-4-3.573-4-8l-1-2-1-1c-5.714 0-10.14 6-15 6l-1 2c0 6.343 2 13.253 2 19Z"/><path fill="#95E4C7" id="NLOT1" d="M143 291h5c0-1.577 1.762-2 3-2l4-5.5V276c0-1.622.461-5-2-5 0 8.429-6.266 11-14 11 0 3.638 4 6.335 4 9Z"/><path fill="#CAC7CB" id="fiber tracts" d="m267 273-2 4 6-6-4 2Z"/><path fill="#60E5B7" id="COAa" d="M314 291c0 6.925 18.602 7 23 7 0-4.433 3-12.246 3-19l-1-2c-4.907 0-9.565-6-15-6l-2 2c0 3.133-1.262 9-5 9 0 3.817-3 6.124-3 9Z"/><path fill="#8AD987" id="CTXsp" d="M343 275h1l1-1 1-1-1-2-2 4Z"/><path fill="#CAC7CB" id="fiber tracts" d="m289 272-1 1 1-1Z"/><path fill="#99D2BD" id="OLF" d="m348 273 2 1v-2l-2 1ZM108 273l-2 1 1-1h1Z"/><path fill="#59D9AA" id="PAA" d="M114 301h3l2-3c0-5.747-2-12.657-2-19l-5-5h-1l-1-1h-2l-2 1c0 2.86-9.4 22-12 22 0 2.98 10.449 5 13 5h7Z"/><path fill="#99D2BD" id="OLF" d="M111 273v1l-1-1h1Z"/><path fill="#CAC7CB" id="fiber tracts" d="M287 273c-1.429 0-4 1.288-4 3 1.429 0 4-1.288 4-3Z"/><path fill="#99D2BD" id="OLF" d="m347 273-2 1 1-1h1Z"/><path fill="#59D9AA" id="PAA" d="M349 301h4l1-1c1.628 0 9-2.347 9-4-2.567 0-13-18.831-13-22l-2-1h-1l-2 1-1 1h-1l-1 1-1 1-1 2c0 6.754-3 14.567-3 19 1.577 0 2 1.762 2 3h10Z"/><path fill="#99D2BD" id="OLF" d="m118 277-1 2-5-5h1c0 1.077 3.762 3 5 3ZM345 274l-1 1 1-1ZM343 275l-1 1 1-1ZM161 280c0 3.32-6.981 9-10 9l4-5.5V276l3.5 5 1.5-2 1 1Z"/><path fill="#CAC7CB" id="fiber tracts" d="M283 276c-1.885 0-12 5.056-12 7 2.185 0 12-4.206 12-7Z"/><path fill="#99D2BD" id="OLF" d="m342 276-1 1 1-1Z"/><path fill="#CAC7CB" id="fiber tracts" d="M265 277c-1.747 0-2 .253-2 2l2-2Z"/><path fill="#97D6F9" id="STR" d="m296 279-1 1v-3l1 2Z"/><path fill="#99D2BD" id="OLF" d="m341 277-1 2-1-2h2Z"/><path fill="#97D6F9" id="STR" d="m160 279 1 1v-2l-1 1Z"/><path fill="#99D2BD" id="OLF" d="M337 298c1.577 0 2 1.762 2 3-13.359 0-23.426-6.463-34.5-12l-9.5-9 1-1c2.413 0 3.51-1 5-1 0 8.223 4.777 13 13 13 0 6.925 18.602 7 23 7Z"/><path fill="#CAC7CB" id="fiber tracts" d="m263 279-1 1 1-1ZM262 280l-1 1 1-1ZM236 287h2c3.517 0 21.767-2 14-2 0-1.951 2.454-.477 3.5-1l5.5-3c0 7.289 6.207 2 10 2 0 3.991-21.72 7.39-26.5 5-1.487-.743-8.5 1.308-8.5-1ZM226 287h4l-1-4h-1l-2 4Z"/><path fill="#CCCAC9" id="sup" d="M211 286c1.49 0 8-.735 8 1-3.688 0-22.67-2-15-2h3c0 1.579 2.855 1 4 1Z"/><path fill="#CAC7CB" id="fiber tracts" d="M207 285c1.145 0 4-.579 4 1-1.145 0-4 .579-4-1ZM250 285c-1.235 0-5-.643-5 1 1.235 0 5 .643 5-1Z"/><path fill="#CCCAC9" id="sup" d="M245 286c-1.406 0-7-.714-7 1 3.517 0 21.767-2 14-2h-2c0 1.643-3.765 1-5 1Z"/><path fill="#99D2BD" id="OLF" d="M151 289c-1.238 0-3 .423-3 2 1.238 0 3-.423 3-2ZM148 291c0 1.54-6.3 4-8 4 0-1.457 3-1.46 3-4h5ZM140 295c-1.357 0-6 .647-6 2 1.623 0 6-.005 6-2ZM134 297c-1.296 0-7 .825-7 2 1.774 0 7 .273 7-2ZM127 299c0 1.888-8.072 2-10 2l2-3c2.097 0 5.293 1 8 1ZM354 300l-1 1 1-1ZM107 301h7c0 1.602-7 1.602-7 0ZM342 301h7c0 1.602-7 1.602-7 0Z"/></svg>