<svg xmlns="http://www.w3.org/2000/svg" viewBox="0 0 456 320"><path fill="#FCFB90" id="CUL4, 5" fill-rule="evenodd" d="M164 97c0 2.113-.141 2.781-1 4.5-.416.833.233 5.534 1 4 .554-1.108 1.973-8.5 0-8.5m127-2 1.5 9c1.315 0-.217-9-1.5-9m-76-45c0 3.806 17.118 4.191 19.5 3 .849-.425 6.5-1.245 6.5-2.5 0-1.652-8.32.5-9 .5l-17-1m76 77c4.486 0 3.251-13.997 2-16.5l.5-5.5.5 2.5c1.562 3.124 1 7.259 1 11 0 8.249 6.402 20.5 16 20.5 0-19.491-1.874-41.248-10-57.5-2.628-5.256-14-21.871-14-26.5-4.025 0-7.049-7.775-11.5-10-7.353-3.676-32.502-14.75-42-10-5.348 2.674-13.261 0-19.5 0-8.509 0-18.364 2.432-25.5 6l-13 8-5.5 6-13 22.5c-8.637 17.275-12 40.887-12 61.5 9.578 0 16-11.611 16-20 0-3.374-.402-6.696 1-9.5l.5-3.5.5 6c0 3.06-2.282 15 3 15l7-13.5 2-8c2.084-4.167 4.932-7.864 7-12 9.608-19.217 52.974-25.263 70.5-16.5 20.362 10.181 21.177 16.854 30.5 35.5.975 1.95 8 13.527 8 14.5Z"/><path fill="#FDFB8F" id="SIM" fill-rule="evenodd" d="M147 65c0 1.93 1.93 0 0 0m1-1c0 1.93 1.93 0 0 0m-24 65c2.735 0 3.974-11.447 5-13.5 6.039-12.078 6-27 12-39 1.011-2.023 1.197-10.5 5.5-10.5.905 0-3.049 7.597-3.5 8.5-2.039 4.078-.919 9.838-3 14l-3 14c-5.005 10.01-10.22 36.5 8 36.5 0-20.613 3.363-44.225 12-61.5L170 55c-1.213 0-3.811-5.155-5.5-6-5.534-2.767-16.071-.465-21 2-8.245 4.122-15.625 9.813-24 14-1.943.971-1.516 7-4.5 7 0 1.654 3.155 6.81 4 8.5v33c2.052 4.103 5 10.765 5 15.5Z"/><path fill="#FDFB8F" id="SIM" d="M333 129c-3.487 0-4.826-12.152-6-14.5-5.558-11.116-5.475-24.949-11-36-1.664-3.329-1.23-13.5-7.5-13.5l3.5 6.5c2.271 4.542 1.716 10.432 4 15l3 14c5.091 10.182 10.974 38.5-8 38.5 0-19.491-1.874-41.248-10-57.5-2.628-5.256-14-21.871-14-26.5 0-5.226 10.917-9.291 15.5-7 9.645 4.823 31.166 8.832 36.5 19.5v3l2 1.5-4 9.5 1 29c-2.483 4.967-5 12.667-5 18.5Z"/><path fill="#CBC9CC" id="arb" d="M215 50c0 3.806 17.118 4.191 19.5 3 .849-.425 6.5-1.245 6.5-2.5 0-1.652-8.32.5-9 .5l-17-1ZM148 64c0 1.93 1.93 0 0 0ZM147 65c0 1.93 1.93 0 0 0Z"/><path fill="#CBC9CC" id="arb" fill-rule="evenodd" d="m239 146-2 1.5c0 4.4 14.692-1.5 4.5-1.5H239m-28 0c0 4 8 3.968 8 1.5 0-2.329-6.61-1.5-8-1.5m-2-31c0 2.334-4.181 1.341-5.5 2-4.029 2.014-7.947 1.947-11.5 5.5-1.144 1.144-3.985 3.03-3 5 2.514 5.027 9.414 7.457 13.5 9.5 19.352 9.676 31.702 9.649 51 0 4.425-2.212 11.457-4.414 13.5-8.5 2.001-4.001-2.724-4.448-4-7-2.594-5.187-22.032-6.5-29-6.5h-25m-88 78-2 1c0-.938.541-5.021-1.5-4-8.959 4.479-12.112 12.556-21 17-3.99 1.995-10.187 2.187-13.5 5.5-3.321 3.321-5.113 6.225-7 10-.002.004-.571 7.858-2 5-1.586-3.172-1.587-8.826 0-12l1-6c3.46-6.921 16.711-5.606 22.5-8.5 5.405-2.702 6.232-6.963 8.5-11.5 1.467-2.935 9-2.091 9-6.5 4.79 0 .738-12.023 0-13.5-3.811-7.622-9.379-6.5-16-6.5-4.696 0-7.885 2-13 2 0-1.698 11.165-6 13-6 4.621 0 14.469-11.563 12-16.5l-9-12c-2.985-5.97-4.058-13.115-7-19l-4-2L97.5 98c1.007 0-1.5 8.885-1.5 10 0 5.998 2.567 8.635 5 13.5v4c2.293 4.586 6.342 10.421 10.5 12.5 4.05 2.025 12.5-5.307 12.5-9 2.735 0 3.974-11.447 5-13.5 6.039-12.078 6-27 12-39 1.011-2.023 1.197-10.5 5.5-10.5.905 0-3.049 7.597-3.5 8.5-2.039 4.078-.919 9.838-3 14l-3 14c-5.005 10.01-10.22 36.5 8 36.5 9.578 0 16-11.611 16-20 0-3.374-.402-6.696 1-9.5l.5-3.5.5 6c0 3.06-2.282 15 3 15 0 1.665 4.222 1 5.5 1 5.129 0 8.691-5.846 13-8 2.609-1.305 6.485.257 9-1l12-6c2.812-1.406 7.078.461 10-1 3.221-1.611 14.254-1.373 17 0l18 1c3.6 1.8 8.678 3.839 13 6h7c12.244 6.122 5.149 8 20.5 8 4.486 0 3.251-13.997 2-16.5l.5-5.5.5 2.5c1.562 3.124 1 7.259 1 11 0 8.249 6.402 20.5 16 20.5 18.974 0 13.091-28.318 8-38.5l-3-14c-2.284-4.568-1.729-10.458-4-15l-3.5-6.5c6.27 0 5.836 10.171 7.5 13.5 5.525 11.051 5.442 24.884 11 36 1.174 2.348 2.513 14.5 6 14.5 0 4.256 7.697 11.402 12.5 9 1.644-.822 6.58-8.341 7.5-6.5 1.031 2.061-5.149 6.298-6 8-3.32 6.64 2.926 19.5 11 19.5 1.526 0 13 4.927 13 6-5.433 0-9.088-2-14-2 0-2.448-6.532-.484-7.5 0-4.185 2.092-10.5 6.589-10.5 12 0 1.899-.488 8 2 8 0 4.523 7.275 3.051 9 6.5 2.325 4.65 3.498 8.999 8.5 11.5 9.988 4.994 24.5 1.694 24.5 17.5 0 3.439.428 7.143-1 10-1.046 2.091-.889-3.778-1-4-1.633-3.267-2.567-9.534-6.5-11.5-10.277-5.139-17.836-7.836-27-17-1.51-1.51-6.803-7.098-9-6-2.751 1.375-.5 3.044-.5 5l-6-8c1.995 0 4.919.662 6-1.5l-1-24c-5.208-10.416-8.982-4.5-16-4.5 0-2.133 5.644-4.928 1.5-7-3.501-1.75-6.999 5-11 3-4.136-2.068-32.5-13.956-32.5-5-8.419 0-10-4.834-10 7-2.032 0-10 2.483-10 5.5l4 2.5c-4.911 0-13.84 3-18 3-1.048 0-3-.473-3 1-3.054 0 5-4.299 5-6 3.392 0-1.506-5.503-2.5-6-7.549-3.775-35.5-6.538-35.5 6 0 4.893 12.851 5 2 5-4.734 0-11.58-3-17-3h-1l4-2.5c0-3.017-7.968-5.5-10-5.5 0-11.834-1.581-7-10-7 0-8.988-27.898 2.699-32.5 5-4.001 2-7.499-4.75-11-3-2.819 1.41 1.5 6.047 1.5 7-6.714 0-11.051-5.397-16 4.5-1.095 2.189-.881 23.238 0 25l6 .5v1l-1 1-1 1c-1.577 0-2 1.762-2 3Z"/><path fill="#FCFC90" id="ANcr1" d="M72 150c1.947 0 3.644-3.428 6.5-2l10 7c1.611.806 10.5 1.968 10.5 4 4.621 0 14.469-11.563 12-16.5l-9-12c-2.985-5.97-4.058-13.115-7-19l-4-2L97.5 98c1.007 0-1.5 8.885-1.5 10 0 5.998 2.567 8.635 5 13.5v4c2.293 4.586 6.342 10.421 10.5 12.5 4.05 2.025 12.5-5.307 12.5-9 0-4.735-2.948-11.397-5-15.5v-33c-.845-1.69-4-6.846-4-8.5-4.086 0-7.602-.949-11.5 1-8.572 4.286-21.21 16.92-25.5 25.5-3.46 6.921-11.377 12.754-15 20-4.494 8.987-2.205 24.148 6.5 28.5l2.5 3Z"/><path fill="#FCFC90" id="ANcr1" fill-rule="evenodd" d="M353 129c0 3.746 2.091 0 0 0m1-2c0 3.746 2.091 0 0 0m4-30c0 5.745 4.815 10.871 2 16.5l-5 11 .5 2.5c1.967 0 2.86-8.221 3.5-9.5 4.949-9.898 7.011-4.979 2-15l-3-5.5m26 54c0-2.34-4.533-3.984-6.5-3l-9 7c-1.819.909-10.5 1.241-10.5 4-8.074 0-14.32-12.86-11-19.5.851-1.702 7.031-5.939 6-8-.92-1.841-5.856 5.678-7.5 6.5-4.803 2.402-12.5-4.744-12.5-9 0-5.833 2.517-13.533 5-18.5l-1-29 4-9.5 5.5-1 10 4c13.606 6.803 32.492 36.485 38.5 48.5 3.367 6.734-5.38 27.5-11 27.5Z"/><path fill="#FFFC8E" id="CENT3" d="M166 127c0 1.665 4.222 1 5.5 1 5.129 0 8.691-5.846 13-8 2.609-1.305 6.485.257 9-1l12-6c2.812-1.406 7.078.461 10-1 3.221-1.611 14.254-1.373 17 0l18 1c3.6 1.8 8.678 3.839 13 6h7c12.244 6.122 5.149 8 20.5 8 0-.973-7.025-12.55-8-14.5-9.323-18.646-10.138-25.319-30.5-35.5-17.526-8.763-60.892-2.717-70.5 16.5-2.068 4.136-4.916 7.833-7 12l-2 8-7 13.5Z"/><path fill="#CBC9CC" id="arb" d="m291 95 1.5 9c1.315 0-.217-9-1.5-9ZM164 97c0 2.113-.141 2.781-1 4.5-.416.833.233 5.534 1 4 .554-1.108 1.973-8.5 0-8.5ZM358 97c0 5.745 4.815 10.871 2 16.5l-5 11 .5 2.5c1.967 0 2.86-8.221 3.5-9.5 4.949-9.898 7.011-4.979 2-15l-3-5.5Z"/><path fill="#FFFC8E" id="CENT3" d="M209 115c0 2.334-4.181 1.341-5.5 2-4.029 2.014-7.947 1.947-11.5 5.5-1.144 1.144-3.985 3.03-3 5 2.514 5.027 9.414 7.457 13.5 9.5 19.352 9.676 31.702 9.649 51 0 4.425-2.212 11.457-4.414 13.5-8.5 2.001-4.001-2.724-4.448-4-7-2.594-5.187-22.032-6.5-29-6.5h-25Z"/><path fill="#CBC9CC" id="arb" d="M354 127c0 3.746 2.091 0 0 0ZM353 129c0 3.746 2.091 0 0 0Z"/><path fill="#FFFDBC" id="IP" d="M147 167h4c0-1.612 12.741-10 15-10h2c0-.184 9-3.519 9-9 0-8.988-27.898 2.699-32.5 5-4.001 2-7.499-4.75-11-3-2.819 1.41 1.5 6.047 1.5 7 2.218 0 4 5.144 4 7 .403 0 3.274 3 8 3ZM305 167h4c3.015 0 6.004-2 8-2 0-2.178 1.686-8 4-8 0-2.133 5.644-4.928 1.5-7-3.501-1.75-6.999 5-11 3-4.136-2.068-32.5-13.956-32.5-5 0 1.971 3.185 6.343 4.5 7 .93.465 4.5.817 4.5 2h2c3.215 0 15 7.167 15 10Z"/><path fill="#CBC8CA" id="cbc" d="M211 146c0 4 8 3.968 8 1.5 0-2.329-6.61-1.5-8-1.5ZM239 146l-2 1.5c0 4.4 14.692-1.5 4.5-1.5H239Z"/><path fill="#F0F080" id="CB" d="M161 165h2l1-1h2c0-2.768 6.241 0 7 0 0-6.762 7.896-5 12-5 0-2.177-.641-4 2-4 0-11.834-1.581-7-10-7 0 5.481-9 8.816-9 9 1.735 0 3.465 3.017 1.5 4-1.64.82-8.5 1.505-8.5 4ZM304 171l15 7-2-13c-1.996 0-4.985 2-8 2l2 1.5-7 .5c-.99 0-13.675-6.088-15.5-7-1.338-.669-2.667-5-.5-5 0-1.183-3.57-1.535-4.5-2-1.315-.657-4.5-5.029-4.5-7-8.419 0-10-4.834-10 7 2.098 0 3 1.939 3 4 2.557 0 12-2.052 12 4 1.406 0 7-.714 7 1h1l1 1 3 1 1 1h1l2 2h1l2 2h1Z"/><path fill="#FCFA91" id="ANcr2" d="M86 165c-1.238 0-3 .423-3 2-6.788 0-11-11.471-11-17 1.947 0 3.644-3.428 6.5-2l10 7c1.611.806 10.5 1.968 10.5 4-1.835 0-13 4.302-13 6ZM371 165c1.238 0 3 .423 3 2 6.352 0 10-11.292 10-16 0-2.34-4.533-3.984-6.5-3l-9 7c-1.819.909-10.5 1.241-10.5 4 1.526 0 13 4.927 13 6Z"/><path fill="#FDFA91" id="CENT2" d="M209 161h38c3.392 0-1.506-5.503-2.5-6-7.549-3.775-35.5-6.538-35.5 6Z"/><path fill="#FFFDBB" id="DN" fill-rule="evenodd" d="M135 167c0 7.143 6.358 0 0 0m-9 19-1 1-6-.5c-.881-1.762-1.095-22.811 0-25 4.949-9.897 9.286-4.5 16-4.5 2.218 0 4 5.144 4 7 0 5.599-2 9.98-2 15-1.593 0-8 2.896-8 5h-1l-1 1-1 1Z"/><path fill="#FFFCBC" id="FN" d="M191 163h2l4-2.5c0-3.017-7.968-5.5-10-5.5-2.641 0-2 1.823-2 4l6 4ZM263 163h2c2.46 0 4.17-4 7-4 0-2.061-.902-4-3-4-2.032 0-10 2.483-10 5.5l4 2.5Z"/><path fill="#FFFDBB" id="DN" fill-rule="evenodd" d="M319 167c0 5.395 3.807 0 0 0m10 18 3 2c1.995 0 4.919.662 6-1.5l-1-24c-5.208-10.416-8.982-4.5-16-4.5-2.314 0-4 5.822-4 8l2 13v1c1.969 0 10 3.732 10 6Z"/><path fill="#F0F080" id="CB" d="M166 157c-2.259 0-15 8.388-15 10 1.835 0 15-8.531 15-10Z"/><path fill="#CBC9CB" id="scp" d="M147 167h4c1.835 0 15-8.531 15-10h2c1.735 0 3.465 3.017 1.5 4-1.64.82-8.5 1.505-8.5 4l-2 1c-3.62 0-12 6.774-12 1ZM305 167h4l2 1.5-7 .5c-.99 0-13.675-6.088-15.5-7-1.338-.669-2.667-5-.5-5h2c0 .279 12.67 10 15 10Z"/><path fill="#F0F080" id="CB" d="M290 157c3.215 0 15 7.167 15 10-2.33 0-15-9.721-15-10Z"/><path fill="#FEFDBC" id="VeCB" d="M183 172h1c0-1.473 1.952-1 3-1l2-2 1-1 1-1v-4l-6-4c-4.104 0-12-1.762-12 5 4.72 0 6.958 8 10 8ZM272 172h2l1-1c0-1.634 2.634-4 4-4 0-2.293.997-2 3-2l1-1 1-1c0-6.052-9.443-4-12-4-2.83 0-4.54 4-7 4v4l1 1 2 1 4 3Z"/><path fill="#FEFA91" id="LING" d="M211 166c0 1.59 4.386 1.443 5.5 2 4.829 2.415 13.312 1 19 1 1.483 0 6.5-.487 6.5-2-3.054 0 5-4.299 5-6h-38c0 4.893 12.851 5 2 5Z"/><path fill="#FFF990" id="COPY" d="M99 167c4.173 0 16 11.838 16 16 4.79 0 .738-12.023 0-13.5-3.811-7.622-9.379-6.5-16-6.5v4ZM357 167c-3.685 0-16 11.905-16 16-2.488 0-2-6.101-2-8 0-5.411 6.315-9.908 10.5-12 .968-.484 7.5-2.448 7.5 0v4Z"/><path fill="#FFFB8E" id="PRM" d="M99 167c-3.876 0-6.996 2-10 2-1.356 0-6-.647-6-2 0-1.577 1.762-2 3-2 5.115 0 8.304-2 13-2v4Z"/><path fill="#FF9BCD" id="MY" d="M183 172c0 1.473-1.952 1-3 1 0-6.732-8.628-9-14-9 0-2.768 6.241 0 7 0 4.72 0 6.958 8 10 8Z"/><path fill="#F0F080" id="CB" d="m194 163-3 4v-4h3Z"/><path fill="#AAA9A7" id="V4" d="M227 203h2c1.688 0 5.715-12 11-12 0-9.223 22.723-19 30-19l-2-3-2-1-1-1v-1l-2-3c-4.911 0-13.84 3-18 3 0 1.473-1.952 1-3 1 0 1.513-5.017 2-6.5 2-5.688 0-14.171 1.415-19-1-1.114-.557-5.5-.41-5.5-2-4.734 0-11.58-3-17-3l-3 4-1 1-1 1-2 2v1c0 1.344 7.273 1.387 8.5 2 4.551 2.276 21.5 10.034 21.5 17 2.963 0 10 9.482 10 12Z"/><path fill="#F0F080" id="CB" d="M265 163v3l-2-3h2ZM284 163l-1 1 1-1Z"/><path fill="#FF9BCD" id="MY" d="m291 164-9 1 1-1 1-1c1.406 0 7-.714 7 1Z"/><path fill="#FFFB8E" id="PRM" d="M374 167c0 1.353-4.643 2-6 2-3.446 0-6.77-2-11-2v-4c4.912 0 8.567 2 14 2 1.238 0 3 .423 3 2Z"/><path fill="#F0F080" id="CB" d="m153 171-16 8c0-5.02 2-9.401 2-15 .403 0 3.274 3 8 3 0 5.774 8.38-1 12-1v1l-1 1h-1l-1 1h-1l-1 1-1 1Z"/><path fill="#FF9BCD" id="MY" d="m164 164-1 1 1-1Z"/><path fill="#FDB3D6" id="SUV" d="m176 180-6.5 5c-5.459 2.729-11.319 0-15.5 0l-3-10 2-4 1-1 1-1h1l1-1h1l1-1 1-1 1-1h2l1-1h2c5.372 0 14 2.268 14 9l-3 6-1 1ZM303 184l-1 1c-4.228 0-9.256 2.622-14.5 0-1.541-.77-6.935-6-7.5-6l-1-1-2-5c0-2.72 2-3.553 2-6 1.238 0 3-.423 3-2l9-1h1l1 1 3 1 1 1h1l2 2h1l2 2h1l1 5c0 2.522-2 4.909-2 8Z"/><path fill="#FF9BCD" id="MY" d="m292 164 1 1-1-1Z"/><path fill="#F0F080" id="CB" d="M159 166h1l1-1-2 1Z"/><path fill="#FF9BCD" id="MY" d="M282 165c-2.003 0-3-.293-3 2 1.238 0 3-.423 3-2ZM160 166l-1 1v-1h1Z"/><path fill="#FEFA91" id="LING" d="M245 166c-1.048 0-3-.473-3 1 1.048 0 3 .473 3-1Z"/><path fill="#FF9BCD" id="MY" d="m296 166 1 1-1-1Z"/><path fill="#FFFC8D" id="PFL" d="m106 227-1 1c0 2.976-4.588 9.675-6 12.5l-4 13-5 7-4.5 2.5c-12.385 6.192-25.862.776-32.5-12.5-3.624-7.248-7.132-43.737-3-52 3.607-7.214 9.243-12.871 16.5-16.5 8.314-4.157 18.496 5.252 23 3 2.627-1.313-1.401-9.303-2.5-11.5-1.058-2.116 2-2.898 2-4.5 3.004 0 6.124-2 10-2 4.173 0 16 11.838 16 16 0 4.409-7.533 3.565-9 6.5-2.268 4.537-3.095 8.798-8.5 11.5-5.789 2.894-19.04 1.579-22.5 8.5l-1 6c-1.587 3.174-1.586 8.828 0 12 1.429 2.858 1.998-4.996 2-5 1.887-3.775 3.679-6.679 7-10 3.313-3.313 9.51-3.505 13.5-5.5 8.888-4.444 12.041-12.521 21-17 2.041-1.021 1.5 3.062 1.5 4v1l-1 1-2 8-1 1v3l-1 1v1l-1 1v3c0 1.974-2 3.517-2 6l-1 1-1 2c-1.712 0-3 2.571-3 4Z"/><path fill="#CBC9CC" id="arb" d="M135 167c0 7.143 6.358 0 0 0Z"/><path fill="#FF9BCD" id="MY" d="m159 167-1 1 1-1Z"/><path fill="#F0F080" id="CB" d="m191 167-1 1 1-1ZM265 167l1 1-1-1Z"/><path fill="#FF9BCD" id="MY" d="M274 172c0 1.473 1.952 1 3 1 0-2.72 2-3.553 2-6-1.366 0-4 2.366-4 4l-1 1ZM298 167l2 2-2-2Z"/><path fill="#CBC9CC" id="arb" d="M319 167c0 5.395 3.807 0 0 0Z"/><path fill="#FFFC8D" id="PFL" d="M347 222c1.428 0 4 4.822 4 6l6 11.5 2 9 6 10 4.5 3.5c13.98 6.99 27.145 2.209 34.5-12.5 3.378-6.755 3-16.9 3-25 0-20.761 3.099-32.201-17.5-42.5-8.506-4.253-17.527 5.737-23 3l-.5-3.5c2.613-5.227 2-7.043 2-12.5-3.446 0-6.77-2-11-2-3.685 0-16 11.905-16 16 0 4.523 7.275 3.051 9 6.5 2.325 4.65 3.498 8.999 8.5 11.5 9.988 4.994 24.5 1.694 24.5 17.5 0 3.439.428 7.143-1 10-1.046 2.091-.889-3.778-1-4-1.633-3.267-2.567-9.534-6.5-11.5-10.277-5.139-17.836-7.836-27-17-1.51-1.51-6.803-7.098-9-6-2.751 1.375-.5 3.044-.5 5 0 7.006 6 12.954 6 20l1 5 2 2Z"/><path fill="#FF9BCD" id="MY" d="m157 168-1 1 1-1Z"/><path fill="#F0F080" id="CB" d="m190 168-1 1 1-1Z"/><path fill="#FF9BCD" id="MY" d="m155 169-1 1 1-1Z"/><path fill="#F0F080" id="CB" d="M270 172h2l-4-3 2 3Z"/><path fill="#FF9BCD" id="MY" d="m301 169 2 2-2-2ZM154 170l-1 1 1-1ZM154 277c-3.171 0 4 4.711 4 6-3.352 0-7.554-4.527-10.5-6-8.49-4.245-17.769-9.038-22.5-18.5-1.73-3.46-.318-8.635-2-12l-2-4.5 4.5 3c4.26-2.13 3.756-9.012 5.5-12.5.619-1.238-1.144-5.5 1-5.5 2.295 0 4.171-7.842 5-9.5 2.433-4.866 19.21-29.645 9.5-34.5-8.573-4.287-8.821 9-11.5 9 0-4.515 2-7.701 2-11v-2l16-8-2 4c-10.976 0-3.064 11 0 11v11c0 16.32.62 14 17 14l1 2c-2.343 0-4 .285-4 3-4.438 0-11.009-2.481-14 3.5l-8 13.5c0-6.07 10.233-17.035 8-21.5-1.984-3.967-9.289 5.579-10 7-5.762 11.524-9 23.502-9 37.5l-3.5-7c-1.514 0 .5 5.888.5 6.5 0 2.632 5.565 14.5 9 14.5 0 2.596 11.249 7.002 13 3.5 3.083-6.166-8-6.862-8-11.5l4.5 3 5.5-2c0 2.215 2 1.519 2 3l-3 3.5c-1.489 2.978 2 5.043 2 7.5Z"/><path fill="#F0F080" id="CB" d="M184 172h3v-1c-1.048 0-3-.473-3 1ZM275 171l-1 1 1-1Z"/><path fill="#FF9BCD" id="MY" d="M309 183c7.657 0 8.082.664 12 8.5.752 1.503.201 10.5 2 10.5 0-8-3-14.415-3-21l-1-2v-1l-15-7 1 5 2-1c7.054 0 2 4.857 2 8Z"/><path fill="#FFB0D7" id="MV" d="M181 213h17.5c1.9-.95 9.31-8 9.5-8 0-5.498 9-9.491 9-14 0-6.966-16.949-14.724-21.5-17-1.227-.613-8.5-.656-8.5-2h-4c0 1.473-1.952 1-3 1l-3 6-1 1 1 4 1 2 1 1 1 4-1 2c0 7.859-11 12.852-11 18l1 2h12ZM284 213h3l1-2c0-6.602-11-10.289-11-18 0-1.321-.684-6 1-6v-1l1-1v-1l1-1v-4l-1-1-2-5c-1.048 0-3 .473-3-1h-4c-7.277 0-30 9.777-30 19 0 4.729 8 8.32 8 13l5.5 7c5.623 2.811 12.731 2 19.5 2h11Z"/><path fill="#FDB2D7" id="y" d="m154 185-3 1c-3.064 0-10.976-11 0-11l3 10ZM303 185c0 1.473 1.952 1 3 1l3-3c0-3.143 5.054-8-2-8l-2 1c0 2.522-2 4.909-2 8v1Z"/><path fill="#FF9BCD" id="MY" d="m279 178 1 1-1-1Z"/><path fill="#CBC9CC" id="arb" d="M129 184v1l8-4v-2c-1.593 0-8 2.896-8 5Z"/><path fill="#FF9BCD" id="MY" d="m177 179-1 1 1-1Z"/><path fill="#FEB3D7" id="LAV" d="M279 194c0 6.827 21.949 4 26 4 0-3.531 1-7.893 1-12-1.048 0-3 .473-3-1h-1c-4.228 0-9.256 2.622-14.5 0-1.541-.77-6.935-6-7.5-6v5c4.149 0 .597 3-2 3-1.684 0-1 4.679-1 6h1l1 1Z"/><path fill="#CBC9CC" id="arb" d="m327 184 2 1c0-2.268-8.031-6-10-6l1 2 7 3Z"/><path fill="#FEB3D7" id="LAV" d="M179 193c-1.96 0-9.359 4.93-11.5 6-5.01 2.505-12.33-2-16.5-2v-11l3-1c4.181 0 10.041 2.729 15.5 0l6.5-5 1 4c-4.423 0-2.3 3 1 3h1l1 4-1 2Z"/><path fill="#FEA5D1" id="DCO" d="m117 230 1 1c5.837 0 6.531-22 14-22 0-4.025.272-10.043 2-13.5.523-1.046-.951-3.5 1-3.5 0-4.515 2-7.701 2-11l-8 4h-1l-1 1-1 1-1 1-1 1-1 1c0 1.238-.423 3-2 3 0 3.195-2.597 7.694-4 10.5l-1 17.5v2c1.684 0 1 4.679 1 6v1ZM339 229v2c-7.163 0-7.304-22-14-22 0-.986-1.087-6-2-6v-1c0-8-3-14.415-3-21l7 3 4 3.5 6 9c4.844 9.688 2 21.909 2 32.5Z"/><path fill="#C9C9C8" id="icp" d="m133 212-1 15c2.295 0 4.171-7.842 5-9.5 2.433-4.866 19.21-29.645 9.5-34.5-8.573-4.287-8.821 9-11.5 9l-2 20ZM325 224v2c-3.917 0-4.663-6.825-6-9.5l-8-13-4-12c-1.513-3.025 2-5.87 2-8.5 7.657 0 8.082.664 12 8.5.752 1.503.201 10.5 2 10.5v1c0 1.991-.793 14 1 14v5l1 2Z"/><path fill="#FF9BCD" id="MY" d="M279 184h1v-1l-1 1ZM302 277c2.889 0-1 3.299-1 4 2.27 0 3.627-2.064 5.5-3 8.505-4.253 18.766-8.031 23.5-17.5 1.813-3.627 1.257-8.515 3-12l2-5.5c-2.106 0-2.262 3.119-4.5 2-4.271-2.135-5.5-14.633-5.5-19-3.917 0-4.663-6.825-6-9.5l-8-13-4-12c-1.513-3.025 2-5.87 2-8.5l-3 3c0 4.107-1 8.469-1 12l2 8.5c-3.201 6.402-13.824 4.5-19 4.5l-1 2c2.25 0 3.376 2 5 2 20.121 0 24 24.604 24 41 1.882 0 3.029-10.442 2-12.5-3.951-7.902-6.984-15.969-11-24-.939-1.879-3.375-7.063-.5-8.5 3.934-1.967 7.493 6.486 8.5 8.5 5.521 11.043 10 22.16 10 35.5 1.869 0 1.574-7 2.5-7l1.5 3.5c-1.393 2.786-3.775 15.5-8 15.5 0 1.747-.253 2-2 2 0 3.639-14 9.048-14 3l-3 5Z"/><path fill="#CBC9CC" id="arb" d="M127 185h1v-1l-1 1Z"/><path fill="#A9AAA7" id="V4r" d="M128 185h1v-1h-1v1Z"/><path fill="#CCCBC8" id="das" d="M178 186v1c-3.3 0-5.423-3-1-3l1 2ZM278 186v1c2.597 0 6.149-3 2-3h-1v1l-1 1Z"/><path fill="#FF9BCD" id="MY" d="M302 185h1v-1l-1 1Z"/><path fill="#A9AAA7" id="V4r" d="M347 226c-2.722 0-4.53 3-8 3 0-10.591 2.844-22.812-2-32.5l-6-9-4-3.5 2 1 3 2 6 8c0 7.006 6 12.954 6 20-4.946 0-4.732 18.965 1 7.5.955-1.91 0-.614 0-2.5l2 2v4Z"/><path fill="#CBC9CC" id="arb" d="M126 186h1v-1l-1 1Z"/><path fill="#A9AAA7" id="V4r" d="m128 185-1 1v-1h1Z"/><path fill="#FF9BCD" id="MY" d="m279 185-1 1 1-1Z"/><path fill="#CBC9CC" id="arb" d="M125 187h1v-1l-1 1Z"/><path fill="#A9AAA7" id="V4r" d="m127 186-1 1v-1h1Z"/><path fill="#FF9BCD" id="MY" d="M178 187h1l-1-1v1Z"/><path fill="#A9AAA7" id="V4r" d="m126 187-1 1v-1h1ZM125 188l-1 1 1-1ZM124 189l-1 1 1-1ZM123 190c-1.577 0-2 1.762-2 3 1.577 0 2-1.762 2-3Z"/><path fill="#FF9BCD" id="MY" d="m180 191-1 2 1-2Z"/><path fill="#FFB3D7" id="PRP" d="M211 206h3c3.293 0 13 .507 13-3 0-2.518-7.037-12-10-12 0 4.509-9 8.502-9 14 1.048 0 3-.473 3 1ZM243 206h3l2-2c0-4.68-8-8.271-8-13-5.285 0-9.312 12-11 12 0 3.665 10.573 3 14 3Z"/><path fill="#FF9BCD" id="MY" d="M132 209c0 1.048-.473 3 1 3l2-20c-1.951 0-.477 2.454-1 3.5-1.728 3.457-2 9.475-2 13.5Z"/><path fill="#A9AAA7" id="V4r" d="M113 214c4.295 0 .133 7 3 7l1-17.5c1.403-2.806 4-7.305 4-10.5l-2 1v1l-1 1-2 8-1 1v3l-1 1v1l-1 1v3Z"/><path fill="#FEB1D9" id="SPIV" d="M151 197c0 16.32.62 14 17 14 0-5.148 11-10.141 11-18-1.96 0-9.359 4.93-11.5 6-5.01 2.505-12.33-2-16.5-2ZM305 198l2 8.5c-3.201 6.402-13.824 4.5-19 4.5 0-6.602-11-10.289-11-18h1l1 1c0 6.827 21.949 4 26 4Z"/><path fill="#FF9BCD" id="MY" d="m278 193 1 1-1-1Z"/><path fill="#F0F080" id="CB" d="m119 195-1 1 1-1Z"/><path fill="#FF9BCD" id="MY" d="m227 225 2 1v-17.5c.515-1.03 3.218-2.564 4-1 .846 1.692-2 10.476-2 13.5h2c0-3.8-1.426-12.037 2.5-14 1.406-.703 7.5 1.261 7.5-1-3.427 0-14 .665-14-3h-2c0 3.507-9.707 3-13 3 0 2.622 7.057-.385 8 1.5 2.218 4.435 1 9.156 1 13.5l3 1c0-1.92-3.311-14.095-1.5-15 3.543-1.772 2.5 15.262 2.5 18ZM325 209l-1 8c-1.793 0-1-12.009-1-14 .913 0 2 5.014 2 6Z"/><path fill="#F0F080" id="CB" d="m116 204-1 1 1-1Z"/><path fill="#FF9BCD" id="MY" d="M268 214h-11.5l-4.5 4c0-3.047.259-5.982-1-8.5l-5-3.5 2-2 5.5 7c5.623 2.811 12.731 2 19.5 2 0 1.643-3.765 1-5 1ZM189 214h10.5c1.07.535 4.098 3 4.5 3l1-6.5 6-4.5c0-1.473-1.952-1-3-1-.19 0-7.6 7.05-9.5 8H183c0 1.684 4.679 1 6 1Z"/><path fill="#FCB3D8" id="PGRNd" d="M205 221h18c0-4.344 1.218-9.065-1-13.5-.943-1.885-8 1.122-8-1.5h-3l-6 4.5-1 6.5v2l1 2ZM233 221h18l1-2v-1c0-3.047.259-5.982-1-8.5l-5-3.5h-3c0 2.261-6.094.297-7.5 1-3.926 1.963-2.5 10.2-2.5 14Z"/><path fill="#CBCBCC" id="mlf" d="M226 222c0 1.048-.473 3 1 3 0-2.738 1.043-19.772-2.5-18-1.811.905 1.5 13.08 1.5 15ZM231 221c0 1.622.461 5-2 5v-17.5c.515-1.03 3.218-2.564 4-1 .846 1.692-2 10.476-2 13.5Z"/><path fill="#F0F080" id="CB" d="m115 208-1 1 1-1Z"/><path fill="#FEA4D2" id="VCO" d="M121 241v1l4.5 3c4.26-2.13 3.756-9.012 5.5-12.5.619-1.238-1.144-5.5 1-5.5l1-15c-1.473 0-1-1.952-1-3-7.469 0-8.163 22-14 22v2l2 7 1 1ZM335 242v1c-2.106 0-2.262 3.119-4.5 2-4.271-2.135-5.5-14.633-5.5-19v-2l-1-2v-5l1-8c6.696 0 6.837 22 14 22v3l-1 1-2 6-1 1Z"/><path fill="#F0F080" id="CB" d="m114 210-1 1 1-1Z"/><path fill="#C8CACA" id="sptV" d="M143 262c0 4.638 11.083 5.334 8 11.5-1.751 3.502-13-.904-13-3.5 0-2.526-6-9.042-6-14 0-13.998 3.238-25.976 9-37.5.711-1.421 8.016-10.967 10-7 2.233 4.465-8 15.43-8 21.5-1.353 0-2 4.643-2 6-3.113 0-3.113 18 0 18l2 5ZM305 271v1c0 6.048 14 .639 14-3l2-2c0-3.697 3-6.94 3-11l1-1c0-13.34-4.479-24.457-10-35.5-1.007-2.014-4.566-10.467-8.5-8.5-2.875 1.437-.439 6.621.5 8.5 4.016 8.031 7.049 16.098 11 24 1.029 2.058-.118 12.5-2 12.5v1l-1 1-1 3-1 1c0 3.409-4.478 3.978-6.5 6l-1.5 3Z"/><path fill="#FDA5D1" id="NTS" d="M169 218h3l1-1 2-2-3-2h-3c-2.343 0-4 .285-4 3l2 2h2Z"/><path fill="#FF9BCD" id="MY" d="M181 213c0 .913-5.014 2-6 2l-3-2h9Z"/><path fill="#FCB3D9" id="PARN" d="M156 266h2c0-2.919 6.364-6 9-6l6-8.5c4.131-8.262 16-28.825 16-37.5-1.321 0-6 .684-6-1h-2c0 .913-5.014 2-6 2l-2 2v1c0 2.675.377 5-4 5 0 7.865-8.05 8.6-11 14.5-1.623 3.247-5 21.79-5 25.5 0 2.215 2 1.519 2 3h1ZM300 266h1c1.577 0 2-1.762 2-3 0-3.903-2.393-21.286-4-24.5-2.686-5.372-12-8.387-12-15.5-3.301 0-4-1.771-4-5v-1l-1-1-6-3h-3c0 1.643-3.765 1-5 1 0 9.579 10.631 27.761 15 36.5l7 9.5c3.567 0 6.62 6 9 6h1Z"/><path fill="#FF9BCD" id="MY" d="M284 213c0 1.481-2 .785-2 3l-6-3h8Z"/><path fill="#FDA5D1" id="NTS" d="M287 218h2l3-3c-1.624 0-2.75-2-5-2h-3c0 1.481-2 .785-2 3l1 1 2 1h2Z"/><path fill="#A9AAA8" id="chpl" d="M116 221v2c0 7.681-5 2.034-5-3 0-2.483 2-4.026 2-6 4.295 0 .133 7 3 7Z"/><path fill="#FFB2D8" id="IRN" d="M189 268h2l1-1c0-4.147 2.284-7.068 4-10.5 1.036-2.072 8-33.157 8-35.5v-4c-.402 0-3.43-2.465-4.5-3H189c0 8.675-11.869 29.238-16 37.5l-6 8.5c5.271 0 11.127-.186 15.5 2l6.5 6ZM264 267l4 1c0-7.346 17.018-8 22-8l-7-9.5c-4.369-8.739-15-26.921-15-36.5h-11.5l-4.5 4v1l1 3 2 5.5c2.21 4.421-.238 11.523 2 16 2.947 5.894 7 16.781 7 23.5Z"/><path fill="#A9AAA8" id="chpl" d="M344 215c-4.946 0-4.732 18.965 1 7.5.955-1.91 0-.614 0-2.5l-1-5Z"/><path fill="#FFA4D0" id="SPVO" d="m143 262 4.5 3 5.5-2c0-3.71 3.377-22.253 5-25.5 2.95-5.9 11-6.635 11-14.5-2.641 0-2-1.823-2-4v-1l-2-2c-4.438 0-11.009-2.481-14 3.5l-8 13.5c0 1.623-.005 6-2 6v18l2 5ZM313 262l-4.5 3-5.5-2c0-3.903-2.393-21.286-4-24.5-2.686-5.372-12-8.387-12-15.5 3.608 0 2-1.774 2-4v-1l3-3c20.121 0 24 24.604 24 41v1l-1 1-1 3-1 1Z"/><path fill="#FF9BCD" id="MY" d="M172 218h1v-1l-1 1ZM283 218h2l-2-1v1ZM169 218l-2 1v-1h2Z"/><path fill="#FFB2D9" id="ISN" d="M167 219c0 2.177-.641 4 2 4 4.377 0 4-2.325 4-5h-4l-2 1ZM289 219c0 2.226 1.608 4-2 4-3.301 0-4-1.771-4-5h4l2 1Z"/><path fill="#FF9BCD" id="MY" d="M289 218v1l-2-1h2ZM204 221h1l-1-2v2ZM251 221l2 1-1-3-1 2Z"/><path fill="#A9AAA7" id="V4r" d="M109 226c2.722 0 4.53 3 8 3 0-1.321.684-6-1-6 0 7.681-5 2.034-5-3l-1 1-1 2v3Z"/><path fill="#F0F080" id="CB" d="m110 221-1 2 1-2Z"/><path fill="#FEB0D8" id="GRN" fill-rule="evenodd" d="M230 234c0 1.819-1 4.591-1 7v5.5c0 2.049 2.725 9.55 5 5 1.597-3.193.213-17.5-4-17.5m-5 0c0 2.069-2 3.834-2 6.5v8.5c0 13.374 8.954-15 2-15m-22 39h1l9.5-10c4.871-2.436 7.141 0 11.5 0h1l1-4v-3.5c0-12.793 3.211 7.5 4 7.5 4.427 0 6.584-2.458 11.5 0 3.631 1.815 7.483 10 10.5 10 0-5.99 6.367-5 11-5v-1c0-6.719-4.053-17.606-7-23.5-2.238-4.477.21-11.579-2-16l-2-5.5-2-1h-20c0 1.622.461 5-2 5l-2-1c-1.473 0-1-1.952-1-3l-3-1h-19c0 2.343-6.964 33.428-8 35.5-1.716 3.432-4 6.353-4 10.5l1 1c5.185 0 10-1.132 10 5Z"/><path fill="#FF9BCD" id="MY" d="m324 222 1 2-1-2Z"/><path fill="#F0F080" id="CB" d="m347 226 4 2c0-1.178-2.572-6-4-6v4ZM109 226c0 1.473-1.952 1-3 1 0-1.429 1.288-4 3-4v3ZM106 227l-1 1 1-1Z"/><path fill="#FF9BCD" id="MY" d="M118 231v2c-1.473 0-1-1.952-1-3l1 1ZM143 233c-1.353 0-2 4.643-2 6 1.995 0 2-4.377 2-6Z"/><path fill="#C8C8CC" id="tspc" d="M225 234c0 2.069-2 3.834-2 6.5v8.5c0 13.374 8.954-15 2-15ZM230 234c0 1.819-1 4.591-1 7v5.5c0 2.049 2.725 9.55 5 5 1.597-3.193.213-17.5-4-17.5Z"/><path fill="#FF9BCD" id="MY" d="m339 234-1 1 1-1ZM141 239c-3.113 0-3.113 18 0 18v-18ZM120 240l1 1-1-1ZM336 241l-1 1 1-1Z"/><path fill="#C9C9C8" id="icp" d="M324 256c0 4.06-3 7.303-3 11 4.225 0 6.607-12.714 8-15.5l-1.5-3.5c-.926 0-.631 7-2.5 7l-1 1ZM132 256l-3.5-7c-1.514 0 .5 5.888.5 6.5 0 2.632 5.565 14.5 9 14.5 0-2.526-6-9.042-6-14Z"/><path fill="#FFC5E2" id="RM" d="M226 284h4c0-1.908-.788-13 1-13v-8c-.789 0-4-20.293-4-7.5v3.5l-1 4-1 2v6c1.684 0 1 4.679 1 6v7Z"/><path fill="#FF9BCD" id="MY" d="m325 255-1 1 1-1ZM316 257l-1 1 1-1Z"/><path fill="#FFB3D6" id="VII" d="M174 284h6c0-2.544 6.098.304 7-1.5 1.834-3.667 2-8.053 2-12.5v-2l-6.5-6c-4.373-2.186-10.229-2-15.5-2-2.636 0-9 3.081-9 6l-2 4c0 5.389 3.947 12 10 12l1 1h4l1 1h2ZM277 284h6l6-1 2-1 1-1c3.433 0 8-4.589 8-8v-4c-1.473 0-1-1.952-1-3-2.38 0-5.433-6-9-6-4.982 0-22 .654-22 8l-1 1 2 13 1 1c1.406 0 7-.714 7 1Z"/><path fill="#FDB2D9" id="MARN" d="M201 281c0 1.539 1.342 3 3 3 7.439 0 12.577-8 19-8l2-5v-8c-4.359 0-6.629-2.436-11.5 0l-9.5 10-1 1v1l-1 1-1 1v4ZM255 281c0 1.539-1.342 3-3 3-4.845 0-21-7.352-21-13v-8c4.427 0 6.584-2.458 11.5 0 3.631 1.815 7.483 10 10.5 10v1c0 2.16 2 4.167 2 7Z"/><path fill="#FF9BCD" id="MY" d="m314 261-1 1 1-1ZM301 266c0 1.302 4 2.641 4 5l1.5-3c2.022-2.022 6.5-2.591 6.5-6l-4.5 3-5.5-2c0 1.238-.423 3-2 3ZM226 263l-1 2v-2h1Z"/><path fill="#C8C8CB" id="rust" d="M174 284c0 1.643-3.765 1-5 1-5.271 0-12.112-8-15-8 0-2.457-3.489-4.522-2-7.5l3-3.5h1v4c0 5.389 3.947 12 10 12l1 1h4l1 1h2Z"/><path fill="#FF9BCD" id="MY" d="m158 266-2 4v-4h2ZM300 266v3c-1.473 0-1-1.952-1-3h1Z"/><path fill="#C8C8CB" id="rust" d="M283 284c0 1.579 2.855 1 4 1l7-2 1-1c2.718 0 5.396-5 7-5l3-5v-1c0-2.359-4-3.698-4-5h-1v6c1.186 0 1.186 1 0 1 0 3.411-4.567 8-8 8l-1 1-2 1-6 1Z"/><path fill="#FF9BCD" id="MY" d="M191 268h2l-1-1-1 1ZM268 268l-1 1-3-1v-1l4 1Z"/><path fill="#C9C9C8" id="icp" d="m321 267-2 2c1.747 0 2-.253 2-2Z"/><path fill="#FF9BCD" id="MY" d="m191 268-2 2v-2h2Z"/><path fill="#FCB2D9" id="PGRNl" d="M180 284c0 4.211 8.914 3 11 3 0-1.369 6.174-7 8-7l2-2v-1l1-1 1-1v-2c0-6.132-4.815-5-10-5h-2l-2 2c0 4.447-.166 8.833-2 12.5-.902 1.804-7-1.044-7 1.5ZM277 284l-6.5 4-4.5-1-9-7c0-1.178-2.572-6-4-6v-1c0-5.99 6.367-5 11-5l3 1 2 13 1 1c1.406 0 7-.714 7 1Z"/><path fill="#FF9BCD" id="MY" d="m223 276 3 1c0-1.321.684-6-1-6l-2 5Z"/><path fill="#FF9BCD" id="MY" fill-rule="evenodd" d="M231 276v3.5c0 9.811 9.977-3.5 0-3.5m6 21c0-1.726-6.759-4.982-5-8.5 2.441-4.882 17.401-.198 19 3 2.532 5.065-6 2.476-6 5.5 9.688 0 22.32-.91 30.5-5 1.389-.694 8.5-1.384 8.5-3-9.411 0 3-2.235 3-4-1.145 0-4 .579-4-1h-6l-6.5 4-4.5-1c0 7.145-14 2.602-14-3-4.845 0-21-7.352-21-13-1.788 0-1 11.092-1 13 1.22 0 1.504 3.492 1 4.5-1.779 3.558-5.038-.076-6-2l1-2.5v-2l-1.5 1c-6.338 3.169-1.5-6.214-1.5-7-6.423 0-11.561 8-19 8 0 5.891-13 10.219-13 3-2.086 0-11 1.211-11-3h-6c0 1.643-3.765 1-5 1 0 1.959 8 1.677 8 3.5 0 2.644-8.493-1.5-10-1.5 0 2.162 6.067 2.284 7.5 3 7.908 3.954 21.296 7 30.5 7 1.913 0 13 2.231 13 0h-6l-2.5-2c-1.655-.827-3.309.882-4.5-1.5-2.174-4.347 20-10.156 20-4l-5 7.5c4.017 0 7.881-6 8.5-6l2 3c1.699 1.699 3.987 3 6.5 3Z"/><path fill="#FF9BCD" id="MY" d="M300 272c1.186 0 1.186 1 0 1v-1ZM204 273l-1 1v-1h1ZM257 280l-2 1c0-2.833-2-4.84-2-7 1.428 0 4 4.822 4 6ZM203 275l-1 1 1-1ZM202 276l-1 1 1-1Z"/><path fill="#CACCC8" id="ml" d="M226 277v5l-1.5 1c-6.338 3.169-1.5-6.214-1.5-7l3 1ZM231 276v3.5c0 9.811 9.977-3.5 0-3.5Z"/><path fill="#CBC7CC" id="sctv" d="M166 287h1c1.507 0 10 4.144 10 1.5 0-1.823-8-1.541-8-3.5-5.271 0-12.112-8-15-8-3.171 0 4 4.711 4 6h1l7 4ZM284 289h1c0-1.638 3.576-2 5-2h1c0-1.577 1.762-2 3-2h1c0-1.577 1.762-2 3-2 0-1.577 1.762-2 3-2 0-.701 3.889-4 1-4-1.604 0-4.282 5-7 5l-1 1-7 2c0 1.765-12.411 4-3 4Z"/><path fill="#FF9BCD" id="MY" d="m199 280 2 1v-3l-2 2Z"/><path fill="#FCB2D8" id="PPY" d="M204 284c0 5.891-13 10.219-13 3 0-1.369 6.174-7 8-7l2 1c0 1.539 1.342 3 3 3ZM252 284c0 5.602 14 10.145 14 3l-9-7-2 1c0 1.539-1.342 3-3 3Z"/><path fill="#FF9BCD" id="MY" d="m292 281-1 1 1-1ZM301 281c-1.238 0-3 .423-3 2 1.238 0 3-.423 3-2ZM166 282l1 1-1-1ZM269 282l1 1-1-1ZM291 282l-2 1 2-1ZM295 282l-1 1 1-1ZM159 283l7 4c-1.572 0-7-2.052-7-4ZM171 283l1 1-1-1ZM298 283c-1.238 0-3 .423-3 2 1.238 0 3-.423 3-2Z"/><path fill="#FFC6E2" id="RPA" d="M226 284h4c1.22 0 1.504 3.492 1 4.5-1.779 3.558-5.038-.076-6-2l1-2.5Z"/><path fill="#FF9BCD" id="MY" d="M294 285c-1.238 0-3 .423-3 2 1.238 0 3-.423 3-2Z"/><path fill="#C7C9C9" id="py" d="M218 297h2l5-7.5c0-6.156-22.174-.347-20 4 1.191 2.382 2.845.673 4.5 1.5l2.5 2h6ZM238 297h7c0-3.024 8.532-.435 6-5.5-1.599-3.198-16.559-7.882-19-3-1.759 3.518 5 6.774 5 8.5h1Z"/><path fill="#FF9BCD" id="MY" d="M290 287c-1.424 0-5 .362-5 2 1.424 0 5-.362 5-2ZM238 297h7c0 1.602-7 1.602-7 0Z"/></svg>