<svg xmlns="http://www.w3.org/2000/svg" viewBox="0 0 456 320"><path fill="#FCFB90" id="CUL4, 5" d="M225 60h6l1-1 2-2 1-1v-1l2-2 1-1 1-1 1-1 1-1 2-2c-.656 0-4.138-3.32-5.5-4h-19l-4.5 4 1 2c2.655 0 8 6.474 8 9l1 1 1 1Z"/><path fill="#FE79FE" id="ICe" d="M194 85c0 4.204 5 6.019 5 10-3.694 0-9.187 5.343-12.5 7-2.413 1.206-5.542.771-8 2-3.009 1.504-9.485-4.485-11.5-6.5-3.832-3.832-10.956-22.088-8-28l4-10.5v-1l1-1 1-1 2-2 1-1 9.5-6c8.5-4.25 19.259-2 28.5-2l2 2c-1.261 0-16.204 12.909-17 14.5V66l-5.5-1c-5.342 2.671-14.968 22.516-8 26 9.085 4.543 13.006-6 16.5-6ZM263 86c-1.773 0-5 6.939-5 9 2.637 0 3.99 3.245 5.5 4 4.397 2.198 9.634 2.817 14 5 2.978 1.489 7.737-3.868 10-5 5.826-2.913 13.317-24.866 9.5-32.5l-4-8.5v-1l-3-3-2-1-1-1-7.5-4c-9.448-4.724-19.046-3-29.5-3l-1 1v1l15 12.5c1.141 2.283 1 4.726 1 7.5 1.791 0 2.959-3.27 5.5-2 5.039 2.52 16.098 21.951 8 26-8.21 4.105-12.83-5-15.5-5Z"/><path fill="#FF64FF" id="MB" d="M173 110h1l1-1h1l1-1 5-2 1-1h2l1-1h1l1-1 4-1 1-1h2l1-1 1-1 4-2 1-1 2-1 1-1 1-1 2-1 1-1 1-1 1-1 1-1 1-1 1-1 1-1 1-1 1-1h1l1-1 1-1 1-1 2-2c0-1.486 3-1.486 3 0l1 2 1 1 2-3c0-1.486 3-1.486 3 0l2 1 2 2 1 1 1 1 3 2 1 1 1 1 1 1 3 3 1 1 4 3 2 2h1l2 2h1l1 1h1l1 1h1l1 1h1l1 1h2l1 1 4 1 1 1h1l1 1h2l1 1 3 1h5l1-1 1-1 3-5 1-1v-1l1-1 1-1v-1l1-1 1-4 1-1 1-1 1-2v-9l1-1v-4c-1.579 0-1-2.855-1-4v-2c-2.04 0-3.763-10-7-10l4 8.5c3.817 7.634-3.674 29.587-9.5 32.5-2.263 1.132-7.022 6.489-10 5-4.366-2.183-9.603-2.802-14-5-1.51-.755-2.863-4-5.5-4-7.673 0-19.018-16.535-22-22.5l-3-8c2.071-4.141 4.045-9.045 7.5-12.5l5.5-5h-3l-2 2-1 1-1 1-1 1-1 1c0 1.747-.253 2-2 2v1l-1 1-2 2-1 1c0 8.474-6 6.635-6 0l-1-1-1-1-8-9-1-2c-3.303 0-5.115-2-8-2l2 2c5.212 0 10.064 7.628 12 11.5 1.096 2.191 4.526 5.947 3 9-6.304 12.607-10.409 19.454-22.5 25.5l-1.5 2c-3.694 0-9.187 5.343-12.5 7-2.413 1.206-5.542.771-8 2-3.009 1.504-9.485-4.485-11.5-6.5-3.832-3.832-10.956-22.088-8-28l4-10.5c-2.171 0-6 7.276-6 9v1l-1 1v16c1.473 0 1 1.952 1 3v1l2 2v1l1 1v1l1 1v1l1 1 2 4 1 1 3 5c1.624 0 2.75 2 5 2ZM250 45l-1 1 1-1ZM246 47h3v-1c-1.048 0-3-.473-3 1Z"/><path fill="#FE79FF" id="ICd" d="M194 85c0 4.204 5 6.019 5 10l1.5-2c12.091-6.046 16.196-12.893 22.5-25.5 1.526-3.053-1.904-6.809-3-9-1.936-3.872-6.788-11.5-12-11.5-1.261 0-16.204 12.909-17 14.5V66l3 6.5V85ZM263 86c-1.773 0-5 6.939-5 9-7.673 0-19.018-16.535-22-22.5l-3-8c2.071-4.141 4.045-9.045 7.5-12.5l5.5-5h3l15 12.5c1.141 2.283 1 4.726 1 7.5l-3 6.5c-1.735 3.47 1 9.298 1 12.5Z"/><path fill="#F0F080" id="CB" d="M215 49c2.655 0 8 6.474 8 9l-8-9ZM241 49l-1 1 1-1ZM240 50l-1 1 1-1ZM239 51l-1 1 1-1ZM238 52l-1 1 1-1Z"/><path fill="#FF64FF" id="MB" d="m287 52 1 1-1-1ZM168 53l-1 1 1-1Z"/><path fill="#F0F080" id="CB" d="m237 53-2 2c1.747 0 2-.253 2-2Z"/><path fill="#FF64FF" id="MB" d="m290 54 3 3-3-3ZM165 56l-1 1 1-1Z"/><path fill="#F0F080" id="CB" d="m235 56-1 1 1-1Z"/><path fill="#FF64FF" id="MB" d="m164 57-1 1 1-1Z"/><path fill="#FDFB8F" id="SIM" d="M131 153c-3.831 0-7.932.635-10-3.5-2.828-5.656 4.505-36.009 7-41 .898-1.796 1.971-13.5-1.5-13.5-1.723 0-1.86 10.221-2.5 11.5-5.591 11.181-1.418 26.837-7 38-1.299 2.598-1.327 13.5-6 13.5 0-3.252-4.547-7.595-6-10.5v-4c-3.871-7.741-4.087-17.174-8-25L98 89c2.324 0 6.079-8.579 8-10.5 7.1-7.1 16.081-11.29 24.5-15.5 2.896-1.448 13.49-5.755 17-4 3.669 1.834 5.185 9 9.5 9v1l-1 1v13c-1.925 0-4.981 13.463-6 15.5-4.894 9.788-10.178 19.357-15 29l-2 17c-1.307 2.614-2 5.334-2 8.5Z"/><path fill="#F0F080" id="CB" d="m224 59 1 1-1-1ZM232 59l-1 1 1-1Z"/><path fill="#FDFB8F" id="SIM" d="M326 153c3.561 0 7.093.314 9-3.5 2.912-5.825-3.087-33.174-6-39-1.913-3.826-1-7.845-1-11.5 0-1.036.973-4.764 2.5-4l1.5 10.5c5.469 10.938 1.567 26.134 7 37 1.577 3.155.836 15.5 7 15.5 0-3.496 3.512-6.524 5-9.5 1.841-3.682.181-9.362 2-13l6-16-1-30.5-5-7.5c-5.532-5.531-11.367-10.934-18.5-14.5-3.121-1.56-22.036-9.482-25-8l-9.5 9v2c1.579 0 1 2.855 1 4v4l-1 1v3c1.925 0 4.981 13.463 6 15.5 4.744 9.487 10.293 18.586 15 28l2 17 3 10.5Z"/><path fill="#FE7AFE" id="ICc" d="m191 66-5.5-1c-5.342 2.671-14.968 22.516-8 26 9.085 4.543 13.006-6 16.5-6V72.5l-3-6.5ZM265 67c1.791 0 2.959-3.27 5.5-2 5.039 2.52 16.098 21.951 8 26-8.21 4.105-12.83-5-15.5-5 0-3.202-2.735-9.03-1-12.5l3-6.5Z"/><path fill="#F0F080" id="CB" d="m157 69-1 1 1-1ZM300 70c1.579 0 1 2.855 1 4-1.579 0-1-2.855-1-4ZM223 78h3c0-1.486-3-1.486-3 0ZM230 78h3c0-1.486-3-1.486-3 0Z"/><path fill="#FFFC8E" id="CENT3" d="m172 152-2 1c-9.987 0-10.834 6.832-17-5.5-.86-1.719-2-.607-2-3.5l6-6.5c4.089-8.178 14-16.902 14-26.5l2-1h1l1-1h1l1-1 5-2 1-1h2l1-1h1l1-1 4-1 1-1h2l1-1 1-1 4-2 1-1 2-1 1-1 1-1 2-1 1-1 1-1 1-1 1-1 1-1 1-1 1-1 1-1 1-1h1l1-1 1-1 1-1 2-2h3l1 2 1 1 2-3h3l2 1 2 2 1 1 1 1 3 2 1 1 1 1 1 1 3 3 1 1 4 3 2 2h1l2 2h1l1 1h1l1 1h1l1 1h1l1 1h2l1 1 4 1 1 1h1l1 1h2l1 1 3 1c0 2.109 2.535 2 4 2 0 8.576 7.909 20.409 14 26.5l6 6.5-3 4.5c-6.866 13.731-11.531 2.5-20 2.5h-1l-1-1h-1l-1-1h-1c0-1.353-4.643-2-6-2 0-7.443 6.697-8.107 2-17.5-1.248-2.496-13.714-9.107-16.5-10.5-27.658-13.829-35.213-11.393-62 2-3.979 1.99-12.2 5.9-14.5 10.5-3.084 6.168 4 11.099 4 15.5-1.145 0-4-.579-4 1l-2 1h-2l-1 1-1 1h-1l-2 1Z"/><path fill="#F0F080" id="CB" d="m301 78-1 1 1-1ZM235 79l2 2-2-2ZM221 80l-1 1 1-1ZM227 80l1 1-1-1ZM220 81l-1 1 1-1ZM219 82l-1 1 1-1ZM238 82l1 1-1-1Z"/><path fill="#FCFB90" id="CUL4, 5" d="m306 144-.5-17c1.547 0 1.806 12.111 2.5 13.5 3.01 6.02 10.944 12.5 18 12.5l-3-10.5-2-17c-4.707-9.414-10.256-18.513-15-28-1.019-2.037-4.075-15.5-6-15.5v6l-1 2-1 1-1 1-1 4-1 1v1l-1 1-1 1v1l-1 1-3 5-1 1-1 1-1 2c0 8.576 7.909 20.409 14 26.5l6 6.5ZM151 144c-1.759 0 0-9.917 0-12l-.5-4-1.5 10.5c-3.335 6.67-9.272 14.5-18 14.5 0-3.166.693-5.886 2-8.5l2-17c4.822-9.643 10.106-19.212 15-29 1.019-2.037 4.075-15.5 6-15.5v3c0 1.048-.473 3 1 3v1l2 2v1l1 1v1l1 1v1l1 1 2 4 1 1 3 5c0 1.658 1.461 3 3 3 0 9.598-9.911 18.322-14 26.5l-6 6.5Z"/><path fill="#F0F080" id="CB" d="m217 83-1 1 1-1ZM216 84l-1 1 1-1ZM215 85l-1 1 1-1ZM242 85l1 1-1-1ZM156 86c1.473 0 1 1.952 1 3-1.473 0-1-1.952-1-3ZM214 86l-1 1 1-1ZM213 87l-1 1 1-1ZM244 87l1 1-1-1ZM212 88l-1 1 1-1ZM300 88l-1 2 1-2Z"/><path fill="#FCFC90" id="ANcr1" d="M95 162c0 1.643-3.766 1-5 1 0-2.825-5.863-3.181-7.5-4-4.385-2.192-9.01-4.521-11.5-9.5-8.025-16.049-3.175-25.65 4-40l6-7C83.816 96.868 92.004 89 98 89l-1 29.5c3.913 7.826 4.129 17.259 8 25v4c1.453 2.905 6 7.248 6 10.5 0 6.556-16.167.834-18.5 2-1.122.561 1.895 2 2.5 2Z"/><path fill="#F0F080" id="CB" d="m211 89-1 1 1-1Z"/><path fill="#FCFC90" id="ANcr1" d="M361 163h6c0-3.966 6.842-3.671 9.5-5 4.156-2.078 8.463-7.427 10.5-11.5 8.135-16.271-1.638-34.638-13.5-46.5-4.484-4.484-9.12-11-15.5-11l1 30.5-6 16c-1.819 3.638-.159 9.318-2 13-1.488 2.976-5 6.004-5 9.5 0 4.629 12.154 3.173 14.5 2l3.5.5-3 2.5Z"/><path fill="#F0F080" id="CB" d="m157 90 2 2-2-2ZM210 90l-1 1 1-1ZM299 90l-1 1 1-1ZM209 91l-1 1 1-1ZM248 91l1 1-1-1ZM298 91l-1 1 1-1ZM159 93l1 1-1-1ZM206 93l-1 1 1-1ZM205 94l-1 1 1-1Z"/><path fill="#CBC9CC" id="arb" d="M129 191c-4.348 0-5.234 6-8 6 0-3.071 2-5.362 2-9 0-5.833-10.295-7.102-14.5-5-10.885 5.442-22.01 10.505-33 16-3.947 1.973-8.45 9.402-10.5 13.5-.102.204-1.124 9.752-3 6-6.65-13.299 22.584-33.042 31.5-37.5 2.29-1.145 14.5-1.617 14.5-5 3.541 0-.282-10-5-10l-8-4c-.605 0-3.622-1.439-2.5-2 2.333-1.166 18.5 4.556 18.5-2 4.673 0 4.701-10.902 6-13.5 5.582-11.163 1.409-26.819 7-38 .64-1.279.777-11.5 2.5-11.5 3.471 0 2.398 11.704 1.5 13.5-2.495 4.991-9.828 35.344-7 41 2.068 4.135 6.169 3.5 10 3.5 8.728 0 14.665-7.83 18-14.5l1.5-10.5.5 4c0 2.083-1.759 12 0 12 0 2.893 1.14 1.781 2 3.5 6.166 12.332 7.013 5.5 17 5.5 0 1.577-1.729 2 1 2l-7.5 4c-3.581 1.79-13.5 9.731-13.5 14h-1c0-2.896-4.056-2.388-5-.5-.652 1.303-.219 7.5-2 7.5l-2 3h-1c0-3.104 4.665-8.169 3-11.5-.473-.945-9.258-.484-10 1-.897 1.794-2 14.468-2 15.5l-1 3Z"/><path fill="#F0F080" id="CB" d="m160 95 1 1-1-1ZM253 95l2 2-2-2Z"/><path fill="#CBC9CC" id="arb" d="M327 191c5.259 0 6.238 8 10 8 0-3.519-4-6.54-4-11 0-5.602 10.811-6.845 14.5-5 10.864 5.432 21.98 10.49 33 16 5.029 2.515 8.424 9.348 10.5 13.5.344.687 2.191 8.618 3 7 6.883-13.767-20.211-33.356-30.5-38.5-3.172-1.586-7.878-.439-11-2l-3.5-2c-4.455 0-.616-11 4-11 0-1.291 6.457-3 8-3l3-2.5-3.5-.5c-2.346 1.173-14.5 2.629-14.5-2-6.164 0-5.423-12.345-7-15.5-5.433-10.866-1.531-26.062-7-37L330.5 95c-1.527-.764-2.5 2.964-2.5 4 0 3.655-.913 7.674 1 11.5 2.913 5.826 8.912 33.175 6 39-1.907 3.814-5.439 3.5-9 3.5-7.056 0-14.99-6.48-18-12.5-.694-1.389-.953-13.5-2.5-13.5l.5 17-3 4.5c-6.866 13.731-11.531 2.5-20 2.5 0 .224 7.684 6.592 2.5 4l-1.5-1v1c5.791 0 13.822 7.322 18 11.5l5 6.5c0-7.721 7 2.982 7 6l2 4h1c0-2.964-4.449-8.601-3-11.5 1.083-2.165 9.926-.149 11 2l-1 5c1.843 3.686 2 6.047 2 9.5 1.473 0 1 1.952 1 3Z"/><path fill="#F0F080" id="CB" d="m202 96-1 1 1-1ZM296 96l-1 1 1-1ZM161 97l1 1-1-1ZM256 97l2 2-2-2ZM295 98l-1 1 1-1ZM197 99l-1 1 1-1ZM259 99l1 1-1-1ZM294 99l-1 1 1-1ZM196 100l-1 1 1-1ZM261 100l1 1-1-1ZM193 101l-1 1 1-1ZM263 101l1 1-1-1ZM293 101l-1 1 1-1ZM164 102l1 1-1-1ZM265 102l1 1-1-1ZM188 103l-1 1 1-1ZM268 103l1 1-1-1ZM186 104l-1 1 1-1ZM183 105l-1 1 1-1ZM273 105l1 1-1-1ZM275 106l1 1-1-1ZM278 107l1 1-1-1ZM289 107l-1 1 1-1ZM173 110l-2 1c-1.539 0-3-1.342-3-3 1.624 0 2.75 2 5 2ZM177 108l-1 1 1-1ZM288 108l-1 1 1-1ZM175 109l-1 1 1-1Z"/><path fill="#FDFA91" id="CENT2" fill-rule="evenodd" d="M259 133c0 2.207-5.176.338-6.5 1-5.093 2.546-12.879.94-17 3-1.456.728-6.918.664-5.5 3.5l9 .5c4.007 0 12.842-2.171 16.5-4h9c3.696-1.848-4.265-4-5.5-4m-65 0-3 2.5c0 1.955 3.889 1.5 5 1.5l15.5 2c1.596.798 13.966 4.569 15.5 1.5 1.174-2.349-5.455-2.977-6.5-3.5-1.613-.807-23.949-4-26.5-4m4 24c6.848 0 26.809 10.846 34.5 7 1.372-.686 24.657-7 25.5-7 0-1.577 1.762-2 3-2l1-1 4-4 1-1h1l1-1h1l2-1c0-7.443 6.697-8.107 2-17.5-1.248-2.496-13.714-9.107-16.5-10.5-27.658-13.829-35.213-11.393-62 2-3.979 1.99-12.2 5.9-14.5 10.5-3.084 6.168 4 11.099 4 15.5l1 1h2l6 5 4 4Z"/><path fill="#F0F080" id="CB" d="m287 109-1 2c-1.465 0-4 .109-4-2h5Z"/><path fill="#CBC9CC" id="arb" d="m194 133-3 2.5c0 1.955 3.889 1.5 5 1.5l15.5 2c1.596.798 13.966 4.569 15.5 1.5 1.174-2.349-5.455-2.977-6.5-3.5-1.613-.807-23.949-4-26.5-4ZM259 133c0 2.207-5.176.338-6.5 1-5.093 2.546-12.879.94-17 3-1.456.728-6.918.664-5.5 3.5l9 .5c4.007 0 12.842-2.171 16.5-4h9c3.696-1.848-4.265-4-5.5-4ZM181 148h5l-1-1c-1.145 0-4-.579-4 1ZM270 148l8 1c0-1.353-4.643-2-6-2l-2 1ZM181 148l-2 1 2-1Z"/><path fill="#CBC7CC" id="sctv" d="M172 154h1l1-1h2c0-1.663 5.407-2 7-2 0-1.643 3.765-1 5-1l1 1h1l-2-3h-7l-2 1h-2l-1 1-1 1h-1l-2 1-2 1c0 1.577-1.729 2 1 2l1-1Z"/><path fill="#CBC9CC" id="arb" d="M193 154h1v-1l-6-5 2 3v1l3 2ZM269 148l-1 1 1-1Z"/><path fill="#CBC7CC" id="sctv" d="M283 151c0 .224 7.684 6.592 2.5 4l-1.5-1c-4.998 0-10.069-4-16-4l-1-1h1l1-1h1l8 1h1l1 1h1l1 1h1Z"/><path fill="#CBC9CC" id="arb" d="m177 149-1 1 1-1ZM267 151h1v-1l-1-1-1 1 1 1ZM279 149l1 1-1-1ZM176 150l-1 1 1-1Z"/><path fill="#F0F080" id="CB" d="M184 151h4v-1c-1.235 0-5-.643-5 1h1Z"/><path fill="#CBC9CC" id="arb" d="M188 151h1l-1-1v1ZM262 154h1l4-2v-1l-1-1-4 4Z"/><path fill="#CBC7CC" id="sctv" d="m266 150 1 1-1-1Z"/><path fill="#F0F080" id="CB" d="M284 154v1c-3.818 0-6.678-3-11-3 0-1.643-3.765-1-5-1v-1c5.931 0 11.002 4 16 4Z"/><path fill="#CBC9CC" id="arb" d="m281 150 1 1-1-1ZM174 151l-2 1 2-1Z"/><path fill="#F0F080" id="CB" d="m183 152-7 1c0-1.663 5.407-2 7-2v1Z"/><path fill="#FF9B88" id="P" d="M183 152h1v-1h-1v1Z"/><path fill="#FFAD6D" id="PB" d="M175 174h6l4-1c0-1.747.253-2 2-2l1-2 1-1 1-1 4-3c0-1.804 2.182-5.136 1-7.5l-2-2.5-3-2-1-1h-5v1c4.306 0-15 9.002-15 11 4.912 0 15.158-7.671 18.5-6 5.223 2.611-13.622 12-15.5 12l-1 1v2l1 1 3 1Z"/><path fill="#FF9B88" id="P" d="M190 151v1l-1-1h1ZM268 151l-1 1v-1h1Z"/><path fill="#FFAD6D" id="PB" d="M275 174h6l3-1h1v-4c-2.124 0-21.802-8.849-15.5-12 3.316-1.658 11.921 6 17.5 6 0-2.69-20.258-11-14-11 0-1.643-3.765-1-5-1l-1 1-4 2-1 1-1 2c0 2.765 2 5.165 2 7l4 4 2 2c0 1.481 2 .785 2 3l4 1Z"/><path fill="#CBC9CC" id="arb" d="m172 152-2 1 2-1Z"/><path fill="#CBC9C8" id="uf" d="M149 174v6c2.367 0 6-4.866 6-7 0-1.442 3.274-6 5-6 0-2.109 2.535-2 4-2l2-1 1-1h2c0-1.998 19.306-11 15-11h-1l-7 1-2 1-2 1h-1l-7.5 4c-3.581 1.79-13.5 9.731-13.5 14l-1 1ZM307 173c0 2.409 1 5.181 1 7-4.361 0-4.455-7-7-7 0-3.426-7.897-10-11-10h-3c0-2.69-20.258-11-14-11 4.322 0 7.182 3 11 3 5.791 0 13.822 7.322 18 11.5l5 6.5Z"/><path fill="#CBC9CC" id="arb" d="M173 154h1v-1l-1 1Z"/><path fill="#F0F080" id="CB" d="m176 153-2 1v-1h2ZM197 157h1l-4-4v1l3 3Z"/><path fill="#CBC9CC" id="arb" d="M171 155h1v-1l-1 1Z"/><path fill="#F0F080" id="CB" d="m174 154-2 1v-1h2Z"/><path fill="#FF9B88" id="P" d="m188 176 9 5-3-5.5c-2.295-4.59 3.261-13.5 8-13.5 0-2.09-5-1.552-5-5l-3-3h-1l2 2.5c1.182 2.364-1 5.696-1 7.5 0 2.788-3.25 12-6 12Z"/><path fill="#F0F080" id="CB" d="M261 155h1v-1l-1 1Z"/><path fill="#FF9B88" id="P" d="m263 154-1 1v-1h1Z"/><path fill="#F0F080" id="CB" d="m261 157-2 1-1-1c0-1.577 1.762-2 3-2v2Z"/><path fill="#FF9B88" id="P" d="m262 155-1 2v-2h1Z"/><path fill="#CBC9CB" id="scp" d="M161 174h2l1-1h2c0-1.577 1.762-2 3-2l2-1 1-1c1.878 0 20.723-9.389 15.5-12-3.342-1.671-13.588 6-18.5 6h-1l-1 1h-1l-2 1c0 2.109-2.535 2-4 2l-3 6c0 1.579 2.855 1 4 1Z"/><path fill="#AAA9A7" id="V4" d="M254 162c-6.286 0-15.044 4.272-20.5 7-1.143.571-4.92 9-5 9-1.424 0-4.532-8.766-7-10-4.677-2.339-12.029-5-17.5-5l-1-1h-1c0-2.09-5-1.552-5-5h1c6.848 0 26.809 10.846 34.5 7 1.372-.686 24.657-7 25.5-7l1 1c0 2.854-5 2.448-5 4Z"/><path fill="#FF9B88" id="P" d="m267 177-6 3c0-6.365 3.14-18-7-18 0-1.552 5-1.146 5-4l2-1c0 2.765 2 5.165 2 7 0 4.728 4 8.359 4 13Z"/><path fill="#CBC9CB" id="scp" d="M294 174h2l4-1c0-4.365-10-6.533-10-9l-2-1h-1c-5.579 0-14.184-7.658-17.5-6-6.302 3.151 13.376 12 15.5 12l2 2 4 2h1l2 1Z"/><path fill="#FFFC8D" id="PFL" d="M123 188c-5.913 0-8.645 4.573-13.5 7-9.912 4.956-25.188 9.876-30.5 20.5-2.654 5.308 9 20.108 9 22.5 0 10.381-14.78 24.36-25.5 19-8.733-4.367-13.351-13.203-17.5-21.5l-1-10c-1.167-2.333-2.4-11.199-1-14 2.755-5.509 4.076-12.153 7-18 4.309-8.617 16.465-12.983 23.5-16.5 3.223-1.612 4.169-6.837 5.5-9.5 1.103-2.205 11-2.824 11-4.5 1.234 0 5 .643 5-1l8 4 5 10c0 3.383-12.21 3.855-14.5 5-8.916 4.458-38.15 24.201-31.5 37.5 1.876 3.752 2.898-5.796 3-6 2.05-4.098 6.553-11.527 10.5-13.5 10.99-5.495 22.115-10.558 33-16 4.205-2.102 14.5-.833 14.5 5Z"/><path fill="#FFBA84" id="PCG" fill-rule="evenodd" d="M239 193c0 .974-4.219 2.937-5 4.5-1.209 2.418 2.531 4.484 4.5 3.5 4.367-2.184 8.821-8 .5-8m-26 0c0 18.814 21.076 0 0 0m22-14c0 2.623-4.969 4.563-3 8.5 6.01 12.02 24.968-8.5 3-8.5m-20 0c0 1.874-5.105 4.29-4 6.5 7.685 15.369 24.481-6.5 4-6.5m20 26h2l2-1h1c0-1.643 3.765-1 5-1l6-8 1-2 1-2c0-1.238.423-3 2-3l1-1v-1l1-1v-1l1-1 2-2 1-1c0-6.365 3.14-18-7-18-6.286 0-15.044 4.272-20.5 7-1.143.571-4.92 9-5 9-1.424 0-4.532-8.766-7-10-4.677-2.339-12.029-5-17.5-5l-1-1h-1c-4.739 0-10.295 8.91-8 13.5l3 5.5v1l1 1 2 3 1 1v1c2.923 0 6.903 10.306 8 12.5 1.15 2.3 7 2.349 7 3.5h2l1 1h3c0-1.765 1.581-.541 2.5-1l2.5-3 1-2c0-2.212 1-2.212 1 0l1 3 1.5 2c1.046.523 3.5-.951 3.5 1Z"/><path fill="#FF9B88" id="P" d="m203 162 1 1-1-1Z"/><path fill="#F0F080" id="CB" d="M166 164h1v-1l-1 1Z"/><path fill="#FFAD6D" id="PB" d="m168 163-1 1v-1h1ZM290 163v1l-2-1h2Z"/><path fill="#F0F080" id="CB" d="M300 173h1c0-3.426-7.897-10-11-10v1c0 2.467 10 4.635 10 9Z"/><path fill="#FFFC8D" id="PFL" d="M333 188c5.555 0 6.016 2.758 10.5 5 9.092 4.546 29.023 12.546 33.5 21.5 4.057 8.114-9 19.108-9 24.5 1.55 0 2.364 6.228 3 7.5 3.465 6.929 9.532 8.516 15.5 11.5 5.817 2.908 13.932-5.932 17.5-9.5 9.134-9.134 13.243-34.514 7-47-9.119-18.239-26.354-18.708-34-34-1.138-2.276-10-2.883-10-4.5h-6c-1.543 0-8 1.709-8 3l-4 11 3.5 2c3.122 1.561 7.828.414 11 2 10.289 5.144 37.383 24.733 30.5 38.5-.809 1.618-2.656-6.313-3-7-2.076-4.152-5.471-10.985-10.5-13.5-11.02-5.51-22.136-10.568-33-16-3.689-1.845-14.5-.602-14.5 5Z"/><path fill="#F0F080" id="CB" d="m166 164-2 1 2-1Z"/><path fill="#FDC395" id="LC" d="M187 176h1c2.75 0 6-9.212 6-12l-4 3-1 1-1 1-1 2c-1.747 0-2 .253-2 2v2h1l1 1ZM267 177h1l1-1h1l1-1v-2c0-2.215-2-1.519-2-3l-2-2-4-4c0 4.728 4 8.359 4 13Z"/><path fill="#F0F080" id="CB" d="M164 165c-1.465 0-4-.109-4 2 1.465 0 4 .109 4-2Z"/><path fill="#FFF990" id="COPY" d="M103 166c4.718 0 8.541 10 5 10l-5-10ZM353 166c-4.616 0-8.455 11-4 11l4-11Z"/><path fill="#F0F080" id="CB" d="M155 173h2l3-6c-1.726 0-5 4.558-5 6Z"/><path fill="#FF79FE" id="MEV" d="m190 167-1 1 1-1ZM267 168l2 2-2-2Z"/><path fill="#FF9B88" id="P" d="m172 169-1 1 1-1Z"/><path fill="#FF79FE" id="MEV" d="m188 169-1 2 1-2Z"/><path fill="#FF9B88" id="P" d="m287 172-2 1v-4l2 2v1Z"/><path fill="#C9C9C8" id="icp" d="M131 192v1l3.5 6c2.908 1.454 14.5-16.452 14.5-19v-7c0-2.896-4.056-2.388-5-.5-.652 1.303-.219 7.5-2 7.5v3c0 6.854-3 9.156-3 0 0-3.104 4.665-8.169 3-11.5-.473-.945-9.258-.484-10 1-.897 1.794-2 14.468-2 15.5 1.579 0 1 2.855 1 4Z"/><path fill="#FF9B88" id="P" d="M170 172h1v-2l-2 1 1 1Z"/><path fill="#C9C9C8" id="icp" d="M325 192v1l-3.5 7c-2.74 0-13.5-16.782-13.5-20 0-1.819-1-4.591-1-7 0-7.721 7 2.982 7 6l1 4v2.5c0 8.48 5.712-2.5 2-2.5 0-2.964-4.449-8.601-3-11.5 1.083-2.165 9.926-.149 11 2l-1 5c1.843 3.686 2 6.047 2 9.5l-1 4Z"/><path fill="#FF9BCD" id="MY" d="m170 172-4 1c0-1.577 1.762-2 3-2l1 1ZM287 172l4 1-4-2v1Z"/><path fill="#FDB3D6" id="SUV" d="m165 183-2 1c-3.295 0-10.592-1.316-8-6.5 1.02-2.04 6-2.424 6-3.5h2l1-1h2l4-1h1l1 1v3l-1 1-5 5-1 1ZM290 182l2 1c4.205 0 6.372 2.757 9-2.5l1-2-6-4.5h-2l-2-1h-1l-4-1-2 1h-1v2l6 7Z"/><path fill="#F0F080" id="CB" d="m150 173-1 1v-1h1Z"/><path fill="#FF9BCD" id="MY" d="m164 211-2.5-2c-2.877-1.438-8.837.919-11 2-2.459 1.229-4.131 9-5.5 9v-9l4-4.5c1.46-2.92-4.975-7.763-7.5-6.5l-8.5 11c0-2.127 3.511-10-1-10l-1-8 3.5 6c2.908 1.454 14.5-16.452 14.5-19 2.367 0 6-4.866 6-7h2c0 1.579 2.855 1 4 1 0 1.076-4.98 1.46-6 3.5-2.592 5.184 4.705 6.5 8 6.5 0 1.247-2.467 5-4 5 0-2.029-1.191-1.881-2-3.5-5.951-11.902-19.233 12.5-4 12.5 0 10.152 7.594 9 16 9 0 1.552-5 1.146-5 4ZM164 173l-1 1 1-1Z"/><path fill="#FF9B88" id="P" d="M172 175h1l2-1-3-1v2ZM181 174c0 1.579 2.855 1 4 1v-2l-4 1ZM275 174c0 1.579-2.855 1-4 1v-2l4 1ZM283 175h1v-2l-3 1 2 1Z"/><path fill="#FF9BCD" id="MY" d="m292 173 2 1-2-1ZM311 211c0 5.908 2 10.418 2 16-1.627 0-3.161-10.822-4-12.5-1.921-3.841-16-8.615-16-3.5l-5-4c12.313 0 14 2.215 14-10l4.5 1c13.83-6.915-8.5-26.166-8.5-8l-6-7c4.205 0 6.372 2.757 9-2.5l1-2-6-4.5 4-1h1c2.545 0 2.639 7 7 7 0 3.218 10.76 20 13.5 20l3.5-7v8c-4.948 0-2 7.646-2 10l-8.5-11c-2.631-1.315-8.795 3.91-7.5 6.5 1.229 2.458 4 1.773 4 4.5Z"/><path fill="#FFB0D7" id="MV" d="M169 207h19.5l10.5-6 3-1 1-1h1l1-1c0-1.989-.247-7-3-7 0 7.286-6.122-2-1-2v-2l-1-1-2-3-1-1v-1l-9-5h-1l-1-1h-1c-1.145 0-4 .579-4-1h-6l-2 1-1 1-1 1-5 5-1 1-2 1c0 1.247-2.467 5-4 5l-1 2-3 5-1 1-1 1c0 10.152 7.594 9 16 9ZM280 207h8c12.313 0 14 2.215 14-10l-4-7-6-7-2-1-7-7-2-1h-6c0 1.579-2.855 1-4 1l-1 1h-1l-1 1h-1l-6 3-1 1-2 2-1 1v1l-1 1v1l-1 1v1c5.397 0-1 8.675-1 2h-1l-1 2-1 2v3l1 1h2l2 2h1c3.727 0 8.253 4.376 11.5 6H280Z"/><path fill="#FF9BCD" id="MY" d="m173 175-1 1v-1h1Z"/><path fill="#FF9B88" id="P" d="m186 175 1 1-1-1ZM271 175l-1 1 1-1Z"/><path fill="#FF9BCD" id="MY" d="m284 175 6 7-7-7h1ZM172 176l-1 1 1-1Z"/><path fill="#FF9B88" id="P" d="m269 176-1 1 1-1Z"/><path fill="#FFB984" id="PDTg" d="M215 179c0 1.874-5.105 4.29-4 6.5 7.685 15.369 24.481-6.5 4-6.5ZM235 179c0 2.623-4.969 4.563-3 8.5 6.01 12.02 24.968-8.5 3-8.5Z"/><path fill="#F0F080" id="CB" d="M315 183h1l-2-4 1 4ZM140 183h2v-3l-2 3Z"/><path fill="#FF9B88" id="P" d="m261 180-1 1 1-1Z"/><path fill="#FEB3D7" id="LAV" d="m154 197-1 1c-15.233 0-1.951-24.402 4-12.5.809 1.619 2 1.471 2 3.5l-1 2-3 5-1 1Z"/><path fill="#FF9BCD" id="MY" d="m166 182-1 1 1-1Z"/><path fill="#FF9B88" id="P" d="m197 182 1 1-1-1Z"/><path fill="#FEB3D7" id="LAV" d="m298 190 4 7 4.5 1c13.83-6.915-8.5-26.166-8.5-8Z"/><path fill="#FF9BCD" id="MY" d="M140 183h2c0 6.854-3 9.156-3 0h1ZM165 183l-2 1 2-1Z"/><path fill="#FF9B88" id="P" d="m258 183-1 1 1-1Z"/><path fill="#FF9BCD" id="MY" d="M316 183h1c3.712 0-2 10.98-2 2.5V183h1Z"/><path fill="#FF9B88" id="P" d="m257 185-1 1 1-1ZM200 186l1 1-1-1ZM256 187l-1 1 1-1Z"/><path fill="#FEF991" id="FL" d="M103 233c0 2.659-7.836 8.832-11.5 7l-3.5-2c0-2.392-11.654-17.192-9-22.5 5.312-10.624 20.588-15.544 30.5-20.5 4.855-2.427 7.587-7 13.5-7 0 3.638-2 5.929-2 9l-2 2v1l-5 5c-1.072 0-12.72 11.94-13 12.5-1.189 2.377 2 2.116 2 3.5 0 2.978 1 6.49 1 10l-1 2Z"/><path fill="#F0F080" id="CB" d="m129 191 2 1c0-1.145.579-4-1-4l-1 3Z"/><path fill="#FF9B88" id="P" d="M212 204h4c0-1.151-5.85-1.2-7-3.5-1.097-2.194-5.077-12.5-8-12.5v1l1 2c2.753 0 3 5.011 3 7l1 2 2 2 4 2ZM253 191h1l1-2v-1c-1.577 0-2 1.762-2 3Z"/><path fill="#F0F080" id="CB" d="M325 192h1l1-1c0-1.048.473-3-1-3l-1 4Z"/><path fill="#FEF991" id="FL" d="M353 233c0 7.23 11.16 6 15 6 0-5.392 13.057-16.386 9-24.5-4.477-8.954-24.408-16.954-33.5-21.5-4.484-2.242-4.945-5-10.5-5 0 4.46 4 7.481 4 11l5 5 13 12.5c.711 1.421.671 4.5-2 4.5v4l-1 1v3c1.579 0 1 2.855 1 4Z"/><path fill="#FF9BCD" id="MY" d="m159 189-1 2 1-2Z"/><path fill="#FEC295" id="SLD" d="m201 189 1 2c0 7.286-6.122-2-1-2ZM255 189c5.397 0-1 8.675-1 2l1-2Z"/><path fill="#FEA5D1" id="DCO" d="M114 219c0 1.048-.473 3 1 3 0-1.398 14.056-21 17-21l-1-8v-1l-2-1c-4.348 0-5.234 6-8 6l-1 2-1 1c0 2.807-2.807 5.113-4 7.5-.574 1.147 1.064 4.5-1 4.5v7Z"/><path fill="#FF9B88" id="P" d="m253 191-1 2 1-2Z"/><path fill="#FEA5D1" id="DCO" d="M325 201c6.921 0 11.853 21 17 21v-11.5l-5-11.5c-3.762 0-4.741-8-10-8l-1 1-1 1v8Z"/><path fill="#FF9BCD" id="MY" d="m326 192-1 1v-1h1Z"/><path fill="#FFB986" id="SG" d="M213 193c0 18.814 21.076 0 0 0ZM239 193c0 .974-4.219 2.937-5 4.5-1.209 2.418 2.531 4.484 4.5 3.5 4.367-2.184 8.821-8 .5-8Z"/><path fill="#FF9B88" id="P" d="m252 193-1 2 1-2ZM245 203h2l2-2 1-1 1-1v-4l-6 8Z"/><path fill="#FF9BCD" id="MY" d="m155 196-1 1 1-1Z"/><path fill="#CBC9CC" id="arb" d="M119 199h1l1-2-2 2Z"/><path fill="#FF9BCD" id="MY" d="m154 197-1 1 1-1Z"/><path fill="#FF9B88" id="P" d="M228 199h1c0-2.212-1-2.212-1 0Z"/><path fill="#FF9BCD" id="MY" d="M205 200h1l-1-2-1 1 1 1ZM251 199h1l-1-1v1Z"/><path fill="#A9AAA7" id="V4r" d="m120 199-1 1v-1h1Z"/><path fill="#FF9BCD" id="MY" d="M202 200h1v-1l-1 1Z"/><path fill="#CCCCC7" id="VIIn" d="M203 200h2l-1-1h-1v1Z"/><path fill="#AAA9A7" id="V4" d="M227 203h3v-1l-1-3h-1l-1 2v2Z"/><path fill="#FF9BCD" id="MY" d="M250 200h1v-1l-1 1Z"/><path fill="#CCCCC7" id="VIIn" d="M251 200h3v-1h-3v1Z"/><path fill="#FF9BCD" id="MY" d="m254 200 2 1-2-2v1Z"/><path fill="#A9AAA7" id="V4r" d="m342 222 2 2c0-1.361-2.877-15 0-15l-2-5-5-5 5 11.5V222ZM113 209l1 3c2.064 0 .426-3.353 1-4.5 1.193-2.387 4-4.693 4-7.5l-5 5-1 4Z"/><path fill="#C9CACB" id="vVIIIn" d="m130 241 2 1c2.308 0 .257-7.013 1-8.5 2.588-5.177 4.746-22.5 12-22.5l4-4.5c1.46-2.92-4.975-7.763-7.5-6.5l-8.5 11v3l-1 1-1 12-1 2v12Z"/><path fill="#C9CCC7" id="gVIIn" d="m201 208 3 1 7-4-3-3-2-2h-4l-3 1v3l2 4Z"/><path fill="#FF9BCD" id="MY" d="m250 200-1 1 1-1Z"/><path fill="#C9CCC7" id="gVIIn" d="m255 208-2 1-8-4v-1l2-1 2-2 1-1h4l2 1h1v2c0 2.567-2 3.913-2 5Z"/><path fill="#C9CACB" id="vVIIIn" d="m326 241-2 1c0-6.953-4.975-31-13-31 0-2.727-2.771-2.042-4-4.5-1.295-2.59 4.869-7.815 7.5-6.5l8.5 11 1 5 1 1 1 14c0 1.048-.473 3 1 3l-1 7Z"/><path fill="#FEA4D2" id="VCO" d="M119 255v2c1.918 0 2.927 5.287 5.5 4 6.902-3.451 5.5-12.801 5.5-20v-12l1-2 1-12 1-1v-3c0-2.127 3.511-10-1-10-2.944 0-17 19.602-17 21l-2 1v1l-1 1-2 6v1l1 4 1 3 1 1c0 3.115 4 6.196 4 10l1 1v2l1 2Z"/><path fill="#FF9BCD" id="MY" d="M186 216c2.259 0 5.151-3.675 8.5-2l4.5 2c2.69 0 6.675-1 10-1 0-1.692-5-2.921-5-6l-3-1c-3.433 0-5.373 4-7.5 4-5.843 0 4.062-8 5.5-8v-3l-10.5 6H177c0 1.381 6.327 1.413 7.5 2 2.494 1.247 1.5 5.275 1.5 7Z"/><path fill="#FF9B88" id="P" d="M227 203c0 2.461-3.378 2-5 2 0-1.765 1.581-.541 2.5-1l2.5-3v2Z"/><path fill="#FF9BCD" id="MY" d="M257 216c2.86 0 6.874-3.813 10.5-2l3.5 3c0-2.903-2.747-5.876 1.5-8 1.173-.587 7.5-.619 7.5-2h-11.5c-3.247-1.624-7.773-6-11.5-6v2c.636 0 9.784 7.358 6.5 9-.739.37-6.126-4-8.5-4l-2 1c0 3.795-6 3.903-6 6 3.325 0 7.31 1 10 1Z"/><path fill="#FEA4D2" id="VCO" d="M338 252v2c-1.951 0-.477 2.454-1 3.5-1.649 3.299-7.147 4.705-9 1-1.812-3.624-1-9.182-1-13.5 0-1.145.579-4-1-4l1-7c0-1.048.473-3-1-3l-1-14-1-1-1-5c0-2.354-2.948-10 2-10 6.921 0 11.853 21 17 21l2 2 3 8v2l-1 1v1l-1 1c0 4.869-6 8.378-6 14l-1 1Z"/><path fill="#FF9BCD" id="MY" d="m212 204-1 1-3-3 4 2Z"/><path fill="#FF9B88" id="P" d="M230 203c0 2.461 3.378 2 5 2 0-1.951-2.454-.477-3.5-1l-1.5-2v1Z"/><path fill="#FF9BCD" id="MY" d="M227 215c0 3.803 2.524 0 3 0 0-2.656-.232-6.634 2.5-8 .969-.484 4.5.065 4.5 1.5 0 .285-5 2.532-5 5.5 2.097 0 5.293-1 8-1 0-2.522-2-4.909-2-8h-3c-1.622 0-5 .461-5-2h-3c0 2.461-3.378 2-5 2h-3c0 3.219-3 5.108-3 8 3.222 0 6.277 1 9 1 0-2.189-5.494-5.512-5-6.5h5l2 7.5Z"/><path fill="#FF9B88" id="P" d="M244 204h1v-1c-1.235 0-5-.643-5 1h4Z"/><path fill="#FF9BCD" id="MY" d="m247 203-2 1v-1h2Z"/><path fill="#CCCCC7" id="VIIn" d="M257 203c.636 0 9.784 7.358 6.5 9-.739.37-6.126-4-8.5-4 0-1.087 2-2.433 2-5ZM199 204c-1.438 0-11.343 8-5.5 8 2.127 0 4.067-4 7.5-4l-2-4Z"/><path fill="#FDB1D9" id="VI" d="M216 213c-2.16 0-4.167 2-7 2 0-1.692-5-2.921-5-6l7-4 1-1h6l1 1c0 3.219-3 5.108-3 8Z"/><path fill="#FF9B88" id="P" d="m218 204 1 1-1-1ZM237 205h1l1-1-2 1Z"/><path fill="#FDB1D9" id="VI" d="M240 213c2.16 0 4.167 2 7 2 0-2.097 6-2.205 6-6l-8-4-1-1h-5l-1 1c0 3.091 2 5.478 2 8Z"/><path fill="#FF9BCD" id="MY" d="M245 204v1l-1-1h1Z"/><path fill="#CBC9CC" id="arb" d="m352 216 1 5c2.671 0 2.711-3.079 2-4.5L342 204l2 5h1l2 2 4 4 1 1ZM113 209c-2.378 0-7.852 5.205-9 7.5-.574 1.147 1.064 4.5-1 4.5 0-1.384-3.189-1.123-2-3.5.28-.56 11.928-12.5 13-12.5l-1 4Z"/><path fill="#FCB3D9" id="PARN" d="M156 262h1c0-3.414 5.104-6 8-6l8-7.5c3.567-7.133 12-23.69 12-31.5l1-1c0-1.725.994-5.753-1.5-7-1.173-.587-7.5-.619-7.5-2h-8c0 1.552-5 1.146-5 4 0 11.682-3.732 20.963-9 31.5v13c-1.042 2.084-2 2.908-2 5.5l2 1h1Z"/><path fill="#CBCBCC" id="mlf" d="m225 214 2 1-2-7.5h-5c-.494.988 5 4.311 5 6.5ZM230 215c0 1.186 1 1.186 1 0l1-1c0-2.968 5-5.215 5-5.5 0-1.435-3.531-1.984-4.5-1.5-2.732 1.366-2.5 5.344-2.5 8Z"/><path fill="#FCB3D9" id="PARN" d="M300 262h2l1-2c0-2.592-.958-3.416-2-5.5v-13c-6.05-12.099-8-16.962-8-30.5l-5-4h-8c0 1.381-6.327 1.413-7.5 2-4.247 2.124-1.5 5.097-1.5 8v1l1 1c0 8.742 7.212 20.924 11 28.5l6.5 7.5c.919.459 2.5-.765 2.5 1 2.151 0 7 2.323 7 5l1 1Z"/><path fill="#A9AAA8" id="chpl" d="m110 231-1 1-5-1c0-3.51-1-7.022-1-10 2.064 0 .426-3.353 1-4.5 1.148-2.295 6.622-7.5 9-7.5l1 3c-1.587 0-1.587 6 0 6v1c-1.579 0-1 2.855-1 4v1l-1 1-2 6Z"/><path fill="#FFA4D0" id="SPVO" d="m142 259 5.5 4 5.5-2c0-2.592.958-3.416 2-5.5v-13c5.268-10.537 9-19.818 9-31.5l-2.5-2c-2.877-1.438-8.837.919-11 2-2.459 1.229-4.131 9-5.5 9v1c0 1.775-.069 8-2 8 0 1.145.579 4-1 4 0 6.108-3 10.748-3 17v1c.733 0 3 6.022 3 7v1ZM303 260l4.5 3 5.5-3 1-1 1-1v-1l1-1v-1l1-2c0-9.39-4-16.483-4-25v-1c-1.627 0-3.161-10.822-4-12.5-1.921-3.841-16-8.615-16-3.5 0 13.538 1.95 18.401 8 30.5v13c1.042 2.084 2 2.908 2 5.5Z"/><path fill="#A9AAA8" id="chpl" d="M352 229c0 3.236-2.435 3-5 3l-3-8c0-1.361-2.877-15 0-15h1l2 2 4 4 1 1 1 5v4l-1 1v3Z"/><path fill="#A9AAA7" id="V4r" d="m345 209 2 2-2-2Z"/><path fill="#C8CACA" id="sptV" d="M151 266c0 2.409-1 5.181-1 7-17.69 0-18-17.879-18-31 2.308 0 .257-7.013 1-8.5 2.588-5.177 4.746-22.5 12-22.5v10c-1.434 0-2 6.448-2 8-1.579 0-1 2.855-1 4-1.963 0-4 10.369-4 12.5 0 1.19-.614 4.5 1 4.5v1c0 1.989.247 7 3 7v1c0 2.439 7.088 7 9 7ZM305 267l1 5c1.602 0 2.384 3.058 4.5 2 13.874-6.937 13.5-18.844 13.5-32 0-6.953-4.975-31-13-31 0 5.908 2 10.418 2 16v1c1.646 0 5 14.893 5 18.5 0 1.363.7 6.5-1 6.5l-1 2v1l-1 1v1l-1 1-1 1c0 1.911-6.911 7-8 7Z"/><path fill="#A9AAA7" id="V4r" d="M114 212c-1.587 0-1.587 6 0 6v-6Z"/><path fill="#FEB0D8" id="GRN" fill-rule="evenodd" d="m234 224-3 5.5.5 19.5c5.139 2.57 3.5-16.59 3.5-19.5 0-1.278.665-5.5-1-5.5m-12 0c0 3.356-1.801 5.898 0 9.5 1.006 2.011-1.892 17.696 2.5 15.5 2.955-1.478 1.399-25-2.5-25m32 48h1c0-4.045 5.781-1 7-1l3-6c0-4.717-1.939-12.377-4-16.5-1.055-2.111-4-28.68-4-32.5-2.69 0-6.675-1-10-1-2.833 0-4.84-2-7-2-2.707 0-5.903 1-8 1l-1 1c0 1.186-1 1.186-1 0-.476 0-3 3.803-3 0l-2-1c-2.723 0-5.778-1-9-1-2.16 0-4.167 2-7 2-3.325 0-7.31 1-10 1 0 17.346-7 34.509-7 50 0 1.974 2 3.517 2 6 1.518 0 7-5.136 7 0h2c0-5.46 13.197-10.348 16.5-12 1.956-.978 4.077 1 5.5 1h1c0-12.785 5-11.374 5 0 6.694 0 9.228.864 15.5 4l7.5 7Z"/><path fill="#FF9BCD" id="MY" d="m133 214-1 1 1-1Z"/><path fill="#FFB2D8" id="IRN" d="M165 256c6.447 0 14.081 1.291 19.5 4l7.5 6c0-15.491 7-32.654 7-50l-4.5-2c-3.349-1.675-6.241 2-8.5 2l-1 1c0 7.81-8.433 24.367-12 31.5l-8 7.5Z"/><path fill="#FF9BCD" id="MY" d="m232 214-1 1 1-1Z"/><path fill="#FFB2D8" id="IRN" d="M292 256c-5.554 0-13.769.635-18.5 3-2.937 1.469-5.783 6-8.5 6 0-4.717-1.939-12.377-4-16.5-1.055-2.111-4-28.68-4-32.5 2.86 0 6.874-3.813 10.5-2l3.5 3v1l1 1c0 8.742 7.212 20.924 11 28.5l6.5 7.5c.919.459 2.5-.765 2.5 1Z"/><path fill="#A9AAA7" id="V4r" d="m351 215 1 1-1-1Z"/><path fill="#FF9BCD" id="MY" d="m186 216-1 1 1-1ZM324 216l1 1-1-1ZM271 218l1 1-1-1Z"/><path fill="#A9AAA7" id="V4r" d="m115 222-2 1c0-1.145-.579-4 1-4 0 1.048-.473 3 1 3Z"/><path fill="#FF9BCD" id="MY" d="M145 221c-1.434 0-2 6.448-2 8 1.931 0 2-6.225 2-8Z"/><path fill="#A9AAA7" id="V4r" d="m113 224-1 1 1-1Z"/><path fill="#C8C8CC" id="tspc" d="M222 224c0 3.356-1.801 5.898 0 9.5 1.006 2.011-1.892 17.696 2.5 15.5 2.955-1.478 1.399-25-2.5-25ZM234 224l-3 5.5.5 19.5c5.139 2.57 3.5-16.59 3.5-19.5 0-1.278.665-5.5-1-5.5Z"/><path fill="#A9AAA7" id="V4r" d="m353 225-1 1 1-1Z"/><path fill="#FF9BCD" id="MY" d="m131 227-1 2 1-2ZM313 228c1.646 0 5 14.893 5 18.5 0 1.363.7 6.5-1 6.5 0-9.39-4-16.483-4-25ZM143 229c-1.579 0-1 2.855-1 4 1.579 0 1-2.855 1-4Z"/><path fill="#A9AAA7" id="V4r" d="M347 233h6c0-1.145.579-4-1-4 0 3.236-2.435 3-5 3v1ZM103 233h6v-1l-5-1-1 2ZM109 232h1v-1l-1 1Z"/><path fill="#FF9BCD" id="MY" d="M326 231c1.473 0 1 1.952 1 3-1.473 0-1-1.952-1-3ZM109 233c0 1.238.423 3 2 3l-1-4h-1v1ZM142 233c-1.963 0-4 10.369-4 12.5 0 1.19-.614 4.5 1 4.5 0-6.252 3-10.892 3-17ZM347 234l-1 1 1-1ZM346 236l-1 1 1-1ZM112 239l1 1-1-1ZM153 277c-4.714 0 0 .929 0 4l-10.5-8-14-8c-2.592-1.296-6.252-.626-9-2l-.5-6c1.918 0 2.927 5.287 5.5 4 6.902-3.451 5.5-12.801 5.5-20l2 1c0 13.121.31 31 18 31l3 4ZM305 275c2.56 0 0 3.334 0 4 3.26 0 18.28-11.89 22.5-14 3.258-1.629 7.213 2.073 9.5-2.5l1-8.5c-1.951 0-.477 2.454-1 3.5-1.649 3.299-7.147 4.705-9 1-1.812-3.624-1-9.182-1-13.5 0-1.145.579-4-1-4l-2 1c0 13.156.374 25.063-13.5 32-2.116 1.058-2.898-2-4.5-2l-1 3ZM117 250l1 1-1-1Z"/><path fill="#FF9BCD" id="MY" d="M139 251c.733 0 3 6.022 3 7-2.753 0-3-5.011-3-7Z"/><path fill="#FFC5E2" id="RM" d="M227 278h3v-3c0-1.657-.763-10 1-10v-4c0-11.374-5-12.785-5 0v16l1 1Z"/><path fill="#FF9BCD" id="MY" d="m339 251-1 1 1-1ZM118 253l1 2-1-2ZM317 253l-1 2 1-2Z"/><path fill="#FFB3D6" id="VII" d="M171 286h2l16.5 1 2.5-2 2-5v-8c0-2.483-2-4.026-2-6l-7.5-6c-5.419-2.709-13.053-4-19.5-4-2.896 0-8 2.586-8 6l-1 1-1 1v2l-1 1v2l-1 2c0 8.583 13 11.904 13 14h1c1.145 0 4-.579 4 1ZM284 286h1c0-1.579 2.855-1 4-1h1l8.5-5c4.737-2.368 4.5-7.518 4.5-12l-1-1v-1l-1-1-1-3-1-1c0-2.677-4.849-5-7-5-5.554 0-13.769.635-18.5 3-2.937 1.469-5.783 6-8.5 6l-3 6v9l1 1 2 5h19Z"/><path fill="#FF9BCD" id="MY" d="m316 256-1 1 1-1ZM315 258l-1 1 1-1ZM155 264c0-3.164-3.269 2-4 2-1.912 0-9-4.561-9-7l5.5 4 5.5-2 2 1 1 1-1 1ZM314 259l-1 1 1-1Z"/><path fill="#FDB2D9" id="MARN" d="m201 277 2 4c6.228 0 11.379-6 17-6l1-1 4-4.5V261c-1.423 0-3.544-1.978-5.5-1-3.303 1.652-16.5 6.54-16.5 12l-2 2v3ZM255 277l-1 4c-8.074 0-23-6.684-23-16v-4c6.694 0 9.228.864 15.5 4l7.5 7 1 1v4Z"/><path fill="#FF9BCD" id="MY" d="M302 262c0 1.947 3 2.636 3 5 1.089 0 8-5.089 8-7l-5.5 3-4.5-3-1 2ZM221 274l5 1v-14h-1v8.5l-4 4.5ZM299 261l1 1-1-1Z"/><path fill="#C8C8CB" id="rust" d="M156 262v1l-1-1h1Z"/><path fill="#FF9BCD" id="MY" d="m157 262-1 1v-1h1Z"/><path fill="#C8C8CB" id="rust" d="M294 285h1c0-1.577 1.762-2 3-2 0-1.577 1.762-2 3-2 0-1.114 2.034-4 3-4l1-1v-1l1-3-1-5c0-2.364-3-3.053-3-5h-2l1 3 1 1v1l1 1c0 4.482.237 9.632-4.5 12l-8.5 5h4ZM153 277c0 4.359 9.771 8 13 8 0-2.096-13-5.417-13-14l1-2v-2l1-1v-2c0-3.164-3.269 2-4 2 0 2.409-1 5.181-1 7l3 4Z"/><path fill="#FF9BCD" id="MY" d="M290 287c0 2.076-8.928 2-11 2-9.924 0-19.207 4-30 4 0-1.317 3.356-1.788 2-4.5-1.44-2.88-16-6.144-16-7.5 3.76 0 2.048-5.726-.5-7l-4.5 1c0-1.657-.763-10 1-10 0 9.316 14.926 16 23 16 0 6.853 7.607 5 11 5h19l-2 1.5 8-.5ZM301 265l1 1-1-1ZM155 266l-1 1 1-1ZM302 267l1 1-1-1ZM154 269l-1 2 1-2Z"/><path fill="#FCB2D9" id="PGRNl" d="m194 277 2 1 4-2 1-1v-3c0-5.136-5.482 0-7 0v5ZM261 278h1v-7c-1.219 0-7-3.045-7 1v2l2 2 4 2Z"/><path fill="#FF9BCD" id="MY" d="m203 272-2 2v-2h2ZM255 272v1l-1-1h1ZM221 274l-1 1 1-1Z"/><path fill="#CACCC8" id="ml" d="M224 281h1c3.382 0 1-1.342 1-3v-3l-5-1-1 1c0 2.07-2.984 6 1 6h3ZM232 281h3c3.76 0 2.048-5.726-.5-7l-4.5 1v3c0 1.048-.473 3 1 3h1Z"/><path fill="#FF9BCD" id="MY" d="m257 276-2 1v-3l2 2ZM200 276l1 1v-2l-1 1ZM167 287c0 2.423 8.394 2 10.5 2 9.685 0 18.891 4 29.5 4 0-1.317-3.356-1.788-2-4.5 1.159-2.319 16-6.361 16-7.5-3.984 0-1-3.93-1-6-5.621 0-10.772 6-17 6 0 3.81-11 9.034-11 4l-2.5 2-16.5-1c0 3.491-1.983 1-6 1Z"/><path fill="#CBC7CC" id="sctv" d="M301 281h2l1-1 1-1c0-.666 2.56-4 0-4v1l-1 1c-.966 0-3 2.886-3 4ZM165 287h2c4.017 0 6 2.491 6-1h-2c-1.145 0-4 .579-4-1h-1c-3.229 0-13-3.641-13-8-4.714 0 0 .929 0 4h1l2 2h1l2 2h2l1 1h1l2 1Z"/><path fill="#FCB2D8" id="PPY" d="M203 281c0 3.81-11 9.034-11 4l2-5 2-2 4-2 1 1 2 4ZM263 281l2 5c-3.393 0-11 1.853-11-5l1-4 2-1 4 2 1 1v1l1 1Z"/><path fill="#FF9BCD" id="MY" d="m305 276-1 1 1-1ZM196 278l-2 2v-3l2 1ZM226 278h1l-1-1v1Z"/><path fill="#FFC6E2" id="RPA" d="M226 286h4l1-4v-1c-1.473 0-1-1.952-1-3h-4c0 1.658 2.382 3-1 3v1l1 4Z"/><path fill="#FF9BCD" id="MY" d="M262 278v1l-1-1h1ZM305 279l-1 1 1-1ZM262 280l1 1-1-1ZM304 280l-1 1 1-1ZM154 281l2 2-2-2Z"/><path fill="#C7C9C9" id="py" d="M208 293h11c0-1.765 7-3.705 7-7l-1-4-1-1h-3c0 1.139-14.841 5.181-16 7.5-1.356 2.712 2 3.183 2 4.5h1Z"/><path fill="#FF9BCD" id="MY" d="M225 281v1l-1-1h1ZM232 281l-1 1v-1h1Z"/><path fill="#C7C9C9" id="py" d="M238 293h11c0-1.317 3.356-1.788 2-4.5-1.44-2.88-16-6.144-16-7.5h-3l-1 1-1 4c.049 0 7 6.982 7 7h1Z"/><path fill="#CBC7CC" id="sctv" d="M298 283h1l2-1v-1c-1.238 0-3 .423-3 2Z"/><path fill="#FF9BCD" id="MY" d="m303 281-2 1v-1h2ZM157 283l2 2-2-2Z"/><path fill="#CBC7CC" id="sctv" d="M296 285h1l1-1v-1c-1.238 0-3 .423-3 2h1Z"/><path fill="#FF9BCD" id="MY" d="m299 283-1 1v-1h1ZM298 284l-1 1 1-1ZM161 285l1 1-1-1ZM167 285c1.145 0 4-.579 4 1-1.145 0-4 .579-4-1ZM289 285c-1.145 0-4-.579-4 1 1.145 0 4 .579 4-1Z"/><path fill="#CBC7CC" id="sctv" d="M290 287h1l2-1h1v-1h-5c0 1.579-2.855 1-4 1h-1l-2 1.5 8-.5Z"/><path fill="#FF9BCD" id="MY" d="m296 285-2 1v-1h2ZM163 286l2 1-2-1ZM219 293c4.702 0 5.523-2.511 8.5-4 .438-.219 6.92 4 9.5 4 0-.018-6.951-7-7-7h-4c0 3.295-7 5.235-7 7ZM293 286l-2 1 2-1ZM208 293h11c0 1.634-11 1.634-11 0ZM238 293h11c0 1.634-11 1.634-11 0Z"/></svg>