<svg xmlns="http://www.w3.org/2000/svg" viewBox="0 0 456 320"><path fill="#FCFB90" id="CUL4, 5" d="m173 128 8.5-3c1.335-.668 5.697 1.151 8 0 3.403-1.701 7.411-10.678 5.5-14.5-2.963-5.926-5.26-8.479-2-15 4.06-8.12 19.716-6.108 26.5-9.5h7l1-2 2 2c2.275 1.137 5.617-.192 8 1 6.942 3.471 21.752.004 26.5 9.5 2.477 4.954.118 8.763-2 13-6.549 13.098 14.308 18.5 22 18.5 0-5.041 7.59-23.32 4-30.5L283 82l-6.5-6c-3.937-1.968-30.5-16.203-30.5-18.5 0-5.853 15-5.8 15-12.5 0-3.864-9.107-6-12.5-6h-41c-3.399 0-11.5 1.901-11.5 6 0 6.612 11.502 6.504 14 11.5 1.552 3.104-3.659 5.58-5.5 6.5-7.659 3.83-15.227 8.114-23 12l-8.5 8c0 3.195-2.597 7.695-4 10.5-2.282 4.564-1.128 21.743 1 26 .768 1.537.692 8.5 3 8.5Z"/><path fill="#FEFA90" id="DEC" d="M172 52c0 9.534 1 20.784 1 31l8.5-8c7.773-3.886 15.341-8.17 23-12 1.841-.92 7.052-3.396 5.5-6.5-2.498-4.996-14-4.888-14-11.5-6.334 0-15.129 1.314-20.5 4-1.228.614-1.276 3-3.5 3ZM284 52c0 9.252-1 20.08-1 30l-6.5-6c-3.937-1.968-30.5-16.203-30.5-18.5 0-5.853 15-5.8 15-12.5l14.5 2c1.692.846 6.899 5 8.5 5Z"/><path fill="#FDFB8F" id="SIM" d="M143 101c4.532 0 12.171-20.843 14-24.5v-5c.921-1.841 3.396-7.052 6.5-5.5L159 76.5v4c-4.214 8.427-9 16.803-9 27 0 6.202 1.125 17.312 7.5 20.5 2.091 1.046 15.5 2.87 15.5 0-2.308 0-2.232-6.963-3-8.5-2.128-4.257-3.282-21.436-1-26 1.403-2.805 4-7.305 4-10.5 0-10.216-1-21.466-1-31-2.608 0-6.723-3.889-10.5-2-6.624 3.312-26.5 7.14-26.5 18 5.557 0 8 28.112 8 33ZM313 100c-7.213 0-11.53-23.56-14-28.5-.704-1.408-2.831-6.835-5.5-5.5-1.436.718 2.697 7.893 3.5 9.5v4c4.078 8.157 10 17.798 10 27.5 0 7.164-2.786 18.643-9.5 22-1.822.911-13.5 1.41-13.5-1 0-5.041 7.59-23.32 4-30.5L283 82c0-9.92 1-20.748 1-30 2.798 0 7.516-3.992 11.5-2 6.484 3.242 25.5 7.525 25.5 18-4.722 0-8 27.57-8 32Z"/><path fill="#CBC9CC" id="arb" fill-rule="evenodd" d="M226 89c0 3.153-5.8 4.35-8.5 3-5.86-2.93-15.673 3.847-18.5 9.5-5.791 11.582 11.889 27.694 19.5 31.5 3.111 1.556 6.517 8.741 12 6 8.626-4.313 22.948-17.395 26.5-24.5 2.623-5.247.223-17.138-4.5-19.5-3.239-1.62-6.726-2.363-10-4l-11 1c-2.425-1.213-1.567-3-5.5-3m87 92 9 10c0-6.667-8-21.439-8-30-3.813 0-.892-3.284-2-5.5-3.048-6.096 11-11.456 11-.5h9c10.147 0 14.272 3.886 22.5 8 1.635.817 6.358 10.821 8 10 1.639-.82-.136-2.772-.5-3.5-2.157-4.315-7.408-8.815-9-12-.387-.774-2.186-4.5 0-4.5 0-2.417 13.243-6 15.5-6l6.5-.5c0-.291-1.697-5.394-2-6l-4.5 2.5c-3.534 1.767-7.436 2.218-11 4-6.011 3.006-23.578-1.289-29-4-2.495-1.248-9.5-2.753-9.5-6-3.797 0-8.168-20.164-6-24.5l4.5-7.5c1.44-.72 7.5-1.525 7.5-4.5 0-1.626-5.002 2.251-5.5 2.5-1.967.984-6.5-.66-6.5-3-7.213 0-11.53-23.56-14-28.5-.704-1.408-2.831-6.835-5.5-5.5-1.436.718 2.697 7.893 3.5 9.5v4c4.078 8.157 10 17.798 10 27.5 0 7.164-2.786 18.643-9.5 22-1.822.911-13.5 1.41-13.5-1-7.692 0-28.549-5.402-22-18.5 2.118-4.237 4.477-8.046 2-13-4.748-9.496-19.558-6.029-26.5-9.5-2.383-1.192-5.725.137-8-1l-2-2-1 2h-7c-6.784 3.392-22.44 1.38-26.5 9.5-3.26 6.521-.963 9.074 2 15 1.911 3.822-2.097 12.799-5.5 14.5-2.303 1.151-6.665-.668-8 0l-8.5 3c0 2.87-13.409 1.046-15.5 0-6.375-3.188-7.5-14.298-7.5-20.5 0-10.197 4.786-18.573 9-27v-4l4.5-10.5c-3.104-1.552-5.579 3.659-6.5 5.5v5c-1.829 3.657-9.468 24.5-14 24.5 0 1.527-4.928 2.786-6.5 2l-9.5-8.5c-.455-.91-1.478-8.045-2-7-4.322 8.644 15.005 17.01 18 23 2.401 4.802-1.023 27.5-6 27.5 0 2.295-7.842 4.171-9.5 5-5.322 2.661-22.162 6.919-28 4-3.171-1.586-6.93-1.465-10-3l-6.5-3.5c-5.79 11.58 20 5.392 20 12.5 3.859 0-6.63 12.761-8 15.5-.42.839-3.786 3.357-1.5 4.5l2.5-1.5c1.554-3.108 4.799-8.649 8.5-10.5 7.174-3.587 11.679-6 20.5-6 3.013 0 6.611-1 9-1 0-5.778 8.158-8.184 11-2.5.913 1.826.004 9.5-2 9.5-1.781 0-1.348 6.197-2 7.5-1.116 2.232-7 21.679-7 23.5.547 0 9-10.376 9-11 0-11.716 4.359-26.929 16.5-33 4.026-2.013 7.656 6.172 10 5 2.985-1.493.604-4 5.5-4l1-4c0-2.696-5.584-6.331-4-9.5l5.5-2.5 12 4h6c5.385 2.693 13.393 13.804 5 18-2.536 1.268-5.544 1.772-8 3-3.395 1.698-7.396 2-11.5 2l-2 1v2c15.121 0 44.871-21.814 56.5-16 10.392 5.196 29.333 16 41.5 16 0-1.236.936-3-2-3-3.695 0-7.429-.465-10.5-2-2.753-1.376-6.161-1.581-9-3-5.072-2.536-2.2-13.9 2-16 5.286-2.643 11.674-2.337 17-5 1.513-.757 10.5-.108 10.5 2.5l-4 8.5 1 4c2.512 0 5.374 4.563 6.5 4 2.711-1.356 3.53-6 7-6 10.25 0 15.893 22.286 19.5 29.5l-2 4.5Z"/><path fill="#FCFC90" id="ANcr1" d="M87 104c21.188 0 13.852 21.676 24.5 27 5.816 2.908 13.235 2.117 19 5 1.3.65 6.5.007 6.5 2 4.977 0 8.401-22.698 6-27.5-2.995-5.99-22.322-14.356-18-23 .522-1.045 1.545 6.09 2 7l9.5 8.5c1.572.786 6.5-.473 6.5-2 0-4.888-2.443-33-8-33l-5.5-1C117.538 72.98 87 89.005 87 104Z"/><path fill="#FCFC90" id="ANcr1" fill-rule="evenodd" d="M326 97c0 5.512.634 0 0 0m3-3c0 .749-3.66 1.92-1.5 3 1.546.773 3.887-3 1.5-3m1-4c0 7.389 2.111 0 0 0m0-4c0 1.93 1.93 0 0 0m39 18c-15.465 0-14.568 12.635-19 21.5-3.553 7.105-23.907 11.5-31 11.5-3.797 0-8.168-20.164-6-24.5l4.5-7.5c1.44-.72 7.5-1.525 7.5-4.5 0-1.626-5.002 2.251-5.5 2.5-1.967.984-6.5-.66-6.5-3 0-4.43 3.278-32 8-32l5.5-1c12.295 6.147 42.5 21.023 42.5 37Z"/><path fill="#CBC9CC" id="arb" d="M330 86c0 1.93 1.93 0 0 0Z"/><path fill="#FCFB90" id="CUL4, 5" d="M226 89c0 3.153-5.8 4.35-8.5 3-5.86-2.93-15.673 3.847-18.5 9.5-5.791 11.582 11.889 27.694 19.5 31.5 3.111 1.556 6.517 8.741 12 6 8.626-4.313 22.948-17.395 26.5-24.5 2.623-5.247.223-17.138-4.5-19.5-3.239-1.62-6.726-2.363-10-4l-11 1c-2.425-1.213-1.567-3-5.5-3Z"/><path fill="#CBC9CC" id="arb" d="M330 90c0 7.389 2.111 0 0 0ZM329 94c0 .749-3.66 1.92-1.5 3 1.546.773 3.887-3 1.5-3ZM326 97c0 5.512.634 0 0 0Z"/><path fill="#FCFA91" id="ANcr2" d="M103 153c-6.029 0-22.538 13-27 13 0-2.348-4.897-1-5.5-1-1.898 0-4.851-7.202-5.5-8.5-5.492-10.984 1.537-30.074 6-39l4-4c1.417-2.834 8.637-9.5 12-9.5 21.188 0 13.852 21.676 24.5 27 5.816 2.908 13.235 2.117 19 5 1.3.65 6.5.007 6.5 2 0 2.295-7.842 4.171-9.5 5-5.322 2.661-22.162 6.919-28 4-3.171-1.586-6.93-1.465-10-3l-6.5-3.5c-5.79 11.58 20 5.392 20 12.5ZM353 153c7.828 0 19.635 12 27 12 19.358 0 12.588-33.323 7-44.5l-4-5c-1.872-3.743-9.706-11.5-14-11.5-15.465 0-14.568 12.635-19 21.5-3.553 7.105-23.907 11.5-31 11.5 0 3.247 7.005 4.752 9.5 6 5.422 2.711 22.989 7.006 29 4 3.564-1.782 7.466-2.233 11-4l4.5-2.5c.303.606 2 5.709 2 6l-6.5.5c-2.257 0-15.5 3.583-15.5 6Z"/><path fill="#FFFCBC" id="FN" d="M176 145c6.645 0 5 12.243 5 15 4.104 0 8.105-.302 11.5-2 2.456-1.228 5.464-1.732 8-3 8.393-4.196.385-15.307-5-18h-6l-12-4-5.5 2.5c-1.584 3.169 4 6.804 4 9.5ZM281 145c-7.795 0-6 11.567-6 15-3.695 0-7.429-.465-10.5-2-2.753-1.376-6.161-1.581-9-3-5.072-2.536-2.2-13.9 2-16 5.286-2.643 11.674-2.337 17-5 1.513-.757 10.5-.108 10.5 2.5l-4 8.5Z"/><path fill="#F0F080" id="CB" d="m181 160-2 1c0-4.461 1.819-12-4-12l1-4c6.645 0 5 12.243 5 15ZM277 163c3.68 0 5.511 2 9 2 0-1.967-7.653-2.806-9-5.5-2.099-4.197.5-10.5 5-10.5l-1-4c-7.795 0-6 11.567-6 15 2.936 0 2 1.764 2 3Z"/><path fill="#FDFC8F" id="NOD" d="m212 185 3.5 2h25l4.5-2 2-1 1-1h2l2-1h1c0-1.473 1.952-1 3-1h2c0-1.424 12.9-2 15-2 5.192 0 10.33-2 16-2h3c0-1.473 1.952-1 3-1h1l-1-5c-2.147 0-5.481-6-9-6-3.489 0-5.32-2-9-2-12.167 0-31.108-10.804-41.5-16-11.629-5.814-41.379 16-56.5 16h-4c0 1.638-3.576 2-5 2-1.976 0-11 6.335-11 8 2.845 0 1 .959 1 3h1c1.048 0 3-.473 3 1h3c5.67 0 10.808 2 16 2 2.267 0 16 .443 16 2h2c1.357 0 6 .647 6 2h1l1 1h1l1 1h1Z"/><path fill="#FFFDBC" id="IP" d="M297 173c5.406 0 10.027 8 16 8l2-4.5c-3.607-7.214-9.25-29.5-19.5-29.5-3.47 0-4.289 4.644-7 6-1.126.563-3.988-4-6.5-4-4.5 0-7.099 6.303-5 10.5 1.347 2.694 9 3.533 9 5.5 3.519 0 6.853 6 9 6l1 1 1 1ZM134 154c0 3.755 9 4.022 9 7 2.004 0 2.913-7.674 2-9.5-2.842-5.684-11-3.278-11 2.5ZM159 173c-3.631 0-10.536 8-16 8 0-11.716 4.359-26.929 16.5-33 4.026-2.013 7.656 6.172 10 5 2.985-1.493.604-4 5.5-4 5.819 0 4 7.539 4 12-1.238 0-3 .423-3 2h-1c-1.424 0-5 .362-5 2-1.976 0-11 6.335-11 8ZM323 155c-1.002 0-9 4.163-9 6-3.813 0-.892-3.284-2-5.5-3.048-6.096 11-11.456 11-.5Z"/><path fill="#FFFB8E" id="PRM" d="M107 200c-.701 0-4-1.277-4 1-3.613 0-6.74 1.88-10.5 0-10.882-5.441-16.5-24.995-16.5-35 4.462 0 20.971-13 27-13 3.859 0-6.63 12.761-8 15.5-.42.839-3.786 3.357-1.5 4.5l2.5-1.5c1.554-3.108 4.799-8.649 8.5-10.5 7.174-3.587 11.679-6 20.5-6l-9 24-3 4.5c-2.052 4.104-6 11.816-6 16.5ZM349 200c1.004 0 4-2.31 4 1l7.5 1c13.174-6.587 19.5-22.266 19.5-37-7.365 0-19.172-12-27-12-2.186 0-.387 3.726 0 4.5 1.592 3.185 6.843 7.685 9 12 .364.728 2.139 2.68.5 3.5-1.642.821-6.365-9.183-8-10-8.228-4.114-12.353-8-22.5-8 0 5.377 9 20.68 9 24 0 6.993 8 13.299 8 21Z"/><path fill="#FFF990" id="COPY" d="m134 192-2 3c-1.574 0-10.962-16-16-16l9-24c3.013 0 6.611-1 9-1 0 3.755 9 4.022 9 7-1.781 0-1.348 6.197-2 7.5-1.116 2.232-7 21.679-7 23.5ZM322 191l2 4c3.325 0 10.21-16 17-16 0-3.32-9-18.623-9-24h-9c-1.002 0-9 4.163-9 6 0 8.561 8 23.333 8 30Z"/><path fill="#F0F080" id="CB" d="M176 163h3v-2c-1.238 0-3 .423-3 2ZM175 163c-1.424 0-5 .362-5 2 1.424 0 5-.362 5-2Z"/><path fill="#A9AAA7" id="V4r" fill-rule="evenodd" d="m321 203-1 3.5c1.817 3.634 10.135 24.683 14.5 22.5l.5-9c0-7.996-5.604-17-14-17m11 35 3 3 2-5.5 1-20.5-2-2-1-2-1-1-2.5-3-7.5-12-2-4-9-10c-5.973 0-10.594-8-16-8l-1-1-1-1 1 5c5.761 0 20.623 11.939 12.5 16-3.449 1.724-22.816-8.133-24.5-11.5-1.131-2.263 5-1.972 5-3.5-5.67 0-10.808 2-16 2v2c9.586 0 18.928 10 23 10 12.043 0 30 21.065 30 32v1l1 1 1 3 1 1 2 7 1 1v1Z"/><path fill="#FDFC8F" id="NOD" d="m296 172 1 1-1-1Z"/><path fill="#A9AAA7" id="V4r" fill-rule="evenodd" d="M129 203c0 1.807-13.822 22.839-7.5 26l4.5-.5 11-24c-1.221-2.443-5.709-1.5-8-1.5m-5 36c-1.532 0-.95 1-3 1 0-2.592-.958-3.416-2-5.5-2.541-5.082 0-14.607 0-19.5l1-2 1-1 1-1 1-1c0-5.09 9-9.485 9-15l2-3c.547 0 9-10.376 9-11 5.464 0 12.369-8 16-8 2.845 0 1 .959 1 3-5.695 0-15.987 7.527-13 13.5l.5 2.5c5.264 2.632 12.326-5 17.5-5l-4 4c-11.067 0-28 15.926-28 27l-1 2-1 1v2l-1 1v1l-1 1v1l-1 1v1l-1 1v2l-1 1-1 2v2l-1 2Z"/><path fill="#A9AAA8" id="chpl" d="M167 177c0 1.639 6.507.486 5 3.5-1.561 3.123-7 3.06-7 6.5-5.174 0-12.236 7.632-17.5 5l-.5-2.5c-2.987-5.973 7.305-13.5 13-13.5h1c0 1.473 1.952 1 3 1h3Z"/><path fill="#A9AAA7" id="V4r" d="M161 176c1.048 0 3-.473 3 1-1.048 0-3 .473-3-1ZM295 176c-1.048 0-3-.473-3 1 1.048 0 3 .473 3-1Z"/><path fill="#A9AAA8" id="chpl" d="M289 177h3c1.048 0 3 .473 3-1h1c5.761 0 20.623 11.939 12.5 16-3.449 1.724-22.816-8.133-24.5-11.5-1.131-2.263 5-1.972 5-3.5Z"/><path fill="#A9AAA7" id="V4r" d="M183 181c-7.148 0-11.77 6-18 6 0-3.44 5.439-3.377 7-6.5 1.507-3.014-5-1.861-5-3.5 5.67 0 10.808 2 16 2v2Z"/><path fill="#FFFC8D" id="PFL" d="m121 212-1 1-5-1c-1.938 0-8-7.325-8-9v-3c0-4.684 3.948-12.396 6-16.5l3-4.5c5.038 0 14.426 16 16 16 0 5.515-9 9.91-9 15l-1 1-1 1Z"/><path fill="#AAA9A7" id="V4" d="M189 181h10c0-1.557-13.733-2-16-2v1l1 1h5ZM268 181h5v-2c-2.1 0-15 .576-15 2h10Z"/><path fill="#FFFC8D" id="PFL" d="M336 213h4l1-1c2.795 0 8-6.366 8-9v-3c0-7.701-8-14.007-8-21-6.79 0-13.675 16-17 16l7.5 12 2.5 3 1 1 1 2Z"/><path fill="#FF9BCD" id="MY" d="M183 181h1l-1-1v1Z"/><path fill="#FEB1D9" id="SPIV" d="M166 205c0 2.879 4 1.993 4 4 5.605 0 10.607-5 16-5 0-3.607 1.499-6.499 3-9.5V181h-6c-7.148 0-11.77 6-18 6l-4 4c0 1.691 1 3.148 1 5 6.374 0 4 5.314 4 9Z"/><path fill="#FFB0D7" id="MV" d="m211 209-1 1-6-1-1-1-4-1c0-3.636-13-.475-13-3 0-3.607 1.499-6.499 3-9.5V181h12c0 1.353 4.643 2 6 2h1l1 1h1l1 1h1c0 3.356 5 5.985 5 10 0 4.66-6 9.542-6 14Z"/><path fill="#AAA9A7" id="V4" d="M201 181c1.357 0 6 .647 6 2-1.357 0-6-.647-6-2ZM256 181c-1.048 0-3-.473-3 1 1.048 0 3 .473 3-1Z"/><path fill="#FFB0D7" id="MV" d="M252 209h1l1-1 1-1h2c0-1.434 12.286-3 14-3l-4-11.5V181h-11c0 1.473-1.952 1-3 1h-1l-2 1h-2l-1 1-2 1-5 6-1 2v2l7 14h6Z"/><path fill="#FF9BCD" id="MY" d="m268 181-1 1v-1h1Z"/><path fill="#FEB1D9" id="SPIV" d="m291 205-4 4c-4.442 0-8.786-2.143-12.5-4-1.046-.523-3.5.951-3.5-1l-4-11.5V182l1-1h5c9.586 0 18.928 10 23 10l-1 5c-6.978 0-4 5.238-4 9Z"/><path fill="#AAA9A7" id="V4" d="m252 182-2 1 2-1ZM208 183l1 1-1-1ZM248 183l-1 1 1-1ZM210 184l1 1-1-1ZM247 184l-2 1 2-1ZM217 195h2c0-1.156-4.033-5.734-1.5-7l4 1H235l4.5-1 .5 3 5-6-4.5 2h-25l-3.5-2c0 3.356 5 5.985 5 10Z"/><path fill="#A9AAA8" id="chpl" d="M233 201c-1.577 0-2 1.762-2 3-6.052 0-7.143-5-10-5v-1l-2-2v-1c0-1.156-4.033-5.734-1.5-7l4 1H235l4.5-1 .5 3-1 2c-1.577 0-2 1.762-2 3v1c-1.747 0-2 .253-2 2l-1 1-1 1Z"/><path fill="#FF9BCD" id="MY" d="M166 213c-7.352 0-11.524 1.012-17.5 4l-9.5 10.5c-.579 1.158.341 3.5-2 3.5 0-7.459 8.824-15.162 14.5-18 1.328-.664 7.631-6.684 5-8-3.002-1.501-5.652 2-8.5 2l7-9.5c.706-1.411-1.598-1.951-2.5-1.5-3.326 1.663-6.094 3.094-9 6-1.922 1.922-9.302 16-10.5 16 0-11.074 16.933-27 28-27 0 1.691 1 3.148 1 5-3.569 0-9.45 6.525-4.5 9 3.427 1.714 5.182 0 8.5 0 0 2.879 4 1.993 4 4l-4 4Z"/><path fill="#AAA9A7" id="V4" d="m240 191-1 2 1-2Z"/><path fill="#FF9BCD" id="MY" d="m308 207-7-10.5c0-1.792 3.361.43 3.5.5 3.741 1.871 6.047 3.047 9.5 6.5l12 19.5c0-10.935-17.957-32-30-32l-1 5c8.466 0 4 6.901 4 9 3.638 0 5.929 2 9 2Z"/><path fill="#AAA9A7" id="V4" d="m239 195-2 1c0-1.238.423-3 2-3v2Z"/><path fill="#FFB3D7" id="PRP" d="M233 213h12l1-4-7-14-2 1v1l-2 2-1 1-1 1c0 1.238-.423 3-2 3 0 7.156-10-2.405-10-5v-1l-2-2v-1h-2c0 4.66-6 9.542-6 14l-1 1 1 3h22Z"/><path fill="#C9C9C8" id="icp" d="M146 275v1c-.97 0-12-6.685-12-3-4.251 0-5.472-11-9-11v-1c0-.986-1.087-6-2-6v-3l1-13 1-2v-2l1-2 1-1v-2l1-1v-1l1-1v-1l1-1v-1l1-1v-2l1-1 1-2c1.198 0 8.578-14.078 10.5-16 2.906-2.906 5.674-4.337 9-6 .902-.451 3.206.089 2.5 1.5l-7 9.5c-5.691 0-8.905 7.309-11 11.5-7.265 14.53-14.097 29.806-6 46 1.223 2.446 15 9.974 15 10.5Z"/><path fill="#FFB0D9" id="x" d="M162 196c6.374 0 4 5.314 4 9-3.318 0-5.073 1.714-8.5 0-4.95-2.475.931-9 4.5-9Z"/><path fill="#AAA9A7" id="V4" d="m219 196 2 2-2-2Z"/><path fill="#FFB0D9" id="x" d="M291 205h8c0-2.099 4.466-9-4-9-6.978 0-4 5.238-4 9Z"/><path fill="#C9C9C8" id="icp" d="m323 272-8 1 4.5-4c4.038-4.038 7.014-6.529 9.5-11.5 5.125-10.251-10.423-50.5-21-50.5l-7-10.5c0-1.792 3.361.43 3.5.5 3.741 1.871 6.047 3.047 9.5 6.5l12 19.5v1l1 1 1 3 1 1 2 7 1 1v1c0 5.22 1 11.211 1 17v2c-1.473 0-1 1.952-1 3l-1 2v1c-1.577 0-2 1.762-2 3l-1 1-1 2-1 1-1 1-2 1Z"/><path fill="#AAA9A7" id="V4" d="M237 197c-1.747 0-2 .253-2 2l2-2Z"/><path fill="#F0F080" id="CB" d="m103 201 4 2v-3c-.701 0-4-1.277-4 1Z"/><path fill="#AAA9A7" id="V4" d="M221 199c2.857 0 3.948 5 10 5 0 7.156-10-2.405-10-5ZM235 199l-1 1 1-1Z"/><path fill="#F0F080" id="CB" d="m353 201-4 2v-3c1.004 0 4-2.31 4 1Z"/><path fill="#AAA9A7" id="V4" d="m234 200-1 1 1-1ZM233 201c-1.577 0-2 1.762-2 3 1.577 0 2-1.762 2-3Z"/><path fill="#A9AAA8" id="chpl" d="M129 203c0 1.807-13.822 22.839-7.5 26l4.5-.5 11-24c-1.221-2.443-5.709-1.5-8-1.5ZM321 203l-1 3.5c1.817 3.634 10.135 24.683 14.5 22.5l.5-9c0-7.996-5.604-17-14-17Z"/><path fill="#FDA5D1" id="NTS" d="m173 220 3 1c5.579 0 11.072-3 17-3l1-1 7-2c0-1.274 3-2.933 3-6l-1-1c0 7.996-7.048-1-4-1 0-3.636-13-.475-13-3-5.393 0-10.395 5-16 5l-4 4 7 7ZM280 221h3v-1l1-1 1-1 5-5c0-2.618-3-1.651-3-4-4.442 0-8.786-2.143-12.5-4-1.046-.523-3.5.951-3.5-1-1.714 0-14 1.566-14 3 5.476 0-4 8.578-4 2h-1c0 3.067 3 4.726 3 6 1.829 0 8 1.371 8 3l14 2 1 1h2Z"/><path fill="#C8CACA" id="sptV" d="M137 231c-2.338 0-6.81 17.88-5 21.5 2.143 4.286 3.205 11.853 8.5 14.5l10.5 5.5c1.318 2.636-3.807 2.5-5 2.5 0-.526-13.777-8.054-15-10.5-8.097-16.194-1.265-31.47 6-46 2.095-4.191 5.309-11.5 11-11.5 2.848 0 5.498-3.501 8.5-2 2.631 1.316-3.672 7.336-5 8-5.676 2.838-14.5 10.541-14.5 18Z"/><path fill="#FF9BCD" id="MY" d="M290 213c23.779 0 33 18.84 33 41 1.951 0 .477-2.454 1-3.5 1.269-2.538.505-11.991-1-15-2.538-5.077-8.876-17.688-14.5-20.5-2.699-1.35-9.5-6.566-9.5-10h-8l-4 4c0 2.349 3 1.382 3 4Z"/><path fill="#C8CACA" id="sptV" d="m313 274-2 1c-4.826 0-5 .112-5-4 1.647 0 7-1.268 7-3l1-1h1l1-1 1-1 1-1 1-1 1-2 1-1c1.638 0 2-3.576 2-5v-1c1.951 0 .477-2.454 1-3.5 1.269-2.538.505-11.991-1-15-2.538-5.077-8.876-17.688-14.5-20.5-2.699-1.35-9.5-6.566-9.5-10 3.638 0 5.929 2 9 2 10.577 0 26.125 40.249 21 50.5-2.486 4.971-5.462 7.462-9.5 11.5l-4.5 4-2 1Z"/><path fill="#FDB1D8" id="DMX" d="m199 207 4 1c0 7.996-7.048-1-4-1Z"/><path fill="#FDA5D1" id="NTS" d="m255 207-1 1 1-1Z"/><path fill="#FDB1D8" id="DMX" d="m254 208-1 1c0 6.578 9.476-2 4-2h-2l-1 1Z"/><path fill="#FFFC8D" id="PFL" d="m74 208-5 4.5-1 11.5c0 3.863-.616 8.269 1 11.5 1.12 2.241-.165 5.669 1 8 3.806 7.612 15.365 6.271 19-1 2.05-4.099 3.729-29.386-.5-31.5-4.925-2.463-8.454-3-14.5-3Z"/><path fill="#FDA5D1" id="NTS" d="m254 208-1 1 1-1Z"/><path fill="#FFFC8D" id="PFL" d="m373 208-5 3.5c-1.616 3.232-3 6.578-3 10.5 0 4.35-.829 9.842 1 13.5 1.351 2.701 1.592 6.184 3 9 2.404 4.809 13.528 5.944 16 1 2.955-5.911 7.209-32.645-.5-36.5-3.188-1.594-7.681-1-11.5-1Z"/><path fill="#FF9BCD" id="MY" d="M201 215c3.303 0 5.115 2 8 2l2-4-1-3-6-1c0 3.067-3 4.726-3 6ZM211 209l-1 1 1-1ZM255 215c-3.238 0-5.3 3-8 3 0-1.622.461-5-2-5l1-4h6c0 3.067 3 4.726 3 6Z"/><path fill="#F0F080" id="CB" d="m123 210-1 1 1-1ZM334 210l1 1-1-1ZM122 211l-1 1 1-1ZM120 213l-1 2c-1.429 0-4-1.288-4-3l5 1Z"/><path fill="#FF9BCD" id="MY" d="M227 237c0 1.919 2 2.488 2 0v-21.5c3.107-6.214 2 6.189 2 7.5l4-1c0-2.84-2-5.676-2-9h-10c0 2.5-2 6.341-2 9l4 1c0-.966.372-10.757 2-7.5 2.209 4.418-1.265 11.47 1 16 .536 1.073.251 5.5-1 5.5Z"/><path fill="#F0F080" id="CB" d="m341 212-1 1 1-1Z"/><path fill="#FDA5D2" id="SPVI" d="M137 231c0 3.831-2.312 10.124-4 13.5-4.427 8.854 7.271 21.385 13.5 24.5l3.5-1c6.751 0 4.948-21.396 7-25.5 3.654-7.307 16-10.046 16-19.5v-3l-7-7c-7.352 0-11.524 1.012-17.5 4l-9.5 10.5c-.579 1.158.341 3.5-2 3.5Z"/><path fill="#FCB3D8" id="PGRNd" d="M211 222h10c0-2.659 2-6.5 2-9h-12l-2 4 1 5h1ZM235 222h11l1-4c0-1.622.461-5-2-5h-12c0 3.324 2 6.16 2 9Z"/><path fill="#FDA5D2" id="SPVI" d="m313 268-6 1-6-6.5c-2.581-5.163.27-16.46-3-23-3.158-6.315-14-6.669-14-15.5l-1-3v-1l1-1 1-1 5-5c23.779 0 33 18.84 33 41v1c-1.638 0-2 3.576-2 5l-1 1-1 2-1 1-1 1-1 1-1 1h-1l-1 1Z"/><path fill="#F0F080" id="CB" d="m340 213-2 2-2-2h4Z"/><path fill="#FFB2D8" id="IRN" d="m193 265-3 1-1-1h-6c0-4.634-5.878 0-7 0l-2-1c0-2.343-.285-4-3-4 0-1.825 6.399-14 8-14 4.103 0 3.973 3.736 6.5 5 1.679.839 9.049.597 7.5-2.5l-12-7.5c0-6.045 12-16.076 12-23l1-1 7-2c3.303 0 5.115 2 8 2l1 5v1c0 12.125-17 32.6-17 42Z"/><path fill="#CBCBCC" id="mlf" d="M225 223c0 2.418-.5 14 2 14 1.251 0 1.536-4.427 1-5.5-2.265-4.53 1.209-11.582-1-16-1.628-3.257-2 6.534-2 7.5ZM231 223c0 2.469 1.118 14-2 14v-21.5c3.107-6.214 2 6.189 2 7.5Z"/><path fill="#FFB2D8" id="IRN" d="M266 266h1c0-1.643 3.765-1 5-1h1c0-3.93 6.545 0 8 0l1-1 3-4-7-15-7.5 6c-1.147.574-7.5.333-7.5-1.5 0-4.757 12-4.177 12-8.5 0-5.653-12-17.475-12-23 0-1.629-6.171-3-8-3-3.238 0-5.3 3-8 3l-1 4c0 11.903 17 33.555 17 43l3 1Z"/><path fill="#FF9BCD" id="MY" d="m194 217-1 1 1-1ZM133 218l-1 2 1-2Z"/><path fill="#FCB3D9" id="PARN" d="M150 268c0 6.59 6.23 4 10 4l8-7c0-2.364 3-3.053 3-5 0-1.825 6.399-14 8-14 0-2.18-3.414-.671-4 .5l-8 16-3.5 2.5c-2.874-1.437 2.838-8.176 3.5-9.5 3.765-7.529 3.855-14.5 14-14.5 0-6.045 12-16.076 12-23-5.928 0-11.421 3-17 3 0 1.577-1.762 2-3 2 0 9.454-12.346 12.193-16 19.5-2.052 4.104-.249 25.5-7 25.5ZM306 271c-2.526 0-5.577 2-9 2 0-1.687-7.116-8-8-8l-1-1-3-4-7-15c6.147 0 9.039 12.578 11 16.5l3.5 3.5c2.64-1.32-1.912-7.324-2.5-8.5-3.867-7.735-4.512-15.5-15-15.5 0-5.653-12-17.475-12-23l14 2 1 1h2l4 3c0 8.831 10.842 9.185 14 15.5 3.27 6.54.419 17.837 3 23l6 6.5-1 2Z"/><path fill="#FF9BCD" id="MY" d="m285 218-1 1 1-1ZM284 219l-1 1 1-1ZM132 220l-1 1 1-1ZM176 221c0 1.577-1.762 2-3 2v-3l3 1ZM277 220l1 1-1-1Z"/><path fill="#FEB0D8" id="GRN" d="M253 277c0 2.681 7.019 0 8 0 0-2.348-4.602-4.296-3-7.5.781-1.563 5-3.526 5-4.5 0-9.445-17-31.097-17-43h-11l-4 1c0 2.469 1.118 14-2 14 0 2.488-2 1.919-2 0-2.5 0-2-11.582-2-14l-4-1h-10l-1 1c0 12.125-17 32.6-17 42l1 1c9.127 0 1 8.456 1 11 .981 0 8 2.681 8 0 0-5.341-.315-10.592 6.5-14 3.323-1.661 11.5-6.326 11.5 1 2.258 0 .383-12 6-12 1.638 0 2-3.513 2 1 6.561 0 3.154 9 6 9 0-4.897 10.165.332 11.5 1 2.515 1.258 10.115 8.27 8.5 11.5l-2 2.5Z"/><path fill="#FF9BCD" id="MY" d="m283 221 1 3-4-3h3ZM211 222l-1 1v-1h1ZM131 223l-1 1 1-1ZM326 224l1 1-1-1ZM130 225l-1 1 1-1ZM129 227l-1 1 1-1ZM328 228l1 1-1-1ZM128 229l-1 1 1-1ZM160 277c-3.464 0-9-5.302-9 2l-5-3v-1c1.193 0 6.318.136 5-2.5l-10.5-5.5c-5.295-2.647-6.357-10.214-8.5-14.5-1.81-3.62 2.662-21.5 5-21.5 0 3.831-2.312 10.124-4 13.5-4.427 8.854 7.271 21.385 13.5 24.5l3.5-1c0 6.59 6.23 4 10 4l1 2c0 1.048.473 3-1 3ZM127 232l-1 1 1-1ZM126 233l-1 2 1-2ZM331 236l1 1-1-1ZM125 237l-1 2 1-2ZM335 241c0 1.916-.713 14-2 14 0-5.789-1-11.78-1-17l3 3ZM121 240c0 1.308 1.144 12 2 12l1-13c-1.532 0-.95 1-3 1Z"/><path fill="#FFB1D8" id="LIN" d="M181 241c-10.145 0-10.235 6.971-14 14.5-.662 1.324-6.374 8.063-3.5 9.5l3.5-2.5 8-16c.586-1.171 4-2.68 4-.5 4.103 0 3.973 3.736 6.5 5 1.679.839 9.049.597 7.5-2.5l-12-7.5ZM275 241c10.488 0 11.133 7.765 15 15.5.588 1.176 5.14 7.18 2.5 8.5l-3.5-3.5c-1.961-3.922-4.853-16.5-11-16.5l-7.5 6c-1.147.574-7.5.333-7.5-1.5 0-4.757 12-4.177 12-8.5Z"/><path fill="#FEC6E2" id="RO" d="m230 268-1 3c-2.641 0-2-1.823-2-4v-15c1.638 0 2-3.513 2 1l1 15Z"/><path fill="#C8C8CC" id="tspc" d="m223 272-1 1c-2.983 0-3 1.321-3-3l1-2 1-1v-3c2.258 0 .383-12 6-12v15l-3 4-1 1ZM232 271l1 1c3.911 0 4 3.996 4-2v-1l-1-1c0-1.564-1-3.876-1-6-2.846 0 .561-9-6-9l1 15 2 3Z"/><path fill="#FF9BCD" id="MY" d="M123 255c.913 0 2 5.014 2 6-1.995 0-2-4.377-2-6ZM323 255c-1.638 0-2 3.576-2 5 1.638 0 2-3.576 2-5ZM333 257c-1.473 0-1 1.952-1 3 1.473 0 1-1.952 1-3Z"/><path fill="#FEB3D6" id="AMBd" d="m174 265-3 1-3-1c0-2.364 3-3.053 3-5 2.715 0 3 1.657 3 4v1Z"/><path fill="#FDB2D9" id="MARN" d="M219 270c-1.923 0-9.179 7-16 7 0-5.341-.315-10.592 6.5-14 3.323-1.661 11.5-6.326 11.5 1v3l-1 1-1 2ZM237 270c3.771 0 9.135 7 16 7l2-2.5c1.615-3.23-5.985-10.242-8.5-11.5-1.335-.668-11.5-5.897-11.5-1 0 2.124 1 4.436 1 6l1 1v1Z"/><path fill="#FEB3D6" id="AMBd" d="M285 266h1l2-1v-1l-3-4-3 4 1 1 2 1Z"/><path fill="#FF9BCD" id="MY" d="m321 260-1 1 1-1ZM332 260l-1 2 1-2ZM320 261l-1 2 1-2ZM134 273l1 2c-3.151 0-10-10.529-10-13 3.528 0 4.749 11 9 11Z"/><path fill="#FCB2D9" id="PGRNl" d="M195 277c0 3.946-10.88 14.31-15.5 12l-6.5-4c-2.309 0-6.119-11.81-6.5-12l-5.5 1-1-2 8-7 3 1c0 3.721 4 4.143 4 0l1-1c1.122 0 7-4.634 7 0v2c0 5.324 6 5.324 6 0l1-1 3-1 1 1c9.127 0 1 8.456 1 11ZM261 277l10.5 12c5.071 2.535 8.617-4 12.5-4 0-1.021 5.759-11.629 6.5-12l4.5 1 2-1c0-1.687-7.116-8-8-8h-1l-2 1-1 1c0 4.111-4 1.672-4-2-1.455 0-8-3.93-8 0v1c0 7.668-6 5.72-6 1l-1-1-3-1c0 .974-4.219 2.937-5 4.5-1.602 3.204 3 5.152 3 7.5Z"/><path fill="#FF9BCD" id="MY" d="m319 263-1 1 1-1ZM331 263c-1.577 0-2 1.762-2 3 1.577 0 2-1.762 2-3ZM176 265l-1 1-1-1v-1l2 1ZM281 265h2l-1-1-1 1ZM288 265h1l-1-1v1ZM318 264l-1 1 1-1Z"/><path fill="#FEB3D8" id="AMBv" d="M171 266c0 3.721 4 4.143 4 0l-1-1-3 1Z"/><path fill="#FF9BCD" id="MY" d="m184 265-1 2v-2h1Z"/><path fill="#FCB3D7" id="LRNm" d="M183 267c0 5.324 6 5.324 6 0v-2h-5l-1 2Z"/><path fill="#FF9BCD" id="MY" d="m190 266-1 1v-2l1 1ZM193 265l1 1-1-1Z"/><path fill="#FCB3D7" id="LRNm" d="M273 266c0 7.668-6 5.72-6 1v-1c0-1.643 3.765-1 5-1l1 1Z"/><path fill="#FF9BCD" id="MY" d="M273 265v1l-1-1h1Z"/><path fill="#FEB3D8" id="AMBv" d="M285 266v1c0 4.111-4 1.672-4-2h2l2 1Z"/><path fill="#FF9BCD" id="MY" d="m317 265-1 1 1-1ZM267 266v1l-1-1h1ZM286 266l-1 1v-1h1ZM316 266l-1 1 1-1ZM329 266l-1 1 1-1Z"/><path fill="#FEB0D8" id="GRN" d="m221 267-1 1 1-1Z"/><path fill="#FF9BCD" id="MY" d="M227 277c3.236 0 3 2.435 3 5 1.692 0-1-8.756-1-11-2.641 0-2-1.823-2-4l-3 4c4.021 0 3 2.575 3 6ZM314 267l-1 1 1-1ZM328 267l-1 2 1-2ZM229 271h3l-2-3-1 3Z"/><path fill="#FEB0D8" id="GRN" d="m236 268 1 1-1-1Z"/><path fill="#FF9BCD" id="MY" d="m307 269-1 2c1.647 0 7-1.268 7-3l-6 1ZM327 269l-1 1 1-1Z"/><path fill="#FF9BCD" id="MY" fill-rule="evenodd" d="M205 295c0 8.797 4.885 4 12 4 0 2.845-8.344 2-10.5 2-7.488 0-18.573-1.786-25-5-1.433-.716-7.5-.838-7.5-3 12.439 0-7-3.622-7-8 1.53 0 6 4.969 6 0l6.5 4c4.62 2.31 15.5-8.054 15.5-12 .981 0 8 2.681 8 0 6.821 0 14.077-7 16-7 0 4.321.017 3 3 3l-2.5 5c-1.04 0 .09-4.545-3-3-3.849 1.924-28.207 15.914-29.5 18.5-.844 1.687 2.604 1.948 3.5 1.5l5-4-.5 5.5c1.209 2.419 5.812 1.344 7.5.5.894-.447-2.661-4.17 1-6 1.187-.593 1.736 2 3.5 2l-2 2m0 0c0-3.479-3.479 0 0 0Z"/><path fill="#FF9BCD" id="MY" fill-rule="evenodd" d="M243 290c0 2.241-9 .783-9 3.5 0 5.542 27.404 12.404 14.5-.5-1.977-1.977-2.699-3-5.5-3m40 3c0 3.253-19.704 4.602-22.5 6-7.352 3.676-19.056 2.472-26-1l-5.5-3.5-.5-2.5c-.409 0-6.943 7-11.5 7l5-4.5c1.517-3.035-9.697-4.5-12-4.5 0-4.317 6.635.933 8.5 0l7.5-4c0 3.781 5 4.11 5 1 2.842 0 6.233 4.633 9.5 3 2.68-1.34-1.324-5-1-5 4.541 0 14.945 15.027 19 13 1.764-.882 3.761-2.977 2.5-5.5l-2.5-3.5 7 6c.896.448 4.344.187 3.5-1.5-1.346-2.692-24.715-16.608-28.5-18.5-2.104-1.052-2.67 2-4 2l-3.5-5c3.911 0 4 3.996 4-2 3.771 0 9.135 7 16 7 0 2.681 7.019 0 8 0l10.5 12c5.071 2.535 8.617-4 12.5-4 0 2.293.997 2 3 2 0 2.155-6.965 3.233-8.5 4v3c.949 0 2.951-1 4.5-1Z"/><path fill="#FF9BCD" id="MY" d="m326 270-1 1 1-1ZM224 271l-1 1 1-1Z"/><path fill="#FFB3D8" id="IO" fill-rule="evenodd" d="M206 289c0 4.42 1.206 0 0 0m-9 0c0 1.93 1.93 0 0 0m2-1c0 1.93 1.93 0 0 0m15-1c0 1.93 1.93 0 0 0m-6 0c0 4.42 1.206 0 0 0m-8 0c0 1.93 1.93 0 0 0m15-1c0 2.091 3.746 0 0 0m-6 0c0 2.091 3.746 0 0 0m-7 0c0 1.93 1.93 0 0 0m9-1c0 1.93 1.93 0 0 0m-8 0c0 1.93 1.93 0 0 0m15-1c0 1.93 1.93 0 0 0m-5-1c0 1.93 1.93 0 0 0m-5 9-1 1c-1.764 0-2.313-2.593-3.5-2-3.661 1.83-.106 5.553-1 6-1.688.844-6.291 1.919-7.5-.5l.5-5.5-5 4c-.896.448-4.344.187-3.5-1.5 1.293-2.586 25.651-16.576 29.5-18.5 3.09-1.545 1.96 3 3 3l2.5-5 1-1 1-1c4.021 0 3 2.575 3 6v1l-1 1c-2.246 0 .086 4 1 4l-1 3-7.5 4c-1.865.933-8.5-4.317-8.5 0l-1 1-1 1ZM253 286c0 3.368 5.746 0 0 0m-8-1c0 2.62 6.838 7.175 8 9.5h3l-3-3-8-6.5m-8-1c0 1.93 1.93 0 0 0m5-1c0 3.781 3.781 0 0 0m-5-5c0 1.93 1.93 0 0 0m-6 8v1c2.842 0 6.233 4.633 9.5 3 2.68-1.34-1.324-5-1-5 4.541 0 14.945 15.027 19 13 1.764-.882 3.761-2.977 2.5-5.5l-2.5-3.5 7 6c.896.448 4.344.187 3.5-1.5-1.346-2.692-24.715-16.608-28.5-18.5-2.104-1.052-2.67 2-4 2l-3.5-5-1-1h-3c0 2.244 2.692 11 1 11v3l1 1Z"/><path fill="#FF9BCD" id="MY" d="M296 277c2.42 0 10-5.233 10 1 1.076 0 5-1.523 5-3-4.826 0-5 .112-5-4-2.526 0-5.577 2-9 2l-2 1 1 3ZM323 272v1c1.747 0 2-.253 2-2l-2 1Z"/><path fill="#C9CACA" id="sctd" d="M154 285h1v-1c0-1.539-4-2.187-4-5l-5-3c-.97 0-12-6.685-12-3l1 2h1l2 2h1c1.178 0 6 2.572 6 4h1c1.238 0 3 .423 3 2h1l4 2ZM301 285h2l1-1 2-1h1l2-1 1-1h1l2-1 1-1h1l1-1 1-1h1l1-1h1l1-1 1-1 1-1v-1l-8 1-2 1-2 1c0 1.477-3.924 3-5 3 0 2.684-5 4.535-5 6v1Z"/><path fill="#C8C8CB" id="rust" d="M167 285c1.53 0 6 4.969 6 0-2.309 0-6.119-11.81-6.5-12l-5.5 1c0 1.048.473 3-1 3 0 2.167 3 3.855 3 7h1l1 1h2ZM290 285h1l2-1c0-3.145 3-4.833 3-7l-1-3-4.5-1c-.741.371-6.5 10.979-6.5 12 0 2.293.997 2 3 2 0-1.577 1.762-2 3-2Z"/><path fill="#C9C9C8" id="icp" d="m315 273-2 1 2-1ZM313 274l-2 1 2-1Z"/><path fill="#FF9BCD" id="MY" d="m322 274-1 1 1-1ZM136 275l2 2-2-2Z"/><path fill="#FEB0D9" id="LRNp" d="M163 284c0 1.579-2.855 1-4 1l-4-1c0-1.539-4-2.187-4-5 0-7.302 5.536-2 9-2 0 2.167 3 3.855 3 7ZM293 285h4l4-1c0-1.465 5-3.316 5-6 0-6.233-7.58-1-10-1 0 2.167-3 3.855-3 7v1Z"/><path fill="#FF9BCD" id="MY" d="m321 275-1 1 1-1ZM319 276l-1 1 1-1ZM139 277c1.178 0 6 2.572 6 4-1.178 0-6-2.572-6-4Z"/><path fill="#FFC6E2" id="RPA" d="M231 286v1c0 3.11-5 2.781-5-1l1-3-1-4 1-1v-1c3.236 0 3 2.435 3 5v3l1 1Z"/><path fill="#C9C9C8" id="icp" d="M316 278h1v-1l-1 1Z"/><path fill="#FF9BCD" id="MY" d="m318 277-1 1v-1h1ZM227 278l-1 1 1-1ZM237 278c0 1.93 1.93 0 0 0ZM316 278l-1 1 1-1ZM226 279c-2.246 0 .086 4 1 4l-1-4ZM314 279l-1 1 1-1ZM313 280l-2 1 2-1ZM146 281c1.238 0 3 .423 3 2l-3-2ZM310 281l-1 1 1-1ZM309 282l-2 1 2-1ZM150 283l4 2-4-2ZM213 283c0 1.93 1.93 0 0 0ZM242 283c0 3.781 3.781 0 0 0ZM306 283l-2 1 2-1ZM159 285c0 4.055 14 4.343 14 8-4.917 0-9.358-3.929-13.5-6-1.119-.559-4.5-.155-4.5-2v-1l4 1Z"/><path fill="#CBC7CC" id="sctv" d="M173 293h1c12.439 0-7-3.622-7-8h-2l-1-1h-1c0 1.579-2.855 1-4 1 0 4.055 14 4.343 14 8Z"/><path fill="#FF9BCD" id="MY" d="m164 284 1 1-1-1ZM218 284c0 1.93 1.93 0 0 0ZM237 284c0 1.93 1.93 0 0 0ZM291 285h2v-1l-2 1ZM301 285c0 1.638-3.576 2-5 2l1-2 4-1v1ZM304 284l-1 1 1-1ZM203 285c0 1.93 1.93 0 0 0ZM211 285c0 1.93 1.93 0 0 0ZM230 285l1 1-1-1ZM245 285c0 2.62 6.838 7.175 8 9.5h3l-3-3-8-6.5ZM290 285c-1.238 0-3 .423-3 2 1.238 0 3-.423 3-2Z"/><path fill="#CBC7CC" id="sctv" d="M288 291c-1.424 0-5 .362-5 2-1.549 0-3.551 1-4.5 1v-3c1.535-.767 8.5-1.845 8.5-4 1.238 0 3-.423 3-2h7l-1 2-4 2c-1.465 0-4-.109-4 2Z"/><path fill="#FF9BCD" id="MY" d="M202 286c0 1.93 1.93 0 0 0ZM209 286c0 2.091 3.746 0 0 0ZM215 286c0 2.091 3.746 0 0 0ZM253 286c0 3.368 5.746 0 0 0ZM200 287c0 1.93 1.93 0 0 0ZM208 287c0 4.42 1.206 0 0 0ZM214 287c0 1.93 1.93 0 0 0ZM296 287l-4 2c1.465 0 4 .109 4-2ZM199 288c0 1.93 1.93 0 0 0ZM197 289c0 1.93 1.93 0 0 0ZM206 289c0 4.42 1.206 0 0 0ZM292 289c-1.465 0-4-.109-4 2 1.465 0 4 .109 4-2ZM210 290l-1 1 1-1Z"/><path fill="#C7C9C9" id="py" d="M205 295c0 8.797 4.885 4 12 4l5-4.5c1.517-3.035-9.697-4.5-12-4.5l-1 1-1 1-1 1-2 2ZM243 290c0 2.241-9 .783-9 3.5 0 5.542 27.404 12.404 14.5-.5-1.977-1.977-2.699-3-5.5-3Z"/><path fill="#FF9BCD" id="MY" d="m209 291-1 1 1-1ZM288 291c-1.424 0-5 .362-5 2 1.424 0 5-.362 5-2ZM208 292l-1 1 1-1Z"/><path fill="#FFB3D8" id="IO" d="M205 295c0-3.479-3.479 0 0 0Z"/></svg>