<svg xmlns="http://www.w3.org/2000/svg" viewBox="0 0 456 320"><path fill="#1BA598" id="RSPd1" d="m222 22-3 1-3-3.5c-7.872-7.872-17.088-4.5-27-4.5v-5c9.525 0 16.811-1.345 25.5 3l3 4c1.319.66 4.5 2.871 4.5 5ZM235 22l2 1c1.407 0 7.284-6.892 9.5-8 5.874-2.937 14.523 0 20.5 0l1-5c-11.526 0-19.922-2.578-29 6.5-1.469 1.47-4 2.632-4 5.5Z"/><path fill="#1BA696" id="RSPagl1" d="M189 15c-4.299 0-8.849 2-14 2l-1-4 15-3v5ZM281 18h1v-5l-14-3-1 5c1.271 0 14 2.676 14 3Z"/><path fill="#019FAC" id="VISa1" d="M120 33h1c0-1.306 9.931-4.215 11.5-5 12.114-6.057 28.044-10 42.5-10v-1l-1-4c-12.778 0-31.776 4.638-42.5 10-2.348 1.174-14.5 2.513-14.5 6l2 4h1ZM337 33h1l1-4c0-3.61-11.179-4.84-13.5-6-10.846-5.423-30.58-10-43.5-10v5c10.881 0 32.557 4.529 41.5 9 3.348 1.674 8.746 6 12.5 6h1Z"/><path fill="#1BA697" id="RSPd2/3" d="m219 24-4 4c0-8.453-21.496-5-26-5v-8c9.912 0 19.128-3.372 27 4.5l3 3.5v1ZM237 24c2.349 0 1.382 3 4 3 2.175 0 5.969-3.735 8.5-5l17.5 1v-8c-5.977 0-14.626-2.937-20.5 0-2.216 1.108-8.093 8-9.5 8v1Z"/><path fill="#1AA496" id="RSPagl2/3" d="M176 27v1l13-5v-8c-4.299 0-8.849 2-14 2v1l1 9ZM280 27v1l-13-5v-8c1.271 0 14 2.676 14 3l-1 9Z"/><path fill="#009EAB" id="VISa2/3" fill-rule="evenodd" d="M125 35c0 1.93 1.93 0 0 0m-4-2c0 1.887 8.145 6 10 6 3.908 0 8.174-2.337 11.5-4 4.883-2.442 27.553-8 33.5-8l-1-9c-14.456 0-30.386 3.943-42.5 10-1.569.785-11.5 3.694-11.5 5Z"/><path fill="#009EAB" id="VISa2/3" d="M325 39h1c4.071 0 5.244-4 11-4v-1l-1-1c-3.754 0-9.152-4.326-12.5-6-8.943-4.471-30.619-9-41.5-9h-1l-1 9c5.467 0 30.185 5.843 34.5 8 3.031 1.515 6.959 4 10.5 4Z"/><path fill="#1AA596" id="RSPd5" d="M189 36c2.872 0 18-8.296 18 1 3.173 0 3.933-8 8-8v-1c0-8.453-21.496-5-26-5v13Z"/><path fill="#1BA597" id="RSPv1" d="M229 67h3V33.5c0-1.791 2.788-9.5 5-9.5v-1l-2-1c-2.695 0-5.044 9-6.5 9l-6.5-9-3 1v1c2.45 0 5.089 7.678 6 9.5.748 1.495-.477 2.953-1 4-2.576 5.152 1 23.769 1 29.5h2c0-5.32 2-5.498 2 0Z"/><path fill="#1AA596" id="RSPd5" d="M267 35c-4.246 0-10.733-4.383-15.5-2l-2.5 3c-3.411 0-4.387-7-8-7v-2c2.175 0 5.969-3.735 8.5-5l17.5 1v12Z"/><path fill="#1CA697" id="RSPagl5" d="M189 36c-3.614 0-6.899 4-11 4 0-3.735-2-8.438-2-12l13-5v13ZM267 36l11 4c.759 0 2-10.821 2-12l-13-5v13Z"/><path fill="#1AA597" id="RSPv2/3" d="M221 67h4c0-5.731-3.576-24.348-1-29.5.523-1.047 1.748-2.505 1-4-.911-1.822-3.55-9.5-6-9.5l-4 4v1c2.282 0 3 7.3 3 9 0 9.532 3 19.77 3 29ZM232 67h4c0-7.947-.429-21.641 3-28.5.948-1.897-1.476-9.5 2-9.5v-2c-2.618 0-1.651-3-4-3-2.212 0-5 7.709-5 9.5V67Z"/><path fill="#019EAC" id="VISa4" d="M131 40c3.752 0 4.619 2 8 2 1.021 0 29.274-9.887 31.5-11l5.5-3v-1c-5.947 0-28.617 5.558-33.5 8-3.326 1.663-7.592 4-11.5 4v1Z"/><path fill="#019EAC" id="VISa4" fill-rule="evenodd" d="M321 39c0 1.93 1.93 0 0 0m4 0c0 2.675-7.109 2-8 2-2.483 0-28.659-8.58-31.5-10-1.79-.895-3.403-3-5.5-3v-1c5.467 0 30.185 5.843 34.5 8 3.031 1.515 6.959 4 10.5 4Z"/><path fill="#019EAB" id="VISa5" d="M153 47h1c7.972 0 15.452-6 24-6v-1c0-3.735-2-8.438-2-12l-5.5 3c-2.226 1.113-30.479 11-31.5 11v1c6.502 0 8.756 4 14 4ZM303 47l2 1c0-3.42 12-4.116 12-6v-1c-2.483 0-28.659-8.58-31.5-10-1.79-.895-3.403-3-5.5-3 0 1.179-1.241 12-2 12v1c8.908 0 16.594 6 25 6Z"/><path fill="#188060" id="SSp-bfd1" d="M62 73h1c0-4.13 8.422-8.922 11.5-12 9.05-9.05 32.487-27 44.5-27v-1l-2-4c-9.217 0-38.689 20.189-46 27.5-2.931 2.931-12 9.457-12 13.5 1.54 0 3 1.341 3 3Z"/><path fill="#1BA498" id="RSPv5" d="m218 66 3 1c0-9.23-3-19.468-3-29 0-1.7-.718-9-3-9-4.067 0-4.827 8-8 8v1c0 6.81 7 21.087 7 24l4 4ZM239 66l-3 1c0-7.947-.429-21.641 3-28.5.948-1.897-1.476-9.5 2-9.5 3.613 0 4.589 7 8 7v2c0 7.88-6 17.819-6 23v1l-1 1-3 3Z"/><path fill="#188060" id="SSp-bfd1" d="M394 73h1l2-4c0-4.356-8.682-7.864-10-10.5-1.525-3.05-8.099-7.8-11.5-9.5-9.156-4.578-25.018-20-36.5-20l-1 4c0 2.215 11.524 5.012 13.5 6 9.543 4.771 17.383 13.191 27 18l3 4L394 73Z"/><path fill="#009EAB" id="VISa2/3" d="m120 33-1 1v-1h1Z"/><path fill="#188061" id="SSp-tr2/3" d="M123 43h1c0-1.43 5.655-3 7-3v-1c-1.855 0-10-4.113-10-6h-1l-1 1 4 9Z"/><path fill="#1AA697" id="RSPd6a" d="M190 47h11l6-9v-1c0-9.296-15.128-1-18-1l1 11ZM258 47c0-2.46 6.743 0 8 0 0-3.249 1-7.194 1-11v-1c-4.246 0-10.733-4.383-15.5-2l-2.5 3v2l7 9h2Z"/><path fill="#188061" id="SSp-tr2/3" d="M337 33v1l-1-1h1Z"/><path fill="#187F63" id="SSp-bfd2/3" d="m394 73-7 7-16.5-17c-6.124-6.124-28.955-20-37.5-20v-1l4-7v-2h1c0 2.215 11.524 5.012 13.5 6 9.543 4.771 17.383 13.191 27 18l3 4L394 73ZM63 73c0 2.046 5.196 7 7 7l13.5-15c9.887-4.943 27.413-22 39.5-22l-4-9c-12.013 0-35.45 17.95-44.5 27C71.422 64.078 63 68.87 63 73Z"/><path fill="#188061" id="SSp-tr2/3" d="M326 39c0 1.732 5.353 3 7 3l4-7c-5.756 0-6.929 4-11 4ZM125 35c0 1.93 1.93 0 0 0Z"/><path fill="#1CA597" id="RSPagl6a" d="M179 49h1l10-1v-1l-1-11c-3.614 0-6.899 4-11 4v1l1 8ZM266 47c3.205 0 6.924 2 11 2l1-8v-1l-11-4c0 3.806-1 7.751-1 11Z"/><path fill="#1AA498" id="RSPv6a" d="M209 58c0 .828 3.748 4 5 4 0-2.913-7-17.19-7-24l-6 9v1c0 2.788 8 5.975 8 10ZM247 58c0 1.712-2.571 3-4 3 0-5.181 6-15.12 6-23l7 9v1l-1 1c-1.988 0-6 5.237-6 7l-1 1-1 1Z"/><path fill="#1B7E62" id="SSp-tr4" d="M321 39c0 1.93 1.93 0 0 0Z"/><path fill="#1B7E62" id="SSp-tr4" d="M330 49h1c0-2.483 2-4.026 2-6v-1c-1.647 0-7-1.268-7-3h-1c0 2.675-7.109 2-8 2v1c1.685 0 13 5.387 13 7ZM126 49h1c0-2.657 9.714-6 12-6v-1c-3.381 0-4.248-2-8-2-1.345 0-7 1.57-7 3l2 6Z"/><path fill="#009DAC" id="VISa6a" d="M166 51h1c4.527 0 7.754-2 12-2l-1-8c-8.548 0-16.028 6-24 6 0 2.068 10.538 4 12 4ZM289 51l2 1c0-2.541 12-2.169 12-5-8.406 0-16.092-6-25-6l-1 8c4.499 0 7.354 2 12 2Z"/><path fill="#197F60" id="SSp-tr5" d="M326 57h1l3-8c0-1.613-11.315-7-13-7 0 1.884-12 2.58-12 6 7.116 0 14.361 9 21 9Z"/><path fill="#197C64" id="SSp-bfd4" d="M70 81c0 1.723 3.538 6 5 6 3.787 0 8.263-8.881 10.5-10l10-9c8.002-4.001 15.054-10.027 23-14l7.5-5-2-6h-1c-12.087 0-29.613 17.057-39.5 22L70 80v1Z"/><path fill="#197F60" id="SSp-tr5" d="M127 49c0 3.22 3 5.108 3 8l17.5-8c1.114-.557 5.5-.41 5.5-2-5.244 0-7.498-4-14-4-2.286 0-12 3.343-12 6Z"/><path fill="#197C64" id="SSp-bfd4" d="M381 87h1c1.535 0 2.402-6 5-6v-1l-16.5-17c-6.124-6.124-28.955-20-37.5-20 0 1.974-2 3.517-2 6l5.5 4 20 12c7.055 3.528 11.169 9.169 17 15l7.5 7Z"/><path fill="#1BA698" id="RSPd6b" d="M200 48h1v-1h-11v1l1 1 3.5-2 5.5 1ZM266 47l-1 1-7-1c0-2.46 6.743 0 8 0Z"/><path fill="#188063" id="SSp-tr6a" d="M151 57c-6.083 0-10.589 7-16 7-1.391 0-5-5.706-5-7l17.5-8c1.114-.557 5.5-.41 5.5-2h1c0 2.068 10.538 4 12 4 0 2.954-15 2.346-15 6Z"/><path fill="#CACCC7" id="cing" d="m214 62 4 4c-9.199 0-16.799-8.15-24.5-12-6.162-3.081-23.964 2-30.5 2h-6c0-1.693 9.925-3 12-3 3.446 0 6.77-2 11-2 3.419 0 7.224-2 11-2l3.5-2 5.5 1c0 1.626 7.125 10 9 10 0 .828 3.748 4 5 4Z"/><path fill="#1BA698" id="RSPd6b" d="M256 48h1l1-1h-2v1Z"/><path fill="#CACCC7" id="cing" d="m242 63-3 3c8.361 0 17.36-8.43 24.5-12 5.98-2.99 23.14 2 29.5 2h6c0-1.4-9.182-3-11-3-1.097 0-12-2.7-12-3-1.924 0-11-.32-11-2l-7-1-1 1-2 1c0 1.763-4.012 7-6 7l-1 1-1 1c0 1.712-2.571 3-4 3v1l-1 1Z"/><path fill="#1AA598" id="RSPagl6b" d="m277 49-1 1c-1.924 0-11-.32-11-2l1-1c3.205 0 6.924 2 11 2Z"/><path fill="#188063" id="SSp-tr6a" d="m326 57-4 7c-5.671 0-21.239-12-31-12 0-2.541 12-2.169 12-5l2 1c7.116 0 14.361 9 21 9Z"/><path fill="#1AA598" id="RSPagl6b" d="M191 49c-3.776 0-7.581 2-11 2v-2l10-1 1 1Z"/><path fill="#1AA497" id="RSPv6b" d="M201 48c0 2.788 8 5.975 8 10-1.875 0-9-8.374-9-10h1ZM257 48l-2 1 1-1h1Z"/><path fill="#1A7D62" id="SSp-bfd5" d="m75 88 7 7 12-12.5c7.552-7.552 16.943-14.721 26.5-19.5 2.921-1.46 6.129-6 9.5-6 0-2.892-3-4.78-3-8h-1l-7.5 5c-7.946 3.973-14.998 9.999-23 14l-10 9c-2.237 1.119-6.713 10-10.5 10v1Z"/><path fill="#029FAC" id="VISa6b" d="M180 51c-4.23 0-7.554 2-11 2l-2-2c4.527 0 7.754-2 12-2h1v2Z"/><path fill="#1AA497" id="RSPv6b" d="M255 49c-1.988 0-6 5.237-6 7 1.988 0 6-5.237 6-7Z"/><path fill="#029FAC" id="VISa6b" d="m289 51-1 2c-1.097 0-12-2.7-12-3l1-1c4.499 0 7.354 2 12 2Z"/><path fill="#1A7D62" id="SSp-bfd5" d="M381 87c0 2.45-4.478 8-7 8-.024 0-16.735-18.618-19.5-20-7.37-3.685-12.288-10.144-20-14l-7.5-4 3-8h1l5.5 4 20 12c7.055 3.528 11.169 9.169 17 15l7.5 7Z"/><path fill="#1A8063" id="SSp-tr6b" d="m157 56-6 1c0-3.654 15-3.046 15-6h1l2 2c-2.075 0-12 1.307-12 3ZM321 65h1v-1c-5.671 0-21.239-12-31-12l-2-1-1 2c1.818 0 11 1.6 11 3 2.5 0 18 7.002 18 8l4 1Z"/><path fill="#C7CACC" id="ccs" d="M123 83c-6.072 0-18.466 21-21 21 0-9.418 22.456-24.956 29-31.5l10-7.5 16.5-7c1.114-.557 5.5-.41 5.5-2 6.536 0 24.338-5.081 30.5-2 7.701 3.85 15.301 12 24.5 12l3 1h15l3-1c8.361 0 17.36-8.43 24.5-12 5.98-2.99 23.14 2 29.5 2 0 1.657 8.063 2.281 9.5 3l13.5 7 9.5 7c6.312 3.156 29.5 24.344 29.5 32-1.751 0-8.085-9.67-9-11.5-1.737-3.474-25.915-23.5-28-23.5l-6-3-1-1c-3.467 0-6.27-4-10-4l-1-1h-3l-1-1h-1l-1-1h-4l-1-1h-4c0-1.58-2.855-1-4-1h-6c-1.899 0-8-.488-8 2l-2 1-2 1c-4.555 0-19.54 9.52-24.5 12-1.727.863-7.5.844-7.5 4h-6c0-4.388-9.484-4.492-12.5-6-9.536-4.768-19.136-14-30.5-14h-7c-1.145 0-4-.58-4 1h-3l-1 1h-5l-1 1h-1l-1 1h-2l-1 1h-2l-1 1-6 2-1 1-3 1-1 1-2 1-1 1-2 1-1 1-1 1h-1l-1 1-1 1c-1.238 0-3 .423-3 2l-1 1-1 1c-1.747 0-2 .253-2 2-1.747 0-2 .253-2 2Z"/><path fill="#C9C9CA" id="scwm" d="m140 63 1 2 16.5-7c1.114-.557 5.5-.41 5.5-2h-6l-6 1c0 1.326-9.597 6-11 6Z"/><path fill="#1AA497" id="RSPv6b" d="m249 56-1 1 1-1Z"/><path fill="#C9C9CA" id="scwm" d="m317 64-1 2-13.5-7c-1.437-.719-9.5-1.343-9.5-3h6c2.5 0 18 7.002 18 8Z"/><path fill="#198060" id="SSp-bfd6a" d="M82 97c4.028 0 4.954 8 9 8l10-11.5c6.842-6.842 24.732-28.5 34-28.5v-1c-1.391 0-5-5.706-5-7-3.371 0-6.579 4.54-9.5 6-9.557 4.779-18.948 11.948-26.5 19.5L82 95v2Z"/><path fill="#1A8063" id="SSp-tr6b" d="M135 64v1l5-2c1.403 0 11-4.674 11-6-6.083 0-10.589 7-16 7Z"/><path fill="#C9C7C9" id="ccb" d="M175 57c-1.145 0-4-.58-4 1 1.145 0 4 .58 4-1Z"/><path fill="#C7C8CC" id="alv" d="M131 77c3.504 0 5.551-4.525 8.5-6 7.891-3.945 35.002-17 45-12 3.754 1.877 26.274 18 26.5 18 0-3.655-8-4.282-8-8-3.935 0-7.104-6.302-10.5-8-1.323-.661-10.5-3.168-10.5-4h-7c0 1.58-2.855 1-4 1h-3l-1 1h-5l-1 1h-1l-1 1h-2l-1 1h-2l-1 1-6 2-1 1-3 1-1 1-2 1-1 1-2 1-1 1-1 1h-1l-1 1-1 1-1 2Z"/><path fill="#C9C7C9" id="ccb" d="M203 69c3.132 0 14.849 8 22 8 0-4.388-9.484-4.492-12.5-6-9.536-4.768-19.136-14-30.5-14 0 .832 9.177 3.339 10.5 4 3.396 1.698 6.565 8 10.5 8Z"/><path fill="#1AA497" id="RSPv6b" d="m248 57-1 1 1-1Z"/><path fill="#C9C7C9" id="ccb" d="M275 57c-1.899 0-8-.488-8 2 1.257 0 8-.94 8-2Z"/><path fill="#C7C8CC" id="alv" d="M315 113c5.156 0 9.202 2 14 2 5.296 0 10.313-4 13-4 0-3.649 2-7.489 2-12 0-10.126-15.364-16.228-19-23.5l-7-5.5-6-3-1-1c-3.467 0-6.27-4-10-4l-1-1h-3l-1-1h-1l-1-1h-4l-1-1h-4c-1.145 0-4 .58-4-1h-6c0 1.06-6.743 2-8 2l-2 1-2 1v2l8.5-4c2.924-1.462 12.544-.228 15 1l8 1c7.872 3.936 24.274 7.049 28.5 15.5 1.476 2.952 11 5.295 11 9.5l4 5c3.169 0 7.6 16.45 2.5 19-11.626 5.813-24.672 1-37.5 1v1h2c1.235 0 5-.643 5 1h5Z"/><path fill="#C9C7C9" id="ccb" d="M281 57c1.145 0 4-.58 4 1-1.145 0-4 .58-4-1Z"/><path fill="#198060" id="SSp-bfd6a" d="M374 96c0 1.428-6.657 9-8 9l-11-12.5c-3.393-6.787-18.355-18.428-24.5-21.5-2.409-1.204-4.683-6-8.5-6v-1l4-7h1l7.5 4c7.712 3.856 12.63 10.315 20 14 2.765 1.382 19.476 20 19.5 20v1Z"/><path fill="#C9C7C9" id="ccb" d="m168 58-1 1 1-1ZM289 58l1 1-1-1ZM162 59l-1 1 1-1Z"/><path fill="#7ECF4B" id="CA1" d="M216 99h1v-1l1-1c0-4.05 3-6.397 3-12l-5-5-2-1-2-2h-1c-.226 0-22.746-16.123-26.5-18-9.998-5-37.109 8.055-45 12-2.949 1.475-4.996 6-8.5 6 0 3.324-8 5.254-8 9 6.853 0 15.006 2 22 2 .969 0 7 1.147 7 2 5.634 0 16.591-11.954 24.5-8l10 3c7.698 3.85 20.898 14 29.5 14Z"/><path fill="#C9C7C9" id="ccb" d="m267 59-2 1 2-1Z"/><path fill="#7ECF4B" id="CA1" d="m239 97 1 2c8.225 0 24.82-11.16 32.5-15 2.413-1.206 5.542-.77 8-2 7.687-3.843 18.288 8 23.5 8 0-.853 6.031-2 7-2 7.287 0 15.844-2 23-2 0-4.205-9.524-6.548-11-9.5-4.226-8.451-20.628-11.564-28.5-15.5l-8-1c-2.456-1.228-12.076-2.462-15-1l-8.5 4c0 1.577-1.762 2-3 2l-1 1-1 1c0 1.811-3.438 4-5 4l-2 2-2 1-1 1-2 1-1 1-1 1-2 1-1 1-1 1h-1l-1 1-1 1-2 2c0 5.696 4 8.651 4 12Z"/><path fill="#C9C7C9" id="ccb" d="m294 59 1 1-1-1ZM160 60l-1 1 1-1ZM265 60l-2 1 2-1ZM296 60l1 1-1-1ZM157 61l-1 1 1-1ZM251 71c-5.332 0-13.017 6-20 6 0-3.156 5.773-3.137 7.5-4 4.96-2.48 19.945-12 24.5-12v2c-1.238 0-3 .423-3 2l-1 1-1 1c-2.364 0-3.053 3-5 3l-2 1ZM300 61l1 1-1-1ZM154 62l-1 1 1-1Z"/><path fill="#1AA498" id="RSPv6a" d="m243 62-1 1 1-1Z"/><path fill="#CBC9C7" id="or" d="M88 124h1l11-11 1-8 1-1c0-9.418 22.456-24.956 29-31.5l10-7.5-1-2-5 2-22.5 18L91 107l-2 5-1 8v4Z"/><path fill="#C7C8CC" id="alv" d="M263 63c-1.238 0-3 .423-3 2 1.238 0 3-.423 3-2Z"/><path fill="#CBC9C7" id="or" d="M368 124v1l-11-12-2-8c0-7.656-23.188-28.844-29.5-32l-9.5-7 1-2 4 1 23.5 18 20.5 23 1 4c0 3.209 3 7.198 3 11l-1 3Z"/><path fill="#1A7E61" id="SSp-bfd6b" d="M91 106v1l21.5-24L135 65c-9.268 0-27.158 21.658-34 28.5L91 105v1Z"/><path fill="#C9C7C9" id="ccb" d="m147 65-1 1 1-1Z"/><path fill="#C7C8CC" id="alv" d="m260 65-1 1 1-1Z"/><path fill="#1A7E61" id="SSp-bfd6b" d="M365 106h1v-1l-11-12.5c-3.393-6.787-18.355-18.428-24.5-21.5-2.409-1.204-4.683-6-8.5-6h-1l23.5 18 20.5 23Z"/><path fill="#C7C8CC" id="alv" d="m259 66-1 1 1-1Z"/><path fill="#C9C7C9" id="ccb" d="m311 66 1 1-1-1ZM143 67l-1 1 1-1Z"/><path fill="#C7C8CC" id="alv" d="M253 70v1c1.562 0 5-2.189 5-4-2.364 0-3.053 3-5 3Z"/><path fill="#C9C7C9" id="ccb" d="m140 69-1 1 1-1Z"/><path fill="#C9CCC9" id="dhc" d="m230 84 4 1c0-1.577 1.762-2 3-2l1-1 1-1h1l1-1 1-1 2-1 1-1 1-1 2-1 1-1 2-1v-2c-5.332 0-13.017 6-20 6h-6c-7.151 0-18.868-8-22-8 0 3.718 8 4.345 8 8h1l2 2 2 1 7 5 4-1h3Z"/><path fill="#1A7E62" id="SSs1" d="M412 101h1c0-.693 1.113-5 3-5 0-2.521-17.643-27-19-27l-2 4c0 3.646 17 20.948 17 28ZM40 96c1.942 0 2.893 5 4 5 1.998 0 2.337-5.174 3-6.5C48.213 92.074 60.901 73 62 73c0-1.659-1.46-3-3-3-1.833 0-19 23.856-19 26Z"/><path fill="#C9CCC9" id="dhc" d="M251 71h2v-1l-2 1Z"/><path fill="#C9C7C9" id="ccb" d="M355 113h2l-2-8c-1.751 0-8.085-9.67-9-11.5-1.737-3.474-25.915-23.5-28-23.5l7 5.5c3.636 7.272 19 13.374 19 23.5 2.52 0 11 12.06 11 14ZM137 71l-1 1 1-1Z"/><path fill="#C7C8CC" id="alv" d="m253 71-2 2v-2h2Z"/><path fill="#C9C7C9" id="ccb" d="m136 72-1 1 1-1Z"/><path fill="#1B8063" id="SSs2/3" d="M52 110h1c0-7.394 8.801-15.103 12-21.5.716-1.431 3.243-7.5 5-7.5v-1c-1.804 0-7-4.954-7-7h-1c-1.099 0-13.787 19.074-15 21.5-.663 1.326-1.002 6.5-3 6.5v1c.993 0 8 5.533 8 6.5l-2 1 2 .5Z"/><path fill="#C9C7C9" id="ccb" d="m134 73-1 1 1-1Z"/><path fill="#C7C8CC" id="alv" d="m251 73-2 1 2-1Z"/><path fill="#1B8063" id="SSs2/3" d="m412 101-7 7.5c0 1.064 3.377 1.5-1 1.5 0-6.096-17-24.744-17-29v-1l7-7h1c0 3.646 17 20.948 17 28Z"/><path fill="#C9C7C9" id="ccb" d="m133 74-1 1 1-1Z"/><path fill="#C7C8CC" id="alv" d="m249 74-1 1 1-1Z"/><path fill="#C9C7C9" id="ccb" d="M129 77h2l1-2c-1.238 0-3 .423-3 2Z"/><path fill="#C7C8CC" id="alv" d="m246 76-1 1 1-1Z"/><path fill="#C9C7C9" id="ccb" d="m129 77-1 1 1-1Z"/><path fill="#C7C8CC" id="alv" d="m119 91-3 2c0-4.073 7-6.575 7-10l2-2 2-2 1-1 1-1h2c0 3.324-8 5.254-8 9-1.811 0-4 3.438-4 5ZM212 77l2 2-2-2ZM245 77l-1 1 1-1Z"/><path fill="#C9C7C9" id="ccb" d="m128 78-1 1 1-1ZM127 79c-1.747 0-2 .253-2 2l2-2Z"/><path fill="#C7C8CC" id="alv" d="m242 79-1 1 1-1ZM221 85h2l-7-5 5 5ZM241 80l-1 1 1-1Z"/><path fill="#187C63" id="SSs4" d="M53 110c0 1.465-.109 4 2 4 .888 0 15.92-26 20-26v-1c-1.462 0-5-4.277-5-6-1.757 0-4.284 6.069-5 7.5-3.199 6.397-12 14.106-12 21.5Z"/><path fill="#C9C7C9" id="ccb" d="M125 81c-1.747 0-2 .253-2 2l2-2Z"/><path fill="#C7C8CC" id="alv" d="m239 81-1 1 1-1Z"/><path fill="#187C63" id="SSs4" d="M404 111c-1.916 0-.07 3-3 3 0-5.211-19-23.552-19-27 1.535 0 2.402-6 5-6 0 4.256 17 22.904 17 29v1Z"/><path fill="#7BD04A" id="DG-mo" d="M195 118h8l7-3c1.481 0 .785-2 3-2 0-2.872 4-6.864 4-13l-1-1c-8.602 0-21.802-10.15-29.5-14l-10-3c-7.909-3.954-18.866 8-24.5 8l-1 3c0 3.981 4.403 6 8 6 0-5.002 8.42-4.46 11.5-6 9.638-4.82 22.218 5.109 30 9l10-1c4.964 2.482-2.68 8.84-5 10-4.982 2.491-13.544.228-18-2-5.413-2.706-11.976-2-18.5-2l-3 3 1 1 2 1h3l1 1h5l1 1h2l2 1h3l1 1h2l1 1h2l2 1h1Z"/><path fill="#C7C8CC" id="alv" d="m238 82-1 1 1-1Z"/><path fill="#7BD04A" id="DG-mo" d="M253 118h9c0-1.473 1.952-1 3-1h1l2-1h1l1-1h4l1-1 13-2 2-1v-2l-3-2c0 1.036-12.185-1.157-14.5 0-5.793 2.897-17.508 8.492-23.5 2.5-1.023-1.023-6.224-3.551-5-6 2.806-5.612 6.826.837 11.5-1.5 9.963-4.982 22.146-13.927 34-8 3.757 1.879 7.5 1.345 7.5 5 3.64 0 9-1.86 9-6l-2-3c-5.212 0-15.813-11.843-23.5-8-2.458 1.23-5.587.794-8 2-7.68 3.84-24.275 15-32.5 15l-1 1c0 5.512 5 11.432 5 13l3 2 1 1 3 1 1 1h1Z"/><path fill="#C9C7C9" id="ccb" d="M100 113h2c0-2.358 6.876-14 10-14l3-4 1-2c0-4.073 7-6.575 7-10-6.072 0-18.466 21-21 21l-1 1-1 8Z"/><path fill="#C7C8CC" id="alv" d="M234 85h1l2-2c-1.238 0-3 .423-3 2Z"/><path fill="#7ECD4A" id="FC" d="M218 97h3l1-1 1-1 1-1 1-2 1-1 1-1v-6l-4 1h-2c0 5.603-3 7.95-3 12ZM239 97l-1 1-4-3-1-1-4-5.5 1-4.5 4 1h1c0 5.696 4 8.651 4 12Z"/><path fill="#7DCF4B" id="CA2" d="M119 91c5.684 0 22.495-2.503 27.5 0l4.5 2 1-3c0-.853-6.031-2-7-2-6.994 0-15.147-2-22-2-1.811 0-4 3.438-4 5ZM338 91h-24c-1.775 0-8 .07-8 2l-2-3c0-.853 6.031-2 7-2 7.287 0 15.844-2 23-2l4 5Z"/><path fill="#1C8063" id="SSs5" d="M398 153h1c4.186 0 7.431-3 12-3l1-1-1-5c-1.186 0-1.186-1 0-1v-1l-1-3c-4.681 0-3-3.356-3-5.5 0-1.374-3.385.229-4-1-.892-1.785-2-5.434-2-7.5-4.231 0 0-8.382 0-10v-1c0-5.211-19-23.552-19-27h-1c0 2.45-4.478 8-7 8v1c2.241 0 7.94 11.38 9 13.5 6.485 12.97 15 28.104 15 43.5ZM46 150l12 3c0-14.506 8.834-30.168 15-42.5 1.23-2.459 5.38-13.5 9-13.5v-2l-7-7c-4.08 0-19.112 26-20 26v2c0 2.268 3.29 3.921 2 6.5-.723 1.445-2 .091-2 2.5 0 7.625-6 9.873-6 14.5l-2-.5-1 1v1l-1 1v1c1.186 0 1.186 1 0 1l-1 5 2 1Z"/><path fill="#7ECF49" id="CA3" d="M135 113h1c0-1.614 3.31-1 4.5-1l13.5-1h3c0-1.714 5.594-1 7-1h2l3-3 8-4c0-5.878-9.962-4-14-4h-4c-3.597 0-8-2.019-8-6l-4.5-2c-5.005-2.503-21.816 0-27.5 0l-3 2-1 2c0 18.79-.203 18 20 18Z"/><path fill="#A8A9AA" id="V3" d="M222 97c4.732 0 2.723 3.611 5.5 5 2.382 1.191 2.923-4.461 4-5 2.712-1.356 3.183 2 4.5 2l-2-4-1-1c-2.33 0-3.227-4-6-4l-1 1-1 1-1 2-1 1-1 1v1Z"/><path fill="#7ECF49" id="CA3" d="M299 111h4c12.828 0 25.874 4.813 37.5-1 5.1-2.55.669-19-2.5-19h-24c-1.775 0-8 .07-8 2 0 4.14-5.36 6-9 6h-4c-3.362 0-14-1.518-14 4 1.49 0 8 2.206 8 4l3 2 2 1h1c1.321 0 6-.684 6 1Z"/><path fill="#65A83D" id="DG-sg" d="m177 103-8 4c6.524 0 13.087-.706 18.5 2 4.456 2.228 13.018 4.491 18 2 2.32-1.16 9.964-7.518 5-10l-10 1c-7.782-3.891-20.362-13.82-30-9-3.08 1.54-11.5.998-11.5 6h4c0-1.78 6.197-1.348 7.5-2 8.37-4.185 18.188 3.594 25 7 1 .5 6.5.573 6.5 2.5 0 1.703-5.515.5-7 .5-5.825 0-11.316-4-18-4ZM279 103c1.49 0 8 2.206 8 4 0 1.036-12.185-1.157-14.5 0-5.793 2.897-17.508 8.492-23.5 2.5-1.023-1.023-6.224-3.551-5-6 2.806-5.612 6.826.837 11.5-1.5 9.963-4.982 22.146-13.927 34-8 3.757 1.879 7.5 1.345 7.5 5h-4c0-2.357-6.029-1.264-7.5-2-7.571-3.785-16.741 2.87-23 6-.954.477-7.5 2.114-7.5 3.5l2.5 1.5c3.615-1.807 8.44-1.22 12-3 3.186-1.593 5.586-2 9.5-2Z"/><path fill="#C7C8CC" id="alv" d="m116 93-1 2 1-2ZM135 113c0 1.059-6.743 2-8 2-3.87 0-7.339-.419-10.5-2l-2.5-3c0-3.205-2-6.924-2-11l3-4c0 18.79-.203 18 20 18Z"/><path fill="#039399" id="AUDd1" d="M36 118h1c0-3.754 2.886-10.386 5.5-13l1.5-3v-1c-1.107 0-2.058-5-4-5 0 6.542-9 13.01-9 20 .67 0 5 1.328 5 2Z"/><path fill="#7ECE4A" id="DG-po" d="M163 99c4.038 0 14-1.878 14 4 6.684 0 12.175 4 18 4 1.485 0 7 1.203 7-.5 0-1.927-5.5-2-6.5-2.5-6.812-3.406-16.63-11.185-25-7-1.303.652-7.5.22-7.5 2ZM293 99c-3.362 0-14-1.518-14 4-3.914 0-6.314.407-9.5 2-3.56 1.78-8.385 1.193-12 3l-2.5-1.5c0-1.386 6.546-3.023 7.5-3.5 6.259-3.13 15.429-9.785 23-6 1.471.736 7.5-.357 7.5 2Z"/><path fill="#197D63" id="SSs6a" d="M398 153c-3.255 0-6.058 2-10 2-2.144 0-.381-4.262-1-5.5l-5-14-9-20c-1.587-3.175-7-5.79-7-9.5v-1c1.343 0 8-7.572 8-9 2.241 0 7.94 11.38 9 13.5 6.485 12.97 15 28.104 15 43.5Z"/><path fill="#039399" id="AUDd1" d="m425 116-5 1c-1.845 0-1.441-3.381-2-4.5-1.776-3.552-5-7.249-5-11.5 0-.693 1.113-5 3-5 1.181 0 9 17.101 9 20Z"/><path fill="#197D63" id="SSs6a" d="m58 153 11 3c0-3.129 3.672-19 6-19 0-7.157 6.449-19.949 11.5-25l4.5-6v-1c-4.046 0-4.972-8-9-8-3.62 0-7.77 11.041-9 13.5-6.166 12.332-15 27.994-15 42.5Z"/><path fill="#7DCD4B" id="HPF" d="m218 97-1 1 1-1Z"/><path fill="#A8A9AA" id="V3" d="m222 97-1 1v-1h1Z"/><path fill="#A9AAA8" id="chpl" d="m231 115-1 1c-2.25 0-3.376-2-5-2v-1l-1-1-2-4-1-1v-9l1-1c4.732 0 2.723 3.611 5.5 5 2.382 1.191 2.923-4.461 4-5 2.712-1.356 3.183 2 4.5 2v6l-1 1-1 3-1 1v1l-1 1-1 3Z"/><path fill="#7DCD4B" id="HPF" d="m240 99-1 1-1-2 1-1 1 2Z"/><path fill="#A8AAAA" id="VL" d="M109 128h1c0-3.924-3.049-10.402-1-14.5.493-.987 3-2.617 3-.5l2-3c0-3.205-2-6.924-2-11-3.124 0-10 11.642-10 14 5.871 0 7 9.907 7 15Z"/><path fill="#7DCD4B" id="HPF" d="M217 99v1l-1-1h1Z"/><path fill="#A8A9AA" id="V3" d="M220 105h1v-6c-1.684 0-1 4.679-1 6Z"/><path fill="#A8AAAA" id="VL" d="M347 128h1c0-6.251-.304-15 7-15 0-1.94-8.48-14-11-14 0 4.511-2 8.351-2 12l2 2 2.5-1 .5 16Z"/><path fill="#029397" id="AUDd2/3" d="M420 118c-3.541 0-6.145 3-10 3l-6-10v-1c4.377 0 1-.436 1-1.5l7-7.5h1c0 4.251 3.224 7.948 5 11.5.559 1.119.155 4.5 2 4.5v1ZM37 118c3.403 0 5.952 3 10 3l5-11-2-.5 2-1c0-.967-7.007-6.5-8-6.5l-1.5 3c-2.614 2.614-5.5 9.246-5.5 13Z"/><path fill="#C7CACC" id="ccs" d="m102 104-1 1 1-1Z"/><path fill="#FF8D9F" id="MH" d="M223 131h2l2-5.5c1.986-3.973-2-8.553-2-11.5v-1l-1-1-2-4-1-1v-2h-1c-4.708 0-1.695 7-4 7l-3 8 9 10 1 1ZM231 131h3l1-1 9-11c-1.801 0-4-5.615-4-7 0-3.818-1.176-7-4-7l-1 1-1 3-1 1v1l-1 1-1 3-1 1 1 15Z"/><path fill="#A8A9AA" id="V3" d="m236 105-1 1 1-1Z"/><path fill="#1A8061" id="SSs6b" d="M75 137h1c0-2.813 10.6-25 13-25l2-5v-1l-4.5 6c-5.051 5.051-11.5 17.843-11.5 25ZM386 156h2v-1c-2.144 0-.381-4.262-1-5.5l-5-14-9-20c-1.587-3.175-7-5.79-7-9.5h-1l1 4c2.416 0 15 24.952 15 28l1 3 1 1c0 4.805 3 8.832 3 14Z"/><path fill="#A8A9AA" id="V3" d="m221 107 1 1-1-1ZM234 109l-1 1 1-1Z"/><path fill="#7DCD4B" id="HPF" d="M290 111h2v-1l-2-1v2Z"/><path fill="#039398" id="AUDd4" d="M51 123h1c0-1.345 1.57-7 3-7v-2c-2.109 0-2-2.535-2-4h-1l-5 11v1l4 1Z"/><path fill="#CBC8CB" id="fi" d="M113 132c0 7.864 5.908 7 11 7 0-1.07 2.384-8 3-8 0-4.004.359-7.217 2-10.5l-2-5.5c-3.87 0-7.339-.419-10.5-2l-2.5-3-2 3v14c1.643 0 1 3.765 1 5Z"/><path fill="#C7C8CC" id="alv" d="M158 111h6v-1c-1.406 0-7-.714-7 1h1Z"/><path fill="#7DCD4B" id="HPF" d="M164 111h3l-1-1h-2v1Z"/><path fill="#C7C8CC" id="alv" d="M293 111h6c0-1.684-4.679-1-6-1v1Z"/><path fill="#C9C9CA" id="scwm" d="m378 137 3 1c0-3.048-12.584-28-15-28 0 3.209 3 7.198 3 11 2.676 0 9 13.64 9 16Z"/><path fill="#C7C8CC" id="alv" d="M141 113h6c0-1.643 3.765-1 5-1h2v-1l-13.5 1c-1.19 0-4.5-.614-4.5 1h5Z"/><path fill="#FE909D" id="LP" d="m181 140 7 2c0-2.755 9.489-20 11-20v-1l-4-3h-1l-2-1h-2l-1-1h-2l-1-1h-3l-2-1h-2l-1-1h-5l-1-1h-3l-2-1h-9c0 1.579-2.855 1-4 1h-2l-2 1c0 3.608-1.237 12-6 12v1c0 1.819 1 4.591 1 7 1.129 0 5.503-10.501 8.5-12 9.298-4.649 22.5-1.009 22.5 12l5 7Z"/><path fill="#C8CCC7" id="hbc" d="m212 118 1 2 3-8c0-2.276-2.078 1-3 1l-1 5Z"/><path fill="#A8A9AA" id="V3" d="m233 111-1 1 1-1Z"/><path fill="#FE909D" id="LP" d="m275 140-7 2c0-7.037-10-15.469-10-21l4-3c1.048 0 3 .473 3-1h1l2-1h1l1-1h4l1-1 13-2 2-1h9c0 1.579 2.855 1 4 1h2l2 1v7.5l5 4.5v2l-1 4-6.5-9c-11.347-5.673-23.5-3.976-23.5 11-1.59 0-6 5.662-6 7Z"/><path fill="#CBC8CB" id="fi" d="M343 133c0 7.362-5.325 6-10 6 0-1.876-3.06-7.62-4-9.5-2.083-4.166 0-10.558 0-14.5 5.296 0 10.313-4 13-4l2 2v14l-1 6Z"/><path fill="#039398" id="AUDd4" d="m410 122-5 1-4-8v-1c2.93 0 1.084-3 3-3l6 10v1Z"/><path fill="#C9C9CA" id="scwm" d="M76 137h3c0-2.363 7.243-17 9-17l1-8c-2.4 0-13 22.187-13 25Z"/><path fill="#A9AAA8" id="chpl" d="m112 127-2 1c0-3.924-3.049-10.402-1-14.5.493-.987 3-2.617 3-.5v14Z"/><path fill="#A8A9AA" id="V3" d="m224 112 1 1-1-1Z"/><path fill="#C8CCC7" id="hbc" d="m245 118-1 1c-1.801 0-4-5.615-4-7l3 1c0 1.424.362 5 2 5Z"/><path fill="#A9AAA8" id="chpl" d="m344 127 3 1-.5-16-2.5 1v14Z"/><path fill="#98D5F9" id="CP" d="M104 195c-.51 0-6.992 3.246-8.5 4-3.745 1.873-7.739-2-10.5-2l-8-8-4-6v-22l1-2 1-3v-3c1.353 0 2-4.643 2-6v-1l2-4 1-2 2-3.5c1.657-3.313 7-8.806 7-12.5l11-11h2c5.871 0 7 9.907 7 15v1h-6c-7.979 0-6 18.295-6 23 0 6.522 2 11.671 2 18v1c0 1.574-.751 9 1 9 0 3.69 4 8.916 4 15Z"/><path fill="#FE7F84" id="LGd-co" d="m141 126-5 1c-1.852 0-3.309-1-5-1 0-3.965.459-8.98 4.5-11 1.114-.557 5.5-.41 5.5-2h9c0 3.608-1.237 12-6 12-1.048 0-3-.473-3 1Z"/><path fill="#FF8D9F" id="MH" d="M210 115c0 1.238.423 3 2 3l1-5c-2.215 0-1.519 2-3 2ZM247 116l-2 2c-1.638 0-2-3.576-2-5h1l3 2v1Z"/><path fill="#FE7F84" id="LGd-co" d="M320 127c1.639 0 2.455-2 3.5-2l2.5 2c0-4.184-1.109-9.805-5.5-12-1.114-.557-5.5-.41-5.5-2h-8v7.5l5 4.5c3.303 0 5.115 2 8 2Z"/><path fill="#98D5F9" id="CP" d="M352 195c1.654 0 6.811 3.155 8.5 4 3.745 1.873 7.738-2 10.5-2l9-9 1-1c0-1.238.423-3 2-3v-5c0-1.048-.473-3 1-3l-1-13v-4l-1-1v-2c-1.579 0-1-2.855-1-4v-1c-1.638 0-2-3.576-2-5v-1l-2-3-1-3-8-14-11-12h-2c-7.304 0-7 8.749-7 15v1c0 2.56 3.334 0 4 0h1c8.112 0 7 17.53 7 22l-1 1c0 6.655-2 12.051-2 18v4c0 8.216-5 13.085-5 21Z"/><path fill="#A8A9AA" id="V3" d="M225 131c1.764 0 2.313 2.593 3.5 2 1.445-.723.091-2 2.5-2l-1-15c-2.25 0-3.376-2-5-2 0 2.947 3.986 7.527 2 11.5l-2 5.5Z"/><path fill="#FF8F9D" id="LH" fill-rule="evenodd" d="m201 123-1 1.5c0 1.858 6.354-1.5 1-1.5m0 13 4 3c3.382 0 10.602-2.551 13.5-4l3.5-4v-1l-9-10-1-2c-1.577 0-2-1.762-2-3l-7 3-3 3-1 1c0 5.04 2 9.869 2 14Z"/><path fill="#A8A9AA" id="V3" d="m231 115-1 1 1-1Z"/><path fill="#029398" id="AUDd5" fill-rule="evenodd" d="M400 121c0 1.93 1.93 0 0 0m5 2-4 2c-4.231 0 0-8.382 0-10l4 8Z"/><path fill="#019099" id="AUDv1" d="m24 147 6 1c0-6.153.34-17.18 3-22.5 1.167-2.333 3-4.728 3-7.5 0-.672-4.33-2-5-2 0 9.979-7 20.431-7 31Z"/><path fill="#029398" id="AUDd5" d="m52 123 3 2c0-2.409 1.277-1.055 2-2.5 1.29-2.579-2-4.232-2-6.5-1.43 0-3 5.655-3 7Z"/><path fill="#FF8F9D" id="LH" fill-rule="evenodd" d="M253 123c0 5.369 6.369 0 0 0m3 12-4 4c-4.008 0-17-4.091-17-9l9-11 1-1 2-2h1l3 1 1 1h1l4 3c0 4.725-1 9.879-1 14Z"/><path fill="#019099" id="AUDv1" d="m432 147-6 1c0-6.09.568-15.365-2-20.5l-4-9.5v-1l5-1 2 3.5c1.883 3.765 5 22.69 5 27.5Z"/><path fill="#029198" id="AUDv2/3" d="M30 148h9c0-4.388 5.33-26 8-26v-1c-4.048 0-6.597-3-10-3h-1c0 2.772-1.833 5.167-3 7.5-2.66 5.32-3 16.347-3 22.5Z"/><path fill="#FF909D" id="LD" d="m146 137 1 1 8.5-3c5.135-2.568 14.41-2 20.5-2 0-13.009-13.202-16.649-22.5-12-2.997 1.499-7.371 12-8.5 12 0 1.145-.579 4 1 4ZM311 137l-2 1c-2.772 0-5.167-1.833-7.5-3-5.135-2.568-14.41-2-20.5-2 0-14.976 12.153-16.673 23.5-11l6.5 9v6Z"/><path fill="#029198" id="AUDv2/3" d="M417 148h9c0-6.09.568-15.365-2-20.5l-4-9.5c-3.541 0-6.145 3-10 3v1l3 5.5c2.858 5.716 4 13.62 4 20.5Z"/><path fill="#C7CACC" id="ccs" d="M88 124c-3.804 0-4.651 13-9 13 0-2.363 7.243-17 9-17v4Z"/><path fill="#FD8F9D" id="CL" d="m200 121-1 1v-1h1ZM266 166l-7 3c0-5.372 6.138-14.223 3-20.5-.92-1.839-.133-4.266-1-6l-5-7.5c0-4.121 1-9.275 1-14h1c0 5.531 10 13.963 10 21 0 3.531 1 7.893 1 12 0 4.945-3 9.115-3 12Z"/><path fill="#C7CACC" id="ccs" d="M377 137h1c0-2.36-6.324-16-9-16l-1 3c1.175 0 9 11.527 9 13Z"/><path fill="#1C8063" id="SSs5" d="M400 121c0 1.93 1.93 0 0 0Z"/><path fill="#029197" id="AUDv4" d="M39 148h4c0-3.601-3.371-2 .5-2l1.5-2v-1c-1.186 0-1.186-1 0-1l1-1c-2.212 0-2.212-1 0-1l1-1c0-5.908 4-10.389 4-16l-4-1c-2.67 0-8 21.612-8 26Z"/><path fill="#FD8F9D" id="CL" d="m191 167 6 2c0-4.104-7.324-33 4-33 0-4.131-2-8.96-2-14-1.511 0-11 17.245-11 20l-1 11c0 5.477 4 12.079 4 14Z"/><path fill="#029197" id="AUDv4" fill-rule="evenodd" d="M412 140c0 1.93 1.93 0 0 0m1 8h4c0-6.88-1.142-14.784-4-20.5l-3-5.5-5 1 5 16 1 3c1.186 0 1.186 1 0 1v1c4.885 0 2 2.033 2 4Z"/><path fill="#019098" id="AUDv5" d="M55 125c0 7.625-6 9.873-6 14.5l-2-.5c0-5.908 4-10.389 4-16h1l3 2Z"/><path fill="#CCC9C8" id="sm" d="m201 123-1 1.5c0 1.858 6.354-1.5 1-1.5ZM253 123c0 5.369 6.369 0 0 0Z"/><path fill="#019098" id="AUDv5" fill-rule="evenodd" d="M407 136c0 1.93 1.93 0 0 0m-6-11c0 2.066 1.108 5.715 2 7.5.615 1.229 4-.374 4 1 0 2.144-1.681 5.5 3 5.5l-5-16-4 2Z"/><path fill="#C9C7C9" id="ccb" d="m79 137 1 3 2-3.5c1.657-3.313 7-8.806 7-12.5h-1c-3.804 0-4.651 13-9 13ZM377 137l-1 2-8-14v-1c1.175 0 9 11.527 9 13Z"/><path fill="#FF8E9F" id="LGv" d="M130 135h1l4-4 1-1v-3c-1.852 0-3.309-1-5-1l-1 2-1 1v6h1Z"/><path fill="#FF6F80" id="TH" d="M141 126h3v-1c-1.048 0-3-.473-3 1ZM320 127l1 3c-1.653 0-2.681-3-9-3v-2c3.303 0 5.115 2 8 2Z"/><path fill="#FF8E9F" id="LGv" d="M328 134v2l-3-2-4-4-1-3c1.639 0 2.455-2 3.5-2l2.5 2 1 2 1 5Z"/><path fill="#FF6F80" id="TH" d="M136 127v3l5-4-5 1Z"/><path fill="#CBC9C7" id="or" d="M137 144h1c2.117 0 4.428-4 7-4l1-3c-1.579 0-1-2.855-1-4 0-2.409-1-5.181-1-7h-3l-5 4-1 1-4 4c12.016 0 6 1.175 6 9ZM320 146l3 2-5-7.5c-1.175-2.349 1.464-8.018 4.5-6.5l3.5 2-1-2-4-4c-1.653 0-2.681-3-9-3l-1 4v6l1 3c1.505 0 8 4.197 8 6Z"/><path fill="#CAC7CB" id="fiber tracts" d="m130 128-1 1 1-1Z"/><path fill="#CBC9C7" id="or" d="m97 152 9.5 5c4.106 2.053 8.874-2 12.5-2 1.52 0 6-9.173 6-11l-4 3c-.904 0-11 4.175-11-2-1.33 0-5-7.619-5-9l-1-5-1-2c-7.979 0-6 18.295-6 23Z"/><path fill="#CCC" d="M104 129c0 .839 1.93 2 0 2l-1-2h1Z"/><path fill="#97D6F9" id="STR" d="M109 131c0 5.666.382 5-4 5l-1-5c1.93 0 0-1.161 0-2h5v2Z"/><path fill="#CAC7CB" id="fiber tracts" d="M327 129c2.202 0 2.979 5 1 5l-1-5Z"/><path fill="#97D6F9" id="STR" d="m353 131-2 5c-3.906 0-4-.036-4-5l1-2c0 2.56 3.334 0 4 0l1 2Z"/><path fill="#CCC" d="M353 129v2l-1-2h1Z"/><path fill="#CBC9C7" id="or" d="m359 152-9.5 5c-4.106 2.053-8.874-2-12.5-2l-7-13 5 4c0 4.563 11 3.444 11-1 2.483 0 5-7.182 5-9l2-5v-2c8.112 0 7 17.53 7 22l-1 1Z"/><path fill="#CAC7CB" id="fiber tracts" d="M128 135h1v-5l-2 1 1 4Z"/><path fill="#FF6F80" id="TH" d="m136 130-1 1 1-1Z"/><path fill="#C7CAC9" id="fr" d="M222 131h1l-1-1v1ZM252 139c0 4.71-3.821 2-8 2-3.677 0-10-6.304-10-10l1-1c0 4.909 12.992 9 17 9Z"/><path fill="#CAC7CB" id="fiber tracts" d="M110 145c0-2.043 11-7.254 11 2l4-3 2-4v-1h-3c-5.092 0-11 .864-11-7l-4-1c0 5.666.382 5-4 5 0 1.381 3.67 9 5 9Z"/><path fill="#C7CAC9" id="fr" d="M205 139c0 4.948 3.572 2 8 2 3.686 0 9-6.67 9-10l-3.5 4c-2.898 1.449-10.118 4-13.5 4Z"/><path fill="#FE8F9E" id="PVT" d="M223 148h10c1.444 0 11-5.591 11-7-3.677 0-10-6.304-10-10h-3c-2.409 0-1.055 1.277-2.5 2-1.187.593-1.736-2-3.5-2h-3c0 3.33-5.314 10-9 10 0 1.411 8.612 7 10 7Z"/><path fill="#CAC7CB" id="fiber tracts" d="M346 145c0-2.833-11-6.371-11 1l-5-4-1-3h4c4.675 0 10 1.362 10-6l4-2c0 4.964.094 5 4 5 0 1.818-2.517 9-5 9Z"/><path fill="#FF8E9C" id="PO" d="M196 183c-3.464 0-7.373 1-11 1 0-4.568-8.04-7.579-10-11.5-4.213-8.426-19.407-33.5-28-33.5v-1l8.5-3c5.135-2.568 14.41-2 20.5-2l5 7c0 1.493 4.957 13 6 13 0 5.477 4 12.079 4 14 0 5.637 6 11.602 6 15l-1 1ZM261 183c3.336 0 7.036 1 10 1 0-4.128 7.328-6.155 9-9.5 3.316-6.632 20.688-35.5 29-35.5v-1c-2.772 0-5.167-1.833-7.5-3-5.135-2.568-14.41-2-20.5-2-1.59 0-6 5.662-6 7 0 1.826-4.558 14-6 14 0 4.945-3 9.115-3 12 0 5.732-6 11.004-6 16l1 1Z"/><path fill="#FD8F9F" id="RT" d="M144 190v3c-4.073 0-6.575-7-10-7-3.687 0-12.76-15-19-15 0-3.306-1.65-6.201 0-9.5 1.169-2.337 4-3.673 4-6.5 1.52 0 6-9.173 6-11l2-4 1-1 2-3 1-1c12.016 0 6 1.175 6 9-1.577 0-2 1.762-2 3-1.747 0-2 .253-2 2l-1 1c0 3.134-3 5.948-3 10-1.258 0-1.639 7.221-1 8.5 2.546 5.092 6.795 18.5 13 18.5l3 3ZM312 191v2l8-4 1-1c0-1.518 17.863-17 20-17l1-6.5-5-9.5-7-13-1-3-3-3-3.5-2c-3.036-1.518-5.675 4.151-4.5 6.5l5 7.5c0 .67 5.264 13.027 6 14.5l-1 5c0 1.846-.535 7.5-3 7.5 0 1.465.109 4-2 4 0 1.747-.253 2-2 2 0 1.763-4.012 7-6 7l-2 2-1 1Z"/><path fill="#FF6F80" id="TH" d="m328 136 1 3-3-3-1-2 3 2Z"/><path fill="#FF8E9F" id="LGv" d="m129 135-1 1v-1h1Z"/><path fill="#FF6F80" id="TH" d="M128 138v1l2-3v-1h-1l-1 1v2Z"/><path fill="#CBC9C7" id="or" d="m131 135-1 1v-1h1Z"/><path fill="#FD909D" id="MD" d="m236 178 8 5c5.707 0 15-7.917 15-14 0-5.372 6.138-14.223 3-20.5-.92-1.839-.133-4.266-1-6l-5-7.5-4 4c0 4.71-3.821 2-8 2 0 1.409-9.556 7-11 7 0 5.141-3.586 15.328-1 20.5l4 9.5ZM221 178l-9 5c-5.245 0-15-8.556-15-14 0-4.104-7.324-33 4-33l4 3c0 4.948 3.572 2 8 2 0 1.411 8.612 7 10 7 0 4.856 4.464 13.572 2 18.5-1.245 2.489-4 8.873-4 11.5Z"/><path fill="#1C8063" id="SSs5" d="M407 136c0 1.93 1.93 0 0 0Z"/><path fill="#1A8061" id="SSs6b" d="M69 156h1c0-5.378 4-9.925 4-15l1-1v-3c-2.328 0-6 15.871-6 19Z"/><path fill="#C9C9CA" id="scwm" d="m76 137-1 2v-2h1Z"/><path fill="#CCC8CA" id="ar" d="M73 166c-2.464 0-.964 10-3 10v-20c0-5.378 4-9.925 4-15l1-1v-1l1-2h3l1 3-1 2c-2.109 0-2 2.535-2 4v1c-1.995 0-2 4.377-2 6v1c-1.4 0-1.4 2 0 2l-1 3-1 2v5Z"/><path fill="#FF6F80" id="TH" d="m147 139-2 1 1-3 1 1v1ZM309 139l3 1-1-3-2 1v1Z"/><path fill="#CCC8CA" id="ar" d="m387 175-1 1c-2.257 0 .084-13-3-13v-4l-1-1v-2c1.274 0-.004-4-1-4v-1c0-1.424-.362-5-2-5v-1c0-2.003.293-3-2-3l-1-3 1-2h1l3 1 1 3 1 1c0 4.805 3 8.832 3 14 0 5.572 1 12.756 1 19Z"/><path fill="#CAC7CB" id="fiber tracts" d="M127 139h1v-1l-1 1Z"/><path fill="#019098" id="AUDv5" d="m47 139-1 1 1-1Z"/><path fill="#FF6F80" id="TH" d="m128 139-1 1v-1h1Z"/><path fill="#FF7E83" id="VPM" d="M168 197h1l10-2c0-1.577 1.762-2 3-2 0-1.577 1.762-2 3-2v-7c0-4.568-8.04-7.579-10-11.5-4.213-8.426-19.407-33.5-28-33.5l-2 1c-2.572 0-4.883 4-7 4l-1 1-2 2v1l-1 1-1 1-2 7 7 8.5c6.549 6.549 21.962 30.5 29 30.5l1 1ZM274 193c4.639 0 8.914 4 14 4 11.785 0 19.394-24.947 29.5-30 3.018-1.509 7.5-8.044 7.5-11 0-4.112-5-6.869-5-10 0-1.803-6.495-6-8-6l-3-1c-8.312 0-25.684 28.868-29 35.5-1.672 3.345-9 5.372-9 9.5 0 4.35 3 8.219 3 9Z"/><path fill="#187C63" id="SSs4" d="M46 140c-2.212 0-2.212 1 0 1v-1Z"/><path fill="#C9C9CA" id="scwm" d="m75 140-1 1 1-1Z"/><path fill="#FD8F9C" id="Eth" d="m188 142-1 11c-1.043 0-6-11.507-6-13l7 2ZM268 142c0 3.531 1 7.893 1 12 1.442 0 6-12.174 6-14l-7 2Z"/><path fill="#187C63" id="SSs4" d="M412 140c0 1.93 1.93 0 0 0Z"/><path fill="#C9C9CA" id="scwm" d="m382 141 1 1-1-1Z"/><path fill="#187C63" id="SSs4" d="M45 142c-1.186 0-1.186 1 0 1v-1Z"/><path fill="#C9C7C9" id="ccb" d="M79 142c-2.109 0-2 2.535-2 4l2-4Z"/><path fill="#C8CBC7" id="st" d="M110 145c0 6.175 10.096 2 11 2 0-9.254-11-4.043-11-2ZM346 145c0 4.444-11 5.563-11 1 0-7.371 11-3.833 11-1Z"/><path fill="#C9C7C9" id="ccb" d="M377 142c2.293 0 2 .997 2 3l-2-3Z"/><path fill="#187C63" id="SSs4" d="M411 142c1.186 0 1.186 1 0 1v-1Z"/><path fill="#019098" id="AUDv5" d="M45 143c1.186 0 1.186 1 0 1v-1ZM411 143c-1.186 0-1.186 1 0 1v-1Z"/><path fill="#187C63" id="SSs4" d="m43 148 1 1 1-5-1.5 2c-3.871 0-.5-1.601-.5 2Z"/><path fill="#CBC9C7" id="or" d="m137 145-2 2c0-1.238.423-3 2-3v1Z"/><path fill="#C7CACA" id="em" d="m138 144-1 1v-1h1Z"/><path fill="#187C63" id="SSs4" d="m413 148-1 1-1-5c4.885 0 2 2.033 2 4Z"/><path fill="#C7CACA" id="em" d="M325 156c1.765 0 .541 1.581 1 2.5 2.938 5.876-1 11.12-1 16.5 2.465 0 3-5.654 3-7.5l1-5c-.736-1.473-6-13.83-6-14.5l-3-2c0 3.131 5 5.888 5 10Z"/><path fill="#C9C7C9" id="ccb" d="M379 146c1.638 0 2 3.576 2 5-1.638 0-2-3.576-2-5Z"/><path fill="#15B0B3" id="TEa1" d="m31 178-6 1-1-32 6 1c0 10.774 1 19.938 1 30Z"/><path fill="#C9C7C9" id="ccb" d="M77 147c-1.995 0-2 4.377-2 6 1.353 0 2-4.643 2-6Z"/><path fill="#CBC9C7" id="or" d="M133 149h1l1-1v-1c-1.747 0-2 .253-2 2Z"/><path fill="#15B0B3" id="TEa1" d="m426 178 5 1 1-32-6 1v30Z"/><path fill="#16AFB3" id="TEa2/3" d="m41 177-10 1c0-10.062-1-19.226-1-30h9l-1 14.5c1.59 3.181 3 11.028 3 14.5Z"/><path fill="#15B0B2" id="TEa4" d="M41 177h2c0-9.383 1-19.226 1-28l-1-1h-4l-1 14.5c1.59 3.181 3 11.028 3 14.5Z"/><path fill="#C7CACA" id="em" d="m135 148-1 1 1-1Z"/><path fill="#FE909F" id="IMD" d="M221 178c2.647 0 6.175-3.662 9.5-2l5.5 2-4-9.5c-2.586-5.172 1-15.359 1-20.5h-10c0 4.856 4.464 13.572 2 18.5-1.245 2.489-4 8.873-4 11.5Z"/><path fill="#15B0B2" id="TEa4" d="M413 177h3c0-3.08.631-8.762 2-11.5 2.218-4.435-1-13.412-1-17.5h-4l-1 1c0 3.038.589 10.679 2 13.5 1.904 3.807-1 11.122-1 14.5Z"/><path fill="#16AFB3" id="TEa2/3" d="m416 177 10 1v-30h-9c0 4.088 3.218 13.065 1 17.5-1.369 2.738-2 8.42-2 11.5Z"/><path fill="#15AFB3" id="TEa5" d="M43 177h12c0-7.532-1.664-6.828-6-15.5l-4-3 1-8.5-2-1c0 8.774-1 18.617-1 28Z"/><path fill="#CBC9C7" id="or" d="M132 150h1v-1l-1 1Z"/><path fill="#C7CACA" id="em" d="m134 149-1 1v-1h1Z"/><path fill="#15AFB3" id="TEa5" d="M402 177h11c0-3.378 2.904-10.693 1-14.5-1.411-2.821-2-10.462-2-13.5l-1 1c0 1.549-1 3.551-1 4.5 0 1.33 3.052 1.896 2 4l-5 4c-2.98 2.98 0 1.357 0 3 0 1.802-6 2.046-6 5l2 1-2 1 2 1-1 3.5Z"/><path fill="#12AD82" id="VISC5" d="M55 177c0 1.238.423 3 2 3 0-8.932 1-18.732 1-27l-12-3-1 8.5 4 3c4.336 8.672 6 7.968 6 15.5Z"/><path fill="#C7CACA" id="em" d="m131 157-2 3c0-4.052 3-6.866 3-10h1l-2 7Z"/><path fill="#12AD82" id="VISC5" d="M402 177c0 1.658-1.461 3-3 3v-27c4.186 0 7.431-3 12-3 0 1.549-1 3.551-1 4.5 0 1.33 3.052 1.896 2 4l-5 4c-2.98 2.98 0 1.357 0 3 0 1.802-6 2.046-6 5l2 1-2 1 2 1-1 3.5Z"/><path fill="#CCC8CA" id="ar" d="m360 151-1 1 1-1ZM99 170l3.5 3c2.457 1.228 9.125-2 12.5-2 0-3.306-1.65-6.201 0-9.5 1.169-2.337 4-3.673 4-6.5-3.626 0-8.394 4.053-12.5 2l-9.5-5c0 6.522 2 11.671 2 18ZM357 170l-3.5 3c-2.158 1.079-9.188-2-12.5-2l1-6.5-5-9.5c3.626 0 8.394 4.053 12.5 2l9.5-5c0 6.655-2 12.051-2 18Z"/><path fill="#C9C7C9" id="ccb" d="M381 152c.996 0 2.274 4 1 4-1.579 0-1-2.855-1-4Z"/><path fill="#11AC83" id="VISC6a" d="M70 188c0 1.773-9.259 1-11 1 0-1.296-.825-7-2-7v-1c1.186 0 1.186-1 0-1 0-8.932 1-18.732 1-27l11 3c0 4.088-3.218 13.065-1 17.5 1.893 3.787 2 10.049 2 14.5ZM386 189h11c0-2.885 2-4.697 2-8v-28h-1c-3.255 0-6.058 2-10 2v15.5c0 1.19.614 4.5-1 4.5 0 4.569-1 8.923-1 13v1Z"/><path fill="#C9C7C9" id="ccb" d="M75 154c-1.4 0-1.4 2 0 2v-2Z"/><path fill="#11AD82" id="VISC6b" d="M70 188h1c0-4.107-1-8.469-1-12v-20h-1c0 4.088-3.218 13.065-1 17.5 1.893 3.787 2 10.049 2 14.5Z"/><path fill="#FD8084" id="VPL" d="M288 197c0 2.461 3.378 2 5 2l14-5c0-1.077 3.762-3 5-3l1-1 2-2c0-1.763 4.012-7 6-7 0-1.747.253-2 2-2l2-4c0-5.38 3.938-10.624 1-16.5-.459-.919.765-2.5-1-2.5 0 2.956-4.482 9.491-7.5 11-10.106 5.053-17.715 30-29.5 30Z"/><path fill="#11AD82" id="VISC6b" d="M388 156v14.5c0 1.19.614 4.5-1 4.5 0-6.244-1-13.428-1-19h2Z"/><path fill="#FD8084" id="VPL" d="M162 199h2c1.424 0 5-.362 5-2h-1l-1-1c-7.038 0-22.451-23.951-29-30.5l-7-8.5-2 3c0 6.976 1.158 11.817 4 17.5l8 9.5 3 3 5 4c4.082 0 7.63 4 12 4l1 1Z"/><path fill="#C8CBCC" id="ec" d="m382 158 1 1-1-1ZM74 159l-1 2 1-2Z"/><path fill="#C7CACA" id="em" d="M129 160c-1.258 0-1.639 7.221-1 8.5 2.546 5.092 6.795 18.5 13 18.5l-8-9.5c-2.842-5.683-4-10.524-4-17.5Z"/><path fill="#C8CBCC" id="ec" d="M383 189h2v-1l1-12c-2.257 0 .084-13-3-13l1 13c0 1.048.473 3-1 3v10ZM72 189h2v-1c-1.643 0-1-3.765-1-5v-17c-2.464 0-.964 10-3 10 0 3.531 1 7.893 1 12v1h1Z"/><path fill="#FE8D9F" id="PCN" d="M244 189h6l6-2 4-5c0-4.996 6-10.268 6-16l-7 3c0 6.083-9.293 14-15 14v6ZM206 189h6v-6c-5.245 0-15-8.556-15-14l-6-2c0 5.637 6 11.602 6 15l3 5h2l1 1 3 1Z"/><path fill="#CCC" d="M121 195c1.617 0 4 4.583 4 6 2.402 0 6.824 7.147 8 9.5l20.5 20.5c3.494 1.747 5.834 8.583 11 6 5.194-2.597 1.995-10.002-2-12-11.102-5.551-16.46-19.42-21.5-29.5l-7-9.5c-3.687 0-12.76-15-19-15-3.375 0-10.043 3.228-12.5 2l-3.5-3v1l2 2 5 7 1 1 1 2c2.528 0 12 8.872 12 11l1 1ZM331 200v1l-17 19.5-17.5 16.5c-3.788 1.894-9.394-3.712-7.5-7.5l16-14 8-16 7-10.5 1-1c0-1.518 17.863-17 20-17 3.312 0 10.342 3.079 12.5 2l3.5-3v2l-1 1c-1.592 0-7 7.61-7 9l-1 1-1 1c-1.959 0-10 6.804-10 9-1.577 0-2 1.762-2 3l-3 3-1 1Z"/><path fill="#97D6F9" id="STR" d="M101 173c-1.714 0-1 5.594-1 7-1.751 0-1-7.426-1-9l2 2ZM356 173l1 1v-2l-1 1Z"/><path fill="#8598CC" id="GPe" d="m110 194-6 1c0-6.084-4-11.31-4-15 0-1.406-.714-7 1-7l5 7 1 1 1 2c0 2.747 4 5.419 4 10l-2 1ZM346 194l6 1c0-7.915 5-12.784 5-21l-1-1c-1.592 0-7 7.61-7 9l-1 1-1 1c0 3.238-3 5.136-3 9l2 1Z"/><path fill="#C7CACA" id="em" d="m325 175-2 4c2.109 0 2-2.535 2-4Z"/><path fill="#11AD82" id="VISC6b" d="M385 188h1c0-4.077 1-8.431 1-13l-1 1-1 12Z"/><path fill="#FD8E9E" id="CM" d="M217 190c0-4.266 22-4.266 22 0l5-1v-6l-8-5-5.5-2c-3.325-1.662-6.853 2-9.5 2l-9 5v6l5 1Z"/><path fill="#97D6F9" id="STR" d="M384 176c-1.473 0-1 1.952-1 3 1.473 0 1-1.952 1-3Z"/><path fill="#0D9F91" id="ECT2/3" d="M35 195h8l2-4c0-5.03-2-8.72-2-14h-2l-10 1c0 6.033 4 11.038 4 17Z"/><path fill="#0D9E90" id="ECT5" d="M48 189c-1.481 0-.785 2-3 2 0-5.03-2-8.72-2-14h12c0 1.238.423 3 2 3v2c-.575 0-9 6.305-9 7ZM408 189c1.481 0 .785 2 3 2 0-4.676 2-8.693 2-14h-11c0 1.658-1.461 3-3 3v1c1.15 0 9 6.867 9 8Z"/><path fill="#0D9F91" id="ECT2/3" d="M413 195h8l5-17-10-1h-3c0 5.307-2 9.324-2 14l2 4Z"/><path fill="#0D9F90" id="ECT1" d="m35 195-6 2c0-4.843-4-15.821-4-18l6-1c0 6.033 4 11.038 4 17ZM421 195c1.357 0 6 .647 6 2l2-3.5-1-7c1.2-2.401 3-4.588 3-7.5l-5-1-5 17Z"/><path fill="#C7CACA" id="em" d="M323 179c-1.747 0-2 .253-2 2 1.747 0 2-.253 2-2Z"/><path fill="#0E9F91" id="ECT6a" d="M57 180c1.186 0 1.186 1 0 1v-1Z"/><path fill="#8599CC" id="PAL" d="m106 180 1 1-1-1Z"/><path fill="#C7CACA" id="em" d="M321 181c-1.988 0-6 5.237-6 7 1.988 0 6-5.237 6-7Z"/><path fill="#12AD82" id="VISC5" d="M408 189c-3.642 0-8.002 1-11 1v-1c0-2.885 2-4.697 2-8 1.15 0 9 6.867 9 8ZM48 189h11c0-1.296-.825-7-2-7-.575 0-9 6.305-9 7Z"/><path fill="#FD7E84" id="VAL" d="M198 187c-5.12 0-8.476 4-13 4v-7c3.627 0 7.536-1 11-1l2 4Z"/><path fill="#FF6F80" id="TH" d="M198 187h2l-3-5-1 1 2 4ZM256 187h3l2-4-1-1-4 5Z"/><path fill="#FD7E84" id="VAL" d="M259 187c5.991 0 9.786 6 15 6 0-.781-3-4.65-3-9-2.964 0-6.664-1-10-1l-2 4Z"/><path fill="#8599CC" id="PAL" d="m349 182-1 1 1-1Z"/><path fill="#97D6F9" id="STR" d="M74 188c0-2.276 2.078 1 3 1l-4-6c0 1.235-.643 5 1 5Z"/><path fill="#8599CC" id="PAL" d="M126 213h1c0-4.051-4.969-5 1-5l-3-7c0-1.417-2.383-6-4-6 0 5.495-7.692-1-1-1 0-2.128-9.472-11-12-11 0 2.747 4 5.419 4 10 0 1.019 8 7.279 8 12l3 6 2 1 1 1ZM348 183l-1 1 1-1ZM331 212h1l1-1c0-.853 2.992-6 4-6 0-5.084 7-10.451 7-12 0-3.864 3-5.762 3-9-1.959 0-10 6.804-10 9 0 1.764 2.593 2.313 2 3.5-.529 1.057-4 .831-4-.5l-3 3-1 1v1l-2 6c2.868 0 2 2.688 2 5Z"/><path fill="#97D6F9" id="STR" d="M381 187h2v-3c-1.577 0-2 1.762-2 3Z"/><path fill="#CAC7CB" id="fiber tracts" fill-rule="evenodd" d="M155 235c0 .92 2.95 6 3.5 6 1.039 0-1.992-6-3.5-6m14 22v1c0 5.192-8.26-3-10-3l-1-3 2.5 1c2.548 0-1.397-8.294-1.5-8.5-3.582-7.165-9.544-14.544-14.5-19.5l-7.5-7.5-9-9.5-3-7c2.402 0 6.824 7.147 8 9.5l20.5 20.5c3.494 1.747 5.834 8.583 11 6 5.194-2.597 1.995-10.002-2-12-11.102-5.551-16.46-19.42-21.5-29.5l-7-9.5c3.425 0 5.927 7 10 7l3 1v1c0 .986-2.515 6 0 6 0 8.276 13.464 23 22 23l2 1 1 12c-13.828 0-8 6.918-8 13 0 2.062.852 5 3 5l2 2Z"/><path fill="#90EB8D" id="LA" d="M85 247c0 1.747.253 2 2 2l-2-6.5c-.719-1.437 1.365-15.731 2-17l3-4.5c0-6.735 5.066-5 9-5v-1l-3-4.5L85 197l-8-8c-.922 0-3-3.276-3-1v1c0 8.852 1.351 17.203 5 24.5l1 19 3 10.5 1 3 1 1Z"/><path fill="#FF7E84" id="VM" d="M195 215h6c0-6.669 2.042-6 8-6h1c1.238 0 3-.423 3-2-11.023 0-3-7.607-3-15l-4-3-3-1-1-1h-4c-5.12 0-8.476 4-13 4l-2 2-4 2c0 4.444-11 3.388-11 7l4 2 1 1h1l2 2h2l2 2h1l1 1h1l1 1h1c1.238 0 3 .423 3 2h2l1 1h2l1 1h1Z"/><path fill="#FF6F80" id="TH" d="m202 187 1 1-1-1Z"/><path fill="#FF8E9E" id="RH" d="M217 190c0 4.663 22 5.365 22 0 0-4.266-22-4.266-22 0Z"/><path fill="#FF7E84" id="VM" d="M261 215h1l2-1h1l1-1h2l1-1h1l1-1h1l2-1 1-1 3-1 1-1h1l1-1h1l1-1h1l1-1 1-1h1l1-1c0-4.151-14-4.3-14-9-5.214 0-9.009-6-15-6h-3l-6 2-3 3c0 7.202 6.343 15-3 15l3 3c4.963 0 8-8.161 8 5h6Z"/><path fill="#97D6F9" id="STR" d="m381 187-1 1 1-1Z"/><path fill="#90EB8D" id="LA" d="m372 246-2 3c0-4.172 3.161-12.178 1-16.5-.448-.895-4-10.192-4-10.5 0-4.778-3.559-7-8-7 0-7.654 12-12.092 12-18l9-9 1-1h2v2c0 8.85-2.31 18.12-6 25.5V229c-1.01 0-3 12.192-3 14l-1 1v1l-1 1Z"/><path fill="#209766" id="AIp6a" d="M67 203h6v-1c-2.735 0-2-10.639-2-13v-1h-1c0 1.773-9.259 1-11 1l6 14c.839 0 2-1.93 2 0Z"/><path fill="#CAC7CB" id="fiber tracts" d="m321 188-1 1 1-1Z"/><path fill="#219666" id="AIp6b" d="M386 189c0 1.235.643 5-1 5v-6h1v1Z"/><path fill="#219864" id="AIp5" d="M53 207h9l1-1 1-1 1-1v-1l-6-14H48c-1.481 0-.785 2-3 2l8 16Z"/><path fill="#219666" id="AIp6b" d="m72 189 1 13c-2.735 0-2-10.639-2-13h1Z"/><path fill="#C8C9CB" id="amc" d="M80 237c0 1.146 1.34 6 3 6l-3-10.5-1-19c-3.649-7.297-5-15.648-5-24.5h-2l1 13v1l1 1 3 7.5 2 19.5 1 6Z"/><path fill="#FF6F80" id="TH" d="m240 204 1 2c-1.974 0-3.517-2-6-2 0-9.975-14-9.179-14 0l-5 1v-1l1-1c0-6.589 7.057-11-7-11l-4-3h6l5 1c0 4.663 22 5.365 22 0l5-1h6l-3 3c-16.103 0-7 5.273-7 12Z"/><path fill="#CAC7CB" id="fiber tracts" fill-rule="evenodd" d="M299 237c0 1.93 1.93 0 0 0m-12 21-1 1c0 2.384 9.742-3 11-3v-3c-4.993 0 2-10.902 2-13 1.577 0 2-1.762 2-3l1-1 27-29 2-6-17 19.5-17.5 16.5c-3.788 1.894-9.394-3.712-7.5-7.5l16-14 8-16 7-10.5-8 4-3 2v1c1.643 0 1 3.765 1 5 0 9.64-15.265 22-23 22l-2 2-1 12c10.286 0 9 5.36 9 13l-1 1-1 2c0 1.747-.253 2-2 2v1l-1 1-1 1m12-18c0-2.609-4.136 0 0 0Z"/><path fill="#C8C9CB" id="amc" d="m383 203-3 6.5c-1.748 3.496-.231 8.461-2 12-.703 1.406 1.261 7.5-1 7.5v-14.5c3.69-7.38 6-16.65 6-25.5h2v7c-1.663 0-2 5.407-2 7Z"/><path fill="#209766" id="AIp6a" d="M389 203c0-1.93 1.161 0 2 0l6-13v-1h-11c0 1.235.643 5-1 5v2l-1 7h5Z"/><path fill="#219864" id="AIp5" d="M395 207h8l2-1c0-5.523 6-9.541 6-15-2.215 0-1.519-2-3-2-3.642 0-8.002 1-11 1l-6 13 1 2 1 1 1 1h1Z"/><path fill="#FF6F80" id="TH" d="M147 194h2l-5-4v3l3 1ZM313 190l-1 1 1-1Z"/><path fill="#209865" id="AIp2/3" fill-rule="evenodd" d="M42 200c0 1.93 1.93 0 0 0m-2 9h1l5-1c1.819 0 4.59-1 7-1l-8-16-2 4c0 4.333-2 4.718-2 8.5 0 1.19.614 4.5-1 4.5v1Z"/><path fill="#FD7E84" id="VAL" d="M182 193h1l2-2c-1.238 0-3 .423-3 2Z"/><path fill="#FF6F80" id="TH" d="m307 194 2 1 3-2v-2c-1.238 0-5 1.923-5 3Z"/><path fill="#209865" id="AIp2/3" d="M416 208v1l-5-1c-.706 0-6-1.325-6-2 0-5.523 6-9.541 6-15l2 4c0 5.3 3 7.599 3 13Z"/><path fill="#FD8E9F" id="SMT" d="M213 207h1l1-1 1-1v-1l1-1c0-6.589 7.057-11-7-11 0 7.393-8.023 15 3 15ZM243 207h1c9.343 0 3-7.798 3-15-16.103 0-7 5.273-7 12l3 3Z"/><path fill="#C8CBC7" id="st" d="m120 205-2 1-3-2c0-2.274-5-4.603-5-10l2-1c0 1.019 8 7.279 8 12Z"/><path fill="#FF6F80" id="TH" d="m183 193-4 2c0-1.577 1.762-2 3-2h1ZM293 199l-5 3c0-4.151-14-4.3-14-9 4.639 0 8.914 4 14 4 0 2.461 3.378 2 5 2Z"/><path fill="#8598CC" id="GPe" d="M337 193c-1.577 0-2 1.762-2 3 0 1.331 3.471 1.557 4 .5.593-1.187-2-1.736-2-3.5Z"/><path fill="#C8CBC7" id="st" d="m337 205 2 1 2-2c0-1.36 5-1.993 5-10l-2-1c0 1.549-7 6.916-7 12Z"/><path fill="#97D6F9" id="STR" d="M107 207c-4.468 0-8 3.54-8 8l-3-4.5L85 197c2.761 0 6.755 3.873 10.5 2 1.508-.754 7.99-4 8.5-4l6-1c0 5.397 5 7.726 5 10l-2 1c-1.623 0-6 .005-6 2Z"/><path fill="#8598CC" id="GPe" d="m120 194 1 1c0 5.495-7.692-1-1-1Z"/><path fill="#F0483B" id="ZI" d="m176 219 13 2c6.685 0 6-.845 6-6h-1l-1-1h-2l-1-1h-2l-3-2h-1l-1-1h-1l-1-1h-1l-2-2h-2l-2-2h-1l-1-1-4-2-4-3h-2l-1-1c-4.37 0-7.918-4-12-4h-2v1l4 6.5 8 7.5c1.738 0 8 3.015 8 5l1 1h1c1.122 0 7 2.632 7 4ZM280 219c-4.514 0-8.092 2-13 2-5.874 0-6-1.01-6-6h1l2-1h1l1-1h2l1-1h1l1-1h1l2-1 1-1 3-1 1-1h1l1-1h1l1-1h1l1-1 1-1h1l1-1 5-3 14-5 2 1v1l-5 7-1 1-1 1-1 1c-1.429 0-4 1.288-4 3-3.519 0-6.853 6-9 6l-8 4Z"/><path fill="#97D6F9" id="STR" d="M358 215h1c0-7.654 12-12.092 12-18-2.762 0-6.755 3.873-10.5 2-1.689-.845-6.846-4-8.5-4l-6-1c0 8.007-5 8.64-5 10l2 1c2.765 0 5.165 2 7 2 3.319 0 8 4.645 8 8Z"/><path fill="#0E9584" id="PERI1" d="m40 209-4 2-7-14 6-2c0 4.578 5 8.911 5 13v1Z"/><path fill="#0E9583" id="PERI2/3" d="M43 195c0 4.333-2 4.718-2 8.5 0 1.19.614 4.5-1 4.5 0-4.089-5-8.422-5-13h8Z"/><path fill="#E64438" id="HY" d="M147 201c5.393 0 8.002 8 12 8l-8-7.5-4-6.5c0 .986-2.515 6 0 6Z"/><path fill="#FF6F80" id="TH" d="m164 199 4 3c0-3.612 11-2.556 11-7l-10 2c0 1.638-3.576 2-5 2Z"/><path fill="#0E9583" id="PERI2/3" d="M421 195c0 2.39-2.292 13-5 13 0-5.401-3-7.7-3-13h8Z"/><path fill="#0E9584" id="PERI1" d="m417 210 3 1c2.646 0 7-11.56 7-14 0-1.353-4.643-2-6-2 0 2.39-2.292 13-5 13v1l1 1Z"/><path fill="#FF6F80" id="TH" d="m167 196 1 1-1-1Z"/><path fill="#E64438" id="HY" d="M310 201c-2.72 0-3.553 2-6 2l5-7c1.643 0 1 3.765 1 5Z"/><path fill="#219666" id="AIp6b" d="M383 203h1l1-7c-1.663 0-2 5.407-2 7Z"/><path fill="#FD909F" id="RE" d="M231 217h3l3-2-2-11c0-9.975-14-9.179-14 0l-1 9c0 2.96 2.399 4 5 4 0-2.625-.044-16 3.5-16l1.5 4.5c0 3.26 1 7.628 1 11.5Z"/><path fill="#FF6F80" id="TH" d="m161 198 1 1-1-1Z"/><path fill="#CAC7CB" id="fiber tracts" d="m332 199-1 1 1-1Z"/><path fill="#0E9583" id="PERI2/3" d="M42 200c0 1.93 1.93 0 0 0Z"/><path fill="#F1473B" id="STN" d="M169 223v1c-8.536 0-22-14.724-22-23 5.393 0 8.002 8 12 8 0 4.618 10 7.784 10 14Z"/><path fill="#FC8F9F" id="Xi" d="M227 219h3l1-2c0-3.872-1-8.24-1-11.5l-1.5-4.5c-3.544 0-3.5 13.375-3.5 16l2 2Z"/><path fill="#F1473B" id="STN" d="M297 210c0 4.521-10 7.704-10 13 7.735 0 23-12.36 23-22-2.72 0-3.553 2-6 2l-1 1-1 1-1 1-4 4Z"/><path fill="#C9C8CA" id="ee" d="M69 225v1l2.5 3c.882 0-3.002-8.504-3.5-9.5-2.722-5.444-1-10.492-1-16.5 0-1.93-1.161 0-2 0v11c0 3.947 3 6.628 3 10l1 1Z"/><path fill="#A0EE9C" id="EPd" d="m71 230 3.5 3c2.116 1.058 2.898-2 4.5-2l-2-19.5-3-7.5-1-1h-6c0 6.008-1.722 11.056 1 16.5.498.996 4.382 9.5 3.5 9.5l-2.5-3 2 4Z"/><path fill="#FF6F80" id="TH" d="m288 202-1 1 1-1Z"/><path fill="#A0EE9C" id="EPd" d="m384 232-1 1c-3.067 0-4.726-3-6-3v-1c2.261 0 .297-6.094 1-7.5 1.769-3.539.252-8.504 2-12l3-6.5h6c0 5.063 2.399 10.701 0 15.5-1.68 3.361-6.057 8.5-2 8.5l-1 2-1 1v1l-1 1Z"/><path fill="#C9C8CA" id="ee" d="M387 226v1c-4.057 0 .32-5.139 2-8.5 2.399-4.799 0-10.437 0-15.5 0-1.93 1.161 0 2 0l1 2v8l-3 10-1 1v1l-1 1Z"/><path fill="#219666" id="AIp6b" d="m73 203 1 1-1-1Z"/><path fill="#FF7E84" id="VM" d="m217 203-1 1 1-1Z"/><path fill="#FF6F80" id="TH" d="m286 203-1 1 1-1Z"/><path fill="#E64438" id="HY" d="m304 203-1 1 1-1Z"/><path fill="#32B824" id="ENTl6a" d="M64 205h1v-1l-1 1Z"/><path fill="#7FC0E0" id="CEAm" d="M125 240h2c0-10.02-4-17.425-4-27-2.425 0-5-5.116-5-7l-3-2-2 1c6.147 0 3 14.419 3 18l-1 1c0 1.738-.686 6-3 6l1 2c5.273 0 7.234 8 12 8Z"/><path fill="#FF6F80" id="TH" d="m172 204 1 1-1-1Z"/><path fill="#FD909C" id="PR" d="M211 216h7l2-3 1-9-5 1-1 1-1 1h-1c0 1.577-1.762 2-3 2v5l1 2ZM238 216h7l1-1 1-2v-3l-3-3h-1l-2-1c-1.974 0-3.517-2-6-2l2 11 1 1Z"/><path fill="#FF7E84" id="VM" d="m241 206 2 1-3-3 1 2Z"/><path fill="#FF6F80" id="TH" d="m285 204-1 1 1-1Z"/><path fill="#E64438" id="HY" d="m303 204-1 1 1-1Z"/><path fill="#7FC0E0" id="CEAm" d="m329 239 3 1c4.864 0 5.85-8 11-8l1-2c0-2.079-3-3.187-3-6 0-2.522-3.237-19 2-19l-2-1-2 2c0 1.72-3.753 7-5 7 0 8.872-5 16.699-5 26Z"/><path fill="#32B824" id="ENTl6a" d="m64 205-1 1 1-1Z"/><path fill="#8AD987" id="CTXsp" d="m62 208 3 6v-9h-1l-1 1-1 1v1Z"/><path fill="#80BEE1" id="CEAl" d="m116 223-1 1c-8.667 0-8-11.997-8-17 0-1.995 4.377-2 6-2 6.147 0 3 14.419 3 18Z"/><path fill="#C7CAC8" id="stc" d="M123 212v1c-2.425 0-5-5.116-5-7l2-1 3 6v1Z"/><path fill="#FF6F80" id="TH" d="m174 205 2 2-2-2Z"/><path fill="#FF7E84" id="VM" d="m216 205-1 1 1-1Z"/><path fill="#FF6F80" id="TH" d="m283 205-1 1 1-1Z"/><path fill="#E64438" id="HY" d="m302 205-1 1 1-1Z"/><path fill="#C7CAC8" id="stc" d="m333 212 1 1c1.247 0 5-5.28 5-7l-2-1c-1.008 0-4 5.147-4 6v1Z"/><path fill="#80BEE1" id="CEAl" d="M350 207c0 5.375-.774 17-9 17 0-2.522-3.237-19 2-19 2.765 0 5.165 2 7 2Z"/><path fill="#8AD987" id="CTXsp" d="m395 208-3 5v-8l1 1 1 1h1v1Z"/><path fill="#FF7E84" id="VM" d="m215 206-1 1 1-1Z"/><path fill="#FF6F80" id="TH" d="m281 206-1 1 1-1Z"/><path fill="#E64438" id="HY" d="M297 209v1l4-4c-1.429 0-4 1.288-4 3Z"/><path fill="#32B824" id="ENTl6a" d="m393 206 1 1-1-1Z"/><path fill="#32B725" id="ENTl3" d="m401 210 8 2 2-4c-.706 0-6-1.325-6-2l-2 1-2 3ZM55 210l-8 2-1-4c1.819 0 4.59-1 7-1l2 3Z"/><path fill="#31B824" id="ENTl5" d="m62 208-7 2-2-3h9v1Z"/><path fill="#80BFE0" id="CEAc" d="m110 229 2 1c2.314 0 3-4.262 3-6-8.667 0-8-11.997-8-17-4.468 0-8 3.54-8 8v1c2.836 0 11 10.743 11 13Z"/><path fill="#CACCCB" id="opt" d="m128 215 7 8.5c3.841 7.682 23 22.119 23 28.5l2.5 1c2.548 0-1.397-8.294-1.5-8.5-3.582-7.165-9.544-14.544-14.5-19.5l-7.5-7.5-9-9.5c-5.969 0-1 .949-1 5v1l1 1Z"/><path fill="#FF6F80" id="TH" d="m178 207 2 2-2-2ZM279 207l-1 1 1-1Z"/><path fill="#CACCCB" id="opt" d="m298 252-1 1c-4.993 0 2-10.902 2-13 1.577 0 2-1.762 2-3l1-1 27-29c2.868 0 2 2.688 2 5l-1 1-1 1c0 3.179-4.659 4.818-6 7.5-3.442 6.884-25 25.263-25 30.5Z"/><path fill="#80BFE0" id="CEAc" d="M344 230h1l1-1c0-1.668 3.099-6 5-6l1-1 1-1c0-1.429 1.288-4 3-4l2-1v-1c0-3.355-4.681-8-8-8 0 5.375-.774 17-9 17 0 2.813 3 3.921 3 6Z"/><path fill="#31B824" id="ENTl5" d="m395 208 6 2 2-3h-8v1Z"/><path fill="#32B825" id="ENTl2" d="m47 212-4 2c-1.638 0-2-3.576-2-5l5-1 1 4Z"/><path fill="#6ACAB9" id="PIR" d="M89 276c0 4.5-10 14.286-10 17-4.341 0-11.18-13.861-13-17.5-3.295-6.59-7.73-12.46-11-19-3.571-7.142-4.443-15.885-8-23-2.42-4.841-8-11.964-8-17.5l4-2 4-2 8-2 7-2 3 6c0 3.947 3 6.628 3 10l1 1v1l2 4 4 7c0 6.836 8.828 20.155 12 26.5.534 1.069 2.17 7.5 3 7.5l-1 5Z"/><path fill="#C7C9CC" id="mtt" d="M201 215c0 8.414 8.631 0 9 0v-4l-1-2c-5.958 0-8-.669-8 6ZM247 215c0 4.115 8 5.78 8 0 0-13.161-3.037-5-8-5v5Z"/><path fill="#6ACAB9" id="PIR" d="M367 276c0 1.328 9.794 17 11 17 2.893 0 9.517-12.534 11-15.5 4.325-8.649 9.724-16.448 14-25 3.568-7.135 4.452-15.904 8-23 1.269-2.539 7-11.239 7-13.5l-4-2c-1.424 0-5-.362-5-2l-8-2-6-2-3 5-3 10-1 1v1l-1 1v1l-1 2-1 1v1l-1 1-1 1c0 1.465.109 4-2 4 0 12.287-14 22.053-14 34v5Z"/><path fill="#32B825" id="ENTl2" d="M409 212c0 1.638 3.576 2 5 2l2-4v-1l-5-1-2 4Z"/><path fill="#32B722" id="ENTl1" d="m43 214-4 2c-1.477 0-3-3.924-3-5l4-2h1c0 1.424.362 5 2 5Z"/><path fill="#CCCACB" id="nst" d="m169 223 2 2c4.506 0 2-2.957 2-5 0-1.907-4-2.382-4-5h-1l-1-1c0-1.985-6.262-5-8-5 0 4.618 10 7.784 10 14Z"/><path fill="#FF6F80" id="TH" d="m181 209 1 1-1-1ZM210 209v2l-1-2h1ZM275 209l-1 1 1-1Z"/><path fill="#CCCACB" id="nst" d="m287 223-2 2c-2.098 0-3-1.939-3-4l1-1 5-5c2.147 0 5.481-6 9-6v1c0 4.521-10 7.704-10 13Z"/><path fill="#219765" id="AIp1" d="M416 210h1l-1-1v1Z"/><path fill="#FF6F80" id="TH" d="m183 210 1 1-1-1ZM274 210l-2 1 2-1Z"/><path fill="#32B722" id="ENTl1" d="m414 214 4 2 2-5-3-1h-1l-2 4Z"/><path fill="#97D6F9" id="STR" d="M123 212h2l-2-1v1Z"/><path fill="#FF6F80" id="TH" d="M185 211c1.238 0 3 .423 3 2l-3-2ZM271 211l-1 1 1-1Z"/><path fill="#97D6F9" id="STR" d="M332 212h1v-1l-1 1Z"/><path fill="#80BFE1" id="MEA" d="m133 282 3 3c3.902 0 20.801-12.102 23-16.5V255l-1-3c0-6.381-19.159-20.818-23-28.5l-7-8.5-1-1-1-1-1-1h-2v1c0 9.575 4 16.98 4 27l1 3v27l3 8v1l2 2v1Z"/><path fill="#FF6F80" id="TH" d="m269 212-1 1 1-1Z"/><path fill="#8599CC" id="PAL" d="m331 212-1 1 1-1Z"/><path fill="#80BFE1" id="MEA" d="m322 284-1 1c-3.898 0-21.858-12.215-24-16.5V253l1-1c0-5.237 21.558-23.616 25-30.5 1.341-2.682 6-4.321 6-7.5l1-1 1-1h2l1 1c0 8.872-5 16.699-5 26v3l-1 4 1 1v6c0 4.594-1 10.741-1 16l-1 6v1l-1 1-1 2-1 2-1 1v1l-1 1Z"/><path fill="#97D6F9" id="STR" d="M127 213v1l-1-1h1Z"/><path fill="#FF6F80" id="TH" d="m190 213 1 1-1-1ZM225 217l2 2c-3.647 0-5.609-3-9-3l2-3c0 2.96 2.399 4 5 4ZM246 215h1v-2l-1 2ZM266 213l-1 1 1-1Z"/><path fill="#8599CC" id="PAL" d="m330 213-1 1 1-1ZM127 214l1 1-1-1Z"/><path fill="#E64438" id="HY" d="m167 214 1 1-1-1Z"/><path fill="#FF6F80" id="TH" d="m193 214 1 1-1-1ZM210 215l1 1-1-2v1ZM264 214l-2 1 2-1Z"/><path fill="#9DE79B" id="BLAa" d="M102 248h1c2.665 0 10-2.24 10-6l1-1v-3l-1-1v-3l-1-1v-1l-1-1-1-2c-1.936 0-6.866-7.232-8-9.5l-3-3.5c-3.934 0-9-1.735-9 5 0 7.078 12 22.576 12 27Z"/><path fill="#E64438" id="HY" d="m173 220 2 1 1-2c0-1.368-5.878-4-7-4 0 2.618 4 3.093 4 5ZM269 259c0 1.282-7.389 14-8 14 0-4.887-4.145-9.822-8.5-12-1.069-.534-7.5-2.17-7.5-3 8.772 0 14.071-13.358 11-19.5-.643-1.287-5-6.201-5-6.5 0-1.342 4.38-2.74 3-5.5-4.134-8.267-17.135-10.729-22-1l2 5.5-2 2c0-12.694-5.159-4-8-4 0-10.462-16.219-14.062-21-4.5-1.65 3.301 2 6.145 2 7.5l-4 3.5c-3.838 7.675.947 22.5 10 22.5 0 1.149-4.516 1.508-5.5 2-3.428 1.714-10.5 7.948-10.5 12l-4-7.5-7-7.5c0-1.577 1.762-2 3-2 0 11.086 9.701-4 5-4 0-5.827 5.251-16.999 2-23.5l-5-6.5c6.685 0 6-.845 6-6h6c0 8.414 8.631 0 9 0l1 1h7c3.391 0 5.353 3 9 3h3c1.465 0 4 .109 4-2l4-1h7l1-1h1c0 4.115 8 5.78 8 0h6c0 4.99.126 6 6 6l-5 8.5c-2.822 5.645 2 15.993 2 21.5 0 3.568-1.187 8 5 8Z"/><path fill="#FF6F80" id="TH" d="m238 216-4 1 3-2 1 1ZM246 215l-1 1 1-1Z"/><path fill="#E64438" id="HY" d="M281 221h1l1-1 5-5-8 4 1 2Z"/><path fill="#90EB8D" id="LA" d="m359 215-1 1v-1h1Z"/><path fill="#9DE79B" id="BLAa" d="M343 241c0 4.422 7.347 7 11 7 0-.176 9.108-17.717 10-19.5l3-6.5c0-4.778-3.559-7-8-7l-1 1-2 1c0 1.429-1.288 4-3 4l-1 1-1 1c0 1.668-3.099 6-5 6v1l-1 1v1l-1 1-1 6v2Z"/><path fill="#C8CBCC" id="ec" d="M99 216c2.836 0 11 10.743 11 13-1.936 0-6.866-7.232-8-9.5l-3-3.5ZM358 216l-2 1 2-1Z"/><path fill="#FF6F80" id="TH" d="M234 217c0 2.109-2.535 2-4 2l1-2h3Z"/><path fill="#C8CBCC" id="ec" d="M356 217c-1.712 0-3 2.571-3 4 1.712 0 3-2.571 3-4Z"/><path fill="#F2483A" id="LHA" d="M171 259h2c3.186 0 6.865-2 11-2 0-1.577 1.762-2 3-2 0-2.96 2.399-4 5-4 0-5.827 5.251-16.999 2-23.5l-5-6.5-13-2-1 2c0 3.349 6.038 16-3 16-13.828 0-8 6.918-8 13 1.077 0 3 3.762 3 5l2 2v1l2 1Z"/><path fill="#FD4B3C" id="PH" d="M223 231c-6.216 0-12.292 1-18 1 0-1.355-3.65-4.199-2-7.5 4.781-9.562 21-5.962 21 4.5l-1 2ZM234 231c5.909 0 11.579 1 17 1 0-1.342 4.38-2.74 3-5.5-4.134-8.267-17.135-10.729-22-1l2 5.5Z"/><path fill="#F2483A" id="LHA" d="M285 259h1l1-1 1-1 1-1v-1l2-2 1-2 1-1c0-7.64 1.286-13-9-13-8.622 0-3-13.244-3-16l-1-2c-4.514 0-8.092 2-13 2l-5 8.5c-2.822 5.645 2 15.993 2 21.5 1.984 0 6 1.444 6 4l3 2c3.526 0 8.954 2 10 2h2Z"/><path fill="#F2473A" id="PST" d="m171 225 1 12c9.038 0 3-12.651 3-16l-2-1c0 2.043 2.506 5-2 5ZM283 220l-1 1 1-1Z"/><path fill="#9DE69C" id="BLAp" d="m99 251-7 2-4-2-1-2-2-6.5c-.719-1.437 1.365-15.731 2-17l3-4.5c0 7.078 12 22.576 12 27v1c-1.238 0-3 .423-3 2Z"/><path fill="#F2473A" id="PST" d="m285 225-1 12c-8.622 0-3-13.244-3-16h1c0 2.061.902 4 3 4Z"/><path fill="#C8CBCC" id="ec" d="m353 221-1 1 1-1ZM352 222l-1 1 1-1Z"/><path fill="#9DE69C" id="BLAp" d="M365 253h2l1-1 1-2 1-1c0-4.172 3.161-12.178 1-16.5-.448-.895-4-10.192-4-10.5l-3 6.5c-.892 1.783-10 19.324-10 19.5l1 1 3 2 7 2Z"/><path fill="#80BFE0" id="CEAc" d="m116 223-1 1 1-1Z"/><path fill="#E64438" id="HY" d="m169 224 2 1-2-2v1Z"/><path fill="#C8CBCC" id="ec" d="M351 223c-1.901 0-5 4.332-5 6 1.901 0 5-4.332 5-6Z"/><path fill="#A0EE9C" id="EPd" d="m389 223-1 1 1-1ZM68 224l1 1-1-1ZM388 225l-1 1 1-1Z"/><path fill="#FD5D50" id="PVi" d="M229 270h3v-37c0-12.694-5.159-4-8-4v41l3 1 .5-38c2.151-1.075 1.5 7.196 1.5 8.5V270Z"/><path fill="#97D6F9" id="STR" d="M112 233h1v-1l-1-2-2-1 1 2 1 1v1Z"/><path fill="#E64438" id="HY" d="m223 231 1 1v-3l-1 2Z"/><path fill="#97D6F9" id="STR" d="M345 230h1v-1l-1 1Z"/><path fill="#C8C9CB" id="amc" d="M377 236c0 .978-2.267 7-3 7 0-1.808 1.99-14 3-14v7Z"/><path fill="#8AD987" id="CTXsp" d="m386 229-1 1 1-1ZM75 237h5l-1-6c-1.602 0-2.384 3.058-4.5 2l-3.5-3 4 7Z"/><path fill="#97D6F9" id="STR" d="m345 232-1 1-1-1 1-2h1v2Z"/><path fill="#8AD987" id="CTXsp" d="m346 230-1 1v-1h1ZM377 236l4 1c2.109 0 2-2.535 2-4-3.067 0-4.726-3-6-3v6ZM111 231l1 1-1-1Z"/><path fill="#FE5445" id="DMH" d="m224 258-4 1-9-1c-9.053 0-13.838-14.825-10-22.5l4-3.5c5.708 0 11.784-1 18-1l1 1v26ZM245 258l-8 1c-2.25 0-3.376-2-5-2v-24l2-2c5.909 0 11.579 1 17 1 0 .299 4.357 5.213 5 6.5 3.071 6.142-2.228 19.5-11 19.5Z"/><path fill="#8AD987" id="CTXsp" d="m385 231-1 1 1-1Z"/><path fill="#80BEE2" id="IA" d="M126 246h2v-3l-3-3c-4.766 0-6.727-8-12-8v5l1 1v1l2 3 10 4ZM328 246h3l9-4 1-1 2-2 1-6-1-1c-5.15 0-6.136 8-11 8l-3 2-1 4Z"/><path fill="#8AD987" id="CTXsp" d="m345 232-1 1 1-1ZM384 232l-1 1 1-1ZM113 233v1l-1-1h1Z"/><path fill="#A8A9AA" id="V3" d="M225 291h7v-1c0-2.606-.95-2.4-2-4.5l-1-15.5v-28.5c0-1.304.651-9.575-1.5-8.5l-.5 38v11.5c-.579 1.157-3 5.491-3 6.5l1 2Z"/><path fill="#CCCAC9" id="sup" d="M155 235c0 .92 2.95 6 3.5 6 1.039 0-1.992-6-3.5-6Z"/><path fill="#A0ED9D" id="EPv" d="M90 271h1v-16l-3-4-1-2c-1.747 0-2-.253-2-2l-1-1-1-3c-1.66 0-3-4.854-3-6h-5c0 6.836 8.828 20.155 12 26.5.534 1.069 2.17 7.5 3 7.5ZM366 271h1c0-11.947 14-21.713 14-34l-4-1c0 .978-2.267 7-3 7l-1 1v1l-1 1-2 3-1 1-1 2-1 1-1 3v15Z"/><path fill="#8AD987" id="CTXsp" d="m113 237 1 1-1-1Z"/><path fill="#CCCAC9" id="sup" d="M299 237c0 1.93 1.93 0 0 0ZM299 240c0-2.609-4.136 0 0 0Z"/><path fill="#8AD987" id="CTXsp" d="m114 241 2 1-2-3v2Z"/><path fill="#97D6F9" id="STR" d="m332 240-3 2v-3l3 1Z"/><path fill="#8AD987" id="CTXsp" d="M341 241h2v-2l-2 2Z"/><path fill="#97D6F9" id="STR" d="m127 240 1 3-3-3h2Z"/><path fill="#8AD987" id="CTXsp" d="m114 241-1 1 1-1Z"/><path fill="#84E981" id="BMAp" d="M108 258h2c3.674 0 10.433-6 16-6l1-3-1-3-10-4-2-1-1 1c0 3.76-7.335 6-10 6l-1 1v3l6 6Z"/><path fill="#8AD987" id="CTXsp" d="m341 241-1 1 1-1Z"/><path fill="#84E981" id="BMAp" d="M346 258h3l6-7v-2l-1-1c-3.653 0-11-2.578-11-7h-2l-1 1-9 4-2 1v4l2 1c5.27 0 11.757 6 15 6Z"/><path fill="#C8C9CB" id="amc" d="m374 243-1 1 1-1ZM373 245l-1 1 1-1ZM84 246l1 1-1-1Z"/><path fill="#97D6F9" id="STR" d="M127 249h1v-3h-2l1 3ZM331 246l-2 1-1-1h3Z"/><path fill="#8AD987" id="CTXsp" d="m103 248-1 1v-1h1ZM99 251l3 1v-3c-1.238 0-3 .423-3 2ZM126 252l2 1v-4h-1l-1 3ZM355 251h3l-3-2v2Z"/><path fill="#90EB8D" id="LA" d="m370 249-1 1 1-1Z"/><path fill="#CCCAC9" id="sup" d="M164 250c1.077 0 3 3.762 3 5-2.148 0-3-2.938-3-5ZM293 250l-1 1 1-1Z"/><path fill="#8AD987" id="CTXsp" d="m92 253-1 2-3-4 4 2Z"/><path fill="#9CE79C" id="BLAv" d="M99 280h3l8-4 1-1c0-1.048-.473-3 1-3l-2-10-2-4-6-6-3-1-7 2-1 2v16l1 5c2.117 0 4.428 4 7 4Z"/><path fill="#C7C8CA" id="fx" d="M192 251c4.701 0-5 15.086-5 4 0-2.96 2.399-4 5-4ZM270 255l-1 4c-6.187 0-5-4.432-5-8 1.984 0 6 1.444 6 4Z"/><path fill="#CCCAC9" id="sup" d="m292 251-1 2 1-2Z"/><path fill="#8AD987" id="CTXsp" d="m331 252-2 1v-2l2 1Z"/><path fill="#9CE79C" id="BLAv" d="m353 279 4 1c2.968 0 4.633-4 7-4l2-5v-15c-1.473 0-1-1.952-1-3l-7-2h-3l-6 7-2 3c0 3.62-2 6.768-2 11 0 2.424 2 2.76 2 4l6 3Z"/><path fill="#84EA80" id="BMAa" d="M113 275h2c3.68 0 5.511-2 9-2h1l3-3v-17l-2-1c-5.567 0-12.326 6-16 6v4l2 10 1 3Z"/><path fill="#CAC7CB" id="fiber tracts" d="m298 252-1 1 1-1Z"/><path fill="#84EA80" id="BMAa" d="M342 275h1l2-3c0-4.232 2-7.38 2-11l-1-3c-3.243 0-9.73-6-15-6l-2 1c0 4.594-1 10.741-1 16l2.5 3c3.276 1.638 7.58 3 11.5 3Z"/><path fill="#8AD987" id="CTXsp" d="m368 252-1 1 1-1Z"/><path fill="#CCCAC9" id="sup" d="m291 253-2 2c1.747 0 2-.253 2-2Z"/><path fill="#8AD987" id="CTXsp" d="m367 253-1 3c-1.473 0-1-1.952-1-3h2Z"/><path fill="#E64438" id="HY" d="m273 257-4 2 1-4 3 2Z"/><path fill="#F24839" id="TU" d="M207 289v1c-17.275 0-20.988-5.476-28-19.5-1.539-3.077-6-5.884-6-9.5v-2c3.186 0 6.865-2 11-2l7 7.5 4 7.5c0 4.314 4.151 11 9 11l1 1h1l2 2-1 3Z"/><path fill="#E64438" id="HY" d="M251 284c0 1.481-2 .785-2 3l-4.5-4c-2.458-1.229-12.5-9.029-12.5-13v-13c1.624 0 2.75 2 5 2l-4 4.5c-4.366 8.731 11.338 20.5 18 20.5Z"/><path fill="#F24839" id="TU" d="M249 289v1c16.594 0 21.048-4.597 28-18.5l7-11.5-1-1c-1.046 0-6.474-2-10-2l-4 2c0 1.282-7.389 14-8 14 0 4.609-4.11 10-9 10l-1 1c0 1.481-2 .785-2 3v2Z"/><path fill="#8AD987" id="CTXsp" d="M110 258v4l-2-4h2Z"/><path fill="#FF4A3D" id="VMH" d="M205 284h1l5-1c0-1.577 1.762-2 3-2l1-1 1-1 1-1 2-1c0-1.747.253-2 2-2v-1l1-1 1-1v-1c0-1.048-.473-3 1-3v-1l-4-8-9-1c0 1.149-4.516 1.508-5.5 2-3.428 1.714-10.5 7.948-10.5 12 0 4.314 4.151 11 9 11l1 1Z"/><path fill="#E64438" id="HY" d="m220 259 4 8v-9l-4 1Z"/><path fill="#FF4A3D" id="VMH" d="m252 283-1 1c-6.662 0-22.366-11.769-18-20.5l4-4.5 8-1c0 .83 6.431 2.466 7.5 3 4.355 2.178 8.5 7.113 8.5 12 0 4.609-4.11 10-9 10Z"/><path fill="#8AD987" id="CTXsp" d="m349 258-2 3-1-3h3Z"/><path fill="#E64438" id="HY" d="M173 259v2l-2-2h2ZM285 259l-1 1-1-1h2ZM224 270l-1 1c0-1.048-.473-3 1-3v2Z"/><path fill="#99D2BD" id="OLF" d="m342 275-5 3c0-7.163-8.169-3-10-3l1-6 2.5 3c3.276 1.638 7.58 3 11.5 3ZM125 273c3.506 0 3.428 5 6 5l-3-8-3 3Z"/><path fill="#FF5B4F" id="ARH" d="M216 291c0-4.514 5.699 0 7 0l1-2c0-1.009 2.421-5.343 3-6.5V271l-3-1-1 1v1l-1 1-1 1v1l-2 2-2 1-1 1-1 1-1 1c0 1.577-1.762 2-3 2l-3 3-1 3 1 1c1.819 0 4.591 1 7 1h1ZM233 291l6.5-2 1.5 2c2.409 0 5.181-1 7-1l1-1v-2l-4.5-4c-2.458-1.229-12.5-9.029-12.5-13h-3l1 15.5c1.05 2.1 2 1.894 2 4.5l1 1Z"/><path fill="#99D2BD" id="OLF" d="M89 276h3l-1-5h-1l-1 5ZM364 276h3v-5h-1l-2 5Z"/><path fill="#8AD987" id="CTXsp" d="M111 275h2l-1-3c-1.473 0-1 1.952-1 3Z"/><path fill="#E64438" id="HY" d="m223 272-1 1 1-1Z"/><path fill="#8AD987" id="CTXsp" d="M345 276h2c0-1.24-2-1.576-2-4l-2 3h1l1 1Z"/><path fill="#99D2BD" id="OLF" d="m115 275 4 2 5-4c-3.489 0-5.32 2-9 2Z"/><path fill="#60E5B7" id="COAa" d="M125 291h1l6-3 1-1h1l-1-5v-1l-2-2v-1c-2.572 0-2.494-5-6-5h-1l-5 4c0 2.37 3.512 14 6 14Z"/><path fill="#E64438" id="HY" d="m222 273-1 1 1-1Z"/><path fill="#60E5B7" id="COAa" d="M331 291h1c1.445 0 5-11.076 5-13 0-7.163-8.169-3-10-3v1l-1 1-1 2-1 2-1 1v1l-1 1 1 3 8 4Z"/><path fill="#8AD987" id="CTXsp" d="M110 276h1v-1l-1 1Z"/><path fill="#99D2BD" id="OLF" d="m113 275-2 1v-1h2Z"/><path fill="#5FE6B7" id="COApl" d="M102 300v1c3.741 0 23-6.743 23-9v-1c-2.488 0-6-11.63-6-14l-4-2h-2l-2 1h-1l-8 4-1 2c0 5.521 1 11.898 1 18Z"/><path fill="#E64438" id="HY" d="M221 275c-1.747 0-2 .253-2 2l2-2Z"/><path fill="#5FE6B7" id="COApl" d="m355 300-1 1c-3.737 0-22-5.939-22-9v-1c1.445 0 5-11.076 5-13l5-3h2l1 1h2l6 3 2 4v17Z"/><path fill="#99D2BD" id="OLF" d="m344 275 1 1-1-1Z"/><path fill="#59D9AA" id="PAA" d="m102 300-1 1c-5.014 0-22-3.06-22-8 0-2.714 10-12.5 10-17h3c2.117 0 4.428 4 7 4l2 2c0 5.521 1 11.898 1 18Z"/><path fill="#99D2BD" id="OLF" d="m327 276-1 1 1-1Z"/><path fill="#59D9AA" id="PAA" d="M355 300v1c4.451 0 23-3.049 23-8-1.206 0-11-15.672-11-17h-3c-2.367 0-4.032 4-7 4l-2 3v17Z"/><path fill="#E64438" id="HY" d="m219 277-2 1 2-1Z"/><path fill="#99D2BD" id="OLF" d="m326 277-1 2 1-2Z"/><path fill="#E64438" id="HY" d="m217 278-1 1 1-1Z"/><path fill="#99D2BD" id="OLF" d="m131 279 2 2-2-2Z"/><path fill="#E64438" id="HY" d="m216 279-1 1 1-1Z"/><path fill="#99D2BD" id="OLF" d="m325 279-1 2 1-2ZM357 280l-2 3-2-4 4 1ZM102 280l-1 2-2-2h3Z"/><path fill="#E64438" id="HY" d="m215 280-1 1 1-1ZM214 281c-1.238 0-3 .423-3 2 1.238 0 3-.423 3-2Z"/><path fill="#99D2BD" id="OLF" d="m324 281-1 1 1-1ZM136 285l-2 2-1-5 3 3Z"/><path fill="#E64438" id="HY" d="m204 283 1 1-1-1ZM206 284l2 2 3-3-5 1ZM252 283l-1 1 1-1Z"/><path fill="#99D2BD" id="OLF" d="m323 283-1 1 1-1ZM321 285l2 2-1-3-1 1ZM133 287l-1 1 1-1Z"/><path fill="#E64438" id="HY" d="M207 290h1l-1-1v1Z"/><path fill="#F1473A" id="ME" d="m241 291-2.5 2-4 4c-4.583 2.291-12.002.998-15.5-2.5l-3-2.5v-1c0-4.514 5.699 0 7 0h10l6.5-2 1.5 2Z"/><path fill="#E64438" id="HY" d="M223 291h2l-1-2-1 2ZM248 290h1v-1l-1 1ZM232 291h1l-1-1v1Z"/><path fill="#99D2BD" id="OLF" d="m126 291-1 1v-1h1Z"/><path fill="#E64438" id="HY" d="M216 291v1l-1-1h1Z"/><path fill="#99D2BD" id="OLF" d="M332 291v1l-1-1h1ZM101 301h1v-1l-1 1ZM354 301h1v-1l-1 1Z"/></svg>