<svg xmlns="http://www.w3.org/2000/svg" viewBox="0 0 456 320"><path fill="#FCFB90" id="CUL4, 5" fill-rule="evenodd" d="M230 50c0 2.11 7.389 0 0 0m-8 0c0 2.11 7.389 0 0 0m74 78c0-2.241 1-5.641 1-8.5l-2-10.5.5-4c1.114 0 2.5 12.15 2.5 13.5 0 9.056 4.784 23.5 16 23.5 0-20.8-4.427-45.355-13-62.5-2.974-5.948-12-14.763-12-21.5-6.283 0-10.191-8.345-15.5-11-5.044-2.522-9.914-5.457-15-8-4.128-2.064-9.851-.925-14-3-4.001-2-11.21 1-15 1-18.657 0-26.582-.209-43 8-5.345 2.672-12.462 13-18.5 13 0 1.457-13.221 23.943-15 27.5-8.349 16.698-10 36.271-10 56.5 14.891 0 12.779-19.057 16-25.5.628-1.255-.533-9.5 1.5-9.5l.5 5c0 1.442-2.881 16 0 16l4-3.5 6-9c2.647-5.295 3.325-11.651 6-17 2.247-4.494 6.244-7.488 8-11 2.232-4.463 12.48-8.49 16.5-10.5 12.004-6.002 38.338-8.331 51-2 5.575 2.787 10.382 7.191 16 10 11.554 5.777 13.776 23.052 18.5 32.5 1.31 2.62 5.203 10.5 9 10.5Z"/><path fill="#FDFB8F" id="SIM" d="M122 133c2.609 0 2.999-11.499 4-13.5 6.022-12.044 5.998-26.997 12-39 1.482-2.965.072-12.5 5.5-12.5 1.568 0-2.227 5.954-2.5 6.5-2.198 4.397-.787 10.574-3 15l-3 13c-5.151 10.302-11.197 39.5 8 39.5 0-20.229 1.651-39.802 10-56.5 1.779-3.557 15-26.043 15-27.5l-3-5.5c-2.328-2.328-5.747-2.123-8.5-3.5-2.583-1.291-11.708 2.854-14 4-6.849 3.425-30.5 9.7-30.5 21 0 5.47 3 10.12 3 16 0 9.205-4.489 19.522 0 28.5 1.755 3.51 7 10.703 7 14.5ZM335 134c-3.226 0-2.955-10.411-4-12.5-5.896-11.793-6.109-26.218-12-38-1.767-3.534.221-15.5-6.5-15.5l3.5 8.5c2.07 4.14.877 9.754 3 14 1.55 3.099.437 7.875 2 11 5.153 10.307 12.284 40.5-7 40.5 0-20.8-4.427-45.355-13-62.5-2.974-5.948-12-14.763-12-21.5 0-7.392 11.701-10.9 17.5-8 13.476 6.738 29.285 8.069 36.5 22.5l2 2.5c-5.406 0-2 23.122-2 26 0 8.324-.548 17.596-4 24.5-1.731 3.461-4 4.176-4 8.5Z"/><path fill="#CBC9CC" id="arb" d="M222 50c0 2.11 7.389 0 0 0ZM230 50c0 2.11 7.389 0 0 0Z"/><path fill="#CBC9CC" id="arb" fill-rule="evenodd" d="M326 156c0 2.878-9.968 4.565-7 10.5l4 3-1 7c2.433 4.866 13.611 16.778 18 8 .897-1.794-.338-4.676-1-6-4.658-9.317 5.934-22.5-13-22.5m-202 0-5 5.5-2 17.5-1 4.5c3.648 7.295 13.878 2.244 17-4 2.257-4.514 0-4.958 0-9l4-4c3.938-7.876-8.162-10.5-13-10.5m-3 37-2 1v-4c0-1.265-6.292-1.604-7.5-1-7.99 3.995-13.644 11.822-22 16-2.264 1.132-9.265 2.031-10.5 4.5l-6 9c-1.272 2.544.326 6.347-1 9l-.5 7.5c-1.785 0-.938-7.377-1.5-8.5-2.582-5.165-.207-20.647 5.5-23.5 6.753-3.376 14.293-4.647 21-8l7-8c3.188-1.594 9.5-1.705 9.5-6 3.161 0 1.776-7.949 1-9.5-3.309-6.618-7.418-8.5-15-8.5-4.55 0-8.747 1-12 1l5-3c3.713 0 16.748-6.004 14-11.5-5.633-11.266-13.052-22.105-19-34-.48-.962 4.849-12.5 5.5-12.5l.5 3.5c-1.535 3.071-2 6.805-2 10.5 0 2.652 6.464 16.427 8 19.5 5.568 11.135 23 10.261 23-3.5 2.609 0 2.999-11.499 4-13.5 6.022-12.044 5.998-26.997 12-39 1.482-2.965.072-12.5 5.5-12.5 1.568 0-2.227 5.954-2.5 6.5-2.198 4.397-.787 10.574-3 15l-3 13c-5.151 10.302-11.197 39.5 8 39.5 14.891 0 12.779-19.057 16-25.5.628-1.255-.533-9.5 1.5-9.5l.5 5c0 1.442-2.881 16 0 16 0 5.234 7.838 4.831 11.5 3 4.682-2.341 5.282-10.141 9-12l8-8c6.867-3.434 29.862-15.57 37-12 3.997 1.999 11.203-1.398 16 1l28 14 13 17c3.149 1.574 12.5 2.191 12.5-3 0-2.241 1-5.641 1-8.5l-2-10.5.5-4c1.114 0 2.5 12.15 2.5 13.5 0 9.056 4.784 23.5 16 23.5 19.284 0 12.153-30.193 7-40.5-1.563-3.125-.45-7.901-2-11-2.123-4.246-.93-9.86-3-14l-3.5-8.5c6.721 0 4.733 11.966 6.5 15.5 5.891 11.782 6.104 26.207 12 38 1.045 2.089.774 12.5 4 12.5 0 4.562 8.022 13.739 13.5 11l8-8v3c-2.185 2.185-7.619 8.263-5.5 12.5 2.4 4.8 8.744 8.5 14 8.5l4 3c-3.048 0-6.76-1-11-1-5.882 0-11.91.319-15 6.5-.564 1.128-2.309 10.5 0 10.5 0 5.277 7.353 5.427 10.5 7 2.451 1.225 3.419 6.71 6 8 5.871 2.936 13.183 3.092 19 6 8.621 4.311 8.5 15.8 8.5 24 0 1.402-.999 10-2.5 10l-.5-8c0-4.459-1.128-9.755-3-13.5-2.912-5.823-9.981-6.241-14.5-8.5-9.823-4.912-16.57-16-28.5-16-1.579 0-1 2.855-1 4-2.349 0-1.382-3-4-3l-5-4-1-1h-1l-1-1h-2l-4-5-.5-4c-.945-.472-3.5-.156-3.5 1l-1-1v-5c3.258 0 3.949-9.398 5-11.5.439-.878-.369-3.5-1.5-3.5-2.225 0-5.076 3.462-8 2l-17-8c-2.266-1.133-8.5-.386-8.5 2-4.181 0-15-6.37-15 1-4.614 0-7.926 1.352-10 5.5l-1.5 3.5c3.128 1.564 6.98-4 10.5-4 0 3.981-6 2.817-6 6-3.186 0-7.085 1-10 1 0-2.395 8.833-10.833 2.5-14-5.491-2.745-32.206 0-39.5 0-2.886 0-12.134-3.233-14 .5-4.06 8.121 4 10.551 4 13.5-3.651 0-7.295-1-11-1 0-3.319-6-2.202-6-6 2.968 0 8.338 5.081 10.5 4 1.657-.828-1.075-3.651-1.5-4.5-1.6-3.2-6.089-4.5-10-4.5 0-7.606-10.66-1-15-1 0-7.394-22.046 4.773-24.5 6-2.346 1.173-10.5-4.084-10.5.5 0 .793 1.455 7.91 2 9l3 3.5c0 1.235-.643 5 1 5l-1 1c0-2.833-5 .113-5 3v1l-1 1-3 3c-3.971 0-6.693 6-10 6l-1 1-1 2m60-63c-2.186 0-.387-3.726 0-4.5l8.5-10.5c6.241-3.121 11.84-6.92 18-10 4.935-2.468 12.525 1.738 18-1l1-2c2.688-1.344 3.802 2 6.5 2 9.564 0 17.173.837 25.5 5l8 6c2.604 1.302 13.302 15 8.5 15 0 1.845-3.381 1.441-4.5 2-3.819 1.91-8.169 3.084-12 5-19.82 9.91-41.177 9.911-61 0-3.864-1.932-8.184-3.092-12-5-1.119-.559-4.5-.155-4.5-2Z"/><path fill="#FFFC8E" id="CENT3" d="M161 128c0 5.234 7.838 4.831 11.5 3 4.682-2.341 5.282-10.141 9-12l8-8c6.867-3.434 29.862-15.57 37-12 3.997 1.999 11.203-1.398 16 1l28 14 13 17c3.149 1.574 12.5 2.191 12.5-3-3.797 0-7.69-7.88-9-10.5-4.724-9.448-6.946-26.723-18.5-32.5-5.618-2.809-10.425-7.213-16-10-12.662-6.331-38.996-4.002-51 2-4.02 2.01-14.268 6.037-16.5 10.5-1.756 3.512-5.753 6.506-8 11-2.675 5.349-3.353 11.705-6 17l-6 9-4 3.5Z"/><path fill="#FCFC90" id="ANcr1" fill-rule="evenodd" d="M93 101c0 3.746 2.091 0 0 0m1-1c0 1.93 1.93 0 0 0m-15 56 13 5c3.713 0 16.748-6.004 14-11.5-5.633-11.266-13.052-22.105-19-34-.48-.962 4.849-12.5 5.5-12.5l.5 3.5c-1.535 3.071-2 6.805-2 10.5 0 2.652 6.464 16.427 8 19.5 5.568 11.135 23 10.261 23-3.5 0-3.797-5.245-10.99-7-14.5-4.489-8.978 0-19.295 0-28.5 0-5.88-3-10.53-3-16-17.48 0-39.611 25.723-47 40.5l-4 11c-4.682 9.365 9.586 30.5 18 30.5ZM358 134l-1 1.5c-1.966 3.932 5.565-1.5 1-1.5m3-35c0 5.341 7.295 12.91 4 19.5l-6 12 .5 3.5 3.5-8.5c6.006-12.012 8.079-6.843 2-19-.819-1.637-1.175-7.5-4-7.5m17 57c-1.811 0-13 3.557-13 5-5.256 0-11.6-3.7-14-8.5-2.119-4.237 3.315-10.315 5.5-12.5v-3l-8 8c-5.478 2.739-13.5-6.438-13.5-11 0-4.324 2.269-5.039 4-8.5 3.452-6.904 4-16.176 4-24.5 0-2.878-3.406-26 2-26h9.5c16.692 8.346 30.58 28.66 38.5 44.5 1.729 3.458 4.201 14.599 2 19-2.262 4.524-4.504 10.002-9.5 12.5-1.423.711-7.5 3.09-7.5 5Z"/><path fill="#CBC9CC" id="arb" d="M361 99c0 5.341 7.295 12.91 4 19.5l-6 12 .5 3.5 3.5-8.5c6.006-12.012 8.079-6.843 2-19-.819-1.637-1.175-7.5-4-7.5ZM94 100c0 1.93 1.93 0 0 0ZM93 101c0 3.746 2.091 0 0 0Z"/><path fill="#FFFC8E" id="CENT3" d="M181 130c11.856 0 21.768 2.134 31.5 7h31c9.525-4.762 19.923-7 31.5-7 4.802 0-5.896-13.698-8.5-15l-8-6c-8.327-4.163-15.936-5-25.5-5-2.698 0-3.812-3.344-6.5-2l-1 2c-5.475 2.738-13.065-1.468-18 1-6.16 3.08-11.759 6.879-18 10l-8.5 10.5c-.387.774-2.186 4.5 0 4.5Z"/><path fill="#FDFA91" id="CENT2" d="M181 130c11.856 0 21.768 2.134 31.5 7h31c9.525-4.762 19.923-7 31.5-7 0 1.845-3.381 1.441-4.5 2-3.819 1.91-8.169 3.084-12 5-19.82 9.91-41.177 9.911-61 0-3.864-1.932-8.184-3.092-12-5-1.119-.559-4.5-.155-4.5-2Z"/><path fill="#CBC9CC" id="arb" d="m358 134-1 1.5c-1.966 3.932 5.565-1.5 1-1.5Z"/><path fill="#F0F080" id="CB" fill-rule="evenodd" d="m181 157-2 1.5c0 4.657 9.85-1.5 2-1.5m8 15h1c0-5.036 4-6.521 4-9 0-3.319-6-2.202-6-6-7.408 0-9.074-5-1-5 0-7.606-10.66-1-15-1 0 3.145-3 4.833-3 7l8 3.5c0 1.53-5-.779-5 1.5 3.013 0 6.611 1 9 1 0-5.59 15.427-3.927 7 4.5l-4 .5v2h3l2 1Z"/><path fill="#FDFA91" id="CENT2" d="M250 164h2c0-2.395 8.833-10.833 2.5-14-5.491-2.745-32.206 0-39.5 0-2.886 0-12.134-3.233-14 .5-4.06 8.121 4 10.551 4 13.5h1c0-1.434 6.448-2 8-2h26.5c1.988 0 9.5-.253 9.5 2Z"/><path fill="#F0F080" id="CB" fill-rule="evenodd" d="M267 172h1l1-1h3l1-1v-2l-3.5 1-2.5-1.5c-6.739-6.739 9-8.393 9-4.5h9c0-2.279-5 .03-5-1.5 0-1.95 6.538-3.5 8-3.5 0-1.521-4-3.672-4-7-4.181 0-15-6.37-15 1 5.689 0 5 1.022 5 5h-6c0 3.981-6 2.817-6 6 2.561 0 5 6.853 5 9m7-15-2 2.5c0 .716 8.646 1.073 3.5-1.5l-1.5-1Z"/><path fill="#FFFDBC" id="IP" d="M152 167c-3.403 0-5.952 3-10 3l-3-3.5c-.545-1.09-2-8.207-2-9 0-4.584 8.154.673 10.5-.5 2.454-1.227 24.5-13.394 24.5-6 0 3.145-3 4.833-3 7l-4 1-1 1h-1l-1 1h-1l-1 1-2 1c-1.238 0-3 .423-3 2-1.238 0-3 .423-3 2ZM299 163c3.923 0 8.806 7 15 7 3.258 0 3.949-9.398 5-11.5.439-.878-.369-3.5-1.5-3.5-2.225 0-5.076 3.462-8 2l-17-8c-2.266-1.133-8.5-.386-8.5 2 0 3.328 4 5.479 4 7h1l1 1h1c1.238 0 3 .423 3 2h1c1.238 0 3 .423 3 2h1Z"/><path fill="#CBC9C8" id="uf" d="M187 152c3.911 0 8.4 1.3 10 4.5.425.849 3.157 3.672 1.5 4.5-2.162 1.081-7.532-4-10.5-4-7.408 0-9.074-5-1-5ZM268 157h6c0-3.978.689-5-5-5-4.614 0-7.926 1.352-10 5.5l-1.5 3.5c3.128 1.564 6.98-4 10.5-4Z"/><path fill="#FCFA91" id="ANcr2" d="m87 164-1 1c-6.097 0-7-3.642-7-9l13 5-5 3Z"/><path fill="#FFFDBB" id="DN" d="m124 156-5 5.5-2 17.5-1 4.5c3.648 7.295 13.878 2.244 17-4 2.257-4.514 0-4.958 0-9l4-4c3.938-7.876-8.162-10.5-13-10.5ZM326 156c0 2.878-9.968 4.565-7 10.5l4 3-1 7c2.433 4.866 13.611 16.778 18 8 .897-1.794-.338-4.676-1-6-4.658-9.317 5.934-22.5-13-22.5Z"/><path fill="#FCFA91" id="ANcr2" d="m369 164 1 1c5.932 0 8-3.454 8-9-1.811 0-13 3.557-13 5l4 3Z"/><path fill="#CBC9CB" id="scp" d="m181 157-2 1.5c0 4.657 9.85-1.5 2-1.5ZM274 157l-2 2.5c0 .716 8.646 1.073 3.5-1.5l-1.5-1ZM155 170h1l1-1h1l1-1 1-1h1l1-1h1l2-1 2-1h1l2-1h2c0-2.279 5 .03 5-1.5l-8-3.5-4 1-1 1h-1l-1 1h-1l-1 1-2 1c0 1.577-1.762 2-3 2 0 1.577-1.762 2-3 2 0 2.983-1.321 3 3 3ZM301 170h1c8.771 0-3-3.757-3-7h-1c-1.238 0-3-.423-3-2h-1l-3-2h-1l-1-1h-1c-1.462 0-8 1.55-8 3.5 0 1.53 5-.779 5 1.5h3l1 1 2 1h1c1.178 0 6 2.572 6 4h2l1 1Z"/><path fill="#F0F080" id="CB" d="m289 158 1 1-1-1ZM165 159l-1 1 1-1ZM291 159c1.238 0 3 .423 3 2l-3-2ZM163 160l-1 1 1-1ZM161 161l-1 1 1-1Z"/><path fill="#FEFDBC" id="VeCB" d="M181 164c1.803 0 3 3.592 3 5l4-.5c8.427-8.427-7-10.09-7-4.5ZM275 164c0 1.24-2 1.576-2 4l-3.5 1-2.5-1.5c-6.739-6.739 9-8.393 9-4.5l-1 1Z"/><path fill="#F0F080" id="CB" d="M295 161c1.238 0 3 .423 3 2-1.238 0-3-.423-3-2ZM160 162l-2 1 2-1Z"/><path fill="#FEFA91" id="LING" d="M206 164c0 8.367 28.883 5 34 5 2.108 0 10-2.78 10-5 0-2.253-7.512-2-9.5-2H214c-1.552 0-8 .566-8 2Z"/><path fill="#FFFB8E" id="PRM" d="M99 165c-3.981 0-8.05 2-11 2l-2-2 1-1c3.253 0 7.45-1 12-1v2Z"/><path fill="#FFF990" id="COPY" d="M99 165c0 1.729 14 12.007 14 16 3.161 0 1.776-7.949 1-9.5-3.309-6.618-7.418-8.5-15-8.5v2Z"/><path fill="#F0F080" id="CB" d="M158 163c-1.238 0-3 .423-3 2 1.238 0 3-.423 3-2Z"/><path fill="#FF9BCD" id="MY" d="m170 163-2 1 2-1Z"/><path fill="#FDB3D6" id="SUV" d="m153 184 1 2c5.623 0 10.978 1.761 16.5-1l5.5-5 1-1c0-2.945 4-5.478 4-7l2-1 1-2c0-1.408-1.197-5-3-5-2.389 0-5.987-1-9-1h-2l-2 1h-1l-2 1-2 1-1 1h-1l-1 1-1 1h-2l-1 1h-1l-2 1-3 3.5c-.978 1.956 1 4.077 1 5.5l2 4Z"/><path fill="#AAA9A7" id="V4" d="M227 204h2c0-3.231 8.467-14 12-14 0-6.624 19.729-18 26-18 0-2.147-2.439-9-5-9-3.186 0-7.085 1-10 1h-2c0 2.22-7.892 5-10 5-5.117 0-34 3.367-34-5h-1c-3.651 0-7.295-1-11-1 0 2.479-4 3.964-4 9 5.646 0 26 12.43 26 18 4.352 0 11 10.402 11 14Z"/><path fill="#F0F080" id="CB" d="m276 163-1 1 1-1Z"/><path fill="#FDB3D6" id="SUV" d="m304 185-1 1c-4.416 0-9.933 2.284-14.5 0-1.826-.913-7.611-7-8.5-7l-1-1c0-1.417-2.383-6-4-6l-2-2v-2c0-2.424 2-2.76 2-4l1-1h10l2 1h1l2 1h1c0 1.428 4.822 4 6 4h1l1 1h1l1 1h1l4 4.5-1 4.5c-1.638 0-2 3.576-2 5Z"/><path fill="#FF9BCD" id="MY" d="M288 163v1l-2-1h2Z"/><path fill="#F0F080" id="CB" d="M288 164h1l-1-1v1ZM303 171c4.082 0 6.651 4 11 4v-5c-6.194 0-11.077-7-15-7 0 3.243 11.771 7 3 7v1h1Z"/><path fill="#FFF990" id="COPY" d="M358 165c-3.722 0-9.883 9.267-11 11.5l-4 3.5c-2.309 0-.564-9.372 0-10.5 3.09-6.181 9.118-6.5 15-6.5v2Z"/><path fill="#FFFB8E" id="PRM" d="m370 165-1 2c-3.446 0-6.77-2-11-2v-2c4.24 0 7.952 1 11 1l1 1Z"/><path fill="#FF9BCD" id="MY" d="m167 164-2 1 2-1ZM289 164l2 1-2-1Z"/><path fill="#FFFC8D" id="PFL" d="M119 190c-3.299 0-6.623 8.747-8 11.5l-3 2c-4.346 8.692-12.685 11.371-17 20-1.524 3.049 6.15 16.5 7 16.5 0 16.938-18.185 30.657-33.5 23-19.122-9.561-26.428-67.786-6-78 3.904-1.952 11.64-8.68 17-6 2.38 1.19 6.292 3 9 3 6.218 0-4.334-15 3.5-15 2.95 0 7.019-2 11-2 0 1.729 14 12.007 14 16 0 4.295-6.312 4.406-9.5 6l-7 8c-6.707 3.353-14.247 4.624-21 8-5.707 2.853-8.082 18.335-5.5 23.5.562 1.123-.285 8.5 1.5 8.5l.5-7.5c1.326-2.653-.272-6.456 1-9l6-9c1.235-2.469 8.236-3.368 10.5-4.5 8.356-4.178 14.01-12.005 22-16 1.208-.604 7.5-.265 7.5 1Z"/><path fill="#F0F080" id="CB" d="M155 165c-1.238 0-3 .423-3 2 1.238 0 3-.423 3-2Z"/><path fill="#FF9BCD" id="MY" d="m165 165-2 1 2-1ZM292 165c1.178 0 6 2.572 6 4-1.178 0-6-2.572-6-4Z"/><path fill="#FFFC8D" id="PFL" d="M338 189c0 2.491 4.269 5.038 5 6.5 2.11 4.219 10.185 17.342 14.5 19.5 2.098 1.049 6.364 4.227 7.5 6.5 2.322 4.644-4.672 18.5-7 18.5 0 11.459 17.202 31.649 30.5 25 11.204-5.602 14.004-14.508 19.5-25.5l1-17.5c0-22.634-.56-32.53-21.5-43-4.964-2.482-11.518 3-16 3-3.518 0 .499-10.503-.5-12.5l-2-2.5c-3.446 0-6.77-2-11-2-3.722 0-9.883 9.267-11 11.5l-4 3.5c0 5.277 7.353 5.427 10.5 7 2.451 1.225 3.419 6.71 6 8 5.871 2.936 13.183 3.092 19 6 8.621 4.311 8.5 15.8 8.5 24 0 1.402-.999 10-2.5 10l-.5-8c0-4.459-1.128-9.755-3-13.5-2.912-5.823-9.981-6.241-14.5-8.5-9.823-4.912-16.57-16-28.5-16Z"/><path fill="#F0F080" id="CB" d="M161 167h1v-1l-1 1Z"/><path fill="#FF9BCD" id="MY" d="m163 166-1 1v-1h1Z"/><path fill="#F0F080" id="CB" d="M153 171c-3.657 0-5.884 4-10 4-1.643 0-1-3.765-1-5 4.048 0 6.597-3 10-3 0 2.983-1.321 3 3 3l-2 1ZM159 168h1v-1l-1 1Z"/><path fill="#FF9BCD" id="MY" d="m161 167-1 1v-1h1Z"/><path fill="#F0F080" id="CB" d="M158 169h1v-1l-1 1Z"/><path fill="#FF9BCD" id="MY" d="m160 168-1 1v-1h1ZM157 169l-1 1 1-1ZM183 171h1v-2l-1 2ZM300 169v1l-1-1h1Z"/><path fill="#F0F080" id="CB" d="M300 170h1l-1-1v1Z"/><path fill="#FF9BCD" id="MY" d="m272 171 3 1-2-2-1 1ZM302 170v1l-1-1h1ZM154 186c-2.567 0-3.913 2-5 2 0-4.628-2.547-11-8-11l1-1 1-1c4.116 0 6.343-4 10-4l-3 3.5c-.978 1.956 1 4.077 1 5.5-2.196 0-1.338 4 2 4l1 2ZM183 171l-2 1 2-1Z"/><path fill="#FFB0D7" id="MV" d="M174 213h3c0-1.579 2.855-1 4-1h13.5c4.033-2.016 6.608-4.804 11-7l2.5-3 8-12c0-5.57-20.354-18-26-18h-1l-2-1h-4l-2 1c0 1.522-4 4.055-4 7l-1 1 1 5 1 1c0 .847 6.094 5 1 5h-1c0 6.789-14 12.767-14 20 1.046 0 6.474 2 10 2Z"/><path fill="#FF9BCD" id="MY" d="m187 171 2 1-2-1ZM269 171l-1 1 1-1Z"/><path fill="#FFB0D7" id="MV" d="M280 213h2c2.108 0 10 .789 10-2 0-8.115-13-12.709-13-20h-1c-4.756 0-1.55-5 1-5l1-7-1-1c0-1.417-2.383-6-4-6l-3-1h-3l-1 1h-1c-6.271 0-26 11.376-26 18 0 4.784 8 8.458 8 13l4 3.5c2.679 2.679 5.415 3.957 8.5 5.5h14c1.19 0 4.5-.614 4.5 1Z"/><path fill="#FF9BCD" id="MY" d="M315 258c3.4 0 3-9.905 3-12.5 0-7.238-9-21.141-9-25 0-2.474-5.266-6.617-1.5-8.5 5.779-2.889 8.103 7.706 9.5 10.5 2.72 5.44 11.33 27.341 8 34-.848 1.697-7 13.8-7 14.5 7.217 0 16-15.853 16-22l-4.5 3c-2.646-1.323-6.5-28.678-6.5-33-3.614 0-5.636-7.772-7-10.5-3.446-6.892-14.698-25.901-3.5-31.5 5.713-2.856 8.253 9.006 9.5 11.5.574 1.147-1.064 4.5 1 4.5v-9l-4-5-4-3-1-1c-4.349 0-6.918-4-11-4l4 4.5-1 4.5c2.286 0-.482 5-2 5l-1 1c1.578 0 3.15-.2 4 1.5 1.949 3.898-.911 10.178 1 14l2 6c-2.899 5.798-13.299 3.5-18 3.5 0 2.789-7.892 2-10 2 0 1.431 4 3.1 4 6h3l1-2c-5.742 0-2.248-1 1-1 3.795 0 5.965-3.267 10.5-1 9.511 4.755 10.313 20.126 14.5 28.5 1.923 3.846-1 11.024-1 14.5Z"/><path fill="#F0F080" id="CB" d="M137 179h1l1-1 2-1 1-1c0-2.833-5 .113-5 3ZM315 176l4 3-.5-4c-.945-.472-3.5-.156-3.5 1Z"/><path fill="#FF9BCD" id="MY" d="m141 177-2 1 2-1Z"/><path fill="#C9C9C8" id="icp" d="M133 213v5c5.139 0 10.338-14.177 13-19.5.819-1.638.561-9.5 3-9.5v-1c0-4.628-2.547-11-8-11l-2 1-1 1-1 1v1l-3 9.5-1 22.5ZM323 214v5c-3.614 0-5.636-7.772-7-10.5-3.446-6.892-14.698-25.901-3.5-31.5 5.713-2.856 8.253 9.006 9.5 11.5.574 1.147-1.064 4.5 1 4.5v21Z"/><path fill="#FF9BCD" id="MY" d="m139 178-1 1 1-1ZM279 178l1 1-1-1ZM138 179l-1 1v-1h1Z"/><path fill="#FEB3D7" id="LAV" d="m177 179-1 1 1-1ZM279 191c0 7.291 13 11.885 13 20 4.701 0 15.101 2.298 18-3.5l-2-6c-1.911-3.822.949-10.102-1-14-.85-1.7-2.422-1.5-4-1.5-4.416 0-9.933 2.284-14.5 0-1.826-.913-7.611-7-8.5-7l-1 7v5Z"/><path fill="#F0F080" id="CB" d="M136 181h1v-1l-1 1Z"/><path fill="#FDB2D7" id="y" d="M151 180c-2.196 0-1.338 4 2 4l-2-4Z"/><path fill="#FEB3D7" id="LAV" d="M178 191c0 6.789-14 12.767-14 20-3.618 0-14.694 2.112-17-2.5l2-19.5v-1c1.087 0 2.433-2 5-2 5.623 0 10.978 1.761 16.5-1l5.5-5 1 5v1l1 4v1Z"/><path fill="#FDB2D7" id="y" d="M306 180c2.286 0-.482 5-2 5 0-1.424.362-5 2-5Z"/><path fill="#FF9BCD" id="MY" d="M132 210c0 1.048-.473 3 1 3l1-22.5 3-9.5h-1l-3 3c0 7.83-1 16.935-1 26Z"/><path fill="#FEA5D1" id="DCO" d="M115 224c1.643 0 1 3.765 1 5 8.73 0 7.079-19 16-19 0-9.065 1-18.17 1-26-3.971 0-6.693 6-10 6l-1 1-1 2c0 1.238-.423 3-2 3 0 7.565-4 14.277-4 24v4ZM325 211c8.681 0 6.915 18 16 18v-21.5c-1.891-3.782-2.162-8.324-4-12l-4-5.5-5-4-1-1h-1l-1-1h-2v11c1.139 0 2 14.056 2 16Z"/><path fill="#F0F080" id="CB" d="m325 184 1 1-1-1Z"/><path fill="#FF9BCD" id="MY" d="M177 186h1l-1-1v1Z"/><path fill="#F0F080" id="CB" d="m327 185 1 1-1-1Z"/><path fill="#CCCBC8" id="das" d="m178 190 1 1c5.094 0-1-4.153-1-5h-1l1 4ZM279 190l-1 1c-4.756 0-1.55-5 1-5v4Z"/><path fill="#FF9BCD" id="MY" d="M152 275c-3.45 0 2.322 6.411 3.5 7l9.5 5c-5.609 0-8.799-5.65-13.5-8-9.234-4.617-21.426-10.352-26.5-20.5l-2-8-2-3.5c2.425 0 2.944 6.778 6.5 5 2.289-1.144 5.5-29.469 5.5-34 5.139 0 10.338-14.177 13-19.5.819-1.638.561-9.5 3-9.5l-2 19.5c2.306 4.612 13.382 2.5 17 2.5 1.046 0 6.474 2 10 2 0 2.069-4 3.082-4 6h-3v-2c4.624 0-1-4.552-1 0-1.718 0-4.838-4.831-8.5-3-12.812 6.406-11.998 20.496-17.5 31.5l1 11.5c-3.296 0-2-10.155-2-12.5 0-9.21 6.109-18.217 10-26 1-2 1.955-8.727-2.5-6.5-9.765 4.883-18.629 40.241-13.5 50.5a25.771 25.771 0 0 0 11.5 11.5c1.379.689 6.5 2.122 6.5-1l1 2Z"/><path fill="#FEF991" id="FL" d="M351 230c0 2.327 4.492 10 7 10 2.328 0 9.322-13.856 7-18.5-1.136-2.273-5.402-5.451-7.5-6.5-4.315-2.158-12.39-15.281-14.5-19.5-.731-1.462-5-4.009-5-6.5-1.579 0-1 2.855-1 4l1 3 1 1c0 10.918 12 19.445 12 31v2ZM104 232c0 2.508-3.254 8-6 8-.85 0-8.524-13.451-7-16.5 4.315-8.629 12.654-11.308 17-20l3-2c1.377-2.753 4.701-11.5 8-11.5v6l-2 3.5-6 13.5c-2.109 0-2 2.535-2 4-2.311 0-3 9.252-3 11l-1 2v1l-1 1Z"/><path fill="#A9AAA7" id="V4r" d="m123 190-1 1 1-1Z"/><path fill="#FF9BCD" id="MY" d="M178 191h1l-1-1v1Z"/><path fill="#FFB3D7" id="PRP" d="M218 206h1c.822 0 8-1.311 8-2 0-3.598-6.648-14-11-14l-8 12c0 4.827 5.88 4 10 4ZM237 206h1c2.506 0 11 .465 11-3 0-4.542-8-8.216-8-13-3.533 0-12 10.769-12 14 .822 0 8 1.311 8 2Z"/><path fill="#FF9BCD" id="MY" d="M278 191h1v-1l-1 1Z"/><path fill="#A9AAA7" id="V4r" fill-rule="evenodd" d="M343 212c0 1.688-1 4.235-1 6.5v4.5c0 9.026 9.393 4.287 3-8.5l-2-2.5m7 16h1c0-11.555-12-20.082-12-31l-1-1-1-3c-2.349 0-1.382-3-4-3l4 5.5c1.838 3.676 2.109 8.218 4 12V229c3.013 0 6.611-1 9-1Z"/><path fill="#A9AAA7" id="V4r" d="m122 191-1 2 1-2ZM119 194v2c1.577 0 2-1.762 2-3l-2 1Z"/><path fill="#FF9BCD" id="MY" d="m325 211-2 3v-19c1.139 0 2 14.056 2 16Z"/><path fill="#A9AAA7" id="V4r" d="M111 213c7.048 0-.13 7 4 7 0-9.723 4-16.435 4-24l-2 3.5-6 13.5Z"/><path fill="#F0F080" id="CB" d="m338 196 1 1-1-1Z"/><path fill="#FF9BCD" id="MY" d="M203 221h4c0-2.435-4.964-10.268.5-13 1.374-.687 10.5-.756 10.5-2-4.12 0-10 .827-10-4l-2.5 3c-4.392 2.196-6.967 4.984-11 7H181c-1.145 0-4-.579-4 1 2.216 0 11-1.224 11 2 4.76 0 15-.963 15 6ZM249 221l5 1c0-8.074 7.732-7 14-7 0-2.983 9.707-2 12-2 0-1.614-3.31-1-4.5-1h-14c-3.085-1.543-5.821-2.821-8.5-5.5l-4-3.5c0 3.465-8.494 3-11 3 0 2.35 7.934.217 9.5 1 7.198 3.599 1.5 10.366 1.5 14ZM227 223c.839 0 2 1.93 2 0v-13.5c.93-1.861 4-4.387 4-.5l4-3c0-.689-7.178-2-8-2h-2c0 .689-7.178 2-8 2l4 3.5c1.842 3.683 0 8.032 0 11.5h3c0-1.025-.393-8.286-1-9.5l-2-4h4V223Z"/><path fill="#FCB3D8" id="PGRNd" d="M207 221h16c0-3.468 1.842-7.817 0-11.5l-4-3.5h-1c0 1.244-9.126 1.313-10.5 2-5.464 2.732-.5 10.565-.5 13ZM233 221h16c0-3.634 5.698-10.401-1.5-14-1.566-.783-9.5 1.35-9.5-1h-1l-4 3v12Z"/><path fill="#CBCBCC" id="mlf" d="M226 221c0 1.013 1 4.408 1 2v-15.5h-4l2 4c.607 1.214 1 8.475 1 9.5ZM231 221c0 1.747-.253 2-2 2v-13.5c.93-1.861 4-4.387 4-.5-1.858 0-2 9.917-2 12Z"/><path fill="#FF9BCD" id="MY" d="M231 221h2v-12c-1.858 0-2 9.917-2 12Z"/><path fill="#FEA4D2" id="VCO" d="M121 245v2c2.425 0 2.944 6.778 6.5 5 2.289-1.144 5.5-29.469 5.5-34v-5c-1.473 0-1-1.952-1-3-8.921 0-7.27 19-16 19v4l4 11 1 1ZM335 247l-1 2-4.5 3c-2.646-1.323-6.5-28.678-6.5-33v-5l2-3c8.681 0 6.915 18 16 18 0 6.29-5 10.353-5 16l-1 1v1Z"/><path fill="#A9AAA8" id="chpl" d="M115 220v4c0 3.477-4.082 5.336-6 1.5V217l2-4c7.048 0-.13 7 4 7Z"/><path fill="#C8CACA" id="sptV" d="M151 269v4c0 3.122-5.121 1.689-6.5 1a25.771 25.771 0 0 1-11.5-11.5c-5.129-10.259 3.735-45.617 13.5-50.5 4.455-2.227 3.5 4.5 2.5 6.5-3.891 7.783-10 16.79-10 26 0 2.345-1.296 12.5 2 12.5v2l2 2v1l8 7ZM305 272l2.5 3 7.5-2c0-1.577 1.762-2 3-2 0-.7 6.152-12.803 7-14.5 3.33-6.659-5.28-28.56-8-34-1.397-2.794-3.721-13.389-9.5-10.5-3.766 1.883 1.5 6.026 1.5 8.5 0 3.859 9 17.762 9 25 0 2.595.4 12.5-3 12.5v1l-1 1v1l-1 1-1 1c0 1.107-6.188 7-7 7v2Z"/><path fill="#A9AAA8" id="chpl" d="M343 212c0 1.688-1 4.235-1 6.5v4.5c0 9.026 9.393 4.287 3-8.5l-2-2.5Z"/><path fill="#A9AAA7" id="V4r" d="M111 213c-2.109 0-2 2.535-2 4l2-4Z"/><path fill="#FCB3D9" id="PARN" d="M154 265h2l3.5-4 5.5-3 8-8.5c3.956-7.913 15-26.066 15-34.5 0-3.224-8.784-2-11-2h-3c0 2.069-4 3.082-4 6l-1 3c0 8.073-8.983 10.465-12 16.5-1.368 2.737-4 21.18-4 24.5l1 2ZM300 265h2l2-2c0-.362-4.694-24.887-5-25.5-2.849-5.698-11-6.716-11-14.5l-1-1-1-3c0-2.9-4-4.569-4-6h-2c-2.293 0-12-.983-12 2 1.149 0 1.508 4.516 2 5.5l6 14 7 14c1.66 3.321 8 5.595 8 9.5 3.534 0 7.066 7 9 7Z"/><path fill="#FFA4D0" id="SPVO" d="m143 262 4.5 2 5.5-1c0-3.32 2.632-21.763 4-24.5 3.017-6.035 12-8.427 12-16.5-2.293 0-2-.997-2-3v-2h-1c-1.718 0-4.838-4.831-8.5-3-12.812 6.406-11.998 20.496-17.5 31.5l1 11.5v2l2 2v1ZM304 263h8l1-1 1-1v-1l1-1v-1c0-3.476 2.923-10.654 1-14.5-4.187-8.374-4.989-23.745-14.5-28.5-4.535-2.267-6.705 1-10.5 1l-1 1-1 2c0 1.658 2.382 3-1 3v1c0 7.784 8.151 8.802 11 14.5.306.613 5 25.138 5 25.5Z"/><path fill="#FDA5D1" id="NTS" d="M166 217h1c4.624 0-1-4.552-1 0Z"/><path fill="#FFB2D8" id="IRN" d="M191 267h1c0-5.945 4.378-20.255 7-25.5 2.238-4.477-.21-11.579 2-16l2-4.5c0-6.963-10.24-6-15-6 0 8.434-11.044 26.587-15 34.5l-8 8.5c4.38 0 13.599.05 17.5 2 2.991 1.496 5.742 7 8.5 7ZM265 267h1l6.5-6c4.765-2.383 12.95-3 18.5-3 0-3.905-6.34-6.179-8-9.5l-7-14-6-14c-.492-.984-.851-5.5-2-5.5-6.268 0-14-1.074-14 7 0 5.405 4.756 29.012 7 33.5 1.62 3.24 4 7.708 4 11.5Z"/><path fill="#FDA5D1" id="NTS" d="M291 216c-3.248 0-6.742 1-1 1l1-1Z"/><path fill="#A9AAA7" id="V4r" d="M115 229h1c0-1.235.643-5-1-5 0 3.477-4.082 5.336-6 1.5V217c-2.311 0-3 9.252-3 11l1 1h8Z"/><path fill="#FFB2D9" id="ISN" d="m170 219-1 3c-2.293 0-2-.997-2-3h3ZM287 222h1c3.382 0 1-1.342 1-3h-3l1 3Z"/><path fill="#FEB0D8" id="GRN" fill-rule="evenodd" d="M229 230v14c0 2.103 2.627 10.245 5 5.5 2.433-4.867.428-19.5-5-19.5m-4 0c0 1.835-2 4.235-2 7v9.5c0 14.855 8.988-16.5 2-16.5m38 40h1l1-1v-2c0-3.792-2.38-8.26-4-11.5-2.244-4.488-7-28.095-7-33.5l-5-1h-18c0 1.747-.253 2-2 2 0 1.93-1.161 0-2 0 0 2.408-1-.987-1-2h-23l-2 4.5c-2.21 4.421.238 11.523-2 16-2.622 5.245-7 19.555-7 25.5v3h1c0-2.941 10-2.486 10 3 3.32 0 6.836-8.168 10.5-10 1.553-.776 11.5-4.172 11.5 0h1c0-17.749 5-11.927 5 0l2.5-2c2.861-1.43 8.817 1.908 11 3l8.5 9c0-5.034 10-6.274 10-3Z"/><path fill="#FF9BCD" id="MY" d="M288 222v1l-1-1h1Z"/><path fill="#F0F080" id="CB" d="m107 229-2 1 1-2 1 1ZM351 228v2l-1-2h1Z"/><path fill="#FF9BCD" id="MY" d="M116 229v4c-1.579 0-1-2.855-1-4h1Z"/><path fill="#C8C8CC" id="tspc" d="M225 230c0 1.835-2 4.235-2 7v9.5c0 14.855 8.988-16.5 2-16.5ZM229 230v14c0 2.103 2.627 10.245 5 5.5 2.433-4.867.428-19.5-5-19.5Z"/><path fill="#F0F080" id="CB" d="m105 231-1 1 1-1Z"/><path fill="#FF9BCD" id="MY" d="m120 244 1 1-1-1ZM336 245l-1 1 1-1ZM335 247l-1 2 1-2Z"/><path fill="#FFC5E2" id="RM" d="M226 283h4c0-1.991-.793-14 1-14v-6c0-11.927-5-17.749-5 0l-1 1v4c1.735 0 1 6.51 1 8v7Z"/><path fill="#FFB3D6" id="VII" d="M191 283c0 7.748-17.474 2-22 2l-11.5-6c-3.892-1.946-2.5-8.372-2.5-12l1-1v-1l3.5-4 5.5-3c4.38 0 13.599.05 17.5 2 2.991 1.496 5.742 7 8.5 7l1 2v1l1 2-2 11ZM266 283c0 8.037 16.043 2 21 2 0-1.496 15-3.187 15-14l-1-2-1-4c-1.934 0-5.466-7-9-7-5.55 0-13.735.617-18.5 3l-6.5 6-1 1v1l-1 1v1c0 4.503 2 8.044 2 12Z"/><path fill="#FF9BCD" id="MY" d="m141 259 2 2-2-2ZM315 259l-1 1 1-1Z"/><path fill="#FDB2D9" id="MARN" d="M201 280c0 2.003-.293 3 2 3 9.101 0 14.242-6 18-6l1-1 1-1c0-1.835 2-4.235 2-7v-5c0-4.172-9.947-.776-11.5 0-3.664 1.832-7.18 10-10.5 10l-1 3-1 1v3ZM255 280c0 2.003.293 3-2 3-7.527 0-22-5.269-22-14v-6l2.5-2c2.861-1.43 8.817 1.908 11 3l8.5 9v1l2 2v4Z"/><path fill="#FF9BCD" id="MY" d="m314 261-1 1 1-1ZM154 265l-3 4-8-7 4.5 2 5.5-1 1 2ZM313 262l-1 1 1-1ZM226 263l-1 1v-1h1ZM302 265c2.393 0 3 3.234 3 5 .812 0 7-5.893 7-7h-8l-2 2Z"/><path fill="#C8C8CB" id="rust" d="M168 285h1l-11.5-6c-3.892-1.946-2.5-8.372-2.5-12l1-1v-1h-2l-3 4v4l1 2 3.5 5c3.885 1.943 7.821 5 12.5 5ZM287 285h1c3.68 0 5.511-2 9-2l8-8v-5c0-1.766-.607-5-3-5h-2l1 4 1 2c0 10.813-15 12.504-15 14Z"/><path fill="#FF9BCD" id="MY" d="m156 266-1 1 1-1ZM192 267v2l-1-2h1ZM266 267l-1 1v-1h1Z"/><path fill="#FCB2D9" id="PGRNl" d="M191 283h1c3.313 0 4.49-4 7-4l2-1v-1l1-1 1-3c0-5.486-10-5.941-10-3v2l-2 11Z"/><path fill="#FF9BCD" id="MY" d="m223 275 3 1c0-1.49.735-8-1-8 0 2.765-2 5.165-2 7Z"/><path fill="#FCB2D9" id="PGRNl" d="M264 283h2c0-3.956-2-7.497-2-12l-1-1c0-3.274-10-2.034-10 3v1l2 2v1l2 2c2.46 0 4.17 4 7 4Z"/><path fill="#FF9BCD" id="MY" fill-rule="evenodd" d="M231 275v4c0 10.68 10.556-4 0-4m52 14c0 1.381-6.327 1.413-7.5 2-7.606 3.803-18.459 5-27.5 5 0-1.575 4.801-.898 3-4.5-3.696-7.391-14.135-4.5-20-4.5l-1-4c0-1.991-.793-14 1-14 0 8.731 14.473 14 22 14 0 5.01 9.763 10.975 13 4.5l-2-4.5h2c0 8.037 16.043 2 21 2h1c0 1.343-12.87 4-5 4Z"/><path fill="#FF9BCD" id="MY" d="m265 269-1 1 1-1ZM301 269l1 2-1-2ZM193 270v2l-1-2h1ZM264 270v1l-1-1h1ZM318 271c-1.238 0-3 .423-3 2 1.238 0 3-.423 3-2ZM305 275v4c1.48 0 10-4.971 10-6l-7.5 2-2.5-3v3ZM253 274l2 2-2-2Z"/><path fill="#CBC7CC" id="sctv" d="M171 289h2c7.927 0-5-3.016-5-4-4.679 0-8.615-3.057-12.5-5l-3.5-5c-3.45 0 2.322 6.411 3.5 7l9.5 5h2l4 2Z"/><path fill="#FF9BCD" id="MY" d="m223 275-1 1 1-1Z"/><path fill="#CACCC8" id="ml" d="M221 277c0 6.108-.631 5 5 5v-6l-3-1-1 1-1 1ZM231 275v4c0 10.68 10.556-4 0-4Z"/><path fill="#CBC7CC" id="sctv" d="M299 283h1l1-1 1-1h1c0-1.747.253-2 2-2v-4l-8 8h2Z"/><path fill="#FF9BCD" id="MY" d="m202 276-1 1 1-1ZM222 276l-1 1 1-1ZM220 296c3.719 0 6.003-5 8.5-5l5 5 7.5 1c0-1.951-2.454-.477-3.5-1-2.505-1.252-6.5-4.992-6.5-8-5.631 0-5 1.108-5-5v-1c-5.631 0-5 1.108-5-5-3.758 0-8.899 6-18 6 0 7.199-10.255 8.989-12 5.5l1-5.5h-1c0 7.748-17.474 2-22 2h-1c0 .984 12.927 4 5 4 0 1.219 9.122 2.311 10.5 3 7.7 3.85 21.529 5 30.5 5 0-2.008-11.515-.469-9-5.5 1.392-2.784 17.181-9.638 20-4 1.759 3.518-5 6.774-5 8.5ZM257 279l-2 1v-3l2 2Z"/><path fill="#FF9BCD" id="MY" d="m199 279 2 1v-2l-2 1Z"/><path fill="#FCB2D8" id="PPY" d="m192 283-1 5.5c1.745 3.489 12 1.699 12-5.5-2.293 0-2-.997-2-3l-2-1c-2.51 0-3.687 4-7 4ZM253 283c0 5.01 9.763 10.975 13 4.5l-2-4.5c-2.83 0-4.54-4-7-4l-2 1c0 2.003.293 3-2 3Z"/><path fill="#FF9BCD" id="MY" d="M305 279c-1.747 0-2 .253-2 2l2-2ZM302 281l-1 1 1-1ZM301 282l-1 1 1-1Z"/><path fill="#FFC6E2" id="RPA" d="M231 287v1c-5.631 0-5 1.108-5-5h4l1 4Z"/><path fill="#CBC7CC" id="sctv" d="M283 289h2l2-1h1l2-1h1l2-1 2-1h1l1-1v-1c-3.489 0-5.32 2-9 2 0 1.343-12.87 4-5 4Z"/><path fill="#FF9BCD" id="MY" d="m299 283-2 1v-1h2ZM297 284l-1 1 1-1ZM295 285l-2 1 2-1Z"/><path fill="#C7C9C9" id="py" d="M214 297h1c0-1.643 3.765-1 5-1 0-1.726 6.759-4.982 5-8.5-2.819-5.638-18.608 1.216-20 4-2.515 5.031 9 3.492 9 5.5ZM241 297h2c0-1.643 3.765-1 5-1 0-1.575 4.801-.898 3-4.5-3.696-7.391-14.135-4.5-20-4.5v1c0 3.008 3.995 6.748 6.5 8 1.046.523 3.5-.951 3.5 1Z"/><path fill="#FF9BCD" id="MY" d="m293 286-2 1 2-1ZM167 287l4 2-4-2ZM290 287l-2 1 2-1ZM287 288l-2 1 2-1ZM220 296c-1.235 0-5-.643-5 1 1.235 0 5 .643 5-1ZM248 296c-1.235 0-5-.643-5 1 1.235 0 5 .643 5-1Z"/></svg>