<svg xmlns="http://www.w3.org/2000/svg" viewBox="0 0 456 320"><path fill="#FE79FE" id="ICe" d="M197 97c0 1.041.986 5 2 5 0 2.795-7.617 6.059-9.5 7-8.987 4.493-23.487 11.526-30.5-2.5-3.071-6.141-10.18-23.64-6-32l8-15.5 2-2 1-2 1-1 1-1 2-1 1-1c2.662 0 9.878-4.689 12.5-6l20.5-1v1c0 4.705-11 5.95-11 12-13.433 0-35.034 37.233-17.5 46 12.645 6.323 19.087-6 23.5-6Z"/><path fill="#FF64FF" id="MB" d="M202 45h1l-1-1v1ZM253 45h1v-1l-1 1Z"/><path fill="#FE79FE" id="ICe" d="m259 96-1 7 4.5 4c5.658 2.829 11.471 5.236 17 8 12.75 6.375 21.258-17.016 24.5-23.5 3.897-7.794-4.115-24.23-7-30l-6-7.5-7.5-5c-9.323-4.661-18.136-5-29.5-5v1c.711 0 11 10.28 11 12 13.016 0 34.677 37.412 19.5 45-7.579 3.789-12.583 2.709-20-1l-5.5-5Z"/><path fill="#FE79FF" id="ICd" d="M197 97c0 1.041.986 5 2 5 2.477 0 2.522-2.01 4.5-3 14.299-7.15 14.413-22.325 20.5-34.5 1.692-3.385-3-9.744-3-13.5-2.864 0-5.35-4-9-4l-1-1h-1l-2-1h-6c0 4.705-11 5.95-11 12 2.658 0 1.187.873 2 2.5 7.357 14.715 4 21.148 4 37.5Z"/><path fill="#FF64FF" id="MB" d="m208 45 2 1-2-1ZM248 45l-1 1 1-1Z"/><path fill="#FE79FF" id="ICd" d="m259 96-1 7-9.5-7c-10.29-5.145-11.026-20.552-15.5-29.5-2.163-4.327 2-10.316 2-14.5l1-1 1-1 1-1h1l1-1h1l1-1h2l1-1h2l1-1h6c.711 0 11 10.28 11 12-2.441 0-4.173 6.845-5 8.5-4.064 8.129-1 20.76-1 30.5Z"/><path fill="#FF64FF" id="MB" d="m211 46 1 1-1-1ZM245 46l-1 1 1-1ZM242 47l-1 1 1-1ZM240 48l-1 1 1-1ZM238 49l-1 1 1-1ZM237 50l-1 1 1-1ZM169 51l-1 1 1-1ZM269 125h1c3.924 0 .331-4.415 3.5-6 4.815-2.407 13.066 6 16 6 2.491 0 .961-4.423 1.5-5.5l12-13.5 1-1v-1l1-1c0-3.746.8 0 2 0V81c-2.488 0-2-6.1-2-8 0-1.973-11.696-19-14-19l6 7.5c2.885 5.77 10.897 22.206 7 30-3.242 6.484-11.75 29.875-24.5 23.5-5.529-2.764-11.342-5.171-17-8l-4.5-4-9.5-7c-10.29-5.145-11.026-20.552-15.5-29.5-2.163-4.327 2-10.316 2-14.5-2.081 0-5.221 5.941-6 7.5l-.5 4.5-.5-4.5-7-8.5c0 3.756 4.692 10.115 3 13.5-6.087 12.175-6.201 27.35-20.5 34.5-1.978.99-2.023 3-4.5 3 0 2.795-7.617 6.059-9.5 7-8.987 4.493-23.487 11.526-30.5-2.5-3.071-6.141-10.18-23.64-6-32l8-15.5-3.5 4c-1.867 1.867-9.5 12.497-9.5 14l1 1v1c2.279 0-.03-5 1.5-5 .796 0 1.341 7-1.5 7v15c1.186 0 1.186 1 0 1v4l1 2c0-3.436 2-.557 2 1l1 1v1l12 12.5c.51 1.019-.436 6.5 1.5 6.5 3.196 0 11.17-8.415 16-6 3.84 1.92-.983 6 4.5 6l1-1 1-1c4.139 0 16.293-15 23-15l1-1v-2c-3.315 0-1.853-6 0-6v-1l1-1 1-1 1-1 1-1 1-1 1-1 1-1 1-1 1-1h2l1 1 1 1c2.293 0 2 .997 2 3 0 2.029 1 .058 1-1l1-2 4-2 2 2 1 1 3 3h1l1 1 1 2c1.841 0 3.202 7 1 7v2l1 1 9.5 5 11.5 9 3 3ZM236 51l-1 1 1-1ZM166 53l-1 1 1-1ZM164 55l-1 2 1-2ZM163 57c-1.747 0-2 .253-2 2l2-2Z"/><path fill="#FE7AFE" id="ICc" d="M191 57c2.658 0 1.187.873 2 2.5 7.357 14.715 4 21.148 4 37.5-4.413 0-10.855 12.323-23.5 6-17.534-8.767 4.067-46 17.5-46ZM265 57c13.016 0 34.677 37.412 19.5 45-7.579 3.789-12.583 2.709-20-1l-5.5-5c0-9.74-3.064-22.371 1-30.5.827-1.655 2.559-8.5 5-8.5Z"/><path fill="#FDFB8F" id="SIM" d="M120 162c-2.507 0-3.808-1.116-5-3.5-.759-1.518 4.841-31.682 6-34 .657-1.313 4.796-9.352 2.5-10.5-4.201-2.1-4.75 10.999-5.5 12.5-3.96 7.919-1.164 39.5-14 39.5 0-3.724-3.481-4.463-5-7.5l-4-12c-4.138-8.276-1-24.404-1-33.5 2.285 0 2.165-8.831 3-10.5 3.59-7.18 7.04-17.27 15.5-21.5 7.396-3.698 17.414-12 26-12 1.752 0 6.564 2.628 7.5 4.5l2 3.5 1 1v23c-1.579 0-1 2.855-1 4 0 5.33-6.749 8.999-9 13.5l-8 17c-2.477 4.954-1.499 11.999-4 17l-7 9.5ZM337 162c3.455 0 5.542-5.416 4-8.5-.514-1.028-6-28.507-6-29.5 0-1.548-4.697-8.902-2.5-10 4.434-2.217 5.5 10.242 5.5 12.5 0 3.38 1.512 9.024 3 12 3.6 7.199-1.333 27.5 12 27.5 0-3.035 6.324-14.148 8-17.5 4.446-8.892 1-25.759 1-35.5-1.381 0-1.413-6.327-2-7.5-3.186-6.372-4.266-16.883-11.5-20.5-6.441-3.22-24.585-19.707-34-15l-5.5 6-1 2-1 1v8c1.587 0 1.587 6 0 6v5c1.714 0 1 5.594 1 7 0 5.597 8.55 11.6 11 16.5 4.824 9.648 5.645 21.29 10 30 1.393 2.787 8 8.937 8 10.5Z"/><path fill="#C9C8C8" id="bic" d="M307 79v2c-2.488 0-2-6.1-2-8h1l1 5v1Z"/><path fill="#FF64FF" id="MB" d="M307 78h1l1-2-3-3 1 5Z"/><path fill="#C9C8C8" id="bic" d="M149 79c2.279 0-.03-5 1.5-5 .796 0 1.341 7-1.5 7v-2Z"/><path fill="#F0F080" id="CB" d="m148 77 1 1-1-1ZM308 78l-1 1v-1h1ZM307 87c1.587 0 1.587 6 0 6v-6ZM222 89l-1 1 1-1Z"/><path fill="#FFFC8E" id="CENT3" d="M241 106h1l1-1h1l-1-7-1-2-1-1h-1l-3-3-1-1-2-2-4 2-1 2c0 1.058-1 3.029-1 1-1.577 0-2-1.762-2-3l-1-1-1-1h-2l-1 1-1 1-1 1-1 1-1 1-1 1-1 1-1 1-1 1v7h1l1 1c4.666 0 12.674-4.413 17.5-2 2.031 1.016 6.247 2 8.5 2Z"/><path fill="#F0F080" id="CB" d="m224 89 1 1-1-1ZM234 89l2 2-2-2ZM220 91l-1 1 1-1Z"/><path fill="#A9A9A8" id="AQ" d="M226 91c2.293 0 2 .997 2 3-1.577 0-2-1.762-2-3ZM230 91l-1 2 1-2Z"/><path fill="#F0F080" id="CB" d="m219 92-1 1 1-1ZM237 92l3 3-3-3ZM218 93l-1 1 1-1ZM217 94l-1 1 1-1ZM216 95l-1 1 1-1ZM241 95l1 1-1-1ZM149 96c1.186 0 1.186 1 0 1v-1ZM215 96l-1 1 1-1ZM214 97l-1 1 1-1ZM243 98c1.841 0 3.202 7 1 7l-1-7ZM307 103l1 2c0-1.406.714-7-1-7v5ZM213 99c-1.853 0-3.315 6 0 6v-6ZM150 103c0 1.747-.253 2-2 2 0-1.145-.579-4 1-4l1 2Z"/><path fill="#FCFB90" id="CUL4, 5" d="M142 157c0-1.691 6.824-16.838 4.5-18-.625-.312-4.771 10.043-5.5 11.5-4.112 8.224-12.421 11.5-21 11.5l7-9.5c2.501-5.001 1.523-12.046 4-17l8-17c2.251-4.501 9-8.17 9-13.5 1.747 0 2-.253 2-2 0-3.436 2-.557 2 1l1 1v1c0 6.749 6.685 7.87 9 12.5 2.244 4.488 0 8.991 0 13.5 0 1.63-18.074 25-20 25ZM315 158c0-4.578-5-9.481-5-15l.5-5 .5 3.5 4 9c4.219 8.438 13.172 11.5 22 11.5 0-1.563-6.607-7.713-8-10.5-4.355-8.71-5.176-20.352-10-30-2.45-4.9-11-10.903-11-16.5l-1-2c-1.2 0-2-3.746-2 0l-1 1v1l-1 1c0 7.211-7.177 10.854-10 16.5-1.722 3.444 2 7.47 2 10.5 0 2.086 18.186 25 20 25Z"/><path fill="#F0F080" id="CB" d="m305 103-1 1 1-1ZM152 104l1 1-1-1Z"/><path fill="#FDFA91" id="CENT2" d="M259 151h2l2-2 1-1h1l1-1h1l1-1h1c0-1.579 2.855-1 4-1l4-6.5-1-9.5c-1.417 0-6-2.383-6-4h-1l-3-3-11.5-9-9.5-5-2-1h-1l-1-1c-2.253 0-6.469-.984-8.5-2-4.826-2.413-12.834 2-17.5 2l-1 1h-1l-1 1c-6.707 0-18.861 15-23 15l-1 1-1 1c0 1.948-5.428 4-7 4v10.5c.936 1.873 3 3.23 3 5.5h4l1 1h1l1 1 4 2 2 2h1c4.549 0 19.236 4.868 23.5 7 4.945 2.473 14.687-1 19.5-1l3.5-2c1.218-.609 14.439-4 15.5-4Z"/><path fill="#A9A9A8" id="AQ" d="M213 107h1v-2h-1v2Z"/><path fill="#F0F080" id="CB" d="m215 106-1 1v-2l1 1Z"/><path fill="#A9A9A8" id="AQ" d="M243 107h1v-1l-1-1-1 1v1h1Z"/><path fill="#F0F080" id="CB" d="M244 105v1l-1-1h1ZM304 105l-1 1 1-1ZM180 129c-4.239 0-.325-8.588-3.5-7l-2 3-7 1-5.5 6c0-4.509 2.244-9.012 0-13.5-2.315-4.63-9-5.751-9-12.5l12 12.5c.51 1.019-.436 6.5 1.5 6.5 3.196 0 11.17-8.415 16-6 3.84 1.92-.983 6 4.5 6 0 1.948-5.428 4-7 4ZM242 106v1l-1-1h1ZM276 129l3 .5.5-7.5 2 3c2.576 1.288 6.301.65 9 2l4.5 6c0-3.03-3.722-7.056-2-10.5 2.823-5.646 10-9.289 10-16.5l-12 13.5c-.539 1.077.991 5.5-1.5 5.5-2.934 0-11.185-8.407-16-6-3.169 1.585.424 6-3.5 6 0 1.617 4.583 4 6 4ZM213 107l-1 1 1-1ZM244 107l1 1-2-1h1Z"/><path fill="#FCFC90" id="ANcr1" d="M103 166h1c0-3.724-3.481-4.463-5-7.5l-4-12c-4.138-8.276-1-24.404-1-33.5-16.143 0-20.806 29.888-15 41.5 2.35 4.699 14 5.256 14 10.5l10 1ZM363 165l-10 1c0-3.035 6.324-14.148 8-17.5 4.446-8.892 1-25.759 1-35.5 11.814 0 15.115 15.731 19 23.5 2.531 5.062-2.115 14.229-4 18-2.033 4.066-14 5.879-14 10.5Z"/><path fill="#CBC9CC" id="arb" fill-rule="evenodd" d="M124 197c-1.481 0-.785 2-3 2 0-3.864 2-8.209 2-13 0-3.614-9.395-5-12-5-13.947 0-20.18 5.34-31.5 11l-12 10-5.5 5.5c-1.681-3.363 6.376-9.376 8.5-11.5 6.266-6.267 14.393-13.197 22-17 3.642-1.821 12.326-1.153 14.5-5.5 1.794-3.587-4-5.705-4-7.5h1c12.836 0 10.04-31.581 14-39.5.75-1.501 1.299-14.6 5.5-12.5 2.296 1.148-1.843 9.187-2.5 10.5-1.159 2.318-6.759 32.482-6 34 1.192 2.384 2.493 3.5 5 3.5 8.579 0 16.888-3.276 21-11.5.729-1.457 4.875-11.812 5.5-11.5 2.324 1.162-4.5 16.309-4.5 18l-1 4.5c8.116 16.233 16.867-5.5 25-5.5l1 1-1 1-1 1-1 1-1 1-2 1-1 1-1 2h-1l-1 1c-1.747 0-2 .253-2 2l-1 1-1 1-1 1-1 1v1l-1 1-1 1-1 3-1 1-3 6-1 1-3 3v-3l-1-1c-3.389 0-2.164 7-5 7-2.361 0-5-2.342-5 1v1h-1l-1 1-2 1-1 1m13-16c0 5.15-8 14.235-8 4 0-1.596-18.738-4.024-14-13.5 2.534-5.067 19.157-6.686 22-1 1.699 3.397 0 7.173 0 10.5ZM307 172c0 1.93 1.93 0 0 0m40 40 3 4c0-3.739 8.351 2.202 6-2.5-4.739-9.478-23-6.404-23-26.5l1-1c0-4.343 9.478-5 12.5-5 13.919 0 20.664 6.332 32 12l13.5 13.5c.419.838 2.29 2.419 3 1 .432-.864-9.29-13.395-11.5-14.5-7.183-3.591-12.871-10.435-20-14-4.298-2.149-11.767-1.035-14.5-6.5-1.105-2.21 4-4.626 4-6.5-13.333 0-8.4-20.301-12-27.5-1.488-2.976-3-8.62-3-12 0-2.258-1.066-14.717-5.5-12.5-2.197 1.098 2.5 8.452 2.5 10 0 .993 5.486 28.472 6 29.5 1.542 3.084-.545 8.5-4 8.5-8.828 0-17.781-3.062-22-11.5l-4-9-.5-3.5-.5 5c0 5.519 5 10.422 5 15 0 22.549-19.123-2-25-2v1l6 5 1 1v1l1 1 1 1c2.041 0 3 .959 3 3l1 1 3 3v1l2 2v1l1 1v1c1.89 0 3 4.598 3 6 1.907 0 2.382 4 5 4 0-9.802 2.744 3 6 3l2-1-6-11c0-7.617 1.985-16.757 11.5-12 2.984 1.492 8.537-1.426 10.5 2.5 4.833 9.666-7.099 10.299-11.5 12.5l-2.5 2-2 6c1.238 0 3 .423 3 2l1 2c2.115 0 8 5.696 8 7l10 9v1Z"/><path fill="#FFFC8E" id="CENT3" d="M166 156c-8.133 0-16.884 21.733-25 5.5l1-4.5c1.926 0 20-23.37 20-25l5.5-6 7-1 2-3c3.175-1.588-.739 7 3.5 7v10.5c.936 1.873 3 3.23 3 5.5-1.424 0-5 .362-5 2-1.238 0-3 .423-3 2l-1 1-2 1-1 1-1 1-2 2h-1l-1 1Z"/><path fill="#F0F080" id="CB" d="m266 122 3 3-3-3Z"/><path fill="#FFFC8E" id="CENT3" d="M290 156c5.877 0 25 24.549 25 2-1.814 0-20-22.914-20-25l-4.5-6c-2.699-1.35-6.424-.712-9-2l-2-3-.5 7.5-3-.5 1 9.5-4 6.5c2.502 0 10 1.893 10 5l2 2 1 1h1l2 2 1 1Z"/><path fill="#F0F080" id="CB" d="m189 123-1 1 1-1ZM188 124l-1 1 1-1Z"/><path fill="#CBC9CC" id="arb" d="m188 147-4 1c0-3.685-3.645-1-6-1 0-1.638 3.576-2 5-2h4l1 1v1Z"/><path fill="#F0F080" id="CB" d="m187 145 1 1-1-1Z"/><path fill="#CBC9CC" id="arb" d="M272 147c0-3.282 9.94 3 11 3 0-3.107-7.498-5-10-5-1.145 0-4-.579-4 1v1h3Z"/><path fill="#CBC7CC" id="sctv" d="m171 152 1 1c4.118 0 7.481-5 12-5 0-3.685-3.645-1-6-1 0 1.577-1.762 2-3 2l-1 1-2 1-1 1Z"/><path fill="#FF9B88" id="P" d="M188 147h1v-1h-1v1Z"/><path fill="#F0F080" id="CB" d="M189 147h1l-1-1v1ZM267 147h1v-1l-1 1Z"/><path fill="#FF9B88" id="P" d="M268 147h1v-1h-1v1Z"/><path fill="#CBC7CC" id="sctv" d="M289 157h1v-1l-1-1-2-2h-1l-1-1-2-2c-1.06 0-11-6.282-11-3l1 1 11 5 2 2h1l2 2Z"/><path fill="#CBC9CC" id="arb" d="M178 147c-1.238 0-3 .423-3 2 1.238 0 3-.423 3-2Z"/><path fill="#FFAD6D" id="PB" fill-rule="evenodd" d="M185 153c0 11.845-18.265 8.03-22 15.5-.791 1.582-8.581 4.838-7 8 1.219 2.438 6.675 1.412 8.5.5l19.5-14.5 6-5c0-2.7-2.357-4.5-5-4.5m-18 30c-4.088 0-7.139 5-12 5l-4-5-1-3 10.5-13c.591-.591 4.378-4 1.5-4l1-2 1-1 1-1 1-1 1-1h1l1-1 1-1 1-1 1-1c4.118 0 7.481-5 12-5l4-1h2l5 4.5c1.141 2.283 1 4.726 1 7.5l-1 2-1 1-1 2-1 1-1 2v1l-1 1-1 2-2 2-1 4c-2.989 0-16 .271-16 4-1.238 0-3 .423-3 2Z"/><path fill="#FF9B88" id="P" d="M196 159v2l3.5-4 3.5-2c-2.244 0-6-1.725-6-4h-1l-2-2-4-2 5 4.5c1.141 2.283 1 4.726 1 7.5ZM266 147l-1 1 1-1Z"/><path fill="#FFAD6D" id="PB" fill-rule="evenodd" d="m268 153-1 5.5c1.404 2.809 19.201 14.35 21.5 15.5 2.529 1.264 6.486 5.757 10 4 6.123-3.061-6.233-11.117-10-13l-12-4c-4.499-2.25-3.053-8-8.5-8m34 34-1 1c-8.345 0-18.258-12-31-12l-1-3c0-1.429-1.288-4-3-4v-1l-1-1v-1l-2-2v-1l-2-2v-10c1.747 0 2-.253 2-2h1l1-1 1-1h6l1 1 11 5 2 2h1l2 2 6 6c-4.053 0 5.055 9.555 7.5 12l3.5 4v4l-4 4Z"/><path fill="#FF9B88" id="P" d="m272 147 1 1-1-1Z"/><path fill="#F0F080" id="CB" d="M263 149h1v-1l-1 1Z"/><path fill="#FF9B88" id="P" d="m265 148-1 1v-1h1Z"/><path fill="#CBC9CC" id="arb" d="m175 149-1 1 1-1Z"/><path fill="#F0F080" id="CB" d="m194 149 2 2-2-2Z"/><path fill="#FF9B88" id="P" d="m263 149-2 2c1.747 0 2-.253 2-2Z"/><path fill="#CBC9CC" id="arb" d="m172 151-1 1 1-1Z"/><path fill="#AAA9A7" id="V4" d="M228 165h1c0-3.849 11-6.089 11-8-4.813 0-14.555 3.473-19.5 1-4.264-2.132-18.951-7-23.5-7 0 2.275 3.756 4 6 4 5.292 0 12.96 1.73 17.5 4l7.5 6ZM253 155l-13 2 3.5-2c1.218-.609 14.439-4 15.5-4 0 2.568-3.478 4-6 4Z"/><path fill="#FF9B88" id="P" d="M261 160v1l-4.5-5c-1.046-.523-3.5.951-3.5-1 2.522 0 6-1.432 6-4h2v5c-1.535 0-1.535 4 0 4Z"/><path fill="#CBC9CC" id="arb" d="m172 153-1 1-1-1 1-1 1 1ZM285 152l1 1-1-1Z"/><path fill="#CBC7CC" id="sctv" d="M169 155h1l1-1-1-1-2 2h1Z"/><path fill="#CBC9CB" id="scp" d="M185 153c0 11.845-18.265 8.03-22 15.5-.791 1.582-8.581 4.838-7 8 1.219 2.438 6.675 1.412 8.5.5l19.5-14.5 6-5c0-2.7-2.357-4.5-5-4.5ZM268 153l-1 5.5c1.404 2.809 19.201 14.35 21.5 15.5 2.529 1.264 6.486 5.757 10 4 6.123-3.061-6.233-11.117-10-13l-12-4c-4.499-2.25-3.053-8-8.5-8Z"/><path fill="#CBC9CC" id="arb" d="m284 153 2 2-2-2ZM287 153l2 2-2-2ZM171 154l-1 1 1-1ZM167 157h1v-1l-1-1-1 1 1 1Z"/><path fill="#CBC7CC" id="sctv" d="M168 155v1l-1-1h1Z"/><path fill="#CBC9CC" id="arb" d="M168 156h1v-1h-1v1Z"/><path fill="#FF9B88" id="P" d="m170 155-1 1v-1h1Z"/><path fill="#FFBA84" id="PCG" fill-rule="evenodd" d="m234 167-2 4.5c5.954 11.908 12.436-4.5 2-4.5m-16 0c0 1.804-2.182 5.136-1 7.5 3.054 6.109 14.234-7.5 1-7.5m34 29-2 2c0-5.882-4.928-7-10-7 0-2.437 7.582-4.336 5-9.5-2.299-4.598-10.969-3.062-13 1-2.26 4.521 4 5.949 4 8.5-3.567 0-3.701-4.601-6.5-6l-4.5 1c0-6.81-10.418-10.664-14-3.5-2.532 5.064 6 6.31 6 8.5-4.347 0-11 .575-11 6l-2-1c0-4.875 2.806-14-6-14 0-2.291 7.511-12-5-12l1-5 1-1v-2l1-1 3.5-4 3.5-2c5.292 0 12.96 1.73 17.5 4l7.5 6c0 1.186 1 1.186 1 0 0-3.849 11-6.089 11-8l13-2c0 1.951 2.454.477 3.5 1l4.5 5v2l1 1 2 7c-12.912 0-6 4.577-6 11-7.942 0-6 9.364-6 14Z"/><path fill="#CBC9CC" id="arb" d="m287 155 2 2-2-2Z"/><path fill="#CBC7CC" id="sctv" d="m166 156 1 1-1-1Z"/><path fill="#FF9B88" id="P" d="m169 156-1 1v-1h1Z"/><path fill="#FF79FE" id="MEV" d="M261 156c-1.535 0-1.535 4 0 4v-4Z"/><path fill="#FF9B88" id="P" d="M299 166v1l-4-4-6-6h1l6 5 1 1v1l1 1 1 1ZM166 158l-1 1 1-1ZM165 159l-1 1 1-1Z"/><path fill="#FF79FE" id="MEV" d="M195 161h1v-2l-1 2Z"/><path fill="#FF9B88" id="P" d="m164 160-1 1 1-1ZM161 163h1l1-2-2 1v1Z"/><path fill="#FF79FE" id="MEV" d="M194 162h1v-1l-1 1Z"/><path fill="#FF9B88" id="P" d="m196 161-1 1v-1h1Z"/><path fill="#FF79FE" id="MEV" d="m261 162 2 1-2-2v1Z"/><path fill="#F0F080" id="CB" d="M160 163h1v-1l-1 1Z"/><path fill="#FDC395" id="LC" d="m192 174-2.5 5-3.5-2 1-4c1.747 0 2-.253 2-2l1-2 1-1v-1l1-2 1-1 1-2h1v2l-1 1-1 5v1l-1 2v1ZM270 176c0 5.171-4.672 1-5 1 0-1.235.643-5-1-5v-1l-2-7-1-1v-1l2 1v1l2 2v1l1 1v1l3 4 1 3Z"/><path fill="#F0F080" id="CB" d="m296 162 1 1-1-1Z"/><path fill="#FF9B88" id="P" d="m161 164-2 1 1-2h1v1Z"/><path fill="#FFAD6D" id="PB" d="m162 163-1 1v-1h1Z"/><path fill="#CBC9C8" id="uf" d="M147 179c0 3.382 1.342 1 3 1l10.5-13c.591-.591 4.378-4 1.5-4l-1 1-2 1-1 1-1 1-1 1h-1l-1 1-1 1v1l-1 1-1 1-1 1-1 1-1 3-1 1Z"/><path fill="#FF9B88" id="P" d="m261 163 1 1-1-1Z"/><path fill="#CBC9C8" id="uf" d="M306 179c.966 0 3 4.402 3 0v-1l-1-1-1-1-1-2v-1l-3-3-1-1-1-1-1-1h-1l-4-4c-4.053 0 5.055 9.555 7.5 12l3.5 4Z"/><path fill="#FF79FE" id="MEV" d="m193 164-1 1 1-1Z"/><path fill="#FF9B88" id="P" d="m195 164-1 1 1-1Z"/><path fill="#FF79FE" id="MEV" d="m263 164 2 2-2-2Z"/><path fill="#F0F080" id="CB" d="m297 164 1 1-1-1Z"/><path fill="#FFFC8D" id="PFL" d="m123 186-10.5 5c-13.126 6.563-25.577 3.655-33.5 19.5-1.942 3.885 1 10.888 1 14.5l-2 13.5c-14.874 29.749-42.096-10.808-35-25 2.596-5.192 4.362-10.723 7-16 4.28-8.56 15.632-11.632 21-17 6.822-6.822 10.279-15.5 22-15.5l10 1c0 1.795 5.794 3.913 4 7.5-2.174 4.347-10.858 3.679-14.5 5.5-7.607 3.803-15.734 10.733-22 17-2.124 2.124-10.181 8.137-8.5 11.5l5.5-5.5 12-10c11.32-5.66 17.553-11 31.5-11 2.605 0 12 1.386 12 5Z"/><path fill="#F0F080" id="CB" d="M157 166h1v-1l-1 1Z"/><path fill="#FF9B88" id="P" d="m159 165-1 1v-1h1Z"/><path fill="#FF79FE" id="MEV" d="m192 165-1 2 1-2Z"/><path fill="#FF9B88" id="P" d="M228 165h1c0 1.186-1 1.186-1 0Z"/><path fill="#FFFC8D" id="PFL" d="m334 186 9.5 5c2.815 1.408 7.156.578 10 2 17.644 8.822 23.5 7.123 23.5 30 0 5.85-.415 11.671 2 16.5 14.204 28.409 42.896-11.209 33-31-3.115-6.229-10.752-19.626-16.5-22.5l-9.5-5.5c-7.595-7.595-11.637-15.5-23-15.5l-10 1c0 1.874-5.105 4.29-4 6.5 2.733 5.465 10.202 4.351 14.5 6.5 7.129 3.565 12.817 10.409 20 14 2.21 1.105 11.932 13.636 11.5 14.5-.71 1.419-2.581-.162-3-1L378.5 193c-11.336-5.668-18.081-12-32-12-3.022 0-12.5.657-12.5 5Z"/><path fill="#F0F080" id="CB" d="M155 168h1l1-1v-1c-1.747 0-2 .253-2 2Z"/><path fill="#FF9B88" id="P" d="m158 166-1 1v-1h1Z"/><path fill="#F0F080" id="CB" d="m301 168 1 1c0-2.041-.959-3-3-3v1h1l1 1Z"/><path fill="#CCCCCA" id="mcp" d="m137 181-8 4c0-1.596-18.738-4.024-14-13.5 2.534-5.067 19.157-6.686 22-1 1.699 3.397 0 7.173 0 10.5Z"/><path fill="#FF9B88" id="P" d="m157 167-1 1 1-1Z"/><path fill="#FEB985" id="DTN" d="M218 167c0 1.804-2.182 5.136-1 7.5 3.054 6.109 14.234-7.5 1-7.5ZM234 167l-2 4.5c5.954 11.908 12.436-4.5 2-4.5Z"/><path fill="#FF79FE" id="MEV" d="m265 167 1 1-1-1Z"/><path fill="#FF9B88" id="P" d="m300 167 1 1-1-1Z"/><path fill="#CCCCCA" id="mcp" d="M319 180c2.325 0 4.488 5 8 5l2.5-2c4.401-2.201 16.333-2.834 11.5-12.5-1.963-3.926-7.516-1.008-10.5-2.5-9.515-4.757-11.5 4.383-11.5 12Z"/><path fill="#F0F080" id="CB" d="m155 168-1 1 1-1Z"/><path fill="#FF79FE" id="MEV" d="m191 168-1 1 1-1ZM190 169l-1 2 1-2ZM266 169c1.712 0 3 2.571 3 4l-3-4Z"/><path fill="#FF9B88" id="P" d="m302 169 1 1-1-1Z"/><path fill="#F0F080" id="CB" d="M152 171h1v-1l-1 1Z"/><path fill="#FFBA86" id="B" d="M195 182h3c0-2.291 7.511-12-5-12v1l-1 2v4l1 2v1l2 2ZM258 182h3l2-1v-1l1-1v-8c-12.912 0-6 4.577-6 11Z"/><path fill="#F0F080" id="CB" d="m303 170 3 3-3-3ZM151 172h1v-1l-1 1Z"/><path fill="#FF9B88" id="P" d="m153 171-1 1v-1h1Z"/><path fill="#FF79FE" id="MEV" d="m189 171-2 2c1.747 0 2-.253 2-2Z"/><path fill="#FFBA84" id="PCG" d="m193 171-1 2 1-2Z"/><path fill="#FF9B88" id="P" d="m152 172-1 1v-1h1Z"/><path fill="#FFBA84" id="PCG" d="m265 177-1 1v-6c1.643 0 1 3.765 1 5Z"/><path fill="#C9C9C8" id="icp" d="M307 172c0 1.93 1.93 0 0 0Z"/><path fill="#F0F080" id="CB" d="m151 173-1 1 1-1ZM150 174l-1 1 1-1Z"/><path fill="#FF9B88" id="P" d="M193 183h1l-1-3v-1l-1-2v-3l-2.5 5-3.5-2c-2.989 0-16 .271-16 4l9.5-1 4.5 4c0-5.234 7.956-1 9-1Z"/><path fill="#F0F080" id="CB" d="M307 176h1l-2-2 1 2Z"/><path fill="#FF9B88" id="P" d="M301 188c0 2.833 2 4.84 2 7-2.04 0-15.458-12.979-19.5-15-5.71-2.855-8.797 5-11.5 5 0-6.454-6.288-2-9-2v-3l1-1v-1l1-1c.328 0 5 4.171 5-1 12.742 0 22.655 12 31 12ZM308 176v1l-1-1h1Z"/><path fill="#FFBA84" id="PCG" d="m192 177 1 2-1-2Z"/><path fill="#F0F080" id="CB" d="m308 177 1 1-1-1Z"/><path fill="#FF9B88" id="P" d="m148 178-1 1 1-1ZM151 183c-3.338 0-5.106 2-7 2l3-6c0 3.382 1.342 1 3 1l1 3Z"/><path fill="#FFB984" id="PDTg" d="M217 191h3l2-1 1-1 1-1 1-2c0-6.81-10.418-10.664-14-3.5-2.532 5.064 6 6.31 6 8.5ZM236 191h4c0-2.437 7.582-4.336 5-9.5-2.299-4.598-10.969-3.062-13 1-2.26 4.521 4 5.949 4 8.5Z"/><path fill="#FFBA84" id="PCG" d="m264 179-1 1 1-1Z"/><path fill="#FF9B88" id="P" d="M306 183c4.192 0 4.268 2 6 2 0-1.402-1.11-6-3-6 0 4.402-2.034 0-3 0v4Z"/><path fill="#FFB0D7" id="MV" d="M182 202c-6.641 0-14.707 1-22 1l-8-4 2-4 1-2c1.995 0 12-7.683 12-10 1.238 0 3-.423 3-2l9.5-1 4.5 4 5 13c0 2.706-4.659 5-7 5Z"/><path fill="#FFBA84" id="PCG" d="m195 182-1 1-1-3 2 2Z"/><path fill="#FFB0D7" id="MV" d="M274 202c6.758 0 14.627 1 22 1 3.137 0 5.591-4 8-4l-1-4c-2.04 0-15.458-12.979-19.5-15-5.71-2.855-8.797 5-11.5 5l-4 12c0 2.695 3.673 5 6 5Z"/><path fill="#C9C9C8" id="icp" d="m327 185-2 6-6-11c2.325 0 4.488 5 8 5ZM137 181l-8 4c0 10.235 8 1.15 8-4Z"/><path fill="#FF9B88" id="P" d="M170 181c-1.238 0-3 .423-3 2 1.238 0 3-.423 3-2Z"/><path fill="#FEC394" id="SLC" d="M189 197h6l-2-2.5V183c-1.044 0-9-4.234-9 1l5 13Z"/><path fill="#FFBA84" id="PCG" d="m261 182 2 1v-2l-2 1Z"/><path fill="#FEC394" id="SLC" d="M262 197c0 2.726 5.294 0 6 0l4-12c0-6.454-6.288-2-9-2 0 4.725-1 9.879-1 14Z"/><path fill="#FEAD6E" id="KF" d="m154 195-2 4c0 4.793-10.744 8.011-13 3.5-2.558-5.116 1-8.859 1-13.5l3-3 1-1c1.894 0 3.662-2 7-2l4 5v5l-1 2Z"/><path fill="#FEC295" id="SLD" d="M204 196c0 3.749-7.542 1-9 1l-2-2.5V183h1l1-1h3c8.806 0 6 9.125 6 14ZM252 196l2.5 2 7.5-1c0-4.121 1-9.275 1-14l-2-1h-3c-7.942 0-6 9.364-6 14Z"/><path fill="#FEAD6E" id="KF" d="m303 195 1 4c0 5.274 11.357 7.787 14 2.5 1.735-3.47-1-9.298-1-12.5-2.618 0-3.093-4-5-4-1.732 0-1.808-2-6-2l-4 4-1 1c0 2.833 2 4.84 2 7Z"/><path fill="#FF9B88" id="P" d="M155 188v5c1.995 0 12-7.683 12-10-4.088 0-7.139 5-12 5ZM140 211l2 6.5-1 13.5c.843 0 2-3.646 2-4.5 0-4.835-.018-10.964 2-15 6.097-12.194 9.737-2.5 13-2.5l1-3 1-1v-2l-8-4c0 4.793-10.744 8.011-13 3.5-2.558-5.116 1-8.859 1-13.5v-3l-1-1c-3.389 0-2.164 7-5 7v2c0 1.791 3.27 2.959 2 5.5l-2 4.5v1c3.876 0 6 2.144 6 6Z"/><path fill="#F0F080" id="CB" d="m139 185 1 1-1-1Z"/><path fill="#FF9B88" id="P" d="m144 185-1 1 1-1Z"/><path fill="#FEC294" id="NI" d="M206 197c0 4.879 7.188 2.844 9.5 4 6.519 3.26 19.481 3.26 26 0 1.745-.872 8.5.027 8.5-3 0-5.882-4.928-7-10-7h-4c-3.567 0-3.701-4.601-6.5-6l-4.5 1-1 2-1 1-1 1-2 1h-3c-4.347 0-11 .575-11 6Z"/><path fill="#FF9B88" id="P" d="M317 212c-4.205 0-2 15.331-2 18-1.911 0-1.907-14.314-3-16.5-1.758-3.516-5.176-9.662-9.5-7.5l-3.5 3-3-4v-2c3.137 0 5.591-4 8-4 0 5.274 11.357 7.787 14 2.5 1.735-3.47-1-9.298-1-12.5 0-9.802 2.744 3 6 3v2l-1 1c-3.602 0 1 9.395 1 10h-1c-4.698 0-5 3.024-5 7Z"/><path fill="#FEF991" id="FL" d="M80 225c1.306 0 6.97 8.735 9.5 10 4.447 2.223 10.059-2 13.5-2 0-6.16 4-11.153 4-18-.477 0-6.444 1.028-6.5 1-2.506-1.253 1.978-4.489 3-5 3.721-1.861 9.276-8 13.5-8 0-1.896 2.077-4 4-4 0-3.864 2-8.209 2-13l-10.5 5c-13.126 6.563-25.577 3.655-33.5 19.5-1.942 3.885 1 10.888 1 14.5Z"/><path fill="#FFBA84" id="PCG" d="m225 186-1 2 1-2Z"/><path fill="#FFFC8D" id="PFL" d="m334 186-1 1 1-1Z"/><path fill="#FEF991" id="FL" d="M377 223c-1.183 0-1.535 3.57-2 4.5l-7.5 7.5c-4.641 2.321-10.744-2-14.5-2 0-6.916-3-9.428-3-17 0-3.739 8.351 2.202 6-2.5-4.739-9.478-23-6.404-23-26.5l1-1 9.5 5c2.815 1.408 7.156.578 10 2 17.644 8.822 23.5 7.123 23.5 30Z"/><path fill="#FF9B88" id="P" d="m302 187-1 1 1-1Z"/><path fill="#FFBA84" id="PCG" d="m224 188-1 1 1-1ZM223 189l-1 1 1-1ZM222 190l-2 1 2-1Z"/><path fill="#F0F080" id="CB" d="M131 194h3v-2c-2.361 0-5-2.342-5 1l2 1ZM323 194h2c0-1.473 1.952-1 3-1 0-1.577-1.762-2-3-2l-2 1v2Z"/><path fill="#FF9BCD" id="MY" d="M129 194h2l-2-1v1Z"/><path fill="#FF9B88" id="P" d="m155 193-1 2 1-2Z"/><path fill="#FF9BCD" id="MY" d="m325 194 4 1-1-2c-1.048 0-3-.473-3 1Z"/><path fill="#FEA5D1" id="DCO" d="M127 195h1v-1l-1 1Z"/><path fill="#FF9BCD" id="MY" d="m129 194-1 1v-1h1Z"/><path fill="#FEA4D2" id="VCO" d="M115 250v4c2.497 0 2.854 10.323 9.5 7 2.471-1.235 3.405-12 4.5-12v-21c-1.566 0-1.566-5 0-5v-7l1-1v-2l1-1v-2l1-1v-1l1-1v-1l1-2 2-4.5c1.27-2.541-2-3.709-2-5.5h-5l-1 1h-1c0 1.747-.253 2-2 2 0 2.211-6.395 14-9 14l-1 1c0 2.248-1.089 9-4 9v1l-1 2-2 7-1 1v2l1 1 4 9 1 1 1 4 1 1Z"/><path fill="#FF9BCD" id="MY" d="m323 194-1 1 1-1Z"/><path fill="#FEA4D2" id="VCO" d="M341 252v4l-4.5 5c-6.732 3.366-8.5-8.288-8.5-12v-28l-1-2v-5l-1-1-1-4-2-4c0-.605-4.602-10-1-10l1-1h2l4 1c0 2.163 10.778 16 12 16v2l1 1c0 6.574 7 11.547 7 18v3l-1 2-1 1c0 3.657-4 5.884-4 10l-1 1v2l-1 1Z"/><path fill="#FEA5D1" id="DCO" d="M125 196v1c1.747 0 2-.253 2-2l-2 1ZM337 202l4 9c-1.222 0-12-13.837-12-16 2.115 0 8 5.696 8 7Z"/><path fill="#F0F080" id="CB" d="M124 197h1v-1l-1 1Z"/><path fill="#FF9B88" id="P" fill-rule="evenodd" d="M220 205c0 1.33-1.894 1.606-.5 3l1.5 2.5c3.858 7.716 5.867-5.5-1-5.5m3-1c0 8.78 8.739 0 0 0m44 15c-4.909 0-3.144 6-5 6 0-11.771-5.558-20-18-20-2.401 0-7.754 2-3 2l-5 8-5 1h-5l-5-1-6-8c7.678 0-1.124-1-3-1 0-3.191-9.588.544-10.5 1-3.427 1.714-7.5 10.73-7.5 15-1.353 0-2.158-3-5-3 0-7.501 9.088-8.675 12-14.5 1.405-2.809-6.886-.807-7.5-.5l-6.5 4c0-2.966-5-4.976-5-6 2.341 0 7-2.294 7-5h6c1.458 0 9 2.749 9-1l2 1c0 4.879 7.188 2.844 9.5 4 6.519 3.26 19.481 3.26 26 0 1.745-.872 8.5.027 8.5-3l2-2 2.5 2 7.5-1c0 2.726 5.294 0 6 0 0 2.695 3.673 5 6 5l-5 6-6.5-4c-.614-.307-8.905-2.309-7.5.5 2.417 4.834 12 6.968 12 13.5v1m-34-12 3.5-2c3.865 0-5.5 11.845-5.5 6.5l1-2.5c-6.577 0 1-9.773 1-2Z"/><path fill="#FEA5D1" id="DCO" d="m119 203-3 8c2.605 0 9-11.789 9-14h-1c-1.481 0-.785 2-3 2l-1 2-1 1v1Z"/><path fill="#CBC9CC" id="arb" d="M117 203h2v-1l1-1 1-2c-1.923 0-4 2.104-4 4Z"/><path fill="#A9AAA7" id="V4r" d="m120 201-1 1 1-1Z"/><path fill="#FF9BCD" id="MY" d="M187 208c0 1.429-1.288 4-3 4 0-10.882-17.102-7-24-7v-2c7.293 0 15.359-1 22-1 0 1.024 5 3.034 5 6ZM269 208l3 3c0-9.678 18.165-6 24-6v-2c-7.373 0-15.242-1-22-1l-5 6Z"/><path fill="#A9AAA7" id="V4r" fill-rule="evenodd" d="M346 220c0 9.192 6.187 0 0 0m3 12c1.674 0 2.326 1 4 1 0-6.916-3-9.428-3-17l-3-4c0 9.307-8.703-1 0-1l-10-9 4 9v2l1 1c0 6.574 7 11.547 7 18Z"/><path fill="#CBC9CC" id="arb" d="m109 213-2 2c-.477 0-6.444 1.028-6.5 1-2.506-1.253 1.978-4.489 3-5 3.721-1.861 9.276-8 13.5-8 0 4.186-8 4.601-8 9v1Z"/><path fill="#A9AAA7" id="V4r" d="M103 233h4v-1l1-1 2-7c-5.83 0-.792-5-.5-5l1.5 2c2.911 0 4-6.752 4-9l1-1 3-8h-2c0 4.186-8 4.601-8 9l3.5-2c3.583 1.791-3.5 10.506-3.5 3l-2 2c0 6.847-4 11.84-4 18Z"/><path fill="#CCCCC7" id="VIIn" d="m179 231-3 1c-1.168 0-.567-4.366 0-5.5 1.278-2.556 8-13.209 8-14.5 1.712 0 3-2.571 3-4l6.5-4c.614-.307 8.905-2.309 7.5.5-2.912 5.825-12 6.999-12 14.5l-1 1-1 1-6 7-1 1-1 2ZM275 228c2.33 0 3.227 4 6 4 0-8.261-9-16.533-9-21l-3-3-6.5-4c-.614-.307-8.905-2.309-7.5.5 2.417 4.834 12 6.968 12 13.5l2 2 6 8Z"/><path fill="#FF9BCD" id="MY" d="m134 205-1 1 1-2v1Z"/><path fill="#FCB3D9" id="PARN" d="M154 259c0 2.461 3.378 2 5 2 0-1.657 3.452-5 5-5 0-3.897 11-12.389 11-19l1-5c-1.168 0-.567-4.366 0-5.5 1.278-2.556 8-13.209 8-14.5 0-10.882-17.102-7-24-7l-1 1-1 3c0 16.981-4 33.053-4 50Z"/><path fill="#FFC294" id="RPO" d="M223 204c0 8.78 8.739 0 0 0ZM232 208v1c-6.577 0 1-9.773 1-2l-1 1Z"/><path fill="#FCB3D9" id="PARN" d="M303 259c-1.03 0-2.671 1-6 1 0-1.533-3.753-4-5-4 0-4.119-11-12.788-11-19v-5c0-8.261-9-16.533-9-21 0-9.678 18.165-6 24-6l3 4c0 9.712 2 19.493 2 29.5v16l2 4.5Z"/><path fill="#C9CACB" id="vVIIIn" d="M129 249c0 3.703.686 4 3 4 0-10.939-.029-24.441 5-34.5.771-1.542.465-7.5 3-7.5 0-3.856-2.124-6-6-6l-1 1v1l-1 1v1l-1 1v2l-1 1v2l-1 1v33Z"/><path fill="#FFAE6F" id="PSV" d="m154 259-1 1c-1.606 0-4.339 2.081-6.5 1l-5.5-5v-1c0-3.981-2-7.629-2-12 1.484 0 2-8.263 2-10v-2c.843 0 2-3.646 2-4.5 0-4.835-.018-10.964 2-15 6.097-12.194 9.737-2.5 13-2.5 0 16.981-4 33.053-4 50Z"/><path fill="#FF9BCD" id="MY" d="m160 205-1 1 1-1Z"/><path fill="#FDBA86" id="PRNc" d="m194 222 1 21c3.226 0 2.559-18.618 4-21.5 2.594-5.187 10.966-4.5 16-4.5 1.745 0 6 .698 6-2l-6-8-4.5 1 1.5-2c0-3.191-9.588.544-10.5 1-3.427 1.714-7.5 10.73-7.5 15Z"/><path fill="#FDB1D9" id="VI" d="M212 206c1.876 0 10.678 1 3 1l-4.5 1 1.5-2Z"/><path fill="#CBCBCC" id="mlf" d="M220 205c0 1.33-1.894 1.606-.5 3l1.5 2.5c3.858 7.716 5.867-5.5-1-5.5ZM232 208v1l-1 2.5c0 5.345 9.365-6.5 5.5-6.5l-3.5 2-1 1Z"/><path fill="#FDB1D9" id="VI" d="M244 205c-2.401 0-7.754 2-3 2 7.07 0 3 2.866 3-2Z"/><path fill="#FDBA86" id="PRNc" d="M262 225v21c-1.454 0-1.433-5.366-2-6.5-2.97-5.94-.999-13.998-4-20-2.048-4.095-20-.716-20-4.5l5-8c7.07 0 3 2.866 3-2 12.442 0 18 8.229 18 20Z"/><path fill="#FFAE6F" id="PSV" d="M303 260c1.819 0 4.591 1 7 1l4-4 1-1v-1l1-1c0-1.048-.473-3 1-3 0-7.374-2-13.175-2-20v-1c-1.911 0-1.907-14.314-3-16.5-1.758-3.516-5.176-9.662-9.5-7.5l-3.5 3c0 9.712 2 19.493 2 29.5v16l2 4.5v1Z"/><path fill="#C9CACB" id="vVIIIn" d="M328 249c-.056 0-3 6.946-3 4 0-10.522-.554-24.608-5-33.5-.7-1.401-1.039-7.5-3-7.5 0-3.976.302-7 5-7l3 4 1 4 1 1v5l1 2v28Z"/><path fill="#FF9BCD" id="MY" d="m323 205 2 4-3-4h1ZM133 207l-1 1 1-1Z"/><path fill="#FF9B88" id="P" d="m233 207-1 1 1-1Z"/><path fill="#FF9BCD" id="MY" d="m132 209-1 1 1-1Z"/><path fill="#A9AAA8" id="chpl" d="m109 212 3.5-2c3.583 1.791-3.5 10.506-3.5 3v-1ZM347 211c-8.703 0 0 10.307 0 1v-1Z"/><path fill="#FEA5D1" id="DCO" d="m116 211-1 1 1-1Z"/><path fill="#C8CACA" id="sptV" d="m152 268-1 2c-1.606 0-4.339 2.081-6.5 1-6.324-3.162-12.5-10.076-12.5-18 0-10.939-.029-24.441 5-34.5.771-1.542.465-7.5 3-7.5l2 6.5-1 13.5v2c-1.888 0-2 8.072-2 10-2.407 0-.12 12 2 12v1c0 2.682 8.855 9 11 9v3Z"/><path fill="#FF9BCD" id="MY" d="m131 212-1 1 1-1Z"/><path fill="#C8CACA" id="sptV" d="m304 266 1 3 4.5 3c3.698 0 8.312-5.312 11-8 1.487-1.487 2.975-11 4.5-11 0-10.522-.554-24.608-5-33.5-.7-1.401-1.039-7.5-3-7.5-4.205 0-2 15.331-2 18v1c1.343 0 3 12.454 3 15 0 1.235.643 5-1 5 0 1.048.473 3-1 3l-1 1v1l-1 1c0 2.226-1.774 4-4 4 0 1.008-5.147 4-6 4v1Z"/><path fill="#FF9BCD" id="MY" d="m326 213 1 1-1-1Z"/><path fill="#FEA5D1" id="DCO" d="m341 213 1 1-1-1Z"/><path fill="#FF9BCD" id="MY" d="m130 215-1 1 1-1Z"/><path fill="#FEB0D8" id="GRN" fill-rule="evenodd" d="M237 218c0 .908-3.237 3.974-4 5.5-1.07 2.14-1.519 24.491.5 25.5 1.841.921 2.907-1.313 3.5-2.5.048-.097-.816-17.369 3-25 1.355-2.711-.961-3.5-3-3.5m-20 0c0 3.24 2 6.512 2 10 0 3.519 2 6.661 2 9.5 0 .949-1 2.951-1 4.5 0 1.816 1.124 11.252 4 5.5 2.946-5.893 1.11-29.5-7-29.5m44 58h2c0-3.702 2-7.27 2-10l-3-20c-1.454 0-1.433-5.366-2-6.5-2.97-5.94-.999-13.998-4-20-2.048-4.095-20-.716-20-4.5l-5 1c0 2.061-5 2.061-5 0l-5-1c0 2.698-4.255 2-6 2-5.034 0-13.406-.687-16 4.5-1.441 2.882-.774 21.5-4 21.5v2c0 1.048.473 3-1 3l-2 18v1l2 9h1c0-2.189 5.066-3 7-3l7.5-9c3.198-1.599 8.488-7.256 13-5l2.5 2h1c0-13.842 5-13.018 5 0l2.5-2c3.908-1.954 9.197 2.598 12 4l9.5 10c1.999 0 6 .067 6 3Z"/><path fill="#FF9BCD" id="MY" d="M226 216h5c0 2.061-5 2.061-5 0Z"/><path fill="#C8C8CC" id="tspc" d="M217 218c0 3.24 2 6.512 2 10 0 3.519 2 6.661 2 9.5 0 .949-1 2.951-1 4.5 0 1.816 1.124 11.252 4 5.5 2.946-5.893 1.11-29.5-7-29.5ZM237 218c0 .908-3.237 3.974-4 5.5-1.07 2.14-1.519 24.491.5 25.5 1.841.921 2.907-1.313 3.5-2.5.048-.097-.816-17.369 3-25 1.355-2.711-.961-3.5-3-3.5Z"/><path fill="#FF9BCD" id="MY" d="m267 219 2 1-2-2v1Z"/><path fill="#A9AAA8" id="chpl" d="m111 222-1 2c-5.83 0-.792-5-.5-5l1.5 2v1Z"/><path fill="#FF9BCD" id="MY" d="m189 219-1 1 1-1Z"/><path fill="#FFB2D8" id="IRN" fill-rule="evenodd" d="M182 252c0 7.754 10.239 0 0 0m9 14h1l2-18c0-1.048-.473-3 1-3v-2l-1-21c-1.353 0-2.158-3-5-3l-1 1-1 1-6 7-1 1-1 2c0 1.417-2.383 6-4 6 0 6.611-11 15.103-11 19 5.844 0 27 4.004 27 10ZM270 252c0 8.477 9.489 0 0 0m22 4c-6.643 0-13.953 1.227-19.5 4l-7.5 6-3-20v-21c1.856 0 .091-6 5-6l2 1 6 8 6 9c0 6.212 11 14.881 11 19Z"/><path fill="#FF9BCD" id="MY" d="m327 219 1 2-1-2ZM188 220l-1 1 1-1Z"/><path fill="#A9AAA8" id="chpl" d="M346 220c0 9.192 6.187 0 0 0Z"/><path fill="#A9AAA7" id="V4r" d="m111 222-1 2 1-2Z"/><path fill="#FF9BCD" id="MY" d="M129 223c-1.566 0-1.566 5 0 5v-5ZM181 228l-1 1 1-1ZM281 232v5l-6-9c2.33 0 3.227 4 6 4ZM180 229l-1 2 1-2ZM108 231l-1 1 1-1ZM176 232l-1 5c1.617 0 4-4.583 4-6l-3 1Z"/><path fill="#FF9B88" id="P" d="M315 231c1.343 0 3 12.454 3 15 0 1.235.643 5-1 5 0-7.374-2-13.175-2-20ZM141 233c-1.888 0-2 8.072-2 10 1.484 0 2-8.263 2-10Z"/><path fill="#FF9BCD" id="MY" d="m107 234 1 1-1-1ZM349 235l-1 2 1-2ZM348 237l-1 1 1-1Z"/><path fill="#FF9B88" id="P" d="M139 243c-2.407 0-.12 12 2 12 0-3.981-2-7.629-2-12Z"/><path fill="#FF9BCD" id="MY" d="m112 244 1 1-1-1Z"/><path fill="#FDBA86" id="PRNc" d="M195 245c-1.473 0-1 1.952-1 3 1.473 0 1-1.952 1-3Z"/><path fill="#FF9BCD" id="MY" d="m343 248-1 1 1-1ZM114 249l1 1-1-1ZM153 275c-6.9 0 7 9.245 7 10-6.473 0-13.785-11.142-19.5-14-7.39-3.695-11.073 1-18 1-7.67 0-7.5-11.958-7.5-18 2.497 0 2.854 10.323 9.5 7 2.471-1.235 3.405-12 4.5-12 0 3.703.686 4 3 4 0 7.924 6.176 14.838 12.5 18 2.161 1.081 4.894-1 6.5-1l2 5ZM304 275c3.619 0-2 5.477-2 6 2.115 0 14.23-10.365 17.5-12 3.547-1.774 11.253 1.626 14 3 6.532 3.266 7.5-12.353 7.5-16l-4.5 5c-6.732 3.366-8.5-8.288-8.5-12-.056 0-3 6.946-3 4-1.525 0-3.013 9.513-4.5 11-2.688 2.688-7.302 8-11 8l-4.5-3-1 6Z"/><path fill="#FFC5E2" id="RM" d="M227 276h3v-3c0-1.49-.735-8 1-8v-4c0-13.018-5-13.842-5 0v13l1 2Z"/><path fill="#FF9B88" id="P" d="M317 251c-1.473 0-1 1.952-1 3 1.473 0 1-1.952 1-3Z"/><path fill="#FF9BCD" id="MY" d="m342 251-1 1 1-1Z"/><path fill="#FDB0D9" id="ACVII" d="M182 252c0 7.754 10.239 0 0 0ZM270 252c0 8.477 9.489 0 0 0Z"/><path fill="#FF9B88" id="P" d="m316 254-1 1 1-1ZM153 260l-1 5c-2.145 0-11-6.318-11-9l5.5 5c2.161 1.081 4.894-1 6.5-1Z"/><path fill="#FFB3D6" id="VII" d="M193 282c-1.011 0-4.12 3.31-5.5 4l-20.5-3c-1.451 0-8-3.778-8-5l-1-1c-4.492 0-2-9.869-2-12l3-4c0-1.657 3.452-5 5-5 5.844 0 27 4.004 27 10l1 1 2 9v1l-1 5ZM264 283c2.048 0 4.872 4.314 7.5 3 3.934-1.967 13.119-3 17.5-3 8.803 0 12-9.699 12-17l-1-1v-1l-3-4c0-1.533-3.753-4-5-4-6.643 0-13.953 1.227-19.5 4l-7.5 6c0 2.73-2 6.298-2 10v2l1 5Z"/><path fill="#FF9B88" id="P" d="m315 256-1 1 1-1ZM314 257l-4 4c2.226 0 4-1.774 4-4Z"/><path fill="#FF9BCD" id="MY" d="M156 265c0-6.732-2.008 2-4 2v-2l1-5 1-1c0 2.461 3.378 2 5 2l-3 4Z"/><path fill="#FDB2D9" id="MARN" d="m202 273 1 5c5.123 0 19.545-4.59 22-9.5V261l-2.5-2c-4.512-2.256-9.802 3.401-13 5l-7.5 9ZM255 273c0 2.567-2 3.913-2 5-5.983 0-22-5.509-22-13v-4l2.5-2c3.908-1.954 9.197 2.598 12 4l9.5 10Z"/><path fill="#FF9BCD" id="MY" d="M304 265v1c-1.617 0-4-6.722-4-2l-3-4c3.329 0 4.97-1 6-1v1l1 5Z"/><path fill="#FF9B88" id="P" d="M310 261c0 1.008-5.147 4-6 4l-1-5c1.819 0 4.591 1 7 1Z"/><path fill="#FF9BCD" id="MY" d="M161 285c0 1.612 9.304 3 11 3 11.466 0 23.818 4 35 4 1.991 0 14 .793 14-1h-11c-2.351 0-6.701-1.098-5-4.5 1.558-3.117 15-3.183 15-6.5 0-6.43-.925-7 6-7v-12h-1v7.5c-2.455 4.91-16.877 9.5-22 9.5 0 3.853-10 10.209-10 4-1.011 0-4.12 3.31-5.5 4l-20.5-3-1 1c0 2.682 8-.848 8 2.5l-3.5.5c-2.719-1.359-6.26-2-9.5-2Z"/><path fill="#C8C8CB" id="rust" d="m167 283-1 1c-4.448 0-13-5.058-13-9l-2-5 1-2v-1c1.992 0 4-8.732 4-2 0 2.131-2.492 12 2 12l1 1c0 1.222 6.549 5 8 5ZM289 283l1 2c2.735 0 13-6.033 13-9l1-1 1-6-1-3c-1.617 0-4-6.722-4-2v1l1 1c0 7.301-3.197 17-12 17Z"/><path fill="#FF9BCD" id="MY" d="M287 287c0 2.629-14.323.912-16.5 2-2.739 1.37-31.037 4.482-34 3l-8-4c-.835-.417-5.576 3-7.5 3l5-6h4l6.5 6c2.983 1.491 17.067.635 14.5-4.5-1.632-3.265-14-3.027-14-6.5 0-7.175-1.335-7-7-7 0-1.49-.735-8 1-8 0 7.491 16.017 13 22 13 0 3.719 11 9.577 11 5 2.048 0 4.872 4.314 7.5 3 3.934-1.967 13.119-3 17.5-3l1 2c-4.894 0-11.212 2-3 2ZM300 265l1 1-1-1ZM192 266v1l-1-1h1ZM152 268l-1 2 1-2Z"/><path fill="#CACCC8" id="ml" d="M220 280h5l1-3v-4c-6.925 0-6 .57-6 7ZM231 280h6c0-7.175-1.335-7-7-7v3l1 4Z"/><path fill="#FCB2D8" id="PPY" d="M203 278c0 3.853-10 10.209-10 4l1-5 1-1c0-2.189 5.066-3 7-3l1 5ZM263 278l1 5c0 4.577-11-1.281-11-5 0-1.087 2-2.433 2-5 1.999 0 6 .067 6 3l2 2Z"/><path fill="#FF9BCD" id="MY" d="m227 276-1 1v-3l1 2Z"/><path fill="#CBC7CC" id="sctv" d="M160 285h1c3.24 0 6.781.641 9.5 2l3.5-.5c0-3.348-8 .182-8-2.5-4.448 0-13-5.058-13-9-6.9 0 7 9.245 7 10Z"/><path fill="#FF9BCD" id="MY" d="m304 275-1 1 1-1Z"/><path fill="#CBC7CC" id="sctv" d="M292 286c-1.235 0-5-.643-5 1-8.212 0-1.894-2 3-2 2.735 0 13-6.033 13-9l1-1c3.619 0-2 5.477-2 6l-1 1-1 1h-1c-1.238 0-3 .423-3 2h-1c-1.048 0-3-.473-3 1Z"/><path fill="#FF9BCD" id="MY" d="m195 276-1 1v-1h1Z"/><path fill="#FFC6E2" id="RPA" d="M226 285h4l1-5-1-4h-3l-1 1-1 3 1 5Z"/><path fill="#FF9BCD" id="MY" d="M263 276v2l-2-2h2ZM158 277l1 1-1-1Z"/><path fill="#C7C9C9" id="py" d="m226 285-5 6h-11c-2.351 0-6.701-1.098-5-4.5 1.558-3.117 15-3.183 15-6.5h5l1 5ZM237 280c0 3.473 12.368 3.235 14 6.5 2.567 5.135-11.517 5.991-14.5 4.5l-6.5-6 1-5h6Z"/><path fill="#FF9BCD" id="MY" d="m302 281-1 1 1-1ZM301 282l-1 1 1-1ZM299 283c-1.238 0-3 .423-3 2 1.238 0 3-.423 3-2ZM295 285c-1.048 0-3-.473-3 1 1.048 0 3 .473 3-1ZM292 286c-1.235 0-5-.643-5 1 1.235 0 5 .643 5-1Z"/></svg>