<svg xmlns="http://www.w3.org/2000/svg" viewBox="0 0 456 320"><path fill="#098589" id="VISp1" d="m82 53 3 3 18.5-13c17.848-8.924 39.37-24 60.5-24v-4c-2.613 0-4.36.93-6.5 2-3.01 1.505-14.888 1.944-19 4l-40 20C96.069 42.216 82 50.603 82 53Z"/><path fill="#0A8589" id="VISpm1" d="M165 19h10v-4h-11v4h1Z"/><path fill="#1BA696" id="RSPagl1" d="M192 18c-5.675 0-11.954 1-17 1v-4h18l-1 3Z"/><path fill="#1BA598" id="RSPd1" d="m211 35-6 2 2-4.5c3.127-6.253-9.642-14.5-15-14.5l1-3c4.81 0 14.592 3.683 17 8.5.481.962 4.251 11.5 1 11.5ZM245 35l7 2-2-3.5c-3.751-7.503 8.394-15.5 14-15.5v-3c-5.976 0-15.926 4.353-19 10.5-1.518 3.036 0 6.886 0 9.5Z"/><path fill="#1BA696" id="RSPagl1" d="M264 18c5.675 0 11.954 1 17 1v-4h-17v3Z"/><path fill="#0A8589" id="VISpm1" d="M281 19h11l1-4h-12v4Z"/><path fill="#098589" id="VISp1" d="m374 53-3 3-17.5-13c-17.02-8.51-41.722-24-61.5-24l1-4c2.592 0 3.416.958 5.5 2 1.683.841 16.859 2.43 20 4 12.281 6.14 24.629 11.814 37 18 2.448 1.224 18.5 11.585 18.5 14Z"/><path fill="#1AA496" id="RSPagl2/3" d="M174 25v2c2.868 0 11.173-3 17-3l1-6c-5.675 0-11.954 1-17 1 0 1.32.684 6-1 6Z"/><path fill="#1BA697" id="RSPd2/3" d="M203 37h2l2-4.5c3.127-6.253-9.642-14.5-15-14.5l-1 6v1c12.189 0 5 9.826 5 13 0 1.14 5.29-1 7-1ZM253 37c3.303 0 5.115 2 8 2 0-3.318-9.048-14 5-14v-1c-.675 0-2-5.294-2-6-5.606 0-17.751 7.997-14 15.5l2 3.5h1Z"/><path fill="#1AA496" id="RSPagl2/3" d="M282 25v2c-3.003 0-10.64-3-16-3-.675 0-2-5.294-2-6 5.675 0 11.954 1 17 1l1 6Z"/><path fill="#0A828C" id="VISp2/3" d="m85 57 5 6c5.143 0 10.977-7.739 15.5-10 13.577-6.788 46.251-26 60.5-26l-1-8h-1c-21.13 0-42.652 15.076-60.5 24L85 56v1Z"/><path fill="#08858B" id="VISpm2/3" d="m174 25-8 2-1-8h10c0 1.32.684 6-1 6ZM290 27h1c0-2.707 1-5.903 1-8h-11l1 6 8 2Z"/><path fill="#0A828C" id="VISp2/3" d="M366 63h1l4-6v-1l-17.5-13c-17.02-8.51-41.722-24-61.5-24 0 2.097-1 5.293-1 8 0 2.099 7.032 1.266 8.5 2 7.694 3.847 16.307 6.153 24 10 9.819 4.91 19.267 10.133 29 15 3.627 1.813 9.535 9 13.5 9Z"/><path fill="#1CA697" id="RSPagl5" d="M176 37h1c3.115 0 9.153-5.653 11.5-8 1.053-1.053.047-4 2.5-4v-1c-5.827 0-14.132 3-17 3 0 3.898-4 6.27-4 10h6ZM281 37h6l-5-10c-3.003 0-10.64-3-16-3v1c0 5.452 13 11.507 13 12h2Z"/><path fill="#09828B" id="VISpm4" d="M166 29h1l7-2v-2l-8 2v2Z"/><path fill="#1AA596" id="RSPd5" d="M194 39c-7.372 0-10.518 5-17 5v-7c3.115 0 9.153-5.653 11.5-8 1.053-1.053.047-4 2.5-4 12.189 0 5 9.826 5 13l-2 1ZM263 39c7.389 0 13.652 7 18 7 0-1.2-2-4.638-2-9 0-.493-13-6.548-13-12-14.048 0-5 10.682-5 14h2Z"/><path fill="#09828B" id="VISpm4" d="M290 27v2l-8-2v-2l8 2Z"/><path fill="#0B848B" id="VISp4" d="M93 69h1c0-3.025 10.296-6.898 12.5-8 15.148-7.574 28.911-17.455 44-25l11-5c1.119-.56 4.5-.155 4.5-2v-2c-14.249 0-46.923 19.212-60.5 26-4.523 2.261-10.357 10-15.5 10v1c1.077 0 3 3.762 3 5Z"/><path fill="#088489" id="VISpm5" d="M167 38h1l2-1c0-3.73 4-6.102 4-10l-7 2v9ZM289 38h1v-9l-8-2 5 10 2 1Z"/><path fill="#0B848B" id="VISp4" d="M366 63c0 1.408-1.197 5-3 5-6.116 0-13.14-8.32-18.5-11-12.773-6.387-25.259-13.63-38-20-4.352-2.176-11.63-8-16.5-8v-2h1c0 2.099 7.032 1.266 8.5 2 7.694 3.847 16.307 6.153 24 10 9.819 4.91 19.267 10.133 29 15 3.627 1.813 9.535 9 13.5 9Z"/><path fill="#088389" id="VISp5" d="M98 77h1l14.5-10c10.934-5.467 42.5-28 52.5-28h1V29h-1c0 1.845-3.381 1.44-4.5 2l-11 5c-15.089 7.545-28.852 17.426-44 25-2.204 1.102-12.5 4.975-12.5 8l4 8ZM363 69l-5 8c-4.295 0-14.091-9.796-18.5-12-10.735-5.367-39.349-26-49.5-26V29c4.87 0 12.148 5.824 16.5 8 12.741 6.37 25.227 13.613 38 20 5.36 2.68 12.384 11 18.5 11v1Z"/><path fill="#1BA597" id="RSPv1" d="m164 67 1 2 12-11.5c6.197-6.197 34-14.684 34-22.5l-6 2h-2c0 3.281-6.036 4.768-8.5 6-4.991 2.496-30.5 18.152-30.5 24ZM293 67l-2 2-12-11.5c-6.266-6.266-34-15.178-34-22.5l7 2h1c0 3.196 7.578 5.039 9.5 6 8.251 4.125 17.165 10.165 24 17l6.5 7Z"/><path fill="#1CA597" id="RSPagl6a" d="M166 40c0 2.696-5 3.846-5 7 3.258 0 7.939-6.22 11.5-8l3.5-2h-6l-2 1-1 1-1 1Z"/><path fill="#1AA697" id="RSPd6a" d="m158 52 1 3c5.249 0 5.474-6 12-6l1-1 1-1 2-1 1-1 1-1v-7h-1l-3.5 2c-3.561 1.78-8.242 8-11.5 8 0 1.747-.253 2-2 2l-1 3Z"/><path fill="#1AA597" id="RSPv2/3" d="m162 65 2 2c0-5.848 25.509-21.504 30.5-24 2.464-1.232 8.5-2.719 8.5-6-1.71 0-7 2.14-7 1l-2 1c0 2.058-6.918 5.209-8.5 6-3.065 1.533-23.5 16.773-23.5 20ZM295 65l-2 2-6.5-7c-6.835-6.835-15.749-12.875-24-17-1.922-.961-9.5-2.804-9.5-6 3.303 0 5.115 2 8 2h2c0 .205 22.346 16.846 26 20.5l6 5.5Z"/><path fill="#1AA697" id="RSPd6a" d="M299 55v1c-6.765 0-9.114-9-16-9l-2-1c0-1.2-2-4.638-2-9h2c0 2.053 18 10.481 18 15-2.202 0-2.202 3 0 3Z"/><path fill="#1CA597" id="RSPagl6a" d="M299 52h1c0-3.994-9-6.829-9-11-1.577 0-2-1.762-2-3l-2-1h-6c0 2.053 18 10.481 18 15Z"/><path fill="#09858B" id="VISpm6a" d="m168 38-1 1v-1h1ZM290 39l1 2c-1.577 0-2-1.762-2-3h1v1Z"/><path fill="#08858C" id="VISp6a" d="M99 77c0 2.83 4 4.54 4 7 6.791 0 23.156-19 31-19 0-1.577 1.762-2 3-2 0-2.268 8.031-6 10-6l4-2c0-1.477 3.924-3 5-3h1c0-1.238.423-3 2-3l2-2c0-3.154 5-4.304 5-7v-1c-10 0-41.566 22.533-52.5 28L99 77Z"/><path fill="#09858B" id="VISpm6a" d="m167 39-1 1v-1h1Z"/><path fill="#1BA498" id="RSPv5" d="M157 61c0 1.811 3.438 4 5 4 0-3.227 20.435-18.467 23.5-20 1.582-.791 8.5-3.942 8.5-6-7.372 0-10.518 5-17 5l-1 1-1 1-2 1-1 1-1 1c0 3.069-11.423 12-14 12ZM299 61l-4 4-6-5.5c-3.654-3.654-26-20.295-26-20.5 7.389 0 13.652 7 18 7l2 1c0 1.002 15.12 14 16 14Z"/><path fill="#08858C" id="VISp6a" d="m358 78-5 6-13.5-9c-8.445-4.222-31.763-23-39.5-23 0-3.994-9-6.829-9-11l-1-2c10.151 0 38.765 20.633 49.5 26 4.409 2.204 14.205 12 18.5 12v1Z"/><path fill="#FF7AFD" id="SCzo" d="m294 80 1 1v-4l-2-2v-1l-8.5-9c-6.421-6.42-13.851-11.926-22-16-13.003-6.501-15.409-6.296-28 0l-5.5 6.5-.5 3.5-3.5-7.5c-2.038-4.075-10.854-6.677-14.5-8.5-2.176-1.088-23.747 10.373-27 12l-6.5 6c2.827 0 4.163-2.831 6.5-4 11.118-5.559 21.529-14.235 34-8 3.716 1.858 8.5 4.514 8.5 9.5 0 3.801 1 8.346 1 11.5 1.048 0 3 .473 3-1 0-4.257-.783-9.934 1-13.5 1.616-3.232 4.536-5.018 7.5-6.5 15.209-7.605 25.999 5.5 39 12 5.096 2.548 16.5 13.183 16.5 19Z"/><path fill="#1AA596" id="RSPd5" d="m177 44-1 1 1-1ZM176 45l-1 1 1-1Z"/><path fill="#FF78FF" id="SCsg" d="m164 75-1 5 12.5-8c11.109-5.555 23.013-9.507 34-15 8.974-4.487 14.644 13 17.5 13 0-3.154-1-7.699-1-11.5 0-4.986-4.784-7.642-8.5-9.5-12.471-6.235-22.882 2.441-34 8-2.337 1.169-3.673 4-6.5 4 0 1.747-.253 2-2 2 0 1.159-6.162 8-8 8 0 1.429-1.288 4-3 4ZM230 69c2.442 0 8.121-16.69 17.5-12 9.298 4.65 19.71 7.355 29 12 4.972 2.486 11.887 11 17.5 11 0-5.817-11.404-16.452-16.5-19-13.001-6.5-23.791-19.605-39-12-2.964 1.482-5.884 3.268-7.5 6.5-1.783 3.566-1 9.243-1 13.5Z"/><path fill="#1CA597" id="RSPagl6a" d="m161 47-2 2c1.747 0 2-.253 2-2Z"/><path fill="#1AA498" id="RSPv6a" d="m173 47-1 1 1-1ZM299 61h2l-2-5c-6.765 0-9.114-9-16-9 0 1.002 15.12 14 16 14ZM172 48l-1 1 1-1Z"/><path fill="#1CA597" id="RSPagl6a" d="M157 52h1l1-3c-1.577 0-2 1.762-2 3Z"/><path fill="#1AA498" id="RSPv6a" d="M155 61h2c2.577 0 14-8.931 14-12-6.526 0-6.751 6-12 6h-1l-1 1c0 2.25-2 3.376-2 5Z"/><path fill="#08858A" id="VISp6b" d="m156 54-5 1c0-1.477 3.924-3 5-3v2Z"/><path fill="#1AA598" id="RSPagl6b" d="M156 54h1v-2h-1v2Z"/><path fill="#1BA698" id="RSPd6b" d="M158 55h1l-1-3h-1v2l1 1ZM300 54l-1 1c-2.202 0-2.202-3 0-3l1 2Z"/><path fill="#1AA598" id="RSPagl6b" d="M300 54h1l-1-2h-1l1 2Z"/><path fill="#08858A" id="VISp6b" d="M353 85v1c-6.486 0-28.299-23-36-23 0-.87-13.327-9-16-9l-1-2c7.737 0 31.055 18.778 39.5 23l13.5 9v1Z"/><path fill="#09848A" id="VISl1" d="M67 73h1l4-4.5C75.294 65.206 81.736 57 85 57v-1l-3-3c-1.23 0-17 16.507-17 18l2 2ZM392 71l-3 2c-3.395 0-12.811-16-18-16v-1l3-3c2.144 0 18 16.253 18 18Z"/><path fill="#C9C9CA" id="scwm" d="M139 63h3c5.285 0 9.373-7 15-7l1-1-1-1h-1l-5 1c0 2.109-2.535 2-4 2 0 3.226-8 3.327-8 6ZM314 63h3c0-.87-13.327-9-16-9h-1l-1 1v1c5.841 0 9.826 7 15 7Z"/><path fill="#08858A" id="VISp6b" d="m151 55-4 2c1.465 0 4 .109 4-2Z"/><path fill="#C8C9CA" id="fp" d="m158 55-1 1 1-1ZM78 115h1c0-1.747.253-2 2-2 0-2.226 1.774-4 4-4 0-1.747.253-2 2-2l2-2c0-1.712 2.571-3 4-3l2-1c0-1.577 1.762-2 3-2 0-1.577 1.762-2 3-2 0-1.75 10.114-6 12-6 0-7.772 23.118-22 30-22h1c3.817 0 6.758-8 11-8 0-1.624 2-2.75 2-5-5.627 0-9.715 7-15 7 0 3.457-12.004 8.752-14.5 10-8.01 4.005-39.107 25.714-42.5 32.5-1.734 3.468-8 5.361-8 9.5h1ZM379 115h1c0-2.072-11.322-12.911-13.5-14l-11-10-27-18c-2.304-1.152-14.5-7.345-14.5-10-5.174 0-9.159-7-15-7l2 5c3.928 0 6.566 7 10 7l3 1c0-3.729 8.599 3.55 9.5 4 5.22 2.61 20.5 10.975 20.5 18l16.5 8 18.5 16Z"/><path fill="#0A8489" id="VISl2/3" d="M72 79h1l3.5-4c2.814-2.814 10.358-11 13.5-11v-1l-5-6c-3.264 0-9.706 8.206-13 11.5L68 73c0 3.103 4 2.75 4 6Z"/><path fill="#08858A" id="VISp6b" d="M137 63h2c0-2.673 8-2.774 8-6-1.969 0-10 3.732-10 6Z"/><path fill="#FD7AFF" id="SCop" d="M161 84c5.149 0 10.998-6.75 15.5-9 7.523-3.761 16.799-5.4 24-9 2.508-1.254 9.82-4.59 13-3l12 12 3-3 2 3 7-8c5.43-2.715 10.774-5.613 18-2 9.06 4.53 18.89 7.445 28 12l11.5 7v-3l-1-1c-5.613 0-12.528-8.514-17.5-11-9.29-4.645-19.702-7.35-29-12-9.379-4.69-15.058 12-17.5 12 0 1.473-1.952 1-3 1-2.856 0-8.526-17.487-17.5-13-10.987 5.493-22.891 9.445-34 15L163 80l-2 1v3Z"/><path fill="#0A8489" id="VISl2/3" d="M383 79h1l5-5v-1c-3.395 0-12.811-16-18-16l-4 6c0 3.657 16 11.768 16 16Z"/><path fill="#47C83C" id="POST" d="M124 109c5.587 0 12.081 1 17 1l6-8v-1l1-1 1-1 1-3 1-1 1-1 1-1v-1l1-1v-1l1-1 1-1 1-1v-1l1-1 3-6v-1l1-2 1-1 1-2 1-4-1-2-2-2c-1.562 0-5-2.189-5-4h-2c-4.242 0-7.183 8-11 8l-1 1-1 2-1 1v1l-1 1v1l-1 1-1 3-1 1-3 7-1 1-4 4c0 1.048.473 3-1 3 0 4.658-4 9.143-4 13Z"/><path fill="#FF7AFD" id="SCzo" d="M177 61c-1.747 0-2 .253-2 2 1.747 0 2-.253 2-2Z"/><path fill="#47C83C" id="POST" d="M332 109c-2.158 0-16-.801-16 1l-7-9v-1l-1-1-1-1v-1l-1-1-1-2-2-2v-1l-1-1-1-2-2-2v-1l-4-7v-1l-2-2v-1l-2-5 2-2 2-2 4-4h2c3.928 0 6.566 7 10 7l6 8v2l2 2v2l1 1 1 3 2 2 1 2 5 7c0 4.868 3 7.951 3 12Z"/><path fill="#08858A" id="VISp6b" d="M137 63c-1.238 0-3 .423-3 2 1.238 0 3-.423 3-2Z"/><path fill="#CBC9C7" id="or" d="M66 126c0 2.607-3 4.913-3 7 5.17 0 4.994-12 10-12 0-1.664 1.823-6 4-6 0-4.139 6.266-6.032 8-9.5 3.393-6.786 34.49-28.495 42.5-32.5 2.496-1.248 14.5-6.543 14.5-10h-5c0 1.577-1.762 2-3 2l-6.5 5L104 86l-3 1c0 2.006-10.203 10-12 10l-9 9c0 1.992-3.339 5-5 5 0 3.332-4.533 8.566-6 11.5l-3 3.5Z"/><path fill="#FF7AFD" id="SCzo" d="M175 63c-2.664 0-8 5.336-8 8 1.838 0 8-6.841 8-8Z"/><path fill="#FF90FF" id="SCig" d="M150 119h1c1.465 0 4 .109 4-2 0-20.067 21.15-28.325 36.5-36 2.793-1.397 15.071-8.465 18-7 1.564.782 3.538.269 5 1 5.098 2.549 6.653 10 14 10 6.407 0 11.584-7.792 18-11 3.414-1.707 14.996 5.498 18 7 15.523 7.761 36.5 15.58 36.5 36 1.624 0 2.75 2 5 2l1-1 3-4.5-1-9.5v-1l-1-1-1-3-1-1-7-10v-1c-2.215 0-1.519-2-3-2l-1-1-11.5-7c-9.11-4.555-18.94-7.47-28-12-7.226-3.613-12.57-.715-18 2l-7 8-2-3-3 3-12-12c-3.18-1.59-10.492 1.746-13 3-7.201 3.6-16.477 5.239-24 9-4.502 2.25-10.351 9-15.5 9l-1 1-1 1-1 1-1 1-1 1-1 2-1 1-1 1-1 2-1 1c0 1.238-.423 3-2 3v2l-1 1v1l-1 1v1c0 3.398-1.569 6.362 0 9.5l3 4.5Z"/><path fill="#CBC9C7" id="or" d="m391 127 2 7c-2.86 0-10.397-19-13-19 0-2.072-11.322-12.911-13.5-14l-11-10-27-18c-2.304-1.152-14.5-7.345-14.5-10h3c7.701 0 29.514 23 36 23l15 12 8 8 11 13.5c.675 1.35 2.239 7.5 4 7.5Z"/><path fill="#08828B" id="VISl4" d="M383 79c0 2.215-2 1.519-2 3-6.644 0-11.75-13-18-13v-1c1.803 0 3-3.592 3-5h1c0 3.657 16 11.768 16 16ZM75 83h1c0-.725 15.565-14 17-14 0-1.238-1.923-5-3-5-3.142 0-10.686 8.186-13.5 11L73 79l2 4Z"/><path fill="#08858A" id="VISp6b" d="m103 85 1 1 23.5-16 6.5-5c-7.844 0-24.209 19-31 19v1Z"/><path fill="#C9CCC9" id="dhc" d="M123 94h1l5-1 4-4 1-1 3-7 1-1 1-3 1-1v-1l1-1v-1l1-1 1-2v-1c-6.882 0-30 14.228-30 22 1.926 0 10 .84 10 3Z"/><path fill="#7DCD4B" id="HPF" d="m314 69 3 7-6-8 3 1Z"/><path fill="#C9CCC9" id="dhc" d="M344 91c-2.154 0-11 .567-11 3-3.895 0-6.251-4-9-4l-1-2-2-2-1-3-1-1v-2l-2-2v-2l-3-7c0-3.729 8.599 3.55 9.5 4 5.22 2.61 20.5 10.975 20.5 18Z"/><path fill="#0B858B" id="VISl5" d="M82 91h1c0-3.777 15-11.886 15-14l-4-8h-1c-1.435 0-17 13.275-17 14 1.89 0 6 6.374 6 8Z"/><path fill="#7DCD4B" id="HPF" d="m144 69-1 1v-1h1Z"/><path fill="#0B858B" id="VISl5" d="M373 91h1c0-2.233 5.192-8 7-8v-1c-6.644 0-11.75-13-18-13l-5 8v1c3.525 0 15 9.853 15 13Z"/><path fill="#7DCD4B" id="HPF" d="m143 70-1 2 1-2Z"/><path fill="#0C858C" id="VISli1" d="m56 81 3 2c2.149 0 8-7.502 8-10l-2-2-9 10Z"/><path fill="#FF7AFD" id="SCzo" d="M164 73v2c1.712 0 3-2.571 3-4l-3 2Z"/><path fill="#0C858C" id="VISli1" d="M397 84h1l2-3c0-1.902-6.968-10-8-10l-3 2v1l8 10Z"/><path fill="#7DCD4B" id="HPF" d="m142 72-1 1 1-1Z"/><path fill="#0A858A" id="VISli2/3" d="M64 89h1c0-3.434 7-5.94 7-10 0-3.25-4-2.897-4-6h-1c0 2.498-5.851 10-8 10v1l5 5Z"/><path fill="#7DCD4B" id="HPF" d="m141 74-1 1 1-1Z"/><path fill="#FF90FE" id="SCiw" d="M169 120c0-7.743 11.725-8.95 15-15.5 3.702-7.405 21.827-20.5 30.5-20.5 3.992 0 10.924 6.038 15 4 5.063-2.531 14.19-5.905 20-3 6.538 3.27 9.561 9.78 16 13 4.188 2.094 21.5 18.136 21.5 22l6.5 1 7.5-4c0-20.42-20.977-28.239-36.5-36-3.004-1.502-14.586-8.707-18-7-6.416 3.208-11.593 11-18 11-7.347 0-8.902-7.451-14-10-1.462-.731-3.436-.218-5-1-2.929-1.465-15.207 5.603-18 7-15.35 7.675-36.5 15.933-36.5 36l4.5 3c3.299 1.65 6.194 0 9.5 0Z"/><path fill="#0A858A" id="VISli2/3" d="M391 89h1l5-5-8-10-5 5c0 3.556 7 6.104 7 10Z"/><path fill="#FF7AFD" id="SCzo" d="m163 80-2 1v-3l1-2 1-1h1l-1 5Z"/><path fill="#7DCD4B" id="HPF" d="m140 76-1 1 1-1Z"/><path fill="#08848C" id="VISl6a" d="m83 91 5 5c4.686 0 7.46-9 13-9l2-2v-1c0-2.46-4-4.17-4-7h-1c0 2.114-15 10.223-15 14Z"/><path fill="#7DCD4B" id="HPF" d="m317 78 2 2-2-2Z"/><path fill="#08848C" id="VISl6a" d="M368 97h1c0-2.773 4-3.67 4-6 0-3.147-11.475-13-15-13l-5 6v1c2.343 0 15 9.1 15 12Z"/><path fill="#08828C" id="VISli4" d="m65 90 2 1 8-8-2-4h-1c0 4.06-7 6.566-7 10v1ZM389 92h1l1-1v-2c0-3.896-7-6.444-7-10h-1c0 2.215-2 1.519-2 3v1c2.097 0 8 7.148 8 9Z"/><path fill="#7DCD4B" id="HPF" d="m138 80-1 1 1-1Z"/><path fill="#15B0B3" id="TEa1" d="m32 141-5 1c0-15.247 6.673-27.845 13-40.5l7-9c.947-1.894 7.05-11.5 9-11.5l3 2v1L47 99.5c-6.625 13.25-15 25.517-15 41.5ZM424 141l5 1c0-23.372-8.894-29.288-18-47.5-1.058-2.115-9.447-13.5-11-13.5l-2 3 14 19.5c5.78 11.56 12 22.484 12 36.5v1Z"/><path fill="#7DCD4B" id="HPF" d="m319 82 1 1-1-1Z"/><path fill="#0A848A" id="VISli5" d="M67 93c3.414 0 4.207 6 8 6l7-8c0-1.626-4.11-8-6-8h-1l-8 8v2Z"/><path fill="#C7CBCB" id="bsc" d="M159 85h1l1-1v-1l-2 2ZM299 86v1c-2.215 0-1.519-2-3-2l-1-1v-1l3 2 1 1Z"/><path fill="#0A848A" id="VISli5" d="M381 100h1c0-3.889 7-4.417 7-8 0-1.852-5.903-9-8-9-1.808 0-7 5.767-7 8 1.009 0 7 7.49 7 9Z"/><path fill="#16AFB3" id="TEa2/3" d="m40 139-8 2c0-15.983 8.375-28.25 15-41.5L59 84l5 5-11 14.5c-6.085 12.17-13 20.592-13 35.5Z"/><path fill="#FF8FFF" id="SCdg" d="M275 125h1c0-2.064 3.353-.426 4.5-1 1.308-.654 5.314-4 6.5-4 0-3.864-17.312-19.906-21.5-22-6.439-3.22-9.462-9.73-16-13-5.81-2.905-14.937.469-20 3-4.076 2.038-11.008-4-15-4-8.673 0-26.798 13.095-30.5 20.5-3.275 6.55-15 7.757-15 15.5l6.5 4c1.147.574 4.5-1.064 4.5 1h2c1.954 0 10-1.586 10-4 0-11.799 7.562-23.031 17.5-28h37c9.649 4.825 18.5 16.329 18.5 28 0 3.008 7.116 4 10 4Z"/><path fill="#FF64FF" id="MB" d="m295 84 1 1-1-1Z"/><path fill="#16AFB3" id="TEa2/3" d="m417 139 7 1c0-14.016-6.22-24.94-12-36.5L398 84h-1l-5 5 7.5 10c8.103 4.052 17.5 30.22 17.5 40Z"/><path fill="#09858C" id="VISl6b" d="m104 86-3 1 2-2 1 1Z"/><path fill="#CAC7CB" id="fiber tracts" d="M158 86h1v-1h-1v1Z"/><path fill="#FF64FF" id="MB" d="m160 85-1 1v-1h1Z"/><path fill="#CAC7CB" id="fiber tracts" d="M299 85v1l-1-1h1Z"/><path fill="#09858C" id="VISl6b" d="M368 97v1l-15-12v-1c2.343 0 15 9.1 15 12Z"/><path fill="#CAC7CB" id="fiber tracts" d="M157 87h1v-1h-1v1Z"/><path fill="#C7CBCB" id="bsc" d="m159 86-1 1v-1h1Z"/><path fill="#7DCD4B" id="HPF" d="m321 86 2 2-2-2Z"/><path fill="#09858C" id="VISl6b" d="M88 97h1c1.797 0 12-7.994 12-10-5.54 0-8.314 9-13 9v1Z"/><path fill="#CAC7CB" id="fiber tracts" d="M156 88h1v-1l-1 1Z"/><path fill="#C7CBCB" id="bsc" d="m158 87-1 1v-1h1Z"/><path fill="#CAC7CB" id="fiber tracts" d="m301 88 1 2-3-2v-1l2 1Z"/><path fill="#7DCD4B" id="HPF" d="m134 88-1 1 1-1Z"/><path fill="#CAC7CB" id="fiber tracts" d="M155 89h1v-1l-1 1Z"/><path fill="#C7CBCB" id="bsc" d="m157 88-1 1v-1h1ZM306 98h1v-1l-1-1-1-2-2-2v-1l-1-1-3-2 7 10Z"/><path fill="#15B0B2" id="TEa4" d="M40 139h2c0-12.948 10.017-22.534 15-32.5.854-1.708 5.142-10.5 7-10.5v-1l1-2v-4h-1l-11 14.5c-6.085 12.17-13 20.592-13 35.5Z"/><path fill="#C7CBCB" id="bsc" d="M155 90v1l1-2h-1v1Z"/><path fill="#15B0B2" id="TEa4" d="M414 139h3c0-9.78-9.397-35.948-17.5-40L392 89h-1v2c0 .839 1.93 2 0 2v1l1 1 1 1v1c2.058 0 5.209 6.918 6 8.5 5.635 11.271 15 19.898 15 33.5Z"/><path fill="#0A828A" id="VISpor4" d="M65 93h2v-2l-2-1v3Z"/><path fill="#CAC7CB" id="fiber tracts" d="M154 91h1v-1h-1v1Z"/><path fill="#7DCD4B" id="HPF" d="M333 94c0 2.266-4-.454-4 3l-5-7c2.749 0 5.105 4 9 4Z"/><path fill="#088488" id="VISli6a" d="M79 105h1l8-8v-1l-5-5h-1l-7 8v1c.841 0 4 4.008 4 5Z"/><path fill="#C7C8CC" id="alv" d="M123 94h-12.5c-2.647 1.323-6.4 3-9.5 3 0-1.75 10.114-6 12-6 1.926 0 10 .84 10 3Z"/><path fill="#CAC7CB" id="fiber tracts" d="M153 92h1v-1l-1 1Z"/><path fill="#C7CBCB" id="bsc" d="m155 91-1 1v-1h1Z"/><path fill="#C7C8CC" id="alv" d="M379 115c0 2.919 4 4.243 4 7-2.832 0-14.476-19-20-19 0-6.455-24.03-9-30-9 0-2.433 8.846-3 11-3l16.5 8 18.5 16Z"/><path fill="#088488" id="VISli6a" d="m381 100-4 4-8-7c0-2.773 4-3.67 4-6h1c1.009 0 7 7.49 7 9Z"/><path fill="#0A828A" id="VISpor4" d="m390 92 1 1c1.93 0 0-1.161 0-2l-1 1Z"/><path fill="#C7CBCB" id="bsc" d="m154 92-1 1v-1h1Z"/><path fill="#CAC7CB" id="fiber tracts" d="m303 92 2 2-2-2Z"/><path fill="#0B838A" id="VISpor5" d="M392 114h1c0-4.24-2-9.607-2-13.5 0-.704.251-3.5 2-3.5v-1l-1-1-1-1v-1l-1-1h-1c0 3.583-7 4.111-7 8 0 4.54 10 8.782 10 14Z"/><path fill="#0A828A" id="VISpor4" d="M64 95h1v-2l-1 2Z"/><path fill="#0B838A" id="VISpor5" d="m75 100-10 11c0-5.45-1-10.816-1-15l1-1v-2h2c3.414 0 4.207 6 8 6v1Z"/><path fill="#7DCD4B" id="HPF" d="m124 94 4 2c1.473 0 1-1.952 1-3l-5 1Z"/><path fill="#C7CBCB" id="bsc" d="M152 94v1l1-2-1 1Z"/><path fill="#FF8FFE" id="SCdw" d="M262 121h3c0-11.671-8.851-23.175-18.5-28h-37c-9.938 4.969-17.5 16.201-17.5 28h2c0-8.61 9.531-22.016 17.5-26h33c8.773 4.386 17.5 16.64 17.5 26Z"/><path fill="#4FC244" id="SUB" d="m108 129-2 1c-1.325 0-2.43-5.361-3-6.5-2.911-5.822-10-13.775-10-20.5v-1l2-1c1.238 0 3-.423 3-2 1.238 0 3-.423 3-2 3.1 0 6.853-1.677 9.5-3H124l4 2c0 4.658-4 9.143-4 13 0 4.69-16 16.113-16 20Z"/><path fill="#CAC7CB" id="fiber tracts" d="M151 95h1v-1l-1 1Z"/><path fill="#4FC244" id="SUB" d="m350 130 1 1c0-10.093 12-17.677 12-28 0-6.455-24.03-9-30-9 0 2.266-4-.454-4 3 0 4.868 3 7.951 3 12l18 21Z"/><path fill="#0A828A" id="VISpor4" d="m391 94 1 1-1-1Z"/><path fill="#15AFB3" id="TEa5" d="m65 95-1 1v-1h1Z"/><path fill="#CAC7CB" id="fiber tracts" d="M150 96h1v-1l-1 1Z"/><path fill="#C7CBCB" id="bsc" d="m152 95-1 1v-1h1Z"/><path fill="#FC8FFF" id="PAG" fill-rule="evenodd" d="m233 135-1 3.5c1.125 2.249 8.479 8.01 11.5 6.5 5.799-2.899-7.661-10-10.5-10m-12 0c0 1.233-14.849 6.326-7.5 10 4.173 2.087 16.168-10 7.5-10m18 14h4l1-1 1-1c3.155 0 12.938-19 17-19v-7c0-9.36-8.727-21.614-17.5-26h-33c-7.969 3.984-17.5 17.39-17.5 26v7c4.651 0 14.554 19 17 19l1 1h1l4 1c0-2.461 3.378-2 5-2 4.765 0 5-19.776 5-24l-1-2.5c.986-1.973 5-3.115 5 0l-2 2.5c0 2.253.984 6.469 2 8.5v14l3 1.5c1.622 0 5-.461 5 2Z"/><path fill="#15AFB3" id="TEa5" d="m392 95 1 1-1-1ZM42 139h11l1-1c0-3.432 7.83-23 10-23v-2l1-2c0-5.45-1-10.816-1-15-1.858 0-6.146 8.792-7 10.5-4.983 9.966-15 19.552-15 32.5Z"/><path fill="#C7CBCB" id="bsc" d="M151 96c0 1.238-.423 3-2 3l1-3h1Z"/><path fill="#CAC7CB" id="fiber tracts" d="m306 96 1 1-1-1Z"/><path fill="#08818B" id="VISli6b" d="M80 105v1l9-9h-1l-8 8Z"/><path fill="#C7C8CC" id="alv" d="M101 97c-1.238 0-3 .423-3 2 1.238 0 3-.423 3-2Z"/><path fill="#08818B" id="VISli6b" d="m377 105-1 1-8-8v-1h1l8 7v1Z"/><path fill="#15AFB3" id="TEa5" d="M403 139h11c0-13.602-9.365-22.229-15-33.5-.791-1.582-3.942-8.5-6-8.5-1.749 0-2 2.796-2 3.5 0 3.893 2 9.26 2 13.5 0 6.68 10 16.053 10 24v1Z"/><path fill="#FF64FF" id="MB" d="M307 98v1l-1-1h1Z"/><path fill="#CAC7CB" id="fiber tracts" d="M307 99h1l-1-1v1Z"/><path fill="#C7C8CC" id="alv" d="M98 99c-1.238 0-3 .423-3 2 1.238 0 3-.423 3-2Z"/><path fill="#C7CBCB" id="bsc" d="M148 101h1v-2l-1 1v1ZM308 102h1v-2l-1-1h-1l1 3Z"/><path fill="#0C858B" id="VISpor6a" d="m64 115 1 9c4.151 0 4.603-13 10-13 0-2.773 4-3.67 4-6 0-.992-3.159-5-4-5l-10 11-1 2v2ZM392 114c0 1.657.763 10-1 10 0-1.698-8.723-13.223-10.5-15l-3.5-4v-1l4-4h1c0 4.54 10 8.782 10 14Z"/><path fill="#C7C8CC" id="alv" d="m95 101-2 1 2-1Z"/><path fill="#C7CBCB" id="bsc" d="M147 103h1v-2h-1v2Z"/><path fill="#FF64FF" id="MB" d="m149 101-1 1v-1h1Z"/><path fill="#C7C8CC" id="alv" d="m93 103-4 2c0-1.712 2.571-3 4-3v1Z"/><path fill="#FF64FF" id="MB" d="M309 102v1l-1-1h1Z"/><path fill="#57B947" id="ProS" d="m71 195 2 2c5.961 0 17.48-12 26-12l-4-8.5c-.78-1.561-1.977-21.045-1-23 2.729-5.458 4.237-11.474 7-17l5-6.5c-1.325 0-2.43-5.361-3-6.5-2.911-5.822-10-13.775-10-20.5l-4 2c0 1.747-.253 2-2 2l-2 2-4 4-2 2c0 1.747-.253 2-2 2l-1 2-1 1c0 1.238-.423 3-2 3l-1 2-1 1v1c0 1.238-.423 3-2 3v1l-1 2-1 2c0 1.424-.362 5-2 5v1c0 1.145.58 4-1 4 0 1.406.714 7-1 7v12c1.232 0 2 10.288 2 12v1c1.353 0 2 4.643 2 6v1c1.353 0 2 4.643 2 6v1c1.577 0 2 1.762 2 3v1Z"/><path fill="#FF64FF" id="MB" d="m148 103-1 1v-1h1Z"/><path fill="#57B947" id="ProS" d="M383 197h1l1-2 1-2 1-2c0-1.424.362-5 2-5v-1c0-1.623.005-6 2-6v-1c0-1.488.924-11 2-11v-19c-.618 0-4-11.698-4-13v-2c-1.577 0-2-1.762-2-3v-1c-1.577 0-2-1.762-2-3v-1l-2-2v-1c-2.832 0-14.476-19-20-19 0 10.323-12 17.907-12 28l5 6.5c3.027 6.053 4.028 13.055 7 19 4.508 9.016-5 20.764-5 28.5 7.177 0 20.314 12 25 12Z"/><path fill="#FF64FF" id="MB" d="M307 118h4c0-1.712-1.212-3 2-3l-2-2.5c-.813-1.625.67-8.5-2-8.5l1 9.5-3 4.5Z"/><path fill="#0C848C" id="VISpor6b" d="M80 106c0 1.992-3.339 5-5 5 0-2.773 4-3.67 4-6h1v1Z"/><path fill="#C7C8CC" id="alv" d="m89 105-2 2c1.747 0 2-.253 2-2Z"/><path fill="#FF64FF" id="MB" d="m146 118 4 1-3-4.5c-1.569-3.138 0-6.102 0-9.5-1.373 0-3 8.535-3 10 2.293 0 2 .997 2 3Z"/><path fill="#0C848C" id="VISpor6b" d="M391 126v1c-1.761 0-3.325-6.15-4-7.5L376 106l1-1 3.5 4c1.777 1.777 10.5 13.302 10.5 15v2Z"/><path fill="#C7C8CC" id="alv" d="M87 107c-1.747 0-2 .253-2 2l2-2ZM85 109c-2.226 0-4 1.774-4 4l4-4Z"/><path fill="#59B847" id="PRE" d="M123 141h2l1-4 1-1c0-3.238 3-5.3 3-8l1-1c0-5.708 10-11.55 10-17-4.919 0-11.413-1-17-1 0 4.69-16 16.113-16 20l3.5-2c8.694-4.347 11.5 8.565 11.5 14ZM333 139c0 1.747-.253 2-2 2v-3l-1-1c0-8.877-14-19.352-14-27 0-1.801 13.842-1 16-1l18 21-5.5-3c-7.026-3.513-11.5 7.131-11.5 12Z"/><path fill="#0B838A" id="VISpor5" d="m65 111-1 2 1-2Z"/><path fill="#0C848C" id="VISpor6b" d="M65 126h1l3-3.5c1.467-2.934 6-8.168 6-11.5-5.397 0-5.849 13-10 13v2Z"/><path fill="#C7C8CC" id="alv" d="M81 113c-1.747 0-2 .253-2 2l2-2Z"/><path fill="#15AFB2" id="TEa6a" d="M403 138c-1.564 0-3.876 1-6 1l-1-1c0-2.196-2.765-12-5-12v-2c1.763 0 1-8.343 1-10h1c0 6.68 10 16.053 10 24ZM60 138l-1 1-5-1c0-3.432 7.83-23 10-23l1 9v2c0 3.926-5 7.609-5 12Z"/><path fill="#C8CBCC" id="ec" d="m75 120-2 1c0-1.664 1.823-6 4-6h1l-1 2-1 2-1 1Z"/><path fill="#C7C8CC" id="alv" d="M79 115c0 1.747-.253 2-2 2l1-2h1Z"/><path fill="#C9C8C8" id="bic" d="m139 141-4 2c0-4.674.793-28 9-28 2.293 0 2 .997 2 3l-1 1c0 2.827-2.831 4.163-4 6.5l-2 15.5ZM317 141c1.624 0 2.75 2 5 2 0-5.48-2.852-28-9-28-3.212 0-2 1.288-2 3l5 9.5 1 13.5Z"/><path fill="#C8CBCC" id="ec" d="M385 195v2c2.268 0 4.228-5.956 5-7.5 3.921-7.842 7-20.341 7-29.5v-10c0-4.371-2-8.019-2-12l-1-3-1-1c-2.86 0-10.397-19-13-19h-1c0 2.919 4 4.243 4 7v1l2 2v1c1.577 0 2 1.762 2 3v1l2 3v2c2.936 0 4 10.46 4 13v1c1.652 0 1.652 18 0 18 0 2.161.497 11-2 11v1c0 1.357-.647 6-2 6v1c0 1.424-.362 5-2 5l-1 2-1 2Z"/><path fill="#C7C8CC" id="alv" d="m77 117-1 2 1-2Z"/><path fill="#FF64FF" id="MB" d="M151 125h29c0-2.064-3.353-.426-4.5-1l-6.5-4c-3.306 0-6.201 1.65-9.5 0l-4.5-3c0 2.109-2.535 2-4 2v6ZM276 125l25.5-1 4.5 2v-7c-2.25 0-3.376-2-5-2l-7.5 4-6.5-1c-1.186 0-5.192 3.346-6.5 4-1.147.574-4.5-1.064-4.5 1ZM146 118l-1 1 1-1Z"/><path fill="#FE7AFD" id="NB" d="M147 136c-1.59 0-1.443 4.386-2 5.5-1.018 2.036-6 2.349-6-.5l2-15.5c1.169-2.337 4-3.673 4-6.5l1-1 4 1h1v7l-1 1c-1.014 0-2 3.959-2 5l-1 1v3Z"/><path fill="#A9A9A8" id="AQ" d="M227 123h2l2-2.5c0-3.115-4.014-1.973-5 0l1 2.5Z"/><path fill="#FE7AFD" id="NB" d="M309 134c1.993 0 1.35 5.2 2 6.5 1.202 2.404 6 4.205 6 .5l-1-13.5-5-9.5h-4l-1 1v7c0 2.7 3 4.762 3 8Z"/><path fill="#C7C8CC" id="alv" d="m76 119-1 1 1-1ZM73 121v2c1.577 0 2-1.762 2-3l-2 1Z"/><path fill="#C8CBCC" id="ec" d="M73 199v1c-2.236 0-3.287-5.074-4-6.5-5.222-10.443-9-20.931-9-33.5 0-2.69-1-6.675-1-10l2-12c1.014 0 2-3.959 2-5 5.17 0 4.994-12 10-12v2l-1 2-1 1v1c-1.577 0-2 1.762-2 3v1l-1 2-1 2c-1.638 0-2 3.576-2 5v1c-1.58 0-1 2.855-1 4-1.714 0-1 5.594-1 7v1c-1.622 0-1.622 9 0 9v2c0 2.264-.627 12 2 12v1c0 1.623.005 6 2 6v1c0 1.357.647 6 2 6v1c0 1.238.423 3 2 3v1c0 1.238.423 3 2 3v1Z"/><path fill="#FF64FF" id="MB" d="M182 125c0 .256 10.955 3 12 3v-7h-2c0 2.414-8.046 4-10 4ZM275 125c0 .164-11.956 3-13 3v-7h3c0 3.008 7.116 4 10 4Z"/><path fill="#C7C8CC" id="alv" d="m73 123-1 2 1-2Z"/><path fill="#FF64FF" id="MB" d="M233 167c-1.902 0-6.072-1.714-7.5-1l-2.5 2c0-.524 1.962-5 .5-5l-2.5 2v-6l3.5 4c4.774 0-1.5-4.771-1.5-6 6.198 0-1-8.761-1-10 4.765 0 5-19.776 5-24h2c0 2.253.984 6.469 2 8.5v14l3 1.5c0 2.535-7.541 10 0 10 0 .499-6.793 6-1 6v4Z"/><path fill="#C7C8CC" id="alv" d="m383 123 2 2-2-2Z"/><path fill="#FF8FFD" id="MRN" fill-rule="evenodd" d="M195 161c0 2.598-7.784 4.933-5 10.5 9.587 19.173 32.29-10.5 5-10.5m14 18c-2.013 0-6.082 3.791-8.5 5-4.681 2.34-10.917 0-15.5 0 0-2.594 7.799-.901 4-8.5-2.731-5.463-22-6.278-22-.5-3.93 0-6.861-8.222-8-10.5-4.495-8.99-12-17.763-12-28.5v-3l1-1c0-1.041.986-5 2-5l1-1v-1h31c0 .256 10.955 3 12 3 4.651 0 14.554 19 17 19l1 1h1l3 4c0 3.694 5 4.561 5 7v5c-4.945 0-12 10.496-12 15ZM253 161c0 2.816-6.904 5.693-5 9.5 9.083 18.166 28.266-2.117 13.5-9.5H253m-6 17 8.5 6c4.949 2.475 11.543 0 16.5 0 0-1.18-7.989-2.522-5-8.5 2.7-5.399 22-6.952 22-.5 3.836 0 6.395-6.289 8-9.5 5.258-10.515 12-18.735 12-31.5 0-3.238-3-5.3-3-8l-4.5-2-25.5 1h-1c0 .164-11.956 3-13 3-4.062 0-13.845 19-17 19l-1 1-1 1-2 3c0 1.6-4.129 7-6 7v5c4.976 0 12 8.992 12 14Z"/><path fill="#C7C8CC" id="alv" d="m72 125-1 1 1-1Z"/><path fill="#16B0B2" id="TEa6b" d="M60 138h1c1.014 0 2-3.959 2-5 0-2.087 3-4.393 3-7h-1c0 3.926-5 7.609-5 12Z"/><path fill="#FF64FF" id="MB" d="m151 126-1 1 1-1Z"/><path fill="#C7C8CC" id="alv" d="M385 126c1.577 0 2 1.762 2 3-1.577 0-2-1.762-2-3Z"/><path fill="#16B0B2" id="TEa6b" d="M395 138h1c0-2.196-2.765-12-5-12v1l2 7 1 1 1 3Z"/><path fill="#C7C8CC" id="alv" d="M71 127c-1.577 0-2 1.762-2 3 1.577 0 2-1.762 2-3Z"/><path fill="#7BD04A" id="DG-mo" d="M120 211c1.624 0 2.75 2 5 2 7.297 0 8-12.24 8-17 0-6.499-1.376-8.252-4-13.5-4.433-8.866-6-20.851-6-31.5v-10c0-5.435-2.806-18.347-11.5-14l-3.5 2-2 1-5 6.5c-2.763 5.526-4.271 11.542-7 17-.977 1.955.22 21.439 1 23l4 8.5c0 7.289 21 20.997 21 26Z"/><path fill="#7DCD4B" id="HPF" d="m131 127-1 1 1-1Z"/><path fill="#7BD04A" id="DG-mo" d="M336 211h1c0-1.315 14.141-17.641 16.5-20l4.5-6c0-7.736 9.508-19.484 5-28.5-2.972-5.945-3.973-12.947-7-19l-5-6.5-1-1-5.5-3c-7.026-3.513-11.5 7.131-11.5 12 1.206 0 1.206 10 0 10 0 10.025.153 21.194-4 29.5-2.836 5.671-6 9.533-6 16.5 0 4.43 2.387 18 8 18 2.25 0 3.376-2 5-2Z"/><path fill="#C7C8CC" id="alv" d="m387 130 2 3c-1.577 0-2-1.762-2-3ZM69 131l-1 2 1-2Z"/><path fill="#FF64FF" id="MB" d="m148 132-1 1 1-1Z"/><path fill="#C7C8CC" id="alv" d="m68 133-1 2 1-2Z"/><path fill="#FF64FF" id="MB" fill-rule="evenodd" d="M228 188c0 5.567 2.112 0 0 0m-81-24c0 3.746 2.091 0 0 0m145 51-1 1c-5.716 0 3.137-11-5-11 0-6.53-14.493-25.513-19-16.5l1 3.5c-8.34 0-20-17.549-20 7l-6 1c0-8.078-11-6.152-11-4h-5c-2.412 0-5.526-3.487-8.5-2-2.04 1.02-2.424 6-3.5 6l-5-1c0-21.334-10.99-8-20-8 0-6.342-5.564-3.968-9.5-2-5.247 2.624-8.5 10.718-8.5 16-9.043 0 .231 9.135-3.5 11l-3.5-2-6.5-8-5.5 2c0-14.532-8.936-27.372-15-39.5-3.937-7.874-2-16.896-2-25.5l4-2c0 2.849 4.982 2.536 6 .5.557-1.114.41-5.5 2-5.5 0 10.737 7.505 19.51 12 28.5 1.139 2.278 4.07 10.5 8 10.5 0 2.477 2.011 2.522 3 4.5 3.602 7.205 8.734 4.5 15 4.5 4.583 0 10.819 2.34 15.5 0 2.418-1.209 6.487-5 8.5-5l-1 4.5c0 15.226 7-.138 7-5.5l2-3c0 3.669-.698 4 2 4 0 2.382 3.114 8.693 6.5 7l3-3c2.302 0 3.475 6.551 6.5.5 1.24-2.48 2-2.437 2-5.5 2.452 0 2 4.027 2-4 2.943 0 3.878 12.256 5 14.5.948 1.897 3.052 1.897 4 0v-3l1-3-2-4.5 8.5 6c4.949 2.475 11.543 0 16.5 0 5.87 0 17 .984 17-9 3.836 0 6.395-6.289 8-9.5 5.258-10.515 12-18.735 12-31.5 1.993 0 1.35 5.2 2 6.5 1.202 2.404 6 4.205 6 .5 1.624 0 2.75 2 5 2 0 23.961-7.22 35.94-17 55.5-1.592 3.184 1 8.819 1 11.5l-4.5-4c-3.097-1.549-4.71 2.919-5.5 4.5l-3 3.5-1 1Z"/><path fill="#C9C9CA" id="scwm" d="m393 134 1 1-1-1Z"/><path fill="#C7C8CC" id="alv" d="M67 135c-1.638 0-2 3.576-2 5 1.638 0 2-3.576 2-5Z"/><path fill="#FD90FC" id="Su3" d="M221 135c0 1.233-14.849 6.326-7.5 10 4.173 2.087 16.168-10 7.5-10ZM233 135l-1 3.5c1.125 2.249 8.479 8.01 11.5 6.5 5.799-2.899-7.661-10-10.5-10Z"/><path fill="#C7C8CC" id="alv" d="M389 135c2.936 0 4 10.46 4 13-.618 0-4-11.698-4-13Z"/><path fill="#7DCD4B" id="HPF" d="m127 136-1 1 1-1ZM330 137l1 1-1-1Z"/><path fill="#0E9F91" id="ECT6a" d="M58 150c-2.58 0-1.081 2-1.5 2-1.502 0-2.989-1-4.5-1l1-12 1-1 5 1-1 11ZM60 138l-1 1 1-1Z"/><path fill="#0E9F90" id="ECT6b" d="M58 150h1l2-12h-1l-1 1-1 11ZM397 150h2l-2-11-1-1h-1c0 3.981 2 7.629 2 12Z"/><path fill="#0E9F91" id="ECT6a" d="M399 150c1.852 0 3.309 1 5 1l-1-12v-1c-1.564 0-3.876 1-6 1l2 11Z"/><path fill="#0D9F91" id="ECT2/3" d="M43 151c0 1.175-5.704 2-7 2-2.978 0-4-9.63-4-12l8-2h2l1 11v1Z"/><path fill="#0D9E90" id="ECT5" d="M52 151v1l-1.5-2-2.5 1-5-1-1-11h11l-1 12Z"/><path fill="#7DCD4B" id="HPF" d="m331 141 2 8c1.206 0 1.206-10 0-10 0 1.747-.253 2-2 2Z"/><path fill="#0D9E90" id="ECT5" d="M413 150c-4.515 0-7.633 1-9 1l-1-12h11c0 3.642-1 8.002-1 11Z"/><path fill="#0D9F91" id="ECT2/3" d="M420 154h1c0-4.055 3-8.009 3-13v-1l-7-1h-3c0 3.642-1 8.002-1 11v1c.705 0 7 1.094 7 3Z"/><path fill="#0D9F90" id="ECT1" d="M36 154c-1.658 0-3 1.461-3 3-4.473 0-6-11.932-6-15l5-1c0 2.37 1.022 12 4 12v1Z"/><path fill="#C7C8CC" id="alv" d="M65 141c-1.58 0-1 2.855-1 4 1.58 0 1-2.855 1-4Z"/><path fill="#7DCD4B" id="HPF" d="M125 141c0 1.495-.84 10-2 10v-10h2Z"/><path fill="#0D9F90" id="ECT1" d="m421 154 3 3c0-.555 5-8.255 5-15l-5-1c0 4.991-3 8.945-3 13Z"/><path fill="#C7C8CC" id="alv" d="M64 145c-1.714 0-1 5.594-1 7 1.714 0 1-5.594 1-7Z"/><path fill="#FF64FF" id="MB" d="m211 147 1 1-1-1Z"/><path fill="#FE90FF" id="III" d="M222 157h1c6.198 0-1-8.761-1-10-1.622 0-5-.461-5 2 0 4.045 5 5.458 5 8ZM237 155c-1.238 0-3 .423-3 2-7.541 0 0-7.465 0-10 1.622 0 5-.461 5 2v4l-1 1-1 1Z"/><path fill="#FF64FF" id="MB" d="m245 147-1 1 1-1ZM216 152c2.572 0 2.494 5 6 5 0-2.542-5-3.955-5-8l-4-1 3 4ZM244 148l-1 1 1-1ZM239 152h2l2-3h-4v3Z"/><path fill="#C7C8CC" id="alv" d="M393 149c1.652 0 1.652 18 0 18v-18Z"/><path fill="#0F9684" id="PERI5" d="M47 161h4l2-1-1-8-1.5-2-2.5 1-5-1v1c.567 0 4 8.99 4 10Z"/><path fill="#0E9684" id="PERI6a" d="M55 160h2l1-10c-2.58 0-1.081 2-1.5 2-1.502 0-2.989-1-4.5-1v1l1 8h2Z"/><path fill="#0E9683" id="PERI6b" d="M57 160h3c0-2.69-1-6.675-1-10h-1l-1 10ZM397 160h2v-10h-2v10Z"/><path fill="#0E9684" id="PERI6a" d="m401 160 3 1v-10c-1.691 0-3.148-1-5-1v10h2Z"/><path fill="#0F9684" id="PERI5" d="M406 161h4l3-10v-1c-4.515 0-7.633 1-9 1v10h2Z"/><path fill="#0E9583" id="PERI2/3" d="M45 161h2c0-1.01-3.433-10-4-10 0 1.175-5.704 2-7 2v1c1.87 0 3 7.329 3 9l6-2ZM411 161l7 2c0-3.423 2-6.474 2-9 0-1.906-6.295-3-7-3l-3 10h1Z"/><path fill="#CBCBCC" id="mlf" d="M223 157c0 1.229 6.274 6 1.5 6l-3.5-4c0-2.439-5-3.306-5-7 2.572 0 2.494 5 6 5h1ZM235 159c-2.109 0-2 2.535-2 4-5.793 0 1-5.501 1-6 1.238 0 3-.423 3-2l1-1 1-1v-1h2c0 1.6-4.129 7-6 7Z"/><path fill="#C7C8CC" id="alv" d="M63 153c-1.622 0-1.622 9 0 9v-9Z"/><path fill="#FF64FF" id="MB" d="m239 153-1 1 1-1Z"/><path fill="#0E9584" id="PERI1" d="M38 163h1c0-1.671-1.13-9-3-9-1.658 0-3 1.461-3 3v8l5-2Z"/><path fill="#FF64FF" id="MB" d="m238 154-1 1 1-1Z"/><path fill="#0E9584" id="PERI1" d="m418 163 5 1c0-3.051 1-5.183 1-7l-3-3h-1c0 2.526-2 5.577-2 9Z"/><path fill="#FF64FF" id="MB" d="M237 155c-1.238 0-3 .423-3 2 1.238 0 3-.423 3-2ZM233 163l2 1v-5c-2.109 0-2 2.535-2 4Z"/><path fill="#31B824" id="ENTl5" d="M77 229h1l4-4v-1c0-1.497-15.073-17.645-17-21.5-6.684-13.368-10-26.326-10-42.5h-2l-2 1c0 16.985-4.224 26.052 4 42.5 3.42 6.839 8.901 12.901 14.5 18.5l7.5 7Z"/><path fill="#32B824" id="ENTl6a" d="M87 220c0 1.533-3.753 4-5 4 0-1.497-15.073-17.645-17-21.5-6.684-13.368-10-26.326-10-42.5h5c0 12.569 3.778 23.057 9 33.5.713 1.426 1.764 6.5 4 6.5v1l2 2v1l2 2v1l1 1 9 12ZM369 221c2.364 0 3.053 3 5 3l7.5-9c2.885-1.443 5.955-6.411 7.5-9.5 9.634-19.269 12-21.951 12-45.5h-4c0 9.159-3.079 21.658-7 29.5-.772 1.544-2.732 7.5-5 7.5l-1 2-1 2-1 2-1 1-1 2-1 1-2 2c0 1.429-1.288 4-3 4l-1 1-1 1-1 2-2 2v2Z"/><path fill="#31B824" id="ENTl5" d="m374 225 5 4c1.852 0 13.004-12.508 14-14.5l8-10c6.96-13.921 5-27.613 5-43.5h-2l-3-1c0 23.549-2.366 26.231-12 45.5-1.545 3.089-4.615 8.057-7.5 9.5l-7.5 9v1Z"/><path fill="#32B825" id="ENTl2" d="M68 239h1c0-1.429 1.288-4 3-4v-1c-3.098 0-14.62-13.742-16-16.5-4.663-9.326-8.414-18.829-13-28-2.97-5.94 2-22.155 2-28.5l-6 2h-1c0 3.549-2.403 10.305-4 13.5-3.41 6.821 7.996 36.992 11 43 2.974 5.947 9.478 12.489 15.5 15.5 1.317.659 7.5 2.269 7.5 4Z"/><path fill="#32B725" id="ENTl3" d="m77 229-5 5c-3.098 0-14.62-13.742-16-16.5-4.663-9.326-8.414-18.829-13-28-2.97-5.94 2-22.155 2-28.5h6c0 16.985-4.224 26.052 4 42.5 3.42 6.839 8.901 12.901 14.5 18.5l7.5 7Z"/><path fill="#FE90FD" id="RN" d="M195 161c0 2.598-7.784 4.933-5 10.5 9.587 19.173 32.29-10.5 5-10.5ZM253 161c0 2.816-6.904 5.693-5 9.5 9.083 18.166 28.266-2.117 13.5-9.5H253Z"/><path fill="#32B725" id="ENTl3" d="M384 235h1c0-3.811 5.835-6.667 8.5-8 4.728-2.364 9.373-12.245 11.5-16.5 2.643-5.285 12.18-26.641 9-33-1.882-3.764-3-12.299-3-16.5h-5c0 15.887 1.96 29.579-5 43.5l-8 10c-.996 1.992-12.148 14.5-14 14.5v1l5 5Z"/><path fill="#32B825" id="ENTl2" d="m385 235 3 3c4.955 0 7.389-3.945 11.5-6 15.67-7.835 15.399-29.299 22.5-43.5 3.784-7.569-4-19.92-4-25.5l-7-2c0 4.201 1.118 12.736 3 16.5 3.18 6.359-6.357 27.715-9 33-2.127 4.255-6.772 14.136-11.5 16.5-2.665 1.333-8.5 4.189-8.5 8Z"/><path fill="#32B722" id="ENTl1" d="m68 239-3 4c-3.35 0-7.506-5.503-10.5-7-14.64-7.32-18.98-34.462-25.5-47.5v-17l4-6.5 5-2c0 3.549-2.403 10.305-4 13.5-3.41 6.821 7.996 36.992 11 43 2.974 5.947 9.478 12.489 15.5 15.5 1.317.659 7.5 2.269 7.5 4Z"/><path fill="#C8C8C8" id="mtg" d="M217 175c0 3.669-.698 4 2 4 0-2.124 1-4.436 1-6l1-1 2-4c0-.524 1.962-5 .5-5l-2.5 2c0 4.211-4 5.789-4 10ZM239 174c0 8.027.452 4-2 4 0-2.124-1-4.436-1-6l-1-1-1-2-1-1v-5l2 1c0 4.116 4 6.343 4 10Z"/><path fill="#32B722" id="ENTl1" d="M388 239c1.712 0 3 2.571 3 4 5.499 0 9.784-7.642 14.5-10 10.054-5.027 16.46-32.42 21.5-42.5 1.003-2.005-.056-4.888 1-7 3.319-6.639-5-15.117-5-19.5l-5-1c0 5.58 7.784 17.931 4 25.5-7.101 14.201-6.83 35.665-22.5 43.5-4.111 2.055-6.545 6-11.5 6v1Z"/><path fill="#C7C8CC" id="alv" d="M63 164c1.232 0 2 10.288 2 12-2.627 0-2-9.736-2-12Z"/><path fill="#FF79FD" id="PBG" d="M147 164c0 3.746 2.091 0 0 0Z"/><path fill="#C8C8CC" id="tspc" d="m217 175-2 3c0 5.362-7 20.726-7 5.5l1-4.5c0-4.504 7.055-15 12-15v1c0 4.211-4 5.789-4 10ZM239 174c2.943 0 3.878 12.256 5 14.5.948 1.897 3.052 1.897 4 0v-3l1-3-2-4.5c0-5.008-7.024-14-12-14 0 4.116 4 6.343 4 10Z"/><path fill="#FFA4FF" id="CLI" d="M237 178c0 3.063-.76 3.02-2 5.5-3.025 6.051-4.198-.5-6.5-.5l-3 3c-3.386 1.693-6.5-4.618-6.5-7 0-2.124 1-4.436 1-6l1-1 2-4 2.5-2c1.428-.714 5.598 1 7.5 1v1l1 1 1 2 1 1c0 1.564 1 3.876 1 6Z"/><path fill="#C7C8CC" id="alv" d="M393 167c-1.076 0-2 9.512-2 11 2.497 0 2-8.839 2-11Z"/><path fill="#FF64FF" id="MB" d="m233 168 1 1-1-1Z"/><path fill="#FD8FFF" id="RR" d="M167 175c0 2.477 2.011 2.522 3 4.5 3.602 7.205 8.734 4.5 15 4.5 0-2.594 7.799-.901 4-8.5-2.731-5.463-22-6.278-22-.5Z"/><path fill="#FF64FF" id="MB" d="m235 171 1 1-1-1Z"/><path fill="#FD8FFF" id="RR" d="M289 175c0 9.984-11.13 9-17 9 0-1.18-7.989-2.522-5-8.5 2.7-5.399 22-6.952 22-.5Z"/><path fill="#FF64FF" id="MB" d="m221 172-1 1 1-1Z"/><path fill="#C7C8CC" id="alv" d="M65 177c1.353 0 2 4.643 2 6-1.995 0-2-4.377-2-6ZM391 179c-1.995 0-2 4.377-2 6 1.353 0 2-4.643 2-6ZM67 184c1.353 0 2 4.643 2 6-1.353 0-2-4.643-2-6Z"/><path fill="#4FC244" id="SUB" d="m93 224 3 3c3.947 0 21.817-16 24-16 0-5.003-21-18.711-21-26-8.52 0-20.039 12-26 12v2l4.5 6c1.416 1.416 13.5 17.863 13.5 18h1l1 1ZM362 226l-2 1c-3.35 0-13.707-10.103-17.5-12-1.408-.704-5.5-1.583-5.5-4 0-1.315 14.141-17.641 16.5-20l4.5-6c7.177 0 20.314 12 25 12v2l-1 2-1 2c-1.577 0-2 1.762-2 3-1.577 0-2 1.762-2 3-1.712 0-3 2.571-3 4l-1 1-1 1-1 2c-1.747 0-2 .253-2 2l-2 2-1 1-1 1-1 1-1 1-1 1Z"/><path fill="#FFC295" id="PRNr" d="M211 229c-1.46 0-13.38 1.44-14.5 2l-7.5 4c-6.508 0-14.74-19.019-12-24.5l2-2.5 4-2.5 1-8.5 1-1v-2l3-2 1-1c9.01 0 20-13.334 20 8 0 6.83 1.087 16.674 4 22.5 1.292 2.583-2 5.121-2 7.5ZM267 235h1c10.462 0 10-20.305 10-27-5.399 0-6-7.816-6-12l-3-4h-1c-8.34 0-20-17.549-20 7 0 3.749-2.361 17.222-4 20.5-1.784 3.567 2 7.072 2 9.5 5.661 0 16.009 5 20 5l1 1Z"/><path fill="#C7C8CC" id="alv" d="M389 186c-1.638 0-2 3.576-2 5 1.638 0 2-3.576 2-5Z"/><path fill="#C8C8CB" id="rust" d="M171 205c0 3.183 5.211 3 8 3l4-2.5 1-8.5 1-1v-2c0-2.293.997-2 3-2l1-1c0-6.342-5.564-3.968-9.5-2-5.247 2.624-8.5 10.718-8.5 16ZM286 205c-1.447 0-4.54 3-8 3-5.399 0-6-7.816-6-12 0-2.061-.902-4-3-4h-1l-1-3.5c4.507-9.013 19 9.97 19 16.5Z"/><path fill="#CCC7CC" id="dscp" d="M228 188c0 5.567 2.112 0 0 0Z"/><path fill="#C7C8CC" id="alv" d="M69 191c1.577 0 2 1.762 2 3-1.577 0-2-1.762-2-3ZM387 191l-1 2 1-2Z"/><path fill="#FF64FF" id="MB" d="M188 192c-2.003 0-3-.293-3 2l3-2ZM269 192c2.098 0 3 1.939 3 4l-3-4Z"/><path fill="#C7C8CC" id="alv" d="m386 193-1 2 1-2Z"/><path fill="#FFC393" id="CS" d="M214 200c0 7.535-3.604 20.948 4.5 25 1.795.897 3.42 5.29 6 4 3.089-1.545 2.14-8.78 3.5-11.5l.5-2.5.5 3.5c0 2.157.694 9.597 2.5 10.5 2.759 1.38 4.765-3.382 6-4 2.379-1.19 2.335-3.169 3.5-5.5 4.482-8.963 1-10.448 1-19.5 0-8.078-11-6.152-11-4l-2 2.5v4c-.532 1.063-3-5.397-3-6.5-2.412 0-5.526-3.487-8.5-2-2.04 1.02-2.424 6-3.5 6Z"/><path fill="#C7C8CC" id="alv" d="M73 197v1c-1.577 0-2-1.762-2-3l2 2ZM384 197h1v-2l-1 2Z"/><path fill="#FF64FF" id="MB" d="m185 196-1 1 1-1Z"/><path fill="#FFA6FE" id="IPN" d="M226 196h5l-2 2.5v4c-.532 1.063-3-5.397-3-6.5Z"/><path fill="#C7C8CC" id="alv" d="M383 199h1v-2h-1v2Z"/><path fill="#C8CBCC" id="ec" d="m385 197-1 2v-2h1Z"/><path fill="#C7C8CC" id="alv" d="m87 220 4 3c0-.137-12.084-16.584-13.5-18l-4.5-6v2l2 2v1l2 2v1l1 1 9 12Z"/><path fill="#FF9B88" id="P" d="M172 273c0 2.097 17.655 8 20.5 8 3.38 0 31.575-1.288 33-2l3-2 3 2c.254.127 27.3 2 29 2 4.149 0 24.5-5.082 24.5-8-.675 0-10 2.227-10 .5 0-1.663 14-10.475 14-16.5l-5.5 1c-8.03-4.015-1.019-27.462 1.5-32.5 1.539-3.077 6-5.884 6-9.5-5.716 0 3.137-11-5-11-1.447 0-4.54 3-8 3 0 6.695.462 27-10 27 0 2.588 5 2.992 5 7l3.5-3 .5 7.5c0 7.763 2.262 15.476-1 22-3.016 6.031-9.86 5.18-14.5 7.5l-23-1c-4.079-2.04-7.698-9.896-9.5-13.5-1.655-3.31 1-9.145 1-12 0-1.19-.614-4.5 1-4.5 0-14.3-2.003-16 15-16 0-2.428-3.784-5.933-2-9.5 1.639-3.278 4-16.751 4-20.5l-6 1c0 9.052 3.482 10.537-1 19.5-1.165 2.331-1.121 4.31-3.5 5.5-1.235.618-3.241 5.38-6 4-1.806-.903-2.5-8.343-2.5-10.5l-.5-3.5-.5 2.5c-1.36 2.72-.411 9.955-3.5 11.5-2.58 1.29-4.205-3.103-6-4-8.104-4.052-4.5-17.465-4.5-25l-5-1c0 6.83 1.087 16.674 4 22.5 1.292 2.583-2 5.121-2 7.5 14.943 0 15 1.88 15 16 0 10.908 2.126 14.248-3 24.5-4.566 9.131-37.644 8.713-42 0-3.436-6.871-2-14.356-2-23l.5-7.5 3.5 2c0-3.795 6-3.903 6-6-6.508 0-14.74-19.019-12-24.5l2-2.5c-2.789 0-8 .183-8-3-9.043 0 .231 9.135-3.5 11l-3.5-2c0 3.558 4.473 6.445 6 9.5 2.959 5.918 9.416 17.168 6 24-.964 1.929.654 8.423-1.5 9.5-2.953 1.476-3.862 0-6.5 0 0 3.346 4.06 10.28 7.5 12l5 5-8.5-1Z"/><path fill="#C7C8CC" id="alv" d="M382 201h1v-2l-1 2Z"/><path fill="#C8CBCC" id="ec" d="m384 199-1 2v-2h1ZM73 201l2 2-2-2Z"/><path fill="#C7C8CC" id="alv" d="M381 203h1v-2l-1 2Z"/><path fill="#C8CBCC" id="ec" d="m383 201-1 2v-2h1Z"/><path fill="#C7C8CC" id="alv" d="M379 206h1l1-2v-1c-1.577 0-2 1.762-2 3Z"/><path fill="#C8CBCC" id="ec" d="m382 203-1 1v-1h1ZM75 204l2 2-2-2Z"/><path fill="#C9C9CB" id="ll" fill-rule="evenodd" d="M155 212c0 1.342-4.38 2.74-3 5.5l13 26c.896 1.792 3.059 11.721 7.5 9.5 2.693-1.347 1.5-9.732 1.5-12.5 0-8.529-9.385-28.5-19-28.5m9 2c0 3.558 4.473 6.445 6 9.5 2.959 5.918 9.416 17.168 6 24-.964 1.929.654 8.423-1.5 9.5-2.953 1.476-3.862 0-6.5 0-1.676 0-4.244-6.988-5-8.5l-2-9c-3.332-6.663-13-18.36-13-25.5l3-5 1-1 5.5-2 6.5 8ZM298 212l-7 7.5c-1.766 3.532-14.16 29.67-6.5 33.5 2.541 1.271 5.581-4.661 6.5-6.5 1.775-3.551 13.974-30.052 13-32-.997-1.994-4.02-2.5-6-2.5m-7 4c0 3.616-4.461 6.423-6 9.5-2.519 5.038-9.53 28.485-1.5 32.5l5.5-1 4-6.5c2.204-4.408 1.753-10.505 4-15 2.178-4.355 12-16.543 12-20.5 0-2.364-3-3.053-3-5l-4.5-4c-3.097-1.549-4.71 2.919-5.5 4.5l-3 3.5-1 1-1 1Z"/><path fill="#C7C8CC" id="alv" d="m379 207-2 2c0-1.238.423-3 2-3v1Z"/><path fill="#7DCD4B" id="HPF" d="m380 206-1 1v-1h1ZM77 207l1 1-1-1Z"/><path fill="#FF64FF" id="MB" d="m152 208-1 1 1-1Z"/><path fill="#C7C8CC" id="alv" d="M377 209c-1.712 0-3 2.571-3 4 1.712 0 3-2.571 3-4Z"/><path fill="#33B931" id="HATA" d="m115 239 4 1c0-6.349 4-11.839 4-19 0-3.947-3-6.628-3-10-2.183 0-20.053 16-24 16l7 7 4 3c1.145 0 4-.579 4 1l4 1Z"/><path fill="#7DCD4B" id="HPF" d="M125 213c0 1.552-.566 8-2 8 0-3.947-3-6.628-3-10 1.624 0 2.75 2 5 2ZM331 213c0 .986 1.087 6 2 6l3-8c-1.624 0-2.75 2-5 2Z"/><path fill="#33B931" id="HATA" d="M341 239c-1.238 0-3 .423-3 2-1.454 0-1.433-5.366-2-6.5-2.258-4.517-3-10.043-3-15.5l3-8h1c0 2.417 4.092 3.296 5.5 4 3.793 1.897 14.15 12 17.5 12l-6 7c-1.408 0-5 1.197-5 3-1.145 0-4-.579-4 1l-4 1Z"/><path fill="#FFAC6F" id="NLL" d="M155 212c0 1.342-4.38 2.74-3 5.5l13 26c.896 1.792 3.059 11.721 7.5 9.5 2.693-1.347 1.5-9.732 1.5-12.5 0-8.529-9.385-28.5-19-28.5ZM298 212l-7 7.5c-1.766 3.532-14.16 29.67-6.5 33.5 2.541 1.271 5.581-4.661 6.5-6.5 1.775-3.551 13.974-30.052 13-32-.997-1.994-4.02-2.5-6-2.5Z"/><path fill="#C7C8CC" id="alv" d="m374 213-1 1 1-1Z"/><path fill="#CCCCCA" id="mcp" fill-rule="evenodd" d="M152 245v3.5c0 4.199 7.584 8.169 3-1-.794-1.588-.801-2.5-3-2.5m-5-14c0 1.727 5.103 11.295 7 7.5 1.119-2.239-4.991-7.5-7-7.5m24 42h1l8.5 1-5-5c-3.44-1.72-7.5-8.654-7.5-12-1.676 0-4.244-6.988-5-8.5l-2-9c-3.332-6.663-13-18.36-13-25.5l-1 1c0 1.502-5.129 7.757-6 9.5-3.747 7.493 4 15.766 4 21.5v1l1 1 2 4 2 2c1.323 0 14.426 13.352 15 14.5l6 4.5Z"/><path fill="#FF9B88" id="P" d="m293 214-1 1 1-1Z"/><path fill="#C7C8CC" id="alv" d="m373 214-1 1 1-1Z"/><path fill="#F0F080" id="CB" d="M133 236c6.491 0 9.881 10 12 10 0-5.734-7.747-14.007-4-21.5.871-1.743 6-7.998 6-9.5-14.084 0-4.853 10.206-8 16.5l-6 4.5Z"/><path fill="#CCCCCA" id="mcp" fill-rule="evenodd" d="m302 245-2 4.5c-.439.878.369 3.5 1.5 3.5 3.298 0 5.677-8 .5-8m5-14-4 4.5.5 4.5c2.329 0 8.777-9 3.5-9m-20 41-2 1c-.675 0-10 2.227-10 .5 0-1.663 14-10.475 14-16.5l4-6.5c2.204-4.408 1.753-10.505 4-15 2.178-4.355 12-16.543 12-20.5h1l5 7.5c3.072 6.144-2 16.155-2 21.5l-1 1-1 2v1l-1 1-1 1v1l-1 1-1 1-1 1-13 13-1 1-1 1-1 1-1 1h-1l-1 1Z"/><path fill="#F0F080" id="CB" d="M323 236c-4.959 0-7.177 8-10 8 0-5.345 5.072-15.356 2-21.5l-5-7.5 3.5 2h3c4.325 2.163-.28 11.939 1.5 15.5l5 3.5Z"/><path fill="#C7C8CC" id="alv" d="m372 215-1 2 1-2ZM371 217c-1.747 0-2 .253-2 2l2-2ZM367 221h2v-2l-2 2Z"/><path fill="#32B623" id="ENTm6" d="m96 227 7 7c-4.235 0-6.185 1.157-10.5-1L82 225v-1c1.247 0 5-2.467 5-4l4 3h1l1 1 3 3Z"/><path fill="#C7C8CC" id="alv" d="m367 221-1 1 1-1Z"/><path fill="#32B623" id="ENTm6" d="m360 227-6 7c0 1.263 5.36 1.57 6.5 1l13.5-10v-1c-1.947 0-2.636-3-5-3h-2l-1 1-1 1-1 1-1 1-1 1-2 1Z"/><path fill="#C7C8CC" id="alv" d="m366 222-1 1 1-1ZM92 223l1 1-1-1ZM365 223l-1 1 1-1ZM364 224l-1 1 1-1Z"/><path fill="#30B724" id="ENTm5" d="m103 234 4 3c0 1.998-5.174 2.337-6.5 3-4.085 2.043-22.5-5.555-22.5-11l4-4 10.5 8c4.315 2.157 6.265 1 10.5 1Z"/><path fill="#C7C8CC" id="alv" d="m363 225-1 1 1-1Z"/><path fill="#30B724" id="ENTm5" d="M354 234c-1.408 0-5 1.197-5 3 3.285 0 7.085 6.208 11.5 4 2.412-1.206 17.827-11 18.5-11v-1l-5-4-13.5 10c-1.14.57-6.5.263-6.5-1Z"/><path fill="#31B723" id="ENTm3" d="M107 237c1.145 0 4-.579 4 1 0 4.538-7.208 4.854-9.5 6-9.882 4.941-21.067-9-29.5-9v-1l5-5h1c0 5.445 18.415 13.043 22.5 11 1.326-.663 6.5-1.002 6.5-3Z"/><path fill="#FEBA85" id="TRN" fill-rule="evenodd" d="M196 245c0 2.336-5.081 3.338-3 7.5 2.427 4.854 21.449-1.525 13.5-5.5h-5l-5.5-2m26 2 1-6.5c0-11.993-14.223-5.446-10 3 1.071 2.141.153 5.5 4 5.5 0 2.315-8.754 4.127-10.5 5-9.545 4.772-23.5-1.055-23.5-13 0-3.795 6-3.903 6-6l7.5-4c1.12-.56 13.04-2 14.5-2 14.943 0 15 1.88 15 16l-4 2ZM259 245c0 3.194-13.679.141-11 5.5 6.038 12.076 25.833-5.5 11-5.5m-23 3-3-6 .5-5c11.838-11.838 14.667 12 5.5 12 0 2.315 8.754 4.127 10.5 5 5.366 2.683 17.058 3.384 20.5-3.5l1-5c.86-1.719 2-.607 2-3.5 0-4.008-5-4.412-5-7h-1l-1-1c-3.991 0-14.339-5-20-5-17.003 0-15 1.7-15 16l5 3Z"/><path fill="#31B723" id="ENTm3" d="M349 237c-1.145 0-4-.579-4 1 0 4.366 7.238 4.869 9.5 6 10.223 5.112 21.254-9 29.5-9l-5-5c-.673 0-16.088 9.794-18.5 11-4.415 2.208-8.215-4-11.5-4Z"/><path fill="#CCCBCA" id="moV" d="M147 231c0 1.727 5.103 11.295 7 7.5 1.119-2.239-4.991-7.5-7-7.5ZM307 231l-4 4.5.5 4.5c2.329 0 8.777-9 3.5-9Z"/><path fill="#CACCC8" id="ml" d="M217 249h1l2-1 1-1h1l1-6.5c0-11.993-14.223-5.446-10 3 1.071 2.141.153 5.5 4 5.5ZM238 249h1c9.167 0 6.338-23.838-5.5-12l-.5 5 3 6h1l1 1Z"/><path fill="#FF9B88" id="P" d="m266 234 1 1-1-1Z"/><path fill="#30B824" id="ENTm2" d="m69 239 9.5 5c7.284 3.642 36.5 12.204 36.5-5l-4-1c0 4.538-7.208 4.854-9.5 6-9.882 4.941-21.067-9-29.5-9-1.712 0-3 2.571-3 4ZM341 239c0 2.927 3.205 5.853 5.5 7 11.039 5.519 21.244 3.378 32-2l9.5-5v-1l-3-3h-1c-8.246 0-19.277 14.112-29.5 9-2.262-1.131-9.5-1.634-9.5-6l-4 1Z"/><path fill="#CACACB" id="sV" d="M149 254c0 2.232 3 4.029 3 7 0 6.027-9.646 10.927-15.5 8-7.836-3.918-15.676-12.147-10.5-22.5 1.313-2.625 2.956-10.5 7-10.5 6.491 0 9.881 10 12 10v1l1 1 2 4 1 2ZM307 254l-3 7c0 6.014 10.525 10.987 16.5 8 9.345-4.672 14.391-14.718 9.5-24.5-1.146-2.292-3.32-8.5-7-8.5-4.959 0-7.177 8-10 8l-1 1-1 2v1l-1 1-1 1v1l-1 1-1 1v1Z"/><path fill="#31B625" id="ENTm1" d="M119 240c0 7.094-16.902 19.799-22.5 17-6.681-3.341-14.27-4.635-21-8L65 243l3-4h1l9.5 5c7.284 3.642 36.5 12.204 36.5-5l4 1Z"/><path fill="#FFB885" id="PG" d="M217 249h1l2-1 1-1h1l4-2c0 10.908 2.126 14.248-3 24.5-4.566 9.131-37.644 8.713-42 0-3.436-6.871-2-14.356-2-23l.5-7.5 3.5 2c0 11.945 13.955 17.772 23.5 13 1.746-.873 10.5-2.685 10.5-5ZM238 249h1c0 2.315 8.754 4.127 10.5 5 5.366 2.683 17.058 3.384 20.5-3.5l1-5c.86-1.719 2-.607 2-3.5l3.5-3 .5 7.5c0 7.763 2.262 15.476-1 22-3.016 6.031-9.86 5.18-14.5 7.5l-23-1c-4.079-2.04-7.698-9.896-9.5-13.5-1.655-3.31 1-9.145 1-12 0-1.19-.614-4.5 1-4.5l5 3h1l1 1Z"/><path fill="#31B625" id="ENTm1" d="M338 241c0 6.062 15.683 18.909 21.5 16l18-6 13.5-8c0-1.429-1.288-4-3-4l-9.5 5c-10.756 5.378-20.961 7.519-32 2-2.295-1.147-5.5-4.073-5.5-7-1.238 0-3 .423-3 2Z"/><path fill="#F0F080" id="CB" d="m313 244-1 1 1-1Z"/><path fill="#CCCBCA" id="moV" d="M152 245v3.5c0 4.199 7.584 8.169 3-1-.794-1.588-.801-2.5-3-2.5Z"/><path fill="#C8C7CC" id="cst" d="M196 245c0 2.336-5.081 3.338-3 7.5 2.427 4.854 21.449-1.525 13.5-5.5h-5l-5.5-2ZM259 245c0 3.194-13.679.141-11 5.5 6.038 12.076 25.833-5.5 11-5.5Z"/><path fill="#CCCBCA" id="moV" d="m302 245-2 4.5c-.439.878.369 3.5 1.5 3.5 3.298 0 5.677-8 .5-8Z"/><path fill="#F0F080" id="CB" d="m312 245-1 2 1-2ZM145 247l1 1-1-1Z"/><path fill="#FEBA85" id="TRN" d="m221 247-1 1 1-1ZM220 248l-2 1 2-1ZM237 248l1 1-1-1Z"/><path fill="#F0F080" id="CB" d="m311 248-1 1 1-1ZM310 249l-1 1 1-1ZM309 251l-1 1 1-1ZM149 254h1l-2-2 1 2ZM308 252l-1 1 1-1ZM306 254h1v-1l-1 1Z"/><path fill="#FF9B88" id="P" d="M152 261c7.633 0 11.995 12 19 12l-6-4.5c-.574-1.148-13.677-14.5-15-14.5h-1c0 2.232 3 4.029 3 7ZM304 261c-4.189 0-6.956 6-11 6l13-13h1l-3 7ZM293 267l-1 1 1-1ZM292 268l-1 1 1-1ZM291 269l-1 1 1-1ZM290 270l-1 1 1-1ZM288 271l-1 1 1-1ZM287 272l-2 1 2-1Z"/></svg>