<svg xmlns="http://www.w3.org/2000/svg" viewBox="0 0 456 320"><path fill="#FE79FE" id="ICe" d="M153 71c0 3.383-2.484 9.468-4 12.5-3.574 7.148 4.483 29.491 10.5 32.5 5.972 2.986 9.189 3 15.5 3 0-3.597-6.442-6.383-8-9.5l-2-6c-5.864-11.729 6.3-37.9 15.5-42.5 3.024-1.512 5.944-8 10.5-8 0-2.1 6.772-8 8-8v-1l-17.5 1-13.5 7-1 1-4 4-1 1-1 1c0 1.747-.253 2-2 2l-1 2-1 1c0 1.238-.423 3-2 3l-2 4Z"/><path fill="#FF64FF" id="MB" d="M199 45h5c0-1.643-3.765-1-5-1v1ZM253 45h5v-1c-1.235 0-5-.643-5 1Z"/><path fill="#FE79FE" id="ICe" d="M295 59c0 .707 8.752 13.004 10 15.5 7.381 14.761.67 37.415-13.5 44.5-3.602 1.801-7.083 0-10.5 0 0-1.25 8.518-10.536 10-13.5 6.462-12.924-3.368-33.368-12.5-42.5-3.386-3.386-8.763-10-13.5-10 0-4.602-7-4.07-7-8v-1l16.5 1 12.5 6 2 2 3 2 1 1 1 1 1 1v1Z"/><path fill="#FE79FF" id="ICd" d="M191 53c4.878 0 2.777 9.054 4 11.5 3.866 7.732-1.192 21.615 2 28 1.929 3.858 3 5.726 3 10.5 2.571 0 9.673-8.847 11-11.5 3.923-7.845 6.114-16.228 10-24 2.233-4.466-1-13.342-1-17.5l-5-2-1-1h-2l-2-1h-1l-2-1h-8c-1.228 0-8 5.9-8 8Z"/><path fill="#FF64FF" id="MB" d="m207 45 2 1-2-1ZM250 45c-1.048 0-3-.473-3 1 1.048 0 3 .473 3-1Z"/><path fill="#FE79FF" id="ICd" d="M265 53c-3.246 0-4 9.627-4 12 0 13.177-4 27.537-4 39l-10-10.5-4-5c-3.465-6.93-4.512-15.024-8-22-2.056-4.112 1-11.536 1-15.5l1-1 4-2 1-1h2c1.048 0 3 .473 3-1 1.048 0 3 .473 3-1h8c0 3.93 7 3.398 7 8Z"/><path fill="#FF64FF" id="MB" d="m210 46 2 1-2-1ZM247 46c-1.048 0-3-.473-3 1 1.048 0 3 .473 3-1ZM214 47l1 1-1-1ZM242 47l-1 1 1-1ZM267 125l3 2-2-5.5c1.23-2.461 20.543 2.5 25 2.5l14-13 2-2 1-1v-9l1-2v-7c-3.31 0-2.605-11.71-4-14.5l-2-3.5c0-2.614-7.701-13-10-13 0 .707 8.752 13.004 10 15.5 7.381 14.761.67 37.415-13.5 44.5-3.602 1.801-7.083 0-10.5 0-4.352 0-24-9.86-24-15l-10-10.5-4-5c-3.465-6.93-4.512-15.024-8-22-2.056-4.112 1-11.536 1-15.5-1.939 0-6.332 5.163-7 6.5l-.5 4.5-.5-3.5-8-8.5c0 4.158 3.233 13.034 1 17.5-3.886 7.772-6.077 16.155-10 24-1.327 2.653-8.429 11.5-11 11.5l-1 1-1 2-1 1c0 3.962-18.02 12-22 12-6.311 0-9.528-.014-15.5-3-6.017-3.009-14.074-25.352-10.5-32.5 1.516-3.032 4-9.117 4-12.5l-2 1-3 8.5v8l-2 1.5v14c2.592 0-.592 6 2 6 0-2.029 1-.058 1 1l14 13c3.256 0 23.154-4.173 23.5-4 1.969.985 1.5 3.188 1.5 5h2l1-1 1-1c2.139 0 6.56-7.03 8.5-8 2.488-1.244 3.539-.539 6-3l4.5-3c0-5.354 9-11.357 9-15-7.518 0-.552-18.974 3.5-21 3.944-1.972 3.461 4 5 4 .856 0 1.118-5.941 5-4 3.781 1.89 9.561 18.22 4 21l-2.5-1c0 3.191 11 11.034 11 16 0 2.698 19 10.833 19 15l1 1h1ZM237 50l-1 1 1-1ZM287 51l2 2-2-2ZM168 52l-1 1 1-1Z"/><path fill="#FE7AFE" id="ICc" d="M197 107c0 3.962-18.02 12-22 12 0-3.597-6.442-6.383-8-9.5l-2-6c-5.864-11.729 6.3-37.9 15.5-42.5 3.024-1.512 5.944-8 10.5-8 4.878 0 2.777 9.054 4 11.5 3.866 7.732-1.192 21.615 2 28 1.929 3.858 3 5.726 3 10.5l-1 1-1 2-1 1ZM257 104c0 5.14 19.648 15 24 15 0-1.25 8.518-10.536 10-13.5 6.462-12.924-3.368-33.368-12.5-42.5-3.386-3.386-8.763-10-13.5-10-3.246 0-4 9.627-4 12 0 13.177-4 27.537-4 39Z"/><path fill="#FF64FF" id="MB" d="m292 55 1 1-1-1ZM163 57l-1 1 1-1ZM294 57l1 1-1-1ZM162 58l-1 1 1-1ZM161 59l-2 2c1.747 0 2-.253 2-2ZM159 61l-1 2 1-2ZM158 63l-1 1 1-1ZM157 64c-1.577 0-2 1.762-2 3 1.577 0 2-1.762 2-3ZM155 67c-2.109 0-2 2.534-2 4l2-4Z"/><path fill="#C9C8C8" id="bic" d="M151 72c-5 0-5 14.823-5 18l2-1.5v-8l3-8.5ZM310 81l1 9c-3.31 0-2.605-11.71-4-14.5l-2-3.5c3.667 0 4 5.045 4 8l1 1Z"/><path fill="#FC8FFF" id="PAG" d="m235 93 2.5 1c5.561-2.78-.219-19.11-4-21-3.882-1.941-4.144 4-5 4-1.539 0-1.056-5.972-5-4-4.052 2.026-11.018 21-3.5 21l7-4c0-1.4 2-1.4 2 0l3 1 2 2h1Z"/><path fill="#FDFB8F" id="SIM" fill-rule="evenodd" d="M120 125c0 5.512.634 0 0 0m-6 42c-1.527 0-2.786-4.928-2-6.5 1.997-3.994 5-18.923 5-23.5 0-.699 3.283-9 1.5-9-1.644 0-3.5 8.211-3.5 9.5 0 .65-3.849 22.697-4 23-1.292 2.584-6 7.743-6 10.5l-8-4v-2c0-8.074-4-14.941-4-24 0-9.139 6.54-42.02 14.5-46 10.399-5.2 25.25-26 33.5-9.5l3 4.5 1 1v4l1 2v7l-1 9c0 4.043-6.651 7.802-8 10.5-4.981 9.961-7.075 21.149-12 31l-7 9-4 3.5Z"/><path fill="#FDFB8F" id="SIM" d="M359 167c-3.205 0-5.091 3-8 3l-5-8.5-5-27.5-4.5-9c-1.428 0 2.161 7.822 2.5 8.5 2.341 4.683 2.156 18.312 5 24 .639 1.279.258 8.5-1 8.5-9.942 0-18.22-31.941-22-39.5L311 113c0-1.235.643-5-1-5v-9l1-2v-5l1-1v-1l1-1c1.242 0 4.995-14.252 13.5-10 24.681 12.34 36.5 33.591 36.5 62v11.5c-1.619 3.237-4 8.791-4 12.5v2Z"/><path fill="#FF64FF" id="MB" d="m309 80 1 1-1-1ZM227 90c.839 0 2 1.93 2 0 0-1.4-2-1.4-2 0Z"/><path fill="#F0F080" id="CB" d="m313 89-1 1 1-1ZM144 90l1 1-1-1Z"/><path fill="#A9A9A8" id="AQ" d="M211 109c2.795 0 14.821-5.339 17.5-4 2.004 1.002 15.57 4 17.5 4 0-4.966-11-12.809-11-16h-1l-2-2-3-1c0 1.93-1.161 0-2 0l-7 4c0 3.643-9 9.646-9 15Z"/><path fill="#FF64FF" id="MB" d="m232 91 2 2-2-2Z"/><path fill="#F0F080" id="CB" d="m312 91-1 1v-1h1ZM146 95v2l-1-2h1ZM311 97l-1 2 1-2Z"/><path fill="#FE79FF" id="ICd" d="m200 103-1 1 1-1Z"/><path fill="#F0F080" id="CB" d="M148 110c0 1.658-1.461 3-3 3l1-9c2.592 0-.592 6 2 6Z"/><path fill="#FDFA91" id="CENT2" d="M257 148c-1.671 0-14 2.092-14 3-1.819 0-22.025 2.237-22.5 2-5.261-2.631-14.478-5-20.5-5 0-1.473-1.952-1-3-1h-1c0-1.617-4.583-4-6-4h-1c0-3.365-4.973-3-7-3l-1-6c2.795 0 8-6.366 8-9h1l1-1 1-1c2.139 0 6.56-7.03 8.5-8 2.488-1.244 3.539-.539 6-3l4.5-3c2.795 0 14.821-5.339 17.5-4 2.004 1.002 15.57 4 17.5 4 0 2.698 19 10.833 19 15l1 1h1l5.5 8c.919.459 2.5-.765 2.5 1 0 2.124-1 4.436-1 6-1.091 0-6-.922-6 2l-1 1h-1l-1 1-1 1c-1.238 0-3 .423-3 2h-2l-2 1Z"/><path fill="#FE79FE" id="ICe" d="m198 106-1 1 1-1Z"/><path fill="#F0F080" id="CB" d="M309 109c0 2.177-.641 4 2 4 0-1.235.643-5-1-5l-1 1Z"/><path fill="#FCFB90" id="CUL4, 5" d="M114 167c6.709 0 17.592.316 21-6.5l6-12 1.5-5.5.5 6.5c-2.516 5.033-7.917 12.166-5 18 .465.93.817 4.5 2 4.5l4-7.5c4.573-4.573 16-21.55 16-27.5 0-11.492-11-16.722-11-26 0-1.058-1-3.029-1-1 0 1.658-1.461 3-3 3 0 4.043-6.651 7.802-8 10.5-4.981 9.961-7.075 21.149-12 31l-7 9-4 3.5ZM343 166c0 1.735-6.51 1-8 1-6.291 0-13.116-4.732-16-10.5l-5.5-14.5-.5 3.5 3 9c5.691 11.383 1 8.989 1 17.5-2.08 0-5.177-7.853-6-9.5-4.172-8.345-14-15.567-14-25.5 0-12.058 10-16.217 10-26l2-2c0 2.177-.641 4 2 4l10 13.5c3.78 7.559 12.058 39.5 22 39.5Z"/><path fill="#F0F080" id="CB" d="M181 134c-2.388 0-6.386 5-9.5 5l-2-2H160c0-11.492-11-16.722-11-26l14 13c0 12.415 24 6.448 24 2l1-1h1c0 2.634-5.205 9-8 9ZM275 134c1.171 0 8.29 4.395 9.5 5l2.5-2h10c0-12.058 10-16.217 10-26l-14 13c0 7.128-10.776 9.862-16.5 7l-6.5-4-3-2 5.5 8c.919.459 2.5-.765 2.5 1Z"/><path fill="#FC90FF" id="CUN" d="m188 125-1 1c0 4.448-24 10.415-24-2 3.256 0 23.154-4.173 23.5-4 1.969.985 1.5 3.188 1.5 5ZM293 124c-4.457 0-23.77-4.961-25-2.5l2 5.5 6.5 4c5.724 2.862 16.5.128 16.5-7Z"/><path fill="#F0F080" id="CB" d="m192 123-1 1 1-1ZM191 124l-1 1 1-1ZM265 124l1 1-1-1Z"/><path fill="#CBC9CC" id="arb" d="M120 125c0 5.512.634 0 0 0Z"/><path fill="#FF64FF" id="MB" d="m188 125-1 1 1-1Z"/><path fill="#CBC9CC" id="arb" d="m337 203 7 7 10.5 2c1.991-.996-1.312-2.656-2-3l-13-7c-2.314-1.157-9.784-16-4.5-16 0-1.816 4.284-2.392 5.5-3 2.825-1.413 11.642-7.679 15-6l8 3c.498.249 5.5 4.126 5.5 2.5 0-4.622-18-5.213-18-12.5l-5-8.5-5-27.5-4.5-9c-1.428 0 2.161 7.822 2.5 8.5 2.341 4.683 2.156 18.312 5 24 .639 1.279.258 8.5-1 8.5 0 1.735-6.51 1-8 1-6.291 0-13.116-4.732-16-10.5l-5.5-14.5-.5 3.5 3 9c5.691 11.383 1 8.989 1 17.5 0 1.188-3.593 3.953-5.5 3-4.535-2.268-14.02-19-19.5-19 0 2.276-2.078-1-3-1 0 2.703 19 14.548 19 22l1 1 7 7 1-3v-1c0-2.975 4.186-12.343 7.5-14l6 3c1.306.653 9.5 1.478 9.5 3.5 0 5.755-12 9.389-12 14.5l1 7h1l1 1 3 3 1 1 1 2 1 1ZM117 206l-5 4c-1.153 0-11 2.421-11 1.5 0-1.287 12.906-7.703 14.5-8.5 2.775-1.387 12.275-17 5.5-17 0-2.208-18.542-9.979-20.5-9l-10 5c-.307.153-3.5 1.756-3.5.5 0-3.611 18-6.087 18-11.5 0-2.757 4.708-7.916 6-10.5.151-.303 4-22.35 4-23 0-1.289 1.856-9.5 3.5-9.5 1.783 0-1.5 8.301-1.5 9 0 4.577-3.003 19.506-5 23.5-.786 1.572.473 6.5 2 6.5 6.709 0 17.592.316 21-6.5l6-12 1.5-5.5.5 6.5c-2.516 5.033-7.917 12.166-5 18 .465.93.817 4.5 2 4.5 0 4.04 5.591 3.318 7 .5.178-.356 15.395-16.5 17-16.5l1 1c0 2.636-16 12.699-16 20l-1 1c-3.325 0-3.709 6-7 6l-1-2-1-1c0-4.038-2.893-6.285-5-10.5l-2.5-3.5-7 4-7.5 1.5c-3.214 6.429 12 11.35 12 16.5 0 1.974-2 3.517-2 6l-1 1-4 4-1 1-1 1-1 1v1l-1 1-1 1Z"/><path fill="#FFFC8E" id="CENT3" d="M164 156c-1.605 0-16.822 16.144-17 16.5-1.409 2.818-7 3.54-7-.5l4-7.5c4.573-4.573 16-21.55 16-27.5h9.5l2 2c3.114 0 7.112-5 9.5-5l1 6-5 3h-1l-1 1v1c-1.238 0-3 .423-3 2l-1 1-1 1-1 1-1 1-1 1-1 1-1 1v1l-1 1ZM292 156c5.48 0 14.965 16.732 19.5 19 1.907.953 5.5-1.812 5.5-3-2.08 0-5.177-7.853-6-9.5-4.172-8.345-14-15.567-14-25.5h-10l-2.5 2c-1.21-.605-8.329-5-9.5-5 0 2.124-1 4.436-1 6l5 3h1l1 1c2.021 0 10 8.018 10 10l1 2Z"/><path fill="#F0F080" id="CB" d="M188 143h1c0-3.365-4.973-3-7-3l-5 3h7c0-1.535 4-1.535 4 0ZM274 143h5l-5-3c-1.091 0-6-.922-6 2 1.145 0 4-.579 4 1h2Z"/><path fill="#FCFC90" id="ANcr1" d="M93 141c-15.838 0-3.447 24 4 24 0-8.074-4-14.941-4-24ZM363 141c16.478 0 3.579 24-4 24 0-3.709 2.381-9.263 4-12.5V141Z"/><path fill="#FF9B88" id="P" d="M184 143h4c0-1.535-4-1.535-4 0Z"/><path fill="#F0F080" id="CB" d="M267 143h1v-1l-1 1Z"/><path fill="#FF9B88" id="P" d="M268 143h4c0-1.579-2.855-1-4-1v1Z"/><path fill="#F0F080" id="CB" d="m176 143-1 1 1-1Z"/><path fill="#CBC9CC" id="arb" d="M175 145h4l2-1h1v-1h-6l-1 1v1Z"/><path fill="#FF9B88" id="P" d="m183 143-1 1v-1h1Z"/><path fill="#FFAD6D" id="PB" fill-rule="evenodd" d="M185 152c0 7.282-18.444 15.972-24.5 19-1.977.989-6.642 6.216-5.5 8.5 1.381 2.762 7.556.472 9.5-.5l9-9c5.455-2.728 10.695-6.347 16-9 4.894-2.447-.905-9-4.5-9m-30 30 1 4c1.298 0 3.373 3.563 6.5 2 4.281-2.14 8.166-6.583 13-9l9-10c1.382 0-1.025 6.988 1 8 2.38 1.19 3.5-3.621 3.5-5l1-1 1-2v-1l1-1v-1l1-1v-2l1-2 1-2v-11l-1-1-1-1-1-1h-1l-2-2h-6l-1 1-1 1h-1l-1 1-1 1-6 4-1 1-2 2-1 1h-1l-1 1-1 1c0 2.636-16 12.699-16 20v1l4 2 2 2Z"/><path fill="#FF9B88" id="P" d="m190 143 1 2-2-2h1Z"/><path fill="#F0F080" id="CB" d="M195 147h1c0-1.617-4.583-4-6-4l1 2h1l1 1 1 1h1ZM265 144h1v-1l-1 1Z"/><path fill="#FF9B88" id="P" d="m267 143-1 1v-1h1Z"/><path fill="#FFAD6D" id="PB" fill-rule="evenodd" d="M268 152c0 3.246-3.704 4.093-2 7.5 1.325 2.651 5.394 2.447 7.5 3.5 6.601 3.301 13.338 13.669 18 16 1.997.998 9.239 3.022 10.5.5 3.023-6.047-21.969-16.735-25.5-18.5-4.697-2.348-3.289-9-8.5-9m39 26c-3.254 0-6 4.041-6 7-1.676 0-3.592 4.954-7.5 3l-5-5c-2.283-1.141-8.241-2.982-9.5-5.5-1.332-2.665-4.211-7.355-6.5-8.5-2.836-1.418.808 7.096-1 8-2.205 1.103-4.5-3.294-4.5-5l-1-2-1-3-1-1v-1l-1-1-1-4-1-2v-9l1-1 1-1 1-1 1-1 1-1 1-1h6l2 2h1l1 1h1l1 1 8 6 1 1 1 1c0 2.703 19 14.548 19 22l-1 1Z"/><path fill="#FF9B88" id="P" d="M275 144v1l-2-2h1l1 1Z"/><path fill="#CBC9CC" id="arb" d="M281 144c2.021 0 10 8.018 10 10-3.175 0-8.784-10-16-10l-1-1h6l1 1Z"/><path fill="#F0F080" id="CB" d="m280 143 1 1-1-1Z"/><path fill="#CBC7CC" id="sctv" d="M180 145h1v-1l-2 1h1Z"/><path fill="#FF9B88" id="P" d="m182 144-1 1v-1h1Z"/><path fill="#F0F080" id="CB" d="M264 145h1v-1l-1 1Z"/><path fill="#FF9B88" id="P" d="m266 144-1 1v-1h1Z"/><path fill="#CBC7CC" id="sctv" d="M289 155c.922 0 3 3.276 3 1l-1-2c-3.175 0-8.784-10-16-10v1h1l1 1h1l1 1 8 6 1 1 1 1Z"/><path fill="#CBC9CC" id="arb" d="M175 145c-1.238 0-3 .423-3 2 1.238 0 3-.423 3-2Z"/><path fill="#CBC7CC" id="sctv" d="M167 155h1l1-1 2-2 1-1 6-4 1-1v-1h-4c0 1.577-1.762 2-3 2l-1 1-1 1-1 1-1 1-1 1-1 1-1 1v1l1 1 1-1Z"/><path fill="#FF9B88" id="P" d="m180 145-1 1v-1h1ZM192 145l1 1-1-1Z"/><path fill="#F0F080" id="CB" d="M261 148h1l1-1 1-1v-1c-1.238 0-3 .423-3 2v1Z"/><path fill="#FF9B88" id="P" d="m265 145-1 1v-1h1ZM276 145l1 1-1-1ZM179 146l-1 1 1-1ZM264 146l-1 1 1-1ZM278 146l1 1-1-1Z"/><path fill="#CBC9CC" id="arb" d="m172 147-1 1 1-1Z"/><path fill="#FF9B88" id="P" d="M195 147v1l-1-1h1Z"/><path fill="#C8C9C8" id="IVn" d="M197 150h2v-2l-2-1h-2v2l1 1h1Z"/><path fill="#F0F080" id="CB" d="M199 148h1c0-1.473-1.952-1-3-1l2 1ZM257 148h1l1-1-2 1Z"/><path fill="#C8C9C8" id="IVn" d="M259 150h1l1-1v-2h-2l-1 1-1 2h2Z"/><path fill="#FF9B88" id="P" d="m263 147-1 1 1-1Z"/><path fill="#CBC9CC" id="arb" d="m171 148-1 1 1-1Z"/><path fill="#AAA9A7" id="V4" d="M227 159h2l6.5-5c1.242-.621 7.5-1.639 7.5-3-1.819 0-22.025 2.237-22.5 2-5.261-2.631-14.478-5-20.5-5h-1v2c1.048 0 3-.473 3 1 5.876 0 12.626-.437 17.5 2 1.806.903 6.505 6 7.5 6ZM243 151h11c0-1.473 1.952-1 3-1l1-2h-1c-1.671 0-14 2.092-14 3Z"/><path fill="#FF9B88" id="P" d="m262 148-1 1v-1h1Z"/><path fill="#CBC9CC" id="arb" d="m170 149-1 1 1-1Z"/><path fill="#FF9B88" id="P" d="m196 150-1 1v-2l1 1ZM260 150h1v-1l-1 1Z"/><path fill="#CBC9CC" id="arb" d="m169 150-1 1 1-1Z"/><path fill="#FF79FE" id="MEV" d="m197 157-2 1v-7l1-1h1v7Z"/><path fill="#FF9B88" id="P" d="m202 151-5 5v-6h2c1.048 0 3-.473 3 1ZM254 151c2.741 0 2.75 4 5 4v-5h-2c-1.048 0-3-.473-3 1Z"/><path fill="#FF79FE" id="MEV" d="m259 156 2 1v-7h-2v6Z"/><path fill="#CBC9CC" id="arb" d="m168 151-1 1 1-1Z"/><path fill="#FF9B88" id="P" d="m172 151-1 1 1-1Z"/><path fill="#FFBA84" id="PCG" fill-rule="evenodd" d="m238 181-3 4.5c3.541 7.081 13.652-4.5 3-4.5m-23 0-2 3.5c4.295 8.589 13.751-3.5 2-3.5m19-22-5 8c0 2.189-.006 4.494 1.5 6 14.996 14.996 17.671-14 3.5-14m-17 0-4 8c0 29.099 29.688-8 4-8m33-4c0 .06-3 3.829-3 7.5 0 8.155 8.327 15.347 12 8 3.56-7.119-.892-15.5-9-15.5m0 41c0-8.616-10.095-4.298-15.5-7-4.579-2.289.043-10.979-4-13-9.482-4.741-4.361 11.181-8 13-6.382 3.191-15.5-2.302-15.5 8l-4-4c0-8.864 2.086-10-8-10-6.682 0 0-19.824 0-22l2-2v-3l5-5c5.876 0 12.626-.437 17.5 2 1.806.903 6.505 6 7.5 6 0 3.15 2 3.446 2 0l6.5-5c1.242-.621 7.5-1.639 7.5-3h11c2.741 0 2.75 4 5 4v1c0 2.034 11.638 27 2 27-8.218 0-8 1.305-8 10l-3 3m-53-37-1 6.5c10.045 20.089 19.118-6.191 10.5-10.5-3.716-1.858-6.65 4-9.5 4Z"/><path fill="#CBC9CB" id="scp" d="M185 152c0 7.282-18.444 15.972-24.5 19-1.977.989-6.642 6.216-5.5 8.5 1.381 2.762 7.556.472 9.5-.5l9-9c5.455-2.728 10.695-6.347 16-9 4.894-2.447-.905-9-4.5-9ZM268 152c0 3.246-3.704 4.093-2 7.5 1.325 2.651 5.394 2.447 7.5 3.5 6.601 3.301 13.338 13.669 18 16 1.997.998 9.239 3.022 10.5.5 3.023-6.047-21.969-16.735-25.5-18.5-4.697-2.348-3.289-9-8.5-9Z"/><path fill="#CBC9CC" id="arb" d="m166 153-1 1 1-1ZM287 153l1 1-1-1Z"/><path fill="#FF9B88" id="P" d="m169 154-1 1 1-1ZM288 154l1 1-1-1Z"/><path fill="#CBC9CC" id="arb" d="m166 156-1 1-1-1 1-1 1 1ZM167 155l-1 1 1-1Z"/><path fill="#FEC395" id="LDT" d="m197 159-1 6.5c10.045 20.089 19.118-6.191 10.5-10.5-3.716-1.858-6.65 4-9.5 4ZM250 155c0 .06-3 3.829-3 7.5 0 8.155 8.327 15.347 12 8 3.56-7.119-.892-15.5-9-15.5Z"/><path fill="#CBC7CC" id="sctv" d="m164 156 1 1-1-1Z"/><path fill="#FF9B88" id="P" d="M273 227c-3.786 0-3.932 2-5 2 0-9.663-.244-38.128-16.5-30h-4l-7 4-3.5 4c0-.935 2.236-5-.5-5l-2.5 3c0-1.873-2.369-4.066-4.5-3l-1 5-2-5c-3.602-1.801-2.925 3-4.5 3 0-3.088-5.294-3.088-4-.5.479.958 5 7.907 5 5.5l2.5 3c.9.45 5.801-2 7.5-2h2l-1 14-1 2c0-4.613-3.713 1-4.5 1l-4-3-1.5 2v-1l-1-2v-1c0-7.657-.638-18.069-8.5-22-2.329-1.165-5.706-.853-8-2-2.915-1.458-7.077-1.461-10 0-6.837 3.419-7.5 20.638-7.5 28h-5c0-3.287-6-3.053-6-6l-2.5-6c-1.046-.523-3.5.951-3.5-1 0-2.421 2.411-6.678 1-9.5-1.331-2.663-9.607-3.785-11-1-1.851 3.701 1 7.771 1 11.5h-3c-1.648 0-.756-4-4-4l-2-16c2.954 0 3-6.821 3-9 1.298 0 3.373 3.563 6.5 2 4.281-2.14 8.166-6.583 13-9l9-10c1.382 0-1.025 6.988 1 8 2.38 1.19 3.5-3.621 3.5-5l1-1 1-2v-1l1-1v-1l1-1v-2l1-2h1c0 2.176-6.682 22 0 22l-1 2c-1.514 0-3.238-4.631-6.5-3-2.635 1.317-1.534 9.233 2 11 4.52 2.26 2.067-2 4.5-2 0 5.578 7.574 2 9 2l4 4 4.5 2c6.918 3.459 23.1 3.45 30 0 1.745-.872 8.5.027 8.5-3l3-3 4.5 2c1.143-.571 5.224-4 5.5-4 0 7.82 9.772-3.957 8-7.5-1.893-3.786-8-1.026-8 2.5l-2-3c9.638 0-2-24.966-2-27l2 1v1l1 2 1 4 1 1v1l1 1 1 3 1 2c0 1.706 2.295 6.103 4.5 5 1.808-.904-1.836-9.418 1-8 2.289 1.145 5.168 5.835 6.5 8.5 1.259 2.518 7.217 4.359 9.5 5.5l5 5c3.908 1.954 5.824-3 7.5-3 0 2.554-1.11 10 3 10 0 4.378-2 8.986-2 14 0 1.145.579 4-1 4 0-5.175-3-.856-3 2h-3l1-9.5c-2.386-4.773-9.614-4.773-12 0-1.619 3.237 2 6.105 2 8.5-4.379 0-6 4.08-6 8-1.45 0-7 3.126-7 5Z"/><path fill="#FF9B88" id="P" d="m197 159-2 2v-3l2-1v2Z"/><path fill="#FF79FE" id="MEV" d="m261 158 1 2-1-2ZM194 161h1v-2l-1 2Z"/><path fill="#FEB985" id="DTN" d="m217 159-4 8c0 29.099 29.688-8 4-8Z"/><path fill="#FF9B88" id="P" d="M227 159h2c0 3.446-2 3.15-2 0Z"/><path fill="#FEB985" id="DTN" d="m234 159-5 8c0 2.189-.006 4.494 1.5 6 14.996 14.996 17.671-14 3.5-14Z"/><path fill="#FF79FE" id="MEV" d="m194 161-1 2 1-2ZM263 164l1 1-1-1ZM193 165l-1 1 1-1ZM264 166l1 1-1-1Z"/><path fill="#FFFC8D" id="PFL" d="M121 186c-2.229 0-2.471 1.986-4.5 3h-7c-9.172 4.586-18.658-.183-24.5 11.5-.9 1.799-4 3.44-4 6.5-6.058 0-3.343 8.186-5 11.5-3.65 7.3-1.814 14.157-10.5 18.5-14.748 7.374-23.81-16.882-18.5-27.5l4-3c5.446-10.892 25.766-19.532 34-36 1.288-2.577 12-3.247 12-3.5l8 4c0 5.413-18 7.889-18 11.5 0 1.256 3.193-.347 3.5-.5l10-5c1.958-.979 20.5 6.792 20.5 9Z"/><path fill="#CCCCCA" id="mcp" d="M129 189h3l7-7v-1c0-4.038-2.893-6.285-5-10.5l-2.5-3.5-7 4-7.5 1.5c-3.214 6.429 12 11.35 12 16.5Z"/><path fill="#FF79FE" id="MEV" d="m192 167-1 1 1-1Z"/><path fill="#CCCCCA" id="mcp" d="M323 188h5c0-5.111 12-8.745 12-14.5 0-2.022-8.194-2.847-9.5-3.5l-6-3c-3.314 1.657-7.5 11.025-7.5 14l3 3 3 4Z"/><path fill="#FFFC8D" id="PFL" d="M335 186c1.841 0 3.57 2.035 5.5 3 5.156 2.578 16.383.191 22 3l10.5 9.5 3 5.5c4.914 0 2.877 6.255 4 8.5 3.226 6.452 1.073 16.286 9.5 20.5 15.325 7.663 25.828-13.843 19.5-26.5-6.441-12.882-27.394-19.787-36-37-1.809-3.618-6.593-4.047-9.5-5.5-1.583-.792-4.5 1.615-4.5 0-3.205 0-5.091 3-8 3 0 7.287 18 7.878 18 12.5 0 1.626-5.002-2.251-5.5-2.5l-8-3c-3.358-1.679-12.175 4.587-15 6-1.216.608-5.5 1.184-5.5 3Z"/><path fill="#FF79FE" id="MEV" d="m191 169-1 2 1-2ZM266 170l1 2-1-2ZM190 171l-1 1 1-1Z"/><path fill="#FEC294" id="NI" d="M250 196c0 3.027-6.755 2.128-8.5 3-6.9 3.45-23.082 3.459-30 0l-4.5-2c0-10.302 9.118-4.809 15.5-8 3.639-1.819-1.482-17.741 8-13 4.043 2.021-.579 10.711 4 13 5.405 2.702 15.5-1.616 15.5 7Z"/><path fill="#FF9B88" id="P" d="M148 178h1v-1l-1 1ZM307 178h2l-1-1-1 1Z"/><path fill="#FEAD6E" id="KF" d="M139 195c3.39 0 7.519-3.99 11.5-2l2.5 2c2.954 0 3-6.821 3-9l-1-4-2-2-4-2h-1c-3.325 0-3.709 6-7 6 0 .494-6.116 11-2 11ZM304 195c1.448 0 5.027-3.736 8.5-2l4.5 2c4.512 0 .162-10-1-10l-7-7h-2c-3.254 0-6 4.041-6 7 0 2.554-1.11 10 3 10Z"/><path fill="#FF9B88" id="P" d="m153 180 2 2-2-2Z"/><path fill="#F0F080" id="CB" d="M139 182h1l-1-1v1Z"/><path fill="#FFB984" id="PDTg" d="m215 181-2 3.5c4.295 8.589 13.751-3.5 2-3.5ZM238 181l-3 4.5c3.541 7.081 13.652-4.5 3-4.5Z"/><path fill="#F0F080" id="CB" d="m317 182 3 2-3-3v1Z"/><path fill="#FF9B88" id="P" d="m136 212 5 10c0-6.964-4.115-12.729-7-18.5-2.075-4.15 5-5.647 5-8.5-4.116 0 2-10.506 2-11l-1-2h-1l-7 7v5c6.085 0-1 9.934-1 13l1 1c2.917 0 4-.59 4 4Z"/><path fill="#FEC394" id="SLC" d="M194 185c-1.514 0-3.238-4.631-6.5-3-2.635 1.317-1.534 9.233 2 11 4.52 2.26 2.067-2 4.5-2v-6Z"/><path fill="#FEC295" id="SLD" d="M194 191c0 5.578 7.574 2 9 2 0-8.864 2.086-10-8-10l-1 2v6ZM263 191c-.276 0-4.357 3.429-5.5 4l-4.5-2c0-8.695-.218-10 8-10l2 3v5Z"/><path fill="#FEC394" id="SLC" d="M263 186v5c0 7.82 9.772-3.957 8-7.5-1.893-3.786-8-1.026-8 2.5Z"/><path fill="#FF9B88" id="P" d="M321 208h3l2-1c0-2.356-8.554-13-1-13 0-2.518-2-4.286-2-6l-3-4-3-2-1 3c1.162 0 5.512 10 1 10l5 4.5-1 8.5Z"/><path fill="#FEF991" id="FL" d="M108 225c-2.06 0-4 4.74-4 7-10.207 0-19.863-5.226-24-13.5l1-11.5c0-3.06 3.1-4.701 4-6.5 5.842-11.683 15.328-6.914 24.5-11.5h7c2.029-1.014 2.271-3 4.5-3 6.775 0-2.725 15.613-5.5 17-1.594.797-14.5 7.213-14.5 8.5 0 .921 9.847-1.5 11-1.5l1 4v1c-1.577 0-2 1.762-2 3v2l-1 1-1 1v2l-1 1ZM347 223c1.947 0 6 7.214 6 9 5.168 0 6.321-.91 10.5-3 13.472-6.736 12.5-7.352 12.5-22l-3-5.5-10.5-9.5c-5.617-2.809-16.844-.422-22-3-1.93-.965-3.659-3-5.5-3-5.284 0 2.186 14.843 4.5 16l13 7c.688.344 3.991 2.004 2 3l-10.5-2 1 7v2l2 2v2Z"/><path fill="#F0F080" id="CB" d="m325 194 4 1-1-7h-5c0 1.714 2 3.482 2 6ZM132 194l-5 1c0-2.483 2-4.026 2-6h3v5Z"/><path fill="#FFAE6F" id="PSV" d="M148 261h1l5-2 1-2v-46l-2-16-2.5-2c-3.981-1.99-8.11 2-11.5 2 0 2.853-7.075 4.35-5 8.5 2.885 5.771 7 11.536 7 18.5v6c0 1.235.643 5-1 5v1c0 1.145.579 4-1 4v2c0 1.048.473 3-1 3v4l1 2v2l1 1v1l1 1 2 3 2 2h1l2 2ZM307 261h1l1-1h1l1-1 1-1 2-2 1-1 1-2 1-1v-1l1-2v-8c-1.473 0-1-1.952-1-3v-2c-2.064 0-.426-3.353-1-4.5-2.058-4.116.112-22.5 4-22.5l1-1 1-8.5-5-4.5-4.5-2c-3.473-1.736-7.052 2-8.5 2 0 4.378-2 8.986-2 14 0 1.145.579 4-1 4v8c0 11.878 1 24.806 1 36 0 1.811 3.438 4 5 4Z"/><path fill="#FEA4D2" id="VCO" d="M114 254c1.45 0 2.956 9.772 8.5 7 2.114-1.057 3.346-7 4.5-7v-24c-1.613 0-1.613-8 0-8v-1c0-1.145-.579-4 1-4 0-1.926.84-10 3-10 0-3.066 7.085-13 1-13l-5 1-1 1-4 4-1 1-1 1-1 1v1l-1 1-1 1v2l-1 1v1l-1 1v1l-1 1v1l-1 1v2l-1 1-1 2v1c0 1.238-.423 3-2 3v1l-1 2v1l-1 1v2l1 7 1 1 1 3 1 1c0 2.885 2 4.697 2 8l1 2v1ZM329 252c.956 0 2.729 8.115 4.5 9 6.85 3.425 7.599-9 9.5-9 0-3.878 3-6.864 3-10l1-1 2-6v-7l-1-1v-1l-1-2v-1c-1.577 0-2-1.762-2-3v-1l-2-3v-2l-1-1v-1l-1-1v-1l-1-1v-1l-1-1v-1l-2-2v-1l-1-1-1-2-1-1-3-3-1-1h-1l-4-1c-7.554 0 1 10.644 1 13 0 3.787 3 7.613 3 12v1c1.684 0 1 4.679 1 6v5l-1 1v20Z"/><path fill="#F0F080" id="CB" d="m127 195-1 1 1-1ZM330 195l1 1-1-1Z"/><path fill="#FDBA86" id="PRNc" d="m191 264 2 2c6.963 0 15.945-9.391 19-15.5l7-8.5c0-7.866-.774-14.048-4-20.5-.44-.879-1.936-5.782-.5-6.5 4.565-2.283 5.847 8 7.5 8 0-7.657-.638-18.069-8.5-22-2.329-1.165-5.706-.853-8-2-2.915-1.458-7.077-1.461-10 0-6.837 3.419-7.5 20.638-7.5 28v1c1.473 0 1 1.952 1 3v23.5c1.359 2.719 2 6.26 2 9.5ZM263 265h2c0-3.108.737-4.973 2-7.5l1-28.5c0-9.663-.244-38.128-16.5-30h-4l-7 4-3.5 4v1l-1 1-1 2-1 14c1.032 0 2.935-8.718 5.5-10 2.553-1.277 3.31 2.881 2.5 4.5-3.286 6.572-5 13.538-5 21.5l5.5 7c6.113 6.113 10.453 17 20.5 17Z"/><path fill="#F0F080" id="CB" d="m334 199 1 1-1-1Z"/><path fill="#FF9BCD" id="MY" d="m122 200-1 1 1-1Z"/><path fill="#F0F080" id="CB" d="m121 201-1 1 1-1ZM120 202l-1 1 1-1Z"/><path fill="#FEB986" id="V" d="m171 214-5.5 3-3.5-2c0-3.729-2.851-7.799-1-11.5 1.393-2.785 9.669-1.663 11 1 1.411 2.822-1 7.079-1 9.5Z"/><path fill="#CBCBCC" id="mlf" d="m222 205 1 5c0 2.407-4.521-4.542-5-5.5-1.294-2.588 4-2.588 4 .5Z"/><path fill="#FFC294" id="RPO" d="m223 210 2.5 3c.9.45 5.801-2 7.5-2l1-6c0-1.873-2.369-4.066-4.5-3l-1 5-2-5c-3.602-1.801-2.925 3-4.5 3l1 5Z"/><path fill="#CBCBCC" id="mlf" d="M233 211h2l1-2 1-1v-1c0-.935 2.236-5-.5-5l-2.5 3-1 6Z"/><path fill="#FEB986" id="V" d="m286 214 4.5 3 4.5-2 1-9.5c-2.386-4.773-9.614-4.773-12 0-1.619 3.237 2 6.105 2 8.5Z"/><path fill="#FF9BCD" id="MY" d="m336 202 1 1-1-1Z"/><path fill="#F0F080" id="CB" d="m343 216 2 1-1-7-7-7v1l2 2v1l1 1v1l1 1v1l1 1v1l1 1v2Z"/><path fill="#FF9BCD" id="MY" d="m119 204-1 1 1-1ZM337 204l2 2-2-2ZM118 205l-1 1 1-1Z"/><path fill="#F0F080" id="CB" d="M113 214h1v-1l1-1v-1l1-1v-1l1-1v-2l-5 4 1 4Z"/><path fill="#FF9BCD" id="MY" d="M132 208c0 1.227-3.226 9-4 9 0-1.926.84-10 3-10l1 1Z"/><path fill="#C9CACB" id="vVIIIn" d="M127 254c0 1.39-.829 8 1.5 8l3.5-7c0-5.501-1.267-24.967 1-29.5 2.01-4.02 3-8.666 3-13.5 0-4.59-1.083-4-4-4 0 1.227-3.226 9-4 9 0 1.145.579 4-1 4v14c1.602 0 1.602 7 0 7v12ZM329 252l1 7.5c-2.889 5.778-5-2.507-5-5.5 0-6.215.192-25.115-2-29.5-1.582-3.163-3-8.889-3-12.5v-3l1-1h3l5 11v1c0 1.321-.684 6 1 6v5l-1 1v20Z"/><path fill="#FF9BCD" id="MY" d="m324 208 5 11c0-4.387-3-8.213-3-12l-2 1ZM339 207l1 1-1-1ZM117 208l-1 1 1-1Z"/><path fill="#FF9B88" id="P" d="m237 208-1 1 1-1ZM321 208l-1 1 1-1ZM236 209l-1 2 1-2ZM320 212c-5.067 0-3 20.565-3 24-2.064 0-.426-3.353-1-4.5-2.058-4.116.112-22.5 4-22.5v3Z"/><path fill="#FF9BCD" id="MY" d="m340 209 1 1-1-1ZM116 210l-1 1 1-1Z"/><path fill="#FEB984" id="I5" d="m301 217-2 1-1-3c0-2.856 3-7.175 3-2v4ZM155 217l2 1c1.577 0 2-1.762 2-3-1.648 0-.756-4-4-4v6Z"/><path fill="#FF9BCD" id="MY" d="m341 211 1 1-1-1ZM115 212l-1 1 1-1Z"/><path fill="#C8CACA" id="sptV" d="M153 263v4c-4.893 0-3.629 4.435-12.5 0-3.013-1.507-7.602-12-8.5-12 0-5.501-1.267-24.967 1-29.5 2.01-4.02 3-8.666 3-13.5l5 10v6c-1.643 0-1 3.765-1 5v1c-1.579 0-1 2.855-1 4v2c-1.473 0-1 1.952-1 3v4l1 2v2l1 1v1l1 1 2 3 2 2h1l2 2h1l4 2ZM307 261h1l1-1h1l1-1 1-1 2-2 1-1 1-2 1-1v-1l1-2v-2c1.535 0 1.535-4 0-4v-2c0-1.048.473-3-1-3v-2c0-3.435-2.067-24 3-24 0 3.611 1.418 9.337 3 12.5 2.192 4.385 2 23.285 2 29.5-1.895 0-4.009 9.754-6.5 11-3.45 1.725-15.5 9.113-15.5-1l4-3Z"/><path fill="#FF9BCD" id="MY" d="m342 213 1 1-1-1ZM114 214l-1 1v-1h1Z"/><path fill="#FCB3D9" id="PARN" d="M155 257v2c7.34 0 8.603-4.706 12-11.5.662-1.324-1.207-6.5 1-6.5 0-4.423 5-7.542 5-11l1-1c0-1.4 1.431-8 3-8l-2.5-6c-1.046-.523-3.5.951-3.5-1l-5.5 3-3.5-2h-3c0 1.238-.423 3-2 3 0 1.041-.986 5-2 5v34ZM302 257l-1 1c0 3.77-5.045 1.411-6-.5-2.717-5.434-6-9.858-6-16.5l-4-9-5-10c0-3.92 1.621-8 6-8l4.5 3 4.5-2h3l1 3 2 3c0 11.878 1 24.806 1 36Z"/><path fill="#F0F080" id="CB" d="M111 218h1l1-1v-2c-1.577 0-2 1.762-2 3Z"/><path fill="#C8C8CC" id="tspc" d="m223 227 1 13.5c-.822 1.644-5 7.301-5 1.5 0-7.866-.774-14.048-4-20.5-.44-.879-1.936-5.782-.5-6.5 4.565-2.283 5.847 8 7.5 8v1l1 2v1ZM233 227v16.5c1.546 3.092 4-.176 4-2.5 0-7.962 1.714-14.928 5-21.5.81-1.619.053-5.777-2.5-4.5-2.565 1.282-4.468 10-5.5 10l-1 2Z"/><path fill="#FF9BCD" id="MY" d="M345 217v2l-2-3 2 1ZM113 217l-1 1 1-1ZM128 217c-1.579 0-1 2.855-1 4 1.579 0 1-2.855 1-4Z"/><path fill="#FF9B88" id="P" d="M157 218c0 1.041-.986 5-2 5v-6l2 1ZM299 218l2 3v-4l-2 1Z"/><path fill="#FF9BCD" id="MY" d="m112 218-1 2v-2h1Z"/><path fill="#F0F080" id="CB" d="m345 220 2 1-2-2v1ZM110 221h1v-1l-1 1Z"/><path fill="#FF9BCD" id="MY" d="M329 220c1.684 0 1 4.679 1 6-1.684 0-1-4.679-1-6ZM347 221v2c-1.577 0-2-1.762-2-3l2 1Z"/><path fill="#F0F080" id="CB" d="m110 221-1 1 1-1Z"/><path fill="#FF9BCD" id="MY" d="M109 222v2c1.577 0 2-1.762 2-3h-1l-1 1ZM174 229c5.966 0 3 .371 3 6l6-8c0-3.287-6-3.053-6-6-1.569 0-3 6.6-3 8ZM127 222c-1.613 0-1.613 8 0 8v-8ZM303 275c5.947 0-2 2.945-2 6 2.626 0 14.058-9.279 17.5-11 4.474-2.237 8.84 4.42 12 6 10.465 5.233 12.5-18.721 12.5-24-1.901 0-2.65 12.425-9.5 9-1.771-.885-3.544-9-4.5-9l1 7.5c-2.889 5.778-5-2.507-5-5.5-1.895 0-4.009 9.754-6.5 11-3.45 1.725-15.5 9.113-15.5-1 0-1.623-.005-6-2-6 0 3.77-5.045 1.411-6-.5-2.717-5.434-6-9.858-6-16.5-5.223 0-13.843-10.829-9.5-13l5.5 4-5-10c-1.45 0-7 3.126-7 5 0 3.609 19 21.014 19 29 0 1.424 7 9.051 7 16 2.815 0 0-6.747 0-7.5 0-2.688 4.81 4.621 5 5l-1 5.5Z"/><path fill="#F0F080" id="CB" d="M350 232h3c0-1.786-4.053-9-6-9v1l1 2v1l1 1v3l1 1ZM108 225h1v-1l-1 1Z"/><path fill="#FDBA86" id="PRNc" d="m222 224 1 2-1-2Z"/><path fill="#FF9BCD" id="MY" d="m347 224 1 2-1-2Z"/><path fill="#F0F080" id="CB" d="m107 231-3 1c0-2.26 1.94-7 4-7v3l-1 1v2Z"/><path fill="#FF9BCD" id="MY" d="m109 225-1 2v-2h1Z"/><path fill="#FEB0D8" id="GRN" d="M193 275h1c.064 0 4.839-4 11-4 0-8.275 20-17.831 20-9h1c0-21.803 5-11.341 5 3 0 1.238.423 3 2 3 0-3.091-1.688-5.123 0-8.5 2.661-5.322 18 5.167 18 11.5 6.537 0 10.308 4 12 4l1-2 1-4-1-1-1-3c-10.047 0-14.387-10.887-20.5-17l-5.5-7c0 2.324-2.454 5.592-4 2.5V227c0-4.613-3.713 1-4.5 1l-4-3-1.5 2 1 13.5c-.822 1.644-5 7.301-5 1.5l-7 8.5c-3.055 6.109-12.037 15.5-19 15.5l-1 1v5l1 1v2Z"/><path fill="#FFB2D8" id="IRN" fill-rule="evenodd" d="m182 251-1 3.5c2.401 4.801 8.574-3.5 1-3.5m9 13-1 1c-1.676 0-14.508-9-25-9 0-6.32 8-10.332 8-16l1-1 1-2 1-1 1-1 6-8h5v1c0 1.048-.473 3 1 3v23.5c1.359 2.719 2 6.26 2 9.5ZM271 251c0 10.481 8.56 0 0 0m-5 14h1l8.5-6c4.647-2.324 10.899-3 16.5-3 0-7.986-19-25.391-19-29-3.786 0-3.932 2-5 2l-1 28.5c-1.263 2.527-2 4.392-2 7.5h1Z"/><path fill="#FF9BCD" id="MY" d="m348 227 1 1-1-1ZM108 228l-1 1 1-1Z"/><path fill="#FF9B88" id="P" d="M141 228c-1.643 0-1 3.765-1 5 1.643 0 1-3.765 1-5Z"/><path fill="#CCCCC7" id="VIIn" d="m173 240-5 1c0-4.423 5-7.542 5-11l1-1c5.966 0 3 .371 3 6l-1 1-1 1-1 2-1 1Z"/><path fill="#FF9B88" id="P" d="M188 228c1.473 0 1 1.952 1 3-1.473 0-1-1.952-1-3Z"/><path fill="#CCCCC7" id="VIIn" d="m285 232-5.5-4c-4.343 2.171 4.277 13 9.5 13l-4-9Z"/><path fill="#FF9BCD" id="MY" d="m174 229-1 1 1-1ZM330 231l-1 1 1-1ZM350 232c0 1.048.473 3-1 3v-4l1 1Z"/><path fill="#FF9B88" id="P" d="M140 234c-1.579 0-1 2.855-1 4 1.579 0 1-2.855 1-4Z"/><path fill="#FF9BCD" id="MY" d="M127 235c1.602 0 1.602 7 0 7v-7ZM177 235l-1 1 1-1ZM176 236l-1 1 1-1ZM175 237l-1 2 1-2ZM108 238l1 1-1-1Z"/><path fill="#FF9B88" id="P" d="M317 238c1.473 0 1 1.952 1 3-1.473 0-1-1.952-1-3Z"/><path fill="#FF9BCD" id="MY" d="m174 239-1 1 1-1Z"/><path fill="#FF9B88" id="P" d="M139 240c-1.473 0-1 1.952-1 3 1.473 0 1-1.952 1-3Z"/><path fill="#FF9BCD" id="MY" d="m153 267 2.5-3c2.13-1.065 1.5 3.996 1.5 5 .175 0 4.268-13 8-13 0-6.32 8-10.332 8-16l-5 1c-2.207 0-.338 5.176-1 6.5-3.397 6.794-4.66 11.5-12 11.5h-1l-1 4v4ZM347 241l-1 1 1-1ZM110 242l1 1-1-1Z"/><path fill="#FF9B88" id="P" d="M318 243c1.535 0 1.535 4 0 4v-4ZM138 247l1 2-1-2Z"/><path fill="#FFC5E2" id="RM" d="M227 275h3v-3c0-1.406-.714-7 1-7 0-14.341-5-24.803-5-3v11l1 2Z"/><path fill="#FF9B88" id="P" d="m318 249-1 2 1-2Z"/><path fill="#FF9BCD" id="MY" d="m113 251 1 2-1-2Z"/><path fill="#FF9B88" id="P" d="m139 251 1 1-1-1Z"/><path fill="#FDB0D9" id="ACVII" d="m182 251-1 3.5c2.401 4.801 8.574-3.5 1-3.5ZM271 251c0 10.481 8.56 0 0 0Z"/><path fill="#FF9B88" id="P" d="m317 252-1 1 1-1ZM140 253l1 1-1-1Z"/><path fill="#FF9BCD" id="MY" fill-rule="evenodd" d="M177 285c0 2.112 5.567 0 0 0m-6-1c1.013 0 4.408 1 2 1 0 2.447-4.682.409-5.5 0l-7-1-7-5c-1.082-.541-4.296-5-.5-5v-7c-4.893 0-3.629 4.435-12.5 0-3.013-1.507-7.602-12-8.5-12l-3.5 7c-2.329 0-1.5-6.61-1.5-8-1.154 0-2.386 5.943-4.5 7-5.544 2.772-7.05-7-8.5-7 0 8.764.412 17.456 7.5 21 1.047.523 2.505 1.748 4 1 3.523-1.762 7.938-8.531 13-6l22 15c5.72 2.86 15.036.518 20 3 2.29 1.145 26.15 3 29.5 3 1.657 0 10 .763 10-1h-6l-5-.5-4-2c-2.543-5.086 15-4.954 15-8.5-2.831 0-.272-7.114 1.5-8l4.5 1v-10h-1v4l-1 1c0 4.883-14.306 7-18 7 0 3.876-13 11.915-13 5-.974 0-2.937 4.219-4.5 5-3.937 1.969-16.931-3-21.5-3l-1 2 5 1Z"/><path fill="#FF9B88" id="P" d="m315 255-1 1 1-1Z"/><path fill="#FFB3D6" id="VII" d="M166 281h1c4.569 0 17.563 4.969 21.5 3 1.563-.781 3.526-5 4.5-5v-6l-1-1v-3l-2-3v-1c-1.676 0-14.508-9-25-9-3.732 0-7.825 13-8 13v2l2 3v1l1 1 2 2 1 1 2 1 1 1ZM292 280l-2 1c-11.129 0-26 10.899-26-8l1-4v-2l1-1 1-1 8.5-6c4.647-2.324 10.899-3 16.5-3 0 1.424 7 9.051 7 16l-1 2-1 1v1l-1 1-1 1-1 1h-1l-1 1Z"/><path fill="#FF9B88" id="P" d="m143 257 2 2-2-2ZM154 259h1v-2l-1 2ZM307 261l-4 3c0-1.623-.005-6-2-6l1-1c0 1.811 3.438 4 5 4Z"/><path fill="#FDB2D9" id="MARN" d="m205 271 1 3c3.694 0 18-2.117 18-7l1-1v-4c0-8.831-20 .725-20 9ZM251 271v3c-3.374 0-18-2.817-18-6 0-3.091-1.688-5.123 0-8.5 2.661-5.322 18 5.167 18 11.5Z"/><path fill="#FF9B88" id="P" d="m312 258-1 1 1-1ZM146 259l2 2-2-2ZM149 261l4 2 1-4-5 2ZM311 259l-1 1 1-1ZM309 260l-1 1 1-1Z"/><path fill="#C8C8CB" id="rust" d="m167 281-1 2c-2.638 0-11-4.827-11-7l-1-1-1-1v-7l2.5-3c2.13-1.065 1.5 3.996 1.5 5v2c0 1.238.423 3 2 3v1l1 1 2 2 1 1 2 1 1 1h1Z"/><path fill="#FF9B88" id="P" d="m193 266-1 1-2-1v-1l1-1 2 2Z"/><path fill="#C8C8CB" id="rust" d="M290 281v2c5.382 0 10.553-8 13-8l1-5.5c-.19-.379-5-7.688-5-5 0 .753 2.815 7.5 0 7.5l-1 2-1 1v1l-1 1-1 1-1 1h-1l-1 1-2 1Z"/><path fill="#FF9BCD" id="MY" fill-rule="evenodd" d="M276 285c0 2.111 7.389 0 0 0m18 0c0 3.273-15.109 1.805-17.5 3-2.273 1.136-38.068 3.966-40 3l-8-4-5.5 2 3-6c1.046 0 1.122 1 4 1l6.5 6c2.872 1.436 17.661-.179 15.5-4.5-1.64-3.28-15-1.959-15-6.5 0-6.504-.569-7-7-7 0-1.406-.714-7 1-7 0 1.238.423 3 2 3 0 3.183 14.626 6 18 6 0 2.658 12 16.066 12 1l1-2c0 18.899 14.871 8 26 8v2l-5 1c-1.058 0-3.029 1-1 1 0 1.702 8.072 0 10 0Z"/><path fill="#FF9B88" id="P" d="M264 268h1v-1l1-1v-1h-3l1 3Z"/><path fill="#FF9BCD" id="MY" d="m267 265-1 1v-1h1ZM192 267v2l-2-3 2 1Z"/><path fill="#FEB0D8" id="GRN" d="m225 266-1 1 1-1Z"/><path fill="#FF9BCD" id="MY" d="m266 266-1 1 1-1ZM265 268v1l-1-1h1Z"/><path fill="#FCB2D8" id="PPY" d="M193 276v3c0 6.915 13-1.124 13-5l-1-3c-6.161 0-10.936 4-11 4l-1 1ZM251 274c0 2.658 12 16.066 12 1-1.692 0-5.463-4-12-4v3Z"/><path fill="#FF9BCD" id="MY" d="m157 271 2 3c-1.577 0-2-1.762-2-3Z"/><path fill="#CACCC8" id="ml" d="M220 279h5l1-3v-4l-4.5-1c-1.772.886-4.331 8-1.5 8ZM231 279h6c0-6.504-.569-7-7-7v3l1 4Z"/><path fill="#FF9BCD" id="MY" d="m192 272 1 1-1-1ZM299 272l-1 2 1-2ZM227 275l-1 1v-3l1 2Z"/><path fill="#CBC7CC" id="sctv" d="m171 284 2 1c0 2.447-4.682.409-5.5 0l-7-1-7-5c-1.082-.541-4.296-5-.5-5l1 1 1 1c0 2.173 8.362 7 11 7l5 1Z"/><path fill="#FF9BCD" id="MY" d="m298 274-1 1 1-1Z"/><path fill="#CBC7CC" id="sctv" d="M284 285c0 1.702 8.072 0 10 0l4-2h1l1-1 1-1c0-3.055 7.947-6 2-6-2.447 0-7.618 8-13 8l-5 1-1 1Z"/><path fill="#FF9BCD" id="MY" d="m154 275 1 1-1-1ZM159 275l1 1-1-1ZM194 275l-1 1v-1h1Z"/><path fill="#FFC6E2" id="RPA" d="M226 283c1.046 0 1.122 1 4 1l1-5-1-4h-3l-1 1-1 3 1 4Z"/><path fill="#FF9BCD" id="MY" d="m297 276-1 1 1-1ZM296 277l-1 1 1-1ZM162 278l1 1-1-1ZM295 278l-1 1 1-1Z"/><path fill="#C7C9C9" id="py" d="M223 289c-1.048 0-3-.473-3 1h-6l-5-.5-4-2c-2.543-5.086 15-4.954 15-8.5h5l1 4-3 6ZM237 279c0 4.541 13.36 3.22 15 6.5 2.161 4.321-12.628 5.936-15.5 4.5l-6.5-6 1-5h6Z"/><path fill="#FF9BCD" id="MY" d="m293 279-1 1 1-1ZM165 280l1 1-1-1ZM301 281l-1 1 1-1ZM300 282l-1 1 1-1ZM298 283l-4 2c1.465 0 4 .109 4-2Z"/><path fill="#CCC7CB" id="tb" d="M171 284c1.013 0 4.408 1 2 1l-2-1ZM285 284c-1.058 0-3.029 1-1 1l1-1ZM177 285c0 2.112 5.567 0 0 0ZM276 285c0 2.111 7.389 0 0 0Z"/><path fill="#FF9BCD" id="MY" d="M223 289c-1.048 0-3-.473-3 1 1.048 0 3 .473 3-1Z"/></svg>