<svg xmlns="http://www.w3.org/2000/svg" viewBox="0 0 456 320"><path fill="#1BA598" id="RSPd1" d="m219 21-2 1-3.5-3c-10.681-5.34-11.613-6-25.5-6V9c8.185 0 31-.825 31 12ZM239 22h1c0-8.548 22.13-9 29-9V9c-10.681 0-19.981-1.52-28.5 7l-3.5 4 2 2Z"/><path fill="#0A8589" id="VISpm1" d="M173 15c-7.065 0-14.703 4-22 4l-1-4c.211 0 19.371-3.935 19.5-4l2.5-2 1 6Z"/><path fill="#1BA696" id="RSPagl1" d="M188 13c-5.65 0-9.704 2-15 2l-1-6h16v4ZM269 13c5.743 0 9.5 2 15 2 0-1.235-.643-5 1-5 0-1.801-13.842-1-16-1v4Z"/><path fill="#0A8589" id="VISpm1" d="m306 15-1 4c-6.873 0-14.316-4-21-4 0-1.235-.643-5 1-5 5.195 0 16.853 5 21 5Z"/><path fill="#1AA496" id="RSPagl2/3" d="M173 23h1l13-4 1-6c-5.65 0-9.704 2-15 2 0 1.745.632 6 0 6v2Z"/><path fill="#1BA697" id="RSPd2/3" d="M212 25h1l4-3-3.5-3c-10.681-5.34-11.613-6-25.5-6l-1 6c4.38 0 25-.86 25 6ZM243 25h1l3.5-3 7-3c4.548-2.274 9.671 0 14.5 0v-6c-6.87 0-29 .452-29 9l3 3Z"/><path fill="#1AA496" id="RSPagl2/3" d="M283 21v2l-14-4v-6c5.743 0 9.5 2 15 2l-1 6Z"/><path fill="#098589" id="VISp1" d="M88 47h1l12.5-8c7.371-3.686 43.185-20 49.5-20l-1-4c-3.908 0-8.174 2.337-11.5 4-2.815 1.408-7.156.578-10 2-9.65 4.825-19.282 9.141-29 14-2.248 1.124-13.5 6.22-13.5 9l2 3Z"/><path fill="#08858B" id="VISpm2/3" d="M154 29h1c0-1.845 3.381-1.44 4.5-2l13.5-6c.632 0 0-4.255 0-6-7.065 0-14.703 4-22 4 0 3.028 3 6.394 3 10ZM283 21c6.337 0 12.28 7 19 7l3-9c-6.873 0-14.316-4-21-4l-1 6Z"/><path fill="#098589" id="VISp1" d="m371 44-3 3c-4.546 0-11.403-6.952-15.5-9-7.717-3.859-40.461-19-47.5-19l1-4c9.889 0 29.601 9.55 38.5 14 4.018 2.009 12.531 3.561 14.5 7.5 1.119 2.238 12 4.248 12 7.5Z"/><path fill="#1AA596" id="RSPd5" d="M185 29c3.861 0 16-4.597 16 4 2.367 0 11-5.66 11-8 0-6.86-20.62-6-25-6 0 3.894-2 6.605-2 10ZM271 29c-3.68 0-15-4.762-15 4-2.442 0-12-4.832-12-8l3.5-3 7-3c4.548-2.274 9.671 0 14.5 0l2 10Z"/><path fill="#0A828C" id="VISp2/3" d="M89 47c0 1.572 2.052 7 4 7l16.5-9c5.967-2.984 39.144-16 44.5-16 0-3.606-3-6.972-3-10-6.315 0-42.129 16.314-49.5 20L89 47Z"/><path fill="#1CA697" id="RSPagl5" d="M173 35h1l10-5 1-1c0-3.395 2-6.106 2-10l-13 4-1 12ZM272 30l11 5V23l-14-4 2 10 1 1Z"/><path fill="#0A828C" id="VISp2/3" d="M363 55h1c0-1.572 2.052-7 4-7v-1c-4.546 0-11.403-6.952-15.5-9-7.717-3.859-40.461-19-47.5-19l-3 9v1c8.333 0 39.075 13.788 47.5 18 2.346 1.173 13.5 4.697 13.5 8Z"/><path fill="#1BA597" id="RSPv1" d="m280 72-3 2c0-1.639-8.94-4.22-10.5-5-4.251-2.125-26.072-9.643-27.5-12.5-1.598-3.196-9.395-25.21-8-28l6-8.5 2 2c0 4.015-5.504 9.491-3 14.5l5 13c4.565 9.13 18.101 10.8 25.5 14.5 1.658.829 12.937 8 13.5 8Z"/><path fill="#09828B" id="VISpm4" d="M155 32h1l17-9v-2l-13.5 6c-1.119.56-4.5.155-4.5 2v3Z"/><path fill="#1BA597" id="RSPv1" d="m177 72 2 2c6.973 0 17.274-11 26-11 0-2.334 4.181-1.34 5.5-2 3.388-1.694 6.724-3.948 8.5-7.5 2.546-5.091 2.432-11.865 5-17l2-6c-1.067-2.133-2.891-3.782-4-6l-3-3.5-2 1 4 9.5c1.254 2.508-6.138 20.319-8.5 21.5l-9 6c-5.131 2.566-14.393 3.393-18.5 7.5l-8 5.5Z"/><path fill="#09828B" id="VISpm4" d="m302 29-1 3c-6.38 0-11.525-8-18-8v-3c6.337 0 12.28 7 19 7v1Z"/><path fill="#1AA597" id="RSPv2/3" d="m174 70 3 2 8-5.5c4.107-4.107 13.369-4.934 18.5-7.5l9-6c2.362-1.181 9.754-18.992 8.5-21.5l-4-9.5-4 3 2 4.5c3.849 7.698-4.393 20.446-10.5 23.5-4.919 2.46-30.5 11.448-30.5 17ZM282 70l-2 2c-.563 0-11.842-7.171-13.5-8-7.399-3.7-20.935-5.37-25.5-14.5l-5-13c-2.504-5.009 3-10.485 3-14.5h1l3 3c0 10.912-3.919 8.661 2 20.5l3.5 5.5c5.821 2.91 33.5 13.25 33.5 19Z"/><path fill="#088489" id="VISpm5" d="m173 35-14 6-3-9 17-9h1l-1 12ZM297 41h1c0-1.283 1.931-8 3-8v-1c-6.38 0-11.525-8-18-8v11l14 6Z"/><path fill="#1BA498" id="RSPv5" d="m171 67 3 3c0-5.552 25.581-14.54 30.5-17 6.107-3.054 14.349-15.802 10.5-23.5l-2-4.5h-1c0 2.34-8.633 8-11 8 0 17.853-30 16.782-30 34ZM286 67l-4 3c0-5.75-27.679-16.09-33.5-19l-3.5-5.5c-5.919-11.839-2-9.588-2-20.5h1c0 3.168 9.558 8 12 8v1c0 15.87 30 17.424 30 33Z"/><path fill="#1AA697" id="RSPd6a" d="m179 40 2 1c5.917 0 16.054-8 20-8 0-8.597-12.139-4-16-4l-1 1c0 1.955-2.593 9-5 9v1ZM277 40l-2 1c-6.929 0-12.334-7-19-7v-1c0-8.762 11.32-4 15-4l1 1c0 1.472 3.803 9 5 9v1Z"/><path fill="#0B848B" id="VISp4" d="M95 59h1l11.5-6c11.279-5.64 23.703-9.352 35-15 2.077-1.039 12.5-3.195 12.5-6v-3h-1c-5.356 0-38.533 13.016-44.5 16L93 54v1l2 4ZM360 59h1l2-4c0-3.303-11.154-6.827-13.5-8-8.425-4.212-39.167-18-47.5-18l-1 3v1c4.444 0 9.664 4.082 13.5 6 11.085 5.542 23.885 8.443 35 14l10.5 6Z"/><path fill="#1CA597" id="RSPagl6a" d="m179 39-5 1v-5l10-5c0 1.955-2.593 9-5 9ZM277 39l5 1 1-5-11-5c0 1.472 3.803 9 5 9Z"/><path fill="#088389" id="VISp5" d="M96 59c0 2.297 3.016 8 5 8 3.655 0 7.335-4.417 10.5-6 11.117-5.558 23.94-8.47 35-14l12.5-6-3-9h-1c0 2.805-10.423 4.961-12.5 6-11.297 5.648-23.721 9.36-35 15L96 59Z"/><path fill="#1AA498" id="RSPv6a" d="M169 67h2c0-17.218 30-16.147 30-34-3.946 0-14.083 8-20 8v1c1.607 0-.21 3-2 3 0 5.163-4.897 6.295-7 10.5l-3 5.5v6Z"/><path fill="#088389" id="VISp5" d="m360 59-4 8c-4.446 0-9.644-5.072-13.5-7-9.653-4.827-20.312-8.156-30-13-2.022-1.011-14.5-3.852-14.5-6 0-1.283 1.931-8 3-8 4.444 0 9.664 4.082 13.5 6 11.085 5.542 23.885 8.443 35 14l10.5 6Z"/><path fill="#1AA498" id="RSPv6a" d="M286 67h1v-6l-10-16c-1.577 0-2-1.762-2-3v-1c-6.929 0-12.334-7-19-7 0 15.87 30 17.424 30 33Z"/><path fill="#09858B" id="VISpm6a" d="m170 43-8 4-3-6 14-6h1v5l-4 3ZM297 41l-2 7-13-8 1-5 14 6Z"/><path fill="#1AA598" id="RSPagl6b" d="M174 41h5v-2l-5 1v1ZM277 41h5v-1l-5-1v2Z"/><path fill="#088589" id="VISpm6b" d="M174 41c0 2.109-2.535 2-4 2l4-3v1Z"/><path fill="#1BA698" id="RSPd6b" d="M180 42h1v-1l-2-1v1l1 1ZM275 42h2v-2l-2 1v1Z"/><path fill="#088589" id="VISpm6b" d="M294 49h1v-1l-13-8v1l12 8Z"/><path fill="#08858C" id="VISp6a" d="M103 73h1c5.361 0 13.923-10 21-10 0-1.693 8.239-4 10-4 0-1.995 4.377-2 6-2 0-2.063 8.058-4 10-4 0-1.817 7.169-4 9-4l2-1v-1l-3-6-12.5 6c-11.06 5.53-23.883 8.442-35 14-3.165 1.583-6.845 6-10.5 6v1l2 5Z"/><path fill="#CACCC7" id="cing" d="M165 50c10.551 0 4 2.709 4 11l3-5.5c2.103-4.205 7-5.337 7-10.5l1-3-1-1h-5c0 2.109-2.535 2-4 2 0 2.196-6.304 6-8 6 0 1.473 1.952 1 3 1ZM292 50c-2.315 0-5.508-2.484-7 .5-.691 1.383 5.482 10.5 2 10.5l-10-16v-4h5l12 8-2 1Z"/><path fill="#08858C" id="VISp6a" d="m356 68-3 5c-4.3 0-10.635-6.067-14.5-8l-32-12-11.5-5 2-7h1c0 2.148 12.478 4.989 14.5 6 9.688 4.844 20.347 8.173 30 13 3.856 1.928 9.054 7 13.5 7v1Z"/><path fill="#1AA497" id="RSPv6b" d="M181 42c1.607 0-.21 3-2 3l1-3h1ZM277 42v3c-1.577 0-2-1.762-2-3h2Z"/><path fill="#088589" id="VISpm6b" d="M162 48v1c1.696 0 8-3.804 8-6l-8 4v1Z"/><path fill="#09848A" id="VISl1" d="M78 50c3.09 0-2.09 4 1 4 1.959 0 9-5.32 9-7l-2-3-8 6ZM377 55h1v-6l-7-5-3 3v1c1.576 0 9 5.242 9 7Z"/><path fill="#0A8489" id="VISl2/3" d="m78 56 1 2.5-2 2 2 1c0 1.353-2 .31-2 4.5 5.676 0 9.709-11 16-11v-1c-1.948 0-4-5.428-4-7h-1c0 1.68-7.041 7-9 7v1l-1 1Z"/><path fill="#08858A" id="VISp6b" d="M160 49h2v-1l-2 1ZM353 74l-1 1-9.5-6c-7.096-3.548-28.192-14-35.5-14l-12-6v-1l11.5 5 32 12c3.865 1.933 10.2 8 14.5 8v1Z"/><path fill="#0A8489" id="VISl2/3" d="M379 67h1c0-.532-.965-7.43-1-7.5l-2-1 2-2-2-1.5c0-1.758-7.424-7-9-7-1.948 0-4 5.428-4 7 2.532 0 15 9.07 15 12Z"/><path fill="#08858A" id="VISp6b" d="M160 49c-1.831 0-9 2.183-9 4 2.097 0 9-1.533 9-4Z"/><path fill="#C9C9CA" id="scwm" d="M149 55c1.048 0 3-.473 3 1 1.387 0 13-5.165 13-6-1.048 0-3 .473-3-1h-2c0 2.467-6.903 4-9 4l-2 2Z"/><path fill="#C8C9CA" id="fp" d="M59 143h1l1-2v-2l1-2v-1l1-1v-2l1-1v-1l1-1v-1l1-2 1-1v-1l1-1v-1l1-1v-1l1-1 1-1v-1l1-1 1-2 1-2 1-1 1-1 1-1v-1l1-1 1-1v-1l1-1 1-1 1-1 1-1v-1l2-1v-1l2-2 2-2 2-2h1l1-1 1-1 1-1 2-1 1-1 1-1 2-1 1-1 1-1 2-1 1-1 1-1h1l1-1 2-1 2-1 2-1 2-1 2-1 2-1 2-1 2-1 2-1h1c0-1.473 1.952-1 3-1 0-1.58 2.855-1 4-1h1c0-5.83 6.733-4.117 10.5-6 8.863-4.432 20.5-7.21 20.5 7 1.577 0 2-1.762 2-3v-6c0-8.291 6.551-11-4-11 0 .835-11.613 6-13 6l-15.5 7c-6.582 3.291-14.372 4.686-21 8l-21 14L79 100.5c-1.391 1.391-6 8.885-6 7.5l-1 1c2.144 0-4.242 9.983-5 11.5-3.507 7.013-8 14.026-8 22.5ZM397 143h1c0-8.112-5.597-14.694-9-21.5-9.854-19.708-23.538-38.019-44.5-48.5-10.05-5.025-21.016-8.008-31-13-1.533-.767-8.5-1.971-8.5-4-1.714 0-13-4.534-13-6-2.315 0-5.508-2.484-7 .5-.691 1.383 5.482 10.5 2 10.5v6c0 1.429 1.288 4 3 4 0-14.874 7.904-13.798 19.5-8 4.471 2.235 10.5.416 10.5 6h2c1.623 0 6 .005 6 2h1l8 4h1c1.238 0 3 .423 3 2h1c1.628 0 9 3.9 9 6h1l2 2h1l7 6 1 1c2.89 0 17 15.394 17 18l1 2 2 2v1l2 2v1c1.428 0 4 4.822 4 6v1l1 1v1l1 1v1l1 1v1l1 1v2l1 1v1l1 2v1l2 4Z"/><path fill="#C9C9CA" id="scwm" d="m307 55-2 1c-1.714 0-13-4.534-13-6l2-1h1l12 6Z"/><path fill="#0B838B" id="VISal1" d="m399 70-3 3c-1.953 0-14.009-18-18-18v-6l17.5 16 3.5 5ZM60 73h1l4-4.5C66.719 65.062 74.9 56 78 56l1-1v-1c-3.09 0 2.09-4-1-4-1.216 0-21 18.663-21 20l3 3Z"/><path fill="#08858A" id="VISp6b" d="M149 55c-3.235 0-4.55 2-8 2 0-2.063 8.058-4 10-4l-2 2Z"/><path fill="#098389" id="VISal2/3" d="m79 55-1 1 1-1Z"/><path fill="#08828B" id="VISl4" d="M77 67v5c2.251 0 12.367-7.867 14-9.5l4-3.5-2-4c-6.291 0-10.324 11-16 11v1Z"/><path fill="#CBC9C7" id="or" d="M73 106v2c0 1.385 4.609-6.109 6-7.5L94.5 85l21-14c6.628-3.314 14.418-4.709 21-8l15.5-7c0-1.473-1.952-1-3-1-3.235 0-4.55 2-8 2 0 1.995-4.377 2-6 2 0 2.623-7.828 4-10 4 0 1.746-3.332 2.416-4.5 3-1.893.946-15.889 9-16.5 9L90 85l-1 1-2 1c0 1.747-.253 2-2 2 0 1.747-.253 2-2 2 0 1.747-.253 2-2 2 0 1.608-5.726 10-7 10l-1 2c1.186 0 1.186 1 0 1ZM398 143c0 2.242 3 12.993 3 6v-8c-1.473 0-1-1.952-1-3l-1-1-1-1-5-13-1-1-1-3-1-1-2-4-1-1c0-2.747-4-4.56-4-8l-1-3-7-8-6-7c-3.769 0-11.568-12-17-12l-9.5-6c-7.096-3.548-28.192-14-35.5-14l-2 1c0 2.029 6.967 3.233 8.5 4 9.984 4.992 20.95 7.975 31 13 20.962 10.481 34.646 28.792 44.5 48.5 3.403 6.806 9 13.388 9 21.5Z"/><path fill="#08828B" id="VISl4" d="M380 74h1c0-2.748-2-3.506-2-7 0-2.93-12.468-12-15-12h-1l-2 4c0 .837 19 11.332 19 15Z"/><path fill="#098389" id="VISal2/3" d="m396 74-5 4-11-11c0-.532-.965-7.43-1-7.5l-2-1 2-2-2-1.5h1c3.991 0 16.047 18 18 18v1ZM65 79h1c0-4.73 10-7.698 10-12l1-1c0-4.19 2-3.147 2-4.5l-2-1 2-2-1-2.5c-3.1 0-11.281 9.062-13 12.5L61 73c0 3.086 4 2.914 4 6Z"/><path fill="#08858A" id="VISp6b" d="M141 57c-1.623 0-6 .005-6 2 1.623 0 6-.005 6-2Z"/><path fill="#0B858B" id="VISl5" d="M82 82h1c0-2.763 15.457-14 18-14v-1c-1.984 0-5-5.703-5-8h-1l-4 3.5C89.367 64.133 79.251 72 77 72l-1 2 1 2 5 6Z"/><path fill="#08858A" id="VISp6b" d="M135 59c-1.761 0-10 2.307-10 4 2.172 0 10-1.377 10-4Z"/><path fill="#C9CCC9" id="dhc" d="M162 73h1l1-1h1l1-1 1-1c0-14.21-11.637-11.432-20.5-7-3.767 1.883-10.5.17-10.5 6h2c0-1.566 5-1.566 5 0h2c1.623 0 6 .005 6 2h1l2 1 7 1h1ZM293 73h2l8-1 1-1h1c0-1.995 4.377-2 6-2h2c0-1.566 5-1.566 5 0h2c0-5.584-6.029-3.765-10.5-6-11.596-5.798-19.5-6.874-19.5 8l2 1 1 1Z"/><path fill="#0B858B" id="VISl5" d="M380 76c-3.097 0-3.127 5-6 5-4.121 0-12.524-13-18-13v-1l4-8h1c0 .837 19 11.332 19 15v2Z"/><path fill="#FF7AFD" id="SCzo" d="m288 87-1 1c0-5.73-11.735-11.117-15.5-13-13.014-6.507-41.5-24.084-41.5 4l-1 1h-2l-1-1c0-28.204-28.42-10.54-41.5-4-3.483 1.742-13.5 6.92-13.5 12h-2v-2l1-1 1-1 1-1 1-1 1-1 1-1 1-1 1-1 28-14c4.404 0 10.86-4.32 15.5-2l6.5 7.5 1.5 4.5 1.5-5.5c2.16-4.32 8.784-9.358 14.5-6.5 7.997 3.998 17.041 6.02 25 10l9.5 6 8 8 1 2Z"/><path fill="#08858A" id="VISp6b" d="M104 73v2c.611 0 14.607-8.054 16.5-9 1.168-.584 4.5-1.254 4.5-3-7.077 0-15.639 10-21 10Z"/><path fill="#FF78FF" id="SCsg" d="M226 79c-3.039 0-6.756-10.872-14.5-7-3.707 1.853-38.365 15-40.5 15 0-5.08 10.017-10.258 13.5-12 13.08-6.54 41.5-24.204 41.5 4ZM230 79c5.103 0 7.733-10.884 15.5-7 9.757 4.878 21.299 6.15 31 11 3.234 1.617 6.712 5 10.5 5 0-5.73-11.735-11.117-15.5-13-13.014-6.507-41.5-24.084-41.5 4Z"/><path fill="#0A8489" id="VISl2/3" d="M76 67h1v-1l-1 1Z"/><path fill="#088588" id="VISal4" d="M68 81h1c0-3.413 6-3.638 6-7l2-2v-5h-1c0 4.302-10 7.27-10 12l2 2Z"/><path fill="#47C83C" id="POST" d="m165 89-4 2c0-2.722 3.621-3.742 5-6.5 1.926-3.851-4-7.398-4-10.5v-1h1l1-1h1l1-1 1-1c1.577 0 2-1.762 2-3h2l3 3 3 2 2 2-2 3-1 1-1 1-1 1-1 1-1 1-1 1-1 1-1 1-2 2-1 1-1 1ZM293 90l6 3-8-7.5c-2.587-5.174 4-8.817 4-12.5h-2l-1-1-2-1c-1.712 0-3-2.571-3-4h-1l-4 3-2 2-3 2 2 3 8 8c2.732 0 2.259 4 5 4l1 1Z"/><path fill="#088588" id="VISal4" d="M387 81h2c0-1.747.253-2 2-2v-1l-11-11h-1c0 3.494 2 4.252 2 7 0 1.892 6 3.649 6 7Z"/><path fill="#08848C" id="VISl6a" d="m89 85-2 1-4-4c0-2.763 15.457-14 18-14l2 5c0 4.278-14 6.865-14 12Z"/><path fill="#C7C8CC" id="alv" d="M138 69h5c0-1.566-5-1.566-5 0ZM313 69h5c0-1.566-5-1.566-5 0Z"/><path fill="#08848C" id="VISl6a" d="m374 82-4 4c-3.721 0-12.143-12-17-12v-1l3-5c5.476 0 13.879 13 18 13v1Z"/><path fill="#C7C8CC" id="alv" d="M135 69c-1.145 0-4-.58-4 1 1.145 0 4 .58 4-1Z"/><path fill="#57B947" id="ProS" d="M140 95c-3.68 0-5.511 2-9 2-.913 0-2-5.014-2-6l-2-19v-1h1c1.048 0 3 .473 3-1 1.145 0 4 .58 4-1h3c0 9.1 2 17.406 2 26Z"/><path fill="#4FC244" id="SUB" d="M140 95h11c0-1.473 1.952-1 3-1l1-1h3c0-1.577 1.762-2 3-2 0-2.722 3.621-3.742 5-6.5 1.926-3.851-4-7.398-4-10.5l-1-1-7-1-2-1h-1c-.986 0-6-1.087-6-2h-7c0 9.1 2 17.406 2 26Z"/><path fill="#C7C8CC" id="alv" d="M145 69c1.623 0 6 .005 6 2-.986 0-6-1.087-6-2ZM311 69c-1.623 0-6 .005-6 2 1.357 0 6-.647 6-2Z"/><path fill="#4FC244" id="SUB" d="M316 94c-3.51 0-7.022 1-10 1 0-1.58-2.855-1-4-1l-1-1h-2l-8-7.5c-2.587-5.174 4-8.817 4-12.5l8-1 1-1h1c1.357 0 6-.647 6-2h7c0 7.726-2 17.023-2 25Z"/><path fill="#57B947" id="ProS" d="M316 94c0 2.064 3.353.426 4.5 1l5.5 3 4-26-1-1h-1c-1.357 0-6-.647-6-2h-4c0 7.726-2 17.023-2 25Z"/><path fill="#C7C8CC" id="alv" d="M322 69c1.623 0 6 .005 6 2-1.357 0-6-.647-6-2Z"/><path fill="#15B0B3" id="TEa1" d="M60 73c0 1.429-1.288 4-3 4l-3-4 3-3 3 3Z"/><path fill="#C7C8CC" id="alv" d="M131 70c-1.048 0-3-.473-3 1 1.048 0 3 .473 3-1Z"/><path fill="#C8C9CA" id="fp" d="m167 70-1 1 1-1Z"/><path fill="#15B0B3" id="TEa1" d="M399 78h1l2-5-3-3-3 3v1l3 4Z"/><path fill="#C7C8CC" id="alv" d="M125 72h2v-1l-2 1ZM152 71l2 1-2-1Z"/><path fill="#7DCD4B" id="HPF" d="m166 71-1 1 1-1Z"/><path fill="#C7C8CC" id="alv" d="m304 71-1 1 1-1ZM330 72l7 3-8-4 1 1Z"/><path fill="#08828B" id="VISl4" d="M75 74h1l1-2-2 2Z"/><path fill="#C7C8CC" id="alv" d="m125 72-2 1 2-1Z"/><path fill="#7ECF4B" id="CA1" d="M118 242h1c1.911 0 15-10.3 15-11 0-4.372-13.693-13.886-16-18.5l-17-18-8-12-6-16c-6.55-13.102 11.683-49.592 23.5-55.5 5.597-2.799 10.504-7.252 16-10l4.5-4c-.913 0-2-5.014-2-6l-2-19h-2l-2 1-2 1-2 1-2 1-2 1-2 1-2 1-2 1-1 1h-1l-1 1-1 1-2 1-1 1-1 1-2 1-1 1-1 1-2 1-1 1-1 1-1 1h-1c0 1.747-.253 2-2 2 0 1.747-.253 2-2 2 0 1.747-.253 2-2 2v1l-2 1v1l-1 1-1 1-1 1-1 1v1l-1 1-1 1v1l-1 1-1 1-1 1-1 2-1 2-1 1v1l-1 1-1 1v1l-1 1v1l-1 1v1l-1 1-1 2v1l-1 1v1l-1 1v2l-1 1v1l-1 2v2c0 1.048.473 3-1 3 0 1.048.473 3-1 3v29c1.646 0 1.466 4.966 2.5 6l6.5 16.5 3 5.5v1c.782 0 13.707 19.604 18.5 22l18 11 5.5 3h2l3 1Z"/><path fill="#7DCD4B" id="HPF" d="m164 72-1 1 1-1Z"/><path fill="#FD7AFF" id="SCop" d="m169 88-1 5c4.238 0 9.8-4.15 13.5-6 8.02-4.01 17.98-3.99 26-8 6.273-3.137 19.5 8.68 19.5 4v-3l-1-1c-3.039 0-6.756-10.872-14.5-7-3.707 1.853-38.365 15-40.5 15h-1l-1 1ZM287 88l1 5-10.5-5-29-9c-7.391-3.695-13.324 6-17 6l-2.5-2v-3l1-1c5.103 0 7.733-10.884 15.5-7 9.757 4.878 21.299 6.15 31 11 3.234 1.617 6.712 5 10.5 5Z"/><path fill="#7DCD4B" id="HPF" d="m292 72 1 1-1-1Z"/><path fill="#7ECF4B" id="CA1" d="M342 241h1l2-1 2-1 2-1 2-1h1l1-1 2-1 2-1 2-1 1-1 1-1h1l1-1 2-1 1-1 1-1c0-1.901 4.332-5 6-5l1-1c0-1.429 1.288-4 3-4 0-1.429 1.288-4 3-4l1-1c0-1.238.423-3 2-3l1-2 1-2 1-2 1-1v-1l1-1 1-2c0-1.465-.109-4 2-4v-1l2-4c0-2.091 1.913-11 4-11v-33c-1.353 0-2-4.643-2-6v-1l-1-2v-1l-1-1v-2l-1-1v-1l-1-1v-1l-1-1v-1l-1-1v-1c-1.428 0-4-4.822-4-6v-1l-2-2v-1l-2-2-1-2-13-14.5-4-3.5-1-1c-1.338 0-7-4.41-7-6h-1l-2-2h-1c-1.156 0-9-4.801-9-6h-1c-1.238 0-3-.423-3-2h-1l-7-3-4 26c5.685 0 16.107 12.303 21.5 15 8.889 4.444 27.626 35.249 21.5 47.5v8l-12 24-24 26c-2.115 4.229-10 7.555-10 12.5 0 3.439 12.237 11 15 11l4-1Z"/><path fill="#039299" id="AUDpo1" d="M42 97h1c0-1.998 12.433-18 14-18v-1c-1.186 0-1.186-1 0-1l-3-4c-.697 0-15 18.842-15 21l3 3Z"/><path fill="#16AFB3" id="TEa2/3" d="m65 79-4 5-4-5v-2c1.712 0 3-2.571 3-4h1c0 3.086 4 2.914 4 6Z"/><path fill="#09858C" id="VISl6b" d="M89 85h1l14-10v-2h-1c0 4.278-14 6.865-14 12Z"/><path fill="#C7C8CC" id="alv" d="m123 73-2 1 2-1Z"/><path fill="#7DCD4B" id="HPF" d="M162 73v1l-1-1h1Z"/><path fill="#039299" id="AUDpo1" d="M413 97h1c0-1.457 3-1.46 3-4 0-1.762-13.897-20-15-20l-2 5c0 3.675 13 12.945 13 19Z"/><path fill="#08848B" id="VISal5" d="m69 81 1 1c5.48 0 2.238-6 7-6l-1-2h-1c0 3.362-6 3.587-6 7Z"/><path fill="#C7C8CC" id="alv" d="m121 74-2 1 2-1Z"/><path fill="#09858C" id="VISl6b" d="M369 87h1v-1c-3.721 0-12.143-12-17-12l-1 1c5.432 0 13.231 12 17 12Z"/><path fill="#08848B" id="VISal5" d="M380 76c3.543 0 2.613 7 3.5 7 1.045 0 1.861-2 3.5-2 0-3.351-6-5.108-6-7h-1v2Z"/><path fill="#16AFB3" id="TEa2/3" d="m391 79 5 6 3-7-3-4-5 4v1Z"/><path fill="#C7C8CC" id="alv" d="m119 75-2 1 2-1ZM338 75c1.238 0 3 .423 3 2-1.238 0-3-.423-3-2Z"/><path fill="#0A848A" id="VISli5" d="M75 89h1l6-7-5-6c-4.762 0-1.52 6-7 6 0 2.96 5 4.266 5 7Z"/><path fill="#C7C8CC" id="alv" d="m117 76-2 1 2-1Z"/><path fill="#0A848A" id="VISli5" d="M380 89h1c0-3.254 6-5.133 6-8-1.639 0-2.455 2-3.5 2-.887 0 .043-7-3.5-7-3.097 0-3.127 5-6 5v1c1.59 0 6 5.662 6 7Z"/><path fill="#15B0B3" id="TEa1" d="M57 77c-1.186 0-1.186 1 0 1v-1Z"/><path fill="#C7C8CC" id="alv" d="m115 77-2 1 2-1ZM342 77c1.628 0 9 3.9 9 6-1.156 0-9-4.801-9-6ZM113 78l-2 1 2-1Z"/><path fill="#029199" id="AUDpo2/3" d="M413 97c0 2.618-4 3.093-4 5l-13-17 3-7h1c0 3.675 13 12.945 13 19ZM47 103h1c0-2.253 10.818-17 12-17l1-2-4-5c-1.567 0-14 16.002-14 18 0 2.789 4 3.42 4 6Z"/><path fill="#15B0B2" id="TEa4" d="m60 86 3 2c1.391 0 5-5.706 5-7l-2-2h-1l-4 5-1 2Z"/><path fill="#C7C8CC" id="alv" d="m111 79-2 1 2-1Z"/><path fill="#FF90FF" id="SCig" d="m167 132 2-3.5 2-9c3.217-6.435 11.422-14.961 18.5-18.5 6.208-3.104 11.88-6.94 18-10 6.457-3.228 14.66 3 20.5 3 5.817 0 14.195-6.152 20.5-3 12.54 6.27 29.353 13.206 36.5 27.5 1.283 2.566.733 6.466 2 9l2 4.5c4.672 0 14 3.749 14-6v-8l-1-1v-2l-1-1-1-4-1-1v-2l-1-1v-1l-1-1c0-1.238-1.923-5-3-5l-1-1v-1l-5-4-10.5-5-29-9c-7.391-3.695-13.324 6-17 6l-2.5-2h-2c0 4.68-13.227-7.137-19.5-4-8.02 4.01-17.98 3.99-26 8-3.7 1.85-9.262 6-13.5 6l-4 4-2 2-1 1v1l-1 1-1 3-1 1v1l-1 1v2l-1 1-1 4-1 2v8c0 11.557 7.987 7 13 7Z"/><path fill="#15B0B2" id="TEa4" d="M393 89h1l2-4-5-6c-1.747 0-2 .253-2 2l4 8Z"/><path fill="#C7C8CC" id="alv" d="m109 80-1 1 1-1Z"/><path fill="#FF64FF" id="MB" d="M227 83h2v-3h-2v3Z"/><path fill="#15AFB3" id="TEa5" d="M75 89c0 1.626-4.11 8-6 8-3.646 0-2.604-8-6-8v-1c1.391 0 5-5.706 5-7h1l1 1c0 2.96 5 4.266 5 7Z"/><path fill="#C7C8CC" id="alv" d="m107 81-1 1 1-1Z"/><path fill="#15AFB3" id="TEa5" d="m393 89-6 8-6-8c0-3.254 6-5.133 6-8h2l4 8Z"/><path fill="#088488" id="VISli6a" d="M80 93h1c0-1.747.253-2 2-2 0-1.747.253-2 2-2 0-1.747.253-2 2-2v-1l-4-4h-1l-6 7 4 4Z"/><path fill="#C7C8CC" id="alv" d="m106 82-1 1 1-1Z"/><path fill="#088488" id="VISli6a" d="M376 93h1c0-1.114 2.034-4 3-4 0-1.338-4.41-7-6-7l-4 4v1l6 6Z"/><path fill="#C7C8CC" id="alv" d="m105 83-2 1 2-1ZM352 83l2 2-2-2ZM103 84l-1 1 1-1Z"/><path fill="#09858C" id="VISl6b" d="m89 86-2 1v-1l2-1v1Z"/><path fill="#C9C9CA" id="scwm" d="m90 85-1 1v-1h1Z"/><path fill="#C7C8CC" id="alv" d="m102 85-1 1 1-1ZM355 85l7 6c-1.338 0-7-4.41-7-6Z"/><path fill="#039298" id="AUDpo4" d="m409 103-4 2-11-16 2-4 13 17v1ZM48 103c2.215 0 1.519 2 3 2l12-16v-1l-3-2c-1.182 0-12 14.747-12 17Z"/><path fill="#C7C8CC" id="alv" d="m101 86-2 1 2-1Z"/><path fill="#08818B" id="VISli6b" d="M87 87c-1.747 0-2 .253-2 2 1.747 0 2-.253 2-2Z"/><path fill="#C7C8CC" id="alv" d="m99 87-1 1 1-1Z"/><path fill="#7DCD4B" id="HPF" d="M166 88h1v-1l-1 1Z"/><path fill="#FF64FF" id="MB" d="M164 95v2l4-4 1-5v-1l-2 1c0 3.047-3 4.462-3 7Z"/><path fill="#FF78FF" id="SCsg" d="m170 87-1 1v-1h1Z"/><path fill="#FF64FF" id="MB" d="M293 95c-1.93 0 0 1.161 0 2l-5-4-1-5 1-1 5 8Z"/><path fill="#08818B" id="VISli6b" d="m376 93-1 1-6-7h1l6 6Z"/><path fill="#C7C8CC" id="alv" d="m98 88-1 1 1-1Z"/><path fill="#7DCD4B" id="HPF" d="m166 88-1 1 1-1Z"/><path fill="#019197" id="AUDpo5" d="M51 106c3.534 0 5.047 6 9 6 3.028 0 4.912-13 9-13v-2c-3.646 0-2.604-8-6-8l-12 16v1Z"/><path fill="#15AFB2" id="TEa6a" d="m69 99 4 2 7-8-4-4h-1c0 1.626-4.11 8-6 8v2Z"/><path fill="#08818B" id="VISli6b" d="M85 89c-1.747 0-2 .253-2 2 1.747 0 2-.253 2-2Z"/><path fill="#C7C8CC" id="alv" d="m97 89-2 1 2-1Z"/><path fill="#7DCD4B" id="HPF" d="m292 89 1 1-1-1Z"/><path fill="#15AFB2" id="TEa6a" d="m387 99-4 3c0-3.45-6-6.02-6-9 0-1.114 2.034-4 3-4h1l6 8v2Z"/><path fill="#019197" id="AUDpo5" d="M405 106c-3.07 0-5.349 6-9 6 0-2.066-6.546-13-9-13v-2l6-8h1l11 16v1Z"/><path fill="#C7C8CC" id="alv" d="m95 90-1 1 1-1Z"/><path fill="#08818B" id="VISli6b" d="M83 91c-1.747 0-2 .253-2 2 1.747 0 2-.253 2-2Z"/><path fill="#C7C8CC" id="alv" d="m94 91-1 1 1-1Z"/><path fill="#47C83C" id="POST" d="M161 91c-1.238 0-3 .423-3 2 1.238 0 3-.423 3-2Z"/><path fill="#FF90FE" id="SCiw" d="m167 132 2-3.5 2-9c3.217-6.435 11.422-14.961 18.5-18.5 6.208-3.104 11.88-6.94 18-10 6.457-3.228 14.66 3 20.5 3 5.817 0 14.195-6.152 20.5-3 12.54 6.27 29.353 13.206 36.5 27.5 1.283 2.566.733 6.466 2 9l2 4.5c0 6.007-18.426 2.537-21.5 1-4.278-2.139-8.247-11.994-10.5-16.5-.659-1.319.334-5.5-2-5.5 0-19.812-54-19.933-54 1-1.59 0-1.443 4.386-2 5.5-2.154 4.308-5.524 13.012-10.5 15.5-4.469 2.234-11.89 4.555-17 2l-4.5-3Z"/><path fill="#C7C8CC" id="alv" d="m93 92-1 1 1-1ZM363 92c2.89 0 17 15.394 17 18l-13-14.5-4-3.5Z"/><path fill="#16B0B2" id="TEa6b" d="M73 103h1c1.274 0 7-8.392 7-10h-1l-7 8v2Z"/><path fill="#C7C8CC" id="alv" d="m91 93-2 2c1.747 0 2-.253 2-2Z"/><path fill="#47C83C" id="POST" d="m155 93-1 1 1-1Z"/><path fill="#7DCD4B" id="HPF" d="M151 95c1.145 0 4-.58 4 1l3-3h-3l-1 1c-1.048 0-3-.473-3 1ZM306 95c-2.567 0-3.913 2-5 2l-2-4h2l1 1c1.145 0 4-.58 4 1Z"/><path fill="#47C83C" id="POST" d="m301 93 1 1-1-1Z"/><path fill="#16B0B2" id="TEa6b" d="M382 102h1c0-3.45-6-6.02-6-9h-1l-1 1 7 8Z"/><path fill="#029297" id="AUDp1" d="m427 113-4 1-9-17c0-1.457 3-1.46 3-4 .998 0 10 17.386 10 20ZM33 114h1l8-17-3-3c-1.988 0-2.408 3.315-3 4.5L29 113l4 1Z"/><path fill="#7BD04A" id="DG-mo" d="m138 235 3 2c8.682 0 14.667-13 8-13 0 18.207-19-2.884-19-9 0-4.113-21-21.396-21-27-6.65 0-14-23.899-14-29.5 0-23.741 15.238-40.369 35.5-50.5 4.232-2.116 11.085-9.957 17-7 2.944 1.472-2.896 8.896-4 10-7.214 7.214-15.496 10.492-20.5 20.5-4.295 8.59-8.921 21.158-4 31 1.928 3.856 7 9.054 7 13.5l3 1h1v-2c-1.579 0-1-2.855-1-4v-1c-1.638 0-2-3.576-2-5v-1l-1-1v-1l-1-1-1-9v-6l1-1v-3l1-1v-1l1-1v-1l1-1 1-1v-1l2-2 1-1 1-1c0-1.747.253-2 2-2l1-2 1-1 1-1h1c0-1.712 2.571-3 4-3l1-1 8-9 1-2 1-2 1-2V96c0-1.58-2.855-1-4-1h-11c-3.68 0-5.511 2-9 2l-4.5 4c-5.496 2.748-10.403 7.201-16 10-11.817 5.908-30.05 42.398-23.5 55.5l6 16 8 12 17 18c2.307 4.614 16 14.128 16 18.5l4 4ZM318 236l-2 1c-3.507 0-9.185-1.871-11-5.5-.793-1.587-.141-6.5 2-6.5 0 14.26 18-.512 18-8l1-2c3.932 0 18.932-26 21-26 4.498 0 10.496-16.492 12-19.5 11.192-22.385-8.615-48.558-28.5-58.5-2.531-1.265-19.242-14.016-21.5-9.5-2.137 4.273 2.996 7.996 5.5 10.5 7.185 7.185 16.007 13.513 20.5 22.5 3.891 7.781 6.267 20.466 2 29-2.023 4.046-6 7.637-6 12.5l-2 1h-2v-5c1.353 0 2-4.643 2-6v-1l1-2 1-1v-1l1-6 1-1v-1l-1-9-1-1v-2l-1-1v-1c0-4.365-10.759-14.129-14.5-16-9.268-4.634-14.5-16.195-14.5-26 1.087 0 2.433-2 5-2 2.978 0 6.49-1 10-1 0 2.064 3.353.426 4.5 1l5.5 3c5.685 0 16.107 12.303 21.5 15 8.889 4.444 27.626 35.249 21.5 47.5v8l-12 24-24 26c-2.115 4.229-10 7.555-10 12.5l-5 5Z"/><path fill="#C7C8CC" id="alv" d="m89 95-2 2c1.747 0 2-.253 2-2Z"/><path fill="#C7CBCB" id="bsc" d="M161 99h1l2-2v-2l-3 3v1ZM310 124h2c0-1.712 1.212-3-2-3-1.901 0-5-4.332-5-6v-1l-1-1v-1l-1-1v-1l-1-1v-1l-1-1v-1c-1.577 0-2-1.762-2-3v-1l-2-2v-1l-2-2-2-2c-1.93 0 0 1.161 0 2v1l1 1c1.077 0 3 3.762 3 5l1 1v1l1 1v2l1 1 1 4 1 1v2l1 1v3c1.766 0 5 .607 5 3h2Z"/><path fill="#019298" id="AUDp2/3" d="m41 115-2 1c0-.672-4.33-2-5-2l8-17h1c0 2.789 4 3.42 4 6 0 3.964-6 7.401-6 12Z"/><path fill="#C7C8CC" id="alv" d="m87 97-2 2c1.747 0 2-.253 2-2Z"/><path fill="#FF8FFF" id="SCdg" d="m203 121 2-3.5c1.294-2.588 3.57-9.035 6.5-10.5 12.726-6.363 41.5-4.156 41.5 14 4.155 0 2-7.721 2-10 0-19.812-54-19.933-54 1 0 2.008-.656 9 2 9Z"/><path fill="#CAC7CB" id="fiber tracts" d="m295 97 2 2-2-2Z"/><path fill="#019298" id="AUDp2/3" d="m423 114-6 2-8-13v-1c0-1.907 4-2.382 4-5h1l9 17Z"/><path fill="#CAC7CB" id="fiber tracts" d="M160 99h1v-1l-1 1Z"/><path fill="#FF64FF" id="MB" d="m293 98 1 1-1-1Z"/><path fill="#029399" id="AUDpo6a" d="m67 113-2 2c-1.624 0-2.75-2-5-2v-1c3.028 0 4.912-13 9-13l4 2v2c-2.268 0-6 8.031-6 10Z"/><path fill="#C7CBCB" id="bsc" d="M147 124h2c0-2.098 1.939-3 4-3 0-1.048-.473-3 1-3v-1l1-2 1-4 1-1v-2l1-1v-1l1-1 1-3 1-1v-2h-1l-2 3-1 1v1l-1 1-1 2v1l-1 1v1l-1 1v1l-1 1v1l-1 1v1l-1 1-1 1-1 1-1 1-1 1h-2l-1 1 1 2h3Z"/><path fill="#FF64FF" id="MB" d="m162 99-1 1v-1h1Z"/><path fill="#029399" id="AUDpo6a" d="M391 115h1l4-2v-1c0-2.066-6.546-13-9-13l-4 3c0 4.212 8 8.324 8 13Z"/><path fill="#C7C8CC" id="alv" d="m85 100-2 1 2-1Z"/><path fill="#CAC7CB" id="fiber tracts" d="m297 100 2 2-2-2Z"/><path fill="#65A83D" id="DG-sg" d="M126 176c0-4.446-5.072-9.644-7-13.5-4.921-9.842-.295-22.41 4-31 5.004-10.008 13.286-13.286 20.5-20.5 1.104-1.104 6.944-8.528 4-10-5.915-2.957-12.768 4.884-17 7-20.262 10.131-35.5 26.759-35.5 50.5 0 5.601 7.35 29.5 14 29.5l-8-14.5c-3.797-7.593-3-15.226-3-23.5l1-1v-2l1-2c0-1.048-.473-3 1-3 0-1.465-.109-4 2-4 0-8.004 20.212-21.856 26.5-25l10-6-1.5 3.5-9.5 8.5-8.5 10.5-3 5.5c0 2.613-.93 4.36-2 6.5-3.644 7.287.962 19.923 4 26 1.226 2.451 3.687 8.5 7 8.5Z"/><path fill="#FF64FF" id="MB" d="m161 101-1 1 1-1Z"/><path fill="#65A83D" id="DG-sg" d="M331 176c0-4.863 3.977-8.454 6-12.5 4.267-8.534 1.891-21.219-2-29-4.493-8.987-13.315-15.315-20.5-22.5-2.504-2.504-7.637-6.227-5.5-10.5 2.258-4.516 18.969 8.235 21.5 9.5 19.885 9.942 39.692 36.115 28.5 58.5-1.504 3.008-7.502 19.5-12 19.5 0-4.078 6.147-10.794 8-14.5 4.153-8.307 3-16.472 3-25.5l-1-2v-1c0-12.557-16.54-25.52-25.5-30-4.362-2.181-7.689-5.845-12-8-.307-.153-3.5-1.756-3.5-.5l8.5 7.5c2.421 1.21 14.5 17.121 14.5 21l2 3.5c4.04 8.081-.657 22.314-4 29-.829 1.658-3.415 7.5-6 7.5Z"/><path fill="#C7C8CC" id="alv" d="m83 102-1 1 1-1Z"/><path fill="#CAC7CB" id="fiber tracts" d="m158 102-1 1 1-1Z"/><path fill="#029298" id="AUDpo6b" d="M391 115v1c-.834 0-6-7.978-6-9l-1-1-1-1-1-3h1c0 4.212 8 8.324 8 13Z"/><path fill="#039397" id="AUDp4" d="M43 117h1c0-2.004 4.849-11 7-11v-1c-1.481 0-.785-2-3-2h-1c0 3.964-6 7.401-6 12 0 1.747.253 2 2 2Z"/><path fill="#029298" id="AUDpo6b" d="m69 112-2 1c0-1.969 3.732-10 6-10h1l-1 2v1c-1.577 0-2 1.762-2 3-1.577 0-2 1.762-2 3Z"/><path fill="#C7C8CC" id="alv" d="m82 103-1 1 1-1Z"/><path fill="#CAC7CB" id="fiber tracts" d="m299 103 2 3c-1.577 0-2-1.762-2-3Z"/><path fill="#039397" id="AUDp4" d="m417 116-4 1c0-1.703-5.785-11-8-11v-1l4-2 8 13Z"/><path fill="#C7C8CC" id="alv" d="m81 104-1 1 1-1Z"/><path fill="#CAC7CB" id="fiber tracts" d="m157 104-1 1 1-1Z"/><path fill="#FF8FFE" id="SCdw" d="M205 122v1l-2-2 2-3.5c1.294-2.588 3.57-9.035 6.5-10.5 12.726-6.363 41.5-4.156 41.5 14l-2 1-4-5.5c-5.088-10.176-21.797-11.352-31.5-6.5l-7.5 7.5-2 3.5-1 1Z"/><path fill="#FF64FF" id="MB" d="m297 104 1 1-1-1Z"/><path fill="#CCC8CA" id="ar" d="M73 105c1.186 0 1.186 1 0 1v-1Z"/><path fill="#C7C8CC" id="alv" d="m80 105-1 1 1-1Z"/><path fill="#CAC7CB" id="fiber tracts" d="M155 106v1l1-2h-1v1Z"/><path fill="#FF64FF" id="MB" d="m159 105-1 1 1-1Z"/><path fill="#CCC8CA" id="ar" d="M398 136h1c0-4.641-4-8.272-4-13-.994 0-4-5.757-4-7-.834 0-6-7.978-6-9l-1-1-1-1c0 3.44 4 5.253 4 8l1 1 2 4 1 1 1 3 1 1 5 13Z"/><path fill="#039199" id="AUDp5" d="m44 117 11 4 5-8v-1c-3.953 0-5.466-6-9-6-2.151 0-7 8.996-7 11Z"/><path fill="#CCC8CA" id="ar" d="M71 109h1l1-1v-2c-1.577 0-2 1.762-2 3Z"/><path fill="#FF64FF" id="MB" d="m298 106 1 1-1-1Z"/><path fill="#CBC9C7" id="or" d="m384 106 1 1-1-1Z"/><path fill="#039199" id="AUDp5" d="m413 117-12 4c0-1.476-3.343-8-5-8v-1c3.651 0 5.93-6 9-6 2.215 0 8 9.297 8 11Z"/><path fill="#C7C8CC" id="alv" d="m79 107-1 1 1-1Z"/><path fill="#7ECE4A" id="DG-po" d="m117 135 3-5.5 8.5-10.5 9.5-8.5 1.5-3.5-10 6c-6.288 3.144-26.5 16.996-26.5 25 2.127 0 6.315-5.908 8.5-7 2.392-1.196 4.316 4 5.5 4Z"/><path fill="#FF64FF" id="MB" d="m158 107-1 1 1-1Z"/><path fill="#FC8FFF" id="PAG" d="M241 145c0-3.589-9.283 2-10 2l-2-16c0-6.086-1-7.406-1-1-1.643 0-1 3.765-1 5 0 4.121-1 9.275-1 14l-3.5-4-7.5-1c-.71 0-4.677-13-11-13l-1-4.5 2-3.5v-1l1-1 2-3.5 7.5-7.5c9.703-4.852 26.412-3.676 31.5 6.5l4 5.5 2 3.5c.978 1.956-1 4.077-1 5.5-6.156 0-9.965 14-11 14Z"/><path fill="#CAC7CB" id="fiber tracts" d="m301 107 1 1-1-1Z"/><path fill="#7ECE4A" id="DG-po" d="M339 136c3.355 0 2.855-6.823 8.5-4 3.113 1.556 9.399 14 9.5 14 0-12.557-16.54-25.52-25.5-30-4.362-2.181-7.689-5.845-12-8-.307-.153-3.5-1.756-3.5-.5l8.5 7.5c2.421 1.21 14.5 17.121 14.5 21Z"/><path fill="#C7C8CC" id="alv" d="m78 108-1 1 1-1Z"/><path fill="#CAC7CB" id="fiber tracts" d="m155 108-1 1v-1h1Z"/><path fill="#CCC8CA" id="ar" d="M71 109c-1.577 0-2 1.762-2 3 1.577 0 2-1.762 2-3Z"/><path fill="#CBC9C7" id="or" d="M59 143c-2.259 0 .408 8-4 8 0-3.325 1-7.31 1-10 0-1.048-.473-3 1-3l1-1v-1l1-1v-3c1.638 0 2-3.576 2-5l3-5 1-1v-2l1-1 1-1v-1l1-1 1-1v-2c1.577 0 2-1.762 2-3h1c2.144 0-4.242 9.983-5 11.5-3.507 7.013-8 14.026-8 22.5Z"/><path fill="#FF64FF" id="MB" d="m299 109 1 1-1-1Z"/><path fill="#CAC7CB" id="fiber tracts" d="m302 109 1 1-1-1Z"/><path fill="#C7C8CC" id="alv" d="m77 110-1 1 1-1Z"/><path fill="#CAC7CB" id="fiber tracts" d="m154 110-1 1v-1h1Z"/><path fill="#FF64FF" id="MB" d="m157 110-1 1 1-1Z"/><path fill="#C7C8CC" id="alv" d="m76 111-1 1 1-1Z"/><path fill="#FF64FF" id="MB" d="M296 148c4.253 0 3 3.433 3 7 1.783 0 4-14.523 4-16.5 0-1.278-.665-5.5 1-5.5l2-6-3-1c0 9.749-9.328 6-14 6 0 6.007-18.426 2.537-21.5 1-4.278-2.139-8.247-11.994-10.5-16.5-.659-1.319.334-5.5-2-5.5 0 2.279 2.155 10-2 10l-2 1 2 3.5c.978 1.956-1 4.077-1 5.5 9.324 0 25.499 16 28 16 0-6.516 16-6.387 16 1Z"/><path fill="#CAC7CB" id="fiber tracts" d="m303 111 1 1-1-1Z"/><path fill="#CCC8CA" id="ar" d="M67 115h1l1-1v-2l-2 1v2Z"/><path fill="#C7C8CC" id="alv" d="m75 112-1 1 1-1Z"/><path fill="#CAC7CB" id="fiber tracts" d="m153 112-1 1v-1h1Z"/><path fill="#FF64FF" id="MB" d="M161 148c-4.295 0-4 2.357-4 6-.843 0-2-3.646-2-4.5 0-6.19-2-10.584-2-16.5 0-1.974-2-3.517-2-6 2.215 0 1.519-2 3-2 0 11.557 7.987 7 13 7l4.5 3c5.11 2.555 12.531.234 17-2 4.976-2.488 8.346-11.192 10.5-15.5.557-1.114.41-5.5 2-5.5 0 2.008-.656 9 2 9l2 2-2 3.5 1 4.5c-3.665 0-27 12.579-27 16-1.445 0-16-12.144-16 1Z"/><path fill="#C7C8CC" id="alv" d="m381 112 2 2-2-2Z"/><path fill="#019099" id="AUDv1" d="M23 137h5c0-7.909 5-14.684 5-22v-1l-4-1c0 4.599-6 16.725-6 24Z"/><path fill="#019396" id="AUDp6a" d="M60 123h1l4-8c-1.624 0-2.75-2-5-2l-5 8 5 2Z"/><path fill="#029298" id="AUDpo6b" d="M66 115h1v-2l-2 2h1Z"/><path fill="#C7C8CC" id="alv" d="m74 113-1 2 1-2Z"/><path fill="#CAC7CB" id="fiber tracts" d="m304 113 1 1-1-1Z"/><path fill="#C8C9CA" id="fp" d="m387 113 1 1-1-1Z"/><path fill="#019396" id="AUDp6a" d="m401 121-5 2-4-8 4-2c1.657 0 5 6.524 5 8Z"/><path fill="#019099" id="AUDv1" d="M429 137h4c0-5.953-1.466-13.433-4-18.5-.659-1.319.334-5.5-2-5.5l-4 1c0 7.608 5 14.568 5 23h1Z"/><path fill="#019298" id="AUDp2/3" d="m34 114-1 1v-1h1Z"/><path fill="#029198" id="AUDv2/3" d="m28 137 5 1c0-7.454 6-15.123 6-22 0-.672-4.33-2-5-2l-1 1c0 7.316-5 14.091-5 22Z"/><path fill="#C8C9CA" id="fp" d="m69 114-1 1 1-1Z"/><path fill="#CAC7CB" id="fiber tracts" d="m152 114-1 1 1-1Z"/><path fill="#FF64FF" id="MB" d="m301 114 1 1-1-1Z"/><path fill="#029198" id="AUDv2/3" d="m428 137-5 1c0-7.729-6-16.645-6-22l6-2c0 7.608 5 14.568 5 23Z"/><path fill="#029197" id="AUDv4" d="M33 138h4c0-7.555 6-14.158 6-21-1.747 0-2-.253-2-2l-2 1c0 6.877-6 14.546-6 22Z"/><path fill="#039198" id="AUDp6b" d="M61 123h1l3-4 1-2v-2h-1l-4 8Z"/><path fill="#CCC8CA" id="ar" d="M66 117h1v-2h-1v2Z"/><path fill="#C8C9CA" id="fp" d="m68 115-1 1v-1h1Z"/><path fill="#C7C8CC" id="alv" d="m73 115-1 2 1-2Z"/><path fill="#FF64FF" id="MB" d="m155 115-1 2 1-2Z"/><path fill="#CAC7CB" id="fiber tracts" d="m305 115 5 6c-1.901 0-5-4.332-5-6Z"/><path fill="#C7C8CC" id="alv" d="m383 115 2 2-2-2Z"/><path fill="#039198" id="AUDp6b" d="M395 123h1l-4-8h-1v1c0 1.243 3.006 7 4 7Z"/><path fill="#CAC7CB" id="fiber tracts" d="m151 116-1 1 1-1Z"/><path fill="#029197" id="AUDv4" d="M419 138h4c0-7.729-6-16.645-6-22l-4 1c0 5.393 6 12.678 6 21Z"/><path fill="#019098" id="AUDv5" d="m37 138 12 1c0-6.104 6-12.33 6-18l-11-4h-1c0 6.842-6 13.445-6 21Z"/><path fill="#CCC8CA" id="ar" d="m66 118-1 1 1-2v1Z"/><path fill="#C8C9CA" id="fp" d="m67 117-1 1v-1h1Z"/><path fill="#C7C8CC" id="alv" d="m72 117-1 1 1-1Z"/><path fill="#CAC7CB" id="fiber tracts" d="m150 117-1 1 1-1Z"/><path fill="#FF64FF" id="MB" d="m302 117 1 1-1-1Z"/><path fill="#019098" id="AUDv5" d="m419 138-12 1c0-5.718-6-14.644-6-18l12-4c0 5.393 6 12.678 6 21Z"/><path fill="#FF64FF" id="MB" d="M153 121h1v-3c-1.473 0-1 1.952-1 3Z"/><path fill="#C7C8CC" id="alv" d="M385 118c1.428 0 4 4.822 4 6-1.428 0-4-4.822-4-6Z"/><path fill="#C8C9CA" id="fp" d="m390 118 1 1-1-1Z"/><path fill="#CCC8CA" id="ar" d="m62 123-1 4 3-5 1-1v-2l-3 4Z"/><path fill="#C7C8CC" id="alv" d="m71 119-1 1 1-1Z"/><path fill="#CAC7CB" id="fiber tracts" d="m148 119-1 1 1-1Z"/><path fill="#C7C8CC" id="alv" d="m70 120-1 1 1-1Z"/><path fill="#CAC7CB" id="fiber tracts" d="m147 120-1 1 1-1Z"/><path fill="#019397" id="AUDv6a" d="M54 141h1c0-1.623.005-6 2-6 0-1.623.005-6 2-6l1-6-5-2c0 5.67-6 11.896-6 18 .67 0 5 1.328 5 2Z"/><path fill="#C8C9CA" id="fp" d="m65 121-1 1 1-1Z"/><path fill="#FF8EFF" id="DT" d="M154 125c-1.481 0-.785 2-3 2l-2-2v-1c0-2.098 1.939-3 4-3h1v4Z"/><path fill="#FF64FF" id="MB" d="m206 121-1 1 1-1Z"/><path fill="#FF8EFF" id="DT" d="m303 126 3 1 2-2v-1c0-2.393-3.234-3-5-3v5Z"/><path fill="#019397" id="AUDv6a" d="m407 140-5 1c0-6.12-6-12.231-6-18l5-2c0 3.356 6 12.282 6 18v1Z"/><path fill="#C7C8CC" id="alv" d="m69 122-1 1 1-1Z"/><path fill="#C8C9CA" id="fp" d="m392 122 1 1-1-1Z"/><path fill="#019198" id="AUDv6b" d="m61 127-2 2 1-6h2l-1 4ZM401 141h1c0-6.12-6-12.231-6-18h-1c0 4.728 4 8.359 4 13v1l1 1c0 1.048-.473 3 1 3Z"/><path fill="#C7C8CC" id="alv" d="m68 124-1 1 1-1Z"/><path fill="#FE909D" id="LP" d="M136 129c0 1.287 12.084 2 14 2l-2-6h-1l-1-1h-2l-5 1-1 1h-1v1l-1 1v1Z"/><path fill="#FF6F80" id="TH" d="M147 124v1l-1-1h1Z"/><path fill="#FF64FF" id="MB" d="M148 125h1v-1h-2v1h1ZM308 125h1v-1h-1v1Z"/><path fill="#FF6F80" id="TH" d="m310 124-1 1v-1h1Z"/><path fill="#FE909D" id="LP" d="M321 129c-4.366 0-9.272 2-14 2 0-2.483 2-4.026 2-6l1-1h5l1 1h1l1 1 3 3Z"/><path fill="#FF6F80" id="TH" d="m315 124 1 1-1-1ZM139 125l-1 1v-1h1ZM151 133h2c0-1.974-2-3.517-2-6l-2-2h-1l2 6 1 2Z"/><path fill="#A9A9A8" id="AQ" d="m228 130 1 1c0-6.086-1-7.406-1-1Z"/><path fill="#FF6F80" id="TH" d="M304 133h2l1-2c0-2.483 2-4.026 2-6h-1l-2 2-2 6ZM317 125l1 1-1-1Z"/><path fill="#C7C8CC" id="alv" d="m389 125 1 1-1-1ZM67 126l-1 1 1-1Z"/><path fill="#CCC8CA" id="ar" d="M59 129v3c1.638 0 2-3.576 2-5l-2 2Z"/><path fill="#C7C8CC" id="alv" d="m66 127-1 2 1-2Z"/><path fill="#FF6F80" id="TH" d="m137 127-1 1v-1h1Z"/><path fill="#C7C8CC" id="alv" d="m390 127 1 1-1-1Z"/><path fill="#019198" id="AUDv6b" d="M57 135h1c0-1.048-.473-3 1-3v-3c-1.995 0-2 4.377-2 6Z"/><path fill="#FF8E9D" id="SGN" d="M139 144h2c0-.616 6.93-3 8-3 0-3.091 2-5.478 2-8l-1-2c-1.916 0-14-.713-14-2h-1l-1 2c0 3.91 5 11.806 5 13ZM315 144h3c0-3.993 4-8.1 4-13l-1-2c-4.366 0-9.272 2-14 2l-1 2c0 .981 1.184 8 2 8 .698 0 7 2.714 7 3Z"/><path fill="#C7C8CC" id="alv" d="m391 129 1 1-1-1ZM65 130l-1 1 1-1Z"/><path fill="#FF64FF" id="MB" d="m225 161 1 1c0-4.167 2.489-3 5-3v-12l-2-16-1-1c-1.643 0-1 3.765-1 5 0 4.121-1 9.275-1 14v6c0 1.048.473 3-1 3v3Z"/><path fill="#7ECF49" id="CA3" d="M147 222v1l-7.5 1-3.5-2-6-7c0-4.113-21-21.396-21-27l-8-14.5c-3.797-7.593-3-15.226-3-23.5l1-1v-2l1-2c1.473 0 1-1.952 1-3l2-4c2.127 0 6.315-5.908 8.5-7 2.392-1.196 4.316 4 5.5 4 0 2.613-.93 4.36-2 6.5-3.644 7.287.962 19.923 4 26 1.226 2.451 3.687 8.5 7 8.5l1 2 2 2v1c0 1.493 4.957 13 6 13v1c0 1.424.362 5 2 5v1c0 1.49 2.206 8 4 8v1c0 1.178 2.572 6 4 6v1l2 5Z"/><path fill="#FE7F82" id="MGd" d="m137 148-5.5-1-7.5 5v-6l1-1v-3l1-1v-1l1-1v-1l1-1 1-1v-1c1.747 0 2-.253 2-2l1-1 1-1h1c0 3.91 5 11.806 5 13l-2 4Z"/><path fill="#FF8FFD" id="MRN" d="M188 193h5l2-1c-31.184 0-10.722-50.222 11.5-28l6.5 7.5c2.795 5.589 0 8.413 0 13.5 2.391 0 7.59-12.68 9-15.5l-1-5.5c-1.473 0-1-1.952-1-3v-2h-1c0 10.422-20.361-12-4-12v-3c-.71 0-4.677-13-11-13-3.665 0-27 12.579-27 16 0 13.561-10.956 17.589-17 5.5l1-4.5c-4.295 0-4 2.357-4 6l1 5-1 1c0 1.765-1.688 10-3 10v3c.298 0 3.461 8.422 4 9.5 1.958 3.916 13.132 8.5 17 8.5l-1-1.5c-.451-.902.089-3.206 1.5-2.5l2.5 4 2 1c0-4.652 6.524 1 8 1ZM263 193h6c1.254 0 3.317-2 8-2h1c.457 0 5-6.62 5-2.5l-1 2.5c8.226 0 20-10.086 20-19 0-4.722-3-7.555-3-12v-5c0-3.567 1.253-7-3-7 0 10.979-11.485 16.53-17 5.5-1.081-2.161 1-4.894 1-6.5-2.501 0-18.676-16-28-16-6.156 0-9.965 14-11 14v3l4.5-1c4.556 2.278 1.715 14-8.5 14l-2 4c0 9.234 10 21.634 10 23h1c0-3.755-7.228-7.044-3-15.5l7-9c3.02-6.04 20.309-5.382 23 0 5.628 11.256 7.518 15.482-2 25-2.793 2.793-6.095 3.5-10 3.5l2 1Z"/><path fill="#FE7F82" id="MGd" d="m320 148 4.5-1c1.661.83 7.691 6 8.5 6l-1-9-1-1v-2l-1-1v-1l-8-8c0 4.9-4 9.007-4 13l2 4Z"/><path fill="#7ECF49" id="CA3" d="M310 223h9l1-1c2.047 0 2.168-5 5-5l1-2c3.932 0 18.932-26 21-26 0-4.078 6.147-10.794 8-14.5 4.153-8.307 3-16.472 3-25.5l-1-2v-1c-.101 0-6.387-12.444-9.5-14-5.645-2.823-5.145 4-8.5 4l2 3.5c4.04 8.081-.657 22.314-4 29-.829 1.658-3.415 7.5-6 7.5l-2 1-1 2-1 2-2 4-1 2c0 1.048.473 3-1 3 0 1.048.473 3-1 3l-1 2v2l-1 2-1 2v1l-1 2-1 2v1c0 1.238-.423 3-2 3v1l-1 1-1 2c0 1.238-.423 3-2 3l-1 6Z"/><path fill="#C7C8CC" id="alv" d="m392 131 1 1-1-1Z"/><path fill="#CCC8CA" id="ar" d="M58 135h1v-3c-1.473 0-1 1.952-1 3Z"/><path fill="#C7C8CC" id="alv" d="m64 132-1 1 1-1Z"/><path fill="#FF8D9D" id="POL" d="m158 159-1 1-3-1c-4.974 0-5-14.039-5-18 0-3.091 2-5.478 2-8h2c0 5.916 2 10.31 2 16.5 0 .854 1.157 4.5 2 4.5l1 5ZM302 159l-3 1v-5c1.783 0 4-14.523 4-16.5 0-1.278-.665-5.5 1-5.5h2c0 .981 1.184 8 2 8 0 4.461-.665 18-6 18Z"/><path fill="#C7C8CC" id="alv" d="m393 134 1 1-1-1Z"/><path fill="#019198" id="AUDv6b" d="M55 141h1c0-1.048-.473-3 1-3v-3c-1.995 0-2 4.377-2 6Z"/><path fill="#CCC8CA" id="ar" d="M57 137h1v-2h-1v2Z"/><path fill="#C8C9CA" id="fp" d="m59 135-1 1v-1h1Z"/><path fill="#C7C8CC" id="alv" d="m63 135-1 1 1-1ZM394 136l1 2-1-2Z"/><path fill="#C8C9CA" id="fp" d="M399 136v1l-1-1h1Z"/><path fill="#15B0B3" id="TEa1" d="m28 158-4 1c0-6.641-1-14.707-1-22h5v21Z"/><path fill="#16AFB3" id="TEa2/3" d="m35 157-7 1v-21l5 1c0 6.971 2 12.691 2 19Z"/><path fill="#C8C9CA" id="fp" d="m58 137-1 1v-1h1Z"/><path fill="#C7C8CC" id="alv" d="m62 137-1 2 1-2Z"/><path fill="#CCC8CA" id="ar" d="m399 137 1 1-1-1Z"/><path fill="#16AFB3" id="TEa2/3" d="m421 157 7 1c0-6.228 1-14.097 1-21h-1l-5 1v13.5l-2 5.5Z"/><path fill="#15B0B3" id="TEa1" d="m428 158 5 1v-22h-4c0 6.903-1 14.772-1 21Z"/><path fill="#15B0B2" id="TEa4" d="M35 157h3c0-1.698-1.195-5.89-2-7.5l1-11.5h-4c0 6.971 2 12.691 2 19Z"/><path fill="#15AFB3" id="TEa5" d="M38 157h9c0-6.538 2-11.844 2-18l-12-1-1 11.5c.805 1.61 2 5.802 2 7.5Z"/><path fill="#7ECE4A" id="DG-po" d="M103 138c-2.109 0-2 2.535-2 4l2-4Z"/><path fill="#15AFB3" id="TEa5" d="M409 157h10v-19l-12 1v1c0 4.572 2 11.014 2 17Z"/><path fill="#15B0B2" id="TEa4" d="M419 157h2l2-5.5V138h-4v19Z"/><path fill="#15AFB2" id="TEa6a" d="M47 157h6l1-16c0-.672-4.33-2-5-2 0 6.156-2 11.462-2 18Z"/><path fill="#C7C8CC" id="alv" d="M397 143v2c-1.353 0-2-4.643-2-6l2 4Z"/><path fill="#15AFB2" id="TEa6a" d="M403 157h6c0-5.986-2-12.428-2-17l-5 1 1 16Z"/><path fill="#16B0B2" id="TEa6b" d="M53 157h2v-6c0-3.325 1-7.31 1-10h-2l-1 16Z"/><path fill="#C7C8CC" id="alv" d="M60 143v1c1.473 0 1-1.952 1-3l-1 2Z"/><path fill="#FF7E82" id="PoT" d="M154 159c0 4.387-1.319 3-4 3-1.302 0-2.641-4-5-4 0-5.613-4-13.948-4-14 0-.616 6.93-3 8-3 0 3.961.026 18 5 18ZM302 159c0 4.882 1.86 3 5 3 0-1.533 3.753-4 5-4 0-5.452 3-13.378 3-14 0-.286-6.302-3-7-3 0 4.461-.665 18-6 18Z"/><path fill="#16B0B2" id="TEa6b" d="M402 157h1l-1-16h-1v8c1.735 0 1 6.51 1 8Z"/><path fill="#7ECE4A" id="DG-po" d="M101 142c-1.473 0-1 1.952-1 3 1.473 0 1-1.952 1-3Z"/><path fill="#FE8EFF" id="APN" d="M177 147c-1.445 0-16-12.144-16 1l-1 4.5c6.044 12.089 17 8.061 17-5.5ZM280 147c0 1.606-2.081 4.339-1 6.5 5.515 11.03 17 5.479 17-5.5 0-7.387-16-7.516-16-1Z"/><path fill="#C8CBCC" id="ec" d="m102 238 9 3-11.5-6c-6.891-3.446-28.5-21.88-28.5-30v-1c-2.599 0-12-23.986-12-28v-1c-1.684 0-1-4.679-1-6 0-2.27-1.989-19 1-19v-3c0-1.048-.473-3 1-3v-1h-1c-2.259 0 .408 8-4 8v20l1 1 1 7c0 10.671 9.495 20.489 14 29.5l8 11.5 2 2 8 7 12 8 1 1ZM385 205v2c3.259 0 14-22.982 14-27 0-.986 1.087-6 2-6v-3c0-4.725 1-9.879 1-14 0-1.49.735-8-1-8 0 6.993-3-3.758-3-6h-1v5c1.951 0 .477 2.454 1 3.5 2.468 4.935 1 13.691 1 19.5 0 .986-1.087 6-2 6v1c0 1.896-2.08 11-4 11 0 1.465.109 4-2 4v1l-2 4-1 2-1 1v1l-1 1-1 2Z"/><path fill="#C7C8CC" id="alv" d="M60 144c-1.473 0-1 1.952-1 3 1.473 0 1-1.952 1-3Z"/><path fill="#FD7F83" id="MGm" d="M145 158c-2.563 0-1.938 4.219-3.5 5-.766.383-8.5 5.374-8.5 2 0-1.765 1.581-.541 2.5-1 2.13-1.065 2.637-3.774 3.5-5.5 1.873-3.745-2-7.738-2-10.5l2-4h2c0 .052 4 8.387 4 14Z"/><path fill="#FD8FFD" id="ND" d="m224 159-4 1v-1c0-1.048.473-3-1-3v-1c0-1.238-.423-3-2-3v-1l-1-1v-1l-1-1v-4l7.5 1 3.5 4v6c-1.473 0-1 1.952-1 3l-1 1ZM233 159l3 1 1-2v-3l1-1 1-1v-1l1-1v-1l1-1v-4c0-3.589-9.283 2-10 2v10l2 2Z"/><path fill="#FD7F83" id="MGm" d="M312 158c0 3.985 11 9.848 11 7l-4-2.5-2-6c-1.616-3.233 3-6.074 3-8.5l-2-4h-3c0 .622-3 8.548-3 14Z"/><path fill="#7ECE4A" id="DG-po" d="m100 145-1 2 1-2Z"/><path fill="#FE7E83" id="MGv" d="M130 165h3c0-1.765 1.581-.541 2.5-1 2.13-1.065 2.637-3.774 3.5-5.5 1.873-3.745-2-7.738-2-10.5l-5.5-1-7.5 5 1 9 1 1 4 3Z"/><path fill="#FF90FD" id="INC" d="M219 156v3c0 10.422-20.361-12-4-12v1l1 1v1l1 1v1c0 1.238.423 3 2 3v1ZM237 158v3c10.215 0 13.056-11.722 8.5-14l-4.5 1v1l-1 1v1l-1 1v1l-1 1v1l-1 1v2Z"/><path fill="#FE7E83" id="MGv" d="m327 164-4 1-4-2.5-2-6c-1.616-3.233 3-6.074 3-8.5l4.5-1c1.661.83 7.691 6 8.5 6v1l-1 1-1 6-1 1v1h-1l-2 1Z"/><path fill="#7ECE4A" id="DG-po" d="m357 147 1 2-1-2Z"/><path fill="#FF8FFD" id="MRN" d="m215 148 1 1-1-1Z"/><path fill="#C7C8CC" id="alv" d="M397 148c1.951 0 .477 2.454 1 3.5 2.468 4.935 1 13.691 1 19.5 0 .986-1.087 6-2 6v-29Z"/><path fill="#7ECE4A" id="DG-po" d="m99 149-1 1 1-1Z"/><path fill="#FF8FFD" id="MRN" d="m241 149-1 1 1-1Z"/><path fill="#C7C8CC" id="alv" d="M59 150c-2.989 0-1 16.73-1 19 0 1.321-.684 6 1 6v-25Z"/><path fill="#FF8FFD" id="MRN" d="m216 150 1 1-1-1ZM240 151l-1 1 1-1Z"/><path fill="#CBCBCC" id="mlf" d="M217 152c1.577 0 2 1.762 2 3-1.577 0-2-1.762-2-3ZM239 153l-1 1 1-1ZM237 155h1v-1l-1 1Z"/><path fill="#FC8FFF" id="PAG" d="M226 155c-1.473 0-1 1.952-1 3 1.473 0 1-1.952 1-3Z"/><path fill="#FF8FFD" id="MRN" d="m238 155-1 1v-1h1Z"/><path fill="#CBCBCC" id="mlf" d="M219 159h1c0-1.048.473-3-1-3v3Z"/><path fill="#0D9F91" id="ECT2/3" d="M35 172h8c0-5.499-5-9.745-5-15h-3l-7 1c0 4.517 7 12.057 7 14Z"/><path fill="#0D9E90" id="ECT5" d="M43 172h7c0-5.314-3-9.189-3-15h-9c0 5.255 5 9.501 5 15Z"/><path fill="#0E9F91" id="ECT6a" d="M50 172h1l4-1v-4c-.925 0-2-8.751-2-10h-6c0 5.811 3 9.686 3 15Z"/><path fill="#0E9F90" id="ECT6b" d="M55 157v10c-.925 0-2-8.751-2-10h2Z"/><path fill="#FC8FFF" id="PAG" d="m233 160-2 1v-4l2 2v1Z"/><path fill="#0E9F90" id="ECT6b" d="M401 171h1l1-14h-1c0 4.121-1 9.275-1 14Z"/><path fill="#0E9F91" id="ECT6a" d="m402 171 4 1c0-4.767 3-9.247 3-15h-6l-1 14Z"/><path fill="#0D9E90" id="ECT5" d="M406 172h7l6-15h-10c0 5.753-3 10.233-3 15Z"/><path fill="#0D9F91" id="ECT2/3" d="M421 172h1c0-5.334 6-7.898 6-14l-7-1h-2l-6 15h8Z"/><path fill="#0D9F90" id="ECT1" d="m35 172-5 1c0-4.019-6-6.803-6-14l4-1c0 4.517 7 12.057 7 14Z"/><path fill="#FE8D9E" id="PIL" d="M154 173c-1.481 0-.785 2-3 2-4.15 0-10.017-.259-13.5-2-2.937-1.469-5.783-6-8.5-6l1-2h3c0 3.374 7.734-1.617 8.5-2 1.562-.781.937-5 3.5-5 2.359 0 3.698 4 5 4l4 8v3Z"/><path fill="#FC8FFF" id="PAG" d="m224 160 1 1v-3l-1 1v1Z"/><path fill="#FE8FFC" id="EW" d="M231 166c-.215 0-5 6.59-5 1v-5c0-4.167 2.489-3 5-3v7Z"/><path fill="#CBCBCC" id="mlf" d="M235 162v3l2-4v-3l-1 2-1 2Z"/><path fill="#FE8D9E" id="PIL" d="M303 172c0 2.041.959 3 3 3 9.035 0 20.918-8 21-8v-3l-4 1c0 2.848-11-3.015-11-7-1.247 0-5 2.467-5 4 0 3.115-4 5.701-4 10Z"/><path fill="#0D9F90" id="ECT1" d="m422 172 4 1c2.174 0 7-10.949 7-14l-5-1c0 6.102-6 8.666-6 14Z"/><path fill="#FF6F80" id="TH" d="m150 162 4 8c1.312 0 3-8.235 3-10l-3-1c0 4.387-1.319 3-4 3ZM158 159l-1 1 1-1Z"/><path fill="#FE90FD" id="RN" d="M210 188c-1.943 0-8.754 4-15 4-31.184 0-10.722-50.222 11.5-28l6.5 7.5c2.795 5.589 0 8.413 0 13.5l-2 2-1 1Z"/><path fill="#FF64FF" id="MB" d="M236 189c4.931 0 7.056 7 10 7l-1-8c0-1.366-10-13.766-10-23v-3c-1.183 0-1.535 3.57-2 4.5-.525 1.05-2 .553-2-.5-.215 0-5 6.59-5 1-3.644 0-5.183-7-2-7v-1l-4 1v1c1.473 0 1 1.952 1 3l1 5.5c-1.41 2.82-6.609 15.5-9 15.5 0 1.747-.253 2-2 2v8c2.705 0 4.598-6 9-6l1-1c0-5.366 2-8.763 2-14l1-2 2-1h4c2.003 0 3-.293 3 2v1c1.486 0 1.486 3 0 3 0 .723 4.191 11 2.5 11l-2.5-3v2l3 2ZM236 160l-1 2-2-2v-1l3 1Z"/><path fill="#FE90FD" id="RN" d="M246 188c2.493 0 8.061 4 15 4 3.905 0 7.207-.707 10-3.5 9.518-9.518 7.628-13.744 2-25-2.691-5.382-19.98-6.04-23 0l-7 9c-4.228 8.456 3 11.745 3 15.5Z"/><path fill="#FF6F80" id="TH" d="M302 172h1c0-4.299 4-6.885 4-10-3.14 0-5 1.882-5-3l-3 1c0 4.445 3 7.278 3 12Z"/><path fill="#FC8EFF" id="MA3" d="M226 162v5c-3.644 0-5.183-7-2-7l1 1 1 1ZM235 162c-1.183 0-1.535 3.57-2 4.5-.525 1.05-2 .553-2-.5v-5l2-1 2 2Z"/><path fill="#CBCBCC" id="mlf" d="M220 161c1.473 0 1 1.952 1 3-1.473 0-1-1.952-1-3Z"/><path fill="#FF6F80" id="TH" d="M330 162h1v-1l-1 1ZM130 165l-1 2-2-2v-1l-1-1v-1l4 3ZM327 167v1l2-2v-3l-2 1v3Z"/><path fill="#FD7F84" id="PP" d="M133 177h2c3.04 0 16 6.244 16-2-4.15 0-10.017-.259-13.5-2-2.937-1.469-5.783-6-8.5-6v4l1 2 3 4ZM321 177h2l4-5v-5c-.082 0-11.965 8-21 8 0 7.014 10.522 3 14 3l1-1Z"/><path fill="#0E9583" id="PERI2/3" d="m40 183-8 1c0-1.186 3.346-5.192 4-6.5.978-1.956-1-4.077-1-5.5h8c0 2.675 3 5.922 3 9-1.974 0-3.517 2-6 2Z"/><path fill="#0E9684" id="PERI6a" d="m56 179-4 1-1-8 4-1v1c0 2.409 1 5.181 1 7Z"/><path fill="#0E9F90" id="ECT6b" d="M55 172h1l-1-1v1Z"/><path fill="#CACAC7" id="dtd" d="M224 172h1l1-1-2 1Z"/><path fill="#FEA6FF" id="RL" d="M223 187h10v-2l-2-13-1-1h-4l-1 1-1 11-1 1v3Z"/><path fill="#CACAC7" id="dtd" d="m231 172 2 1c0-2.293-.997-2-3-2l1 1Z"/><path fill="#0E9683" id="PERI6b" d="m402 171-1 2v-2h1Z"/><path fill="#0E9684" id="PERI6a" d="M401 179c0 1.473 1.952 1 3 1l2-8-4-1-1 2v6Z"/><path fill="#0E9583" id="PERI2/3" d="m417 183 7 1c0-1.015-3-6.294-3-12h-8l-3 9 7 2Z"/><path fill="#0E9584" id="PERI1" d="M31 184h1c0-1.186 3.346-5.192 4-6.5.978-1.956-1-4.077-1-5.5l-5 1c0 6.389-5 7.538-5 11h6Z"/><path fill="#0F9684" id="PERI5" d="M46 181h1l5-1-1-8h-8c0 2.675 3 5.922 3 9Z"/><path fill="#0E9683" id="PERI6b" d="M56 179h1l-1-7h-1c0 2.409 1 5.181 1 7Z"/><path fill="#CACAC7" id="dtd" d="m224 172-1 2 1-2Z"/><path fill="#C8C8C8" id="mtg" d="M221 188h1l1-2v-2l1-1 1-11h-1l-1 2c0 5.237-2 8.634-2 14ZM233 177c0 .723 4.191 11 2.5 11l-2.5-3-2-13 2 1v4Z"/><path fill="#FF64FF" id="MB" d="M275 204h1c0-5.384 25.298-20.899 29.5-23 5.664-2.832 11.418 4 12.5 4l2-7c-3.478 0-14 4.014-14-3-2.041 0-3-.959-3-3h-1c0 8.914-11.774 19-20 19l-3 7.5c-.372.744-4 2.51-4 .5l-3 3c2.003 0 3-.293 3 2ZM325 181h1c0-1.235-.643-5 1-5v-4l-4 5c0 1.24 2 1.576 2 4Z"/><path fill="#0F9684" id="PERI5" d="M404 180c1.564 0 3.876 1 6 1l3-9h-7l-2 8Z"/><path fill="#0E9584" id="PERI1" d="M425 184h6c0-4.108-5-5.859-5-11l-4-1h-1c0 5.706 3 10.985 3 12h1Z"/><path fill="#FF64FF" id="MB" d="m131 182 2 4v-9l-3-4v4l1 5ZM184 202l-3 1c-3.729 0-13.242-13.371-18.5-16-4.6-2.3-13.583-9.208-20-6l-4.5 4c0-3.863-3-6.505-3-8 3.04 0 16 6.244 16-2 2.215 0 1.519-2 3-2 .298 0 3.461 8.422 4 9.5 1.958 3.916 13.132 8.5 17 8.5 0 2.952 6 12.166 6 7l3 4Z"/><path fill="#CACAC7" id="dtd" d="M233 174c1.486 0 1.486 3 0 3v-3Z"/><path fill="#0E9683" id="PERI6b" d="m401 179-2 1c0-.986 1.087-6 2-6v5Z"/><path fill="#C7C8CC" id="alv" d="M59 176c1.646 0 1.466 4.966 2.5 6l6.5 16.5 3 5.5c-2.599 0-12-23.986-12-28Z"/><path fill="#7DCD4B" id="HPF" d="m127 178 2 1v-2l-3-1 1 2ZM331 176l-2 1 2-1Z"/><path fill="#CCCAC7" id="cpd" d="m198 223 4 3c0 5.744-26.942 11.779-32.5 9-7.062-3.531-13.026-10.026-19-16l-7.5-7-1-2-1-1-4-8v-1c0-1.041-.986-5-2-5v-1l-2-8v-9h2c0 1.495 3 4.137 3 8 0 37.392 30.13 38 60 38Z"/><path fill="#FF64FF" id="MB" d="m321 177-1 1 1-1Z"/><path fill="#CCCAC7" id="cpd" d="m259 223-4 3c0 5.562 8.247 5.374 11.5 7 12.045 6.022 24.18.82 33-8 2.648-2.648 7.791-10 11.5-10 0-1.747.253-2 2-2v-1l1-1 1-1c0-1.238.423-3 2-3v-1l1-2 1-2v-1l1-2 1-2v-2l1-2c0-1.048-.473-3 1-3v-3l1-2c0-1.048-.473-3 1-3v-1c0-2.424-2-2.76-2-4h-2l-1 1-2 7c0 2.014 2.284 5.932 1 8.5-2.24 4.481-3.697 9.394-6 14-1.798 3.596-6.606 6.053-9.5 7.5l-9 6c-8.359 4.18-26.309 2-35.5 2Z"/><path fill="#7DCD4B" id="HPF" d="M327 179h1l1-2h-2v2Z"/><path fill="#C7C8CC" id="alv" d="M129 179v1l-2-2 2 1ZM397 178c-2.087 0-4 8.909-4 11 1.92 0 4-9.104 4-11Z"/><path fill="#32B824" id="ENTl6a" d="m79 222-3 1c0-4.174-7.179-7.857-9-11.5-5.102-10.204-15-18.947-15-31.5l4-1h1c0 10.671 9.495 20.489 14 29.5l8 11.5v2Z"/><path fill="#C7C8CC" id="alv" d="m328 179-1 2v-2h1Z"/><path fill="#32B824" id="ENTl6a" d="M378 222h2c3.094 0 3.53-6.015 5.5-7 7.411-3.706 18.5-26.478 18.5-35-1.048 0-3 .473-3-1l-2 1c0 4.018-10.741 27-14 27l-1 2-1 2c0 2.36-3.842 8-6 8v2l1 1Z"/><path fill="#31B824" id="ENTl5" d="M65 227h5c0-1.473 1.952-1 3-1l3-3c0-4.174-7.179-7.857-9-11.5-5.102-10.204-15-18.947-15-31.5l-5 1c0 13.787 4.386 22.271 10 33.5 1.914 3.828 8 8.076 8 12.5ZM387 227h4l10-15.5c4.97-9.941 9-18.356 9-30.5-2.124 0-4.436-1-6-1 0 8.522-11.089 31.294-18.5 35-1.97.985-2.406 7-5.5 7l3 3 4 2Z"/><path fill="#32B725" id="ENTl3" d="M65 227c0 1.888-8.072 2-10 2 0-4.034-4.276-8.053-6-11.5l-10-27c-1.182-2.364 1-5.696 1-7.5 2.483 0 4.026-2 6-2h1c0 13.787 4.386 22.271 10 33.5 1.914 3.828 8 8.076 8 12.5Z"/><path fill="#C7C8CC" id="alv" d="m133 186 2 8c-1.043 0-6-11.507-6-13l2 1 2 4Z"/><path fill="#FF8DFD" id="SNr" d="m197 220 1 3c-29.87 0-60-.608-60-38l4.5-4c6.417-3.208 15.4 3.7 20 6 5.258 2.629 14.771 16 18.5 16v1c-3.056 0 1 7.078 1 8-1.079 0-8.028 9.236-6.5 10 1.42.71 5.331-7 7.5-7l4.5 4c1.307.653 5.497-.506 4.5-2.5l-2-2.5 4 3 3 3ZM259 220v3c9.191 0 27.141 2.18 35.5-2l9-6c2.894-1.447 7.702-3.904 9.5-7.5 2.303-4.606 3.76-9.519 6-14 1.284-2.568-1-6.486-1-8.5-1.082 0-6.836-6.832-12.5-4-4.202 2.101-29.5 17.616-29.5 23 0 2.402-1 4.31-1 7 0 2.253 7.34 10.58 6.5 11l-8.5-8c0 4.97-8 7.869-8 1l-3 2-3 3Z"/><path fill="#C7C8CC" id="alv" d="M325 182v3l2-4h-1l-1 1Z"/><path fill="#32B725" id="ENTl3" d="M391 227c2.979 0 6.23 2 10 2 0-3.252 4.547-7.595 6-10.5 5.257-10.514 10-22.822 10-35.5l-7-2c0 12.144-4.03 20.559-9 30.5L391 227Z"/><path fill="#FF64FF" id="MB" d="M324 185h1v-3c-1.473 0-1 1.952-1 3Z"/><path fill="#32B825" id="ENTl2" d="M55 229c0 1.869-7.33 3-9 3l-3-6.5-2-9c-5.091-10.182-10-20.147-10-32.5h1l8-1c0 1.804-2.182 5.136-1 7.5l10 27c1.724 3.447 6 7.466 6 11.5Z"/><path fill="#FF64FF" id="MB" d="m224 183-1 1 1-1Z"/><path fill="#32B825" id="ENTl2" d="M401 229c0 1.869 7.329 3 9 3l3-5.5 2-9c5.29-10.58 10-20.624 10-33.5h-1l-7-1c0 12.678-4.743 24.986-10 35.5-1.453 2.905-6 7.248-6 10.5Z"/><path fill="#32B722" id="ENTl1" d="m46 232-4 1-5-11.5c-3.491-6.982-12-29.843-12-37.5h6c0 12.353 4.909 22.318 10 32.5l2 9 3 6.5ZM410 232l4 1c2.378 0 4.02-11.54 5-13.5 5.174-10.347 12-23.22 12-35.5h-6c0 12.876-4.71 22.92-10 33.5l-2 9-3 5.5Z"/><path fill="#FF8FFD" id="MRN" d="m213 185-2 2c1.747 0 2-.253 2-2Z"/><path fill="#FF64FF" id="MB" d="M323 187h1v-2l-1 2Z"/><path fill="#C7C8CC" id="alv" d="m325 185-1 2v-2h1Z"/><path fill="#FF64FF" id="MB" d="m223 187-1 1 1-2v1Z"/><path fill="#FE8FFF" id="MT" d="M181 196v2c0 5.166-6-4.048-6-7l-1-1.5c-.451-.902.089-3.206 1.5-2.5l2.5 4c0 1.076 1.523 5 3 5Z"/><path fill="#FF8FFD" id="MRN" d="M210 188h1v-1l-1 1Z"/><path fill="#CACBC9" id="vtd" d="M236 197h1c0-2.707-1-5.903-1-8l-3-2h-10l-1 1h-1l-1 1-1 8h2l6-1c0-1.399 2-1.399 2 0l7 1Z"/><path fill="#FE8FFF" id="MT" d="m276 195-1 4c0 2.01 3.628.244 4-.5l3-7.5 1-2.5c0-4.12-4.543 2.5-5 2.5l-1 2v1l-1 1Z"/><path fill="#C7C8CC" id="alv" d="M324 187c0 1.048.473 3-1 3v-3h1Z"/><path fill="#FE8DFF" id="VTA" d="M211 211c-1.674 0-2.326 1-4 1 0-9.027-16-10.04-16-17l2-2 2-1c6.246 0 13.057-4 15-4h1v7c0 4.407-5.142 7 3 7v6l-1 1-1 1-1 1ZM243 209c.828 0 6 6.292 6 3 0-7.815 17-11.855 17-17l-3-2-2-1c-6.939 0-12.507-4-15-4h-1l1 8c0 3.763 2.979 6-3 6v7Z"/><path fill="#C8C8CB" id="rust" d="M219 197c0 3.015-5 3.739-5 5-8.142 0-3-2.593-3-7 2.705 0 4.598-6 9-6l-1 8ZM237 197c1.674 0 2.662 5 6 5 5.979 0 3-2.237 3-6-2.944 0-5.069-7-10-7 0 2.097 1 5.293 1 8Z"/><path fill="#C7C8CC" id="alv" d="m393 189-2 4c2.109 0 2-2.535 2-4Z"/><path fill="#CACCC8" id="ml" d="M207 212c0 6.443-8.66 1-10 1l-13-11-3-4v-2l-1-4c0-4.652 6.524 1 8 1 0 1.577 1.762 2 3 2 0 6.96 16 7.973 16 17ZM249 212l2.5 3c3.292 1.646 5.883-2 8.5-2l12-11 3-3 1-4 1-1v-3c-4.683 0-6.746 2-8 2 0 1.577-1.762 2-3 2 0 5.145-17 9.185-17 17Z"/><path fill="#C7C8CC" id="alv" d="M323 190c-1.473 0-1 1.952-1 3 1.473 0 1-1.952 1-3Z"/><path fill="#FF64FF" id="MB" d="m180 192 1 4c-1.477 0-3-3.924-3-5l2 1ZM278 191l-1 2v-2h1ZM193 193l-2 2c-1.238 0-3-.423-3-2h5ZM269 193c0 1.577-1.762 2-3 2l-3-2h6Z"/><path fill="#C7C8CC" id="alv" d="m322 193-1 2 1-2Z"/><path fill="#FF64FF" id="MB" d="m277 194-1 1 1-1Z"/><path fill="#C7C8CC" id="alv" d="M391 194c-2.109 0-2 2.535-2 4l2-4ZM135 195c1.014 0 2 3.959 2 5-1.638 0-2-3.576-2-5Z"/><path fill="#FF64FF" id="MB" d="M227 196h2c0-1.399-2-1.399-2 0Z"/><path fill="#FFA6FF" id="IF" d="M234 205h1l2-1c0-2.409-1-5.181-1-7l-7-1h-2l-6 1c0 1.835-2 4.235-2 7l2 1h1l3-1c0-2.962 4.707-1 6-1l3 2Z"/><path fill="#FF64FF" id="MB" d="m219 204-5 4v-6c0-1.261 5-1.985 5-5h2c0 1.835-2 4.235-2 7ZM237 204l6 4v-6c-3.338 0-4.326-5-6-5h-1c0 1.819 1 4.591 1 7Z"/><path fill="#C7C8CC" id="alv" d="m321 197-1 2 1-2ZM389 198l-1 2 1-2ZM320 199l-1 2 1-2ZM388 200l-1 1 1-1ZM137 201l4 8c-1.794 0-4-6.51-4-8Z"/><path fill="#FE8DFF" id="VTA" d="m187 210 5.5 4 4.5-1-13-11-3 1v1l4 3c0-2.029 1-.058 1 1l1 2Z"/><path fill="#FFA4FE" id="IPR" d="M221 221c3.948 0 9.393 1 14 1l1-2v-10l-1-2c-1.811 0-4-3.438-4-5-1.293 0-6-1.962-6 1l-3 3-1 1-1 2c0 3.332 1 6.761 1 10v1Z"/><path fill="#FE8DFF" id="VTA" d="M266 213h1v-1l1-1 1-1 1-1 5-5c0-2.293-.997-2-3-2l-12 11 5 1 1-1Z"/><path fill="#C7C8CC" id="alv" d="m319 202-1 2 1-2ZM387 202l-1 1 1-1Z"/><path fill="#FEA4FF" id="IPDM" d="m234 205 1 3c-1.811 0-4-3.438-4-5l3 2Z"/><path fill="#C7C8CC" id="alv" d="m386 203-1 2 1-2Z"/><path fill="#FFA6FD" id="SNc" d="m190 214 2 2.5c.997 1.994-3.193 3.153-4.5 2.5l-4.5-4c0-1.048.473-3-1-3 0-.922-4.056-8-1-8l4 3 1 1 1 2 3 4Z"/><path fill="#FF8EFE" id="PN" d="M209 219v1l5-6 1-1v-1l2-1c0-2.773 4-3.67 4-6l-2-1-5 4-1 1-1 1-1 1-2 6v2Z"/><path fill="#FEA4FF" id="IPDM" d="M222 205v2l3-3-3 1Z"/><path fill="#FF8EFE" id="PN" d="M243 215c2.007 0 1.121 4 4 4 0-4.299-4-6.885-4-10v-1l-6-4-2 1 6 7 2 3Z"/><path fill="#FFA6FD" id="SNc" d="M273 214c0 4.97-8 7.869-8 1l1-1 1-1 1-1v-1l1-1 1-1 5-5h1c0 2.402-1 4.31-1 7l-2 3Z"/><path fill="#C7C8CC" id="alv" d="m318 204-1 2 1-2ZM112 241h1l-5.5-3-18-11c-4.793-2.396-17.718-22-18.5-22 0 8.12 21.609 26.554 28.5 30l11.5 6h1Z"/><path fill="#FEA5FE" id="IPRL" d="m220 210-3 1c0-2.773 4-3.67 4-6h1v2l-1 1-1 2ZM236 210l5 2-6-7h-1l1 3 1 2Z"/><path fill="#C7C8CC" id="alv" d="M384 207h1v-2l-1 2Z"/><path fill="#C7CCCC" id="IIIn" d="m185 207 1 1c0-1.058-1-3.029-1-1Z"/><path fill="#FEA4FF" id="IPDM" d="m222 207-1 1 1-1Z"/><path fill="#C7C8CC" id="alv" d="M317 207c-1.577 0-2 1.762-2 3 1.577 0 2-1.762 2-3ZM383 209h1v-2l-1 2Z"/><path fill="#C8CBCC" id="ec" d="m385 207-1 2v-2h1Z"/><path fill="#FF64FF" id="MB" d="m214 208-1 1 1-1ZM213 209l-1 1 1-1ZM248 225l7 1 4-3v-3c-2.014 0-5.932 2.284-8.5 1-8.716-4.358 8.86-4 11.5-4l3-2v-1l-5-1c-2.617 0-5.208 3.646-8.5 2l-2.5-3c0 3.292-5.172-3-6-3 0 3.115 4 5.701 4 10l1 6ZM270 209l-1 1 1-1Z"/><path fill="#C7C8CC" id="alv" d="m383 211-2 1c0-1.238.423-3 2-3v2Z"/><path fill="#C8CBCC" id="ec" d="m384 209-1 2v-2h1Z"/><path fill="#C7C8CC" id="alv" d="m143 212 2 4c-1.428 0-4-4.822-4-6h1l1 2Z"/><path fill="#FF64FF" id="MB" d="M194 217h15l2-6c-1.674 0-2.326 1-4 1 0 6.443-8.66 1-10 1l-4.5 1-5.5-4 3 4 4 3ZM212 210l-1 1 1-1Z"/><path fill="#FDA6FE" id="IPDL" d="m221 220-6 1-1-7 1-1v-1l2-1 3-1c0 3.332 1 6.761 1 10ZM236 220l5 1 2-6-2-3-5-2v10Z"/><path fill="#FEA5FE" id="IPRL" d="m217 211-2 1 2-1Z"/><path fill="#FF64FF" id="MB" d="M267 212h1v-1l-1 1Z"/><path fill="#C7CCCC" id="IIIn" d="m275 211-2 3 8.5 8c.84-.42-6.5-8.747-6.5-11Z"/><path fill="#C7C8CC" id="alv" d="m315 211-1 1v-1h1Z"/><path fill="#C8CBCC" id="ec" d="M377 217v2c2.158 0 6-5.64 6-8l-2 1-1 1c0 1.429-1.288 4-3 4Z"/><path fill="#C7CCCC" id="IIIn" d="M182 212c1.473 0 1 1.952 1 3-2.169 0-6.08 7.71-7.5 7-1.528-.764 5.421-10 6.5-10Z"/><path fill="#FF8DFD" id="SNr" d="m268 212-1 1v-1h1Z"/><path fill="#C7C8CC" id="alv" d="M313 213v1l1-2h-1v1ZM381 212l-1 1 1-1Z"/><path fill="#FEA5FE" id="IPRL" d="m215 213-1 1 1-1Z"/><path fill="#FF64FF" id="MB" d="M265 214h1v-1l-1 1Z"/><path fill="#FF8DFD" id="SNr" d="m267 213-1 1v-1h1Z"/><path fill="#C7C8CC" id="alv" d="M380 213c-1.712 0-3 2.571-3 4 1.712 0 3-2.571 3-4Z"/><path fill="#FEA5FF" id="IPL" d="M218 232h1c0-3.614-4-6.899-4-11l-1-7-5 6c0 10.239 9 7.724 9 12Z"/><path fill="#FF8DFD" id="SNr" d="m266 214-1 1v-1h1Z"/><path fill="#C7C8CC" id="alv" d="M311 215v2c1.577 0 2-1.762 2-3l-2 1Z"/><path fill="#65A83D" id="DG-sg" d="m148 223 1 1c0 18.207-19-2.884-19-9l6 7c0 5.775 11 8.117 11 1h1Z"/><path fill="#FEA5FF" id="IPL" d="M239 231h1l1-1 2-1 1-1 1-1h1l1-1 1-1-1-6c-2.879 0-1.993-4-4-4l-2 6c0 3.947-3 6.628-3 10h1Z"/><path fill="#65A83D" id="DG-sg" d="m326 215-1 2 1-2Z"/><path fill="#C7C8CC" id="alv" d="M147 222h1c0-1.408-1.197-5-3-5l2 5Z"/><path fill="#CCCAC8" id="mp" d="M209 219c-2.409 0-1.055 1.277-2.5 2-2.772 1.386-7.269-1-9.5-1l-3-3h15v2ZM262 217c-2.64 0-20.216-.358-11.5 4 2.568 1.284 6.486-1 8.5-1l3-3Z"/><path fill="#C7C8CC" id="alv" d="M309 223h1l1-6c-2.461 0-2 3.378-2 5v1Z"/><path fill="#65A83D" id="DG-sg" d="M307 224v1c0 14.26 18-.512 18-8-2.832 0-2.953 5-5 5l-1 1c0 6.3-10 5.672-10 0h-1l-1 1Z"/><path fill="#C7C8CC" id="alv" d="M374 221h1l2-2v-2c-1.712 0-3 2.571-3 4Z"/><path fill="#FF64FF" id="MB" d="M202 226c1.423 0 3.544-1.978 5.5-1l10.5 7c0-4.276-9-1.761-9-12v-1c-2.409 0-1.055 1.277-2.5 2-2.772 1.386-7.269-1-9.5-1l1 3 4 3Z"/><path fill="#C8CBCC" id="ec" d="M375 221h2v-2l-2 2Z"/><path fill="#8AD987" id="CTXsp" d="M79 222h2l-2-2v2Z"/><path fill="#FEA6FD" id="IPI" d="m219 232 2 1v-13l-6 1c0 4.101 4 7.386 4 11ZM236 233h1l1-1v-1c0-3.372 3-6.053 3-10l-5-1-1 2c1.773 0 1 9.259 1 11Z"/><path fill="#FFA5FE" id="IPC" d="m236 233-3.5 2c-2.977 1.489-8.046-1-10.5-1l-1-1v-12c3.948 0 9.393 1 14 1 1.773 0 1 9.259 1 11Z"/><path fill="#C7C8CC" id="alv" d="m374 221-1 1 1-1Z"/><path fill="#C8CBCC" id="ec" d="m375 222-2 1v-1l1-1h1v1Z"/><path fill="#8AD987" id="CTXsp" d="M375 222h3l-1-1h-2v1Z"/><path fill="#A0ED9D" id="EPv" d="M89 229c0 1.747-.253 2-2 2-5.4 0-10.59-3-13-3l-1-2 3-3 3-1h2l8 7Z"/><path fill="#7ECE4A" id="DG-po" d="m136 222 3.5 2 7.5-1c0 7.117-11 4.775-11-1Z"/><path fill="#7DCD4B" id="HPF" d="M147 223h1v-1h-1v1ZM308 223h1v-1l-1 1Z"/><path fill="#7ECE4A" id="DG-po" d="m320 222-1 1 1-1Z"/><path fill="#C7C8CC" id="alv" d="M367 227h2l2-2 2-2v-1c-1.668 0-6 3.099-6 5Z"/><path fill="#A0ED9D" id="EPv" d="M367 229c0 1.747.253 2 2 2 3.102 0 14 .282 14-4v-2l-3-3h-5l-2 1c0 1.747-.253 2-2 2 0 1.747-.253 2-2 2l-2 2Z"/><path fill="#7BD04A" id="DG-mo" d="m308 223-1 1 1-1Z"/><path fill="#7ECE4A" id="DG-po" d="M310 223h9c0 6.3-10 5.672-10 0h1Z"/><path fill="#C8CBCC" id="ec" d="m373 223-2 2c1.747 0 2-.253 2-2Z"/><path fill="#FF64FF" id="MB" d="m248 225-1 1 1-1Z"/><path fill="#C8CBCC" id="ec" d="m371 225-2 2c1.747 0 2-.253 2-2Z"/><path fill="#99D2BD" id="OLF" d="M383 227h4l-4-2v2ZM70 227l4 1-1-2c-1.048 0-3-.473-3 1Z"/><path fill="#FF64FF" id="MB" d="m247 226-1 1 1-1Z"/><path fill="#A8ECD2" id="TR" d="M97 249c-5.022 0-12 13.95-12 19-13.861 0-26.92-8.342-33-20.5-2.504-5.009-10-8.574-10-14.5l4-1c1.67 0 9-1.131 9-3 1.928 0 10-.112 10-2h5l4 1c2.41 0 7.6 3 13 3 0 1.454 5.366 1.433 6.5 2l7.5 6c0 4.299-4 6.885-4 10Z"/><path fill="#FF64FF" id="MB" d="m245 227-1 1 1-1Z"/><path fill="#C7C8CC" id="alv" d="m367 227-1 1 1-1Z"/><path fill="#C8CBCC" id="ec" d="M366 229h1l2-2h-2l-1 1v1Z"/><path fill="#A8ECD2" id="TR" d="M359 249c5.637 0 12 13.058 12 19 4.397 0 12.649-1.074 16.5-3 6.774-3.387 26.5-25.202 26.5-32l-4-1c-1.671 0-9-1.131-9-3-3.77 0-7.021-2-10-2h-8c0 4.282-10.898 4-14 4 0 1.069-6.717 3-8 3l-2 1-3 5c0 4.406 3 6.419 3 9Z"/><path fill="#FF64FF" id="MB" d="m244 228-1 1 1-1Z"/><path fill="#C7C8CC" id="alv" d="M365 229h1v-1l-1 1Z"/><path fill="#8AD987" id="CTXsp" d="M101 237v2l-7.5-6c-1.134-.567-6.5-.546-6.5-2 1.747 0 2-.253 2-2l12 8Z"/><path fill="#FF64FF" id="MB" d="m243 229-2 1 2-1Z"/><path fill="#C7C8CC" id="alv" d="M363 230h2v-1l-2 1Z"/><path fill="#C8CBCC" id="ec" d="m366 229-1 1v-1h1Z"/><path fill="#8AD987" id="CTXsp" d="M369 231c0 1.069-6.717 3-8 3l2-3 2-1 1-1h1c0 1.747.253 2 2 2Z"/><path fill="#FF64FF" id="MB" d="m241 230-1 1 1-1Z"/><path fill="#C7C8CC" id="alv" d="M362 231h1v-1l-1 1Z"/><path fill="#C8CBCC" id="ec" d="m365 230-2 1v-1h2Z"/><path fill="#33B931" id="HATA" d="m119 243 13 7c1.172 0 7-11.089 7-13l-1-2-4-4c0 .7-13.089 11-15 11v1Z"/><path fill="#FF64FF" id="MB" d="m239 231-1 1v-1h1Z"/><path fill="#33B931" id="HATA" d="m337 244-13 6-7-13 1-1 5-5c0 3.439 12.237 11 15 11v1l-1 1Z"/><path fill="#C7C8CC" id="alv" d="m361 231-1 1 1-1Z"/><path fill="#C8CBCC" id="ec" d="M359 234h2l2-3h-2l-1 1-1 1v1Z"/><path fill="#FF64FF" id="MB" d="m238 232-1 1 1-1Z"/><path fill="#C7C8CC" id="alv" d="m360 232-1 1 1-1Z"/><path fill="#FF64FF" id="MB" d="m221 233 1 1-1-1Z"/><path fill="#C7C8CC" id="alv" d="M357 234h2v-1l-2 1ZM355 235h2v-1l-2 1Z"/><path fill="#C8CBCC" id="ec" d="M357 235h2v-1h-2v1Z"/><path fill="#8AD987" id="CTXsp" d="m361 234-2 1v-1h2Z"/><path fill="#7DCD4B" id="HPF" d="M139 237h2l-3-2 1 2Z"/><path fill="#C7C8CC" id="alv" d="m355 235-2 1 2-1Z"/><path fill="#C8CBCC" id="ec" d="M345 240v1c3.455 0 5.917-3 9-3l1-1 2-2h-2l-2 1-1 1h-1l-2 1-2 1-2 1Z"/><path fill="#8AD987" id="CTXsp" d="m355 238 1 2 3-5h-2l-2 2v1Z"/><path fill="#7DCD4B" id="HPF" d="M316 237h1l1-1-2 1Z"/><path fill="#C7C8CC" id="alv" d="m353 236-1 1 1-1ZM351 237l-2 1 2-1Z"/><path fill="#97EC93" id="PA" d="M109 251c8.233 0 14.742 7 19 7l4-8-13-7h-3l-1-1c-1.048 0-3 .473-3-1h-1l-9-3-1 1c0 4.299-4 6.885-4 10 2.293 0 12-.983 12 2Z"/><path fill="#C7C8CC" id="alv" d="m349 238-2 1 2-1Z"/><path fill="#97EC93" id="PA" d="M348 251c-8.043 0-15.626 7-19 7l-5-8 13-6 1-1h3l1-1c1.048 0 3 .473 3-1 3.455 0 5.917-3 9-3h1l1 2c0 4.406 3 6.419 3 9-2.203 0-11-.896-11 2Z"/><path fill="#C7C8CC" id="alv" d="m347 239-2 1 2-1ZM343 241h2v-1l-2 1Z"/><path fill="#C8CBCC" id="ec" d="M115 241v1c-1.048 0-3 .473-3-1h3Z"/><path fill="#C7C8CC" id="alv" d="M116 243h2v-1l-3-1v1l1 1ZM338 243h3l1-1v-1l-4 1v1Z"/><path fill="#C8CBCC" id="ec" d="M345 241c0 1.473-1.952 1-3 1v-1h3Z"/><path fill="#7DCD4B" id="HPF" d="M118 243h1v-1h-1v1Z"/><path fill="#FF9B88" id="P" d="M201 242c0 2.437-7.582 4.336-5 9.5 2.096 4.193 23.316 7.632 17-5-1.498-2.996-2.536-3.5-6-3.5l-6-1ZM253 242c0 .286-8.492 2.496-9.5 3-2.984 1.492-1.768 8.616 1 10 11.573 5.787 23.98-13 8.5-13Z"/><path fill="#5FE6B7" id="COApl" d="m85 268 11 7c0-5.877 7.606-24 13-24 0-2.983-9.707-2-12-2-5.022 0-12 13.95-12 19ZM371 268c0 1.227-8.302 6-10 6 0-3.748-8.615-23-13-23 0-2.896 8.797-2 11-2 5.637 0 12 13.058 12 19Z"/><path fill="#60E6B5" id="COApm" d="M128 258c0 8.552-16.308 15.904-22.5 19-3.325 1.662-6.853-2-9.5-2 0-5.877 7.606-24 13-24 8.233 0 14.742 7 19 7ZM329 258c0 9.654 15.025 15.763 21.5 19 2.086 1.043 10.5-1.179 10.5-3 0-3.748-8.615-23-13-23-8.043 0-15.626 7-19 7Z"/></svg>