<svg xmlns="http://www.w3.org/2000/svg" viewBox="0 0 456 320"><path fill="#FEFA90" id="DEC" d="M193 93h71c0-4.996-7.084-10.792-11.5-13-4.173-2.087-11.544-1-16.5-1-10.407 0-25.708-2.396-34.5 2l-3 4c-4.107 2.054-5.5 4.556-5.5 8Z"/><path fill="#FDFB90" id="FOTU" d="m182 130 9.5-5c7.393-3.696 17.681-1.34 25-5 6.794-3.397 43.473 2.237 49 5l8.5 5c0-7.976 9-15.301 9-23 0-6.799-13.286-14-19-14h-71c-5.896 0-20 6.976-20 14 0 6.03 9 15.447 9 23Z"/><path fill="#FCFA91" id="ANcr2" d="m145 120-1 1-8.5 4-3.5-3.5c-1.616-3.233-1.196-4.804 1.5-7.5 6.001-6.001 18.021-11 26.5-11 3.294 0 11-1.237 11 3l-5.5 3c-4.14 2.07-16.794 11-20.5 11ZM312 121h1c2.616 0 7.019 5.241 9.5 4 6.308-3.154.398-10.602-2.5-13.5-5.229-5.229-17.521-8.5-25-8.5-3.586 0-10-1.155-10 4 7.223 0 20.982 13 26 13l1 1Z"/><path fill="#FFFB8E" id="PRM" d="M140 177h1l6-7 6-7.5 21-24c2.169-2.169 4.171-7.5 8-7.5v-1c0-7.553-9-16.97-9-23l-2-1-5.5 3c-4.14 2.07-16.794 11-20.5 11l-1 1-13 11.5c-5.086 10.173-18.746 20.509-12 34 1.773 3.546 6.506 2.012 8 5 2.447 4.893 6.703 6.5 12 6.5l1-1ZM316 177l1 1c5.576 0 8.152-1.652 11.5-5 2.337-2.337 7.179-3.857 8.5-6.5 5.782-11.564-3.176-20.352-8-30L313 121h-1l-1-1c-5.018 0-18.777-13-26-13h-2c0 7.699-9 15.024-9 23v1c3.885 0 6.756 5.256 9.5 8 6.515 6.515 15.363 15.226 19.5 23.5.87 1.74 6 4.66 6 7.5 1.114 0 6 5.685 6 7h1Z"/><path fill="#FBFC91" id="PYR" fill-rule="evenodd" d="M187 145c0 4.136 2.609 0 0 0m0 19c2.272 0 8.262-3.881 10.5-5 8.175-4.087 28.249-2 38.5-2h12.5c4.182 2.091 9.846.923 14 3l7.5 5 1-16c0-4.707-14.765-6.633-17.5-8-6.126-3.063-39.681-5.16-46-2l-18 6c-2.206-1.103 3.177-3.588 4-4 6.104-3.052 13.995-1.997 20-5 6.816-3.408 38.898-.051 45 3l8 4 4.5 4c0-5.465 3-10.957 3-16v-1l-8.5-5c-5.527-2.763-42.206-8.397-49-5-7.319 3.66-17.607 1.304-25 5l-9.5 5v1c1.359 0 3 13.028 3 16 1.186 0 1.186 1 0 1v1c0 4.422 2 10.463 2 15Z"/><path fill="#FFF990" id="COPY" fill-rule="evenodd" d="M174 159c0 1.93 1.93 0 0 0m4-5c0 .317-4.499 5-2.5 5 .93 0 5.384-5 2.5-5m1-1c0 1.93 1.93 0 0 0m1-1c0 1.93 1.93 0 0 0m1-1c0 1.93 1.93 0 0 0m1-1c0 1.93 1.93 0 0 0m1-1c0 1.93 1.93 0 0 0m-40 29c0 16.586 12.329 14.585 23.5 9 2.303-1.151 2.641-4 5.5-4 0-6.399 15-15.098 15-19 0-4.537-2-10.578-2-15-1.186 0-1.186-1 0-1v-1c0-2.972-1.641-16-3-16-3.829 0-5.831 5.331-8 7.5l-21 24-6 7.5c0 1.49-2.206 8-4 8Z"/><path fill="#FFF990" id="COPY" d="M314 181c0 3.697-1.306 6.403-4.5 8-7.111 3.555-14.379.31-21-3l-3.5-3c0-3.81-9.174-12.837-11.5-14l-3.5-4 1-16c2.526 0 9.819 11 10.5 11 1.249 0-2.907-4.907-3.5-5.5l-7-7.5c0-5.465 3-10.957 3-16 3.885 0 6.756 5.256 9.5 8 6.515 6.515 15.363 15.226 19.5 23.5.87 1.74 6 4.66 6 7.5l4 7v2l1 2Z"/><path fill="#CBC9CC" id="arb" d="m271 147 7 7.5c.593.593 4.749 5.5 3.5 5.5-.681 0-7.974-11-10.5-11 0-4.707-14.765-6.633-17.5-8-6.126-3.063-39.681-5.16-46-2l-18 6c-2.206-1.103 3.177-3.588 4-4 6.104-3.052 13.995-1.997 20-5 6.816-3.408 38.898-.051 45 3l8 4 4.5 4ZM187 145c0 4.136 2.609 0 0 0ZM185 147c1.186 0 1.186 1 0 1v-1ZM185 148c-1.186 0-1.186 1 0 1v-1ZM183 149c0 1.93 1.93 0 0 0ZM182 150c0 1.93 1.93 0 0 0ZM181 151c0 1.93 1.93 0 0 0ZM180 152c0 1.93 1.93 0 0 0ZM179 153c0 1.93 1.93 0 0 0ZM178 154c0 .317-4.499 5-2.5 5 .93 0 5.384-5 2.5-5Z"/><path fill="#FFFA8F" id="UVU" fill-rule="evenodd" d="m181 173-3 4.5 12 .5h29.5l9-2c9.7 4.85 27.063 2 38.5 2 1.726 0 12 1.016 12-1.5 0-5.585-19.656-1.5-23.5-1.5-7.216 0-38.955-3.523-44-1-2.824 1.412-14.71 2.645-18 1-3.319-1.66-8.598-2-12.5-2m-9 10c0 11.734 18.035 8.768 24.5 12 11.429 5.715 51.598 5.701 63 0 3.621-1.811 9.356-.178 13-2 2.95-1.475 7.068-2.068 9.5-4.5l3-5.5c0-3.81-9.174-12.837-11.5-14l-3.5-4-7.5-5c-4.154-2.077-9.818-.909-14-3H236c-10.251 0-30.325-2.087-38.5 2-2.238 1.119-8.228 5-10.5 5 0 3.902-15 12.601-15 19Z"/><path fill="#CBC9CC" id="arb" d="M174 159c0 1.93 1.93 0 0 0Z"/><path fill="#F0F080" id="CB" d="m141 177 2 1c1.794 0 4-6.51 4-8l-6 7ZM313 177h2c0-1.315-4.886-7-6-7l4 7Z"/><path fill="#CBC9CC" id="arb" d="m181 173-3 4.5 12 .5h29.5l9-2c9.7 4.85 27.063 2 38.5 2 1.726 0 12 1.016 12-1.5 0-5.585-19.656-1.5-23.5-1.5-7.216 0-38.955-3.523-44-1-2.824 1.412-14.71 2.645-18 1-3.319-1.66-8.598-2-12.5-2Z"/><path fill="#F0F080" id="CB" d="m140 177-1 1 1-1ZM316 177l1 1-1-1ZM313 179l1 2-1-2Z"/><path fill="#FF9BCD" id="MY" fill-rule="evenodd" d="m275 281-2 4.5c3.149 6.298 13.935-1.282 7.5-4.5H275m-99 0c0 1.602-3.058 2.384-2 4.5 3.06 6.119 13.547-.976 6.5-4.5H176m132-11c0 1.93 1.93 0 0 0m-80-38c0 1.93 1.93 0 0 0m43-36-3 1.5c-2.707 5.413 15.04-1.5 3-1.5m-89 0c0 8.971 13.108 0 0 0m34 103c0-3.279 5.661-13.822 8-18.5 1.428-2.856-1.213-18.143 1.5-19.5 1.6-.8 5.713-.073 6.5 1.5l1 22c2.182 4.364 8 9.391 8 14.5 8.964 0 24.803 2.848 32.5-1 1.324-.662 6.5 1.207 6.5-1-.56 0 6.879-8 9.5-8 1.999 0-2.5 4.683-2.5 5 6.543 0 13.201-11.701 17.5-16 21.942-21.942 18.845-65.578-10-80-4.438-2.219-18.227-5.886-24-3l-5 2c-2.214 0-11.5-.565-11.5 2 3.167 0 6.037-1.232 8.5 0 1.685.843-.574 7 2.5 7l2-2.5c6.782-6.782 7.835 3.5 1 3.5l2 3 7.5-7c4.068-2.034 7.398 0 11.5 0v-2c-2.553 0-10.622-.256-10-1.5 1.863-3.726 9.662-1.919 12.5-.5 9.745 4.873 16.586 10.672 21.5 20.5 2.685 5.37 5.747 22.506 3 28-.847 1.694-3 16.216-3 11.5l-1 2c2.783 0-3 12.357-3 7-1.577 0-2 1.762-2 3l-1 2c2.276 0-1 3.276-1 1l-1 1c1.622 0-1 3.749-1 0h-7c0 2.715-1.657 3-4 3 0 1.916 3 .07 3 3 2.062 0 6-3.562 6-1.5l-3 3c-1.645 1.645-7 9.375-7 4.5-5.384 0-7-2.883-7-8 0-1.577-1.762-2-3-2l-4.5 1-3.5-2c0 8.009-24.69 3.12-28-3.5l-10-20c-.876-1.752-5.174-4.652-4-7 1.114-2.228 8-1.014 8-4.5l4-2c0-1.93.84-8 3-8 .193 0 4.799-6.15 6.5-7 6.269-3.135 11.91-2 18.5-2 0-.555-3-1.735-3-8l-3.5 3-10 4-4.5-1c0 5.971-4.362 5-8 5 0 4.563-10.058 4-12 4l-4-1c0 6.311-11.177-3-12-3-3.361 0-7 .311-7-5l-5.5 1c-2.819-1.409-10.367-6-12.5-6 0 2.518-2 4.286-2 6 6.592 0 23 1.75 23 10 2.117 0 4 6.449 4 8l3 2-1-9.5c2.957-5.915 17.744 7.878 10.5 11.5-3.237 1.619-6.105-2-8.5-2 0 2.984 6.029 2.557 7 4.5 1.361 2.722-2.073 4.145-3 6-3.547 7.094-7.451 13.902-11 21-3.395 6.79-28 11.442-28 3.5l-2.5 2c-1.956.978-4.077-1-5.5-1l-3 2c0 4.607-.994 8-6 8l-1.5 2-5-6c-6.419-3.209-1.922-3 1.5-3l3-2c-2.747 0-3-.253-3-3-2.443 0-4.833 1.333-7.5 0l-4.5-4 4 4.5c0 .583-5.354-3.709-6-5-3.177-6.354-3.865-13.73-7-20-2.197-4.395 1.225-24.451 3-28 .322-.645 4.851-12.297 6-10l-3 6c-2.068 4.136-3 9.52-3 14.5 1.584 0 3.14-11.779 4-13.5.813-1.625 9-12.358 9-12.5-2.93 0-4.269 5-6.5 5-2.122 0 3.12-5.12 3.5-5.5 3.138-3.138 8.085-6.292 12.5-8.5 2.626-1.313 12.5-1.219 12.5 2.5l-11 .5v2c4.23 0 7.487-2.007 11.5 0l8.5 8 1-4c-1.805 0-6.772-4.864-4.5-6 2.836-1.418 7.5 2.324 7.5 5 3.359 0 .88-5.69 3.5-7 2.648-1.324 4.341 0 7.5 0 0-3.347-9.491-.996-11.5-2-8.904-4.452-22.882-2.059-31 2-14.721 7.36-28.541 41.417-20.5 57.5 4.449 8.898 7.739 16.739 15.5 24.5 4.171 4.171 13.419 16 19.5 16 0-1.121-9.94-6.78-7.5-8 1.947-.973 10.603 8 9.5 8 0 2.207 5.176.338 6.5 1 7.909 3.955 24.293 1 33.5 1m23-58 2-5c0-16.579-16.908 4.296-11.5 7 3.379 1.69 6.661-2 9.5-2Z"/><path fill="#FFA2D2" id="ECU" d="M182 196c0 8.971 13.108 0 0 0ZM271 196l-3 1.5c-2.707 5.413 15.04-1.5 3-1.5Z"/><path fill="#C8CACA" id="sptV" d="M159 205c-1.238 0-3 .423-3 2-2.93 0-4.269 5-6.5 5-2.122 0 3.12-5.12 3.5-5.5 3.138-3.138 8.085-6.292 12.5-8.5 2.626-1.313 12.5-1.219 12.5 2.5l-11 .5c-2.833 0-4.84 2-7 2l-1 1v1ZM313 255v4c0 4.716 2.153-9.806 3-11.5 2.747-5.494-.315-22.63-3-28-4.914-9.828-11.755-15.627-21.5-20.5-2.838-1.419-10.637-3.226-12.5.5-.622 1.244 7.447 1.5 10 1.5 1.93 0 8 .84 8 3 8.466 0 16 20.343 16 27v7c1.65 0 1.65 17 0 17Z"/><path fill="#FDA5D0" id="CU" d="M189 215c2.133 0 9.681 4.591 12.5 6l5.5-1 6-7v-2c0-3.967-7-5.479-7-10l-2-2h-2c-3.159 0-4.852-1.324-7.5 0-2.62 1.31-.141 7-3.5 7 0 1.473-1.952 1-3 1l-1 4 2 4ZM268 214l-3.5 3-10 4-4.5-1-7-7v-1c0-4.696 8-7.054 8-12l2-1h1c3.167 0 6.037-1.232 8.5 0 1.685.843-.574 7 2.5 7 0 1.473 1.952 1 3 1l2 3-2 4Z"/><path fill="#FF9BCD" id="MY" d="m207 199-1 2-2-2h3Z"/><path fill="#FEA3D0" id="GR" d="m224 212-3.5 2-5.5-1-2-2c0-3.967-7-5.479-7-10l1-2h7l1 1h1l1 1 3 1 1 1h1l3 4.5-1 4.5Z"/><path fill="#FF9BCD" id="MY" d="m214 199 1 1-1-1ZM243 199l-2 1 2-1Z"/><path fill="#FEA3D0" id="GR" d="m243 212-1 1c-1.925 0-9 2.298-9-1 0-1.423-1.978-3.544-1-5.5l3-3.5 1-1 3-1 1-1h1l2-1h6l2 1c0 4.946-8 7.304-8 12Z"/><path fill="#FF9BCD" id="MY" d="m253 199-2 1-2-1h4ZM216 200l1 1-1-1ZM240 200l-1 1 1-1Z"/><path fill="#FDA3D1" id="Pa5" d="M159 205h1l7-2v-2c-2.833 0-4.84 2-7 2l-1 1v1Z"/><path fill="#CAC9CC" id="cuf" d="M191 206c0 1.473-1.952 1-3 1-1.805 0-6.772-4.864-4.5-6 2.836-1.418 7.5 2.324 7.5 5ZM265 206c0 1.473 1.952 1 3 1 6.835 0 5.782-10.282-1-3.5l-2 2.5Z"/><path fill="#FDA3D1" id="Pa5" d="M297 204v1c-3.303 0-5.115-2-8-2v-2c1.93 0 8 .84 8 3Z"/><path fill="#FDA4D0" id="SPVC" d="m149 271 4.5 4c2.667 1.333 5.057 0 7.5 0l8-10.5c1.422-2.844.592-7.185 2-10 3.668-7.336 5.297-15.594 9-23 1.357-2.714 1.878-9.5 6-9.5l1-1c0-1.714 2-3.482 2-6l-2-4-8.5-8c-4.013-2.007-7.27 0-11.5 0l-7 2-4 2c0 .142-8.187 10.875-9 12.5-.86 1.721-2.416 13.5-4 13.5v24l2 4v2c1.577 0 2 1.762 2 3v1l2 3v1Z"/><path fill="#FF9BCD" id="MY" d="m220 202 1 1-1-1ZM236 202l-1 1 1-1Z"/><path fill="#FDA4D0" id="SPVC" d="M303 275h1l1-1 1-1 1-2c0-1.238.423-3 2-3v-1l1-2 1-2v-1l1-1 1-2v-28c-1.951 0-.477-2.454-1-3.5-2.056-4.112-2.944-8.887-5-13-1.432-2.864-10-7.033-10-9.5-3.303 0-5.115-2-8-2-4.102 0-7.432-2.034-11.5 0l-7.5 7-2 4c0 6.265 3 7.445 3 8 3.577 0 4.908 9.315 6 11.5 5.146 10.291 6.879 21.758 12 32 1.051 2.101 3.324 9.5 7 9.5h7Z"/><path fill="#FF9BCD" id="MY" d="m160 203-1 1 1-1ZM224 212h9c0-1.423-1.978-3.544-1-5.5l3-3.5c-3.276 0-5.941 7-6.5 7-.978 0-3.464-7-6.5-7l3 4.5-1 4.5ZM297 205c0 2.467 8.568 6.636 10 9.5 2.056 4.113 2.944 8.888 5 13 .523 1.046-.951 3.5 1 3.5 0-6.657-7.534-27-16-27v1ZM160 205l-4 2c0-1.577 1.762-2 3-2h1ZM213 213h2l-2-2v2Z"/><path fill="#C8CACA" id="sptV" d="M149 270v1l4 4.5c0 .583-5.354-3.709-6-5-3.177-6.354-3.865-13.73-7-20-2.197-4.395 1.225-24.451 3-28 .322-.645 4.851-12.297 6-10l-3 6c-2.068 4.136-3 9.52-3 14.5v11c-1.602 0-1.602 7 0 7v6l2 4v2l2 3v1c0 1.238.423 3 2 3Z"/><path fill="#FDA5D1" id="NTS" fill-rule="evenodd" d="m243 218-1 1.5c-2.863 5.726 8.485-1.5 1-1.5m-31 0-1 1.5c0 6.226 6.378-1.5 1-1.5m14 10 4 1c0-9.327 12-10.967 12-4 3.638 0 8 .971 8-5l-7-7h-1c-1.925 0-9 2.298-9-1h-9l-3.5 2-5.5-1h-2l-6 7c0 5.311 3.639 5 7 5 0-5.388 12-6.869 12 3Z"/><path fill="#FF9BCD" id="MY" d="M242 213h1v-1l-1 1Z"/><path fill="#C8CAC7" id="ts" d="m212 218-1 1.5c0 6.226 6.378-1.5 1-1.5ZM243 218l-1 1.5c-2.863 5.726 8.485-1.5 1-1.5Z"/><path fill="#FF9BCD" id="MY" d="m187 221-1 1 1-1Z"/><path fill="#FDB1D7" id="MDRNd" d="m164 278 8 1 3-2c0-7.373 16.988-28.488 22.5-34l12.5-12c0-8.25-16.408-10-23-10l-1 1c-4.122 0-4.643 6.786-6 9.5-3.703 7.406-5.332 15.664-9 23-1.408 2.815-.578 7.156-2 10l-8 10.5c0 2.747.253 3 3 3Z"/><path fill="#FDB1D8" id="DMX" d="M214 225c.823 0 12 9.311 12 3 0-9.869-12-8.388-12-3ZM242 225c0 4.563-10.058 4-12 4 0-9.327 12-10.967 12-4Z"/><path fill="#FDB1D7" id="MDRNd" d="m292 278-8 1c0-1.577-1.762-2-3-2 0-8.462-15.758-27.258-22-33.5L246 231c.193 0 4.799-6.15 6.5-7 6.269-3.135 11.91-2 18.5-2 3.577 0 4.908 9.315 6 11.5 5.146 10.291 6.879 21.758 12 32 1.051 2.101 3.324 9.5 7 9.5 0 2.715-1.657 3-4 3Z"/><path fill="#FEB1D7" id="XII" d="M217 241h1c2.395 0 5.263 3.619 8.5 2 7.244-3.622-7.543-17.415-10.5-11.5l1 9.5Z"/><path fill="#FEB1D7" id="XII" d="m239 241 2-5c0-16.579-16.908 4.296-11.5 7 3.379 1.69 6.661-2 9.5-2Z"/><path fill="#FFB2D8" id="IRN" d="m183 276-2.5 2c-1.956.978-4.077-1-5.5-1 0-7.373 16.988-28.488 22.5-34l12.5-12c2.117 0 4 6.449 4 8-8.685 0-31 29.846-31 37ZM273 276l3.5 2 4.5-1c0-8.462-15.758-27.258-22-33.5L246 231c-2.16 0-3 6.07-3 8 0 1.053 9.124 4.748 10 6.5 4.455 8.911 20 18.042 20 30.5Z"/><path fill="#A7AAA9" id="c" d="M228 232c0 1.93 1.93 0 0 0Z"/><path fill="#FF9BCD" id="MY" d="M313 238c1.65 0 1.65 17 0 17v-17Z"/><path fill="#FFB1D6" id="MDRNv" d="M218 241c0 2.984 6.029 2.557 7 4.5 1.361 2.722-2.073 4.145-3 6-3.547 7.094-7.451 13.902-11 21-3.395 6.79-28 11.442-28 3.5 0-7.154 22.315-37 31-37l3 2h1ZM239 241c0 3.486-6.886 2.272-8 4.5-1.174 2.348 3.124 5.248 4 7l10 20c3.31 6.62 28 11.509 28 3.5 0-12.458-15.545-21.589-20-30.5-.876-1.752-10-5.447-10-6.5l-4 2Z"/><path fill="#FF9BCD" id="MY" d="M143 244c-1.602 0-1.602 7 0 7v-7ZM143 257l2 4-2-4Z"/><path fill="#C9C7CC" id="pyd" d="M216 299c3.047 0 5.982.259 8.5-1l4-4 5 5h7.5c0-5.109-5.818-10.136-8-14.5l-1-22c-.787-1.573-4.9-2.3-6.5-1.5-2.713 1.357-.072 16.644-1.5 19.5-2.339 4.678-8 15.221-8 18.5Z"/><path fill="#FF9BCD" id="MY" d="m312 261-1 1 1-1Z"/><path fill="#C8CACA" id="sptV" d="M309 267v1c0 5.357 5.783-7 3-7l-1 1v1l-1 2-1 2Z"/><path fill="#FF9BCD" id="MY" d="M145 263c1.577 0 2 1.762 2 3l-2-3ZM311 263l-1 2 1-2ZM310 265l-1 2 1-2ZM147 267l2 3c-1.577 0-2-1.762-2-3Z"/><path fill="#C8CACA" id="sptV" d="M308 270c0 1.93 1.93 0 0 0ZM306 273c2.276 0-1 3.276-1 1l1-1ZM303 275h1c1.622 0-1 3.749-1 0Z"/><path fill="#C8C8CB" id="rust" d="m161 280 5 7c5.006 0 6-3.393 6-8l-8-1-3 2ZM295 281c0 2.33-4 3.227-4 6-5.384 0-7-2.883-7-8l8-1c0 1.916 3 .07 3 3Z"/><path fill="#C9CACA" id="sctd" d="M161 280c-3.422 0-7.919-.209-1.5 3l5 6 1.5-2-5-7ZM295 281c2.062 0 6-3.562 6-1.5l-3 3c-1.645 1.645-7 9.375-7 4.5 0-2.773 4-3.67 4-6Z"/><path fill="#FCB3D7" id="LRNm" d="M176 281c0 1.602-3.058 2.384-2 4.5 3.06 6.119 13.547-.976 6.5-4.5H176ZM275 281l-2 4.5c3.149 6.298 13.935-1.282 7.5-4.5H275Z"/><path fill="#CBC7CC" id="sctv" d="M174 297h2c1.103 0-7.553-8.973-9.5-8-2.44 1.22 7.5 6.879 7.5 8ZM284 296l-4 1c-.56 0 6.879-8 9.5-8 1.999 0-2.5 4.683-2.5 5l-2 1-1 1Z"/><path fill="#FF9BCD" id="MY" d="m287 294-2 1 2-1ZM285 295l-1 1 1-1Z"/></svg>