<svg xmlns="http://www.w3.org/2000/svg" viewBox="0 0 456 320"><path fill="#FCFB90" id="CUL4, 5" d="M235 69h1l1-1 2-4 1-1v-1l1-1v-2l1-1v-1l1-1v-2l1-1 1-2 1-1 1-1 1-1 2-2c0-8.718-27.759-5-33.5-5-2.701 0-10.5 1.251-10.5 5l2 2 5 5v1l1 2v1l1 1v2l1 1v1l1 1c0 1.408 1.197 5 3 5l1 1h6l2-1 2 1h4Z"/><path fill="#FF64FF" id="MB" d="M191 45c-1.048 0-3-.473-3 1 1.048 0 3 .473 3-1Z"/><path fill="#FE79FE" id="ICe" d="M165 59c0 5.453-2.631 13.237 0 18.5 1.835 3.67 5.147 6.294 7 10 1.181 2.363 3.266 6.383 5.5 7.5 3.175 1.588 19.5-5.133 19.5-8-5.65 0-6-8.805-6-13.5 0-7.242 9.068-20.5 16-20.5 0-4.602-9-5.966-9-8h-7c0 1.473-1.952 1-3 1-5.903 0-10.889 6-16 6l-1 1-1 1-1 1-1 1-1 1-1 1-1 1Z"/><path fill="#FF64FF" id="MB" d="M213 76h2l1-1 1-1 1-1 1-1 2-2v-1l-1-1c-1.803 0-3-3.592-3-5l-1-1v-1l-1-1v-2l-1-1v-1l-1-2v-1l-5-5-2-2-8-1c0 2.034 9 3.398 9 8 3.242 0 11 14.024 11 16.5 0 1.984-5 3.976-5 6.5ZM241 59v2l8-8c0-1.889 4.697-6.099 6.5-7 1.046-.523 3.5.952 3.5-1l-9 1-2 2-1 1-1 1-1 1-1 2-1 1v2l-1 1v1l-1 1Z"/><path fill="#FE79FE" id="ICe" d="m290 57 3 9.5c2.791 5.581-7.74 19.48-10 24-4.059 8.118-23 1.598-23-3.5 5.267 0 5-8.516 5-12.5v-9c-1.133-2.267-14.372-12.5-16-12.5 0-1.889 4.697-6.099 6.5-7 1.046-.523 3.5.952 3.5-1h6c0 1.473 1.952 1 3 1 5.798 0 12.102 6 16 6l1 1h1l3 3 1 1Z"/><path fill="#FF64FF" id="MB" d="M265 45c1.048 0 3-.473 3 1-1.048 0-3 .473-3-1Z"/><path fill="#F0F080" id="CB" d="m208 48 5 5-5-5ZM248 48l-1 1 1-1ZM247 49l-1 1 1-1ZM246 50l-1 1 1-1ZM245 51l-1 2 1-2Z"/><path fill="#FF64FF" id="MB" d="m172 52-1 1 1-1ZM284 52l1 1-1-1ZM171 53l-1 1 1-1Z"/><path fill="#FE79FF" id="ICd" d="m205 83-8 4c-5.65 0-6-8.805-6-13.5 0-7.242 9.068-20.5 16-20.5 3.242 0 11 14.024 11 16.5 0 1.984-5 3.976-5 6.5l-1 1-1 1-1 1-1 1-1 1h-1l-2 2Z"/><path fill="#F0F080" id="CB" d="m244 53-1 1 1-1Z"/><path fill="#FE79FF" id="ICd" d="M247 79c2.787 0 7.958 8 13 8 5.267 0 5-8.516 5-12.5v-9c-1.133-2.267-14.372-12.5-16-12.5l-8 8v1l-1 2-1 6.5c1.169 2.338 5 3.723 5 6.5l1 1 1 1h1Z"/><path fill="#FF64FF" id="MB" d="m286 53 3 3-3-3ZM170 54l-1 1 1-1Z"/><path fill="#F0F080" id="CB" d="m213 54 1 2-1-2Z"/><path fill="#FDFB8F" id="SIM" d="M117 148c0-2.627 2.755-9.011 4-11.5v-10c3.357-6.714 2.603-15.206 6-22 .292-.584 3.565-21.87 5-19 1.339 2.679.105 10.79-1 13v5c-3.381 6.762-2.637 15.274-6 22v7c-.918 1.837-2.154 7.692-1 10 2.058 4.117 5.964 5.5 11 5.5l2-5.5c2.842-5.685-1.88-15.241 1-21 4.905-9.81 9.066-20.132 14-30 2.119-4.238 3.85-8.7 6-13 .465-.93.817-4.5 2-4.5v-7c-2.064 0-.426-3.353-1-4.5l-7.5-7.5c-9.15-4.575-33.447 12.724-40 16-2.918 1.46-9.5 9.107-9.5 12 0 17.949-1.434 36.632 6 51.5 1.298 2.595 5.033 13.5 9 13.5ZM321 148c3.898 0 8.966-.431 11-4.5 3.141-6.282-4.33-36.659-7-42l.5-15.5 2.5 12.5c4.309 8.618 8 26.777 8 37 0 2.131 2.037 12.5 4 12.5 0-3.318 5.383-5.265 7-8.5l4-11c6.571-13.142 3-30.466 3-45.5 0-14.188-33.505-23.502-42.5-28-6.889-3.444-14.5 5.27-14.5 11l-1 7 8 17.5c5.414 10.829 9.626 22.252 15 33v15c1.094 2.189 2 7.093 2 9.5Z"/><path fill="#FF64FF" id="MB" d="m168 56-1 1 1-1Z"/><path fill="#F0F080" id="CB" d="m243 56-1 1 1-1Z"/><path fill="#FF64FF" id="MB" d="m167 57-1 1 1-1Z"/><path fill="#F0F080" id="CB" d="m214 57 1 1-1-1Z"/><path fill="#FF64FF" id="MB" d="m284 102-1 1c-4.439 0-25.363-12.863-29-16.5l-7-7.5c2.787 0 7.958 8 13 8 0 5.098 18.941 11.618 23 3.5 2.26-4.52 12.791-18.419 10-24l-3-9.5 7 9-1 7v2c-1.579 0-1 2.855-1 4l-1 1-1 1-1 2-1 1v2l-1 1v1l-1 2v1c-1.638 0-2 3.576-2 5v1l-1 2-1 2-1 1ZM166 58l-1 1 1-1Z"/><path fill="#F0F080" id="CB" d="m242 58-1 1 1-1Z"/><path fill="#FF64FF" id="MB" d="M174 103h2c0-1.577 1.762-2 3-2l4-2c0-2.673 11.657-8 14-8 0-1.577 1.762-2 3-2 0-1.811 3.438-4 5-4v-2l-8 4c0 2.867-16.325 9.588-19.5 8-2.234-1.117-4.319-5.137-5.5-7.5-1.853-3.706-5.165-6.33-7-10-2.631-5.263 0-13.047 0-18.5-1.985 0-5 6.262-5 8v5c1.579 0 1 2.855 1 4v2l2 2 1 2 1 1v2l1 1v1l1 2v1c1.638 0 2 3.576 2 5v1l2 3v1l2 2v1h1Z"/><path fill="#F0F080" id="CB" d="m215 60 1 1-1-1ZM240 62h1v-1l-1 1ZM216 62l1 1-1-1Z"/><path fill="#FF64FF" id="MB" d="M240 63v1l1-2h-1v1Z"/><path fill="#F0F080" id="CB" d="M239 64h1v-1l-1 1Z"/><path fill="#FF64FF" id="MB" d="M236 69c0 2.167 5.834 8 8 8 0-2.777-3.831-4.162-5-6.5l1-6.5h-1l-2 4-1 1Z"/><path fill="#F0F080" id="CB" d="m220 68 1 1-1-1ZM231 69l-1 1-1-1v-1l2 1ZM237 68l-1 1 1-1Z"/><path fill="#FFFC8E" id="CENT3" d="M185 147c0-5.49-7.123-8.254-3-16.5 2.045-4.089 12.758-5.629 16.5-7.5 18.929-9.465 42.455-8.273 61 1 4.1 2.05 13.029 2.558 15.5 7.5 3.057 6.115-4 12.339-4 15.5 7.675 0 13.607 3.446 20.5 0 2.607-1.304-.325-5.337 1-6 1.511-.755 10.5 3.037 10.5-2l-6.5-7c-4.845-4.845-13.5-21.408-13.5-28-6.274 0-24.622-12.122-29.5-17-1.801-1.8-7.5-5.064-7.5-8h-1c-2.849 0-10-7.795-10-10h-4l-1 1c0 1.473-1.952 1-3 1l-1-1v-1h-5v1c0 1.747-.253 2-2 2l-1 1-1 1-1 1-1 1-2 1-1 1-1 1-2 1v1l-2 2-2 2c0 1.811-3.438 4-5 4 0 1.577-1.762 2-3 2 0 2.72-11.589 8-14 8 0 2.109-2.535 2-4 2 0 1.577-1.762 2-3 2 0 1.399-2 1.399-2 0h-1c0 9.072-6.172 17.843-10 25.5l-9 10.5c0 5.497 8.566 1.033 10.5 2 1.741.871-2.373 4.313 1 6 6.601 3.301 12.153 0 19.5 0Z"/><path fill="#FF64FF" id="MB" d="M230 70c0 1.473-1.952 1-3 1l-1-1v-1h3l1 1Z"/><path fill="#F0F080" id="CB" d="M245 78v1c-2.849 0-10-7.795-10-10h1c0 2.167 5.834 8 8 8l1 1ZM221 70l-2 2c1.747 0 2-.253 2-2ZM226 70l1 1-1-1ZM160 74l1 2c0-1.145.579-4-1-4v2ZM219 72l-1 1 1-1ZM218 73l-1 1 1-1Z"/><path fill="#FCFB90" id="CUL4, 5" d="m303 139-.5-19 .5 3.5c1.903 3.806.163 9.326 2 13 3.247 6.494 8.316 11.5 16 11.5 0-2.407-.906-7.311-2-9.5v-15c-5.374-10.748-9.586-22.171-15-33L296 73v2c0 1.145.579 4-1 4l-1 1-1 1-1 2-1 1v2l-1 1v1l-1 2v1c0 1.424-.362 5-2 5v1l-1 2-1 2-1 1-1 1v1c0 6.592 8.655 23.155 13.5 28l6.5 7ZM154 139c-1.579 0-1-2.855-1-4 0-3.902.34-9.181 2-12.5l-.5-3.5c-2.364 0-1.703 11.906-2.5 13.5-4.087 8.175-5.529 15.5-17 15.5l2-5.5c2.842-5.685-1.88-15.241 1-21 4.905-9.81 9.066-20.132 14-30 2.119-4.238 3.85-8.7 6-13 .465-.93.817-4.5 2-4.5l1 2v2c0 1.747.253 2 2 2l1 2 1 1v2l1 1v1l1 2v1c0 1.424.362 5 2 5v1c0 1.238.423 3 2 3v1l2 2v1c0 9.072-6.172 17.843-10 25.5l-9 10.5Z"/><path fill="#F0F080" id="CB" d="m217 74-1 1 1-1ZM216 75l-1 1 1-1ZM296 75c-1.579 0-1 2.855-1 4 1.579 0 1-2.855 1-4Z"/><path fill="#FF64FF" id="MB" d="M212 77h1v-1l-1 1Z"/><path fill="#F0F080" id="CB" d="m215 76-2 1v-1h2Z"/><path fill="#FF64FF" id="MB" d="M211 78h1v-1l-1 1Z"/><path fill="#F0F080" id="CB" d="m213 77-1 1v-1h1ZM161 78l2 2c-1.747 0-2-.253-2-2Z"/><path fill="#FF64FF" id="MB" d="M210 79h1v-1l-1 1Z"/><path fill="#F0F080" id="CB" d="m212 78-1 1v-1h1Z"/><path fill="#FF64FF" id="MB" d="M245 79h1l-1-1v1Z"/><path fill="#F0F080" id="CB" d="m211 79-2 1 1-1h1ZM283 103v1c-6.274 0-24.622-12.122-29.5-17-1.801-1.8-7.5-5.064-7.5-8h1l7 7.5c3.637 3.637 24.561 16.5 29 16.5ZM295 79l-1 1 1-1Z"/><path fill="#FF64FF" id="MB" d="M208 81h1v-1l-1 1Z"/><path fill="#F0F080" id="CB" d="m294 80-1 1 1-1Z"/><path fill="#FF64FF" id="MB" d="M205 83h2v-2l-2 2Z"/><path fill="#F0F080" id="CB" d="m209 81-2 2v-2h2ZM164 82l1 1-1-1Z"/><path fill="#FCFC90" id="ANcr1" d="M93 162c0 1.579-2.855 1-4 1 0-1.06-18.528-9.556-22-16.5C56.616 125.732 80.117 83 102 83c0 17.949-1.434 36.632 6 51.5 1.298 2.595 5.033 13.5 9 13.5l-2 2.5c-5.131 10.263-22.008 7.985-26 0l-2.5-7.5c-1.635 0 .358 5.216.5 5.5.912 1.824 6 12.85 6 13.5Z"/><path fill="#F0F080" id="CB" d="m207 83-2 2v-2h2ZM292 83l-1 1 1-1Z"/><path fill="#FCFC90" id="ANcr1" fill-rule="evenodd" d="M370 143c0 1.93 1.93 0 0 0m-7 19c0 1.579 2.855 1 4 1 0-2.93 7.629-4.065 9.5-5 6.322-3.161 11.088-7.677 14.5-14.5 9.266-18.532-16.891-60.5-37-60.5 0 15.034 3.571 32.358-3 45.5l-4 11c-1.617 3.235-7 5.182-7 8.5 0 12.845 22.507 11.486 27 2.5l2.5-6.5.5 3.5-4 7v5l-3 2.5Z"/><path fill="#CBC9CC" id="arb" fill-rule="evenodd" d="M125 160c0 2.62-5.064 11.629-6 13.5-1.487 2.974-.779 14.639 5.5 11.5 4.279-2.14 13.098-25 .5-25m5 29c-4.789 0-6.198 6-9 6l1-6c0-5.03-8.71-5.895-12.5-4-10.848 5.424-25.551 9.551-34.5 18.5-2.642 2.642-8 7.885-8 11.5 0 2.374-1.076 13.348-3 9.5-1.354-2.708-1.325-6.351 0-9 1.757-3.514 1.184-8.369 3-12 2.64-5.282 23.651-18.576 29.5-21.5 3.167-1.584 12.5.178 12.5-5 5.745 0-.172-12-6-12 0-1.786-8.479-3-10-3 0-.65-5.088-11.676-6-13.5-.142-.284-2.135-5.5-.5-5.5l2.5 7.5c3.992 7.985 20.869 10.263 26 0l2-2.5c0-2.627 2.755-9.011 4-11.5v-10c3.357-6.714 2.603-15.206 6-22 .292-.584 3.565-21.87 5-19 1.339 2.679.105 10.79-1 13v5c-3.381 6.762-2.637 15.274-6 22v7c-.918 1.837-2.154 7.692-1 10 2.058 4.117 5.964 5.5 11 5.5 11.471 0 12.913-7.325 17-15.5.797-1.594.136-13.5 2.5-13.5l.5 3.5c-1.66 3.319-2 8.598-2 12.5 0 1.145-.579 4 1 4 0 5.497 8.566 1.033 10.5 2 1.741.871-2.373 4.313 1 6 6.601 3.301 12.153 0 19.5 0 4.025 0 10 5.911 10 10l-1 1h-1l-1-1v-1c0-2.715-1.657-3-4-3 0-6.009-16-2.02-16 2-2.077 0-13 6.611-13 9l-10 8c-2.248 0-5.932-4.284-8.5-3-7.34 3.67-9.5 10.791-9.5 19l-1 1Z"/><path fill="#F0F080" id="CB" d="m165 85 1 1-1-1ZM205 85c-1.562 0-5 2.189-5 4 1.562 0 5-2.189 5-4ZM291 86l-1 1 1-1Z"/><path fill="#CBC9CC" id="arb" fill-rule="evenodd" d="m328 160-3 2.5c-.901 1.803 0 4.317 0 5.5 0 2.483 2 4.026 2 6 0 6.719 6.866 16.768 12 6.5 1.596-3.193-2.849-6.697-4-9-1.41-2.819-.547-7.094-2-10-.64-1.28-3.6-1.5-5-1.5m8 37h1c0-2.526-2-5.577-2-9 0-3.987 8.787-4.357 11.5-3 11.565 5.783 26.887 9.887 36.5 19.5 4.777 4.777 4.336 9.673 7 15 .304.608 1.174 7.651 2 6 1.648-3.297 1.65-9.699 0-13l-1-6c-5.325-10.651-15.967-14.734-25.5-19.5l-4-4c-2.551-1.276-14.5-1.961-14.5-6-5.753 0 .931-12 6-12 2.84 0 6.715-3 10-3l3-2.5v-5l4-7-.5-3.5-2.5 6.5c-4.493 8.986-27 10.345-27-2.5-1.963 0-4-10.369-4-12.5 0-10.223-3.691-28.382-8-37L325.5 86l-.5 15.5c2.67 5.341 10.141 35.718 7 42-2.034 4.069-7.102 4.5-11 4.5-7.684 0-12.753-5.006-16-11.5-1.837-3.674-.097-9.194-2-13l-.5-3.5.5 19c0 5.037-8.989 1.245-10.5 2-1.325.663 1.607 4.696-1 6-6.893 3.446-12.825 0-20.5 0-3.358 0-10 6.635-10 10l2 1 1-1 1-1c0-2.041.959-3 3-3 0-6.009 16-2.02 16 2 2.89 0 13 5.923 13 9l10 8c2.498 0 6.783-4.358 9.5-3 7.377 3.688 8.5 11.133 8.5 18l1 2c6.09 0 9.095 8 10 8Z"/><path fill="#F0F080" id="CB" d="m166 87 1 2-1-2ZM290 88l-1 2 1-2ZM200 89c-1.238 0-3 .423-3 2 1.238 0 3-.423 3-2ZM167 90c1.638 0 2 3.576 2 5-1.638 0-2-3.576-2-5ZM197 91c-2.343 0-14 5.327-14 8 2.411 0 14-5.28 14-8ZM289 91c-1.638 0-2 3.576-2 5 1.638 0 2-3.576 2-5ZM169 96l2 3c-1.577 0-2-1.762-2-3ZM287 97l-1 2 1-2ZM183 99l-4 2c1.465 0 4 .109 4-2ZM286 99l-1 2 1-2ZM171 100l2 2-2-2ZM179 101c-1.238 0-3 .423-3 2 1.238 0 3-.423 3-2ZM285 101l-1 1 1-1ZM284 102l-1 1 1-1ZM174 103h2c0 1.399-2 1.399-2 0Z"/><path fill="#FDFA91" id="CENT2" fill-rule="evenodd" d="M188 135c0 2.159-4 .061-4 1.5l3.5.5c4.175 2.087 9.767 1.384 13 3 12.42 6.21 37.529 7.236 50 1 5.308-2.654 12.523-1.261 18-4l4.5-.5-9.5-1.5c-4.941 0-21.588 3.794-26 6-9.972 4.986-37.242-6-49.5-6m22 30c0-1.725 6.052-1 7.5-1h22c1.363 0 6.5-.7 6.5 1 4.693 0 8.742-5 13-5l2-3c0-3.365 6.642-10 10-10 0-3.161 7.057-9.385 4-15.5-2.471-4.942-11.4-5.45-15.5-7.5-18.545-9.273-42.071-10.465-61-1-3.742 1.871-14.455 3.411-16.5 7.5-4.123 8.246 3 11.01 3 16.5 4.025 0 10 5.911 10 10l2 2c3.816 0 8.607 6 13 6Z"/><path fill="#CBC9CC" id="arb" d="M188 135c0 2.159-4 .061-4 1.5l3.5.5c4.175 2.087 9.767 1.384 13 3 12.42 6.21 37.529 7.236 50 1 5.308-2.654 12.523-1.261 18-4l4.5-.5-9.5-1.5c-4.941 0-21.588 3.794-26 6-9.972 4.986-37.242-6-49.5-6ZM370 143c0 1.93 1.93 0 0 0Z"/><path fill="#F0F080" id="CB" d="M188 153c-1.606 0-4.339-2.081-6.5-1l-9.5 3c0-4.02 16-8.009 16-2ZM268 153c1.804 0 5.136-2.182 7.5-1 1.647.823 6.902 3 8.5 3 0-4.02-16-8.009-16-2Z"/><path fill="#CBC9C8" id="uf" d="M164 164c-1.048 0-3-.473-3 1l-2-1c0-2.389 10.923-9 13-9l9.5-3c2.161-1.081 4.894 1 6.5 1 2.343 0 4 .285 4 3h-1c-2.55 0-18 .687-18 5h-2l-2 1h-1l-1 1-3 1ZM293 164c1.137 0 4 2.091 4 0 0-3.077-10.11-9-13-9-1.598 0-6.853-2.177-8.5-3-2.364-1.182-5.696 1-7.5 1-2.041 0-3 .959-3 3l6.5-1 13.5 6 2 1h1l1 1h2l1 1h1Z"/><path fill="#FFAD6D" id="PB" d="m176 168 2 2c9.174 0 15 .65 15-12l-1-1-1-1c-2.55 0-18 .687-18 5 4.013 0 9.705-4.898 13.5-3 7.795 3.897-6.83 7-9.5 7l-1 3ZM277 171h1l1-1 2-2-2-3c-3.299 0-15.872-3.314-8.5-7 4.049-2.025 10.325 4 14.5 4v-1l-13.5-6-6.5 1-1 1-1 1v1c0 5.362 4.352 12 10 12h4Z"/><path fill="#FF9B88" id="P" d="M192 156v1l-1-1h1Z"/><path fill="#F0F080" id="CB" d="M197 159v2l-3-3 1-1 2 2ZM259 160l1 1c1.481 0 .785-2 3-2v-1l-2-1-2 3Z"/><path fill="#FF9B88" id="P" d="m264 157-1 1 1-1Z"/><path fill="#CBC9CB" id="scp" d="m157 172 2 1 7-3 1-1h1l2-1c0-1.473 1.952-1 3-1l4-2c2.67 0 17.295-3.103 9.5-7-3.795-1.898-9.487 3-13.5 3l-2 1h-3l-1 1-3 1c0 1.473-1.952 1-3 1 0 1.843-4 2.567-4 7Z"/><path fill="#FF9B88" id="P" d="M179 172c7.302 0 13.503 2.001 19.5 5l6.5 5-6-7.5.5-5.5 3.5 1c0-2.165-6-4.568-6-9l-3-3h-1c0 12.65-5.826 12-15 12v1l1 1Z"/><path fill="#CBC9CB" id="scp" d="m299 172-1 1c-2.483 0-4.026-2-6-2l-1-1h-1l-1-1h-1l-4-2c0-1.014-3.959-2-5-2-3.299 0-15.872-3.314-8.5-7 4.049-2.025 10.325 4 14.5 4h3l1 1h2l1 1h1c0 1.956 6 1.416 6 8Z"/><path fill="#AAA9A7" id="V4" d="M226 203h4c1.473 0 1-1.952 1-3 0-7.857-2.345-20.577 6.5-25l9-2 7.5-3c0-3.311 6-4.81 6-9l-1-1c-4.258 0-8.307 5-13 5-2.654 0-5.275.888-7.5 2-6.133 3.066-22.573-2-28.5-2-4.393 0-9.184-6-13-6v2c0 4.432 6 6.835 6 9l6.5 3c2.553 1.276 6.384.692 9 2 7.17 3.585 7.5 13.082 7.5 20v8Z"/><path fill="#FF9B88" id="P" d="M273 171c0 1.646-9.897 3.199-11.5 4l-8.5 6c0-4.066 11.478-11 1-11 0-3.311 6-4.81 6-9 1.481 0 .785-2 3-2 0 5.362 4.352 12 10 12Z"/><path fill="#FFFDBB" id="DN" d="M125 160c0 2.62-5.064 11.629-6 13.5-1.487 2.974-.779 14.639 5.5 11.5 4.279-2.14 13.098-25 .5-25ZM328 160l-3 2.5c-.901 1.803 0 4.317 0 5.5 0 2.483 2 4.026 2 6 0 6.719 6.866 16.768 12 6.5 1.596-3.193-2.849-6.697-4-9-1.41-2.819-.547-7.094-2-10-.64-1.28-3.6-1.5-5-1.5Z"/><path fill="#F0F080" id="CB" d="M169 162h2v-1l-2 1Z"/><path fill="#FFAD6D" id="PB" d="m173 161-2 1v-1h2Z"/><path fill="#F0F080" id="CB" d="M285 162h2l-2-1v1Z"/><path fill="#FFFC8D" id="PFL" d="M122 189c-6.488 0-6.019 4.759-12.5 8-8.245 4.122-15.851 9.926-24 14-3.191 1.596-6.323 8.855-4.5 12.5 2.49 4.98 5.478 9.955 8 15l4 2.5c-2.485 0-3.169 7.838-4 9.5-2.694 5.388-10.074 8.287-14.5 10.5-6.39 3.195-18.769-4.037-21.5-9.5l-6-10c-2.958-5.917-5.327-33.345-2-40 4.658-9.315 12.443-17.971 21.5-22.5 2.67-1.335 11.009-.518 12.5-3.5l1-7c1.406-2.811 9-3.741 9-5.5 1.145 0 4 .579 4-1 1.521 0 10 1.214 10 3 0 4.839 6 8.068 6 12 0 5.178-9.333 3.416-12.5 5-5.849 2.924-26.86 16.218-29.5 21.5-1.816 3.631-1.243 8.486-3 12-1.325 2.649-1.354 6.292 0 9 1.924 3.848 3-7.126 3-9.5 0-3.615 5.358-8.858 8-11.5 8.949-8.949 23.652-13.076 34.5-18.5 3.79-1.895 12.5-1.03 12.5 4Z"/><path fill="#F0F080" id="CB" d="m168 162-1 1 1-1ZM288 162l1 1-1-1Z"/><path fill="#FFFC8D" id="PFL" d="M335 188c4.949 0 6.426 5.963 10.5 8 7.112 3.556 34.773 17.954 29.5 28.5l-6 12-5 4.5c.562 0 4.317 10.135 5 11.5 2.044 4.088 9.06 6.28 13.5 8.5 7.186 3.593 15.655-4.655 20-9 7.718-7.718 15.216-37.068 9.5-48.5-3.116-6.233-7.967-16.734-15.5-20.5-2.472-1.236-18.963-7.427-19.5-8.5v-5c-1.28-2.559-10-5.695-10-6.5-1.145 0-4 .579-4-1-3.285 0-7.16 3-10 3 0 2.636-4.482 12-6 12 0 4.039 11.949 4.724 14.5 6l4 4c9.533 4.766 20.175 8.849 25.5 19.5l1 6c1.65 3.301 1.648 9.703 0 13-.826 1.651-1.696-5.392-2-6-2.664-5.327-2.223-10.223-7-15-9.613-9.613-24.935-13.717-36.5-19.5-2.713-1.357-11.5-.987-11.5 3Z"/><path fill="#F0F080" id="CB" d="m291 163 1 1-1-1ZM157 172c-2.377 0-6.054 3-8 3v-3l10-8 2 1c0 1.843-4 2.567-4 7ZM164 164c-1.048 0-3-.473-3 1 1.048 0 3 .473 3-1Z"/><path fill="#FEFA91" id="LING" d="M210 165c5.927 0 22.367 5.066 28.5 2 2.225-1.112 4.846-2 7.5-2 0-1.7-5.137-1-6.5-1h-22c-1.448 0-7.5-.725-7.5 1Z"/><path fill="#F0F080" id="CB" d="M307 172v3c-2.196 0-5.252-3-8-3 0-6.584-6-6.044-6-8 1.137 0 4 2.091 4 0l10 8Z"/><path fill="#FFF990" id="COPY" d="M103 165c5.828 0 11.745 12 6 12 0-3.932-6-7.161-6-12Z"/><path fill="#FF9B88" id="P" d="M174 168h2l1-3-4 2 1 1ZM283 167h1c0-1.014-3.959-2-5-2l2 3 2-1Z"/><path fill="#FFF990" id="COPY" d="M353 165c-5.069 0-11.753 12-6 12 1.518 0 6-9.364 6-12Z"/><path fill="#FF9BCD" id="MY" d="M170 168h4l-1-1c-1.048 0-3-.473-3 1Z"/><path fill="#FDB3D6" id="SUV" d="m290 184 2 1c3.122 0 11 3.601 11-3l1-1c0-3.776-1.615-8-6-8-2.483 0-4.026-2-6-2l-1-1h-1l-1-1h-1c-1.041 0-5-.986-5-2l-2 1-2 2v2l11 12Z"/><path fill="#FF9BCD" id="MY" d="m284 167 4 2c-1.041 0-5-.986-5-2h1ZM170 168l-2 1 2-1Z"/><path fill="#FDB3D6" id="SUV" d="m167 184-3 1c-2.344 0-11 3.186-11-3 0-4.434.579-9 6-9l7-3 1-1h1l2-1h6l2 2v1l-1 2-1 1-9 10Z"/><path fill="#C9C9C8" id="icp" d="M132 192v2c2.42 0-.523 13 3.5 13l9.5-16 1-2 1-1v-2l1-1v-1l1-1v-11c-2.248 0-5.932-4.284-8.5-3-7.34 3.67-9.5 10.791-9.5 19v2l1 2Z"/><path fill="#FF9BCD" id="MY" d="m167 169-1 1 1-1Z"/><path fill="#FFBA84" id="PCG" fill-rule="evenodd" d="m213 193-1 3.5c7.042 14.084 17.386-3.5 1-3.5m1 12h3c4.237 0 6.094-.688 8-4.5.619-1.238-1.144-5.5 1-5.5 0-6.918-.33-16.415-7.5-20-2.616-1.308-6.447-.724-9-2l-6.5-3-3.5-1-.5 5.5 6 7.5 3 10c.486 0 5 11.821 5 13h1ZM240 193c0 .835-5.136 3.772-6 5.5-.853 1.707 2.143 4.178 3.5 3.5 3.554-1.777 12.28-9 2.5-9m-1-7c0 1.93 1.93 0 0 0m0 19h4c0-1.654 3.155-6.811 4-8.5.523-1.046-.951-3.5 1-3.5l3-10 1-1 1-1c0-4.066 11.478-11 1-11l-7.5 3-9 2c-8.845 4.423-6.5 17.143-6.5 25 .654 0 2.358 5 8 5Z"/><path fill="#FF9BCD" id="MY" d="m289 169 1 1-1-1Z"/><path fill="#C9C9C8" id="icp" d="M311 191c1.771 0 7.051 10.603 8 12.5.383.765.905 4.298 2.5 3.5 2.635-1.318 1.331-16 3.5-16v-4c0-6.867-1.123-14.312-8.5-18-2.717-1.358-7.002 3-9.5 3v3l1 8v1l1 1v2c1.577 0 2 1.762 2 3v1Z"/><path fill="#FF9B88" id="P" d="M278 171h1v-1l-1 1Z"/><path fill="#FF9BCD" id="MY" d="m291 170 1 1-1-1ZM179 172l-2 1 1-2 1 1Z"/><path fill="#FFB0D7" id="MV" d="M275 209h20.5l2.5-2c0-7.346-7-12.766-7-21l-1-2-11-12h-2c-1.048 0-3 .473-3-1h-1c0 1.646-9.897 3.199-11.5 4l-8.5 6-1 1-1 1-3 10 1 6 3 2c2.25 0 3.376 2 5 2l9.5 6h8.5Z"/><path fill="#FF9B88" id="P" d="M277 171v1c-1.048 0-3 .473-3-1h3Z"/><path fill="#FF9BCD" id="MY" d="M277 172h2v-1h-2v1ZM153 182c-1.674 0-2.326 1-4 1v-8c1.946 0 5.623-3 8-3l2 1c-5.421 0-6 4.566-6 9Z"/><path fill="#FFB0D7" id="MV" d="M171 209h11c8.163 0 12.579-5 17-5 0-1.077 3.762-3 5-3l3-2c0-1.819 1-4.591 1-7l-3-10-6.5-5c-5.997-2.999-12.198-5-19.5-5l-2 1-1 1-9 10-2 2c0 8.585-6 13.185-6 21 0 2.983 9.707 2 12 2Z"/><path fill="#FF9BCD" id="MY" d="m304 181 4 2-1-8c-2.196 0-5.252-3-8-3l-1 1c4.385 0 6 4.224 6 8ZM177 173l-1 1 1-1Z"/><path fill="#FEB3D7" id="LAV" d="m155 206 4 1c0-7.815 6-12.415 6-21l-1-1c-2.344 0-11 3.186-11-3-1.674 0-2.326 1-4 1l-1 1v1l-1 1v2l-1 1-1 2c0 1.406-.714 7 1 7 5.042 0 9 2.653 9 8Z"/><path fill="#FF9B88" id="P" d="m253 181-1 1 1-1Z"/><path fill="#FF9BCD" id="MY" d="m304 181-1 1 1-1Z"/><path fill="#FEB3D7" id="LAV" d="M298 207h3c0-4.85 4.15-9 9-9 3.14 0 1-5.011 1-7v-1l-2-3v-2l-1-1v-1l-4-2-1 1c0 6.601-7.878 3-11 3l-1 1c0 8.234 7 13.654 7 21Z"/><path fill="#FF9B88" id="P" d="m252 182-1 1 1-1Z"/><path fill="#FF9BCD" id="MY" d="m149 183-1 1 1-1ZM164 185l1 1 2-2-3 1ZM292 185l-1 1-1-2 2 1ZM308 184l1 1-1-1ZM148 185l-1 1 1-1Z"/><path fill="#FFB984" id="PDTg" d="M239 186c0 1.93 1.93 0 0 0Z"/><path fill="#FF9BCD" id="MY" d="M309 187c1.577 0 2 1.762 2 3l-2-3Z"/><path fill="#F0F080" id="CB" d="m326 189-1 1v-3l1 2Z"/><path fill="#FEF991" id="FL" d="M104 233c0 4.711-7.107 8-11 8l-4-2.5c-2.522-5.045-5.51-10.02-8-15-1.823-3.645 1.309-10.904 4.5-12.5 8.149-4.074 15.755-9.878 24-14 6.481-3.241 6.012-8 12.5-8l-1 6-1 2-1 2-5 6-1 2c-1.747 0-2 .253-2 2-3.049 0-8 8.079-8 10.5 0 1.278-.665 5.5 1 5.5v8Z"/><path fill="#F0F080" id="CB" d="m130 189 1 1v-2l-1 1Z"/><path fill="#FF9BCD" id="MY" d="m147 188-1 1 1-1Z"/><path fill="#FEF991" id="FL" d="M353 233c0 5.614 6.263 8 11 8l5-4.5 6-12c5.273-10.546-22.388-24.944-29.5-28.5-4.074-2.037-5.551-8-10.5-8 0 3.423 2 6.474 2 9l5 7 1 1v1l10 10.5c.47.939 2.082 6.5 0 6.5 0 1.145.579 4-1 4v5l1 1Z"/><path fill="#FEA5D1" id="DCO" d="M132 206c-8.79 0-9.063 18-17 18 0-4.84-2.455-11.59 0-16.5l4-8.5 1-2 1-2c2.802 0 4.211-6 9-6l1 1 1 2v14Z"/><path fill="#FF9BCD" id="MY" d="m146 189-1 2 1-2Z"/><path fill="#FEA5D1" id="DCO" d="M325 207c8.625 0 8.849 17 16 17 0-3.378 2.904-10.693 1-14.5l-6-12.5c-.905 0-3.91-8-10-8l-1 1v17Z"/><path fill="#FF9BCD" id="MY" d="m131 190 1 2-1-2ZM132 206l2 5.5-1 6.5 8-11.5v-4c.808-1.615 5-3.932 5-4.5-1.714 0-1-5.594-1-7l-9.5 16c-4.023 0-1.08-13-3.5-13v12ZM325 207c-3.163 0-2 7.871-2 10l-8-10.5v-5l-5-3.5c3.14 0 1-5.011 1-7 1.771 0 7.051 10.603 8 12.5.383.765.905 4.298 2.5 3.5 2.635-1.318 1.331-16 3.5-16v16Z"/><path fill="#FF9B88" id="P" d="M210 205h3c0-1.179-4.514-13-5-13 0 2.409-1 5.181-1 7v3l2 2 1 1Z"/><path fill="#FFB986" id="SG" d="m213 193-1 3.5c7.042 14.084 17.386-3.5 1-3.5ZM240 193c0 .835-5.136 3.772-6 5.5-.853 1.707 2.143 4.178 3.5 3.5 3.554-1.777 12.28-9 2.5-9Z"/><path fill="#FF9B88" id="P" d="M244 205h2l1-1 2-2v-3l-1-6c-1.951 0-.477 2.454-1 3.5-.845 1.689-4 6.846-4 8.5h1Z"/><path fill="#CBC9CC" id="arb" d="m121 195-1 2 1-2Z"/><path fill="#FF9B88" id="P" d="m217 205 1 1c2.789 0 8 .183 8-3v-8c-2.144 0-.381 4.262-1 5.5-1.906 3.812-3.763 4.5-8 4.5Z"/><path fill="#A9AAA7" id="V4r" d="m120 197-1 2 1-2ZM341 224l4 4c0-1.087-4.36-16.57-1.5-18l2.5 1c0-1.947-3-2.636-3-5v-1l-1-1-5-7h-1l6 12.5c1.904 3.807-1 11.122-1 14.5Z"/><path fill="#C9CACB" id="vVIIIn" d="M133 235v2l-2-2v-6c1.473 0 1-1.952 1-3v-3c1.473 0 1-1.952 1-3v-2l8-11.5v-4c.808-1.615 5-3.932 5-4.5 5.042 0 9 2.653 9 8 0 4.947-2.409 5-7 5-9.064 0-14 15.669-14 23l-1 1ZM325 233c0 2.177.641 4-2 4v-4l-1-1c0-6.764-5.03-21-13-21-3.29 0-8 .534-8-4 0-4.85 4.15-9 9-9l5 3.5v5l8 10.5v1l1 2v2c0 1.048-.473 3 1 3v8Z"/><path fill="#A9AAA7" id="V4r" d="m115 224-2 2c0-3.32 1.501-16-2-16v-1c1.747 0 2-.253 2-2l1-2 5-6-4 8.5c-2.455 4.91 0 11.66 0 16.5Z"/><path fill="#FF9BCD" id="MY" d="m204 201 3 1v-3l-3 2ZM252 201l-3 1v-3l3 2Z"/><path fill="#FF9B88" id="P" d="M239 205v1c-2.345 0-9 .421-9-3 1.473 0 1-1.952 1-3 .654 0 2.358 5 8 5Z"/><path fill="#C9CCC7" id="gVIIn" d="m213 206-7 4c-3.419 0-7-2.285-7-6 0-1.077 3.762-3 5-3l3 1 2 2 1 1h3v1ZM244 206l7 4c4.122 0 6-3.19 6-7-1.624 0-2.75-2-5-2l-3 1-2 2-1 1h-2v1Z"/><path fill="#FF9BCD" id="MY" d="M227 217h3v-8.5c.589-1.179 4.184-2.632 5-1 .002.003-3 5.369-3 7.5l2.5-2c3.786-1.893 13.01 1.505 16 3 1.319.659 5.5-.334 5.5 2l3.5-3 9.5-1c0-2.941 6-3.629 6-5h-8.5l-9.5-6c0 3.81-1.878 7-6 7 0 4.763-12 4.763-12-4-2.345 0-9 .421-9-3h-4c0 3.183-5.211 3-8 3 0 3.333-3 4.487-3 7 4.713 0 9.865 3 10 3l-1-5.5-3-3h5c1.372 2.745 1 6.19 1 9.5ZM211 214c0 2.064-3.353.426-4.5 1l-6.5 3c0-3.335-10.579-4-13-4 0-3.448-5-2.91-5-5 8.163 0 12.579-5 17-5 0 3.715 3.581 6 7 6 0 3.894 5 2.073 5 4ZM209 204l1 1-1-1ZM247 204l-1 1 1-1Z"/><path fill="#CBC9CC" id="arb" d="m342 204 1 1-1-1ZM114 205l-1 2 1-2Z"/><path fill="#FF9BCD" id="MY" d="m214 205-1 1v-1h1Z"/><path fill="#FDB1D9" id="VI" d="M211 214h1l2-1h1c0-2.513 3-3.667 3-7l-1-1h-3l-1 1-7 4c0 3.894 5 2.073 5 4ZM244 206l7 4c0 4.763-12 4.763-12-4v-1h4l1 1Z"/><path fill="#FF9BCD" id="MY" d="M244 205v1l-1-1h1Z"/><path fill="#FEA4D2" id="VCO" d="M121 253v2c2.509 0 2.553 5.973 6.5 4 4.346-2.173 3.5-19.469 3.5-24v-6c0-1.048-.473-3 1-3v-3c0-1.048-.473-3 1-3v-2l1-6.5-2-5.5c-8.79 0-9.063 18-17 18l-2 2-1 1v1l-1 1v5l2 2 5 11 1 1v2l1 1v1l1 1Z"/><path fill="#FF9BCD" id="MY" d="m166 215-1.5-3c-1.627-.814-6.889-2.056-9-1a18.88 18.88 0 0 0-8.5 8.5c-.557 1.114-.41 5.5-2 5.5 0-5.156 3-8.946 3-14 4.591 0 7-.053 7-5l4 1c0 2.983 9.707 2 12 2 0 1.892-5 2.306-5 6Z"/><path fill="#CBC9CC" id="arb" d="M353 221v2c2.082 0 .47-5.561 0-6.5L343 206c0 2.364 3 3.053 3 5l2 2 1 1 1 2 1 1v1l1 1v1l1 1ZM113 207c-1.747 0-2 .253-2 2 1.747 0 2-.253 2-2Z"/><path fill="#CBCBCC" id="mlf" d="M225 216c0 2.082 2 4.219 2 1 0-3.31.372-6.755-1-9.5h-5l3 3 1 5.5ZM231 216c0 2.079-1 4.177-1 1v-8.5c.589-1.179 4.184-2.632 5-1 .002.003-3 5.369-3 7.5l-1 1Z"/><path fill="#FF9BCD" id="MY" d="M291 214c0-5.95 11.573-1.963 13.5-1 2.91 1.455 4.782 10 6.5 10 0-4.475-2-7.225-2-12-3.29 0-8 .534-8-4h-3l-2.5 2H285l3 1.5 3 3.5Z"/><path fill="#FEA4D2" id="VCO" d="M335 255v1c-2.106 0-5.566 6.368-8 1.5l-1-18.5c0-1.321.684-6-1-6v-8c0-1.048.473-3-1-3v-2l-1-2v-1c0-2.129-1.163-10 2-10 8.625 0 8.849 17 16 17l4 4v5c0 4.71-8 12.151-8 18l-1 1v1l-1 2Z"/><path fill="#CBC9CC" id="arb" d="M111 210c0 2.924-7 7.892-7 15-1.665 0-1-4.222-1-5.5 0-2.421 4.951-10.5 8-10.5v1Z"/><path fill="#FCB3D9" id="PARN" d="m153 261 3 2c0-3.652 5.85-7 9-7l9-9.5c3.768-7.535 13-24.272 13-32.5 0-3.448-5-2.91-5-5h-11c0 1.892-5 2.306-5 6 0 11.694-5.277 15.055-10 24.5-2.362 4.724 1.318 12.364-1 17l-2 4.5ZM302 262l-1 1c-2.809 0-4.616-7-9-7l-9-8.5c-3.166-6.332-14-27.294-14-33.5 0-2.941 6-3.629 6-5h10l3 1.5 3 3.5c0 5.85-.415 11.671 2 16.5l7 8c.452.903 3 21.117 3 22.5l-1 1Z"/><path fill="#A9AAA8" id="chpl" d="M111 229v2l-4.5 1-2.5-4v-3c0-7.108 7-12.076 7-15 3.501 0 2 12.68 2 16l-1 1v1l-1 1ZM352 229l-2.5 3c-2.116 1.058-2.898-2-4.5-2v-2c0-1.087-4.36-16.57-1.5-18l2.5 1 2 2 1 1 1 2 1 1v1l1 1v1l1 1v2c-1.579 0-1 2.855-1 4v2Z"/><path fill="#C8CACA" id="sptV" d="M151 267c0 2.409-1 5.181-1 7-12.181 0-18-11.244-18-22.5l-1-4c1.418-2.837 2-7.169 2-10.5v-2l1-1c0-7.331 4.936-23 14-23 0 5.054-3 8.844-3 14-2.18 0-8.597 21.306-6 26.5.769 1.538-1.226 5.5 2 5.5v1c0 3.085 7.228 9 10 9Z"/><path fill="#FFA4D0" id="SPVO" d="m141 258 5.5 5c2.856 1.428 4.553-2 6.5-2l2-4.5c2.318-4.636-1.362-12.276 1-17 4.723-9.445 10-12.806 10-24.5l-1.5-3c-1.627-.814-6.889-2.056-9-1a18.88 18.88 0 0 0-8.5 8.5c-.557 1.114-.41 5.5-2 5.5 0 5.489-2.627 13.754-5 18.5-1.839 3.678 1 10.096 1 13.5v1ZM313 261l-2 2c-3.015 0-6.004-2-8-2 0-1.383-2.548-21.597-3-22.5l-7-8c-2.415-4.829-2-10.65-2-16.5 0-5.95 11.573-1.963 13.5-1 2.91 1.455 4.782 10 6.5 10v1c0 6.125 3.32 16.139 6 21.5 1.792 3.585-2 8.979-2 12.5v1l-1 1-1 1Z"/><path fill="#C8CACA" id="sptV" d="M317 271c-3.403 0-5.952 3-10 3 0-2.139-1-4.033-1-7l5-4c1.747 0 2-.253 2-2l1-1 1-1v-1c2.954 0 3-6.821 3-9l1-5.5c-2.411-4.822-3.601-10.201-6-15-.465-.93-.817-4.5-2-4.5v-1c0-4.475-2-7.225-2-12 7.97 0 13 14.236 13 21l1 1v4c0 4.798 4.834 13.832 2 19.5-.795 1.589-8 14.273-8 14.5Z"/><path fill="#FF9BCD" id="MY" d="m214 213-2 1 2-1Z"/><path fill="#FEB0D8" id="GRN" fill-rule="evenodd" d="M232 227c0 1.076-5.987 23 .5 23 2.049 0 1.5-4.337 1.5-5.5 0-3.446 1.523-17.5-2-17.5m-9 0-1 8.5v6.5c0 17.863 7.994-2.511 4-10.5-.993-1.986.084-4.5-3-4.5m30 45h1c0-6.035 5.929-1 8-1l3-6c0-4.515-2.089-9.678-4-13.5-.959-1.918-5-30.217-5-33.5 0-2.334-4.181-1.341-5.5-2-2.99-1.495-12.214-4.893-16-3l-2.5 2-1 1c0 2.079-1 4.177-1 1h-3c0 3.219-2 1.082-2-1-.135 0-5.287-3-10-3h-1l-2 1h-1c0 2.064-3.353.426-4.5 1l-6.5 3c0 15.98-8 34.652-8 48 0 1.974 2 3.517 2 6 .227 0 9-7.119 9 0l6.5-7c5.584-2.792 9.795-4 15.5-4h1c0-14.282 5-9.577 5 1l2.5-2c3.677 0 19.5 7.289 19.5 12Z"/><path fill="#A9AAA7" id="V4r" d="m348 213 1 1-1-1Z"/><path fill="#FFB2D8" id="IRN" d="M165 256c6.266 0 14.199 1.35 19.5 4 2.61 1.305 4.814 6 7.5 6 0-13.348 8-32.02 8-48 0-3.335-10.579-4-13-4 0 8.228-9.232 24.965-13 32.5l-9 9.5ZM292 256c-5.554 0-13.769.635-18.5 3-2.937 1.469-5.783 6-8.5 6 0-4.515-2.089-9.678-4-13.5-.959-1.918-5-30.217-5-33.5l3.5-3 9.5-1c0 6.206 10.834 27.168 14 33.5l9 8.5Z"/><path fill="#FF9BCD" id="MY" d="m232 215-1 1 1-1Z"/><path fill="#A9AAA7" id="V4r" d="m350 216 1 1-1-1Z"/><path fill="#FF9BCD" id="MY" d="m323 218 1 2-1-2Z"/><path fill="#A9AAA7" id="V4r" d="m351 218 1 1-1-1Z"/><path fill="#FF9BCD" id="MY" d="M133 220c-1.473 0-1 1.952-1 3 1.473 0 1-1.952 1-3Z"/><path fill="#A9AAA7" id="V4r" d="m352 220 1 1-1-1Z"/><path fill="#FF9BCD" id="MY" d="M324 222c1.473 0 1 1.952 1 3-1.473 0-1-1.952-1-3Z"/><path fill="#A9AAA7" id="V4r" d="M353 223c-1.579 0-1 2.855-1 4 1.579 0 1-2.855 1-4Z"/><path fill="#FF9BCD" id="MY" d="M311 224c1.183 0 1.535 3.57 2 4.5 2.399 4.799 3.589 10.178 6 15l-1 5.5c0 2.179-.046 9-3 9 0-3.521 3.792-8.915 2-12.5-2.68-5.361-6-15.375-6-21.5ZM145 225c-2.18 0-8.597 21.306-6 26.5.769 1.538-1.226 5.5 2 5.5 0-3.404-2.839-9.822-1-13.5 2.373-4.746 5-13.011 5-18.5Z"/><path fill="#A9AAA7" id="V4r" d="m113 226-1 1 1-1Z"/><path fill="#FF9BCD" id="MY" d="M132 226c-1.473 0-1 1.952-1 3 1.473 0 1-1.952 1-3Z"/><path fill="#C8C8CC" id="tspc" d="m223 227-1 8.5v6.5c0 17.863 7.994-2.511 4-10.5-.993-1.986.084-4.5-3-4.5ZM232 227c0 1.076-5.987 23 .5 23 2.049 0 1.5-4.337 1.5-5.5 0-3.446 1.523-17.5-2-17.5Z"/><path fill="#A9AAA7" id="V4r" d="M111 232c-1.819 0-4.591 1-7 1v-5l2.5 4 4.5-1v1ZM112 228l-1 1 1-1ZM346 233h6v-4l-2.5 3c-2.116 1.058-2.898-2-4.5-2v1l1 2Z"/><path fill="#FF9BCD" id="MY" d="M345 233h1l-1-2v2ZM322 232l1 1-1-1Z"/><path fill="#F0F080" id="CB" d="M352 233h1l-1-1v1Z"/><path fill="#FF9BCD" id="MY" d="M335 256c0 2.485-15.209 15-18 15 0-.227 7.205-12.911 8-14.5 2.834-5.668-2-14.702-2-19.5 2.641 0 2-1.823 2-4 1.684 0 1 4.679 1 6l1 18.5c2.434 4.868 5.894-1.5 8-1.5ZM111 234l2 2-2-2ZM134 234l-1 1 1-1ZM151 276c0 4.008 5 4.412 5 7l-9.5-7c-5.479-2.739-25.5-15.594-25.5-21 2.509 0 2.553 5.973 6.5 4 4.346-2.173 3.5-19.469 3.5-24l2 2c0 3.331-.582 7.663-2 10.5l1 4c0 11.256 5.819 22.5 18 22.5l1 2ZM118 247l1 1-1-1ZM119 250l1 1-1-1Z"/><path fill="#FFC5E2" id="RM" d="m230 279-3 1-1-1v-18c0-14.282 5-9.577 5 1v3c-1.763 0-1 8.343-1 10v4Z"/><path fill="#FF9BCD" id="MY" d="m337 251-1 1 1-1ZM120 252l1 1-1-1ZM336 253l-1 2 1-2Z"/><path fill="#FFB3D6" id="VII" d="M171 286c7.395 0 13.172 1 20 1l3-7v-8c0-2.483-2-4.026-2-6-2.686 0-4.89-4.695-7.5-6-5.301-2.65-13.234-4-19.5-4-3.15 0-9 3.348-9 7l-1 1-1 4-1 1c0 5.173.749 9.624 5.5 12 1.475.737 7.5 1.705 7.5 4h1l2 1h2ZM285 286h3l1-1h1l11-6.5c3.913-7.825 0-8.724 0-15.5-2.809 0-4.616-7-9-7-5.554 0-13.769.635-18.5 3-2.937 1.469-5.783 6-8.5 6l-3 6v9l3 6c2.395 0 5.263 3.619 8.5 2 3.749-1.874 6.916-2 11.5-2Z"/><path fill="#FF9BCD" id="MY" d="M155 264c0-2.97-4 1.676-4 3-2.772 0-10-5.915-10-9l5.5 5c2.856 1.428 4.553-2 6.5-2l3 2-1 1ZM315 259l-1 1 1-1Z"/><path fill="#FDB2D9" id="MARN" d="M201 278c0 2.424 2 2.76 2 4 6.249 0 11.689-6 17-6l1-1 1-1 3-3.5V261c-5.705 0-9.916 1.208-15.5 4l-6.5 7v1l-1 1-1 2v2ZM255 278l-1 4c-9.34 0-23-6.323-23-17v-3l2.5-2c3.677 0 19.5 7.289 19.5 12l1 1 1 3v2Z"/><path fill="#FF9BCD" id="MY" d="m314 260-1 1 1-1ZM222 274l4 1v-14h-1v9.5l-3 3.5ZM311 263l-5 4-4-5 1-1c1.996 0 4.985 2 8 2ZM313 261l-2 2c1.747 0 2-.253 2-2Z"/><path fill="#C8C8CB" id="rust" d="M304 277c-1.142 0-8.087 8-14 8l11-6.5c3.913-7.825 0-8.724 0-15.5l1-1 4 5c0 2.967 1 4.861 1 7-1.539 0-3 1.342-3 3ZM151 276c3.136 0 8.143 9 15 9 0-2.295-6.025-3.263-7.5-4-4.751-2.376-5.5-6.827-5.5-12l1-1 1-4c0-2.97-4 1.676-4 3 0 2.409-1 5.181-1 7l1 2Z"/><path fill="#FF9BCD" id="MY" d="M287 288c0 1.715-9.962 1.231-11.5 2-8.403 4.201-21.545 5-31.5 5 0-1.745 6.062-.624 7-2.5 3.017-6.034-15.811-9.5-20-9.5v-1c9.705 0 7.662-7-1-7 0-1.657-.763-10 1-10 0 10.677 13.66 17 23 17 0 5.074 11 9.916 11 4 2.395 0 5.263 3.619 8.5 2 3.749-1.874 6.916-2 11.5-2 0 2.159-4 .061-4 1.5l6 .5ZM154 268l-1 1 1-1Z"/><path fill="#FCB2D9" id="PGRNl" d="M194 279h1l5-2 1-1 1-2 1-1v-1c0-7.119-8.773 0-9 0v7ZM261 279h1v-8c-2.071 0-8-5.035-8 1v1l1 3 2 1 4 2Z"/><path fill="#FF9BCD" id="MY" d="m304 277 1 2c1.919 0 12-5.772 12-8-3.403 0-5.952 3-10 3-1.539 0-3 1.342-3 3ZM254 272v1l-1-1h1ZM203 273l-1 1 1-1ZM222 274l-1 1 1-1Z"/><path fill="#CACCC8" id="ml" d="m227 280-2 2c-6.33 0-5-1.458-5-6l1-1 1-1 4 1v4l1 1ZM230 279l1 3c9.705 0 7.662-7-1-7v4Z"/><path fill="#FF9BCD" id="MY" d="m221 275-1 1 1-1Z"/><path fill="#CBC7CC" id="sctv" d="M164 287h2c.68 0 9 2.152 9 .5 0-1.439-4 .659-4-1.5h-2l-2-1h-1c-6.857 0-11.864-9-15-9 0 4.008 5 4.412 5 7h1l2 2h1l4 2Z"/><path fill="#FF9BCD" id="MY" d="m200 277 1 1v-2l-1 1ZM166 287c0 3.158 8.608 1.054 10.5 2 8.228 4.114 25.524 6 35.5 6 0-1.745-6.062-.624-7-2.5-2.796-5.591 15.848-9.5 20-9.5v-1c-6.33 0-5-1.458-5-6-5.311 0-10.751 6-17 6 0 2.774-6.718 8.391-9.5 7l-2.5-2c-6.828 0-12.605-1-20-1 0 2.159 4 .061 4 1.5 0 1.652-8.32-.5-9-.5ZM257 277l-2 1v-2l2 1Z"/><path fill="#FCB2D8" id="PPY" d="M203 282c0 2.774-6.718 8.391-9.5 7l-2.5-2 3-7 1-1 5-2 1 1c0 2.424 2 2.76 2 4ZM254 282c0 5.074 11 9.916 11 4l-3-6-1-1-4-2-2 1-1 4Z"/><path fill="#CBC7CC" id="sctv" d="M291 287h1l2-1h1l1-1h1l2-1 1-1h1l1-1 1-1 2-2-1-2c-1.142 0-8.087 8-14 8h-1l-1 1h-3c0 2.159-4 .061-4 1.5l6 .5c0-1.579 2.855-1 4-1Z"/><path fill="#FF9BCD" id="MY" d="m195 279-1 1v-1h1ZM226 279l1 1-1-1Z"/><path fill="#FFC6E2" id="RPA" d="M231 286c-1.49 0-2.587 1-5 1l-1-4v-1l2-2 3-1 1 3v4Z"/><path fill="#FF9BCD" id="MY" d="M262 279v1l-1-1h1ZM305 279l-2 2c1.747 0 2-.253 2-2ZM303 281l-1 1 1-1ZM302 282l-1 1 1-1ZM157 283l2 2-2-2Z"/><path fill="#C7C9C9" id="py" d="M212 295h3c0-1.454 5.366-1.433 6.5-2l4.5-6-1-4c-4.152 0-22.796 3.909-20 9.5.938 1.876 7 .755 7 2.5ZM241 295h3c0-1.745 6.062-.624 7-2.5 3.017-6.034-15.811-9.5-20-9.5v3l3.5 7c1.134.567 6.5.546 6.5 2Z"/><path fill="#FF9BCD" id="MY" d="m300 283-1 1 1-1ZM299 284l-2 1 2-1ZM160 285l4 2-4-2ZM167 285l2 1-2-1ZM289 285l-1 1 1-1ZM296 285l-1 1 1-1ZM215 295c4.743 0 7.651-1.075 11.5-3l2-3 3 4c3.145 1.573 5.635 2 9.5 2 0-1.454-5.366-1.433-6.5-2l-3.5-7c-1.49 0-2.587 1-5 1l-4.5 6c-1.134.567-6.5.546-6.5 2ZM294 286l-2 1 2-1ZM291 287c-1.145 0-4-.579-4 1 1.145 0 4 .579 4-1Z"/></svg>