<svg xmlns="http://www.w3.org/2000/svg" viewBox="0 0 456 320"><path fill="#FEFA90" id="DEC" fill-rule="evenodd" d="M217 83c0 2.099-7.032 1.266-8.5 2-3.847 1.924-19.236 8.027-15.5 15.5l2 7c3.756 7.511 29.43 21.535 37.5 17.5 10.334-5.167 38.17-13.161 29.5-30.5-4.377-8.754-15.621-8.06-22.5-11.5H217m-27-16c0 2.808-13 3.63-13 7.5l3.5.5c3.579-1.79 6.54-4.27 10-6 .766-.383 3.5.316 3.5-1.5l-4-.5m43-6c0 4.275 7.975 0 0 0m-13 0c0 4.568 7.357 0 0 0m-49 49c0 11.387 16.444 16.972 24.5 21 17.749 8.875 48.255 8.872 66 0 6.983-3.492 23.5-9.128 23.5-20V83c0-3.516-11.877-11.189-15.5-13-1.053-.526-7.5-.581-7.5-2.5l4.5-.5c2.218 1.109 18.5 10.49 18.5 11 2.129 0 2-14.805 2-18 0-2.77-20.494-8.497-23.5-10-12.762-6.381-31.23-4-46.5-4l-17.5 1c-6.976 3.488-15.07 4.535-22 8l-8.5 5c0 4.34 1 8.695 1 12.5 0 1.19-.614 4.5 1 4.5l5.5-2c.522.261-5.5 7.448-5.5 9v26Z"/><path fill="#FDFB8F" id="SIM" d="M171 77c0 1.63-7.526 11-10 11 0-2.992-7.655-19-10-19 0-6.553 12.698-9 18-9 0 4.34 1 8.695 1 12.5 0 1.19-.614 4.5 1 4.5ZM285 78c0 1.196 8.301 9 10 9 0-5.881 10-13.928 10-18 0-6.815-12.025-9-18-9 0 3.195.129 18-2 18Z"/><path fill="#CBC9CC" id="arb" d="M220 61c0 4.568 7.357 0 0 0ZM233 61c0 4.275 7.975 0 0 0ZM190 67c0 2.808-13 3.63-13 7.5l3.5.5c3.579-1.79 6.54-4.27 10-6 .766-.383 3.5.316 3.5-1.5l-4-.5Z"/><path fill="#CBC9CC" id="arb" fill-rule="evenodd" d="M253 140c0 1.575-4.801.898-3 4.5 1.649 3.297 8.758 8.871 13.5 6.5 1.371-.686 5.689-5.656 3-7l-9-1c-1.352-.676-2.094-3-4.5-3m-51 0c0 3.371-14.415 3.669-13 6.5 6.876 13.753 25.528-6.5 13-6.5m101 41 5 5 4 .5-10-12c-4.246-8.491-21-28.278-21-36.5l-5.5 4c-8.21 0 8.5-19.013 8.5-8v1l5-1c0-2.937 12.773-3.364 15.5-2 13.438 6.719 22.783 22.891 35 29 3.078 1.539 11.304 16.892 13.5 12.5 2.677-5.354-22-21.393-22-30.5 0-2.563 19.197-8.151 23.5-6 .817.408 8.5 3.59 8.5 2.5l-6-6-1.5-5.5-7 5c-2.895 1.448-22.693 5.653-26 4-2.498-1.249-4.535-2.768-7-4-3.149-1.575-14.5-4.896-14.5-9l-4-5.5c-1.323-2.645-.643-6.286-2-9-3.332-6.665 4-15.05 4-19 0-1.203-4-.942-4-3.5-1.699 0-10-7.804-10-9 0-.51-16.282-9.891-18.5-11l-4.5.5c0 1.919 6.447 1.974 7.5 2.5 3.623 1.811 15.5 9.484 15.5 13 6.557 0 3.567 19.366 2 22.5-.659 1.319.334 5.5-2 5.5 0 10.872-16.517 16.508-23.5 20-17.745 8.872-48.251 8.875-66 0-8.056-4.028-24.5-9.613-24.5-21-2.334 0-1.341-4.181-2-5.5-1.507-3.013-4.073-20.5 2-20.5 0-1.552 6.022-8.739 5.5-9l-5.5 2c0 1.63-7.526 11-10 11l-3 2.5 3 6v16l-4 10-2 1.5c0 3.767-8.915 6.708-11.5 8-7.647 3.823-15.345 7.327-24 3h-6c-2.028-1.014-12.062-6.469-13-6l-1.5 5.5-5 5c0 1.09 7.683-2.092 8.5-2.5 4.183-2.091 23.5 3.541 23.5 6 0 9.056-13.678 14.856-17 21.5-1.233 2.466-7.717 5.567-6 9 1.891 3.783 13.29-11.29 16.5-14.5 9.411-9.411 20.266-20.633 33-27 2.872-1.436 15.5-.207 15.5 2l5 1-1-3.5c2.795-5.59 16.972 10.5 8.5 10.5l-4.5-3c0 3.445-3.568 5.636-5 8.5-4.619 9.237-13.005 19.01-18 29l-7 9c0 1.56 2.807-.5 3-.5l5-4c0-4.248 7.244-14 12-14 0-2.205 16.006-10.753 18.5-12h10c9.708-4.854 22.314-3.157 32-8 1.939-.97 6.434 1.217 8 2 6.898 3.449 18.95 1.975 27 6h11c2.924 1.462 17.5 9.765 17.5 12 4.189 0 13 9.555 13 14Z"/><path fill="#FCFC90" id="ANcr1" d="M107 92c19.324 0 20.271 18.386 29.5 23 4.261 2.131 8.827 3.913 13 6l5.5 3 2-1.5 4-10v-16l-3-6 3-2.5c0-2.992-7.655-19-10-19-11.301 0-18.383 1.942-28.5 7l-6 5c-3.204 1.602-9.5 7.166-9.5 11ZM349 92c-18.884 0-19.22 18.86-31.5 25l-8 3-8.5 4-4-5.5c-1.323-2.645-.643-6.286-2-9-3.332-6.665 4-15.05 4-19 0-1.203-4-.942-4-3.5 0-5.881 10-13.928 10-18 4.138 0 9.419-2.04 13.5 0 7.283 3.641 30.5 12.593 30.5 23Z"/><path fill="#FCFB90" id="CUL4, 5" d="M217 83c0 2.099-7.032 1.266-8.5 2-3.847 1.924-19.236 8.027-15.5 15.5l2 7c3.756 7.511 29.43 21.535 37.5 17.5 10.334-5.167 38.17-13.161 29.5-30.5-4.377-8.754-15.621-8.06-22.5-11.5H217Z"/><path fill="#FDFB8F" id="SIM" d="M285 83c6.557 0 3.567 19.366 2 22.5-.659 1.319.334 5.5-2 5.5V83ZM171 84c-6.073 0-3.507 17.487-2 20.5.659 1.319-.334 5.5 2 5.5V84Z"/><path fill="#FCFA91" id="ANcr2" d="m126 143-44 19-6.5 1c-5.948-2.974-7.236-21.028-4.5-26.5 6.84-13.681 9.437-31.469 25.5-39.5 3.536-1.768 6.265-5 10.5-5 19.324 0 20.271 18.386 29.5 23 4.261 2.131 8.827 3.913 13 6l5.5 3c0 3.767-8.915 6.708-11.5 8-7.647 3.823-15.345 7.327-24 3h-6c-2.028-1.014-12.062-6.469-13-6l-1.5 5.5-5 5c0 1.09 7.683-2.092 8.5-2.5 4.183-2.091 23.5 3.541 23.5 6ZM331 143c8.738 0 34.196 19 44 19 1.423 0 3.544 1.978 5.5 1 6.087-3.044 8.32-17.859 5.5-23.5-7.246-14.493-14.353-47.5-37-47.5-18.884 0-19.22 18.86-31.5 25l-8 3-8.5 4c0 4.104 11.351 7.425 14.5 9 2.465 1.232 4.502 2.751 7 4 3.307 1.653 23.105-2.552 26-4l7-5 1.5 5.5 6 6c0 1.09-7.683-2.092-8.5-2.5-4.303-2.151-23.5 3.437-23.5 6Z"/><path fill="#FFFB8E" id="PRM" d="M123 197c-1.824 0-9.524 5.012-11.5 6l-2.5 2c-12.766 0-24.877-23.255-30-33.5-1.993-3.986 3-6.541 3-9.5l44-19c0 9.056-13.678 14.856-17 21.5-1.233 2.466-7.717 5.567-6 9 1.891 3.783 13.29-11.29 16.5-14.5 9.411-9.411 20.266-20.633 33-27 2.872-1.436 15.5-.207 15.5 2-4.823 0-8.369 6.934-12.5 9-9.509 4.754-29.5 37.254-29.5 47-1.732 0-3 5.353-3 7Z"/><path fill="#FFFCBC" id="FN" d="m173 135 3 4 4.5 3c8.472 0-5.705-16.09-8.5-10.5l1 3.5ZM283 135l-2 3-5.5 4c-8.21 0 8.5-19.013 8.5-8l-1 1Z"/><path fill="#FFFB8E" id="PRM" d="M333 197c2.375 0 9.163 4.832 11.5 6l2.5 2c12.973 0 24.587-21.675 30-32.5 1.852-3.705-2-7.275-2-10.5-9.804 0-35.262-19-44-19 0 9.107 24.677 25.146 22 30.5-2.196 4.392-10.422-10.961-13.5-12.5-12.217-6.109-21.562-22.281-35-29-2.727-1.364-15.5-.937-15.5 2 4.839 0 10.193 8.846 14.5 11 8.022 4.011 27.5 37.886 27.5 46 1.995 0 2 4.377 2 6Z"/><path fill="#FFF990" id="COPY" fill-rule="evenodd" d="M145 186c0 1.93 1.93 0 0 0m-19 4c0 4.123 5 8.673 5 13 7.312 0 18-10.52 18-18-.193 0-3 2.06-3 .5l7-9c4.995-9.99 13.381-19.763 18-29 1.432-2.864 5-5.055 5-8.5l-3-4-5-1c-4.823 0-8.369 6.934-12.5 9-9.509 4.754-29.5 37.254-29.5 47Z"/><path fill="#FEFA90" id="DEC" d="M283 135h1v-1l-1 1Z"/><path fill="#FFF990" id="COPY" d="M331 191c-4.407 0-3.265 12-6 12-6.818 0-17-10.234-17-17l4 .5-10-12c-4.246-8.491-21-28.278-21-36.5l2-3h1l5-1c4.839 0 10.193 8.846 14.5 11 8.022 4.011 27.5 37.886 27.5 46Z"/><path fill="#FFFCBC" id="FN" d="M202 140c0 3.371-14.415 3.669-13 6.5 6.876 13.753 25.528-6.5 13-6.5ZM253 140c0 1.575-4.801.898-3 4.5 1.649 3.297 8.758 8.871 13.5 6.5 1.371-.686 5.689-5.656 3-7l-9-1c-1.352-.676-2.094-3-4.5-3Z"/><path fill="#FFFA8F" id="UVU" d="M166 167c6.167 0 11.426-1.463 16.5-4 6.833-3.417 38.968 3.016 47-1 1.35-.675 11.337 1 14 1h30c4.926 2.463 10.561 4 16.5 4 0-2.235-14.576-10.538-17.5-12h-11c-8.05-4.025-20.102-2.551-27-6-1.566-.783-6.061-2.97-8-2-9.686 4.843-22.292 3.146-32 8h-10c-2.494 1.247-18.5 9.795-18.5 12Z"/><path fill="#FDFC8F" id="NOD" d="M253 189c-1.424 0-5 .362-5 2-2.592 0-3.416.958-5.5 2h-28c-5.837-2.918-12.497-6-19.5-6h-1c0-1.341-9.28-2-11-2-9.265 0-20.666-4-29-4 0-4.248 7.244-14 12-14 6.167 0 11.426-1.463 16.5-4 6.833-3.417 38.968 3.016 47-1 1.35-.675 11.337 1 14 1h30c4.926 2.463 10.561 4 16.5 4 4.189 0 13 9.555 13 14-8.053 0-20.755 4-30 4-1.495 0-10 .84-10 2h-2c-1.775 0-8 .069-8 2Z"/><path fill="#A9AAA7" id="V4r" fill-rule="evenodd" d="M143 199c0 1.93 1.93 0 0 0m1-1c0 1.93 1.93 0 0 0m8-12c0 1.539-8.488 10.006-6.5 11 3.336 1.668 14.759-11 6.5-11m-26 37h2l1-1 1-1v-1l1-1 5-10c-1.362 0-6.851 9.797-9 5.5-3.625-7.251 12-12.662 12-9.5 3.691 0 18.547-14 21-14h1l1-1c1.974 0 3.517-2 6-2 0-1.714 5.594-1 7-1l8-1v-1c-9.265 0-20.666-4-29-4l-5 4c0 7.48-10.688 18-18 18 0 2.56-3.334 0-4 0 0 1.357-.647 6-2 6l1 14ZM317 203c0 2.784 8.512 13.494 11.5 12 6.747-3.374-8.347-12-11.5-12m-16-17c0 4.655 3.569 8.035 7.5 10 .603.301 4.5 4.027 4.5 2.5 0-3.197-8.567-12.5-12-12.5m26 36 3 1c0-4.121 1-9.275 1-14l-2-5c-1.145 0-4 .579-4-1-6.818 0-17-10.234-17-17l-5-5c-8.053 0-20.755 4-30 4v1l8 1c1.406 0 7-.714 7 1 3.238 0 5.3 3 8 3l8.5 6c5.701 2.851 21.5 14.939 21.5 22v1l1 1v1Z"/><path fill="#AAA9A7" id="V4" d="M183 186c3.249 0 7.194 1 11 1 0-1.341-9.28-2-11-2v1ZM273 186c-2.978 0-6.49 1-10 1 0-1.16 8.505-2 10-2v1Z"/><path fill="#CBC9CC" id="arb" d="M145 186c0 1.93 1.93 0 0 0Z"/><path fill="#A9AAA8" id="chpl" d="M152 186c0 1.539-8.488 10.006-6.5 11 3.336 1.668 14.759-11 6.5-11Z"/><path fill="#FEB1D9" id="SPIV" d="M180 206h1l1-1 7-2 1-1c0-4.446 5-10.572 5-14l-1-1c-3.806 0-7.751-1-11-1l-8 1v2c0 2.858-1 5.278-1 8 0 4.775.647 9 6 9ZM267 202c0 2.16 6.07 3 8 3 4.535 0 8-.517 8-7l-2-3.5c-.978-1.956 1-4.077 1-5.5l-1-2-8-1c-2.978 0-6.49 1-10 1l-1 2c.112 0 5 10.969 5 12v1Z"/><path fill="#A9AAA8" id="chpl" d="M301 186c0 4.655 3.569 8.035 7.5 10 .603.301 4.5 4.027 4.5 2.5 0-3.197-8.567-12.5-12-12.5Z"/><path fill="#FF9BCD" id="MY" d="m168 188 7 1v-2c-1.406 0-7-.714-7 1ZM195 187v1l-1-1h1Z"/><path fill="#AAA9A7" id="V4" d="m232 207-2.5 2-4.5-1-9-10-3-3c0-2.842-14.952-7-18-7v-1c7.003 0 13.663 3.082 19.5 6h28c2.084-1.042 2.908-2 5.5-2 0 1.577-1.762 2-3 2l-1 1-1 1c-1.577 0-2 1.762-2 3-3.005 0-3.171 5-6 5 0-2.747 4-4.106 4-6.5 0-1.838-3.446-1.5-4.5-1.5h-16c-2.516 1.258 2.06 6.06 3 7l4 4 7.5-1-1 2ZM261 188l-8 1c0-1.931 6.225-2 8-2v1Z"/><path fill="#FF9BCD" id="MY" d="m261 188 1 1 1-2h-2v1ZM288 188l-6 1-1-2c1.406 0 7-.714 7 1Z"/><path fill="#FFA2D2" id="ECU" d="M160 191h1l1-1c1.974 0 3.517-2 6-2l7 1c0 2.858-1 5.278-1 8-5.857 0-14 11.221-14-6Z"/><path fill="#FFB0D7" id="MV" d="M210 199c-6.415 0-12.665 3-20 3 0-4.446 5-10.572 5-14 3.048 0 18 4.158 18 7l-1 3h-1l-1 1ZM267 201l-1 1c-7.92 0-16.884-4-21-4 0-1.481-2-.785-2-3l1-1 1-1c1.238 0 3-.423 3-2 1.424 0 5-.362 5-2l8-1 1 1c.112 0 5 10.969 5 12Z"/><path fill="#FFA2D2" id="ECU" d="M296 191c0 15.493-3.452 7-13 7l-2-3.5c-.978-1.956 1-4.077 1-5.5l6-1c3.238 0 5.3 3 8 3Z"/><path fill="#AAA9A7" id="V4" d="M253 189c-1.424 0-5 .362-5 2 1.424 0 5-.362 5-2Z"/><path fill="#FFFC8D" id="PFL" d="M127 203c.666 0 4 2.56 4 0 0-4.327-5-8.877-5-13-1.732 0-3 5.353-3 7 0 2.522 1.432 6 4 6Z"/><path fill="#FF9BCD" id="MY" d="m162 190-1 1 1-1ZM131 219h1l7-7 1-1 1-1 1-1 1-1 1-1 1-1c0-5.128 13.729-10.042 16-5.5l-4 4.5c3.722 0 6.656-1.922 10.5 0l7.5 9c0-3.752 5-6.234 5-8-5.353 0-6-4.225-6-9-5.857 0-14 11.221-14-6-2.453 0-17.309 14-21 14l-1 1-1 2-1 1-5 10ZM324 219h2c0-7.061-15.799-19.149-21.5-22l-8.5-6c0 15.493-3.452 7-13 7 0 6.483-3.465 7-8 7l4.5 4 2.5 4 3-4.5c1.295-2.59 4.42-3.46 6.5-4.5 5.554-2.777 10.114 5 14.5 5 0-2.942-12.188-6.124-11-8.5 3.03-6.06 22 5.478 22 10.5v1l7 7Z"/><path fill="#FFFC8D" id="PFL" d="M325 203c0 1.579 2.855 1 4 1 0-1.536 4-3.454 4-7 0-1.623-.005-6-2-6-4.407 0-3.265 12-6 12Z"/><path fill="#FF9BCD" id="MY" d="m245 193-1 1 1-1ZM244 194l-1 1 1-1ZM212 198h4l-3-3-1 3Z"/><path fill="#A9AAA8" id="chpl" d="M235 203c-1.747 0-2 .253-2 2l-7.5 1-4-4c-.94-.94-5.516-5.742-3-7h16c1.054 0 4.5-.338 4.5 1.5 0 2.394-4 3.753-4 6.5Z"/><path fill="#FF9BCD" id="MY" d="M241 198h4c0-1.481-2-.785-2-3-1.577 0-2 1.762-2 3Z"/><path fill="#F0F080" id="CB" d="M109 205c5.395 0 11.869 4 16 4 1.353 0 2-4.643 2-6-2.568 0-4-3.478-4-6-1.824 0-9.524 5.012-11.5 6l-2.5 2ZM347 205c-5.367 0-11.709 4-16 4l-2-5c0-1.536 4-3.454 4-7 2.375 0 9.163 4.832 11.5 6l2.5 2Z"/><path fill="#A9AAA8" id="chpl" d="M144 198c0 1.93 1.93 0 0 0Z"/><path fill="#FF9BCD" id="MY" d="m211 198-1 1 1-1Z"/><path fill="#FDA5D1" id="NTS" d="m197 220-9.5-1c-2.225 1.112-4.846 2-7.5 2l-2-1-3-6c0-3.752 5-6.234 5-8h1l1-1 7-2 1-1c7.335 0 13.585-3 20-3l1-1h5l9 10c0 2.681-7.019 0-8 0 0-6.546-10.478-6.544-13-1.5-.57 1.14-.263 6.5 1 6.5l-2 4h-1l-1 1-3 1-1 1ZM278 220l-2 1-6.5-2-9.5 1-2-1-4-2-2-4c0-3.875 2.009-7.246-3.5-10-3.084-1.542-8.5.545-8.5 4-1.748 0-8 5.062-8 0l1-2c1.747 0 2-.253 2-2 2.829 0 2.995-5 6-5h4c4.116 0 13.08 4 21 4h1c0 2.16 6.07 3 8 3l4.5 4 2.5 4-4 7Z"/><path fill="#A9AAA8" id="chpl" d="M143 199c0 1.93 1.93 0 0 0Z"/><path fill="#C8CACA" id="sptV" d="M147 211h1l1-1 1-1h1l1-1 1-1h1l1-1 2-1 4-4.5c-2.271-4.542-16 .372-16 5.5l2.5-1c8.341-4.17-1.5 5.126-1.5 6h1ZM319 273c-3.854 0-7.124 4-9 4 0-2.392-2.399-1.701-1-4.5l6-3.5h2l1-1 3-3 1-1 1-1 1-2 1-2 1-2v-1l1-1v-2l1-1v-1l1-2-1-14-1-1v-3l-1-1v-1l-1-1-1-2-3-3-1-1-1-1-1-1-1-1-1-1-2-2-3-3-4-4h-1c0-2.942-12.188-6.124-11-8.5 3.03-6.06 22 5.478 22 10.5-1.468 0-10.488-9.523-12-6.5l2.5 3.5c3.489 3.489 9.5 10.639 9.5 4l7 7 2 1 1 1v2l2 2v1l1 1v1l1 1v2l1 2v1l1 2v17l-1 2v2l-1 1v2l-1 1v2l-1 1v1c-1.747 0-2 .253-2 2l-7 5-1 1Z"/><path fill="#FF9BCD" id="MY" d="M266 202h1v-1l-1 1ZM190 202l-1 1 1-1Z"/><path fill="#A9AAA8" id="chpl" d="m137 208-1 1c-1.362 0-6.851 9.797-9 5.5-3.625-7.251 12-12.662 12-9.5l-1 1-1 2Z"/><path fill="#FDB1D8" id="DMX" d="M217 208c-3.786 0-7.157 5-12 5-1.263 0-1.57-5.36-1-6.5 2.522-5.044 13-5.046 13 1.5Z"/><path fill="#AAA9A7" id="V4" d="M235 203c-1.747 0-2 .253-2 2 1.747 0 2-.253 2-2Z"/><path fill="#FDB1D8" id="DMX" d="M240 207c0 3.926 8.45 6 12 6 0-3.875 2.009-7.246-3.5-10-3.084-1.542-8.5.545-8.5 4Z"/><path fill="#A9AAA8" id="chpl" d="M317 203c0 2.784 8.512 13.494 11.5 12 6.747-3.374-8.347-12-11.5-12Z"/><path fill="#FDA3D1" id="Pa5" d="m145 212-1 1c-2.971 0-5 4.328-5-1l1-1 1-1 1-1 1-1 1-1 1-1 2.5-1c8.341-4.17-1.5 5.126-1.5 6l-1 1Z"/><path fill="#FDA5D2" id="SPVI" d="M142 269h6c11.107 0 7.462-20.423 11-27.5 3.963-7.925 19-9.427 19-18.5l1-1-1-2-3-6-7.5-9c-3.844-1.922-6.778 0-10.5 0l-2 1-1 1h-1l-1 1-1 1h-1l-1 1-1 1h-1l-1 1-1 1-1 1-1 1-8 8-1 1-1 1v1l-1 1-1 1v1l-1 1v1l-1 1-1 11v8l1 1v1l2 4v2l1 1v1l1 1v1l2 2 2 2 1 1 4 1ZM315 269h2l1-1 3-3 1-1 1-1 1-2 1-2 1-2v-1l1-1v-2l1-1v-1l1-2-1-14-1-1v-3l-1-1v-1l-1-1-1-2-3-3-1-1-1-1-1-1-1-1-1-1-2-2-3-3-4-4h-1c-4.386 0-8.946-7.777-14.5-5-2.08 1.04-5.205 1.91-6.5 4.5l-3 4.5-4 7v3c0 7.286 15.656 11.813 19 18.5 3.12 6.24 1.176 27.5 11 27.5h7Z"/><path fill="#FDA3D1" id="Pa5" d="M317 211c-1.468 0-10.488-9.523-12-6.5l2.5 3.5c3.489 3.489 9.5 10.639 9.5 4v-1Z"/><path fill="#A9AAA7" id="V4r" d="m139 205-1 1 1-1Z"/><path fill="#FF9BCD" id="MY" d="m157 205-2 1 2-1ZM182 205l-1 1 1-1Z"/><path fill="#C8CACA" id="sptV" d="m145 206-1 1 1-1Z"/><path fill="#FF9BCD" id="MY" d="m155 206-1 1 1-1ZM153 207l-1 1 1-1ZM227 246l2 1c0-3.488-1.529-18 2-18h4v-3c0-.338-8.041-2.419-4-10.5 3.315-6.631 13.968-1.065 16 3l-1 4.5 8-6-2-4c-3.55 0-12-2.074-12-6-1.748 0-8 5.062-8 0l-2.5 2-4.5-1c0 2.681-7.019 0-8 0-3.786 0-7.157 5-12 5l-2 4c0 3.463 8 3.457 8 8l1-1c0-1.947-3.428-3.644-2-6.5 3.429-6.858 13.104-5.793 16 0 3.626 7.253-5 7.644-5 8.5v3c2.177 0 4-.641 4 2l1.5-2c2.934 0 .5 14.653.5 17Z"/><path fill="#A9AAA7" id="V4r" d="m137 208-1 1 1-1Z"/><path fill="#C8CACA" id="sptV" d="m143 208-1 1 1-1Z"/><path fill="#FF9BCD" id="MY" d="m152 208-1 1 1-1ZM150 209l-1 1 1-1ZM307 209l4 4-4-4Z"/><path fill="#C8CACA" id="sptV" d="m141 210-1 1 1-1Z"/><path fill="#FF9BCD" id="MY" d="m149 210-1 1 1-1Z"/><path fill="#C8CACA" id="sptV" d="m140 211-1 1 1-1ZM145 212h1v-1l-1 1Z"/><path fill="#FF9BCD" id="MY" d="m147 211-1 1v-1h1Z"/><path fill="#C8CACA" id="sptV" d="M137 273c4.299 0 6.885 4 10 4l1-3.5-6-4.5-4-1-1-1-2-2-2-2v-1l-1-1v-1l-1-1v-2l-2-4v-1l-1-1v-2c-1.587 0-1.587-6 0-6l1-11 1-1v-1l1-1v-1l1-1 1-1v-1l1-1 1-1 8-8 1-1v-1c-2.971 0-5 4.328-5-1l-7 7-1 1-1 1-1 1v1l-1 2-1 1v1l-1 2-1 2v2l-1 1v1l-1 2v14c1.473 0 1 1.952 1 3v1l1 2v2l1 1v1l1 1v2l10 9ZM144 213h1v-1l-1 1Z"/><path fill="#FF9BCD" id="MY" d="m146 212-1 1v-1h1ZM145 213l-1 1v-1h1Z"/><path fill="#FEB1D7" id="XII" d="M212 224c2.526 0 5.577 2 9 2 0-.856 8.626-1.247 5-8.5-2.896-5.793-12.571-6.858-16 0-1.428 2.856 2 4.553 2 6.5ZM245 224c-2.73 0-6.298 2-10 2 0-.338-8.041-2.419-4-10.5 3.315-6.631 13.968-1.065 16 3l-1 4.5-1 1Z"/><path fill="#FF9BCD" id="MY" d="m144 214-1 1 1-1ZM314 216l2 2-2-2ZM202 217l-1 1 1-1Z"/><path fill="#FFB2D8" id="IRN" d="M180 266c1.048 0 3-.473 3 1 3.652 0 7.407-5 12-5l17-31 1-1v-1l-2-4c0-4.543-8-4.537-8-8h-1l-1 1-3 1-1 1c0 2.705-17.451 28.402-20 33.5l-8 10.5 4 1h1c0-1.186 1-1.186 1 0h2c1.048 0 3-.473 3 1ZM276 266l-3 1c-1.912 0-7.516-5-12-5 0-8.078-17-24.81-17-32v-1l1-5 1-1 8-6 4 2 1 1c0 3.537 6.399 8.297 8 11.5 4.219 8.437 9.798 16.595 14 25l6 7.5-2 1h-2c0-1.186-1-1.186-1 0h-3c-1.048 0-3-.473-3 1Z"/><path fill="#FF9BCD" id="MY" d="M130 220h1v-1l-1 1Z"/><path fill="#C9C9C8" id="icp" d="m132 219-1 1v-1h1Z"/><path fill="#FCB3D9" id="PARN" d="m164 270-7.5 1-2.5 3c-3.313 0-6-1.457-6-5 11.107 0 7.462-20.423 11-27.5 3.963-7.925 19-9.427 19-18.5l1-1 1-1c2.654 0 5.275-.888 7.5-2l9.5 1c0 2.705-17.451 28.402-20 33.5l-8 10.5v1c-1.712 0-3 2.571-3 4l-2 1Z"/><path fill="#FF9BCD" id="MY" d="m198 219-1 1 1-1ZM259 220h1l-2-1 1 1Z"/><path fill="#FCB3D9" id="PARN" d="M293 270c2.099 0 9 .906 9 4 3.313 0 6-1.457 6-5-9.824 0-7.88-21.26-11-27.5-3.344-6.687-19-11.214-19-18.5l-2-2-6.5-2-9.5 1h-1c0 3.537 6.399 8.297 8 11.5 4.219 8.437 9.798 16.595 14 25l6 7.5v1c1.366 0 4 2.366 4 4l2 1Z"/><path fill="#FF9BCD" id="MY" d="m317 219 1 1-1-1Z"/><path fill="#C9C9C8" id="icp" d="M326 219v1l-2-1h2ZM131 220l-1 1v-1h1Z"/><path fill="#FF9BCD" id="MY" d="m180 221-1 1-1-2 2 1ZM276 221l2 2v-3l-2 1ZM326 220l1 1-1-1Z"/><path fill="#C9C9C8" id="icp" d="m130 221-1 1 1-1Z"/><path fill="#FF9BCD" id="MY" d="m319 221 1 1-1-1ZM128 223h1v-1l-1 1ZM179 222l-1 1 1-1ZM333 241h1c0-3.037-1.111-18-4-18l-3-1v1l2 2v1l1 1v1l1 1v2l1 2v1l1 2v5ZM123 235h1v-1l1-1v-2l1-2 1-2v-1l1-1v-2h-2c0 1.874-3 7.388-3 12Z"/><path fill="#C9C9C8" id="icp" d="m129 223-1 2v-2h1Z"/><path fill="#FF9BCD" id="MY" d="m135 223-1 1 1-1ZM246 223l-1 1 1-1ZM321 223l3 3-3-3Z"/><path fill="#C9C9C8" id="icp" d="m327 223 2 2-2-2Z"/><path fill="#FF9BCD" id="MY" d="m134 224-1 1 1-1Z"/><path fill="#FFB1D9" id="NR" d="M213 229h8v-3c-3.423 0-6.474-2-9-2l-1 1 2 4ZM243 229h1l1-5c-2.73 0-6.298 2-10 2v3h8Z"/><path fill="#C9C9C8" id="icp" d="m128 225-1 1 1-1Z"/><path fill="#FF9BCD" id="MY" d="m133 226-1 1 1-1Z"/><path fill="#C9C9C8" id="icp" d="m329 226 1 1-1-1ZM127 227l-1 2 1-2Z"/><path fill="#FF9BCD" id="MY" d="m132 227-1 1 1-1ZM325 228l1 1-1-1Z"/><path fill="#C9C9C8" id="icp" d="m330 228 1 1-1-1ZM126 229l-1 2 1-2Z"/><path fill="#FF9BCD" id="MY" d="m131 229-1 1 1-1Z"/><path fill="#FEB0D8" id="GRN" d="M216 271c-3.554 0-8.365 4.432-11.5 6-2.161 1.081-4.894-1-6.5-1 0-2.579 3.752-5.997 2-9.5-.781-1.563-5-3.526-5-4.5l17-31 1-1v-1h8c2.177 0 4-.641 4 2v11.5c0 .915 2 5.797 2 3.5l2 1c3.529 0 2-14.512 2-18h12l1 1c0 7.19 17 23.922 17 32l-5 5.5c-1.487 2.974 2 6.088 2 8.5-1.606 0-4.339 2.081-6.5 1-1.49-.745-12.188-8-12.5-8l-2-2.5-4.5-11.5H229c0-5.671-2-4.907-2 0l-4 .5c-.504 1.007-6 14.459-6 14.5l-1 1Z"/><path fill="#CBCBCC" id="mlf" d="m225 231 1.5-2c2.934 0 .5 14.653.5 17 0 2.297-2-2.585-2-3.5V231ZM231 229c-3.529 0-2 14.512-2 18 3.529 0 2-14.512 2-18Z"/><path fill="#FF9BCD" id="MY" d="M244 229v1l-1-1h1ZM213 230l-1 1 1-1ZM326 230l1 1-1-1ZM130 231l-1 1 1-1Z"/><path fill="#C9C9C8" id="icp" d="m331 231 1 2-1-2ZM125 233l-1 1 1-1Z"/><path fill="#FF9BCD" id="MY" d="m327 234 1 1-1-1Z"/><path fill="#C9C9C8" id="icp" d="m332 234 1 2-1-2ZM124 235l-1 2v-2h1Z"/><path fill="#FF9BCD" id="MY" d="M123 238c-1.641 0-1.641 13 0 13v-13Z"/><path fill="#C9C9C8" id="icp" d="M333 249h1v-8h-1v8Z"/><path fill="#FF9BCD" id="MY" d="M128 243c-1.587 0-1.587 6 0 6v-6ZM329 249l-1 2 1-2ZM334 249c0 1.145.579 4-1 4v-4h1Z"/><path fill="#FEC6E2" id="RO" d="M230 264c-1.473 0-1 1.952-1 3-2.641 0-2-1.823-2-4v-8c0-4.907 2-5.671 2 0l1 9Z"/><path fill="#C9C9C8" id="icp" d="M123 254h1c0-1.048.473-3-1-3v3Z"/><path fill="#FF9BCD" id="MY" d="m128 251 1 1-1-1ZM328 252l-1 1 1-1ZM129 253l2 4-2-4Z"/><path fill="#C9C9C8" id="icp" d="M332 255h1v-2l-1 2Z"/><path fill="#FF9BCD" id="MY" d="M125 257v2c-1.638 0-2-3.576-2-5h1v1l1 2Z"/><path fill="#C9C9C8" id="icp" d="m124 255 1 2-1-2Z"/><path fill="#C8C8CC" id="tspc" d="M216 271c0 2.041.959 3 3 3 0-1.729 4.742-9 7-9l1-2v-8l-4 .5c-.504 1.007-6 14.459-6 14.5l-1 1ZM239 269c0 3.383 2.269 4-2 4l-6-8-1-1-1-9h3.5l4.5 11.5 2 2.5Z"/><path fill="#FF9BCD" id="MY" d="m327 255-1 1 1-1ZM332 257v1c1.473 0 1-1.952 1-3h-1v2ZM326 257l-1 2 1-2Z"/><path fill="#C9C9C8" id="icp" d="M331 258h1v-1l-1 1Z"/><path fill="#FF9BCD" id="MY" d="m332 258-1 2v-2h1Z"/><path fill="#C9C9C8" id="icp" d="M125 260h1l-1-1v1Z"/><path fill="#FF9BCD" id="MY" d="m131 259 1 1-1-1ZM325 259l-1 2 1-2ZM126 260v1l-1-1h1Z"/><path fill="#C9C9C8" id="icp" d="M330 261h1v-1l-1 1ZM126 262h1l-1-1v1Z"/><path fill="#FF9BCD" id="MY" d="m132 261 1 1-1-1ZM324 261l-1 2 1-2ZM331 261l-1 2v-2h1ZM127 262v1l-1-1h1Z"/><path fill="#FCB3D7" id="LRNm" d="M198 276c-3.112 0-7.426 7.963-9.5 9-4.51 2.255-6.034 1-10.5 1 0-1.651-4.823-3.855-3-7.5 2.303-4.606 8-5.855 8-11.5 3.652 0 7.407-5 12-5 0 .974 4.219 2.937 5 4.5 1.752 3.503-2 6.921-2 9.5ZM258 276l12.5 11c2.364 1.182 5.696-1 7.5-1 0-1.184 5.196-3.108 4-5.5-2.264-4.527-9-7.66-9-13.5-1.912 0-7.516-5-12-5l-5 5.5c-1.487 2.974 2 6.088 2 8.5Z"/><path fill="#FF9BCD" id="MY" d="m133 263 2 2-2-2ZM228 277h1v-10c-2.641 0-2-1.823-2-4l-1 2 2 12ZM323 263l-1 1 1-1ZM330 263l-1 1 1-1Z"/><path fill="#FF9BCD" id="MY" fill-rule="evenodd" d="M241 289c0 1.639-6.507.486-5 3.5 1.316 2.632 15.861 10.278 18 6 1.686-3.371-9.489-9.5-13-9.5m-28 0c13.991 0 2.973 10-5.5 10l-5.5-.5c-.677-1.354 3-3.656 3-5.5-1.566 0-8 8.356-8 1.5l1-2c0-1.164-10.922 5.156-12 3-.915-1.831 7.2-5.85 8.5-6.5 5.857-2.929 11.056-8.028 17-11 2.373-1.187.829 3 2 3 2.071 0 5.5-5.198 5.5-7-2.041 0-3-.959-3-3-3.554 0-8.365 4.432-11.5 6-2.161 1.081-4.894-1-6.5-1-3.112 0-7.426 7.963-9.5 9-4.51 2.255-6.034 1-10.5 1 0 2.798-7.178 0-8 0 0 5.821-4.702 1-8 1 0 2.795 13.209 5.082 12 7.5l-4.5-.5c-2.487-1.243-12.5-4.01-12.5-8l-2-2c0 6.849-18-8.236-18-11l-10-9c0 3.722 12.302 14.401 15.5 16l9 7 16 8c5.158 2.579 21.097 3.048 23 4 3.451 1.726 15.7 4.15 20 2 5.035-2.517 10.984-3.492 16-6l2-3 2 3c4.808 2.404 10.198 3.599 15 6 4.074 2.037 31.38-2.19 35-4 1.611-.806 10.5-1.968 10.5-4-2.113 0-2.782.141-4.5 1l-4.5-.5 13-6.5c-3.601 0-9 4.685-9-1-.822 0-8 2.798-8 0-1.804 0-5.136 2.182-7.5 1L258 276c-1.606 0-4.339 2.081-6.5 1-1.49-.745-12.188-8-12.5-8 0 3.383 2.269 4-2 4 0 1.749 5.142 10 7.5 10 1.842 0-3.478-3.761-1-5 4.016-2.008 9.897 7.449 13 9 1.682.841 14.5 5.686 14.5 7.5 0 4.098-10.567-2.5-11.5-2.5l.5 3.5c-.64 1.28-3.128 2.186-4.5 1.5l-5-6c-1.733-.867-18.564-7-19.5-7 0 2.785-2.751 11.997-6 5.5l1-6.5-6.5 4c-1.134.567-6.5.546-6.5 2Z"/><path fill="#FF9BCD" id="MY" d="M173 265c0 3.329 1 4.97 1 6-4.311 0-1.206-6-5-6v-1l4 1ZM174 265h1c0-1.186-1-1.186-1 0ZM231 265l-2 2c0-1.048-.473-3 1-3l1 1ZM282 265h1c0-1.186-1-1.186-1 0ZM285 265h2v-1l-2 1ZM322 264l-1 1 1-1Z"/><path fill="#FCB2D9" id="PGRNl" d="M170 286c.822 0 8 2.798 8 0 0-1.651-4.823-3.855-3-7.5 2.303-4.606 8-5.855 8-11.5 0-1.473-1.952-1-3-1l-2 3-1 2h-3c-4.311 0-1.206-6-5-6-1.712 0-3 2.571-3 4v2c2.798 0 0 7.178 0 8l1 1c0 1.235 3 3.431 3 6Z"/><path fill="#FEB3D8" id="AMBv" d="M174 271h3l1-2-1-4h-4c0 3.329 1 4.97 1 6Z"/><path fill="#FF9BCD" id="MY" d="m180 266-2 3-1-4c1.048 0 3-.473 3 1Z"/><path fill="#FFB3D8" id="IO" fill-rule="evenodd" d="M198 290c0 1.93 1.93 0 0 0m5-1c0 1.93 1.93 0 0 0m2-2c0 1.93 1.93 0 0 0m2-2c0 2.091 3.746 0 0 0m2-2c0 3.479 3.479 0 0 0m2-1c0 1.93 1.93 0 0 0m1-1c0 1.93 1.93 0 0 0m-5 10c-1.747 0-2 .253-2 2-1.566 0-8 8.356-8 1.5l1-2c0-1.164-10.922 5.156-12 3-.915-1.831 7.2-5.85 8.5-6.5 5.857-2.929 11.056-8.028 17-11 2.373-1.187.829 3 2 3 2.071 0 5.5-5.198 5.5-7 0-1.729 4.742-9 7-9l2 12-1 1-1 5-6.5 4c-1.134.567-6.5.546-6.5 2-1.145 0-4-.579-4 1l-2 1ZM258 290c0 1.93 1.93 0 0 0m-12-7 7 6.5-7-6.5m-17-6c0 2.833 2 4.84 2 7 .936 0 17.767 6.133 19.5 7l5 6c1.372.686 3.86-.22 4.5-1.5l-.5-3.5c.933 0 11.5 6.598 11.5 2.5 0-1.814-12.818-6.659-14.5-7.5-3.103-1.551-8.984-11.008-13-9-2.478 1.239 2.842 5 1 5-2.358 0-7.5-8.251-7.5-10l-6-8-2 2v10Z"/><path fill="#FF9BCD" id="MY" d="m276 266 3 4v-5c-1.048 0-3-.473-3 1Z"/><path fill="#FEB3D8" id="AMBv" d="m284 270-2 1c-1.048 0-3 .473-3-1v-5h5v5Z"/><path fill="#FF9BCD" id="MY" d="M285 265c0 1.235.643 5-1 5v-5h1Z"/><path fill="#FCB2D9" id="PGRNl" d="M278 286c0 2.798 7.178 0 8 0 0-1.422 2.033-6 4-6v-1l-1-6.5 2-2.5v-1c0-1.634-2.634-4-4-4h-2c0 1.235.643 5-1 5l-2 1c-1.048 0-3 .473-3-1l-3-4-3 1c0 5.84 6.736 8.973 9 13.5 1.196 2.392-4 4.316-4 5.5Z"/><path fill="#FF9BCD" id="MY" d="M329 265c-1.747 0-2 .253-2 2l2-2ZM137 267l1 1-1-1ZM320 273l-3 4c2.839 0 10-7.161 10-10l-7 5v1ZM318 268l-1 1 1-1ZM155 279c-3.382 0-1 1.342-1 3l-7-5 1-3.5-6-4.5h6c0 3.543 2.687 5 6 5l1 5ZM164 270l2 1v-2l-2 1ZM178 269l-1 2 1-2ZM291 270h2l-2-1v1ZM301 279c1.747 0 2 .253 2 2 2.83 0 4.54-4 7-4 0-2.392-2.399-1.701-1-4.5l6-3.5h-7c0 3.543-2.687 5-6 5l-1 5Z"/><path fill="#FCB3D7" id="LRNm" d="M161 281h1l3-1 1-1c0-.822 2.798-8 0-8l-2-1-7.5 1-2.5 3 1 5 6 2Z"/><path fill="#FF9BCD" id="MY" d="m217 270-1 1 1-1ZM284 270l-2 1 2-1Z"/><path fill="#FCB3D7" id="LRNm" d="M295 281h1l5-2 1-5c0-3.094-6.901-4-9-4h-2l-2 2.5 1 6.5 1 1 4 1Z"/><path fill="#C9C9C8" id="icp" d="M319 273h1v-1l-1 1Z"/><path fill="#C9CACA" id="sctd" d="m154 282 1 2c0 6.849-18-8.236-18-11 4.299 0 6.885 4 10 4l7 5ZM305 286l-2 1-2-2v-1l1-1 1-1v-1c2.83 0 4.54-4 7-4 1.876 0 5.146-4 9-4h1l-3 4c-1.668 0-6 3.099-6 5l-2 1c-1.429 0-4 1.288-4 3Z"/><path fill="#FF9BCD" id="MY" d="m228 277-1 1 1-1Z"/><path fill="#FFC6E2" id="RPA" d="m226 283-1 6.5c3.249 6.497 6-2.715 6-5.5 0-2.16-2-4.167-2-7h-1l-1 1-1 5Z"/><path fill="#FF9BCD" id="MY" d="M317 277c-1.668 0-6 3.099-6 5 2.195 0 6-3.089 6-5Z"/><path fill="#FEB0D9" id="LRNp" d="m157 286 5 1v-5l-1-1-6-2c-3.382 0-1 1.342-1 3l1 2 2 2Z"/><path fill="#FF9BCD" id="MY" d="M165 280h2l-1-1-1 1ZM290 280h1l-1-1v1Z"/><path fill="#FEB0D9" id="LRNp" d="m299 286-4 1-2-2.5 2-2.5 1-1 5-2c1.747 0 2 .253 2 2v1l-1 1-1 1v1l-2 1Z"/><path fill="#C8C8CB" id="rust" d="M170 286c0 5.821-4.702 1-8 1v-6l3-1h2c0 1.235 3 3.431 3 6ZM286 286c0 5.685 5.399 1 9 1l-2-2.5 2-2.5v-1l-4-1h-1c-1.967 0-4 4.578-4 6Z"/><path fill="#FF9BCD" id="MY" d="M162 281v1l-1-1h1ZM212 281c0 1.93 1.93 0 0 0ZM296 281l-1 1v-1h1ZM211 282c0 1.93 1.93 0 0 0ZM303 282l-1 1 1-1ZM311 282l-2 1 2-1ZM209 283c0 3.479 3.479 0 0 0ZM246 283l7 6.5-7-6.5ZM302 283l-1 1 1-1ZM309 283c-1.429 0-4 1.288-4 3 2.061 0 4-.902 4-3ZM207 285c0 2.091 3.746 0 0 0ZM303 287c0 1.995-6.268 4-8 4 0-2.741 4-2.268 4-5l2-1 2 2Z"/><path fill="#CBC7CC" id="sctv" d="m157 286 5 1c0 2.795 13.209 5.082 12 7.5l-4.5-.5c-2.487-1.243-12.5-4.01-12.5-8ZM295 291c-1.465 0-4-.109-4 2-2.113 0-2.782.141-4.5 1l-4.5-.5 13-6.5 4-1c0 2.732-4 2.259-4 5Z"/><path fill="#FF9BCD" id="MY" d="m305 286-2 1 2-1ZM205 287c0 1.93 1.93 0 0 0ZM203 289c0 1.93 1.93 0 0 0ZM213 289c-1.145 0-4-.579-4 1 1.145 0 4 .579 4-1Z"/><path fill="#C7C9C9" id="py" d="m207 291-2 2c0 1.844-3.677 4.146-3 5.5l5.5.5c8.473 0 19.491-10 5.5-10 0 1.579-2.855 1-4 1l-2 1ZM241 289c0 1.639-6.507.486-5 3.5 1.316 2.632 15.861 10.278 18 6 1.686-3.371-9.489-9.5-13-9.5Z"/><path fill="#FF9BCD" id="MY" d="M198 290c0 1.93 1.93 0 0 0ZM209 290l-2 1 2-1ZM258 290c0 1.93 1.93 0 0 0ZM207 291c-1.747 0-2 .253-2 2l2-2ZM295 291c-1.465 0-4-.109-4 2 1.465 0 4 .109 4-2Z"/></svg>