<svg xmlns="http://www.w3.org/2000/svg" viewBox="0 0 456 320"><path fill="#FEFA90" id="DEC" fill-rule="evenodd" d="M223 77c0 2.144-4.262.38-5.5 1-4.141 2.07-9.921.96-14 3-8.967 4.484-13.163 6.827-17.5 15.5-5.229 10.458 9.69 25.095 16.5 28.5 5.758 2.879 22.677 13.661 30 10 17.347-8.673 26.881-8.262 36.5-27.5 2.71-5.421 1.629-17.435-4.5-20.5-4.828-2.414-10.313-3.656-15-6-7.295-3.647-17.785-4-26.5-4m58 44-1 1c0 5.386-21.033 9.266-24.5 11-15.568 7.784-38.474 7.763-54 0-3.075-1.538-7.871-.436-11-2-2.284-1.142-14.657-10-15.5-10 0-1.618-3.132-7.764-4-9.5V78c0-2.847 12.45-9.475 15.5-11l4.5-1.5c0-1.546-6.563.563-7 1l-4.5 2.5-8.5 5c0-4.823-2-11.28-2-16 0-2.53 18.821-7.66 21.5-9 14.042-7.02 60.936-7.032 75 0 2.679 1.34 21.5 6.47 21.5 9l-1 17-6.5-5-5.5-2.5c-.478-.478-9-4.297-9-2l5.5 1.5c1.927.963 14.5 9.326 14.5 11l1 24.5c-.908 1.816-3 14.671-3 16.5l-2 2Z"/><path fill="#FDFB8F" id="SIM" d="m171 74-4 3.5c-1.612 3.224-6.591 13.5-11 13.5 0-7.351-9-22.468-9-23 0-7.961 16.382-10 22-10 0 4.72 2 11.177 2 16ZM286 75c3.494 0 8.706 16 15 16 0-8.953 8-21.475 8-23 0-7.906-15.756-10-22-10l-1 17Z"/><path fill="#CBC9CC" id="arb" fill-rule="evenodd" d="m282 130-6.5 3-7 8c-4.575 2.287-9.462 0-14 0-1.843 0-6.731 2.039-5.5 4.5l5.5 3.5c11.779 5.89 28.256-3.011 34.5-15.5 1.662-3.325-5.491-3.5-7-3.5m-113 0-2 2.5c0 5.45 18.427 16.964 23.5 19.5 3.678 1.839 18.203-5.094 16.5-8.5-3.28-6.56-16.887 3.226-20-3-3.454-6.907-10.243-10.5-18-10.5m135 51c2.123 0 7 4.878 7 7 3.06 0-5.709-10.918-6-11.5-5.428-10.855-12.554-21.108-18-32-1.565-3.131 2.793-9.5 6-9.5 0-2.341 2.342-1.421 3.5-2 6.084-3.042 13.721 2.721 18 7l26 20 10.5 11.5 3.5 3.5c5.911-2.956-14.103-20.103-17-23-.748-.748-4.068-7-1.5-7 1.122 0 7.245-5 11-5l12.5-1c1.346.673 5.717 4 7 4l-8-11c-.351 0-16.607 6.303-18 7-8.193 4.097-21.164-3.082-27-6-2.457-1.228-8.5-2.638-8.5-6-3.156 0-3.137-5.773-4-7.5-4.494-8.988-2.026-17.949 2-26l-2-2.5c-6.294 0-11.506-16-15-16l-6.5-5-5.5-2.5c-.478-.478-9-4.297-9-2l5.5 1.5c1.927.963 14.5 9.326 14.5 11 2.47 0 3.265 5.03 4 6.5 3.579 7.157 4.415 34.5-6 34.5 0 1.747-.253 2-2 2l-1 1c0 5.386-21.033 9.266-24.5 11-15.568 7.784-38.474 7.763-54 0-3.075-1.538-7.871-.436-11-2-2.284-1.142-14.657-10-15.5-10-9.251 0-12.6-27.3-9-34.5.827-1.655 2.559-8.5 5-8.5 0-2.847 12.45-9.475 15.5-11l4.5-1.5c0-1.546-6.563.563-7 1l-4.5 2.5-8.5 5-4 3.5c-1.612 3.224-6.591 13.5-11 13.5l-3 2.5 4 5c2.11 4.221-.77 28.5-5 28.5 0 3.335-8.415 5.957-10.5 7l-8 5c-3.432 1.716-22.291-.646-25-2l-9-4-2-2-1.5 4.5-5 5c-1.207 2.415 6.014-1.5 7-1.5 3.851 0 22 1.91 22 6 2.804 0-.229 5.729-1 6.5L103.5 168c-1.061 1.061-6.326 7-1 7 .101 0 9.829-12.914 12-14 13.714-6.857 24.671-21.836 39-29 3.325-1.662 6.853 2 9.5 2 4.082 0 7.973 8.553 6 12.5-4.6 9.2-24 34.147-24 41.5l7-7c0-5.348 11.779-16 17-16 0-3.249 12.343-8.421 15.5-10h10c20.952-10.476 46.075-10.462 67 0h10c2.312 1.156 16.5 7.919 16.5 10 5.319 0 16 10.662 16 16Z"/><path fill="#FCFC90" id="ANcr1" d="M104 93c13.051 0 20.317 16.134 25 25.5.898 1.796 20.595 8.5 23 8.5 4.23 0 7.11-24.279 5-28.5l-4-5 3-2.5c0-7.351-9-22.468-9-23-11.285 0-43 11.414-43 25ZM353 93c-13.534 0-19.011 13.522-24 23.5-1.874 3.748-20.316 10.5-24 10.5-3.156 0-3.137-5.773-4-7.5-4.494-8.988-2.026-17.949 2-26l-2-2.5c0-8.953 8-21.475 8-23l13.5 1c6.915 3.458 30.5 15.043 30.5 24Z"/><path fill="#FCFB90" id="CUL4, 5" d="M223 77c0 2.144-4.262.38-5.5 1-4.141 2.07-9.921.96-14 3-8.967 4.484-13.163 6.827-17.5 15.5-5.229 10.458 9.69 25.095 16.5 28.5 5.758 2.879 22.677 13.661 30 10 17.347-8.673 26.881-8.262 36.5-27.5 2.71-5.421 1.629-17.435-4.5-20.5-4.828-2.414-10.313-3.656-15-6-7.295-3.647-17.785-4-26.5-4Z"/><path fill="#FDFB8F" id="SIM" d="M171 78c-2.441 0-4.173 6.845-5 8.5-3.6 7.2-.251 34.5 9 34.5 0-1.618-3.132-7.764-4-9.5V78ZM285 78c2.47 0 3.265 5.03 4 6.5 3.579 7.157 4.415 34.5-6 34.5 0-1.829 2.092-14.684 3-16.5L285 78Z"/><path fill="#FCFA91" id="ANcr2" fill-rule="evenodd" d="M90 142c0 1.93 1.93 0 0 0m30 3c0 1.609-7.109 3.304-8.5 4-5.061 2.53-27.308 14-31.5 14-1.55 0-3.55 1-4.5 1-7.087 0-8.962-20.577-6.5-25.5 1.358-2.716.694-6.388 2-9 5.849-11.697 11.03-25.765 24.5-32.5 2.728-1.364 5.269-4 8.5-4 13.051 0 20.317 16.134 25 25.5.898 1.796 20.595 8.5 23 8.5 0 3.335-8.415 5.957-10.5 7l-8 5c-3.432 1.716-22.291-.646-25-2l-9-4-2-2-1.5 4.5-5 5c-1.207 2.415 6.014-1.5 7-1.5 3.851 0 22 1.91 22 6Z"/><path fill="#FCFA91" id="ANcr2" d="M336 145c0 1.607 8.043 3.271 9.5 4 4.793 2.397 26.702 14 30.5 14 1.842 0 4.283 1 5.5 1 5.704 0 8.847-16.806 6.5-21.5-2.071-4.141-.961-9.921-3-14-5.998-11.995-11.29-24.895-24.5-31.5-2.139-1.07-5.078-4-7.5-4-13.534 0-19.011 13.522-24 23.5-1.874 3.748-20.316 10.5-24 10.5 0 3.362 6.043 4.772 8.5 6 5.836 2.918 18.807 10.097 27 6 1.393-.697 17.649-7 18-7l8 11c-1.283 0-5.654-3.327-7-4l-12.5 1c-3.755 0-9.878 5-11 5Z"/><path fill="#FDFB8F" id="SIM" d="m283 119-2 2c1.747 0 2-.253 2-2ZM281 121l-1 1 1-1Z"/><path fill="#FFFCBC" id="FN" d="m169 130-2 2.5c0 5.45 18.427 16.964 23.5 19.5 3.678 1.839 18.203-5.094 16.5-8.5-3.28-6.56-16.887 3.226-20-3-3.454-6.907-10.243-10.5-18-10.5ZM282 130l-6.5 3-7 8c-4.575 2.287-9.462 0-14 0-1.843 0-6.731 2.039-5.5 4.5l5.5 3.5c11.779 5.89 28.256-3.011 34.5-15.5 1.662-3.325-5.491-3.5-7-3.5Z"/><path fill="#FFFB8E" id="PRM" d="m119 200-14 5c-11.949 0-22.394-24.289-27-33.5-1.513-3.025 2-5.87 2-8.5 4.192 0 26.439-11.47 31.5-14 1.391-.696 8.5-2.391 8.5-4 2.804 0-.229 5.729-1 6.5L103.5 168c-1.061 1.061-6.326 7-1 7 .101 0 9.829-12.914 12-14 13.714-6.857 24.671-21.836 39-29 3.325-1.662 6.853 2 9.5 2 0 2.417-4.092 3.296-5.5 4l-13 11c-5.638 2.819-19.5 33.038-19.5 39-1.847 0-6 10.11-6 12ZM338 200c5.105 0 8.695 5 14 5 11.116 0 22.758-26.016 27-34.5 1.091-2.182-3-5.1-3-7.5-3.798 0-25.707-11.603-30.5-14-1.457-.729-9.5-2.393-9.5-4-2.568 0 .752 6.252 1.5 7 2.897 2.897 22.911 20.044 17 23l-3.5-3.5-10.5-11.5-26-20c-4.279-4.279-11.916-10.042-18-7-1.158.579-3.5-.341-3.5 2 5.381 0 8.916 7.708 13.5 10 10.602 5.301 15.886 19.272 20.5 28.5l2 9 3 5.5 6 12Z"/><path fill="#FFF990" id="COPY" d="M145 188c0 4.614-9.061 15-14 15 0-4.966-6-12.03-6-15 0-5.962 13.862-36.181 19.5-39l13-11c1.408-.704 5.5-1.583 5.5-4 4.082 0 7.973 8.553 6 12.5-4.6 9.2-24 34.147-24 41.5ZM332 188c-3.055 0-7 12.538-7 15-4.554 0-14-10.687-14-15 3.06 0-5.709-10.918-6-11.5-5.428-10.855-12.554-21.108-18-32-1.565-3.131 2.793-9.5 6-9.5 5.381 0 8.916 7.708 13.5 10 10.602 5.301 15.886 19.272 20.5 28.5l2 9 3 5.5Z"/><path fill="#CBC9CC" id="arb" d="M90 142c0 1.93 1.93 0 0 0Z"/><path fill="#FFFA8F" id="UVU" d="M169 165c3.72 0 16.983-4.242 20.5-6l12 1c8.883 0 18.989-1 28.5-1h20.5c5.194 2.597 11.071-2.465 16 0 2.578 1.289 18.881 6 21.5 6 0-2.081-14.188-8.844-16.5-10h-10c-20.925-10.462-46.048-10.476-67 0h-10c-3.157 1.579-15.5 6.751-15.5 10Z"/><path fill="#FDFC8F" id="NOD" d="M245 191h1l1-1h1l1-1h1l2-1c0-1.473 1.952-1 3-1h1c0-1.643 3.765-1 5-1 0-1.751 7.426-1 9-1h2l1-1c10.68 0 20.749-3 31-3 0-5.338-10.681-16-16-16-2.619 0-18.922-4.711-21.5-6-4.929-2.465-10.806 2.597-16 0H230c-9.511 0-19.617 1-28.5 1l-12-1c-3.517 1.758-16.78 6-20.5 6-5.221 0-17 10.652-17 16 10.453 0 20.219 3 31 3l2 1h2c2.223 0 13-.018 13 2h2c1.698 0 8 1.768 8 4h1l5.5 2c4.876 2.438 22.193-1 27.5-1l1-1Z"/><path fill="#A9AAA7" id="V4r" d="m128 225-1 1-2-1-1-14 2-6c1.424 0 5-.362 5-2 4.939 0 14-10.386 14-15l7-7c10.453 0 20.219 3 31 3v1c-3.77 0-7.021 2-10 2h-2l-2 1-2 1-5 2-1 1-1 1c-4.51 0-6.642 4-11 4 0-4.103 12.549-6.401 10-11.5-2.176-4.352-6.75-1.875-9.5-.5-3.773 1.887-9.232 16.616-20 22-1.804.902-4.5 4.778-4.5 6.5l2 2c2.729 5.457 5.477-4.5 8-4.5l-4 8v1l-1 1-1 1v1l-1 1v1ZM329 226h2l2-14-3-7c-1.424 0-5-.362-5-2-4.554 0-14-10.687-14-15 0-2.122-4.877-7-7-7-10.251 0-20.32 3-31 3v1c4.232 0 7.38 2 11 2h1l2 1 2 1c3.047 0 4.462 3 7 3l11 5c0-4.102-12.185-7.13-10-11.5 2.132-4.264 8.151-1.849 10.5.5 9.103 9.103 6.562 14.281 20 21 1.911.956 4.596 5.308 3.5 7.5-4.44 8.88-8.876-6.5-12-6.5l7 12 2 4 1 1v1Z"/><path fill="#A9AAA8" id="chpl" d="M137 209c-1.747 0-2 .253-2 2-2.523 0-5.271 9.957-8 4.5l-2-2c0-1.722 2.696-5.598 4.5-6.5 10.768-5.384 16.227-20.113 20-22 2.75-1.375 7.324-3.852 9.5.5 2.549 5.099-10 7.397-10 11.5l-2 1-1 1-1 1-1 1-1 1-1 1-1 1-1 1-2 2-1 1v1ZM317 205l2 3c3.124 0 7.56 15.38 12 6.5 1.096-2.192-1.589-6.544-3.5-7.5-13.438-6.719-10.897-11.897-20-21-2.349-2.349-8.368-4.764-10.5-.5-2.185 4.37 10 7.398 10 11.5h1l2 2 1 1 1 1 1 1c1.429 0 4 1.288 4 3Z"/><path fill="#AAA9A7" id="V4" d="M183 185h2l-2-1v1ZM272 185h1v-1l-1 1Z"/><path fill="#FEB1D9" id="SPIV" d="m188 203-11 4c-3.809 0-6-5.86-6-9 0-1.024 5.907-9 1-9l1-2c2.979 0 6.23-2 10-2h4c0 1.643 3.765 1 5 1l1 1c0 5.697-4 9.854-4 15l-1 1Z"/><path fill="#AAA9A7" id="V4" d="m193 186 7 1c0-2.018-10.777-2-13-2 0 1.643 3.765 1 5 1h1ZM264 186h1c1.235 0 5 .643 5-1-1.574 0-9-.751-9 1h3Z"/><path fill="#FEB1D9" id="SPIV" d="m268 203 11 4c5.296 0 6-5.535 6-10-3.681 0-1-6.754-1-8v-2c-3.62 0-6.768-2-11-2h-3c0 1.643-3.765 1-5 1l-1 1c0 5.887 4 11.254 4 15v1Z"/><path fill="#FF9BCD" id="MY" d="M193 186v1l-1-1h1Z"/><path fill="#FFB0D7" id="MV" d="M189 202h18c0-1.579 2.855-1 4-1h1l4-4c0-3.11-5-3.662-5-6h-1l-8-4h-2l-7-1v1c0 5.697-4 9.854-4 15Z"/><path fill="#AAA9A7" id="V4" d="M261 186c-1.235 0-5-.643-5 1 1.235 0 5 .643 5-1Z"/><path fill="#FFB0D7" id="MV" d="M267 202h1c0-3.746-4-9.113-4-15v-1h-3c0 1.643-3.765 1-5 1h-1c0 1.473-1.952 1-3 1l-2 1h-1l-1 1h-1l-1 1h-1l-1 1-4 5 4 4h1c1.235 0 5-.643 5 1h17Z"/><path fill="#FF9BCD" id="MY" d="m265 186-1 1v-1h1Z"/><path fill="#F0F080" id="CB" d="m171 187-2 1 2-1Z"/><path fill="#FF9BCD" id="MY" d="M167 189h5l1-2h-2l-2 1-2 1Z"/><path fill="#AAA9A7" id="V4" d="M202 187c1.698 0 8 1.768 8 4l-8-4ZM255 187c-1.048 0-3-.473-3 1 1.048 0 3 .473 3-1Z"/><path fill="#FF9BCD" id="MY" d="M284 189h5l-2-1-2-1h-1v2Z"/><path fill="#F0F080" id="CB" d="m285 187 2 1-2-1Z"/><path fill="#FFFC8D" id="PFL" d="M131 203c0 1.638-3.576 2-5 2-4.536 0-7 1.512-7-5 0-1.89 4.153-12 6-12 0 2.97 6 10.034 6 15Z"/><path fill="#AAA9A7" id="V4" d="m252 188-2 1 2-1Z"/><path fill="#FFFC8D" id="PFL" d="M325 203c0 1.638 3.576 2 5 2l4.5 2c4.698 0-.617-7 3.5-7l-6-12c-3.055 0-7 12.538-7 15Z"/><path fill="#FFA2D2" id="ECU" d="M160 193c0 11.528 3.586 5 11 5 0-1.024 5.907-9 1-9h-5l-5 2-1 1-1 1Z"/><path fill="#AAA9A7" id="V4" d="m249 189-1 1 1-1Z"/><path fill="#FFA2D2" id="ECU" d="m296 192 1 4c0 8.417-8.8 1-12 1-3.681 0-1-6.754-1-8h5c3.047 0 4.462 3 7 3Z"/><path fill="#AAA9A7" id="V4" d="m247 190-1 1 1-1Z"/><path fill="#FF9BCD" id="MY" d="m162 191-1 1 1-1Z"/><path fill="#AAA9A7" id="V4" d="M237 200h1l2-3 4-5c-5.307 0-22.624 3.438-27.5 1l-5.5-2c0 2.338 5 2.89 5 6l3 2.5c1.842 3.684 7.647 12.353 12 8l2-2.5-7.5 1-3.5-4.5c-.733-1.465-4.975-4.05-4-6 1.36-2.719 18.64-2.719 20 0l-1 4.5ZM245 191l-1 1 1-1Z"/><path fill="#FF9BCD" id="MY" d="m161 192-1 1 1-1ZM323 219l3 1-7-12-2-3c-1.114 0-4-2.034-4-3l-1-1-1-1-1-1-2-2h-1l-11-5 1 4c0 8.417-8.8 1-12 1 0 4.465-.704 10-6 10 0 2.33 4 3.227 4 6 3.965 0 6.43-11.535 13.5-8 4.781 2.39 9.171 5.585 14 8l4.5 4c0-3.29-26.896-17-15.5-17 1.217 0 3.658 1 5.5 1l-4-3.5c0-.082 9 2.324 9 5.5l9 11 4 4v1Z"/><path fill="#FF9BCD" id="MY" fill-rule="evenodd" d="M154 197c0 1.93 1.93 0 0 0m-23 22h2l1-1 1-2 1-1 1-1 1-1 8-10 1-1h1l1-1c0-5.011 8.045-1 3-1 0 2.518 9-1.259 9 1.5 0 3.284-8 2.819-8 6.5 3.601 0 7.485-5.007 11.5-3 2.185 1.092 6.373 7 8.5 7l4-5c-3.809 0-6-5.86-6-9-7.414 0-11 6.528-11-5-4.51 0-6.642 4-11 4l-2 1-1 1-1 1-1 1-1 1-1 1-1 1-1 1-2 2-1 1v1l-2 2-4 8Z"/><path fill="#A9AAA8" id="chpl" d="M235 202c-1.577 0-2 1.762-2 3l-7.5 1-3.5-4.5c-.733-1.465-4.975-4.05-4-6 1.36-2.719 18.64-2.719 20 0l-1 4.5-1 1-1 1Z"/><path fill="#A9AAA7" id="V4r" d="m149 197-2 1 2-1Z"/><path fill="#C9C9C8" id="icp" d="M154 197c0 1.93 1.93 0 0 0Z"/><path fill="#FF9BCD" id="MY" fill-rule="evenodd" d="M235 217c0 9.194 12.224 0 3 0h-3m-20 0c0 8.898 7.271.886 5.5 0H215m5-14c0 1.93 1.93 0 0 0m7 41 2 2v-20.5l2 1.5h6c0-6.131 5.558-4.385 6-3.5 1.189 2.377-2 2.116-2 3.5h3c0-4.633 5.387-10 10-10l-2-4c-2.847 0-11-2.943-11-6.5l2-2.5c-1.176 0-7 3.664-7 1l-1-1-2 1-2 2.5c-4.353 4.353-10.158-4.316-12-8l-3-2.5-4 4h5c0-1.186 1-1.186 1 0l2 3.5c2.475 4.95-6.105-1.5-7-1.5 0 2.409 1.277 1.055 2 2.5 2.572 5.145-9.698 6.5-11 6.5 0 2.009-2 2.991-2 5 4.631 0 11 5.309 11 10h2l-2-3.5c1.236-2.472 7-.78 7 3.5h5l1.5-2 .5 4.5c2.337 4.674 0 9.52 0 14.5Z"/><path fill="#FF9BCD" id="MY" d="M239 201h5l-4-4-2 3 1 1Z"/><path fill="#C9C9C8" id="icp" d="m305 201 5 2c0-3.176-9-5.582-9-5.5l4 3.5Z"/><path fill="#A9AAA7" id="V4r" d="m308 197 2 2-2-2Z"/><path fill="#C9C9C8" id="icp" d="M152 200c5.045 0-3-4.011-3 1l3-1Z"/><path fill="#A9AAA7" id="V4r" d="m146 199-1 1 1-1Z"/><path fill="#F0F080" id="CB" d="m126 205-2 6c-2.701 0-5.359-2.43-8.5-4-1.503-.752-10.5-.201-10.5-2l14-5c0 6.512 2.464 5 7 5Z"/><path fill="#C8CACA" id="sptV" fill-rule="evenodd" d="m144 209-2.5 4c.846.423 7.16-4 2.5-4m-7 64c3.351 0 5.596 3 8 3 10.391 0-3-6.714-3-7h-2l-2-2h-1c-1.533 0-4-3.753-4-5v-1c-1.577 0-2-1.762-2-3v-1l-1-2v-1l-1-1v-2l-1-1v-3c-1.186 0-1.186-1 0-1l1-11 1-2v-1l1-1v-2l1-1 1-1 1-2 1-1 1-1 1-1 1-1 1-1 1-1 1-1 1-1 1-1 1-1 1-1 1-1 1-1 1-1c0-1.577 1.762-2 3-2l2-1c0-3.681 8-3.216 8-6.5 0-2.759-9 1.018-9-1.5l-3 1-1 1h-1l-1 1-8 10-1 1-1 1-1 1-1 2-1 1-2 2c0 1.238-.423 3-2 3 0 1.465.109 4-2 4 0 1.465.109 4-2 4v2l-1 2v1c0 1.048.473 3-1 3v11c1.473 0 1 1.952 1 3v1l1 2v2l2 3v2c2.895 0 3.509 6 7 6l3 3Z"/><path fill="#FFB3D7" id="PRP" d="M217 201h1c0-1.186-1-1.186-1 0Z"/><path fill="#AAA9A7" id="V4" d="m237 200-1 1 1-1Z"/><path fill="#FF9BCD" id="MY" d="M235 203h2l2-2-1-1h-1l-1 1-1 1v1Z"/><path fill="#FFB3D7" id="PRP" d="m238 200 1 1-1-1Z"/><path fill="#C8CACA" id="sptV" fill-rule="evenodd" d="M311 209c0 8.111 7.669 0 0 0m8 64c-3.47 0-5.278 3-8 3-2.061 0-4-.902-4-3l7-4h2l1-1h1l1-1 1-1 1-1 1-1 1-1v-1l1-1v-1l1-1v-1l1-2v-1l1-1v-1l1-2v-2c1.587 0 1.587-6 0-6l-1-10-1-1v-1l-1-1v-1l-2-2v-1l-6-6-1-1-1-1v-1c0-3.29-26.896-17-15.5-17 1.217 0 3.658 1 5.5 1l5 2 9 11 4 4v1c0 2.195 5.885 8.27 7 10.5.699 1.397 1.242 8.5 3 8.5v15c-1.473 0-1 1.952-1 3v1l-1 2v1l-1 1v2l-1 1v1c-1.747 0-2 .253-2 2l-6 5-2 1Z"/><path fill="#A9AAA7" id="V4r" d="m311 200 1 1-1-1Z"/><path fill="#F0F080" id="CB" d="M352 205c0 1.715-9.962 1.231-11.5 2l-7.5 5-3-7 4.5 2c4.698 0-.617-7 3.5-7 5.105 0 8.695 5 14 5Z"/><path fill="#A9AAA7" id="V4r" d="m144 201-1 1 1-1Z"/><path fill="#C9C9C8" id="icp" d="m149 201-1 1 1-1Z"/><path fill="#FF9BCD" id="MY" d="M207 203h5l-1-2c-1.145 0-4-.579-4 1v1Z"/><path fill="#FDA5D1" id="NTS" d="M212 203h1c.895 0 9.475 6.45 7 1.5l-2-3.5h-7l1 2Z"/><path fill="#AAA9A7" id="V4" d="m236 201-1 1 1-1Z"/><path fill="#FDA5D1" id="NTS" d="M243 204c-1.176 0-7 3.664-7 1l1-1v-1l2-2h6l-1 2-1 1Z"/><path fill="#FF9BCD" id="MY" d="M244 203h5l1-1c0-1.643-3.765-1-5-1l-1 2Z"/><path fill="#A9AAA7" id="V4r" d="m143 202-1 1 1-1Z"/><path fill="#C9C9C8" id="icp" d="m147 202-1 1 1-1Z"/><path fill="#FF9BCD" id="MY" d="m189 202-1 1 1-1Z"/><path fill="#FDA5D1" id="NTS" d="m177 220 2 1c5.777 0 12.442-2 18-2l5-2c0-2.009 2-2.991 2-5 0-3.365-4.881-9 3-9v-1h-18l-1 1-11 4-4 5 4 8Z"/><path fill="#AAA9A7" id="V4" d="m235 204-2 1c0-1.238.423-3 2-3v2Z"/><path fill="#FDA5D1" id="NTS" d="m279 220-2 1c-5.207 0-12.085-2-17-2h-1l-5-2-2-4c0-3.623 6.122-10-3-10l1-1h17l1 1 11 4c0 2.33 4 3.227 4 6 0 2.919-4 4.243-4 7Z"/><path fill="#FF9BCD" id="MY" d="M268 202v1l-1-1h1Z"/><path fill="#A9AAA7" id="V4r" d="M313 202c1.429 0 4 1.288 4 3-1.114 0-4-2.034-4-3ZM142 203l-1 1 1-1Z"/><path fill="#FDB1D8" id="DMX" d="M213 203c0 2.409 1.277 1.055 2 2.5 2.572 5.145-9.698 6.5-11 6.5 0-3.365-4.881-9 3-9h6Z"/><path fill="#FFB3D7" id="PRP" d="M220 203c0 1.93 1.93 0 0 0ZM237 204l-1 1-1-1v-1h2v1Z"/><path fill="#FF9BCD" id="MY" d="m244 203-1 1 1-1Z"/><path fill="#FDB1D8" id="DMX" d="m243 204-2 2.5c0 3.557 8.153 6.5 11 6.5 0-3.623 6.122-10-3-10h-5l-1 1Z"/><path fill="#A9AAA7" id="V4r" d="m141 204-1 1 1-1Z"/><path fill="#FF9BCD" id="MY" d="m237 204-1 1 1-1Z"/><path fill="#FDA5D2" id="SPVI" d="M142 269h6c11.107 0 7.462-20.423 11-27.5 3.296-6.591 18-9.691 18-18.5v-3l-4-8c-2.127 0-6.315-5.908-8.5-7-4.015-2.007-7.899 3-11.5 3l-2 1c0 1.577-1.762 2-3 2l-1 1-1 1-1 1-1 1-1 1-1 1-1 1-1 1-1 1-1 1-1 1-1 1-1 1-1 1-1 2-1 1-1 1v2l-1 1v1l-1 2-1 11v4l1 1v2l1 1v1l1 2v1l2 3v1l4 5h1l2 2h2ZM314 269h2l1-1h1l1-1 1-1 1-1 1-1 1-1v-1l1-1v-1l1-1v-1l1-2v-1l1-1v-1l1-2v-8l-1-10-1-1v-1l-1-1v-1l-2-2v-1l-6-6-1-1-1-1v-1l-4.5-4c-4.829-2.415-9.219-5.61-14-8-7.07-3.535-9.535 8-13.5 8 0 2.919-4 4.243-4 7v3c0 8.969 14.465 10.43 18 17.5 3.182 6.365.878 28.5 11 28.5h6Z"/><path fill="#A9AAA7" id="V4r" d="m138 207-1 1 1-1Z"/><path fill="#FF9BCD" id="MY" d="m153 208-2 1 2-1Z"/><path fill="#A9AAA7" id="V4r" d="M137 209c-1.747 0-2 .253-2 2l2-2Z"/><path fill="#FDA3D1" id="Pa5" d="m144 209-2.5 4c.846.423 7.16-4 2.5-4Z"/><path fill="#FF9BCD" id="MY" d="M151 209c-1.238 0-3 .423-3 2 1.238 0 3-.423 3-2Z"/><path fill="#FDA3D1" id="Pa5" d="M311 209c0 8.111 7.669 0 0 0Z"/><path fill="#FF9BCD" id="MY" d="m148 211-1 1 1-1ZM147 212l-1 1 1-1Z"/><path fill="#C9C9C8" id="icp" d="m138 213-1 1 1-1Z"/><path fill="#FF9BCD" id="MY" d="m145 214-1 1 1-1Z"/><path fill="#C9C9C8" id="icp" d="m319 214 4 4-4-4ZM136 215l-1 1 1-1Z"/><path fill="#FF9BCD" id="MY" d="m143 216-1 1 1-1ZM142 217l-1 1 1-1Z"/><path fill="#FFB2D8" id="IRN" d="M180 265c1.048 0 3-.473 3 1 1.182 0 6.389-3 11-3 0-5.038 18-28.767 18-35l1-1c0-4.691-6.369-10-11-10l-5 2-8 12.5c-4.259 8.518-9.776 16.553-14 25l-5 6.5c.986 0 6 1.087 6 2h4Z"/><path fill="#FEB1D7" id="XII" d="M215 217c0 8.898 7.271.886 5.5 0H215ZM235 217c0 9.194 12.224 0 3 0h-3Z"/><path fill="#FFB2D8" id="IRN" d="M276 265h4c0-.675 5.294-2 6-2 0-3.034-3.725-4.95-5-7.5l-14-25-7-10.5-1-1-5-2c-4.613 0-10 5.367-10 10l18 36c3.702 0 7.27 2 10 2l1 1 3-1Z"/><path fill="#C9C9C8" id="icp" d="m134 218-1 1 1-1Z"/><path fill="#FF9BCD" id="MY" d="m141 218-1 1 1-1ZM315 218l1 1-1-1Z"/><path fill="#C9C9C8" id="icp" d="M131 220v1l2-2h-2v1Z"/><path fill="#FF9BCD" id="MY" d="m140 219-1 1 1-1Z"/><path fill="#FCB3D9" id="PARN" d="M163 270c-2.053 0-8 2.129-8 5-2.643 0-7-3.108-7-6 11.107 0 7.462-20.423 11-27.5 3.296-6.591 18-9.691 18-18.5 1.747 0 2-.253 2-2 5.777 0 12.442-2 18-2l-8 12.5c-4.259 8.518-9.776 16.553-14 25l-5 6.5-1 1-2 1 2-4.5c0-4.719-5 6.897-5 8.5l-1 1Z"/><path fill="#FF9BCD" id="MY" d="M260 219v1l-1-1h1Z"/><path fill="#FCB3D9" id="PARN" d="M307 273c-2.447 0-3.28 2-6 2 0-3.138-4.489-5-7-5l-1-1c0-1.867-4.101-10.298-5-8.5-1.209 2.419 4 6.47 4 8.5h-1l-4-5-1-1c0-3.034-3.725-4.95-5-7.5l-14-25-7-10.5v-1c4.915 0 11.793 2 17 2l2 2c0 8.969 14.465 10.43 18 17.5 3.182 6.365.878 28.5 11 28.5l-1 4Z"/><path fill="#C9C9C8" id="icp" d="M329 226c0 3.8 4 7.62 4 12-1.758 0-2.301-7.103-3-8.5-1.115-2.23-7-8.305-7-10.5l3 1 2 4 1 1v1Z"/><path fill="#FF9BCD" id="MY" d="M130 221h1v-1l-1 1ZM179 221c0 1.747-.253 2-2 2v-3l2 1ZM277 221l2 2v-3l-2 1ZM317 220l6 6-6-6ZM130 221l-1 1 1-1Z"/><path fill="#C9C9C8" id="icp" d="M129 223v1c1.577 0 2-1.762 2-3h-1l-1 1v1Z"/><path fill="#FF9BCD" id="MY" d="m138 221-1 1 1-1ZM128 224h1v-1l-1 1ZM136 223l-1 1 1-1Z"/><path fill="#FFB1D9" id="NR" d="M215 227h5c0-4.28-5.764-5.972-7-3.5l2 3.5ZM237 227h4c0-1.384 3.189-1.123 2-3.5-.442-.885-6-2.631-6 3.5Z"/><path fill="#C9C9C8" id="icp" d="M127 226v2c2.109 0 2-2.535 2-4h-1v1l-1 1Z"/><path fill="#FF9BCD" id="MY" d="m328 224 1 1-1-1ZM123 240v11c-1.7 0-1-5.137-1-6.5l1-16c.809-1.619 2-1.471 2-3.5l2 1v2l-2 4v2l-1 2v1c-1.473 0-1 1.952-1 3ZM128 225l-1 1 1-1ZM134 225l-1 2 1-2Z"/><path fill="#CBCBCC" id="mlf" d="m225 227 1.5-2 .5 4.5c2.337 4.674 0 9.52 0 14.5 0 4.974-2-13.182-2-17ZM231 227v14c0 1.888-2 7.018-2 5v-20.5l2 1.5Z"/><path fill="#FF9BCD" id="MY" d="M333 243c1.643 0 1 3.765 1 5 1.665 0 1-4.222 1-5.5 0-2.423-.792-16.5-4-16.5h-2c0 3.8 4 7.62 4 12v5ZM133 227l-1 1 1-1ZM213 227l-1 1 1-1Z"/><path fill="#FEB0D8" id="GRN" d="M240 271c2.262 0 8.239 4.869 10.5 6 3.397 1.698 5.529-1 8.5-1 0-2.825-8.542-13 3-13l-18-36h-13v14c0 1.888-2 7.018-2 5l-2-2c0 4.974-2-13.182-2-17h-12l-1 1c0 6.233-18 29.962-18 35 9.79 0 4 8.882 4 13l3.5 2c5.23 0 10.888-7 15.5-7v-1l1-1c3.655 0 2.692-14 9-14 0-4.907 2-5.671 2 0 7.555 0 5.827 16 11 16Z"/><path fill="#FF9BCD" id="MY" d="m323 227 2 2-2-2Z"/><path fill="#C9C9C8" id="icp" d="m127 228-2 4c2.109 0 2-2.535 2-4Z"/><path fill="#FF9BCD" id="MY" d="m132 228-1 1 1-1ZM325 230l1 1-1-1ZM131 231l-1 1 1-1ZM326 232l1 1-1-1ZM130 233l-1 2 1-2Z"/><path fill="#C9C9C8" id="icp" d="m125 234-1 2 1-2ZM124 237c-1.473 0-1 1.952-1 3 1.473 0 1-1.952 1-3Z"/><path fill="#FF9BCD" id="MY" d="M328 243c1.587 0 1.587 6 0 6v-6Z"/><path fill="#C9C9C8" id="icp" d="M333 249h1v-1c0-1.235.643-5-1-5v6Z"/><path fill="#FF9BCD" id="MY" d="M128 246c-1.186 0-1.186 1 0 1v-1ZM333 253v1c1.643 0 1-3.765 1-5h-1v4ZM128 250l1 1-1-1Z"/><path fill="#FEC6E2" id="RO" d="M230 265c-1.473 0-1 1.952-1 3-1.577 0-2-1.762-2-3v-10c0-4.907 2-5.671 2 0l1 10Z"/><path fill="#C9C9C8" id="icp" d="M123 254h1c0-1.048.473-3-1-3v3Z"/><path fill="#FF9BCD" id="MY" d="m328 251-1 2 1-2ZM129 253l1 1-1-1Z"/><path fill="#C9C9C8" id="icp" d="M332 256h1v-3c-1.473 0-1 1.952-1 3Z"/><path fill="#FF9BCD" id="MY" d="M125 257v2c-1.638 0-2-3.576-2-5h1v1l1 2ZM327 254l-1 1 1-1Z"/><path fill="#C9C9C8" id="icp" d="m124 255 1 2-1-2Z"/><path fill="#FF9BCD" id="MY" d="m130 255 1 2-1-2Z"/><path fill="#C8C8CC" id="tspc" d="m220 273-1 1c-2.293 0-2-.997-2-3v-1l1-1c3.655 0 2.692-14 9-14v10l-2 2-5 6ZM240 271c0 3.97-2.104 2-4 2l-5-6-1-2-1-10c7.555 0 5.827 16 11 16Z"/><path fill="#FF9BCD" id="MY" d="m326 256-1 2 1-2ZM332 257v1l1-2h-1v1Z"/><path fill="#C9C9C8" id="icp" d="M331 259h1v-2l-1 2Z"/><path fill="#FF9BCD" id="MY" d="m131 258 2 3c-1.577 0-2-1.762-2-3Z"/><path fill="#C9C9C8" id="icp" d="m125 261 2 1-2-3v2Z"/><path fill="#FF9BCD" id="MY" d="m325 259-1 1 1-1ZM332 259l-1 1v-1h1Z"/><path fill="#FFB1D8" id="LIN" d="M164 269h1l1-2 1-1v-1l2-4.5c0-4.719-5 6.897-5 8.5ZM292 269h1c0-1.867-4.101-10.298-5-8.5-1.209 2.419 4 6.47 4 8.5Z"/><path fill="#C9C9C8" id="icp" d="M330 261h1v-1l-1 1Z"/><path fill="#FF9BCD" id="MY" d="M127 262v1l-2-2 2 1ZM324 261l-1 1 1-1ZM331 261l-1 2v-2h1ZM133 262l4 5c-1.533 0-4-3.753-4-5ZM176 265c-6.271 0-4.398 5 1 5 0 2.239-5.48.54-6-.5-1.108-2.216 1.813-5.5-2-5.5l1-1c.986 0 6 1.087 6 2Z"/><path fill="#FCB3D7" id="LRNm" d="M198 276c-3.809 0-7.238 8-12 8-12.363 0-3-11.874-3-18 1.182 0 6.389-3 11-3 9.79 0 4 8.882 4 13ZM259 276c0 3.014 8.691 8 11 8 12.72 0 3-12.181 3-18l-1-1c-2.73 0-6.298-2-10-2-11.542 0-3 10.175-3 13Z"/><path fill="#FF9BCD" id="MY" d="m280 265 5 1 2-2-1-1c-.706 0-6 1.325-6 2ZM323 263l-1 1 1-1ZM330 263l-1 1 1-1Z"/><path fill="#FF9BCD" id="MY" fill-rule="evenodd" d="M239 290c0 1.723-4.553.393-3 3.5 1.792 3.585 15.879 9.242 18 5 2.703-5.406-11.152-8.5-15-8.5m-32 1c0 2.99-5 5.204-5 7.5 0 3.074 4.791.5 5.5.5 8.145 0 20.689-9 5.5-9l-6 1m78-4c0 4.09 6.391 0 9 0 0 3.456-12 4.046-12 6.5 0 1.308 4.791-.5 5.5-.5 2.04 0 12.5-4.743 12.5-7l1-1c0 1.579 2.855 1 4 1l-9.5 5c-6.745 3.373-14.322 4.661-21 8l-13 1c-7.59 3.795-20.607.196-27-3l-5-3-1-2-2 3c-4.513 2.257-9.437 3.719-14 6-3.168 1.584-14.298.351-17-1l-17-2c-4.679-2.34-10.401-2.7-15-5-6.976-3.488-12.965-8.483-20-12-4.573-2.286-16.5-11.131-16.5-17 2.895 0 3.509 6 7 6l2 3c0 3.683 11.783 10.641 14.5 12 .774.387 4.5 2.186 4.5 0h1c0 2.766 9.677 8 12.5 8 .612 0 6.5 2.014 6.5.5 0-2.454-12-3.044-12-6.5 3.612 0 8 4.288 8-1 3.627 0 15 8.168 15-2 4.762 0 8.191-8 12-8l3.5 2c5.23 0 10.888-7 15.5-7 0 2.003-.293 3 2 3l-2.5 5c-1.04 0 .09-4.545-3-3-6.704 3.352-12.271 9.636-19 13-1.383.692-9.5 3.451-9.5 5.5 0 4.731 10.946-3.5 11.5-3.5 1.42 0-2.095 4.311-1.5 5.5l4.5 1.5 7.5-7 2.5-2h6l9.5-4c0 8.365 6 7.895 6-1l6.5 4c3.864 1.932 9.021 1.01 13 3 2.354 1.177 4.114 9.443 9 7 3.491-1.746-.391-6.805 0-7 .324-.162 11.5 8.245 11.5 3.5 0-2.58-9.788-5.644-11.5-6.5-3.683-1.842-14.985-14.007-19-12-1.844.922 2.963 5 1 5l-5.5-8c1.896 0 4 1.97 4-2 2.262 0 8.239 4.869 10.5 6 3.397 1.698 5.529-1 8.5-1 0 3.014 8.691 8 11 8 0 8.976 11.385 3 15 3Z"/><path fill="#FCB2D9" id="PGRNl" d="M186 284c0 10.168-11.373 2-15 2 0-1.622-2.996-7-5-7l-1-1v-9l1-2 1-1v-1l2-1c3.813 0 .892 3.284 2 5.5.52 1.04 6 2.739 6 .5v-1l3-4c1.048 0 3-.473 3 1 0 6.126-9.363 18 3 18ZM270 284c0 8.976 11.385 3 15 3 0-3.016 3.3-8 6-8v-10l-4-5-2 2v1c1.399 0 1.399 2 0 2l-1 1c0 1.535-4 1.535-4 0l-1-1-3-4-3 1c0 5.819 9.72 18-3 18Z"/><path fill="#FF9BCD" id="MY" d="m322 264-1 1 1-1Z"/><path fill="#FEB3D8" id="AMBv" d="M177 269v1c-5.398 0-7.271-5-1-5h1v4Z"/><path fill="#FF9BCD" id="MY" d="m180 265-3 4v-4h3ZM227 278h2v-10c-1.577 0-2-1.762-2-3l-2 2c3.644 0 2 9.702 2 11ZM231 267l-2 1c0-1.048-.473-3 1-3l1 2ZM272 265l1 1-1-1ZM280 265l-1 4-3-4h4Z"/><path fill="#FEB3D8" id="AMBv" d="M280 270h4l1-1v-3l-5-1-1 4 1 1Z"/><path fill="#FF9BCD" id="MY" d="m321 265-1 1 1-1ZM329 265c-1.747 0-2 .253-2 2l2-2Z"/><path fill="#FCB3D9" id="PARN" d="m167 266-1 1 1-1Z"/><path fill="#FF9BCD" id="MY" d="m320 266-1 1 1-1ZM138 267l2 2-2-2Z"/><path fill="#FCB3D9" id="PARN" d="m166 267-1 2 1-2Z"/><path fill="#FFB3D8" id="IO" fill-rule="evenodd" d="M201 293c0 1.93 1.93 0 0 0m1-1c0 1.93 1.93 0 0 0m1-2c0 1.93 1.93 0 0 0m1-1c0 1.93 1.93 0 0 0m1-1c0 1.93 1.93 0 0 0m1-1c0 1.93 1.93 0 0 0m1-1c0 1.93 1.93 0 0 0m1-1c0 1.93 1.93 0 0 0m2-2c0 4.42 1.206 0 0 0m2-1c0 1.93 1.93 0 0 0m1-1c0 1.93 1.93 0 0 0m1-1c0 1.93 1.93 0 0 0m1-1c0 1.93 1.93 0 0 0m10 6-9.5 4h-6l-2.5 2-7.5 7-4.5-1.5c-.595-1.189 2.92-5.5 1.5-5.5-.554 0-11.5 8.231-11.5 3.5 0-2.049 8.117-4.808 9.5-5.5 6.729-3.364 12.296-9.648 19-13 3.09-1.545 1.96 3 3 3l2.5-5 1-1 5-6c3.644 0 2 9.702 2 11l-1 5-1 2ZM243 281c0 2.26 5.442 5.942 7.5 8 .45.45 4.5 5.473 4.5 3.5L243 281m-14-3 2 6 6.5 4c3.864 1.932 9.021 1.01 13 3 2.354 1.177 4.114 9.443 9 7 3.491-1.746-.391-6.805 0-7 .324-.162 11.5 8.245 11.5 3.5 0-2.58-9.788-5.644-11.5-6.5-3.683-1.842-14.985-14.007-19-12-1.844.922 2.963 5 1 5l-5.5-8-5-6-2 1v10Z"/><path fill="#FF9BCD" id="MY" d="M285 267c1.399 0 1.399 2 0 2v-2ZM319 267l-1 1 1-1ZM320 273v2c2.073 0 7-6.148 7-8l-6 5-1 1ZM317 268l-1 1 1-1ZM158 279c-3.447 0-6-5.015-6 2l-7-5c10.391 0-3-6.714-3-7h6c0 2.892 4.357 6 7 6l3 4ZM163 270l2 1v-2h-1l-1 1ZM218 269l-1 1 1-1ZM285 269l-1 1 1-1ZM294 270l-3 2v-3h2l1 1ZM314 269l-7 4 1-4h6Z"/><path fill="#C9C9C8" id="icp" d="M136 273h1l-3-3 2 3Z"/><path fill="#FCB3D7" id="LRNm" d="M163 279h1l1-1v-7l-2-1c-2.053 0-8 2.129-8 5l3 4h5Z"/><path fill="#FF9BCD" id="MY" d="M280 270h4c0 1.535-4 1.535-4 0Z"/><path fill="#FCB3D7" id="LRNm" d="m301 277-4 2c-2.518 0-4.286-2-6-2v-5l3-2c2.511 0 7 1.862 7 5v2Z"/><path fill="#C9C9C8" id="icp" d="M319 273h1l1-1-2 1Z"/><path fill="#C9CACA" id="sctd" d="m152 281 3 4c0 2.186-3.726.387-4.5 0-2.717-1.359-14.5-8.317-14.5-12h1c3.351 0 5.596 3 8 3l7 5Z"/><path fill="#FF9BCD" id="MY" d="m220 273-1 1 1-1ZM301 277c2.343 0 4 .285 4 3l6-4c-2.061 0-4-.902-4-3-2.447 0-3.28 2-6 2v2Z"/><path fill="#C9CACA" id="sctd" d="m306 285-1 1c-1.145 0-4 .579-4-1l3-4 1-1 6-4c2.722 0 4.53-3 8-3h1v2l-1 1-1 1c-1.238 0-3 .423-3 2-1.747 0-2 .253-2 2l-2 1c-1.408 0-5 1.197-5 3Z"/><path fill="#FF9BCD" id="MY" d="m320 275-1 1 1-1ZM319 276l-1 1 1-1Z"/><path fill="#FEB0D9" id="LRNp" d="M156 285c1.835 0 4.235 2 7 2 0-2.124-1-4.436-1-6l-2-2h-2c-3.447 0-6-5.015-6 2l3 4h1Z"/><path fill="#FF9BCD" id="MY" d="m297 279-2 1-4-1v-2c1.714 0 3.482 2 6 2Z"/><path fill="#FEB0D9" id="LRNp" d="m300 286-6 1-1-4.5 2-2.5 2-1 4-2c2.343 0 4 .285 4 3l-1 1-3 4-1 1Z"/><path fill="#FF9BCD" id="MY" d="M318 277c-1.238 0-3 .423-3 2 1.238 0 3-.423 3-2ZM164 279h2l-1-1-1 1Z"/><path fill="#FFC6E2" id="RPA" d="M231 284c0 8.895-6 9.365-6 1l1-2 1-5h2l2 6Z"/><path fill="#FF9BCD" id="MY" d="m163 279-1 2-2-2h3Z"/><path fill="#C8C8CB" id="rust" d="M171 286c0 5.288-4.388 1-8 1 0-2.124-1-4.436-1-6l1-2h3c2.004 0 5 5.378 5 7Z"/><path fill="#FF9BCD" id="MY" d="M215 279c0 1.93 1.93 0 0 0Z"/><path fill="#C8C8CB" id="rust" d="M285 287c0 4.09 6.391 0 9 0l-1-4.5 2-2.5-4-1c-2.7 0-6 4.984-6 8Z"/><path fill="#FF9BCD" id="MY" d="M315 279c-1.747 0-2 .253-2 2l2-2ZM214 280c0 1.93 1.93 0 0 0ZM305 280l-1 1 1-1ZM213 281c0 1.93 1.93 0 0 0ZM243 281c0 2.26 5.442 5.942 7.5 8 .45.45 4.5 5.473 4.5 3.5L243 281ZM313 281l-2 1 2-1ZM212 282c0 1.93 1.93 0 0 0ZM311 282c-1.408 0-5 1.197-5 3 1.408 0 5-1.197 5-3ZM210 283c0 4.42 1.206 0 0 0ZM226 283l-1 2 1-2Z"/><path fill="#CBC7CC" id="sctv" d="M156 285c1.835 0 4.235 2 7 2 0 3.456 12 4.046 12 6.5 0 1.514-5.888-.5-6.5-.5-2.823 0-12.5-5.234-12.5-8Z"/><path fill="#FF9BCD" id="MY" d="M208 285c0 1.93 1.93 0 0 0ZM306 285l-1 1 1-1ZM207 286c0 1.93 1.93 0 0 0Z"/><path fill="#CBC7CC" id="sctv" d="m300 286-6 1c0 3.456-12 4.046-12 6.5 0 1.308 4.791-.5 5.5-.5 2.04 0 12.5-4.743 12.5-7Z"/><path fill="#FF9BCD" id="MY" d="M206 287c0 1.93 1.93 0 0 0ZM205 288c0 1.93 1.93 0 0 0ZM204 289c0 1.93 1.93 0 0 0ZM203 290c0 1.93 1.93 0 0 0Z"/><path fill="#C7C9C9" id="py" d="M207 291c0 2.99-5 5.204-5 7.5 0 3.074 4.791.5 5.5.5 8.145 0 20.689-9 5.5-9l-6 1ZM239 290c0 1.723-4.553.393-3 3.5 1.792 3.585 15.879 9.242 18 5 2.703-5.406-11.152-8.5-15-8.5Z"/><path fill="#FF9BCD" id="MY" d="M202 292c0 1.93 1.93 0 0 0ZM201 293c0 1.93 1.93 0 0 0Z"/></svg>