<svg xmlns="http://www.w3.org/2000/svg" viewBox="0 0 456 320"><path fill="#098589" id="VISp1" d="m82 56 3 3c3.66 0 14.401-11.95 18.5-14 20.446-10.223 39.788-24 64.5-24l-1-4c-24.973 0-45.662 14.58-66.5 25C98.093 43.203 82 53.622 82 56Z"/><path fill="#0A8589" id="VISpm1" d="M168 21h1l7-1v-3h-9l1 4Z"/><path fill="#1BA696" id="RSPagl1" d="M176 20c3.912 0 14.998 3 17 3l1-4c0-3.287-15.192-2-18-2v3ZM281 20c-5.15 0-13.942 3-18 3v-4c0-3.287 15.192-2 18-2v3Z"/><path fill="#0A8589" id="VISpm1" d="m281 20 7 1 1-4h-8v3Z"/><path fill="#098589" id="VISp1" d="m374 55-3 4-18.5-14c-20.673-10.337-39.469-24-64.5-24l1-4c22.987 0 44.281 12.39 63.5 22 3.588 1.794 19.595 16 21.5 16Z"/><path fill="#1BA598" id="RSPd1" d="M175 54c0 2.43 3-1.935 3 1l7.5-6c5.32-2.66 18.564-7.629 21.5-13.5 3.996-7.993-6.401-16.5-13-16.5l-1 4c5.962 0 6.98 9.54 5 13.5-2.27 4.54-23 14.261-23 17.5ZM280 55c0-1.93 1.161 0 2 0v-1c-2.307 0-23.502-17.505-25-20.5-1.622-3.244 2.847-10.5 6-10.5v-4c-6.317 0-17.897 8.705-14 16.5 2.199 4.399 18.012 11.256 22.5 13.5 2.338 1.169 3.723 5 6.5 5l1 1h1Z"/><path fill="#08858B" id="VISpm2/3" d="M169 28h5l2-8-7 1v7Z"/><path fill="#1AA496" id="RSPagl2/3" d="M187 31h1c0-2.75 5-4.565 5-8-2.002 0-13.088-3-17-3l-2 8v1c2.276 0 13-2.456 13 2ZM268 31h1c0-4.574 10.872-2 13-2v-1l-1-8c-5.15 0-13.942 3-18 3l5 8Z"/><path fill="#08858B" id="VISpm2/3" d="M282 28h5l1-7-7-1 1 8Z"/><path fill="#0A828C" id="VISp2/3" d="M89 67h1c0-1.574 16.219-10.86 18.5-12 17.831-8.916 39.654-27 60.5-27v-7h-1c-24.712 0-44.054 13.777-64.5 24-4.099 2.05-14.84 14-18.5 14v1c0 2.46 4 4.17 4 7ZM366 67h1c0-2.83 4-4.54 4-7v-1l-18.5-14c-20.673-10.337-39.469-24-64.5-24l-1 7c23.185 0 43.014 18.257 62.5 28 2.064 1.032 16.5 9.475 16.5 11Z"/><path fill="#1BA697" id="RSPd2/3" d="M169 57h2l1-1h1l1-1 1-1c0-3.239 20.73-12.96 23-17.5 1.98-3.96.962-13.5-5-13.5 0 3.435-5 5.25-5 8 0 1.423 1.978 3.544 1 5.5-2.631 5.261-20 16.639-20 20.5ZM287 56l-1 1-2-1-1-1-1-1c-2.307 0-23.502-17.505-25-20.5-1.622-3.244 2.847-10.5 6-10.5l5 8c0 1.423-1.978 3.544-1 5.5 2.033 4.065 8.239 8.87 11.5 10.5l5.5 6 1 1 2 2Z"/><path fill="#0B848B" id="VISp4" d="M93 72h1c0-1.233 14.512-10.006 16.5-11 15.906-7.953 40.662-30 58.5-30v-3c-20.846 0-42.669 18.084-60.5 27C106.219 56.14 90 65.426 90 67c1.077 0 3 3.762 3 5Z"/><path fill="#09828B" id="VISpm4" d="M169 31h1l3-1 1-1v-1h-5v3Z"/><path fill="#1CA697" id="RSPagl5" d="M169 41h2l3.5-3c2.486-1.243 10.046-7 12.5-7 0-4.456-10.724-2-13-2l-1 1c0 1.429-1.288 4-3 4v1l-1 1-3 4c1.048 0 3-.473 3 1ZM287 41c0-2.56 3.334 0 4 0 0-3.444-4-3.129-4-6l-4-5-1-1c-2.128 0-13-2.574-13 2l13.5 8c1.158.58 3.5-.341 3.5 2h1Z"/><path fill="#09828B" id="VISpm4" d="m283 30 4 1v-3h-5v1l1 1Z"/><path fill="#0B848B" id="VISp4" d="m366 67-3 4c-5.532 0-12.585-8.543-17.5-11-14.866-7.433-41.271-29-58.5-29v-3c23.185 0 43.014 18.257 62.5 28 2.064 1.032 16.5 9.475 16.5 11Z"/><path fill="#088489" id="VISpm5" d="M170 31v3c1.712 0 3-2.571 3-4l-3 1ZM287 31v4l-4-5 4 1Z"/><path fill="#088389" id="VISp5" d="m94 72 5 8 14.5-11c12.13-6.065 38.361-28 50.5-28h1l1-1 3-4 1-1v-4h-1c-17.838 0-42.594 22.047-58.5 30-1.988.994-16.5 9.767-16.5 11Z"/><path fill="#1AA596" id="RSPd5" d="m155 63 2 1c3.747 0 4.81-5 9-5l1-1 2-1c0-3.861 17.369-15.239 20-20.5.978-1.956-1-4.077-1-5.5h-1c-2.454 0-10.014 5.757-12.5 7l-3.5 3c0 5.806-9.156 22-16 22ZM301 63l-2 2c0-2.704-6.901-7-10-7l-1-1-1-1-2-2-1-1-5.5-6c-3.261-1.63-9.467-6.435-11.5-10.5-.978-1.956 1-4.077 1-5.5h1l13.5 8c1.158.58 3.5-.341 3.5 2-1.251 0-1.536 4.427-1 5.5 1.534 3.068 13.674 16.5 16 16.5Z"/><path fill="#088389" id="VISp5" d="M357 80h1l5-8v-1c-5.532 0-12.585-8.543-17.5-11-14.866-7.433-41.271-29-58.5-29v4c0 2.871 4 2.556 4 6h2c12.064 0 36.713 22.106 48.5 28 1.822.91 15.5 10.084 15.5 11Z"/><path fill="#088489" id="VISpm5" d="m170 35-1 1 1-1Z"/><path fill="#1CA697" id="RSPagl5" d="m166 40-1 1 1-1Z"/><path fill="#1CA597" id="RSPagl6a" d="m169 41-7.5 5-9.5 9c0-4.599 12-11.065 12-14h1l1-1c1.048 0 3-.473 3 1ZM306 58h1c0-6.623-14-11.318-14-17h-2c-.666 0-4-2.56-4 0 3.192 0 18 13.945 18 17h1Z"/><path fill="#08858C" id="VISp6a" d="M104 87h1c0-2.289 6.178-6 8-6 0-2.576 11.707-10 14-10 0-1.617 4.583-4 6-4 0-2.814 13.505-9 16-9h1c0-1.238.423-3 2-3 0-4.599 12-11.065 12-14-12.139 0-38.37 21.935-50.5 28L99 80v1c1.028 0 4 4.666 4 6h1Z"/><path fill="#1AA697" id="RSPd6a" d="m151 61 4 2c6.844 0 16-16.194 16-22h-2l-7.5 5-9.5 9-1 3v3Z"/><path fill="#FF7AFD" id="SCzo" d="m294 78 1 1c0-12.796-25.396-28.948-35.5-34-2.816-1.408-10.385-5.807-14-4-5.302 2.651-9.942 5.942-14.5 10.5-1.641 1.642-.179 6.5-2.5 6.5l-3.5-7.5c-2.056-4.112-10.787-7.643-14.5-9.5-2.727-1.364-19.5 5.706-19.5 8l15.5-6c4.638-2.32 17.427 8.354 19.5 12.5.91 1.82 1 10.787 1 12.5 0 2.373 2.284 0 3 0 0-4.43-.858-10.783 1-14.5 3.429-6.857 16.82-12.84 23.5-9.5 7.318 3.659 13.568 9.284 21 13 5.925 2.962 18.5 13.954 18.5 21Z"/><path fill="#1AA697" id="RSPd6a" d="m305 61-4 2c-2.326 0-14.466-13.432-16-16.5-.536-1.073-.251-5.5 1-5.5h1c3.192 0 18 13.945 18 17v3Z"/><path fill="#08858C" id="VISp6a" d="M357 80c0 2.919-4 4.243-4 7l-10.5-8c-9.009-4.505-26.069-21-35.5-21 0-6.623-14-11.318-14-17 12.064 0 36.713 22.106 48.5 28 1.822.91 15.5 10.084 15.5 11Z"/><path fill="#FF78FF" id="SCsg" d="m164 73-1 5 9.5-7c11.227-5.614 22.882-10.44 34-16 11.55-5.775 16.762 13 20.5 13 0-1.713-.09-10.68-1-12.5-2.073-4.146-14.862-14.82-19.5-12.5L191 49c0 1.617-4.583 4-6 4 0 1.617-4.583 4-6 4 0 1.747-.253 2-2 2 0 2.156-10.737 12-12 12l-1 2ZM230 68c2.164 0 9.315-18.593 20.5-13 9.826 4.913 20.136 9.068 30 14 3.924 1.962 9.057 9 13.5 9 0-7.046-12.575-18.038-18.5-21-7.432-3.716-13.682-9.341-21-13-6.68-3.34-20.071 2.643-23.5 9.5-1.858 3.717-1 10.07-1 14.5Z"/><path fill="#FF7AFD" id="SCzo" d="M191 49c-2.244 0-6 1.725-6 4 1.417 0 6-2.383 6-4ZM185 53c-1.664 0-6 1.822-6 4 1.417 0 6-2.383 6-4Z"/><path fill="#1AA597" id="RSPv2/3" d="m284 53 1 1-1-1Z"/><path fill="#1BA597" id="RSPv1" d="m173 56 1 1 4-2c0-2.935-3 1.43-3-1l-1 1-1 1ZM278 54l1 1-1-1ZM294 68l-1 1-13-14c0-1.93 1.161 0 2 0h1l1 1 2 1c0 3.788 8 6.51 8 11Z"/><path fill="#1AA597" id="RSPv2/3" d="M282 55h1l-1-1v1Z"/><path fill="#1CA597" id="RSPagl6a" d="M150 58h1l1-3c-1.577 0-2 1.762-2 3Z"/><path fill="#FD7AFF" id="SCop" d="m162 82 13.5-9c8.177-4.088 16.864-6.932 25-11 6.442-3.221 14.307-.693 19 4l6 7 2-2 3 2 12-12c8.646-4.323 34.764 10.382 42 14 3.214 1.607 6.8 7 10.5 7v-3l-1-1c-4.443 0-9.576-7.038-13.5-9-9.864-4.932-20.174-9.087-30-14-11.185-5.593-18.336 13-20.5 13-.716 0-3 2.373-3 0-3.738 0-8.95-18.775-20.5-13-11.118 5.56-22.773 10.386-34 16l-9.5 7-1 1h-1v2l1 1Z"/><path fill="#1BA598" id="RSPd1" d="m283 55 1 1-1-1Z"/><path fill="#09848A" id="VISl1" d="M388 77h1c0-1.238.423-3 2-3 0-4.416-11.138-13.819-13.5-15l-3.5-4-3 4v1c3.427 0 17 13.573 17 17ZM65 74l3 2c1.186 0 13.808-16 17-16v-1l-3-3c-1.148 0-17 17.016-17 18Z"/><path fill="#1AA597" id="RSPv2/3" d="m172 56-1 1 1-1Z"/><path fill="#1BA597" id="RSPv1" d="m162 68 1 1 11-12-1-1h-1l-1 1c0 3.946-9 6.638-9 11Z"/><path fill="#1BA598" id="RSPd1" d="m173 56 1 1-1-1Z"/><path fill="#1AA597" id="RSPv2/3" d="m296 67-2 1c0-4.49-8-7.212-8-11l1-1 1 1 1 1c0 3.218 7 5.402 7 9ZM161 67l1 1c0-4.362 9-7.054 9-11h-2l-2 1-1 1c0 3.536-5 4.464-5 8Z"/><path fill="#FF7AFD" id="SCzo" d="M179 57c-1.747 0-2 .253-2 2 1.747 0 2-.253 2-2Z"/><path fill="#1BA697" id="RSPd2/3" d="m288 57 1 1-1-1Z"/><path fill="#08858A" id="VISp6b" d="M149 60c-6.064 0-10.074 7-16 7 0-2.814 13.505-9 16-9v2Z"/><path fill="#1AA598" id="RSPagl6b" d="M149 60h1v-2h-1v2Z"/><path fill="#1BA698" id="RSPd6b" d="M150 60h1v-2h-1v2Z"/><path fill="#1BA498" id="RSPv5" d="m167 58-1 1 1-1ZM299 65l-3 2c0-3.598-7-5.782-7-9 3.099 0 10 4.296 10 7Z"/><path fill="#1BA698" id="RSPd6b" d="M305 60h2v-1l-1-1h-1v2Z"/><path fill="#1AA598" id="RSPagl6b" d="M307 58v1l-1-1h1Z"/><path fill="#08858A" id="VISp6b" d="M352 88h1v-1l-10.5-8c-9.009-4.505-26.069-21-35.5-21v2c2.484 0 19 8.876 19 10 6.79 0 19.835 18 26 18Z"/><path fill="#1BA498" id="RSPv5" d="M157 64c0 1.712 2.571 3 4 3 0-3.536 5-4.464 5-8-4.19 0-5.253 5-9 5Z"/><path fill="#FF7AFD" id="SCzo" d="M177 59c-2.985 0-12 9.031-12 12 1.263 0 12-9.844 12-12Z"/><path fill="#0A8489" id="VISl2/3" d="m68 77 5 4c3.048 0 8.945-7.445 12-10.5l4-3.5c0-2.83-4-4.54-4-7-3.192 0-15.814 16-17 16v1Z"/><path fill="#C9C9CA" id="scwm" d="m131 70 2 1c4.832 0 9.572-8 15-8l2-1 1-1v-1h-2c-6.064 0-10.074 7-16 7 0 2.215-2 1.519-2 3ZM323 70h3c0-1.124-16.516-10-19-10h-2v1l1 1h1l16 8Z"/><path fill="#0A8489" id="VISl2/3" d="m388 77-5 4-16-14c0-2.83 4-4.54 4-7 3.427 0 17 13.573 17 17Z"/><path fill="#33B932" id="APr" d="M163 69c0 1.238-.423 3-2 3l-11-10 1-1 4 2 2 1c0 1.712 2.571 3 4 3l1 1 1 1Z"/><path fill="#FF90FF" id="SCig" d="M155 109c0-16.712 25.526-26.013 37.5-32 5.054-2.527 13.955-9.522 21-6l13 12c2.532-1.266 1.832 0 4 0l12-12c6.443-3.221 15.338 2.67 20 5 11.953 5.977 39.5 18.493 39.5 33 6.531 0 5-2.717 5-9v-1l-1-1v-1l-1-1v-1l-1-1-2-4-1-1-2-3v-1c-1.114 0-4-2.034-4-3-3.7 0-7.286-5.393-10.5-7-7.236-3.618-33.354-18.323-42-14l-12 12-3-2-2 2-6-7c-4.693-4.693-12.558-7.221-19-4-8.136 4.068-16.823 6.912-25 11L162 82l-1 1-3 2-1 1v1l-1 1-1 1v1l-1 1-1 1v1l-1 1-1 1v2l-1 1-1 1c0 6.955-.622 10 6 10Z"/><path fill="#33B932" id="APr" d="m293 69 2 3 11-10-1-1-4 2-2 2-3 2-2 1-1 1Z"/><path fill="#47C83C" id="POST" d="m119 109 21 1c3.103 0 8.062-17 11-17l1-2 1-2c0-5.899 8-10.43 8-17l-11-10-2 1-8 8-1 1-4 5-1 1-1 1-1 3-1 1v1l-1 1-1 3-1 1-1 2c0 4.155-4.262 7.024-6 10.5l-2 3.5v4ZM337 109l-21 1-5-8.5c-3.5-7.001-16-22.4-16-29.5l11-10h1c0 2.242 7.978 9 10 9 0 1.528 4.54 8 6 8v1l2 2v1l1 1 1 3 1 1v1c0 6.146 9 10.574 9 17v3Z"/><path fill="#C8C9CA" id="fp" d="m363 107 3 1v-3l-1-1-1-1-5.5-6c-9.867-4.933-17.239-15.12-27-20-1.626-.813-8.5-5.105-8.5-7l-16-8c0 2.242 7.978 9 10 9 .853 0 6 2.992 6 4 6.529 0 35 22.508 35 30l5 2ZM91 107h2l5-2c0-6.927 28.8-30 35-30l6-3 1-1 8-8c-5.428 0-10.168 8-15 8 0 2.306-7.746 5.123-9.5 6L99 96.5l-7 7.5-1 1c0 .839-1.93 2 0 2Z"/><path fill="#08828B" id="VISl4" d="M76 85h1c0-5.151 16-8.493 16-13 0-1.238-1.923-5-3-5h-1l-4 3.5C81.945 73.555 76.048 81 73 81v1l3 3Z"/><path fill="#08858A" id="VISp6b" d="M127 71h2l1-1h1c0-1.481 2-.785 2-3-1.417 0-6 2.383-6 4Z"/><path fill="#08828B" id="VISl4" d="M379 85h2c0-1.747.253-2 2-2v-2l-16-14h-1l-3 4v1c.75 0 16 12.26 16 13Z"/><path fill="#C9C9CA" id="scwm" d="m130 70-1 1 1-1Z"/><path fill="#CBC9C7" id="or" d="m77 121-6 6c0-7.566 17-18.433 17-23l3-3 12-12 2-1v-1c1.822 0 8-3.711 8-6 2.82 0 14-7.762 14-10h2l1-1h1l2 1c0 2.306-7.746 5.123-9.5 6L99 96.5l-7 7.5-1 1c-2.788 0-14 12.69-14 16ZM388 130v1c-2.76 0-3.193-4.693-4.5-6-3.4-3.4-14.881-20-17.5-20l-1-1-1-1-5.5-6c-9.867-4.933-17.239-15.12-27-20-1.626-.813-8.5-5.105-8.5-7h3c6.79 0 19.835 18 26 18 0 1.085 13.235 13 14 13l3 3c0 3.825 19 19.529 19 26Z"/><path fill="#08858A" id="VISp6b" d="M127 71c-2.293 0-14 7.424-14 10 2.82 0 14-7.762 14-10Z"/><path fill="#7DCD4B" id="HPF" d="m140 71-1 1 1-1Z"/><path fill="#FF7AFD" id="SCzo" d="m165 71-1 2 1-2Z"/><path fill="#FF90FE" id="SCiw" d="M170 113c0-5.695 17.704-17.602 22.5-20 5.271-2.635 11.071-9.035 17-12 7.16-3.58 15.164 7.918 23 4 4.993-2.496 12.135-5.933 18-3l18 14c3.983 1.992 18.5 13.113 18.5 17 5.595 0 12.107-4 15-4 0-14.507-27.547-27.023-39.5-33-4.662-2.33-13.557-8.221-20-5l-12 12c-2.168 0-1.468-1.266-4 0l-13-12c-7.045-3.522-15.946 3.473-21 6-11.974 5.987-37.5 15.288-37.5 32 0 3.004 12.258 4 15 4Z"/><path fill="#7DCD4B" id="HPF" d="M323 75c-2.56 0 0 3.334 0 4-1.46 0-6-6.472-6-8 .853 0 6 2.992 6 4Z"/><path fill="#0B858B" id="VISl5" d="M83 93h1c0-.921 12.352-12 15-12v-1l-5-8h-1c0 4.507-16 7.849-16 13l6 8Z"/><path fill="#7DCD4B" id="HPF" d="M133 75c1.747 0 2 .253 2 2l4-5-6 3Z"/><path fill="#0B858B" id="VISl5" d="M379 85c0 2.956-6 4.814-6 8l-15-13 5-8c.75 0 16 12.26 16 13Z"/><path fill="#FF7AFD" id="SCzo" d="M161 79h1l1-1 1-5c-1.89 0-3 4.598-3 6Z"/><path fill="#0C858C" id="VISli1" d="M59 87h1c0-1.504 6.392-10 8-10v-1l-3-2-8 10 2 3ZM400 84l-3 2c-1.739 0-8-7.568-8-9 0-1.238.423-3 2-3 1.628 0 9 8.5 9 10Z"/><path fill="#C9CCC9" id="dhc" d="M98 105c2.379 0 4.917-3.292 7.5-2 2.14 1.07 3.887 2 6.5 2l8-5.5c2.246-2.246 4.373-8.5 7-8.5l1-2 1-1 1-3 1-1v-1l1-1 1-3 1-1 1-1c0-1.747-.253-2-2-2-6.2 0-35 23.073-35 30ZM345 105l8.5-2 4.5 2c0-7.492-28.471-30-35-30-2.56 0 0 3.334 0 4v1l2 2v1l1 1 1 3 1 1v1c3.796 0 4.871 8.685 7.5 10l9.5 6Z"/><path fill="#0A858A" id="VISli2/3" d="m60 87 5 5 8-10v-1l-5-4c-1.608 0-8 8.496-8 10Z"/><path fill="#7DCD4B" id="HPF" d="m135 77-1 1 1-1Z"/><path fill="#0A858A" id="VISli2/3" d="m397 87-5 5c-3.171 0-5.409-9-9-9v-2l5-4h1c0 1.432 6.261 9 8 9v1Z"/><path fill="#7DCD4B" id="HPF" d="m134 78-1 1 1-1Z"/><path fill="#FF78FF" id="SCsg" d="m163 78-1 1 1-1Z"/><path fill="#7DCD4B" id="HPF" d="m323 80 2 2-2-2Z"/><path fill="#08848C" id="VISl6a" d="m373 94-6 6-14-12v-1c0-2.757 4-4.081 4-7h1l15 13v1ZM84 93c0 2.258 3.815 7 6 7 4.756 0 7.761-11 13-11v-2c0-1.334-2.972-6-4-6-2.648 0-15 11.079-15 12Z"/><path fill="#08858A" id="VISp6b" d="M113 81c-1.822 0-8 3.711-8 6 1.822 0 8-3.711 8-6Z"/><path fill="#FF64FF" id="MB" d="M161 82h1l-1-1v1Z"/><path fill="#FF8FFF" id="SCdg" d="M266 119c3.412 0 8.555 3 14 3 0-1.946 7-5.9 7-9 0-3.887-14.517-15.008-18.5-17l-18-14c-5.865-2.933-13.007.504-18 3-7.836 3.918-15.84-7.58-23-4-5.929 2.965-11.729 9.365-17 12-4.796 2.398-22.5 14.305-22.5 20l2.5 5c9.252 9.252 10.369 1 18.5 1v-11.5c3.747-7.494 11.41-13.955 18.5-17.5l17.5 1 19.5-1c12.689 6.344 19.5 15.721 19.5 29Z"/><path fill="#08828C" id="VISli4" d="m65 93 2 1 9-9-3-3-8 10v1Z"/><path fill="#7DCD4B" id="HPF" d="m132 82-1 1 1-1Z"/><path fill="#C7CBCB" id="bsc" d="M158 84v1l3-2v-1c-1.238 0-3 .423-3 2Z"/><path fill="#FD7AFF" id="SCop" d="m162 82-1 1v-1h1Z"/><path fill="#C7CBCB" id="bsc" d="M295 82c1.429 0 4 1.288 4 3-1.114 0-4-2.034-4-3Z"/><path fill="#7DCD4B" id="HPF" d="m325 83 1 1-1-1Z"/><path fill="#08828C" id="VISli4" d="M392 93c-1.048 0-3-.473-3 1l-8-9c0-1.747.253-2 2-2 3.591 0 5.829 9 9 9v1Z"/><path fill="#09818C" id="VISpor1" d="m49 94 1 5 9-12-2-3c-1.736 0-8 8.346-8 10Z"/><path fill="#7DCD4B" id="HPF" d="m131 84-1 1 1-1Z"/><path fill="#CAC7CB" id="fiber tracts" d="M157 85h1v-1l-1 1Z"/><path fill="#09818C" id="VISpor1" d="M407 94v5l-10-12v-1l3-2c0 4.056 7 5.494 7 10Z"/><path fill="#0A848A" id="VISli5" d="M75 103h1c0-3.556 7-6.104 7-10l-6-8h-1l-9 9v1c1.772 0 8 6.03 8 8Z"/><path fill="#C7CBCB" id="bsc" d="m158 85-1 1v-1h1Z"/><path fill="#0A848A" id="VISli5" d="M380 103h1l8-8v-1l-8-9h-2c0 2.956-6 4.814-6 8v1c0 2.302 7 5.542 7 9Z"/><path fill="#C7CBCB" id="bsc" d="M156 87h1v-1l-1 1ZM304 94h1l-1-3-1-1-1-2-1-1-2-1 2 3 1 1 2 4Z"/><path fill="#0A8389" id="VISpor2/3" d="M49 102c0 2.442-.409 12 1 12 0-2.791 12.871-21 15-21v-1l-5-5h-1l-9 12-1 1v2Z"/><path fill="#09858C" id="VISl6b" d="m105 88-2 1v-2h1l1 1Z"/><path fill="#08858A" id="VISp6b" d="M105 87v1l-1-1h1Z"/><path fill="#C7CBCB" id="bsc" d="M155 88h1v-1l-1 1Z"/><path fill="#FF64FF" id="MB" d="m157 87-1 1v-1h1Z"/><path fill="#CAC7CB" id="fiber tracts" d="m301 87 1 1-1-1Z"/><path fill="#7DCD4B" id="HPF" d="m327 87 1 1-1-1Z"/><path fill="#0A8389" id="VISpor2/3" d="M408 103c-1.332 0-1 8.532-1 11-.604 0-12.259-21-15-21v-1l5-5 10 12v2l1 1v1Z"/><path fill="#7DCD4B" id="HPF" d="m129 88-1 1 1-1Z"/><path fill="#CAC7CB" id="fiber tracts" d="M154 89h1v-1l-1 1Z"/><path fill="#FF64FF" id="MB" d="m156 88-1 1v-1h1Z"/><path fill="#09858C" id="VISl6b" d="M366 101h1v-1l-14-12h-1c0 1.085 13.235 13 14 13ZM90 101h1l12-12c-5.239 0-8.244 11-13 11v1Z"/><path fill="#7DCD4B" id="HPF" d="m128 89-1 2 1-2Z"/><path fill="#CAC7CB" id="fiber tracts" d="M153 90h1v-1h-1v1Z"/><path fill="#C7CBCB" id="bsc" d="M154 90h1v-1h-1v1Z"/><path fill="#FF64FF" id="MB" d="m301 89 1 1-1-1Z"/><path fill="#7DCD4B" id="HPF" d="M344 105h1l-9.5-6c-2.629-1.315-3.704-10-7.5-10 0 6.146 9 10.574 9 17 1.819 0 4.591-1 7-1Z"/><path fill="#C7CBCB" id="bsc" d="M153 91h1v-1h-1v1Z"/><path fill="#FF64FF" id="MB" d="m155 90-1 1v-1h1Z"/><path fill="#FF8FFE" id="SCdw" d="M193 120c0-11.565 8.057-22.778 18.5-28l18.5 1 14.5-1c10.503 5.252 19.5 17.41 19.5 29l2-2c0-13.279-6.811-22.656-19.5-29L227 91l-17.5-1c-7.09 3.545-14.753 10.006-18.5 17.5V119l2 1Z"/><path fill="#CAC7CB" id="fiber tracts" d="m303 90 1 1-1-1Z"/><path fill="#7DCD4B" id="HPF" d="M113 105h6l2-3.5c1.738-3.476 6-6.345 6-10.5-2.627 0-4.754 6.254-7 8.5l-8 5.5h1Z"/><path fill="#CAC7CB" id="fiber tracts" d="M152 92h1v-1h-1v1Z"/><path fill="#FF64FF" id="MB" d="m154 91-1 1v-1h1Z"/><path fill="#C7CBCB" id="bsc" d="M152 93h1v-1h-1v1Z"/><path fill="#FC8FFF" id="PAG" d="M211 148h6l1-1h1c0-1.144 7-2.354 7-9-3.711 0-10.921 11.79-16.5 9-2.67-1.335-.309-6.846 2-8 2.756-1.378 9.297-5.851 13-4l1.5 2c0-4.725 1-9.879 1-14l-2-5.5c1.88-3.759 7-3.955 7 1l-3 5.5c0 2.95 2 7.018 2 11 5.918 0 14.418 2.335 17 7.5l-1 4.5c3.38 0 16-17.424 16-20 0-2.124 1-4.436 1-6 0-11.59-8.997-23.748-19.5-29L230 93l-18.5-1c-10.443 5.222-18.5 16.435-18.5 28v7c0 3.199 14.031 21 18 21Z"/><path fill="#0A828A" id="VISpor4" d="m50 115 1 4 12-19.5 4-4.5v-1l-2-1c-2.129 0-15 18.209-15 21v1Z"/><path fill="#088488" id="VISli6a" d="M86 104h1l3-3v-1c-2.185 0-6-4.742-6-7h-1c0 3.896-7 6.444-7 10 1.37 0 10 .956 10 1Z"/><path fill="#C7CBCB" id="bsc" d="m152 94-1 1v-2h1v1Z"/><path fill="#FF64FF" id="MB" d="m153 93-1 1v-1h1Z"/><path fill="#0A828A" id="VISpor4" d="M405 121h1c0-1.235-.643-5 1-5v-2c-.604 0-12.259-21-15-21-1.048 0-3-.473-3 1v1c1.762 0 16 22.636 16 26Z"/><path fill="#15B0B3" id="TEa1" d="M35 134c-2.297 0-1.849 1-5 1 0-12.603 7.752-22.003 13-32.5.791-1.582 3.942-8.5 6-8.5l1 5-1 1c-1.186 0-1.186 1 0 1v1c-2.47 0-3.265 5.03-4 6.5-3.507 7.013-10 16.344-10 24.5v1Z"/><path fill="#FF64FF" id="MB" d="M305 94v1l-1-1h1Z"/><path fill="#CAC7CB" id="fiber tracts" d="M305 95h1l-1-1v1Z"/><path fill="#088488" id="VISli6a" d="M370 103h10c0-3.458-7-6.698-7-9l-6 6v1l3 2Z"/><path fill="#15B0B3" id="TEa1" d="m421 133 5 2c0-10.365-5.316-25.816-12.5-33-1.706-1.706-3.404-8-6.5-8v6l1 1v2c2.936 0 13 25.897 13 30Z"/><path fill="#0B838A" id="VISpor5" d="M52 131c2.09 0 1.552 5 5 5 1.633 0 3.212-9.924 4-11.5 1.9-3.8 14-19.883 14-21.5 0-1.97-6.228-8-8-8l-4 4.5L51 119v3c0 3.676 1 6.439 1 9Z"/><path fill="#C7CBCB" id="bsc" d="M150 97h1v-2l-1 2ZM307 100h1l-2-5h-1v1l1 1v1l1 1v1Z"/><path fill="#0B838A" id="VISpor5" d="M404 131c-1.371 0-2.059 6-5 6 0-8.943-7.215-17.93-11-25.5l-7-8.5 8-8c1.762 0 16 22.636 16 26 0 4.323-1 6.115-1 10Z"/><path fill="#FF64FF" id="MB" d="m305 96 1 1-1-1Z"/><path fill="#C7CBCB" id="bsc" d="m150 98-1 1 1-2v1Z"/><path fill="#FF64FF" id="MB" d="m151 97-1 1v-1h1ZM306 98l1 1-1-1Z"/><path fill="#09818C" id="VISpor1" d="m50 99-1 1 1-1Z"/><path fill="#FF64FF" id="MB" fill-rule="evenodd" d="M140 151c0 4.687-3.051 9.225 2.5 12 1.015.508 4.982 5.537 6.5 2.5 2.417-4.834-4.811-14.5-9-14.5m36 40c-6.979 0-12.278 4-19 4-3.21 0-5.057-12-9.5-12l-2.5 3c0-9.071-4.205-17.911-8-25.5l-1-23.5c1.578 0 3.15.2 4-1.5v-12c2.251-4.502 5.69-8.379 8-13 1.355-2.711-.961-3.5-3-3.5l4-8c0 6.955-.622 10 6 10 0 3.004 12.258 4 15 4l2.5 5c9.252 9.252 10.369 1 18.5 1l2 1v7c-.889 0-16.058-4.279-17.5-5-6.249-3.125-19.487 4-21.5 4 0-23.233-27.539 6-3 6 0 5.914 2 10.861 2 16-8.079 0-8.748 9.376-1.5 13 2.568 1.284 6.486-1 8.5-1 2.751 0 5.261 10 10 10 0 .789-7.801 4.102-9 6.5-4.238 8.476 9.164 16.668 17.5 12.5l4.5-4 2 2-6 3c-1.048 0-3-.473-3 1Z"/><path fill="#09818C" id="VISpor1" d="M49 100c-1.186 0-1.186 1 0 1v-1Z"/><path fill="#FF64FF" id="MB" d="M278 190c4.86 0 11.344 1.922 15.5 4 .984.492 5.5.851 5.5 2 2.794 0 5.234-10.367 8.5-12l3.5 1c0-7.647 4.728-16.955 8-23.5l2-25.5c-.833 0-3.1 2.301-4 .5v-11c-1.414-2.829-9-15.01-9-17l3-1.5c0-1.647-1.268-7-3-7h-1c0 6.283 1.531 9-5 9-2.893 0-9.405 4-15 4 0 3.1-7 7.054-7 9 5.401 0 13.938-1.281 18.5 1l3.5 3c.739 0 1.408-10 6.5-10 3.582 0 8.347 10.805 6.5 14.5-1.71 3.419-7.851.5-10 .5 0 6.086-2 12.285-2 17 7.799 0 6 3.483 6 9 3.255 0 1.515-8.492 6.5-6 7.634 3.817-5.064 20.371-8.5 13.5-.904-1.807 2-4.28 2-6.5l-4.5 3c-3.473 1.736-7.052-2-8.5-2 0 4.81-9 10.58-9 12 2.811 0 4.978 1.455 6 3.5l3 3c1.394 2.789-3.022 10.261-5.5 11.5-3.174 1.587-16.5.112-16.5-4l-3 2 7 3Z"/><path fill="#09818C" id="VISpor1" d="M407 101h1l-1-1v1Z"/><path fill="#08818B" id="VISli6b" d="M87 104h1l3-3h-1l-3 3ZM369 104h1v-1l-3-2h-1l3 3Z"/><path fill="#16AFB3" id="TEa2/3" d="M408 101v1l-1-1h1ZM45 131c0 1.16-8.505 2-10 2 0-8.156 6.493-17.487 10-24.5.735-1.47 1.53-6.5 4-6.5 0 2.442-.409 12 1 12v1c-2.52 0-5 13.024-5 16Z"/><path fill="#0C858B" id="VISpor6a" d="m57 137 5 5c0-10.432 10.57-19.639 15-28.5 1.037-2.074 9-6.388 9-9.5 0-.044-8.63-1-10-1h-1c0 1.617-12.1 17.7-14 21.5-.788 1.576-2.367 11.5-4 11.5v1Z"/><path fill="#C7C8CC" id="alv" d="M91 109c-2.483 0-12 8.979-12 12 .73 0 14.593-11.047 18.5-13 2.22-1.11 15.5-1.061 15.5-3h-1c-2.613 0-4.36-.93-6.5-2-2.583-1.292-5.121 2-7.5 2l-5 2-2 2ZM367 110l9.5 9c5.23 5.23 10.5 13.598 10.5 21-1.263 0-3.334-8.169-4-9.5-2.629-5.258-9.07-14.785-14.5-17.5l-13-6c-2.009-1.004-11.5 1.347-11.5-2h1l8.5-2 4.5 2 5 2 4 3Z"/><path fill="#C8CBCC" id="ec" d="m364 103 1 1-1-1Z"/><path fill="#0C858B" id="VISpor6a" d="m394 141 1 1c0-1.621 2.379-4 4-4v-1c0-8.943-7.215-17.93-11-25.5l-7-8.5h-11v1l7.5 8c6.013 6.013 16.5 19.69 16.5 29Z"/><path fill="#16AFB3" id="TEa2/3" d="M412 131c0 1.274 7.483 2 9 2 0-4.103-10.064-30-13-30-1.332 0-1 8.532-1 11v2c0 3.288 5 9.765 5 15Z"/><path fill="#0C848C" id="VISpor6b" d="m65 140-3 2c0-10.432 10.57-19.639 15-28.5 1.037-2.074 9-6.388 9-9.5h2c0 4.567-17 15.434-17 23-1.577 0-2 1.762-2 3-2.623 0-4 7.828-4 10Z"/><path fill="#C8CBCC" id="ec" d="m92 104-1 1 1-1Z"/><path fill="#0C848C" id="VISpor6b" d="M392 141h2c0-9.31-10.487-22.987-16.5-29l-7.5-8h-1c0 3.825 19 19.529 19 26l1 1 3 10Z"/><path fill="#C8CBCC" id="ec" d="M77 121h2c0-3.021 9.517-12 12-12v-2c-1.93 0 0-1.161 0-2-2.788 0-14 12.69-14 16Z"/><path fill="#4FC244" id="SUB" d="M108 215c-3.647 0-6.586 3-10 3l-6-3-3-3v-1l-2-2v-1l-2-2v-1l-8-11.5c-.94-1.881-4.017-13.5-6-13.5v-1c0-.986-1.087-6-2-6v-31c1.663 0 2-5.407 2-7 .796 0 8-12.552 8-14 .73 0 14.593-11.047 18.5-13 2.22-1.11 15.5-1.061 15.5-3h6v4c0 3.999-9.837 16.173-12 20.5-4.288 8.575-5.442 22.883-9 30-6.415 12.831 12 41.384 12 53.5l-2 2ZM365 214c0 1.429-5.478 4-7 4-4.055 0-8.45-5-12-5 0-10.736 6.517-20.534 11-29.5v-5c7.313-14.626-2.808-37.616-9-50-1.241-2.482-10.371-19.5-11-19.5v-3c1.819 0 4.591-1 7-1 0 3.347 9.491.996 11.5 2l13 6c5.43 2.715 11.871 12.242 14.5 17.5.666 1.331 2.737 9.5 4 9.5v35c-1.473 0-1 1.952-1 3-1.473 0-1 1.952-1 3-1.693 0-4 8.239-4 10-2.109 0-2 2.535-2 4-1.577 0-2 1.762-2 3l-1 1-1 2-1 1-1 1v1l-1 1-1 1-1 2-1 1-1 1-1 2-1 1-1 1Z"/><path fill="#C8CBCC" id="ec" d="M386 178v3c3.45 0 2.993-8.485 4-10.5 3.788-7.577 2-20.511 2-29.5l-3-10h-1c-2.76 0-3.193-4.693-4.5-6-3.4-3.4-14.881-20-17.5-20v3l1 2 9.5 9c5.23 5.23 10.5 13.598 10.5 21v1c2.064 0 .426 3.353 1 4.5 2.68 5.361 1 15.205 1 21.5 0 .969-1.147 7-2 7v1c0 1.048.473 3-1 3Z"/><path fill="#7DCD4B" id="HPF" d="m93 107-2 2v-2h2Z"/><path fill="#FF64FF" id="MB" d="m145 107-1 1 1-1Z"/><path fill="#C9C8C8" id="bic" d="M137 119c0 3.166-.693 5.886-2 8.5-1.386 2.772 1 7.269 1 9.5 1.578 0 3.15.2 4-1.5v-12c2.251-4.502 5.69-8.379 8-13 1.355-2.711-.961-3.5-3-3.5l-1 1c0 .758-4.307 7-5 7 0 1.465.109 4-2 4ZM311 107c6.44 0 10 23.155 10 29-.833 0-3.1 2.301-4 .5v-11c-1.414-2.829-9-15.01-9-17l3-1.5Z"/><path fill="#7DCD4B" id="HPF" d="m366 108 1 2-4-3 3 1Z"/><path fill="#59B847" id="PRE" d="M110 213h8c0-1.577 1.762-2 3-2 0-14.474 4.52-61.54 10-72.5 1.21-2.421 3.222-19.5 6-19.5 0-1.465-.109-4 2-4l1-5-21-1c0 3.999-9.837 16.173-12 20.5-4.288 8.575-5.442 22.883-9 30-6.415 12.831 12 41.384 12 53.5ZM336 211c2.73 0 6.298 2 10 2 0-10.736 6.517-20.534 11-29.5v-5c7.313-14.626-2.808-37.616-9-50-1.241-2.482-10.371-19.5-11-19.5l-21 1c0 1.026 7.917 20.335 9 22.5 2.327 4.653 2.145 21.291 4 25 2.07 4.14 7 47.022 7 53.5Z"/><path fill="#A9A9A8" id="AQ" d="m227 123 2 1 3-5.5c0-4.955-5.12-4.759-7-1l2 5.5Z"/><path fill="#15B0B2" id="TEa4" d="M45 131h2c0-1.294 2.793-9 4-9v-2c-1.186 0-1.186-1 0-1l-1-4c-2.52 0-5 13.024-5 16Z"/><path fill="#FE79FE" id="ICe" d="M154 126v4.5l-3 1.5c-24.539 0 3-29.233 3-6ZM302 126c.739 0 1.408-10 6.5-10 3.582 0 8.347 10.805 6.5 14.5-1.71 3.419-7.851.5-10 .5-3.236 0-3-2.435-3-5Z"/><path fill="#15B0B2" id="TEa4" d="M409 131h3c0-5.235-5-11.712-5-15-1.643 0-1 3.765-1 5l3 10Z"/><path fill="#0A828A" id="VISpor4" d="M51 119c-1.186 0-1.186 1 0 1v-1Z"/><path fill="#FF64FF" id="MB" d="M280 122c0 2.144-4.262.381-5.5 1-2.352 1.176-9.11 4-11.5 4 0-2.124 1-4.436 1-6l2-2c3.412 0 8.555 3 14 3Z"/><path fill="#C8CBCC" id="ec" d="M70 182h1v-3c-1.995 0-2-4.377-2-6v-1c-2.207 0-.338-5.176-1-6.5-2.538-5.076 0-11.461 0-16.5 0-1.321-.684-6 1-6v-1c0-1.593.337-7 2-7 0-5.423 6-9.092 6-14l-6 6c0 1.238-.423 3-2 3-2.623 0-4 7.828-4 10 0 6.022-2.785 21.93 0 27.5.639 1.277 5 13.887 5 14.5Z"/><path fill="#C7C8CC" id="alv" d="M79 121c0 1.448-7.204 14-8 14 0-5.423 6-9.092 6-14h2Z"/><path fill="#15AFB3" id="TEa5" d="M404 131h5l-3-10h-1c0 4.323-1 6.115-1 10ZM47 131h5c0-2.561-1-5.324-1-9-1.207 0-4 7.706-4 9Z"/><path fill="#FF8FFD" id="MRN" d="M204 186c-2.681 0-8.316-2.592-11.5-1-1.892.946-5.372 2-7.5 2l-2-2c0-9.13-.161-15-13-15-4.739 0-7.249-10-10-10l1-3.5-8-8.5c0-5.139-2-10.086-2-16l3-1.5V126c2.013 0 15.251-7.125 21.5-4 1.442.721 16.611 5 17.5 5 0 3.199 14.031 21 18 21l5 5c0 2.773 4 3.67 4 6 0 1.424-.362 5-2 5-8.422 0-11 14.249-11 21l-3 1ZM252 186c2.911 0 9.109-2.695 12.5-1l6.5 2 3-2c0-11.704-.085-14 13-14 0-1.42 9-7.19 9-12-1.826 0 3.768-11 7-11 0-4.715 2-10.914 2-17-3.236 0-3-2.435-3-5l-3.5-3c-4.562-2.281-13.099-1-18.5-1 0 2.144-4.262.381-5.5 1-2.352 1.176-9.11 4-11.5 4 0 2.576-12.62 20-16 20l-1 1h-1l-1 1h-1c0 1.747-.253 2-2 2v2l-5 6 2 5c9.007 0 11 12.363 11 20l3 2Z"/><path fill="#FF64FF" id="MB" d="M243 190h1l-3-19.5c-1.345-2.69-3-3.155-3-6.5l-2-5c-2.73 0-1.112 3.306-2.5 4-1.554.777-3.129-2.242-2.5-3.5l5-4.5c-5.693 0-3.132-8 2-8 0-1.538-7-1.368-7-8v-4c0-3.982-2-8.05-2-11l-2-1c0 4.121-1 9.275-1 14v1c0 6.646-7 7.856-7 9 3.639 0 3.653 1.807 5 4.5l-1.5 4.5-3.5-2c0 2.009 6 2.654 6 9 1.865 0 5.2-.65 6.5 0l3.5 4c0-5.474 2.22-1.061 4 2.5 1.924 3.848-2 13.584-2 5.5l-4 1c0 2.762 3.873 6.755 2 10.5-3.065 6.131-10.957 6.086-14 0-1.9-3.799 2-7.574 2-10.5l-4-2c0 10.049-2-.049-2-5-1.827 0-2 3.968-2 5.5l-3 15.5h1l7.5-1c2.495 1.247 5.116 5 8 5l8-5 6.5 1Z"/><path fill="#CBC9C7" id="or" d="M71 127c-1.577 0-2 1.762-2 3 1.577 0 2-1.762 2-3Z"/><path fill="#C9C9CA" id="scwm" d="M388 131h1l-1-1v1Z"/><path fill="#0D9F91" id="ECT2/3" d="M46 143c-2.71 0-6.189 1-9 1-2.342 0-2-7.951-2-10v-1c1.495 0 10-.84 10-2h2l-1 12Z"/><path fill="#0D9E90" id="ECT5" d="M47 143c0-2.001 5.083 0 9 0v-1l1-5v-1c-3.448 0-2.91-5-5-5h-5l-1 12h1ZM410 141l-1.5 2c-.637.318-5.851 0-7.5 0l-2-5v-1c2.941 0 3.629-6 5-6h5c0 2.978 1 6.49 1 10Z"/><path fill="#0D9F91" id="ECT2/3" d="M419 145h1c0-3.531 1-7.893 1-12-1.517 0-9-.726-9-2h-3c0 2.978 1 6.49 1 10v2c1.427 0 9-1.67 9 2Z"/><path fill="#0D9F90" id="ECT1" d="M37 145c-1.947 0-2.636 3-5 3 0-3.678-2-8.331-2-13 3.151 0 2.703-1 5-1 0 2.049-.342 10 2 10v1ZM420 145l4 3c2.735 0 2-10.639 2-13l-5-2c0 4.107-1 8.469-1 12Z"/><path fill="#C7C8CC" id="alv" d="M71 135c-1.663 0-2 5.407-2 7 1.663 0 2-5.407 2-7Z"/><path fill="#FD90FC" id="Su3" d="m226 137-1.5-2c-3.703-1.851-10.244 2.622-13 4-2.309 1.154-4.67 6.665-2 8 5.579 2.79 12.789-9 16.5-9v-1ZM246 147h1l1-4.5c-2.582-5.165-11.082-7.5-17-7.5v4c5.183 0 9.171 8 15 8Z"/><path fill="#0E9F91" id="ECT6a" fill-rule="evenodd" d="M58 143c0 1.93 1.93 0 0 0m-2 1 1 1c1.766 0 5-.607 5-3l-5-5-1 5c1.186 0 1.186 1 0 1v1ZM397 143c0 1.93 1.93 0 0 0m4 0c-1.808 0-2-.978-2 2-2.043 0-4-.591-4-3 0-1.621 2.379-4 4-4l2 5Z"/><path fill="#FC8FFF" id="PAG" d="M243 149h1l1-1h1v-1c-5.829 0-9.817-8-15-8 0 6.632 7 6.462 7 8h1l4 2Z"/><path fill="#32B824" id="ENTl6a" d="M84 221h1c0-1.702 4.802-6 6-6l-2-3v-1l-2-2v-1l-2-2v-1c-2.484 0-10-11.145-10-14l-2-2v-2l-3-5c0-.613-4.361-13.223-5-14.5-2.785-5.57 0-21.478 0-27.5l-3 2c0 2.393-3.234 3-5 3v1c0 20.41 1.463 37.426 10 54.5 1.603 3.207 17 19.773 17 20.5Z"/><path fill="#0F9684" id="PERI5" d="m53 148-5 3-1-8c0-2.001 5.083 0 9 0v1c-1.473 0-1 1.952-1 3l-2 1Z"/><path fill="#C7C8CC" id="alv" d="M387 141c2.064 0 .426 3.353 1 4.5 2.68 5.361 1 15.205 1 21.5 0 .969-1.147 7-2 7v-33Z"/><path fill="#32B824" id="ENTl6a" d="M371 221h1c.342 0 11.73-11.96 13-14.5 2.316-4.631 5.703-8.407 8-13 6.935-13.869 6-30.732 6-47.5v-1c-2.043 0-4-.591-4-3l-1-1h-2c0 8.989 1.788 21.923-2 29.5-1.007 2.015-.55 10.5-4 10.5v1l-1 1v1c0 1.048.473 3-1 3l-1 1v1l-1 2-1 1-2 3c0 1.238-.423 3-2 3l-1 1-1 2-1 1-1 1v1l-1 1-1 1-1 2-1 1-1 1-1 2-1 1v1l5 7Z"/><path fill="#0F9684" id="PERI5" d="m404 149 4 2 2-8v-2l-1.5 2c-.637.318-5.851 0-7.5 0v3l3 3Z"/><path fill="#0E9583" id="PERI2/3" d="m47 152-7 2c0-2.918-3-6.657-3-9v-1c2.811 0 6.29-1 9-1h1l1 8-1 1Z"/><path fill="#0E9684" id="PERI6a" d="M56 142c1.186 0 1.186 1 0 1v-1ZM399 146h2v-3c-1.808 0-2-.978-2 2v1Z"/><path fill="#0E9583" id="PERI2/3" d="m409 151 8 3c0-3.423 2-6.474 2-9 0-3.67-7.573-2-9-2l-2 8h1Z"/><path fill="#0E9684" id="PERI6a" d="M58 143c0 1.93 1.93 0 0 0Z"/><path fill="#C7C8CC" id="alv" d="M69 143c-1.684 0-1 4.679-1 6 0 5.039-2.538 11.424 0 16.5.662 1.324-1.207 6.5 1 6.5v-29Z"/><path fill="#0E9684" id="PERI6a" d="M397 143c0 1.93 1.93 0 0 0ZM57 146l-2 1c0-1.048-.473-3 1-3l1 1v1Z"/><path fill="#0E9584" id="PERI1" d="M40 154c-1.947 0-2.636 3-5 3 0-4.35-3-8.219-3-9 2.364 0 3.053-3 5-3 0 2.343 3 6.082 3 9ZM417 155l4 2c0-4.35 3-8.219 3-9l-4-3h-1c0 2.526-2 5.577-2 9v1Z"/><path fill="#31B824" id="ENTl5" d="m84 221-3 6c-4.68 0-13.02-9.542-15-13.5l-7-9c-3.225-6.449-4.794-13.589-8-20-3.404-6.808 2-28.745 2-36.5l2-1 2-1c0 20.41 1.463 37.426 10 54.5 1.603 3.207 17 19.773 17 20.5ZM372 221l4 6c3.722 0 14.401-12.302 16-15.5l6-8 7-17c2.239-4.478-1-31.196-1-37.5l-3-3h-2c0 16.768.935 33.631-6 47.5-2.297 4.593-5.684 8.369-8 13-1.27 2.54-12.658 14.5-13 14.5Z"/><path fill="#FF64FF" id="MB" d="m218 147-1 1 1-1Z"/><path fill="#FE90FF" id="III" d="m217 153 2 1 3.5 2 1.5-4.5c-1.347-2.693-1.361-4.5-5-4.5h-1l-1 1v5ZM236 155h1l1-1 1-1 2-2-2-4h-1c-5.132 0-7.693 8-2 8Z"/><path fill="#FF64FF" id="MB" d="M243 149c0 1.747-.253 2-2 2l-2-4 4 2ZM247 147l-1 1v-1h1Z"/><path fill="#32B725" id="ENTl3" d="M76 233h1l4-5v-1c-4.68 0-13.02-9.542-15-13.5l-7-9c-3.225-6.449-4.794-13.589-8-20-3.404-6.808 2-28.745 2-36.5l-5 3-1 1c0 27.407-7.701 29.097 6 56.5 3.782 7.564 9.4 12.401 15.5 18.5 1.594 1.593 7.5 2.869 7.5 6Z"/><path fill="#FF7AFE" id="SAG" d="m153 148 8 8.5-1 3.5c-2.014 0-5.932 2.284-8.5 1-7.248-3.624-6.579-13 1.5-13Z"/><path fill="#FF64FF" id="MB" d="M216 153h1v-5h-6l5 5ZM245 148l-1 1 1-1Z"/><path fill="#FF7AFE" id="SAG" d="m309 158-4.5 3c-3.473 1.736-7.052-2-8.5-2-1.826 0 3.768-11 7-11 7.799 0 6 3.483 6 9v1Z"/><path fill="#32B725" id="ENTl3" d="M379 233h1c3.441 0 17.956-15.413 20-19.5l11-22c1.607-3.214.368-7.736 2-11 .468-.937-4-25.673-4-29.5h-1l-4-2c0 6.304 3.239 33.022 1 37.5l-7 17-6 8c-1.599 3.198-12.278 15.5-16 15.5v1c1.077 0 3 3.762 3 5Z"/><path fill="#FF79FD" id="PBG" d="M140 151c0 4.687-3.051 9.225 2.5 12 1.015.508 4.982 5.537 6.5 2.5 2.417-4.834-4.811-14.5-9-14.5Z"/><path fill="#FF64FF" id="MB" d="M239 153h2v-2l-2 2Z"/><path fill="#FF79FD" id="PBG" d="M309 157c3.255 0 1.515-8.492 6.5-6 7.634 3.817-5.064 20.371-8.5 13.5-.904-1.807 2-4.28 2-6.5v-1Z"/><path fill="#32B825" id="ENTl2" d="m380 233 3 4 8.5-4c17.509-8.754 19.73-23.96 27.5-39.5 1.306-2.612.642-6.284 2-9 4.413-8.826-4-21.273-4-29.5v-1l-8-3c0 3.827 4.468 28.563 4 29.5-1.632 3.264-.393 7.786-2 11l-11 22c-2.044 4.087-16.559 19.5-20 19.5ZM76 233l-2 4c-5.087 0-8.277-3.888-12.5-6-13.534-6.767-16.656-20.813-22.5-32.5l-1-6c-1.74-3.48-5.208-14.584-3-19 2.378-4.756 5-14.088 5-19.5l7-2c0 27.407-7.701 29.097 6 56.5 3.782 7.564 9.4 12.401 15.5 18.5 1.594 1.593 7.5 2.869 7.5 6Z"/><path fill="#CBCBCC" id="mlf" d="m225 163-1 1c-1.552 0-1.146-5-4-5 0-2.33-4-3.227-4-6h1l2 1c0 2.009 6 2.654 6 9Z"/><path fill="#FF64FF" id="MB" d="m239 153-1 1 1-1Z"/><path fill="#CBCBCC" id="mlf" d="M236 155h1l1-1 1-1h2l-5 6c-2.73 0-1.112 3.306-2.5 4-1.554.777-3.129-2.242-2.5-3.5l5-4.5Z"/><path fill="#32B722" id="ENTl1" d="m74 238-2 3c-5.23 0-10.022-5.761-14.5-8-13.377-6.688-17.96-24.42-24.5-37.5-1.786-3.572-1.199-8.398-3-12-4.515-9.031 5-19.083 5-26.5 2.364 0 3.053-3 5-3 0 5.412-2.622 14.744-5 19.5-2.208 4.416 1.26 15.52 3 19l1 6c5.844 11.687 8.966 25.733 22.5 32.5 4.223 2.112 7.413 6 12.5 6v1Z"/><path fill="#FF64FF" id="MB" d="m238 154-1 1 1-1Z"/><path fill="#32B722" id="ENTl1" d="m383 238 2 3c3.931 0 7.152-4.326 10.5-6 17.851-8.926 21.392-28.284 29.5-44.5 1.446-2.892.51-7.019 2-10 3.934-7.868-6-16.944-6-23.5l-4-2c0 8.227 8.413 20.674 4 29.5-1.358 2.716-.694 6.388-2 9-7.77 15.54-9.991 30.746-27.5 39.5l-8.5 4v1Z"/><path fill="#FF64FF" id="MB" d="M219 165c2.041 0 3-1.845 3 1l2-2c-1.552 0-1.146-5-4-5 0 1.424-.362 5-2 5l1 1ZM225 163l-1 1 1-1Z"/><path fill="#FFA4FF" id="CLI" d="m237 175-4 1-4-2c0-1.186-1-1.186-1 0-2.25 0-3.376 2-5 2l-4-2 2-7 1-1 2-2 1-1c1.865 0 5.2-.65 6.5 0l3.5 4c0 1.996 2 4.985 2 8Z"/><path fill="#C8C8CC" id="tspc" d="m210 202-1 1-1-1-1-1v-16c0-6.751 2.578-21 11-21l1 1v1l-1 1-1 2c-1.827 0-2 3.968-2 5.5l-3 15.5v4l-1 1-1 7Z"/><path fill="#C8C8C8" id="mtg" d="M217 169c0 4.951 2 15.049 2 5l2-7 1-1c0-2.845-.959-1-3-1v1l-1 1-1 2ZM235 167c0 1.996 2 4.985 2 8 0 8.084 3.924-1.652 2-5.5-1.78-3.561-4-7.974-4-2.5Z"/><path fill="#C8C8CC" id="tspc" d="m246 201 1 2c3.316 0 2-10.613 2-13v-6c0-7.637-1.993-20-11-20 0 3.345 1.655 3.81 3 6.5l3 19.5v2l1 1 1 8Z"/><path fill="#FF64FF" id="MB" d="m219 166-1 1 1-1ZM222 166l-1 1 1-1ZM218 167l-1 2 1-2Z"/><path fill="#FFA5FD" id="PPN" d="M170 170c12.839 0 13 5.87 13 15l-4.5 4c-8.336 4.168-21.738-4.024-17.5-12.5 1.199-2.398 9-5.711 9-6.5ZM287 171c2.811 0 4.978 1.455 6 3.5l3 3c1.394 2.789-3.022 10.261-5.5 11.5-3.174 1.587-16.5.112-16.5-4 0-11.704-.085-14 13-14Z"/><path fill="#C7C8CC" id="alv" d="M69 173c.913 0 2 5.014 2 6-1.995 0-2-4.377-2-6Z"/><path fill="#FF64FF" id="MB" d="M228 174h1c0-1.186-1-1.186-1 0Z"/><path fill="#CCC7CC" id="dscp" d="M223 176c0 2.926-3.9 6.701-2 10.5 3.043 6.086 10.935 6.131 14 0 1.873-3.745-2-7.738-2-10.5l-4-2h-1c-2.25 0-3.376 2-5 2Z"/><path fill="#C7C8CC" id="alv" d="M387 175c-1.473 0-1 1.952-1 3 1.473 0 1-1.952 1-3ZM385 181h1v-3c-1.473 0-1 1.952-1 3ZM75 191c0 2.855 7.516 14 10 14l-8-11.5c-.94-1.881-4.017-13.5-6-13.5v2l2 5v2l2 2ZM381 191h1l1-2v-1l1-1c0-1.048-.473-3 1-3v-3c-1.693 0-4 8.239-4 10Z"/><path fill="#C8CBCC" id="ec" d="M385 182h1v-1h-1v1Z"/><path fill="#7DCD4B" id="HPF" d="m71 182 2 5-3-5h1ZM386 182l-1 1v-1h1Z"/><path fill="#C9C9CB" id="ll" d="m155 227 2 6-6-10.5-9-11.5-1-2c0-6.237 1.483-7.465 4-12.5V186l2.5-3c4.443 0 6.29 12 9.5 12l1 4c-2.021 0-3.894-4.303-6.5-3-16.882 8.441 3.5 21.367 3.5 31Z"/><path fill="#FF64FF" id="MB" d="m252 186-3 4v-6l3 2Z"/><path fill="#C9C9CB" id="ll" d="M301 227v2c1.963 0 10.554-18 14-18v-1l1-6.5c-3.409-6.818-5-10.082-5-18.5l-3.5-1c-3.266 1.633-5.706 12-8.5 12v2c1.984 0 3.945-3.278 6.5-2 16.633 8.316-3.5 20.495-3.5 29l-1 2Z"/><path fill="#7DCD4B" id="HPF" d="M385 184c-1.473 0-1 1.952-1 3 1.473 0 1-1.952 1-3Z"/><path fill="#FFC295" id="PRNr" d="m211 228-16.5 8c-1.148 1.148-6.431 8-6.5 8-11.809 0-12.652-17.804-17-26.5-1.784-3.567 2-7.072 2-9.5 0-3.964 10.459-3.582 8-8.5l-4-3-3 .5c0-3.505 2-4.11 2-6 1.048 0 3 .473 3-1l6-3c2.128 0 5.608-1.054 7.5-2 3.184-1.592 8.819 1 11.5 1l3 3v12l1 1 1 1 1 2 1 7 1 1v3l1 1v2c0 2.707-1 5.903-1 8l-1 1Z"/><path fill="#FF64FF" id="MB" d="m204 186 3 3v-4l-3 1Z"/><path fill="#FFC295" id="PRNr" d="M244 227c4.289 0 24 12.249 24 17l3.5 1c8.865-4.432 9.875-18.25 13.5-25.5 1.592-3.184-1-8.819-1-11.5l-3.5-4-5-1c-2.351-1.176 2.734-7 4-7l2.5 1c0-7.464-4-4.887-4-7l-7-3-6.5-2c-3.391-1.695-9.589 1-12.5 1l-3 4c0 2.387 1.316 13-2 13 0 1.048.473 3-1 3l-1 8-1 1v2c0 1.048.473 3-1 3l1 7Z"/><path fill="#7DCD4B" id="HPF" d="m384 187-1 1 1-1ZM73 189l2 2-2-2Z"/><path fill="#FFC393" id="CS" d="m225 230 2-3.5c.646-1.292-1.303-7.5 1.5-7.5l2.5 11 4-1 2-1 6-8c0-1.048-.473-3 1-3v-2l1-1 1-8v-5l-1-8-1-1v-1l-1-1-6.5-1-8 5c-2.884 0-5.505-3.753-8-5l-7.5 1-1 2v2l-1 1-1 7v3l1 7 1 1v3l1 1v2l8 10 4 1Z"/><path fill="#7DCD4B" id="HPF" d="m383 189-1 2 1-2Z"/><path fill="#FF9B88" id="P" d="M179 190c-1.048 0-3-.473-3 1 1.048 0 3 .473 3-1ZM213 190l-1 2v-2h1ZM244 190v1l-1-1h1Z"/><path fill="#FF9B88" id="P" d="M153 263c5.052 0 8.192 7.846 12.5 10 6.481 3.24 25.766 16.117 34 12 8.368-4.184 31.05-8.475 40-4h9c3.403 1.701 11.472 6.264 16 4 4.057-2.029 8.981-1.99 13-4l13-8c4.654-2.327 8.02-10 13.5-10 0-1.564-1-3.876-1-6-3.449 0-12 17.65-12 9-1.9 0-6.831 7.835-12.5 5-3.054-1.527-5.932-17-1.5-17 0-14.192 7.092-26.685 13-38.5l8-15.5 1-1v-3c0-1.149-4.516-1.508-5.5-2-4.156-2.078-10.64-4-15.5-4 0 2.113 4-.464 4 7 14.98 0 9.75 11 2 11 0 2.681 2.592 8.316 1 11.5-3.625 7.25-4.635 21.068-13.5 25.5l-3.5-1c0 5.572 1 12.756 1 19 0 3.433 1.85 6.799 0 10.5-1.436 2.873-8.086 1.293-10.5 2.5-8.439 4.22-23.178-1.857-27.5-10.5-1.784-3.567-1-7.152-1-10.5 0-7.629 1-17.072 1-25l-2.5-11c-2.803 0-.854 6.208-1.5 7.5l-2 3.5c0 5.941 2 12.757 2 19 0 1.321.684 6-1 6 0 8.967-1.611 15.555-10.5 20-4.78 2.39-25.755 2.99-28.5-2.5V263c0-6.417 1-13.174 1-19-11.809 0-12.652-17.804-17-26.5-1.784-3.567 2-7.072 2-9.5-9.043 0-11.979-11 1-11 0-3.505 2-4.11 2-6-6.979 0-12.278 4-19 4l1 4c0 3.872 5.246 9.991 7 13.5 6.261 12.522 14 25.405 14 40.5 3.204 0 2.875 15.813-1.5 18-7.257 3.629-12.343-8-13.5-8l2 7.5-3-2c-1.722-3.445-6.046-11.5-10-11.5v6Z"/><path fill="#C7C8CC" id="alv" d="m381 192-2 3c0-1.465-.109-4 2-4v1Z"/><path fill="#7DCD4B" id="HPF" d="m382 191-1 1v-1h1Z"/><path fill="#FF9B88" id="P" d="m244 192 1 1-1-1ZM212 194l-1 1 1-1Z"/><path fill="#C7C8CC" id="alv" d="M379 195c-1.577 0-2 1.762-2 3 1.577 0 2-1.762 2-3Z"/><path fill="#FFAC6F" id="NLL" d="M179 253c0 12.92-15 15.421-15 5 0-1.767-1.561-13-3-13v-3c0-2.852-2.457-15-6-15 0-9.633-20.382-22.559-3.5-31 2.606-1.303 4.479 3 6.5 3 0 3.872 5.246 9.991 7 13.5 6.261 12.522 14 25.405 14 40.5Z"/><path fill="#C8C8CB" id="rust" d="m174 197 3-.5 4 3c2.459 4.918-8 4.536-8 8.5-9.043 0-11.979-11 1-11ZM282 197c14.98 0 9.75 11 2 11l-3.5-4-5-1c-2.351-1.176 2.734-7 4-7l2.5 1Z"/><path fill="#FFAC6F" id="NLL" d="M277 254c0 10.962 15 15.623 15 4 0-1.045 2.744-12 3-12v-1c0-1.235-.643-5 1-5 0-1.048-.473-3 1-3 0-1.93.84-8 3-8l1-2 1-2c0-8.505 20.133-20.684 3.5-29-2.555-1.278-4.516 2-6.5 2v1l-1 1-8 15.5c-5.908 11.815-13 24.308-13 38.5Z"/><path fill="#C7C8CC" id="alv" d="m377 198-1 1 1-1Z"/><path fill="#C9C9CB" id="ll" d="m299 199-1 1 1-1Z"/><path fill="#C7C8CC" id="alv" d="m376 199-1 2 1-2Z"/><path fill="#FF9B88" id="P" d="m207 201 1 1-1-1ZM247 203c0 1.048.473 3-1 3v-5l1 2Z"/><path fill="#C7C8CC" id="alv" d="m375 201-1 1 1-1Z"/><path fill="#FF9B88" id="P" d="m209 203 1 2v-3l-1 1Z"/><path fill="#C7C8CC" id="alv" d="m374 202-1 1 1-1ZM373 204l-1 1 1-1ZM372 205l-1 1 1-1ZM85 206l2 2-2-2ZM370 208l-1 1 1-1ZM87 209l2 2-2-2Z"/><path fill="#F0F080" id="CB" d="M142 211c-2.838 0-5.734 9-7 9 0-4.383.927-11 6-11l1 2ZM325 231l-4 2c0-5.017 1.115-12.27-1-16.5l-5-5.5v-1l3.5-1c3.906 1.953 1.809 12.118 3.5 15.5l3 6.5Z"/><path fill="#C7C8CC" id="alv" d="m369 209-1 1 1-1Z"/><path fill="#33B931" id="HATA" d="M118 213h2l1-1v-1c-1.238 0-3 .423-3 2Z"/><path fill="#CCCCCA" id="mcp" fill-rule="evenodd" d="M149 227c0 3.01 2.749 4.998 4 7.5 1.694 3.388-.651 8.698 1 12 9.177 18.354 3.662-19.5-5-19.5m14 31 1 5 2 7.5-3-2c-1.722-3.445-6.046-11.5-10-11.5l-4-4.5-12-17.5c0-3.678-2-8.331-2-13v-2c1.266 0 4.162-9 7-9l9 11.5 6 10.5v1c0 1.238.423 3 2 3v2l1 2v1c0 1.048-.473 3 1 3v6l1 1 1 6ZM305 227c0 .432-7.162 16.825-8 18.5-.545 1.089-.251 6.5 1.5 6.5 2.028 0 2.798-3.096 3.5-4.5v-9c1.539-3.079 3.421-5.841 5-9 .88-1.759-.606-2.5-2-2.5m-14 38v1c0 8.65 8.551-9 12-9 1.413 0 16-20.05 16-22l1-1 1-1c0-5.017 1.115-12.27-1-16.5l-5-5.5c-3.446 0-12.037 18-14 18 0 1.048.473 3-1 3l-1 2v1l-1 2-1 2v1c0 1.048.473 3-1 3v2l-1 2c0 2.083-.142 12-2 12v4l-1 1-1 1Z"/><path fill="#33B931" id="HATA" d="m358 218-2 1-7-2c0-2.461-3.378-2-5-2l-5-1-3-1v-2c2.73 0 6.298 2 10 2 3.55 0 7.945 5 12 5Z"/><path fill="#C7C8CC" id="alv" d="M91 215h1l-3-3 2 3Z"/><path fill="#31B625" id="ENTm1" d="m121 212-1 1 1-1Z"/><path fill="#FF9B88" id="P" d="m211 212 1 1-1-1Z"/><path fill="#C7C8CC" id="alv" d="m367 212-1 1 1-1Z"/><path fill="#33B931" id="HATA" d="M108 215h5l4-1 1-1h-8l-2 2Z"/><path fill="#31B625" id="ENTm1" d="m74 238-2 3c0 4.625 23.702 10.399 28.5 8 12.687-6.343 19.5-21.998 19.5-36h-2l-1 1c0 4.607-6.15 23.825-10.5 26-2.476 1.238-5.602 1.801-8 3-1.455.728-5.073 1.964-7 1-2.3-1.15-15.573-6-17.5-6ZM383 238l2 3c0 4.035-24.537 10.482-29.5 8-11.524-5.762-19.5-23.489-19.5-36l3 1 2 3.5v5c5.985 11.97 2.948 13.724 16.5 20.5 1.455.728 5.073 1.964 7 1l18.5-6Z"/><path fill="#C7C8CC" id="alv" d="M365 214h1v-1l-1 1Z"/><path fill="#30B824" id="ENTm2" d="M74 237v1c1.927 0 15.2 4.85 17.5 6 1.927.964 5.545-.272 7-1 2.398-1.199 5.524-1.762 8-3 4.35-2.175 10.5-21.393 10.5-26l-4 1c0 4.264-6.086 19.793-10.5 22l-5 1c-1.19.595-3.347 1.826-5 1L77 233h-1l-2 4Z"/><path fill="#FF9B88" id="P" d="m245 214-1 1 1-1Z"/><path fill="#30B824" id="ENTm2" d="M383 237v1l-18.5 6c-1.927.964-5.545-.272-7-1-13.552-6.776-10.515-8.53-16.5-20.5v-5l-2-3.5 5 1c0 11.026 6.491 19.496 15.5 24 3.542 1.771 12.149-2.574 15-4 1.119-.559 4.5-.155 4.5-2h1l3 4Z"/><path fill="#32B623" id="ENTm6" d="M356 219c0 7.283 15 8.02 15 2l-5-7h-1c0 1.429-5.478 4-7 4l-2 1ZM101 219c0 8.873-16 5.728-16 2 0-1.702 4.802-6 6-6h1l6 3c0 1.473 1.952 1 3 1Z"/><path fill="#33B931" id="HATA" d="M98 218c0 1.473 1.952 1 3 1l6-2 1-2c-3.647 0-6.586 3-10 3Z"/><path fill="#31B723" id="ENTm3" d="m81 228-4 5 15.5 6c1.653.826 3.81-.405 5-1l5-1c4.414-2.207 10.5-17.736 10.5-22h-5l-1 2c0 7.558-7.128 21.186-17.5 16l-8.5-5ZM376 228c1.077 0 3 3.762 3 5 0 1.845-3.381 1.441-4.5 2-2.851 1.426-11.458 5.771-15 4-9.009-4.504-15.5-12.974-15.5-24 1.622 0 5-.461 5 2 0 7.268 7.407 21.046 17.5 16l9.5-5Z"/><path fill="#FF9B88" id="P" d="m212 216 1 1-1-1Z"/><path fill="#30B724" id="ENTm5" d="M81 227v1l8.5 5c10.372 5.186 17.5-8.442 17.5-16l-6 2c0 8.873-16 5.728-16 2h-1l-3 6Z"/><path fill="#FF9B88" id="P" d="M244 217c-1.473 0-1 1.952-1 3 1.473 0 1-1.952 1-3Z"/><path fill="#30B724" id="ENTm5" d="M376 227v1l-9.5 5c-10.093 5.046-17.5-8.732-17.5-16l7 2c0 7.283 15 8.02 15 2h1l4 6Z"/><path fill="#FF9B88" id="P" d="M212 227c3.618 0 6.154 2 9 2l-8-10c0 2.707-1 5.903-1 8ZM244 227l-7 1 6-8 1 7Z"/><path fill="#F0F080" id="CB" d="m131 231 6 4c0-3.678-2-8.331-2-13-1.951 0-.477 2.454-1 3.5l-3 5.5Z"/><path fill="#FF9B88" id="P" d="m302 225-1 2 1-2Z"/><path fill="#CCCBCA" id="moV" d="M149 227c0 3.01 2.749 4.998 4 7.5 1.694 3.388-.651 8.698 1 12 9.177 18.354 3.662-19.5-5-19.5Z"/><path fill="#FF9B88" id="P" d="M160 242h1c0-2.852-2.457-15-6-15l2 6v1l2 3v2l1 2v1ZM212 227l-1 1 1-1Z"/><path fill="#FEBA85" id="TRN" fill-rule="evenodd" d="M199 255c0 2.332-4.722 2.057-3 5.5 3.637 7.275 19.049-2.226 12.5-5.5-.813-.407-7.461 0-9.5 0m21-21c0 .208-2.477 4.454-3 5.5-2.819 5.638 2.307 11.097 7.5 8.5 3.662-1.831-1.078-14-4.5-14m6 21c-7.214 0-11.454 6.977-17.5 10-7.092 3.546-14.59-2-21.5-2 0-6.417 1-13.174 1-19 .069 0 5.352-6.852 6.5-8l16.5-8 1-1c3.618 0 6.154 2 9 2l4 1c0 5.941 2 12.757 2 19 0 1.321.684 6-1 6ZM248 255l-1 4.5c2.071 4.141 20.613 6.613 10-4l-4-.5h-5m-12-21c0 .273-4.336 6.171-5 7.5-1.527 3.055 1.593 9.453 5.5 7.5 3.525-1.763 4.029-15-.5-15m-6 21c7.768 0 11.069 6.784 17.5 10 7.099 3.55 14.676-2 21.5-2 0-6.244-1-13.428-1-19 0-4.751-19.711-17-24-17l-7 1-2 1-4 1c0 7.928-1 17.371-1 25Z"/><path fill="#FF9B88" id="P" d="M300 229h1v-2l-1 2Z"/><path fill="#CCCBCA" id="moV" d="M305 227c0 .432-7.162 16.825-8 18.5-.545 1.089-.251 6.5 1.5 6.5 2.028 0 2.798-3.096 3.5-4.5v-9c1.539-3.079 3.421-5.841 5-9 .88-1.759-.606-2.5-2-2.5Z"/><path fill="#FF9B88" id="P" d="m237 228-2 1 2-1ZM297 237h1l1-2v-1l1-2v-3c-2.16 0-3 6.07-3 8Z"/><path fill="#C9C9CB" id="ll" d="M301 229c0 1.048.473 3-1 3v-3h1Z"/><path fill="#CACACB" id="sV" d="M153 257v6l-7.5 4c-5.231 2.616-14.168-2.084-18-4-12.962-6.481-11.128-32 3.5-32l6 4 12 17.5 4 4.5ZM303 257c0 2.124 1 4.436 1 6 1.186 0 5.192 3.346 6.5 4 6.15 3.075 15.539-2.77 20-5 12.161-6.08 8.021-31-5.5-31l-4 2-1 1-1 1c0 1.95-14.587 22-16 22Z"/><path fill="#C9C9CB" id="ll" d="m300 232-1 2 1-2Z"/><path fill="#F0F080" id="CB" d="m321 233-1 1 1-1Z"/><path fill="#C9C9CB" id="ll" d="m157 234 2 3c-1.577 0-2-1.762-2-3Z"/><path fill="#CACCC8" id="ml" d="M220 234c0 .208-2.477 4.454-3 5.5-2.819 5.638 2.307 11.097 7.5 8.5 3.662-1.831-1.078-14-4.5-14ZM236 234c0 .273-4.336 6.171-5 7.5-1.527 3.055 1.593 9.453 5.5 7.5 3.525-1.763 4.029-15-.5-15Z"/><path fill="#F0F080" id="CB" d="m320 234-1 1 1-1Z"/><path fill="#C9C9CB" id="ll" d="m299 235-1 2 1-2Z"/><path fill="#FF9B88" id="P" d="M296 240h1v-3c-1.473 0-1 1.952-1 3Z"/><path fill="#C9C9CB" id="ll" d="m298 237-1 2v-2h1ZM159 239l1 2-1-2Z"/><path fill="#FF9B88" id="P" d="M295 245h1v-5c-1.643 0-1 3.765-1 5Z"/><path fill="#C9C9CB" id="ll" d="M297 240c0 1.048.473 3-1 3v-3h1ZM161 242v3c-1.473 0-1-1.952-1-3h1Z"/><path fill="#FF9B88" id="P" d="M163 258h1c0-1.767-1.561-13-3-13v6l1 1 1 6Z"/><path fill="#C9C9CB" id="ll" d="M295 246v1l1-2h-1v1Z"/><path fill="#FF9B88" id="P" d="m292 258 1 1c1.858 0 2-9.917 2-12v-1c-.256 0-3 10.955-3 12Z"/><path fill="#C9C9CB" id="ll" d="m161 251 1 1-1-1ZM163 258h1c0 10.421 15 7.92 15-5 3.204 0 2.875 15.813-1.5 18-7.257 3.629-12.343-8-13.5-8l-1-5ZM291 265v1c-1.9 0-6.831 7.835-12.5 5-3.054-1.527-5.932-17-1.5-17 0 10.962 15 15.623 15 4l1 1v4l-1 1-1 1Z"/><path fill="#C8C7CC" id="cst" d="M199 255c0 2.332-4.722 2.057-3 5.5 3.637 7.275 19.049-2.226 12.5-5.5-.813-.407-7.461 0-9.5 0Z"/><path fill="#FFB885" id="PG" d="M226 255c-7.214 0-11.454 6.977-17.5 10-7.092 3.546-14.59-2-21.5-2v9.5c2.745 5.49 23.72 4.89 28.5 2.5 8.889-4.445 10.5-11.033 10.5-20ZM230 255c7.768 0 11.069 6.784 17.5 10 7.099 3.55 14.676-2 21.5-2 0 3.433 1.85 6.799 0 10.5-1.436 2.873-8.086 1.293-10.5 2.5-8.439 4.22-23.178-1.857-27.5-10.5-1.784-3.567-1-7.152-1-10.5Z"/><path fill="#C8C7CC" id="cst" d="m248 255-1 4.5c2.071 4.141 20.613 6.613 10-4l-4-.5h-5Z"/><path fill="#FF9B88" id="P" d="m293 263-1 1 1-1ZM292 264l-1 1 1-1Z"/></svg>