<svg xmlns="http://www.w3.org/2000/svg" viewBox="0 0 456 320"><path fill="#FEFA90" id="DEC" d="M213 91h13c0-2.67-13-3.444-13 0ZM231 91h13c0-2.98-13-2.98-13 0Z"/><path fill="#FDFB90" id="FOTU" d="M274 128h1c0-5.306 7-9.434 7-14 0-13.592-26.975-23-38-23h-31c-11.149 0-39 9.493-39 23 1.654 0 8 12.149 8 14 2.149 0 15.905-5.703 18.5-7 4.51-2.255 11.411.294 16-2 5.645-2.823 41.356 1.678 46 4l11.5 5Z"/><path fill="#FFFB8E" id="PRM" d="m147 168-2 1c-19.524 0-18.535-15.43-12-28.5l9-10c5.927-11.853 15.901-13.2 26.5-18.5l5.5 2c1.654 0 8 12.149 8 14-1.465 0-23.711 25.922-25 28.5l-5 5.5-1 1-4 5ZM305 163l6 6c19.896 0 20.021-13.458 13-27.5l-6-7c-6.979-13.958-18.47-16.485-30.5-22.5l-5.5 2c0 4.566-7 8.694-7 14l6 5.5 15.5 19.5 8.5 10Z"/><path fill="#FBFC91" id="PYR" d="m187 165 7.5-4c5.261-2.631 12.762-.381 18-3H224c8.667 0 27.704-1.398 34.5 2 2.129 1.064 8.388 5 10.5 5 0-4.611.509-23.519 2-26.5 1.415-2.83 3-7.222 3-10.5l-11.5-5c-4.644-2.322-40.355-6.823-46-4-4.589 2.294-11.49-.255-16 2-2.595 1.297-16.351 7-18.5 7l3 8.5c2.103 4.206 2 22.496 2 28.5Z"/><path fill="#FFF990" id="COPY" d="m148 171-1 7.5c3.44 6.881 9.888 11.806 18.5 7.5l6.5-5c0-4.61 15-13.824 15-16 0-6.004.103-24.294-2-28.5l-3-8.5c-1.465 0-23.711 25.922-25 28.5l-5 5.5-1 1c0 1.543-1.709 8-3 8ZM309 173c0 8.122-4.833 19.334-15.5 14l-9.5-6c0-5.878-15-13.864-15-16 0-4.611.509-23.519 2-26.5 1.415-2.83 3-7.222 3-10.5h1l6 5.5 15.5 19.5 8.5 10c0 1.176 2.114 7 3 7v1l1 2Z"/><path fill="#FFFA8F" id="UVU" fill-rule="evenodd" d="m182 175-1 2.5c1.51 3.019 15.083 2.5 18.5 2.5h22l7-2c6.596 3.298 16.622 2 24.5 2 3.782 0 20.743.013 22-2.5.997-1.994-3.193-3.153-4.5-2.5-7.681 3.84-18.566 1-27 1H210l-12.5 1c-3.583-1.792-11.462-2-15.5-2m59 26h3c0-2.656 10.597-1.049 12.5-2 9.946-4.973 27.5-2.797 27.5-18 0-5.878-15-13.864-15-16-2.112 0-8.371-3.936-10.5-5-6.796-3.398-25.833-2-34.5-2h-11.5c-5.238 2.619-12.739.369-18 3l-7.5 4c0 2.176-15 11.39-15 16 0 15.35 18.499 13 28.5 18 1.77.885 11.5-.431 11.5 2h29Z"/><path fill="#F0F080" id="CB" d="m152 162-1 1 1-1ZM147 168c1.473 0 1 1.952 1 3 1.291 0 3-6.457 3-8l-4 5ZM311 169c-1.048 0-3-.473-3 1-.886 0-3-5.824-3-7l6 6ZM147 168l-2 1 2-1ZM308 171l1 2-1-2Z"/><path fill="#CBC9CC" id="arb" d="m182 175-1 2.5c1.51 3.019 15.083 2.5 18.5 2.5h22l7-2c6.596 3.298 16.622 2 24.5 2 3.782 0 20.743.013 22-2.5.997-1.994-3.193-3.153-4.5-2.5-7.681 3.84-18.566 1-27 1H210l-12.5 1c-3.583-1.792-11.462-2-15.5-2Z"/><path fill="#FF9BCD" id="MY" fill-rule="evenodd" d="m148 218-1 1.5c-2.614 5.228 4.965-1.5 1-1.5m11-13c0 1.93 1.93 0 0 0m9-6c0 2.342-8 1.932-8 5.5 0 1.513 5.353-2.5 6-2.5l13-1.5c0-2.175-9.357-1.5-11-1.5m-21 32v-3.5c0-13.463-2.202 5.5-4 5.5 0-6.335 1.418-10.335 4-15.5 1.459-2.917 2.506-6.506 5-9 9.755-9.755 22.949-16.276 36.5-9.5h6c3.329 1.665 8.621 3 12.5 3v3c-5.473 0-6-2.045-6 4-1.323 0-7.364-6.932-9.5-8-2.635-1.317-8.179 1.142-6.5 4.5l7 5.5-3 1-4-4.5c-10.317-10.317-16.147-.5-26-.5l-3.5 4c-2.569 2.569-3.988 5.477-5.5 8.5-.817 1.633-1.164 11.5-3 11.5ZM279 199c0 4.555 7.298.899 11.5 3 1.78.89 6.229 5 8 5l-5.5-5.5c-3.302-3.302-9.278-2.5-14-2.5m32 47c0 5.188.188 13.125-2 17.5l-4 9.5c3.96 0 5.811-10.122 7-12.5 8.395-16.79.22-37.561-7-52-7.909-15.817-40.17-12.665-52.5-6.5l-8.5-1h-3v1c3.804 0 9-1.576 9 3 3.088 0 6-2.58 6 3 2.03 0 6.173-5.836 8.5-7 1.748-.874 8.672 1.155 7.5 3.5l-7 6.5 2 1 9.5-9c7.648-3.824 18.459 4.23 24 7 5.506 2.753 6.136 13.772 8.5 18.5.662 1.324-1.207 6.5 1 6.5v-7l-2-8.5c.438-.876 2.542 3.083 3 4 2.284 4.568 2 11.507 2 17 0 1.21-.814 5.5-2 5.5Z"/><path fill="#C8CACA" id="sptV" d="M168 199c0 2.342-8 1.932-8 5.5 0 1.513 5.353-2.5 6-2.5l13-1.5c0-2.175-9.357-1.5-11-1.5ZM279 199c0 4.555 7.298.899 11.5 3 1.78.89 6.229 5 8 5l-5.5-5.5c-3.302-3.302-9.278-2.5-14-2.5Z"/><path fill="#CAC9CC" id="cuf" d="M201 209c-1.323 0-7.364-6.932-9.5-8-2.635-1.317-8.179 1.142-6.5 4.5l7 5.5c2.771 0 9 3.319 9-2Z"/><path fill="#FF9BCD" id="MY" d="M207 202h9v-1h-4c-1.235 0-5-.643-5 1Z"/><path fill="#CAC9CC" id="cuf" d="M256 208c2.03 0 6.173-5.836 8.5-7 1.748-.874 8.672 1.155 7.5 3.5l-7 6.5c-3.964 0-9 3.223-9-3Z"/><path fill="#FEA3D0" id="GR" d="m217 216 8 1c0-1.974 2-3.517 2-6l-1-3-1-1-1-1-1-1-2-1-1-1h-2l-1-1h-10v3c0 3.814 8 4.806 8 9l2 2Z"/><path fill="#FF9BCD" id="MY" d="m217 202 1 1-1-1ZM240 202l-2 1 2-1Z"/><path fill="#FEA3D0" id="GR" d="m239 216-8 1-2-4v-3l1-1 1-1 3-3 1-1 3-1 2-1h1c3.804 0 9-1.576 9 3l-1 1c0 4.023-8 4.315-8 9l-2 1Z"/><path fill="#FDA4D0" id="SPVC" d="M146 241c0 13.087-.593 29.953 11.5 36l5.5-1c0-2.4 6.772-9.045 8-11.5 5.074-10.148 5.882-22.764 11-33l9-10.5v-5l-2-4-4-4.5c-10.317-10.317-16.147-.5-26-.5l-3.5 4c-2.569 2.569-3.988 5.477-5.5 8.5-.817 1.633-1.164 11.5-3 11.5v3c0 1.235.643 5-1 5v2Z"/><path fill="#FF9BCD" id="MY" d="m220 203 1 1-1-1Z"/><path fill="#FDA4D0" id="SPVC" d="m305 273-5.5 4c-2.856 1.428-4.553-2-6.5-2-4.01 0-6.741-10.981-8-13.5-4.791-9.582-7.025-21.05-12-31-1.009-2.019-4.908-9.5-8-9.5v-4l2-5 9.5-9c7.648-3.824 18.459 4.23 24 7 5.506 2.753 6.136 13.772 8.5 18.5.662 1.324-1.207 6.5 1 6.5v3c0 1.321-.684 6 1 6v2c0 5.188.188 13.125-2 17.5l-4 9.5Z"/><path fill="#FDA5D0" id="CU" d="M214 223c-1.996 0-4.985 2-8 2-2.483 0-4.026-2-6-2l-1-1h-1l-7-6-2-4 3-1c2.771 0 9 3.319 9-2 0-6.045.527-4 6-4 0 3.814 8 4.806 8 9v3l-1 6Z"/><path fill="#FF9BCD" id="MY" d="m235 204-1 1 1-1Z"/><path fill="#FDA5D0" id="CU" d="m257 223-6 2c-3.015 0-6.004-2-8-2 0-1.714-2-3.482-2-6v-2c0-4.685 8-4.977 8-9l1-1c3.088 0 6-2.58 6 3 0 6.223 5.036 3 9 3l2 1-2 5c-1.634 0-4 2.634-4 4-1.048 0-3-.473-3 1l-1 1Z"/><path fill="#C8CACA" id="sptV" d="M159 205c0 1.93 1.93 0 0 0Z"/><path fill="#FF9BCD" id="MY" d="m223 205 1 1-1-1ZM250 205l-1 1 1-1ZM225 207l1 1-1-1ZM231 208l-1 1 1-1ZM230 209l-1 1 1-1ZM225 217l3.5 2 2.5-2-2-4-2-2c0 2.483-2 4.026-2 6ZM217 216l-2 1v-3l2 2ZM239 216l2 1v-2l-2 1ZM191 221l7 1-7-6v5Z"/><path fill="#FDA5D1" id="NTS" d="M238 225h1l4-2c0-1.714-2-3.482-2-6l-2-1-8 1-2.5 2-3.5-2-8-1-2 1-1 6c0 2.109 2.535 2 4 2h11l8-1 1 1Z"/><path fill="#FF9BCD" id="MY" d="M261 221h4v-4c-1.634 0-4 2.634-4 4Z"/><path fill="#C8CACA" id="sptV" d="m148 218-1 1.5c-2.614 5.228 4.965-1.5 1-1.5ZM311 244v2c1.186 0 2-4.29 2-5.5 0-5.493.284-12.432-2-17-.458-.917-2.562-4.876-3-4l2 8.5v10c1.684 0 1 4.679 1 6Z"/><path fill="#FDB1D7" id="MDRNd" d="M165 279h8c2.813 0 3.461-4 5-4 0-8.703 15.284-24.784 22-31.5l11-10.5c0-3.435-5-5.249-5-8-2.483 0-4.026-2-6-2l-1-1h-1l-7-1-9 10.5c-5.118 10.236-5.926 22.852-11 33-1.228 2.455-8 9.1-8 11.5 0 2.215 2 1.519 2 3Z"/><path fill="#FF9BCD" id="MY" d="M261 221c-1.048 0-3-.473-3 1 1.048 0 3 .473 3-1Z"/><path fill="#FDB1D7" id="MDRNd" d="M283 279h9l1-4c-4.01 0-6.741-10.981-8-13.5-4.791-9.582-7.025-21.05-12-31-1.009-2.019-4.908-9.5-8-9.5h-4c0 1.473-1.952 1-3 1l-1 1-6 2c0 1.843-6 4.584-6 8l11 10.5c5.618 5.618 23 23.06 23 32.5l4 3Z"/><path fill="#C8CACA" id="sptV" d="M146 239v2c-2.358 0 .091 6-1.5 6l-.5-4c0-2.69-1-6.675-1-10 1.798 0 4-18.963 4-5.5v6.5c-1.643 0-1 3.765-1 5Z"/><path fill="#FF9BCD" id="MY" d="m199 222 1 1-1-1ZM258 222l-1 1 1-1Z"/><path fill="#FF9BCD" id="MY" fill-rule="evenodd" d="m286 288-1 1.5c0 1.858 6.354-1.5 1-1.5m-117 0c0 4.365 3.479 0 0 0m56-23v9.5c0 2.943 1.086 4.827 0 7-1.974 3.949 3.55 9.9 6 5 1.354-2.708 1-13.758 1-16.5 0-1.4-.22-4.36-1.5-5H225m-59 24c0 7.125 18.077 6 23 6h32.5l7-2 7 2H264c5.322 0 27 .951 27-6l-2-2c-6.343 0-6-2.253-6-8l-4-3c-1.423 0-3.544 1.978-5.5 1l-2.5-2c0 4.802-17.12 7.19-21.5 5-8.888-4.444-8.471-14.443-12.5-22.5l-6-8c-.742-1.483 7.319-9.5 9-9.5l5-7c0-3.416 6-6.157 6-8-3.015 0-6.004-2-8-2l-4 2c0 4.535-7.564 13.372-10 8.5V225h-2l1 5.5c-4.083 8.165-10-.084-10-5.5-1.465 0-4 .109-4-2-1.996 0-4.985 2-8 2 0 2.751 5 4.565 5 8 1.874 0 5 5.55 5 7 2.069 0 10.558 7.385 9 10.5l-6 8c-3.986 7.973-3.608 17.054-12.5 21.5-3.32 1.66-21.5-1.267-21.5-4-2.093 0-7 3.132-7-1-1.539 0-2.187 4-5 4 0 6.366.792 8-6 8l-1 2Z"/><path fill="#FDB1D8" id="DMX" d="M218 225h9l1 5.5c-4.083 8.165-10-.084-10-5.5ZM238 225h1c0 4.535-7.564 13.372-10 8.5V225l8-1 1 1Z"/><path fill="#FF9BCD" id="MY" d="m237 224 1 1-1-1ZM159 282l-1-1.5c-2.246-4.491 5.994 2.5 6 2.5 0-1.145-.579-4 1-4 0-1.481-2-.785-2-3l-5.5 1c-12.093-6.047-11.5-22.913-11.5-36-2.358 0 .091 6-1.5 6l-.5-4c0-2.69-1-6.675-1-10-1.907 0-2 12.19-2 14.5 0 6.137 10.441 34.5 18 34.5Z"/><path fill="#FFB2D8" id="IRN" d="M178 275c0 4.132 4.907 1 7 1 0-8.7 21.725-36 31-36 0-1.45-3.126-7-5-7l-11 10.5c-6.716 6.716-22 22.797-22 31.5ZM271 275l2.5 2c1.956.978 4.077-1 5.5-1 0-9.44-17.382-26.882-23-32.5L245 233l-5 7c9.161 0 31 26.382 31 35Z"/><path fill="#FF9BCD" id="MY" d="M147 234c-1.643 0-1 3.765-1 5 1.643 0 1-3.765 1-5ZM310 238c1.684 0 1 4.679 1 6-1.684 0-1-4.679-1-6Z"/><path fill="#FFB1D6" id="MDRNv" d="M216 240c2.069 0 10.558 7.385 9 10.5l-6 8c-3.986 7.973-3.608 17.054-12.5 21.5-3.32 1.66-21.5-1.267-21.5-4 0-8.7 21.725-36 31-36ZM240 240c9.161 0 31 26.382 31 35 0 4.802-17.12 7.19-21.5 5-8.888-4.444-8.471-14.443-12.5-22.5l-6-8c-.742-1.483 7.319-9.5 9-9.5Z"/><path fill="#C9C7CC" id="pyd" d="M225 265v9.5c0 2.943 1.086 4.827 0 7-1.974 3.949 3.55 9.9 6 5 1.354-2.708 1-13.758 1-16.5 0-1.4-.22-4.36-1.5-5H225Z"/><path fill="#FF9BCD" id="MY" d="M299 281c0-5.396-4.489 1-6 1l-1-3 1-4c1.947 0 3.644 3.428 6.5 2l5.5-4c0 1.528-4.54 8-6 8Z"/><path fill="#C9CACA" id="sctd" d="M165 289h1l1-2-3-4c-.006 0-8.246-6.991-6-2.5l1 1.5v1c1.198 0 6 4.298 6 6Z"/><path fill="#C8C8CB" id="rust" d="m164 283 3 4c6.792 0 6-1.634 6-8h-8c-1.579 0-1 2.855-1 4ZM292 283l-3 4c-6.343 0-6-2.253-6-8h9l1 3-1 1Z"/><path fill="#C9CACA" id="sctd" d="m292 288-1 1-2-2 3-4 1-1c1.511 0 6-6.396 6-1l-1 1-1 1-1 1-1 1-1 1-1 1-1 1Z"/><path fill="#FF9BCD" id="MY" d="m299 281-1 1 1-1ZM293 282l-1 1 1-1ZM298 282l-1 1 1-1ZM159 283c1.198 0 6 4.298 6 6l-6-6ZM297 283l-1 1 1-1ZM296 284l-1 1 1-1ZM295 285l-1 1 1-1ZM294 286l-1 1 1-1ZM293 287l-1 1 1-1Z"/><path fill="#CBC7CC" id="sctv" d="M169 288c0 4.365 3.479 0 0 0ZM286 288l-1 1.5c0 1.858 6.354-1.5 1-1.5Z"/><path fill="#FF9BCD" id="MY" d="m292 288-1 1 1-1Z"/></svg>