<svg xmlns="http://www.w3.org/2000/svg" viewBox="0 0 456 320"><path fill="#FEFA90" id="DEC" d="m176 93 9.5 4c5.865 2.933 15.07-.965 21 2h18l39-1c1.296-.648 15.844-5 16.5-5 0-1.606 2.081-4.338 1-6.5-4.895-9.79-25.481-17.5-35.5-17.5h-14l-4 1c-8.668-4.334-25.662-.67-33 3-6.275 3.138-16.037 7.575-19.5 14.5l1 5.5Z"/><path fill="#FCFA91" id="ANcr2" d="M176 109c-6.742 0-13.7 7.1-19.5 10-11.904 5.952-23.052 14.026-35 20-5.306 2.653-12.466 11-18.5 11-7.445 0-8.82-8.858-6-14.5 4.613-9.226 13.623-16.247 18-25 1.817-3.635 2.925-9.213 7.5-11.5 7.722-3.861 28.499-16.25 39-11 3.073 1.537 9.832 5 12.5 5 0 4.72 2 11.177 2 16ZM280 109c6.024 0 11.385 5.443 16.5 8 12.979 6.489 24.955 15.478 38 22 5.701 2.85 12.955 11 19.5 11 4.238 0 9.52-5.46 7-10.5-4.706-9.411-14.122-19.245-18-27l-4-6-.5-3.5c-13.114-6.557-18.427-15-36-15h-7c-1.427.714-12.686 5-13.5 5 0 4.599-2 11.361-2 16Z"/><path fill="#FDFB90" id="FOTU" fill-rule="evenodd" d="M215 107c0 2.207-5.176.338-6.5 1-2.375 1.187-15.871 3-18.5 3-1.266 0-8 .26-8 1.5l3.5.5 10.5-2c11.254 0 20.804-2 32-2 11.254 0 20.804 2 32 2l10 2 4-.5-2.5-.5c-3.25-1.625-7.827-.414-11-2-7.244-3.622-35.307-3-45.5-3m59 25h1c0-6.069.484-12.467 3-17.5.492-.984.851-5.5 2-5.5 0-4.639 2-11.401 2-16h-2c-.656 0-15.204 4.352-16.5 5l-39 1h-18c-5.93-2.965-15.135.933-21-2l-9.5-4h-2c0 4.72 2 11.177 2 16 1.183 0 1.535 3.57 2 4.5 2.427 4.855 4 12.835 4 18.5.845 0 12.727-6.113 14.5-7 8.463-4.231 47.321-5.34 56-1 2.933 1.467 21.5 4.071 21.5 8Z"/><path fill="#CBC9CC" id="arb" d="M215 107c0 2.207-5.176.338-6.5 1-2.375 1.187-15.871 3-18.5 3-1.266 0-8 .26-8 1.5l3.5.5 10.5-2c11.254 0 20.804-2 32-2 11.254 0 20.804 2 32 2l10 2 4-.5-2.5-.5c-3.25-1.625-7.827-.414-11-2-7.244-3.622-35.307-3-45.5-3Z"/><path fill="#FFFB8E" id="PRM" fill-rule="evenodd" d="M140 151c0 5.512.634 0 0 0m31-31-6 5.5c-1.923 3.846-13.905 12.905-18 17-1.066 1.066-7.551 7.475-5.5 8.5l8-8 23.5-22.5-2-.5m-34 64c-1.114 0-6 5.685-6 7l-9.5 1c-10.134-5.067-15.717-13.935-20.5-23.5v-16l2-2.5c6.034 0 13.194-8.347 18.5-11 11.948-5.974 23.096-14.048 35-20 5.8-2.9 12.758-10 19.5-10 1.183 0 1.535 3.57 2 4.5 2.427 4.855 4 12.835 4 18.5l-11.5 11c-9.003 9.003-19.339 19.178-24.5 29.5l-8 10.5-1 1ZM283 120l33.5 33c2 0-1.301-3.301-1.5-3.5-2.147-2.147-7.055-7.109-8-9-1.664-3.328-20.978-20.5-24-20.5m36 64 7 7 8.5 1c15.305-7.653 14.797-14.095 21.5-27.5 2.115-4.23-2-10.699-2-14.5-6.545 0-13.799-8.15-19.5-11-13.045-6.522-25.021-15.511-38-22-5.115-2.557-10.476-8-16.5-8-1.149 0-1.508 4.516-2 5.5-2.516 5.033-3 11.431-3 17.5l10 9.5c5.424 10.849 19.929 19.858 26 32 1.606 3.212 8 6.853 8 10.5Z"/><path fill="#CBC9CC" id="arb" d="m171 120-6 5.5c-1.923 3.846-13.905 12.905-18 17-1.066 1.066-7.551 7.475-5.5 8.5l8-8 23.5-22.5-2-.5ZM283 120l33.5 33c2 0-1.301-3.301-1.5-3.5-2.147-2.147-7.055-7.109-8-9-1.664-3.328-20.978-20.5-24-20.5Z"/><path fill="#FBFC91" id="PYR" d="M273 145c-2.397 0-6.719-4.609-9.5-6-8.986-4.493-22.513-5-32-5l-11-1c-8.317 4.158-19.615 1.807-28 6l-9.5 7-1-14c.845 0 12.727-6.113 14.5-7 8.463-4.231 47.321-5.34 56-1 2.933 1.467 21.5 4.071 21.5 8l-1 13Z"/><path fill="#FFF990" id="COPY" fill-rule="evenodd" d="M157 178c0 1.93 1.93 0 0 0m1-1c0 1.93 1.93 0 0 0m1-2c0 4.123 4.123 0 0 0m-22 9c0 3.071-2 5.362-2 9 0 3.307 6.878 5.311 9.5 4 5.861-2.931 12.148-5.074 18-8l7.5-6 1-1 2-3c0-3.302 4.432-10 8-10 0-3.047 3-4.462 3-7v-13c-1.497 0-14.482 17.982-16.5 20l-6 6c-1.575-.787 3.558-6.558 4.5-7.5 1.329-1.329 17-21.435 17-21.5l-1-14-11.5 11c-9.003 9.003-19.339 19.178-24.5 29.5l-8 10.5-1 1Z"/><path fill="#FFF990" id="COPY" d="m321 194-1 1-2.5 2c-4.827 2.414-16.2-4.1-20-6l-11.5-8-1-1-1-2c0-2.487-4.864-11-8-11 0-2.572-4-4.883-4-7l1-13 18.5 23 7 6-5.5-6.5c-2.809-5.617-20-23.123-20-26.5l1-13h1l10 9.5c5.424 10.849 19.929 19.858 26 32 1.606 3.212 8 6.853 8 10.5 0 2.73 2 6.298 2 10Z"/><path fill="#CBC9CC" id="arb" d="M184 149c0-6.485 17.147-8.323 20.5-10 11.174-5.587 44.372-3.314 55 2 2.714 1.357 13.5 3.183 13.5 8l18.5 23 7 6-5.5-6.5c-2.809-5.617-20-23.123-20-26.5-2.397 0-6.719-4.609-9.5-6-8.986-4.493-22.513-5-32-5l-11-1c-8.317 4.158-19.615 1.807-28 6l-9.5 7c0 .065-15.671 20.171-17 21.5-.942.942-6.075 6.713-4.5 7.5l6-6c2.018-2.018 15.003-20 16.5-20Z"/><path fill="#FBFC91" id="PYR" d="m184 162 3.5-3 13-6c4.695-2.347 29.453-1 36.5-1 8.014 0 18.777-.362 25.5 3 2.275 1.137 8.073 7 9.5 7l1-13c0-4.817-10.786-6.643-13.5-8-10.628-5.314-43.826-7.587-55-2-3.353 1.677-20.5 3.515-20.5 10v13Z"/><path fill="#CBC9CC" id="arb" d="M140 151c0 5.512.634 0 0 0Z"/><path fill="#FFFA8F" id="UVU" d="M181 169c2.546 0 17.506 2.997 19.5 2 8.497-4.249 28.895-2 39.5-2 4.168 0 18.139 3.18 20.5 2 4.421-2.211 11.44-2 15.5-2 0-2.572-4-4.883-4-7-1.427 0-7.225-5.863-9.5-7-6.723-3.362-17.486-3-25.5-3-7.047 0-31.805-1.347-36.5 1l-13 6-3.5 3c0 2.538-3 3.953-3 7Z"/><path fill="#CBC9CC" id="arb" d="M173 179c.463 0 6.966-4.233 8.5-5l36-1c2.396 0 10.039-2.481 11-2 10.588 5.294 40.115-.442 47 3 1.431.715 8.247 6 8.5 6 0-2.487-4.864-11-8-11-4.06 0-11.079-.211-15.5 2-2.361 1.18-16.332-2-20.5-2-10.605 0-31.003-2.249-39.5 2-1.994.997-16.954-2-19.5-2-3.568 0-8 6.698-8 10Z"/><path fill="#FFFA8F" id="UVU" d="m285 183-4.5 4c-2.075 1.038-4.825.912-7 2h-5c-14.822 7.411-57.441 9.78-73 2-3.138-1.569-22.5-2.692-22.5-7l-2-2 2-3c.463 0 6.966-4.233 8.5-5l36-1c2.396 0 10.039-2.481 11-2 10.588 5.294 40.115-.442 47 3 1.431.715 8.247 6 8.5 6l1 2v1Z"/><path fill="#CBC9CC" id="arb" d="M159 175c0 4.123 4.123 0 0 0ZM158 177c0 1.93 1.93 0 0 0ZM157 178c0 1.93 1.93 0 0 0Z"/><path fill="#F0F080" id="CB" d="m170 183 3 1-2-2-1 1ZM285 183h1l-1-1v1ZM138 183l-1 1 1-1ZM131 191l4 2c0-3.638 2-5.929 2-9-1.114 0-6 5.685-6 7ZM326 191c-3.151 0-2.703 3-5 3 0-3.702-2-7.27-2-10l7 7Z"/><path fill="#FF9BCD" id="MY" d="m174 189-1 1 1-1Z"/><path fill="#FFA2D2" id="ECU" d="M190 193c0 4.207-2.299 9-7 9 0-1.951-2.454-.477-3.5-1l-9.5-6.5 1-3.5 1-1h1l1-1h4l2 1h1l2 1h2l2 1h1l2 1Z"/><path fill="#FF9BCD" id="MY" d="m178 189 2 1-2-1ZM278 189l-1 1 1-1Z"/><path fill="#FFA2D2" id="ECU" d="M266 193c0 4.588 3.44 9 8 9l11-5.5c1.87-3.739-1-3.444-1-6.5-1.564 0-3.876-1-6-1l-1 1h-2l-1 1h-3l-1 1h-1c0 1.473-1.952 1-3 1Z"/><path fill="#FF9BCD" id="MY" d="m172 190-1 1 1-1ZM181 190l2 1-2-1ZM275 190l-1 1 1-1ZM253 229l-4.5-1-3.5 3c0-7.056.896-8-7-8 0-1.196 10.494-3 12-3 1.282 0 9 5.258 9-1l-1-3c7.022 0 9.489-1.989 14.5-7 .665-.665 4.576-7 1.5-7l11-5.5c1.87-3.739-1-3.444-1-6.5 8.327 0 23.925 12.35 27 18.5 1.475 2.949 6 4.996 6 8.5l-4-5.5c-2.29-4.581-10.409-10.454-14.5-12.5-2.015-1.008-15.5-4.662-15.5 1.5 0 1.692 9-.989 9 1.5l2 4-3.5-3c-4.859-2.429-13.378 2.255-15.5 6.5v8.5c-5.851 0-22 3.662-22 11ZM213 234l-2 1c0-6.744-3.387-6-8-6 0-7.73-15.423-11-22-11 0-15.671-3.426-14-17-14v-2c0-2.693 8.019.462 9-1.5 1.285-2.57-8.338-4.581-10.5-3.5-3.384 1.692-9.877 8-13.5 8 0-4.975 17.436-14 22-14l-1 3.5 9.5 6.5c1.046.523 3.5-.951 3.5 1-4.887 0 1.416 7.333 2 8.5 1.95 3.9 8.229 5.5 13 5.5 0 9.278 8 5.519 8 4 1.613 0 13 1.678 13 3-14.132 0-6 3.311-6 11ZM185 191l2 1-2-1ZM271 191l-1 1 1-1ZM190 193h1c0-1.473-1.952-1-3-1l2 1ZM265 193h1c1.048 0 3 .473 3-1-1.145 0-4-.579-4 1Z"/><path fill="#FDA5D0" id="CU" d="M205 207c0 1.068-5.03 9-7 9-4.771 0-11.05-1.6-13-5.5-.584-1.167-6.887-8.5-2-8.5 4.701 0 7-4.793 7-9h6l1 1h2l1 1h2l3 2 1 6v3l-1 1Z"/><path fill="#FF9BCD" id="MY" d="m196 193 1 1-1-1ZM260 193l-1 1 1-1Z"/><path fill="#FDA5D0" id="CU" d="M251 206c0 1.447 5.715 10 7 10 7.022 0 9.489-1.989 14.5-7 .665-.665 4.576-7 1.5-7-4.56 0-8-4.412-8-9h-6l-1 1h-2l-1 1h-2l-1 1-1 1-2 6 1 3Z"/><path fill="#FF9BCD" id="MY" d="m199 194 1 1-1-1ZM257 194l-1 1 1-1Z"/><path fill="#F0F080" id="CB" d="m321 194-1 1 1-1Z"/><path fill="#FF9BCD" id="MY" d="M205 196v1l-3-2 3 1ZM254 195l-1 1 1-1Z"/><path fill="#FEA3D0" id="GR" d="m206 203 3 1c2.554 0 3.688-3 5-3l-3-4h-2l-1-1h-3v1l1 6Z"/><path fill="#FF9BCD" id="MY" d="m208 196 1 1-1-1ZM223 197h2c0-1.399-2-1.399-2 0ZM231 197h2c0-1.399-2-1.399-2 0ZM248 196l-1 1 1-1Z"/><path fill="#FEA3D0" id="GR" d="m250 203-2 1c-2.361 0-5-.4-5-3l2-4h2l1-1h3l1 1-2 6Z"/><path fill="#FF9BCD" id="MY" d="m253 196-1 1-1-1h2Z"/><path fill="#C8CACA" id="sptV" d="M152 277h1l-7-7-1-2-1-1c-2.366 0-5-9.641-5-12-1.801 0-1-13.842-1-16 0-1.145-.579-4 1-4v-6l1-2c0-1.048-.473-3 1-3v-1l1-2 1-2c0-1.238.423-3 2-3 0-1.238.423-3 2-3l2-2 3-3c0-5.735 9.507-6 12-6 0-2.693 8.019.462 9-1.5 1.285-2.57-8.338-4.581-10.5-3.5-3.384 1.692-9.877 8-13.5 8 0 1.747-.253 2-2 2 0 1.747-.253 2-2 2l-1 2-1 1-1 1-1 1v1l-1 1-1 1-1 3-1 1v2l-1 2-1 2v1l-1 17.5c1.449 2.899 2 9.259 2 12.5v1l1 2v1c1.577 0 2 1.762 2 3v1c1.803 0 3 3.592 3 5l1 1c2.973 0 5.016 5 9 5Z"/><path fill="#FF9BCD" id="MY" d="m217 200-3 1-3-4h10l-4 3Z"/><path fill="#FFA5D0" id="AP" d="m217 200 6.5 5 4 6 2.5-.5c1.098-2.197 9-9.17 9-10.5 0-3.454-4-.734-4-3h-14l-4 3Z"/><path fill="#FF9BCD" id="MY" d="m239 200 4 1 2-4h-10c0 2.266 4-.454 4 3Z"/><path fill="#C8CACA" id="sptV" d="M303 277h2l4-1 1-1 1-1 1-1 1-1 1-1 1-1v-1l1-1 1-1v-1l1-1v-1l1-1v-2l1-2 1-2v-1c0-4.326.176-9.851 2-13.5 2.212-4.423-2-11.14-2-15.5v-1l-1-2v-1l-1-1v-2l-2-2v-1l-4-5.5c-2.29-4.581-10.409-10.454-14.5-12.5-2.015-1.008-15.5-4.662-15.5 1.5 0 1.692 9-.989 9 1.5l4.5-1 7.5 6c1.348 0 9 8.559 9 11v1c1.577 0 2 1.762 2 3v1l1 2v1l1 2v3c1.684 0 1 4.679 1 6v16c0 1.145.579 4-1 4 0 3.238-3 5.3-3 8l-1 1-2 3-1 1-1 1-1 1-1 1-4 4Z"/><path fill="#FDA5D1" id="NTS" fill-rule="evenodd" d="m247 210-1 2.5c0 4.987 8.641-2.5 1-2.5m-19 14 1 1c1.577 0 2-1.762 2-3 0-11.94 19-10.937 19-2 1.282 0 9 5.258 9-1l-1-3c-1.285 0-7-8.553-7-10l-3-2c-2.361 0-5-.4-5-3l-4-1c0 1.33-7.902 8.303-9 10.5l-2.5.5-4-6-6.5-5-3 1c-1.312 0-2.446 3-5 3l-3 2-1 1c0 1.068-5.03 9-7 9 0 9.278 8 5.519 8 4 0-2.666 3-2.482 3-5-5.787 0 1-10.894 1-2.5l-1 2.5c6.825 0 16-6.722 16 8 0 2.681 2.078 1 3 1Z"/><path fill="#FDA3D1" id="Pa5" d="m152 208 1 1c2.499 0 11-1.611 11-5v-2c-2.493 0-12 .265-12 6ZM304 207v2c-3.878 0-6.864-3-10-3l-2-4 4.5-1 7.5 6Z"/><path fill="#FDA4D0" id="SPVC" d="M146 270c3.271 0 4.436 4 9 4 4.44 0 6.569-6.637 8-9.5 2.857-5.714 1.206-13.412 4-19 2.768-5.535 4.208-11.417 7-17 .947-1.894 4.44-10.5 7-10.5 0-15.671-3.426-14-17-14 0 3.389-8.501 5-11 5l-4 2c0 1.747-.253 2-2 2 0 1.238-.423 3-2 3 0 1.238-.423 3-2 3l-1 2-1 2v1c0 1.048.473 3-1 3l-1 2v26c0 2.359 2.634 12 5 12l1 1 1 2Z"/><path fill="#FF9BCD" id="MY" d="m209 204-3 2v-3l3 1ZM248 204l3 2-1-3-2 1Z"/><path fill="#FDA4D0" id="SPVC" d="m307 273-6 1c-3.08 0-6.968-7.436-8-9.5-2.369-4.738-.681-11.363-3-16-2.606-5.212-2.421-11.843-5-17l-4-5c-.959-1.918-2.734-8.5-6-8.5v-8.5c2.122-4.245 10.641-8.929 15.5-6.5l3.5 3c3.136 0 6.122 3 10 3l9 9v1c0 1.238.423 3 2 3v1l1 2v1l1 2v3c0 1.321-.684 6 1 6v16c-1.579 0-1 2.855-1 4 0 3.238-3 5.3-3 8l-1 1-2 3-1 1-1 1-1 1-1 1Z"/><path fill="#FF9BCD" id="MY" d="M149 205c-1.747 0-2 .253-2 2 1.747 0 2-.253 2-2ZM206 206l-1 1 1-1ZM147 207l-2 2c1.747 0 2-.253 2-2ZM304 209l9 9c0-2.441-7.652-11-9-11v2ZM153 209l-4 2 3-3 1 1ZM145 209l-1 2 1-2Z"/><path fill="#C8CAC7" id="ts" d="m209 215 1-2.5c0-8.394-6.787 2.5-1 2.5ZM247 210l-1 2.5c0 4.987 8.641-2.5 1-2.5Z"/><path fill="#FF9BCD" id="MY" d="m144 211-1 1 1-1ZM149 211l-2 2c1.747 0 2-.253 2-2ZM143 212l-1 1 1-1ZM142 213l-1 1 1-1ZM147 213c-1.577 0-2 1.762-2 3 1.577 0 2-1.762 2-3Z"/><path fill="#FDB1D8" id="DMX" d="M220 223h5c0-14.722-9.175-8-16-8 0 2.518-3 2.334-3 5 1.613 0 13 1.678 13 3h1ZM237 223h1c0-1.196 10.494-3 12-3 0-8.937-19-9.94-19 2 1.564 0 3.876 1 6 1Z"/><path fill="#FF9BCD" id="MY" d="m141 215-1 1 1-1ZM140 216l-1 1 1-1ZM145 216c-1.577 0-2 1.762-2 3 1.577 0 2-1.762 2-3Z"/><path fill="#FDB1D7" id="MDRNd" d="M167 278h3c0-5.753 17.812-28.123 21-34.5 2.238-4.476 12-9.436 12-14.5 0-7.73-15.423-11-22-11-2.56 0-6.053 8.606-7 10.5-2.792 5.583-4.232 11.465-7 17-2.794 5.588-1.143 13.286-4 19-1.431 2.863-3.56 9.5-8 9.5 0 2.424 2 2.76 2 4h10ZM290 278h9c2.109 0 2-2.535 2-4-3.08 0-6.968-7.436-8-9.5-2.369-4.738-.681-11.363-3-16-2.606-5.212-2.421-11.843-5-17l-4-5c-.959-1.918-2.734-8.5-6-8.5-5.851 0-22 3.662-22 11 0 2.534 17.464 20.429 20 25.5l13 22.5 4 1Z"/><path fill="#FF9BCD" id="MY" d="m317 218 2 2-2-2ZM143 219l-1 2 1-2ZM313 219c1.577 0 2 1.762 2 3-1.577 0-2-1.762-2-3ZM138 220l-1 1 1-1ZM142 221l-1 2 1-2ZM228 224l1 1c1.577 0 2-1.762 2-3 1.564 0 3.876 1 6 1l-7 5.5-1.5 8.5-1.5-7.5c-.987-1.975-7-5.625-7-6.5h5c0 2.681 2.078 1 3 1ZM319 222l1 1-1-1ZM137 223l-1 2 1-2Z"/><path fill="#FEB1D7" id="XII" d="M238 241h1l2-2 3-5 1-2v-1c0-7.056.896-8-7-8h-1l-7 5.5-1.5 8.5-1.5-7.5c-.987-1.975-7-5.625-7-6.5h-1c-14.132 0-6 3.311-6 11 0 1.417 2.383 6 4 6l6.5 3c3.743 1.872 10.735-2 14.5-2Z"/><path fill="#FF9BCD" id="MY" d="m315 223 1 2-1-2ZM141 224c-1.473 0-1 1.952-1 3 1.473 0 1-1.952 1-3Z"/><path fill="#A7AAA9" id="c" d="m228 224 1 1-1-1Z"/><path fill="#FF9BCD" id="MY" d="m320 224 1 2-1-2ZM136 225l-1 2 1-2ZM316 226l1 2-1-2ZM140 227l-1 2 1-2ZM321 227c2.729 0 1.254 5.007 2 6.5 1.85 3.701 2.045 22.5-2 22.5 0-4.326.176-9.851 2-13.5 2.212-4.423-2-11.14-2-15.5ZM135 228c-2.357 0-1.264 6.029-2 7.5-1.915 3.83-.327 22.5 3 22.5 0-3.241-.551-9.601-2-12.5l1-17.5Z"/><path fill="#FFB2D8" id="IRN" d="m180 278-4.5-1-5.5 3v-2c0-5.753 17.812-28.123 21-34.5 2.238-4.476 12-9.436 12-14.5 4.613 0 8-.744 8 6v2c-7.07 0-30 32.476-30 40l-1 1ZM276 278l4.5-1 5.5 3c2.373 0 0-2.284 0-3l-13-22.5c-2.536-5.071-20-22.966-20-25.5l-4.5-1-3.5 3v6c6.315 0 6.282 5.891 10.5 8 4.381 2.191 19.5 26.186 19.5 32l1 1Z"/><path fill="#FF9BCD" id="MY" d="M317 231c1.684 0 1 4.679 1 6-1.684 0-1-4.679-1-6ZM244 234h1v-2l-1 2Z"/><path fill="#FFB1D9" id="NR" d="M217 240v1l-6-4v-2l2-1c0 1.417 2.383 6 4 6ZM245 237l-4 2 3-5h1v3Z"/><path fill="#FF9BCD" id="MY" d="M139 235c-1.579 0-1 2.855-1 4 0 2.158-.801 16 1 16v-20Z"/><path fill="#FFB1D6" id="MDRNv" d="M181 278c1.664 0 6 1.823 6 4 11.519 0 24.608-13.716 30-24.5 1.418-2.836 8.411-16.5 0-16.5l-6-4c-7.07 0-30 32.476-30 40v1ZM275 278c-2.327 0-6 2.305-6 5-2.807 0-5.113-2.807-7.5-4-13.295-6.648-20.225-17.951-26.5-30.5-1.795-3.589 3-5.044 3-7.5h1c1.747 0 2-.253 2-2l4-2c6.315 0 6.282 5.891 10.5 8 4.381 2.191 19.5 26.186 19.5 32v1Z"/><path fill="#FFB1D9" id="NR" d="m241 239-2 2c1.747 0 2-.253 2-2Z"/><path fill="#FF9BCD" id="MY" fill-rule="evenodd" d="M247 286c0 7.575 10.688 5.094 2.5 1l-2.5-1m-40 0c0 .311-8.22 6-2.5 6 2.34 0 8.273-6 2.5-6m30-1-4 5.5c0 3.858 16.606 8.212 14 3l-3-3-2.5-3.5c-1.787-1.787-1.355-2-4.5-2m-21 0c0 3.519-5.885 6.269-7 8.5-1.121 2.242 2.847 2.5 4 2.5 5.882 0 12.472-4.028 7-9.5-1.456-1.456-2.002-1.5-4-1.5m11-4v3.5c0 10.988 4.976-3.5 0-3.5m4-7c0 1.93 1.93 0 0 0m-7 0c0 1.93 1.93 0 0 0m7-8c0 4.286 4.147 11.324 7.5 13l2 2c3.948-1.974-5.386-15-9.5-15m-8 0c0 1.02-5.601 8.101-7 9.5-.84.84-2.084 5.5.5 5.5 3.275 0 12.224-15 6.5-15m4-13v5.5l-1 3.5c0 1.519 2.43 6.64 4 3.5 1.496-2.992-.066-12.5-3-12.5m-54 44c17.123 0 39.255 4.622 54.5-3 2.404-1.202 12.743 2.871 15 4 4.918 2.459 34.964-1 41.5-1l-1-1.5 11-6c1.702 3.404-5 2.691-5 5.5 4.357 0 10-3.069 10-8-.701 0-4 3.889-4 1l-2-1c-3.369 0-15.401 13.698-20 4.5-1.489-2.977-4-3.798-4-8.5-2.807 0-5.113-2.807-7.5-4-13.295-6.648-20.225-17.951-26.5-30.5-1.795-3.589 3-5.044 3-7.5-3.765 0-10.757 3.872-14.5 2l-6.5-3v1c8.411 0 1.418 13.664 0 16.5-5.392 10.784-18.481 24.5-30 24.5 0 4.85-.9 9.2-6.5 12-3.256 1.628-16.5-3.184-16.5-7l-2 1-2.5 1c-2.936-1.468-7.5-10.098-7.5-12-3.984 0-6.027-5-9-5l6.5 7c5.772 5.772 10.557 17 19.5 17l-7-5.5 2.5-.5c2.132 1.066 8.5 5.24 8.5 7Z"/><path fill="#FEC6E2" id="RO" d="M227 253v5.5l-1 3.5c0 1.519 2.43 6.64 4 3.5 1.496-2.992-.066-12.5-3-12.5Z"/><path fill="#FF9BCD" id="MY" d="M318 253c-1.579 0-1 2.855-1 4 1.579 0 1-2.855 1-4ZM321 257l-1 2 1-2ZM136 259l1 2-1-2ZM320 259l-1 2 1-2ZM137 262c1.577 0 2 1.762 2 3l-2-3ZM319 263l-1 1 1-1ZM314 265l-1 1 1-1ZM318 265l-1 1 1-1ZM139 266c1.803 0 3 3.592 3 5l-3-5Z"/><path fill="#C8C8CC" id="tspc" d="M223 266c0 1.02-5.601 8.101-7 9.5-.84.84-2.084 5.5.5 5.5 3.275 0 12.224-15 6.5-15ZM231 266c0 4.286 4.147 11.324 7.5 13l2 2c3.948-1.974-5.386-15-9.5-15Z"/><path fill="#FF9BCD" id="MY" d="m144 267 1 1-1-1ZM317 267l-1 1 1-1ZM316 268l-1 1 1-1ZM311 269l-1 1 1-1ZM157 278v1l-4-2-7-7c3.271 0 4.436 4 9 4 0 2.424 2 2.76 2 4ZM310 270l-1 1 1-1ZM315 270l-1 1 1-1ZM309 271l-1 1 1-1ZM314 271l-1 1 1-1ZM308 272l-1 1 1-1ZM313 272l-1 1 1-1ZM299 278l1 1 3-2 4-4-6 1c0 1.465.109 4-2 4ZM312 273l-1 1 1-1Z"/><path fill="#FFB3D8" id="IO" d="M224 274c0 1.93 1.93 0 0 0ZM231 274c0 1.93 1.93 0 0 0Z"/><path fill="#FF9BCD" id="MY" d="m310 275-1 1 1-1ZM305 277v3l4-4-4 1Z"/><path fill="#C9CACA" id="sctd" d="M157 279c0 2.886 5 5.247 5 9l-2.5 1c-2.936-1.468-7.5-10.098-7.5-12h1l4 2Z"/><path fill="#C8C8CB" id="rust" d="m164 287-2 1c0-3.753-5-6.114-5-9v-1h10v4c0 .773-3 .79-3 5Z"/><path fill="#FCB3D7" id="LRNm" d="M187 282c0 4.85-.9 9.2-6.5 12-3.256 1.628-16.5-3.184-16.5-7 0-4.21 3-4.227 3-5 1.238 0 3-.423 3-2l5.5-3 4.5 1h1c1.664 0 6 1.823 6 4Z"/><path fill="#FF9BCD" id="MY" d="M180 278h1v-1l-1 1ZM275 278h1l-1-1v1Z"/><path fill="#FCB3D7" id="LRNm" d="M269 283c0 4.702 2.511 5.523 4 8.5 4.599 9.198 16.631-4.5 20-4.5 0-3.544-4-3.603-4-5l-3-2-5.5-3-4.5 1h-1c-2.327 0-6 2.305-6 5Z"/><path fill="#FF9BCD" id="MY" d="m286 280 3 2 1-4-4-1c0 .716 2.373 3 0 3Z"/><path fill="#C8C8CB" id="rust" d="m293 287 2 1c0-3.867 5-5.965 5-9l-1-1h-9l-1 4c0 1.397 4 1.456 4 5Z"/><path fill="#C9CACA" id="sctd" d="M299 287c-.701 0-4 3.889-4 1 0-3.867 5-5.965 5-9l3-2h2v3l-1 1c-1.901 0-5 4.332-5 6Z"/><path fill="#FF9BCD" id="MY" d="M170 280c0 1.577-1.762 2-3 2v-4h3v2ZM305 280l-1 1 1-1Z"/><path fill="#FFC6E2" id="RPA" d="M227 281v3.5c0 10.988 4.976-3.5 0-3.5Z"/><path fill="#FF9BCD" id="MY" d="M304 281c-1.901 0-5 4.332-5 6 1.911 0 5-3.805 5-6Z"/><path fill="#C7C9C9" id="py" d="M216 285c0 3.519-5.885 6.269-7 8.5-1.121 2.242 2.847 2.5 4 2.5 5.882 0 12.472-4.028 7-9.5-1.456-1.456-2.002-1.5-4-1.5ZM237 285l-4 5.5c0 3.858 16.606 8.212 14 3l-3-3-2.5-3.5c-1.787-1.787-1.355-2-4.5-2Z"/><path fill="#FFB3D8" id="IO" d="M207 286c0 .311-8.22 6-2.5 6 2.34 0 8.273-6 2.5-6ZM247 286c0 7.575 10.688 5.094 2.5 1l-2.5-1Z"/><path fill="#CBC7CC" id="sctv" d="M284 297h1l2-1 2-1c0-2.809 6.702-2.096 5-5.5l-11 6 1 1.5ZM171 297h2c0-1.76-6.368-5.934-8.5-7l-2.5.5 7 5.5h1l1 1Z"/><path fill="#FF9BCD" id="MY" d="m289 295-2 1 2-1ZM170 296l1 1-1-1ZM287 296l-2 1 2-1Z"/></svg>