<svg xmlns="http://www.w3.org/2000/svg" viewBox="0 0 456 320"><path fill="#1BA598" id="RSPd1" d="M218 20h1l2-1c0-2.835-3.038-2.575-4-4.5-2.596-5.192-18.739-10.88-25.5-7.5L186 9l1 5c4.753 0 31-5.099 31 6ZM235 19l3 1c.682 0 7.726-6.113 9.5-7 6.925-3.463 15.878 1 22.5 1V9l-5.5-2c-6.221-3.11-17.444 2.722-22 5l-7.5 7Z"/><path fill="#1BA696" id="RSPagl1" d="M187 14c-4.938 0-9.431 3-14 3 0-2.124-1-4.436-1-6 4.522 0 8.711-2 14-2l1 5ZM270 14l13 2 1-5c-4.522 0-8.711-2-14-2v5Z"/><path fill="#09848B" id="VISam1" d="M156 19h1c5.082 0 10.196-2 16-2 0-2.124-1-4.436-1-6-.965 0-13.733 1.617-14.5 2l-2.5 2 1 4ZM283 17c6.219 0 11.387 2 17 2l2-4c-3.595 0-13.121-4-18-4l-1 5v1Z"/><path fill="#1BA697" id="RSPd2/3" d="M187 21c4.657 0 11.984-4.258 16.5-2l7 2 3.5 3 4-4c0-11.099-26.247-6-31-6v7ZM242 24h1c0-7.341 22.372-3 26-3 0-2.41 1-5.181 1-7-6.622 0-15.575-4.463-22.5-1-1.774.887-8.818 7-9.5 7v1l4 3Z"/><path fill="#1AA496" id="RSPagl2/3" d="M175 24v1c4.363 0 7.943-4 12-4v-7c-4.938 0-9.431 3-14 3l2 7ZM281 26h1v-2l1-7v-1l-13-2c0 1.819-1 4.59-1 7 1.529 0 12 3.998 12 5Z"/><path fill="#019FAC" id="VISa1" d="m117 27 2 4c8.921 0 26.27-12 37-12l-1-4c-9.333 0-20.577 4.039-28.5 8-1.708.854-9.5 1.328-9.5 4ZM340 27l-2 4c-11.609 0-25.325-12-38-12l2-4c6.749 0 24.735 5.117 30.5 8l7.5 4Z"/><path fill="#0B848A" id="VISam2/3" d="m175 24-15 4c0-4.444-3-4.615-3-9 5.082 0 10.196-2 16-2l2 7ZM296 28h1c0-2.866 3-5.719 3-9-5.613 0-10.781-2-17-2l-1 7 14 4Z"/><path fill="#009EAB" id="VISa2/3" d="M119 32c0 3.007 4 6.36 4 8 6.489 0 27.659-12 37-12 0-4.444-3-4.615-3-9h-1c-10.73 0-28.079 12-37 12v1Z"/><path fill="#1AA596" id="RSPd5" d="M206 33h1c0-1.255 4.777-8 7-8v-1l-3.5-3-7-2c-4.516-2.258-11.843 2-16.5 2v12c2.024 0 19-7.404 19 0Z"/><path fill="#1BA597" id="RSPv1" d="M230 64h2c0-9.207-2.955-25.59 1-33.5.885-1.77 2.372-9.5 5-9.5v-1l-3-1-3 4.5-1.5 2.5-2 4-7.5-11-2 1 6 12.5c1.088 2.176 0 26.929 0 31.5h2c0-6.958 3-5.736 3 0Z"/><path fill="#1AA596" id="RSPd5" d="M251 33c0-7.372 16.001 0 18 0V21c-3.628 0-26-4.341-26 3l7 9h1Z"/><path fill="#009EAB" id="VISa2/3" d="m338 32-4 8-21.5-8c-3.287-1.643-7.611-1.306-11-3-1.147-.574-4.5 1.064-4.5-1 0-2.866 3-5.719 3-9 12.675 0 26.391 12 38 12v1Z"/><path fill="#1AA597" id="RSPv2/3" d="m221 63 4 1c0-4.571 1.088-29.324 0-31.5L219 20h-1l-4 4v1c3.135 0 3.104 6.709 4 8.5 2.174 4.349 3 24.115 3 29.5Z"/><path fill="#1CA697" id="RSPagl5" d="M176 38h1c0-.762 8.55-4 10-4V21c-4.057 0-7.637 4-12 4v1l1 12Z"/><path fill="#1AA597" id="RSPv2/3" d="m236 63-4 1c0-9.207-2.955-25.59 1-33.5.885-1.77 2.372-9.5 5-9.5l4 3c0 .881-4.274 12.049-5 13.5L236 63Z"/><path fill="#1CA697" id="RSPagl5" d="M269 33c3.318 0 7.352 5 11 5l1-12c0-1.002-10.471-5-12-5v12Z"/><path fill="#09858A" id="VISam4" d="m160 28 1 3 14-5v-2l-15 4Z"/><path fill="#1BA498" id="RSPv5" d="M236 63h2l6-5 1-1c0-7.674 5-15.881 5-24l-7-9h-1c0 .881-4.274 12.049-5 13.5L236 63Z"/><path fill="#09858A" id="VISam4" d="m296 28-1 2c-4.53 0-8.933-4-13-4v-2l14 4Z"/><path fill="#1BA498" id="RSPv5" d="M218 63h3c0-5.385-.826-25.151-3-29.5-.896-1.791-.865-8.5-4-8.5-2.223 0-7 6.745-7 8 0 8.29 5 19.272 5 24l6 6Z"/><path fill="#0A848B" id="VISam5" d="M165 41h1c0-.96 8.65-3 10-3l-1-12-14 5c0 3.115 4 6.196 4 10ZM280 38l11 2 3.5-7c.842-.842-1.446-2 .5-2v-1c-4.53 0-8.933-4-13-4h-1l-1 12Z"/><path fill="#029FAB" id="VISrl1" d="m103 33 2 4c4.81 0 8.833-5 14-5v-1l-2-4c-5.241 0-9.523 6-14 6ZM351 37h1l2-4c-4.822 0-8.772-6-14-6l-2 4v1l13 5Z"/><path fill="#019EAC" id="VISa4" d="M122 40h1c6.489 0 27.659-12 37-12l1 3c-9.092 0-31.89 14-37 14l-2-5ZM332 45h1l1-5-21.5-8c-3.287-1.643-7.611-1.306-11-3-1.147-.574-4.5 1.064-4.5-1h-1l-1 2v1c10.179 0 32.316 14 37 14Z"/><path fill="#1AA697" id="RSPd6a" d="m193 43-5 1-1-10v-1c2.024 0 19-7.404 19 0 0 1.546-5.451 10-7 10-.986 0-6-2.515-6 0ZM258 44c0-4.93 8.699 0 10 0 0-2.998 1-7.358 1-11-1.999 0-18-7.372-18 0 0 4.442 6 6.689 6 11h1Z"/><path fill="#019EAB" id="VISa5" d="M127 53h1l9.5-5c7.341-3.67 18.858-7 27.5-7 0-3.804-4-6.885-4-10-9.092 0-31.89 14-37 14 0 2.722 3 4.53 3 8ZM328 53h1c0-3.45 3-4.946 3-8-4.684 0-26.821-14-37-14-1.946 0 .342 1.158-.5 2l-3.5 7v1c7.811 0 18.851 2.675 25.5 6l11.5 6Z"/><path fill="#029EAC" id="VISrl2/3" d="M111 45h1l10-5h1c0-1.64-4-4.993-4-8-5.167 0-9.19 5-14 5v1c1.881 0 6 4.73 6 7ZM334 40l11 5c0-2.956 6-4.815 6-8l-13-5-4 8Z"/><path fill="#188060" id="SSp-bfd1" d="M68 63h1l8-7.5c3.86-3.86 23.061-17.5 28-17.5v-1l-2-4c-5.117 0-24.364 16.932-30.5 20L65 61c2.215 0 1.519 2 3 2Z"/><path fill="#1AA498" id="RSPv6a" d="M209 55c0 1.577 1.762 2 3 2 0-4.728-5-15.71-5-24h-1c0 1.546-5.451 10-7 10v1c0 3.296 10 7.248 10 11ZM248 55c-1.481 0-.785 2-3 2 0-7.674 5-15.881 5-24h1c0 4.442 6 6.689 6 11v1c-2.226 0-4 1.774-4 4l-2 2-2 2-1 2Z"/><path fill="#1CA597" id="RSPagl6a" d="M268 44c3.62 0 6.768 2 11 2l1-8c-3.648 0-7.682-5-11-5 0 3.642-1 8.002-1 11Z"/><path fill="#188060" id="SSp-bfd1" d="m391 61-3 2-10.5-9c-5.24-5.24-12.745-8.872-19-12l-6.5-5 2-4 9.5 6c5.224 2.612 27.5 17.97 27.5 22Z"/><path fill="#1CA597" id="RSPagl6a" d="m187 45-10 1v-8c0-.762 8.55-4 10-4l1 10-1 1Z"/><path fill="#187F63" id="SSp-bfd2/3" d="M381 71h1l6-7v-1l-10.5-9c-5.24-5.24-12.745-8.872-19-12l-6.5-5h-1c0 3.185-6 5.044-6 8 4.258 0 28.134 15.768 30 19.5 1.233 2.466 6 3.246 6 6.5ZM69 63c0 1.763 4.012 7 6 7l10.5-10c5.372-2.686 20.701-15 25.5-15 0-2.27-4.119-7-6-7-4.939 0-24.14 13.64-28 17.5L69 63Z"/><path fill="#0A828B" id="VISam6a" d="M167 47h1l9-1v-8h-1c-1.35 0-10 2.04-10 3l1 6ZM288 47h1l2-6v-1l-11-2-1 8 9 1Z"/><path fill="#019EAA" id="VISrl4" d="M116 50h1c0-1.559 5.82-5 7-5l-2-5-10 5c0 2.618 4 3.093 4 5ZM340 50h1c0-2.732 4-2.259 4-5l-11-5-1 5 7 5Z"/><path fill="#009DAC" id="VISa6a" d="M131 59h3c0-2.844 21.351-10 25-10 0-.816 7.019-2 8-2l-1-6h-1c-8.642 0-20.159 3.33-27.5 7l-9.5 5 3 6ZM328 53l-3 6c-3.224 0-4.832-2.666-7.5-4-7.66-3.83-19.511-8-28.5-8l2-6c7.811 0 18.851 2.675 25.5 6l11.5 6Z"/><path fill="#1BA698" id="RSPd6b" d="M198 44h1v-1c-.986 0-6-2.515-6 0l5 1ZM258 45c1.602 0 2.384-3.058 4.5-2 2.084 1.042 2.908 2 5.5 2v-1c-1.301 0-10-4.93-10 0v1ZM188 44v1c1.424 0 5-.362 5-2l-5 1Z"/><path fill="#CACCC7" id="cing" d="m212 57 6 6c-10.684 0-17.634-8.567-26.5-13L162 51l-3-1v-1h9l9-2c2.108 0 10 .789 10-2h1c1.424 0 5-.362 5-2l5 1 11 11c0 1.577 1.762 2 3 2ZM244 58l-6 5c11.012 0 18.399-8.45 27.5-13l29.5 1 2-1c0-1.751-7.426-1-9-1l-9-2c-3.982 0-8.05-2-11-2-2.592 0-3.416-.958-5.5-2-2.116-1.058-2.898 2-4.5 2h-1l-4 4c0 1.747-.253 2-2 2 0 1.747-.253 2-2 2l-1 2c-1.481 0-.785 2-3 2l-1 1Z"/><path fill="#1AA598" id="RSPagl6b" d="M187 45h1v-1l-1 1Z"/><path fill="#1AA497" id="RSPv6b" d="M199 44c0 3.296 10 7.248 10 11l-11-11h1ZM257 45h1v-1h-1v1Z"/><path fill="#1AA598" id="RSPagl6b" d="M279 46v1c-3.982 0-8.05-2-11-2v-1c3.62 0 6.768 2 11 2Z"/><path fill="#197C64" id="SSp-bfd4" d="m75 71 5 6c4.139 0 6.032-6.266 9.5-8 4.975-2.487 21.955-19 26.5-19 0-1.907-4-2.382-4-5h-1c-4.799 0-20.128 12.314-25.5 15L75 70v1Z"/><path fill="#019DAB" id="VISrl5" d="M122 56h1l4-3c0-3.47-3-5.278-3-8-1.18 0-7 3.441-7 5 0 4.29 5 2.246 5 6Z"/><path fill="#1AA598" id="RSPagl6b" d="M177 46v1c2.108 0 10 .789 10-2l-10 1Z"/><path fill="#1AA497" id="RSPv6b" d="M257 45c-2.226 0-4 1.774-4 4l4-4Z"/><path fill="#019DAB" id="VISrl5" d="M333 56h1l6-6-7-5h-1c0 3.054-3 4.55-3 8l4 3Z"/><path fill="#197C64" id="SSp-bfd4" d="M376 78h1c0-2.757 4-4.081 4-7 0-3.254-4.767-4.034-6-6.5-1.866-3.732-25.742-19.5-30-19.5 0 2.741-4 2.268-4 5l7.5 5c6.568 3.284 14.926 10.926 21 17l6.5 6Z"/><path fill="#08838A" id="VISam6b" d="m177 47-9 2v-2l9-1v1ZM288 47v2l-9-2v-1l9 1Z"/><path fill="#029FAC" id="VISa6b" d="M159 49h9v-2h-1c-.981 0-8 1.184-8 2ZM325 60v1l-10-5c0-1.952-2.454-.477-3.5-1-4.192-2.096-9.59-5-14.5-5 0-1.751-7.426-1-9-1v-2h1c8.989 0 20.84 4.17 28.5 8 2.668 1.334 4.276 4 7.5 4v1ZM142 56c-2.892 0-4.781 3-8 3 0-2.844 21.351-10 25-10v1c-3.764 0-9.228 2.364-12.5 4-.93.465-4.5.817-4.5 2Z"/><path fill="#1AA497" id="RSPv6b" d="m253 49-2 2c1.747 0 2-.253 2-2Z"/><path fill="#1A7D62" id="SSp-bfd5" d="m80 78 2 1.5c0 .274 1.142 5.5 4 5.5l7.5-8 20-16c1.555-.778 8.5-3.004 8.5-5 0-3.754-5-1.71-5-6h-1c-4.545 0-21.525 16.513-26.5 19-3.468 1.734-5.361 8-9.5 8v1Z"/><path fill="#C9C9CA" id="scwm" d="m142 56 1 1c1.757 0 13.78-3.14 15.5-4l3.5-2-3-1c-3.764 0-9.228 2.364-12.5 4-.93.465-4.5.817-4.5 2Z"/><path fill="#C7CACC" id="ccs" d="M97 105c-3.47 0-7.37 15-9 15 0-14.327 13.211-36.355 26.5-43l5-5L142 58l1-1c1.757 0 13.78-3.14 15.5-4l3.5-2 29.5-1c8.866 4.433 15.816 13 26.5 13h3l4 1h7l4-1h2c11.012 0 18.399-8.45 27.5-13l29.5 1 4 2c5.469 0 10.032 5 15 5 3.136 0 13.948 9.224 17.5 11 16.792 8.396 36.5 30.33 36.5 50-3.953 0-4.147-15-9-15 0-4.163-6.58-8.66-8-11.5-8.735-17.47-30.156-27.328-46.5-35.5-5.273-2.637-13.687-2-20-2-1.363 0-6.5-.7-6.5 1-1.048 0-3-.473-3 1h-1l-3 1c0-2.187-3.726-.387-4.5 0l-9 8c-3.563 3.563-25.309 12.345-30 10-6.467-3.233-16.347-2.673-25-7-5.487-2.744-6.862-7.431-12-10-.559-.28-5.5-4.333-5.5-1l-3-1h-1c0-2.942-9.252-2-11.5-2-10.037 0-17.76 1.88-26 6-1.426.713-6.5 1.764-6.5 4-1.664 0-6 1.823-6 4-1.238 0-3 .423-3 2-1.238 0-3 .423-3 2-1.429 0-4 1.288-4 3-1.852 0-8 4.927-8 7-1.811 0-4 3.438-4 5l-1 1c-1.712 0-3 2.571-3 4-2.177 0-4 4.336-4 6-1.617 0-4 4.583-4 6Z"/><path fill="#C9C9CA" id="scwm" d="m315 56-1 2c-4.968 0-9.531-5-15-5l-4-2 2-1c4.91 0 10.308 2.904 14.5 5 1.046.523 3.5-.952 3.5 1Z"/><path fill="#1A7D62" id="SSp-bfd5" d="M370 85h1c1.001 0 5-6.033 5-7l-6.5-6c-6.074-6.074-14.432-13.716-21-17l-7.5-5h-1l-6 6 8.5 5c7.482 3.741 15.401 11.401 21 17l6.5 7Z"/><path fill="#1AA497" id="RSPv6b" d="m251 51-2 2c1.747 0 2-.253 2-2Z"/><path fill="#029EAB" id="VISrl6a" d="M128 61h2l1-1v-1l-3-6h-1l-4 3c0 1.907 4 2.382 4 5h1Z"/><path fill="#1AA497" id="RSPv6b" d="m249 53-1 2 1-2Z"/><path fill="#029EAB" id="VISrl6a" d="M327 61h2c0-2.741 4-2.268 4-5l-4-3h-1l-3 6v1l2 1Z"/><path fill="#C7C8CC" id="alv" d="M181 57c-6.881 0-17.814-3.343-24.5 0L137 65c0-2.236 5.074-3.287 6.5-4 8.24-4.12 15.963-6 26-6 2.248 0 11.5-.942 11.5 2ZM347 133c4.282 0 7.866 3 12 3 1.59 0 1.443-4.386 2-5.5 2.513-5.025 2.497-18.007 0-23l-2-3.5c0-4.163-6.58-8.66-8-11.5-8.735-17.47-30.156-27.328-46.5-35.5-5.273-2.637-13.687-2-20-2-1.363 0-6.5-.7-6.5 1 18.015 0 29.805 3.652 44.5 11 6.319 3.16 11.434 11.217 17 14 3.383 1.691 15.5 15.198 15.5 19l2 4c2.729 0 1.254 5.007 2 6.5 3.993 7.986 2.483 16.508-5.5 20.5-2.791 1.396-8.774-2.887-11-4-9.174-4.587-17.582-16-28.5-16v1h1l1 1h2l1 1h1l1 1c2.83 0 4.54 4 7 4l2 2h1l5 4 11 8Z"/><path fill="#198060" id="SSp-bfd6a" d="M86 86c0 1.473 5 4.605 5 7l7.5-8c6.963-6.963 14.97-11.97 21.5-18.5l7-5.5c0-2.618-4-3.093-4-5h-1c0 1.996-6.945 4.222-8.5 5l-20 16-7.5 8v1Z"/><path fill="#CBC9C7" id="or" d="m75 137 3 3 10-19v-1c0-14.327 13.211-36.355 26.5-43l5-5L142 58l1-1-1-1c-2.892 0-4.781 3-8 3 0 1.577-1.762 2-3 2h-1l-1 1-9 6.5c-3.82 3.82-19.049 17.775-22.5 19.5L92 94c0 2.11-5.383 9-7 9l-5 10c0 4.748-5 8.89-5 14v4c4.53 0 0 3.98 0 6Z"/><path fill="#7ECF4B" id="CA1" d="M207 101h1c3.854 0 7.124-4 9-4 0-4.103 3-6.514 3-11v-1l-2-2h-1c-1.572 0-7-2.052-7-4h-1l-2-2h-1c-1.178 0-17-14.765-17-16h-1l-2-2h-1l-3-2h-1c-6.881 0-17.814-3.343-24.5 0L137 65c0 1.617-4.583 4-6 4 0 1.577-1.762 2-3 2 0 1.577-1.762 2-3 2 0 1.712-2.571 3-4 3 0 2.073-6.148 7-8 7 0 1.562-2.189 5-4 5l-1 1c0 1.429-1.288 4-3 4l-3 6c4.037 0 10.957-1.229 14.5-3H133c0-4.711 11.074-9.287 14.5-11 17.723-8.861 25.818-4.091 42 4 5.066 2.533 12.676 12 17.5 12Z"/><path fill="#C7C8CC" id="alv" d="M278 56c-1.048 0-3-.473-3 1 1.048 0 3 .473 3-1Z"/><path fill="#7ECF4B" id="CA1" d="M248 101h1c5.396 0 9.861-7.68 14.5-10 17.43-8.715 25.369-15.815 45-6 3.617 1.808 14.5 5.435 14.5 11 5.773 0 19.01-1.245 23.5 1l8.5 3c0-3.802-12.117-17.309-15.5-19-5.566-2.783-10.681-10.84-17-14-14.695-7.348-26.485-11-44.5-11 0 1.473-1.952 1-3 1h-1c0 1.577-1.762 2-3 2l-2 1-1 1-1 1-2 1-1 1-1 1c0 1.747-.253 2-2 2 0 1.747-.253 2-2 2 0 1.747-.253 2-2 2 0 1.747-.253 2-2 2l-1 1-1 1-2 1-1 1-1 1-2 1-2 1-1 1h-1l-2 1-1 1h-2l-2 2c0 4.232 3 7.011 3 11 0 3.673 6.393 5 9 5Z"/><path fill="#CBC9C7" id="or" d="m381 137-2 3c-1.93 0-10.156-20-11-20v-1c0-19.67-19.708-41.604-36.5-50-3.552-1.776-14.364-11-17.5-11l1-2 10 5 2 1c4.661 0 24.068 18.569 28.5 23l8.5 9 3 3.5c.921 1.842 9.153 15.5 10 15.5 0 5.428 4 8.449 4 14v4c-2.515 0 0 5.014 0 6Z"/><path fill="#198060" id="SSp-bfd6a" d="M370 85c0 1.53-3.822 8-5 8 0-1.718-24.217-24.359-27.5-26l-8.5-6c0-2.741 4-2.268 4-5h1l8.5 5c7.482 3.741 15.401 11.401 21 17l6.5 7Z"/><path fill="#C9C9CA" id="scwm" d="m143 57-1 1 1-1Z"/><path fill="#C7C8CC" id="alv" d="M185 58v1l-3-2 3 1Z"/><path fill="#C9CCC9" id="dhc" d="M238 83h2l1-1 2-1h1l1-1 2-1 2-1 1-1 1-1 2-1 1-1 1-1 2-2 2-2 2-2 2-2 1-1 1-1 2-1 1-1 1-1 2-1v-1c0-2.187-3.726-.387-4.5 0l-9 8c-3.563 3.563-25.309 12.345-30 10-6.467-3.233-16.347-2.673-25-7-5.487-2.744-6.862-7.431-12-10-.559-.28-5.5-4.333-5.5-1v1h1l2 2h1c1.696 0 11.601 10.703 12 11.5l5 4.5h1l2 2h1l7 4h21Z"/><path fill="#1AA498" id="RSPv6a" d="m245 57-1 1 1-1Z"/><path fill="#C7C8CC" id="alv" d="M271 58v1c1.238 0 3-.423 3-2l-3 1Z"/><path fill="#029FAC" id="VISa6b" d="M131 60v1c1.238 0 3-.423 3-2h-3v1Z"/><path fill="#C7C8CC" id="alv" d="m186 59 2 2-2-2ZM271 59l-2 1 2-1Z"/><path fill="#009DAA" id="VISrl6b" d="M130 61h1v-1l-1 1Z"/><path fill="#C7C8CC" id="alv" d="m269 60-1 1 1-1Z"/><path fill="#009DAA" id="VISrl6b" d="M327 61v1l-2-1v-1l2 1Z"/><path fill="#1A7E62" id="SSs1" d="M49 78c0 1.712 2.571 3 4 3l15-18c-1.481 0-.785-2-3-2-2.906 0-12.23 10.959-14 14.5L49 78Z"/><path fill="#1A7E61" id="SSp-bfd6b" d="M91 94h1l5.5-6c3.451-1.725 18.68-15.68 22.5-19.5l9-6.5-1-1h-1l-7 5.5c-6.53 6.53-14.537 11.537-21.5 18.5L91 93v1Z"/><path fill="#009DAA" id="VISrl6b" d="m130 61-1 1-1-1h2Z"/><path fill="#C7C8CC" id="alv" d="M189 61c1.696 0 11.601 10.703 12 11.5l5 4.5c-1.178 0-17-14.765-17-16ZM268 61l-1 1 1-1Z"/><path fill="#1A7E61" id="SSp-bfd6b" d="M364 94h1v-1c0-1.718-24.217-24.359-27.5-26l-8.5-6h-2v1c4.661 0 24.068 18.569 28.5 23l8.5 9Z"/><path fill="#1A7E62" id="SSs1" d="M408 78c-1.457 0-1.46 3-4 3-1.115 0-12.533-17-16-17v-1l3-2c1.331 0 17 15.795 17 17Z"/><path fill="#C7C8CC" id="alv" d="m267 62-2 1 2-1Z"/><path fill="#1B8063" id="SSs2/3" d="m53 82 7 8 3-3.5C63.978 84.543 73.284 71 75 71v-1c-1.988 0-6-5.237-6-7h-1L53 81v1Z"/><path fill="#C7C8CC" id="alv" d="m265 63-1 1 1-1ZM264 64l-1 1 1-1Z"/><path fill="#1B8063" id="SSs2/3" d="M396 90h1l7-8v-1c-1.115 0-12.533-17-16-17l-6 7c0 3.428 14 14.467 14 19Z"/><path fill="#C7C8CC" id="alv" d="M137 65c-1.664 0-6 1.823-6 4 1.417 0 6-2.383 6-4ZM263 65l-2 2c1.747 0 2-.253 2-2ZM261 67l-2 2c1.747 0 2-.253 2-2ZM131 69c-1.238 0-3 .423-3 2 1.238 0 3-.423 3-2ZM259 69l-2 2c1.747 0 2-.253 2-2Z"/><path fill="#187C63" id="SSs4" d="m60 91 4 3c2.44 0 11.673-16 16-16v-1l-5-6c-1.716 0-11.022 13.543-12 15.5L60 90v1Z"/><path fill="#C7C8CC" id="alv" d="M128 71c-1.238 0-3 .423-3 2 1.238 0 3-.423 3-2ZM257 71l-2 2c1.747 0 2-.253 2-2Z"/><path fill="#187C63" id="SSs4" d="M392 95h1c0-2.518 3-2.334 3-5 0-4.533-14-15.572-14-19h-1c0 2.919-4 4.243-4 7 0 1.76 15 12.19 15 17Z"/><path fill="#C7C8CC" id="alv" d="M125 73c-1.429 0-4 1.288-4 3 1.429 0 4-1.288 4-3ZM255 73l-1 1 1-1ZM254 74l-1 1 1-1ZM253 75l-2 1 2-1ZM121 76c-1.852 0-8 4.927-8 7 1.852 0 8-4.927 8-7ZM251 76l-1 1 1-1ZM207 77l2 2-2-2ZM250 77l-1 1 1-1Z"/><path fill="#039399" id="AUDd1" d="M36 98c1.312 0 2.446 3 5 3l8.5-15 3.5-4v-1c-1.429 0-4-1.288-4-3-1.314 0-13 17.841-13 20Z"/><path fill="#1C8063" id="SSs5" d="M72 104h1c0-1.853 11.252-18 13-18v-1c-2.858 0-4-5.226-4-5.5L80 78c-4.327 0-13.56 16-16 16v1c2.5 0 6.517 9 8 9Z"/><path fill="#C7C8CC" id="alv" d="m249 78-2 1 2-1Z"/><path fill="#1C8063" id="SSs5" d="M392 95c-2.476 0-4.926 9-8 9l-3-4.5c-2.295-2.296-10-12.088-10-14.5 1.001 0 5-6.033 5-7h1c0 1.76 15 12.19 15 17Z"/><path fill="#039399" id="AUDd1" d="m421 98-5 4c0-4.174-12-17.214-12-20v-1c2.54 0 2.543-3 4-3 0 3.835 13 15.156 13 20Z"/><path fill="#C7C8CC" id="alv" d="m210 79 7 4c-1.572 0-7-2.052-7-4ZM247 79l-2 1 2-1Z"/><path fill="#7BD04A" id="DG-mo" d="m152 109 2 1h30.5c2.718 1.359 8.996 2 12 2 3.238 0 12.5-2.121 12.5-6.5l-2-3.5v-1c-4.824 0-12.434-9.467-17.5-12-16.182-8.091-24.277-12.861-42-4-3.426 1.713-14.5 6.289-14.5 11v2c0 1.663 5.407 2 7 2 0-3.371 11.207-5.853 13.5-7 15.334-7.667 20.839-3.08 35 4 3.954 1.977 9.344 2.187 11.5 6.5 1.452 2.904-4.769 2.5-6 2.5l-16-4-16.5 1c-.944.472-6.5 4.558-6.5 2-1.712 0-3 2.571-3 4Z"/><path fill="#C7C8CC" id="alv" d="m245 80-1 1 1-1Z"/><path fill="#7BD04A" id="DG-mo" d="m305 109-2 1h-31.5c-4.169 2.085-14.631 3.184-19 1-5.09-2.545-3.5-4.895-3.5-9v-1c5.396 0 9.861-7.68 14.5-10 17.43-8.715 25.369-15.815 45-6 3.617 1.808 14.5 5.435 14.5 11v2c0 1.663-5.407 2-7 2 0-3.092-10.303-5.901-12.5-7-13.843-6.922-23.351-2.325-36 4l-10.5 4.5c-3.127 6.254 7.898 4.801 10.5 3.5 5.181-2.59 11.244-3 17.5-3 6.363 0 11.377 4 17 4l3 3Z"/><path fill="#C7C8CC" id="alv" d="m243 81-2 1 2-1Z"/><path fill="#029397" id="AUDd2/3" d="M41 102c0 1.881 4.73 6 7 6 3 0 9.822-17 12-17v-1l-7-8-3.5 4-8.5 15v1Z"/><path fill="#C7C8CC" id="alv" d="m241 82-1 1 1-1Z"/><path fill="#029397" id="AUDd2/3" d="M408 109h1l7-7c0-4.174-12-17.214-12-20l-7 8c0 6.686 11 12.614 11 19Z"/><path fill="#C7C8CC" id="alv" d="M113 83c-1.811 0-4 3.438-4 5 1.811 0 4-3.438 4-5ZM220 85h1v-2h-3l2 2Z"/><path fill="#7DCD4B" id="HPF" d="m222 83-1 1v-1h1Z"/><path fill="#7ECD4A" id="FC" d="m219 96-2 1c0-4.103 3-6.514 3-11l1-1v-1l1-1h3v4l-1 2-1 2-1 1-1 1v1l-1 1-1 1ZM236 85c0 4.232 3 7.011 3 11-3.52 0-8-9.492-8-13h4l1 2Z"/><path fill="#7DCD4B" id="HPF" d="M236 83v2l-1-2h1Z"/><path fill="#C7C8CC" id="alv" d="m238 83-2 2v-2h2Z"/><path fill="#7DCD4B" id="HPF" d="m221 85-1 1v-1h1Z"/><path fill="#A8A9AA" id="V3" d="M223 92c3.284 0 2.912 5 5.5 5 .716 0 .231-4 5.5-4 0-1.294-4.72-8.89-6.5-8-1.445.723-.091 2-2.5 2l-1 2-1 2v1Z"/><path fill="#197D63" id="SSs6a" d="M384 105c-1.59 0-6 5.662-6 7-1.885 0-9.315-18-13-18v-1c1.178 0 5-6.47 5-8h1c0 2.412 7.705 12.204 10 14.5l3 4.5v1ZM73 104c0 1.647 4.06 8 6 8 0-1.559 4.297-9 6-9 0-1.654 4.228-9 6-9v-1c0-2.395-5-5.527-5-7-1.748 0-13 16.147-13 18Z"/><path fill="#C7C8CC" id="alv" d="m109 88-1 1 1-1Z"/><path fill="#65A83D" id="DG-sg" d="m157 102-2 3c0 2.558 5.556-1.528 6.5-2l16.5-1 16 4c1.231 0 7.452.404 6-2.5-2.156-4.313-7.546-4.523-11.5-6.5-14.161-7.08-19.666-11.667-35-4-2.293 1.147-13.5 3.629-13.5 7l6-1c7.319 0 16.756-10.372 25.5-6 1.604.802 11.5 3.288 11.5 5.5 0 2.019-11.087-.706-11.5-.5-1.295.647-13.657 4-14.5 4Z"/><path fill="#C7C8CC" id="alv" d="M108 89c-1.712 0-3 2.571-3 4 1.712 0 3-2.571 3-4Z"/><path fill="#65A83D" id="DG-sg" d="m299 102 3 4c-5.623 0-10.637-4-17-4-6.256 0-12.319.41-17.5 3-2.602 1.301-13.627 2.754-10.5-3.5l10.5-4.5c12.649-6.325 22.157-10.922 36-4 2.197 1.099 12.5 3.908 12.5 7l-5-1c-7.46 0-16.752-10.374-25.5-6-1.554.777-12.5 3.733-12.5 5.5 0 2.019 11.087-.706 11.5-.5 1.185.593 13.808 4 14.5 4Z"/><path fill="#039398" id="AUDd4" d="m408 109-2 4-9-13.5-4-4.5c0-2.518 3-2.334 3-5h1c0 6.686 11 12.614 11 19ZM50 114h1c0-2.666 11.096-19 13-19v-1l-4-3c-2.178 0-9 17-12 17v1c1.014 0 2 3.959 2 5Z"/><path fill="#A8A9AA" id="V3" d="m223 92-1 1v-1h1Z"/><path fill="#A9AAA8" id="chpl" d="m237 97 1 4.5c-4.751 9.501-19 5.486-19-3.5v-1l1-1 1-1v-1l1-1 1-1c3.284 0 2.912 5 5.5 5 .716 0 .231-4 5.5-4l3 4Z"/><path fill="#C7C8CC" id="alv" d="M101 99h1l3-6c-2.177 0-4 4.336-4 6Z"/><path fill="#7ECE4A" id="DG-po" d="M146 99c7.319 0 16.756-10.372 25.5-6 1.604.802 11.5 3.288 11.5 5.5 0 2.019-11.087-.706-11.5-.5-1.295.647-13.657 4-14.5 4 0-2.682-11-.905-11-3Z"/><path fill="#A8A9AA" id="V3" d="m222 93-1 1v-1h1Z"/><path fill="#7ECE4A" id="DG-po" d="M311 99c-7.46 0-16.752-10.374-25.5-6-1.554.777-12.5 3.733-12.5 5.5 0 2.019 11.087-.706 11.5-.5 1.185.593 13.808 4 14.5 4 0-2.89 12-.828 12-3Z"/><path fill="#1A8061" id="SSs6b" d="M92 94c0 2.11-5.383 9-7 9 0-1.654 4.228-9 6-9h1ZM377 113h1v-1c-1.885 0-9.315-18-13-18h-1l3 3.5c.921 1.842 9.153 15.5 10 15.5Z"/><path fill="#029398" id="AUDd5" d="M62 126h1c0-8.066 9-15.916 9-22-1.483 0-5.5-9-8-9-1.904 0-13 16.334-13 19 0 .1 7 8.959 7 11l4 1Z"/><path fill="#A8A9AA" id="V3" d="m221 95-1 1v-1h1Z"/><path fill="#029398" id="AUDd5" d="m397 125-3 1c0-2.517-8.585-21-10-21v-1c3.074 0 5.524-9 8-9h1l4 4.5 9 13.5v1c-5.024 0-3.19 11-9 11Z"/><path fill="#7DCF4B" id="CA2" d="m101 100-1 3c4.357 0 10.718-2.109 14.5-4l18.5-1v-2h-16.5c-3.543 1.771-10.463 3-14.5 3l-1 1Z"/><path fill="#A8A9AA" id="V3" d="m220 96-1 1v-1h1Z"/><path fill="#7DCF4B" id="CA2" d="m355 100 2 4-6.5-3c-6.342-3.171-19.584-3-27.5-3v-2c5.773 0 19.01-1.245 23.5 1l8.5 3Z"/><path fill="#A8A9AA" id="V3" d="M228 135h1v-1l4-7-1-8.5c.825-1.651 5-7.809 5-8.5v-4l1-1 1-1c0-1.774.273-7-2-7l1 4.5c-4.751 9.501-19 5.486-19-3.5-4.939 0 0 6.169 0 7v5c5.458 0 5 12.311 5 16 0 3.238 3 5.3 3 8l1 1Z"/><path fill="#029297" id="AUDp1" d="m25 128 4 1c0-3.346 9.943-27 12-27v-1c-2.554 0-3.688-3-5-3-2.565 0-11 25.544-11 30Z"/><path fill="#7ECF49" id="CA3" d="M137 113c-1.465 0-4-.109-4 2-4.222 0-5.085 3.293-8.5 5l-9 7c-3.17 1.585-6.801 2.4-10 4-7.643 3.822-12.184-11.133-9.5-16.5.927-1.854 3-8.761 3-10.5l1-1c4.357 0 10.718-2.109 14.5-4l18.5-1c0 1.663 5.407 2 7 2l6-1c0 2.095 11 .318 11 3l-2 3c-1.712 0-3 2.571-3 4l-1 1h-6l-2 1h-1c-1.424 0-5 .362-5 2ZM313 111h1c10.918 0 19.326 11.413 28.5 16 2.226 1.113 8.209 5.396 11 4 7.983-3.992 9.493-12.514 5.5-20.5-.746-1.493.729-6.5-2-6.5l-6.5-3c-6.342-3.171-19.584-3-27.5-3 0 1.663-5.407 2-7 2l-5-1c0 2.172-12 .11-12 3l3 4 3 3v1h7l1 1Z"/><path fill="#029297" id="AUDp1" d="m432 128-5 1c0-8.622-11-21.419-11-27l5-4c0 4.359 11 21.611 11 30Z"/><path fill="#C7C8CC" id="alv" d="M109 133c-2.157 0-11 2.223-11 4-1.9 0-2.31-6.118-3-7.5-4.114-8.228 2-17.184 2-24.5 0-1.417 2.383-6 4-6v1l-1 3-1 1c0 1.739-2.073 8.646-3 10.5-2.684 5.367 1.857 20.322 9.5 16.5 3.199-1.6 6.83-2.415 10-4l9-7c3.415-1.707 4.278-5 8.5-5v1l-1 1h-1l-1 1-2 1-1 1-1 1-1 1c-1.429 0-4 1.288-4 3l-1 1-1 1c-3.651 0-6.552 6-10 6Z"/><path fill="#7ECF4B" id="CA1" d="m102 99-1 1v-1h1Z"/><path fill="#7DCD4B" id="HPF" d="m208 101-1 1v-1h1ZM249 101v1l-1-1h1Z"/><path fill="#019298" id="AUDp2/3" d="M29 129h10c0-2.967 7.562-20 9-20v-1c-2.27 0-7-4.119-7-6-2.057 0-12 23.654-12 27ZM418 129h9c0-8.622-11-21.419-11-27l-7 7c0 6.734 8 12.173 8 20h1Z"/><path fill="#1A8061" id="SSs6b" d="M79 113h1l5-10c-1.703 0-6 7.441-6 9v1Z"/><path fill="#7DCF4B" id="CA2" d="m100 103-1 1 1-1Z"/><path fill="#019399" id="AUDd6a" d="M72 129h1c0-2.502 4.557-16 6-16v-1c-1.94 0-6-6.353-6-8h-1c0 6.084-9 13.934-9 22 0 1.682 7.147 3 9 3Z"/><path fill="#FF8D9F" id="MH" d="m208 114 2 1c0-4.026 7-5.891 7-10-3.679 0-9 3.685-9 9Z"/><path fill="#C8CCC7" id="hbc" d="m240 104-1 1v-1h1Z"/><path fill="#FF8D9F" id="MH" d="m248 114-2 1c0-4.727-7-5.635-7-10l1-1c4.101 0 8 6.485 8 10Z"/><path fill="#A8AAAA" id="VL" d="M345 197c0 2.003-.293 3 2 3 4.307 0 3.069-7 5-7 0-7.486 7-13.752 7-21v-1c0-13.192.045-12.589 6-24.5.736-1.471-.357-7.5 2-7.5 0-6 1-12.475 1-19v-1c-3.953 0-4.147-15-9-15l2 3.5c2.497 4.993 2.513 17.975 0 23-.557 1.114-.41 5.5-2 5.5v10c0 1.048.473 3-1 3 0 1.048.473 3-1 3v2c0 1.048.473 3-1 3 0 1.145.579 4-1 4l-1 1c2.56 0 0 4.523 0 2-1.473 0-1 1.952-1 3v1c0 1.705-2.395 11-4 11 0 6.773-4 11.502-4 18ZM111 196c0 2.177.641 4-2 4-3.42 0-3.189-7-5-7 0-7.673-7-13.85-7-21v-1l2-2.5c2.933-5.866-4.781-16.562-7-21-.758-1.517-1.054-9.5-3-9.5l-1-17v-1c1.63 0 5.53-15 9-15 0 7.316-6.114 16.272-2 24.5.69 1.382 1.1 7.5 3 7.5v10c0 1.145-.58 4 1 4v1c0 1.296.825 7 2 7v1c0 1.622-.461 5 2 5v3c0 1.285 2.805 10 4 10v4l1 1 3 13Z"/><path fill="#C8CCC7" id="hbc" d="m210 115 2 1c0-4.6 4.164-6 7-6v-5h-2c0 4.109-7 5.974-7 10ZM245 115h1c0-4.727-7-5.635-7-10h-1l-1 1v4c6.432 0 5.669 5 8 5Z"/><path fill="#019399" id="AUDd6a" d="M384 130h1c0-.357 7.908-4 9-4 0-2.517-8.585-21-10-21-1.59 0-6 5.662-6 7v1c0 5.732 6 10.803 6 17Z"/><path fill="#039397" id="AUDp4" d="M39 129h5c2.064 0 .426-3.353 1-4.5l5-10.5c0-1.041-.986-5-2-5-1.438 0-9 17.033-9 20Z"/><path fill="#7DCD4B" id="HPF" d="M151 110h3l-2-1-1 1Z"/><path fill="#FF8D9F" id="MH" d="m224 126-5 1c-3.322 0-7-8.521-7-11 0-4.6 4.164-6 7-6 5.458 0 5 12.311 5 16ZM233 127h5c2.198 0 7-9.886 7-12-2.331 0-1.568-5-8-5 0 .691-4.175 6.849-5 8.5l1 8.5Z"/><path fill="#7DCD4B" id="HPF" d="M303 110h2v-1l-2 1Z"/><path fill="#039397" id="AUDp4" d="M412 130h1l4-1c0-7.827-8-13.266-8-20h-1l-2 4v1c.906 0 6 13.407 6 16Z"/><path fill="#C7C8CC" id="alv" d="M144 111h1v-1l-2 1h1ZM312 110l1 1-1-1ZM138 113h2l1-1h1v-1c-1.424 0-5 .362-5 2h1Z"/><path fill="#FE8083" id="LGd-sh" d="m125 122-3 6c0 9.278 11.968-10 15-10l1-1 8-3c0-1.916 3-.07 3-3h-5l-2 1h-1l-1 1h-2l-1 1-3 1-1 1-1 1h-1l-1 1-2 1-1 1-1 1-1 1Z"/><path fill="#FE7F84" id="LGd-co" d="m133 143-3 1c0-1.717-7.58-11-9-11 0-1.235-.643-5 1-5 0 9.278 11.968-10 15-10 0 13.294 19.296-4 9-4 0-1.916 3-.07 3-3h1c0 2.681 2.592 8.316 1 11.5-1.042 2.084-2 2.908-2 5.5l-4 3.5c-2.725 2.725-12 8.443-12 11.5Z"/><path fill="#FE909D" id="LP" d="M195 132c-2.364 0-3.053 3-5 3-6.415 0-10.5-4-17-4h-1l-1-1c-7.991 0-6.788 4.144-12.5 7l-9.5-3v-6c0-2.592.958-3.416 2-5.5 1.592-3.184-1-8.819-1-11.5 14.043 0 27.911 2 41 2l5 4.5c1.141 2.283 1 4.726 1 7.5l-2 7ZM262 132l4 3c6.715 0 11.019-4 18-4 14.001 0 5.794 2.147 13.5 6l9.5-3c2.614 0 0-6.031 0-7 0-5.271-1-9.801-1-16-14.043 0-27.911 2-41 2 0 2.437-6 5.923-6 12l3 7Z"/><path fill="#FE7F84" id="LGd-co" d="M336 133c-1.688 0-10 8.721-10 11-3.514 0-16.865-17-19-17 0-5.271-1-9.801-1-16h2c0 4.861 3-.219 3 3-12.537 0 8 17.389 8 4 6.352 0 8.328 10.914 12.5 13l3.5-3 1 5Z"/><path fill="#FE8083" id="LGd-sh" d="M331 121c0 2.565 4 3.909 4 7l-3.5 3c-4.172-2.086-6.148-13-12.5-13l-3-2-1-1-4-1c0-3.219-3 1.861-3-3l6 1h1l1 1h2l1 1h1l1 1c2.83 0 4.54 4 7 4l2 2h1Z"/><path fill="#019398" id="AUDd6b" d="m75 127-2 2c0-2.502 4.557-16 6-16h1c0 4.748-5 8.89-5 14Z"/><path fill="#C7C8CC" id="alv" d="M133 115h1l3-1v-1c-1.465 0-4-.109-4 2Z"/><path fill="#FF64FF" id="MB" d="m197 125 5.5 2 2.5-2c0-3.721 2-6.881 2-10l-16-2 5 4.5c1.141 2.283 1 4.726 1 7.5ZM252 125c1.602 0 2.384 3.058 4.5 2l2.5-2c0-6.077 6-9.563 6-12l-16 2 2 2.5c.703 1.406-1.261 7.5 1 7.5Z"/><path fill="#019398" id="AUDd6b" d="M383 130h1c0-6.197-6-11.268-6-17h-1c0 5.428 4 8.449 4 14 1.577 0 2 1.762 2 3Z"/><path fill="#039199" id="AUDp5" d="M44 129v1c5.18 0 14-.819 14-5 0-2.041-7-10.9-7-11h-1l-5 10.5c-.574 1.147 1.064 4.5-1 4.5Z"/><path fill="#FD8082" id="LGd-ip" d="m138 117-1 1c0 13.294 19.296-4 9-4l-8 3Z"/><path fill="#FF8F9D" id="LH" d="m216 136-4 2c-2.971 0-4.768-3-7-3v-10c0-3.721 2-6.881 2-10l1-1 2 1 2 1c0 2.479 3.678 11 7 11 0 3.676-3 6.439-3 9ZM240 136c.671 0 5 1.328 5 2l6-3c0-2.978 1-6.49 1-10-2.261 0-.297-6.094-1-7.5l-2-2.5-1-1-2 1h-1c0 2.114-4.802 12-7 12 0 4.831 2 6.813 2 9Z"/><path fill="#FD8082" id="LGd-ip" d="m316 116 3 2c0 13.389-20.537-4-8-4l4 1 1 1Z"/><path fill="#039199" id="AUDp5" d="M397 125c0 4.298 11.43 5 15 5 0-2.593-5.094-16-6-16-5.024 0-3.19 11-9 11Z"/><path fill="#FE7F84" id="LGd-co" d="m315 115 1 1-1-1Z"/><path fill="#CAC7CB" id="fiber tracts" d="m131 117-1 1 1-1Z"/><path fill="#FE7F84" id="LGd-co" d="m138 117-1 1 1-1Z"/><path fill="#CAC7CB" id="fiber tracts" d="m128 119-1 1 1-1ZM328 119l2 2-2-2ZM127 120l-1 1 1-1Z"/><path fill="#98D5F9" id="CP" d="m368 198-1 1c-5.354 0-15 .977-15-6 0-7.486 7-13.752 7-21l1-1c4.112 0 11.636-21.227 9-26.5l-2-5.5c0-6 1-12.475 1-19 .844 0 9.07 20 11 20 0 4.687 4 8.051 4 13 0 6.158 2 14.046 2 20l-1 3-3 6.5c-1.955 3.91-8.716 15.5-13 15.5ZM104 193c0 8.512-10.252 5-15 5-4.609 0-16-17.927-16-22l-2-3c0-6.983 2-13.545 2-20 0-4.578 5-8.911 5-13l10-19 1 17c0 12.147-4.338 11.824 2 24.5.954 1.908 1.531 8.5 5 8.5l1 1c0 7.15 7 13.327 7 21Z"/><path fill="#CAC7CB" id="fiber tracts" d="m126 121-1 1 1-1ZM294 245l-6 4c0-2.572-4-4.883-4-7l-1-4v-4l1-1 5.5-6c4.536-2.268 20.5-19.255 20.5-25l3-6 1-1c4.46 0 9.07-10 12-10l1-1v-1l2-1c2.618 0 1.651-3 4-3l1-1 1-1 2-2v-2l1-1 1-7 1-1c0-4.324 2.274-30-4-30v-1l-1-5c0-3.091-4-4.435-4-7l5 4c0 2.821 4.64 9.781 6 12.5 2.53 5.06 1 14.529 1 20.5 0 1.178 2.572 6 4 6 0 2.307 2.879 4 5 4h1c0 1.705-2.395 11-4 11v-5.5c0-1.295-2.75-8.501-4-6-3.668 7.335 1.671 18.659-2 26-.647 1.295.657 3.5 2 3.5 0 2.003-.293 3 2 3l-16 16-1 1h-2l11-14.5c1.899-3.798 3-8.987 3-13.5 0-1.111.455-5-1.5-5-2.724 0-3.77 7.04-4.5 8.5-3.711 7.422-8.964 16.964-15 23l-6 6.5c-4.411 0-20.594 23.953-26.5 21-4.946-2.473-.9-8.7.5-11.5 3.437-6.874 16.002-8.004 20-16 3.289-6.578 5.688-13.376 9-20 1.619-3.238 9.661-10.42 13.5-8.5 3.69 1.845.483 6.533-.5 8.5-2.585 5.17-16 22.292-16 26.5 0 3.636-5 5.108-5 9l-16 14Z"/><path fill="#CAC7CB" id="fiber tracts" fill-rule="evenodd" d="m124 187-1 4.5c7.262 14.524 16.087 28.087 28.5 40.5 3.702 3.702 7.661 6.831 12 9 .903.452 4.253 3.994 5.5 1.5 2.24-4.481.549-10.975-4.5-13.5-7.171-3.586-15.776-10.051-19.5-17.5-4.684-9.369-6.926-24.5-21-24.5m39 59 6 3c0-1.999.067-6 3-6l1-1v-1l1-2v-3c-1.473 0-1-1.952-1-3l-8-7.5c-6.519-6.519-18-14.053-18-23.5-1.008 0-4-5.147-4-6 0-4.553-13-6.44-13-12l-3-2-5-4-3-4-1-5-1-1v-3c0-2.029-1.191-1.881-2-3.5-2.85-5.7 2-15.115 2-20.5l3-6 1-2c0-1.235-.643-5 1-5l3-6c-1.429 0-4 1.288-4 3l-1 1-1 1-4 8.5c-.662 1.324-.353 8.5-2 8.5v9c0 2.909.044 12-4 12 0 1.712-2.571 3-4 3h-2c0 1.285 2.805 10 4 10l1-8.5 3-2c.697 1.393 2.342 28.317 2 29l-2-.5c0 2.177.641 4-2 4l18 17 3 2c0-4.919-15-14.885-15-26.5 0-1.758-2.258-7.121.5-8.5 2.121-1.061 3.951 5.402 4.5 6.5 4.097 8.194 9.882 15.765 14 24l10 12c.807.807 4.055 4.5 2 4.5 0 2.523 17 11.161 17 15Z"/><path fill="#019098" id="AUDv5" d="m41 151 15 1c0-9.192 6-17.577 6-26l-4-1c0 4.181-8.82 5-14 5l-3 21Z"/><path fill="#FF6F80" id="TH" d="M195 132c3.285 0 7.16 3 10 3v-10l-2.5 2-5.5-2-2 7ZM262 132c-4.06 0-7.303 3-11 3 0-2.978 1-6.49 1-10 1.602 0 2.384 3.058 4.5 2l2.5-2 3 7Z"/><path fill="#019098" id="AUDv5" d="m415 151-14 1c0-8.229-7-18.798-7-26l3-1c0 4.298 11.43 5 15 5h1c0 7.626 2 13.374 2 21Z"/><path fill="#019397" id="AUDv6a" d="m56 152 10 1c0-1.753 1.302-12 3-12 0-1.623.005-6 2-6l1-5v-1c-1.853 0-9-1.318-9-3h-1c0 8.423-6 16.808-6 26Z"/><path fill="#FE90FE" id="PRC" d="m216 136 4 4c0-3.072 4.136-6 7-6 0-2.7-3-4.762-3-8l-5 1c0 3.676-3 6.439-3 9Z"/><path fill="#019397" id="AUDv6a" d="m401 152-11 1c0-8.367-5-15.223-5-23 0-.357 7.908-4 9-4 0 7.202 7 17.771 7 26Z"/><path fill="#C9C9CA" id="scwm" d="m75 131-2 1v-3l2-2v4Z"/><path fill="#FE90FE" id="PRC" d="m240 136-3 4c-2.676 0-3.219-6-7-6h-1l4-7h5c0 4.831 2 6.813 2 9Z"/><path fill="#FF6F80" id="TH" d="M323 157h1c0-2.061.902-4 3-4 0-3.274-4.605-5.711-6-8.5l-.5-3.5 6.5 6v-2l-1-1c-3.514 0-16.865-17-19-17 0 .969 2.614 7 0 7v1c6.865 0 16 15.932 16 22Z"/><path fill="#C9C9CA" id="scwm" d="M381 131h2v-1c0-1.238-.423-3-2-3v4Z"/><path fill="#019099" id="AUDv1" d="M22 151h6c0-7.558 1-14.944 1-22l-4-1c0 7.025-3 15.325-3 23Z"/><path fill="#FF6F80" id="TH" fill-rule="evenodd" d="M135 142c0 1.93 1.93 0 0 0m1-1c0 1.93 1.93 0 0 0m-7 12c2.54 0 2.543 3 4 3 0-5.182 11.13-21 16-21v-7l-4 3.5c-2.725 2.725-12 8.443-12 11.5 4.81 0-2.369 9-4 9v1Z"/><path fill="#019099" id="AUDv1" d="M429 151h5l-2-23-5 1c0 6.984 2 14.622 2 22Z"/><path fill="#029198" id="AUDv2/3" d="M28 151h8c0-7.756 3-16.318 3-22H29c0 7.056-1 14.442-1 22Z"/><path fill="#029197" id="AUDv4" d="M36 151h5l3-21v-1h-5c0 5.682-3 14.244-3 22Z"/><path fill="#019398" id="AUDd6b" d="M72 130h1v-1h-1v1Z"/><path fill="#029197" id="AUDv4" d="M415 151h6c0-7.67-3-14.591-3-22h-1l-4 1c0 7.626 2 13.374 2 21Z"/><path fill="#029198" id="AUDv2/3" d="M421 151h8c0-7.378-2-15.016-2-22h-9c0 7.409 3 14.33 3 22Z"/><path fill="#019198" id="AUDv6b" d="m73 132-2 3 1-5h1v2Z"/><path fill="#FF8E9C" id="PO" d="m179 179 4 1c0-1.175 5.704-2 7-2 0-.982-3.372-6.244-4-7.5l1-16.5-4.5-5c-1.448-1.448-9.5-16.145-9.5-18h-1l-1-1c-7.991 0-6.788 4.144-12.5 7l-9.5-3v1c0 3.807 18.184 27.868 21 33.5 2.099 4.199 9 6.693 9 10.5Z"/><path fill="#FD8F9C" id="Eth" d="m171 130 1 1-1-1Z"/><path fill="#FF8E9C" id="PO" d="m277 179-3 1c-2.522 0-4.909-2-8-2l2-1.5 3-9c1.552-3.104-2-9.457-2-12.5l4-4.5 11-19.5c14.001 0 5.794 2.147 13.5 6l9.5-3v1c0 5.24-18.67 28.84-22 35.5-.923 1.845-8 5.633-8 8.5Z"/><path fill="#019198" id="AUDv6b" d="M389 153h1c0-8.367-5-15.223-5-23h-2v2l1 1c0 6.439 5 12.923 5 20Z"/><path fill="#CCC8CA" id="ar" d="M68 175v1c.918 0 1.548-3.595 2-4.5 1.599-3.198 1-15.177 1-18.5 0-5.997 4-11.122 4-16 0-2.02 4.53-6 0-6l-2 1-2 3c0 1.623-.005 6-2 6 0 4.371-2 8.019-2 12 0 7.293 1 15.359 1 22Z"/><path fill="#FD8F9C" id="Eth" d="M190 135c0 5.887-3 12.661-3 19l-4.5-5c-1.448-1.448-9.5-16.145-9.5-18 6.5 0 10.585 4 17 4ZM266 135l3 8.5V155l4-4.5 11-19.5c-6.981 0-11.285 4-18 4Z"/><path fill="#CCC8CA" id="ar" d="M389 175v1c-2.53 0-3-19.256-3-23 0-2.428-3.375-16-5-16 0-.986-2.515-6 0-6h2v1l1 1c0 6.439 5 12.923 5 20v22Z"/><path fill="#FC909E" id="PF" fill-rule="evenodd" d="M190 178c5.519 0 12.343 1 18.5 1 1.278 0 5.5.665 5.5-1l4-3c0-5.046 1-11.325 1-17-4.262 0-2-5.683-2-8 1.684 0 1-4.679 1-6 0-2.344-3.726-6-6-6-2.971 0-4.768-3-7-3-2.84 0-6.715-3-10-3-2.364 0-3.053 3-5 3 0 5.887-3 12.661-3 19l-1 16.5c.628 1.256 4 6.518 4 7.5m27-28c0-19.542-20.936-2.718-5.5 5 3.043 1.522 3.883-5 5.5-5Z"/><path fill="#FC909E" id="PF" d="M242 178h24l2-1.5 3-9c1.552-3.104-2-9.457-2-12.5v-11.5l-3-8.5-4-3c-4.06 0-7.303 3-11 3l-6 3c-1.429 0-4 1.288-4 3 9.472 0 13.576 9.462 4.5 14-3.939 1.969-4.509-6-6.5-6l1 6.5c-.809 1.619-2 1.471-2 3.5v15l4 4Z"/><path fill="#C9C9CA" id="scwm" d="m383 132 1 1-1-1Z"/><path fill="#CBC8CB" id="fi" d="m103 166 2 2c1.429 0 4-1.288 4-3 0-1.164 3.764-12 4-12v-9c0-4.046-4-7.722-4-11-2.157 0-11 2.223-11 4v10c1.58 0 1 2.855 1 4v1c1.663 0 2 5.407 2 7v1c1.473 0 1 1.952 1 3l1 1v2Z"/><path fill="#FF909E" id="IGL" d="m130 144-1 1-9-10 1-2c1.42 0 9 9.283 9 11ZM326 144l1 1c2.035 0 9-9.196 9-11v-1c-1.688 0-10 8.721-10 11Z"/><path fill="#CBC8CB" id="fi" d="m353 167-1 1c-2.121 0-5-1.693-5-4 0-6.197-6.739-17.023-3-24.5l3-6.5c4.282 0 7.866 3 12 3v10c-1.473 0-1 1.952-1 3-1.473 0-1 1.952-1 3v2c-1.473 0-1 1.952-1 3-1.579 0-1 2.855-1 4l-1 1v2c-1.473 0-1 1.952-1 3Z"/><path fill="#FE8F9E" id="PVT" d="M219 158c6.945 0 12.595 1 19 1 0-2.029 1.191-1.881 2-3.5l-1-6.5v-2c-1.579 0-1-2.855-1-4l-1-3c-2.676 0-3.219-6-7-6l-1 1h-1l-1-1c-2.864 0-7 2.928-7 6l-2 4c0 1.321.684 6-1 6 0 2.317-2.262 8 2 8Z"/><path fill="#FF8E9F" id="LGv" d="m340 164-1 1c-.244 0-1.954-4-8-4l-3-8-1-6v-2c2.035 0 9-9.196 9-11 6.274 0 4 25.676 4 30Z"/><path fill="#019198" id="AUDv6b" d="M71 135c-1.995 0-2 4.377-2 6 1.995 0 2-4.377 2-6Z"/><path fill="#FF8E9F" id="LGv" d="M117 165h1c0-4.382 3.393-4 7-4l4-8v-8l-9-10-3 6c0 5.385-4.85 14.8-2 20.5.809 1.619 2 1.471 2 3.5Z"/><path fill="#FF7E83" id="VPM" d="m162 183 4 2c0-2.399 8.764-3.132 10.5-4l2.5-2c0-3.807-6.901-6.301-9-10.5-2.816-5.632-21-29.693-21-33.5-4.87 0-16 15.818-16 21v1c3.108 0 2.75 5.125 4.5 6l24.5 20ZM294 183l-3 2c0-1.111-12.464-6-14-6 0-2.867 7.077-6.655 8-8.5 3.33-6.66 22-30.26 22-35.5 6.865 0 16 15.932 16 22l-1 1c0 2.526-17.586 17.543-20.5 19l-7.5 6Z"/><path fill="#FF6F80" id="TH" d="m220 140-2 4c0-2.344-3.726-6-6-6l4-2 4 4ZM241 141c-2.215 0-1.519 2-3 2l-1-3 3-4c.671 0 5 1.328 5 2-1.429 0-4 1.288-4 3Z"/><path fill="#C7CACC" id="ccs" d="M71 153h2c0-4.578 5-8.911 5-13l-3-3c0 4.878-4 10.003-4 16ZM383 153h3c0-2.428-3.375-16-5-16l-2 3c0 4.687 4 8.051 4 13Z"/><path fill="#CBC9C7" id="or" d="M96 171h1l2-2.5c2.933-5.866-4.781-16.562-7-21-.758-1.517-1.054-9.5-3-9.5 0 12.147-4.338 11.824 2 24.5.954 1.908 1.531 8.5 5 8.5ZM359 171h1c4.112 0 11.636-21.227 9-26.5l-2-5.5c-2.357 0-1.264 6.029-2 7.5-5.955 11.911-6 11.308-6 24.5Z"/><path fill="#019198" id="AUDv6b" d="M66 153h1c0-3.981 2-7.629 2-12-1.698 0-3 10.247-3 12Z"/><path fill="#CBC9C7" id="or" d="M136 141c0 1.93 1.93 0 0 0Z"/><path fill="#C7CAC9" id="fr" d="M217 150c0-19.542-20.936-2.718-5.5 5 3.043 1.522 3.883-5 5.5-5Z"/><path fill="#FC909E" id="PF" d="M238 143c0 1.145-.579 4 1 4 0-2.483 2-4.026 2-6-2.215 0-1.519 2-3 2Z"/><path fill="#C7CAC9" id="fr" d="M239 147v2c1.991 0 2.561 7.969 6.5 6 9.076-4.538 4.972-14-4.5-14 0 1.974-2 3.517-2 6Z"/><path fill="#CBC9C7" id="or" d="M327 153h1l-1-6-6.5-6 .5 3.5c1.395 2.789 6 5.226 6 8.5ZM135 142c0 1.93 1.93 0 0 0Z"/><path fill="#FF6F80" id="TH" d="M129 145v2c1.366 0 4-2.366 4-4l-3 1-1 1Z"/><path fill="#CBC9C7" id="or" d="M129 147v5c1.631 0 8.81-9 4-9 0 1.634-2.634 4-4 4Z"/><path fill="#A9AAA8" id="chpl" d="M359 146c-1.473 0-1 1.952-1 3 1.473 0 1-1.952 1-3ZM98 147c1.58 0 1 2.855 1 4-1.58 0-1-2.855-1-4ZM358 149c-1.473 0-1 1.952-1 3 1.473 0 1-1.952 1-3Z"/><path fill="#15B0B3" id="TEa1" d="m31 176-5 1c-1.175 0-2-5.704-2-7 0-5.972-2-12.321-2-19h6c0 8.803 3 17.75 3 25Z"/><path fill="#16AFB3" id="TEa2/3" d="M40 175c-3.222 0-6.277 1-9 1 0-7.25-3-16.197-3-25h8c0 8.438 4 16.342 4 24Z"/><path fill="#15B0B2" id="TEa4" d="M40 175h2c0-7.391-1-15.983-1-24h-5c0 8.438 4 16.342 4 24Z"/><path fill="#15AFB3" id="TEa5" d="M42 175h13c0-7.564 1-16.113 1-23l-15-1c0 8.017 1 16.609 1 24ZM414 175h1v-24l-14 1v23h13Z"/><path fill="#15B0B2" id="TEa4" d="M415 175h1c0-6.691 5-16.223 5-24h-6v24Z"/><path fill="#16AFB3" id="TEa2/3" d="M425 176h1c0-8.167 3-16.847 3-25h-8c0 7.777-5 17.309-5 24 3.222 0 6.277 1 9 1Z"/><path fill="#15B0B3" id="TEa1" d="m426 176 5 1c0-2.613.93-4.36 2-6.5l1-19.5h-5c0 8.153-3 16.833-3 25Z"/><path fill="#15AFB2" id="TEa6a" d="M55 175h12c0-6.557-1-14.767-1-22l-10-1c0 6.887-1 15.436-1 23Z"/><path fill="#A9AAA8" id="chpl" d="M99 152c1.663 0 2 5.407 2 7-1.175 0-2-5.704-2-7Z"/><path fill="#15AFB2" id="TEa6a" d="M390 175h11v-23l-11 1v22Z"/><path fill="#16B0B2" id="TEa6b" d="M67 175h1c0-6.641-1-14.707-1-22h-1c0 7.233 1 15.443 1 22Z"/><path fill="#C8CBCC" id="ec" d="m71 176-3 2v-2c.918 0 1.548-3.595 2-4.5 1.599-3.198 1-15.177 1-18.5h2c0 6.455-2 13.017-2 20v3Z"/><path fill="#CCC8CA" id="ar" d="M128 179h1c0-2.74-.626-6 3-6 0-2.776-3.527-6.446-2-9.5l3-6.5v-1c-1.457 0-1.46-3-4-3l-4 8c2.984 0 3 15.239 3 18ZM324 173c3.236 0 2.46 3 4 3 0-3.457 3-12.694 3-15l-3-8h-1c-2.098 0-3 1.939-3 4 0 2.772 1.833 5.167 3 7.5.984 1.967-3 6.664-3 8.5Z"/><path fill="#C8CBCC" id="ec" d="M389 176v2c-2.215 0-1.519-2-3-2 0-1.048.473-3-1-3 0-5.954-2-13.842-2-20h3c0 3.744.47 23 3 23Z"/><path fill="#16B0B2" id="TEa6b" d="M389 175h1v-22h-1v22Z"/><path fill="#A9AAA8" id="chpl" d="M357 154c-1.473 0-1 1.952-1 3 1.473 0 1-1.952 1-3Z"/><path fill="#FD8084" id="VPL" d="M155 186h6l2-1-1-2-24.5-20c-1.75-.875-1.392-6-4.5-6l-3 6.5c-1.527 3.054 2 6.724 2 9.5 6.003 0 13.07 13 23 13Z"/><path fill="#FF6F80" id="TH" d="m323 157-1 1 1-1Z"/><path fill="#FD8084" id="VPL" d="M295 186h7c8.243 0 18.414-13 22-13 0-1.836 3.984-6.533 3-8.5-1.167-2.333-3-4.728-3-7.5h-1l-1 1c0 2.526-17.586 17.543-20.5 19l-7.5 6v2l1 1Z"/><path fill="#A9AAA8" id="chpl" d="M356 157c-1.579 0-1 2.855-1 4 1.579 0 1-2.855 1-4Z"/><path fill="#FE909F" id="IMD" d="M238 179c-6.405 0-12.055 1-19 1l-1-5c0-5.046 1-11.325 1-17 6.945 0 12.595 1 19 1v20Z"/><path fill="#A9AAA8" id="chpl" d="M103 164v1c-2.461 0-2-3.378-2-5 1.473 0 1 1.952 1 3l1 1Z"/><path fill="#FD8F9F" id="RT" d="m128 179-1 3-5-4c0-1.429-1.288-4-3-4l-1-5v-4c0-4.382 3.393-4 7-4 2.984 0 3 15.239 3 18ZM328 180l1 2c2.618 0 1.651-3 4-3l1-1 1-1c0-1.747.253-2 2-2v-2l1-1 1-7c-.244 0-1.954-4-8-4 0 2.306-3 11.543-3 15v4Z"/><path fill="#A9AAA8" id="chpl" d="M354 162c2.56 0 0 4.523 0 2v-2Z"/><path fill="#A8AAAA" id="VL" d="m102 163 1 1-1-1Z"/><path fill="#FF6F80" id="TH" d="m340 164-1 1 1-1Z"/><path fill="#CBC9C7" id="or" d="M117 168h1v-3h-1v3Z"/><path fill="#C8CBC7" id="st" d="m108 183 3 13 2 .5c.342-.683-1.303-27.607-2-29l-3 2-1 8.5v4l1 1ZM349 179c0 6.773-4 11.502-4 18-1.343 0-2.647-2.205-2-3.5 3.671-7.341-1.668-18.665 2-26 1.25-2.501 4 4.705 4 6v5.5Z"/><path fill="#FF6F80" id="TH" d="M118 168v1l-1-1h1Z"/><path fill="#CCC8CA" id="ar" d="m338 172-1 1 1-1Z"/><path fill="#97D6F9" id="STR" d="M71 176h2l-2-3v3Z"/><path fill="#F0483B" id="ZI" d="m191 209 2 3.5c-4.154 8.308-21.087-1.5-26-1.5l-4-2-6-4h-1c0-1.737-11.177-9-13-9 0-4.553-13-6.44-13-12l-1-5c0-2.74-.626-6 3-6 6.003 0 13.07 13 23 13 0 1.517 8.028 3.264 9.5 4l10.5 8c0 3.597 13.278 11 16 11ZM285 213h1l1-1h1l1-1h1l1-1c0-1.473 1.952-1 3-1 0-1.577 1.762-2 3-2 0-1.577 1.762-2 3-2l2-1 1-1 2-1c0-1.803 6.495-6 8-6l1-1c4.46 0 9.07-10 12-10l1-1v-1c0-1.048-.473-3 1-3v-4c-1.54 0-.764-3-4-3-3.586 0-13.757 13-22 13 0 2.033-7.021 2.261-8.5 3l-11.5 8c0 4.403-13.142 12-17 12l-1 1c0 9.957 15.363 3 21 3Z"/><path fill="#97D6F9" id="STR" d="M385 177h1v-1c0-1.048.473-3-1-3l-1 3 1 1Z"/><path fill="#CCC8CA" id="ar" d="M119 174c1.712 0 3 2.571 3 4l-3-4Z"/><path fill="#FF6F80" id="TH" d="m238 179 1 1c0-1.577 1.762-2 3-2l-4-4v5Z"/><path fill="#0D9F91" id="ECT2/3" d="m35 193 12 1c0-4.863-5-12.966-5-19h-2c-3.222 0-6.277 1-9 1 0 2.626 4 9.379 4 17Z"/><path fill="#0D9E90" id="ECT5" d="M47 194c4.407 0 9.812 3 14 3 0-7.413-6-13.838-6-22H42c0 6.034 5 14.137 5 19Z"/><path fill="#0E9F91" id="ECT6a" d="M61 197h3c0-2.041.96-3 3-3v-19H55c0 8.162 6 14.587 6 22Z"/><path fill="#0E9F90" id="ECT6b" d="m67 194 1 1v-20h-1v19Z"/><path fill="#FF6F80" id="TH" d="m219 180-2 1c0-2.041-.959-3-3-3l4-3 1 5Z"/><path fill="#CCC8CA" id="ar" d="M337 175c-1.747 0-2 .253-2 2l2-2Z"/><path fill="#0E9F90" id="ECT6b" d="M389 178v1c1.579 0 1-2.855 1-4h-1v3Z"/><path fill="#0E9F91" id="ECT6a" d="M392 197h3l1-1c0-7.402 5-12.892 5-21h-11c0 1.145.579 4-1 4v15c2.041 0 3 .959 3 3Z"/><path fill="#0D9E90" id="ECT5" d="m410 194-14 2c0-7.402 5-12.892 5-21h13c0 6.603-4 13-4 19Z"/><path fill="#0D9F91" id="ECT2/3" d="m422 193-12 1c0-6 4-12.397 4-19h2c3.222 0 6.277 1 9 1 0 3.398-3 9.892-3 17Z"/><path fill="#0D9F90" id="ECT1" d="M27 193h8c0-7.621-4-14.374-4-17l-5 1c0 2.029 1.19 1.881 2 3.5L27 193Z"/><path fill="#C8C9CB" id="amc" d="m78 228-2 1c0-9.243-1.185-17.869-5-25.5-.699-1.397-1.242-8.5-3-8.5v-17l3-2-1 17.5c4.05 8.1 8 24.875 8 34.5Z"/><path fill="#90EB8D" id="LA" d="M79 234c0 1.623.005 6 2 6 0-6.242 5.222-19 13-19 0-4.618 8.135-3 10-3l-2-5-3-3.5c-2.648-2.648-10-7.791-10-11.5-4.609 0-16-17.927-16-22h-2l-1 17.5c4.05 8.1 8 24.875 8 34.5 1.684 0 1 4.679 1 6ZM377 235c0 1.623-.005 6-2 6 0-6.148-4.152-20-12-20-1.827 0-5.717-4-10-4 0-1.624 2-2.75 2-5l2.5-3c1.836-.918 9.5-7.004 9.5-10l1-1c4.284 0 11.045-11.59 13-15.5l3-6.5 1 1 1 2 1 12.5c-3.835 7.67-9 26.636-9 35.5v7l-1 1Z"/><path fill="#C8C9CB" id="amc" d="m378 227 2 3c0-6.486.254-16.008 3-21.5l5-13.5c0-1.048-.473-3 1-3v-4c-1.399 0-1.399-2 0-2v-8c-2.215 0-1.519-2-3-2v3l1 12.5c-3.835 7.67-9 26.636-9 35.5Z"/><path fill="#0D9F90" id="ECT1" d="M422 193h7l-1-11.5 3-4.5-5-1h-1c0 3.398-3 9.892-3 17Z"/><path fill="#CCC8CA" id="ar" d="m335 177-1 1 1-1Z"/><path fill="#8AD987" id="CTXsp" d="M386 177v2l-1-2h1Z"/><path fill="#FE8082" id="VPMpc" d="M213 195c-1.564 0-3.876 1-6 1l-6.5-3c-3.629-1.814-10.333-1-13.5-1 0-4.098-4-6.986-4-12 0-1.175 5.704-2 7-2 5.519 0 12.343 1 18.5 1 1.278 0 5.5.665 5.5-1 2.041 0 3 .959 3 3 0 2.72 2 3.553 2 6v2l-6 6ZM243 195l6 1c5.023 0 12.356-4 20-4 0-4.069 5-7.23 5-12-2.522 0-4.909-2-8-2h-24c-1.238 0-3 .423-3 2 0 2.765-2 5.165-2 7v2l6 6Z"/><path fill="#CCC8CA" id="ar" d="m334 178-1 1 1-1Z"/><path fill="#FF6F80" id="TH" d="m127 182 3 2-1-5h-1l-1 3Z"/><path fill="#FF7F82" id="VPLpc" d="M182 192h5c0-4.098-4-6.986-4-12l-4-1-2.5 2c-1.736.868-10.5 1.601-10.5 4 0 4.696 12.055 7 16 7Z"/><path fill="#FE7F83" id="SPA" d="M233 191v1c-.1 0-5.888 3.806-7.5 3-3.109-1.554-1.92-8-6.5-8 0-2.447-2-3.28-2-6l2-1c6.945 0 12.595-1 19-1l1 1c0 2.765-2 5.165-2 7l-2 2-1 1-1 1Z"/><path fill="#FF7F82" id="VPLpc" d="M269 192h6c5.235 0 11.712-5 15-5l1-2c0-1.111-12.464-6-14-6l-3 1c0 4.77-5 7.931-5 12Z"/><path fill="#FF6F80" id="TH" d="m329 182-2 1c0-1.048-.473-3 1-3l1 2Z"/><path fill="#CAC7CB" id="fiber tracts" d="m107 182 1 1-1-1Z"/><path fill="#FF6F80" id="TH" d="M182 192c0 1.805-7 1.053-7 6l-10.5-8c-1.472-.736-9.5-2.483-9.5-4h6c0 1.218 5 2.893 5 1.5l-3-2.5-1-2 4 2c0 4.696 12.055 7 16 7ZM294 185l-4 2 1-2 3-2v2Z"/><path fill="#CACCCB" id="opt" d="m139 226 7 5c2.055 0-1.193-3.693-2-4.5l-10-12c-4.118-8.235-9.903-15.806-14-24-.549-1.098-2.379-7.561-4.5-6.5-2.758 1.379-.5 6.742-.5 8.5 0 11.615 15 21.581 15 26.5l8 6 1 1Z"/><path fill="#FF6F80" id="TH" d="m327 184-1 1 1-1Z"/><path fill="#CACCCB" id="opt" d="M315 222c0 3.636-5 5.108-5 9 4.794 0 12.104-12 16-12l1-1 1-1 11-14.5c1.899-3.798 3-8.987 3-13.5 0-1.111.455-5-1.5-5-2.724 0-3.77 7.04-4.5 8.5-3.711 7.422-8.964 16.964-15 23l-6 6.5Z"/><path fill="#CACCC8" id="ml" d="m163 185-2 1c0 1.218 5 2.893 5 1.5l-3-2.5ZM295 186c0 1.219-5 3.336-5 1l4-2 1 1Z"/><path fill="#FF6F80" id="TH" d="M275 192c0 2.113 7 1.42 7 5l11.5-8c1.479-.739 8.5-.967 8.5-3h-7c0 1.219-5 3.336-5 1-3.288 0-9.765 5-15 5Z"/><path fill="#0E9F90" id="ECT6b" d="M389 186c-1.399 0-1.399 2 0 2v-2Z"/><path fill="#CCC" d="m124 187-1 4.5c7.262 14.524 16.087 28.087 28.5 40.5 3.702 3.702 7.661 6.831 12 9 .903.452 4.253 3.994 5.5 1.5 2.24-4.481.549-10.975-4.5-13.5-7.171-3.586-15.776-10.051-19.5-17.5-4.684-9.369-6.926-24.5-21-24.5Z"/><path fill="#FF6F80" id="TH" d="m229 201 4 2v-11c-.1 0-5.888 3.806-7.5 3-3.109-1.554-1.92-8-6.5-8v2c6.049 0 5 8.789 5 13l3-1c0-2.564 2-2.564 2 0ZM235 189h2v-2l-2 2Z"/><path fill="#CCC" d="M315 222c0-4.208 13.415-21.33 16-26.5.983-1.967 4.19-6.655.5-8.5-3.839-1.92-11.881 5.262-13.5 8.5-3.312 6.624-5.711 13.422-9 20-3.998 7.996-16.563 9.126-20 16-1.4 2.8-5.446 9.027-.5 11.5 5.906 2.953 22.089-21 26.5-21Z"/><path fill="#FF7F84" id="SPFm" d="M223 203c0 3.312-5.655 1-7 1 0-2.86-3-5.58-3-9l6-6c6.049 0 5 8.789 5 13l-1 1Z"/><path fill="#FF6F80" id="TH" d="m235 189-1 1 1-1Z"/><path fill="#FF7F84" id="SPFm" d="m233 203 2.5 2 4.5-1c0-2.561 3-5.324 3-9l-6-6h-2l-1 1-1 1v12Z"/><path fill="#FF6F80" id="TH" d="m234 190-1 1 1-1Z"/><path fill="#FF7E84" id="VM" d="M199 212h2l6-3 1-1 1-1v-2c0-3.301-2-7.523-2-9l-6.5-3c-3.629-1.814-10.333-1-13.5-1h-5c0 1.805-7 1.053-7 6 0 3.597 13.278 11 16 11 2.583 0 3.934 2 7 2l1 1ZM255 212h2l2-1 5-1 1-1c3.858 0 17-7.597 17-12 0-3.58-7-2.887-7-5h-6c-7.644 0-14.977 4-20 4 0 2.526-2 5.577-2 9v1l4.5 5c1.046.523 3.5-.951 3.5 1Z"/><path fill="#0E9F90" id="ECT6b" d="m389 194-1 1c0-1.048-.473-3 1-3v2Z"/><path fill="#0E9584" id="PERI1" d="m37 203-6 2-4-12h8c0 3.721 2 6.881 2 10Z"/><path fill="#0E9583" id="PERI2/3" d="M37 203h6c.986 0 6-1.087 6-2l-2-7-12-1c0 3.721 2 6.881 2 10Z"/><path fill="#97D6F9" id="STR" d="M125 223c-3.3 0-5-8.028-5 1-2.207 0-.338-5.176-1-6.5-1.017-2.034-3.997-6.5-6-6.5 0-1.995-4.377-2-6-2-2.313 0-5 1.452-5 4l-3-3.5c-2.648-2.648-10-7.791-10-11.5 4.748 0 15 3.512 15-5 1.811 0 1.58 7 5 7l18 17c-5.196 0-2 3.139-2 6ZM337 220c-5.018 0-3.72 3-5 3 0-1.406.714-7-1-7l16-16c4.307 0 3.069-7 5-7 0 6.977 9.646 6 15 6 0 2.996-7.664 9.082-9.5 10l-2.5 3-6-3-5 1-1 1c-2.01 0-6 6.805-6 9Z"/><path fill="#0E9583" id="PERI2/3" d="M414 203h6l2-10-12 1-3 7c0 1.175 5.704 2 7 2Z"/><path fill="#0E9584" id="PERI1" d="m420 204 5 1c1.812 0 4-10.142 4-12h-7l-2 10v1Z"/><path fill="#0F9684" id="PERI5" d="M49 201h1l9-2 2-1v-1c-4.188 0-9.593-3-14-3l2 7Z"/><path fill="#A0EE9C" id="EPd" d="m76 231-4 2c-.81 0-5-6.749-5-8l3 1.5-4-9c-1.953-3.907-2-15.195-2-19.5v-1c0-2.041.96-3 3-3l1 1c1.758 0 2.301 7.103 3 8.5 3.815 7.631 5 16.257 5 25.5v2ZM380 231c1.429 0 4 1.288 4 3 .483 0 4-5.903 4-7-3.145 0 .873-6.247 2-8.5 2.667-5.334 2-14.149 2-20.5v-1c0-2.041-.959-3-3-3l-1 1-5 13.5c-2.746 5.492-3 15.014-3 21.5v1Z"/><path fill="#0F9684" id="PERI5" d="M406 201h1l3-7-14 2-1 1v1l2 1 9 2Z"/><path fill="#FF6F80" id="TH" d="M209 205h1l1-1h5c0-2.86-3-5.58-3-9-1.564 0-3.876 1-6 1 0 1.477 2 5.699 2 9ZM240 204c2.409 0 5.181 1 7 1 0-3.423 2-6.474 2-9l-6-1c0 3.676-3 6.439-3 9Z"/><path fill="#E64438" id="HY" d="m314 195-1 1 1-1ZM147 202c0-2.655 7.768 3 9 3 0-1.737-11.177-9-13-9 0 .853 2.992 6 4 6ZM305 202h5l3-6c-1.505 0-8 4.197-8 6Z"/><path fill="#0E9684" id="PERI6a" d="M62 198h2v-1h-3v1h1ZM394 198h1v-1h-3v1h2Z"/><path fill="#32B824" id="ENTl6a" d="m62 201-1 6c-1.434 0-2-6.448-2-8l2-1h1v3Z"/><path fill="#C9C8CA" id="ee" d="M67 224v1l3 1.5-4-9c-1.953-3.907-2-15.195-2-19.5h-2v3c2.427 0 .139 9.778 1 11.5l4 11.5Z"/><path fill="#97D6F9" id="STR" d="m368 198-1 1 1-1Z"/><path fill="#C9C8CA" id="ee" d="m389 225-1 2c-3.145 0 .873-6.247 2-8.5 2.667-5.334 2-14.149 2-20.5h2v4l-1 13v2l-1 2-1 2-1 2-1 2Z"/><path fill="#32B824" id="ENTl6a" d="M394 202c1.684 0 1 4.679 1 6 2.156 0 2-7.077 2-9l-2-1h-1v4Z"/><path fill="#31B824" id="ENTl5" d="m62 214-7 2c0-2.535-5-11.593-5-15l9-2c0 1.552.566 8 2 8l1 7Z"/><path fill="#FF64FF" id="MB" d="M227 201h2c0-2.564-2-2.564-2 0Z"/><path fill="#31B824" id="ENTl5" d="M394 214c2.522 0 4.909 2 8 2l4-15-9-2c0 1.923.156 9-2 9 0 2.124-1 4.436-1 6Z"/><path fill="#32B725" id="ENTl3" d="m55 216-8 2c0-5.113-4-9.289-4-15 .986 0 6-1.087 6-2h1c0 3.407 5 12.465 5 15Z"/><path fill="#A0EE9C" id="EPd" d="M62 214c2.06 0 1.647 10 5 10l-4-11.5c-.861-1.722 1.427-11.5-1-11.5l-1 6 1 7Z"/><path fill="#F1473B" id="STN" d="M173 233h1l-1-10-2.5-3c-1.909-1.909-9.5-9.092-9.5-11l-4-4h-1c-1.232 0-9-5.655-9-3 0 9.447 11.481 16.981 18 23.5l8 7.5Z"/><path fill="#E64438" id="HY" fill-rule="evenodd" d="M227 211c0 1.726-1.016 12 1.5 12 .183 0 2.328-12-1.5-12m2 24-2 2c0-1.145.579-4-1-4 0-7.474 1.15-18.201-2-24.5-3.2-6.401-15-.952-15 4.5l-3-1 1-3 1-1 1-1v-1l1-1 1-1h5c1.345 0 7 2.312 7-1l1-1 3-1h2l4 2 2.5 2 4.5-1c2.409 0 5.181 1 7 1v1c0 2.773 4 3.67 4 6l-4 2c0-5.237-10.795-12.91-14-6.5-3.094 6.188-3 17.26-3 24.5-1.473 0-1 1.952-1 3Z"/><path fill="#F1473B" id="STN" d="M283 233h1l5.5-6c4.536-2.268 20.5-19.255 20.5-25h-5l-2 1-1 1-2 1c0 1.577-1.762 2-3 2l-2 2c0 4.203-11 8.822-11 14 0 .847-4.376 10-1 10Z"/><path fill="#32B725" id="ENTl3" d="m402 216 7 2c0-4.755 5-9.84 5-15-1.296 0-7-.825-7-2h-1l-4 15Z"/><path fill="#FF6F80" id="TH" d="m224 202-1 1 1-1Z"/><path fill="#E64438" id="HY" d="m305 202-2 1 2-1Z"/><path fill="#A0EE9C" id="EPd" d="m394 214-1 1 1-13c1.684 0 1 4.679 1 6 0 2.124-1 4.436-1 6Z"/><path fill="#32B722" id="ENTl1" d="m42 220-3 3c-1.845 0-1.44-3.381-2-4.5-1.865-3.729-6-9.214-6-13.5l6-2c0 2.695 3.224 17 5 17Z"/><path fill="#32B825" id="ENTl2" d="M47 218c0 1.014-3.959 2-5 2-1.776 0-5-14.305-5-17h6c0 5.711 4 9.887 4 15Z"/><path fill="#E64438" id="HY" d="m303 203-1 1 1-1Z"/><path fill="#32B825" id="ENTl2" d="M409 218c0 .913 5.014 2 6 2 0-2.461 2.811-9.121 4-11.5.574-1.147-1.064-4.5 1-4.5v-1h-6c0 5.16-5 10.245-5 15Z"/><path fill="#FF64FF" id="MB" d="m211 204-1 1 1-1Z"/><path fill="#E64438" id="HY" d="m302 204-2 1 2-1Z"/><path fill="#32B722" id="ENTl1" d="m415 220 3 3c0-6.153 7-11.509 7-18l-5-1c-2.064 0-.426 3.353-1 4.5-1.189 2.379-4 9.039-4 11.5Z"/><path fill="#E64438" id="HY" d="M161 209h2l-6-4 4 4Z"/><path fill="#FF64FF" id="MB" d="m210 205-1 1v-1h1Z"/><path fill="#E64438" id="HY" d="M300 205c-1.238 0-3 .423-3 2 1.238 0 3-.423 3-2Z"/><path fill="#FD4B3C" id="PH" d="m217 253-2 1c-4.457 0-19 .704-19-5 0-6.861 7-13.744 7-21l3-4c8.204 0 3-7.421 3-11 0-5.452 11.8-10.901 15-4.5 3.15 6.299 2 17.026 2 24.5l-2 12-3 6-1 1-3 1ZM236 252l4 1c4.775 0 12.586 2.457 17.5 0l3.5-3c0-6.409-8-15.651-8-23l-3-3c-7.44 0-3-7.302-3-10 0-5.237-10.795-12.91-14-6.5-3.094 6.188-3 17.26-3 24.5 0 3.7 2 7.99 2 12l4 8Z"/><path fill="#FF64FF" id="MB" d="M253 212h2c0-1.951-2.454-.477-3.5-1l-4.5-5c0 2.773 4 3.67 4 6h2ZM209 207l-1 1 1-1Z"/><path fill="#E64438" id="HY" d="M294 209h1l2-2c-1.238 0-3 .423-3 2Z"/><path fill="#FF64FF" id="MB" d="m208 208-1 1 1-1Z"/><path fill="#80BFE0" id="CEAc" d="M107 219h4l1-2c-4.415 0-5-4.018-5-8-2.313 0-5 1.452-5 4l2 5 3 1Z"/><path fill="#80BEE1" id="CEAl" d="M113 211c0 1.321.684 6-1 6-4.415 0-5-4.018-5-8 1.623 0 6 .005 6 2Z"/><path fill="#CCCACB" id="nst" d="M174 216c0 1 5.701 8 .5 8l-1.5-1-2.5-3c-1.909-1.909-9.5-9.092-9.5-11h2l4 2 7 5Z"/><path fill="#E64438" id="HY" d="m206 224-3 4c0-9.31-8.027-7-14-7-4.672 0-9.887-5-15-5l-7-5c4.913 0 21.846 9.808 26 1.5l-2-3.5c2.583 0 3.934 2 7 2l1 1h5c0 1.651-4.823 3.855-3 7.5l5 4.5Z"/><path fill="#FF64FF" id="MB" d="M204 212h2l1-3-6 3h3Z"/><path fill="#E64438" id="HY" d="m265 209-1 1 1-1Z"/><path fill="#CCCACB" id="nst" d="M281 217c0 4.715-2.77 6 3 6 0-5.178 11-9.797 11-14h-1c-1.048 0-3-.473-3 1l-1 1h-1l-1 1h-1l-1 1h-1l-3 3-1 1Z"/><path fill="#80BEE1" id="CEAl" d="M343 211c0 2.426-1.024 6 2 6 5.415 0 4-5.371 4-8l-5 1-1 1Z"/><path fill="#80BFE0" id="CEAc" d="M346 219h3l4-2c0-1.624 2-2.75 2-5l-6-3c0 2.629 1.415 8-4 8l1 2Z"/><path fill="#E64438" id="HY" d="m250 224 3 3c0-9.715 10.465-5 15-5 0-3.216 10.449-5 13-5l1-1 3-3c-5.637 0-21 6.957-21-3l-5 1-2 1h-4c0 2.259 3.675 5.151 2 8.5l-5 3.5ZM291 210l-1 1 1-1Z"/><path fill="#7FC0E0" id="CEAm" d="m344 210-1 1 1-1ZM117 228v1c2.715 0 3-1.657 3-4v-1c-2.207 0-.338-5.176-1-6.5-1.017-2.034-3.997-6.5-6-6.5 0 1.321.684 6-1 6l-1 2 4 7 1 1 1 1Z"/><path fill="#FF64FF" id="MB" d="m198 211 1 1-1-1Z"/><path fill="#A8A9AA" id="V3" d="M227 211c0 1.726-1.016 12 1.5 12 .183 0 2.328-12-1.5-12Z"/><path fill="#FF64FF" id="MB" d="m259 211-2 1 2-1Z"/><path fill="#E64438" id="HY" d="m289 211-1 1 1-1Z"/><path fill="#7FC0E0" id="CEAm" d="m340 228-1 1c-3.024 0-2-3.574-2-6v-3c0-2.195 3.99-9 6-9 0 2.426-1.024 6 2 6l1 2-3 6-2 2-1 1Z"/><path fill="#C7C9CC" id="mtt" d="M209 213c0 3.579 5.204 11-3 11l-5-4.5c-1.823-3.645 3-5.849 3-7.5h2l3 1ZM247 214c0 2.698-4.44 10 3 10l5-3.5c1.675-3.349-2-6.241-2-8.5h-2l-4 2Z"/><path fill="#E64438" id="HY" d="m287 212-1 1 1-1Z"/><path fill="#6ACAB9" id="PIR" d="m84 273-6 12.5-3 3.5c-2.249 0-10.924-13.348-12-15.5l-6-8c-3.341-6.682-18-36.731-18-42.5l3-3c1.041 0 5-.986 5-2l8-2 7-2c2.06 0 1.647 10 5 10v1c0 1.251 4.19 8 5 8 0 9.411 11 26.665 11 31l1 1v8ZM372 273l9 16c3.812 0 10.662-11.824 12-14.5 4.188-8.377 9.862-15.725 14-24l6-17 5-10.5-3-3c-.986 0-6-1.087-6-2l-7-2c-3.091 0-5.478-2-8-2l-1 1v2l-1 2-1 2-1 2-1 2-1 2c0 1.097-3.517 7-4 7 0 9.502-11 26.646-11 30v1l-1 2v6Z"/><path fill="#F1483A" id="PSTN" d="m174 239 1 2 2.5-2c13.292-6.646 5.373-6.246 9.5-14.5.809-1.619 2-1.471 2-3.5-4.672 0-9.887-5-15-5 0 1 5.701 8 .5 8l-1.5-1 1 10v6ZM282 216l-1 1 1-1Z"/><path fill="#97D6F9" id="STR" d="m331 216-1 1 1-1Z"/><path fill="#80BFE1" id="MEA" d="m314 259-9 9-4.5-3c-9.882-4.941-6.5-10.901-6.5-20l16-14c4.794 0 12.104-12 16-12l1-1 1-1h2l1-1c1.714 0 1 5.594 1 7l-2 9c0 2.978-1 6.49-1 10v2c-1.393 0-14 11.239-14 14l-1 1Z"/><path fill="#9DE79B" id="BLAa" d="M112 233c-3.099 0-5.883 4-10 4 0-5.311-8-9.994-8-16 0-4.618 8.135-3 10-3l3 1 5 7 1 5-1 2Z"/><path fill="#80BFE1" id="MEA" d="M143 259c0 1.675 6.062 9 8 9 2.477 0 2.522-2.011 4.5-3 9.075-4.538 7.5-9.327 7.5-19 0-3.839-17-12.477-17-15l-7-5-1-1-8-6-3-2c-5.196 0-2 3.139-2 6l1 9c1.763 0 1 8.343 1 10v1l3.5 4c2.915 1.457 12.5 7.978 12.5 12Z"/><path fill="#F1483A" id="PSTN" d="m283 238-2 2c-8.566 0-13-10.536-13-18 0-3.216 10.449-5 13-5 0 4.715-2.77 6 3 6 0 .847-4.376 10-1 10v5Z"/><path fill="#CAC7CB" id="fiber tracts" d="m328 217-1 1 1-1Z"/><path fill="#9DE79B" id="BLAa" d="M345 233c0 2.623 7.828 4 10 4l8-16c-1.827 0-5.717-4-10-4l-4 2c0 2.785-4 3.54-4 7l-1 1v2l1 4Z"/><path fill="#A0EE9C" id="EPd" d="m393 217-1 2 1-2Z"/><path fill="#CAC7CB" id="fiber tracts" d="m327 218-1 1 1-1Z"/><path fill="#97D6F9" id="STR" d="M112 226c0-2.373 2.284 0 3 0l-4-7h-4l5 7Z"/><path fill="#C8CBC7" id="st" d="M120 225c.83 0 2.466 6.431 3 7.5.521 1.041 3 .744 3-.5l-1-9c-3.3 0-5-8.028-5 1v1ZM337 223c-2.597 0 1.007 9-7 9l2-9c1.28 0-.018-3 5-3v3Z"/><path fill="#97D6F9" id="STR" d="M344 226h1c0-3.46 4-4.215 4-7h-3l-3 6 1 1Z"/><path fill="#A0EE9C" id="EPd" d="m392 219-1 2 1-2Z"/><path fill="#F2483A" id="LHA" d="m189 253-2.5 2c-4.437 2.219-11.241 0-15.5 0 0-1.714-2-3.482-2-6 0-1.999.067-6 3-6l1-1v-1h2l2.5-2c13.292-6.646 5.373-6.246 9.5-14.5.809-1.619 2-1.471 2-3.5 5.973 0 14-2.31 14 7 0 7.256-7 14.139-7 21l-1 2h-5l-1 1v1ZM267 253l2.5 2c4.399 2.2 11.332 0 15.5 0l3-6c0-2.572-4-4.883-4-7l-3-2c-8.566 0-13-10.536-13-18-4.535 0-15-4.715-15 5 0 7.349 8 16.591 8 23l1 1c1.85 0 5-1.798 5 2Z"/><path fill="#9DE69C" id="BLAp" d="M92 250c-1.564 0-3.876 1-6 1l-1-1c0-3.396-4-6.052-4-10 0-6.242 5.222-19 13-19 0 6.006 8 10.689 8 16l-7 11-3 2ZM371 250l-1 1c-2.124 0-4.436-1-6-1l-3-2c0-4.686-6-5.943-6-11l8-16c7.848 0 12 13.852 12 20 0 3.912-4 6.049-4 9Z"/><path fill="#A0EE9C" id="EPd" d="m391 221-1 2 1-2Z"/><path fill="#97D6F9" id="STR" d="M337 237c-3.331 0-4.796 5-8 5 0-3.51 1-7.022 1-10 8.007 0 4.403-9 7-9 0 2.426-1.024 6 2 6 0 1.893-2 4.937-2 8Z"/><path fill="#A0EE9C" id="EPd" d="m390 223-1 2 1-2Z"/><path fill="#80BEE2" id="IA" d="M119 237h1c0-3.351-3-5.596-3-8v-1l-1-1-1-1c-.716 0-3-2.373-3 0l1 5 1 2c1.539 0 2.187 4 5 4Z"/><path fill="#97D6F9" id="STR" d="m120 237 7 5c0-1.657.763-10-1-10 0 1.244-2.479 1.541-3 .5-.534-1.069-2.17-7.5-3-7.5 0 2.343-.285 4-3 4 0 2.404 3 4.649 3 8Z"/><path fill="#CAC7CB" id="fiber tracts" d="m138 225 1 1-1-1Z"/><path fill="#80BEE2" id="IA" d="M342 233c0 1.811-3.438 4-5 4 0-3.063 2-6.107 2-8l1-1 1-1 2-2 1 1v3l-2 4Z"/><path fill="#A0EE9C" id="EPd" d="m389 225-1 2 1-2Z"/><path fill="#8AD987" id="CTXsp" d="m345 226-1 1v-1h1Z"/><path fill="#97D6F9" id="STR" d="m116 227 1 1-1-1ZM341 227l-1 1 1-1Z"/><path fill="#8AD987" id="CTXsp" d="m380 231-2 2v-6l2 3v1ZM76 231l3 3c0-1.321.684-6-1-6l-2 1v2Z"/><path fill="#97D6F9" id="STR" d="m340 228-1 1 1-1Z"/><path fill="#8AD987" id="CTXsp" d="M342 233h3l-1-4-2 4Z"/><path fill="#A0ED9D" id="EPv" d="M83 264h1c0-4.252 2-9.018 2-13l-1-1c0-3.396-4-6.052-4-10-1.995 0-2-4.377-2-6l-3-3-4 2c0 9.411 11 26.665 11 31Z"/><path fill="#8AD987" id="CTXsp" d="M112 233h2l-1-2-1 2Z"/><path fill="#A0ED9D" id="EPv" d="M372 264h1c0-3.354 11-20.498 11-30 0-1.712-2.571-3-4-3l-2 2v1l-1 1c0 1.623-.005 6-2 6 0 3.912-4 6.049-4 9v2l1 12Z"/><path fill="#FD5D50" id="PVi" d="M229 269h3v-25c0-4.01-2-8.3-2-12-1.473 0-1 1.952-1 3v34Z"/><path fill="#84E981" id="BMAp" d="M103 265h3c2.246 0 19-14.397 19-18 0-4.897-6-6.064-6-10-2.813 0-3.461-4-5-4h-2c-3.099 0-5.883 4-10 4l-7 11v3c2.469 0 8 11.654 8 14Z"/><path fill="#E64438" id="HY" d="M174 233v3c-1.473 0-1-1.952-1-3h1Z"/><path fill="#FD5D50" id="PVi" d="M224 269h3v-32c0-1.145.579-4-1-4l-2 12v24Z"/><path fill="#E64438" id="HY" d="m284 233-1 1v-1h1Z"/><path fill="#84E981" id="BMAp" d="M350 265h3c0-5.113 8-9.447 8-14l1-1-1-2c0-4.686-6-5.943-6-11-2.172 0-10-1.377-10-4h-3c0 1.811-3.438 4-5 4 0 3.383-6 5.603-6 10 0 1.902 16.344 18 19 18Z"/><path fill="#8AD987" id="CTXsp" d="m378 234-1 1 1-1Z"/><path fill="#A8A9AA" id="V3" d="M227 269c0 12.017 2 12.017 2 0v-34l-2 2v32Z"/><path fill="#8AD987" id="CTXsp" d="M127 243c0 1.465.109 4-2 4 0-4.897-6-6.064-6-10h1l7 5v1ZM329 244l2 3c0-4.397 6-6.617 6-10-3.331 0-4.796 5-8 5v2Z"/><path fill="#E64438" id="HY" d="m281 240 3 2-1-4-2 2ZM173 241h2l-1-2-1 2ZM173 242l-1 1 1-1Z"/><path fill="#97EC93" id="PA" d="M115 269c-3.962 0-8.688 1-12 1v-2l1-1 2-2c2.246 0 19-14.397 19-18 2.109 0 2-2.535 2-4l3.5 4c2.915 1.457 12.5 7.978 12.5 12l-5.5-1c-2.959 1.48-22.5 8.821-22.5 11Z"/><path fill="#E64438" id="HY" d="M236 252c-1.674 0-2.326 1-4 1v-9l4 8Z"/><path fill="#97EC93" id="PA" d="M342 269h10.5l2.5 2-2-3-3-3c-2.656 0-19-16.098-19-18l-2-3c-1.393 0-14 11.239-14 14 9.001 0 24.806 11 27 11Z"/><path fill="#E64438" id="HY" d="m221 251 3 1v-7l-3 6Z"/><path fill="#8AD987" id="CTXsp" d="m92 250 3 1v-3l-3 2ZM362 250h2l-3-2 1 2Z"/><path fill="#E64438" id="HY" d="M186 275c0 4.345 19.419 12 23 12 0-5.087 2.489-8.989 6-12.5l6-4.5c-2.765 0-5.165-2-7-2 0 13.463-14.537 4.963-19.5 0-.916-.916-4.379-5.81-2-7l10.5-1c3.222 0 6.277 1 9 1 0-3.205 3-5.611 3-7-4.457 0-19 .704-19-5l-1 2c0 5.24-6 8.882-6 2l-2.5 2c-4.437 2.219-11.241 0-15.5 0l4 6c0-14.19 29.904 12.798 21.5 17-4.104 2.052-7.534-3-10.5-3Z"/><path fill="#8AD987" id="CTXsp" d="m85 250 1 1-1-1Z"/><path fill="#9CE79C" id="BLAv" d="m97 275-3 1c-3.137 0-5.591-4-8-4l-1-5-1-1v-2c0-4.252 2-9.018 2-13 2.124 0 4.436-1 6-1l3 1c2.469 0 8 11.654 8 14l1 2-1 1v2l-6 5Z"/><path fill="#C7C8CA" id="fx" d="M189 252v1c0 6.882 6 3.24 6-2h-5l-1 1Z"/><path fill="#E64438" id="HY" d="M281 261c0-9.873-12.022-.456-14 3.5l-4 3.5 2-5.5c-2.778-5.557-16.665-1.5-21-1.5 0-4.001-4-6.611-4-8 4.775 0 12.586 2.457 17.5 0l3.5-3 1 1c-1.156 0-1.472 2.555-1 3.5 2.176 4.352 6 2.702 6-1.5l2.5 2c4.399 2.2 11.332 0 15.5 0 0 1.417-2.383 6-4 6Z"/><path fill="#C7C8CA" id="fx" d="M262 251c1.85 0 5-1.798 5 2 0 4.202-3.824 5.852-6 1.5-.472-.945-.156-3.5 1-3.5Z"/><path fill="#8AD987" id="CTXsp" d="m362 250-1 1 1-1Z"/><path fill="#9CE79C" id="BLAv" d="m360 275 3 1 6-3 1-1 2-3v-5l-1-12-1-1c-2.124 0-4.436-1-6-1h-2l-1 1c0 4.553-8 8.887-8 14v3l2 3 5 4Z"/><path fill="#8AD987" id="CTXsp" d="m370 251 1 1v-2l-1 1Z"/><path fill="#CBCCCB" id="mfb" d="m190 251-1 1 1-1Z"/><path fill="#E64438" id="HY" d="m221 251-1 1 1-1Z"/><path fill="#FE5445" id="DMH" d="m224 269-3 1c-2.765 0-5.165-2-7-2l-2-7c0-3.205 3-5.611 3-7l2-1 3-1 1-1 3 1v17ZM242 269l-6 1-3-1-1-1v-15c1.674 0 2.326-1 4-1l4 1c0 1.389 4 3.999 4 8l-2 8Z"/><path fill="#E64438" id="HY" d="m217 253-2 1 2-1Z"/><path fill="#FF4C3E" id="TMv" d="M176 263c0 1.815 8.796 12 10 12 2.966 0 6.396 5.052 10.5 3 8.404-4.202-21.5-31.19-21.5-17v1l1 1ZM269 276l-1 1c-4.888 0-11 3.55-11-4h1l1-1 1-1 2-2 1-1 4-3.5c1.978-3.956 14-13.373 14-3.5 0 2.244-9.726 14-11 14l-1 1Z"/><path fill="#60E6B5" id="COApm" d="M115 269c0 2.432 2.678 21 6 21 5.124 0 17.969-14.234 23.5-17l6.5-5c-1.938 0-8-7.325-8-9l-5.5-1c-2.959 1.48-22.5 8.821-22.5 11Z"/><path fill="#97EC93" id="PA" d="m315 258-1 1 1-1Z"/><path fill="#60E6B5" id="COApm" d="M342 269c0 3.662-4.102 21-7 21-4.629 0-17.782-14.641-22.5-17l-7.5-5 9-9 1-1c9.001 0 24.806 11 27 11Z"/><path fill="#FF4B3B" id="PMv" d="M212 261c-2.723 0-5.778-1-9-1l-10.5 1c-2.379 1.19 1.084 6.084 2 7 4.963 4.963 19.5 13.463 19.5 0l-2-7ZM257 273h1l1-1 1-1c0-1.747.253-2 2-2l1-1 2-5.5c-2.778-5.557-16.665-1.5-21-1.5l-2 8c.235 0 3.926 5.213 5.5 6 3.567 1.784 7.072-2 9.5-2Z"/><path fill="#E64438" id="HY" d="m175 262 1 1-1-1Z"/><path fill="#99D2BD" id="OLF" d="M84 264v1l-1-1h1Z"/><path fill="#8AD987" id="CTXsp" d="M372 265h1v-1h-1v1ZM106 265l-2 2-1-2h3ZM353 265v3l-3-3h3Z"/><path fill="#99D2BD" id="OLF" d="m373 265-1 2v-2h1Z"/><path fill="#8AD987" id="CTXsp" d="M84 267h1l-1-1v1Z"/><path fill="#99D2BD" id="OLF" d="m86 272-2 1v-6h1l1 5Z"/><path fill="#8AD987" id="CTXsp" d="m104 267-1 1 1-1Z"/><path fill="#E64438" id="HY" d="M232 269h1l-1-1v1ZM263 268l-1 1 1-1Z"/><path fill="#5FE6B7" id="COApl" d="M93 297v1c9.538 0 17.95 1.55 25.5-6l2.5-2c-3.322 0-6-18.568-6-21-3.962 0-8.688 1-12 1l-6 5-2 2c0 7.089-2 14.55-2 20Z"/><path fill="#FF5B4F" id="ARH" d="m237 288 2 1 8-2c0-8.202-11-16.586-11-17l-3-1h-4c0 12.017-2 12.017-2 0h-3l-3 1-6 4.5c-3.511 3.511-6 7.413-6 12.5l8 2 2-1c0-2.055 12.366-2 14.5-2l3.5 2Z"/><path fill="#E64438" id="HY" d="M268 277c0 3.945-17.651 10-21 10 0-8.202-11-16.586-11-17l6-1c.235 0 3.926 5.213 5.5 6 3.567 1.784 7.072-2 9.5-2 0 7.55 6.112 4 11 4ZM262 269c-1.747 0-2 .253-2 2l2-2Z"/><path fill="#5FE6B7" id="COApl" d="M363 297v1c-11.835 0-12.73.385-23.5-5l-4.5-3c2.898 0 7-17.338 7-21h10.5l2.5 2 5 4 1 2c0 7.282 2 13.437 2 20Z"/><path fill="#99D2BD" id="OLF" d="m370 272 2 1v-4l-2 3Z"/><path fill="#59D9AA" id="PAA" d="m93 297-2 1c-3.035 0-16-4.804-16-9l3-3.5 6-12.5 2-1c2.409 0 4.863 4 8 4l1 1c0 7.089-2 14.55-2 20Z"/><path fill="#E64438" id="HY" d="m259 272-1 1 1-1Z"/><path fill="#99D2BD" id="OLF" d="m370 272-1 1 1-1Z"/><path fill="#59D9AA" id="PAA" d="m363 297 2 1c3.589 0 16-5.144 16-9l-9-16-2-1-1 1-6 3-2 1c0 7.282 2 13.437 2 20Z"/><path fill="#99D2BD" id="OLF" d="m94 276 1 1 2-2-3 1Z"/><path fill="#E64438" id="HY" d="m270 275-1 1 1-1Z"/><path fill="#99D2BD" id="OLF" d="m363 276-2 1-1-2 3 1Z"/><path fill="#F1473A" id="ME" d="M219 289c0 11.143 19 10.745 19 0l-1-1-3.5-2c-2.134 0-14.5-.055-14.5 2v1Z"/><path fill="#E64438" id="HY" d="M217 289h2v-1l-2 1ZM238 289h1l-2-1 1 1Z"/><path fill="#99D2BD" id="OLF" d="M91 298h2v-1l-2 1ZM363 298h2l-2-1v1Z"/></svg>